<svg xmlns="http://www.w3.org/2000/svg" width="24" height="24" fill="none" viewBox="0 0 24 24"><path fill="#BCCCD9" d="M7 15H9C9 16.084 10.374 17 12 17C13.626 17 15 16.084 15 15C15 13.901 13.962 13.521 11.757 12.97C9.637 12.44 7 11.78 7 9C7 7.212 8.474 5.695 10.5 5.184V3H13.5V5.184C15.526 5.694 17 7.212 17 9H15C15 7.916 13.626 7 12 7C10.374 7 9 7.916 9 9C9 10.1 10.039 10.479 12.243 11.03C14.363 11.56 17 12.22 17 15C17 16.788 15.526 18.305 13.5 18.816V21H10.5V18.816C8.474 18.306 7 16.788 7 15Z"/></svg>