<svg xmlns="http://www.w3.org/2000/svg" width="24" height="24" fill="none" viewBox="0 0 24 24"><path fill="#BCCCD9" d="M7.4123 12.3086C7.4123 12.3623 7.4123 12.416 7.4123 12.4746C7.4123 14.1152 6.9582 14.999 6.11836 14.999C5.57148 14.999 5.19063 14.623 4.99043 13.9053L7.4123 12.3086ZM4.8293 12.6504C4.8293 12.5918 4.8293 12.5332 4.8293 12.4746C4.8293 10.8389 5.2834 9.9502 6.11836 9.9502C6.67012 9.9502 7.05098 10.3311 7.25117 11.0537L4.8293 12.6504ZM6.11836 8.80273C4.42891 8.80273 3.47188 10.126 3.47188 12.4746C3.47188 14.8232 4.42891 16.1465 6.11836 16.1465C7.8127 16.1465 8.76973 14.8232 8.76973 12.4746C8.76973 10.126 7.8127 8.80273 6.11836 8.80273ZM13 16.0928C13.5908 16.0928 14.0742 15.5947 14.0742 14.9941C14.0742 14.3887 13.5908 13.8906 13 13.8906C12.4092 13.8906 11.9258 14.3887 11.9258 14.9941C11.9258 15.5947 12.4092 16.0928 13 16.0928ZM20.8143 14.8428V8.9541H19.4568L17.5525 10.2285V11.5371L19.3689 10.3311H19.4568V14.8428H17.5574V16H19.4568H20.8143H22.616V14.8428H20.8143Z"/></svg>