<svg xmlns="http://www.w3.org/2000/svg" width="72" height="76" fill="none"><rect width="55" height="21" x="8.5" y="10.5" fill="#fff" rx="2.5"/><rect width="55" height="21" x="8.5" y="10.5" stroke="#CDD5DF" rx="2.5"/><path stroke="#99A4B3" stroke-linecap="round" stroke-linejoin="round" d="m56.5 19.5-3 3-3-3"/><mask id="b" fill="#fff"><path d="M8 37a2 2 0 0 1 2-2h52a2 2 0 0 1 2 2v29H8V37Z"/></mask><path fill="url(#a)" d="M8 37a2 2 0 0 1 2-2h52a2 2 0 0 1 2 2v29H8V37Z"/><path fill="#CDD5DF" d="M7 37a3 3 0 0 1 3-3h52a3 3 0 0 1 3 3h-2a1 1 0 0 0-1-1H10a1 1 0 0 0-1 1H7Zm57 29H8h56ZM7 66V37a3 3 0 0 1 3-3v2a1 1 0 0 0-1 1v29H7Zm55-32a3 3 0 0 1 3 3v29h-2V37a1 1 0 0 0-1-1v-2Z" mask="url(#b)"/><path stroke="#99A4B3" stroke-linecap="round" stroke-linejoin="round" d="m18 46-2 2-2-2"/><rect width="24" height="8" x="22" y="43" fill="#E3E8EF" rx="1"/><rect width="28" height="8" x="30" y="56" fill="#E3E8EF" rx="1"/><defs><linearGradient id="a" x1="36" x2="36" y1="35" y2="66" gradientUnits="userSpaceOnUse"><stop offset=".617" stop-color="#fff"/><stop offset="1" stop-color="#fff" stop-opacity="0"/></linearGradient></defs></svg>