<svg xmlns="http://www.w3.org/2000/svg" width="56" height="56" fill="none"><rect width="55" height="21" x=".5" y=".5" fill="#fff" rx="2.5"/><rect width="55" height="21" x=".5" y=".5" stroke="#CDD5DF" rx="2.5"/><path stroke="#99A4B3" stroke-linecap="round" stroke-linejoin="round" d="m48.5 9.5-3 3-3-3"/><mask id="b" fill="#fff"><path d="M0 27a2 2 0 0 1 2-2h52a2 2 0 0 1 2 2v29H0V27Z"/></mask><path fill="url(#a)" d="M0 27a2 2 0 0 1 2-2h52a2 2 0 0 1 2 2v29H0V27Z"/><path fill="#CDD5DF" d="M-1 27a3 3 0 0 1 3-3h52a3 3 0 0 1 3 3h-2a1 1 0 0 0-1-1H2a1 1 0 0 0-1 1h-2Zm57 29H0h56Zm-57 0V27a3 3 0 0 1 3-3v2a1 1 0 0 0-1 1v29h-2Zm55-32a3 3 0 0 1 3 3v29h-2V27a1 1 0 0 0-1-1v-2Z" mask="url(#b)"/><path stroke="#99A4B3" stroke-linecap="round" stroke-linejoin="round" d="m10 36-2 2-2-2"/><rect width="24" height="8" x="14" y="33" fill="#E3E8EF" rx="1"/><rect width="28" height="8" x="22" y="46" fill="#E3E8EF" rx="1"/><defs><linearGradient id="a" x1="28" x2="28" y1="25" y2="56" gradientUnits="userSpaceOnUse"><stop offset=".617" stop-color="#fff"/><stop offset="1" stop-color="#fff" stop-opacity="0"/></linearGradient></defs></svg>