<svg xmlns="http://www.w3.org/2000/svg" width="24" height="24" fill="none" viewBox="0 0 24 24"><path fill="#4B4848" fill-rule="evenodd" d="M9.50001 11.8034V18.5L14.5 21V11.55L12 15C11.3917 14.2179 10.4119 12.9626 9.50001 11.8034Z" clip-rule="evenodd"/><path fill="#4B4848" fill-rule="evenodd" d="M15.5 10.17V21L20.5 18V6L17 8.1L15.5 10.17Z" clip-rule="evenodd"/><path fill="#4B4848" d="M3.5 9V21L8.5 18V10.5374C8.5 10.5374 7.83441 9.63336 7.5 9C7.12002 8.28033 6.72229 7.06662 6.72229 7.06662L3.5 9Z"/><path fill="#4B4848" fill-rule="evenodd" d="M9.1559 9.87818C8.30481 8.73014 7.6 7.67255 7.6 6.35454C7.6 3.95998 9.56392 2.01104 11.9821 2H12.0032C14.431 2 16.4065 3.95362 16.4065 6.35454C16.4065 7.67255 15.7017 8.73038 14.8506 9.87818C14.8506 9.87818 12.1182 13.3703 12.0069 13.5208L9.1559 9.87818Z" clip-rule="evenodd"/></svg>