<svg width="24" height="24" viewBox="0 0 24 24" fill="none" xmlns="http://www.w3.org/2000/svg">
<path fill-rule="evenodd" clip-rule="evenodd" d="M8.94727 12.3513V20.1053L14.7367 23V12.0579L11.842 16.0527C11.1376 15.1471 10.0031 13.6936 8.94727 12.3513Z" fill="#4B4848"/>
<path fill-rule="evenodd" clip-rule="evenodd" d="M15.8947 10.46V23L21.6841 19.5263V5.63162L17.6315 8.0632L15.8947 10.46Z" fill="#4B4848"/>
<path d="M2 9.10532V23L7.78946 19.5264V10.8855C7.78946 10.8855 7.01878 9.83868 6.63157 9.10532C6.1916 8.27202 5.73107 6.86667 5.73107 6.86667L2 9.10532Z" fill="#4B4848"/>
<path fill-rule="evenodd" clip-rule="evenodd" d="M8.54876 10.1221C7.56329 8.79278 6.74719 7.56821 6.74719 6.04209C6.74719 3.26945 9.0212 1.01278 11.8212 1H11.8456C14.6568 1 16.9442 3.26208 16.9442 6.04209C16.9442 7.56821 16.1281 8.79306 15.1426 10.1221C15.1426 10.1221 11.9788 14.1656 11.8499 14.3399L8.54876 10.1221Z" fill="#4B4848"/>
</svg>
