<svg xmlns="http://www.w3.org/2000/svg" width="14" height="14" fill="none" viewBox="0 0 14 14"><path fill="#fff" d="M12.7882 1.21167C12.7882 1.21167 8.45354 1.20153 5.07423 4.58084C4.92151 4.7353 4.78259 4.90281 4.65905 5.08146C4.05995 5.03367 3.14174 5.05105 2.67347 5.52029C1.57761 6.61615 1.21216 8.44291 1.21216 8.44291L3.76788 8.07795V8.78374L5.21616 10.232H5.92195L5.5565 12.7882C5.5565 12.7882 7.38326 12.4228 8.47912 11.3269C8.94788 10.8582 8.96526 9.94043 8.91795 9.34133C9.09672 9.21794 9.26424 9.07901 9.41857 8.92615C12.7979 5.54684 12.7882 1.21167 12.7882 1.21167ZM7.9703 5.06408C7.96739 4.93551 7.9902 4.80764 8.03739 4.688C8.08457 4.56836 8.15519 4.45936 8.24508 4.36738C8.33498 4.27541 8.44235 4.20232 8.56088 4.15241C8.67941 4.1025 8.80672 4.07677 8.93533 4.07674C9.06394 4.07671 9.19126 4.10237 9.30981 4.15222C9.42837 4.20207 9.53577 4.27511 9.62571 4.36704C9.71565 4.45896 9.78632 4.56794 9.83357 4.68755C9.88082 4.80717 9.90369 4.93502 9.90085 5.0636C9.89527 5.31587 9.79115 5.55594 9.61079 5.7324C9.43042 5.90887 9.18814 6.00771 8.93581 6.00777C8.68348 6.00784 8.44114 5.90911 8.26069 5.73274C8.08024 5.55636 7.976 5.31635 7.9703 5.06408Z"/><path fill="#fff" d="M4.13135 10.7201C3.68769 11.1638 3.12528 10.8727 3.12528 10.8727C3.12528 10.8727 2.85107 10.2934 3.27783 9.86663C3.31452 9.82994 3.35942 9.80918 3.40238 9.78408L3.10548 9.48718C2.95052 9.54029 2.80424 9.62429 2.68066 9.74787C2.24714 10.1814 2.27224 11.7257 2.27224 11.7257C2.27224 11.7257 3.81707 11.7504 4.25011 11.3173C4.37369 11.1937 4.45769 11.0475 4.51079 10.8925L4.21438 10.5961C4.18879 10.6386 4.16804 10.6835 4.13135 10.7201Z"/></svg>