<svg width="18" height="20" viewBox="0 0 18 20" fill="none" xmlns="http://www.w3.org/2000/svg">
  <path
    d="M7 0C7.552 0 8 0.448 8 1V5C8 5.552 7.552 6 7 6H5V8H10V7C10 6.448 10.448 6 11 6H17C17.552 6 18 6.448 18 7V11C18 11.552 17.552 12 17 12H11C10.448 12 10 11.552 10 11V10H5V16H10V15C10 14.448 10.448 14 11 14H17C17.552 14 18 14.448 18 15V19C18 19.552 17.552 20 17 20H11C10.448 20 10 19.552 10 19V18H4C3.448 18 3 17.552 3 17V6H1C0.448 6 0 5.552 0 5V1C0 0.448 0.448 0 1 0H7ZM16 16H12V18H16V16ZM16 8H12V10H16V8ZM6 2H2V4H6V2Z"
    fill="#858282"/>
</svg>
