<svg width="16" height="16" viewBox="0 0 16 16" fill="none" xmlns="http://www.w3.org/2000/svg">
  <path fill-rule="evenodd" clip-rule="evenodd"
        d="M14.4713 2.19526C14.3463 2.07024 14.1767 2 13.9999 2H1.99992C1.82311 2 1.65354 2.07024 1.52851 2.19526C1.40349 2.32029 1.33325 2.48986 1.33325 2.66667V13.3333C1.33325 13.5101 1.40349 13.6797 1.52851 13.8047C1.65354 13.9298 1.82311 14 1.99992 14H13.9999C14.1767 14 14.3463 13.9298 14.4713 13.8047C14.5963 13.6797 14.6666 13.5101 14.6666 13.3333V2.66667C14.6666 2.48986 14.5963 2.32029 14.4713 2.19526ZM2.66659 3.33333H4.99988L4.99988 12.6667H2.66659V3.33333ZM10.9999 3.33333H13.3333V12.6667H10.9999L10.9999 3.33333ZM5.99992 3.33333H9.99992V12.6667H5.99992V3.33333Z"
        fill="#A6A6A6"/>
</svg>
