<svg xmlns="http://www.w3.org/2000/svg" width="20" height="20" fill="none" viewBox="0 0 20 20"><path fill="#F69D2C" d="M10 2.5C8.51664 2.5 7.06659 2.93987 5.83323 3.76398C4.59986 4.58809 3.63856 5.75943 3.07091 7.12987C2.50325 8.50032 2.35472 10.0083 2.64411 11.4632C2.9335 12.918 3.64781 14.2544 4.6967 15.3033C5.7456 16.3522 7.08197 17.0665 8.53683 17.3559C9.99168 17.6453 11.4997 17.4967 12.8701 16.9291C14.2406 16.3614 15.4119 15.4001 16.236 14.1668C17.0601 12.9334 17.5 11.4834 17.5 10C17.5 9.01508 17.306 8.03981 16.9291 7.12987C16.5522 6.21993 15.9997 5.39314 15.3033 4.6967C14.6069 4.00026 13.7801 3.44781 12.8701 3.0709C11.9602 2.69399 10.9849 2.5 10 2.5ZM10 13.75C9.85167 13.75 9.70666 13.706 9.58332 13.6236C9.45999 13.5412 9.36386 13.4241 9.30709 13.287C9.25033 13.15 9.23547 12.9992 9.26441 12.8537C9.29335 12.7082 9.36478 12.5746 9.46967 12.4697C9.57456 12.3648 9.7082 12.2933 9.85368 12.2644C9.99917 12.2355 10.15 12.2503 10.287 12.3071C10.4241 12.3639 10.5412 12.46 10.6236 12.5833C10.706 12.7067 10.75 12.8517 10.75 13C10.75 13.1989 10.671 13.3897 10.5303 13.5303C10.3897 13.671 10.1989 13.75 10 13.75ZM10.75 10.75C10.75 10.9489 10.671 11.1397 10.5303 11.2803C10.3897 11.421 10.1989 11.5 10 11.5C9.80109 11.5 9.61032 11.421 9.46967 11.2803C9.32902 11.1397 9.25 10.9489 9.25 10.75V7C9.25 6.80109 9.32902 6.61032 9.46967 6.46967C9.61032 6.32902 9.80109 6.25 10 6.25C10.1989 6.25 10.3897 6.32902 10.5303 6.46967C10.671 6.61032 10.75 6.80109 10.75 7V10.75Z"/></svg>