<svg xmlns="http://www.w3.org/2000/svg" width="9" height="12" fill="none" viewBox="0 0 9 12"><path fill="#4B4848" d="M3.79102 11.1094H4.11328V10.2832H3.87891C3.05273 10.2832 2.71875 9.90234 2.71875 8.96484V7.07812C2.71875 6.23438 2.29688 5.79492 1.43555 5.70703V5.56641C2.29688 5.47852 2.71875 5.03906 2.71875 4.19531V2.32031C2.71875 1.38281 3.05273 1.00195 3.87891 1.00195H4.11328V0.175781H3.79102C2.4082 0.175781 1.75781 0.826172 1.75781 2.19141V3.83203C1.75781 4.76953 1.43555 5.08008 0.46875 5.08008V6.19336C1.43555 6.19336 1.75781 6.50391 1.75781 7.44141V9.09375C1.75781 10.459 2.4082 11.1094 3.79102 11.1094Z"/><path fill="#4B4848" d="M8.13305 11.1094H8.45531V10.2832H8.22094C7.39477 10.2832 7.06078 9.90234 7.06078 8.96484V7.07812C7.06078 6.23438 6.63891 5.79492 5.77758 5.70703V5.56641C6.63891 5.47852 7.06078 5.03906 7.06078 4.19531V2.32031C7.06078 1.38281 7.39477 1.00195 8.22094 1.00195H8.45531V0.175781H8.13305C6.75023 0.175781 6.09984 0.826172 6.09984 2.19141V3.83203C6.09984 4.76953 5.77758 5.08008 4.81078 5.08008V6.19336C5.77758 6.19336 6.09984 6.50391 6.09984 7.44141V9.09375C6.09984 10.459 6.75023 11.1094 8.13305 11.1094Z"/></svg>