<svg xmlns="http://www.w3.org/2000/svg" width="24" height="24" fill="none" viewBox="0 0 24 24"><rect width="24" height="24" fill="#F86A2B"/><path fill="#fff" d="M16.2382 5.33325C15.6176 5.33325 14.9977 5.57082 14.5234 6.04549L12.7551 7.81242L12.1379 7.19523L11.1952 8.13794L11.8124 8.75513V8.75643L11.8515 8.79549C11.3957 9.23367 8.71124 11.8133 8.06763 12.457C7.50796 13.0166 7.17937 13.4649 6.9869 13.884C6.79443 14.3032 6.76026 14.6802 6.7395 14.9335C6.71874 15.1868 6.71191 15.3167 6.6106 15.5403C6.50928 15.7638 6.29148 16.0938 5.8033 16.5872L5.33716 17.0585L6.93612 18.6575L7.40747 18.2017C8.33588 17.3043 8.514 17.3702 9.04159 17.3033C9.30538 17.2699 9.67718 17.2162 10.095 17.0168C10.5128 16.8175 10.9696 16.4891 11.5364 15.94L11.539 15.9361L11.5429 15.9322C12.1958 15.2793 14.8976 12.6842 15.328 12.2708L15.8619 12.8046L16.8046 11.8619L16.1874 11.2447L17.9543 9.47648C18.9037 8.52715 18.9037 6.99416 17.9543 6.04549C17.4797 5.57082 16.8588 5.33325 16.2382 5.33325ZM12.7942 9.7382C12.7943 9.73812 12.7954 9.73827 12.7955 9.7382L14.384 11.328C13.937 11.7573 11.3027 14.2869 10.6002 14.9895C10.1063 15.4665 9.76265 15.697 9.52075 15.8124C9.27704 15.9287 9.12516 15.9485 8.87362 15.9804C8.55239 16.0211 8.06222 16.2003 7.49992 16.5234C7.58482 16.3885 7.76658 16.2168 7.82414 16.0898C8.0146 15.6695 8.04827 15.2937 8.06893 15.0416C8.08959 14.7895 8.09734 14.6617 8.19914 14.44C8.30094 14.2183 8.51967 13.8903 9.01034 13.3997C9.59885 12.8111 12.3554 10.1602 12.7942 9.7382Z"/></svg>