<svg xmlns="http://www.w3.org/2000/svg" width="16" height="14" fill="none" viewBox="0 0 16 14"><path fill="#4B4848" d="M0.8956 1.29262C1.95273 0.235792 3.66667 0.235792 4.7238 1.29262C5.78093 2.34945 5.78093 4.06291 4.7238 5.11975C4.60724 5.23627 4.4827 5.33995 4.35193 5.43078L5.448 6.019L6.08506 5.32306L12.1055 2.08076C13.0124 1.59232 14.1323 1.88302 14.6929 2.72638L14.7766 2.8641L7.397 6.838L14.7766 10.8125L14.6929 10.9502C14.1323 11.7935 13.0124 12.0842 12.1055 11.5958L6.08506 8.35351L5.586 7.807L4.21474 8.5457C4.30828 8.60855 4.39877 8.67787 4.48558 8.75365L4.62104 8.88025C5.67817 9.93709 5.67817 11.6505 4.62105 12.7074C3.56392 13.7642 1.84998 13.7642 0.792846 12.7074C-0.264282 11.6505 -0.264282 9.93709 0.792846 8.88025C1.12818 8.54502 1.5296 8.31612 1.95519 8.19356L4.264 6.95L2.21011 5.84551C1.78495 5.7494 1.3785 5.54968 1.03107 5.24634L0.8956 5.11975C-0.161527 4.06291 -0.161527 2.34946 0.8956 1.29262ZM3.52628 9.75678C3.00747 9.34607 2.25163 9.38029 1.77233 9.85946C1.25615 10.3755 1.25616 11.2121 1.77233 11.7282C2.2885 12.2442 3.12539 12.2442 3.64156 11.7282C4.15774 11.2121 4.15774 10.3755 3.64156 9.85946L3.52628 9.75678ZM12.0683 6.07527L12.1767 6.08198C12.5771 6.1361 12.8876 6.44438 12.9408 6.8351L12.9489 6.95462C12.9489 7.44005 12.5549 7.83397 12.0693 7.83397C11.5837 7.83397 11.1897 7.44005 11.1897 6.96244C11.1853 6.5546 11.4597 6.2104 11.8336 6.107L11.962 6.08307L12.0683 6.07527ZM15.1194 6.06362L15.2271 6.07033C15.6282 6.12445 15.9387 6.43272 15.9919 6.82345L16 6.94297C16 7.4284 15.606 7.82232 15.1204 7.82232C14.6348 7.82232 14.2408 7.4284 14.2408 6.95078C14.2364 6.54294 14.5108 6.19875 14.8847 6.09534L15.0131 6.07141L15.1194 6.06362ZM3.62903 2.16915C3.11022 1.75843 2.35439 1.79266 1.87508 2.27183C1.35891 2.78786 1.35891 3.62451 1.87508 4.14054C2.39126 4.65657 3.22814 4.65657 3.74432 4.14054C4.26049 3.62451 4.26049 2.78786 3.74432 2.27183L3.62903 2.16915Z"/></svg>