<svg xmlns="http://www.w3.org/2000/svg" width="12" height="12" fill="none" viewBox="0 0 12 12"><path fill="#DEAB41" fill-rule="evenodd" d="M7.9135 0.561055C7.9135 0.870918 6.23457 1.12211 4.1635 1.12211C2.09243 1.12211 0.413498 0.870918 0.413498 0.561055C0.413498 0.251193 2.09243 0 4.1635 0C6.23457 0 7.9135 0.251193 7.9135 0.561055ZM3.03755 3.94381V3.20132H8.24959V1.04044C8.24959 1.04044 7.17068 1.7044 4.1248 1.7044C1.07891 1.7044 0 1.12211 0 1.12211V3.34213C0 3.34213 0.739498 3.62842 1.21327 3.72683C1.73671 3.83556 2.3448 3.90789 3.03755 3.94381ZM3.03618 6.7922C2.42801 6.76073 1.88837 6.70121 1.41063 6.61366C0.850902 6.51107 0 6.19042 0 6.19042V3.9704C0 3.9704 0.897126 4.31392 1.59814 4.41095C2.01645 4.46886 2.49801 4.50902 3.03618 4.53144V6.7922ZM1.41063 9.43546C1.88837 9.52302 2.42801 9.58253 3.03618 9.614V7.35324C2.49801 7.33082 2.01645 7.29066 1.59814 7.23276C0.897126 7.13572 0 6.7922 0 6.7922V9.01222C0 9.01222 0.850902 9.33287 1.41063 9.43546ZM9.71951 3.77119L12 6.01541H9.71951V3.77119ZM9.19505 3.77119H3.75V12H12V6.56804H9.19505V3.77119ZM10.5 7.5H5.25V8.4H10.5V7.5ZM5.25 9.375H9V10.275H5.25V9.375Z" clip-rule="evenodd"/></svg>