<svg xmlns="http://www.w3.org/2000/svg" width="16" height="16" fill="none" viewBox="0 0 16 16"><path fill="#A9A7A7" fill-rule="evenodd" d="M3.6 2.40002C4.48366 2.40002 5.2 3.11637 5.2 4.00002C5.2 4.88368 4.48366 5.60002 3.6 5.60002C2.71634 5.60002 2 4.88368 2 4.00002C2 3.11637 2.71634 2.40002 3.6 2.40002ZM6.12187 4C6.12187 3.64281 6 3.28 6 3.28H14V4.72L6 4.7144C6 4.7144 6.12187 4.3572 6.12187 4ZM10 7.28C10 7.28 9.87813 7.64281 9.87813 8C9.87813 8.3572 10 8.7144 10 8.7144L2 8.72001V7.28H10ZM12.4 6.40002C11.5163 6.40002 10.8 7.11637 10.8 8.00002C10.8 8.88368 11.5163 9.60002 12.4 9.60002C13.2837 9.60002 14 8.88368 14 8.00002C14 7.11637 13.2837 6.40002 12.4 6.40002ZM6 11.28C6 11.28 6.12187 11.6428 6.12187 12C6.12187 12.3572 6 12.7144 6 12.7144L14 12.72V11.28H6ZM3.6 10.4C4.48366 10.4 5.2 11.1164 5.2 12C5.2 12.8837 4.48366 13.6 3.6 13.6C2.71634 13.6 2 12.8837 2 12C2 11.1164 2.71634 10.4 3.6 10.4Z" clip-rule="evenodd"/></svg>