<svg xmlns="http://www.w3.org/2000/svg" width="20" height="21" fill="none" viewBox="0 0 20 21"><path fill="#939090" fill-rule="evenodd" d="M10 18.5C14.4183 18.5 18 14.9183 18 10.5C18 6.08172 14.4183 2.5 10 2.5C5.58172 2.5 2 6.08172 2 10.5C2 14.9183 5.58172 18.5 10 18.5ZM10.4459 11.9234V11.6155C10.4459 11.0807 10.6459 10.8052 11.3541 10.3893C12.0892 9.95172 12.5 9.37373 12.5 8.54727C12.5 7.35348 11.5108 6.5 10.0297 6.5C8.42432 6.5 7.54324 7.4291 7.5 8.70932H8.77027C8.81351 8.0503 9.26216 7.62897 9.95946 7.62897C10.6405 7.62897 11.0946 8.0341 11.0946 8.59588C11.0946 9.13066 10.8676 9.41695 10.1973 9.82208C9.45135 10.2596 9.13784 10.7458 9.18649 11.556L9.19189 11.9234H10.4459ZM9.87838 14.5C10.4297 14.5 10.7757 14.1597 10.7757 13.6411C10.7757 13.1172 10.4297 12.7768 9.87838 12.7768C9.33784 12.7768 8.98108 13.1172 8.98108 13.6411C8.98108 14.1597 9.33784 14.5 9.87838 14.5Z" clip-rule="evenodd"/></svg>