<svg xmlns="http://www.w3.org/2000/svg" width="22" height="27" fill="#4b4848" viewBox="0 0 22 27"><path d="M4.66675 16.2654H5.69897V14.7103H6.70044C7.7395 14.7103 8.43335 14.0403 8.43335 13.0252V13.0184C8.43335 12.0032 7.7395 11.3333 6.70044 11.3333H4.66675V16.2654ZM6.44751 12.1502C7.03882 12.1502 7.38745 12.4612 7.38745 13.0218V13.0286C7.38745 13.5892 7.03882 13.9036 6.44751 13.9036H5.69897V12.1502H6.44751Z"/><path d="M9.16201 16.2654H11.1034C12.58 16.2654 13.4174 15.3631 13.4174 13.7703V13.7635C13.4174 12.2186 12.5697 11.3333 11.1034 11.3333H9.16201V16.2654ZM10.1942 15.4144V12.1844H10.9394C11.8349 12.1844 12.3646 12.7654 12.3646 13.7806V13.7874C12.3646 14.8401 11.8519 15.4144 10.9394 15.4144H10.1942Z"/><path d="M14.1768 16.2654H15.209V14.324H17.2154V13.5071H15.209V12.1844H17.4068V11.3333H14.1768V16.2654Z"/><path fill-rule="evenodd" d="M0 26.6667H21.3333V0H4.80651L0 4.83331V26.6667ZM18.6667 24H2.66667V6.33331L6.16675 2.66667H18.6667V24Z" clip-rule="evenodd"/></svg>