<svg fill="none" height="32" viewBox="0 0 32 32" width="32" xmlns="http://www.w3.org/2000/svg"><g fill="#4b4848"><path d="m16 15.6667c1.4728 0 2.6667-1.1939 2.6667-2.6667s-1.1939-2.6667-2.6667-2.6667-2.6667 1.1939-2.6667 2.6667 1.1939 2.6667 2.6667 2.6667z"/><path clip-rule="evenodd" d="m24 13c0 1.7856-.585 3.4345-1.5737 4.7656l-6.4264 8.5677-6.42616-8.5677c-.98876-1.3311-1.57374-2.98-1.57374-4.7656 0-4.41828 3.5817-8 8-8s8 3.58172 8 8zm-2.6667 0c0 1.1915-.3875 2.2847-1.0443 3.1709l-4.2891 5.7182-4.2888-5.7181c-.6569-.8862-1.0444-1.9795-1.0444-3.171 0-2.9455 2.3878-5.33333 5.3333-5.33333s5.3333 2.38783 5.3333 5.33333z" fill-rule="evenodd"/></g></svg>