<svg xmlns="http://www.w3.org/2000/svg" width="24" height="25" fill="none" viewBox="0 0 24 25"><g id="Icon/Outline/info"><path id="Mask" fill="#A3B3BF" fill-rule="evenodd" d="M11 8.31554C11 7.75751 11.448 7.30461 12 7.30461C12.552 7.30461 13 7.75751 13 8.31554C13 8.87357 12.552 9.32646 12 9.32646C11.448 9.32646 11 8.87357 11 8.31554ZM11 11.3483C11 10.7903 11.448 10.3374 12 10.3374C12.552 10.3374 13 10.7903 13 11.3483V16.4029C13 16.9609 12.552 17.4138 12 17.4138C11.448 17.4138 11 16.9609 11 16.4029V11.3483ZM12 20.4466C7.589 20.4466 4 16.8184 4 12.3592C4 7.90005 7.589 4.27185 12 4.27185C16.411 4.27185 20 7.90005 20 12.3592C20 16.8184 16.411 20.4466 12 20.4466ZM12 2.25C6.477 2.25 2 6.7759 2 12.3592C2 17.9426 6.477 22.4685 12 22.4685C17.522 22.4685 22 17.9426 22 12.3592C22 6.7759 17.522 2.25 12 2.25Z" clip-rule="evenodd"/><mask id="mask25" width="20" height="21" x="2" y="2" mask-type="alpha" maskUnits="userSpaceOnUse"><path id="Mask_2" fill="#fff" fill-rule="evenodd" d="M11 8.31554C11 7.75751 11.448 7.30461 12 7.30461C12.552 7.30461 13 7.75751 13 8.31554C13 8.87357 12.552 9.32646 12 9.32646C11.448 9.32646 11 8.87357 11 8.31554ZM11 11.3483C11 10.7903 11.448 10.3374 12 10.3374C12.552 10.3374 13 10.7903 13 11.3483V16.4029C13 16.9609 12.552 17.4138 12 17.4138C11.448 17.4138 11 16.9609 11 16.4029V11.3483ZM12 20.4466C7.589 20.4466 4 16.8184 4 12.3592C4 7.90005 7.589 4.27185 12 4.27185C16.411 4.27185 20 7.90005 20 12.3592C20 16.8184 16.411 20.4466 12 20.4466ZM12 2.25C6.477 2.25 2 6.7759 2 12.3592C2 17.9426 6.477 22.4685 12 22.4685C17.522 22.4685 22 17.9426 22 12.3592C22 6.7759 17.522 2.25 12 2.25Z" clip-rule="evenodd"/></mask><g mask="url(#mask25)"><g id="🎨 Color"><rect id="Base" width="24" height="24.262" y=".228" fill="#A3B3BF"/></g></g></g></svg>