<svg xmlns="http://www.w3.org/2000/svg" width="16" height="18" fill="none" viewBox="0 0 16 18"><path fill="#03B365" d="M15.7601 2.54683C15.7605 2.4288 15.7236 2.21154 15.6341 2.13912C14.8863 1.53467 14.0328 1.12912 13.1341 0.811545C11.7653 0.327515 10.3476 0.0998759 8.90174 0.0281036C8.84553 0.0252933 8.78932 0.0229151 8.7329 0.0205371C8.73312 0.0153487 8.55715 0.0296167 8.55736 0.0246446C8.34745 -1.36908e-07 8.34745 0 7.88266 0C7.38955 0.00756635 7.38955 0.00756629 7.03047 0.00799865C5.76278 0.071556 4.51217 0.241042 3.29226 0.597958C2.20163 0.917258 1.16568 1.35373 0.246264 2.04032C0.0629425 2.17716 -0.00169577 2.32265 3.36855e-05 2.55159C0.0114913 3.97536 0.00500583 5.39913 0.00608674 6.8229C0.00824856 10.3008 1.35117 13.1616 3.96956 15.4369C5.09478 16.4147 6.34237 17.2063 7.66345 17.8882C7.71425 17.9143 7.76484 17.9413 7.85715 17.99C7.8725 18.0001 7.89066 18.0045 7.90795 17.9939C7.9968 17.9446 8.04912 17.9137 8.10295 17.886C9.61968 17.1038 11.0383 16.1799 12.2761 14.9948C14.0017 13.3429 15.1405 11.369 15.5658 9.00309C15.73 8.08843 15.7638 7.16512 15.7594 6.23813C15.7534 4.96072 15.7558 3.82403 15.7601 2.54683ZM14.5893 6.64823C14.5929 7.43751 14.5642 8.22376 14.4243 9.00266C14.0622 11.0173 13.0924 12.6981 11.623 14.1048C10.5689 15.1139 9.36112 15.9006 8.06944 16.5666C8.02361 16.5902 7.97908 16.6164 7.90341 16.6585C7.88871 16.6676 7.87315 16.6639 7.86018 16.6553C7.78149 16.614 7.73868 16.5911 7.69523 16.5686C6.57044 15.9879 5.50791 15.3139 4.54979 14.4811C2.32031 12.5437 1.17671 10.1078 1.17476 7.1461C1.1739 5.93375 1.17952 4.72119 1.16979 3.50906C1.16828 3.31406 1.2234 3.19019 1.37949 3.07367C2.16228 2.48911 3.04452 2.11728 3.97323 1.84554C5.01199 1.54159 6.0769 1.39718 7.15651 1.34314C7.4624 1.34292 7.4624 1.34292 7.88223 1.33643C8.27806 1.33643 8.27806 1.33643 8.45684 1.35719C8.45684 1.36151 8.60643 1.3494 8.60643 1.35373C8.65443 1.35589 8.7022 1.35784 8.7502 1.36021C9.98135 1.42139 11.1885 1.61531 12.3542 2.02735C13.1194 2.29779 13.8462 2.64303 14.4829 3.15776C14.5592 3.21937 14.5906 3.40464 14.5903 3.50495C14.5864 4.59256 14.5843 5.5604 14.5893 6.64823Z"/><path fill="#03B365" d="M12.7752 4.0996C12.2873 3.66782 11.7301 3.37834 11.1437 3.15132C10.2503 2.80563 9.32525 2.64302 8.38161 2.59169C8.34487 2.58974 8.30813 2.58798 8.27139 2.58622C8.27139 2.58251 8.15672 2.59266 8.15672 2.58915C8.01975 2.57178 8.01975 2.57178 7.71638 2.57178C7.39464 2.57724 7.39464 2.57724 7.16011 2.57744C6.33275 2.62292 5.51663 2.74394 4.72048 2.99887C4.0087 3.22686 3.33258 3.53879 2.73262 4.02913C2.61295 4.12693 2.57068 4.23077 2.57193 4.39435C2.57942 5.41134 2.57514 6.42832 2.57585 7.44531C2.57728 9.92961 3.45368 11.9729 5.16261 13.5982C5.89705 14.2966 6.71121 14.8621 7.57334 15.3491C7.60651 15.3678 7.63951 15.3872 7.69979 15.4217C7.70978 15.4291 7.72155 15.4321 7.73296 15.4245C7.7911 15.3893 7.82517 15.3673 7.86012 15.3474C8.84996 14.7887 9.77576 14.1287 10.5837 13.2821C11.7098 12.1022 12.4531 10.6922 12.7306 9.00241C12.838 8.34908 12.8599 7.6895 12.8571 7.02739C12.8533 6.11503 12.8549 5.303 12.8576 4.39064C12.8578 4.30651 12.8335 4.15133 12.7752 4.0996Z"/></svg>