<svg width="24" height="24" viewBox="0 0 24 24" fill="none" xmlns="http://www.w3.org/2000/svg">
<path fill-rule="evenodd" clip-rule="evenodd" d="M1 12.3333C1 8.28324 4.28324 5 8.33333 5H15.6667C19.7167 5 23 8.28324 23 12.3333C23 16.3834 19.7167 19.6667 15.6667 19.6667H8.33333C4.28324 19.6667 1 16.3834 1 12.3333ZM8.63889 17.2222C5.93883 17.2222 3.75 15.0333 3.75 12.3333C3.75 9.63327 5.93883 7.44444 8.63889 7.44444H15.3611C18.0611 7.44444 20.25 9.63327 20.25 12.3333C20.25 15.0333 18.0611 17.2222 15.3611 17.2222H8.63889Z" fill="#4C5664"/>
<path d="M15.6667 8.66667C17.6918 8.66667 19.3333 10.3082 19.3333 12.3333C19.3333 14.3584 17.6918 16 15.6667 16C13.6416 16 12 14.3584 12 12.3333C12 10.3082 13.6416 8.66667 15.6667 8.66667Z" fill="#4C5664"/>
</svg>
