<svg width="20" height="20" viewBox="0 0 20 20" fill="none" xmlns="http://www.w3.org/2000/svg">
<path fill-rule="evenodd" clip-rule="evenodd" d="M10 18C14.4183 18 18 14.4183 18 10C18 5.58172 14.4183 2 10 2C5.58172 2 2 5.58172 2 10C2 14.4183 5.58172 18 10 18ZM10.4459 11.4234V11.1155C10.4459 10.5807 10.6459 10.3052 11.3541 9.88926C12.0892 9.45172 12.5 8.87373 12.5 8.04727C12.5 6.85348 11.5108 6 10.0297 6C8.42432 6 7.54324 6.9291 7.5 8.20932H8.77027C8.81351 7.5503 9.26216 7.12897 9.95946 7.12897C10.6405 7.12897 11.0946 7.5341 11.0946 8.09588C11.0946 8.63066 10.8676 8.91695 10.1973 9.32208C9.45135 9.75962 9.13784 10.2458 9.18649 11.056L9.19189 11.4234H10.4459ZM9.87838 14C10.4297 14 10.7757 13.6597 10.7757 13.1411C10.7757 12.6172 10.4297 12.2768 9.87838 12.2768C9.33784 12.2768 8.98108 12.6172 8.98108 13.1411C8.98108 13.6597 9.33784 14 9.87838 14Z" fill="#939090"/>
</svg>
