<svg width="20" height="20" viewBox="0 0 20 20" fill="none" xmlns="http://www.w3.org/2000/svg">
<path d="M9.99984 18.3333C5.39734 18.3333 1.6665 14.6025 1.6665 9.99999C1.6665 5.39749 5.39734 1.66666 9.99984 1.66666C14.6023 1.66666 18.3332 5.39749 18.3332 9.99999C18.3332 14.6025 14.6023 18.3333 9.99984 18.3333ZM9.99984 16.6667C11.7679 16.6667 13.4636 15.9643 14.7139 14.714C15.9641 13.4638 16.6665 11.7681 16.6665 9.99999C16.6665 8.23188 15.9641 6.53619 14.7139 5.28594C13.4636 4.0357 11.7679 3.33332 9.99984 3.33332C8.23173 3.33332 6.53604 4.0357 5.28579 5.28594C4.03555 6.53619 3.33317 8.23188 3.33317 9.99999C3.33317 11.7681 4.03555 13.4638 5.28579 14.714C6.53604 15.9643 8.23173 16.6667 9.99984 16.6667ZM9.1665 12.5H10.8332V14.1667H9.1665V12.5ZM10.8332 11.1292V11.6667H9.1665V10.4167C9.1665 10.1956 9.2543 9.98368 9.41058 9.8274C9.56686 9.67112 9.77882 9.58332 9.99984 9.58332C10.2366 9.58331 10.4684 9.51607 10.6684 9.38943C10.8685 9.26279 11.0284 9.08196 11.1296 8.86798C11.2309 8.65399 11.2693 8.41565 11.2404 8.18069C11.2115 7.94573 11.1165 7.72381 10.9664 7.54075C10.8163 7.35769 10.6173 7.22101 10.3925 7.14663C10.1678 7.07225 9.92653 7.06321 9.69686 7.12058C9.46718 7.17794 9.25852 7.29935 9.09514 7.47067C8.93177 7.64199 8.8204 7.85618 8.774 8.08832L7.139 7.76082C7.24036 7.25423 7.47443 6.78363 7.81727 6.39715C8.16011 6.01066 8.59944 5.72214 9.09033 5.56109C9.58122 5.40004 10.1061 5.37223 10.6112 5.4805C11.1164 5.58878 11.5838 5.82925 11.9655 6.17734C12.3473 6.52544 12.6298 6.96866 12.7841 7.46171C12.9384 7.95476 12.9591 8.47994 12.8439 8.98358C12.7287 9.48722 12.4819 9.95124 12.1286 10.3282C11.7753 10.7052 11.3283 10.9816 10.8332 11.1292Z" fill="#858282"/>
</svg>
