<svg xmlns="http://www.w3.org/2000/svg" width="57" height="44" fill="none"><path fill="#FFEEE5" stroke="#CC3D00" d="M15.5 1V.5H2A1.5 1.5 0 0 0 .5 2v13.5h15V1Z"/><path fill="#FFEEE5" stroke="#CC3D00" d="M15 .5h-.5v15h42V2A1.5 1.5 0 0 0 55 .5H15Z"/><path fill="#FFEEE5" stroke="#CC3D00" d="M.5 14.5h15v15H.5z"/><path fill="#fff" d="M14.5 14.5h42v15h-42z"/><path stroke="#99A4B3" d="M14.5 14.5h42v15h-42z"/><rect width="24" height="7" x="19" y="19" fill="#E3E8EF" rx="1"/><path fill="#FFEEE5" stroke="#CC3D00" d="M1 28.5H.5V42A1.5 1.5 0 0 0 2 43.5h13.5v-15H1Z"/><path fill="#fff" d="M15 28.5h-.5v15H55a1.5 1.5 0 0 0 1.5-1.5V28.5H15Z"/><path stroke="#99A4B3" d="M15 28.5h-.5v15H55a1.5 1.5 0 0 0 1.5-1.5V28.5H15Z"/><rect width="33" height="7" x="19" y="33" fill="#E3E8EF" rx="1"/></svg>