<svg xmlns="http://www.w3.org/2000/svg" width="72" height="76" fill="none"><path fill="#FFEEE5" stroke="#CC3D00" d="M22.5 17v-.5H9A1.5 1.5 0 0 0 7.5 18v13.5h15V17Z"/><path fill="#FFEEE5" stroke="#CC3D00" d="M22 16.5h-.5v15h42V18a1.5 1.5 0 0 0-1.5-1.5H22Z"/><path fill="#FFEEE5" stroke="#CC3D00" d="M7.5 30.5h15v15h-15z"/><path fill="#fff" d="M21.5 30.5h42v15h-42z"/><path stroke="#99A4B3" d="M21.5 30.5h42v15h-42z"/><rect width="24" height="7" x="26" y="35" fill="#E3E8EF" rx="1"/><path fill="#FFEEE5" stroke="#CC3D00" d="M8 44.5h-.5V58A1.5 1.5 0 0 0 9 59.5h13.5v-15H8Z"/><path fill="#fff" d="M22 44.5h-.5v15H62a1.5 1.5 0 0 0 1.5-1.5V44.5H22Z"/><path stroke="#99A4B3" d="M22 44.5h-.5v15H62a1.5 1.5 0 0 0 1.5-1.5V44.5H22Z"/><rect width="33" height="7" x="26" y="49" fill="#E3E8EF" rx="1"/></svg>