<svg width="15" height="15" viewBox="0 0 15 15" fill="none" xmlns="http://www.w3.org/2000/svg">
<path d="M2.5 3.5V11.5C2.5 12.0523 2.94772 12.5 3.5 12.5H11.5C12.0523 12.5 12.5 12.0523 12.5 11.5V3.5C12.5 2.94772 12.0523 2.5 11.5 2.5H3.5C2.94772 2.5 2.5 2.94772 2.5 3.5Z" stroke="#364252" stroke-linecap="round" stroke-linejoin="round"/>
<path d="M0.5 3.5V2.5C0.5 1.39543 1.39543 0.5 2.5 0.5H3.5" stroke="#364252" stroke-linecap="round" stroke-linejoin="round"/>
<path d="M0.5 11.5V12.5C0.5 13.6046 1.39543 14.5 2.5 14.5H3.5" stroke="#364252" stroke-linecap="round" stroke-linejoin="round"/>
<path d="M14.5 3.5V2.5C14.5 1.39543 13.6046 0.5 12.5 0.5H11.5" stroke="#364252" stroke-linecap="round" stroke-linejoin="round"/>
<path d="M14.5 11.5V12.5C14.5 13.6046 13.6046 14.5 12.5 14.5H11.5" stroke="#364252" stroke-linecap="round" stroke-linejoin="round"/>
<path d="M0.5 6.5V8.5" stroke="#364252" stroke-linecap="round" stroke-linejoin="round"/>
<path d="M14.5 6.5V8.5" stroke="#364252" stroke-linecap="round" stroke-linejoin="round"/>
<path d="M6.5 0.5L8.5 0.5" stroke="#364252" stroke-linecap="round" stroke-linejoin="round"/>
<path d="M6.5 14.5H8.5" stroke="#364252" stroke-linecap="round" stroke-linejoin="round"/>
</svg>
