<svg xmlns="http://www.w3.org/2000/svg" width="16" height="14" fill="none" viewBox="0 0 16 14"><path fill="#4B4848" d="M4.83105 12.4443C6.06152 12.4443 6.86816 12.9092 7.2373 13.1621C7.36719 13.2305 7.74316 13.4561 7.8252 13.4629V2.34082C7.35352 1.43848 5.93848 0.727539 4.48242 0.727539C2.65039 0.727539 1.08496 1.78027 0.743164 2.49805V12.8818C0.743164 13.3672 1.02344 13.5586 1.37207 13.5586C1.65234 13.5586 1.83008 13.4629 2.00781 13.3125C2.45898 12.9297 3.4707 12.4443 4.83105 12.4443ZM11.6943 12.4443C13.0547 12.4443 14.0596 12.9297 14.5107 13.3125C14.6885 13.4561 14.8662 13.5586 15.1465 13.5586C15.4883 13.5586 15.7754 13.3672 15.7754 12.8818V2.49805C15.4336 1.78027 13.875 0.727539 12.043 0.727539C10.5869 0.727539 9.17188 1.43848 8.7002 2.34082V13.4766C8.78223 13.4697 9.1582 13.2373 9.29492 13.1621C9.65723 12.9092 10.4639 12.4443 11.6943 12.4443Z"/></svg>