<svg width="16" height="18" viewBox="0 0 16 18" fill="none" xmlns="http://www.w3.org/2000/svg">
<path d="M10.5 2.33366H2.16667V15.667H13.8333V5.66699H10.5V2.33366ZM0.5 1.49366C0.5 1.03699 0.8725 0.666992 1.3325 0.666992H11.3333L15.5 4.83366V16.4945C15.5008 16.6039 15.48 16.7124 15.4388 16.8138C15.3976 16.9152 15.3369 17.0075 15.2601 17.0855C15.1832 17.1634 15.0918 17.2254 14.991 17.268C14.8902 17.3106 14.7819 17.3329 14.6725 17.3337H1.3275C1.10865 17.3321 0.899181 17.2446 0.744348 17.0899C0.589515 16.9352 0.501746 16.7258 0.5 16.507V1.49366ZM7.16667 8.16699V5.66699H8.83333V8.16699H11.3333V9.83366H8.83333V12.3337H7.16667V9.83366H4.66667V8.16699H7.16667Z" fill="#575757"/>
</svg>
