<svg width="14" height="16" viewBox="0 0 14 16" fill="none" xmlns="http://www.w3.org/2000/svg">
<path d="M7.00016 14.6667C7.92064 14.6667 8.66683 13.9205 8.66683 13C8.66683 12.0795 7.92064 11.3333 7.00016 11.3333C6.07969 11.3333 5.3335 12.0795 5.3335 13C5.3335 13.9205 6.07969 14.6667 7.00016 14.6667Z" stroke="white" stroke-width="1.5" stroke-linecap="round" stroke-linejoin="round"/>
<path d="M2.83341 4.66668C3.75389 4.66668 4.50008 3.92049 4.50008 3.00001C4.50008 2.07954 3.75389 1.33334 2.83341 1.33334C1.91294 1.33334 1.16675 2.07954 1.16675 3.00001C1.16675 3.92049 1.91294 4.66668 2.83341 4.66668Z" stroke="white" stroke-width="1.5" stroke-linecap="round" stroke-linejoin="round"/>
<path d="M11.1667 4.66668C12.0871 4.66668 12.8333 3.92049 12.8333 3.00001C12.8333 2.07954 12.0871 1.33334 11.1667 1.33334C10.2462 1.33334 9.5 2.07954 9.5 3.00001C9.5 3.92049 10.2462 4.66668 11.1667 4.66668Z" stroke="white" stroke-width="1.5" stroke-linecap="round" stroke-linejoin="round"/>
<path d="M2.8335 4.66669V6.33335V6.33335C2.8335 7.25383 3.57969 8.00002 4.50016 8.00002H9.50016V8.00002C10.4206 8.00002 11.1668 7.25383 11.1668 6.33335V4.66669" stroke="white" stroke-width="1.5" stroke-linecap="round" stroke-linejoin="round"/>
<path d="M7 8V11.3333" stroke="white" stroke-width="1.5" stroke-linecap="round" stroke-linejoin="round"/>
</svg>
