<svg xmlns="http://www.w3.org/2000/svg" width="16" height="16" fill="none" viewBox="0 0 16 16"><path fill="#090707" d="M2.22646 11.3333C1.94464 10.846 1.72557 10.3249 1.57446 9.78264C1.90333 9.61537 2.17953 9.36039 2.37248 9.0459C2.56544 8.73142 2.66764 8.36968 2.66778 8.00072C2.66792 7.63175 2.56599 7.26994 2.37326 6.95531C2.18054 6.64068 1.90454 6.38549 1.5758 6.21797C1.87715 5.1283 2.45095 4.13327 3.24313 3.32664C3.55252 3.52779 3.91154 3.63941 4.28045 3.64916C4.64935 3.65891 5.01376 3.56639 5.33335 3.38186C5.65293 3.19733 5.91523 2.92797 6.09121 2.6036C6.2672 2.27923 6.35 1.91249 6.33046 1.54397C7.4252 1.26105 8.57395 1.26151 9.66846 1.54531C9.6491 1.91382 9.73207 2.2805 9.90818 2.60478C10.0843 2.92906 10.3467 3.19829 10.6663 3.38268C10.986 3.56707 11.3504 3.65943 11.7193 3.64954C12.0882 3.63965 12.4472 3.52789 12.7565 3.32664C13.1425 3.71997 13.4851 4.16731 13.7731 4.66664C14.0618 5.16597 14.2778 5.68664 14.4251 6.21731C14.0963 6.38457 13.8201 6.63956 13.6271 6.95404C13.4342 7.26853 13.332 7.63027 13.3318 7.99923C13.3317 8.3682 13.4336 8.73001 13.6263 9.04464C13.819 9.35927 14.095 9.61446 14.4238 9.78197C14.1224 10.8716 13.5486 11.8667 12.7565 12.6733C12.4471 12.4722 12.088 12.3605 11.7191 12.3508C11.3502 12.341 10.9858 12.4336 10.6662 12.6181C10.3467 12.8026 10.0844 13.072 9.90838 13.3963C9.7324 13.7207 9.64959 14.0875 9.66913 14.456C8.57439 14.7389 7.42564 14.7384 6.33113 14.4546C6.35049 14.0861 6.26753 13.7194 6.09141 13.3952C5.91529 13.0709 5.65289 12.8017 5.33324 12.6173C5.0136 12.4329 4.64917 12.3405 4.28028 12.3504C3.91139 12.3603 3.55244 12.4721 3.24313 12.6733C2.84912 12.2713 2.50753 11.821 2.22646 11.3333ZM5.9998 11.464C6.71021 11.8737 7.24436 12.5313 7.4998 13.3106C7.83246 13.342 8.16646 13.3426 8.49913 13.3113C8.75473 12.5319 9.28913 11.8743 9.9998 11.4646C10.7099 11.0538 11.5468 10.9196 12.3498 11.088C12.5431 10.816 12.7098 10.526 12.8485 10.2226C12.3014 9.6116 11.9992 8.82011 11.9998 7.99997C11.9998 7.15997 12.3131 6.37531 12.8485 5.77731C12.7088 5.47407 12.5414 5.1844 12.3485 4.91197C11.546 5.08018 10.7097 4.94629 9.9998 4.53597C9.28938 4.12622 8.75523 3.46863 8.4998 2.68931C8.16713 2.65797 7.83313 2.65731 7.50046 2.68864C7.24486 3.46807 6.71046 4.12568 5.9998 4.53531C5.28965 4.94618 4.45278 5.08032 3.6498 4.91197C3.45684 5.18416 3.28988 5.47388 3.15113 5.77731C3.69818 6.38835 4.00039 7.17983 3.9998 7.99997C3.9998 8.83997 3.68646 9.62464 3.15113 10.2226C3.29078 10.5259 3.45816 10.8156 3.65113 11.088C4.45361 10.9198 5.28993 11.0537 5.9998 11.464ZM7.9998 9.99997C7.46936 9.99997 6.96065 9.78926 6.58558 9.41419C6.21051 9.03911 5.9998 8.53041 5.9998 7.99997C5.9998 7.46954 6.21051 6.96083 6.58558 6.58576C6.96065 6.21069 7.46936 5.99997 7.9998 5.99997C8.53023 5.99997 9.03894 6.21069 9.41401 6.58576C9.78908 6.96083 9.9998 7.46954 9.9998 7.99997C9.9998 8.53041 9.78908 9.03911 9.41401 9.41419C9.03894 9.78926 8.53023 9.99997 7.9998 9.99997ZM7.9998 8.66664C8.17661 8.66664 8.34618 8.5964 8.4712 8.47138C8.59622 8.34635 8.66646 8.17678 8.66646 7.99997C8.66646 7.82316 8.59622 7.65359 8.4712 7.52857C8.34618 7.40354 8.17661 7.33331 7.9998 7.33331C7.82299 7.33331 7.65342 7.40354 7.52839 7.52857C7.40337 7.65359 7.33313 7.82316 7.33313 7.99997C7.33313 8.17678 7.40337 8.34635 7.52839 8.47138C7.65342 8.5964 7.82299 8.66664 7.9998 8.66664Z"/></svg>