<svg xmlns="http://www.w3.org/2000/svg" width="24" height="24" fill="none" viewBox="0 0 24 24"><path fill="#A9A7A7" d="M15.874 13.0019C15.6516 13.8601 15.1504 14.6202 14.4493 15.1628C13.7481 15.7054 12.8866 15.9998 12 15.9998C11.1134 15.9998 10.2519 15.7054 9.55074 15.1628C8.84957 14.6202 8.34844 13.8601 8.126 13.0019H3V11.0019H8.126C8.34844 10.1436 8.84957 9.38353 9.55074 8.84092C10.2519 8.29832 11.1134 8.00391 12 8.00391C12.8866 8.00391 13.7481 8.29832 14.4493 8.84092C15.1504 9.38353 15.6516 10.1436 15.874 11.0019H21V13.0019H15.874ZM12 14.0019C12.5304 14.0019 13.0391 13.7911 13.4142 13.4161C13.7893 13.041 14 12.5323 14 12.0019C14 11.4714 13.7893 10.9627 13.4142 10.5876C13.0391 10.2126 12.5304 10.0019 12 10.0019C11.4696 10.0019 10.9609 10.2126 10.5858 10.5876C10.2107 10.9627 10 11.4714 10 12.0019C10 12.5323 10.2107 13.041 10.5858 13.4161C10.9609 13.7911 11.4696 14.0019 12 14.0019Z"/></svg>