<svg width="131" height="135" viewBox="0 0 131 135" fill="none" xmlns="http://www.w3.org/2000/svg">
<path d="M58.2045 8.17902C59.9743 8.17902 61.409 6.74432 61.409 4.97452C61.409 3.20472 59.9743 1.77002 58.2045 1.77002C56.4347 1.77002 55 3.20472 55 4.97452C55 6.74432 56.4347 8.17902 58.2045 8.17902Z" stroke="#C5C5C5" stroke-width="1.78028"/>
<path d="M128.218 73.5832C129.338 73.5832 130.245 72.6756 130.245 71.556C130.245 70.4364 129.338 69.5288 128.218 69.5288C127.099 69.5288 126.191 70.4364 126.191 71.556C126.191 72.6756 127.099 73.5832 128.218 73.5832Z" stroke="#939090" stroke-width="1.1584"/>
<path d="M15.6631 102V111.731" stroke="#C5C5C5" stroke-width="2.13634"/>
<path d="M10.7979 106.865H20.5284" stroke="#C5C5C5" stroke-width="2.13634"/>
<path d="M99.9038 122.241V134.028" stroke="#939090" stroke-width="1.78028"/>
<path d="M94.0103 128.135H105.797" stroke="#939090" stroke-width="1.78028"/>
<path d="M103.002 27.3631C104.772 27.3631 106.206 25.9284 106.206 24.1586C106.206 22.3888 104.772 20.9541 103.002 20.9541C101.232 20.9541 99.7974 22.3888 99.7974 24.1586C99.7974 25.9284 101.232 27.3631 103.002 27.3631Z" fill="#C5C5C5"/>
<path d="M69.875 112.537C91.9664 112.537 109.875 94.6285 109.875 72.5371C109.875 50.4457 91.9664 32.5371 69.875 32.5371C47.7836 32.5371 29.875 50.4457 29.875 72.5371C29.875 94.6285 47.7836 112.537 69.875 112.537Z" fill="#C5C5C5"/>
<path fill-rule="evenodd" clip-rule="evenodd" d="M68.7895 45.6719L111.974 94.771C114.309 97.425 114.05 101.469 111.395 103.803C110.656 104.454 109.776 104.925 108.825 105.18L51.6471 120.5C48.2329 121.415 44.7236 119.389 43.8088 115.975C43.5449 114.99 43.5201 113.956 43.7365 112.96L57.7297 48.5402C58.48 45.0861 61.8883 42.8943 65.3424 43.6446C66.6785 43.9348 67.8865 44.6453 68.7895 45.6719Z" fill="#E8E8E8"/>
<path fill-rule="evenodd" clip-rule="evenodd" d="M75.3832 95.0911C77.517 94.5193 79.7104 95.7856 80.2821 97.9195C80.8539 100.053 79.5876 102.247 77.4537 102.818C75.3199 103.39 73.1265 102.124 72.5547 99.9901C71.983 97.8562 73.2493 95.6628 75.3832 95.0911ZM67.5151 65.7269C69.5271 65.1878 71.5952 66.3818 72.1343 68.3939C72.1535 68.4652 72.1705 68.5371 72.1854 68.6095L76.3892 89.0282C76.661 90.3483 75.8567 91.6513 74.5549 92.0001C73.2532 92.3489 71.9052 91.6226 71.4805 90.3435L64.9117 70.5584C64.2554 68.5815 65.3259 66.4469 67.3028 65.7905C67.3729 65.7673 67.4437 65.7461 67.5151 65.7269Z" fill="#979797"/>
<path d="M3.20451 65.409C4.9743 65.409 6.409 63.9743 6.409 62.2045C6.409 60.4347 4.9743 59 3.20451 59C1.43471 59 0 60.4347 0 62.2045C0 63.9743 1.43471 65.409 3.20451 65.409Z" fill="#C5C5C5"/>
</svg>
