<svg xmlns="http://www.w3.org/2000/svg" width="24" height="24" fill="none" viewBox="0 0 24 24"><path fill="#fff" stroke="#575757" stroke-width="1.6" d="M4.8 20.2V3.8H12H15.1686L17.4343 6.06569L19.2 7.83137V12V20.2H4.8Z"/><path fill="#575757" d="M7.25391 16.0625C7.25391 17.3672 8.10938 18.1562 9.47656 18.1562C10.8438 18.1562 11.6641 17.4297 11.6641 16.1055V12.3633H10.0078V16.0938C10.0078 16.5352 9.8125 16.7695 9.44922 16.7695C9.07422 16.7695 8.83984 16.5039 8.83984 16.0625H7.25391Z"/><path fill="#575757" d="M12.7227 16.3555C12.7305 17.4727 13.6484 18.1562 15.1445 18.1562C16.6836 18.1562 17.6055 17.4297 17.6055 16.2109C17.6055 15.2969 17.0977 14.7773 16 14.5859L15.2305 14.4531C14.6914 14.3594 14.4609 14.2031 14.4609 13.9336C14.4609 13.6211 14.7422 13.4258 15.1719 13.4258C15.6133 13.4258 15.9609 13.6836 15.9727 14.0234H17.4883C17.4766 12.9414 16.5273 12.207 15.1367 12.207C13.7266 12.207 12.8164 12.9492 12.8164 14.0977C12.8164 15.0078 13.3789 15.6016 14.4141 15.7812L15.1602 15.9141C15.7656 16.0234 15.9766 16.1484 15.9766 16.4102C15.9766 16.7266 15.668 16.9336 15.2031 16.9336C14.6719 16.9336 14.3125 16.707 14.293 16.3555H12.7227Z"/></svg>