<svg xmlns="http://www.w3.org/2000/svg" width="16" height="16" fill="none" viewBox="0 0 16 16"><path fill="#fff" fill-rule="evenodd" d="M5.03741 7.0552C4.6888 5.0372 6.64849 2.65365 8.00001 2C9.36285 2.73919 11.2799 4.95461 10.9553 7.0552C10.6306 9.15579 10.1003 12.1104 10.1003 12.1104H5.89388C5.89388 12.1104 5.38602 9.07321 5.03741 7.0552ZM3.60001 9.68554L4.59657 8.38299L5.20001 12.1566L3.60001 13.1854V9.68554ZM11.4034 8.38299L12.4 9.68554V13.1854L10.8 12.1566L11.4034 8.38299ZM7.96849 14C7.2582 13.4988 6.79307 12.3992 6.79307 12.3992H9.19307C9.19307 12.3992 8.92792 13.2479 7.96849 14Z" clip-rule="evenodd"/></svg>