<svg width="24" height="24" viewBox="0 0 24 24" fill="none" xmlns="http://www.w3.org/2000/svg">
<path d="M1.71426 6.10352e-05H22.2854C23.2321 6.10352e-05 23.9997 0.946727 23.9997 1.71433V7.71425C23.9997 8.66092 23.2321 9.42851 22.2854 9.42851H1.71426C0.767599 9.42851 0 8.48185 0 7.71425V1.71433C0 0.76766 0.767599 6.10352e-05 1.71426 6.10352e-05Z" fill="#575757"/>
<path d="M1.71426 12.0001H10.2856C11.2323 12.0001 11.9999 12.9468 11.9999 13.7144V22.2857C11.9999 23.2324 11.2323 24 10.2856 24H1.71426C0.767599 24 0 23.0533 0 22.2857V13.7144C0 12.7677 0.767599 12.0001 1.71426 12.0001Z" fill="#575757"/>
<path d="M23.1428 12.8571H15.4287C15.1223 12.8571 14.8394 13.0205 14.6863 13.2856C14.5333 13.5508 14.5333 13.8776 14.6863 14.1428C14.8394 14.4079 15.1224 14.5713 15.4287 14.5713H23.1428C23.4492 14.5713 23.7321 14.4079 23.8852 14.1428C24.0382 13.8776 24.0382 13.5508 23.8852 13.2856C23.7321 13.0205 23.4491 12.8571 23.1428 12.8571Z" fill="#575757"/>
<path d="M23.1431 17.1421H15.4289C15.1226 17.1421 14.8396 17.3055 14.6866 17.5707C14.5335 17.8358 14.5335 18.1626 14.6866 18.4278C14.8396 18.693 15.1226 18.8564 15.4289 18.8564H23.1431C23.4494 18.8564 23.7324 18.693 23.8854 18.4278C24.0385 18.1626 24.0385 17.8358 23.8854 17.5707C23.7324 17.3055 23.4494 17.1421 23.1431 17.1421Z" fill="#575757"/>
<path d="M23.1431 21.4298H15.4289C15.1226 21.4298 14.8396 21.5932 14.6866 21.8584C14.5335 22.1236 14.5335 22.4504 14.6866 22.7155C14.8396 22.9807 15.1226 23.1441 15.4289 23.1441H23.1431C23.4494 23.1441 23.7324 22.9807 23.8854 22.7155C24.0385 22.4504 24.0385 22.1236 23.8854 21.8584C23.7324 21.5932 23.4494 21.4298 23.1431 21.4298Z" fill="#575757"/>
</svg>
