<svg width="24" height="25" viewBox="0 0 24 25" fill="none" xmlns="http://www.w3.org/2000/svg">
<path d="M17.6574 15.3502L16.2434 13.9362L17.6574 12.5222C18.0288 12.1508 18.3235 11.7098 18.5245 11.2245C18.7255 10.7392 18.829 10.219 18.829 9.69374C18.829 9.16844 18.7255 8.64828 18.5245 8.16297C18.3235 7.67765 18.0288 7.23668 17.6574 6.86524C17.2859 6.4938 16.845 6.19915 16.3597 5.99813C15.8743 5.7971 15.3542 5.69364 14.8289 5.69364C14.3036 5.69364 13.7834 5.7971 13.2981 5.99813C12.8128 6.19915 12.3718 6.4938 12.0004 6.86524L10.5864 8.27924L9.17239 6.86524L10.5864 5.45124C11.7147 4.34116 13.2359 3.7219 14.8188 3.72834C16.4016 3.73479 17.9177 4.36642 19.037 5.48565C20.1562 6.60488 20.7878 8.12104 20.7943 9.70386C20.8007 11.2867 20.1815 12.8079 19.0714 13.9362L17.6574 15.3502ZM14.8284 18.1792L13.4144 19.5932C12.8589 20.1578 12.1971 20.6069 11.4673 20.9144C10.7374 21.222 9.95381 21.382 9.16177 21.3852C8.36974 21.3885 7.5849 21.2348 6.85253 20.9332C6.12016 20.6316 5.45476 20.188 4.8947 19.6279C4.33464 19.0679 3.89101 18.4025 3.5894 17.6701C3.28779 16.9377 3.13416 16.1529 3.13739 15.3609C3.14061 14.5688 3.30062 13.7853 3.60819 13.0554C3.91576 12.3255 4.36479 11.6637 4.92939 11.1082L6.34339 9.69424L7.75739 11.1082L6.34339 12.5222C5.97195 12.8937 5.6773 13.3347 5.47628 13.82C5.27525 14.3053 5.17179 14.8254 5.17179 15.3507C5.17179 15.876 5.27525 16.3962 5.47628 16.8815C5.6773 17.3668 5.97195 17.8078 6.34339 18.1792C6.71483 18.5507 7.1558 18.8453 7.64112 19.0464C8.12643 19.2474 8.64659 19.3508 9.17189 19.3508C9.69719 19.3508 10.2173 19.2474 10.7027 19.0464C11.188 18.8453 11.6289 18.5507 12.0004 18.1792L13.4144 16.7652L14.8284 18.1792ZM14.8284 8.27924L16.2434 9.69424L9.17239 16.7642L7.75739 15.3502L14.8284 8.28024V8.27924ZM5.77539 2.81524L7.70739 2.29724L8.74239 6.16224L6.81139 6.68024L5.77539 2.81624V2.81524ZM15.2584 18.8832L17.1894 18.3652L18.2254 22.2292L16.2934 22.7472L15.2584 18.8832ZM2.29339 6.29724L6.15739 7.33324L5.63939 9.26424L1.77539 8.22924L2.29339 6.29724ZM18.3614 15.7802L22.2254 16.8152L21.7074 18.7472L17.8434 17.7112L18.3614 15.7802Z" fill="#858282"/>
</svg>
