<svg width="15" height="16" viewBox="0 0 15 16" fill="none" xmlns="http://www.w3.org/2000/svg">
  <path fill-rule="evenodd" clip-rule="evenodd"
        d="M11.9243 5.50199C11.6986 5.66583 11.4529 5.81198 11.1973 5.93981C10.0997 6.4886 8.62617 6.81039 7.03198 6.81039C5.43779 6.81039 3.96429 6.4886 2.86671 5.93981C2.61104 5.81198 2.36536 5.66583 2.1397 5.50199V7.11616C2.1397 7.51966 2.48269 8.04959 3.41368 8.51508C4.30809 8.96228 5.5865 9.25653 7.03198 9.25653L7.075 9.25645C6.85748 9.63246 6.68857 10.0401 6.57686 10.4708C5.15861 10.4158 3.85902 10.1052 2.86671 9.60903C2.61104 9.4812 2.36536 9.33504 2.1397 9.1712V10.7854C2.1397 11.1889 2.48269 11.7188 3.41368 12.1843C4.21197 12.5834 5.31616 12.8607 6.57201 12.9157C6.68365 13.3533 6.85427 13.7673 7.07491 14.1487L7.03198 14.1488C5.43779 14.1488 3.96429 13.827 2.86671 13.2782C1.8057 12.7477 0.916626 11.9017 0.916626 10.7854V3.44694C0.916626 2.3306 1.8057 1.48458 2.86671 0.954074C3.96429 0.405282 5.43779 0.0834961 7.03198 0.0834961C8.62617 0.0834961 10.0997 0.405282 11.1973 0.954074C12.2583 1.48458 13.1473 2.3306 13.1473 3.44694V7.16601C12.7616 7.00988 12.3515 6.90152 11.9243 6.84824V5.50199ZM3.41368 2.04802C2.48269 2.51352 2.1397 3.04344 2.1397 3.44694C2.1397 3.85044 2.48269 4.38037 3.41368 4.84586C4.30809 5.29307 5.5865 5.58732 7.03198 5.58732C8.47747 5.58732 9.75588 5.29307 10.6503 4.84586C11.5813 4.38037 11.9243 3.85044 11.9243 3.44694C11.9243 3.04344 11.5813 2.51352 10.6503 2.04802C9.75588 1.60082 8.47747 1.30657 7.03198 1.30657C5.5865 1.30657 4.30809 1.60082 3.41368 2.04802Z"
        fill="#4C5664"/>
  <path d="M10.1948 8.20814L8.51783 10.1651H9.63579V12.4015H10.7538V10.1651H11.8717L10.1948 8.20814Z" fill="#4C5664"/>
  <path d="M12.9897 15.1972L11.3127 13.2403H12.4307V11.0038H13.5487V13.2403H14.6666L12.9897 15.1972Z" fill="#4C5664"/>
</svg>
