<svg width="18" height="18" viewBox="0 0 18 18" fill="none" xmlns="http://www.w3.org/2000/svg">
<rect width="18" height="18" fill="transparent"/>
<path d="M9.46506 4L9.4515 4.06825L7.264 13.6932L7.18175 14.0625H8.53537L8.54894 13.9942L10.7364 4.36925L10.8187 4H9.46506V4ZM6.375 5.3125L6.19737 5.44944L2.25987 8.51194L2 8.71712V9.34625L2.25987 9.55144L6.19737 12.6139L6.375 12.7509V11.0967L3.72244 9.03212L6.375 6.96756V5.31337V5.3125ZM11.625 5.3125V6.96669L14.2776 9.03125L11.625 11.0958V12.75L11.8026 12.6131L15.7401 9.55056L16 9.34537V8.71625L15.7401 8.51106L11.8026 5.44856L11.625 5.31162V5.3125Z" fill="black"/>
</svg>