<svg xmlns="http://www.w3.org/2000/svg" width="16" height="20" fill="none" viewBox="0 0 16 20"><path fill="#444" d="M13.9588 0H2.0402C1.28889 0 0.684082 0.607754 0.684082 1.35848V18.6421C0.684082 19.3905 1.28889 20 2.0402 20H13.9588C14.7077 20 15.3155 19.3911 15.3155 18.6421V1.35848C15.3167 0.607754 14.7083 0 13.9588 0ZM8.00008 19.4911C7.55412 19.4911 7.19347 19.1304 7.19347 18.6851C7.19347 18.2391 7.55412 17.8779 8.00008 17.8779C8.44486 17.8779 8.80669 18.2391 8.80669 18.6851C8.80669 19.1304 8.44486 19.4911 8.00008 19.4911ZM13.9429 17.1713H2.05727V1.63205H13.9429V17.1713Z"/></svg>