<svg xmlns="http://www.w3.org/2000/svg" width="16" height="16" fill="none" viewBox="0 0 16 16"><g clip-path="url(#clip0)"><path fill="#E22C2C" fill-rule="evenodd" d="M10.879 0.418515C10.879 0.649535 11.067 0.83703 11.2976 0.83703C11.5286 0.83703 11.7161 1.02411 11.7161 1.25554C11.7161 1.48698 11.5286 1.67406 11.2976 1.67406C11.067 1.67406 10.879 1.86155 10.879 2.09257C10.879 2.32401 10.6915 2.51109 10.4605 2.51109C10.2295 2.51109 10.042 2.32401 10.042 2.09257C10.042 1.86155 9.8541 1.67406 9.6235 1.67406C9.39248 1.67406 9.20498 1.48698 9.20498 1.25554C9.20498 1.02411 9.39248 0.83703 9.6235 0.83703C9.8541 0.83703 10.042 0.649535 10.042 0.418515C10.042 0.187076 10.2295 0 10.4605 0C10.6915 0 10.879 0.187076 10.879 0.418515ZM11.0968 2.91647L13.8833 5.70297L3.58631 16L0.799805 13.2135L11.0968 2.91647ZM11.1158 6.71379L10.1201 5.71815L11.1158 4.7225L12.1114 5.71815L11.1158 6.71379ZM2.58583 13.2519L3.58147 14.2475L10.2271 7.60191L9.23142 6.60627L2.58583 13.2519ZM4.21032 5.71869C4.55622 5.71869 4.83809 5.99993 4.83809 6.34646C4.83809 6.69362 5.11933 6.97423 5.46586 6.97423C5.8124 6.97423 6.09364 6.69362 6.09364 6.34646C6.09364 5.99993 6.37551 5.71869 6.72141 5.71869C7.06794 5.71869 7.34918 5.43807 7.34918 5.09092C7.34918 4.74376 7.06794 4.46314 6.72141 4.46314C6.37551 4.46314 6.09364 4.1819 6.09364 3.83537C6.09364 3.48821 5.8124 3.2076 5.46586 3.2076C5.11933 3.2076 4.83809 3.48821 4.83809 3.83537C4.83809 4.1819 4.55622 4.46314 4.21032 4.46314C3.86379 4.46314 3.58255 4.74376 3.58255 5.09092C3.58255 5.43807 3.86379 5.71869 4.21032 5.71869ZM13.2079 9.38031C13.2079 9.66909 13.4428 9.90345 13.731 9.90345C14.0198 9.90345 14.2542 10.1373 14.2542 10.4266C14.2542 10.7159 14.0198 10.9497 13.731 10.9497C13.4428 10.9497 13.2079 11.1841 13.2079 11.4729C13.2079 11.7622 12.9735 11.996 12.6847 11.996C12.396 11.996 12.1616 11.7622 12.1616 11.4729C12.1616 11.1841 11.9267 10.9497 11.6384 10.9497C11.3497 10.9497 11.1153 10.7159 11.1153 10.4266C11.1153 10.1373 11.3497 9.90345 11.6384 9.90345C11.9267 9.90345 12.1616 9.66909 12.1616 9.38031C12.1616 9.09101 12.396 8.85717 12.6847 8.85717C12.9735 8.85717 13.2079 9.09101 13.2079 9.38031ZM15.3003 7.39249C15.185 7.39249 15.091 7.29874 15.091 7.18323C15.091 7.06751 14.9973 6.97398 14.8818 6.97398C14.7663 6.97398 14.6725 7.06751 14.6725 7.18323C14.6725 7.29874 14.5786 7.39249 14.4633 7.39249C14.3478 7.39249 14.254 7.48603 14.254 7.60175C14.254 7.71747 14.3478 7.81101 14.4633 7.81101C14.5786 7.81101 14.6725 7.90475 14.6725 8.02026C14.6725 8.13598 14.7663 8.22952 14.8818 8.22952C14.9973 8.22952 15.091 8.13598 15.091 8.02026C15.091 7.90475 15.185 7.81101 15.3003 7.81101C15.4158 7.81101 15.5096 7.71747 15.5096 7.60175C15.5096 7.48603 15.4158 7.39249 15.3003 7.39249Z" clip-rule="evenodd"/></g><defs><clipPath id="clip0"><rect width="16" height="16" fill="#fff"/></clipPath></defs></svg>