<svg xmlns="http://www.w3.org/2000/svg" width="18" height="18" fill="none" viewBox="0 0 18 18"><path fill="#E0B30E" fill-rule="evenodd" d="M18 9C18 13.9706 13.9706 18 9 18C4.02944 18 0 13.9706 0 9C0 4.02944 4.02944 0 9 0C13.9706 0 18 4.02944 18 9ZM10.125 3.9375V10.125H7.875V3.9375H10.125ZM9 14.0625C9.62132 14.0625 10.125 13.5588 10.125 12.9375C10.125 12.3162 9.62132 11.8125 9 11.8125C8.37868 11.8125 7.875 12.3162 7.875 12.9375C7.875 13.5588 8.37868 14.0625 9 14.0625Z" clip-rule="evenodd"/></svg>