<svg xmlns="http://www.w3.org/2000/svg" width="72" height="73" fill="none" viewBox="0 0 72 73"><path fill="#E8E8E8" fill-rule="evenodd" d="M42.3253 4.44421L71.3309 63.0473C72.8988 66.2151 71.6018 70.0542 68.434 71.6221C67.5514 72.059 66.5798 72.2862 65.595 72.2862H6.4C2.86538 72.2862 0 69.4209 0 65.8863C0 64.8666 0.243617 63.8618 0.710563 62.9553L30.9 4.35225C32.5187 1.21006 36.3782 -0.0249646 39.5204 1.59374C40.7358 2.21989 41.7188 3.21883 42.3253 4.44421Z" class="triangle" clip-rule="evenodd"/><path fill="#979797" fill-rule="evenodd" d="M35.9033 53.8863C38.1125 53.8863 39.9033 55.6772 39.9033 57.8863C39.9033 60.0955 38.1125 61.8863 35.9033 61.8863C33.6942 61.8863 31.9033 60.0955 31.9033 57.8863C31.9033 55.6772 33.6942 53.8863 35.9033 53.8863ZM35.9033 23.4863C37.9863 23.4863 39.6749 25.1749 39.6749 27.2579C39.6749 27.3318 39.6728 27.4057 39.6684 27.4794L38.4443 48.2905C38.3651 49.6358 37.251 50.6863 35.9033 50.6863C34.5556 50.6863 33.4415 49.6358 33.3624 48.2905L32.1382 27.4794C32.0159 25.4 33.6024 23.6152 35.6818 23.4928C35.7556 23.4885 35.8294 23.4863 35.9033 23.4863Z" class="symbol" clip-rule="evenodd"/></svg>