<svg width="258" height="256" viewBox="0 0 258 256" fill="none" xmlns="http://www.w3.org/2000/svg">
<rect x="49.0781" y="119.986" width="160.275" height="16.0275" fill="#4B4848"/>
<circle cx="153.041" cy="128" r="24.0412" fill="#4B4848"/>
<path d="M0.996094 147.993L18.1591 107.925H23.9017L41.0647 147.993H34.9673L30.2894 136.525H11.7714L7.09349 147.993H0.996094ZM13.4812 132.277H28.5796L21.2885 114.394H20.7723L13.4812 132.277Z" fill="#4B4848"/>
<path d="M227.789 147.993V107.925H243.117C246.782 107.925 249.67 108.822 251.78 110.618C253.909 112.414 254.974 114.848 254.974 117.921C254.974 119.994 254.298 121.864 252.947 123.53C251.614 125.196 249.985 126.205 248.059 126.557V127.001C250.799 127.353 252.974 128.408 254.585 130.166C256.195 131.907 257.001 134.1 257.001 136.747C257.001 140.283 255.797 143.041 253.391 145.022C251.003 147.003 247.68 147.993 243.422 147.993H227.789ZM232.787 143.578H242.672C245.69 143.578 247.976 142.977 249.531 141.773C251.086 140.57 251.864 138.811 251.864 136.497C251.864 131.832 248.643 129.5 242.2 129.5H232.787V143.578ZM232.787 125.196H240.784C246.875 125.196 249.92 123.058 249.92 118.782C249.92 116.745 249.226 115.163 247.837 114.033C246.467 112.904 244.542 112.34 242.062 112.34H232.787V125.196Z" fill="#4B4848"/>
</svg>
