<svg width="24" height="24" viewBox="0 0 24 24" fill="none" xmlns="http://www.w3.org/2000/svg">
<path d="M19.6549 10.5883V6H21.4101C21.8298 6 22.1605 6.10281 22.4022 6.30843C22.646 6.51405 22.7678 6.79281 22.7678 7.14469C22.7678 7.38211 22.6905 7.59621 22.5358 7.787C22.3831 7.97779 22.1965 8.09334 21.9761 8.13357V8.18442C22.2898 8.22472 22.5389 8.34555 22.7233 8.54697C22.9078 8.74618 22.9999 8.99739 22.9999 9.30053C22.9999 9.70545 22.8622 10.0213 22.5866 10.2481C22.3131 10.4749 21.9326 10.5883 21.4451 10.5883H19.6549ZM20.2273 10.0828H21.3592C21.7047 10.0828 21.9666 10.0139 22.1446 9.87606C22.3227 9.73825 22.4117 9.5369 22.4117 9.27193C22.4117 8.73769 22.0429 8.47065 21.3052 8.47065H20.2273V10.0828ZM20.2273 7.97779H21.1431C21.8405 7.97779 22.1891 7.73294 22.1891 7.24327C22.1891 7.01009 22.1097 6.82884 21.9507 6.69953C21.7938 6.57023 21.5734 6.50557 21.2893 6.50557H20.2273V7.97779Z" fill="#4B4848" stroke="#4B4848" stroke-width="0.3"/>
<path d="M1 10.5883L2.96537 6H3.62295L5.58832 10.5883H4.89009L4.35442 9.27506H2.23389L1.69822 10.5883H1ZM2.42969 8.78862H4.15862L3.32371 6.74087H3.2646L2.42969 8.78862Z" fill="#4B4848" stroke="#4B4848" stroke-width="0.3"/>
<path d="M22.7049 14.4119H1.29272V16.7061H22.7049V14.4119Z" fill="#4B4848"/>
<path d="M14.6754 19.0002C16.5759 19.0002 18.1166 17.4595 18.1166 15.559C18.1166 13.6584 16.5759 12.1177 14.6754 12.1177C12.7748 12.1177 11.2341 13.6584 11.2341 15.559C11.2341 17.4595 12.7748 19.0002 14.6754 19.0002Z" fill="#4B4848"/>
</svg>
