<svg width="24" height="24" viewBox="0 0 24 24" fill="none" xmlns="http://www.w3.org/2000/svg">
<path d="M19.655 10.5883V6H21.4102C21.8299 6 22.1606 6.10281 22.4022 6.30843C22.646 6.51405 22.7679 6.79281 22.7679 7.14469C22.7679 7.38211 22.6905 7.59621 22.5358 7.787C22.3832 7.97779 22.1966 8.09334 21.9762 8.13357V8.18442C22.2899 8.22472 22.539 8.34555 22.7234 8.54697C22.9079 8.74618 23 8.99739 23 9.30053C23 9.70545 22.8623 10.0213 22.5867 10.2481C22.3132 10.4749 21.9327 10.5883 21.4452 10.5883H19.655ZM20.2274 10.0828H21.3593C21.7048 10.0828 21.9666 10.0139 22.1447 9.87606C22.3228 9.73825 22.4118 9.5369 22.4118 9.27193C22.4118 8.73769 22.043 8.47065 21.3052 8.47065H20.2274V10.0828ZM20.2274 7.97779H21.1431C21.8405 7.97779 22.1892 7.73294 22.1892 7.24327C22.1892 7.01009 22.1097 6.82884 21.9507 6.69953C21.7939 6.57023 21.5734 6.50557 21.2893 6.50557H20.2274V7.97779Z" fill="#4C5664" stroke="#4C5664" stroke-width="0.3"/>
<path d="M1 10.5883L2.96537 6H3.62295L5.58832 10.5883H4.89009L4.35442 9.27506H2.23389L1.69822 10.5883H1ZM2.42969 8.78862H4.15862L3.32371 6.74087H3.2646L2.42969 8.78862Z" fill="#4C5664" stroke="#4C5664" stroke-width="0.3"/>
<path d="M22.7049 14.4119H1.29272V16.7061H22.7049V14.4119Z" fill="#4C5664"/>
<path d="M14.6753 19.0002C16.5758 19.0002 18.1165 17.4595 18.1165 15.559C18.1165 13.6584 16.5758 12.1178 14.6753 12.1178C12.7748 12.1178 11.2341 13.6584 11.2341 15.559C11.2341 17.4595 12.7748 19.0002 14.6753 19.0002Z" fill="#4C5664"/>
</svg>
