<svg width="72" height="76" viewBox="0 0 72 76" fill="none" xmlns="http://www.w3.org/2000/svg">
<rect x="8.5" y="26.5" width="55" height="23" rx="2.5" fill="white"/>
<rect x="8.5" y="26.5" width="55" height="23" rx="2.5" stroke="#CDD5DF"/>
<path d="M17.2579 42.1573C19.8906 44.79 24.1447 45.4487 27.1341 42.8428C27.3755 42.6324 27.5 42.3211 27.5 42.001C27.5 41.6808 27.3728 41.3738 27.1464 41.1474L25.2071 39.2081C24.8166 38.8176 24.1834 38.8176 23.7929 39.2081L22.2071 40.7939C21.8166 41.1844 21.1834 41.1844 20.7929 40.7939L18.2071 38.2081C17.8166 37.8176 17.8166 37.1844 18.2071 36.7939L19.7929 35.2081C20.1834 34.8176 20.1834 34.1844 19.7929 33.7939L17.8536 31.8545C17.6272 31.6282 17.3201 31.501 17 31.501C16.6799 31.501 16.3687 31.6257 16.1574 31.8662C13.4375 34.9616 14.2536 39.153 17.2579 42.1573Z" stroke="#CC3D00"/>
</svg>
