<svg width="719" height="511" viewBox="0 0 719 511" fill="none" xmlns="http://www.w3.org/2000/svg">
<g filter="url(#filter0_d_10212_17855)">
<rect x="97" y="19" width="598" height="471" rx="4" fill="white"/>
</g>
<path d="M142.316 76.4219C137.418 76.4219 134.371 73.0117 134.371 67.5508V67.5273C134.371 62.125 137.453 58.668 142.27 58.668C146.172 58.668 148.984 60.9062 149.559 64.2109L149.57 64.3281H146.57L146.535 64.2109C145.984 62.3594 144.438 61.2812 142.27 61.2812C139.316 61.2812 137.453 63.6836 137.453 67.5039V67.5273C137.453 71.4062 139.352 73.8086 142.363 73.8086C144.941 73.8086 146.699 72.2031 146.734 69.8008L146.746 69.4492H142.691V67.1406H149.711V69.25C149.711 73.6211 146.828 76.4219 142.316 76.4219ZM152.202 76V63.1914H155.12V65.1602H155.319C155.753 63.7891 156.925 62.9805 158.612 62.9805C159.057 62.9805 159.514 63.0391 159.796 63.1211V65.7344C159.327 65.6406 158.846 65.5703 158.343 65.5703C156.397 65.5703 155.12 66.7305 155.12 68.5586V76H152.202ZM166.669 76.2578C162.826 76.2578 160.505 73.75 160.505 69.6016V69.5781C160.505 65.4648 162.861 62.9453 166.669 62.9453C170.49 62.9453 172.833 65.4531 172.833 69.5781V69.6016C172.833 73.75 170.501 76.2578 166.669 76.2578ZM166.669 73.8906C168.697 73.8906 169.845 72.3086 169.845 69.6133V69.5898C169.845 66.8945 168.685 65.3008 166.669 65.3008C164.642 65.3008 163.482 66.8945 163.482 69.5898V69.6133C163.482 72.3086 164.642 73.8906 166.669 73.8906ZM179.285 76.2578C176.403 76.2578 174.926 74.5234 174.926 71.4766V63.1914H177.844V70.8086C177.844 72.7891 178.582 73.7969 180.34 73.7969C182.227 73.7969 183.235 72.5781 183.235 70.6562V63.1914H186.153V76H183.235V74.0547H183.035C182.438 75.4258 181.137 76.2578 179.285 76.2578ZM188.995 80.2539V63.1914H191.913V65.1953H192.112C192.815 63.8008 194.21 62.9805 196.003 62.9805C199.214 62.9805 201.265 65.5352 201.265 69.5898V69.6133C201.265 73.6914 199.249 76.2109 196.003 76.2109C194.245 76.2109 192.78 75.3438 192.112 73.9609H191.913V80.2539H188.995ZM195.089 73.75C197.081 73.75 198.288 72.1797 198.288 69.6133V69.5898C198.288 67.0117 197.081 65.4414 195.089 65.4414C193.108 65.4414 191.878 67.0117 191.878 69.5781V69.6016C191.878 72.168 193.108 73.75 195.089 73.75ZM208.326 76.2578C205.068 76.2578 203.099 74.7578 202.853 72.5898V72.5664H205.748L205.759 72.5898C206.064 73.4805 206.92 74.1016 208.373 74.1016C209.826 74.1016 210.834 73.4453 210.834 72.4844V72.4609C210.834 71.7109 210.271 71.2188 208.865 70.9023L206.791 70.4336C204.353 69.8945 203.193 68.7461 203.193 66.8594V66.8477C203.193 64.5391 205.302 62.9453 208.326 62.9453C211.443 62.9453 213.306 64.4922 213.494 66.5664V66.5898H210.752L210.74 66.5547C210.529 65.7461 209.685 65.0898 208.314 65.0898C207.013 65.0898 206.076 65.7227 206.076 66.6836V66.6953C206.076 67.4453 206.615 67.9023 207.998 68.2188L210.072 68.6758C212.58 69.2383 213.763 70.3047 213.763 72.168V72.1914C213.763 74.6289 211.478 76.2578 208.326 76.2578Z" fill="#202939"/>
<g filter="url(#filter1_i_10212_17855)">
<rect x="349" y="51" width="186" height="36" rx="4" fill="white"/>
<g clip-path="url(#clip0_10212_17855)">
<path d="M369.021 72.0777L371.876 74.9323L370.933 75.8757L368.078 73.0203C367.016 73.8718 365.695 74.3349 364.333 74.333C361.021 74.333 358.333 71.645 358.333 68.333C358.333 65.021 361.021 62.333 364.333 62.333C367.645 62.333 370.333 65.021 370.333 68.333C370.335 69.6943 369.872 71.0155 369.021 72.0777ZM367.683 71.583C368.53 70.7129 369.002 69.5466 369 68.333C369 65.7543 366.911 63.6663 364.333 63.6663C361.755 63.6663 359.667 65.7543 359.667 68.333C359.667 70.911 361.755 72.9997 364.333 72.9997C365.547 73.0016 366.713 72.5291 367.583 71.683L367.683 71.583Z" fill="#4C5664"/>
</g>
<g clip-path="url(#clip1_10212_17855)">
<path d="M381.491 74.2324C379.331 74.2324 377.937 73.0977 377.793 71.4912L377.786 71.416H379.017L379.023 71.4912C379.112 72.4756 380.138 73.0977 381.56 73.0977C382.899 73.0977 383.877 72.4072 383.877 71.4023V71.3955C383.877 70.5752 383.31 70.0146 381.956 69.7139L380.862 69.4746C378.887 69.0371 378.032 68.1279 378.032 66.6992V66.6924C378.039 65.0586 379.468 63.9033 381.505 63.9033C383.474 63.9033 384.848 65.0654 384.95 66.5352L384.957 66.6309H383.727L383.713 66.542C383.576 65.6738 382.756 65.0312 381.471 65.0381C380.24 65.0449 379.29 65.626 379.29 66.6582V66.665C379.29 67.4512 379.83 67.9844 381.17 68.2783L382.264 68.5244C384.321 68.9824 385.135 69.8096 385.135 71.2314V71.2383C385.135 73.084 383.692 74.2324 381.491 74.2324ZM390.043 74.1299C387.938 74.1299 386.666 72.6533 386.666 70.3428V70.3359C386.666 68.0596 387.965 66.501 389.968 66.501C391.971 66.501 393.188 67.9912 393.188 70.1924V70.6572H387.883C387.917 72.1816 388.758 73.0703 390.07 73.0703C391.068 73.0703 391.684 72.5986 391.882 72.1543L391.909 72.0928H393.099L393.085 72.1475C392.832 73.1455 391.779 74.1299 390.043 74.1299ZM389.961 67.5605C388.867 67.5605 388.033 68.3057 387.903 69.707H391.978C391.854 68.251 391.048 67.5605 389.961 67.5605ZM397.057 74.1299C395.655 74.1299 394.596 73.2822 394.596 71.9424V71.9287C394.596 70.6162 395.566 69.8574 397.282 69.7549L399.395 69.625V68.9551C399.395 68.0459 398.841 67.5537 397.74 67.5537C396.858 67.5537 396.277 67.8818 396.086 68.4561L396.079 68.4766H394.89L394.896 68.4355C395.088 67.2803 396.209 66.501 397.781 66.501C399.579 66.501 400.584 67.4238 400.584 68.9551V74H399.395V72.9131H399.285C398.82 73.6992 398.048 74.1299 397.057 74.1299ZM395.812 71.915C395.812 72.6602 396.448 73.0977 397.303 73.0977C398.513 73.0977 399.395 72.3047 399.395 71.252V70.582L397.426 70.7051C396.305 70.7734 395.812 71.1699 395.812 71.9014V71.915ZM402.758 74V66.6309H403.947V67.7246H404.057C404.337 66.9521 405.027 66.501 406.025 66.501C406.251 66.501 406.504 66.5283 406.62 66.5488V67.7041C406.374 67.6631 406.148 67.6357 405.889 67.6357C404.754 67.6357 403.947 68.3535 403.947 69.4336V74H402.758ZM410.899 74.1299C408.835 74.1299 407.516 72.6328 407.516 70.2949V70.2812C407.516 67.9912 408.828 66.501 410.893 66.501C412.684 66.501 413.757 67.5332 413.976 68.8457L413.982 68.8867H412.8L412.793 68.8662C412.608 68.1416 411.952 67.5537 410.893 67.5537C409.566 67.5537 408.732 68.6201 408.732 70.2812V70.2949C408.732 71.9902 409.58 73.0771 410.893 73.0771C411.884 73.0771 412.513 72.6396 412.786 71.8193L412.8 71.7783L413.976 71.7715L413.962 71.8467C413.661 73.1797 412.67 74.1299 410.899 74.1299ZM415.787 74V63.7051H416.977V67.7383H417.086C417.455 66.959 418.146 66.501 419.232 66.501C420.887 66.501 421.81 67.4785 421.81 69.2285V74H420.62V69.5156C420.62 68.1895 420.073 67.5537 418.897 67.5537C417.722 67.5537 416.977 68.3467 416.977 69.6387V74H415.787ZM430.936 76.5977C429.158 76.5977 428.023 75.7979 427.839 74.5879L427.853 74.5811H429.083L429.09 74.5879C429.22 75.1484 429.876 75.5449 430.936 75.5449C432.255 75.5449 433.041 74.9229 433.041 73.8359V72.3457H432.932C432.467 73.1592 431.633 73.6172 430.621 73.6172C428.714 73.6172 427.531 72.1406 427.531 70.0762V70.0625C427.531 67.998 428.721 66.501 430.648 66.501C431.688 66.501 432.494 67.0137 432.945 67.8477H433.027V66.6309H434.217V73.8975C434.217 75.5449 432.945 76.5977 430.936 76.5977ZM430.881 72.5645C432.248 72.5645 433.068 71.5391 433.068 70.0762V70.0625C433.068 68.5996 432.241 67.5537 430.881 67.5537C429.514 67.5537 428.748 68.5996 428.748 70.0625V70.0762C428.748 71.5391 429.514 72.5645 430.881 72.5645ZM436.432 74V66.6309H437.621V67.7246H437.73C438.011 66.9521 438.701 66.501 439.699 66.501C439.925 66.501 440.178 66.5283 440.294 66.5488V67.7041C440.048 67.6631 439.822 67.6357 439.562 67.6357C438.428 67.6357 437.621 68.3535 437.621 69.4336V74H436.432ZM444.587 74.1299C442.488 74.1299 441.189 72.6807 441.189 70.3223V70.3086C441.189 67.9434 442.488 66.501 444.587 66.501C446.686 66.501 447.984 67.9434 447.984 70.3086V70.3223C447.984 72.6807 446.686 74.1299 444.587 74.1299ZM444.587 73.0771C445.981 73.0771 446.768 72.0586 446.768 70.3223V70.3086C446.768 68.5654 445.981 67.5537 444.587 67.5537C443.192 67.5537 442.406 68.5654 442.406 70.3086V70.3223C442.406 72.0586 443.192 73.0771 444.587 73.0771ZM452.298 74.1299C450.623 74.1299 449.762 73.1455 449.762 71.4023V66.6309H450.951V71.1152C450.951 72.4414 451.43 73.0771 452.605 73.0771C453.904 73.0771 454.595 72.2842 454.595 70.9922V66.6309H455.784V74H454.595V72.8994H454.485C454.123 73.6855 453.378 74.1299 452.298 74.1299ZM458.006 76.4609V66.6309H459.195V67.8066H459.305C459.756 66.9863 460.576 66.501 461.602 66.501C463.468 66.501 464.691 68.0117 464.691 70.3086V70.3223C464.691 72.6328 463.475 74.1299 461.602 74.1299C460.59 74.1299 459.708 73.624 459.305 72.8379H459.195V76.4609H458.006ZM461.328 73.0771C462.675 73.0771 463.475 72.0381 463.475 70.3223V70.3086C463.475 68.5928 462.675 67.5537 461.328 67.5537C459.988 67.5537 459.168 68.6064 459.168 70.3086V70.3223C459.168 72.0244 459.988 73.0771 461.328 73.0771ZM469.08 74.1299C467.439 74.1299 466.312 73.3369 466.175 72.1201H467.392C467.59 72.7354 468.178 73.1387 469.121 73.1387C470.112 73.1387 470.816 72.667 470.816 71.9971V71.9834C470.816 71.4844 470.44 71.1357 469.531 70.917L468.39 70.6436C467.009 70.3154 466.387 69.7139 466.387 68.6543V68.6475C466.387 67.4238 467.562 66.501 469.128 66.501C470.673 66.501 471.746 67.2734 471.91 68.4766H470.741C470.584 67.8955 470.01 67.4922 469.121 67.4922C468.246 67.4922 467.604 67.9434 467.604 68.5928V68.6064C467.604 69.1055 467.973 69.4199 468.841 69.6318L469.976 69.9053C471.363 70.2402 472.033 70.8418 472.033 71.8945V71.9082C472.033 73.2207 470.755 74.1299 469.08 74.1299Z" fill="#99A4B3"/>
</g>
<rect x="349.5" y="51.5" width="185" height="35" rx="3.5" stroke="#CDD5DF"/>
</g>
<rect x="551" y="51" width="96" height="36" rx="4" fill="#8A2EB6"/>
<path d="M563.692 74L567.192 64.1357H569.182L572.682 74H570.836L570.009 71.4502H566.358L565.538 74H563.692ZM568.129 65.9678L566.803 70.0898H569.571L568.245 65.9678H568.129ZM576.482 74.123C574.609 74.123 573.42 72.6396 573.42 70.2744V70.2607C573.42 67.8818 574.589 66.4053 576.482 66.4053C577.508 66.4053 578.362 66.9111 578.752 67.7178H578.868V63.6367H580.577V74H578.868V72.8311H578.752C578.342 73.6445 577.535 74.123 576.482 74.123ZM577.016 72.6875C578.178 72.6875 578.896 71.7715 578.896 70.2744V70.2607C578.896 68.7637 578.171 67.8408 577.016 67.8408C575.86 67.8408 575.149 68.7568 575.149 70.2607V70.2744C575.149 71.7783 575.854 72.6875 577.016 72.6875ZM585.41 74.123C583.537 74.123 582.348 72.6396 582.348 70.2744V70.2607C582.348 67.8818 583.517 66.4053 585.41 66.4053C586.436 66.4053 587.29 66.9111 587.68 67.7178H587.796V63.6367H589.505V74H587.796V72.8311H587.68C587.27 73.6445 586.463 74.123 585.41 74.123ZM585.943 72.6875C587.105 72.6875 587.823 71.7715 587.823 70.2744V70.2607C587.823 68.7637 587.099 67.8408 585.943 67.8408C584.788 67.8408 584.077 68.7568 584.077 70.2607V70.2744C584.077 71.7783 584.781 72.6875 585.943 72.6875ZM598.59 76.625C596.621 76.625 595.438 75.7842 595.268 74.5264L595.274 74.5059H596.977L596.983 74.5264C597.1 75.0049 597.667 75.3398 598.617 75.3398C599.779 75.3398 600.456 74.7998 600.456 73.8428V72.4141H600.34C599.909 73.2139 599.096 73.6514 598.063 73.6514C596.17 73.6514 594.994 72.1885 594.994 70.0693V70.0557C594.994 67.8955 596.17 66.4053 598.098 66.4053C599.13 66.4053 599.937 66.9111 600.36 67.7588H600.449V66.5283H602.151V73.8154C602.151 75.5381 600.771 76.625 598.59 76.625ZM598.59 72.2979C599.772 72.2979 600.483 71.3887 600.483 70.0693V70.0557C600.483 68.7363 599.766 67.8203 598.59 67.8203C597.407 67.8203 596.737 68.7363 596.737 70.0557V70.0693C596.737 71.3887 597.407 72.2979 598.59 72.2979ZM604.236 74V66.5283H605.938V67.6768H606.055C606.308 66.877 606.991 66.4053 607.976 66.4053C608.235 66.4053 608.502 66.4395 608.666 66.4873V68.0117C608.393 67.957 608.112 67.916 607.818 67.916C606.684 67.916 605.938 68.5928 605.938 69.6592V74H604.236ZM613.096 74.1504C610.854 74.1504 609.5 72.6875 609.5 70.2676V70.2539C609.5 67.8545 610.874 66.3848 613.096 66.3848C615.324 66.3848 616.691 67.8477 616.691 70.2539V70.2676C616.691 72.6875 615.331 74.1504 613.096 74.1504ZM613.096 72.7695C614.278 72.7695 614.948 71.8467 614.948 70.2744V70.2607C614.948 68.6885 614.271 67.7588 613.096 67.7588C611.913 67.7588 611.236 68.6885 611.236 70.2607V70.2744C611.236 71.8467 611.913 72.7695 613.096 72.7695ZM620.875 74.1504C619.193 74.1504 618.332 73.1387 618.332 71.3613V66.5283H620.034V70.9717C620.034 72.127 620.465 72.7148 621.49 72.7148C622.591 72.7148 623.179 72.0039 623.179 70.8828V66.5283H624.881V74H623.179V72.8652H623.062C622.714 73.665 621.955 74.1504 620.875 74.1504ZM626.959 76.4814V66.5283H628.661V67.6973H628.777C629.188 66.8838 630.001 66.4053 631.047 66.4053C632.92 66.4053 634.116 67.8955 634.116 70.2607V70.2744C634.116 72.6533 632.94 74.123 631.047 74.123C630.021 74.123 629.167 73.6172 628.777 72.8105H628.661V76.4814H626.959ZM630.514 72.6875C631.676 72.6875 632.38 71.7715 632.38 70.2744V70.2607C632.38 68.7568 631.676 67.8408 630.514 67.8408C629.358 67.8408 628.641 68.7568 628.641 70.2539V70.2676C628.641 71.7646 629.358 72.6875 630.514 72.6875Z" fill="white"/>
<rect x="110" y="140" width="549" height="1" fill="#E7E7E7"/>
<path d="M139.211 129.281C135.945 129.281 133.914 127.008 133.914 123.367V123.352C133.914 119.75 135.969 117.445 139.18 117.445C141.781 117.445 143.656 118.938 144.039 121.141L144.047 121.219H142.047L142.023 121.141C141.656 119.906 140.625 119.188 139.18 119.188C137.211 119.188 135.969 120.789 135.969 123.336V123.352C135.969 125.938 137.234 127.539 139.242 127.539C140.961 127.539 142.133 126.469 142.156 124.867L142.164 124.633H139.461V123.094H144.141V124.5C144.141 127.414 142.219 129.281 139.211 129.281ZM146.281 129V120.461H148.227V121.773H148.359C148.648 120.859 149.43 120.32 150.555 120.32C150.852 120.32 151.156 120.359 151.344 120.414V122.156C151.031 122.094 150.711 122.047 150.375 122.047C149.078 122.047 148.227 122.82 148.227 124.039V129H146.281ZM156.406 129.172C153.844 129.172 152.297 127.5 152.297 124.734V124.719C152.297 121.977 153.867 120.297 156.406 120.297C158.953 120.297 160.516 121.969 160.516 124.719V124.734C160.516 127.5 158.961 129.172 156.406 129.172ZM156.406 127.594C157.758 127.594 158.523 126.539 158.523 124.742V124.727C158.523 122.93 157.75 121.867 156.406 121.867C155.055 121.867 154.281 122.93 154.281 124.727V124.742C154.281 126.539 155.055 127.594 156.406 127.594ZM165.297 129.172C163.375 129.172 162.391 128.016 162.391 125.984V120.461H164.336V125.539C164.336 126.859 164.828 127.531 166 127.531C167.258 127.531 167.93 126.719 167.93 125.438V120.461H169.875V129H167.93V127.703H167.797C167.398 128.617 166.531 129.172 165.297 129.172ZM172.25 131.836V120.461H174.195V121.797H174.328C174.797 120.867 175.727 120.32 176.922 120.32C179.062 120.32 180.43 122.023 180.43 124.727V124.742C180.43 127.461 179.086 129.141 176.922 129.141C175.75 129.141 174.773 128.562 174.328 127.641H174.195V131.836H172.25ZM176.312 127.5C177.641 127.5 178.445 126.453 178.445 124.742V124.727C178.445 123.008 177.641 121.961 176.312 121.961C174.992 121.961 174.172 123.008 174.172 124.719V124.734C174.172 126.445 174.992 127.5 176.312 127.5ZM185.617 129.172C183.445 129.172 182.133 128.172 181.969 126.727V126.711H183.898L183.906 126.727C184.109 127.32 184.68 127.734 185.648 127.734C186.617 127.734 187.289 127.297 187.289 126.656V126.641C187.289 126.141 186.914 125.812 185.977 125.602L184.594 125.289C182.969 124.93 182.195 124.164 182.195 122.906V122.898C182.195 121.359 183.602 120.297 185.617 120.297C187.695 120.297 188.938 121.328 189.062 122.711V122.727H187.234L187.227 122.703C187.086 122.164 186.523 121.727 185.609 121.727C184.742 121.727 184.117 122.148 184.117 122.789V122.797C184.117 123.297 184.477 123.602 185.398 123.812L186.781 124.117C188.453 124.492 189.242 125.203 189.242 126.445V126.461C189.242 128.086 187.719 129.172 185.617 129.172ZM198.359 131.836C196.797 129.875 196.078 127.43 196.078 124.492C196.078 121.547 196.797 119.102 198.359 117.156H200.109C198.953 118.617 198.078 121.727 198.078 124.492C198.078 127.273 198.953 130.359 200.109 131.836H198.359ZM206.359 129.281C203.953 129.281 201.859 127.57 201.859 123.508V123.492C201.859 119.695 203.57 117.445 206.406 117.445C208.477 117.445 210.023 118.672 210.383 120.398L210.398 120.484H208.422L208.391 120.406C208.094 119.617 207.398 119.102 206.406 119.102C204.617 119.102 203.859 120.852 203.773 123.008C203.773 123.094 203.766 123.18 203.766 123.266H203.922C204.336 122.375 205.32 121.586 206.867 121.586C209.031 121.586 210.547 123.164 210.547 125.305V125.32C210.547 127.609 208.805 129.281 206.359 129.281ZM204.117 125.344C204.117 126.633 205.094 127.641 206.344 127.641C207.594 127.641 208.578 126.648 208.578 125.391V125.375C208.578 124.07 207.648 123.133 206.367 123.133C205.094 123.133 204.117 124.055 204.117 125.328V125.344ZM214.055 131.836H212.305C213.461 130.359 214.336 127.273 214.336 124.492C214.336 121.727 213.461 118.617 212.305 117.156H214.055C215.617 119.102 216.336 121.547 216.336 124.492C216.336 127.43 215.617 129.875 214.055 131.836Z" fill="#364252"/>
<rect x="134" y="158" width="351" height="12" fill="#CDD5DF"/>
<rect x="134" y="270" width="351" height="12" fill="#CDD5DF"/>
<rect x="134" y="314" width="351" height="12" fill="#CDD5DF"/>
<rect x="134" y="358" width="351" height="12" fill="#CDD5DF"/>
<rect x="134" y="402" width="351" height="12" fill="#CDD5DF"/>
<rect x="133" y="446" width="351" height="12" fill="#CDD5DF"/>
<g filter="url(#filter2_d_10212_17855)">
<rect x="64" y="194" width="625" height="52" fill="white"/>
</g>
<path d="M94.4595 224.051C93.0503 224.051 92.46 223.53 92.46 222.223V218.071H91.3809V217.157H92.46V215.386H93.6025V217.157H95.1006V218.071H93.6025V221.943C93.6025 222.75 93.8818 223.073 94.5928 223.073C94.7896 223.073 94.8975 223.067 95.1006 223.048V223.987C94.8848 224.025 94.6753 224.051 94.4595 224.051ZM99.4424 224.121C97.4873 224.121 96.3066 222.75 96.3066 220.604V220.598C96.3066 218.484 97.5127 217.037 99.3726 217.037C101.232 217.037 102.362 218.42 102.362 220.464V220.896H97.4365C97.4683 222.312 98.249 223.137 99.4678 223.137C100.395 223.137 100.966 222.699 101.15 222.286L101.175 222.229H102.28L102.267 222.28C102.032 223.207 101.055 224.121 99.4424 224.121ZM99.3662 218.021C98.3506 218.021 97.5762 218.712 97.4556 220.014H101.239C101.125 218.662 100.375 218.021 99.3662 218.021ZM106.425 224.121C104.901 224.121 103.854 223.384 103.727 222.254H104.857C105.041 222.826 105.587 223.2 106.463 223.2C107.383 223.2 108.037 222.762 108.037 222.14V222.127C108.037 221.664 107.688 221.34 106.844 221.137L105.784 220.883C104.501 220.579 103.924 220.02 103.924 219.036V219.03C103.924 217.894 105.016 217.037 106.469 217.037C107.904 217.037 108.9 217.754 109.053 218.871H107.967C107.821 218.332 107.288 217.957 106.463 217.957C105.65 217.957 105.054 218.376 105.054 218.979V218.992C105.054 219.455 105.396 219.747 106.203 219.944L107.256 220.198C108.545 220.509 109.167 221.067 109.167 222.045V222.058C109.167 223.276 107.98 224.121 106.425 224.121ZM113.249 224.051C111.839 224.051 111.249 223.53 111.249 222.223V218.071H110.17V217.157H111.249V215.386H112.392V217.157H113.89V218.071H112.392V221.943C112.392 222.75 112.671 223.073 113.382 223.073C113.579 223.073 113.687 223.067 113.89 223.048V223.987C113.674 224.025 113.464 224.051 113.249 224.051ZM116.86 224L114.943 217.157H116.048L117.394 222.629H117.495L119.025 217.157H120.072L121.602 222.629H121.704L123.049 217.157H124.147L122.23 224H121.12L119.59 218.706H119.488L117.965 224H116.86ZM128.166 224.121C126.217 224.121 125.011 222.775 125.011 220.585V220.572C125.011 218.376 126.217 217.037 128.166 217.037C130.114 217.037 131.32 218.376 131.32 220.572V220.585C131.32 222.775 130.114 224.121 128.166 224.121ZM128.166 223.143C129.46 223.143 130.19 222.197 130.19 220.585V220.572C130.19 218.954 129.46 218.014 128.166 218.014C126.871 218.014 126.141 218.954 126.141 220.572V220.585C126.141 222.197 126.871 223.143 128.166 223.143ZM133.034 224V217.157H134.139V218.173H134.24C134.5 217.456 135.142 217.037 136.068 217.037C136.278 217.037 136.513 217.062 136.621 217.081V218.154C136.392 218.116 136.183 218.09 135.941 218.09C134.888 218.09 134.139 218.757 134.139 219.76V224H133.034ZM138.049 224V214.44H139.153V220.147H139.255L142.213 217.157H143.552L140.569 220.033L143.749 224H142.359L139.794 220.782L139.153 221.404V224H138.049ZM147.139 224.121C145.615 224.121 144.568 223.384 144.441 222.254H145.571C145.755 222.826 146.301 223.2 147.177 223.2C148.097 223.2 148.751 222.762 148.751 222.14V222.127C148.751 221.664 148.402 221.34 147.558 221.137L146.498 220.883C145.215 220.579 144.638 220.02 144.638 219.036V219.03C144.638 217.894 145.729 217.037 147.183 217.037C148.618 217.037 149.614 217.754 149.767 218.871H148.681C148.535 218.332 148.002 217.957 147.177 217.957C146.364 217.957 145.768 218.376 145.768 218.979V218.992C145.768 219.455 146.11 219.747 146.917 219.944L147.97 220.198C149.259 220.509 149.881 221.067 149.881 222.045V222.058C149.881 223.276 148.694 224.121 147.139 224.121ZM151.595 226.285V217.157H152.699V218.249H152.801C153.22 217.487 153.981 217.037 154.934 217.037C156.667 217.037 157.803 218.439 157.803 220.572V220.585C157.803 222.73 156.673 224.121 154.934 224.121C153.994 224.121 153.175 223.651 152.801 222.921H152.699V226.285H151.595ZM154.68 223.143C155.93 223.143 156.673 222.178 156.673 220.585V220.572C156.673 218.979 155.93 218.014 154.68 218.014C153.436 218.014 152.674 218.992 152.674 220.572V220.585C152.674 222.166 153.436 223.143 154.68 223.143ZM161.408 224.121C160.107 224.121 159.123 223.333 159.123 222.089V222.077C159.123 220.858 160.024 220.153 161.618 220.058L163.579 219.938V219.315C163.579 218.471 163.065 218.014 162.043 218.014C161.224 218.014 160.685 218.319 160.507 218.852L160.5 218.871H159.396L159.402 218.833C159.58 217.76 160.621 217.037 162.081 217.037C163.75 217.037 164.684 217.894 164.684 219.315V224H163.579V222.991H163.478C163.046 223.721 162.329 224.121 161.408 224.121ZM160.253 222.064C160.253 222.756 160.843 223.162 161.637 223.162C162.76 223.162 163.579 222.426 163.579 221.448V220.826L161.751 220.94C160.71 221.004 160.253 221.372 160.253 222.051V222.064ZM169.501 224.121C167.584 224.121 166.359 222.73 166.359 220.56V220.547C166.359 218.42 167.578 217.037 169.495 217.037C171.158 217.037 172.155 217.995 172.358 219.214L172.364 219.252H171.266L171.26 219.233C171.088 218.56 170.479 218.014 169.495 218.014C168.264 218.014 167.489 219.004 167.489 220.547V220.56C167.489 222.134 168.276 223.143 169.495 223.143C170.416 223.143 171 222.737 171.253 221.975L171.266 221.937L172.358 221.931L172.345 222C172.066 223.238 171.146 224.121 169.501 224.121ZM176.77 224.121C174.814 224.121 173.634 222.75 173.634 220.604V220.598C173.634 218.484 174.84 217.037 176.7 217.037C178.56 217.037 179.689 218.42 179.689 220.464V220.896H174.764C174.795 222.312 175.576 223.137 176.795 223.137C177.722 223.137 178.293 222.699 178.477 222.286L178.502 222.229H179.607L179.594 222.28C179.359 223.207 178.382 224.121 176.77 224.121ZM176.693 218.021C175.678 218.021 174.903 218.712 174.783 220.014H178.566C178.452 218.662 177.703 218.021 176.693 218.021Z" fill="#393939"/>
<g clip-path="url(#clip2_10212_17855)">
<path d="M197.5 223.5H200V224.5H198.5V226H197.5V223.5ZM192.5 218.5H190V217.5H191.5V216H192.5V218.5ZM198.182 222.768L197.475 222.06L198.182 221.353C198.416 221.121 198.602 220.846 198.729 220.542C198.856 220.238 198.921 219.912 198.922 219.583C198.923 219.254 198.858 218.928 198.733 218.623C198.607 218.319 198.423 218.043 198.19 217.81C197.957 217.577 197.68 217.392 197.376 217.267C197.072 217.141 196.746 217.077 196.417 217.078C196.087 217.078 195.761 217.144 195.458 217.271C195.154 217.398 194.878 217.584 194.647 217.818L193.939 218.525L193.232 217.818L193.94 217.111C194.596 216.455 195.487 216.086 196.415 216.086C197.343 216.086 198.234 216.455 198.89 217.111C199.546 217.767 199.915 218.658 199.915 219.586C199.915 220.514 199.546 221.405 198.89 222.061L198.182 222.768H198.182ZM196.768 224.182L196.061 224.889C195.404 225.545 194.514 225.914 193.586 225.914C192.657 225.914 191.767 225.545 191.111 224.889C190.454 224.233 190.085 223.342 190.085 222.414C190.085 221.486 190.454 220.595 191.111 219.939L191.818 219.232L192.525 219.94L191.818 220.647C191.584 220.879 191.398 221.154 191.271 221.458C191.144 221.762 191.079 222.088 191.078 222.417C191.077 222.746 191.142 223.072 191.267 223.377C191.393 223.681 191.577 223.957 191.81 224.19C192.043 224.423 192.32 224.608 192.624 224.733C192.928 224.859 193.254 224.923 193.583 224.922C193.913 224.922 194.239 224.856 194.542 224.729C194.846 224.602 195.122 224.416 195.353 224.182L196.061 223.476L196.768 224.182V224.182ZM196.414 218.878L197.122 219.586L193.586 223.121L192.878 222.414L196.414 218.879V218.878Z" fill="#4C5664"/>
</g>
<defs>
<filter id="filter0_d_10212_17855" x="77" y="0" width="638" height="511" filterUnits="userSpaceOnUse" color-interpolation-filters="sRGB">
<feFlood flood-opacity="0" result="BackgroundImageFix"/>
<feColorMatrix in="SourceAlpha" type="matrix" values="0 0 0 0 0 0 0 0 0 0 0 0 0 0 0 0 0 0 127 0" result="hardAlpha"/>
<feOffset dy="1"/>
<feGaussianBlur stdDeviation="10"/>
<feComposite in2="hardAlpha" operator="out"/>
<feColorMatrix type="matrix" values="0 0 0 0 0.298039 0 0 0 0 0.337255 0 0 0 0 0.392157 0 0 0 0.11 0"/>
<feBlend mode="normal" in2="BackgroundImageFix" result="effect1_dropShadow_10212_17855"/>
<feBlend mode="normal" in="SourceGraphic" in2="effect1_dropShadow_10212_17855" result="shape"/>
</filter>
<filter id="filter1_i_10212_17855" x="349" y="51" width="186" height="37" filterUnits="userSpaceOnUse" color-interpolation-filters="sRGB">
<feFlood flood-opacity="0" result="BackgroundImageFix"/>
<feBlend mode="normal" in="SourceGraphic" in2="BackgroundImageFix" result="shape"/>
<feColorMatrix in="SourceAlpha" type="matrix" values="0 0 0 0 0 0 0 0 0 0 0 0 0 0 0 0 0 0 127 0" result="hardAlpha"/>
<feOffset dy="1"/>
<feGaussianBlur stdDeviation="1"/>
<feComposite in2="hardAlpha" operator="arithmetic" k2="-1" k3="1"/>
<feColorMatrix type="matrix" values="0 0 0 0 0.298039 0 0 0 0 0.337255 0 0 0 0 0.392157 0 0 0 0.08 0"/>
<feBlend mode="normal" in2="shape" result="effect1_innerShadow_10212_17855"/>
</filter>
<filter id="filter2_d_10212_17855" x="0" y="154" width="753" height="180" filterUnits="userSpaceOnUse" color-interpolation-filters="sRGB">
<feFlood flood-opacity="0" result="BackgroundImageFix"/>
<feColorMatrix in="SourceAlpha" type="matrix" values="0 0 0 0 0 0 0 0 0 0 0 0 0 0 0 0 0 0 127 0" result="hardAlpha"/>
<feOffset dy="24"/>
<feGaussianBlur stdDeviation="32"/>
<feComposite in2="hardAlpha" operator="out"/>
<feColorMatrix type="matrix" values="0 0 0 0 0 0 0 0 0 0 0 0 0 0 0 0 0 0 0.13 0"/>
<feBlend mode="normal" in2="BackgroundImageFix" result="effect1_dropShadow_10212_17855"/>
<feBlend mode="normal" in="SourceGraphic" in2="effect1_dropShadow_10212_17855" result="shape"/>
</filter>
<clipPath id="clip0_10212_17855">
<rect width="16" height="16" fill="white" transform="translate(357 61)"/>
</clipPath>
<clipPath id="clip1_10212_17855">
<rect width="150" height="20" fill="white" transform="translate(377 59)"/>
</clipPath>
<clipPath id="clip2_10212_17855">
<rect width="12" height="12" fill="white" transform="translate(189 215)"/>
</clipPath>
</defs>
</svg>
