<svg width="742" height="511" viewBox="0 0 742 511" fill="none" xmlns="http://www.w3.org/2000/svg">
<g filter="url(#filter0_d_10212_17408)">
<rect x="120" y="19" width="598" height="471" rx="4" fill="white"/>
</g>
<path d="M152.491 308.232C150.331 308.232 148.937 307.098 148.793 305.491L148.786 305.416H150.017L150.023 305.491C150.112 306.476 151.138 307.098 152.56 307.098C153.899 307.098 154.877 306.407 154.877 305.402V305.396C154.877 304.575 154.31 304.015 152.956 303.714L151.862 303.475C149.887 303.037 149.032 302.128 149.032 300.699V300.692C149.039 299.059 150.468 297.903 152.505 297.903C154.474 297.903 155.848 299.065 155.95 300.535L155.957 300.631H154.727L154.713 300.542C154.576 299.674 153.756 299.031 152.471 299.038C151.24 299.045 150.29 299.626 150.29 300.658V300.665C150.29 301.451 150.83 301.984 152.17 302.278L153.264 302.524C155.321 302.982 156.135 303.81 156.135 305.231V305.238C156.135 307.084 154.692 308.232 152.491 308.232ZM162.157 308.232C159.478 308.232 157.803 306.25 157.803 303.078V303.064C157.803 299.886 159.471 297.903 162.15 297.903C164.229 297.903 165.849 299.209 166.143 301.103L166.136 301.116H164.898L164.892 301.103C164.563 299.838 163.511 299.038 162.15 299.038C160.257 299.038 159.067 300.597 159.067 303.064V303.078C159.067 305.546 160.257 307.098 162.157 307.098C163.531 307.098 164.577 306.394 164.885 305.259L164.898 305.245H166.143V305.259C165.814 307.063 164.256 308.232 162.157 308.232ZM168.207 308V298.136H169.438V308H168.207ZM171.953 308V298.136H173.382L176.759 306.366H176.868L180.245 298.136H181.674V308H180.525V300.467H180.45L177.333 308H176.294L173.177 300.467H173.102V308H171.953ZM187.341 308L190.978 298.136H192.194L195.831 308H194.539L193.548 305.177H189.624L188.633 308H187.341ZM191.531 299.729L189.986 304.131H193.186L191.641 299.729H191.531ZM197.561 308V298.136H201.279C203.132 298.136 204.444 299.414 204.444 301.287V301.301C204.444 303.174 203.132 304.479 201.279 304.479H198.791V308H197.561ZM200.965 299.229H198.791V303.386H200.965C202.373 303.386 203.187 302.613 203.187 301.314V301.301C203.187 300.002 202.373 299.229 200.965 299.229ZM206.461 308V298.136H207.691V308H206.461ZM217.002 308.13C214.896 308.13 213.625 306.653 213.625 304.343V304.336C213.625 302.06 214.924 300.501 216.927 300.501C218.93 300.501 220.146 301.991 220.146 304.192V304.657H214.842C214.876 306.182 215.717 307.07 217.029 307.07C218.027 307.07 218.643 306.599 218.841 306.154L218.868 306.093H220.058L220.044 306.147C219.791 307.146 218.738 308.13 217.002 308.13ZM216.92 301.561C215.826 301.561 214.992 302.306 214.862 303.707H218.937C218.813 302.251 218.007 301.561 216.92 301.561ZM221.992 308V300.631H223.182V301.738H223.291C223.66 300.959 224.351 300.501 225.438 300.501C227.092 300.501 228.015 301.479 228.015 303.229V308H226.825V303.516C226.825 302.189 226.278 301.554 225.103 301.554C223.927 301.554 223.182 302.347 223.182 303.639V308H221.992ZM232.889 308.13C231.022 308.13 229.799 306.619 229.799 304.322V304.309C229.799 301.998 231.016 300.501 232.889 300.501C233.9 300.501 234.782 301.007 235.186 301.793H235.295V297.705H236.484V308H235.295V306.824H235.186C234.734 307.645 233.914 308.13 232.889 308.13ZM233.162 307.077C234.502 307.077 235.322 306.024 235.322 304.322V304.309C235.322 302.606 234.502 301.554 233.162 301.554C231.815 301.554 231.016 302.593 231.016 304.309V304.322C231.016 306.038 231.815 307.077 233.162 307.077ZM238.768 310.461V300.631H239.957V301.807H240.066C240.518 300.986 241.338 300.501 242.363 300.501C244.229 300.501 245.453 302.012 245.453 304.309V304.322C245.453 306.633 244.236 308.13 242.363 308.13C241.352 308.13 240.47 307.624 240.066 306.838H239.957V310.461H238.768ZM242.09 307.077C243.437 307.077 244.236 306.038 244.236 304.322V304.309C244.236 302.593 243.437 301.554 242.09 301.554C240.75 301.554 239.93 302.606 239.93 304.309V304.322C239.93 306.024 240.75 307.077 242.09 307.077ZM250.341 308.13C248.242 308.13 246.943 306.681 246.943 304.322V304.309C246.943 301.943 248.242 300.501 250.341 300.501C252.439 300.501 253.738 301.943 253.738 304.309V304.322C253.738 306.681 252.439 308.13 250.341 308.13ZM250.341 307.077C251.735 307.077 252.521 306.059 252.521 304.322V304.309C252.521 302.565 251.735 301.554 250.341 301.554C248.946 301.554 248.16 302.565 248.16 304.309V304.322C248.16 306.059 248.946 307.077 250.341 307.077ZM256.213 299.209C255.762 299.209 255.393 298.84 255.393 298.389C255.393 297.938 255.762 297.568 256.213 297.568C256.664 297.568 257.033 297.938 257.033 298.389C257.033 298.84 256.664 299.209 256.213 299.209ZM255.611 308V300.631H256.801V308H255.611ZM259.043 308V300.631H260.232V301.738H260.342C260.711 300.959 261.401 300.501 262.488 300.501C264.143 300.501 265.065 301.479 265.065 303.229V308H263.876V303.516C263.876 302.189 263.329 301.554 262.153 301.554C260.978 301.554 260.232 302.347 260.232 303.639V308H259.043ZM269.837 308.055C268.319 308.055 267.684 307.494 267.684 306.086V301.615H266.521V300.631H267.684V298.724H268.914V300.631H270.527V301.615H268.914V305.785C268.914 306.653 269.215 307.002 269.98 307.002C270.192 307.002 270.309 306.995 270.527 306.975V307.986C270.295 308.027 270.069 308.055 269.837 308.055Z" fill="#4C5664"/>
<rect x="148.5" y="317.5" width="542" height="31" rx="3.5" fill="white"/>
<rect x="156" y="325.5" width="227" height="15" fill="#CDD5DF"/>
<g clip-path="url(#clip0_10212_17408)">
<path d="M671.667 329V327C671.667 326.823 671.737 326.653 671.862 326.528C671.987 326.403 672.157 326.333 672.333 326.333H680.333C680.51 326.333 680.68 326.403 680.805 326.528C680.93 326.653 681 326.823 681 327V336.333C681 336.51 680.93 336.679 680.805 336.804C680.68 336.929 680.51 337 680.333 337H678.333V339C678.333 339.368 678.033 339.666 677.662 339.666H669.671C669.583 339.667 669.496 339.65 669.415 339.617C669.333 339.584 669.259 339.534 669.197 339.473C669.135 339.411 669.085 339.337 669.051 339.256C669.018 339.175 669 339.088 669 339L669.002 329.666C669.002 329.298 669.302 329 669.673 329H671.667ZM670.335 330.333L670.333 338.333H677V330.333H670.335ZM673 329H678.333V335.666H679.667V327.666H673V329Z" fill="#4C5664"/>
</g>
<rect x="148.5" y="317.5" width="542" height="31" rx="3.5" stroke="#CDD5DF"/>
<path d="M149.078 365V356.545H152.266C153.854 356.545 154.979 357.641 154.979 359.246V359.258C154.979 360.863 153.854 361.982 152.266 361.982H150.133V365H149.078ZM151.996 357.482H150.133V361.045H151.996C153.203 361.045 153.9 360.383 153.9 359.27V359.258C153.9 358.145 153.203 357.482 151.996 357.482ZM158.078 365.111C156.877 365.111 155.969 364.385 155.969 363.236V363.225C155.969 362.1 156.801 361.449 158.271 361.361L160.082 361.25V360.676C160.082 359.896 159.607 359.475 158.664 359.475C157.908 359.475 157.41 359.756 157.246 360.248L157.24 360.266H156.221L156.227 360.23C156.391 359.24 157.352 358.572 158.699 358.572C160.24 358.572 161.102 359.363 161.102 360.676V365H160.082V364.068H159.988C159.59 364.742 158.928 365.111 158.078 365.111ZM157.012 363.213C157.012 363.852 157.557 364.227 158.289 364.227C159.326 364.227 160.082 363.547 160.082 362.645V362.07L158.395 362.176C157.434 362.234 157.012 362.574 157.012 363.201V363.213ZM165.133 365.111C163.727 365.111 162.76 364.432 162.643 363.389H163.686C163.855 363.916 164.359 364.262 165.168 364.262C166.018 364.262 166.621 363.857 166.621 363.283V363.271C166.621 362.844 166.299 362.545 165.52 362.357L164.541 362.123C163.357 361.842 162.824 361.326 162.824 360.418V360.412C162.824 359.363 163.832 358.572 165.174 358.572C166.498 358.572 167.418 359.234 167.559 360.266H166.557C166.422 359.768 165.93 359.422 165.168 359.422C164.418 359.422 163.867 359.809 163.867 360.365V360.377C163.867 360.805 164.184 361.074 164.928 361.256L165.9 361.49C167.09 361.777 167.664 362.293 167.664 363.195V363.207C167.664 364.332 166.568 365.111 165.133 365.111ZM171.432 365.047C170.131 365.047 169.586 364.566 169.586 363.359V359.527H168.59V358.684H169.586V357.049H170.641V358.684H172.023V359.527H170.641V363.102C170.641 363.846 170.898 364.145 171.555 364.145C171.736 364.145 171.836 364.139 172.023 364.121V364.988C171.824 365.023 171.631 365.047 171.432 365.047ZM176.031 365.111C174.227 365.111 173.137 363.846 173.137 361.865V361.859C173.137 359.908 174.25 358.572 175.967 358.572C177.684 358.572 178.727 359.85 178.727 361.736V362.135H174.18C174.209 363.441 174.93 364.203 176.055 364.203C176.91 364.203 177.438 363.799 177.607 363.418L177.631 363.365H178.65L178.639 363.412C178.422 364.268 177.52 365.111 176.031 365.111ZM175.961 359.48C175.023 359.48 174.309 360.119 174.197 361.32H177.689C177.584 360.072 176.893 359.48 175.961 359.48ZM185.928 365.047C184.627 365.047 184.082 364.566 184.082 363.359V359.527H183.086V358.684H184.082V357.049H185.137V358.684H186.52V359.527H185.137V363.102C185.137 363.846 185.395 364.145 186.051 364.145C186.232 364.145 186.332 364.139 186.52 364.121V364.988C186.32 365.023 186.127 365.047 185.928 365.047ZM188.102 365V356.176H189.121V359.633H189.215C189.531 358.965 190.123 358.572 191.055 358.572C192.473 358.572 193.264 359.41 193.264 360.91V365H192.244V361.156C192.244 360.02 191.775 359.475 190.768 359.475C189.76 359.475 189.121 360.154 189.121 361.262V365H188.102ZM195.648 357.465C195.262 357.465 194.945 357.148 194.945 356.762C194.945 356.375 195.262 356.059 195.648 356.059C196.035 356.059 196.352 356.375 196.352 356.762C196.352 357.148 196.035 357.465 195.648 357.465ZM195.133 365V358.684H196.152V365H195.133ZM200.242 365.111C198.836 365.111 197.869 364.432 197.752 363.389H198.795C198.965 363.916 199.469 364.262 200.277 364.262C201.127 364.262 201.73 363.857 201.73 363.283V363.271C201.73 362.844 201.408 362.545 200.629 362.357L199.65 362.123C198.467 361.842 197.934 361.326 197.934 360.418V360.412C197.934 359.363 198.941 358.572 200.283 358.572C201.607 358.572 202.527 359.234 202.668 360.266H201.666C201.531 359.768 201.039 359.422 200.277 359.422C199.527 359.422 198.977 359.809 198.977 360.365V360.377C198.977 360.805 199.293 361.074 200.037 361.256L201.01 361.49C202.199 361.777 202.773 362.293 202.773 363.195V363.207C202.773 364.332 201.678 365.111 200.242 365.111ZM211.211 365.199C209.113 365.199 207.848 363.934 207.848 362.094V356.545H208.902V362.023C208.902 363.324 209.746 364.227 211.211 364.227C212.676 364.227 213.508 363.324 213.508 362.023V356.545H214.562V362.094C214.562 363.934 213.309 365.199 211.211 365.199ZM216.707 365V356.545H219.936C221.564 356.545 222.631 357.541 222.631 359.059V359.07C222.631 360.242 221.992 361.156 220.932 361.49L222.889 365H221.652L219.842 361.654H217.762V365H216.707ZM217.762 360.717H219.842C220.926 360.717 221.541 360.137 221.541 359.105V359.094C221.541 358.086 220.885 357.482 219.795 357.482H217.762V360.717ZM224.547 365V356.545H225.602V364.051H229.68V365H224.547ZM235.152 357.465C234.766 357.465 234.449 357.148 234.449 356.762C234.449 356.375 234.766 356.059 235.152 356.059C235.539 356.059 235.855 356.375 235.855 356.762C235.855 357.148 235.539 357.465 235.152 357.465ZM234.637 365V358.684H235.656V365H234.637ZM237.578 365V358.684H238.598V359.633H238.691C239.008 358.965 239.6 358.572 240.531 358.572C241.949 358.572 242.74 359.41 242.74 360.91V365H241.721V361.156C241.721 360.02 241.252 359.475 240.244 359.475C239.236 359.475 238.598 360.154 238.598 361.262V365H237.578ZM248.5 367.215C248.365 367.215 248.189 367.203 248.049 367.18V366.342C248.172 366.365 248.33 366.371 248.471 366.371C249.051 366.371 249.402 366.107 249.631 365.381L249.748 365.006L247.41 358.684H248.5L250.234 363.881H250.328L252.057 358.684H253.129L250.662 365.387C250.141 366.805 249.619 367.215 248.5 367.215ZM256.838 365.111C255.039 365.111 253.926 363.869 253.926 361.848V361.836C253.926 359.809 255.039 358.572 256.838 358.572C258.637 358.572 259.75 359.809 259.75 361.836V361.848C259.75 363.869 258.637 365.111 256.838 365.111ZM256.838 364.209C258.033 364.209 258.707 363.336 258.707 361.848V361.836C258.707 360.342 258.033 359.475 256.838 359.475C255.643 359.475 254.969 360.342 254.969 361.836V361.848C254.969 363.336 255.643 364.209 256.838 364.209ZM263.447 365.111C262.012 365.111 261.273 364.268 261.273 362.773V358.684H262.293V362.527C262.293 363.664 262.703 364.209 263.711 364.209C264.824 364.209 265.416 363.529 265.416 362.422V358.684H266.436V365H265.416V364.057H265.322C265.012 364.73 264.373 365.111 263.447 365.111ZM268.34 365V358.684H269.359V359.621H269.453C269.693 358.959 270.285 358.572 271.141 358.572C271.334 358.572 271.551 358.596 271.65 358.613V359.604C271.439 359.568 271.246 359.545 271.023 359.545C270.051 359.545 269.359 360.16 269.359 361.086V365H268.34ZM276.414 365V356.545H277.469V365H276.414ZM281.828 365.111C280.229 365.111 279.18 363.816 279.18 361.848V361.836C279.18 359.855 280.223 358.572 281.828 358.572C282.695 358.572 283.451 359.006 283.797 359.68H283.891V356.176H284.91V365H283.891V363.992H283.797C283.41 364.695 282.707 365.111 281.828 365.111ZM282.062 364.209C283.211 364.209 283.914 363.307 283.914 361.848V361.836C283.914 360.377 283.211 359.475 282.062 359.475C280.908 359.475 280.223 360.365 280.223 361.836V361.848C280.223 363.318 280.908 364.209 282.062 364.209ZM286.996 365V356.545H290.184C291.771 356.545 292.896 357.641 292.896 359.246V359.258C292.896 360.863 291.771 361.982 290.184 361.982H288.051V365H286.996ZM289.914 357.482H288.051V361.045H289.914C291.121 361.045 291.818 360.383 291.818 359.27V359.258C291.818 358.145 291.121 357.482 289.914 357.482ZM300.039 365.111C298.633 365.111 297.666 364.432 297.549 363.389H298.592C298.762 363.916 299.266 364.262 300.074 364.262C300.924 364.262 301.527 363.857 301.527 363.283V363.271C301.527 362.844 301.205 362.545 300.426 362.357L299.447 362.123C298.264 361.842 297.73 361.326 297.73 360.418V360.412C297.73 359.363 298.738 358.572 300.08 358.572C301.404 358.572 302.324 359.234 302.465 360.266H301.463C301.328 359.768 300.836 359.422 300.074 359.422C299.324 359.422 298.773 359.809 298.773 360.365V360.377C298.773 360.805 299.09 361.074 299.834 361.256L300.807 361.49C301.996 361.777 302.57 362.293 302.57 363.195V363.207C302.57 364.332 301.475 365.111 300.039 365.111ZM306.73 365.111C304.926 365.111 303.836 363.846 303.836 361.865V361.859C303.836 359.908 304.949 358.572 306.666 358.572C308.383 358.572 309.426 359.85 309.426 361.736V362.135H304.879C304.908 363.441 305.629 364.203 306.754 364.203C307.609 364.203 308.137 363.799 308.307 363.418L308.33 363.365H309.35L309.338 363.412C309.121 364.268 308.219 365.111 306.73 365.111ZM306.66 359.48C305.723 359.48 305.008 360.119 304.896 361.32H308.389C308.283 360.072 307.592 359.48 306.66 359.48ZM311.008 365V358.684H312.027V359.621H312.121C312.361 358.959 312.953 358.572 313.809 358.572C314.002 358.572 314.219 358.596 314.318 358.613V359.604C314.107 359.568 313.914 359.545 313.691 359.545C312.719 359.545 312.027 360.16 312.027 361.086V365H311.008ZM317.424 365L315.086 358.684H316.164L317.893 363.887H317.986L319.715 358.684H320.793L318.455 365H317.424ZM322.68 357.465C322.293 357.465 321.977 357.148 321.977 356.762C321.977 356.375 322.293 356.059 322.68 356.059C323.066 356.059 323.383 356.375 323.383 356.762C323.383 357.148 323.066 357.465 322.68 357.465ZM322.164 365V358.684H323.184V365H322.164ZM327.689 365.111C325.92 365.111 324.789 363.828 324.789 361.824V361.812C324.789 359.85 325.914 358.572 327.684 358.572C329.219 358.572 330.139 359.457 330.326 360.582L330.332 360.617H329.318L329.312 360.6C329.154 359.979 328.592 359.475 327.684 359.475C326.547 359.475 325.832 360.389 325.832 361.812V361.824C325.832 363.277 326.559 364.209 327.684 364.209C328.533 364.209 329.072 363.834 329.307 363.131L329.318 363.096L330.326 363.09L330.314 363.154C330.057 364.297 329.207 365.111 327.689 365.111ZM334.398 365.111C332.594 365.111 331.504 363.846 331.504 361.865V361.859C331.504 359.908 332.617 358.572 334.334 358.572C336.051 358.572 337.094 359.85 337.094 361.736V362.135H332.547C332.576 363.441 333.297 364.203 334.422 364.203C335.277 364.203 335.805 363.799 335.975 363.418L335.998 363.365H337.018L337.006 363.412C336.789 364.268 335.887 365.111 334.398 365.111ZM334.328 359.48C333.391 359.48 332.676 360.119 332.564 361.32H336.057C335.951 360.072 335.26 359.48 334.328 359.48ZM342.051 367.109V358.684H343.07V359.691H343.164C343.551 358.988 344.254 358.572 345.133 358.572C346.732 358.572 347.781 359.867 347.781 361.836V361.848C347.781 363.828 346.738 365.111 345.133 365.111C344.266 365.111 343.51 364.678 343.164 364.004H343.07V367.109H342.051ZM344.898 364.209C346.053 364.209 346.738 363.318 346.738 361.848V361.836C346.738 360.365 346.053 359.475 344.898 359.475C343.75 359.475 343.047 360.377 343.047 361.836V361.848C343.047 363.307 343.75 364.209 344.898 364.209ZM349.375 365V358.684H350.395V359.621H350.488C350.729 358.959 351.32 358.572 352.176 358.572C352.369 358.572 352.586 358.596 352.686 358.613V359.604C352.475 359.568 352.281 359.545 352.059 359.545C351.086 359.545 350.395 360.16 350.395 361.086V365H349.375ZM356.365 365.111C354.566 365.111 353.453 363.869 353.453 361.848V361.836C353.453 359.809 354.566 358.572 356.365 358.572C358.164 358.572 359.277 359.809 359.277 361.836V361.848C359.277 363.869 358.164 365.111 356.365 365.111ZM356.365 364.209C357.561 364.209 358.234 363.336 358.234 361.848V361.836C358.234 360.342 357.561 359.475 356.365 359.475C355.17 359.475 354.496 360.342 354.496 361.836V361.848C354.496 363.336 355.17 364.209 356.365 364.209ZM362.412 365L360.074 358.684H361.152L362.881 363.887H362.975L364.703 358.684H365.781L363.443 365H362.412ZM367.668 357.465C367.281 357.465 366.965 357.148 366.965 356.762C366.965 356.375 367.281 356.059 367.668 356.059C368.055 356.059 368.371 356.375 368.371 356.762C368.371 357.148 368.055 357.465 367.668 357.465ZM367.152 365V358.684H368.172V365H367.152ZM372.426 365.111C370.826 365.111 369.777 363.816 369.777 361.848V361.836C369.777 359.855 370.82 358.572 372.426 358.572C373.293 358.572 374.049 359.006 374.395 359.68H374.488V356.176H375.508V365H374.488V363.992H374.395C374.008 364.695 373.305 365.111 372.426 365.111ZM372.66 364.209C373.809 364.209 374.512 363.307 374.512 361.848V361.836C374.512 360.377 373.809 359.475 372.66 359.475C371.506 359.475 370.82 360.365 370.82 361.836V361.848C370.82 363.318 371.506 364.209 372.66 364.209ZM380.043 365.111C378.238 365.111 377.148 363.846 377.148 361.865V361.859C377.148 359.908 378.262 358.572 379.979 358.572C381.695 358.572 382.738 359.85 382.738 361.736V362.135H378.191C378.221 363.441 378.941 364.203 380.066 364.203C380.922 364.203 381.449 363.799 381.619 363.418L381.643 363.365H382.662L382.65 363.412C382.434 364.268 381.531 365.111 380.043 365.111ZM379.973 359.48C379.035 359.48 378.32 360.119 378.209 361.32H381.701C381.596 360.072 380.904 359.48 379.973 359.48ZM384.32 365V358.684H385.34V359.621H385.434C385.674 358.959 386.266 358.572 387.121 358.572C387.314 358.572 387.531 358.596 387.631 358.613V359.604C387.42 359.568 387.227 359.545 387.004 359.545C386.031 359.545 385.34 360.16 385.34 361.086V365H384.32ZM390.941 365.111C389.535 365.111 388.568 364.432 388.451 363.389H389.494C389.664 363.916 390.168 364.262 390.977 364.262C391.826 364.262 392.43 363.857 392.43 363.283V363.271C392.43 362.844 392.107 362.545 391.328 362.357L390.35 362.123C389.166 361.842 388.633 361.326 388.633 360.418V360.412C388.633 359.363 389.641 358.572 390.982 358.572C392.307 358.572 393.227 359.234 393.367 360.266H392.365C392.23 359.768 391.738 359.422 390.977 359.422C390.227 359.422 389.676 359.809 389.676 360.365V360.377C389.676 360.805 389.992 361.074 390.736 361.256L391.709 361.49C392.898 361.777 393.473 362.293 393.473 363.195V363.207C393.473 364.332 392.377 365.111 390.941 365.111ZM401.014 365.111C399.244 365.111 398.113 363.828 398.113 361.824V361.812C398.113 359.85 399.238 358.572 401.008 358.572C402.543 358.572 403.463 359.457 403.65 360.582L403.656 360.617H402.643L402.637 360.6C402.479 359.979 401.916 359.475 401.008 359.475C399.871 359.475 399.156 360.389 399.156 361.812V361.824C399.156 363.277 399.883 364.209 401.008 364.209C401.857 364.209 402.396 363.834 402.631 363.131L402.643 363.096L403.65 363.09L403.639 363.154C403.381 364.297 402.531 365.111 401.014 365.111ZM407.74 365.111C405.941 365.111 404.828 363.869 404.828 361.848V361.836C404.828 359.809 405.941 358.572 407.74 358.572C409.539 358.572 410.652 359.809 410.652 361.836V361.848C410.652 363.869 409.539 365.111 407.74 365.111ZM407.74 364.209C408.936 364.209 409.609 363.336 409.609 361.848V361.836C409.609 360.342 408.936 359.475 407.74 359.475C406.545 359.475 405.871 360.342 405.871 361.836V361.848C405.871 363.336 406.545 364.209 407.74 364.209ZM412.234 365V358.684H413.254V359.633H413.348C413.664 358.965 414.256 358.572 415.188 358.572C416.605 358.572 417.396 359.41 417.396 360.91V365H416.377V361.156C416.377 360.02 415.908 359.475 414.9 359.475C413.893 359.475 413.254 360.154 413.254 361.262V365H412.234ZM421.41 365.111C420.004 365.111 419.037 364.432 418.92 363.389H419.963C420.133 363.916 420.637 364.262 421.445 364.262C422.295 364.262 422.898 363.857 422.898 363.283V363.271C422.898 362.844 422.576 362.545 421.797 362.357L420.818 362.123C419.635 361.842 419.102 361.326 419.102 360.418V360.412C419.102 359.363 420.109 358.572 421.451 358.572C422.775 358.572 423.695 359.234 423.836 360.266H422.834C422.699 359.768 422.207 359.422 421.445 359.422C420.695 359.422 420.145 359.809 420.145 360.365V360.377C420.145 360.805 420.461 361.074 421.205 361.256L422.178 361.49C423.367 361.777 423.941 362.293 423.941 363.195V363.207C423.941 364.332 422.846 365.111 421.41 365.111ZM428.119 365.111C426.32 365.111 425.207 363.869 425.207 361.848V361.836C425.207 359.809 426.32 358.572 428.119 358.572C429.918 358.572 431.031 359.809 431.031 361.836V361.848C431.031 363.869 429.918 365.111 428.119 365.111ZM428.119 364.209C429.314 364.209 429.988 363.336 429.988 361.848V361.836C429.988 360.342 429.314 359.475 428.119 359.475C426.924 359.475 426.25 360.342 426.25 361.836V361.848C426.25 363.336 426.924 364.209 428.119 364.209ZM432.672 365V356.176H433.691V365H432.672ZM438.227 365.111C436.422 365.111 435.332 363.846 435.332 361.865V361.859C435.332 359.908 436.445 358.572 438.162 358.572C439.879 358.572 440.922 359.85 440.922 361.736V362.135H436.375C436.404 363.441 437.125 364.203 438.25 364.203C439.105 364.203 439.633 363.799 439.803 363.418L439.826 363.365H440.846L440.834 363.412C440.617 364.268 439.715 365.111 438.227 365.111ZM438.156 359.48C437.219 359.48 436.504 360.119 436.393 361.32H439.885C439.779 360.072 439.088 359.48 438.156 359.48ZM443.336 365.059C442.92 365.059 442.574 364.713 442.574 364.297C442.574 363.875 442.92 363.535 443.336 363.535C443.758 363.535 444.098 363.875 444.098 364.297C444.098 364.713 443.758 365.059 443.336 365.059Z" fill="#6A7585"/>
<path d="M148.472 404L152.108 394.136H153.325L156.962 404H155.67L154.679 401.177H150.755L149.764 404H148.472ZM152.662 395.729L151.117 400.131H154.316L152.771 395.729H152.662ZM158.691 404V394.136H162.41C164.263 394.136 165.575 395.414 165.575 397.287V397.301C165.575 399.174 164.263 400.479 162.41 400.479H159.922V404H158.691ZM162.096 395.229H159.922V399.386H162.096C163.504 399.386 164.317 398.613 164.317 397.314V397.301C164.317 396.002 163.504 395.229 162.096 395.229ZM167.592 404V394.136H168.822V404H167.592ZM175.193 404V393.705H176.383V399.851H176.492L179.678 396.631H181.12L177.907 399.728L181.332 404H179.835L177.073 400.534L176.383 401.204V404H175.193ZM185.393 404.13C183.287 404.13 182.016 402.653 182.016 400.343V400.336C182.016 398.06 183.314 396.501 185.317 396.501C187.32 396.501 188.537 397.991 188.537 400.192V400.657H183.232C183.267 402.182 184.107 403.07 185.42 403.07C186.418 403.07 187.033 402.599 187.231 402.154L187.259 402.093H188.448L188.435 402.147C188.182 403.146 187.129 404.13 185.393 404.13ZM185.311 397.561C184.217 397.561 183.383 398.306 183.253 399.707H187.327C187.204 398.251 186.397 397.561 185.311 397.561ZM190.875 406.584C190.718 406.584 190.513 406.57 190.349 406.543V405.565C190.492 405.593 190.677 405.6 190.841 405.6C191.518 405.6 191.928 405.292 192.194 404.444L192.331 404.007L189.604 396.631H190.875L192.898 402.694H193.008L195.024 396.631H196.275L193.397 404.451C192.789 406.105 192.181 406.584 190.875 406.584ZM204.403 404.055C202.886 404.055 202.25 403.494 202.25 402.086V397.615H201.088V396.631H202.25V394.724H203.48V396.631H205.094V397.615H203.48V401.785C203.48 402.653 203.781 403.002 204.547 403.002C204.759 403.002 204.875 402.995 205.094 402.975V403.986C204.861 404.027 204.636 404.055 204.403 404.055ZM209.79 404.13C207.691 404.13 206.393 402.681 206.393 400.322V400.309C206.393 397.943 207.691 396.501 209.79 396.501C211.889 396.501 213.188 397.943 213.188 400.309V400.322C213.188 402.681 211.889 404.13 209.79 404.13ZM209.79 403.077C211.185 403.077 211.971 402.059 211.971 400.322V400.309C211.971 398.565 211.185 397.554 209.79 397.554C208.396 397.554 207.609 398.565 207.609 400.309V400.322C207.609 402.059 208.396 403.077 209.79 403.077ZM221.5 404.13C219.859 404.13 218.731 403.337 218.595 402.12H219.812C220.01 402.735 220.598 403.139 221.541 403.139C222.532 403.139 223.236 402.667 223.236 401.997V401.983C223.236 401.484 222.86 401.136 221.951 400.917L220.81 400.644C219.429 400.315 218.807 399.714 218.807 398.654V398.647C218.807 397.424 219.982 396.501 221.548 396.501C223.093 396.501 224.166 397.273 224.33 398.477H223.161C223.004 397.896 222.43 397.492 221.541 397.492C220.666 397.492 220.023 397.943 220.023 398.593V398.606C220.023 399.105 220.393 399.42 221.261 399.632L222.396 399.905C223.783 400.24 224.453 400.842 224.453 401.895V401.908C224.453 403.221 223.175 404.13 221.5 404.13ZM229.307 404.13C227.201 404.13 225.93 402.653 225.93 400.343V400.336C225.93 398.06 227.229 396.501 229.231 396.501C231.234 396.501 232.451 397.991 232.451 400.192V400.657H227.146C227.181 402.182 228.021 403.07 229.334 403.07C230.332 403.07 230.947 402.599 231.146 402.154L231.173 402.093H232.362L232.349 402.147C232.096 403.146 231.043 404.13 229.307 404.13ZM229.225 397.561C228.131 397.561 227.297 398.306 227.167 399.707H231.241C231.118 398.251 230.312 397.561 229.225 397.561ZM236.915 404.055C235.397 404.055 234.762 403.494 234.762 402.086V397.615H233.6V396.631H234.762V394.724H235.992V396.631H237.605V397.615H235.992V401.785C235.992 402.653 236.293 403.002 237.059 403.002C237.271 403.002 237.387 402.995 237.605 402.975V403.986C237.373 404.027 237.147 404.055 236.915 404.055ZM241.851 404.13C240.176 404.13 239.314 403.146 239.314 401.402V396.631H240.504V401.115C240.504 402.441 240.982 403.077 242.158 403.077C243.457 403.077 244.147 402.284 244.147 400.992V396.631H245.337V404H244.147V402.899H244.038C243.676 403.686 242.931 404.13 241.851 404.13ZM247.559 406.461V396.631H248.748V397.807H248.857C249.309 396.986 250.129 396.501 251.154 396.501C253.021 396.501 254.244 398.012 254.244 400.309V400.322C254.244 402.633 253.027 404.13 251.154 404.13C250.143 404.13 249.261 403.624 248.857 402.838H248.748V406.461H247.559ZM250.881 403.077C252.228 403.077 253.027 402.038 253.027 400.322V400.309C253.027 398.593 252.228 397.554 250.881 397.554C249.541 397.554 248.721 398.606 248.721 400.309V400.322C248.721 402.024 249.541 403.077 250.881 403.077ZM263.425 404.232C261.265 404.232 259.87 403.098 259.727 401.491L259.72 401.416H260.95L260.957 401.491C261.046 402.476 262.071 403.098 263.493 403.098C264.833 403.098 265.811 402.407 265.811 401.402V401.396C265.811 400.575 265.243 400.015 263.89 399.714L262.796 399.475C260.82 399.037 259.966 398.128 259.966 396.699V396.692C259.973 395.059 261.401 393.903 263.438 393.903C265.407 393.903 266.781 395.065 266.884 396.535L266.891 396.631H265.66L265.646 396.542C265.51 395.674 264.689 395.031 263.404 395.038C262.174 395.045 261.224 395.626 261.224 396.658V396.665C261.224 397.451 261.764 397.984 263.104 398.278L264.197 398.524C266.255 398.982 267.068 399.81 267.068 401.231V401.238C267.068 403.084 265.626 404.232 263.425 404.232ZM273.091 404.232C270.411 404.232 268.736 402.25 268.736 399.078V399.064C268.736 395.886 270.404 393.903 273.084 393.903C275.162 393.903 276.782 395.209 277.076 397.103L277.069 397.116H275.832L275.825 397.103C275.497 395.838 274.444 395.038 273.084 395.038C271.19 395.038 270.001 396.597 270.001 399.064V399.078C270.001 401.546 271.19 403.098 273.091 403.098C274.465 403.098 275.511 402.394 275.818 401.259L275.832 401.245H277.076V401.259C276.748 403.063 275.189 404.232 273.091 404.232ZM279.141 404V394.136H280.371V404H279.141ZM282.887 404V394.136H284.315L287.692 402.366H287.802L291.179 394.136H292.607V404H291.459V396.467H291.384L288.267 404H287.228L284.11 396.467H284.035V404H282.887Z" fill="#4C5664"/>
<rect x="148.5" y="413.5" width="542" height="31" rx="3.5" fill="white"/>
<g clip-path="url(#clip1_10212_17408)">
<path d="M161.379 428.914L165.304 424.989L166.011 425.696L165.304 426.404L166.541 427.641L165.834 428.348L164.596 427.111L163.889 427.818L164.95 428.878L164.243 429.586L163.182 428.525L162.086 429.621C162.426 430.138 162.563 430.763 162.469 431.374C162.375 431.986 162.058 432.541 161.579 432.933C161.099 433.324 160.492 433.524 159.874 433.494C159.256 433.463 158.671 433.204 158.232 432.768C157.793 432.33 157.532 431.744 157.5 431.125C157.468 430.505 157.668 429.896 158.06 429.415C158.453 428.935 159.01 428.617 159.623 428.525C160.236 428.432 160.862 428.571 161.379 428.914ZM161.061 432.06C161.206 431.922 161.323 431.757 161.403 431.573C161.484 431.39 161.527 431.192 161.53 430.991C161.533 430.791 161.495 430.592 161.42 430.406C161.344 430.22 161.232 430.052 161.091 429.91C160.949 429.768 160.78 429.656 160.594 429.581C160.409 429.505 160.21 429.468 160.009 429.471C159.809 429.473 159.611 429.516 159.427 429.597C159.243 429.678 159.078 429.794 158.94 429.94C158.667 430.223 158.516 430.602 158.519 430.995C158.523 431.388 158.68 431.764 158.958 432.042C159.237 432.321 159.613 432.478 160.006 432.482C160.399 432.485 160.778 432.334 161.061 432.061L161.061 432.06Z" fill="#4C5664"/>
</g>
<g clip-path="url(#clip2_10212_17408)">
<rect x="176" y="421.5" width="227" height="15" fill="#CDD5DF"/>
</g>
<g clip-path="url(#clip3_10212_17408)">
<path d="M671.667 425V423C671.667 422.823 671.737 422.653 671.862 422.528C671.987 422.403 672.157 422.333 672.333 422.333H680.333C680.51 422.333 680.68 422.403 680.805 422.528C680.93 422.653 681 422.823 681 423V432.333C681 432.51 680.93 432.679 680.805 432.804C680.68 432.929 680.51 433 680.333 433H678.333V435C678.333 435.368 678.033 435.666 677.662 435.666H669.671C669.583 435.667 669.496 435.65 669.415 435.617C669.333 435.584 669.259 435.534 669.197 435.473C669.135 435.411 669.085 435.337 669.051 435.256C669.018 435.175 669 435.088 669 435L669.002 425.666C669.002 425.298 669.302 425 669.673 425H671.667ZM670.335 426.333L670.333 434.333H677V426.333H670.335ZM673 425H678.333V431.666H679.667V423.666H673V425Z" fill="#4C5664"/>
</g>
<rect x="148.5" y="413.5" width="542" height="31" rx="3.5" stroke="#CDD5DF"/>
<path d="M155.957 88.4219C152.031 88.4219 149.535 86.4883 149.324 83.5703L149.312 83.4062H152.242L152.254 83.5234C152.395 84.9414 153.906 85.8789 156.051 85.8789C158.09 85.8789 159.52 84.8711 159.52 83.418V83.4062C159.52 82.1875 158.641 81.4492 156.461 80.9805L154.645 80.6055C151.188 79.8789 149.688 78.2617 149.688 75.7422V75.7305C149.688 72.707 152.289 70.668 155.945 70.668C159.695 70.668 162.027 72.7188 162.238 75.4375L162.25 75.5898H159.355L159.332 75.4492C159.121 74.1367 157.867 73.1992 155.934 73.2109C154.059 73.2109 152.723 74.0898 152.723 75.5312V75.543C152.723 76.7383 153.578 77.4883 155.688 77.9336L157.504 78.3203C161.066 79.0703 162.555 80.5 162.555 83.0547V83.0664C162.555 86.3594 160.012 88.4219 155.957 88.4219ZM166.3 92.5C165.948 92.5 165.538 92.4883 165.186 92.4531V90.2148C165.421 90.2383 165.749 90.25 166.053 90.25C167.249 90.25 167.964 89.7578 168.28 88.5977L168.432 88.0117L163.85 75.1914H167.038L170.026 85.1992H170.249L173.225 75.1914H176.296L171.702 88.2695C170.6 91.4805 169.135 92.5 166.3 92.5ZM182.572 88.2578C179.314 88.2578 177.345 86.7578 177.099 84.5898V84.5664H179.994L180.005 84.5898C180.31 85.4805 181.165 86.1016 182.619 86.1016C184.072 86.1016 185.08 85.4453 185.08 84.4844V84.4609C185.08 83.7109 184.517 83.2188 183.111 82.9023L181.037 82.4336C178.599 81.8945 177.439 80.7461 177.439 78.8594V78.8477C177.439 76.5391 179.548 74.9453 182.572 74.9453C185.689 74.9453 187.552 76.4922 187.74 78.5664V78.5898H184.997L184.986 78.5547C184.775 77.7461 183.931 77.0898 182.56 77.0898C181.259 77.0898 180.322 77.7227 180.322 78.6836V78.6953C180.322 79.4453 180.861 79.9023 182.244 80.2188L184.318 80.6758C186.826 81.2383 188.009 82.3047 188.009 84.168V84.1914C188.009 86.6289 185.724 88.2578 182.572 88.2578ZM195.176 88.0586C192.235 88.0586 191.028 87.0742 191.028 84.6016V77.4531H189.035V75.1914H191.028V72.0508H193.992V75.1914H196.699V77.4531H193.992V83.9102C193.992 85.1875 194.496 85.7266 195.715 85.7266C196.125 85.7266 196.348 85.7148 196.699 85.6797V87.9297C196.278 88.0117 195.738 88.0586 195.176 88.0586ZM204.253 88.2578C200.444 88.2578 198.136 85.7031 198.136 81.625V81.6133C198.136 77.582 200.468 74.9453 204.112 74.9453C207.757 74.9453 210.007 77.5 210.007 81.3672V82.3281H201.054C201.089 84.625 202.331 85.9609 204.311 85.9609C205.893 85.9609 206.796 85.1641 207.077 84.5781L207.112 84.4961H209.89L209.854 84.6016C209.444 86.2539 207.733 88.2578 204.253 88.2578ZM204.147 77.2305C202.518 77.2305 201.3 78.332 201.077 80.3711H207.159C206.96 78.2734 205.776 77.2305 204.147 77.2305ZM212.205 88V75.1914H215.123V77.1836H215.322C215.873 75.7539 217.162 74.9453 218.838 74.9453C220.572 74.9453 221.838 75.8359 222.388 77.2539H222.588C223.209 75.8594 224.685 74.9453 226.466 74.9453C229.045 74.9453 230.591 76.5273 230.591 79.1875V88H227.673V79.9023C227.673 78.2383 226.912 77.3945 225.353 77.3945C223.83 77.3945 222.845 78.5312 222.845 79.9961V88H219.927V79.6914C219.927 78.2734 219.048 77.3945 217.619 77.3945C216.177 77.3945 215.123 78.6133 215.123 80.207V88H212.205ZM239.944 88V77.4531H237.847V75.1914H239.944V73.9258C239.944 71.3711 241.233 70.1172 244.093 70.1172C244.714 70.1172 245.241 70.1523 245.71 70.2344V72.2734C245.487 72.2383 245.124 72.2148 244.714 72.2148C243.343 72.2148 242.815 72.8711 242.815 74.0898V75.1914H245.593V77.4531H242.862V88H239.944ZM252.748 88.2578C248.904 88.2578 246.584 85.75 246.584 81.6016V81.5781C246.584 77.4648 248.939 74.9453 252.748 74.9453C256.568 74.9453 258.912 77.4531 258.912 81.5781V81.6016C258.912 85.75 256.58 88.2578 252.748 88.2578ZM252.748 85.8906C254.775 85.8906 255.924 84.3086 255.924 81.6133V81.5898C255.924 78.8945 254.763 77.3008 252.748 77.3008C250.72 77.3008 249.56 78.8945 249.56 81.5898V81.6133C249.56 84.3086 250.72 85.8906 252.748 85.8906ZM261.122 88V75.1914H264.04V77.1602H264.239C264.672 75.7891 265.844 74.9805 267.532 74.9805C267.977 74.9805 268.434 75.0391 268.715 75.1211V77.7344C268.247 77.6406 267.766 77.5703 267.262 77.5703C265.317 77.5703 264.04 78.7305 264.04 80.5586V88H261.122ZM283.424 88.4219C278.631 88.4219 275.654 85.0234 275.654 79.5625V79.5391C275.654 74.0547 278.619 70.668 283.412 70.668C287.256 70.668 290.174 73.1055 290.572 76.5625V76.6562H287.607L287.596 76.6094C287.162 74.6055 285.545 73.2812 283.412 73.2812C280.541 73.2812 278.748 75.6836 278.748 79.5273V79.5508C278.748 83.4062 280.541 85.8086 283.424 85.8086C285.568 85.8086 287.162 84.6133 287.596 82.75L287.607 82.6914H290.572V82.7734C290.127 86.1602 287.326 88.4219 283.424 88.4219ZM292.923 88V75.1914H295.84V77.1602H296.04C296.473 75.7891 297.645 74.9805 299.333 74.9805C299.778 74.9805 300.235 75.0391 300.516 75.1211V77.7344C300.048 77.6406 299.567 77.5703 299.063 77.5703C297.118 77.5703 295.84 78.7305 295.84 80.5586V88H292.923ZM307.39 88.2578C303.546 88.2578 301.226 85.75 301.226 81.6016V81.5781C301.226 77.4648 303.581 74.9453 307.39 74.9453C311.21 74.9453 313.554 77.4531 313.554 81.5781V81.6016C313.554 85.75 311.222 88.2578 307.39 88.2578ZM307.39 85.8906C309.417 85.8906 310.566 84.3086 310.566 81.6133V81.5898C310.566 78.8945 309.406 77.3008 307.39 77.3008C305.363 77.3008 304.202 78.8945 304.202 81.5898V81.6133C304.202 84.3086 305.363 85.8906 307.39 85.8906ZM320.604 88.2578C317.346 88.2578 315.377 86.7578 315.131 84.5898V84.5664H318.025L318.037 84.5898C318.342 85.4805 319.197 86.1016 320.65 86.1016C322.104 86.1016 323.111 85.4453 323.111 84.4844V84.4609C323.111 83.7109 322.549 83.2188 321.143 82.9023L319.068 82.4336C316.631 81.8945 315.471 80.7461 315.471 78.8594V78.8477C315.471 76.5391 317.58 74.9453 320.604 74.9453C323.721 74.9453 325.584 76.4922 325.772 78.5664V78.5898H323.029L323.018 78.5547C322.807 77.7461 321.963 77.0898 320.592 77.0898C319.291 77.0898 318.354 77.7227 318.354 78.6836V78.6953C318.354 79.4453 318.893 79.9023 320.275 80.2188L322.35 80.6758C324.857 81.2383 326.041 82.3047 326.041 84.168V84.1914C326.041 86.6289 323.756 88.2578 320.604 88.2578ZM332.868 88.2578C329.61 88.2578 327.641 86.7578 327.395 84.5898V84.5664H330.29L330.302 84.5898C330.606 85.4805 331.462 86.1016 332.915 86.1016C334.368 86.1016 335.376 85.4453 335.376 84.4844V84.4609C335.376 83.7109 334.813 83.2188 333.407 82.9023L331.333 82.4336C328.895 81.8945 327.735 80.7461 327.735 78.8594V78.8477C327.735 76.5391 329.845 74.9453 332.868 74.9453C335.985 74.9453 337.848 76.4922 338.036 78.5664V78.5898H335.294L335.282 78.5547C335.071 77.7461 334.227 77.0898 332.856 77.0898C331.555 77.0898 330.618 77.7227 330.618 78.6836V78.6953C330.618 79.4453 331.157 79.9023 332.54 80.2188L334.614 80.6758C337.122 81.2383 338.305 82.3047 338.305 84.168V84.1914C338.305 86.6289 336.02 88.2578 332.868 88.2578ZM340.585 82.5039V79.8555H348.414V82.5039H340.585ZM355.955 88.2109C352.744 88.2109 350.705 85.668 350.705 81.6133V81.5898C350.705 77.5117 352.709 74.9805 355.955 74.9805C357.713 74.9805 359.178 75.8477 359.846 77.2305H360.045V70.2344H362.975V88H360.045V85.9961H359.846C359.143 87.3906 357.76 88.2109 355.955 88.2109ZM356.869 85.75C358.862 85.75 360.092 84.1797 360.092 81.6133V81.5898C360.092 79.0234 358.85 77.4414 356.869 77.4414C354.889 77.4414 353.67 79.0117 353.67 81.5898V81.6133C353.67 84.1914 354.877 85.75 356.869 85.75ZM371.454 88.2578C367.61 88.2578 365.29 85.75 365.29 81.6016V81.5781C365.29 77.4648 367.645 74.9453 371.454 74.9453C375.274 74.9453 377.618 77.4531 377.618 81.5781V81.6016C377.618 85.75 375.286 88.2578 371.454 88.2578ZM371.454 85.8906C373.481 85.8906 374.63 84.3086 374.63 81.6133V81.5898C374.63 78.8945 373.47 77.3008 371.454 77.3008C369.427 77.3008 368.267 78.8945 368.267 81.5898V81.6133C368.267 84.3086 369.427 85.8906 371.454 85.8906ZM379.828 88V75.1914H382.746V77.1836H382.945C383.496 75.7539 384.785 74.9453 386.461 74.9453C388.195 74.9453 389.461 75.8359 390.011 77.2539H390.211C390.832 75.8594 392.308 74.9453 394.09 74.9453C396.668 74.9453 398.215 76.5273 398.215 79.1875V88H395.297V79.9023C395.297 78.2383 394.535 77.3945 392.976 77.3945C391.453 77.3945 390.468 78.5312 390.468 79.9961V88H387.55V79.6914C387.55 78.2734 386.672 77.3945 385.242 77.3945C383.8 77.3945 382.746 78.6133 382.746 80.207V88H379.828ZM404.444 88.2109C402.006 88.2109 400.237 86.7109 400.237 84.3789V84.3555C400.237 82.0703 401.983 80.7344 405.1 80.5469L408.393 80.3477V79.2461C408.393 77.9688 407.561 77.2656 405.991 77.2656C404.655 77.2656 403.788 77.7461 403.495 78.5898L403.483 78.6367H400.729L400.741 78.5312C401.022 76.375 403.084 74.9453 406.131 74.9453C409.424 74.9453 411.276 76.5391 411.276 79.2461V88H408.393V86.2422H408.194C407.491 87.4844 406.131 88.2109 404.444 88.2109ZM403.12 84.2383C403.12 85.3281 404.045 85.9727 405.334 85.9727C407.092 85.9727 408.393 84.8242 408.393 83.3008V82.2695L405.51 82.457C403.881 82.5625 403.12 83.1602 403.12 84.2148V84.2383ZM415.56 73.0469C414.599 73.0469 413.814 72.2852 413.814 71.3242C413.814 70.375 414.599 69.6016 415.56 69.6016C416.509 69.6016 417.294 70.375 417.294 71.3242C417.294 72.2852 416.509 73.0469 415.56 73.0469ZM414.095 88V75.1914H417.013V88H414.095ZM419.879 88V75.1914H422.797V77.1484H422.996C423.605 75.7773 424.836 74.9453 426.687 74.9453C429.547 74.9453 431.105 76.668 431.105 79.7148V88H428.187V80.3945C428.187 78.4023 427.379 77.3945 425.609 77.3945C423.875 77.3945 422.797 78.6133 422.797 80.5352V88H419.879ZM439.814 88V71.0898H442.837V88H439.814ZM450.602 88.2109C447.391 88.2109 445.352 85.668 445.352 81.6133V81.5898C445.352 77.5117 447.355 74.9805 450.602 74.9805C452.359 74.9805 453.824 75.8477 454.492 77.2305H454.691V70.2344H457.621V88H454.691V85.9961H454.492C453.789 87.3906 452.406 88.2109 450.602 88.2109ZM451.516 85.75C453.508 85.75 454.738 84.1797 454.738 81.6133V81.5898C454.738 79.0234 453.496 77.4414 451.516 77.4414C449.535 77.4414 448.316 79.0117 448.316 81.5898V81.6133C448.316 84.1914 449.523 85.75 451.516 85.75ZM466.053 88.2578C462.245 88.2578 459.936 85.7031 459.936 81.625V81.6133C459.936 77.582 462.268 74.9453 465.913 74.9453C469.557 74.9453 471.807 77.5 471.807 81.3672V82.3281H462.854C462.889 84.625 464.132 85.9609 466.112 85.9609C467.694 85.9609 468.596 85.1641 468.878 84.5781L468.913 84.4961H471.69L471.655 84.6016C471.245 86.2539 469.534 88.2578 466.053 88.2578ZM465.948 77.2305C464.319 77.2305 463.1 78.332 462.878 80.3711H468.96C468.76 78.2734 467.577 77.2305 465.948 77.2305ZM474.005 88V75.1914H476.923V77.1484H477.122C477.732 75.7773 478.962 74.9453 480.814 74.9453C483.673 74.9453 485.232 76.668 485.232 79.7148V88H482.314V80.3945C482.314 78.4023 481.505 77.3945 479.736 77.3945C478.001 77.3945 476.923 78.6133 476.923 80.5352V88H474.005ZM492.996 88.0586C490.055 88.0586 488.848 87.0742 488.848 84.6016V77.4531H486.856V75.1914H488.848V72.0508H491.813V75.1914H494.52V77.4531H491.813V83.9102C491.813 85.1875 492.317 85.7266 493.535 85.7266C493.945 85.7266 494.168 85.7148 494.52 85.6797V87.9297C494.098 88.0117 493.559 88.0586 492.996 88.0586ZM498.206 73.0469C497.245 73.0469 496.46 72.2852 496.46 71.3242C496.46 70.375 497.245 69.6016 498.206 69.6016C499.155 69.6016 499.94 70.375 499.94 71.3242C499.94 72.2852 499.155 73.0469 498.206 73.0469ZM496.741 88V75.1914H499.659V88H496.741ZM507.564 88.0586C504.623 88.0586 503.416 87.0742 503.416 84.6016V77.4531H501.423V75.1914H503.416V72.0508H506.38V75.1914H509.087V77.4531H506.38V83.9102C506.38 85.1875 506.884 85.7266 508.103 85.7266C508.513 85.7266 508.736 85.7148 509.087 85.6797V87.9297C508.666 88.0117 508.127 88.0586 507.564 88.0586ZM512.645 92.5C512.293 92.5 511.883 92.4883 511.532 92.4531V90.2148C511.766 90.2383 512.094 90.25 512.399 90.25C513.594 90.25 514.309 89.7578 514.625 88.5977L514.778 88.0117L510.196 75.1914H513.383L516.371 85.1992H516.594L519.571 75.1914H522.641L518.047 88.2695C516.946 91.4805 515.481 92.5 512.645 92.5ZM150.086 120V103.09H153.555L158.641 116.098H158.84L163.914 103.09H167.383V120H164.664V107.977H164.453L159.766 120H157.703L153.016 107.977H152.816V120H150.086ZM174.022 120.211C171.585 120.211 169.815 118.711 169.815 116.379V116.355C169.815 114.07 171.561 112.734 174.678 112.547L177.971 112.348V111.246C177.971 109.969 177.139 109.266 175.569 109.266C174.233 109.266 173.366 109.746 173.073 110.59L173.061 110.637H170.307L170.319 110.531C170.6 108.375 172.663 106.945 175.71 106.945C179.003 106.945 180.854 108.539 180.854 111.246V120H177.971V118.242H177.772C177.069 119.484 175.71 120.211 174.022 120.211ZM172.698 116.238C172.698 117.328 173.624 117.973 174.913 117.973C176.671 117.973 177.971 116.824 177.971 115.301V114.27L175.089 114.457C173.46 114.562 172.698 115.16 172.698 116.215V116.238ZM183.638 120V107.191H186.556V109.148H186.755C187.365 107.777 188.595 106.945 190.447 106.945C193.306 106.945 194.865 108.668 194.865 111.715V120H191.947V112.395C191.947 110.402 191.138 109.395 189.369 109.395C187.634 109.395 186.556 110.613 186.556 112.535V120H183.638ZM201.082 120.211C198.645 120.211 196.875 118.711 196.875 116.379V116.355C196.875 114.07 198.621 112.734 201.738 112.547L205.031 112.348V111.246C205.031 109.969 204.199 109.266 202.629 109.266C201.293 109.266 200.426 109.746 200.133 110.59L200.121 110.637H197.367L197.379 110.531C197.66 108.375 199.723 106.945 202.77 106.945C206.063 106.945 207.914 108.539 207.914 111.246V120H205.031V118.242H204.832C204.129 119.484 202.77 120.211 201.082 120.211ZM199.758 116.238C199.758 117.328 200.684 117.973 201.973 117.973C203.731 117.973 205.031 116.824 205.031 115.301V114.27L202.149 114.457C200.52 114.562 199.758 115.16 199.758 116.215V116.238ZM216.206 124.5C212.831 124.5 210.804 123.059 210.511 120.902L210.522 120.867H213.44L213.452 120.902C213.651 121.723 214.624 122.297 216.253 122.297C218.245 122.297 219.405 121.371 219.405 119.73V117.281H219.206C218.468 118.652 217.073 119.402 215.304 119.402C212.057 119.402 210.042 116.895 210.042 113.262V113.238C210.042 109.535 212.057 106.98 215.362 106.98C217.132 106.98 218.515 107.848 219.241 109.301H219.393V107.191H222.311V119.684C222.311 122.637 219.944 124.5 216.206 124.5ZM216.206 117.082C218.233 117.082 219.452 115.523 219.452 113.262V113.238C219.452 110.977 218.222 109.406 216.206 109.406C214.179 109.406 213.03 110.977 213.03 113.238V113.262C213.03 115.523 214.179 117.082 216.206 117.082ZM230.65 120.258C226.841 120.258 224.533 117.703 224.533 113.625V113.613C224.533 109.582 226.865 106.945 230.509 106.945C234.154 106.945 236.404 109.5 236.404 113.367V114.328H227.451C227.486 116.625 228.728 117.961 230.709 117.961C232.291 117.961 233.193 117.164 233.474 116.578L233.509 116.496H236.287L236.252 116.602C235.841 118.254 234.13 120.258 230.65 120.258ZM230.545 109.23C228.916 109.23 227.697 110.332 227.474 112.371H233.556C233.357 110.273 232.173 109.23 230.545 109.23ZM238.602 120V107.191H241.52V109.184H241.719C242.27 107.754 243.559 106.945 245.235 106.945C246.969 106.945 248.235 107.836 248.785 109.254H248.985C249.606 107.859 251.082 106.945 252.864 106.945C255.442 106.945 256.989 108.527 256.989 111.188V120H254.071V111.902C254.071 110.238 253.309 109.395 251.75 109.395C250.227 109.395 249.243 110.531 249.243 111.996V120H246.325V111.691C246.325 110.273 245.446 109.395 244.016 109.395C242.575 109.395 241.52 110.613 241.52 112.207V120H238.602ZM265.21 120.258C261.401 120.258 259.093 117.703 259.093 113.625V113.613C259.093 109.582 261.425 106.945 265.069 106.945C268.714 106.945 270.964 109.5 270.964 113.367V114.328H262.011C262.046 116.625 263.288 117.961 265.269 117.961C266.851 117.961 267.753 117.164 268.034 116.578L268.069 116.496H270.847L270.812 116.602C270.401 118.254 268.69 120.258 265.21 120.258ZM265.105 109.23C263.476 109.23 262.257 110.332 262.034 112.371H268.116C267.917 110.273 266.733 109.23 265.105 109.23ZM273.162 120V107.191H276.08V109.148H276.279C276.888 107.777 278.119 106.945 279.97 106.945C282.83 106.945 284.388 108.668 284.388 111.715V120H281.47V112.395C281.47 110.402 280.662 109.395 278.892 109.395C277.158 109.395 276.08 110.613 276.08 112.535V120H273.162ZM292.153 120.059C289.211 120.059 288.004 119.074 288.004 116.602V109.453H286.012V107.191H288.004V104.051H290.969V107.191H293.676V109.453H290.969V115.91C290.969 117.188 291.473 117.727 292.692 117.727C293.102 117.727 293.325 117.715 293.676 117.68V119.93C293.254 120.012 292.715 120.059 292.153 120.059Z" fill="#202939"/>
<g filter="url(#filter1_d_10212_17408)">
<rect x="64" y="151" width="644" height="114" rx="4" fill="white"/>
</g>
<g clip-path="url(#clip4_10212_17408)">
<path d="M95.5408 183H88.8741C87.9296 183 87.0153 182.667 86.2932 182.058C85.5711 181.449 85.0877 180.604 84.9287 179.673C84.7697 178.742 84.9452 177.785 85.4243 176.971C85.9033 176.157 86.655 175.539 87.5461 175.226C87.5159 174.595 87.6141 173.964 87.8347 173.372C88.0554 172.781 88.3939 172.24 88.8297 171.783C89.2655 171.325 89.7896 170.961 90.3702 170.713C90.9508 170.464 91.5758 170.336 92.2074 170.336C92.8391 170.336 93.4641 170.464 94.0447 170.713C94.6253 170.961 95.1494 171.325 95.5852 171.783C96.021 172.24 96.3595 172.781 96.5801 173.372C96.8008 173.964 96.899 174.595 96.8688 175.226C97.7599 175.539 98.5116 176.157 98.9906 176.971C99.4697 177.785 99.6452 178.742 99.4862 179.673C99.3271 180.604 98.8438 181.449 98.1216 182.058C97.3995 182.667 96.4853 183 95.5408 183ZM95.5408 175C95.5409 174.555 95.4521 174.115 95.2796 173.705C95.107 173.295 94.8542 172.924 94.5361 172.613C94.2179 172.303 93.8408 172.059 93.427 171.896C93.0131 171.733 92.5709 171.655 92.1264 171.666C91.6819 171.677 91.244 171.777 90.8386 171.959C90.4331 172.142 90.0683 172.404 89.7656 172.729C89.4629 173.055 89.2285 173.438 89.0761 173.856C88.9236 174.274 88.8563 174.718 88.8781 175.162L88.9248 176.154L87.9888 176.483C87.3958 176.693 86.8959 177.105 86.5775 177.648C86.2591 178.19 86.1425 178.828 86.2484 179.448C86.3543 180.068 86.6759 180.63 87.1563 181.036C87.6367 181.442 88.2451 181.665 88.8741 181.666H95.5408C96.0317 181.666 96.513 181.53 96.9317 181.274C97.3504 181.018 97.6903 180.651 97.9139 180.214C98.1375 179.777 98.2361 179.287 98.1989 178.797C98.1617 178.308 97.9901 177.838 97.703 177.44C97.4159 177.042 97.0245 176.731 96.5718 176.541C96.1192 176.351 95.6229 176.289 95.1376 176.364C94.6523 176.438 94.1969 176.644 93.8215 176.96C93.4461 177.277 93.1653 177.691 93.0101 178.156L91.7448 177.734C92.0107 176.938 92.5203 176.245 93.2015 175.755C93.8828 175.264 94.7011 175 95.5408 175Z" fill="#059669"/>
</g>
<path d="M114.301 183.281C111.106 183.281 109.122 181.016 109.122 177.375V177.359C109.122 173.703 111.098 171.445 114.293 171.445C116.856 171.445 118.801 173.07 119.067 175.375V175.438H117.09L117.083 175.406C116.793 174.07 115.715 173.188 114.293 173.188C112.379 173.188 111.184 174.789 111.184 177.352V177.367C111.184 179.938 112.379 181.539 114.301 181.539C115.731 181.539 116.793 180.742 117.083 179.5L117.09 179.461H119.067V179.516C118.77 181.773 116.903 183.281 114.301 183.281ZM124.801 183.172C122.239 183.172 120.692 181.5 120.692 178.734V178.719C120.692 175.977 122.262 174.297 124.801 174.297C127.348 174.297 128.911 175.969 128.911 178.719V178.734C128.911 181.5 127.356 183.172 124.801 183.172ZM124.801 181.594C126.153 181.594 126.918 180.539 126.918 178.742V178.727C126.918 176.93 126.145 175.867 124.801 175.867C123.45 175.867 122.676 176.93 122.676 178.727V178.742C122.676 180.539 123.45 181.594 124.801 181.594ZM130.864 183V174.461H132.809V175.766H132.942C133.348 174.852 134.168 174.297 135.403 174.297C137.309 174.297 138.348 175.445 138.348 177.477V183H136.403V177.93C136.403 176.602 135.864 175.93 134.684 175.93C133.528 175.93 132.809 176.742 132.809 178.023V183H130.864ZM140.645 183V174.461H142.59V175.766H142.723C143.129 174.852 143.95 174.297 145.184 174.297C147.09 174.297 148.129 175.445 148.129 177.477V183H146.184V177.93C146.184 176.602 145.645 175.93 144.465 175.93C143.309 175.93 142.59 176.742 142.59 178.023V183H140.645ZM154.083 183.172C151.543 183.172 150.004 181.469 150.004 178.75V178.742C150.004 176.055 151.559 174.297 153.989 174.297C156.418 174.297 157.918 176 157.918 178.578V179.219H151.95C151.973 180.75 152.801 181.641 154.122 181.641C155.176 181.641 155.778 181.109 155.965 180.719L155.989 180.664H157.84L157.817 180.734C157.543 181.836 156.403 183.172 154.083 183.172ZM154.012 175.82C152.926 175.82 152.114 176.555 151.965 177.914H156.02C155.887 176.516 155.098 175.82 154.012 175.82ZM163.528 183.172C160.958 183.172 159.442 181.508 159.442 178.719V178.703C159.442 175.945 160.95 174.297 163.52 174.297C165.715 174.297 167.028 175.516 167.247 177.281V177.312H165.411L165.403 177.289C165.223 176.461 164.59 175.867 163.528 175.867C162.2 175.867 161.418 176.914 161.418 178.703V178.719C161.418 180.531 162.208 181.594 163.528 181.594C164.536 181.594 165.153 181.133 165.395 180.234L165.411 180.203L167.247 180.195L167.231 180.258C166.95 182.008 165.692 183.172 163.528 183.172ZM172.567 183.039C170.606 183.039 169.801 182.383 169.801 180.734V175.969H168.473V174.461H169.801V172.367H171.778V174.461H173.583V175.969H171.778V180.273C171.778 181.125 172.114 181.484 172.926 181.484C173.2 181.484 173.348 181.477 173.583 181.453V182.953C173.301 183.008 172.942 183.039 172.567 183.039ZM176.52 173.031C175.879 173.031 175.356 172.523 175.356 171.883C175.356 171.25 175.879 170.734 176.52 170.734C177.153 170.734 177.676 171.25 177.676 171.883C177.676 172.523 177.153 173.031 176.52 173.031ZM175.543 183V174.461H177.489V183H175.543ZM183.567 183.172C181.004 183.172 179.458 181.5 179.458 178.734V178.719C179.458 175.977 181.028 174.297 183.567 174.297C186.114 174.297 187.676 175.969 187.676 178.719V178.734C187.676 181.5 186.122 183.172 183.567 183.172ZM183.567 181.594C184.918 181.594 185.684 180.539 185.684 178.742V178.727C185.684 176.93 184.911 175.867 183.567 175.867C182.215 175.867 181.442 176.93 181.442 178.727V178.742C181.442 180.539 182.215 181.594 183.567 181.594ZM189.629 183V174.461H191.575V175.766H191.708C192.114 174.852 192.934 174.297 194.168 174.297C196.075 174.297 197.114 175.445 197.114 177.477V183H195.168V177.93C195.168 176.602 194.629 175.93 193.45 175.93C192.293 175.93 191.575 176.742 191.575 178.023V183H189.629ZM203.043 183L207.043 171.727H209.317L213.317 183H211.208L210.262 180.086H206.09L205.153 183H203.043ZM208.114 173.82L206.598 178.531H209.762L208.247 173.82H208.114ZM218.247 183.172C215.676 183.172 214.161 181.508 214.161 178.719V178.703C214.161 175.945 215.668 174.297 218.239 174.297C220.434 174.297 221.747 175.516 221.965 177.281V177.312H220.129L220.122 177.289C219.942 176.461 219.309 175.867 218.247 175.867C216.918 175.867 216.137 176.914 216.137 178.703V178.719C216.137 180.531 216.926 181.594 218.247 181.594C219.254 181.594 219.872 181.133 220.114 180.234L220.129 180.203L221.965 180.195L221.95 180.258C221.668 182.008 220.411 183.172 218.247 183.172ZM227.286 183.039C225.325 183.039 224.52 182.383 224.52 180.734V175.969H223.192V174.461H224.52V172.367H226.497V174.461H228.301V175.969H226.497V180.273C226.497 181.125 226.833 181.484 227.645 181.484C227.918 181.484 228.067 181.477 228.301 181.453V182.953C228.02 183.008 227.661 183.039 227.286 183.039ZM231.239 173.031C230.598 173.031 230.075 172.523 230.075 171.883C230.075 171.25 230.598 170.734 231.239 170.734C231.872 170.734 232.395 171.25 232.395 171.883C232.395 172.523 231.872 173.031 231.239 173.031ZM230.262 183V174.461H232.208V183H230.262ZM236.895 183L233.856 174.461H235.934L237.911 181.102H238.043L240.004 174.461H242.051L239.028 183H236.895ZM247.004 183.172C244.465 183.172 242.926 181.469 242.926 178.75V178.742C242.926 176.055 244.481 174.297 246.911 174.297C249.34 174.297 250.84 176 250.84 178.578V179.219H244.872C244.895 180.75 245.723 181.641 247.043 181.641C248.098 181.641 248.7 181.109 248.887 180.719L248.911 180.664H250.762L250.739 180.734C250.465 181.836 249.325 183.172 247.004 183.172ZM246.934 175.82C245.848 175.82 245.036 176.555 244.887 177.914H248.942C248.809 176.516 248.02 175.82 246.934 175.82Z" fill="#364252"/>
<path d="M85.4653 212V202.136H86.6958V210.893H91.4536V212H85.4653ZM95.2954 212.13C93.894 212.13 92.8345 211.282 92.8345 209.942V209.929C92.8345 208.616 93.8052 207.857 95.521 207.755L97.6333 207.625V206.955C97.6333 206.046 97.0796 205.554 95.979 205.554C95.0972 205.554 94.5161 205.882 94.3247 206.456L94.3179 206.477H93.1284L93.1353 206.436C93.3267 205.28 94.4478 204.501 96.02 204.501C97.8179 204.501 98.8228 205.424 98.8228 206.955V212H97.6333V210.913H97.5239C97.0591 211.699 96.2866 212.13 95.2954 212.13ZM94.0513 209.915C94.0513 210.66 94.687 211.098 95.5415 211.098C96.7515 211.098 97.6333 210.305 97.6333 209.252V208.582L95.6646 208.705C94.5435 208.773 94.0513 209.17 94.0513 209.901V209.915ZM103.526 212.13C101.885 212.13 100.757 211.337 100.621 210.12H101.837C102.036 210.735 102.624 211.139 103.567 211.139C104.558 211.139 105.262 210.667 105.262 209.997V209.983C105.262 209.484 104.886 209.136 103.977 208.917L102.835 208.644C101.455 208.315 100.833 207.714 100.833 206.654V206.647C100.833 205.424 102.008 204.501 103.574 204.501C105.119 204.501 106.192 205.273 106.356 206.477H105.187C105.03 205.896 104.456 205.492 103.567 205.492C102.692 205.492 102.049 205.943 102.049 206.593V206.606C102.049 207.105 102.418 207.42 103.287 207.632L104.421 207.905C105.809 208.24 106.479 208.842 106.479 209.895V209.908C106.479 211.221 105.201 212.13 103.526 212.13ZM110.875 212.055C109.357 212.055 108.721 211.494 108.721 210.086V205.615H107.559V204.631H108.721V202.724H109.952V204.631H111.565V205.615H109.952V209.785C109.952 210.653 110.252 211.002 111.018 211.002C111.23 211.002 111.346 210.995 111.565 210.975V211.986C111.333 212.027 111.107 212.055 110.875 212.055ZM119.809 212.13C118.168 212.13 117.041 211.337 116.904 210.12H118.121C118.319 210.735 118.907 211.139 119.85 211.139C120.841 211.139 121.545 210.667 121.545 209.997V209.983C121.545 209.484 121.169 209.136 120.26 208.917L119.119 208.644C117.738 208.315 117.116 207.714 117.116 206.654V206.647C117.116 205.424 118.292 204.501 119.857 204.501C121.402 204.501 122.475 205.273 122.639 206.477H121.47C121.313 205.896 120.739 205.492 119.85 205.492C118.975 205.492 118.333 205.943 118.333 206.593V206.606C118.333 207.105 118.702 207.42 119.57 207.632L120.705 207.905C122.092 208.24 122.762 208.842 122.762 209.895V209.908C122.762 211.221 121.484 212.13 119.809 212.13ZM125.032 214.584C124.875 214.584 124.669 214.57 124.505 214.543V213.565C124.649 213.593 124.833 213.6 124.998 213.6C125.674 213.6 126.084 213.292 126.351 212.444L126.488 212.007L123.76 204.631H125.032L127.055 210.694H127.165L129.181 204.631H130.432L127.554 212.451C126.946 214.105 126.337 214.584 125.032 214.584ZM132.004 212V204.631H133.194V205.738H133.303C133.672 204.959 134.363 204.501 135.45 204.501C137.104 204.501 138.027 205.479 138.027 207.229V212H136.837V207.516C136.837 206.189 136.291 205.554 135.115 205.554C133.939 205.554 133.194 206.347 133.194 207.639V212H132.004ZM143.195 212.13C141.13 212.13 139.811 210.633 139.811 208.295V208.281C139.811 205.991 141.124 204.501 143.188 204.501C144.979 204.501 146.052 205.533 146.271 206.846L146.278 206.887H145.095L145.088 206.866C144.904 206.142 144.248 205.554 143.188 205.554C141.862 205.554 141.028 206.62 141.028 208.281V208.295C141.028 209.99 141.875 211.077 143.188 211.077C144.179 211.077 144.808 210.64 145.082 209.819L145.095 209.778L146.271 209.771L146.257 209.847C145.957 211.18 144.965 212.13 143.195 212.13ZM152.02 212V201.705H153.209V205.738H153.319C153.688 204.959 154.378 204.501 155.465 204.501C157.12 204.501 158.042 205.479 158.042 207.229V212H156.853V207.516C156.853 206.189 156.306 205.554 155.13 205.554C153.955 205.554 153.209 206.347 153.209 207.639V212H152.02ZM162.219 212.13C160.818 212.13 159.758 211.282 159.758 209.942V209.929C159.758 208.616 160.729 207.857 162.445 207.755L164.557 207.625V206.955C164.557 206.046 164.003 205.554 162.903 205.554C162.021 205.554 161.44 205.882 161.249 206.456L161.242 206.477H160.052L160.059 206.436C160.25 205.28 161.372 204.501 162.944 204.501C164.742 204.501 165.747 205.424 165.747 206.955V212H164.557V210.913H164.448C163.983 211.699 163.21 212.13 162.219 212.13ZM160.975 209.915C160.975 210.66 161.611 211.098 162.465 211.098C163.675 211.098 164.557 210.305 164.557 209.252V208.582L162.588 208.705C161.467 208.773 160.975 209.17 160.975 209.901V209.915ZM167.92 214.461V204.631H169.11V205.807H169.219C169.67 204.986 170.491 204.501 171.516 204.501C173.382 204.501 174.606 206.012 174.606 208.309V208.322C174.606 210.633 173.389 212.13 171.516 212.13C170.504 212.13 169.623 211.624 169.219 210.838H169.11V214.461H167.92ZM171.243 211.077C172.589 211.077 173.389 210.038 173.389 208.322V208.309C173.389 206.593 172.589 205.554 171.243 205.554C169.903 205.554 169.083 206.606 169.083 208.309V208.322C169.083 210.024 169.903 211.077 171.243 211.077ZM176.465 214.461V204.631H177.655V205.807H177.764C178.215 204.986 179.036 204.501 180.061 204.501C181.927 204.501 183.151 206.012 183.151 208.309V208.322C183.151 210.633 181.934 212.13 180.061 212.13C179.049 212.13 178.167 211.624 177.764 210.838H177.655V214.461H176.465ZM179.788 211.077C181.134 211.077 181.934 210.038 181.934 208.322V208.309C181.934 206.593 181.134 205.554 179.788 205.554C178.448 205.554 177.627 206.606 177.627 208.309V208.322C177.627 210.024 178.448 211.077 179.788 211.077ZM188.018 212.13C185.913 212.13 184.641 210.653 184.641 208.343V208.336C184.641 206.06 185.94 204.501 187.943 204.501C189.946 204.501 191.163 205.991 191.163 208.192V208.657H185.858C185.892 210.182 186.733 211.07 188.045 211.07C189.043 211.07 189.659 210.599 189.857 210.154L189.884 210.093H191.074L191.06 210.147C190.807 211.146 189.754 212.13 188.018 212.13ZM187.936 205.561C186.842 205.561 186.008 206.306 185.878 207.707H189.953C189.83 206.251 189.023 205.561 187.936 205.561ZM193.008 212V204.631H194.198V205.738H194.307C194.676 204.959 195.367 204.501 196.454 204.501C198.108 204.501 199.031 205.479 199.031 207.229V212H197.841V207.516C197.841 206.189 197.294 205.554 196.119 205.554C194.943 205.554 194.198 206.347 194.198 207.639V212H193.008ZM204.192 212.13C202.086 212.13 200.815 210.653 200.815 208.343V208.336C200.815 206.06 202.114 204.501 204.117 204.501C206.12 204.501 207.336 205.991 207.336 208.192V208.657H202.032C202.066 210.182 202.907 211.07 204.219 211.07C205.217 211.07 205.833 210.599 206.031 210.154L206.058 210.093H207.248L207.234 210.147C206.981 211.146 205.928 212.13 204.192 212.13ZM204.11 205.561C203.016 205.561 202.182 206.306 202.052 207.707H206.126C206.003 206.251 205.197 205.561 204.11 205.561ZM211.903 212.13C210.037 212.13 208.813 210.619 208.813 208.322V208.309C208.813 205.998 210.03 204.501 211.903 204.501C212.915 204.501 213.796 205.007 214.2 205.793H214.309V201.705H215.499V212H214.309V210.824H214.2C213.749 211.645 212.928 212.13 211.903 212.13ZM212.176 211.077C213.516 211.077 214.336 210.024 214.336 208.322V208.309C214.336 206.606 213.516 205.554 212.176 205.554C210.83 205.554 210.03 206.593 210.03 208.309V208.322C210.03 210.038 210.83 211.077 212.176 211.077ZM225.069 212.164C223.032 212.164 221.712 211.029 221.583 209.471L221.576 209.389H222.758L222.765 209.457C222.861 210.428 223.756 211.098 225.069 211.098C226.361 211.098 227.243 210.373 227.243 209.327V209.313C227.243 208.104 226.375 207.427 224.994 207.427H223.756V206.388H224.939C226.115 206.388 226.935 205.663 226.935 204.679V204.665C226.935 203.633 226.258 203.038 225.055 203.038C223.893 203.038 223.066 203.653 222.963 204.651L222.957 204.72H221.774L221.781 204.651C221.938 203.045 223.209 201.972 225.055 201.972C226.935 201.972 228.172 203.018 228.172 204.515V204.528C228.172 205.745 227.311 206.579 226.081 206.839V206.866C227.516 206.989 228.494 207.885 228.494 209.286V209.3C228.494 210.947 227.044 212.164 225.069 212.164ZM233.792 212.232C231.611 212.232 230.312 210.243 230.312 207.071V207.058C230.312 203.886 231.611 201.903 233.792 201.903C235.972 201.903 237.285 203.886 237.285 207.058V207.071C237.285 210.243 235.972 212.232 233.792 212.232ZM233.792 211.159C235.207 211.159 236.047 209.587 236.047 207.071V207.058C236.047 204.542 235.207 202.983 233.792 202.983C232.376 202.983 231.549 204.542 231.549 207.058V207.071C231.549 209.587 232.376 211.159 233.792 211.159ZM243.252 212V204.631H244.442V205.752H244.551C244.879 204.959 245.577 204.501 246.541 204.501C247.539 204.501 248.236 205.027 248.578 205.793H248.687C249.083 205.014 249.924 204.501 250.943 204.501C252.447 204.501 253.288 205.362 253.288 206.907V212H252.098V207.181C252.098 206.094 251.599 205.554 250.56 205.554C249.535 205.554 248.858 206.326 248.858 207.263V212H247.668V206.996C247.668 206.121 247.067 205.554 246.137 205.554C245.173 205.554 244.442 206.395 244.442 207.434V212H243.252ZM256.063 203.209C255.612 203.209 255.243 202.84 255.243 202.389C255.243 201.938 255.612 201.568 256.063 201.568C256.514 201.568 256.883 201.938 256.883 202.389C256.883 202.84 256.514 203.209 256.063 203.209ZM255.461 212V204.631H256.651V212H255.461ZM258.893 212V204.631H260.083V205.738H260.192C260.561 204.959 261.251 204.501 262.338 204.501C263.993 204.501 264.916 205.479 264.916 207.229V212H263.726V207.516C263.726 206.189 263.179 205.554 262.003 205.554C260.828 205.554 260.083 206.347 260.083 207.639V212H258.893ZM273.03 212.13C271.628 212.13 270.569 211.282 270.569 209.942V209.929C270.569 208.616 271.54 207.857 273.255 207.755L275.368 207.625V206.955C275.368 206.046 274.814 205.554 273.713 205.554C272.832 205.554 272.25 205.882 272.059 206.456L272.052 206.477H270.863L270.87 206.436C271.061 205.28 272.182 204.501 273.754 204.501C275.552 204.501 276.557 205.424 276.557 206.955V212H275.368V210.913H275.258C274.793 211.699 274.021 212.13 273.03 212.13ZM271.786 209.915C271.786 210.66 272.421 211.098 273.276 211.098C274.486 211.098 275.368 210.305 275.368 209.252V208.582L273.399 208.705C272.278 208.773 271.786 209.17 271.786 209.901V209.915ZM281.766 214.598C279.989 214.598 278.854 213.798 278.669 212.588L278.683 212.581H279.914L279.92 212.588C280.05 213.148 280.707 213.545 281.766 213.545C283.085 213.545 283.872 212.923 283.872 211.836V210.346H283.762C283.297 211.159 282.463 211.617 281.452 211.617C279.544 211.617 278.362 210.141 278.362 208.076V208.062C278.362 205.998 279.551 204.501 281.479 204.501C282.518 204.501 283.325 205.014 283.776 205.848H283.858V204.631H285.047V211.897C285.047 213.545 283.776 214.598 281.766 214.598ZM281.711 210.564C283.079 210.564 283.899 209.539 283.899 208.076V208.062C283.899 206.6 283.072 205.554 281.711 205.554C280.344 205.554 279.579 206.6 279.579 208.062V208.076C279.579 209.539 280.344 210.564 281.711 210.564ZM290.291 212.13C288.192 212.13 286.893 210.681 286.893 208.322V208.309C286.893 205.943 288.192 204.501 290.291 204.501C292.389 204.501 293.688 205.943 293.688 208.309V208.322C293.688 210.681 292.389 212.13 290.291 212.13ZM290.291 211.077C291.685 211.077 292.471 210.059 292.471 208.322V208.309C292.471 206.565 291.685 205.554 290.291 205.554C288.896 205.554 288.11 206.565 288.11 208.309V208.322C288.11 210.059 288.896 211.077 290.291 211.077Z" fill="#6A7585"/>
<g clip-path="url(#clip5_10212_17408)">
<path d="M86.874 241.667C86.874 240.253 87.4359 238.896 88.4361 237.896C89.4363 236.896 90.7929 236.334 92.2074 236.334C93.6218 236.334 94.9784 236.896 95.9786 237.896C96.9788 238.896 97.5407 240.253 97.5407 241.667H96.2074C96.2074 240.606 95.7859 239.589 95.0358 238.839C94.2856 238.088 93.2682 237.667 92.2074 237.667C91.1465 237.667 90.1291 238.088 89.3789 238.839C88.6288 239.589 88.2074 240.606 88.2074 241.667H86.874ZM92.2074 235.667C89.9974 235.667 88.2074 233.877 88.2074 231.667C88.2074 229.457 89.9974 227.667 92.2074 227.667C94.4174 227.667 96.2074 229.457 96.2074 231.667C96.2074 233.877 94.4174 235.667 92.2074 235.667ZM92.2074 234.334C93.6807 234.334 94.874 233.14 94.874 231.667C94.874 230.194 93.6807 229 92.2074 229C90.734 229 89.5407 230.194 89.5407 231.667C89.5407 233.14 90.734 234.334 92.2074 234.334Z" fill="#4C5664"/>
</g>
<path d="M107.687 240V231.715H107.571L105.089 233.485V231.981L107.687 230.136H109.218V240H107.687ZM114.427 240V231.715H114.311L111.83 233.485V231.981L114.427 230.136H115.958V240H114.427ZM122.234 240.239C119.958 240.239 118.59 238.25 118.59 235.071V235.058C118.59 231.879 119.958 229.896 122.234 229.896C124.503 229.896 125.877 231.879 125.877 235.058V235.071C125.877 238.25 124.503 240.239 122.234 240.239ZM122.234 238.968C123.553 238.968 124.333 237.484 124.333 235.071V235.058C124.333 232.645 123.553 231.175 122.234 231.175C120.908 231.175 120.135 232.645 120.135 235.058V235.071C120.135 237.484 120.908 238.968 122.234 238.968ZM134.149 240.144C132.474 240.144 131.606 239.139 131.606 237.382V232.576H133.089V237.033C133.089 238.264 133.541 238.872 134.627 238.872C135.817 238.872 136.453 238.127 136.453 236.931V232.576H137.929V240H136.453V238.879H136.336C135.981 239.679 135.229 240.144 134.149 240.144ZM142.769 240.144C140.978 240.144 139.843 239.303 139.7 238.059V238.052H141.183L141.19 238.059C141.375 238.619 141.915 238.995 142.796 238.995C143.712 238.995 144.348 238.578 144.348 237.97V237.956C144.348 237.491 144 237.177 143.138 236.979L141.956 236.705C140.554 236.384 139.905 235.748 139.905 234.661V234.654C139.905 233.362 141.108 232.433 142.79 232.433C144.485 232.433 145.572 233.28 145.702 234.49V234.497H144.287V234.483C144.143 233.964 143.617 233.574 142.783 233.574C141.969 233.574 141.381 233.978 141.381 234.572V234.586C141.381 235.051 141.723 235.338 142.557 235.536L143.733 235.803C145.162 236.138 145.845 236.746 145.845 237.819V237.833C145.845 239.207 144.533 240.144 142.769 240.144ZM150.733 240.144C148.559 240.144 147.247 238.66 147.247 236.309V236.302C147.247 233.984 148.586 232.433 150.658 232.433C152.729 232.433 154 233.93 154 236.158V236.678H148.737C148.764 238.1 149.543 238.927 150.767 238.927C151.717 238.927 152.285 238.455 152.462 238.072L152.49 238.018L153.918 238.011L153.905 238.072C153.659 239.05 152.633 240.144 150.733 240.144ZM150.665 233.649C149.653 233.649 148.887 234.34 148.757 235.618H152.531C152.415 234.292 151.669 233.649 150.665 233.649ZM155.764 240V232.576H157.248V233.697H157.357C157.624 232.911 158.314 232.446 159.305 232.446C159.544 232.446 159.804 232.48 159.955 232.515V233.882C159.688 233.827 159.435 233.793 159.155 233.793C158.02 233.793 157.248 234.49 157.248 235.563V240H155.764ZM163.919 240.144C162.128 240.144 160.994 239.303 160.85 238.059V238.052H162.333L162.34 238.059C162.525 238.619 163.065 238.995 163.947 238.995C164.863 238.995 165.499 238.578 165.499 237.97V237.956C165.499 237.491 165.15 237.177 164.289 236.979L163.106 236.705C161.705 236.384 161.055 235.748 161.055 234.661V234.654C161.055 233.362 162.258 232.433 163.94 232.433C165.635 232.433 166.722 233.28 166.852 234.49V234.497H165.437V234.483C165.293 233.964 164.767 233.574 163.933 233.574C163.12 233.574 162.532 233.978 162.532 234.572V234.586C162.532 235.051 162.874 235.338 163.708 235.536L164.883 235.803C166.312 236.138 166.996 236.746 166.996 237.819V237.833C166.996 239.207 165.683 240.144 163.919 240.144Z" fill="#4C5664"/>
<path d="M174.338 240.13C172.937 240.13 171.877 239.282 171.877 237.942V237.929C171.877 236.616 172.848 235.857 174.564 235.755L176.676 235.625V234.955C176.676 234.046 176.123 233.554 175.022 233.554C174.14 233.554 173.559 233.882 173.368 234.456L173.361 234.477H172.171L172.178 234.436C172.37 233.28 173.491 232.501 175.063 232.501C176.861 232.501 177.866 233.424 177.866 234.955V240H176.676V238.913H176.567C176.102 239.699 175.33 240.13 174.338 240.13ZM173.094 237.915C173.094 238.66 173.73 239.098 174.584 239.098C175.794 239.098 176.676 238.305 176.676 237.252V236.582L174.708 236.705C173.586 236.773 173.094 237.17 173.094 237.901V237.915ZM180.04 240V232.631H181.229V233.738H181.338C181.708 232.959 182.398 232.501 183.485 232.501C185.139 232.501 186.062 233.479 186.062 235.229V240H184.873V235.516C184.873 234.189 184.326 233.554 183.15 233.554C181.974 233.554 181.229 234.347 181.229 235.639V240H180.04ZM190.936 240.13C189.07 240.13 187.846 238.619 187.846 236.322V236.309C187.846 233.998 189.063 232.501 190.936 232.501C191.948 232.501 192.83 233.007 193.233 233.793H193.342V229.705H194.532V240H193.342V238.824H193.233C192.782 239.645 191.961 240.13 190.936 240.13ZM191.209 239.077C192.549 239.077 193.37 238.024 193.37 236.322V236.309C193.37 234.606 192.549 233.554 191.209 233.554C189.863 233.554 189.063 234.593 189.063 236.309V236.322C189.063 238.038 189.863 239.077 191.209 239.077Z" fill="#4C5664"/>
<g clip-path="url(#clip6_10212_17408)">
<path d="M200.541 241.667C200.541 240.253 201.103 238.896 202.103 237.896C203.103 236.896 204.46 236.334 205.874 236.334C207.289 236.334 208.645 236.896 209.646 237.896C210.646 238.896 211.208 240.253 211.208 241.667H209.874C209.874 240.606 209.453 239.589 208.703 238.839C207.953 238.088 206.935 237.667 205.874 237.667C204.813 237.667 203.796 238.088 203.046 238.839C202.296 239.589 201.874 240.606 201.874 241.667H200.541ZM205.874 235.667C203.664 235.667 201.874 233.877 201.874 231.667C201.874 229.457 203.664 227.667 205.874 227.667C208.084 227.667 209.874 229.457 209.874 231.667C209.874 233.877 208.084 235.667 205.874 235.667ZM205.874 234.334C207.348 234.334 208.541 233.14 208.541 231.667C208.541 230.194 207.348 229 205.874 229C204.401 229 203.208 230.194 203.208 231.667C203.208 233.14 204.401 234.334 205.874 234.334ZM211.397 236.802C212.334 237.224 213.129 237.908 213.687 238.771C214.244 239.634 214.541 240.639 214.541 241.667H213.208C213.208 240.896 212.985 240.142 212.567 239.495C212.149 238.847 211.552 238.335 210.85 238.018L211.396 236.802H211.397ZM210.938 229.276C211.61 229.553 212.184 230.023 212.588 230.626C212.992 231.23 213.208 231.94 213.208 232.667C213.208 233.582 212.866 234.464 212.249 235.14C211.633 235.815 210.785 236.236 209.874 236.319V234.977C210.368 234.906 210.827 234.679 211.182 234.329C211.537 233.978 211.771 233.523 211.848 233.03C211.926 232.537 211.844 232.033 211.613 231.59C211.383 231.147 211.017 230.79 210.568 230.571L210.938 229.276Z" fill="#4C5664"/>
</g>
<path d="M222.687 240V231.715H222.571L220.089 233.485V231.981L222.687 230.136H224.218V240H222.687ZM230.487 240.185C228.381 240.185 227.007 239.029 226.877 237.396L226.871 237.313H228.333L228.34 237.382C228.436 238.277 229.263 238.906 230.487 238.906C231.69 238.906 232.503 238.229 232.503 237.259V237.245C232.503 236.131 231.697 235.509 230.384 235.509H229.181V234.319H230.336C231.464 234.319 232.23 233.656 232.23 232.74V232.727C232.23 231.77 231.587 231.209 230.473 231.209C229.379 231.209 228.614 231.79 228.518 232.72L228.511 232.788H227.076L227.083 232.713C227.233 231.052 228.545 229.951 230.473 229.951C232.435 229.951 233.72 231.004 233.72 232.528V232.542C233.72 233.766 232.845 234.586 231.642 234.839V234.873C233.091 235.003 234.062 235.878 234.062 237.259V237.272C234.062 238.968 232.579 240.185 230.487 240.185ZM242.976 242.618C241.089 242.618 239.927 241.791 239.75 240.554L239.763 240.54H241.26L241.267 240.554C241.39 241.066 241.992 241.429 242.997 241.429C244.22 241.429 244.945 240.854 244.945 239.843V238.38H244.835C244.384 239.187 243.564 239.638 242.545 239.638C240.638 239.638 239.462 238.168 239.462 236.076V236.062C239.462 233.943 240.645 232.446 242.573 232.446C243.612 232.446 244.418 232.959 244.849 233.793H244.938V232.576H246.415V239.85C246.415 241.538 245.082 242.618 242.976 242.618ZM242.956 238.414C244.213 238.414 244.972 237.457 244.972 236.069V236.056C244.972 234.675 244.207 233.704 242.956 233.704C241.691 233.704 240.98 234.675 240.98 236.056V236.069C240.98 237.45 241.691 238.414 242.956 238.414ZM248.547 240V232.576H250.031V233.697H250.14C250.407 232.911 251.097 232.446 252.088 232.446C252.328 232.446 252.587 232.48 252.738 232.515V233.882C252.471 233.827 252.218 233.793 251.938 233.793C250.803 233.793 250.031 234.49 250.031 235.563V240H248.547ZM257.106 240.144C254.925 240.144 253.592 238.688 253.592 236.295V236.281C253.592 233.896 254.932 232.433 257.106 232.433C259.273 232.433 260.613 233.889 260.613 236.281V236.295C260.613 238.688 259.28 240.144 257.106 240.144ZM257.106 238.906C258.377 238.906 259.102 237.936 259.102 236.295V236.281C259.102 234.634 258.377 233.67 257.106 233.67C255.828 233.67 255.11 234.634 255.11 236.281V236.295C255.11 237.942 255.828 238.906 257.106 238.906ZM264.858 240.144C263.183 240.144 262.315 239.139 262.315 237.382V232.576H263.798V237.033C263.798 238.264 264.25 238.872 265.336 238.872C266.526 238.872 267.162 238.127 267.162 236.931V232.576H268.638V240H267.162V238.879H267.045C266.69 239.679 265.938 240.144 264.858 240.144ZM270.778 242.475V232.576H272.261V233.745H272.371C272.801 232.932 273.615 232.446 274.654 232.446C276.527 232.446 277.73 233.943 277.73 236.281V236.295C277.73 238.646 276.541 240.123 274.654 240.123C273.635 240.123 272.767 239.624 272.371 238.824H272.261V242.475H270.778ZM274.237 238.858C275.474 238.858 276.219 237.888 276.219 236.295V236.281C276.219 234.682 275.474 233.718 274.237 233.718C273 233.718 272.234 234.695 272.234 236.281V236.295C272.234 237.881 273 238.858 274.237 238.858ZM282.214 240.144C280.423 240.144 279.289 239.303 279.145 238.059V238.052H280.628L280.635 238.059C280.82 238.619 281.36 238.995 282.242 238.995C283.158 238.995 283.793 238.578 283.793 237.97V237.956C283.793 237.491 283.445 237.177 282.583 236.979L281.401 236.705C280 236.384 279.35 235.748 279.35 234.661V234.654C279.35 233.362 280.553 232.433 282.235 232.433C283.93 232.433 285.017 233.28 285.147 234.49V234.497H283.732V234.483C283.588 233.964 283.062 233.574 282.228 233.574C281.415 233.574 280.827 233.978 280.827 234.572V234.586C280.827 235.051 281.168 235.338 282.002 235.536L283.178 235.803C284.607 236.138 285.291 236.746 285.291 237.819V237.833C285.291 239.207 283.978 240.144 282.214 240.144Z" fill="#4C5664"/>
<path d="M292.338 240.13C290.937 240.13 289.877 239.282 289.877 237.942V237.929C289.877 236.616 290.848 235.857 292.564 235.755L294.676 235.625V234.955C294.676 234.046 294.123 233.554 293.022 233.554C292.14 233.554 291.559 233.882 291.368 234.456L291.361 234.477H290.171L290.178 234.436C290.37 233.28 291.491 232.501 293.063 232.501C294.861 232.501 295.866 233.424 295.866 234.955V240H294.676V238.913H294.567C294.102 239.699 293.33 240.13 292.338 240.13ZM291.094 237.915C291.094 238.66 291.73 239.098 292.584 239.098C293.794 239.098 294.676 238.305 294.676 237.252V236.582L292.708 236.705C291.586 236.773 291.094 237.17 291.094 237.901V237.915ZM298.04 240V232.631H299.229V233.725H299.338C299.619 232.952 300.309 232.501 301.307 232.501C301.533 232.501 301.786 232.528 301.902 232.549V233.704C301.656 233.663 301.43 233.636 301.17 233.636C300.036 233.636 299.229 234.354 299.229 235.434V240H298.04ZM306.174 240.13C304.069 240.13 302.797 238.653 302.797 236.343V236.336C302.797 234.06 304.096 232.501 306.099 232.501C308.102 232.501 309.319 233.991 309.319 236.192V236.657H304.014C304.048 238.182 304.889 239.07 306.202 239.07C307.2 239.07 307.815 238.599 308.013 238.154L308.041 238.093H309.23L309.216 238.147C308.963 239.146 307.911 240.13 306.174 240.13ZM306.092 233.561C304.999 233.561 304.165 234.306 304.035 235.707H308.109C307.986 234.251 307.179 233.561 306.092 233.561ZM315.17 240V229.705H316.36V240H315.17ZM319.272 231.209C318.821 231.209 318.452 230.84 318.452 230.389C318.452 229.938 318.821 229.568 319.272 229.568C319.723 229.568 320.092 229.938 320.092 230.389C320.092 230.84 319.723 231.209 319.272 231.209ZM318.67 240V232.631H319.86V240H318.67ZM322.102 240V232.631H323.292V233.738H323.401C323.77 232.959 324.46 232.501 325.547 232.501C327.202 232.501 328.125 233.479 328.125 235.229V240H326.935V235.516C326.935 234.189 326.388 233.554 325.212 233.554C324.037 233.554 323.292 234.347 323.292 235.639V240H322.102ZM330.346 240V229.705H331.536V235.851H331.645L334.831 232.631H336.273L333.06 235.728L336.485 240H334.988L332.226 236.534L331.536 237.204V240H330.346ZM340.545 240.13C338.44 240.13 337.168 238.653 337.168 236.343V236.336C337.168 234.06 338.467 232.501 340.47 232.501C342.473 232.501 343.69 233.991 343.69 236.192V236.657H338.385C338.419 238.182 339.26 239.07 340.573 239.07C341.571 239.07 342.186 238.599 342.384 238.154L342.412 238.093H343.601L343.587 238.147C343.334 239.146 342.282 240.13 340.545 240.13ZM340.463 233.561C339.37 233.561 338.536 234.306 338.406 235.707H342.48C342.357 234.251 341.55 233.561 340.463 233.561ZM348.256 240.13C346.39 240.13 345.167 238.619 345.167 236.322V236.309C345.167 233.998 346.383 232.501 348.256 232.501C349.268 232.501 350.15 233.007 350.553 233.793H350.663V229.705H351.852V240H350.663V238.824H350.553C350.102 239.645 349.282 240.13 348.256 240.13ZM348.53 239.077C349.87 239.077 350.69 238.024 350.69 236.322V236.309C350.69 234.606 349.87 233.554 348.53 233.554C347.183 233.554 346.383 234.593 346.383 236.309V236.322C346.383 238.038 347.183 239.077 348.53 239.077ZM360.691 240.055C359.173 240.055 358.538 239.494 358.538 238.086V233.615H357.375V232.631H358.538V230.724H359.768V232.631H361.381V233.615H359.768V237.785C359.768 238.653 360.069 239.002 360.834 239.002C361.046 239.002 361.163 238.995 361.381 238.975V239.986C361.149 240.027 360.923 240.055 360.691 240.055ZM366.078 240.13C363.979 240.13 362.68 238.681 362.68 236.322V236.309C362.68 233.943 363.979 232.501 366.078 232.501C368.176 232.501 369.475 233.943 369.475 236.309V236.322C369.475 238.681 368.176 240.13 366.078 240.13ZM366.078 239.077C367.472 239.077 368.258 238.059 368.258 236.322V236.309C368.258 234.565 367.472 233.554 366.078 233.554C364.683 233.554 363.897 234.565 363.897 236.309V236.322C363.897 238.059 364.683 239.077 366.078 239.077ZM375.887 242.584C375.73 242.584 375.525 242.57 375.361 242.543V241.565C375.504 241.593 375.689 241.6 375.853 241.6C376.53 241.6 376.94 241.292 377.207 240.444L377.343 240.007L374.616 232.631H375.887L377.911 238.694H378.02L380.037 232.631H381.288L378.41 240.451C377.801 242.105 377.193 242.584 375.887 242.584ZM385.615 240.13C383.516 240.13 382.217 238.681 382.217 236.322V236.309C382.217 233.943 383.516 232.501 385.615 232.501C387.713 232.501 389.012 233.943 389.012 236.309V236.322C389.012 238.681 387.713 240.13 385.615 240.13ZM385.615 239.077C387.009 239.077 387.795 238.059 387.795 236.322V236.309C387.795 234.565 387.009 233.554 385.615 233.554C384.22 233.554 383.434 234.565 383.434 236.309V236.322C383.434 238.059 384.22 239.077 385.615 239.077ZM393.326 240.13C391.651 240.13 390.79 239.146 390.79 237.402V232.631H391.979V237.115C391.979 238.441 392.458 239.077 393.633 239.077C394.932 239.077 395.623 238.284 395.623 236.992V232.631H396.812V240H395.623V238.899H395.513C395.151 239.686 394.406 240.13 393.326 240.13ZM399.034 240V232.631H400.223V233.725H400.333C400.613 232.952 401.303 232.501 402.301 232.501C402.527 232.501 402.78 232.528 402.896 232.549V233.704C402.65 233.663 402.424 233.636 402.165 233.636C401.03 233.636 400.223 234.354 400.223 235.434V240H399.034ZM408.454 240V230.136H409.684V240H408.454ZM414.77 240.13C412.904 240.13 411.68 238.619 411.68 236.322V236.309C411.68 233.998 412.897 232.501 414.77 232.501C415.782 232.501 416.664 233.007 417.067 233.793H417.176V229.705H418.366V240H417.176V238.824H417.067C416.616 239.645 415.795 240.13 414.77 240.13ZM415.043 239.077C416.383 239.077 417.204 238.024 417.204 236.322V236.309C417.204 234.606 416.383 233.554 415.043 233.554C413.697 233.554 412.897 234.593 412.897 236.309V236.322C412.897 238.038 413.697 239.077 415.043 239.077ZM420.799 240V230.136H424.518C426.371 230.136 427.683 231.414 427.683 233.287V233.301C427.683 235.174 426.371 236.479 424.518 236.479H422.03V240H420.799ZM424.204 231.229H422.03V235.386H424.204C425.612 235.386 426.425 234.613 426.425 233.314V233.301C426.425 232.002 425.612 231.229 424.204 231.229Z" fill="#4C5664"/>
<rect x="570.208" y="187" width="116" height="36" rx="4" fill="#FFF2F2"/>
<path d="M583.911 210V200.136H587.609C590.542 200.136 592.25 201.927 592.25 205.017V205.03C592.25 208.188 590.562 210 587.609 210H583.911ZM585.674 208.517H587.376C589.338 208.517 590.453 207.272 590.453 205.058V205.044C590.453 202.877 589.311 201.619 587.376 201.619H585.674V208.517ZM594.971 201.277C594.411 201.277 593.953 200.833 593.953 200.272C593.953 199.719 594.411 199.268 594.971 199.268C595.525 199.268 595.983 199.719 595.983 200.272C595.983 200.833 595.525 201.277 594.971 201.277ZM594.117 210V202.528H595.819V210H594.117ZM600.734 210.15C598.833 210.15 597.685 209.275 597.542 208.011V207.997H599.23L599.237 208.011C599.415 208.53 599.914 208.893 600.761 208.893C601.609 208.893 602.197 208.51 602.197 207.949V207.936C602.197 207.498 601.869 207.211 601.048 207.026L599.838 206.753C598.417 206.438 597.74 205.769 597.74 204.668V204.661C597.74 203.314 598.97 202.385 600.734 202.385C602.552 202.385 603.639 203.287 603.749 204.497V204.511H602.149L602.142 204.49C602.019 204.019 601.527 203.636 600.727 203.636C599.968 203.636 599.421 204.005 599.421 204.565V204.572C599.421 205.01 599.736 205.276 600.542 205.461L601.752 205.728C603.215 206.056 603.906 206.678 603.906 207.765V207.778C603.906 209.2 602.573 210.15 600.734 210.15ZM607.659 210.123C606.237 210.123 605.205 209.248 605.205 207.888V207.874C605.205 206.541 606.223 205.762 608.042 205.652L609.962 205.536V204.894C609.962 204.148 609.477 203.738 608.561 203.738C607.782 203.738 607.276 204.019 607.105 204.511L607.098 204.538H605.492L605.499 204.477C605.663 203.219 606.866 202.385 608.643 202.385C610.564 202.385 611.644 203.314 611.644 204.894V210H609.962V208.975H609.846C609.436 209.699 608.643 210.123 607.659 210.123ZM606.886 207.806C606.886 208.441 607.426 208.817 608.178 208.817C609.204 208.817 609.962 208.147 609.962 207.259V206.657L608.281 206.767C607.331 206.828 606.886 207.177 606.886 207.792V207.806ZM617.844 210.123C616.798 210.123 615.985 209.645 615.575 208.831H615.458V210H613.756V199.637H615.458V203.718H615.575C615.964 202.911 616.819 202.405 617.844 202.405C619.738 202.405 620.914 203.882 620.914 206.261V206.274C620.914 208.64 619.717 210.123 617.844 210.123ZM617.311 208.688C618.473 208.688 619.177 207.778 619.177 206.274V206.261C619.177 204.757 618.473 203.841 617.311 203.841C616.156 203.841 615.438 204.764 615.438 206.261V206.274C615.438 207.771 616.156 208.688 617.311 208.688ZM622.684 210V199.637H624.386V210H622.684ZM629.739 210.15C627.517 210.15 626.17 208.66 626.17 206.281V206.274C626.17 203.923 627.531 202.385 629.657 202.385C631.783 202.385 633.095 203.875 633.095 206.131V206.691H627.873C627.893 208.031 628.618 208.811 629.773 208.811C630.696 208.811 631.222 208.346 631.386 208.004L631.407 207.956H633.027L633.006 208.018C632.767 208.981 631.769 210.15 629.739 210.15ZM629.677 203.718C628.727 203.718 628.016 204.36 627.886 205.55H631.434C631.318 204.326 630.627 203.718 629.677 203.718ZM642.132 210.246C639.842 210.246 638.386 209.118 638.263 207.416L638.256 207.32H639.965L639.972 207.389C640.054 208.216 640.936 208.763 642.187 208.763C643.376 208.763 644.21 208.175 644.21 207.327V207.32C644.21 206.609 643.698 206.179 642.426 205.905L641.367 205.687C639.35 205.263 638.475 204.319 638.475 202.85V202.843C638.475 201.079 639.993 199.89 642.125 199.89C644.313 199.89 645.673 201.086 645.796 202.672L645.803 202.761H644.115L644.101 202.679C643.978 201.913 643.247 201.366 642.119 201.373C641.025 201.373 640.246 201.886 640.246 202.727V202.733C640.246 203.431 640.745 203.868 641.975 204.128L643.035 204.354C645.113 204.791 645.981 205.625 645.981 207.115V207.122C645.981 209.043 644.498 210.246 642.132 210.246ZM652.079 210.246C649.283 210.246 647.546 208.264 647.546 205.078V205.064C647.546 201.865 649.276 199.89 652.072 199.89C654.314 199.89 656.016 201.312 656.249 203.328V203.383H654.519L654.512 203.355C654.259 202.187 653.316 201.414 652.072 201.414C650.397 201.414 649.351 202.815 649.351 205.058V205.071C649.351 207.32 650.397 208.722 652.079 208.722C653.33 208.722 654.259 208.024 654.512 206.938L654.519 206.903H656.249V206.951C655.989 208.927 654.355 210.246 652.079 210.246ZM658.217 210V200.136H659.981V210H658.217ZM662.415 210V200.136H664.438L667.405 207.724H667.521L670.481 200.136H672.504V210H670.918V202.986H670.795L668.061 210H666.858L664.124 202.986H664.007V210H662.415Z" fill="#F22B2B"/>
<defs>
<filter id="filter0_d_10212_17408" x="100" y="0" width="638" height="511" filterUnits="userSpaceOnUse" color-interpolation-filters="sRGB">
<feFlood flood-opacity="0" result="BackgroundImageFix"/>
<feColorMatrix in="SourceAlpha" type="matrix" values="0 0 0 0 0 0 0 0 0 0 0 0 0 0 0 0 0 0 127 0" result="hardAlpha"/>
<feOffset dy="1"/>
<feGaussianBlur stdDeviation="10"/>
<feComposite in2="hardAlpha" operator="out"/>
<feColorMatrix type="matrix" values="0 0 0 0 0.298039 0 0 0 0 0.337255 0 0 0 0 0.392157 0 0 0 0.11 0"/>
<feBlend mode="normal" in2="BackgroundImageFix" result="effect1_dropShadow_10212_17408"/>
<feBlend mode="normal" in="SourceGraphic" in2="effect1_dropShadow_10212_17408" result="shape"/>
</filter>
<filter id="filter1_d_10212_17408" x="0" y="111" width="772" height="242" filterUnits="userSpaceOnUse" color-interpolation-filters="sRGB">
<feFlood flood-opacity="0" result="BackgroundImageFix"/>
<feColorMatrix in="SourceAlpha" type="matrix" values="0 0 0 0 0 0 0 0 0 0 0 0 0 0 0 0 0 0 127 0" result="hardAlpha"/>
<feOffset dy="24"/>
<feGaussianBlur stdDeviation="32"/>
<feComposite in2="hardAlpha" operator="out"/>
<feColorMatrix type="matrix" values="0 0 0 0 0 0 0 0 0 0 0 0 0 0 0 0 0 0 0.13 0"/>
<feBlend mode="normal" in2="BackgroundImageFix" result="effect1_dropShadow_10212_17408"/>
<feBlend mode="normal" in="SourceGraphic" in2="effect1_dropShadow_10212_17408" result="shape"/>
</filter>
<clipPath id="clip0_10212_17408">
<rect width="16" height="16" fill="white" transform="translate(667 325)"/>
</clipPath>
<clipPath id="clip1_10212_17408">
<rect width="12" height="12" fill="white" transform="translate(156 423)"/>
</clipPath>
<clipPath id="clip2_10212_17408">
<rect width="483" height="15" fill="white" transform="translate(176 421.5)"/>
</clipPath>
<clipPath id="clip3_10212_17408">
<rect width="16" height="16" fill="white" transform="translate(667 421)"/>
</clipPath>
<clipPath id="clip4_10212_17408">
<rect width="16" height="16" fill="white" transform="translate(84.2075 169)"/>
</clipPath>
<clipPath id="clip5_10212_17408">
<rect width="16" height="16" fill="white" transform="translate(84.2075 227)"/>
</clipPath>
<clipPath id="clip6_10212_17408">
<rect width="16" height="16" fill="white" transform="translate(199.208 227)"/>
</clipPath>
</defs>
</svg>
