<?xml version="1.0" encoding="iso-8859-1"?>
<!-- Uploaded to: SVG Repo, www.svgrepo.com, Generator: SVG Repo Mixer Tools -->
<!DOCTYPE svg PUBLIC "-//W3C//DTD SVG 1.1//EN" "http://www.w3.org/Graphics/SVG/1.1/DTD/svg11.dtd">
<svg fill="#000000" height="800px" width="800px" version="1.1" id="Capa_1" xmlns="http://www.w3.org/2000/svg" xmlns:xlink="http://www.w3.org/1999/xlink" 
	 viewBox="0 0 297 297" xml:space="preserve">
<g>
	<polygon points="182.003,203.227 195.453,195.558 208.899,203.227 206.33,186.988 217.21,175.487 202.177,173.116 195.453,158.343 
		188.73,173.116 173.695,175.487 184.572,186.988 	"/>
	<path d="M240.902,127.526c2.589,0,5.118-1.053,6.948-2.884c1.841-1.83,2.885-4.369,2.885-6.958c0-2.588-1.044-5.128-2.885-6.958
		c-1.82-1.83-4.359-2.884-6.948-2.884c-2.598,0-5.137,1.054-6.968,2.884c-1.831,1.83-2.883,4.37-2.883,6.958
		c0,2.589,1.052,5.128,2.883,6.958C235.775,126.474,238.305,127.526,240.902,127.526z"/>
	<path d="M194.705,127.526c2.589,0,5.117-1.053,6.958-2.884c1.831-1.83,2.884-4.369,2.884-6.958c0-2.588-1.053-5.128-2.884-6.958
		c-1.83-1.83-4.369-2.884-6.958-2.884c-2.598,0-5.138,1.054-6.958,2.884c-1.841,1.83-2.884,4.37-2.884,6.958
		c0,2.589,1.043,5.128,2.884,6.958C189.577,126.474,192.107,127.526,194.705,127.526z"/>
	<path d="M148.498,127.526c2.588,0,5.128-1.053,6.958-2.884c1.84-1.83,2.884-4.369,2.884-6.958c0-2.588-1.044-5.128-2.884-6.958
		c-1.83-1.83-4.36-2.884-6.958-2.884c-2.588,0-5.128,1.054-6.959,2.884c-1.83,1.83-2.883,4.37-2.883,6.958
		c0,2.589,1.053,5.128,2.883,6.958C143.37,126.474,145.91,127.526,148.498,127.526z"/>
	<path d="M102.3,127.526c2.589,0,5.128-1.053,6.959-2.884c1.83-1.83,2.883-4.369,2.883-6.958c0-2.588-1.053-5.128-2.883-6.958
		c-1.831-1.83-4.37-2.884-6.959-2.884c-2.588,0-5.127,1.054-6.958,2.884c-1.83,1.83-2.884,4.37-2.884,6.958
		c0,2.589,1.054,5.128,2.884,6.958C97.173,126.474,99.712,127.526,102.3,127.526z"/>
	<path d="M56.103,127.526c2.589,0,5.128-1.053,6.958-2.884c1.831-1.83,2.884-4.369,2.884-6.958c0-2.588-1.053-5.128-2.884-6.958
		c-1.83-1.83-4.359-2.884-6.958-2.884c-2.589,0-5.127,1.054-6.958,2.884c-1.831,1.83-2.884,4.37-2.884,6.958
		c0,2.589,1.053,5.128,2.884,6.958C50.976,126.474,53.514,127.526,56.103,127.526z"/>
	<path d="M240.902,189.156c2.589,0,5.118-1.053,6.948-2.883c1.841-1.831,2.895-4.371,2.895-6.959c0-2.588-1.054-5.128-2.895-6.958
		c-1.83-1.831-4.359-2.884-6.948-2.884c-2.598,0-5.127,1.053-6.968,2.884c-1.831,1.83-2.883,4.36-2.883,6.958
		c0,2.588,1.052,5.128,2.883,6.959C235.775,188.104,238.305,189.156,240.902,189.156z"/>
	<path d="M148.498,189.156c2.598,0,5.128-1.053,6.958-2.883c1.83-1.831,2.884-4.371,2.884-6.959c0-2.598-1.054-5.128-2.884-6.958
		c-1.83-1.831-4.36-2.884-6.958-2.884c-2.588,0-5.128,1.053-6.959,2.884c-1.83,1.83-2.883,4.36-2.883,6.958
		c0,2.588,1.053,5.128,2.883,6.959C143.37,188.104,145.91,189.156,148.498,189.156z"/>
	<path d="M102.3,189.156c2.589,0,5.128-1.053,6.959-2.883c1.83-1.831,2.883-4.371,2.883-6.959c0-2.588-1.053-5.128-2.883-6.958
		c-1.831-1.831-4.37-2.884-6.959-2.884c-2.588,0-5.127,1.053-6.958,2.884c-1.83,1.83-2.884,4.36-2.884,6.958
		c0,2.588,1.054,5.128,2.884,6.959C97.173,188.104,99.712,189.156,102.3,189.156z"/>
	<path d="M56.103,189.156c2.589,0,5.128-1.053,6.958-2.883c1.831-1.831,2.884-4.371,2.884-6.959c0-2.588-1.053-5.128-2.884-6.958
		c-1.83-1.831-4.369-2.884-6.958-2.884c-2.589,0-5.127,1.053-6.958,2.884c-1.831,1.83-2.884,4.36-2.884,6.958
		c0,2.588,1.053,5.128,2.884,6.959C50.976,188.104,53.514,189.156,56.103,189.156z"/>
	<path d="M240.894,231.093c-2.589,0-5.118,1.054-6.949,2.884c-1.841,1.83-2.884,4.37-2.884,6.958c0,2.598,1.043,5.128,2.884,6.958
		c1.831,1.84,4.36,2.884,6.949,2.884c2.598,0,5.127-1.044,6.957-2.884c1.841-1.83,2.895-4.37,2.895-6.958s-1.054-5.118-2.895-6.958
		C246.02,232.146,243.491,231.093,240.894,231.093z"/>
	<path d="M194.705,231.093c-2.589,0-5.128,1.054-6.958,2.884c-1.841,1.83-2.884,4.37-2.884,6.958c0,2.598,1.043,5.128,2.884,6.958
		c1.83,1.84,4.36,2.884,6.958,2.884c2.589,0,5.128-1.044,6.958-2.884c1.831-1.83,2.884-4.36,2.884-6.958
		c0-2.588-1.053-5.128-2.884-6.958C199.833,232.146,197.294,231.093,194.705,231.093z"/>
	<path d="M148.498,250.776c2.598,0,5.128-1.044,6.958-2.884c1.84-1.83,2.884-4.36,2.884-6.958c0-2.588-1.044-5.128-2.884-6.958
		c-1.83-1.83-4.37-2.884-6.958-2.884c-2.588,0-5.128,1.054-6.959,2.884c-1.83,1.83-2.883,4.37-2.883,6.958
		c0,2.598,1.053,5.128,2.883,6.958C143.37,249.732,145.91,250.776,148.498,250.776z"/>
	<path d="M102.3,250.776c2.589,0,5.128-1.044,6.959-2.884c1.83-1.83,2.883-4.36,2.883-6.958c0-2.588-1.053-5.128-2.883-6.958
		c-1.831-1.83-4.37-2.884-6.959-2.884c-2.588,0-5.127,1.054-6.958,2.884c-1.83,1.83-2.884,4.37-2.884,6.958
		c0,2.598,1.054,5.128,2.884,6.958C97.173,249.732,99.712,250.776,102.3,250.776z"/>
	<path d="M56.103,250.776c2.589,0,5.128-1.044,6.958-2.884c1.831-1.83,2.884-4.36,2.884-6.958c0-2.588-1.053-5.128-2.884-6.958
		c-1.83-1.83-4.369-2.884-6.958-2.884c-2.589,0-5.127,1.054-6.958,2.884c-1.831,1.83-2.884,4.37-2.884,6.958
		c0,2.598,1.053,5.128,2.884,6.958C50.976,249.732,53.514,250.776,56.103,250.776z"/>
	<path d="M7.76,287.158c0,5.436,4.406,9.842,9.842,9.842h261.797c5.436,0,9.842-4.406,9.842-9.842V40.654
		c0-5.435-4.406-9.842-9.842-9.842H250.74V9.842c0-5.435-4.407-9.842-9.842-9.842c-5.436,0-9.842,4.407-9.842,9.842v20.971h-11.113
		V9.842c0-5.435-4.406-9.842-9.842-9.842c-5.435,0-9.842,4.407-9.842,9.842v20.971H96.742V9.842C96.742,4.407,92.335,0,86.9,0
		c-5.436,0-9.842,4.407-9.842,9.842v20.971H65.945V9.842C65.945,4.407,61.539,0,56.104,0c-5.435,0-9.842,4.407-9.842,9.842v20.971
		h-28.66c-5.436,0-9.842,4.407-9.842,9.842V287.158z M27.443,50.497h242.113v11.13H27.443V50.497z M269.557,277.316H27.443V81.311
		h242.113V277.316z"/>
</g>
</svg>