<svg xmlns="http://www.w3.org/2000/svg" width="32" height="32" fill="none" viewBox="0 0 32 32"><path fill="#F2FAFF" fill-opacity=".9" d="M17.1818 18.1818C17.1818 18.7341 16.7341 19.1818 16.1818 19.1818H15.8182C15.2659 19.1818 14.8182 18.7341 14.8182 18.1818V15.4545C14.8182 14.9023 15.2659 14.4545 15.8182 14.4545H16.1818C16.7341 14.4545 17.1818 14.9023 17.1818 15.4545V18.1818ZM17.1818 22.9091C17.1818 23.4614 16.7341 23.9091 16.1818 23.9091H15.8182C15.2659 23.9091 14.8182 23.4614 14.8182 22.9091V22.5455C14.8182 21.9932 15.2659 21.5455 15.8182 21.5455H16.1818C16.7341 21.5455 17.1818 21.9932 17.1818 22.5455V22.9091ZM3.86902 25.9535C3.48306 26.6202 3.96411 27.4545 4.73445 27.4545H27.2656C28.0359 27.4545 28.5169 26.6202 28.131 25.9535L16.8654 6.49483C16.4803 5.82954 15.5197 5.82954 15.1346 6.49483L3.86902 25.9535Z"/></svg>