<svg fill="none" height="32" viewBox="0 0 32 32" width="32" xmlns="http://www.w3.org/2000/svg"><g fill="#4b4848"><path d="m23.7299 14.3547c0-.6242-.4316-1.1349-.9592-1.1349-.5275 0-.9591.5107-.9591 1.1349 0 3.9148-2.6856 7.0354-5.9467 7.0354-3.261 0-5.94663-3.1206-5.94663-7.0354 0-.6242-.4316-1.1349-.95914-1.1349-.52752 0-.95913.5107-.95913 1.1349 0 4.7658 3.0213 8.6808 6.9057 9.1914v3.5178h-2.158c-.5275 0-.9591.5106-.9591 1.1346 0 .6242.4316 1.1348.9591 1.1348h6.1864c.5276 0 .9592-.5106.9592-1.1348 0-.624-.4316-1.1346-.9592-1.1346h-2.1101v-3.5178c3.8845-.5106 6.9059-4.4256 6.9059-9.1914z"/><path d="m16.0088 2.66666h-.2879c-2.206 0-4.0283 2.15602-4.0283 4.76596v6.86528c0 2.61 1.8223 4.766 4.0283 4.766h.2879c2.206 0 4.0283-2.156 4.0283-4.766v-6.86528c0-2.60994-1.8223-4.76596-4.0283-4.76596z"/></g></svg>