<svg width="32" height="32" viewBox="0 0 32 32" fill="none" xmlns="http://www.w3.org/2000/svg">
<path fill-rule="evenodd" clip-rule="evenodd" d="M32 10C32 8.8 31.2 8 30 8H2C0.8 8 0 8.8 0 10V22C0 23.2 0.8 24 2 24H30C31.2 24 32 23.2 32 22V10ZM3.73772 17.902C4.01306 18.0233 4.33039 18.084 4.68972 18.084C5.06306 18.084 5.37806 18.0187 5.63472 17.888C5.89139 17.7527 6.08506 17.5753 6.21572 17.356C6.34639 17.1367 6.41172 16.8987 6.41172 16.642C6.41172 16.3527 6.35106 16.117 6.22972 15.935C6.10839 15.7483 5.94739 15.599 5.74672 15.487C5.54606 15.375 5.32439 15.277 5.08172 15.193C4.85306 15.1183 4.65006 15.0483 4.47272 14.983C4.29539 14.9177 4.15539 14.8383 4.05272 14.745C3.95006 14.647 3.89872 14.5163 3.89872 14.353C3.89872 14.1617 3.96406 14.017 4.09472 13.919C4.23006 13.8163 4.39572 13.7673 4.59172 13.772C4.82039 13.772 4.99772 13.8397 5.12372 13.975C5.25439 14.1057 5.32206 14.2573 5.32672 14.43H6.28572C6.27639 14.1407 6.19939 13.891 6.05472 13.681C5.91472 13.471 5.71872 13.3077 5.46672 13.191C5.21939 13.0743 4.93239 13.016 4.60572 13.016C4.28372 13.016 3.99906 13.0743 3.75172 13.191C3.50439 13.303 3.30839 13.464 3.16372 13.674C3.02372 13.8793 2.95606 14.1267 2.96072 14.416C2.96072 14.7567 3.05872 15.0297 3.25472 15.235C3.45539 15.4403 3.74472 15.6083 4.12272 15.739L4.78072 15.963C4.98606 16.033 5.14939 16.124 5.27072 16.236C5.39672 16.348 5.45972 16.5043 5.45972 16.705C5.45972 16.8963 5.38972 17.0503 5.24972 17.167C5.10972 17.279 4.92072 17.335 4.68272 17.335C4.40739 17.335 4.19039 17.258 4.03172 17.104C3.87772 16.9453 3.79606 16.7517 3.78672 16.523H2.84172C2.84639 16.8543 2.92806 17.1367 3.08672 17.37C3.24539 17.5987 3.46239 17.776 3.73772 17.902ZM8.39048 17.874C8.67981 18.014 9.00415 18.084 9.36348 18.084C9.72281 18.084 10.0495 18.014 10.3435 17.874C10.6421 17.7293 10.8801 17.5123 11.0575 17.223C11.2348 16.9337 11.3235 16.5673 11.3235 16.124V13.1H10.4275V16.131C10.4275 16.5137 10.3341 16.7983 10.1475 16.985C9.96081 17.1717 9.70648 17.265 9.38448 17.265C9.05781 17.265 8.80115 17.1717 8.61448 16.985C8.43248 16.7983 8.34148 16.5137 8.34148 16.131V13.1H7.44548V16.124C7.44548 16.5673 7.52948 16.9337 7.69748 17.223C7.87015 17.5123 8.10115 17.7293 8.39048 17.874ZM12.5181 13.1V18H13.4141V14.619L14.7791 17.3H15.4861L16.8511 14.619V18H17.7471V13.1H16.6831L15.1431 16.208L13.5821 13.1H12.5181ZM18.9778 13.1V18H21.0148C21.5281 18 21.9248 17.874 22.2048 17.622C22.4848 17.37 22.6248 17.0503 22.6248 16.663C22.6248 16.369 22.5338 16.1123 22.3518 15.893C22.1698 15.669 21.9388 15.529 21.6588 15.473C21.8968 15.4077 22.0975 15.284 22.2608 15.102C22.4288 14.9153 22.5128 14.668 22.5128 14.36C22.5128 13.9913 22.3775 13.6903 22.1068 13.457C21.8408 13.219 21.4535 13.1 20.9448 13.1H18.9778ZM20.8118 15.158H19.8738V13.821H20.7978C21.0638 13.821 21.2621 13.8817 21.3928 14.003C21.5281 14.1197 21.5958 14.2807 21.5958 14.486C21.5958 14.7007 21.5281 14.8663 21.3928 14.983C21.2575 15.0997 21.0638 15.158 20.8118 15.158ZM20.8748 17.272H19.8738V15.83H20.8608C21.1221 15.83 21.3298 15.8953 21.4838 16.026C21.6378 16.1567 21.7148 16.3363 21.7148 16.565C21.7148 16.789 21.6402 16.964 21.4908 17.09C21.3461 17.2113 21.1408 17.272 20.8748 17.272ZM23.6738 13.1V18H24.5698V13.1H23.6738ZM26.9405 13.821V18H27.8365V13.821H29.2715V13.1H25.5125V13.821H26.9405Z" fill="#F2FAFF" fill-opacity="0.9"/>
</svg>
