<svg width="32" height="32" viewBox="0 0 32 32" fill="none" xmlns="http://www.w3.org/2000/svg">
<path d="M23.5 4.25C23.5 5.07843 24.1716 5.75 25 5.75H26C27.1046 5.75 28 6.64543 28 7.75V26.25C28 27.3546 27.1046 28.25 26 28.25H6C4.89543 28.25 4 27.3546 4 26.25V7.75C4 6.64543 4.89543 5.75 6 5.75H7C7.82843 5.75 8.5 5.07843 8.5 4.25C8.5 3.635 8.725 3.11 9.16 2.66C9.595 2.225 10.135 2 10.75 2C11.365 2 11.905 2.225 12.34 2.66C12.775 3.11 13 3.635 13 4.25C13 5.07843 13.6716 5.75 14.5 5.75H17.5C18.3284 5.75 19 5.07843 19 4.25C19 3.635 19.225 3.11 19.66 2.66C20.095 2.225 20.635 2 21.25 2C21.865 2 22.405 2.225 22.84 2.66C23.275 3.11 23.5 3.635 23.5 4.25ZM10 4.25V8C9.99817 8.099 10.0163 8.19734 10.0534 8.28917C10.0904 8.38099 10.1456 8.4644 10.2156 8.53441C10.2856 8.60442 10.369 8.6596 10.4608 8.69664C10.5527 8.73368 10.651 8.75183 10.75 8.75C10.849 8.75183 10.9473 8.73368 11.0392 8.69664C11.131 8.6596 11.2144 8.60442 11.2844 8.53441C11.3544 8.4644 11.4096 8.38099 11.4466 8.28917C11.4837 8.19734 11.5018 8.099 11.5 8V4.25C11.5 4.04 11.425 3.86 11.275 3.725C11.14 3.575 10.96 3.5 10.75 3.5C10.54 3.5 10.36 3.575 10.225 3.725C10.075 3.86 10 4.04 10 4.25ZM20.5 4.25V8C20.5 8.21 20.575 8.39 20.71 8.54C20.86 8.675 21.04 8.75 21.25 8.75C21.46 8.75 21.64 8.675 21.79 8.54C21.925 8.39 22 8.21 22 8V4.25C22.0018 4.151 21.9837 4.05266 21.9466 3.96083C21.9096 3.86901 21.8544 3.7856 21.7844 3.71559C21.7144 3.64558 21.631 3.5904 21.5392 3.55336C21.4473 3.51632 21.349 3.49817 21.25 3.5C21.151 3.49817 21.0527 3.51632 20.9608 3.55336C20.869 3.5904 20.7856 3.64558 20.7156 3.71559C20.6456 3.7856 20.5904 3.86901 20.5534 3.96083C20.5163 4.05266 20.4982 4.151 20.5 4.25ZM24.5 26.75C25.6046 26.75 26.5 25.8546 26.5 24.75V13.75C26.5 12.6454 25.6046 11.75 24.5 11.75H7.5C6.39543 11.75 5.5 12.6454 5.5 13.75V24.75C5.5 25.8546 6.39543 26.75 7.5 26.75H24.5ZM10 13.25C10.8284 13.25 11.5 13.9216 11.5 14.75C11.5 15.5784 10.8284 16.25 10 16.25C9.17157 16.25 8.5 15.5784 8.5 14.75C8.5 13.9216 9.17157 13.25 10 13.25ZM14.5 14.75C14.5 13.9216 15.1716 13.25 16 13.25C16.8284 13.25 17.5 13.9216 17.5 14.75C17.5 15.5784 16.8284 16.25 16 16.25C15.1716 16.25 14.5 15.5784 14.5 14.75ZM22 16.25C21.1716 16.25 20.5 15.5784 20.5 14.75C20.5 13.9216 21.1716 13.25 22 13.25C22.8284 13.25 23.5 13.9216 23.5 14.75C23.5 15.5784 22.8284 16.25 22 16.25ZM10 17.75C10.8284 17.75 11.5 18.4216 11.5 19.25C11.5 20.0784 10.8284 20.75 10 20.75C9.17157 20.75 8.5 20.0784 8.5 19.25C8.5 18.4216 9.17157 17.75 10 17.75ZM14.5 19.25C14.5 18.4216 15.1716 17.75 16 17.75C16.8284 17.75 17.5 18.4216 17.5 19.25C17.5 20.0784 16.8284 20.75 16 20.75C15.1716 20.75 14.5 20.0784 14.5 19.25ZM22 20.75C21.1716 20.75 20.5 20.0784 20.5 19.25C20.5 18.4216 21.1716 17.75 22 17.75C22.8284 17.75 23.5 18.4216 23.5 19.25C23.5 20.0784 22.8284 20.75 22 20.75ZM10 22.25C10.8284 22.25 11.5 22.9216 11.5 23.75C11.5 24.5784 10.8284 25.25 10 25.25C9.17157 25.25 8.5 24.5784 8.5 23.75C8.5 22.9216 9.17157 22.25 10 22.25ZM17.5 23.75C17.5 24.5784 16.8284 25.25 16 25.25C15.1716 25.25 14.5 24.5784 14.5 23.75C14.5 22.9216 15.1716 22.25 16 22.25C16.8284 22.25 17.5 22.9216 17.5 23.75ZM23.5 23.75C23.5 24.5784 22.8284 25.25 22 25.25C21.1716 25.25 20.5 24.5784 20.5 23.75C20.5 22.9216 21.1716 22.25 22 22.25C22.8284 22.25 23.5 22.9216 23.5 23.75Z" fill="#F2FAFF" fill-opacity="0.9"/>
</svg>
