<svg width="32" height="32" viewBox="0 0 32 32" fill="none" xmlns="http://www.w3.org/2000/svg">
<path fill-rule="evenodd" clip-rule="evenodd" d="M30 8C31.2 8 32 8.8 32 10V22C32 23.2 31.2 24 30 24H2C0.8 24 0 23.2 0 22V10C0 8.8 0.8 8 2 8H30ZM23.7441 18.2839C23.8253 18.317 23.9123 18.3338 24 18.3333C24.1693 18.331 24.3314 18.2642 24.4533 18.1467L27.12 15.5733C27.1907 15.515 27.2487 15.4426 27.2902 15.3608C27.3317 15.2791 27.3559 15.1896 27.3612 15.098C27.3666 15.0065 27.353 14.9148 27.3213 14.8287C27.2896 14.7427 27.2405 14.6641 27.177 14.5979C27.1136 14.5316 27.0371 14.4792 26.9525 14.4439C26.8679 14.4086 26.7768 14.3911 26.6851 14.3925C26.5934 14.394 26.503 14.4144 26.4195 14.4523C26.3361 14.4903 26.2613 14.5451 26.2 14.6133L24 16.7333L21.8067 14.5267C21.7445 14.4645 21.6707 14.4152 21.5895 14.3816C21.5083 14.3479 21.4212 14.3306 21.3333 14.3306C21.2454 14.3306 21.1584 14.3479 21.0772 14.3816C20.996 14.4152 20.9222 14.4645 20.86 14.5267C20.7978 14.5888 20.7485 14.6626 20.7149 14.7438C20.6813 14.8251 20.6639 14.9121 20.6639 15C20.6639 15.0879 20.6813 15.175 20.7149 15.2562C20.7485 15.3374 20.7978 15.4112 20.86 15.4733L23.5267 18.14C23.589 18.2018 23.6628 18.2507 23.7441 18.2839Z" fill="#F2FAFF" fill-opacity="0.9"/>
</svg>
