<svg width="20" height="20" viewBox="0 0 20 20" fill="none" xmlns="http://www.w3.org/2000/svg">
<path fill-rule="evenodd" clip-rule="evenodd" d="M18 2V7H16V4L4 4L4 7H2V2H18ZM2 18V13H4V16H16V13H18V18H2ZM13.5266 7.50323L14.0545 6.98584L16.4884 9.41972L17.0005 9.94231L16.4884 10.465L13.7483 13.2051L13.2257 12.6824L12.7031 12.1597L14.9205 9.94236L13.0092 8.03096L13.5266 7.50323ZM6.34593 13.2051L6.87383 12.6877L7.39122 12.16L5.47992 10.2486L7.69727 8.03122L7.17467 7.50852L6.65209 6.98582L3.91199 9.72591L3.39991 10.2486L3.91199 10.7712L6.34593 13.2051ZM13.0222 5.38513L11.6787 4.76855L7.36265 14.1733L8.70618 14.7899L13.0222 5.38513Z" fill="#939090"/>
</svg>
