<svg width="20" height="26" viewBox="0 0 20 26" fill="none" xmlns="http://www.w3.org/2000/svg">
<path d="M12.1996 0H1.48041C0.664088 0 0 0.637982 0 1.42222V24.5778C0 25.362 0.664088 26 1.48041 26H18.5196C19.3359 26 20 25.362 20 24.5778V7.01946C20 6.63973 19.846 6.28264 19.5665 6.01396L13.2298 0.400946C12.9523 0.142222 12.5873 0 12.1996 0ZM18.1495 24.2222H1.85052V1.77777H10.7044V6.54646C10.7044 7.59949 11.5957 8.45626 12.6912 8.45626H18.1495V24.2222ZM12.6912 6.67849C12.6161 6.67849 12.5549 6.61923 12.5549 6.54646V2.80366L16.8688 6.67837L12.6912 6.67849ZM4.54844 11.5917C3.91433 11.5917 3.39853 12.0873 3.39853 12.6964C3.39853 13.3055 3.91446 13.8011 4.54844 13.8011C5.18255 13.8011 5.69835 13.3054 5.69835 12.6964C5.69835 12.0873 5.18243 11.5917 4.54844 11.5917ZM6.64569 11.8076H16.4534V13.5854H6.64569V11.8076ZM4.54844 15.1472C3.91433 15.1472 3.39853 15.6428 3.39853 16.2519C3.39853 16.861 3.91446 17.3566 4.54844 17.3566C5.18255 17.3566 5.69835 16.861 5.69835 16.2519C5.69835 15.6428 5.18243 15.1472 4.54844 15.1472ZM6.64569 15.363H16.4534V17.1408H6.64569V15.363ZM4.54844 18.7027C3.91433 18.7027 3.39853 19.1984 3.39853 19.8074C3.39853 20.4165 3.91446 20.9121 4.54844 20.9121C5.18255 20.9121 5.69835 20.4165 5.69835 19.8074C5.69835 19.1984 5.18243 18.7027 4.54844 18.7027ZM6.64569 18.9186H16.4534V20.6963H6.64569V18.9186Z" fill="#F1F7FC"/>
</svg>
