<svg width="32" height="32" fill="none" viewBox="0 0 32 32" xmlns="http://www.w3.org/2000/svg">
  <g transform="scale(0.98776397,1.0123876)" fill-opacity=".9" fill="#F2FAFF">
    <path
      d="m 9.6523917,21.705068 v 1.067836 H 9.192629 q -1.8464664,0 -2.4767862,-0.548749 -0.6229043,-0.548749 -0.6229043,-2.187581 v -1.772311 q 0,-1.119744 -0.4004385,-1.549845 Q 5.2920615,16.284317 4.2390566,16.284317 H 3.7867094 v -1.06042 h 0.4523472 q 1.0604204,0 1.4534434,-0.422685 0.4004385,-0.430101 0.4004385,-1.535014 v -1.779727 q 0,-1.6388314 0.6229043,-2.1801649 Q 7.3461626,8.757557 9.192629,8.757557 H 9.6523917 V 9.8179775 H 9.1481358 q -1.0455894,0 -1.3644571,0.3262835 -0.3188676,0.326283 -0.3188676,1.371872 v 1.839051 q 0,1.164238 -0.3411143,1.69074 -0.3336987,0.526503 -1.1494068,0.711891 0.8231236,0.200219 1.1568223,0.726722 0.3336988,0.526502 0.3336988,1.683324 v 1.839051 q 0,1.04559 0.3188676,1.371873 0.3188677,0.326283 1.3644571,0.326283 z"/>
    <path d="m 13.174768,15 h 1.564676 v 1.883544 h -1.564676 z"/>
    <path d="m 18.002276,15 h 1.564676 v 1.883544 h -1.564676 z"/>
    <path
      d="m 23.104159,21.705068 h 0.519087 q 1.038174,0 1.349626,-0.318868 0.318868,-0.318867 0.318868,-1.379288 v -1.839051 q 0,-1.156822 0.333698,-1.683324 0.333699,-0.526503 1.156823,-0.726722 -0.823124,-0.185388 -1.156823,-0.711891 -0.333698,-0.526502 -0.333698,-1.69074 v -1.839051 q 0,-1.053005 -0.318868,-1.371872 Q 24.66142,9.8179775 23.623246,9.8179775 H 23.104159 V 8.757557 h 0.467178 q 1.846467,0 2.461955,0.5487491 0.622905,0.5413335 0.622905,2.1801649 v 1.779727 q 0,1.104913 0.400438,1.535014 0.400439,0.422685 1.453444,0.422685 h 0.459762 v 1.06042 h -0.459762 q -1.053005,0 -1.453444,0.430101 -0.400438,0.430101 -0.400438,1.549845 v 1.772311 q 0,1.638832 -0.622905,2.187581 -0.615488,0.548749 -2.461955,0.548749 h -0.467178 z"/>
  </g>
</svg>
