<svg xmlns="http://www.w3.org/2000/svg" width="32" height="32" fill="none" viewBox="0 0 32 32"><path fill="#F2FAFF" fill-opacity=".9" d="M16 2.664C20.416 2.664 24 6.216 24 10.5973C24 16.548 16 25.3307 16 25.3307C16 25.3307 8.00001 16.548 8.00001 10.5973C8.00001 6.216 11.5813 2.664 16 2.664ZM16 8C15.2928 8 14.6145 8.28095 14.1144 8.78105C13.6143 9.28115 13.3333 9.95942 13.3333 10.6667C13.3333 11.3739 13.6143 12.0522 14.1144 12.5523C14.6145 13.0524 15.2928 13.3333 16 13.3333C16.7073 13.3333 17.3855 13.0524 17.8856 12.5523C18.3857 12.0522 18.6667 11.3739 18.6667 10.6667C18.6667 9.95942 18.3857 9.28115 17.8856 8.78105C17.3855 8.28095 16.7073 8 16 8ZM26.6667 25.3333C26.6667 28.28 21.8907 30.6667 16 30.6667C10.1093 30.6667 5.33334 28.28 5.33334 25.3333C5.33334 23.6147 6.96001 22.0867 9.48401 21.1107L10.328 22.316C8.88801 22.92 8.00001 23.7493 8.00001 24.6667C8.00001 26.5067 11.5813 28 16 28C20.4187 28 24 26.5067 24 24.6667C24 23.7493 23.1107 22.92 21.672 22.316L22.516 21.1107C25.0413 22.0867 26.6667 23.6147 26.6667 25.3333Z"/></svg>