<svg width="24" height="24" viewBox="0 0 24 24" fill="none" xmlns="http://www.w3.org/2000/svg">
<path fill-rule="evenodd" clip-rule="evenodd" d="M9.50001 11.8034V18.5L14.5 21V11.55L12 15C11.3917 14.2179 10.4119 12.9626 9.50001 11.8034Z" fill="#EAEAEA"/>
<path fill-rule="evenodd" clip-rule="evenodd" d="M15.5 10.17V21L20.5 18V6L17 8.1L15.5 10.17Z" fill="#EAEAEA"/>
<path d="M3.5 9V21L8.5 18V10.5374C8.5 10.5374 7.83441 9.63336 7.5 9C7.12002 8.28033 6.72229 7.06662 6.72229 7.06662L3.5 9Z" fill="#EAEAEA"/>
<path fill-rule="evenodd" clip-rule="evenodd" d="M9.156 9.87818C8.30491 8.73014 7.6001 7.67255 7.6001 6.35454C7.6001 3.95998 9.56402 2.01104 11.9822 2H12.0033C14.4311 2 16.4066 3.95362 16.4066 6.35454C16.4066 7.67255 15.7018 8.73038 14.8507 9.87818C14.8507 9.87818 12.1183 13.3703 12.007 13.5208L9.156 9.87818Z" fill="#EAEAEA"/>
</svg>
