<svg width="22" height="29" viewBox="0 0 22 29" fill="none" xmlns="http://www.w3.org/2000/svg">
<path d="M10.9997 0.664001C15.4157 0.664001 18.9997 4.216 18.9997 8.59733C18.9997 14.548 10.9997 23.3307 10.9997 23.3307C10.9997 23.3307 2.99967 14.548 2.99967 8.59733C2.99967 4.216 6.58101 0.664001 10.9997 0.664001ZM10.9997 6C10.2924 6 9.61415 6.28095 9.11406 6.78105C8.61396 7.28115 8.33301 7.95942 8.33301 8.66667C8.33301 9.37391 8.61396 10.0522 9.11406 10.5523C9.61415 11.0524 10.2924 11.3333 10.9997 11.3333C11.7069 11.3333 12.3852 11.0524 12.8853 10.5523C13.3854 10.0522 13.6663 9.37391 13.6663 8.66667C13.6663 7.95942 13.3854 7.28115 12.8853 6.78105C12.3852 6.28095 11.7069 6 10.9997 6ZM21.6663 23.3333C21.6663 26.28 16.8903 28.6667 10.9997 28.6667C5.10901 28.6667 0.333008 26.28 0.333008 23.3333C0.333008 21.6147 1.95967 20.0867 4.48367 19.1107L5.32767 20.316C3.88767 20.92 2.99967 21.7493 2.99967 22.6667C2.99967 24.5067 6.58101 26 10.9997 26C15.4183 26 18.9997 24.5067 18.9997 22.6667C18.9997 21.7493 18.1103 20.92 16.6717 20.316L17.5157 19.1107C20.041 20.0867 21.6663 21.6147 21.6663 23.3333Z" fill="white"/>
</svg>
