<svg width="32" height="32" viewBox="0 0 32 32" fill="none" xmlns="http://www.w3.org/2000/svg">
<path d="M8.5 14.25C8.5 13.8358 8.83579 13.5 9.25 13.5H10.75C11.1642 13.5 11.5 13.8358 11.5 14.25C11.5 14.6642 11.1642 15 10.75 15H9.25C8.83579 15 8.5 14.6642 8.5 14.25Z" fill="#F2FAFF" fill-opacity="0.9"/>
<path d="M13 14.25C13 13.8358 13.3358 13.5 13.75 13.5H22.75C23.1642 13.5 23.5 13.8358 23.5 14.25C23.5 14.6642 23.1642 15 22.75 15H13.75C13.3358 15 13 14.6642 13 14.25Z" fill="#F2FAFF" fill-opacity="0.9"/>
<path d="M8.5 17.25C8.5 16.8358 8.83579 16.5 9.25 16.5H10.75C11.1642 16.5 11.5 16.8358 11.5 17.25C11.5 17.6642 11.1642 18 10.75 18H9.25C8.83579 18 8.5 17.6642 8.5 17.25Z" fill="#F2FAFF" fill-opacity="0.9"/>
<path d="M13 17.25C13 16.8358 13.3358 16.5 13.75 16.5H22.75C23.1642 16.5 23.5 16.8358 23.5 17.25C23.5 17.6642 23.1642 18 22.75 18H13.75C13.3358 18 13 17.6642 13 17.25Z" fill="#F2FAFF" fill-opacity="0.9"/>
<path d="M8.5 20.25C8.5 19.8358 8.83579 19.5 9.25 19.5H10.75C11.1642 19.5 11.5 19.8358 11.5 20.25C11.5 20.6642 11.1642 21 10.75 21H9.25C8.83579 21 8.5 20.6642 8.5 20.25Z" fill="#F2FAFF" fill-opacity="0.9"/>
<path d="M13 20.25C13 19.8358 13.3358 19.5 13.75 19.5H22.75C23.1642 19.5 23.5 19.8358 23.5 20.25C23.5 20.6642 23.1642 21 22.75 21H13.75C13.3358 21 13 20.6642 13 20.25Z" fill="#F2FAFF" fill-opacity="0.9"/>
<path d="M5 6C4.44772 6 4 6.44772 4 7V26C4 26.5523 4.44772 27 5 27H27C27.5523 27 28 26.5523 28 26V7C28 6.44772 27.5523 6 27 6H5ZM26.5 24.5C26.5 25.0523 26.0523 25.5 25.5 25.5H6.5C5.94772 25.5 5.5 25.0523 5.5 24.5V11.5C5.5 10.9477 5.94772 10.5 6.5 10.5H25.5C26.0523 10.5 26.5 10.9477 26.5 11.5V24.5ZM26.5 8.25C26.5 8.66421 26.1642 9 25.75 9C25.3358 9 25 8.66421 25 8.25C25 7.83579 25.3358 7.5 25.75 7.5C26.1642 7.5 26.5 7.83579 26.5 8.25Z" fill="#F2FAFF" fill-opacity="0.9"/>
</svg>
