<svg width="16" height="16" fill="none" xmlns="http://www.w3.org/2000/svg"><path fill-rule="evenodd" clip-rule="evenodd" d="M4 0v4H0V0h4zM.571 3.429V.57H3.43V3.43H.57zM4 6v4H0V6h4zM.571 9.429V6.57H3.43V9.43H.57zM4 12v4H0v-4h4zM.571 15.429V12.57H3.43v2.858H.57z" fill="#EAEAEA"/><path d="M.857 2.271l.404-.404.404.404 1.01-1.01.405.404L1.665 3.08.857 2.27zM.857 8.271l.404-.404.404.404 1.01-1.01.405.404L1.665 9.08.857 8.27z" fill="#EAEAEA"/><path stroke="#FFF" fill="#EAEAEA" d="M6 1h10v2H6zM6 7h10v2H6zM6 13h10v2H6z"/></svg>