<svg width="32" height="32" viewBox="0 0 32 32" fill="none" xmlns="http://www.w3.org/2000/svg">
<path d="M15 8.5C11.412 8.5 8.5 11.412 8.5 15C8.5 18.588 11.412 21.5 15 21.5C18.588 21.5 21.5 18.588 21.5 15C21.5 11.412 18.588 8.5 15 8.5ZM15 2C7.824 2 2 7.824 2 15C2 22.176 7.824 28 15 28C22.176 28 28 22.176 28 15C28 7.824 22.176 2 15 2ZM15 25.4C9.254 25.4 4.6 20.746 4.6 15C4.6 9.254 9.254 4.6 15 4.6C20.746 4.6 25.4 9.254 25.4 15C25.4 20.746 20.746 25.4 15 25.4Z" fill="#F2FAFF" fill-opacity="0.9"/>
</svg>
