<svg fill="none" height="32" viewBox="0 0 32 32" width="32" xmlns="http://www.w3.org/2000/svg"><g fill="#4b4848"><path clip-rule="evenodd" d="m16.0001 6.66669c5.1546 0 9.3333 4.17871 9.3333 9.33331 0 5.1547-4.1787 9.3334-9.3333 9.3334-5.1547 0-9.33335-4.1787-9.33335-9.3334 0-5.1546 4.17865-9.33331 9.33335-9.33331zm0 16.00001c-3.6819 0-6.66669-2.9848-6.66669-6.6667s2.98479-6.66665 6.66669-6.66665 6.6666 2.98475 6.6666 6.66665-2.9847 6.6667-6.6666 6.6667z" fill-rule="evenodd"/><path d="m16.0001 20c-2.2092 0-4-1.7908-4-4 0-2.2091 1.7908-4 4-4 2.2091 0 4 1.7909 4 4 0 2.2092-1.7909 4-4 4z"/></g></svg>