<svg width="24" height="24" viewBox="0 0 24 24" fill="none" xmlns="http://www.w3.org/2000/svg">
<path d="M12.5049 5H12.3431C11.1022 5 10.0771 6.21277 10.0771 7.68085V11.5426C10.0771 13.0106 11.1022 14.2234 12.3431 14.2234H12.5049C13.7458 14.2234 14.7709 13.0106 14.7709 11.5426V7.68085C14.7709 6.21277 13.7458 5 12.5049 5Z" fill="#EAEAEA"/>
<path d="M16.848 11.5745C16.848 11.2234 16.6052 10.9362 16.3085 10.9362C16.0118 10.9362 15.769 11.2234 15.769 11.5745C15.769 13.7766 14.2584 15.5319 12.424 15.5319C10.5897 15.5319 9.07903 13.7766 9.07903 11.5745C9.07903 11.2234 8.83625 10.9362 8.53951 10.9362C8.24278 10.9362 8 11.2234 8 11.5745C8 14.2553 9.69947 16.4574 11.8845 16.7447V18.7234H10.6706C10.3739 18.7234 10.1311 19.0106 10.1311 19.3617C10.1311 19.7128 10.3739 20 10.6706 20H14.1505C14.4472 20 14.69 19.7128 14.69 19.3617C14.69 19.0106 14.4472 18.7234 14.1505 18.7234H12.9635V16.7447C15.1486 16.4574 16.848 14.2553 16.848 11.5745Z" fill="#EAEAEA"/>
</svg>
