<svg width="24" height="24" viewBox="0 0 24 24" fill="none" xmlns="http://www.w3.org/2000/svg">
<path d="M12.0066 2H11.7907C10.1362 2 8.76947 3.61702 8.76947 5.57447V10.7234C8.76947 12.6809 10.1362 14.2979 11.7907 14.2979H12.0066C13.6611 14.2979 15.0278 12.6809 15.0278 10.7234V5.57447C15.0278 3.61702 13.6611 2 12.0066 2Z" fill="#EAEAEA"/>
<path d="M17.7974 10.766C17.7974 10.2979 17.4737 9.91489 17.078 9.91489C16.6824 9.91489 16.3587 10.2979 16.3587 10.766C16.3587 13.7021 14.3445 16.0426 11.8987 16.0426C9.45289 16.0426 7.4387 13.7021 7.4387 10.766C7.4387 10.2979 7.115 9.91489 6.71935 9.91489C6.32371 9.91489 6 10.2979 6 10.766C6 14.3404 8.26596 17.2766 11.1793 17.6596V20.2979H9.56079C9.16515 20.2979 8.84144 20.6809 8.84144 21.1489C8.84144 21.617 9.16515 22 9.56079 22H14.2006C14.5963 22 14.92 21.617 14.92 21.1489C14.92 20.6809 14.5963 20.2979 14.2006 20.2979H12.618V17.6596C15.5314 17.2766 17.7974 14.3404 17.7974 10.766Z" fill="#EAEAEA"/>
</svg>
