<svg fill="none" height="32" viewBox="0 0 32 32" width="32" xmlns="http://www.w3.org/2000/svg"><path clip-rule="evenodd" d="m0 10c0-1.10457.895431-2 2-2h28c1.1046 0 2 .89543 2 2v12c0 1.1046-.8954 2-2 2h-28c-1.104569 0-2-.8954-2-2zm22.9758 3.778c-.0012-.1311.0497-.2564.1416-.3485.0918-.092.2171-.1432.3482-.1422l4.1957.0306c.1311.001.2574.054.351.1474.0935.0934.1468.2195.148.3506l.0392 4.1956c-.0011.1296-.053.2528-.1446.343s-.2156.1402-.3453.1393c-.1296-.001-.2546-.0528-.3479-.1443-.0933-.0916-.1476-.2155-.151-.3452l-.028-3.002-4.0132 4.0214c-.0919.092-.2172.1432-.3483.1422-.1311-.0009-.2574-.0539-.351-.1473-.0936-.0935-.1469-.2196-.1481-.3507-.0012-.1312.0497-.2566.1416-.3486l4.0132-4.0214-3.0021-.0219c-.1311-.0009-.2573-.054-.3509-.1473-.0936-.0934-.1468-.2196-.1481-.3507zm-18.03439-.821v7.043h1.3125v-8.4551h-1.30664l-2.22657 1.5703v1.3418l2.1211-1.5zm5.29999-.873c-.53124.4922-.79687 1.1269-.79687 1.9043v.0176h1.24217v-.0176c0-.4531.1426-.8184.4278-1.0957.289-.2774.666-.416 1.1308-.416.4375 0 .8027.1289 1.0957.3867s.4395.5801.4395.9668c0 .3125-.0938.6191-.2813.9199-.1875.2969-.5625.7383-1.125 1.3242l-2.85936 2.9766v.9492h5.69536v-1.1777h-3.8672v-.0996l1.8808-1.9043c.7071-.7149 1.1914-1.2911 1.4532-1.7286.2656-.4414.3984-.8867.3984-1.3359 0-.6953-.2637-1.2715-.791-1.7285-.5274-.457-1.1934-.6856-1.9981-.6856-.832 0-1.5136.2481-2.0449.7442z" fill="#4b4848" fill-rule="evenodd"/></svg>