<svg width="24" height="24" viewBox="0 0 24 24" fill="none" xmlns="http://www.w3.org/2000/svg">
<rect x="4" y="6" width="10" height="2" fill="#EAEAEA"/>
<path d="M19.2826 13H20V15.1376H19.2826V13Z" fill="#EAEAEA"/>
<path d="M19.3697 13.1425L19.8769 13.6463L17.5073 16L17 15.4962L19.3697 13.1425Z" fill="#EAEAEA"/>
<path d="M20 13V13.7125L17.8479 13.7125V13L20 13Z" fill="#EAEAEA"/>
<path d="M5.27148 16.0586H6.30371V11.1265H5.2749L4 12.0117V12.9414L5.20996 12.1006H5.27148V16.0586Z" fill="#EAEAEA"/>
<path d="M7.42543 16.0586H10.9835V15.228H8.80971V15.1494L9.72231 14.2983C10.6212 13.4678 10.9118 13.0029 10.9118 12.4424V12.4321C10.9118 11.5811 10.2008 11 9.18569 11C8.10561 11 7.36733 11.6494 7.36733 12.5962L7.37075 12.6099H8.32436V12.5928C8.32436 12.1245 8.6559 11.8032 9.13784 11.8032C9.60952 11.8032 9.89663 12.0972 9.89663 12.5176V12.5278C9.89663 12.873 9.70864 13.1226 9.01479 13.7959L7.42543 15.3647V16.0586Z" fill="#EAEAEA"/>
<path d="M13.5511 16.168C14.7029 16.168 15.472 15.563 15.472 14.6675V14.6606C15.472 13.9907 14.9934 13.5669 14.2586 13.4985V13.478C14.8362 13.3584 15.2874 12.9585 15.2874 12.3433V12.3364C15.2874 11.5503 14.6038 11.0171 13.5442 11.0171C12.5086 11.0171 11.8147 11.5913 11.743 12.4731L11.7395 12.5142H12.6897L12.6932 12.4834C12.7342 12.0732 13.0589 11.8101 13.5442 11.8101C14.0296 11.8101 14.3133 12.063 14.3133 12.4731V12.48C14.3133 12.8799 13.9783 13.1533 13.4588 13.1533H12.9085V13.8882H13.4725C14.0706 13.8882 14.4226 14.1479 14.4226 14.6196V14.6265C14.4226 15.0435 14.0774 15.3374 13.5511 15.3374C13.0179 15.3374 12.6658 15.064 12.6214 14.6812L12.618 14.6436H11.6302L11.6336 14.688C11.7019 15.5698 12.4368 16.168 13.5511 16.168Z" fill="#EAEAEA"/>
</svg>
