<svg width="32" height="32" viewBox="0 0 32 32" fill="none" xmlns="http://www.w3.org/2000/svg">
<path d="M5.00003 7C4.44775 7 4.00003 7.44772 4.00003 8V9.78947C4.00003 10.3418 4.44775 10.7895 5.00003 10.7895H9.31582C9.86811 10.7895 10.3158 11.2372 10.3158 11.7895V24.9474C10.3158 25.4997 10.7635 25.9474 11.3158 25.9474H13.1053C13.6576 25.9474 14.1053 25.4997 14.1053 24.9474V11.7895C14.1053 11.2372 14.553 10.7895 15.1053 10.7895H19.4211C19.9734 10.7895 20.4211 10.3418 20.4211 9.78947V8C20.4211 7.44772 19.9734 7 19.4211 7H5.00003ZM28 14.3158C28 13.7635 27.5523 13.3158 27 13.3158H17.6316C17.0793 13.3158 16.6316 13.7635 16.6316 14.3158V16.1053C16.6316 16.6575 17.0793 17.1053 17.6316 17.1053H19.4211C19.9734 17.1053 20.4211 17.553 20.4211 18.1053V24.9474C20.4211 25.4997 20.8688 25.9474 21.4211 25.9474H23.2106C23.7628 25.9474 24.2106 25.4997 24.2106 24.9474V18.1053C24.2106 17.553 24.6583 17.1053 25.2106 17.1053H27C27.5523 17.1053 28 16.6575 28 16.1053V14.3158Z" fill="#F2FAFF" fill-opacity="0.9"/>
</svg>
