<svg xmlns="http://www.w3.org/2000/svg" width="10" height="10" fill="none" viewBox="0 0 10 10"><path fill="#716E6E" d="M0.646484 8.53125C0.447266 8.73047 0.441406 9.07031 0.646484 9.26953C0.851562 9.46875 1.19141 9.46875 1.39062 9.26953L5.14062 5.51953L8.89062 9.26953C9.08984 9.46875 9.43555 9.47461 9.63477 9.26953C9.83398 9.06445 9.83398 8.73047 9.63477 8.53125L5.88477 4.77539L9.63477 1.02539C9.83398 0.826172 9.83984 0.486328 9.63477 0.287109C9.42969 0.0820312 9.08984 0.0820312 8.89062 0.287109L5.14062 4.03711L1.39062 0.287109C1.19141 0.0820312 0.845703 0.0761719 0.646484 0.287109C0.447266 0.492188 0.447266 0.826172 0.646484 1.02539L4.39648 4.77539L0.646484 8.53125Z"/></svg>