<svg xmlns="http://www.w3.org/2000/svg" width="20" height="20" fill="none" viewBox="0 0 20 20"><path fill="#2E3D49" d="M19.5088 1.48748L18.515 0.493726C18.4775 0.456226 18.4306 0.439819 18.3814 0.439819C18.3322 0.439819 18.2853 0.458569 18.2478 0.493726L16.4642 2.27732C15.6889 1.75197 14.7735 1.47188 13.8369 1.47341C12.6369 1.47341 11.4369 1.93044 10.5205 2.84685L8.1322 5.23513C8.09731 5.27037 8.07773 5.31796 8.07773 5.36755C8.07773 5.41715 8.09731 5.46474 8.1322 5.49998L14.5002 11.8679C14.5377 11.9054 14.5845 11.9219 14.6338 11.9219C14.6806 11.9219 14.7299 11.9031 14.7674 11.8679L17.1556 9.47966C18.7705 7.86248 18.9603 5.36169 17.7252 3.53826L19.5088 1.75466C19.5814 1.67966 19.5814 1.56013 19.5088 1.48748ZM11.5681 10.8133C11.5329 10.7784 11.4853 10.7588 11.4357 10.7588C11.3861 10.7588 11.3385 10.7784 11.3033 10.8133L9.74236 12.3742L7.62595 10.2578L9.18923 8.69451C9.26189 8.62185 9.26189 8.50232 9.18923 8.42966L8.33611 7.57654C8.30087 7.54164 8.25328 7.52207 8.20369 7.52207C8.15409 7.52207 8.10651 7.54164 8.07127 7.57654L6.50798 9.13982L5.50017 8.13201C5.48268 8.1145 5.46183 8.1007 5.43887 8.09143C5.41592 8.08217 5.39133 8.07764 5.36658 8.0781C5.3197 8.0781 5.27048 8.09685 5.23298 8.13201L2.84705 10.5203C1.2322 12.1351 1.04236 14.6383 2.27752 16.4617L0.493922 18.2453C0.459028 18.2805 0.439453 18.3281 0.439453 18.3777C0.439453 18.4273 0.459028 18.4749 0.493922 18.5101L1.48767 19.5039C1.52517 19.5414 1.57205 19.5578 1.62127 19.5578C1.67048 19.5578 1.71736 19.539 1.75486 19.5039L3.53845 17.7203C4.3283 18.257 5.24705 18.5242 6.1658 18.5242C7.3658 18.5242 8.5658 18.0672 9.4822 17.1508L11.8705 14.7625C11.9431 14.6898 11.9431 14.5703 11.8705 14.4976L10.8627 13.4898L12.426 11.9265C12.4986 11.8539 12.4986 11.7344 12.426 11.6617L11.5681 10.8133Z"/></svg>