<svg xmlns="http://www.w3.org/2000/svg" width="90" height="91" fill="none" viewBox="0 0 90 91"><path fill="#fff" d="M76.2944 33.5316C77.5958 32.2298 78.6281 30.6844 79.3324 28.9836C80.0366 27.2828 80.399 25.4599 80.3988 23.619C80.3987 21.7781 80.0359 19.9553 79.3314 18.2547C78.6268 16.554 77.5943 15.0087 76.2926 13.7072C74.9909 12.4056 73.4457 11.3732 71.7451 10.6688C70.0444 9.96452 68.2218 9.6021 66.3811 9.60227C64.5404 9.60244 62.7178 9.96519 61.0173 10.6698C59.3169 11.3744 57.7718 12.4071 56.4704 13.709L41.9982 28.1814C39.3734 30.8118 37.8993 34.3761 37.8993 38.0922C37.8993 41.8084 39.3734 45.3727 41.9982 48.0031C42.8985 48.9035 43.4042 50.1247 43.4042 51.398C43.4042 52.6713 42.8985 53.8925 41.9982 54.7929C41.0979 55.6933 39.8769 56.1992 38.6037 56.1992C37.3305 56.1992 36.1094 55.6934 35.2091 54.793C30.7864 50.3604 28.3025 44.3542 28.3025 38.0922C28.3025 31.8303 30.7864 25.8241 35.2091 21.3915L49.6813 6.91909C54.1103 2.48919 60.1174 0.000322594 66.3812 3.13149e-08C69.4827 -0.000159685 72.5538 0.610639 75.4193 1.79752C78.2848 2.98441 80.8885 4.72413 83.0817 6.91737C85.2749 9.1106 87.0147 11.7144 88.2018 14.5801C89.3888 17.4458 89.9998 20.5172 90 23.6191C90.0002 26.7209 89.3894 29.7925 88.2027 32.6583C87.0159 35.5241 85.2764 38.1281 83.0834 40.3215L75.915 47.4894C75.0144 48.3885 73.7937 48.8933 72.5212 48.8928C71.2487 48.8922 70.0285 48.3864 69.1287 47.4865C68.2289 46.5866 67.7232 45.3662 67.7226 44.0936C67.7221 42.8209 68.2269 41.6001 69.1259 40.6995L76.2944 33.5316ZM6.90641 83.0961C11.3397 87.5188 17.3459 90.0024 23.6076 90.0022C29.8694 90.002 35.8755 87.5181 40.3085 83.0951L54.7802 68.6237C56.9734 66.4307 58.7132 63.8271 59.9002 60.9616C61.0872 58.096 61.6981 55.0247 61.6981 51.923C61.6981 48.8213 61.0872 45.75 59.9002 42.8844C58.7132 40.0189 56.9734 37.4153 54.7802 35.2223C53.8797 34.3231 52.659 33.8183 51.3865 33.8189C50.114 33.8194 48.8937 34.3252 47.9939 35.2251C47.0941 36.125 46.5884 37.3454 46.5879 38.6181C46.5874 39.8907 47.0921 41.1115 47.9912 42.0121C49.2928 43.3136 50.3253 44.8588 51.0297 46.5594C51.7342 48.26 52.0967 50.0827 52.0967 51.9235C52.0967 53.7642 51.7342 55.587 51.0297 57.2876C50.3253 58.9882 49.2928 60.5333 47.9912 61.8348L33.5195 76.3062C32.218 77.6081 30.673 78.6408 28.9725 79.3454C27.272 80.05 25.4494 80.4128 23.6087 80.4129C21.7681 80.4131 19.9454 80.0507 18.2448 79.3464C16.5442 78.6421 14.9989 77.6096 13.6972 76.3081C11.0684 73.6794 9.59136 70.114 9.59102 66.3962C9.59085 64.5553 9.95323 62.7325 10.6575 61.0316C11.3617 59.3308 12.394 57.7854 13.6954 56.4836L20.8634 49.3157C21.7625 48.4151 22.2672 47.1943 22.2667 45.9217C22.2662 44.649 21.7605 43.4286 20.8607 42.5287C19.9609 41.6288 18.7406 41.123 17.4681 41.1225C16.1956 41.1219 14.9749 41.6267 14.0744 42.5259L6.90641 49.6937C2.48379 54.1265 0 60.1329 0 66.3949C0 72.657 2.48379 78.6634 6.90641 83.0961V83.0961Z"/></svg>