<svg xmlns="http://www.w3.org/2000/svg" width="14" height="14" fill="none" viewBox="0 0 14 14"><path fill="#F86A2B" fill-rule="evenodd" d="M5.64268 3.03595L5.90731 1.3999H8.09268L8.35731 3.03595C8.92037 3.21109 9.42751 3.49525 9.86401 3.85804L11.4774 3.23537L12.6 5.02199L11.2555 6.07606C11.3262 6.37368 11.3665 6.68187 11.3665 6.9999C11.3665 7.31793 11.3262 7.62611 11.2555 7.92373L12.6 8.97781L11.4774 10.7644L9.86401 10.1418C9.42751 10.5046 8.92037 10.7887 8.35731 10.9639L8.09268 12.5999H5.90731L5.64268 10.9639C5.0796 10.7887 4.57248 10.5046 4.13598 10.1418L2.52255 10.7644L1.39999 8.97781L2.7445 7.92373C2.67379 7.62611 2.63354 7.31793 2.63354 6.9999C2.63354 6.68187 2.67379 6.37368 2.7445 6.07606L1.39999 5.02199L2.52255 3.23537L4.13598 3.85804C4.57249 3.49525 5.0796 3.21109 5.64268 3.03595ZM9.09999 6.9999C9.09999 5.84011 8.1598 4.8999 6.99999 4.8999C5.8402 4.8999 4.89999 5.84011 4.89999 6.9999C4.89999 8.15969 5.8402 9.0999 6.99999 9.0999C8.1598 9.0999 9.09999 8.15969 9.09999 6.9999Z" clip-rule="evenodd"/></svg>