<svg xmlns="http://www.w3.org/2000/svg" width="560" height="560" fill="none"><path fill="#FF6D2D" d="M560 48.404H48.41v511.591H560V48.405Z"/><path fill="#fff" d="M515.052 3.49H3.462v511.59h511.59V3.49Z"/><path fill="#000" fill-rule="evenodd" d="M0 0h518.504v518.504H0V0Zm14.317 14.317v489.869h489.869V14.317H14.317Z" clip-rule="evenodd"/><path fill="#000" d="M203.286 319.461c-2.057-3.593-3.628-10.653-4.711-21.18-11.659 16.808-30.271 25.216-55.837 25.223-19.051 0-34.241-4.598-45.57-13.795-11.33-9.196-16.99-21.976-16.983-38.338 0-31.622 22.198-49.672 66.596-54.15l26.231-2.355c8.744-1.118 15.022-3.193 18.835-6.224 3.813-3.031 5.72-7.581 5.72-13.65 0-7.393-2.401-12.831-7.201-16.315-4.801-3.484-12.931-5.222-24.39-5.216-12.344 0-21.198 2.058-26.56 6.172-5.363 4.115-8.504 11.234-9.423 21.356H88.26c2.455-39.46 28.463-59.19 78.025-59.19 48.217 0 72.322 17.378 72.315 52.133v92.612c0 15.251 2.356 26.224 7.067 32.917h-42.381Zm-18.166-37.156c8.298-7.296 12.447-17.782 12.447-31.456v-15.801c-4.033 3.58-10.647 5.932-19.843 7.057l-22.868 2.695c-11.212 1.372-19.229 4.005-24.05 7.9-4.821 3.895-7.222 9.557-7.201 16.984 0 7.406 2.52 13.18 7.561 17.323 5.04 4.142 12.272 6.199 21.694 6.172 13.222.034 23.975-3.591 32.26-10.874ZM272.807 376.655v-32.29H438.28v32.29H272.807Z"/></svg>