<?xml version="1.0" standalone="no"?>
<!DOCTYPE svg PUBLIC "-//W3C//DTD SVG 1.1//EN" "http://www.w3.org/Graphics/SVG/1.1/DTD/svg11.dtd">
<svg xmlns="http://www.w3.org/2000/svg">
<defs >
<font id="Ubuntu" horiz-adv-x="605" ><font-face
    font-family="Ubuntu Medium"
    units-per-em="1000"
    panose-1="2 11 5 4 3 6 2 10 2 4"
    ascent="932"
    descent="-189"
    alphabetic="0" />
<glyph unicode=" " glyph-name="space" horiz-adv-x="237" />
<glyph unicode="!" glyph-name="exclam" horiz-adv-x="274" d="M321 509Q313 476 303 439T280 362T255 286T230 218H145Q153 288 163 357T193 509L237 693H365L321 509ZM159 146Q191 146 211 128T231 75Q231 55 224 39T204 11T177 -7T145 -13Q113 -13 94 4T74
57Q74 99 100 122T159 146Z" />
<glyph unicode="&quot;" glyph-name="quotedbl" horiz-adv-x="455" d="M550 760L535 698Q523 650 504 594T461 483H384Q385 506 388 533T394 589T403 646T414 699L429 760H550ZM612 760L597 698Q585 650 566 594T523 483H446Q447 506 450 533T456 589T465 646T476
699L491 760H612Z" />
<glyph unicode="#" glyph-name="numbersign" horiz-adv-x="656" d="M405 176H272L197 0H91L165 176H88L111 271H205L269 422H147L170 516H309L384 693H490L415 516H549L624 693H730L655 516H732L709 422H616L551 271H673L650 176H512L437 0H331L405 176ZM311 271H445L510
422H376L311 271Z" />
<glyph unicode="$" glyph-name="dollar" horiz-adv-x="568" d="M285 112Q310 112 335 116T380 130T412 158T425 205Q425 241 397 262T325 304Q265 333 228 374T191 480Q191 514 203 545T240 601T302 642T389 665L416 776H520L492 665Q533 659 565 646T618 619L567
532Q545 548 511 558T434 569Q409 569 387 564T348 550T321 525T311 488Q311 470 316 458T332 434T361 413T404 389Q432 375 458 360T503 324T534 277T546 214Q546 169 531 134T489 75T423 35T337 15L307 -109H204L234 17Q208 20 185 25T141 38T106 53T82 67L134
158Q144 151 159 143T194 128T237 117T285 112Z" />
<glyph unicode="%" glyph-name="percent" horiz-adv-x="877" d="M301 411Q323 411 341 423T373 457T393 505T400 561Q400 592 388 610T347 628Q324 628 306 615T275 581T254 533T247 477Q247 447 260 429T301 411ZM733 693H853L299 0H180L733 693ZM353 708Q416
708 454 673T492 567Q492 517 477 474T435 399T372 349T293 330Q230 330 193 365T155 472Q155 521 170 564T212 639T275 689T353 708ZM687 65Q709 65 727 77T759 111T779 159T786 215Q786 246 774 264T733 282Q710 282 692 269T661 235T640 187T633 131Q633 101
646 83T687 65ZM739 362Q802 362 840 327T878 221Q878 171 863 128T821 53T758 3T679 -16Q616 -16 579 19T541 126Q541 175 556 218T598 293T661 343T739 362Z" />
<glyph unicode="&amp;" glyph-name="ampersand" horiz-adv-x="652" d="M272 -9Q233 -9 197 0T134 30T91 81T75 157Q75 199 88 232T125 293T183 342T261 386Q242 416 232 448T221 515Q221 558 236 593T280 654T349 694T440 709Q512 709 554 671T597 572Q597 515
561 465T457 381Q446 375 435 370T412 359L512 222Q530 248 545 278T573 343L679 330Q661 281 635 233T573 141Q599 105 620 70T655 0H532Q525 15 516 31T495 65Q448 30 393 11T272 -9ZM285 87Q322 87 362 100T439 143L312 315Q261 294 228 259T194 174Q194 137
215 112T285 87ZM331 516Q331 496 339 474T362 428Q389 440 412 453T453 482T481 517T491 560Q491 586 475 602T427 619Q408 619 391 613T361 594T339 562T331 516Z" />
<glyph unicode="&apos;" glyph-name="quotesingle" horiz-adv-x="259" d="M360 760L345 698Q333 650 314 594T271 483H194Q195 506 198 533T204 589T213 646T224 699L239 760H360Z" />
<glyph unicode="(" glyph-name="parenleft" horiz-adv-x="330" d="M507 727Q447 665 398 596T314 451T260 297T241 137Q241 64 253 -1T292 -130L202 -183Q163 -115 143 -36T123 129Q123 221 144 310T204 482T300 641T428 783L507 727Z" />
<glyph unicode=")" glyph-name="parenright" horiz-adv-x="330" d="M-53 -129Q7 -67 56 2T140 147T194 301T213 461Q213 534 201 599T162 728L252 781Q291 713 311 634T331 469Q331 377 310 288T250 116T154 -43T26 -185L-53 -129Z" />
<glyph unicode="*" glyph-name="asterisk" horiz-adv-x="471" d="M374 530Q403 549 437 570T505 602L520 607L554 503L538 498Q504 487 464 484T389 480Q421 457 451 429T503 373L510 364L420 301L411 314Q391 343 375 380T347 449Q340 433 333 414T317 377T299
340T279 309L273 301L184 364L194 378Q215 407 245 432T304 480Q269 481 232 483T156 498L140 503L174 607L183 604Q216 593 253 572T320 530Q310 564 301 602T292 676V693H402V676Q402 641 393 603T374 530Z" />
<glyph unicode="+" glyph-name="plus" horiz-adv-x="568" d="M132 337H306L353 533H464L417 337H591L566 235H392L345 39H235L281 235H107L132 337Z" />
<glyph unicode="," glyph-name="comma" horiz-adv-x="268" d="M223 133Q217 53 178 -22T86 -161L0 -134Q39 -73 65 -3T96 133H223Z" />
<glyph unicode="-" glyph-name="hyphen" horiz-adv-x="319" d="M109 341H375L349 230H83L109 341Z" />
<glyph unicode="." glyph-name="period" horiz-adv-x="265" d="M150 146Q182 146 202 128T222 75Q222 55 215 39T195 11T168 -7T136 -13Q104 -13 85 4T65 57Q65 99 91 122T150 146Z" />
<glyph unicode="/" glyph-name="slash" horiz-adv-x="399" d="M53 -185H-69L490 783H612L53 -185Z" />
<glyph unicode="0" glyph-name="zero" horiz-adv-x="568" d="M295 90Q327 90 354 109T405 159T445 232T475 317T493 404T500 486Q500 549 483 577T427 605Q395 605 367 586T317 535T277 462T247 377T228 289T222 208Q222 145 239 118T295 90ZM278 -15Q232 -15
200 0T146 43T116 109T106 192Q106 286 128 378T194 544T300 663T443 709Q489 709 521 694T575 651T606 585T616 502Q616 408 594 316T528 150T422 31T278 -15Z" />
<glyph unicode="1" glyph-name="one" horiz-adv-x="568" d="M213 549Q276 572 343 608T466 693H552L385 0H264L391 527Q359 506 316 487T230 453L213 549Z" />
<glyph unicode="2" glyph-name="two" horiz-adv-x="568" d="M423 709Q467 709 501 696T559 660T595 609T607 548Q607 503 595 468T558 402T499 342T420 278Q394 258 366 238T313 196T265 151T228 101H527L503 0H70Q79 58 100 102T151 183T220 251T300 315Q342
347 376 373T434 425T471 475T484 529Q484 562 463 583T403 604Q354 604 314 583T241 536L200 627Q244 664 301 686T423 709Z" />
<glyph unicode="3" glyph-name="three" horiz-adv-x="568" d="M455 368Q493 351 520 312T547 218Q547 171 529 129T475 55T384 4T254 -15Q191 -15 142 -1T63 29L107 128Q129 114 168 100T260 86Q294 86 324 94T377 118T413 160T426 220Q426 270 388 294T283 318H243L266
415H316Q344 415 372 421T422 441T458 476T472 529Q472 567 447 586T379 606Q342 606 306 594T237 563L207 655Q245 678 295 693T399 709Q449 709 485 696T546 660T582 608T594 546Q594 487 558 440T455 368Z" />
<glyph unicode="4" glyph-name="four" horiz-adv-x="568" d="M472 547Q441 520 408 487T341 416T276 341T218 264H404L472 547ZM622 693L519 264H596L572 166H495L455 0H339L378 166H76L96 252Q126 298 171 355T271 473T386 590T504 693H622Z" />
<glyph unicode="5" glyph-name="five" horiz-adv-x="568" d="M114 128Q139 114 176 102T259 89Q337 89 383 122T430 221Q430 256 411 279T359 315T281 335T182 342Q214 435 242 521T294 693H641L617 592H373Q367 573 360 551T346 506T333 464T321 430Q437 417
494 365T551 231Q551 177 533 132T479 55T387 4T258 -15Q231 -15 204 -11T151 -1T104 12T69 28L114 128Z" />
<glyph unicode="6" glyph-name="six" horiz-adv-x="568" d="M463 246Q463 294 439 315T369 337Q307 337 249 311Q241 285 237 259T232 210Q232 155 254 120T328 85Q359 85 384 98T427 133T453 184T463 246ZM627 599Q493 597 404 548T273 402Q300 415 335 423T405
432Q488 432 534 385T580 256Q580 199 562 150T510 64T426 6T316 -15Q271 -15 234 0T171 43T130 113T115 207Q115 303 148 392T244 549T400 657T615 698Q620 698 627 698T642 697L627 599Z" />
<glyph unicode="7" glyph-name="seven" horiz-adv-x="568" d="M142 0Q163 77 202 161T291 324T393 473T496 589H181L206 693H666L644 599Q617 576 584 540T514 457T441 357T372 245T312 124T267 0H142Z" />
<glyph unicode="8" glyph-name="eight" horiz-adv-x="568" d="M95 149Q95 215 134 268T251 365Q223 388 208 418T192 489Q192 531 207 570T254 641T330 690T435 709Q479 709 513 697T571 662T607 611T620 549Q620 492 588 441T477 350Q512 326 535 293T559 204Q559
160 542 120T492 50T409 3T293 -15Q249 -15 213 -4T151 29T110 80T95 149ZM441 198Q441 242 411 269T331 317Q272 291 242 250T212 166Q212 128 235 106T306 83Q333 83 357 91T400 115T430 151T441 198ZM306 498Q306 461 328 437T393 394Q447 420 476 454T505 533Q505
565 486 588T420 611Q395 611 374 603T338 579T315 543T306 498Z" />
<glyph unicode="9" glyph-name="nine" horiz-adv-x="568" d="M264 449Q264 401 289 380T359 359Q419 359 479 385Q487 410 491 436T495 489Q495 540 472 574T399 609Q367 609 342 596T300 562T274 511T264 449ZM99 95Q113 94 130 94T155 96Q273 107 345 155T455
294Q426 279 390 272T322 264Q239 264 193 311T147 439Q147 496 165 545T218 631T300 688T408 709Q501 709 556 651T612 487Q612 389 580 301T486 145T330 37T115 -3Q108 -3 101 -3T82 -2L99 95Z" />
<glyph unicode=":" glyph-name="colon" horiz-adv-x="255" d="M150 146Q182 146 202 128T222 75Q222 55 215 39T195 11T168 -7T136 -13Q104 -13 85 4T65 57Q65 99 91 122T150 146ZM235 523Q267 523 287 505T307 452Q307 432 300 416T280 388T253 370T221 364Q189
364 170 381T150 434Q150 476 176 499T235 523Z" />
<glyph unicode=";" glyph-name="semicolon" horiz-adv-x="255" d="M223 133Q217 53 178 -22T86 -161L0 -134Q39 -73 65 -3T96 133H223ZM236 523Q268 523 288 505T308 452Q308 432 301 416T281 388T254 370T222 364Q190 364 171 381T151 434Q151 476 177 499T236 523Z" />
<glyph unicode="&lt;" glyph-name="less" horiz-adv-x="568" d="M129 337L600 519L608 416L244 283L542 145L489 53L106 239L129 337Z" />
<glyph unicode="=" glyph-name="equal" horiz-adv-x="568" d="M108 229H568L543 127H84L108 229ZM160 445H620L595 343H136L160 445Z" />
<glyph unicode="&gt;" glyph-name="greater" horiz-adv-x="568" d="M560 235L89 53L81 156L445 289L147 427L200 519L583 333L560 235Z" />
<glyph unicode="?" glyph-name="question" horiz-adv-x="408" d="M287 412Q306 427 325 442T359 473T384 508T394 549Q394 579 374 593T319 608Q277 608 241 596T183 572L168 667Q200 685 246 697T340 709Q423 709 469 670T515 565Q515 519 497 485T452 424T393
374T334 328T287 278T267 218H161Q162 252 171 278T197 327T237 369T287 412ZM200 146Q232 146 252 128T272 75Q272 55 265 39T245 11T218 -7T186 -13Q154 -13 135 4T115 57Q115 99 141 122T200 146Z" />
<glyph unicode="@" glyph-name="at" horiz-adv-x="942" d="M628 -139Q598 -147 553 -153T464 -159Q384 -159 319 -137T206 -72T134 32T108 173Q108 288 147 387T255 558T420 672T626 713Q701 713 764 693T873 633T945 532T971 391Q971 353 965 312T946 232T912
156T860 94T790 51T697 35Q637 35 609 72Q580 55 548 46T479 37Q402 37 358 84T313 217Q313 270 332 323T390 418T485 486T613 513Q668 513 707 504T770 484L698 184Q696 178 695 172T694 161Q694 130 730 130Q764 130 790 151T834 208T861 289T871 382Q871 500
805 563T613 626Q533 626 460 594T331 502T242 361T209 179Q209 110 230 63T287 -14T374 -57T482 -71Q529 -71 570 -65T634 -53L628 -139ZM584 149Q584 161 586 172T591 196L644 416Q627 421 594 421Q552 421 521 404T468 360T435 297T424 227Q424 129 503 129Q544
129 584 149Z" />
<glyph unicode="A" glyph-name="A" horiz-adv-x="656" d="M528 0Q525 42 522 83T514 164H233Q210 125 188 85T142 0H7Q68 106 123 200T231 379T335 541T439 693H556Q588 544 611 368T655 0H528ZM470 561Q432 502 386 429T287 264H504Q498 335 490 409T470 561Z" />
<glyph unicode="B" glyph-name="B" horiz-adv-x="634" d="M289 -8Q238 -8 182 -4T81 11L242 682Q287 692 337 696T438 700Q480 700 523 694T602 671T659 623T682 544Q682 491 653 444T553 368Q597 350 621 316T645 237Q645 120 554 56T289 -8ZM278 313L227 100Q241
98 264 97T315 95Q348 95 384 100T449 119T497 159T517 226Q517 264 488 288T392 313H278ZM302 410H398Q429 410 458 416T508 435T543 469T556 518Q556 564 522 581T429 598Q406 598 383 597T346 593L302 410Z" />
<glyph unicode="C" glyph-name="C" horiz-adv-x="606" d="M600 30Q567 13 516 -1T392 -15Q328 -15 278 4T193 61T140 150T121 267Q121 351 149 430T230 572T359 671T531 709Q594 709 640 695T722 661L674 560Q642 579 606 589T523 600Q460 600 410 572T325 499T271
395T252 277Q252 184 292 140T411 95Q471 95 513 108T585 136L600 30Z" />
<glyph unicode="D" glyph-name="D" horiz-adv-x="702" d="M229 103Q240 101 254 101T300 100Q372 100 430 123T528 188T591 290T613 423Q613 502 568 548T421 594Q395 594 380 593T346 590L229 103ZM743 427Q743 334 713 254T624 116T477 25T271 -8Q229 -8 177
-4T81 11L242 682Q291 693 341 696T433 700Q509 700 567 681T664 626T723 540T743 427Z" />
<glyph unicode="E" glyph-name="E" horiz-adv-x="572" d="M78 0L244 693H674L649 588H344L303 414H573L548 311H279L229 105H557L532 0H78Z" />
<glyph unicode="F" glyph-name="F" horiz-adv-x="540" d="M78 0L244 693H671L646 588H344L301 408H568L543 304H277L204 0H78Z" />
<glyph unicode="G" glyph-name="G" horiz-adv-x="655" d="M412 94Q441 94 464 97T500 104L559 352H684L604 20Q578 8 523 -3T392 -14Q326 -14 275 5T190 61T139 150T121 267Q121 351 149 430T230 572T361 671T537 709Q607 709 656 692T736 655L687 555Q661 572
621 586T530 600Q464 600 413 572T325 499T271 395T252 277Q252 94 412 94Z" />
<glyph unicode="H" glyph-name="H" horiz-adv-x="696" d="M654 693H780L614 0H488L562 308H278L204 0H78L244 693H370L303 415H587L654 693Z" />
<glyph unicode="I" glyph-name="I" horiz-adv-x="286" d="M244 693H370L204 0H78L244 693Z" />
<glyph unicode="J" glyph-name="J" horiz-adv-x="495" d="M469 216Q457 166 440 124T392 51T317 3T202 -15Q141 -15 94 4T21 47L79 142Q99 125 129 110T204 94Q235 94 258 101T297 126T326 170T347 236L456 693H583L469 216Z" />
<glyph unicode="K" glyph-name="K" horiz-adv-x="634" d="M494 0Q474 40 450 83T398 168T340 247T279 312L204 0H78L244 693H370L303 416Q344 449 388 486T474 560T553 631T620 693H773Q732 655 686 613T591 528T493 442T395 361Q426 329 459 288T523 200T582
102T633 0H494Z" />
<glyph unicode="L" glyph-name="L" horiz-adv-x="536" d="M536 106L511 0H78L244 693H370L229 106H536Z" />
<glyph unicode="M" glyph-name="M" horiz-adv-x="862" d="M396 693Q405 658 416 603T439 484T462 357T483 241Q517 294 558 357T641 482T721 599T788 693H907Q899 617 888 531T863 355T832 175T800 0H675Q701 121 725 248T769 501Q752 477 730 443T683 372T632
294T582 217T536 147T500 92H403Q398 125 389 179T369 292T348 408T329 502Q288 377 253 249T185 0H61Q85 86 112 178T167 360T224 536T278 693H396Z" />
<glyph unicode="N" glyph-name="N" horiz-adv-x="719" d="M535 0Q516 58 492 125T440 259T383 389T323 506L202 0H78L244 693H345Q373 648 403 590T463 469T519 341T566 220L677 693H802L636 0H535Z" />
<glyph unicode="O" glyph-name="O" horiz-adv-x="742" d="M505 600Q448 600 402 572T322 497T271 393T252 274Q252 192 287 143T399 94Q456 94 503 122T583 197T634 301T653 420Q653 502 618 551T505 600ZM386 -15Q328 -15 280 3T196 57T141 144T121 263Q121 343
147 423T223 566T348 669T518 709Q576 709 625 691T709 637T763 550T783 431Q783 351 757 271T681 128T557 25T386 -15Z" />
<glyph unicode="P" glyph-name="P" d="M427 700Q552 700 618 651T685 511Q685 439 658 389T582 306T466 260T317 245H263L204 0H78L241 683Q289 693 337 696T427 700ZM415 594Q396 594 379 593T345 590L288 351H339Q381 351 420 358T489 381T537 426T555 499Q555
550 518 572T415 594Z" />
<glyph unicode="Q" glyph-name="Q" horiz-adv-x="742" d="M594 -187Q536 -183 488 -172T406 -142T352 -92T333 -20Q333 -19 333 -17T334 -10Q286 -3 247 18T180 74T137 156T121 263Q121 343 147 423T223 566T348 669T518 709Q576 709 625 691T709 637T763 550T783
431Q783 358 762 286T699 152T595 48T452 -9Q451 -12 451 -17Q451 -38 466 -51T506 -73T565 -86T634 -94L594 -187ZM505 600Q448 600 402 572T322 497T271 393T252 274Q252 192 287 143T399 94Q456 94 503 122T583 197T634 301T653 420Q653 502 618 551T505 600Z"
/>
<glyph unicode="R" glyph-name="R" horiz-adv-x="624" d="M429 700Q553 700 617 649T682 512Q682 474 672 440T639 376T581 323T495 285Q508 262 523 230T554 160T585 81T612 0H479Q467 36 454 73T427 144T399 209T370 264Q361 263 348 263T325 263H267L204 0H78L241
683Q289 693 338 696T429 700ZM554 498Q554 553 514 573T407 594Q393 594 377 593T345 590L291 364H347Q392 364 430 371T495 395T538 436T554 498Z" />
<glyph unicode="S" glyph-name="S" horiz-adv-x="527" d="M255 92Q282 92 308 97T356 114T391 146T404 198Q404 221 394 237T367 267T329 291T283 316Q257 329 234 345T192 383T164 432T153 498Q153 544 170 582T222 649T307 693T425 709Q456 709 484 704T538
692T582 675T612 658L557 562Q536 579 499 591T416 603Q389 603 365 598T322 581T293 551T282 507Q282 484 289 469T310 443T342 422T381 400Q412 383 439 366T488 327T521 277T534 208Q534 152 513 110T454 41T364 -1T250 -15Q209 -15 175 -9T113 6T67 25T36 43L92
142Q102 135 118 126T156 110T202 97T255 92Z" />
<glyph unicode="T" glyph-name="T" horiz-adv-x="582" d="M729 693L703 587H497L356 0H230L371 587H165L190 693H729Z" />
<glyph unicode="U" glyph-name="U" horiz-adv-x="677" d="M660 255Q645 191 622 141T563 57T474 4T347 -15Q289 -15 248 0T180 43T142 107T129 189Q129 212 132 240T143 294L238 693H365L266 280Q261 261 258 241T255 201Q255 179 260 160T279 126T313 104T365
95Q438 95 477 138T536 267L638 693H765L660 255Z" />
<glyph unicode="V" glyph-name="V" horiz-adv-x="639" d="M379 0H259Q228 161 204 334T163 693H296Q307 546 320 406T351 149Q388 205 427 271T507 407T585 550T657 693H794Q700 516 599 342T379 0Z" />
<glyph unicode="W" glyph-name="W" horiz-adv-x="928" d="M653 614Q656 560 660 501T671 384T683 269T695 165Q723 218 753 281T813 413T872 552T928 693H1062Q983 500 903 328T732 0H610Q602 54 595 106T581 211T569 320T558 436Q496 321 436 214T307 0H183Q175
87 172 173T168 349Q168 513 180 693H306Q300 597 296 503T292 311Q292 275 292 239T294 165Q325 216 358 272T423 387T485 503T543 614H653Z" />
<glyph unicode="X" glyph-name="X" horiz-adv-x="629" d="M481 0Q469 39 457 73T433 140T407 203T379 267L156 0H10L327 373L186 693H325L419 458Q469 516 516 576T603 693H744Q715 652 682 610T614 525T544 441T474 361Q514 269 549 183T615 0H481Z" />
<glyph unicode="Y" glyph-name="Y" horiz-adv-x="595" d="M382 387Q444 462 502 537T612 693H754Q715 638 676 586T597 483T513 380T424 276L358 0H232L298 276Q257 381 224 484T161 693H295Q312 616 334 539T382 387Z" />
<glyph unicode="Z" glyph-name="Z" horiz-adv-x="577" d="M681 600Q640 564 581 506T456 381T327 242T212 106H571L546 0H32L51 79Q79 116 114 159T189 249T271 341T356 432T437 515T511 587H189L214 693H703L681 600Z" />
<glyph unicode="[" glyph-name="bracketleft" horiz-adv-x="340" d="M277 783H523L500 687H369L182 -89H314L290 -185H45L277 783Z" />
<glyph unicode="\" glyph-name="backslash" horiz-adv-x="393" d="M262 -185L158 783H271L377 -185H262Z" />
<glyph unicode="]" glyph-name="bracketright" horiz-adv-x="340" d="M202 -185H-44L-21 -89H110L297 687H165L189 783H434L202 -185Z" />
<glyph unicode="^" glyph-name="asciicircum" horiz-adv-x="568" d="M604 346L501 302L417 566L205 305L118 358L392 693H491L604 346Z" />
<glyph unicode="_" glyph-name="underscore" horiz-adv-x="500" d="M-20 -84H480L456 -185H-43L-20 -84Z" />
<glyph unicode="`" glyph-name="grave" horiz-adv-x="313" d="M224 789L372 632L316 576L150 710L224 789Z" />
<glyph unicode="a" glyph-name="a" horiz-adv-x="558" d="M530 203Q527 192 524 167T521 120Q521 91 526 64T542 8L434 -8Q422 16 415 43Q390 21 354 4T271 -14Q224 -14 191 1T136 44T105 109T95 189Q95 262 121 325T193 434T304 506T444 533Q483 533 522 527T602
502L530 203ZM464 429Q445 433 421 433Q376 433 338 414T273 362T230 287T215 199Q215 176 219 156T232 121T258 97T299 88Q331 88 355 101T401 138Q402 164 405 187T415 233L464 429Z" />
<glyph unicode="b" glyph-name="b" horiz-adv-x="569" d="M415 535Q461 535 494 520T550 477T583 414T594 335Q594 266 570 203T502 92T393 16T249 -13Q237 -13 217 -12T173 -7T124 4T78 22L253 756L379 776L315 508Q337 519 362 527T415 535ZM265 89Q311 89 349
108T415 161T458 236T473 325Q473 348 469 367T455 401T428 424T385 433Q363 433 337 425T289 400L216 94Q225 92 236 91T265 89Z" />
<glyph unicode="c" glyph-name="c" horiz-adv-x="459" d="M97 198Q97 266 118 327T180 435T278 509T410 536Q449 536 481 530T543 510L500 413Q482 421 460 427T406 433Q363 433 329 416T270 368T233 297T220 210Q220 184 225 163T243 125T278 99T333 90Q367 90
398 99T447 117L457 18Q434 7 396 -3T310 -14Q255 -14 215 2T149 47T110 114T97 198Z" />
<glyph unicode="d" glyph-name="d" horiz-adv-x="572" d="M273 -14Q226 -14 192 1T137 44T105 108T95 188Q95 255 118 317T185 427T292 503T435 532Q445 532 459 531T490 526L545 756L671 776L534 209Q529 186 527 163T524 118Q524 91 529 64T545 8L437 -8Q426
13 418 43Q393 21 357 4T273 -14ZM466 428Q447 432 420 432Q374 432 336 413T271 361T230 286T215 199Q215 176 219 156T234 121T260 97T301 88Q333 88 357 101T404 137Q405 158 408 181T417 226L466 428Z" />
<glyph unicode="e" glyph-name="e" horiz-adv-x="523" d="M97 189Q97 256 118 318T180 429T278 507T406 536Q482 536 524 497T566 397Q566 334 535 295T455 234T343 204T216 194Q215 192 215 190V180Q215 89 330 89Q398 89 466 117L476 19Q452 8 408 -3T308 -14Q252
-14 212 2T147 46T109 110T97 189ZM388 437Q358 437 331 425T283 392T247 343T224 281Q344 285 398 310T453 385Q453 405 439 421T388 437Z" />
<glyph unicode="f" glyph-name="f" horiz-adv-x="388" d="M322 523H497L473 423H298L223 110Q210 56 199 14T172 -63T137 -128T85 -189L-20 -173Q-1 -149 15 -125T45 -73T70 -13T91 60L210 560Q222 611 242 651T293 719T366 761T465 776Q505 776 537 768T587 751L543
656Q530 662 509 667T458 673Q428 673 407 665T371 641T347 605T331 558L322 523Z" />
<glyph unicode="g" glyph-name="g" horiz-adv-x="569" d="M220 -86Q294 -86 331 -52T382 41L385 55Q365 45 337 37T278 28Q190 28 148 75T105 202Q105 274 130 335T200 440T310 510T452 535Q490 535 533 527T612 499L506 55Q492 -4 471 -49T414 -125T328 -172T203
-188Q150 -188 108 -177T33 -148L76 -50Q103 -66 138 -76T220 -86ZM308 126Q335 126 363 136T411 161L475 428Q452 433 430 433Q384 433 347 416T282 370T240 303T225 220Q225 176 244 151T308 126Z" />
<glyph unicode="h" glyph-name="h" horiz-adv-x="563" d="M73 0L254 756L380 776L318 519Q338 524 361 528T408 533Q452 533 483 521T535 486T565 433T575 366Q575 323 563 275L497 0H376L439 262Q444 285 449 309T454 354Q454 387 437 409T370 432Q350 432 330
429T294 420L194 0H73Z" />
<glyph unicode="i" glyph-name="i" horiz-adv-x="271" d="M193 0H73L198 523H319L193 0ZM283 602Q256 602 236 618T216 666Q216 703 241 727T300 751Q327 751 347 735T368 686Q368 649 342 626T283 602Z" />
<glyph unicode="j" glyph-name="j" horiz-adv-x="276" d="M289 602Q262 602 242 618T222 666Q222 703 247 727T306 751Q333 751 353 735T374 686Q374 649 348 626T289 602ZM203 19Q190 -35 173 -74T130 -138T70 -175T-13 -187Q-36 -187 -60 -182T-102 -168L-72
-71Q-60 -76 -45 -80T-11 -84Q30 -84 51 -56T83 21L203 523H324L203 19Z" />
<glyph unicode="k" glyph-name="k" horiz-adv-x="559" d="M271 324Q302 348 334 374T394 427T448 478T491 523H630Q606 495 575 464T510 402T440 341T370 284Q395 258 420 223T468 150T510 73T541 0H407Q393 33 376 67T339 133T297 194T253 245L193 0H73L254 756L380
776L271 324Z" />
<glyph unicode="l" glyph-name="l" horiz-adv-x="298" d="M273 -10Q226 -9 194 2T142 32T114 77T105 134Q105 166 112 201T129 272L245 756L371 776Q340 645 309 516T246 255Q241 234 235 214T229 173Q229 156 229 142T237 117T260 99T299 90L273 -10Z" />
<glyph unicode="m" glyph-name="m" horiz-adv-x="842" d="M193 501Q233 513 283 523T393 534Q438 534 468 521T520 484Q549 501 590 517T685 534Q731 534 763 521T815 485T844 431T853 362Q853 321 842 275L776 0H655L717 262Q722 281 726 303T731 349Q731 365
728 380T715 407T691 425T651 432Q625 432 600 422T558 401Q562 382 562 360Q562 340 559 318T551 275L485 0H364L426 262Q431 280 435 303T440 350Q440 383 425 407T366 432Q346 432 328 430T295 423L194 0H73L193 501Z" />
<glyph unicode="n" glyph-name="n" horiz-adv-x="563" d="M193 501Q233 513 284 523T397 534Q489 534 532 489T575 368Q575 347 572 324T563 275L497 0H376L438 262Q443 284 448 307T454 351Q455 386 438 409T369 432Q326 432 295 423L194 0H73L193 501Z" />
<glyph unicode="o" glyph-name="o" horiz-adv-x="563" d="M288 -14Q195 -14 146 41T97 186Q97 244 115 306T170 419T263 503T395 536Q488 536 537 482T586 337Q586 278 569 216T515 103T422 19T288 -14ZM380 434Q341 434 311 412T260 354T228 278T217 197Q217
147 236 118T303 89Q342 89 372 111T423 168T455 245T466 325Q466 375 447 404T380 434Z" />
<glyph unicode="p" glyph-name="p" horiz-adv-x="564" d="M217 94Q227 92 238 92T260 91Q308 91 346 109T412 159T453 233T468 324Q468 346 463 365T447 400T416 424T366 433Q346 433 328 431T296 424L217 94ZM589 335Q589 264 567 202T501 92T395 18T251 -10Q237
-10 223 -9T194 -5L150 -185H29L194 502Q235 517 285 526T387 535Q439 535 477 520T540 477T577 414T589 335Z" />
<glyph unicode="q" glyph-name="q" horiz-adv-x="565" d="M95 189Q95 261 119 324T189 433T300 507T447 534Q484 534 526 526T608 500L444 -185H323L370 12Q347 1 321 -5T268 -12Q185 -12 140 42T95 189ZM470 428Q461 430 449 431T426 433Q377 433 338 414T272
363T230 289T215 199Q215 149 234 120T301 90Q325 90 349 97T396 121L470 428Z" />
<glyph unicode="r" glyph-name="r" horiz-adv-x="399" d="M460 416Q440 423 417 427T363 431Q346 431 327 429T295 422L194 0H73L193 499Q235 513 284 523T390 534Q402 534 417 533T446 529T473 524T495 517L460 416Z" />
<glyph unicode="s" glyph-name="s" horiz-adv-x="438" d="M224 85Q272 85 300 100T328 148Q328 174 310 189T247 226Q223 237 203 249T167 277T143 314T134 366Q134 444 191 490T356 536Q406 536 445 526T505 504L462 410Q445 420 413 429T346 439Q329 439 313
436T283 426T262 407T253 376Q253 353 271 339T325 308Q358 293 381 279T419 248T441 209T448 157Q448 120 433 89T390 35T319 -1T223 -14Q186 -14 157 -9T105 2T68 16T45 28L88 123Q95 119 108 113T139 100T178 90T224 85Z" />
<glyph unicode="t" glyph-name="t" horiz-adv-x="401" d="M218 661L344 681L306 523H477L453 423H282L232 216Q227 194 225 180T223 153Q223 141 225 130T235 110T257 96T297 90Q324 90 349 97T393 112L402 15Q379 5 344 -4T262 -13Q176 -13 139 24T102 127Q102
151 105 176T116 231L218 661Z" />
<glyph unicode="u" glyph-name="u" horiz-adv-x="567" d="M608 523L534 212Q529 189 527 166T524 120Q524 91 528 63T544 8L436 -8Q430 3 426 16T417 44Q392 24 355 6T269 -13Q225 -13 194 0T144 35T116 88T107 153Q107 197 119 248L185 523H306L241 251Q228 199
228 166Q228 150 231 136T241 112T262 95T296 89Q329 89 355 102T403 139Q406 182 417 227L487 523H608Z" />
<glyph unicode="v" glyph-name="v" horiz-adv-x="511" d="M195 0Q170 102 150 236T124 523H248Q249 479 251 428T258 326T267 226T280 139Q306 173 336 220T394 320T445 426T482 523H608Q584 454 548 381T470 239T384 108T299 0H195Z" />
<glyph unicode="w" glyph-name="w" horiz-adv-x="811" d="M488 331Q469 288 445 243T395 154T343 71T295 0H195Q186 46 178 105T162 231T150 372T142 523H262Q262 481 263 433T266 334T272 234T282 142Q310 185 337 233T390 331T436 430T474 523H578Q578 482 579
436T582 341T588 242T598 142Q624 180 651 229T703 329T748 431T782 523H908Q887 463 857 396T788 259T707 124T616 0H516Q505 84 498 165T488 331Z" />
<glyph unicode="x" glyph-name="x" horiz-adv-x="499" d="M246 523L329 347Q367 393 400 437T460 523H585Q543 461 492 397T381 266Q417 197 447 132T500 0H378Q362 47 342 94T300 183L141 0H9L248 268L119 523H246Z" />
<glyph unicode="y" glyph-name="y" horiz-adv-x="494" d="M583 523Q563 466 539 405T486 281T422 158T349 38Q320 -6 289 -46T222 -118T141 -168T41 -187Q10 -187 -14 -180T-56 -164L-17 -67Q-3 -75 14 -80T53 -85Q100 -85 135 -61T200 6Q168 117 146 247T117
523H239Q240 481 243 430T252 326T266 220T284 124Q314 172 340 225T388 330T426 432T455 523H583Z" />
<glyph unicode="z" glyph-name="z" horiz-adv-x="468" d="M537 440Q520 425 495 402T439 349T376 288T311 222T250 158T199 100H460L436 0H30L48 73Q78 113 119 161T206 256T295 347T375 423H143L167 523H557L537 440Z" />
<glyph unicode="{" glyph-name="braceleft" horiz-adv-x="356" d="M122 346Q152 346 173 355T208 380T231 416T245 457L278 592Q290 642 308 678T355 737T428 772T533 783H540L516 687Q486 687 465 683T430 669T407 642T391 596L353 436Q340 383 316 351T243 299Q270
282 280 260T291 209Q291 194 289 178T282 145L248 1Q242 -25 242 -41Q242 -71 262 -80T329 -89L305 -185Q262 -185 229 -180T174 -161T139 -124T127 -66Q127 -47 132 -24L168 122Q176 159 176 184Q176 219 157 234T99 251L122 346Z" />
<glyph unicode="|" glyph-name="bar" horiz-adv-x="297" d="M278 783H391L158 -185H45L278 783Z" />
<glyph unicode="}" glyph-name="braceright" horiz-adv-x="356" d="M373 252Q343 252 322 243T287 218T264 182T250 141L217 6Q205 -44 187 -80T140 -140T67 -174T-38 -185H-45L-21 -89Q9 -89 29 -85T64 -71T88 -44T104 2L142 162Q155 215 179 247T252 299Q225
316 215 338T204 389Q204 404 206 420T213 453L247 597Q253 622 253 639Q253 669 233 678T166 687L190 783Q233 783 266 778T321 759T356 722T368 664Q368 645 363 622L327 476Q319 439 319 414Q319 379 338 364T396 347L373 252Z" />
<glyph unicode="~" glyph-name="asciitilde" horiz-adv-x="568" d="M435 202Q401 202 377 214T333 242T295 269T252 282Q226 282 209 263T174 206L95 230Q104 258 119 286T156 337T206 374T271 388Q305 388 329 376T373 348T411 321T454 308Q480 308 497 327T532
384L611 360Q600 330 585 302T549 252T500 216T435 202Z" />
<glyph unicode="&#xa0;" glyph-name="uni00A0" horiz-adv-x="237" />
<glyph unicode="&#xa1;" glyph-name="exclamdown" horiz-adv-x="266" d="M227 366Q195 366 176 383T156 436Q156 478 182 501T242 525Q274 525 293 507T313 454Q313 434 306 418T286 390T259 372T227 366ZM70 4Q78 37 88 74T111 151T136 227T161 295H246Q238 225
228 156T198 4L154 -180H26L70 4Z" />
<glyph unicode="&#xa2;" glyph-name="cent" horiz-adv-x="568" d="M509 62Q486 51 453 42T383 30L350 -109H238L274 40Q217 58 186 104T154 229Q154 288 171 341T220 436T296 507T396 549L430 693H542L508 553Q531 550 552 544T595 526L553 431Q513 454 459 454Q418
454 385 437T327 390T290 320T277 233Q277 183 302 157T379 131Q413 131 446 140T500 160L509 62Z" />
<glyph unicode="&#xa3;" glyph-name="sterling" horiz-adv-x="568" d="M357 383H540L516 285H334L326 256Q316 218 303 178T275 102H556L531 0H117Q149 76 175 148T215 285H125L148 383H238L261 473Q278 540 303 585T363 657T438 695T526 706Q571 706 608 696T669
671L618 579Q595 590 571 596T519 603Q494 603 472 597T432 574T400 529T375 458L357 383Z" />
<glyph unicode="&#xa4;" glyph-name="currency" horiz-adv-x="568" d="M360 541Q416 541 459 518L533 591L609 516L536 445Q561 401 561 347Q561 291 536 249L609 177L533 102L458 175Q414 152 360 152Q304 152 261 175L187 103L112 177L184 248Q160 290 160 347Q160
403 184 445L112 516L188 591L262 518Q304 541 360 541ZM360 241Q402 241 431 268T460 347Q460 397 431 424T360 452Q318 452 289 425T260 347Q260 296 289 269T360 241Z" />
<glyph unicode="&#xa5;" glyph-name="yen" horiz-adv-x="568" d="M517 108H363L337 0H214L240 108H86L106 191H260L280 277H127L147 360H274Q241 445 213 531T166 693H290Q305 622 325 551T373 408Q429 474 482 546T583 693H716Q658 608 593 524T459 360H577L557
277H403L383 191H537L517 108Z" />
<glyph unicode="&#xa6;" glyph-name="brokenbar" horiz-adv-x="297" d="M139 205H252L158 -185H45L139 205ZM278 783H391L297 393H184L278 783Z" />
<glyph unicode="&#xa7;" glyph-name="section" horiz-adv-x="492" d="M107 286Q107 337 141 383T229 458Q215 474 207 495T199 540Q199 576 214 607T259 660T330 696T425 709Q472 709 511 699T581 673L538 584Q514 596 485 604T421 613Q403 613 385 610T351 598T327
577T317 544Q317 530 324 520T342 502T366 488T393 476Q424 463 449 450T491 419T517 379T526 327Q526 281 499 240T430 170Q424 165 418 162T404 154Q419 137 429 116T439 65Q439 30 424 -1T380 -57T306 -95T201 -110Q151 -110 106 -100T29 -70L72 19Q97 5 130
-4T203 -14Q264 -14 293 7T323 58Q323 98 283 117Q243 137 211 152T155 184T120 225T107 286ZM216 303Q216 283 225 271T250 248T288 227T337 202Q369 220 392 247T416 309Q416 329 407 342T382 366T343 387T295 411Q265 394 241 366T216 303Z" />
<glyph unicode="&#xa8;" glyph-name="dieresis" horiz-adv-x="458" d="M451 609Q425 609 408 625T391 667Q391 684 397 698T414 723T437 738T463 744Q489 744 506 728T524 683Q524 667 518 654T501 630T477 615T451 609ZM245 609Q219 609 202 625T185 667Q185
684 191 698T208 723T231 738T257 744Q283 744 300 728T318 683Q318 667 312 654T295 630T271 615T245 609Z" />
<glyph unicode="&#xa9;" glyph-name="copyright" horiz-adv-x="814" d="M829 347Q829 262 801 195T726 81T616 10T484 -15Q415 -15 353 9T243 80T167 194T139 347Q139 432 167 499T242 613T352 684T484 709Q553 709 615 685T725 614T801 500T829 347ZM741 347Q741
410 722 461T669 550T588 607T484 627Q427 627 380 607T299 550T245 462T226 347Q226 284 245 232T298 143T380 86T484 66Q541 66 588 86T669 143T722 232T741 347ZM498 150Q410 150 360 201T310 348Q310 394 324 431T364 493T423 531T496 545Q547 545 578 532T618
512L591 438Q578 446 556 453T502 461Q460 461 433 433T406 350Q406 326 411 305T429 268T459 243T504 234Q539 234 562 241T599 256L622 180Q611 173 578 162T498 150Z" />
<glyph unicode="&#xaa;" glyph-name="ordfeminine" horiz-adv-x="430" d="M420 625Q416 627 409 627T396 628Q363 628 336 616T288 583T256 534T244 473Q244 444 258 421T309 398Q346 398 377 421Q376 425 376 429T376 438Q376 452 380 471T389 510L420 625ZM526
690Q518 664 508 629T489 557T473 483T466 419Q466 398 470 377T485 332L409 321Q405 326 401 335T395 352Q372 337 345 327T287 317Q253 317 229 328T188 360T163 406T155 464Q155 519 175 564T230 640T312 689T414 707Q441 707 472 702T526 690Z" />
<glyph unicode="&#xab;" glyph-name="guillemotleft" horiz-adv-x="550" d="M380 469L223 275L297 91L216 53L93 290L304 514L380 469ZM619 469L462 275L536 91L455 53L332 290L543 514L619 469Z" />
<glyph unicode="&#xac;" glyph-name="logicalnot" horiz-adv-x="568" d="M600 397L516 47H406L466 295H116L141 397H600Z" />
<glyph unicode="&#xad;" glyph-name="uni00AD" horiz-adv-x="319" d="M109 341H375L349 230H83L109 341Z" />
<glyph unicode="&#xae;" glyph-name="registered" horiz-adv-x="814" d="M829 347Q829 261 801 194T726 81T616 10T484 -15Q416 -15 354 9T244 80T168 194T139 347Q139 432 167 499T243 613T353 684T484 709Q553 709 615 685T725 614T801 500T829 347ZM742 347Q742
410 723 461T670 550T588 607T484 627Q427 627 380 607T299 550T246 462T227 347Q227 284 246 232T299 143T380 86T484 66Q541 66 588 86T669 143T723 232T742 347ZM564 162Q544 204 524 238T486 296H432V162H348V527Q379 535 409 538T462 541Q545 541 587 510T630
416Q630 382 614 357T566 317Q586 288 609 250T654 162H564ZM432 364H460Q499 364 522 374T545 417Q545 445 524 456T469 468Q460 468 452 468T432 466V364Z" />
<glyph unicode="&#xaf;" glyph-name="overscore" horiz-adv-x="365" d="M168 631L189 718H490L469 631H168Z" />
<glyph unicode="&#xb0;" glyph-name="degree" horiz-adv-x="359" d="M307 778Q337 778 364 768T413 739T446 693T458 631Q458 597 446 570T413 523T365 494T307 484Q277 484 250 494T202 523T169 569T157 631Q157 665 169 692T202 739T250 768T307 778ZM307 565Q333
565 352 582T371 631Q371 662 352 680T307 698Q281 698 262 680T243 631Q243 600 262 583T307 565Z" />
<glyph unicode="&#xb1;" glyph-name="plusminus" horiz-adv-x="568" d="M75 102H534L509 0H50L75 102ZM155 437H329L374 625H485L440 437H614L589 335H415L371 149H261L305 335H130L155 437Z" />
<glyph unicode="&#xb2;" glyph-name="twosuperior" horiz-adv-x="363" d="M230 385H408L391 308H116Q118 342 127 368T152 417T193 459T252 499Q279 515 297 527T327 550T342 571T347 596Q347 613 335 622T304 631Q274 631 248 618T201 587L171 651Q197 676 235
692T318 709Q372 709 404 684T436 608Q436 578 425 555T393 512T346 474T287 434Q270 423 253 411T230 385Z" />
<glyph unicode="&#xb3;" glyph-name="threesuperior" horiz-adv-x="363" d="M147 400Q165 389 192 382T246 375Q264 375 281 378T311 388T332 406T340 435Q340 479 261 479H225L242 546H277Q292 546 307 549T334 560T353 577T361 599Q361 634 310 634Q284 634
258 626T214 609L197 675Q218 687 256 698T331 709Q385 709 415 687T445 620Q445 585 426 559T373 518Q396 507 410 487T425 436Q425 401 411 376T371 333T313 308T242 300Q202 300 169 308T113 330L147 400Z" />
<glyph unicode="&#xb4;" glyph-name="acute" horiz-adv-x="333" d="M314 792L379 710L190 583L141 643L314 792Z" />
<glyph unicode="&#xb5;" glyph-name="mu" horiz-adv-x="589" d="M624 523L551 219Q546 197 543 179T539 146Q539 121 551 107T598 89L563 -10Q511 -9 482 5T439 42Q404 16 364 3T282 -11Q256 -11 232 -2T191 26Q189 2 184 -25T171 -86L149 -176H29L196 523H317L254
259Q249 239 244 214T238 165Q238 150 241 136T253 112T276 95T314 89Q340 89 366 98T420 133Q422 185 434 236L503 523H624Z" />
<glyph unicode="&#xb6;" glyph-name="paragraph" horiz-adv-x="674" d="M320 260Q234 268 192 312T150 430Q150 500 182 551T268 635T395 684T550 700Q595 700 642 696T735 683L527 -185H417L606 600Q599 602 583 603T550 605Q543 605 532 605T513 604L323 -185H213L320
260Z" />
<glyph unicode="&#xb7;" glyph-name="middot" horiz-adv-x="265" d="M207 374Q239 374 259 356T279 303Q279 283 272 267T252 239T225 221T193 215Q161 215 142 232T122 285Q122 327 148 350T207 374Z" />
<glyph unicode="&#xb8;" glyph-name="cedilla" horiz-adv-x="353" d="M206 -41Q248 -62 248 -105Q248 -131 238 -149T211 -180T170 -199T121 -205Q66 -205 30 -186L60 -118Q71 -123 85 -126T117 -130Q135 -130 145 -124T156 -106Q156 -94 149 -88T124 -73L111
-67Q117 -57 125 -44T143 -19T160 4T171 20H250Q242 9 228 -10T206 -41Z" />
<glyph unicode="&#xb9;" glyph-name="onesuperior" horiz-adv-x="363" d="M188 547L178 619Q225 635 267 656T342 701H411L317 308H224L291 588Q268 576 241 566T188 547Z" />
<glyph unicode="&#xba;" glyph-name="ordmasculine" horiz-adv-x="454" d="M160 452Q160 497 173 543T214 625T284 685T386 709Q455 709 490 673T526 574Q526 529 513 483T472 401T401 341T300 317Q231 317 196 353T160 452ZM250 459Q250 424 266 409T312 393Q339
393 361 408T400 447T426 503T436 567Q436 602 420 617T374 633Q347 633 324 618T285 579T259 523T250 459Z" />
<glyph unicode="&#xbb;" glyph-name="guillemotright" horiz-adv-x="550" d="M67 98L224 292L150 476L231 514L354 277L143 53L67 98ZM306 98L463 292L389 476L470 514L593 277L382 53L306 98Z" />
<glyph unicode="&#xbc;" glyph-name="onequarter" horiz-adv-x="878" d="M829 693L294 0H178L714 693H829ZM434 547L424 619Q471 635 513 656T588 701H657L563 308H470L537 588Q514 576 487 566T434 547ZM746 160L781 304Q746 275 707 237T641 160H746ZM802 394H884L828
160H876L859 92H811L789 1H707L729 92H540L553 149Q574 180 602 213T663 277T731 339T802 394Z" />
<glyph unicode="&#xbd;" glyph-name="onehalf" horiz-adv-x="878" d="M807 693L272 0H156L692 693H807ZM439 547L429 619Q476 635 518 656T593 701H662L568 308H475L542 588Q519 576 492 566T439 547ZM680 78H858L841 1H566Q568 35 577 61T602 110T643 152T702
192Q729 208 747 220T777 243T792 264T797 289Q797 306 785 315T754 324Q724 324 698 311T651 280L621 344Q647 369 685 385T768 402Q822 402 854 377T886 301Q886 271 875 248T843 205T796 167T737 127Q720 116 703 104T680 78Z" />
<glyph unicode="&#xbe;" glyph-name="threequarters" horiz-adv-x="878" d="M851 693L316 0H200L736 693H851ZM756 160L791 304Q756 275 717 237T651 160H756ZM812 394H894L838 160H886L869 92H821L799 1H717L739 92H550L563 149Q584 180 612 213T673 277T741
339T812 394ZM388 400Q406 389 433 382T487 375Q505 375 522 378T552 388T573 406T581 435Q581 479 502 479H466L483 546H518Q533 546 548 549T575 560T594 577T602 599Q602 634 551 634Q525 634 499 626T455 609L438 675Q459 687 497 698T572 709Q626 709 656
687T686 620Q686 585 667 559T614 518Q637 507 651 487T666 436Q666 401 652 376T612 333T554 308T483 300Q443 300 410 308T354 330L388 400Z" />
<glyph unicode="&#xbf;" glyph-name="questiondown" horiz-adv-x="414" d="M260 101Q220 70 195 44T164 1T157 -30Q157 -43 162 -56T183 -80T232 -91Q274 -91 310 -79T368 -55L383 -150Q351 -168 305 -180T211 -192Q128 -192 82 -154T36 -51Q36 -17 45 10T71 60T110
102T156 141L190 168Q221 193 248 223T276 291H383Q382 258 372 231T345 182T306 140T260 101ZM342 364Q310 364 291 381T271 434Q271 476 297 499T356 523Q388 523 408 505T428 452Q428 432 421 416T401 388T374 370T342 364Z" />
<glyph unicode="&#xc0;" glyph-name="Agrave" horiz-adv-x="656" d="M528 0Q525 42 522 83T514 164H233Q210 125 188 85T142 0H7Q68 106 123 200T231 379T335 541T439 693H556Q588 544 611 368T655 0H528ZM470 561Q432 502 386 429T287 264H504Q498 335 490 409T470
561ZM445 951L593 794L537 738L371 872L445 951Z" />
<glyph unicode="&#xc1;" glyph-name="Aacute" horiz-adv-x="656" d="M528 0Q525 42 522 83T514 164H233Q210 125 188 85T142 0H7Q68 106 123 200T231 379T335 541T439 693H556Q588 544 611 368T655 0H528ZM470 561Q432 502 386 429T287 264H504Q498 335 490 409T470
561ZM583 954L648 872L459 745L410 805L583 954Z" />
<glyph unicode="&#xc2;" glyph-name="Acircumflex" horiz-adv-x="656" d="M528 0Q525 42 522 83T514 164H233Q210 125 188 85T142 0H7Q68 106 123 200T231 379T335 541T439 693H556Q588 544 611 368T655 0H528ZM470 561Q432 502 386 429T287 264H504Q498 335 490
409T470 561ZM544 945L658 786L606 739L525 827L407 741L367 794L544 945Z" />
<glyph unicode="&#xc3;" glyph-name="Atilde" horiz-adv-x="656" d="M528 0Q525 42 522 83T514 164H233Q210 125 188 85T142 0H7Q68 106 123 200T231 379T335 541T439 693H556Q588 544 611 368T655 0H528ZM470 561Q432 502 386 429T287 264H504Q498 335 490 409T470
561ZM576 773Q558 773 543 779T515 791T489 804T463 810Q446 810 433 799T406 766L349 801Q370 848 400 873T475 898Q495 898 510 892T539 879T564 866T589 860Q606 860 619 872T646 905L703 870Q681 822 651 798T576 773Z" />
<glyph unicode="&#xc4;" glyph-name="Adieresis" horiz-adv-x="656" d="M528 0Q525 42 522 83T514 164H233Q210 125 188 85T142 0H7Q68 106 123 200T231 379T335 541T439 693H556Q588 544 611 368T655 0H528ZM470 561Q432 502 386 429T287 264H504Q498 335 490
409T470 561ZM625 767Q599 767 582 783T565 825Q565 842 571 856T588 881T611 896T637 902Q663 902 680 886T698 841Q698 825 692 812T675 788T651 773T625 767ZM419 767Q393 767 376 783T359 825Q359 842 365 856T382 881T405 896T431 902Q457 902 474 886T492
841Q492 825 486 812T469 788T445 773T419 767Z" />
<glyph unicode="&#xc5;" glyph-name="Aring" horiz-adv-x="656" d="M615 752Q615 719 601 695T563 658Q592 514 613 347T655 0H528Q525 42 522 83T514 164H233Q210 125 188 85T142 0H7Q65 102 119 193T224 367T325 525T425 673Q411 687 403 706T394 752Q394 777
403 797T427 831T462 852T504 860Q526 860 546 853T581 832T606 798T615 752ZM470 561Q432 502 386 429T287 264H504Q498 335 490 409T470 561ZM553 752Q553 776 539 789T504 803Q484 803 470 790T455 752Q455 728 469 715T504 701Q524 701 538 714T553 752Z" />
<glyph unicode="&#xc6;" glyph-name="AE" horiz-adv-x="951" d="M510 171H265Q233 129 200 85T138 0H2Q84 108 157 201T301 379T440 540T583 693H1053L1027 587H730L689 414H951L926 311H665L615 106H935L910 0H469L510 171ZM608 579Q578 547 544 510T476 432T407
351T342 272H534L608 579Z" />
<glyph unicode="&#xc7;" glyph-name="Ccedilla" horiz-adv-x="606" d="M381 -41Q423 -62 423 -105Q423 -131 413 -149T386 -180T345 -199T296 -205Q241 -205 205 -186L235 -118Q246 -123 260 -126T292 -130Q310 -130 320 -124T331 -106Q331 -94 324 -88T299 -73L286
-67Q293 -55 303 -39T324 -9Q227 10 174 82T121 267Q121 351 149 430T230 572T359 671T531 709Q594 709 640 695T722 661L674 560Q642 579 606 589T523 600Q460 600 410 572T325 499T271 395T252 277Q252 184 292 140T411 95Q471 95 513 108T585 136L600 30Q568
13 519 0T399 -15Q387 -30 381 -41Z" />
<glyph unicode="&#xc8;" glyph-name="Egrave" horiz-adv-x="572" d="M78 0L244 693H674L649 588H344L303 414H573L548 311H279L229 105H557L532 0H78ZM420 951L568 794L512 738L346 872L420 951Z" />
<glyph unicode="&#xc9;" glyph-name="Eacute" horiz-adv-x="572" d="M78 0L244 693H674L649 588H344L303 414H573L548 311H279L229 105H557L532 0H78ZM568 954L633 872L444 745L395 805L568 954Z" />
<glyph unicode="&#xca;" glyph-name="Ecircumflex" horiz-adv-x="572" d="M78 0L244 693H674L649 588H344L303 414H573L548 311H279L229 105H557L532 0H78ZM516 945L630 786L578 739L497 827L379 741L339 794L516 945Z" />
<glyph unicode="&#xcb;" glyph-name="Edieresis" horiz-adv-x="572" d="M78 0L244 693H674L649 588H344L303 414H573L548 311H279L229 105H557L532 0H78ZM584 767Q558 767 541 783T524 825Q524 842 530 856T547 881T570 896T596 902Q622 902 639 886T657 841Q657
825 651 812T634 788T610 773T584 767ZM378 767Q352 767 335 783T318 825Q318 842 324 856T341 881T364 896T390 902Q416 902 433 886T451 841Q451 825 445 812T428 788T404 773T378 767Z" />
<glyph unicode="&#xcc;" glyph-name="Igrave" horiz-adv-x="286" d="M244 693H370L204 0H78L244 693ZM256 951L404 794L348 738L182 872L256 951Z" />
<glyph unicode="&#xcd;" glyph-name="Iacute" horiz-adv-x="286" d="M244 693H370L204 0H78L244 693ZM412 954L477 872L288 745L239 805L412 954Z" />
<glyph unicode="&#xce;" glyph-name="Icircumflex" horiz-adv-x="286" d="M244 693H370L204 0H78L244 693ZM361 945L475 786L423 739L342 827L224 741L184 794L361 945Z" />
<glyph unicode="&#xcf;" glyph-name="Idieresis" horiz-adv-x="286" d="M244 693H370L204 0H78L244 693ZM437 767Q411 767 394 783T377 825Q377 842 383 856T400 881T423 896T449 902Q475 902 492 886T510 841Q510 825 504 812T487 788T463 773T437 767ZM231 767Q205
767 188 783T171 825Q171 842 177 856T194 881T217 896T243 902Q269 902 286 886T304 841Q304 825 298 812T281 788T257 773T231 767Z" />
<glyph unicode="&#xd0;" glyph-name="Eth" horiz-adv-x="723" d="M116 408H197L263 682Q312 693 362 696T454 700Q530 700 588 681T685 626T744 540T764 427Q764 334 734 254T645 116T498 25T292 -8Q250 -8 198 -4T102 11L174 313H94L116 408ZM323 408H451L428
313H300L250 103Q261 101 275 101T321 100Q393 100 451 123T549 188T612 290T634 423Q634 502 589 548T442 594Q416 594 401 593T367 590L323 408Z" />
<glyph unicode="&#xd1;" glyph-name="Ntilde" horiz-adv-x="719" d="M535 0Q516 58 492 125T440 259T383 389T323 506L202 0H78L244 693H345Q373 648 403 590T463 469T519 341T566 220L677 693H802L636 0H535ZM604 773Q586 773 571 779T543 791T517 804T491 810Q474
810 461 799T434 766L377 801Q398 848 428 873T503 898Q523 898 538 892T567 879T592 866T617 860Q634 860 647 872T674 905L731 870Q709 822 679 798T604 773Z" />
<glyph unicode="&#xd2;" glyph-name="Ograve" horiz-adv-x="742" d="M505 600Q448 600 402 572T322 497T271 393T252 274Q252 192 287 143T399 94Q456 94 503 122T583 197T634 301T653 420Q653 502 618 551T505 600ZM386 -15Q328 -15 280 3T196 57T141 144T121
263Q121 343 147 423T223 566T348 669T518 709Q576 709 625 691T709 637T763 550T783 431Q783 351 757 271T681 128T557 25T386 -15ZM507 951L655 794L599 738L433 872L507 951Z" />
<glyph unicode="&#xd3;" glyph-name="Oacute" horiz-adv-x="742" d="M505 600Q448 600 402 572T322 497T271 393T252 274Q252 192 287 143T399 94Q456 94 503 122T583 197T634 301T653 420Q653 502 618 551T505 600ZM386 -15Q328 -15 280 3T196 57T141 144T121
263Q121 343 147 423T223 566T348 669T518 709Q576 709 625 691T709 637T763 550T783 431Q783 351 757 271T681 128T557 25T386 -15ZM611 954L676 872L487 745L438 805L611 954Z" />
<glyph unicode="&#xd4;" glyph-name="Ocircumflex" horiz-adv-x="742" d="M505 600Q448 600 402 572T322 497T271 393T252 274Q252 192 287 143T399 94Q456 94 503 122T583 197T634 301T653 420Q653 502 618 551T505 600ZM386 -15Q328 -15 280 3T196 57T141 144T121
263Q121 343 147 423T223 566T348 669T518 709Q576 709 625 691T709 637T763 550T783 431Q783 351 757 271T681 128T557 25T386 -15ZM572 945L686 786L634 739L553 827L435 741L395 794L572 945Z" />
<glyph unicode="&#xd5;" glyph-name="Otilde" horiz-adv-x="742" d="M505 600Q448 600 402 572T322 497T271 393T252 274Q252 192 287 143T399 94Q456 94 503 122T583 197T634 301T653 420Q653 502 618 551T505 600ZM386 -15Q328 -15 280 3T196 57T141 144T121
263Q121 343 147 423T223 566T348 669T518 709Q576 709 625 691T709 637T763 550T783 431Q783 351 757 271T681 128T557 25T386 -15ZM601 773Q583 773 568 779T540 791T514 804T488 810Q471 810 458 799T431 766L374 801Q395 848 425 873T500 898Q520 898 535 892T564
879T589 866T614 860Q631 860 644 872T671 905L728 870Q706 822 676 798T601 773Z" />
<glyph unicode="&#xd6;" glyph-name="Odieresis" horiz-adv-x="742" d="M505 600Q448 600 402 572T322 497T271 393T252 274Q252 192 287 143T399 94Q456 94 503 122T583 197T634 301T653 420Q653 502 618 551T505 600ZM386 -15Q328 -15 280 3T196 57T141 144T121
263Q121 343 147 423T223 566T348 669T518 709Q576 709 625 691T709 637T763 550T783 431Q783 351 757 271T681 128T557 25T386 -15ZM650 767Q624 767 607 783T590 825Q590 842 596 856T613 881T636 896T662 902Q688 902 705 886T723 841Q723 825 717 812T700 788T676
773T650 767ZM444 767Q418 767 401 783T384 825Q384 842 390 856T407 881T430 896T456 902Q482 902 499 886T517 841Q517 825 511 812T494 788T470 773T444 767Z" />
<glyph unicode="&#xd7;" glyph-name="multiply" horiz-adv-x="568" d="M540 509L598 433L422 290L527 151L445 84L340 224L164 81L105 157L282 299L176 439L259 505L364 366L540 509Z" />
<glyph unicode="&#xd8;" glyph-name="Oslash" horiz-adv-x="742" d="M390 -15Q298 -15 233 29L172 -41L104 12L172 89Q149 123 137 166T125 263Q125 343 151 423T227 566T352 669T522 709Q567 709 606 698T678 665L739 734L806 681L739 605Q762 571 774 528T787
431Q787 351 761 271T685 128T561 25T390 -15ZM657 420Q657 466 647 499L313 120Q348 94 403 94Q460 94 507 122T587 197T638 301T657 420ZM509 600Q452 600 406 572T326 497T275 393T256 274Q256 228 266 195L598 574Q564 600 509 600Z" />
<glyph unicode="&#xd9;" glyph-name="Ugrave" horiz-adv-x="677" d="M660 255Q645 191 622 141T563 57T474 4T347 -15Q289 -15 248 0T180 43T142 107T129 189Q129 212 132 240T143 294L238 693H365L266 280Q261 261 258 241T255 201Q255 179 260 160T279 126T313
104T365 95Q438 95 477 138T536 267L638 693H765L660 255ZM448 951L596 794L540 738L374 872L448 951Z" />
<glyph unicode="&#xda;" glyph-name="Uacute" horiz-adv-x="677" d="M660 255Q645 191 622 141T563 57T474 4T347 -15Q289 -15 248 0T180 43T142 107T129 189Q129 212 132 240T143 294L238 693H365L266 280Q261 261 258 241T255 201Q255 179 260 160T279 126T313
104T365 95Q438 95 477 138T536 267L638 693H765L660 255ZM590 954L655 872L466 745L417 805L590 954Z" />
<glyph unicode="&#xdb;" glyph-name="Ucircumflex" horiz-adv-x="677" d="M660 255Q645 191 622 141T563 57T474 4T347 -15Q289 -15 248 0T180 43T142 107T129 189Q129 212 132 240T143 294L238 693H365L266 280Q261 261 258 241T255 201Q255 179 260 160T279
126T313 104T365 95Q438 95 477 138T536 267L638 693H765L660 255ZM548 945L662 786L610 739L529 827L411 741L371 794L548 945Z" />
<glyph unicode="&#xdc;" glyph-name="Udieresis" horiz-adv-x="677" d="M660 255Q645 191 622 141T563 57T474 4T347 -15Q289 -15 248 0T180 43T142 107T129 189Q129 212 132 240T143 294L238 693H365L266 280Q261 261 258 241T255 201Q255 179 260 160T279 126T313
104T365 95Q438 95 477 138T536 267L638 693H765L660 255ZM622 767Q596 767 579 783T562 825Q562 842 568 856T585 881T608 896T634 902Q660 902 677 886T695 841Q695 825 689 812T672 788T648 773T622 767ZM416 767Q390 767 373 783T356 825Q356 842 362 856T379
881T402 896T428 902Q454 902 471 886T489 841Q489 825 483 812T466 788T442 773T416 767Z" />
<glyph unicode="&#xdd;" glyph-name="Yacute" horiz-adv-x="595" d="M382 387Q444 462 502 537T612 693H754Q715 638 676 586T597 483T513 380T424 276L358 0H232L298 276Q257 381 224 484T161 693H295Q312 616 334 539T382 387ZM548 954L613 872L424 745L375
805L548 954Z" />
<glyph unicode="&#xde;" glyph-name="Thorn" horiz-adv-x="628" d="M370 693L344 586Q361 588 384 588T424 589Q485 589 530 575T606 537T650 478T665 403Q665 346 643 297T575 212T462 156T304 135H235L203 0H77L243 693H370ZM392 482Q365 482 347 481T318 478L261
242H317Q359 242 398 248T468 272T516 319T535 394Q535 443 497 462T392 482Z" />
<glyph unicode="&#xdf;" glyph-name="germandbls" horiz-adv-x="621" d="M209 561Q223 619 248 659T306 726T382 764T472 776Q512 776 545 766T603 736T641 691T655 634Q655 588 634 555T570 482Q539 454 518 433T496 380Q496 359 514 344T558 311Q594 285 617
255T640 176Q640 128 622 93T573 35T501 0T414 -12Q369 -12 329 -1T267 23L311 119Q331 107 359 98T421 88Q464 88 491 108T519 165Q519 186 507 203T465 240Q435 259 417 274T390 305T377 335T373 367Q373 406 394 435T443 490T496 540T527 582T532 620Q532 641
516 657T461 673Q412 673 377 644T326 550L221 110Q208 56 197 14T170 -63T135 -128T83 -189L-22 -173Q-3 -149 13 -125T43 -73T68 -13T89 60L209 561Z" />
<glyph unicode="&#xe0;" glyph-name="agrave" horiz-adv-x="558" d="M530 203Q527 192 524 167T521 120Q521 91 526 64T542 8L434 -8Q422 16 415 43Q390 21 354 4T271 -14Q224 -14 191 1T136 44T105 109T95 189Q95 262 121 325T193 434T304 506T444 533Q483 533
522 527T602 502L530 203ZM464 429Q445 433 421 433Q376 433 338 414T273 362T230 287T215 199Q215 176 219 156T232 121T258 97T299 88Q331 88 355 101T401 138Q402 164 405 187T415 233L464 429ZM399 789L547 632L491 576L325 710L399 789Z" />
<glyph unicode="&#xe1;" glyph-name="aacute" horiz-adv-x="558" d="M530 203Q527 192 524 167T521 120Q521 91 526 64T542 8L434 -8Q422 16 415 43Q390 21 354 4T271 -14Q224 -14 191 1T136 44T105 109T95 189Q95 262 121 325T193 434T304 506T444 533Q483 533
522 527T602 502L530 203ZM464 429Q445 433 421 433Q376 433 338 414T273 362T230 287T215 199Q215 176 219 156T232 121T258 97T299 88Q331 88 355 101T401 138Q402 164 405 187T415 233L464 429ZM515 792L580 710L391 583L342 643L515 792Z" />
<glyph unicode="&#xe2;" glyph-name="acircumflex" horiz-adv-x="558" d="M530 203Q527 192 524 167T521 120Q521 91 526 64T542 8L434 -8Q422 16 415 43Q390 21 354 4T271 -14Q224 -14 191 1T136 44T105 109T95 189Q95 262 121 325T193 434T304 506T444 533Q483
533 522 527T602 502L530 203ZM464 429Q445 433 421 433Q376 433 338 414T273 362T230 287T215 199Q215 176 219 156T232 121T258 97T299 88Q331 88 355 101T401 138Q402 164 405 187T415 233L464 429ZM460 784L574 625L522 578L441 666L323 580L283 633L460 784Z"
/>
<glyph unicode="&#xe3;" glyph-name="atilde" horiz-adv-x="558" d="M530 203Q527 192 524 167T521 120Q521 91 526 64T542 8L434 -8Q422 16 415 43Q390 21 354 4T271 -14Q224 -14 191 1T136 44T105 109T95 189Q95 262 121 325T193 434T304 506T444 533Q483 533
522 527T602 502L530 203ZM464 429Q445 433 421 433Q376 433 338 414T273 362T230 287T215 199Q215 176 219 156T232 121T258 97T299 88Q331 88 355 101T401 138Q402 164 405 187T415 233L464 429ZM497 614Q479 614 464 620T436 632T410 645T384 651Q367 651 354
640T327 607L270 642Q291 689 321 714T396 739Q416 739 431 733T460 720T485 707T510 701Q527 701 540 713T567 746L624 711Q602 663 572 639T497 614Z" />
<glyph unicode="&#xe4;" glyph-name="adieresis" horiz-adv-x="558" d="M530 203Q527 192 524 167T521 120Q521 91 526 64T542 8L434 -8Q422 16 415 43Q390 21 354 4T271 -14Q224 -14 191 1T136 44T105 109T95 189Q95 262 121 325T193 434T304 506T444 533Q483
533 522 527T602 502L530 203ZM464 429Q445 433 421 433Q376 433 338 414T273 362T230 287T215 199Q215 176 219 156T232 121T258 97T299 88Q331 88 355 101T401 138Q402 164 405 187T415 233L464 429ZM534 609Q508 609 491 625T474 667Q474 684 480 698T497 723T520
738T546 744Q572 744 589 728T607 683Q607 667 601 654T584 630T560 615T534 609ZM328 609Q302 609 285 625T268 667Q268 684 274 698T291 723T314 738T340 744Q366 744 383 728T401 683Q401 667 395 654T378 630T354 615T328 609Z" />
<glyph unicode="&#xe5;" glyph-name="aring" horiz-adv-x="558" d="M530 203Q527 192 524 167T521 120Q521 91 526 64T542 8L434 -8Q422 16 415 43Q390 21 354 4T271 -14Q224 -14 191 1T136 44T105 109T95 189Q95 262 121 325T193 434T304 506T444 533Q483 533
522 527T602 502L530 203ZM464 429Q445 433 421 433Q376 433 338 414T273 362T230 287T215 199Q215 176 219 156T232 121T258 97T299 88Q331 88 355 101T401 138Q402 164 405 187T415 233L464 429ZM552 688Q552 662 543 642T519 608T483 587T441 579Q419 579 399
586T364 608T340 642T331 688Q331 713 340 733T364 767T399 788T441 796Q463 796 483 789T518 768T543 734T552 688ZM490 688Q490 712 476 725T441 739Q421 739 407 726T392 688Q392 664 406 651T441 637Q461 637 475 650T490 688Z" />
<glyph unicode="&#xe6;" glyph-name="ae" horiz-adv-x="841" d="M626 -14Q557 -14 513 12T445 79Q406 34 353 7T234 -21Q158 -21 116 18T74 118Q74 183 105 223T187 285T299 316T426 325Q427 331 427 339Q427 426 312 426Q244 426 176 398L166 496Q190 507 234
518T334 529Q400 529 444 504T511 438Q551 483 604 509T724 536Q800 536 842 497T884 397Q884 334 853 295T773 234T661 204T534 194Q533 188 533 180Q533 89 648 89Q716 89 784 117L794 19Q770 8 726 -3T626 -14ZM252 78Q282 78 309 90T359 123T396 174T418 239Q297
237 242 211T187 130Q187 110 201 94T252 78ZM706 437Q676 437 649 425T601 392T565 343T542 281Q662 285 716 310T771 385Q771 405 757 421T706 437Z" />
<glyph unicode="&#xe7;" glyph-name="ccedilla" horiz-adv-x="459" d="M341 -62T341 -105Q341 -131 331 -149T304 -180T263 -199T214 -205Q159 -205 123 -186L153 -118Q164 -123 178 -126T210 -130Q228 -130 238 -124T249 -106Q249 -94 242 -88T217 -73L204 -67Q211
-55 222 -38T244 -7Q168 11 133 67T97 198Q97 266 118 327T180 435T278 509T410 536Q449 536 481 530T543 510L500 413Q482 421 460 427T406 433Q363 433 329 416T270 368T233 297T220 210Q220 184 225 163T243 125T278 99T333 90Q367 90 398 99T447 117L457 18Q434
7 399 -2T318 -14L299 -41Q341 -62 341 -105Z" />
<glyph unicode="&#xe8;" glyph-name="egrave" horiz-adv-x="523" d="M97 189Q97 256 118 318T180 429T278 507T406 536Q482 536 524 497T566 397Q566 334 535 295T455 234T343 204T216 194Q215 192 215 190V180Q215 89 330 89Q398 89 466 117L476 19Q452 8 408
-3T308 -14Q252 -14 212 2T147 46T109 110T97 189ZM388 437Q358 437 331 425T283 392T247 343T224 281Q344 285 398 310T453 385Q453 405 439 421T388 437ZM366 789L514 632L458 576L292 710L366 789Z" />
<glyph unicode="&#xe9;" glyph-name="eacute" horiz-adv-x="523" d="M97 189Q97 256 118 318T180 429T278 507T406 536Q482 536 524 497T566 397Q566 334 535 295T455 234T343 204T216 194Q215 192 215 190V180Q215 89 330 89Q398 89 466 117L476 19Q452 8 408
-3T308 -14Q252 -14 212 2T147 46T109 110T97 189ZM388 437Q358 437 331 425T283 392T247 343T224 281Q344 285 398 310T453 385Q453 405 439 421T388 437ZM486 792L551 710L362 583L313 643L486 792Z" />
<glyph unicode="&#xea;" glyph-name="ecircumflex" horiz-adv-x="523" d="M97 189Q97 256 118 318T180 429T278 507T406 536Q482 536 524 497T566 397Q566 334 535 295T455 234T343 204T216 194Q215 192 215 190V180Q215 89 330 89Q398 89 466 117L476 19Q452
8 408 -3T308 -14Q252 -14 212 2T147 46T109 110T97 189ZM388 437Q358 437 331 425T283 392T247 343T224 281Q344 285 398 310T453 385Q453 405 439 421T388 437ZM447 784L561 625L509 578L428 666L310 580L270 633L447 784Z" />
<glyph unicode="&#xeb;" glyph-name="edieresis" horiz-adv-x="523" d="M97 189Q97 256 118 318T180 429T278 507T406 536Q482 536 524 497T566 397Q566 334 535 295T455 234T343 204T216 194Q215 192 215 190V180Q215 89 330 89Q398 89 466 117L476 19Q452 8
408 -3T308 -14Q252 -14 212 2T147 46T109 110T97 189ZM388 437Q358 437 331 425T283 392T247 343T224 281Q344 285 398 310T453 385Q453 405 439 421T388 437ZM535 609Q509 609 492 625T475 667Q475 684 481 698T498 723T521 738T547 744Q573 744 590 728T608
683Q608 667 602 654T585 630T561 615T535 609ZM329 609Q303 609 286 625T269 667Q269 684 275 698T292 723T315 738T341 744Q367 744 384 728T402 683Q402 667 396 654T379 630T355 615T329 609Z" />
<glyph unicode="&#xec;" glyph-name="igrave" horiz-adv-x="271" d="M193 0H73L198 523H319L193 0ZM473 789L621 632L565 576L399 710L473 789Z" />
<glyph unicode="&#xed;" glyph-name="iacute" horiz-adv-x="271" d="M193 0H73L198 523H319L193 0ZM362 792L427 710L238 583L189 643L362 792Z" />
<glyph unicode="&#xee;" glyph-name="icircumflex" horiz-adv-x="271" d="M193 0H73L198 523H319L193 0ZM311 784L425 625L373 578L292 666L174 580L134 633L311 784Z" />
<glyph unicode="&#xef;" glyph-name="idieresis" horiz-adv-x="271" d="M193 0H73L198 523H319L193 0ZM648 609Q622 609 605 625T588 667Q588 684 594 698T611 723T634 738T660 744Q686 744 703 728T721 683Q721 667 715 654T698 630T674 615T648 609ZM442 609Q416
609 399 625T382 667Q382 684 388 698T405 723T428 738T454 744Q480 744 497 728T515 683Q515 667 509 654T492 630T468 615T442 609Z" />
<glyph unicode="&#xf0;" glyph-name="eth" horiz-adv-x="579" d="M567 616Q586 572 596 521T606 412Q606 369 600 321T578 225T539 134T480 58T398 6T290 -14Q246 -14 211 1T150 42T111 104T97 184Q97 259 118 316T178 411T267 469T377 489Q411 489 439 481T489
462Q487 494 481 523T461 582L337 543L328 616L425 647Q410 668 392 685T353 719L438 776Q462 759 486 735T530 680L667 725L676 651L567 616ZM306 91Q347 91 378 114T430 176T464 261T481 358Q454 375 427 382T375 390Q337 390 308 376T258 335T228 271T218 190Q218
145 240 118T306 91Z" />
<glyph unicode="&#xf1;" glyph-name="ntilde" horiz-adv-x="563" d="M193 501Q233 513 284 523T397 534Q489 534 532 489T575 368Q575 347 572 324T563 275L497 0H376L438 262Q443 284 448 307T454 351Q455 386 438 409T369 432Q326 432 295 423L194 0H73L193
501ZM483 614Q465 614 450 620T422 632T396 645T370 651Q353 651 340 640T313 607L256 642Q277 689 307 714T382 739Q402 739 417 733T446 720T471 707T496 701Q513 701 526 713T553 746L610 711Q588 663 558 639T483 614Z" />
<glyph unicode="&#xf2;" glyph-name="ograve" horiz-adv-x="563" d="M288 -14Q195 -14 146 41T97 186Q97 244 115 306T170 419T263 503T395 536Q488 536 537 482T586 337Q586 278 569 216T515 103T422 19T288 -14ZM380 434Q341 434 311 412T260 354T228 278T217
197Q217 147 236 118T303 89Q342 89 372 111T423 168T455 245T466 325Q466 375 447 404T380 434ZM358 789L506 632L450 576L284 710L358 789Z" />
<glyph unicode="&#xf3;" glyph-name="oacute" horiz-adv-x="563" d="M288 -14Q195 -14 146 41T97 186Q97 244 115 306T170 419T263 503T395 536Q488 536 537 482T586 337Q586 278 569 216T515 103T422 19T288 -14ZM380 434Q341 434 311 412T260 354T228 278T217
197Q217 147 236 118T303 89Q342 89 372 111T423 168T455 245T466 325Q466 375 447 404T380 434ZM499 792L564 710L375 583L326 643L499 792Z" />
<glyph unicode="&#xf4;" glyph-name="ocircumflex" horiz-adv-x="563" d="M288 -14Q195 -14 146 41T97 186Q97 244 115 306T170 419T263 503T395 536Q488 536 537 482T586 337Q586 278 569 216T515 103T422 19T288 -14ZM380 434Q341 434 311 412T260 354T228 278T217
197Q217 147 236 118T303 89Q342 89 372 111T423 168T455 245T466 325Q466 375 447 404T380 434ZM450 784L564 625L512 578L431 666L313 580L273 633L450 784Z" />
<glyph unicode="&#xf5;" glyph-name="otilde" horiz-adv-x="563" d="M288 -14Q195 -14 146 41T97 186Q97 244 115 306T170 419T263 503T395 536Q488 536 537 482T586 337Q586 278 569 216T515 103T422 19T288 -14ZM380 434Q341 434 311 412T260 354T228 278T217
197Q217 147 236 118T303 89Q342 89 372 111T423 168T455 245T466 325Q466 375 447 404T380 434ZM479 614Q461 614 446 620T418 632T392 645T366 651Q349 651 336 640T309 607L252 642Q273 689 303 714T378 739Q398 739 413 733T442 720T467 707T492 701Q509 701
522 713T549 746L606 711Q584 663 554 639T479 614Z" />
<glyph unicode="&#xf6;" glyph-name="odieresis" horiz-adv-x="563" d="M288 -14Q195 -14 146 41T97 186Q97 244 115 306T170 419T263 503T395 536Q488 536 537 482T586 337Q586 278 569 216T515 103T422 19T288 -14ZM380 434Q341 434 311 412T260 354T228 278T217
197Q217 147 236 118T303 89Q342 89 372 111T423 168T455 245T466 325Q466 375 447 404T380 434ZM525 609Q499 609 482 625T465 667Q465 684 471 698T488 723T511 738T537 744Q563 744 580 728T598 683Q598 667 592 654T575 630T551 615T525 609ZM319 609Q293 609
276 625T259 667Q259 684 265 698T282 723T305 738T331 744Q357 744 374 728T392 683Q392 667 386 654T369 630T345 615T319 609Z" />
<glyph unicode="&#xf7;" glyph-name="divide" horiz-adv-x="568" d="M131 337H590L565 235H106L131 337ZM310 162Q337 162 354 147T372 102Q372 65 348 40T288 15Q261 15 244 31T226 76Q226 113 250 137T310 162ZM405 556Q432 556 449 541T467 496Q467 459 443
434T383 409Q356 409 339 425T321 470Q321 507 345 531T405 556Z" />
<glyph unicode="&#xf8;" glyph-name="oslash" horiz-adv-x="563" d="M288 -14Q219 -14 173 17L125 -38L67 7L123 71Q97 120 97 186Q97 244 115 306T170 419T263 503T395 536Q460 536 506 507L552 560L610 515L557 454Q586 405 586 337Q586 278 569 216T515 103T422
19T288 -14ZM466 325Q466 331 466 337T465 349L250 104Q269 89 303 89Q342 89 372 111T423 168T455 245T466 325ZM380 434Q341 434 311 412T260 354T228 278T217 197V178L430 420Q410 434 380 434Z" />
<glyph unicode="&#xf9;" glyph-name="ugrave" horiz-adv-x="567" d="M608 523L534 212Q529 189 527 166T524 120Q524 91 528 63T544 8L436 -8Q430 3 426 16T417 44Q392 24 355 6T269 -13Q225 -13 194 0T144 35T116 88T107 153Q107 197 119 248L185 523H306L241
251Q228 199 228 166Q228 150 231 136T241 112T262 95T296 89Q329 89 355 102T403 139Q406 182 417 227L487 523H608ZM349 789L497 632L441 576L275 710L349 789Z" />
<glyph unicode="&#xfa;" glyph-name="uacute" horiz-adv-x="567" d="M608 523L534 212Q529 189 527 166T524 120Q524 91 528 63T544 8L436 -8Q430 3 426 16T417 44Q392 24 355 6T269 -13Q225 -13 194 0T144 35T116 88T107 153Q107 197 119 248L185 523H306L241
251Q228 199 228 166Q228 150 231 136T241 112T262 95T296 89Q329 89 355 102T403 139Q406 182 417 227L487 523H608ZM502 792L567 710L378 583L329 643L502 792Z" />
<glyph unicode="&#xfb;" glyph-name="ucircumflex" horiz-adv-x="567" d="M608 523L534 212Q529 189 527 166T524 120Q524 91 528 63T544 8L436 -8Q430 3 426 16T417 44Q392 24 355 6T269 -13Q225 -13 194 0T144 35T116 88T107 153Q107 197 119 248L185 523H306L241
251Q228 199 228 166Q228 150 231 136T241 112T262 95T296 89Q329 89 355 102T403 139Q406 182 417 227L487 523H608ZM453 784L567 625L515 578L434 666L316 580L276 633L453 784Z" />
<glyph unicode="&#xfc;" glyph-name="udieresis" horiz-adv-x="567" d="M608 523L534 212Q529 189 527 166T524 120Q524 91 528 63T544 8L436 -8Q430 3 426 16T417 44Q392 24 355 6T269 -13Q225 -13 194 0T144 35T116 88T107 153Q107 197 119 248L185 523H306L241
251Q228 199 228 166Q228 150 231 136T241 112T262 95T296 89Q329 89 355 102T403 139Q406 182 417 227L487 523H608ZM526 609Q500 609 483 625T466 667Q466 684 472 698T489 723T512 738T538 744Q564 744 581 728T599 683Q599 667 593 654T576 630T552 615T526
609ZM320 609Q294 609 277 625T260 667Q260 684 266 698T283 723T306 738T332 744Q358 744 375 728T393 683Q393 667 387 654T370 630T346 615T320 609Z" />
<glyph unicode="&#xfd;" glyph-name="yacute" horiz-adv-x="494" d="M583 523Q563 466 539 405T486 281T422 158T349 38Q320 -6 289 -46T222 -118T141 -168T41 -187Q10 -187 -14 -180T-56 -164L-17 -67Q-3 -75 14 -80T53 -85Q100 -85 135 -61T200 6Q168 117 146
247T117 523H239Q240 481 243 430T252 326T266 220T284 124Q314 172 340 225T388 330T426 432T455 523H583ZM449 792L514 710L325 583L276 643L449 792Z" />
<glyph unicode="&#xfe;" glyph-name="thorn" horiz-adv-x="564" d="M589 335Q589 264 567 202T501 92T395 18T251 -10Q237 -10 223 -9T194 -5L150 -185H29L255 756L381 776L321 528Q338 531 354 533T387 535Q439 535 477 520T540 477T577 414T589 335ZM217 94Q227
92 238 92T260 91Q308 91 346 109T412 159T453 233T468 324Q468 346 463 365T447 400T416 424T366 433Q346 433 328 431T296 424L217 94Z" />
<glyph unicode="&#xff;" glyph-name="ydieresis" horiz-adv-x="494" d="M583 523Q563 466 539 405T486 281T422 158T349 38Q320 -6 289 -46T222 -118T141 -168T41 -187Q10 -187 -14 -180T-56 -164L-17 -67Q-3 -75 14 -80T53 -85Q100 -85 135 -61T200 6Q168 117
146 247T117 523H239Q240 481 243 430T252 326T266 220T284 124Q314 172 340 225T388 330T426 432T455 523H583ZM479 609Q453 609 436 625T419 667Q419 684 425 698T442 723T465 738T491 744Q517 744 534 728T552 683Q552 667 546 654T529 630T505 615T479 609ZM273
609Q247 609 230 625T213 667Q213 684 219 698T236 723T259 738T285 744Q311 744 328 728T346 683Q346 667 340 654T323 630T299 615T273 609Z" />
<glyph unicode="&#x2013;" glyph-name="endash" horiz-adv-x="495" d="M77 337H577L553 235H53L77 337Z" />
<glyph unicode="&#x2014;" glyph-name="emdash" horiz-adv-x="995" d="M77 337H1077L1053 235H53L77 337Z" />
<glyph unicode="&#x2018;" glyph-name="quoteleft" horiz-adv-x="251" d="M179 507Q183 544 196 580T228 650T269 714T316 768L392 736Q357 683 334 627T303 507H179Z" />
<glyph unicode="&#x2019;" glyph-name="quoteright" horiz-adv-x="251" d="M374 758Q370 721 357 685T325 615T284 551T237 497L161 529Q196 582 219 638T250 758H374Z" />
<glyph unicode="&#x201a;" glyph-name="quotesinglbase" horiz-adv-x="251" d="M97 133H221Q217 96 204 60T172 -10T131 -74T84 -128L8 -96Q43 -43 66 13T97 133Z" />
<glyph unicode="&#x201c;" glyph-name="quotedblleft" horiz-adv-x="450" d="M378 507Q382 544 395 580T427 650T468 714T515 768L591 736Q556 683 533 627T502 507H378ZM179 507Q183 544 196 580T228 650T269 714T316 768L392 736Q357 683 334 627T303 507H179Z" />
<glyph unicode="&#x201d;" glyph-name="quotedblright" horiz-adv-x="450" d="M250 758H374Q370 721 357 685T325 615T284 551T237 497L161 529Q196 582 219 638T250 758ZM449 758H573Q569 721 556 685T524 615T483 551T436 497L360 529Q395 582 418 638T449 758Z" />
<glyph unicode="&#x201e;" glyph-name="quotedblbase" horiz-adv-x="451" d="M97 133H221Q217 96 204 60T172 -10T131 -74T84 -128L8 -96Q43 -43 66 13T97 133ZM297 133H421Q417 96 404 60T372 -10T331 -74T284 -128L208 -96Q243 -43 266 13T297 133Z" />
<glyph unicode="&#x2022;" glyph-name="bullet" horiz-adv-x="370" d="M398 353Q398 326 389 302T361 259T318 229T262 218Q230 218 205 229T163 258T136 301T126 353Q126 380 135 404T162 447T205 476T262 487Q293 487 318 476T361 447T388 405T398 353Z" />
<glyph unicode="&#x2039;" glyph-name="guilsinglleft" horiz-adv-x="311" d="M380 469L223 275L297 91L216 53L93 290L304 514L380 469Z" />
<glyph unicode="&#x203a;" glyph-name="guilsinglright" horiz-adv-x="311" d="M67 98L224 292L150 476L231 514L354 277L143 53L67 98Z" />
</font>
</defs>
</svg>
