<svg xmlns="http://www.w3.org/2000/svg" width="24" height="25" fill="none" viewBox="0 0 24 25"><path fill="#858282" d="M12 22.0195C6.477 22.0195 2 17.5425 2 12.0195C2 7.54154 4.943 3.75154 9 2.47754V4.60154C7.28092 5.29958 5.8578 6.57325 4.97406 8.20465C4.09032 9.83606 3.80088 11.7238 4.15525 13.5451C4.50963 15.3663 5.48579 17.0078 6.91676 18.1889C8.34774 19.3699 10.1446 20.017 12 20.0195C13.5938 20.0195 15.1513 19.5436 16.4728 18.6528C17.7944 17.762 18.82 16.4969 19.418 15.0195H21.542C20.268 19.0765 16.478 22.0195 12 22.0195Z"/><path fill="#858282" d="M15.6027 5.82699C15.6027 6.58113 15.3881 7.16124 14.9589 7.56732C14.5388 7.9734 13.9863 8.17643 13.3014 8.17643C12.9635 8.17643 12.653 8.12671 12.3699 8.02726C12.0868 7.91953 11.8447 7.76621 11.6438 7.56732C11.4429 7.36842 11.2831 7.12395 11.1644 6.83389C11.0548 6.53555 11 6.19991 11 5.82699C11 5.06456 11.21 4.48444 11.6301 4.08665C12.0594 3.68058 12.6164 3.47754 13.3014 3.47754C13.9863 3.47754 14.5388 3.68058 14.9589 4.08665C15.3881 4.48444 15.6027 5.06456 15.6027 5.82699ZM14.3014 5.82699C14.3014 5.38776 14.21 5.06041 14.0274 4.84494C13.8539 4.62119 13.6119 4.50931 13.3014 4.50931C12.9909 4.50931 12.7489 4.62119 12.5753 4.84494C12.4018 5.06041 12.3151 5.38776 12.3151 5.82699C12.3151 6.26621 12.4018 6.5977 12.5753 6.82146C12.7489 7.03693 12.9909 7.14467 13.3014 7.14467C13.6119 7.14467 13.8539 7.03693 14.0274 6.82146C14.21 6.5977 14.3014 6.26621 14.3014 5.82699ZM18.3836 3.664H19.9589L14.6027 12.2786H13.0274L18.3836 3.664ZM22 10.1281C22 10.8822 21.7854 11.4623 21.3562 11.8684C20.9361 12.2745 20.3836 12.4775 19.6986 12.4775C19.3607 12.4775 19.0502 12.4237 18.7671 12.3159C18.484 12.2165 18.242 12.0673 18.0411 11.8684C17.8402 11.6695 17.6804 11.4251 17.5616 11.135C17.4521 10.8367 17.3973 10.501 17.3973 10.1281C17.3973 9.36566 17.6073 8.78555 18.0274 8.38776C18.4566 7.98168 19.0137 7.77864 19.6986 7.77864C20.3836 7.77864 20.9361 7.98168 21.3562 8.38776C21.7854 8.78555 22 9.36566 22 10.1281ZM20.6986 10.1281C20.6986 9.68886 20.6073 9.36152 20.4247 9.14605C20.2511 8.92229 20.0091 8.81041 19.6986 8.81041C19.3881 8.81041 19.1461 8.92229 18.9726 9.14605C18.7991 9.36152 18.7123 9.68886 18.7123 10.1281C18.7123 10.5673 18.7991 10.8988 18.9726 11.1226C19.1461 11.338 19.3881 11.4458 19.6986 11.4458C20.0091 11.4458 20.2511 11.338 20.4247 11.1226C20.6073 10.8988 20.6986 10.5673 20.6986 10.1281Z"/></svg>