<svg xmlns="http://www.w3.org/2000/svg" width="36" height="20" fill="none" viewBox="0 0 36 20"><rect width="34" height="19" x="1" y=".5" stroke="#716E6E" rx="1.5"/><path fill="#716E6E" d="M8.38184 14C9.88574 14 10.8037 13.2334 10.8037 11.998C10.8037 11.0801 10.1494 10.3965 9.20215 10.3086V10.2207C9.91016 10.1084 10.457 9.4541 10.457 8.71191C10.457 7.62793 9.65137 6.9541 8.31348 6.9541H5.36914V14H8.38184ZM6.62891 7.95508H8.00586C8.76758 7.95508 9.21191 8.31641 9.21191 8.93652C9.21191 9.57129 8.73828 9.91797 7.84473 9.91797H6.62891V7.95508ZM6.62891 12.999V10.8262H8.04492C9.00684 10.8262 9.51465 11.1973 9.51465 11.9004C9.51465 12.6182 9.02148 12.999 8.09375 12.999H6.62891ZM17.1363 12.9111H13.8355V10.9385H16.9557V9.91309H13.8355V8.04297H17.1363V6.9541H12.5758V14H17.1363V12.9111ZM22.1115 14V8.04297H24.2844V6.9541H18.6838V8.04297H20.8518V14H22.1115ZM29.7674 14H31.1199L28.615 6.9541H27.199L24.699 14H25.9734L26.5789 12.1982H29.1717L29.7674 14ZM27.8387 8.29688H27.9217L28.8787 11.2021H26.8719L27.8387 8.29688Z"/></svg>