<svg width="13" height="12" viewBox="0 0 13 12" fill="none" xmlns="http://www.w3.org/2000/svg">
<g clip-path="url(#clip0)">
<path d="M12.0159 1.84375H1.35938C1.3076 1.84375 1.26562 1.88572 1.26562 1.9375V10.4374C1.26562 10.4892 1.3076 10.5312 1.35938 10.5312H12.0159C12.0677 10.5312 12.1097 10.4892 12.1097 10.4374V1.9375C12.1097 1.88572 12.0677 1.84375 12.0159 1.84375Z" fill="#E6E7E8"/>
<path d="M11.6409 1.5625H0.984375V10.0625H11.6409V1.5625Z" fill="#D4FBFF"/>
<path d="M3.64847 1.5625H0.984375V10.0625H3.64847V1.5625Z" fill="#0089EF"/>
<path d="M11.6409 1.5625H0.984375V2.97916H11.6409V1.5625Z" fill="#FA759E"/>
<path d="M11.6409 1.5625H0.984375V1.84375H11.6409V1.5625Z" fill="white"/>
<path d="M11.6409 1.46875H0.984375C0.959511 1.46875 0.935665 1.47863 0.918084 1.49621C0.900502 1.51379 0.890625 1.53764 0.890625 1.5625V4.73434C0.890625 4.75921 0.900502 4.78305 0.918084 4.80063C0.935665 4.81822 0.959511 4.82809 0.984375 4.82809C1.00924 4.82809 1.03308 4.81822 1.05067 4.80063C1.06825 4.78305 1.07813 4.75921 1.07813 4.73434V4.48956H3.55472V5.71872H1.07813V5.06247C1.07813 5.0376 1.06825 5.01376 1.05067 4.99618C1.03308 4.97859 1.00924 4.96872 0.984375 4.96872C0.959511 4.96872 0.935665 4.97859 0.918084 4.99618C0.900502 5.01376 0.890625 5.0376 0.890625 5.06247V6.09372C0.890625 6.11858 0.900502 6.14243 0.918084 6.16001C0.935665 6.17759 0.959511 6.18747 0.984375 6.18747C1.00924 6.18747 1.03308 6.17759 1.05067 6.16001C1.06825 6.14243 1.07813 6.11858 1.07813 6.09372V5.90622H3.55472V7.13537H1.07813V6.45315C1.07813 6.42829 1.06825 6.40444 1.05067 6.38686C1.03308 6.36928 1.00924 6.3594 0.984375 6.3594C0.959511 6.3594 0.935665 6.36928 0.918084 6.38686C0.900502 6.40444 0.890625 6.42829 0.890625 6.45315V10.0625C0.890625 10.0874 0.900502 10.1112 0.918084 10.1288C0.935665 10.1464 0.959511 10.1563 0.984375 10.1563H11.6409C11.6658 10.1563 11.6896 10.1464 11.7072 10.1288C11.7248 10.1112 11.7347 10.0874 11.7347 10.0625V1.5625C11.7347 1.55019 11.7323 1.538 11.7276 1.52662C11.7228 1.51525 11.7159 1.50491 11.7072 1.49621C11.6985 1.4875 11.6882 1.4806 11.6768 1.47589C11.6654 1.47117 11.6533 1.46875 11.6409 1.46875ZM6.21891 8.73962V9.96878H3.74222V8.73962H6.21891ZM3.74222 8.55212V7.32287H6.21891V8.55212H3.74222ZM6.40641 8.73962H8.88309V9.96878H6.40641V8.73962ZM6.40641 8.55212V7.32287H8.88309V8.55212H6.40641ZM6.21891 2.88541H3.74222V1.65625H6.21891V2.88541ZM6.40641 1.65625H8.88309V2.88541H6.40641V1.65625ZM6.21891 3.07291V4.30206H3.74222V3.07291H6.21891ZM6.40641 3.07291H8.88309V4.30206H6.40641V3.07291ZM9.07059 5.71872V4.48956H11.5472V5.71872H9.07059ZM11.5472 5.90622V7.13537H9.07059V5.90622H11.5472ZM9.07059 4.30206V3.07291H11.5472V4.30206H9.07059ZM8.88309 4.48956V5.71872H6.40641V4.48956H8.88309ZM8.88309 5.90622V7.13537H6.40641V5.90622H8.88309ZM9.07059 7.32287H11.5472V8.55212H9.07059V7.32287ZM11.5472 2.88541H9.07059V1.65625H11.5472V2.88541ZM3.55472 1.65625V2.88541H1.07813V1.65625H3.55472ZM1.07813 4.30206V3.07291H3.55472V4.30206H1.07813ZM3.74222 4.48956H6.21891V5.71872H3.74222V4.48956ZM3.74222 5.90622H6.21891V7.13537H3.74222V5.90622ZM3.55472 7.32287V8.55212H1.07813V7.32287H3.55472ZM1.07813 8.73962H3.55472V9.96878H1.07813V8.73962ZM9.07059 9.96878V8.73962H11.5472V9.96878H9.07059Z" fill="#3A2C60"/>
</g>
<defs>
<clipPath id="clip0">
<rect width="12" height="12" fill="white" transform="translate(0.5)"/>
</clipPath>
</defs>
</svg>
