<svg width="14" height="14" viewBox="0 0 14 14" fill="none" xmlns="http://www.w3.org/2000/svg">
<path d="M0 3H7V14H1C0.447715 14 0 13.5523 0 13V3Z" fill="#621E09"/>
<path d="M13.3913 0H0.608699C0.273 0 0 0.273 0 0.608699V13.3913C0 13.727 0.273 14 0.608699 14H13.3913C13.727 14 14 13.727 14 13.3913V0.608699C14 0.273 13.727 0 13.3913 0ZM13.3913 0.608699V2.4348H0.608699V0.608699H13.3913ZM0.608699 3.04347H6.69566V13.3913H0.608699V3.04347ZM7.30434 13.3913V3.04347H13.3913V13.3913H7.30434Z" fill="white"/>
</svg>
