<?xml version="1.0" encoding="UTF-8"?>
<svg width="14px" height="14px" viewBox="0 0 14 14" version="1.1" xmlns="http://www.w3.org/2000/svg" xmlns:xlink="http://www.w3.org/1999/xlink">
    <title>Tables</title>
    <g id="Final" stroke="none" stroke-width="1" fill="none" fill-rule="evenodd">
        <g id="Artboard" transform="translate(-48.000000, -48.000000)">
            <g id="Tables" transform="translate(48.000000, 48.000000)">
                <rect id="Rectangle-Copy-2" x="0" y="0" width="14" height="14"></rect>
                <g id="Group-83-Copy" transform="translate(1.000000, 1.000000)" fill="#FF7742">
                    <path d="M2.821,4.97 L2.8218792,9.2453202 L8.6,9.2453202 L8.6,12 L1.6,12 L1.6,7.755 L1.589,7.754 L1.59,4.97036453 L2.821,4.97 Z M12,8.54187192 L8.6,8.541 L8.6,8.54187192 L3.521,8.54187192 L3.521,2.127 L3.529,2.128 L3.52941176,-9.12159237e-13 L12,-9.12159237e-13 L12,8.54187192 Z M2.821,2.127 L2.821,4.267 L0.89,4.26741149 L0.889,7.754 L-9.76996262e-14,7.75566502 L-9.76996262e-14,2.12807882 L2.821,2.127 Z" id="Combined-Shape"></path>
                </g>
            </g>
        </g>
    </g>
</svg>