<svg fill="none" height="18" viewBox="0 0 18 18" width="18" xmlns="http://www.w3.org/2000/svg"><g stroke="#4b4848" stroke-linejoin="round" stroke-width="1.3"><g stroke-linecap="round"><path d="m14.25 4.125c0 1.03575-2.3505 1.875-5.25 1.875s-5.25-.83925-5.25-1.875"/><path d="m14.25 7.125c0 1.03575-2.3505 1.875-5.25 1.875s-5.25-.83925-5.25-1.875"/><path d="m14.25 10.125c0 1.0358-2.3505 1.875-5.25 1.875s-5.25-.8392-5.25-1.875v-6c0-1.03575 2.3505-1.875 5.25-1.875s5.25.83925 5.25 1.875z"/><path d="m9 12v1.875"/></g><path d="m10.125 15h4.875" stroke-linecap="square"/><path d="m3 15h4.875" stroke-linecap="square"/><path d="m9.7955 14.2045c.4393.4393.4393 1.1517 0 1.591-.43934.4393-1.15165.4393-1.591 0-.43933-.4393-.43933-1.1517 0-1.591.43934-.4393 1.15165-.4393 1.591 0z" stroke-linecap="round"/></g></svg>