<svg width="14" height="14" viewBox="0 0 14 14" fill="none" xmlns="http://www.w3.org/2000/svg">
<g id="password 2" clip-path="url(#clip0)">
<g id="Group">
<g id="Group_2">
<g id="Group_3">
<path id="Vector" d="M9.10017 12.2211V11.9337C9.10017 11.8547 9.13668 11.7802 9.19908 11.7318C9.33096 11.6295 9.33096 11.4303 9.19908 11.328C9.13668 11.2796 9.10017 11.205 9.10017 11.1261V10.8387C9.10017 10.7382 9.18165 10.6567 9.28212 10.6567C9.38262 10.6567 9.46407 10.5753 9.46407 10.4748V10.2683C9.46407 10.1678 9.38259 10.0864 9.28212 10.0864C9.18162 10.0864 9.10017 10.0049 9.10017 9.90442V9.35534C9.10017 9.25484 9.18165 9.17337 9.28212 9.17337C9.38262 9.17337 9.46407 9.09189 9.46407 8.99142V8.06396H7.40625V12.749C7.40625 12.9347 7.4743 13.1139 7.5975 13.2528L8.14422 13.8691C8.29896 14.0436 8.57138 14.0436 8.72613 13.8691L9.27284 13.2528C9.39607 13.1139 9.46409 12.9347 9.46409 12.749V12.585C9.46409 12.4845 9.38262 12.403 9.28215 12.403C9.18165 12.403 9.10017 12.3216 9.10017 12.2211Z" fill="url(#paint0_linear)"/>
<path id="Vector_2" d="M8.76346 8.06384V12.9258C8.76346 13.1071 8.61649 13.2541 8.4352 13.2541C8.25391 13.2541 8.10693 13.1071 8.10693 12.9258V8.06384H8.76346Z" fill="url(#paint1_linear)"/>
<path id="Vector_3" d="M9.46409 10.2682C9.46409 10.1677 9.38262 10.0862 9.28212 10.0862C9.18162 10.0862 9.10017 10.0048 9.10017 9.90429V9.35522C9.10017 9.25472 9.18165 9.17327 9.28212 9.17327C9.38262 9.17327 9.46409 9.0918 9.46409 8.9913V8.06384H7.40625V8.54923L9.43318 10.5761C9.4527 10.5472 9.46412 10.5122 9.46412 10.4747V10.2682H9.46409Z" fill="url(#paint2_linear)"/>
<path id="Vector_4" d="M8.43521 2.8363C6.79543 2.8363 5.46606 4.16564 5.46606 5.80545C5.46606 7.44526 6.7954 8.77459 8.43521 8.77459C10.075 8.77459 11.4044 7.44526 11.4044 5.80545C11.4044 4.16564 10.075 2.8363 8.43521 2.8363ZM8.43521 5.51952C7.97033 5.51952 7.59335 5.14284 7.59335 4.67766C7.59335 4.21277 7.97033 3.83612 8.43521 3.83612C8.90009 3.83612 9.27707 4.2128 9.27707 4.67766C9.27707 5.14284 8.90009 5.51952 8.43521 5.51952Z" fill="url(#paint3_linear)"/>
<path id="Vector_5" d="M8.43525 3.35522C7.08203 3.35522 5.98511 4.45214 5.98511 5.80537C5.98511 7.1586 7.08203 8.25552 8.43525 8.25552C9.78848 8.25552 10.8854 7.1586 10.8854 5.80537C10.8854 4.45214 9.78848 3.35522 8.43525 3.35522ZM8.43525 5.51944C7.97037 5.51944 7.59338 5.14276 7.59338 4.67757C7.59338 4.21269 7.97037 3.83603 8.43525 3.83603C8.90014 3.83603 9.27712 4.21271 9.27712 4.67757C9.27712 5.14276 8.90014 5.51944 8.43525 5.51944Z" fill="url(#paint4_linear)"/>
</g>
<path id="Vector_6" d="M8.43521 2.8363C6.79543 2.8363 5.46606 4.16564 5.46606 5.80545C5.46606 7.44526 6.7954 8.77459 8.43521 8.77459C10.075 8.77459 11.4044 7.44526 11.4044 5.80545C11.4044 4.16564 10.075 2.8363 8.43521 2.8363ZM8.43521 5.51952C7.97033 5.51952 7.59335 5.14284 7.59335 4.67766C7.59335 4.21277 7.97033 3.83612 8.43521 3.83612C8.90009 3.83612 9.27707 4.2128 9.27707 4.67766C9.27707 5.14284 8.90009 5.51952 8.43521 5.51952Z" fill="url(#paint5_linear)"/>
<g id="Group_4">
<path id="Vector_7" d="M3.57956 10.4949L3.78275 10.2917C3.83859 10.2358 3.9171 10.209 3.99544 10.2189C4.16103 10.2398 4.30188 10.0989 4.28096 9.93334C4.27108 9.85499 4.29795 9.77648 4.35379 9.72065L4.55698 9.51746C4.62805 9.44639 4.74326 9.44639 4.81431 9.51746C4.88538 9.58853 5.00059 9.58853 5.07163 9.51746L5.21759 9.3715C5.28866 9.30043 5.28866 9.18522 5.21759 9.11417C5.14652 9.0431 5.14652 8.92789 5.21759 8.85685L5.60585 8.46858C5.67693 8.39751 5.79214 8.39751 5.86318 8.46858C5.93425 8.53965 6.04946 8.53965 6.12051 8.46858L6.77631 7.81278L5.32119 6.35767L2.00846 9.67038C1.87716 9.80168 1.79854 9.97652 1.78745 10.1619L1.73826 10.9842C1.72434 11.217 1.91696 11.4096 2.14972 11.3957L2.9721 11.3465C3.15745 11.3354 3.33228 11.2568 3.46358 11.1255L3.57956 11.0095C3.65063 10.9385 3.65063 10.8233 3.57956 10.7522C3.50849 10.6811 3.50849 10.5659 3.57956 10.4949Z" fill="url(#paint6_linear)"/>
<path id="Vector_8" d="M6.28102 7.31737L2.84309 10.7553C2.71489 10.8835 2.50706 10.8835 2.37886 10.7553C2.25067 10.6271 2.25067 10.4193 2.37886 10.2911L5.8168 6.85315L6.28102 7.31737Z" fill="url(#paint7_linear)"/>
<path id="Vector_9" d="M9.74528 3.38867C8.58578 2.22917 6.7058 2.22917 5.54627 3.38867C4.38674 4.54818 4.38677 6.42816 5.54627 7.5877C6.70577 8.74723 8.58575 8.7472 9.74528 7.5877C10.9048 6.42819 10.9048 4.54818 9.74528 3.38867ZM7.84798 5.28598C7.51926 4.95725 7.51904 4.42435 7.84798 4.0954C8.17671 3.76667 8.70961 3.76692 9.03834 4.09562C9.36706 4.42435 9.36728 4.95725 9.03856 5.28598C8.70961 5.61493 8.17668 5.61471 7.84798 5.28598Z" fill="url(#paint8_linear)"/>
<path id="Vector_10" d="M9.37823 3.75575C8.42135 2.79886 6.8701 2.79886 5.91322 3.75575C4.95634 4.71264 4.95634 6.26389 5.91322 7.22078C6.8701 8.17766 8.42135 8.17766 9.37823 7.22078C10.3351 6.26389 10.3351 4.71261 9.37823 3.75575ZM7.84793 5.28606C7.51921 4.95734 7.51899 4.42443 7.84793 4.09548C8.17665 3.76676 8.70956 3.76701 9.03828 4.0957C9.36701 4.42443 9.36723 4.95734 9.0385 5.28606C8.70956 5.61501 8.17663 5.61479 7.84793 5.28606Z" fill="url(#paint9_linear)"/>
</g>
</g>
<path id="Vector_11" d="M8.96826 5.34872L10.9707 7.35118C11.2458 6.90094 11.4043 6.37179 11.4043 5.80556C11.4043 5.41131 11.3273 5.0351 11.1878 4.69092C10.9287 4.93767 10.2759 5.38474 8.96826 5.34872Z" fill="url(#paint10_linear)"/>
<path id="Vector_12" d="M9.55594 0C8.09058 0 6.89325 1.1712 6.85095 2.62698C7.24476 2.51802 7.65628 2.49162 8.05877 2.54803C8.13802 1.79195 8.77914 1.20062 9.55594 1.20062C10.3865 1.20062 11.0618 1.87627 11.0618 2.7065C11.0618 3.2897 10.7283 3.79666 10.2424 4.04669C10.0365 4.15265 9.80298 4.21238 9.55594 4.21238C9.38726 4.21238 9.22516 4.18446 9.0736 4.13313H9.0733C8.89561 4.07279 8.73294 3.98006 8.59187 3.86238C8.33012 3.81525 8.0504 3.89299 7.84808 4.0953C7.71091 4.23247 7.63108 4.40506 7.60854 4.58335C7.97054 4.95976 8.44089 5.23139 8.96825 5.34874C9.15766 5.39077 9.35426 5.41298 9.55594 5.41298C9.92634 5.41298 10.2796 5.33823 10.6014 5.20287C11.5763 4.79316 12.2624 3.82845 12.2624 2.70647C12.2624 1.21413 11.0483 0 9.55594 0V0Z" fill="url(#paint11_linear)"/>
<path id="Vector_13" d="M11.6384 2.70662C11.6384 1.55692 10.7064 0.624878 9.55667 0.624878C8.46856 0.624878 7.57599 1.45983 7.4834 2.52391C7.67531 2.51348 7.86804 2.52138 8.05875 2.54812C8.138 1.79204 8.77912 1.20072 9.55593 1.20072C10.3865 1.20072 11.0618 1.87637 11.0618 2.7066C11.0618 3.28979 10.7283 3.79676 10.2424 4.04678C10.0365 4.15274 9.80296 4.21247 9.55593 4.21247C9.38724 4.21247 9.22514 4.18456 9.07359 4.13322H9.07328C8.89559 4.07289 8.73292 3.98016 8.59185 3.86247C8.36746 3.82207 8.12998 3.87373 7.93928 4.01669C8.32096 4.48731 8.90358 4.78831 9.5567 4.78831C10.7064 4.78837 11.6384 3.85635 11.6384 2.70662Z" fill="url(#paint12_linear)"/>
</g>
<g id="Group 824" opacity="0.6">
<g id="Group 821">
<path id="Vector 1" d="M0 15C5.33333 9.33333 16 -2 16 -2" stroke="white"/>
</g>
<g id="Group 822">
<path id="Vector 1_2" d="M2 17C7.33333 11.3333 18 0 18 0" stroke="white"/>
</g>
<g id="Group 823">
<path id="Vector 1_3" d="M-2 13C3.33333 7.33333 14 -4 14 -4" stroke="white"/>
</g>
</g>
</g>
<defs>
<linearGradient id="paint0_linear" x1="7.53414" y1="11.032" x2="9.17869" y2="11.032" gradientUnits="userSpaceOnUse">
<stop stop-color="#FFDA2D"/>
<stop offset="1" stop-color="#FDBF00"/>
</linearGradient>
<linearGradient id="paint1_linear" x1="9.11942" y1="10.659" x2="8.0786" y2="10.659" gradientUnits="userSpaceOnUse">
<stop stop-color="#FFDA2D"/>
<stop offset="1" stop-color="#FDBF00"/>
</linearGradient>
<linearGradient id="paint2_linear" x1="9.04072" y1="9.82984" x2="8.4004" y2="8.21902" gradientUnits="userSpaceOnUse">
<stop stop-color="#FF9100" stop-opacity="0"/>
<stop offset="1" stop-color="#FF9100"/>
</linearGradient>
<linearGradient id="paint3_linear" x1="7.10019" y1="7.14047" x2="13.1053" y2="1.13531" gradientUnits="userSpaceOnUse">
<stop stop-color="#FFDA2D"/>
<stop offset="1" stop-color="#FDBF00"/>
</linearGradient>
<linearGradient id="paint4_linear" x1="9.61269" y1="4.62794" x2="3.92996" y2="10.3107" gradientUnits="userSpaceOnUse">
<stop stop-color="#FFDA2D"/>
<stop offset="1" stop-color="#FDBF00"/>
</linearGradient>
<linearGradient id="paint5_linear" x1="10.6726" y1="8.04281" x2="8.65896" y2="6.0292" gradientUnits="userSpaceOnUse">
<stop stop-color="#FF9100" stop-opacity="0"/>
<stop offset="1" stop-color="#FF9100"/>
</linearGradient>
<linearGradient id="paint6_linear" x1="3.30924" y1="8.54921" x2="4.4719" y2="9.71187" gradientUnits="userSpaceOnUse">
<stop stop-color="#FFDA2D"/>
<stop offset="1" stop-color="#FDBF00"/>
</linearGradient>
<linearGradient id="paint7_linear" x1="4.69369" y1="9.40645" x2="3.95784" y2="8.6706" gradientUnits="userSpaceOnUse">
<stop stop-color="#FFDA2D"/>
<stop offset="1" stop-color="#FDBF00"/>
</linearGradient>
<linearGradient id="paint8_linear" x1="5.75363" y1="5.49113" x2="14.2449" y2="5.49113" gradientUnits="userSpaceOnUse">
<stop stop-color="#FFDA2D"/>
<stop offset="1" stop-color="#FDBF00"/>
</linearGradient>
<linearGradient id="paint9_linear" x1="9.30614" y1="5.49121" x2="1.27085" y2="5.49121" gradientUnits="userSpaceOnUse">
<stop stop-color="#FFDA2D"/>
<stop offset="1" stop-color="#FDBF00"/>
</linearGradient>
<linearGradient id="paint10_linear" x1="10.5374" y1="6.41901" x2="10.1172" y2="5.12835" gradientUnits="userSpaceOnUse">
<stop stop-color="#FF9100" stop-opacity="0"/>
<stop offset="1" stop-color="#FF9100"/>
</linearGradient>
<linearGradient id="paint11_linear" x1="6.85095" y1="2.7065" x2="12.2624" y2="2.7065" gradientUnits="userSpaceOnUse">
<stop stop-color="#0B799D"/>
<stop offset="1" stop-color="#07485E"/>
</linearGradient>
<linearGradient id="paint12_linear" x1="12.241" y1="5.39072" x2="7.5759" y2="0.725575" gradientUnits="userSpaceOnUse">
<stop stop-color="#0B799D"/>
<stop offset="1" stop-color="#07485E"/>
</linearGradient>
<clipPath id="clip0">
<rect width="14" height="14" fill="white"/>
</clipPath>
</defs>
</svg>
