<svg xmlns="http://www.w3.org/2000/svg" width="12" height="12" fill="none" viewBox="0 0 12 12"><rect width="12" height="12" fill="#D6415F"/><path fill="#fff" d="M3.15709 9.7499C2.49199 9.7499 1.9647 9.56714 1.57522 9.20164C1.19174 8.83613 1 8.3388 1 7.70965H2.12349C2.12349 8.03921 2.21336 8.29686 2.39312 8.48261C2.57887 8.66836 2.83353 8.76123 3.15709 8.76123C3.48065 8.76123 3.73232 8.66836 3.91207 8.48261C4.09782 8.29686 4.1907 8.0422 4.1907 7.71864V4.13247H2.66276V3.08988H5.31418V7.71864C5.31418 8.3418 5.11945 8.83613 4.72997 9.20164C4.34649 9.56714 3.82219 9.7499 3.15709 9.7499Z"/><path fill="#fff" d="M8.83392 9.74091C8.16283 9.74091 7.62954 9.57613 7.23408 9.24658C6.83861 8.91103 6.63788 8.45864 6.63189 7.88941H7.75538C7.75538 8.15904 7.85125 8.37176 8.04299 8.52755C8.24072 8.68334 8.50736 8.76123 8.84291 8.76123C9.16647 8.76123 9.41813 8.68633 9.59789 8.53653C9.78364 8.38074 9.87651 8.17103 9.87651 7.90738C9.87651 7.68568 9.8106 7.49394 9.67878 7.33216C9.54696 7.17038 9.36421 7.05653 9.13052 6.99062L8.37554 6.7839C7.86623 6.65208 7.47076 6.41539 7.18914 6.07385C6.90752 5.73232 6.76671 5.31887 6.76671 4.83353C6.76671 4.27628 6.95246 3.83288 7.32396 3.50332C7.69546 3.16777 8.19578 3 8.82493 3C9.45408 3 9.95441 3.16478 10.3259 3.49433C10.7034 3.8179 10.8951 4.25531 10.9011 4.80656H9.77765C9.77765 4.54891 9.69376 4.34818 9.52599 4.20438C9.35821 4.05458 9.12153 3.97968 8.81594 3.97968C8.52234 3.97968 8.29465 4.04859 8.13287 4.1864C7.97108 4.32421 7.89019 4.51895 7.89019 4.77061C7.89019 4.99831 7.95311 5.19304 8.07894 5.35482C8.20477 5.51661 8.38153 5.62746 8.60922 5.68738L9.39117 5.90309C9.90647 6.0409 10.3019 6.27758 10.5776 6.61313C10.8592 6.94868 11 7.36511 11 7.86244C11 8.23394 10.9101 8.5635 10.7304 8.85111C10.5506 9.13273 10.2959 9.35144 9.96639 9.50723C9.64283 9.66302 9.26534 9.74091 8.83392 9.74091Z"/></svg>