<svg width="16" height="16" viewBox="0 0 16 16" fill="none" xmlns="http://www.w3.org/2000/svg">
<circle cx="7" cy="7" r="7" fill="#D6415F"/>
<path d="M4.15709 10.7499C3.49199 10.7499 2.9647 10.5671 2.57522 10.2016C2.19174 9.83613 2 9.3388 2 8.70965H3.12349C3.12349 9.03921 3.21336 9.29686 3.39312 9.48261C3.57887 9.66836 3.83353 9.76123 4.15709 9.76123C4.48065 9.76123 4.73232 9.66836 4.91207 9.48261C5.09782 9.29686 5.1907 9.0422 5.1907 8.71864V5.13247H3.66276V4.08988H6.31418V8.71864C6.31418 9.3418 6.11945 9.83613 5.72997 10.2016C5.34649 10.5671 4.82219 10.7499 4.15709 10.7499Z" fill="white"/>
<path d="M9.83392 10.7409C9.16283 10.7409 8.62954 10.5761 8.23408 10.2466C7.83861 9.91103 7.63788 9.45864 7.63189 8.88941H8.75538C8.75538 9.15904 8.85125 9.37176 9.04299 9.52755C9.24072 9.68334 9.50736 9.76123 9.84291 9.76123C10.1665 9.76123 10.4181 9.68633 10.5979 9.53653C10.7836 9.38074 10.8765 9.17103 10.8765 8.90738C10.8765 8.68568 10.8106 8.49394 10.6788 8.33216C10.547 8.17038 10.3642 8.05653 10.1305 7.99062L9.37554 7.7839C8.86623 7.65208 8.47076 7.41539 8.18914 7.07385C7.90752 6.73232 7.76671 6.31887 7.76671 5.83353C7.76671 5.27628 7.95246 4.83288 8.32396 4.50332C8.69546 4.16777 9.19578 4 9.82493 4C10.4541 4 10.9544 4.16478 11.3259 4.49433C11.7034 4.8179 11.8951 5.25531 11.9011 5.80656H10.7776C10.7776 5.54891 10.6938 5.34818 10.526 5.20438C10.3582 5.05458 10.1215 4.97968 9.81594 4.97968C9.52234 4.97968 9.29465 5.04859 9.13287 5.1864C8.97108 5.32421 8.89019 5.51895 8.89019 5.77061C8.89019 5.99831 8.95311 6.19304 9.07894 6.35482C9.20477 6.51661 9.38153 6.62746 9.60922 6.68738L10.3912 6.90309C10.9065 7.0409 11.3019 7.27758 11.5776 7.61313C11.8592 7.94868 12 8.36511 12 8.86244C12 9.23394 11.9101 9.5635 11.7304 9.85111C11.5506 10.1327 11.2959 10.3514 10.9664 10.5072C10.6428 10.663 10.2653 10.7409 9.83392 10.7409Z" fill="white"/>
</svg>
