<svg width="15" height="16" viewBox="0 0 15 16" fill="none" xmlns="http://www.w3.org/2000/svg">
<rect width="15" height="16" fill="white"/>
<path d="M2.51221 1.51221H9.85367L11.2195 2.87806L12.5854 4.15855V14.6585H2.51221V1.51221Z" fill="white"/>
<path d="M2 1.34147V14.6585C2.00002 14.8373 2.16267 15 2.34146 15H12.5854C12.7642 15 12.9268 14.8373 12.9268 14.6585V4.07318C12.9268 3.98227 12.8901 3.89168 12.8254 3.82775L10.0937 1.09605C10.0302 1.03458 9.94206 0.999322 9.85366 1.00001H2.34146C2.1587 1.00121 2.00019 1.19033 2 1.34147ZM2.68293 1.68294H9.5122V4.07318C9.51221 4.25195 9.67487 4.41463 9.85366 4.41464H12.2439V14.3171H2.68293V1.68294Z" fill="#DEAB41"/>
<path fill-rule="evenodd" clip-rule="evenodd" d="M4 6H9.90625V11.9062H4V6ZM5.69396 7.81943L6.07617 8.17935L5.41872 8.87767L6.11139 9.56273L5.74225 9.93605L4.68509 8.89074L5.69396 7.81943ZM7.64802 8.17935L8.03023 7.81943L9.0391 8.89074L7.98194 9.93605L7.6128 9.56273L8.30547 8.87767L7.64802 8.17935ZM7.02338 7.55902L7.52531 7.71875L6.71475 10.184L6.21281 10.0243L7.02338 7.55902ZM11 7.09375H10.3438V12.3438H5.09375V13H11V7.09375Z" fill="#9E3BDB"/>
</svg>
