<svg width="16" height="16" viewBox="0 0 16 16" fill="none" xmlns="http://www.w3.org/2000/svg">
<g id="Group">
<path id="Vector" d="M10.9997 8.80134L8.66634 10.3567V12.754L12.7977 10L10.9997 8.80134ZM9.79767 8L7.99967 6.80134L6.20167 8L7.99967 9.19867L9.79767 8ZM13.333 7.246L12.2017 8L13.333 8.754V7.24667V7.246ZM12.7977 6L8.66634 3.246V5.64334L10.9997 7.19867L12.7977 6ZM4.99967 7.19867L7.33301 5.64334V3.246L3.20167 6L4.99967 7.19867ZM3.20167 10L7.33301 12.754V10.3567L4.99967 8.80134L3.20167 10ZM2.66634 8.754L3.79767 8L2.66634 7.246V8.754ZM1.33301 6C1.33299 5.89027 1.36006 5.78224 1.41181 5.68548C1.46356 5.58872 1.5384 5.50624 1.62967 5.44534L7.62967 1.44534C7.73923 1.37224 7.86798 1.33324 7.99967 1.33324C8.13137 1.33324 8.26012 1.37224 8.36967 1.44534L14.3697 5.44534C14.461 5.50624 14.5358 5.58872 14.5875 5.68548C14.6393 5.78224 14.6664 5.89027 14.6663 6V10C14.6664 10.1097 14.6393 10.2178 14.5875 10.3145C14.5358 10.4113 14.461 10.4938 14.3697 10.5547L8.36967 14.5547C8.26012 14.6278 8.13137 14.6668 7.99967 14.6668C7.86798 14.6668 7.73923 14.6278 7.62967 14.5547L1.62967 10.5547C1.5384 10.4938 1.46356 10.4113 1.41181 10.3145C1.36006 10.2178 1.33299 10.1097 1.33301 10V6Z" fill="#4C5664"/>
</g>
</svg>
