<svg xmlns="http://www.w3.org/2000/svg" width="13" height="12" fill="none" viewBox="0 0 13 12"><path fill="#4B4848" d="M6.38281 11.8271C6.71777 11.8271 6.99805 11.5605 6.99805 11.2324V6.68652H11.4141C11.7422 6.68652 12.0225 6.40625 12.0225 6.07129C12.0225 5.73633 11.7422 5.46289 11.4141 5.46289H6.99805V0.910156C6.99805 0.582031 6.71777 0.31543 6.38281 0.31543C6.04785 0.31543 5.77441 0.582031 5.77441 0.910156V5.46289H1.35156C1.02344 5.46289 0.743164 5.73633 0.743164 6.07129C0.743164 6.40625 1.02344 6.68652 1.35156 6.68652H5.77441V11.2324C5.77441 11.5605 6.04785 11.8271 6.38281 11.8271Z"/></svg>