<svg xmlns="http://www.w3.org/2000/svg" width="9" height="10" fill="none" viewBox="0 0 9 10"><path fill="#858282" d="M1.55147 2.65467V7.34533L5.65351 5L1.55147 2.65467ZM0.702489 0.626665L7.85079 4.71333C7.90202 4.74272 7.9445 4.78474 7.97403 4.8352C8.00355 4.88567 8.01909 4.94283 8.01909 5.001C8.01909 5.05917 8.00355 5.11633 7.97403 5.1668C7.9445 5.21726 7.90202 5.25928 7.85079 5.28866L0.702489 9.37533C0.650648 9.40498 0.591726 9.42065 0.531703 9.42077C0.471681 9.42088 0.412698 9.40542 0.360742 9.37597C0.308786 9.34652 0.265708 9.30412 0.235882 9.25307C0.206057 9.20202 0.190546 9.14415 0.190925 9.08533V0.913998C0.190907 0.855347 0.206681 0.79773 0.236653 0.746964C0.266626 0.696197 0.309736 0.65408 0.361631 0.624865C0.413526 0.595649 0.472368 0.580369 0.532216 0.580568C0.592064 0.580767 0.650798 0.596438 0.702489 0.625999V0.626665Z"/></svg>