<svg width="12" height="14" viewBox="0 0 12 14" fill="none" xmlns="http://www.w3.org/2000/svg">
<path d="M8.10017 12.2211V11.9337C8.10017 11.8547 8.13668 11.7802 8.19908 11.7318C8.33096 11.6295 8.33096 11.4303 8.19908 11.328C8.13668 11.2796 8.10017 11.205 8.10017 11.1261V10.8387C8.10017 10.7382 8.18165 10.6567 8.28212 10.6567C8.38262 10.6567 8.46407 10.5753 8.46407 10.4748V10.2683C8.46407 10.1678 8.38259 10.0864 8.28212 10.0864C8.18162 10.0864 8.10017 10.0049 8.10017 9.90442V9.35534C8.10017 9.25484 8.18165 9.17337 8.28212 9.17337C8.38262 9.17337 8.46407 9.09189 8.46407 8.99142V8.06396H6.40625V12.749C6.40625 12.9347 6.4743 13.1139 6.5975 13.2528L7.14422 13.8691C7.29896 14.0436 7.57138 14.0436 7.72613 13.8691L8.27284 13.2528C8.39607 13.1139 8.46409 12.9347 8.46409 12.749V12.585C8.46409 12.4845 8.38262 12.403 8.28215 12.403C8.18165 12.403 8.10017 12.3216 8.10017 12.2211Z" fill="url(#paint0_linear)"/>
<path d="M7.76346 8.06384V12.9258C7.76346 13.1071 7.61649 13.2541 7.4352 13.2541C7.25391 13.2541 7.10693 13.1071 7.10693 12.9258V8.06384H7.76346Z" fill="url(#paint1_linear)"/>
<path d="M8.46409 10.2682C8.46409 10.1677 8.38262 10.0862 8.28212 10.0862C8.18162 10.0862 8.10017 10.0048 8.10017 9.90429V9.35522C8.10017 9.25472 8.18165 9.17327 8.28212 9.17327C8.38262 9.17327 8.46409 9.0918 8.46409 8.9913V8.06384H6.40625V8.54923L8.43318 10.5761C8.4527 10.5472 8.46412 10.5122 8.46412 10.4747V10.2682H8.46409Z" fill="url(#paint2_linear)"/>
<path d="M7.43497 2.8363C5.79519 2.8363 4.46582 4.16564 4.46582 5.80545C4.46582 7.44526 5.79516 8.77459 7.43497 8.77459C9.07477 8.77459 10.4041 7.44526 10.4041 5.80545C10.4041 4.16564 9.07477 2.8363 7.43497 2.8363ZM7.43497 5.51952C6.97008 5.51952 6.5931 5.14284 6.5931 4.67766C6.5931 4.21277 6.97008 3.83612 7.43497 3.83612C7.89985 3.83612 8.27683 4.2128 8.27683 4.67766C8.27683 5.14284 7.89985 5.51952 7.43497 5.51952Z" fill="url(#paint3_linear)"/>
<path d="M7.43501 3.35522C6.08178 3.35522 4.98486 4.45214 4.98486 5.80537C4.98486 7.1586 6.08178 8.25552 7.43501 8.25552C8.78824 8.25552 9.88516 7.1586 9.88516 5.80537C9.88516 4.45214 8.78824 3.35522 7.43501 3.35522ZM7.43501 5.51944C6.97013 5.51944 6.59314 5.14276 6.59314 4.67757C6.59314 4.21269 6.97013 3.83603 7.43501 3.83603C7.89989 3.83603 8.27688 4.21271 8.27688 4.67757C8.27688 5.14276 7.89989 5.51944 7.43501 5.51944Z" fill="url(#paint4_linear)"/>
<path d="M7.43497 2.8363C5.79519 2.8363 4.46582 4.16564 4.46582 5.80545C4.46582 7.44526 5.79516 8.77459 7.43497 8.77459C9.07477 8.77459 10.4041 7.44526 10.4041 5.80545C10.4041 4.16564 9.07477 2.8363 7.43497 2.8363ZM7.43497 5.51952C6.97008 5.51952 6.5931 5.14284 6.5931 4.67766C6.5931 4.21277 6.97008 3.83612 7.43497 3.83612C7.89985 3.83612 8.27683 4.2128 8.27683 4.67766C8.27683 5.14284 7.89985 5.51952 7.43497 5.51952Z" fill="url(#paint5_linear)"/>
<path d="M2.57932 10.4949L2.78251 10.2917C2.83834 10.2358 2.91685 10.209 2.9952 10.2189C3.16078 10.2398 3.30163 10.0989 3.28072 9.93334C3.27083 9.85499 3.29771 9.77648 3.35354 9.72065L3.55674 9.51746C3.62781 9.44639 3.74302 9.44639 3.81406 9.51746C3.88513 9.58853 4.00034 9.58853 4.07139 9.51746L4.21734 9.3715C4.28841 9.30043 4.28841 9.18522 4.21734 9.11417C4.14627 9.0431 4.14627 8.92789 4.21734 8.85685L4.60561 8.46858C4.67668 8.39751 4.79189 8.39751 4.86294 8.46858C4.93401 8.53965 5.04922 8.53965 5.12026 8.46858L5.77607 7.81278L4.32094 6.35767L1.00821 9.67038C0.876917 9.80168 0.798297 9.97652 0.787207 10.1619L0.738015 10.9842C0.724097 11.217 0.91672 11.4096 1.14948 11.3957L1.97185 11.3465C2.1572 11.3354 2.33204 11.2568 2.46334 11.1255L2.57932 11.0095C2.65039 10.9385 2.65039 10.8233 2.57932 10.7522C2.50825 10.6811 2.50825 10.5659 2.57932 10.4949Z" fill="url(#paint6_linear)"/>
<path d="M5.28053 7.31737L1.8426 10.7553C1.7144 10.8835 1.50657 10.8835 1.37837 10.7553C1.25018 10.6271 1.25018 10.4193 1.37837 10.2911L4.81631 6.85315L5.28053 7.31737Z" fill="url(#paint7_linear)"/>
<path d="M8.74492 3.38867C7.58542 2.22917 5.70544 2.22917 4.54591 3.38867C3.38638 4.54818 3.3864 6.42816 4.54591 7.5877C5.70541 8.74723 7.58539 8.7472 8.74492 7.5877C9.90445 6.42819 9.90445 4.54818 8.74492 3.38867ZM6.84762 5.28598C6.51889 4.95725 6.51867 4.42435 6.84762 4.0954C7.17634 3.76667 7.70925 3.76692 8.03797 4.09562C8.3667 4.42435 8.36692 4.95725 8.03819 5.28598C7.70925 5.61493 7.17631 5.61471 6.84762 5.28598Z" fill="url(#paint8_linear)"/>
<path d="M8.37799 3.75575C7.42111 2.79886 5.86986 2.79886 4.91297 3.75575C3.95609 4.71264 3.95609 6.26389 4.91297 7.22078C5.86986 8.17766 7.42111 8.17766 8.37799 7.22078C9.33487 6.26389 9.33487 4.71261 8.37799 3.75575ZM6.84769 5.28606C6.51896 4.95734 6.51874 4.42443 6.84769 4.09548C7.17641 3.76676 7.70931 3.76701 8.03804 4.0957C8.36676 4.42443 8.36698 4.95734 8.03826 5.28606C7.70931 5.61501 7.17638 5.61479 6.84769 5.28606Z" fill="url(#paint9_linear)"/>
<path d="M7.96826 5.34872L9.97072 7.35118C10.2458 6.90094 10.4043 6.37179 10.4043 5.80556C10.4043 5.41131 10.3273 5.0351 10.1878 4.69092C9.92875 4.93767 9.27591 5.38474 7.96826 5.34872Z" fill="url(#paint10_linear)"/>
<path d="M8.55558 0C7.09022 0 5.89289 1.1712 5.85059 2.62698C6.2444 2.51802 6.65592 2.49162 7.0584 2.54803C7.13765 1.79195 7.77877 1.20062 8.55558 1.20062C9.38611 1.20062 10.0615 1.87627 10.0615 2.7065C10.0615 3.2897 9.72798 3.79666 9.24205 4.04669C9.03614 4.15265 8.80261 4.21238 8.55558 4.21238C8.38689 4.21238 8.22479 4.18446 8.07324 4.13313H8.07294C7.89525 4.07279 7.73257 3.98006 7.5915 3.86238C7.32975 3.81525 7.05003 3.89299 6.84772 4.0953C6.71054 4.23247 6.63072 4.40506 6.60818 4.58335C6.97017 4.95976 7.44052 5.23139 7.96788 5.34874C8.15729 5.39077 8.3539 5.41298 8.55558 5.41298C8.92597 5.41298 9.27924 5.33823 9.60102 5.20287C10.5759 4.79316 11.2621 3.82845 11.2621 2.70647C11.2621 1.21413 10.048 0 8.55558 0V0Z" fill="url(#paint11_linear)"/>
<path d="M10.6384 2.70662C10.6384 1.55692 9.7064 0.624878 8.55667 0.624878C7.46856 0.624878 6.57599 1.45983 6.4834 2.52391C6.67531 2.51348 6.86804 2.52138 7.05875 2.54812C7.138 1.79204 7.77912 1.20072 8.55593 1.20072C9.38646 1.20072 10.0618 1.87637 10.0618 2.7066C10.0618 3.28979 9.72834 3.79676 9.2424 4.04678C9.03649 4.15274 8.80296 4.21247 8.55593 4.21247C8.38724 4.21247 8.22514 4.18456 8.07359 4.13322H8.07328C7.89559 4.07289 7.73292 3.98016 7.59185 3.86247C7.36746 3.82207 7.12998 3.87373 6.93928 4.01669C7.32096 4.48731 7.90358 4.78831 8.5567 4.78831C9.7064 4.78837 10.6384 3.85635 10.6384 2.70662Z" fill="url(#paint12_linear)"/>
<defs>
<linearGradient id="paint0_linear" x1="6.53414" y1="11.032" x2="8.17869" y2="11.032" gradientUnits="userSpaceOnUse">
<stop stop-color="#FFDA2D"/>
<stop offset="1" stop-color="#FDBF00"/>
</linearGradient>
<linearGradient id="paint1_linear" x1="8.11942" y1="10.659" x2="7.0786" y2="10.659" gradientUnits="userSpaceOnUse">
<stop stop-color="#FFDA2D"/>
<stop offset="1" stop-color="#FDBF00"/>
</linearGradient>
<linearGradient id="paint2_linear" x1="8.04072" y1="9.82984" x2="7.4004" y2="8.21902" gradientUnits="userSpaceOnUse">
<stop stop-color="#FF9100" stop-opacity="0"/>
<stop offset="1" stop-color="#FF9100"/>
</linearGradient>
<linearGradient id="paint3_linear" x1="6.09995" y1="7.14047" x2="12.1051" y2="1.13531" gradientUnits="userSpaceOnUse">
<stop stop-color="#FFDA2D"/>
<stop offset="1" stop-color="#FDBF00"/>
</linearGradient>
<linearGradient id="paint4_linear" x1="8.61244" y1="4.62794" x2="2.92971" y2="10.3107" gradientUnits="userSpaceOnUse">
<stop stop-color="#FFDA2D"/>
<stop offset="1" stop-color="#FDBF00"/>
</linearGradient>
<linearGradient id="paint5_linear" x1="9.67232" y1="8.04281" x2="7.65872" y2="6.0292" gradientUnits="userSpaceOnUse">
<stop stop-color="#FF9100" stop-opacity="0"/>
<stop offset="1" stop-color="#FF9100"/>
</linearGradient>
<linearGradient id="paint6_linear" x1="2.30899" y1="8.54921" x2="3.47165" y2="9.71187" gradientUnits="userSpaceOnUse">
<stop stop-color="#FFDA2D"/>
<stop offset="1" stop-color="#FDBF00"/>
</linearGradient>
<linearGradient id="paint7_linear" x1="3.6932" y1="9.40645" x2="2.95735" y2="8.6706" gradientUnits="userSpaceOnUse">
<stop stop-color="#FFDA2D"/>
<stop offset="1" stop-color="#FDBF00"/>
</linearGradient>
<linearGradient id="paint8_linear" x1="4.75326" y1="5.49113" x2="13.2446" y2="5.49113" gradientUnits="userSpaceOnUse">
<stop stop-color="#FFDA2D"/>
<stop offset="1" stop-color="#FDBF00"/>
</linearGradient>
<linearGradient id="paint9_linear" x1="8.30589" y1="5.49121" x2="0.270609" y2="5.49121" gradientUnits="userSpaceOnUse">
<stop stop-color="#FFDA2D"/>
<stop offset="1" stop-color="#FDBF00"/>
</linearGradient>
<linearGradient id="paint10_linear" x1="9.53741" y1="6.41901" x2="9.11719" y2="5.12835" gradientUnits="userSpaceOnUse">
<stop stop-color="#FF9100" stop-opacity="0"/>
<stop offset="1" stop-color="#FF9100"/>
</linearGradient>
<linearGradient id="paint11_linear" x1="5.85059" y1="2.7065" x2="11.2621" y2="2.7065" gradientUnits="userSpaceOnUse">
<stop stop-color="#0B799D"/>
<stop offset="1" stop-color="#07485E"/>
</linearGradient>
<linearGradient id="paint12_linear" x1="11.241" y1="5.39072" x2="6.5759" y2="0.725575" gradientUnits="userSpaceOnUse">
<stop stop-color="#0B799D"/>
<stop offset="1" stop-color="#07485E"/>
</linearGradient>
</defs>
</svg>
