<svg width="12" height="12" viewBox="0 0 12 12" fill="none" xmlns="http://www.w3.org/2000/svg">
<path fill-rule="evenodd" clip-rule="evenodd" d="M12 4.12637C12 6.4053 9.68254 8.25274 6.82381 8.25274C6.03768 8.25274 5.29248 8.11303 4.62514 7.86306C4.42376 10.2174 3.47379 12 2.33226 12C1.04419 12 0 9.73037 0 6.93064C0 4.13091 1.04419 1.86128 2.33226 1.86128C2.3844 1.86128 2.43614 1.865 2.48743 1.87232C3.41141 0.744966 5.00848 0 6.82381 0C9.68254 0 12 1.84744 12 4.12637ZM3.84059 3.064C3.57139 2.56738 3.24965 2.2012 2.89605 2.0104C3.01174 1.71672 3.29807 1.50886 3.63298 1.50886C4.07021 1.50886 4.42466 1.86314 4.42466 2.30018C4.42466 2.6654 4.17712 2.97283 3.84059 3.064Z" fill="#2AF6F0"/>
</svg>
