<svg xmlns="http://www.w3.org/2000/svg" width="15" height="20" fill="none" viewBox="0 0 15 20"><path fill="#768896" d="M3.32031 20H14.1797C14.4141 20 14.6094 19.9219 14.7656 19.7656C14.9219 19.6094 15 19.4141 15 19.1797V1.67969C15 1.21094 14.8372 0.813802 14.5117 0.488281C14.1862 0.16276 13.7891 0 13.3203 0H1.67969C1.21094 0 0.813802 0.16276 0.488281 0.488281C0.16276 0.813802 0 1.21094 0 1.67969V19.1797C0 19.4141 0.078125 19.6094 0.234375 19.7656C0.390625 19.9219 0.585938 20 0.820312 20H3.32031ZM6.67969 18.3203H5V15H6.67969V18.3203ZM10 18.3203H8.32031V15H10V18.3203ZM1.67969 1.67969H13.3203V18.3203H11.6797V15C11.6797 14.5573 11.5104 14.1667 11.1719 13.8281C10.8333 13.4896 10.4427 13.3203 10 13.3203H5C4.55729 13.3203 4.16667 13.4896 3.82812 13.8281C3.48958 14.1667 3.32031 14.5573 3.32031 15V18.3203H1.67969V1.67969ZM3.32031 3.32031H5V5H3.32031V3.32031ZM6.67969 3.32031H8.32031V5H6.67969V3.32031ZM10 3.32031H11.6797V5H10V3.32031ZM3.32031 6.67969H5V8.32031H3.32031V6.67969ZM6.67969 6.67969H8.32031V8.32031H6.67969V6.67969ZM10 6.67969H11.6797V8.32031H10V6.67969ZM3.32031 10H5V11.6797H3.32031V10ZM6.67969 10H8.32031V11.6797H6.67969V10ZM10 10H11.6797V11.6797H10V10Z"/></svg>