<svg width="777" height="619" viewBox="0 0 777 619" fill="none" xmlns="http://www.w3.org/2000/svg">
    <g filter="url(#nafb2oybza)">
        <path fill="#fff" d="M105 50h598v471H105z"/>
        <path fill="#D9D9D9" d="M184 439h225v8H184zM184 480h225v8H184z"/>
        <path d="m192.664 164-.953-2.883h-4.149l-.968 2.883h-2.039l4-11.273h2.265L194.828 164h-2.164zm-3.086-9.125-1.547 4.648h3.211l-1.531-4.648h-.133zm13.437 3.453h-1.844a1.733 1.733 0 0 0-.625-1.031c-.323-.261-.742-.391-1.258-.391-.666 0-1.187.245-1.562.735-.37.489-.555 1.177-.555 2.062 0 .896.188 1.594.563 2.094.375.5.893.75 1.554.75.506 0 .92-.117 1.243-.352.328-.234.541-.573.64-1.015h1.844c-.109.911-.492 1.638-1.148 2.179-.651.542-1.508.813-2.571.813-1.286 0-2.289-.393-3.008-1.18-.718-.786-1.078-1.883-1.078-3.289 0-1.391.36-2.474 1.078-3.25.719-.781 1.719-1.172 3-1.172 1.073 0 1.935.279 2.586.836.657.552 1.037 1.289 1.141 2.211zm2.117-4.969h1.929v2.149h1.828v1.547h-1.828v4.195c0 .422.094.732.282.93.187.192.484.289.89.289.177 0 .396-.013.656-.039v1.515a5.284 5.284 0 0 1-1.015.094c-.979 0-1.682-.18-2.11-.539-.421-.359-.632-.953-.632-1.781v-4.664h-1.352v-1.547h1.352v-2.149zM210.389 164v-8.547h1.93V164h-1.93zm.961-9.938c-.349 0-.636-.098-.86-.296a1 1 0 0 1-.336-.774c0-.312.112-.568.336-.765.224-.204.511-.305.86-.305.354 0 .64.101.859.305a.973.973 0 0 1 .336.765 1 1 0 0 1-.336.774c-.219.198-.505.296-.859.296zm10.366 1.391L218.693 164h-2.133l-3.039-8.547h2.078l1.977 6.609h.133l1.96-6.609h2.047zm4.422 1.367c-.579 0-1.055.19-1.43.571-.375.38-.583.882-.625 1.507h4.023c-.02-.635-.208-1.14-.562-1.515-.354-.375-.823-.563-1.406-.563zm1.984 4.828h1.836a2.967 2.967 0 0 1-1.289 1.852c-.672.448-1.508.672-2.508.672-1.255 0-2.242-.391-2.961-1.172-.713-.786-1.07-1.867-1.07-3.242s.359-2.464 1.078-3.266c.719-.807 1.698-1.211 2.937-1.211 1.219 0 2.172.383 2.86 1.149.693.76 1.039 1.815 1.039 3.164v.625h-5.969v.101c.026.714.229 1.279.609 1.696.386.411.896.617 1.532.617.979 0 1.614-.328 1.906-.985zm17.163-2.164c0 1.464-.445 2.631-1.336 3.5-.891.865-2.089 1.297-3.594 1.297-1.635 0-2.927-.528-3.875-1.586-.948-1.062-1.422-2.507-1.422-4.336 0-1.802.477-3.237 1.43-4.304.953-1.073 2.232-1.61 3.836-1.61 1.302 0 2.393.344 3.273 1.032.881.687 1.412 1.606 1.594 2.757h-2.008c-.203-.64-.552-1.132-1.047-1.476-.489-.344-1.093-.516-1.812-.516-.984 0-1.766.367-2.344 1.102-.573.734-.859 1.734-.859 3 0 1.281.291 2.291.875 3.031.588.74 1.385 1.109 2.39 1.109.86 0 1.558-.239 2.094-.718.537-.48.813-1.107.828-1.883l.008-.235h-2.711v-1.578h4.68v1.414zm1.679 4.516v-8.547h1.867v1.328h.133c.12-.427.388-.778.805-1.054a2.595 2.595 0 0 1 1.453-.415c.349 0 .617.029.804.086v1.797c-.197-.073-.528-.109-.992-.109-.63 0-1.143.182-1.539.547-.396.359-.594.836-.594 1.429V164h-1.937zm9.663.172c-1.281 0-2.286-.393-3.015-1.18-.729-.791-1.094-1.88-1.094-3.265 0-1.375.367-2.459 1.102-3.25.734-.797 1.737-1.196 3.007-1.196 1.276 0 2.279.396 3.008 1.188.735.791 1.102 1.877 1.102 3.258 0 1.385-.367 2.474-1.102 3.265-.729.787-1.732 1.18-3.008 1.18zm-1.57-2.36c.37.49.893.735 1.57.735s1.198-.245 1.563-.735c.37-.494.555-1.19.555-2.085 0-.891-.185-1.584-.555-2.079-.37-.494-.891-.742-1.563-.742-.677 0-1.2.248-1.57.742-.37.495-.555 1.188-.555 2.079 0 .895.185 1.591.555 2.085zm14.609-6.359V164h-1.867v-1.359h-.133c-.432 1.02-1.284 1.531-2.555 1.531-.932 0-1.659-.276-2.18-.828-.52-.558-.781-1.336-.781-2.336v-5.555h1.938v5.07c0 .657.138 1.146.414 1.469.276.318.703.477 1.281.477.625 0 1.104-.18 1.438-.539.338-.36.507-.86.507-1.5v-4.977h1.938zm6.57-.141c1.083 0 1.94.394 2.57 1.18.635.787.953 1.865.953 3.235 0 1.364-.315 2.442-.945 3.234-.625.786-1.477 1.18-2.555 1.18-.609 0-1.143-.125-1.602-.375a2.392 2.392 0 0 1-1.007-1.063h-.133v4.141h-1.938v-11.391h1.868v1.414h.132a2.725 2.725 0 0 1 1.071-1.14 3.093 3.093 0 0 1 1.586-.415zm-.61 7.18c.672 0 1.196-.245 1.571-.734.38-.49.57-1.167.57-2.031 0-.865-.19-1.542-.57-2.032-.375-.489-.896-.734-1.563-.734-.661 0-1.185.247-1.57.742-.386.495-.581 1.169-.586 2.024.005.854.198 1.528.578 2.023.385.495.909.742 1.57.742zm5.421-4.594c0-.77.318-1.398.954-1.882.635-.49 1.458-.735 2.468-.735 1.016 0 1.826.216 2.43.649.609.427.948 1.028 1.016 1.804h-1.821a1.12 1.12 0 0 0-.531-.718c-.276-.177-.638-.266-1.086-.266-.448 0-.818.096-1.109.289-.292.193-.438.443-.438.75 0 .24.102.438.305.594.208.156.529.284.961.383l1.508.343c.823.188 1.427.467 1.812.836.386.37.578.867.578 1.493 0 .817-.338 1.479-1.015 1.984-.677.5-1.552.75-2.625.75-1.068 0-1.922-.219-2.563-.656-.635-.438-.989-1.045-1.062-1.821h1.914c.094.323.289.573.586.75.302.172.692.258 1.172.258.489 0 .888-.096 1.195-.289.307-.198.461-.456.461-.773 0-.474-.393-.797-1.18-.969l-1.515-.352c-.823-.187-1.433-.476-1.829-.867-.39-.396-.586-.914-.586-1.555z" fill="#575757"/>
        <path fill="#E7E7E7" d="M152 183h551v1H152z"/>
        <g clip-path="url(#1asypl0dbb)">
            <path d="M164 169c-5.523 0-10-4.477-10-10s4.477-10 10-10 10 4.477 10 10-4.477 10-10 10zm0-2a8 8 0 1 0 0-16 8 8 0 0 0 0 16zm-.997-4-4.243-4.243 1.414-1.414 2.829 2.829 5.656-5.657 1.415 1.414-7.071 7.071z" fill="#03B365"/>
        </g>
        <path d="m192.664 397-.953-2.883h-4.149l-.968 2.883h-2.039l4-11.273h2.265L194.828 397h-2.164zm-3.086-9.125-1.547 4.648h3.211l-1.531-4.648h-.133zm6.601 9.125v-11.852h1.938V397h-1.938zm4.007 0v-11.852h1.938V397h-1.938zm7.937-11.273h4.546c1.125 0 2.037.351 2.735 1.054.703.703 1.055 1.623 1.055 2.758 0 1.115-.362 2.021-1.086 2.719-.719.698-1.649 1.047-2.789 1.047h-2.446V397h-2.015v-11.273zm2.015 1.687v4.219h1.992c.724 0 1.284-.182 1.68-.547.401-.365.602-.88.602-1.547 0-.687-.198-1.213-.594-1.578-.391-.365-.951-.547-1.68-.547h-2zm11.234 2.406c-.578 0-1.055.19-1.43.571-.375.38-.583.882-.625 1.507h4.024c-.021-.635-.209-1.14-.563-1.515s-.823-.563-1.406-.563zm1.984 4.828h1.836a2.967 2.967 0 0 1-1.289 1.852c-.672.448-1.508.672-2.508.672-1.255 0-2.242-.391-2.961-1.172-.713-.786-1.07-1.867-1.07-3.242s.36-2.464 1.078-3.266c.719-.807 1.698-1.211 2.938-1.211 1.219 0 2.172.383 2.859 1.149.693.76 1.039 1.815 1.039 3.164v.625h-5.969v.101c.027.714.23 1.279.61 1.696.385.411.896.617 1.531.617.979 0 1.615-.328 1.906-.985zm3.406 2.352v-8.547h1.867v1.328h.133c.12-.427.388-.778.805-1.054a2.595 2.595 0 0 1 1.453-.415c.349 0 .617.029.805.086v1.797c-.198-.073-.529-.109-.993-.109-.63 0-1.143.182-1.539.547-.396.359-.593.836-.593 1.429V397h-1.938zm6.304 0v-8.547h1.867v1.383h.133c.182-.49.482-.87.899-1.141.416-.276.908-.414 1.476-.414.578 0 1.07.138 1.477.414.406.271.7.651.882 1.141h.133a2.51 2.51 0 0 1 1.016-1.133c.463-.281.99-.422 1.578-.422.854 0 1.523.253 2.008.758.489.505.734 1.201.734 2.086V397h-1.929v-5.383c0-1.099-.521-1.648-1.563-1.648-.5 0-.904.161-1.211.484-.307.323-.461.732-.461 1.227V397h-1.883v-5.523c0-.469-.138-.836-.414-1.102-.276-.271-.653-.406-1.133-.406-.479 0-.877.174-1.195.523-.318.349-.476.787-.476 1.313V397h-1.938zm14.062 0v-8.547h1.93V397h-1.93zm.961-9.938c-.349 0-.635-.098-.859-.296a1 1 0 0 1-.336-.774c0-.312.112-.568.336-.765.224-.204.51-.305.859-.305.354 0 .641.101.859.305a.973.973 0 0 1 .336.765 1 1 0 0 1-.336.774c-.218.198-.505.296-.859.296zm2.718 3.836c0-.77.318-1.398.953-1.882.636-.49 1.459-.735 2.469-.735 1.016 0 1.825.216 2.43.649.609.427.948 1.028 1.015 1.804h-1.82a1.12 1.12 0 0 0-.531-.718c-.276-.177-.638-.266-1.086-.266-.448 0-.818.096-1.11.289-.291.193-.437.443-.437.75 0 .24.101.438.305.594.208.156.528.284.961.383l1.507.343c.823.188 1.427.467 1.813.836.385.37.578.867.578 1.493 0 .817-.339 1.479-1.016 1.984-.677.5-1.552.75-2.625.75-1.067 0-1.922-.219-2.562-.656-.636-.438-.99-1.045-1.063-1.821h1.914c.094.323.289.573.586.75.302.172.693.258 1.172.258.49 0 .888-.096 1.196-.289.307-.198.46-.456.46-.773 0-.474-.393-.797-1.179-.969l-1.516-.352c-.823-.187-1.432-.476-1.828-.867-.391-.396-.586-.914-.586-1.555zm8.195 0c0-.77.318-1.398.953-1.882.635-.49 1.458-.735 2.469-.735 1.015 0 1.825.216 2.429.649.61.427.948 1.028 1.016 1.804h-1.82a1.118 1.118 0 0 0-.532-.718c-.276-.177-.638-.266-1.086-.266-.447 0-.817.096-1.109.289-.292.193-.437.443-.437.75 0 .24.101.438.304.594.209.156.529.284.961.383l1.508.343c.823.188 1.427.467 1.813.836.385.37.578.867.578 1.493 0 .817-.339 1.479-1.016 1.984-.677.5-1.552.75-2.625.75-1.068 0-1.922-.219-2.562-.656-.636-.438-.99-1.045-1.063-1.821h1.914c.094.323.289.573.586.75.302.172.693.258 1.172.258.49 0 .888-.096 1.195-.289.308-.198.461-.456.461-.773 0-.474-.393-.797-1.18-.969l-1.515-.352c-.823-.187-1.432-.476-1.828-.867-.391-.396-.586-.914-.586-1.555zm8.57 6.102v-8.547h1.929V397h-1.929zm.96-9.938c-.349 0-.635-.098-.859-.296a1 1 0 0 1-.336-.774c0-.312.112-.568.336-.765.224-.204.51-.305.859-.305.355 0 .641.101.86.305a.973.973 0 0 1 .336.765 1 1 0 0 1-.336.774c-.219.198-.505.296-.86.296zm6.601 10.11c-1.281 0-2.286-.393-3.015-1.18-.729-.791-1.094-1.88-1.094-3.265 0-1.375.367-2.459 1.102-3.25.734-.797 1.737-1.196 3.007-1.196 1.276 0 2.279.396 3.008 1.188.735.791 1.102 1.877 1.102 3.258 0 1.385-.367 2.474-1.102 3.265-.729.787-1.732 1.18-3.008 1.18zm-1.57-2.36c.37.49.893.735 1.57.735s1.198-.245 1.563-.735c.37-.494.555-1.19.555-2.085 0-.891-.185-1.584-.555-2.079-.37-.494-.891-.742-1.563-.742-.677 0-1.2.248-1.57.742-.37.495-.555 1.188-.555 2.079 0 .895.185 1.591.555 2.085zm7.171 2.188v-8.547h1.868v1.367h.132a2.4 2.4 0 0 1 .954-1.132c.432-.271.96-.407 1.585-.407.948 0 1.675.276 2.18.828.511.552.766 1.339.766 2.36V397h-1.938v-5.07c0-1.308-.575-1.961-1.726-1.961-.578 0-1.037.185-1.375.554-.339.37-.508.87-.508 1.5V397h-1.938zm23.077-4.516c0 1.464-.445 2.631-1.336 3.5-.89.865-2.088 1.297-3.593 1.297-1.636 0-2.927-.528-3.875-1.586-.948-1.062-1.422-2.507-1.422-4.336 0-1.802.476-3.237 1.429-4.304.954-1.073 2.232-1.61 3.836-1.61 1.302 0 2.394.344 3.274 1.032.88.687 1.411 1.606 1.594 2.757h-2.008c-.203-.64-.552-1.132-1.047-1.476-.49-.344-1.094-.516-1.813-.516-.984 0-1.765.367-2.343 1.102-.573.734-.86 1.734-.86 3 0 1.281.292 2.291.875 3.031.589.74 1.386 1.109 2.391 1.109.859 0 1.557-.239 2.094-.718.536-.48.812-1.107.828-1.883l.008-.235h-2.711v-1.578h4.679v1.414zM305.49 397v-8.547h1.868v1.328h.132c.12-.427.388-.778.805-1.054a2.595 2.595 0 0 1 1.453-.415c.349 0 .617.029.805.086v1.797c-.198-.073-.529-.109-.992-.109-.631 0-1.144.182-1.539.547-.396.359-.594.836-.594 1.429V397h-1.938zm9.664.172c-1.281 0-2.287-.393-3.016-1.18-.729-.791-1.094-1.88-1.094-3.265 0-1.375.368-2.459 1.102-3.25.734-.797 1.737-1.196 3.008-1.196 1.276 0 2.278.396 3.008 1.188.734.791 1.101 1.877 1.101 3.258 0 1.385-.367 2.474-1.101 3.265-.73.787-1.732 1.18-3.008 1.18zm-1.57-2.36c.369.49.893.735 1.57.735s1.198-.245 1.562-.735c.37-.494.555-1.19.555-2.085 0-.891-.185-1.584-.555-2.079-.369-.494-.89-.742-1.562-.742-.677 0-1.201.248-1.57.742-.37.495-.555 1.188-.555 2.079 0 .895.185 1.591.555 2.085zm14.608-6.359V397h-1.867v-1.359h-.133c-.432 1.02-1.284 1.531-2.554 1.531-.933 0-1.659-.276-2.18-.828-.521-.558-.781-1.336-.781-2.336v-5.555h1.937v5.07c0 .657.138 1.146.414 1.469.276.318.703.477 1.281.477.625 0 1.105-.18 1.438-.539.339-.36.508-.86.508-1.5v-4.977h1.937zm6.57-.141c1.083 0 1.94.394 2.57 1.18.636.787.953 1.865.953 3.235 0 1.364-.315 2.442-.945 3.234-.625.786-1.476 1.18-2.555 1.18-.609 0-1.143-.125-1.601-.375a2.4 2.4 0 0 1-1.008-1.063h-.133v4.141h-1.937v-11.391h1.867v1.414h.133a2.723 2.723 0 0 1 1.07-1.14 3.095 3.095 0 0 1 1.586-.415zm-.609 7.18c.672 0 1.195-.245 1.57-.734.38-.49.57-1.167.57-2.031 0-.865-.19-1.542-.57-2.032-.375-.489-.896-.734-1.563-.734-.661 0-1.184.247-1.57.742-.385.495-.581 1.169-.586 2.024.005.854.198 1.528.578 2.023.386.495.909.742 1.571.742zm5.421-4.594c0-.77.318-1.398.953-1.882.635-.49 1.458-.735 2.469-.735 1.015 0 1.825.216 2.429.649.61.427.948 1.028 1.016 1.804h-1.82a1.12 1.12 0 0 0-.531-.718c-.277-.177-.638-.266-1.086-.266-.448 0-.818.096-1.11.289-.291.193-.437.443-.437.75 0 .24.101.438.304.594.209.156.529.284.961.383l1.508.343c.823.188 1.427.467 1.813.836.385.37.578.867.578 1.493 0 .817-.339 1.479-1.016 1.984-.677.5-1.552.75-2.625.75-1.068 0-1.922-.219-2.562-.656-.636-.438-.99-1.045-1.063-1.821h1.914c.094.323.289.573.586.75.302.172.693.258 1.172.258.49 0 .888-.096 1.195-.289.308-.198.461-.456.461-.773 0-.474-.393-.797-1.179-.969l-1.516-.352c-.823-.187-1.432-.476-1.828-.867-.391-.396-.586-.914-.586-1.555z" fill="#575757"/>
        <path fill="#E7E7E7" d="M152 416h551v1H152z"/>
        <g clip-path="url(#zv9ec6i8rc)">
            <path d="M161.55 391.5a2.25 2.25 0 1 1 0-4.499 2.25 2.25 0 0 1 0 4.499zm.45 8.248V396.4c0-.488.144-.937.404-1.338a6.47 6.47 0 0 0-5.033 1.417 8.011 8.011 0 0 0 4.629 3.27v-.001zm-5.547-5.088A8.459 8.459 0 0 1 161.5 393c1.043 0 2.043.188 2.967.532.878-.343 1.925-.532 3.033-.532 1.66 0 3.185.424 4.206 1.156a8.006 8.006 0 0 0-1.415-7.092 8 8 0 0 0-13.838 7.596zm14.426 1.426c-.393-.533-1.708-1.086-3.379-1.086-2.006 0-3.5.797-3.5 1.4v3.6a7.994 7.994 0 0 0 6.88-3.914h-.001zM164 402c-5.523 0-10-4.477-10-10s4.477-10 10-10 10 4.477 10 10-4.477 10-10 10zm3.5-9.5a2 2 0 1 1 .001-4.001 2 2 0 0 1-.001 4.001z" fill="#858282"/>
        </g>
        <path d="M164.623 94.184h-3.889a3.803 3.803 0 0 0-.435-1.341 3.413 3.413 0 0 0-.843-1.012 3.717 3.717 0 0 0-1.19-.64 4.549 4.549 0 0 0-1.447-.221c-.941 0-1.761.234-2.459.701-.699.462-1.24 1.136-1.625 2.024-.385.882-.577 1.953-.577 3.214 0 1.296.192 2.385.577 3.267.391.882.935 1.548 1.634 1.998.698.449 1.506.674 2.423.674.515 0 .992-.068 1.43-.204a3.745 3.745 0 0 0 1.18-.595c.344-.266.628-.589.853-.967.23-.379.39-.811.479-1.296l3.889.017a7.05 7.05 0 0 1-.755 2.415 7.273 7.273 0 0 1-1.607 2.069c-.669.603-1.468 1.083-2.397 1.438-.923.349-1.968.524-3.134.524-1.622 0-3.072-.367-4.35-1.101-1.273-.734-2.279-1.797-3.018-3.187-.734-1.391-1.101-3.075-1.101-5.052 0-1.983.373-3.67 1.118-5.06.746-1.391 1.758-2.45 3.036-3.178 1.279-.734 2.717-1.101 4.315-1.101 1.054 0 2.03.148 2.93.444a7.44 7.44 0 0 1 2.406 1.296 6.67 6.67 0 0 1 1.704 2.068c.444.817.728 1.752.853 2.806zm11.43 6.01v-7.83h3.782V106h-3.631v-2.477h-.142a4.033 4.033 0 0 1-1.536 1.927c-.71.485-1.578.728-2.601.728-.912 0-1.714-.208-2.406-.622-.693-.414-1.234-1.003-1.625-1.767-.385-.763-.58-1.677-.586-2.743v-8.682h3.782v8.007c.006.805.222 1.442.648 1.909.426.468.997.702 1.714.702.455 0 .881-.104 1.278-.311.396-.213.716-.527.959-.941.248-.415.37-.926.364-1.536zm18.153-3.942-3.463.213a1.79 1.79 0 0 0-.381-.799 2.031 2.031 0 0 0-.773-.577c-.313-.148-.689-.222-1.127-.222-.586 0-1.08.124-1.483.373-.402.243-.604.568-.604.977 0 .325.131.6.391.825.26.225.707.406 1.341.542l2.468.497c1.325.272 2.314.71 2.965 1.314.651.604.976 1.397.976 2.379 0 .894-.263 1.678-.79 2.353-.521.674-1.237 1.201-2.148 1.58-.906.373-1.95.559-3.134.559-1.805 0-3.243-.375-4.315-1.127-1.065-.758-1.689-1.788-1.873-3.09l3.72-.195c.112.55.385.971.817 1.261.432.284.985.426 1.66.426.663 0 1.195-.127 1.598-.382.408-.26.615-.595.621-1.003a1.046 1.046 0 0 0-.435-.844c-.284-.224-.722-.396-1.314-.514l-2.361-.471c-1.332-.266-2.323-.728-2.974-1.385-.645-.657-.968-1.494-.968-2.512 0-.876.237-1.63.71-2.264.48-.633 1.152-1.122 2.016-1.465.87-.343 1.888-.515 3.054-.515 1.722 0 3.077.364 4.066 1.092.994.728 1.574 1.72 1.74 2.974zm9.945-3.888v2.84h-8.212v-2.84h8.212zm-6.348-3.267h3.782v12.713c0 .349.054.621.16.816.107.19.255.323.444.4.195.077.42.115.675.115.177 0 .355-.014.532-.044.178-.036.314-.062.409-.08l.595 2.814c-.19.06-.456.128-.799.205a6.433 6.433 0 0 1-1.252.15c-.912.036-1.711-.085-2.397-.364a3.343 3.343 0 0 1-1.589-1.296c-.379-.586-.565-1.325-.56-2.219v-13.21zm14.826 17.169c-1.379 0-2.571-.293-3.577-.879a5.998 5.998 0 0 1-2.317-2.468c-.545-1.059-.817-2.287-.817-3.684 0-1.409.272-2.64.817-3.693a5.935 5.935 0 0 1 2.317-2.468c1.006-.592 2.198-.888 3.577-.888s2.569.296 3.569.888a5.924 5.924 0 0 1 2.326 2.468c.545 1.053.817 2.284.817 3.693 0 1.397-.272 2.625-.817 3.684a5.987 5.987 0 0 1-2.326 2.468c-1 .586-2.19.879-3.569.879zm.018-2.929c.628 0 1.151-.178 1.572-.533.42-.361.736-.852.95-1.474.218-.621.328-1.328.328-2.121 0-.794-.11-1.5-.328-2.122-.214-.622-.53-1.113-.95-1.474-.421-.361-.944-.542-1.572-.542-.633 0-1.166.18-1.598.542-.426.361-.749.852-.968 1.474-.213.621-.319 1.328-.319 2.121 0 .794.106 1.501.319 2.122.219.622.542 1.113.968 1.474.432.355.965.533 1.598.533zM221.8 106V92.364h3.605v2.405h.159c.285-.799.758-1.429 1.421-1.89.663-.462 1.456-.693 2.379-.693.935 0 1.731.234 2.388.701a3.303 3.303 0 0 1 1.314 1.882h.142c.278-.78.782-1.405 1.51-1.873.733-.473 1.6-.71 2.601-.71 1.272 0 2.305.405 3.098 1.216.799.805 1.199 1.948 1.199 3.427V106h-3.773v-8.425c0-.758-.202-1.326-.604-1.705-.403-.378-.906-.568-1.509-.568-.687 0-1.223.22-1.607.657-.385.432-.577 1.003-.577 1.714V106h-3.667v-8.505c0-.669-.192-1.201-.577-1.598-.379-.397-.879-.595-1.5-.595-.421 0-.799.107-1.137.32-.331.207-.595.5-.79.879-.195.373-.293.81-.293 1.314V106H221.8zm38.523-12.953c-.071-.716-.375-1.272-.914-1.669-.539-.396-1.27-.595-2.193-.595-.627 0-1.157.09-1.589.267-.432.171-.763.411-.994.719a1.73 1.73 0 0 0-.338 1.047c-.011.326.057.61.205.853.153.242.364.452.63.63.266.172.574.323.923.453.349.124.722.23 1.119.32l1.633.39c.793.178 1.521.414 2.184.71.663.296 1.237.66 1.723 1.092.485.432.861.941 1.127 1.527.272.586.411 1.258.417 2.015-.006 1.113-.29 2.078-.852 2.895-.556.81-1.361 1.441-2.415 1.891-1.047.444-2.311.665-3.791.665-1.467 0-2.746-.224-3.835-.674-1.083-.45-1.929-1.116-2.539-1.998-.604-.888-.92-1.985-.95-3.293h3.72c.041.609.216 1.118.524 1.527a2.91 2.91 0 0 0 1.252.914c.526.201 1.121.302 1.784.302.651 0 1.216-.095 1.696-.284.485-.19.861-.453 1.127-.79.267-.338.4-.725.4-1.163 0-.409-.122-.752-.364-1.03-.237-.278-.586-.515-1.048-.71a10.661 10.661 0 0 0-1.678-.533l-1.98-.497c-1.532-.373-2.743-.956-3.631-1.75-.887-.792-1.328-1.86-1.322-3.204-.006-1.101.287-2.063.879-2.885.597-.823 1.417-1.465 2.459-1.927 1.041-.462 2.225-.692 3.551-.692 1.349 0 2.527.23 3.533.692 1.012.462 1.799 1.104 2.362 1.927.562.822.852 1.775.87 2.858h-3.685zm15.193 7.147v-7.83h3.782V106h-3.631v-2.477h-.142a4.033 4.033 0 0 1-1.536 1.927c-.711.485-1.578.728-2.602.728-.911 0-1.713-.208-2.405-.622-.693-.414-1.234-1.003-1.625-1.767-.385-.763-.58-1.677-.586-2.743v-8.682h3.782v8.007c.006.805.222 1.442.648 1.909.426.468.997.702 1.713.702.456 0 .882-.104 1.279-.311.396-.213.716-.527.959-.941.248-.415.37-.926.364-1.536zm6.807 10.92v-18.75h3.728v2.29h.169c.166-.367.406-.74.719-1.118.32-.385.734-.705 1.243-.96.515-.26 1.154-.39 1.918-.39.994 0 1.911.26 2.752.781.84.515 1.512 1.293 2.015 2.335.503 1.036.755 2.335.755 3.898 0 1.521-.246 2.805-.737 3.853-.485 1.041-1.148 1.831-1.989 2.37-.834.533-1.769.799-2.805.799-.734 0-1.358-.121-1.873-.364a3.888 3.888 0 0 1-1.252-.914 4.643 4.643 0 0 1-.746-1.128h-.115v7.298h-3.782zm3.702-11.932c0 .81.112 1.518.337 2.122.225.603.551 1.074.977 1.411.426.332.944.497 1.553.497.616 0 1.137-.168 1.563-.506.426-.343.749-.816.967-1.42.225-.61.338-1.311.338-2.104 0-.787-.11-1.48-.329-2.078-.219-.597-.541-1.065-.967-1.402-.426-.338-.95-.506-1.572-.506-.615 0-1.136.162-1.562.488-.42.326-.743.787-.968 1.385-.225.598-.337 1.302-.337 2.113zm12.118 11.932v-18.75h3.729v2.29h.168c.166-.367.406-.74.719-1.118.32-.385.734-.705 1.243-.96.515-.26 1.155-.39 1.918-.39.994 0 1.912.26 2.752.781.841.515 1.512 1.293 2.015 2.335.503 1.036.755 2.335.755 3.898 0 1.521-.246 2.805-.737 3.853-.485 1.041-1.148 1.831-1.988 2.37-.835.533-1.77.799-2.806.799-.734 0-1.358-.121-1.873-.364a3.899 3.899 0 0 1-1.252-.914 4.672 4.672 0 0 1-.746-1.128h-.115v7.298h-3.782zm3.702-11.932c0 .81.113 1.518.337 2.122.225.603.551 1.074.977 1.411.426.332.944.497 1.554.497.615 0 1.136-.168 1.562-.506.426-.343.749-.816.968-1.42.225-.61.337-1.311.337-2.104 0-.787-.109-1.48-.328-2.078-.219-.597-.542-1.065-.968-1.402-.426-.338-.95-.506-1.571-.506-.616 0-1.137.162-1.563.488-.42.326-.743.787-.968 1.385-.224.598-.337 1.302-.337 2.113zm18.28 7.084c-1.379 0-2.572-.293-3.578-.879a6.004 6.004 0 0 1-2.317-2.468c-.545-1.059-.817-2.287-.817-3.684 0-1.409.272-2.64.817-3.693a5.94 5.94 0 0 1 2.317-2.468c1.006-.592 2.199-.888 3.578-.888s2.568.296 3.568.888a5.918 5.918 0 0 1 2.326 2.468c.545 1.053.817 2.284.817 3.693 0 1.397-.272 2.625-.817 3.684a5.98 5.98 0 0 1-2.326 2.468c-1 .586-2.189.879-3.568.879zm.017-2.929c.628 0 1.151-.178 1.572-.533.42-.361.737-.852.95-1.474.219-.621.328-1.328.328-2.121 0-.794-.109-1.5-.328-2.122-.213-.622-.53-1.113-.95-1.474-.421-.361-.944-.542-1.572-.542-.633 0-1.166.18-1.598.542-.426.361-.748.852-.967 1.474-.213.621-.32 1.328-.32 2.121 0 .794.107 1.501.32 2.122.219.622.541 1.113.967 1.474.432.355.965.533 1.598.533zm9.153 2.663V92.364h3.667v2.379h.142c.249-.846.666-1.486 1.252-1.918a3.289 3.289 0 0 1 2.024-.657c.189 0 .393.012.612.036.219.024.412.056.578.098v3.355a4.966 4.966 0 0 0-.737-.142 6.615 6.615 0 0 0-.861-.062c-.557 0-1.054.121-1.492.364a2.685 2.685 0 0 0-1.03.994c-.248.427-.373.918-.373 1.474V106h-3.782zm18.167-13.636v2.84h-8.212v-2.84h8.212zm-6.348-3.267h3.782v12.713c0 .349.053.621.16.816.106.19.254.323.444.4.195.077.42.115.674.115.178 0 .355-.014.533-.044.178-.036.314-.062.408-.08l.595 2.814c-.189.06-.456.128-.799.205-.343.082-.76.133-1.252.15-.911.036-1.71-.085-2.397-.364a3.347 3.347 0 0 1-1.589-1.296c-.378-.586-.565-1.325-.559-2.219v-13.21zM355.782 106V87.818h7.174c1.373 0 2.545.246 3.515.737.977.485 1.72 1.175 2.229 2.069.515.887.772 1.932.772 3.133 0 1.208-.26 2.247-.781 3.117-.521.864-1.276 1.527-2.264 1.988-.983.462-2.172.693-3.569.693h-4.803v-3.09h4.182c.733 0 1.343-.1 1.828-.302.486-.2.847-.503 1.084-.905.242-.403.364-.903.364-1.5 0-.604-.122-1.113-.364-1.527-.237-.415-.601-.728-1.092-.942-.486-.219-1.098-.328-1.838-.328h-2.592V106h-3.845zm9.819-8.274L370.12 106h-4.243l-4.422-8.274h4.146zm12.458 8.54c-1.379 0-2.571-.293-3.578-.879a6.01 6.01 0 0 1-2.317-2.468c-.544-1.059-.817-2.287-.817-3.684 0-1.409.273-2.64.817-3.693a5.947 5.947 0 0 1 2.317-2.468c1.007-.592 2.199-.888 3.578-.888s2.569.296 3.569.888a5.924 5.924 0 0 1 2.326 2.468c.545 1.053.817 2.284.817 3.693 0 1.397-.272 2.625-.817 3.684a5.987 5.987 0 0 1-2.326 2.468c-1 .586-2.19.879-3.569.879zm.018-2.929c.627 0 1.151-.178 1.571-.533.42-.361.737-.852.95-1.474.219-.621.329-1.328.329-2.121 0-.794-.11-1.5-.329-2.122-.213-.622-.53-1.113-.95-1.474-.42-.361-.944-.542-1.571-.542-.633 0-1.166.18-1.598.542-.426.361-.749.852-.968 1.474-.213.621-.319 1.328-.319 2.121 0 .794.106 1.501.319 2.122.219.622.542 1.113.968 1.474.432.355.965.533 1.598.533zm12.935-15.519V106h-3.782V87.818h3.782zm9.244 18.448c-1.403 0-2.61-.284-3.622-.852a5.836 5.836 0 0 1-2.326-2.432c-.545-1.054-.817-2.3-.817-3.738 0-1.403.272-2.634.817-3.693a6.036 6.036 0 0 1 2.299-2.477c.994-.592 2.16-.888 3.498-.888.9 0 1.737.145 2.512.435a5.568 5.568 0 0 1 2.042 1.287c.586.575 1.042 1.296 1.368 2.167.325.864.488 1.876.488 3.036v1.039H395v-2.344h7.955c0-.545-.119-1.027-.355-1.447a2.548 2.548 0 0 0-.986-.986c-.414-.242-.896-.364-1.447-.364-.574 0-1.083.133-1.527.4-.438.26-.781.612-1.03 1.056a2.99 2.99 0 0 0-.381 1.465v2.228c0 .675.124 1.258.372 1.749.255.492.613.87 1.075 1.137.461.266 1.009.399 1.642.399.42 0 .805-.059 1.154-.177.349-.119.648-.296.897-.533.248-.237.438-.527.568-.87l3.498.231a4.783 4.783 0 0 1-1.092 2.201c-.545.622-1.249 1.107-2.113 1.456-.858.344-1.85.515-2.974.515zm30.626-12.082h-3.888a3.803 3.803 0 0 0-.435-1.341 3.4 3.4 0 0 0-.844-1.012 3.702 3.702 0 0 0-1.189-.64 4.553 4.553 0 0 0-1.447-.221c-.941 0-1.761.234-2.46.701-.698.462-1.239 1.136-1.624 2.024-.385.882-.577 1.953-.577 3.214 0 1.296.192 2.385.577 3.267.39.882.935 1.548 1.633 1.998.699.449 1.507.674 2.424.674.515 0 .991-.068 1.429-.204a3.74 3.74 0 0 0 1.181-.595c.343-.266.627-.589.852-.967.231-.379.391-.811.48-1.296l3.888.017c-.1.835-.352 1.64-.754 2.415a7.291 7.291 0 0 1-1.607 2.069c-.669.603-1.468 1.083-2.397 1.438-.924.349-1.968.524-3.134.524-1.622 0-3.072-.367-4.35-1.101-1.273-.734-2.279-1.797-3.019-3.187-.734-1.391-1.101-3.075-1.101-5.052 0-1.983.373-3.67 1.119-5.06.746-1.391 1.758-2.45 3.036-3.178 1.279-.734 2.717-1.101 4.315-1.101 1.053 0 2.03.148 2.93.444a7.425 7.425 0 0 1 2.405 1.296 6.66 6.66 0 0 1 1.705 2.068c.444.817.728 1.752.852 2.806zm8.847 12.082c-1.379 0-2.572-.293-3.578-.879a6.01 6.01 0 0 1-2.317-2.468c-.544-1.059-.817-2.287-.817-3.684 0-1.409.273-2.64.817-3.693a5.947 5.947 0 0 1 2.317-2.468c1.006-.592 2.199-.888 3.578-.888s2.569.296 3.569.888a5.93 5.93 0 0 1 2.326 2.468c.544 1.053.817 2.284.817 3.693 0 1.397-.273 2.625-.817 3.684a5.993 5.993 0 0 1-2.326 2.468c-1 .586-2.19.879-3.569.879zm.018-2.929c.627 0 1.151-.178 1.571-.533.42-.361.737-.852.95-1.474.219-.621.329-1.328.329-2.121 0-.794-.11-1.5-.329-2.122-.213-.622-.53-1.113-.95-1.474-.42-.361-.944-.542-1.571-.542-.633 0-1.166.18-1.598.542-.426.361-.749.852-.968 1.474-.213.621-.319 1.328-.319 2.121 0 .794.106 1.501.319 2.122.219.622.542 1.113.968 1.474.432.355.965.533 1.598.533zm12.935-5.22V106H448.9V92.364h3.604v2.405h.16a3.806 3.806 0 0 1 1.518-1.882c.71-.467 1.572-.7 2.584-.7.947 0 1.772.206 2.477.62.704.415 1.251 1.007 1.642 1.776.391.764.586 1.675.586 2.734V106h-3.782v-8.008c.006-.834-.207-1.485-.639-1.953-.432-.473-1.027-.71-1.785-.71-.509 0-.959.11-1.349.328a2.289 2.289 0 0 0-.906.96c-.213.413-.322.913-.328 1.5zm19.103-5.753v2.84h-8.416v-2.84h8.416zM465.295 106V91.378c0-.988.192-1.808.577-2.459a3.708 3.708 0 0 1 1.598-1.465c.675-.325 1.441-.488 2.299-.488.58 0 1.11.044 1.59.133.485.089.846.169 1.083.24l-.675 2.84a4.702 4.702 0 0 0-.55-.133 3.451 3.451 0 0 0-.657-.062c-.557 0-.944.13-1.163.391-.219.254-.329.613-.329 1.074V106h-3.773zm8.8 0V92.364h3.782V106h-3.782zm1.9-15.394a2.054 2.054 0 0 1-1.447-.56c-.397-.378-.595-.831-.595-1.358 0-.52.198-.968.595-1.34a2.037 2.037 0 0 1 1.447-.569c.562 0 1.042.19 1.438.569.403.373.604.82.604 1.34 0 .527-.201.98-.604 1.358-.396.373-.876.56-1.438.56zm11.055 20.792c-1.225 0-2.276-.169-3.151-.506-.871-.332-1.563-.785-2.078-1.359a4.175 4.175 0 0 1-1.003-1.935l3.498-.471c.106.273.275.527.506.764.231.237.535.426.914.568.385.148.853.222 1.403.222.823 0 1.5-.201 2.033-.604.539-.396.808-1.062.808-1.997v-2.495h-.16a3.582 3.582 0 0 1-.746 1.074c-.331.338-.757.613-1.278.826-.521.213-1.142.32-1.864.32-1.024 0-1.957-.237-2.797-.711-.834-.479-1.5-1.21-1.997-2.192-.492-.989-.737-2.238-.737-3.747 0-1.545.251-2.835.754-3.87.503-1.036 1.172-1.812 2.007-2.326a5.181 5.181 0 0 1 2.761-.773c.763 0 1.402.13 1.917.39.515.255.93.575 1.243.96.32.378.565.751.737 1.118h.142v-2.29h3.755v13.769c0 1.16-.284 2.131-.852 2.912-.568.781-1.355 1.367-2.361 1.758-1.001.396-2.152.595-3.454.595zm.08-8.434c.61 0 1.125-.151 1.545-.453.426-.308.751-.746.976-1.314.231-.574.347-1.26.347-2.06 0-.799-.113-1.491-.338-2.077-.225-.592-.55-1.05-.976-1.376-.426-.326-.944-.488-1.554-.488-.621 0-1.145.168-1.571.506-.426.331-.749.793-.968 1.385-.219.591-.328 1.275-.328 2.05 0 .788.109 1.468.328 2.042.225.569.547 1.009.968 1.323.426.308.95.462 1.571.462zm18.342-2.77v-7.83h3.782V106h-3.631v-2.477h-.142a4.033 4.033 0 0 1-1.536 1.927c-.711.485-1.578.728-2.602.728-.911 0-1.713-.208-2.405-.622-.693-.414-1.234-1.003-1.625-1.767-.385-.763-.58-1.677-.586-2.743v-8.682h3.782v8.007c.006.805.222 1.442.648 1.909.426.468.997.702 1.713.702.456 0 .882-.104 1.279-.311.396-.213.716-.527.959-.941.248-.415.37-.926.364-1.536zm6.807 5.806V92.364h3.666v2.379h.142c.249-.846.666-1.486 1.252-1.918a3.29 3.29 0 0 1 2.024-.657c.19 0 .394.012.613.036.219.024.411.056.577.098v3.355a4.94 4.94 0 0 0-.737-.142 6.615 6.615 0 0 0-.861-.062 3.03 3.03 0 0 0-1.492.364 2.676 2.676 0 0 0-1.029.994c-.249.427-.373.918-.373 1.474V106h-3.782zm13.727.257c-.87 0-1.645-.15-2.326-.452a3.747 3.747 0 0 1-1.616-1.359c-.39-.603-.586-1.355-.586-2.255 0-.757.14-1.393.418-1.908.278-.515.657-.93 1.136-1.243a5.505 5.505 0 0 1 1.634-.71 12.43 12.43 0 0 1 1.935-.338c.793-.083 1.432-.16 1.918-.23.485-.078.837-.19 1.056-.338.219-.148.328-.367.328-.657v-.053c0-.563-.177-.998-.532-1.305-.349-.308-.847-.462-1.492-.462-.68 0-1.222.151-1.624.453a2.08 2.08 0 0 0-.799 1.118l-3.498-.284a4.755 4.755 0 0 1 1.047-2.148c.521-.61 1.193-1.077 2.016-1.403.828-.331 1.787-.497 2.876-.497.758 0 1.483.089 2.175.266a5.692 5.692 0 0 1 1.856.826c.544.373.973.852 1.287 1.438.314.58.47 1.276.47 2.087V106h-3.586v-1.891h-.107a3.858 3.858 0 0 1-.879 1.128 4.075 4.075 0 0 1-1.322.754c-.515.178-1.11.266-1.785.266zm1.083-2.61c.557 0 1.048-.109 1.474-.328.426-.225.76-.527 1.003-.906a2.33 2.33 0 0 0 .364-1.287v-1.447a2.021 2.021 0 0 1-.488.213c-.201.06-.429.115-.684.169-.254.047-.509.091-.763.133-.255.035-.486.068-.693.098a4.682 4.682 0 0 0-1.163.31 1.863 1.863 0 0 0-.772.577c-.184.237-.275.533-.275.888 0 .515.186.909.559 1.181.379.266.858.399 1.438.399zm16.784-11.283v2.84h-8.212v-2.84h8.212zm-6.348-3.267h3.782v12.713c0 .349.053.621.16.816.106.19.254.323.444.4.195.077.42.115.674.115.178 0 .356-.014.533-.044.178-.036.314-.062.409-.08l.594 2.814c-.189.06-.455.128-.799.205-.343.082-.76.133-1.251.15-.912.036-1.711-.085-2.397-.364a3.345 3.345 0 0 1-1.59-1.296c-.378-.586-.565-1.325-.559-2.219v-13.21zM546.336 106V92.364h3.782V106h-3.782zm1.9-15.394a2.056 2.056 0 0 1-1.447-.56c-.396-.378-.595-.831-.595-1.358 0-.52.199-.968.595-1.34a2.038 2.038 0 0 1 1.447-.569c.563 0 1.042.19 1.438.569.403.373.604.82.604 1.34 0 .527-.201.98-.604 1.358-.396.373-.875.56-1.438.56zm11.073 15.66c-1.379 0-2.571-.293-3.578-.879a6.01 6.01 0 0 1-2.317-2.468c-.544-1.059-.817-2.287-.817-3.684 0-1.409.273-2.64.817-3.693a5.947 5.947 0 0 1 2.317-2.468c1.007-.592 2.199-.888 3.578-.888s2.569.296 3.569.888a5.924 5.924 0 0 1 2.326 2.468c.545 1.053.817 2.284.817 3.693 0 1.397-.272 2.625-.817 3.684a5.987 5.987 0 0 1-2.326 2.468c-1 .586-2.19.879-3.569.879zm.018-2.929c.627 0 1.151-.178 1.571-.533.42-.361.737-.852.95-1.474.219-.621.329-1.328.329-2.121 0-.794-.11-1.5-.329-2.122-.213-.622-.53-1.113-.95-1.474-.42-.361-.944-.542-1.571-.542-.633 0-1.166.18-1.598.542-.426.361-.749.852-.968 1.474-.213.621-.319 1.328-.319 2.121 0 .794.106 1.501.319 2.122.219.622.542 1.113.968 1.474.432.355.965.533 1.598.533zm12.935-5.22V106h-3.782V92.364h3.604v2.405h.16a3.806 3.806 0 0 1 1.518-1.882c.71-.467 1.572-.7 2.584-.7.947 0 1.772.206 2.477.62.704.415 1.251 1.007 1.642 1.776.391.764.586 1.675.586 2.734V106h-3.782v-8.008c.006-.834-.207-1.485-.639-1.953-.432-.473-1.027-.71-1.785-.71-.509 0-.958.11-1.349.328a2.289 2.289 0 0 0-.906.96c-.213.413-.322.913-.328 1.5z" fill="#393939"/>
        <g filter="url(#p2okxhyi7d)">
            <path fill="#FFE9E9" d="M74 219h629v52H74z"/>
        </g>
        <path d="M95 245h5.333v1.333H91V245h4z" fill="#E32525"/>
        <path d="M115.87 244.03c0-.567.243-1.041.73-1.422.486-.381 1.094-.571 1.821-.571.716 0 1.306.165 1.771.495.466.33.735.776.807 1.339h-1.08a1.093 1.093 0 0 0-.507-.66c-.259-.165-.591-.248-.997-.248-.41 0-.755.096-1.035.286-.275.19-.412.436-.412.736 0 .233.095.428.285.584.195.153.496.278.902.375l1.053.254c.652.156 1.132.383 1.441.679.314.296.47.688.47 1.174 0 .605-.26 1.103-.781 1.492-.52.385-1.174.578-1.961.578-.762 0-1.386-.17-1.873-.508-.486-.339-.759-.792-.818-1.359h1.123c.093.297.277.529.552.699.275.165.627.247 1.054.247.461 0 .84-.099 1.136-.298.296-.199.445-.455.445-.768 0-.466-.362-.787-1.086-.965l-1.174-.286c-.648-.156-1.122-.381-1.422-.673-.296-.296-.444-.689-.444-1.18zm9.07 4.132c.563 0 1.029-.163 1.397-.489.372-.326.559-.734.559-1.225v-.628l-1.841.12c-.517.034-.895.142-1.137.324-.241.182-.361.447-.361.794 0 .342.129.613.387.812.258.195.59.292.996.292zm-.203.959c-.673 0-1.227-.184-1.663-.553-.431-.372-.647-.867-.647-1.485 0-.609.216-1.088.647-1.435.432-.347 1.048-.543 1.847-.59l1.975-.12v-.623c0-.423-.132-.746-.394-.971-.262-.224-.648-.336-1.155-.336-.411 0-.751.074-1.022.222a1.016 1.016 0 0 0-.521.628H122.7c.072-.546.353-.986.844-1.32.495-.334 1.109-.501 1.841-.501.829 0 1.47.201 1.923.603.453.402.679.96.679 1.675V249h-1.041v-1.009h-.101c-.22.364-.512.643-.876.838a2.58 2.58 0 0 1-1.232.292zm5.332-.121v-9.56h1.092V249h-1.092zm5.942-5.999c-.546 0-.995.185-1.346.553-.351.368-.548.855-.59 1.46h3.77c-.012-.605-.186-1.092-.52-1.46-.335-.368-.773-.553-1.314-.553zm1.802 4.228h1.092a2.372 2.372 0 0 1-1.009 1.39c-.504.334-1.128.502-1.873.502-.947 0-1.699-.318-2.253-.953-.554-.639-.832-1.5-.832-2.583 0-1.079.28-1.94.838-2.584.559-.643 1.308-.964 2.247-.964.923 0 1.649.306 2.178.92.529.614.793 1.454.793 2.52v.419h-4.919v.051c.029.677.22 1.214.571 1.612.355.398.823.597 1.403.597.884 0 1.472-.309 1.764-.927zm2.736-3.199c0-.567.244-1.041.73-1.422.487-.381 1.094-.571 1.822-.571.715 0 1.306.165 1.771.495.466.33.734.776.806 1.339h-1.079a1.091 1.091 0 0 0-.508-.66c-.258-.165-.59-.248-.996-.248-.411 0-.756.096-1.035.286-.275.19-.413.436-.413.736 0 .233.096.428.286.584.195.153.495.278.901.375l1.054.254c.652.156 1.132.383 1.441.679.313.296.47.688.47 1.174 0 .605-.26 1.103-.781 1.492-.52.385-1.174.578-1.961.578-.762 0-1.386-.17-1.873-.508-.487-.339-.76-.792-.819-1.359h1.124c.093.297.277.529.552.699.275.165.626.247 1.054.247.461 0 .84-.099 1.136-.298.296-.199.444-.455.444-.768 0-.466-.362-.787-1.085-.965l-1.174-.286c-.648-.156-1.122-.381-1.422-.673-.297-.296-.445-.689-.445-1.18zm11.623 6.462h-5.942v-.813h5.942v.813zm.99-1.492v-6.843h1.092V249h-1.092zm1.086-8.455a.737.737 0 0 1-.54.222.737.737 0 0 1-.54-.222.748.748 0 0 1-.222-.54c0-.207.074-.385.222-.533a.727.727 0 0 1 .54-.228c.212 0 .391.076.54.228a.727.727 0 0 1 .222.533.748.748 0 0 1-.222.54zm2.088 8.455v-6.843h1.041v1.079h.102c.363-.799 1.049-1.199 2.056-1.199.766 0 1.356.22 1.771.66.415.436.622 1.06.622 1.872V249h-1.092v-4.164c0-.614-.133-1.069-.399-1.365-.263-.3-.667-.45-1.213-.45-.55 0-.988.173-1.314.52-.321.343-.482.813-.482 1.409V249h-1.092zm8.049-8.614h1.092v1.771H167v.914h-1.523v3.872c0 .402.08.694.241.876.161.182.419.273.774.273.157 0 .326-.008.508-.025v.92a3.696 3.696 0 0 1-.641.064c-.707 0-1.213-.142-1.517-.426-.305-.283-.457-.751-.457-1.402v-4.152h-1.105v-.914h1.105v-1.771zm6.893 2.615c-.546 0-.994.185-1.345.553-.352.368-.548.855-.591 1.46h3.771c-.013-.605-.186-1.092-.521-1.46-.334-.368-.772-.553-1.314-.553zm1.803 4.228h1.092a2.376 2.376 0 0 1-1.009 1.39c-.504.334-1.128.502-1.873.502-.948 0-1.699-.318-2.253-.953-.555-.639-.832-1.5-.832-2.583 0-1.079.279-1.94.838-2.584.559-.643 1.308-.964 2.247-.964.923 0 1.648.306 2.177.92.529.614.794 1.454.794 2.52v.419h-4.92v.051c.03.677.22 1.214.572 1.612.355.398.823.597 1.402.597.885 0 1.473-.309 1.765-.927zm2.895 1.771v-6.843h1.041v1.016h.101c.102-.334.33-.607.686-.819a2.317 2.317 0 0 1 1.212-.317c.207 0 .389.01.546.031v1.092c-.148-.042-.381-.063-.698-.063-.521 0-.95.156-1.289.469a1.558 1.558 0 0 0-.508 1.194V249h-1.091zm5.078 0v-6.843h1.041v1.079h.101c.364-.799 1.05-1.199 2.057-1.199.766 0 1.356.22 1.771.66.415.436.622 1.06.622 1.872V249h-1.092v-4.164c0-.614-.133-1.069-.4-1.365-.262-.3-.666-.45-1.212-.45-.55 0-.988.173-1.314.52-.322.343-.482.813-.482 1.409V249h-1.092z" fill="#393939"/>
        <path fill="#D9D9D9" d="M184 201h225v8H184zM184 283h225v8H184zM184 324h225v8H184z"/>
    </g>
    <defs>
        <clipPath id="1asypl0dbb">
            <path fill="#fff" transform="translate(152 147)" d="M0 0h24v24H0z"/>
        </clipPath>
        <clipPath id="zv9ec6i8rc">
            <path fill="#fff" transform="translate(152 380)" d="M0 0h24v24H0z"/>
        </clipPath>
        <filter id="nafb2oybza" x="0" y="0" width="777" height="619" filterUnits="userSpaceOnUse" color-interpolation-filters="sRGB">
            <feFlood flood-opacity="0" result="BackgroundImageFix"/>
            <feColorMatrix in="SourceAlpha" values="0 0 0 0 0 0 0 0 0 0 0 0 0 0 0 0 0 0 127 0" result="hardAlpha"/>
            <feOffset dy="24"/>
            <feGaussianBlur stdDeviation="37"/>
            <feComposite in2="hardAlpha" operator="out"/>
            <feColorMatrix values="0 0 0 0 0 0 0 0 0 0 0 0 0 0 0 0 0 0 0.1 0"/>
            <feBlend in2="BackgroundImageFix" result="effect1_dropShadow_7289_102914"/>
            <feBlend in="SourceGraphic" in2="effect1_dropShadow_7289_102914" result="shape"/>
        </filter>
        <filter id="p2okxhyi7d" x="10" y="179" width="757" height="180" filterUnits="userSpaceOnUse" color-interpolation-filters="sRGB">
            <feFlood flood-opacity="0" result="BackgroundImageFix"/>
            <feColorMatrix in="SourceAlpha" values="0 0 0 0 0 0 0 0 0 0 0 0 0 0 0 0 0 0 127 0" result="hardAlpha"/>
            <feOffset dy="24"/>
            <feGaussianBlur stdDeviation="32"/>
            <feComposite in2="hardAlpha" operator="out"/>
            <feColorMatrix values="0 0 0 0 0 0 0 0 0 0 0 0 0 0 0 0 0 0 0.13 0"/>
            <feBlend in2="BackgroundImageFix" result="effect1_dropShadow_7289_102914"/>
            <feBlend in="SourceGraphic" in2="effect1_dropShadow_7289_102914" result="shape"/>
        </filter>
    </defs>
</svg>
