<svg width="699" height="619" viewBox="0 0 699 619" fill="none" xmlns="http://www.w3.org/2000/svg">
    <g filter="url(#1rr8f0joda)">
        <path fill="#fff" d="M101 50h598v471H101z"/>
        <path fill="#fff" d="M143 173h1148v63H143z"/>
        <circle cx="169" cy="302" r="10" fill="#8974FF"/>
        <path d="M169.146 305.676c-.999 0-1.788-.331-2.368-.991-.579-.664-.869-1.566-.869-2.706 0-1.145.288-2.049.864-2.709.58-.661 1.369-.992 2.369-.992.8 0 1.479.236 2.036.708.556.469.872 1.071.947 1.807h-1.24a1.683 1.683 0 0 0-.606-1.011c-.315-.254-.695-.381-1.137-.381-.599 0-1.073.231-1.421.694-.349.459-.523 1.085-.523 1.88 0 .794.174 1.422.523 1.884.348.463.823.694 1.425.694.446 0 .827-.116 1.143-.347.316-.234.516-.548.601-.942h1.24c-.085.722-.401 1.305-.947 1.748-.547.442-1.226.664-2.037.664z" fill="#fff"/>
        <path d="M160.623 94.184h-3.889a3.803 3.803 0 0 0-.435-1.341 3.413 3.413 0 0 0-.843-1.012 3.717 3.717 0 0 0-1.19-.64 4.549 4.549 0 0 0-1.447-.221c-.941 0-1.761.234-2.459.701-.699.462-1.24 1.136-1.625 2.024-.385.882-.577 1.953-.577 3.214 0 1.296.192 2.385.577 3.267.391.882.935 1.548 1.634 1.998.698.449 1.506.674 2.423.674.515 0 .992-.068 1.43-.204a3.745 3.745 0 0 0 1.18-.595c.344-.266.628-.589.853-.967.23-.379.39-.811.479-1.296l3.889.017a7.05 7.05 0 0 1-.755 2.415 7.273 7.273 0 0 1-1.607 2.069c-.669.603-1.468 1.083-2.397 1.438-.923.349-1.968.524-3.134.524-1.622 0-3.072-.367-4.35-1.101-1.273-.734-2.279-1.797-3.018-3.187-.734-1.391-1.101-3.075-1.101-5.052 0-1.983.373-3.67 1.118-5.06.746-1.391 1.758-2.45 3.036-3.178 1.279-.734 2.717-1.101 4.315-1.101 1.054 0 2.03.148 2.93.444a7.44 7.44 0 0 1 2.406 1.296 6.67 6.67 0 0 1 1.704 2.068c.444.817.728 1.752.853 2.806zm11.43 6.01v-7.83h3.782V106h-3.631v-2.477h-.142a4.033 4.033 0 0 1-1.536 1.927c-.71.485-1.578.728-2.601.728-.912 0-1.714-.208-2.406-.622-.693-.414-1.234-1.003-1.625-1.767-.385-.763-.58-1.677-.586-2.743v-8.682h3.782v8.007c.006.805.222 1.442.648 1.909.426.468.997.702 1.714.702.455 0 .881-.104 1.278-.311.396-.213.716-.527.959-.941.248-.415.37-.926.364-1.536zm18.153-3.942-3.463.213a1.79 1.79 0 0 0-.381-.799 2.031 2.031 0 0 0-.773-.577c-.313-.148-.689-.222-1.127-.222-.586 0-1.08.124-1.483.373-.402.243-.604.568-.604.977 0 .325.131.6.391.825.26.225.707.406 1.341.542l2.468.497c1.325.272 2.314.71 2.965 1.314.651.604.976 1.397.976 2.379 0 .894-.263 1.678-.79 2.353-.521.674-1.237 1.201-2.148 1.58-.906.373-1.95.559-3.134.559-1.805 0-3.243-.375-4.315-1.127-1.065-.758-1.689-1.788-1.873-3.09l3.72-.195c.112.55.385.971.817 1.261.432.284.985.426 1.66.426.663 0 1.195-.127 1.598-.382.408-.26.615-.595.621-1.003a1.046 1.046 0 0 0-.435-.844c-.284-.224-.722-.396-1.314-.514l-2.361-.471c-1.332-.266-2.323-.728-2.974-1.385-.645-.657-.968-1.494-.968-2.512 0-.876.237-1.63.71-2.264.48-.633 1.152-1.122 2.016-1.465.87-.343 1.888-.515 3.054-.515 1.722 0 3.077.364 4.066 1.092.994.728 1.574 1.72 1.74 2.974zm9.945-3.888v2.84h-8.212v-2.84h8.212zm-6.348-3.267h3.782v12.713c0 .349.054.621.16.816.107.19.255.323.444.4.195.077.42.115.675.115.177 0 .355-.014.532-.044.178-.036.314-.062.409-.08l.595 2.814c-.19.06-.456.128-.799.205a6.433 6.433 0 0 1-1.252.15c-.912.036-1.711-.085-2.397-.364a3.343 3.343 0 0 1-1.589-1.296c-.379-.586-.565-1.325-.56-2.219v-13.21zm14.826 17.169c-1.379 0-2.571-.293-3.577-.879a5.998 5.998 0 0 1-2.317-2.468c-.545-1.059-.817-2.287-.817-3.684 0-1.409.272-2.64.817-3.693a5.935 5.935 0 0 1 2.317-2.468c1.006-.592 2.198-.888 3.577-.888s2.569.296 3.569.888a5.924 5.924 0 0 1 2.326 2.468c.545 1.053.817 2.284.817 3.693 0 1.397-.272 2.625-.817 3.684a5.987 5.987 0 0 1-2.326 2.468c-1 .586-2.19.879-3.569.879zm.018-2.929c.628 0 1.151-.178 1.572-.533.42-.361.736-.852.95-1.474.218-.621.328-1.328.328-2.121 0-.794-.11-1.5-.328-2.122-.214-.622-.53-1.113-.95-1.474-.421-.361-.944-.542-1.572-.542-.633 0-1.166.18-1.598.542-.426.361-.749.852-.968 1.474-.213.621-.319 1.328-.319 2.121 0 .794.106 1.501.319 2.122.219.622.542 1.113.968 1.474.432.355.965.533 1.598.533zM217.8 106V92.364h3.605v2.405h.159c.285-.799.758-1.429 1.421-1.89.663-.462 1.456-.693 2.379-.693.935 0 1.731.234 2.388.701a3.303 3.303 0 0 1 1.314 1.882h.142c.278-.78.782-1.405 1.51-1.873.733-.473 1.6-.71 2.601-.71 1.272 0 2.305.405 3.098 1.216.799.805 1.199 1.948 1.199 3.427V106h-3.773v-8.425c0-.758-.202-1.326-.604-1.705-.403-.378-.906-.568-1.509-.568-.687 0-1.223.22-1.607.657-.385.432-.577 1.003-.577 1.714V106h-3.667v-8.505c0-.669-.192-1.201-.577-1.598-.379-.397-.879-.595-1.5-.595-.421 0-.799.107-1.137.32-.331.207-.595.5-.79.879-.195.373-.293.81-.293 1.314V106H217.8zm38.523-12.953c-.071-.716-.375-1.272-.914-1.669-.539-.396-1.27-.595-2.193-.595-.627 0-1.157.09-1.589.267-.432.171-.763.411-.994.719a1.73 1.73 0 0 0-.338 1.047c-.011.326.057.61.205.853.153.242.364.452.63.63.266.172.574.323.923.453.349.124.722.23 1.119.32l1.633.39c.793.178 1.521.414 2.184.71.663.296 1.237.66 1.723 1.092.485.432.861.941 1.127 1.527.272.586.411 1.258.417 2.015-.006 1.113-.29 2.078-.852 2.895-.556.81-1.361 1.441-2.415 1.891-1.047.444-2.311.665-3.791.665-1.467 0-2.746-.224-3.835-.674-1.083-.45-1.929-1.116-2.539-1.998-.604-.888-.92-1.985-.95-3.293h3.72c.041.609.216 1.118.524 1.527a2.91 2.91 0 0 0 1.252.914c.526.201 1.121.302 1.784.302.651 0 1.216-.095 1.696-.284.485-.19.861-.453 1.127-.79.267-.338.4-.725.4-1.163 0-.409-.122-.752-.364-1.03-.237-.278-.586-.515-1.048-.71a10.661 10.661 0 0 0-1.678-.533l-1.98-.497c-1.532-.373-2.743-.956-3.631-1.75-.887-.792-1.328-1.86-1.322-3.204-.006-1.101.287-2.063.879-2.885.597-.823 1.417-1.465 2.459-1.927 1.041-.462 2.225-.692 3.551-.692 1.349 0 2.527.23 3.533.692 1.012.462 1.799 1.104 2.362 1.927.562.822.852 1.775.87 2.858h-3.685zm15.193 7.147v-7.83h3.782V106h-3.631v-2.477h-.142a4.033 4.033 0 0 1-1.536 1.927c-.711.485-1.578.728-2.602.728-.911 0-1.713-.208-2.405-.622-.693-.414-1.234-1.003-1.625-1.767-.385-.763-.58-1.677-.586-2.743v-8.682h3.782v8.007c.006.805.222 1.442.648 1.909.426.468.997.702 1.713.702.456 0 .882-.104 1.279-.311.396-.213.716-.527.959-.941.248-.415.37-.926.364-1.536zm6.807 10.92v-18.75h3.728v2.29h.169c.166-.367.406-.74.719-1.118.32-.385.734-.705 1.243-.96.515-.26 1.154-.39 1.918-.39.994 0 1.911.26 2.752.781.84.515 1.512 1.293 2.015 2.335.503 1.036.755 2.335.755 3.898 0 1.521-.246 2.805-.737 3.853-.485 1.041-1.148 1.831-1.989 2.37-.834.533-1.769.799-2.805.799-.734 0-1.358-.121-1.873-.364a3.888 3.888 0 0 1-1.252-.914 4.643 4.643 0 0 1-.746-1.128h-.115v7.298h-3.782zm3.702-11.932c0 .81.112 1.518.337 2.122.225.603.551 1.074.977 1.411.426.332.944.497 1.553.497.616 0 1.137-.168 1.563-.506.426-.343.749-.816.967-1.42.225-.61.338-1.311.338-2.104 0-.787-.11-1.48-.329-2.078-.219-.597-.541-1.065-.967-1.402-.426-.338-.95-.506-1.572-.506-.615 0-1.136.162-1.562.488-.42.326-.743.787-.968 1.385-.225.598-.337 1.302-.337 2.113zm12.118 11.932v-18.75h3.729v2.29h.168c.166-.367.406-.74.719-1.118.32-.385.734-.705 1.243-.96.515-.26 1.155-.39 1.918-.39.994 0 1.912.26 2.752.781.841.515 1.512 1.293 2.015 2.335.503 1.036.755 2.335.755 3.898 0 1.521-.246 2.805-.737 3.853-.485 1.041-1.148 1.831-1.988 2.37-.835.533-1.77.799-2.806.799-.734 0-1.358-.121-1.873-.364a3.899 3.899 0 0 1-1.252-.914 4.672 4.672 0 0 1-.746-1.128h-.115v7.298h-3.782zm3.702-11.932c0 .81.113 1.518.337 2.122.225.603.551 1.074.977 1.411.426.332.944.497 1.554.497.615 0 1.136-.168 1.562-.506.426-.343.749-.816.968-1.42.225-.61.337-1.311.337-2.104 0-.787-.109-1.48-.328-2.078-.219-.597-.542-1.065-.968-1.402-.426-.338-.95-.506-1.571-.506-.616 0-1.137.162-1.563.488-.42.326-.743.787-.968 1.385-.224.598-.337 1.302-.337 2.113zm18.28 7.084c-1.379 0-2.572-.293-3.578-.879a6.004 6.004 0 0 1-2.317-2.468c-.545-1.059-.817-2.287-.817-3.684 0-1.409.272-2.64.817-3.693a5.94 5.94 0 0 1 2.317-2.468c1.006-.592 2.199-.888 3.578-.888s2.568.296 3.568.888a5.918 5.918 0 0 1 2.326 2.468c.545 1.053.817 2.284.817 3.693 0 1.397-.272 2.625-.817 3.684a5.98 5.98 0 0 1-2.326 2.468c-1 .586-2.189.879-3.568.879zm.017-2.929c.628 0 1.151-.178 1.572-.533.42-.361.737-.852.95-1.474.219-.621.328-1.328.328-2.121 0-.794-.109-1.5-.328-2.122-.213-.622-.53-1.113-.95-1.474-.421-.361-.944-.542-1.572-.542-.633 0-1.166.18-1.598.542-.426.361-.748.852-.967 1.474-.213.621-.32 1.328-.32 2.121 0 .794.107 1.501.32 2.122.219.622.541 1.113.967 1.474.432.355.965.533 1.598.533zm9.153 2.663V92.364h3.667v2.379h.142c.249-.846.666-1.486 1.252-1.918a3.289 3.289 0 0 1 2.024-.657c.189 0 .393.012.612.036.219.024.412.056.578.098v3.355a4.966 4.966 0 0 0-.737-.142 6.615 6.615 0 0 0-.861-.062c-.557 0-1.054.121-1.492.364a2.685 2.685 0 0 0-1.03.994c-.248.427-.373.918-.373 1.474V106h-3.782zm18.167-13.636v2.84h-8.212v-2.84h8.212zm-6.348-3.267h3.782v12.713c0 .349.053.621.16.816.106.19.254.323.444.4.195.077.42.115.674.115.178 0 .355-.014.533-.044.178-.036.314-.062.408-.08l.595 2.814c-.189.06-.456.128-.799.205-.343.082-.76.133-1.252.15-.911.036-1.71-.085-2.397-.364a3.347 3.347 0 0 1-1.589-1.296c-.378-.586-.565-1.325-.559-2.219v-13.21zM351.782 106V87.818h7.174c1.373 0 2.545.246 3.515.737.977.485 1.72 1.175 2.229 2.069.515.887.772 1.932.772 3.133 0 1.208-.26 2.247-.781 3.117-.521.864-1.276 1.527-2.264 1.988-.983.462-2.172.693-3.569.693h-4.803v-3.09h4.182c.733 0 1.343-.1 1.828-.302.486-.2.847-.503 1.084-.905.242-.403.364-.903.364-1.5 0-.604-.122-1.113-.364-1.527-.237-.415-.601-.728-1.092-.942-.486-.219-1.098-.328-1.838-.328h-2.592V106h-3.845zm9.819-8.274L366.12 106h-4.243l-4.422-8.274h4.146zm12.458 8.54c-1.379 0-2.571-.293-3.578-.879a6.01 6.01 0 0 1-2.317-2.468c-.544-1.059-.817-2.287-.817-3.684 0-1.409.273-2.64.817-3.693a5.947 5.947 0 0 1 2.317-2.468c1.007-.592 2.199-.888 3.578-.888s2.569.296 3.569.888a5.924 5.924 0 0 1 2.326 2.468c.545 1.053.817 2.284.817 3.693 0 1.397-.272 2.625-.817 3.684a5.987 5.987 0 0 1-2.326 2.468c-1 .586-2.19.879-3.569.879zm.018-2.929c.627 0 1.151-.178 1.571-.533.42-.361.737-.852.95-1.474.219-.621.329-1.328.329-2.121 0-.794-.11-1.5-.329-2.122-.213-.622-.53-1.113-.95-1.474-.42-.361-.944-.542-1.571-.542-.633 0-1.166.18-1.598.542-.426.361-.749.852-.968 1.474-.213.621-.319 1.328-.319 2.121 0 .794.106 1.501.319 2.122.219.622.542 1.113.968 1.474.432.355.965.533 1.598.533zm12.935-15.519V106h-3.782V87.818h3.782zm9.244 18.448c-1.403 0-2.61-.284-3.622-.852a5.836 5.836 0 0 1-2.326-2.432c-.545-1.054-.817-2.3-.817-3.738 0-1.403.272-2.634.817-3.693a6.036 6.036 0 0 1 2.299-2.477c.994-.592 2.16-.888 3.498-.888.9 0 1.737.145 2.512.435a5.568 5.568 0 0 1 2.042 1.287c.586.575 1.042 1.296 1.368 2.167.325.864.488 1.876.488 3.036v1.039H391v-2.344h7.955c0-.545-.119-1.027-.355-1.447a2.548 2.548 0 0 0-.986-.986c-.414-.242-.896-.364-1.447-.364-.574 0-1.083.133-1.527.4-.438.26-.781.612-1.03 1.056a2.99 2.99 0 0 0-.381 1.465v2.228c0 .675.124 1.258.372 1.749.255.492.613.87 1.075 1.137.461.266 1.009.399 1.642.399.42 0 .805-.059 1.154-.177.349-.119.648-.296.897-.533.248-.237.438-.527.568-.87l3.498.231a4.783 4.783 0 0 1-1.092 2.201c-.545.622-1.249 1.107-2.113 1.456-.858.344-1.85.515-2.974.515zm30.626-12.082h-3.888a3.803 3.803 0 0 0-.435-1.341 3.4 3.4 0 0 0-.844-1.012 3.702 3.702 0 0 0-1.189-.64 4.553 4.553 0 0 0-1.447-.221c-.941 0-1.761.234-2.46.701-.698.462-1.239 1.136-1.624 2.024-.385.882-.577 1.953-.577 3.214 0 1.296.192 2.385.577 3.267.39.882.935 1.548 1.633 1.998.699.449 1.507.674 2.424.674.515 0 .991-.068 1.429-.204a3.74 3.74 0 0 0 1.181-.595c.343-.266.627-.589.852-.967.231-.379.391-.811.48-1.296l3.888.017c-.1.835-.352 1.64-.754 2.415a7.291 7.291 0 0 1-1.607 2.069c-.669.603-1.468 1.083-2.397 1.438-.924.349-1.968.524-3.134.524-1.622 0-3.072-.367-4.35-1.101-1.273-.734-2.279-1.797-3.019-3.187-.734-1.391-1.101-3.075-1.101-5.052 0-1.983.373-3.67 1.119-5.06.746-1.391 1.758-2.45 3.036-3.178 1.279-.734 2.717-1.101 4.315-1.101 1.053 0 2.03.148 2.93.444a7.425 7.425 0 0 1 2.405 1.296 6.66 6.66 0 0 1 1.705 2.068c.444.817.728 1.752.852 2.806zm8.847 12.082c-1.379 0-2.572-.293-3.578-.879a6.01 6.01 0 0 1-2.317-2.468c-.544-1.059-.817-2.287-.817-3.684 0-1.409.273-2.64.817-3.693a5.947 5.947 0 0 1 2.317-2.468c1.006-.592 2.199-.888 3.578-.888s2.569.296 3.569.888a5.93 5.93 0 0 1 2.326 2.468c.544 1.053.817 2.284.817 3.693 0 1.397-.273 2.625-.817 3.684a5.993 5.993 0 0 1-2.326 2.468c-1 .586-2.19.879-3.569.879zm.018-2.929c.627 0 1.151-.178 1.571-.533.42-.361.737-.852.95-1.474.219-.621.329-1.328.329-2.121 0-.794-.11-1.5-.329-2.122-.213-.622-.53-1.113-.95-1.474-.42-.361-.944-.542-1.571-.542-.633 0-1.166.18-1.598.542-.426.361-.749.852-.968 1.474-.213.621-.319 1.328-.319 2.121 0 .794.106 1.501.319 2.122.219.622.542 1.113.968 1.474.432.355.965.533 1.598.533zm12.935-5.22V106H444.9V92.364h3.604v2.405h.16a3.806 3.806 0 0 1 1.518-1.882c.71-.467 1.572-.7 2.584-.7.947 0 1.772.206 2.477.62.704.415 1.251 1.007 1.642 1.776.391.764.586 1.675.586 2.734V106h-3.782v-8.008c.006-.834-.207-1.485-.639-1.953-.432-.473-1.027-.71-1.785-.71-.509 0-.959.11-1.349.328a2.289 2.289 0 0 0-.906.96c-.213.413-.322.913-.328 1.5zm19.103-5.753v2.84h-8.416v-2.84h8.416zM461.295 106V91.378c0-.988.192-1.808.577-2.459a3.708 3.708 0 0 1 1.598-1.465c.675-.325 1.441-.488 2.299-.488.58 0 1.11.044 1.59.133.485.089.846.169 1.083.24l-.675 2.84a4.702 4.702 0 0 0-.55-.133 3.451 3.451 0 0 0-.657-.062c-.557 0-.944.13-1.163.391-.219.254-.329.613-.329 1.074V106h-3.773zm8.8 0V92.364h3.782V106h-3.782zm1.9-15.394a2.054 2.054 0 0 1-1.447-.56c-.397-.378-.595-.831-.595-1.358 0-.52.198-.968.595-1.34a2.037 2.037 0 0 1 1.447-.569c.562 0 1.042.19 1.438.569.403.373.604.82.604 1.34 0 .527-.201.98-.604 1.358-.396.373-.876.56-1.438.56zm11.055 20.792c-1.225 0-2.276-.169-3.151-.506-.871-.332-1.563-.785-2.078-1.359a4.175 4.175 0 0 1-1.003-1.935l3.498-.471c.106.273.275.527.506.764.231.237.535.426.914.568.385.148.853.222 1.403.222.823 0 1.5-.201 2.033-.604.539-.396.808-1.062.808-1.997v-2.495h-.16a3.582 3.582 0 0 1-.746 1.074c-.331.338-.757.613-1.278.826-.521.213-1.142.32-1.864.32-1.024 0-1.957-.237-2.797-.711-.834-.479-1.5-1.21-1.997-2.192-.492-.989-.737-2.238-.737-3.747 0-1.545.251-2.835.754-3.87.503-1.036 1.172-1.812 2.007-2.326a5.181 5.181 0 0 1 2.761-.773c.763 0 1.402.13 1.917.39.515.255.93.575 1.243.96.32.378.565.751.737 1.118h.142v-2.29h3.755v13.769c0 1.16-.284 2.131-.852 2.912-.568.781-1.355 1.367-2.361 1.758-1.001.396-2.152.595-3.454.595zm.08-8.434c.61 0 1.125-.151 1.545-.453.426-.308.751-.746.976-1.314.231-.574.347-1.26.347-2.06 0-.799-.113-1.491-.338-2.077-.225-.592-.55-1.05-.976-1.376-.426-.326-.944-.488-1.554-.488-.621 0-1.145.168-1.571.506-.426.331-.749.793-.968 1.385-.219.591-.328 1.275-.328 2.05 0 .788.109 1.468.328 2.042.225.569.547 1.009.968 1.323.426.308.95.462 1.571.462zm18.342-2.77v-7.83h3.782V106h-3.631v-2.477h-.142a4.033 4.033 0 0 1-1.536 1.927c-.711.485-1.578.728-2.602.728-.911 0-1.713-.208-2.405-.622-.693-.414-1.234-1.003-1.625-1.767-.385-.763-.58-1.677-.586-2.743v-8.682h3.782v8.007c.006.805.222 1.442.648 1.909.426.468.997.702 1.713.702.456 0 .882-.104 1.279-.311.396-.213.716-.527.959-.941.248-.415.37-.926.364-1.536zm6.807 5.806V92.364h3.666v2.379h.142c.249-.846.666-1.486 1.252-1.918a3.29 3.29 0 0 1 2.024-.657c.19 0 .394.012.613.036.219.024.411.056.577.098v3.355a4.94 4.94 0 0 0-.737-.142 6.615 6.615 0 0 0-.861-.062 3.03 3.03 0 0 0-1.492.364 2.676 2.676 0 0 0-1.029.994c-.249.427-.373.918-.373 1.474V106h-3.782zm13.727.257c-.87 0-1.645-.15-2.326-.452a3.747 3.747 0 0 1-1.616-1.359c-.39-.603-.586-1.355-.586-2.255 0-.757.14-1.393.418-1.908.278-.515.657-.93 1.136-1.243a5.505 5.505 0 0 1 1.634-.71 12.43 12.43 0 0 1 1.935-.338c.793-.083 1.432-.16 1.918-.23.485-.078.837-.19 1.056-.338.219-.148.328-.367.328-.657v-.053c0-.563-.177-.998-.532-1.305-.349-.308-.847-.462-1.492-.462-.68 0-1.222.151-1.624.453a2.08 2.08 0 0 0-.799 1.118l-3.498-.284a4.755 4.755 0 0 1 1.047-2.148c.521-.61 1.193-1.077 2.016-1.403.828-.331 1.787-.497 2.876-.497.758 0 1.483.089 2.175.266a5.692 5.692 0 0 1 1.856.826c.544.373.973.852 1.287 1.438.314.58.47 1.276.47 2.087V106h-3.586v-1.891h-.107a3.858 3.858 0 0 1-.879 1.128 4.075 4.075 0 0 1-1.322.754c-.515.178-1.11.266-1.785.266zm1.083-2.61c.557 0 1.048-.109 1.474-.328.426-.225.76-.527 1.003-.906a2.33 2.33 0 0 0 .364-1.287v-1.447a2.021 2.021 0 0 1-.488.213c-.201.06-.429.115-.684.169-.254.047-.509.091-.763.133-.255.035-.486.068-.693.098a4.682 4.682 0 0 0-1.163.31 1.863 1.863 0 0 0-.772.577c-.184.237-.275.533-.275.888 0 .515.186.909.559 1.181.379.266.858.399 1.438.399zm16.784-11.283v2.84h-8.212v-2.84h8.212zm-6.348-3.267h3.782v12.713c0 .349.053.621.16.816.106.19.254.323.444.4.195.077.42.115.674.115.178 0 .356-.014.533-.044.178-.036.314-.062.409-.08l.594 2.814c-.189.06-.455.128-.799.205-.343.082-.76.133-1.251.15-.912.036-1.711-.085-2.397-.364a3.345 3.345 0 0 1-1.59-1.296c-.378-.586-.565-1.325-.559-2.219v-13.21zM542.336 106V92.364h3.782V106h-3.782zm1.9-15.394a2.056 2.056 0 0 1-1.447-.56c-.396-.378-.595-.831-.595-1.358 0-.52.199-.968.595-1.34a2.038 2.038 0 0 1 1.447-.569c.563 0 1.042.19 1.438.569.403.373.604.82.604 1.34 0 .527-.201.98-.604 1.358-.396.373-.875.56-1.438.56zm11.073 15.66c-1.379 0-2.571-.293-3.578-.879a6.01 6.01 0 0 1-2.317-2.468c-.544-1.059-.817-2.287-.817-3.684 0-1.409.273-2.64.817-3.693a5.947 5.947 0 0 1 2.317-2.468c1.007-.592 2.199-.888 3.578-.888s2.569.296 3.569.888a5.924 5.924 0 0 1 2.326 2.468c.545 1.053.817 2.284.817 3.693 0 1.397-.272 2.625-.817 3.684a5.987 5.987 0 0 1-2.326 2.468c-1 .586-2.19.879-3.569.879zm.018-2.929c.627 0 1.151-.178 1.571-.533.42-.361.737-.852.95-1.474.219-.621.329-1.328.329-2.121 0-.794-.11-1.5-.329-2.122-.213-.622-.53-1.113-.95-1.474-.42-.361-.944-.542-1.571-.542-.633 0-1.166.18-1.598.542-.426.361-.749.852-.968 1.474-.213.621-.319 1.328-.319 2.121 0 .794.106 1.501.319 2.122.219.622.542 1.113.968 1.474.432.355.965.533 1.598.533zm12.935-5.22V106h-3.782V92.364h3.604v2.405h.16a3.806 3.806 0 0 1 1.518-1.882c.71-.467 1.572-.7 2.584-.7.947 0 1.772.206 2.477.62.704.415 1.251 1.007 1.642 1.776.391.764.586 1.675.586 2.734V106h-3.782v-8.008c.006-.834-.207-1.485-.639-1.953-.432-.473-1.027-.71-1.785-.71-.509 0-.958.11-1.349.328a2.289 2.289 0 0 0-.906.96c-.213.413-.322.913-.328 1.5z" fill="#393939"/>
        <path fill="#E7E7E7" d="M143 172h1148v1H143z"/>
        <circle cx="169" cy="367" r="10" fill="#B1B1B1"/>
        <path d="M166.173 363.454h2.641c1.049 0 1.862.306 2.442.918.583.609.874 1.467.874 2.573 0 1.13-.29 2.006-.869 2.627-.576.619-1.392.928-2.447.928h-2.641v-7.046zm1.26 1.089v4.868h1.215c.704 0 1.246-.211 1.626-.635.381-.423.572-1.027.572-1.811 0-.768-.194-1.364-.581-1.787-.384-.423-.923-.635-1.617-.635h-1.215z" fill="#fff"/>
        <circle cx="169" cy="408" r="10" fill="#B8ACF9"/>
        <path d="M166.568 404.454h2.842c.703 0 1.273.22 1.709.659.44.44.659 1.014.659 1.724 0 .697-.226 1.263-.678 1.699-.45.436-1.031.654-1.744.654h-1.528v2.31h-1.26v-7.046zm1.26 1.055v2.637h1.245c.453 0 .803-.114 1.05-.342.251-.228.376-.55.376-.967 0-.43-.124-.759-.371-.986-.244-.228-.594-.342-1.05-.342h-1.25z" fill="#fff"/>
        <path d="M162.195 149.727v7.234c0 .802.248 1.448.743 1.937.5.49 1.19.735 2.07.735.885 0 1.575-.245 2.07-.735.5-.489.75-1.135.75-1.937v-7.234h1.75v7.39c0 1.24-.414 2.242-1.242 3.008-.823.766-1.932 1.148-3.328 1.148s-2.505-.382-3.328-1.148c-.823-.766-1.235-1.768-1.235-3.008v-7.39h1.75zm9.844 5.171c0-.75.31-1.364.93-1.843.62-.485 1.411-.727 2.375-.727.958 0 1.732.211 2.32.633.589.422.925 1.008 1.008 1.758h-1.61a1.183 1.183 0 0 0-.57-.75c-.297-.183-.68-.274-1.148-.274-.474 0-.867.104-1.18.313-.312.203-.469.469-.469.797 0 .255.11.466.328.633.219.166.56.302 1.024.406l1.414.328c.818.187 1.417.466 1.797.836.385.37.578.864.578 1.484 0 .792-.331 1.435-.992 1.93-.662.495-1.505.742-2.532.742-1.01 0-1.828-.213-2.453-.641a2.353 2.353 0 0 1-1.039-1.781h1.68c.109.334.32.594.633.781.312.188.719.282 1.219.282.526 0 .955-.107 1.289-.321.333-.213.5-.489.5-.828 0-.495-.417-.841-1.25-1.039l-1.485-.344c-.812-.192-1.411-.479-1.797-.859-.38-.38-.57-.885-.57-1.516zm13.805-.539c-.375-.401-.873-.601-1.492-.601-.62 0-1.131.2-1.532.601-.401.401-.625.935-.672 1.602h4.297c-.021-.672-.221-1.206-.601-1.602zm.594 4.344h1.617a2.982 2.982 0 0 1-1.266 1.805c-.646.437-1.453.656-2.422.656-1.219 0-2.179-.391-2.883-1.172-.698-.786-1.046-1.859-1.046-3.219 0-1.359.354-2.44 1.062-3.242.708-.802 1.661-1.203 2.859-1.203 1.183 0 2.11.38 2.782 1.141.677.76 1.015 1.81 1.015 3.148v.586h-6.008v.094c.026.75.243 1.344.649 1.781.406.438.945.656 1.617.656 1.026 0 1.701-.343 2.024-1.031zm3.734 2.297v-8.508h1.617v1.305h.125c.12-.422.393-.768.82-1.039a2.725 2.725 0 0 1 1.477-.406c.318 0 .568.023.75.07v1.656c-.203-.068-.516-.101-.938-.101-.64 0-1.164.184-1.57.554-.401.37-.601.852-.601 1.446V161h-1.68zm13.656 2.406c-1.505-1.916-2.258-4.289-2.258-7.117 0-2.828.753-5.2 2.258-7.117h1.484c-.567.729-1.044 1.766-1.429 3.109a14.433 14.433 0 0 0-.578 4c0 1.334.19 2.675.57 4.024.385 1.343.865 2.377 1.437 3.101h-1.484zm7.422-2.133c-1.12 0-2.042-.312-2.766-.937-.724-.625-1.112-1.432-1.164-2.422h1.664c.068.547.31.987.727 1.32.417.334.935.5 1.555.5.703 0 1.27-.213 1.703-.64.432-.427.648-.992.648-1.696 0-.703-.216-1.273-.648-1.71-.433-.443-.992-.665-1.68-.665-.479 0-.909.102-1.289.305-.38.203-.68.487-.898.852H207.5l.594-6.453h6.578v1.562h-5.211l-.297 3.305h.133c.531-.683 1.325-1.024 2.383-1.024 1.073 0 1.948.354 2.625 1.063.682.703 1.023 1.609 1.023 2.719 0 1.166-.377 2.112-1.133 2.836-.75.723-1.731 1.085-2.945 1.085zm7.32-12.101c1.5 1.917 2.25 4.289 2.25 7.117 0 2.828-.75 5.201-2.25 7.117h-1.484c.568-.729 1.044-1.765 1.43-3.109.385-1.349.578-2.688.578-4.016a14.47 14.47 0 0 0-.578-4c-.386-1.343-.862-2.38-1.43-3.109h1.484z" fill="#575757"/>
        <path fill="#D9D9D9" d="M413 327h212v8H413zM187 190h118v8H187zM187 297h118v8H187zM187 362h118v8H187zM187 403h118v8H187z"/>
        <circle cx="169" cy="195" r="10" fill="#D49AFF"/>
        <path d="m168.961 193.51-1.426 4.99h-1.186l-1.89-7.046h1.313l1.207 5.244h.073l1.386-5.244h1.119l1.406 5.244h.068l1.206-5.244h1.304l-1.89 7.046h-1.181l-1.436-4.99h-.073z" fill="#fff"/>
        <circle cx="169" cy="195" r="10" fill="#D49AFF"/>
        <path d="m168.961 193.51-1.426 4.99h-1.186l-1.89-7.046h1.313l1.207 5.244h.073l1.386-5.244h1.119l1.406 5.244h.068l1.206-5.244h1.304l-1.89 7.046h-1.181l-1.436-4.99h-.073z" fill="#fff"/>
        <path fill="#D9D9D9" d="M413 190h212v8H413zM413 297h212v8H413zM413 363h212v8H413z"/>
        <path d="M415.414 149.727h4.414c1.104 0 2 .349 2.688 1.046.687.693 1.031 1.597 1.031 2.711 0 1.099-.352 1.995-1.055 2.688-.703.687-1.609 1.031-2.719 1.031h-2.609V161h-1.75v-11.273zm1.75 1.546v4.391h2.203c.755 0 1.341-.187 1.758-.562.422-.381.633-.92.633-1.618 0-.713-.206-1.26-.617-1.64-.412-.38-1.003-.571-1.774-.571h-2.203zm13.195 3.086c-.375-.401-.872-.601-1.492-.601s-1.13.2-1.531.601c-.401.401-.625.935-.672 1.602h4.297c-.021-.672-.221-1.206-.602-1.602zm.594 4.344h1.617a2.976 2.976 0 0 1-1.265 1.805c-.646.437-1.453.656-2.422.656-1.219 0-2.18-.391-2.883-1.172-.698-.786-1.047-1.859-1.047-3.219 0-1.359.354-2.44 1.063-3.242.708-.802 1.661-1.203 2.859-1.203 1.182 0 2.109.38 2.781 1.141.677.76 1.016 1.81 1.016 3.148v.586h-6.008v.094c.026.75.242 1.344.648 1.781.407.438.946.656 1.618.656 1.026 0 1.7-.343 2.023-1.031zm3.735 2.297v-8.508h1.617v1.305h.125c.119-.422.393-.768.82-1.039a2.72 2.72 0 0 1 1.477-.406c.317 0 .567.023.75.07v1.656c-.204-.068-.516-.101-.938-.101-.641 0-1.164.184-1.57.554-.401.37-.602.852-.602 1.446V161h-1.679zm6.531 0v-8.508h1.617v1.367h.125c.187-.484.487-.859.898-1.125.417-.27.907-.406 1.469-.406.568 0 1.052.136 1.453.406.401.271.698.646.891 1.125h.133a2.533 2.533 0 0 1 1.015-1.117 3.012 3.012 0 0 1 1.571-.414c.859 0 1.526.248 2 .742.479.495.718 1.185.718 2.071V161h-1.679v-5.422c0-1.14-.55-1.711-1.649-1.711-.536 0-.971.169-1.304.508-.329.339-.493.763-.493 1.273V161h-1.648v-5.586c0-.479-.148-.857-.445-1.133-.297-.276-.696-.414-1.196-.414-.51 0-.937.185-1.281.555-.344.37-.516.828-.516 1.375V161h-1.679zm14.281 0v-8.508h1.672V161H455.5zm1.609-10.289c-.203.193-.461.289-.773.289-.313 0-.573-.096-.781-.289a.986.986 0 0 1-.305-.734c0-.292.102-.537.305-.735.208-.198.468-.297.781-.297.312 0 .57.099.773.297a.971.971 0 0 1 .313.735.97.97 0 0 1-.313.734zm2.336 4.187c0-.75.31-1.364.93-1.843.62-.485 1.411-.727 2.375-.727.958 0 1.732.211 2.32.633.589.422.925 1.008 1.008 1.758h-1.609a1.182 1.182 0 0 0-.571-.75c-.296-.183-.679-.274-1.148-.274-.474 0-.867.104-1.18.313-.312.203-.468.469-.468.797 0 .255.109.466.328.633.218.166.56.302 1.023.406l1.414.328c.818.187 1.417.466 1.797.836.385.37.578.864.578 1.484 0 .792-.331 1.435-.992 1.93-.661.495-1.505.742-2.531.742-1.011 0-1.828-.213-2.453-.641a2.347 2.347 0 0 1-1.039-1.781h1.679c.11.334.321.594.633.781.313.188.719.282 1.219.282.526 0 .956-.107 1.289-.321.333-.213.5-.489.5-.828 0-.495-.417-.841-1.25-1.039l-1.485-.344c-.812-.192-1.411-.479-1.796-.859-.381-.38-.571-.885-.571-1.516zm8.469 0c0-.75.31-1.364.93-1.843.62-.485 1.411-.727 2.375-.727.958 0 1.732.211 2.32.633.589.422.925 1.008 1.008 1.758h-1.609a1.188 1.188 0 0 0-.571-.75c-.297-.183-.679-.274-1.148-.274-.474 0-.867.104-1.18.313-.312.203-.469.469-.469.797 0 .255.11.466.328.633.219.166.56.302 1.024.406l1.414.328c.818.187 1.417.466 1.797.836.385.37.578.864.578 1.484 0 .792-.331 1.435-.992 1.93-.662.495-1.505.742-2.531.742-1.011 0-1.829-.213-2.454-.641a2.353 2.353 0 0 1-1.039-1.781h1.68c.109.334.32.594.633.781.312.188.719.282 1.219.282.526 0 .955-.107 1.289-.321.333-.213.5-.489.5-.828 0-.495-.417-.841-1.25-1.039l-1.485-.344c-.812-.192-1.411-.479-1.797-.859-.38-.38-.57-.885-.57-1.516zm8.852 6.102v-8.508h1.672V161h-1.672zm1.609-10.289c-.203.193-.461.289-.773.289-.313 0-.573-.096-.782-.289a.985.985 0 0 1-.304-.734c0-.292.101-.537.304-.735.209-.198.469-.297.782-.297.312 0 .57.099.773.297a.975.975 0 0 1 .313.735.974.974 0 0 1-.313.734zm6.125 10.453c-1.25 0-2.232-.393-2.945-1.18-.714-.786-1.071-1.867-1.071-3.242 0-1.37.357-2.448 1.071-3.234.718-.787 1.7-1.18 2.945-1.18 1.24 0 2.216.393 2.93 1.18.718.786 1.078 1.864 1.078 3.234 0 1.375-.357 2.456-1.07 3.242-.714.787-1.693 1.18-2.938 1.18zm0-1.492c.724 0 1.284-.255 1.68-.766.401-.515.601-1.237.601-2.164 0-.922-.2-1.638-.601-2.148-.396-.516-.956-.774-1.68-.774-.729 0-1.292.256-1.688.766-.395.51-.593 1.229-.593 2.156 0 .932.198 1.654.593 2.164.396.511.959.766 1.688.766zm6.031 1.328v-8.508h1.617v1.352h.125c.443-1.011 1.289-1.516 2.539-1.516.948 0 1.675.274 2.18.82.511.547.766 1.329.766 2.344V161h-1.68v-5.086c0-1.365-.612-2.047-1.836-2.047-.62 0-1.114.195-1.484.586-.365.386-.547.909-.547 1.57V161h-1.68zm23.781-4.461c0 1.443-.442 2.594-1.328 3.453-.88.854-2.06 1.281-3.539 1.281-1.599 0-2.867-.531-3.804-1.593-.938-1.063-1.407-2.503-1.407-4.321 0-1.797.472-3.229 1.414-4.297.943-1.072 2.204-1.609 3.782-1.609 1.281 0 2.354.339 3.218 1.016.865.672 1.394 1.578 1.586 2.719h-1.757c-.219-.683-.589-1.204-1.11-1.563-.521-.359-1.166-.539-1.937-.539-1.042 0-1.87.385-2.485 1.156-.614.766-.922 1.8-.922 3.102 0 1.328.308 2.377.922 3.148.62.766 1.461 1.149 2.524 1.149.922 0 1.672-.258 2.25-.774.578-.515.87-1.19.875-2.023v-.242h-2.906v-1.469h4.624v1.406zm2.219 4.461v-8.508h1.617v1.305h.125c.12-.422.394-.768.821-1.039a2.719 2.719 0 0 1 1.476-.406c.318 0 .568.023.75.07v1.656c-.203-.068-.515-.101-.937-.101-.641 0-1.164.184-1.571.554-.401.37-.601.852-.601 1.446V161h-1.68zm9.781.164c-1.25 0-2.231-.393-2.945-1.18-.713-.786-1.07-1.867-1.07-3.242 0-1.37.357-2.448 1.07-3.234.719-.787 1.701-1.18 2.945-1.18 1.24 0 2.217.393 2.93 1.18.719.786 1.078 1.864 1.078 3.234 0 1.375-.356 2.456-1.07 3.242-.714.787-1.693 1.18-2.938 1.18zm0-1.492c.724 0 1.284-.255 1.68-.766.401-.515.602-1.237.602-2.164 0-.922-.201-1.638-.602-2.148-.396-.516-.956-.774-1.68-.774-.729 0-1.291.256-1.687.766-.396.51-.594 1.229-.594 2.156 0 .932.198 1.654.594 2.164.396.511.958.766 1.687.766zm13.204-7.18V161h-1.618v-1.352h-.132c-.433 1.011-1.289 1.516-2.571 1.516-.937 0-1.661-.273-2.172-.82-.505-.547-.757-1.323-.757-2.328v-5.524h1.679v5.086c0 .693.144 1.206.43 1.539.292.328.745.492 1.359.492.672 0 1.19-.187 1.555-.562.365-.38.547-.906.547-1.578v-4.977h1.68zm6.851-.14c1.084 0 1.943.395 2.578 1.187.636.787.953 1.854.953 3.203 0 1.349-.317 2.419-.953 3.211-.63.792-1.484 1.188-2.562 1.188-.604 0-1.136-.125-1.594-.375a2.443 2.443 0 0 1-1.023-1.055h-.133v4.117h-1.68v-11.336h1.617v1.406h.125c.256-.484.62-.862 1.094-1.132.474-.276 1-.414 1.578-.414zm-.476 7.281c.713 0 1.27-.255 1.671-.766.407-.515.61-1.224.61-2.125s-.203-1.607-.61-2.117c-.401-.51-.955-.766-1.664-.766-.708 0-1.268.261-1.679.782-.412.515-.617 1.218-.617 2.109 0 .885.205 1.589.617 2.109.411.516.969.774 1.672.774zm5.836-4.735c0-.75.309-1.364.929-1.843.62-.485 1.412-.727 2.375-.727.959 0 1.732.211 2.321.633.588.422.924 1.008 1.007 1.758h-1.609a1.183 1.183 0 0 0-.57-.75c-.297-.183-.68-.274-1.149-.274-.474 0-.867.104-1.179.313-.313.203-.469.469-.469.797 0 .255.109.466.328.633.219.166.56.302 1.023.406l1.414.328c.818.187 1.417.466 1.797.836.386.37.578.864.578 1.484 0 .792-.33 1.435-.992 1.93-.661.495-1.505.742-2.531.742-1.01 0-1.828-.213-2.453-.641-.62-.432-.966-1.026-1.039-1.781h1.68c.109.334.32.594.632.781.313.188.719.282 1.219.282.526 0 .956-.107 1.289-.321.333-.213.5-.489.5-.828 0-.495-.417-.841-1.25-1.039l-1.484-.344c-.813-.192-1.412-.479-1.797-.859-.38-.38-.57-.885-.57-1.516z" fill="#575757"/>
        <path fill="#D9D9D9" d="M413 404h212v8H413z"/>
        <g filter="url(#s4ln512kkb)">
            <path fill="#fff" d="M74 221h733v52H74z"/>
        </g>
        <path d="M120.028 251v-6.843h1.041v1.079h.102c.156-.381.4-.675.73-.882.33-.212.724-.317 1.181-.317.448 0 .833.108 1.155.323.326.216.571.508.736.876h.102c.186-.368.465-.66.838-.876a2.465 2.465 0 0 1 1.256-.323c.699 0 1.236.194 1.613.584.376.385.565.935.565 1.65V251h-1.092v-4.475c0-1.003-.48-1.504-1.441-1.504-.466 0-.846.152-1.143.457a1.549 1.549 0 0 0-.444 1.123V251h-1.092v-4.646c0-.407-.131-.73-.393-.972-.258-.241-.603-.361-1.035-.361-.444 0-.821.169-1.13.507a1.775 1.775 0 0 0-.457 1.232V251h-1.092zm11.337 0v-6.843h1.092V251h-1.092zm1.086-8.455a.735.735 0 0 1-.54.222.734.734 0 0 1-.539-.222.745.745 0 0 1-.223-.54c0-.207.074-.385.223-.533a.725.725 0 0 1 .539-.228c.212 0 .392.076.54.228a.727.727 0 0 1 .222.533.748.748 0 0 1-.222.54zm3.345 4.602 2.971-2.99h1.339l-2.945 2.933 3.142 3.91h-1.39l-2.565-3.206-.654.61V251h-1.091v-9.56h1.091v5.707h.102zm8.214-2.146c-.546 0-.995.185-1.346.553-.351.368-.548.855-.59 1.46h3.77c-.012-.605-.186-1.092-.52-1.46-.335-.368-.773-.553-1.314-.553zm1.802 4.228h1.092a2.372 2.372 0 0 1-1.009 1.39c-.504.334-1.128.502-1.873.502-.947 0-1.699-.318-2.253-.953-.554-.639-.831-1.5-.831-2.583 0-1.079.279-1.94.837-2.584.559-.643 1.308-.964 2.247-.964.923 0 1.649.306 2.178.92.529.614.793 1.454.793 2.52v.419h-4.919v.051c.029.677.22 1.214.571 1.612.355.398.823.597 1.403.597.884 0 1.473-.309 1.764-.927zm7.795-3.783c-.423 0-.755.156-.996.47-.237.313-.356.746-.356 1.301 0 .55.119.984.356 1.301.241.317.569.476.984.476.436 0 .783-.161 1.041-.482.258-.322.387-.754.387-1.295 0-.542-.129-.971-.387-1.289-.254-.321-.597-.482-1.029-.482zm.223-3.555c.99 0 1.87.197 2.64.59a4.35 4.35 0 0 1 1.803 1.657c.432.707.647 1.515.647 2.425 0 1.037-.215 1.86-.647 2.469-.432.61-1.011.914-1.739.914-.373 0-.69-.099-.952-.298a1.104 1.104 0 0 1-.445-.768h-.101a1.618 1.618 0 0 1-.616.749c-.275.173-.599.26-.971.26-.66 0-1.194-.247-1.6-.743-.406-.495-.609-1.146-.609-1.955 0-.77.205-1.398.615-1.885.411-.491.942-.736 1.594-.736.334 0 .634.08.901.241.267.161.461.379.584.654h.102v-.775h.958v3.727c0 .224.062.397.184.52.127.123.305.184.533.184.398 0 .716-.233.953-.698.241-.466.361-1.09.361-1.873 0-.757-.179-1.428-.539-2.012a3.57 3.57 0 0 0-1.511-1.358c-.647-.326-1.39-.489-2.228-.489-.817 0-1.551.192-2.203.578a4.003 4.003 0 0 0-1.517 1.618c-.364.69-.546 1.469-.546 2.336 0 1.354.405 2.436 1.213 3.244.812.808 1.898 1.212 3.256 1.212.436 0 .849-.027 1.238-.082.394-.055.69-.129.889-.222v.799c-.601.208-1.314.311-2.139.311-1.638 0-2.939-.478-3.904-1.434-.965-.957-1.448-2.245-1.448-3.866 0-.774.127-1.49.381-2.145a4.882 4.882 0 0 1 1.073-1.683 4.8 4.8 0 0 1 1.657-1.079 5.739 5.739 0 0 1 2.133-.387zm8.918 8.271c.563 0 1.028-.163 1.397-.489a1.56 1.56 0 0 0 .558-1.225v-.628l-1.841.12c-.516.034-.895.142-1.136.324-.241.182-.362.447-.362.794 0 .342.129.613.387.812.259.195.591.292.997.292zm-.203.959c-.673 0-1.227-.184-1.663-.553-.432-.372-.648-.867-.648-1.485 0-.609.216-1.088.648-1.435.431-.347 1.047-.543 1.847-.59l1.974-.12v-.623c0-.423-.131-.746-.393-.971-.263-.224-.648-.336-1.156-.336-.41 0-.751.074-1.022.222a1.014 1.014 0 0 0-.52.628h-1.105c.072-.546.354-.986.845-1.32.495-.334 1.108-.501 1.84-.501.83 0 1.471.201 1.924.603.453.402.679.96.679 1.675V251h-1.041v-1.009h-.102c-.22.364-.512.643-.876.838a2.576 2.576 0 0 1-1.231.292zm8.601-7.084c.872 0 1.568.321 2.088.964.525.644.787 1.503.787 2.578 0 1.07-.262 1.929-.787 2.577-.524.643-1.22.965-2.088.965-.487 0-.918-.1-1.295-.299a1.967 1.967 0 0 1-.844-.85h-.102v3.313h-1.092v-9.128h1.041v1.143h.102c.22-.394.523-.703.908-.927a2.525 2.525 0 0 1 1.282-.336zm-.26 6.1c.626 0 1.117-.227 1.472-.679.356-.453.534-1.08.534-1.879 0-.8-.178-1.426-.534-1.879-.351-.453-.84-.679-1.466-.679-.618 0-1.109.23-1.473.691-.363.457-.545 1.08-.545 1.867 0 .782.179 1.405.539 1.866.364.461.855.692 1.473.692zm8.182-6.1c.872 0 1.568.321 2.088.964.525.644.787 1.503.787 2.578 0 1.07-.262 1.929-.787 2.577-.524.643-1.221.965-2.088.965-.487 0-.918-.1-1.295-.299a1.967 1.967 0 0 1-.844-.85h-.102v3.313h-1.092v-9.128h1.041v1.143h.102c.22-.394.523-.703.908-.927a2.523 2.523 0 0 1 1.282-.336zm-.26 6.1c.626 0 1.117-.227 1.472-.679.356-.453.533-1.08.533-1.879 0-.8-.177-1.426-.533-1.879-.351-.453-.84-.679-1.466-.679-.618 0-1.109.23-1.473.691-.364.457-.546 1.08-.546 1.867 0 .782.18 1.405.54 1.866.364.461.855.692 1.473.692zm4.691-4.107c0-.567.243-1.041.73-1.422.486-.381 1.093-.571 1.821-.571.715 0 1.306.165 1.771.495.466.33.735.776.806 1.339h-1.079a1.093 1.093 0 0 0-.507-.66c-.259-.165-.591-.248-.997-.248-.411 0-.755.096-1.035.286-.275.19-.412.436-.412.736 0 .233.095.428.285.584.195.153.495.278.902.375l1.053.254c.652.156 1.132.383 1.441.679.313.296.47.688.47 1.174 0 .605-.26 1.103-.781 1.492-.52.385-1.174.578-1.961.578-.762 0-1.386-.17-1.873-.508-.486-.339-.759-.792-.819-1.359h1.124c.093.297.277.529.552.699.275.165.627.247 1.054.247.461 0 .84-.099 1.136-.298.296-.199.445-.455.445-.768 0-.466-.362-.787-1.086-.965l-1.174-.286c-.648-.156-1.122-.381-1.422-.673-.296-.296-.444-.689-.444-1.18zm6.963 4.97v-6.843h1.041v1.079h.101c.157-.381.4-.675.73-.882.331-.212.724-.317 1.181-.317.449 0 .834.108 1.155.323.326.216.572.508.737.876h.101a2.09 2.09 0 0 1 .838-.876 2.472 2.472 0 0 1 1.257-.323c.698 0 1.236.194 1.612.584.377.385.565.935.565 1.65V251h-1.092v-4.475c0-1.003-.48-1.504-1.44-1.504-.466 0-.847.152-1.143.457a1.549 1.549 0 0 0-.444 1.123V251h-1.092v-4.646c0-.407-.131-.73-.394-.972-.258-.241-.603-.361-1.034-.361-.445 0-.821.169-1.13.507a1.775 1.775 0 0 0-.457 1.232V251h-1.092zm11.337 0v-6.843h1.092V251h-1.092zm1.085-8.455a.734.734 0 0 1-.539.222.735.735 0 0 1-.54-.222.748.748 0 0 1-.222-.54c0-.207.074-.385.222-.533a.725.725 0 0 1 .54-.228c.211 0 .391.076.539.228a.727.727 0 0 1 .222.533.748.748 0 0 1-.222.54zm2.546-.159h1.091v1.771h1.524v.914h-1.524v3.872c0 .402.081.694.242.876.161.182.419.273.774.273.157 0 .326-.008.508-.025v.92a3.696 3.696 0 0 1-.641.064c-.707 0-1.213-.142-1.517-.426-.305-.283-.457-.751-.457-1.402v-4.152h-1.105v-.914h1.105v-1.771zm4.329 8.614v-9.56h1.092v3.796h.101c.174-.385.438-.681.794-.888.359-.208.797-.311 1.314-.311.727 0 1.303.224 1.726.672.423.445.635 1.065.635 1.86V251h-1.092v-4.164c0-1.21-.527-1.815-1.58-1.815-.601 0-1.069.175-1.403.526-.33.347-.495.815-.495 1.403V251h-1.092zm8.556.063a.809.809 0 0 1-.584-.241.811.811 0 0 1-.241-.584.8.8 0 0 1 .241-.584.809.809 0 0 1 .584-.241c.229 0 .424.08.584.241a.797.797 0 0 1 .242.584.808.808 0 0 1-.242.584.792.792 0 0 1-.584.241zm8.367-4.811h-1.105a1.552 1.552 0 0 0-.603-.882c-.305-.233-.692-.349-1.162-.349-.613 0-1.102.228-1.466.685-.36.457-.539 1.073-.539 1.847 0 .787.182 1.416.546 1.885.363.466.85.699 1.459.699.462 0 .845-.104 1.149-.311.309-.208.515-.504.616-.889h1.105a2.455 2.455 0 0 1-.908 1.581c-.504.402-1.155.603-1.955.603-.961 0-1.725-.322-2.292-.965-.567-.648-.85-1.515-.85-2.603 0-1.066.283-1.919.85-2.558.567-.639 1.329-.958 2.285-.958.8 0 1.452.209 1.956.628.507.419.812.948.914 1.587zm6.728 3.923c-.563.63-1.331.946-2.304.946-.973 0-1.744-.316-2.311-.946-.562-.635-.844-1.5-.844-2.596 0-1.101.282-1.966.844-2.597.563-.63 1.333-.945 2.311-.945.977 0 1.748.315 2.311.945.562.631.844 1.496.844 2.597 0 1.096-.284 1.961-.851 2.596zm-3.802-.705c.351.445.85.667 1.498.667.647 0 1.147-.222 1.498-.667.351-.448.527-1.079.527-1.891 0-.813-.176-1.441-.527-1.886-.351-.448-.851-.672-1.498-.672-.648 0-1.147.224-1.498.672-.351.445-.527 1.073-.527 1.886 0 .812.176 1.443.527 1.891zm6.367 1.53v-6.843h1.041v1.079h.101c.157-.381.4-.675.73-.882.33-.212.724-.317 1.181-.317.448 0 .833.108 1.155.323.326.216.571.508.736.876h.102c.186-.368.465-.66.838-.876a2.466 2.466 0 0 1 1.257-.323c.698 0 1.235.194 1.612.584.377.385.565.935.565 1.65V251h-1.092v-4.475c0-1.003-.48-1.504-1.441-1.504-.465 0-.846.152-1.142.457a1.546 1.546 0 0 0-.445 1.123V251h-1.091v-4.646c0-.407-.132-.73-.394-.972-.258-.241-.603-.361-1.035-.361-.444 0-.821.169-1.13.507a1.78 1.78 0 0 0-.457 1.232V251h-1.091z" fill="#393939"/>
        <circle cx="101" cy="246" r="10" fill="#87B3FE"/>
        <path d="M104.638 249.5h-1.172v-4.956h-.069l-1.948 4.683h-.898l-1.948-4.683h-.069v4.956h-1.172v-7.046h1.475l2.119 5.132h.088l2.119-5.132h1.475v7.046z" fill="#fff"/>
        <path d="M349.787 252.123c-.948 0-1.7-.346-2.256-1.039-.556-.693-.834-1.629-.834-2.81 0-1.175.278-2.11.834-2.802.561-.693 1.313-1.039 2.256-1.039.511 0 .969.116 1.374.348.406.228.709.547.909.957h.11v-4.088h1.469V252h-1.408v-1.176h-.116a2.408 2.408 0 0 1-.957.957c-.41.228-.87.342-1.381.342zm.417-6.371c-.62 0-1.107.226-1.463.677-.351.446-.526 1.062-.526 1.845 0 .789.175 1.409.526 1.86.356.446.843.67 1.463.67.62 0 1.108-.226 1.463-.677.36-.451.54-1.066.54-1.846 0-.774-.18-1.39-.54-1.845-.36-.456-.848-.684-1.463-.684zm8.087 5.134c.551 0 1.009-.155 1.374-.465.369-.31.554-.697.554-1.162v-.622l-1.819.116c-.51.032-.886.137-1.128.314-.241.178-.362.431-.362.759s.128.588.383.779c.255.187.588.281.998.281zm-.376 1.237c-.729 0-1.326-.203-1.791-.608-.46-.411-.69-.951-.69-1.62 0-.666.239-1.188.717-1.566.479-.383 1.162-.601 2.051-.656l2.017-.116v-.643c0-.396-.13-.699-.39-.909-.26-.214-.638-.321-1.135-.321-.41 0-.752.073-1.025.218a1.014 1.014 0 0 0-.526.609h-1.422c.073-.638.385-1.146.936-1.525.556-.382 1.258-.574 2.106-.574.929 0 1.647.221 2.153.663.51.438.766 1.051.766 1.839V252h-1.415v-1.046h-.117a2.288 2.288 0 0 1-.922.868 2.81 2.81 0 0 1-1.313.301zm6.378-9.42h1.47v1.887h1.613v1.237h-1.613v3.828c0 .388.084.672.253.855.168.178.435.266.799.266.146 0 .333-.011.561-.034v1.224c-.292.05-.558.075-.8.075-.816 0-1.401-.155-1.757-.465-.351-.31-.526-.825-.526-1.545v-4.204h-1.183v-1.237h1.183v-1.887zm7.246 8.183c.551 0 1.01-.155 1.374-.465.369-.31.554-.697.554-1.162v-.622l-1.819.116c-.51.032-.886.137-1.127.314-.242.178-.363.431-.363.759s.128.588.383.779c.255.187.588.281.998.281zm-.376 1.237c-.729 0-1.326-.203-1.791-.608-.46-.411-.69-.951-.69-1.62 0-.666.239-1.188.717-1.566.479-.383 1.163-.601 2.051-.656l2.017-.116v-.643c0-.396-.13-.699-.39-.909-.26-.214-.638-.321-1.135-.321-.41 0-.752.073-1.025.218a1.014 1.014 0 0 0-.526.609h-1.422c.073-.638.385-1.146.936-1.525.556-.382 1.258-.574 2.106-.574.929 0 1.647.221 2.153.663.51.438.766 1.051.766 1.839V252h-1.415v-1.046h-.117c-.223.374-.53.663-.922.868a2.81 2.81 0 0 1-1.313.301zm5.858-.123v-7.444h1.416v1.196h.109c.164-.424.426-.752.786-.984.365-.237.793-.356 1.285-.356.497 0 .921.119 1.272.356a2.1 2.1 0 0 1 .779.984h.116c.192-.41.488-.736.889-.978a2.635 2.635 0 0 1 1.374-.362c.752 0 1.335.217 1.75.65.419.432.629 1.036.629 1.811V252h-1.47v-4.744c0-.998-.481-1.497-1.442-1.497-.47 0-.85.148-1.142.444-.287.296-.431.668-.431 1.114V252h-1.442v-4.888c0-.419-.13-.749-.39-.991-.259-.241-.608-.362-1.046-.362-.446 0-.82.162-1.121.485-.3.324-.451.725-.451 1.203V252h-1.47zm12.497 0v-7.444h1.462V252h-1.462zm1.408-9.003a.944.944 0 0 1-.677.253.97.97 0 0 1-.684-.253.863.863 0 0 1-.266-.643c0-.255.089-.469.266-.642a.957.957 0 0 1 .684-.26c.273 0 .499.087.677.26a.85.85 0 0 1 .273.642.85.85 0 0 1-.273.643zm4.997 6.364h-.11L394.187 252h-1.614l2.468-3.705-2.488-3.739h1.716l1.599 2.625h.116l1.586-2.625h1.634l-2.454 3.677 2.481 3.767h-1.688l-1.62-2.639zm8.723-4.928c.947 0 1.699.346 2.255 1.039.556.688.834 1.622.834 2.802 0 1.181-.278 2.117-.834 2.81-.551.693-1.298 1.039-2.242 1.039-.528 0-.993-.109-1.394-.328a2.132 2.132 0 0 1-.896-.923h-.116v3.603h-1.47v-9.919h1.415v1.23h.11a2.41 2.41 0 0 1 .957-.991 2.687 2.687 0 0 1 1.381-.362zm-.417 6.371c.624 0 1.111-.224 1.462-.67.356-.451.534-1.071.534-1.86 0-.788-.178-1.406-.534-1.852-.351-.447-.836-.67-1.456-.67-.619 0-1.109.228-1.469.684-.36.451-.54 1.066-.54 1.845 0 .775.18 1.39.54 1.846.36.451.847.677 1.463.677zm7.71.082c.552 0 1.01-.155 1.374-.465.37-.31.554-.697.554-1.162v-.622l-1.818.116c-.511.032-.887.137-1.128.314-.242.178-.362.431-.362.759s.127.588.382.779c.256.187.588.281.998.281zm-.376 1.237c-.729 0-1.326-.203-1.791-.608-.46-.411-.69-.951-.69-1.62 0-.666.239-1.188.718-1.566.478-.383 1.162-.601 2.051-.656l2.016-.116v-.643c0-.396-.13-.699-.389-.909-.26-.214-.638-.321-1.135-.321-.41 0-.752.073-1.026.218a1.017 1.017 0 0 0-.526.609h-1.422c.073-.638.385-1.146.937-1.525.556-.382 1.257-.574 2.105-.574.93 0 1.648.221 2.153.663.511.438.766 1.051.766 1.839V252h-1.415v-1.046h-.116a2.285 2.285 0 0 1-.923.868 2.807 2.807 0 0 1-1.313.301zm5.859-.123v-7.444h1.415v1.182h.109c.388-.884 1.128-1.326 2.222-1.326.829 0 1.465.239 1.907.718.447.478.67 1.162.67 2.051V252h-1.47v-4.45c0-1.194-.535-1.791-1.606-1.791-.542 0-.975.171-1.299.512-.319.338-.478.796-.478 1.375V252h-1.47zm12.756-5.811c-.328-.35-.764-.526-1.306-.526s-.989.176-1.34.526c-.351.351-.547.818-.588 1.402h3.76c-.018-.588-.194-1.055-.526-1.402zm.519 3.801h1.415a2.6 2.6 0 0 1-1.107 1.579c-.565.383-1.272.575-2.119.575-1.067 0-1.907-.342-2.523-1.026-.61-.688-.916-1.627-.916-2.816 0-1.19.31-2.135.93-2.837.62-.702 1.454-1.053 2.502-1.053 1.034 0 1.846.333 2.433.998.593.666.889 1.584.889 2.755v.513h-5.257v.082c.023.656.212 1.176.568 1.558.355.383.827.575 1.415.575.898 0 1.488-.301 1.77-.903zm3.336 2.01v-10.35h1.47V252h-1.47zm6.043 0v-8.217h-.116l-2.475 1.75v-1.565l2.598-1.832h1.524V252h-1.531zm4.99 2.577h-1.039l.636-4.054h1.538l-1.135 4.054zM453.211 252.144c-1.094 0-1.953-.345-2.577-1.033-.625-.688-.937-1.633-.937-2.837 0-1.198.312-2.142.937-2.83.629-.688 1.488-1.032 2.577-1.032 1.085 0 1.939.344 2.563 1.032.629.688.944 1.632.944 2.83 0 1.204-.312 2.149-.937 2.837-.624.688-1.481 1.033-2.57 1.033zm0-1.306c.633 0 1.123-.223 1.47-.67.351-.451.526-1.082.526-1.894 0-.806-.175-1.433-.526-1.879-.347-.452-.837-.677-1.47-.677-.638 0-1.13.223-1.477.67-.346.446-.519 1.075-.519 1.886 0 .816.173 1.447.519 1.894.347.447.839.67 1.477.67zm11.553-6.282V252h-1.415v-1.183h-.117c-.378.884-1.128 1.327-2.249 1.327-.82 0-1.453-.24-1.9-.718-.442-.479-.663-1.158-.663-2.037v-4.833h1.47v4.45c0 .606.125 1.055.376 1.347.255.287.651.43 1.189.43.588 0 1.041-.164 1.36-.492.319-.333.479-.793.479-1.381v-4.354h1.47zm2.652-1.853h1.47v1.887h1.613v1.237h-1.613v3.828c0 .388.084.672.253.855.168.178.435.266.799.266.146 0 .333-.011.561-.034v1.224c-.292.05-.558.075-.8.075-.816 0-1.401-.155-1.757-.465-.351-.31-.526-.825-.526-1.545v-4.204h-1.183v-1.237h1.183v-1.887zm4.881 9.297v-10.35h1.47V252h-1.47zm3.705 0v-7.444h1.463V252h-1.463zm1.408-9.003a.942.942 0 0 1-.677.253.965.965 0 0 1-.683-.253.86.86 0 0 1-.267-.643.86.86 0 0 1 .267-.642.953.953 0 0 1 .683-.26.93.93 0 0 1 .677.26.851.851 0 0 1 .274.642c0 .256-.092.47-.274.643zm2.215 9.003v-7.444h1.415v1.182h.109c.388-.884 1.128-1.326 2.222-1.326.83 0 1.465.239 1.907.718.447.478.67 1.162.67 2.051V252h-1.469v-4.45c0-1.194-.536-1.791-1.607-1.791-.542 0-.975.171-1.299.512-.319.338-.478.796-.478 1.375V252h-1.47zm12.756-5.811c-.328-.35-.763-.526-1.306-.526-.542 0-.989.176-1.34.526-.351.351-.547.818-.588 1.402h3.76c-.018-.588-.193-1.055-.526-1.402zm.519 3.801h1.415a2.6 2.6 0 0 1-1.107 1.579c-.565.383-1.271.575-2.119.575-1.067 0-1.907-.342-2.523-1.026-.61-.688-.916-1.627-.916-2.816 0-1.19.31-2.135.93-2.837.62-.702 1.454-1.053 2.502-1.053 1.035 0 1.846.333 2.434.998.592.666.888 1.584.888 2.755v.513h-5.257v.082c.023.656.212 1.176.568 1.558.355.383.827.575 1.415.575.898 0 1.488-.301 1.77-.903zm9.817 2.133c-.948 0-1.7-.346-2.256-1.039-.556-.693-.834-1.629-.834-2.81 0-1.175.278-2.11.834-2.802.56-.693 1.312-1.039 2.256-1.039.51 0 .968.116 1.374.348.405.228.708.547.909.957h.109v-4.088h1.47V252h-1.408v-1.176h-.116a2.42 2.42 0 0 1-.957.957c-.41.228-.871.342-1.381.342zm.417-6.371c-.62 0-1.108.226-1.463.677-.351.446-.526 1.062-.526 1.845 0 .789.175 1.409.526 1.86.355.446.843.67 1.463.67.62 0 1.107-.226 1.463-.677.36-.451.54-1.066.54-1.846 0-.774-.18-1.39-.54-1.845-.36-.456-.848-.684-1.463-.684zm10.014.437c-.328-.35-.763-.526-1.305-.526-.543 0-.989.176-1.34.526-.351.351-.547.818-.588 1.402h3.76c-.018-.588-.194-1.055-.527-1.402zm.52 3.801h1.415a2.607 2.607 0 0 1-1.107 1.579c-.566.383-1.272.575-2.12.575-1.066 0-1.907-.342-2.522-1.026-.611-.688-.916-1.627-.916-2.816 0-1.19.31-2.135.93-2.837.619-.702 1.453-1.053 2.502-1.053 1.034 0 1.845.333 2.433.998.593.666.889 1.584.889 2.755v.513h-5.257v.082c.023.656.212 1.176.567 1.558.356.383.828.575 1.415.575.898 0 1.488-.301 1.771-.903zm3.097-3.329c0-.656.271-1.194.813-1.613.542-.424 1.235-.636 2.078-.636.839 0 1.516.185 2.031.554.514.369.808.882.881 1.538h-1.408a1.035 1.035 0 0 0-.499-.656c-.26-.16-.595-.24-1.005-.24-.414 0-.759.092-1.032.274-.273.178-.41.41-.41.697 0 .223.096.408.287.554.191.146.49.264.895.355l1.238.287c.715.164 1.239.408 1.572.732.337.323.506.756.506 1.299 0 .692-.289 1.255-.868 1.688-.579.433-1.317.65-2.215.65-.884 0-1.6-.187-2.147-.561a2.058 2.058 0 0 1-.909-1.559h1.47c.096.292.28.52.554.684.273.164.629.246 1.066.246.46 0 .836-.093 1.128-.28.292-.187.438-.429.438-.725 0-.433-.365-.736-1.094-.909l-1.299-.301c-.711-.168-1.235-.419-1.572-.752-.333-.332-.499-.774-.499-1.326zM524.51 252v-7.444h1.463V252h-1.463zm1.408-9.003a.942.942 0 0 1-.677.253.965.965 0 0 1-.683-.253.86.86 0 0 1-.267-.643.86.86 0 0 1 .267-.642.953.953 0 0 1 .683-.26.93.93 0 0 1 .677.26.85.85 0 0 1 .273.642.85.85 0 0 1-.273.643zm3.876 6.973c.346.433.832.649 1.456.649s1.117-.219 1.477-.656c.36-.438.54-1.03.54-1.777 0-.743-.18-1.333-.54-1.771-.36-.442-.853-.663-1.477-.663-.624 0-1.11.219-1.456.656-.346.433-.52 1.026-.52 1.778s.174 1.346.52 1.784zm1.477 4.874c-.921 0-1.668-.192-2.243-.574-.574-.379-.9-.887-.977-1.525h1.504c.063.274.246.49.547.65.305.159.701.239 1.189.239.611 0 1.087-.139 1.429-.417.346-.274.519-.656.519-1.149v-1.428h-.109a2.329 2.329 0 0 1-.93.929c-.396.215-.852.322-1.367.322-.943 0-1.693-.335-2.249-1.005-.551-.675-.827-1.573-.827-2.694 0-1.139.278-2.05.834-2.734.556-.684 1.308-1.025 2.256-1.025.51 0 .975.118 1.394.355.419.233.734.552.944.957h.116v-1.189h1.408v7.506c0 .852-.31 1.528-.93 2.03-.619.501-1.456.752-2.508.752zm5.571-2.844v-7.444h1.415v1.182h.109c.388-.884 1.128-1.326 2.222-1.326.829 0 1.465.239 1.907.718.447.478.67 1.162.67 2.051V252h-1.47v-4.45c0-1.194-.535-1.791-1.606-1.791-.542 0-.975.171-1.299.512-.319.338-.478.796-.478 1.375V252h-1.47zm18.498-7.444V252h-1.415v-1.183h-.116c-.379.884-1.128 1.327-2.249 1.327-.821 0-1.454-.24-1.901-.718-.442-.479-.663-1.158-.663-2.037v-4.833h1.47v4.45c0 .606.125 1.055.376 1.347.255.287.651.43 1.189.43.588 0 1.042-.164 1.361-.492.319-.333.478-.793.478-1.381v-4.354h1.47zm3.787 3.103 2.953-3.103h1.736l-3.062 3.192 3.267 4.252h-1.804l-2.557-3.281-.649.615V252h-1.47v-10.35h1.47v6.009h.116z" fill="#393939"/>
    </g>
    <defs>
        <filter id="1rr8f0joda" x="0" y="0" width="1365" height="619" filterUnits="userSpaceOnUse" color-interpolation-filters="sRGB">
            <feFlood flood-opacity="0" result="BackgroundImageFix"/>
            <feColorMatrix in="SourceAlpha" values="0 0 0 0 0 0 0 0 0 0 0 0 0 0 0 0 0 0 127 0" result="hardAlpha"/>
            <feOffset dy="24"/>
            <feGaussianBlur stdDeviation="37"/>
            <feComposite in2="hardAlpha" operator="out"/>
            <feColorMatrix values="0 0 0 0 0 0 0 0 0 0 0 0 0 0 0 0 0 0 0.1 0"/>
            <feBlend in2="BackgroundImageFix" result="effect1_dropShadow_7268_104263"/>
            <feBlend in="SourceGraphic" in2="effect1_dropShadow_7268_104263" result="shape"/>
        </filter>
        <filter id="s4ln512kkb" x="10" y="181" width="861" height="180" filterUnits="userSpaceOnUse" color-interpolation-filters="sRGB">
            <feFlood flood-opacity="0" result="BackgroundImageFix"/>
            <feColorMatrix in="SourceAlpha" values="0 0 0 0 0 0 0 0 0 0 0 0 0 0 0 0 0 0 127 0" result="hardAlpha"/>
            <feOffset dy="24"/>
            <feGaussianBlur stdDeviation="32"/>
            <feComposite in2="hardAlpha" operator="out"/>
            <feColorMatrix values="0 0 0 0 0 0 0 0 0 0 0 0 0 0 0 0 0 0 0.13 0"/>
            <feBlend in2="BackgroundImageFix" result="effect1_dropShadow_7268_104263"/>
            <feBlend in="SourceGraphic" in2="effect1_dropShadow_7268_104263" result="shape"/>
        </filter>
    </defs>
</svg>
