<svg width="701" height="473" viewBox="0 0 701 473" fill="none" xmlns="http://www.w3.org/2000/svg">
    <path fill="#fff" d="M104 0h598v471H104z"/>
    <path fill="#fff" d="M222 331h1055v24H222z"/>
    <g clip-path="url(#ho8q0f4jha)">
        <path d="m154 187.781 3.3-3.3.943.943-4.243 4.243-4.243-4.243.943-.943 3.3 3.3z" fill="#575757"/>
    </g>
    <g clip-path="url(#44i67z6lpb)">
        <path d="m186 224.781 3.3-3.3.943.943-4.243 4.243-4.243-4.243.943-.943 3.3 3.3z" fill="#575757"/>
    </g>
    <g clip-path="url(#to2t6g4rbc)">
        <path d="m214 264.781 3.3-3.3.943.943-4.243 4.243-4.243-4.243.943-.943 3.3 3.3z" fill="#575757"/>
    </g>
    <g clip-path="url(#tmbdhj6hgd)">
        <path d="m185.781 384-3.3-3.3.943-.943 4.243 4.243-4.243 4.243-.943-.943 3.3-3.3z" fill="#575757"/>
    </g>
    <g clip-path="url(#nn978hyzre)">
        <path d="m186.781 423-3.3-3.3.943-.943 4.243 4.243-4.243 4.243-.943-.943 3.3-3.3z" fill="#575757"/>
    </g>
    <g clip-path="url(#ok5jyj2m0f)">
        <path d="m186.781 465-3.3-3.3.943-.943 4.243 4.243-4.243 4.243-.943-.943 3.3-3.3z" fill="#575757"/>
    </g>
    <g clip-path="url(#gt6swrn0pg)">
        <path d="M205.333 381.333v8h9.334v-8h-9.334zm0-1.333h9.334v-1.333h-9.334V380zm10 10.667h-10.666A.668.668 0 0 1 204 390v-12a.665.665 0 0 1 .667-.667h10.666A.668.668 0 0 1 216 378v12a.665.665 0 0 1-.667.667zm-8.666-8h2.666v2.666h-2.666v-2.666zm0 4h6.666V388h-6.666v-1.333zm4-3.334h2.666v1.334h-2.666v-1.334z" fill="#575757"/>
    </g>
    <g clip-path="url(#eaeva2ae1h)">
        <path d="M205.333 421.333v8h9.334v-8h-9.334zm0-1.333h9.334v-1.333h-9.334V420zm10 10.667h-10.666A.668.668 0 0 1 204 430v-12a.665.665 0 0 1 .667-.667h10.666A.668.668 0 0 1 216 418v12a.665.665 0 0 1-.667.667zm-8.666-8h2.666v2.666h-2.666v-2.666zm0 4h6.666V428h-6.666v-1.333zm4-3.334h2.666v1.334h-2.666v-1.334z" fill="#575757"/>
    </g>
    <g clip-path="url(#3m0i95r4zi)">
        <path d="M205.333 461.333v8h9.334v-8h-9.334zm0-1.333h9.334v-1.333h-9.334V460zm10 10.667h-10.666A.668.668 0 0 1 204 470v-12a.665.665 0 0 1 .667-.667h10.666A.668.668 0 0 1 216 458v12a.665.665 0 0 1-.667.667zm-8.666-8h2.666v2.666h-2.666v-2.666zm0 4h6.666V468h-6.666v-1.333zm4-3.334h2.666v1.334h-2.666v-1.334z" fill="#575757"/>
    </g>
    <g clip-path="url(#d85ofuarcj)">
        <path d="M246.667 270h-9.334a.665.665 0 0 1-.666-.667v-6h-2l6.884-6.258a.667.667 0 0 1 .898 0l6.884 6.258h-2v6a.668.668 0 0 1-.666.667zM238 268.667h8v-6.562l-4-3.636-4 3.636v6.562zm1.333-2.667h5.334v1.333h-5.334V266z" fill="#03B365"/>
    </g>
    <path fill="#fff" d="M231.75 294.75h21.5v12.5h-21.5z"/>
    <path d="M237.711 303.92c1.637 0 2.609-.953 2.609-2.5v-.762h-2.453v1.141h.86l-.008.058c-.059.45-.43.711-.969.711-.727 0-1.199-.57-1.199-1.593v-.004c0-1 .414-1.539 1.117-1.539.477 0 .832.226.945.601l.012.039h1.629l-.004-.039c-.113-1.121-1.176-1.953-2.59-1.953-1.734 0-2.797 1.063-2.797 2.91v.004c0 1.875 1.059 2.926 2.848 2.926zM240.977 303.818h3.976v-1.312h-2.32v-.895h2.176v-1.218h-2.176v-.899h2.32v-1.312h-3.976v5.636zM246.996 303.818h1.656v-4.324h1.485v-1.312h-4.625v1.312h1.484v4.324z" fill="#457AE6"/>
    <path stroke="#457AE6" stroke-width="1.5" d="M231.75 294.75h21.5v12.5h-21.5z"/>
    <path fill="#fff" d="M231.75 336.75h21.5v12.5h-21.5z"/>
    <path d="M237.711 345.92c1.637 0 2.609-.953 2.609-2.5v-.762h-2.453v1.141h.86l-.008.058c-.059.45-.43.711-.969.711-.727 0-1.199-.57-1.199-1.593v-.004c0-1 .414-1.539 1.117-1.539.477 0 .832.226.945.601l.012.039h1.629l-.004-.039c-.113-1.121-1.176-1.953-2.59-1.953-1.734 0-2.797 1.063-2.797 2.91v.004c0 1.875 1.059 2.926 2.848 2.926zM240.977 345.818h3.976v-1.312h-2.32v-.895h2.176v-1.218h-2.176v-.899h2.32v-1.312h-3.976v5.636zM246.996 345.818h1.656v-4.324h1.485v-1.312h-4.625v1.312h1.484v4.324z" fill="#457AE6"/>
    <path stroke="#457AE6" stroke-width="1.5" d="M231.75 336.75h21.5v12.5h-21.5z"/>
    <path fill="#E7E7E7" d="M154 199v273h-1V199zM186 236v136h-1V236zM215 276v79h-1v-79zM187 396v16h-1v-16zM187 436v16h-1v-16z"/>
    <path stroke="#D9D9D9" stroke-width="1.8" d="M482.9 180.9h14.2v14.2h-14.2zM482.9 216.9h14.2v14.2h-14.2zM482.9 252.9h14.2v14.2h-14.2z"/>
    <path fill="#D9D9D9" d="M482 252h16v16h-16z"/>
    <path d="m486.4 260.397 2.234 2.164 4.966-4.961" stroke="#fff" stroke-width="1.8" stroke-linecap="square"/>
    <path stroke="#D9D9D9" stroke-width="1.8" d="M482.9 372.9h14.2v14.2h-14.2zM482.9 413.9h14.2v14.2h-14.2zM482.9 454.9h14.2v14.2h-14.2zM547.9 180.9h14.2v14.2h-14.2zM547.9 216.9h14.2v14.2h-14.2zM547.9 252.9h14.2v14.2h-14.2z"/>
    <path fill="#D9D9D9" d="M547 252h16v16h-16z"/>
    <path d="m551.4 260.397 2.234 2.164 4.966-4.961" stroke="#fff" stroke-width="1.8" stroke-linecap="square"/>
    <path stroke="#D9D9D9" stroke-width="1.8" d="M547.9 296.9h14.2v14.2h-14.2zM547.9 335.9h14.2v14.2h-14.2zM547.9 372.9h14.2v14.2h-14.2zM547.9 413.9h14.2v14.2h-14.2zM547.9 454.9h14.2v14.2h-14.2zM609.9 180.9h14.2v14.2h-14.2zM609.9 216.9h14.2v14.2h-14.2zM609.9 252.9h14.2v14.2h-14.2z"/>
    <path fill="#D9D9D9" d="M609 252h16v16h-16z"/>
    <path d="m613.4 260.397 2.234 2.164 4.966-4.961" stroke="#fff" stroke-width="1.8" stroke-linecap="square"/>
    <path stroke="#D9D9D9" stroke-width="1.8" d="M609.9 296.9h14.2v14.2h-14.2zM609.9 335.9h14.2v14.2h-14.2zM609.9 372.9h14.2v14.2h-14.2zM609.9 413.9h14.2v14.2h-14.2zM609.9 454.9h14.2v14.2h-14.2zM677.9 180.9h14.2v14.2h-14.2z"/>
    <path fill="#D9D9D9" d="M677 180h16v16h-16z"/>
    <path d="m681.4 188.397 2.234 2.164 4.966-4.961" stroke="#fff" stroke-width="1.8" stroke-linecap="square"/>
    <path stroke="#D9D9D9" stroke-width="1.8" d="M677.9 216.9h14.2v14.2h-14.2z"/>
    <path fill="#D9D9D9" d="M677 216h16v16h-16z"/>
    <path d="m681.4 224.397 2.234 2.164 4.966-4.961" stroke="#fff" stroke-width="1.8" stroke-linecap="square"/>
    <path stroke="#D9D9D9" stroke-width="1.8" d="M677.9 252.9h14.2v14.2h-14.2z"/>
    <path fill="#D9D9D9" d="M677 252h16v16h-16z"/>
    <path d="m681.4 260.397 2.234 2.164 4.966-4.961" stroke="#fff" stroke-width="1.8" stroke-linecap="square"/>
    <path stroke="#D9D9D9" stroke-width="1.8" d="M677.9 296.9h14.2v14.2h-14.2z"/>
    <path fill="#D9D9D9" d="M677 296h16v16h-16z"/>
    <path d="m681.4 304.397 2.234 2.164 4.966-4.961" stroke="#fff" stroke-width="1.8" stroke-linecap="square"/>
    <path stroke="#D9D9D9" stroke-width="1.8" d="M677.9 335.9h14.2v14.2h-14.2z"/>
    <path fill="#D9D9D9" d="M677 335h16v16h-16z"/>
    <path d="m681.4 343.397 2.234 2.164 4.966-4.961" stroke="#fff" stroke-width="1.8" stroke-linecap="square"/>
    <path stroke="#D9D9D9" stroke-width="1.8" d="M677.9 372.9h14.2v14.2h-14.2z"/>
    <path fill="#D9D9D9" d="M677 372h16v16h-16z"/>
    <path d="m681.4 380.397 2.234 2.164 4.966-4.961" stroke="#fff" stroke-width="1.8" stroke-linecap="square"/>
    <path stroke="#D9D9D9" stroke-width="1.8" d="M677.9 413.9h14.2v14.2h-14.2z"/>
    <path fill="#D9D9D9" d="M677 413h16v16h-16z"/>
    <path d="m681.4 421.397 2.234 2.164 4.966-4.961" stroke="#fff" stroke-width="1.8" stroke-linecap="square"/>
    <path stroke="#D9D9D9" stroke-width="1.8" d="M677.9 454.9h14.2v14.2h-14.2z"/>
    <path fill="#D9D9D9" d="M677 454h16v16h-16z"/>
    <path d="m681.4 462.397 2.234 2.164 4.966-4.961" stroke="#fff" stroke-width="1.8" stroke-linecap="square"/>
    <path d="M163.623 44.184h-3.889a3.803 3.803 0 0 0-.435-1.341 3.413 3.413 0 0 0-.843-1.012 3.717 3.717 0 0 0-1.19-.64 4.549 4.549 0 0 0-1.447-.221c-.941 0-1.761.234-2.459.701-.699.462-1.24 1.136-1.625 2.024-.385.882-.577 1.953-.577 3.214 0 1.296.192 2.385.577 3.267.391.882.935 1.548 1.634 1.998.698.45 1.506.674 2.423.674a4.8 4.8 0 0 0 1.43-.204 3.761 3.761 0 0 0 1.18-.595c.344-.266.628-.588.853-.967.23-.38.39-.811.479-1.297l3.889.018a7.26 7.26 0 0 1-2.362 4.483c-.669.604-1.468 1.084-2.397 1.439-.923.349-1.968.524-3.134.524-1.622 0-3.072-.367-4.35-1.101-1.273-.734-2.279-1.797-3.018-3.187-.734-1.391-1.101-3.075-1.101-5.052 0-1.983.373-3.67 1.118-5.06.746-1.391 1.758-2.45 3.036-3.178 1.279-.734 2.717-1.101 4.315-1.101 1.054 0 2.03.148 2.93.444a7.44 7.44 0 0 1 2.406 1.296 6.67 6.67 0 0 1 1.704 2.068c.444.817.728 1.752.853 2.806zm11.43 6.01v-7.83h3.782V56h-3.631v-2.477h-.142a4.029 4.029 0 0 1-1.536 1.927c-.71.485-1.578.728-2.601.728-.912 0-1.714-.208-2.406-.622-.693-.414-1.234-1.003-1.625-1.767-.385-.763-.58-1.678-.586-2.743v-8.682h3.782v8.007c.006.805.222 1.442.648 1.91.426.467.997.7 1.714.7.455 0 .881-.103 1.278-.31.396-.213.716-.527.959-.941.248-.414.37-.926.364-1.536zm18.153-3.942-3.463.213a1.79 1.79 0 0 0-.381-.799 2.031 2.031 0 0 0-.773-.577c-.313-.148-.689-.222-1.127-.222-.586 0-1.08.125-1.483.373-.402.243-.604.568-.604.977 0 .325.131.6.391.825.26.225.707.406 1.341.542l2.468.497c1.325.272 2.314.71 2.965 1.314.651.604.976 1.397.976 2.38 0 .893-.263 1.677-.79 2.352-.521.674-1.237 1.201-2.148 1.58-.906.373-1.95.56-3.134.56-1.805 0-3.243-.377-4.315-1.128-1.065-.758-1.689-1.788-1.873-3.09l3.72-.195c.112.55.385.97.817 1.26.432.285.985.427 1.66.427.663 0 1.195-.127 1.598-.382.408-.26.615-.595.621-1.003a1.044 1.044 0 0 0-.435-.843c-.284-.225-.722-.397-1.314-.515l-2.361-.47c-1.332-.267-2.323-.729-2.974-1.386-.645-.657-.968-1.494-.968-2.512 0-.876.237-1.63.71-2.264.48-.633 1.152-1.122 2.016-1.465.87-.343 1.888-.515 3.054-.515 1.722 0 3.077.364 4.066 1.092.994.728 1.574 1.72 1.74 2.974zm9.945-3.888v2.84h-8.212v-2.84h8.212zm-6.348-3.267h3.782V51.81c0 .349.054.621.16.816.107.19.255.323.444.4.195.077.42.115.675.115.177 0 .355-.014.532-.044.178-.036.314-.062.409-.08l.595 2.814c-.19.06-.456.128-.799.204a6.411 6.411 0 0 1-1.252.151c-.912.036-1.711-.085-2.397-.364a3.344 3.344 0 0 1-1.589-1.296c-.379-.586-.565-1.326-.56-2.22v-13.21zm14.826 17.17c-1.379 0-2.571-.294-3.577-.88a6.006 6.006 0 0 1-2.317-2.468c-.545-1.059-.817-2.287-.817-3.684 0-1.408.272-2.64.817-3.693a5.935 5.935 0 0 1 2.317-2.468c1.006-.592 2.198-.888 3.577-.888s2.569.296 3.569.888a5.924 5.924 0 0 1 2.326 2.468c.545 1.053.817 2.285.817 3.693 0 1.397-.272 2.625-.817 3.684a5.994 5.994 0 0 1-2.326 2.468c-1 .586-2.19.88-3.569.88zm.018-2.93c.628 0 1.151-.178 1.572-.533.42-.361.736-.852.95-1.474.218-.621.328-1.328.328-2.121 0-.794-.11-1.5-.328-2.122-.214-.622-.53-1.113-.95-1.474-.421-.361-.944-.542-1.572-.542-.633 0-1.166.18-1.598.542-.426.361-.749.852-.968 1.474-.213.621-.319 1.328-.319 2.121 0 .794.106 1.5.319 2.122.219.622.542 1.113.968 1.474.432.355.965.533 1.598.533zM220.8 56V42.364h3.605v2.406h.159c.285-.8.758-1.43 1.421-1.891.663-.462 1.456-.693 2.379-.693.935 0 1.731.234 2.388.701a3.303 3.303 0 0 1 1.314 1.883h.142c.278-.782.782-1.406 1.51-1.874.733-.473 1.6-.71 2.601-.71 1.272 0 2.305.406 3.098 1.216.799.805 1.199 1.947 1.199 3.427V56h-3.773v-8.425c0-.758-.202-1.326-.604-1.705-.403-.378-.906-.568-1.509-.568-.687 0-1.223.22-1.607.657-.385.432-.577 1.003-.577 1.714V56h-3.667v-8.505c0-.669-.192-1.201-.577-1.598-.379-.396-.879-.595-1.5-.595-.421 0-.799.107-1.137.32-.331.207-.595.5-.79.879-.195.373-.293.81-.293 1.314V56H220.8zm38.523-12.953c-.071-.716-.375-1.272-.914-1.669-.539-.396-1.27-.595-2.193-.595-.627 0-1.157.09-1.589.267-.432.171-.763.411-.994.719a1.73 1.73 0 0 0-.338 1.047c-.011.326.057.61.205.853.153.242.364.452.63.63.266.172.574.323.923.453.349.124.722.23 1.119.32l1.633.39c.793.178 1.521.414 2.184.71.663.296 1.237.66 1.723 1.092.485.432.861.941 1.127 1.527.272.586.411 1.258.417 2.016-.006 1.112-.29 2.077-.852 2.894-.556.81-1.361 1.44-2.415 1.89-1.047.444-2.311.666-3.791.666-1.467 0-2.746-.224-3.835-.674-1.083-.45-1.929-1.116-2.539-1.998-.604-.888-.92-1.985-.95-3.294h3.72c.041.61.216 1.12.524 1.528.313.402.731.707 1.252.914.526.201 1.121.302 1.784.302.651 0 1.216-.095 1.696-.284.485-.19.861-.453 1.127-.79.267-.338.4-.725.4-1.163 0-.409-.122-.752-.364-1.03-.237-.278-.586-.515-1.048-.71a10.661 10.661 0 0 0-1.678-.533l-1.98-.497c-1.532-.373-2.743-.956-3.631-1.75-.887-.792-1.328-1.86-1.322-3.204-.006-1.101.287-2.063.879-2.885.597-.823 1.417-1.465 2.459-1.927 1.041-.462 2.225-.692 3.551-.692 1.349 0 2.527.23 3.533.692 1.012.462 1.799 1.104 2.362 1.927.562.822.852 1.775.87 2.858h-3.685zm15.193 7.147v-7.83h3.782V56h-3.631v-2.477h-.142a4.029 4.029 0 0 1-1.536 1.927c-.711.485-1.578.728-2.602.728-.911 0-1.713-.208-2.405-.622-.693-.414-1.234-1.003-1.625-1.767-.385-.763-.58-1.678-.586-2.743v-8.682h3.782v8.007c.006.805.222 1.442.648 1.91.426.467.997.7 1.713.7.456 0 .882-.103 1.279-.31.396-.213.716-.527.959-.941.248-.414.37-.926.364-1.536zm6.807 10.92v-18.75h3.728v2.29h.169c.166-.367.406-.74.719-1.119.32-.384.734-.704 1.243-.958.515-.26 1.154-.39 1.918-.39.994 0 1.911.26 2.752.78.84.515 1.512 1.294 2.015 2.335.503 1.036.755 2.335.755 3.898 0 1.52-.246 2.805-.737 3.853-.485 1.041-1.148 1.831-1.989 2.37-.834.533-1.769.799-2.805.799-.734 0-1.358-.121-1.873-.364a3.87 3.87 0 0 1-1.252-.914 4.642 4.642 0 0 1-.746-1.128h-.115v7.298h-3.782zm3.702-11.932c0 .81.112 1.518.337 2.122.225.603.551 1.074.977 1.411.426.332.944.497 1.553.497.616 0 1.137-.168 1.563-.506.426-.343.749-.816.967-1.42.225-.61.338-1.311.338-2.104 0-.787-.11-1.48-.329-2.078-.219-.597-.541-1.065-.967-1.402-.426-.338-.95-.506-1.572-.506-.615 0-1.136.162-1.562.488-.42.326-.743.787-.968 1.385-.225.598-.337 1.302-.337 2.113zm12.118 11.932v-18.75h3.729v2.29h.168c.166-.367.406-.74.719-1.119.32-.384.734-.704 1.243-.958.515-.26 1.155-.39 1.918-.39.994 0 1.912.26 2.752.78.841.515 1.512 1.294 2.015 2.335.503 1.036.755 2.335.755 3.898 0 1.52-.246 2.805-.737 3.853-.485 1.041-1.148 1.831-1.988 2.37-.835.533-1.77.799-2.806.799-.734 0-1.358-.121-1.873-.364a3.88 3.88 0 0 1-1.252-.914 4.671 4.671 0 0 1-.746-1.128h-.115v7.298h-3.782zm3.702-11.932c0 .81.113 1.518.337 2.122.225.603.551 1.074.977 1.411.426.332.944.497 1.554.497.615 0 1.136-.168 1.562-.506.426-.343.749-.816.968-1.42.225-.61.337-1.311.337-2.104 0-.787-.109-1.48-.328-2.078-.219-.597-.542-1.065-.968-1.402-.426-.338-.95-.506-1.571-.506-.616 0-1.137.162-1.563.488-.42.326-.743.787-.968 1.385-.224.598-.337 1.302-.337 2.113zm18.28 7.084c-1.379 0-2.572-.293-3.578-.879a6.012 6.012 0 0 1-2.317-2.468c-.545-1.059-.817-2.287-.817-3.684 0-1.408.272-2.64.817-3.693a5.94 5.94 0 0 1 2.317-2.468c1.006-.592 2.199-.888 3.578-.888s2.568.296 3.568.888a5.918 5.918 0 0 1 2.326 2.468c.545 1.053.817 2.285.817 3.693 0 1.397-.272 2.625-.817 3.684a5.988 5.988 0 0 1-2.326 2.468c-1 .586-2.189.88-3.568.88zm.017-2.93c.628 0 1.151-.177 1.572-.532.42-.361.737-.852.95-1.474.219-.621.328-1.328.328-2.121 0-.794-.109-1.5-.328-2.122-.213-.622-.53-1.113-.95-1.474-.421-.361-.944-.542-1.572-.542-.633 0-1.166.18-1.598.542-.426.361-.748.852-.967 1.474-.213.621-.32 1.328-.32 2.121 0 .794.107 1.5.32 2.122.219.622.541 1.113.967 1.474.432.355.965.533 1.598.533zM328.295 56V42.364h3.667v2.379h.142c.249-.846.666-1.486 1.252-1.918a3.289 3.289 0 0 1 2.024-.657c.189 0 .393.012.612.036.219.023.412.056.578.097v3.356a4.966 4.966 0 0 0-.737-.142 6.615 6.615 0 0 0-.861-.062c-.557 0-1.054.121-1.492.364a2.685 2.685 0 0 0-1.03.994c-.248.427-.373.918-.373 1.474V56h-3.782zm18.167-13.636v2.84h-8.212v-2.84h8.212zm-6.348-3.267h3.782V51.81c0 .349.053.621.16.816.106.19.254.323.444.4.195.077.42.115.674.115.178 0 .355-.014.533-.044.178-.036.314-.062.408-.08l.595 2.814c-.189.06-.456.128-.799.204-.343.083-.76.134-1.252.151-.911.036-1.71-.085-2.397-.364a3.349 3.349 0 0 1-1.589-1.296c-.378-.586-.565-1.326-.559-2.22v-13.21zM354.782 56V37.818h7.174c1.373 0 2.545.246 3.515.737.977.485 1.72 1.175 2.229 2.069.515.887.772 1.932.772 3.133 0 1.208-.26 2.247-.781 3.117-.521.864-1.276 1.527-2.264 1.988-.983.462-2.172.693-3.569.693h-4.803v-3.09h4.182c.733 0 1.343-.1 1.828-.302.486-.2.847-.503 1.084-.905.242-.403.364-.903.364-1.5 0-.604-.122-1.113-.364-1.528-.237-.414-.601-.727-1.092-.94-.486-.22-1.098-.33-1.838-.33h-2.592V56h-3.845zm9.819-8.274L369.12 56h-4.243l-4.422-8.274h4.146zm12.458 8.54c-1.379 0-2.571-.293-3.578-.879a6.019 6.019 0 0 1-2.317-2.468c-.544-1.059-.817-2.287-.817-3.684 0-1.408.273-2.64.817-3.693a5.947 5.947 0 0 1 2.317-2.468c1.007-.592 2.199-.888 3.578-.888s2.569.296 3.569.888a5.924 5.924 0 0 1 2.326 2.468c.545 1.053.817 2.285.817 3.693 0 1.397-.272 2.625-.817 3.684a5.994 5.994 0 0 1-2.326 2.468c-1 .586-2.19.88-3.569.88zm.018-2.93c.627 0 1.151-.177 1.571-.532.42-.361.737-.852.95-1.474.219-.621.329-1.328.329-2.121 0-.794-.11-1.5-.329-2.122-.213-.622-.53-1.113-.95-1.474-.42-.361-.944-.542-1.571-.542-.633 0-1.166.18-1.598.542-.426.361-.749.852-.968 1.474-.213.621-.319 1.328-.319 2.121 0 .794.106 1.5.319 2.122.219.622.542 1.113.968 1.474.432.355.965.533 1.598.533zm12.935-15.518V56h-3.782V37.818h3.782zm9.244 18.448c-1.403 0-2.61-.284-3.622-.852a5.835 5.835 0 0 1-2.326-2.433c-.545-1.053-.817-2.299-.817-3.737 0-1.403.272-2.634.817-3.693a6.036 6.036 0 0 1 2.299-2.477c.994-.592 2.16-.888 3.498-.888.9 0 1.737.145 2.512.435a5.568 5.568 0 0 1 2.042 1.287c.586.575 1.042 1.297 1.368 2.167.325.864.488 1.876.488 3.036v1.039H394v-2.344h7.955c0-.545-.119-1.027-.355-1.447a2.548 2.548 0 0 0-.986-.986c-.414-.242-.896-.364-1.447-.364-.574 0-1.083.133-1.527.4-.438.26-.781.612-1.03 1.056a2.99 2.99 0 0 0-.381 1.465v2.228c0 .675.124 1.258.372 1.75.255.49.613.87 1.075 1.136.461.266 1.009.4 1.642.4.42 0 .805-.06 1.154-.178.349-.119.648-.296.897-.533a2.32 2.32 0 0 0 .568-.87l3.498.23a4.785 4.785 0 0 1-1.092 2.202c-.545.622-1.249 1.107-2.113 1.456-.858.344-1.85.515-2.974.515zm30.626-12.082h-3.888a3.803 3.803 0 0 0-.435-1.341 3.4 3.4 0 0 0-.844-1.012 3.702 3.702 0 0 0-1.189-.64 4.553 4.553 0 0 0-1.447-.221c-.941 0-1.761.234-2.46.701-.698.462-1.239 1.136-1.624 2.024-.385.882-.577 1.953-.577 3.214 0 1.296.192 2.385.577 3.267.39.882.935 1.548 1.633 1.998.699.45 1.507.674 2.424.674.515 0 .991-.068 1.429-.204a3.756 3.756 0 0 0 1.181-.595c.343-.266.627-.588.852-.967.231-.38.391-.811.48-1.297l3.888.018a7.03 7.03 0 0 1-.754 2.415 7.277 7.277 0 0 1-1.607 2.069c-.669.603-1.468 1.083-2.397 1.438-.924.349-1.968.524-3.134.524-1.622 0-3.072-.367-4.35-1.101-1.273-.734-2.279-1.797-3.019-3.187-.734-1.391-1.101-3.075-1.101-5.052 0-1.983.373-3.67 1.119-5.06.746-1.391 1.758-2.45 3.036-3.178 1.279-.734 2.717-1.101 4.315-1.101 1.053 0 2.03.148 2.93.444a7.425 7.425 0 0 1 2.405 1.296 6.66 6.66 0 0 1 1.705 2.068c.444.817.728 1.752.852 2.806zm8.847 12.082c-1.379 0-2.572-.293-3.578-.879a6.019 6.019 0 0 1-2.317-2.468c-.544-1.059-.817-2.287-.817-3.684 0-1.408.273-2.64.817-3.693a5.947 5.947 0 0 1 2.317-2.468c1.006-.592 2.199-.888 3.578-.888s2.569.296 3.569.888a5.93 5.93 0 0 1 2.326 2.468c.544 1.053.817 2.285.817 3.693 0 1.397-.273 2.625-.817 3.684a6 6 0 0 1-2.326 2.468c-1 .586-2.19.88-3.569.88zm.018-2.93c.627 0 1.151-.177 1.571-.532.42-.361.737-.852.95-1.474.219-.621.329-1.328.329-2.121 0-.794-.11-1.5-.329-2.122-.213-.622-.53-1.113-.95-1.474-.42-.361-.944-.542-1.571-.542-.633 0-1.166.18-1.598.542-.426.361-.749.852-.968 1.474-.213.621-.319 1.328-.319 2.121 0 .794.106 1.5.319 2.122.219.622.542 1.113.968 1.474.432.355.965.533 1.598.533zm12.935-5.22V56H447.9V42.364h3.604v2.406h.16a3.806 3.806 0 0 1 1.518-1.883c.71-.467 1.572-.7 2.584-.7.947 0 1.772.206 2.477.62.704.415 1.251 1.007 1.642 1.776.391.764.586 1.675.586 2.735V56h-3.782v-8.008c.006-.834-.207-1.485-.639-1.953-.432-.473-1.027-.71-1.785-.71-.509 0-.959.11-1.349.328a2.289 2.289 0 0 0-.906.96c-.213.413-.322.914-.328 1.5zm19.103-5.752v2.84h-8.416v-2.84h8.416zM464.295 56V41.378c0-.988.192-1.808.577-2.459a3.708 3.708 0 0 1 1.598-1.465c.675-.325 1.441-.488 2.299-.488.58 0 1.11.044 1.59.133.485.089.846.169 1.083.24l-.675 2.84a4.702 4.702 0 0 0-.55-.133 3.451 3.451 0 0 0-.657-.062c-.557 0-.944.13-1.163.391-.219.255-.329.613-.329 1.074V56h-3.773zm8.8 0V42.364h3.782V56h-3.782zm1.9-15.394a2.054 2.054 0 0 1-1.447-.56c-.397-.378-.595-.831-.595-1.358 0-.52.198-.968.595-1.34a2.037 2.037 0 0 1 1.447-.569c.562 0 1.042.19 1.438.569.403.373.604.82.604 1.34 0 .527-.201.98-.604 1.358-.396.373-.876.56-1.438.56zm11.055 20.792c-1.225 0-2.276-.169-3.151-.506-.871-.332-1.563-.785-2.078-1.359a4.176 4.176 0 0 1-1.003-1.935l3.498-.47c.106.272.275.526.506.763.231.237.535.426.914.568.385.148.853.222 1.403.222.823 0 1.5-.201 2.033-.604.539-.396.808-1.062.808-1.997v-2.495h-.16a3.589 3.589 0 0 1-.746 1.074c-.331.338-.757.613-1.278.826-.521.213-1.142.32-1.864.32-1.024 0-1.957-.237-2.797-.71-.834-.48-1.5-1.21-1.997-2.193-.492-.989-.737-2.238-.737-3.747 0-1.545.251-2.835.754-3.87.503-1.036 1.172-1.812 2.007-2.326a5.181 5.181 0 0 1 2.761-.773c.763 0 1.402.13 1.917.39.515.255.93.575 1.243.96.32.378.565.751.737 1.118h.142v-2.29h3.755v13.77c0 1.16-.284 2.13-.852 2.911-.568.781-1.355 1.367-2.361 1.758-1.001.397-2.152.595-3.454.595zm.08-8.434c.61 0 1.125-.151 1.545-.453.426-.308.751-.746.976-1.314.231-.574.347-1.26.347-2.06 0-.799-.113-1.491-.338-2.077-.225-.592-.55-1.05-.976-1.376-.426-.326-.944-.488-1.554-.488-.621 0-1.145.168-1.571.506-.426.331-.749.793-.968 1.385-.219.591-.328 1.275-.328 2.05 0 .788.109 1.468.328 2.042.225.569.547 1.01.968 1.323.426.308.95.462 1.571.462zm18.342-2.77v-7.83h3.782V56h-3.631v-2.477h-.142a4.029 4.029 0 0 1-1.536 1.927c-.711.485-1.578.728-2.602.728-.911 0-1.713-.208-2.405-.622-.693-.414-1.234-1.003-1.625-1.767-.385-.763-.58-1.678-.586-2.743v-8.682h3.782v8.007c.006.805.222 1.442.648 1.91.426.467.997.7 1.713.7.456 0 .882-.103 1.279-.31.396-.213.716-.527.959-.941.248-.414.37-.926.364-1.536zM511.279 56V42.364h3.666v2.379h.142c.249-.846.666-1.486 1.252-1.918a3.29 3.29 0 0 1 2.024-.657c.19 0 .394.012.613.036.219.023.411.056.577.097v3.356a4.94 4.94 0 0 0-.737-.142 6.615 6.615 0 0 0-.861-.062 3.03 3.03 0 0 0-1.492.364 2.676 2.676 0 0 0-1.029.994c-.249.427-.373.918-.373 1.474V56h-3.782zm13.727.258c-.87 0-1.645-.152-2.326-.453a3.746 3.746 0 0 1-1.616-1.359c-.39-.603-.586-1.355-.586-2.255 0-.757.14-1.393.418-1.908a3.38 3.38 0 0 1 1.136-1.243 5.505 5.505 0 0 1 1.634-.71 12.43 12.43 0 0 1 1.935-.338c.793-.083 1.432-.16 1.918-.23.485-.078.837-.19 1.056-.338.219-.148.328-.367.328-.657v-.053c0-.563-.177-.997-.532-1.305-.349-.308-.847-.462-1.492-.462-.68 0-1.222.151-1.624.453a2.08 2.08 0 0 0-.799 1.119l-3.498-.285a4.755 4.755 0 0 1 1.047-2.148c.521-.61 1.193-1.077 2.016-1.403.828-.331 1.787-.497 2.876-.497.758 0 1.483.089 2.175.266a5.692 5.692 0 0 1 1.856.826c.544.373.973.852 1.287 1.438.314.58.47 1.276.47 2.087V56h-3.586v-1.891h-.107a3.847 3.847 0 0 1-.879 1.127c-.367.32-.808.572-1.322.755-.515.178-1.11.267-1.785.267zm1.083-2.61c.557 0 1.048-.11 1.474-.33.426-.224.76-.526 1.003-.905.243-.378.364-.807.364-1.287V49.68a2.021 2.021 0 0 1-.488.213c-.201.06-.429.115-.684.169-.254.047-.509.092-.763.133l-.693.097a4.686 4.686 0 0 0-1.163.311 1.858 1.858 0 0 0-.772.577c-.184.237-.275.533-.275.888 0 .515.186.909.559 1.18.379.267.858.4 1.438.4zm16.784-11.284v2.84h-8.212v-2.84h8.212zm-6.348-3.267h3.782V51.81c0 .349.053.621.16.816.106.19.254.323.444.4.195.077.42.115.674.115.178 0 .356-.014.533-.044.178-.036.314-.062.409-.08l.594 2.814c-.189.06-.455.128-.799.204a6.39 6.39 0 0 1-1.251.151c-.912.036-1.711-.085-2.397-.364a3.346 3.346 0 0 1-1.59-1.296c-.378-.586-.565-1.326-.559-2.22v-13.21zM545.336 56V42.364h3.782V56h-3.782zm1.9-15.394a2.056 2.056 0 0 1-1.447-.56c-.396-.378-.595-.831-.595-1.358 0-.52.199-.968.595-1.34a2.038 2.038 0 0 1 1.447-.569c.563 0 1.042.19 1.438.569.403.373.604.82.604 1.34 0 .527-.201.98-.604 1.358-.396.373-.875.56-1.438.56zm11.073 15.66c-1.379 0-2.571-.293-3.578-.879a6.019 6.019 0 0 1-2.317-2.468c-.544-1.059-.817-2.287-.817-3.684 0-1.408.273-2.64.817-3.693a5.947 5.947 0 0 1 2.317-2.468c1.007-.592 2.199-.888 3.578-.888s2.569.296 3.569.888a5.924 5.924 0 0 1 2.326 2.468c.545 1.053.817 2.285.817 3.693 0 1.397-.272 2.625-.817 3.684a5.994 5.994 0 0 1-2.326 2.468c-1 .586-2.19.88-3.569.88zm.018-2.93c.627 0 1.151-.177 1.571-.532.42-.361.737-.852.95-1.474.219-.621.329-1.328.329-2.121 0-.794-.11-1.5-.329-2.122-.213-.622-.53-1.113-.95-1.474-.42-.361-.944-.542-1.571-.542-.633 0-1.166.18-1.598.542-.426.361-.749.852-.968 1.474-.213.621-.319 1.328-.319 2.121 0 .794.106 1.5.319 2.122.219.622.542 1.113.968 1.474.432.355.965.533 1.598.533zm12.935-5.22V56h-3.782V42.364h3.604v2.406h.16a3.806 3.806 0 0 1 1.518-1.883c.71-.467 1.572-.7 2.584-.7.947 0 1.772.206 2.477.62.704.415 1.251 1.007 1.642 1.776.391.764.586 1.675.586 2.735V56h-3.782v-8.008c.006-.834-.207-1.485-.639-1.953-.432-.473-1.027-.71-1.785-.71-.509 0-.958.11-1.349.328a2.289 2.289 0 0 0-.906.96c-.213.413-.322.914-.328 1.5z" fill="#393939"/>
    <path opacity=".7" d="M472.284 161.239c-1.372 0-2.456-.462-3.254-1.387-.797-.926-1.196-2.186-1.196-3.781 0-1.599.396-2.862 1.189-3.787.798-.925 1.883-1.388 3.254-1.388 1.085 0 2.008.319 2.769.958.766.633 1.21 1.453 1.333 2.46h-1.525c-.145-.606-.451-1.089-.916-1.449-.46-.36-1.014-.54-1.661-.54-.884 0-1.586.337-2.105 1.012-.515.67-.773 1.581-.773 2.734 0 1.149.258 2.06.773 2.735.519.67 1.224 1.005 2.112 1.005.652 0 1.208-.165 1.668-.493.465-.328.766-.77.902-1.326h1.525c-.137.975-.579 1.762-1.326 2.359-.748.592-1.671.888-2.769.888zm5.941-.239v-7.444h1.415v1.141h.109c.105-.369.344-.672.718-.909a2.381 2.381 0 0 1 1.292-.355c.278 0 .497.02.656.061v1.449c-.178-.059-.451-.089-.82-.089-.561 0-1.019.162-1.374.486-.351.323-.527.745-.527 1.264V161h-1.469zm9.775-5.811c-.328-.35-.763-.526-1.306-.526-.542 0-.989.176-1.34.526-.35.351-.546.818-.587 1.402h3.759c-.018-.588-.193-1.055-.526-1.402zm.52 3.801h1.415a2.605 2.605 0 0 1-1.108 1.579c-.565.383-1.271.575-2.119.575-1.066 0-1.907-.342-2.522-1.026-.611-.688-.916-1.627-.916-2.816 0-1.19.309-2.135.929-2.837.62-.702 1.454-1.053 2.502-1.053 1.035 0 1.846.333 2.434.998.592.666.888 1.584.888 2.755v.513h-5.256v.082c.022.656.212 1.176.567 1.558.355.383.827.575 1.415.575.898 0 1.488-.301 1.771-.903zm5.701.896c.551 0 1.009-.155 1.374-.465.369-.31.553-.697.553-1.162v-.622l-1.818.116c-.51.032-.886.137-1.128.314-.241.178-.362.431-.362.759a.92.92 0 0 0 .383.779c.255.187.588.281.998.281zm-.376 1.237c-.729 0-1.326-.203-1.791-.608-.461-.411-.691-.951-.691-1.62 0-.666.24-1.188.718-1.566.479-.383 1.162-.601 2.051-.656l2.016-.116v-.643c0-.396-.129-.699-.389-.909-.26-.214-.638-.321-1.135-.321-.41 0-.752.073-1.025.218a1.015 1.015 0 0 0-.527.609h-1.422c.073-.638.385-1.146.937-1.525.556-.382 1.258-.574 2.105-.574.93 0 1.648.221 2.154.663.51.438.765 1.051.765 1.839V161h-1.415v-1.046h-.116a2.285 2.285 0 0 1-.923.868 2.806 2.806 0 0 1-1.312.301zm6.378-9.42h1.469v1.887h1.614v1.237h-1.614v3.828c0 .388.085.672.253.855.169.178.436.266.8.266.146 0 .333-.011.561-.034v1.224c-.292.05-.559.075-.8.075-.816 0-1.402-.155-1.757-.465-.351-.31-.526-.825-.526-1.545v-4.204h-1.183v-1.237h1.183v-1.887zm9.091 3.486c-.328-.35-.763-.526-1.305-.526-.543 0-.989.176-1.34.526-.351.351-.547.818-.588 1.402h3.76c-.018-.588-.194-1.055-.527-1.402zm.52 3.801h1.415a2.607 2.607 0 0 1-1.107 1.579c-.566.383-1.272.575-2.12.575-1.066 0-1.907-.342-2.522-1.026-.611-.688-.916-1.627-.916-2.816 0-1.19.31-2.135.93-2.837.619-.702 1.453-1.053 2.502-1.053 1.034 0 1.845.333 2.433.998.593.666.889 1.584.889 2.755v.513h-5.257v.082c.023.656.212 1.176.567 1.558.356.383.828.575 1.415.575.898 0 1.488-.301 1.771-.903zM148.769 152.482v3.453h2.201c.592 0 1.05-.151 1.374-.452.328-.3.492-.726.492-1.278 0-.538-.171-.959-.513-1.265-.337-.305-.802-.458-1.394-.458h-2.16zm0 4.758V161h-1.532v-9.864h3.904c.993 0 1.786.275 2.379.827.592.547.888 1.283.888 2.208 0 .665-.171 1.251-.512 1.757a2.696 2.696 0 0 1-1.402 1.059l2.215 4.013h-1.771l-2.009-3.76h-2.16zm11.792-2.051c-.329-.35-.764-.526-1.306-.526s-.989.176-1.34.526c-.351.351-.547.818-.588 1.402h3.76c-.018-.588-.194-1.055-.526-1.402zm.519 3.801h1.415a2.607 2.607 0 0 1-1.107 1.579c-.565.383-1.272.575-2.119.575-1.067 0-1.908-.342-2.523-1.026-.611-.688-.916-1.627-.916-2.816 0-1.19.31-2.135.93-2.837.62-.702 1.454-1.053 2.502-1.053 1.034 0 1.845.333 2.433.998.593.666.889 1.584.889 2.755v.513h-5.257v.082c.023.656.212 1.176.568 1.558.355.383.827.575 1.415.575.897 0 1.488-.301 1.77-.903zm3.097-3.329c0-.656.271-1.194.813-1.613.543-.424 1.235-.636 2.078-.636.839 0 1.516.185 2.031.554.515.369.809.882.881 1.538h-1.408a1.032 1.032 0 0 0-.499-.656c-.26-.16-.594-.24-1.005-.24-.414 0-.758.092-1.032.274-.273.178-.41.41-.41.697 0 .223.096.408.287.554.191.146.49.264.896.355l1.237.287c.715.164 1.239.408 1.572.732.337.323.506.756.506 1.299 0 .692-.289 1.255-.868 1.688-.579.433-1.317.65-2.215.65-.884 0-1.6-.187-2.146-.561a2.057 2.057 0 0 1-.91-1.559h1.47c.096.292.28.52.554.684.273.164.629.246 1.066.246.46 0 .836-.093 1.128-.28.292-.187.438-.429.438-.725 0-.433-.365-.736-1.094-.909l-1.299-.301c-.711-.168-1.235-.419-1.572-.752-.333-.332-.499-.774-.499-1.326zm10.862 5.483c-1.094 0-1.953-.345-2.577-1.033-.624-.688-.937-1.633-.937-2.837 0-1.198.313-2.142.937-2.83.629-.688 1.488-1.032 2.577-1.032 1.085 0 1.939.344 2.564 1.032.628.688.943 1.632.943 2.83 0 1.204-.312 2.149-.937 2.837-.624.688-1.481 1.033-2.57 1.033zm0-1.306c.634 0 1.123-.223 1.47-.67.351-.451.526-1.082.526-1.894 0-.806-.175-1.433-.526-1.879-.347-.452-.836-.677-1.47-.677-.638 0-1.13.223-1.477.67-.346.446-.519 1.075-.519 1.886 0 .816.173 1.447.519 1.894.347.447.839.67 1.477.67zm11.553-6.282V161h-1.415v-1.183h-.116c-.379.884-1.128 1.327-2.249 1.327-.821 0-1.454-.24-1.901-.718-.442-.479-.663-1.158-.663-2.037v-4.833h1.47v4.45c0 .606.125 1.055.376 1.347.255.287.651.43 1.189.43.588 0 1.042-.164 1.361-.492.319-.333.478-.793.478-1.381v-4.354h1.47zm2.133 7.444v-7.444h1.415v1.141h.109c.105-.369.344-.672.718-.909a2.381 2.381 0 0 1 1.292-.355c.278 0 .497.02.656.061v1.449c-.178-.059-.451-.089-.82-.089-.561 0-1.019.162-1.374.486-.351.323-.527.745-.527 1.264V161h-1.469zm11.716-5.011h-1.428a1.587 1.587 0 0 0-.595-.916c-.301-.232-.688-.348-1.162-.348-.615 0-1.101.223-1.456.67-.351.446-.527 1.066-.527 1.859 0 .802.176 1.433.527 1.893.355.456.841.684 1.456.684.469 0 .854-.105 1.155-.314.305-.21.506-.513.602-.91h1.428c-.095.766-.423 1.381-.984 1.846-.561.46-1.292.691-2.194.691-1.085 0-1.939-.345-2.564-1.033-.62-.692-.929-1.645-.929-2.857 0-1.194.309-2.133.929-2.816.62-.684 1.472-1.026 2.557-1.026.907 0 1.638.237 2.194.711.561.474.891 1.096.991 1.866zm6.043-.8c-.328-.35-.763-.526-1.305-.526-.543 0-.989.176-1.34.526-.351.351-.547.818-.588 1.402h3.76c-.018-.588-.194-1.055-.527-1.402zm.52 3.801h1.415a2.607 2.607 0 0 1-1.107 1.579c-.566.383-1.272.575-2.12.575-1.066 0-1.907-.342-2.522-1.026-.611-.688-.916-1.627-.916-2.816 0-1.19.31-2.135.93-2.837.619-.702 1.453-1.053 2.502-1.053 1.034 0 1.845.333 2.433.998.593.666.889 1.584.889 2.755v.513h-5.257v.082c.023.656.212 1.176.567 1.558.356.383.828.575 1.415.575.898 0 1.488-.301 1.771-.903zm7.267-7.854h3.862c.966 0 1.75.305 2.351.916.602.606.903 1.397.903 2.372 0 .961-.308 1.745-.923 2.351-.615.602-1.408.903-2.379.903h-2.283V161h-1.531v-9.864zm1.531 1.353v3.842h1.927c.661 0 1.174-.164 1.539-.492.369-.333.553-.804.553-1.415 0-.625-.18-1.103-.54-1.436-.36-.332-.877-.499-1.552-.499h-1.927zm11.546 2.7c-.328-.35-.764-.526-1.306-.526s-.989.176-1.34.526c-.351.351-.547.818-.588 1.402h3.76c-.018-.588-.194-1.055-.526-1.402zm.519 3.801h1.415a2.603 2.603 0 0 1-1.107 1.579c-.565.383-1.272.575-2.119.575-1.067 0-1.908-.342-2.523-1.026-.61-.688-.916-1.627-.916-2.816 0-1.19.31-2.135.93-2.837.62-.702 1.454-1.053 2.502-1.053 1.034 0 1.846.333 2.433.998.593.666.889 1.584.889 2.755v.513h-5.257v.082c.023.656.212 1.176.568 1.558.355.383.827.575 1.415.575.897 0 1.488-.301 1.77-.903zm3.268 2.01v-7.444h1.415v1.141h.109c.105-.369.344-.672.718-.909a2.381 2.381 0 0 1 1.292-.355c.278 0 .497.02.656.061v1.449c-.178-.059-.451-.089-.82-.089-.561 0-1.019.162-1.374.486-.351.323-.527.745-.527 1.264V161h-1.469zm5.715 0v-7.444h1.415v1.196h.109c.164-.424.426-.752.786-.984.365-.237.793-.356 1.285-.356.497 0 .921.119 1.272.356a2.1 2.1 0 0 1 .779.984h.116c.192-.41.488-.736.889-.978a2.64 2.64 0 0 1 1.374-.362c.752 0 1.335.217 1.75.65.419.432.629 1.036.629 1.811V161h-1.47v-4.744c0-.998-.481-1.497-1.442-1.497-.47 0-.85.148-1.142.444-.287.296-.43.668-.43 1.114V161h-1.443v-4.888c0-.419-.13-.749-.389-.991-.26-.241-.609-.362-1.046-.362-.447 0-.821.162-1.121.485-.301.324-.452.725-.452 1.203V161h-1.469zm12.496 0v-7.444h1.463V161h-1.463zm1.408-9.003a.942.942 0 0 1-.677.253.965.965 0 0 1-.683-.253.86.86 0 0 1-.267-.643.86.86 0 0 1 .267-.642.953.953 0 0 1 .683-.26.93.93 0 0 1 .677.26.85.85 0 0 1 .273.642.85.85 0 0 1-.273.643zm2.044 3.664c0-.656.271-1.194.813-1.613.543-.424 1.235-.636 2.078-.636.839 0 1.516.185 2.031.554.515.369.809.882.882 1.538h-1.409a1.032 1.032 0 0 0-.499-.656c-.259-.16-.594-.24-1.005-.24-.414 0-.758.092-1.032.274-.273.178-.41.41-.41.697 0 .223.096.408.287.554.192.146.49.264.896.355l1.237.287c.715.164 1.24.408 1.572.732.337.323.506.756.506 1.299 0 .692-.289 1.255-.868 1.688-.579.433-1.317.65-2.215.65-.884 0-1.6-.187-2.146-.561a2.057 2.057 0 0 1-.91-1.559h1.47c.096.292.28.52.554.684.273.164.629.246 1.066.246.461 0 .837-.093 1.128-.28.292-.187.438-.429.438-.725 0-.433-.365-.736-1.094-.909l-1.299-.301c-.711-.168-1.235-.419-1.572-.752-.333-.332-.499-.774-.499-1.326zm7.41 0c0-.656.271-1.194.813-1.613.543-.424 1.236-.636 2.079-.636.838 0 1.515.185 2.03.554.515.369.809.882.882 1.538h-1.408a1.037 1.037 0 0 0-.5-.656c-.259-.16-.594-.24-1.004-.24-.415 0-.759.092-1.033.274-.273.178-.41.41-.41.697 0 .223.096.408.287.554.192.146.49.264.896.355l1.237.287c.716.164 1.24.408 1.572.732.338.323.506.756.506 1.299 0 .692-.289 1.255-.868 1.688-.579.433-1.317.65-2.215.65-.884 0-1.599-.187-2.146-.561a2.053 2.053 0 0 1-.909-1.559h1.469c.096.292.281.52.554.684.273.164.629.246 1.066.246.461 0 .837-.093 1.128-.28.292-.187.438-.429.438-.725 0-.433-.365-.736-1.094-.909l-1.299-.301c-.711-.168-1.235-.419-1.572-.752-.333-.332-.499-.774-.499-1.326zm7.745 5.339v-7.444h1.463V161h-1.463zm1.408-9.003a.94.94 0 0 1-.676.253.966.966 0 0 1-.684-.253.86.86 0 0 1-.267-.643.86.86 0 0 1 .267-.642.954.954 0 0 1 .684-.26c.273 0 .499.087.676.26a.848.848 0 0 1 .274.642c0 .256-.091.47-.274.643zm5.36 9.147c-1.094 0-1.953-.345-2.577-1.033-.625-.688-.937-1.633-.937-2.837 0-1.198.312-2.142.937-2.83.628-.688 1.488-1.032 2.577-1.032 1.084 0 1.939.344 2.563 1.032.629.688.944 1.632.944 2.83 0 1.204-.313 2.149-.937 2.837-.624.688-1.481 1.033-2.57 1.033zm0-1.306c.633 0 1.123-.223 1.469-.67.351-.451.527-1.082.527-1.894 0-.806-.176-1.433-.527-1.879-.346-.452-.836-.677-1.469-.677-.638 0-1.131.223-1.477.67-.346.446-.519 1.075-.519 1.886 0 .816.173 1.447.519 1.894.346.447.839.67 1.477.67zm5.277 1.162v-7.444h1.415v1.182h.109c.388-.884 1.128-1.326 2.222-1.326.83 0 1.465.239 1.907.718.447.478.67 1.162.67 2.051V161h-1.469v-4.45c0-1.194-.536-1.791-1.607-1.791-.542 0-.975.171-1.299.512-.319.338-.478.796-.478 1.375V161h-1.47zm8.224-5.339c0-.656.271-1.194.813-1.613.542-.424 1.235-.636 2.078-.636.839 0 1.516.185 2.031.554.515.369.808.882.881 1.538h-1.408a1.035 1.035 0 0 0-.499-.656c-.26-.16-.595-.24-1.005-.24-.414 0-.759.092-1.032.274-.273.178-.41.41-.41.697 0 .223.096.408.287.554.191.146.49.264.896.355l1.237.287c.715.164 1.239.408 1.572.732.337.323.506.756.506 1.299 0 .692-.289 1.255-.868 1.688-.579.433-1.317.65-2.215.65-.884 0-1.6-.187-2.147-.561a2.058 2.058 0 0 1-.909-1.559h1.47c.096.292.28.52.554.684.273.164.629.246 1.066.246.46 0 .836-.093 1.128-.28.292-.187.438-.429.438-.725 0-.433-.365-.736-1.094-.909l-1.299-.301c-.711-.168-1.235-.419-1.572-.752-.333-.332-.499-.774-.499-1.326zM549.499 159.605V161h-6.262v-9.864h6.262v1.394h-4.73v2.789h4.477v1.327h-4.477v2.959h4.73zm4.765 1.518c-.948 0-1.7-.346-2.256-1.039-.556-.693-.834-1.629-.834-2.81 0-1.175.278-2.11.834-2.802.56-.693 1.312-1.039 2.256-1.039.51 0 .968.116 1.374.348.405.228.708.547.909.957h.109v-4.088h1.47V161h-1.408v-1.176h-.116a2.42 2.42 0 0 1-.957.957 2.797 2.797 0 0 1-1.381.342zm.417-6.371c-.62 0-1.108.226-1.463.677-.351.446-.527 1.062-.527 1.845 0 .789.176 1.409.527 1.86.355.446.843.67 1.463.67.619 0 1.107-.226 1.463-.677.36-.451.54-1.066.54-1.846 0-.774-.18-1.39-.54-1.845-.36-.456-.848-.684-1.463-.684zm5.68 6.248v-7.444h1.463V161h-1.463zm1.409-9.003a.944.944 0 0 1-.677.253.966.966 0 0 1-.684-.253.86.86 0 0 1-.266-.643c0-.255.088-.469.266-.642a.954.954 0 0 1 .684-.26c.273 0 .499.087.677.26a.85.85 0 0 1 .273.642.85.85 0 0 1-.273.643zm2.734-.294h1.47v1.887h1.613v1.237h-1.613v3.828c0 .388.084.672.253.855.168.178.435.266.799.266.146 0 .333-.011.561-.034v1.224c-.292.05-.558.075-.8.075-.816 0-1.401-.155-1.757-.465-.351-.31-.526-.825-.526-1.545v-4.204h-1.183v-1.237h1.183v-1.887zM597.237 151.136h3.562c1.463 0 2.602.43 3.418 1.292.816.857 1.223 2.06 1.223 3.609 0 1.577-.405 2.798-1.216 3.664-.812.866-1.953 1.299-3.425 1.299h-3.562v-9.864zm1.532 1.394v7.075h1.859c1.034 0 1.834-.307 2.399-.922.57-.62.855-1.495.855-2.625 0-1.112-.287-1.978-.861-2.598-.57-.62-1.368-.93-2.393-.93h-1.859zm12.926 2.659c-.328-.35-.763-.526-1.305-.526-.543 0-.989.176-1.34.526-.351.351-.547.818-.588 1.402h3.76c-.019-.588-.194-1.055-.527-1.402zm.52 3.801h1.415a2.605 2.605 0 0 1-1.108 1.579c-.565.383-1.271.575-2.119.575-1.066 0-1.907-.342-2.522-1.026-.611-.688-.916-1.627-.916-2.816 0-1.19.31-2.135.93-2.837.619-.702 1.453-1.053 2.501-1.053 1.035 0 1.846.333 2.434.998.593.666.889 1.584.889 2.755v.513h-5.257v.082c.023.656.212 1.176.567 1.558.356.383.827.575 1.415.575.898 0 1.488-.301 1.771-.903zm3.336 2.01v-10.35h1.47V161h-1.47zm8.039-5.811c-.328-.35-.764-.526-1.306-.526s-.989.176-1.34.526c-.351.351-.547.818-.588 1.402h3.76c-.018-.588-.193-1.055-.526-1.402zm.519 3.801h1.415a2.6 2.6 0 0 1-1.107 1.579c-.565.383-1.271.575-2.119.575-1.067 0-1.907-.342-2.523-1.026-.61-.688-.916-1.627-.916-2.816 0-1.19.31-2.135.93-2.837.62-.702 1.454-1.053 2.502-1.053 1.035 0 1.846.333 2.434.998.592.666.888 1.584.888 2.755v.513h-5.257v.082c.023.656.212 1.176.568 1.558.355.383.827.575 1.415.575.898 0 1.488-.301 1.77-.903zm3.787-7.287h1.47v1.887h1.613v1.237h-1.613v3.828c0 .388.085.672.253.855.169.178.435.266.8.266.146 0 .333-.011.56-.034v1.224c-.291.05-.558.075-.799.075-.816 0-1.402-.155-1.757-.465-.351-.31-.527-.825-.527-1.545v-4.204h-1.182v-1.237h1.182v-1.887zm9.092 3.486c-.328-.35-.763-.526-1.305-.526-.543 0-.989.176-1.34.526-.351.351-.547.818-.588 1.402h3.76c-.019-.588-.194-1.055-.527-1.402zm.52 3.801h1.415a2.605 2.605 0 0 1-1.108 1.579c-.565.383-1.271.575-2.119.575-1.066 0-1.907-.342-2.522-1.026-.611-.688-.916-1.627-.916-2.816 0-1.19.31-2.135.93-2.837.619-.702 1.453-1.053 2.501-1.053 1.035 0 1.846.333 2.434.998.592.666.889 1.584.889 2.755v.513h-5.257v.082c.023.656.212 1.176.567 1.558.356.383.827.575 1.415.575.898 0 1.488-.301 1.771-.903zM674.688 161h-1.682l-3.527-9.864h1.667l2.66 7.95h.116l2.645-7.95h1.627L674.688 161zm5.085 0v-7.444h1.463V161h-1.463zm1.409-9.003a.944.944 0 0 1-.677.253.968.968 0 0 1-.684-.253.863.863 0 0 1-.266-.643c0-.255.089-.469.266-.642a.956.956 0 0 1 .684-.26c.273 0 .499.087.677.26a.85.85 0 0 1 .273.642.85.85 0 0 1-.273.643zm6.576 3.192c-.328-.35-.764-.526-1.306-.526s-.989.176-1.34.526c-.351.351-.547.818-.588 1.402h3.76c-.018-.588-.194-1.055-.526-1.402zm.519 3.801h1.415a2.6 2.6 0 0 1-1.107 1.579c-.565.383-1.272.575-2.119.575-1.067 0-1.907-.342-2.523-1.026-.61-.688-.916-1.627-.916-2.816 0-1.19.31-2.135.93-2.837.62-.702 1.454-1.053 2.502-1.053 1.034 0 1.846.333 2.434.998.592.666.888 1.584.888 2.755v.513h-5.257v.082c.023.656.212 1.176.568 1.558.355.383.827.575 1.415.575.898 0 1.488-.301 1.77-.903zm12.907-5.434L699.14 161h-1.525l-1.538-5.482h-.116L694.43 161h-1.511l-2.051-7.444h1.49l1.333 5.68h.11l1.531-5.68h1.408l1.531 5.68h.117l1.326-5.68h1.47z" fill="#575757"/>
    <path fill="#D9D9D9" d="M175 182h225v8H175zM206 220h194v8H206zM254 260h146v8H254z"/>
    <g filter="url(#0g6qwy3shk)">
        <path fill="#fff" d="M64 235h733v52H64z"/>
    </g>
    <path d="M105.73 262.607h1.155c.072.478.32.859.743 1.143.423.283.961.425 1.612.425.618 0 1.128-.148 1.53-.445.406-.3.609-.677.609-1.129 0-.39-.148-.711-.444-.965-.296-.258-.76-.468-1.39-.629l-1.174-.304c-.83-.208-1.433-.508-1.809-.902-.377-.393-.565-.916-.565-1.568 0-.778.296-1.407.888-1.885.597-.482 1.38-.723 2.349-.723.884 0 1.625.236 2.222.71.596.474.918 1.082.964 1.822h-1.149c-.08-.469-.304-.836-.672-1.098-.364-.267-.832-.4-1.403-.4-.61 0-1.1.142-1.473.425-.368.28-.552.65-.552 1.111 0 .36.135.652.406.876.275.225.728.417 1.359.578l.958.254c.948.237 1.627.554 2.038.952.414.398.622.933.622 1.606 0 .842-.309 1.513-.927 2.012-.618.495-1.449.743-2.495.743-.969 0-1.764-.237-2.386-.711-.618-.474-.957-1.107-1.016-1.898zm9.045-6.221h1.092v1.771h1.524v.914h-1.524v3.872c0 .402.081.694.241.876.161.182.419.273.775.273.156 0 .326-.008.508-.025v.92a3.705 3.705 0 0 1-.641.064c-.707 0-1.213-.142-1.518-.426-.304-.283-.457-.751-.457-1.402v-4.152h-1.104v-.914h1.104v-1.771zm6.373 7.776c.563 0 1.029-.163 1.397-.489.372-.326.559-.734.559-1.225v-.628l-1.841.12c-.517.034-.895.142-1.137.324-.241.182-.361.447-.361.794 0 .342.129.613.387.812.258.195.59.292.996.292zm-.203.959c-.673 0-1.227-.184-1.663-.553-.431-.372-.647-.867-.647-1.485 0-.609.216-1.088.647-1.435.432-.347 1.048-.543 1.847-.59l1.975-.12v-.623c0-.423-.132-.746-.394-.971-.262-.224-.648-.336-1.155-.336-.411 0-.751.074-1.022.222a1.016 1.016 0 0 0-.521.628h-1.104c.072-.546.353-.986.844-1.32.495-.334 1.109-.501 1.841-.501.829 0 1.47.201 1.923.603.453.402.679.96.679 1.675V265h-1.041v-1.009h-.101c-.22.364-.512.643-.876.838a2.58 2.58 0 0 1-1.232.292zm5.269-.121v-6.843h1.041v1.079h.101c.364-.799 1.05-1.199 2.057-1.199.766 0 1.356.22 1.771.66.415.436.622 1.06.622 1.872V265h-1.092v-4.164c0-.614-.133-1.069-.4-1.365-.262-.3-.666-.45-1.212-.45-.55 0-.988.173-1.314.52-.322.343-.482.813-.482 1.409V265h-1.092zm10.124.121c-.876 0-1.574-.322-2.094-.965-.521-.643-.781-1.503-.781-2.577 0-1.071.26-1.928.781-2.571.524-.648 1.223-.971 2.094-.971.479 0 .906.108 1.283.323.38.212.668.504.863.876h.095v-3.796h1.092V265h-1.041v-1.092h-.102a2.32 2.32 0 0 1-.901.895 2.628 2.628 0 0 1-1.289.318zm.254-6.1c-.622 0-1.111.228-1.466.685-.355.453-.533 1.077-.533 1.873 0 .799.175 1.426.527 1.879.355.452.846.679 1.472.679.622 0 1.113-.229 1.473-.686.36-.457.539-1.081.539-1.872 0-.783-.181-1.405-.545-1.867-.36-.461-.849-.691-1.467-.691zm10.734-.864V265h-1.041v-1.073h-.101a1.906 1.906 0 0 1-.8.889c-.36.203-.8.305-1.321.305-.761 0-1.341-.218-1.739-.654-.398-.436-.596-1.062-.596-1.879v-4.431h1.091v4.164c0 .622.123 1.079.369 1.371.245.288.638.432 1.18.432.597 0 1.056-.167 1.378-.501.325-.339.488-.811.488-1.416v-4.05h1.092zm5.389-.12c.872 0 1.568.321 2.089.964.524.644.787 1.503.787 2.578 0 1.07-.263 1.929-.787 2.577-.525.643-1.221.965-2.089.965-.486 0-.918-.1-1.295-.299a1.973 1.973 0 0 1-.844-.85h-.101v3.313h-1.092v-9.128h1.041v1.143h.101c.22-.394.523-.703.908-.927a2.525 2.525 0 0 1 1.282-.336zm-.26 6.1c.626 0 1.117-.227 1.473-.679.355-.453.533-1.08.533-1.879 0-.8-.178-1.426-.533-1.879-.352-.453-.84-.679-1.467-.679-.617 0-1.108.23-1.472.691-.364.457-.546 1.08-.546 1.867 0 .782.18 1.405.539 1.866.364.461.855.692 1.473.692zm9.801.863h-1.143v-9.16h5.561v1.029h-4.418v3.148h4.056v1.016h-4.056V265zm11.273-.825c-.563.63-1.331.946-2.304.946-.973 0-1.743-.316-2.31-.946-.563-.635-.845-1.5-.845-2.596 0-1.101.282-1.966.845-2.597.562-.63 1.333-.945 2.31-.945.978 0 1.748.315 2.311.945.562.631.844 1.496.844 2.597 0 1.096-.284 1.961-.851 2.596zm-3.802-.705c.351.445.851.667 1.498.667.648 0 1.147-.222 1.498-.667.351-.448.527-1.079.527-1.891 0-.813-.176-1.441-.527-1.886-.351-.448-.85-.672-1.498-.672-.647 0-1.147.224-1.498.672-.351.445-.527 1.073-.527 1.886 0 .812.176 1.443.527 1.891zm6.367 1.53v-6.843h1.041v1.016h.101c.102-.334.33-.607.686-.819a2.317 2.317 0 0 1 1.212-.317c.208 0 .39.01.546.031v1.092c-.148-.042-.381-.063-.698-.063-.521 0-.95.156-1.289.469-.338.314-.507.711-.507 1.194V265h-1.092zm5.078 0v-6.843h1.041v1.079h.101c.157-.381.4-.675.73-.882.331-.212.724-.317 1.181-.317.449 0 .834.108 1.155.323.326.216.572.508.737.876h.101a2.09 2.09 0 0 1 .838-.876 2.469 2.469 0 0 1 1.257-.323c.698 0 1.236.194 1.612.584.377.385.565.935.565 1.65V265h-1.092v-4.475c0-1.003-.48-1.504-1.44-1.504-.466 0-.847.152-1.143.457a1.549 1.549 0 0 0-.444 1.123V265h-1.092v-4.646c0-.407-.131-.73-.394-.972-.258-.241-.603-.361-1.034-.361-.445 0-.821.169-1.13.507a1.775 1.775 0 0 0-.457 1.232V265h-1.092z" fill="#393939"/>
    <g clip-path="url(#2yhfph1lyl)">
        <path d="M97.667 267h-9.334a.666.666 0 0 1-.666-.667v-6h-2l6.884-6.258a.665.665 0 0 1 .898 0l6.884 6.258h-2v6a.667.667 0 0 1-.666.667zM89 265.667h8v-6.562l-4-3.636-4 3.636v6.562zM90.333 263h5.334v1.333h-5.334V263z" fill="#03B365"/>
    </g>
    <path stroke="#F86A2B" stroke-width="1.8" d="M482.9 253.9h14.2v14.2h-14.2z"/>
    <path fill="#F86A2B" d="M482 253h16v16h-16z"/>
    <path d="m486.4 261.397 2.234 2.164 4.966-4.961" stroke="#fff" stroke-width="1.8" stroke-linecap="square"/>
    <path stroke="#F86A2B" stroke-width="1.8" d="M547.9 253.9h14.2v14.2h-14.2z"/>
    <path fill="#F86A2B" d="M547 253h16v16h-16z"/>
    <path d="m551.4 261.397 2.234 2.164 4.966-4.961" stroke="#fff" stroke-width="1.8" stroke-linecap="square"/>
    <path stroke="#F86A2B" stroke-width="1.8" d="M609.9 253.9h14.2v14.2h-14.2z"/>
    <path fill="#F86A2B" d="M609 253h16v16h-16z"/>
    <path d="m613.4 261.397 2.234 2.164 4.966-4.961" stroke="#fff" stroke-width="1.8" stroke-linecap="square"/>
    <path stroke="#F86A2B" stroke-width="1.8" d="M677.9 253.9h14.2v14.2h-14.2z"/>
    <path fill="#F86A2B" d="M677 253h16v16h-16z"/>
    <path d="m681.4 261.397 2.234 2.164 4.966-4.961" stroke="#fff" stroke-width="1.8" stroke-linecap="square"/>
    <path fill="#D9D9D9" d="M226 380h174v8H226zM226 420h174v8H226zM226 460h174v8H226zM269 300h131v8H269zM269 340h131v8H269z"/>
    <path opacity=".6" fill="#E7E7E7" d="M146 117.455h960.485v1.697H146z"/>
    <path fill="#F86A2B" d="M146 116.606h142.545V120H146z"/>
    <path d="m153.622 107-.902-2.618h-3.76l-.909 2.618h-1.572l3.561-9.864h1.648l3.561 9.864h-1.627zm-2.837-8.073-1.435 4.17h2.98l-1.429-4.17h-.116zm9.878.506c.948 0 1.7.346 2.256 1.039.556.688.834 1.622.834 2.802 0 1.181-.278 2.117-.834 2.81-.551.693-1.299 1.039-2.242 1.039-.529 0-.994-.109-1.395-.328a2.13 2.13 0 0 1-.895-.923h-.116v3.603h-1.47v-9.92h1.415v1.231h.109c.224-.424.543-.754.957-.991a2.695 2.695 0 0 1 1.381-.362zm-.417 6.371c.624 0 1.112-.224 1.463-.67.355-.451.533-1.071.533-1.86 0-.788-.178-1.406-.533-1.852-.351-.447-.836-.67-1.456-.67s-1.11.228-1.47.684c-.36.451-.54 1.066-.54 1.845 0 .775.18 1.39.54 1.846.36.451.848.677 1.463.677zm9.14-6.371c.948 0 1.7.346 2.256 1.039.556.688.834 1.622.834 2.802 0 1.181-.278 2.117-.834 2.81-.552.693-1.299 1.039-2.243 1.039-.528 0-.993-.109-1.394-.328a2.132 2.132 0 0 1-.896-.923h-.116v3.603h-1.47v-9.92h1.415v1.231h.11c.223-.424.542-.754.957-.991a2.695 2.695 0 0 1 1.381-.362zm-.417 6.371c.624 0 1.112-.224 1.463-.67.355-.451.533-1.071.533-1.86 0-.788-.178-1.406-.533-1.852-.351-.447-.837-.67-1.456-.67-.62 0-1.11.228-1.47.684-.36.451-.54 1.066-.54 1.845 0 .775.18 1.39.54 1.846.36.451.848.677 1.463.677zm5.345 1.196V96.65h1.47V107h-1.47zm3.706 0v-7.444h1.462V107h-1.462zm1.408-9.003a.946.946 0 0 1-.677.253.971.971 0 0 1-.684-.253.864.864 0 0 1-.266-.642c0-.256.089-.47.266-.643a.956.956 0 0 1 .684-.26c.273 0 .499.087.677.26a.852.852 0 0 1 .273.642c0 .256-.091.47-.273.643zm8.517 3.992h-1.428a1.592 1.592 0 0 0-.595-.916c-.301-.232-.688-.348-1.162-.348-.615 0-1.101.223-1.456.67-.351.446-.527 1.066-.527 1.859 0 .802.176 1.433.527 1.893.355.456.841.684 1.456.684.469 0 .854-.105 1.155-.314.305-.21.506-.513.602-.91h1.428c-.095.766-.424 1.381-.984 1.846-.561.46-1.292.691-2.194.691-1.085 0-1.94-.345-2.564-1.033-.62-.692-.93-1.645-.93-2.857 0-1.194.31-2.133.93-2.816.62-.684 1.472-1.026 2.557-1.026.907 0 1.638.237 2.194.711.561.474.891 1.096.991 1.866zm4.116 3.897c.551 0 1.009-.155 1.374-.465.369-.31.553-.697.553-1.162v-.622l-1.818.116c-.51.032-.886.137-1.128.314-.242.178-.362.431-.362.759s.127.588.382.779c.256.187.588.281.999.281zm-.376 1.237c-.73 0-1.327-.203-1.791-.608-.461-.411-.691-.951-.691-1.62 0-.666.239-1.188.718-1.566.478-.383 1.162-.601 2.051-.656l2.016-.116v-.643c0-.396-.13-.699-.389-.909-.26-.214-.638-.321-1.135-.321-.41 0-.752.073-1.026.218a1.017 1.017 0 0 0-.526.609h-1.422c.073-.638.385-1.146.937-1.525.556-.383 1.258-.574 2.105-.574.93 0 1.648.221 2.154.663.51.438.765 1.051.765 1.839V107h-1.415v-1.046h-.116a2.285 2.285 0 0 1-.923.868 2.806 2.806 0 0 1-1.312.301zm6.377-9.42h1.47v1.887h1.614v1.237h-1.614v3.828c0 .388.085.672.253.855.169.178.435.266.8.266.146 0 .333-.011.561-.034v1.224c-.292.05-.559.075-.8.075-.816 0-1.402-.155-1.757-.465-.351-.31-.527-.825-.527-1.545v-4.204h-1.182V99.59h1.182v-1.887zm4.84 9.297v-7.444h1.463V107h-1.463zm1.409-9.003a.946.946 0 0 1-.677.253.968.968 0 0 1-.684-.253.86.86 0 0 1-.266-.642.86.86 0 0 1 .266-.643.953.953 0 0 1 .684-.26c.273 0 .499.087.677.26a.852.852 0 0 1 .273.642c0 .256-.091.47-.273.643zm5.359 9.147c-1.094 0-1.953-.345-2.577-1.033-.625-.688-.937-1.633-.937-2.837 0-1.198.312-2.142.937-2.83.629-.688 1.488-1.032 2.577-1.032 1.085 0 1.939.344 2.563 1.032.629.688.944 1.632.944 2.83 0 1.204-.312 2.149-.937 2.837-.624.688-1.481 1.033-2.57 1.033zm0-1.306c.633 0 1.123-.223 1.47-.67.351-.451.526-1.082.526-1.894 0-.806-.175-1.433-.526-1.879-.347-.452-.837-.677-1.47-.677-.638 0-1.13.223-1.477.67-.346.446-.519 1.075-.519 1.886 0 .816.173 1.447.519 1.894.347.447.839.67 1.477.67zm5.277 1.162v-7.444h1.415v1.182h.11c.387-.884 1.128-1.326 2.221-1.326.83 0 1.466.24 1.908.718.446.478.67 1.162.67 2.051V107h-1.47v-4.45c0-1.194-.536-1.791-1.607-1.791-.542 0-.975.171-1.298.512-.32.338-.479.796-.479 1.375V107h-1.47zm13.925-8.518v3.453h2.201c.593 0 1.051-.151 1.374-.452.328-.3.492-.726.492-1.278 0-.538-.17-.96-.512-1.265-.337-.305-.802-.458-1.395-.458h-2.16zm0 4.758V107h-1.531v-9.864h3.903c.994 0 1.787.276 2.379.827.592.547.889 1.283.889 2.208 0 .665-.171 1.251-.513 1.757a2.69 2.69 0 0 1-1.401 1.059l2.214 4.013h-1.77l-2.01-3.76h-2.16zm11.792-2.051c-.328-.35-.763-.526-1.306-.526-.542 0-.989.176-1.339.526-.351.351-.547.818-.588 1.402h3.759c-.018-.588-.193-1.055-.526-1.402zm.52 3.801h1.415a2.605 2.605 0 0 1-1.108 1.579c-.565.383-1.271.575-2.119.575-1.066 0-1.907-.342-2.522-1.026-.611-.688-.916-1.627-.916-2.816 0-1.19.309-2.135.929-2.837.62-.702 1.454-1.053 2.502-1.053 1.035 0 1.846.333 2.434.998.592.666.889 1.584.889 2.755v.513h-5.257v.082c.022.656.212 1.176.567 1.558.356.383.827.575 1.415.575.898 0 1.488-.301 1.771-.903zm3.096-3.329c0-.656.271-1.194.814-1.613.542-.424 1.235-.636 2.078-.636.838 0 1.515.185 2.03.554.515.369.809.882.882 1.538h-1.408a1.039 1.039 0 0 0-.499-.656c-.26-.16-.595-.24-1.005-.24-.415 0-.759.092-1.032.274-.274.178-.411.41-.411.697a.67.67 0 0 0 .288.554c.191.146.49.264.895.355l1.237.287c.716.164 1.24.408 1.573.732.337.323.506.756.506 1.299 0 .692-.29 1.255-.869 1.688-.578.433-1.317.65-2.214.65-.885 0-1.6-.187-2.147-.561a2.058 2.058 0 0 1-.909-1.559h1.47c.095.292.28.52.553.684.274.164.629.246 1.067.246.46 0 .836-.093 1.128-.28.291-.187.437-.429.437-.725 0-.433-.364-.736-1.094-.909l-1.298-.301c-.711-.168-1.235-.419-1.573-.752-.332-.332-.499-.774-.499-1.326zm10.863 5.483c-1.094 0-1.953-.345-2.578-1.033-.624-.688-.936-1.633-.936-2.837 0-1.198.312-2.142.936-2.83.629-.688 1.488-1.032 2.578-1.032 1.084 0 1.939.344 2.563 1.032.629.688.943 1.632.943 2.83 0 1.204-.312 2.149-.936 2.837-.624.688-1.481 1.033-2.57 1.033zm0-1.306c.633 0 1.123-.223 1.469-.67.351-.451.527-1.082.527-1.894 0-.806-.176-1.433-.527-1.879-.346-.452-.836-.677-1.469-.677-.638 0-1.131.223-1.477.67-.346.446-.52 1.075-.52 1.886 0 .816.174 1.447.52 1.894.346.447.839.67 1.477.67zm11.552-6.282V107h-1.415v-1.183h-.116c-.378.884-1.128 1.327-2.249 1.327-.82 0-1.454-.24-1.9-.718-.442-.479-.663-1.158-.663-2.037v-4.833h1.469v4.45c0 .606.126 1.055.376 1.347.255.287.652.43 1.19.43.588 0 1.041-.164 1.36-.492.319-.333.479-.793.479-1.381v-4.354h1.469zm2.133 7.444v-7.444h1.415v1.141h.11c.104-.369.344-.672.717-.909a2.384 2.384 0 0 1 1.292-.355c.278 0 .497.02.657.061v1.449c-.178-.059-.452-.089-.821-.089-.56 0-1.018.162-1.374.486-.351.323-.526.745-.526 1.264V107h-1.47zm11.717-5.011h-1.429a1.582 1.582 0 0 0-.595-.916c-.3-.232-.688-.348-1.162-.348-.615 0-1.1.223-1.456.67-.351.446-.526 1.066-.526 1.859 0 .802.175 1.433.526 1.893.356.456.841.684 1.456.684.47 0 .855-.105 1.156-.314.305-.21.506-.513.601-.91h1.429c-.096.766-.424 1.381-.984 1.846-.561.46-1.292.691-2.195.691-1.084 0-1.939-.345-2.563-1.033-.62-.692-.93-1.645-.93-2.857 0-1.194.31-2.133.93-2.816.62-.684 1.472-1.026 2.556-1.026.907 0 1.639.237 2.195.711.56.474.891 1.096.991 1.866zm6.043-.8c-.328-.35-.763-.526-1.306-.526-.542 0-.989.176-1.34.526-.351.351-.546.818-.588 1.402h3.76c-.018-.588-.193-1.055-.526-1.402zm.519 3.801h1.415a2.6 2.6 0 0 1-1.107 1.579c-.565.383-1.271.575-2.119.575-1.067 0-1.907-.342-2.523-1.026-.61-.688-.916-1.627-.916-2.816 0-1.19.31-2.135.93-2.837.62-.702 1.454-1.053 2.502-1.053 1.035 0 1.846.333 2.434.998.592.666.888 1.584.888 2.755v.513h-5.257v.082c.023.656.212 1.176.568 1.558.355.383.827.575 1.415.575.898 0 1.488-.301 1.77-.903zm3.097-3.329c0-.656.271-1.194.814-1.613.542-.424 1.235-.636 2.078-.636.838 0 1.515.185 2.03.554.515.369.809.882.882 1.538H294.6a1.039 1.039 0 0 0-.499-.656c-.26-.16-.595-.24-1.005-.24-.415 0-.759.092-1.033.274-.273.178-.41.41-.41.697 0 .223.096.408.287.554.192.146.49.264.896.355l1.237.287c.716.164 1.24.408 1.573.732.337.323.505.756.505 1.299 0 .692-.289 1.255-.868 1.688-.579.433-1.317.65-2.215.65-.884 0-1.599-.187-2.146-.561a2.056 2.056 0 0 1-.909-1.559h1.469c.096.292.281.52.554.684.274.164.629.246 1.067.246.46 0 .836-.093 1.127-.28.292-.187.438-.429.438-.725 0-.433-.365-.736-1.094-.909l-1.299-.301c-.711-.168-1.235-.419-1.572-.752-.333-.332-.499-.774-.499-1.326z" fill="#191919"/>
    <path d="M350.146 97.136h3.562c1.463 0 2.602.43 3.418 1.292.816.856 1.224 2.06 1.224 3.609 0 1.577-.406 2.798-1.217 3.664-.811.866-1.953 1.299-3.425 1.299h-3.562v-9.864zm1.532 1.394v7.075h1.859c1.035 0 1.834-.307 2.4-.922.569-.62.854-1.495.854-2.625 0-1.112-.287-1.978-.861-2.598-.57-.62-1.368-.93-2.393-.93h-1.859zm10.971 7.356c.552 0 1.01-.155 1.374-.465.37-.31.554-.697.554-1.162v-.622l-1.818.116c-.511.032-.887.137-1.128.314-.242.178-.362.431-.362.759s.127.588.382.779c.256.187.588.281.998.281zm-.376 1.237c-.729 0-1.326-.203-1.791-.608-.46-.411-.69-.951-.69-1.62 0-.666.239-1.188.718-1.566.478-.383 1.162-.601 2.051-.656l2.016-.116v-.643c0-.396-.13-.699-.389-.909-.26-.214-.639-.321-1.135-.321-.41 0-.752.073-1.026.218a1.014 1.014 0 0 0-.526.609h-1.422c.073-.638.385-1.146.937-1.525.556-.383 1.257-.574 2.105-.574.93 0 1.648.221 2.153.663.511.438.766 1.051.766 1.839V107h-1.415v-1.046h-.116a2.291 2.291 0 0 1-.923.868 2.807 2.807 0 0 1-1.313.301zm6.378-9.42h1.47v1.887h1.613v1.237h-1.613v3.828c0 .388.084.672.253.855.169.178.435.266.8.266.146 0 .333-.011.56-.034v1.224c-.291.05-.558.075-.799.075-.816 0-1.402-.155-1.757-.465-.351-.31-.527-.825-.527-1.545v-4.204h-1.182V99.59h1.182v-1.887zm7.246 8.183c.552 0 1.01-.155 1.374-.465.37-.31.554-.697.554-1.162v-.622l-1.818.116c-.511.032-.887.137-1.128.314-.242.178-.362.431-.362.759s.127.588.382.779c.256.187.588.281.998.281zm-.376 1.237c-.729 0-1.326-.203-1.791-.608-.46-.411-.69-.951-.69-1.62 0-.666.239-1.188.718-1.566.478-.383 1.162-.601 2.051-.656l2.016-.116v-.643c0-.396-.13-.699-.389-.909-.26-.214-.638-.321-1.135-.321-.41 0-.752.073-1.026.218a1.017 1.017 0 0 0-.526.609h-1.422c.073-.638.385-1.146.937-1.525.556-.383 1.257-.574 2.105-.574.93 0 1.648.221 2.153.663.511.438.766 1.051.766 1.839V107h-1.415v-1.046h-.116a2.285 2.285 0 0 1-.923.868 2.807 2.807 0 0 1-1.313.301zm5.688-5.462c0-.656.271-1.194.813-1.613.543-.424 1.235-.636 2.079-.636.838 0 1.515.185 2.03.554.515.369.809.882.882 1.538h-1.409a1.032 1.032 0 0 0-.499-.656c-.259-.16-.594-.24-1.004-.24-.415 0-.759.092-1.033.274-.273.178-.41.41-.41.697 0 .223.096.408.287.554.192.146.49.264.896.355l1.237.287c.716.164 1.24.408 1.572.732.338.323.506.756.506 1.299 0 .692-.289 1.255-.868 1.688-.579.433-1.317.65-2.215.65-.884 0-1.599-.187-2.146-.561a2.053 2.053 0 0 1-.909-1.559h1.469c.096.292.281.52.554.684.273.164.629.246 1.066.246.461 0 .837-.093 1.128-.28.292-.187.438-.429.438-.725 0-.433-.365-.736-1.094-.909l-1.299-.301c-.711-.168-1.235-.419-1.572-.752-.333-.332-.499-.774-.499-1.326zm10.862 5.483c-1.093 0-1.953-.345-2.577-1.033-.624-.688-.936-1.633-.936-2.837 0-1.198.312-2.142.936-2.83.629-.688 1.488-1.032 2.577-1.032 1.085 0 1.939.344 2.564 1.032.629.688.943 1.632.943 2.83 0 1.204-.312 2.149-.936 2.837-.625.688-1.482 1.033-2.571 1.033zm0-1.306c.634 0 1.124-.223 1.47-.67.351-.451.526-1.082.526-1.894 0-.806-.175-1.433-.526-1.879-.346-.452-.836-.677-1.47-.677-.638 0-1.13.223-1.476.67-.347.446-.52 1.075-.52 1.886 0 .816.173 1.447.52 1.894.346.447.838.67 1.476.67zm11.553-6.282V107h-1.415v-1.183h-.116c-.378.884-1.128 1.327-2.249 1.327-.821 0-1.454-.24-1.901-.718-.442-.479-.663-1.158-.663-2.037v-4.833h1.47v4.45c0 .606.125 1.055.376 1.347.255.287.652.43 1.189.43.588 0 1.042-.164 1.361-.492.319-.333.478-.793.478-1.381v-4.354h1.47zm2.133 7.444v-7.444h1.415v1.141h.109c.105-.369.344-.672.718-.909a2.382 2.382 0 0 1 1.292-.355c.278 0 .497.02.656.061v1.449c-.177-.059-.451-.089-.82-.089-.561 0-1.019.162-1.374.486-.351.323-.526.745-.526 1.264V107h-1.47zm11.717-5.011h-1.429a1.582 1.582 0 0 0-.595-.916c-.301-.232-.688-.348-1.162-.348-.615 0-1.1.223-1.456.67-.351.446-.526 1.066-.526 1.859 0 .802.175 1.433.526 1.893.356.456.841.684 1.456.684.469 0 .855-.105 1.155-.314.306-.21.506-.513.602-.91h1.429c-.096.766-.424 1.381-.985 1.846-.56.46-1.292.691-2.194.691-1.085 0-1.939-.345-2.564-1.033-.619-.692-.929-1.645-.929-2.857 0-1.194.31-2.133.929-2.816.62-.684 1.472-1.026 2.557-1.026.907 0 1.638.237 2.194.711.561.474.891 1.096.992 1.866zm6.043-.8c-.329-.35-.764-.526-1.306-.526s-.989.176-1.34.526c-.351.351-.547.818-.588 1.402h3.76c-.018-.588-.194-1.055-.526-1.402zm.519 3.801h1.415a2.603 2.603 0 0 1-1.107 1.579c-.565.383-1.272.575-2.119.575-1.067 0-1.908-.342-2.523-1.026-.611-.688-.916-1.627-.916-2.816 0-1.19.31-2.135.93-2.837.62-.702 1.454-1.053 2.502-1.053 1.034 0 1.845.333 2.433.998.593.666.889 1.584.889 2.755v.513h-5.257v.082c.023.656.212 1.176.568 1.558.355.383.827.575 1.415.575.897 0 1.488-.301 1.77-.903zm3.097-3.329c0-.656.271-1.194.813-1.613.543-.424 1.235-.636 2.078-.636.839 0 1.516.185 2.031.554.515.369.809.882.882 1.538h-1.409a1.032 1.032 0 0 0-.499-.656c-.259-.16-.594-.24-1.005-.24-.414 0-.758.092-1.032.274-.273.178-.41.41-.41.697 0 .223.096.408.287.554.192.146.49.264.896.355l1.237.287c.715.164 1.24.408 1.572.732.337.323.506.756.506 1.299 0 .692-.289 1.255-.868 1.688-.579.433-1.317.65-2.215.65-.884 0-1.6-.187-2.146-.561a2.057 2.057 0 0 1-.91-1.559h1.47c.096.292.28.52.554.684.273.164.629.246 1.066.246.461 0 .837-.093 1.128-.28.292-.187.438-.429.438-.725 0-.433-.365-.736-1.094-.909l-1.299-.301c-.711-.168-1.235-.419-1.572-.752-.333-.332-.499-.774-.499-1.326zM445.761 107l-.855-.902a4.485 4.485 0 0 1-1.435.799 5.143 5.143 0 0 1-1.716.288c-1.007 0-1.823-.258-2.447-.773-.62-.515-.93-1.189-.93-2.023 0-.575.155-1.08.465-1.518.314-.437.797-.829 1.449-1.176l.191-.102c.11-.064.18-.103.212-.116-.451-.47-.77-.878-.957-1.224-.187-.346-.28-.7-.28-1.06 0-.647.248-1.184.745-1.613.501-.428 1.128-.642 1.88-.642.757 0 1.379.21 1.866.628.492.42.739.957.739 1.614 0 .51-.167.968-.5 1.374-.328.405-.859.802-1.592 1.189l2.262 2.352c.283-.529.424-1.288.424-2.277v-.314h1.333v.369c0 1.376-.273 2.459-.82 3.247l1.757 1.88h-1.791zm-4.621-4.471c-.866.451-1.299 1.033-1.299 1.743 0 .502.189.907.567 1.217.378.306.875.458 1.49.458.42 0 .825-.073 1.217-.218.392-.146.709-.342.95-.588l-2.604-2.762a4.076 4.076 0 0 0-.321.15zm.697-1.599c.547-.274.934-.536 1.162-.786.232-.256.349-.547.349-.875 0-.351-.117-.636-.349-.855-.232-.219-.535-.328-.909-.328-.365 0-.666.112-.902.335a1.123 1.123 0 0 0-.356.854c0 .251.075.5.226.746.15.246.41.549.779.909zm15.176 6.309c-1.422 0-2.546-.46-3.37-1.381-.825-.925-1.238-2.187-1.238-3.787 0-1.595.413-2.855 1.238-3.78.829-.93 1.952-1.394 3.37-1.394 1.412 0 2.531.464 3.356 1.394.825.925 1.237 2.185 1.237 3.78 0 .939-.145 1.769-.437 2.489-.287.715-.7 1.28-1.237 1.695l1.237 1.791h-1.6l-.806-1.087a5.181 5.181 0 0 1-1.75.28zm.007-1.428c.319 0 .628-.041.929-.123l-1.237-1.716h1.565l.739.916c.328-.283.581-.666.758-1.149.178-.483.267-1.039.267-1.668 0-1.148-.273-2.06-.82-2.734-.547-.675-1.283-1.012-2.208-1.012-.93 0-1.668.337-2.215 1.012-.547.67-.82 1.581-.82 2.734s.271 2.065.813 2.735c.547.67 1.29 1.005 2.229 1.005zm12.762-6.255V107h-1.415v-1.183h-.116c-.378.884-1.128 1.327-2.249 1.327-.82 0-1.454-.24-1.9-.718-.442-.479-.664-1.158-.664-2.037v-4.833h1.47v4.45c0 .606.126 1.055.376 1.347.255.287.652.43 1.19.43.588 0 1.041-.164 1.36-.492.319-.333.478-.793.478-1.381v-4.354h1.47zm6.494 1.633c-.328-.35-.763-.526-1.305-.526-.543 0-.989.176-1.34.526-.351.351-.547.818-.588 1.402h3.76c-.018-.588-.194-1.055-.527-1.402zm.52 3.801h1.415a2.607 2.607 0 0 1-1.107 1.579c-.566.383-1.272.575-2.12.575-1.066 0-1.907-.342-2.522-1.026-.611-.688-.916-1.627-.916-2.816 0-1.19.31-2.135.93-2.837.619-.702 1.453-1.053 2.502-1.053 1.034 0 1.845.333 2.433.998.593.666.889 1.584.889 2.755v.513h-5.257v.082c.023.656.212 1.176.567 1.558.356.383.828.575 1.415.575.898 0 1.488-.301 1.771-.903zm3.267 2.01v-7.444h1.416v1.141h.109c.105-.369.344-.672.718-.909a2.382 2.382 0 0 1 1.292-.355c.278 0 .496.02.656.061v1.449c-.178-.059-.451-.089-.82-.089-.561 0-1.019.162-1.374.486-.351.323-.527.745-.527 1.264V107h-1.47zm5.633 0v-7.444h1.463V107h-1.463zm1.408-9.003a.942.942 0 0 1-.676.253.968.968 0 0 1-.684-.253.86.86 0 0 1-.266-.642.86.86 0 0 1 .266-.643.953.953 0 0 1 .684-.26c.273 0 .499.087.676.26a.849.849 0 0 1 .274.642c0 .256-.091.47-.274.643zm6.577 3.192c-.328-.35-.764-.526-1.306-.526s-.989.176-1.34.526c-.351.351-.547.818-.588 1.402h3.76c-.018-.588-.194-1.055-.526-1.402zm.519 3.801h1.415a2.603 2.603 0 0 1-1.107 1.579c-.565.383-1.272.575-2.119.575-1.067 0-1.908-.342-2.523-1.026-.61-.688-.916-1.627-.916-2.816 0-1.19.31-2.135.93-2.837.62-.702 1.454-1.053 2.502-1.053 1.034 0 1.846.333 2.433.998.593.666.889 1.584.889 2.755v.513h-5.257v.082c.023.656.212 1.176.568 1.558.355.383.827.575 1.415.575.897 0 1.488-.301 1.77-.903zm3.097-3.329c0-.656.271-1.194.813-1.613.543-.424 1.235-.636 2.078-.636.839 0 1.516.185 2.031.554.515.369.809.882.882 1.538h-1.409a1.032 1.032 0 0 0-.499-.656c-.259-.16-.594-.24-1.005-.24-.414 0-.758.092-1.032.274-.273.178-.41.41-.41.697 0 .223.096.408.287.554.192.146.49.264.896.355l1.237.287c.716.164 1.24.408 1.572.732.338.323.506.756.506 1.299 0 .692-.289 1.255-.868 1.688-.579.433-1.317.65-2.215.65-.884 0-1.599-.187-2.146-.561a2.057 2.057 0 0 1-.91-1.559h1.47c.096.292.28.52.554.684.273.164.629.246 1.066.246.461 0 .837-.093 1.128-.28.292-.187.438-.429.438-.725 0-.433-.365-.736-1.094-.909l-1.299-.301c-.711-.168-1.235-.419-1.572-.752-.333-.332-.499-.774-.499-1.326zM568.856 97.136v6.33c0 .702.217 1.267.65 1.695.437.429 1.041.643 1.811.643.775 0 1.379-.214 1.812-.643.437-.428.656-.993.656-1.695v-6.33h1.531v6.467c0 1.084-.362 1.961-1.087 2.631-.72.67-1.69 1.005-2.912 1.005-1.221 0-2.192-.335-2.912-1.005-.72-.67-1.08-1.547-1.08-2.631v-6.467h1.531zm8.614 4.525c0-.656.271-1.194.813-1.613.543-.424 1.235-.636 2.078-.636.839 0 1.516.185 2.031.554.515.369.809.882.881 1.538h-1.408a1.032 1.032 0 0 0-.499-.656c-.26-.16-.595-.24-1.005-.24-.414 0-.758.092-1.032.274-.273.178-.41.41-.41.697 0 .223.096.408.287.554.191.146.49.264.896.355l1.237.287c.715.164 1.239.408 1.572.732.337.323.506.756.506 1.299 0 .692-.289 1.255-.868 1.688-.579.433-1.317.65-2.215.65-.884 0-1.6-.187-2.146-.561a2.057 2.057 0 0 1-.91-1.559h1.47c.096.292.28.52.554.684.273.164.629.246 1.066.246.46 0 .836-.093 1.128-.28.292-.187.438-.429.438-.725 0-.433-.365-.736-1.094-.909l-1.299-.301c-.711-.168-1.235-.419-1.572-.752-.333-.332-.499-.774-.499-1.326zm12.079-.472c-.328-.35-.764-.526-1.306-.526s-.989.176-1.34.526c-.351.351-.547.818-.588 1.402h3.76c-.018-.588-.193-1.055-.526-1.402zm.519 3.801h1.415a2.6 2.6 0 0 1-1.107 1.579c-.565.383-1.272.575-2.119.575-1.067 0-1.907-.342-2.523-1.026-.61-.688-.916-1.627-.916-2.816 0-1.19.31-2.135.93-2.837.62-.702 1.454-1.053 2.502-1.053 1.035 0 1.846.333 2.434.998.592.666.888 1.584.888 2.755v.513h-5.257v.082c.023.656.212 1.176.568 1.558.355.383.827.575 1.415.575.898 0 1.488-.301 1.77-.903zm3.268 2.01v-7.444h1.415v1.141h.109c.105-.369.344-.672.718-.909a2.382 2.382 0 0 1 1.292-.355c.278 0 .497.02.656.061v1.449c-.177-.059-.451-.089-.82-.089-.56 0-1.018.162-1.374.486-.351.323-.526.745-.526 1.264V107h-1.47zm16.516 0-.855-.902a4.496 4.496 0 0 1-1.435.799 5.143 5.143 0 0 1-1.716.288c-1.007 0-1.823-.258-2.448-.773-.619-.515-.929-1.189-.929-2.023 0-.575.155-1.08.465-1.518.314-.437.797-.829 1.449-1.176l.191-.102c.11-.064.18-.103.212-.116-.451-.47-.77-.878-.957-1.224-.187-.346-.28-.7-.28-1.06 0-.647.248-1.184.745-1.613.501-.428 1.128-.642 1.88-.642.756 0 1.378.21 1.866.628.492.42.738.957.738 1.614 0 .51-.166.968-.499 1.374-.328.405-.859.802-1.592 1.189l2.262 2.352c.283-.529.424-1.288.424-2.277v-.314h1.333v.369c0 1.376-.273 2.459-.82 3.247l1.757 1.88h-1.791zm-4.622-4.471c-.865.451-1.298 1.033-1.298 1.743 0 .502.189.907.567 1.217.378.306.875.458 1.49.458.42 0 .825-.073 1.217-.218.392-.146.709-.342.95-.588l-2.604-2.762c-.11.045-.217.096-.322.15zm.698-1.599c.547-.274.934-.536 1.162-.786.232-.256.348-.547.348-.875 0-.351-.116-.636-.348-.855-.233-.219-.536-.328-.909-.328-.365 0-.666.112-.903.335a1.122 1.122 0 0 0-.355.854c0 .251.075.5.225.746.151.246.411.549.78.909zm10.971-3.794h3.863c.966 0 1.75.305 2.351.916.602.606.903 1.397.903 2.372 0 .961-.308 1.745-.923 2.351-.615.602-1.408.903-2.379.903h-2.283V107h-1.532v-9.864zm1.532 1.353v3.842h1.927c.661 0 1.174-.164 1.538-.492.37-.333.554-.804.554-1.415 0-.625-.18-1.103-.54-1.436-.36-.332-.877-.499-1.552-.499h-1.927zm11.546 2.7c-.329-.35-.764-.526-1.306-.526s-.989.176-1.34.526c-.351.351-.547.818-.588 1.402h3.76c-.018-.588-.194-1.055-.526-1.402zm.519 3.801h1.415a2.603 2.603 0 0 1-1.107 1.579c-.565.383-1.272.575-2.119.575-1.067 0-1.908-.342-2.523-1.026-.611-.688-.916-1.627-.916-2.816 0-1.19.31-2.135.93-2.837.62-.702 1.454-1.053 2.502-1.053 1.034 0 1.845.333 2.433.998.593.666.889 1.584.889 2.755v.513h-5.257v.082c.023.656.212 1.176.568 1.558.355.383.827.575 1.415.575.897 0 1.488-.301 1.77-.903zm3.268 2.01v-7.444h1.415v1.141h.109c.105-.369.344-.672.718-.909a2.382 2.382 0 0 1 1.292-.355c.278 0 .497.02.656.061v1.449c-.178-.059-.451-.089-.82-.089-.561 0-1.019.162-1.374.486-.351.323-.527.745-.527 1.264V107h-1.469zm5.715 0v-7.444h1.415v1.196h.109a1.99 1.99 0 0 1 .786-.984c.365-.237.793-.356 1.285-.356.497 0 .921.119 1.272.356s.61.565.779.984h.116c.192-.41.488-.736.889-.978a2.63 2.63 0 0 1 1.374-.362c.752 0 1.335.217 1.75.65.419.432.629 1.036.629 1.811V107h-1.47v-4.744c0-.998-.481-1.497-1.442-1.497-.47 0-.85.148-1.142.444-.287.296-.431.668-.431 1.114V107h-1.442v-4.888c0-.419-.13-.749-.39-.991-.259-.241-.608-.362-1.045-.362-.447 0-.821.162-1.122.485-.3.324-.451.725-.451 1.203V107h-1.469zm12.496 0v-7.444h1.463V107h-1.463zm1.408-9.003a.946.946 0 0 1-.677.253.971.971 0 0 1-.684-.253.864.864 0 0 1-.266-.642c0-.256.089-.47.266-.643a.956.956 0 0 1 .684-.26c.273 0 .499.087.677.26a.852.852 0 0 1 .273.642c0 .256-.091.47-.273.643zm2.044 3.664c0-.656.271-1.194.813-1.613.543-.424 1.235-.636 2.078-.636.839 0 1.516.185 2.031.554.515.369.809.882.881 1.538h-1.408a1.032 1.032 0 0 0-.499-.656c-.26-.16-.594-.24-1.005-.24-.414 0-.758.092-1.032.274-.273.178-.41.41-.41.697 0 .223.096.408.287.554.191.146.49.264.896.355l1.237.287c.715.164 1.239.408 1.572.732.337.323.506.756.506 1.299 0 .692-.289 1.255-.868 1.688-.579.433-1.317.65-2.215.65-.884 0-1.6-.187-2.146-.561a2.057 2.057 0 0 1-.91-1.559h1.47c.096.292.28.52.554.684.273.164.629.246 1.066.246.46 0 .836-.093 1.128-.28.292-.187.438-.429.438-.725 0-.433-.365-.736-1.094-.909l-1.299-.301c-.711-.168-1.235-.419-1.572-.752-.333-.332-.499-.774-.499-1.326zm7.41 0c0-.656.271-1.194.813-1.613.543-.424 1.235-.636 2.079-.636.838 0 1.515.185 2.03.554.515.369.809.882.882 1.538h-1.409a1.032 1.032 0 0 0-.499-.656c-.259-.16-.594-.24-1.004-.24-.415 0-.759.092-1.033.274-.273.178-.41.41-.41.697 0 .223.096.408.287.554.192.146.49.264.896.355l1.237.287c.716.164 1.24.408 1.572.732.338.323.506.756.506 1.299 0 .692-.289 1.255-.868 1.688-.579.433-1.317.65-2.215.65-.884 0-1.599-.187-2.146-.561a2.053 2.053 0 0 1-.909-1.559h1.469c.096.292.281.52.554.684.273.164.629.246 1.066.246.461 0 .837-.093 1.128-.28.292-.187.438-.429.438-.725 0-.433-.365-.736-1.094-.909l-1.299-.301c-.711-.168-1.235-.419-1.572-.752-.333-.332-.499-.774-.499-1.326zm7.745 5.339v-7.444h1.463V107h-1.463zm1.408-9.003a.944.944 0 0 1-.677.253.967.967 0 0 1-.683-.253.86.86 0 0 1-.267-.642.86.86 0 0 1 .267-.643.952.952 0 0 1 .683-.26.93.93 0 0 1 .677.26.849.849 0 0 1 .274.642c0 .256-.091.47-.274.643zm5.36 9.147c-1.094 0-1.953-.345-2.578-1.033-.624-.688-.936-1.633-.936-2.837 0-1.198.312-2.142.936-2.83.629-.688 1.488-1.032 2.578-1.032 1.084 0 1.939.344 2.563 1.032.629.688.943 1.632.943 2.83 0 1.204-.312 2.149-.936 2.837-.624.688-1.481 1.033-2.57 1.033zm0-1.306c.633 0 1.123-.223 1.469-.67.351-.451.527-1.082.527-1.894 0-.806-.176-1.433-.527-1.879-.346-.452-.836-.677-1.469-.677-.638 0-1.131.223-1.477.67-.346.446-.519 1.075-.519 1.886 0 .816.173 1.447.519 1.894.346.447.839.67 1.477.67zm5.277 1.162v-7.444h1.415v1.182h.109c.388-.884 1.128-1.326 2.222-1.326.829 0 1.465.24 1.907.718.447.478.67 1.162.67 2.051V107h-1.47v-4.45c0-1.194-.535-1.791-1.606-1.791-.542 0-.975.171-1.299.512-.319.338-.478.796-.478 1.375V107h-1.47zm20.809-3.903c0 1.262-.388 2.269-1.163 3.021-.77.748-1.802 1.121-3.096 1.121-1.399 0-2.509-.465-3.329-1.394-.821-.93-1.231-2.19-1.231-3.781 0-1.572.413-2.825 1.237-3.76.825-.938 1.928-1.407 3.309-1.407 1.121 0 2.06.296 2.816.888.757.588 1.22 1.381 1.388 2.379h-1.538c-.191-.597-.515-1.053-.971-1.367-.455-.315-1.02-.472-1.695-.472-.911 0-1.636.337-2.174 1.012-.538.67-.806 1.574-.806 2.714 0 1.162.268 2.08.806 2.755.543.67 1.279 1.005 2.208 1.005.807 0 1.463-.226 1.969-.677.506-.451.761-1.042.766-1.771v-.212h-2.543v-1.285h4.047v1.231zm1.941 3.903v-7.444h1.415v1.141h.109c.105-.369.344-.672.718-.909a2.382 2.382 0 0 1 1.292-.355c.278 0 .497.02.656.061v1.449c-.177-.059-.451-.089-.82-.089-.56 0-1.018.162-1.374.486-.351.323-.526.745-.526 1.264V107h-1.47zm8.559.144c-1.094 0-1.953-.345-2.578-1.033-.624-.688-.936-1.633-.936-2.837 0-1.198.312-2.142.936-2.83.629-.688 1.488-1.032 2.578-1.032 1.084 0 1.939.344 2.563 1.032.629.688.943 1.632.943 2.83 0 1.204-.312 2.149-.936 2.837-.624.688-1.481 1.033-2.57 1.033zm0-1.306c.633 0 1.123-.223 1.469-.67.351-.451.527-1.082.527-1.894 0-.806-.176-1.433-.527-1.879-.346-.452-.836-.677-1.469-.677-.638 0-1.131.223-1.477.67-.346.446-.52 1.075-.52 1.886 0 .816.174 1.447.52 1.894.346.447.839.67 1.477.67zm11.552-6.282V107h-1.415v-1.183h-.116c-.378.884-1.128 1.327-2.249 1.327-.82 0-1.454-.24-1.9-.718-.442-.479-.663-1.158-.663-2.037v-4.833h1.469v4.45c0 .606.126 1.055.376 1.347.255.287.652.43 1.19.43.588 0 1.041-.164 1.36-.492.319-.333.479-.793.479-1.381v-4.354h1.469zm5.995-.123c.948 0 1.7.346 2.256 1.039.556.688.834 1.622.834 2.802 0 1.181-.278 2.117-.834 2.81-.551.693-1.299 1.039-2.242 1.039-.529 0-.993-.109-1.394-.328a2.127 2.127 0 0 1-.896-.923h-.116v3.603h-1.47v-9.92h1.415v1.231h.11c.223-.424.542-.754.957-.991a2.691 2.691 0 0 1 1.38-.362zm-.417 6.371c.625 0 1.112-.224 1.463-.67.356-.451.533-1.071.533-1.86 0-.788-.177-1.406-.533-1.852-.351-.447-.836-.67-1.456-.67s-1.109.228-1.469.684c-.361.451-.541 1.066-.541 1.845 0 .775.18 1.39.541 1.846.36.451.847.677 1.462.677zm5.107-4.143c0-.656.271-1.194.813-1.613.543-.424 1.235-.636 2.078-.636.839 0 1.516.185 2.031.554.515.369.809.882.882 1.538h-1.409a1.032 1.032 0 0 0-.499-.656c-.259-.16-.594-.24-1.005-.24-.414 0-.758.092-1.032.274-.273.178-.41.41-.41.697 0 .223.096.408.287.554.192.146.49.264.896.355l1.237.287c.715.164 1.24.408 1.572.732.337.323.506.756.506 1.299 0 .692-.289 1.255-.868 1.688-.579.433-1.317.65-2.215.65-.884 0-1.599-.187-2.146-.561a2.057 2.057 0 0 1-.91-1.559h1.47c.096.292.28.52.554.684.273.164.629.246 1.066.246.461 0 .837-.093 1.128-.28.292-.187.438-.429.438-.725 0-.433-.365-.736-1.094-.909l-1.299-.301c-.711-.168-1.235-.419-1.572-.752-.333-.332-.499-.774-.499-1.326z" fill="#575757"/>
    <defs>
        <clipPath id="ho8q0f4jha">
            <path fill="#fff" transform="translate(146 179)" d="M0 0h16v16H0z"/>
        </clipPath>
        <clipPath id="44i67z6lpb">
            <path fill="#fff" transform="translate(178 216)" d="M0 0h16v16H0z"/>
        </clipPath>
        <clipPath id="to2t6g4rbc">
            <path fill="#fff" transform="translate(206 256)" d="M0 0h16v16H0z"/>
        </clipPath>
        <clipPath id="tmbdhj6hgd">
            <path fill="#fff" transform="rotate(-90 284.5 107.5)" d="M0 0h16v16H0z"/>
        </clipPath>
        <clipPath id="nn978hyzre">
            <path fill="#fff" transform="rotate(-90 304.5 126.5)" d="M0 0h16v16H0z"/>
        </clipPath>
        <clipPath id="ok5jyj2m0f">
            <path fill="#fff" transform="rotate(-90 325.5 147.5)" d="M0 0h16v16H0z"/>
        </clipPath>
        <clipPath id="gt6swrn0pg">
            <path fill="#fff" transform="translate(202 376)" d="M0 0h16v16H0z"/>
        </clipPath>
        <clipPath id="eaeva2ae1h">
            <path fill="#fff" transform="translate(202 416)" d="M0 0h16v16H0z"/>
        </clipPath>
        <clipPath id="3m0i95r4zi">
            <path fill="#fff" transform="translate(202 456)" d="M0 0h16v16H0z"/>
        </clipPath>
        <clipPath id="d85ofuarcj">
            <path fill="#fff" transform="translate(234 256)" d="M0 0h16v16H0z"/>
        </clipPath>
        <clipPath id="2yhfph1lyl">
            <path fill="#fff" transform="translate(85 253)" d="M0 0h16v16H0z"/>
        </clipPath>
        <filter id="0g6qwy3shk" x="0" y="195" width="861" height="180" filterUnits="userSpaceOnUse" color-interpolation-filters="sRGB">
            <feFlood flood-opacity="0" result="BackgroundImageFix"/>
            <feColorMatrix in="SourceAlpha" values="0 0 0 0 0 0 0 0 0 0 0 0 0 0 0 0 0 0 127 0" result="hardAlpha"/>
            <feOffset dy="24"/>
            <feGaussianBlur stdDeviation="32"/>
            <feComposite in2="hardAlpha" operator="out"/>
            <feColorMatrix values="0 0 0 0 0 0 0 0 0 0 0 0 0 0 0 0 0 0 0.13 0"/>
            <feBlend in2="BackgroundImageFix" result="effect1_dropShadow_7267_102708"/>
            <feBlend in="SourceGraphic" in2="effect1_dropShadow_7267_102708" result="shape"/>
        </filter>
    </defs>
</svg>
