<svg xmlns="http://www.w3.org/2000/svg" width="24" height="20" fill="none" viewBox="0 0 24 20"><path fill="#fff" fill-rule="evenodd" d="M8.79999 11C9.46273 11 10 11.5372 10 12.2V18.8C10 19.4628 9.46273 20 8.79999 20H1.20001C0.53727 20 0 19.4628 0 18.8V12.2C0 11.5372 0.53727 11 1.20001 11H8.79999ZM20 16V19H12V16H20ZM6.24258 15.5072C6.22756 15.5186 6.21421 15.5321 6.20297 15.5472L4.85718 17.3627C4.7914 17.4514 4.66612 17.47 4.57739 17.4042C4.5678 17.3971 4.55889 17.3891 4.55072 17.3804L3.52838 16.2915C3.45278 16.211 3.32619 16.207 3.24567 16.2826C3.23763 16.2901 3.23023 16.2984 3.22354 16.3071L1.74039 18.2513C1.67339 18.3392 1.69026 18.4646 1.77808 18.5316C1.81293 18.5582 1.85555 18.5726 1.89938 18.5726H8.42206C8.53252 18.5726 8.62204 18.4831 8.62204 18.3727C8.62204 18.3289 8.60772 18.2864 8.58124 18.2516L6.52283 15.5453C6.45596 15.4574 6.3305 15.4403 6.24258 15.5072ZM24 11V14H12V11H24ZM8.79999 0C9.46273 0 10 0.537211 10 1.19995V7.80005C10 8.46279 9.46273 9 8.79999 9H1.20001C0.53727 9 0 8.46279 0 7.80005V1.19995C0 0.537211 0.53727 0 1.20001 0H8.79999ZM20 5V8H12V5H20ZM6.24258 4.5072C6.22756 4.51862 6.21421 4.53209 6.20297 4.54724L4.85718 6.36267C4.7914 6.4514 4.66612 6.46995 4.57739 6.40417C4.5678 6.39706 4.55889 6.38907 4.55072 6.38037L3.52838 5.2915C3.45278 5.21098 3.32619 5.20699 3.24567 5.28259C3.23763 5.29014 3.23023 5.29837 3.22354 5.30713L1.74039 7.25134C1.67339 7.33917 1.69026 7.46463 1.77808 7.53162C1.81293 7.55821 1.85555 7.57263 1.89938 7.57263H8.42206C8.53252 7.57263 8.62204 7.48314 8.62204 7.37268C8.62204 7.32894 8.60772 7.2864 8.58124 7.25159L6.52283 4.54529C6.45596 4.45737 6.3305 4.44033 6.24258 4.5072ZM24 0V3H12V0H24Z" clip-rule="evenodd"/></svg>