<svg width="24" height="24" viewBox="0 0 24 24" fill="none" xmlns="http://www.w3.org/2000/svg">
<path fill-rule="evenodd" clip-rule="evenodd" d="M1 5H23V18.2H1V5ZM3.2 16V7.2H20.8V16H3.2Z" fill="#4C5664"/>
<path d="M6.29443 14.2608H6.67148V13.7258C7.52871 13.6646 8.17645 13.207 8.17645 12.4142V12.4078C8.17645 11.7117 7.7124 11.3636 6.85194 11.1638L6.67148 11.1219V9.87153C7.05819 9.92632 7.32568 10.1551 7.36757 10.5322L7.37079 10.5386L8.11845 10.5354V10.5322C8.08945 9.79419 7.50937 9.29145 6.67148 9.22377V8.68237H6.29443V9.22377C5.45332 9.28178 4.85068 9.76196 4.85068 10.4999V10.5064C4.85068 11.1767 5.30185 11.5505 6.13007 11.7407L6.29443 11.7793V13.0813C5.81103 13.0297 5.57256 12.7784 5.51777 12.4271L5.51454 12.4206L4.76688 12.4239L4.76367 12.4271C4.78944 13.207 5.44042 13.671 6.29443 13.7258V14.2608ZM5.62734 10.4484V10.4419C5.62734 10.1648 5.85615 9.9231 6.29443 9.87153V11.0349C5.81747 10.9092 5.62734 10.7191 5.62734 10.4484ZM7.3998 12.4851V12.4916C7.3998 12.8106 7.17421 13.0394 6.67148 13.0813V11.8664C7.22256 12.0049 7.3998 12.179 7.3998 12.4851Z" fill="#4C5664"/>
</svg>
