<svg width="256" height="256" viewBox="0 0 256 256" fill="none" xmlns="http://www.w3.org/2000/svg">
<path d="M236.26 123.625C237.623 123.131 238.883 122.771 240.04 122.544C241.197 122.297 242.302 122.174 243.356 122.174C246.971 122.174 249.977 123.43 252.373 125.942C254.79 128.434 255.999 131.533 255.999 135.239C255.999 139.172 254.666 142.416 252.001 144.969C249.336 147.523 245.928 148.799 241.775 148.799C238.305 148.799 235.392 148.336 233.037 147.409C230.702 146.462 229.535 145.319 229.535 143.981C229.535 143.445 229.752 142.972 230.186 142.56C230.62 142.127 231.126 141.911 231.704 141.911C231.932 141.911 233.14 142.313 235.33 143.116C237.54 143.898 239.586 144.29 241.465 144.29C244.234 144.29 246.475 143.466 248.19 141.819C249.925 140.151 250.793 138.009 250.793 135.394C250.793 132.84 249.977 130.719 248.345 129.031C246.713 127.322 244.657 126.467 242.178 126.467C240.319 126.467 238.491 126.93 236.693 127.857C234.917 128.784 233.842 129.247 233.471 129.247C232.851 129.247 232.407 129.02 232.138 128.567C231.89 128.114 231.766 127.291 231.766 126.096V110.714C231.766 110.034 231.973 109.55 232.386 109.262C232.82 108.953 233.564 108.799 234.617 108.799H250.297C251.289 108.799 252.032 109.005 252.528 109.417C253.024 109.808 253.272 110.405 253.272 111.208C253.272 111.97 253.014 112.567 252.497 113C251.981 113.411 251.247 113.617 250.297 113.617H236.26V123.625Z" fill="#4B4848"/>
<path d="M3.58297 115.457C3.31295 115.499 3.10524 115.53 2.95985 115.551C2.83522 115.571 2.72098 115.582 2.61713 115.582C1.97323 115.582 1.44357 115.406 1.02816 115.054C0.633511 114.681 0.436188 114.194 0.436188 113.594C0.436188 113.097 0.61274 112.662 0.965845 112.29C1.31895 111.917 1.82783 111.637 2.4925 111.451L11.7459 108.967C11.9744 108.904 12.1925 108.863 12.4002 108.842C12.6287 108.801 12.8572 108.78 13.0856 108.78C13.4803 108.78 13.7918 108.967 14.0203 109.339C14.2488 109.691 14.363 110.178 14.363 110.799V144.402H19.348C21.1967 144.402 22.3702 144.557 22.8687 144.868C23.3672 145.158 23.6165 145.717 23.6165 146.545C23.6165 147.29 23.4088 147.849 22.9933 148.222C22.5779 148.594 21.9548 148.781 21.124 148.781H2.4925C1.66167 148.781 1.03854 148.594 0.623126 148.222C0.207709 147.849 0 147.29 0 146.545C0 145.717 0.24925 145.158 0.747751 144.868C1.24625 144.557 2.4198 144.402 4.26841 144.402H9.44035V114.06L3.58297 115.457Z" fill="#4B4848"/>
<rect x="48.1562" y="120" width="160.517" height="16.0002" fill="#4B4848"/>
<ellipse cx="104.078" cy="128" rx="24.0776" ry="24.0003" fill="#4B4848"/>
</svg>
