<svg width="24" height="24" viewBox="0 0 24 24" fill="none" xmlns="http://www.w3.org/2000/svg">
<path d="M19.8183 8.32513H19.7359L19.7412 8.40735C19.7675 8.81797 19.9289 9.15479 20.226 9.41195L20.2263 9.4121C20.5228 9.66671 20.8964 9.79173 21.3407 9.79173C21.8263 9.79173 22.2276 9.64368 22.537 9.34302L22.5373 9.34279C22.847 9.03973 23 8.64534 23 8.16696C23 7.70418 22.8581 7.31991 22.5703 7.02103C22.2821 6.72178 21.9097 6.57357 21.46 6.57357C21.0821 6.57357 20.7738 6.67499 20.5435 6.88393L20.6518 5.66086H22.6653H22.7426V5.58359V5.07822V5.00095H22.6653H20.1384H20.0682L20.0615 5.07079L19.8136 7.63843L19.8054 7.72319H19.8904H20.4209H20.4658L20.4881 7.68425C20.573 7.53566 20.69 7.42145 20.8406 7.34039L20.8412 7.34001C20.9919 7.25694 21.163 7.21467 21.3563 7.21467C21.6348 7.21467 21.8543 7.305 22.0222 7.48242L22.0228 7.48303C22.1929 7.6589 22.2804 7.88963 22.2804 8.18264C22.2804 8.47573 22.1929 8.70523 22.023 8.87885L22.0227 8.87916C21.8554 9.05233 21.6327 9.14127 21.3469 9.14127C21.0967 9.14127 20.892 9.07172 20.7279 8.93634C20.5664 8.79942 20.4739 8.62054 20.4507 8.39452L20.4436 8.32513H20.3739H19.8183Z" fill="#4C5664" stroke="#4C5664" stroke-width="0.2"/>
<path d="M1 6.57449V6.72593L1.12262 6.63706L2.23055 5.83403V9.71353V9.7908H2.30782H2.88615H2.96342V9.71353V5.07727V5H2.88615H2.31103H2.28615L2.26594 5.01453L1.03218 5.90129L1 5.92441V5.96404V6.57449Z" fill="#4C5664" stroke="#4C5664" stroke-width="0.2"/>
<path d="M22.8185 13.578H1.18262V15.8961H22.8185V13.578Z" fill="#4C5664"/>
<path d="M7.75063 18.2143C9.67103 18.2143 11.2278 16.6575 11.2278 14.7371C11.2278 12.8167 9.67103 11.2599 7.75063 11.2599C5.83023 11.2599 4.27344 12.8167 4.27344 14.7371C4.27344 16.6575 5.83023 18.2143 7.75063 18.2143Z" fill="#4C5664"/>
</svg>
