<svg xmlns="http://www.w3.org/2000/svg" width="72" height="76" fill="none"><rect width="56" height="16" x="8" y="29" fill="#fff" rx="8"/><circle cx="44" cy="37" r="3.5" fill="#fff" stroke="#CC3D00"/><rect width="31" height="4" x="14" y="35" fill="#FFBFA1" rx="2"/><rect width="14" height="4" x="44" y="35" fill="#E3E8EF" rx="2"/><path stroke="#CC3D00" stroke-linecap="round" stroke-linejoin="round" d="M14.5 54.5h2m2 0h-2m-2-3 2-1v4M43.5 54.5v0a2 2 0 0 0 2-2v0m0 0v-1a1 1 0 0 0-1-1h-2a1 1 0 0 0-1 1v0a1 1 0 0 0 1 1h3Z"/></svg>