<svg width="159" height="150" viewBox="0 0 159 150" fill="none" xmlns="http://www.w3.org/2000/svg">
<path d="M2 149.411C1.17157 149.411 0.5 148.739 0.5 147.911C0.5 147.082 1.17157 146.411 2 146.411V149.411ZM131.13 70.3717L129.805 69.6676L131.13 70.3717ZM146.88 0.939346C147.466 0.353561 148.416 0.353561 149.002 0.939346L158.548 10.4853C159.133 11.0711 159.133 12.0208 158.548 12.6066C157.962 13.1924 157.012 13.1924 156.426 12.6066L147.941 4.12132L139.456 12.6066C138.87 13.1924 137.92 13.1924 137.334 12.6066C136.749 12.0208 136.749 11.0711 137.334 10.4853L146.88 0.939346ZM2 146.411C4.80648 146.411 7.26294 146.588 9.84737 146.446L10.0114 149.441C7.34652 149.587 4.50932 149.411 2 149.411V146.411ZM9.84737 146.446C12.4206 146.305 14.9366 145.9 17.6387 145.601L17.9681 148.583C15.4652 148.86 12.6876 149.295 10.0114 149.441L9.84737 146.446ZM17.6387 145.601C20.1984 145.319 22.7989 144.904 25.3931 144.484L25.8733 147.445C23.2845 147.865 20.6135 148.291 17.9681 148.583L17.6387 145.601ZM25.3931 144.484C27.9946 144.062 30.576 143.648 33.097 143.095L33.7402 146.025C31.1226 146.6 28.4547 147.026 25.8733 147.445L25.3931 144.484ZM33.097 143.095C35.6156 142.542 38.0719 141.791 40.6627 141.079L41.4574 143.972C38.9761 144.653 36.3603 145.45 33.7402 146.025L33.097 143.095ZM40.6627 141.079C43.3314 140.346 45.7636 139.851 48.2241 139.024L49.179 141.868C46.6337 142.723 43.8609 143.311 41.4574 143.972L40.6627 141.079ZM48.2241 139.024C50.7417 138.179 53.2084 137.365 55.6062 136.401L56.7254 139.184C54.2283 140.188 51.6671 141.033 49.179 141.868L48.2241 139.024ZM55.6062 136.401C58.0447 135.42 60.4652 134.414 62.8235 133.324L64.0823 136.047C61.6564 137.168 59.1819 138.196 56.7254 139.184L55.6062 136.401ZM62.8235 133.324C65.1668 132.24 67.4436 130.995 69.7913 129.745L71.2014 132.393C68.8977 133.62 66.5232 134.918 64.0823 136.047L62.8235 133.324ZM69.7913 129.745C72.0713 128.531 74.2673 127.159 76.5557 125.781L78.103 128.351C75.873 129.694 73.5727 131.13 71.2014 132.393L69.7913 129.745ZM76.5557 125.781C78.7799 124.442 80.9574 123 83.1313 121.524L84.8169 124.005C82.6275 125.492 80.3972 126.97 78.103 128.351L76.5557 125.781ZM83.1313 121.524C85.2836 120.062 87.3862 118.52 89.463 116.929L91.2874 119.311C89.1781 120.927 87.028 122.504 84.8169 124.005L83.1313 121.524ZM89.463 116.929C91.5306 115.346 93.548 113.693 95.5394 112.001L97.4817 114.287C95.4641 116.001 93.4061 117.688 91.2874 119.311L89.463 116.929ZM95.5394 112.001C96.5878 111.11 97.7138 110.293 98.7531 109.518C99.8128 108.727 100.803 107.964 101.692 107.123L103.755 109.302C102.728 110.274 101.614 111.126 100.547 111.922C99.4603 112.733 98.4378 113.475 97.4817 114.287L95.5394 112.001ZM101.692 107.123C102.582 106.281 103.398 105.335 104.247 104.323C105.079 103.329 105.958 102.252 106.907 101.252L109.083 103.318C108.216 104.231 107.416 105.211 106.546 106.249C105.692 107.269 104.781 108.33 103.755 109.302L101.692 107.123ZM106.907 101.252C107.858 100.251 108.892 99.3197 109.843 98.44C110.814 97.543 111.717 96.6826 112.513 95.7496L114.795 97.6964C113.874 98.776 112.856 99.7401 111.88 100.643C110.885 101.563 109.948 102.407 109.083 103.318L106.907 101.252ZM112.513 95.7496C113.308 94.8173 114.013 93.7907 114.742 92.692C115.458 91.6148 116.21 90.4461 117.044 89.3471L119.434 91.1609C118.673 92.163 117.991 93.2225 117.242 94.3513C116.507 95.4588 115.717 96.6161 114.795 97.6964L112.513 95.7496ZM117.044 89.3471C117.863 88.2682 118.742 87.2213 119.561 86.2195C120.392 85.2028 121.179 84.2119 121.881 83.1757L124.364 84.8589C123.583 86.0122 122.725 87.0892 121.884 88.1182C121.03 89.1621 120.209 90.1389 119.434 91.1609L117.044 89.3471ZM121.881 83.1757C123.34 81.0233 124.503 78.8194 125.925 76.4634L128.493 78.0141C127.192 80.1698 125.874 82.6324 124.364 84.8589L121.881 83.1757ZM125.925 76.4634C127.278 74.2231 128.581 71.9698 129.805 69.6676L132.454 71.0758C131.197 73.4401 129.865 75.7428 128.493 78.0141L125.925 76.4634ZM129.805 69.6676C131.09 67.2518 132.371 65.0934 133.469 62.7383L136.188 64.0057C135.049 66.4498 133.651 68.8252 132.454 71.0758L129.805 69.6676ZM133.469 62.7383C134.566 60.3841 135.526 57.9796 136.502 55.5202L139.29 56.6272C138.318 59.0776 137.328 61.5607 136.188 64.0057L133.469 62.7383ZM136.502 55.5202C137.516 52.9667 138.561 50.6956 139.387 48.2322L142.231 49.1859C141.374 51.7429 140.226 54.271 139.29 56.6272L136.502 55.5202ZM139.387 48.2322C139.785 47.0449 140.093 45.8228 140.396 44.5476C140.694 43.2908 140.993 41.9578 141.357 40.6448L144.248 41.4469C143.903 42.6883 143.626 43.9318 143.315 45.2406C143.009 46.5308 142.675 47.8631 142.231 49.1859L139.387 48.2322ZM141.357 40.6448C141.724 39.3233 142.169 38.0247 142.574 36.7966C142.984 35.5489 143.36 34.3507 143.631 33.1342L146.559 33.7859C146.254 35.157 145.838 36.4745 145.423 37.7343C145.002 39.0136 144.59 40.2141 144.248 41.4469L141.357 40.6448ZM143.631 33.1342C143.902 31.9129 144.078 30.6661 144.24 29.3667C144.4 28.0873 144.55 26.727 144.766 25.3821L147.728 25.8578C147.523 27.1336 147.384 28.3996 147.217 29.7382C147.053 31.0567 146.863 32.4197 146.559 33.7859L143.631 33.1342ZM144.766 25.3821C144.981 24.0412 145.255 22.7098 145.499 21.4411C145.747 20.1554 145.969 18.9083 146.106 17.6505L149.089 17.9754C148.938 19.3605 148.696 20.7065 148.445 22.0084C148.191 23.3272 147.933 24.5779 147.728 25.8578L144.766 25.3821ZM146.106 17.6505C146.39 15.0443 146.301 12.6535 146.443 9.83116L149.439 9.98183C149.315 12.4452 149.381 15.2959 149.089 17.9754L146.106 17.6505ZM146.443 9.83116C146.574 7.23213 146.441 4.76108 146.441 2H149.441C149.441 4.54678 149.574 7.29512 149.439 9.98183L146.443 9.83116Z" fill="#CDD5DF"/>
</svg>
