<svg width="116" height="100" viewBox="0 0 116 100" fill="none" xmlns="http://www.w3.org/2000/svg">
<g clip-path="url(#clip0_369_78097)">
<path d="M4.8535 65.131C4.8535 60.002 4.91123 60.002 4.91123 54.8812C4.91123 49.7604 4.63086 49.7521 4.63086 44.6231C4.63086 39.494 4.81227 39.494 4.81227 34.3732C4.81227 29.2524 4.81227 29.2442 4.81227 24.1151C4.81227 18.9861 4.71332 18.9861 4.71332 13.857C4.71332 9.89065 7.96227 6.79013 11.9286 6.79013C16.8845 6.79013 16.8845 6.76539 21.8404 6.76539C26.7963 6.76539 26.7963 6.86435 31.7522 6.86435C36.708 6.86435 36.708 6.82312 41.6639 6.82312C46.6198 6.82312 46.6198 6.82312 51.5757 6.82312C56.5316 6.82312 56.5316 6.79013 61.4875 6.79013C66.4433 6.79013 66.4433 6.77364 71.4075 6.77364C76.3716 6.77364 76.3633 6.50977 81.3275 6.50977C85.2938 6.50977 88.4438 9.88241 88.4438 13.8488C88.4438 18.9778 88.3531 18.9778 88.3531 24.0986C88.3531 29.2194 88.551 29.2277 88.551 34.3567C88.551 39.4858 88.551 39.4858 88.551 44.6066C88.551 49.7274 88.551 49.7356 88.551 54.8647C88.551 59.9937 88.6912 59.9937 88.6912 65.1228C88.6912 69.0891 85.3021 72.1649 81.3357 72.1649C76.3798 72.1649 76.3798 72.3958 71.424 72.3958C66.4681 72.3958 66.4681 72.1979 61.5122 72.1979C56.5563 72.1979 56.5563 72.1237 51.6004 72.1237C46.6445 72.1237 46.6445 72.1319 41.6887 72.1319C36.7328 72.1319 36.7328 72.437 31.7769 72.437C26.821 72.437 26.821 72.2309 21.8569 72.2309C16.8928 72.2309 16.901 72.1897 11.9369 72.1897C7.97052 72.1897 4.87 69.0891 4.87 65.1228L4.8535 65.131Z" fill="#EDEBFC"/>
<path d="M18.3114 91.7905C18.3114 86.6615 18.0063 86.6615 18.0063 81.5407C18.0063 76.4199 17.998 76.4116 17.998 71.2826C17.998 66.1535 18.0558 66.1535 18.0558 61.0327C18.0558 55.9119 18.2619 55.9037 18.2619 50.7746C18.2619 45.6456 18.0888 45.6456 18.0888 40.5165C18.0888 36.5502 21.3707 33.2023 25.3453 33.2023C30.3012 33.2023 30.3012 33.4579 35.2571 33.4579C40.2129 33.4579 40.2129 33.4331 45.1688 33.4331C50.1247 33.4331 50.1247 33.5156 55.0806 33.5156C60.0365 33.5156 60.0365 33.1445 64.9924 33.1445C69.9482 33.1445 69.9482 33.5074 74.9041 33.5074C79.86 33.5074 79.86 33.3507 84.8241 33.3507C89.7883 33.3507 89.78 33.161 94.7441 33.161C98.7105 33.161 102.133 36.5502 102.133 40.5165C102.133 45.6456 102.025 45.6456 102.025 50.7664C102.025 55.8872 102.05 55.8954 102.05 61.0245C102.05 66.1535 101.976 66.1535 101.976 71.2743C101.976 76.3951 102.116 76.4034 102.116 81.5324C102.116 86.6615 101.959 86.6615 101.959 91.7905C101.959 95.7569 98.7105 99.0471 94.7441 99.0471C89.7883 99.0471 89.7883 98.8656 84.8324 98.8656C79.8765 98.8656 79.8765 98.9976 74.9206 98.9976C69.9647 98.9976 69.9647 99.0883 65.0089 99.0883C60.053 99.0883 60.053 98.8327 55.0971 98.8327C50.1412 98.8327 50.1412 98.8821 45.1853 98.8821C40.2294 98.8821 40.2294 98.9646 35.2653 98.9646C30.3012 98.9646 30.3094 98.8574 25.3453 98.8574C21.3789 98.8574 18.3196 95.7651 18.3196 91.7988L18.3114 91.7905Z" stroke="#602DED" stroke-width="1.33329" stroke-miterlimit="10" stroke-dasharray="6 6"/>
<path d="M26.9788 64.2722C24.5132 64.2722 23.2763 64.2475 22.0394 64.231C20.7942 64.2063 19.5491 64.1898 17.0588 64.1898C14.5685 64.1898 13.4305 64.1238 12.1689 64.0496C10.932 63.9836 9.65381 63.9094 7.13876 63.9094C3.83209 63.9094 1.24283 61.3696 1.24283 58.1207C1.24283 55.5314 1.19335 54.2203 1.14387 52.9421C1.0944 51.697 1.04492 50.4024 1.04492 47.8626C1.04492 45.3228 1.11914 44.1106 1.2016 42.8077C1.27581 41.5296 1.35827 40.202 1.35827 37.6045C1.35827 35.007 1.28406 33.6876 1.21809 32.4095C1.14387 31.1066 1.07791 29.8779 1.07791 27.3546C1.07791 24.8313 1.13563 23.5284 1.19335 22.2833C1.25107 21.0051 1.3088 19.694 1.3088 17.0965C1.3088 14.499 1.28406 13.2291 1.25932 11.9427C1.23458 10.6646 1.20984 9.38645 1.20984 6.83841C1.20984 3.57297 3.87332 0.909495 7.15525 0.909495C9.62083 0.909495 10.8577 0.934234 12.0864 0.950726C13.3316 0.975464 14.5767 0.991956 17.067 0.991956C19.5573 0.991956 20.8025 0.967218 22.0476 0.94248C23.2846 0.917741 24.5132 0.893003 26.9788 0.893003C29.4444 0.893003 30.706 0.876511 31.9512 0.860019C33.1881 0.843527 34.425 0.827035 36.8906 0.827035C39.3561 0.827035 40.5271 0.884757 41.7887 0.94248C43.0256 1.0002 44.2955 1.06617 46.8023 1.06617C49.3091 1.06617 50.5708 1.02494 51.7994 0.991956C53.0116 0.950726 54.2568 0.917742 56.7141 0.917742C59.1714 0.917742 60.4908 0.868265 61.7195 0.827035C62.9234 0.785805 64.1768 0.736328 66.6341 0.736328C69.0914 0.736328 70.3531 0.761066 71.5652 0.794051C72.7939 0.818789 74.0556 0.851773 76.5541 0.851773C79.8361 0.851773 82.5078 3.53999 82.5078 6.83841C82.5078 9.38645 82.4748 10.6811 82.4501 11.9345C82.4171 13.2044 82.3923 14.5073 82.3923 17.0883C82.3923 19.6693 82.4666 21.0051 82.5408 22.2833C82.615 23.5862 82.6809 24.8148 82.6809 27.3381C82.6809 29.8614 82.6067 31.0901 82.5325 32.393C82.4583 33.6711 82.3841 34.9905 82.3841 37.588C82.3841 40.1855 82.3758 41.4306 82.3594 42.7088C82.3511 43.9952 82.3346 45.2816 82.3346 47.8461C82.3346 50.4106 82.3676 51.7382 82.3923 53.0081C82.4253 54.2615 82.4501 55.5562 82.4501 58.1124C82.4501 61.4603 79.8031 64.1815 76.5459 64.1815C74.0803 64.1815 72.8434 64.165 71.6065 64.1403C70.3613 64.1238 69.1162 64.0991 66.6341 64.0991C64.152 64.0991 62.9234 64.0991 61.6865 64.0908C60.4496 64.0908 59.2044 64.0826 56.7306 64.0826C54.2568 64.0826 53.0199 64.0826 51.7829 64.0743C50.546 64.0743 49.3009 64.0661 46.8188 64.0661C44.3368 64.0661 43.1163 64.0413 41.8877 64.0166C40.6425 63.9919 39.3974 63.9671 36.9071 63.9671C34.4167 63.9671 33.1139 64.0414 31.877 64.1238C30.6235 64.198 29.4361 64.2722 26.9953 64.2722H26.9788Z" fill="white"/>
<path d="M66.6167 1.97382C69.0658 1.97382 70.3109 1.99856 71.5231 2.03154C72.7517 2.05628 74.0299 2.08926 76.5367 2.08926C79.0435 2.08926 81.2534 4.22499 81.2534 6.84724C81.2534 9.46949 81.2204 10.6734 81.1957 11.9186C81.1627 13.1885 81.138 14.5078 81.138 17.1053C81.138 19.7029 81.2122 21.0799 81.2864 22.3746C81.3606 23.661 81.4266 24.8731 81.4266 27.3634C81.4266 29.8538 81.3606 31.0659 81.2864 32.3441C81.2122 33.6387 81.138 34.9746 81.138 37.6133C81.138 40.252 81.1297 41.4477 81.1133 42.7259C81.105 44.0122 81.0885 45.2986 81.0885 47.8796C81.0885 50.4607 81.1215 51.7883 81.1462 53.0664C81.1792 54.3116 81.204 55.6062 81.204 58.1377C81.204 60.8012 79.1095 62.9699 76.5367 62.9699C73.9639 62.9699 72.826 62.9534 71.622 62.9287C70.3934 62.9122 69.1235 62.8875 66.6249 62.8875C64.1264 62.8875 62.9142 62.8875 61.6773 62.8792C60.4404 62.8792 59.1952 62.871 56.7132 62.871C54.2311 62.871 53.0024 62.871 51.7655 62.8627C50.5204 62.8627 49.2834 62.8545 46.8014 62.8545C44.3193 62.8545 43.0989 62.8298 41.895 62.805C40.6663 62.7803 39.3882 62.7555 36.8896 62.7555C34.3911 62.7555 33.0387 62.838 31.7853 62.9122C30.5484 62.9864 29.3857 63.0606 26.9778 63.0606C24.57 63.0606 23.2671 63.0359 22.0632 63.0194C20.8345 62.9947 19.5646 62.9782 17.0578 62.9782C14.551 62.9782 13.479 62.9122 12.2421 62.838C10.9887 62.7638 9.6941 62.6896 7.14607 62.6896C4.59804 62.6896 2.48704 60.7353 2.48704 58.1377C2.48704 55.5402 2.43757 54.1961 2.38809 52.918C2.33862 51.6234 2.28914 50.4029 2.28914 47.8879C2.28914 45.3728 2.36335 44.1937 2.43757 42.9073C2.52003 41.6126 2.60249 40.2685 2.60249 37.6298C2.60249 34.9911 2.52827 33.6634 2.45406 32.3688C2.37985 31.0824 2.31388 29.8702 2.31388 27.3799C2.31388 24.8896 2.3716 23.6527 2.42108 22.3581C2.4788 21.0717 2.53652 19.7358 2.53652 17.1218C2.53652 14.5078 2.51178 13.2132 2.48704 11.9433C2.46231 10.6982 2.43757 9.40352 2.43757 6.86373C2.43757 4.32395 4.54856 2.17172 7.14607 2.17172C9.6034 2.17172 10.8486 2.19646 12.0607 2.21295C13.2894 2.23769 14.5593 2.25418 17.0578 2.25418C19.5564 2.25418 20.8345 2.22945 22.0632 2.20471C23.2671 2.17997 24.5123 2.15523 26.9696 2.15523C29.4269 2.15523 30.7298 2.13874 31.9585 2.12225C33.1706 2.10576 34.4158 2.08926 36.8814 2.08926C39.3469 2.08926 40.4767 2.14699 41.7218 2.20471C42.967 2.26243 44.2616 2.3284 46.8014 2.3284C49.3412 2.3284 50.5946 2.28717 51.8315 2.25418C53.0849 2.21295 54.2723 2.17997 56.7132 2.17997C59.154 2.17997 60.5228 2.13049 61.768 2.08926C63.0214 2.03979 64.2006 1.99856 66.6332 1.99856M66.6332 -0.475262C61.6773 -0.475262 61.6773 -0.293848 56.7132 -0.293848C51.749 -0.293848 51.7573 -0.137173 46.8014 -0.137173C41.8455 -0.137173 41.8455 -0.376309 36.8896 -0.376309C31.9337 -0.376309 31.9337 -0.310341 26.9778 -0.310341C22.022 -0.310341 22.022 -0.211388 17.0661 -0.211388C12.1102 -0.211388 12.1102 -0.293848 7.15432 -0.293848C3.17147 -0.326833 -0.0362506 2.87264 -0.0362506 6.839C-0.0362506 11.968 0.0627021 11.968 0.0627021 17.0971C0.0627021 22.2261 -0.168188 22.2261 -0.168188 27.3634C-0.168188 32.5007 0.112179 32.4925 0.112179 37.6133C0.112179 42.7341 -0.201172 42.7424 -0.201172 47.8714C-0.201172 53.0005 0.00497968 53.0005 0.00497968 58.1213C0.00497968 62.0876 3.16322 65.1469 7.13782 65.1469C12.0937 65.1469 12.0937 65.4273 17.0578 65.4273C22.022 65.4273 22.0137 65.518 26.9778 65.518C31.942 65.518 31.9337 65.2129 36.8896 65.2129C41.8455 65.2129 41.8455 65.3118 46.8014 65.3118C51.7573 65.3118 51.7573 65.3283 56.7132 65.3283C61.669 65.3283 61.669 65.3448 66.6249 65.3448C71.5808 65.3448 71.5808 65.4273 76.5367 65.4273C80.503 65.4273 83.6778 62.0959 83.6778 58.1213C83.6778 52.9922 83.5623 52.9922 83.5623 47.8632C83.5623 42.7341 83.6036 42.7341 83.6036 37.6051C83.6036 32.476 83.9004 32.476 83.9004 27.3552C83.9004 22.2344 83.6118 22.2261 83.6118 17.0971C83.6118 11.968 83.7272 11.968 83.7272 6.84724C83.7272 2.88089 80.5113 -0.384555 76.5367 -0.384555C71.5808 -0.384555 71.5808 -0.5 66.6167 -0.5L66.6332 -0.475262Z" fill="#80949C"/>
<path d="M9.56293 56.282C9.56293 56.282 9.57943 56.1831 9.57943 56.1418C9.57943 51.4086 9.69487 51.4086 9.69487 46.6754C9.69487 41.9421 9.71961 41.9421 9.71961 37.2089C9.71961 32.4756 9.67013 32.4756 9.67013 27.7424C9.67013 23.0092 9.55469 23.0092 9.55469 18.2759C9.55469 13.5427 9.74435 13.5427 9.74435 8.80944C9.74435 8.70224 9.72785 8.59504 9.82681 8.59504C15.162 8.59504 15.162 8.80119 20.4972 8.80119C25.8324 8.80119 25.8324 8.42188 31.1676 8.42188C36.5028 8.42188 36.5028 8.50434 41.8463 8.50434C45.4031 8.50434 48.9599 8.50434 52.5167 8.50434C57.8601 8.50434 57.8601 8.80119 63.1953 8.80119C68.5305 8.80119 68.5388 8.59504 73.874 8.59504C73.9729 8.59504 74.0554 8.65277 74.0719 8.68575C74.0884 8.71049 74.0142 8.75996 74.0142 8.79295C74.0142 13.5262 74.1791 13.5262 74.1791 18.2594C74.1791 22.9927 73.8822 22.9927 73.8822 27.7259C73.8822 32.4591 73.9482 32.4591 73.9482 37.1924C73.9482 41.9256 74.1791 41.9256 74.1791 46.6589C74.1791 51.3921 73.9647 51.3921 73.9647 56.1253C73.9647 56.2325 73.9647 56.4964 73.8657 56.4964C68.5305 56.4964 68.5305 56.2161 63.1953 56.2161C57.8601 56.2161 57.8601 56.414 52.5249 56.414C47.1897 56.414 47.1897 56.1501 41.8463 56.1418C36.5028 56.1336 36.5111 56.2161 31.1759 56.2161C25.8407 56.2161 25.8324 56.414 20.4972 56.414C15.162 56.414 15.1538 56.1996 9.81856 56.1996C9.71961 56.1996 9.58767 56.2903 9.56293 56.2573V56.282Z" stroke="#80949C" stroke-width="1.33329" stroke-miterlimit="10"/>
<path d="M68.0914 95.0967C71.0682 91.0232 71.2414 91.1468 74.21 87.0733C77.1785 82.9997 77.2033 83.0162 80.1801 78.9427C80.6171 78.3407 81.3016 77.9037 82.0355 78.0191C87.0161 78.7942 86.9913 78.9757 91.972 79.7508C96.9526 80.5259 96.9608 80.4764 101.941 81.2598C103.846 81.5567 104.951 79.2725 103.582 77.9119C100.02 74.3496 99.9789 74.3826 96.4166 70.8203C92.8543 67.258 92.9862 67.1178 89.4239 63.5555C85.8616 59.9932 85.7957 60.0592 82.2251 56.4969C78.6546 52.9264 78.7288 52.8604 75.1582 49.2981C71.5877 45.7358 71.5712 45.744 68.0089 42.1817C66.7555 40.9283 64.5621 41.8189 64.5621 43.5918C64.5621 48.6302 64.5126 48.6301 64.5126 53.6767C64.5126 58.7233 64.595 58.7151 64.595 63.7617C64.595 68.8083 64.595 68.8 64.595 73.8466C64.595 78.8932 64.5703 78.8932 64.5703 83.9315C64.5703 88.9699 64.4219 88.9781 64.4219 94.0165C64.4219 95.9461 66.9452 96.6552 68.0749 95.0967H68.0914Z" fill="#253135"/>
</g>
<defs>
<clipPath id="clip0_369_78097">
<rect width="116" height="100" fill="white"/>
</clipPath>
</defs>
</svg>
