<svg width="268" height="220" viewBox="0 0 268 220" fill="none" xmlns="http://www.w3.org/2000/svg">
<path d="M136.469 154.451C130.652 156.954 130.425 156.426 124.609 158.929C118.792 161.433 118.651 161.099 112.835 163.602C107.018 166.106 107.234 166.613 101.417 169.128C95.6001 171.631 95.6864 171.836 89.8697 174.34C84.4306 176.682 78.2577 176.034 72.9913 173.304C67.3148 170.369 67.2068 170.563 61.5304 167.628C55.8539 164.692 55.7459 164.908 50.0694 161.962C44.393 159.016 44.2958 159.21 38.6085 156.264C32.932 153.318 33.3745 152.465 27.6872 149.53C24.0828 147.663 24.0828 143.087 27.8059 141.479C33.6227 138.975 33.4608 138.598 39.2776 136.094C45.0944 133.59 45.0405 133.482 50.8573 130.979C56.674 128.475 57.0086 129.263 62.8254 126.748C68.6422 124.234 68.4047 123.694 74.2215 121.19C79.6606 118.849 86.0601 118.892 91.3266 121.622C97.003 124.557 97.0246 124.525 102.701 127.46C106.485 129.417 110.273 131.371 114.065 133.32C119.741 136.267 119.374 136.968 125.062 139.914C130.738 142.86 130.717 142.914 136.393 145.85C139.998 147.717 140.192 152.854 136.469 154.451Z" fill="#ECE6F3"/>
<path d="M183.326 149.919C177.132 149.703 177.121 149.779 170.927 149.563C164.732 149.347 164.711 149.681 158.516 149.466C152.322 149.25 152.311 149.358 146.116 149.142C139.922 148.926 139.933 148.462 133.738 148.246C127.544 148.03 127.522 148.44 121.327 148.225C115.133 148.009 115.122 147.976 108.928 147.761C102.733 147.545 102.733 147.318 96.5386 147.102C90.3333 146.886 90.3441 146.757 84.1388 146.541C77.9335 146.325 77.9335 146.519 71.7282 146.304C70.9512 146.282 70.3253 146.66 70.3253 147.426C70.3253 152.779 70.2713 152.779 70.2713 158.131C70.2713 161.7 70.2498 165.268 70.2066 168.837C70.0447 170.661 70.8109 172.916 72.6995 173.887C78.3112 176.79 78.5595 176.305 84.1604 179.208C89.7614 182.111 89.934 181.776 95.5458 184.679C101.158 187.582 100.834 188.208 106.435 191.111C110.176 193.047 113.917 194.982 117.658 196.917C123.281 199.831 130.08 200.058 135.896 197.543C141.638 195.072 141.551 194.878 147.293 192.406C153.034 189.935 152.883 189.579 158.613 187.107C164.344 184.636 164.603 185.197 170.344 182.726C176.085 180.255 175.977 179.985 181.718 177.514C183.553 176.726 184.06 175.139 184.147 173.423C184.19 167.887 184.298 167.887 184.298 162.351C184.298 156.815 184.513 156.815 184.524 151.279C184.524 150.545 184.082 149.919 183.348 149.897L183.326 149.919Z" fill="#D5E1E6"/>
<path d="M183.305 150.426C177.11 150.21 177.132 149.616 170.927 149.4C164.732 149.185 164.721 149.271 158.527 149.055C152.332 148.839 152.332 148.785 146.127 148.569C139.932 148.354 139.922 148.699 133.716 148.483C127.522 148.267 127.522 148.246 121.317 148.03C115.111 147.814 115.133 147.382 108.928 147.167C102.733 146.951 102.722 147.156 96.517 146.94C90.3117 146.724 90.3117 146.67 84.1064 146.454C77.9011 146.238 77.9119 145.861 71.7066 145.645C70.9296 145.623 70.2821 146.638 70.2821 147.404C70.2821 152.757 69.8936 152.757 69.8936 158.109C69.8936 163.462 70.2497 163.462 70.1741 168.815C70.0123 170.639 71.0483 172.355 72.9368 173.337C78.5486 176.24 78.6565 176.013 84.2683 178.916C89.88 181.819 89.6642 182.218 95.2651 185.121C100.866 188.024 100.963 187.841 106.575 190.744C112.187 193.647 112.1 193.809 117.701 196.723C123.324 199.636 130.144 200.316 135.961 197.812C141.702 195.341 141.292 194.402 147.033 191.92C152.775 189.449 152.861 189.643 158.591 187.172C164.333 184.7 164.527 185.143 170.268 182.672C176.009 180.2 176.107 180.416 181.848 177.945C183.682 177.157 183.952 175.128 184.039 173.423C184.082 167.887 184.147 167.887 184.147 162.351C184.147 156.814 184.093 156.814 184.103 151.278C184.103 150.544 184.006 150.426 183.262 150.404L183.305 150.426Z" fill="#D5E1E6"/>
<path d="M183.316 150.252C177.121 150.036 177.132 149.594 170.937 149.378C164.743 149.162 164.721 149.659 158.516 149.443C152.311 149.227 152.354 148.299 146.149 148.083C139.954 147.867 139.922 148.763 133.727 148.547C127.533 148.331 127.544 147.867 121.349 147.651C115.144 147.436 115.133 147.749 108.938 147.533C102.744 147.317 102.766 146.561 96.5711 146.346C90.3658 146.13 90.3334 147.047 84.1281 146.831C77.9228 146.615 77.912 146.831 71.7175 146.615C70.9405 146.594 70.5628 146.637 70.5628 147.414C70.5628 152.767 70.0771 152.767 70.0771 158.12C70.0771 163.472 70.8973 163.483 70.8326 168.836C70.6707 170.66 70.7354 173.045 72.6348 174.027C78.2466 176.93 78.4192 176.595 84.0202 179.498C89.6211 182.401 89.7398 182.174 95.3516 185.077C100.963 187.98 100.704 188.477 106.316 191.38C111.928 194.283 112.252 193.657 117.863 196.56C123.486 199.474 130.123 200.143 135.95 197.628C141.692 195.157 141.778 195.351 147.519 192.869C153.26 190.398 153.293 190.473 159.034 188.002C164.775 185.531 164.635 185.196 170.376 182.725C176.118 180.254 175.999 179.973 181.74 177.491C183.575 176.703 184.665 175.149 184.751 173.433C184.794 167.897 184.514 167.897 184.514 162.361C184.514 156.824 184.967 156.824 184.967 151.288C184.967 150.554 184.093 150.263 183.359 150.241L183.316 150.252Z" fill="#D5E1E6"/>
<path d="M183.305 150.468C177.11 150.252 177.11 150.036 170.916 149.82C164.721 149.605 164.721 149.561 158.516 149.346C152.322 149.13 152.343 148.396 146.138 148.18C139.943 147.964 139.922 148.547 133.727 148.331C127.533 148.115 127.544 147.802 121.338 147.586C115.133 147.371 115.111 148.094 108.906 147.878C102.712 147.662 102.733 146.831 96.5387 146.615C90.3335 146.399 90.3334 146.302 84.1389 146.086C77.9337 145.871 77.9229 146.281 71.7176 146.065C70.9406 146.043 69.8506 146.648 69.8506 147.425C69.8506 152.777 70.7031 152.777 70.7031 158.13C70.7031 163.483 70.0125 163.483 69.9477 168.836C69.7858 170.659 70.8542 172.807 72.7536 173.789C78.3653 176.692 78.5056 176.411 84.1066 179.314C89.7075 182.217 89.4917 182.638 95.0926 185.541C100.704 188.444 100.834 188.185 106.446 191.088C112.057 193.991 112.23 193.657 117.842 196.56C123.464 199.473 129.918 199.722 135.735 197.218C141.476 194.747 141.443 194.671 147.185 192.2C152.926 189.728 153.174 190.3 158.905 187.829C164.646 185.358 164.506 185.023 170.247 182.541C175.988 180.07 175.913 179.876 181.654 177.404C183.488 176.616 184.039 175.16 184.125 173.454C184.168 167.918 184.352 167.918 184.363 162.382C184.373 156.846 184.33 156.846 184.33 151.31C184.33 150.576 184.06 150.5 183.327 150.479L183.305 150.468Z" fill="#D5E1E6"/>
<path d="M71.7176 146.151C70.9406 146.118 70.5844 146.647 70.5844 147.424C70.5844 152.777 70.4226 152.777 70.4226 158.13C70.4226 163.482 70.3254 163.482 70.2607 168.835C70.0988 170.659 70.9729 172.558 72.8615 173.54C78.4732 176.443 78.5704 176.238 84.1821 179.141C89.7831 182.044 89.5672 182.476 95.1682 185.379C100.78 188.282 100.942 187.958 106.554 190.861C112.165 193.764 112.219 193.667 117.82 196.57C120.864 198.146 124.09 199.117 127.436 199.117C129.054 192.933 127.511 192.728 127.511 186.34C127.511 179.951 127.295 179.951 127.295 173.562C127.295 167.173 127.716 167.173 127.716 160.774C127.716 154.374 131.957 152.54 127.328 148.126C122.277 143.313 120.497 147.856 113.525 147.619C106.564 147.381 106.554 147.457 99.5928 147.219C92.6213 146.982 92.6321 146.593 85.6606 146.377C78.6891 146.162 78.6783 146.377 71.7176 146.14V146.151Z" fill="#ABBBC1"/>
<path d="M127.026 173.767C124.198 173.767 121.511 173.12 119.04 171.836C116.234 170.379 114.842 169.58 113.482 168.803C112.101 168.015 110.676 167.195 107.806 165.706C104.903 164.206 103.359 163.569 101.87 162.954C100.381 162.339 98.9672 161.756 96.1937 160.321C93.3878 158.864 91.9849 158.065 90.6251 157.299C89.2437 156.511 87.8192 155.702 84.9486 154.213C82.1535 152.767 80.8369 151.979 79.4448 151.148C78.0742 150.328 76.6497 149.475 73.7683 147.975C72.6459 147.392 71.9984 146.421 72.0416 145.363C72.074 144.306 72.797 143.378 73.9517 142.881C76.8547 141.629 78.3116 141.025 79.7685 140.421C81.2362 139.816 82.7039 139.201 85.6177 137.949C88.6286 136.654 90.0639 135.759 91.4561 134.906C92.805 134.075 94.0785 133.287 96.8735 132.079L108.507 127.06C111.302 125.852 112.748 125.485 114.281 125.086C115.867 124.675 117.507 124.255 120.529 122.949C122.979 121.891 125.493 121.352 127.976 121.352C130.695 121.352 133.307 121.988 135.735 123.251C138.649 124.762 140.224 125.366 141.735 125.949C143.235 126.532 144.649 127.071 147.412 128.507C150.185 129.942 151.48 130.762 152.84 131.625C154.2 132.489 155.613 133.374 158.506 134.884C161.376 136.374 162.865 137.064 164.312 137.734C165.725 138.392 167.182 139.061 169.999 140.518C172.762 141.953 174.046 142.784 175.395 143.669C176.755 144.554 178.157 145.471 181.071 146.982C182.28 147.608 183.035 148.871 182.992 150.198C182.971 150.748 182.766 152.087 181.266 152.734C178.427 153.954 176.992 154.407 175.481 154.893C173.949 155.378 172.373 155.885 169.395 157.159C166.524 158.4 165.099 158.929 163.589 159.49C162.11 160.04 160.578 160.612 157.642 161.875C154.761 163.116 153.315 163.731 151.869 164.346C150.401 164.972 148.933 165.598 145.998 166.861C143.052 168.134 141.584 168.846 140.17 169.548C138.724 170.26 137.364 170.929 134.494 172.17C132.076 173.206 129.573 173.735 127.026 173.735V173.767Z" fill="white"/>
<path d="M127.997 123.003C130.447 123.003 132.81 123.586 135.012 124.719C138.012 126.273 139.62 126.888 141.174 127.493C142.631 128.054 144.012 128.593 146.688 129.975C149.397 131.378 150.66 132.176 151.998 133.018C153.39 133.903 154.825 134.809 157.793 136.342C160.696 137.842 162.207 138.543 163.664 139.223C165.121 139.903 166.502 140.54 169.286 141.975C171.984 143.367 173.225 144.177 174.542 145.04C175.934 145.947 177.37 146.885 180.359 148.429C181.157 148.839 181.416 149.616 181.406 150.155C181.373 150.943 180.834 151.181 180.661 151.256C177.898 152.443 176.506 152.886 175.017 153.361C173.452 153.857 171.833 154.375 168.779 155.692C165.941 156.911 164.538 157.44 163.049 157.99C161.549 158.551 160.005 159.123 157.027 160.408C154.113 161.659 152.667 162.285 151.21 162.901C149.753 163.526 148.296 164.142 145.393 165.393C142.415 166.678 140.926 167.411 139.49 168.113C138.066 168.814 136.717 169.473 133.889 170.703C131.677 171.653 129.378 172.138 127.058 172.138C124.49 172.138 122.051 171.545 119.817 170.39C117.043 168.955 115.716 168.199 114.324 167.39C112.932 166.591 111.485 165.76 108.582 164.26C105.615 162.728 104.039 162.08 102.517 161.454C101.061 160.85 99.6792 160.289 96.9705 158.886C94.1862 157.451 92.8696 156.695 91.4667 155.897C90.0745 155.098 88.6284 154.278 85.7254 152.778C82.9735 151.353 81.6785 150.576 80.3079 149.756C78.9158 148.925 77.4697 148.051 74.5451 146.54C73.9839 146.249 73.671 145.849 73.6926 145.429C73.7033 145.008 74.0487 144.619 74.6314 144.371C77.5129 143.13 78.9913 142.515 80.4159 141.932C81.862 141.328 83.362 140.713 86.2974 139.45C89.427 138.101 90.9055 137.184 92.3516 136.299C93.6466 135.5 94.8661 134.745 97.5533 133.579L103.467 131.032L109.187 128.561C111.863 127.406 113.255 127.05 114.723 126.672C116.374 126.251 118.069 125.809 121.209 124.46C123.464 123.489 125.752 123.003 128.019 123.003M128.019 119.766C125.299 119.766 122.558 120.359 119.925 121.492C114.108 123.996 113.719 123.089 107.903 125.593C104.025 127.262 100.147 128.935 96.269 130.611C90.4522 133.115 90.83 133.978 85.0132 136.482C79.1964 138.986 79.164 138.9 73.3472 141.414C69.624 143.022 69.4622 147.565 73.0558 149.432C78.7323 152.378 78.5489 152.724 84.2362 155.67C89.9127 158.616 89.7939 158.843 95.4812 161.778C101.158 164.714 101.417 164.217 107.093 167.163C112.77 170.099 112.651 170.347 118.328 173.282C121.079 174.707 124.058 175.397 127.058 175.397C129.81 175.397 132.562 174.815 135.174 173.703C140.99 171.199 140.861 170.897 146.678 168.394C152.494 165.89 152.505 165.911 158.322 163.408C164.139 160.904 164.257 161.195 170.074 158.692C175.891 156.188 176.139 156.771 181.956 154.256C185.679 152.648 185.463 147.447 181.87 145.58C176.193 142.633 176.485 142.062 170.808 139.126C165.132 136.18 165.002 136.439 159.315 133.493C153.638 130.557 153.897 130.061 148.221 127.126C142.544 124.19 142.221 124.805 136.544 121.87C133.825 120.467 130.943 119.787 128.04 119.787L128.019 119.766Z" fill="#D5E1E6"/>
<path d="M176.517 165.468C177.499 165.004 178.589 165.587 178.934 166.753C179.28 167.918 178.729 169.235 177.747 169.699C176.765 170.163 175.707 169.602 175.362 168.436C175.017 167.271 175.524 165.943 176.517 165.479V165.468Z" fill="#81AA68"/>
<path d="M176.517 165.468C177.499 165.004 178.589 165.587 178.934 166.753C179.28 167.918 178.729 169.235 177.747 169.699C176.765 170.163 175.707 169.602 175.362 168.436C175.017 167.271 175.524 165.943 176.517 165.479V165.468Z" stroke="white" stroke-width="1.33331" stroke-miterlimit="10"/>
<path d="M72.8076 173.648C78.4841 176.584 78.7647 176.044 84.4412 178.99C90.1177 181.926 90.0853 181.991 95.7618 184.926C101.438 187.861 101.32 188.109 106.996 191.056C112.673 194.002 112.446 194.444 118.122 197.38C123.389 200.11 129.788 200.045 135.227 197.703C141.044 195.2 141.077 195.275 146.893 192.772C152.71 190.268 152.743 190.343 158.549 187.84C164.365 185.336 164.344 185.282 170.161 182.768C175.977 180.253 175.977 180.253 181.794 177.749" stroke="#80949C" stroke-width="1.33331" stroke-linecap="round" stroke-linejoin="round"/>
<path d="M127.382 198.793C127.382 190.354 127.436 190.354 127.436 181.926" stroke="#80949C" stroke-width="1.33331" stroke-linecap="round" stroke-linejoin="round"/>
<g opacity="0.1">
<path d="M161.474 143.595C155.657 146.099 155.592 145.948 149.775 148.451C143.958 150.955 144.077 151.214 138.26 153.718C132.444 156.221 132.584 156.545 126.767 159.049C120.95 161.553 120.691 160.948 114.874 163.452C109.435 165.794 103.435 165.632 98.1687 162.902C91.8555 159.578 91.8016 159.696 85.4991 156.362C79.1967 153.027 79.0025 153.405 72.6892 150.081C69.0848 148.214 69.3762 142.527 73.0993 140.919C78.9161 138.415 79.1104 138.879 84.9272 136.364C90.744 133.85 90.4849 133.267 96.2909 130.764C102.097 128.26 102.237 128.54 108.054 126.037C113.871 123.533 113.979 123.781 119.796 121.277C125.235 118.936 131.472 118.644 136.739 121.364C143.052 124.688 142.998 124.774 149.3 128.109C155.603 131.443 155.614 131.422 161.916 134.746C165.52 136.613 165.186 141.987 161.463 143.595H161.474Z" fill="#231F20"/>
</g>
<path d="M212.476 100.266C206.281 100.05 206.259 100.492 200.065 100.277C193.87 100.061 193.881 99.5643 187.687 99.3485C181.492 99.1326 181.481 99.1974 175.287 98.9816C169.092 98.7657 169.092 98.6902 162.898 98.4851C156.703 98.2801 156.671 99.0571 150.477 98.8413C144.282 98.6254 144.282 98.4204 138.077 98.2045C131.871 97.9887 131.893 97.4707 125.699 97.2549C119.504 97.039 119.472 97.7081 113.266 97.4923C107.061 97.2764 107.083 96.7045 100.877 96.4886C100.1 96.4671 99.9385 97.406 99.9385 98.183C99.9385 103.536 98.9888 103.536 98.9888 108.888C98.9888 114.241 99.8197 114.252 99.7442 119.605C99.5823 121.429 100.143 123.285 102.032 124.256C107.644 127.159 107.536 127.364 113.137 130.267C118.738 133.17 118.867 132.933 124.468 135.836C130.069 138.739 130.134 138.631 135.746 141.534C141.357 144.437 141.109 144.901 146.721 147.815C152.344 150.728 158.98 150.329 164.808 147.815C170.549 145.343 170.528 145.289 176.269 142.818C182.01 140.347 182.086 140.541 187.827 138.059C193.568 135.577 193.439 135.274 199.18 132.803C204.921 130.332 205.115 130.774 210.857 128.292C212.691 127.504 213.199 125.896 213.285 124.191C213.328 118.655 214.17 118.655 214.17 113.119C214.17 107.583 214.073 107.583 214.083 102.046C214.083 101.313 213.22 100.277 212.486 100.255L212.476 100.266Z" fill="#FCBA44"/>
<path d="M100.856 96.7031C100.079 96.6707 99.6362 97.3938 99.6362 98.1708C99.6362 103.524 99.334 103.524 99.334 108.876C99.334 114.229 99.6685 114.229 99.6038 119.593C99.4419 121.416 100.143 123.273 102.032 124.255C107.644 127.158 107.741 126.953 113.353 129.856C118.964 132.759 118.964 132.748 124.565 135.651C130.166 138.554 130.037 138.813 135.648 141.727C141.26 144.64 141.336 144.478 146.947 147.381C149.991 148.957 153.498 149.95 156.854 149.95C158.473 143.766 156.38 143.496 156.38 137.108C156.38 130.719 156.466 130.719 156.466 124.33C156.466 117.941 156.649 117.941 156.649 111.542C156.649 105.142 161.387 103.006 156.757 98.5917C151.707 93.7785 149.645 98.2355 142.674 97.9981C135.702 97.7607 135.692 98.1168 128.731 97.8686C121.77 97.6204 121.759 97.7823 114.788 97.5017C107.816 97.2211 107.827 96.9513 100.856 96.7139V96.7031Z" fill="#F9A619"/>
<path d="M102.205 123.91C107.881 126.846 107.612 127.385 113.288 130.32C118.965 133.256 118.824 133.526 124.501 136.461C130.177 139.396 130.166 139.418 135.854 142.364C141.541 145.31 141.67 145.03 147.358 147.976C152.624 150.706 158.916 150.749 164.355 148.408C170.172 145.904 170.269 146.141 176.086 143.638C181.902 141.134 181.687 140.648 187.503 138.145C193.32 135.641 193.417 135.867 199.234 133.353C205.051 130.849 205.202 131.195 211.019 128.691" stroke="#E19622" stroke-width="1.33331" stroke-linecap="round" stroke-linejoin="round"/>
<path d="M156.099 124.612C153.261 124.612 150.573 123.964 148.124 122.702C145.275 121.223 143.839 120.511 142.415 119.788C140.99 119.076 139.566 118.353 136.738 116.896C133.965 115.46 132.691 114.64 131.342 113.755C129.983 112.881 128.58 111.964 125.677 110.464C122.763 108.953 121.187 108.349 119.676 107.755C118.176 107.172 116.763 106.622 114 105.197C111.183 103.74 109.769 102.953 108.41 102.197C107.028 101.431 105.593 100.632 102.733 99.1431C101.363 98.4309 100.92 96.9848 100.953 95.8624C100.996 94.5027 101.697 93.4019 102.809 92.927C105.679 91.6968 107.104 91.168 108.604 90.6068C110.082 90.0564 111.615 89.4953 114.572 88.2218C117.41 86.9916 118.845 86.5167 120.367 86.0203C121.878 85.5131 123.443 84.9951 126.421 83.7108C129.378 82.4374 130.835 81.7036 132.249 80.9913C133.684 80.2683 135.044 79.5884 137.904 78.3581C140.839 77.0955 142.307 76.3832 143.721 75.7033C145.113 75.0342 146.548 74.3435 149.429 73.1025C151.372 72.2607 153.476 71.8398 155.667 71.8398C158.678 71.8398 161.851 72.66 164.84 74.2033C167.775 75.7249 169.373 76.2969 170.905 76.8472C172.416 77.3868 173.84 77.9048 176.582 79.3186C179.409 80.7863 180.801 81.5417 182.204 82.2971C183.618 83.0633 185.032 83.8295 187.881 85.308C190.719 86.7757 192.133 87.5204 193.546 88.265C194.96 89.0096 196.385 89.7543 199.223 91.2219C202.029 92.6788 203.421 93.4774 204.77 94.2544C206.151 95.053 207.576 95.8732 210.446 97.3625C211.612 97.9668 212.324 99.2834 212.281 100.719C212.238 102.035 211.558 103.104 210.479 103.579C207.597 104.82 206.119 105.402 204.673 105.964C203.205 106.536 201.694 107.129 198.759 108.392C195.91 109.622 194.485 110.097 192.974 110.615C191.464 111.122 189.899 111.651 186.931 112.935C183.952 114.219 182.506 115.007 181.093 115.763C179.69 116.529 178.362 117.241 175.513 118.46C172.664 119.691 171.229 120.176 169.718 120.694C168.207 121.212 166.653 121.741 163.685 123.025C161.279 124.061 158.656 124.612 156.11 124.612H156.099Z" fill="white"/>
<path d="M155.646 73.4583C158.398 73.4583 161.311 74.2138 164.074 75.6383C167.107 77.2031 168.747 77.7967 170.344 78.3686C171.801 78.8974 173.182 79.3938 175.826 80.7644C178.632 82.2213 180.046 82.9875 181.417 83.7322C182.809 84.4876 184.255 85.2754 187.125 86.7539C189.964 88.2215 191.377 88.9662 192.791 89.7108C194.205 90.4555 195.629 91.2001 198.468 92.6678C201.241 94.1031 202.558 94.8693 203.95 95.6679C205.342 96.4773 206.788 97.3083 209.691 98.8083C210.436 99.1968 210.673 100.049 210.652 100.675C210.641 100.999 210.533 101.798 209.821 102.1C206.961 103.33 205.558 103.88 204.069 104.463C202.59 105.035 201.068 105.64 198.112 106.913C195.327 108.111 193.924 108.586 192.446 109.082C190.903 109.6 189.316 110.14 186.284 111.446C183.24 112.751 181.751 113.561 180.316 114.338C178.945 115.082 177.65 115.784 174.866 116.982C172.071 118.19 170.668 118.665 169.189 119.172C167.657 119.701 166.06 120.241 163.038 121.547C160.837 122.496 158.441 123.004 156.11 123.004C153.531 123.004 151.102 122.421 148.879 121.277C146.019 119.798 144.563 119.065 143.149 118.352C141.757 117.651 140.311 116.928 137.483 115.46C134.785 114.057 133.533 113.259 132.217 112.406C130.825 111.51 129.389 110.582 126.411 109.039C123.411 107.485 121.803 106.87 120.249 106.265C118.792 105.704 117.41 105.165 114.723 103.773C111.928 102.326 110.59 101.582 109.165 100.794C107.773 100.017 106.327 99.2184 103.446 97.7183C102.744 97.3514 102.518 96.5528 102.539 95.9377C102.55 95.5924 102.658 94.7506 103.424 94.4268C106.252 93.2074 107.655 92.6894 109.144 92.139C110.644 91.5886 112.198 91.0058 115.187 89.7216C117.971 88.5237 119.364 88.0597 120.853 87.5632C122.396 87.0452 123.993 86.5164 127.037 85.2106C130.037 83.9156 131.515 83.171 132.951 82.4479C134.364 81.7357 135.702 81.0666 138.519 79.8471C141.487 78.5629 142.976 77.8506 144.401 77.1599C145.836 76.4693 147.196 75.811 150.045 74.5915C151.782 73.8361 153.671 73.4583 155.635 73.4583M155.635 70.2208C153.304 70.2208 150.984 70.6633 148.761 71.6129C142.944 74.1166 143.052 74.3649 137.235 76.8686C131.418 79.3723 131.569 79.7176 125.752 82.2213C119.936 84.725 119.72 84.2286 113.914 86.7323C108.097 89.236 107.967 88.9338 102.151 91.4375C98.4275 93.0455 98.3628 98.722 101.967 100.578C107.644 103.524 107.557 103.686 113.245 106.632C118.921 109.579 119.245 108.953 124.921 111.899C130.598 114.834 130.317 115.385 135.994 118.32C141.67 121.255 141.703 121.191 147.39 124.137C150.12 125.55 153.099 126.23 156.11 126.23C158.894 126.23 161.7 125.648 164.322 124.514C170.139 122.011 170.333 122.453 176.15 119.949C181.967 117.446 181.74 116.928 187.557 114.413C193.374 111.91 193.579 112.384 199.385 109.881C205.202 107.377 205.288 107.571 211.094 105.068C214.817 103.46 214.774 97.7939 211.17 95.9269C205.493 92.9807 205.623 92.7217 199.946 89.7756C194.27 86.8294 194.28 86.8078 188.604 83.8617C182.927 80.9263 182.981 80.8076 177.305 77.8722C171.628 74.9368 171.24 75.6923 165.553 72.7461C162.434 71.1273 159.024 70.1992 155.635 70.1992V70.2208Z" fill="#FFCD6E"/>
<path d="M205.666 116.228C206.648 115.764 207.738 116.336 208.083 117.501C208.428 118.667 207.878 119.994 206.896 120.458C205.914 120.922 204.846 120.35 204.511 119.185C204.176 118.019 204.684 116.692 205.666 116.228Z" fill="#81AA68"/>
<path d="M205.666 116.228C206.648 115.764 207.738 116.336 208.083 117.501C208.428 118.667 207.878 119.994 206.896 120.458C205.914 120.922 204.846 120.35 204.511 119.185C204.176 118.019 204.684 116.692 205.666 116.228Z" stroke="white" stroke-width="1.33331" stroke-miterlimit="10"/>
<path d="M156.423 149.421C156.423 144.371 156.423 139.32 156.423 134.27" stroke="#E19622" stroke-width="1.33331" stroke-linecap="round" stroke-linejoin="round"/>
<g opacity="0.1">
<path d="M190.6 94.3089C184.784 96.8126 184.999 97.3198 179.193 99.8235C173.387 102.327 173.344 102.252 167.538 104.755C161.732 107.259 161.678 107.162 155.861 109.676C150.045 112.191 150.088 112.277 144.271 114.781C138.832 117.123 132.53 116.464 127.263 113.734C120.95 110.41 120.993 110.346 114.691 107.011C108.388 103.676 108.431 103.601 102.129 100.277C98.5245 98.4097 98.7619 93.8016 102.485 92.1937C106.363 90.5245 110.237 88.8518 114.108 87.1755C119.925 84.6718 119.838 84.4883 125.655 81.9846C131.472 79.4809 131.537 79.632 137.353 77.1283C143.17 74.6246 143.03 74.29 148.847 71.7863C154.286 69.4445 160.459 69.7251 165.725 72.4446C172.038 75.7685 172.103 75.6282 178.406 78.9629C184.708 82.2976 184.827 82.0601 191.14 85.3948C194.744 87.2618 194.334 92.7117 190.611 94.3089H190.6Z" fill="#231F20"/>
</g>
<path d="M241.602 50.6549C235.408 50.439 235.418 50.0073 229.224 49.7915C223.029 49.5757 222.986 50.6333 216.792 50.4174C210.597 50.2016 210.63 49.2735 204.424 49.0577C198.219 48.8418 198.219 48.9174 192.025 48.7015C185.83 48.4857 185.808 49.0253 179.603 48.8095C173.398 48.5936 173.419 48.108 167.214 47.8922C161.009 47.6763 161.02 47.4713 154.825 47.2554C148.631 47.0396 148.609 47.4281 142.404 47.2123C136.199 46.9964 136.188 47.4497 129.982 47.2338C129.205 47.2123 128.299 47.4389 128.299 48.2159C128.299 53.5686 128.763 53.5686 128.763 58.9214C128.763 64.2741 128.31 64.2741 128.245 69.6269C128.083 71.4507 129.054 73.7493 130.943 74.7206C136.555 77.6236 136.522 77.6668 142.134 80.5698C147.746 83.4728 147.832 83.2893 153.433 86.1923C159.034 89.0953 159.174 88.8471 164.775 91.7501C170.376 94.6531 170.15 95.1171 175.751 98.0201C181.373 100.934 188.42 101.074 194.237 98.5597C199.978 96.0884 199.654 95.333 205.396 92.8616C211.137 90.3903 211.374 90.9515 217.116 88.4802C222.857 86.0088 222.749 85.739 228.49 83.2677C234.231 80.7964 234.069 80.4187 239.811 77.9474C241.645 77.1595 242.487 75.9401 242.573 74.2242C242.617 68.688 243.156 68.688 243.167 63.1518C243.178 57.6156 242.39 57.6156 242.39 52.0794C242.39 51.3455 242.325 50.6764 241.591 50.6549H241.602Z" fill="#D5E1E6"/>
<path d="M130.004 46.7158C129.227 46.6835 128.601 47.4281 128.601 48.1943C128.601 53.5471 128.536 53.5471 128.536 58.8998C128.536 64.2525 128.676 64.2525 128.601 69.6053C128.439 71.4291 129.346 73.1666 131.234 74.1378C136.846 77.0408 136.759 77.1919 142.371 80.0949C147.983 82.9979 148.048 82.8468 153.659 85.7498C159.271 88.6528 159.131 88.9118 164.743 91.8148C170.354 94.7178 170.354 94.7178 175.955 97.6208C178.999 99.1964 182.333 99.8655 185.679 99.8655C187.298 93.6818 185.895 93.4876 185.895 87.0988C185.895 80.71 186.024 80.71 186.024 74.3213C186.024 67.9325 185.668 67.9325 185.668 61.533C185.668 55.1334 190.546 52.9751 185.916 48.572C180.866 43.7589 178.772 48.7771 171.801 48.5396C164.84 48.3022 164.851 47.9137 157.879 47.6763C150.908 47.4389 150.918 47.3094 143.947 47.0288C136.975 46.7482 136.965 46.9425 130.004 46.6942V46.7158Z" fill="#ABBBC1"/>
<path d="M131.202 74.2148C136.878 77.1502 136.77 77.3768 142.447 80.3122C148.123 83.2476 148.07 83.3663 153.746 86.3017C159.422 89.2371 159.692 88.7298 165.369 91.6652C171.045 94.6006 170.7 95.2913 176.376 98.2266C181.643 100.957 188.183 101.054 193.622 98.7123C199.439 96.2086 199.266 95.8093 205.083 93.3056C210.899 90.8019 210.824 90.64 216.641 88.1363C222.457 85.6326 222.663 86.0966 228.479 83.5929C234.296 81.0892 234.372 81.2619 240.188 78.7474" stroke="#80949C" stroke-width="1.33331" stroke-linecap="round" stroke-linejoin="round"/>
<path d="M186.434 74.4628C183.488 74.4628 180.423 73.6749 177.542 72.1857C174.682 70.7072 173.203 69.9949 171.779 69.3043C170.376 68.6244 168.919 67.9229 166.102 66.466C163.188 64.9552 161.634 64.34 160.124 63.7465C158.623 63.1529 157.21 62.5918 154.447 61.1672C151.63 59.7103 150.217 58.9225 148.846 58.1671C147.465 57.4009 146.029 56.6023 143.17 55.1238C140.375 53.6777 139.069 52.8899 137.687 52.0482C136.317 51.2172 134.903 50.3646 132.011 48.8646C130.899 48.2926 130.284 47.3645 130.327 46.3177C130.37 45.2385 131.094 44.2888 132.291 43.7708C135.238 42.4974 136.705 41.7743 138.119 41.0729C139.565 40.3606 140.925 39.6807 143.785 38.4505C146.709 37.1878 148.155 36.5295 149.612 35.8712C151.048 35.2237 152.472 34.5654 155.364 33.3244C158.321 32.0509 159.778 31.3171 161.192 30.6048C162.627 29.8818 163.987 29.2019 166.847 27.9608C169.739 26.7198 171.218 26.1262 172.653 25.5435C174.11 24.9607 175.61 24.3564 178.545 23.0937C180.79 22.1224 183.304 21.6152 185.808 21.6152C188.765 21.6152 191.679 22.3167 194.247 23.6441C197.053 25.101 198.381 25.8672 199.783 26.6874C201.165 27.486 202.579 28.317 205.46 29.8062C208.244 31.2523 209.55 32.0509 210.931 32.8927C212.302 33.7237 213.716 34.587 216.608 36.0871C219.489 37.5763 221 38.2562 222.457 38.9037C223.936 39.562 225.338 40.1879 228.134 41.6448C230.939 43.1017 232.267 43.868 233.67 44.6881C235.051 45.4867 236.476 46.3177 239.346 47.807C240.479 48.3897 241.138 49.361 241.105 50.3754C241.073 51.3899 240.382 52.264 239.217 52.7604L227.583 57.7678C224.659 59.0305 223.212 59.678 221.766 60.3363C220.331 60.9838 218.896 61.6313 216.004 62.8831C213.101 64.135 211.644 64.7501 210.187 65.3545C208.719 65.9696 207.262 66.5847 204.348 67.8366C201.402 69.11 199.935 69.8331 198.521 70.5237C197.075 71.236 195.715 71.9051 192.844 73.1462C190.815 74.0203 188.657 74.4628 186.434 74.4628Z" fill="white"/>
<path d="M185.797 23.2443C188.495 23.2443 191.161 23.881 193.503 25.1005C196.265 26.5358 197.582 27.2913 198.963 28.1006C200.356 28.91 201.802 29.7518 204.715 31.2626C207.457 32.6764 208.741 33.4642 210.09 34.2844C211.482 35.1369 212.917 36.011 215.863 37.5327C218.788 39.0435 220.32 39.7342 221.799 40.3925C223.256 41.04 224.637 41.666 227.4 43.0905C230.173 44.5258 231.479 45.292 232.871 46.0906C234.263 46.9 235.71 47.731 238.613 49.2418C239.174 49.5332 239.508 49.9433 239.497 50.321C239.487 50.6771 239.141 51.0333 238.591 51.2707C235.688 52.5225 234.231 53.1484 232.785 53.7744C231.328 54.4003 229.871 55.0262 226.957 56.2781C224.022 57.5407 222.544 58.2098 221.108 58.8573C219.705 59.494 218.248 60.1523 215.378 61.3934C212.486 62.6452 211.029 63.2496 209.572 63.8647C208.104 64.4799 206.636 65.095 203.712 66.3576C200.733 67.6419 199.244 68.3757 197.809 69.0772C196.384 69.7786 195.035 70.4369 192.208 71.6672C190.384 72.455 188.441 72.8543 186.434 72.8543C183.747 72.8543 180.93 72.1312 178.286 70.7607C175.405 69.2714 173.916 68.5484 172.48 67.8577C171.023 67.1562 169.642 66.4871 166.847 65.041C163.868 63.4978 162.271 62.8611 160.728 62.2567C159.271 61.6848 157.89 61.1344 155.203 59.7422C152.408 58.2961 151.069 57.5515 149.645 56.7637C148.253 55.9867 146.807 55.1881 143.925 53.6988C141.184 52.2743 139.889 51.4973 138.529 50.6771C137.137 49.8354 135.691 48.9612 132.756 47.4396C132.216 47.159 131.925 46.7813 131.946 46.382C131.957 45.9395 132.324 45.5294 132.928 45.2704C135.918 43.9862 137.396 43.2524 138.831 42.5401C140.256 41.8386 141.594 41.1695 144.422 39.9501C147.357 38.6874 148.835 38.0075 150.271 37.36C151.674 36.7233 153.12 36.065 156.001 34.8239C159.001 33.5289 160.48 32.7843 161.915 32.0612C163.329 31.349 164.667 30.6799 167.484 29.4604C170.354 28.2194 171.757 27.6582 173.257 27.0646C174.725 26.4819 176.236 25.8775 179.182 24.6041C181.232 23.7192 183.52 23.2551 185.797 23.2551M185.797 20.0176C183.099 20.0176 180.401 20.5572 177.898 21.6364C172.081 24.1401 172.016 23.989 166.199 26.4927C160.383 28.9964 160.534 29.3525 154.717 31.8562C148.9 34.3599 148.954 34.4786 143.137 36.9823C137.321 39.486 137.45 39.799 131.644 42.3027C127.921 43.9107 127.662 48.454 131.266 50.321C136.943 53.2672 136.749 53.6449 142.436 56.5802C148.112 59.5264 148.037 59.6775 153.713 62.6237C159.39 65.559 159.692 64.9871 165.368 67.9332C171.045 70.8686 171.131 70.7067 176.808 73.6529C179.862 75.2285 183.153 76.1134 186.445 76.1134C188.83 76.1134 191.215 75.6494 193.503 74.6673C199.32 72.1636 199.19 71.8615 205.007 69.3578C210.824 66.8541 210.845 66.908 216.662 64.4043C222.479 61.9006 222.425 61.7927 228.242 59.289C232.119 57.6199 235.997 55.9507 239.875 54.2816C243.598 52.6736 243.706 48.2598 240.102 46.4036C234.425 43.4574 234.566 43.1876 228.878 40.2522C223.202 37.3061 223.029 37.6406 217.342 34.6944C211.665 31.7591 211.87 31.3598 206.194 28.4244C200.517 25.489 200.658 25.1976 194.981 22.2623C192.132 20.7946 188.97 20.05 185.797 20.05V20.0176Z" fill="#D5E1E6"/>
<path d="M234.814 66.2609C235.796 65.7968 236.865 66.3688 237.199 67.5343C237.534 68.6998 237.016 70.0056 236.034 70.4697C235.052 70.9337 233.994 70.3833 233.649 69.207C233.303 68.0307 233.832 66.7249 234.814 66.2609Z" fill="#81AA68"/>
<path d="M234.814 66.2609C235.796 65.7968 236.865 66.3688 237.199 67.5343C237.534 68.6998 237.016 70.0056 236.034 70.4697C235.052 70.9337 233.994 70.3833 233.649 69.207C233.303 68.0307 233.832 66.7249 234.814 66.2609Z" stroke="white" stroke-width="1.33331" stroke-miterlimit="10"/>
<path d="M204.782 50.0948C202.98 48.8106 202.775 48.7998 204.404 48.2387C204.588 48.1739 204.534 47.9904 204.717 47.9041C205.775 47.3537 206.876 46.4364 207.232 45.7565C207.998 44.2889 207.329 42.724 206.088 43.8896C203.25 46.5551 203.109 48.0876 201.695 45.9292C198.89 39.7779 191.95 33.8208 188.443 33.4215C178.871 32.3639 174.694 37.803 174.662 37.9109C174.662 37.9325 174.759 37.8785 174.748 37.8893C173.842 38.2131 172.957 38.7634 172.018 39.2922C170.302 40.2419 169.579 41.3427 169.46 42.3895C160.33 44.7853 151.827 45.9616 165.208 53.041C166.514 53.7317 171.694 55.9224 176.777 57.5304C182.734 59.419 188.368 60.5845 187.547 57.6815C186.997 55.7174 185.983 55.5987 186.824 53.8828C188.033 53.7857 189.091 53.3971 189.846 52.8468C189.878 52.8252 189.814 53.0734 189.846 53.0842C190.073 53.2353 190.245 53.2137 190.569 53.354C190.861 54.6814 191.411 54.4439 189.878 55.8793C188.335 57.3362 190.58 57.4872 191.584 57.1635C192.803 56.775 195.544 55.4476 194.627 53.2137C194.584 53.0734 194.476 53.3864 194.627 53.4079C195.382 53.3864 197.659 54.6706 199.321 55.5663C200.983 56.462 202.472 57.5412 203.649 57.8865C204.814 58.2319 207.35 59.0736 209.336 57.1743C210.998 55.5879 212.153 54.077 204.998 49.7711" fill="black"/>
<path d="M210.361 58.9014C209.541 59.3763 208.343 59.4087 206.789 59.3655C205.289 59.3331 203.962 59.3115 203.195 59.0633C203.077 59.0202 203.055 58.6748 202.98 58.6532C201.587 58.2431 199.936 57.5741 197.94 56.4949C197.648 56.333 197.443 55.9661 197.12 55.7934C196.925 55.6855 196.407 55.6099 196.17 55.4804C195.609 56.4625 194.616 57.6388 192.781 58.2216C192.274 58.3834 191.627 58.3079 191.076 58.3619C190.634 58.405 190.019 58.3295 189.673 58.2971C189.63 59.5813 188.626 60.1965 187.806 60.4015C186.339 60.7792 184.32 60.4015 181.515 59.7972C179.54 59.3763 177.112 58.9878 174.414 58.0813C169.741 56.5057 165.241 54.5523 163.902 53.8401C159.694 51.6062 157.676 49.4154 158.042 47.2787C158.355 45.5088 160.373 44.1598 163.773 42.8216C165.219 42.2497 166.406 41.505 167.313 41.2784C167.69 40.1237 168.834 39.2496 170.431 38.3538C171.284 37.879 172.19 37.5013 173.086 37.1667C173.593 36.5408 174.651 35.289 176.41 34.3069C179.712 32.4507 183.964 31.6413 188.551 32.1485C190.288 32.3428 193.191 33.4543 197.087 36.9941C199.494 39.1848 201.663 41.7317 203.077 44.257C203.454 44.0195 203.962 43.9548 204.523 43.4368C204.836 43.1346 204.998 42.7461 205.365 42.6058C206.131 42.2928 207.134 42.131 207.998 42.4116C210.512 43.2209 209.411 45.498 209.066 46.1563C208.634 46.9873 207.491 48.0233 206.174 48.714C206.142 48.7248 206.174 48.7895 206.142 48.8111C206.023 48.8651 205.98 48.8327 205.883 48.9298C205.937 48.973 206.044 49.0377 206.098 49.0701C206.185 49.1349 206.249 49.2428 206.336 49.3075C209.973 51.5091 211.71 53.1818 212.325 54.6387C212.973 56.1819 212.239 57.1855 211.311 58.0705C211.052 58.3187 210.771 58.6748 210.361 58.9122V58.9014ZM194.152 52.1674C195.673 52.135 197.022 53.171 199.569 54.5739C199.871 54.7466 200.368 54.5523 200.649 54.7034C201.49 55.1567 203.325 56.5165 204.372 56.8294C204.523 56.8726 204.717 56.7863 204.879 56.8294C206.185 57.2503 206.886 57.5848 207.76 56.7431C208.527 56.0092 208.883 55.3078 208.624 54.6926C208.235 53.7753 206.174 52.6098 203.26 50.8508C202.85 50.1493 205.526 50.4191 204.857 49.9766C204.145 49.5126 204.016 50.1493 203.217 50.4407C203.098 50.3543 203.066 50.5162 202.958 50.4407C201.89 49.6852 201.307 49.1133 201.436 48.3363C201.523 47.8506 201.706 47.5053 202.213 47.2679C201.404 47.2247 200.864 46.9765 200.627 46.8794C200.238 46.7283 200.131 46.9117 199.807 46.6419C199.591 46.4693 199.936 46.2534 199.818 45.9944C198.598 43.3073 196.062 40.6525 193.45 38.2783C190.526 35.6127 188.691 34.7494 188.324 34.7062C180.716 33.8644 177.166 37.9977 176.799 38.4725C176.766 38.5157 176.917 38.6344 176.885 38.6776C176.691 38.8718 176.734 38.9798 176.507 39.1308C176.356 39.228 176.259 39.0985 176.097 39.1524C175.266 39.4438 174.478 39.9079 173.669 40.3611C172.396 41.0626 171.403 41.6669 171.306 42.5626C171.262 42.908 171.737 43.0591 171.467 43.2641C171.036 43.5987 170.96 43.5231 170.421 43.631C168.316 44.0627 162.575 45.5412 162.176 47.8614C161.96 49.1349 163.46 50.6997 166.449 52.2861C167.485 52.8364 171.845 54.5955 176.389 56.1064C182.648 58.1892 185.205 58.3187 185.648 58.1892C185.669 58.1568 185.691 57.9841 185.605 57.6604C185.044 55.6747 184.806 53.9156 184.795 53.8401C184.709 53.3329 184.288 53.2897 184.698 52.9767C185.389 52.4587 185.432 52.7393 186.285 52.6746C186.878 52.6314 187.245 52.5019 187.655 52.2969C187.86 51.0018 186.533 50.009 187.849 49.955C190.029 49.8579 189.598 50.9803 191.4 52.2213C191.465 52.2645 191.573 52.3508 191.799 52.4479C192.22 52.6314 192.242 52.5343 192.565 52.858C192.781 53.0631 192.684 53.0415 192.749 53.3329C192.749 53.3329 192.835 53.4408 192.835 53.4516C193.655 53.3113 193.99 53.7645 194.594 53.1926C194.972 52.8364 193.806 52.3832 194.152 52.1781V52.1674Z" fill="black"/>
<path d="M206.346 44.1597C203.508 46.8253 203.012 48.1419 201.587 45.9943C198.781 39.843 191.95 33.724 188.443 33.3355C178.87 32.2779 174.867 37.9005 174.824 38.0084C174.824 38.03 174.878 38.235 174.856 38.2458C173.949 38.5696 172.946 38.7854 172.007 39.3034C170.291 40.2531 169.536 41.2351 169.406 42.2819C160.276 44.6777 151.815 45.9296 165.186 53.0198C166.492 53.7105 171.608 56.1063 176.68 57.725C182.637 59.6136 188.27 60.6064 187.461 57.7034C186.91 55.7393 185.799 55.5343 186.651 53.8184C187.86 53.7213 189.187 53.5594 189.954 53.009C189.986 52.9874 189.857 52.9119 189.9 52.9227C190.126 53.0738 190.504 53.1169 190.828 53.2572C191.119 54.5846 191.648 54.7249 190.116 56.1602C188.572 57.6171 190.472 57.207 191.475 56.8833C192.695 56.4948 195.339 55.5235 194.432 53.3004C194.389 53.1601 194.465 53.4191 194.605 53.4407C195.36 53.4191 197.756 54.2824 199.526 55.3616C201.296 56.4408 202.364 57.466 203.648 57.8545C204.933 58.243 207.361 59.1388 209.357 57.2394C211.019 55.653 210.879 54.2069 208.677 52.75C207.113 51.714 207.501 51.8759 206.023 51.0017C205.721 50.7859 205.98 50.4729 205.688 50.2463C203.648 48.8002 202.634 48.6707 204.339 48.0771C204.523 48.0124 204.566 48.0771 204.749 47.98C205.807 47.4296 206.897 46.4584 207.253 45.7785C208.019 44.3108 207.393 42.8107 206.152 43.9763C206.077 44.0626 206.357 44.1813 206.357 44.1813L206.346 44.1597Z" fill="#336791"/>
<path d="M209.455 58.1675C207.231 59.4517 204.48 58.7071 203.357 58.3941C201.717 57.9301 197.076 55.3293 193.202 52.9874C192.911 52.8148 192.889 52.5018 193.148 52.3615C193.407 52.2212 193.893 52.2644 194.173 52.4371C198.49 55.0487 202.623 57.3365 203.81 57.6711C205.667 58.1891 207.555 58.3833 209.088 56.9156C210.566 55.5019 210.512 54.6494 208.645 53.1925C207.221 52.0809 202.882 49.1024 201.997 48.5196C201.728 48.3362 201.782 48.0772 202.051 47.9477C202.332 47.8182 202.731 47.8397 203.001 48.0232C203.918 48.6275 208.192 51.6816 209.67 52.8471C211.894 54.5738 212.12 55.8257 210.383 57.4876C210.081 57.7682 209.757 58.0056 209.433 58.1891L209.455 58.1675Z" fill="white"/>
<path d="M187.655 59.3015C187.439 59.4202 187.256 59.6469 187.018 59.7116C185.022 60.2188 180.964 59.28 174.942 57.2619C170.367 55.7294 165.91 54.0675 164.625 53.3876C160.816 51.3696 158.981 49.2975 159.305 47.4413C159.575 45.8873 161.377 44.4412 164.474 43.2109C166.73 42.3152 168.888 41.808 168.985 41.7864C169.331 41.7109 169.741 41.9807 169.913 42.1857C170.086 42.4016 169.978 42.5311 169.633 42.6066C169.536 42.6282 161.485 44.4412 160.924 47.668C160.654 49.2328 162.186 50.8516 165.586 52.6538C166.665 53.2258 170.82 55.233 175.45 56.7871C180.792 58.5785 184.795 59.3447 186.306 58.9562C186.544 58.8914 187.31 58.6109 187.018 57.5856C186.468 55.6323 186.058 54.0028 186.047 53.9812C186.015 53.7545 186.349 53.5603 186.738 53.5819C187.126 53.5927 187.58 53.7761 187.612 54.0028C187.612 54.0243 187.795 55.6647 188.335 57.5964C188.594 58.5245 188.173 58.9994 187.644 59.3015H187.655Z" fill="white"/>
<path d="M202.073 46.222C201.987 46.276 201.879 46.3731 201.739 46.3839C201.361 46.4163 200.951 46.222 200.854 45.9954C198.026 39.7901 191.227 34.3187 188.292 33.9949C184.59 33.5848 181.31 34.0057 178.569 35.5165C176.54 36.6281 175.612 37.9447 175.45 38.1605C175.45 38.1821 175.374 38.1605 175.353 38.1713C175.169 38.3872 174.77 38.5598 174.478 38.4843C174.133 38.398 173.842 38.0202 173.907 37.826C173.96 37.6533 175.148 36.1425 177.338 34.9014C180.349 33.2071 184.191 32.7862 188.346 33.2503C189.371 33.369 190.645 33.628 191.994 34.4266C193.224 35.1604 194.476 36.2612 195.749 37.4267C198.533 39.9628 200.886 43.0492 202.192 45.9199C202.257 46.0602 202.213 46.1465 202.062 46.2328L202.073 46.222Z" fill="white"/>
<path d="M205.483 48.0228C204.803 48.4221 204.048 48.7567 203.422 48.8214C202.764 48.8862 202.3 48.6272 202.094 48.5192C199.947 47.3969 200.508 46.5875 200.853 46.1882C200.681 46.1666 200.454 46.2745 200.227 46.253C199.504 46.1774 198.555 45.8321 197.368 45.5083C197.184 45.4544 196.655 45.6594 196.116 45.5407C193.17 44.9471 187.18 43.4795 186.338 41.5046C185.95 40.598 186.619 39.7455 188.551 38.8606C187.536 38.5368 185.497 38.1699 182.993 37.9433C180.09 37.6843 175.946 37.7166 172.493 39.6376C170.733 40.6196 169.967 41.6988 170.151 43.0262C170.55 46.0048 175.525 48.9941 175.568 49.0265C175.87 49.1883 175.957 49.2855 175.708 49.4365C175.708 49.4365 175.773 49.5553 175.762 49.5553C175.514 49.6955 175.072 49.5553 174.78 49.3934C174.554 49.2639 168.953 46.3285 168.51 43.0046C168.305 41.4506 169.32 39.9613 171.349 38.839C175.126 36.7454 179.734 36.6914 182.896 36.9504C186.338 37.2418 189.166 38.2562 189.954 38.6447C190.59 38.9577 190.353 39.0656 190.321 39.098C190.245 39.152 190.277 39.2059 190.18 39.2383C187.687 40.2311 187.461 40.965 187.666 41.429C188.292 42.8967 193.979 44.0946 196.44 44.5802C197.076 44.7097 197.562 44.6666 197.821 44.7313C198.814 45.0011 199.612 45.2385 200.292 45.3141C200.886 45.3788 201.469 45.2493 201.911 45.4112C202.03 45.4328 203.282 45.7565 205.483 43.6953C206.066 43.1557 206.627 43.1665 207.264 43.3715C208.494 43.7708 208.127 45.0982 207.739 45.8321C207.393 46.4904 206.508 47.3969 205.483 47.9904V48.0228ZM202.958 47.8394C203.174 47.8394 203.724 47.6343 204.609 47.0623C205.408 46.5443 206.131 45.994 206.379 45.5191C206.67 44.9687 206.757 44.5155 206.735 44.2133C206.735 44.2133 206.821 44.3212 206.821 44.332C205.375 45.6918 203.875 46.2206 202.548 46.3285C202.461 46.3285 202.472 46.6199 202.397 46.6199C202.364 46.6738 202.148 46.4688 202.094 46.5228C201.803 46.8465 201.652 47.1595 202.958 47.8502V47.8394Z" fill="white"/>
<path d="M193.526 56.5925C193.062 56.8623 192.479 57.0673 191.821 57.2832C191.637 57.3479 189.943 57.9091 189.015 57.3479C188.163 56.8407 189.015 56.0529 189.317 55.7723C190.396 54.7579 190.364 54.6068 190.159 53.9809C190.094 53.7974 189.986 53.5708 189.922 53.2794C189.706 52.3082 190.753 52.1031 191.195 52.0168C191.886 51.8765 192.803 51.9736 193.602 52.2542C194.325 52.5024 194.832 52.837 195.005 53.247C195.544 54.5744 195.026 55.7399 193.537 56.5925H193.526ZM190.105 56.7436C190.342 56.722 190.699 56.7004 191.033 56.6033C192.62 56.0961 194.325 55.114 193.602 53.3334C193.515 53.1175 193.213 52.9557 193.03 52.8909C192.63 52.7506 192.123 52.6859 191.832 52.7506C191.465 52.8262 191.271 52.8909 191.368 53.2902H191.346C191.4 53.56 191.454 53.7758 191.519 53.9593C191.778 54.7579 191.832 55.0709 190.569 56.258C190.31 56.5062 190.191 56.6573 190.137 56.7544L190.105 56.7436Z" fill="white"/>
<path d="M191.065 53.5804C190.839 53.7099 190.45 53.7854 190.159 53.6559C190.083 53.6236 190.051 53.6128 189.975 53.5696C188.853 54.174 187.234 54.4006 185.486 54.3035C183.252 54.1847 181.115 53.4401 179.604 52.3178C177.975 51.1091 176.194 50.2997 175.266 49.8141C175.007 49.6738 174.877 49.4903 174.748 49.4148C174.586 49.3176 174.111 49.1018 174.618 47.9902C174.791 47.6017 175.223 46.8355 176.043 46.2312C177.414 45.2167 179.248 45.1844 181.212 45.9506C186.436 48.0118 187.687 49.4903 188.551 50.6342C188.713 50.8501 188.864 51.0443 189.026 51.2278C189.101 51.3141 189.026 51.3681 189.112 51.4436C189.716 52.1343 190.31 52.6307 190.957 52.9221C191.292 53.0624 191.346 53.3754 191.141 53.5372C191.119 53.548 191.098 53.5588 191.076 53.5696L191.065 53.5804ZM175.773 49.0263C175.87 49.0802 176.032 49.091 176.172 49.1558C177.144 49.663 178.968 50.5695 180.694 51.8429C181.925 52.7494 183.619 53.3861 185.421 53.4833C186.835 53.5588 188.141 53.343 189.004 52.8466C188.626 52.512 188.216 52.1559 187.86 51.7458C187.784 51.6702 187.86 51.5947 187.795 51.5084C187.612 51.3033 187.396 51.1307 187.223 50.904C186.392 49.8141 185.367 48.4651 180.543 46.5657C179.615 46.1988 178.795 46.0477 178.061 46.2851C176.453 46.8247 175.762 48.5622 175.773 49.0155V49.0263Z" fill="white"/>
<path d="M178.115 47.4187C178.266 47.5266 179.032 47.6345 179.485 47.4403C179.939 47.2568 179.895 46.8467 179.744 46.7388C179.593 46.6309 179.108 46.6849 178.654 46.8683C178.201 47.0518 177.964 47.3 178.115 47.4187Z" fill="white"/>
<path d="M179.745 47.4937C179.745 47.4937 179.669 47.5476 179.637 47.5584C179.356 47.6771 178.924 47.7095 178.503 47.6556C178.352 47.634 178.083 47.5908 177.942 47.4937C177.888 47.4505 177.834 47.3858 177.845 47.2994C177.867 47.1375 178.115 46.9217 178.503 46.7598C178.741 46.6627 179 46.5872 179.237 46.5548C179.647 46.5008 179.852 46.5979 179.939 46.6627C180.09 46.7706 180.111 46.9649 180.079 47.1052C180.047 47.267 179.928 47.3965 179.755 47.5045L179.745 47.4937ZM178.298 47.3534C178.439 47.4073 178.989 47.4613 179.324 47.321C179.658 47.1807 179.637 46.9001 179.572 46.8246C179.485 46.8138 179.173 46.8354 178.806 46.9972C178.439 47.1483 178.298 47.3102 178.298 47.3642V47.3534Z" fill="white"/>
<path d="M189.555 40.4036C189.749 40.4899 189.922 40.9324 189.587 41.1914C189.263 41.4504 188.573 41.4288 188.368 41.3425C188.174 41.2561 188.271 40.9648 188.605 40.7058C188.94 40.4468 189.35 40.3173 189.544 40.4036H189.555Z" fill="white"/>
<path d="M189.598 41.2894C189.22 41.5053 188.541 41.5053 188.314 41.3974C188.023 41.2571 188.195 40.9333 188.519 40.6743C188.681 40.5448 188.875 40.4261 189.059 40.3613C189.274 40.2858 189.479 40.2858 189.62 40.3613C189.749 40.4261 189.857 40.5664 189.879 40.7391C189.9 40.8578 189.911 41.0736 189.695 41.2355C189.663 41.2571 189.631 41.2679 189.598 41.2894ZM188.918 40.6096C188.854 40.6527 188.789 40.7067 188.713 40.7606C188.379 41.0304 188.346 41.2571 188.433 41.3002C188.562 41.365 189.199 41.3758 189.49 41.1384C189.663 40.9981 189.674 40.8254 189.652 40.7283C189.631 40.5772 189.544 40.4693 189.49 40.4477C189.425 40.4153 189.177 40.4477 188.918 40.6096Z" fill="white"/>
<path d="M200.13 45.8532C200.044 45.9072 199.936 45.9719 199.796 45.9827C199.418 46.0151 199.04 45.8316 198.943 45.6158C198.296 44.2021 196.526 43.3819 194.821 42.5941C194.098 42.2487 193.31 41.9466 192.673 41.5473C192.015 41.148 191.54 40.7703 191.076 40.4141C190.526 40.004 190.051 39.5508 189.306 39.1623C189.004 39.0004 188.918 38.7522 189.155 38.5903C189.392 38.4392 189.856 38.4608 190.159 38.6227C191.011 39.076 191.594 39.54 192.166 39.9717C192.608 40.3062 193.094 40.5868 193.688 40.9429C194.249 41.2883 194.875 41.6984 195.587 42.0329C197.411 42.8855 199.515 43.792 200.303 45.5079C200.368 45.6482 200.271 45.7669 200.119 45.8532H200.13Z" fill="white"/>
<path d="M185.711 99.8983C185.711 93.8549 185.786 93.8549 185.786 87.8223" stroke="#80949C" stroke-width="1.33331" stroke-linecap="round" stroke-linejoin="round"/>
<path d="M180.1 153.902C183.877 148.733 183.823 148.701 187.6 143.521C187.881 143.143 188.442 142.83 188.906 142.906C193.122 143.56 197.338 144.226 201.554 144.902C202.763 145.086 203.432 143.823 202.568 142.96C196.913 137.305 197.01 137.197 191.356 131.542C187.586 127.772 183.816 123.998 180.046 120.221C179.247 119.423 177.984 120.038 177.984 121.171C177.984 129.168 177.887 129.168 177.887 137.175C177.887 145.183 177.747 145.172 177.747 153.179C177.747 154.399 179.387 154.906 180.1 153.913V153.902Z" fill="#253135"/>
<path d="M122.201 164.889C116.007 160.194 115.92 160.302 109.726 155.608C103.531 150.913 103.434 151.043 97.2397 146.348C96.9376 146.122 96.9268 145.614 97.175 145.409C97.4232 145.204 97.9844 145.107 98.4376 145.204C104.2 146.424 104.147 146.683 109.909 147.891C110.319 147.978 110.719 147.33 110.492 146.974C109.845 145.981 109.715 146.068 109.068 145.075C108.916 144.848 109.122 144.632 109.381 144.47C109.64 144.309 110.06 144.017 110.449 144.104C116.018 145.312 116.007 145.366 121.575 146.564C127.144 147.773 127.122 147.859 132.702 149.068C138.281 150.276 138.227 150.492 143.796 151.701C144.217 151.798 144.324 152.122 143.947 152.348C138.486 155.5 138.518 155.554 133.047 158.705C127.576 161.856 127.64 161.953 122.158 165.083C122.093 165.115 122.201 164.899 122.201 164.899V164.889Z" fill="#FFA000"/>
<path d="M123.917 150.729C118.057 149.466 118.046 149.52 112.176 148.257C111.766 148.171 111.42 148.592 111.658 148.948C116.536 156.459 116.633 156.395 121.511 163.916C121.748 164.283 122.298 164.208 122.363 163.776C123.345 157.517 123.302 157.517 124.284 151.258C124.327 151.009 124.155 150.772 123.917 150.718V150.729Z" fill="#F57C00"/>
<path d="M145.08 151.669C139.026 149.035 138.939 149.24 132.896 146.596C126.842 143.963 126.917 143.801 120.863 141.168C120.518 141.017 120.032 140.952 119.676 141.039C119.32 141.125 119.201 141.416 119.233 141.654C119.956 147.373 119.849 147.384 120.561 153.104C121.273 158.824 121.219 158.824 121.931 164.543C121.964 164.802 122.32 164.953 122.579 164.921C130.889 163.896 130.878 163.874 139.187 162.838C140.256 162.709 140.99 162.266 141.216 161.651C143.083 156.698 143.137 156.708 145.015 151.755C145.037 151.701 145.069 151.669 145.069 151.669H145.08Z" fill="#FFCA28"/>
<g opacity="0.2">
<path d="M120.885 141.125C120.54 140.974 120.097 141.222 119.752 141.308C119.407 141.394 119.32 141.416 119.353 141.643C119.601 143.628 119.644 143.618 119.892 145.603C119.935 145.927 119.45 146.164 119.126 146.1C114.777 145.161 114.777 145.182 110.428 144.243C110.029 144.157 109.521 144.071 109.252 144.222C108.982 144.373 109.198 144.654 109.349 144.88C109.996 145.873 109.823 145.992 110.471 146.985C110.698 147.341 110.385 147.729 109.975 147.643C106.133 146.83 102.291 146.017 98.4489 145.204C97.9849 145.107 97.5856 145.366 97.3374 145.582C97.0891 145.797 97.1863 145.808 97.4884 146.035C103.683 150.729 103.564 150.891 109.759 155.586C115.953 160.28 115.888 160.366 122.083 165.072C122.083 165.072 122.202 164.856 122.212 164.856C122.223 164.856 122.159 165.147 122.169 165.147C122.245 165.147 122.266 165.072 122.256 164.985C121.608 159.179 121.5 159.19 120.777 153.395C120.054 147.6 120.335 147.557 119.612 141.761C119.579 141.524 119.558 141.233 119.903 141.146C120.248 141.06 120.766 141.092 121.112 141.243C127.112 143.855 127.015 144.071 133.004 146.682C139.005 149.294 139.123 149.013 145.124 151.614C145.134 151.614 145.091 151.711 145.08 151.711C139.037 149.067 138.983 149.197 132.929 146.553C126.875 143.909 126.961 143.725 120.939 141.038C120.885 141.017 120.907 141.114 120.907 141.114L120.885 141.125ZM122.18 164.867C116.04 160.205 115.856 160.442 109.716 155.791C103.575 151.139 103.586 151.118 97.4345 146.467C97.1323 146.24 97.0568 145.657 97.305 145.441C97.5532 145.226 98.1467 145.366 98.6 145.463C104.363 146.682 104.374 146.65 110.136 147.87C110.547 147.956 111.032 147.373 110.795 147.017C110.147 146.024 109.802 146.251 109.154 145.258C109.003 145.031 109.262 144.643 109.532 144.492C109.802 144.341 110.201 144.395 110.601 144.481C113.543 145.114 116.486 145.751 119.428 146.391C119.622 146.434 119.925 146.499 119.957 146.693C121.101 155.823 121.155 155.812 122.342 164.931C122.342 164.985 122.18 164.867 122.18 164.867Z" fill="white"/>
</g>
<g opacity="0.2">
<path d="M140.99 161.532C140.763 162.147 140.072 162.687 138.993 162.817C130.478 163.874 130.468 163.809 121.953 164.932C121.856 164.943 122.007 165.007 122.104 164.996C130.651 164.014 130.651 163.971 139.187 162.914C140.256 162.784 140.979 162.277 141.216 161.662C143.083 156.708 143.31 156.784 145.069 151.787C145.112 151.679 144.799 151.55 144.756 151.658C142.781 156.557 143.062 156.665 141.152 161.597C141.13 161.651 140.99 161.532 140.99 161.532Z" fill="#A52714"/>
</g>
<path d="M120.766 141.351C120.421 141.2 120 140.952 119.644 141.049C119.288 141.146 119.169 141.449 119.201 141.675C119.46 143.65 119.352 143.672 119.6 145.647C119.644 145.97 119.406 146.262 119.082 146.186C114.744 145.247 114.701 145.442 110.363 144.503C109.963 144.416 109.683 144.373 109.413 144.524C109.143 144.675 108.895 144.848 109.035 145.075C109.683 146.067 109.877 145.938 110.525 146.931C110.751 147.287 110.341 147.827 109.931 147.74C104.179 146.521 104.201 146.434 98.4377 145.215C97.9845 145.118 97.6499 145.442 97.4017 145.647C97.1535 145.852 96.9053 146.165 97.2075 146.391C103.37 151.053 103.564 150.783 109.726 155.456C115.888 160.118 115.705 160.356 121.856 165.018C121.953 165.093 122.18 164.77 122.298 164.759C130.727 163.723 130.781 164.155 139.198 163.119C140.267 162.989 140.882 162.244 141.119 161.629C142.9 156.892 143.062 156.956 144.843 152.219C144.929 151.981 144.864 151.56 144.627 151.463C138.68 148.873 138.713 148.819 132.767 146.229C126.82 143.639 126.734 143.855 120.766 141.319C120.712 141.297 120.755 141.351 120.755 141.351H120.766Z" fill="url(#paint0_linear_3402_58842)"/>
<path d="M135.406 86.1713C135.288 86.1497 135.029 85.9555 134.932 86.0094C130.564 88.1822 126.197 90.3513 121.83 92.5169C120.546 93.1536 120.816 94.5889 122.197 95.5062C125.737 97.8517 129.277 100.197 132.816 102.542C138.126 106.071 137.899 106.406 143.209 109.935C148.518 113.464 148.831 112.989 154.141 116.518C155.522 117.435 157.67 118.126 158.954 117.489C164.026 114.964 163.8 114.511 168.872 111.996C173.944 109.482 173.966 109.514 179.027 106.989C180.311 106.352 180.473 105.046 179.081 104.129C173.037 100.114 172.843 100.406 166.8 96.3912C160.756 92.3766 160.692 92.4737 154.648 88.4592C154.562 88.4052 154.573 88.4592 154.465 88.4592C149.749 88.4268 149.749 88.1246 145.022 88.0923C144.99 88.0923 144.903 88.3405 144.871 88.3297C140.112 87.326 140.155 87.1102 135.385 86.1605L135.406 86.1713Z" fill="#0F9D58"/>
<path d="M144.59 103.406C150.148 107.097 150.223 106.989 155.781 110.68C155.943 110.788 156.18 110.896 156.353 110.809C162.04 107.982 162.008 107.928 167.695 105.1C168.062 104.917 168.073 104.399 167.728 104.162C162.17 100.471 162.192 100.449 156.634 96.7584C156.472 96.6505 156.234 96.5641 156.062 96.6505C150.375 99.4779 150.396 99.5103 144.709 102.338C144.342 102.521 144.256 103.169 144.612 103.395L144.59 103.406ZM158.922 107.356C157.529 108.047 157.583 108.165 156.191 108.856C156.019 108.942 155.857 108.834 155.695 108.727C155.166 108.37 155.134 108.424 154.605 108.079C154.26 107.852 154.26 107.334 154.637 107.14C156.029 106.449 156.04 106.471 157.432 105.78C157.605 105.694 157.767 105.78 157.929 105.888C158.458 106.244 158.479 106.201 159.008 106.557C159.353 106.784 159.299 107.172 158.922 107.356ZM155.565 105.133C154.173 105.824 154.227 105.942 152.835 106.633C152.662 106.719 152.5 106.611 152.339 106.503C151.81 106.147 151.777 106.201 151.249 105.856C150.903 105.629 150.903 105.111 151.281 104.917C152.673 104.226 152.684 104.248 154.076 103.557C154.249 103.471 154.411 103.557 154.573 103.665C155.101 104.021 155.123 103.978 155.652 104.334C155.997 104.561 155.943 104.949 155.565 105.133ZM152.209 102.91C150.817 103.6 150.871 103.719 149.479 104.41C149.306 104.496 149.144 104.388 148.982 104.28C148.454 103.924 148.421 103.978 147.892 103.633C147.547 103.406 147.547 102.888 147.925 102.694C149.317 102.003 149.328 102.025 150.72 101.334C150.893 101.248 151.054 101.334 151.216 101.442C151.745 101.798 151.767 101.755 152.295 102.111C152.641 102.338 152.587 102.726 152.209 102.91ZM164.371 104.647C162.979 105.338 163.033 105.457 161.641 106.147C161.468 106.234 161.307 106.126 161.145 106.018C160.616 105.662 160.584 105.716 160.055 105.37C159.709 105.144 159.709 104.626 160.087 104.431C161.479 103.741 161.49 103.762 162.882 103.072C163.055 102.985 163.217 103.072 163.379 103.18C163.907 103.536 163.929 103.492 164.458 103.849C164.803 104.075 164.749 104.464 164.371 104.647ZM161.015 102.424C159.623 103.115 159.677 103.233 158.285 103.924C158.112 104.01 157.95 103.903 157.788 103.795C157.26 103.439 157.227 103.492 156.699 103.147C156.353 102.921 156.353 102.403 156.731 102.208C158.123 101.518 158.134 101.539 159.526 100.848C159.699 100.762 159.861 100.848 160.022 100.956C160.551 101.313 160.573 101.269 161.102 101.625C161.447 101.852 161.393 102.241 161.015 102.424ZM157.659 100.201C156.267 100.892 156.321 101.01 154.929 101.701C154.756 101.787 154.594 101.679 154.432 101.572C153.903 101.215 153.871 101.269 153.342 100.924C152.997 100.697 152.997 100.179 153.375 99.9851C154.767 99.2945 154.778 99.3161 156.17 98.6254C156.342 98.539 156.504 98.6254 156.666 98.7333C157.195 99.0894 157.217 99.0463 157.745 99.4024C158.091 99.629 158.037 100.018 157.659 100.201Z" fill="#F1F1F1"/>
<path d="M147.374 92.2809C151.928 92.7557 156.486 93.227 161.047 93.6946C161.609 93.7486 161.835 93.0579 161.371 92.7449C158.112 90.5866 158.134 90.5434 154.875 88.3742C154.723 88.2771 154.529 88.2016 154.367 88.2663C150.795 89.7232 150.817 89.7772 147.245 91.2233C146.727 91.4391 146.824 92.2161 147.385 92.2701L147.374 92.2809Z" fill="url(#paint1_linear_3402_58842)"/>
<path d="M137.403 86.409C136.842 86.3551 136.572 87.0997 137.047 87.4127C138.954 88.6789 140.86 89.9416 142.767 91.2006C144.159 92.1179 146.317 92.3122 147.612 91.6754C150.289 90.348 150.278 90.3049 152.954 88.9775C153.44 88.7401 153.343 88.071 152.803 88.0062C147.674 87.4666 142.544 86.9342 137.414 86.409H137.403Z" fill="#87CEAC"/>
<path opacity="0.2" d="M121.949 92.7764C120.665 93.4131 120.719 94.7189 122.1 95.6362C122.208 95.7009 122.413 95.852 122.305 95.7765C120.924 94.8592 120.848 93.521 122.132 92.8735C128.769 89.582 128.845 89.7331 135.417 86.3336C135.525 86.2797 135.342 86.1826 135.223 86.2365C128.5 89.3446 128.564 89.4741 121.938 92.7764H121.949Z" fill="white"/>
<path opacity="0.2" d="M178.898 107.021C173.826 109.546 173.858 109.6 168.786 112.115C163.714 114.629 163.66 114.521 158.588 117.036C157.303 117.672 155.102 117.597 153.721 116.679C153.613 116.615 153.926 116.604 154.023 116.679C155.404 117.597 157.541 117.877 158.825 117.241C163.897 114.715 163.919 114.769 168.991 112.244C174.063 109.719 174.02 109.643 179.092 107.118C180.376 106.481 180.258 105.359 178.876 104.442C178.768 104.377 178.639 104.118 178.747 104.193C180.128 105.111 180.193 106.384 178.909 107.021H178.898Z" fill="#263238"/>
<path opacity="0.1" d="M147.601 91.6634C146.306 92.3109 144.18 92.0735 142.788 91.1562C142.68 91.0915 142.853 91.2857 142.95 91.3613C144.342 92.2786 146.533 92.5052 147.828 91.8577C151.335 90.1094 151.357 90.1526 154.821 88.318C154.929 88.264 154.767 88.2208 154.648 88.2748C151.033 89.7964 151.098 89.9259 147.591 91.6742L147.601 91.6634Z" fill="#263238"/>
<path d="M135.385 86.085C135.288 86.085 135.147 86.1605 135.05 86.2037C130.676 88.3765 126.302 90.5492 121.927 92.722C120.643 93.3587 120.848 94.535 122.23 95.4523C127.539 98.9704 127.571 98.9273 132.87 102.445C138.169 105.964 137.888 106.417 143.198 109.935C148.508 113.453 148.54 113.421 153.85 116.939C155.231 117.856 157.681 118.137 158.965 117.5C164.037 114.975 163.864 114.64 168.936 112.115C174.009 109.59 174.171 109.913 179.243 107.399C180.527 106.762 180.214 105.424 178.833 104.507C172.778 100.492 172.768 100.524 166.713 96.5099C162.677 93.8335 158.645 91.1572 154.616 88.4808C154.54 88.4376 154.594 88.2434 154.508 88.2326C144.957 87.121 144.957 87.0671 135.396 86.0742L135.385 86.085Z" fill="url(#paint2_radial_3402_58842)"/>
<defs>
<linearGradient id="paint0_linear_3402_58842" x1="-102446" y1="59355.6" x2="-102409" y2="59355" gradientUnits="userSpaceOnUse">
<stop stop-color="white" stop-opacity="0.1"/>
<stop offset="0.14" stop-color="white" stop-opacity="0.08"/>
<stop offset="0.61" stop-color="white" stop-opacity="0.02"/>
<stop offset="1" stop-color="white" stop-opacity="0"/>
</linearGradient>
<linearGradient id="paint1_linear_3402_58842" x1="-14132.5" y1="7195.57" x2="-14129.1" y2="7202.41" gradientUnits="userSpaceOnUse">
<stop stop-color="#263238" stop-opacity="0.2"/>
<stop offset="1" stop-color="#263238" stop-opacity="0.02"/>
</linearGradient>
<radialGradient id="paint2_radial_3402_58842" cx="0" cy="0" r="1" gradientUnits="userSpaceOnUse" gradientTransform="translate(-38914.1 19499.1) rotate(-26.42) scale(45.4591 45.4591)">
<stop stop-color="white" stop-opacity="0.1"/>
<stop offset="1" stop-color="white" stop-opacity="0"/>
</radialGradient>
</defs>
</svg>
