<svg xmlns="http://www.w3.org/2000/svg" width="50" height="50" fill="none" viewBox="0 0 50 50"><path fill="#fff" d="M2.0835 40.5V42.5833C2.0835 44.8854 3.94808 46.75 6.25016 46.75H43.7502C46.0522 46.75 47.9168 44.8854 47.9168 42.5833V40.5H2.0835Z"/><path fill="#fff" fill-rule="evenodd" d="M2.0835 21.75C2.0835 12.2583 6.31474 3 25.0002 3C43.7502 3 47.9168 12.2583 47.9168 21.75H2.0835ZM8.3335 15.5C8.3335 16.65 9.26683 17.5833 10.4168 17.5833C11.5668 17.5833 12.5002 16.65 12.5002 15.5C12.5002 14.35 11.5668 13.4167 10.4168 13.4167C9.26683 13.4167 8.3335 14.35 8.3335 15.5ZM16.6668 11.3333C15.5168 11.3333 14.5835 10.4 14.5835 9.25C14.5835 8.1 15.5168 7.16667 16.6668 7.16667C17.8168 7.16667 18.7502 8.1 18.7502 9.25C18.7502 10.4 17.8168 11.3333 16.6668 11.3333ZM22.9168 15.5C22.9168 16.65 23.8502 17.5833 25.0002 17.5833C26.1502 17.5833 27.0835 16.65 27.0835 15.5C27.0835 14.35 26.1502 13.4167 25.0002 13.4167C23.8502 13.4167 22.9168 14.35 22.9168 15.5ZM33.3335 11.3333C32.1835 11.3333 31.2502 10.4 31.2502 9.25C31.2502 8.1 32.1835 7.16667 33.3335 7.16667C34.4835 7.16667 35.4168 8.1 35.4168 9.25C35.4168 10.4 34.4835 11.3333 33.3335 11.3333ZM37.5002 15.5C37.5002 16.65 38.4335 17.5833 39.5835 17.5833C40.7335 17.5833 41.6668 16.65 41.6668 15.5C41.6668 14.35 40.7335 13.4167 39.5835 13.4167C38.4335 13.4167 37.5002 14.35 37.5002 15.5Z" clip-rule="evenodd"/><path fill="#fff" d="M47.9167 32.1667H43.75L37.5 36.3334L31.25 32.1667H2.08333C0.933333 32.1667 0 33.1001 0 34.2501V36.3334C0 37.4834 0.933333 38.4167 2.08333 38.4167H47.9167C49.0667 38.4167 50 37.4834 50 36.3334V34.2501C50 33.1001 49.0667 32.1667 47.9167 32.1667Z"/><path fill="#fff" d="M45.0938 26.2208C44.0979 27.2145 43.3146 27.9999 41.6583 27.9999C40.0042 27.9999 39.2188 27.2166 38.225 26.2208C37.1583 25.1562 35.8354 23.8333 33.3167 23.8333C30.8021 23.8333 29.4792 25.1583 28.4146 26.2208C27.4208 27.2145 26.6354 27.9999 24.9854 27.9999C23.3354 27.9999 22.55 27.2166 21.5562 26.2208C20.4917 25.1562 19.1688 23.8333 16.6562 23.8333C14.1417 23.8333 12.8188 25.1583 11.7542 26.2228C10.7625 27.2166 9.97917 27.9999 8.32917 27.9999C6.67917 27.9999 5.89375 27.2166 4.9 26.2208C3.8375 25.1583 2.51458 23.8333 0 23.8333V25.9166C1.65 25.9166 2.43542 26.6999 3.42917 27.6958C4.49167 28.7583 5.81458 30.0833 8.32917 30.0833C10.8417 30.0833 12.1646 28.7583 13.2292 27.6958C14.2229 26.702 15.0083 25.9166 16.6583 25.9166C18.3083 25.9166 19.0917 26.6999 20.0854 27.6937C21.15 28.7583 22.4729 30.0833 24.9875 30.0833C27.5021 30.0833 28.825 28.7583 29.8896 27.6958C30.8833 26.702 31.6687 25.9166 33.3187 25.9166C34.975 25.9166 35.7604 26.702 36.7542 27.6958C37.8208 28.7603 39.1437 30.0833 41.6604 30.0833C44.1792 30.0833 45.5042 28.7583 46.5687 27.6958C47.5604 26.6999 48.3458 25.9166 50 25.9166V23.8333C47.4833 23.8333 46.1583 25.1562 45.0938 26.2208Z" opacity=".6"/></svg>