<svg xmlns="http://www.w3.org/2000/svg" width="48" height="39" fill="none" viewBox="0 0 48 39"><path fill="#fff" d="M43.8345 27.2827C43.8315 27.2046 43.8257 27.1274 43.8198 27.0503C43.814 26.9673 43.8071 26.8853 43.7983 26.8033C43.7905 26.7223 43.7817 26.6412 43.771 26.5612C43.7661 26.5231 43.7612 26.4841 43.7554 26.446C43.7495 26.3942 43.7417 26.3435 43.7339 26.2927C43.731 26.2702 43.728 26.2487 43.7231 26.2272C43.7153 26.1687 43.7056 26.111 43.6948 26.0524C43.6812 25.9733 43.6665 25.8952 43.6509 25.8172C43.644 25.782 43.6362 25.7469 43.6284 25.7127C43.6167 25.6531 43.604 25.5936 43.5894 25.535C43.5757 25.4734 43.561 25.4119 43.5454 25.3523C43.5298 25.2859 43.5122 25.2195 43.4946 25.1541C43.4907 25.1385 43.4868 25.1238 43.4829 25.1102C43.4702 25.0643 43.4575 25.0193 43.4438 24.9744C43.4292 24.9217 43.4136 24.868 43.396 24.8152C43.3911 24.7957 43.3853 24.7762 43.3784 24.7576C43.3638 24.7098 43.3491 24.6629 43.3325 24.615C43.3169 24.5682 43.3013 24.5213 43.2847 24.4754C43.2749 24.4451 43.2642 24.4148 43.2534 24.3855C43.2378 24.3416 43.2222 24.2977 43.2046 24.2547C43.1948 24.2244 43.1831 24.1941 43.1714 24.1648C43.1509 24.1111 43.1304 24.0594 43.1089 24.0066C43.104 23.992 43.0981 23.9783 43.0923 23.9646C43.0669 23.9021 43.0405 23.8396 43.0142 23.7781L42.9966 23.7371C42.9683 23.6727 42.939 23.6092 42.9097 23.5457C42.8813 23.4842 42.853 23.4227 42.8228 23.3621C42.8062 23.326 42.7886 23.2908 42.77 23.2557C42.7476 23.2088 42.7231 23.1619 42.6987 23.116C42.6626 23.0447 42.6245 22.9744 42.5864 22.9051C42.5493 22.8387 42.5122 22.7723 42.4741 22.7059C42.4644 22.6893 42.4546 22.6736 42.4448 22.657C42.4136 22.6023 42.3804 22.5477 42.3481 22.4939C42.3462 22.491 42.3442 22.4881 42.3423 22.4852C42.3022 22.4197 42.2612 22.3553 42.2202 22.2918C41.8766 21.7577 41.4851 21.2588 41.0506 20.7999C40.9803 20.7247 40.908 20.6505 40.8338 20.5783C40.7811 20.5246 40.7273 20.4719 40.6727 20.4201C40.6102 20.3605 40.5477 20.302 40.4832 20.2443C40.4256 20.1916 40.367 20.1398 40.3084 20.09C40.2469 20.0363 40.1844 19.9826 40.1209 19.9309C40.0682 19.8869 40.0145 19.8439 39.9607 19.801C39.9598 19.801 39.9598 19.8 39.9588 19.8C39.8709 19.7307 39.782 19.6623 39.6913 19.5959C39.6532 19.5666 39.6142 19.5383 39.5751 19.5109C39.5507 19.4924 39.5253 19.4748 39.4999 19.4572C39.4511 19.423 39.4022 19.3889 39.3524 19.3547C39.3437 19.3488 39.3339 19.343 39.3251 19.3361C39.2724 19.301 39.2187 19.2658 39.1649 19.2307C39.1395 19.2141 39.1142 19.1984 39.0888 19.1818C38.9774 19.1105 38.8643 19.0422 38.749 18.9758C38.7041 18.9494 38.6592 18.923 38.6133 18.8986C38.5781 18.8781 38.543 18.8586 38.5068 18.8391C38.4531 18.8088 38.3984 18.7795 38.3428 18.7512C38.2988 18.7287 38.2549 18.7053 38.2109 18.6838C37.92 18.5363 37.6202 18.4026 37.3127 18.2845C37.259 18.262 37.2043 18.2415 37.1496 18.222C37.132 18.2151 37.1145 18.2083 37.0969 18.2024C37.051 18.1858 37.0051 18.1692 36.9582 18.1536C36.924 18.1409 36.8908 18.1302 36.8566 18.1185C36.8107 18.1028 36.7658 18.0882 36.7199 18.0745C36.5256 18.012 36.3294 17.9554 36.1302 17.9056C36.0599 17.887 35.9886 17.8704 35.9173 17.8538C35.8421 17.8362 35.7669 17.8196 35.6907 17.804C35.678 17.8011 35.6653 17.7991 35.6517 17.7962C35.5765 17.7806 35.5003 17.7659 35.4232 17.7522C35.4203 17.7522 35.4174 17.7513 35.4145 17.7513C35.3314 17.7356 35.2475 17.722 35.1635 17.7093C35.0863 17.6976 35.0092 17.6868 34.9321 17.6761C34.853 17.6663 34.7749 17.6575 34.6959 17.6487C34.6617 17.6448 34.6266 17.6419 34.5914 17.639C34.527 17.6321 34.4615 17.6263 34.3961 17.6214C34.3932 17.6214 34.3893 17.6204 34.3863 17.6214C34.3102 17.6146 34.233 17.6097 34.156 17.6067C34.1394 17.6048 34.1237 17.6038 34.1071 17.6038C34.0515 17.6009 33.9958 17.5979 33.9392 17.597C33.9099 17.596 33.8796 17.595 33.8503 17.594C33.7683 17.5921 33.6862 17.5911 33.6033 17.5911C33.2245 17.5911 32.8516 17.6116 32.4834 17.6517C32.4717 17.5628 32.459 17.4739 32.4443 17.3852C32.4307 17.2973 32.416 17.2094 32.3994 17.1216C32.3643 16.9282 32.3242 16.7369 32.2773 16.5465C32.2627 16.4791 32.2461 16.4127 32.2285 16.3463C32.2285 16.3434 32.2275 16.3404 32.2256 16.3375C32.2051 16.2535 32.1816 16.1705 32.1582 16.0886C32.1387 16.0163 32.1172 15.945 32.0957 15.8747C32.083 15.8347 32.0713 15.7946 32.0576 15.7546C32.0449 15.7116 32.0312 15.6696 32.0166 15.6276C31.999 15.5749 31.9814 15.5222 31.9629 15.4704C31.958 15.4548 31.9531 15.4392 31.9463 15.4235C31.9238 15.3571 31.8994 15.2917 31.875 15.2272C31.8691 15.2087 31.8613 15.1901 31.8535 15.1716C31.8359 15.1228 31.8164 15.0739 31.7969 15.0251C31.7793 14.9802 31.7617 14.9353 31.7422 14.8913C31.7334 14.8679 31.7246 14.8454 31.7139 14.822C31.6904 14.7663 31.667 14.7106 31.6426 14.655C31.6318 14.6296 31.6201 14.6042 31.6084 14.5788C31.5869 14.531 31.5654 14.4831 31.543 14.4362C31.5234 14.3942 31.5039 14.3513 31.4834 14.3093C31.4746 14.2907 31.4658 14.2731 31.4561 14.2546C31.4287 14.197 31.4004 14.1403 31.3711 14.0837C31.3613 14.0642 31.3516 14.0446 31.3408 14.0251C31.3125 13.9694 31.2832 13.9147 31.2539 13.8601C31.2451 13.8444 31.2363 13.8278 31.2275 13.8112C31.1943 13.7507 31.1602 13.6901 31.126 13.6296C31.126 13.6286 31.125 13.6286 31.125 13.6286C31.085 13.5573 31.0439 13.487 31.002 13.4177C30.9668 13.3591 30.9307 13.3005 30.8945 13.2419C30.8574 13.1823 30.8193 13.1237 30.7812 13.0651C30.7148 12.9626 30.6465 12.862 30.5762 12.7625C30.4902 12.6385 30.4014 12.5175 30.3106 12.3974C30.2589 12.33 30.2062 12.2626 30.1524 12.1952C30.0997 12.1288 30.045 12.0624 29.9903 11.997C29.9327 11.9276 29.8741 11.8593 29.8146 11.7919C29.7608 11.7304 29.7071 11.6708 29.6515 11.6103C29.5948 11.5487 29.5372 11.4862 29.4786 11.4257C29.4747 11.4218 29.4718 11.4188 29.4688 11.4159C29.4122 11.3563 29.3546 11.2987 29.296 11.2411C29.2354 11.1806 29.1749 11.121 29.1124 11.0624C28.9884 10.9442 28.8614 10.8291 28.7326 10.7178C28.6682 10.6621 28.6027 10.6064 28.5373 10.5527L28.5363 10.5518V10.5508H28.5354C28.4895 10.5127 28.4426 10.4746 28.3957 10.4365C28.3322 10.3857 28.2678 10.3359 28.2033 10.2861C28.1545 10.248 28.1047 10.2109 28.0549 10.1748C28.0051 10.1367 27.9553 10.1006 27.9045 10.0654C27.8693 10.04 27.8342 10.0156 27.799 9.99121C27.6945 9.91797 27.5881 9.84668 27.4798 9.77637C27.4319 9.74609 27.3841 9.71582 27.3353 9.68555C27.2767 9.64844 27.2171 9.6123 27.1575 9.57617C27.0687 9.52246 26.9778 9.46973 26.8861 9.41895C26.7953 9.36719 26.7025 9.31738 26.6099 9.26855C26.5278 9.22559 26.4448 9.18262 26.3609 9.1416C26.2984 9.11133 26.235 9.08105 26.1715 9.05078C26.1139 9.02344 26.0562 8.99707 25.9986 8.97168C25.943 8.94629 25.8873 8.92188 25.8316 8.89844C25.8248 8.89551 25.817 8.89258 25.8102 8.88867C25.7564 8.86621 25.7018 8.84277 25.648 8.82129C25.5299 8.77344 25.4107 8.72656 25.2907 8.68262C25.2312 8.66016 25.1706 8.63867 25.1101 8.61816C25.0505 8.59668 24.989 8.57617 24.9284 8.55664C24.8063 8.5166 24.6844 8.47852 24.5604 8.44238C24.5154 8.42969 24.4715 8.41699 24.4266 8.4043C24.3943 8.39453 24.3611 8.38574 24.3289 8.37793C24.282 8.36523 24.2361 8.35254 24.1893 8.34082C24.0633 8.30859 23.9364 8.2793 23.8085 8.25195C23.7724 8.24414 23.7362 8.23633 23.6991 8.22852C23.6464 8.21777 23.5927 8.20703 23.5399 8.19727C23.5214 8.19336 23.5038 8.19043 23.4862 8.1875C23.4101 8.17285 23.3349 8.15918 23.2587 8.14746C23.1854 8.13477 23.1112 8.12402 23.038 8.11328C22.9657 8.10254 22.8935 8.09277 22.8212 8.08496C22.7665 8.07715 22.7128 8.07129 22.6581 8.06543C22.4286 8.04004 22.1963 8.02246 21.9629 8.0127C21.8916 8.00879 21.8193 8.00586 21.7471 8.00391C21.7217 8.00293 21.6953 8.00293 21.6689 8.00293C21.5947 8.00098 21.5195 8 21.4444 8C15.2934 8 10.3071 12.9862 10.3071 19.1373C10.3071 19.7778 10.3618 20.4046 10.4653 21.0158C9.87363 20.8879 9.25957 20.8186 8.62979 20.8186C3.86445 20.8212 0 24.6856 0 29.4521C0 34.2197 3.86445 38.0841 8.63193 38.0841H33.6042C39.2632 38.0841 43.8501 33.4962 43.8501 27.8382C43.8501 27.6518 43.8452 27.4663 43.8345 27.2827Z"/><path fill="#fff" fill-rule="evenodd" d="M47.8199 19.0503C47.8257 19.1274 47.8316 19.2046 47.8345 19.2827C47.8453 19.4663 47.8501 19.6518 47.8501 19.8382C47.8501 22.1318 47.0964 24.2495 45.823 25.9571C45.8185 25.9025 45.8135 25.8481 45.8076 25.7938C45.7992 25.7076 45.7898 25.6214 45.7783 25.5363C45.7731 25.4958 45.7678 25.4542 45.7615 25.4137C45.7553 25.3587 45.7469 25.3046 45.7385 25.2506C45.7354 25.2267 45.7322 25.2039 45.727 25.181C45.7186 25.1187 45.7082 25.0574 45.6966 24.9951C45.682 24.9109 45.6663 24.8278 45.6495 24.7449C45.6422 24.7075 45.6338 24.6701 45.6255 24.6337C45.6129 24.5703 45.5993 24.507 45.5836 24.4447C45.5689 24.3792 45.5532 24.3138 45.5365 24.2504C45.5198 24.1798 45.5009 24.1091 45.4821 24.0395C45.4779 24.0229 45.4737 24.0073 45.4695 23.9928C45.4559 23.944 45.4423 23.8962 45.4276 23.8484C45.4119 23.7923 45.3952 23.7352 45.3764 23.6791C45.3711 23.6583 45.3648 23.6375 45.3575 23.6178C45.3418 23.5669 45.3261 23.517 45.3083 23.4661C45.2916 23.4163 45.2748 23.3664 45.257 23.3176C45.2466 23.2854 45.235 23.2532 45.2235 23.222L45.2235 23.2219C45.2068 23.1752 45.19 23.1285 45.1712 23.0828C45.1607 23.0506 45.1482 23.0184 45.1356 22.9873C45.1136 22.9301 45.0916 22.8751 45.0686 22.819C45.0634 22.8034 45.0571 22.7889 45.0508 22.7743C45.0236 22.7079 44.9954 22.6414 44.9671 22.5759L44.9482 22.5323C44.9179 22.4638 44.8865 22.3963 44.8551 22.3288L44.8551 22.3287C44.8247 22.2633 44.7944 22.1978 44.7619 22.1334C44.7441 22.095 44.7253 22.0576 44.7054 22.0202C44.6813 21.9703 44.6552 21.9205 44.629 21.8717C44.5903 21.7958 44.5494 21.721 44.5086 21.6473C44.4689 21.5766 44.4291 21.506 44.3883 21.4354C44.3778 21.4177 44.3673 21.4011 44.3569 21.3834C44.3289 21.335 44.2996 21.2865 44.2706 21.2386C44.2648 21.229 44.259 21.2195 44.2532 21.21L44.247 21.2006C44.204 21.131 44.1601 21.0625 44.1161 20.9949C43.7478 20.4268 43.3281 19.8962 42.8625 19.408C42.7871 19.3281 42.7096 19.2491 42.6301 19.1723C42.5736 19.1152 42.516 19.0591 42.4574 19.0041C42.3904 18.9407 42.3234 18.8784 42.2543 18.8171C42.1926 18.761 42.1298 18.7059 42.067 18.653C42.001 18.5958 41.934 18.5387 41.866 18.4837C41.8095 18.4369 41.7519 18.3912 41.6943 18.3455C41.598 18.2707 41.5028 18.198 41.4055 18.1274C41.3647 18.0962 41.3229 18.0661 41.281 18.037C41.2548 18.0173 41.2276 17.9986 41.2004 17.9799C41.1481 17.9435 41.0957 17.9071 41.0423 17.8708C41.0397 17.869 41.0369 17.8673 41.0342 17.8655C41.0271 17.861 41.0198 17.8563 41.013 17.851C40.9565 17.8137 40.8989 17.7763 40.8414 17.7389C40.8278 17.73 40.8141 17.7215 40.8005 17.7129C40.7869 17.7043 40.7733 17.6957 40.7597 17.6869C40.6404 17.6111 40.5191 17.5384 40.3956 17.4677C40.3474 17.4397 40.2993 17.4117 40.2501 17.3857C40.2124 17.3639 40.1747 17.3431 40.136 17.3223C40.0784 17.2901 40.0198 17.259 39.9601 17.2288C39.9444 17.2209 39.9287 17.2128 39.913 17.2047C39.8816 17.1885 39.8502 17.1724 39.8188 17.1572C39.507 17.0003 39.1857 16.8581 38.8561 16.7324C38.7985 16.7085 38.7399 16.6867 38.6813 16.6659L38.6811 16.6659C38.6623 16.6586 38.6435 16.6514 38.6247 16.6452C38.5755 16.6275 38.5264 16.6098 38.4761 16.5932C38.4395 16.5797 38.4039 16.5683 38.3673 16.5558C38.3181 16.5392 38.2699 16.5236 38.2207 16.5091C38.0124 16.4426 37.8021 16.3824 37.5886 16.3294C37.5132 16.3096 37.4368 16.292 37.3604 16.2743C37.2798 16.2556 37.1992 16.238 37.1176 16.2213C37.104 16.2182 37.0904 16.2162 37.0757 16.213C36.9951 16.1964 36.9135 16.1808 36.8309 16.1663C36.8293 16.1663 36.8277 16.166 36.8262 16.1658C36.8246 16.1655 36.823 16.1653 36.8215 16.1653C36.7325 16.1486 36.6425 16.1341 36.5525 16.1206C36.4711 16.1083 36.3896 16.097 36.3083 16.0858L36.3045 16.0853C36.2197 16.0749 36.136 16.0655 36.0513 16.0562C36.0147 16.052 35.977 16.0489 35.9393 16.0458C35.8702 16.0385 35.8001 16.0323 35.73 16.0271C35.7289 16.0271 35.7278 16.027 35.7267 16.0269C35.7242 16.0266 35.7216 16.0264 35.7195 16.0271C35.6378 16.0198 35.5552 16.0146 35.4726 16.0115C35.4548 16.0094 35.438 16.0084 35.4202 16.0084C35.3606 16.0053 35.3009 16.0022 35.2402 16.0011L35.1449 15.998C35.057 15.9959 34.9691 15.9949 34.8802 15.9949C34.4742 15.9949 34.0745 16.0167 33.6799 16.0593C33.6673 15.9648 33.6537 15.8702 33.638 15.7758C33.6233 15.6823 33.6076 15.5888 33.5898 15.4955C33.5522 15.2898 33.5093 15.0863 33.459 14.8837C33.4433 14.8121 33.4255 14.7414 33.4067 14.6708C33.4067 14.6677 33.4056 14.6646 33.4035 14.6614C33.3816 14.5721 33.3564 14.4838 33.3313 14.3967C33.3104 14.3198 33.2874 14.244 33.2643 14.1692C33.2598 14.155 33.2554 14.1408 33.251 14.1266C33.2421 14.0982 33.2333 14.0698 33.2235 14.0414C33.2099 13.9957 33.1952 13.951 33.1795 13.9064L33.1795 13.9061C33.1606 13.8501 33.1418 13.7941 33.122 13.7391C33.1167 13.7225 33.1115 13.7059 33.1042 13.6893C33.0801 13.6186 33.0539 13.549 33.0278 13.4805C33.0215 13.4608 33.0131 13.441 33.0047 13.4213L33.0047 13.4213C32.9859 13.3693 32.965 13.3174 32.944 13.2655L32.9439 13.2652C32.9251 13.2175 32.9063 13.1698 32.8854 13.1232C32.876 13.0982 32.8666 13.0743 32.8551 13.0494C32.8299 12.9902 32.8048 12.931 32.7786 12.8718C32.7671 12.8448 32.7546 12.8178 32.742 12.7908C32.719 12.7399 32.696 12.689 32.6719 12.6391C32.6669 12.6284 32.6619 12.6176 32.6568 12.6068C32.6409 12.5726 32.6247 12.538 32.608 12.5041C32.5986 12.4843 32.5892 12.4656 32.5787 12.4459C32.5494 12.3846 32.5191 12.3244 32.4877 12.2641C32.4772 12.2433 32.4667 12.2226 32.4552 12.2018C32.4249 12.1426 32.3935 12.0844 32.3621 12.0262C32.3527 12.0097 32.3433 11.9921 32.3339 11.9745L32.3338 11.9743C32.2982 11.9099 32.2616 11.8455 32.2249 11.7811C32.181 11.7042 32.137 11.6294 32.092 11.5557C32.0543 11.4933 32.0156 11.431 31.9769 11.3687C31.9371 11.3054 31.8964 11.2431 31.8556 11.1809L31.8554 11.1807C31.7843 11.0716 31.711 10.9646 31.6356 10.8588C31.5435 10.7268 31.4483 10.5981 31.351 10.4704C31.2956 10.3987 31.239 10.327 31.1815 10.2554C31.1249 10.1847 31.0663 10.1141 31.0077 10.0445C30.946 9.97074 30.8832 9.89803 30.8193 9.82635C30.7617 9.76091 30.7042 9.69755 30.6445 9.63314C30.5838 9.5677 30.522 9.50122 30.4592 9.43682L30.4488 9.42643C30.3881 9.36307 30.3263 9.30178 30.2635 9.24049C30.1986 9.17609 30.1337 9.11273 30.0667 9.0504C29.9338 8.92471 29.7977 8.80224 29.6597 8.68383C29.5906 8.62462 29.5204 8.56541 29.4503 8.50828L29.4493 8.50724C29.399 8.46569 29.3488 8.42519 29.2986 8.38469L29.2985 8.38466C29.2305 8.33065 29.1614 8.27767 29.0923 8.2247C29.04 8.18418 28.9866 8.14471 28.9332 8.10628C28.8799 8.06577 28.8265 8.02733 28.772 7.98994C28.7344 7.96296 28.6968 7.93703 28.6591 7.91109L28.659 7.91099C28.547 7.83308 28.4329 7.75726 28.3168 7.68247C28.2655 7.65026 28.2142 7.61806 28.1619 7.58586C28.0991 7.54639 28.0353 7.50795 27.9714 7.46952C27.8762 7.41239 27.7788 7.3563 27.6805 7.30228C27.5832 7.24723 27.4837 7.19425 27.3844 7.14231C27.2965 7.09661 27.2075 7.0509 27.1176 7.00727C27.0507 6.9751 26.9827 6.94293 26.9147 6.91076L26.9145 6.91067C26.8528 6.88158 26.791 6.85354 26.7293 6.82653C26.6696 6.79952 26.61 6.77355 26.5503 6.74862C26.5486 6.74792 26.5469 6.74721 26.5452 6.74649C26.5392 6.74404 26.5329 6.74145 26.5273 6.73824C26.5118 6.73182 26.4963 6.72534 26.4807 6.71884C26.4383 6.70111 26.3956 6.68328 26.3535 6.66656C26.2269 6.61566 26.0992 6.5658 25.9705 6.51906C25.9067 6.49517 25.8418 6.47232 25.7769 6.4505C25.713 6.42765 25.6471 6.40583 25.5822 6.38506C25.4513 6.34247 25.3206 6.30196 25.1877 6.26353L25.0443 6.22301C25.0097 6.21263 24.9741 6.20328 24.9396 6.19497C24.9308 6.19259 24.9219 6.19021 24.9131 6.18783C24.872 6.17674 24.8313 6.16576 24.7899 6.15549C24.6549 6.12122 24.5189 6.09005 24.3818 6.06097L24.3817 6.06095C24.343 6.05264 24.3043 6.04434 24.2646 6.03604C24.2081 6.02461 24.1505 6.01319 24.094 6.0028C24.0741 5.99864 24.0552 5.99553 24.0364 5.99241C23.9548 5.97683 23.8742 5.96229 23.7925 5.94982C23.719 5.93718 23.6446 5.92635 23.571 5.91565L23.556 5.91347C23.4785 5.90204 23.401 5.89165 23.3236 5.88334C23.265 5.87503 23.2074 5.8688 23.1488 5.86257C22.9028 5.83556 22.6538 5.81686 22.4036 5.80647C22.3272 5.80232 22.2498 5.7992 22.1723 5.79712C22.1451 5.79609 22.1168 5.79609 22.0886 5.79609C22.009 5.79401 21.9284 5.79297 21.8479 5.79297C19.1739 5.79297 16.7053 6.66545 14.7153 8.13921C16.0244 3.44439 20.3321 0 25.4445 0C25.5196 0 25.5948 0.000976562 25.669 0.00292969C25.6954 0.00292969 25.7217 0.00292969 25.7471 0.00390625C25.8194 0.00585938 25.8916 0.00878906 25.9629 0.0126953C26.1963 0.0224609 26.4287 0.0400391 26.6581 0.0654297C26.7128 0.0712891 26.7665 0.0771484 26.8212 0.0849609C26.8935 0.0927734 26.9658 0.102539 27.038 0.113281L27.0521 0.115341C27.1208 0.125404 27.1902 0.135577 27.2587 0.147461C27.3349 0.15918 27.4101 0.172852 27.4863 0.1875C27.5038 0.19043 27.5214 0.193359 27.54 0.197266C27.5927 0.207031 27.6464 0.217773 27.6992 0.228516C27.7363 0.236328 27.7724 0.244141 27.8085 0.251953C27.9365 0.279297 28.0633 0.308594 28.1893 0.34082C28.2279 0.350475 28.2659 0.360794 28.3043 0.371228C28.3125 0.373459 28.3207 0.375694 28.3289 0.37793C28.3612 0.385742 28.3944 0.394531 28.4266 0.404297L28.5604 0.442383C28.6844 0.478516 28.8064 0.516602 28.9285 0.556641C28.989 0.576172 29.0505 0.59668 29.1101 0.618164C29.1706 0.638672 29.2312 0.660156 29.2908 0.682617C29.4108 0.726562 29.5299 0.773438 29.6481 0.821289C29.6874 0.837009 29.7272 0.853775 29.7668 0.870439C29.7813 0.876549 29.7958 0.882646 29.8102 0.888672C29.8155 0.891692 29.8214 0.894129 29.8269 0.896433C29.8285 0.897109 29.8301 0.897773 29.8317 0.898438C29.8873 0.921875 29.943 0.946289 29.9987 0.97168C30.0563 0.99707 30.1139 1.02344 30.1715 1.05078C30.235 1.08105 30.2985 1.11133 30.361 1.1416C30.4449 1.18262 30.5279 1.22559 30.6099 1.26855C30.7026 1.31738 30.7954 1.36719 30.8862 1.41895C30.9779 1.46973 31.0687 1.52246 31.1576 1.57617C31.2171 1.6123 31.2767 1.64844 31.3353 1.68555C31.3841 1.71582 31.432 1.74609 31.4798 1.77637C31.5881 1.84668 31.6946 1.91797 31.7991 1.99121C31.8342 2.01562 31.8694 2.04004 31.9045 2.06543C31.9553 2.10059 32.0051 2.13672 32.0549 2.1748C32.1047 2.21094 32.1545 2.24805 32.2034 2.28613C32.2678 2.33594 32.3323 2.38574 32.3957 2.43652C32.4426 2.47461 32.4895 2.5127 32.5373 2.55273C32.6028 2.60645 32.6682 2.66211 32.7327 2.71777C32.8615 2.8291 32.9884 2.94424 33.1124 3.0624C33.1749 3.121 33.2355 3.18057 33.296 3.24111C33.3546 3.29873 33.4122 3.35635 33.4689 3.41592L33.4787 3.42568C33.5372 3.48623 33.5949 3.54873 33.6515 3.61025C33.7072 3.6708 33.7609 3.73037 33.8146 3.79189C33.8742 3.85928 33.9328 3.92764 33.9904 3.99697C34.0451 4.0624 34.0997 4.12881 34.1525 4.19521C34.2062 4.2626 34.2589 4.32998 34.3107 4.39736C34.4014 4.51748 34.4903 4.63848 34.5762 4.7625C34.6465 4.86201 34.7149 4.9626 34.7813 5.06514C34.8194 5.12373 34.8575 5.18232 34.8946 5.24189C34.9307 5.30049 34.9668 5.35908 35.002 5.41768C35.044 5.48701 35.085 5.55732 35.126 5.62959C35.1602 5.69014 35.1944 5.75068 35.2276 5.81123C35.2364 5.82783 35.2452 5.84443 35.2539 5.86006C35.2832 5.91475 35.3125 5.96943 35.3409 6.0251C35.3516 6.04463 35.3614 6.06416 35.3711 6.08369C35.4004 6.14033 35.4288 6.19697 35.4561 6.25459C35.4659 6.27314 35.4746 6.29072 35.4834 6.30928C35.499 6.34118 35.514 6.37365 35.5289 6.40582C35.5336 6.416 35.5383 6.42614 35.543 6.43623C35.5655 6.48311 35.587 6.53096 35.6084 6.57881C35.6202 6.6042 35.6319 6.62959 35.6426 6.65498C35.667 6.71064 35.6905 6.76631 35.7139 6.82197C35.7246 6.84541 35.7334 6.86787 35.7422 6.89131C35.7618 6.93525 35.7793 6.98018 35.7969 7.0251C35.8164 7.07393 35.836 7.12275 35.8536 7.17158C35.8614 7.19014 35.8692 7.20869 35.875 7.22725C35.8995 7.2917 35.9239 7.35713 35.9463 7.42354C35.9532 7.43916 35.958 7.45479 35.9629 7.47041C35.9815 7.52217 35.9991 7.5749 36.0166 7.62764C36.0313 7.66963 36.045 7.71162 36.0577 7.75459C36.0668 7.78128 36.075 7.80798 36.0833 7.83467C36.0874 7.84801 36.0915 7.86136 36.0957 7.87471C36.1172 7.94502 36.1387 8.01631 36.1582 8.08857C36.1817 8.17051 36.2051 8.25352 36.2256 8.3375C36.2276 8.34043 36.2286 8.34336 36.2286 8.34629C36.2461 8.41269 36.2627 8.4791 36.2774 8.54648C36.3243 8.73691 36.3643 8.92822 36.3995 9.12158C36.4161 9.20938 36.4307 9.29727 36.4444 9.38516C36.459 9.47393 36.4717 9.56279 36.4834 9.65166C36.8516 9.61162 37.2246 9.59111 37.6034 9.59111C37.6863 9.59111 37.7683 9.59209 37.8503 9.59404L37.9392 9.59697C37.9958 9.59795 38.0515 9.60088 38.1072 9.60381C38.1238 9.60381 38.1394 9.60478 38.156 9.60674C38.233 9.60967 38.3102 9.61455 38.3864 9.62139C38.3884 9.62072 38.3908 9.62096 38.3931 9.62118C38.3941 9.62129 38.3952 9.62139 38.3961 9.62139C38.4616 9.62627 38.527 9.63213 38.5914 9.63896C38.6266 9.64189 38.6618 9.64482 38.6959 9.64873C38.7749 9.65752 38.8531 9.66631 38.9322 9.67607L38.9355 9.67653C39.0114 9.68712 39.0875 9.69773 39.1635 9.70928C39.2475 9.72197 39.3315 9.73564 39.4145 9.75127C39.4174 9.75127 39.4204 9.75225 39.4233 9.75225C39.5003 9.76592 39.5765 9.78057 39.6517 9.79619C39.6578 9.7975 39.6638 9.79862 39.6696 9.79972C39.6767 9.80107 39.6838 9.80239 39.6908 9.804C39.7669 9.81963 39.8421 9.83623 39.9173 9.85381C39.9886 9.87041 40.0599 9.88701 40.1302 9.90557C40.3294 9.95537 40.5256 10.012 40.72 10.0745C40.7659 10.0882 40.8108 10.1028 40.8567 10.1185C40.8664 10.1218 40.8761 10.1251 40.8857 10.1283C40.9099 10.1365 40.9338 10.1445 40.9582 10.1536C41.0051 10.1692 41.051 10.1858 41.0969 10.2024C41.1145 10.2083 41.1321 10.2151 41.1496 10.222C41.2043 10.2415 41.259 10.262 41.3127 10.2845C41.6203 10.4026 41.9201 10.5363 42.211 10.6838C42.2403 10.6981 42.2696 10.7133 42.2989 10.7285C42.3135 10.7361 42.3282 10.7437 42.3428 10.7512C42.3985 10.7795 42.4532 10.8088 42.5069 10.8391C42.543 10.8586 42.5782 10.8781 42.6133 10.8986C42.6592 10.923 42.7041 10.9494 42.7491 10.9758C42.8643 11.0422 42.9775 11.1105 43.0888 11.1818C43.1015 11.1901 43.1142 11.1982 43.1269 11.2063C43.1396 11.2143 43.1523 11.2224 43.165 11.2307C43.2187 11.2658 43.2724 11.301 43.3251 11.3361C43.3314 11.341 43.3383 11.3454 43.3449 11.3497C43.3474 11.3514 43.35 11.353 43.3525 11.3547C43.4023 11.3889 43.4511 11.423 43.4999 11.4572C43.5253 11.4748 43.5507 11.4924 43.5751 11.5109C43.6142 11.5383 43.6533 11.5666 43.6913 11.5959C43.7821 11.6623 43.8709 11.7307 43.9608 11.801C44.0145 11.8439 44.0682 11.8869 44.1209 11.9309C44.1844 11.9826 44.2469 12.0363 44.3084 12.09C44.367 12.1398 44.4256 12.1916 44.4832 12.2443C44.5477 12.302 44.6102 12.3605 44.6727 12.4201C44.7274 12.4719 44.7811 12.5246 44.8338 12.5783C44.908 12.6505 44.9803 12.7247 45.0506 12.7999C45.4851 13.2588 45.8766 13.7577 46.2203 14.2918C46.2613 14.3553 46.3023 14.4197 46.3482 14.4939C46.3535 14.5029 46.3589 14.5118 46.3643 14.5208C46.3914 14.5658 46.4188 14.6114 46.4449 14.657C46.4546 14.6736 46.4644 14.6893 46.4742 14.7059C46.5122 14.7723 46.5494 14.8387 46.5865 14.9051C46.6246 14.9744 46.6626 15.0447 46.6988 15.116C46.7232 15.1619 46.7476 15.2088 46.7701 15.2557C46.7886 15.2908 46.8062 15.326 46.8228 15.3621C46.8531 15.4227 46.8814 15.4842 46.9097 15.5457C46.939 15.6092 46.9683 15.6727 46.9966 15.7371L47.0142 15.7781C47.0406 15.8396 47.0669 15.9021 47.0923 15.9646C47.0982 15.9783 47.104 15.992 47.1089 16.0066C47.1304 16.0594 47.1509 16.1111 47.1714 16.1648C47.1831 16.1941 47.1949 16.2244 47.2046 16.2547C47.2222 16.2977 47.2378 16.3416 47.2535 16.3855C47.2642 16.4148 47.2749 16.4451 47.2847 16.4754C47.3013 16.5213 47.3169 16.5682 47.3326 16.615C47.3492 16.6629 47.3638 16.7098 47.3785 16.7576C47.3853 16.7762 47.3912 16.7957 47.396 16.8152C47.4136 16.868 47.4292 16.9217 47.4439 16.9744C47.4576 17.0193 47.4703 17.0643 47.483 17.1102C47.4869 17.1238 47.4908 17.1385 47.4947 17.1541C47.5122 17.2195 47.5298 17.2859 47.5455 17.3523C47.5611 17.4119 47.5757 17.4734 47.5894 17.535C47.604 17.5936 47.6167 17.6531 47.6285 17.7127C47.6363 17.7469 47.6441 17.782 47.6509 17.8172C47.6665 17.8952 47.6812 17.9733 47.6949 18.0524C47.7056 18.111 47.7154 18.1687 47.7232 18.2272C47.7281 18.2487 47.731 18.2702 47.7339 18.2927C47.7417 18.3435 47.7496 18.3942 47.7554 18.446C47.7607 18.4802 47.7652 18.5152 47.7695 18.5496L47.771 18.5612C47.7818 18.6412 47.7906 18.7223 47.7984 18.8033C47.8072 18.8853 47.814 18.9673 47.8199 19.0503Z" clip-rule="evenodd" opacity=".6"/></svg>