<svg xmlns="http://www.w3.org/2000/svg" width="50" height="50" fill="none" viewBox="0 0 50 50"><path fill="#fff" d="M0 12.1245V46.9605H49.2514V12.1245H0Z"/><path fill="#B2B2B2" d="M33.1738 24.9365L27.4595 23.3291L26.7399 25.8383L28.6873 26.3824L21.6806 31.1778L20.4981 29.4247C20.2925 29.1198 19.9982 28.9302 19.6791 28.8681C19.36 28.8061 18.9842 28.8655 18.7112 29.0774L6.7576 37.6692L8.22286 39.8415L19.1094 31.9695L20.2919 33.7226C20.7032 34.3324 21.5009 34.4874 22.1107 34.0761L30.1525 28.5548L29.9275 30.5641L32.5236 30.837L33.1738 24.9365Z"/><path fill="#B2B2B2" d="M5.91016 21.7004V39.9037C5.91016 40.6189 6.49526 41.204 7.21039 41.204H43.4607V38.6035H8.51063V21.7004H5.91016Z"/><path fill="#fff" d="M49.2514 10.0221V2.68408H0V10.0221H49.2514Z" opacity=".6"/><circle cx="4.433" cy="6.483" r="1.478" fill="#fff"/><circle cx="9.358" cy="6.483" r="1.478" fill="#fff"/></svg>