<svg xmlns="http://www.w3.org/2000/svg" width="47" height="49" fill="none" viewBox="0 0 47 49"><path fill="#fff" d="M14.1144 9.51317H38.6188L38.6176 13.7861L46.3578 6.88936L38.6188 0V4.26555H11.4001C5.12863 4.27233 0.0417897 10.6945 7.21321e-05 16.9577C-7.21321e-05 16.9793 7.21321e-05 17.0227 7.21321e-05 17.0227V26.0941H5.24798V17.0227C5.24798 17.0227 5.24781 16.981 5.24798 16.9602C5.28704 12.0943 9.24047 9.51871 14.1144 9.51317Z"/><path fill="#fff" d="M32.2436 38.5811H7.73908L7.74031 34.3081L0.000133514 41.2049L7.73908 48.0942V43.8287H34.9578C41.2293 43.8219 46.3161 37.3998 46.3578 31.1366C46.358 31.1149 46.3578 31.0716 46.3578 31.0716V22.0001H41.1099V31.0716C41.1099 31.0716 41.1101 31.1132 41.1099 31.134C41.0709 36 37.1174 38.5755 32.2436 38.5811Z"/></svg>