<svg xmlns="http://www.w3.org/2000/svg" width="50" height="50" fill="none" viewBox="0 0 50 50"><path fill="#fff" d="M0.759277 23.2769V23.8856C0.759277 24.8852 0.816885 25.8299 0.926035 26.7233H44.4446C44.5537 25.8299 44.6113 24.8852 44.6113 23.8856V23.2769L0.759277 23.2769Z" opacity=".6"/><path fill="#F9F9F9" fill-rule="evenodd" d="M42.8888 6.89431C43.2733 6.0772 44.0951 5.55566 44.9982 5.55566C46.8013 5.55566 47.9218 7.51486 47.0076 9.06899L39.815 21.2964H36.1113L42.8888 6.89431Z" clip-rule="evenodd"/><path fill="#F9F9F9" d="M0.92627 28.7039C1.54924 33.126 2.95969 36.4932 4.8305 39.0218C7.38782 42.4782 10.7664 44.3415 14.024 45.3415L14.1148 45.3705H31.2562L31.347 45.3415C34.6047 44.3415 37.9834 42.4782 40.5408 39.0218C42.4117 36.4933 43.8219 33.126 44.4448 28.7039H0.92627Z"/><path fill="#F9F9F9" d="M9.83031 7.82949C9.98071 7.84599 10.4922 8.00608 10.9657 8.28442C11.4392 8.56293 11.9042 8.95519 12.1744 9.37872C12.4445 9.80226 12.549 10.2204 12.37 10.7626C12.191 11.3047 11.6728 12.0104 10.5181 12.8149C9.14331 13.7727 8.44018 14.7042 8.34415 15.6608C8.24812 16.6174 8.81567 17.401 9.46568 17.9345C10.7657 19.0015 12.6039 19.4447 12.6039 19.4447L13.9167 18.1369C13.9167 18.1369 12.252 17.6607 11.3377 16.9104C10.8806 16.5353 10.6631 16.1862 10.7031 15.7881C10.7429 15.3899 11.0977 14.7447 12.2998 13.9071C13.6107 12.9938 14.367 12.0844 14.6704 11.1654C14.9739 10.2465 14.7675 9.35809 14.3345 8.67924C13.9015 8.00043 13.2715 7.49516 12.6538 7.13207C12.0361 6.76898 11.4618 6.5428 10.9306 6.48169L9.83031 7.82949Z"/><path fill="#F9F9F9" d="M18.1633 7.82949C18.3137 7.84599 18.8252 8.00608 19.2987 8.28442C19.7722 8.56293 20.2372 8.95519 20.5074 9.37872C20.7775 9.80226 20.882 10.2204 20.703 10.7626C20.524 11.3047 20.0059 12.0104 18.8511 12.8149C17.4763 13.7727 16.7732 14.7042 16.6772 15.6608C16.5811 16.6174 17.1487 17.401 17.7987 17.9345C19.0987 19.0015 20.9369 19.4447 20.9369 19.4447L22.2497 18.1369C22.2497 18.1369 20.585 17.6607 19.6707 16.9104C19.2136 16.5353 18.9961 16.1862 19.0361 15.7881C19.0759 15.3899 19.4307 14.7447 20.6328 13.9071C21.9437 12.9938 22.7 12.0844 23.0035 11.1654C23.3069 10.2465 23.1005 9.35809 22.6675 8.67924C22.2345 8.00043 21.6045 7.49516 20.9868 7.13207C20.3691 6.76898 19.7948 6.5428 19.2636 6.48169L18.1633 7.82949Z"/><path fill="#F9F9F9" d="M26.4958 7.82949C26.6462 7.84599 27.1577 8.00608 27.6312 8.28442C28.1047 8.56293 28.5698 8.95519 28.8399 9.37872C29.1101 9.80226 29.2145 10.2204 29.0355 10.7626C28.8565 11.3047 28.3384 12.0104 27.1836 12.8149C25.8088 13.7727 25.1057 14.7042 25.0097 15.6608C24.9136 16.6174 25.4812 17.401 26.1312 17.9345C27.4312 19.0015 29.2694 19.4447 29.2694 19.4447L30.5823 18.1369C30.5823 18.1369 28.9175 17.6607 28.0032 16.9104C27.5461 16.5353 27.3286 16.1862 27.3686 15.7881C27.4084 15.3899 27.7632 14.7447 28.9653 13.9071C30.2762 12.9938 31.0325 12.0844 31.336 11.1654C31.6394 10.2465 31.433 9.35809 31 8.67924C30.567 8.00043 29.937 7.49516 29.3193 7.13207C28.7016 6.76898 28.1273 6.5428 27.5961 6.48169L26.4958 7.82949Z"/></svg>