<svg xmlns="http://www.w3.org/2000/svg" width="9" height="9" fill="none" viewBox="0 0 9 9"><path fill="#6A86CE" d="M0.401367 7.47266C0.196289 7.67773 0.186523 8.04395 0.40625 8.25879C0.621094 8.47363 0.987305 8.46875 1.19238 8.26367L4.18066 5.27051L7.17383 8.26367C7.38379 8.47363 7.74512 8.47363 7.95996 8.25879C8.16992 8.03906 8.1748 7.68262 7.95996 7.47266L4.97168 4.47949L7.95996 1.49121C8.1748 1.28125 8.1748 0.919922 7.95996 0.705078C7.74023 0.495117 7.38379 0.490234 7.17383 0.700195L4.18066 3.69336L1.19238 0.700195C0.987305 0.495117 0.616211 0.485352 0.40625 0.705078C0.191406 0.919922 0.196289 1.28613 0.401367 1.49121L3.39453 4.47949L0.401367 7.47266Z"/></svg>