<svg xmlns="http://www.w3.org/2000/svg" width="13" height="16" fill="none" viewBox="0 0 13 16"><path stroke="#fff" stroke-linecap="round" stroke-linejoin="round" d="M8 1H2.4C2.0287 1 1.6726 1.1475 1.41005 1.41005C1.1475 1.6726 1 2.0287 1 2.4V13.6C1 13.9713 1.1475 14.3274 1.41005 14.5899C1.6726 14.8525 2.0287 15 2.4 15H10.8C11.1713 15 11.5274 14.8525 11.7899 14.5899C12.0525 14.3274 12.2 13.9713 12.2 13.6V5.2L8 1Z"/><path stroke="#fff" stroke-linecap="round" stroke-linejoin="round" d="M8 1V5.2H12.2"/><path stroke="#fff" stroke-linecap="round" stroke-linejoin="round" d="M9.40005 8.70117H3.80005"/><path stroke="#fff" stroke-linecap="round" stroke-linejoin="round" d="M9.40005 11.5H3.80005"/><path stroke="#fff" stroke-linecap="round" stroke-linejoin="round" d="M5.20005 5.89941H4.50005H3.80005"/></svg>