<svg xmlns="http://www.w3.org/2000/svg" width="15" height="24" fill="none" viewBox="0 0 15 24"><path fill="#fff" d="M7.12031 0C3.60174 0 0.72881 2.3228 0.0322771 5.11111C-0.103634 5.56968 0.205076 6.11027 0.669165 6.22623C1.13321 6.34214 1.65996 6.01028 1.75565 5.54166C2.21912 3.68606 4.40947 1.77778 7.12031 1.77778C8.46231 1.77778 9.84644 2.26086 10.845 3.06944C11.8435 3.87811 12.4433 4.96297 12.4433 6.22222C12.4433 7.75061 12.1103 8.52061 11.6511 9.1111C11.1917 9.70159 10.5312 10.1422 9.71924 10.7222C8.9072 11.3022 7.98547 12.0464 7.31485 13.2917C6.64427 14.5369 6.2308 16.2346 6.2308 18.6666C6.2308 19.1324 6.65454 19.5561 7.12031 19.5561C7.58605 19.5561 8.00978 19.1324 8.00978 18.6666C8.00978 16.4321 8.37529 15.0602 8.87147 14.1389C9.3676 13.2175 10.0041 12.6977 10.7476 12.1667C11.4913 11.6355 12.3612 11.1178 13.0687 10.2083C13.7761 9.29881 14.2222 8.02715 14.2222 6.22222C14.2222 4.37035 13.2769 2.77475 11.9429 1.69444C10.6088 0.614133 8.88605 0 7.12031 0ZM7.12031 21.3333C6.38338 21.3333 5.78605 21.9303 5.78605 22.6667C5.78605 23.4031 6.38338 24 7.12031 24C7.8572 24 8.45449 23.4031 8.45449 22.6667C8.45449 21.9303 7.8572 21.3333 7.12031 21.3333Z"/></svg>