<svg xmlns="http://www.w3.org/2000/svg" width="9" height="12" fill="none" viewBox="0 0 9 12"><path fill="#5BB749" fill-rule="evenodd" d="M6 4.8H2.4V3C2.4 2.0076 3.2076 1.2 4.2 1.2C5.1924 1.2 6 2.0076 6 3V4.8ZM4.8 8.8332V10.2H3.6V8.8332C3.243 8.625 3 8.2422 3 7.8C3 7.1376 3.5376 6.6 4.2 6.6C4.8624 6.6 5.4 7.1376 5.4 7.8C5.4 8.2422 5.157 8.625 4.8 8.8332ZM7.2 4.8V3C7.2 1.3458 5.8542 0 4.2 0C2.5458 0 1.2 1.3458 1.2 3V4.8C0.5376 4.8 0 5.3376 0 6V10.8C0 11.4624 0.5376 12 1.2 12H7.2C7.8624 12 8.4 11.4624 8.4 10.8V6C8.4 5.3376 7.8624 4.8 7.2 4.8Z" clip-rule="evenodd"/></svg>