<?xml version="1.0" standalone="no"?>
<!DOCTYPE svg PUBLIC "-//W3C//DTD SVG 1.1//EN" "http://www.w3.org/Graphics/SVG/1.1/DTD/svg11.dtd">
<svg xmlns="http://www.w3.org/2000/svg">
<defs >
<font id="OpenSans" horiz-adv-x="1169" ><font-face
    font-family="Open Sans"
    units-per-em="2048"
    panose-1="0 0 0 0 0 0 0 0 0 0"
    ascent="2189"
    descent="-600"
    alphabetic="0" />
<glyph unicode=" " horiz-adv-x="532" />
<glyph unicode="!" horiz-adv-x="586" d="M416 485H172L121 1462H467L416 485ZM117 143Q117 237 168 275T293 313Q364 313 415 275T467 143Q467 53 416 13T293 -27Q220 -27 169 13T117 143Z" />
<glyph unicode="&quot;" horiz-adv-x="967" d="M412 1462L371 934H174L133 1462H412ZM834 1462L793 934H596L555 1462H834Z" />
<glyph unicode="#" horiz-adv-x="1323" d="M999 844L952 612H1210V406H913L836 0H616L694 406H500L424 0H209L283 406H45V612H322L369 844H117V1053H406L483 1460H702L625 1053H823L901 1460H1116L1038 1053H1278V844H999ZM539 612H735L782 844H586L539 612Z" />
<glyph unicode="$" horiz-adv-x="1171" d="M518 -119V82Q385 85 281 107T90 168V432Q175 391 293 358T518 317V627Q360 689 266 747T130 877T88 1049Q88 1151 142 1225T294 1345T518 1401V1554H655V1405Q771 1401 871 1379T1069 1313L975 1079Q893 1113 811 1132T655
1157V862Q766 821 866 773T1029 651T1092 457Q1092 308 984 207T655 86V-119H518ZM655 324Q725 336 758 365T791 442Q791 470 776 492T731 533T655 573V324ZM518 918V1153Q477 1147 448 1134T404 1099T389 1049Q389 1020 402 998T444 957T518 918Z" />
<glyph unicode="%" horiz-adv-x="1845" d="M408 1483Q580 1483 669 1363T758 1026Q758 809 674 687T408 565Q239 565 151 687T63 1026Q63 1243 145 1363T408 1483ZM410 1274Q361 1274 338 1212T315 1024Q315 898 338 835T410 772Q459 772 482 834T506 1024Q506
1150 483 1212T410 1274ZM1446 1462L635 0H395L1206 1462H1446ZM1432 899Q1604 899 1693 779T1782 442Q1782 226 1698 104T1432 -18Q1263 -18 1175 104T1087 442Q1087 659 1169 779T1432 899ZM1434 690Q1385 690 1362 628T1339 440Q1339 314 1362 251T1434 188Q1483
188 1506 250T1530 440Q1530 566 1507 628T1434 690Z" />
<glyph unicode="&amp;" horiz-adv-x="1536" d="M635 1483Q753 1483 845 1446T990 1338T1044 1165Q1044 1024 961 928T752 760L1036 483Q1078 552 1107 629T1159 784H1477Q1446 669 1387 539T1235 293L1536 0H1159L1044 113Q985 72 918 42T774 -4T612 -20Q446 -20
327 32T145 177T82 395Q82 499 114 573T206 704T350 809Q297 871 266 925T221 1032T207 1145Q207 1249 261 1324T412 1441T635 1483ZM528 627Q490 598 462 567T418 501T403 424Q403 336 469 286T633 236Q699 236 756 252T860 297L528 627ZM633 1247Q582 1247 536
1221T489 1124Q489 1074 515 1027T584 930Q670 977 716 1024T762 1133Q762 1194 721 1220T633 1247Z" />
<glyph unicode="&apos;" horiz-adv-x="545" d="M412 1462L371 934H174L133 1462H412Z" />
<glyph unicode="(" horiz-adv-x="694" d="M82 561Q82 728 114 887T213 1192T383 1462H633Q493 1270 421 1038T348 563Q348 405 380 249T475 -53T631 -324H383Q280 -204 213 -62T114 238T82 561Z" />
<glyph unicode=")" horiz-adv-x="694" d="M612 561Q612 396 580 239T482 -61T311 -324H63Q156 -198 219 -53T314 248T346 563Q346 725 314 883T218 1187T61 1462H311Q415 1338 481 1193T580 888T612 561Z" />
<glyph unicode="*" horiz-adv-x="1116" d="M688 1556L647 1188L1020 1292L1053 1040L713 1016L936 719L709 598L553 911L416 600L180 719L401 1016L63 1042L102 1292L467 1188L426 1556H688Z" />
<glyph unicode="+" horiz-adv-x="1171" d="M694 831H1081V612H694V227H475V612H88V831H475V1221H694V831Z" />
<glyph unicode="," horiz-adv-x="584" d="M444 238L459 215Q441 143 413 60T351 -106T283 -264H63Q83 -183 102 -94T137 81T164 238H444Z" />
<glyph unicode="-" horiz-adv-x="659" d="M61 424V674H598V424H61Z" />
<glyph unicode="." horiz-adv-x="584" d="M117 143Q117 237 168 275T293 313Q364 313 415 275T467 143Q467 53 416 13T293 -27Q220 -27 169 13T117 143Z" />
<glyph unicode="/" horiz-adv-x="846" d="M836 1462L291 0H14L559 1462H836Z" />
<glyph unicode="0" horiz-adv-x="1171" d="M1096 731Q1096 554 1069 415T981 179T822 31T584 -20Q408 -20 295 69T128 327T74 731Q74 968 123 1136T285 1395T584 1485Q759 1485 872 1396T1041 1138T1096 731ZM381 731Q381 564 399 453T462 285T584 229Q661 229
705 284T769 451T788 731Q788 898 769 1010T706 1178T584 1235Q506 1235 462 1179T400 1010T381 731Z" />
<glyph unicode="1" horiz-adv-x="1171" d="M846 0H537V846Q537 881 538 932T541 1038T545 1137Q534 1124 501 1093T438 1036L270 901L121 1087L592 1462H846V0Z" />
<glyph unicode="2" horiz-adv-x="1171" d="M1104 0H82V215L449 586Q560 700 627 776T725 916T756 1051Q756 1138 708 1181T578 1225Q493 1225 413 1186T246 1075L78 1274Q141 1328 211 1376T375 1453T600 1483Q744 1483 847 1431T1007 1290T1063 1087Q1063 966
1015 866T876 668T655 451L467 274V260H1104V0Z" />
<glyph unicode="3" horiz-adv-x="1171" d="M1047 1135Q1047 1034 1005 960T892 839T731 770V764Q907 742 998 656T1090 426Q1090 298 1028 197T835 38T500 -20Q379 -20 275 -1T78 59V322Q172 274 275 250T467 225Q633 225 699 282T766 444Q766 505 735 547T628
611T414 633H303V870H416Q551 870 621 895T717 965T743 1067Q743 1145 695 1189T535 1233Q465 1233 408 1216T304 1174T223 1126L80 1339Q166 1401 281 1442T557 1483Q783 1483 915 1392T1047 1135Z" />
<glyph unicode="4" horiz-adv-x="1171" d="M1137 303H961V0H659V303H35V518L676 1462H961V543H1137V303ZM659 543V791Q659 826 660 874T664 970T668 1055T672 1108H664Q645 1067 624 1029T575 948L307 543H659Z" />
<glyph unicode="5" horiz-adv-x="1171" d="M614 934Q748 934 852 883T1017 733T1077 489Q1077 331 1012 217T817 41T494 -20Q379 -20 278 -1T100 59V326Q176 286 282 259T483 231Q575 231 638 255T733 331T766 463Q766 570 694 627T473 684Q416 684 355 673T252
651L129 717L184 1462H977V1200H455L428 913Q462 920 502 927T614 934Z" />
<glyph unicode="6" horiz-adv-x="1171" d="M72 621Q72 747 90 870T155 1103T284 1297T495 1430T805 1479Q848 1479 905 1476T1001 1464V1217Q961 1226 916 1231T825 1237Q643 1237 544 1179T404 1019T356 780H369Q397 829 439 867T543 927T686 950Q814 950 908
896T1053 738T1104 487Q1104 329 1043 215T871 41T606 -20Q494 -20 397 18T227 136T113 335T72 621ZM600 227Q691 227 748 289T805 483Q805 590 756 651T606 713Q538 713 487 683T407 606T379 510Q379 459 393 409T435 318T504 252T600 227Z" />
<glyph unicode="7" horiz-adv-x="1171" d="M227 0L776 1202H55V1462H1104V1268L551 0H227Z" />
<glyph unicode="8" horiz-adv-x="1171" d="M586 1481Q712 1481 818 1442T989 1325T1053 1128Q1053 1040 1019 974T925 859T791 772Q869 731 939 677T1053 549T1098 379Q1098 257 1033 168T853 29T586 -20Q422 -20 307 27T132 161T72 371Q72 471 109 545T211 672T352
764Q287 805 234 857T149 976T117 1130Q117 1246 182 1324T355 1441T586 1481ZM358 389Q358 310 414 259T582 207Q697 207 754 256T811 387Q811 443 779 485T697 560T598 623L571 637Q507 608 460 572T385 491T358 389ZM584 1255Q508 1255 458 1216T408 1106Q408
1056 432 1019T497 953T586 901Q632 923 672 950T737 1015T762 1106Q762 1177 712 1216T584 1255Z" />
<glyph unicode="9" horiz-adv-x="1171" d="M1098 838Q1098 712 1080 588T1015 355T886 161T675 28T365 -20Q322 -20 264 -17T168 -6V242Q208 232 253 227T344 221Q527 221 626 279T766 440T813 678H801Q772 630 733 592T632 531T477 508Q352 508 260 562T117 720T66
971Q66 1130 126 1243T299 1418T563 1479Q675 1479 772 1441T942 1323T1057 1123T1098 838ZM569 1231Q479 1231 422 1169T365 975Q365 869 414 807T563 745Q632 745 683 775T762 852T791 948Q791 999 777 1049T735 1140T666 1206T569 1231Z" />
<glyph unicode=":" horiz-adv-x="584" d="M117 143Q117 237 168 275T293 313Q364 313 415 275T467 143Q467 53 416 13T293 -27Q220 -27 169 13T117 143ZM117 969Q117 1063 168 1101T293 1139Q364 1139 415 1101T467 969Q467 878 416 839T293 799Q220 799 169 838T117
969Z" />
<glyph unicode=";" horiz-adv-x="584" d="M444 238L459 215Q441 143 413 60T351 -106T283 -264H63Q83 -183 102 -94T137 81T164 238H444ZM117 969Q117 1063 168 1101T293 1139Q364 1139 415 1101T467 969Q467 878 416 839T293 799Q220 799 169 838T117 969Z" />
<glyph unicode="&lt;" horiz-adv-x="1171" d="M1081 203L88 641V784L1081 1280V1040L397 723L1081 442V203Z" />
<glyph unicode="=" horiz-adv-x="1171" d="M88 807V1024H1081V807H88ZM88 418V637H1081V418H88Z" />
<glyph unicode="&gt;" horiz-adv-x="1171" d="M88 442L772 723L88 1040V1280L1081 784V641L88 203V442Z" />
<glyph unicode="?" horiz-adv-x="977" d="M276 485V559Q276 627 295 679T356 779T467 877Q529 921 566 956T621 1025T639 1104Q639 1169 591 1203T457 1237Q371 1237 287 1210T115 1139L6 1358Q106 1414 223 1448T479 1483Q693 1483 810 1381T928 1120Q928 1036
902 975T822 861T688 750Q628 706 596 676T553 617T541 545V485H276ZM244 143Q244 237 295 275T420 313Q491 313 542 275T594 143Q594 53 543 13T420 -27Q347 -27 296 13T244 143Z" />
<glyph unicode="@" horiz-adv-x="1837" d="M1735 733Q1735 638 1713 546T1644 379T1529 260T1364 215Q1289 215 1232 251T1151 344H1135Q1093 293 1025 254T860 215Q677 215 578 324T479 612Q479 750 538 855T706 1021T963 1081Q1060 1081 1162 1064T1323 1026L1303
606Q1301 585 1301 564T1300 537Q1300 452 1323 425T1376 397Q1422 397 1453 443T1500 566T1516 735Q1516 906 1447 1026T1257 1210T983 1274Q822 1274 699 1223T493 1080T367 863T324 590Q324 406 390 278T584 84T899 18Q1018 18 1146 44T1382 111V-82Q1284 -123
1163 -147T907 -172Q653 -172 473 -82T198 177T102 584Q102 770 163 929T340 1208T617 1395T981 1462Q1200 1462 1370 1374T1638 1122T1735 733ZM711 608Q711 496 757 447T883 397Q986 397 1028 472T1077 668L1090 889Q1067 894 1038 896T975 899Q878 899 820 857T737
748T711 608Z" />
<glyph unicode="A" horiz-adv-x="1413" d="M1079 0L973 348H440L334 0H0L516 1468H895L1413 0H1079ZM899 608L793 948Q783 982 767 1035T734 1144T707 1241Q697 1200 680 1140T646 1025T623 948L518 608H899Z" />
<glyph unicode="B" horiz-adv-x="1376" d="M184 1462H639Q931 1462 1081 1380T1231 1092Q1231 1009 1205 942T1128 832T1006 776V766Q1079 751 1138 715T1232 609T1268 424Q1268 291 1203 196T1018 51T731 0H184V1462ZM494 883H674Q809 883 861 925T913 1051Q913
1135 852 1171T657 1208H494V883ZM494 637V256H696Q836 256 891 310T946 455Q946 509 922 550T842 614T686 637H494Z" />
<glyph unicode="C" horiz-adv-x="1305" d="M805 1225Q716 1225 648 1191T533 1091T462 934T438 727Q438 572 476 463T596 296T805 238Q894 238 983 258T1178 315V55Q1081 15 987 -2T776 -20Q550 -20 405 73T189 335T119 729Q119 895 164 1033T296 1272T511 1428T805
1483Q914 1483 1023 1456T1233 1380L1133 1128Q1051 1167 968 1196T805 1225Z" />
<glyph unicode="D" horiz-adv-x="1516" d="M1397 745Q1397 498 1303 333T1029 84T598 0H184V1462H643Q873 1462 1042 1381T1304 1140T1397 745ZM1075 737Q1075 899 1028 1003T888 1158T659 1208H494V256H627Q854 256 964 377T1075 737Z" />
<glyph unicode="E" horiz-adv-x="1147" d="M1026 0H184V1462H1026V1208H494V887H989V633H494V256H1026V0Z" />
<glyph unicode="F" horiz-adv-x="1124" d="M489 0H184V1462H1022V1208H489V831H985V578H489V0Z" />
<glyph unicode="G" horiz-adv-x="1483" d="M739 821H1319V63Q1204 25 1080 3T799 -20Q581 -20 429 66T198 320T119 733Q119 963 207 1131T466 1391T883 1483Q999 1483 1112 1458T1317 1393L1214 1145Q1147 1179 1061 1202T881 1225Q746 1225 647 1163T493 990T438
727Q438 584 477 474T600 301T819 238Q885 238 930 244T1016 258V563H739V821Z" />
<glyph unicode="H" horiz-adv-x="1567" d="M1382 0H1073V631H494V0H184V1462H494V889H1073V1462H1382V0Z" />
<glyph unicode="I" horiz-adv-x="678" d="M184 0V1462H494V0H184Z" />
<glyph unicode="J" horiz-adv-x="678" d="M31 -430Q-29 -430 -74 -424T-152 -408V-150Q-120 -157 -84 -163T-6 -170Q48 -170 91 -150T159 -72T184 92V1462H494V94Q494 -94 436 -209T273 -377T31 -430Z" />
<glyph unicode="K" horiz-adv-x="1360" d="M1360 0H1008L625 616L494 522V0H184V1462H494V793Q525 836 555 879T616 965L1012 1462H1356L846 815L1360 0Z" />
<glyph unicode="L" horiz-adv-x="1157" d="M184 0V1462H494V256H1087V0H184Z" />
<glyph unicode="M" horiz-adv-x="1931" d="M803 0L451 1147H442Q444 1106 448 1024T457 848T461 680V0H184V1462H606L952 344H958L1325 1462H1747V0H1458V692Q1458 761 1460 851T1467 1022T1473 1145H1464L1087 0H803Z" />
<glyph unicode="N" horiz-adv-x="1665" d="M1481 0H1087L451 1106H442Q446 1037 449 967T455 828T461 688V0H184V1462H575L1210 367H1217Q1215 435 1212 502T1207 636T1202 770V1462H1481V0Z" />
<glyph unicode="O" horiz-adv-x="1630" d="M1511 733Q1511 564 1469 426T1342 187T1125 34T815 -20Q636 -20 505 33T289 187T161 426T119 735Q119 962 193 1130T423 1392T817 1485Q1055 1485 1208 1392T1436 1130T1511 733ZM444 733Q444 580 482 470T603 300T815
240Q947 240 1029 299T1148 469T1186 733Q1186 963 1100 1095T817 1227Q686 1227 604 1168T483 998T444 733Z" />
<glyph unicode="P" horiz-adv-x="1286" d="M651 1462Q934 1462 1064 1341T1194 1006Q1194 910 1165 823T1071 667T896 560T627 520H494V0H184V1462H651ZM635 1208H494V774H596Q683 774 747 797T846 869T881 995Q881 1103 821 1155T635 1208Z" />
<glyph unicode="Q" horiz-adv-x="1630" d="M1511 733Q1511 570 1473 435T1354 200T1151 45L1503 -348H1106L838 -20Q831 -20 826 -20T815 -20Q636 -20 505 33T289 187T161 426T119 735Q119 962 193 1130T423 1392T817 1485Q1055 1485 1208 1392T1436 1130T1511
733ZM444 733Q444 580 482 470T603 300T815 240Q947 240 1029 299T1148 469T1186 733Q1186 963 1100 1095T817 1227Q686 1227 604 1168T483 998T444 733Z" />
<glyph unicode="R" horiz-adv-x="1352" d="M610 1462Q809 1462 938 1414T1131 1269T1194 1024Q1194 924 1156 849T1056 722T922 637L1352 0H1008L659 561H494V0H184V1462H610ZM588 1208H494V813H594Q748 813 814 864T881 1016Q881 1120 810 1164T588 1208Z" />
<glyph unicode="S" horiz-adv-x="1128" d="M1047 406Q1047 276 984 180T801 32T508 -20Q432 -20 360 -10T221 19T94 68V356Q198 310 310 273T532 236Q608 236 654 256T722 311T743 391Q743 446 706 485T605 558T459 631Q408 655 348 689T234 774T146 895T111 1067Q111
1198 171 1291T342 1433T606 1483Q720 1483 823 1457T1040 1380L940 1139Q839 1180 759 1202T596 1225Q538 1225 497 1207T435 1155T414 1077Q414 1025 444 990T536 921T690 844Q802 791 881 734T1004 599T1047 406Z" />
<glyph unicode="T" horiz-adv-x="1186" d="M748 0H438V1204H41V1462H1145V1204H748V0Z" />
<glyph unicode="U" horiz-adv-x="1548" d="M1374 1462V516Q1374 365 1308 244T1107 51T768 -20Q478 -20 326 128T174 520V1462H483V567Q483 386 557 313T776 240Q878 240 941 275T1035 383T1065 569V1462H1374Z" />
<glyph unicode="V" horiz-adv-x="1331" d="M1331 1462L834 0H496L0 1462H313L588 592Q595 570 611 510T643 382T666 270Q672 314 687 381T718 508T741 592L1018 1462H1331Z" />
<glyph unicode="W" horiz-adv-x="1980" d="M1980 1462L1608 0H1255L1057 768Q1051 790 1041 835T1020 933T1001 1034T989 1110Q986 1082 978 1035T959 935T938 836T922 766L725 0H373L0 1462H305L492 664Q500 628 510 578T531 474T550 369T563 281Q568 319 576
369T593 472T613 570T631 643L844 1462H1137L1350 643Q1357 616 1366 571T1386 472T1404 369T1417 281Q1424 331 1436 402T1463 545T1489 664L1675 1462H1980Z" />
<glyph unicode="X" horiz-adv-x="1366" d="M1366 0H1012L672 553L332 0H0L485 754L31 1462H373L688 936L997 1462H1331L872 737L1366 0Z" />
<glyph unicode="Y" horiz-adv-x="1278" d="M639 860L944 1462H1278L793 569V0H485V559L0 1462H336L639 860Z" />
<glyph unicode="Z" horiz-adv-x="1186" d="M1137 0H49V201L750 1206H68V1462H1118V1262L418 256H1137V0Z" />
<glyph unicode="[" horiz-adv-x="678" d="M627 -324H143V1462H627V1251H403V-113H627V-324Z" />
<glyph unicode="\" horiz-adv-x="846" d="M289 1462L834 0H557L12 1462H289Z" />
<glyph unicode="]" horiz-adv-x="678" d="M51 -113H274V1251H51V1462H535V-324H51V-113Z" />
<glyph unicode="^" horiz-adv-x="1171" d="M47 520L485 1470H629L1124 520H885L563 1163L283 520H47Z" />
<glyph unicode="_" horiz-adv-x="842" d="M846 -324H-4V-184H846V-324Z" />
<glyph unicode="`" horiz-adv-x="741" d="M424 1569Q454 1523 496 1467T583 1359T659 1268V1241H457Q418 1268 366 1308T260 1393T158 1479T82 1548V1569H424Z" />
<glyph unicode="a" horiz-adv-x="1237" d="M618 1141Q843 1141 963 1043T1083 745V0H870L811 152H803Q755 92 705 54T590 -2T432 -20Q333 -20 255 18T131 134T86 334Q86 512 211 596T586 690L780 696V745Q780 833 734 874T606 915Q525 915 447 892T291 834L190
1040Q279 1087 389 1114T618 1141ZM780 518L662 514Q514 510 457 461T399 332Q399 262 440 233T547 203Q645 203 712 261T780 426V518Z" />
<glyph unicode="b" horiz-adv-x="1296" d="M465 1556V1194Q465 1131 462 1069T453 973H465Q509 1042 585 1090T782 1139Q970 1139 1087 992T1204 561Q1204 370 1150 241T999 46T774 -20Q651 -20 580 24T465 123H444L393 0H160V1556H465ZM684 895Q604 895 557 862T489
763T465 596V563Q465 400 513 314T688 227Q782 227 837 314T893 565Q893 729 837 812T684 895Z" />
<glyph unicode="c" horiz-adv-x="1053" d="M614 -20Q448 -20 331 40T153 228T92 553Q92 758 161 887T354 1078T641 1139Q757 1139 841 1117T989 1063L899 827Q827 856 765 874T641 893Q561 893 508 856T429 743T403 555Q403 444 431 371T512 263T641 227Q736 227
810 252T954 324V63Q884 19 808 0T614 -20Z" />
<glyph unicode="d" horiz-adv-x="1296" d="M514 -20Q327 -20 210 126T92 557Q92 844 211 991T522 1139Q602 1139 663 1117T768 1058T844 975H854Q848 1007 840 1069T831 1198V1556H1137V0H903L844 145H831Q802 99 759 62T655 2T514 -20ZM621 223Q746 223 797 297T852
522V555Q852 718 802 804T616 891Q515 891 458 804T401 553Q401 389 458 306T621 223Z" />
<glyph unicode="e" horiz-adv-x="1210" d="M621 1139Q776 1139 888 1080T1061 907T1122 631V483H401Q406 354 478 281T680 207Q787 207 876 229T1059 295V59Q976 18 886 -1T666 -20Q498 -20 369 42T166 231T92 551Q92 747 158 877T344 1073T621 1139ZM623 922Q534
922 476 865T408 686H836Q835 754 812 807T742 891T623 922Z" />
<glyph unicode="f" horiz-adv-x="793" d="M778 889H514V0H209V889H41V1036L209 1118V1200Q209 1343 257 1422T394 1534T604 1567Q693 1567 766 1553T885 1520L807 1296Q772 1307 731 1316T637 1325Q573 1325 544 1287T514 1188V1118H778V889Z" />
<glyph unicode="g" horiz-adv-x="1157" d="M487 -492Q253 -492 130 -411T6 -182Q6 -81 69 -13T254 84Q207 104 172 149T137 246Q137 310 174 352T281 436Q193 474 142 558T90 756Q90 878 143 963T299 1094T549 1139Q580 1139 621 1135T696 1126T743 1118H1133V963L958
918Q982 881 994 839T1006 750Q1006 570 881 470T532 369Q479 372 432 377Q409 359 397 339T385 297Q385 275 403 261T459 239T553 231H743Q927 231 1023 152T1120 -80Q1120 -276 957 -384T487 -492ZM500 -293Q609 -293 687 -273T808 -215T850 -125Q850 -83 826
-59T752 -24T625 -14H467Q411 -14 367 -32T296 -82T270 -158Q270 -221 330 -257T500 -293ZM549 555Q635 555 675 608T715 752Q715 853 674 903T549 954Q465 954 423 904T381 752Q381 661 422 608T549 555Z" />
<glyph unicode="h" horiz-adv-x="1346" d="M465 1556V1239Q465 1156 460 1081T451 975H467Q503 1033 552 1069T662 1122T791 1139Q912 1139 1002 1097T1142 964T1192 729V0H887V653Q887 773 843 834T707 895Q615 895 562 853T487 728T465 526V0H160V1556H465Z" />
<glyph unicode="i" horiz-adv-x="625" d="M465 1118V0H160V1118H465ZM313 1556Q381 1556 430 1525T479 1407Q479 1322 430 1290T313 1257Q244 1257 196 1289T147 1407Q147 1493 195 1524T313 1556Z" />
<glyph unicode="j" horiz-adv-x="625" d="M70 -492Q18 -492 -38 -485T-131 -467V-227Q-94 -237 -62 -241T12 -246Q74 -246 117 -212T160 -76V1118H465V-121Q465 -223 426 -307T300 -442T70 -492ZM147 1407Q147 1493 195 1524T313 1556Q381 1556 430 1525T479 1407Q479
1322 430 1290T313 1257Q244 1257 196 1289T147 1407Z" />
<glyph unicode="k" horiz-adv-x="1270" d="M465 1556V860Q465 797 460 734T449 608H453Q484 652 516 695T586 778L899 1118H1243L799 633L1270 0H918L596 453L465 348V0H160V1556H465Z" />
<glyph unicode="l" horiz-adv-x="625" d="M465 0H160V1556H465V0Z" />
<glyph unicode="m" horiz-adv-x="2011" d="M1473 1139Q1663 1139 1760 1042T1858 729V0H1552V653Q1552 773 1511 834T1384 895Q1263 895 1212 809T1161 561V0H856V653Q856 733 838 787T783 868T688 895Q603 895 555 853T486 728T465 526V0H160V1118H393L434 975H451Q485
1033 536 1069T650 1122T776 1139Q899 1139 984 1099T1116 975H1143Q1193 1061 1284 1100T1473 1139Z" />
<glyph unicode="n" horiz-adv-x="1346" d="M795 1139Q974 1139 1083 1042T1192 729V0H887V653Q887 773 844 834T707 895Q567 895 516 800T465 526V0H160V1118H393L434 975H451Q487 1033 540 1069T659 1122T795 1139Z" />
<glyph unicode="o" horiz-adv-x="1268" d="M1176 561Q1176 421 1139 313T1030 131T858 18T631 -20Q513 -20 415 18T244 130T132 313T92 561Q92 747 158 876T346 1072T637 1139Q794 1139 915 1072T1106 876T1176 561ZM403 561Q403 451 427 376T502 263T635 225Q716
225 766 263T840 376T864 561Q864 672 841 745T766 856T633 893Q512 893 458 810T403 561Z" />
<glyph unicode="p" horiz-adv-x="1296" d="M782 1139Q971 1139 1087 992T1204 561Q1204 371 1149 242T997 46T774 -20Q693 -20 635 0T536 53T465 123H449Q457 83 461 41T465 -41V-492H160V1118H408L451 973H465Q495 1018 538 1056T641 1116T782 1139ZM684 895Q604
895 557 862T489 763T465 596V563Q465 455 485 380T554 266T688 227Q758 227 803 266T870 380T893 565Q893 729 842 812T684 895Z" />
<glyph unicode="q" horiz-adv-x="1296" d="M831 -492V-23Q831 19 834 61T844 145H831Q788 76 713 28T514 -20Q325 -20 209 126T92 557Q92 748 146 877T296 1073T520 1139Q643 1139 719 1092T844 975H852L879 1118H1137V-492H831ZM623 219Q707 219 756 252T828
351T852 518V555Q852 718 802 804T618 891Q509 891 456 804T403 553Q403 386 457 303T623 219Z" />
<glyph unicode="r" horiz-adv-x="930" d="M784 1139Q807 1139 837 1137T887 1130L864 844Q849 849 822 851T774 854Q715 854 660 839T560 791T491 703T465 569V0H160V1118H391L436 930H451Q484 987 533 1034T646 1110T784 1139Z" />
<glyph unicode="s" horiz-adv-x="1018" d="M940 332Q940 218 887 140T727 21T463 -20Q346 -20 263 -5T94 45V297Q185 256 289 230T473 203Q562 203 600 229T639 299Q639 327 624 349T557 400T397 475Q292 519 225 564T125 670T92 827Q92 982 212 1060T535 1139Q639
1139 733 1118T928 1051L836 831Q753 867 680 890T530 913Q463 913 429 895T395 840Q395 813 412 792T480 746T629 680Q724 641 794 599T902 494T940 332Z" />
<glyph unicode="t" horiz-adv-x="889" d="M631 223Q681 223 728 233T823 258V31Q774 9 702 -5T543 -20Q443 -20 364 12T239 125T193 350V889H47V1018L215 1120L303 1356H498V1118H811V889H498V350Q498 286 534 255T631 223Z" />
<glyph unicode="u" horiz-adv-x="1346" d="M1186 1118V0H952L911 143H895Q859 86 805 50T686 -3T551 -20Q431 -20 342 22T204 155T154 389V1118H459V465Q459 345 502 284T639 223Q732 223 785 265T859 390T881 592V1118H1186Z" />
<glyph unicode="v" horiz-adv-x="1165" d="M426 0L0 1118H319L535 481Q553 425 563 363T578 252H586Q589 305 600 365T631 481L846 1118H1165L739 0H426Z" />
<glyph unicode="w" horiz-adv-x="1753" d="M1079 0L993 391Q986 426 970 494T936 641T902 787T879 885H870Q863 854 848 787T815 641T780 493T756 387L666 0H338L20 1118H324L453 623Q466 571 478 500T499 362T514 256H522Q524 285 530 333T545 432T561 525T573
582L711 1118H1047L1178 582Q1185 553 1196 490T1217 361T1227 256H1235Q1239 290 1249 357T1272 497T1300 623L1434 1118H1733L1411 0H1079Z" />
<glyph unicode="x" horiz-adv-x="1184" d="M389 571L29 1118H375L592 762L811 1118H1157L793 571L1174 0H827L592 383L356 0H10L389 571Z" />
<glyph unicode="y" horiz-adv-x="1165" d="M0 1118H334L545 489Q555 459 562 428T574 364T582 295H588Q594 349 604 396T631 489L838 1118H1165L692 -143Q649 -259 580 -336T422 -453T225 -492Q173 -492 135 -487T70 -475V-233Q91 -238 123 -242T190 -246Q254
-246 300 -219T377 -147T426 -47L444 8L0 1118Z" />
<glyph unicode="z" horiz-adv-x="999" d="M938 0H55V180L573 885H86V1118H920V920L416 233H938V0Z" />
<glyph unicode="{" horiz-adv-x="807" d="M725 -324Q550 -324 455 -296T324 -205T287 -45V270Q287 335 258 374T171 431T31 449V688Q114 688 171 705T257 762T287 866V1184Q287 1282 323 1343T455 1433T725 1462V1237Q672 1236 633 1225T572 1183T551 1096V797Q551
703 491 648T317 575V563Q431 547 491 492T551 342V43Q551 -14 572 -44T632 -86T725 -98V-324Z" />
<glyph unicode="|" horiz-adv-x="1128" d="M455 1550H674V-465H455V1550Z" />
<glyph unicode="}" horiz-adv-x="807" d="M82 -324V-98Q135 -97 174 -86T234 -45T256 43V342Q256 436 316 491T489 563V575Q376 592 316 647T256 797V1096Q256 1153 235 1183T174 1224T82 1237V1462Q257 1462 352 1434T483 1344T520 1184V866Q520 802 549 763T636
706T776 688V449Q693 449 636 431T550 374T520 270V-45Q520 -143 484 -205T352 -295T82 -324Z" />
<glyph unicode="~" horiz-adv-x="1171" d="M549 616Q474 648 421 660T322 672Q264 672 202 637T88 551V782Q139 836 202 863T344 891Q404 891 464 880T621 827Q696 795 749 784T848 772Q907 772 969 807T1081 893V662Q1031 608 968 581T825 553Q765 553 706 564T549 616Z" />
<glyph unicode="&#xa0;" horiz-adv-x="532" />
<glyph unicode="&#xa1;" horiz-adv-x="586" d="M168 606H412L463 -369H117L168 606ZM467 948Q467 854 416 816T291 778Q221 778 169 816T117 948Q117 1039 169 1078T291 1118Q365 1118 416 1079T467 948Z" />
<glyph unicode="&#xa2;" horiz-adv-x="1171" d="M741 1483V1325Q838 1321 911 1300T1040 1251L950 1016Q878 1045 816 1063T692 1081Q612 1081 560 1044T481 931T455 743Q455 632 483 560T564 452T692 416Q787 416 856 436T1006 492V238Q942 207 878 190T741 168V-20H563V176Q431
195 337 260T193 445T143 741Q143 933 195 1053T342 1236T563 1317V1483H741Z" />
<glyph unicode="&#xa3;" horiz-adv-x="1171" d="M700 1483Q811 1483 910 1459T1090 1401L997 1171Q927 1200 858 1217T725 1235Q659 1235 611 1197T563 1063V870H938V651H563V508Q563 435 540 387T483 309T412 260H1130V0H82V248Q139 273 179 302T240 380T262
506V651H84V870H262V1065Q262 1216 321 1307T480 1441T700 1483Z" />
<glyph unicode="&#xa4;" horiz-adv-x="1171" d="M188 723Q188 777 202 827T242 920L113 1047L260 1194L387 1067Q430 1092 481 1106T584 1120Q637 1120 685 1107T780 1065L907 1194L1057 1051L928 922Q953 880 967 829T981 723Q981 668 968 619T928 524L1053 399L907
254L780 379Q737 356 687 342T584 328Q529 328 479 340T385 379L260 256L115 401L242 526Q216 571 202 620T188 723ZM395 723Q395 671 420 628T489 560T584 535Q637 535 680 560T750 628T776 723Q776 776 750 819T681 887T584 913Q532 913 489 888T421 819T395
723Z" />
<glyph unicode="&#xa5;" horiz-adv-x="1171" d="M584 860L848 1462H1161L778 715H973V537H727V399H973V221H727V0H440V221H193V399H440V537H193V715H383L6 1462H322L584 860Z" />
<glyph unicode="&#xa6;" horiz-adv-x="1128" d="M455 1550H674V735H455V1550ZM455 350H674V-465H455V350Z" />
<glyph unicode="&#xa7;" horiz-adv-x="995" d="M121 801Q121 889 160 950T254 1049Q191 1089 156 1147T121 1280Q121 1409 232 1488T526 1567Q628 1567 716 1544T889 1483L807 1292Q740 1324 669 1350T520 1376Q439 1376 402 1354T365 1284Q365 1251 387 1225T456
1173T578 1118Q673 1080 744 1033T855 923T895 780Q895 680 861 620T770 522Q832 482 863 430T895 303Q895 155 777 68T455 -20Q346 -20 261 0T106 59V266Q159 240 220 218T342 182T455 168Q567 168 608 202T649 285Q649 319 634 343T575 394T442 457Q340 499 269
543T159 649T121 801ZM344 823Q344 782 369 748T445 681T575 616L590 610Q619 632 643 667T668 754Q668 795 649 829T579 896T434 961Q399 947 372 911T344 823Z" />
<glyph unicode="&#xa8;" horiz-adv-x="1243" d="M279 1405Q279 1476 319 1508T418 1540Q475 1540 517 1508T559 1405Q559 1338 517 1305T418 1272Q360 1272 320 1305T279 1405ZM682 1405Q682 1476 722 1508T823 1540Q880 1540 922 1508T965 1405Q965 1338 923
1305T823 1272Q763 1272 723 1305T682 1405Z" />
<glyph unicode="&#xa9;" horiz-adv-x="1704" d="M852 -20Q689 -20 552 35T313 192T156 430T100 731Q100 887 156 1023T315 1263T555 1424T852 1483Q1008 1483 1144 1428T1384 1271T1545 1032T1604 731Q1604 568 1549 431T1392 192T1153 36T852 -20ZM883 262Q674
262 571 391T467 731Q467 868 515 973T659 1139T891 1200Q954 1200 1020 1184T1143 1139L1083 1001Q1033 1027 985 1041T893 1055Q772 1055 706 969T639 731Q639 574 697 490T891 406Q938 406 996 419T1106 453V311Q1057 290 1006 276T883 262ZM852 111Q978 111
1088 156T1282 285T1413 481T1460 731Q1460 859 1414 972T1286 1171T1093 1305T852 1354Q721 1354 610 1308T415 1179T286 981T240 731Q240 595 285 482T412 285T606 157T852 111Z" />
<glyph unicode="&#xaa;" horiz-adv-x="784" d="M410 1479Q556 1479 626 1405T696 1206V764H561L530 874Q487 816 425 784T289 752Q216 752 162 776T77 849T47 975Q47 1055 88 1103T208 1174T397 1202L496 1206V1223Q496 1270 464 1296T369 1323Q323 1323 267 1306T152
1262L86 1397Q152 1429 232 1454T410 1479ZM496 1087L397 1081Q306 1075 279 1044T252 977Q252 939 275 921T330 903Q407 903 451 945T496 1051V1087Z" />
<glyph unicode="&#xab;" horiz-adv-x="1260" d="M82 573L453 1028L672 909L393 561L672 213L453 94L82 547V573ZM588 573L958 1028L1178 909L899 561L1178 213L958 94L588 547V573Z" />
<glyph unicode="&#xac;" horiz-adv-x="1171" d="M1081 831V248H862V612H88V831H1081Z" />
<glyph unicode="&#xad;" horiz-adv-x="659" d="M61 424V674H598V424H61Z" />
<glyph unicode="&#xae;" horiz-adv-x="1704" d="M561 283V1188H834Q1001 1188 1079 1117T1157 913Q1157 816 1108 761T997 680L1235 283H1049L854 627H727V283H561ZM727 764H829Q909 764 949 804T989 909Q989 982 953 1014T827 1047H727V764ZM852 -20Q689 -20
552 35T313 192T156 430T100 731Q100 887 156 1023T315 1263T555 1424T852 1483Q1008 1483 1144 1428T1384 1271T1545 1032T1604 731Q1604 568 1549 431T1392 192T1153 36T852 -20ZM852 111Q978 111 1088 156T1282 285T1413 481T1460 731Q1460 859 1414 972T1286
1171T1093 1305T852 1354Q721 1354 610 1308T415 1179T286 981T240 731Q240 595 285 482T412 285T606 157T852 111Z" />
<glyph unicode="&#xaf;" horiz-adv-x="1024" d="M1030 1556H-6V1757H1030V1556Z" />
<glyph unicode="&#xb0;" horiz-adv-x="877" d="M438 793Q333 793 252 836T126 958T80 1137Q80 1237 125 1315T252 1438T438 1483Q544 1483 624 1439T749 1316T795 1137Q795 1036 750 958T624 837T438 793ZM438 983Q503 983 548 1024T594 1137Q594 1211 549 1252T438
1294Q374 1294 329 1253T283 1137Q283 1066 328 1025T438 983Z" />
<glyph unicode="&#xb1;" horiz-adv-x="1171" d="M88 0V219H1081V0H88ZM694 892H1081V673H694V288H475V673H88V892H475V1282H694V892Z" />
<glyph unicode="&#xb2;" horiz-adv-x="776" d="M702 852H55V1020L279 1239Q340 1299 374 1339T423 1411T438 1479Q438 1516 414 1536T350 1556Q310 1556 267 1536T170 1468L47 1620Q112 1677 193 1713T383 1749Q515 1749 596 1685T678 1499Q678 1438 656 1385T584
1276T455 1147L350 1053H702V852Z" />
<glyph unicode="&#xb3;" horiz-adv-x="776" d="M377 1747Q502 1747 584 1685T666 1516Q666 1446 626 1396T496 1317V1305Q597 1283 645 1225T694 1096Q694 975 606 906T332 836Q256 836 190 853T59 905V1096Q125 1056 191 1031T330 1006Q404 1006 438 1033T473
1112Q473 1153 439 1186T307 1219H195V1378H287Q391 1378 421 1412T451 1487Q451 1525 426 1550T350 1575Q303 1575 261 1556T162 1497L61 1638Q123 1685 198 1716T377 1747Z" />
<glyph unicode="&#xb4;" horiz-adv-x="741" d="M659 1569V1548Q630 1520 583 1479T482 1394T376 1309T285 1241H82V1268Q115 1306 158 1358T245 1467T317 1569H659Z" />
<glyph unicode="&#xb5;" horiz-adv-x="1352" d="M1192 1118V0H961L918 150H903Q876 94 840 56T758 -1T653 -20Q592 -20 543 3T461 70H455Q458 49 460 6T463 -86T465 -172V-492H160V1118H465V465Q465 345 509 284T647 223Q738 223 790 265T865 390T887 592V1118H1192Z" />
<glyph unicode="&#xb6;" horiz-adv-x="1341" d="M1167 -260H1006V1356H840V-260H678V559Q647 550 612 546T532 541Q406 541 312 588T165 745T113 1042Q113 1238 169 1350T327 1509T563 1556H1167V-260Z" />
<glyph unicode="&#xb7;" horiz-adv-x="584" d="M117 721Q117 815 168 853T293 891Q364 891 415 853T467 721Q467 631 416 591T293 551Q220 551 169 591T117 721Z" />
<glyph unicode="&#xb8;" horiz-adv-x="420" d="M418 -250Q418 -365 351 -428T109 -492Q64 -492 28 -486T-37 -471V-303Q-8 -310 34 -317T106 -324Q135 -324 156 -311T178 -262Q178 -225 141 -196T12 -154L90 0H283L256 -61Q297 -74 334 -99T394 -162T418 -250Z" />
<glyph unicode="&#xb9;" horiz-adv-x="776" d="M584 1729V852H346V1298Q346 1325 347 1368T350 1451T354 1505Q342 1489 319 1465T279 1427L201 1366L92 1493L393 1729H584Z" />
<glyph unicode="&#xba;" horiz-adv-x="795" d="M737 1116Q737 943 645 848T395 752Q248 752 153 847T57 1116Q57 1290 149 1384T399 1479Q496 1479 572 1437T692 1313T737 1116ZM260 1116Q260 1016 292 966T397 915Q468 915 500 965T532 1116Q532 1216 500 1265T397
1315Q325 1315 293 1266T260 1116Z" />
<glyph unicode="&#xbb;" horiz-adv-x="1260" d="M1178 547L807 94L588 213L866 561L588 909L807 1028L1178 573V547ZM672 547L301 94L82 213L360 561L82 909L301 1028L672 573V547Z" />
<glyph unicode="&#xbc;" horiz-adv-x="1700" d="M319 0L1130 1462H1370L559 0H319ZM299 586V1032Q299 1059 300 1102T303 1184T307 1239Q295 1223 272 1199T231 1161L154 1100L45 1227L346 1462H537V586H299ZM1319 0V152H936V305L1321 883H1556V319H1681V152H1556V0H1319ZM1120
319H1319V483Q1319 525 1320 572T1325 668Q1315 640 1291 589T1247 510L1120 319Z" />
<glyph unicode="&#xbd;" horiz-adv-x="1790" d="M319 0L1130 1462H1370L559 0H319ZM299 586V1032Q299 1052 299 1082T301 1144T304 1201T307 1239Q295 1223 272 1199T231 1161L154 1100L45 1227L346 1462H537V586H299ZM1069 0V168L1292 387Q1354 447 1388 487T1437
559T1452 627Q1452 664 1428 684T1364 705Q1324 705 1280 684T1184 616L1061 768Q1126 825 1207 861T1397 897Q1529 897 1610 833T1692 647Q1692 586 1670 533T1598 424T1468 295L1364 201H1716V0H1069Z" />
<glyph unicode="&#xbe;" horiz-adv-x="1731" d="M391 0L1202 1462H1442L631 0H391ZM362 569Q287 569 221 586T90 639V829Q156 789 222 764T360 739Q434 739 469 766T504 846Q504 887 470 919T338 952H225V1112H317Q422 1112 451 1145T481 1221Q481 1259 457 1284T381
1309Q333 1309 291 1290T193 1231L92 1372Q154 1419 229 1450T408 1481Q532 1481 614 1419T696 1249Q696 1180 656 1130T526 1051V1038Q628 1017 676 959T725 829Q725 708 637 639T362 569ZM1350 0V152H967V305L1352 883H1587V319H1712V152H1587V0H1350ZM1151 319H1350V483Q1350
525 1351 572T1356 668Q1345 640 1321 589T1278 510L1151 319Z" />
<glyph unicode="&#xbf;" horiz-adv-x="977" d="M707 605V531Q707 464 688 411T628 311T516 213Q455 169 417 135T362 65T344 -14Q344 -78 392 -112T526 -147Q612 -147 696 -120T868 -49L977 -268Q877 -323 761 -358T504 -393Q290 -393 173 -291T55 -30Q55 54 81
115T161 229T295 340Q356 384 387 414T430 473T442 545V605H707ZM739 947Q739 853 688 815T563 777Q493 777 441 815T389 947Q389 1037 441 1077T563 1117Q637 1117 688 1077T739 947Z" />
<glyph unicode="&#xc0;" horiz-adv-x="1413" d="M1079 0L973 348H440L334 0H0L516 1468H895L1413 0H1079ZM899 608L793 948Q783 982 767 1035T734 1144T707 1241Q697 1200 680 1140T646 1025T623 948L518 608H899ZM657 1913Q687 1867 729 1811T816 1703T892 1612V1585H690Q651
1612 599 1652T493 1737T391 1823T315 1892V1913H657Z" />
<glyph unicode="&#xc1;" horiz-adv-x="1413" d="M1079 0L973 348H440L334 0H0L516 1468H895L1413 0H1079ZM899 608L793 948Q783 982 767 1035T734 1144T707 1241Q697 1200 680 1140T646 1025T623 948L518 608H899ZM1099 1913V1892Q1070 1864 1023 1823T922 1738T816
1653T725 1585H522V1612Q555 1650 598 1702T685 1811T757 1913H1099Z" />
<glyph unicode="&#xc2;" horiz-adv-x="1413" d="M1079 0L973 348H440L334 0H0L516 1468H895L1413 0H1079ZM899 608L793 948Q783 982 767 1035T734 1144T707 1241Q697 1200 680 1140T646 1025T623 948L518 608H899ZM887 1913Q916 1867 962 1811T1058 1702T1143
1612V1585H941Q887 1617 824 1661T707 1761Q653 1706 592 1663T478 1585H275V1612Q313 1650 362 1702T457 1811T531 1913H887Z" />
<glyph unicode="&#xc3;" horiz-adv-x="1413" d="M1079 0L973 348H440L334 0H0L516 1468H895L1413 0H1079ZM899 608L793 948Q783 982 767 1035T734 1144T707 1241Q697 1200 680 1140T646 1025T623 948L518 608H899ZM291 1583Q297 1663 320 1721T380 1817T463 1873T563
1892Q604 1892 643 1877T721 1840T797 1804T871 1788Q901 1788 929 1814T971 1894H1120Q1108 1736 1030 1661T848 1585Q807 1585 768 1601T690 1637T614 1674T541 1690Q510 1690 482 1664T440 1583H291Z" />
<glyph unicode="&#xc4;" horiz-adv-x="1413" d="M1079 0L973 348H440L334 0H0L516 1468H895L1413 0H1079ZM899 608L793 948Q783 982 767 1035T734 1144T707 1241Q697 1200 680 1140T646 1025T623 948L518 608H899ZM363 1749Q363 1820 403 1852T502 1884Q559 1884
601 1852T643 1749Q643 1682 601 1649T502 1616Q444 1616 404 1649T363 1749ZM766 1749Q766 1820 806 1852T907 1884Q964 1884 1006 1852T1049 1749Q1049 1682 1007 1649T907 1616Q847 1616 807 1649T766 1749Z" />
<glyph unicode="&#xc5;" horiz-adv-x="1413" d="M1079 0L973 348H440L334 0H0L516 1468H895L1413 0H1079ZM899 608L793 948Q783 982 767 1035T734 1144T707 1241Q697 1200 680 1140T646 1025T623 948L518 608H899ZM705 1327Q594 1327 526 1390T457 1565Q457 1675
525 1738T705 1802Q811 1802 885 1739T959 1567Q959 1455 886 1391T705 1327ZM705 1468Q746 1468 773 1494T801 1565Q801 1609 774 1635T705 1661Q663 1661 636 1635T608 1565Q608 1520 632 1494T705 1468Z" />
<glyph unicode="&#xc6;" horiz-adv-x="1950" d="M1829 0H956V348H465L315 0H0L655 1462H1829V1208H1266V887H1792V633H1266V256H1829V0ZM578 608H956V1198H829L578 608Z" />
<glyph unicode="&#xc7;" horiz-adv-x="1305" d="M805 1225Q716 1225 648 1191T533 1091T462 934T438 727Q438 572 476 463T596 296T805 238Q894 238 983 258T1178 315V55Q1081 15 987 -2T776 -20Q550 -20 405 73T189 335T119 729Q119 895 164 1033T296 1272T511
1428T805 1483Q914 1483 1023 1456T1233 1380L1133 1128Q1051 1167 968 1196T805 1225ZM996 -250Q996 -365 929 -428T687 -492Q642 -492 606 -486T541 -471V-303Q570 -310 612 -317T684 -324Q713 -324 734 -311T756 -262Q756 -225 719 -196T590 -154L668 0H861L834
-61Q875 -74 912 -99T972 -162T996 -250Z" />
<glyph unicode="&#xc8;" horiz-adv-x="1147" d="M1026 0H184V1462H1026V1208H494V887H989V633H494V256H1026V0ZM567 1913Q597 1867 639 1811T726 1703T802 1612V1585H600Q561 1612 509 1652T403 1737T301 1823T225 1892V1913H567Z" />
<glyph unicode="&#xc9;" horiz-adv-x="1147" d="M1026 0H184V1462H1026V1208H494V887H989V633H494V256H1026V0ZM1009 1913V1892Q980 1864 933 1823T832 1738T726 1653T635 1585H432V1612Q465 1650 508 1702T595 1811T667 1913H1009Z" />
<glyph unicode="&#xca;" horiz-adv-x="1147" d="M1026 0H184V1462H1026V1208H494V887H989V633H494V256H1026V0ZM796 1913Q825 1867 871 1811T967 1702T1052 1612V1585H850Q796 1617 733 1661T616 1761Q562 1706 501 1663T387 1585H184V1612Q222 1650 271 1702T366
1811T440 1913H796Z" />
<glyph unicode="&#xcb;" horiz-adv-x="1147" d="M1026 0H184V1462H1026V1208H494V887H989V633H494V256H1026V0ZM273 1749Q273 1820 313 1852T412 1884Q469 1884 511 1852T553 1749Q553 1682 511 1649T412 1616Q354 1616 314 1649T273 1749ZM676 1749Q676 1820
716 1852T817 1884Q874 1884 916 1852T959 1749Q959 1682 917 1649T817 1616Q757 1616 717 1649T676 1749Z" />
<glyph unicode="&#xcc;" horiz-adv-x="678" d="M184 0V1462H494V0H184ZM250 1913Q280 1867 322 1811T409 1703T485 1612V1585H283Q244 1612 192 1652T86 1737T-16 1823T-92 1892V1913H250Z" />
<glyph unicode="&#xcd;" horiz-adv-x="678" d="M184 0V1462H494V0H184ZM771 1913V1892Q742 1864 695 1823T594 1738T488 1653T397 1585H194V1612Q227 1650 270 1702T357 1811T429 1913H771Z" />
<glyph unicode="&#xce;" horiz-adv-x="678" d="M184 0V1462H494V0H184ZM518 1913Q547 1867 593 1811T689 1702T774 1612V1585H572Q518 1617 455 1661T338 1761Q284 1706 223 1663T109 1585H-94V1612Q-56 1650 -7 1702T88 1811T162 1913H518Z" />
<glyph unicode="&#xcf;" horiz-adv-x="678" d="M184 0V1462H494V0H184ZM-4 1749Q-4 1820 36 1852T135 1884Q192 1884 234 1852T276 1749Q276 1682 234 1649T135 1616Q77 1616 37 1649T-4 1749ZM399 1749Q399 1820 439 1852T540 1884Q597 1884 639 1852T682 1749Q682
1682 640 1649T540 1616Q480 1616 440 1649T399 1749Z" />
<glyph unicode="&#xd0;" horiz-adv-x="1516" d="M643 1462Q873 1462 1042 1381T1304 1140T1397 745Q1397 498 1303 333T1029 84T598 0H184V596H47V850H184V1462H643ZM657 1208H494V850H731V596H494V256H625Q849 256 962 377T1075 737Q1075 899 1026 1003T884 1158T657
1208Z" />
<glyph unicode="&#xd1;" horiz-adv-x="1665" d="M1481 0H1087L451 1106H442Q446 1037 449 967T455 828T461 688V0H184V1462H575L1210 367H1217Q1215 435 1212 502T1207 636T1202 770V1462H1481V0ZM418 1583Q424 1663 447 1721T507 1817T590 1873T690 1892Q731
1892 770 1877T848 1840T924 1804T998 1788Q1028 1788 1056 1814T1098 1894H1247Q1235 1736 1157 1661T975 1585Q934 1585 895 1601T817 1637T741 1674T668 1690Q637 1690 609 1664T567 1583H418Z" />
<glyph unicode="&#xd2;" horiz-adv-x="1630" d="M1511 733Q1511 564 1469 426T1342 187T1125 34T815 -20Q636 -20 505 33T289 187T161 426T119 735Q119 962 193 1130T423 1392T817 1485Q1055 1485 1208 1392T1436 1130T1511 733ZM444 733Q444 580 482 470T603
300T815 240Q947 240 1029 299T1148 469T1186 733Q1186 963 1100 1095T817 1227Q686 1227 604 1168T483 998T444 733ZM766 1913Q796 1867 838 1811T925 1703T1001 1612V1585H799Q760 1612 708 1652T602 1737T500 1823T424 1892V1913H766Z" />
<glyph unicode="&#xd3;" horiz-adv-x="1630" d="M1511 733Q1511 564 1469 426T1342 187T1125 34T815 -20Q636 -20 505 33T289 187T161 426T119 735Q119 962 193 1130T423 1392T817 1485Q1055 1485 1208 1392T1436 1130T1511 733ZM444 733Q444 580 482 470T603
300T815 240Q947 240 1029 299T1148 469T1186 733Q1186 963 1100 1095T817 1227Q686 1227 604 1168T483 998T444 733ZM1208 1913V1892Q1179 1864 1132 1823T1031 1738T925 1653T834 1585H631V1612Q664 1650 707 1702T794 1811T866 1913H1208Z" />
<glyph unicode="&#xd4;" horiz-adv-x="1630" d="M1511 733Q1511 564 1469 426T1342 187T1125 34T815 -20Q636 -20 505 33T289 187T161 426T119 735Q119 962 193 1130T423 1392T817 1485Q1055 1485 1208 1392T1436 1130T1511 733ZM444 733Q444 580 482 470T603
300T815 240Q947 240 1029 299T1148 469T1186 733Q1186 963 1100 1095T817 1227Q686 1227 604 1168T483 998T444 733ZM995 1913Q1024 1867 1070 1811T1166 1702T1251 1612V1585H1049Q995 1617 932 1661T815 1761Q761 1706 700 1663T586 1585H383V1612Q421 1650
470 1702T565 1811T639 1913H995Z" />
<glyph unicode="&#xd5;" horiz-adv-x="1630" d="M1511 733Q1511 564 1469 426T1342 187T1125 34T815 -20Q636 -20 505 33T289 187T161 426T119 735Q119 962 193 1130T423 1392T817 1485Q1055 1485 1208 1392T1436 1130T1511 733ZM444 733Q444 580 482 470T603
300T815 240Q947 240 1029 299T1148 469T1186 733Q1186 963 1100 1095T817 1227Q686 1227 604 1168T483 998T444 733ZM399 1583Q405 1663 428 1721T488 1817T571 1873T671 1892Q712 1892 751 1877T829 1840T905 1804T979 1788Q1009 1788 1037 1814T1079 1894H1228Q1216
1736 1138 1661T956 1585Q915 1585 876 1601T798 1637T722 1674T649 1690Q618 1690 590 1664T548 1583H399Z" />
<glyph unicode="&#xd6;" horiz-adv-x="1630" d="M1511 733Q1511 564 1469 426T1342 187T1125 34T815 -20Q636 -20 505 33T289 187T161 426T119 735Q119 962 193 1130T423 1392T817 1485Q1055 1485 1208 1392T1436 1130T1511 733ZM444 733Q444 580 482 470T603
300T815 240Q947 240 1029 299T1148 469T1186 733Q1186 963 1100 1095T817 1227Q686 1227 604 1168T483 998T444 733ZM472 1749Q472 1820 512 1852T611 1884Q668 1884 710 1852T752 1749Q752 1682 710 1649T611 1616Q553 1616 513 1649T472 1749ZM875 1749Q875
1820 915 1852T1016 1884Q1073 1884 1115 1852T1158 1749Q1158 1682 1116 1649T1016 1616Q956 1616 916 1649T875 1749Z" />
<glyph unicode="&#xd7;" horiz-adv-x="1171" d="M887 1178L1040 1028L735 723L1036 420L887 268L582 569L281 270L131 422L428 723L129 1024L281 1178L582 879L887 1178Z" />
<glyph unicode="&#xd8;" horiz-adv-x="1630" d="M1511 733Q1511 564 1469 426T1342 187T1125 34T815 -20Q717 -20 633 -4T479 45L389 -90L227 18L317 154Q216 254 168 401T119 735Q119 962 193 1130T423 1392T817 1485Q918 1485 1004 1467T1161 1415L1245 1540L1405
1436L1317 1305Q1415 1207 1463 1061T1511 733ZM1186 733Q1186 822 1174 897T1135 1030L635 279Q672 260 716 250T815 240Q947 240 1029 299T1148 469T1186 733ZM444 733Q444 641 457 564T500 426L1006 1182Q967 1203 920 1215T817 1227Q686 1227 604 1168T483
998T444 733Z" />
<glyph unicode="&#xd9;" horiz-adv-x="1548" d="M1374 1462V516Q1374 365 1308 244T1107 51T768 -20Q478 -20 326 128T174 520V1462H483V567Q483 386 557 313T776 240Q878 240 941 275T1035 383T1065 569V1462H1374ZM725 1913Q755 1867 797 1811T884 1703T960
1612V1585H758Q719 1612 667 1652T561 1737T459 1823T383 1892V1913H725Z" />
<glyph unicode="&#xda;" horiz-adv-x="1548" d="M1374 1462V516Q1374 365 1308 244T1107 51T768 -20Q478 -20 326 128T174 520V1462H483V567Q483 386 557 313T776 240Q878 240 941 275T1035 383T1065 569V1462H1374ZM1167 1913V1892Q1138 1864 1091 1823T990 1738T884
1653T793 1585H590V1612Q623 1650 666 1702T753 1811T825 1913H1167Z" />
<glyph unicode="&#xdb;" horiz-adv-x="1548" d="M1374 1462V516Q1374 365 1308 244T1107 51T768 -20Q478 -20 326 128T174 520V1462H483V567Q483 386 557 313T776 240Q878 240 941 275T1035 383T1065 569V1462H1374ZM954 1913Q983 1867 1029 1811T1125 1702T1210
1612V1585H1008Q954 1617 891 1661T774 1761Q720 1706 659 1663T545 1585H342V1612Q380 1650 429 1702T524 1811T598 1913H954Z" />
<glyph unicode="&#xdc;" horiz-adv-x="1548" d="M1374 1462V516Q1374 365 1308 244T1107 51T768 -20Q478 -20 326 128T174 520V1462H483V567Q483 386 557 313T776 240Q878 240 941 275T1035 383T1065 569V1462H1374ZM431 1749Q431 1820 471 1852T570 1884Q627
1884 669 1852T711 1749Q711 1682 669 1649T570 1616Q512 1616 472 1649T431 1749ZM834 1749Q834 1820 874 1852T975 1884Q1032 1884 1074 1852T1117 1749Q1117 1682 1075 1649T975 1616Q915 1616 875 1649T834 1749Z" />
<glyph unicode="&#xdd;" horiz-adv-x="1278" d="M639 860L944 1462H1278L793 569V0H485V559L0 1462H336L639 860ZM1032 1913V1892Q1003 1864 956 1823T855 1738T749 1653T658 1585H455V1612Q488 1650 531 1702T618 1811T690 1913H1032Z" />
<glyph unicode="&#xde;" horiz-adv-x="1286" d="M1194 770Q1194 676 1166 591T1075 438T906 332T647 293H494V0H184V1462H494V1233H672Q942 1233 1068 1107T1194 770ZM494 543H594Q690 543 753 566T849 639T881 770Q881 877 818 929T618 981H494V543Z" />
<glyph unicode="&#xdf;" horiz-adv-x="1456" d="M1249 1241Q1249 1165 1220 1110T1149 1014T1064 943T992 886T963 834Q963 808 983 787T1049 736T1171 657Q1238 615 1285 570T1358 466T1384 326Q1384 212 1332 135T1177 19T924 -20Q826 -20 753 -6T621 43V285Q653
264 701 244T803 212T903 199Q983 199 1027 230T1071 322Q1071 358 1057 384T1003 440T883 516Q799 564 750 605T680 690T659 788Q659 852 687 896T757 974T840 1038T910 1104T938 1188Q938 1251 873 1290T711 1329Q639 1329 584 1308T497 1242T465 1128V0H160V1139Q160
1285 232 1379T429 1520T711 1567Q865 1567 986 1529T1178 1419T1249 1241Z" />
<glyph unicode="&#xe0;" horiz-adv-x="1237" d="M618 1141Q843 1141 963 1043T1083 745V0H870L811 152H803Q755 92 705 54T590 -2T432 -20Q333 -20 255 18T131 134T86 334Q86 512 211 596T586 690L780 696V745Q780 833 734 874T606 915Q525 915 447 892T291 834L190
1040Q279 1087 389 1114T618 1141ZM780 518L662 514Q514 510 457 461T399 332Q399 262 440 233T547 203Q645 203 712 261T780 426V518ZM569 1569Q599 1523 641 1467T728 1359T804 1268V1241H602Q563 1268 511 1308T405 1393T303 1479T227 1548V1569H569Z" />
<glyph unicode="&#xe1;" horiz-adv-x="1237" d="M618 1141Q843 1141 963 1043T1083 745V0H870L811 152H803Q755 92 705 54T590 -2T432 -20Q333 -20 255 18T131 134T86 334Q86 512 211 596T586 690L780 696V745Q780 833 734 874T606 915Q525 915 447 892T291 834L190
1040Q279 1087 389 1114T618 1141ZM780 518L662 514Q514 510 457 461T399 332Q399 262 440 233T547 203Q645 203 712 261T780 426V518ZM1011 1569V1548Q982 1520 935 1479T834 1394T728 1309T637 1241H434V1268Q467 1306 510 1358T597 1467T669 1569H1011Z" />
<glyph unicode="&#xe2;" horiz-adv-x="1237" d="M618 1141Q843 1141 963 1043T1083 745V0H870L811 152H803Q755 92 705 54T590 -2T432 -20Q333 -20 255 18T131 134T86 334Q86 512 211 596T586 690L780 696V745Q780 833 734 874T606 915Q525 915 447 892T291 834L190
1040Q279 1087 389 1114T618 1141ZM780 518L662 514Q514 510 457 461T399 332Q399 262 440 233T547 203Q645 203 712 261T780 426V518ZM798 1569Q827 1523 873 1467T969 1358T1054 1268V1241H852Q798 1273 735 1317T618 1417Q564 1362 503 1319T389 1241H186V1268Q224
1306 273 1358T368 1467T442 1569H798Z" />
<glyph unicode="&#xe3;" horiz-adv-x="1237" d="M618 1141Q843 1141 963 1043T1083 745V0H870L811 152H803Q755 92 705 54T590 -2T432 -20Q333 -20 255 18T131 134T86 334Q86 512 211 596T586 690L780 696V745Q780 833 734 874T606 915Q525 915 447 892T291 834L190
1040Q279 1087 389 1114T618 1141ZM780 518L662 514Q514 510 457 461T399 332Q399 262 440 233T547 203Q645 203 712 261T780 426V518ZM203 1239Q209 1319 232 1377T292 1473T375 1529T475 1548Q516 1548 555 1533T633 1496T709 1460T783 1444Q813 1444 841 1470T883
1550H1032Q1020 1392 942 1317T760 1241Q719 1241 680 1257T602 1293T526 1330T453 1346Q422 1346 394 1320T352 1239H203Z" />
<glyph unicode="&#xe4;" horiz-adv-x="1237" d="M618 1141Q843 1141 963 1043T1083 745V0H870L811 152H803Q755 92 705 54T590 -2T432 -20Q333 -20 255 18T131 134T86 334Q86 512 211 596T586 690L780 696V745Q780 833 734 874T606 915Q525 915 447 892T291 834L190
1040Q279 1087 389 1114T618 1141ZM780 518L662 514Q514 510 457 461T399 332Q399 262 440 233T547 203Q645 203 712 261T780 426V518ZM531 1405Q531 1476 571 1508T670 1540Q727 1540 769 1508T811 1405Q811 1338 769 1305T670 1272Q612 1272 572 1305T531 1405ZM934
1405Q934 1476 974 1508T1075 1540Q1132 1540 1174 1508T1217 1405Q1217 1338 1175 1305T1075 1272Q1015 1272 975 1305T934 1405Z" />
<glyph unicode="&#xe5;" horiz-adv-x="1237" d="M618 1141Q843 1141 963 1043T1083 745V0H870L811 152H803Q755 92 705 54T590 -2T432 -20Q333 -20 255 18T131 134T86 334Q86 512 211 596T586 690L780 696V745Q780 833 734 874T606 915Q525 915 447 892T291 834L190
1040Q279 1087 389 1114T618 1141ZM780 518L662 514Q514 510 457 461T399 332Q399 262 440 233T547 203Q645 203 712 261T780 426V518ZM621 1239Q510 1239 442 1302T373 1477Q373 1587 441 1650T621 1714Q727 1714 801 1651T875 1479Q875 1367 802 1303T621 1239ZM621
1380Q662 1380 689 1406T717 1477Q717 1521 690 1547T621 1573Q579 1573 552 1547T524 1477Q524 1432 548 1406T621 1380Z" />
<glyph unicode="&#xe6;" horiz-adv-x="1878" d="M1313 1139Q1454 1139 1561 1080T1729 907T1790 631V483H1067Q1072 354 1144 281T1346 207Q1447 207 1540 229T1726 295V59Q1642 18 1552 -1T1329 -20Q1238 -20 1157 2T1010 70T895 186Q835 115 775 69T637 2T442
-20Q346 -20 265 18T135 134T86 334Q86 453 140 529T301 645T569 690L760 696V780Q760 849 716 882T594 915Q514 915 439 894T289 838L190 1040Q278 1087 387 1114T612 1141Q725 1141 810 1109T954 1010Q1020 1075 1106 1107T1313 1139ZM760 518L647 514Q508 510
454 461T399 332Q399 262 437 233T539 203Q602 203 652 229T731 305T760 426V518ZM1307 922Q1205 922 1144 865T1073 686H1503Q1502 754 1480 807T1414 891T1307 922Z" />
<glyph unicode="&#xe7;" horiz-adv-x="1053" d="M614 -20Q448 -20 331 40T153 228T92 553Q92 758 161 887T354 1078T641 1139Q757 1139 841 1117T989 1063L899 827Q827 856 765 874T641 893Q561 893 508 856T429 743T403 555Q403 444 431 371T512 263T641 227Q736
227 810 252T954 324V63Q884 19 808 0T614 -20ZM834 -250Q834 -365 767 -428T525 -492Q480 -492 444 -486T379 -471V-303Q408 -310 450 -317T522 -324Q551 -324 572 -311T594 -262Q594 -225 557 -196T428 -154L506 0H699L672 -61Q713 -74 750 -99T810 -162T834
-250Z" />
<glyph unicode="&#xe8;" horiz-adv-x="1210" d="M621 1139Q776 1139 888 1080T1061 907T1122 631V483H401Q406 354 478 281T680 207Q787 207 876 229T1059 295V59Q976 18 886 -1T666 -20Q498 -20 369 42T166 231T92 551Q92 747 158 877T344 1073T621 1139ZM623
922Q534 922 476 865T408 686H836Q835 754 812 807T742 891T623 922ZM557 1569Q587 1523 629 1467T716 1359T792 1268V1241H590Q551 1268 499 1308T393 1393T291 1479T215 1548V1569H557Z" />
<glyph unicode="&#xe9;" horiz-adv-x="1210" d="M621 1139Q776 1139 888 1080T1061 907T1122 631V483H401Q406 354 478 281T680 207Q787 207 876 229T1059 295V59Q976 18 886 -1T666 -20Q498 -20 369 42T166 231T92 551Q92 747 158 877T344 1073T621 1139ZM623
922Q534 922 476 865T408 686H836Q835 754 812 807T742 891T623 922ZM999 1569V1548Q970 1520 923 1479T822 1394T716 1309T625 1241H422V1268Q455 1306 498 1358T585 1467T657 1569H999Z" />
<glyph unicode="&#xea;" horiz-adv-x="1210" d="M621 1139Q776 1139 888 1080T1061 907T1122 631V483H401Q406 354 478 281T680 207Q787 207 876 229T1059 295V59Q976 18 886 -1T666 -20Q498 -20 369 42T166 231T92 551Q92 747 158 877T344 1073T621 1139ZM623
922Q534 922 476 865T408 686H836Q835 754 812 807T742 891T623 922ZM786 1569Q815 1523 861 1467T957 1358T1042 1268V1241H840Q786 1273 723 1317T606 1417Q552 1362 491 1319T377 1241H174V1268Q212 1306 261 1358T356 1467T430 1569H786Z" />
<glyph unicode="&#xeb;" horiz-adv-x="1210" d="M621 1139Q776 1139 888 1080T1061 907T1122 631V483H401Q406 354 478 281T680 207Q787 207 876 229T1059 295V59Q976 18 886 -1T666 -20Q498 -20 369 42T166 231T92 551Q92 747 158 877T344 1073T621 1139ZM623
922Q534 922 476 865T408 686H836Q835 754 812 807T742 891T623 922ZM519 1405Q519 1476 559 1508T658 1540Q715 1540 757 1508T799 1405Q799 1338 757 1305T658 1272Q600 1272 560 1305T519 1405ZM922 1405Q922 1476 962 1508T1063 1540Q1120 1540 1162 1508T1205
1405Q1205 1338 1163 1305T1063 1272Q1003 1272 963 1305T922 1405Z" />
<glyph unicode="&#xec;" horiz-adv-x="625" d="M465 0H160V1118H465V0ZM264 1569Q294 1523 336 1467T423 1359T499 1268V1241H297Q258 1268 206 1308T100 1393T-2 1479T-78 1548V1569H264Z" />
<glyph unicode="&#xed;" horiz-adv-x="625" d="M465 0H160V1118H465V0ZM706 1569V1548Q677 1520 630 1479T529 1394T423 1309T332 1241H129V1268Q162 1306 205 1358T292 1467T364 1569H706Z" />
<glyph unicode="&#xee;" horiz-adv-x="625" d="M465 0H160V1118H465V0ZM493 1569Q522 1523 568 1467T664 1358T749 1268V1241H547Q493 1273 430 1317T313 1417Q259 1362 198 1319T84 1241H-119V1268Q-81 1306 -32 1358T63 1467T137 1569H493Z" />
<glyph unicode="&#xef;" horiz-adv-x="625" d="M465 0H160V1118H465V0ZM-30 1405Q-30 1476 10 1508T109 1540Q166 1540 208 1508T250 1405Q250 1338 208 1305T109 1272Q51 1272 11 1305T-30 1405ZM373 1405Q373 1476 413 1508T514 1540Q571 1540 613 1508T656
1405Q656 1338 614 1305T514 1272Q454 1272 414 1305T373 1405Z" />
<glyph unicode="&#xf0;" horiz-adv-x="1268" d="M459 1567Q530 1535 595 1500T717 1425L942 1565L1042 1411L872 1307Q972 1216 1039 1108T1141 867T1176 573Q1176 384 1110 252T921 50T631 -20Q474 -20 353 39T162 213T92 489Q92 651 153 764T323 936T573 995Q642
995 695 984T786 952T848 897L856 901Q822 983 776 1050T664 1178L434 1036L334 1192L510 1298Q475 1321 438 1344T358 1391L459 1567ZM635 770Q552 770 501 739T427 645T403 487Q403 403 427 340T502 241T635 205Q758 205 811 287T864 532Q864 579 851 621T809
697T738 750T635 770Z" />
<glyph unicode="&#xf1;" horiz-adv-x="1346" d="M795 1139Q974 1139 1083 1042T1192 729V0H887V653Q887 773 844 834T707 895Q567 895 516 800T465 526V0H160V1118H393L434 975H451Q487 1033 540 1069T659 1122T795 1139ZM258 1239Q264 1319 287 1377T347 1473T430
1529T530 1548Q571 1548 610 1533T688 1496T764 1460T838 1444Q868 1444 896 1470T938 1550H1087Q1075 1392 997 1317T815 1241Q774 1241 735 1257T657 1293T581 1330T508 1346Q477 1346 449 1320T407 1239H258Z" />
<glyph unicode="&#xf2;" horiz-adv-x="1268" d="M1176 561Q1176 421 1139 313T1030 131T858 18T631 -20Q513 -20 415 18T244 130T132 313T92 561Q92 747 158 876T346 1072T637 1139Q794 1139 915 1072T1106 876T1176 561ZM403 561Q403 451 427 376T502 263T635
225Q716 225 766 263T840 376T864 561Q864 672 841 745T766 856T633 893Q512 893 458 810T403 561ZM586 1569Q616 1523 658 1467T745 1359T821 1268V1241H619Q580 1268 528 1308T422 1393T320 1479T244 1548V1569H586Z" />
<glyph unicode="&#xf3;" horiz-adv-x="1268" d="M1176 561Q1176 421 1139 313T1030 131T858 18T631 -20Q513 -20 415 18T244 130T132 313T92 561Q92 747 158 876T346 1072T637 1139Q794 1139 915 1072T1106 876T1176 561ZM403 561Q403 451 427 376T502 263T635
225Q716 225 766 263T840 376T864 561Q864 672 841 745T766 856T633 893Q512 893 458 810T403 561ZM1028 1569V1548Q999 1520 952 1479T851 1394T745 1309T654 1241H451V1268Q484 1306 527 1358T614 1467T686 1569H1028Z" />
<glyph unicode="&#xf4;" horiz-adv-x="1268" d="M1176 561Q1176 421 1139 313T1030 131T858 18T631 -20Q513 -20 415 18T244 130T132 313T92 561Q92 747 158 876T346 1072T637 1139Q794 1139 915 1072T1106 876T1176 561ZM403 561Q403 451 427 376T502 263T635
225Q716 225 766 263T840 376T864 561Q864 672 841 745T766 856T633 893Q512 893 458 810T403 561ZM815 1569Q844 1523 890 1467T986 1358T1071 1268V1241H869Q815 1273 752 1317T635 1417Q581 1362 520 1319T406 1241H203V1268Q241 1306 290 1358T385 1467T459
1569H815Z" />
<glyph unicode="&#xf5;" horiz-adv-x="1268" d="M1176 561Q1176 421 1139 313T1030 131T858 18T631 -20Q513 -20 415 18T244 130T132 313T92 561Q92 747 158 876T346 1072T637 1139Q794 1139 915 1072T1106 876T1176 561ZM403 561Q403 451 427 376T502 263T635
225Q716 225 766 263T840 376T864 561Q864 672 841 745T766 856T633 893Q512 893 458 810T403 561ZM219 1239Q225 1319 248 1377T308 1473T391 1529T491 1548Q532 1548 571 1533T649 1496T725 1460T799 1444Q829 1444 857 1470T899 1550H1048Q1036 1392 958 1317T776
1241Q735 1241 696 1257T618 1293T542 1330T469 1346Q438 1346 410 1320T368 1239H219Z" />
<glyph unicode="&#xf6;" horiz-adv-x="1268" d="M1176 561Q1176 421 1139 313T1030 131T858 18T631 -20Q513 -20 415 18T244 130T132 313T92 561Q92 747 158 876T346 1072T637 1139Q794 1139 915 1072T1106 876T1176 561ZM403 561Q403 451 427 376T502 263T635
225Q716 225 766 263T840 376T864 561Q864 672 841 745T766 856T633 893Q512 893 458 810T403 561ZM291 1405Q291 1476 331 1508T430 1540Q487 1540 529 1508T571 1405Q571 1338 529 1305T430 1272Q372 1272 332 1305T291 1405ZM694 1405Q694 1476 734 1508T835
1540Q892 1540 934 1508T977 1405Q977 1338 935 1305T835 1272Q775 1272 735 1305T694 1405Z" />
<glyph unicode="&#xf7;" horiz-adv-x="1171" d="M88 612V831H1081V612H88ZM584 221Q527 221 486 257T444 373Q444 457 485 490T584 524Q639 524 681 491T723 373Q723 293 681 257T584 221ZM584 920Q527 920 486 956T444 1071Q444 1156 485 1189T584 1223Q639 1223
681 1190T723 1071Q723 992 681 956T584 920Z" />
<glyph unicode="&#xf8;" horiz-adv-x="1268" d="M1176 561Q1176 375 1110 245T922 48T631 -20Q567 -20 509 -9T397 25L330 -76L176 29L244 129Q171 204 132 312T92 561Q92 839 238 989T637 1139Q705 1139 767 1126T885 1087L940 1169L1092 1061L1034 977Q1102
904 1139 800T1176 561ZM403 561Q403 512 408 471T422 395L739 870Q718 881 691 887T633 893Q512 893 458 810T403 561ZM864 561Q864 601 861 636T852 702L543 240Q563 232 586 229T635 225Q716 225 766 263T840 376T864 561Z" />
<glyph unicode="&#xf9;" horiz-adv-x="1346" d="M1186 1118V0H952L911 143H895Q859 86 805 50T686 -3T551 -20Q431 -20 342 22T204 155T154 389V1118H459V465Q459 345 502 284T639 223Q732 223 785 265T859 390T881 592V1118H1186ZM625 1569Q655 1523 697 1467T784
1359T860 1268V1241H658Q619 1268 567 1308T461 1393T359 1479T283 1548V1569H625Z" />
<glyph unicode="&#xfa;" horiz-adv-x="1346" d="M1186 1118V0H952L911 143H895Q859 86 805 50T686 -3T551 -20Q431 -20 342 22T204 155T154 389V1118H459V465Q459 345 502 284T639 223Q732 223 785 265T859 390T881 592V1118H1186ZM1067 1569V1548Q1038 1520 991
1479T890 1394T784 1309T693 1241H490V1268Q523 1306 566 1358T653 1467T725 1569H1067Z" />
<glyph unicode="&#xfb;" horiz-adv-x="1346" d="M1186 1118V0H952L911 143H895Q859 86 805 50T686 -3T551 -20Q431 -20 342 22T204 155T154 389V1118H459V465Q459 345 502 284T639 223Q732 223 785 265T859 390T881 592V1118H1186ZM854 1569Q883 1523 929 1467T1025
1358T1110 1268V1241H908Q854 1273 791 1317T674 1417Q620 1362 559 1319T445 1241H242V1268Q280 1306 329 1358T424 1467T498 1569H854Z" />
<glyph unicode="&#xfc;" horiz-adv-x="1346" d="M1186 1118V0H952L911 143H895Q859 86 805 50T686 -3T551 -20Q431 -20 342 22T204 155T154 389V1118H459V465Q459 345 502 284T639 223Q732 223 785 265T859 390T881 592V1118H1186ZM330 1405Q330 1476 370 1508T469
1540Q526 1540 568 1508T610 1405Q610 1338 568 1305T469 1272Q411 1272 371 1305T330 1405ZM733 1405Q733 1476 773 1508T874 1540Q931 1540 973 1508T1016 1405Q1016 1338 974 1305T874 1272Q814 1272 774 1305T733 1405Z" />
<glyph unicode="&#xfd;" horiz-adv-x="1165" d="M0 1118H334L545 489Q555 459 562 428T574 364T582 295H588Q594 349 604 396T631 489L838 1118H1165L692 -143Q649 -259 580 -336T422 -453T225 -492Q173 -492 135 -487T70 -475V-233Q91 -238 123 -242T190 -246Q254
-246 300 -219T377 -147T426 -47L444 8L0 1118ZM976 1569V1548Q947 1520 900 1479T799 1394T693 1309T602 1241H399V1268Q432 1306 475 1358T562 1467T634 1569H976Z" />
<glyph unicode="&#xfe;" horiz-adv-x="1296" d="M1204 561Q1204 371 1151 242T1003 46T782 -20Q702 -20 642 -2T538 48T465 117H451Q455 97 458 69T463 12T465 -39V-492H160V1556H465V1165Q465 1116 461 1060T451 973H465Q494 1019 537 1056T642 1116T782 1139Q970
1139 1087 992T1204 561ZM893 565Q893 729 842 812T684 895Q564 895 516 821T465 596V563Q465 400 513 314T688 227Q758 227 803 266T870 380T893 565Z" />
<glyph unicode="&#xff;" horiz-adv-x="1165" d="M0 1118H334L545 489Q555 459 562 428T574 364T582 295H588Q594 349 604 396T631 489L838 1118H1165L692 -143Q649 -259 580 -336T422 -453T225 -492Q173 -492 135 -487T70 -475V-233Q91 -238 123 -242T190 -246Q254
-246 300 -219T377 -147T426 -47L444 8L0 1118ZM496 1405Q496 1476 536 1508T635 1540Q692 1540 734 1508T776 1405Q776 1338 734 1305T635 1272Q577 1272 537 1305T496 1405ZM899 1405Q899 1476 939 1508T1040 1540Q1097 1540 1139 1508T1182 1405Q1182 1338 1140
1305T1040 1272Q980 1272 940 1305T899 1405Z" />
<glyph unicode="&#x2013;" horiz-adv-x="1024" d="M82 436V666H942V436H82Z" />
<glyph unicode="&#x2014;" horiz-adv-x="2048" d="M82 436V666H1966V436H82Z" />
<glyph unicode="&#x2018;" horiz-adv-x="444" d="M39 961L25 983Q43 1056 71 1138T133 1304T201 1462H420Q401 1381 382 1292T346 1118T319 961H39Z" />
<glyph unicode="&#x2019;" horiz-adv-x="444" d="M406 1462L420 1440Q402 1367 374 1285T312 1119T244 961H25Q39 1021 53 1087T81 1219T106 1347T125 1462H406Z" />
<glyph unicode="&#x201a;" horiz-adv-x="584" d="M445 237L459 215Q441 142 413 60T351 -106T283 -264H64Q78 -204 92 -138T120 -6T145 122T164 237H445Z" />
<glyph unicode="&#x201c;" horiz-adv-x="911" d="M887 1462Q868 1381 849 1292T813 1118T786 961H506L492 983Q510 1056 538 1138T600 1304T668 1462H887ZM420 1462Q401 1381 382 1292T346 1118T319 961H39L25 983Q43 1056 71 1138T133 1304T201 1462H420Z" />
<glyph unicode="&#x201d;" horiz-adv-x="911" d="M872 1462L887 1440Q869 1367 840 1285T778 1119T711 961H492Q511 1042 530 1131T565 1306T592 1462H872ZM406 1462L420 1440Q402 1367 374 1285T312 1119T244 961H25Q39 1021 53 1087T81 1219T106 1347T125 1462H406Z" />
<glyph unicode="&#x201e;" horiz-adv-x="1051" d="M911 237L926 215Q908 142 879 60T817 -106T750 -264H531Q550 -183 569 -94T604 81T631 237H911ZM445 237L459 215Q441 142 413 60T351 -106T283 -264H64Q78 -204 92 -138T120 -6T145 122T164 237H445Z" />
<glyph unicode="&#x2022;" horiz-adv-x="770" d="M98 748Q98 863 136 932T239 1033T385 1065Q464 1065 529 1034T633 933T672 748Q672 635 633 565T529 463T385 430Q304 430 239 462T136 565T98 748Z" />
<glyph unicode="&#x2039;" horiz-adv-x="754" d="M82 573L453 1028L672 909L393 561L672 213L453 94L82 547V573Z" />
<glyph unicode="&#x203a;" horiz-adv-x="754" d="M301 1028L672 573V547L301 94L82 213L360 561L82 909L301 1028Z" />
</font>
</defs>
</svg>
