<?xml version="1.0" standalone="no"?>
<!DOCTYPE svg PUBLIC "-//W3C//DTD SVG 1.1//EN" "http://www.w3.org/Graphics/SVG/1.1/DTD/svg11.dtd">
<svg xmlns="http://www.w3.org/2000/svg">
<defs >
<font id="OpenSans" horiz-adv-x="1169" ><font-face
    font-family="Open Sans Light"
    units-per-em="2048"
    panose-1="0 0 0 0 0 0 0 0 0 0"
    ascent="2189"
    descent="-600"
    alphabetic="0" />
<glyph unicode=" " horiz-adv-x="532" />
<glyph unicode="!" horiz-adv-x="492" d="M285 377H210L188 1462H307L285 377ZM164 71Q164 115 184 138T244 162Q286 162 306 139T326 71Q326 27 306 3T244 -21Q204 -21 184 3T164 71Z" />
<glyph unicode="&quot;" horiz-adv-x="723" d="M252 1462L232 934H164L144 1462H252ZM580 1462L559 934H492L471 1462H580Z" />
<glyph unicode="#" horiz-adv-x="1323" d="M966 926L890 533H1191V451H875L787 0H701L789 451H425L337 0H252L337 451H55V533H352L429 926H133V1007H444L531 1462H618L531 1007H896L984 1462H1069L982 1007H1268V926H966ZM439 533H803L880 926H516L439 533Z" />
<glyph unicode="$" d="M518 -119V50Q395 52 297 70T133 113V215Q203 186 306 165T518 142V704Q402 743 315 788T178 902T129 1076Q129 1182 179 1255T317 1369T518 1416V1554H598V1417Q690 1415 775 1396T941 1341L906 1255Q828 1289 749 1306T598 1327V777Q721
736 810 691T948 580T997 407Q997 245 888 156T598 53V-119H518ZM598 146Q734 155 815 218T896 404Q896 477 862 524T762 607T598 675V146ZM518 805V1326Q433 1321 368 1293T267 1212T230 1084Q230 1004 266 953T368 868T518 805Z" />
<glyph unicode="%" horiz-adv-x="1653" d="M401 1483Q547 1483 619 1365T691 1026Q691 800 616 683T399 565Q260 565 187 684T113 1026Q113 1249 187 1366T401 1483ZM401 1403Q305 1403 255 1309T204 1026Q204 838 253 742T399 645Q500 645 550 742T601 1026Q601
1211 553 1307T401 1403ZM1280 1462L469 0H374L1185 1462H1280ZM1251 897Q1395 897 1467 779T1540 440Q1540 214 1465 97T1248 -20Q1109 -20 1036 98T962 440Q962 663 1036 780T1251 897ZM1251 817Q1154 817 1104 724T1053 440Q1053 252 1102 156T1248 60Q1349
60 1399 156T1450 440Q1450 625 1402 721T1251 817Z" />
<glyph unicode="&amp;" horiz-adv-x="1461" d="M623 1485Q722 1485 797 1449T913 1344T955 1182Q955 1045 865 956T627 792L1086 333Q1144 403 1187 495T1255 694H1358Q1327 566 1275 459T1151 266L1414 0H1278L1085 199Q1021 135 948 85T783 8T573 -20Q438 -20
337 25T178 157T121 372Q121 483 163 559T284 694T474 810Q413 873 367 928T296 1043T270 1175Q270 1270 314 1339T437 1447T623 1485ZM538 744Q438 694 369 645T263 533T227 375Q227 232 322 152T575 71Q731 71 834 124T1020 263L538 744ZM620 1398Q505 1398 438
1338T371 1175Q371 1089 420 1018T559 854Q702 923 778 997T854 1182Q854 1281 790 1339T620 1398Z" />
<glyph unicode="&apos;" horiz-adv-x="393" d="M252 1462L232 934H164L144 1462H252Z" />
<glyph unicode="(" horiz-adv-x="557" d="M84 561Q84 738 118 900T219 1204T383 1462H489Q337 1277 262 1047T187 563Q187 397 221 241T322 -57T488 -324H383Q286 -207 220 -68T119 229T84 561Z" />
<glyph unicode=")" horiz-adv-x="557" d="M473 572Q473 397 439 235T339 -68T175 -324H70Q172 -200 238 -57T338 245T371 570Q371 737 338 894T237 1195T69 1462H175Q272 1344 338 1204T439 905T473 572Z" />
<glyph unicode="*" horiz-adv-x="1128" d="M615 1554L591 1142L988 1273L1008 1167L617 1083L868 753L772 695L558 1047L352 696L254 753L504 1083L111 1167L133 1273L527 1142L503 1554H615Z" />
<glyph unicode="+" d="M627 766H1059V679H627V243H540V679H109V766H540V1203H627V766Z" />
<glyph unicode="," horiz-adv-x="440" d="M298 238L307 214Q291 139 268 56T217 -109T158 -264H80Q106 -173 127 -87T164 81T190 238H298Z" />
<glyph unicode="-" horiz-adv-x="659" d="M82 507V600H578V507H82Z" />
<glyph unicode="." horiz-adv-x="488" d="M164 71Q164 115 184 138T243 162Q286 162 306 139T326 71Q326 27 306 3T243 -21Q204 -21 184 3T164 71Z" />
<glyph unicode="/" horiz-adv-x="698" d="M673 1462L127 0H24L571 1462H673Z" />
<glyph unicode="0" d="M1050 735Q1050 552 1022 411T937 174T792 29T584 -20Q432 -20 328 65T171 318T117 735Q117 957 162 1126T311 1390T585 1485Q755 1485 857 1392T1005 1131T1050 735ZM219 735Q219 510 258 363T378 142T584 69Q713 69 793 142T910 363T948
735Q948 941 916 1089T804 1316T585 1395Q448 1395 368 1314T254 1085T219 735Z" />
<glyph unicode="1" d="M682 0H583V1104Q583 1163 583 1207T584 1287T587 1355Q560 1328 535 1308T471 1257L255 1093L199 1165L597 1462H682V0Z" />
<glyph unicode="2" d="M1028 0H113V86L543 534Q646 641 716 727T823 901T860 1096Q860 1237 778 1315T554 1393Q459 1393 372 1359T201 1259L145 1330Q206 1380 273 1414T412 1465T554 1483Q679 1483 770 1436T913 1302T964 1100Q964 980 923 883T805 692T625
492L244 98V94H1028V0Z" />
<glyph unicode="3" d="M981 1125Q981 1028 941 954T832 833T672 769V763Q844 741 935 651T1026 404Q1026 281 968 185T794 35T501 -20Q382 -20 280 2T94 63V162Q177 121 285 95T502 68Q714 68 817 159T920 405Q920 517 865 584T711 683T477 714H317V803H478Q591
803 681 838T823 944T876 1120Q876 1256 790 1325T559 1394Q482 1394 415 1378T285 1332T160 1258L108 1331Q194 1397 306 1440T558 1483Q757 1483 869 1387T981 1125Z" />
<glyph unicode="4" d="M1141 373H889V0H790V373H48V453L783 1470H889V466H1141V373ZM790 466V1028Q790 1090 790 1135T792 1216T794 1287T796 1357H790Q762 1309 738 1269T675 1177L159 466H790Z" />
<glyph unicode="5" d="M562 881Q710 881 817 831T983 686T1042 452Q1042 306 977 200T794 37T514 -20Q398 -20 304 2T144 63V165Q214 123 311 96T515 69Q643 69 738 112T885 240T938 446Q938 609 839 700T540 792Q458 792 384 781T245 752L187 793L246 1462H948V1368H333L288
847Q333 858 401 869T562 881Z" />
<glyph unicode="6" d="M129 623Q129 787 154 922T230 1162T356 1339T534 1448T763 1485Q818 1485 868 1479T956 1462V1370Q919 1383 870 1390T765 1398Q593 1398 476 1319T298 1082T229 691H236Q265 745 317 794T448 874T634 905Q766 905 861 852T1008 700T1060
465Q1060 319 1007 210T853 41T611 -20Q491 -20 401 29T251 166T160 370T129 623ZM610 68Q775 68 866 171T958 465Q958 629 874 724T620 820Q502 820 417 773T285 657T239 520Q239 457 257 380T318 232T432 114T610 68Z" />
<glyph unicode="7" d="M339 0L944 1368H108V1462H1054V1388L450 0H339Z" />
<glyph unicode="8" d="M582 1483Q706 1483 799 1443T945 1327T997 1143Q997 1054 957 987T845 870T680 779Q790 737 872 682T999 552T1045 374Q1045 250 984 162T818 27T578 -20Q438 -20 335 27T176 160T119 363Q119 471 164 548T290 681T472 774Q388 811 319
859T208 975T166 1141Q166 1248 219 1324T367 1441T582 1483ZM220 363Q220 228 315 147T576 66Q742 66 843 146T944 373Q944 455 906 517T794 626T615 712L567 730Q465 693 387 645T265 528T220 363ZM581 1396Q444 1396 356 1329T267 1138Q267 1055 308 997T421
898T588 821Q686 861 754 905T859 1006T895 1141Q895 1267 811 1331T581 1396Z" />
<glyph unicode="9" d="M1040 843Q1040 678 1015 542T939 301T813 123T635 14T405 -23Q352 -23 294 -17T197 1V95Q235 82 290 73T404 64Q575 64 692 144T871 383T939 773H932Q904 720 851 670T718 589T532 557Q400 557 305 610T160 763T109 1000Q109 1145 163 1253T317
1422T558 1483Q680 1483 770 1435T920 1299T1010 1095T1040 843ZM558 1394Q394 1394 303 1292T211 1001Q211 835 294 739T549 642Q666 642 751 689T883 807T930 945Q930 1007 912 1084T851 1231T737 1348T558 1394Z" />
<glyph unicode=":" horiz-adv-x="488" d="M164 71Q164 115 184 138T243 162Q286 162 306 139T326 71Q326 27 306 3T243 -21Q204 -21 184 3T164 71ZM164 1011Q164 1056 184 1079T243 1103Q286 1103 306 1080T326 1011Q326 968 306 944T243 920Q204 920 184 944T164 1011Z" />
<glyph unicode=";" horiz-adv-x="488" d="M291 238L301 214Q284 140 261 57T210 -109T152 -264H73Q99 -173 119 -87T156 81T184 238H291ZM162 1011Q162 1056 182 1079T241 1103Q285 1103 304 1080T324 1011Q324 968 305 944T241 920Q202 920 182 944T162 1011Z" />
<glyph unicode="&lt;" d="M1058 266L110 700V762L1058 1217V1124L227 733L1058 359V266Z" />
<glyph unicode="=" d="M114 886V972H1054V886H114ZM114 472V558H1054V472H114Z" />
<glyph unicode="&gt;" d="M110 359L941 733L110 1124V1217L1058 762V700L110 266V359Z" />
<glyph unicode="?" horiz-adv-x="862" d="M292 377V413Q292 506 306 568T358 679T465 781Q541 838 591 886T667 991T693 1130Q693 1262 612 1327T397 1392Q312 1392 240 1372T94 1316L58 1403Q144 1442 223 1462T401 1483Q582 1483 687 1393T792 1131Q792 1033
760 963T669 837T533 723Q474 678 440 636T392 539T378 405V377H292ZM260 71Q260 115 280 138T340 162Q382 162 402 139T422 71Q422 27 402 3T340 -21Q300 -21 280 3T260 71Z" />
<glyph unicode="@" horiz-adv-x="1814" d="M1703 724Q1703 623 1683 532T1622 371T1518 261T1370 221Q1278 221 1221 275T1157 422H1152Q1109 322 1029 272T847 221Q694 221 611 318T528 590Q528 723 582 826T734 988T963 1047Q1043 1047 1116 1035T1244 1003L1227
661Q1226 624 1224 586T1221 512Q1221 403 1259 352T1375 300Q1456 300 1509 355T1588 507T1615 724Q1615 922 1538 1067T1315 1290T968 1369Q793 1369 652 1315T410 1159T255 911T201 581Q201 364 279 208T505 -31T863 -114Q974 -114 1083 -90T1286 -28V-116Q1198
-153 1092 -175T863 -197Q629 -197 461 -103T202 165T111 579Q111 781 172 942T346 1217T616 1391T968 1452Q1191 1452 1356 1363T1612 1111T1703 724ZM623 589Q623 447 682 374T857 300Q988 300 1057 389T1136 652L1150 939Q1113 952 1066 959T964 966Q856 966
780 917T663 783T623 589Z" />
<glyph unicode="A" horiz-adv-x="1230" d="M1121 0L922 517H308L105 0H0L575 1467H669L1229 0H1121ZM889 610L687 1158Q679 1179 668 1212T644 1282T619 1352Q609 1317 597 1282T574 1215T553 1156L343 610H889Z" />
<glyph unicode="B" horiz-adv-x="1284" d="M206 1462H607Q878 1462 1003 1377T1129 1106Q1129 1022 1097 953T1001 838T844 774V767Q955 750 1027 706T1135 589T1171 416Q1171 272 1106 180T924 44T656 0H206V1462ZM309 812H633Q839 812 931 884T1023 1097Q1023
1243 924 1307T607 1371H309V812ZM309 722V91H653Q856 91 959 173T1062 420Q1062 528 1014 594T871 691T633 722H309Z" />
<glyph unicode="C" horiz-adv-x="1271" d="M827 1390Q687 1390 577 1343T391 1208T275 1001T235 735Q235 535 298 386T487 154T803 72Q913 72 1003 88T1170 131V41Q1097 14 1006 -3T793 -20Q574 -20 426 74T202 338T127 735Q127 898 174 1034T311 1271T532 1427T828
1483Q933 1483 1028 1463T1208 1403L1168 1313Q1087 1353 1002 1371T827 1390Z" />
<glyph unicode="D" horiz-adv-x="1446" d="M1318 745Q1318 500 1232 334T976 84T556 0H206V1462H602Q836 1462 995 1380T1236 1139T1318 745ZM1210 741Q1210 950 1142 1090T934 1300T579 1371H309V91H551Q882 91 1046 253T1210 741Z" />
<glyph unicode="E" horiz-adv-x="1131" d="M1005 0H206V1462H1005V1369H309V815H966V722H309V93H1005V0Z" />
<glyph unicode="F" horiz-adv-x="1029" d="M309 0H206V1462H1006V1369H309V746H968V654H309V0Z" />
<glyph unicode="G" horiz-adv-x="1481" d="M783 738H1320V67Q1215 23 1096 2T843 -20Q610 -20 451 68T209 325T127 729Q127 949 216 1120T473 1388T873 1485Q993 1485 1099 1463T1302 1397L1261 1305Q1166 1349 1068 1371T868 1393Q670 1393 528 1309T310 1075T234
730Q234 509 307 363T520 144T862 71Q972 71 1059 87T1218 129V644H783V738Z" />
<glyph unicode="H" horiz-adv-x="1473" d="M1266 0H1163V720H309V0H206V1462H309V814H1163V1462H1266V0Z" />
<glyph unicode="I" horiz-adv-x="516" d="M206 0V1462H309V0H206Z" />
<glyph unicode="J" horiz-adv-x="505" d="M-27 -368Q-81 -368 -120 -361T-185 -343V-249Q-156 -260 -115 -267T-29 -274Q52 -274 104 -242T181 -147T206 9V1462H309V11Q309 -105 273 -190T162 -322T-27 -368Z" />
<glyph unicode="K" horiz-adv-x="1190" d="M1190 0H1065L499 771L309 588V0H206V1462H309V693Q346 735 386 777T468 864L1045 1462H1173L575 843L1190 0Z" />
<glyph unicode="L" horiz-adv-x="1050" d="M206 0V1462H309V94H1005V0H206Z" />
<glyph unicode="M" horiz-adv-x="1768" d="M839 0L302 1350H297Q299 1313 300 1273T303 1188T304 1096V0H206V1462H362L880 160H886L1408 1462H1560V0H1459V1108Q1459 1147 1460 1188T1462 1269T1466 1348H1460L921 0H839Z" />
<glyph unicode="N" horiz-adv-x="1477" d="M1270 0H1165L301 1293H296Q298 1239 299 1184T302 1070T304 949V0H206V1462H312L1173 173H1178Q1177 217 1176 275T1173 394T1171 509V1462H1270V0Z" />
<glyph unicode="O" horiz-adv-x="1565" d="M1436 733Q1436 566 1395 428T1272 190T1068 35T782 -20Q618 -20 495 35T291 190T168 429T127 735Q127 957 202 1126T425 1390T790 1485Q998 1485 1142 1395T1361 1136T1436 733ZM235 734Q235 538 294 389T475 155T783
71Q971 71 1092 154T1271 386T1329 733Q1329 1046 1193 1219T790 1392Q603 1392 480 1309T296 1078T235 734Z" />
<glyph unicode="P" horiz-adv-x="1198" d="M565 1462Q826 1462 956 1362T1086 1051Q1086 943 1052 860T948 719T776 633T534 604H309V0H206V1462H565ZM554 1371H309V695H524Q666 695 768 727T925 837T980 1047Q980 1216 876 1293T554 1371Z" />
<glyph unicode="Q" horiz-adv-x="1565" d="M1436 733Q1436 545 1383 392T1225 138T960 1L1273 -348H1128L848 -17Q832 -17 816 -18T782 -20Q618 -20 495 35T291 190T168 429T127 735Q127 957 202 1126T425 1390T790 1485Q998 1485 1142 1395T1361 1136T1436 733ZM235
734Q235 538 294 389T475 155T783 71Q971 71 1092 154T1271 386T1329 733Q1329 1046 1193 1219T790 1392Q603 1392 480 1309T296 1078T235 734Z" />
<glyph unicode="R" horiz-adv-x="1217" d="M561 1462Q735 1462 851 1424T1027 1299T1086 1064Q1086 953 1046 874T934 743T770 665L1171 0H1049L672 636H309V0H206V1462H561ZM551 1371H309V727H600Q779 727 879 813T980 1060Q980 1237 874 1304T551 1371Z" />
<glyph unicode="S" horiz-adv-x="1117" d="M1011 377Q1011 246 945 158T766 25T510 -20Q421 -20 349 -12T218 11T111 43V146Q189 116 291 94T515 71Q629 71 717 104T857 204T908 373Q908 463 866 520T738 619T524 704Q434 735 361 769T235 849T156 959T128 1112Q128
1233 189 1315T356 1440T594 1483Q699 1483 793 1464T976 1405L940 1316Q852 1354 764 1372T590 1390Q487 1390 407 1360T279 1268T232 1114Q232 1018 275 959T399 861T590 785Q720 741 814 693T959 570T1011 377Z" />
<glyph unicode="T" horiz-adv-x="1074" d="M588 0H484V1369H10V1462H1062V1369H588V0Z" />
<glyph unicode="U" horiz-adv-x="1473" d="M1283 1462V516Q1283 345 1217 226T1028 43T732 -20Q471 -20 331 121T191 520V1462H293V520Q293 300 407 186T737 71Q878 71 977 121T1128 269T1180 506V1462H1283Z" />
<glyph unicode="V" horiz-adv-x="1182" d="M1182 1462L642 0H540L0 1462H108L508 380Q525 333 540 289T568 203T591 124Q601 162 613 201T641 285T674 381L1073 1462H1182Z" />
<glyph unicode="W" horiz-adv-x="1827" d="M1778 1462L1379 0H1279L966 1104Q955 1139 947 1170T931 1230T917 1284T906 1331Q902 1310 898 1287T887 1238T874 1186T859 1130L547 0H446L52 1462H158L433 431Q444 390 453 353T471 282T486 215T500 149Q507 182
514 216T529 285T547 357T569 436L856 1462H959L1257 430Q1269 387 1279 349T1297 277T1312 210T1326 144Q1334 189 1342 232T1363 324T1390 429L1671 1462H1778Z" />
<glyph unicode="X" horiz-adv-x="1101" d="M1102 0H984L551 686L112 0H-1L491 760L43 1462H160L555 833L953 1462H1066L615 761L1102 0Z" />
<glyph unicode="Y" horiz-adv-x="1081" d="M541 664L968 1462H1081L594 565V0H491V557L0 1462H114L541 664Z" />
<glyph unicode="Z" horiz-adv-x="1179" d="M1098 0H76V75L944 1368H120V1462H1075V1387L206 94H1098V0Z" />
<glyph unicode="[" horiz-adv-x="653" d="M602 -324H174V1462H602V1375H272V-236H602V-324Z" />
<glyph unicode="\" horiz-adv-x="698" d="M127 1462L674 0H571L24 1462H127Z" />
<glyph unicode="]" horiz-adv-x="653" d="M51 -236H381V1375H51V1462H480V-324H51V-236Z" />
<glyph unicode="^" d="M88 561L553 1473H621L1081 561H984L586 1359L186 561H88Z" />
<glyph unicode="_" horiz-adv-x="841" d="M845 -267H-4V-185H845V-267Z" />
<glyph unicode="`" horiz-adv-x="534" d="M201 1569Q228 1524 271 1467T363 1354T453 1258V1241H380Q341 1273 299 1313T216 1396T141 1479T82 1552V1569H201Z" />
<glyph unicode="a" horiz-adv-x="1085" d="M560 1106Q739 1106 828 1016T917 729V0H839L821 190H815Q780 129 730 82T608 7T431 -20Q326 -20 252 15T137 117T96 280Q96 442 230 526T615 622L817 632V711Q817 878 751 949T556 1020Q472 1020 395 999T237 937L205
1021Q283 1058 372 1082T560 1106ZM816 553L626 545Q419 535 311 471T203 279Q203 176 267 121T447 66Q626 66 720 168T816 446V553Z" />
<glyph unicode="b" horiz-adv-x="1219" d="M280 1556V1114Q280 1057 278 989T274 876H280Q319 977 416 1043T658 1109Q870 1109 985 966T1101 547Q1101 378 1049 251T895 52T638 -20Q499 -20 411 38T283 185H275L256 0H179V1556H280ZM647 1021Q518 1021 437 966T318
804T280 545V529Q280 304 362 186T628 68Q810 68 903 192T997 547Q997 782 910 901T647 1021Z" />
<glyph unicode="c" horiz-adv-x="973" d="M616 -20Q454 -20 343 47T175 240T118 538Q118 717 183 844T366 1040T643 1108Q721 1108 788 1094T909 1055L882 966Q826 991 763 1004T642 1017Q508 1017 415 959T272 793T222 539Q222 402 264 297T393 131T616 70Q695
70 766 86T897 127V35Q844 11 775 -4T616 -20Z" />
<glyph unicode="d" horiz-adv-x="1219" d="M574 -20Q351 -20 235 120T118 530Q118 812 241 960T584 1108Q678 1108 747 1079T864 1001T938 888H946Q942 941 940 1002T938 1114V1556H1039V0H957L944 199H938Q911 139 864 89T745 10T574 -20ZM585 68Q777 68 858
187T939 529V545Q939 775 858 897T594 1020Q413 1020 318 894T222 528Q222 302 311 185T585 68Z" />
<glyph unicode="e" horiz-adv-x="1125" d="M592 1108Q731 1108 823 1043T961 865T1007 606V533H222Q222 309 325 189T622 69Q723 69 797 85T963 142V49Q883 13 803 -3T619 -20Q454 -20 343 48T175 242T118 534Q118 697 172 827T332 1032T592 1108ZM591 1021Q435
1021 339 918T225 619H902Q902 738 868 829T766 970T591 1021Z" />
<glyph unicode="f" horiz-adv-x="615" d="M585 1003H329V0H228V1003H26V1063L228 1089V1209Q228 1329 262 1408T367 1527T546 1567Q602 1567 647 1559T731 1537L708 1452Q673 1464 631 1472T547 1480Q432 1480 381 1417T329 1210V1087H585V1003Z" />
<glyph unicode="g" horiz-adv-x="1064" d="M468 -492Q263 -492 150 -413T36 -192Q36 -82 105 -3T292 93Q245 115 216 153T186 241Q186 297 221 345T326 435Q232 469 178 550T124 747Q124 857 171 938T304 1063T509 1108Q545 1108 574 1106T629 1100T674 1088H1025V1016L801
1001Q845 948 867 887T889 757Q889 595 787 500T503 405Q453 405 405 414Q344 378 312 342T280 251Q280 217 300 196T358 163T451 151H642Q819 151 913 79T1007 -133Q1007 -304 867 -398T468 -492ZM475 -407Q618 -407 713 -376T857 -285T905 -135Q905 -62 870 -22T771
33T620 49H438Q351 49 283 26T178 -49T140 -185Q140 -294 225 -350T475 -407ZM507 486Q642 486 714 554T786 751Q786 889 712 958T505 1027Q376 1027 303 954T229 747Q229 623 299 555T507 486Z" />
<glyph unicode="h" horiz-adv-x="1209" d="M281 1556V1048Q281 1004 280 966T275 889H282Q309 951 359 1000T484 1078T657 1107Q781 1107 865 1065T994 935T1038 711V0H938V705Q938 867 864 943T649 1019Q529 1019 447 973T323 833T281 599V0H180V1556H281Z" />
<glyph unicode="i" horiz-adv-x="463" d="M281 1087V0H180V1087H281ZM232 1489Q270 1489 288 1467T306 1406Q306 1368 288 1346T232 1324Q196 1324 178 1346T160 1406Q160 1444 178 1466T232 1489Z" />
<glyph unicode="j" horiz-adv-x="463" d="M31 -492Q-13 -492 -47 -486T-106 -469V-382Q-75 -394 -44 -398T23 -403Q99 -403 139 -356T180 -212V1087H281V-215Q281 -305 251 -367T164 -460T31 -492ZM160 1406Q160 1444 178 1466T232 1489Q270 1489 288 1467T306
1406Q306 1368 288 1346T232 1324Q196 1324 178 1346T160 1406Z" />
<glyph unicode="k" horiz-adv-x="991" d="M281 1556V771Q281 698 280 623T276 472H278Q307 506 338 543T401 616L831 1087H953L524 621L991 0H870L455 554L281 371V0H180V1556H281Z" />
<glyph unicode="l" horiz-adv-x="463" d="M283 0H181V1556H283V0Z" />
<glyph unicode="m" horiz-adv-x="1809" d="M1302 1108Q1459 1108 1550 1017T1641 730V0H1542V726Q1542 877 1473 948T1291 1019Q1136 1019 1049 929T961 644V0H861V726Q861 827 830 891T742 987T610 1019Q509 1019 435 978T321 850T281 630V0H180V1087H262L277
909H283Q310 962 355 1007T466 1080T623 1108Q740 1108 821 1056T935 900H942Q986 998 1078 1053T1302 1108Z" />
<glyph unicode="n" horiz-adv-x="1209" d="M659 1108Q842 1108 940 1012T1038 711V0H938V705Q938 867 864 943T649 1019Q470 1019 376 915T281 599V0H180V1087H262L277 889H283Q312 950 362 999T487 1078T659 1108Z" />
<glyph unicode="o" horiz-adv-x="1201" d="M1082 545Q1082 419 1051 316T959 137T808 21T597 -20Q483 -20 394 20T244 136T150 314T118 545Q118 720 176 846T344 1040T607 1108Q765 1108 870 1037T1029 838T1082 545ZM222 545Q222 402 263 295T387 128T599 68Q730
68 814 128T938 296T978 545Q978 682 940 789T820 957T606 1019Q417 1019 320 893T222 545Z" />
<glyph unicode="p" horiz-adv-x="1219" d="M662 1108Q872 1108 987 967T1103 551Q1103 367 1048 240T892 46T648 -20Q550 -20 478 9T357 89T283 201H276Q279 144 281 82T283 -35V-481H181V1087H265L277 870H283Q310 932 359 987T483 1075T662 1108ZM649 1019Q526
1019 445 966T324 810T283 559V542Q283 383 322 278T441 120T639 68Q755 68 835 125T957 290T999 552Q999 781 912 900T649 1019Z" />
<glyph unicode="q" horiz-adv-x="1219" d="M934 -481V-5Q934 40 936 103T940 211H933Q894 111 797 45T554 -22Q345 -22 230 120T114 541Q114 709 165 836T320 1036T577 1108Q717 1108 804 1047T932 898H938L954 1087H1035V-481H934ZM567 66Q696 66 776 120T895
278T935 530V556Q935 784 852 902T586 1020Q404 1020 311 893T218 539Q218 309 305 188T567 66Z" />
<glyph unicode="r" horiz-adv-x="797" d="M613 1106Q656 1106 694 1101T765 1087L749 994Q716 1003 682 1007T609 1012Q532 1012 472 983T369 900T305 770T283 600V0H181V1087H268L278 882H284Q309 945 354 995T465 1076T613 1106Z" />
<glyph unicode="s" horiz-adv-x="954" d="M860 285Q860 188 812 120T670 16T441 -20Q328 -20 239 0T90 49V149Q165 112 256 89T443 66Q611 66 685 123T759 279Q759 344 723 386T618 460T454 523Q354 557 277 590T155 679T111 831Q111 962 216 1035T498 1108Q596
1108 680 1090T834 1042L798 956Q736 985 655 1003T493 1021Q360 1021 285 974T210 836Q210 766 246 727T349 661T508 602Q603 569 683 533T812 440T860 285Z" />
<glyph unicode="t" horiz-adv-x="685" d="M474 67Q521 67 561 74T633 92V8Q601 -3 558 -11T463 -20Q371 -20 310 14T218 119T187 299V1003H25V1063L186 1094L221 1350H288V1087H627V1003H288V305Q288 188 331 128T474 67Z" />
<glyph unicode="u" horiz-adv-x="1209" d="M1025 1087V0H943L928 196H922Q894 136 843 87T718 9T546 -20Q421 -20 337 23T209 155T166 375V1087H267V385Q267 222 340 145T556 68Q676 68 757 114T881 253T924 487V1087H1025Z" />
<glyph unicode="v" horiz-adv-x="941" d="M417 0L0 1087H107L386 346Q412 279 432 218T467 106H472Q488 156 508 218T554 346L833 1087H941L523 0H417Z" />
<glyph unicode="w" horiz-adv-x="1480" d="M1049 0L818 730Q807 763 798 793T781 851T766 905T752 958H747Q740 932 733 905T718 849T701 790T681 728L442 0H338L29 1087H136L327 392Q344 331 356 283T377 196T393 122H398Q404 147 411 174T426 234T445 302T469
380L702 1087H802L1026 382Q1042 331 1055 285T1079 198T1097 123H1103Q1107 156 1115 195T1136 284T1165 392L1349 1087H1451L1156 0H1049Z" />
<glyph unicode="x" horiz-adv-x="1019" d="M444 559L65 1087H183L505 628L827 1087H944L568 559L968 0H849L505 488L163 0H47L444 559Z" />
<glyph unicode="y" horiz-adv-x="940" d="M1 1087H108L372 397Q396 336 414 285T447 191T470 113H476Q491 159 516 231T573 393L834 1087H942L446 -204Q410 -298 367 -363T266 -462T126 -496Q89 -496 59 -491T1 -476V-389Q27 -397 54 -402T115 -408Q172 -408 213
-385T288 -312T350 -187L424 6L1 1087Z" />
<glyph unicode="z" horiz-adv-x="945" d="M859 0H82V67L734 1003H130V1087H857V1018L206 84H859V0Z" />
<glyph unicode="{" horiz-adv-x="723" d="M651 -324Q534 -324 454 -291T332 -191T290 -28V303Q290 382 265 431T188 503T55 526V613Q136 613 188 635T265 706T290 836V1168Q290 1265 332 1330T455 1428T651 1462V1375Q564 1374 506 1351T419 1280T390 1155V827Q390
723 348 658T206 574V566Q306 549 348 484T390 313V-20Q390 -95 418 -142T505 -212T651 -236V-324Z" />
<glyph unicode="|" horiz-adv-x="1108" d="M507 1560H595V-506H507V1560Z" />
<glyph unicode="}" horiz-adv-x="723" d="M71 -324V-236Q158 -235 216 -212T302 -142T331 -20V312Q331 417 374 482T516 565V573Q417 591 374 656T331 826V1155Q331 1232 303 1280T217 1352T71 1375V1462Q188 1462 268 1429T391 1330T433 1167V837Q433 756 457
707T534 635T667 613V526Q586 526 534 504T458 432T433 304V-29Q433 -125 390 -191T267 -290T71 -324Z" />
<glyph unicode="~" d="M568 682Q506 712 458 727T347 743Q289 743 228 714T110 627V727Q158 775 220 802T352 829Q428 829 483 812T609 762Q672 734 720 718T824 702Q881 702 941 730T1058 817V720Q1015 674 955 645T820 616Q752 616 697 632T568 682Z" />
<glyph unicode="&#xa0;" horiz-adv-x="532" />
<glyph unicode="&#xa1;" horiz-adv-x="492" d="M206 706H281L302 -378H184L206 706ZM326 1013Q326 969 306 946T246 923Q203 923 184 946T164 1013Q164 1057 183 1081T246 1106Q285 1106 305 1082T326 1013Z" />
<glyph unicode="&#xa2;" d="M704 1483V1312Q784 1310 849 1297T971 1258L945 1170Q887 1195 824 1207T703 1220Q569 1220 475 1162T332 997T282 741Q282 600 324 496T453 332T678 273Q758 273 828 288T959 329V239Q909 216 846 200T703 182V-20H620V184Q473 196
375 265T228 455T179 740Q179 906 232 1027T384 1219T620 1306V1483H704Z" />
<glyph unicode="&#xa3;" d="M697 1481Q800 1481 878 1461T1022 1412L985 1326Q921 1355 852 1374T699 1393Q556 1393 485 1312T413 1059V757H824V674H413V406Q413 316 393 255T337 155T258 94H1074V0H78V87Q152 101 204 139T284 242T312 404V674H101V757H312V1071Q312
1205 357 1296T489 1434T697 1481Z" />
<glyph unicode="&#xa4;" d="M177 724Q177 794 200 860T267 980L119 1132L175 1189L326 1040Q380 1085 446 1108T584 1132Q653 1132 719 1109T840 1040L990 1188L1047 1131L899 980Q943 927 967 861T991 724Q991 655 968 588T899 467L1047 316L990 260L840 409Q787
364 720 341T584 317Q513 317 446 340T326 410L175 260L119 317L267 468Q224 522 201 588T177 724ZM257 724Q257 632 301 557T419 439T582 396Q673 396 748 441T867 560T912 725Q912 816 868 890T750 1009T585 1054Q495 1054 420 1010T301 891T257 724Z" />
<glyph unicode="&#xa5;" d="M585 710L1014 1462H1124L664 674H975V592H634V388H975V306H634V0H535V306H194V388H535V592H194V674H501L43 1462H154L585 710Z" />
<glyph unicode="&#xa6;" horiz-adv-x="1108" d="M507 1560H595V797H507V1560ZM507 259H595V-506H507V259Z" />
<glyph unicode="&#xa7;" horiz-adv-x="1057" d="M156 809Q156 909 213 973T355 1068Q271 1103 219 1154T166 1299Q166 1421 265 1490T542 1559Q643 1559 722 1542T870 1496L835 1414Q774 1442 699 1459T537 1476Q402 1476 332 1432T262 1300Q262 1242 296 1207T395
1147T548 1091Q642 1060 720 1024T845 931T892 782Q892 681 842 612T717 505Q792 471 838 418T884 277Q884 147 779 71T473 -5Q364 -5 276 15T128 63V157Q178 134 235 116T353 87T476 77Q645 77 715 132T786 272Q786 331 752 369T652 437T490 498Q393 531 318 566T199
659T156 809ZM247 817Q247 747 282 705T383 633T540 571L634 541Q706 573 753 632T801 772Q801 838 764 883T649 964T453 1031Q368 1010 308 957T247 817Z" />
<glyph unicode="&#xa8;" horiz-adv-x="1182" d="M332 1391Q332 1426 348 1447T397 1468Q433 1468 449 1447T465 1391Q465 1355 449 1334T397 1313Q365 1313 349 1334T332 1391ZM713 1391Q713 1426 729 1447T778 1468Q813 1468 829 1447T846 1391Q846 1355 830
1334T778 1313Q746 1313 730 1334T713 1391Z" />
<glyph unicode="&#xa9;" horiz-adv-x="1704" d="M852 -18Q688 -18 551 39T313 199T157 438T101 731Q101 892 159 1029T320 1267T559 1424T852 1481Q1013 1481 1150 1422T1388 1258T1546 1019T1603 731Q1603 574 1546 438T1386 199T1147 40T852 -18ZM888 285Q694
285 584 400T474 730Q474 863 526 964T673 1121T896 1177Q975 1177 1036 1163T1152 1121L1116 1045Q1067 1069 1014 1081T897 1094Q748 1094 659 997T569 730Q569 551 655 459T891 367Q954 367 1007 378T1118 411V331Q1068 309 1013 297T888 285ZM852 55Q995 55
1117 107T1331 253T1474 468T1525 731Q1525 869 1475 991T1335 1206T1121 1353T852 1407Q708 1407 586 1356T372 1213T229 998T178 731Q178 592 227 470T365 255T578 108T852 55Z" />
<glyph unicode="&#xaa;" horiz-adv-x="686" d="M352 1479Q466 1479 523 1425T580 1264V813H514L500 906Q470 862 417 833T287 803Q223 803 176 824T103 887T77 992Q77 1058 111 1102T217 1171T398 1200L499 1204V1261Q499 1338 458 1372T349 1406Q296 1406 248
1393T152 1355L122 1423Q171 1447 230 1463T352 1479ZM499 1137L403 1133Q273 1128 217 1096T161 992Q161 933 197 904T300 874Q401 874 450 928T499 1074V1137Z" />
<glyph unicode="&#xab;" horiz-adv-x="889" d="M64 572L388 966L456 923L173 560L456 197L388 154L64 545V572ZM432 572L758 966L826 923L543 560L826 197L758 154L432 545V572Z" />
<glyph unicode="&#xac;" d="M1037 766V267H952V679H109V766H1037Z" />
<glyph unicode="&#xad;" horiz-adv-x="659" d="M82 507V600H578V507H82Z" />
<glyph unicode="&#xae;" horiz-adv-x="1704" d="M595 289V1170H845Q987 1170 1066 1109T1146 917Q1146 819 1094 760T967 676L1202 289H1095L878 654H686V289H595ZM685 730H839Q933 730 994 776T1056 916Q1056 1008 998 1049T840 1090H685V730ZM852 -18Q688 -18
551 39T313 199T157 438T101 731Q101 892 159 1029T320 1267T559 1424T852 1481Q1013 1481 1150 1422T1388 1258T1546 1019T1603 731Q1603 574 1546 438T1386 199T1147 40T852 -18ZM852 55Q995 55 1117 107T1331 253T1474 468T1525 731Q1525 869 1475 991T1335
1206T1121 1353T852 1407Q708 1407 586 1356T372 1213T229 998T178 731Q178 592 227 470T365 255T578 108T852 55Z" />
<glyph unicode="&#xaf;" horiz-adv-x="1024" d="M1030 1556H-6V1640H1030V1556Z" />
<glyph unicode="&#xb0;" horiz-adv-x="877" d="M438 884Q350 884 281 921T173 1026T133 1184Q133 1273 172 1340T280 1445T438 1483Q527 1483 595 1445T703 1340T743 1184Q743 1094 704 1026T596 921T438 884ZM438 962Q539 962 599 1024T659 1184Q659 1285 599
1345T438 1406Q333 1406 276 1346T218 1184Q218 1087 275 1025T438 962Z" />
<glyph unicode="&#xb1;" d="M109 0V85H1060V0H109ZM627 768H1059V682H627V245H540V682H109V768H540V1205H627V768Z" />
<glyph unicode="&#xb2;" horiz-adv-x="689" d="M628 852H53V921L299 1168Q376 1245 426 1301T500 1406T524 1510Q524 1584 478 1628T346 1673Q283 1673 230 1652T121 1587L77 1649Q135 1696 202 1722T347 1749Q473 1749 543 1684T613 1513Q613 1443 584 1385T497
1265T361 1125L167 932H628V852Z" />
<glyph unicode="&#xb3;" horiz-adv-x="689" d="M344 1745Q472 1745 542 1686T613 1527Q613 1442 569 1388T459 1317V1312Q542 1294 589 1242T636 1104Q636 982 552 912T307 841Q234 841 169 854T46 894V978Q111 950 176 933T307 916Q426 916 486 966T546 1106Q546
1192 486 1232T306 1272H177V1346H306Q414 1346 468 1392T523 1521Q523 1591 475 1630T345 1669Q274 1669 216 1648T100 1591L60 1654Q118 1695 187 1720T344 1745Z" />
<glyph unicode="&#xb4;" horiz-adv-x="534" d="M453 1569V1552Q429 1520 394 1480T318 1396T235 1313T154 1241H82V1258Q122 1298 170 1353T261 1466T333 1569H453Z" />
<glyph unicode="&#xb5;" horiz-adv-x="1221" d="M1039 1087V0H955L940 176H934Q905 120 861 76T750 6T582 -20Q467 -20 394 17T282 118H276Q278 92 278 60T279 -10T280 -88V-492H180V1087H280V383Q280 226 355 147T586 68Q718 68 795 117T905 260T939 488V1087H1039Z" />
<glyph unicode="&#xb6;" horiz-adv-x="1341" d="M1083 -260H1006V1481H756V-260H678V664Q645 655 610 651T532 646Q414 646 332 699T207 855T164 1104Q164 1259 210 1359T345 1508T563 1556H1083V-260Z" />
<glyph unicode="&#xb7;" horiz-adv-x="488" d="M164 673Q164 717 184 740T243 764Q286 764 306 741T326 673Q326 629 306 605T243 581Q204 581 184 605T164 673Z" />
<glyph unicode="&#xb8;" horiz-adv-x="420" d="M393 -292Q393 -385 324 -438T135 -492Q100 -492 72 -489T23 -480V-407Q46 -413 74 -415T137 -418Q214 -418 260 -388T306 -295Q306 -234 255 -207T104 -175L194 0H271L209 -124Q264 -130 305 -151T370 -207T393 -292Z" />
<glyph unicode="&#xb9;" horiz-adv-x="689" d="M431 1729V852H344V1422Q344 1460 344 1498T345 1572T348 1643Q319 1622 289 1603T219 1561L117 1499L76 1564L349 1729H431Z" />
<glyph unicode="&#xba;" horiz-adv-x="740" d="M672 1142Q672 990 594 895T370 800Q230 800 151 893T72 1142Q72 1302 153 1392T376 1483Q473 1483 539 1440T638 1320T672 1142ZM155 1142Q155 1019 208 946T370 872Q483 872 535 946T588 1142Q588 1260 538 1335T375
1410Q268 1410 212 1341T155 1142Z" />
<glyph unicode="&#xbb;" horiz-adv-x="889" d="M825 548L499 154L431 198L715 561L431 924L499 966L825 575V548ZM456 548L131 154L63 198L346 561L63 924L131 966L456 575V548Z" />
<glyph unicode="&#xbc;" horiz-adv-x="1466" d="M285 0L1096 1462H1189L378 0H285ZM315 586V1156Q315 1194 315 1232T316 1306T319 1377Q290 1356 260 1337T189 1294L87 1233L47 1298L320 1462H402V586H315ZM1216 0V241H805V304L1214 883H1306V318H1447V241H1306V0H1216ZM900
318H1216V600Q1216 647 1216 693T1219 783Q1204 753 1183 722T1139 658L900 318Z" />
<glyph unicode="&#xbd;" horiz-adv-x="1545" d="M262 0L1073 1462H1166L355 0H262ZM305 586V1156Q305 1184 305 1212T306 1269T307 1324T309 1377Q280 1356 251 1337T180 1294L78 1233L38 1298L311 1462H393V586H305ZM909 0V69L1154 316Q1232 393 1282 449T1356
554T1380 658Q1380 732 1334 776T1202 821Q1139 821 1085 800T977 735L933 797Q991 844 1058 870T1203 897Q1329 897 1399 832T1469 661Q1469 591 1439 533T1353 413T1217 273L1023 80H1484V0H909Z" />
<glyph unicode="&#xbe;" horiz-adv-x="1570" d="M395 0L1207 1462H1300L489 0H395ZM305 575Q232 575 167 588T45 628V712Q109 683 174 667T306 650Q424 650 484 700T544 840Q544 926 484 966T305 1006H175V1080H305Q412 1080 466 1126T521 1255Q521 1325 473 1363T343
1402Q272 1402 214 1381T98 1325L58 1388Q117 1429 186 1454T343 1479Q470 1479 540 1420T611 1261Q611 1176 567 1122T458 1051V1046Q541 1028 587 976T634 838Q634 716 550 646T305 575ZM1320 0V241H909V304L1318 883H1410V318H1552V241H1410V0H1320ZM1005 318H1320V600Q1320
647 1321 693T1324 783Q1308 753 1287 722T1244 658L1005 318Z" />
<glyph unicode="&#xbf;" horiz-adv-x="862" d="M572 713V677Q572 585 558 523T506 411T399 309Q324 252 273 204T197 99T171 -40Q171 -172 252 -237T467 -302Q553 -302 625 -282T770 -226L806 -313Q720 -352 641 -372T463 -393Q282 -393 177 -303T72 -41Q72 58
104 127T195 253T332 367Q391 412 424 454T472 551T487 685V713H572ZM604 1019Q604 975 584 952T524 928Q482 928 463 951T443 1019Q443 1063 462 1087T524 1111Q564 1111 584 1087T604 1019Z" />
<glyph unicode="&#xc0;" horiz-adv-x="1230" d="M1121 0L922 517H308L105 0H0L575 1467H669L1229 0H1121ZM889 610L687 1158Q679 1179 668 1212T644 1282T619 1352Q609 1317 597 1282T574 1215T553 1156L343 610H889ZM481 1944Q508 1899 551 1842T643 1729T733
1633V1616H660Q621 1648 579 1688T496 1771T421 1854T362 1927V1944H481Z" />
<glyph unicode="&#xc1;" horiz-adv-x="1230" d="M1121 0L922 517H308L105 0H0L575 1467H669L1229 0H1121ZM889 610L687 1158Q679 1179 668 1212T644 1282T619 1352Q609 1317 597 1282T574 1215T553 1156L343 610H889ZM912 1944V1927Q888 1895 853 1855T777 1771T694
1688T613 1616H541V1633Q581 1673 629 1728T720 1841T792 1944H912Z" />
<glyph unicode="&#xc2;" horiz-adv-x="1230" d="M1121 0L922 517H308L105 0H0L575 1467H669L1229 0H1121ZM889 610L687 1158Q679 1179 668 1212T644 1282T619 1352Q609 1317 597 1282T574 1215T553 1156L343 610H889ZM670 1940Q695 1897 737 1841T826 1729T912
1632V1616H838Q782 1664 725 1726T621 1845Q573 1788 516 1726T403 1616H330V1632Q368 1673 415 1728T505 1840T572 1940H670Z" />
<glyph unicode="&#xc3;" horiz-adv-x="1230" d="M1121 0L922 517H308L105 0H0L575 1467H669L1229 0H1121ZM889 610L687 1158Q679 1179 668 1212T644 1282T619 1352Q609 1317 597 1282T574 1215T553 1156L343 610H889ZM240 1632Q245 1687 260 1728T300 1798T361
1840T438 1855Q487 1855 526 1834T600 1786T669 1737T742 1715Q788 1715 822 1744T867 1856H938Q928 1749 875 1690T738 1631Q689 1631 650 1652T577 1700T509 1749T433 1771Q388 1771 355 1742T311 1632H240Z" />
<glyph unicode="&#xc4;" horiz-adv-x="1230" d="M1121 0L922 517H308L105 0H0L575 1467H669L1229 0H1121ZM889 610L687 1158Q679 1179 668 1212T644 1282T619 1352Q609 1317 597 1282T574 1215T553 1156L343 610H889ZM362 1766Q362 1801 378 1822T427 1843Q463
1843 479 1822T495 1766Q495 1730 479 1709T427 1688Q395 1688 379 1709T362 1766ZM743 1766Q743 1801 759 1822T808 1843Q843 1843 859 1822T876 1766Q876 1730 860 1709T808 1688Q776 1688 760 1709T743 1766Z" />
<glyph unicode="&#xc5;" horiz-adv-x="1230" d="M1121 0L922 517H308L105 0H0L575 1467H669L1229 0H1121ZM889 610L687 1158Q679 1179 668 1212T644 1282T619 1352Q609 1317 597 1282T574 1215T553 1156L343 610H889ZM617 1402Q528 1402 466 1459T404 1612Q404
1705 465 1763T617 1821Q706 1821 768 1762T830 1613Q830 1517 768 1460T617 1402ZM617 1471Q679 1471 718 1511T757 1612Q757 1673 716 1712T617 1752Q557 1752 516 1713T475 1612Q475 1552 514 1512T617 1471Z" />
<glyph unicode="&#xc6;" horiz-adv-x="1654" d="M1590 0H812V516H338L109 0H-2L651 1462H1590V1369H915V815H1550V722H915V93H1590V0ZM379 609H812V1368H714L379 609Z" />
<glyph unicode="&#xc7;" horiz-adv-x="1271" d="M827 1390Q687 1390 577 1343T391 1208T275 1001T235 735Q235 535 298 386T487 154T803 72Q913 72 1003 88T1170 131V41Q1097 14 1006 -3T793 -20Q574 -20 426 74T202 338T127 735Q127 898 174 1034T311 1271T532
1427T828 1483Q933 1483 1028 1463T1208 1403L1168 1313Q1087 1353 1002 1371T827 1390ZM925 -292Q925 -385 856 -438T667 -492Q632 -492 604 -489T555 -480V-407Q578 -413 606 -415T669 -418Q746 -418 792 -388T838 -295Q838 -234 787 -207T636 -175L726 0H803L741
-124Q796 -130 837 -151T902 -207T925 -292Z" />
<glyph unicode="&#xc8;" horiz-adv-x="1131" d="M1005 0H206V1462H1005V1369H309V815H966V722H309V93H1005V0ZM492 1944Q519 1899 562 1842T654 1729T744 1633V1616H671Q632 1648 590 1688T507 1771T432 1854T373 1927V1944H492Z" />
<glyph unicode="&#xc9;" horiz-adv-x="1131" d="M1005 0H206V1462H1005V1369H309V815H966V722H309V93H1005V0ZM923 1944V1927Q899 1895 864 1855T788 1771T705 1688T624 1616H552V1633Q592 1673 640 1728T731 1841T803 1944H923Z" />
<glyph unicode="&#xca;" horiz-adv-x="1131" d="M1005 0H206V1462H1005V1369H309V815H966V722H309V93H1005V0ZM680 1940Q705 1897 747 1841T836 1729T922 1632V1616H848Q792 1664 735 1726T631 1845Q583 1788 526 1726T413 1616H340V1632Q378 1673 425 1728T515
1840T582 1940H680Z" />
<glyph unicode="&#xcb;" horiz-adv-x="1131" d="M1005 0H206V1462H1005V1369H309V815H966V722H309V93H1005V0ZM373 1766Q373 1801 389 1822T438 1843Q474 1843 490 1822T506 1766Q506 1730 490 1709T438 1688Q406 1688 390 1709T373 1766ZM754 1766Q754 1801 770
1822T819 1843Q854 1843 870 1822T887 1766Q887 1730 871 1709T819 1688Q787 1688 771 1709T754 1766Z" />
<glyph unicode="&#xcc;" horiz-adv-x="516" d="M206 0V1462H309V0H206ZM117 1944Q144 1899 187 1842T279 1729T369 1633V1616H296Q257 1648 215 1688T132 1771T57 1854T-2 1927V1944H117Z" />
<glyph unicode="&#xcd;" horiz-adv-x="516" d="M206 0V1462H309V0H206ZM532 1944V1927Q508 1895 473 1855T397 1771T314 1688T233 1616H161V1633Q201 1673 249 1728T340 1841T412 1944H532Z" />
<glyph unicode="&#xce;" horiz-adv-x="516" d="M206 0V1462H309V0H206ZM307 1940Q332 1897 374 1841T463 1729T549 1632V1616H475Q419 1664 362 1726T258 1845Q210 1788 153 1726T40 1616H-33V1632Q5 1673 52 1728T142 1840T209 1940H307Z" />
<glyph unicode="&#xcf;" horiz-adv-x="516" d="M206 0V1462H309V0H206ZM3 1766Q3 1801 19 1822T68 1843Q104 1843 120 1822T136 1766Q136 1730 120 1709T68 1688Q36 1688 20 1709T3 1766ZM384 1766Q384 1801 400 1822T449 1843Q484 1843 500 1822T517 1766Q517
1730 501 1709T449 1688Q417 1688 401 1709T384 1766Z" />
<glyph unicode="&#xd0;" horiz-adv-x="1446" d="M602 1462Q835 1462 994 1380T1236 1139T1318 745Q1318 500 1232 334T976 84T555 0H212V680H45V773H212V1462H602ZM579 1371H314V773H715V680H314V91H551Q882 91 1046 253T1210 741Q1210 950 1142 1090T934 1300T579 1371Z" />
<glyph unicode="&#xd1;" horiz-adv-x="1477" d="M1270 0H1165L301 1293H296Q298 1239 299 1184T302 1070T304 949V0H206V1462H312L1173 173H1178Q1177 217 1176 275T1173 394T1171 509V1462H1270V0ZM384 1632Q389 1687 404 1728T444 1798T505 1840T582 1855Q631
1855 670 1834T744 1786T813 1737T886 1715Q932 1715 966 1744T1011 1856H1082Q1072 1749 1019 1690T882 1631Q833 1631 794 1652T721 1700T653 1749T577 1771Q532 1771 499 1742T455 1632H384Z" />
<glyph unicode="&#xd2;" horiz-adv-x="1565" d="M1436 733Q1436 566 1395 428T1272 190T1068 35T782 -20Q618 -20 495 35T291 190T168 429T127 735Q127 957 202 1126T425 1390T790 1485Q998 1485 1142 1395T1361 1136T1436 733ZM235 734Q235 538 294 389T475 155T783
71Q971 71 1092 154T1271 386T1329 733Q1329 1046 1193 1219T790 1392Q603 1392 480 1309T296 1078T235 734ZM644 1944Q671 1899 714 1842T806 1729T896 1633V1616H823Q784 1648 742 1688T659 1771T584 1854T525 1927V1944H644Z" />
<glyph unicode="&#xd3;" horiz-adv-x="1565" d="M1436 733Q1436 566 1395 428T1272 190T1068 35T782 -20Q618 -20 495 35T291 190T168 429T127 735Q127 957 202 1126T425 1390T790 1485Q998 1485 1142 1395T1361 1136T1436 733ZM235 734Q235 538 294 389T475 155T783
71Q971 71 1092 154T1271 386T1329 733Q1329 1046 1193 1219T790 1392Q603 1392 480 1309T296 1078T235 734ZM1074 1944V1927Q1050 1895 1015 1855T939 1771T856 1688T775 1616H703V1633Q743 1673 791 1728T882 1841T954 1944H1074Z" />
<glyph unicode="&#xd4;" horiz-adv-x="1565" d="M1436 733Q1436 566 1395 428T1272 190T1068 35T782 -20Q618 -20 495 35T291 190T168 429T127 735Q127 957 202 1126T425 1390T790 1485Q998 1485 1142 1395T1361 1136T1436 733ZM235 734Q235 538 294 389T475 155T783
71Q971 71 1092 154T1271 386T1329 733Q1329 1046 1193 1219T790 1392Q603 1392 480 1309T296 1078T235 734ZM831 1940Q856 1897 898 1841T987 1729T1073 1632V1616H999Q943 1664 886 1726T782 1845Q734 1788 677 1726T564 1616H491V1632Q529 1673 576 1728T666
1840T733 1940H831Z" />
<glyph unicode="&#xd5;" horiz-adv-x="1565" d="M1436 733Q1436 566 1395 428T1272 190T1068 35T782 -20Q618 -20 495 35T291 190T168 429T127 735Q127 957 202 1126T425 1390T790 1485Q998 1485 1142 1395T1361 1136T1436 733ZM235 734Q235 538 294 389T475 155T783
71Q971 71 1092 154T1271 386T1329 733Q1329 1046 1193 1219T790 1392Q603 1392 480 1309T296 1078T235 734ZM401 1632Q406 1687 421 1728T461 1798T522 1840T599 1855Q648 1855 687 1834T761 1786T830 1737T903 1715Q949 1715 983 1744T1028 1856H1099Q1089 1749
1036 1690T899 1631Q850 1631 811 1652T738 1700T670 1749T594 1771Q549 1771 516 1742T472 1632H401Z" />
<glyph unicode="&#xd6;" horiz-adv-x="1565" d="M1436 733Q1436 566 1395 428T1272 190T1068 35T782 -20Q618 -20 495 35T291 190T168 429T127 735Q127 957 202 1126T425 1390T790 1485Q998 1485 1142 1395T1361 1136T1436 733ZM235 734Q235 538 294 389T475 155T783
71Q971 71 1092 154T1271 386T1329 733Q1329 1046 1193 1219T790 1392Q603 1392 480 1309T296 1078T235 734ZM524 1766Q524 1801 540 1822T589 1843Q625 1843 641 1822T657 1766Q657 1730 641 1709T589 1688Q557 1688 541 1709T524 1766ZM905 1766Q905 1801 921
1822T970 1843Q1005 1843 1021 1822T1038 1766Q1038 1730 1022 1709T970 1688Q938 1688 922 1709T905 1766Z" />
<glyph unicode="&#xd7;" d="M967 1166L1027 1105L644 723L1027 340L966 280L583 661L202 280L140 340L523 723L140 1105L202 1166L584 783L967 1166Z" />
<glyph unicode="&#xd8;" horiz-adv-x="1565" d="M1436 733Q1436 566 1395 428T1272 190T1068 35T782 -20Q656 -20 555 13T377 109L256 -57L183 -7L310 168Q220 268 174 413T127 735Q127 957 202 1126T425 1390T790 1485Q907 1485 1005 1455T1179 1366L1291 1521L1363
1469L1246 1309Q1338 1211 1387 1066T1436 733ZM1329 733Q1329 892 1293 1016T1186 1224L433 189Q498 133 585 102T783 71Q971 71 1092 154T1271 386T1329 733ZM235 734Q235 585 269 463T371 254L1123 1286Q1059 1338 976 1365T790 1392Q603 1392 480 1309T296
1078T235 734Z" />
<glyph unicode="&#xd9;" horiz-adv-x="1473" d="M1283 1462V516Q1283 345 1217 226T1028 43T732 -20Q471 -20 331 121T191 520V1462H293V520Q293 300 407 186T737 71Q878 71 977 121T1128 269T1180 506V1462H1283ZM599 1944Q626 1899 669 1842T761 1729T851 1633V1616H778Q739
1648 697 1688T614 1771T539 1854T480 1927V1944H599Z" />
<glyph unicode="&#xda;" horiz-adv-x="1473" d="M1283 1462V516Q1283 345 1217 226T1028 43T732 -20Q471 -20 331 121T191 520V1462H293V520Q293 300 407 186T737 71Q878 71 977 121T1128 269T1180 506V1462H1283ZM1028 1944V1927Q1004 1895 969 1855T893 1771T810
1688T729 1616H657V1633Q697 1673 745 1728T836 1841T908 1944H1028Z" />
<glyph unicode="&#xdb;" horiz-adv-x="1473" d="M1283 1462V516Q1283 345 1217 226T1028 43T732 -20Q471 -20 331 121T191 520V1462H293V520Q293 300 407 186T737 71Q878 71 977 121T1128 269T1180 506V1462H1283ZM786 1940Q811 1897 853 1841T942 1729T1028 1632V1616H954Q898
1664 841 1726T737 1845Q689 1788 632 1726T519 1616H446V1632Q484 1673 531 1728T621 1840T688 1940H786Z" />
<glyph unicode="&#xdc;" horiz-adv-x="1473" d="M1283 1462V516Q1283 345 1217 226T1028 43T732 -20Q471 -20 331 121T191 520V1462H293V520Q293 300 407 186T737 71Q878 71 977 121T1128 269T1180 506V1462H1283ZM480 1766Q480 1801 496 1822T545 1843Q581 1843
597 1822T613 1766Q613 1730 597 1709T545 1688Q513 1688 497 1709T480 1766ZM861 1766Q861 1801 877 1822T926 1843Q961 1843 977 1822T994 1766Q994 1730 978 1709T926 1688Q894 1688 878 1709T861 1766Z" />
<glyph unicode="&#xdd;" horiz-adv-x="1081" d="M541 664L968 1462H1081L594 565V0H491V557L0 1462H114L541 664ZM833 1944V1927Q809 1895 774 1855T698 1771T615 1688T534 1616H462V1633Q502 1673 550 1728T641 1841T713 1944H833Z" />
<glyph unicode="&#xde;" horiz-adv-x="1198" d="M1089 782Q1089 677 1055 595T952 456T779 370T533 340H309V0H206V1462H309V1198H577Q839 1198 964 1095T1089 782ZM309 431H521Q667 431 770 464T928 573T983 778Q983 951 882 1029T563 1107H309V431Z" />
<glyph unicode="&#xdf;" horiz-adv-x="1194" d="M963 1288Q963 1214 934 1165T863 1081T779 1014T708 946T679 854Q679 809 699 777T761 711T868 634Q932 592 983 547T1064 440T1094 289Q1094 196 1053 127T932 19T738 -20Q641 -20 575 -3T456 40V137Q497 116
542 100T635 75T736 66Q866 66 930 125T994 284Q994 352 971 399T905 486T801 566Q731 613 682 653T606 740T580 850Q580 921 608 965T678 1042T761 1106T831 1178T860 1284Q860 1378 791 1428T597 1479Q496 1479 425 1446T317 1343T280 1169V0H179V1169Q179 1303
230 1391T374 1523T597 1567Q711 1567 793 1534T919 1438T963 1288Z" />
<glyph unicode="&#xe0;" horiz-adv-x="1085" d="M560 1106Q739 1106 828 1016T917 729V0H839L821 190H815Q780 129 730 82T608 7T431 -20Q326 -20 252 15T137 117T96 280Q96 442 230 526T615 622L817 632V711Q817 878 751 949T556 1020Q472 1020 395 999T237 937L205
1021Q283 1058 372 1082T560 1106ZM816 553L626 545Q419 535 311 471T203 279Q203 176 267 121T447 66Q626 66 720 168T816 446V553ZM398 1569Q425 1524 468 1467T560 1354T650 1258V1241H577Q538 1273 496 1313T413 1396T338 1479T279 1552V1569H398Z" />
<glyph unicode="&#xe1;" horiz-adv-x="1085" d="M560 1106Q739 1106 828 1016T917 729V0H839L821 190H815Q780 129 730 82T608 7T431 -20Q326 -20 252 15T137 117T96 280Q96 442 230 526T615 622L817 632V711Q817 878 751 949T556 1020Q472 1020 395 999T237 937L205
1021Q283 1058 372 1082T560 1106ZM816 553L626 545Q419 535 311 471T203 279Q203 176 267 121T447 66Q626 66 720 168T816 446V553ZM829 1569V1552Q805 1520 770 1480T694 1396T611 1313T530 1241H458V1258Q498 1298 546 1353T637 1466T709 1569H829Z" />
<glyph unicode="&#xe2;" horiz-adv-x="1085" d="M560 1106Q739 1106 828 1016T917 729V0H839L821 190H815Q780 129 730 82T608 7T431 -20Q326 -20 252 15T137 117T96 280Q96 442 230 526T615 622L817 632V711Q817 878 751 949T556 1020Q472 1020 395 999T237 937L205
1021Q283 1058 372 1082T560 1106ZM816 553L626 545Q419 535 311 471T203 279Q203 176 267 121T447 66Q626 66 720 168T816 446V553ZM585 1565Q610 1522 652 1466T741 1354T827 1257V1241H753Q697 1289 640 1351T536 1470Q488 1413 431 1351T318 1241H245V1257Q283
1298 330 1353T420 1465T487 1565H585Z" />
<glyph unicode="&#xe3;" horiz-adv-x="1085" d="M560 1106Q739 1106 828 1016T917 729V0H839L821 190H815Q780 129 730 82T608 7T431 -20Q326 -20 252 15T137 117T96 280Q96 442 230 526T615 622L817 632V711Q817 878 751 949T556 1020Q472 1020 395 999T237 937L205
1021Q283 1058 372 1082T560 1106ZM816 553L626 545Q419 535 311 471T203 279Q203 176 267 121T447 66Q626 66 720 168T816 446V553ZM155 1257Q160 1312 175 1353T215 1423T276 1465T353 1480Q402 1480 441 1459T515 1411T584 1362T657 1340Q703 1340 737 1369T782
1481H853Q843 1374 790 1315T653 1256Q604 1256 565 1277T492 1325T424 1374T348 1396Q303 1396 270 1367T226 1257H155Z" />
<glyph unicode="&#xe4;" horiz-adv-x="1085" d="M560 1106Q739 1106 828 1016T917 729V0H839L821 190H815Q780 129 730 82T608 7T431 -20Q326 -20 252 15T137 117T96 280Q96 442 230 526T615 622L817 632V711Q817 878 751 949T556 1020Q472 1020 395 999T237 937L205
1021Q283 1058 372 1082T560 1106ZM816 553L626 545Q419 535 311 471T203 279Q203 176 267 121T447 66Q626 66 720 168T816 446V553ZM535 1391Q535 1426 551 1447T600 1468Q636 1468 652 1447T668 1391Q668 1355 652 1334T600 1313Q568 1313 552 1334T535 1391ZM916
1391Q916 1426 932 1447T981 1468Q1016 1468 1032 1447T1049 1391Q1049 1355 1033 1334T981 1313Q949 1313 933 1334T916 1391Z" />
<glyph unicode="&#xe5;" horiz-adv-x="1085" d="M560 1106Q739 1106 828 1016T917 729V0H839L821 190H815Q780 129 730 82T608 7T431 -20Q326 -20 252 15T137 117T96 280Q96 442 230 526T615 622L817 632V711Q817 878 751 949T556 1020Q472 1020 395 999T237 937L205
1021Q283 1058 372 1082T560 1106ZM816 553L626 545Q419 535 311 471T203 279Q203 176 267 121T447 66Q626 66 720 168T816 446V553ZM535 1247Q446 1247 384 1304T322 1457Q322 1550 383 1608T535 1666Q624 1666 686 1607T748 1458Q748 1362 686 1305T535 1247ZM535
1316Q597 1316 636 1356T675 1457Q675 1518 634 1557T535 1597Q475 1597 434 1558T393 1457Q393 1397 432 1357T535 1316Z" />
<glyph unicode="&#xe6;" horiz-adv-x="1752" d="M1236 1108Q1368 1108 1458 1043T1593 865T1635 608V534H896Q896 306 993 188T1264 69Q1357 69 1429 85T1591 142V49Q1510 13 1433 -3T1262 -20Q1156 -20 1073 15T933 114T844 265Q811 179 758 115T626 16T435 -20Q329
-20 253 15T137 117T96 280Q96 388 155 461T327 574T601 622L794 632V713Q794 879 728 949T540 1020Q461 1020 384 999T226 937L194 1021Q272 1059 363 1082T546 1106Q683 1106 762 1044T867 844Q915 962 1007 1035T1236 1108ZM792 553L614 545Q415 535 309 471T203
279Q203 176 266 121T446 66Q557 66 634 112T751 244T792 446V553ZM1235 1021Q1098 1021 1006 919T899 619H1529Q1530 739 1498 829T1400 970T1235 1021Z" />
<glyph unicode="&#xe7;" horiz-adv-x="973" d="M616 -20Q454 -20 343 47T175 240T118 538Q118 717 183 844T366 1040T643 1108Q721 1108 788 1094T909 1055L882 966Q826 991 763 1004T642 1017Q508 1017 415 959T272 793T222 539Q222 402 264 297T393 131T616
70Q695 70 766 86T897 127V35Q844 11 775 -4T616 -20ZM752 -292Q752 -385 683 -438T494 -492Q459 -492 431 -489T382 -480V-407Q405 -413 433 -415T496 -418Q573 -418 619 -388T665 -295Q665 -234 614 -207T463 -175L553 0H630L568 -124Q623 -130 664 -151T729
-207T752 -292Z" />
<glyph unicode="&#xe8;" horiz-adv-x="1125" d="M592 1108Q731 1108 823 1043T961 865T1007 606V533H222Q222 309 325 189T622 69Q723 69 797 85T963 142V49Q883 13 803 -3T619 -20Q454 -20 343 48T175 242T118 534Q118 697 172 827T332 1032T592 1108ZM591 1021Q435
1021 339 918T225 619H902Q902 738 868 829T766 970T591 1021ZM440 1569Q467 1524 510 1467T602 1354T692 1258V1241H619Q580 1273 538 1313T455 1396T380 1479T321 1552V1569H440Z" />
<glyph unicode="&#xe9;" horiz-adv-x="1125" d="M592 1108Q731 1108 823 1043T961 865T1007 606V533H222Q222 309 325 189T622 69Q723 69 797 85T963 142V49Q883 13 803 -3T619 -20Q454 -20 343 48T175 242T118 534Q118 697 172 827T332 1032T592 1108ZM591 1021Q435
1021 339 918T225 619H902Q902 738 868 829T766 970T591 1021ZM869 1569V1552Q845 1520 810 1480T734 1396T651 1313T570 1241H498V1258Q538 1298 586 1353T677 1466T749 1569H869Z" />
<glyph unicode="&#xea;" horiz-adv-x="1125" d="M592 1108Q731 1108 823 1043T961 865T1007 606V533H222Q222 309 325 189T622 69Q723 69 797 85T963 142V49Q883 13 803 -3T619 -20Q454 -20 343 48T175 242T118 534Q118 697 172 827T332 1032T592 1108ZM591 1021Q435
1021 339 918T225 619H902Q902 738 868 829T766 970T591 1021ZM626 1565Q651 1522 693 1466T782 1354T868 1257V1241H794Q738 1289 681 1351T577 1470Q529 1413 472 1351T359 1241H286V1257Q324 1298 371 1353T461 1465T528 1565H626Z" />
<glyph unicode="&#xeb;" horiz-adv-x="1125" d="M592 1108Q731 1108 823 1043T961 865T1007 606V533H222Q222 309 325 189T622 69Q723 69 797 85T963 142V49Q883 13 803 -3T619 -20Q454 -20 343 48T175 242T118 534Q118 697 172 827T332 1032T592 1108ZM591 1021Q435
1021 339 918T225 619H902Q902 738 868 829T766 970T591 1021ZM576 1391Q576 1426 592 1447T641 1468Q677 1468 693 1447T709 1391Q709 1355 693 1334T641 1313Q609 1313 593 1334T576 1391ZM957 1391Q957 1426 973 1447T1022 1468Q1057 1468 1073 1447T1090 1391Q1090
1355 1074 1334T1022 1313Q990 1313 974 1334T957 1391Z" />
<glyph unicode="&#xec;" horiz-adv-x="463" d="M281 0H180V1087H281V0ZM349 1569Q376 1524 419 1467T511 1354T601 1258V1241H528Q489 1273 447 1313T364 1396T289 1479T230 1552V1569H349Z" />
<glyph unicode="&#xed;" horiz-adv-x="463" d="M281 0H180V1087H281V0ZM523 1569V1552Q499 1520 464 1480T388 1396T305 1313T224 1241H152V1258Q192 1298 240 1353T331 1466T403 1569H523Z" />
<glyph unicode="&#xee;" horiz-adv-x="463" d="M281 0H180V1087H281V0ZM280 1565Q305 1522 347 1466T436 1354T522 1257V1241H448Q392 1289 335 1351T231 1470Q183 1413 126 1351T13 1241H-60V1257Q-22 1298 25 1353T115 1465T182 1565H280Z" />
<glyph unicode="&#xef;" horiz-adv-x="463" d="M281 0H180V1087H281V0ZM-26 1391Q-26 1426 -10 1447T39 1468Q75 1468 91 1447T107 1391Q107 1355 91 1334T39 1313Q7 1313 -9 1334T-26 1391ZM355 1391Q355 1426 371 1447T420 1468Q455 1468 471 1447T488 1391Q488
1355 472 1334T420 1313Q388 1313 372 1334T355 1391Z" />
<glyph unicode="&#xf0;" horiz-adv-x="1174" d="M427 1556Q499 1523 560 1486T673 1409L902 1546L947 1478L738 1354Q841 1254 911 1131T1018 864T1055 559Q1055 388 1002 257T843 53T582 -20Q438 -20 333 39T172 208T115 465Q115 618 174 728T338 898T579 958Q667
958 732 941T844 893T925 820L931 821Q901 957 830 1084T656 1306L391 1149L345 1217L589 1360Q546 1393 493 1425T383 1483L427 1556ZM590 872Q477 872 394 824T264 684T218 462Q218 339 261 250T386 114T583 67Q763 67 857 192T952 558Q952 609 935 664T876 766T765
843T590 872Z" />
<glyph unicode="&#xf1;" horiz-adv-x="1209" d="M659 1108Q842 1108 940 1012T1038 711V0H938V705Q938 867 864 943T649 1019Q470 1019 376 915T281 599V0H180V1087H262L277 889H283Q312 950 362 999T487 1078T659 1108ZM246 1257Q251 1312 266 1353T306 1423T367
1465T444 1480Q493 1480 532 1459T606 1411T675 1362T748 1340Q794 1340 828 1369T873 1481H944Q934 1374 881 1315T744 1256Q695 1256 656 1277T583 1325T515 1374T439 1396Q394 1396 361 1367T317 1257H246Z" />
<glyph unicode="&#xf2;" horiz-adv-x="1201" d="M1082 545Q1082 419 1051 316T959 137T808 21T597 -20Q483 -20 394 20T244 136T150 314T118 545Q118 720 176 846T344 1040T607 1108Q765 1108 870 1037T1029 838T1082 545ZM222 545Q222 402 263 295T387 128T599
68Q730 68 814 128T938 296T978 545Q978 682 940 789T820 957T606 1019Q417 1019 320 893T222 545ZM461 1569Q488 1524 531 1467T623 1354T713 1258V1241H640Q601 1273 559 1313T476 1396T401 1479T342 1552V1569H461Z" />
<glyph unicode="&#xf3;" horiz-adv-x="1201" d="M1082 545Q1082 419 1051 316T959 137T808 21T597 -20Q483 -20 394 20T244 136T150 314T118 545Q118 720 176 846T344 1040T607 1108Q765 1108 870 1037T1029 838T1082 545ZM222 545Q222 402 263 295T387 128T599
68Q730 68 814 128T938 296T978 545Q978 682 940 789T820 957T606 1019Q417 1019 320 893T222 545ZM892 1569V1552Q868 1520 833 1480T757 1396T674 1313T593 1241H521V1258Q561 1298 609 1353T700 1466T772 1569H892Z" />
<glyph unicode="&#xf4;" horiz-adv-x="1201" d="M1082 545Q1082 419 1051 316T959 137T808 21T597 -20Q483 -20 394 20T244 136T150 314T118 545Q118 720 176 846T344 1040T607 1108Q765 1108 870 1037T1029 838T1082 545ZM222 545Q222 402 263 295T387 128T599
68Q730 68 814 128T938 296T978 545Q978 682 940 789T820 957T606 1019Q417 1019 320 893T222 545ZM649 1565Q674 1522 716 1466T805 1354T891 1257V1241H817Q761 1289 704 1351T600 1470Q552 1413 495 1351T382 1241H309V1257Q347 1298 394 1353T484 1465T551
1565H649Z" />
<glyph unicode="&#xf5;" horiz-adv-x="1201" d="M1082 545Q1082 419 1051 316T959 137T808 21T597 -20Q483 -20 394 20T244 136T150 314T118 545Q118 720 176 846T344 1040T607 1108Q765 1108 870 1037T1029 838T1082 545ZM222 545Q222 402 263 295T387 128T599
68Q730 68 814 128T938 296T978 545Q978 682 940 789T820 957T606 1019Q417 1019 320 893T222 545ZM220 1257Q225 1312 240 1353T280 1423T341 1465T418 1480Q467 1480 506 1459T580 1411T649 1362T722 1340Q768 1340 802 1369T847 1481H918Q908 1374 855 1315T718
1256Q669 1256 630 1277T557 1325T489 1374T413 1396Q368 1396 335 1367T291 1257H220Z" />
<glyph unicode="&#xf6;" horiz-adv-x="1201" d="M1082 545Q1082 419 1051 316T959 137T808 21T597 -20Q483 -20 394 20T244 136T150 314T118 545Q118 720 176 846T344 1040T607 1108Q765 1108 870 1037T1029 838T1082 545ZM222 545Q222 402 263 295T387 128T599
68Q730 68 814 128T938 296T978 545Q978 682 940 789T820 957T606 1019Q417 1019 320 893T222 545ZM342 1391Q342 1426 358 1447T407 1468Q443 1468 459 1447T475 1391Q475 1355 459 1334T407 1313Q375 1313 359 1334T342 1391ZM723 1391Q723 1426 739 1447T788
1468Q823 1468 839 1447T856 1391Q856 1355 840 1334T788 1313Q756 1313 740 1334T723 1391Z" />
<glyph unicode="&#xf7;" d="M109 679V766H1060V679H109ZM583 277Q546 277 527 300T507 363Q507 405 526 427T583 450Q623 450 641 428T659 363Q659 323 641 300T583 277ZM583 995Q546 995 527 1018T507 1081Q507 1123 526 1145T583 1167Q623 1167 641 1145T659
1081Q659 1041 641 1018T583 995Z" />
<glyph unicode="&#xf8;" horiz-adv-x="1201" d="M1082 545Q1082 377 1027 250T865 52T597 -20Q503 -20 428 8T296 87L180 -60L112 -10L234 147Q178 222 148 322T118 545Q118 808 247 958T607 1108Q698 1108 771 1083T898 1010L1003 1145L1073 1096L961 952Q1021
877 1051 773T1082 545ZM222 545Q222 449 240 370T294 230L842 936Q800 975 741 997T606 1019Q417 1019 320 893T222 545ZM978 545Q978 641 960 723T900 868L351 161Q395 116 457 92T599 68Q730 68 814 128T938 296T978 545Z" />
<glyph unicode="&#xf9;" horiz-adv-x="1209" d="M1025 1087V0H943L928 196H922Q894 136 843 87T718 9T546 -20Q421 -20 337 23T209 155T166 375V1087H267V385Q267 222 340 145T556 68Q676 68 757 114T881 253T924 487V1087H1025ZM466 1569Q493 1524 536 1467T628
1354T718 1258V1241H645Q606 1273 564 1313T481 1396T406 1479T347 1552V1569H466Z" />
<glyph unicode="&#xfa;" horiz-adv-x="1209" d="M1025 1087V0H943L928 196H922Q894 136 843 87T718 9T546 -20Q421 -20 337 23T209 155T166 375V1087H267V385Q267 222 340 145T556 68Q676 68 757 114T881 253T924 487V1087H1025ZM897 1569V1552Q873 1520 838 1480T762
1396T679 1313T598 1241H526V1258Q566 1298 614 1353T705 1466T777 1569H897Z" />
<glyph unicode="&#xfb;" horiz-adv-x="1209" d="M1025 1087V0H943L928 196H922Q894 136 843 87T718 9T546 -20Q421 -20 337 23T209 155T166 375V1087H267V385Q267 222 340 145T556 68Q676 68 757 114T881 253T924 487V1087H1025ZM653 1565Q678 1522 720 1466T809
1354T895 1257V1241H821Q765 1289 708 1351T604 1470Q556 1413 499 1351T386 1241H313V1257Q351 1298 398 1353T488 1465T555 1565H653Z" />
<glyph unicode="&#xfc;" horiz-adv-x="1209" d="M1025 1087V0H943L928 196H922Q894 136 843 87T718 9T546 -20Q421 -20 337 23T209 155T166 375V1087H267V385Q267 222 340 145T556 68Q676 68 757 114T881 253T924 487V1087H1025ZM347 1391Q347 1426 363 1447T412
1468Q448 1468 464 1447T480 1391Q480 1355 464 1334T412 1313Q380 1313 364 1334T347 1391ZM728 1391Q728 1426 744 1447T793 1468Q828 1468 844 1447T861 1391Q861 1355 845 1334T793 1313Q761 1313 745 1334T728 1391Z" />
<glyph unicode="&#xfd;" horiz-adv-x="940" d="M1 1087H108L372 397Q396 336 414 285T447 191T470 113H476Q491 159 516 231T573 393L834 1087H942L446 -204Q410 -298 367 -363T266 -462T126 -496Q89 -496 59 -491T1 -476V-389Q27 -397 54 -402T115 -408Q172 -408
213 -385T288 -312T350 -187L424 6L1 1087ZM760 1569V1552Q736 1520 701 1480T625 1396T542 1313T461 1241H389V1258Q429 1298 477 1353T568 1466T640 1569H760Z" />
<glyph unicode="&#xfe;" horiz-adv-x="1219" d="M1103 551Q1103 367 1048 240T892 46T649 -20Q550 -20 478 9T358 89T283 201H276Q278 167 279 126T282 44T283 -32V-481H181V1556H283V1083Q283 1042 282 980T278 876H283Q310 938 359 991T484 1076T662 1108Q872
1108 987 967T1103 551ZM999 552Q999 788 912 903T650 1019Q464 1019 375 900T284 561V542Q284 303 373 186T639 68Q755 68 835 123T957 285T999 552Z" />
<glyph unicode="&#xff;" horiz-adv-x="940" d="M1 1087H108L372 397Q396 336 414 285T447 191T470 113H476Q491 159 516 231T573 393L834 1087H942L446 -204Q410 -298 367 -363T266 -462T126 -496Q89 -496 59 -491T1 -476V-389Q27 -397 54 -402T115 -408Q172 -408
213 -385T288 -312T350 -187L424 6L1 1087ZM467 1391Q467 1426 483 1447T532 1468Q568 1468 584 1447T600 1391Q600 1355 584 1334T532 1313Q500 1313 484 1334T467 1391ZM848 1391Q848 1426 864 1447T913 1468Q948 1468 964 1447T981 1391Q981 1355 965 1334T913
1313Q881 1313 865 1334T848 1391Z" />
<glyph unicode="&#x2013;" horiz-adv-x="1024" d="M82 507V600H942V507H82Z" />
<glyph unicode="&#x2014;" horiz-adv-x="2048" d="M82 507V600H1966V507H82Z" />
<glyph unicode="&#x2018;" horiz-adv-x="297" d="M49 961L37 981Q53 1060 77 1144T132 1309T196 1462H267Q241 1388 217 1299T175 1122T148 961H49Z" />
<glyph unicode="&#x2019;" horiz-adv-x="297" d="M246 1462L260 1442Q245 1363 220 1279T165 1114T102 961H30Q50 1016 69 1080T103 1212T130 1343T149 1462H246Z" />
<glyph unicode="&#x201a;" horiz-adv-x="451" d="M285 237L299 217Q284 138 259 54T204 -111T141 -264H69Q89 -209 108 -145T142 -13T169 118T188 237H285Z" />
<glyph unicode="&#x201c;" horiz-adv-x="615" d="M585 1462Q558 1388 534 1299T492 1122T466 961H368L355 981Q369 1060 394 1144T450 1309T514 1462H585ZM267 1462Q240 1388 216 1299T174 1122T147 961H49L37 981Q53 1060 77 1144T132 1309T196 1462H267Z" />
<glyph unicode="&#x201d;" horiz-adv-x="615" d="M564 1462L578 1442Q563 1363 539 1279T483 1114T419 961H347Q374 1035 398 1123T440 1301T466 1462H564ZM246 1462L259 1442Q245 1363 220 1279T165 1114T101 961H30Q50 1016 69 1080T103 1212T130 1343T148 1462H246Z" />
<glyph unicode="&#x201e;" horiz-adv-x="768" d="M603 237L617 217Q602 138 578 54T522 -111T458 -264H386Q413 -190 437 -102T479 76T505 237H603ZM285 237L298 217Q284 138 259 54T204 -111T140 -264H69Q89 -209 108 -145T142 -13T169 118T187 237H285Z" />
<glyph unicode="&#x2022;" horiz-adv-x="770" d="M232 748Q232 808 250 847T303 907T385 927Q433 927 467 907T520 846T539 748Q539 692 521 652T468 590T385 568Q337 568 303 589T251 650T232 748Z" />
<glyph unicode="&#x2039;" horiz-adv-x="520" d="M64 572L388 966L456 923L173 560L456 197L388 154L64 545V572Z" />
<glyph unicode="&#x203a;" horiz-adv-x="520" d="M131 966L456 575V548L131 154L63 198L346 561L63 924L131 966Z" />
</font>
</defs>
</svg>
