<?xml version="1.0" standalone="no"?>
<!DOCTYPE svg PUBLIC "-//W3C//DTD SVG 1.1//EN" "http://www.w3.org/Graphics/SVG/1.1/DTD/svg11.dtd">
<svg xmlns="http://www.w3.org/2000/svg">
<defs >
<font id="OpenSans" horiz-adv-x="1106" ><font-face
    font-family="Open Sans Light"
    units-per-em="2048"
    panose-1="0 0 0 0 0 0 0 0 0 0"
    ascent="2189"
    descent="-600"
    alphabetic="0" />
<glyph unicode=" " horiz-adv-x="532" />
<glyph unicode="!" horiz-adv-x="470" d="M158 377L373 1462H492L243 377H158ZM127 -21Q94 -21 76 -3T57 49Q57 91 80 126T153 162Q186 162 203 143T220 93Q220 53 197 16T127 -21Z" />
<glyph unicode="&quot;" horiz-adv-x="698" d="M533 934L625 1462H735L602 934H533ZM224 934L317 1462H427L293 934H224Z" />
<glyph unicode="#" horiz-adv-x="1282" d="M211 0L340 451H68L75 533H362L479 927H193L200 1007H501L632 1462H719L589 1007H938L1070 1462H1154L1023 1007H1301L1293 927H1000L889 533H1178L1171 451H867L734 0H645L781 451H428L296 0H211ZM450 533H803L913 927H565L450
533Z" />
<glyph unicode="$" horiz-adv-x="1127" d="M372 -119L421 102Q323 104 236 123T91 167V264Q159 233 249 213T440 190L551 711Q466 743 402 782T302 880T266 1024Q266 1139 324 1215T479 1332T692 1380L729 1552H809L774 1380Q850 1374 923 1357T1060 1308L1020
1223Q957 1254 891 1271T756 1293L645 774Q734 738 799 700T900 609T936 470Q936 357 877 278T718 156T501 103L452 -119H372ZM521 192Q606 199 678 231T794 322T838 462Q838 519 813 557T740 624T624 682L521 192ZM570 802L674 1293Q586 1287 516 1255T405 1166T364
1028Q364 967 390 926T463 856T570 802Z" />
<glyph unicode="%" horiz-adv-x="1590" d="M241 0L1322 1462H1420L339 0H241ZM390 565Q287 565 229 635T171 846Q171 912 183 996T222 1165T293 1322T401 1439T551 1483Q658 1483 714 1415T770 1213Q770 1150 758 1067T719 896T648 733T540 612T390 565ZM397 648Q461
648 507 688T587 795T640 936T670 1083T679 1205Q679 1308 646 1354T545 1401Q482 1401 435 1362T354 1260T301 1122T271 975T261 849Q261 746 296 697T397 648ZM1106 -23Q1002 -23 945 46T887 257Q887 323 899 407T937 576T1008 734T1116 850T1266 895Q1373 895
1429 827T1486 625Q1486 563 1474 479T1435 307T1364 145T1256 24T1106 -23ZM1113 60Q1176 60 1223 101T1303 207T1357 348T1386 495T1396 617Q1396 719 1362 766T1260 813Q1197 813 1151 774T1071 671T1018 533T988 387T978 261Q978 159 1013 110T1113 60Z" />
<glyph unicode="&amp;" horiz-adv-x="1390" d="M452 -20Q292 -20 189 67T85 316Q85 442 139 530T290 685T518 810Q461 889 428 965T394 1122Q394 1227 440 1308T570 1437T771 1485Q857 1485 923 1450T1028 1354T1066 1211Q1066 1099 1010 1025T860 895T649 785L975
328Q1048 396 1109 488T1212 680H1315Q1279 596 1234 522T1138 382T1029 257L1214 0H1094L959 194Q853 101 736 41T452 -20ZM468 68Q562 68 637 92T778 161T909 262L564 745Q455 695 370 639T236 508T187 323Q187 242 224 185T326 98T468 68ZM603 849Q661 876 724
907T842 980T931 1077T966 1206Q966 1292 908 1345T762 1398Q685 1398 624 1365T528 1271T493 1123Q493 1053 520 988T603 849Z" />
<glyph unicode="&apos;" horiz-adv-x="389" d="M224 934L317 1462H427L293 934H224Z" />
<glyph unicode="(" horiz-adv-x="533" d="M210 -324Q166 -244 135 -153T88 41T72 253Q72 438 108 608T210 930T369 1216T574 1462H680Q563 1344 469 1205T308 912T206 593T170 254Q170 144 184 43T228 -150T300 -324H210Z" />
<glyph unicode=")" horiz-adv-x="533" d="M-140 -324Q-23 -205 71 -67T232 226T334 545T370 885Q370 995 356 1096T312 1288T241 1462H330Q374 1383 404 1292T451 1098T468 885Q468 699 432 530T330 208T171 -78T-35 -324H-140Z" />
<glyph unicode="*" horiz-adv-x="1103" d="M792 663L651 1056L366 749L295 822L609 1097L241 1262L281 1354L642 1147L706 1555L807 1534L699 1134L1117 1177L1113 1077L711 1076L890 697L792 663Z" />
<glyph unicode="+" horiz-adv-x="1169" d="M668 766H1100V679H668V243H581V679H150V766H581V1203H668V766Z" />
<glyph unicode="," horiz-adv-x="431" d="M-90 -264Q-45 -172 -8 -86T62 82T120 238H228L232 214Q202 139 163 56T80 -109T-10 -264H-90Z" />
<glyph unicode="-" horiz-adv-x="640" d="M69 506L89 601H566L546 506H69Z" />
<glyph unicode="." horiz-adv-x="465" d="M126 -21Q93 -21 75 -3T57 48Q57 90 80 126T154 162Q186 162 203 143T220 93Q220 52 197 16T126 -21Z" />
<glyph unicode="/" horiz-adv-x="665" d="M-90 0L734 1462H840L16 0H-90Z" />
<glyph unicode="0" horiz-adv-x="1127" d="M483 -20Q318 -20 223 97T128 439Q128 547 142 666T188 902T267 1124T382 1310T536 1438T731 1485Q822 1485 888 1455T999 1368T1064 1231T1086 1048Q1086 923 1070 796T1021 549T939 326T822 145T671 24T483 -20ZM492
69Q573 69 640 110T762 225T858 393T927 598T968 822T982 1047Q982 1212 920 1303T726 1395Q641 1395 572 1353T447 1236T351 1067T284 864T244 649T231 440Q231 256 299 163T492 69Z" />
<glyph unicode="1" horiz-adv-x="1127" d="M448 0L673 1060Q686 1121 698 1174T722 1272T741 1348Q713 1322 684 1301T612 1252L371 1093L322 1170L771 1462H862L551 0H448Z" />
<glyph unicode="2" horiz-adv-x="1127" d="M15 0L33 87L545 550Q626 624 699 694T828 836T917 988T950 1161Q950 1268 884 1330T704 1393Q646 1393 590 1378T477 1334T364 1263L315 1335Q412 1409 512 1446T712 1483Q818 1483 894 1444T1012 1334T1054 1172Q1054
1041 1000 932T847 717T612 492L169 98V94H897L879 0H15Z" />
<glyph unicode="3" horiz-adv-x="1127" d="M430 -20Q308 -20 212 4T45 65V165Q113 127 216 98T432 68Q531 68 610 94T744 168T829 280T858 426Q858 522 816 586T696 682T511 714H362L379 802H531Q611 802 689 824T831 890T933 1002T972 1162Q972 1268 902 1331T720
1394Q616 1394 521 1359T330 1259L282 1334Q376 1400 486 1441T727 1483Q834 1483 912 1444T1032 1333T1075 1170Q1075 1057 1025 972T891 832T702 759V753Q820 731 892 647T964 429Q964 335 929 254T826 111T659 15T430 -20Z" />
<glyph unicode="4" horiz-adv-x="1127" d="M644 0L723 373H24L41 457L936 1467H1053L842 465H1088L1068 373H821L742 0H644ZM158 465H742L853 986Q871 1067 885 1131T914 1251T942 1357H937Q903 1310 866 1263T782 1165L158 465Z" />
<glyph unicode="5" horiz-adv-x="1127" d="M417 -20Q349 -20 286 -10T170 19T77 63V167Q140 124 231 96T420 68Q521 68 605 96T750 180T844 314T877 497Q877 634 796 715T565 796Q486 796 425 785T291 753L243 793L441 1462H1099L1080 1368H510L355 850Q400 862
456 872T590 882Q708 882 796 836T933 705T982 507Q982 389 943 293T831 126T653 18T417 -20Z" />
<glyph unicode="6" horiz-adv-x="1127" d="M516 -20Q387 -20 303 36T177 194T135 428Q135 535 157 655T221 895T325 1120T464 1304Q526 1366 599 1406T754 1465T923 1485Q977 1485 1028 1478T1114 1459L1093 1368Q1060 1380 1015 1388T915 1396Q772 1396 647 1328T423
1105T264 693H270Q308 749 366 797T501 876T675 907Q829 907 921 810T1013 549Q1013 432 976 329T873 148T716 25T516 -20ZM522 68Q611 68 683 108T805 216T883 369T911 542Q911 676 842 748T647 820Q545 820 462 776T324 668T254 544Q249 525 245 503T239 457T237
408Q237 348 250 288T296 178T383 98T522 68Z" />
<glyph unicode="7" horiz-adv-x="1127" d="M208 0L1020 1371H246L264 1462H1151L1137 1387L322 0H208Z" />
<glyph unicode="8" horiz-adv-x="1127" d="M493 -20Q370 -20 281 26T143 151T94 332Q94 453 150 536T305 677T530 777Q473 815 426 860T350 965T321 1106Q321 1223 376 1307T525 1438T739 1484Q854 1484 933 1442T1053 1330T1095 1178Q1095 1069 1044 992T906
860T715 763Q790 722 850 673T945 557T980 391Q980 267 919 175T747 31T493 -20ZM501 68Q609 68 694 106T828 217T877 390Q877 475 845 532T754 635T616 724Q503 689 408 643T256 524T198 336Q198 210 284 139T501 68ZM634 812Q741 851 821 900T947 1015T993 1171Q993
1275 920 1335T732 1395Q643 1395 573 1362T461 1264T420 1106Q420 1002 480 934T634 812Z" />
<glyph unicode="9" horiz-adv-x="1127" d="M338 -20Q271 -20 208 -11T96 13V111Q142 94 206 82T340 70Q437 70 526 109T693 230T833 444T939 759H933Q898 706 842 660T711 584T543 555Q434 555 356 600T236 726T195 915Q195 1011 219 1096T288 1252T395 1374T533
1454T695 1483Q821 1483 904 1427T1029 1271T1070 1036Q1070 926 1047 802T980 555T878 327T745 149Q700 104 651 72T551 20T446 -10T338 -20ZM558 642Q657 642 738 681T875 783T952 918Q961 947 965 979T969 1052Q969 1143 942 1221T854 1346T692 1394Q599 1394
526 1355T401 1249T323 1097T296 919Q296 789 366 716T558 642Z" />
<glyph unicode=":" horiz-adv-x="465" d="M317 920Q285 920 266 938T247 988Q247 1017 258 1043T290 1086T345 1103Q377 1103 394 1085T411 1034Q411 993 388 957T317 920ZM126 -21Q93 -21 75 -3T57 48Q57 90 80 126T154 162Q186 162 203 143T220 93Q220 52 197
16T126 -21Z" />
<glyph unicode=";" horiz-adv-x="465" d="M-95 -264Q-50 -172 -13 -86T57 82T115 238H223L228 214Q197 139 158 56T75 -109T-14 -264H-95ZM315 920Q283 920 265 938T246 988Q246 1017 256 1043T289 1086T344 1103Q376 1103 393 1085T410 1034Q410 993 386 957T315 920Z" />
<glyph unicode="&lt;" horiz-adv-x="1169" d="M1099 266L151 700V762L1099 1217V1124L268 733L1099 359V266Z" />
<glyph unicode="=" horiz-adv-x="1169" d="M155 886V972H1095V886H155ZM155 472V558H1095V472H155Z" />
<glyph unicode="&gt;" horiz-adv-x="1169" d="M151 359L982 733L151 1124V1217L1099 762V700L151 266V359Z" />
<glyph unicode="?" horiz-adv-x="846" d="M253 377Q271 484 304 552T391 672T517 783Q585 835 646 885T747 999T786 1155Q786 1265 721 1328T545 1392Q478 1392 408 1373T265 1320L228 1401Q315 1442 395 1462T552 1483Q707 1483 797 1397T888 1165Q888 1063 850
989T743 852T585 724Q515 673 467 629T387 526T338 377H253ZM232 -21Q200 -21 182 -3T163 48Q163 90 186 126T260 162Q292 162 309 143T326 93Q326 52 303 16T232 -21Z" />
<glyph unicode="@" horiz-adv-x="1719" d="M776 -185Q637 -185 517 -142T305 -12T163 202T111 499Q111 643 151 782T269 1042T463 1255T729 1399T1064 1451Q1258 1451 1392 1374T1595 1160T1664 848Q1664 742 1644 648T1585 475T1495 339T1378 250T1241 218Q1143
218 1100 271T1054 417H1048Q997 326 919 272T736 218Q630 218 564 287T497 485Q497 583 523 668T597 822T708 942T848 1018T1006 1045Q1086 1045 1150 1030T1265 994L1181 674Q1158 592 1145 537T1132 441Q1132 375 1159 337T1246 299Q1299 299 1348 327T1438
406T1509 525T1556 674T1573 842Q1573 996 1516 1115T1343 1301T1051 1369Q891 1369 759 1324T523 1198T349 1009T242 771T205 503Q205 303 281 169T488 -33T784 -101Q887 -101 992 -82T1194 -26V-108Q1098 -146 993 -165T776 -185ZM752 299Q871 299 954 394T1084
656L1159 936Q1127 948 1086 957T994 966Q913 966 840 931T711 833T623 682T590 491Q590 395 634 347T752 299Z" />
<glyph unicode="A" horiz-adv-x="1132" d="M-107 0L725 1464H828L1032 0H932L859 518H298L6 0H-107ZM348 611H847L779 1108Q773 1161 767 1225T756 1347H751Q724 1289 693 1228T628 1105L348 611Z" />
<glyph unicode="B" horiz-adv-x="1227" d="M95 0L405 1462H778Q918 1462 1010 1427T1149 1323T1195 1153Q1195 1048 1154 968T1036 837T854 767L853 761Q966 733 1029 656T1093 456Q1093 301 1018 200T812 50T514 0H95ZM217 91H532Q660 91 762 129T925 249T986
456Q986 590 898 656T642 722H351L217 91ZM370 812H668Q791 812 885 847T1034 956T1089 1145Q1089 1256 1010 1313T762 1371H489L370 812Z" />
<glyph unicode="C" horiz-adv-x="1212" d="M668 -20Q508 -20 396 49T223 246T163 545Q163 700 199 840T303 1097T469 1301T689 1435T955 1483Q1054 1483 1137 1464T1295 1405L1253 1316Q1187 1354 1113 1372T955 1390Q831 1390 725 1348T535 1229T391 1047T301
815T269 549Q269 328 378 200T681 72Q778 72 863 89T1024 132V42Q951 15 865 -2T668 -20Z" />
<glyph unicode="D" horiz-adv-x="1378" d="M95 0L405 1462H720Q994 1462 1149 1317T1304 873Q1304 733 1269 603T1163 363T986 172T737 46T417 0H95ZM217 91H422Q575 91 698 131T914 244T1070 415T1165 630T1197 874Q1197 1132 1066 1251T699 1371H489L217 91Z" />
<glyph unicode="E" horiz-adv-x="1080" d="M95 0L405 1462H1141L1122 1369H489L370 815H966L947 722H351L217 93H851L832 0H95Z" />
<glyph unicode="F" horiz-adv-x="989" d="M95 0L405 1462H1142L1124 1369H489L356 746H955L934 653H336L198 0H95Z" />
<glyph unicode="G" horiz-adv-x="1404" d="M690 -20Q438 -20 301 130T163 541Q163 708 202 853T312 1114T482 1312T697 1439T945 1483Q1067 1483 1168 1460T1360 1397L1319 1305Q1237 1343 1142 1366T943 1390Q805 1390 683 1330T468 1158T322 891T269 545Q269
394 321 289T469 128T698 72Q795 72 886 90T1044 135L1154 645H790L810 737H1277L1132 67Q1034 25 921 3T690 -20Z" />
<glyph unicode="H" horiz-adv-x="1394" d="M96 0L406 1462H509L371 814H1151L1289 1462H1390L1081 0H979L1132 720H351L199 0H96Z" />
<glyph unicode="I" horiz-adv-x="508" d="M94 0L406 1462H506L195 0H94Z" />
<glyph unicode="J" horiz-adv-x="505" d="M-174 -368Q-221 -368 -266 -361T-337 -343L-334 -252Q-298 -263 -256 -268T-174 -274Q-97 -274 -43 -243T45 -151T98 -5L410 1462H513L199 -18Q174 -139 124 -216T0 -331T-174 -368Z" />
<glyph unicode="K" horiz-adv-x="1127" d="M95 0L405 1462H507L345 697L465 814L1175 1462H1305L624 837L1011 0H898L545 773L323 591L198 0H95Z" />
<glyph unicode="L" horiz-adv-x="996" d="M95 0L405 1462H507L217 94H849L829 0H95Z" />
<glyph unicode="M" horiz-adv-x="1678" d="M94 0L404 1462H549L753 160H760L1514 1462H1673L1366 0H1264L1495 1096Q1505 1143 1515 1186T1536 1271T1556 1349H1552L766 0H686L475 1350H468Q463 1313 457 1271T442 1185T425 1094L194 0H94Z" />
<glyph unicode="N" horiz-adv-x="1406" d="M94 0L404 1462H502L1032 164H1036Q1045 216 1056 276T1079 399T1103 516L1305 1462H1403L1094 0H995L464 1298H460Q453 1258 445 1215T429 1126T411 1034T393 940L194 0H94Z" />
<glyph unicode="O" horiz-adv-x="1470" d="M686 -20Q503 -20 387 56T217 262T163 558Q163 676 183 789T244 1007T344 1198T485 1349T665 1449T885 1485Q1120 1485 1257 1340T1395 911Q1395 814 1379 708T1327 498T1237 300T1103 135T921 22T686 -20ZM690 72Q796
72 881 109T1033 211T1148 359T1227 536T1273 726T1288 912Q1288 1136 1185 1264T877 1392Q771 1392 685 1358T531 1262T414 1120T333 946T286 755T270 561Q270 415 315 305T454 134T690 72Z" />
<glyph unicode="P" horiz-adv-x="1150" d="M95 0L405 1462H727Q870 1462 964 1419T1104 1294T1150 1094Q1150 982 1114 892T1003 738T818 640T556 605H326L198 0H95ZM346 695H571Q731 695 836 742T993 878T1045 1091Q1045 1238 960 1304T711 1371H489L346 695Z" />
<glyph unicode="Q" horiz-adv-x="1470" d="M923 -348L698 -19Q692 -20 687 -20T675 -20Q500 -18 387 56T218 260T163 558Q163 676 183 789T244 1007T344 1198T485 1349T665 1449T885 1485Q1120 1485 1257 1340T1395 911Q1395 806 1375 689T1313 458T1202 247T1036
83T808 -6L1056 -348H923ZM690 72Q797 72 882 109T1034 211T1149 359T1227 536T1273 726T1288 912Q1288 1136 1185 1264T877 1392Q771 1392 685 1358T531 1262T414 1120T333 946T286 755T270 561Q270 415 315 305T454 134T690 72Z" />
<glyph unicode="R" horiz-adv-x="1159" d="M95 0L405 1462H714Q931 1462 1041 1375T1151 1112Q1151 991 1108 900T978 747T759 658L999 0H886L662 636H333L198 0H95ZM352 727H606Q705 727 785 750T924 821T1014 939T1046 1106Q1046 1244 961 1307T699 1371H489L352 727Z" />
<glyph unicode="S" horiz-adv-x="1025" d="M396 -20Q273 -20 190 -2T39 47V152Q107 118 195 95T397 71Q465 71 534 88T662 144T756 242T792 389Q792 468 758 524T659 625T503 717Q432 756 370 803T269 917T231 1076Q231 1182 270 1259T377 1385T529 1459T702 1483Q814
1483 894 1462T1050 1403L1010 1313Q938 1349 865 1369T700 1390Q639 1390 576 1374T458 1321T371 1227T338 1083Q338 1006 370 955T456 867T576 793Q668 743 741 692T856 571T899 395Q899 285 857 206T742 77T581 4T396 -20Z" />
<glyph unicode="T" horiz-adv-x="1005" d="M336 0L627 1369H188L208 1462H1190L1171 1369H731L441 0H336Z" />
<glyph unicode="U" horiz-adv-x="1405" d="M614 -20Q475 -20 377 26T226 161T173 379Q173 413 178 454T193 542L389 1462H492L297 541Q288 499 283 457T278 382Q278 233 368 153T619 72Q752 72 850 122T1013 271T1111 521L1313 1462H1415L1214 509Q1176 332 1097
215T897 39T614 -20Z" />
<glyph unicode="V" horiz-adv-x="1109" d="M380 0L206 1462H306L432 388Q437 344 441 298T448 208T452 125H456Q474 163 493 203T537 288T589 386L1162 1462H1275L484 0H380Z" />
<glyph unicode="W" horiz-adv-x="1715" d="M310 0L242 1462H340L386 433Q389 364 389 292T387 151H393Q419 216 448 287T517 440L1004 1462H1106L1167 441Q1172 369 1173 290T1175 146H1181Q1197 188 1214 234T1251 328T1293 429L1756 1462H1865L1199 0H1100L1036
1096Q1034 1136 1032 1174T1030 1250T1029 1323H1024Q1005 1269 986 1224T940 1120L409 0H310Z" />
<glyph unicode="X" horiz-adv-x="1030" d="M-116 0L505 767L235 1462H338L574 838L1075 1462H1190L620 760L915 0H807L549 685L1 0H-116Z" />
<glyph unicode="Y" horiz-adv-x="1012" d="M337 0L455 553L194 1462H297L523 659L1084 1462H1202L558 555L442 0H337Z" />
<glyph unicode="Z" horiz-adv-x="1097" d="M-18 0L-3 77L1022 1368H301L321 1462H1171L1156 1385L132 94H904L885 0H-18Z" />
<glyph unicode="[" horiz-adv-x="611" d="M-18 -324L362 1462H757L736 1372H441L100 -233H398L377 -324H-18Z" />
<glyph unicode="\" horiz-adv-x="665" d="M456 0L209 1462H301L547 0H456Z" />
<glyph unicode="]" horiz-adv-x="611" d="M-147 -324L-128 -233H168L508 1372H210L231 1462H627L246 -324H-147Z" />
<glyph unicode="^" horiz-adv-x="1143" d="M93 561L655 1473H724L1055 561H963L684 1359L194 561H93Z" />
<glyph unicode="_" horiz-adv-x="779" d="M-179 -293L-160 -208H619L601 -293H-179Z" />
<glyph unicode="`" horiz-adv-x="503" d="M509 1241Q474 1279 433 1336T355 1451T300 1548V1569H408Q427 1518 455 1462T514 1354T570 1266V1241H509Z" />
<glyph unicode="a" horiz-adv-x="1136" d="M400 -20Q306 -20 239 26T137 157T102 361Q102 470 125 577T194 779T306 949T458 1065T647 1108Q734 1108 792 1072T883 980T931 869H938L996 1087H1076L846 0H764L809 254H804Q765 193 705 130T567 23T400 -20ZM427
68Q513 68 601 130T760 300T860 543Q874 604 879 651T885 738Q885 870 823 944T653 1019Q569 1019 499 982T375 880T284 731T226 552T206 360Q206 222 262 145T427 68Z" />
<glyph unicode="b" horiz-adv-x="1171" d="M512 -20Q420 -20 358 14T259 103T207 218H201L143 0H63L392 1556H493L405 1141Q393 1088 380 1030T353 919T331 833H336Q379 899 439 962T577 1066T751 1107Q847 1107 917 1062T1025 931T1064 727Q1064 619 1041 512T974
310T864 140T709 23T512 -20ZM509 68Q597 68 668 105T793 208T885 359T941 538T960 728Q960 866 899 942T723 1019Q659 1019 600 993T488 920T392 810T318 671T269 514T252 349Q252 212 321 140T509 68Z" />
<glyph unicode="c" horiz-adv-x="927" d="M506 -20Q381 -20 292 31T156 176T108 394Q108 508 132 614T205 810T322 966T482 1070T681 1108Q751 1108 819 1095T940 1058L911 969Q864 992 803 1005T681 1019Q574 1019 487 971T339 836T244 638T211 397Q211 302 245
228T348 111T514 68Q587 68 650 85T776 132V41Q724 15 657 -2T506 -20Z" />
<glyph unicode="d" horiz-adv-x="1171" d="M406 -20Q307 -20 239 25T137 156T102 361Q102 468 125 575T192 778T303 948T457 1064T654 1107Q746 1107 808 1072T906 982T957 869H963Q970 915 977 961T994 1053T1013 1144L1101 1556H1201L871 0H787L832 257H826Q781
189 719 126T579 21T406 -20ZM432 68Q489 68 547 92T658 161T758 268T839 405T893 564T913 738Q913 875 845 947T657 1019Q569 1019 498 982T373 878T281 728T225 549T206 360Q206 220 262 144T432 68Z" />
<glyph unicode="e" horiz-adv-x="1012" d="M501 -20Q394 -20 307 25T168 162T116 395Q116 538 157 666T272 893T447 1050T669 1108Q799 1108 872 1042T946 866Q946 773 900 705T765 593T555 527T282 505H226Q223 485 221 456T219 398Q219 239 298 154T519 68Q603
68 673 90T804 141V50Q747 21 670 1T501 -20ZM241 592H308Q461 592 582 619T775 706T846 859Q846 929 800 974T660 1020Q574 1020 489 970T338 824T241 592Z" />
<glyph unicode="f" horiz-adv-x="582" d="M-127 -492Q-160 -492 -196 -486T-254 -471V-381Q-226 -391 -195 -397T-134 -403Q-61 -403 -18 -348T48 -190L300 1004H110L120 1060L318 1089L348 1230Q367 1317 396 1380T467 1485T566 1547T699 1567Q748 1567 793 1558T869
1535L841 1452Q810 1465 775 1472T701 1480Q593 1480 535 1421T448 1225L419 1087H660L644 1004H402L146 -202Q125 -299 89 -363T-1 -460T-127 -492Z" />
<glyph unicode="g" horiz-adv-x="1050" d="M317 -492Q132 -492 27 -420T-79 -217Q-79 -99 -3 -16T225 117Q189 137 171 169T153 241Q153 302 198 351T331 438Q262 476 226 548T192 704Q194 801 229 878T326 1010Q380 1056 451 1081T607 1107Q642 1107 675 1102T739
1086H1106L1089 1010L844 1000Q876 963 892 912T907 798Q905 707 875 632T789 504Q736 455 661 428T490 400Q466 400 445 402T406 409Q319 382 282 339T245 256Q245 218 271 194Q289 179 318 169T391 156L513 145Q628 134 704 102T819 14T858 -118Q858 -222 808
-296T672 -416Q599 -454 508 -473T317 -492ZM327 -412Q421 -412 496 -395T627 -345Q693 -308 727 -253T762 -130Q762 -93 751 -65T718 -16Q683 19 622 38T473 64L306 79Q207 54 143 12T48 -85T17 -208Q17 -311 100 -361T327 -412ZM502 476Q598 476 666 518T773
634T812 801Q814 855 800 897T756 969Q729 998 689 1013T597 1029Q526 1029 469 1005T372 937T310 834T287 705Q287 658 297 620T327 554Q382 476 502 476Z" />
<glyph unicode="h" horiz-adv-x="1153" d="M63 0L392 1556H493L405 1146Q394 1095 382 1041T356 935T331 833H337Q374 894 433 957T573 1063T756 1107Q844 1107 905 1077T1000 986T1033 836Q1033 803 1028 766T1014 688L868 0H767L915 700Q924 738 927 769T931
825Q931 923 880 971T733 1019Q636 1019 543 958T378 786T275 528L164 0H63Z" />
<glyph unicode="i" horiz-adv-x="463" d="M63 0L293 1087H394L164 0H63ZM406 1324Q376 1324 358 1340T339 1388Q339 1413 348 1436T377 1473T423 1488Q456 1488 471 1471T486 1426Q486 1385 463 1355T406 1324Z" />
<glyph unicode="j" horiz-adv-x="463" d="M-159 -492Q-191 -492 -224 -486T-279 -471V-381Q-254 -392 -222 -397T-162 -403Q-112 -403 -76 -380T-17 -311T21 -200L293 1087H393L119 -212Q100 -302 65 -364T-24 -459T-159 -492ZM405 1324Q376 1324 358 1340T339
1388Q339 1413 348 1436T377 1473T423 1488Q456 1488 471 1471T486 1426Q486 1385 463 1355T405 1324Z" />
<glyph unicode="k" horiz-adv-x="942" d="M62 0L391 1556H493L341 843Q324 760 308 695T279 576T252 474H255L891 1087H1014L523 616L828 0H716L448 552L240 369L164 0H62Z" />
<glyph unicode="l" horiz-adv-x="463" d="M62 0L392 1556H493L163 0H62Z" />
<glyph unicode="m" horiz-adv-x="1750" d="M63 0L293 1087H377L332 834H338Q372 894 425 957T553 1064T724 1108Q854 1108 911 1031T969 826H973Q1009 891 1065 956T1199 1064T1372 1108Q1495 1108 1562 1040T1630 841Q1630 804 1625 766T1611 688L1466 0H1364L1513
700Q1522 738 1525 770T1529 829Q1529 924 1481 971T1345 1019Q1278 1019 1213 983T1090 882T991 730T927 538L813 0H712L857 681Q867 725 871 764T875 830Q875 919 830 969T696 1019Q629 1019 564 984T441 882T341 727T275 528L164 0H63Z" />
<glyph unicode="n" horiz-adv-x="1153" d="M60 0L291 1089H379L335 836H338Q374 896 433 959T573 1066T756 1110Q845 1110 907 1079T1002 988T1035 841Q1035 804 1030 764T1016 687L870 0H764L913 701Q921 739 925 770T929 828Q929 924 878 970T733 1017Q636 1017
544 956T380 785T278 528L165 0H60Z" />
<glyph unicode="o" horiz-adv-x="1155" d="M493 -18Q367 -18 281 34T152 180T108 398Q108 517 133 623T207 817T324 970T479 1070T666 1106Q790 1106 875 1053T1004 907T1049 690Q1049 580 1026 476T956 282T843 125T688 20T493 -18ZM502 69Q582 69 650 99T773
186T866 320T925 494T945 699Q945 787 915 859T824 975T665 1018Q585 1018 516 989T391 905T294 773T233 601T211 395Q211 244 284 157T502 69Z" />
<glyph unicode="p" horiz-adv-x="1171" d="M-39 -481L293 1087H377L332 833H338Q380 901 440 963T579 1066T752 1107Q848 1107 917 1062T1025 931T1064 726Q1064 618 1041 512T974 310T863 140T709 23T512 -20Q420 -20 358 14T260 103T207 218H201Q194 163 182
96T158 -26L61 -481H-39ZM509 68Q597 68 668 105T793 208T885 359T941 538T960 728Q960 866 899 942T723 1019Q662 1019 604 994T493 922T396 812T320 675T270 517T252 349Q252 212 321 140T509 68Z" />
<glyph unicode="q" horiz-adv-x="1171" d="M669 -481L765 -29Q773 7 785 58T810 162T834 262H829Q788 196 725 131T581 23T408 -20Q309 -20 241 25T137 156T102 361Q102 467 125 574T192 778T304 948T459 1065T656 1108Q747 1108 808 1073T906 983T957 869H963L1023
1087H1102L769 -481H669ZM434 68Q493 68 551 93T662 165T761 274T840 412T893 569T912 738Q912 872 845 945T659 1019Q571 1019 500 982T373 878T281 728T225 549T206 360Q206 222 260 145T434 68Z" />
<glyph unicode="r" horiz-adv-x="779" d="M63 0L293 1087H377L333 834H339Q375 892 429 955T554 1062T715 1106Q747 1106 778 1102T835 1089L813 998Q790 1004 764 1008T706 1012Q633 1012 564 973T437 866T338 712T275 529L164 0H63Z" />
<glyph unicode="s" horiz-adv-x="873" d="M329 -20Q225 -20 148 3T20 53V154Q77 120 158 94T328 67Q429 67 492 95T585 172T616 287Q616 345 589 384T514 454T402 521Q331 561 275 600T187 689T155 813Q155 911 202 976T332 1074T517 1108Q614 1108 692 1088T827
1041L794 955Q742 981 671 1000T516 1019Q403 1019 330 970T256 819Q256 768 281 732T354 665T466 600Q533 562 591 523T684 431T720 294Q720 201 677 130T546 20T329 -20Z" />
<glyph unicode="t" horiz-adv-x="651" d="M329 -20Q225 -20 167 31T109 187Q109 215 113 248T125 316L270 1004H108L121 1063L289 1096L379 1349H446L390 1087H702L684 1004H372L227 319Q220 287 216 256T211 198Q211 138 241 103T341 67Q386 67 422 74T494 93V10Q464
-1 422 -10T329 -20Z" />
<glyph unicode="u" horiz-adv-x="1153" d="M388 -20Q302 -20 240 10T146 101T113 248Q113 283 118 321T131 399L277 1087H379L230 387Q222 349 218 318T214 260Q214 163 265 116T413 68Q510 68 603 129T768 301T871 560L983 1087H1083L852 0H768L813 254H807Q771
195 712 132T572 24T388 -20Z" />
<glyph unicode="v" horiz-adv-x="883" d="M253 0L100 1087H202L300 360Q307 312 312 264T320 173T325 98H330Q350 137 372 181T417 272T465 362L874 1087H983L369 0H253Z" />
<glyph unicode="w" horiz-adv-x="1389" d="M172 0L113 1087H212L246 391Q251 300 251 233T249 113H254Q269 149 286 190T326 277T376 378L731 1087H830L893 391Q898 314 901 244T905 113H910Q924 153 941 197T982 293T1033 409L1350 1087H1456L945 0H834L771 721Q767
763 765 800T762 877T760 965H755Q738 923 722 886T688 812T647 728L281 0H172Z" />
<glyph unicode="x" horiz-adv-x="953" d="M-71 0L414 561L171 1087H278L481 632L873 1087H992L526 556L788 0H681L459 483L49 0H-71Z" />
<glyph unicode="y" horiz-adv-x="883" d="M-92 -496Q-135 -496 -163 -491T-218 -475V-387Q-193 -396 -163 -402T-94 -408Q-16 -408 43 -353T168 -185L276 3L100 1087H202L304 428Q314 364 321 303T333 190T339 103H345Q359 134 383 183T436 289T496 401L874 1087H983L257
-217Q207 -306 156 -368T45 -463T-92 -496Z" />
<glyph unicode="z" horiz-adv-x="900" d="M-30 0L-17 68L754 1005H215L233 1087H895L881 1014L111 83H707L691 0H-30Z" />
<glyph unicode="{" horiz-adv-x="688" d="M421 -324Q279 -324 211 -274T143 -113Q143 -86 147 -58T159 1L224 298Q231 326 234 350T238 395Q238 465 191 498T43 531L63 618Q185 618 248 668T338 840L410 1181Q432 1281 477 1342T597 1432T775 1462H796L778 1374Q664
1374 597 1328T504 1167L432 829Q409 725 358 657T207 571V567Q272 548 302 504T332 392Q332 368 329 340T318 283L255 -9Q249 -34 246 -58T242 -101Q242 -182 290 -208T442 -235V-324H421Z" />
<glyph unicode="|" horiz-adv-x="1108" d="M561 -494V1556H648V-494H561Z" />
<glyph unicode="}" horiz-adv-x="688" d="M-92 -325L-86 -237Q-8 -236 49 -216T142 -151T195 -29L268 308Q290 412 342 480T492 565V569Q428 590 398 634T367 745Q367 769 371 796T381 853L445 1146Q452 1172 455 1195T459 1237Q459 1319 409 1346T250 1373L261
1461H276Q372 1461 434 1439T526 1371T556 1249Q556 1224 552 1196T540 1136L475 839Q468 811 464 788T460 743Q460 672 508 640T656 607L636 519Q556 519 501 498T413 427T362 298L289 -43Q267 -146 220 -208T99 -298T-79 -325H-92Z" />
<glyph unicode="~" horiz-adv-x="1169" d="M608 682Q547 712 499 727T388 743Q330 743 268 714T151 627V727Q199 775 261 802T393 829Q469 829 524 812T650 762Q713 734 761 718T865 702Q922 702 982 730T1099 817V720Q1056 674 996 645T861 616Q793 616 738 632T608
682Z" />
<glyph unicode="&#xa0;" horiz-adv-x="532" />
<glyph unicode="&#xa1;" horiz-adv-x="470" d="M-14 -373L239 707H316L104 -373H-14ZM327 923Q292 923 275 941T258 990Q258 1033 282 1069T354 1106Q385 1106 403 1088T421 1036Q421 1010 411 984T380 940T327 923Z" />
<glyph unicode="&#xa2;" horiz-adv-x="1127" d="M474 -20L518 192Q377 218 298 325T219 591Q219 702 242 804T310 995T418 1151T564 1259T744 1310L779 1483H860L823 1310Q884 1308 943 1295T1049 1260L1020 1172Q972 1196 911 1209T789 1222Q685 1222 600 1173T452
1038T356 837T322 593Q322 451 400 361T618 271Q688 271 753 286T882 333V245Q813 209 744 197T598 183L555 -20H474Z" />
<glyph unicode="&#xa3;" horiz-adv-x="1127" d="M-16 0L0 87Q73 101 130 139T228 242T288 404L345 671H141L158 754H363L433 1085Q462 1222 519 1309T662 1439T859 1481Q952 1481 1028 1459T1157 1407L1115 1323Q1067 1347 1003 1370T857 1393Q731 1393 649 1318T530
1068L464 754H842L825 671H445L387 399Q358 263 307 195T182 94H941L921 0H-16Z" />
<glyph unicode="&#xa4;" horiz-adv-x="1152" d="M1012 268L865 416Q812 371 747 348T612 325Q544 325 479 348T360 416L213 269L159 326L304 473Q261 526 238 590T215 724Q215 792 238 857T304 975L158 1124L213 1181L360 1033Q414 1077 479 1100T612 1124Q681
1124 746 1101T865 1033L1012 1180L1067 1123L921 976Q965 923 988 858T1011 724Q1011 655 988 590T921 472L1068 325L1012 268ZM611 405Q700 405 773 448T890 564T934 725Q934 814 891 886T775 1002T614 1045Q526 1045 453 1002T337 886T294 724Q294 636 337 564T452
448T611 405Z" />
<glyph unicode="&#xa5;" horiz-adv-x="1127" d="M392 0L456 306H135L154 389H475L517 590H196L214 674H499L242 1462H343L582 701L1142 1462H1255L665 674H951L934 590H612L570 389H892L874 306H555L489 0H392Z" />
<glyph unicode="&#xa6;" horiz-adv-x="1108" d="M561 797V1556H648V797H561ZM561 -493V269H648V-493H561Z" />
<glyph unicode="&#xa7;" horiz-adv-x="1011" d="M358 -5Q259 -5 182 16T56 61V156Q115 125 197 101T358 77Q509 77 593 132T677 290Q677 340 649 373T570 434T451 492Q386 521 328 558T233 650T196 783Q196 867 237 925T339 1019T463 1075Q406 1104 361 1154T316
1282Q316 1375 368 1436T505 1528T691 1559Q777 1559 859 1541T998 1496L965 1417Q905 1443 832 1460T691 1477Q629 1477 565 1460T458 1400T415 1284Q415 1217 471 1177T633 1089Q697 1061 757 1027T856 942T895 809Q895 734 861 673T773 564T659 485Q709 454
742 410T775 298Q775 201 726 134T582 31T358 -5ZM592 525Q673 568 735 635T798 799Q798 856 770 893T684 962T538 1031Q482 1017 425 989T329 914T291 791Q291 728 324 686T424 608T592 525Z" />
<glyph unicode="&#xa8;" horiz-adv-x="1162" d="M927 1313Q901 1313 886 1328T870 1372Q870 1405 889 1436T949 1468Q977 1468 990 1452T1004 1411Q1004 1372 984 1343T927 1313ZM564 1313Q537 1313 522 1328T507 1372Q507 1405 525 1436T584 1468Q604 1468 616
1461T635 1441T641 1411Q641 1372 621 1343T564 1313Z" />
<glyph unicode="&#xa9;" horiz-adv-x="1704" d="M852 -18Q688 -18 551 39T313 199T157 438T101 731Q101 892 159 1029T320 1267T559 1424T852 1481Q1013 1481 1150 1422T1388 1258T1546 1019T1603 731Q1603 574 1546 438T1386 199T1147 40T852 -18ZM888 285Q694
285 584 400T474 730Q474 863 526 964T673 1121T896 1177Q975 1177 1036 1163T1152 1121L1116 1045Q1067 1069 1014 1081T897 1094Q748 1094 659 997T569 730Q569 551 655 459T891 367Q954 367 1007 378T1118 411V331Q1068 309 1013 297T888 285ZM852 55Q995 55
1117 107T1331 253T1474 468T1525 731Q1525 869 1475 991T1335 1206T1121 1353T852 1407Q708 1407 586 1356T372 1213T229 998T178 731Q178 592 227 470T365 255T578 108T852 55Z" />
<glyph unicode="&#xaa;" horiz-adv-x="672" d="M366 803Q313 803 270 828T203 904T178 1025Q178 1117 202 1199T270 1344T373 1443T503 1479Q572 1479 609 1444T664 1361H670L704 1466H765L628 813H565L587 949H583Q544 888 490 846T366 803ZM381 876Q424 876
462 899T531 961T585 1048T620 1148T632 1247Q632 1314 601 1360T502 1406Q454 1406 410 1378T332 1298T279 1178T259 1030Q259 959 291 918T381 876Z" />
<glyph unicode="&#xab;" horiz-adv-x="841" d="M278 153L58 556L62 583L445 966L497 914L167 558L348 186L278 153ZM631 153L415 541L419 568L794 962L848 914L524 544L700 186L631 153Z" />
<glyph unicode="&#xac;" horiz-adv-x="1169" d="M1078 766V267H993V679H150V766H1078Z" />
<glyph unicode="&#xad;" horiz-adv-x="626" d="M69 506L89 601H566L546 506H69Z" />
<glyph unicode="&#xae;" horiz-adv-x="1704" d="M595 289V1170H845Q987 1170 1066 1109T1146 917Q1146 819 1094 760T967 676L1202 289H1095L878 654H686V289H595ZM685 730H839Q933 730 994 776T1056 916Q1056 1008 998 1049T840 1090H685V730ZM852 -18Q688 -18
551 39T313 199T157 438T101 731Q101 892 159 1029T320 1267T559 1424T852 1481Q1013 1481 1150 1422T1388 1258T1546 1019T1603 731Q1603 574 1546 438T1386 199T1147 40T852 -18ZM852 55Q995 55 1117 107T1331 253T1474 468T1525 731Q1525 869 1475 991T1335
1206T1121 1353T852 1407Q708 1407 586 1356T372 1213T229 998T178 731Q178 592 227 470T365 255T578 108T852 55Z" />
<glyph unicode="&#xaf;" horiz-adv-x="916" d="M207 1556L227 1640H1034L1014 1556H207Z" />
<glyph unicode="&#xb0;" horiz-adv-x="877" d="M438 884Q350 884 281 921T173 1026T133 1184Q133 1273 172 1340T280 1445T438 1483Q527 1483 595 1445T703 1340T743 1184Q743 1094 704 1026T596 921T438 884ZM438 962Q539 962 599 1024T659 1184Q659 1285 599
1345T438 1406Q333 1406 276 1346T218 1184Q218 1087 275 1025T438 962Z" />
<glyph unicode="&#xb1;" horiz-adv-x="1169" d="M150 0V85H1101V0H150ZM668 768H1100V682H668V245H581V682H150V768H581V1205H668V768Z" />
<glyph unicode="&#xb2;" horiz-adv-x="671" d="M118 852L133 921L415 1161Q509 1241 572 1303T668 1421T700 1541Q700 1600 663 1636T557 1673Q500 1673 446 1653T335 1590L296 1652Q358 1700 426 1724T568 1749Q679 1749 733 1690T788 1551Q788 1473 753 1407T651
1274T486 1126L253 931H691L675 852H118Z" />
<glyph unicode="&#xb3;" horiz-adv-x="671" d="M371 842Q304 842 244 856T138 894V980Q192 953 250 935T372 917Q491 917 560 970T630 1126Q630 1197 579 1235T429 1273H333L349 1347H444Q514 1347 571 1368T663 1432T697 1535Q697 1597 660 1633T550 1669Q485
1668 430 1648T320 1595L286 1660Q342 1697 411 1721T561 1745Q633 1745 683 1721T759 1652T786 1549Q786 1448 727 1391T583 1312V1307Q645 1290 682 1242T719 1125Q719 1033 676 970T555 875T371 842Z" />
<glyph unicode="&#xb4;" horiz-adv-x="481" d="M234 1241V1258Q277 1299 327 1354T423 1467T498 1569H614V1552Q589 1520 553 1480T474 1396T388 1313T303 1241H234Z" />
<glyph unicode="&#xb5;" horiz-adv-x="1156" d="M-45 -481L287 1087H388L241 391Q230 340 227 307T223 251Q223 172 272 120T418 68Q509 68 601 121T769 286T882 571L993 1087H1093L862 0H779L822 254H816Q778 189 720 126T582 22T398 -20Q306 -20 254 21T179
123H174Q168 85 159 35T140 -69T119 -177L54 -481H-45Z" />
<glyph unicode="&#xb6;" horiz-adv-x="1341" d="M747 -260V664Q714 655 680 651T602 646Q513 646 445 676T329 765T258 908T233 1104Q233 1220 259 1305T336 1446T461 1529T633 1556H1152V-260H1075V1465H825V-260H747Z" />
<glyph unicode="&#xb7;" horiz-adv-x="465" d="M252 581Q219 581 201 599T183 650Q183 692 206 728T280 764Q312 764 329 745T346 695Q346 654 323 618T252 581Z" />
<glyph unicode="&#xb8;" horiz-adv-x="404" d="M-69 -492Q-101 -492 -127 -489T-174 -480V-409Q-152 -415 -128 -417T-79 -420Q-32 -420 11 -406T81 -361T109 -281Q109 -231 68 -205T-52 -176L45 0H122L56 -127Q116 -136 157 -173T198 -281Q198 -345 163 -392T67
-466T-69 -492Z" />
<glyph unicode="&#xb9;" horiz-adv-x="671" d="M391 851L508 1401Q520 1458 536 1522T566 1638Q537 1619 507 1600T435 1557L332 1499L297 1563L593 1728H667L481 851H391Z" />
<glyph unicode="&#xba;" horiz-adv-x="711" d="M421 800Q313 800 250 869T187 1058Q187 1145 211 1222T280 1358T389 1450T530 1483Q647 1483 704 1411T761 1228Q761 1143 739 1066T672 929T565 835T421 800ZM426 872Q484 872 531 900T611 977T663 1089T681 1223Q681
1309 641 1359T526 1410Q468 1410 421 1383T339 1309T286 1197T267 1059Q267 971 308 922T426 872Z" />
<glyph unicode="&#xbb;" horiz-adv-x="841" d="M402 153L349 205L680 560L498 933L568 966L788 562L785 534L402 153ZM53 157L-3 205L322 573L146 933L216 966L431 577L427 549L53 157Z" />
<glyph unicode="&#xbc;" horiz-adv-x="1421" d="M164 0L1249 1462H1354L267 0H164ZM329 587L446 1137Q458 1194 474 1258T504 1374Q475 1355 445 1336T373 1293L270 1235L235 1299L531 1464H605L419 587H329ZM1062 2L1109 226H723L741 302L1248 885H1337L1212
304H1345L1328 226H1195L1148 2H1062ZM837 304H1125L1175 528Q1187 586 1201 650T1228 764Q1210 736 1167 684T1085 588L837 304Z" />
<glyph unicode="&#xbd;" horiz-adv-x="1531" d="M155 0L1240 1462H1345L258 0H155ZM329 587L446 1137Q458 1194 474 1258T504 1374Q475 1355 445 1336T373 1293L270 1235L235 1299L531 1464H605L419 587H329ZM808 2L823 71L1105 311Q1199 391 1262 453T1358 571T1390
691Q1390 750 1353 786T1247 823Q1190 823 1136 803T1025 740L986 802Q1048 850 1116 874T1258 899Q1369 899 1423 840T1478 701Q1478 623 1443 557T1341 424T1176 276L943 81H1381L1365 2H808Z" />
<glyph unicode="&#xbe;" horiz-adv-x="1488" d="M302 574Q235 574 175 588T69 626V712Q123 685 181 667T303 649Q422 649 491 702T561 858Q561 929 510 967T360 1005H264L280 1079H375Q445 1079 502 1100T594 1164T628 1267Q628 1329 591 1365T481 1401Q416 1400
361 1380T251 1327L217 1392Q273 1429 342 1453T492 1477Q564 1477 614 1453T690 1384T717 1281Q717 1180 658 1123T514 1044V1039Q576 1022 613 974T650 857Q650 765 607 702T486 607T302 574ZM258 0L1343 1462H1448L361 0H258ZM1129 2L1176 226H790L808 302L1315
885H1404L1279 304H1412L1395 226H1262L1215 2H1129ZM904 304H1192L1242 528Q1254 586 1268 650T1295 764Q1277 736 1234 684T1152 588L904 304Z" />
<glyph unicode="&#xbf;" horiz-adv-x="846" d="M612 712Q595 605 561 537T475 417T348 306Q280 255 219 205T118 90T79 -67Q79 -175 144 -239T320 -304Q387 -304 457 -285T600 -231L637 -312Q550 -354 470 -374T313 -394Q160 -394 69 -308T-23 -76Q-23 26 15 100T122
237T280 364Q351 416 399 460T478 563T527 712H612ZM633 1110Q666 1110 684 1092T702 1041Q702 998 679 962T605 926Q573 926 556 945T539 995Q539 1036 562 1073T633 1110Z" />
<glyph unicode="&#xc0;" horiz-adv-x="1132" d="M-107 0L725 1464H828L1032 0H932L859 518H298L6 0H-107ZM348 611H847L779 1108Q773 1161 767 1225T756 1347H751Q724 1289 693 1228T628 1105L348 611ZM819 1616Q784 1654 743 1711T665 1826T610 1923V1944H718Q737
1893 765 1837T824 1729T880 1641V1616H819Z" />
<glyph unicode="&#xc1;" horiz-adv-x="1132" d="M-107 0L725 1464H828L1032 0H932L859 518H298L6 0H-107ZM348 611H847L779 1108Q773 1161 767 1225T756 1347H751Q724 1289 693 1228T628 1105L348 611ZM724 1616V1633Q767 1674 817 1729T913 1842T988 1944H1104V1927Q1079
1895 1043 1855T964 1771T878 1688T793 1616H724Z" />
<glyph unicode="&#xc2;" horiz-adv-x="1132" d="M-107 0L725 1464H828L1032 0H932L859 518H298L6 0H-107ZM348 611H847L779 1108Q773 1161 767 1225T756 1347H751Q724 1289 693 1228T628 1105L348 611ZM516 1616L517 1633Q558 1672 613 1727T721 1839T805 1940H898Q916
1894 943 1839T1003 1729T1061 1633L1059 1616H994Q967 1648 940 1687T888 1767T840 1846Q783 1789 717 1727T590 1616H516Z" />
<glyph unicode="&#xc3;" horiz-adv-x="1132" d="M-107 0L725 1464H828L1032 0H932L859 518H298L6 0H-107ZM348 611H847L779 1108Q773 1161 767 1225T756 1347H751Q724 1289 693 1228T628 1105L348 611ZM474 1632Q492 1705 520 1754T590 1829T687 1855Q734 1855
772 1835T844 1787T908 1740T970 1719Q1014 1719 1047 1746T1107 1856H1183Q1163 1784 1134 1734T1062 1657T964 1631Q920 1631 884 1651T815 1699T750 1747T680 1768Q638 1768 606 1740T548 1632H474Z" />
<glyph unicode="&#xc4;" horiz-adv-x="1132" d="M-107 0L725 1464H828L1032 0H932L859 518H298L6 0H-107ZM348 611H847L779 1108Q773 1161 767 1225T756 1347H751Q724 1289 693 1228T628 1105L348 611ZM991 1688Q965 1688 950 1703T934 1747Q934 1780 953 1811T1013
1843Q1041 1843 1054 1827T1068 1786Q1068 1747 1048 1718T991 1688ZM628 1688Q601 1688 586 1703T571 1747Q571 1780 589 1811T648 1843Q668 1843 680 1836T699 1816T705 1786Q705 1747 685 1718T628 1688Z" />
<glyph unicode="&#xc5;" horiz-adv-x="1132" d="M-107 0L725 1464H828L1032 0H932L859 518H298L6 0H-107ZM348 611H847L779 1108Q773 1161 767 1225T756 1347H751Q724 1289 693 1228T628 1105L348 611ZM802 1491Q715 1491 653 1547T591 1700Q591 1793 653 1850T802
1908Q893 1908 953 1850T1014 1701Q1014 1605 953 1548T802 1491ZM802 1560Q865 1560 904 1600T943 1700Q943 1760 902 1800T802 1840Q743 1840 703 1800T662 1700Q662 1640 700 1600T802 1560Z" />
<glyph unicode="&#xc6;" horiz-adv-x="1636" d="M-109 0L807 1462H1709L1691 1369H1044L925 815H1534L1516 722H907L774 93H1419L1400 0H650L759 516H329L9 0H-109ZM387 609H778L939 1369H858L387 609Z" />
<glyph unicode="&#xc7;" horiz-adv-x="1212" d="M668 -20Q508 -20 396 49T223 246T163 545Q163 700 199 840T303 1097T469 1301T689 1435T955 1483Q1054 1483 1137 1464T1295 1405L1253 1316Q1187 1354 1113 1372T955 1390Q831 1390 725 1348T535 1229T391 1047T301
815T269 549Q269 328 378 200T681 72Q778 72 863 89T1024 132V42Q951 15 865 -2T668 -20ZM476 -492Q444 -492 418 -489T371 -480V-409Q393 -415 417 -417T466 -420Q513 -420 556 -406T626 -361T654 -281Q654 -231 613 -205T493 -176L590 0H667L601 -127Q661 -136
702 -173T743 -281Q743 -345 708 -392T612 -466T476 -492Z" />
<glyph unicode="&#xc8;" horiz-adv-x="1080" d="M95 0L405 1462H1141L1122 1369H489L370 815H966L947 722H351L217 93H851L832 0H95ZM820 1616Q785 1654 744 1711T666 1826T611 1923V1944H719Q738 1893 766 1837T825 1729T881 1641V1616H820Z" />
<glyph unicode="&#xc9;" horiz-adv-x="1080" d="M95 0L405 1462H1141L1122 1369H489L370 815H966L947 722H351L217 93H851L832 0H95ZM713 1616V1633Q756 1674 806 1729T902 1842T977 1944H1093V1927Q1068 1895 1032 1855T953 1771T867 1688T782 1616H713Z" />
<glyph unicode="&#xca;" horiz-adv-x="1080" d="M95 0L405 1462H1141L1122 1369H489L370 815H966L947 722H351L217 93H851L832 0H95ZM524 1616L525 1633Q566 1672 621 1727T729 1839T813 1940H906Q924 1894 951 1839T1011 1729T1069 1633L1067 1616H1002Q975 1648
948 1687T896 1767T848 1846Q791 1789 725 1727T598 1616H524Z" />
<glyph unicode="&#xcb;" horiz-adv-x="1080" d="M95 0L405 1462H1141L1122 1369H489L370 815H966L947 722H351L217 93H851L832 0H95ZM1006 1688Q980 1688 965 1703T949 1747Q949 1780 968 1811T1028 1843Q1056 1843 1069 1827T1083 1786Q1083 1747 1063 1718T1006
1688ZM643 1688Q616 1688 601 1703T586 1747Q586 1780 604 1811T663 1843Q683 1843 695 1836T714 1816T720 1786Q720 1747 700 1718T643 1688Z" />
<glyph unicode="&#xcc;" horiz-adv-x="508" d="M94 0L406 1462H506L195 0H94ZM496 1616Q461 1654 420 1711T342 1826T287 1923V1944H395Q414 1893 442 1837T501 1729T557 1641V1616H496Z" />
<glyph unicode="&#xcd;" horiz-adv-x="508" d="M94 0L406 1462H506L195 0H94ZM402 1616V1633Q445 1674 495 1729T591 1842T666 1944H782V1927Q757 1895 721 1855T642 1771T556 1688T471 1616H402Z" />
<glyph unicode="&#xce;" horiz-adv-x="508" d="M94 0L406 1462H506L195 0H94ZM220 1616L221 1633Q262 1672 317 1727T425 1839T509 1940H602Q620 1894 647 1839T707 1729T765 1633L763 1616H698Q671 1648 644 1687T592 1767T544 1846Q487 1789 421 1727T294 1616H220Z" />
<glyph unicode="&#xcf;" horiz-adv-x="508" d="M94 0L406 1462H506L195 0H94ZM690 1688Q664 1688 649 1703T633 1747Q633 1780 652 1811T712 1843Q740 1843 753 1827T767 1786Q767 1747 747 1718T690 1688ZM327 1688Q300 1688 285 1703T270 1747Q270 1780 288
1811T347 1843Q367 1843 379 1836T398 1816T404 1786Q404 1747 384 1718T327 1688Z" />
<glyph unicode="&#xd0;" horiz-adv-x="1378" d="M95 0L239 681H82L101 773H258L405 1462H720Q994 1462 1149 1317T1304 873Q1304 733 1269 603T1163 363T986 172T737 46T417 0H95ZM217 91H422Q575 91 698 131T914 244T1070 415T1165 630T1197 874Q1197 1132 1066
1251T699 1371H489L362 773H733L712 681H342L217 91Z" />
<glyph unicode="&#xd1;" horiz-adv-x="1406" d="M94 0L404 1462H502L1032 164H1036Q1045 216 1056 276T1079 399T1103 516L1305 1462H1403L1094 0H995L464 1298H460Q453 1258 445 1215T429 1126T411 1034T393 940L194 0H94ZM622 1632Q640 1705 668 1754T738 1829T835
1855Q882 1855 920 1835T992 1787T1056 1740T1118 1719Q1162 1719 1195 1746T1255 1856H1331Q1311 1784 1282 1734T1210 1657T1112 1631Q1068 1631 1032 1651T963 1699T898 1747T828 1768Q786 1768 754 1740T696 1632H622Z" />
<glyph unicode="&#xd2;" horiz-adv-x="1470" d="M686 -20Q503 -20 387 56T217 262T163 558Q163 676 183 789T244 1007T344 1198T485 1349T665 1449T885 1485Q1120 1485 1257 1340T1395 911Q1395 814 1379 708T1327 498T1237 300T1103 135T921 22T686 -20ZM690
72Q796 72 881 109T1033 211T1148 359T1227 536T1273 726T1288 912Q1288 1136 1185 1264T877 1392Q771 1392 685 1358T531 1262T414 1120T333 946T286 755T270 561Q270 415 315 305T454 134T690 72ZM966 1616Q931 1654 890 1711T812 1826T757 1923V1944H865Q884
1893 912 1837T971 1729T1027 1641V1616H966Z" />
<glyph unicode="&#xd3;" horiz-adv-x="1470" d="M686 -20Q503 -20 387 56T217 262T163 558Q163 676 183 789T244 1007T344 1198T485 1349T665 1449T885 1485Q1120 1485 1257 1340T1395 911Q1395 814 1379 708T1327 498T1237 300T1103 135T921 22T686 -20ZM690
72Q796 72 881 109T1033 211T1148 359T1227 536T1273 726T1288 912Q1288 1136 1185 1264T877 1392Q771 1392 685 1358T531 1262T414 1120T333 946T286 755T270 561Q270 415 315 305T454 134T690 72ZM857 1616V1633Q900 1674 950 1729T1046 1842T1121 1944H1237V1927Q1212
1895 1176 1855T1097 1771T1011 1688T926 1616H857Z" />
<glyph unicode="&#xd4;" horiz-adv-x="1470" d="M686 -20Q503 -20 387 56T217 262T163 558Q163 676 183 789T244 1007T344 1198T485 1349T665 1449T885 1485Q1120 1485 1257 1340T1395 911Q1395 814 1379 708T1327 498T1237 300T1103 135T921 22T686 -20ZM690
72Q796 72 881 109T1033 211T1148 359T1227 536T1273 726T1288 912Q1288 1136 1185 1264T877 1392Q771 1392 685 1358T531 1262T414 1120T333 946T286 755T270 561Q270 415 315 305T454 134T690 72ZM651 1616L652 1633Q693 1672 748 1727T856 1839T940 1940H1033Q1051
1894 1078 1839T1138 1729T1196 1633L1194 1616H1129Q1102 1648 1075 1687T1023 1767T975 1846Q918 1789 852 1727T725 1616H651Z" />
<glyph unicode="&#xd5;" horiz-adv-x="1470" d="M686 -20Q503 -20 387 56T217 262T163 558Q163 676 183 789T244 1007T344 1198T485 1349T665 1449T885 1485Q1120 1485 1257 1340T1395 911Q1395 814 1379 708T1327 498T1237 300T1103 135T921 22T686 -20ZM690
72Q796 72 881 109T1033 211T1148 359T1227 536T1273 726T1288 912Q1288 1136 1185 1264T877 1392Q771 1392 685 1358T531 1262T414 1120T333 946T286 755T270 561Q270 415 315 305T454 134T690 72ZM615 1632Q633 1705 661 1754T731 1829T828 1855Q875 1855 913
1835T985 1787T1049 1740T1111 1719Q1155 1719 1188 1746T1248 1856H1324Q1304 1784 1275 1734T1203 1657T1105 1631Q1061 1631 1025 1651T956 1699T891 1747T821 1768Q779 1768 747 1740T689 1632H615Z" />
<glyph unicode="&#xd6;" horiz-adv-x="1470" d="M686 -20Q503 -20 387 56T217 262T163 558Q163 676 183 789T244 1007T344 1198T485 1349T665 1449T885 1485Q1120 1485 1257 1340T1395 911Q1395 814 1379 708T1327 498T1237 300T1103 135T921 22T686 -20ZM690
72Q796 72 881 109T1033 211T1148 359T1227 536T1273 726T1288 912Q1288 1136 1185 1264T877 1392Q771 1392 685 1358T531 1262T414 1120T333 946T286 755T270 561Q270 415 315 305T454 134T690 72ZM1133 1688Q1107 1688 1092 1703T1076 1747Q1076 1780 1095 1811T1155
1843Q1183 1843 1196 1827T1210 1786Q1210 1747 1190 1718T1133 1688ZM770 1688Q743 1688 728 1703T713 1747Q713 1780 731 1811T790 1843Q810 1843 822 1836T841 1816T847 1786Q847 1747 827 1718T770 1688Z" />
<glyph unicode="&#xd7;" horiz-adv-x="1169" d="M1008 1166L1068 1105L685 723L1068 340L1007 280L624 661L243 280L181 340L564 723L181 1105L243 1166L625 783L1008 1166Z" />
<glyph unicode="&#xd8;" horiz-adv-x="1470" d="M143 -65L77 -6L253 194Q206 267 185 360T163 558Q163 676 183 789T244 1007T344 1198T485 1349T665 1449T885 1485Q1000 1485 1091 1449T1249 1340L1411 1525L1480 1468L1305 1270Q1349 1206 1372 1114T1395 911Q1395
814 1379 708T1327 498T1237 300T1103 135T921 22T686 -20Q559 -20 467 18T312 126L143 -65ZM690 72Q796 72 881 109T1034 211T1149 359T1228 536T1274 726T1289 912Q1289 992 1275 1061T1235 1183L375 204Q426 142 504 107T690 72ZM325 280L1184 1263Q1133 1325
1057 1359T877 1393Q771 1393 685 1359T531 1263T414 1120T333 946T286 755T270 561Q270 479 283 408T325 280Z" />
<glyph unicode="&#xd9;" horiz-adv-x="1405" d="M614 -20Q475 -20 377 26T226 161T173 379Q173 413 178 454T193 542L389 1462H492L297 541Q288 499 283 457T278 382Q278 233 368 153T619 72Q752 72 850 122T1013 271T1111 521L1313 1462H1415L1214 509Q1176 332
1097 215T897 39T614 -20ZM952 1616Q917 1654 876 1711T798 1826T743 1923V1944H851Q870 1893 898 1837T957 1729T1013 1641V1616H952Z" />
<glyph unicode="&#xda;" horiz-adv-x="1405" d="M614 -20Q475 -20 377 26T226 161T173 379Q173 413 178 454T193 542L389 1462H492L297 541Q288 499 283 457T278 382Q278 233 368 153T619 72Q752 72 850 122T1013 271T1111 521L1313 1462H1415L1214 509Q1176 332
1097 215T897 39T614 -20ZM833 1616V1633Q876 1674 926 1729T1022 1842T1097 1944H1213V1927Q1188 1895 1152 1855T1073 1771T987 1688T902 1616H833Z" />
<glyph unicode="&#xdb;" horiz-adv-x="1405" d="M614 -20Q475 -20 377 26T226 161T173 379Q173 413 178 454T193 542L389 1462H492L297 541Q288 499 283 457T278 382Q278 233 368 153T619 72Q752 72 850 122T1013 271T1111 521L1313 1462H1415L1214 509Q1176 332
1097 215T897 39T614 -20ZM635 1616L636 1633Q677 1672 732 1727T840 1839T924 1940H1017Q1035 1894 1062 1839T1122 1729T1180 1633L1178 1616H1113Q1086 1648 1059 1687T1007 1767T959 1846Q902 1789 836 1727T709 1616H635Z" />
<glyph unicode="&#xdc;" horiz-adv-x="1405" d="M614 -20Q475 -20 377 26T226 161T173 379Q173 413 178 454T193 542L389 1462H492L297 541Q288 499 283 457T278 382Q278 233 368 153T619 72Q752 72 850 122T1013 271T1111 521L1313 1462H1415L1214 509Q1176 332
1097 215T897 39T614 -20ZM1115 1688Q1089 1688 1074 1703T1058 1747Q1058 1780 1077 1811T1137 1843Q1165 1843 1178 1827T1192 1786Q1192 1747 1172 1718T1115 1688ZM752 1688Q725 1688 710 1703T695 1747Q695 1780 713 1811T772 1843Q792 1843 804 1836T823
1816T829 1786Q829 1747 809 1718T752 1688Z" />
<glyph unicode="&#xdd;" horiz-adv-x="1012" d="M337 0L455 553L194 1462H297L523 659L1084 1462H1202L558 555L442 0H337ZM643 1616V1633Q686 1674 736 1729T832 1842T907 1944H1023V1927Q998 1895 962 1855T883 1771T797 1688T712 1616H643Z" />
<glyph unicode="&#xde;" horiz-adv-x="1150" d="M95 0L405 1462H507L452 1198H671Q815 1198 909 1157T1048 1037T1094 848Q1094 709 1048 612T917 455T719 368T469 340H270L198 0H95ZM289 431H486Q628 431 742 470T923 600T990 844Q990 977 905 1042T656 1107H432L289
431Z" />
<glyph unicode="&#xdf;" horiz-adv-x="1128" d="M-163 -492Q-198 -492 -228 -486T-280 -471V-380Q-255 -392 -226 -397T-167 -403Q-95 -403 -48 -352T20 -201L307 1158Q336 1294 393 1385T540 1521T755 1567Q904 1567 985 1497T1067 1315Q1067 1231 1036 1176T958
1084T860 1012Q796 972 746 926T695 802Q695 766 716 736T769 679T830 625Q893 570 939 505T985 340Q985 227 939 147T805 23T598 -20Q507 -20 442 -3T334 41V139Q385 108 452 88T590 67Q731 67 806 137T881 333Q881 383 865 422T821 494T755 560Q687 619 641 672T595
799Q595 873 623 921T696 1004T788 1068Q833 1096 873 1127T939 1202T965 1309Q965 1385 908 1432T748 1480Q650 1480 582 1442T471 1333T407 1158L121 -201Q102 -296 64 -361T-30 -459T-163 -492Z" />
<glyph unicode="&#xe0;" horiz-adv-x="1136" d="M400 -20Q306 -20 239 26T137 157T102 361Q102 470 125 577T194 779T306 949T458 1065T647 1108Q734 1108 792 1072T883 980T931 869H938L996 1087H1076L846 0H764L809 254H804Q765 193 705 130T567 23T400 -20ZM427
68Q513 68 601 130T760 300T860 543Q874 604 879 651T885 738Q885 870 823 944T653 1019Q569 1019 499 982T375 880T284 731T226 552T206 360Q206 222 262 145T427 68ZM761 1241Q726 1279 685 1336T607 1451T552 1548V1569H660Q679 1518 707 1462T766 1354T822
1266V1241H761Z" />
<glyph unicode="&#xe1;" horiz-adv-x="1136" d="M400 -20Q306 -20 239 26T137 157T102 361Q102 470 125 577T194 779T306 949T458 1065T647 1108Q734 1108 792 1072T883 980T931 869H938L996 1087H1076L846 0H764L809 254H804Q765 193 705 130T567 23T400 -20ZM427
68Q513 68 601 130T760 300T860 543Q874 604 879 651T885 738Q885 870 823 944T653 1019Q569 1019 499 982T375 880T284 731T226 552T206 360Q206 222 262 145T427 68ZM626 1241V1258Q669 1299 719 1354T815 1467T890 1569H1006V1552Q981 1520 945 1480T866 1396T780
1313T695 1241H626Z" />
<glyph unicode="&#xe2;" horiz-adv-x="1136" d="M400 -20Q306 -20 239 26T137 157T102 361Q102 470 125 577T194 779T306 949T458 1065T647 1108Q734 1108 792 1072T883 980T931 869H938L996 1087H1076L846 0H764L809 254H804Q765 193 705 130T567 23T400 -20ZM427
68Q513 68 601 130T760 300T860 543Q874 604 879 651T885 738Q885 870 823 944T653 1019Q569 1019 499 982T375 880T284 731T226 552T206 360Q206 222 262 145T427 68ZM437 1241L438 1258Q479 1297 534 1352T642 1464T726 1565H819Q837 1519 864 1464T924 1354T982
1258L980 1241H915Q888 1273 861 1312T809 1392T761 1471Q704 1414 638 1352T511 1241H437Z" />
<glyph unicode="&#xe3;" horiz-adv-x="1136" d="M400 -20Q306 -20 239 26T137 157T102 361Q102 470 125 577T194 779T306 949T458 1065T647 1108Q734 1108 792 1072T883 980T931 869H938L996 1087H1076L846 0H764L809 254H804Q765 193 705 130T567 23T400 -20ZM427
68Q513 68 601 130T760 300T860 543Q874 604 879 651T885 738Q885 870 823 944T653 1019Q569 1019 499 982T375 880T284 731T226 552T206 360Q206 222 262 145T427 68ZM373 1257Q391 1330 419 1379T489 1454T586 1480Q633 1480 671 1460T743 1412T807 1365T869
1344Q913 1344 946 1371T1006 1481H1082Q1062 1409 1033 1359T961 1282T863 1256Q819 1256 783 1276T714 1324T649 1372T579 1393Q537 1393 505 1365T447 1257H373Z" />
<glyph unicode="&#xe4;" horiz-adv-x="1136" d="M400 -20Q306 -20 239 26T137 157T102 361Q102 470 125 577T194 779T306 949T458 1065T647 1108Q734 1108 792 1072T883 980T931 869H938L996 1087H1076L846 0H764L809 254H804Q765 193 705 130T567 23T400 -20ZM427
68Q513 68 601 130T760 300T860 543Q874 604 879 651T885 738Q885 870 823 944T653 1019Q569 1019 499 982T375 880T284 731T226 552T206 360Q206 222 262 145T427 68ZM1173 1313Q1147 1313 1132 1328T1116 1372Q1116 1405 1135 1436T1195 1468Q1223 1468 1236
1452T1250 1411Q1250 1372 1230 1343T1173 1313ZM810 1313Q783 1313 768 1328T753 1372Q753 1405 771 1436T830 1468Q850 1468 862 1461T881 1441T887 1411Q887 1372 867 1343T810 1313Z" />
<glyph unicode="&#xe5;" horiz-adv-x="1136" d="M400 -20Q306 -20 239 26T137 157T102 361Q102 470 125 577T194 779T306 949T458 1065T647 1108Q734 1108 792 1072T883 980T931 869H938L996 1087H1076L846 0H764L809 254H804Q765 193 705 130T567 23T400 -20ZM427
68Q513 68 601 130T760 300T860 543Q874 604 879 651T885 738Q885 870 823 944T653 1019Q569 1019 499 982T375 880T284 731T226 552T206 360Q206 222 262 145T427 68ZM730 1247Q643 1247 581 1303T519 1456Q519 1549 581 1606T730 1664Q821 1664 881 1606T942
1457Q942 1361 881 1304T730 1247ZM730 1316Q793 1316 832 1356T871 1456Q871 1516 830 1556T730 1596Q671 1596 631 1556T590 1456Q590 1396 628 1356T730 1316Z" />
<glyph unicode="&#xe6;" horiz-adv-x="1707" d="M384 -20Q297 -20 234 25T137 156T102 360Q102 469 125 577T193 780T304 949T452 1065T635 1108Q718 1108 769 1070T848 977T887 869H893L954 1087H1027L982 875Q1049 979 1146 1043T1379 1108Q1486 1108 1561 1044T1636
867Q1636 774 1590 706T1456 594T1246 527T974 505H915Q912 485 910 456T908 398Q908 243 984 156T1213 68Q1292 68 1363 91T1494 141V50Q1434 19 1357 0T1199 -20Q1070 -20 975 41T848 238L797 0H724L769 246H763Q722 178 667 117T543 18T384 -20ZM410 68Q478
68 541 104T659 204T755 355T819 543Q834 606 839 651T844 738Q844 870 792 944T643 1019Q562 1019 494 982T373 881T283 732T226 552T206 360Q206 220 259 144T410 68ZM930 592H998Q1151 592 1272 619T1464 706T1535 859Q1535 930 1490 975T1361 1020Q1267 1020
1180 970T1027 824T930 592Z" />
<glyph unicode="&#xe7;" horiz-adv-x="928" d="M506 -20Q381 -20 292 31T156 176T108 394Q108 508 132 614T205 810T322 966T482 1070T681 1108Q751 1108 819 1095T940 1058L911 969Q864 992 803 1005T681 1019Q574 1019 487 971T339 836T244 638T211 397Q211
302 245 228T348 111T514 68Q587 68 650 85T776 132V41Q724 15 657 -2T506 -20ZM302 -492Q270 -492 244 -489T197 -480V-409Q219 -415 243 -417T292 -420Q339 -420 382 -406T452 -361T480 -281Q480 -231 439 -205T319 -176L416 0H493L427 -127Q487 -136 528 -173T569
-281Q569 -345 534 -392T438 -466T302 -492Z" />
<glyph unicode="&#xe8;" horiz-adv-x="1012" d="M501 -20Q394 -20 307 25T168 162T116 395Q116 538 157 666T272 893T447 1050T669 1108Q799 1108 872 1042T946 866Q946 773 900 705T765 593T555 527T282 505H226Q223 485 221 456T219 398Q219 239 298 154T519
68Q603 68 673 90T804 141V50Q747 21 670 1T501 -20ZM241 592H308Q461 592 582 619T775 706T846 859Q846 929 800 974T660 1020Q574 1020 489 970T338 824T241 592ZM699 1241Q664 1279 623 1336T545 1451T490 1548V1569H598Q617 1518 645 1462T704 1354T760 1266V1241H699Z"
/>
<glyph unicode="&#xe9;" horiz-adv-x="1012" d="M501 -20Q394 -20 307 25T168 162T116 395Q116 538 157 666T272 893T447 1050T669 1108Q799 1108 872 1042T946 866Q946 773 900 705T765 593T555 527T282 505H226Q223 485 221 456T219 398Q219 239 298 154T519
68Q603 68 673 90T804 141V50Q747 21 670 1T501 -20ZM241 592H308Q461 592 582 619T775 706T846 859Q846 929 800 974T660 1020Q574 1020 489 970T338 824T241 592ZM579 1241V1258Q622 1299 672 1354T768 1467T843 1569H959V1552Q934 1520 898 1480T819 1396T733
1313T648 1241H579Z" />
<glyph unicode="&#xea;" horiz-adv-x="1012" d="M501 -20Q394 -20 307 25T168 162T116 395Q116 538 157 666T272 893T447 1050T669 1108Q799 1108 872 1042T946 866Q946 773 900 705T765 593T555 527T282 505H226Q223 485 221 456T219 398Q219 239 298 154T519
68Q603 68 673 90T804 141V50Q747 21 670 1T501 -20ZM241 592H308Q461 592 582 619T775 706T846 859Q846 929 800 974T660 1020Q574 1020 489 970T338 824T241 592ZM380 1241L381 1258Q422 1297 477 1352T585 1464T669 1565H762Q780 1519 807 1464T867 1354T925
1258L923 1241H858Q831 1273 804 1312T752 1392T704 1471Q647 1414 581 1352T454 1241H380Z" />
<glyph unicode="&#xeb;" horiz-adv-x="1012" d="M501 -20Q394 -20 307 25T168 162T116 395Q116 538 157 666T272 893T447 1050T669 1108Q799 1108 872 1042T946 866Q946 773 900 705T765 593T555 527T282 505H226Q223 485 221 456T219 398Q219 239 298 154T519
68Q603 68 673 90T804 141V50Q747 21 670 1T501 -20ZM241 592H308Q461 592 582 619T775 706T846 859Q846 929 800 974T660 1020Q574 1020 489 970T338 824T241 592ZM1114 1313Q1088 1313 1073 1328T1057 1372Q1057 1405 1076 1436T1136 1468Q1164 1468 1177 1452T1191
1411Q1191 1372 1171 1343T1114 1313ZM751 1313Q724 1313 709 1328T694 1372Q694 1405 712 1436T771 1468Q791 1468 803 1461T822 1441T828 1411Q828 1372 808 1343T751 1313Z" />
<glyph unicode="&#xec;" horiz-adv-x="463" d="M63 0L293 1087H394L164 0H63ZM655 1241Q620 1279 579 1336T501 1451T446 1548V1569H554Q573 1518 601 1462T660 1354T716 1266V1241H655Z" />
<glyph unicode="&#xed;" horiz-adv-x="463" d="M63 0L293 1087H394L164 0H63ZM278 1241V1258Q321 1299 371 1354T467 1467T542 1569H658V1552Q633 1520 597 1480T518 1396T432 1313T347 1241H278Z" />
<glyph unicode="&#xee;" horiz-adv-x="463" d="M63 0L293 1087H394L164 0H63ZM94 1241L95 1258Q136 1297 191 1352T299 1464T383 1565H476Q494 1519 521 1464T581 1354T639 1258L637 1241H572Q545 1273 518 1312T466 1392T418 1471Q361 1414 295 1352T168 1241H94Z" />
<glyph unicode="&#xef;" horiz-adv-x="463" d="M63 0L293 1087H394L164 0H63ZM567 1313Q541 1313 526 1328T510 1372Q510 1405 529 1436T589 1468Q617 1468 630 1452T644 1411Q644 1372 624 1343T567 1313ZM204 1313Q177 1313 162 1328T147 1372Q147 1405 165
1436T224 1468Q244 1468 256 1461T275 1441T281 1411Q281 1372 261 1343T204 1313Z" />
<glyph unicode="&#xf0;" horiz-adv-x="1143" d="M467 -20Q353 -20 270 30T142 169T97 374Q97 487 131 592T231 779T392 910T608 958Q740 958 823 895T935 742H940Q941 890 899 1036T767 1300L496 1149L459 1217L713 1357Q682 1391 645 1424T561 1490L622 1563Q669
1528 714 1488T796 1405L1051 1547L1090 1479L848 1346Q899 1275 940 1185T1007 985T1033 743Q1033 628 1012 517T948 309T837 138T678 22T467 -20ZM473 68Q546 68 611 93T730 166T821 277T880 419T901 584Q901 629 886 679T838 772T748 843T609 871Q510 871 434
830T306 720T228 561T201 376Q201 239 273 154T473 68Z" />
<glyph unicode="&#xf1;" horiz-adv-x="1153" d="M60 0L291 1089H379L335 836H338Q374 896 433 959T573 1066T756 1110Q845 1110 907 1079T1002 988T1035 841Q1035 804 1030 764T1016 687L870 0H764L913 701Q921 739 925 770T929 828Q929 924 878 970T733 1017Q636
1017 544 956T380 785T278 528L165 0H60ZM380 1257Q398 1330 426 1379T496 1454T593 1480Q640 1480 678 1460T750 1412T814 1365T876 1344Q920 1344 953 1371T1013 1481H1089Q1069 1409 1040 1359T968 1282T870 1256Q826 1256 790 1276T721 1324T656 1372T586 1393Q544
1393 512 1365T454 1257H380Z" />
<glyph unicode="&#xf2;" horiz-adv-x="1155" d="M493 -18Q367 -18 281 34T152 180T108 398Q108 517 133 623T207 817T324 970T479 1070T666 1106Q790 1106 875 1053T1004 907T1049 690Q1049 580 1026 476T956 282T843 125T688 20T493 -18ZM502 69Q582 69 650 99T773
186T866 320T925 494T945 699Q945 787 915 859T824 975T665 1018Q585 1018 516 989T391 905T294 773T233 601T211 395Q211 244 284 157T502 69ZM725 1241Q690 1279 649 1336T571 1451T516 1548V1569H624Q643 1518 671 1462T730 1354T786 1266V1241H725Z" />
<glyph unicode="&#xf3;" horiz-adv-x="1155" d="M493 -18Q367 -18 281 34T152 180T108 398Q108 517 133 623T207 817T324 970T479 1070T666 1106Q790 1106 875 1053T1004 907T1049 690Q1049 580 1026 476T956 282T843 125T688 20T493 -18ZM502 69Q582 69 650 99T773
186T866 320T925 494T945 699Q945 787 915 859T824 975T665 1018Q585 1018 516 989T391 905T294 773T233 601T211 395Q211 244 284 157T502 69ZM613 1241V1258Q656 1299 706 1354T802 1467T877 1569H993V1552Q968 1520 932 1480T853 1396T767 1313T682 1241H613Z"
/>
<glyph unicode="&#xf4;" horiz-adv-x="1155" d="M493 -18Q367 -18 281 34T152 180T108 398Q108 517 133 623T207 817T324 970T479 1070T666 1106Q790 1106 875 1053T1004 907T1049 690Q1049 580 1026 476T956 282T843 125T688 20T493 -18ZM502 69Q582 69 650 99T773
186T866 320T925 494T945 699Q945 787 915 859T824 975T665 1018Q585 1018 516 989T391 905T294 773T233 601T211 395Q211 244 284 157T502 69ZM409 1241L410 1258Q451 1297 506 1352T614 1464T698 1565H791Q809 1519 836 1464T896 1354T954 1258L952 1241H887Q860
1273 833 1312T781 1392T733 1471Q676 1414 610 1352T483 1241H409Z" />
<glyph unicode="&#xf5;" horiz-adv-x="1155" d="M493 -18Q367 -18 281 34T152 180T108 398Q108 517 133 623T207 817T324 970T479 1070T666 1106Q790 1106 875 1053T1004 907T1049 690Q1049 580 1026 476T956 282T843 125T688 20T493 -18ZM502 69Q582 69 650 99T773
186T866 320T925 494T945 699Q945 787 915 859T824 975T665 1018Q585 1018 516 989T391 905T294 773T233 601T211 395Q211 244 284 157T502 69ZM369 1257Q387 1330 415 1379T485 1454T582 1480Q629 1480 667 1460T739 1412T803 1365T865 1344Q909 1344 942 1371T1002
1481H1078Q1058 1409 1029 1359T957 1282T859 1256Q815 1256 779 1276T710 1324T645 1372T575 1393Q533 1393 501 1365T443 1257H369Z" />
<glyph unicode="&#xf6;" horiz-adv-x="1155" d="M493 -18Q367 -18 281 34T152 180T108 398Q108 517 133 623T207 817T324 970T479 1070T666 1106Q790 1106 875 1053T1004 907T1049 690Q1049 580 1026 476T956 282T843 125T688 20T493 -18ZM502 69Q582 69 650 99T773
186T866 320T925 494T945 699Q945 787 915 859T824 975T665 1018Q585 1018 516 989T391 905T294 773T233 601T211 395Q211 244 284 157T502 69ZM1157 1313Q1131 1313 1116 1328T1100 1372Q1100 1405 1119 1436T1179 1468Q1207 1468 1220 1452T1234 1411Q1234 1372
1214 1343T1157 1313ZM794 1313Q767 1313 752 1328T737 1372Q737 1405 755 1436T814 1468Q834 1468 846 1461T865 1441T871 1411Q871 1372 851 1343T794 1313Z" />
<glyph unicode="&#xf7;" horiz-adv-x="1169" d="M150 679V766H1101V679H150ZM624 277Q587 277 568 300T548 363Q548 405 567 427T624 450Q664 450 682 428T700 363Q700 323 682 300T624 277ZM624 995Q587 995 568 1018T548 1081Q548 1123 567 1145T624 1167Q664
1167 682 1145T700 1081Q700 1041 682 1018T624 995Z" />
<glyph unicode="&#xf8;" horiz-adv-x="1155" d="M81 -66L17 -12L168 151Q137 202 123 263T108 398Q108 517 134 623T208 817T324 970T479 1070T666 1106Q755 1106 823 1078T938 1000L1076 1150L1140 1096L991 940Q1020 891 1033 828T1047 697Q1047 586 1024 481T955
286T842 127T688 21T494 -18Q403 -18 335 10T222 87L81 -66ZM502 68Q582 68 651 98T774 184T868 317T927 489T948 691Q948 737 941 779T920 852L282 158Q318 114 374 91T502 68ZM237 232L877 929Q844 969 792 994T665 1019Q585 1019 516 990T390 906T293 775T230
605T208 402Q208 351 216 307T237 232Z" />
<glyph unicode="&#xf9;" horiz-adv-x="1153" d="M388 -20Q302 -20 240 10T146 101T113 248Q113 283 118 321T131 399L277 1087H379L230 387Q222 349 218 318T214 260Q214 163 265 116T413 68Q510 68 603 129T768 301T871 560L983 1087H1083L852 0H768L813 254H807Q771
195 712 132T572 24T388 -20ZM751 1241Q716 1279 675 1336T597 1451T542 1548V1569H650Q669 1518 697 1462T756 1354T812 1266V1241H751Z" />
<glyph unicode="&#xfa;" horiz-adv-x="1153" d="M388 -20Q302 -20 240 10T146 101T113 248Q113 283 118 321T131 399L277 1087H379L230 387Q222 349 218 318T214 260Q214 163 265 116T413 68Q510 68 603 129T768 301T871 560L983 1087H1083L852 0H768L813 254H807Q771
195 712 132T572 24T388 -20ZM625 1241V1258Q668 1299 718 1354T814 1467T889 1569H1005V1552Q980 1520 944 1480T865 1396T779 1313T694 1241H625Z" />
<glyph unicode="&#xfb;" horiz-adv-x="1153" d="M388 -20Q302 -20 240 10T146 101T113 248Q113 283 118 321T131 399L277 1087H379L230 387Q222 349 218 318T214 260Q214 163 265 116T413 68Q510 68 603 129T768 301T871 560L983 1087H1083L852 0H768L813 254H807Q771
195 712 132T572 24T388 -20ZM427 1241L428 1258Q469 1297 524 1352T632 1464T716 1565H809Q827 1519 854 1464T914 1354T972 1258L970 1241H905Q878 1273 851 1312T799 1392T751 1471Q694 1414 628 1352T501 1241H427Z" />
<glyph unicode="&#xfc;" horiz-adv-x="1153" d="M388 -20Q302 -20 240 10T146 101T113 248Q113 283 118 321T131 399L277 1087H379L230 387Q222 349 218 318T214 260Q214 163 265 116T413 68Q510 68 603 129T768 301T871 560L983 1087H1083L852 0H768L813 254H807Q771
195 712 132T572 24T388 -20ZM1162 1313Q1136 1313 1121 1328T1105 1372Q1105 1405 1124 1436T1184 1468Q1212 1468 1225 1452T1239 1411Q1239 1372 1219 1343T1162 1313ZM799 1313Q772 1313 757 1328T742 1372Q742 1405 760 1436T819 1468Q839 1468 851 1461T870
1441T876 1411Q876 1372 856 1343T799 1313Z" />
<glyph unicode="&#xfd;" horiz-adv-x="883" d="M-92 -496Q-135 -496 -163 -491T-218 -475V-387Q-193 -396 -163 -402T-94 -408Q-16 -408 43 -353T168 -185L276 3L100 1087H202L304 428Q314 364 321 303T333 190T339 103H345Q359 134 383 183T436 289T496 401L874
1087H983L257 -217Q207 -306 156 -368T45 -463T-92 -496ZM463 1241V1258Q506 1299 556 1354T652 1467T727 1569H843V1552Q818 1520 782 1480T703 1396T617 1313T532 1241H463Z" />
<glyph unicode="&#xfe;" horiz-adv-x="1171" d="M-39 -481L392 1556H493L405 1141Q389 1068 369 986T331 833H338Q380 902 441 964T580 1067T752 1107Q895 1107 979 1005T1064 726Q1064 619 1042 512T975 310T864 140T710 23T513 -20Q421 -20 359 14T259 103T207
218H201Q194 163 182 96T158 -26L61 -481H-39ZM509 68Q597 68 668 105T793 208T885 359T941 538T960 728Q960 866 899 942T723 1019Q630 1019 539 958T377 787T273 537Q262 483 257 438T252 349Q252 212 320 140T509 68Z" />
<glyph unicode="&#xff;" horiz-adv-x="883" d="M-92 -496Q-135 -496 -163 -491T-218 -475V-387Q-193 -396 -163 -402T-94 -408Q-16 -408 43 -353T168 -185L276 3L100 1087H202L304 428Q314 364 321 303T333 190T339 103H345Q359 134 383 183T436 289T496 401L874
1087H983L257 -217Q207 -306 156 -368T45 -463T-92 -496ZM755 1313Q729 1313 714 1328T698 1372Q698 1405 717 1436T777 1468Q805 1468 818 1452T832 1411Q832 1372 812 1343T755 1313ZM392 1313Q365 1313 350 1328T335 1372Q335 1405 353 1436T412 1468Q432 1468
444 1461T463 1441T469 1411Q469 1372 449 1343T392 1313Z" />
<glyph unicode="&#x2013;" horiz-adv-x="983" d="M69 506L89 601H909L890 506H69Z" />
<glyph unicode="&#x2014;" horiz-adv-x="1960" d="M69 506L89 601H1886L1866 506H69Z" />
<glyph unicode="&#x2018;" horiz-adv-x="288" d="M138 961L129 981Q160 1060 200 1144T286 1309T380 1462H457Q426 1405 395 1341T334 1210T280 1079T237 961H138Z" />
<glyph unicode="&#x2019;" horiz-adv-x="288" d="M123 961Q165 1036 207 1125T284 1302T342 1462H441L451 1442Q420 1363 380 1279T294 1114T200 961H123Z" />
<glyph unicode="&#x201a;" horiz-adv-x="433" d="M-90 -264Q-48 -189 -7 -100T70 77T129 238H229L238 217Q207 138 167 54T80 -111T-13 -264H-90Z" />
<glyph unicode="&#x201c;" horiz-adv-x="597" d="M447 961L437 981Q468 1060 509 1144T596 1309T689 1462H766Q724 1387 683 1298T606 1122T546 961H447ZM138 961L129 981Q160 1060 200 1144T286 1309T380 1462H457Q426 1405 395 1341T334 1210T280 1079T237 961H138Z" />
<glyph unicode="&#x201d;" horiz-adv-x="597" d="M432 961Q474 1036 515 1125T592 1302T650 1462H751L760 1442Q730 1363 690 1279T603 1114T508 961H432ZM123 961Q165 1036 207 1125T284 1302T342 1462H441L451 1442Q420 1363 380 1279T294 1114T200 961H123Z" />
<glyph unicode="&#x201e;" horiz-adv-x="752" d="M218 -264Q260 -189 302 -100T379 77T438 238H537L546 217Q516 138 476 54T389 -111T296 -264H218ZM-90 -264Q-48 -189 -7 -100T70 77T129 238H229L238 217Q207 138 167 54T80 -111T-13 -264H-90Z" />
<glyph unicode="&#x2022;" horiz-adv-x="770" d="M416 568Q352 568 315 606T277 721Q277 779 296 825T353 899T444 927Q487 927 518 910T566 859T583 772Q583 716 563 670T506 596T416 568Z" />
<glyph unicode="&#x2039;" horiz-adv-x="489" d="M278 153L58 554L62 582L445 966L497 914L167 555L348 186L278 153Z" />
<glyph unicode="&#x203a;" horiz-adv-x="489" d="M50 153L-3 205L327 563L146 933L216 966L436 565L432 538L50 153Z" />
</font>
</defs>
</svg>
