<svg fill="none" height="32" viewBox="0 0 32 32" width="32" xmlns="http://www.w3.org/2000/svg"><g fill="#4b4848"><path d="m2.66658 2.66666h5.33334v2.66666h-2.66667v2.66667h-2.66667z"/><path d="m29.3333 29.3333h-5.3334v-2.6666h2.6667v-2.6667h2.6667z"/><path d="m2.66658 29.3333v-5.3333h2.66667v2.6667h2.66667v2.6666z"/><path d="m2.66658 14.6667v-4h2.66667v4z"/><path d="m26.6666 14.6667v-4h2.6667v4z"/><path d="m14.6666 5.33332h-4v-2.66666h4z"/><path d="m14.6666 29.3333h-4v-2.6666h4z"/><path d="m2.66658 21.3333v-4h2.66667v4z"/><path d="m26.6666 21.3333v-4h2.6667v4z"/><path d="m21.3332 5.33332h-4l.0001-2.66666h4z"/><path d="m21.3333 29.3333h-4v-2.6666h3.9999z"/><path d="m29.3333 7.99999v-5.33333h-5.3334v2.66666h2.6667v2.66667z"/></g></svg>