<svg width="24" height="24" viewBox="0 0 24 24" fill="none" xmlns="http://www.w3.org/2000/svg">
<path d="M1 0.999969H5.4V3.19996H3.2V5.39996H1V0.999969Z" fill="#4C5664"/>
<path d="M22.9997 22.9999H18.5997V20.7999H20.7997V18.5999H22.9997V22.9999Z" fill="#4C5664"/>
<path d="M1 22.9999V18.5999H3.2V20.7999H5.4V22.9999H1Z" fill="#4C5664"/>
<path d="M1 10.9V7.60001H3.2V10.9H1Z" fill="#4C5664"/>
<path d="M20.8 10.9V7.60001H23V10.9H20.8Z" fill="#4C5664"/>
<path d="M10.9 3.19996H7.59998V0.999969H10.9V3.19996Z" fill="#4C5664"/>
<path d="M10.9 22.9999H7.59998V20.8H10.9V22.9999Z" fill="#4C5664"/>
<path d="M1 16.3999V13.0999H3.2V16.3999H1Z" fill="#4C5664"/>
<path d="M20.8 16.3999V13.0999H23V16.3999H20.8Z" fill="#4C5664"/>
<path d="M16.4002 3.19996H13.1002L13.1003 0.999969H16.4003L16.4002 3.19996Z" fill="#4C5664"/>
<path d="M16.4002 22.9999H13.1002V20.8H16.4001L16.4002 22.9999Z" fill="#4C5664"/>
<path d="M22.9997 5.39996V0.999969H18.5997V3.19996H20.7997V5.39996H22.9997Z" fill="#4C5664"/>
</svg>
