<svg width="30" height="30" viewBox="0 0 30 30" fill="none" xmlns="http://www.w3.org/2000/svg">
<path d="M5 7V23C5 24.1046 5.89543 25 7 25H23C24.1046 25 25 24.1046 25 23V7C25 5.89543 24.1046 5 23 5H7C5.89543 5 5 5.89543 5 7Z" stroke="#364252" stroke-width="2" stroke-linecap="round" stroke-linejoin="round"/>
<path d="M1 7V5C1 2.79086 2.79086 1 5 1H7" stroke="#364252" stroke-width="2" stroke-linecap="round" stroke-linejoin="round"/>
<path d="M1 23V25C1 27.2091 2.79086 29 5 29H7" stroke="#364252" stroke-width="2" stroke-linecap="round" stroke-linejoin="round"/>
<path d="M29 7V5C29 2.79086 27.2091 1 25 1H23" stroke="#364252" stroke-width="2" stroke-linecap="round" stroke-linejoin="round"/>
<path d="M29 23V25C29 27.2091 27.2091 29 25 29H23" stroke="#364252" stroke-width="2" stroke-linecap="round" stroke-linejoin="round"/>
<path d="M1 13V17" stroke="#364252" stroke-width="2" stroke-linecap="round" stroke-linejoin="round"/>
<path d="M29 13V17" stroke="#364252" stroke-width="2" stroke-linecap="round" stroke-linejoin="round"/>
<path d="M13 1L17 1" stroke="#364252" stroke-width="2" stroke-linecap="round" stroke-linejoin="round"/>
<path d="M13 29H17" stroke="#364252" stroke-width="2" stroke-linecap="round" stroke-linejoin="round"/>
</svg>
