<svg xmlns="http://www.w3.org/2000/svg" width="16" height="17" fill="none" viewBox="0 0 16 17"><g clip-path="url(#clip0)"><path stroke="#A9A7A7" stroke-width="1.5" d="M7.3629 2.42747C3.69209 2.42747 0.716309 5.40325 0.716309 9.07407C0.716309 12.7449 3.69209 15.7207 7.3629 15.7207C11.0337 15.7207 14.0095 12.7449 14.0095 9.07407"/><path class="color-fill" fill="#A9A7A7" fill-rule="evenodd" d="M9.52299 8.07707C10.1654 8.07707 10.6861 7.55631 10.6861 6.91392C10.6861 6.27152 10.1654 5.75076 9.52299 5.75076C8.8806 5.75076 8.35983 6.27152 8.35983 6.91392C8.35983 7.55631 8.8806 8.07707 9.52299 8.07707ZM5.20285 8.07708C5.84524 8.07708 6.366 7.55632 6.366 6.91393C6.366 6.27153 5.84524 5.75077 5.20285 5.75077C4.56045 5.75077 4.03969 6.27153 4.03969 6.91393C4.03969 7.55632 4.56045 8.07708 5.20285 8.07708ZM7.36285 13.062C5.52744 13.062 4.03955 11.5741 4.03955 9.73872H10.6861C10.6861 11.5741 9.19825 13.062 7.36285 13.062Z" clip-rule="evenodd"/><path stroke="#A9A7A7" stroke-width="1.2" d="M12.6743 0.499611V6.64805"/><path stroke="#A9A7A7" stroke-width="1.2" d="M15.7485 3.62524L9.6001 3.62524"/></g><defs><clipPath id="clip0"><rect width="16" height="16" fill="#fff" transform="translate(0 0.5)"/></clipPath></defs></svg>