<svg xmlns="http://www.w3.org/2000/svg" width="20" height="18" fill="none" viewBox="0 0 20 18"><path fill="#716E6E" fill-rule="evenodd" d="M10.1935 0C8.53666 0 7.19351 1.34315 7.19351 3H13.3474C13.3474 1.34315 12.0042 0 10.3474 0H10.1935ZM15.0329 4.2H4.96715L1.67954 2.06384L0.399787 3.93616L4.11659 6.3512V8.625H0V10.875H4.11659V11.8462C4.11659 12.2648 4.15839 12.6736 4.23804 13.0688L0.399787 15.5627L1.67954 17.4351L5.11276 15.2043C6.21093 16.8875 8.11076 18 10.2704 18C12.3244 18 14.1434 16.9937 15.2612 15.4473L18.3205 17.4351L19.6002 15.5627L16.2329 13.3748C16.3579 12.886 16.4243 12.3738 16.4243 11.8462V10.875H20V8.625H16.4243V5.99976L19.6002 3.93616L18.3205 2.06384L15.0329 4.2Z" clip-rule="evenodd"/></svg>