<svg xmlns="http://www.w3.org/2000/svg" width="32" height="32" fill="none" viewBox="0 0 32 32"><path fill="#858282" d="M12.6666 7.9987C10.368 7.9987 8.16363 8.91179 6.53831 10.5371C4.91299 12.1624 3.9999 14.3668 3.9999 16.6654C3.9999 18.9639 4.91299 21.1683 6.53831 22.7936C8.16363 24.4189 10.368 25.332 12.6666 25.332H21.9999C22.8415 25.3312 23.6735 25.1534 24.4418 24.8101C25.2102 24.4667 25.8977 23.9656 26.4598 23.3393C27.0218 22.7129 27.4459 21.9753 27.7043 21.1744C27.9627 20.3735 28.0497 19.5272 27.9597 18.6904C27.8697 17.8537 27.6047 17.0452 27.1819 16.3176C26.7591 15.5899 26.1879 14.9594 25.5055 14.4668C24.8231 13.9743 24.0448 13.6309 23.221 13.4588C22.3972 13.2867 21.5464 13.2899 20.7239 13.468C20.083 11.8544 18.9723 10.4703 17.5357 9.49514C16.0992 8.51998 14.4029 7.99866 12.6666 7.9987ZM21.9999 27.9987H12.6666C10.6935 27.9982 8.75483 27.4827 7.04218 26.5031C5.32954 25.5234 3.9023 24.1137 2.90165 22.4132C1.90101 20.7128 1.36161 18.7806 1.33683 16.8077C1.31205 14.8348 1.80274 12.8897 2.76036 11.1646C3.71798 9.43961 5.10935 7.99444 6.79685 6.97211C8.48435 5.94978 10.4095 5.38571 12.3819 5.33568C14.3543 5.28565 16.3056 5.7514 18.0427 6.68686C19.7799 7.62233 21.2427 8.99509 22.2866 10.6694C24.5635 10.7383 26.7217 11.7008 28.2944 13.3488C29.867 14.9969 30.7276 17.1978 30.6899 19.4754C30.6522 21.7531 29.7193 23.9243 28.093 25.5194C26.4668 27.1145 24.2779 28.0051 21.9999 27.9987Z"/></svg>