<svg xmlns="http://www.w3.org/2000/svg" width="18" height="13" fill="none" viewBox="0 0 18 13"><path fill="#4B4848" d="M13.7314 12.4512C15.7959 12.4512 17.4092 10.9404 17.4092 9.06055C17.4092 7.625 16.582 6.38086 15.249 5.82031C15.2627 2.77148 13.0684 0.570312 10.2725 0.570312C8.41992 0.570312 7.10059 1.56152 6.28027 2.75781C4.59863 2.26562 2.7666 3.54395 2.73242 5.45801C1.1875 5.7041 0.223633 7.08496 0.223633 8.75293C0.223633 10.7627 1.98047 12.4512 4.31836 12.4512H13.7314ZM4.25684 8.39746L6.62891 5.32812C6.7793 5.14355 6.92969 5.06152 7.08008 5.06152C7.20996 5.06152 7.33301 5.11621 7.46973 5.18457L10.5391 6.83203L12.8838 5.56738C13.3008 5.3418 13.6768 5.74512 13.3828 6.13477L10.9971 9.21777C10.8535 9.39551 10.6963 9.47754 10.5391 9.47754C10.4229 9.47754 10.2998 9.42969 10.1562 9.35449L7.08691 7.71387L4.75586 8.97852C4.35254 9.19043 3.93555 8.81445 4.25684 8.39746Z"/></svg>