<svg xmlns="http://www.w3.org/2000/svg" width="8" height="6" fill="none" viewBox="0 0 8 6"><path fill="#090707" d="M7.92006 1.18808L7.51929 0.805547C7.46589 0.754465 7.40437 0.729004 7.33482 0.729004C7.26545 0.729004 7.20396 0.754465 7.15055 0.805547L4.00004 3.81269L0.849671 0.805628C0.796241 0.754545 0.734752 0.729084 0.665289 0.729084C0.595798 0.729084 0.534309 0.754545 0.480906 0.805628L0.0801884 1.18818C0.0266733 1.23916 1.18406e-09 1.29785 1.32213e-09 1.36419C1.46009e-09 1.43046 0.0267575 1.48916 0.0801884 1.54013L3.81566 5.10589C3.86906 5.15689 3.93058 5.18238 4.00004 5.18238C4.06951 5.18238 4.13091 5.15689 4.18428 5.10589L7.92006 1.54013C7.97347 1.48913 8 1.43044 8 1.36419C8 1.29785 7.97347 1.23916 7.92006 1.18808Z"/></svg>