<svg xmlns="http://www.w3.org/2000/svg" width="20" height="20" fill="none" viewBox="0 0 20 20"><path fill="#A9A7A7" d="M5.83333 5.0013V2.5013C5.83333 2.28029 5.92113 2.06833 6.07741 1.91205C6.23369 1.75577 6.44565 1.66797 6.66667 1.66797H16.6667C16.8877 1.66797 17.0996 1.75577 17.2559 1.91205C17.4122 2.06833 17.5 2.28029 17.5 2.5013V14.168C17.5 14.389 17.4122 14.6009 17.2559 14.7572C17.0996 14.9135 16.8877 15.0013 16.6667 15.0013H14.1667V17.5013C14.1667 17.9613 13.7917 18.3346 13.3275 18.3346H3.33917C3.22927 18.3353 3.12033 18.3142 3.0186 18.2727C2.91687 18.2311 2.82436 18.1698 2.74638 18.0924C2.6684 18.0149 2.60649 17.9229 2.56421 17.8214C2.52193 17.72 2.50011 17.6112 2.5 17.5013L2.5025 5.83464C2.5025 5.37464 2.8775 5.0013 3.34167 5.0013H5.83333ZM4.16917 6.66797L4.16667 16.668H12.5V6.66797H4.16917ZM7.5 5.0013H14.1667V13.3346H15.8333V3.33464H7.5V5.0013Z"/></svg>