<svg xmlns="http://www.w3.org/2000/svg" width="24" height="24" fill="none" viewBox="0 0 24 24"><path fill="currentColor" fill-rule="evenodd" d="M12 17C11.4477 17 11 17.4477 11 18C11 18.5523 11.4477 19 12 19C12.5523 19 13 18.5523 13 18C13 17.4477 12.5523 17 12 17ZM9 18C9 16.3431 10.3431 15 12 15C13.6569 15 15 16.3431 15 18C15 19.6569 13.6569 21 12 21C10.3431 21 9 19.6569 9 18Z" clip-rule="evenodd"/><path fill="currentColor" fill-rule="evenodd" d="M7 5C6.44772 5 6 5.44772 6 6C6 6.55228 6.44772 7 7 7C7.55228 7 8 6.55228 8 6C8 5.44772 7.55228 5 7 5ZM4 6C4 4.34315 5.34315 3 7 3C8.65685 3 10 4.34315 10 6C10 7.65685 8.65685 9 7 9C5.34315 9 4 7.65685 4 6Z" clip-rule="evenodd"/><path fill="currentColor" fill-rule="evenodd" d="M17 5C16.4477 5 16 5.44772 16 6C16 6.55228 16.4477 7 17 7C17.5523 7 18 6.55228 18 6C18 5.44772 17.5523 5 17 5ZM14 6C14 4.34315 15.3431 3 17 3C18.6569 3 20 4.34315 20 6C20 7.65685 18.6569 9 17 9C15.3431 9 14 7.65685 14 6Z" clip-rule="evenodd"/><path fill="currentColor" fill-rule="evenodd" d="M7 7C7.55228 7 8 7.44772 8 8V10C8 10.5523 8.44772 11 9 11H15C15.5523 11 16 10.5523 16 10V8C16 7.44772 16.4477 7 17 7C17.5523 7 18 7.44772 18 8V10C18 11.6569 16.6569 13 15 13H9C7.34315 13 6 11.6569 6 10V8C6 7.44772 6.44772 7 7 7Z" clip-rule="evenodd"/><path fill="currentColor" fill-rule="evenodd" d="M12 11C12.5523 11 13 11.4477 13 12V16C13 16.5523 12.5523 17 12 17C11.4477 17 11 16.5523 11 16V12C11 11.4477 11.4477 11 12 11Z" clip-rule="evenodd"/></svg>