<svg xmlns="http://www.w3.org/2000/svg" width="24" height="24" fill="none" viewBox="0 0 24 24"><path fill="#A9A7A7" d="M14.9991 5H16.9991C17.5295 5 18.0382 5.21071 18.4133 5.58579C18.7883 5.96086 18.9991 6.46957 18.9991 7V15.17C19.6665 15.4059 20.2291 15.8702 20.5874 16.4808C20.9457 17.0914 21.0765 17.809 20.9569 18.5068C20.8372 19.2046 20.4747 19.8375 19.9334 20.2939C19.3922 20.7502 18.707 21.0005 17.9991 21.0005C17.2911 21.0005 16.6059 20.7502 16.0647 20.2939C15.5234 19.8375 15.1609 19.2046 15.0412 18.5068C14.9216 17.809 15.0524 17.0914 15.4107 16.4808C15.769 15.8702 16.3316 15.4059 16.9991 15.17V7H14.9991V10L10.4991 6L14.9991 2V5ZM4.99905 8.83C4.33156 8.59409 3.76896 8.1298 3.41069 7.51919C3.05243 6.90859 2.92157 6.19098 3.04124 5.49321C3.16092 4.79545 3.52342 4.16246 4.06468 3.70613C4.60594 3.2498 5.2911 2.99951 5.99905 2.99951C6.70701 2.99951 7.39217 3.2498 7.93342 3.70613C8.47468 4.16246 8.83719 4.79545 8.95686 5.49321C9.07654 6.19098 8.94568 6.90859 8.58741 7.51919C8.22915 8.1298 7.66655 8.59409 6.99905 8.83V15.17C7.66655 15.4059 8.22915 15.8702 8.58741 16.4808C8.94568 17.0914 9.07654 17.809 8.95686 18.5068C8.83719 19.2046 8.47468 19.8375 7.93342 20.2939C7.39217 20.7502 6.70701 21.0005 5.99905 21.0005C5.2911 21.0005 4.60594 20.7502 4.06468 20.2939C3.52342 19.8375 3.16092 19.2046 3.04124 18.5068C2.92157 17.809 3.05243 17.0914 3.41069 16.4808C3.76896 15.8702 4.33156 15.4059 4.99905 15.17V8.83ZM5.99905 7C6.26427 7 6.51862 6.89464 6.70616 6.70711C6.8937 6.51957 6.99905 6.26522 6.99905 6C6.99905 5.73478 6.8937 5.48043 6.70616 5.29289C6.51862 5.10536 6.26427 5 5.99905 5C5.73384 5 5.47948 5.10536 5.29195 5.29289C5.10441 5.48043 4.99905 5.73478 4.99905 6C4.99905 6.26522 5.10441 6.51957 5.29195 6.70711C5.47948 6.89464 5.73384 7 5.99905 7ZM5.99905 19C6.26427 19 6.51862 18.8946 6.70616 18.7071C6.8937 18.5196 6.99905 18.2652 6.99905 18C6.99905 17.7348 6.8937 17.4804 6.70616 17.2929C6.51862 17.1054 6.26427 17 5.99905 17C5.73384 17 5.47948 17.1054 5.29195 17.2929C5.10441 17.4804 4.99905 17.7348 4.99905 18C4.99905 18.2652 5.10441 18.5196 5.29195 18.7071C5.47948 18.8946 5.73384 19 5.99905 19ZM17.9991 19C18.2643 19 18.5186 18.8946 18.7062 18.7071C18.8937 18.5196 18.9991 18.2652 18.9991 18C18.9991 17.7348 18.8937 17.4804 18.7062 17.2929C18.5186 17.1054 18.2643 17 17.9991 17C17.7338 17 17.4795 17.1054 17.2919 17.2929C17.1044 17.4804 16.9991 17.7348 16.9991 18C16.9991 18.2652 17.1044 18.5196 17.2919 18.7071C17.4795 18.8946 17.7338 19 17.9991 19Z"/></svg>