<svg width="12" height="12" viewBox="0 0 12 12" fill="none" xmlns="http://www.w3.org/2000/svg">
<path d="M6 0.90918C6.35847 1.06191 6.69831 1.25499 7.01562 1.48242C6.80974 1.75123 6.6576 2.06234 6.57422 2.40137C6.39229 2.26006 6.20122 2.13164 6 2.02051C4.49754 2.85015 3.50005 4.56529 3.5 6.5C3.5 6.8456 3.53089 7.18645 3.59277 7.51855C3.65497 7.85256 3.54387 8.19538 3.29688 8.42871L2.74707 8.94824L3.2373 9.84766L3.64648 9.43945C3.92778 9.15824 4.30927 9 4.70703 9H7.29297C7.69067 9.00007 8.07228 9.15821 8.35352 9.43945L8.76172 9.84766L9.25293 8.94824L8.70312 8.42871C8.45612 8.19541 8.34413 7.85254 8.40625 7.51855C8.46815 7.18645 8.5 6.8456 8.5 6.5C8.49999 6.13138 8.46258 5.77093 8.39355 5.42285C8.58794 5.47135 8.7906 5.5 9 5.5C9.14194 5.5 9.28053 5.48464 9.41602 5.46191C9.46996 5.79919 9.49999 6.14588 9.5 6.5C9.5 6.91137 9.4619 7.31314 9.38965 7.70117L10.3594 8.61816C10.4419 8.69612 10.4615 8.81928 10.4072 8.91895L9.16016 11.207C9.09401 11.3282 8.94151 11.3728 8.82031 11.3066C8.79944 11.2953 8.78047 11.2805 8.76367 11.2637L7.64648 10.1465C7.55275 10.0528 7.42547 10.0001 7.29297 10H4.70703C4.57448 10 4.44727 10.0528 4.35352 10.1465L3.23633 11.2637C3.13872 11.3613 2.98045 11.3613 2.88281 11.2637C2.86598 11.2469 2.85126 11.2279 2.83984 11.207L1.5918 8.91895C1.53776 8.81943 1.55745 8.69607 1.63965 8.61816L2.61035 7.70117C2.53807 7.31312 2.5 6.91139 2.5 6.5C2.50005 3.9561 3.95135 1.78197 6 0.90918ZM6 4.5C6.55212 4.5001 6.99993 4.94786 7 5.5C7 6.05224 6.55216 6.4999 6 6.5C5.4477 6.5 5 6.0523 5 5.5C5.00007 4.9478 5.44774 4.5 6 4.5ZM7.77344 2.13672C8.39965 2.78149 8.88786 3.58417 9.18262 4.4873C9.1227 4.49459 9.06188 4.5 9 4.5C8.56764 4.5 8.17901 4.31612 7.90527 4.02344C7.80632 3.83107 7.69681 3.64643 7.57617 3.4707C7.52724 3.32259 7.5 3.16451 7.5 3C7.5 2.67856 7.60129 2.38086 7.77344 2.13672Z" fill="#4C5664"/>
<path d="M11 3C11 4.10457 10.1046 5 9 5C7.89543 5 7 4.10457 7 3C7 1.89543 7.89543 1 9 1C10.1046 1 11 1.89543 11 3Z" fill="#E15615"/>
</svg>
