<svg xmlns="http://www.w3.org/2000/svg" width="16" height="16" fill="none" viewBox="0 0 16 16"><path fill="#858282" d="M13.3334 14.6667H12.0001V13.3333C12.0001 12.8029 11.7894 12.2942 11.4143 11.9191C11.0392 11.544 10.5305 11.3333 10.0001 11.3333H6.00008C5.46965 11.3333 4.96094 11.544 4.58587 11.9191C4.21079 12.2942 4.00008 12.8029 4.00008 13.3333V14.6667H2.66675V13.3333C2.66675 12.4493 3.01794 11.6014 3.64306 10.9763C4.26818 10.3512 5.11603 9.99999 6.00008 9.99999H10.0001C10.8841 9.99999 11.732 10.3512 12.3571 10.9763C12.9822 11.6014 13.3334 12.4493 13.3334 13.3333V14.6667ZM8.00008 8.66666C7.47479 8.66666 6.95465 8.56319 6.46935 8.36217C5.98404 8.16116 5.54309 7.86652 5.17165 7.49508C4.80022 7.12365 4.50558 6.68269 4.30456 6.19739C4.10354 5.71209 4.00008 5.19194 4.00008 4.66666C4.00008 4.14137 4.10354 3.62123 4.30456 3.13592C4.50558 2.65062 4.80022 2.20966 5.17165 1.83823C5.54309 1.4668 5.98404 1.17216 6.46935 0.971138C6.95465 0.77012 7.47479 0.666656 8.00008 0.666656C9.06095 0.666657 10.0784 1.08808 10.8285 1.83823C11.5787 2.58837 12.0001 3.60579 12.0001 4.66666C12.0001 5.72752 11.5787 6.74494 10.8285 7.49508C10.0784 8.24523 9.06095 8.66666 8.00008 8.66666ZM8.00008 7.33332C8.70732 7.33332 9.3856 7.05237 9.8857 6.55227C10.3858 6.05218 10.6667 5.3739 10.6667 4.66666C10.6667 3.95941 10.3858 3.28114 9.8857 2.78104C9.3856 2.28094 8.70732 1.99999 8.00008 1.99999C7.29284 1.99999 6.61456 2.28094 6.11446 2.78104C5.61437 3.28114 5.33341 3.95941 5.33341 4.66666C5.33341 5.3739 5.61437 6.05218 6.11446 6.55227C6.61456 7.05237 7.29284 7.33332 8.00008 7.33332Z"/></svg>