<svg width="32" height="32" viewBox="0 0 32 32" fill="none" xmlns="http://www.w3.org/2000/svg">
<path d="M26.0117 13.5V7.5H28.3069C28.8558 7.5 29.2882 7.63444 29.6042 7.90333C29.923 8.17221 30.0824 8.53673 30.0824 8.99688C30.0824 9.30735 29.9812 9.58732 29.7789 9.8368C29.5793 10.0863 29.3353 10.2374 29.0471 10.29V10.3565C29.4573 10.4092 29.783 10.5672 30.0242 10.8306C30.2654 11.0911 30.3859 11.4196 30.3859 11.816C30.3859 12.3455 30.2058 12.7585 29.8454 13.0551C29.4878 13.3517 28.9902 13.5 28.3527 13.5H26.0117ZM26.7602 12.8389H28.2404C28.6922 12.8389 29.0346 12.7488 29.2674 12.5686C29.5003 12.3884 29.6167 12.1251 29.6167 11.7786C29.6167 11.08 29.1344 10.7308 28.1697 10.7308H26.7602V12.8389ZM26.7602 10.0863H27.9577C28.8697 10.0863 29.3256 9.76611 29.3256 9.12578C29.3256 8.82086 29.2217 8.58385 29.0138 8.41476C28.8087 8.24567 28.5204 8.16112 28.1489 8.16112H26.7602V10.0863Z" fill="#4B4848" stroke="#4B4848" stroke-width="0.3"/>
<path d="M1.61719 13.5L4.18724 7.5H5.04714L7.61719 13.5H6.70414L6.00366 11.7827H3.23071L2.53023 13.5H1.61719ZM3.48675 11.1466H5.74762L4.65583 8.46882H4.57854L3.48675 11.1466Z" fill="#4B4848" stroke="#4B4848" stroke-width="0.3"/>
<path d="M30 18.5H2V21.5H30V18.5Z" fill="#4B4848"/>
<circle cx="19.5" cy="20" r="4.5" fill="#4B4848"/>
</svg>
