<svg width="24" height="24" viewBox="0 0 24 24" fill="none" xmlns="http://www.w3.org/2000/svg">
<path d="M1.85718 1H23V8.42857H1.85718V1Z" stroke="#4B4848" stroke-width="1.5"/>
<path d="M10.1428 11.6286H18.1428V13.3429H10.1428V11.6286Z" fill="#4B4848"/>
<path d="M10.1428 17H16.9999V18.7143H10.1428V17Z" fill="#4B4848"/>
<path d="M7.85716 12.1429H4.42859L6.14287 13.8571L7.85716 12.1429Z" fill="#4B4848"/>
<path d="M7.85716 17.2857H4.42859L6.14287 19L7.85716 17.2857Z" fill="#4B4848"/>
<path fill-rule="evenodd" clip-rule="evenodd" d="M1 7.57144V23H21.5714V7.57144H1ZM2.71429 21.2857V9.28573H19.8571V21.2857H2.71429Z" fill="#4B4848"/>
<path d="M14.7142 3.85715H20.4285V5.57143H14.7142V3.85715Z" fill="#4B4848"/>
<path fill-rule="evenodd" clip-rule="evenodd" d="M6.7143 3.85715H4.42859V5.57143H6.7143V3.85715ZM7.85716 5.57143H13.5714V3.85715H7.85716V5.57143Z" fill="#4B4848"/>
</svg>
