<svg fill="#ff0000" height="14" width="14" version="1.1" id="Layer_1" xmlns="http://www.w3.org/2000/svg" xmlns:xlink="http://www.w3.org/1999/xlink" viewBox="0 0 512 512" xml:space="preserve" stroke="#ff0000"><g id="SVGRepo_bgCarrier" stroke-width="0"></g><g id="SVGRepo_tracerCarrier" stroke-linecap="round" stroke-linejoin="round"></g><g id="SVGRepo_iconCarrier"> <g> <g> <path d="M256,127.996c-7.074,0-12.8,5.726-12.8,12.8v204.8c0,7.074,5.726,12.8,12.8,12.8c7.074,0,12.8-5.726,12.8-12.8v-204.8 C268.8,133.722,263.074,127.996,256,127.996z"></path> </g> </g> <g> <g> <path d="M508.57,442.731L278.17,43.669c-4.574-7.919-13.022-12.8-22.17-12.8s-17.596,4.881-22.17,12.8L3.43,442.731 c-4.574,7.919-4.574,17.681,0,25.6c4.574,7.919,13.022,12.8,22.17,12.8h460.8c9.148,0,17.596-4.881,22.17-12.8 S513.143,450.65,508.57,442.731z M25.605,455.522L256,56.461l230.4,399.061H25.605z"></path> </g> </g> <g> <g> <circle cx="256" cy="409.596" r="25.6"></circle> </g> </g> </g></svg>