<svg width="56" height="24" viewBox="0 0 56 24" fill="none" xmlns="http://www.w3.org/2000/svg">
<rect x="0.5" y="0.5" width="55" height="23" rx="3.5" fill="#FFEEE5"/>
<rect x="0.5" y="0.5" width="55" height="23" rx="3.5" stroke="#CC3D00"/>
<path d="M29.5 7.5V11.5M29.5 15.5V11.5M35.5 7.5L32.0858 10.9142C31.7107 11.2893 31.202 11.5 30.6716 11.5H29.5" stroke="#CC3D00" stroke-linecap="round" stroke-linejoin="round"/>
<path d="M29.5 15.5V11.5V7.5M35.5 15.5L31.5 11.5" stroke="#CC3D00" stroke-linecap="round" stroke-linejoin="round"/>
<path d="M20.5 12.5V10.5C20.5 8.84315 21.8431 7.5 23.5 7.5C25.1569 7.5 26.5 8.84315 26.5 10.5V12.5C26.5 14.1569 25.1569 15.5 23.5 15.5C21.8431 15.5 20.5 14.1569 20.5 12.5Z" stroke="#CC3D00" stroke-linecap="round" stroke-linejoin="round"/>
</svg>
