<svg width="24" height="24" viewBox="0 0 24 24" fill="none" xmlns="http://www.w3.org/2000/svg">
<path fill-rule="evenodd" clip-rule="evenodd" d="M21 14V4H1V16.5H11V14H3.5V6.5H18.5V14H21ZM9.15912 17.8194C10.648 17.313 10.8215 17.3539 12.006 18.6864C12.0249 18.7036 12.0437 18.721 12.0626 18.7384C12.3614 19.0124 12.6522 19.2791 13.0424 19.1306C13.4583 18.9736 13.5434 18.7359 13.5434 18.3258V10.2239C13.5434 9.66588 14.185 9.03263 14.7987 9.03263C15.4126 9.03263 16.041 9.66588 16.041 10.2239V14.5728L19.4976 16.1099C20.015 16.3399 20.3131 16.889 20.2243 17.4482L19.5802 21.5H11L10.3859 20.25L9.15912 17.8194Z" fill="#4C5664"/>
</svg>
