<svg xmlns="http://www.w3.org/2000/svg" width="11" height="14" fill="none" viewBox="0 0 11 14"><path fill="#fff" d="M0.512207 0.316528H7.85367L9.21952 1.68238L10.5854 2.96287V13.4629H0.512207V0.316528Z"/><path fill="#DEAB41" d="M0 0.341473V13.6585C1.71875e-05 13.8373 0.163762 14 0.34375 14H10.6563C10.8362 14 11 13.8373 11 13.6585V3.07318C11 2.98227 10.963 2.89168 10.8979 2.82775L8.14794 0.0960465C8.08398 0.0345848 7.99525 -0.000678164 7.90625 9.88474e-06H0.34375C0.159758 0.00120501 0.000189063 0.190326 0 0.341473ZM0.6875 0.682937H7.5625V3.07318C7.56252 3.25195 7.72626 3.41463 7.90625 3.41464H10.3125V13.3171H0.6875V0.682937Z"/><path fill="#D6415F" d="M4.37843 4.99365C4.16529 4.99365 4.00113 5.0455 3.88592 5.14918C3.77071 5.24711 3.71887 5.39976 3.73039 5.60713L3.8168 6.95504C3.83984 7.24306 3.76783 7.48499 3.60078 7.68084C3.43949 7.87669 3.20908 8.00342 2.90955 8.06102C3.20908 8.11863 3.43949 8.24535 3.60078 8.4412C3.76783 8.63706 3.83984 8.88187 3.8168 9.17565L3.73039 10.5236C3.72463 10.7137 3.77935 10.8634 3.89456 10.9729C4.00977 11.0766 4.17105 11.1284 4.37843 11.1284H4.81909V12.1307H4.2229C3.73327 12.1307 3.34157 11.9896 3.04779 11.7073C2.75402 11.4308 2.62153 11.0593 2.65033 10.5927L2.73674 9.27933C2.7713 8.80122 2.53512 8.56217 2.02822 8.56217H1V7.56852H2.02822C2.28743 7.56852 2.47464 7.51091 2.58985 7.39571C2.70505 7.27474 2.75402 7.09617 2.73674 6.86L2.65033 5.50344C2.62729 5.04262 2.75978 4.67684 3.04779 4.4061C3.33581 4.13537 3.72751 4 4.2229 4H4.81909V4.99365H4.37843Z"/><path fill="#D6415F" d="M10 7.56852V8.56217H8.97178C8.46488 8.56217 8.2287 8.80122 8.26326 9.27933L8.34967 10.5927C8.37847 11.0593 8.24598 11.4308 7.95221 11.7073C7.65843 11.9896 7.26673 12.1307 6.7771 12.1307H6.18091V11.1284H6.62157C6.82895 11.1284 6.99024 11.0766 7.10544 10.9729C7.22065 10.8634 7.27537 10.7137 7.26961 10.5236L7.18321 9.17565C7.16016 8.88187 7.22929 8.63706 7.39058 8.4412C7.55763 8.24535 7.79092 8.11863 8.09046 8.06102C7.79092 8.00342 7.55763 7.87669 7.39058 7.68084C7.22929 7.48499 7.16016 7.24306 7.18321 6.95504L7.26961 5.60713C7.27537 5.39976 7.22065 5.24711 7.10544 5.14918C6.996 5.0455 6.83471 4.99365 6.62157 4.99365H6.18091V4H6.7771C7.27249 4 7.66419 4.13537 7.95221 4.4061C8.24022 4.67684 8.37271 5.04262 8.34967 5.50344L8.26326 6.86C8.24598 7.09617 8.29495 7.27474 8.41015 7.39571C8.52536 7.51091 8.71257 7.56852 8.97178 7.56852H10Z"/></svg>