<svg fill="none" height="24" viewBox="0 0 24 24" width="24" xmlns="http://www.w3.org/2000/svg"><g fill="#2e3d49"><path d="m3.52917 3c-.29225 0-.52917.23692-.52917.52917v6.94163c0 .2923.23692.5292.52917.5292h6.94163c.2923 0 .5292-.2369.5292-.5292v-6.94163c0-.29225-.2369-.52917-.5292-.52917zm0 10c-.29225 0-.52917.2369-.52917.5292v6.9416c0 .2923.23692.5292.52917.5292h6.94163c.2923 0 .5292-.2369.5292-.5292v-6.9416c0-.2923-.2369-.5292-.5292-.5292zm13.47083 0c-1.0609 0-2.0783.4214-2.8284 1.1716-.7502.7501-1.1716 1.7675-1.1716 2.8284s.4214 2.0783 1.1716 2.8284c.7501.7502 1.7675 1.1716 2.8284 1.1716s2.0783-.4214 2.8284-1.1716c.7502-.7501 1.1716-1.7675 1.1716-2.8284s-.4214-2.0783-1.1716-2.8284c-.7501-.7502-1.7675-1.1716-2.8284-1.1716z"/><path d="m13.1254 9.51436 3.3004-5.94088c.381-.68581 1.3674-.68581 1.7484 0l3.3004 5.94088c.3703.66654-.1116 1.48564-.8741 1.48564h-6.601c-.7625 0-1.2444-.8191-.8741-1.48564z"/></g></svg>