<svg xmlns="http://www.w3.org/2000/svg" width="24" height="24" fill="none" viewBox="0 0 24 24"><g clip-path="url(#clip0_172_5437)"><path fill="#4B4848" d="M2 9H14V15H2V9Z"/><path fill="#4B4848" fill-rule="evenodd" d="M14 9.75L15 9H17L14 11.25V9.75Z" clip-rule="evenodd"/><path fill="#4B4848" fill-rule="evenodd" d="M14 12.75L19 9H21L14 14.25V12.75Z" clip-rule="evenodd"/><path fill="#4B4848" fill-rule="evenodd" d="M22 14.25V12.75L19 15H21L22 14.25Z" clip-rule="evenodd"/><path fill="#4B4848" fill-rule="evenodd" d="M22 11.25V9.75L15 15H17L22 11.25Z" clip-rule="evenodd"/><path fill="#4B4848" fill-rule="evenodd" d="M21 9H19L14 12.75V14.25L21 9ZM15 15H17L22 11.25V9.75L15 15ZM21 15H19L22 12.75V14.25L21 15ZM15 9H17L14 11.25V9.75L15 9Z" clip-rule="evenodd"/></g><defs><clipPath id="clip0_172_5437"><rect width="24" height="24" fill="#fff"/></clipPath></defs></svg>