<svg xmlns="http://www.w3.org/2000/svg" width="47" height="38" fill="none" viewBox="0 0 47 38"><path fill="#A3B3BF" d="M22.8018 23.1912C22.8018 22.7714 23.142 22.4312 23.5618 22.4312C23.9816 22.4312 24.3219 22.7714 24.3219 23.1912V34.0786C24.3219 34.4984 23.9816 34.8386 23.5618 34.8386C23.142 34.8386 22.8018 34.4984 22.8018 34.0786V23.1912Z"/><path fill="#A3B3BF" d="M42.177 34.0514C42.177 34.4862 41.8246 34.8386 41.3898 34.8386C40.9551 34.8386 40.6026 34.4862 40.6026 34.0514V32.801C40.6026 32.1947 40.3326 31.6199 39.866 31.2328L37.6537 29.3975C37.0284 28.8789 36.6666 28.1087 36.6666 27.2963V23.2184C36.6666 22.7836 37.0191 22.4312 37.4538 22.4312C37.8886 22.4312 38.241 22.7836 38.241 23.2184V26.7556C38.241 27.568 38.6028 28.3381 39.2281 28.8568L41.3073 30.5817C41.8583 31.0387 42.177 31.7173 42.177 32.4331V34.0514Z"/><path fill="#A3B3BF" d="M6.7077 34.0514C6.7077 34.4862 6.35526 34.8386 5.9205 34.8386C5.48574 34.8386 5.1333 34.4862 5.1333 34.0514V32.4331C5.1333 31.7173 5.45207 31.0387 6.00298 30.5817L7.69009 29.1822C8.56377 28.4574 9.0693 27.3812 9.0693 26.246V23.2184C9.0693 22.7836 9.42174 22.4312 9.8565 22.4312C10.2913 22.4312 10.6437 22.7836 10.6437 23.2184V26.7263C10.6437 27.8998 10.1211 29.0122 9.218 29.7614L7.44437 31.2328C6.97772 31.6199 6.7077 32.1947 6.7077 32.801V34.0514Z"/><path fill="#A3B3BF" d="M40.3334 36.5998C40.3334 36.0791 40.7555 35.657 41.2762 35.657H41.5905C42.1112 35.657 42.5334 36.0791 42.5334 36.5998C42.5334 37.1206 42.1112 37.5427 41.5905 37.5427H41.2762C40.7555 37.5427 40.3334 37.1206 40.3334 36.5998Z"/><path fill="#A3B3BF" d="M4.83997 36.5998C4.83997 36.0791 5.2621 35.657 5.78282 35.657H6.09711C6.61783 35.657 7.03997 36.0791 7.03997 36.5998C7.03997 37.1206 6.61783 37.5427 6.09711 37.5427H5.78282C5.2621 37.5427 4.83997 37.1206 4.83997 36.5998Z"/><path fill="#A3B3BF" d="M22.5133 36.5998C22.5133 36.0791 22.9354 35.657 23.4562 35.657H23.7704C24.2912 35.657 24.7133 36.0791 24.7133 36.5998C24.7133 37.1206 24.2912 37.5427 23.7704 37.5427H23.4562C22.9354 37.5427 22.5133 37.1206 22.5133 36.5998Z"/><path fill="#EBEFF2" d="M41.6174 10.8821C41.6235 10.7871 41.6346 10.693 41.6346 10.5965C41.6346 7.79669 38.9232 5.52689 35.5785 5.52689C34.6178 5.52689 33.7126 5.71904 32.9055 6.05238C30.5304 2.70674 26.1823 0.457031 21.1958 0.457031C15.8315 0.457031 11.2048 3.05836 8.98226 6.83056C3.95026 7.19537 0 10.7254 0 15.0326C0 19.5824 4.40609 23.271 9.84092 23.271H39.3637C43.5442 23.271 46.9333 20.4337 46.9333 16.9337C46.9333 14.0908 44.6972 11.6852 41.6174 10.8821Z"/><path fill="#D0D7DD" d="M15.8967 22.0033C10.0436 22.0033 5.29877 18.0312 5.29877 13.1313C5.29877 10.7023 6.47433 8.49456 8.36317 6.89233C3.63481 7.49306 0 10.9064 0 15.0327C0 19.5825 4.4061 23.271 9.84094 23.271H39.3638C41.0639 23.271 42.6419 22.7959 43.9059 22.0036H15.8967V22.0033Z"/><path fill="#7071D4" d="M16.8649 9.7133C16.6053 9.10449 15.9128 8.69531 15.1401 8.69531C14.3677 8.69531 13.6749 9.10449 13.4163 9.7127L9.88573 17.9879C9.74465 18.3174 9.94982 18.6801 10.3441 18.7979C10.7351 18.9142 11.1705 18.743 11.3109 18.4142L12.4836 15.6663H17.797L18.9693 18.4142C19.0796 18.6732 19.3707 18.8351 19.6823 18.8351C19.7664 18.8351 19.8527 18.8231 19.9365 18.7979C20.3304 18.6801 20.5359 18.3174 20.3948 17.9879L16.8649 9.7133ZM13.0242 14.3986L14.8422 10.1384C14.931 9.92793 15.3489 9.92733 15.4391 10.139L17.2563 14.3986H13.0242Z"/><path fill="#7071D4" d="M25.879 8.69531H23.2296C22.395 8.69531 21.7153 9.26366 21.7153 9.96271V18.2011C21.7153 18.5509 22.0541 18.8348 22.4723 18.8348C22.8909 18.8348 23.2296 18.5509 23.2296 18.2011V15.6663H25.879C28.1743 15.6663 30.0423 14.1027 30.0423 12.1809C30.0423 10.2589 28.1743 8.69531 25.879 8.69531ZM25.879 14.3986H23.2296V9.96271H25.879C27.3396 9.96271 28.5284 10.9579 28.5284 12.1806C28.5284 13.4037 27.3396 14.3986 25.879 14.3986Z"/><path fill="#7071D4" d="M32.5508 8.69531C32.1322 8.69531 31.7938 8.97919 31.7938 9.32901V18.2011C31.7938 18.5509 32.1322 18.8348 32.5508 18.8348C32.969 18.8348 33.3078 18.5509 33.3078 18.2011V9.32901C33.3078 8.97889 32.969 8.69531 32.5508 8.69531Z"/><path fill="#5F60B4" d="M11.4169 14.3987L9.88573 17.988C9.74465 18.3175 9.94982 18.6802 10.3441 18.798C10.7351 18.9143 11.1705 18.7431 11.3109 18.4143L12.4836 15.6664H17.797L18.9693 18.4143C19.0796 18.6733 19.3707 18.8352 19.6823 18.8352C19.7664 18.8352 19.8527 18.8232 19.9365 18.798C20.3304 18.6802 20.5359 18.3175 20.3948 17.988L18.8637 14.3987H11.4169Z"/><path fill="#5F60B4" d="M23.23 18.2011V15.6663H25.8794C27.1695 15.6663 28.3243 15.1723 29.0884 14.3989H21.7161V18.2011C21.7161 18.5509 22.0548 18.8348 22.473 18.8348C22.8916 18.8348 23.23 18.5509 23.23 18.2011Z"/><path fill="#5F60B4" d="M32.5509 18.8348C32.1327 18.8348 31.7939 18.5512 31.7939 18.2011V14.3989H33.3079V18.2011C33.3079 18.5512 32.9688 18.8348 32.5509 18.8348Z"/><rect width="1.52" height="1.273" x="9.124" y="23.226" fill="#96A6B1"/><rect width="1.52" height="1.273" x="22.802" y="23.226" fill="#96A6B1"/><rect width="1.52" height="1.273" x="36.667" y="23.226" fill="#96A6B1"/></svg>