<svg width="24" height="24" viewBox="0 0 24 24" fill="none" xmlns="http://www.w3.org/2000/svg">
<path d="M24 0H0V24H24V0Z" fill="white"/>
<path d="M28.5 3.75H4.5V27.75H28.5V3.75Z" fill="white"/>
<path fill-rule="evenodd" clip-rule="evenodd" d="M22.1053 4.56081H4.56081V22.1053H22.1053V4.56081ZM23.9997 2.66638V23.9997H2.66638V2.66638H23.9997Z" fill="#EF7541"/>
<path d="M23.4998 2.9165H2.1665V24.2498H23.4998V2.9165Z" fill="#EF7541"/>
<path fill-rule="evenodd" clip-rule="evenodd" d="M0 0H21.75V21.75H0V0ZM0.746071 0.746071V21.0039H21.0039V0.746071H0.746071Z" fill="#060606"/>
<path d="M21 0.75H0.75V21H21V0.75Z" fill="white"/>
<path d="M8.95942 13.8367C8.87812 13.6918 8.8149 13.4066 8.7696 12.9812C8.29987 13.6601 7.5501 13.9997 6.5204 13.9998C5.75247 13.9998 5.14044 13.8142 4.68432 13.4428C4.22818 13.0715 4.00012 12.5555 4.00012 11.8948C4.00012 10.6182 4.89438 9.88935 6.68292 9.70823L7.73992 9.61313C8.09227 9.5679 8.34525 9.4842 8.49885 9.36195C8.65245 9.23963 8.72917 9.05625 8.72895 8.81175C8.72895 8.5131 8.6319 8.2935 8.43772 8.15303C8.24362 8.01255 7.91617 7.94265 7.45549 7.94348C6.95844 7.94348 6.60156 8.02718 6.38486 8.19465C6.16817 8.36213 6.04173 8.64945 6.00555 9.05663H4.32516C4.42402 7.46342 5.47191 6.66671 7.46884 6.6665C9.41122 6.6665 10.3822 7.3682 10.3821 8.77163V12.5059C10.3821 13.1216 10.477 13.5652 10.6668 13.8367H8.95942ZM8.2278 12.3362C8.56192 12.0419 8.72895 11.6186 8.72895 11.0663V10.4279C8.56642 10.5729 8.30002 10.668 7.92975 10.7132L7.00826 10.8217C6.55648 10.8762 6.23351 10.9826 6.03936 11.141C5.8452 11.2993 5.74812 11.5279 5.74812 11.8267C5.74812 12.1255 5.84975 12.3587 6.053 12.5261C6.25625 12.6935 6.54758 12.7773 6.927 12.7773C7.46004 12.7773 7.8936 12.6302 8.2278 12.3362Z" fill="#0A0A0A"/>
<path d="M12 15.9997V14.6664H18.6667V15.9997H12Z" fill="#0A0A0A"/>
</svg>
