<svg xmlns="http://www.w3.org/2000/svg" width="22" height="19" fill="none" viewBox="0 0 22 19"><path fill="#0C544C" d="M20.3784 2.50799C19.8883 2.50799 19.4923 2.11128 19.4923 1.6219C19.4923 1.13251 19.8883 0.7358 20.3784 0.7358C20.8686 0.7358 21.2645 1.13175 21.2645 1.6219C21.2639 1.85672 21.1704 2.08175 21.0043 2.24779C20.8383 2.41383 20.6133 2.50739 20.3784 2.50799ZM11.5795 17.6467C11.0894 17.6467 10.6934 17.25 10.6934 16.7606C10.6934 16.2712 11.0894 15.8745 11.5795 15.8745C12.0697 15.8745 12.4648 16.2704 12.4648 16.7606C12.4648 17.2507 12.0689 17.6467 11.5795 17.6467ZM20.3869 0.00134277C19.9568 0.00174832 19.5444 0.172776 19.2403 0.476888C18.9362 0.781 18.7652 1.19335 18.7648 1.62343C18.7648 1.81489 18.813 1.99257 18.8735 2.16259L11.2556 15.2036C10.5203 15.3568 9.95667 15.9794 9.95667 16.7606C9.95707 17.1907 10.1281 17.603 10.4322 17.9071C10.7363 18.2112 11.1487 18.3823 11.5787 18.3827C12.0087 18.3821 12.4208 18.2109 12.7248 17.9069C13.0287 17.6028 13.1997 17.1905 13.2001 16.7606C13.2001 16.5806 13.1518 16.416 13.0982 16.2551L20.7461 3.17122C21.4583 3.00044 22.0005 2.39005 22.0005 1.62419C22.0001 1.19411 21.8291 0.781766 21.525 0.477654C21.2209 0.173542 20.8085 0.00251448 20.3784 0.00210894"/><path fill="#073551" d="M13.741 2.50741C13.2508 2.50741 12.8549 2.1107 12.8549 1.62132C12.8549 1.13194 13.2508 0.735222 13.741 0.735222C14.2311 0.735222 14.6263 1.13117 14.6263 1.62132C14.6263 2.11147 14.2304 2.50741 13.741 2.50741ZM4.93365 17.6453C4.69883 17.6447 4.4738 17.5512 4.30775 17.3851C4.14171 17.2191 4.04816 16.9941 4.04755 16.7592C4.04755 16.2691 4.44427 15.8731 4.93365 15.8731C5.42303 15.8731 5.81974 16.2691 5.81974 16.7592C5.81974 17.2494 5.4238 17.6453 4.93365 17.6453ZM13.741 0C13.3109 0.000405544 12.8986 0.171433 12.5945 0.475545C12.2903 0.779657 12.1193 1.19201 12.1189 1.62208C12.1189 1.81355 12.1672 1.99123 12.2277 2.16125L4.61888 15.2038C3.88366 15.357 3.31922 15.9796 3.31922 16.7608C3.31963 17.1909 3.49066 17.6032 3.79477 17.9073C4.09888 18.2114 4.51123 18.3825 4.9413 18.3829C5.37138 18.3825 5.78373 18.2114 6.08785 17.9073C6.39196 17.6032 6.56299 17.1909 6.56339 16.7608C6.56339 16.5808 6.51514 16.4161 6.46153 16.2553L14.1094 3.17141C14.8216 3.00063 15.3638 2.39024 15.3638 1.62438C15.3634 1.1943 15.1924 0.781954 14.8883 0.477842C14.5842 0.17373 14.1718 0.00270258 13.7418 0.00229704L13.741 0ZM1.62208 5.21931C1.8569 5.21992 2.08194 5.31347 2.24798 5.47951C2.41402 5.64556 2.50757 5.87059 2.50818 6.10541C2.50757 6.34023 2.41402 6.56526 2.24798 6.7313C2.08194 6.89735 1.8569 6.9909 1.62208 6.9915C1.13194 6.9915 0.73599 6.59479 0.73599 6.10541C0.73599 5.61603 1.13194 5.21931 1.62208 5.21931ZM1.62208 7.72749C2.05216 7.72709 2.46451 7.55606 2.76862 7.25195C3.07274 6.94784 3.24376 6.53549 3.24417 6.10541C3.24417 5.9262 3.19515 5.76077 3.14154 5.59994C2.9271 4.95662 2.33739 4.48409 1.62208 4.48409C1.50721 4.48409 1.40765 4.52698 1.29889 4.54995C0.563673 4.70312 0 5.325 0 6.10618C0.000405544 6.53625 0.171434 6.9486 0.475546 7.25271C0.779658 7.55683 1.192 7.72785 1.62208 7.72826V7.72749ZM0.73599 11.772C0.73599 11.2818 1.1327 10.8859 1.62208 10.8859C2.11147 10.8859 2.50818 11.2818 2.50818 11.772C2.50818 12.2621 2.11147 12.6573 1.62208 12.6573C1.1327 12.6573 0.73599 12.2614 0.73599 11.772ZM3.24417 11.772C3.24417 11.592 3.19515 11.4273 3.14154 11.2665C2.9271 10.6232 2.33893 10.1507 1.62208 10.1507C1.50721 10.1507 1.40765 10.1936 1.29889 10.2158C0.563673 10.3689 0 10.9916 0 11.7727C0.000405544 12.2028 0.171434 12.6152 0.475546 12.9193C0.779658 13.2234 1.192 13.3944 1.62208 13.3948C2.05216 13.3944 2.46451 13.2234 2.76862 12.9193C3.07274 12.6152 3.24376 12.2028 3.24417 11.7727"/></svg>