<svg width="243" height="150" viewBox="0 0 243 150" fill="none" xmlns="http://www.w3.org/2000/svg">
<g clip-path="url(#clip0_1226_5436)">
<path d="M152.249 126.553C146.636 128.969 146.584 128.834 140.971 131.25C135.358 133.666 135.025 132.875 129.411 135.291C123.798 137.707 123.83 137.779 118.217 140.195C112.604 142.611 112.864 143.226 107.251 145.642C102.002 147.902 95.9833 147.391 90.9014 144.767C85.4237 141.935 85.3196 142.132 79.8419 139.289C74.3643 136.447 74.5518 136.103 69.0741 133.26C63.5965 130.417 63.5861 130.448 58.098 127.605C52.6099 124.762 52.4121 125.168 46.924 122.336C43.4458 120.534 43.5187 114.88 47.1115 113.328C52.7245 110.912 53.0161 111.589 58.6187 109.162C64.2213 106.736 63.9193 106.028 69.5323 103.612C75.1453 101.196 75.5098 102.029 81.1228 99.613C86.7359 97.197 86.7567 97.2282 92.3697 94.8122C97.6183 92.5525 103.617 92.063 108.699 94.6977C112.35 96.5861 116.006 98.4744 119.664 100.363C125.142 103.195 125.121 103.237 130.599 106.07C136.076 108.902 135.701 109.641 141.189 112.474C146.678 115.307 146.813 115.036 152.291 117.879C155.769 119.68 155.852 124.981 152.259 126.533L152.249 126.553Z" fill="#ECE6F3"/>
<path d="M188.864 83.5757C182.886 83.3674 182.897 82.8468 176.919 82.6385C170.942 82.4302 170.931 82.7114 164.943 82.5031C158.956 82.2948 158.945 82.701 152.968 82.4927C146.99 82.2844 146.99 82.1074 141.013 81.8991C135.035 81.6908 135.014 82.1595 129.037 81.9512C123.049 81.7429 123.08 81.0139 117.092 80.8057C111.115 80.5974 111.094 81.191 105.106 80.9827C99.118 80.7744 99.1389 80.0975 93.1614 79.8892C87.1838 79.681 87.1422 80.5557 81.1543 80.3475C80.4045 80.3266 79.863 80.4308 79.863 81.1806C79.863 86.3458 79.9983 86.3458 79.9983 91.511C79.9983 96.6762 79.4672 96.6762 79.4048 101.841C79.2486 103.601 80.6128 105.132 82.4456 106.08C87.8607 108.881 87.5587 109.454 92.9635 112.255C98.3682 115.057 98.4828 114.848 103.888 117.65C109.292 120.451 109.469 120.138 114.874 122.94C120.279 125.741 120.3 125.71 125.715 128.511C131.14 131.323 137.545 132.187 143.168 129.761C146.862 128.171 150.559 126.585 154.259 125.002C159.799 122.617 159.705 122.398 165.245 120.014C170.786 117.629 170.671 117.368 176.211 114.973C181.751 112.578 181.835 112.776 187.375 110.391C189.145 109.631 190.488 107.944 190.572 106.288C190.613 100.946 189.603 100.946 189.614 95.6036C189.624 90.2614 190.468 90.2614 190.468 84.9191C190.468 84.211 189.582 83.5965 188.874 83.5757H188.864Z" fill="#D5E1E6"/>
<path d="M188.874 83.1591C182.897 82.9508 182.886 83.0029 176.909 82.7946C170.931 82.5864 170.931 82.4302 164.954 82.2219C158.976 82.0136 158.945 82.6384 152.967 82.4302C146.99 82.2219 147 81.9199 141.012 81.7116C135.035 81.5033 135.035 81.2742 129.057 81.0659C123.08 80.8577 123.07 80.9306 117.082 80.7223C111.094 80.514 111.073 81.2222 105.095 81.0139C99.1074 80.8056 99.1283 80.2433 93.1404 80.035C87.1524 79.8267 87.1316 80.5765 81.1437 80.3682C80.3939 80.3474 79.3734 80.4307 79.3734 81.1701C79.3734 86.3353 79.29 86.3353 79.29 91.5005C79.29 96.6658 79.7587 96.6658 79.6858 101.831C79.5296 103.591 80.3314 105.642 82.1538 106.59C87.569 109.391 87.7877 108.954 93.2028 111.755C98.6076 114.557 98.5034 114.765 103.908 117.566C109.313 120.368 109.323 120.357 114.739 123.169C120.154 125.981 120.039 126.189 125.454 128.99C130.88 131.802 137.336 131.677 142.96 129.25C148.5 126.866 148.583 127.053 154.123 124.668C159.664 122.284 159.809 122.627 165.349 120.243C170.89 117.858 170.921 117.92 176.461 115.525C182.001 113.13 181.97 113.067 187.51 110.672C189.28 109.912 189.666 107.923 189.749 106.267C189.791 100.925 190.02 100.925 190.02 95.5827C190.02 90.2405 190.322 90.2405 190.322 84.8982C190.322 84.1901 189.603 83.1591 188.895 83.1383L188.874 83.1591Z" fill="#D5E1E6"/>
<path d="M188.864 83.409C182.886 83.2007 182.886 83.0341 176.909 82.8258C170.931 82.6176 170.9 83.4923 164.912 83.284C158.924 83.0758 158.935 82.8258 152.957 82.6176C146.98 82.4093 147 81.7532 141.023 81.5449C135.045 81.3367 135.045 81.3054 129.058 81.0971C123.07 80.8889 123.07 81.0138 117.082 80.8056C111.094 80.5973 111.083 81.0451 105.106 80.8368C99.1284 80.6285 99.1284 80.2328 93.1509 80.0245C87.1629 79.8162 87.1629 79.8371 81.175 79.6288C80.4252 79.608 79.5088 80.4411 79.5088 81.1909C79.5088 86.3561 79.9774 86.3561 79.9774 91.5213C79.9774 96.6866 79.3526 96.6866 79.2797 101.852C79.1235 103.612 80.2794 105.757 82.1123 106.705C87.5274 109.506 87.6732 109.204 93.0884 112.005C98.5035 114.807 98.3265 115.129 103.742 117.931C109.157 120.732 109.553 119.972 114.957 122.773C120.362 125.574 120.206 125.887 125.621 128.688C131.047 131.5 137.389 131.823 143.002 129.407C148.542 127.022 148.479 126.887 154.019 124.502C159.559 122.117 159.726 122.513 165.266 120.128C170.806 117.743 170.775 117.649 176.315 115.265C181.855 112.88 181.824 112.817 187.375 110.422C189.145 109.662 189.832 107.954 189.916 106.309C189.957 100.967 190.301 100.967 190.301 95.6244C190.301 90.2821 190.624 90.2821 190.634 84.9398C190.634 84.2317 189.582 83.4507 188.874 83.4194L188.864 83.409Z" fill="#D5E1E6"/>
<path d="M188.853 83.8983C182.876 83.69 182.865 83.8358 176.888 83.6275C170.91 83.4192 170.931 82.8152 164.943 82.607C158.955 82.3987 158.945 82.8256 152.967 82.6174C146.99 82.4091 147 81.8884 141.023 81.6801C135.045 81.4719 135.045 81.2115 129.068 81.0032C123.08 80.795 123.059 81.4198 117.082 81.2115C111.104 81.0032 111.083 81.4094 105.106 81.2115C99.1283 81.0137 99.1283 80.6075 93.1508 80.3992C87.1629 80.191 87.1525 80.5242 81.1646 80.3159C80.4148 80.2951 79.415 80.4305 79.415 81.1699C79.415 86.3351 79.8003 86.3351 79.8003 91.5003C79.8003 96.6655 79.8108 96.6655 79.7483 101.831C79.5921 103.591 80.6647 105.028 82.4975 105.975C87.9127 108.777 87.7044 109.172 93.1091 111.974C98.5139 114.775 98.5764 114.661 103.981 117.462C109.386 120.263 109.459 120.138 114.874 122.939C120.289 125.741 120.07 126.157 125.486 128.969C130.911 131.781 137.222 131.364 142.835 128.938C148.375 126.553 148.594 127.063 154.134 124.679C159.674 122.294 159.684 122.335 165.225 119.951C170.765 117.566 170.817 117.681 176.357 115.296C181.897 112.911 181.762 112.578 187.302 110.193C189.072 109.433 189.936 107.933 190.02 106.288C190.061 100.946 190.54 100.946 190.54 95.6033C190.54 90.2611 189.624 90.2611 189.624 84.9188C189.624 84.2107 189.572 83.9191 188.864 83.8879L188.853 83.8983Z" fill="#D5E1E6"/>
<path d="M81.1543 80.0872C80.4045 80.0559 79.9567 80.4308 79.9567 81.1806C79.9567 86.3459 79.9463 86.3459 79.9463 91.5111C79.9463 96.6763 79.9463 96.6763 79.8838 101.842C79.7276 103.601 80.4566 105.393 82.2894 106.34C87.7045 109.142 87.6733 109.204 93.0781 112.005C98.4828 114.807 98.5765 114.63 103.981 117.431C109.386 120.232 109.365 120.295 114.77 123.096C120.175 125.897 120.154 125.949 125.569 128.751C128.506 130.271 131.953 131.125 135.181 131.125C136.743 125.158 134.973 124.898 134.973 118.733C134.973 112.568 135.16 112.568 135.16 106.403C135.16 100.238 135.108 100.238 135.108 94.0625C135.108 87.8871 139.274 86.1272 134.806 81.8679C129.932 77.2234 128.225 81.5243 121.497 81.2848C114.78 81.0557 114.78 81.0244 108.053 80.7849C101.326 80.5454 101.326 80.5558 94.5985 80.3996C87.8712 80.2434 87.8712 80.3059 81.1439 80.0768L81.1543 80.0872Z" fill="#ABBBC1"/>
<mask id="mask0_1226_5436" style="mask-type:luminance" maskUnits="userSpaceOnUse" x="79" y="80" width="112" height="51">
<path d="M188.864 83.5549C182.886 83.3467 182.876 83.5549 176.888 83.3466C170.91 83.1384 170.921 82.7427 164.933 82.5344C158.945 82.3261 158.955 82.1282 152.978 81.92C147 81.7117 146.969 82.6385 140.981 82.4302C134.993 82.222 135.004 82.0137 129.026 81.8054C123.038 81.5971 123.049 81.2847 117.071 81.0764C111.094 80.8682 111.083 80.9515 105.106 80.7432C99.1283 80.5349 99.1075 80.8369 93.1195 80.6287C87.1316 80.4204 87.142 80.2329 81.1541 80.0247C80.4043 80.0038 80.1544 80.4308 80.1544 81.1806C80.1544 86.3458 79.4671 86.3458 79.4671 91.511C79.4671 96.6763 79.415 96.6763 79.3525 101.842C79.1963 103.601 80.4981 105.33 82.3205 106.278C87.7356 109.079 87.6836 109.173 93.0883 111.974C98.4931 114.775 98.3993 114.973 103.804 117.775C109.209 120.576 109.209 120.597 114.614 123.408C120.018 126.22 120.227 125.814 125.642 128.615C131.067 131.427 137.264 131.573 142.887 129.146C148.427 126.762 148.531 126.991 154.071 124.606C159.611 122.221 159.643 122.294 165.172 119.899C170.702 117.504 170.629 117.316 176.169 114.921C181.71 112.526 181.866 112.891 187.406 110.506C189.176 109.746 189.593 107.934 189.676 106.278C189.718 100.936 190.113 100.936 190.113 95.5932C190.113 90.251 189.718 90.251 189.728 84.9087C189.728 84.2006 189.561 83.5653 188.853 83.5341L188.864 83.5549Z" fill="white"/>
</mask>
<g mask="url(#mask0_1226_5436)">
<path d="M70.4381 24.5712C74.5932 25.6543 78.7171 26.6852 82.3723 28.5806C86.0275 30.4759 89.8077 32.8085 92.9735 35.4953C96.1393 38.182 98.6907 41.7331 101.19 45.0864C103.689 48.4396 106.293 51.8657 108.001 55.7084C109.708 59.5511 110.916 63.6645 111.729 67.8092C112.541 71.9539 112.874 76.1611 112.739 80.4203C112.603 84.6795 111.177 88.5639 110.083 92.719C109 96.8741 108.032 100.956 106.126 104.611C104.168 108.392 102.054 112.109 99.3676 115.275C96.6808 118.441 93.5254 121.492 90.1722 123.992C86.819 126.491 82.8722 128.22 79.0295 129.927C75.2076 131.625 71.1567 132.708 67.012 133.52C62.8673 134.332 58.7643 135.436 54.5154 135.301C50.402 135.165 46.1219 134.551 41.9669 133.468C37.8118 132.385 34.1045 130.198 30.4492 128.303C26.794 126.408 23.4199 123.762 20.2646 121.065C17.1092 118.368 13.8288 115.64 11.3295 112.286C8.83023 108.933 6.37258 105.413 4.67514 101.571C2.97769 97.728 2.25914 93.5416 1.43646 89.397C0.613768 85.2523 0.301355 81.1701 0.436734 76.9213C0.572113 72.6725 1.0928 68.6736 2.17583 64.5185C3.25887 60.3634 4.60224 56.3957 6.49755 52.7301C8.45534 48.9499 10.6422 45.3155 13.3394 42.1497C16.0366 38.9839 19.0566 35.8389 22.4098 33.3292C25.763 30.8195 29.8765 29.4657 33.7192 27.7579C37.5618 26.05 41.4358 24.665 45.5804 23.8527C49.7251 23.0404 53.8073 22.2594 58.0561 22.3948C62.1696 22.5302 66.283 23.4778 70.4381 24.5608V24.5712Z" fill="#FFCD6E"/>
</g>
<path d="M136.077 106.715C133.13 106.715 129.995 105.903 127.027 104.372C124.257 102.935 122.831 102.258 121.446 101.602C120.092 100.956 118.686 100.29 115.968 98.8839C113.271 97.4885 111.99 96.7387 110.636 95.9473C109.303 95.1662 107.939 94.3644 105.158 92.9273C102.42 91.511 101.045 90.8029 99.6703 90.0947C98.2957 89.3866 96.9315 88.6889 94.1927 87.2726C91.4435 85.8459 90.0584 85.1482 88.6838 84.4609C87.3092 83.7632 85.9346 83.0758 83.2062 81.6596C81.8211 80.941 81.3733 79.6705 81.4046 78.7125C81.4462 77.619 82.0607 76.7443 83.1124 76.2861C85.8409 75.1093 87.2363 74.6719 88.6942 74.2033C90.173 73.7347 91.6934 73.2557 94.578 72.0164C97.3793 70.8084 98.7852 70.2148 100.181 69.6317C101.586 69.0381 103.003 68.4445 105.814 67.2365C108.73 65.9764 110.115 65.1121 111.448 64.2686C112.74 63.4563 113.968 62.6857 116.655 61.5298C119.446 60.3322 120.842 59.7282 122.237 59.1346C123.653 58.5306 125.059 57.937 127.892 56.7186C129.693 55.948 131.661 55.5522 133.744 55.5522C136.764 55.5522 139.94 56.3749 142.94 57.9266C145.72 59.3637 147.188 60.0093 148.605 60.6238C150.042 61.2486 151.396 61.8422 154.082 63.2376C156.852 64.6747 158.227 65.3828 159.622 66.091C160.976 66.7887 162.351 67.4864 165.048 68.8923C167.818 70.3294 169.266 70.9855 170.671 71.6311C172.098 72.2872 173.452 72.9016 176.149 74.3074C178.888 75.7237 180.263 76.4319 181.637 77.14C183.012 77.8481 184.376 78.5459 187.115 79.9725C188.156 80.5141 188.75 81.6387 188.698 82.9925C188.656 84.1068 188.125 85.5023 186.761 86.0958C183.959 87.3038 182.554 87.887 181.158 88.4806C179.742 89.0742 178.336 89.6678 175.524 90.8758C172.671 92.1046 171.265 92.8231 169.901 93.5209C168.526 94.229 167.224 94.8851 164.465 96.0722L153.239 100.915C150.458 102.112 149.021 102.675 147.636 103.216C146.22 103.768 144.762 104.341 141.929 105.559C140.107 106.34 138.139 106.736 136.066 106.736L136.077 106.715Z" fill="white"/>
<path d="M133.754 57.0934C136.524 57.0934 139.461 57.8536 142.231 59.2907C145.064 60.759 146.553 61.4047 147.99 62.0399C149.396 62.6543 150.729 63.2375 153.374 64.6121C156.113 66.0284 157.487 66.7365 158.862 67.4447C160.236 68.1528 161.601 68.8505 164.339 70.2668C167.151 71.7247 168.609 72.3912 170.025 73.0369C171.431 73.6825 172.764 74.2865 175.44 75.6715C178.19 77.0982 179.564 77.7959 180.939 78.5041C182.303 79.2122 183.678 79.9099 186.417 81.3262C187.146 81.7011 187.166 82.6279 187.156 82.8987C187.135 83.5027 186.864 84.315 186.156 84.617C183.365 85.825 181.959 86.4081 180.564 87.0017C179.148 87.5953 177.732 88.1889 174.92 89.4073C172.025 90.657 170.588 91.3859 169.203 92.0941C167.849 92.7814 166.568 93.4374 163.85 94.6038C161.038 95.8118 159.632 96.4262 158.237 97.0302C156.841 97.6342 155.436 98.2382 152.634 99.4462C149.875 100.633 148.521 101.164 147.084 101.727C145.657 102.279 144.178 102.851 141.325 104.091C139.7 104.788 137.94 105.143 136.076 105.143C133.379 105.143 130.495 104.393 127.745 102.966C124.955 101.519 123.517 100.842 122.122 100.175C120.716 99.5087 119.383 98.8734 116.686 97.478C114.02 96.0929 112.76 95.364 111.427 94.5725C110.084 93.7811 108.688 92.9688 105.876 91.5109C103.127 90.0842 101.753 89.3865 100.378 88.6783C99.0138 87.9806 97.6392 87.2725 94.9108 85.8562C92.1511 84.4295 90.7661 83.7318 89.3811 83.0341C88.0064 82.3468 86.6422 81.649 83.9138 80.2432C83.1849 79.8683 82.9349 79.2226 82.9558 78.7436C82.9766 78.2646 83.2265 77.9105 83.716 77.7022C86.3715 76.5567 87.7253 76.1297 89.152 75.682C90.662 75.2029 92.2344 74.7135 95.1815 73.443C97.9724 72.235 99.3783 71.6518 100.774 71.0582C102.19 70.4647 103.606 69.8711 106.418 68.6527C109.448 67.3509 110.886 66.4449 112.271 65.5702C113.51 64.7891 114.687 64.0498 117.269 62.9355C120.07 61.7275 121.476 61.1339 122.872 60.5403C124.278 59.9363 125.694 59.3427 128.506 58.1347C130.109 57.4474 131.869 57.0934 133.744 57.0934M133.744 53.9692C131.536 53.9692 129.339 54.3754 127.266 55.2605C121.653 57.6765 121.643 57.6453 116.03 60.0717C110.417 62.4877 110.792 63.3625 105.179 65.7785C99.5657 68.1945 99.5449 68.1528 93.9423 70.5688C88.3293 72.9848 88.0898 72.4224 82.4767 74.8384C78.884 76.3901 78.9985 81.2325 82.4767 83.0341C87.9544 85.877 87.9856 85.8146 93.4737 88.6471C97.1254 90.5424 100.784 92.4273 104.45 94.3018C109.927 97.1343 109.782 97.4259 115.259 100.258C120.737 103.091 120.831 102.914 126.319 105.747C129.38 107.329 132.744 108.267 136.087 108.267C138.284 108.267 140.481 107.861 142.564 106.955C148.177 104.539 148.261 104.736 153.874 102.32C159.487 99.9044 159.487 99.894 165.1 97.478C170.713 95.062 170.556 94.6975 176.159 92.2815C181.772 89.8655 181.793 89.9176 187.406 87.5016C190.999 85.9499 191.332 80.3682 187.864 78.5666C184.212 76.6713 180.557 74.7829 176.898 72.9015C171.421 70.0585 171.275 70.3293 165.797 67.4967C162.146 65.6084 158.49 63.7235 154.832 61.8421C149.354 59.0095 149.167 59.3636 143.689 56.531C140.606 54.9377 137.17 53.9797 133.775 53.9797L133.744 53.9692Z" fill="#D5E1E6"/>
<path d="M182.303 98.6029C183.251 98.1551 184.303 98.707 184.625 99.8317C184.948 100.956 184.427 102.216 183.48 102.664C182.532 103.112 181.491 102.581 181.168 101.456C180.845 100.332 181.355 99.0402 182.303 98.5925V98.6029Z" fill="#FCBA44"/>
<path d="M182.303 98.6029C183.251 98.1551 184.303 98.707 184.625 99.8317C184.948 100.956 184.427 102.216 183.48 102.664C182.532 103.112 181.491 102.581 181.168 101.456C180.845 100.332 181.355 99.0402 182.303 98.5925V98.6029Z" stroke="white" stroke-width="1.33323" stroke-miterlimit="10"/>
<path d="M202.34 57.2392C196.362 57.031 196.372 56.6977 190.384 56.4894C184.397 56.2812 184.397 56.4061 178.419 56.1979C172.442 55.9896 172.452 55.4376 166.474 55.2294C160.497 55.0211 160.487 55.1669 154.509 54.9586C148.532 54.7503 148.532 54.6566 142.544 54.4483C136.556 54.2401 136.566 54.1672 130.578 53.9589C124.59 53.7506 124.601 53.6777 118.613 53.4694C112.625 53.2612 112.594 54.3338 106.606 54.1255C100.618 53.9172 100.639 53.3132 94.6507 53.105C93.9009 53.0841 93.0782 53.7506 93.0782 54.5004C93.0782 59.6656 93.2032 59.6656 93.2032 64.8309C93.2032 69.9961 92.9845 69.9961 92.922 75.1613C92.7658 76.9213 93.6926 79.2331 95.515 80.1808C100.93 82.9821 101.138 82.5759 106.543 85.3772C111.948 88.1785 112.031 88.0119 117.446 90.8132C122.862 93.6145 123.007 93.3334 128.412 96.1347C133.817 98.936 133.744 99.0922 139.159 101.893C144.585 104.705 150.666 104.664 156.29 102.237C161.83 99.8524 162.049 100.352 167.589 97.9675C173.129 95.5827 172.952 95.187 178.492 92.8023C184.032 90.4175 184.397 91.261 189.937 88.8763C195.477 86.4915 195.321 86.1166 200.861 83.7215C202.631 82.9612 203.339 81.2638 203.423 79.608C203.464 74.2657 203.485 74.2657 203.485 68.9235C203.485 63.5812 204.172 63.5812 204.172 58.239C204.172 57.5308 203.048 57.2705 202.34 57.2496V57.2392Z" fill="#D5E1E6"/>
<path d="M94.6511 52.9592C93.9013 52.928 93.5264 53.7403 93.5264 54.4797C93.5264 59.6449 93.1723 59.6449 93.1723 64.8101C93.1723 69.9753 93.1515 69.9753 93.089 75.1406C92.9328 76.9005 93.8596 78.8895 95.682 79.8372C99.2921 81.7047 102.902 83.5688 106.512 85.4294C111.917 88.2307 111.969 88.1474 117.374 90.9487C122.779 93.75 122.883 93.5625 128.298 96.3638C133.713 99.1651 133.526 99.5296 138.93 102.331C141.867 103.851 145.47 104.445 148.699 104.445C150.261 98.4778 148.386 98.2071 148.386 92.0421C148.386 85.8772 148.282 85.8772 148.282 79.7122C148.282 73.5473 148.709 73.5473 148.709 67.3719C148.709 61.1965 153.051 59.145 148.584 54.8858C143.71 50.2412 141.732 54.5942 135.004 54.3547C128.288 54.1256 128.267 54.5109 121.55 54.2714C114.833 54.0319 114.823 54.0839 108.095 53.7819C101.368 53.4799 101.378 53.1779 94.6615 52.9488L94.6511 52.9592Z" fill="#ABBBC1"/>
<mask id="mask1_1226_5436" style="mask-type:luminance" maskUnits="userSpaceOnUse" x="92" y="53" width="112" height="52">
<path d="M202.36 56.6668C196.383 56.4585 196.383 56.2398 190.405 56.0315C184.428 55.8233 184.417 56.1044 178.429 55.9066C172.442 55.7087 172.442 55.917 166.454 55.7087C160.466 55.5004 160.476 55.313 154.499 55.1047C148.521 54.8964 148.532 54.584 142.544 54.3757C136.556 54.1675 136.535 54.886 130.547 54.6777C124.559 54.4695 124.59 53.6884 118.613 53.4802C112.635 53.2719 112.594 54.2612 106.606 54.0529C100.618 53.8446 100.628 53.7093 94.6403 53.501C93.8905 53.4802 92.9533 53.7405 92.9533 54.4799C92.9533 59.6451 93.776 59.6451 93.776 64.8103C93.776 69.9756 92.8179 69.9756 92.7554 75.1408C92.5992 76.9007 93.8176 78.9627 95.64 79.8999C101.055 82.7012 100.951 82.8887 106.366 85.69C111.781 88.4913 111.75 88.5433 117.155 91.3446C122.56 94.1459 122.841 93.6148 128.256 96.4161C133.671 99.2174 133.577 99.3945 138.993 102.196C144.418 105.007 150.916 105.205 156.529 102.779C162.069 100.394 162.132 100.53 167.662 98.1448C173.191 95.7601 173.191 95.7497 178.732 93.3649C184.272 90.9802 183.97 90.272 189.51 87.8873C195.05 85.5025 195.227 85.9191 200.767 83.5239C202.537 82.7637 203.891 81.2433 203.974 79.5875C204.016 74.2452 203.568 74.2452 203.568 68.903C203.568 63.5607 203.235 63.5607 203.235 58.2184C203.235 57.5103 203.048 56.6772 202.34 56.646L202.36 56.6668Z" fill="white"/>
</mask>
<g mask="url(#mask1_1226_5436)">
<path d="M80.6546 24.4986C84.8097 25.5816 88.8086 26.8938 92.4638 28.7891C96.1191 30.6844 99.4202 33.5065 102.586 36.1933C105.752 38.88 108.616 41.9521 111.115 45.2949C113.614 48.6377 115.77 52.1888 117.478 56.0315C119.186 59.8742 121.195 63.644 122.008 67.7886C122.82 71.9333 122.653 76.1405 122.508 80.3997C122.362 84.6589 122.122 88.7516 121.039 92.9067C119.956 97.0618 117.738 100.686 115.843 104.341C113.885 108.121 112.312 112.13 109.615 115.296C106.918 118.462 103.263 120.836 99.9097 123.346C96.5564 125.856 93.2136 128.511 89.3709 130.219C85.5283 131.927 81.3732 132.719 77.2285 133.531C73.0838 134.343 69.012 134.52 64.7528 134.374C60.4935 134.229 56.3489 134.468 52.1938 133.375C48.0387 132.292 44.1648 130.469 40.5095 128.563C36.8543 126.658 33.1262 124.325 29.9708 121.638C26.8154 118.951 23.9516 115.692 21.4419 112.339C18.9322 108.986 16.6307 105.372 14.9229 101.54C13.215 97.7074 12.3923 93.5419 11.5696 89.3972C10.747 85.2525 9.72641 81.1391 9.86179 76.8903C9.99717 72.6415 10.7053 68.5176 11.7883 64.3625C12.8714 60.2074 14.8708 56.4272 16.7661 52.772C18.6614 49.1167 21.3898 45.7843 24.087 42.629C26.7842 39.4736 29.3668 35.9954 32.72 33.4857C36.0733 30.976 40.0617 29.4555 43.9044 27.7477C47.7471 26.0398 51.5794 24.4153 55.724 23.603C59.8687 22.7907 63.9926 22.3117 68.2518 22.4471C72.3652 22.5825 76.4995 23.4156 80.6546 24.4986Z" fill="#FFCD6E"/>
</g>
<path d="M95.9316 79.3584C101.409 82.1909 101.232 82.5346 106.71 85.3776C112.188 88.2101 111.99 88.6058 117.467 91.4384C122.945 94.2709 122.966 94.2501 128.443 97.0826C133.921 99.9152 134.213 99.3633 139.701 102.196C144.783 104.83 150.604 105.08 155.852 102.81C161.466 100.394 161.507 100.488 167.12 98.0719C172.733 95.656 172.879 95.9892 178.482 93.5732C184.084 91.1572 184.178 91.3551 189.791 88.9391C195.404 86.5231 195.279 86.2211 200.892 83.8051" stroke="#80949C" stroke-width="1.33323" stroke-linecap="round" stroke-linejoin="round"/>
<path d="M148.208 79.8058C145.479 79.8058 142.845 79.1601 140.398 77.8896C137.68 76.4838 136.326 75.7236 135.014 74.9842C133.681 74.2344 132.296 73.4638 129.536 72.0267C126.776 70.6 125.36 69.9023 123.996 69.2358C122.642 68.5693 121.236 67.8924 118.518 66.4761C115.727 65.0286 114.269 64.3934 112.853 63.779C111.416 63.1541 110.062 62.5606 107.375 61.1651C104.699 59.7801 103.46 58.9886 102.148 58.1451C100.836 57.3016 99.4818 56.4268 96.6701 54.9793C95.5559 54.4066 94.9102 53.4173 94.9519 52.3446C94.9935 51.3033 95.6392 50.4389 96.743 49.9599C99.6276 48.7207 101.023 47.9292 102.377 47.1586C103.71 46.3984 104.98 45.6798 107.698 44.5135C110.385 43.3576 111.781 43.0139 113.27 42.6494C114.811 42.2745 116.404 41.8788 119.32 40.6187C122.101 39.4212 123.506 38.8067 124.891 38.2027C126.308 37.5883 127.703 36.9739 130.536 35.7555C133.337 34.5475 134.743 33.9227 136.138 33.3083C137.534 32.6834 138.929 32.069 141.741 30.861C144.261 29.778 146.812 29.2261 149.333 29.2261C151.853 29.2261 154.352 29.8092 156.581 30.9652C159.257 32.3502 160.496 33.1417 161.808 33.9748C163.12 34.8079 164.474 35.6826 167.286 37.1301C170.098 38.5881 171.608 39.1712 173.066 39.744C174.513 40.3063 175.877 40.8478 178.543 42.2225C181.272 43.6387 182.615 44.3677 183.969 45.0967C185.333 45.836 186.697 46.5754 189.457 48.0021C192.154 49.3976 193.424 50.1578 194.778 50.9492C196.101 51.7406 197.475 52.5529 200.256 53.99C201.381 54.5732 202.026 55.5937 201.985 56.7393C201.943 57.8223 201.297 58.7179 200.204 59.1865C197.361 60.4049 195.955 61.0922 194.58 61.7483C193.237 62.3939 191.852 63.0604 189.082 64.258C186.333 65.4452 184.958 65.9034 183.49 66.4032C182.032 66.8927 180.522 67.403 177.658 68.6318L166.432 73.4638C163.631 74.6718 162.235 75.2862 160.84 75.9006C159.434 76.515 158.038 77.1294 155.227 78.3478C152.967 79.3267 150.613 79.8162 148.239 79.8162L148.208 79.8058Z" fill="white"/>
<path d="M149.333 30.7675C151.666 30.7675 153.863 31.2882 155.852 32.3296C158.466 33.6834 159.674 34.454 160.955 35.2767C162.298 36.1306 163.683 37.0158 166.547 38.505C169.432 39.9941 170.983 40.5981 172.472 41.1917C173.878 41.7436 175.211 42.2643 177.804 43.6077C180.512 45.0136 181.876 45.7529 183.199 46.4715C184.542 47.2005 185.937 47.9607 188.707 49.3978C191.363 50.7724 192.623 51.5222 193.946 52.3032C195.289 53.1051 196.684 53.9278 199.506 55.3857C200.329 55.8126 200.402 56.4375 200.392 56.6874C200.381 57.0102 200.225 57.4684 199.548 57.76C196.684 58.9993 195.247 59.6866 193.873 60.3531C192.488 61.0195 191.175 61.6548 188.437 62.8315C185.75 63.9875 184.396 64.4457 182.969 64.9247C181.48 65.4246 179.939 65.9452 177.023 67.2053C174.222 68.4133 172.816 69.0173 171.41 69.6213C170.004 70.2253 168.598 70.8293 165.797 72.0373C162.975 73.2557 161.58 73.8701 160.174 74.4845C158.778 75.0989 157.383 75.7134 154.592 76.9109C152.53 77.7961 150.385 78.2543 148.219 78.2543C145.74 78.2543 143.355 77.6712 141.116 76.5152C138.43 75.1198 137.138 74.4012 135.785 73.6306C134.441 72.8704 133.046 72.0894 130.255 70.6523C127.485 69.2152 126.058 68.5174 124.684 67.851C123.34 67.1949 121.945 66.5076 119.237 65.1121C116.405 63.6438 114.915 62.9981 113.478 62.3629C112.072 61.7485 110.74 61.1653 108.094 59.7907C105.481 58.4369 104.273 57.6663 103.002 56.8436C101.659 55.9793 100.274 55.0941 97.3995 53.6049C96.8267 53.3133 96.5143 52.876 96.5247 52.4073C96.5351 51.9908 96.8371 51.6367 97.3786 51.3972C100.336 50.1163 101.773 49.304 103.158 48.523C104.46 47.7836 105.678 47.0859 108.334 45.9508C110.896 44.8469 112.239 44.5137 113.655 44.17C115.186 43.7952 116.915 43.3682 119.956 42.0561C122.767 40.8481 124.173 40.2336 125.579 39.6192C126.975 39.0152 128.37 38.4008 131.171 37.1928C133.993 35.9744 135.42 35.3392 136.805 34.7248C138.169 34.1208 139.586 33.4855 142.366 32.2879C144.688 31.2882 147.032 30.7779 149.343 30.7779M149.343 27.6538C146.573 27.6538 143.782 28.2786 141.137 29.4137C135.524 31.8297 135.556 31.8922 129.943 34.3186C124.329 36.745 124.34 36.7659 118.727 39.1819C113.114 41.5978 112.718 40.6606 107.105 43.0766C101.492 45.4926 101.763 46.107 96.1498 48.523C92.5571 50.0747 92.4946 54.5734 95.9728 56.3646C101.45 59.2075 101.19 59.7178 106.668 62.5504C112.145 65.3933 112.333 65.0288 117.821 67.8614C123.299 70.6939 123.361 70.569 128.839 73.4119C134.316 76.2445 134.223 76.4319 139.7 79.2749C142.397 80.6703 145.313 81.368 148.229 81.368C150.801 81.368 153.384 80.8369 155.842 79.7747C161.455 77.3587 161.434 77.3171 167.047 74.9011C172.66 72.4851 172.66 72.4851 178.273 70.0691C183.886 67.6531 184.084 68.1113 189.686 65.6953C195.299 63.2793 195.195 63.0398 200.808 60.6238C204.401 59.0722 204.432 54.4068 200.964 52.6052C195.487 49.7622 195.643 49.4498 190.165 46.6069C184.688 43.7639 184.74 43.6598 179.262 40.8168C173.784 37.9843 173.482 38.557 168.005 35.7245C162.527 32.8919 162.777 32.3921 157.299 29.5595C154.779 28.2578 152.072 27.6538 149.343 27.6538Z" fill="#D5E1E6"/>
<path d="M195.779 71.9017C196.727 71.454 197.768 72.0267 198.091 73.1514C198.414 74.2761 197.924 75.5674 196.977 76.0152C196.029 76.463 194.977 75.9006 194.654 74.776C194.332 73.6513 194.831 72.36 195.779 71.9122V71.9017Z" fill="#FCBA44"/>
<path d="M195.779 71.9017C196.727 71.454 197.768 72.0267 198.091 73.1514C198.414 74.2761 197.924 75.5674 196.977 76.0152C196.029 76.463 194.977 75.9006 194.654 74.776C194.332 73.6513 194.831 72.36 195.779 71.9122V71.9017Z" stroke="white" stroke-width="1.33323" stroke-miterlimit="10"/>
<path d="M82.4355 106.08C87.9132 108.913 87.8403 109.069 93.3179 111.912C98.7956 114.755 98.5561 115.203 104.034 118.045C109.511 120.888 109.491 120.93 114.979 123.763C120.467 126.595 120.644 126.252 126.121 129.084C131.203 131.719 137.389 132.396 142.648 130.136C148.261 127.72 148.094 127.324 153.697 124.908C159.3 122.492 159.258 122.378 164.871 119.962C170.484 117.546 170.421 117.389 176.035 114.973C181.648 112.557 181.866 113.057 187.479 110.641" stroke="#80949C" stroke-width="1.33323" stroke-linecap="round" stroke-linejoin="round"/>
<path d="M182.043 29.747C176.066 29.5387 176.076 28.9763 170.099 28.7681C164.121 28.5598 164.1 28.9659 158.123 28.7577C152.145 28.5494 152.124 28.9347 146.147 28.7264C140.169 28.5181 140.169 28.4973 134.182 28.289C128.194 28.0808 128.225 27.4663 122.237 27.2581C116.249 27.0498 116.249 27.0186 110.272 26.8103C104.294 26.602 104.284 26.7686 98.3061 26.5603C92.3286 26.3521 92.3182 26.3 86.3303 26.0917C80.3423 25.8835 80.3528 25.5294 74.3648 25.3211C73.6151 25.3003 73.4797 26.3417 73.4797 27.081C73.4797 32.2463 72.8444 32.2463 72.8444 37.4115C72.8444 42.5767 72.5424 42.5767 72.4799 47.742C72.3237 49.5019 73.8233 50.9806 75.6457 51.9283C81.0609 54.7296 80.686 55.4482 86.0907 58.2495C91.4955 61.0508 91.6517 60.7592 97.0564 63.5605C102.461 66.3618 102.42 66.4555 107.835 69.2568C113.25 72.0581 113.26 72.0373 118.675 74.8386C124.101 77.6503 130.641 77.8586 136.254 75.4426C141.794 73.0578 141.607 72.61 147.147 70.2253C152.687 67.8405 152.874 68.2779 158.414 65.8932C163.955 63.5084 164.048 63.7167 169.588 61.3215C175.129 58.9264 174.816 58.2078 180.356 55.8126C182.127 55.0524 183.147 53.8444 183.241 52.1886C183.282 46.8464 183.605 46.8464 183.605 41.5041C183.605 36.1618 183.376 36.1618 183.376 30.8196C183.376 30.1114 182.762 29.7574 182.054 29.7365L182.043 29.747Z" fill="#D5E1E6"/>
<path d="M74.3547 25.7377C73.6049 25.7065 72.8863 26.3521 72.8863 27.0915C72.8863 32.2567 72.9176 32.2567 72.9176 37.422C72.9176 42.5872 72.8343 42.5872 72.7614 47.7524C72.6052 49.5123 73.7403 51.1577 75.5731 52.095C80.9883 54.8963 80.9258 55.0108 86.3409 57.8121C91.7561 60.6134 91.6832 60.7384 97.0879 63.5397C102.493 66.341 102.566 66.216 107.981 69.0173C113.396 71.8186 113.438 71.7353 118.842 74.5471C121.779 76.0675 125.174 77.0464 128.413 77.0464C129.975 71.0793 127.923 70.8085 127.923 64.6436C127.923 58.4786 127.975 58.4786 127.975 52.3137C127.975 46.1487 127.965 46.1487 127.965 39.9733C127.965 33.798 132.672 31.8506 128.204 27.5914C123.331 22.9468 121.446 27.3623 114.718 27.1227C107.991 26.8832 107.991 27.2061 101.264 26.9665C94.5366 26.727 94.547 26.4042 87.8197 26.1647C81.0924 25.9252 81.0924 25.9564 74.3651 25.7169L74.3547 25.7377Z" fill="#ABBBC1"/>
<mask id="mask2_1226_5436" style="mask-type:luminance" maskUnits="userSpaceOnUse" x="72" y="25" width="112" height="53">
<path d="M182.064 29.0495C176.087 28.8412 176.076 28.987 170.099 28.7787C164.121 28.5705 164.101 29.1224 158.113 28.9141C152.125 28.7058 152.146 28.258 146.168 28.0498C140.191 27.8415 140.191 27.6124 134.213 27.4041C128.236 27.1958 128.204 28.0706 122.216 27.8623C116.228 27.654 116.249 27.2792 110.261 27.0709C104.284 26.8626 104.284 26.7793 98.296 26.571C92.308 26.3627 92.3289 25.8837 86.341 25.6754C80.353 25.4672 80.3218 26.4044 74.3339 26.1961C73.5841 26.1753 73.1884 26.3419 73.1884 27.0917C73.1884 32.2569 72.6573 32.2569 72.6573 37.4222C72.6573 42.5874 72.6781 42.5874 72.6156 47.7526C72.4594 49.5126 73.532 51.5745 75.3544 52.5221C80.7696 55.3234 81.0508 54.7715 86.4555 57.5728C91.8602 60.3741 91.4854 61.1135 96.8901 63.9148C102.295 66.7161 102.305 66.7057 107.72 69.507C113.136 72.3083 113.156 72.2666 118.572 75.068C123.997 77.8797 130.652 77.8588 136.265 75.4428C141.805 73.0581 141.95 73.4018 147.491 71.017C153.031 68.6322 152.895 68.3094 158.425 65.9247C163.955 63.5399 163.996 63.6024 169.537 61.2176C175.077 58.8329 174.858 58.3226 180.398 55.9379C182.168 55.1776 183.481 53.8551 183.564 52.2097C183.606 46.8675 183.074 46.8675 183.074 41.5252C183.074 36.1829 183.376 36.1829 183.376 30.8407C183.376 30.1325 182.783 29.0807 182.075 29.0599L182.064 29.0495Z" fill="white"/>
</mask>
<g mask="url(#mask2_1226_5436)">
<path d="M70.4699 24.4465C74.625 25.5295 78.7905 26.5292 82.4561 28.4349C86.1218 30.3407 89.3709 33.3398 92.5262 36.037C95.6816 38.7342 98.9828 41.525 101.482 44.8783C103.981 48.2315 105.7 52.1471 107.408 55.9794C109.115 59.8116 110.053 63.8313 110.875 67.976C111.698 72.1207 112.375 76.1404 112.24 80.3996C112.104 84.6589 111.448 88.6265 110.365 92.7816C109.282 96.9367 108.251 101.05 106.356 104.705C104.398 108.486 101.565 111.651 98.8682 114.817C96.1711 117.983 93.2552 121.086 89.9124 123.586C86.5696 126.085 82.956 128.334 79.1237 130.042C75.2915 131.75 71.1468 132.437 67.0021 133.25C62.8574 134.062 58.8065 135.416 54.5576 135.28C50.3088 135.145 46.237 134.239 42.0819 133.156C37.9268 132.073 33.8759 130.698 30.2207 128.803C26.5654 126.908 23.1497 124.117 19.9839 121.419C16.8181 118.722 14.0689 115.463 11.5696 112.12C9.07028 108.777 6.80008 105.226 5.09222 101.383C3.38436 97.5407 2.1243 93.5627 1.31202 89.418C0.499747 85.2733 -0.114666 81.1599 0.0207135 76.911C0.156093 72.6622 1.19747 68.705 2.29092 64.5499C3.37395 60.3948 4.98808 56.5938 6.88339 52.9385C8.84118 49.1583 10.7781 45.4302 13.4649 42.2644C16.1516 39.0986 19.4112 36.3182 22.7644 33.8189C26.1176 31.3196 29.8562 29.4242 33.6884 27.7164C37.5207 26.0085 41.2801 23.9466 45.4248 23.1239C49.5694 22.3012 53.787 22.6032 58.0358 22.7386C62.2847 22.874 66.3044 23.3634 70.4595 24.4465H70.4699Z" fill="#FFCD6E"/>
</g>
<path d="M75.2393 52.7305C80.7169 55.563 80.8523 55.3027 86.3403 58.1352C91.8284 60.9678 91.9534 60.697 97.431 63.54C102.909 66.3829 102.867 66.4662 108.345 69.3092C113.822 72.1522 114.051 71.7148 119.529 74.5577C124.611 77.1924 130.172 77.3903 135.431 75.1305C141.044 72.7145 141.19 73.0686 146.803 70.6526C152.416 68.2366 152.26 67.8721 157.862 65.4561C163.465 63.0401 163.735 63.6337 169.349 61.2177C174.962 58.8017 174.847 58.5205 180.46 56.1045" stroke="#80949C" stroke-width="1.33323" stroke-linecap="round" stroke-linejoin="round"/>
<path d="M126.424 52.6469C123.997 52.6469 121.758 52.1262 119.79 51.1057C117.145 49.7311 115.937 48.898 114.666 48.0128C113.375 47.1068 112.032 46.18 109.199 44.7116C106.377 43.2537 104.846 42.681 103.367 42.1394C101.909 41.6083 100.545 41.0981 97.8898 39.7234C95.2551 38.3592 94.0887 37.4949 92.8391 36.5785C91.5582 35.6308 90.2252 34.6519 87.3719 33.1732C84.6018 31.7361 83.1543 31.0696 81.7484 30.4344C80.3217 29.7783 78.9784 29.1639 76.2708 27.758C75.1982 27.1957 74.5733 26.2272 74.615 25.1442C74.6567 24.0507 75.344 23.1135 76.4686 22.624C79.2491 21.4264 80.6654 20.8537 82.0713 20.2913C83.4771 19.729 84.9246 19.1354 87.7468 17.917C90.6001 16.6882 92.006 15.9696 93.3702 15.2823C94.7448 14.5846 96.0569 13.9181 98.8166 12.7309C101.618 11.5229 103.024 10.9294 104.43 10.3358C105.835 9.74219 107.252 9.1382 110.063 7.9302C112.896 6.71179 114.312 6.03489 115.676 5.37882C117.02 4.73317 118.415 4.0771 121.196 2.87952C123.216 2.00476 125.393 1.56738 127.673 1.56738C130.568 1.56738 133.526 2.29635 136.202 3.69179C138.962 5.11848 140.378 5.80579 141.753 6.47227C143.106 7.12834 144.512 7.81565 147.23 9.22151C149.907 10.6065 151.146 11.398 152.458 12.2311C153.77 13.0642 155.124 13.9285 157.925 15.376C160.685 16.8027 166.173 19.6249 168.891 21.0411C171.703 22.4991 173.223 23.0822 174.681 23.6446C176.128 24.2069 177.493 24.7276 180.159 26.1126C181.2 26.6542 181.804 27.6955 181.762 28.8931C181.731 29.872 181.2 31.1425 179.836 31.7257C177.034 32.9337 175.629 33.5168 174.223 34.1104C172.806 34.704 171.401 35.2872 168.578 36.5056C165.725 37.7344 164.319 38.453 162.955 39.1403C161.57 39.838 160.268 40.5045 157.509 41.6916C154.718 42.8892 153.312 43.4724 151.906 44.0452C150.479 44.6283 149.063 45.2115 146.231 46.4299C143.481 47.6171 142.107 48.0753 140.638 48.5647C139.18 49.0542 137.66 49.554 134.796 50.7933C131.974 52.0117 129.058 52.6573 126.371 52.6573L126.424 52.6469Z" fill="white"/>
<path d="M127.673 3.1295C130.318 3.1295 133.026 3.8064 135.484 5.07688C138.264 6.51398 139.691 7.2117 141.076 7.87818C142.482 8.56549 143.815 9.21114 146.522 10.6066C149.136 11.9604 150.354 12.731 151.635 13.5537C152.979 14.4076 154.364 15.2928 157.227 16.7715C159.966 18.1878 161.341 18.896 162.716 19.6041C164.09 20.3122 165.454 21.0204 168.204 22.4366C171.099 23.9362 172.65 24.5298 174.15 25.113C175.556 25.6545 176.889 26.1648 179.471 27.5081C180.159 27.8622 180.242 28.4974 180.232 28.8411C180.232 29.091 180.127 29.9137 179.253 30.299C176.462 31.4966 175.066 32.0902 173.66 32.6734C172.244 33.267 170.828 33.8605 168.006 35.0685C165.111 36.3182 163.674 37.0472 162.299 37.7449C160.945 38.4322 159.664 39.0883 156.946 40.2546C154.166 41.4522 152.739 42.0354 151.365 42.5977C149.959 43.1705 148.511 43.764 145.679 44.9824C142.992 46.1384 141.638 46.5862 140.211 47.0652C138.722 47.5651 137.171 48.0753 134.244 49.3354C131.61 50.4705 128.912 51.0745 126.444 51.0745C124.268 51.0745 122.279 50.6163 120.529 49.7103C117.968 48.3877 116.812 47.5755 115.583 46.7215C114.25 45.7843 112.865 44.8262 109.939 43.3162C107.023 41.8062 105.45 41.2231 103.93 40.6607C102.524 40.14 101.201 39.6506 98.6292 38.328C96.1091 37.0263 94.9844 36.1932 93.7868 35.3185C92.4538 34.3396 91.0688 33.319 88.1113 31.7882C85.2996 30.3303 83.8417 29.6638 82.4254 29.0181C81.0195 28.3725 79.6866 27.7581 77.0102 26.373C76.2813 25.9981 76.1875 25.4775 76.1979 25.1963C76.1979 24.9151 76.3437 24.3944 77.1144 24.0612C79.8844 22.8636 81.3111 22.2908 82.6857 21.7389C84.0916 21.1662 85.5495 20.583 88.3925 19.3542C91.2875 18.1045 92.7246 17.3755 94.1096 16.6778C95.4634 15.9905 96.7443 15.3344 99.4623 14.1681C102.264 12.9601 103.659 12.3665 105.065 11.7729C106.481 11.1793 107.887 10.5753 110.699 9.36735C113.563 8.13853 114.989 7.45122 116.374 6.79515C117.77 6.12867 119.082 5.50384 121.831 4.31667C123.653 3.52523 125.632 3.1295 127.684 3.1295M127.684 0.00537109C125.268 0.00537109 122.862 0.473991 120.592 1.44247C114.979 3.85847 115.073 4.07716 109.46 6.49315C103.847 8.90915 103.826 8.8779 98.2127 11.2939C92.5996 13.7099 92.7558 14.0744 87.1532 16.4904C81.5402 18.9064 81.4881 18.7814 75.8751 21.1974C72.2824 22.749 72.0949 27.3519 75.5731 29.1535C81.0508 31.9965 81.1966 31.7257 86.6742 34.5687C92.1518 37.4116 91.7041 38.276 97.1921 41.1189C102.67 43.9515 103.024 43.2746 108.501 46.1071C113.979 48.9397 113.604 49.6686 119.082 52.5012C121.383 53.6988 123.893 54.209 126.434 54.209C129.496 54.209 132.599 53.4593 135.473 52.22C141.086 49.804 141.294 50.2831 146.907 47.8671C152.52 45.4511 152.562 45.5552 158.175 43.1392C163.788 40.7232 163.632 40.3691 169.245 37.9532C174.858 35.5372 174.879 35.5996 180.492 33.1836C184.085 31.632 184.387 26.5501 180.919 24.7485C175.441 21.9055 175.129 22.5095 169.641 19.677C165.989 17.7817 162.334 15.8933 158.675 14.0119C153.197 11.1793 153.447 10.6899 147.97 7.84694C142.492 5.01439 142.419 5.14977 136.941 2.31723C134.057 0.817645 130.87 0.0157849 127.694 0.0157849L127.684 0.00537109Z" fill="#D5E1E6"/>
<path d="M175.493 44.514C176.441 44.0662 177.482 44.6181 177.815 45.7428C178.148 46.8675 177.628 48.1276 176.68 48.5754C175.732 49.0232 174.712 48.4817 174.389 47.357C174.066 46.2323 174.545 44.9514 175.503 44.5036L175.493 44.514Z" fill="#FCBA44"/>
<path d="M175.493 44.514C176.441 44.0662 177.482 44.6181 177.815 45.7428C178.148 46.8675 177.628 48.1276 176.68 48.5754C175.732 49.0232 174.712 48.4817 174.389 47.357C174.066 46.2323 174.545 44.9514 175.503 44.5036L175.493 44.514Z" stroke="white" stroke-width="1.33323" stroke-miterlimit="10"/>
<path d="M128.193 76.9841C128.193 73.0963 128.193 69.2119 128.193 65.3311" stroke="#80949C" stroke-width="1.33323" stroke-linecap="round" stroke-linejoin="round"/>
<path d="M148.344 103.945C148.344 96.6347 148.302 96.6347 148.302 89.3242" stroke="#80949C" stroke-width="1.33323" stroke-linecap="round" stroke-linejoin="round"/>
<path d="M135.993 131.219C135.993 125.79 135.993 120.364 135.993 114.942" stroke="#80949C" stroke-width="1.33323" stroke-linecap="round" stroke-linejoin="round"/>
<path d="M109.386 110.672C107.657 113.65 103.898 114.109 100.919 111.682C97.9411 109.256 96.858 104.861 98.5867 101.893C100.315 98.915 104.179 98.4985 107.157 100.925C110.136 103.351 111.114 107.704 109.386 110.683V110.672Z" fill="#80949C"/>
<path d="M61.4204 59.0618C65.0236 59.999 68.2415 61.6236 70.7095 64.0708C73.1776 66.518 74.875 69.8504 75.8331 73.2974C76.7912 76.7444 76.9474 80.2121 76.0101 83.8153C75.0729 87.4185 73.3234 90.5947 70.8865 93.0627C68.4497 95.5308 65.1798 97.4365 61.7224 98.3842C58.2651 99.3318 54.6931 99.5713 51.09 98.6237C47.4868 97.6864 44.2794 95.7807 41.8009 93.3439C39.3224 90.9071 37.5 87.5434 36.5419 84.0861C35.5839 80.6287 35.386 77.0464 36.3337 73.4432C37.2709 69.84 39.3536 66.8096 41.8009 64.3311C44.2481 61.8527 47.4243 59.8324 50.8713 58.8847C54.3182 57.9371 57.8173 58.1141 61.4204 59.0618Z" fill="white"/>
<path d="M103.929 106.184C101.659 108.111 99.9721 110.589 98.3371 113.078C96.0877 116.504 93.5884 120.066 92.1305 123.887C90.5476 128.053 89.7978 132.354 90.0477 136.165C90.3289 140.372 92.0472 144.205 95.7649 146.891C98.9515 149.193 104.106 148.922 107.418 146.006C109.959 143.767 111.417 139.82 110.532 134.499C110.001 131.281 108.574 127.48 105.887 123.138C104.033 120.138 101.492 116.941 98.3371 113.401C95.8795 110.641 93.1198 107.611 89.7562 104.528C86.9653 101.966 83.7891 99.363 80.3109 96.5825C77.3013 94.1769 74.2084 91.4589 70.6365 88.8867" stroke="#60747B" stroke-width="3.99968" stroke-miterlimit="10" stroke-linecap="round"/>
<path d="M59.2964 53.251C58.9631 55.3025 58.9944 55.3129 58.6611 57.3644" stroke="#FCBA44" stroke-width="1.33323" stroke-miterlimit="10" stroke-linecap="round"/>
<path d="M44.3311 50.1685C45.4488 53.126 46.5665 56.087 47.6843 59.0514" stroke="#FCBA44" stroke-width="1.33323" stroke-miterlimit="10" stroke-linecap="round"/>
<path d="M36.3232 63.7793C37.2258 64.5152 38.1283 65.2546 39.0308 65.9974" stroke="#FCBA44" stroke-width="1.33323" stroke-miterlimit="10" stroke-linecap="round"/>
<path d="M25.6387 74.8281C28.7628 75.3349 31.8869 75.8452 35.0111 76.359" stroke="#FCBA44" stroke-width="1.33323" stroke-miterlimit="10" stroke-linecap="round"/>
<path d="M33.9902 88.3038C34.8928 87.9636 35.7953 87.6234 36.6978 87.2832" stroke="#FCBA44" stroke-width="1.33323" stroke-miterlimit="10" stroke-linecap="round"/>
<path d="M37.6458 103.299C39.6452 100.849 41.6481 98.398 43.6545 95.9473" stroke="#FCBA44" stroke-width="1.33323" stroke-miterlimit="10" stroke-linecap="round"/>
<path d="M53.3496 103.81C53.662 101.883 53.6516 101.883 53.964 99.9565" stroke="#FCBA44" stroke-width="1.33323" stroke-miterlimit="10" stroke-linecap="round"/>
<path d="M64.5764 76.9529C63.7433 78.0984 63.7016 78.0775 62.8685 79.2231L62.8581 79.2647C60.4942 77.5464 60.5358 77.4944 58.1719 75.7761C57.5367 75.3075 57.4013 74.4535 57.8699 73.8183L57.8283 73.7871C58.2969 73.1518 59.2133 73.006 59.8485 73.4747C61.4245 74.6202 62.997 75.7692 64.566 76.9216L64.5764 76.9633V76.9529Z" fill="#FCBA44"/>
<path d="M58.7339 84.8463C58.1785 85.61 57.6231 86.3771 57.0677 87.1478C57.0677 87.1478 57.0781 87.179 57.0677 87.179C54.7038 85.4607 54.7246 85.4399 52.3607 83.7216C51.7254 83.253 51.5796 82.3678 52.0378 81.7326L52.0587 81.743C52.5273 81.1078 53.3916 80.9724 54.0269 81.4306C56.3908 83.1489 56.4012 83.128 58.7651 84.8463H58.7339Z" fill="#FCBA44"/>
<path d="M72.9486 86.0753C70.6784 89.1787 70.7201 89.1995 68.4498 92.3132H68.4082C67.2002 91.4384 67.221 91.4072 66.0234 90.5324C67.5369 88.4636 69.0469 86.3912 70.5534 84.3154L70.5743 84.2842C71.7822 85.1589 71.7718 85.1694 72.9694 86.0441L72.9486 86.0649V86.0753Z" fill="#253135"/>
<path d="M72.9486 86.0753C70.6784 89.1787 70.7201 89.1995 68.4498 92.3132H68.4082C67.2002 91.4384 67.221 91.4072 66.0234 90.5324C67.5369 88.4636 69.0469 86.3912 70.5534 84.3154L70.5743 84.2842C71.7822 85.1589 71.7718 85.1694 72.9694 86.0441L72.9486 86.0649V86.0753Z" stroke="#253135" stroke-width="1.33323" stroke-linejoin="round"/>
<path d="M70.5434 84.3257C71.7514 85.2004 71.7618 85.1796 72.9698 86.0648L72.9489 86.0752C71.4355 88.1441 69.9255 90.2164 68.4189 92.2922" fill="#253135"/>
<path d="M70.5434 84.3257C71.7514 85.2004 71.7618 85.1796 72.9698 86.0648L72.9489 86.0752C71.4355 88.1441 69.9255 90.2164 68.4189 92.2922" stroke="#253135" stroke-width="1.33323" stroke-linecap="round" stroke-linejoin="round"/>
<path d="M69.0435 79.3377C66.3012 83.1006 63.5589 86.8634 60.8167 90.6262V90.5846C63.4097 90.5325 63.4097 90.5846 66.0131 90.5429C66.0131 90.5429 66.0548 90.5638 66.0548 90.5533C68.325 87.45 68.2937 87.4292 70.5535 84.3155H70.5119C69.7621 81.8266 69.835 81.8058 69.0852 79.3169H69.0331L69.0435 79.3377Z" fill="#253135"/>
<path d="M69.0435 79.3377C66.3012 83.1006 63.5589 86.8634 60.8167 90.6262V90.5846C63.4097 90.5325 63.4097 90.5846 66.0131 90.5429C66.0131 90.5429 66.0548 90.5638 66.0548 90.5533C68.325 87.45 68.2937 87.4292 70.5535 84.3155H70.5119C69.7621 81.8266 69.835 81.8058 69.0852 79.3169H69.0331L69.0435 79.3377Z" stroke="#253135" stroke-width="1.33323" stroke-linejoin="round"/>
<path d="M66.0027 90.5322C67.5162 88.4633 69.0262 86.391 70.5327 84.3152H70.5743C69.8245 81.8263 69.8037 81.8263 69.0643 79.3374" fill="#253135"/>
<path d="M66.0027 90.5322C67.5162 88.4633 69.0262 86.391 70.5327 84.3152H70.5743C69.8245 81.8263 69.8037 81.8263 69.0643 79.3374" stroke="#253135" stroke-width="1.33323" stroke-linecap="round" stroke-linejoin="round"/>
<path d="M69.0957 79.3686C66.3464 83.1315 63.5937 86.8908 60.8375 90.6467L60.8063 90.6259C59.5983 89.7512 59.6087 89.7407 58.4111 88.8556V88.866C61.1604 85.1031 63.9061 81.3368 66.6484 77.567L66.6797 77.5254C67.8877 78.4001 67.8772 78.4106 69.0852 79.2853L69.1165 79.3582L69.0957 79.3686Z" fill="#253135"/>
<path d="M69.0957 79.3686C66.3464 83.1315 63.5937 86.8908 60.8375 90.6467L60.8063 90.6259C59.5983 89.7512 59.6087 89.7407 58.4111 88.8556V88.866C61.1604 85.1031 63.9061 81.3368 66.6484 77.567L66.6797 77.5254C67.8877 78.4001 67.8772 78.4106 69.0852 79.2853L69.1165 79.3582L69.0957 79.3686Z" stroke="#253135" stroke-width="1.33323" stroke-linejoin="round"/>
<path d="M66.6384 77.5776C67.8464 78.4524 67.8255 78.4732 69.0335 79.348L69.0439 79.3272C64.9201 84.9714 64.9617 85.0027 60.8379 90.6573" fill="#253135"/>
<path d="M66.6384 77.5776C67.8464 78.4524 67.8255 78.4732 69.0335 79.348L69.0439 79.3272C64.9201 84.9714 64.9617 85.0027 60.8379 90.6573" stroke="#253135" stroke-width="1.33323" stroke-linecap="round" stroke-linejoin="round"/>
<path d="M67.3357 76.5361C62.4724 83.2009 62.5141 83.2321 57.6613 89.8969L57.6196 89.9386C56.6511 89.2305 56.7136 89.1367 55.7451 88.4286C55.7451 88.4286 55.7555 88.5119 55.7659 88.5119C59.0081 84.0687 62.2433 79.622 65.4716 75.1719H65.4195C66.388 75.88 66.3672 75.9008 67.3357 76.609V76.5361Z" fill="#253135"/>
<path d="M67.3357 76.5361C62.4724 83.2009 62.5141 83.2321 57.6613 89.8969L57.6196 89.9386C56.6511 89.2305 56.7136 89.1367 55.7451 88.4286C55.7451 88.4286 55.7555 88.5119 55.7659 88.5119C59.0081 84.0687 62.2433 79.622 65.4716 75.1719H65.4195C66.388 75.88 66.3672 75.9008 67.3357 76.609V76.5361Z" stroke="#253135" stroke-width="1.33323" stroke-linejoin="round"/>
<path d="M65.4196 75.1616C66.3881 75.8698 66.3881 75.8802 67.3566 76.5883H67.4191C64.1769 81.0315 60.9348 85.4747 57.6926 89.9179" fill="#253135"/>
<path d="M65.4196 75.1616C66.3881 75.8698 66.3881 75.8802 67.3566 76.5883H67.4191C64.1769 81.0315 60.9348 85.4747 57.6926 89.9179" stroke="#253135" stroke-width="1.33323" stroke-linecap="round" stroke-linejoin="round"/>
</g>
<defs>
<clipPath id="clip0_1226_5436">
<rect width="243" height="150" fill="white"/>
</clipPath>
</defs>
</svg>
