<svg width="24" height="24" viewBox="0 0 24 24" fill="none" xmlns="http://www.w3.org/2000/svg">
<path d="M1.60061 1.7004C0.525619 2.22465 0.000514106 2.7997 0.000514106 3.4246V5.14995C0.000514106 5.77485 0.525619 6.34985 1.60061 6.87461C2.67559 7.39972 4.12518 7.82469 5.97548 8.12475C7.82539 8.42482 9.82521 8.57485 12.0003 8.57485C14.1753 8.57485 16.1752 8.42482 18.025 8.12475C19.8753 7.82469 21.325 7.39972 22.3999 6.87461C23.4749 6.34951 24 5.77485 24 5.14961V3.42494C24 2.80004 23.4749 2.2247 22.3999 1.69993C21.3249 1.17482 19.8753 0.749852 18.025 0.450134C16.1751 0.15024 14.1756 0.000213623 12.0003 0.000213623C9.82517 0.000213623 7.82535 0.150244 5.97548 0.450305C4.15034 0.775147 2.67551 1.175 1.60061 1.7001V1.7004ZM0.000514106 13.2503V15.4251C0.000514106 16.0503 0.525619 16.6253 1.60061 17.1504C2.67559 17.6755 4.12518 18.1002 5.97548 18.4002C7.82539 18.7003 9.82521 18.8503 12.0003 18.8503C14.1753 18.8503 16.1752 18.7003 18.025 18.4002C19.8753 18.1002 21.325 17.6752 22.3999 17.1501C23.4749 16.625 24 16.0503 24 15.4251V13.1502C22.7502 13.9003 21.0751 14.4753 18.9251 14.8501C16.7748 15.2503 14.4752 15.4249 12.0002 15.4249C9.5251 15.4249 7.22536 15.2501 5.07521 14.8499C2.92524 14.4748 1.25014 13.9002 0.000342737 13.15L0.000514106 13.2503ZM0.000342737 18.2498V20.5749C0.000342737 21.1998 0.525448 21.7751 1.60043 22.2999C2.67542 22.825 4.12501 23.25 5.97531 23.5497C7.82522 23.8498 9.82504 23.9998 12.0001 23.9998C14.1751 23.9998 16.175 23.8498 18.0249 23.5497C19.8751 23.2496 21.3248 22.825 22.3997 22.2999C23.4747 21.7748 23.9998 21.1998 23.9998 20.5745V18.2997C22.75 19.0498 21.0749 19.6248 18.925 19.9999C16.775 20.375 14.4751 20.5749 12 20.5749C9.52493 20.5749 7.22519 20.375 5.07504 19.9999C2.92507 19.6248 1.24996 19.0498 0.000171369 18.2997L0.000342737 18.2498ZM0.000171369 8.00027V10.2748C0.000171369 10.8997 0.525277 11.4751 1.60026 11.9998C2.67525 12.5249 4.12484 12.9499 5.97514 13.25C7.82505 13.55 9.82487 13.7001 11.9999 13.7001C14.175 13.7001 16.1748 13.55 18.0247 13.25C19.8749 12.9499 21.3247 12.5249 22.3996 11.9998C23.4746 11.4747 23.9997 10.8997 23.9997 10.2748V7.99993C22.7499 8.75008 21.0748 9.32474 18.9248 9.69982C16.7748 10.0749 14.4749 10.2748 11.9998 10.2748C9.52476 10.2748 7.22502 10.0749 5.07487 9.69982C2.9249 9.32474 1.24979 8.74974 0 7.99993" fill="#575757"/>
</svg>
