<svg width="190" height="151" viewBox="0 0 190 151" fill="none" xmlns="http://www.w3.org/2000/svg">
<path d="M132.918 115.953C128.405 118.264 128.434 118.307 123.942 120.653C119.45 122.999 119.314 122.734 114.822 125.08C110.33 127.426 110.395 127.556 105.903 129.902C101.411 132.248 101.426 132.277 96.9341 134.623C92.4423 136.97 92.3347 136.769 87.8429 139.115C83.344 141.461 83.4301 141.619 78.9312 143.966C75.9319 145.53 72.9326 147.092 69.9333 148.651C69.6966 148.751 69.4382 148.823 69.1799 148.816C68.0032 148.78 64.4945 148.73 63.3679 148.687C63.1383 148.68 62.9518 148.429 62.7437 148.328C58.3883 146.254 58.4026 146.233 54.0472 144.159C49.6989 142.086 49.7133 142.057 45.3579 139.983C41.0025 137.91 40.9809 137.96 36.6327 135.886C32.2773 133.812 32.2701 133.834 27.9147 131.76C23.5593 129.687 23.509 129.794 19.1608 127.721C14.8126 125.647 14.7767 125.704 10.4213 123.631C6.06585 121.557 6.05867 121.571 1.70325 119.498C0.382995 118.866 0.433222 116.8 1.76783 116.211C6.49637 113.808 6.56094 113.937 11.268 111.497C15.975 109.058 15.9678 109.05 20.6748 106.611C25.3818 104.171 25.2598 103.934 29.9668 101.495C34.6738 99.0552 34.6954 99.0983 39.4095 96.6586C44.1237 94.219 44.2314 94.4486 48.9455 92.009C53.6597 89.5694 53.6023 89.469 58.3165 87.0294C63.0307 84.5898 62.9589 84.4606 67.6731 82.021C67.6875 82.021 67.7664 82.1071 67.7664 82.1215C70.8661 83.5804 73.9635 85.0418 77.0584 86.5056C81.708 88.6869 81.7296 88.6366 86.3792 90.8179C91.0288 92.9992 90.9714 93.1212 95.6282 95.3025C100.285 97.4838 100.364 97.3116 105.021 99.4929C109.677 101.674 109.692 101.638 114.341 103.82C118.998 106.001 118.941 106.123 123.598 108.311C128.254 110.5 128.262 110.471 132.918 112.652C134.246 113.277 134.274 115.379 132.933 115.967L132.918 115.953Z" fill="#ECE6F3"/>
<path d="M63.1599 46.6601C67.9243 44.242 67.8095 44.0196 72.5452 41.5441C77.281 39.0686 77.3671 39.2264 82.0956 36.7438C86.8241 34.2611 86.7811 34.175 91.5168 31.6924C96.2525 29.2169 96.2884 29.2886 101.024 26.8131C105.76 24.3305 105.717 24.2516 110.452 21.7761C115.188 19.3006 115.159 19.2432 119.895 16.7605C124.631 14.2779 124.624 14.2779 129.359 11.7952C134.095 9.31254 134.138 9.39147 138.874 6.90881C143.61 4.42615 143.531 4.26829 148.302 1.85021C148.647 1.83586 153.691 3.18482 153.691 3.52924C153.691 8.53043 153.784 8.53043 153.784 13.5245C153.784 18.5185 153.547 18.5185 153.547 23.5197C153.547 28.5209 153.655 28.5209 153.655 33.5149C153.655 38.5089 153.684 38.5161 153.684 43.5101C153.684 48.5041 153.712 48.5041 153.712 53.5053C153.712 58.5065 153.669 58.4993 153.669 63.5005C153.669 68.5017 153.856 68.5017 153.856 73.4958C153.856 78.4898 153.784 78.497 153.784 83.491C153.784 88.485 153.799 88.4922 153.799 93.4934C153.799 98.4946 153.748 98.4946 153.784 103.496C153.856 104.307 153.461 105.304 152.615 105.742C148.123 108.145 147.972 107.866 143.48 110.276C138.989 112.687 139.132 112.96 134.64 115.371C131.646 116.978 128.649 118.578 125.65 120.171C121.158 122.582 121.036 122.345 116.544 124.756C112.053 127.167 112.067 127.196 107.575 129.6C103.083 132.003 103.055 131.96 98.563 134.371C94.0712 136.782 94.0999 136.832 89.6082 139.243C85.1164 141.654 85.1379 141.704 80.6462 144.115C76.1544 146.526 76.2118 146.648 71.7129 149.045C69.2015 150.343 66.152 150.487 63.5474 149.368C63.4182 149.31 63.9564 149.504 63.8272 149.447C63.0092 149.095 62.7366 148.277 62.6935 147.516C62.672 142.501 62.7294 142.501 62.7294 137.485C62.7294 132.47 62.5859 132.47 62.5859 127.461C62.5859 122.453 62.672 122.446 62.672 117.43C62.672 112.415 62.6074 112.415 62.6074 107.399C62.6074 102.384 62.5931 102.384 62.5931 97.368C62.5931 92.3525 62.4137 92.3525 62.4137 87.3441C62.4137 82.3357 62.5716 82.3286 62.5716 77.313C62.5716 72.2975 62.4783 72.2975 62.4711 67.2891C62.4639 62.2807 62.4854 62.2736 62.4854 57.258C62.4854 52.2425 62.55 52.2425 62.55 47.2269C62.55 46.8969 62.837 46.6672 63.1671 46.6529L63.1599 46.6601Z" fill="#EAF0F3"/>
<path d="M63.8129 48.9995L63.7842 49.0641C66.2167 50.1117 69.0868 49.9108 71.4403 48.691C75.9536 46.2873 75.9751 46.3232 80.4812 43.9051C84.9873 41.487 84.9084 41.3435 89.4145 38.9254C93.9206 36.5073 93.8775 36.4284 98.3836 34.0103C102.89 31.5922 102.911 31.6425 107.417 29.2244C111.923 26.8063 111.995 26.9426 116.508 24.5317C121.022 22.1208 120.943 21.9701 125.449 19.5521C129.955 17.134 129.977 17.177 134.49 14.7661C139.003 12.3552 138.946 12.2404 143.452 9.82232C147.965 7.40424 147.979 7.44011 152.5 5.02921C154.107 4.19687 154.136 1.80749 152.478 1.08996L152.349 1.38415C149.917 0.336549 147.154 0.185868 144.801 1.40567C140.287 3.8094 140.323 3.87398 135.817 6.29206C131.311 8.71015 131.333 8.74602 126.827 11.1641C122.32 13.5822 122.313 13.5678 117.807 15.9859C113.301 18.404 113.229 18.2677 108.723 20.6858C104.217 23.1038 104.224 23.1182 99.7182 25.5363C95.2121 27.9543 95.3341 28.1911 90.828 30.6092C86.3219 33.0273 86.2645 32.9197 81.7584 35.3377C77.2523 37.7558 77.3097 37.8706 72.8036 40.2887C68.2975 42.7068 68.276 42.6781 63.7627 45.089C62.1554 45.9213 62.1554 48.2677 63.8201 48.9852L63.8129 48.9995Z" fill="#D5E1E6"/>
<path d="M152.507 105.534C148.001 107.952 148.058 108.067 143.552 110.478C139.046 112.889 138.946 112.709 134.439 115.128C129.933 117.546 129.955 117.582 125.449 120C120.943 122.418 121.057 122.633 116.551 125.051C112.045 127.469 111.923 127.24 107.417 129.658C102.911 132.076 102.961 132.169 98.4481 134.587C93.9348 137.005 93.9994 137.113 89.4933 139.531C84.9872 141.949 84.9943 141.978 80.4883 144.396C75.9822 146.814 75.9391 146.742 71.4258 149.146C69.0723 150.366 66.2309 150.545 63.7985 149.497L63.8917 149.268" stroke="#80949C" stroke-width="1.33337" stroke-linecap="round" stroke-linejoin="round"/>
<path d="M67.1709 149.784C67.1709 144.998 67.1853 144.998 67.1853 140.205C67.1853 135.412 67.2714 135.419 67.2714 130.633C67.2714 125.847 67.257 125.84 67.257 121.054C67.257 116.268 67.4866 116.261 67.4866 111.475" stroke="#80949C" stroke-width="1.33337" stroke-linecap="round" stroke-linejoin="round"/>
<path d="M75.7957 139.136C74.6978 139.136 73.8727 138.303 73.8727 137.198C73.8727 134.637 73.8798 133.352 73.8942 132.068C73.9014 130.783 73.9157 129.499 73.9157 126.937C73.9157 124.376 73.887 123.063 73.8655 121.8C73.8368 120.544 73.8153 119.238 73.8153 116.677C73.8153 114.115 73.8153 112.831 73.8153 111.546C73.8153 110.262 73.8153 108.978 73.8153 106.416C73.8153 103.854 73.8296 102.57 73.8511 101.293C73.8655 100.009 73.887 98.7242 73.887 96.1554C73.887 93.5866 73.887 92.3094 73.8942 91.025C73.8942 89.7407 73.9014 88.4563 73.9014 85.8947C73.9014 83.3331 73.8655 82.02 73.8368 80.7572C73.8081 79.5015 73.7722 78.1956 73.7722 75.634C73.7722 73.0724 73.7794 71.788 73.7866 70.5036C73.7937 69.2192 73.8009 67.9349 73.8009 65.3661C73.8009 62.7973 73.8153 61.5201 73.8296 60.2357C73.844 58.9514 73.8583 57.667 73.8583 55.0982C73.8583 54.352 74.3534 53.6919 75.1786 53.3331C77.4962 52.1133 78.5582 51.4532 79.6847 50.7643C80.7179 50.1257 81.787 49.4656 83.9253 48.3175C86.1425 47.1264 87.2475 46.5309 88.3525 45.9282C89.4575 45.3326 90.5553 44.7371 92.7653 43.546C94.9681 42.362 96.1233 41.8311 97.2427 41.3216C98.3692 40.805 99.5388 40.2668 101.756 39.0757C103.973 37.8846 105.071 37.2173 106.133 36.5716C107.188 35.9329 108.271 35.2728 110.481 34.0889C112.684 32.905 113.839 32.3596 114.951 31.8358C116.071 31.3049 117.233 30.7595 119.457 29.5684C121.667 28.3845 122.78 27.7961 123.885 27.2078C124.997 26.6194 126.102 26.031 128.319 24.8399C130.536 23.6488 131.648 23.0174 132.725 22.4075C133.801 21.7976 134.906 21.1733 137.116 19.9822C138.989 18.9777 140.065 18.3821 141.012 17.8512C142.332 17.1193 143.38 16.5381 145.949 15.1963C146.193 15.0887 146.473 15.0312 146.745 15.0312C147.807 15.0312 148.639 15.9282 148.639 17.0762C148.639 19.645 148.647 20.9294 148.654 22.2066C148.661 23.4909 148.668 24.7682 148.668 27.3369C148.668 29.9057 148.704 31.2116 148.74 32.4816C148.776 33.7373 148.812 35.0432 148.812 37.5976C148.812 40.152 148.826 41.4508 148.833 42.7352C148.848 44.0195 148.855 45.2967 148.855 47.8655C148.855 50.4343 148.805 51.7258 148.754 52.9815C148.704 54.2444 148.654 55.5503 148.654 58.1262C148.654 60.7021 148.726 62.0081 148.79 63.2781C148.855 64.5338 148.926 65.8325 148.926 68.3869C148.926 70.9413 148.919 72.2329 148.905 73.5173C148.898 74.8016 148.883 76.086 148.883 78.6476C148.883 81.2092 148.876 82.4936 148.862 83.778C148.855 85.0623 148.84 86.3467 148.84 88.9155C148.84 91.4843 148.805 92.783 148.776 94.0387C148.747 95.3015 148.711 96.6074 148.711 99.1834C148.711 100.009 148.259 100.69 147.513 101.013C145.03 102.319 143.961 102.915 142.72 103.603C141.73 104.156 140.639 104.759 138.659 105.821C136.441 107.012 135.336 107.657 134.267 108.289C133.205 108.913 132.108 109.559 129.898 110.743C127.688 111.927 126.547 112.494 125.442 113.039C124.329 113.584 123.189 114.151 120.971 115.342C118.761 116.526 117.649 117.107 116.537 117.681C115.425 118.263 114.306 118.837 112.088 120.028C109.871 121.219 108.759 121.843 107.683 122.453C106.606 123.056 105.501 123.687 103.291 124.871C101.074 126.062 99.9765 126.658 98.8715 127.26C97.7737 127.856 96.6687 128.459 94.4587 129.643C92.2558 130.827 91.1006 131.379 89.9884 131.91C88.8691 132.448 87.7139 133.001 85.4895 134.192C83.7459 135.125 82.6983 135.706 81.787 136.201C80.3663 136.976 79.3403 137.543 76.6423 138.949C76.3769 139.064 76.0755 139.128 75.7813 139.128L75.7957 139.136Z" fill="white"/>
<path d="M146.738 15.4043C147.613 15.4043 148.274 16.1291 148.274 17.0905C148.274 19.6593 148.281 20.9437 148.288 22.2281C148.295 23.5125 148.302 24.7897 148.302 27.3512C148.302 29.9128 148.338 31.2331 148.374 32.5031C148.41 33.7588 148.446 35.0575 148.446 37.612C148.446 40.1664 148.46 41.4651 148.467 42.7495C148.482 44.0339 148.489 45.3111 148.489 47.8727C148.489 50.4342 148.439 51.7186 148.388 52.9743C148.338 54.2443 148.288 55.5502 148.288 58.1334C148.288 60.7165 148.36 62.0296 148.424 63.3068C148.489 64.5624 148.561 65.854 148.561 68.4012C148.561 70.9485 148.553 72.2472 148.539 73.5244C148.532 74.8088 148.518 76.0932 148.518 78.6619C148.518 81.2307 148.51 82.5079 148.496 83.7923C148.489 85.0767 148.474 86.3611 148.474 88.9298C148.474 91.4986 148.446 92.7901 148.41 94.0458C148.381 95.3087 148.345 96.6218 148.345 99.1977C148.345 99.8794 147.987 100.432 147.362 100.705L147.334 100.719L147.312 100.733C144.858 102.032 143.782 102.628 142.54 103.316C141.565 103.854 140.467 104.472 138.486 105.534C136.262 106.725 135.157 107.378 134.088 108.002C133.026 108.626 131.935 109.265 129.733 110.449C127.537 111.633 126.396 112.192 125.291 112.738C124.179 113.29 123.031 113.857 120.806 115.048C118.596 116.232 117.47 116.82 116.372 117.387C115.274 117.954 114.141 118.542 111.923 119.733C109.706 120.925 108.587 121.556 107.511 122.166C106.441 122.769 105.329 123.4 103.126 124.584C100.909 125.775 99.8043 126.378 98.6993 126.981C97.6015 127.576 96.4965 128.179 94.2936 129.363C92.098 130.539 90.9499 131.092 89.8449 131.623C88.7256 132.161 87.5632 132.714 85.3317 133.912C83.5881 134.845 82.5333 135.426 81.6292 135.921C80.2157 136.696 79.1968 137.256 76.5132 138.655C76.2764 138.755 76.0325 138.805 75.7885 138.805C75.0279 138.805 74.2243 138.253 74.2243 137.227C74.2243 134.665 74.2315 133.381 74.2458 132.104C74.253 130.819 74.2673 129.535 74.2673 126.966C74.2673 124.397 74.2386 123.084 74.2099 121.821C74.1812 120.566 74.1597 119.267 74.1597 116.705C74.1597 114.144 74.1597 112.859 74.1597 111.575C74.1597 110.291 74.1597 109.006 74.1597 106.445C74.1597 103.883 74.174 102.584 74.1956 101.322C74.2099 100.059 74.2315 98.7528 74.2315 96.1841C74.2315 93.6153 74.2314 92.3381 74.2386 91.0537C74.2386 89.7693 74.2458 88.485 74.2458 85.9234C74.2458 83.3618 74.2099 82.0415 74.1812 80.7787C74.1525 79.523 74.1166 78.2243 74.1166 75.6698C74.1166 73.1154 74.1238 71.8239 74.131 70.5395C74.1382 69.2551 74.1453 67.9707 74.1453 65.402C74.1453 62.8332 74.1597 61.5345 74.174 60.2788C74.1884 59.0159 74.2028 57.71 74.2028 55.1341C74.2028 54.2659 74.9777 53.8353 75.3078 53.6918L75.3365 53.6775L75.358 53.6631C77.6613 52.4505 78.7304 51.7904 79.8569 51.0944C80.883 50.4629 81.9521 49.8028 84.076 48.6619C86.2788 47.478 87.3838 46.8825 88.4816 46.2869C89.5866 45.6842 90.6916 45.0886 92.916 43.8975C95.1116 42.7208 96.2597 42.1898 97.3719 41.6804C98.5056 41.1566 99.6751 40.6184 101.907 39.4201C104.138 38.2219 105.236 37.5546 106.298 36.9088C107.346 36.2702 108.429 35.61 110.625 34.4333C112.82 33.2565 113.968 32.7112 115.081 32.1946C116.207 31.6636 117.377 31.1183 119.601 29.92C121.804 28.7361 122.916 28.1477 124.021 27.5593C125.133 26.971 126.245 26.3826 128.463 25.1915C130.687 24.0004 131.799 23.3689 132.875 22.759C133.944 22.1491 135.057 21.5249 137.259 20.341C139.139 19.3364 140.216 18.7337 141.163 18.2027C142.476 17.4708 143.516 16.8968 146.064 15.5694C146.279 15.4761 146.501 15.433 146.717 15.433M146.717 14.7155C146.408 14.7155 146.078 14.7801 145.755 14.9236C141.299 17.2484 141.342 17.3345 136.922 19.7095C132.495 22.0846 132.545 22.185 128.118 24.5601C123.691 26.9351 123.684 26.9136 119.257 29.2886C114.829 31.6636 114.707 31.4268 110.28 33.809C105.853 36.1841 105.982 36.4208 101.562 38.7959C97.1422 41.1709 96.9916 40.8983 92.5716 43.2733C89.6201 44.8566 86.6735 46.4448 83.7316 48.0377C79.3044 50.4127 79.4551 50.6926 75.0136 53.0389C74.131 53.4264 73.4709 54.1726 73.4709 55.1341C73.4709 60.2644 73.4135 60.2644 73.4135 65.402C73.4135 70.5395 73.3848 70.5323 73.3848 75.6698C73.3848 80.8074 73.5139 80.8002 73.5139 85.9305C73.5139 91.0609 73.4996 91.0609 73.4996 96.1912C73.4996 101.322 73.4278 101.322 73.4278 106.452C73.4278 111.582 73.4206 111.582 73.4206 116.713C73.4206 121.843 73.5283 121.843 73.5283 126.973C73.5283 132.104 73.4924 132.104 73.4924 137.234C73.4924 138.605 74.5472 139.53 75.7741 139.53C76.1114 139.53 76.4558 139.458 76.8002 139.315C81.2561 136.99 81.2202 136.933 85.6474 134.558C90.0746 132.183 90.1822 132.384 94.6094 130.009C99.0365 127.633 99.0222 127.605 103.442 125.23C107.869 122.855 107.819 122.761 112.239 120.386C116.666 118.011 116.695 118.076 121.122 115.701C125.542 113.326 125.628 113.477 130.048 111.102C134.475 108.727 134.382 108.561 138.809 106.186C143.236 103.811 143.193 103.732 147.635 101.393C148.525 101.006 149.056 100.195 149.056 99.2336C149.056 94.1032 149.185 94.1032 149.185 88.9657C149.185 83.8282 149.228 83.8354 149.228 78.6978C149.228 73.5603 149.271 73.5675 149.271 68.4371C149.271 63.3068 148.998 63.3068 148.998 58.1764C148.998 53.0461 149.206 53.0461 149.206 47.9157C149.206 42.7854 149.156 42.7854 149.156 37.655C149.156 32.5247 149.013 32.5247 149.013 27.3943C149.013 22.2639 148.977 22.2639 148.977 17.1336C148.977 15.7416 147.951 14.7299 146.724 14.7299L146.717 14.7155Z" fill="#D5E1E6"/>
<path d="M73.4923 83.0827C78.2208 80.5427 78.2711 80.6431 82.9996 78.1031C87.7281 75.563 87.7568 75.6276 92.4854 73.0875C97.2139 70.5475 97.2139 70.5618 101.942 68.0217C106.671 65.4817 106.678 65.5032 111.407 62.9632C116.135 60.4231 116.006 60.1863 120.735 57.6462C125.463 55.1062 125.506 55.1923 130.235 52.6594C134.963 50.1265 134.97 50.1265 139.699 47.5864C144.427 45.0464 144.456 45.1038 149.192 42.5637" fill="white"/>
<path d="M73.4923 83.0827C78.2208 80.5427 78.2711 80.6431 82.9996 78.1031C87.7281 75.563 87.7568 75.6276 92.4854 73.0875C97.2139 70.5475 97.2139 70.5618 101.942 68.0217C106.671 65.4817 106.678 65.5032 111.407 62.9632C116.135 60.4231 116.006 60.1863 120.735 57.6462C125.463 55.1062 125.506 55.1923 130.235 52.6594C134.963 50.1265 134.97 50.1265 139.699 47.5864C144.427 45.0464 144.456 45.1038 149.192 42.5637" stroke="#D5E1E6" stroke-width="1.33337" stroke-miterlimit="10"/>
<path d="M73.4708 68.6675C78.1994 66.1275 78.1778 66.0916 82.9064 63.5515C87.6349 61.0115 87.6134 60.9756 92.3419 58.4355C97.0704 55.8955 97.1494 56.0533 101.878 53.5133C106.606 50.9732 106.678 51.1095 111.4 48.5695C116.128 46.0294 116.02 45.8285 120.749 43.2884C125.478 40.7484 125.506 40.813 130.235 38.2729C134.963 35.7328 134.956 35.7113 139.685 33.1712C144.413 30.6312 144.413 30.6312 149.142 28.0911" fill="white"/>
<path d="M73.4708 68.6675C78.1994 66.1275 78.1778 66.0916 82.9064 63.5515C87.6349 61.0115 87.6134 60.9756 92.3419 58.4355C97.0704 55.8955 97.1494 56.0533 101.878 53.5133C106.606 50.9732 106.678 51.1095 111.4 48.5695C116.128 46.0294 116.02 45.8285 120.749 43.2884C125.478 40.7484 125.506 40.813 130.235 38.2729C134.963 35.7328 134.956 35.7113 139.685 33.1712C144.413 30.6312 144.413 30.6312 149.142 28.0911" stroke="#D5E1E6" stroke-width="1.33337" stroke-miterlimit="10"/>
<path d="M73.4349 97.3405C78.1635 94.8004 78.2998 95.0588 83.0283 92.5187C87.7569 89.9786 87.6205 89.7203 92.3419 87.1874C97.0633 84.6545 97.2139 84.92 101.935 82.38C106.657 79.8399 106.606 79.7323 111.335 77.1994C116.063 74.6593 116.092 74.7096 120.821 72.1695C125.549 69.6294 125.506 69.5505 130.228 67.0104C134.956 64.4704 134.884 64.3269 139.613 61.7868C144.341 59.2467 144.485 59.5122 149.213 56.9722" fill="white"/>
<path d="M73.4349 97.3405C78.1635 94.8004 78.2998 95.0588 83.0283 92.5187C87.7569 89.9786 87.6205 89.7203 92.3419 87.1874C97.0633 84.6545 97.2139 84.92 101.935 82.38C106.657 79.8399 106.606 79.7323 111.335 77.1994C116.063 74.6593 116.092 74.7096 120.821 72.1695C125.549 69.6294 125.506 69.5505 130.228 67.0104C134.956 64.4704 134.884 64.3269 139.613 61.7868C144.341 59.2467 144.485 59.5122 149.213 56.9722" stroke="#D5E1E6" stroke-width="1.33337" stroke-miterlimit="10"/>
<path d="M73.5785 111.971C78.307 109.431 78.1779 109.194 82.8992 106.654C87.6206 104.114 87.6493 104.157 92.3778 101.617C97.1064 99.0765 97.1638 99.1985 101.892 96.6585C106.621 94.1184 106.671 94.2188 111.4 91.686C116.128 89.1459 116.006 88.9235 120.735 86.3834C125.463 83.8433 125.449 83.8146 130.17 81.2746C134.892 78.7345 134.999 78.9211 139.728 76.381C144.456 73.8409 144.42 73.7692 149.149 71.2291" fill="white"/>
<path d="M73.5785 111.971C78.307 109.431 78.1779 109.194 82.8992 106.654C87.6206 104.114 87.6493 104.157 92.3778 101.617C97.1064 99.0765 97.1638 99.1985 101.892 96.6585C106.621 94.1184 106.671 94.2188 111.4 91.686C116.128 89.1459 116.006 88.9235 120.735 86.3834C125.463 83.8433 125.449 83.8146 130.17 81.2746C134.892 78.7345 134.999 78.9211 139.728 76.381C144.456 73.8409 144.42 73.7692 149.149 71.2291" stroke="#D5E1E6" stroke-width="1.33337" stroke-miterlimit="10"/>
<path d="M73.5067 126.214C76.6591 124.52 79.8114 122.829 82.9638 121.141C87.6923 118.601 87.6421 118.514 92.3706 115.974C97.0992 113.434 97.2211 113.671 101.942 111.131C106.671 108.591 106.571 108.412 111.299 105.872C116.028 103.331 115.992 103.267 120.72 100.727C125.449 98.1868 125.578 98.4379 130.307 95.8979C135.035 93.3578 134.892 93.0923 139.627 90.5522C144.363 88.0122 144.413 88.1126 149.142 85.5726" fill="white"/>
<path d="M73.5067 126.214C76.6591 124.52 79.8114 122.829 82.9638 121.141C87.6923 118.601 87.6421 118.514 92.3706 115.974C97.0992 113.434 97.2211 113.671 101.942 111.131C106.671 108.591 106.571 108.412 111.299 105.872C116.028 103.331 115.992 103.267 120.72 100.727C125.449 98.1868 125.578 98.4379 130.307 95.8979C135.035 93.3578 134.892 93.0923 139.627 90.5522C144.363 88.0122 144.413 88.1126 149.142 85.5726" stroke="#D5E1E6" stroke-width="1.33337" stroke-miterlimit="10"/>
<path d="M98.8644 40.7335C98.8644 46.1365 98.8213 46.1365 98.8213 51.5467C98.8213 56.9569 98.6276 56.9497 98.6276 62.3599C98.6276 67.7701 98.7352 67.7701 98.7352 73.1731C98.7352 78.5761 98.7711 78.5761 98.7711 83.9863C98.7711 89.3965 98.893 89.3965 98.893 94.7995C98.893 100.203 98.893 100.21 98.893 105.613C98.893 111.016 98.8859 111.023 98.8859 116.426C98.8859 121.829 98.6993 121.836 98.6993 127.239" fill="white"/>
<path d="M98.8644 40.7335C98.8644 46.1365 98.8213 46.1365 98.8213 51.5467C98.8213 56.9569 98.6276 56.9497 98.6276 62.3599C98.6276 67.7701 98.7352 67.7701 98.7352 73.1731C98.7352 78.5762 98.7711 78.5761 98.7711 83.9863C98.7711 89.3965 98.893 89.3965 98.893 94.7996C98.893 100.203 98.893 100.21 98.893 105.613C98.893 111.016 98.8859 111.023 98.8859 116.426C98.8859 121.829 98.6993 121.836 98.6993 127.239" stroke="#D5E1E6" stroke-width="1.33337" stroke-miterlimit="10"/>
<path d="M123.856 27.244C123.856 32.647 123.92 32.647 123.92 38.0572C123.92 43.4674 123.77 43.4602 123.77 48.8704C123.77 54.2806 123.827 54.2806 123.827 59.6836C123.827 65.0866 123.899 65.0866 123.899 70.4968C123.899 75.907 123.985 75.907 123.985 81.31C123.985 86.713 124.064 86.7202 124.064 92.1232C124.064 97.5262 123.82 97.5334 123.82 102.936C123.82 108.339 124.1 108.347 124.1 113.75" fill="white"/>
<path d="M123.856 27.244C123.856 32.647 123.92 32.647 123.92 38.0572C123.92 43.4674 123.77 43.4602 123.77 48.8704C123.77 54.2806 123.827 54.2806 123.827 59.6836C123.827 65.0866 123.899 65.0866 123.899 70.4968C123.899 75.907 123.985 75.907 123.985 81.31C123.985 86.713 124.064 86.7202 124.064 92.1232C124.064 97.5262 123.82 97.5334 123.82 102.936C123.82 108.339 124.1 108.347 124.1 113.75" stroke="#D5E1E6" stroke-width="1.33337" stroke-miterlimit="10"/>
<path d="M85.9487 47.4783C85.9487 51.0803 85.9535 54.6847 85.9631 58.2915C85.9631 63.6946 86.2429 63.6946 86.2429 69.1047C86.2429 74.5149 86.0635 74.5149 86.0635 79.9179C86.0635 85.321 86.2429 85.321 86.2429 90.7311C86.2429 96.1413 86.286 96.1413 86.286 101.544C86.286 106.947 86.1999 106.955 86.1999 112.358C86.1999 117.761 86.2501 117.768 86.2501 123.171C86.2501 128.574 86.0133 128.581 86.0133 133.984" fill="white"/>
<path d="M85.9487 47.4783C85.9487 51.0803 85.9535 54.6847 85.9631 58.2915C85.9631 63.6946 86.2429 63.6946 86.2429 69.1047C86.2429 74.5149 86.0635 74.5149 86.0635 79.9179C86.0635 85.321 86.2429 85.321 86.2429 90.7311C86.2429 96.1413 86.286 96.1413 86.286 101.544C86.286 106.947 86.1999 106.955 86.1999 112.358C86.1999 117.761 86.2501 117.768 86.2501 123.171C86.2501 128.574 86.0133 128.581 86.0133 133.984" stroke="#D5E1E6" stroke-width="1.33337" stroke-miterlimit="10"/>
<path d="M133.162 64.0754C131.608 64.8647 130.051 65.6492 128.491 66.4289C126.891 67.1249 125.219 66.0127 125.219 64.2691C125.219 61.9443 125.147 61.9443 125.147 59.6195C125.147 58.6509 125.678 57.7252 126.561 57.345C128.893 56.161 128.9 56.1826 131.246 55.013C132.847 54.317 134.727 55.465 134.727 57.2086C134.727 59.5334 134.569 59.5334 134.569 61.8582C134.569 62.8269 134.045 63.6951 133.162 64.0754Z" fill="#EAF0F3"/>
<path d="M108.07 62.7334C106.516 63.5227 104.959 64.3072 103.399 65.0869C101.799 65.7829 100.127 64.6708 100.127 62.9272C100.127 60.6024 100.055 60.6024 100.055 58.2776C100.055 57.3089 100.586 56.3833 101.469 56.003C103.801 54.819 103.808 54.8406 106.154 53.671C107.755 52.975 109.634 54.123 109.634 55.8666C109.634 58.1914 109.477 58.1914 109.477 60.5163C109.477 61.4849 108.953 62.3531 108.07 62.7334Z" fill="#EAF0F3"/>
<path d="M95.7502 69.3635C94.1955 70.1528 92.6385 70.9373 91.079 71.717C89.479 72.413 87.8071 71.3008 87.8071 69.5572C87.8071 67.2324 87.7354 67.2324 87.7354 64.9076C87.7354 63.939 88.2663 63.0133 89.1489 62.633C91.4809 61.4491 91.488 61.4706 93.8344 60.3011C95.4345 59.6051 97.3144 60.7531 97.3144 62.4967C97.3144 64.8215 97.1565 64.8215 97.1565 67.1463C97.1565 68.115 96.6327 68.9832 95.7502 69.3635Z" fill="#EAF0F3"/>
<path d="M120.146 56.778C118.592 57.5673 117.035 58.3518 115.475 59.1315C113.875 59.8275 112.203 58.7154 112.203 56.9718C112.203 54.647 112.131 54.647 112.131 52.3222C112.131 51.3535 112.662 50.4279 113.545 50.0476C115.877 48.8637 115.884 48.8852 118.23 47.7156C119.831 47.0196 121.711 48.1677 121.711 49.9113C121.711 52.2361 121.553 52.2361 121.553 54.5609C121.553 55.5295 121.029 56.3977 120.146 56.778Z" fill="#EAF0F3"/>
<path d="M108.07 105.334C106.516 106.123 104.959 106.907 103.399 107.687C101.799 108.383 100.127 107.271 100.127 105.527C100.127 103.202 100.055 103.202 100.055 100.878C100.055 99.909 100.586 98.9834 101.469 98.6031C103.801 97.4191 103.808 97.4407 106.154 96.2711C107.755 95.5751 109.634 96.7231 109.634 98.4668C109.634 100.792 109.477 100.792 109.477 103.116C109.477 104.085 108.953 104.953 108.07 105.334Z" fill="#EAF0F3"/>
<path d="M120.692 84.3746C116.336 86.6707 116.394 86.7855 112.06 89.1103C107.726 91.4351 107.733 91.4566 103.37 93.7312C101.77 94.4272 99.9692 93.3581 99.9692 91.6145C99.9692 89.2897 100.177 89.2897 100.177 86.9649C100.177 85.9962 100.644 85.1854 101.533 84.7979C105.889 82.5018 105.867 82.466 110.208 80.1412C114.549 77.8164 114.456 77.6442 118.819 75.3696C120.419 74.6736 122.234 75.9077 122.234 77.6513C122.234 79.9761 122.062 79.9761 122.062 82.3009C122.062 83.2696 121.581 83.9871 120.692 84.3674V84.3746Z" fill="#EAF0F3"/>
</svg>
