<svg width="167" height="150" viewBox="0 0 167 150" fill="none" xmlns="http://www.w3.org/2000/svg">
<g clip-path="url(#clip0_3187_16386)">
<path d="M132.542 115.26C128.03 117.57 128.138 117.771 123.648 120.116C119.157 122.462 119.1 122.347 114.609 124.693C110.119 127.038 110.183 127.16 105.693 129.506C102.699 131.07 99.7032 132.631 96.7048 134.19C93.7064 135.749 90.7128 137.313 87.7239 138.881C83.2263 141.227 83.1617 141.105 78.6713 143.451C74.1736 145.797 74.1593 145.761 69.6545 148.099C69.4178 148.2 69.181 148.121 68.9228 148.113C67.7464 148.078 64.2458 147.934 63.1196 147.884C62.8901 147.877 62.6749 147.941 62.4669 147.841C58.1127 145.768 58.1414 145.71 53.7944 143.637C49.4474 141.564 49.4187 141.622 45.0645 139.556C40.7104 137.483 40.6889 137.54 36.3347 135.467C31.9805 133.394 31.9375 133.487 27.5833 131.414C23.2291 129.341 23.3511 129.083 19.0041 127.017C14.6571 124.951 14.5925 125.073 10.2312 123C5.86986 120.927 5.89138 120.898 1.53721 118.825C0.217335 118.194 0.138429 116.214 1.47983 115.626C4.63128 114.024 7.77556 112.412 10.9127 110.791C15.6183 108.352 15.6901 108.496 20.3957 106.057C25.1014 103.618 25.0368 103.496 29.7425 101.057C34.4481 98.618 34.5485 98.8117 39.2614 96.3728C43.9742 93.9338 43.9599 93.9195 48.6655 91.4806C53.3784 89.0417 53.3425 88.9771 58.0481 86.531C62.761 84.0921 62.7036 83.9917 67.4164 81.5528C67.4308 81.5528 67.5097 81.5671 67.5097 81.5743C72.1579 83.7622 72.1292 83.8267 76.7775 86.0074C81.4258 88.1881 81.4114 88.2239 86.0597 90.4046C90.708 92.5853 90.6506 92.7144 95.2989 94.8951C99.9543 97.0757 100.076 96.8103 104.725 98.991C109.373 101.172 109.294 101.351 113.942 103.532C118.598 105.712 118.691 105.504 123.346 107.685C128.002 109.866 128.009 109.844 132.664 112.032C133.991 112.656 133.884 114.679 132.535 115.267L132.542 115.26Z" fill="#ECE6F3"/>
<path d="M62.926 46.2245C67.6891 43.8071 67.5313 43.4986 72.2656 41.0167C77 38.5347 77.0717 38.6782 81.806 36.2034C86.5404 33.7215 86.5117 33.6713 91.246 31.1965C95.9804 28.7217 96.088 28.9297 100.822 26.4478C105.557 23.9658 105.428 23.722 110.155 21.24C114.889 18.7581 114.968 18.9159 119.702 16.4339C122.859 14.7793 126.015 13.127 129.171 11.4772C133.905 8.99525 133.877 8.94504 138.618 6.46309C143.353 3.98114 143.259 3.79464 148.03 1.37725C148.374 1.3629 153.517 2.7043 153.517 3.04862C153.517 8.04838 153.438 8.04838 153.438 13.041C153.438 18.0336 153.295 18.0336 153.295 23.0333C153.295 26.3665 153.295 29.6973 153.295 33.0257C153.295 38.0254 153.273 38.0254 153.273 43.018C153.273 48.0106 153.503 48.0106 153.503 53.0104C153.503 56.3388 153.503 59.6695 153.503 63.0027C153.503 68.0025 153.374 68.0025 153.374 72.9951C153.374 77.9948 153.488 77.9948 153.488 82.9874C153.488 87.9872 153.531 87.9872 153.531 92.9869C153.531 97.9867 153.481 97.9867 153.517 102.986C153.589 103.797 153.166 104.794 152.319 105.232C147.829 107.635 147.707 107.412 143.216 109.823C138.726 112.233 138.79 112.355 134.3 114.758C129.809 117.168 129.788 117.132 125.298 119.542C120.807 121.953 120.85 122.024 116.36 124.435C113.366 126.041 110.37 127.643 107.372 129.241C102.881 131.651 102.766 131.443 98.2758 133.853C93.7854 136.263 93.8643 136.414 89.3738 138.824C84.8762 141.234 84.8116 141.105 80.314 143.515C75.8164 145.926 75.9383 146.155 71.4407 148.551C68.93 149.849 65.8671 149.978 63.2703 148.859C63.1412 148.802 63.6577 149.046 63.5286 148.989C62.7108 148.637 62.3522 147.762 62.3163 147.002C62.2948 141.987 62.1657 141.987 62.1657 136.973C62.1657 131.959 62.2948 131.959 62.2948 126.952C62.2948 121.938 62.1441 121.938 62.1441 116.924C62.1441 111.91 62.2087 111.91 62.2087 106.896C62.2087 103.553 62.2087 100.21 62.2087 96.8677C62.2087 91.8536 62.3952 91.8536 62.388 86.8466C62.388 81.8325 62.2159 81.8325 62.2159 76.8184C62.2159 71.8043 62.137 71.8043 62.137 66.7974C62.137 61.7833 62.4382 61.7833 62.4382 56.7692C62.4382 51.755 62.2374 51.755 62.2374 46.7409C62.2374 46.411 62.5889 46.2316 62.9189 46.2245H62.926Z" fill="#EAF0F3"/>
<path d="M63.6505 48.276L63.6147 48.3621C66.0464 49.4094 68.8009 49.3592 71.1466 48.1469C75.6586 45.7439 75.6155 45.6721 80.1203 43.2547C84.6251 40.8373 84.5964 40.7871 89.1012 38.3697C93.6061 35.9524 93.6276 35.9882 98.1324 33.5708C102.637 31.1534 102.666 31.2108 107.171 28.7934C111.675 26.3761 111.747 26.5052 116.252 24.0878C120.757 21.6704 120.699 21.5628 125.204 19.1454C129.709 16.728 129.652 16.6204 134.156 14.203C138.661 11.7856 138.697 11.843 143.202 9.42564C147.707 7.00825 147.764 7.10868 152.276 4.69846C153.883 3.86637 153.732 1.55658 152.075 0.839251L152.09 0.803385C149.658 -0.243911 146.824 -0.337164 144.472 0.88229C139.96 3.28533 140.046 3.45032 135.541 5.86771C131.036 8.28509 131.079 8.364 126.574 10.7814C122.07 13.1988 122.084 13.2275 117.579 15.6449C113.074 18.0622 112.995 17.9188 108.491 20.3362C103.986 22.7536 103.971 22.732 99.4666 25.1423C94.9618 27.5525 95.0048 27.6457 90.5 30.0631C85.9952 32.4805 85.9665 32.4231 81.4617 34.8405C76.9569 37.2579 77.0358 37.4157 72.531 39.8331C68.0262 42.2505 68.0047 42.2218 63.4927 44.632C61.8859 45.4641 61.972 47.5587 63.6362 48.276H63.6505Z" fill="#D5E1E6"/>
<path d="M152.204 104.995C147.7 107.412 147.829 107.649 143.324 110.066C138.819 112.484 138.69 112.247 134.185 114.665C129.68 117.082 129.817 117.333 125.305 119.75C120.8 122.168 120.707 121.988 116.202 124.406C113.199 126.017 110.198 127.631 107.199 129.248C102.695 131.665 102.644 131.579 98.1396 133.996C93.6348 136.414 93.7639 136.651 89.2591 139.068C84.7471 141.485 84.6897 141.371 80.1849 143.788C75.673 146.205 75.6371 146.141 71.1251 148.544C68.7723 149.763 65.9747 150.043 63.543 148.996L63.6506 148.738" stroke="#80949C" stroke-width="1.33334" stroke-linecap="round" stroke-linejoin="round"/>
<path d="M66.9359 149.261C66.9359 144.477 67.1296 144.477 67.1296 139.685C67.1296 134.9 66.9574 134.9 66.9574 130.116C66.9574 125.324 67.0722 125.324 67.0722 120.539C67.0722 115.755 67.1439 115.748 67.1439 110.963" stroke="#80949C" stroke-width="1.33334" stroke-linecap="round" stroke-linejoin="round"/>
<path d="M75.6586 138.738C74.5109 138.738 73.5784 137.813 73.5784 136.679C73.5784 134.111 73.5497 132.806 73.521 131.543C73.4923 130.288 73.4636 128.982 73.4636 126.421C73.4636 123.861 73.4851 122.577 73.5067 121.3C73.5282 120.016 73.5497 118.732 73.5497 116.164C73.5497 113.596 73.6071 112.304 73.6645 111.049C73.7219 109.787 73.7864 108.474 73.7864 105.906C73.7864 103.338 73.7434 102.032 73.7075 100.763C73.6645 99.5074 73.6286 98.2019 73.6286 95.6482C73.6286 93.0945 73.5927 91.7746 73.5569 90.5049C73.521 89.2496 73.4851 87.9441 73.4851 85.3832C73.4851 82.8224 73.5354 81.524 73.5856 80.2687C73.6358 79.0062 73.686 77.7007 73.686 75.1255C73.686 72.5503 73.686 71.2806 73.6932 69.9966C73.6932 68.7126 73.7003 67.4286 73.7003 64.8605C73.7003 62.2925 73.7147 61.0157 73.729 59.7317C73.7434 58.4477 73.7577 57.1636 73.7577 54.5956C73.7577 53.7061 74.1594 53.0175 74.8624 52.7162C76.5553 51.8267 77.6026 51.2816 78.4849 50.8153C79.9626 50.0478 81.0027 49.5026 83.7644 48.0177C85.9881 46.827 87.0856 46.2244 88.1975 45.6219C89.295 45.0265 90.3925 44.4239 92.5947 43.2403C94.8112 42.0496 95.9231 41.4183 96.9991 40.8086C98.0679 40.1989 99.1798 39.5748 101.389 38.3912C103.591 37.2076 104.739 36.6553 105.851 36.1245C106.97 35.5865 108.125 35.0341 110.341 33.8434C112.565 32.6526 113.655 31.9855 114.717 31.3327C115.772 30.6943 116.855 30.0272 119.057 28.8436C121.259 27.66 122.414 27.1149 123.526 26.5912C124.645 26.0604 125.807 25.5152 128.023 24.3245C130.24 23.1337 131.337 22.5311 132.442 21.9214C133.54 21.3117 134.637 20.7091 136.854 19.5184L138.647 18.5572C141.394 17.0795 141.968 16.771 145.72 14.8199C145.985 14.7051 146.279 14.6406 146.581 14.6406C147.7 14.6406 148.546 15.4798 148.546 16.5917C148.546 19.1525 148.503 20.4509 148.467 21.7062C148.424 22.9687 148.381 24.2743 148.381 26.8495C148.381 29.4247 148.453 30.7302 148.525 31.9999C148.596 33.2552 148.661 34.5535 148.661 37.1072C148.661 39.6609 148.647 40.9521 148.632 42.2361C148.618 43.5201 148.604 44.8041 148.604 47.3721C148.604 49.9402 148.553 51.2314 148.503 52.4867C148.453 53.7492 148.403 55.0547 148.403 57.6299C148.403 60.2051 148.388 61.4748 148.374 62.7588C148.36 64.0428 148.345 65.3268 148.345 67.8948C148.345 70.4629 148.36 71.7469 148.374 73.0237C148.388 74.3077 148.403 75.5846 148.403 78.1454C148.403 80.7063 148.417 81.9975 148.439 83.2815C148.453 84.5655 148.474 85.8423 148.474 88.4104C148.474 90.9784 148.46 92.2552 148.453 93.5392C148.439 94.8232 148.431 96.1073 148.431 98.6753C148.431 99.5146 147.994 100.203 147.255 100.519C144.235 102.111 143.267 102.635 141.595 103.532C140.785 103.969 139.816 104.493 138.374 105.268C136.165 106.451 135.032 107.032 133.934 107.592C132.837 108.151 131.696 108.732 129.48 109.923C127.263 111.114 126.166 111.766 125.097 112.398C124.035 113.029 122.945 113.675 120.735 114.858C118.526 116.042 117.385 116.608 116.281 117.154C115.169 117.699 114.028 118.265 111.812 119.456C109.603 120.647 108.491 121.228 107.379 121.816C106.267 122.404 105.162 122.993 102.946 124.176L94.1011 128.932C91.8774 130.123 90.7799 130.783 89.7182 131.428C88.6638 132.067 87.5734 132.72 85.3641 133.903C82.38 135.503 81.3757 136.026 79.7115 136.887C78.8938 137.31 77.9182 137.813 76.4692 138.566C76.2253 138.673 75.9456 138.731 75.6658 138.731L75.6586 138.738Z" fill="white"/>
<path d="M146.573 15.0136C147.355 15.0136 148.18 15.5731 148.18 16.6061C148.18 19.1597 148.137 20.4581 148.101 21.7134C148.058 22.9831 148.015 24.2886 148.015 26.8638C148.015 29.439 148.087 30.7589 148.159 32.0286C148.23 33.2767 148.295 34.5751 148.295 37.1216C148.295 39.6681 148.281 40.9808 148.266 42.2433C148.252 43.5058 148.238 44.8113 148.238 47.3793C148.238 49.9474 148.187 51.2242 148.137 52.4795C148.087 53.7492 148.037 55.0547 148.037 57.6371C148.037 60.2195 148.022 61.4963 148.008 62.7588C147.994 64.0213 147.979 65.3268 147.979 67.8949C147.979 70.4629 147.994 71.7684 148.008 73.0309C148.022 74.2934 148.037 75.5918 148.037 78.1526C148.037 80.7135 148.058 82.0334 148.073 83.2959C148.087 84.5583 148.109 85.8567 148.109 88.4176C148.109 90.9784 148.094 92.2624 148.087 93.5393C148.073 94.8233 148.065 96.1073 148.065 98.6753C148.065 99.3711 147.714 99.9306 147.104 100.189L147.083 100.203L147.061 100.218C144.077 101.789 143.087 102.327 141.445 103.216C140.634 103.654 139.658 104.177 138.209 104.959C136.007 106.143 134.874 106.724 133.776 107.283C132.672 107.843 131.531 108.431 129.315 109.622C127.091 110.82 125.986 111.472 124.917 112.104C123.863 112.728 122.773 113.373 120.578 114.557C118.375 115.74 117.235 116.3 116.137 116.845C115.025 117.398 113.878 117.964 111.654 119.155C109.445 120.339 108.34 120.927 107.228 121.515C106.116 122.103 105.004 122.691 102.788 123.882C100.564 125.08 99.4595 125.668 98.3476 126.271C97.2501 126.859 96.1454 127.454 93.9432 128.638C91.7123 129.836 90.6148 130.496 89.546 131.141C88.4915 131.773 87.4084 132.433 85.2062 133.609C82.2221 135.209 81.2753 135.704 79.5537 136.586C78.7431 137.002 77.7747 137.504 76.3401 138.25C76.1249 138.336 75.9025 138.386 75.6729 138.386C74.8408 138.386 73.9514 137.734 73.9514 136.686C73.9514 134.111 73.9227 132.806 73.894 131.543C73.8653 130.288 73.8366 128.99 73.8366 126.429C73.8366 123.868 73.8581 122.569 73.8796 121.314C73.9011 120.052 73.9227 118.746 73.9227 116.171C73.9227 113.596 73.9801 112.326 74.0374 111.078C74.0948 109.808 74.1594 108.496 74.1594 105.913C74.1594 103.331 74.1163 102.025 74.0805 100.763C74.0374 99.5074 74.0016 98.2091 74.0016 95.6554C74.0016 93.1017 73.9657 91.7675 73.9298 90.505C73.894 89.2497 73.8581 87.9513 73.8581 85.3976C73.8581 82.8439 73.9083 81.5527 73.9585 80.2974C74.0087 79.0278 74.059 77.7222 74.059 75.1399C74.059 72.5575 74.059 71.295 74.0661 70.011C74.0661 68.727 74.0805 67.443 74.0805 64.8749C74.0805 62.3069 74.0948 61.0085 74.1092 59.7532C74.1235 58.4907 74.1379 57.1852 74.1379 54.6172C74.1379 54.2657 74.2239 53.4121 75.0273 53.0606L75.056 53.0462L75.0776 53.0319C76.7561 52.1496 77.8034 51.5972 78.6929 51.1381C80.1562 50.3778 81.2107 49.8254 83.9652 48.3477C86.1818 47.157 87.2793 46.5544 88.384 45.9519C89.4815 45.3493 90.5861 44.7468 92.7955 43.5632C95.012 42.3724 96.1239 41.7412 97.1999 41.1314C98.2687 40.5217 99.3806 39.8976 101.583 38.714C103.778 37.5376 104.925 36.9853 106.03 36.4545C107.149 35.9165 108.311 35.3641 110.535 34.1662C112.766 32.9683 113.863 32.3012 114.925 31.6484C115.972 31.01 117.055 30.35 119.25 29.1736C121.445 27.9972 122.593 27.452 123.705 26.9356C124.831 26.4047 125.993 25.8596 128.224 24.6616C130.441 23.4709 131.56 22.854 132.643 22.2586C133.719 21.6632 134.838 21.0463 137.047 19.8627L138.869 18.8872C141.602 17.4166 142.176 17.1082 145.892 15.1714C146.129 15.071 146.365 15.0208 146.609 15.0208M146.609 14.3034C146.272 14.3034 145.928 14.3752 145.584 14.5186C142.614 16.0681 139.656 17.6366 136.71 19.2243C132.284 21.5986 132.313 21.6489 127.887 24.0304C123.461 26.4047 123.339 26.1752 118.921 28.5495C114.495 30.9239 114.631 31.1678 110.205 33.5421C105.779 35.9165 105.672 35.7156 101.253 38.09C96.834 40.4643 96.8843 40.5647 92.4655 42.9391C88.0396 45.3134 88.0612 45.3421 83.6353 47.7165C79.2094 50.0908 79.195 50.0621 74.7548 52.4006C73.8725 52.788 73.4349 53.6488 73.4349 54.61C73.4349 59.7389 73.3775 59.7389 73.3775 64.8749C73.3775 70.011 73.356 70.0038 73.356 75.1399C73.356 80.2759 73.1551 80.2687 73.1551 85.3976C73.1551 90.5265 73.2986 90.5265 73.2986 95.6554C73.2986 100.784 73.4636 100.784 73.4636 105.913C73.4636 111.042 73.2269 111.042 73.2269 116.171C73.2269 121.3 73.1479 121.3 73.1479 126.429C73.1479 131.558 73.2627 131.558 73.2627 136.686C73.2627 138.078 74.4248 139.104 75.7016 139.104C76.0244 139.104 76.3544 139.039 76.67 138.903C81.1246 136.579 81.1461 136.615 85.572 134.24C89.9979 131.866 89.8832 131.644 94.3091 129.269C97.2597 127.686 100.208 126.101 103.154 124.513C107.58 122.139 107.594 122.168 112.013 119.786C116.439 117.412 116.517 117.563 120.936 115.188C125.355 112.814 125.255 112.627 129.68 110.253C134.106 107.879 134.149 107.972 138.575 105.598C143.001 103.223 142.987 103.202 147.427 100.863C148.317 100.476 148.819 99.6581 148.819 98.6897C148.819 93.5608 148.869 93.5608 148.869 88.4247C148.869 83.2887 148.797 83.2958 148.797 78.1598C148.797 73.0237 148.747 73.0309 148.747 67.902C148.747 62.7732 148.804 62.7732 148.804 57.6443C148.804 52.5154 148.998 52.5154 148.998 47.3865C148.998 42.2576 149.055 42.2576 149.055 37.1288C149.055 31.9999 148.776 31.9999 148.776 26.871C148.776 21.7421 148.941 21.7421 148.941 16.6132C148.941 15.2431 147.857 14.2963 146.616 14.3034H146.609Z" fill="#D5E1E6"/>
<path d="M84.5821 113.058C82.2508 114.241 82.3297 114.399 79.9841 115.561C78.3844 116.257 76.5194 114.966 76.5194 113.223C76.5194 110.899 76.5122 110.899 76.5122 108.574C76.5122 107.606 77.0789 106.652 77.9612 106.272C80.2925 105.088 80.2638 105.031 82.6095 103.862C84.2091 103.166 85.8805 104.421 85.8805 106.164C85.8805 108.488 85.9737 108.488 85.9737 110.813C85.9737 111.781 85.4716 112.678 84.5893 113.058H84.5821Z" fill="#EAF0F3"/>
<path d="M73.3129 70.9794C78.04 68.4401 77.9181 68.2105 82.6381 65.6784C87.3653 63.139 87.394 63.1964 92.114 60.6571C96.8412 58.1178 96.8555 58.1536 101.576 55.6143C106.303 53.075 106.317 53.1037 111.044 50.5715C115.771 48.0393 115.843 48.1685 120.57 45.6291C125.297 43.0898 125.168 42.8531 129.888 40.3137C134.616 37.7744 134.737 37.9968 139.465 35.4574C144.192 32.9181 144.206 32.9468 148.933 30.4075" fill="white"/>
<path d="M73.3129 70.9794C78.04 68.4401 77.9181 68.2105 82.6381 65.6784C87.3653 63.139 87.394 63.1964 92.114 60.6571C96.8412 58.1178 96.8555 58.1536 101.576 55.6143C106.303 53.075 106.317 53.1037 111.044 50.5715C115.771 48.0393 115.843 48.1685 120.57 45.6291C125.297 43.0898 125.168 42.8531 129.888 40.3137C134.616 37.7744 134.737 37.9968 139.465 35.4574C144.192 32.9181 144.206 32.9468 148.933 30.4075" stroke="#D5E1E6" stroke-width="1.33334" stroke-miterlimit="10"/>
<path d="M73.1766 88.0661C77.9038 85.5268 77.9827 85.6774 82.7099 83.1453C87.4371 80.6059 87.4873 80.7063 92.2145 78.167C96.9416 75.6277 96.9488 75.6492 101.669 73.1099C106.396 70.5705 106.317 70.4342 111.044 67.8949C115.771 65.3556 115.75 65.3197 120.477 62.7804C125.204 60.241 125.19 60.2123 129.91 57.6802C134.637 55.1409 134.745 55.3417 139.472 52.8024C144.199 50.263 144.178 50.22 148.905 47.6807" fill="white"/>
<path d="M73.1766 88.0661C77.9038 85.5268 77.9827 85.6774 82.7099 83.1453C87.4371 80.6059 87.4873 80.7063 92.2145 78.167C96.9416 75.6277 96.9488 75.6492 101.669 73.1099C106.396 70.5705 106.317 70.4342 111.044 67.8949C115.771 65.3556 115.75 65.3197 120.477 62.7804C125.204 60.241 125.19 60.2123 129.91 57.6802C134.637 55.1409 134.745 55.3417 139.472 52.8024C144.199 50.263 144.178 50.22 148.905 47.6807" stroke="#D5E1E6" stroke-width="1.33334" stroke-miterlimit="10"/>
<path d="M73.2555 105.562C77.9827 103.022 77.9396 102.951 82.6668 100.411C87.394 97.8719 87.3725 97.8433 92.0996 95.3039C96.8268 92.7646 96.834 92.7861 101.561 90.2539C106.288 87.7146 106.317 87.772 111.037 85.2327C115.764 82.6933 115.829 82.8153 120.556 80.2759C125.283 77.7366 125.226 77.6362 129.953 75.0968C134.68 72.5575 134.616 72.4356 139.343 69.8962C144.07 67.3569 144.149 67.5004 148.876 64.9682" fill="white"/>
<path d="M73.2555 105.562C77.9827 103.022 77.9396 102.951 82.6668 100.411C87.394 97.8719 87.3725 97.8432 92.0996 95.3039C96.8268 92.7646 96.834 92.7861 101.561 90.2539C106.288 87.7146 106.317 87.772 111.037 85.2327C115.764 82.6933 115.829 82.8153 120.556 80.2759C125.283 77.7366 125.226 77.6362 129.953 75.0968C134.68 72.5575 134.616 72.4356 139.343 69.8962C144.07 67.3569 144.149 67.5004 148.876 64.9682" stroke="#D5E1E6" stroke-width="1.33334" stroke-miterlimit="10"/>
<path d="M73.1694 122.734C77.8966 120.195 77.9612 120.324 82.6883 117.785C87.4155 115.246 87.3438 115.116 92.071 112.577C96.7981 110.038 96.9488 110.325 101.669 107.785C106.396 105.246 106.367 105.196 111.094 102.664C115.822 100.124 115.743 99.9809 120.47 97.4415C125.197 94.9022 125.183 94.8879 129.91 92.3485C134.637 89.8092 134.651 89.8307 139.379 87.2914C144.106 84.7521 144.149 84.831 148.876 82.2916" fill="white"/>
<path d="M73.1694 122.734C77.8966 120.195 77.9612 120.324 82.6883 117.785C87.4155 115.246 87.3438 115.116 92.071 112.577C96.7981 110.038 96.9488 110.325 101.669 107.785C106.396 105.246 106.367 105.196 111.094 102.664C115.822 100.124 115.743 99.9809 120.47 97.4415C125.197 94.9022 125.183 94.8879 129.91 92.3485C134.637 89.8092 134.651 89.8307 139.379 87.2914C144.106 84.7521 144.149 84.831 148.876 82.2916" stroke="#D5E1E6" stroke-width="1.33334" stroke-miterlimit="10"/>
<g style="mix-blend-mode:multiply">
<path d="M145.225 45.2992C140.168 48.0107 140.247 48.1541 135.189 50.8656C130.132 53.5771 130.132 53.5771 125.082 56.2958C121.575 58.1752 117.608 57.8237 114.602 56.0304C111.604 54.237 109.667 50.9086 109.667 46.9275C109.667 41.6049 109.588 41.6049 109.588 36.2824C109.588 33.5278 110.32 30.9024 111.683 28.6213C113.046 26.3402 114.968 24.3819 117.4 23.0764C122.048 20.5801 121.998 20.494 126.646 17.9977C131.294 15.5014 131.273 15.4584 135.914 12.9621C139.787 10.8819 144.127 11.427 147.441 13.4068C150.755 15.3867 153.273 18.959 153.273 23.3562C153.273 27.7534 153.072 27.7534 153.072 32.1506C153.072 34.9051 152.283 37.5018 150.913 39.7901C149.55 42.0712 147.635 44.0008 145.203 45.3063L145.225 45.2992Z" fill="#ECE6F3"/>
</g>
<path d="M102.565 38.3841C102.565 43.7856 102.393 43.7856 102.393 49.1942C102.393 54.5957 102.322 54.5957 102.322 60.0043C102.322 65.4129 102.444 65.4129 102.444 70.8144C102.444 76.2159 102.573 76.2159 102.573 81.6245C102.573 87.0331 102.271 87.0331 102.271 92.4346C102.271 97.8432 102.487 97.8432 102.487 103.245C102.487 108.653 102.343 108.653 102.343 114.055C102.343 119.456 102.609 119.463 102.609 124.865" fill="white"/>
<path d="M102.565 38.3841C102.565 43.7856 102.393 43.7856 102.393 49.1942C102.393 54.5957 102.322 54.5957 102.322 60.0043C102.322 65.4129 102.444 65.4129 102.444 70.8144C102.444 76.2159 102.573 76.2159 102.573 81.6245C102.573 87.0331 102.271 87.0331 102.271 92.4346C102.271 97.8432 102.487 97.8432 102.487 103.245C102.487 108.653 102.343 108.653 102.343 114.055C102.343 119.456 102.609 119.463 102.609 124.865" stroke="#D5E1E6" stroke-width="1.33334" stroke-miterlimit="10"/>
<path d="M157.57 38.1689C152.57 40.8876 152.556 40.8661 147.556 43.5847C142.556 46.3034 142.528 46.246 137.521 48.9647C135.046 50.2917 131.883 50.1769 128.834 48.8642C126.18 47.7237 123.526 45.83 121.56 43.5991C119.394 41.1386 118.096 38.1617 118.096 35.4574C118.096 30.1349 118.067 30.1349 118.067 24.8123C118.067 22.0578 118.741 19.3463 120.104 17.0652C121.467 14.7841 123.59 13.0051 126.022 11.7068C130.67 9.21047 130.699 9.26785 135.347 6.77156C139.996 4.27526 139.988 4.26092 144.637 1.76462C147.248 0.365839 150.526 0.164988 153.84 0.911007C156.924 1.59964 160.03 2.93387 162.383 4.90651C165.009 7.1087 166.737 9.99235 166.737 13.0625C166.752 18.6576 166.816 18.6576 166.824 24.2528C166.824 27.0288 165.525 29.7834 163.811 32.2581C162.096 34.7329 159.98 36.8706 157.57 38.1617V38.1689Z" fill="#F2765E"/>
<path d="M158.804 37.3153C153.747 40.0268 153.768 40.0626 148.711 42.7741C143.654 45.4856 143.761 45.6865 138.711 48.398C135.204 50.2774 131.201 49.9833 128.203 48.1899C125.204 46.3966 123.267 43.0037 123.267 39.0297C123.267 35.4813 123.267 31.9329 123.267 28.3846C123.267 25.63 123.999 23.0333 125.369 20.7451C126.739 18.4568 128.568 16.3837 130.993 15.0782C135.641 12.5819 135.684 12.668 140.333 10.1788C144.981 7.68972 144.916 7.56778 149.565 5.07148C153.438 2.99124 157.735 3.59379 161.049 5.58079C164.363 7.56778 166.709 11.0612 166.709 15.4584C166.709 18.3898 166.709 21.3213 166.709 24.2528C166.709 27.0073 166.027 29.6614 164.664 31.9497C163.301 34.238 161.236 36.0097 158.811 37.3081L158.804 37.3153Z" fill="#F79E84"/>
<path d="M145.01 17.058C145.01 23.7004 145.117 23.7004 145.117 30.3429" stroke="white" stroke-width="3" stroke-miterlimit="10" stroke-linecap="round"/>
<path d="M144.895 35.3785C144.895 35.8519 144.902 35.8519 144.902 36.3325" stroke="white" stroke-width="3" stroke-miterlimit="10" stroke-linecap="round"/>
<path d="M158.854 37.4085C153.797 40.12 153.783 40.0913 148.725 42.8028C143.668 45.5143 143.69 45.5502 138.633 48.2689C135.125 50.1483 131.33 49.7537 128.332 47.9604C125.333 46.1671 122.981 43.0109 122.981 39.0297C122.981 33.7071 123.282 33.7071 123.282 28.3846" stroke="#F16341" stroke-width="1.33334" stroke-miterlimit="10"/>
<path d="M142.592 65.1977C138.295 67.4071 138.338 67.4932 134.056 69.7312C129.774 71.9693 129.752 71.9262 125.477 74.1643C121.202 76.4024 121.273 76.553 116.991 78.7982C112.708 81.0363 112.658 80.943 108.354 83.1309C106.755 83.8267 104.89 82.7722 104.89 81.0291C104.89 78.705 104.947 78.705 104.947 76.3808C104.947 75.4124 105.657 74.6377 106.539 74.2575C110.836 72.0482 110.85 72.0697 115.126 69.8316C119.401 67.5936 119.38 67.5434 123.662 65.3053C127.944 63.0673 127.909 63.0027 132.191 60.7575C136.473 58.5122 136.466 58.5122 140.777 56.3172C142.377 55.6214 144.271 56.7118 144.271 58.4549C144.271 60.779 144.177 60.779 144.177 63.1031C144.177 64.0715 143.482 64.8104 142.592 65.1905V65.1977Z" fill="#EAF0F3"/>
<path d="M120.283 93.9338C114.315 97.0111 114.33 97.0398 108.347 100.096C106.747 100.791 105.04 99.7441 105.04 98.001C105.04 95.6769 105.112 95.6769 105.112 93.3528C105.112 92.3844 105.621 91.5595 106.511 91.1721C112.479 88.0948 112.386 87.9154 118.368 84.8596C119.968 84.1638 121.618 85.3976 121.618 87.1407C121.618 89.4649 121.897 89.4649 121.897 91.789C121.897 92.7574 121.173 93.5464 120.283 93.9338Z" fill="#EAF0F3"/>
<path d="M92.5444 75.0538C86.5762 78.1311 86.6336 78.2387 80.6511 81.2945C79.0515 81.9903 77.1075 80.7924 77.1075 79.0493C77.1075 76.7252 77.1865 76.7252 77.1865 74.401C77.1865 73.4326 77.9038 72.7153 78.7861 72.3351C84.7542 69.2578 84.6395 69.0354 90.622 65.9868C92.2216 65.291 94.1369 66.4531 94.1369 68.1962C94.1369 70.5203 93.936 70.5203 93.936 72.8444C93.936 73.8128 93.4267 74.6808 92.5444 75.061V75.0538Z" fill="#EAF0F3"/>
<path d="M92.5229 126.264C86.5548 129.341 86.5906 129.406 80.6081 132.461C79.0085 133.157 77.4232 132.045 77.4232 130.302C77.4232 127.978 77.208 127.978 77.208 125.654C77.208 124.686 77.8823 123.932 78.7646 123.545C84.7328 120.468 84.7041 120.418 90.6866 117.362C92.2862 116.666 93.85 117.699 93.85 119.442C93.85 121.766 94.101 121.766 94.101 124.09C94.101 125.059 93.4052 125.884 92.5229 126.264Z" fill="#EAF0F3"/>
<path d="M131.717 88.0804C129.386 89.264 129.465 89.4218 127.119 90.5839C125.52 91.2797 123.655 89.9885 123.655 88.2454C123.655 85.9213 123.648 85.9213 123.648 83.5972C123.648 82.6288 124.214 81.6747 125.097 81.2945C127.428 80.111 127.399 80.0536 129.745 78.8843C131.344 78.1885 133.016 79.4438 133.016 81.1869C133.016 83.5111 133.109 83.5111 133.109 85.8352C133.109 86.8036 132.607 87.7003 131.725 88.0804H131.717Z" fill="#EAF0F3"/>
</g>
<defs>
<clipPath id="clip0_3187_16386">
<rect width="166.328" height="150" fill="white" transform="translate(0.5)"/>
</clipPath>
</defs>
</svg>
