<svg width="112" height="90" viewBox="0 0 112 90" fill="none" xmlns="http://www.w3.org/2000/svg">
<g filter="url(#filter0_d_704_1969)">
<rect x="68.8145" y="5" width="22.3913" height="22.3913" rx="1.6204" fill="white"/>
</g>
<path d="M89.1912 20.7366C88.0605 20.7058 87.1971 20.8111 86.4589 21.1223C86.2491 21.2108 85.9144 21.2132 85.8801 21.476C85.9954 21.5968 86.0134 21.7773 86.105 21.9259C86.2813 22.211 86.5788 22.5935 86.8444 22.7938C87.1346 23.0129 87.4337 23.247 87.7447 23.4367C88.2979 23.7739 88.9156 23.9667 89.4482 24.3046C89.7622 24.5039 90.0741 24.7548 90.3803 24.9795C90.5319 25.0907 90.6335 25.2635 90.8304 25.3332V25.3013C90.727 25.1695 90.7003 24.9886 90.6054 24.851L90.1874 24.4331C89.7788 23.8907 89.26 23.4143 88.7086 23.0187C88.2689 22.7031 87.2849 22.2767 87.1015 21.7651L87.0694 21.733C87.3811 21.6978 87.746 21.5851 88.0338 21.5078C88.5172 21.3783 88.9492 21.4118 89.4482 21.2829L90.1232 21.09V20.9615C89.8709 20.7027 89.691 20.36 89.4161 20.1258C88.6961 19.5129 87.9106 18.9005 87.1017 18.3898C86.6529 18.1068 86.0986 17.9228 85.6229 17.6827C85.463 17.6018 85.1819 17.5598 85.0763 17.4254C84.8264 17.1071 84.6905 16.7035 84.4979 16.3326C84.0944 15.5555 83.6982 14.7069 83.3407 13.8893C83.0969 13.3318 82.9376 12.7822 82.6334 12.282C81.1738 9.88213 79.6028 8.43384 77.1689 7.01009C76.651 6.70729 76.0274 6.58785 75.3684 6.43134C75.015 6.41009 74.6613 6.3885 74.3078 6.36692C74.0918 6.27697 73.8674 6.01288 73.6649 5.88471C72.8587 5.37531 70.7904 4.26739 70.1934 5.72408C69.8163 6.64353 70.757 7.54041 71.0933 8.00648C71.3295 8.33301 71.6318 8.69957 71.8005 9.06712C71.9115 9.30881 71.9307 9.55115 72.0257 9.80667C72.2592 10.4363 72.4626 11.1214 72.7649 11.7031C72.9177 11.9976 73.086 12.3077 73.2793 12.571C73.3976 12.7326 73.6007 12.8037 73.6327 13.0532C73.4343 13.3309 73.4229 13.7622 73.3114 14.1141C72.8089 15.6982 72.9985 17.6672 73.7294 18.8396C73.9534 19.1997 74.4818 19.9715 75.208 19.6753C75.8432 19.4167 75.7014 18.6147 75.8831 17.9073C75.9241 17.747 75.8989 17.629 75.9795 17.5216V17.5537L76.5582 18.7109C76.9866 19.4007 77.7464 20.1215 78.3905 20.6078C78.7245 20.86 78.9874 21.2959 79.4192 21.4436V21.4113H79.3871C79.3034 21.281 79.1724 21.2269 79.0657 21.1221C78.8141 20.8755 78.5344 20.5689 78.3265 20.2864C77.7406 19.4911 77.223 18.6208 76.7513 17.7148C76.5259 17.2821 76.3301 16.805 76.1403 16.3646C76.0671 16.1949 76.0681 15.9381 75.9156 15.8502C75.7075 16.1728 75.4012 16.4338 75.2404 16.8147C74.9833 17.4236 74.9501 18.1663 74.8548 18.9363C74.7984 18.9564 74.8234 18.9425 74.7903 18.9682C74.3426 18.8603 74.1854 18.3995 74.0188 18.004C73.5981 17.004 73.5198 15.3941 73.8902 14.243C73.986 13.9449 74.419 13.0072 74.2437 12.7319C74.16 12.4574 73.8839 12.2986 73.7295 12.0889C73.5383 11.8296 73.3475 11.4882 73.2149 11.1887C72.8705 10.4093 72.7097 9.53402 72.3471 8.74587C72.1737 8.36909 71.8806 7.9877 71.6399 7.65294C71.3735 7.28176 71.075 7.00845 70.8684 6.55984C70.7949 6.40037 70.6952 6.14501 70.804 5.98109C70.8386 5.87054 70.8876 5.82441 70.9969 5.78833C71.1834 5.64451 71.7027 5.83611 71.8967 5.91667C72.4122 6.13084 72.8425 6.3348 73.2793 6.62409C73.4887 6.76314 73.7009 7.03184 73.9542 7.10631H74.2435C74.6961 7.21026 75.203 7.13843 75.6259 7.26694C76.3732 7.49396 77.0429 7.84734 77.651 8.23136C79.5037 9.40139 81.0188 11.0667 82.055 13.0533C82.2217 13.3733 82.2939 13.6784 82.4407 14.0178C82.7369 14.702 83.11 15.4059 83.4048 16.0751C83.699 16.7427 83.9857 17.4163 84.4015 17.9719C84.6201 18.2638 85.4643 18.4205 85.8481 18.5827C86.117 18.6962 86.5577 18.8149 86.8126 18.9682C87.2991 19.2618 87.7706 19.6112 88.2271 19.9328C88.4549 20.0935 89.1563 20.4462 89.1912 20.7366ZM74.8221 8.48919C74.5864 8.48474 74.4197 8.51489 74.2434 8.55328V8.5854H74.2755C74.388 8.81638 74.5865 8.96531 74.7254 9.16416C74.8325 9.38937 74.9398 9.61425 75.047 9.83913L75.079 9.80733C75.2782 9.6668 75.3693 9.44258 75.3681 9.09991C75.2884 9.01605 75.2767 8.91094 75.2075 8.81078C75.1159 8.67717 74.9381 8.60122 74.8221 8.48919Z" fill="#00618A"/>
<path d="M36.9349 55.1237V35.705H71.9553V55.1237H36.9349Z" fill="#1CE68C" stroke="black" stroke-width="1.17537"/>
<path d="M71.9553 35.7425C71.9553 36.1237 71.6685 36.6269 70.7997 37.1935C69.9557 37.7439 68.6956 38.262 67.0859 38.7061C63.8749 39.5918 59.4054 40.1471 54.4451 40.1471C49.4847 40.1471 45.0153 39.5918 41.8042 38.7061C40.1945 38.262 38.9344 37.7439 38.0904 37.1935C37.2217 36.6269 36.9349 36.1237 36.9349 35.7425C36.9349 35.3612 37.2217 34.8581 38.0904 34.2915C38.9344 33.741 40.1945 33.2229 41.8042 32.7789C45.0153 31.8931 49.4847 31.3378 54.4451 31.3378C59.4054 31.3378 63.8749 31.8931 67.0859 32.7789C68.6956 33.2229 69.9557 33.741 70.7997 34.2915C71.6685 34.8581 71.9553 35.3612 71.9553 35.7425Z" fill="#AFF0D3" stroke="black" stroke-width="1.17537"/>
<path d="M36.9349 49.0397C37.4952 49.4945 38.232 49.9 39.0903 50.2597C40.2113 50.7293 41.5854 51.1394 43.1475 51.478C46.2723 52.1553 50.1945 52.5558 54.4447 52.5558C58.6948 52.5558 62.617 52.1553 65.7419 51.478C67.3039 51.1394 68.678 50.7293 69.799 50.2597C70.6577 49.8999 71.3948 49.4941 71.9552 49.0391V63.9414L54.4447 66.4844L36.9349 63.9414V49.0397Z" fill="#03B365" stroke="black" stroke-width="1.17537"/>
<mask id="path-6-inside-1_704_1969" fill="white">
<path fill-rule="evenodd" clip-rule="evenodd" d="M72.543 59.4568C72.543 62.2146 64.4403 64.4491 54.4451 64.4491C44.4879 64.4491 36.4087 62.2312 36.3477 59.4883V70.69H36.3481C36.3499 73.4468 44.4519 75.6814 54.446 75.6814C64.4412 75.6814 72.5439 73.4463 72.5439 70.6891C72.5439 70.6764 72.5437 70.6638 72.5434 70.6511V59.4568H72.543Z"/>
</mask>
<path fill-rule="evenodd" clip-rule="evenodd" d="M72.543 59.4568C72.543 62.2146 64.4403 64.4491 54.4451 64.4491C44.4879 64.4491 36.4087 62.2312 36.3477 59.4883V70.69H36.3481C36.3499 73.4468 44.4519 75.6814 54.446 75.6814C64.4412 75.6814 72.5439 73.4463 72.5439 70.6891C72.5439 70.6764 72.5437 70.6638 72.5434 70.6511V59.4568H72.543Z" fill="#00693B"/>
<path d="M72.543 59.4568V58.2814H71.3676V59.4568H72.543ZM36.3477 59.4883L37.5227 59.4622L35.1723 59.4883H36.3477ZM36.3477 70.69H35.1723V71.8654H36.3477V70.69ZM36.3481 70.69L37.5235 70.6892L37.5227 69.5146H36.3481V70.69ZM72.5434 70.6511H71.368V70.6669L71.3684 70.6827L72.5434 70.6511ZM72.5434 59.4568H73.7187V58.2814H72.5434V59.4568ZM54.4451 65.6245C59.5172 65.6245 64.1517 65.0589 67.5548 64.1202C69.248 63.6532 70.7033 63.0758 71.7629 62.3848C72.7728 61.7261 73.7183 60.7622 73.7183 59.4568H71.3676C71.3676 59.5303 71.3003 59.8799 70.4786 60.4158C69.7066 60.9194 68.5116 61.4178 66.9297 61.8541C63.7827 62.7221 59.3683 63.2738 54.4451 63.2738V65.6245ZM35.1726 59.5145C35.2013 60.8061 36.1516 61.7563 37.1644 62.4087C38.2279 63.0938 39.6828 63.6669 41.3745 64.1308C44.7737 65.063 49.3921 65.6245 54.4451 65.6245V63.2738C49.5409 63.2738 45.1411 62.7263 41.9962 61.8638C40.4157 61.4304 39.2171 60.9348 38.4374 60.4325C37.607 59.8976 37.5245 59.542 37.5227 59.4622L35.1726 59.5145ZM37.523 70.69V59.4883H35.1723V70.69H37.523ZM36.3481 69.5146H36.3477V71.8654H36.3481V69.5146ZM35.1727 70.6908C35.1736 71.9957 36.1194 72.9591 37.1293 73.6175C38.1889 74.3083 39.6443 74.8856 41.3374 75.3526C44.7404 76.2911 49.3745 76.8568 54.446 76.8568V74.506C49.5234 74.506 45.1095 73.9544 41.9624 73.0864C40.3806 72.6502 39.1855 72.1518 38.4131 71.6483C37.5911 71.1124 37.5235 70.7627 37.5235 70.6892L35.1727 70.6908ZM54.446 76.8568C59.5181 76.8568 64.1526 76.291 67.5557 75.3522C69.2489 74.8852 70.7043 74.3078 71.7637 73.6168C72.7736 72.9582 73.7193 71.9944 73.7193 70.6891H71.3685C71.3685 70.7623 71.3013 71.1119 70.4796 71.6478C69.7075 72.1514 68.5124 72.6498 66.9306 73.0861C63.7835 73.9543 59.3691 74.506 54.446 74.506V76.8568ZM73.7193 70.6891C73.7193 70.6658 73.7189 70.6426 73.7183 70.6196L71.3684 70.6827C71.3685 70.6849 71.3685 70.687 71.3685 70.6891H73.7193ZM71.368 59.4568V70.6511H73.7187V59.4568H71.368ZM72.543 60.6322H72.5434V58.2814H72.543V60.6322Z" fill="black" mask="url(#path-6-inside-1_704_1969)"/>
<g filter="url(#filter1_d_704_1969)">
<g clip-path="url(#clip0_704_1969)">
<rect x="5" y="27.3917" width="22.3913" height="22.3913" rx="1.6204" fill="white"/>
</g>
</g>
<path d="M21.3089 48.287H10.7023C10.0292 48.287 9.47852 47.7016 9.47852 46.9861V30.5086C9.47852 29.7931 10.0292 29.2077 10.7023 29.2077H18.0454L22.5327 33.9775V46.9861C22.5327 47.7016 21.982 48.287 21.3089 48.287Z" fill="#0DC54C"/>
<path d="M18.0444 29.2075L22.5318 33.9773H18.0444V29.2075Z" fill="#08962D"/>
<path d="M11.9263 36.6875V42.7581H20.0852V36.6875H11.9263ZM12.9461 37.7715H15.4958V39.1808H12.9461V37.7715ZM12.9461 40.2648H15.4958V41.6741H12.9461V40.2648ZM19.0653 41.6741H16.5156V40.2648H19.0653V41.6741ZM19.0653 39.1808H16.5156V37.7715H19.0653V39.1808Z" fill="#FDFFFF"/>
<g filter="url(#filter2_d_704_1969)">
<rect x="85.7283" y="63.2174" width="21.2717" height="21.2717" rx="1.6204" fill="white"/>
</g>
<path fill-rule="evenodd" clip-rule="evenodd" d="M99.699 70.2286C99.9634 70.9936 100.154 71.7745 100.216 72.5839C100.294 73.588 100.259 74.585 100.047 75.5727C100.041 75.5999 100.029 75.6254 100.02 75.6518C99.9536 75.6519 99.8858 75.6437 99.8209 75.6537C99.2725 75.7399 98.7245 75.8292 98.1766 75.918C97.6102 76.0098 97.043 76.0979 96.4776 76.1959C96.2772 76.2305 96.0293 76.1892 95.9484 76.4663C95.9461 76.4739 95.923 76.4752 95.9097 76.4795L95.937 74.8236C95.9276 73.4918 95.9184 72.16 95.9092 70.8282L96.1731 70.7828C96.6047 70.7122 97.0364 70.6405 97.4683 70.5718C97.9838 70.4899 98.4998 70.4104 99.0156 70.3305C99.2432 70.295 99.471 70.2626 99.699 70.2286Z" fill="#439934"/>
<path fill-rule="evenodd" clip-rule="evenodd" d="M96.3651 81.3068C96.0867 81.0674 95.7985 80.8386 95.5317 80.5869C94.0956 79.2323 93.0451 77.6381 92.5278 75.716C92.3853 75.187 92.2903 74.6494 92.2598 74.1028C92.2384 73.7202 92.2074 73.3342 92.2344 72.9537C92.3064 71.9415 92.4527 70.939 92.7496 69.964L92.7659 69.9413C92.7947 69.9797 92.8362 70.0136 92.8509 70.0569C93.1407 70.9103 93.4283 71.7644 93.7145 72.6189C94.6137 75.3043 95.5117 77.9903 96.4124 80.675C96.43 80.7274 96.4757 80.7704 96.5084 80.8177L96.3651 81.3068Z" fill="#45A538"/>
<path fill-rule="evenodd" clip-rule="evenodd" d="M99.699 70.2287C99.471 70.2626 99.243 70.2951 99.0155 70.3302C98.4997 70.4101 97.9837 70.4897 97.4682 70.5715C97.0362 70.6402 96.6046 70.7119 96.173 70.7826L95.909 70.8279L95.9071 70.6557C95.8983 70.5142 95.8833 70.3729 95.8817 70.2313C95.8703 69.3289 95.8632 68.4264 95.852 67.5239C95.8451 66.959 95.8347 66.3942 95.8232 65.8295C95.8161 65.4786 95.8085 65.1275 95.7927 64.7771C95.7842 64.5888 95.7538 64.4014 95.7415 64.2131C95.7346 64.1049 95.7441 63.9958 95.7463 63.8871C95.8809 64.1479 96.0125 64.4107 96.1509 64.6695C96.3695 65.0787 96.7178 65.3802 97.0313 65.7092C98.2707 67.0094 99.1506 68.5211 99.699 70.2287Z" fill="#46A037"/>
<path fill-rule="evenodd" clip-rule="evenodd" d="M95.9093 76.4795C95.9227 76.4753 95.9459 76.4739 95.948 76.4664C96.0289 76.1893 96.2769 76.2306 96.4772 76.196C97.0426 76.0982 97.6098 76.0098 98.1762 75.9181C98.7242 75.8293 99.2721 75.74 99.8206 75.6538C99.8855 75.6436 99.9532 75.652 100.02 75.6519C99.9171 76.0176 99.8364 76.3912 99.7064 76.7469C99.5588 77.1504 99.3802 77.5441 99.1906 77.9301C98.9072 78.5072 98.5542 79.0455 98.1439 79.5386C97.8278 79.9188 97.4754 80.2702 97.1222 80.6173C96.927 80.8093 96.6968 80.9656 96.4826 81.1381L96.4271 81.1002L96.2271 80.9292L96.0202 80.4756C95.8777 79.9447 95.8029 79.4041 95.7905 78.8549L95.7943 78.7624L95.8225 78.3628C95.8319 78.2264 95.8444 78.0901 95.8502 77.9534C95.8714 77.4621 95.8899 76.9708 95.9093 76.4795Z" fill="#409433"/>
<path fill-rule="evenodd" clip-rule="evenodd" d="M96.9094 76.479C96.89 76.9703 96.8715 77.4616 96.8506 77.953C96.8449 78.0898 96.8323 78.226 96.8229 78.3624L96.6969 78.41C96.417 77.586 96.1369 76.7706 95.863 75.9532C95.4099 74.6008 94.9623 73.2462 94.5099 71.8935C94.1447 70.8015 93.7764 69.7108 93.4061 68.6205C93.3888 68.5694 93.339 68.5295 93.3044 68.4844L94.111 67.0013C94.1387 67.0494 94.1753 67.0944 94.1928 67.1461C94.5659 68.2504 94.9384 69.3549 95.3078 70.4605C95.7882 71.8988 96.2656 73.3381 96.7457 74.7766C96.7648 74.8341 96.7964 74.8871 96.8266 74.9515L96.9369 74.823C96.9277 75.3751 96.9185 75.927 96.9094 76.479Z" fill="#4FAA41"/>
<path fill-rule="evenodd" clip-rule="evenodd" d="M93.3054 68.4846C93.34 68.5298 93.3896 68.5696 93.4071 68.6207C93.7774 69.711 94.1456 70.8018 94.5109 71.8937C94.9633 73.2465 95.4109 74.601 95.8639 75.9534C96.1377 76.7707 96.4178 77.5862 96.6979 78.4103L96.8239 78.3627L96.7957 78.7624L96.7702 78.8545C96.7264 79.292 96.6895 79.7306 96.6361 80.1672C96.6092 80.3859 96.5522 80.6008 96.5089 80.8174C96.4763 80.7701 96.4305 80.7271 96.4129 80.6747C95.5122 77.9899 94.6142 75.304 93.715 72.6186C93.4288 71.7641 93.1412 70.91 92.8514 70.0566C92.8367 70.0133 92.7954 69.9794 92.7664 69.941C92.9459 69.4555 93.1257 68.97 93.3054 68.4846Z" fill="#4AA73C"/>
<path fill-rule="evenodd" clip-rule="evenodd" d="M96.9367 74.8234L96.8264 74.9519C96.7962 74.8875 96.7646 74.8343 96.7455 74.7769C96.2656 73.3385 95.788 71.8992 95.3076 70.4609C94.9382 69.3553 94.5657 68.2508 94.1926 67.1465C94.1753 67.0948 94.1387 67.0497 94.1108 67.0017L95.1084 65.6895C95.1398 65.7315 95.1847 65.7689 95.201 65.8162C95.4779 66.6269 95.7524 67.4386 96.0252 68.2508C96.2801 69.0093 96.5311 69.769 96.789 70.5265C96.8063 70.5772 96.8664 70.6131 96.9066 70.656L96.9086 70.8281C96.9181 72.1596 96.9275 73.4916 96.9367 74.8234Z" fill="#57AE47"/>
<path fill-rule="evenodd" clip-rule="evenodd" d="M96.9078 70.6563C96.8676 70.6135 96.8075 70.5776 96.7902 70.5268C96.5324 69.7693 96.2813 69.0097 96.0264 68.2512C95.7536 67.439 95.4791 66.6274 95.2022 65.8166C95.1859 65.7693 95.1411 65.7319 95.1096 65.6899C95.434 65.3722 95.7483 65.0432 96.0857 64.7403C96.3857 64.4711 96.6269 64.1824 96.638 63.7571C96.6385 63.7394 96.6477 63.7218 96.6619 63.6724L96.7474 63.8875C96.7452 63.9964 96.7355 64.1053 96.7426 64.2136C96.7549 64.4019 96.7853 64.5892 96.7938 64.7775C96.8096 65.1279 96.8172 65.479 96.8243 65.8299C96.8357 66.3947 96.846 66.9594 96.8531 67.5243C96.8642 68.4268 96.8714 69.3293 96.8828 70.2318C96.8841 70.3736 96.8989 70.5148 96.9078 70.6563Z" fill="#60B24F"/>
<path fill-rule="evenodd" clip-rule="evenodd" d="M96.5091 80.8186C96.5524 80.602 96.6094 80.387 96.6362 80.1684C96.6898 79.732 96.7265 79.2932 96.7703 78.8557L96.7812 78.854L96.7921 78.8558C96.8044 79.4051 96.8792 79.9456 97.0217 80.4766C96.9928 80.5148 96.9517 80.5489 96.9364 80.5921C96.8166 80.9298 96.7038 81.2702 96.5834 81.6079C96.5669 81.6541 96.5211 81.69 96.4888 81.7305L96.3657 81.3078L96.5091 80.8186Z" fill="#A9AA88"/>
<path fill-rule="evenodd" clip-rule="evenodd" d="M96.4871 81.7301C96.5194 81.6895 96.5653 81.6536 96.5816 81.6075C96.7021 81.2698 96.8151 80.9296 96.9347 80.5917C96.95 80.5485 96.9909 80.5144 97.02 80.4762L97.2268 80.9299C97.1859 80.9879 97.1296 81.0401 97.1068 81.1047L96.7108 82.2676C96.6945 82.3143 96.6388 82.3472 96.6016 82.3866L96.4871 81.7301Z" fill="#B6B598"/>
<path fill-rule="evenodd" clip-rule="evenodd" d="M96.6021 82.3867C96.6394 82.3475 96.695 82.3144 96.7113 82.2678L97.1073 81.1048C97.1299 81.0404 97.1864 80.988 97.2273 80.93L97.4274 81.1009C97.3307 81.1964 97.277 81.3068 97.3093 81.4463L97.2485 81.6453C97.2208 81.6794 97.1808 81.7091 97.1671 81.7481C97.0289 82.144 96.8969 82.5421 96.7577 82.9379C96.7401 82.9882 96.6912 83.0276 96.6566 83.0717C96.6386 82.8432 96.6203 82.6152 96.6021 82.3867Z" fill="#C2C1A7"/>
<path fill-rule="evenodd" clip-rule="evenodd" d="M96.6569 83.0714C96.6914 83.027 96.7403 82.9877 96.7581 82.9376C96.8973 82.5419 97.0293 82.1438 97.1675 81.7478C97.1812 81.7089 97.221 81.6791 97.2489 81.645L97.165 82.5585C97.1426 82.5844 97.1101 82.6069 97.0994 82.6371C97.0047 82.903 96.9154 83.1709 96.8204 83.4368C96.8008 83.4916 96.7632 83.5401 96.7339 83.5913C96.7078 83.5572 96.6612 83.5243 96.6591 83.4887C96.6507 83.3501 96.6564 83.2106 96.6569 83.0714Z" fill="#CECDB7"/>
<path fill-rule="evenodd" clip-rule="evenodd" d="M96.7336 83.5914C96.763 83.54 96.8005 83.4916 96.8201 83.4369C96.9154 83.1711 97.0045 82.9033 97.0992 82.6372C97.1099 82.607 97.1425 82.5846 97.1648 82.5586L97.1668 83.1583L96.9661 83.673L96.7336 83.5914Z" fill="#DBDAC7"/>
<path fill-rule="evenodd" clip-rule="evenodd" d="M96.9653 83.6733L97.166 83.1586L97.2073 83.7675L96.9653 83.6733Z" fill="#EBE9DC"/>
<path fill-rule="evenodd" clip-rule="evenodd" d="M97.3095 81.4461C97.2772 81.3065 97.3307 81.196 97.4276 81.1006L97.4831 81.1385L97.3095 81.4461Z" fill="#CECDB7"/>
<path fill-rule="evenodd" clip-rule="evenodd" d="M96.7913 78.8552L96.7804 78.8534L96.7695 78.8551L96.7951 78.763L96.7913 78.8552Z" fill="#4FAA41"/>
<defs>
<filter id="filter0_d_704_1969" x="63.9533" y="0.138803" width="32.1138" height="32.1137" filterUnits="userSpaceOnUse" color-interpolation-filters="sRGB">
<feFlood flood-opacity="0" result="BackgroundImageFix"/>
<feColorMatrix in="SourceAlpha" type="matrix" values="0 0 0 0 0 0 0 0 0 0 0 0 0 0 0 0 0 0 127 0" result="hardAlpha"/>
<feOffset/>
<feGaussianBlur stdDeviation="2.4306"/>
<feColorMatrix type="matrix" values="0 0 0 0 0 0 0 0 0 0 0 0 0 0 0 0 0 0 0.15 0"/>
<feBlend mode="normal" in2="BackgroundImageFix" result="effect1_dropShadow_704_1969"/>
<feBlend mode="normal" in="SourceGraphic" in2="effect1_dropShadow_704_1969" result="shape"/>
</filter>
<filter id="filter1_d_704_1969" x="0.138803" y="22.5305" width="32.1138" height="32.1137" filterUnits="userSpaceOnUse" color-interpolation-filters="sRGB">
<feFlood flood-opacity="0" result="BackgroundImageFix"/>
<feColorMatrix in="SourceAlpha" type="matrix" values="0 0 0 0 0 0 0 0 0 0 0 0 0 0 0 0 0 0 127 0" result="hardAlpha"/>
<feOffset/>
<feGaussianBlur stdDeviation="2.4306"/>
<feColorMatrix type="matrix" values="0 0 0 0 0 0 0 0 0 0 0 0 0 0 0 0 0 0 0.15 0"/>
<feBlend mode="normal" in2="BackgroundImageFix" result="effect1_dropShadow_704_1969"/>
<feBlend mode="normal" in="SourceGraphic" in2="effect1_dropShadow_704_1969" result="shape"/>
</filter>
<filter id="filter2_d_704_1969" x="80.8671" y="58.3562" width="30.9941" height="30.9941" filterUnits="userSpaceOnUse" color-interpolation-filters="sRGB">
<feFlood flood-opacity="0" result="BackgroundImageFix"/>
<feColorMatrix in="SourceAlpha" type="matrix" values="0 0 0 0 0 0 0 0 0 0 0 0 0 0 0 0 0 0 127 0" result="hardAlpha"/>
<feOffset/>
<feGaussianBlur stdDeviation="2.4306"/>
<feColorMatrix type="matrix" values="0 0 0 0 0 0 0 0 0 0 0 0 0 0 0 0 0 0 0.15 0"/>
<feBlend mode="normal" in2="BackgroundImageFix" result="effect1_dropShadow_704_1969"/>
<feBlend mode="normal" in="SourceGraphic" in2="effect1_dropShadow_704_1969" result="shape"/>
</filter>
<clipPath id="clip0_704_1969">
<rect x="5" y="27.3917" width="22.3913" height="22.3913" rx="1.6204" fill="white"/>
</clipPath>
</defs>
</svg>
