<svg xmlns="http://www.w3.org/2000/svg" width="9" height="41" fill="none" viewBox="0 0 9 41"><path fill="#E0DEDE" d="M4.14645 40.3536C4.34171 40.5488 4.65829 40.5488 4.85355 40.3536L8.03553 37.1716C8.2308 36.9763 8.2308 36.6597 8.03553 36.4645C7.84027 36.2692 7.52369 36.2692 7.32843 36.4645L4.5 39.2929L1.67157 36.4645C1.47631 36.2692 1.15973 36.2692 0.964466 36.4645C0.769204 36.6597 0.769204 36.9763 0.964466 37.1716L4.14645 40.3536ZM5.5 0C5.5 0.557191 5.05719 1 4.5 1V2C5.60948 2 6.5 1.10948 6.5 0H5.5ZM4.5 1C3.94281 1 3.5 0.557191 3.5 0H2.5C2.5 1.10948 3.39052 2 4.5 2V1ZM4 1.5V20H5V1.5H4ZM4 20V40H5V20H4Z"/></svg>