<svg xmlns="http://www.w3.org/2000/svg" width="207" height="158" fill="none"><g clip-path="url(#a)"><path fill="#ECE6F3" d="M131.888 123.251c-4.514 2.311-4.407 2.511-8.899 4.858-4.493 2.347-4.55 2.232-9.043 4.579-4.493 2.347-4.428 2.469-8.921 4.816-4.492 2.346-4.499 2.346-8.992 4.686l-8.985 4.693c-4.5 2.347-4.565 2.225-9.057 4.572-4.493 2.347-4.514 2.311-9.021 4.65-.237.101-.474.022-.732.015-1.177-.036-4.68-.18-5.806-.23-.23-.007-.445.058-.653-.043-4.357-2.074-4.328-2.131-8.677-4.205-4.35-2.074-4.378-2.017-8.734-4.084-4.356-2.067-4.378-2.017-8.734-4.091-4.356-2.074-4.4-1.98-8.756-4.054-4.356-2.075-4.234-2.333-8.583-4.4s-4.414-1.945-8.777-4.019c-4.363-2.074-4.342-2.103-8.698-4.177-1.32-.631-1.4-2.612-.058-3.2 3.153-1.603 6.3-3.216 9.438-4.837 4.708-2.441 4.78-2.297 9.487-4.737 4.708-2.44 4.644-2.562 9.352-5.002 4.707-2.44 4.808-2.247 9.523-4.687 4.715-2.44 4.7-2.454 9.409-4.894 4.708-2.44 4.679-2.505 9.387-4.952 4.715-2.44 4.657-2.54 9.373-4.98.014 0 .093.014.093.02 4.65 2.19 4.622 2.254 9.272 4.436s4.636 2.218 9.287 4.4c4.65 2.181 4.593 2.31 9.243 4.492s4.78 1.916 9.43 4.098c4.651 2.182 4.572 2.361 9.223 4.543 4.65 2.181 4.751 1.973 9.408 4.155 4.658 2.182 4.665 2.16 9.323 4.349 1.327.624 1.22 2.648-.129 3.237z"/><path fill="#EAF0F3" d="M62.239 54.175c4.765-2.418 4.607-2.727 9.344-5.21 4.736-2.483 4.808-2.34 9.545-4.815 4.736-2.484 4.708-2.534 9.444-5.01 4.737-2.476 4.844-2.268 9.581-4.75 4.737-2.484 4.608-2.728 9.337-5.211s4.816-2.325 9.552-4.808c4.737-2.483 4.737-2.476 9.473-4.96 4.737-2.483 4.708-2.533 9.452-5.016 4.737-2.483 4.643-2.67 9.416-5.088.344-.015 5.49 1.327 5.49 1.672 0 5.002-.079 5.002-.079 9.997s-.143 4.995-.143 9.997v9.997c0 4.995-.022 5.002-.022 9.997s.23 4.995.23 9.998v9.997c0 5.002-.129 5.002-.129 9.997s.114 5.002.114 9.997.043 5.002.043 10.004-.05 5.002-.014 10.005c.072.811-.352 1.808-1.198 2.246-4.493 2.404-4.615 2.182-9.108 4.593-4.492 2.411-4.428 2.533-8.92 4.938-4.493 2.404-4.514 2.375-9.007 4.786-4.493 2.412-4.45 2.483-8.942 4.895-4.493 2.411-4.5 2.397-8.993 4.808-4.492 2.412-4.607 2.203-9.1 4.615-4.492 2.411-4.413 2.562-8.906 4.973-4.492 2.412-4.564 2.282-9.064 4.694-4.5 2.411-4.378 2.641-8.878 5.038-2.511 1.299-5.576 1.428-8.174.308-.129-.057.388.187.259.13-.819-.352-1.178-1.228-1.213-1.988-.022-5.017-.151-5.017-.151-10.033 0-5.017.13-5.017.13-10.026 0-5.009-.152-5.017-.152-10.033 0-5.017.065-5.017.065-10.033v-10.033c0-5.017.187-5.017.18-10.026-.008-5.01-.173-5.016-.173-10.033 0-5.017-.079-5.017-.079-10.026 0-5.01.302-5.016.302-10.033 0-5.016-.201-5.016-.201-10.033 0-.33.351-.51.681-.517h.008"/><path fill="#D5E1E6" d="m62.935 56.292-.072.165c2.433 1.048 5.254.876 7.6-.337 4.515-2.404 4.493-2.44 9-4.859 4.507-2.418 4.536-2.36 9.043-4.78 4.507-2.418 4.435-2.561 8.942-4.973 4.507-2.411 4.543-2.347 9.05-4.765 4.507-2.419 4.456-2.512 8.963-4.923 4.507-2.412 4.601-2.247 9.108-4.665 4.507-2.419 4.564-2.318 9.071-4.737 4.514-2.418 4.449-2.533 8.964-4.952 4.514-2.418 4.507-2.425 9.021-4.837 1.607-.832 1.507-3.23-.151-3.947l-.05.122c-2.433-1.048-5.203-1.12-7.55.1a2259.38 2259.38 0 0 0-9.021 4.83c-4.507 2.42-4.479 2.476-8.985 4.895-4.507 2.419-4.536 2.368-9.043 4.787-4.507 2.418-4.478 2.469-8.985 4.887-4.507 2.419-4.493 2.44-9 4.859-4.507 2.418-4.55 2.34-9.064 4.758-4.514 2.419-4.536 2.368-9.043 4.787-4.507 2.418-4.399 2.62-8.913 5.038s-4.521 2.397-9.036 4.808c-1.607.833-1.514 3.036.151 3.754v-.015"/><path stroke="#80949C" stroke-linecap="round" stroke-linejoin="round" stroke-width="1.333" d="M151.559 112.98c-4.507 2.419-4.377 2.656-8.884 5.074-4.507 2.419-4.637 2.182-9.143 4.601-4.507 2.418-4.371 2.669-8.885 5.088-4.514 2.418-4.6 2.239-9.107 4.658-4.507 2.418-4.5 2.425-9.007 4.844-4.507 2.418-4.557 2.332-9.064 4.751-4.507 2.418-4.378 2.655-8.885 5.074-4.507 2.418-4.572 2.303-9.079 4.722-4.507 2.419-4.55 2.354-9.064 4.758-2.354 1.22-5.153 1.5-7.586.452l.108-.258"/><path stroke="#80949C" stroke-linecap="round" stroke-linejoin="round" stroke-width="1.333" d="M66.25 157.268c0-4.786.194-4.786.194-9.58 0-4.794-.172-4.787-.172-9.574s.114-4.794.114-9.581.072-4.794.072-9.581"/><path fill="#fff" d="M75.027 146.776c-1.112 0-2.016-.94-2.016-2.096 0-2.569-.022-3.854-.043-5.138-.022-1.285-.043-2.562-.043-5.124s-.015-3.854-.03-5.132c-.013-1.284-.028-2.562-.028-5.131 0-2.569.029-3.868.05-5.124.03-1.263.05-2.569.05-5.139 0-2.569.008-7.693.008-10.262 0-2.57.029-3.868.057-5.124.029-1.263.058-2.57.058-5.139V72.834c0-2.576-.065-3.882-.122-5.152-.058-1.256-.122-2.562-.122-5.117 0-.79.53-1.558 1.32-1.895 1.63-.861 2.656-1.392 3.524-1.844 1.529-.804 2.562-1.342 5.39-2.857 2.217-1.191 3.323-1.844 4.392-2.476 1.062-.624 2.16-1.277 4.363-2.461a103.764 103.764 0 0 1 4.457-2.282c1.112-.546 2.26-1.106 4.485-2.297a91.926 91.926 0 0 0 4.385-2.483 96.852 96.852 0 0 1 4.364-2.462 144.055 144.055 0 0 1 4.449-2.303 146.435 146.435 0 0 0 4.471-2.318c2.211-1.185 3.323-1.773 4.428-2.362 1.113-.588 2.225-1.17 4.436-2.36a413.192 413.192 0 0 1 4.435-2.362c1.112-.588 2.217-1.177 4.435-2.361 4.299-2.304 4.457-2.39 8.504-4.5l.374-.194c.258-.107.545-.172.839-.172 1.113 0 1.981.869 1.981 1.98 0 2.57.036 3.876.072 5.147.036 1.256.072 2.562.072 5.117 0 2.554-.015 3.846-.036 5.124-.015 1.284-.036 2.569-.036 5.138v15.394c0 1.285-.007 2.562-.007 5.132 0 2.569 0 3.846-.015 5.13 0 1.286-.014 2.57-.014 5.132s-.007 3.847-.014 5.132c-.008 1.284-.015 2.569-.015 5.13 0 2.563-.043 3.862-.086 5.125s-.086 2.57-.086 5.146.029 3.875.05 5.138c.029 1.263.05 2.562.05 5.124 0 .833-.466 1.558-1.212 1.881-2.433 1.284-3.546 1.909-4.723 2.569-1.012.567-2.095 1.177-4.119 2.261-2.218 1.191-3.33 1.823-4.407 2.433-1.069.61-2.181 1.241-4.385 2.425a91.646 91.646 0 0 1-4.463 2.268c-1.12.538-2.275 1.091-4.493 2.282a149.123 149.123 0 0 0-4.399 2.44c-1.07.61-2.175 1.242-4.385 2.426a253.349 253.349 0 0 1-4.443 2.333c-1.119.574-2.239 1.148-4.449 2.339-2.211 1.184-3.323 1.773-4.428 2.361-1.113.589-2.225 1.17-4.435 2.361-2.204 1.185-3.309 1.78-4.414 2.376-1.113.596-2.218 1.198-4.443 2.39-1.952 1.047-3.028 1.658-4.011 2.203a135.806 135.806 0 0 1-4.809 2.605 2.02 2.02 0 0 1-.782.158h.014"/><path fill="#D5E1E6" d="M145.89 22.92c.79 0 1.622.567 1.622 1.622 0 2.577.036 3.883.072 5.153.036 1.256.072 2.555.072 5.11s-.015 3.861-.036 5.124c-.014 1.263-.036 2.57-.036 5.139V55.33c0 2.563 0 3.847-.007 5.132 0 1.284-.007 2.569-.007 5.131 0 2.562 0 3.847-.015 5.131 0 1.285-.014 2.57-.014 5.139 0 2.57-.007 3.847-.014 5.124-.008 1.285-.015 2.57-.015 5.139 0 2.569-.043 3.853-.079 5.11-.043 1.27-.086 2.576-.086 5.16 0 2.583.029 3.882.05 5.145.029 1.256.051 2.562.051 5.117 0 .689-.381 1.285-.998 1.55l-.029.015-.021.014c-2.412 1.27-3.524 1.895-4.708 2.555-1.026.574-2.096 1.177-4.112 2.261a161.791 161.791 0 0 0-4.414 2.44c-1.069.61-2.175 1.234-4.378 2.418a98.06 98.06 0 0 1-4.449 2.261 99.78 99.78 0 0 0-4.507 2.289c-2.218 1.192-3.33 1.83-4.407 2.44-1.069.61-2.174 1.242-4.378 2.426-2.21 1.184-3.337 1.765-4.435 2.332-1.098.567-2.239 1.156-4.456 2.347a480.066 480.066 0 0 1-4.428 2.354c-1.113.589-2.225 1.177-4.443 2.361-2.203 1.184-3.308 1.78-4.413 2.376-1.113.595-2.218 1.198-4.436 2.39-1.952 1.047-3.05 1.665-4.019 2.21-1.234.696-2.31 1.299-4.78 2.584a1.668 1.668 0 0 1-.638.129c-.911 0-1.658-.782-1.658-1.737 0-2.569-.021-3.883-.043-5.146a258.525 258.525 0 0 1-.043-5.117c0-2.555-.014-3.875-.029-5.138a388.327 388.327 0 0 1-.028-5.124c0-2.562.028-3.861.05-5.117.028-1.263.05-2.577.05-5.146v-10.263c0-2.562.029-3.86.058-5.117.028-1.263.057-2.576.057-5.145V72.827c0-2.57-.065-3.897-.122-5.167-.057-1.256-.122-2.548-.122-5.103 0-.653.445-1.284 1.105-1.571l.029-.015.021-.014a603.957 603.957 0 0 1 3.51-1.845c1.535-.803 2.555-1.334 5.375-2.849 2.225-1.19 3.33-1.851 4.4-2.483 1.054-.624 2.152-1.27 4.349-2.454 2.195-1.184 3.337-1.737 4.442-2.282a121.399 121.399 0 0 0 4.492-2.304 100.514 100.514 0 0 0 4.4-2.49c1.055-.625 2.146-1.278 4.349-2.455 2.203-1.184 3.344-1.75 4.442-2.303a144.684 144.684 0 0 0 4.478-2.319 496.414 496.414 0 0 1 4.428-2.354c1.113-.588 2.225-1.17 4.436-2.36 2.217-1.192 3.322-1.773 4.435-2.362 1.112-.588 2.225-1.177 4.435-2.36 4.306-2.312 4.385-2.355 8.526-4.515l.323-.172c.23-.094.466-.144.703-.144m0-.717c-.33 0-.674.064-1.012.215a874.736 874.736 0 0 0-8.884 4.7c-4.428 2.376-4.443 2.347-8.871 4.73-4.428 2.375-4.442 2.34-8.87 4.722-4.428 2.376-4.493 2.247-8.921 4.622-4.428 2.376-4.32 2.57-8.748 4.945-4.421 2.375-4.514 2.21-8.935 4.586-4.428 2.375-4.328 2.554-8.756 4.93-4.428 2.375-4.442 2.347-8.884 4.694-.89.387-1.536 1.263-1.536 2.224 0 5.132.244 5.132.244 10.27V93.36c0 5.131-.115 5.131-.115 10.262 0 5.132-.007 5.132-.007 10.263s-.108 5.131-.108 10.263c0 5.131.057 5.131.057 10.262 0 5.132.087 5.132.087 10.263 0 1.399 1.112 2.454 2.375 2.454.309 0 .632-.064.947-.2 4.457-2.326 4.4-2.433 8.828-4.809 4.428-2.375 4.42-2.383 8.849-4.765 4.428-2.376 4.442-2.347 8.863-4.722 4.428-2.376 4.471-2.297 8.892-4.672 4.428-2.376 4.363-2.491 8.784-4.866 4.421-2.376 4.528-2.175 8.956-4.55 4.428-2.376 4.371-2.483 8.792-4.859 4.421-2.375 4.371-2.476 8.813-4.815.89-.388 1.428-1.242 1.428-2.211 0-5.131-.108-5.131-.108-10.27 0-5.138.165-5.131.165-10.27 0-5.138.036-5.13.036-10.262 0-5.132.022-5.132.022-10.263s.014-5.131.014-10.263V45.068c0-5.132.065-5.132.065-10.263s-.151-5.131-.151-10.263c0-1.378-1.091-2.34-2.339-2.34l.028-.014"/><path fill="#EAF0F3" d="M83.97 121.169c-2.333 1.184-2.434.983-4.78 2.153-1.6.696-3.201-.366-3.201-2.117 0-2.326-.029-2.326-.029-4.651 0-.969.545-1.686 1.428-2.074 2.332-1.184 2.26-1.328 4.6-2.497 1.6-.697 3.402.409 3.402 2.153 0 2.325.122 2.325.122 4.65 0 .969-.66 1.995-1.55 2.376l.007.007"/><path fill="#fff" d="M72.63 78.941c4.73-2.54 4.607-2.77 9.33-5.304 4.722-2.533 4.758-2.483 9.48-5.023 4.722-2.54 4.744-2.505 9.466-5.046 4.729-2.54 4.744-2.511 9.473-5.045 4.73-2.533 4.801-2.404 9.531-4.945 4.729-2.54 4.6-2.777 9.322-5.317 4.73-2.54 4.852-2.318 9.581-4.859 4.73-2.54 4.744-2.512 9.474-5.052"/><path stroke="#D5E1E6" stroke-miterlimit="10" stroke-width="1.333" d="M72.63 78.941c4.73-2.54 4.607-2.77 9.33-5.304 4.722-2.533 4.758-2.483 9.48-5.023 4.722-2.54 4.744-2.505 9.466-5.046 4.729-2.54 4.744-2.511 9.473-5.045 4.73-2.533 4.801-2.404 9.531-4.945 4.729-2.54 4.6-2.777 9.322-5.317 4.73-2.54 4.852-2.318 9.581-4.859 4.73-2.54 4.744-2.512 9.474-5.052"/><path fill="#fff" d="M72.493 96.036c4.73-2.54 4.809-2.39 9.538-4.924 4.73-2.533 4.78-2.44 9.51-4.98 4.728-2.54 4.736-2.52 9.458-5.06 4.729-2.54 4.65-2.677 9.38-5.217 4.729-2.54 4.708-2.577 9.437-5.117 4.73-2.54 4.715-2.57 9.438-5.103 4.729-2.54 4.837-2.34 9.566-4.88 4.73-2.54 4.708-2.584 9.437-5.124"/><path stroke="#D5E1E6" stroke-miterlimit="10" stroke-width="1.333" d="M72.493 96.036c4.73-2.54 4.809-2.39 9.538-4.924 4.73-2.533 4.78-2.44 9.51-4.98 4.728-2.54 4.736-2.52 9.458-5.06 4.729-2.54 4.65-2.677 9.38-5.217 4.729-2.54 4.708-2.577 9.437-5.117 4.73-2.54 4.715-2.57 9.438-5.103 4.729-2.54 4.837-2.34 9.566-4.88 4.73-2.54 4.708-2.584 9.437-5.124"/><path fill="#fff" d="M72.572 113.54c4.73-2.541 4.687-2.613 9.416-5.153 4.73-2.541 4.708-2.569 9.437-5.11 4.73-2.541 4.737-2.519 9.466-5.052 4.73-2.534 4.759-2.483 9.481-5.024 4.722-2.54 4.794-2.419 9.523-4.96 4.73-2.54 4.672-2.64 9.402-5.18 4.729-2.541 4.665-2.663 9.394-5.204 4.73-2.54 4.808-2.397 9.538-4.93"/><path stroke="#D5E1E6" stroke-miterlimit="10" stroke-width="1.333" d="M72.572 113.54c4.73-2.541 4.687-2.613 9.416-5.153 4.73-2.541 4.708-2.569 9.437-5.11 4.73-2.541 4.737-2.519 9.466-5.052 4.73-2.534 4.759-2.483 9.481-5.024 4.722-2.54 4.794-2.419 9.523-4.96 4.73-2.54 4.672-2.64 9.402-5.18 4.729-2.541 4.665-2.663 9.394-5.204 4.73-2.54 4.808-2.397 9.538-4.93"/><path fill="#fff" d="M72.486 130.728c4.73-2.541 4.794-2.412 9.524-4.952 4.73-2.541 4.657-2.67 9.387-5.21 4.73-2.541 4.88-2.254 9.602-4.794 4.723-2.541 4.701-2.591 9.43-5.125 4.73-2.533 4.651-2.684 9.38-5.224 4.73-2.541 4.715-2.555 9.445-5.096 4.729-2.54 4.744-2.519 9.473-5.06 4.73-2.54 4.773-2.46 9.502-5.001"/><path stroke="#D5E1E6" stroke-miterlimit="10" stroke-width="1.333" d="M72.486 130.728c4.73-2.541 4.794-2.412 9.524-4.952 4.73-2.541 4.657-2.67 9.387-5.21 4.73-2.541 4.88-2.254 9.602-4.794 4.723-2.541 4.701-2.591 9.43-5.125 4.73-2.533 4.651-2.684 9.38-5.224 4.73-2.541 4.715-2.555 9.445-5.096 4.729-2.54 4.744-2.519 9.473-5.06 4.73-2.54 4.773-2.46 9.502-5.001"/><path fill="#ECE6F3" d="M144.577 53.249c-5.06 2.713-4.981 2.856-10.041 5.569-3.373 1.809-6.743 3.62-10.112 5.433-3.509 1.88-7.478 1.528-10.485-.266-3.007-1.794-4.937-5.124-4.937-9.107 0-5.325-.079-5.325-.079-10.65 0-2.756.732-5.383 2.095-7.665 1.364-2.282 3.287-4.241 5.72-5.548 4.651-2.497 4.601-2.583 9.251-5.08 4.651-2.498 4.629-2.541 9.272-5.039 3.876-2.08 8.218-1.535 11.533.445 3.316 1.981 5.835 5.555 5.835 9.954 0 4.4-.201 4.4-.201 8.799 0 2.756-.79 5.354-2.16 7.643-1.371 2.29-3.28 4.213-5.713 5.52l.022-.008" style="mix-blend-mode:multiply"/><path fill="#fff" d="M101.897 46.33c0 5.404-.172 5.404-.172 10.815 0 5.412-.072 5.404-.072 10.816 0 5.41.122 5.41.122 10.815 0 5.404.129 5.404.129 10.815s-.301 5.411-.301 10.815.215 5.412.215 10.816c0 5.404-.144 5.411-.144 10.815s.266 5.411.266 10.815"/><path stroke="#D5E1E6" stroke-miterlimit="10" stroke-width="1.333" d="M101.897 46.33c0 5.404-.172 5.404-.172 10.815 0 5.412-.072 5.404-.072 10.816 0 5.41.122 5.41.122 10.815 0 5.404.129 5.404.129 10.815s-.301 5.411-.301 10.815.215 5.412.215 10.816c0 5.404-.144 5.411-.144 10.815s.266 5.411.266 10.815"/><path fill="#FCBA44" d="M156.856 37.979c-5.002 2.72-4.859 2.978-9.861 5.705-5.002 2.727-5.124 2.505-10.126 5.218-2.476 1.327-5.569 1.076-8.619-.23-2.656-1.141-5.268-2.978-7.242-5.21-2.167-2.462-3.588-5.354-3.588-8.052 0-3.55.005-7.1.014-10.65 0-2.757.783-5.39 2.153-7.673 1.371-2.282 3.28-4.277 5.713-5.583 4.65-2.497 4.751-2.31 9.401-4.808 4.651-2.498 4.572-2.641 9.222-5.139 2.613-1.4 5.986-1.55 9.309-.81 3.086.688 6.078 2.224 8.432 4.205 2.627 2.203 4.565 4.973 4.565 8.052.014 5.598-.015 5.598 0 11.196 0 2.777-1.249 5.59-2.964 8.059a18.565 18.565 0 0 1-6.402 5.72h-.007"/><path fill="#FFCD6E" d="M158.233 37.398c-5.059 2.712-4.987 2.841-10.047 5.554-5.06 2.713-5.167 2.505-10.227 5.225-3.509 1.88-7.263 1.507-10.262-.287-3-1.794-5.168-4.93-5.168-8.914 0-5.325-.186-5.325-.186-10.65 0-2.756.825-5.454 2.196-7.736 1.371-2.282 3.409-4.184 5.834-5.483 4.651-2.498 4.701-2.404 9.352-4.902 4.65-2.497 4.535-2.713 9.186-5.203 3.875-2.081 8.296-1.665 11.612.323a11.722 11.722 0 0 1 5.684 10.083c0 4.4-.122 4.4-.122 8.799 0 2.756-.567 5.49-1.931 7.772-1.363 2.282-3.481 4.12-5.913 5.426l-.008-.008"/><g stroke="#253135" stroke-linecap="round" stroke-miterlimit="10" stroke-width="2"><path d="M153.905 15.236c.302-.165.251-.252.553-.41 1.019-.545 2.476.295 2.476 1.45 0 1.285-.208 1.285-.208 2.577 0 .48.308.868.581 1.263.223.323.309.337.273.725-.094.911-.381.825-.718 1.679-.122.309-.043.682-.043 1.012 0 1.471.036 1.471.036 2.935 0 1.32-.739 2.684-1.895 3.309M157.666 20.905c.301-.165.287-.18.588-.344M148.509 17.676c.301-.165.409.036.71-.122 1.019-.545 2.046.093 2.046 1.249 0 1.284.251 1.284.251 2.576 0 .48-.015.998.258 1.392.223.323.503.201.467.596-.094.912-.187.897-.524 1.751-.122.309-.18.603-.18.94 0 1.471-.028 1.471-.028 2.936 0 1.32-.876 2.404-2.039 3.028M152.334 23.46c.301-.165.251-.251.553-.416M135.347 38.876c-.301.165-.366.043-.667.208-1.019.545-2.419-.201-2.419-1.357 0-1.284.309-1.284.309-2.576 0-.48-.409-.876-.682-1.27-.222-.323-.244-.323-.208-.71.093-.912.215-.862.553-1.716.122-.309.114-.646.114-.983 0-1.472.108-1.472.108-2.936 0-1.32.739-2.425 1.902-3.05M131.593 33.213c-.301.165-.308.143-.61.309M140.794 36.429c-.301.165-.33.1-.631.265-1.02.546-2.146-.2-2.146-1.356 0-1.285-.287-1.285-.287-2.577 0-.48.021-.947-.244-1.349-.223-.323-.61-.272-.574-.66.093-.911.43-.854.767-1.708.122-.309.115-.632.115-.969 0-1.471.072-1.471.072-2.935 0-1.32.832-2.383 1.995-3.007"/><path d="M137.005 30.694c-.301.165-.194.366-.495.531"/></g><path stroke="#F9A619" stroke-miterlimit="10" stroke-width="1.333" d="M158.306 37.535c-5.06 2.712-5.088 2.655-10.148 5.375s-5.052 2.72-10.112 5.433c-3.509 1.88-7.442 1.485-10.442-.309s-5.296-5.074-5.296-9.05c0-5.325.1-5.325.1-10.65"/><path fill="#EAF0F3" d="M142.036 73.351c-4.299 2.21-4.263 2.275-8.547 4.514-4.285 2.24-4.242 2.311-8.526 4.557-4.285 2.247-4.299 2.21-8.583 4.45-4.285 2.239-4.371 2.074-8.677 4.27-1.6.696-3.38-.388-3.38-2.132 0-2.325-.051-2.325-.051-4.65 0-.969.603-1.945 1.493-2.325 4.299-2.21 4.278-2.246 8.562-4.486 4.284-2.239 4.256-2.282 8.54-4.528 4.285-2.246 4.349-2.11 8.634-4.356 4.284-2.247 4.313-2.19 8.619-4.378 1.6-.696 3.402.394 3.402 2.146 0 2.325.1 2.325.1 4.65 0 .969-.703 1.895-1.586 2.275zM119.695 102.05c-5.971 3.079-5.935 3.151-11.914 6.208-1.6.696-3.459-.538-3.459-2.282 0-2.325.086-2.325.086-4.65 0-.969.445-1.995 1.335-2.383 5.971-3.079 6.021-2.986 12-6.043 1.6-.696 3.229.467 3.229 2.21 0 2.326.101 2.326.101 4.651 0 .969-.488 1.902-1.371 2.289zM91.907 83.09c-5.971 3.078-5.935 3.15-11.914 6.207-1.6.697-3.459-.538-3.459-2.282 0-2.325.086-2.325.086-4.65 0-.97.445-1.995 1.335-2.383 5.971-3.079 6.021-2.986 12-6.043 1.6-.696 3.23.467 3.23 2.21 0 2.326.1 2.326.1 4.651 0 .969-.488 1.902-1.371 2.29h-.007M91.907 134.367c-5.971 3.079-5.935 3.15-11.914 6.208-1.6.696-3.459-.539-3.459-2.282 0-2.326.086-2.326.086-4.651 0-.969.445-1.995 1.335-2.383 5.971-3.078 6.021-2.985 12-6.042 1.6-.697 3.23.466 3.23 2.21 0 2.325.1 2.325.1 4.65 0 .969-.488 1.902-1.371 2.29h-.007M131.027 95.986c-2.333 1.184-2.203 1.45-4.543 2.612-1.6.697-3.344-.638-3.344-2.382 0-2.325-.287-2.325-.287-4.65 0-.97.724-1.867 1.607-2.254 2.333-1.184 2.289-1.278 4.629-2.447 1.6-.697 3.495.538 3.495 2.282 0 2.325-.165 2.325-.165 4.65 0 .97-.502 1.794-1.392 2.182v.007"/></g><defs><clipPath id="a"><path fill="#fff" d="M0 0h207v158H0z"/></clipPath></defs></svg>