<svg xmlns="http://www.w3.org/2000/svg" width="337" height="201" fill="none"><path fill="#ECE6F3" d="M262.527 111.827c-4.511 1.942-4.553 1.833-9.065 3.775-4.511 1.942-4.779 1.305-9.291 3.247-4.511 1.942-4.486 2.001-8.998 3.943-4.511 1.942-4.302 2.435-8.814 4.377-4.218 1.817-9.056 1.407-13.141-.703-4.403-2.276-4.487-2.117-8.889-4.402-4.403-2.277-4.252-2.562-8.655-4.847-4.403-2.285-4.411-2.26-8.823-4.545-4.402-2.285-4.57-1.959-8.981-4.235-2.796-1.448-2.737-5.993.151-7.241 4.511-1.942 4.746-1.397 9.249-3.348 4.503-1.95 4.26-2.52 8.772-4.461 4.512-1.942 4.805-1.272 9.316-3.214 4.512-1.942 4.529-1.917 9.04-3.859 4.219-1.816 9.04-2.21 13.125-.092 2.935 1.518 5.873 3.035 8.814 4.553 4.402 2.277 4.386 2.31 8.788 4.587 4.403 2.285 4.102 2.871 8.513 5.148 4.403 2.285 4.52 2.059 8.923 4.344 2.795 1.448 2.862 5.709-.025 6.956z"/><path fill="#D5E1E6" d="M291.958 77.283c-4.805-.167-4.796-.586-9.601-.753-4.805-.168-4.813.058-9.626-.11-4.804-.166-4.821.16-9.626-.008-4.804-.167-4.804-.31-9.609-.477-4.804-.167-4.821.21-9.626.042-4.813-.167-4.787-.753-9.6-.92-4.805-.168-4.822.31-9.635.142-4.812-.168-4.796-.712-9.6-.88-4.813-.166-4.838.537-9.651.37-.603-.017-1.038.066-1.038.669 0 4.151.109 4.151.109 8.303 0 4.152-.427 4.152-.477 8.304-.126 1.414.971 2.644 2.444 3.406 4.352 2.252 4.11 2.712 8.454 4.964 4.344 2.251 4.436 2.084 8.78 4.336 4.344 2.251 4.487 2 8.831 4.252 4.352 2.251 4.361 2.226 8.713 4.478 4.361 2.26 9.509 2.955 14.029 1.004 2.969-1.278 5.94-2.553 8.914-3.825 4.453-1.917 4.378-2.093 8.831-4.009 4.453-1.917 4.361-2.126 8.814-4.052 4.453-1.916 4.52-1.766 8.973-3.683 1.423-.61 2.502-1.966 2.569-3.297.034-4.294-.778-4.294-.77-8.588.009-4.294.687-4.294.687-8.588 0-.57-.712-1.063-1.281-1.08z"/><path fill="#D5E1E6" d="M291.966 76.947c-4.804-.167-4.813-.126-9.617-.293-4.805-.167-4.805-.293-9.609-.46-4.805-.168-4.83.334-9.634.167-4.805-.167-4.797-.41-9.61-.577-4.804-.168-4.804-.352-9.609-.52-4.804-.167-4.813-.108-9.625-.276-4.805-.167-4.83.402-9.635.235-4.813-.168-4.796-.62-9.609-.787-4.813-.168-4.829.435-9.642.268-.603-.017-1.423.05-1.423.644 0 4.152-.067 4.152-.067 8.304 0 4.151.376 4.151.318 8.303-.126 1.415.519 3.064 1.984 3.825 4.352 2.252 4.528 1.9 8.88 4.152 4.345 2.251 4.261 2.419 8.605 4.67l8.705 4.504c4.353 2.251 4.261 2.427 8.613 4.679 4.361 2.26 9.551 2.159 14.071.209 4.453-1.917 4.52-1.766 8.973-3.683 4.453-1.917 4.57-1.641 9.023-3.557 4.453-1.917 4.478-1.867 8.931-3.792 4.453-1.917 4.428-1.975 8.881-3.9 1.423-.612 1.732-2.21 1.799-3.541.034-4.294.218-4.294.218-8.588s.243-4.294.243-8.588c0-.57-.578-1.398-1.147-1.415z"/><path fill="#D5E1E6" d="M291.966 77.15c-4.805-.168-4.805-.302-9.609-.47-4.805-.167-4.83.536-9.643.369-4.804-.168-4.804-.369-9.609-.536-4.804-.168-4.788-.695-9.592-.862-4.805-.168-4.805-.193-9.618-.36-4.813-.167-4.813-.067-9.625-.234-4.805-.168-4.822.192-9.626.025-4.805-.168-4.805-.486-9.609-.653-4.813-.168-4.813-.15-9.626-.318-.603-.017-1.34.652-1.34 1.255 0 4.152.377 4.152.377 8.304 0 4.151-.502 4.151-.561 8.303-.125 1.414.804 3.139 2.277 3.9 4.353 2.252 4.47 2.01 8.822 4.261 4.345 2.252 4.211 2.511 8.563 4.763 4.353 2.251 4.671 1.64 9.015 3.892 4.353 2.251 4.219 2.502 8.571 4.754 4.361 2.26 9.459 2.52 13.97.578 4.453-1.917 4.403-2.026 8.856-3.943 4.453-1.917 4.587-1.598 9.04-3.515 4.453-1.917 4.428-1.992 8.881-3.909 4.453-1.917 4.428-1.967 8.889-3.892 1.423-.611 1.975-1.984 2.042-3.307.034-4.294.31-4.294.31-8.588 0-4.293.26-4.293.268-8.588 0-.569-.846-1.196-1.415-1.222l-.008-.008"/><path fill="#D5E1E6" d="M291.949 77.533c-4.805-.167-4.813-.05-9.618-.217-4.804-.168-4.788-.653-9.6-.82-4.805-.168-4.822.175-9.626.008-4.805-.168-4.796-.586-9.601-.754-4.805-.167-4.805-.376-9.609-.544-4.805-.167-4.83.335-9.634.168-4.805-.168-4.822.159-9.626 0-4.813-.168-4.805-.486-9.609-.653-4.813-.168-4.822.1-9.634-.067-.603-.017-1.407.092-1.407.686 0 4.152.31 4.152.31 8.304 0 4.151.008 4.151-.042 8.303-.125 1.415.737 2.57 2.21 3.331 4.353 2.252 4.185 2.57 8.529 4.822 4.344 2.251 4.395 2.159 8.739 4.411 4.352 2.251 4.403 2.151 8.755 4.403 4.353 2.251 4.177 2.586 8.53 4.846 4.36 2.26 9.433 1.925 13.944-.025 4.453-1.917 4.629-1.507 9.082-3.424 4.453-1.916 4.462-1.883 8.915-3.8 4.453-1.917 4.494-1.824 8.947-3.741 4.453-1.917 4.345-2.185 8.798-4.102 1.423-.61 2.117-1.816 2.184-3.139.034-4.293.419-4.293.419-8.587s-.737-4.294-.737-8.588c0-.57-.042-.804-.611-.83l-.008.01"/><path fill="#ABBBC1" d="M205.383 74.478c-.602-.025-.962.276-.962.879 0 4.152-.009 4.152-.009 8.303 0 2.768-.016 5.536-.05 8.304-.125 1.414.461 2.854 1.934 3.616 4.352 2.251 4.327 2.301 8.671 4.553 4.345 2.252 4.42 2.109 8.764 4.361 4.353 2.252 4.327 2.302 8.672 4.553 4.352 2.252 4.327 2.294 8.68 4.545 2.36 1.222 5.131 1.909 7.725 1.909 1.256-4.796-.167-5.006-.167-9.961s.151-4.955.151-9.91-.042-4.955-.042-9.919c0-4.955 3.348-6.378-.243-9.802-3.917-3.733-5.29-.276-10.697-.468-5.407-.193-5.399-.21-10.806-.402-3.605-.123-7.21-.226-10.815-.31-5.407-.125-5.407-.075-10.814-.26z"/><mask id="a" width="90" height="42" x="203" y="74" maskUnits="userSpaceOnUse" style="mask-type:luminance"><path fill="#fff" d="M291.958 77.266c-4.805-.168-4.813 0-9.626-.168-4.804-.167-4.796-.485-9.609-.652-4.804-.168-4.804-.327-9.609-.494-4.805-.168-4.83.577-9.643.41-4.804-.167-4.804-.335-9.609-.502-4.804-.168-4.804-.419-9.609-.586-4.804-.168-4.813-.1-9.617-.268-4.813-.168-4.822.075-9.634-.092-4.813-.168-4.805-.318-9.618-.486-.603-.016-.803.327-.803.93 0 4.151-.553 4.151-.553 8.303 0 4.151-.042 4.151-.092 8.303-.126 1.415.921 2.804 2.386 3.566 4.352 2.251 4.31 2.327 8.654 4.578 4.345 2.252 4.269 2.411 8.613 4.663 4.353 2.251 4.345 2.268 8.689 4.528 4.352 2.252 4.511 1.933 8.864 4.185 4.361 2.26 9.341 2.377 13.861.427 4.453-1.917 4.537-1.733 8.99-3.649 4.453-1.917 4.478-1.859 8.923-3.784 4.453-1.917 4.386-2.076 8.839-4.001 4.453-1.917 4.578-1.632 9.031-3.549 1.423-.61 1.758-2.067 1.825-3.398.033-4.294.351-4.294.351-8.588s-.318-4.294-.309-8.588c0-.57-.134-1.08-.703-1.105l.008.017"/></mask><g mask="url(#a)"><path fill="#FFCD6E" d="M196.771 5.856c3.34.871 6.654 1.7 9.592 3.223 3.039 1.574 5.977 3.398 8.521 5.558 2.587 2.201 4.596 5.014 6.605 7.709 2.017 2.704 4.101 5.449 5.474 8.538 1.364 3.072 2.343 6.395 2.996 9.726.653 3.331.921 6.713.812 10.136-.109 3.307-1.255 6.546-2.134 9.886-.871 3.34-1.649 6.62-3.181 9.559-1.574 3.038-3.273 6.026-5.432 8.57-2.202 2.587-4.696 4.998-7.391 7.007-2.695 2.008-5.868 3.398-8.956 4.77-3.072 1.365-6.328 2.236-9.66 2.889-3.281.644-6.629 1.54-10.044 1.43a46.378 46.378 0 0 1-10.086-1.472c-3.34-.87-6.32-2.629-9.258-4.152-2.938-1.523-5.65-3.65-8.186-5.817-2.536-2.168-5.173-4.361-7.182-7.056-2.017-2.704-3.984-5.525-5.348-8.614-1.365-3.072-1.942-6.453-2.603-9.784a44.393 44.393 0 0 1-.804-10.028c.109-3.306.527-6.63 1.398-9.97.87-3.339 1.95-6.528 3.474-9.474 1.573-3.039 3.331-5.96 5.499-8.504 2.201-2.587 4.595-5.073 7.29-7.09 2.704-2.017 6.002-3.105 9.09-4.478 3.072-1.365 6.203-2.486 9.534-3.14 3.332-.652 6.613-1.28 10.028-1.17 3.415.108 6.612.87 9.952 1.74v.008"/></g><path fill="#fff" d="M248.466 95.764c-2.218 0-4.344-.519-6.328-1.54-2.176-1.13-3.264-1.75-4.311-2.344a109.286 109.286 0 0 0-4.402-2.394 82.608 82.608 0 0 0-4.529-2.193c-1.146-.519-2.235-1.004-4.402-2.134-2.244-1.164-3.432-1.666-4.579-2.151-1.155-.494-2.243-.954-4.403-2.076-2.176-1.122-3.197-1.733-4.277-2.377-1.063-.636-2.168-1.29-4.403-2.444-1.038-.536-1.381-1.608-1.347-2.428.033-1.038.586-1.883 1.473-2.268 2.268-.98 3.407-1.498 4.511-2.009a159.164 159.164 0 0 1 4.462-1.984c2.184-.946 3.306-1.28 4.486-1.632 1.197-.36 2.436-.728 4.763-1.733 2.252-.97 3.382-1.448 4.503-1.933 1.13-.486 2.268-.963 4.528-1.942 2.26-.971 3.382-1.473 4.504-1.976 1.121-.502 2.235-1.004 4.495-1.975a14.175 14.175 0 0 1 5.666-1.197c2.177 0 4.277.51 6.228 1.524 2.243 1.163 3.432 1.665 4.578 2.15 1.155.495 2.244.955 4.403 2.077 2.193 1.138 3.29 1.716 4.386 2.285a773.98 773.98 0 0 0 4.411 2.301c2.151 1.114 3.147 1.758 4.194 2.436 1.054.678 2.143 1.381 4.403 2.553a74.596 74.596 0 0 0 4.536 2.185c1.147.51 2.235 1.004 4.403 2.126.845.444 1.339 1.255 1.306 2.176-.034.963-.603 1.775-1.524 2.168-2.31.996-3.431 1.607-4.52 2.201-1.088.595-2.117 1.156-4.319 2.101-2.218.955-3.323 1.356-4.494 1.775-1.156.418-2.353.845-4.638 1.833l-9.023 3.884a128.06 128.06 0 0 1-4.503 1.858c-1.13.452-2.302.912-4.579 1.892a14.187 14.187 0 0 1-5.633 1.172z"/><path fill="#D5E1E6" d="M248.868 56.307c1.975 0 3.875.468 5.65 1.38 2.285 1.18 3.49 1.7 4.662 2.194 1.13.485 2.201.937 4.319 2.034a574.093 574.093 0 0 1 4.378 2.285 739.1 739.1 0 0 0 4.411 2.302c2.092 1.088 3.063 1.707 4.093 2.368 1.08.695 2.193 1.415 4.503 2.612a76.909 76.909 0 0 0 4.604 2.218c1.13.51 2.201.988 4.344 2.093.569.293.636.761.628 1.02 0 .227-.101.78-.77 1.064-2.361 1.021-3.516 1.649-4.629 2.251-1.063.578-2.059 1.122-4.21 2.051-2.185.938-3.273 1.331-4.428 1.75a67.916 67.916 0 0 0-4.713 1.858l-4.536 1.958-4.487 1.934c-2.218.954-3.315 1.39-4.47 1.85-1.138.452-2.318.92-4.612 1.908a12.905 12.905 0 0 1-5.131 1.072 12.32 12.32 0 0 1-5.75-1.407c-2.16-1.113-3.181-1.699-4.269-2.318a104.85 104.85 0 0 0-4.445-2.42c-2.26-1.171-3.44-1.707-4.586-2.217a79.842 79.842 0 0 1-4.345-2.101c-2.285-1.189-3.498-1.7-4.662-2.193-1.13-.477-2.201-.938-4.319-2.034-2.134-1.105-3.147-1.708-4.21-2.336a76.948 76.948 0 0 0-4.47-2.486c-.653-.334-.678-1.054-.67-1.263.009-.26.101-.896.72-1.156 2.285-.987 3.432-1.515 4.545-2.025 1.13-.52 2.202-1.013 4.428-1.976 2.118-.912 3.206-1.238 4.344-1.582 1.231-.368 2.511-.753 4.897-1.782 2.252-.971 3.382-1.448 4.503-1.934 1.13-.486 2.269-.963 4.529-1.942a248.48 248.48 0 0 0 4.528-1.992c1.096-.494 2.226-.996 4.47-1.959 1.682-.72 3.415-1.088 5.172-1.088m0-2.51c-2.084 0-4.168.434-6.16 1.297-4.512 1.941-4.487 2.008-8.998 3.95-4.512 1.942-4.52 1.925-9.032 3.867-4.511 1.942-4.737 1.415-9.241 3.357-4.511 1.942-4.461 2.05-8.972 3.992-2.888 1.248-2.997 5.516-.21 6.965 4.403 2.285 4.269 2.536 8.68 4.82 4.403 2.286 4.579 1.943 8.99 4.228 4.403 2.277 4.528 2.042 8.931 4.319s4.311 2.452 8.722 4.737a14.94 14.94 0 0 0 6.905 1.683c2.076 0 4.16-.427 6.127-1.28 4.512-1.943 4.571-1.809 9.082-3.75l9.023-3.884c4.512-1.942 4.629-1.666 9.141-3.608 4.511-1.942 4.327-2.36 8.839-4.302 2.888-1.248 3.097-5.173.301-6.621-4.403-2.285-4.537-2.034-8.939-4.311-4.403-2.285-4.185-2.704-8.597-4.98-4.402-2.277-4.386-2.31-8.788-4.587-4.403-2.277-4.579-1.95-8.982-4.227a14.8 14.8 0 0 0-6.805-1.666h-.017"/><path fill="#FCBA44" d="M286.685 89.361c.761-.36 1.607.084 1.866.988.26.904-.159 1.917-.921 2.277-.761.36-1.598-.067-1.858-.971-.259-.904.151-1.942.913-2.302v.008"/><path stroke="#fff" stroke-miterlimit="10" stroke-width="1.333" d="M286.685 89.361c.761-.36 1.607.084 1.866.988.26.904-.159 1.917-.921 2.277-.761.36-1.598-.067-1.858-.971-.259-.904.151-1.942.913-2.302v.008Z"/><path fill="#D5E1E6" d="M302.788 56.113c-4.804-.167-4.796-.435-9.609-.602-4.813-.168-4.813-.067-9.617-.235-4.805-.167-4.796-.61-9.601-.778-4.804-.167-4.813-.05-9.617-.218-4.805-.167-4.805-.242-9.618-.41-4.813-.167-4.804-.226-9.617-.393-4.805-.168-4.805-.226-9.618-.394-4.813-.167-4.838.695-9.651.528-4.813-.168-4.796-.653-9.609-.82-.602-.017-1.264.518-1.264 1.121 0 4.152.101 4.152.101 8.303 0 4.152-.176 4.152-.226 8.304-.126 1.414.619 3.272 2.084 4.034 4.353 2.252 4.52 1.925 8.864 4.177 4.344 2.252 4.411 2.118 8.764 4.37 4.352 2.25 4.47 2.025 8.814 4.276 4.352 2.252 4.285 2.378 8.638 4.63 4.361 2.26 9.249 2.226 13.769.275 4.453-1.916 4.629-1.515 9.082-3.431 4.453-1.917 4.31-2.235 8.763-4.152 4.453-1.917 4.746-1.239 9.199-3.156 4.453-1.916 4.328-2.218 8.781-4.143 1.423-.61 1.992-1.975 2.059-3.306.033-4.294.05-4.294.05-8.588s.553-4.294.553-8.588c0-.57-.904-.779-1.474-.795v-.009"/><path fill="#ABBBC1" d="M216.24 52.673c-.603-.025-.904.628-.904 1.222 0 4.152-.285 4.152-.285 8.304 0 4.151-.016 4.151-.067 8.303-.125 1.414.62 3.013 2.085 3.775 2.901 1.5 5.803 3 8.705 4.495 4.344 2.251 4.386 2.184 8.73 4.436 4.352 2.252 4.428 2.1 8.78 4.353 4.353 2.251 4.202 2.544 8.546 4.796 2.361 1.222 5.257 1.699 7.852 1.699 1.255-4.796-.251-5.014-.251-9.97 0-4.954-.084-4.954-.084-9.91 0-4.955.343-4.955.343-9.918 0-4.956 3.49-6.613-.1-10.036-3.918-3.733-5.508-.235-10.915-.427-5.399-.184-5.416.125-10.815-.067-5.407-.184-5.407-.15-10.814-.394-5.407-.242-5.399-.485-10.798-.67l-.008.01"/><mask id="b" width="91" height="42" x="214" y="53" maskUnits="userSpaceOnUse" style="mask-type:luminance"><path fill="#fff" d="M302.805 55.653c-4.804-.167-4.804-.343-9.609-.51-4.804-.168-4.813.058-9.626-.101-4.804-.168-4.812.008-9.625-.16-4.805-.166-4.805-.317-9.609-.485-4.805-.167-4.797-.418-9.61-.585-4.812-.168-4.829.41-9.642.242-4.805-.167-4.788-.795-9.592-.962-4.805-.168-4.839.627-9.651.46-4.813-.167-4.805-.276-9.618-.444-.603-.016-1.356.193-1.356.787 0 4.152.661 4.152.661 8.304 0 4.151-.77 4.151-.82 8.303-.125 1.415.854 3.072 2.319 3.825 4.352 2.252 4.269 2.402 8.621 4.654 4.344 2.252 4.327 2.293 8.672 4.545 4.352 2.252 4.57 1.825 8.922 4.076 4.353 2.252 4.278 2.394 8.63 4.646 4.361 2.26 9.584 2.419 14.096.469 4.453-1.917 4.503-1.808 8.948-3.725 2.968-1.278 5.934-2.559 8.897-3.842 4.453-1.917 4.21-2.486 8.663-4.403 4.453-1.917 4.596-1.582 9.049-3.507 1.423-.611 2.511-1.833 2.578-3.164.033-4.294-.327-4.294-.327-8.588s-.267-4.294-.267-8.588c0-.569-.151-1.239-.72-1.264z"/></mask><g mask="url(#b)"><path fill="#FFCD6E" d="M204.982-2.202c3.34.87 6.554 1.925 9.492 3.448 3.038 1.574 5.591 3.792 8.136 5.952a44.71 44.71 0 0 1 6.855 7.315c2.018 2.704 3.742 5.541 5.115 8.63 1.364 3.072 2.988 6.119 3.641 9.45.644 3.281.519 6.713.401 10.137-.108 3.306-.309 6.713-1.18 10.052-.87 3.34-2.653 6.253-4.177 9.19-1.523 2.939-2.837 6.262-5.005 8.806-2.201 2.587-5.106 4.453-7.801 6.47-2.704 2.018-5.382 4.152-8.471 5.525-3.089 1.373-6.428 2.009-9.76 2.662-3.281.644-6.604.795-10.027.678-3.307-.109-6.755.075-10.095-.804-3.34-.879-6.453-2.335-9.391-3.867-2.938-1.532-5.935-3.406-8.471-5.566-2.586-2.202-4.838-4.78-6.855-7.475-2.018-2.703-3.867-5.6-5.24-8.68-1.364-3.072-2.034-6.428-2.695-9.76-.645-3.28-1.482-6.637-1.373-10.052.109-3.415.678-6.73 1.548-10.07.871-3.34 2.478-6.378 4.001-9.316 1.574-3.038 3.717-5.616 5.885-8.152 2.201-2.587 4.243-5.332 6.939-7.35 2.703-2.017 5.901-3.239 8.989-4.612 3.089-1.372 6.169-2.678 9.501-3.331 3.281-.645 6.646-1.038 10.069-.93 3.306.11 6.629.78 9.969 1.65"/></g><path stroke="#80949C" stroke-linecap="round" stroke-linejoin="round" stroke-width="1.333" d="M217.261 73.884c4.403 2.276 4.26 2.553 8.663 4.838 4.403 2.277 4.244 2.595 8.647 4.871 4.402 2.285 4.419 2.26 8.822 4.537 4.403 2.285 4.637 1.833 9.048 4.11 4.085 2.118 8.764 2.318 12.982.494 4.512-1.942 4.545-1.867 9.057-3.809 4.512-1.942 4.629-1.674 9.132-3.616 4.512-1.942 4.579-1.783 9.09-3.724 4.512-1.942 4.411-2.185 8.923-4.127"/><path fill="#fff" d="M258.385 74.411c-2.034 0-3.909-.443-5.583-1.306-2.21-1.146-3.315-1.707-4.42-2.268a462.68 462.68 0 0 1-4.403-2.26c-2.143-1.113-3.13-1.758-4.177-2.444-1.054-.686-2.134-1.398-4.394-2.57-2.243-1.163-3.423-1.674-4.562-2.168-1.155-.502-2.243-.97-4.403-2.092-2.159-1.122-3.172-1.741-4.243-2.394-1.063-.653-2.16-1.323-4.403-2.478-.879-.452-1.389-1.264-1.356-2.168.033-.887.578-1.64 1.465-2.025 2.31-.996 3.432-1.607 4.528-2.193 1.088-.586 2.118-1.147 4.319-2.093 2.21-.954 3.315-1.33 4.495-1.732 1.172-.402 2.377-.812 4.679-1.8a87.467 87.467 0 0 0 4.52-2.068c1.071-.518 2.185-1.062 4.42-2.025a143.813 143.813 0 0 1 4.511-1.875c1.13-.452 2.294-.92 4.562-1.892a13.261 13.261 0 0 1 5.29-1.08c2.285 0 4.604.578 6.713 1.666a373.117 373.117 0 0 1 4.378 2.302c1.096.586 2.193 1.172 4.402 2.319a70.912 70.912 0 0 0 4.545 2.176c1.147.51 2.235.988 4.403 2.11 2.202 1.138 3.298 1.715 4.395 2.293 1.096.577 2.201 1.155 4.402 2.293a95.755 95.755 0 0 0 4.504 2.21 98.548 98.548 0 0 1 4.402 2.168c.796.41 1.239 1.155 1.206 2.025-.025.795-.477 1.825-1.649 2.327-2.235.963-3.365 1.44-4.487 1.917-1.138.486-2.268.963-4.545 1.942-2.285.988-3.423 1.54-4.52 2.084a77.904 77.904 0 0 1-4.403 2.026 82.812 82.812 0 0 1-4.503 1.816 91.408 91.408 0 0 0-4.612 1.858c-2.268.98-3.407 1.499-4.511 2.01a159.164 159.164 0 0 1-4.462 1.983c-2.134.92-4.377 1.406-6.487 1.406h-.016"/><path fill="#D5E1E6" d="M259.222 34.71c2.084 0 4.202.528 6.135 1.524 2.185 1.13 3.29 1.724 4.361 2.294 1.08.577 2.201 1.18 4.419 2.327a72.836 72.836 0 0 0 4.613 2.21c1.13.502 2.201.979 4.335 2.084 2.202 1.138 3.298 1.715 4.395 2.285 1.096.577 2.201 1.155 4.411 2.293a108.172 108.172 0 0 0 4.545 2.235c1.13.527 2.201 1.03 4.361 2.143.134.067.544.284.527.87-.017.41-.259.946-.887 1.222a590.575 590.575 0 0 1-4.503 1.926c-1.13.477-2.269.962-4.529 1.933-2.31.996-3.465 1.565-4.57 2.11a81.73 81.73 0 0 1-4.344 2c-2.201.946-3.29 1.356-4.445 1.791a92.862 92.862 0 0 0-4.662 1.884c-2.285.987-3.432 1.515-4.545 2.025-1.13.52-2.201 1.013-4.436 1.975-1.984.854-4.051 1.306-5.993 1.306-1.825 0-3.516-.393-5.006-1.163a364.596 364.596 0 0 0-4.428-2.269 593.624 593.624 0 0 1-4.402-2.26c-2.085-1.08-3.047-1.707-4.06-2.377-1.08-.703-2.193-1.44-4.512-2.636-2.276-1.18-3.482-1.7-4.637-2.202-1.13-.494-2.201-.954-4.327-2.059-2.126-1.096-3.114-1.707-4.169-2.352a62.08 62.08 0 0 0-4.478-2.528c-.636-.326-.686-.82-.678-1.013 0-.234.109-.652.712-.912 2.36-1.013 3.507-1.64 4.62-2.243 1.063-.578 2.068-1.122 4.219-2.05 2.168-.93 3.248-1.307 4.403-1.7 1.188-.41 2.419-.829 4.762-1.842a92.919 92.919 0 0 0 4.57-2.092c1.114-.536 2.16-1.046 4.37-2a133.433 133.433 0 0 1 4.478-1.859c1.138-.452 2.31-.92 4.595-1.908a11.992 11.992 0 0 1 4.796-.98m0-2.51c-1.967 0-3.934.384-5.792 1.188-4.511 1.942-4.562 1.825-9.073 3.767-4.512 1.942-4.428 2.15-8.94 4.093-4.511 1.942-4.662 1.59-9.165 3.532-4.512 1.942-4.336 2.344-8.848 4.285-2.887 1.248-2.988 5.014-.192 6.462 4.403 2.285 4.244 2.595 8.646 4.88 4.403 2.285 4.562 1.976 8.965 4.26 4.403 2.277 4.168 2.738 8.571 5.015 4.403 2.276 4.42 2.251 8.822 4.528 1.934 1.004 4.035 1.448 6.161 1.448 2.369 0 4.763-.553 6.981-1.507 4.511-1.942 4.461-2.05 8.973-3.992 4.511-1.942 4.603-1.733 9.115-3.675 4.512-1.942 4.411-2.168 8.923-4.11 4.511-1.942 4.52-1.916 9.031-3.858 2.888-1.248 3.315-5.182.519-6.621-4.403-2.285-4.503-2.101-8.906-4.378-4.403-2.285-4.394-2.302-8.797-4.587-4.403-2.277-4.545-2.009-8.948-4.294-4.403-2.277-4.377-2.335-8.78-4.62-2.285-1.18-4.788-1.808-7.291-1.808l.025-.009"/><path fill="#FCBA44" d="M297.515 67.9c.762-.36 1.599.1 1.858 1.004.26.904-.134 1.942-.895 2.301-.762.36-1.607-.092-1.867-.996-.259-.904.142-1.942.904-2.302V67.9"/><path stroke="#fff" stroke-miterlimit="10" stroke-width="1.333" d="M297.515 67.9c.762-.36 1.599.1 1.858 1.004.26.904-.134 1.942-.895 2.301-.762.36-1.607-.092-1.867-.996-.259-.904.142-1.942.904-2.302V67.9Z"/><path stroke="#80949C" stroke-linecap="round" stroke-linejoin="round" stroke-width="1.333" d="M206.413 95.371c4.403 2.277 4.344 2.402 8.747 4.687 4.403 2.277 4.21 2.645 8.613 4.931 4.403 2.285 4.386 2.318 8.797 4.595 4.403 2.285 4.554 2 8.956 4.277 4.085 2.118 9.057 2.662 13.284.845 4.512-1.941 4.378-2.26 8.881-4.201 4.503-1.942 4.47-2.034 8.981-3.976 4.512-1.942 4.462-2.068 8.973-4.01 4.512-1.942 4.688-1.54 9.199-3.482"/><path fill="#D5E1E6" d="M286.474 34.017c-4.804-.168-4.796-.62-9.601-.787-4.804-.168-4.821.159-9.625-.009-4.805-.167-4.822.143-9.626-.025-4.805-.167-4.805-.184-9.618-.351-4.813-.168-4.787-.661-9.6-.829-4.813-.167-4.813-.192-9.618-.36-4.804-.167-4.813-.033-9.617-.2-4.813-.168-4.813-.21-9.626-.377-4.813-.168-4.805-.452-9.618-.62-.602-.017-.711.82-.711 1.415 0 4.152-.511 4.152-.511 8.303 0 4.152-.242 4.152-.293 8.304-.125 1.414 1.08 2.603 2.545 3.364 4.352 2.252 4.051 2.83 8.395 5.081 4.345 2.252 4.47 2.017 8.814 4.269 4.344 2.252 4.311 2.327 8.663 4.578 4.353 2.252 4.361 2.235 8.714 4.487 4.361 2.26 9.617 2.427 14.129.485 4.453-1.916 4.302-2.276 8.755-4.193 4.453-1.917 4.604-1.565 9.057-3.482 4.453-1.917 4.528-1.75 8.981-3.675 4.453-1.917 4.202-2.502 8.655-4.428 1.423-.61 2.243-1.581 2.319-2.912.033-4.294.293-4.294.293-8.588s-.184-4.294-.184-8.588c0-.57-.494-.854-1.063-.87l-.009.008"/><path fill="#ABBBC1" d="M199.917 30.786c-.602-.025-1.18.494-1.18 1.088 0 4.152.025 4.152.025 8.303 0 4.152-.067 4.152-.126 8.304-.125 1.414.787 2.737 2.26 3.49 4.353 2.252 4.303 2.344 8.655 4.596 4.345 2.251 4.294 2.352 8.639 4.603 4.352 2.252 4.402 2.151 8.755 4.403 4.352 2.252 4.386 2.185 8.73 4.445 2.36 1.222 5.089 2.008 7.692 2.008 1.256-4.796-.393-5.013-.393-9.969 0-4.955.042-4.955.042-9.91 0-3.303-.003-6.61-.009-9.919 0-4.955 3.784-6.529.193-9.952-3.917-3.733-5.432-.184-10.84-.377-5.398-.184-5.407.067-10.814-.125-5.407-.184-5.399-.452-10.806-.645-5.407-.2-5.407-.167-10.814-.36z"/><mask id="c" width="90" height="43" x="198" y="30" maskUnits="userSpaceOnUse" style="mask-type:luminance"><path fill="#fff" d="M286.499 33.456c-4.804-.167-4.812-.05-9.617-.218-4.805-.167-4.821.277-9.634.11-4.805-.168-4.796-.528-9.601-.695-4.804-.168-4.804-.352-9.609-.52-4.805-.167-4.83.536-9.643.369-4.813-.168-4.796-.469-9.609-.636-4.804-.168-4.804-.235-9.617-.402-4.813-.167-4.796-.552-9.609-.72-4.813-.167-4.838.586-9.651.419-.603-.017-.921.117-.921.72 0 4.151-.427 4.151-.427 8.303 0 4.151.017 4.151-.033 8.303-.126 1.415.736 3.072 2.201 3.834 4.353 2.251 4.579 1.808 8.923 4.06 4.344 2.251 4.043 2.845 8.387 5.097 2.902 1.501 5.803 3 8.705 4.495 4.353 2.251 4.369 2.218 8.722 4.47 4.361 2.26 9.709 2.243 14.221.3 4.453-1.916 4.57-1.64 9.023-3.557 4.453-1.916 4.344-2.176 8.789-4.093 4.453-1.916 4.478-1.866 8.931-3.783 4.453-1.917 4.277-2.327 8.73-4.244 1.423-.61 2.478-1.674 2.545-2.996.033-4.294-.394-4.294-.394-8.588s.243-4.294.243-8.588c0-.57-.477-1.415-1.046-1.431l-.009-.009"/></mask><g mask="url(#c)"><path fill="#FFCD6E" d="M196.795-10.243c3.34.87 6.688 1.674 9.635 3.206 3.038 1.573 5.558 3.942 8.094 6.11 2.586 2.201 5.189 4.411 7.198 7.106 2.017 2.704 3.39 5.843 4.763 8.923 1.364 3.072 2.126 6.311 2.787 9.642.645 3.282 1.206 6.563 1.097 9.986-.109 3.307-.636 6.613-1.507 9.953-.87 3.34-1.699 6.646-3.223 9.584-1.573 3.038-3.85 5.582-6.018 8.127-2.201 2.587-4.511 5.039-7.198 7.048-2.704 2.017-5.592 3.817-8.672 5.19-3.072 1.364-6.411 1.925-9.743 2.578-3.281.644-6.587 1.74-10.002 1.632-3.307-.11-6.688-.837-10.028-1.708-3.34-.87-6.596-1.975-9.534-3.499-3.038-1.573-5.683-3.766-8.228-5.934-2.586-2.201-4.754-4.788-6.763-7.475-2.009-2.687-3.834-5.54-5.206-8.63a44.933 44.933 0 0 1-3.039-9.617c-.644-3.281-1.13-6.646-1.021-10.061.109-3.306.946-6.596 1.825-9.936.87-3.34 2.168-6.395 3.691-9.332 1.574-3.039 3.131-6.036 5.29-8.58 2.202-2.587 4.78-4.78 7.475-6.788 2.703-2.018 5.7-3.533 8.78-4.905 3.072-1.365 6.102-3.03 9.434-3.692 3.281-.644 6.721-.418 10.136-.31 3.306.11 6.646.503 9.986 1.373l-.009.009"/></g><path stroke="#80949C" stroke-linecap="round" stroke-linejoin="round" stroke-width="1.333" d="M200.629 52.481c4.403 2.277 4.511 2.068 8.923 4.345 4.402 2.276 4.511 2.059 8.914 4.344s4.369 2.352 8.772 4.637c4.403 2.285 4.587 1.933 8.99 4.219 4.084 2.117 8.554 2.276 12.781.46 4.512-1.942 4.629-1.657 9.141-3.6 4.511-1.941 4.386-2.234 8.889-4.176 4.511-1.942 4.721-1.465 9.232-3.407 4.512-1.942 4.42-2.168 8.931-4.11"/><path fill="#fff" d="M242.824 52.314c-2.193 0-4.278-.502-6.203-1.498-2.243-1.164-3.423-1.666-4.57-2.16-1.155-.494-2.243-.962-4.403-2.084-2.117-1.097-3.055-1.791-4.051-2.528-1.029-.762-2.101-1.548-4.386-2.729l-8.805-4.57c-2.269-1.172-3.491-1.64-4.671-2.084-1.164-.444-2.268-.862-4.403-1.967a2.333 2.333 0 0 1-1.281-2.201 2.555 2.555 0 0 1 1.549-2.269c2.26-.98 3.39-1.473 4.512-1.983 1.113-.503 2.234-.997 4.478-1.968 2.301-.987 3.431-1.59 4.52-2.167 1.096-.578 2.134-1.13 4.344-2.076 2.251-.971 3.381-1.448 4.503-1.917a420.64 420.64 0 0 0 4.537-1.934c2.226-.954 3.331-1.364 4.495-1.8 1.146-.426 2.343-.861 4.628-1.849 1.992-.854 4.152-1.314 6.253-1.314s4.227.485 5.993 1.398c2.193 1.138 3.29 1.707 4.386 2.285 1.105.577 2.202 1.155 4.411 2.293a490.554 490.554 0 0 1 4.378 2.294c1.096.586 2.201 1.163 4.403 2.302a84.774 84.774 0 0 1 4.294 2.36c1.071.62 2.176 1.264 4.402 2.419a84.227 84.227 0 0 1 4.294 2.36c1.072.62 2.177 1.264 4.403 2.42 1.072.552 1.423 1.598 1.398 2.393-.033.946-.569 1.733-1.423 2.101-2.235.963-3.365 1.44-4.486 1.917-1.139.485-2.269.963-4.545 1.942-2.21.954-3.324 1.33-4.495 1.74-1.164.403-2.369.821-4.671 1.809a62.422 62.422 0 0 0-4.52 2.134 59.64 59.64 0 0 1-4.369 2.06c-2.227.962-3.332 1.364-4.503 1.8-1.147.426-2.344.861-4.629 1.849a14.579 14.579 0 0 1-5.784 1.214z"/><path fill="#D5E1E6" d="M243.87 12.48c1.959 0 3.825.435 5.415 1.255 2.202 1.139 3.298 1.716 4.395 2.285 1.096.578 2.201 1.156 4.403 2.294 2.193 1.138 3.281 1.716 4.377 2.293 1.097.578 2.202 1.164 4.411 2.31 2.152 1.114 3.164 1.708 4.244 2.327 1.08.628 2.202 1.281 4.462 2.445 2.142 1.113 3.164 1.707 4.235 2.327 1.08.627 2.201 1.28 4.461 2.452.695.36.728 1.038.72 1.23-.008.327-.134.762-.661.988a590.575 590.575 0 0 1-4.503 1.925c-1.139.478-2.269.963-4.529 1.934-2.168.937-3.256 1.306-4.402 1.707-1.189.41-2.419.83-4.755 1.842-2.335 1.004-3.49 1.599-4.603 2.176-1.089.561-2.11 1.088-4.286 2.026-2.193.946-3.281 1.347-4.436 1.774-1.164.427-2.369.87-4.688 1.875a13.302 13.302 0 0 1-5.29 1.114c-1.992 0-3.883-.46-5.625-1.356a64.299 64.299 0 0 0-4.645-2.202 56.586 56.586 0 0 1-4.319-2.042c-2.026-1.047-2.93-1.716-3.884-2.42-1.071-.786-2.176-1.606-4.553-2.837a1049.016 1049.016 0 0 1-4.403-2.285c-1.105-.569-2.202-1.147-4.411-2.285-2.336-1.205-3.591-1.682-4.805-2.143-1.13-.427-2.201-.837-4.277-1.908-.519-.268-.611-.72-.603-1.046 0-.193.084-.854.795-1.155 2.269-.98 3.416-1.49 4.529-1.984 1.096-.486 2.226-.996 4.47-1.959 2.343-1.013 3.498-1.624 4.612-2.21 1.071-.569 2.092-1.105 4.252-2.034 2.243-.97 3.373-1.44 4.495-1.917 1.138-.477 2.276-.954 4.545-1.933 2.193-.946 3.281-1.348 4.436-1.774a82.298 82.298 0 0 0 4.687-1.876 14.74 14.74 0 0 1 5.759-1.205m0-2.51a17.04 17.04 0 0 0-6.746 1.414c-4.512 1.942-4.612 1.707-9.124 3.65-4.512 1.941-4.528 1.908-9.04 3.85-4.512 1.941-4.353 2.301-8.864 4.243-4.512 1.942-4.487 2-8.998 3.943-2.888 1.247-3.147 5.29-.352 6.738 4.403 2.285 4.671 1.774 9.074 4.05l8.805 4.571c4.403 2.277 4.043 2.98 8.446 5.257 4.403 2.276 4.57 1.967 8.973 4.243a14.7 14.7 0 0 0 6.78 1.641 15.81 15.81 0 0 0 6.277-1.314c4.512-1.942 4.621-1.7 9.132-3.65 4.512-1.941 4.378-2.251 8.89-4.201 4.511-1.942 4.654-1.608 9.165-3.55 4.512-1.941 4.52-1.916 9.032-3.858 2.887-1.247 2.896-5.315.108-6.763-4.402-2.286-4.293-2.503-8.696-4.78-4.403-2.285-4.294-2.494-8.705-4.78-4.403-2.276-4.386-2.318-8.789-4.595-4.403-2.276-4.395-2.301-8.797-4.578-2.034-1.055-4.294-1.54-6.571-1.54v.008"/><path fill="#FCBA44" d="M281.209 45.886c.762-.36 1.599.083 1.867.987.267.905-.151 1.917-.913 2.277-.761.36-1.582-.075-1.841-.98-.26-.903.125-1.933.895-2.293l-.008.009"/><path stroke="#fff" stroke-miterlimit="10" stroke-width="1.333" d="M281.209 45.886c.762-.36 1.599.083 1.867.987.267.905-.151 1.917-.913 2.277-.761.36-1.582-.075-1.841-.98-.26-.903.125-1.933.895-2.293l-.008.009Z"/><path stroke="#80949C" stroke-linecap="round" stroke-linejoin="round" stroke-width="1.333" d="M243.191 71.985v-9.367M259.388 93.654c0-5.876-.034-5.876-.034-11.752M249.461 115.577v-13.083"/><path fill="#80949C" d="M228.075 99.062c-1.389 2.394-4.411 2.763-6.805.812-2.394-1.95-3.264-5.482-1.875-7.868 1.39-2.385 4.495-2.729 6.889-.778 2.394 1.95 3.181 5.449 1.791 7.843v-.009"/><path stroke="#60747B" stroke-linecap="round" stroke-miterlimit="10" stroke-width="2" d="M223.848 95.647c-1.825 1.548-3.432 3.29-4.746 5.29-1.808 2.754-3.691 5.683-4.855 8.764-1.272 3.348-1.758 6.78-1.548 9.843.226 3.382 1.431 6.479 4.419 8.63 2.461 1.774 6.512 1.155 9.434-1.331 2.243-1.917 3.59-4.972 3.381-9.057-.134-2.737-.552-6.093-2.67-9.692-1.465-2.486-3.516-5.223-6.211-8.078-2.059-2.193-4.821-4.193-7.726-6.587-2.385-1.967-4.955-4.152-7.976-6.253-2.587-1.8-5.441-3.599-8.538-5.482-4.152-2.537-7.559-4.997-10.011-7.492-5.466-5.54-5.022-4.386-7.198-10.245"/><path fill="#ECE6F3" d="M154.726 156.743c-3.51 1.797-7.011 3.607-10.504 5.432-5.24 2.737-5.182 2.854-10.421 5.583-5.24 2.737-5.274 2.679-10.514 5.416-5.239 2.737-5.156 2.904-10.395 5.641-5.24 2.737-5.282 2.654-10.53 5.391-5.248 2.737-5.34 2.561-10.58 5.298-5.248 2.737-5.215 2.796-10.463 5.525-.276.117-.528.334-.829.326-1.373-.042-5.466-.117-6.78-.176-.268-.008-.494-.284-.736-.402-5.081-2.419-5.03-2.519-10.103-4.938-5.073-2.419-5.215-2.126-10.287-4.545-5.081-2.419-4.939-2.704-10.02-5.114-5.08-2.411-5.08-2.411-10.161-4.83-5.08-2.419-5.181-2.193-10.262-4.612-5.08-2.419-4.98-2.628-10.061-5.047l-10.162-4.838c-1.54-.737-1.557-2.763 0-3.449 5.516-2.804 5.55-2.729 11.04-5.575l10.983-5.691c5.49-2.846 5.423-2.98 10.914-5.826 5.491-2.846 5.583-2.679 11.074-5.524 5.491-2.846 5.366-3.089 10.856-5.935 5.491-2.846 5.441-2.946 10.94-5.792 5.5-2.846 5.625-2.595 11.125-5.441.016 0-.084.075-.084.092 5.424 2.553 5.55 2.277 10.982 4.821 5.432 2.545 5.373 2.645 10.806 5.19 5.432 2.545 5.357 2.695 10.781 5.24 3.621 1.696 7.24 3.39 10.856 5.081 5.424 2.544 5.466 2.46 10.89 5.005 5.432 2.545 5.507 2.386 10.94 4.93 5.432 2.545 5.457 2.486 10.889 5.031 1.549.728 1.407 3.063-.159 3.75z"/><path fill="#EAF0F3" d="M71.484 77.828c5.19-2.512 5.298-2.294 10.437-4.93 3.42-1.753 6.844-3.505 10.27-5.257 5.132-2.628 5.014-2.871 10.145-5.5 5.131-2.628 5.19-2.519 10.329-5.147 5.14-2.629 5.123-2.654 10.254-5.282 5.131-2.628 5.047-2.796 10.187-5.424a4446.15 4446.15 0 0 1 10.278-5.24c5.131-2.628 5.19-2.52 10.321-5.147 5.139-2.629 5.056-2.796 10.195-5.424 5.139-2.628 5.114-2.687 10.279-5.248.334-.009 5.047 1.389 9.584 2.879 4.536 1.49 9.215 3.298 9.215 3.633 0 6.185-.117 6.185-.117 12.37 0 6.187-.117 6.187-.117 12.38 0 6.195-.017 6.186-.017 12.38 0 6.194.117 6.186.117 12.38 0 6.194-.108 6.186-.108 12.371 0 6.186.058 6.186.058 12.38 0 6.194.276 6.186.276 12.371 0 6.186.017 6.194.017 12.38 0 6.185-.301 6.194-.243 12.388.143 1.582-.468 3.315-2.117 4.168-5.24 2.779-5.307 2.637-10.547 5.424-5.24 2.788-5.215 2.821-10.446 5.6-5.231 2.779-5.139 2.963-10.371 5.75-5.231 2.788-5.315 2.629-10.546 5.408-5.232 2.778-5.182 2.879-10.413 5.658-5.231 2.787-5.265 2.729-10.496 5.516-5.232 2.787-5.274 2.712-10.505 5.499-5.231 2.787-5.248 2.762-10.488 5.541-5.24 2.788-5.156 2.93-10.404 5.7-4.905 2.545-10.731 2.738-15.803.553-3.867-1.59-3.934-1.44-7.81-3.005-1.599-.686-2.335-2.268-2.41-3.758-.034-6.219-.218-6.219-.218-12.447 0-6.227.142-6.219.142-12.447v-12.446c0-6.219.067-6.228.067-12.447 0-6.219-.025-6.219-.033-12.446-.009-6.228.092-6.228.092-12.447 0-6.219-.126-6.219-.126-12.447 0-6.227-.176-6.227-.176-12.455 0-6.227.134-6.227.134-12.455 0-.644.477-1.322 1.114-1.339v.008"/><path fill="#fff" d="M88.409 85.837a16.66 16.66 0 0 1-6.621-1.39 53.229 53.229 0 0 0-4.328-1.59c-1.07-.351-2.075-.678-4.084-1.498-1.256-.544-1.75-1.774-1.783-2.754-.042-1.23.536-2.276 1.557-2.804a95.657 95.657 0 0 1 5.248-2.595c1.356-.627 2.762-1.272 5.45-2.703a131.046 131.046 0 0 0 5.247-2.93c1.256-.736 2.553-1.498 5.165-2.887 2.611-1.39 3.959-2.043 5.273-2.67 1.331-.645 2.704-1.306 5.357-2.721a131.153 131.153 0 0 0 5.248-2.93 124.82 124.82 0 0 1 5.165-2.879c2.611-1.39 3.967-2.06 5.265-2.712 1.322-.653 2.686-1.33 5.331-2.737 2.612-1.39 3.934-2.076 5.249-2.762 1.33-.695 2.653-1.381 5.298-2.796a101.594 101.594 0 0 0 5.248-2.963c1.247-.745 2.536-1.515 5.14-2.896 2.594-1.381 3.9-1.967 5.281-2.595 1.356-.61 2.754-1.247 5.424-2.662 2.461-1.305 3.767-2.025 4.997-2.695 1.398-.762 2.695-1.473 5.499-2.946 2.394-1.239 5.039-1.892 7.643-1.892 2.092 0 4.109.41 5.993 1.222 2.034.837 3.046 1.297 4.026 1.741 1.021.46 2.076.938 4.193 1.808a2.971 2.971 0 0 1 1.808 2.628c.042 1.114-.535 2.076-1.531 2.595-2.545 1.348-3.868 2.017-5.148 2.67-1.398.712-2.721 1.381-5.449 2.838a196.046 196.046 0 0 1-5.274 2.729 230.232 230.232 0 0 0-5.323 2.753 101.594 101.594 0 0 0-5.248 2.964c-1.247.744-2.536 1.514-5.131 2.896-2.595 1.38-3.959 2.017-5.282 2.62-1.348.627-2.737 1.272-5.399 2.686a186.283 186.283 0 0 0-5.248 2.88c-1.272.72-2.586 1.456-5.198 2.846a236.518 236.518 0 0 1-5.265 2.737c-1.331.678-2.662 1.356-5.307 2.762-2.661 1.415-3.975 2.201-5.248 2.971-1.239.745-2.528 1.524-5.131 2.905-2.603 1.39-3.959 2.034-5.273 2.662a117.734 117.734 0 0 0-5.374 2.712c-2.561 1.364-3.867 2.1-5.131 2.812-1.347.762-2.62 1.482-5.323 2.904-2.151 1.114-4.512 1.683-6.998 1.683l-.008-.017"/><path fill="#D5E1E6" d="M175.669 25.078c1.917 0 3.766.376 5.491 1.121h.016l.017.017c1.992.82 2.997 1.272 3.968 1.716a98.22 98.22 0 0 0 4.21 1.816 1.716 1.716 0 0 1 1.055 1.524c.016.368-.084 1.038-.871 1.448-2.519 1.33-3.842 2-5.114 2.653-1.406.712-2.729 1.39-5.474 2.846-2.604 1.39-3.951 2.06-5.249 2.712a221.93 221.93 0 0 0-5.348 2.77c-2.687 1.432-4.01 2.227-5.299 2.989-1.289.77-2.511 1.498-5.08 2.87-2.57 1.365-3.859 1.968-5.215 2.596-1.364.627-2.771 1.28-5.466 2.72-2.662 1.415-3.992 2.168-5.282 2.896-1.263.712-2.569 1.448-5.172 2.83-2.612 1.389-3.951 2.067-5.249 2.728-1.314.67-2.678 1.364-5.323 2.77-2.687 1.432-4.018 2.227-5.298 3.005-1.289.77-2.503 1.507-5.073 2.871-2.578 1.373-3.867 1.984-5.223 2.637-1.348.644-2.737 1.306-5.415 2.737-2.57 1.365-3.884 2.11-5.157 2.82-1.339.754-2.611 1.474-5.281 2.88-1.984 1.03-4.152 1.549-6.429 1.549-2.084 0-4.143-.436-6.127-1.29h-.016l-.017-.016c-2.168-.887-3.298-1.256-4.395-1.615-1.037-.344-2.025-.662-3.975-1.457-.913-.402-1.022-1.364-1.03-1.649-.008-.276.025-1.205.896-1.657 2.544-1.348 3.825-1.934 5.18-2.562 1.374-.636 2.788-1.288 5.517-2.736a117.278 117.278 0 0 0 5.298-2.964 124.22 124.22 0 0 1 5.114-2.862c2.587-1.373 3.868-1.992 5.232-2.654a131.58 131.58 0 0 0 5.407-2.737 120.903 120.903 0 0 0 5.29-2.954c1.306-.762 2.536-1.482 5.123-2.855 2.595-1.38 3.884-2.017 5.24-2.687 1.33-.66 2.703-1.339 5.365-2.753 2.62-1.398 3.942-2.085 5.257-2.771 1.322-.695 2.645-1.381 5.281-2.787a102.243 102.243 0 0 0 5.299-2.997c1.289-.77 2.502-1.498 5.08-2.87 2.562-1.365 3.842-1.943 5.207-2.562 1.372-.62 2.795-1.264 5.499-2.704 2.461-1.306 3.75-2.017 4.997-2.695a405.187 405.187 0 0 1 5.474-2.938c2.227-1.155 4.671-1.758 7.073-1.758m0-2.51c-2.821 0-5.65.702-8.228 2.041-5.273 2.78-5.231 2.846-10.496 5.642-5.265 2.796-5.441 2.461-10.706 5.257-5.265 2.795-5.122 3.063-10.379 5.859s-5.282 2.762-10.538 5.558c-5.257 2.795-5.34 2.645-10.597 5.449-5.265 2.795-5.156 3.005-10.413 5.809-5.265 2.795-5.373 2.595-10.63 5.39-5.265 2.804-5.148 3.022-10.413 5.818-5.264 2.795-5.415 2.51-10.689 5.298-3.138 1.624-2.912 6.437.327 7.835 4.135 1.69 4.26 1.38 8.387 3.08 2.285.98 4.704 1.49 7.123 1.49 2.612 0 5.207-.594 7.584-1.833 5.273-2.78 5.198-2.922 10.454-5.717 5.257-2.796 5.382-2.57 10.647-5.366 5.265-2.795 5.114-3.08 10.371-5.876 5.256-2.795 5.307-2.703 10.572-5.499 5.256-2.795 5.189-2.93 10.454-5.725 5.265-2.796 5.416-2.511 10.681-5.307 5.265-2.796 5.122-3.063 10.379-5.86 5.265-2.803 5.332-2.678 10.588-5.482 5.265-2.804 5.315-2.712 10.589-5.499 3.138-1.624 2.871-6.102-.377-7.5-4.135-1.69-4.068-1.841-8.203-3.54a16.395 16.395 0 0 0-6.487-1.331v.008"/><path stroke="#80949C" stroke-linecap="round" stroke-linejoin="round" stroke-width="1.333" d="M190.592 147.074c-5.256 2.796-5.147 3.014-10.404 5.818-5.265 2.795-5.307 2.712-10.563 5.516-5.257 2.804-5.232 2.845-10.497 5.65-5.256 2.795-5.172 2.963-10.429 5.758-5.257 2.796-5.324 2.679-10.588 5.474-5.265 2.796-5.341 2.654-10.606 5.458a3471.359 3471.359 0 0 0-10.513 5.616c-5.265 2.804-5.198 2.93-10.463 5.734-5.264 2.804-5.223 2.879-10.496 5.658-4.587 2.377-10.044 2.411-14.79.369-4.127-1.7-4.093-1.783-8.245-3.441"/><path stroke="#80949C" stroke-linecap="round" stroke-linejoin="round" stroke-width="1.333" d="M87.78 198.929c0-6.228.293-6.228.293-12.464 0-6.235-.242-6.227-.242-12.463 0-6.236.3-6.236.3-12.463 0-6.228-.317-6.228-.317-12.464 0-6.236.276-6.236.276-12.471 0-6.236-.092-6.236-.092-12.472"/><path fill="#3F535A" d="M186.558 142.43c-5.483 2.871-5.608 2.628-11.065 5.533-5.458 2.904-5.349 3.114-10.815 6.018-5.466 2.905-5.416 2.988-10.873 5.893-5.457 2.904-5.524 2.787-10.982 5.691-5.457 2.905-5.516 2.805-10.982 5.709-5.465 2.905-5.348 3.105-10.814 6.01-5.466 2.904-5.483 2.871-10.948 5.775-5.466 2.905-5.491 2.855-10.99 5.701-1.934.837-4.001-.528-4.001-2.637 0-5.717.041-5.717.041-11.434v-11.434c0-5.717-.184-5.717-.184-11.434 0-5.716.243-5.716.243-11.433s-.025-5.717-.025-11.434-.26-5.717-.26-11.434.318-5.717.318-11.442c0-5.725-.31-5.717-.31-11.442 0-1.164.863-2.11 1.934-2.578 5.483-2.871 5.382-3.047 10.848-5.952 5.466-2.904 5.458-2.904 10.923-5.809 5.458-2.904 5.508-2.812 10.965-5.717 5.458-2.904 5.408-3.004 10.865-5.909 5.458-2.905 5.55-2.737 11.015-5.642 5.466-2.904 5.349-3.113 10.815-6.018 5.466-2.904 5.591-2.67 11.057-5.574 5.466-2.905 5.382-3.064 10.881-5.91 1.934-.837 3.893.527 3.893 2.637 0 5.717.167 5.717.167 11.434V71.03c0 5.717.075 5.717.075 11.434V93.9c0 5.717-.201 5.717-.201 11.434s-.075 5.717-.075 11.434.017 5.717.017 11.442c0 5.725.1 5.717.1 11.442 0 1.164-.544 2.327-1.615 2.796z"/><path fill="#D5E1E6" d="M185.01 137.667c.059 1.063-.594 1.825-.912 2.134-.243.235-.478.519-.796.662-5.44 2.879-5.457 2.846-10.898 5.733-5.432 2.888-5.474 2.821-10.906 5.717-5.433 2.888-5.466 2.829-10.898 5.717-5.433 2.888-5.324 3.106-10.756 5.993-5.441 2.888-5.566 2.645-11.007 5.541-5.441 2.897-5.265 3.215-10.697 6.102-5.433 2.888-5.508 2.763-10.949 5.659-5.44 2.896-5.424 2.929-10.864 5.817-.636.335-.754 1.055-.218 1.54.075.067.16.126.251.201 1.005.845 2.369.469 2.687.36.042-.017 0-.201.034-.218 5.457-2.904 5.624-2.586 11.082-5.491 5.457-2.904 5.374-3.063 10.831-5.968 5.457-2.904 5.365-3.071 10.823-5.968 5.457-2.904 5.599-2.628 11.057-5.532 5.457-2.905 5.357-3.097 10.814-6.002 5.458-2.904 5.55-2.729 11.007-5.625 5.458-2.896 5.483-2.871 10.94-5.775 5.458-2.905 5.483-2.863 10.94-5.767.025-.009-.017-.143 0-.159.762-.352 1.616-.812 1.616-3.223-.695-1.657-1.432-1.172-3.206-1.431z"/><path fill="#ABBBC1" d="M188.141 139.642c0-5.717.226-4.469.226-11.433 0-3.315.016-7.199.016-11.434 0-3.6.026-7.458.026-11.434 0-3.742-.009-7.592-.009-11.434 0-3.842-.084-7.7-.084-11.442 0-3.976-.075-7.835-.075-11.434 0-4.235.243-8.12.243-11.442 0-6.872-.36-11.317-.36-11.434 0-.527.008-1.415-.963-2.252-.945-.811-2.084-.77-2.142-.761 0 0 .159.1.159.108 0 5.776-.076 5.776-.076 11.551 0 5.776-.075 5.776-.075 11.552 0 5.775.017 5.775.017 11.55 0 5.776-.143 5.776-.143 11.551 0 5.776.226 5.776.226 11.56 0 5.784-.15 5.775-.15 11.551v23.119c0 .284.067.577-.017.845-.142.469.017.954.444 1.197.686.385.627.494 1.314.879.678.377 1.481-.193 1.481-.971-.008-.067-.042-.017-.042-.017z"/><path fill="#60747B" d="M171.685 139.667c-5.274 2.721-5.416 2.461-10.672 5.215-5.257 2.754-5.165 2.938-10.43 5.692-5.256 2.754-5.273 2.728-10.53 5.482-5.265 2.754-5.29 2.712-10.546 5.466-5.257 2.754-5.257 2.762-10.555 5.457-1.867.812-4.085-.468-4.085-2.502 0-2.712.142-2.712.142-5.424 0-1.13.796-1.976 1.834-2.419 5.273-2.721 5.231-2.821 10.488-5.575 5.256-2.754 5.206-2.862 10.462-5.625 5.257-2.753 5.316-2.645 10.572-5.398 5.257-2.754 5.148-2.972 10.413-5.734 5.265-2.762 5.34-2.603 10.63-5.307 1.867-.812 4.101.46 4.101 2.494 0 2.712-.125 2.712-.125 5.424 0 1.13-.661 2.302-1.691 2.746zM169.592 73.358c-5.014 2.578-4.922 2.745-9.919 5.365-4.997 2.612-5.139 2.335-10.128 4.947-4.989 2.611-4.863 2.87-9.86 5.49-4.997 2.62-4.947 2.713-9.978 5.274-1.866.812-3.917-.678-3.917-2.712 0-2.712.042-2.712.042-5.424 0-1.13.611-2.009 1.64-2.452 5.014-2.578 4.88-2.838 9.877-5.45 4.997-2.611 4.964-2.661 9.961-5.273 4.997-2.611 5.022-2.578 10.011-5.19 4.989-2.61 4.93-2.753 9.952-5.314 1.867-.812 4.043.736 4.043 2.77 0 2.712.176 2.712.176 5.424 0 1.13-.871 2.11-1.909 2.553l.009-.008M158.911 112.899c-5.014 2.578-4.938 2.72-9.935 5.332-4.997 2.612-5.031 2.545-10.02 5.164-4.997 2.612-4.93 2.738-9.927 5.349-4.997 2.612-5.022 2.57-10.044 5.123-1.867.812-4.051-.511-4.051-2.545 0-2.712.242-2.712.242-5.424 0-1.13.603-2.034 1.633-2.486 5.013-2.578 4.921-2.762 9.918-5.374 3.332-1.741 6.66-3.484 9.986-5.231 4.997-2.612 5.047-2.528 10.036-5.139 4.989-2.612 4.863-2.871 9.894-5.424 1.866-.812 4.076.703 4.076 2.737 0 2.712-.251 2.712-.251 5.424 0 1.13-.519 2.05-1.557 2.494"/><path fill="#ADC584" d="M147.177 103.357c-4.696 2.419-4.738 2.352-9.417 4.804-4.679 2.453-4.629 2.553-9.316 5.006-4.688 2.452-4.721 2.394-9.434 4.788-1.866.812-3.867-.595-3.867-2.629 0-2.712-.1-2.712-.1-5.424 0-1.13.603-2.268 1.632-2.72 4.696-2.419 4.654-2.503 9.333-4.955 4.679-2.453 4.821-2.193 9.5-4.646 4.679-2.452 4.579-2.661 9.291-5.064 1.867-.811 3.976.62 3.976 2.654 0 2.712.017 2.712.017 5.424 0 1.13-.586 2.31-1.624 2.754zM145.896 135.909c-6.965 3.591-6.872 3.775-13.853 7.341-1.867.812-3.926-.578-3.926-2.612 0-2.712-.042-2.712-.042-5.424 0-1.13.703-2.084 1.741-2.536 6.964-3.591 6.889-3.741 13.861-7.307 1.867-.812 3.884.561 3.884 2.595 0 2.712.092 2.712.092 5.424 0 1.13-.728 2.067-1.757 2.519"/><path fill="#FCBA44" d="M168.27 124.517c-6.964 3.59-6.922 3.674-13.895 7.24-1.866.812-3.9-.393-3.9-2.427 0-2.712-.134-2.712-.134-5.424 0-1.13.912-1.993 1.942-2.436 6.964-3.591 6.855-3.8 13.836-7.366 1.866-.812 4.093.527 4.093 2.561 0 2.712-.368 2.712-.368 5.424 0 1.13-.544 1.984-1.574 2.436z"/><path fill="#60747B" d="M161.213 96.075c-2.72 1.38-2.595 1.623-5.332 2.988-1.866.812-3.909-.561-3.909-2.595 0-2.712-.125-2.712-.125-5.424 0-1.13.703-2.243 1.732-2.695 2.721-1.381 2.813-1.197 5.55-2.553 1.866-.812 3.992.402 3.992 2.435 0 2.713-.133 2.713-.133 5.425 0 1.13-.737 1.975-1.775 2.427v-.008M124.368 147.451c-2.721 1.381-2.603 1.607-5.34 2.972-1.867.811-3.96-.612-3.96-2.645 0-2.712-.058-2.712-.058-5.424 0-1.13.803-1.976 1.833-2.428 2.72-1.381 2.578-1.674 5.307-3.03 1.866-.812 3.825.611 3.825 2.645 0 2.712.125 2.712.125 5.424 0 1.13-.694 2.042-1.732 2.494zM119.772 99.766c-6.964 3.59-6.805 3.892-13.786 7.457-1.866.812-4.043-.594-4.043-2.628 0-2.712.126-2.712.126-5.424 0-1.13.695-2 1.724-2.452 6.964-3.591 6.839-3.834 13.82-7.4 1.866-.812 3.992.57 3.992 2.603 0 2.713-.217 2.713-.217 5.424 0 1.13-.586 1.968-1.616 2.411v.008"/><path fill="#80949C" d="M184.893 31.9c0 2.595-4.587 4.838-10.203 4.838-5.617 0-10.103-2.235-10.103-4.838s4.486-4.855 10.103-4.855c5.616 0 10.203 2.26 10.203 4.855"/><path fill="#253135" d="M183.135 31.339c0 2.327-4.235 3.423-8.445 3.423s-8.329-1.096-8.329-3.423c0-4.654 3.675-8.47 8.329-8.47 4.654 0 8.445 3.816 8.445 8.47"/><path stroke="#253135" stroke-linecap="round" stroke-linejoin="round" stroke-width="1.333" d="M183.135 31.339c0 2.327-4.235 3.423-8.445 3.423s-8.329-1.096-8.329-3.423c0-4.654 3.675-8.47 8.329-8.47 4.654 0 8.445 3.816 8.445 8.47"/><path fill="#60747B" d="M173.547 23.848a1 1 0 0 0 2 0h-2m-1.452-12.23.912-.41h-.001l-.911.41m-8.312-9.09-.406.914.406-.914Zm-12.396-.51-.233-.973h-.001l.234.973m-18.331 15.56-.892-.453.892.453m-2.913 11.911-1-.006v.002l1 .004m45.404-5.642c0-4.42-.816-8.807-2.54-12.639l-1.824.82c1.59 3.535 2.364 7.635 2.364 11.82h2m-2.541-12.64c-1.848-4.103-4.611-7.724-8.817-9.593l-.812 1.828c3.595 1.597 6.072 4.739 7.806 8.587l1.823-.821m-8.817-9.592c-3.572-1.588-7.927-1.793-13.035-.57l.465 1.945c4.819-1.154 8.7-.907 11.758.452l.812-1.827Zm-13.036-.57c-4.098.986-8.004 3.032-11.281 5.96l1.333 1.492c3.035-2.713 6.645-4.6 10.415-5.507l-.467-1.945m-11.281 5.96c-3.257 2.912-5.807 6.38-7.708 10.12l1.783.906c1.799-3.541 4.204-6.804 7.258-9.534l-1.333-1.491Zm-7.708 10.12c-2.031 4.002-2.995 8.315-3.021 12.358l2 .012c.024-3.741.918-7.748 2.804-11.464l-1.783-.905m-3.021 12.36c-.009 2.343.787 4.75 1.781 6.956.996 2.208 2.247 4.327 3.202 6.045l1.748-.971c-.99-1.782-2.176-3.788-3.126-5.896-.952-2.11-1.613-4.208-1.605-6.126l-2-.008"/><path stroke="#FCBA44" stroke-linecap="round" stroke-miterlimit="10" stroke-width="1.333" d="m196.126 34.528-3.307-.536M198.595 22.475l-7.131 2.703M187.664 16.055l-1.774 2.168M178.808 7.467l-1.231 7.525M167.951 14.18l.82 2.168M155.907 17.102l5.91 4.82M155.488 29.731l3.097.503"/></svg>