<svg xmlns="http://www.w3.org/2000/svg" width="177" height="151" viewBox="0 0 177 151" fill="none">
  <g clip-path="url(#clip0_3642_102518)">
    <path d="M131.466 127.326C125.745 129.19 125.905 129.708 120.183 131.572C114.462 133.436 114.322 133.017 108.591 134.881C102.86 136.745 102.96 137.054 97.2283 138.928C91.497 140.802 91.5269 140.891 85.8056 142.755C80.0843 144.619 80.0345 144.49 74.3032 146.363C68.5719 148.237 68.6317 148.407 62.9004 150.281C62.8905 150.281 62.6612 150.231 62.6512 150.231C57.4183 147.3 57.528 147.091 52.2951 144.171C47.0622 141.25 47.2017 140.981 41.9688 138.051C36.7359 135.12 36.5166 135.489 31.2837 132.568C26.0508 129.648 26.2203 129.329 20.9774 126.409C15.7345 123.488 15.7644 123.418 10.5215 120.488C5.27866 117.557 5.2986 117.528 0.0557245 114.597C0.0158548 114.577 -0.183494 114.647 -0.133657 114.637C5.58765 112.773 5.69729 113.092 11.4186 111.228C17.1399 109.364 17.11 109.245 22.8313 107.371C28.5526 105.497 28.6124 105.676 34.3437 103.812C40.075 101.948 40.0052 101.729 45.7265 99.8653C51.4478 98.0014 51.3581 97.6924 57.0894 95.8285C62.8207 93.9646 63.0101 94.5327 68.7413 92.6588C68.7513 92.6588 68.7413 92.2402 68.7613 92.2502C73.9942 95.1806 74.0141 95.1507 79.247 98.0811C84.4799 101.012 84.5298 100.932 89.7726 103.862C95.0155 106.793 94.9557 106.892 100.199 109.813C105.441 112.733 105.382 112.843 110.615 115.773C115.847 118.704 115.897 118.624 121.14 121.554C126.383 124.485 126.363 124.525 131.606 127.455C131.646 127.475 131.506 127.336 131.466 127.355V127.326Z" fill="#EDEBFC"/>
    <path d="M131.646 127.635C125.914 129.499 125.835 129.239 120.103 131.103C114.372 132.967 114.502 133.356 108.77 135.22C103.039 137.084 102.999 136.974 97.268 138.838C91.5367 140.702 91.4869 140.542 85.7556 142.416C80.0243 144.29 80.0841 144.46 74.3429 146.334C68.6016 148.207 68.492 147.849 62.7607 149.723C62.7308 149.732 62.99 149.982 62.99 149.952C62.99 144.3 62.9202 144.3 62.9202 138.639C62.9202 132.977 62.671 132.987 62.671 127.326C62.671 121.664 62.5215 121.674 62.5215 116.013C62.5215 110.351 62.5614 110.361 62.5614 104.71C62.5614 99.058 62.8504 99.058 62.8504 93.3965C62.8504 87.735 62.8504 87.735 62.8504 82.0834C62.8504 76.4319 62.8205 76.4319 62.8205 70.7704C62.8205 65.1089 62.6212 65.1089 62.6212 59.4574C62.6212 53.8058 62.8205 53.7959 62.8205 48.1443C62.8205 48.1244 62.8903 48.3536 62.9102 48.3437C68.6415 46.4798 68.5219 46.1309 74.2532 44.257C79.9844 42.3831 80.0243 42.5027 85.7556 40.6388C91.4869 38.7749 91.437 38.6154 97.1683 36.7515C102.9 34.8876 102.86 34.758 108.591 32.8941C114.322 31.0302 114.502 31.5784 120.243 29.7046C125.984 27.8307 125.815 27.3423 131.556 25.4784C131.586 25.4684 131.755 25.6877 131.755 25.7176C131.755 31.3691 131.965 31.3691 131.965 37.0306C131.965 42.6921 131.536 42.6822 131.536 48.3437C131.536 54.0052 131.965 53.9952 131.965 59.6567C131.965 65.3182 131.546 65.3082 131.546 70.9598C131.546 76.6113 131.416 76.6113 131.416 82.2728C131.416 87.9343 131.606 87.9343 131.606 93.5859C131.606 99.2374 131.815 99.2374 131.815 104.899C131.815 110.56 131.566 110.56 131.566 116.212C131.566 121.863 131.496 121.873 131.496 127.525C131.496 127.545 131.686 127.635 131.666 127.635H131.646Z" fill="#D5E1E6"/>
    <path d="M131.536 25.6379C125.814 27.5018 125.834 27.5715 120.103 29.4355C114.372 31.2994 114.352 31.2296 108.621 33.0935C102.889 34.9574 102.869 34.8976 97.1381 36.7615C91.4068 38.6254 91.4268 38.6952 85.7054 40.5591C79.9841 42.423 79.9542 42.3632 74.223 44.2271C68.4917 46.091 68.5814 46.3602 62.8501 48.234C62.8401 48.234 62.8102 48.0347 62.8003 48.0247C54.9958 43.669 55.0556 43.5693 47.2511 39.2135C47.2112 39.1936 47.1215 39.2733 47.1614 39.2633C52.8827 37.3994 52.8528 37.2898 58.5741 35.4259C64.2954 33.562 64.3253 33.6218 70.0466 31.7579C75.7679 29.894 75.738 29.7843 81.4693 27.9104C87.2006 26.0366 87.3202 26.4153 93.0415 24.5414C98.7628 22.6676 98.7329 22.538 104.464 20.6741C110.195 18.8102 110.116 18.5709 115.847 16.707C115.857 16.707 115.897 16.9363 115.907 16.9363C123.711 21.2921 123.661 21.3818 131.456 25.7375C131.496 25.7575 131.556 25.6179 131.516 25.6279L131.536 25.6379Z" fill="#EAF0F3"/>
    <path d="M62.7109 149.981C54.9064 145.616 54.8466 145.705 47.0421 141.34C47.0222 141.34 47.0022 141.21 47.0022 141.2C47.0022 135.549 47.0521 135.549 47.0521 129.897C47.0521 124.246 47.2813 124.246 47.2813 118.584C47.2813 112.923 47.3012 112.933 47.3012 107.271C47.3012 101.61 47.3012 101.619 47.3012 95.9679C47.3012 90.3164 46.8926 90.3164 46.8926 84.6549C46.8926 78.9934 46.9125 79.0033 46.9125 73.3418C46.9125 67.6803 47.0022 67.6903 47.0022 62.0288C47.0022 56.3673 47.2414 56.3673 47.2414 50.7158C47.2414 45.0642 47.0521 45.0542 47.0521 39.4027C47.0521 39.3628 47.1816 39.2133 47.2115 39.2333C55.016 43.599 55.0061 43.6289 62.8106 47.9946C62.8305 47.9946 62.8804 48.1143 62.8804 48.1342C62.8804 53.7857 63.0598 53.7857 63.0598 59.4373C63.0598 65.0888 62.7807 65.0888 62.7807 70.7503C62.7807 76.4118 62.6411 76.4018 62.6411 82.0634C62.6411 87.7249 62.5215 87.7149 62.5215 93.3664C62.5215 99.018 62.8604 99.018 62.8604 104.679C62.8604 110.341 62.7508 110.331 62.7508 115.993C62.7508 121.654 62.8704 121.644 62.8704 127.306C62.8704 132.967 62.9402 132.967 62.9402 138.619C62.9402 144.27 62.5315 144.28 62.5315 149.932C62.5315 149.972 62.7408 150.001 62.7109 149.981Z" fill="#ABBBC1"/>
    <path d="M62.7009 150.002C54.8964 145.636 54.9163 145.596 47.1118 141.23" stroke="#80949C" stroke-width="1.33335" stroke-linecap="round" stroke-linejoin="round"/>
    <path d="M68.2329 40.9279C65.2726 41.9845 65.2228 41.835 62.2624 42.8915C62.2325 42.9015 62.2425 42.9414 62.2425 42.9015C62.2425 36.2931 62.2724 36.2931 62.2724 29.6847C62.2724 23.0763 62.2026 23.0663 62.2026 16.4579C62.2026 9.84946 62.3023 9.83949 62.3023 3.23108C62.3023 3.21114 62.2325 3.12144 62.2525 3.11147C63.6978 2.59316 63.7177 2.66293 65.163 2.14463C65.1929 2.13466 65.143 2.17453 65.153 2.20443C65.4852 6.49043 65.8142 10.7764 66.1398 15.0624C66.6381 21.5014 66.678 21.4914 67.1764 27.9304C67.6748 34.3694 67.8243 34.3494 68.3226 40.7884C68.3226 40.8083 68.2529 40.9279 68.2329 40.9279Z" fill="#D5E1E6"/>
    <path d="M65.1228 2.16436C64.1726 2.50325 63.219 2.84547 62.2621 3.19101C62.2621 3.19101 62.2322 3.19101 62.2223 3.19101C61.2787 2.66605 60.3384 2.1411 59.4015 1.61615C59.4015 1.61615 59.3716 1.51648 59.4015 1.50651C60.8268 0.99817 60.8368 1.01811 62.2721 0.509766C62.2821 0.509766 62.292 0.509766 62.312 0.509766C63.2555 1.03472 64.1958 1.56299 65.1328 2.09459C65.1328 2.09459 65.1627 2.16436 65.1328 2.17433L65.1228 2.16436Z" fill="#EAF0F3"/>
    <path d="M62.1626 42.8912C59.2521 41.2665 59.1923 41.3662 56.2818 39.7415C56.2618 39.7415 56.2319 39.6518 56.2319 39.6318C56.7303 33.3025 56.8001 33.3025 57.2984 26.9732C57.7968 20.6439 57.7669 20.6339 58.2753 14.3046C58.7836 7.97524 58.8334 7.97524 59.3318 1.63595C59.3318 1.59608 59.3617 1.53627 59.3916 1.55621C60.817 2.3536 60.7472 2.47321 62.1626 3.27061C62.1825 3.27061 62.2024 3.2108 62.2024 3.22077C62.2024 9.82918 62.2722 9.82918 62.2722 16.4376C62.2722 23.046 62.1825 23.046 62.1825 29.6644C62.1825 36.2828 62.2921 36.2728 62.2921 42.8912C62.2921 42.931 62.2024 42.9111 62.1725 42.8912H62.1626Z" fill="#ABBBC1"/>
    <path d="M123.442 98.7192C119.229 100.095 115.013 101.467 110.794 102.836C104.474 104.899 104.454 104.839 98.135 106.902C91.8156 108.966 91.8555 109.125 85.5361 111.179C79.2168 113.232 79.2168 113.272 72.8974 115.335C70.9837 115.963 69.0001 114.408 69.0001 112.395C69.0001 106.733 68.9503 106.733 68.9503 101.072C68.9503 95.41 69.0799 95.41 69.0799 89.7485C69.0799 84.087 68.9204 84.087 68.9204 78.4255C68.9204 72.764 69.0599 72.764 69.0599 67.0925C69.0599 61.431 68.8008 61.431 68.8008 55.7595C68.8008 54.4837 69.8075 53.3474 71.0235 52.9487C77.3429 50.8855 77.3628 50.9253 83.6822 48.8621C90.0015 46.7988 89.9517 46.6493 96.281 44.586C102.61 42.5228 102.63 42.6125 108.96 40.5492C115.289 38.486 115.269 38.4262 121.588 36.3629C123.502 35.735 125.625 37.25 125.625 39.2634C125.625 44.9249 125.336 44.9249 125.336 50.5864C125.336 56.2479 125.525 56.2479 125.525 61.9095C125.525 67.571 125.545 67.571 125.545 73.2325C125.545 78.894 125.306 78.894 125.306 84.5654C125.306 88.3398 125.306 92.1174 125.306 95.8984C125.306 97.1743 124.688 98.3305 123.462 98.7292L123.442 98.7192Z" fill="#FCBA44"/>
    <path d="M100.877 91.0743C98.5242 91.8385 96.1752 92.6093 93.8295 93.3868C93.5604 93.4765 93.3013 93.2871 93.3013 93.008C93.3013 90.2072 93.3112 90.2072 93.3112 87.4063C93.3112 87.2269 93.4109 87.0774 93.5804 87.0276C97.1088 85.8813 97.0989 85.8514 100.627 84.6952C100.896 84.6055 101.195 84.8247 101.195 85.1038C101.195 86.9711 101.195 88.8383 101.195 90.7055C101.195 90.885 101.056 91.0245 100.886 91.0743H100.877Z" fill="white"/>
    <path d="M100.876 79.3825C97.348 80.5288 97.348 80.5188 93.8195 81.6651C93.5504 81.7548 93.2812 81.5953 93.2812 81.3162C93.2812 76.2228 93.3112 76.2228 93.3112 71.1295C93.3112 66.0361 93.3112 66.0361 93.3112 60.9428C93.3112 60.7633 93.4108 60.5939 93.5803 60.5341C97.1087 59.3878 97.0988 59.3579 100.627 58.2017C100.896 58.112 101.225 58.3612 101.225 58.6403C101.225 63.7336 101.215 63.7336 101.215 68.827C101.215 73.9204 101.205 73.9204 101.205 79.0137C101.205 79.1931 101.066 79.3227 100.896 79.3825H100.876Z" fill="white"/>
    <path d="M71.2326 127.705V127.695C70.1163 128.064 68.98 127.236 68.98 126.06C68.98 125.891 68.98 125.891 68.98 125.731C68.98 124.984 69.4684 124.326 70.1761 124.096V124.087C71.2924 123.718 72.4287 124.555 72.4287 125.731C72.4287 125.901 72.4387 125.901 72.4387 126.06C72.4387 126.808 71.9602 127.475 71.2426 127.705H71.2326Z" fill="#ABBBC1"/>
    <path d="M76.5155 125.98C75.3992 126.349 74.2529 125.511 74.2529 124.335C74.2529 124.166 74.2529 124.166 74.2529 124.006C74.2529 123.259 74.7314 122.591 75.449 122.362C76.5654 121.993 77.7216 122.84 77.7216 124.016C77.7216 124.186 77.7116 124.186 77.7116 124.345C77.7116 125.093 77.2332 125.751 76.5255 125.98H76.5155Z" fill="#ABBBC1"/>
    <path d="M81.7983 124.256C80.6819 124.624 79.5356 123.797 79.5356 122.621C79.5356 122.451 79.5356 122.451 79.5356 122.292C79.5356 121.544 80.0241 120.887 80.7317 120.657C81.8481 120.289 82.9943 121.126 82.9943 122.302C82.9943 122.471 83.0043 122.471 83.0043 122.631C83.0043 123.378 82.5159 124.046 81.8082 124.275L81.7983 124.256Z" fill="#ABBBC1"/>
    <path d="M87.081 122.541C85.9646 122.91 84.8184 122.073 84.8184 120.897C84.8184 120.727 84.8184 120.727 84.8184 120.568C84.8184 119.82 85.2868 119.152 86.0045 118.923C87.1208 118.554 88.2771 119.402 88.2771 120.578C88.2771 120.747 88.2771 120.747 88.2771 120.907C88.2771 121.654 87.7887 122.322 87.081 122.551V122.541Z" fill="#ABBBC1"/>
    <path d="M92.3736 120.827C91.2573 121.196 90.1011 120.358 90.1011 119.182C90.1011 119.013 90.111 119.013 90.111 118.853C90.111 118.106 90.5895 117.438 91.2972 117.209C92.4135 116.84 93.5498 117.677 93.5498 118.853C93.5498 119.023 93.5498 119.023 93.5498 119.182C93.5498 119.93 93.0714 120.598 92.3637 120.837L92.3736 120.827Z" fill="#ABBBC1"/>
    <path d="M97.6466 119.083C96.5303 119.451 95.374 118.614 95.374 117.438C95.374 117.269 95.374 117.269 95.374 117.109C95.374 116.362 95.8525 115.694 96.5602 115.464C97.6765 115.096 98.8228 115.933 98.8228 117.109C98.8228 117.279 98.8228 117.279 98.8228 117.438C98.8228 118.186 98.3344 118.843 97.6267 119.073L97.6466 119.083Z" fill="#ABBBC1"/>
    <path d="M71.2328 133.904C70.1165 134.273 68.9702 133.436 68.9702 132.26C68.9702 132.09 68.9702 132.09 68.9702 131.931C68.9702 131.183 69.4487 130.515 70.1563 130.286V130.296C71.2727 129.927 72.409 130.755 72.409 131.931C72.409 132.1 72.409 132.1 72.409 132.26C72.409 133.007 71.9305 133.665 71.2229 133.894L71.2328 133.904Z" fill="#ABBBC1"/>
    <path d="M76.5155 132.18C75.3992 132.549 74.2529 131.712 74.2529 130.535C74.2529 130.366 74.2529 130.366 74.2529 130.207C74.2529 129.459 74.7314 128.801 75.449 128.572V128.562C76.5654 128.193 77.7116 129.04 77.7116 130.216C77.7116 130.386 77.7116 130.386 77.7116 130.545C77.7116 131.293 77.2232 131.951 76.5155 132.19V132.18Z" fill="#ABBBC1"/>
    <path d="M81.7983 130.456V130.466C80.6819 130.834 79.5356 129.987 79.5356 128.811C79.5356 128.642 79.5356 128.642 79.5356 128.482C79.5356 127.735 80.0141 127.067 80.7317 126.837V126.847C81.8481 126.479 82.9943 127.306 82.9943 128.482C82.9943 128.652 82.9943 128.652 82.9943 128.811C82.9943 129.559 82.5059 130.216 81.7983 130.446V130.456Z" fill="#ABBBC1"/>
    <path d="M87.081 128.731C85.9646 129.1 84.8184 128.263 84.8184 127.087C84.8184 126.917 84.8184 126.917 84.8184 126.758C84.8184 126.01 85.3068 125.352 86.0144 125.123C87.1308 124.754 88.2671 125.592 88.2671 126.768C88.2671 126.937 88.2771 126.937 88.2771 127.097C88.2771 127.844 87.7887 128.502 87.081 128.731Z" fill="#ABBBC1"/>
    <path d="M92.364 127.007C91.2476 127.376 90.1113 126.538 90.1113 125.372C90.1113 125.203 90.1113 125.203 90.1113 125.043C90.1113 124.296 90.5997 123.628 91.3074 123.399C92.4238 123.03 93.58 123.867 93.58 125.043C93.58 125.156 93.58 125.266 93.58 125.372C93.58 126.12 93.0916 126.777 92.3739 127.007H92.364Z" fill="#ABBBC1"/>
    <path d="M97.6467 125.293C96.5303 125.661 95.394 124.824 95.394 123.648C95.394 123.479 95.394 123.478 95.394 123.319C95.394 122.571 95.8725 121.914 96.5802 121.674C97.6965 121.306 98.8328 122.143 98.8328 123.319C98.8328 123.488 98.8328 123.488 98.8328 123.648C98.8328 124.396 98.3544 125.063 97.6467 125.293Z" fill="#ABBBC1"/>
    <path d="M71.2328 140.104C70.1165 140.473 68.9702 139.636 68.9702 138.459C68.9702 138.29 68.9702 138.29 68.9702 138.131C68.9702 137.383 69.4487 136.715 70.1663 136.486C71.2827 136.117 72.4189 136.954 72.4189 138.131C72.4189 138.3 72.4389 138.3 72.4389 138.459C72.4389 139.207 71.9505 139.865 71.2328 140.094V140.104Z" fill="#ABBBC1"/>
    <path d="M76.5157 138.39V138.38C75.3994 138.748 74.2432 137.911 74.2432 136.745C74.2432 136.575 74.2531 136.575 74.2531 136.416C74.2531 135.668 74.7316 135.011 75.4393 134.781C76.5556 134.413 77.7019 135.25 77.7019 136.426C77.7019 136.595 77.7019 136.595 77.7019 136.755C77.7019 137.502 77.2234 138.17 76.5157 138.409V138.39Z" fill="#ABBBC1"/>
    <path d="M81.7983 136.655V136.665C80.6819 137.034 79.5356 136.197 79.5356 135.021C79.5356 134.851 79.5356 134.851 79.5356 134.692C79.5356 133.944 80.0141 133.276 80.7317 133.037V133.057C81.8481 132.688 82.9943 133.515 82.9943 134.692C82.9943 134.861 82.9943 134.861 82.9943 135.021C82.9943 135.768 82.5059 136.426 81.7983 136.655Z" fill="#ABBBC1"/>
    <path d="M87.0812 134.941C85.9648 135.31 84.8086 134.462 84.8086 133.286C84.8086 133.117 84.8086 133.117 84.8086 132.957C84.8086 132.21 85.287 131.552 86.0047 131.313C87.121 130.944 88.2773 131.781 88.2773 132.957C88.2773 133.127 88.2773 133.127 88.2773 133.286C88.2773 134.034 87.7988 134.701 87.0911 134.931L87.0812 134.941Z" fill="#ABBBC1"/>
    <path d="M92.3637 133.216V133.226C91.2473 133.595 90.1011 132.748 90.1011 131.582C90.1011 131.412 90.1011 131.412 90.1011 131.253C90.1011 130.505 90.5795 129.837 91.2872 129.608V129.618C92.4035 129.249 93.5398 130.076 93.5398 131.253C93.5398 131.422 93.5398 131.422 93.5398 131.582C93.5398 132.329 93.0614 132.987 92.3537 133.216H92.3637Z" fill="#ABBBC1"/>
    <path d="M97.6464 131.492C96.53 131.861 95.3838 131.034 95.3838 129.857C95.3838 129.688 95.3838 129.688 95.3838 129.529C95.3838 128.781 95.8622 128.123 96.5799 127.894C97.6962 127.525 98.8325 128.352 98.8325 129.529C98.8325 129.698 98.8425 129.698 98.8425 129.857C98.8425 130.605 98.3641 131.273 97.6464 131.502V131.492Z" fill="#ABBBC1"/>
    <path d="M102.869 117.208C101.753 117.577 100.597 116.75 100.597 115.574C100.597 115.404 100.617 115.404 100.617 115.245C100.617 114.497 101.095 113.839 101.803 113.61V113.6C102.919 113.231 104.065 114.069 104.065 115.245C104.065 115.414 104.065 115.414 104.065 115.574C104.065 116.321 103.587 116.989 102.869 117.218V117.208Z" fill="#ABBBC1"/>
    <path d="M108.162 115.484C107.045 115.853 105.909 115.016 105.909 113.84C105.909 113.67 105.909 113.67 105.909 113.511C105.909 112.763 106.388 112.096 107.095 111.866C108.212 111.497 109.368 112.335 109.368 113.511C109.368 113.68 109.368 113.68 109.368 113.84C109.368 114.587 108.879 115.255 108.172 115.484H108.162Z" fill="#ABBBC1"/>
    <path d="M113.435 113.76C112.318 114.129 111.172 113.291 111.172 112.115C111.172 111.946 111.162 111.946 111.162 111.786C111.162 111.039 111.651 110.371 112.358 110.142C113.475 109.773 114.621 110.61 114.621 111.786C114.621 111.956 114.621 111.956 114.621 112.115C114.621 112.863 114.132 113.521 113.415 113.76H113.435Z" fill="#ABBBC1"/>
    <path d="M118.727 112.046C117.611 112.414 116.465 111.587 116.465 110.411C116.465 110.241 116.475 110.241 116.475 110.082C116.475 109.334 116.953 108.677 117.661 108.447V108.437C118.777 108.069 119.924 108.916 119.924 110.092C119.924 110.261 119.924 110.261 119.924 110.421C119.924 111.168 119.435 111.836 118.727 112.066V112.046Z" fill="#ABBBC1"/>
    <path d="M124.01 110.311C122.894 110.68 121.748 109.843 121.748 108.666C121.748 108.497 121.748 108.497 121.748 108.338C121.748 107.59 122.226 106.922 122.934 106.693C124.05 106.324 125.196 107.161 125.196 108.338C125.196 108.507 125.196 108.507 125.196 108.666C125.196 109.414 124.718 110.072 124.01 110.311Z" fill="#ABBBC1"/>
    <path d="M102.879 123.418C101.763 123.787 100.606 122.94 100.606 121.764C100.606 121.594 100.606 121.594 100.606 121.435C100.606 120.687 101.095 120.02 101.803 119.79C102.919 119.422 104.065 120.249 104.065 121.425C104.065 121.594 104.065 121.594 104.065 121.754C104.065 122.501 103.587 123.169 102.879 123.399V123.418Z" fill="#ABBBC1"/>
    <path d="M108.152 121.684C107.035 122.053 105.899 121.225 105.899 120.049C105.899 119.88 105.889 119.88 105.889 119.72C105.889 118.973 106.378 118.315 107.085 118.086C108.202 117.717 109.358 118.554 109.358 119.73C109.358 119.9 109.358 119.9 109.358 120.059C109.358 120.807 108.869 121.464 108.162 121.694L108.152 121.684Z" fill="#ABBBC1"/>
    <path d="M113.435 119.96V119.97C112.318 120.338 111.162 119.501 111.162 118.325C111.162 118.155 111.162 118.155 111.162 117.996C111.162 117.248 111.641 116.581 112.348 116.341V116.351C113.465 115.983 114.611 116.81 114.611 117.986C114.611 118.155 114.611 118.155 114.611 118.315C114.611 119.063 114.122 119.72 113.415 119.95L113.435 119.96Z" fill="#ABBBC1"/>
    <path d="M118.728 118.245C117.611 118.614 116.455 117.767 116.455 116.591C116.455 116.421 116.455 116.421 116.455 116.262C116.455 115.514 116.943 114.856 117.651 114.627C118.768 114.258 119.924 115.086 119.924 116.262C119.924 116.431 119.914 116.431 119.914 116.591C119.914 117.338 119.445 118.006 118.728 118.235V118.245Z" fill="#ABBBC1"/>
    <path d="M124.01 116.521C122.894 116.889 121.738 116.042 121.738 114.866C121.738 114.697 121.738 114.697 121.738 114.537C121.738 113.79 122.226 113.122 122.934 112.892C124.05 112.524 125.196 113.371 125.196 114.537C125.196 114.707 125.196 114.707 125.196 114.866C125.196 115.614 124.708 116.281 124 116.511L124.01 116.521Z" fill="#ABBBC1"/>
    <path d="M102.869 129.608C101.753 129.977 100.606 129.14 100.606 127.973C100.606 127.804 100.606 127.804 100.606 127.645C100.606 126.897 101.085 126.229 101.803 126C102.919 125.631 104.075 126.478 104.075 127.645C104.075 127.814 104.055 127.814 104.055 127.973C104.055 128.721 103.587 129.379 102.869 129.618V129.608Z" fill="#ABBBC1"/>
    <path d="M108.162 127.894C107.045 128.262 105.889 127.415 105.889 126.239C105.889 126.07 105.889 126.07 105.889 125.91C105.889 125.163 106.368 124.505 107.085 124.275C108.202 123.907 109.348 124.744 109.348 125.92C109.348 126.09 109.358 126.09 109.358 126.249C109.358 126.997 108.869 127.664 108.162 127.894Z" fill="#ABBBC1"/>
    <path d="M113.445 126.17C112.328 126.538 111.182 125.701 111.182 124.525C111.182 124.355 111.182 124.355 111.182 124.196C111.182 123.448 111.661 122.791 112.368 122.551C113.485 122.183 114.641 123.02 114.641 124.196C114.641 124.365 114.631 124.365 114.631 124.525C114.631 125.272 114.162 125.94 113.445 126.17Z" fill="#ABBBC1"/>
    <path d="M118.727 124.445C117.611 124.814 116.465 123.977 116.465 122.81C116.465 122.641 116.465 122.641 116.465 122.481C116.465 121.734 116.953 121.076 117.661 120.847C118.777 120.478 119.924 121.315 119.924 122.491C119.924 122.661 119.924 122.661 119.924 122.82C119.924 123.568 119.445 124.236 118.737 124.465L118.727 124.445Z" fill="#ABBBC1"/>
    <path d="M124.01 122.721C122.894 123.09 121.757 122.242 121.757 121.066C121.757 120.897 121.757 120.897 121.757 120.737C121.757 119.99 122.236 119.332 122.943 119.093C124.06 118.724 125.206 119.571 125.206 120.737C125.206 120.907 125.206 120.907 125.206 121.066C125.206 121.814 124.728 122.482 124.01 122.711V122.721Z" fill="#ABBBC1"/>
    <path d="M131.655 127.655C125.924 129.518 125.854 129.299 120.123 131.163C114.392 133.027 114.412 133.097 108.68 134.961C102.949 136.825 103.019 137.054 97.2876 138.928C91.5564 140.802 91.5065 140.642 85.7753 142.506C80.044 144.37 80.0739 144.46 74.3326 146.334C68.5914 148.207 68.5515 148.068 62.8202 149.942M62.8202 149.942C62.7903 149.952 62.8202 149.982 62.8202 149.942ZM62.8202 149.942C62.8202 143.234 62.8601 143.234 62.8601 136.526C62.8601 129.817 62.6309 129.817 62.6309 123.109" stroke="#80949C" stroke-width="1.33335" stroke-linecap="round" stroke-linejoin="round"/>
    <path d="M123.472 98.7988C117.153 100.862 117.073 100.643 110.754 102.706C104.434 104.769 104.434 104.789 98.1149 106.853C91.7956 108.916 91.8354 109.065 85.5161 111.129C79.1967 113.192 79.1768 113.162 72.8574 115.225C70.9437 115.853 68.9801 114.398 68.9801 112.394C68.9801 107.012 68.9502 107.012 68.9502 101.64" stroke="#FFF3E2" stroke-width="1.33335" stroke-linecap="round" stroke-linejoin="round"/>
    <path d="M71.0039 52.9087C77.3233 50.8455 77.3731 51.005 83.7024 48.9417C90.0317 46.8784 90.0118 46.8485 96.3312 44.7853C102.651 42.722 102.651 42.6921 108.97 40.6289C115.289 38.5656 115.259 38.4659 121.589 36.4027C123.502 35.7747 125.596 37.2499 125.596 39.2633C125.596 43.1905 125.576 43.1905 125.576 47.1177" stroke="#F9A619" stroke-width="1.33335" stroke-linecap="round" stroke-linejoin="round"/>
  </g>
  <defs>
    <clipPath id="clip0_3642_102518">
      <rect width="177" height="150" fill="white" transform="translate(0 0.5)"/>
    </clipPath>
  </defs>
</svg>