<svg xmlns="http://www.w3.org/2000/svg" width="119" height="101" viewBox="0 0 119 101" fill="none">
  <g clip-path="url(#clip0_4032_107537)">
    <path d="M88.1445 85.0502C84.3303 86.2928 84.4366 86.6384 80.6224 87.881C76.8082 89.1236 76.7151 88.8445 72.8943 90.0871C69.0734 91.3297 69.1399 91.5357 65.319 92.785C61.4982 94.0342 61.5181 94.094 57.7039 95.3366C53.8897 96.5792 53.8565 96.4928 50.0356 97.7421C46.2148 98.9914 46.2546 99.1043 42.4338 100.354C42.4271 100.354 42.2743 100.32 42.2677 100.32C38.7791 98.3667 38.8521 98.2272 35.3635 96.2802C31.8749 94.3332 31.968 94.1538 28.4794 92.2002C24.9908 90.2466 24.8446 90.4925 21.356 88.5455C17.8674 86.5985 17.9803 86.3859 14.4851 84.4389C10.9898 82.4919 11.0098 82.4454 7.51452 80.4918C4.01927 78.5382 4.03256 78.5182 0.537312 76.5646C0.510733 76.5513 0.377833 76.5978 0.411058 76.5912C4.22526 75.3486 4.29836 75.5612 8.11257 74.3186C11.9268 73.076 11.9068 72.9963 15.721 71.747C19.5353 70.4978 19.5751 70.6174 23.396 69.3748C27.2168 68.1322 27.1703 67.986 30.9845 66.7434C34.7987 65.5008 34.7389 65.2948 38.5598 64.0522C42.3806 62.8096 42.5069 63.1883 46.3277 61.9391C46.3344 61.9391 46.3277 61.66 46.341 61.6666C49.8296 63.6202 49.8429 63.6003 53.3315 65.5539C56.8201 67.5075 56.8533 67.4544 60.3486 69.408C63.8438 71.3616 63.804 71.4281 67.2992 73.375C70.7945 75.322 70.7546 75.3951 74.2432 77.3487C77.7318 79.3023 77.765 79.2492 81.2603 81.2028C84.7555 83.1564 84.7422 83.183 88.2375 85.1366C88.2641 85.1499 88.171 85.0569 88.1445 85.0702V85.0502Z" fill="#EDEBFC"/>
    <path d="M88.2639 85.2563C84.4431 86.4989 84.3899 86.3261 80.5691 87.5687C76.7482 88.8113 76.8346 89.0705 73.0138 90.3131C69.1929 91.5557 69.1663 91.4826 65.3455 92.7252C61.5246 93.9678 61.4914 93.8615 57.6706 95.1107C53.8497 96.36 53.8896 96.473 50.0621 97.7222C46.2346 98.9715 46.1615 98.7323 42.3406 99.9815C42.3207 99.9882 42.4935 100.154 42.4935 100.134C42.4935 96.3666 42.4469 96.3666 42.4469 92.5923C42.4469 88.818 42.2808 88.8246 42.2808 85.0503C42.2808 81.2759 42.1812 81.2826 42.1812 77.5082C42.1812 73.7339 42.2077 73.7406 42.2077 69.9729C42.2077 66.2052 42.4004 66.2052 42.4004 62.4308C42.4004 58.6565 42.4004 58.6565 42.4004 54.8888C42.4004 51.1211 42.3805 51.1211 42.3805 47.3468C42.3805 43.5724 42.2476 43.5724 42.2476 39.8047C42.2476 36.0371 42.3805 36.0304 42.3805 32.2627C42.3805 32.2494 42.427 32.4023 42.4403 32.3956C46.2612 31.153 46.1814 30.9204 50.0023 29.6712C53.8231 28.4219 53.8497 28.5017 57.6706 27.2591C61.4914 26.0165 61.4582 25.9101 65.279 24.6675C69.0999 23.4249 69.0733 23.3385 72.8942 22.0959C76.715 20.8533 76.8346 21.2188 80.6621 19.9695C84.4896 18.7203 84.3766 18.3947 88.2041 17.1521C88.2241 17.1454 88.337 17.2916 88.337 17.3116C88.337 21.0792 88.4766 21.0792 88.4766 24.8536C88.4766 28.6279 88.1908 28.6213 88.1908 32.3956C88.1908 36.17 88.4766 36.1633 88.4766 39.9376C88.4766 43.712 88.1975 43.7053 88.1975 47.473C88.1975 51.2407 88.1111 51.2407 88.1111 55.0151C88.1111 58.7894 88.2374 58.7894 88.2374 62.5571C88.2374 66.3248 88.3769 66.3248 88.3769 70.0991C88.3769 73.8735 88.2108 73.8735 88.2108 77.6411C88.2108 81.4088 88.1643 81.4155 88.1643 85.1832C88.1643 85.1965 88.2905 85.2563 88.2772 85.2563H88.2639Z" fill="#D5E1E6"/>
    <path d="M88.1908 17.2586C84.3766 18.5012 84.3899 18.5477 80.569 19.7903C76.7482 21.0329 76.7349 20.9864 72.9141 22.229C69.0932 23.4716 69.0799 23.4317 65.2591 24.6743C61.4382 25.917 61.4515 25.9635 57.6373 27.2061C53.8231 28.4487 53.8031 28.4088 49.9823 29.6514C46.1614 30.894 46.2212 31.0734 42.4004 32.3227C42.3938 32.3227 42.3738 32.1898 42.3672 32.1832C37.1642 29.2793 37.204 29.2129 32.001 26.309C31.9745 26.2957 31.9146 26.3489 31.9412 26.3422C35.7554 25.0996 35.7355 25.0265 39.5497 23.7839C43.3639 22.5413 43.3839 22.5812 47.1981 21.3386C51.0123 20.096 50.9923 20.0229 54.8132 18.7736C58.634 17.5244 58.7138 17.7769 62.528 16.5276C66.3422 15.2784 66.3223 15.192 70.1431 13.9494C73.964 12.7068 73.9108 12.5473 77.7316 11.3047C77.7383 11.3047 77.7649 11.4575 77.7715 11.4575C82.9745 14.3614 82.9413 14.4212 88.1376 17.325C88.1642 17.3383 88.2041 17.2453 88.1775 17.2519L88.1908 17.2586Z" fill="#EAF0F3"/>
    <path d="M42.3078 100.154C37.1048 97.2437 37.0649 97.3035 31.8619 94.393C31.8486 94.393 31.8353 94.3066 31.8353 94.3C31.8353 90.5323 31.8685 90.5323 31.8685 86.7646C31.8685 82.9969 32.0214 82.9969 32.0214 79.2225C32.0214 75.4482 32.0347 75.4548 32.0347 71.6805C32.0347 67.9062 32.0347 67.9128 32.0347 64.1451C32.0347 60.3774 31.7622 60.3774 31.7622 56.6031C31.7622 52.8288 31.7755 52.8354 31.7755 49.0611C31.7755 45.2867 31.8353 45.2934 31.8353 41.519C31.8353 37.7447 31.9948 37.7447 31.9948 33.977C31.9948 30.2093 31.8685 30.2027 31.8685 26.435C31.8685 26.4084 31.9549 26.3087 31.9748 26.322C37.1778 29.2325 37.1712 29.2524 42.3742 32.1629C42.3875 32.1629 42.4207 32.2427 42.4207 32.256C42.4207 36.0237 42.5403 36.0237 42.5403 39.7913C42.5403 43.559 42.3543 43.559 42.3543 47.3334C42.3543 51.1077 42.2612 51.1011 42.2612 54.8754C42.2612 58.6497 42.1815 58.6431 42.1815 62.4108C42.1815 66.1785 42.4074 66.1785 42.4074 69.9528C42.4074 73.7272 42.3343 73.7205 42.3343 77.4949C42.3343 81.2692 42.4141 81.2625 42.4141 85.0369C42.4141 88.8112 42.4606 88.8112 42.4606 92.5789C42.4606 96.3466 42.1881 96.3532 42.1881 100.121C42.1881 100.148 42.3277 100.167 42.3078 100.154Z" fill="#ABBBC1"/>
    <path d="M42.3009 100.168C37.0979 97.2574 37.1112 97.2308 31.9082 94.3203" stroke="#80949C" stroke-width="0.888897" stroke-linecap="round" stroke-linejoin="round"/>
    <path d="M45.9889 27.4518C44.0154 28.1562 43.9822 28.0565 42.0086 28.7608C41.9887 28.7675 41.9953 28.7941 41.9953 28.7675C41.9953 24.3619 42.0153 24.3619 42.0153 19.9563C42.0153 15.5507 41.9688 15.544 41.9688 11.1384C41.9688 6.73281 42.0352 6.72616 42.0352 2.32056C42.0352 2.30727 41.9887 2.24746 42.002 2.24082C42.9655 1.89528 42.9788 1.94179 43.9423 1.59626C43.9622 1.58961 43.929 1.61619 43.9357 1.63613C44.1572 4.49346 44.3764 7.35079 44.5935 10.2081C44.9258 14.5008 44.9523 14.4941 45.2846 18.7868C45.6168 23.0794 45.7165 23.0661 46.0488 27.3588C46.0488 27.3721 46.0022 27.4518 45.9889 27.4518Z" fill="#D5E1E6"/>
    <path d="M43.9154 1.60941C43.2819 1.83534 42.6462 2.06348 42.0082 2.29384C42.0082 2.29384 41.9883 2.29384 41.9817 2.29384C41.3526 1.94387 40.7258 1.59391 40.1011 1.24394C40.1011 1.24394 40.0812 1.17749 40.1011 1.17084C41.0514 0.831951 41.058 0.845241 42.0149 0.506348C42.0215 0.506348 42.0282 0.506348 42.0415 0.506348C42.6705 0.856315 43.2974 1.2085 43.922 1.5629C43.922 1.5629 43.9419 1.60941 43.922 1.61606L43.9154 1.60941Z" fill="#EAF0F3"/>
    <path d="M41.942 28.7605C40.0017 27.6773 39.9618 27.7438 38.0215 26.6607C38.0082 26.6607 37.9883 26.6008 37.9883 26.5876C38.3205 22.368 38.367 22.368 38.6993 18.1485C39.0315 13.9289 39.0116 13.9223 39.3505 9.70271C39.6894 5.48317 39.7226 5.48317 40.0549 1.25697C40.0549 1.23039 40.0748 1.19052 40.0947 1.20381C41.045 1.73541 40.9984 1.81515 41.942 2.34674C41.9553 2.34674 41.9686 2.30687 41.9686 2.31352C41.9686 6.71913 42.0151 6.71913 42.0151 11.1247C42.0151 15.5303 41.9553 15.5303 41.9553 19.9426C41.9553 24.3549 42.0284 24.3482 42.0284 28.7605C42.0284 28.787 41.9686 28.7737 41.9487 28.7605H41.942Z" fill="#ABBBC1"/>
    <path d="M82.7953 65.9796C79.9867 66.8966 77.1759 67.8114 74.3629 68.724C70.15 70.0995 70.1367 70.0596 65.9238 71.4352C61.7109 72.8107 61.7375 72.917 57.5246 74.2858C53.3117 75.6547 53.3117 75.6813 49.0988 77.0568C47.8229 77.4754 46.5006 76.4388 46.5006 75.0965C46.5006 71.3222 46.4674 71.3222 46.4674 67.5478C46.4674 63.7735 46.5537 63.7735 46.5537 59.9992C46.5537 56.2248 46.4474 56.2248 46.4474 52.4505C46.4474 48.6762 46.5404 48.6762 46.5404 44.8952C46.5404 41.1208 46.3677 41.1208 46.3677 37.3399C46.3677 36.4893 47.0388 35.7318 47.8495 35.466C52.0624 34.0905 52.0757 34.1171 56.2886 32.7415C60.5015 31.366 60.4683 31.2664 64.6878 29.8909C68.9074 28.5154 68.9207 28.5752 73.1402 27.1997C77.3598 25.8241 77.3465 25.7843 81.5594 24.4088C82.8352 23.9901 84.2506 25.0002 84.2506 26.3425C84.2506 30.1168 84.0579 30.1168 84.0579 33.8911C84.0579 37.6655 84.1841 37.6655 84.1841 41.4398C84.1841 45.2141 84.1974 45.2141 84.1974 48.9885C84.1974 52.7628 84.038 52.7628 84.038 56.5438C84.038 59.06 84.038 61.5785 84.038 64.0991C84.038 64.9497 83.626 65.7205 82.8086 65.9863L82.7953 65.9796Z" fill="#FCBA44"/>
    <path d="M67.7513 60.8831C66.1831 61.3925 64.6171 61.9064 63.0534 62.4247C62.8739 62.4845 62.7012 62.3582 62.7012 62.1722C62.7012 60.3049 62.7078 60.3049 62.7078 58.4377C62.7078 58.3181 62.7743 58.2184 62.8872 58.1852C65.2395 57.421 65.2329 57.4011 67.5852 56.6303C67.7646 56.5705 67.964 56.7167 67.964 56.9027C67.964 58.1475 67.964 59.3924 67.964 60.6372C67.964 60.7568 67.871 60.8498 67.758 60.8831H67.7513Z" fill="white"/>
    <path d="M67.7514 53.0885C65.3991 53.8527 65.3991 53.846 63.0468 54.6102C62.8674 54.67 62.688 54.5637 62.688 54.3776C62.688 50.9821 62.7079 50.9821 62.7079 47.5865C62.7079 44.1909 62.7079 44.1909 62.7079 40.7953C62.7079 40.6757 62.7744 40.5628 62.8873 40.5229C65.2397 39.7587 65.233 39.7388 67.5853 38.968C67.7647 38.9082 67.984 39.0743 67.984 39.2603C67.984 42.6559 67.9774 42.6559 67.9774 46.0515C67.9774 49.4471 67.9707 49.4471 67.9707 52.8426C67.9707 52.9622 67.8777 53.0486 67.7647 53.0885H67.7514Z" fill="white"/>
    <path d="M47.9886 85.3033V85.2966C47.2443 85.5425 46.4868 84.991 46.4868 84.2069C46.4868 84.0939 46.4868 84.0939 46.4868 83.9876C46.4868 83.4892 46.8124 83.0506 47.2842 82.8978V82.8912C48.0284 82.6453 48.786 83.2035 48.786 83.9876C48.786 84.1005 48.7926 84.1005 48.7926 84.2069C48.7926 84.7052 48.4737 85.1505 47.9952 85.3033H47.9886Z" fill="#ABBBC1"/>
    <path d="M51.5108 84.1534C50.7666 84.3993 50.0024 83.8411 50.0024 83.057C50.0024 82.944 50.0024 82.944 50.0024 82.8377C50.0024 82.3393 50.3214 81.8941 50.7998 81.7413C51.5441 81.4954 52.3149 82.0602 52.3149 82.8443C52.3149 82.9573 52.3082 82.9573 52.3082 83.0636C52.3082 83.562 51.9893 84.0006 51.5175 84.1534H51.5108Z" fill="#ABBBC1"/>
    <path d="M55.0323 83.0039C54.2881 83.2497 53.5239 82.6982 53.5239 81.9141C53.5239 81.8011 53.5239 81.8011 53.5239 81.6948C53.5239 81.1964 53.8495 80.7579 54.3213 80.605C55.0656 80.3592 55.8297 80.9173 55.8297 81.7014C55.8297 81.8144 55.8364 81.8144 55.8364 81.9207C55.8364 82.4191 55.5108 82.8643 55.039 83.0171L55.0323 83.0039Z" fill="#ABBBC1"/>
    <path d="M58.5543 81.8609C57.8101 82.1068 57.0459 81.5486 57.0459 80.7645C57.0459 80.6515 57.0459 80.6515 57.0459 80.5452C57.0459 80.0469 57.3582 79.6016 57.8367 79.4488C58.5809 79.2029 59.3517 79.7678 59.3517 80.5519C59.3517 80.6648 59.3517 80.6648 59.3517 80.7712C59.3517 81.2695 59.0261 81.7147 58.5543 81.8676V81.8609Z" fill="#ABBBC1"/>
    <path d="M62.0829 80.7178C61.3387 80.9637 60.5679 80.4055 60.5679 79.6214C60.5679 79.5085 60.5745 79.5085 60.5745 79.4021C60.5745 78.9038 60.8935 78.4585 61.3653 78.3057C62.1095 78.0599 62.867 78.618 62.867 79.4021C62.867 79.5151 62.867 79.5151 62.867 79.6214C62.867 80.1198 62.5481 80.565 62.0763 80.7245L62.0829 80.7178Z" fill="#ABBBC1"/>
    <path d="M65.5981 79.5552C64.8538 79.8011 64.083 79.2429 64.083 78.4588C64.083 78.3459 64.083 78.3459 64.083 78.2395C64.083 77.7412 64.402 77.296 64.8738 77.1431C65.618 76.8973 66.3822 77.4554 66.3822 78.2395C66.3822 78.3525 66.3822 78.3525 66.3822 78.4588C66.3822 78.9572 66.0566 79.3958 65.5848 79.5486L65.5981 79.5552Z" fill="#ABBBC1"/>
    <path d="M47.9889 89.4363C47.2446 89.6821 46.4805 89.124 46.4805 88.3399C46.4805 88.2269 46.4805 88.2269 46.4805 88.1206C46.4805 87.6222 46.7994 87.177 47.2712 87.0242V87.0308C48.0155 86.7849 48.773 87.3365 48.773 88.1206C48.773 88.2335 48.773 88.2335 48.773 88.3399C48.773 88.8382 48.454 89.2768 47.9822 89.4296L47.9889 89.4363Z" fill="#ABBBC1"/>
    <path d="M51.5108 88.2867C50.7666 88.5326 50.0024 87.9744 50.0024 87.1903C50.0024 87.0773 50.0024 87.0773 50.0024 86.971C50.0024 86.4726 50.3214 86.0341 50.7998 85.8812V85.8746C51.5441 85.6287 52.3082 86.1935 52.3082 86.9777C52.3082 87.0906 52.3082 87.0906 52.3082 87.1969C52.3082 87.6953 51.9826 88.1339 51.5108 88.2933V88.2867Z" fill="#ABBBC1"/>
    <path d="M55.0323 87.1374V87.1441C54.2881 87.39 53.5239 86.8251 53.5239 86.041C53.5239 85.9281 53.5239 85.9281 53.5239 85.8217C53.5239 85.3234 53.8429 84.8782 54.3213 84.7253V84.732C55.0656 84.4861 55.8297 85.0376 55.8297 85.8217C55.8297 85.9347 55.8297 85.9347 55.8297 86.041C55.8297 86.5394 55.5041 86.978 55.0323 87.1308V87.1374Z" fill="#ABBBC1"/>
    <path d="M58.5543 85.9876C57.8101 86.2334 57.0459 85.6752 57.0459 84.8911C57.0459 84.7782 57.0459 84.7782 57.0459 84.6719C57.0459 84.1735 57.3715 83.7349 57.8433 83.5821C58.5875 83.3362 59.3451 83.8944 59.3451 84.6785C59.3451 84.7915 59.3517 84.7915 59.3517 84.8978C59.3517 85.3962 59.0261 85.8347 58.5543 85.9876Z" fill="#ABBBC1"/>
    <path d="M62.0765 84.8381C61.3322 85.084 60.5747 84.5258 60.5747 83.7484C60.5747 83.6354 60.5747 83.6354 60.5747 83.5291C60.5747 83.0307 60.9003 82.5855 61.3721 82.4327C62.1163 82.1868 62.8872 82.745 62.8872 83.5291C62.8872 83.6044 62.8872 83.6775 62.8872 83.7484C62.8872 84.2467 62.5616 84.6853 62.0831 84.8381H62.0765Z" fill="#ABBBC1"/>
    <path d="M65.598 83.6954C64.8537 83.9412 64.0962 83.3831 64.0962 82.599C64.0962 82.486 64.0962 82.486 64.0962 82.3797C64.0962 81.8813 64.4152 81.4427 64.8869 81.2833C65.6312 81.0374 66.3887 81.5956 66.3887 82.3797C66.3887 82.4926 66.3887 82.4926 66.3887 82.599C66.3887 83.0973 66.0697 83.5425 65.598 83.6954Z" fill="#ABBBC1"/>
    <path d="M47.9889 93.5694C47.2446 93.8153 46.4805 93.2571 46.4805 92.473C46.4805 92.36 46.4805 92.36 46.4805 92.2537C46.4805 91.7553 46.7994 91.3101 47.2779 91.1573C48.0221 90.9114 48.7796 91.4696 48.7796 92.2537C48.7796 92.3667 48.7929 92.3667 48.7929 92.473C48.7929 92.9714 48.4673 93.4099 47.9889 93.5628V93.5694Z" fill="#ABBBC1"/>
    <path d="M51.5107 92.4265V92.4199C50.7664 92.6657 49.9956 92.1076 49.9956 91.3301C49.9956 91.2171 50.0023 91.2171 50.0023 91.1108C50.0023 90.6124 50.3212 90.1739 50.793 90.021C51.5372 89.7752 52.3014 90.3334 52.3014 91.1175C52.3014 91.2304 52.3014 91.2304 52.3014 91.3367C52.3014 91.8351 51.9824 92.2803 51.5107 92.4398V92.4265Z" fill="#ABBBC1"/>
    <path d="M55.0323 91.2704V91.2771C54.2881 91.523 53.5239 90.9648 53.5239 90.1807C53.5239 90.0677 53.5239 90.0677 53.5239 89.9614C53.5239 89.463 53.8429 89.0178 54.3213 88.8583V88.8716C55.0656 88.6258 55.8297 89.1773 55.8297 89.9614C55.8297 90.0744 55.8297 90.0744 55.8297 90.1807C55.8297 90.679 55.5041 91.1176 55.0323 91.2704Z" fill="#ABBBC1"/>
    <path d="M58.5546 90.1273C57.8104 90.3732 57.0396 89.8084 57.0396 89.0242C57.0396 88.9113 57.0396 88.9113 57.0396 88.805C57.0396 88.3066 57.3585 87.868 57.8369 87.7085C58.5812 87.4627 59.352 88.0209 59.352 88.805C59.352 88.9179 59.352 88.9179 59.352 89.0242C59.352 89.5226 59.033 89.9678 58.5612 90.1207L58.5546 90.1273Z" fill="#ABBBC1"/>
    <path d="M62.0763 88.9775V88.9841C61.332 89.23 60.5679 88.6652 60.5679 87.8877C60.5679 87.7747 60.5679 87.7747 60.5679 87.6684C60.5679 87.17 60.8868 86.7248 61.3586 86.572V86.5786C62.1029 86.3328 62.8604 86.8843 62.8604 87.6684C62.8604 87.7814 62.8604 87.7814 62.8604 87.8877C62.8604 88.3861 62.5414 88.8246 62.0696 88.9775H62.0763Z" fill="#ABBBC1"/>
    <path d="M65.5978 87.8281C64.8535 88.0739 64.0894 87.5224 64.0894 86.7383C64.0894 86.6253 64.0894 86.6253 64.0894 86.519C64.0894 86.0206 64.4083 85.5821 64.8868 85.4292C65.631 85.1834 66.3885 85.7349 66.3885 86.519C66.3885 86.632 66.3952 86.632 66.3952 86.7383C66.3952 87.2367 66.0762 87.6819 65.5978 87.8347V87.8281Z" fill="#ABBBC1"/>
    <path d="M69.08 78.3059C68.3358 78.5518 67.5649 78.0002 67.5649 77.2161C67.5649 77.1032 67.5782 77.1032 67.5782 76.9969C67.5782 76.4985 67.8972 76.0599 68.369 75.9071V75.9004C69.1132 75.6546 69.8774 76.2128 69.8774 76.9969C69.8774 77.1098 69.8774 77.1098 69.8774 77.2161C69.8774 77.7145 69.5584 78.1597 69.08 78.3126V78.3059Z" fill="#ABBBC1"/>
    <path d="M72.6082 77.1563C71.864 77.4022 71.1064 76.844 71.1064 76.0599C71.1064 75.9469 71.1064 75.9469 71.1064 75.8406C71.1064 75.3422 71.4254 74.897 71.8972 74.7442C72.6414 74.4983 73.4122 75.0565 73.4122 75.8406C73.4122 75.9536 73.4122 75.9536 73.4122 76.0599C73.4122 76.5583 73.0866 77.0035 72.6148 77.1563H72.6082Z" fill="#ABBBC1"/>
    <path d="M76.1234 76.0069C75.3792 76.2528 74.615 75.6946 74.615 74.9105C74.615 74.7975 74.6084 74.7975 74.6084 74.6912C74.6084 74.1928 74.934 73.7476 75.4058 73.5948C76.15 73.3489 76.9142 73.9071 76.9142 74.6912C76.9142 74.8042 76.9142 74.8042 76.9142 74.9105C76.9142 75.4089 76.5886 75.8474 76.1102 76.0069H76.1234Z" fill="#ABBBC1"/>
    <path d="M79.652 74.864C78.9077 75.1099 78.1436 74.5584 78.1436 73.7743C78.1436 73.6613 78.1502 73.6613 78.1502 73.555C78.1502 73.0566 78.4692 72.6181 78.9409 72.4652V72.4586C79.6852 72.2127 80.4494 72.7775 80.4494 73.5616C80.4494 73.6746 80.4494 73.6746 80.4494 73.7809C80.4494 74.2793 80.1238 74.7245 79.652 74.8773V74.864Z" fill="#ABBBC1"/>
    <path d="M83.1739 73.7076C82.4297 73.9534 81.6655 73.3953 81.6655 72.6112C81.6655 72.4982 81.6655 72.4982 81.6655 72.3919C81.6655 71.8935 81.9845 71.4483 82.4563 71.2955C83.2005 71.0496 83.9647 71.6078 83.9647 72.3919C83.9647 72.5048 83.9647 72.5048 83.9647 72.6112C83.9647 73.1095 83.6457 73.5481 83.1739 73.7076Z" fill="#ABBBC1"/>
    <path d="M69.0863 82.4457C68.3421 82.6915 67.5713 82.1267 67.5713 81.3426C67.5713 81.2296 67.5713 81.2296 67.5713 81.1233C67.5713 80.6249 67.8969 80.1797 68.3687 80.0269C69.1129 79.781 69.8771 80.3326 69.8771 81.1167C69.8771 81.2296 69.8771 81.2296 69.8771 81.3359C69.8771 81.8343 69.5581 82.2795 69.0863 82.4324V82.4457Z" fill="#ABBBC1"/>
    <path d="M72.6017 81.2895C71.8574 81.5354 71.0999 80.9838 71.0999 80.1997C71.0999 80.0868 71.0933 80.0868 71.0933 79.9804C71.0933 79.4821 71.4189 79.0435 71.8907 78.8907C72.6349 78.6448 73.4057 79.203 73.4057 79.9871C73.4057 80.1001 73.4057 80.1001 73.4057 80.2064C73.4057 80.7047 73.0801 81.1433 72.6083 81.2961L72.6017 81.2895Z" fill="#ABBBC1"/>
    <path d="M76.1234 80.1399V80.1465C75.3792 80.3924 74.6084 79.8342 74.6084 79.0501C74.6084 78.9371 74.6084 78.9371 74.6084 78.8308C74.6084 78.3325 74.9274 77.8872 75.3992 77.7278V77.7344C76.1434 77.4885 76.9076 78.0401 76.9076 78.8242C76.9076 78.9371 76.9076 78.9371 76.9076 79.0435C76.9076 79.5418 76.582 79.9804 76.1102 80.1332L76.1234 80.1399Z" fill="#ABBBC1"/>
    <path d="M79.6523 78.9971C78.908 79.243 78.1372 78.6782 78.1372 77.8941C78.1372 77.7811 78.1372 77.7811 78.1372 77.6748C78.1372 77.1764 78.4628 76.7378 78.9346 76.585C79.6788 76.3391 80.4497 76.8907 80.4497 77.6748C80.4497 77.7877 80.443 77.7877 80.443 77.8941C80.443 78.3924 80.1307 78.8376 79.6523 78.9905V78.9971Z" fill="#ABBBC1"/>
    <path d="M83.1737 77.8471C82.4295 78.093 81.6587 77.5281 81.6587 76.744C81.6587 76.6311 81.6587 76.6311 81.6587 76.5247C81.6587 76.0264 81.9843 75.5812 82.4561 75.4283C83.2003 75.1825 83.9645 75.7473 83.9645 76.5247C83.9645 76.6377 83.9645 76.6377 83.9645 76.744C83.9645 77.2424 83.6389 77.6876 83.1671 77.8404L83.1737 77.8471Z" fill="#ABBBC1"/>
    <path d="M69.0797 86.5721C68.3355 86.8179 67.5713 86.2598 67.5713 85.4823C67.5713 85.3693 67.5713 85.3693 67.5713 85.263C67.5713 84.7646 67.8903 84.3194 68.3687 84.1666C69.1129 83.9207 69.8837 84.4856 69.8837 85.263C69.8837 85.376 69.8704 85.376 69.8704 85.4823C69.8704 85.9807 69.5581 86.4192 69.0797 86.5787V86.5721Z" fill="#ABBBC1"/>
    <path d="M72.6083 85.4293C71.8641 85.6751 71.0933 85.1103 71.0933 84.3262C71.0933 84.2132 71.0933 84.2132 71.0933 84.1069C71.0933 83.6085 71.4122 83.17 71.8907 83.0171C72.6349 82.7713 73.3991 83.3295 73.3991 84.1136C73.3991 84.2265 73.4057 84.2265 73.4057 84.3328C73.4057 84.8312 73.0801 85.2764 72.6083 85.4293Z" fill="#ABBBC1"/>
    <path d="M76.13 84.2798C75.3858 84.5257 74.6216 83.9675 74.6216 83.1834C74.6216 83.0705 74.6216 83.0705 74.6216 82.9641C74.6216 82.4658 74.9405 82.0272 75.4123 81.8677C76.1566 81.6219 76.9274 82.18 76.9274 82.9641C76.9274 83.0771 76.9207 83.0771 76.9207 83.1834C76.9207 83.6818 76.6084 84.127 76.13 84.2798Z" fill="#ABBBC1"/>
    <path d="M79.652 83.1303C78.9077 83.3762 78.1436 82.818 78.1436 82.0406C78.1436 81.9276 78.1436 81.9276 78.1436 81.8213C78.1436 81.3229 78.4692 80.8843 78.9409 80.7315C79.6852 80.4856 80.4494 81.0438 80.4494 81.8279C80.4494 81.9409 80.4494 81.9409 80.4494 82.0472C80.4494 82.5456 80.1304 82.9908 79.6586 83.1436L79.652 83.1303Z" fill="#ABBBC1"/>
    <path d="M83.1736 81.9809C82.4294 82.2267 81.6719 81.6619 81.6719 80.8778C81.6719 80.7648 81.6719 80.7648 81.6719 80.6585C81.6719 80.1602 81.9908 79.7216 82.4626 79.5621C83.2069 79.3162 83.971 79.8811 83.971 80.6585C83.971 80.7715 83.971 80.7715 83.971 80.8778C83.971 81.3762 83.6521 81.8214 83.1736 81.9742V81.9809Z" fill="#ABBBC1"/>
    <path d="M88.2707 85.2698C84.4499 86.5125 84.4034 86.3663 80.5825 87.6089C76.7617 88.8515 76.775 88.898 72.9541 90.1406C69.1333 91.3832 69.1798 91.536 65.3589 92.7853C61.5381 94.0346 61.5048 93.9282 57.684 95.1708C53.8631 96.4134 53.8831 96.4732 50.0556 97.7225C46.2281 98.9718 46.2015 98.8787 42.3806 100.128M42.3806 100.128C42.3607 100.135 42.3806 100.155 42.3806 100.128ZM42.3806 100.128C42.3806 95.6559 42.4072 95.6559 42.4072 91.1839C42.4072 86.7118 42.2544 86.7118 42.2544 82.2397" stroke="#80949C" stroke-width="0.888897" stroke-linecap="round" stroke-linejoin="round"/>
    <path d="M82.8152 66.0327C78.6023 67.4082 78.5491 67.262 74.3362 68.6375C70.1233 70.013 70.1233 70.0263 65.9104 71.4018C61.6975 72.7773 61.7241 72.877 57.5112 74.2525C53.2983 75.628 53.285 75.6081 49.0721 76.9836C47.7963 77.4022 46.4872 76.4321 46.4872 75.0964C46.4872 71.5082 46.4673 71.5082 46.4673 67.9265" stroke="#FFF3E2" stroke-width="0.888897" stroke-linecap="round" stroke-linejoin="round"/>
    <path d="M47.8364 35.439C52.0493 34.0635 52.0826 34.1698 56.3021 32.7943C60.5217 31.4188 60.5084 31.3989 64.7213 30.0234C68.9342 28.6479 68.9342 28.6279 73.1471 27.2524C77.36 25.8769 77.34 25.8105 81.5596 24.4349C82.8354 24.0163 84.2309 24.9998 84.2309 26.342C84.2309 28.9602 84.2176 28.9602 84.2176 31.5783" stroke="#F9A619" stroke-width="0.888897" stroke-linecap="round" stroke-linejoin="round"/>
  </g>
  <defs>
    <clipPath id="clip0_4032_107537">
      <rect width="118" height="100" fill="white" transform="translate(0.5 0.5)"/>
    </clipPath>
  </defs>
</svg>