<svg xmlns="http://www.w3.org/2000/svg" width="360" height="255" fill="none" viewBox="0 0 360 255"><path fill="#27A092" d="M129.726 8.46129C107.827 9.93969 106.58 39.5077 65.9702 62.0533C32.9372 80.3947 16.4438 70.4155 6.14119 84.0907C-20.5624 119.572 44.0252 248.239 118.638 254.245C154.859 257.156 162.343 228.65 235.062 210.817C293.875 196.403 309.999 209.893 331.158 192.337C380.731 151.219 358.555 22.1827 321.225 12.9427C289.255 4.9963 261.396 88.9417 214.965 82.2427C173.94 76.3291 163.683 6.15129 129.726 8.46129Z" opacity=".28"/><path fill="#5ED3DA" d="M231.782 51.5658C233.63 63.7626 231.782 82.5198 245.134 92.499C257.839 101.97 268.326 99.6138 268.326 99.6138C269.574 95.0862 285.651 50.8266 231.782 51.5658Z"/><path fill="#32FD99" d="M303.992 54.43C292.581 59.05 273.87 61.6372 267.31 76.9756C265.092 82.15 264.26 86.7238 264.122 90.466C260.934 97.5346 257.885 103.31 254.928 108.022C245.411 123.129 237.233 127.056 230.858 127.241C217.876 127.611 213.302 112.272 180.962 84.7372C158.971 65.98 146.173 55.4002 126.446 52.3972C100.297 48.424 79.8763 60.6208 76.9195 62.4688C71.2369 65.98 54.9744 75.9592 48.8298 94.9012C36.6792 132.416 74.1013 167.25 78.3055 171.039C96.2773 187.301 115.958 192.014 126.815 194.601C133.838 196.264 158.601 201.577 189.278 193.954C206.926 189.565 240.56 181.203 260.426 149.417C270.821 132.785 273.87 115.46 274.101 101.369C288.377 100.815 314.341 95.0398 303.992 54.43Z"/><g opacity=".15"><g opacity=".15"><g opacity=".15"><path fill="#515151" d="M303.993 54.4302C302.468 55.077 300.759 55.6314 299.003 56.232C307.227 93.654 282.371 99.2904 268.511 99.8448C268.372 113.936 265.416 131.261 255.159 147.939C235.524 179.863 201.891 188.41 184.288 192.938C164.284 198.02 146.774 197.604 135.085 196.264C146.404 198.112 166.178 199.683 189.278 193.954C206.926 189.565 240.56 181.203 260.426 149.417C270.821 132.785 273.87 115.46 274.101 101.369C288.377 100.815 314.341 95.04 303.993 54.4302Z" opacity=".15"/></g></g></g><path fill="#515151" d="M62.6899 110.194C65.4966 110.194 67.7719 107.587 67.7719 104.372C67.7719 101.158 65.4966 98.5513 62.6899 98.5513C59.8832 98.5513 57.6079 101.158 57.6079 104.372C57.6079 107.587 59.8832 110.194 62.6899 110.194Z" opacity=".2"/><path fill="#515151" d="M98.3565 104.419C101.214 104.419 103.531 101.75 103.531 98.4588C103.531 95.1673 101.214 92.499 98.3565 92.499C95.4988 92.499 93.1821 95.1673 93.1821 98.4588C93.1821 101.75 95.4988 104.419 98.3565 104.419Z" opacity=".2"/><g opacity=".16"><g opacity=".16"><g opacity=".16"><path fill="#515151" d="M70.6826 71.4316C73.1774 69.907 94.0136 58.0798 120.209 61.36C143.632 64.3168 159.248 77.8534 174.402 91.0204C203.461 116.246 218.384 134.679 231.782 132C238.065 130.752 242.085 127.472 248.691 117.031C249.015 116.523 249.338 116.015 249.615 115.506C242.362 124.515 235.986 127.103 230.858 127.241C217.876 127.611 213.302 112.272 180.962 84.7372C158.971 65.98 146.173 55.4002 126.446 52.3972C100.297 48.424 79.8764 60.6208 76.9196 62.4688C72.1148 65.4256 59.8718 72.9562 52.4336 86.539C59.2712 78.5002 67.079 73.6954 70.6826 71.4316Z" opacity=".16"/></g></g></g><path fill="#A6FFD0" d="M189.278 193.908C202.815 190.535 225.73 184.853 244.672 168.036C207.435 183.929 183.133 181.111 167.102 174.319C129.079 158.149 118.684 111.164 86.714 112.411C78.2132 112.734 66.9404 116.292 61.766 125.347C55.4828 136.389 61.4888 149.602 62.459 151.681C65.5544 156.763 70.6364 163.924 78.3056 170.993C95.7692 187.07 114.942 191.737 126.816 194.555C133.838 196.264 158.601 201.531 189.278 193.908Z"/><path stroke="#022266" stroke-linecap="round" stroke-linejoin="round" stroke-miterlimit="10" stroke-width="6" d="M85.1431 112.411C85.1431 112.411 106.857 164.155 166.686 176.629" opacity=".12"/><path fill="#515151" d="M193.067 189.38C162.39 197.003 137.627 191.737 130.604 190.027C118.731 187.163 99.5578 182.543 82.0942 166.465C74.425 159.397 69.343 152.236 66.2476 147.154C65.2774 145.075 59.2714 131.861 65.5546 120.82C65.647 120.635 65.7856 120.45 65.9242 120.219C64.3072 121.697 62.9212 123.407 61.8124 125.347C55.5292 136.389 61.5352 149.602 62.5054 151.681C65.6008 156.763 70.6828 163.924 78.352 170.993C95.8156 187.07 114.989 191.737 126.862 194.555C133.884 196.218 158.648 201.531 189.324 193.908C202.861 190.535 225.776 184.853 244.718 168.036C243.332 168.637 241.946 169.191 240.56 169.745C223.42 181.804 204.709 186.47 193.067 189.38Z" opacity=".08"/><path stroke="#022266" stroke-linecap="round" stroke-linejoin="round" stroke-miterlimit="10" stroke-width="6" d="M62.6899 126.179C62.6899 126.179 71.5141 160.09 108.474 179.17C135.732 193.261 179.299 200.746 233.63 175.243" opacity=".12"/><path stroke="#022266" stroke-linecap="round" stroke-linejoin="round" stroke-miterlimit="10" stroke-width="6" d="M69.7124 117.354C69.7124 117.354 99.9272 210.817 226.007 175.936" opacity=".12"/><path stroke="#5ED3DA" stroke-linecap="round" stroke-linejoin="round" stroke-miterlimit="10" stroke-width="6" d="M189.278 193.908C202.815 190.535 225.73 184.853 244.672 168.036C207.435 183.929 183.133 181.111 167.102 174.319C129.079 158.149 118.684 111.164 86.714 112.411C78.2132 112.734 66.9404 116.292 61.766 125.347C55.4828 136.389 61.4888 149.602 62.459 151.681C65.5544 156.763 70.6364 163.924 78.3056 170.993C95.7692 187.07 114.942 191.737 126.816 194.555C133.838 196.264 158.601 201.531 189.278 193.908Z"/><path fill="#022266" d="M61.2579 109.454C63.5798 109.454 65.4621 107.014 65.4621 104.003C65.4621 100.992 63.5798 98.5513 61.2579 98.5513C58.936 98.5513 57.0537 100.992 57.0537 104.003C57.0537 107.014 58.936 109.454 61.2579 109.454Z"/><path fill="#fff" d="M60.6109 103.402C61.4019 103.402 62.0431 102.554 62.0431 101.508C62.0431 100.462 61.4019 99.6138 60.6109 99.6138C59.8199 99.6138 59.1787 100.462 59.1787 101.508C59.1787 102.554 59.8199 103.402 60.6109 103.402Z"/><path fill="#022266" d="M96.7394 103.448C99.0613 103.448 100.944 101.008 100.944 97.9968C100.944 94.9859 99.0613 92.5452 96.7394 92.5452C94.4174 92.5452 92.5352 94.9859 92.5352 97.9968C92.5352 101.008 94.4174 103.448 96.7394 103.448Z"/><path fill="#fff" d="M96.1848 97.9967C97.0268 97.9967 97.7094 97.0038 97.7094 95.7791C97.7094 94.5544 97.0268 93.5615 96.1848 93.5615C95.3427 93.5615 94.6602 94.5544 94.6602 95.7791C94.6602 97.0038 95.3427 97.9967 96.1848 97.9967Z"/><path fill="#fff" d="M96.9243 101.831C97.3325 101.831 97.6635 101.335 97.6635 100.723C97.6635 100.11 97.3325 99.6138 96.9243 99.6138C96.516 99.6138 96.1851 100.11 96.1851 100.723C96.1851 101.335 96.516 101.831 96.9243 101.831Z"/><path fill="#fff" d="M62.0434 107.329C62.4517 107.329 62.7826 106.833 62.7826 106.22C62.7826 105.608 62.4517 105.112 62.0434 105.112C61.6352 105.112 61.3042 105.608 61.3042 106.22C61.3042 106.833 61.6352 107.329 62.0434 107.329Z"/><path stroke="#32BE83" stroke-linecap="round" stroke-linejoin="round" stroke-miterlimit="10" stroke-width="3" d="M303.992 54.43C292.581 59.05 273.87 61.6372 267.31 76.9756C265.092 82.15 264.26 86.7238 264.122 90.466C260.934 97.5346 257.885 103.31 254.928 108.022C245.411 123.129 237.233 127.056 230.858 127.241C217.876 127.611 213.302 112.272 180.962 84.7372C158.971 65.98 146.173 55.4002 126.446 52.3972C100.297 48.424 79.8763 60.6208 76.9195 62.4688C71.2369 65.98 54.9744 75.9592 48.8298 94.9012C36.6792 132.416 74.1013 167.25 78.3055 171.039C96.2773 187.301 115.958 192.014 126.815 194.601C133.838 196.264 158.601 201.577 189.278 193.954C206.926 189.565 240.56 181.203 260.426 149.417C270.821 132.785 273.87 115.46 274.101 101.369C288.377 100.815 314.341 95.0398 303.992 54.43Z"/><path fill="#32FD99" d="M176.342 151.219C176.342 151.219 202.352 181.203 182.81 216.823C170.798 228.835 160.264 190.951 160.264 178.939C160.264 166.927 164.33 160.136 164.33 160.136"/><path fill="#515151" d="M176.342 151.219L175.742 151.635C182.163 162.631 191.034 184.899 177.266 210.032C174.448 212.85 171.722 212.942 169.181 211.233C173.016 218.117 177.821 221.859 182.81 216.823C202.353 181.203 176.342 151.219 176.342 151.219Z" opacity=".2"/><path stroke="#378F95" stroke-linecap="round" stroke-linejoin="round" stroke-miterlimit="10" stroke-width="6" d="M176.342 151.219C176.342 151.219 202.352 181.203 182.81 216.823C170.798 228.835 160.264 190.951 160.264 178.939C160.264 166.927 164.33 160.136 164.33 160.136"/><path fill="#27A092" d="M215.52 3.8411C215.52 3.8411 196.578 0.145101 196.578 19.5491C196.578 38.9531 227.07 42.6491 235.386 34.3331C243.702 26.0171 258.347 11.7413 250.17 3.5639C241.992 -4.6135 215.52 3.8411 215.52 3.8411Z" opacity=".28"/><path fill="#27A092" d="M40.791 28.974C39.7284 28.8354 33.861 28.1424 31.5972 31.3302C28.779 35.2572 33.1218 42.7878 38.25 46.3452C41.715 48.7476 48.9222 51.6582 53.0802 47.8236C56.961 44.2662 56.0832 36.6894 52.11 32.4852C47.8596 28.0038 41.4378 28.8816 40.791 28.974Z" opacity=".28"/></svg>