<svg xmlns="http://www.w3.org/2000/svg" width="24" height="24" fill="none" viewBox="0 0 24 24"><path fill="#000" d="M20 10.474V13.5261C20 13.7558 19.8138 13.9423 19.5838 13.9423H13.9423V19.5838C13.9423 19.8139 13.7558 20 13.5261 20H10.474C10.2444 20 10.0578 19.8138 10.0578 19.5838V13.9423H4.41619C4.18625 13.9423 4 13.7558 4 13.5261V10.474C4 10.2442 4.18625 10.0578 4.41619 10.0578H10.0578V4.41619C10.0578 4.18616 10.2443 4 10.474 4H13.5261C13.7558 4 13.9423 4.18616 13.9423 4.41619V10.0578H19.5838C19.8139 10.0578 20 10.2442 20 10.474Z"/></svg>