<svg width="53" height="52" viewBox="0 0 53 52" fill="none" xmlns="http://www.w3.org/2000/svg">
<g clip-path="url(#clip0)">
<path d="M11.7954 42.0293L3.52979 42.3105L7.76694 38.0839L11.7958 42.0296L11.7954 42.0293Z" fill="#F15A24"/>
<path d="M49.2895 24.0654C47.7539 35.8129 36.8016 44.1127 24.8302 42.6043C12.8566 41.0974 4.39721 30.3521 5.93296 18.6055C7.46961 6.85816 18.4195 -1.4425 30.394 0.0660409C42.3669 1.57246 50.8283 12.3188 49.2897 24.0651" fill="#F15A24"/>
<path d="M33.1847 12.2389C34.6209 13.7369 33.2034 17.2786 33.2034 17.2786C33.2034 17.2786 31.8025 22.2858 23.781 28.7792L22.2837 27.3372L32.4663 17.1264L32.6631 16.8658C32.934 16.4326 33.1583 12.2098 33.1847 12.2389Z" fill="#999999"/>
<path d="M33.1847 12.2389C34.6209 13.7369 33.2034 17.2786 33.2034 17.2786C33.2034 17.2786 31.8025 22.2858 23.781 28.7792L22.2837 27.3372L32.4663 17.1264L32.6631 16.8658C32.934 16.4326 33.1583 12.2098 33.1847 12.2389V12.2389Z" stroke="white" stroke-width="0.23975" stroke-linecap="round" stroke-linejoin="round"/>
<path d="M20.0847 25.2145L33.1636 12.2021C33.8274 12.9755 33.9686 13.8087 33.776 14.996C33.6462 15.8183 32.1987 17.4616 32.1987 17.4616L22.2839 27.3374" fill="#666666"/>
<path d="M20.0847 25.2145L33.1636 12.2021C33.8274 12.9755 33.9686 13.8087 33.776 14.996C33.6462 15.8183 32.1987 17.4616 32.1987 17.4616L22.2839 27.3374" stroke="white" stroke-width="0.150125" stroke-linecap="round" stroke-linejoin="round"/>
<path d="M33.1842 12.2478L20.0838 25.2146L20.1102 25.1894L20.1053 25.1913L16.855 22.049C23.6328 13.7771 28.0152 12.2349 28.0152 12.2349C28.0152 12.2349 30.8681 11.1422 32.9034 11.9901C33.0598 12.0723 33.1277 12.1196 33.1838 12.2481" fill="#FF931E"/>
<path d="M33.1842 12.2478L20.0838 25.2146L20.1102 25.1894L20.1053 25.1913L16.855 22.049C23.6328 13.7771 28.0152 12.2349 28.0152 12.2349C28.0152 12.2349 30.8681 11.1422 32.9034 11.9901C33.0598 12.0723 33.1277 12.1196 33.1838 12.2481L33.1842 12.2478V12.2478Z" stroke="white" stroke-width="0.23975" stroke-linecap="round" stroke-linejoin="round"/>
<path d="M23.7798 28.7788C20.6544 31.3042 16.6545 35.2715 11.2176 38.0385L12.4269 43.1108L7.30127 38.1575L20.083 25.2144" fill="#999999"/>
<path d="M23.7798 28.7788C20.6544 31.3042 16.6545 35.2715 11.2176 38.0385L12.4269 43.1108L7.30127 38.1575L20.083 25.2144" stroke="white" stroke-width="0.23975" stroke-linecap="round" stroke-linejoin="round"/>
<path d="M16.9429 22.0915L20.1181 25.1947L12.7827 26.7537L16.8727 22.0356L16.9433 22.0917L16.9429 22.0915Z" fill="#F15A24"/>
<path d="M16.9429 22.0915L20.1181 25.1947L12.7827 26.7537L16.8727 22.0356L16.9433 22.0917L16.9429 22.0915Z" stroke="white" stroke-width="0.23975" stroke-linecap="round" stroke-linejoin="round"/>
<path d="M31.935 8.48492C31.6235 11.2433 33.6476 13.7263 36.4588 14.0339C39.2679 14.3402 41.801 12.3527 42.1145 9.59542C42.4269 6.83812 40.3997 4.3524 37.5896 4.0459C34.778 3.74116 32.2468 5.72603 31.935 8.48492Z" fill="#999999"/>
<path d="M31.935 8.48492C31.6235 11.2433 33.6476 13.7263 36.4588 14.0339C39.2679 14.3402 41.801 12.3527 42.1145 9.59542C42.4269 6.83812 40.3997 4.3524 37.5896 4.0459C34.778 3.74116 32.2468 5.72603 31.935 8.48492V8.48492Z" stroke="white" stroke-width="0.23975" stroke-linecap="round" stroke-linejoin="round"/>
<path d="M41.3785 11.8166C42.3232 10.4624 42.2743 8.43642 42.0847 7.83629C41.8519 7.10124 41.3314 5.90609 40.4233 5.28479L35.6216 9.62417C35.6216 9.62417 39.3118 13.5144 39.4079 13.5272C39.4478 13.5318 40.517 13.0514 41.3785 11.8166Z" fill="#666666"/>
<path d="M41.3785 11.8166C42.3232 10.4624 42.2743 8.43642 42.0847 7.83629C41.8519 7.10124 41.3314 5.90609 40.4233 5.28479L35.6216 9.62417C35.6216 9.62417 39.3118 13.5144 39.4079 13.5272C39.4478 13.5318 40.517 13.0514 41.3785 11.8166V11.8166ZM40.4097 8.41737C40.4097 8.41737 40.8714 9.52964 40.2856 10.395L40.4097 8.41737Z" stroke="white" stroke-width="0.23975" stroke-linecap="round" stroke-linejoin="round"/>
<path d="M22.3969 27.339L17.0977 28.2643L20.2964 25.0035" fill="#666666"/>
<path d="M17.0654 22.1143L23.8023 28.335M22.396 27.3391L17.0967 28.2644L20.2955 25.0036L22.396 27.3391Z" stroke="white" stroke-width="0.23975" stroke-linecap="round" stroke-linejoin="round"/>
</g>
<defs>
<clipPath id="clip0">
<rect width="53" height="52" fill="white"/>
</clipPath>
</defs>
</svg>
