<svg xmlns="http://www.w3.org/2000/svg" width="24" height="24" fill="none" viewBox="0 0 24 24"><path fill="#ED0000" d="M23.8354 16.7369C23.8227 16.7367 23.8103 16.7333 23.7993 16.727C23.7883 16.7207 23.779 16.7117 23.7724 16.7009C23.7004 16.5839 16.5214 4.84487 12.3124 5.90087C12.2704 5.90087 8.73343 6.50087 6.95143 14.2499C6.94966 14.2594 6.94597 14.2685 6.94058 14.2766C6.9352 14.2847 6.92823 14.2916 6.9201 14.2969C6.91197 14.3023 6.90285 14.3059 6.89328 14.3076C6.88371 14.3093 6.8739 14.3091 6.86443 14.3069C6.84558 14.3032 6.82884 14.2925 6.81768 14.2768C6.80652 14.2612 6.80178 14.2419 6.80443 14.2229C6.81943 14.1329 8.23243 5.20487 11.4094 0.782874C11.4204 0.766847 11.4372 0.755702 11.4562 0.751785C11.4752 0.747868 11.495 0.751485 11.5114 0.761874C11.5804 0.809874 18.4444 5.48688 23.9044 16.6619C23.9127 16.679 23.9139 16.6987 23.9077 16.7167C23.9015 16.7347 23.8885 16.7495 23.8714 16.7579C23.8578 16.7541 23.8454 16.7469 23.8354 16.7369Z"/><path fill="#ED0000" d="M7.77641 1.50016C7.78299 1.51156 7.78646 1.52449 7.78646 1.53766C7.78646 1.55082 7.78299 1.56376 7.77641 1.57516C7.71041 1.69516 1.13141 13.7822 4.13741 16.9052C4.16441 16.9412 6.45641 19.7012 14.0374 17.3762C14.0465 17.3729 14.0561 17.3714 14.0657 17.3719C14.0753 17.3724 14.0848 17.3748 14.0934 17.379C14.1021 17.3832 14.1098 17.3891 14.1162 17.3963C14.1225 17.4036 14.1274 17.412 14.1304 17.4212C14.1373 17.4395 14.1368 17.4598 14.129 17.4777C14.1211 17.4957 14.1066 17.5098 14.0884 17.5172C14.0014 17.5502 5.56241 20.7902 0.144408 20.2502C0.125033 20.2479 0.107304 20.2382 0.0949826 20.223C0.0826606 20.2079 0.0767154 20.1886 0.0784081 20.1692C0.0964081 20.0792 0.714408 11.7962 7.65041 1.50016C7.66138 1.48413 7.67814 1.47299 7.69717 1.46907C7.71619 1.46515 7.736 1.46877 7.75241 1.47916C7.76216 1.48387 7.77045 1.49112 7.77641 1.50016Z"/><path fill="#ED0000" d="M2.59214 23.022C2.59852 23.0109 2.60771 23.0018 2.61878 22.9954C2.62985 22.9891 2.6424 22.9858 2.65514 22.986C2.79314 22.986 16.5481 22.635 17.7511 18.468C17.7511 18.429 19.0111 15.0629 13.2001 9.65095C13.193 9.64421 13.1873 9.63608 13.1833 9.62705C13.1794 9.61802 13.1774 9.60829 13.1774 9.59845C13.1774 9.58861 13.1794 9.57887 13.1833 9.56984C13.1873 9.56081 13.193 9.55268 13.2001 9.54595C13.2145 9.53288 13.2332 9.52563 13.2526 9.52563C13.2721 9.52563 13.2908 9.53288 13.3051 9.54595C13.3681 9.59995 20.4001 15.2819 22.6351 20.247C22.6434 20.2641 22.6446 20.2838 22.6384 20.3018C22.6323 20.3197 22.6192 20.3346 22.6021 20.343C22.5271 20.379 15.0451 23.988 2.64914 23.133C2.63969 23.1326 2.6304 23.1303 2.62181 23.1263C2.61322 23.1224 2.6055 23.1167 2.59909 23.1098C2.59268 23.1028 2.58771 23.0946 2.58446 23.0857C2.58121 23.0769 2.57974 23.0674 2.58014 23.058C2.58134 23.0452 2.58545 23.0329 2.59214 23.022Z"/></svg>