<svg width="53" height="57" viewBox="0 0 53 57" fill="none" xmlns="http://www.w3.org/2000/svg">
<path d="M40.2648 44.221C39.0188 44.7719 38.9851 44.6949 37.7416 45.2457C36.4981 45.7965 36.5077 45.8206 35.2618 46.369C34.0158 46.9174 34.0302 46.9486 32.7843 47.4971C31.5384 48.0455 31.4806 47.9156 30.2347 48.464C28.9888 49.0124 29.0176 49.0797 27.7717 49.6281C26.5257 50.1765 26.5113 50.1405 25.2654 50.6913C24.0194 51.2421 24.0603 51.3335 22.812 51.8819C21.5636 52.4303 21.5708 52.4423 20.3225 52.9931C20.3201 52.9931 18.3983 52.9378 18.3983 52.9354C17.0874 52.31 17.1451 52.1898 15.8366 51.5644C14.5281 50.939 14.5426 50.9054 13.2317 50.2824C11.9208 49.6594 11.904 49.6931 10.5931 49.0677C9.2822 48.4423 9.24612 48.5169 7.93524 47.8915C6.62435 47.2661 6.67727 47.1579 5.36638 46.5325C4.0555 45.9072 4.0098 46.001 2.69892 45.378C1.38803 44.755 1.38803 44.7526 0.0771484 44.1272C0.0771484 44.1272 0.120444 44.2066 0.120444 44.2042C1.41209 43.6342 1.36638 43.5283 2.65803 42.9583C3.94967 42.3882 3.9665 42.4243 5.25815 41.8542C6.54979 41.2842 6.52092 41.2192 7.81257 40.6492C9.10421 40.0791 9.1451 40.1681 10.4367 39.5981C11.7284 39.028 11.7452 39.0641 13.0369 38.494C14.3285 37.924 14.2828 37.8206 15.5768 37.2505C16.8709 36.6805 16.8565 36.6468 18.1481 36.0767C19.4397 35.5067 19.5095 35.6606 20.8035 35.0906C20.806 35.0906 20.7747 34.9919 20.7747 34.9968C22.1649 35.651 22.1577 35.663 23.548 36.3149C24.9382 36.9667 24.919 37.0052 26.3093 37.657C27.6995 38.3088 27.7091 38.2896 29.0994 38.9414C30.4897 39.5933 30.4824 39.6077 31.8727 40.2595C33.263 40.9114 33.3014 40.832 34.6917 41.4838C36.082 42.1357 36.0796 42.1405 37.4722 42.7947C38.8649 43.4489 38.8625 43.4514 40.2527 44.1056C40.2527 44.1056 40.2696 44.2162 40.2696 44.2186L40.2648 44.221Z" fill="#DBEAFE"/>
<path d="M18.2563 25.3682C18.2563 26.8859 18.2227 26.8859 18.2227 28.4012C18.2227 29.9166 18.2299 29.919 18.2299 31.4343C18.2299 32.952 18.2515 32.952 18.2515 34.4698C18.2515 35.9875 18.3381 35.9875 18.3381 37.5029C18.3381 39.0182 18.3092 39.0206 18.3092 40.5359C18.3092 42.0513 18.2708 42.0537 18.2708 43.5714C18.2708 45.0891 18.2227 45.0891 18.2227 46.6045C18.2227 48.1198 18.2395 48.1222 18.2395 49.64C18.2395 51.1577 18.3044 51.1577 18.3044 52.6754L18.2828 52.7019C19.4133 53.2335 19.4205 53.2214 20.551 53.753C21.6815 54.2846 21.6959 54.2557 22.8288 54.7873C23.9617 55.3189 23.9737 55.2924 25.1042 55.824L25.1571 55.8624C25.1571 54.8506 25.1571 53.8396 25.1571 52.8294C25.1571 51.3116 25.1427 51.3116 25.1427 49.7963C25.1427 48.2786 25.02 48.2786 25.02 46.7608C25.02 45.2431 25.0705 45.2431 25.0705 43.7278C25.0705 42.2124 25.0537 42.21 25.0537 40.6947C25.0537 39.1793 25.0826 39.1769 25.0826 37.6592C25.0826 36.1415 25.0128 36.1415 25.0128 34.6261C25.0128 33.1108 25.0946 33.1084 25.0946 31.5907C25.0946 30.0729 25.1619 30.0729 25.1619 28.5552H25.085C23.9545 28.0236 23.9376 28.0573 22.8071 27.5257C21.6767 26.9941 21.6983 26.9436 20.5654 26.4121C19.4325 25.8805 19.4253 25.8997 18.2924 25.3682H18.2563Z" fill="#FCBA44"/>
<path d="M49.1524 44.5845C47.8175 45.2171 47.8103 45.2002 46.4777 45.8328C45.1452 46.4654 45.1187 46.4101 43.7838 47.0427C42.4489 47.6753 42.4104 47.5911 41.0755 48.2213C39.7405 48.8515 39.7886 48.9501 38.4537 49.5827C37.1187 50.2153 37.1356 50.2465 35.8006 50.8791C34.4657 51.5117 34.4152 51.4011 33.0803 52.0337C31.7453 52.6663 31.7766 52.7288 30.4417 53.3614C29.1067 53.994 29.138 54.0613 27.8031 54.6915C26.4681 55.3217 26.396 55.1726 25.061 55.8052L25.037 55.8677C25.037 54.35 25.1789 54.35 25.1789 52.8346C25.1789 51.3193 25.0418 51.3169 25.0418 49.8016C25.0418 48.2838 25.0273 48.2838 25.0273 46.7661C25.0273 45.2483 25.0273 45.2483 25.0273 43.733C25.0273 42.2153 25.1236 42.2153 25.1236 40.6999C25.1236 39.1846 25.1332 39.1822 25.1332 37.6645C25.1332 36.1467 25.1765 36.1467 25.1765 34.6314C25.1765 33.116 25.1693 33.1136 25.1693 31.5959C25.1693 30.0782 25.1428 30.0782 25.1428 28.5604C25.1428 28.5604 25.0658 28.5075 25.0658 28.5051C26.4008 27.8725 26.4152 27.9062 27.7501 27.276C29.0851 26.6458 29.1067 26.6891 30.4392 26.0589C31.7718 25.4287 31.8006 25.4841 33.1332 24.8515C34.4657 24.2189 34.4585 24.202 35.7934 23.5694C37.1284 22.9369 37.0923 22.8623 38.4272 22.2297C39.7622 21.5971 39.7838 21.6428 41.1187 21.0102C42.4537 20.3776 42.4465 20.3656 43.7814 19.733C45.1163 19.1004 45.0995 19.0667 46.4344 18.4341C47.7694 17.8016 47.7549 17.7703 49.0899 17.1377L49.0273 17.1882C49.0273 18.2 49.0265 19.2111 49.0249 20.2213C49.0249 21.739 49.0442 21.739 49.0442 23.2544C49.0442 24.7697 49.2005 24.7721 49.2005 26.2898C49.2005 27.8076 49.138 27.8076 49.138 29.3229C49.138 30.8382 49.1572 30.8406 49.1572 32.356C49.1572 33.8713 49.1187 33.8737 49.1187 35.3915C49.1187 36.9092 49.2077 36.9092 49.2077 38.4245C49.2077 39.9399 49.1043 39.9423 49.1043 41.46C49.1043 42.9777 49.0201 42.9777 49.0201 44.4955C49.0201 44.4955 49.1572 44.5821 49.1548 44.5821L49.1524 44.5845Z" fill="#FFDA99"/>
<path d="M49.1112 17.1861C47.7763 17.8187 47.757 17.7754 46.4245 18.408C45.092 19.0406 45.1016 19.0622 43.7667 19.6924C42.4317 20.3226 42.4438 20.3466 41.1088 20.9792C39.7739 21.6118 39.8052 21.6744 38.4702 22.3069C37.1353 22.9395 37.1353 22.9395 35.8003 23.5697C34.4654 24.1999 34.4582 24.1855 33.1233 24.8181C31.7883 25.4507 31.7835 25.4362 30.4486 26.0688C29.1136 26.7014 29.0751 26.6196 27.7402 27.2522C26.4053 27.8848 26.451 27.981 25.116 28.6136C25.116 28.6136 25.116 28.503 25.116 28.5006C23.9856 27.969 23.9423 28.058 22.8118 27.5264C21.6813 26.9949 21.6741 27.0045 20.5436 26.4729C19.4107 25.9413 19.4083 25.9462 18.2754 25.4146C18.2754 25.4146 18.3043 25.3857 18.3067 25.3857C19.6416 24.7531 19.6344 24.7387 20.9669 24.1085C22.2994 23.4783 22.2682 23.4062 23.6031 22.7736C24.938 22.141 24.9429 22.153 26.2778 21.5228C27.6127 20.8926 27.632 20.9335 28.9669 20.3033C30.3018 19.6732 30.3331 19.7381 31.6681 19.1079C33.003 18.4777 32.9669 18.3983 34.3018 17.7658C35.6368 17.1332 35.6248 17.1091 36.9597 16.4765C38.2946 15.8439 38.3355 15.9305 39.6705 15.2979C41.0054 14.6653 40.9813 14.6148 42.3163 13.9822C42.3163 13.9822 42.3596 13.9293 42.3596 13.9317C43.4901 14.4633 43.4347 14.5836 44.5676 15.1127C45.7005 15.6419 45.7414 15.5553 46.8743 16.0869C48.0072 16.6184 47.9591 16.7195 49.092 17.251L49.1208 17.1861H49.1112Z" fill="#FFE7C4"/>
<path d="M18.2656 52.7366C19.3961 53.2658 19.4538 53.1455 20.5843 53.6746C21.7148 54.2038 21.6667 54.3121 22.7972 54.8436C23.9277 55.3752 23.9421 55.3487 25.0726 55.8779C25.0774 55.8779 25.087 55.8587 25.0894 55.8587C26.4244 55.2285 26.4099 55.202 27.7449 54.5694C29.0798 53.9368 29.1183 54.021 30.4532 53.3884C31.7882 52.7558 31.7786 52.739 33.1111 52.1064C34.4436 51.4738 34.4292 51.4425 35.7641 50.8124C37.0991 50.1822 37.1183 50.2231 38.4508 49.5905C39.7834 48.9579 39.7761 48.9362 41.1087 48.306C42.4412 47.6759 42.4316 47.6518 43.7665 47.0192C45.1015 46.3866 45.0726 46.3241 46.4075 45.6915C47.7425 45.0589 47.7425 45.0589 49.0774 44.4287" stroke="#F9A619" stroke-width="1.33327" stroke-linecap="round" stroke-linejoin="round"/>
<path d="M25.085 55.8681C25.085 55.2154 25.085 54.5628 25.085 53.9102" stroke="#F9A619" stroke-width="1.33327" stroke-linecap="round" stroke-linejoin="round"/>
<path d="M47.4443 20.5798C46.1503 21.1932 46.1695 21.2341 44.8731 21.845C43.579 22.4584 43.567 22.4319 42.2729 23.0453C40.9789 23.6586 40.9741 23.6514 39.68 24.2623C38.386 24.8733 38.3884 24.8805 37.0919 25.4938C35.7955 26.1072 35.7955 26.1048 34.499 26.7157C33.2026 27.3267 33.1954 27.3098 31.9013 27.9232C30.6073 28.5365 30.6145 28.5534 29.318 29.1667C28.0216 29.7801 28.024 29.7825 26.7275 30.3958" stroke="#FCBA44" stroke-width="1.33327" stroke-miterlimit="10" stroke-linecap="round"/>
<path d="M47.4733 23.0911C46.1793 23.7044 46.1841 23.714 44.8876 24.325C43.5912 24.9359 43.5671 24.883 42.2731 25.4964C40.979 26.1097 40.9766 26.1025 39.6826 26.7158C38.3885 27.3292 38.3837 27.3196 37.0897 27.9329C35.7956 28.5463 35.8197 28.5992 34.5256 29.2125C33.2316 29.8259 33.2099 29.7826 31.9159 30.3935C30.6219 31.0045 30.6507 31.0694 29.3543 31.6828C28.0578 32.2961 28.0338 32.2432 26.7373 32.8566" stroke="#FCBA44" stroke-width="1.33327" stroke-miterlimit="10" stroke-linecap="round"/>
<path d="M47.4711 25.5393C46.1771 26.1527 46.1747 26.1478 44.8782 26.7588C43.5818 27.3697 43.5938 27.3938 42.2998 28.0047C41.0057 28.6157 40.9889 28.5796 39.6924 29.1929C38.396 29.8063 38.396 29.8039 37.1019 30.4172C35.8079 31.0306 35.8079 31.0306 34.5114 31.6439C33.215 32.2573 33.2174 32.2573 31.9233 32.8706C30.6293 33.484 30.6269 33.484 29.3328 34.0973C28.0388 34.7107 28.0484 34.7323 26.752 35.3457" stroke="#FCBA44" stroke-width="1.33327" stroke-miterlimit="10" stroke-linecap="round"/>
<path d="M47.4685 27.9832C46.1745 28.5965 46.1552 28.558 44.8612 29.1714C43.9985 29.5803 43.135 29.9876 42.2707 30.3933C40.9766 31.0066 40.9983 31.0547 39.7042 31.6657C38.4102 32.2766 38.415 32.2886 37.1185 32.8996C35.8221 33.5105 35.8149 33.4961 34.5208 34.1094C33.2268 34.7228 33.2388 34.7468 31.9424 35.3602C30.6459 35.9735 30.6098 35.8942 29.3134 36.5075C28.0169 37.1209 28.0338 37.1545 26.7373 37.7679" stroke="#FCBA44" stroke-width="1.33327" stroke-miterlimit="10" stroke-linecap="round"/>
<path d="M47.4657 30.4294C46.1717 31.0428 46.1693 31.0356 44.8728 31.6489C43.5788 32.2623 43.5571 32.2142 42.2631 32.8275C40.969 33.4409 41.0075 33.5202 39.7135 34.1336C38.4194 34.7469 38.4194 34.7469 37.123 35.3603C35.8289 35.9736 35.8241 35.9664 34.5277 36.5774C33.2312 37.1883 33.2312 37.1859 31.9372 37.7993C30.6407 38.4126 30.607 38.338 29.3106 38.9514C28.0141 39.5647 28.0382 39.6153 26.7441 40.2286" stroke="#FCBA44" stroke-width="1.33327" stroke-miterlimit="10" stroke-linecap="round"/>
<path d="M47.4736 32.8972C46.1796 33.5106 46.1507 33.448 44.8542 34.0614C43.5578 34.6747 43.5602 34.6747 42.2662 35.2881C40.9721 35.9014 41.001 35.964 39.7069 36.5749C38.4129 37.1859 38.3864 37.1353 37.0924 37.7463C35.7983 38.3572 35.8224 38.4101 34.5259 39.0235C33.2295 39.6368 33.2078 39.5887 31.9138 40.2021C30.6197 40.8154 30.6053 40.7866 29.3089 41.3999C28.0124 42.0133 28.0509 42.0951 26.7568 42.706" stroke="#FCBA44" stroke-width="1.33327" stroke-miterlimit="10" stroke-linecap="round"/>
<path d="M47.4497 35.2932C46.587 35.7021 45.7243 36.111 44.8616 36.5199C43.9989 36.9288 43.1354 37.3361 42.2711 37.7418C40.977 38.3552 41.0107 38.4249 39.7166 39.0383C38.4226 39.6516 38.4058 39.6179 37.1117 40.2313C35.8177 40.8446 35.808 40.823 34.5116 41.4363C33.2151 42.0497 33.2344 42.0834 31.9379 42.6967C30.6415 43.31 30.6294 43.2812 29.333 43.8945C28.0365 44.5079 28.0269 44.4862 26.7305 45.0972" stroke="#FCBA44" stroke-width="1.33327" stroke-miterlimit="10" stroke-linecap="round"/>
<path d="M47.4754 37.8037C46.1814 38.4171 46.1693 38.3954 44.8753 39.0064C43.5813 39.6197 43.5764 39.6077 42.28 40.2186C40.9835 40.8296 41.0028 40.8681 39.7087 41.4814C38.4147 42.0948 38.3762 42.0154 37.0822 42.6263C35.7881 43.2373 35.8266 43.3215 34.5301 43.9348C33.2337 44.5482 33.2048 44.4832 31.9108 45.0966C30.6167 45.7099 30.6215 45.7219 29.3251 46.3353C28.0286 46.9486 28.0431 46.9799 26.749 47.5932" stroke="#FCBA44" stroke-width="1.33327" stroke-miterlimit="10" stroke-linecap="round"/>
<path d="M47.4657 40.2305C46.1717 40.8438 46.15 40.8005 44.856 41.4139C43.5619 42.0272 43.598 42.1018 42.3016 42.7127C41.0051 43.3237 41.0051 43.3213 39.7111 43.9346C38.417 44.548 38.4074 44.5263 37.1109 45.1397C35.8145 45.753 35.7904 45.6977 34.494 46.311C33.6313 46.7199 32.7678 47.128 31.9035 47.5353C31.0392 47.9426 30.1757 48.3523 29.313 48.7644C28.0165 49.3778 28.0406 49.4259 26.7441 50.0392" stroke="#FCBA44" stroke-width="1.33327" stroke-miterlimit="10" stroke-linecap="round"/>
<path d="M47.4727 42.6965C46.61 43.1054 45.7473 43.5151 44.8846 43.9256C43.5906 44.539 43.5954 44.551 42.3013 45.1644C41.0073 45.7777 40.9736 45.7031 39.6772 46.3165C38.3807 46.9298 38.3783 46.9202 37.0843 47.5336C35.7902 48.1469 35.8095 48.1902 34.513 48.8012C33.2166 49.4121 33.2334 49.4458 31.9394 50.0591C30.6453 50.6725 30.6381 50.6629 29.344 51.2762C28.05 51.8896 28.0259 51.8415 26.7295 52.4548" stroke="#FCBA44" stroke-width="1.33327" stroke-miterlimit="10" stroke-linecap="round"/>
<path d="M26.1987 25.7224C25.1355 25.7224 24.272 25.3159 24.272 24.2527C24.272 22.8384 24.2119 22.8384 24.2119 21.4241C24.2119 20.0098 24.2817 20.0098 24.2817 18.5931C24.2817 17.1788 24.337 17.1788 24.337 15.7621C24.337 14.7711 24.3827 13.7609 24.592 12.7579C24.8012 11.7548 25.0634 10.7975 25.4386 9.85226C25.8138 8.90698 26.3021 8.02664 26.8193 7.16074C27.3364 6.29483 27.9137 5.45058 28.5583 4.6881C29.2221 3.90397 29.9101 3.14631 30.6773 2.52574C31.4446 1.90518 32.3707 1.3688 33.2582 0.94787C34.064 0.565428 34.8601 0.284009 35.6443 0.142097C36.5102 -0.0166523 37.364 -0.055137 38.165 0.0795594C38.966 0.214256 39.7742 0.565428 40.4957 1.02003C41.2751 1.51311 41.898 2.19622 42.4248 2.99237C42.9131 3.7332 43.358 4.55581 43.601 5.5059C43.8174 6.35978 43.8535 7.29543 43.8535 8.27679C43.8535 9.6911 43.8656 9.6911 43.8656 11.1054C43.8656 12.5197 43.8415 12.5197 43.8415 13.9364C43.8415 14.8793 43.8415 15.823 43.8415 16.7675C43.8415 17.8306 43.0381 18.2155 41.975 18.2155C40.9119 18.2155 39.993 17.8306 39.993 16.7675C39.993 15.3532 40.1037 15.3532 40.1037 13.9389C40.1037 12.5245 40.0123 12.5245 40.0123 11.1078C40.0123 9.69351 39.993 9.69351 39.993 8.27679C39.993 7.44456 39.9401 6.69411 39.7284 6.06392C39.4567 5.25334 39.0069 4.65202 38.4344 4.28882C37.5468 3.72839 36.3177 3.79814 34.9299 4.45719C34.1386 4.83242 33.3256 5.29904 32.6136 5.94847C31.957 6.54979 31.4278 7.3243 30.877 8.09159C30.3262 8.85887 29.8499 9.61173 29.4555 10.4464C29.061 11.281 28.7555 12.1613 28.5318 13.0393C28.3081 13.9172 28.0772 14.8697 28.0772 15.7597C28.0772 17.174 28.1157 17.174 28.1157 18.5883C28.1157 20.0026 28.1205 20.0026 28.1205 21.4193C28.1205 22.8336 28.147 22.8336 28.147 24.2503C28.147 25.3135 27.269 25.72 26.2059 25.72L26.1987 25.7224Z" fill="#D5E1E6"/>
<path d="M28.1161 24.2524C28.1161 25.3156 27.2622 25.7028 26.1991 25.7028C25.136 25.7028 24.2725 25.3132 24.2725 24.2524" stroke="#ABBBC1" stroke-width="1.33327" stroke-linecap="round" stroke-linejoin="round"/>
<path d="M43.8964 16.7671C43.8964 17.8302 43.0305 18.2006 41.9673 18.2006C40.9042 18.2006 40.0527 17.8278 40.0527 16.7671" stroke="#ABBBC1" stroke-width="1.33327" stroke-linecap="round" stroke-linejoin="round"/>
<path d="M41.6697 38.6171C41.6697 36.967 40.3227 36.13 38.6727 36.7313C37.8597 37.0272 37.1237 37.6068 36.5849 38.3284C36.0461 39.05 35.6709 39.9544 35.6709 40.7914C35.6709 41.8882 36.2458 42.6339 37.1261 42.8335C37.5326 44.6014 37.1309 44.6423 37.1309 46.4559C37.1309 47.2929 37.8284 47.7235 38.6679 47.418L38.6727 47.43C39.5097 47.1246 40.1928 46.1889 40.1928 45.3519C40.1928 43.5383 39.8321 43.5022 40.1808 41.7223C41.0612 40.8828 41.6721 39.7115 41.6721 38.6171H41.6697Z" fill="#FCBA44"/>
<mask id="mask0_3406_9877" style="mask-type:luminance" maskUnits="userSpaceOnUse" x="35" y="36" width="7" height="12">
<path d="M41.645 38.6174C41.645 36.9673 40.3172 36.1183 38.6672 36.7196C37.8542 37.0154 37.1206 37.6071 36.5818 38.3287C36.043 39.0503 35.6895 39.9547 35.6895 40.7941C35.6895 41.891 36.2499 42.6342 37.1302 42.8338C37.5367 44.6017 37.1615 44.6426 37.1615 46.4586C37.1615 47.2956 37.8278 47.7262 38.6648 47.4207L38.66 47.4063C39.497 47.1008 40.1849 46.1916 40.1849 45.3546C40.1849 43.541 39.8458 43.5097 40.197 41.7298C41.0773 40.8904 41.645 39.7166 41.645 38.6198V38.6174Z" fill="white"/>
</mask>
<g mask="url(#mask0_3406_9877)">
<path d="M40.0767 37.2128C40.0767 35.5628 38.7417 34.6921 37.0917 35.2934C36.2787 35.5892 35.5499 36.2002 35.0135 36.9218C34.4772 37.6434 34.0947 38.5502 34.0947 39.3896C34.0947 40.4864 34.7057 41.2248 35.5836 41.4245C35.9901 43.1924 35.5908 43.2381 35.5908 45.0541C35.5908 45.8911 36.2643 46.3289 37.1013 46.0234L37.1037 46.0306C37.9408 45.7251 38.6359 44.7871 38.6359 43.9476C38.6359 42.134 38.2487 42.0956 38.5998 40.3156C39.4802 39.4762 40.0791 38.3072 40.0791 37.2128H40.0767Z" fill="#C8862A"/>
</g>
<path d="M40.0195 8.27893C40.0195 7.4467 39.9136 6.70347 39.702 6.07088C39.4302 5.26029 39.0189 4.62048 38.4464 4.25729C37.5589 3.69685 36.3057 3.78825 34.9154 4.4473C34.1241 4.82253 33.3352 5.31802 32.6232 5.96985C31.9666 6.57118 31.3797 7.29757 30.8289 8.06486C30.278 8.83215 29.8307 9.60906 29.4362 10.4437C29.0417 11.2783 28.7218 12.1587 28.5005 13.0342C28.2792 13.9097 28.1133 14.8718 28.1133 15.7618" stroke="#ABBBC1" stroke-width="1.33327" stroke-linecap="round" stroke-linejoin="round"/>
<path d="M34.6553 1.49065C36.4713 0.629558 38.2488 0.646395 39.6607 1.53876" stroke="white" stroke-width="1.33327" stroke-linecap="round" stroke-linejoin="round"/>
</svg>
