<svg xmlns="http://www.w3.org/2000/svg" width="21" height="25" fill="none" viewBox="0 0 21 25"><path fill="#03B365" d="M10.2969 24.5156C10.5195 24.5156 10.8359 24.4219 11.1406 24.2695C17.8906 20.8477 20.1641 18.9727 20.1641 14.7773V6.16406C20.1641 4.65234 19.625 4.05469 18.3242 3.50391C17.1055 3 12.8867 1.53516 11.7266 1.16016C11.2812 1.01953 10.7422 0.925781 10.2969 0.925781C9.83984 0.925781 9.3125 1.03125 8.86719 1.16016C7.69531 1.52344 3.47656 3.01172 2.25781 3.50391C0.957031 4.04297 0.417969 4.65234 0.417969 6.16406V14.7773C0.417969 18.9727 2.77344 20.707 9.45312 24.2695C9.75781 24.4336 10.0742 24.5156 10.2969 24.5156ZM8.99609 17.9766C8.50391 17.9766 8.12891 17.7539 7.77734 17.3203L4.96484 13.9336C4.71875 13.6406 4.61328 13.3594 4.61328 13.0312C4.61328 12.375 5.14062 11.8359 5.80859 11.8359C6.19531 11.8359 6.5 11.9883 6.80469 12.375L8.96094 15.0469L13.6719 7.55859C13.9531 7.10156 14.3047 6.87891 14.7148 6.87891C15.3711 6.87891 15.957 7.33594 15.957 8.00391C15.957 8.28516 15.8281 8.60156 15.6406 8.88281L10.168 17.3086C9.88672 17.7422 9.46484 17.9766 8.99609 17.9766Z"/></svg>