<svg width="228" height="161" viewBox="0 0 228 161" fill="none" xmlns="http://www.w3.org/2000/svg">
<path d="M133.295 68.1523C136.904 69.8032 139.11 72.0422 139.885 74.4082C140.787 77.1686 139.738 80.0626 136.476 82.3819C134.324 83.9124 131.524 84.9952 128.442 85.57C125.675 86.0846 122.681 86.2651 119.76 85.9777C116.84 85.6903 113.946 84.8147 111.406 83.6584C107.797 82.0076 105.464 79.8554 104.689 77.4894C103.786 74.729 104.903 71.7414 108.157 69.4222C110.31 67.8916 113.157 66.8824 116.231 66.3076C118.998 65.793 121.986 65.666 124.907 65.9534C127.828 66.2408 130.755 66.9893 133.288 68.1456L133.295 68.1523Z" fill="#EDEBFC"/>
<path d="M133.342 40.4483C136.951 42.0991 139.237 44.3983 140.012 46.771C140.914 49.5314 139.705 52.4321 136.45 54.7513C134.297 56.2819 131.524 57.4181 128.449 57.9929C125.682 58.5076 122.701 58.5276 119.78 58.2335C116.86 57.9395 113.899 57.3313 111.366 56.175C107.757 54.5241 105.471 52.265 104.695 49.899C103.793 47.1386 104.983 44.2646 108.244 41.9454C110.397 40.4148 113.17 39.3321 116.251 38.7573C119.019 38.2426 121.999 38.0622 124.92 38.3563C127.841 38.6503 130.815 39.2987 133.348 40.4549L133.342 40.4483Z" fill="#EF5023"/>
<path d="M104.428 42.3265C104.428 45 104.502 45 104.502 47.6735C104.502 47.9141 104.642 48.1012 104.883 48.1012C109.247 48.1814 109.247 48.1547 113.605 48.2282C117.963 48.3017 117.963 48.2884 122.327 48.3686C126.691 48.4488 126.691 48.5825 131.049 48.6627C135.407 48.7429 135.414 48.656 139.778 48.7362C140.025 48.7362 140.213 48.5557 140.213 48.3017C140.213 45.6684 140.319 45.6684 140.319 43.035C140.319 42.7944 140.039 42.507 139.798 42.5003C135.434 42.4134 135.434 42.5872 131.069 42.5003C126.705 42.4134 126.711 42.4067 122.347 42.3132C117.983 42.2196 117.989 42.0859 113.625 41.9923C109.26 41.9055 109.26 41.979 104.896 41.8921C104.649 41.8921 104.421 42.0659 104.421 42.3198L104.428 42.3265Z" fill="#EF5023"/>
<path d="M133.295 34.4464C136.904 36.0973 139.203 38.3096 139.979 40.6756C140.881 43.436 139.771 46.4236 136.516 48.7428C134.364 50.2734 131.517 51.2826 128.442 51.8574C125.675 52.3721 122.688 52.5191 119.767 52.225C116.846 51.9309 113.926 51.1556 111.392 49.9993C107.783 48.3485 105.497 46.1495 104.722 43.7835C103.82 41.0232 104.963 38.1224 108.224 35.8032C110.376 34.2726 113.15 33.0963 116.225 32.5215C118.992 32.0069 121.993 31.9601 124.913 32.2542C127.834 32.5482 130.762 33.2901 133.302 34.4464H133.295Z" fill="#F79E84"/>
<path d="M127.627 38.4432C125.816 37.6144 123.603 37.3069 121.485 37.3938C119.219 37.4807 117.027 38.0355 115.523 39.1049C112.615 41.1768 113.324 44.2647 117.073 45.9757C118.885 46.8045 121.077 47.1721 123.189 47.0919C125.455 47.005 127.62 46.4101 129.131 45.3407C132.038 43.2688 131.377 40.1609 127.627 38.4499V38.4432ZM126.103 43.9305C124.479 45.0868 121.491 45.294 119.399 44.3382C117.307 43.3824 116.953 41.6914 118.577 40.5352C120.201 39.3789 123.189 39.1784 125.281 40.1341C127.373 41.0899 127.721 42.7742 126.103 43.9305Z" fill="white"/>
<path d="M55.824 115.446C53.2374 112.505 52.2883 113.768 48.7994 111.991C45.3106 110.213 45.3707 110.092 41.8818 108.315C38.3929 106.537 38.3261 106.664 34.8305 104.886C31.335 103.108 31.3951 103.001 27.9196 101.183C27.9196 101.089 27.8595 101.036 27.8595 100.942C27.8661 100.809 27.8728 100.675 27.8595 100.541C27.8661 100.408 28.0199 100.274 28.0132 100.14C28.0199 100.007 27.9129 99.873 27.9062 99.7394C27.9129 99.6057 27.8127 99.472 27.806 99.3383C27.8127 99.2047 27.9129 99.071 27.9062 98.9373C28.0399 96.9255 26.5428 94.8536 23.5752 93.3431C21.7038 92.394 19.5249 91.6721 17.2925 91.4516C15.0602 91.231 12.8212 91.5117 10.8027 92.013C9.96723 94.0449 9.30554 94.7199 10.8161 96.3173C13.9039 99.5789 15.1404 97.7877 18.7763 100.428C17.1255 100.976 14.8329 100.936 13.2088 100.107C9.03151 97.9815 9.20528 97.6006 4.87426 95.8027C4.54007 96.451 4.28609 97.1394 4.32619 97.8211C4.32619 97.9548 4.49329 98.0818 4.49997 98.2155C4.49997 98.3491 4.45318 98.4828 4.45987 98.6165C4.45987 98.7502 4.37298 98.8838 4.37966 99.0175C4.37966 99.1512 4.4465 99.2849 4.45318 99.4185C4.45318 99.5522 4.38635 99.6859 4.39303 99.8196C4.39303 99.9532 4.53339 100.087 4.54007 100.221C4.54007 100.354 4.3663 100.488 4.37298 100.622C4.37298 100.755 4.42645 100.889 4.43982 101.023C4.43982 101.156 4.38635 101.29 4.39303 101.424C4.39303 101.557 4.4465 101.691 4.45318 101.825C4.35293 103.816 5.83002 105.822 8.77084 107.319C10.7358 108.315 13.035 108.856 15.3877 109.05C17.7404 109.244 20.1799 109.05 22.2585 108.435C26.0682 109.685 25.7741 110.407 29.3432 112.224C32.9123 114.042 32.9591 113.962 36.5282 115.78C40.0973 117.598 40.0371 117.732 43.6129 119.55C47.1887 121.368 46.8077 123.032 50.8179 123.159C53.7988 123.253 53.6384 121.856 55.824 119.824C57.5217 118.24 57.2543 117.084 55.804 115.433L55.824 115.446Z" fill="#ABBBC1"/>
<path d="M178.356 100.856C174.988 99.1112 175.135 98.8238 171.759 97.0793C168.384 95.3349 168.184 95.7292 164.815 93.9848C161.446 92.2403 161.593 91.9463 158.225 90.2018C154.856 88.4574 154.669 88.8116 151.294 87.0672C147.925 85.3227 148.059 85.0554 144.684 83.3109C141.308 81.5665 141.275 81.6333 137.9 79.8822C134.524 78.1311 134.484 78.218 131.109 76.4735C128.703 75.2237 126.17 74.1275 123.53 73.8936C120.175 73.5995 116.813 74.5687 113.645 75.9388C110.196 77.4293 110.169 77.3691 106.72 78.8596C103.272 80.3501 103.191 80.1696 99.7426 81.6601C96.2871 83.1505 96.3339 83.2441 92.8784 84.7346C89.423 86.225 89.3561 86.0646 85.9007 87.5484C82.4452 89.0322 82.492 89.1391 79.0365 90.6229C75.5811 92.1067 75.5142 91.9596 72.0588 93.4501C68.6033 94.9405 68.7771 95.3349 65.3216 96.8253C61.4518 98.4896 61.1376 103.736 64.8805 105.675C68.2491 107.419 68.3293 107.272 71.6978 109.016C75.0664 110.761 74.9394 111.008 78.3147 112.753C81.69 114.497 81.8236 114.236 85.1922 115.981C88.5608 117.725 88.5407 117.772 91.916 119.523C95.2913 121.274 95.2111 121.415 98.5863 123.159C101.962 124.904 102.069 124.703 105.444 126.447C108.819 128.192 108.632 128.546 112.007 130.297C115.55 132.135 119.647 132.797 123.53 132.429C125.642 132.229 127.807 131.761 129.799 130.899C133.248 129.408 133.208 129.321 136.663 127.831C140.112 126.341 140.025 126.14 143.481 124.656C146.936 123.172 146.883 123.052 150.338 121.562C153.794 120.071 153.88 120.272 157.329 118.781C160.778 117.291 160.718 117.137 164.167 115.653C167.622 114.163 167.722 114.397 171.178 112.906C174.633 111.416 174.647 111.449 178.102 109.959C181.972 108.295 182.106 102.794 178.363 100.862L178.356 100.856Z" fill="#ABBBC1"/>
<path d="M138.428 80.1095C136.202 76.6941 134.799 78.218 131.183 76.3399C128.777 75.09 126.157 74.3481 123.523 74.1209C120.168 73.8268 116.733 74.3481 113.565 75.7116C109.601 77.416 108.191 75.6782 105.684 79.1871C103.452 82.3151 105.664 83.0169 105.664 86.86C105.664 90.7031 105.678 90.7098 105.678 94.5529C105.678 98.396 102.904 99.5657 105.705 102.206C108.685 105.006 109.755 102.186 113.845 102.186C117.936 102.186 117.936 102.326 122.026 102.326C126.116 102.326 126.116 102.246 130.214 102.246C134.311 102.246 135.36 104.993 138.408 102.246C141.148 99.7796 138.394 98.5564 138.394 94.8671C138.394 91.1777 137.846 91.1376 138.481 87.5016C139.116 83.8657 140.446 83.184 138.435 80.0894L138.428 80.1095Z" fill="#AAA3CC"/>
<path d="M129.659 130.571C133.228 129.034 133.181 128.934 136.75 127.397C140.319 125.859 140.507 126.287 144.069 124.75C147.638 123.213 147.471 122.832 151.04 121.294C154.609 119.757 154.649 119.857 158.218 118.32C161.787 116.783 161.721 116.629 165.29 115.085C168.859 113.541 172.354 116.101 172.642 112.225C172.929 108.348 169.086 110.694 165.757 108.97C162.429 107.245 162.583 106.944 159.254 105.22C155.926 103.496 155.973 103.402 152.637 101.678C149.309 99.9533 149.235 100.087 145.907 98.3626C142.578 96.6382 142.492 96.7919 139.163 95.0676C135.835 93.3432 135.922 93.1627 132.586 91.4383C129.853 90.0214 126.832 89.1926 123.831 89.0857C120.83 88.9787 117.755 89.5936 114.928 90.8167C111.359 92.354 111.432 92.5211 107.863 94.0583C104.294 95.5956 104.274 95.5421 100.705 97.0793C97.1361 98.6166 97.1428 98.63 93.5737 100.167C90.0046 101.704 89.9845 101.651 86.4154 103.188C82.8464 104.725 82.7595 104.525 79.1904 106.062C75.6213 107.599 72.627 105.494 72.3463 109.371C72.0656 113.247 75.4809 111.075 78.8094 112.799C82.1379 114.524 82.1379 114.524 85.473 116.248C88.8082 117.973 88.6946 118.186 92.0297 119.911C95.3649 121.635 95.4384 121.488 98.7669 123.213C102.095 124.937 102.115 124.91 105.451 126.635C108.786 128.359 108.812 128.306 112.148 130.03C114.881 131.447 117.842 132.463 120.843 132.57C123.844 132.677 126.838 131.794 129.666 130.578L129.659 130.571Z" fill="#EAF0F3"/>
<path d="M177.942 109.591C174.493 111.081 174.687 111.536 171.238 113.026C167.789 114.517 167.589 114.049 164.133 115.54C160.678 117.03 160.698 117.077 157.249 118.561C153.794 120.051 153.934 120.372 150.479 121.856C147.023 123.346 146.996 123.273 143.541 124.763C140.086 126.253 140.059 126.187 136.603 127.677C133.148 129.168 133.175 129.228 129.719 130.718C126.892 131.935 123.851 132.182 120.85 132.075C117.849 131.968 114.855 131.473 112.114 130.056C108.746 128.312 108.766 128.265 105.397 126.521C102.029 124.776 102.095 124.643 98.7202 122.898C95.3516 121.154 95.3449 121.167 91.9697 119.423C88.5944 117.678 88.6412 117.585 85.2726 115.84C81.904 114.096 81.7436 114.397 78.375 112.652C74.9998 110.908 75.1268 110.667 71.7515 108.923C68.3762 107.178 68.2025 107.512 64.8272 105.768C61.0843 103.83 61.3383 98.202 65.2082 96.5378C68.657 95.0473 68.7238 95.2011 72.1793 93.7106C75.628 92.2201 75.5612 92.0597 79.01 90.5693C82.4654 89.0788 82.5991 89.4063 86.0546 87.9158C89.5101 86.4254 89.4766 86.3519 92.9321 84.8614C96.3876 83.3709 96.3608 83.3108 99.8096 81.827C103.265 80.3365 103.172 80.1227 106.627 78.6322C110.082 77.1417 110.022 77.0081 113.478 75.5176C116.305 74.3012 119.44 73.7598 122.441 73.8667C125.442 73.9737 128.389 75.003 131.123 76.4199C133.368 77.5829 135.616 78.7458 137.867 79.9088C141.235 81.6532 141.248 81.6265 144.624 83.3709C147.992 85.1154 148.079 84.9483 151.454 86.6927C154.83 88.4372 154.736 88.6109 158.111 90.3554C161.48 92.0998 161.38 92.3003 164.755 94.0448C168.13 95.7892 168.291 95.4818 171.666 97.2262C175.041 98.9707 174.988 99.0776 178.363 100.822C182.106 102.76 181.812 107.907 177.942 109.571V109.591Z" stroke="#5522E2" stroke-width="1.33328" stroke-miterlimit="10" stroke-linecap="round" stroke-dasharray="12 12"/>
<path d="M23.5888 93.3363C21.7174 92.3872 19.5117 91.8659 17.2794 91.6454C15.047 91.4248 12.7412 91.5317 10.7227 92.033C14.4722 94.8468 14.9134 94.1517 19.0907 96.2771C21.0824 97.2864 21.3564 98.8838 19.739 99.9398C18.1215 100.996 15.174 101.176 13.189 100.167C9.01167 98.0416 9.47284 96.7383 4.86778 95.8628C3.6313 98.2889 4.99477 101.103 8.74432 103.008C10.7093 104.003 13.0486 104.532 15.3946 104.725C17.7406 104.919 20.1935 104.652 22.2721 104.037C26.0818 105.287 25.8145 105.948 29.3902 107.766C32.966 109.584 32.9593 109.591 36.5351 111.409C40.1109 113.227 40.0708 113.307 43.6465 115.125C47.2223 116.943 46.8347 118.554 50.8382 118.681C53.8191 118.774 56.673 118.287 55.7841 115.446C54.5877 111.616 52.2284 113.675 48.6526 111.857C45.0768 110.039 45.0902 110.012 41.5211 108.194C37.952 106.376 37.9052 106.45 34.3295 104.632C30.7537 102.814 29.9182 103.87 27.2247 100.896C28.8288 98.3892 27.5322 95.3481 23.5821 93.3363H23.5888Z" fill="#EAF0F3"/>
<path d="M4.47998 101.831C4.37973 103.823 5.8234 105.895 8.76422 107.392C10.7292 108.388 13.0485 109.01 15.4011 109.203C17.7538 109.397 20.1866 109.123 22.2586 108.508C26.0683 109.758 25.7742 110.453 29.35 112.271C32.9258 114.089 32.9993 113.935 36.575 115.753C40.1508 117.571 40.0706 117.732 43.6464 119.55C47.2222 121.368 46.8345 123.019 50.8447 123.146C53.8256 123.239 53.2776 121.361 55.7773 119.737" stroke="#80949C" stroke-width="1.33332" stroke-miterlimit="10"/>
<path d="M32.6385 85.7836C33.7279 88.2098 33.6076 88.925 36.114 89.8139C39.9437 91.1774 40.3581 91.0972 44.2413 89.9141C47.1822 89.0185 47.3158 88.5373 48.9266 85.924C49.8757 84.3867 49.6885 83.9389 48.9266 82.3014C47.8438 79.9889 47.904 79.3205 45.4778 78.5118C41.6213 77.2285 41.247 77.3421 37.3371 78.4449C34.4698 79.2537 34.7371 80.0156 32.6719 82.1678C31.3886 83.5045 31.8899 84.1328 32.6318 85.7836H32.6385Z" fill="#ABBBC1"/>
<path d="M37.3504 78.1844C34.4096 79.08 33.1598 79.1201 32.6919 82.1612C32.2909 84.7879 33.6143 85.2891 36.1206 86.1781C39.9504 87.5415 40.3447 87.4546 44.2346 86.2649C47.1755 85.3693 48.4253 85.3292 48.8932 82.2948C49.2942 79.6682 47.6634 79.7617 45.4711 78.2512C42.0892 75.9186 41.2337 77.0014 37.3504 78.1844ZM44.2213 82.2614C44.0274 83.538 43.4861 83.5848 42.2496 83.9591C40.6188 84.4604 40.4249 84.5071 38.8142 83.9323C37.7581 83.5581 37.19 83.3041 37.3638 82.1946C37.5576 80.918 38.099 80.8712 39.3355 80.4969C40.9663 79.9956 41.0666 80.3365 42.7575 80.5504C43.9606 80.6974 44.3884 81.1519 44.2146 82.2614H44.2213Z" fill="#EAF0F3"/>
<path d="M32.6785 85.7571C34.4029 87.7822 33.6008 88.9452 36.1072 89.8408C39.937 91.2043 40.3513 91.0572 44.2346 89.8742C47.1754 88.9786 46.5605 87.8825 48.8998 85.8908" stroke="#80949C" stroke-width="1.33332" stroke-miterlimit="10"/>
<path d="M33.9953 125.525C36.2477 126.935 36.5217 127.604 39.1016 126.949C43.045 125.953 43.3591 125.692 45.9323 122.544C47.8773 120.165 47.6968 119.683 47.5832 116.616C47.5164 114.811 47.1153 114.557 45.5647 113.621C43.3792 112.298 43.065 111.696 40.6054 112.372C36.6888 113.454 36.4281 113.742 33.7947 116.83C31.8632 119.102 32.4714 119.577 31.9567 122.517C31.6359 124.335 32.458 124.563 33.9886 125.525H33.9953Z" fill="#ABBBC1"/>
<path d="M33.6476 116.596C31.7027 118.975 30.7068 119.73 32.0034 122.511C33.1263 124.924 34.5299 124.649 37.1098 124.001C41.0531 123.005 41.3539 122.684 43.9271 119.536C45.8721 117.157 46.8746 116.395 45.5713 113.608C44.4485 111.195 43.1184 112.211 40.4583 112.164C36.3411 112.098 36.2142 113.448 33.6476 116.596ZM41.6213 116.201C42.1693 117.371 41.7683 117.692 40.9529 118.688C39.8701 120.011 39.7298 120.105 38.0722 120.519C36.9895 120.793 36.428 120.933 35.9602 119.917C35.4121 118.748 35.8131 118.44 36.6285 117.444C37.7113 116.121 37.9586 116.335 39.4892 115.566C40.5585 115.032 41.1534 115.185 41.6279 116.201H41.6213Z" fill="#EAF0F3"/>
<path d="M34.002 125.498C36.5618 126.227 36.5284 127.61 39.1083 126.962C43.0517 125.966 43.3324 125.665 45.8989 122.517C47.8439 120.138 46.7678 119.577 47.6099 116.622" stroke="#80949C" stroke-width="1.33332" stroke-miterlimit="10"/>
<path d="M135.774 97.0858C136.891 96.2904 137.713 95.4951 138.328 94.5928C135.708 92.6211 135.447 93.0555 132.54 91.5517C129.806 90.1348 126.832 89.4196 123.831 89.3127C120.83 89.2057 117.822 89.7404 114.995 90.9568C110.336 92.962 109.929 92.18 105.691 94.9604C106.854 96.2837 108.505 97.4467 110.684 98.4426C113.217 99.5989 116.118 100.287 119.079 100.581C121.999 100.869 124.974 100.748 127.741 100.234C130.815 99.659 133.629 98.623 135.781 97.0925L135.774 97.0858Z" fill="#CEC5F2"/>
<path d="M203.567 54.3438L203.54 54.3304C201.401 52.205 202.157 50.8883 199.236 50.1464C196.021 49.331 196.074 51.1556 192.799 51.6703C191.937 51.296 191.048 50.9083 190.046 50.6677C189.197 48.8164 190.955 47.4863 189.077 46.6976C185.133 45.0468 184.445 45.0468 180.501 46.6976C178.623 47.4863 180.415 48.8297 179.566 50.6811C178.563 50.9284 177.634 51.296 176.779 51.6703C173.504 51.1556 173.53 49.2107 170.315 50.0261C167.395 50.768 168.224 52.2451 166.085 54.3705L166.132 54.3438C166.132 58.0733 166.098 58.0733 166.098 61.7961C166.098 65.5256 166.058 65.5256 166.058 69.2484L166.031 69.2751C168.17 71.4005 167.415 72.7506 170.336 73.4925C173.55 74.3079 173.517 72.51 176.792 71.9954C177.654 72.3697 178.67 72.6236 179.673 72.8709C180.521 74.7223 178.63 76.1058 180.508 76.8878C184.451 78.5387 185.133 78.5588 189.077 76.9079C190.955 76.1192 189.163 74.7691 190.012 72.9177C191.015 72.6704 191.931 72.3496 192.786 71.982C196.061 72.4967 196.021 74.3079 199.236 73.4925C202.157 72.7506 201.334 71.3337 203.467 69.2083L203.426 69.2551C203.426 65.5256 203.587 65.5256 203.6 61.8028C203.614 58.0799 203.553 58.0733 203.553 54.3504L203.567 54.3438Z" fill="#ABBBC1"/>
<path d="M198.18 57.7123C198.18 57.3982 198.033 57.0573 197.973 56.7499C200.673 55.3931 202.979 57.318 203.54 54.3437C204.102 51.3695 202.163 50.8682 199.243 50.1263C196.028 49.3109 196.088 51.1757 192.813 51.6903C191.951 51.316 191.055 50.9083 190.046 50.661C189.197 48.8097 190.941 47.5331 189.063 46.7444C185.12 45.0935 184.492 45.1203 180.548 46.7711C178.67 47.5598 180.428 48.823 179.579 50.6744C178.577 50.9217 177.648 51.3094 176.785 51.6836C173.51 51.169 173.55 49.2641 170.342 50.0796C167.422 50.8214 165.463 51.3896 166.018 54.3504C166.573 57.3113 168.912 55.3998 171.612 56.7566C171.545 57.064 171.572 57.3982 171.572 57.7123C171.572 58.0265 171.499 58.2537 171.559 58.5612C168.859 59.9179 166.546 58.1 165.985 61.0675C165.423 64.0351 167.415 64.6099 170.336 65.3518C173.55 66.1672 173.51 64.2623 176.785 63.741C177.648 64.1153 178.523 64.523 179.526 64.7703C180.375 66.6217 178.643 67.9183 180.522 68.7003C184.465 70.3512 185.107 70.2977 189.05 68.6468C190.928 67.8582 189.184 66.6016 190.026 64.7502C191.028 64.503 191.944 64.1353 192.806 63.7611C196.081 64.2757 196.034 66.1405 199.249 65.325C202.17 64.5832 204.148 64.0284 203.594 61.0675C203.039 58.1067 200.7 59.9981 197.993 58.6347C198.06 58.3272 198.187 58.0198 198.187 57.7056L198.18 57.7123ZM184.792 60.9673C181.571 60.9673 178.917 59.557 178.917 57.7123C178.917 55.8676 181.571 54.3839 184.792 54.3839C188.014 54.3839 190.661 55.8676 190.661 57.7123C190.661 59.557 188.014 60.9673 184.792 60.9673Z" fill="#EAF0F3"/>
<path d="M166.118 69.1949C168.257 71.3203 167.421 72.7239 170.342 73.4658C173.557 74.2812 173.51 72.4566 176.785 71.9419C177.648 72.3162 178.59 72.6571 179.592 72.8977C180.441 74.7491 178.63 76.0858 180.508 76.8745C184.452 78.5253 185.147 78.5922 189.09 76.9413C190.968 76.1526 189.09 74.729 189.932 72.8776C190.935 72.6303 191.911 72.4298 192.773 72.0622C196.048 72.5769 196.028 74.328 199.243 73.5126C202.163 72.7707 201.314 71.3136 203.453 69.1882" stroke="#80949C" stroke-width="1.33332" stroke-linecap="round" stroke-linejoin="round"/>
<path d="M170.329 73.4992C170.329 71.9664 170.329 70.4358 170.329 68.9075" stroke="#80949C" stroke-width="1.33332" stroke-linecap="round" stroke-linejoin="round"/>
<path d="M176.799 71.9686C176.799 70.2932 176.799 68.6156 176.799 66.9358" stroke="#80949C" stroke-width="1.33332" stroke-linecap="round" stroke-linejoin="round"/>
<path d="M179.599 72.9044C179.599 71.5944 179.599 71.5944 179.599 70.2844" stroke="#80949C" stroke-width="1.33332" stroke-linecap="round" stroke-linejoin="round"/>
<path d="M189.999 72.9044C189.999 71.9219 189.992 71.9219 189.992 70.946" stroke="#80949C" stroke-width="1.33332" stroke-linecap="round" stroke-linejoin="round"/>
<path d="M192.779 71.9686C192.779 69.1348 192.799 69.1348 192.799 66.2942" stroke="#80949C" stroke-width="1.33332" stroke-linecap="round" stroke-linejoin="round"/>
<path d="M199.242 73.4992C199.242 72.1535 199.242 70.8057 199.242 69.4556" stroke="#80949C" stroke-width="1.33332" stroke-linecap="round" stroke-linejoin="round"/>
<path d="M96.9955 144.039L97.0222 144.019C95.612 142.615 96.1199 141.673 94.1884 141.185C92.0696 140.644 92.0763 141.9 89.9175 142.248C89.3494 142 88.7144 141.8 88.0527 141.639C87.4913 140.416 88.6877 139.554 87.4512 139.033C84.8446 137.943 84.4034 137.89 81.8035 138.979C80.5603 139.501 81.7768 140.41 81.2153 141.633C80.5536 141.793 79.9187 142.02 79.3506 142.268C77.1851 141.927 77.2118 140.697 75.0931 141.232C73.1615 141.72 73.6694 142.622 72.2592 144.025L72.326 144.039C72.326 148.958 72.2124 148.958 72.2124 153.884H72.2659C73.6761 155.294 73.1682 156.203 75.0931 156.691C77.2118 157.232 77.1984 156.056 79.3573 155.715C79.9254 155.963 80.567 156.123 81.2287 156.283C81.7901 157.506 80.5871 158.349 81.8302 158.87C84.4369 159.959 84.8312 159.959 87.4378 158.87C88.681 158.349 87.4713 157.506 88.026 156.283C88.6877 156.123 89.3561 155.902 89.9242 155.655C92.0897 155.996 92.0496 157.212 94.175 156.671C96.1066 156.183 95.5852 155.281 96.9955 153.877H97.0623C97.0557 148.965 97.0022 148.965 97.0022 144.046L96.9955 144.039Z" fill="#ABBBC1"/>
<path d="M93.4265 146.265C93.4265 146.057 93.4131 145.897 93.3663 145.69C95.1509 144.794 96.6347 145.997 97.0023 144.039C97.3699 142.081 96.0933 141.78 94.1617 141.292C92.043 140.75 92.0697 141.847 89.9042 142.187C89.3361 141.94 88.7011 141.8 88.0394 141.639C87.478 140.416 88.6811 139.561 87.4446 139.039C84.838 137.95 84.4369 137.963 81.8303 139.053C80.5871 139.574 81.7902 140.416 81.2288 141.639C80.5671 141.8 79.9188 142 79.3506 142.248C77.1851 141.907 77.2186 140.717 75.0998 141.258C73.1682 141.746 71.9184 142.081 72.286 144.039C72.6536 145.997 74.1307 144.781 75.9085 145.676C75.8684 145.877 75.815 146.057 75.815 146.265C75.815 146.472 75.8818 146.692 75.9219 146.893C74.1374 147.788 72.6402 146.532 72.2726 148.497C71.905 150.462 73.1482 150.843 75.0731 151.331C77.1918 151.872 77.1785 150.609 79.3373 150.268C79.9054 150.515 80.5069 150.756 81.1753 150.916C81.7367 152.139 80.547 153.042 81.7902 153.563C84.3968 154.653 84.858 154.646 87.4646 153.556C88.7078 153.035 87.5181 152.139 88.0795 150.916C88.7412 150.756 89.3428 150.542 89.9109 150.295C92.0764 150.636 92.063 151.885 94.1817 151.344C96.1133 150.856 97.3699 150.448 97.0023 148.49C96.6347 146.532 95.1308 147.762 93.3463 146.866C93.3864 146.666 93.4198 146.472 93.4198 146.265H93.4265ZM84.6308 148.463C82.5053 148.463 80.8277 147.488 80.8277 146.265C80.8277 145.041 82.5053 144.059 84.6308 144.059C86.7562 144.059 88.5407 145.048 88.5407 146.265C88.5407 147.481 86.7562 148.463 84.6308 148.463Z" fill="#EAF0F3"/>
<path d="M72.3062 153.844C73.7164 155.247 73.175 156.15 75.0999 156.638C77.2187 157.179 77.1852 156.016 79.3508 155.675C79.9189 155.922 80.487 156.15 81.1487 156.317C81.7101 157.54 80.5806 158.369 81.817 158.89C84.4237 159.979 84.8648 160.04 87.4714 158.95C88.7146 158.429 87.5516 157.54 88.1131 156.317C88.7748 156.156 89.3362 155.983 89.9043 155.742C92.0698 156.083 92.0431 157.199 94.1685 156.664C96.1001 156.176 95.6122 155.314 97.0224 153.911" stroke="#80949C" stroke-width="1.33332" stroke-linecap="round" stroke-linejoin="round"/>
<path d="M217.836 116.923C217.155 116.803 217.342 116.094 216.66 116.201C214.388 116.569 214.561 117.144 212.329 117.712C209.816 118.353 209.656 117.698 207.223 118.587C206.728 118.768 206.835 119.222 207.149 119.643C207.617 120.278 209.194 119.897 208.573 120.385C205.251 122.952 204.87 122.363 201.154 124.315C198.677 125.616 196.197 126.917 193.715 128.218C189.999 130.17 189.03 128.94 186.243 132.082C185.24 133.211 187.426 134.006 188.896 133.652C192.98 132.683 192.639 131.727 196.348 129.776C200.058 127.824 200.004 127.704 203.72 125.752C207.437 123.8 207.243 123.346 211.2 121.949C211.941 121.688 211.834 123.032 212.536 122.664C216.252 120.713 216.119 120.439 219.227 117.618C219.614 117.264 219.654 116.97 219.253 116.629C218.685 116.141 218.545 117.043 217.83 116.916L217.836 116.923Z" fill="#ABBBC1"/>
<path d="M188.903 133.646C192.619 131.694 192.579 131.614 196.288 129.662C199.998 127.711 200.058 127.804 203.774 125.852C207.49 123.901 207.223 123.279 211.18 121.876C211.921 121.615 211.841 123.039 212.543 122.671C216.259 120.719 215.898 120.165 219.253 117.652" stroke="#80949C" stroke-width="1.33332" stroke-linecap="round" stroke-linejoin="round"/>
<path d="M212.59 121.695C216.306 119.743 217.068 120.185 219.293 116.629C220.095 115.346 218.15 114.844 216.653 115.085C211.687 115.88 211.641 116.174 207.189 118.514C206.487 118.881 209.168 118.814 208.539 119.302C205.218 121.869 204.897 121.374 201.181 123.326C197.464 125.278 197.424 125.204 193.708 127.162C189.992 129.121 189.07 127.938 186.283 131.079C185.28 132.209 187.419 132.93 188.896 132.583C192.98 131.614 192.625 130.665 196.342 128.713C200.058 126.761 200.051 126.741 203.767 124.79C207.483 122.838 207.229 122.257 211.219 120.933C212.062 120.652 211.895 122.076 212.59 121.709V121.695Z" fill="#EAF0F3"/>
<path d="M192.037 127.517C190.473 126.247 188.615 126.12 187.232 126.955C183.803 128.807 183.783 128.773 180.334 130.591C176.886 132.409 176.872 132.389 173.423 134.207C169.975 136.025 169.948 135.985 166.499 137.803C166.051 138.037 165.938 138.605 166.192 139.046C167.609 141.528 169.021 144.012 170.429 146.498C170.67 146.913 171.191 147.107 171.619 146.879C173.922 145.663 176.226 144.446 178.53 143.23C181.985 141.399 181.945 141.325 185.401 139.501C188.856 137.676 188.903 137.763 192.358 135.925C192.886 135.617 193.341 135.136 193.688 134.541C194.925 132.402 194.183 129.254 192.044 127.517H192.037Z" fill="#D5E1E6"/>
<path d="M172.153 145.883C170.917 148.022 168.177 148.363 166.038 146.619C163.899 144.874 163.171 141.713 164.407 139.581C165.643 137.449 168.39 137.134 170.529 138.872C172.668 140.61 173.39 143.751 172.153 145.883Z" fill="#ABBBC1"/>
<path d="M170.817 147.213C174.399 145.315 174.419 145.362 178.002 143.464C181.584 141.566 181.597 141.592 185.18 139.694C188.762 137.796 188.736 137.749 192.318 135.844C192.846 135.537 193.341 135.129 193.682 134.541C194.918 132.402 194.21 129.221 192.071 127.483" stroke="#80949C" stroke-width="1.33332" stroke-linecap="round" stroke-linejoin="round"/>
<path d="M170.529 138.872C172.668 140.61 173.396 143.745 172.153 145.884C170.91 148.022 168.19 148.336 166.051 146.599C163.912 144.861 163.177 141.72 164.414 139.581" stroke="#80949C" stroke-width="1.33332" stroke-linecap="round" stroke-linejoin="round"/>
</svg>
