<svg xmlns="http://www.w3.org/2000/svg" width="11" height="11" fill="none" viewBox="0 0 11 11"><path fill="#fff" d="M4.31445 10.9434C4.56641 10.9434 4.76562 10.832 4.90625 10.6152L10.4434 1.89648C10.5488 1.72656 10.5898 1.59766 10.5898 1.46289C10.5898 1.14062 10.3789 0.929688 10.0566 0.929688C9.82227 0.929688 9.69336 1.00586 9.55273 1.22852L4.29102 9.61328L1.56055 6.03906C1.41406 5.83398 1.26758 5.75195 1.05664 5.75195C0.722656 5.75195 0.494141 5.98047 0.494141 6.30273C0.494141 6.4375 0.552734 6.58984 0.664062 6.73047L3.70508 10.6035C3.88086 10.832 4.0625 10.9434 4.31445 10.9434Z"/></svg>