<svg xmlns="http://www.w3.org/2000/svg" width="30" height="30" fill="none"><path fill="#364252" fill-rule="evenodd" d="M8.592 1.827a1.75 1.75 0 0 0-2.484.008L1.812 6.188a1.75 1.75 0 0 0 .008 2.467l5.973 5.973a1 1 0 0 0 1.414-1.414l-2.894-2.895 3.945-3.997 2.885 2.885a1 1 0 0 0 1.415-1.414L8.592 1.827Zm.252 3.08L7.355 3.42 3.41 7.416l1.489 1.49 3.945-3.999Zm12.83 10.886a1 1 0 0 1 1.414 0l3.554 3.555c.329.328.513.773.513 1.237v4.491a1.75 1.75 0 0 1-1.75 1.75h-4.088a1.75 1.75 0 0 1-1.238-.512l-3.786-3.787a1 1 0 1 1 1.414-1.414l3.714 3.714h3.734v-4.138l-3.482-3.482a1 1 0 0 1 0-1.414ZM22.754 5.73l-5.145 4.861.907.907a1 1 0 0 1-1.415 1.414l-.947-.947-1.634 1.544 1.284 1.284a1 1 0 0 1-1.415 1.414l-1.323-1.324-1.195 1.129.782.78a1 1 0 0 1-1.415 1.415l-.821-.821-5.423 5.123 2.437 2.647 17.76-16.778-2.437-2.648Zm.608-2.293a.739.739 0 0 0-1.054-.037L2.732 21.895a.762.762 0 0 0-.037 1.068l4.13 4.486a.739.739 0 0 0 1.053.037L27.455 8.991a.762.762 0 0 0 .037-1.067l-4.13-4.487Z" clip-rule="evenodd"/></svg>