<svg width="30" height="30" viewBox="0 0 30 30" fill="none" xmlns="http://www.w3.org/2000/svg">
<path d="M13.8506 8.5L7.88458 2.53401C7.59022 2.23965 7.11249 2.24121 6.82005 2.53748L2.52364 6.89032C2.23389 7.18388 2.23543 7.65627 2.52709 7.94793L8.5 13.9208" stroke="#364252" stroke-width="2" stroke-linecap="round"/>
<path d="M10.1573 5L5 10.2261" stroke="#364252" stroke-width="2" stroke-linecap="round"/>
<mask id="path-3-inside-1_178_48" fill="white">
<rect width="7.59824" height="28.4322" rx="0.750294" transform="matrix(0.677227 0.735774 -0.726898 0.686745 22.8543 2.88495)"/>
</mask>
<rect width="7.59824" height="28.4322" rx="0.750294" transform="matrix(0.677227 0.735774 -0.726898 0.686745 22.8543 2.88495)" stroke="#364252" stroke-width="4" mask="url(#path-3-inside-1_178_48)"/>
<path d="M16.4999 10.8955L17.8095 12.205" stroke="#364252" stroke-width="2" stroke-linecap="round"/>
<path d="M13.0975 13.4999L15.0975 15.4999" stroke="#364252" stroke-width="2" stroke-linecap="round"/>
<path d="M10.5 16.0533L11.9467 17.5" stroke="#364252" stroke-width="2" stroke-linecap="round"/>
<path d="M22.3806 16.4999L25.9354 20.0548C26.0761 20.1955 26.1552 20.3864 26.1552 20.5854V25.0764C26.1552 25.4907 25.8192 25.8266 25.4049 25.8266H21.3172C21.1182 25.8266 20.9274 25.7476 20.7867 25.6069L17 21.8203" stroke="#364252" stroke-width="2" stroke-linecap="round"/>
</svg>
