<svg width="16" height="16" viewBox="0 0 16 16" fill="none" xmlns="http://www.w3.org/2000/svg">
<path d="M7.5 4.74969L4.47435 1.76172C4.32755 1.61675 4.09125 1.61752 3.94541 1.76344L1.7668 3.94318C1.61971 4.09034 1.62049 4.3291 1.76853 4.4753L4.79098 7.46011" stroke="black" stroke-linecap="round"/>
<path d="M5.29901 3.31376L3.12646 5.48631" stroke="black" stroke-linecap="round"/>
<mask id="path-3-inside-1_473_26" fill="white">
<rect width="4" height="14.7403" rx="0.375147" transform="matrix(0.677227 0.735774 -0.726898 0.686745 11.9272 1.94218)"/>
</mask>
<rect width="4" height="14.7403" rx="0.375147" transform="matrix(0.677227 0.735774 -0.726898 0.686745 11.9272 1.94218)" stroke="black" stroke-width="2" mask="url(#path-3-inside-1_473_26)"/>
<path d="M8.75 5.94741L9.40479 6.6022" stroke="black" stroke-linecap="round"/>
<path d="M7.04883 7.24966L8.04884 8.24966" stroke="black" stroke-linecap="round"/>
<path d="M5.75 8.52638L6.47333 9.24971" stroke="black" stroke-linecap="round"/>
<path d="M11.9385 8.74968L13.8782 10.5255C13.9558 10.5965 14 10.6969 14 10.8022V13.0379C14 13.2451 13.832 13.413 13.6249 13.413H11.3339C11.2401 13.413 11.1497 13.3779 11.0805 13.3146L9 11.4098" stroke="black" stroke-linecap="round"/>
</svg>
