<svg xmlns="http://www.w3.org/2000/svg" width="56" height="56" fill="none"><rect width="56" height="56" fill="#fff" rx="4"/><path stroke="#CC3D00" stroke-linecap="round" d="m26.994 18.902-9.941-10.07a1.154 1.154 0 0 0-1.643 0L8.8 15.528a1.154 1.154 0 0 0 0 1.622l9.845 9.974M18.907 10.762l-7.934 8.04"/><rect width="10.689" height="42.74" x="-.025" y=".711" fill="#FFEEE5" stroke="#CC3D00" rx=".654" transform="matrix(.67723 .73577 -.7269 .68675 40.591 9.602)"/><path stroke="#CC3D00" stroke-linecap="round" d="m29.266 20.604 3.055 3.095M24.34 24.895l4.88 4.944M20.496 28.99l3.894 3.943M38.205 29.065l6.622 6.71c.214.217.333.508.333.812V43.5c0 .638-.517 1.154-1.154 1.154h-6.284c-.309 0-.605-.123-.822-.343l-6.771-6.86"/></svg>