<?xml version="1.0" standalone="no"?>
<!DOCTYPE svg PUBLIC "-//W3C//DTD SVG 1.1//EN" "http://www.w3.org/Graphics/SVG/1.1/DTD/svg11.dtd">
<svg xmlns="http://www.w3.org/2000/svg">
<defs >
<font id="Rubik" horiz-adv-x="544" ><font-face
    font-family="Rubik Light Light"
    units-per-em="1000"
    panose-1="0 0 0 0 0 0 0 0 0 0"
    ascent="935"
    descent="-250"
    alphabetic="0" />
<glyph unicode=" " horiz-adv-x="264" />
<glyph unicode="!" horiz-adv-x="227" d="M73 143Q63 143 59 149T56 165L165 678Q167 688 174 694T191 700H208Q218 700 223 694T226 678L117 165Q115 155 108 149T90 143H73ZM32 0Q22 0 17 6T14 22L22 60Q24 70 31 76T49 83H87Q97 83 102 77T105 60L97 22Q95
12 88 6T70 0H32Z" />
<glyph unicode="&quot;" horiz-adv-x="340" d="M135 508Q127 508 125 513T123 527L142 690Q143 699 149 704T165 710H210Q219 710 223 705T225 690L176 527Q174 519 168 514T154 508H135ZM268 508Q260 508 258 513T256 527L275 690Q276 699 282 704T298 710H343Q352
710 356 705T358 690L309 527Q307 519 301 514T287 508H268Z" />
<glyph unicode="#" horiz-adv-x="701" d="M145 39Q136 39 131 45T129 60L177 191H66Q56 191 52 197T48 213L51 227Q53 237 60 243T78 249H197L268 445H146Q136 445 132 451T128 467L131 481Q133 491 140 497T158 503H289L337 634Q340 642 346 648T363 655H381Q390
655 395 649T397 634L349 503H516L564 634Q567 642 573 648T590 655H608Q617 655 622 649T624 634L576 503H685Q695 503 699 497T702 481L699 467Q698 457 691 451T673 445H556L485 249H605Q615 249 619 243T622 227L619 213Q618 203 611 197T593 191H464L417 60Q413
51 407 45T390 39H372Q363 39 358 45T356 60L404 191H237L190 60Q186 51 180 45T163 39H145ZM258 249H424L495 445H329L258 249Z" />
<glyph unicode="$" horiz-adv-x="596" d="M200 -100Q190 -100 186 -94T183 -78L198 -8Q131 -1 89 24T29 88T15 170Q16 178 23 184T40 190H60Q70 190 74 184T78 170Q76 142 91 115T143 69T239 50Q337 50 392 85T461 181Q470 221 452 245T389 289T275 333Q209 356
170 382T117 446T114 538Q129 609 188 656T348 709L365 778Q367 788 374 794T392 800H411Q421 800 425 794T428 778L411 708Q476 701 515 673T570 608T579 535Q578 528 572 522T554 515H534Q529 515 522 519T516 535Q521 585 481 617T374 650Q300 650 244 621T174
530Q166 490 181 465T237 420T345 377Q415 353 458 327T517 265T522 173Q503 86 435 41T260 -9L246 -78Q244 -88 237 -94T219 -100H200Z" />
<glyph unicode="%" horiz-adv-x="760" d="M50 0Q36 0 34 11T40 31L671 681Q680 690 687 695T708 700H733Q747 700 749 689T743 669L112 19Q103 10 96 5T75 0H50ZM508 -6Q467 -6 439 11T398 58T391 129Q395 155 399 172T410 218Q426 278 467 316T573 354Q617 354
645 337T685 289T690 218Q686 190 682 173T671 129Q655 69 614 32T508 -6ZM508 50Q553 50 579 77T614 132Q622 160 624 174T631 215Q635 235 632 254T616 285T573 298Q525 298 500 272T467 215Q460 189 458 175T450 132Q448 113 451 94T467 63T508 50ZM209 345Q168
345 140 362T99 409T92 480Q96 506 100 523T111 569Q127 629 168 667T274 705Q318 705 346 688T386 640T391 569Q387 541 383 524T372 480Q356 420 315 383T209 345ZM209 401Q254 401 280 428T315 483Q323 511 325 525T332 566Q336 586 334 605T318 636T274 649Q226
649 201 623T168 566Q161 540 159 526T151 483Q149 464 152 445T168 414T209 401Z" />
<glyph unicode="&amp;" horiz-adv-x="674" d="M230 -10Q166 -10 122 15T59 84T51 184Q61 231 89 265T155 326T236 375Q196 429 184 467T180 550Q190 594 220 630T294 688T388 710Q439 710 473 689T523 632T528 550Q518 504 489 471T418 412T331 363L483 176Q510
210 533 251T573 344Q580 366 600 366H619Q629 366 633 360T636 344Q630 321 621 296T597 244T564 188T519 131L597 35Q604 27 602 19Q601 10 595 5T578 0H556Q546 0 540 3T530 10L472 84Q426 44 365 17T230 -10ZM243 50Q288 50 338 69T436 129L269 332Q213 304
169 270T114 184Q105 141 121 111T169 66T243 50ZM298 407Q338 427 373 447T433 493T465 550Q475 596 449 623T375 650Q331 650 292 624T243 550Q237 520 247 490T298 407Z" />
<glyph unicode="&apos;" horiz-adv-x="207" d="M135 508Q127 508 125 513T123 527L142 690Q143 699 149 704T165 710H210Q219 710 223 705T225 690L175 524Q173 516 169 512T156 508H135Z" />
<glyph unicode="(" horiz-adv-x="317" d="M174 -159Q126 -159 95 -142T48 -88T28 4T35 136T65 309Q91 430 117 518T177 664T258 748T372 776Q381 776 386 770T390 754L387 740Q385 731 378 725T363 718Q321 718 288 699T227 633T175 507T124 309Q99 190 90 111T89
-14T122 -81T189 -101Q196 -101 200 -107T203 -123L200 -137Q199 -146 191 -152T174 -159Z" />
<glyph unicode=")" horiz-adv-x="317" d="M-51 -159Q-60 -159 -65 -153T-69 -137L-66 -123Q-64 -114 -57 -108T-42 -101Q0 -101 33 -82T94 -16T147 110T197 308Q222 427 231 506T232 631T199 698T132 718Q125 718 121 724T118 740L121 754Q123 763 130 769T147
776Q195 776 226 759T273 705T293 613T286 481T256 308Q230 187 204 99T144 -47T63 -131T-51 -159Z" />
<glyph unicode="*" horiz-adv-x="446" d="M261 597L264 700Q264 713 272 721T292 730H331Q345 730 347 720T346 700L304 596L408 647Q417 652 428 652T441 637L446 596Q448 583 440 578T420 570L309 555L371 484Q378 476 378 466T366 448L327 423Q316 416 307
420T295 435L269 531L200 431Q194 423 185 419T166 422L138 448Q128 457 133 467T147 484L239 556L138 569Q128 571 122 579T122 599L145 640Q151 651 160 652T175 650L261 597Z" />
<glyph unicode="+" horiz-adv-x="622" d="M248 33Q238 33 233 39T230 55L277 274H60Q50 274 46 280T42 296L45 310Q47 320 54 326T72 332H289L334 545Q336 555 343 561T361 567H376Q386 567 390 561T393 545L348 332H566Q576 332 580 326T583 310L580 296Q579
286 572 280T554 274H336L289 55Q287 45 280 39T263 33H248Z" />
<glyph unicode="," horiz-adv-x="237" d="M34 66Q39 78 45 85T64 93H109Q116 93 120 87T119 73L46 -54Q40 -64 34 -69T16 -75H-1Q-9 -75 -12 -69T-11 -54L34 66Z" />
<glyph unicode="-" horiz-adv-x="488" d="M90 271Q80 271 76 277T73 293L76 307Q78 317 85 323T102 329H397Q407 329 412 323T415 307L412 293Q410 283 403 277T385 271H90Z" />
<glyph unicode="." horiz-adv-x="234" d="M35 0Q25 0 20 6T17 22L27 70Q29 80 36 86T54 93H102Q112 93 117 87T120 70L110 22Q108 12 101 6T83 0H35Z" />
<glyph unicode="/" horiz-adv-x="465" d="M-31 -84Q-41 -84 -47 -76T-44 -55L477 771Q479 775 485 780T502 786H519Q529 786 535 779T532 757L11 -69Q9 -73 3 -78T-14 -84H-31Z" />
<glyph unicode="0" horiz-adv-x="614" d="M248 -10Q173 -10 125 19T61 110T61 266Q67 296 72 323T83 377T97 434Q119 527 158 588T254 680T388 710Q464 710 511 680T575 589T575 434Q570 404 565 377T553 323T539 266Q517 172 478 111T381 20T248 -10ZM248 50Q334
50 391 102T477 271Q485 301 490 325T501 374T511 429Q532 546 505 598T388 650Q301 650 245 598T159 429Q152 399 146 375T136 326T125 271Q104 154 131 102T248 50Z" />
<glyph unicode="1" horiz-adv-x="394" d="M209 0Q199 0 194 6T191 22L316 610L112 476Q102 470 94 471T81 480L71 498Q67 506 69 514T82 529L330 693Q338 698 342 699T355 700H376Q386 700 391 694T394 678L254 22Q252 12 245 6T228 0H209Z" />
<glyph unicode="2" horiz-adv-x="560" d="M25 0Q15 0 11 6T8 22L11 37Q13 47 20 56T45 79L359 338Q404 373 430 399T469 450T488 507Q502 574 472 612T370 650Q325 650 289 632T226 582T185 506Q181 494 172 489T157 483H137Q127 483 123 488T120 502Q128 536
149 572T203 640T281 690T383 710Q459 710 499 681T551 606T551 507Q543 466 524 432T473 365T398 298L113 60H448Q459 60 463 54T466 37L463 22Q461 12 454 6T435 0H25Z" />
<glyph unicode="3" horiz-adv-x="576" d="M235 -10Q179 -10 138 4T72 43T36 97T32 161Q34 170 41 175T57 180H71Q79 180 86 176T94 157Q95 114 118 91T177 59T248 50Q325 50 382 87T455 198Q471 272 434 304T319 336H231Q221 336 217 342T213 358L216 373Q218
381 222 386T231 397L488 640H186Q176 640 172 646T169 662L172 677Q174 688 181 694T199 700H572Q583 700 587 694T590 677L587 662Q586 656 583 652T575 643L311 396H331Q400 396 447 375T513 309T518 198Q504 132 463 86T363 15T235 -10Z" />
<glyph unicode="4" horiz-adv-x="593" d="M344 0Q334 0 329 6T326 22L360 180H30Q20 180 16 186T12 202L16 218Q18 226 20 231T29 244L430 683Q445 700 470 700H511Q521 700 526 694T529 678L436 240H527Q537 240 541 234T544 218L540 202Q539 192 532 186T514
180H423L389 22Q387 12 380 6T363 0H344ZM109 240H373L452 616L109 240Z" />
<glyph unicode="5" horiz-adv-x="571" d="M220 -10Q147 -10 102 16T37 84T23 175Q24 184 31 189T47 194H66Q74 194 81 190T86 171Q82 128 101 101T152 62T220 50Q271 50 316 70T394 129T439 224Q456 304 421 346T305 388Q268 388 241 379T194 358T158 337T126
328H108Q99 328 94 334T91 350L190 677Q193 688 200 694T217 700H543Q553 700 558 694T561 678L557 662Q555 652 548 646T531 640H244L174 414Q186 421 217 434T305 448Q355 448 396 434T466 391T504 321T504 224Q488 146 448 94T350 16T220 -10Z" />
<glyph unicode="6" horiz-adv-x="582" d="M247 -10Q167 -10 120 24T58 112T54 226Q60 255 72 281T99 331T129 372T155 403L411 680Q416 685 424 692T446 700H465Q474 700 478 694T480 678Q479 674 477 671T473 665L277 453Q293 457 312 459T347 461Q407 461 448
442T513 389T543 314T540 226Q528 166 489 112T389 24T247 -10ZM260 50Q307 50 352 70T431 129T477 226Q489 283 472 322T418 381T334 401Q287 401 242 381T163 322T117 226Q105 169 122 130T176 70T260 50Z" />
<glyph unicode="7" horiz-adv-x="487" d="M104 0Q95 0 91 6T89 22Q89 25 93 31L479 640H138Q128 640 124 646T121 662L124 677Q126 688 133 694T151 700H537Q548 700 552 694T555 677L552 662Q550 650 547 643T537 625L157 25Q151 17 144 9T125 0H104Z" />
<glyph unicode="8" horiz-adv-x="615" d="M248 -10Q176 -10 124 15T49 87T37 197Q49 261 91 306T191 374Q159 396 140 434T131 526Q143 587 181 627T275 689T389 710Q449 710 495 689T566 626T579 526Q569 473 539 437T459 374Q505 350 525 300T535 197Q521 130
482 84T383 14T248 -10ZM248 50Q301 50 347 69T427 121T469 197Q484 265 442 304T323 343Q272 343 225 326T143 276T100 197Q87 128 129 89T248 50ZM323 403Q367 404 407 419T477 461T516 526Q530 585 495 617T389 650Q342 650 301 635T232 593T194 526Q181 468
213 436T323 403Z" />
<glyph unicode="9" horiz-adv-x="572" d="M152 0Q143 0 139 6T137 22Q138 27 140 30T145 35L350 257Q318 249 283 249Q223 249 183 269T120 322T92 396T95 479Q104 521 127 562T187 636T272 690T381 710Q441 710 481 690T544 637T573 562T570 479Q562 440 545
408T509 352T475 311L207 20Q202 15 194 8T172 0H152ZM296 309Q343 309 387 330T463 389T507 479Q518 532 502 570T451 629T368 650Q321 650 277 629T201 570T158 479Q147 427 163 389T214 330T296 309Z" />
<glyph unicode=":" horiz-adv-x="242" d="M108 350Q98 350 94 356T91 372L101 420Q103 430 110 436T128 443H176Q186 443 191 437T194 420L184 372Q182 362 174 356T156 350H108ZM34 0Q24 0 19 6T16 22L26 70Q28 80 35 86T53 93H101Q111 93 116 87T119 70L109
22Q107 12 100 6T82 0H34Z" />
<glyph unicode=";" horiz-adv-x="259" d="M23 -75Q15 -75 13 -69T14 -54L58 66Q63 78 70 85T89 93H134Q141 93 144 88T146 77Q145 71 138 59L71 -54Q64 -64 58 -69T40 -75H23ZM134 350Q124 350 120 356T116 372L126 420Q128 430 135 436T153 443H201Q211 443 216
437T219 420L209 372Q208 362 200 356T182 350H134Z" />
<glyph unicode="&lt;" horiz-adv-x="481" d="M354 31Q347 31 341 35T330 43L78 247Q65 258 61 269T59 293L61 305Q64 319 73 329T100 351L438 555Q443 558 452 562T468 567Q476 567 481 562T484 547L480 530Q478 520 473 514T453 499L121 299L368 99Q378 91 381
85T382 68L378 51Q377 41 370 36T354 31Z" />
<glyph unicode="=" horiz-adv-x="574" d="M68 146Q58 146 53 152T50 168L53 182Q55 192 62 198T80 204H455Q465 204 469 198T472 182L469 168Q467 158 460 152T443 146H68ZM121 396Q111 396 107 402T103 418L106 432Q108 442 115 448T133 454H508Q518 454 522
448T525 432L522 418Q521 408 514 402T496 396H121Z" />
<glyph unicode="&gt;" horiz-adv-x="480" d="M56 33Q48 33 44 38T40 53L44 70Q46 80 52 86T72 101L403 301L157 501Q147 509 144 515T142 532L146 549Q148 559 155 564T170 569Q177 569 183 565T194 557L446 353Q460 342 464 332T465 307L463 295Q460 282 451
271T424 249L86 45Q81 42 72 38T56 33Z" />
<glyph unicode="?" horiz-adv-x="503" d="M229 143Q219 143 215 149T211 165Q214 177 216 189T221 213Q231 259 255 294T311 357T373 411T430 464T465 522Q479 564 464 593T417 637T345 652Q287 652 236 621T156 513Q151 500 144 496T128 491H112Q103 491 98 496T95
511Q105 553 129 589T188 652T266 694T357 710Q412 710 449 694T506 652T531 592T526 523Q514 481 489 449T431 389T368 335T314 279T282 213Q280 201 278 189T272 165Q271 155 264 149T246 143H229ZM186 0Q176 0 172 6T169 22L177 60Q179 70 186 76T204 83H242Q252
83 257 77T260 60L252 22Q250 12 242 6T224 0H186Z" />
<glyph unicode="@" horiz-adv-x="826" d="M330 -113Q255 -113 200 -94T110 -36T62 58T55 187Q57 201 61 224T70 274T81 322T91 358Q115 429 152 485T241 581T356 640T495 661Q581 661 641 641T738 583T785 488T784 358Q780 331 774 304T763 255T756 225Q743 177
721 145T668 96T596 79Q563 79 544 91T516 117T503 138Q492 125 474 109T429 81T363 69Q289 69 255 121T242 273Q263 372 320 425T450 478Q492 478 512 462T542 429L546 448Q548 458 555 464T573 470H590Q600 470 604 464T607 448L561 230Q551 183 565 160T608
137Q638 137 656 154T683 194T696 231Q700 243 708 278T722 353Q733 433 714 489T638 574T482 603Q401 603 336 574T225 489T151 353Q146 336 139 305T125 243T117 192Q105 74 163 10T343 -55Q419 -55 465 -42T538 -11T579 15Q584 18 590 22T606 27H632Q641 27
645 21T648 6Q647 2 645 -1T641 -8Q609 -35 566 -59T466 -98T330 -113ZM375 127Q434 127 465 168T509 273Q518 316 516 349T495 401T437 420Q380 420 349 379T303 273Q295 236 298 203T319 148T375 127Z" />
<glyph unicode="A" horiz-adv-x="653" d="M-17 0Q-30 0 -34 10T-33 31L358 680Q364 690 371 695T391 700H433Q445 700 451 695T458 680L573 31Q576 16 571 8T555 0H534Q525 0 519 5T511 21L481 175H128L30 15Q26 8 19 4T5 0H-17ZM164 235H471L401 629L164 235Z" />
<glyph unicode="B" horiz-adv-x="657" d="M54 0Q44 0 39 6T36 22L175 677Q177 688 184 694T202 700H463Q526 700 565 675T620 610T626 521Q616 474 596 444T552 396T506 369Q541 345 563 303T572 198Q561 148 532 103T452 29T323 0H54ZM107 60H323Q394 60 445
99T509 198Q522 259 496 297T383 336H166L107 60ZM179 396H381Q452 396 501 429T563 521Q576 580 548 610T448 640H231L179 396Z" />
<glyph unicode="C" horiz-adv-x="650" d="M274 -10Q206 -10 160 10T89 67T56 153T59 261Q66 302 76 349T97 439Q117 517 156 578T258 675T413 710Q484 710 531 691T604 640T639 570T641 494Q640 485 636 480T622 474H599Q591 474 584 478T578 495Q587 580 540
615T413 650Q322 650 255 599T159 434Q138 352 123 266Q103 153 143 102T274 50Q354 50 415 83T515 205Q520 217 526 221T540 226H563Q572 226 577 221T579 206Q568 171 547 133T491 63T402 10T274 -10Z" />
<glyph unicode="D" horiz-adv-x="677" d="M54 0Q44 0 39 6T36 22L175 677Q177 688 184 694T202 700H405Q473 700 522 683T601 631T640 546T636 430Q627 385 620 351T602 271Q581 179 544 119T445 30T282 0H54ZM107 60H279Q359 60 410 81T491 150T540 276Q547 306
552 328T561 373T572 425Q593 535 556 587T398 640H231L107 60Z" />
<glyph unicode="E" horiz-adv-x="591" d="M54 0Q44 0 39 6T36 22L175 677Q177 688 184 694T202 700H592Q603 700 607 694T610 677L607 662Q605 652 598 646T580 640H231L176 385H503Q514 385 518 379T521 362L518 347Q516 337 509 331T491 325H164L107 60H464Q475
60 479 54T482 37L479 22Q477 12 470 6T452 0H54Z" />
<glyph unicode="F" horiz-adv-x="573" d="M54 0Q44 0 39 6T36 22L175 677Q177 688 184 694T202 700H588Q599 700 603 694T606 677L603 662Q601 652 594 646T576 640H231L173 371H498Q509 371 513 365T516 348L513 333Q512 323 505 317T486 311H161L99 22Q97 12
90 6T72 0H54Z" />
<glyph unicode="G" horiz-adv-x="664" d="M283 -10Q197 -10 146 23T76 117T72 255Q80 300 91 350T113 445Q132 524 175 583T285 676T436 710Q505 710 550 690T619 639T652 577T657 525Q656 516 649 511T632 505H610Q601 505 598 509T593 525Q590 556 573 584T519
631T423 650Q334 650 269 602T175 440Q164 395 154 350T136 260Q117 148 162 99T296 50Q355 50 406 72T495 141T547 260L558 311H384Q374 311 370 317T367 334L370 348Q372 359 379 365T397 371H611Q622 371 626 365T629 348L610 260Q593 180 549 119T437 24T283
-10Z" />
<glyph unicode="H" horiz-adv-x="701" d="M54 0Q44 0 39 6T36 22L175 677Q177 688 184 694T202 700H220Q231 700 235 694T238 677L176 385H562L624 677Q626 688 633 694T651 700H669Q680 700 684 694T687 677L548 22Q546 12 539 6T521 0H503Q493 0 488 6T485 22L550
325H164L99 22Q97 12 90 6T72 0H54Z" />
<glyph unicode="I" horiz-adv-x="252" d="M53 0Q43 0 38 6T35 22L176 678Q178 688 185 694T202 700H221Q231 700 236 694T239 678L99 22Q97 12 90 6T73 0H53Z" />
<glyph unicode="J" horiz-adv-x="614" d="M226 -10Q181 -10 141 2T70 39T26 102T19 194Q21 203 26 209T42 216H64Q74 216 79 210T82 195Q72 117 112 84T226 50Q325 50 379 107T453 256L535 640H167Q157 640 152 646T149 662L153 678Q155 688 162 694T179 700H588Q599
700 603 694T606 677L517 255Q501 177 467 117T374 24T226 -10Z" />
<glyph unicode="K" horiz-adv-x="562" d="M54 0Q44 0 39 6T36 22L175 677Q177 688 183 694T200 700H220Q231 700 235 694T238 677L186 427L516 685Q520 688 529 694T556 700H574Q589 700 593 687T588 666L203 365L487 34Q498 21 491 11T473 0H455Q439 0 432 5T422
15L162 318L99 22Q97 12 91 6T74 0H54Z" />
<glyph unicode="L" horiz-adv-x="540" d="M54 0Q44 0 39 6T36 22L176 678Q178 688 185 694T202 700H221Q231 700 236 694T239 678L107 60H452Q463 60 467 54T470 37L467 22Q465 12 458 6T440 0H54Z" />
<glyph unicode="M" horiz-adv-x="783" d="M55 0Q45 0 40 6T36 22L175 677Q177 688 185 694T203 700H229Q239 700 243 695T248 687L381 245L703 687Q705 690 710 695T726 700H751Q762 700 766 694T769 677L630 22Q628 12 621 6T603 0H584Q574 0 569 6T566 22L678
548L416 188Q409 179 401 174T381 168H360Q348 168 342 173T333 188L217 574L100 22Q98 12 91 6T74 0H55Z" />
<glyph unicode="N" horiz-adv-x="687" d="M54 0Q44 0 39 6T36 22L175 677Q177 688 184 694T201 700H221Q231 700 235 696T240 688L491 117L610 677Q612 688 619 694T637 700H655Q666 700 670 694T673 677L534 23Q532 13 525 7T508 0H488Q478 0 475 4T469 12L219
581L100 22Q98 12 91 6T73 0H54Z" />
<glyph unicode="O" horiz-adv-x="662" d="M272 -10Q214 -10 169 6T95 57T57 143T60 266Q68 311 76 350T96 434Q129 574 211 642T412 710Q471 710 516 693T589 642T627 556T624 434Q616 389 608 350T588 266Q554 124 472 57T272 -10ZM272 50Q361 50 429 102T526
271Q537 316 544 350T560 429Q581 546 543 598T412 650Q321 650 254 598T158 429Q147 384 140 350T124 271Q103 154 141 102T272 50Z" />
<glyph unicode="P" horiz-adv-x="629" d="M54 0Q44 0 39 6T36 22L175 677Q177 688 184 694T202 700H440Q495 700 536 687T601 648T634 583T631 493Q609 391 540 339T363 286H155L99 22Q97 12 90 6T72 0H54ZM168 346H358Q440 346 496 384T568 493Q578 541 572 573T534
623T433 640H231L168 346Z" />
<glyph unicode="Q" horiz-adv-x="662" d="M484 -65Q473 -65 467 -57T457 -42L426 19Q360 -10 280 -10Q197 -10 146 19T76 110T75 266Q83 311 91 350T110 434Q133 527 179 588T290 680T433 710Q511 710 563 680T635 589T638 434Q631 389 623 350T603 266Q568 123
485 56L530 -34Q532 -38 531 -45Q529 -53 522 -59T506 -65H484ZM293 50Q379 50 446 102T541 271Q552 316 559 350T574 429Q589 507 573 556T517 627T420 650Q335 650 268 598T172 429Q162 384 155 350T139 271Q125 193 141 145T196 73T293 50Z" />
<glyph unicode="R" horiz-adv-x="640" d="M67 0Q57 0 53 6T50 22L189 677Q191 688 198 694T216 700H449Q554 700 606 650T636 498Q619 418 569 370T444 305L547 31Q548 28 548 26T547 20Q546 12 539 6T523 0H511Q495 0 489 8T479 27L377 296H171L113 22Q111 12
104 6T85 0H67ZM184 356H371Q458 356 508 391T573 498Q588 569 553 604T431 640H244L184 356Z" />
<glyph unicode="S" horiz-adv-x="602" d="M244 -10Q163 -10 112 15T37 81T20 170Q21 178 26 184T41 190H65Q75 190 79 184T83 170Q81 142 96 115T148 69T244 50Q342 50 397 85T466 181Q475 221 457 245T394 289T280 333Q214 356 175 382T122 446T119 538Q136 614
202 662T379 710Q438 710 479 694T546 652T580 595T584 535Q583 528 579 522T563 515H539Q534 515 527 519T521 535Q526 585 486 617T379 650Q305 650 249 621T179 530Q171 490 186 465T242 420T350 377Q420 353 463 327T522 265T527 173Q508 82 434 36T244 -10Z"
/>
<glyph unicode="T" horiz-adv-x="551" d="M203 0Q193 0 188 6T185 22L317 640H119Q109 640 104 646T101 662L104 677Q106 688 113 694T131 700H589Q600 700 604 694T607 677L604 662Q602 652 595 646T577 640H380L248 22Q246 12 239 6T221 0H203Z" />
<glyph unicode="U" horiz-adv-x="691" d="M286 -10Q222 -10 176 6T105 57T74 145T83 271L169 677Q171 688 178 694T196 700H214Q225 700 229 694T232 677L145 268Q121 156 153 103T286 50Q383 50 446 103T534 268L621 677Q623 688 631 694T649 700H667Q677 700
681 694T684 677L598 271Q567 126 492 58T286 -10Z" />
<glyph unicode="V" horiz-adv-x="639" d="M241 0Q228 0 221 6T212 24L117 676Q116 688 121 694T137 700H159Q169 700 173 696T178 685L267 73L616 685Q618 690 622 695T637 700H667Q679 700 682 690T679 668L311 24Q304 12 295 6T272 0H241Z" />
<glyph unicode="W" horiz-adv-x="776" d="M146 0Q134 0 129 5T123 24V680Q123 688 128 694T144 700H163Q173 700 178 694T183 680V126L390 522Q395 531 404 538T426 545H447Q461 545 466 538T473 522L515 116L753 685Q759 700 778 700H800Q814 700 816 693T814
674L542 24Q536 11 529 6T509 0H488Q476 0 470 6T462 24L419 444L200 24Q194 12 185 6T164 0H146Z" />
<glyph unicode="X" horiz-adv-x="610" d="M-10 0Q-22 0 -28 11T-25 33L280 360L124 669Q118 680 124 690T141 700H157Q173 700 178 695T185 685L327 405L583 685Q588 690 594 695T617 700H634Q646 700 652 689T649 667L356 347L519 29Q524 19 518 10T501 0H485Q470
0 465 5T457 15L310 302L41 15Q37 11 31 6T8 0H-10Z" />
<glyph unicode="Y" horiz-adv-x="629" d="M242 0Q232 0 227 6T224 22L275 267L116 667Q112 678 119 689T139 700H156Q163 700 168 697T176 685L315 335L602 685Q608 693 614 696T628 700H659Q676 700 676 689T668 667L339 267L286 22Q284 12 277 6T259 0H242Z" />
<glyph unicode="Z" horiz-adv-x="574" d="M0 0Q-10 0 -15 6T-18 23L-13 43Q-9 58 -2 67T9 80L515 640H145Q135 640 130 646T127 662L130 677Q132 688 139 694T157 700H588Q599 700 603 694T606 677L602 657Q600 644 594 636T581 621L74 60H462Q473 60 477 54T480
37L477 22Q475 12 468 6T450 0H0Z" />
<glyph unicode="[" horiz-adv-x="301" d="M4 -159Q-6 -159 -10 -153T-14 -137L176 754Q178 764 185 770T202 776H354Q364 776 369 770T372 754L369 740Q367 730 360 724T342 718H230L56 -101H168Q178 -101 182 -107T185 -123L182 -137Q181 -147 174 -153T156 -159H4Z" />
<glyph unicode="\" horiz-adv-x="461" d="M322 -84Q310 -84 304 -78T296 -62L126 764Q124 774 129 780T144 786H161Q173 786 179 780T187 764L357 -62Q359 -72 354 -78T339 -84H322Z" />
<glyph unicode="]" horiz-adv-x="300" d="M301 776Q311 776 316 770T319 754L129 -137Q128 -147 121 -153T103 -159H-48Q-58 -159 -62 -153T-66 -137L-63 -123Q-61 -113 -54 -107T-36 -101H76L250 718H138Q128 718 124 724T121 740L124 754Q126 764 133 770T150 776H301Z" />
<glyph unicode="^" horiz-adv-x="418" d="M160 575Q146 575 149 586Q150 594 165 606L270 691Q283 702 290 703T305 705H315Q323 705 329 704T344 691L413 606Q422 594 421 586Q418 575 404 575H387Q381 575 374 577T364 582L297 642L204 582Q200 579 192 577T177
575H160Z" />
<glyph unicode="_" horiz-adv-x="749" d="M24 -28Q14 -28 9 -22T6 -6L9 8Q11 18 18 24T36 30H611Q621 30 625 24T628 8L625 -6Q623 -16 616 -22T599 -28H24Z" />
<glyph unicode="`" horiz-adv-x="182" d="M152 595Q142 595 136 596T123 605L36 691Q29 698 31 707Q35 725 52 725H95Q110 725 116 721T128 707L178 626Q183 618 181 610Q177 595 162 595H152Z" />
<glyph unicode="a" horiz-adv-x="569" d="M207 -10Q149 -10 113 11T59 67T38 145T41 232Q43 247 46 260T53 288Q64 332 83 374T132 452T206 509T310 530Q376 530 409 507T459 451L469 498Q471 508 478 514T495 520H512Q522 520 527 514T530 498L429 22Q427 12
420 6T403 0H386Q376 0 371 6T368 22L378 69Q347 35 310 13T207 -10ZM207 48Q264 48 306 75T374 142T411 224Q415 239 420 263T428 302Q436 342 429 381T394 446T310 472Q256 472 218 446T154 378T115 288Q111 273 108 260T103 232Q96 184 99 142T128 74T207 48Z"
/>
<glyph unicode="b" horiz-adv-x="580" d="M249 -10Q187 -10 150 12T95 69L85 22Q83 12 76 6T58 0H41Q31 0 27 6T24 22L165 688Q167 698 174 704T192 710H209Q219 710 223 704T226 688L176 451Q208 484 248 507T351 530Q410 530 447 510T503 455T526 379T524 293Q522
278 518 260T510 227Q496 169 464 115T380 25T249 -10ZM249 48Q306 48 345 74T410 142T450 232Q455 247 457 260T462 288Q470 336 466 378T436 446T351 472Q296 472 253 446T182 381T144 302Q140 287 135 263T128 224Q121 183 128 143T163 75T249 48Z" />
<glyph unicode="c" horiz-adv-x="535" d="M218 -10Q153 -10 109 17T46 97T40 220Q43 235 48 260T57 300Q83 407 149 468T321 530Q376 530 412 515T468 475T496 422T500 366Q499 356 494 350T479 344H460Q450 344 445 348T440 365Q442 422 410 447T321 472Q253
472 197 431T117 295Q113 280 109 260T102 225Q86 131 118 90T218 48Q271 48 317 70T393 150Q400 163 405 167T420 171H438Q447 171 451 165T453 149Q445 122 427 94T381 43T312 5T218 -10Z" />
<glyph unicode="d" horiz-adv-x="579" d="M211 -10Q153 -10 116 11T61 67T38 145T40 232Q42 247 45 260T52 288Q63 332 83 374T134 452T209 509T314 530Q380 530 415 507T468 451L519 688Q521 698 528 704T545 710H562Q572 710 577 704T580 688L438 22Q436 12
429 6T412 0H395Q385 0 380 6T377 22L387 69Q356 35 317 13T211 -10ZM211 48Q268 48 311 75T382 142T420 224Q424 239 429 263T437 302Q445 342 437 381T399 446T314 472Q260 472 220 446T154 378T114 288Q110 273 107 260T102 232Q95 184 100 142T131 74T211 48Z"
/>
<glyph unicode="e" d="M223 -10Q159 -10 118 19T60 100T53 220Q55 235 60 260T70 300Q90 368 128 420T219 501T338 530Q408 530 450 499T506 410T504 272L501 257Q499 247 491 241T473 235H117Q117 235 117 231T115 225Q108 180 118 140T157 74T235 48Q278 48
309 61T361 89T388 113Q400 126 405 128T422 131H438Q447 131 452 126T455 111Q451 97 433 77T383 36T311 3T223 -10ZM129 291H447L448 295Q461 345 450 385T408 448T326 472Q276 472 237 449T170 385T130 295L129 291Z" />
<glyph unicode="f" horiz-adv-x="356" d="M87 0Q77 0 72 6T69 22L163 462H74Q64 462 60 468T56 484L59 498Q61 508 68 514T86 520H175L187 577Q197 622 219 659T278 718T367 740H425Q435 740 439 734T442 718L439 704Q437 694 430 688T412 682H367Q315 682 287
654T247 572L236 520H368Q378 520 382 514T385 498L382 484Q381 474 374 468T356 462H224L130 22Q128 12 121 6T104 0H87Z" />
<glyph unicode="g" horiz-adv-x="579" d="M166 -220Q104 -220 67 -203T11 -162T-13 -113T-15 -73Q-13 -63 -8 -57T7 -50H26Q34 -50 39 -53T45 -71Q46 -87 54 -108T88 -146T166 -162Q213 -162 255 -148T329 -99T373 0L387 69Q356 35 315 13T212 -10Q152 -10 115
11T59 67T37 145T40 232Q42 247 45 260T52 288Q64 332 84 374T135 452T210 509T314 530Q376 530 413 507T468 451L478 497Q480 507 487 513T505 520H521Q531 520 536 514T539 497L436 10Q426 -38 410 -79T364 -153T286 -202T166 -220ZM212 48Q268 48 311 75T382
142T420 224Q424 239 428 260T435 296Q442 337 435 377T400 445T314 472Q260 472 220 446T153 378T113 288Q109 273 106 260T101 232Q93 184 97 142T128 74T212 48Z" />
<glyph unicode="h" horiz-adv-x="591" d="M41 0Q31 0 26 6T23 22L165 688Q167 698 174 704T191 710H208Q218 710 223 704T226 688L175 451Q206 486 246 508T349 530Q420 530 461 501T517 421T517 306L456 22Q454 12 447 6T430 0H413Q403 0 398 6T395 22L454 301Q471
381 448 426T349 472Q302 472 259 452T186 393T143 301L84 22Q82 12 75 6T58 0H41Z" />
<glyph unicode="i" horiz-adv-x="224" d="M41 0Q31 0 26 6T23 22L124 498Q126 508 133 514T151 520H168Q178 520 182 514T185 498L84 22Q82 12 75 6T58 0H41ZM163 627Q153 627 149 633T145 649L154 687Q156 697 163 703T180 710H218Q228 710 233 704T237 687L228
649Q227 639 219 633T201 627H163Z" />
<glyph unicode="j" horiz-adv-x="234" d="M-106 -190Q-116 -190 -120 -184T-123 -168L-120 -154Q-118 -144 -111 -138T-94 -132H-85Q-36 -132 -12 -100T23 -22L133 498Q135 508 142 514T160 520H177Q187 520 191 514T194 498L84 -22Q74 -69 55 -107T0 -167T-97
-190H-106ZM172 627Q162 627 158 633T154 649L163 687Q165 697 172 703T189 710H227Q237 710 242 704T246 687L237 649Q236 639 228 633T210 627H172Z" />
<glyph unicode="k" horiz-adv-x="485" d="M41 0Q31 0 26 6T23 22L165 688Q167 698 174 704T191 710H208Q218 710 223 704T226 688L152 341L401 503Q418 514 425 517T447 520H474Q488 520 490 506T473 480L179 288L409 34Q419 24 414 12T395 0H379Q363 0 357 5T346
15L133 248L84 22Q82 12 75 6T58 0H41Z" />
<glyph unicode="l" horiz-adv-x="225" d="M41 0Q31 0 26 6T23 22L165 688Q167 698 174 704T191 710H208Q218 710 223 704T226 688L84 22Q82 12 75 6T58 0H41Z" />
<glyph unicode="m" horiz-adv-x="879" d="M41 0Q31 0 26 6T23 22L124 498Q126 508 133 514T151 520H168Q178 520 182 514T185 498L178 463Q199 485 220 499T266 522T325 530Q381 530 421 506T475 436Q507 479 552 504T655 530Q708 530 747 506T804 433T806 313L744
22Q742 12 735 6T718 0H701Q691 0 686 6T683 22L743 303Q757 369 749 405T715 457T653 472Q623 472 587 457T519 406T474 303L414 22Q412 12 405 6T388 0H371Q361 0 356 6T353 22L413 303Q427 369 418 405T383 457T323 472Q293 472 257 457T189 406T144 304L84
22Q82 12 75 6T58 0H41Z" />
<glyph unicode="n" horiz-adv-x="590" d="M41 0Q31 0 26 6T23 22L124 498Q126 508 133 514T151 520H168Q178 520 182 514T185 498L175 451Q206 486 250 508T351 530Q427 530 467 501T519 421T516 306L455 22Q453 12 446 6T429 0H412Q402 0 397 6T394 22L453 301Q471
386 452 429T351 472Q272 472 216 427T143 301L84 22Q82 12 75 6T58 0H41Z" />
<glyph unicode="o" horiz-adv-x="556" d="M218 -10Q149 -10 105 20T44 102T39 218Q41 233 47 260T57 302Q73 367 107 418T195 500T321 530Q393 530 436 500T496 419T501 302Q498 287 493 260T483 218Q467 154 433 102T345 20T218 -10ZM218 48Q289 48 345 93T423
223Q427 238 431 260T439 297Q454 383 423 427T321 472Q251 472 195 428T117 297Q113 282 108 260T101 223Q86 138 116 93T218 48Z" />
<glyph unicode="p" horiz-adv-x="579" d="M1 -190Q-9 -190 -14 -184T-17 -168L125 498Q127 508 134 514T151 520H168Q178 520 183 514T186 498L176 451Q208 485 247 507T352 530Q410 530 447 509T502 453T525 375T523 288Q521 273 518 260T511 232Q500 189 480
146T429 68T354 11T249 -10Q183 -10 148 13T95 69L44 -168Q42 -178 35 -184T18 -190H1ZM249 48Q304 48 343 74T409 142T449 232Q454 247 456 260T461 288Q469 336 464 378T433 446T352 472Q295 472 252 445T181 378T143 296Q139 281 134 257T126 218Q119 178 127
139T164 74T249 48Z" />
<glyph unicode="q" horiz-adv-x="580" d="M355 -190Q345 -190 341 -184T338 -168L388 69Q357 36 316 13T213 -10Q155 -10 118 10T61 65T38 141T40 227Q42 242 46 260T54 293Q69 352 100 406T184 495T315 530Q377 530 414 508T469 451L479 498Q481 508 488 514T506
520H523Q533 520 537 514T540 498L399 -168Q397 -178 390 -184T372 -190H355ZM213 48Q269 48 312 74T383 139T420 218Q424 233 429 257T436 296Q444 337 437 377T401 445T315 472Q260 472 220 446T154 378T114 288Q110 273 107 260T102 232Q95 184 99 142T129 74T213
48Z" />
<glyph unicode="r" horiz-adv-x="350" d="M41 0Q31 0 26 6T23 22L124 497Q126 507 133 513T151 520H167Q177 520 182 514T185 497L175 451Q198 486 237 503T326 520H363Q373 520 377 514T380 498L377 484Q375 474 368 468T351 462H308Q248 462 206 427T150 332L84
22Q82 12 75 6T57 0H41Z" />
<glyph unicode="s" horiz-adv-x="492" d="M195 -10Q143 -10 109 4T54 37T27 76T21 105Q23 116 31 121T47 127H62Q68 127 72 125T81 114Q90 97 104 82T142 57T207 48Q267 48 311 71T365 139Q371 167 359 184T312 214T218 241Q158 256 130 277T95 325T95 385Q103
420 129 453T200 508T305 530Q354 530 386 517T436 486T460 449T465 420Q464 410 456 404T439 398H424Q416 398 412 401T405 411Q398 427 387 441T355 463T293 472Q233 472 199 448T156 385Q151 363 159 347T198 317T288 288Q349 274 382 254T424 205T426 139Q418
99 388 65T309 11T195 -10Z" />
<glyph unicode="t" horiz-adv-x="351" d="M198 0Q133 0 107 22T79 82T87 167L150 462H72Q62 462 57 468T54 484L57 498Q59 508 66 514T84 520H162L198 688Q200 698 207 704T224 710H241Q251 710 256 704T259 688L223 520H347Q357 520 361 514T364 498L361 484Q359
474 352 468T335 462H211L149 171Q142 136 140 111T149 72T199 58H259Q269 58 273 52T276 36L273 22Q271 12 264 6T247 0H198Z" />
<glyph unicode="u" horiz-adv-x="586" d="M222 -10Q146 -10 106 19T56 100T59 214L119 498Q121 508 128 514T146 520H163Q173 520 177 514T180 498L121 219Q109 163 112 125T141 67T222 48Q297 48 353 93T427 219L486 498Q488 508 495 514T513 520H530Q540 520
544 514T547 498L446 22Q444 12 437 6T420 0H403Q393 0 388 6T385 22L395 69Q372 46 350 28T298 0T222 -10Z" />
<glyph unicode="v" horiz-adv-x="533" d="M193 0Q177 0 171 7T163 25L78 496Q76 509 82 514T97 520H116Q125 520 131 516T139 498L215 73L476 505Q478 509 484 514T501 520H525Q534 520 539 512T536 489L254 25Q247 14 239 7T214 0H193Z" />
<glyph unicode="w" horiz-adv-x="786" d="M151 0Q138 0 132 6T124 25L81 497Q80 506 85 513T104 520H121Q131 520 135 516T141 505L178 89L394 500Q397 506 403 513T423 520H447Q460 520 464 513T469 500L514 89L726 505Q728 509 733 514T748 520H772Q786 520
788 512T785 493L546 25Q539 12 531 6T509 0H490Q477 0 470 6T461 25L417 419L210 25Q203 12 194 6T171 0H151Z" />
<glyph unicode="x" horiz-adv-x="517" d="M-3 0Q-16 0 -21 12T-17 34L213 266L87 489Q82 498 86 509T103 520H122Q132 520 137 515T146 505L258 306L456 505Q461 510 467 515T489 520H505Q516 521 523 509T518 485L289 253L413 31Q419 21 416 11T398 0H379Q369
0 363 5T354 15L243 212L48 15Q44 11 37 6T15 0H-3Z" />
<glyph unicode="y" horiz-adv-x="534" d="M63 -190Q52 -190 48 -180T53 -157L176 35L78 494Q76 504 80 512T99 520H117Q127 520 132 516T138 505L223 108L480 505Q484 511 490 515T506 520H530Q538 520 545 513T543 491L112 -175Q108 -181 102 -185T86 -190H63Z" />
<glyph unicode="z" horiz-adv-x="486" d="M0 0Q-10 0 -15 6T-18 22L-14 39Q-12 46 -11 50T-5 58L384 462H108Q98 462 93 468T90 484L93 498Q95 508 102 514T120 520H456Q466 520 470 514T473 498L470 481Q469 471 460 462L72 58H378Q388 58 392 52T395 36L392
22Q390 12 383 6T366 0H0Z" />
<glyph unicode="{" horiz-adv-x="344" d="M207 -159Q148 -159 119 -140T81 -83T79 8T101 131Q113 188 105 216T73 263L69 266Q48 282 53 303L55 315Q58 327 64 335T87 352L94 356Q126 376 145 403T177 487Q192 556 207 609T247 700T309 756T406 776H411Q421 776
425 770T428 754L426 740Q424 730 417 724T399 718H394Q343 718 315 692T269 611T233 466Q221 408 195 370T125 309Q148 294 159 272T173 221T167 152Q148 63 141 7T151 -74T220 -101H225Q235 -101 239 -107T242 -123L239 -137Q237 -147 230 -153T212 -159H207Z"
/>
<glyph unicode="|" horiz-adv-x="220" d="M-6 -208Q-16 -208 -20 -202T-23 -186L202 874Q204 884 211 890T229 896H246Q256 896 260 890T263 874L38 -186Q36 -196 29 -202T11 -208H-6Z" />
<glyph unicode="}" horiz-adv-x="344" d="M170 776Q229 776 258 757T296 700T298 609T277 486Q264 429 272 402T304 354L309 351Q329 335 325 314L322 302Q318 281 291 265L284 261Q252 242 233 214T201 130Q186 61 170 8T130 -83T68 -139T-29 -159H-34Q-44 -159
-48 -153T-51 -137L-48 -123Q-46 -113 -39 -107T-21 -101H-16Q35 -100 63 -75T108 6T144 151Q157 210 183 247T253 308Q230 324 218 345T205 396T211 465Q230 555 236 610T227 692T158 718H153Q143 718 139 724T136 740L138 754Q140 764 147 770T165 776H170Z"
/>
<glyph unicode="~" horiz-adv-x="563" d="M99 252Q92 252 88 257T85 269L90 292Q93 305 111 317T157 338T212 347Q244 347 266 342T308 330T348 318T396 312Q427 312 447 324T481 343Q486 345 489 346T495 347Q503 347 506 343T508 330L503 307Q501 295 483 282T437
261T382 252Q352 252 330 257T289 269T248 281T198 287Q167 287 147 275T113 256Q109 255 106 254T99 252Z" />
<glyph unicode="&#xa0;" horiz-adv-x="264" />
<glyph unicode="&#xa1;" horiz-adv-x="227" d="M153 376Q163 376 167 370T170 354L61 -159Q60 -169 53 -175T35 -181H18Q8 -181 4 -175T0 -159L109 354Q111 364 118 370T136 376H153ZM194 519Q204 519 209 513T212 497L204 459Q202 449 195 443T177 436H139Q129
436 124 442T121 459L129 497Q131 507 138 513T156 519H194Z" />
<glyph unicode="&#xa2;" horiz-adv-x="542" d="M181 -100Q171 -100 166 -94T163 -78L178 -6Q101 7 64 66T44 220Q47 235 52 260T61 300Q85 398 143 458T292 528L305 588Q307 598 314 604T331 610H348Q358 610 363 604T366 588L353 529Q415 524 449 498T495 436T504
366Q503 356 498 350T483 344H464Q454 344 449 348T444 365Q446 422 414 447T325 472Q257 472 201 431T121 295Q117 280 113 260T106 225Q90 131 122 90T222 48Q275 48 321 70T397 150Q404 163 409 167T424 171H442Q451 171 455 165T457 149Q450 123 434 96T390
46T325 8T238 -9L224 -78Q222 -88 215 -94T198 -100H181Z" />
<glyph unicode="&#xa3;" horiz-adv-x="658" d="M399 -5Q361 -5 335 7T290 36T255 71T220 101T175 113Q128 113 107 87T71 21Q69 16 64 8T45 0H22Q13 0 10 6T7 19Q24 90 66 126T158 171Q163 205 165 240T169 315H92Q82 315 78 321T75 337L78 353Q80 363 87 369T105
375H175Q177 394 181 414T189 456Q204 523 239 581T332 675T468 711Q543 711 586 681T645 601T649 495Q648 486 641 480T624 473H606Q599 473 593 479T587 494Q590 568 559 609T455 651Q375 651 323 596T252 455Q248 433 245 414T239 375H450Q460 375 464 369T467
353L464 337Q462 327 455 321T437 315H235Q233 279 231 244T221 169Q256 162 279 144T321 106T360 70T412 55Q459 55 481 82T518 149Q520 154 527 161T541 168H566Q575 168 579 163T581 149Q570 99 543 65T479 13T399 -5Z" />
<glyph unicode="&#xa4;" horiz-adv-x="578" d="M60 89L51 101Q46 108 47 116T57 132L109 174Q79 229 94 300Q109 372 163 426L129 468Q124 475 125 483T135 499L150 511Q158 518 167 518T181 511L214 468Q244 488 278 499T349 510Q384 510 414 499T466 468L517
511Q525 518 534 518T548 511L557 499Q562 492 561 484T551 468L499 426Q513 400 517 368T514 300Q507 264 489 232T445 174L479 132Q484 125 483 117T473 101L458 89Q450 82 441 82T427 89L394 132Q332 90 259 90Q189 90 142 132L91 89Q83 82 74 82T60 89ZM272
150Q314 150 352 170T417 224T454 300Q463 342 450 376T408 430T336 450Q295 450 257 430T191 376T154 300Q145 259 158 225T201 170T272 150Z" />
<glyph unicode="&#xa5;" horiz-adv-x="586" d="M209 0Q199 0 195 6T191 22L249 294L107 667Q104 675 104 680Q104 690 111 695T129 700H148Q155 700 160 697T168 685L291 361L552 685Q558 693 564 696T578 700H604Q612 700 617 694T620 680Q619 676 617 673T613
667L313 294L255 22Q254 12 247 6T228 0H209ZM65 123Q55 123 51 129T47 145L51 161Q53 171 60 177T78 183H438Q448 183 452 177T455 161L451 145Q450 135 443 129T425 123H65ZM90 243Q80 243 76 249T73 265L76 281Q78 291 85 297T103 303H463Q473 303 477 297T480
281L477 265Q475 255 468 249T450 243H90Z" />
<glyph unicode="&#xa6;" horiz-adv-x="228" d="M143 475Q133 475 129 481T126 497L192 807Q194 817 201 823T219 829H236Q246 829 250 823T253 807L187 497Q185 487 178 481T160 475H143ZM43 0Q33 0 28 6T25 22L91 332Q93 342 100 348T118 354H135Q145 354 149
348T152 332L86 22Q84 12 77 6T60 0H43Z" />
<glyph unicode="&#xa7;" horiz-adv-x="553" d="M193 -140Q142 -140 108 -128T55 -95T30 -51T26 -6Q27 3 34 8T51 14H69Q77 14 82 10T89 -6Q92 -24 101 -41T134 -70T206 -82Q269 -82 305 -52T350 22Q357 53 349 71T313 102T235 132Q165 155 125 180T70 241T67 330Q76
373 106 404T173 460Q162 478 161 500T166 548Q174 587 202 624T276 686T383 710Q452 710 490 689T542 636T551 576Q550 567 543 562T525 556H507Q499 556 495 560T488 576Q485 594 476 611T443 640T371 652Q308 652 272 622T227 548Q221 517 228 499T263 468T341
438Q412 415 452 390T507 329T509 240Q500 197 471 166T404 110Q415 92 415 70T411 22Q403 -17 375 -54T301 -115T193 -140ZM364 147Q399 167 420 188T448 241Q455 271 447 295T407 340T305 383Q274 393 252 403T212 423Q177 403 156 382T128 329Q122 299 129 275T170
230T272 187Q332 168 364 147Z" />
<glyph unicode="&#xa8;" horiz-adv-x="277" d="M202 627Q192 627 188 633T184 649L193 687Q195 697 202 703T219 710H257Q267 710 272 704T276 687L267 649Q265 639 258 633T240 627H202ZM49 627Q39 627 35 633T31 649L40 687Q42 697 49 703T66 710H104Q114 710
119 704T123 687L114 649Q112 639 105 633T87 627H49Z" />
<glyph unicode="&#xa9;" horiz-adv-x="832" d="M356 -10Q281 -10 221 18T121 95T66 210T67 350Q83 425 124 490T224 604T353 682T498 710Q573 710 633 682T733 605T788 490T787 350Q771 275 730 210T630 96T501 18T356 -10ZM356 45Q418 45 478 69T590 135T678
232T727 350Q740 412 730 467T688 565T609 631T498 655Q436 655 376 631T264 565T176 468T127 350Q114 288 124 233T166 135T245 69T356 45ZM392 158Q342 158 310 180T264 238T258 317Q260 327 262 339T267 363T272 385Q283 428 308 464T373 522T462 544Q516 544
548 527T593 486T603 437Q602 427 595 421T577 415H560Q550 415 546 421T541 434Q542 458 524 472T462 486Q422 486 396 470T354 430T333 385Q331 375 328 363T323 339T319 317Q316 297 317 273T335 233T392 216Q435 216 464 230T505 268Q510 276 516 281T533 287H550Q560
287 564 281T567 265Q562 242 541 217T483 175T392 158Z" />
<glyph unicode="&#xaa;" horiz-adv-x="364" d="M187 429Q144 429 120 451T99 505Q104 543 140 568T235 602L297 611Q298 614 299 623T294 639T263 647Q236 647 223 642T201 632T181 627H164Q142 627 145 644Q148 654 161 668T200 694T263 705Q320 705 343 675T356
598L325 456Q324 446 317 440T299 434H282Q272 434 268 440T264 456L266 463Q255 449 235 439T187 429ZM187 483Q228 483 254 506T286 559L235 552Q198 547 181 535T161 507Q160 497 165 490T187 483Z" />
<glyph unicode="&#xab;" horiz-adv-x="603" d="M496 92Q490 92 485 95T474 104L325 286Q318 296 316 304T315 321L319 337Q321 345 326 353T343 372L570 554Q577 559 584 562T597 566Q606 566 610 561T612 546L609 529Q606 517 601 510T583 493L379 329L513 165Q521
155 523 148T524 129L520 112Q518 103 512 98T496 92ZM247 92Q241 92 236 95T225 104L76 286Q69 296 67 304T66 321L70 337Q72 345 77 353T94 372L321 554Q328 559 335 562T348 566Q357 566 361 561T363 546L360 529Q357 517 352 510T334 493L130 329L264 165Q272
155 274 148T275 129L271 112Q269 103 263 98T247 92Z" />
<glyph unicode="&#xac;" horiz-adv-x="585" d="M440 170Q430 170 426 176T422 192L444 292H99Q89 292 84 298T81 314L84 328Q86 338 93 344T111 350H496Q506 350 510 344T513 328L484 192Q483 182 476 176T458 170H440Z" />
<glyph unicode="&#xad;" horiz-adv-x="600" d="M90 271Q80 271 76 277T73 293L76 307Q78 317 85 323T102 329H397Q407 329 412 323T415 307L412 293Q410 283 403 277T385 271H90Z" />
<glyph unicode="&#xae;" horiz-adv-x="833" d="M357 -10Q282 -10 222 18T122 95T67 210T68 350Q84 425 124 490T223 604T352 682T498 710Q573 710 633 682T734 605T789 490T788 350Q772 275 732 210T632 96T503 18T357 -10ZM357 45Q418 45 478 69T591 135T680
232T730 350Q743 412 732 467T690 565T609 631T498 655Q438 655 378 631T265 565T176 468T126 350Q113 288 124 233T166 135T246 69T357 45ZM276 168Q266 168 262 174T259 190L327 512Q332 534 354 534H471Q504 534 535 523T583 487T593 418Q586 378 561 352T499
313L545 204Q546 202 546 199T546 190Q545 182 538 175T519 168H509Q499 168 494 173T484 187L437 302H344L320 190Q315 168 293 168H276ZM356 360H443Q489 360 508 378T532 418Q537 441 527 458T469 476H381L356 360Z" />
<glyph unicode="&#xaf;" horiz-adv-x="278" d="M49 622Q39 622 35 628T31 644L34 658Q36 668 43 674T61 680H260Q270 680 274 674T277 658L274 644Q273 634 266 628T248 622H49Z" />
<glyph unicode="&#xb0;" horiz-adv-x="377" d="M224 448Q182 448 154 465T114 512T110 579Q118 617 141 646T198 693T269 710Q311 710 339 693T378 647T382 579Q374 542 351 512T295 465T224 448ZM224 503Q256 503 285 524T322 579Q330 613 317 634T269 655Q237
655 208 634T170 579Q163 545 176 524T224 503Z" />
<glyph unicode="&#xb1;" horiz-adv-x="553" d="M251 193Q241 193 236 199T233 215L267 373H110Q100 373 96 379T92 395L95 409Q97 419 104 425T122 431H279L312 585Q314 595 321 601T339 607H355Q365 607 369 601T372 585L339 431H496Q506 431 510 425T513 409L510
395Q509 385 502 379T484 373H327L293 215Q291 205 284 199T267 193H251ZM41 0Q31 0 26 6T23 22L26 36Q28 46 35 52T53 58H407Q417 58 421 52T424 36L421 22Q419 12 412 6T395 0H41Z" />
<glyph unicode="&#xb2;" horiz-adv-x="335" d="M79 350Q69 350 65 356T62 372L65 389Q67 397 73 404T96 422Q170 468 214 495T281 545T309 594Q314 620 298 635T256 650Q229 650 214 642T191 623T179 607Q171 596 165 593T151 589H136Q116 589 122 608Q129 632
151 654T203 690T268 705Q325 705 350 672T367 594Q359 557 337 530T274 474T168 406H320Q330 406 334 400T337 384L335 372Q330 350 308 350H79Z" />
<glyph unicode="&#xb3;" horiz-adv-x="336" d="M188 345Q144 345 117 356T79 386T71 425Q73 435 80 439T92 444H112Q119 444 124 440T131 430Q135 423 140 416T159 405T200 401Q233 401 258 414T289 451Q295 480 277 490T227 501H187Q177 501 173 507T170 523L173
540Q175 547 179 552T190 563L297 644H155Q145 644 140 650T137 666L140 678Q145 700 166 700H364Q374 700 379 694T382 678L379 666Q377 655 373 647T355 627L264 557Q320 554 337 524T347 451Q340 418 319 395T265 358T188 345Z" />
<glyph unicode="&#xb4;" horiz-adv-x="224" d="M43 595Q27 595 31 611Q33 618 39 624L126 707Q137 717 144 721T167 725H208Q223 725 223 710Q223 699 215 694L87 605Q77 598 71 597T54 595H43Z" />
<glyph unicode="&#xb5;" horiz-adv-x="586" d="M-7 -200Q-17 -200 -21 -194T-24 -178L119 498Q121 508 128 514T146 520H163Q173 520 177 514T180 498L121 219Q110 166 123 128T167 69T235 48Q273 48 314 68T389 127T433 219L492 498Q494 508 501 514T519 520H536Q546
520 550 514T553 498L452 22Q450 12 443 6T426 0H409Q399 0 394 6T391 22L401 69Q369 35 332 13T235 -10Q180 -10 146 10T94 63T65 131H102L37 -178Q35 -188 28 -194T10 -200H-7Z" />
<glyph unicode="&#xb6;" horiz-adv-x="491" d="M79 523Q89 572 121 612T199 676T293 700H472Q482 700 487 694T490 678L329 -78Q327 -88 320 -94T302 -100H285Q275 -100 271 -94T268 -78L421 642H342L189 -78Q187 -88 180 -94T162 -100H145Q135 -100 131 -94T128
-78L218 346Q169 346 134 370T84 434T79 523Z" />
<glyph unicode="&#xb7;" horiz-adv-x="326" d="M63 300Q69 328 87 350T132 386T185 400Q213 400 232 387T260 351T263 300Q258 273 240 250T196 214T142 200Q115 200 95 213T67 250T63 300Z" />
<glyph unicode="&#xb8;" horiz-adv-x="250" d="M116 -220Q88 -220 66 -211T34 -189T35 -169L51 -156Q60 -149 65 -154T82 -166T116 -174Q133 -174 148 -164T167 -134Q171 -116 160 -106T132 -96Q116 -96 105 -100T85 -106T71 -100L59 -83Q55 -77 60 -69T70 -53L122
27H180L120 -58Q127 -54 138 -52T160 -50Q189 -50 207 -74T217 -135Q210 -171 185 -195T116 -220Z" />
<glyph unicode="&#xb9;" horiz-adv-x="269" d="M172 350Q162 350 158 356T155 372L208 623L135 576Q127 571 119 572T105 581L100 591Q96 599 99 607T111 622L222 693Q233 700 246 700H260Q270 700 275 694T278 678L213 372Q208 350 186 350H172Z" />
<glyph unicode="&#xba;" horiz-adv-x="358" d="M208 429Q156 429 128 457T109 545Q110 553 113 567T119 589Q135 649 174 677T261 705Q293 705 317 693T354 655T359 589Q358 582 355 568T349 545Q339 505 319 480T271 442T208 429ZM214 487Q242 487 261 502T288
545Q290 553 293 567T298 589Q302 615 293 631T254 647Q226 647 207 631T180 589Q178 582 175 568T170 545Q166 517 175 502T214 487Z" />
<glyph unicode="&#xbb;" horiz-adv-x="603" d="M298 92Q289 92 285 97T282 112L286 129Q288 141 294 148T311 165L515 329L381 493Q374 503 371 510T371 529L374 546Q376 555 383 560T399 566Q405 566 410 563T420 554L569 372Q577 362 578 354T579 337L575 321Q573
313 568 305T551 286L324 104Q317 99 311 96T298 92ZM49 92Q40 92 36 97T33 112L37 129Q39 141 45 148T62 165L266 329L132 493Q125 503 122 510T122 529L125 546Q127 555 134 560T150 566Q156 566 161 563T171 554L320 372Q328 362 329 354T330 337L326 321Q324
313 319 305T302 286L75 104Q68 99 62 96T49 92Z" />
<glyph unicode="&#xbc;" horiz-adv-x="779" d="M172 350Q162 350 158 356T155 372L208 623L135 576Q127 571 119 572T105 581L100 591Q96 599 99 607T111 622L222 693Q233 700 246 700H260Q270 700 275 694T278 678L213 372Q208 350 186 350H172ZM39 0Q25 0 23
11T29 31L660 681Q669 690 676 695T697 700H722Q736 700 738 689T732 669L101 19Q92 10 85 5T64 0H39ZM613 0Q603 0 599 6T596 22L607 75H460Q450 75 446 81T443 97L445 110Q446 112 449 120T464 140L642 332Q652 343 660 346T675 350H701Q711 350 716 344T719
328L677 131H712Q722 131 726 125T729 109L727 97Q722 75 700 75H665L654 22Q649 0 627 0H613ZM525 131H619L648 266L525 131Z" />
<glyph unicode="&#xbd;" horiz-adv-x="784" d="M172 350Q162 350 158 356T155 372L208 623L135 576Q127 571 119 572T105 581L100 591Q96 599 99 607T111 622L222 693Q233 700 246 700H260Q270 700 275 694T278 678L213 372Q208 350 186 350H172ZM39 0Q25 0 23
11T29 31L660 681Q669 690 676 695T697 700H722Q736 700 738 689T732 669L101 19Q92 10 85 5T64 0H39ZM453 0Q443 0 439 6T436 22L439 39Q441 47 447 54T470 72Q544 118 588 145T655 195T683 244Q688 270 672 285T630 300Q603 300 588 292T565 273T553 257Q545
246 539 243T525 239H510Q490 239 496 258Q503 282 525 304T577 340T642 355Q699 355 724 322T741 244Q733 207 711 180T648 124T542 56H694Q704 56 708 50T711 34L709 22Q704 0 682 0H453Z" />
<glyph unicode="&#xbe;" horiz-adv-x="846" d="M188 345Q144 345 117 356T79 386T71 425Q73 435 80 439T92 444H112Q119 444 124 440T131 430Q135 423 140 416T159 405T200 401Q233 401 258 414T289 451Q295 480 277 490T227 501H187Q177 501 173 507T170 523L173
540Q175 547 179 552T190 563L297 644H155Q145 644 140 650T137 666L140 678Q145 700 166 700H364Q374 700 379 694T382 678L379 666Q377 655 373 647T355 627L264 557Q320 554 337 524T347 451Q340 418 319 395T265 358T188 345ZM106 0Q92 0 90 11T96 31L727 681Q736
690 743 695T764 700H789Q803 700 805 689T799 669L168 19Q159 10 152 5T131 0H106ZM680 0Q670 0 666 6T663 22L674 75H527Q517 75 513 81T510 97L512 110Q513 112 516 120T531 140L709 332Q719 343 727 346T742 350H768Q778 350 783 344T786 328L744 131H779Q789
131 793 125T796 109L794 97Q789 75 767 75H732L721 22Q716 0 694 0H680ZM592 131H686L715 266L592 131Z" />
<glyph unicode="&#xbf;" horiz-adv-x="496" d="M433 377Q443 377 448 371T451 355Q448 343 446 331T441 307Q431 261 407 226T351 163T289 109T233 57T197 -2Q183 -43 198 -72T245 -117T317 -132Q376 -132 426 -101T506 7Q511 21 519 25T534 29H550Q559 29 564
24T567 9Q557 -33 533 -69T474 -132T396 -174T305 -190Q250 -190 213 -174T156 -132T131 -72T136 -3Q148 39 173 71T231 131T294 185T348 241T380 307Q382 319 384 331T390 355Q392 365 399 371T416 377H433ZM476 520Q486 520 490 514T493 498L485 460Q483 450
476 444T458 437H420Q410 437 405 443T402 460L410 498Q412 508 420 514T438 520H476Z" />
<glyph unicode="&#xc0;" horiz-adv-x="653" d="M-17 0Q-30 0 -34 10T-33 31L358 680Q364 690 371 695T391 700H433Q445 700 451 695T458 680L573 31Q576 16 571 8T555 0H534Q525 0 519 5T511 21L481 175H128L30 15Q26 8 19 4T5 0H-17ZM164 235H471L401 629L164
235ZM421 750Q411 750 405 751T392 760L305 846Q298 853 300 862Q304 880 323 880H369Q384 880 389 876T402 862L453 779Q457 772 455 766Q451 750 436 750H421Z" />
<glyph unicode="&#xc1;" horiz-adv-x="653" d="M-17 0Q-30 0 -34 10T-33 31L358 680Q364 690 371 695T391 700H433Q445 700 451 695T458 680L573 31Q576 16 571 8T555 0H534Q525 0 519 5T511 21L481 175H128L30 15Q26 8 19 4T5 0H-17ZM164 235H471L401 629L164
235ZM403 750Q389 750 389 762Q389 770 396 777L485 862Q495 872 503 876T526 880H572Q580 880 584 876T588 866Q588 855 579 849L451 760Q441 753 435 752T418 750H403Z" />
<glyph unicode="&#xc2;" horiz-adv-x="653" d="M-17 0Q-30 0 -34 10T-33 31L358 680Q364 690 371 695T391 700H433Q445 700 451 695T458 680L573 31Q576 16 571 8T555 0H534Q525 0 519 5T511 21L481 175H128L30 15Q26 8 19 4T5 0H-17ZM164 235H471L401 629L164
235ZM290 750Q279 750 279 760Q279 768 288 775L400 866Q413 877 420 878T435 880H445Q453 880 459 879T474 866L547 776Q553 769 551 761Q549 750 536 750H516Q510 750 506 752T499 757L434 817L343 757Q338 754 334 752T324 750H290Z" />
<glyph unicode="&#xc3;" horiz-adv-x="653" d="M-17 0Q-30 0 -34 10T-33 31L358 680Q364 690 371 695T391 700H433Q445 700 451 695T458 680L573 31Q576 16 571 8T555 0H534Q525 0 519 5T511 21L481 175H128L30 15Q26 8 19 4T5 0H-17ZM164 235H471L401 629L164
235ZM473 745Q450 745 436 753T409 770T383 779Q367 779 360 772T347 758T330 750H310Q303 750 300 755T297 766Q299 780 307 794T326 819T353 837T383 844Q407 844 421 836T447 819T473 810Q490 810 497 817T510 832T526 840H546Q554 840 557 835T559 824Q557
810 549 796T529 771T503 752T473 745Z" />
<glyph unicode="&#xc4;" horiz-adv-x="653" d="M-17 0Q-30 0 -34 10T-33 31L358 680Q364 690 371 695T391 700H433Q445 700 451 695T458 680L573 31Q576 16 571 8T555 0H534Q525 0 519 5T511 21L481 175H128L30 15Q26 8 19 4T5 0H-17ZM164 235H471L401 629L164
235ZM490 750Q480 750 476 756T473 772L481 810Q483 820 490 826T508 833H546Q556 833 561 827T564 810L556 772Q554 762 546 756T528 750H490ZM307 750Q297 750 293 756T290 772L298 810Q300 820 307 826T325 833H363Q373 833 378 827T381 810L373 772Q371 762
363 756T345 750H307Z" />
<glyph unicode="&#xc5;" horiz-adv-x="653" d="M-17 0Q-30 0 -34 10T-33 31L358 680Q364 690 371 695T391 700H433Q445 700 451 695T458 680L573 31Q576 16 571 8T555 0H534Q525 0 519 5T511 21L481 175H128L30 15Q26 8 19 4T5 0H-17ZM164 235H471L401 629L164
235ZM419 740Q386 740 366 761T352 815Q360 848 386 869T445 890Q478 890 499 869T512 815Q505 781 479 761T419 740ZM422 785Q437 785 448 793T462 815Q465 828 460 836T441 845Q426 845 416 837T402 815Q399 802 404 794T422 785Z" />
<glyph unicode="&#xc6;" horiz-adv-x="943" d="M-9 0Q-28 0 -28 13T-24 36L364 681Q372 693 379 696T394 700H944Q955 700 959 694T962 677L959 662Q957 652 950 646T932 640H583L528 385H855Q866 385 870 379T873 362L870 347Q868 337 861 331T843 325H516L459
60H816Q827 60 831 54T834 37L831 22Q829 12 822 6T804 0H406Q396 0 391 6T388 22L421 175H134L36 15Q32 8 25 4T11 0H-9ZM170 235H433L518 633H409L170 235Z" />
<glyph unicode="&#xc7;" horiz-adv-x="650" d="M218 -220Q190 -219 171 -210T145 -188T147 -169L164 -156Q174 -148 180 -153T196 -166T228 -174Q245 -174 260 -164T280 -134Q284 -116 273 -106T245 -96Q229 -96 218 -100T198 -106T184 -100L172 -83Q168 -77 173
-69T183 -53L213 -6Q143 5 105 41T57 134T59 261Q66 302 76 349T97 439Q117 517 157 578T263 675T419 710Q490 710 536 690T606 638T638 568T640 494Q639 485 632 480T615 474H595Q587 474 582 478T577 495Q577 584 532 617T406 650Q315 650 251 599T158 434Q148
393 140 351T123 266Q103 153 145 102T279 50Q359 50 418 83T516 205Q521 217 527 221T542 226H562Q571 226 576 221T579 206Q570 170 547 133T485 63T392 10T266 -10L233 -58Q240 -54 251 -52T273 -50Q306 -50 322 -73T331 -132Q324 -168 295 -194T218 -220Z"
/>
<glyph unicode="&#xc8;" horiz-adv-x="591" d="M54 0Q44 0 39 6T36 22L175 677Q177 688 184 694T202 700H592Q603 700 607 694T610 677L607 662Q605 652 598 646T580 640H231L176 385H503Q514 385 518 379T521 362L518 347Q516 337 509 331T491 325H164L107 60H464Q475
60 479 54T482 37L479 22Q477 12 470 6T452 0H54ZM403 750Q393 750 387 751T374 760L287 846Q280 853 282 862Q286 880 305 880H351Q366 880 371 876T384 862L435 779Q439 772 437 766Q433 750 418 750H403Z" />
<glyph unicode="&#xc9;" horiz-adv-x="591" d="M54 0Q44 0 39 6T36 22L175 677Q177 688 184 694T202 700H592Q603 700 607 694T610 677L607 662Q605 652 598 646T580 640H231L176 385H503Q514 385 518 379T521 362L518 347Q516 337 509 331T491 325H164L107 60H464Q475
60 479 54T482 37L479 22Q477 12 470 6T452 0H54ZM385 750Q371 750 371 762Q371 770 378 777L467 862Q477 872 485 876T508 880H554Q562 880 566 876T570 866Q570 855 561 849L433 760Q423 753 417 752T400 750H385Z" />
<glyph unicode="&#xca;" horiz-adv-x="591" d="M54 0Q44 0 39 6T36 22L175 677Q177 688 184 694T202 700H592Q603 700 607 694T610 677L607 662Q605 652 598 646T580 640H231L176 385H503Q514 385 518 379T521 362L518 347Q516 337 509 331T491 325H164L107 60H464Q475
60 479 54T482 37L479 22Q477 12 470 6T452 0H54ZM272 750Q261 750 261 760Q261 768 270 775L382 866Q395 877 402 878T417 880H427Q435 880 441 879T456 866L529 776Q535 769 533 761Q531 750 518 750H498Q492 750 488 752T481 757L416 817L325 757Q320 754 316
752T306 750H272Z" />
<glyph unicode="&#xcb;" horiz-adv-x="591" d="M54 0Q44 0 39 6T36 22L175 677Q177 688 184 694T202 700H592Q603 700 607 694T610 677L607 662Q605 652 598 646T580 640H231L176 385H503Q514 385 518 379T521 362L518 347Q516 337 509 331T491 325H164L107 60H464Q475
60 479 54T482 37L479 22Q477 12 470 6T452 0H54ZM472 750Q462 750 458 756T455 772L463 810Q465 820 472 826T490 833H528Q538 833 543 827T546 810L538 772Q536 762 528 756T510 750H472ZM289 750Q279 750 275 756T272 772L280 810Q282 820 289 826T307 833H345Q355
833 360 827T363 810L355 772Q353 762 345 756T327 750H289Z" />
<glyph unicode="&#xcc;" horiz-adv-x="252" d="M53 0Q43 0 38 6T35 22L176 678Q178 688 185 694T202 700H221Q231 700 236 694T239 678L99 22Q97 12 90 6T73 0H53ZM223 750Q213 750 207 751T194 760L107 846Q100 853 102 862Q106 880 125 880H171Q186 880 191
876T204 862L255 779Q259 772 257 766Q253 750 238 750H223Z" />
<glyph unicode="&#xcd;" horiz-adv-x="252" d="M53 0Q43 0 38 6T35 22L176 678Q178 688 185 694T202 700H221Q231 700 236 694T239 678L99 22Q97 12 90 6T73 0H53ZM205 750Q191 750 191 762Q191 770 198 777L287 862Q297 872 305 876T328 880H374Q382 880 386
876T390 866Q390 855 381 849L253 760Q243 753 237 752T220 750H205Z" />
<glyph unicode="&#xce;" horiz-adv-x="252" d="M53 0Q43 0 38 6T35 22L176 678Q178 688 185 694T202 700H221Q231 700 236 694T239 678L99 22Q97 12 90 6T73 0H53ZM92 750Q81 750 81 760Q81 768 90 775L202 866Q215 877 222 878T237 880H247Q255 880 261 879T276
866L349 776Q355 769 353 761Q351 750 338 750H318Q312 750 308 752T301 757L236 817L145 757Q140 754 136 752T126 750H92Z" />
<glyph unicode="&#xcf;" horiz-adv-x="252" d="M53 0Q43 0 38 6T35 22L176 678Q178 688 185 694T202 700H221Q231 700 236 694T239 678L99 22Q97 12 90 6T73 0H53ZM292 750Q282 750 278 756T275 772L283 810Q285 820 292 826T310 833H348Q358 833 363 827T366
810L358 772Q356 762 348 756T330 750H292ZM109 750Q99 750 95 756T92 772L100 810Q102 820 109 826T127 833H165Q175 833 180 827T183 810L175 772Q173 762 165 756T147 750H109Z" />
<glyph unicode="&#xd0;" horiz-adv-x="684" d="M61 0Q51 0 46 6T43 22L107 322H44Q34 322 30 328T27 344L30 360Q32 370 39 376T57 382H120L182 677Q184 688 191 694T209 700H412Q480 700 529 683T608 631T647 546T643 430Q634 385 627 351T609 271Q588 179 551
119T452 30T289 0H61ZM114 60H286Q366 60 417 81T498 150T547 276Q554 306 559 328T568 373T579 425Q600 535 563 587T405 640H238L183 382H333Q343 382 347 376T350 360L347 344Q346 334 338 328T320 322H170L114 60Z" />
<glyph unicode="&#xd1;" horiz-adv-x="687" d="M54 0Q44 0 39 6T36 22L175 677Q177 688 184 694T201 700H221Q231 700 235 696T240 688L491 117L610 677Q612 688 619 694T637 700H655Q666 700 670 694T673 677L534 23Q532 13 525 7T508 0H488Q478 0 475 4T469
12L219 581L100 22Q98 12 91 6T73 0H54ZM486 745Q463 745 449 753T422 770T396 779Q380 779 373 772T360 758T343 750H323Q316 750 313 755T310 766Q312 780 320 794T339 819T366 837T396 844Q420 844 434 836T460 819T486 810Q503 810 510 817T523 832T539 840H559Q567
840 570 835T572 824Q570 810 562 796T542 771T516 752T486 745Z" />
<glyph unicode="&#xd2;" horiz-adv-x="662" d="M272 -10Q214 -10 169 6T95 57T57 143T60 266Q68 311 76 350T96 434Q129 574 211 642T412 710Q471 710 516 693T589 642T627 556T624 434Q616 389 608 350T588 266Q554 124 472 57T272 -10ZM272 50Q361 50 429 102T526
271Q537 316 544 350T560 429Q581 546 543 598T412 650Q321 650 254 598T158 429Q147 384 140 350T124 271Q103 154 141 102T272 50ZM426 750Q416 750 410 751T397 760L310 846Q303 853 305 862Q309 880 328 880H374Q389 880 394 876T407 862L458 779Q462 772 460
766Q456 750 441 750H426Z" />
<glyph unicode="&#xd3;" horiz-adv-x="662" d="M272 -10Q214 -10 169 6T95 57T57 143T60 266Q68 311 76 350T96 434Q129 574 211 642T412 710Q471 710 516 693T589 642T627 556T624 434Q616 389 608 350T588 266Q554 124 472 57T272 -10ZM272 50Q361 50 429 102T526
271Q537 316 544 350T560 429Q581 546 543 598T412 650Q321 650 254 598T158 429Q147 384 140 350T124 271Q103 154 141 102T272 50ZM408 750Q394 750 394 762Q394 770 401 777L490 862Q500 872 508 876T531 880H577Q585 880 589 876T593 866Q593 855 584 849L456
760Q446 753 440 752T423 750H408Z" />
<glyph unicode="&#xd4;" horiz-adv-x="662" d="M272 -10Q214 -10 169 6T95 57T57 143T60 266Q68 311 76 350T96 434Q129 574 211 642T412 710Q471 710 516 693T589 642T627 556T624 434Q616 389 608 350T588 266Q554 124 472 57T272 -10ZM272 50Q361 50 429 102T526
271Q537 316 544 350T560 429Q581 546 543 598T412 650Q321 650 254 598T158 429Q147 384 140 350T124 271Q103 154 141 102T272 50ZM295 750Q284 750 284 760Q284 768 293 775L405 866Q418 877 425 878T440 880H450Q458 880 464 879T479 866L552 776Q558 769 556
761Q554 750 541 750H521Q515 750 511 752T504 757L439 817L348 757Q343 754 339 752T329 750H295Z" />
<glyph unicode="&#xd5;" horiz-adv-x="662" d="M272 -10Q214 -10 169 6T95 57T57 143T60 266Q68 311 76 350T96 434Q129 574 211 642T412 710Q471 710 516 693T589 642T627 556T624 434Q616 389 608 350T588 266Q554 124 472 57T272 -10ZM272 50Q361 50 429 102T526
271Q537 316 544 350T560 429Q581 546 543 598T412 650Q321 650 254 598T158 429Q147 384 140 350T124 271Q103 154 141 102T272 50ZM478 745Q455 745 441 753T414 770T388 779Q372 779 365 772T352 758T335 750H315Q308 750 305 755T302 766Q304 780 312 794T331
819T358 837T388 844Q412 844 426 836T452 819T478 810Q495 810 502 817T515 832T531 840H551Q559 840 562 835T564 824Q562 810 554 796T534 771T508 752T478 745Z" />
<glyph unicode="&#xd6;" horiz-adv-x="662" d="M272 -10Q214 -10 169 6T95 57T57 143T60 266Q68 311 76 350T96 434Q129 574 211 642T412 710Q471 710 516 693T589 642T627 556T624 434Q616 389 608 350T588 266Q554 124 472 57T272 -10ZM272 50Q361 50 429 102T526
271Q537 316 544 350T560 429Q581 546 543 598T412 650Q321 650 254 598T158 429Q147 384 140 350T124 271Q103 154 141 102T272 50ZM495 750Q485 750 481 756T478 772L486 810Q488 820 495 826T513 833H551Q561 833 566 827T569 810L561 772Q559 762 551 756T533
750H495ZM312 750Q302 750 298 756T295 772L303 810Q305 820 312 826T330 833H368Q378 833 383 827T386 810L378 772Q376 762 368 756T350 750H312Z" />
<glyph unicode="&#xd7;" horiz-adv-x="537" d="M45 104L34 119Q29 126 31 134T41 150L229 303L112 457Q107 464 108 472T118 488L127 495Q135 502 144 502T158 495L276 338L467 497Q475 504 484 504T498 497L509 483Q514 476 513 468T503 452L313 297L433 144Q438
137 436 129T426 113L418 107Q410 100 401 100T387 107L266 259L76 104Q68 97 59 97T45 104Z" />
<glyph unicode="&#xd8;" horiz-adv-x="662" d="M272 -10Q214 -10 169 6T95 57T57 143T60 266Q68 311 76 350T96 434Q129 574 211 642T412 710Q471 710 516 693T589 642T627 556T624 434Q616 389 608 350T588 266Q554 124 472 57T272 -10ZM272 50Q361 50 429 102T526
271Q537 316 544 350T560 429Q581 546 543 598T412 650Q321 650 254 598T158 429Q147 384 140 350T124 271Q103 154 141 102T272 50ZM55 191Q45 191 39 199T42 220L603 1006Q605 1010 611 1015T628 1021H645Q655 1021 661 1014T658 992L97 206Q95 202 89 197T72
191H55Z" />
<glyph unicode="&#xd9;" horiz-adv-x="691" d="M286 -10Q222 -10 176 6T105 57T74 145T83 271L169 677Q171 688 178 694T196 700H214Q225 700 229 694T232 677L145 268Q121 156 153 103T286 50Q383 50 446 103T534 268L621 677Q623 688 631 694T649 700H667Q677
700 681 694T684 677L598 271Q567 126 492 58T286 -10ZM433 750Q423 750 417 751T404 760L317 846Q310 853 312 862Q316 880 335 880H381Q396 880 401 876T414 862L465 779Q469 772 467 766Q463 750 448 750H433Z" />
<glyph unicode="&#xda;" horiz-adv-x="691" d="M286 -10Q222 -10 176 6T105 57T74 145T83 271L169 677Q171 688 178 694T196 700H214Q225 700 229 694T232 677L145 268Q121 156 153 103T286 50Q383 50 446 103T534 268L621 677Q623 688 631 694T649 700H667Q677
700 681 694T684 677L598 271Q567 126 492 58T286 -10ZM415 750Q401 750 401 762Q401 770 408 777L497 862Q507 872 515 876T538 880H584Q592 880 596 876T600 866Q600 855 591 849L463 760Q453 753 447 752T430 750H415Z" />
<glyph unicode="&#xdb;" horiz-adv-x="691" d="M286 -10Q222 -10 176 6T105 57T74 145T83 271L169 677Q171 688 178 694T196 700H214Q225 700 229 694T232 677L145 268Q121 156 153 103T286 50Q383 50 446 103T534 268L621 677Q623 688 631 694T649 700H667Q677
700 681 694T684 677L598 271Q567 126 492 58T286 -10ZM302 750Q291 750 291 760Q291 768 300 775L412 866Q425 877 432 878T447 880H457Q465 880 471 879T486 866L559 776Q565 769 563 761Q561 750 548 750H528Q522 750 518 752T511 757L446 817L355 757Q350 754
346 752T336 750H302Z" />
<glyph unicode="&#xdc;" horiz-adv-x="691" d="M286 -10Q222 -10 176 6T105 57T74 145T83 271L169 677Q171 688 178 694T196 700H214Q225 700 229 694T232 677L145 268Q121 156 153 103T286 50Q383 50 446 103T534 268L621 677Q623 688 631 694T649 700H667Q677
700 681 694T684 677L598 271Q567 126 492 58T286 -10ZM502 750Q492 750 488 756T485 772L493 810Q495 820 502 826T520 833H558Q568 833 573 827T576 810L568 772Q566 762 558 756T540 750H502ZM319 750Q309 750 305 756T302 772L310 810Q312 820 319 826T337
833H375Q385 833 390 827T393 810L385 772Q383 762 375 756T357 750H319Z" />
<glyph unicode="&#xdd;" horiz-adv-x="629" d="M242 0Q232 0 227 6T224 22L275 267L116 667Q112 678 119 689T139 700H156Q163 700 168 697T176 685L315 335L602 685Q608 693 614 696T628 700H659Q676 700 676 689T668 667L339 267L286 22Q284 12 277 6T259 0H242ZM366
750Q352 750 352 762Q352 770 359 777L448 862Q458 872 466 876T489 880H535Q543 880 547 876T551 866Q551 855 542 849L414 760Q404 753 398 752T381 750H366Z" />
<glyph unicode="&#xde;" horiz-adv-x="633" d="M54 0Q44 0 39 6T36 22L176 678Q178 688 185 694T202 700H221Q231 700 236 694T239 678L213 557H410Q465 557 506 544T571 505T604 440T601 350Q579 248 510 196T333 143H125L99 22Q97 12 90 6T72 0H54ZM138 203H328Q410
203 466 241T538 350Q548 398 542 430T504 480T403 497H200L138 203Z" />
<glyph unicode="&#xdf;" horiz-adv-x="568" d="M55 0Q45 0 41 6T38 22L140 502Q152 557 182 604T263 680T386 710Q459 710 497 682T548 613T550 528Q541 485 521 455T475 405T428 377Q473 362 492 334T515 272T510 202Q503 169 484 134T432 68T355 19T251 0H176Q166
0 162 6T159 22L162 36Q164 46 171 52T189 58H254Q336 58 386 100T449 202Q462 263 430 305T315 347H250Q240 347 236 353T233 369L236 383Q238 393 245 399T262 405H317Q392 406 434 437T489 528Q501 582 470 617T374 652Q310 652 264 614T200 497L99 22Q97 12
90 6T72 0H55Z" />
<glyph unicode="&#xe0;" horiz-adv-x="569" d="M207 -10Q149 -10 113 11T59 67T38 145T41 232Q43 247 46 260T53 288Q64 332 83 374T132 452T206 509T310 530Q376 530 409 507T459 451L469 498Q471 508 478 514T495 520H512Q522 520 527 514T530 498L429 22Q427
12 420 6T403 0H386Q376 0 371 6T368 22L378 69Q347 35 310 13T207 -10ZM207 48Q264 48 306 75T374 142T411 224Q415 239 420 263T428 302Q436 342 429 381T394 446T310 472Q256 472 218 446T154 378T115 288Q111 273 108 260T103 232Q96 184 99 142T128 74T207
48ZM340 595Q330 595 324 596T311 605L224 691Q217 698 219 707Q223 725 240 725H283Q298 725 304 721T316 707L366 626Q371 618 369 610Q365 595 350 595H340Z" />
<glyph unicode="&#xe1;" horiz-adv-x="569" d="M207 -10Q149 -10 113 11T59 67T38 145T41 232Q43 247 46 260T53 288Q64 332 83 374T132 452T206 509T310 530Q376 530 409 507T459 451L469 498Q471 508 478 514T495 520H512Q522 520 527 514T530 498L429 22Q427
12 420 6T403 0H386Q376 0 371 6T368 22L378 69Q347 35 310 13T207 -10ZM207 48Q264 48 306 75T374 142T411 224Q415 239 420 263T428 302Q436 342 429 381T394 446T310 472Q256 472 218 446T154 378T115 288Q111 273 108 260T103 232Q96 184 99 142T128 74T207
48ZM308 595Q292 595 296 611Q298 618 304 624L391 707Q402 717 409 721T432 725H473Q488 725 488 710Q488 699 480 694L352 605Q342 598 336 597T319 595H308Z" />
<glyph unicode="&#xe2;" horiz-adv-x="569" d="M207 -10Q149 -10 113 11T59 67T38 145T41 232Q43 247 46 260T53 288Q64 332 83 374T132 452T206 509T310 530Q376 530 409 507T459 451L469 498Q471 508 478 514T495 520H512Q522 520 527 514T530 498L429 22Q427
12 420 6T403 0H386Q376 0 371 6T368 22L378 69Q347 35 310 13T207 -10ZM207 48Q264 48 306 75T374 142T411 224Q415 239 420 263T428 302Q436 342 429 381T394 446T310 472Q256 472 218 446T154 378T115 288Q111 273 108 260T103 232Q96 184 99 142T128 74T207
48ZM205 595Q194 595 194 605Q194 613 203 620L315 711Q328 722 335 723T350 725H360Q368 725 374 724T389 711L462 621Q468 614 466 606Q464 595 451 595H431Q425 595 421 597T414 602L349 662L258 602Q253 599 249 597T239 595H205Z" />
<glyph unicode="&#xe3;" horiz-adv-x="569" d="M207 -10Q149 -10 113 11T59 67T38 145T41 232Q43 247 46 260T53 288Q64 332 83 374T132 452T206 509T310 530Q376 530 409 507T459 451L469 498Q471 508 478 514T495 520H512Q522 520 527 514T530 498L429 22Q427
12 420 6T403 0H386Q376 0 371 6T368 22L378 69Q347 35 310 13T207 -10ZM207 48Q264 48 306 75T374 142T411 224Q415 239 420 263T428 302Q436 342 429 381T394 446T310 472Q256 472 218 446T154 378T115 288Q111 273 108 260T103 232Q96 184 99 142T128 74T207
48ZM385 590Q362 590 349 598T326 615T301 624Q290 624 283 617T268 603T250 595H230Q223 595 220 600T217 611Q219 625 226 638T245 661T271 678T301 684Q325 684 338 676T361 659T385 650Q397 650 404 657T417 672T435 680H455Q463 680 466 675T468 664Q466 650
459 637T440 613T414 596T385 590Z" />
<glyph unicode="&#xe4;" horiz-adv-x="569" d="M207 -10Q149 -10 113 11T59 67T38 145T41 232Q43 247 46 260T53 288Q64 332 83 374T132 452T206 509T310 530Q376 530 409 507T459 451L469 498Q471 508 478 514T495 520H512Q522 520 527 514T530 498L429 22Q427
12 420 6T403 0H386Q376 0 371 6T368 22L378 69Q347 35 310 13T207 -10ZM207 48Q264 48 306 75T374 142T411 224Q415 239 420 263T428 302Q436 342 429 381T394 446T310 472Q256 472 218 446T154 378T115 288Q111 273 108 260T103 232Q96 184 99 142T128 74T207
48ZM397 627Q387 627 383 633T379 649L388 687Q390 697 397 703T414 710H452Q462 710 467 704T471 687L462 649Q460 639 453 633T435 627H397ZM244 627Q234 627 230 633T226 649L235 687Q237 697 244 703T261 710H299Q309 710 314 704T318 687L309 649Q307 639
300 633T282 627H244Z" />
<glyph unicode="&#xe5;" horiz-adv-x="569" d="M207 -10Q149 -10 113 11T59 67T38 145T41 232Q43 247 46 260T53 288Q64 332 83 374T132 452T206 509T310 530Q376 530 409 507T459 451L469 498Q471 508 478 514T495 520H512Q522 520 527 514T530 498L429 22Q427
12 420 6T403 0H386Q376 0 371 6T368 22L378 69Q347 35 310 13T207 -10ZM207 48Q264 48 306 75T374 142T411 224Q415 239 420 263T428 302Q436 342 429 381T394 446T310 472Q256 472 218 446T154 378T115 288Q111 273 108 260T103 232Q96 184 99 142T128 74T207
48ZM335 590Q302 590 282 611T268 665Q276 698 302 719T361 740Q394 740 415 719T428 665Q421 631 395 611T335 590ZM338 635Q353 635 364 643T378 665Q381 678 376 686T357 695Q342 695 332 687T318 665Q315 652 320 644T338 635Z" />
<glyph unicode="&#xe6;" horiz-adv-x="881" d="M171 -10Q118 -10 82 10T31 63T24 139Q38 207 102 249T257 304L420 326L426 358Q437 411 412 441T315 472Q278 472 250 462T202 437T174 404Q168 392 162 388T146 383H132Q123 383 118 389T114 405Q117 419 132 440T173
481T238 516T327 530Q403 530 439 505T486 442Q520 481 568 505T679 530Q735 530 769 513T822 468T845 406T848 337T839 272L836 257Q834 247 826 241T808 235H462L460 225Q448 160 463 121T510 65T575 48Q614 48 655 63T728 113Q739 125 745 128T762 131H774Q783
131 788 126T791 111Q788 100 772 80T725 40T655 5T563 -10Q490 -10 452 21T399 100Q359 45 302 18T171 -10ZM193 48Q239 48 281 68T355 129T400 234L407 268L274 250Q190 239 142 212T86 144Q79 111 93 90T135 59T193 48ZM474 291H782L783 295Q794 346 786 386T749
449T667 472Q629 472 591 453T521 395T475 295L474 291Z" />
<glyph unicode="&#xe7;" horiz-adv-x="535" d="M181 -220Q153 -220 131 -211T99 -189T100 -169L116 -156Q125 -149 130 -154T147 -166T181 -174Q198 -174 213 -164T232 -134Q236 -116 225 -106T197 -96Q181 -96 170 -100T150 -106T136 -100L124 -83Q120 -77 125
-69T135 -53L166 -5Q117 5 85 35T41 112T40 220Q43 235 48 260T57 300Q83 407 149 468T321 530Q376 530 412 515T468 475T496 422T500 366Q499 356 494 350T479 344H460Q450 344 445 348T440 365Q442 422 410 447T321 472Q253 472 197 431T117 295Q113 280 109
260T102 225Q86 131 118 90T218 48Q271 48 317 70T393 150Q400 163 405 167T420 171H438Q447 171 451 165T453 149Q445 122 427 94T381 43T312 5T219 -10L185 -57Q192 -53 203 -52T225 -50Q254 -50 272 -74T282 -135Q275 -171 250 -195T181 -220Z" />
<glyph unicode="&#xe8;" d="M223 -10Q159 -10 118 19T60 100T53 220Q55 235 60 260T70 300Q90 368 128 420T219 501T338 530Q408 530 450 499T506 410T504 272L501 257Q499 247 491 241T473 235H117Q117 235 117 231T115 225Q108 180 118 140T157 74T235 48Q278
48 309 61T361 89T388 113Q400 126 405 128T422 131H438Q447 131 452 126T455 111Q451 97 433 77T383 36T311 3T223 -10ZM129 291H447L448 295Q461 345 450 385T408 448T326 472Q276 472 237 449T170 385T130 295L129 291ZM358 595Q348 595 342 596T329 605L242
691Q235 698 237 707Q241 725 258 725H301Q316 725 322 721T334 707L384 626Q389 618 387 610Q383 595 368 595H358Z" />
<glyph unicode="&#xe9;" d="M223 -10Q159 -10 118 19T60 100T53 220Q55 235 60 260T70 300Q90 368 128 420T219 501T338 530Q408 530 450 499T506 410T504 272L501 257Q499 247 491 241T473 235H117Q117 235 117 231T115 225Q108 180 118 140T157 74T235 48Q278
48 309 61T361 89T388 113Q400 126 405 128T422 131H438Q447 131 452 126T455 111Q451 97 433 77T383 36T311 3T223 -10ZM129 291H447L448 295Q461 345 450 385T408 448T326 472Q276 472 237 449T170 385T130 295L129 291ZM326 595Q310 595 314 611Q316 618 322
624L409 707Q420 717 427 721T450 725H491Q506 725 506 710Q506 699 498 694L370 605Q360 598 354 597T337 595H326Z" />
<glyph unicode="&#xea;" d="M223 -10Q159 -10 118 19T60 100T53 220Q55 235 60 260T70 300Q90 368 128 420T219 501T338 530Q408 530 450 499T506 410T504 272L501 257Q499 247 491 241T473 235H117Q117 235 117 231T115 225Q108 180 118 140T157 74T235 48Q278
48 309 61T361 89T388 113Q400 126 405 128T422 131H438Q447 131 452 126T455 111Q451 97 433 77T383 36T311 3T223 -10ZM129 291H447L448 295Q461 345 450 385T408 448T326 472Q276 472 237 449T170 385T130 295L129 291ZM223 595Q212 595 212 605Q212 613 221
620L333 711Q346 722 353 723T368 725H378Q386 725 392 724T407 711L480 621Q486 614 484 606Q482 595 469 595H449Q443 595 439 597T432 602L367 662L276 602Q271 599 267 597T257 595H223Z" />
<glyph unicode="&#xeb;" d="M223 -10Q159 -10 118 19T60 100T53 220Q55 235 60 260T70 300Q90 368 128 420T219 501T338 530Q408 530 450 499T506 410T504 272L501 257Q499 247 491 241T473 235H117Q117 235 117 231T115 225Q108 180 118 140T157 74T235 48Q278
48 309 61T361 89T388 113Q400 126 405 128T422 131H438Q447 131 452 126T455 111Q451 97 433 77T383 36T311 3T223 -10ZM129 291H447L448 295Q461 345 450 385T408 448T326 472Q276 472 237 449T170 385T130 295L129 291ZM415 627Q405 627 401 633T397 649L406
687Q408 697 415 703T432 710H470Q480 710 485 704T489 687L480 649Q478 639 471 633T453 627H415ZM262 627Q252 627 248 633T244 649L253 687Q255 697 262 703T279 710H317Q327 710 332 704T336 687L327 649Q325 639 318 633T300 627H262Z" />
<glyph unicode="&#xec;" horiz-adv-x="224" d="M41 0Q31 0 26 6T23 22L124 498Q126 508 133 514T151 520H168Q178 520 182 514T185 498L84 22Q82 12 75 6T58 0H41ZM182 595Q172 595 166 596T153 605L66 691Q59 698 61 707Q65 725 82 725H125Q140 725 146 721T158
707L208 626Q213 618 211 610Q207 595 192 595H182Z" />
<glyph unicode="&#xed;" horiz-adv-x="224" d="M41 0Q31 0 26 6T23 22L124 498Q126 508 133 514T151 520H168Q178 520 182 514T185 498L84 22Q82 12 75 6T58 0H41ZM150 595Q134 595 138 611Q140 618 146 624L233 707Q244 717 251 721T274 725H315Q330 725 330
710Q330 699 322 694L194 605Q184 598 178 597T161 595H150Z" />
<glyph unicode="&#xee;" horiz-adv-x="224" d="M41 0Q31 0 26 6T23 22L124 498Q126 508 133 514T151 520H168Q178 520 182 514T185 498L84 22Q82 12 75 6T58 0H41ZM47 595Q36 595 36 605Q36 613 45 620L157 711Q170 722 177 723T192 725H202Q210 725 216 724T231
711L304 621Q310 614 308 606Q306 595 293 595H273Q267 595 263 597T256 602L191 662L100 602Q95 599 91 597T81 595H47Z" />
<glyph unicode="&#xef;" horiz-adv-x="224" d="M41 0Q31 0 26 6T23 22L124 498Q126 508 133 514T151 520H168Q178 520 182 514T185 498L84 22Q82 12 75 6T58 0H41ZM239 627Q229 627 225 633T221 649L230 687Q232 697 239 703T256 710H294Q304 710 309 704T313
687L304 649Q302 639 295 633T277 627H239ZM86 627Q76 627 72 633T68 649L77 687Q79 697 86 703T103 710H141Q151 710 156 704T160 687L151 649Q149 639 142 633T124 627H86Z" />
<glyph unicode="&#xf0;" horiz-adv-x="550" d="M222 -10Q150 -10 108 21T53 108T54 231Q68 300 104 354T196 439T324 470Q364 470 395 460T448 431Q444 467 434 497T409 553L305 516Q296 513 291 513Q283 513 279 517T276 531L280 550Q282 561 288 566T307 575L375
599Q363 613 349 628T320 658Q311 666 309 671T308 680Q310 689 316 694T332 700H352Q364 700 371 697T385 687Q401 671 414 655T440 622L541 658Q549 661 555 661Q563 661 567 657T570 643L566 624Q564 613 558 609T539 599L471 575Q503 520 511 440T493 232Q492
231 492 231T492 229Q478 161 442 107T350 21T222 -10ZM234 48Q286 48 326 72T393 137T431 228Q431 229 431 230T432 232Q443 282 434 323T395 388T312 412Q260 412 220 388T153 323T116 232Q115 230 115 229T114 226Q105 177 114 137T153 72T234 48Z" />
<glyph unicode="&#xf1;" horiz-adv-x="590" d="M41 0Q31 0 26 6T23 22L124 498Q126 508 133 514T151 520H168Q178 520 182 514T185 498L175 451Q206 486 250 508T351 530Q427 530 467 501T519 421T516 306L455 22Q453 12 446 6T429 0H412Q402 0 397 6T394 22L453
301Q471 386 452 429T351 472Q272 472 216 427T143 301L84 22Q82 12 75 6T58 0H41ZM411 590Q388 590 375 598T352 615T327 624Q316 624 309 617T294 603T276 595H256Q249 595 246 600T243 611Q245 625 252 638T271 661T297 678T327 684Q351 684 364 676T387 659T411
650Q423 650 430 657T443 672T461 680H481Q489 680 492 675T494 664Q492 650 485 637T466 613T440 596T411 590Z" />
<glyph unicode="&#xf2;" horiz-adv-x="556" d="M218 -10Q149 -10 105 20T44 102T39 218Q41 233 47 260T57 302Q73 367 107 418T195 500T321 530Q393 530 436 500T496 419T501 302Q498 287 493 260T483 218Q467 154 433 102T345 20T218 -10ZM218 48Q289 48 345
93T423 223Q427 238 431 260T439 297Q454 383 423 427T321 472Q251 472 195 428T117 297Q113 282 108 260T101 223Q86 138 116 93T218 48ZM349 595Q339 595 333 596T320 605L233 691Q226 698 228 707Q232 725 249 725H292Q307 725 313 721T325 707L375 626Q380
618 378 610Q374 595 359 595H349Z" />
<glyph unicode="&#xf3;" horiz-adv-x="556" d="M218 -10Q149 -10 105 20T44 102T39 218Q41 233 47 260T57 302Q73 367 107 418T195 500T321 530Q393 530 436 500T496 419T501 302Q498 287 493 260T483 218Q467 154 433 102T345 20T218 -10ZM218 48Q289 48 345
93T423 223Q427 238 431 260T439 297Q454 383 423 427T321 472Q251 472 195 428T117 297Q113 282 108 260T101 223Q86 138 116 93T218 48ZM317 595Q301 595 305 611Q307 618 313 624L400 707Q411 717 418 721T441 725H482Q497 725 497 710Q497 699 489 694L361
605Q351 598 345 597T328 595H317Z" />
<glyph unicode="&#xf4;" horiz-adv-x="556" d="M218 -10Q149 -10 105 20T44 102T39 218Q41 233 47 260T57 302Q73 367 107 418T195 500T321 530Q393 530 436 500T496 419T501 302Q498 287 493 260T483 218Q467 154 433 102T345 20T218 -10ZM218 48Q289 48 345
93T423 223Q427 238 431 260T439 297Q454 383 423 427T321 472Q251 472 195 428T117 297Q113 282 108 260T101 223Q86 138 116 93T218 48ZM214 595Q203 595 203 605Q203 613 212 620L324 711Q337 722 344 723T359 725H369Q377 725 383 724T398 711L471 621Q477
614 475 606Q473 595 460 595H440Q434 595 430 597T423 602L358 662L267 602Q262 599 258 597T248 595H214Z" />
<glyph unicode="&#xf5;" horiz-adv-x="556" d="M218 -10Q149 -10 105 20T44 102T39 218Q41 233 47 260T57 302Q73 367 107 418T195 500T321 530Q393 530 436 500T496 419T501 302Q498 287 493 260T483 218Q467 154 433 102T345 20T218 -10ZM218 48Q289 48 345
93T423 223Q427 238 431 260T439 297Q454 383 423 427T321 472Q251 472 195 428T117 297Q113 282 108 260T101 223Q86 138 116 93T218 48ZM394 590Q371 590 358 598T335 615T310 624Q299 624 292 617T277 603T259 595H239Q232 595 229 600T226 611Q228 625 235
638T254 661T280 678T310 684Q334 684 347 676T370 659T394 650Q406 650 413 657T426 672T444 680H464Q472 680 475 675T477 664Q475 650 468 637T449 613T423 596T394 590Z" />
<glyph unicode="&#xf6;" horiz-adv-x="556" d="M218 -10Q149 -10 105 20T44 102T39 218Q41 233 47 260T57 302Q73 367 107 418T195 500T321 530Q393 530 436 500T496 419T501 302Q498 287 493 260T483 218Q467 154 433 102T345 20T218 -10ZM218 48Q289 48 345
93T423 223Q427 238 431 260T439 297Q454 383 423 427T321 472Q251 472 195 428T117 297Q113 282 108 260T101 223Q86 138 116 93T218 48ZM406 627Q396 627 392 633T388 649L397 687Q399 697 406 703T423 710H461Q471 710 476 704T480 687L471 649Q469 639 462
633T444 627H406ZM253 627Q243 627 239 633T235 649L244 687Q246 697 253 703T270 710H308Q318 710 323 704T327 687L318 649Q316 639 309 633T291 627H253Z" />
<glyph unicode="&#xf7;" horiz-adv-x="561" d="M210 80Q200 80 195 86T192 102L202 150Q204 160 211 166T229 173H277Q287 173 292 167T295 150L285 102Q283 92 276 86T258 80H210ZM284 430Q274 430 270 436T267 452L277 500Q279 510 286 516T304 523H352Q362
523 367 517T370 500L360 452Q358 442 350 436T332 430H284ZM87 272Q77 272 73 278T70 294L73 308Q75 318 82 324T100 330H475Q485 330 489 324T492 308L489 294Q487 284 480 278T462 272H87Z" />
<glyph unicode="&#xf8;" horiz-adv-x="556" d="M218 -10Q149 -10 105 20T44 102T39 218Q41 233 47 260T57 302Q73 367 107 418T195 500T321 530Q393 530 436 500T496 419T501 302Q498 287 493 260T483 218Q467 154 433 102T345 20T218 -10ZM218 48Q289 48 345
93T423 223Q427 238 431 260T439 297Q454 383 423 427T321 472Q251 472 195 428T117 297Q113 282 108 260T101 223Q86 138 116 93T218 48ZM24 -28Q19 -28 14 -24T8 -13Q8 -6 15 1L487 532Q493 538 499 542T517 547H534Q539 547 544 543T549 533Q549 525 542 518L70
-13Q64 -19 58 -23T41 -28H24Z" />
<glyph unicode="&#xf9;" horiz-adv-x="586" d="M222 -10Q146 -10 106 19T56 100T59 214L119 498Q121 508 128 514T146 520H163Q173 520 177 514T180 498L121 219Q109 163 112 125T141 67T222 48Q297 48 353 93T427 219L486 498Q488 508 495 514T513 520H530Q540
520 544 514T547 498L446 22Q444 12 437 6T420 0H403Q393 0 388 6T385 22L395 69Q372 46 350 28T298 0T222 -10ZM350 595Q340 595 334 596T321 605L234 691Q227 698 229 707Q233 725 250 725H293Q308 725 314 721T326 707L376 626Q381 618 379 610Q375 595 360
595H350Z" />
<glyph unicode="&#xfa;" horiz-adv-x="586" d="M222 -10Q146 -10 106 19T56 100T59 214L119 498Q121 508 128 514T146 520H163Q173 520 177 514T180 498L121 219Q109 163 112 125T141 67T222 48Q297 48 353 93T427 219L486 498Q488 508 495 514T513 520H530Q540
520 544 514T547 498L446 22Q444 12 437 6T420 0H403Q393 0 388 6T385 22L395 69Q372 46 350 28T298 0T222 -10ZM318 595Q302 595 306 611Q308 618 314 624L401 707Q412 717 419 721T442 725H483Q498 725 498 710Q498 699 490 694L362 605Q352 598 346 597T329
595H318Z" />
<glyph unicode="&#xfb;" horiz-adv-x="586" d="M222 -10Q146 -10 106 19T56 100T59 214L119 498Q121 508 128 514T146 520H163Q173 520 177 514T180 498L121 219Q109 163 112 125T141 67T222 48Q297 48 353 93T427 219L486 498Q488 508 495 514T513 520H530Q540
520 544 514T547 498L446 22Q444 12 437 6T420 0H403Q393 0 388 6T385 22L395 69Q372 46 350 28T298 0T222 -10ZM215 595Q204 595 204 605Q204 613 213 620L325 711Q338 722 345 723T360 725H370Q378 725 384 724T399 711L472 621Q478 614 476 606Q474 595 461
595H441Q435 595 431 597T424 602L359 662L268 602Q263 599 259 597T249 595H215Z" />
<glyph unicode="&#xfc;" horiz-adv-x="586" d="M222 -10Q146 -10 106 19T56 100T59 214L119 498Q121 508 128 514T146 520H163Q173 520 177 514T180 498L121 219Q109 163 112 125T141 67T222 48Q297 48 353 93T427 219L486 498Q488 508 495 514T513 520H530Q540
520 544 514T547 498L446 22Q444 12 437 6T420 0H403Q393 0 388 6T385 22L395 69Q372 46 350 28T298 0T222 -10ZM407 627Q397 627 393 633T389 649L398 687Q400 697 407 703T424 710H462Q472 710 477 704T481 687L472 649Q470 639 463 633T445 627H407ZM254 627Q244
627 240 633T236 649L245 687Q247 697 254 703T271 710H309Q319 710 324 704T328 687L319 649Q317 639 310 633T292 627H254Z" />
<glyph unicode="&#xfd;" horiz-adv-x="534" d="M63 -190Q52 -190 48 -180T53 -157L176 35L78 494Q76 504 80 512T99 520H117Q127 520 132 516T138 505L223 108L480 505Q484 511 490 515T506 520H530Q538 520 545 513T543 491L112 -175Q108 -181 102 -185T86 -190H63ZM298
595Q282 595 286 611Q288 618 294 624L381 707Q392 717 399 721T422 725H463Q478 725 478 710Q478 699 470 694L342 605Q332 598 326 597T309 595H298Z" />
<glyph unicode="&#xfe;" horiz-adv-x="579" d="M1 -190Q-9 -190 -14 -184T-17 -168L166 688Q168 698 175 704T192 710H209Q219 710 224 705T227 688L176 451Q205 483 245 506T352 530Q410 530 447 509T502 453T525 375T523 288Q521 273 518 260T511 232Q500 189
480 146T429 68T354 11T249 -10Q183 -10 148 13T95 69L44 -168Q42 -178 35 -184T18 -190H1ZM249 48Q304 48 343 74T409 142T449 232Q454 247 456 260T461 288Q469 336 464 378T433 446T352 472Q295 472 252 445T181 378T143 296Q139 281 134 257T126 218Q119 178
127 139T164 74T249 48Z" />
<glyph unicode="&#xff;" horiz-adv-x="534" d="M63 -190Q52 -190 48 -180T53 -157L176 35L78 494Q76 504 80 512T99 520H117Q127 520 132 516T138 505L223 108L480 505Q484 511 490 515T506 520H530Q538 520 545 513T543 491L112 -175Q108 -181 102 -185T86 -190H63ZM387
627Q377 627 373 633T369 649L378 687Q380 697 387 703T404 710H442Q452 710 457 704T461 687L452 649Q450 639 443 633T425 627H387ZM234 627Q224 627 220 633T216 649L225 687Q227 697 234 703T251 710H289Q299 710 304 704T308 687L299 649Q297 639 290 633T272
627H234Z" />
<glyph unicode="&#x2013;" horiz-adv-x="578" d="M90 271Q80 271 76 277T73 293L76 307Q78 317 85 323T102 329H487Q497 329 502 323T505 307L502 293Q500 283 493 277T475 271H90Z" />
<glyph unicode="&#x2014;" horiz-adv-x="768" d="M90 271Q80 271 76 277T73 293L76 307Q78 317 85 323T102 329H677Q687 329 692 323T695 307L692 293Q690 283 683 277T665 271H90Z" />
<glyph unicode="&#x2018;" horiz-adv-x="223" d="M200 569Q196 557 189 550T170 542H125Q112 542 112 551T116 567L188 689Q194 700 200 705T218 710H235Q243 710 246 704T245 689L200 569Z" />
<glyph unicode="&#x2019;" horiz-adv-x="216" d="M163 683Q168 695 174 702T193 710H238Q252 710 252 702T247 685L175 563Q169 553 163 548T145 542H128Q120 542 117 548T118 563L163 683Z" />
<glyph unicode="&#x201a;" horiz-adv-x="238" d="M34 66Q39 78 45 85T64 93H109Q123 93 123 85T118 68L46 -54Q40 -64 34 -69T16 -75H-1Q-9 -75 -12 -69T-11 -54L34 66Z" />
<glyph unicode="&#x201c;" horiz-adv-x="357" d="M259 542Q246 542 246 551T250 567L322 689Q328 700 334 705T352 710H369Q377 710 380 704T379 689L334 569Q330 557 323 550T304 542H259ZM125 542Q112 542 112 551T116 567L188 689Q194 700 200 705T218 710H235Q243
710 246 704T245 689L200 569Q196 557 189 550T170 542H125Z" />
<glyph unicode="&#x201d;" horiz-adv-x="350" d="M163 683Q168 695 174 702T193 710H238Q252 710 252 702T247 685L175 563Q169 553 163 548T145 542H128Q120 542 117 548T118 563L163 683ZM297 683Q302 695 308 702T327 710H372Q386 710 386 702T381 685L309
563Q303 553 297 548T279 542H262Q254 542 251 548T252 563L297 683Z" />
<glyph unicode="&#x201e;" horiz-adv-x="372" d="M34 66Q39 78 45 85T64 93H109Q123 93 123 85T118 68L46 -54Q40 -64 34 -69T16 -75H-1Q-9 -75 -12 -69T-11 -54L34 66ZM168 66Q173 78 179 85T198 93H243Q257 93 257 85T252 68L180 -54Q174 -64 168 -69T150 -75H133Q125
-75 122 -69T123 -54L168 66Z" />
<glyph unicode="&#x2022;" horiz-adv-x="376" d="M88 300Q94 328 112 350T157 386T210 400Q238 400 257 387T285 351T288 300Q283 273 265 250T221 214T167 200Q140 200 120 213T92 250T88 300Z" />
<glyph unicode="&#x2039;" horiz-adv-x="354" d="M247 92Q241 92 236 95T225 104L76 286Q69 296 67 304T66 321L70 337Q72 345 77 353T94 372L321 554Q328 559 335 562T348 566Q357 566 361 561T363 546L360 529Q357 517 352 510T334 493L130 329L264 165Q272
155 274 148T275 129L271 112Q269 103 263 98T247 92Z" />
<glyph unicode="&#x203a;" horiz-adv-x="354" d="M49 92Q40 92 36 97T33 112L37 129Q39 141 45 148T62 165L266 329L132 493Q125 503 122 510T122 529L125 546Q127 555 134 560T150 566Q156 566 161 563T171 554L320 372Q328 362 329 354T330 337L326 321Q324
313 319 305T302 286L75 104Q68 99 62 96T49 92Z" />
</font>
</defs>
</svg>
