<svg width="30" height="30" viewBox="0 0 30 30" fill="none" xmlns="http://www.w3.org/2000/svg">
<path d="M27 3H3C1.89543 3 1 3.89543 1 5V25C1 26.1046 1.89543 27 3 27H27C28.1046 27 29 26.1046 29 25V5C29 3.89543 28.1046 3 27 3Z" stroke="#364252" stroke-width="2" stroke-linecap="round" stroke-linejoin="round"/>
<path d="M20 9H21C22.1046 9 23 9.89543 23 11V19C23 20.1046 22.1046 21 21 21H20" stroke="#364252" stroke-width="2" stroke-linecap="round" stroke-linejoin="round"/>
<rect x="10" y="14" width="2" height="2" fill="#364252"/>
<rect x="4" y="14" width="2" height="2" fill="#364252"/>
<rect width="2" height="2" transform="matrix(-1 0 0 1 26 14)" fill="#364252"/>
<rect x="14" y="14" width="2" height="2" fill="#364252"/>
<rect x="18" y="14" width="2" height="2" fill="#364252"/>
<path d="M10 9H9C7.89543 9 7 9.89543 7 11V19C7 20.1046 7.89543 21 9 21H10" stroke="#364252" stroke-width="2" stroke-linecap="round" stroke-linejoin="round"/>
</svg>
