<svg width="56" height="56" viewBox="0 0 56 56" fill="none" xmlns="http://www.w3.org/2000/svg">
<rect width="56" height="56" rx="3" fill="white"/>
<mask id="path-2-inside-1_7044_126682" fill="white">
<path d="M38 6H48C49.1046 6 50 6.89543 50 8V16C50 17.1046 49.1046 18 48 18H38V6Z"/>
</mask>
<path d="M38 6H48C49.1046 6 50 6.89543 50 8V16C50 17.1046 49.1046 18 48 18H38V6Z" fill="white"/>
<path d="M38 5H48C49.6569 5 51 6.34315 51 8H49C49 7.44772 48.5523 7 48 7H38V5ZM51 16C51 17.6569 49.6569 19 48 19H38V17H48C48.5523 17 49 16.5523 49 16H51ZM38 18V6V18ZM48 5C49.6569 5 51 6.34315 51 8V16C51 17.6569 49.6569 19 48 19V17C48.5523 17 49 16.5523 49 16V8C49 7.44772 48.5523 7 48 7V5Z" fill="#CDD5DF" mask="url(#path-2-inside-1_7044_126682)"/>
<mask id="path-4-inside-2_7044_126682" fill="white">
<path d="M38 20H48C49.1046 20 50 20.8954 50 22V30C50 31.1046 49.1046 32 48 32H38V20Z"/>
</mask>
<path d="M38 20H48C49.1046 20 50 20.8954 50 22V30C50 31.1046 49.1046 32 48 32H38V20Z" fill="white"/>
<path d="M38 19H48C49.6569 19 51 20.3431 51 22H49C49 21.4477 48.5523 21 48 21H38V19ZM51 30C51 31.6569 49.6569 33 48 33H38V31H48C48.5523 31 49 30.5523 49 30H51ZM38 32V20V32ZM48 19C49.6569 19 51 20.3431 51 22V30C51 31.6569 49.6569 33 48 33V31C48.5523 31 49 30.5523 49 30V22C49 21.4477 48.5523 21 48 21V19Z" fill="#CDD5DF" mask="url(#path-4-inside-2_7044_126682)"/>
<rect x="37" y="4" width="1" height="30" rx="0.5" fill="#CC3D00"/>
<mask id="path-7-inside-3_7044_126682" fill="white">
<path d="M6 8C6 6.89543 6.89543 6 8 6H37V32H8C6.89543 32 6 31.1046 6 30V8Z"/>
</mask>
<path d="M6 8C6 6.89543 6.89543 6 8 6H37V32H8C6.89543 32 6 31.1046 6 30V8Z" fill="#FFEEE5"/>
<path fill-rule="evenodd" clip-rule="evenodd" d="M5 8C5 6.34315 6.34315 5 8 5H9.93333H10.9333V7H9.93333H8C7.44772 7 7 7.44772 7 8V10.2V11.2H5V10.2V8ZM5 15.8V16.8V21.2V22.2H7V21.2V16.8V15.8H5ZM7 26.8H5V27.8V30C5 31.6569 6.34315 33 8 33H9.93333H10.9333V31H9.93333H8C7.44772 31 7 30.5523 7 30V27.8V26.8ZM14.7333 31V33H15.7333H19.6H20.6V31H19.6H15.7333H14.7333ZM24.4 31V33H25.4H29.2667H30.2667V31H29.2667H25.4H24.4ZM34.0667 31V33H35.0667H37V32.5V32V31.5V31H35.0667H34.0667ZM14.7333 7H15.7333H19.6H20.6V5H19.6H15.7333H14.7333V7ZM24.4 5H25.4H29.2667H30.2667V7H29.2667H25.4H24.4V5ZM34.0667 7H35.0667H37V6.5V6V5.5V5H35.0667H34.0667V7Z" fill="#CC3D00" mask="url(#path-7-inside-3_7044_126682)"/>
<rect x="17" y="18" width="2" height="2" rx="1" fill="#CC3D00"/>
<path d="M13 19C13 18.4477 13.4477 18 14 18V20C13.4477 20 13 19.5523 13 19Z" fill="#CC3D00"/>
<path d="M31 19C31 18.4477 30.5523 18 30 18V20C30.5523 20 31 19.5523 31 19Z" fill="#CC3D00"/>
<rect x="21" y="18" width="2" height="2" rx="1" fill="#CC3D00"/>
<rect x="25" y="18" width="2" height="2" rx="1" fill="#CC3D00"/>
<path d="M17.5 15.5H16.5C15.3954 15.5 14.5 16.3954 14.5 17.5V20.5C14.5 21.6046 15.3954 22.5 16.5 22.5H17.5" stroke="#CC3D00" stroke-linecap="round" stroke-linejoin="round"/>
<path d="M26.5 15.5H27.5C28.6046 15.5 29.5 16.3954 29.5 17.5V20.5C29.5 21.6046 28.6046 22.5 27.5 22.5H26.5" stroke="#CC3D00" stroke-linecap="round" stroke-linejoin="round"/>
<rect x="6.5" y="38.5" width="20" height="11" rx="1.5" fill="#FFEEE5"/>
<rect x="6.5" y="38.5" width="20" height="11" rx="1.5" stroke="#CC3D00"/>
<rect x="29.5" y="38.5" width="20" height="11" rx="1.5" fill="#E3E8EF"/>
<rect x="29.5" y="38.5" width="20" height="11" rx="1.5" stroke="#6A7585"/>
</svg>
