<svg xmlns="http://www.w3.org/2000/svg" width="16" height="16" fill="none"><path stroke="#000" stroke-linecap="round" stroke-linejoin="round" d="M13.5 1.5h-12a1 1 0 0 0-1 1v10a1 1 0 0 0 1 1h12a1 1 0 0 0 1-1v-10a1 1 0 0 0-1-1Z"/><path stroke="#000" stroke-linecap="round" stroke-linejoin="round" d="M10 4.5h.5a1 1 0 0 1 1 1v4a1 1 0 0 1-1 1H10M5 4.5h-.5a1 1 0 0 0-1 1v4a1 1 0 0 0 1 1H5"/><path stroke="#000" stroke-linecap="square" d="M2.5 7.5h.001M5.5 7.5h.001M7.5 7.5h.001M9.5 7.5h.001M12.5 7.5h.001"/></svg>