<svg xmlns="http://www.w3.org/2000/svg" width="72" height="76" fill="none"><rect width="56" height="56" x="8" y="10" fill="#fff" rx="3"/><mask id="a" fill="#fff"><path d="M46 16h10a2 2 0 0 1 2 2v8a2 2 0 0 1-2 2H46V16Z"/></mask><path fill="#fff" d="M46 16h10a2 2 0 0 1 2 2v8a2 2 0 0 1-2 2H46V16Z"/><path fill="#CDD5DF" d="M46 15h10a3 3 0 0 1 3 3h-2a1 1 0 0 0-1-1H46v-2Zm13 11a3 3 0 0 1-3 3H46v-2h10a1 1 0 0 0 1-1h2Zm-13 2V16v12Zm10-13a3 3 0 0 1 3 3v8a3 3 0 0 1-3 3v-2a1 1 0 0 0 1-1v-8a1 1 0 0 0-1-1v-2Z" mask="url(#a)"/><mask id="b" fill="#fff"><path d="M46 30h10a2 2 0 0 1 2 2v8a2 2 0 0 1-2 2H46V30Z"/></mask><path fill="#fff" d="M46 30h10a2 2 0 0 1 2 2v8a2 2 0 0 1-2 2H46V30Z"/><path fill="#CDD5DF" d="M46 29h10a3 3 0 0 1 3 3h-2a1 1 0 0 0-1-1H46v-2Zm13 11a3 3 0 0 1-3 3H46v-2h10a1 1 0 0 0 1-1h2Zm-13 2V30v12Zm10-13a3 3 0 0 1 3 3v8a3 3 0 0 1-3 3v-2a1 1 0 0 0 1-1v-8a1 1 0 0 0-1-1v-2Z" mask="url(#b)"/><rect width="1" height="30" x="45" y="14" fill="#CC3D00" rx=".5"/><mask id="c" fill="#fff"><path d="M14 18a2 2 0 0 1 2-2h29v26H16a2 2 0 0 1-2-2V18Z"/></mask><path fill="#FFEEE5" d="M14 18a2 2 0 0 1 2-2h29v26H16a2 2 0 0 1-2-2V18Z"/><path fill="#CC3D00" fill-rule="evenodd" d="M43.067 16.5V15H45v2h-1.933v-.5Zm-5.8.5v-2H33.4v2h3.867ZM27.6 17v-2h-3.867v2H27.6Zm-9.667 0v-2H16a3 3 0 0 0-3 3v2.2h2V18a1 1 0 0 1 1-1h1.933ZM15 26.8h-2v4.4h2v-4.4Zm0 11h-2V40a3 3 0 0 0 3 3h1.933v-2H16a1 1 0 0 1-1-1v-2.2Zm8.733 3.2v2H27.6v-2h-3.867Zm9.667 0v2h3.867v-2H33.4Zm9.667 0v2H45v-2h-1.933Z" clip-rule="evenodd" mask="url(#c)"/><rect width="2" height="2" x="25" y="28" fill="#CC3D00" rx="1"/><path fill="#CC3D00" d="M21 29a1 1 0 0 1 1-1v2a1 1 0 0 1-1-1ZM39 29a1 1 0 0 0-1-1v2a1 1 0 0 0 1-1Z"/><rect width="2" height="2" x="29" y="28" fill="#CC3D00" rx="1"/><rect width="2" height="2" x="33" y="28" fill="#CC3D00" rx="1"/><path stroke="#CC3D00" stroke-linecap="round" stroke-linejoin="round" d="M25.5 25.5h-1a2 2 0 0 0-2 2v3a2 2 0 0 0 2 2h1M34.5 25.5h1a2 2 0 0 1 2 2v3a2 2 0 0 1-2 2h-1"/><rect width="20" height="11" x="14.5" y="48.5" fill="#FFEEE5" rx="2.5"/><rect width="20" height="11" x="14.5" y="48.5" stroke="#CC3D00" rx="2.5"/><rect width="20" height="11" x="37.5" y="48.5" fill="#E3E8EF" rx="2.5"/><rect width="20" height="11" x="37.5" y="48.5" stroke="#6A7585" rx="2.5"/></svg>