<svg xmlns="http://www.w3.org/2000/svg" width="56" height="56" fill="none"><rect width="56" height="56" fill="#fff" rx="3"/><mask id="a" fill="#fff"><path d="M38 6h10a2 2 0 0 1 2 2v8a2 2 0 0 1-2 2H38V6Z"/></mask><path fill="#fff" d="M38 6h10a2 2 0 0 1 2 2v8a2 2 0 0 1-2 2H38V6Z"/><path fill="#CDD5DF" d="M38 5h10a3 3 0 0 1 3 3h-2a1 1 0 0 0-1-1H38V5Zm13 11a3 3 0 0 1-3 3H38v-2h10a1 1 0 0 0 1-1h2Zm-13 2V6v12ZM48 5a3 3 0 0 1 3 3v8a3 3 0 0 1-3 3v-2a1 1 0 0 0 1-1V8a1 1 0 0 0-1-1V5Z" mask="url(#a)"/><mask id="b" fill="#fff"><path d="M38 20h10a2 2 0 0 1 2 2v8a2 2 0 0 1-2 2H38V20Z"/></mask><path fill="#fff" d="M38 20h10a2 2 0 0 1 2 2v8a2 2 0 0 1-2 2H38V20Z"/><path fill="#CDD5DF" d="M38 19h10a3 3 0 0 1 3 3h-2a1 1 0 0 0-1-1H38v-2Zm13 11a3 3 0 0 1-3 3H38v-2h10a1 1 0 0 0 1-1h2Zm-13 2V20v12Zm10-13a3 3 0 0 1 3 3v8a3 3 0 0 1-3 3v-2a1 1 0 0 0 1-1v-8a1 1 0 0 0-1-1v-2Z" mask="url(#b)"/><rect width="1" height="30" x="37" y="4" fill="#CC3D00" rx=".5"/><mask id="c" fill="#fff"><path d="M6 8a2 2 0 0 1 2-2h29v26H8a2 2 0 0 1-2-2V8Z"/></mask><path fill="#FFEEE5" d="M6 8a2 2 0 0 1 2-2h29v26H8a2 2 0 0 1-2-2V8Z"/><path fill="#CC3D00" fill-rule="evenodd" d="M5 8a3 3 0 0 1 3-3h2.933v2H8a1 1 0 0 0-1 1v3.2H5V8Zm0 7.8v6.4h2v-6.4H5Zm2 11H5V30a3 3 0 0 0 3 3h2.933v-2H8a1 1 0 0 1-1-1v-3.2Zm7.733 4.2v2H20.6v-2h-5.867Zm9.667 0v2h5.867v-2H24.4Zm9.667 0v2H37v-2h-2.933ZM14.733 7H20.6V5h-5.867v2ZM24.4 5h5.867v2H24.4V5Zm9.667 2H37V5h-2.933v2Z" clip-rule="evenodd" mask="url(#c)"/><rect width="2" height="2" x="17" y="18" fill="#CC3D00" rx="1"/><path fill="#CC3D00" d="M13 19a1 1 0 0 1 1-1v2a1 1 0 0 1-1-1ZM31 19a1 1 0 0 0-1-1v2a1 1 0 0 0 1-1Z"/><rect width="2" height="2" x="21" y="18" fill="#CC3D00" rx="1"/><rect width="2" height="2" x="25" y="18" fill="#CC3D00" rx="1"/><path stroke="#CC3D00" stroke-linecap="round" stroke-linejoin="round" d="M17.5 15.5h-1a2 2 0 0 0-2 2v3a2 2 0 0 0 2 2h1M26.5 15.5h1a2 2 0 0 1 2 2v3a2 2 0 0 1-2 2h-1"/><rect width="20" height="11" x="6.5" y="38.5" fill="#FFEEE5" rx="1.5"/><rect width="20" height="11" x="6.5" y="38.5" stroke="#CC3D00" rx="1.5"/><rect width="20" height="11" x="29.5" y="38.5" fill="#E3E8EF" rx="1.5"/><rect width="20" height="11" x="29.5" y="38.5" stroke="#6A7585" rx="1.5"/></svg>