<svg width="32" height="16" viewBox="0 0 32 16" fill="none" xmlns="http://www.w3.org/2000/svg">
<path fill-rule="evenodd" clip-rule="evenodd" d="M0 2C0 0.895431 0.895431 0 2 0H30C31.1046 0 32 0.895431 32 2V14C32 15.1046 31.1046 16 30 16H2C0.895431 16 0 15.1046 0 14V2ZM22.9758 5.77803C22.9746 5.64692 23.0255 5.52156 23.1174 5.42952C23.2092 5.33749 23.3345 5.28631 23.4656 5.28725L27.6613 5.31788C27.7924 5.31886 27.9187 5.37187 28.0123 5.46526C28.1058 5.55865 28.1591 5.68476 28.1603 5.81588L28.1995 10.0115C28.1984 10.1411 28.1465 10.2643 28.0549 10.3545C27.9633 10.4447 27.8393 10.4947 27.7096 10.4938C27.58 10.4928 27.455 10.441 27.3617 10.3495C27.2684 10.2579 27.2141 10.134 27.2107 10.0043L27.1827 7.00232L23.1695 11.0237C23.0776 11.1157 22.9523 11.1669 22.8212 11.1659C22.6901 11.165 22.5638 11.112 22.4702 11.0186C22.3766 10.9251 22.3233 10.799 22.3221 10.6679C22.3209 10.5367 22.3718 10.4113 22.4637 10.3193L26.4769 6.29794L23.4748 6.27603C23.3437 6.27505 23.2175 6.22204 23.1239 6.12865C23.0303 6.03526 22.9771 5.90914 22.9758 5.77803ZM4.94141 4.95703V12H6.25391V3.54492H4.94727L2.7207 5.11523V6.45703L4.8418 4.95703H4.94141ZM10.2414 4.08398C9.71016 4.57617 9.44453 5.21094 9.44453 5.98828V6.00586H10.6867V5.98828C10.6867 5.53516 10.8293 5.16992 11.1145 4.89258C11.4035 4.61523 11.7805 4.47656 12.2453 4.47656C12.6828 4.47656 13.048 4.60547 13.341 4.86328C13.634 5.12109 13.7805 5.44336 13.7805 5.83008C13.7805 6.14258 13.6867 6.44922 13.4992 6.75C13.3117 7.04688 12.9367 7.48828 12.3742 8.07422L9.51484 11.0508V12H15.2102V10.8223H11.343V10.7227L13.2238 8.81836C13.9309 8.10352 14.4152 7.52734 14.677 7.08984C14.9426 6.64844 15.0754 6.20312 15.0754 5.75391C15.0754 5.05859 14.8117 4.48242 14.2844 4.02539C13.757 3.56836 13.091 3.33984 12.2863 3.33984C11.4543 3.33984 10.7727 3.58789 10.2414 4.08398Z" fill="#C4C4C4"/>
</svg>
