<svg width="24" height="24" viewBox="0 0 24 24" fill="none" xmlns="http://www.w3.org/2000/svg">
<path fill-rule="evenodd" clip-rule="evenodd" d="M1 8.375C1 7.61561 1.61561 7 2.375 7H21.625C22.3844 7 23 7.61561 23 8.375V16.625C23 17.3844 22.3844 18 21.625 18H2.375C1.61561 18 1 17.3844 1 16.625V8.375ZM16.7959 10.9724C16.795 10.8822 16.83 10.7961 16.8932 10.7328C16.9563 10.6695 17.0425 10.6343 17.1326 10.635L20.0171 10.6561C20.1073 10.6567 20.1941 10.6932 20.2585 10.7574C20.3227 10.8216 20.3594 10.9083 20.3602 10.9984L20.3872 13.8829C20.3864 13.972 20.3507 14.0567 20.2877 14.1187C20.2248 14.1807 20.1395 14.2151 20.0504 14.2145C19.9613 14.2138 19.8753 14.1782 19.8112 14.1153C19.747 14.0523 19.7097 13.9671 19.7074 13.878L19.6881 11.8141L16.929 14.5788C16.8659 14.642 16.7797 14.6772 16.6896 14.6766C16.5994 14.6759 16.5126 14.6395 16.4483 14.5753C16.3839 14.511 16.3473 14.4243 16.3464 14.3342C16.3456 14.244 16.3806 14.1578 16.4438 14.0945L19.2029 11.3298L17.1389 11.3148C17.0488 11.3141 16.962 11.2776 16.8977 11.2135C16.8333 11.1493 16.7968 11.0625 16.7959 10.9724ZM4.39722 10.4079V15.25H5.29956V9.43712H4.40125L2.87048 10.5167V11.4392L4.32874 10.4079H4.39722ZM8.04096 9.80775C7.67573 10.1461 7.49311 10.5825 7.49311 11.117V11.1291H8.34711V11.117C8.34711 10.8055 8.44514 10.5543 8.64122 10.3637C8.83991 10.173 9.09909 10.0777 9.41864 10.0777C9.71943 10.0777 9.9705 10.1663 10.1719 10.3435C10.3734 10.5208 10.4741 10.7423 10.4741 11.0082C10.4741 11.223 10.4096 11.4338 10.2807 11.6406C10.1518 11.8447 9.89398 12.1482 9.50726 12.551L7.54145 14.5974V15.25H11.457V14.4403H8.79831V14.3719L10.0914 13.0626C10.5775 12.5712 10.9104 12.175 11.0904 11.8742C11.273 11.5708 11.3643 11.2646 11.3643 10.9558C11.3643 10.4778 11.183 10.0817 10.8205 9.76746C10.4579 9.45328 10.0001 9.29611 9.44683 9.29611C8.87483 9.29611 8.40623 9.46668 8.04096 9.80775Z" fill="#4C5664"/>
</svg>
