<svg xmlns="http://www.w3.org/2000/svg" width="56" height="44" fill="none"><rect width="56" height="44" fill="#fff" rx="3"/><rect width="32" height="6" x="8" y="8" fill="#E3E8EF" rx="1"/><path stroke="#CC3D00" stroke-linecap="round" stroke-linejoin="round" d="M13 34.5H8v-2.646a2 2 0 0 1 1.257-1.857l2.486-.994A2 2 0 0 0 13 27.146V26.5a2 2 0 0 0-2-2H8M16 24.5h3a2 2 0 0 1 2 2v1a2 2 0 0 1-2 2h-1.715M16 34.5h3a2 2 0 0 0 2-2v-1a2 2 0 0 0-2-2h-2M24 34.5h2.5m2.5 0h-2.5m-2.5-8 2.5-2v10"/><rect width="12" height="12" x="35.5" y="23.5" fill="#FFEEE5" rx="1.5"/><rect width="12" height="12" x="35.5" y="23.5" stroke="#CC3D00" rx="1.5"/><path stroke="#CC3D00" stroke-linecap="round" d="m39 32 5-5"/><path stroke="#CC3D00" stroke-linecap="round" stroke-linejoin="round" d="M41 27h3v3"/></svg>