<svg xmlns="http://www.w3.org/2000/svg" width="72" height="76" fill="none"><rect width="56" height="44" x="8" y="16" fill="#fff" rx="3"/><rect width="32" height="6" x="16" y="24" fill="#E3E8EF" rx="1"/><path stroke="#CC3D00" stroke-linecap="round" stroke-linejoin="round" d="M16 50.5h2.5m2.5 0h-2.5m-2.5-8 2.5-2v10M29 50.5h-5v-2.646a2 2 0 0 1 1.257-1.857l2.486-.994A2 2 0 0 0 29 43.146V42.5a2 2 0 0 0-2-2h-3M32 40.5h3a2 2 0 0 1 2 2v1a2 2 0 0 1-2 2h-1.715M32 50.5h3a2 2 0 0 0 2-2v-1a2 2 0 0 0-2-2h-2"/><rect width="12" height="12" x="43.5" y="39.5" fill="#FFEEE5" rx="1.5"/><rect width="12" height="12" x="43.5" y="39.5" stroke="#CC3D00" rx="1.5"/><path stroke="#CC3D00" stroke-linecap="round" d="m47 48 5-5"/><path stroke="#CC3D00" stroke-linecap="round" stroke-linejoin="round" d="M49 43h3v3"/></svg>