<svg width="73" height="74" viewBox="0 0 73 74" fill="none" xmlns="http://www.w3.org/2000/svg">
<path d="M60.5757 40.1808C60.3867 40.3125 60.2492 40.4328 60.0717 40.5302C60.2607 40.4271 60.4612 40.2896 60.6387 40.1636C59.8311 37.5975 58.5137 35.123 56.9843 32.6772C55.5523 30.3917 53.9943 28.049 51.9667 26.0099C51.1361 25.1793 50.1452 24.4977 49.223 23.7187C47.1896 22.0118 45.0473 20.5798 42.8478 19.3827C40.5108 18.1111 38.1452 17.0743 35.7394 16.3812C33.1791 15.6423 30.6072 15.2872 28.1156 15.207C26.5461 14.955 25.034 14.6514 23.5103 14.6743C21.7175 13.2882 19.5638 12.4748 17.3414 12.217C15.1762 11.9707 12.9137 12.3946 10.7657 13.1965C8.7552 13.9469 6.8077 15.0982 5.15233 16.7478C3.50269 18.3975 2.35138 20.3507 1.60102 22.3612C0.799111 24.5149 0.61009 26.7488 0.862118 28.9082C1.11415 31.0676 1.81868 33.2557 3.20484 35.0543C3.18766 36.6237 3.3824 38.2275 3.65162 39.8485C3.72608 41.8533 3.96093 43.8925 4.45925 45.9488C5.10078 48.5951 6.08026 51.2471 7.42059 53.8304C8.68073 56.2533 10.3189 58.5388 12.1862 60.7726C12.3409 60.9617 12.381 61.3454 12.5414 61.5287C12.7075 61.4027 12.822 61.0476 12.9709 60.9044C12.8335 61.0419 12.6674 61.3225 12.4898 61.4543C13.8072 62.9664 15.3194 64.2438 16.7857 65.4867C18.3151 66.7812 19.9304 67.881 21.5686 68.8662C23.2869 69.903 25.011 70.8309 26.7924 71.5182C28.6826 72.2457 30.5843 72.7325 32.4803 73.0533C34.4736 73.3913 36.4383 73.586 38.3571 73.4543C40.3562 73.3168 42.2865 72.8987 44.1194 72.2342C46.1929 71.4839 48.0659 70.4242 49.7958 68.975C49.7385 67.5201 48.0774 68.2018 47.8941 66.7583C49.3719 65.9278 50.8612 64.9025 52.0869 63.6767C53.3184 62.4452 54.3323 61.0132 55.1628 59.5411C56.6063 59.7244 55.9304 61.5516 57.3853 61.523C59.0235 59.5755 60.0946 57.2672 60.8392 54.8901C61.5838 52.513 62.128 50.0901 62.0363 47.5297C61.9562 45.1125 61.3547 42.6552 60.5814 40.1922L60.5757 40.1808ZM50.4087 27.0466C50.5232 26.9378 50.655 26.829 50.7924 26.7259C50.6607 26.8232 50.5289 26.9378 50.4087 27.0466ZM27.3709 69.8285C27.1132 70.3154 26.9184 70.8423 26.8153 71.3979C26.9414 70.6934 27.1246 70.1836 27.3709 69.8285Z" fill="#EBE9FA"/>
<path d="M8.6058 17.1772C5.79911 16.1061 5.72465 16.3009 2.91797 15.2297" stroke="#253135" stroke-width="2.66642" stroke-miterlimit="10" stroke-linecap="round"/>
<path d="M10.3702 36.7609C5.7306 36.2397 5.57595 36.2397 2.45996 40.8736" stroke="#253135" stroke-width="2.66642" stroke-miterlimit="10" stroke-linecap="round"/>
<path d="M20.9783 51.877C16.6366 53.5839 16.5392 53.6583 15.9492 59.2144" stroke="#253135" stroke-width="2.66642" stroke-miterlimit="10" stroke-linecap="round"/>
<path d="M37.9156 61.5C34.6564 64.8451 34.6278 64.9769 36.3806 70.2809" stroke="#253135" stroke-width="2.66642" stroke-miterlimit="10" stroke-linecap="round"/>
<path d="M17.7535 8.11564C16.6823 5.30896 16.7625 5.28032 15.6914 2.47363" stroke="#253135" stroke-width="2.66642" stroke-miterlimit="10" stroke-linecap="round"/>
<path d="M37.1711 9.93146C36.6498 5.29185 36.7186 5.18874 41.3525 2.07275" stroke="#253135" stroke-width="2.66642" stroke-miterlimit="10" stroke-linecap="round"/>
<path d="M52.2124 20.4994C53.9193 16.1576 54.0969 16.0774 59.653 15.4932" stroke="#253135" stroke-width="2.66642" stroke-miterlimit="10" stroke-linecap="round"/>
<path d="M61.9385 37.4771C65.2836 34.2179 65.4669 34.0117 70.7767 35.7644" stroke="#253135" stroke-width="2.66642" stroke-miterlimit="10" stroke-linecap="round"/>
<path d="M14.1279 13.689C15.8405 11.9764 17.8224 10.699 19.9875 9.75393C22.1527 8.80882 24.4095 8.05847 26.8324 7.85226C29.1293 7.66324 31.5064 8.01264 33.9179 8.45942C36.1804 8.87756 38.4887 9.46754 40.7398 10.4356C42.8649 11.3463 44.9326 12.532 46.9431 13.9124C48.8505 15.2241 50.7751 16.6446 52.505 18.3687C54.2291 20.0928 55.6725 22.006 56.9842 23.9134C58.3704 25.9239 59.6305 27.9687 60.5412 30.0881C61.5035 32.3391 61.9732 34.6933 62.3856 36.9616C62.8324 39.373 63.1188 41.7387 62.9298 44.0356C62.7293 46.4585 62.1221 48.7783 61.1942 50.9205C60.2663 53.0628 58.8744 55.016 57.1618 56.7229C55.4491 58.4298 53.4844 59.7129 51.3136 60.658C49.1427 61.6031 46.8859 62.1243 44.4572 62.3248C42.1603 62.5138 39.8004 62.4222 37.389 61.9754C35.1264 61.5573 32.8066 60.9845 30.5556 60.0222C28.4305 59.1114 26.3054 58.006 24.2892 56.6255C22.3818 55.3138 20.6233 53.6928 18.8992 51.9687C17.1751 50.2446 15.5713 48.469 14.2653 46.5616C12.8792 44.5511 11.6878 42.4604 10.777 40.341C9.81475 38.09 9.20186 35.7644 8.78372 33.5019C8.33695 31.0904 8.17656 28.6962 8.36559 26.3993C8.56606 23.9764 9.29351 21.7081 10.2272 19.5659C11.1608 17.4236 12.4038 15.3959 14.1164 13.6833L14.1279 13.689Z" fill="#F9A619"/>
<path d="M9.61993 39.0065C11.4185 38.5253 12.5297 39.8714 13.5321 41.7845C14.2596 43.1821 14.7922 44.975 15.6973 46.5215C18.0171 50.4852 20.4629 52.3754 17.6791 54.5119C18.9965 56.0241 20.4228 57.4332 21.8891 58.6761C23.3555 59.9191 24.965 61.2079 26.609 62.1988C28.2529 63.1898 30.1603 63.9974 31.9417 64.6847C31.9474 64.6332 31.913 64.5759 31.9245 64.5244C32.5946 60.784 34.8629 62.5024 39.6686 63.3673C41.3125 63.6652 43.1913 63.648 44.8581 63.6365C47.0691 63.6251 48.8619 63.8313 49.2572 65.4695C51.3307 64.7191 53.3584 63.5277 55.0825 62.0728C53.8338 58.9224 52.9059 59.4494 50.7292 56.8547C48.5526 54.2599 48.5641 54.2485 46.3875 51.6537C44.2109 49.059 44.2338 49.0361 42.0572 46.4413C39.8806 43.8466 39.8175 43.8981 37.6409 41.3034C35.4643 38.7086 35.4242 38.7372 33.2476 36.1425C31.071 33.5477 31.0366 33.5707 28.86 30.9759C26.6834 28.3812 26.7063 28.3583 24.5297 25.7635C22.3531 23.1688 22.376 23.1458 20.1937 20.5454C18.0113 17.9449 18.6872 17.1716 15.8118 15.373C14.1335 16.7821 12.7531 18.4375 11.6705 20.2819C10.588 22.1263 9.84905 24.1425 9.35645 26.279C8.86385 28.4155 8.60036 30.4719 8.65764 32.6886C8.71492 34.7793 9.10442 36.8528 9.62566 39.0065H9.61993Z" fill="#FFDA99"/>
<path d="M18.6584 43.7835C17.6675 42.088 16.2298 40.9081 14.7634 40.0718C13.0508 39.0923 11.1548 38.6054 9.47656 39.0522C10.1181 41.6985 11.1319 44.425 12.4723 47.0083C13.7324 49.4312 15.2961 51.814 17.1692 54.0422C17.3238 54.2312 17.53 54.2942 17.6904 54.4775C19.1968 53.3262 19.9358 51.4933 20.0045 49.3854C20.0675 47.5868 19.7238 45.605 18.6584 43.7835Z" fill="#FCBA44"/>
<path d="M41.868 59.3463C39.657 58.951 37.5491 59.2432 35.825 60.0279C33.8031 60.9444 32.3081 62.5024 31.9472 64.5186C31.9358 64.5701 31.9358 64.6446 31.9243 64.6962C33.8145 65.4236 35.7506 65.7959 37.6408 66.1167C39.6341 66.4546 41.5931 66.8098 43.5119 66.678C45.4308 66.5463 47.4699 66.0479 49.2971 65.3835C48.604 62.5081 45.6828 60.0336 41.8565 59.3463H41.868Z" fill="#FCBA44"/>
<path d="M58.5766 28.8107C57.4424 27.2642 56.2281 25.8608 55.495 24.5319C54.4697 22.6761 54.1718 20.9577 55.8558 19.7205C56.2052 19.4627 56.7265 19.3367 57.116 19.1821C56.2854 18.3515 55.2601 17.6756 54.3322 16.9023C52.4649 15.3329 50.5919 13.8723 48.5814 12.7324C46.4563 11.5296 44.2854 10.5272 42.0916 9.80545C39.7661 9.0379 37.4234 8.4823 35.1322 8.25891C32.6921 8.02406 30.2749 8.12144 28.0066 8.51093C25.6066 8.92335 23.3441 9.75389 21.2935 10.8708C19.2429 11.9878 17.2954 13.5572 15.7432 15.4131C17.4558 18.3343 18.4983 17.4465 21.093 19.6231C23.6878 21.7997 23.5331 21.9887 26.1279 24.1653C28.7226 26.342 28.8143 26.2331 31.409 28.4097C34.0038 30.5864 33.9809 30.615 36.5756 32.7916C39.1704 34.9682 39.1303 35.014 41.725 37.1964C44.3198 39.373 44.2854 39.4188 46.8802 41.5954C49.4749 43.772 49.4921 43.7548 52.0868 45.9315C54.6816 48.1081 54.8076 47.9649 57.4081 50.1415C60.0028 52.3238 59.3155 53.521 62.5117 54.6494C64.1498 52.7019 65.347 50.4221 66.0916 48.0508C66.8362 45.6794 67.2601 43.2222 67.1742 40.656C67.094 38.2389 66.5269 35.9076 65.7479 33.4503C62.8611 35.5238 61.2916 32.5109 58.5823 28.8222L58.5766 28.8107Z" fill="#FFDA99"/>
<path d="M36.375 14.4451C34.1697 13.9983 32.0962 14.2217 30.355 14.9663C28.3101 15.8369 26.7693 17.3205 26.3626 19.331C25.9559 21.3415 26.6375 23.4665 28.1783 25.0646C29.4958 26.4279 31.5005 27.247 33.7001 27.6937C35.9053 28.1405 37.9903 27.9744 39.7316 27.2298C41.7764 26.3591 43.4375 24.8699 43.8442 22.8594C44.2509 20.8489 43.3803 18.7525 41.8337 17.1544C40.5163 15.7911 38.5745 14.8918 36.375 14.4451Z" fill="#FCBA44"/>
<path d="M33.689 27.7682C35.8942 28.215 38.0479 28.0947 39.7892 27.3501C41.8341 26.4794 43.163 24.8126 43.5696 22.8021C43.9763 20.7916 43.3978 18.7353 41.8513 17.1372C40.5338 15.7739 38.5978 14.8059 36.3925 14.3591" stroke="#F9A619" stroke-width="1.33321" stroke-linecap="round" stroke-linejoin="round"/>
<path d="M55.6269 30.4029C56.8756 32.0984 58.5252 33.2669 60.2035 33.8512C62.1682 34.5385 64.0756 34.3896 65.6393 33.2669C64.8317 30.7008 63.772 28.1805 62.2426 25.7347C60.8107 23.4492 59.1267 21.181 57.099 19.1418C56.7095 19.3022 56.3601 19.6745 56.0107 19.9266C54.4527 21.0722 53.5534 22.8765 53.6164 24.9729C53.6737 26.76 54.3782 28.6903 55.6326 30.3972L55.6269 30.4029Z" fill="#FCBA44"/>
<path d="M30.1261 9.37012C31.4206 10.6646 31.1457 12.9042 29.8111 15.5105C28.9232 17.2403 27.5543 19.0789 26.002 20.8947C24.5872 22.5501 23.0578 24.2284 21.4025 25.6431C19.5867 27.1954 17.6908 28.5071 15.9552 29.3892C13.349 30.7238 11.0006 31.0789 9.70605 29.7844" stroke="#FFCD6E" stroke-width="7.99925" stroke-miterlimit="10" stroke-linecap="round"/>
<path d="M10.399 9.9602C12.1804 8.17881 14.2424 6.94731 16.4305 6.21414C18.7732 5.42368 21.1732 5.28621 23.4815 5.73299C25.7899 6.17977 27.9951 7.19361 29.7536 8.94636C31.0481 10.2409 30.7274 12.4977 29.3985 15.1039C28.5107 16.8337 27.2276 18.7354 25.6753 20.5511C24.2605 22.2065 22.6281 23.7874 20.9784 25.2022C19.1627 26.7545 17.2725 28.049 15.5369 28.9311C12.9307 30.2657 10.651 30.6437 9.35648 29.3492C7.60374 27.5965 6.50971 25.4027 6.05147 23.0657C5.59324 20.7287 5.74789 18.2943 6.53262 15.9516C7.26579 13.7693 8.62331 11.7473 10.4047 9.96593L10.399 9.9602Z" fill="#3F535A"/>
<path d="M26.46 24.406C29.0318 26.5654 29.1693 26.3993 31.7411 28.5588C34.3129 30.7182 34.2213 30.827 36.7931 32.9864C39.365 35.1459 39.3421 35.1745 41.9139 37.3339C44.4857 39.4934 44.4456 39.5449 47.0175 41.7043C49.5893 43.8638 49.6008 43.8523 52.1726 46.0117C54.7444 48.1712 54.7903 48.1196 57.3621 50.279C59.9339 52.4385 59.3268 53.5497 62.5001 54.6609C64.1382 52.7134 65.2151 50.3821 65.9597 48.0051C66.7043 45.628 67.2428 43.2108 67.1569 40.6504C67.0767 38.2332 66.4924 35.7759 65.7134 33.3129" stroke="#FCBA44" stroke-width="1.33321" stroke-linecap="round" stroke-linejoin="round"/>
<path d="M33.7687 65.2174C36.2317 65.9964 38.6775 66.4317 41.0947 66.5176C43.6551 66.6036 46.1525 66.3974 48.4837 65.6642C50.815 64.931 53.1864 63.688 55.1396 62.0499C54.0341 58.8823 52.7568 59.6098 50.5973 57.0379C48.4379 54.4661 48.4895 54.4203 46.3358 51.8484C44.1821 49.2766 44.3367 49.1391 42.1773 46.5673C40.0179 43.9954 39.9491 44.0527 37.7897 41.4809C35.6303 38.9091 35.6475 38.8919 33.4938 36.32C31.3401 33.7482 31.2656 33.7997 29.1062 31.2279C26.9467 28.6561 26.8494 28.7305 24.6899 26.1587" stroke="#FCBA44" stroke-width="1.33321" stroke-linecap="round" stroke-linejoin="round"/>
<path d="M17.6445 54.4318C19.151 53.2805 20.1648 51.4991 20.2393 49.3913C20.3023 47.5927 19.6665 45.6395 18.6011 43.8123" stroke="#F9A619" stroke-width="1.33321" stroke-linecap="round" stroke-linejoin="round"/>
<path d="M55.6265 30.4089C56.8752 32.1044 58.5649 33.1755 60.2374 33.7655C62.2021 34.4528 64.2012 34.4185 65.7649 33.3015" stroke="#F9A619" stroke-width="1.33321" stroke-linecap="round" stroke-linejoin="round"/>
<path d="M31.9014 64.7593C33.7916 65.4867 35.7505 65.8075 37.6407 66.1283C39.6341 66.4662 41.593 66.7984 43.5176 66.6667C45.4422 66.5349 47.447 66.0309 49.2799 65.3664" stroke="#F9A619" stroke-width="1.33321" stroke-linecap="round" stroke-linejoin="round"/>
</svg>
