<svg width="12" height="12" viewBox="0 0 12 12" fill="none" xmlns="http://www.w3.org/2000/svg">
<g clip-path="url(#clip0_1688_60519)">
<path d="M2 3C2 2.44772 2.44772 2 3 2L9 2C9.55228 2 10 2.44772 10 3C10 3.55228 9.55228 4 9 4L3 4C2.44772 4 2 3.55228 2 3Z" fill="#939393"/>
<path d="M2 6C2 5.44772 2.44772 5 3 5L9 5C9.55228 5 10 5.44772 10 6C10 6.55228 9.55228 7 9 7L3 7C2.44772 7 2 6.55228 2 6Z" fill="#939393"/>
<rect x="0.5" y="0.5" width="11" height="11" rx="1.5" stroke="#939393"/>
</g>
<defs>
<clipPath id="clip0_1688_60519">
<rect width="12" height="12" rx="2" fill="white"/>
</clipPath>
</defs>
</svg>
