<svg width="24" height="24" viewBox="0 0 24 24" fill="none" xmlns="http://www.w3.org/2000/svg">
<path d="M16 1H4C2.9 1 2 1.9 2 3V17H4V3H16V1Z" fill="#BCCCD9"/>
<path d="M8 7V21H19V7H8ZM8 5H19C19.5304 5 20.0391 5.21071 20.4142 5.58579C20.7893 5.96086 21 6.46957 21 7V21C21 21.5304 20.7893 22.0391 20.4142 22.4142C20.0391 22.7893 19.5304 23 19 23H8C7.46957 23 6.96086 22.7893 6.58579 22.4142C6.21071 22.0391 6 21.5304 6 21V7C6 6.46957 6.21071 5.96086 6.58579 5.58579C6.96086 5.21071 7.46957 5 8 5Z" fill="#BCCCD9"/>
</svg>
