<svg xmlns="http://www.w3.org/2000/svg" width="10" height="12" fill="none" viewBox="0 0 10 12"><path fill="#F2FAFF" d="M6.74996 1.5H8.99996C9.44996 1.5 9.74996 1.8 9.74996 2.25V3H-3.8147e-05V2.25C-3.8147e-05 1.8 0.374962 1.5 0.749962 1.5H2.99996C3.14996 0.675004 3.97496 3.8147e-06 4.87496 3.8147e-06C5.77496 3.8147e-06 6.59996 0.675004 6.74996 1.5ZM3.74996 1.5H5.99996C5.84996 1.05 5.32496 0.750004 4.87496 0.750004C4.42496 0.750004 3.89996 1.05 3.74996 1.5ZM0.749962 3.75H8.99996L8.32496 11.325C8.32496 11.7 7.94996 12 7.57496 12H2.17496C1.79996 12 1.49996 11.7 1.42496 11.325L0.749962 3.75Z"/></svg>