<svg xmlns="http://www.w3.org/2000/svg" width="16" height="16" fill="none" viewBox="0 0 16 16"><path fill="#A9A7A7" fill-rule="evenodd" d="M3.63664 2.85717L5.50677 2.85717L7.06542 2.85717L7.06542 6.59999L5.81828 6.59999L8.0001 9.34284L10.1819 6.59999L8.93555 6.59999L8.93555 2.85717L10.4938 2.85717L12.3639 2.85717C13.741 2.85717 14.8574 4.08528 14.8574 5.60003C14.8574 6.88094 14.0551 7.9486 12.9761 8.24963C12.8564 10.9733 10.8173 13.1429 8.31197 13.1429C5.83467 13.1429 3.81243 11.022 3.65223 8.34083C2.25399 8.3518 1.14313 7.10654 1.14313 5.60003C1.14313 4.08529 2.2596 2.85717 3.63664 2.85717Z" clip-rule="evenodd"/></svg>