<svg xmlns="http://www.w3.org/2000/svg" width="16" height="16" fill="none" viewBox="0 0 16 16"><path fill="#768896" d="M7.33268 11.9998C7.33268 12.7332 6.73268 13.3332 5.99935 13.3332C5.26602 13.3332 4.66602 12.7332 4.66602 11.9998C4.66602 11.2665 5.26602 10.6665 5.99935 10.6665C6.73268 10.6665 7.33268 11.2665 7.33268 11.9998ZM5.99935 6.6665C5.26602 6.6665 4.66602 7.2665 4.66602 7.99984C4.66602 8.73317 5.26602 9.33317 5.99935 9.33317C6.73268 9.33317 7.33268 8.73317 7.33268 7.99984C7.33268 7.2665 6.73268 6.6665 5.99935 6.6665ZM5.99935 2.6665C5.26602 2.6665 4.66602 3.2665 4.66602 3.99984C4.66602 4.73317 5.26602 5.33317 5.99935 5.33317C6.73268 5.33317 7.33268 4.73317 7.33268 3.99984C7.33268 3.2665 6.73268 2.6665 5.99935 2.6665ZM9.99935 5.33317C10.7327 5.33317 11.3327 4.73317 11.3327 3.99984C11.3327 3.2665 10.7327 2.6665 9.99935 2.6665C9.26602 2.6665 8.66602 3.2665 8.66602 3.99984C8.66602 4.73317 9.26602 5.33317 9.99935 5.33317ZM9.99935 6.6665C9.26602 6.6665 8.66602 7.2665 8.66602 7.99984C8.66602 8.73317 9.26602 9.33317 9.99935 9.33317C10.7327 9.33317 11.3327 8.73317 11.3327 7.99984C11.3327 7.2665 10.7327 6.6665 9.99935 6.6665ZM9.99935 10.6665C9.26602 10.6665 8.66602 11.2665 8.66602 11.9998C8.66602 12.7332 9.26602 13.3332 9.99935 13.3332C10.7327 13.3332 11.3327 12.7332 11.3327 11.9998C11.3327 11.2665 10.7327 10.6665 9.99935 10.6665Z"/></svg>