<svg width="20" height="20" viewBox="0 0 20 20" fill="none" xmlns="http://www.w3.org/2000/svg">
<g>
<path d="M11.6014 16C11.4571 16 11.3168 15.9532 11.2014 15.8667L8.53472 13.8333C8.45315 13.7705 8.38723 13.6897 8.34212 13.5972C8.29701 13.5047 8.27394 13.4029 8.27472 13.3V11.12L5.07472 4.97333C5.02202 4.87161 4.99642 4.75802 5.0004 4.64352C5.00438 4.52903 5.0378 4.41749 5.09743 4.31966C5.15706 4.22184 5.24089 4.14104 5.34084 4.08504C5.4408 4.02905 5.55349 3.99976 5.66805 4H15.0014C15.1171 4.00002 15.2308 4.03015 15.3313 4.08743C15.4318 4.1447 15.5157 4.22715 15.5747 4.32667C15.6332 4.42801 15.664 4.54298 15.664 4.66C15.664 4.77703 15.6332 4.89199 15.5747 4.99333L12.2414 11.1333V15.3333C12.2423 15.4576 12.2084 15.5796 12.1436 15.6856C12.0788 15.7916 11.9857 15.8774 11.8747 15.9333C11.7894 15.9747 11.6962 15.9975 11.6014 16Z" fill="#2E3D49"/>
</g>
</svg>
