<svg xmlns="http://www.w3.org/2000/svg" width="27" height="24" fill="none" viewBox="0 0 27 24"><rect width="27" height="16" y="3" fill="#4C565E" rx="2"/><path fill="#EDEDED" d="M9.263 16.156C8.379 16.156 7.66833 15.909 7.131 15.415C6.60233 14.9123 6.338 14.2017 6.338 13.283H8.002C8.01067 13.7077 8.11033 14.0457 8.301 14.297C8.49167 14.5483 8.79933 14.674 9.224 14.674C9.62267 14.674 9.913 14.557 10.095 14.323C10.277 14.0803 10.368 13.764 10.368 13.374V6.9H12.032V13.374C12.032 14.2667 11.7807 14.9557 11.278 15.441C10.784 15.9177 10.1123 16.156 9.263 16.156ZM16.9099 16.156C16.2426 16.156 15.6533 16.0433 15.1419 15.818C14.6306 15.584 14.2276 15.2547 13.9329 14.83C13.6383 14.3967 13.4866 13.8723 13.4779 13.257H15.2329C15.2503 13.6817 15.4019 14.0413 15.6879 14.336C15.9826 14.622 16.3856 14.765 16.8969 14.765C17.3389 14.765 17.6899 14.661 17.9499 14.453C18.2099 14.2363 18.3399 13.9503 18.3399 13.595C18.3399 13.2223 18.2229 12.932 17.9889 12.724C17.7636 12.516 17.4603 12.347 17.0789 12.217C16.6976 12.087 16.2903 11.9483 15.8569 11.801C15.1549 11.5583 14.6176 11.2463 14.2449 10.865C13.8809 10.4837 13.6989 9.97667 13.6989 9.344C13.6903 8.80667 13.8159 8.34733 14.0759 7.966C14.3446 7.576 14.7086 7.277 15.1679 7.069C15.6273 6.85233 16.1559 6.744 16.7539 6.744C17.3606 6.744 17.8936 6.85233 18.3529 7.069C18.8209 7.28567 19.1849 7.589 19.4449 7.979C19.7136 8.369 19.8566 8.83267 19.8739 9.37H18.0929C18.0843 9.04933 17.9586 8.76767 17.7159 8.525C17.4819 8.27367 17.1526 8.148 16.7279 8.148C16.3639 8.13933 16.0563 8.23033 15.8049 8.421C15.5623 8.603 15.4409 8.87167 15.4409 9.227C15.4409 9.53033 15.5363 9.773 15.7269 9.955C15.9176 10.1283 16.1776 10.2757 16.5069 10.397C16.8363 10.5183 17.2133 10.6483 17.6379 10.787C18.0886 10.943 18.5003 11.125 18.8729 11.333C19.2456 11.541 19.5446 11.8183 19.7699 12.165C19.9953 12.503 20.1079 12.9407 20.1079 13.478C20.1079 13.9547 19.9866 14.3967 19.7439 14.804C19.5013 15.2113 19.1416 15.5407 18.6649 15.792C18.1883 16.0347 17.6033 16.156 16.9099 16.156Z"/></svg>