<svg xmlns="http://www.w3.org/2000/svg" width="10" height="12" fill="none" viewBox="0 0 10 12"><path fill="#fff" fill-rule="evenodd" d="M2.03701 5.0552C1.6884 3.0372 3.6481 0.653649 4.99961 0C6.36245 0.73919 8.27954 2.95461 7.95486 5.0552C7.63018 7.15579 7.09988 10.1104 7.09988 10.1104H2.89348C2.89348 10.1104 2.38562 7.07321 2.03701 5.0552ZM0.599609 7.68554L1.59617 6.38299L2.19961 10.1566L0.599609 11.1854V7.68554ZM8.40305 6.38299L9.39961 7.68554V11.1854L7.79961 10.1566L8.40305 6.38299ZM4.96809 12C4.2578 11.4988 3.79268 10.3992 3.79268 10.3992H6.19268C6.19268 10.3992 5.92753 11.2479 4.96809 12Z" clip-rule="evenodd"/></svg>