<svg width="16" height="16" viewBox="0 0 16 16" fill="none" xmlns="http://www.w3.org/2000/svg">
<path d="M13 7.5C13 6.94772 13.4477 6.5 14 6.5C14.5523 6.5 15 6.94772 15 7.5V8.5C15 9.05228 14.5523 9.5 14 9.5C13.4477 9.5 13 9.05228 13 8.5V7.5Z" fill="#939090"/>
<path d="M1 7.5C1 6.94772 1.44772 6.5 2 6.5C2.55228 6.5 3 6.94772 3 7.5V8.5C3 9.05228 2.55228 9.5 2 9.5C1.44772 9.5 1 9.05228 1 8.5V7.5Z" fill="#939090"/>
<path d="M9.5 8C9.5 8.82843 8.82843 9.5 8 9.5C7.17157 9.5 6.5 8.82843 6.5 8C6.5 7.17157 7.17157 6.5 8 6.5C8.82843 6.5 9.5 7.17157 9.5 8Z" fill="#939090"/>
</svg>