<svg width="33" height="32" viewBox="0 0 33 32" fill="none" xmlns="http://www.w3.org/2000/svg">
<rect opacity="0.3" x="0.5" y="0.5" width="32" height="31" fill="white" stroke="#D0D7DD"/>
<path d="M16.732 21.168C16.0133 21.168 15.3647 21.028 14.786 20.748C14.2073 20.4587 13.7453 20.0247 13.4 19.446C13.064 18.8673 12.896 18.1347 12.896 17.248V11.2H14.688V17.262C14.688 18.0273 14.87 18.5967 15.234 18.97C15.6073 19.3433 16.1207 19.53 16.774 19.53C17.418 19.53 17.9267 19.3433 18.3 18.97C18.6733 18.5967 18.86 18.0273 18.86 17.262V11.2H20.652V17.248C20.652 18.1347 20.4747 18.8673 20.12 19.446C19.7653 20.0247 19.2893 20.4587 18.692 20.748C18.104 21.028 17.4507 21.168 16.732 21.168Z" fill="#A9A7A7"/>
<line x1="8" y1="23" x2="25.1172" y2="23" stroke="#A9A7A7" stroke-width="2"/>
</svg>
