<svg width="20" height="20" viewBox="0 0 20 20" fill="none" xmlns="http://www.w3.org/2000/svg">
<circle cx="10" cy="10" r="10" fill="#21282C"/>
<path fill-rule="evenodd" clip-rule="evenodd" d="M10 10.9513C9.47555 10.9513 9.04876 10.5245 9.04876 10C9.04876 9.47556 9.47555 9.04876 10 9.04876C10.5245 9.04876 10.9513 9.47556 10.9513 10C10.9513 10.5245 10.5245 10.9513 10 10.9513ZM10 7.78042C8.77606 7.78042 7.78041 8.77607 7.78041 10C7.78041 11.224 8.77606 12.2196 10 12.2196C11.224 12.2196 12.2196 11.224 12.2196 10C12.2196 8.77607 11.224 7.78042 10 7.78042ZM10.1393 13.1694C7.4086 13.2328 5.62721 10.8971 5.03616 9.99723C5.68682 8.97938 7.32552 6.89549 9.86094 6.83081C12.5809 6.76168 14.3724 9.10304 14.9635 10.0029C14.3135 11.0208 12.6741 13.1047 10.1393 13.1694ZM16.2578 9.68458C15.8532 8.97938 13.6184 5.44451 9.8286 5.5631C6.3229 5.65188 4.28403 8.7403 3.74245 9.68458C3.6302 9.8799 3.6302 10.1203 3.74245 10.3156C4.14134 11.0113 6.29753 14.439 10.0157 14.439C10.0677 14.439 10.1197 14.4383 10.1717 14.4371C13.6768 14.3476 15.7163 11.2599 16.2578 10.3156C16.3694 10.1203 16.3694 9.8799 16.2578 9.68458Z" fill="#BCCCD9"/>
<path fill-rule="evenodd" clip-rule="evenodd" d="M10 10.9513C9.47555 10.9513 9.04876 10.5245 9.04876 10C9.04876 9.47556 9.47555 9.04876 10 9.04876C10.5245 9.04876 10.9513 9.47556 10.9513 10C10.9513 10.5245 10.5245 10.9513 10 10.9513ZM10 7.78042C8.77606 7.78042 7.78041 8.77607 7.78041 10C7.78041 11.224 8.77606 12.2196 10 12.2196C11.224 12.2196 12.2196 11.224 12.2196 10C12.2196 8.77607 11.224 7.78042 10 7.78042ZM10.1393 13.1694C7.4086 13.2328 5.62721 10.8971 5.03616 9.99723C5.68682 8.97938 7.32552 6.89549 9.86094 6.83081C12.5809 6.76168 14.3724 9.10304 14.9635 10.0029C14.3135 11.0208 12.6741 13.1047 10.1393 13.1694ZM16.2578 9.68458C15.8532 8.97938 13.6184 5.44451 9.8286 5.5631C6.3229 5.65188 4.28403 8.7403 3.74245 9.68458C3.6302 9.8799 3.6302 10.1203 3.74245 10.3156C4.14134 11.0113 6.29753 14.439 10.0157 14.439C10.0677 14.439 10.1197 14.4383 10.1717 14.4371C13.6768 14.3476 15.7163 11.2599 16.2578 10.3156C16.3694 10.1203 16.3694 9.8799 16.2578 9.68458Z" fill="white"/>
</svg>
