<svg xmlns="http://www.w3.org/2000/svg" width="18" height="18" fill="none" viewBox="0 0 18 18"><path fill="#36AB80" d="M9.00033 0.666687C7.35215 0.666687 5.74099 1.15543 4.37058 2.07111C3.00017 2.98679 1.93206 4.28827 1.30133 5.81099C0.670603 7.33371 0.505575 9.00926 0.827119 10.6258C1.14866 12.2423 1.94234 13.7271 3.10777 14.8926C4.27321 16.058 5.75807 16.8517 7.37458 17.1732C8.99109 17.4948 10.6666 17.3297 12.1894 16.699C13.7121 16.0683 15.0136 15.0002 15.9292 13.6298C16.8449 12.2594 17.3337 10.6482 17.3337 9.00002C17.3337 7.90567 17.1181 6.82204 16.6993 5.81099C16.2805 4.79994 15.6667 3.88129 14.8929 3.10746C14.1191 2.33364 13.2004 1.71981 12.1894 1.30102C11.1783 0.882235 10.0947 0.666687 9.00033 0.666687ZM12.5837 7.00835L8.77533 12.0084C8.6977 12.1092 8.598 12.1909 8.48388 12.2473C8.36977 12.3036 8.24426 12.333 8.117 12.3334C7.99042 12.334 7.86535 12.3059 7.75128 12.251C7.63721 12.1961 7.53714 12.116 7.45866 12.0167L5.42533 9.42502C5.35803 9.33857 5.30841 9.2397 5.27932 9.13408C5.25022 9.02845 5.24222 8.91812 5.25576 8.8094C5.2693 8.70068 5.30412 8.59569 5.35824 8.50042C5.41236 8.40516 5.48471 8.32149 5.57116 8.25419C5.74576 8.11826 5.96721 8.05727 6.18678 8.08462C6.2955 8.09816 6.40049 8.13298 6.49576 8.1871C6.59102 8.24122 6.67469 8.31357 6.742 8.40002L8.10033 10.1334L11.2503 5.96669C11.3171 5.87914 11.4004 5.8056 11.4956 5.75026C11.5908 5.69492 11.6959 5.65887 11.805 5.64417C11.9141 5.62947 12.0251 5.6364 12.1315 5.66457C12.2379 5.69274 12.3378 5.7416 12.4253 5.80835C12.5129 5.87511 12.5864 5.95846 12.6418 6.05363C12.6971 6.14881 12.7331 6.25395 12.7478 6.36306C12.7625 6.47217 12.7556 6.58311 12.7274 6.68954C12.6993 6.79597 12.6504 6.89581 12.5837 6.98335V7.00835Z"/></svg>