<svg xmlns="http://www.w3.org/2000/svg" width="20" height="17" fill="none" viewBox="0 0 20 17"><path fill="#F69D2C" d="M18.7999 12.5833L12.4083 1.98331C12.1498 1.57899 11.7937 1.24625 11.3728 1.01576C10.9519 0.785273 10.4798 0.664459 9.99992 0.664459C9.52005 0.664459 9.04791 0.785273 8.62702 1.01576C8.20613 1.24625 7.85004 1.57899 7.59159 1.98331L1.19992 12.5833C0.974132 12.9597 0.851411 13.3889 0.844097 13.8277C0.836783 14.2666 0.945133 14.6996 1.15825 15.0833C1.40465 15.5152 1.7613 15.8739 2.19176 16.1228C2.62221 16.3717 3.11102 16.5019 3.60825 16.5H16.3916C16.8855 16.5052 17.3722 16.3801 17.8023 16.1373C18.2325 15.8944 18.591 15.5423 18.8416 15.1166C19.061 14.729 19.1728 14.2897 19.1655 13.8443C19.1581 13.3989 19.0319 12.9636 18.7999 12.5833ZM9.99992 13.1666C9.8351 13.1666 9.67399 13.1178 9.53694 13.0262C9.3999 12.9346 9.29309 12.8045 9.23002 12.6522C9.16695 12.4999 9.15044 12.3324 9.1826 12.1707C9.21475 12.0091 9.29412 11.8606 9.41066 11.7441C9.52721 11.6275 9.67569 11.5481 9.83734 11.516C9.999 11.4838 10.1666 11.5003 10.3188 11.5634C10.4711 11.6265 10.6012 11.7333 10.6928 11.8703C10.7844 12.0074 10.8333 12.1685 10.8333 12.3333C10.8333 12.5543 10.7455 12.7663 10.5892 12.9226C10.4329 13.0788 10.2209 13.1666 9.99992 13.1666ZM10.8333 9.83331C10.8333 10.0543 10.7455 10.2663 10.5892 10.4226C10.4329 10.5788 10.2209 10.6666 9.99992 10.6666C9.77891 10.6666 9.56695 10.5788 9.41066 10.4226C9.25438 10.2663 9.16659 10.0543 9.16659 9.83331V6.49998C9.16659 6.27896 9.25438 6.067 9.41066 5.91072C9.56695 5.75444 9.77891 5.66665 9.99992 5.66665C10.2209 5.66665 10.4329 5.75444 10.5892 5.91072C10.7455 6.067 10.8333 6.27896 10.8333 6.49998V9.83331Z"/></svg>