<svg width="25" height="24" viewBox="0 0 25 24" fill="none" xmlns="http://www.w3.org/2000/svg">
<g clip-path="url(#clip0_3181_9347)">
<path d="M7.5 20C6.83696 20 6.20107 19.7366 5.73223 19.2678C5.26339 18.7989 5 18.163 5 17.5V14.5C5 13.837 4.73661 13.2011 4.26777 12.7322C3.79893 12.2634 3.16304 12 2.5 12C2.8283 12 3.15339 11.9353 3.45671 11.8097C3.76002 11.6841 4.03562 11.4999 4.26777 11.2678C4.49991 11.0356 4.68406 10.76 4.8097 10.4567C4.93534 10.1534 5 9.8283 5 9.5V6.5C5 5.83696 5.26339 5.20107 5.73223 4.73223C6.20107 4.26339 6.83696 4 7.5 4" stroke="#4C5664" stroke-width="2" stroke-linecap="round" stroke-linejoin="round"/>
<path d="M17.5 4C18.163 4 18.7989 4.26339 19.2678 4.73223C19.7366 5.20107 20 5.83696 20 6.5V9.5C20 9.8283 20.0647 10.1534 20.1903 10.4567C20.3159 10.76 20.5001 11.0356 20.7322 11.2678C21.2011 11.7366 21.837 12 22.5 12C21.837 12 21.2011 12.2634 20.7322 12.7322C20.2634 13.2011 20 13.837 20 14.5V17.5C20 18.163 19.7366 18.7989 19.2678 19.2678C18.7989 19.7366 18.163 20 17.5 20" stroke="#4C5664" stroke-width="2" stroke-linecap="round" stroke-linejoin="round"/>
<path d="M9.17532 12.0822C9.17532 12.0723 9.17238 12.0627 9.16689 12.0544C9.1614 12.0462 9.15359 12.0398 9.14445 12.036C9.13532 12.0322 9.12526 12.0313 9.11556 12.0332C9.10586 12.0351 9.09695 12.0399 9.08996 12.0469C9.08297 12.0539 9.07821 12.0628 9.07628 12.0725C9.07435 12.0822 9.07534 12.0922 9.07912 12.1014C9.08291 12.1105 9.08932 12.1183 9.09754 12.1238C9.10576 12.1293 9.11543 12.1322 9.12532 12.1322C9.13188 12.1322 9.13839 12.1309 9.14445 12.1284C9.15052 12.1259 9.15603 12.1222 9.16067 12.1176C9.16532 12.1129 9.169 12.1074 9.17151 12.1014C9.17402 12.0953 9.17532 12.0888 9.17532 12.0822" stroke="#4C5664" stroke-width="1.3" stroke-linecap="round" stroke-linejoin="round"/>
<path d="M12.5503 12.0725C12.5503 12.0592 12.5451 12.0465 12.5357 12.0371C12.5263 12.0277 12.5136 12.0225 12.5003 12.0225C12.4871 12.0225 12.4743 12.0277 12.465 12.0371C12.4556 12.0465 12.4503 12.0592 12.4503 12.0725C12.4503 12.0857 12.4556 12.0984 12.465 12.1078C12.4743 12.1172 12.4871 12.1225 12.5003 12.1225C12.5136 12.1225 12.5263 12.1172 12.5357 12.1078C12.5451 12.0984 12.5503 12.0857 12.5503 12.0725" stroke="#4C5664" stroke-width="1.3" stroke-linecap="round" stroke-linejoin="round"/>
<path d="M15.5503 12.0725C15.5503 12.0592 15.5451 12.0465 15.5357 12.0371C15.5263 12.0277 15.5136 12.0225 15.5003 12.0225C15.4871 12.0225 15.4743 12.0277 15.465 12.0371C15.4556 12.0465 15.4503 12.0592 15.4503 12.0725C15.4503 12.0857 15.4556 12.0984 15.465 12.1078C15.4743 12.1172 15.4871 12.1225 15.5003 12.1225C15.5136 12.1225 15.5263 12.1172 15.5357 12.1078C15.5451 12.0984 15.5503 12.0857 15.5503 12.0725" stroke="#4C5664" stroke-width="1.3" stroke-linecap="round" stroke-linejoin="round"/>
</g>
<defs>
<clipPath id="clip0_3181_9347">
<rect width="24" height="24" fill="white" transform="translate(0.5)"/>
</clipPath>
</defs>
</svg>
