<svg width="244" height="150" viewBox="0 0 244 150" fill="none" xmlns="http://www.w3.org/2000/svg">
<g id="No Datasources" clip-path="url(#clip0_3822_39523)">
<path id="Vector" d="M152.749 126.553C147.136 128.969 147.084 128.834 141.471 131.25C135.858 133.666 135.525 132.875 129.911 135.291C124.298 137.707 124.33 137.779 118.717 140.195C113.104 142.611 113.364 143.226 107.751 145.642C102.502 147.902 96.4833 147.391 91.4014 144.767C85.9237 141.935 85.8196 142.132 80.3419 139.289C74.8643 136.447 75.0518 136.103 69.5741 133.26C64.0965 130.417 64.0861 130.448 58.598 127.605C53.1099 124.762 52.9121 125.168 47.424 122.336C43.9458 120.534 44.0187 114.88 47.6115 113.328C53.2245 110.912 53.5161 111.589 59.1187 109.162C64.7213 106.736 64.4193 106.028 70.0323 103.612C75.6453 101.196 76.0098 102.029 81.6228 99.613C87.2359 97.197 87.2567 97.2282 92.8697 94.8122C98.1183 92.5525 104.117 92.063 109.199 94.6977C112.85 96.5861 116.506 98.4744 120.164 100.363C125.642 103.195 125.621 103.237 131.099 106.07C136.576 108.902 136.201 109.641 141.689 112.474C147.178 115.307 147.313 115.036 152.791 117.879C156.269 119.68 156.352 124.981 152.759 126.533L152.749 126.553Z" fill="#ECE6F3"/>
<g id="Group">
<path id="Vector_2" d="M189.364 83.5755C183.386 83.3672 183.397 82.8465 177.419 82.6382C171.442 82.43 171.431 82.7111 165.443 82.5029C159.456 82.2946 159.445 82.7007 153.468 82.4924C147.49 82.2842 147.49 82.1071 141.513 81.8989C135.535 81.6906 135.514 82.1592 129.537 81.9509C123.549 81.7427 123.58 81.0137 117.592 80.8054C111.615 80.5971 111.594 81.1907 105.606 80.9825C99.618 80.7742 99.6389 80.0973 93.6614 79.889C87.6838 79.6807 87.6422 80.5555 81.6543 80.3472C80.9045 80.3264 80.363 80.4305 80.363 81.1803C80.363 86.3455 80.4983 86.3455 80.4983 91.5108C80.4983 96.676 79.9672 96.676 79.9048 101.841C79.7486 103.601 81.1128 105.132 82.9456 106.08C88.3607 108.881 88.0587 109.454 93.4635 112.255C98.8682 115.056 98.9828 114.848 104.388 117.649C109.792 120.451 109.969 120.138 115.374 122.94C120.779 125.741 120.8 125.71 126.215 128.511C131.64 131.323 138.045 132.187 143.668 129.761C147.362 128.171 151.059 126.584 154.759 125.001C160.299 122.617 160.205 122.398 165.745 120.013C171.286 117.629 171.171 117.368 176.711 114.973C182.251 112.578 182.335 112.776 187.875 110.391C189.645 109.631 190.988 107.944 191.072 106.288C191.113 100.946 190.103 100.946 190.114 95.6034C190.124 90.2611 190.968 90.2611 190.968 84.9189C190.968 84.2107 190.082 83.5963 189.374 83.5755H189.364Z" fill="#D5E1E6"/>
<path id="Vector_3" d="M189.374 83.1591C183.397 82.9508 183.386 83.0029 177.409 82.7946C171.431 82.5864 171.431 82.4302 165.454 82.2219C159.476 82.0136 159.445 82.6384 153.467 82.4302C147.49 82.2219 147.5 81.9199 141.512 81.7116C135.535 81.5033 135.535 81.2742 129.557 81.0659C123.58 80.8577 123.57 80.9306 117.582 80.7223C111.594 80.514 111.573 81.2222 105.595 81.0139C99.6074 80.8056 99.6283 80.2433 93.6404 80.035C87.6524 79.8267 87.6316 80.5765 81.6437 80.3682C80.8939 80.3474 79.8734 80.4307 79.8734 81.1701C79.8734 86.3353 79.79 86.3353 79.79 91.5005C79.79 96.6658 80.2587 96.6658 80.1858 101.831C80.0296 103.591 80.8314 105.642 82.6538 106.59C88.069 109.391 88.2877 108.954 93.7028 111.755C99.1076 114.557 99.0034 114.765 104.408 117.566C109.813 120.368 109.823 120.357 115.239 123.169C120.654 125.981 120.539 126.189 125.954 128.99C131.38 131.802 137.836 131.677 143.46 129.25C149 126.866 149.083 127.053 154.623 124.668C160.164 122.284 160.309 122.627 165.849 120.243C171.39 117.858 171.421 117.92 176.961 115.525C182.501 113.13 182.47 113.067 188.01 110.672C189.78 109.912 190.166 107.923 190.249 106.267C190.291 100.925 190.52 100.925 190.52 95.5827C190.52 90.2405 190.822 90.2405 190.822 84.8982C190.822 84.1901 190.103 83.1591 189.395 83.1383L189.374 83.1591Z" fill="#D5E1E6"/>
<path id="Vector_4" d="M189.364 83.409C183.386 83.2007 183.386 83.0341 177.409 82.8258C171.431 82.6176 171.4 83.4923 165.412 83.284C159.424 83.0758 159.435 82.8258 153.457 82.6176C147.48 82.4093 147.5 81.7532 141.523 81.5449C135.545 81.3367 135.545 81.3054 129.558 81.0971C123.57 80.8889 123.57 81.0138 117.582 80.8056C111.594 80.5973 111.583 81.0451 105.606 80.8368C99.6284 80.6285 99.6284 80.2328 93.6509 80.0245C87.6629 79.8162 87.6629 79.8371 81.675 79.6288C80.9252 79.608 80.0088 80.4411 80.0088 81.1909C80.0088 86.3561 80.4774 86.3561 80.4774 91.5213C80.4774 96.6866 79.8526 96.6866 79.7797 101.852C79.6235 103.612 80.7794 105.757 82.6123 106.705C88.0274 109.506 88.1732 109.204 93.5884 112.005C99.0035 114.807 98.8265 115.129 104.242 117.931C109.657 120.732 110.053 119.972 115.457 122.773C120.862 125.574 120.706 125.887 126.121 128.688C131.547 131.5 137.889 131.823 143.502 129.407C149.042 127.022 148.979 126.887 154.519 124.502C160.059 122.117 160.226 122.513 165.766 120.128C171.306 117.743 171.275 117.649 176.815 115.265C182.355 112.88 182.324 112.817 187.875 110.422C189.645 109.662 190.332 107.954 190.416 106.309C190.457 100.967 190.801 100.967 190.801 95.6244C190.801 90.2821 191.124 90.2821 191.134 84.9398C191.134 84.2317 190.082 83.4507 189.374 83.4194L189.364 83.409Z" fill="#D5E1E6"/>
<path id="Vector_5" d="M189.353 83.8985C183.376 83.6902 183.365 83.836 177.388 83.6278C171.41 83.4195 171.431 82.8155 165.443 82.6072C159.455 82.3989 159.445 82.8259 153.467 82.6176C147.49 82.4093 147.5 81.8887 141.523 81.6804C135.545 81.4721 135.545 81.2118 129.568 81.0035C123.58 80.7952 123.559 81.42 117.582 81.2118C111.604 81.0035 111.583 81.4096 105.606 81.2118C99.6283 81.0139 99.6283 80.6078 93.6508 80.3995C87.6629 80.1912 87.6525 80.5245 81.6646 80.3162C80.9148 80.2953 79.915 80.4307 79.915 81.1701C79.915 86.3353 80.3003 86.3353 80.3003 91.5006C80.3003 96.6658 80.3108 96.6658 80.2483 101.831C80.0921 103.591 81.1647 105.028 82.9975 105.976C88.4127 108.777 88.2044 109.173 93.6091 111.974C99.0139 114.775 99.0764 114.661 104.481 117.462C109.886 120.263 109.959 120.138 115.374 122.94C120.789 125.741 120.57 126.158 125.986 128.969C131.411 131.781 137.722 131.364 143.335 128.938C148.875 126.553 149.094 127.064 154.634 124.679C160.174 122.294 160.184 122.336 165.725 119.951C171.265 117.566 171.317 117.681 176.857 115.296C182.397 112.911 182.262 112.578 187.802 110.193C189.572 109.433 190.436 107.933 190.52 106.288C190.561 100.946 191.04 100.946 191.04 95.6036C191.04 90.2613 190.124 90.2613 190.124 84.9191C190.124 84.2109 190.072 83.9193 189.364 83.8881L189.353 83.8985Z" fill="#D5E1E6"/>
<path id="Vector_6" d="M81.6543 80.0869C80.9045 80.0557 80.4567 80.4306 80.4567 81.1804C80.4567 86.3456 80.4463 86.3456 80.4463 91.5108C80.4463 96.6761 80.4463 96.6761 80.3838 101.841C80.2276 103.601 80.9566 105.392 82.7894 106.34C88.2045 109.141 88.1733 109.204 93.5781 112.005C98.9828 114.806 99.0765 114.629 104.481 117.431C109.886 120.232 109.865 120.295 115.27 123.096C120.675 125.897 120.654 125.949 126.069 128.75C129.006 130.271 132.453 131.125 135.681 131.125C137.243 125.158 135.473 124.897 135.473 118.732C135.473 112.567 135.66 112.567 135.66 106.403C135.66 100.238 135.608 100.238 135.608 94.0622C135.608 87.8869 139.774 86.1269 135.306 81.8677C130.432 77.2232 128.725 81.524 121.997 81.2845C115.28 81.0554 115.28 81.0242 108.553 80.7847C101.826 80.5451 101.826 80.5556 95.0985 80.3993C88.3712 80.2431 88.3712 80.3056 81.6439 80.0765L81.6543 80.0869Z" fill="#ABBBC1"/>
<g id="Clip path group">
<mask id="mask0_3822_39523" style="mask-type:luminance" maskUnits="userSpaceOnUse" x="79" y="80" width="112" height="51">
<g id="uuid-9cc29c78-cc9e-487a-b2dc-0e6f4c1cafc7">
<path id="Vector_7" d="M189.364 83.5547C183.386 83.3464 183.376 83.5547 177.388 83.3464C171.41 83.1381 171.421 82.7424 165.433 82.5341C159.445 82.3259 159.455 82.128 153.478 81.9197C147.5 81.7114 147.469 82.6383 141.481 82.43C135.493 82.2217 135.504 82.0134 129.526 81.8052C123.538 81.5969 123.549 81.2845 117.571 81.0762C111.594 80.8679 111.583 80.9512 105.606 80.743C99.6283 80.5347 99.6075 80.8367 93.6195 80.6284C87.6316 80.4201 87.642 80.2327 81.6541 80.0244C80.9043 80.0036 80.6544 80.4305 80.6544 81.1803C80.6544 86.3456 79.9671 86.3456 79.9671 91.5108C79.9671 96.676 79.915 96.676 79.8525 101.841C79.6963 103.601 80.9981 105.33 82.8205 106.278C88.2356 109.079 88.1836 109.173 93.5883 111.974C98.9931 114.775 98.8993 114.973 104.304 117.774C109.709 120.576 109.709 120.596 115.114 123.408C120.518 126.22 120.727 125.814 126.142 128.615C131.567 131.427 137.764 131.573 143.387 129.146C148.927 126.761 149.031 126.991 154.571 124.606C160.111 122.221 160.143 122.294 165.672 119.899C171.202 117.504 171.129 117.316 176.669 114.921C182.21 112.526 182.366 112.89 187.906 110.506C189.676 109.745 190.093 107.933 190.176 106.278C190.218 100.935 190.613 100.935 190.613 95.593C190.613 90.2507 190.218 90.2507 190.228 84.9085C190.228 84.2003 190.061 83.5651 189.353 83.5339L189.364 83.5547Z" fill="white"/>
</g>
</mask>
<g mask="url(#mask0_3822_39523)">
<g id="Group_2">
<path id="Vector_8" d="M70.9381 24.571C75.0932 25.654 79.2171 26.685 82.8723 28.5803C86.5275 30.4756 90.3077 32.8083 93.4735 35.4951C96.6393 38.1818 99.1907 41.7329 101.69 45.0861C104.189 48.4394 106.793 51.8655 108.501 55.7082C110.208 59.5509 111.416 63.6643 112.229 67.809C113.041 71.9537 113.374 76.1608 113.239 80.4201C113.103 84.6793 111.677 88.5636 110.583 92.7187C109.5 96.8738 108.532 100.956 106.626 104.611C104.668 108.391 102.554 112.109 99.8676 115.275C97.1808 118.441 94.0254 121.492 90.6722 123.991C87.319 126.491 83.3722 128.219 79.5295 129.927C75.7076 131.625 71.6567 132.708 67.512 133.52C63.3673 134.332 59.2643 135.436 55.0154 135.301C50.902 135.165 46.6219 134.551 42.4669 133.468C38.3118 132.385 34.6045 130.198 30.9492 128.303C27.294 126.407 23.9199 123.762 20.7646 121.065C17.6092 118.368 14.3288 115.639 11.8295 112.286C9.33023 108.933 6.87258 105.413 5.17514 101.57C3.47769 97.7277 2.75914 93.5414 1.93646 89.3967C1.11377 85.252 0.801355 81.1698 0.936734 76.921C1.07211 72.6722 1.5928 68.6733 2.67583 64.5182C3.75887 60.3631 5.10224 56.3955 6.99755 52.7298C8.95534 48.9496 11.1422 45.3152 13.8394 42.1495C16.5366 38.9837 19.5566 35.8387 22.9098 33.329C26.263 30.8193 30.3765 29.4655 34.2192 27.7576C38.0618 26.0498 41.9358 24.6647 46.0804 23.8525C50.2251 23.0402 54.3073 22.2591 58.5561 22.3945C62.6696 22.5299 66.783 23.4776 70.9381 24.5606V24.571Z" fill="#FFCD6E"/>
</g>
</g>
</g>
<g id="Group_3">
<path id="Vector_9" d="M136.577 106.715C133.63 106.715 130.495 105.903 127.528 104.372C124.758 102.935 123.331 102.258 121.946 101.602C120.592 100.956 119.186 100.29 116.468 98.8839C113.771 97.4885 112.49 96.7387 111.136 95.9473C109.803 95.1662 108.439 94.3644 105.659 92.9273C102.92 91.511 101.545 90.8029 100.171 90.0947C98.796 89.3866 97.4318 88.6889 94.6929 87.2726C91.9437 85.8459 90.5587 85.1482 89.1841 84.4609C87.8094 83.7632 86.4348 83.0758 83.7064 81.6596C82.3214 80.941 81.8736 79.6705 81.9048 78.7125C81.9465 77.619 82.5609 76.7443 83.6127 76.2861C86.3411 75.1093 87.7365 74.6719 89.1945 74.2033C90.6732 73.7347 92.1936 73.2557 95.0783 72.0164C97.8796 70.8084 99.2854 70.2148 100.681 69.6317C102.087 69.0381 103.503 68.4445 106.315 67.2365C109.231 65.9764 110.616 65.1121 111.949 64.2686C113.24 63.4563 114.469 62.6857 117.155 61.5298C119.946 60.3322 121.342 59.7282 122.737 59.1346C124.154 58.5306 125.559 57.937 128.392 56.7186C130.193 55.948 132.162 55.5522 134.244 55.5522C137.264 55.5522 140.441 56.3749 143.44 57.9266C146.22 59.3637 147.689 60.0093 149.105 60.6238C150.542 61.2486 151.896 61.8422 154.583 63.2376C157.353 64.6747 158.727 65.3828 160.123 66.091C161.476 66.7887 162.851 67.4864 165.548 68.8923C168.318 70.3294 169.766 70.9855 171.172 71.6311C172.598 72.2872 173.952 72.9016 176.649 74.3074C179.388 75.7237 180.763 76.4319 182.137 77.14C183.512 77.8481 184.876 78.5459 187.615 79.9725C188.656 80.5141 189.25 81.6387 189.198 82.9925C189.156 84.1068 188.625 85.5023 187.261 86.0958C184.46 87.3038 183.054 87.887 181.658 88.4806C180.242 89.0742 178.836 89.6678 176.025 90.8758C173.171 92.1046 171.765 92.8231 170.401 93.5209C169.026 94.229 167.725 94.8851 164.965 96.0722L153.739 100.915C150.959 102.112 149.521 102.675 148.136 103.216C146.72 103.768 145.262 104.341 142.43 105.559C140.607 106.34 138.639 106.736 136.567 106.736L136.577 106.715Z" fill="white"/>
<path id="Vector_10" d="M134.254 57.0934C137.024 57.0934 139.961 57.8536 142.731 59.2907C145.564 60.759 147.053 61.4047 148.49 62.0399C149.896 62.6543 151.229 63.2375 153.874 64.6121C156.613 66.0284 157.987 66.7365 159.362 67.4447C160.737 68.1528 162.101 68.8505 164.84 70.2668C167.651 71.7247 169.109 72.3912 170.526 73.0369C171.931 73.6825 173.264 74.2865 175.941 75.6715C178.69 77.0982 180.065 77.7959 181.439 78.5041C182.803 79.2122 184.178 79.9099 186.917 81.3262C187.646 81.7011 187.667 82.6279 187.656 82.8987C187.635 83.5027 187.365 84.315 186.656 84.617C183.866 85.825 182.46 86.4081 181.064 87.0017C179.648 87.5953 178.232 88.1889 175.42 89.4073C172.525 90.657 171.088 91.3859 169.703 92.0941C168.349 92.7814 167.068 93.4374 164.35 94.6038C161.538 95.8118 160.133 96.4262 158.737 97.0302C157.342 97.6342 155.936 98.2382 153.135 99.4462C150.375 100.633 149.021 101.164 147.584 101.727C146.157 102.279 144.679 102.851 141.825 104.091C140.201 104.788 138.441 105.143 136.577 105.143C133.879 105.143 130.995 104.393 128.246 102.966C125.455 101.519 124.018 100.842 122.622 100.175C121.216 99.5087 119.883 98.8734 117.186 97.478C114.52 96.0929 113.26 95.364 111.927 94.5725C110.584 93.7811 109.188 92.9688 106.377 91.5109C103.627 90.0842 102.253 89.3865 100.878 88.6783C99.514 87.9806 98.1394 87.2725 95.411 85.8562C92.6514 84.4295 91.2663 83.7318 89.8813 83.0341C88.5067 82.3468 87.1425 81.649 84.4141 80.2432C83.6851 79.8683 83.4352 79.2226 83.456 78.7436C83.4768 78.2646 83.7268 77.9105 84.2162 77.7022C86.8717 76.5567 88.2255 76.1297 89.6522 75.682C91.1622 75.2029 92.7347 74.7135 95.6818 73.443C98.4727 72.235 99.8785 71.6518 101.274 71.0582C102.69 70.4647 104.107 69.8711 106.918 68.6527C109.949 67.3509 111.386 66.4449 112.771 65.5702C114.01 64.7891 115.187 64.0498 117.769 62.9355C120.571 61.7275 121.977 61.1339 123.372 60.5403C124.778 59.9363 126.194 59.3427 129.006 58.1347C130.61 57.4474 132.369 57.0934 134.244 57.0934M134.244 53.9692C132.036 53.9692 129.839 54.3754 127.767 55.2605C122.154 57.6765 122.143 57.6453 116.53 60.0717C110.917 62.4877 111.292 63.3625 105.679 65.7785C100.066 68.1945 100.045 68.1528 94.4425 70.5688C88.8295 72.9848 88.59 72.4224 82.977 74.8384C79.3842 76.3901 79.4988 81.2325 82.977 83.0341C88.4546 85.877 88.4859 85.8146 93.9739 88.6471C97.6257 90.5424 101.284 92.4273 104.95 94.3018C110.428 97.1343 110.282 97.4259 115.76 100.258C121.237 103.091 121.331 102.914 126.819 105.747C129.881 107.329 133.244 108.267 136.587 108.267C138.784 108.267 140.982 107.861 143.064 106.955C148.677 104.539 148.761 104.736 154.374 102.32C159.987 99.9044 159.987 99.894 165.6 97.478C171.213 95.062 171.057 94.6975 176.659 92.2815C182.272 89.8655 182.293 89.9176 187.906 87.5016C191.499 85.9499 191.832 80.3682 188.364 78.5666C184.713 76.6713 181.057 74.7829 177.399 72.9015C171.921 70.0585 171.775 70.3293 166.298 67.4967C162.646 65.6084 158.991 63.7235 155.332 61.8421C149.854 59.0095 149.667 59.3636 144.189 56.531C141.107 54.9377 137.67 53.9797 134.275 53.9797L134.244 53.9692Z" fill="#D5E1E6"/>
</g>
<g id="Group_4">
<path id="Vector_11" d="M182.803 98.6026C183.751 98.1548 184.803 98.7068 185.126 99.8315C185.448 100.956 184.928 102.216 183.98 102.664C183.032 103.112 181.991 102.581 181.668 101.456C181.345 100.331 181.856 99.04 182.803 98.5922V98.6026Z" fill="#FCBA44"/>
<path id="Vector_12" d="M182.803 98.6026C183.751 98.1548 184.803 98.7068 185.126 99.8315C185.448 100.956 184.928 102.216 183.98 102.664C183.032 103.112 181.991 102.581 181.668 101.456C181.345 100.331 181.856 99.04 182.803 98.5922V98.6026Z" stroke="white" stroke-width="1.33323" stroke-miterlimit="10"/>
</g>
</g>
<g id="Group_5">
<path id="Vector_13" d="M202.84 57.2392C196.862 57.031 196.873 56.6977 190.885 56.4894C184.897 56.2812 184.897 56.4061 178.919 56.1979C172.942 55.9896 172.952 55.4376 166.975 55.2294C160.997 55.0211 160.987 55.1669 155.009 54.9586C149.032 54.7503 149.032 54.6566 143.044 54.4483C137.056 54.2401 137.066 54.1672 131.078 53.9589C125.091 53.7506 125.101 53.6777 119.113 53.4694C113.125 53.2612 113.094 54.3338 107.106 54.1255C101.118 53.9172 101.139 53.3132 95.1509 53.105C94.4011 53.0841 93.5784 53.7506 93.5784 54.5004C93.5784 59.6656 93.7034 59.6656 93.7034 64.8309C93.7034 69.9961 93.4847 69.9961 93.4222 75.1613C93.266 76.9213 94.1929 79.2331 96.0153 80.1808C101.43 82.9821 101.639 82.5759 107.043 85.3772C112.448 88.1785 112.532 88.0119 117.947 90.8132C123.362 93.6145 123.508 93.3334 128.912 96.1347C134.317 98.936 134.244 99.0922 139.659 101.893C145.085 104.705 151.167 104.664 156.79 102.237C162.33 99.8524 162.549 100.352 168.089 97.9675C173.629 95.5827 173.452 95.187 178.992 92.8023C184.532 90.4175 184.897 91.261 190.437 88.8763C195.977 86.4915 195.821 86.1166 201.361 83.7215C203.131 82.9612 203.839 81.2638 203.923 79.608C203.964 74.2657 203.985 74.2657 203.985 68.9235C203.985 63.5812 204.673 63.5812 204.673 58.239C204.673 57.5308 203.548 57.2705 202.84 57.2496V57.2392Z" fill="#D5E1E6"/>
<path id="Vector_14" d="M95.1513 52.9592C94.4015 52.928 94.0266 53.7403 94.0266 54.4797C94.0266 59.6449 93.6725 59.6449 93.6725 64.8101C93.6725 69.9753 93.6517 69.9753 93.5892 75.1406C93.433 76.9005 94.3599 78.8895 96.1823 79.8372C99.7924 81.7047 103.402 83.5688 107.013 85.4294C112.417 88.2307 112.469 88.1474 117.874 90.9487C123.279 93.75 123.383 93.5625 128.798 96.3638C134.213 99.1651 134.026 99.5296 139.431 102.331C142.367 103.851 145.97 104.445 149.199 104.445C150.761 98.4778 148.886 98.2071 148.886 92.0421C148.886 85.8772 148.782 85.8772 148.782 79.7122C148.782 73.5473 149.209 73.5473 149.209 67.3719C149.209 61.1965 153.552 59.145 149.084 54.8858C144.211 50.2412 142.232 54.5942 135.505 54.3547C128.788 54.1256 128.767 54.5109 122.05 54.2714C115.333 54.0319 115.323 54.0839 108.595 53.7819C101.868 53.4799 101.879 53.1779 95.1617 52.9488L95.1513 52.9592Z" fill="#ABBBC1"/>
<g id="Clip path group_2">
<mask id="mask1_3822_39523" style="mask-type:luminance" maskUnits="userSpaceOnUse" x="93" y="53" width="112" height="52">
<g id="uuid-8da26758-8a70-405c-888f-43df36e13d59">
<path id="Vector_15" d="M202.861 56.6665C196.883 56.4583 196.883 56.2396 190.906 56.0313C184.928 55.823 184.918 56.1042 178.93 55.9063C172.942 55.7085 172.942 55.9167 166.954 55.7085C160.966 55.5002 160.976 55.3127 154.999 55.1045C149.021 54.8962 149.032 54.5838 143.044 54.3755C137.056 54.1672 137.035 54.8858 131.047 54.6775C125.059 54.4692 125.091 53.6882 119.113 53.4799C113.136 53.2716 113.094 54.261 107.106 54.0527C101.118 53.8444 101.128 53.709 95.1405 53.5007C94.3907 53.4799 93.4535 53.7403 93.4535 54.4796C93.4535 59.6449 94.2762 59.6449 94.2762 64.8101C94.2762 69.9753 93.3181 69.9753 93.2556 75.1406C93.0994 76.9005 94.3178 78.9624 96.1403 79.8997C101.555 82.701 101.451 82.8884 106.866 85.6897C112.282 88.491 112.25 88.5431 117.655 91.3444C123.06 94.1457 123.341 93.6146 128.756 96.4159C134.171 99.2172 134.078 99.3942 139.493 102.196C144.918 105.007 151.417 105.205 157.03 102.779C162.57 100.394 162.632 100.529 168.162 98.1446C173.692 95.7598 173.692 95.7494 179.232 93.3647C184.772 90.9799 184.47 90.2718 190.01 87.887C195.55 85.5023 195.727 85.9188 201.267 83.5236C203.038 82.7634 204.391 81.243 204.475 79.5872C204.516 74.245 204.069 74.245 204.069 68.9027C204.069 63.5605 203.735 63.5605 203.735 58.2182C203.735 57.5101 203.548 56.6769 202.84 56.6457L202.861 56.6665Z" fill="white"/>
</g>
</mask>
<g mask="url(#mask1_3822_39523)">
<g id="Group_6">
<path id="Vector_16" d="M81.1546 24.4983C85.3097 25.5814 89.3086 26.8935 92.9638 28.7888C96.6191 30.6841 99.9202 33.5063 103.086 36.193C106.252 38.8798 109.116 41.9518 111.615 45.2947C114.114 48.6375 116.27 52.1886 117.978 56.0312C119.686 59.8739 121.695 63.6437 122.508 67.7884C123.32 71.9331 123.153 76.1402 123.008 80.3995C122.862 84.6587 122.622 88.7513 121.539 92.9064C120.456 97.0615 118.238 100.686 116.343 104.341C114.385 108.121 112.812 112.13 110.115 115.296C107.418 118.462 103.763 120.836 100.41 123.346C97.0564 125.856 93.7136 128.511 89.8709 130.219C86.0283 131.927 81.8732 132.718 77.7285 133.531C73.5838 134.343 69.512 134.52 65.2528 134.374C60.9935 134.228 56.8489 134.468 52.6938 133.374C48.5387 132.291 44.6648 130.469 41.0095 128.563C37.3543 126.657 33.6262 124.325 30.4708 121.638C27.3154 118.951 24.4516 115.692 21.9419 112.339C19.4322 108.985 17.1307 105.372 15.4229 101.539C13.715 97.7072 12.8923 93.5416 12.0696 89.397C11.247 85.2523 10.2264 81.1388 10.3618 76.89C10.4972 72.6412 11.2053 68.5174 12.2883 64.3623C13.3714 60.2072 15.3708 56.427 17.2661 52.7717C19.1614 49.1165 21.8898 45.7841 24.587 42.6287C27.2842 39.4734 29.8668 35.9952 33.22 33.4854C36.5733 30.9757 40.5617 29.4553 44.4044 27.7474C48.2471 26.0396 52.0794 24.415 56.224 23.6028C60.3687 22.7905 64.4926 22.3115 68.7518 22.4468C72.8652 22.5822 76.9995 23.4153 81.1546 24.4983Z" fill="#FFCD6E"/>
</g>
</g>
</g>
<path id="Vector_17" d="M96.4316 79.3582C101.909 82.1907 101.732 82.5344 107.21 85.3773C112.688 88.2099 112.49 88.6056 117.967 91.4381C123.445 94.2707 123.466 94.2499 128.943 97.0824C134.421 99.9149 134.713 99.363 140.201 102.196C145.283 104.83 151.104 105.08 156.352 102.81C161.966 100.394 162.007 100.488 167.62 98.0717C173.233 95.6557 173.379 95.9889 178.982 93.573C184.584 91.157 184.678 91.3548 190.291 88.9388C195.904 86.5228 195.779 86.2208 201.392 83.8048" stroke="#80949C" stroke-width="1.33323" stroke-linecap="round" stroke-linejoin="round"/>
<g id="Group_7">
<path id="Vector_18" d="M148.708 79.8058C145.98 79.8058 143.345 79.1601 140.898 77.8896C138.18 76.4838 136.826 75.7236 135.514 74.9842C134.181 74.2344 132.796 73.4638 130.036 72.0267C127.277 70.6 125.86 69.9023 124.496 69.2358C123.142 68.5693 121.736 67.8924 119.018 66.4761C116.228 65.0286 114.77 64.3934 113.353 63.779C111.916 63.1541 110.562 62.5606 107.876 61.1651C105.199 59.7801 103.96 58.9886 102.648 58.1451C101.336 57.3016 99.9821 56.4268 97.1704 54.9793C96.0561 54.4066 95.4104 53.4173 95.4521 52.3446C95.4937 51.3033 96.1394 50.4389 97.2433 49.9599C100.128 48.7207 101.523 47.9292 102.877 47.1586C104.21 46.3984 105.481 45.6798 108.199 44.5135C110.885 43.3576 112.281 43.0139 113.77 42.6494C115.311 42.2745 116.904 41.8788 119.82 40.6187C122.601 39.4212 124.007 38.8067 125.392 38.2027C126.808 37.5883 128.203 36.9739 131.036 35.7555C133.837 34.5475 135.243 33.9227 136.639 33.3083C138.034 32.6834 139.429 32.069 142.241 30.861C144.761 29.778 147.313 29.2261 149.833 29.2261C152.353 29.2261 154.852 29.8092 157.081 30.9652C159.757 32.3502 160.996 33.1417 162.309 33.9748C163.621 34.8079 164.974 35.6826 167.786 37.1301C170.598 38.5881 172.108 39.1712 173.566 39.744C175.013 40.3063 176.378 40.8478 179.043 42.2225C181.772 43.6387 183.115 44.3677 184.469 45.0967C185.833 45.836 187.197 46.5754 189.957 48.0021C192.654 49.3976 193.925 50.1578 195.279 50.9492C196.601 51.7406 197.976 52.5529 200.756 53.99C201.881 54.5732 202.527 55.5937 202.485 56.7393C202.443 57.8223 201.798 58.7179 200.704 59.1865C197.861 60.4049 196.455 61.0922 195.081 61.7483C193.737 62.3939 192.352 63.0604 189.582 64.258C186.833 65.4452 185.458 65.9034 183.99 66.4032C182.532 66.8927 181.022 67.403 178.158 68.6318L166.932 73.4638C164.131 74.6718 162.735 75.2862 161.34 75.9006C159.934 76.515 158.539 77.1294 155.727 78.3478C153.467 79.3267 151.114 79.8162 148.739 79.8162L148.708 79.8058Z" fill="white"/>
<path id="Vector_19" d="M149.833 30.7675C152.166 30.7675 154.363 31.2882 156.352 32.3296C158.966 33.6834 160.174 34.454 161.455 35.2767C162.798 36.1306 164.183 37.0158 167.047 38.505C169.932 39.9941 171.483 40.5981 172.973 41.1917C174.378 41.7436 175.711 42.2643 178.304 43.6077C181.012 45.0136 182.376 45.7529 183.699 46.4715C185.042 47.2005 186.438 47.9607 189.208 49.3978C191.863 50.7724 193.123 51.5222 194.446 52.3032C195.789 53.1051 197.185 53.9278 200.007 55.3857C200.829 55.8126 200.902 56.4375 200.892 56.6874C200.881 57.0102 200.725 57.4684 200.048 57.76C197.185 58.9993 195.748 59.6866 194.373 60.3531C192.988 61.0195 191.676 61.6548 188.937 62.8315C186.25 63.9875 184.896 64.4457 183.47 64.9247C181.98 65.4246 180.439 65.9452 177.523 67.2053C174.722 68.4133 173.316 69.0173 171.91 69.6213C170.505 70.2253 169.099 70.8293 166.297 72.0373C163.475 73.2557 162.08 73.8701 160.674 74.4845C159.278 75.0989 157.883 75.7134 155.092 76.9109C153.03 77.7961 150.885 78.2543 148.719 78.2543C146.24 78.2543 143.856 77.6712 141.617 76.5152C138.93 75.1198 137.639 74.4012 136.285 73.6306C134.941 72.8704 133.546 72.0894 130.755 70.6523C127.985 69.2152 126.558 68.5174 125.184 67.851C123.84 67.1949 122.445 66.5076 119.737 65.1121C116.905 63.6438 115.416 62.9981 113.979 62.3629C112.573 61.7485 111.24 61.1653 108.595 59.7907C105.981 58.4369 104.773 57.6663 103.502 56.8436C102.159 55.9793 100.774 55.0941 97.8997 53.6049C97.327 53.3133 97.0145 52.876 97.025 52.4073C97.0354 51.9908 97.3374 51.6367 97.8789 51.3972C100.836 50.1163 102.273 49.304 103.659 48.523C104.96 47.7836 106.179 47.0859 108.834 45.9508C111.396 44.8469 112.739 44.5137 114.156 44.17C115.686 43.7952 117.415 43.3682 120.456 42.0561C123.268 40.8481 124.674 40.2336 126.079 39.6192C127.475 39.0152 128.87 38.4008 131.672 37.1928C134.494 35.9744 135.92 35.3392 137.305 34.7248C138.67 34.1208 140.086 33.4855 142.866 32.2879C145.189 31.2882 147.532 30.7779 149.844 30.7779M149.844 27.6538C147.074 27.6538 144.283 28.2786 141.638 29.4137C136.025 31.8297 136.056 31.8922 130.443 34.3186C124.83 36.745 124.84 36.7659 119.227 39.1819C113.614 41.5978 113.218 40.6606 107.605 43.0766C101.992 45.4926 102.263 46.107 96.6501 48.523C93.0573 50.0747 92.9948 54.5734 96.473 56.3646C101.951 59.2075 101.69 59.7178 107.168 62.5504C112.646 65.3933 112.833 65.0288 118.321 67.8614C123.799 70.6939 123.861 70.569 129.339 73.4119C134.817 76.2445 134.723 76.4319 140.2 79.2749C142.898 80.6703 145.813 81.368 148.729 81.368C151.302 81.368 153.884 80.8369 156.342 79.7747C161.955 77.3587 161.934 77.3171 167.547 74.9011C173.16 72.4851 173.16 72.4851 178.773 70.0691C184.386 67.6531 184.584 68.1113 190.187 65.6953C195.8 63.2793 195.695 63.0398 201.308 60.6238C204.901 59.0722 204.932 54.4068 201.465 52.6052C195.987 49.7622 196.143 49.4498 190.666 46.6069C185.188 43.7639 185.24 43.6598 179.762 40.8168C174.285 37.9843 173.983 38.557 168.505 35.7245C163.027 32.8919 163.277 32.3921 157.8 29.5595C155.28 28.2578 152.572 27.6538 149.844 27.6538Z" fill="#D5E1E6"/>
</g>
<g id="Group_8">
<path id="Vector_20" d="M196.279 71.9017C197.227 71.454 198.268 72.0267 198.591 73.1514C198.914 74.2761 198.425 75.5674 197.477 76.0152C196.529 76.463 195.478 75.9006 195.155 74.776C194.832 73.6513 195.332 72.36 196.279 71.9122V71.9017Z" fill="#FCBA44"/>
<path id="Vector_21" d="M196.279 71.9017C197.227 71.454 198.268 72.0267 198.591 73.1514C198.914 74.2761 198.425 75.5674 197.477 76.0152C196.529 76.463 195.478 75.9006 195.155 74.776C194.832 73.6513 195.332 72.36 196.279 71.9122V71.9017Z" stroke="white" stroke-width="1.33323" stroke-miterlimit="10"/>
</g>
</g>
<path id="Vector_22" d="M82.9355 106.08C88.4132 108.913 88.3403 109.069 93.8179 111.912C99.2956 114.755 99.0561 115.203 104.534 118.045C110.011 120.888 109.991 120.93 115.479 123.763C120.967 126.595 121.144 126.252 126.621 129.084C131.703 131.719 137.889 132.396 143.148 130.136C148.761 127.72 148.594 127.324 154.197 124.908C159.8 122.492 159.758 122.378 165.371 119.962C170.984 117.546 170.921 117.389 176.535 114.973C182.148 112.557 182.366 113.057 187.979 110.641" stroke="#80949C" stroke-width="1.33323" stroke-linecap="round" stroke-linejoin="round"/>
<g id="Group_9">
<g id="Group_10">
<path id="Vector_23" d="M182.543 29.747C176.566 29.5387 176.576 28.9763 170.599 28.7681C164.621 28.5598 164.6 28.9659 158.623 28.7577C152.645 28.5494 152.624 28.9347 146.647 28.7264C140.669 28.5181 140.669 28.4973 134.682 28.289C128.694 28.0808 128.725 27.4663 122.737 27.2581C116.749 27.0498 116.749 27.0186 110.772 26.8103C104.794 26.602 104.784 26.7686 98.8061 26.5603C92.8286 26.3521 92.8182 26.3 86.8303 26.0917C80.8423 25.8835 80.8528 25.5294 74.8648 25.3211C74.1151 25.3003 73.9797 26.3417 73.9797 27.081C73.9797 32.2463 73.3444 32.2463 73.3444 37.4115C73.3444 42.5767 73.0424 42.5767 72.9799 47.742C72.8237 49.5019 74.3233 50.9806 76.1457 51.9283C81.5609 54.7296 81.186 55.4482 86.5907 58.2495C91.9955 61.0508 92.1517 60.7592 97.5564 63.5605C102.961 66.3618 102.92 66.4555 108.335 69.2568C113.75 72.0581 113.76 72.0373 119.175 74.8386C124.601 77.6503 131.141 77.8586 136.754 75.4426C142.294 73.0578 142.107 72.61 147.647 70.2253C153.187 67.8405 153.374 68.2779 158.914 65.8932C164.455 63.5084 164.548 63.7167 170.088 61.3215C175.629 58.9264 175.316 58.2078 180.856 55.8126C182.627 55.0524 183.647 53.8444 183.741 52.1886C183.782 46.8464 184.105 46.8464 184.105 41.5041C184.105 36.1618 183.876 36.1618 183.876 30.8196C183.876 30.1114 183.262 29.7574 182.554 29.7365L182.543 29.747Z" fill="#D5E1E6"/>
<path id="Vector_24" d="M74.8547 25.7375C74.1049 25.7062 73.3863 26.3519 73.3863 27.0913C73.3863 32.2565 73.4176 32.2565 73.4176 37.4217C73.4176 42.5869 73.3343 42.5869 73.2614 47.7522C73.1052 49.5121 74.2403 51.1575 76.0731 52.0947C81.4883 54.896 81.4258 55.0106 86.8409 57.8119C92.2561 60.6132 92.1832 60.7381 97.5879 63.5395C102.993 66.3408 103.066 66.2158 108.481 69.0171C113.896 71.8184 113.938 71.7351 119.342 74.5468C122.279 76.0672 125.674 77.0461 128.913 77.0461C130.475 71.079 128.423 70.8083 128.423 64.6433C128.423 58.4784 128.475 58.4784 128.475 52.3134C128.475 46.1485 128.465 46.1485 128.465 39.9731C128.465 33.7977 133.172 31.8503 128.704 27.5911C123.831 22.9466 121.946 27.362 115.218 27.1225C108.491 26.883 108.491 27.2058 101.764 26.9663C95.0366 26.7268 95.047 26.4039 88.3197 26.1644C81.5924 25.9249 81.5924 25.9562 74.8651 25.7166L74.8547 25.7375Z" fill="#ABBBC1"/>
<g id="Clip path group_3">
<mask id="mask2_3822_39523" style="mask-type:luminance" maskUnits="userSpaceOnUse" x="73" y="25" width="112" height="53">
<g id="uuid-eea6f825-e4e2-4fc4-831b-fb3a19f38583">
<path id="Vector_25" d="M182.564 29.0492C176.587 28.841 176.576 28.9868 170.599 28.7785C164.621 28.5702 164.601 29.1221 158.613 28.9139C152.625 28.7056 152.646 28.2578 146.668 28.0495C140.691 27.8413 140.691 27.6121 134.713 27.4039C128.736 27.1956 128.704 28.0704 122.716 27.8621C116.728 27.6538 116.749 27.2789 110.761 27.0706C104.784 26.8624 104.784 26.779 98.796 26.5708C92.808 26.3625 92.8289 25.8835 86.841 25.6752C80.853 25.4669 80.8218 26.4042 74.8339 26.1959C74.0841 26.175 73.6884 26.3417 73.6884 27.0915C73.6884 32.2567 73.1573 32.2567 73.1573 37.4219C73.1573 42.5872 73.1781 42.5872 73.1156 47.7524C72.9594 49.5123 74.032 51.5742 75.8544 52.5219C81.2696 55.3232 81.5508 54.7713 86.9555 57.5726C92.3602 60.3739 91.9854 61.1133 97.3901 63.9146C102.795 66.7159 102.805 66.7054 108.22 69.5068C113.636 72.3081 113.656 72.2664 119.072 75.0677C124.497 77.8794 131.152 77.8586 136.765 75.4426C142.305 73.0579 142.45 73.4015 147.991 71.0168C153.531 68.632 153.395 68.3092 158.925 65.9244C164.455 63.5397 164.496 63.6021 170.037 61.2174C175.577 58.8326 175.358 58.3224 180.898 55.9376C182.668 55.1774 183.981 53.8549 184.064 52.2095C184.106 46.8672 183.574 46.8672 183.574 41.5249C183.574 36.1827 183.876 36.1827 183.876 30.8404C183.876 30.1323 183.283 29.0805 182.575 29.0597L182.564 29.0492Z" fill="white"/>
</g>
</mask>
<g mask="url(#mask2_3822_39523)">
<g id="Group_11">
<path id="Vector_26" d="M70.9699 24.4462C75.125 25.5292 79.2905 26.529 82.9561 28.4347C86.6218 30.3404 89.8709 33.3396 93.0262 36.0367C96.1816 38.7339 99.4828 41.5248 101.982 44.878C104.481 48.2313 106.2 52.1468 107.908 55.9791C109.615 59.8114 110.553 63.8311 111.375 67.9758C112.198 72.1205 112.875 76.1402 112.74 80.3994C112.604 84.6586 111.948 88.6263 110.865 92.7814C109.782 96.9365 108.751 101.05 106.856 104.705C104.898 108.485 102.065 111.651 99.3682 114.817C96.6711 117.983 93.7552 121.086 90.4124 123.585C87.0696 126.085 83.456 128.334 79.6237 130.042C75.7915 131.75 71.6468 132.437 67.5021 133.249C63.3574 134.062 59.3065 135.415 55.0576 135.28C50.8088 135.145 46.737 134.239 42.5819 133.156C38.4268 132.073 34.3759 130.698 30.7207 128.803C27.0654 126.907 23.6497 124.116 20.4839 121.419C17.3181 118.722 14.5689 115.463 12.0696 112.12C9.57028 108.777 7.30008 105.226 5.59222 101.383C3.88436 97.5405 2.6243 93.5624 1.81202 89.4177C0.999747 85.2731 0.385334 81.1596 0.520713 76.9108C0.656093 72.662 1.69747 68.7047 2.79092 64.5496C3.87395 60.3946 5.48808 56.5935 7.38339 52.9383C9.34118 49.1581 11.2781 45.43 13.9649 42.2642C16.6516 39.0984 19.9112 36.3179 23.2644 33.8186C26.6176 31.3193 30.3562 29.424 34.1884 27.7161C38.0207 26.0083 41.7801 23.9464 45.9248 23.1237C50.0694 22.301 54.287 22.603 58.5358 22.7384C62.7847 22.8737 66.8044 23.3632 70.9595 24.4462H70.9699Z" fill="#FFCD6E"/>
</g>
</g>
</g>
<path id="Vector_27" d="M75.7393 52.7302C81.2169 55.5628 81.3523 55.3024 86.8403 58.135C92.3284 60.9675 92.4534 60.6968 97.931 63.5397C103.409 66.3827 103.367 66.466 108.845 69.309C114.322 72.1519 114.551 71.7145 120.029 74.5575C125.111 77.1922 130.672 77.39 135.931 75.1302C141.544 72.7143 141.69 73.0683 147.303 70.6523C152.916 68.2363 152.76 67.8718 158.362 65.4559C163.965 63.0399 164.235 63.6334 169.849 61.2174C175.462 58.8015 175.347 58.5203 180.96 56.1043" stroke="#80949C" stroke-width="1.33323" stroke-linecap="round" stroke-linejoin="round"/>
<g id="Group_12">
<path id="Vector_28" d="M126.924 52.6467C124.497 52.6467 122.258 52.126 120.29 51.1054C117.645 49.7308 116.437 48.8977 115.167 48.0126C113.875 47.1066 112.532 46.1797 109.699 44.7114C106.877 43.2535 105.346 42.6807 103.868 42.1392C102.41 41.6081 101.046 41.0978 98.39 39.7232C95.7553 38.359 94.589 37.4947 93.3393 36.5782C92.0584 35.6306 90.7255 34.6517 87.8721 33.1729C85.102 31.7358 83.6545 31.0694 82.2487 30.4341C80.822 29.778 79.4786 29.1636 76.771 27.7578C75.6984 27.1954 75.0736 26.2269 75.1152 25.1439C75.1569 24.0505 75.8442 23.1132 76.9689 22.6238C79.7494 21.4262 81.1656 20.8534 82.5715 20.2911C83.9774 19.7288 85.4249 19.1352 88.247 17.9168C91.1004 16.6879 92.5062 15.9694 93.8704 15.2821C95.2451 14.5844 96.5572 13.9179 99.3168 12.7307C102.118 11.5227 103.524 10.9291 104.93 10.3355C106.336 9.74195 107.752 9.13795 110.564 7.92995C113.396 6.71154 114.813 6.03465 116.177 5.37858C117.52 4.73293 118.916 4.07686 121.696 2.87927C123.716 2.00452 125.893 1.56714 128.173 1.56714C131.068 1.56714 134.026 2.2961 136.702 3.69155C139.462 5.11823 140.878 5.80554 142.253 6.47203C143.607 7.12809 145.012 7.8154 147.73 9.22126C150.407 10.6063 151.646 11.3977 152.958 12.2308C154.27 13.0639 155.624 13.9283 158.425 15.3758C161.185 16.8025 166.673 19.6246 169.391 21.0409C172.203 22.4988 173.723 23.082 175.181 23.6443C176.629 24.2067 177.993 24.7274 180.659 26.1124C181.7 26.6539 182.304 27.6953 182.263 28.8929C182.231 29.8718 181.7 31.1423 180.336 31.7254C177.535 32.9334 176.129 33.5166 174.723 34.1102C173.307 34.7038 171.901 35.2869 169.079 36.5053C166.225 37.7342 164.819 38.4527 163.455 39.14C162.07 39.8378 160.769 40.5042 158.009 41.6914C155.218 42.889 153.812 43.4722 152.406 44.0449C150.98 44.6281 149.563 45.2113 146.731 46.4297C143.982 47.6168 142.607 48.075 141.139 48.5645C139.681 49.0539 138.16 49.5538 135.296 50.793C132.474 52.0115 129.558 52.6571 126.872 52.6571L126.924 52.6467Z" fill="white"/>
<path id="Vector_29" d="M128.173 3.12926C130.818 3.12926 133.526 3.80615 135.984 5.07663C138.764 6.51373 140.191 7.21146 141.576 7.87794C142.982 8.56525 144.315 9.2109 147.022 10.6063C149.636 11.9601 150.854 12.7308 152.135 13.5534C153.479 14.4074 154.864 15.2925 157.727 16.7713C160.466 18.1876 161.841 18.8957 163.216 19.6038C164.59 20.312 165.954 21.0201 168.704 22.4364C171.599 23.936 173.15 24.5296 174.65 25.1127C176.056 25.6542 177.389 26.1645 179.971 27.5079C180.659 27.862 180.742 28.4972 180.732 28.8409C180.732 29.0908 180.627 29.9135 179.753 30.2988C176.962 31.4964 175.566 32.09 174.16 32.6731C172.744 33.2667 171.328 33.8603 168.506 35.0683C165.611 36.3179 164.174 37.0469 162.799 37.7446C161.445 38.4319 160.164 39.088 157.446 40.2544C154.666 41.4519 153.239 42.0351 151.865 42.5975C150.459 43.1702 149.011 43.7638 146.179 44.9822C143.492 46.1381 142.138 46.5859 140.711 47.065C139.222 47.5648 137.671 48.0751 134.744 49.3352C132.11 50.4703 129.412 51.0743 126.944 51.0743C124.768 51.0743 122.779 50.6161 121.029 49.7101C118.468 48.3875 117.312 47.5752 116.083 46.7213C114.75 45.7841 113.365 44.826 110.439 43.316C107.523 41.806 105.95 41.2228 104.43 40.6605C103.024 40.1398 101.701 39.6504 99.1292 38.3278C96.6091 37.0261 95.4844 36.193 94.2868 35.3182C92.9538 34.3393 91.5688 33.3188 88.6113 31.788C85.7996 30.33 84.3417 29.6635 82.9254 29.0179C81.5195 28.3722 80.1866 27.7578 77.5102 26.3728C76.7813 25.9979 76.6875 25.4772 76.6979 25.196C76.6979 24.9149 76.8437 24.3942 77.6144 24.0609C80.3844 22.8634 81.8111 22.2906 83.1857 21.7387C84.5916 21.1659 86.0495 20.5827 88.8925 19.3539C91.7875 18.1043 93.2246 17.3753 94.6096 16.6776C95.9634 15.9903 97.2443 15.3342 99.9623 14.1679C102.764 12.9599 104.159 12.3663 105.565 11.7727C106.981 11.1791 108.387 10.5751 111.199 9.36711C114.063 8.13828 115.489 7.45097 116.874 6.79491C118.27 6.12842 119.582 5.5036 122.331 4.31643C124.153 3.52498 126.132 3.12926 128.184 3.12926M128.184 0.00512695C125.768 0.00512695 123.362 0.473747 121.092 1.44223C115.479 3.85822 115.573 4.07691 109.96 6.49291C104.347 8.9089 104.326 8.87766 98.7127 11.2937C93.0996 13.7096 93.2558 14.0741 87.6532 16.4901C82.0402 18.9061 81.9881 18.7812 76.3751 21.1972C72.7824 22.7488 72.5949 27.3517 76.0731 29.1533C81.5508 31.9962 81.6966 31.7255 87.1742 34.5684C92.6518 37.4114 92.2041 38.2757 97.6921 41.1187C103.17 43.9512 103.524 43.2743 109.001 46.1069C114.479 48.9394 114.104 49.6684 119.582 52.5009C121.883 53.6985 124.393 54.2088 126.934 54.2088C129.996 54.2088 133.099 53.459 135.973 52.2198C141.586 49.8038 141.794 50.2828 147.407 47.8668C153.02 45.4508 153.062 45.555 158.675 43.139C164.288 40.723 164.132 40.3689 169.745 37.9529C175.358 35.5369 175.379 35.5994 180.992 33.1834C184.585 31.6317 184.887 26.5498 181.419 24.7482C175.941 21.9053 175.629 22.5093 170.141 19.6767C166.489 17.7814 162.834 15.8931 159.175 14.0116C153.697 11.1791 153.947 10.6897 148.47 7.8467C142.992 5.01415 142.919 5.14953 137.441 2.31698C134.557 0.817401 131.37 0.0155407 128.194 0.0155407L128.184 0.00512695Z" fill="#D5E1E6"/>
</g>
<g id="Group_13">
<path id="Vector_30" d="M175.993 44.5135C176.941 44.0657 177.982 44.6177 178.315 45.7423C178.649 46.867 178.128 48.1271 177.18 48.5749C176.233 49.0227 175.212 48.4812 174.889 47.3565C174.567 46.2318 175.046 44.9509 176.004 44.5031L175.993 44.5135Z" fill="#FCBA44"/>
<path id="Vector_31" d="M175.993 44.5135C176.941 44.0657 177.982 44.6177 178.315 45.7423C178.649 46.867 178.128 48.1271 177.18 48.5749C176.233 49.0227 175.212 48.4812 174.889 47.3565C174.567 46.2318 175.046 44.9509 176.004 44.5031L175.993 44.5135Z" stroke="white" stroke-width="1.33323" stroke-miterlimit="10"/>
</g>
</g>
<path id="Vector_32" d="M128.693 76.9838C128.693 73.096 128.693 69.2117 128.693 65.3308" stroke="#80949C" stroke-width="1.33323" stroke-linecap="round" stroke-linejoin="round"/>
</g>
<path id="Vector_33" d="M148.844 103.945C148.844 96.6347 148.803 96.6347 148.803 89.3242" stroke="#80949C" stroke-width="1.33323" stroke-linecap="round" stroke-linejoin="round"/>
<path id="Vector_34" d="M136.493 131.219C136.493 125.79 136.493 120.364 136.493 114.942" stroke="#80949C" stroke-width="1.33323" stroke-linecap="round" stroke-linejoin="round"/>
<path id="Vector_35" d="M109.886 110.672C108.157 113.65 104.398 114.109 101.419 111.682C98.4411 109.256 97.358 104.861 99.0867 101.893C100.815 98.915 104.679 98.4985 107.657 100.925C110.636 103.351 111.614 107.704 109.886 110.683V110.672Z" fill="#80949C"/>
<g id="Group_14">
<path id="Vector_36" d="M61.9202 59.0618C65.5233 59.999 68.7412 61.6236 71.2093 64.0708C73.6773 66.518 75.3748 69.8504 76.3328 73.2974C77.2909 76.7444 77.4471 80.2121 76.5099 83.8153C75.5726 87.4185 73.8231 90.5947 71.3863 93.0627C68.9495 95.5308 65.6796 97.4365 62.2222 98.3842C58.7648 99.3318 55.1929 99.5713 51.5897 98.6237C47.9866 97.6864 44.7791 95.7807 42.3006 93.3439C39.8222 90.9071 37.9998 87.5434 37.0417 84.0861C36.0836 80.6287 35.8858 77.0464 36.8334 73.4432C37.7706 69.84 39.8534 66.8096 42.3006 64.3311C44.7479 61.8527 47.9241 59.8324 51.371 58.8847C54.818 57.9371 58.317 58.1141 61.9202 59.0618Z" fill="white"/>
<path id="Vector_37" d="M104.43 106.184C102.159 108.111 100.472 110.589 98.8374 113.078C96.588 116.504 94.0887 120.066 92.6307 123.888C91.0478 128.053 90.2981 132.354 90.548 136.165C90.8292 140.373 92.5474 144.205 96.2651 146.892C99.4518 149.193 104.607 148.922 107.918 146.006C110.459 143.768 111.917 139.821 111.032 134.499C110.501 131.281 109.074 127.48 106.387 123.138C104.534 120.139 101.993 116.942 98.8374 113.401C96.3797 110.641 93.6201 107.611 90.2564 104.528C87.4655 101.967 84.2893 99.3632 80.8111 96.5827C77.8015 94.1772 74.7086 91.4592 71.1367 88.887" stroke="#60747B" stroke-width="3.99968" stroke-miterlimit="10" stroke-linecap="round"/>
<g id="Group_15">
<path id="Vector_38" d="M59.7964 53.251C59.4631 55.3025 59.4944 55.3129 59.1611 57.3644" stroke="#FCBA44" stroke-width="1.33323" stroke-miterlimit="10" stroke-linecap="round"/>
<path id="Vector_39" d="M44.8311 50.1685C45.9488 53.126 47.0665 56.087 48.1843 59.0514" stroke="#FCBA44" stroke-width="1.33323" stroke-miterlimit="10" stroke-linecap="round"/>
<path id="Vector_40" d="M36.8232 63.7793C37.7258 64.5152 38.6283 65.2546 39.5308 65.9974" stroke="#FCBA44" stroke-width="1.33323" stroke-miterlimit="10" stroke-linecap="round"/>
<path id="Vector_41" d="M26.1387 74.8284C29.2628 75.3352 32.3869 75.8454 35.5111 76.3592" stroke="#FCBA44" stroke-width="1.33323" stroke-miterlimit="10" stroke-linecap="round"/>
<path id="Vector_42" d="M34.4902 88.3038C35.3928 87.9636 36.2953 87.6234 37.1978 87.2832" stroke="#FCBA44" stroke-width="1.33323" stroke-miterlimit="10" stroke-linecap="round"/>
<path id="Vector_43" d="M38.1455 103.3C40.145 100.849 42.1479 98.3982 44.1543 95.9475" stroke="#FCBA44" stroke-width="1.33323" stroke-miterlimit="10" stroke-linecap="round"/>
<path id="Vector_44" d="M53.8496 103.81C54.162 101.883 54.1516 101.883 54.464 99.9568" stroke="#FCBA44" stroke-width="1.33323" stroke-miterlimit="10" stroke-linecap="round"/>
</g>
<g id="Group_16">
<g id="Group_17">
<path id="Vector_45" d="M65.0764 76.9529C64.2433 78.0984 64.2016 78.0775 63.3685 79.2231L63.3581 79.2647C60.9942 77.5464 61.0358 77.4944 58.6719 75.7761C58.0367 75.3075 57.9013 74.4535 58.3699 73.8183L58.3283 73.7871C58.7969 73.1518 59.7133 73.006 60.3485 73.4747C61.9245 74.6202 63.497 75.7692 65.066 76.9216L65.0764 76.9633V76.9529Z" fill="#FCBA44"/>
<path id="Vector_46" d="M59.2339 84.8466C58.6785 85.6102 58.1231 86.3774 57.5677 87.148C57.5677 87.148 57.5781 87.1792 57.5677 87.1792C55.2038 85.461 55.2246 85.4401 52.8607 83.7219C52.2254 83.2532 52.0796 82.3681 52.5378 81.7328L52.5587 81.7433C53.0273 81.108 53.8916 80.9726 54.5269 81.4308C56.8908 83.1491 56.9012 83.1283 59.2651 84.8466H59.2339Z" fill="#FCBA44"/>
</g>
<g id="Group_18">
<path id="Vector_47" d="M73.4486 86.0753C71.1784 89.1787 71.2201 89.1995 68.9498 92.3132H68.9082C67.7002 91.4384 67.721 91.4072 66.5234 90.5324C68.0369 88.4636 69.5469 86.3912 71.0534 84.3154L71.0743 84.2842C72.2822 85.1589 72.2718 85.1694 73.4694 86.0441L73.4486 86.0649V86.0753Z" fill="#253135"/>
<path id="Vector_48" d="M73.4486 86.0753C71.1784 89.1787 71.2201 89.1995 68.9498 92.3132H68.9082C67.7002 91.4384 67.721 91.4072 66.5234 90.5324C68.0369 88.4636 69.5469 86.3912 71.0534 84.3154L71.0743 84.2842C72.2822 85.1589 72.2718 85.1694 73.4694 86.0441L73.4486 86.0649V86.0753Z" stroke="#253135" stroke-width="1.33323" stroke-linejoin="round"/>
</g>
<g id="Group_19">
<path id="Vector_49" d="M71.0434 84.3257C72.2514 85.2004 72.2618 85.1796 73.4698 86.0648L73.4489 86.0752C71.9355 88.1441 70.4255 90.2164 68.9189 92.2922" fill="#253135"/>
<path id="Vector_50" d="M71.0434 84.3257C72.2514 85.2004 72.2618 85.1796 73.4698 86.0648L73.4489 86.0752C71.9355 88.1441 70.4255 90.2164 68.9189 92.2922" stroke="#253135" stroke-width="1.33323" stroke-linecap="round" stroke-linejoin="round"/>
</g>
<g id="Group_20">
<path id="Vector_51" d="M69.5433 79.3377C66.801 83.1006 64.0587 86.8634 61.3164 90.6262V90.5846C63.9094 90.5325 63.9094 90.5846 66.5129 90.5429C66.5129 90.5429 66.5545 90.5638 66.5545 90.5533C68.8247 87.45 68.7935 87.4292 71.0533 84.3155H71.0116C70.2618 81.8266 70.3347 81.8058 69.5849 79.3169H69.5329L69.5433 79.3377Z" fill="#253135"/>
<path id="Vector_52" d="M69.5433 79.3377C66.801 83.1006 64.0587 86.8634 61.3164 90.6262V90.5846C63.9094 90.5325 63.9094 90.5846 66.5129 90.5429C66.5129 90.5429 66.5545 90.5638 66.5545 90.5533C68.8247 87.45 68.7935 87.4292 71.0533 84.3155H71.0116C70.2618 81.8266 70.3347 81.8058 69.5849 79.3169H69.5329L69.5433 79.3377Z" stroke="#253135" stroke-width="1.33323" stroke-linejoin="round"/>
</g>
<g id="Group_21">
<path id="Vector_53" d="M66.5029 90.5325C68.0164 88.4636 69.5264 86.3912 71.0329 84.3154H71.0746C70.3248 81.8265 70.304 81.8265 69.5646 79.3376" fill="#253135"/>
<path id="Vector_54" d="M66.5029 90.5325C68.0164 88.4636 69.5264 86.3912 71.0329 84.3154H71.0746C70.3248 81.8265 70.304 81.8265 69.5646 79.3376" stroke="#253135" stroke-width="1.33323" stroke-linecap="round" stroke-linejoin="round"/>
</g>
<g id="Group_22">
<path id="Vector_55" d="M69.5957 79.3689C66.8464 83.1317 64.0937 86.8911 61.3375 90.647L61.3063 90.6262C60.0983 89.7514 60.1087 89.741 58.9111 88.8558V88.8662C61.6604 85.1034 64.4061 81.3371 67.1484 77.5673L67.1797 77.5256C68.3877 78.4004 68.3772 78.4108 69.5852 79.2856L69.6165 79.3585L69.5957 79.3689Z" fill="#253135"/>
<path id="Vector_56" d="M69.5957 79.3689C66.8464 83.1317 64.0937 86.8911 61.3375 90.647L61.3063 90.6262C60.0983 89.7514 60.1087 89.741 58.9111 88.8558V88.8662C61.6604 85.1034 64.4061 81.3371 67.1484 77.5673L67.1797 77.5256C68.3877 78.4004 68.3772 78.4108 69.5852 79.2856L69.6165 79.3585L69.5957 79.3689Z" stroke="#253135" stroke-width="1.33323" stroke-linejoin="round"/>
</g>
<g id="Group_23">
<path id="Vector_57" d="M67.1384 77.5776C68.3464 78.4524 68.3255 78.4732 69.5335 79.348L69.5439 79.3272C65.4201 84.9714 65.4617 85.0027 61.3379 90.6573" fill="#253135"/>
<path id="Vector_58" d="M67.1384 77.5776C68.3464 78.4524 68.3255 78.4732 69.5335 79.348L69.5439 79.3272C65.4201 84.9714 65.4617 85.0027 61.3379 90.6573" stroke="#253135" stroke-width="1.33323" stroke-linecap="round" stroke-linejoin="round"/>
</g>
<g id="Group_24">
<path id="Vector_59" d="M67.8357 76.5363C62.9724 83.2011 63.0141 83.2324 58.1613 89.8972L58.1196 89.9388C57.1511 89.2307 57.2136 89.137 56.2451 88.4289C56.2451 88.4289 56.2555 88.5122 56.2659 88.5122C59.5081 84.0689 62.7433 79.6223 65.9716 75.1721H65.9195C66.888 75.8803 66.8672 75.9011 67.8357 76.6092V76.5363Z" fill="#253135"/>
<path id="Vector_60" d="M67.8357 76.5363C62.9724 83.2011 63.0141 83.2324 58.1613 89.8972L58.1196 89.9388C57.1511 89.2307 57.2136 89.137 56.2451 88.4289C56.2451 88.4289 56.2555 88.5122 56.2659 88.5122C59.5081 84.0689 62.7433 79.6223 65.9716 75.1721H65.9195C66.888 75.8803 66.8672 75.9011 67.8357 76.6092V76.5363Z" stroke="#253135" stroke-width="1.33323" stroke-linejoin="round"/>
</g>
<g id="Group_25">
<path id="Vector_61" d="M65.9194 75.1616C66.8879 75.8698 66.8879 75.8802 67.8564 76.5883H67.9188C64.6767 81.0315 61.4345 85.4747 58.1924 89.9179" fill="#253135"/>
<path id="Vector_62" d="M65.9194 75.1616C66.8879 75.8698 66.8879 75.8802 67.8564 76.5883H67.9188C64.6767 81.0315 61.4345 85.4747 58.1924 89.9179" stroke="#253135" stroke-width="1.33323" stroke-linecap="round" stroke-linejoin="round"/>
</g>
</g>
</g>
</g>
<defs>
<clipPath id="clip0_3822_39523">
<rect width="243" height="150" fill="white" transform="translate(0.5)"/>
</clipPath>
</defs>
</svg>
