<svg width="209" height="158" viewBox="0 0 209 158" fill="none" xmlns="http://www.w3.org/2000/svg">
<g clip-path="url(#clip0_3832_10758)">
<path d="M131.873 123.251C127.359 125.562 127.467 125.762 122.974 128.109C118.481 130.456 118.424 130.341 113.931 132.688C109.439 135.035 109.503 135.157 105.011 137.504C100.518 139.85 100.511 139.85 96.0183 142.19C93.0232 143.754 90.0282 145.319 87.0331 146.883C82.5333 149.23 82.4687 149.108 77.9761 151.455C73.4835 153.802 73.462 153.766 68.955 156.105C68.7182 156.206 68.4813 156.127 68.223 156.12C67.046 156.084 63.5438 155.94 62.417 155.89C62.1874 155.883 61.9721 155.948 61.764 155.847C57.4077 153.773 57.4364 153.716 53.0874 151.642C48.7383 149.568 48.7096 149.625 44.3533 147.558C39.9971 145.491 39.9755 145.541 35.6193 143.467C31.263 141.393 31.22 141.487 26.8637 139.413C22.5075 137.338 22.6295 137.08 18.2804 135.013C13.9313 132.946 13.8667 133.068 9.50331 130.994C5.13988 128.92 5.16141 128.891 0.805162 126.817C-0.515349 126.186 -0.594293 124.205 0.747748 123.617C3.90071 122.014 7.04649 120.401 10.1851 118.78C14.893 116.339 14.9648 116.483 19.6727 114.043C24.3806 111.603 24.316 111.481 29.0239 109.041C33.7318 106.601 33.8323 106.794 38.5474 104.354C43.2625 101.914 43.2481 101.9 47.956 99.4599C52.6639 97.0198 52.6352 96.9552 57.3431 94.508C62.0582 92.0679 62.0008 91.9674 66.7159 89.5273C66.7302 89.5273 66.8092 89.5417 66.8092 89.5489C71.4597 91.7378 71.431 91.8024 76.0815 93.9841C80.732 96.1658 80.7176 96.2017 85.3681 98.3834C90.0186 100.565 89.9612 100.694 94.6117 102.876C99.2622 105.058 99.3913 104.792 104.042 106.974C108.692 109.156 108.613 109.335 113.264 111.517C117.914 113.698 118.015 113.49 122.673 115.672C127.33 117.854 127.337 117.832 131.995 120.021C133.323 120.645 133.215 122.669 131.866 123.258L131.873 123.251Z" fill="#ECE6F3"/>
<path d="M62.223 54.1747C66.9884 51.7561 66.8305 51.4475 71.5671 48.9644C76.3037 46.4813 76.3755 46.6248 81.1121 44.1488C85.8487 41.6657 85.82 41.6155 90.5566 39.1395C95.2932 36.6636 95.4009 36.8717 100.137 34.3886C104.874 31.9054 104.745 31.6614 109.474 29.1783C114.204 26.6951 114.29 26.853 119.027 24.3699C123.763 21.8868 123.763 21.8939 128.5 19.4108C133.236 16.9277 133.208 16.8774 137.951 14.3943C142.688 11.9112 142.595 11.7246 147.367 9.30602C147.712 9.29167 152.857 10.6337 152.857 10.9782C152.857 15.9803 152.779 15.9803 152.779 20.9753C152.779 25.9703 152.635 25.9703 152.635 30.9724C152.635 35.9746 152.635 35.9746 152.635 40.9696C152.635 45.9646 152.613 45.9717 152.613 50.9667C152.613 55.9617 152.843 55.9617 152.843 60.9638C152.843 65.966 152.843 65.9588 152.843 70.961C152.843 75.9631 152.714 75.9631 152.714 80.9581C152.714 85.9531 152.829 85.9602 152.829 90.9552C152.829 95.9502 152.872 95.9574 152.872 100.96C152.872 105.962 152.822 105.962 152.857 110.964C152.929 111.775 152.506 112.772 151.659 113.21C147.166 115.614 147.044 115.392 142.552 117.803C138.059 120.215 138.124 120.337 133.631 122.741C129.138 125.145 129.117 125.116 124.624 127.528C120.132 129.939 120.175 130.011 115.682 132.422C111.19 134.833 111.182 134.819 106.69 137.231C102.197 139.642 102.082 139.434 97.5898 141.845C93.0972 144.257 93.1761 144.407 88.6835 146.819C84.1909 149.23 84.1191 149.101 79.6193 151.512C75.1195 153.923 75.2415 154.153 70.7418 156.55C68.2299 157.849 65.1655 157.978 62.5675 156.859C62.4383 156.801 62.9551 157.045 62.8259 156.988C62.0077 156.636 61.6489 155.761 61.613 155C61.5915 149.983 61.4623 149.983 61.4623 144.967C61.4623 139.95 61.5915 139.95 61.5915 134.941C61.5915 129.932 61.4408 129.925 61.4408 124.908C61.4408 119.892 61.5054 119.892 61.5054 114.875C61.5054 109.859 61.5054 109.859 61.5054 104.842C61.5054 99.8256 61.692 99.8256 61.6848 94.8163C61.6776 89.807 61.5125 89.7998 61.5125 84.7833C61.5125 79.7668 61.4336 79.7668 61.4336 74.7574C61.4336 69.7481 61.735 69.7409 61.735 64.7244C61.735 59.7079 61.5341 59.7079 61.5341 54.6914C61.5341 54.3613 61.8857 54.1819 62.2159 54.1747H62.223Z" fill="#EAF0F3"/>
<path d="M62.9195 56.2918L62.8477 56.4569C65.2806 57.5047 68.1011 57.3324 70.4479 56.1196C74.962 53.7154 74.9405 53.6795 79.4474 51.2609C83.9544 48.8424 83.9831 48.8998 88.4901 46.4813C92.997 44.0627 92.9252 43.9192 97.4322 41.5078C101.939 39.0965 101.975 39.161 106.482 36.7425C110.989 34.324 110.939 34.2307 115.446 31.8193C119.953 29.4008 120.046 29.573 124.553 27.1544C129.06 24.7359 129.117 24.8364 133.624 22.4178C138.138 19.9993 138.074 19.8845 142.588 17.4659C147.102 15.0474 147.095 15.0402 151.609 12.6288C153.217 11.7963 153.116 9.39932 151.458 8.68165L151.408 8.80365C148.975 7.75586 146.205 7.68409 143.858 8.90413C140.849 10.5069 137.842 12.1169 134.837 13.734C130.33 16.1526 130.359 16.21 125.852 18.6285C121.345 21.0471 121.316 20.9968 116.809 23.4154C112.302 25.8339 112.331 25.8842 107.824 28.3027C103.317 30.7213 103.331 30.7428 98.8245 33.1613C94.3175 35.5799 94.2745 35.5009 89.7603 37.9195C85.2462 40.338 85.2247 40.2878 80.7177 42.7063C76.2107 45.1249 76.3184 45.3258 71.8043 47.7444C67.2901 50.1629 67.2829 50.1414 62.7688 52.5528C61.1612 53.3853 61.2545 55.5885 62.9195 56.3062V56.2918Z" fill="#D5E1E6"/>
<path d="M151.544 112.98C147.037 115.399 147.166 115.636 142.659 118.054C138.152 120.473 138.023 120.236 133.516 122.655C129.009 125.073 129.145 125.324 124.631 127.743C120.117 130.161 120.031 129.982 115.524 132.401C111.017 134.819 111.024 134.826 106.517 137.245C102.01 139.663 101.96 139.577 97.453 141.996C92.9461 144.414 93.0752 144.651 88.5683 147.07C84.0613 149.488 83.9967 149.373 79.4898 151.792C74.9828 154.211 74.9397 154.146 70.4256 156.55C68.0717 157.77 65.2727 158.05 62.8398 157.002L62.9475 156.744" stroke="#80949C" stroke-width="1.33326" stroke-linecap="round" stroke-linejoin="round"/>
<path d="M66.2344 157.268C66.2344 152.481 66.4281 152.481 66.4281 147.687C66.4281 142.893 66.2559 142.9 66.2559 138.113C66.2559 133.327 66.3707 133.319 66.3707 128.533C66.3707 123.746 66.4425 123.739 66.4425 118.952" stroke="#80949C" stroke-width="1.33326" stroke-linecap="round" stroke-linejoin="round"/>
<path d="M75.0128 146.775C73.9004 146.775 72.9961 145.835 72.9961 144.68C72.9961 142.11 72.9746 140.826 72.9531 139.541C72.9315 138.256 72.91 136.979 72.91 134.417C72.91 131.855 72.8956 130.563 72.8813 129.286C72.8669 128.001 72.8526 126.724 72.8526 124.154C72.8526 121.585 72.8813 120.286 72.9028 119.03C72.9315 117.767 72.9531 116.461 72.9531 113.892C72.9531 111.322 72.9602 106.198 72.9602 103.629C72.9602 101.06 72.9889 99.7679 73.0176 98.5048C73.0464 97.2417 73.0751 95.9355 73.0751 93.3662V83.1036V72.8337C73.0751 70.2573 73.0105 68.9512 72.9531 67.6809C72.8956 66.425 72.8311 65.1188 72.8311 62.5639C72.8311 61.7745 73.3621 61.0066 74.1516 60.6693C75.7807 59.8081 76.8069 59.2698 77.6753 58.8177C79.204 58.0139 80.2302 57.4828 83.0578 55.9613C85.2754 54.77 86.3806 54.1169 87.45 53.4854C88.5121 52.861 89.6102 52.2079 91.8134 51.0238C94.0166 49.8396 95.1577 49.2799 96.2701 48.7416C97.3825 48.1962 98.5308 47.6364 100.756 46.4451C102.973 45.2537 104.078 44.6006 105.141 43.9619C106.203 43.3304 107.294 42.6845 109.497 41.5003C111.707 40.3162 112.848 39.742 113.946 39.1966C115.052 38.644 116.2 38.0699 118.417 36.8785C120.628 35.6944 121.74 35.1059 122.845 34.5174C123.958 33.9289 125.07 33.3476 127.281 32.1563C129.491 30.9721 130.603 30.3836 131.709 29.7951C132.821 29.2066 133.933 28.6182 136.151 27.4268C140.45 25.1231 140.608 25.037 144.655 22.927L145.036 22.7333C145.294 22.6256 145.581 22.561 145.875 22.561C146.988 22.561 147.856 23.4294 147.856 24.5418C147.856 27.1111 147.892 28.4172 147.928 29.6875C147.964 30.9434 148 32.2496 148 34.8045C148 37.3594 147.985 38.6512 147.964 39.9286C147.949 41.2133 147.928 42.4979 147.928 45.0671V55.3298C147.928 57.8919 147.928 59.1765 147.928 60.4611C147.928 61.7458 147.921 63.0232 147.921 65.5925C147.921 68.1617 147.921 69.4392 147.906 70.7238C147.906 72.0084 147.892 73.2931 147.892 75.8551C147.892 78.4172 147.885 79.7018 147.878 80.9865C147.871 82.2711 147.863 83.5557 147.863 86.1178C147.863 88.6799 147.82 89.9789 147.784 91.242C147.741 92.5051 147.698 93.8112 147.698 96.3876C147.698 98.9641 147.727 100.263 147.749 101.526C147.777 102.789 147.799 104.088 147.799 106.65C147.799 107.483 147.332 108.208 146.586 108.531C144.146 109.815 143.041 110.44 141.864 111.1C140.852 111.667 139.768 112.277 137.744 113.361C135.527 114.552 134.414 115.183 133.338 115.793C132.268 116.403 131.156 117.035 128.953 118.219C126.75 119.403 125.601 119.956 124.489 120.487C123.369 121.025 122.214 121.578 120.003 122.769C117.786 123.96 116.673 124.592 115.604 125.209C114.535 125.819 113.43 126.451 111.219 127.635C109.009 128.819 107.896 129.393 106.777 129.967C105.657 130.542 104.538 131.116 102.32 132.307C100.11 133.491 99.0044 134.08 97.8921 134.668C96.7797 135.257 95.6673 135.838 93.4569 137.029C91.2321 138.221 90.1269 138.816 89.0145 139.419C87.9165 140.015 86.8112 140.61 84.6008 141.795C82.6488 142.842 81.5651 143.452 80.5891 144.005C79.3475 144.708 78.271 145.311 75.7807 146.61C75.5438 146.711 75.2711 146.768 75.0056 146.768L75.0128 146.775Z" fill="white"/>
<path d="M145.875 22.92C146.664 22.92 147.497 23.487 147.497 24.5419C147.497 27.1184 147.533 28.4245 147.569 29.6948C147.605 30.9507 147.64 32.2497 147.64 34.8046C147.64 37.3595 147.626 38.6657 147.605 39.9288C147.59 41.1919 147.569 42.498 147.569 45.0673V50.1986V55.3299C147.569 57.892 147.569 59.1766 147.561 60.4613C147.561 61.7459 147.554 63.0305 147.554 65.5926C147.554 68.1547 147.554 69.4393 147.54 70.7239C147.54 72.0086 147.526 73.2932 147.526 75.8624C147.526 78.4317 147.518 79.7091 147.511 80.9866C147.504 82.2712 147.497 83.5559 147.497 86.1251C147.497 88.6944 147.454 89.979 147.418 91.2349C147.375 92.5052 147.332 93.8113 147.332 96.395C147.332 98.9786 147.361 100.278 147.382 101.541C147.411 102.797 147.432 104.103 147.432 106.658C147.432 107.347 147.052 107.942 146.435 108.208L146.406 108.222L146.384 108.236C143.973 109.507 142.861 110.131 141.684 110.791C140.658 111.366 139.588 111.968 137.564 113.052C135.347 114.243 134.227 114.875 133.151 115.492C132.081 116.102 130.976 116.727 128.773 117.911C126.577 119.088 125.429 119.64 124.323 120.171C123.204 120.71 122.041 121.269 119.816 122.461C117.599 123.652 116.486 124.291 115.41 124.901C114.341 125.511 113.235 126.142 111.032 127.326C108.822 128.511 107.688 129.092 106.597 129.659C105.499 130.226 104.358 130.814 102.14 131.999C99.9298 133.183 98.8174 133.771 97.7122 134.36C96.5998 134.948 95.4874 135.537 93.277 136.721C91.0737 137.905 89.9685 138.501 88.8633 139.096C87.7509 139.692 86.6457 140.288 84.4281 141.486C82.4761 142.534 81.378 143.151 80.4092 143.697C79.1748 144.393 78.1055 144.995 75.6295 146.28C75.4214 146.366 75.2061 146.409 74.9908 146.409C74.0722 146.409 73.333 145.627 73.333 144.673C73.333 142.103 73.3114 140.79 73.2899 139.527C73.2684 138.271 73.2469 136.965 73.2469 134.41C73.2469 131.855 73.2325 130.534 73.2181 129.271C73.2038 128.015 73.1894 126.709 73.1894 124.147C73.1894 121.585 73.2182 120.286 73.2397 119.03C73.2684 117.767 73.2899 116.454 73.2899 113.885C73.2899 111.315 73.2899 110.038 73.2899 108.753C73.2899 107.469 73.2899 106.184 73.2899 103.622C73.2899 101.06 73.3186 99.7608 73.3473 98.5049C73.376 97.2418 73.4047 95.9285 73.4047 93.3592C73.4047 90.79 73.4047 89.5125 73.4047 88.2279C73.4047 86.9433 73.4047 85.6658 73.4047 83.0965C73.4047 80.5273 73.4047 79.2498 73.4047 77.9652C73.4047 76.6806 73.4047 75.396 73.4047 72.8267C73.4047 70.2575 73.3402 68.9298 73.2827 67.6595C73.2253 66.4036 73.1607 65.1118 73.1607 62.5569C73.1607 61.9038 73.6057 61.2722 74.2659 60.9852L74.2946 60.9708L74.3162 60.9565C75.9309 60.1096 76.9572 59.5714 77.8256 59.1121C79.3614 58.3083 80.3805 57.7772 83.2009 56.2629C85.4257 55.0716 86.5309 54.4113 87.6002 53.7798C88.6552 53.1554 89.7532 52.5095 91.9493 51.3253C94.1454 50.1412 95.2865 49.5886 96.3917 49.0432C97.5041 48.4977 98.6595 47.9308 100.884 46.7394C103.109 45.5409 104.214 44.8879 105.284 44.2491C106.339 43.6248 107.429 42.9717 109.633 41.7947C111.836 40.6105 112.977 40.0436 114.075 39.491C115.187 38.9384 116.329 38.3642 118.553 37.1729C120.764 35.9888 121.869 35.4003 122.981 34.819C124.094 34.2305 125.206 33.6492 127.424 32.4578C129.641 31.2665 130.746 30.6852 131.859 30.0967C132.971 29.5082 134.084 28.9197 136.294 27.7356C140.6 25.4247 140.679 25.3816 144.82 23.2214L145.143 23.0492C145.373 22.9559 145.609 22.9057 145.846 22.9057M145.846 22.188C145.516 22.188 145.172 22.2526 144.834 22.4033C141.863 23.9535 138.902 25.5204 135.95 27.104C131.522 29.4795 131.507 29.4508 127.079 31.8335C122.651 34.2089 122.637 34.1731 118.209 36.5557C113.781 38.9312 113.716 38.802 109.288 41.1775C104.86 43.553 104.968 43.7468 100.54 46.1222C96.119 48.4977 96.0257 48.3327 91.6048 50.7082C87.1768 53.0836 87.2773 53.2631 82.8493 55.6385C78.4212 58.014 78.4069 57.9853 73.9645 60.3321C73.0746 60.7196 72.4287 61.5952 72.4287 62.5569C72.4287 67.6882 72.6727 67.6882 72.6727 72.8267C72.6727 77.9652 72.6727 77.958 72.6727 83.0965C72.6727 88.2351 72.6727 88.2279 72.6727 93.3592C72.6727 98.4905 72.5579 98.4906 72.5579 103.622C72.5579 108.753 72.5507 108.753 72.5507 113.885C72.5507 119.016 72.4431 119.016 72.4431 124.147C72.4431 129.279 72.5005 129.279 72.5005 134.41C72.5005 139.541 72.5866 139.541 72.5866 144.673C72.5866 146.072 73.699 147.127 74.9621 147.127C75.2707 147.127 75.5936 147.062 75.9094 146.926C80.3661 144.601 80.3087 144.493 84.7367 142.118C89.1648 139.742 89.1576 139.735 93.5856 137.352C98.0136 134.977 98.028 135.006 102.449 132.63C106.877 130.255 106.92 130.334 111.341 127.958C115.769 125.583 115.704 125.468 120.125 123.092C124.546 120.717 124.653 120.918 129.081 118.542C133.51 116.167 133.452 116.059 137.873 113.684C142.301 111.308 142.244 111.208 146.686 108.868C147.576 108.48 148.114 107.626 148.114 106.658C148.114 101.526 148.006 101.526 148.006 96.3878C148.006 91.2493 148.171 91.2564 148.171 86.1179C148.171 80.9794 148.207 80.9866 148.207 75.8553C148.207 70.7239 148.229 70.7239 148.229 65.5926C148.229 60.4613 148.243 60.4613 148.243 55.3299C148.243 50.1986 148.243 50.1986 148.243 45.0673C148.243 39.9359 148.308 39.9359 148.308 34.8046C148.308 29.6733 148.157 29.6733 148.157 24.5419C148.157 23.164 147.066 22.2023 145.818 22.2023L145.846 22.188Z" fill="#D5E1E6"/>
<path d="M83.9545 121.169C81.6221 122.353 81.5216 122.152 79.1748 123.322C77.5744 124.018 75.974 122.956 75.974 121.205C75.974 118.88 75.9453 118.88 75.9453 116.555C75.9453 115.586 76.4907 114.868 77.3735 114.481C79.7059 113.296 79.6341 113.153 81.9737 111.983C83.5741 111.287 85.3755 112.392 85.3755 114.136C85.3755 116.461 85.4975 116.461 85.4975 118.787C85.4975 119.755 84.8372 120.782 83.9473 121.162L83.9545 121.169Z" fill="#EAF0F3"/>
<path d="M72.6152 78.9415C77.3447 76.4009 77.2227 76.1712 81.9449 73.6379C86.6672 71.1045 86.7031 71.1547 91.4253 68.6142C96.1476 66.0736 96.1691 66.1095 100.891 63.569C105.621 61.0284 105.635 61.0571 110.365 58.5238C115.094 55.9904 115.166 56.1196 119.895 53.579C124.625 51.0385 124.496 50.8017 129.218 48.2611C133.947 45.7206 134.069 45.943 138.799 43.4025C143.528 40.8619 143.542 40.8906 148.272 38.3501" fill="white"/>
<path d="M72.6152 78.9415C77.3447 76.4009 77.2227 76.1713 81.9449 73.6379C86.6672 71.1045 86.7031 71.1547 91.4253 68.6142C96.1476 66.0736 96.1691 66.1095 100.891 63.569C105.621 61.0284 105.635 61.0571 110.365 58.5238C115.094 55.9904 115.166 56.1196 119.895 53.579C124.625 51.0385 124.496 50.8017 129.218 48.2611C133.947 45.7206 134.069 45.943 138.799 43.4025C143.528 40.8619 143.542 40.8906 148.272 38.3501" stroke="#D5E1E6" stroke-width="1.33326" stroke-miterlimit="10"/>
<path d="M72.4785 96.0361C77.208 93.4956 77.2869 93.6463 82.0163 91.1129C86.7458 88.5795 86.796 88.6728 91.5255 86.1323C96.2549 83.5917 96.2621 83.6133 100.984 81.0727C105.714 78.5322 105.635 78.3958 110.364 75.8553C115.094 73.3147 115.072 73.2788 119.802 70.7383C124.531 68.1977 124.517 68.169 129.239 65.6356C133.968 63.0951 134.076 63.2961 138.805 60.7555C143.535 58.215 143.513 58.1719 148.243 55.6313" fill="white"/>
<path d="M72.4785 96.0361C77.208 93.4956 77.2869 93.6463 82.0163 91.1129C86.7458 88.5795 86.796 88.6728 91.5255 86.1323C96.2549 83.5917 96.2621 83.6133 100.984 81.0727C105.714 78.5322 105.635 78.3958 110.364 75.8553C115.094 73.3147 115.072 73.2788 119.802 70.7383C124.531 68.1977 124.517 68.169 129.239 65.6356C133.968 63.0951 134.076 63.2961 138.805 60.7555C143.535 58.215 143.513 58.1719 148.243 55.6313" stroke="#D5E1E6" stroke-width="1.33326" stroke-miterlimit="10"/>
<path d="M72.5576 113.54C77.2871 111 77.244 110.928 81.9734 108.388C86.7029 105.847 86.6813 105.818 91.4108 103.278C96.1402 100.737 96.1474 100.759 100.877 98.2253C105.606 95.6919 105.635 95.7422 110.357 93.2016C115.08 90.6611 115.151 90.7831 119.881 88.2425C124.61 85.702 124.553 85.6015 129.282 83.061C134.012 80.5204 133.947 80.3984 138.676 77.8579C143.406 75.3173 143.485 75.4609 148.214 72.9275" fill="white"/>
<path d="M72.5576 113.54C77.2871 111 77.244 110.928 81.9734 108.388C86.7029 105.847 86.6813 105.818 91.4108 103.278C96.1402 100.737 96.1474 100.759 100.877 98.2253C105.606 95.6919 105.635 95.7422 110.357 93.2016C115.08 90.6611 115.151 90.7831 119.881 88.2425C124.61 85.702 124.553 85.6015 129.282 83.061C134.012 80.5204 133.947 80.3984 138.676 77.8579C143.406 75.3173 143.485 75.4609 148.214 72.9275" stroke="#D5E1E6" stroke-width="1.33326" stroke-miterlimit="10"/>
<path d="M72.4717 130.729C77.2011 128.188 77.2657 128.317 81.9951 125.777C86.7246 123.236 86.6528 123.107 91.3823 120.566C96.1117 118.026 96.2624 118.313 100.985 115.772C105.707 113.232 105.685 113.182 110.415 110.648C115.144 108.115 115.065 107.964 119.795 105.424C124.524 102.883 124.51 102.869 129.239 100.328C133.969 97.7875 133.983 97.8091 138.713 95.2685C143.442 92.728 143.485 92.8069 148.214 90.2664" fill="white"/>
<path d="M72.4717 130.729C77.2011 128.188 77.2657 128.317 81.9951 125.777C86.7246 123.236 86.6528 123.107 91.3823 120.566C96.1117 118.026 96.2624 118.313 100.985 115.772C105.707 113.232 105.685 113.182 110.415 110.648C115.144 108.115 115.065 107.964 119.795 105.424C124.524 102.883 124.51 102.869 129.239 100.328C133.969 97.7875 133.983 97.8091 138.713 95.2685C143.442 92.728 143.485 92.8069 148.214 90.2664" stroke="#D5E1E6" stroke-width="1.33326" stroke-miterlimit="10"/>
<path d="M144.561 53.2489C139.501 55.9617 139.58 56.1052 134.521 58.818C131.148 60.6265 127.777 62.4375 124.409 64.2508C120.899 66.1311 116.931 65.7794 113.924 63.9852C110.917 62.1911 108.986 58.8611 108.986 54.878C108.986 49.5529 108.907 49.5529 108.907 44.2278C108.907 41.472 109.639 38.8453 111.003 36.5631C112.366 34.2809 114.29 32.3217 116.723 31.0155C121.373 28.518 121.323 28.4319 125.973 25.9344C130.624 23.4369 130.602 23.3939 135.246 20.8964C139.121 18.8152 143.463 19.3606 146.779 21.3413C150.094 23.3221 152.613 26.8961 152.613 31.2954C152.613 35.6947 152.412 35.6947 152.412 40.094C152.412 42.8499 151.623 45.4478 150.252 47.7372C148.881 50.0266 146.972 51.9499 144.539 53.2561L144.561 53.2489Z" fill="#ECE6F3"/>
<path d="M101.882 46.3306C101.882 51.7346 101.71 51.7346 101.71 57.1458C101.71 62.5571 101.638 62.5499 101.638 67.9611C101.638 73.3723 101.76 73.3723 101.76 78.7764C101.76 84.1804 101.889 84.1804 101.889 89.5917C101.889 95.0029 101.588 95.0029 101.588 100.407C101.588 105.811 101.803 105.818 101.803 111.222C101.803 116.626 101.66 116.633 101.66 122.037C101.66 127.442 101.925 127.449 101.925 132.853" fill="white"/>
<path d="M101.882 46.3306C101.882 51.7346 101.71 51.7346 101.71 57.1458C101.71 62.5571 101.638 62.5499 101.638 67.9611C101.638 73.3723 101.76 73.3723 101.76 78.7764C101.76 84.1804 101.889 84.1804 101.889 89.5917C101.889 95.0029 101.588 95.0029 101.588 100.407C101.588 105.811 101.803 105.818 101.803 111.222C101.803 116.626 101.66 116.633 101.66 122.037C101.66 127.442 101.925 127.449 101.925 132.853" stroke="#D5E1E6" stroke-width="1.33326" stroke-miterlimit="10"/>
<path d="M156.977 38.2372C151.975 40.9572 151.989 40.9787 146.987 43.7058C141.985 46.433 141.849 46.1746 136.846 48.8946C134.371 50.2223 131.299 49.9352 128.256 48.629C125.601 47.4879 122.981 45.6866 121.008 43.4546C118.84 40.993 117.455 38.1152 117.455 35.4167C117.455 30.0916 117.312 30.0916 117.312 24.7665C117.312 22.0107 118.187 19.3697 119.551 17.0875C120.914 14.8053 122.852 12.8317 125.278 11.5255C129.928 9.02806 130 9.16442 134.65 6.66693C139.301 4.16944 139.229 4.04744 143.88 1.54995C146.492 0.150493 149.879 0.0356662 153.195 0.774865C156.281 1.46383 159.41 2.83457 161.764 4.80816C164.391 7.01141 165.977 9.9395 165.977 13.0183C165.991 18.6161 166.099 18.6161 166.113 24.2068C166.113 26.9841 165.123 29.9122 163.407 32.3882C161.692 34.8641 159.388 36.9526 156.977 38.2444V38.2372Z" fill="#FCBA44"/>
<path d="M158.298 37.5483C153.238 40.261 153.217 40.218 148.164 42.938C143.112 45.6579 143.033 45.5144 137.973 48.2272C134.464 50.1075 130.553 49.8993 127.553 48.1052C124.553 46.311 122.594 42.9595 122.594 38.9836C122.594 33.6585 122.572 33.6585 122.572 28.3334C122.572 25.5775 123.254 22.9365 124.618 20.6543C125.981 18.3721 127.897 16.3627 130.323 15.0565C133.423 13.3915 136.524 11.7313 139.624 10.0759C144.275 7.57841 144.31 7.643 148.961 5.15268C152.836 3.07144 157.106 3.47334 160.422 5.45411C163.738 7.43487 165.927 11.0089 165.927 15.4082C165.927 19.8075 166.221 19.8075 166.221 24.2068C166.221 26.9626 165.281 29.5678 163.91 31.8571C162.539 34.1465 160.716 36.2493 158.291 37.5554L158.298 37.5483Z" fill="#FFCD6E"/>
<path d="M149.133 14.6978C149.528 14.4825 149.592 14.5973 149.987 14.382C151.329 13.6644 152.714 14.504 152.714 16.0255C152.714 17.7192 152.836 17.7192 152.836 19.4201C152.836 20.0516 152.987 20.7406 153.346 21.2573C153.64 21.6807 154.027 21.5228 153.977 22.0395C153.855 23.2452 153.59 23.1735 153.145 24.3002C152.98 24.7093 153.001 25.1471 153.001 25.5848C153.001 27.5225 152.714 27.5225 152.714 29.4531C152.714 31.1898 151.917 32.7615 150.382 33.5868" stroke="#253135" stroke-width="2" stroke-miterlimit="10" stroke-linecap="round"/>
<path d="M153.941 21.8959C154.336 21.6806 154.401 21.8098 154.803 21.5945" stroke="#253135" stroke-width="2" stroke-miterlimit="10" stroke-linecap="round"/>
<path d="M141.274 37.8068C140.879 38.0221 140.98 38.2087 140.585 38.424C139.243 39.1417 137.413 38.0867 137.413 36.5652C137.413 34.8715 137.685 34.8715 137.685 33.1707C137.685 32.5391 137.312 31.965 136.953 31.4411C136.659 31.0177 136.473 31.0679 136.523 30.5512C136.645 29.3455 136.918 29.4316 137.362 28.3049C137.528 27.8958 137.42 27.4437 137.42 26.9987C137.42 25.061 137.542 25.061 137.542 23.1305C137.542 21.3937 138.446 19.6426 139.975 18.8245" stroke="#253135" stroke-width="2" stroke-miterlimit="10" stroke-linecap="round"/>
<path d="M136.48 30.6301C136.085 30.8454 136.021 30.7234 135.626 30.9387" stroke="#253135" stroke-width="2" stroke-miterlimit="10" stroke-linecap="round"/>
<path d="M158.183 37.3328C153.123 40.0456 153.181 40.1533 148.121 42.866C143.061 45.5788 143.033 45.5214 137.98 48.2414C134.471 50.1217 130.596 49.8346 127.589 48.0404C124.581 46.2463 122.443 42.9593 122.443 38.9835C122.443 33.6584 122.393 33.6584 122.393 28.3333" stroke="#F9A619" stroke-width="1.33326" stroke-miterlimit="10"/>
<path d="M142.021 73.351C137.722 75.5614 137.758 75.626 133.473 77.8651C129.189 80.1042 129.232 80.176 124.947 82.4223C120.663 84.6686 120.648 84.6327 116.364 86.8719C112.079 89.111 111.993 88.9459 107.687 91.142C106.087 91.8381 104.307 90.7544 104.307 89.0105C104.307 86.6853 104.257 86.6853 104.257 84.36C104.257 83.3912 104.86 82.4151 105.75 82.0348C110.048 79.8243 110.027 79.7885 114.311 77.5493C118.596 75.3102 118.567 75.2671 122.852 73.0208C127.136 70.7745 127.201 70.9109 131.485 68.6646C135.77 66.4183 135.798 66.4757 140.104 64.2868C141.705 63.5907 143.506 64.6815 143.506 66.4326C143.506 68.7579 143.607 68.7579 143.607 71.0831C143.607 72.052 142.903 72.9778 142.021 73.3581V73.351Z" fill="#EAF0F3"/>
<path d="M119.68 102.05C113.709 105.129 113.745 105.201 107.767 108.258C106.166 108.954 104.308 107.72 104.308 105.976C104.308 103.651 104.394 103.651 104.394 101.326C104.394 100.357 104.839 99.3305 105.729 98.9429C111.7 95.8641 111.75 95.9574 117.728 92.9002C119.328 92.204 120.958 93.3667 120.958 95.1106C120.958 97.4358 121.058 97.4358 121.058 99.7611C121.058 100.73 120.57 101.663 119.687 102.05H119.68Z" fill="#EAF0F3"/>
<path d="M91.892 83.0895C85.921 86.1683 85.9569 86.2401 79.9787 89.2973C78.3783 89.9935 76.5195 88.7591 76.5195 87.0152C76.5195 84.6899 76.6056 84.6899 76.6056 82.3647C76.6056 81.3958 77.0506 80.3696 77.9405 79.982C83.9115 76.9032 83.9618 76.9965 89.9399 73.9392C91.5403 73.2431 93.1694 74.4057 93.1694 76.1497C93.1694 78.4749 93.2699 78.4749 93.2699 80.8002C93.2699 81.769 92.7819 82.702 91.8992 83.0895H91.892Z" fill="#EAF0F3"/>
<path d="M91.892 134.367C85.921 137.446 85.9569 137.518 79.9787 140.575C78.3783 141.271 76.5195 140.037 76.5195 138.293C76.5195 135.968 76.6056 135.968 76.6056 133.643C76.6056 132.674 77.0506 131.647 77.9405 131.26C83.9115 128.181 83.9618 128.274 89.9399 125.217C91.5403 124.521 93.1694 125.684 93.1694 127.427C93.1694 129.753 93.2699 129.753 93.2699 132.078C93.2699 133.047 92.7819 133.98 91.8992 134.367H91.892Z" fill="#EAF0F3"/>
<path d="M131.012 95.9861C128.68 97.1703 128.809 97.4358 126.469 98.5984C124.869 99.2946 123.125 97.9597 123.125 96.2158C123.125 93.8905 122.838 93.8905 122.838 91.5653C122.838 90.5964 123.563 89.6993 124.445 89.3118C126.778 88.1276 126.735 88.0343 129.074 86.8645C130.675 86.1684 132.569 87.4028 132.569 89.1467C132.569 91.472 132.404 91.472 132.404 93.7972C132.404 94.7661 131.902 95.5914 131.012 95.9789V95.9861Z" fill="#EAF0F3"/>
</g>
<defs>
<clipPath id="clip0_3832_10758">
<rect width="209" height="158" fill="white"/>
</clipPath>
</defs>
</svg>
