<svg width="336" height="201" viewBox="0 0 336 201" fill="none" xmlns="http://www.w3.org/2000/svg">
<path d="M262.027 111.827C257.516 113.769 257.474 113.66 252.962 115.602C248.451 117.544 248.183 116.908 243.671 118.85C239.16 120.792 239.185 120.851 234.673 122.792C230.162 124.734 230.371 125.228 225.859 127.17C221.641 128.986 216.803 128.576 212.718 126.467C208.315 124.19 208.231 124.349 203.829 122.064C199.426 119.788 199.577 119.503 195.174 117.218C190.771 114.933 190.763 114.958 186.351 112.673C181.949 110.388 181.781 110.714 177.37 108.437C174.574 106.989 174.633 102.444 177.521 101.197C182.032 99.2552 182.267 99.7993 186.77 97.849C191.273 95.8987 191.03 95.3295 195.542 93.3876C200.054 91.4457 200.347 92.1153 204.858 90.1734C209.37 88.2315 209.387 88.2566 213.898 86.3147C218.117 84.4984 222.938 84.105 227.023 86.2227C229.958 87.7405 232.896 89.2583 235.837 90.7761C240.239 93.0528 240.223 93.0863 244.625 95.363C249.028 97.6481 248.727 98.234 253.138 100.511C257.541 102.796 257.658 102.57 262.061 104.855C264.856 106.303 264.923 110.563 262.036 111.811L262.027 111.827Z" fill="#ECE6F3"/>
<path d="M291.458 77.283C286.653 77.1156 286.662 76.6971 281.857 76.5297C277.052 76.3623 277.044 76.5883 272.231 76.4209C267.427 76.2535 267.41 76.5799 262.605 76.4125C257.801 76.2451 257.801 76.1028 252.996 75.9354C248.192 75.768 248.175 76.1446 243.37 75.9772C238.557 75.8098 238.583 75.2239 233.77 75.0565C228.965 74.8891 228.948 75.3662 224.135 75.1988C219.323 75.0314 219.339 74.4873 214.535 74.3199C209.722 74.1525 209.697 74.8556 204.884 74.6882C204.281 74.6715 203.846 74.7552 203.846 75.3578C203.846 79.5095 203.955 79.5095 203.955 83.6612C203.955 87.8128 203.528 87.8128 203.478 91.9645C203.352 93.3791 204.449 94.6095 205.922 95.3712C210.274 97.6228 210.032 98.0832 214.376 100.335C218.72 102.586 218.812 102.419 223.156 104.671C227.5 106.922 227.643 106.671 231.987 108.923C236.339 111.174 236.348 111.149 240.7 113.401C245.061 115.661 250.209 116.356 254.729 114.405C257.698 113.127 260.669 111.852 263.643 110.58C268.096 108.663 268.021 108.487 272.474 106.571C276.927 104.654 276.835 104.445 281.288 102.519C285.741 100.603 285.808 100.753 290.261 98.8365C291.684 98.2255 292.763 96.8695 292.83 95.5386C292.864 91.2446 292.052 91.2446 292.06 86.9507C292.069 82.6567 292.747 82.6567 292.747 78.3628C292.747 77.7936 292.035 77.2997 291.466 77.283H291.458Z" fill="#D5E1E6"/>
<path d="M291.466 76.948C286.662 76.7806 286.653 76.8225 281.849 76.655C277.044 76.4876 277.044 76.3621 272.24 76.1947C267.435 76.0273 267.41 76.5295 262.606 76.3621C257.801 76.1947 257.809 75.9519 252.996 75.7845C248.192 75.6171 248.192 75.433 243.387 75.2656C238.583 75.0982 238.574 75.1568 233.762 74.9894C228.957 74.8219 228.932 75.3911 224.127 75.2237C219.314 75.0563 219.331 74.6043 214.518 74.4369C209.705 74.2695 209.689 74.8722 204.876 74.7048C204.273 74.688 203.453 74.755 203.453 75.3493C203.453 79.5009 203.386 79.5009 203.386 83.6526C203.386 87.8043 203.762 87.8043 203.704 91.9559C203.578 93.3705 204.223 95.0195 205.688 95.7812C210.04 98.0328 210.216 97.6812 214.568 99.9328C218.913 102.184 218.829 102.352 223.173 104.603C226.075 106.105 228.977 107.606 231.878 109.107C236.231 111.358 236.139 111.534 240.491 113.786C244.852 116.046 250.042 115.945 254.562 113.995C259.015 112.078 259.082 112.229 263.535 110.312C267.988 108.395 268.105 108.671 272.558 106.755C277.011 104.838 277.036 104.888 281.489 102.963C285.942 101.046 285.917 100.987 290.37 99.0623C291.793 98.4513 292.102 96.8526 292.169 95.5217C292.203 91.2277 292.387 91.2277 292.387 86.9338C292.387 82.6398 292.63 82.6398 292.63 78.3458C292.63 77.7767 292.052 76.948 291.483 76.9313L291.466 76.948Z" fill="#D5E1E6"/>
<path d="M291.466 77.1491C286.661 76.9817 286.661 76.8477 281.857 76.6803C277.052 76.5129 277.027 77.216 272.214 77.0486C267.41 76.8812 267.41 76.6803 262.605 76.5129C257.801 76.3455 257.817 75.8182 253.013 75.6508C248.208 75.4834 248.208 75.4583 243.395 75.2909C238.582 75.1235 238.582 75.2239 233.77 75.0565C228.965 74.8891 228.948 75.249 224.144 75.0816C219.339 74.9142 219.339 74.5961 214.535 74.4287C209.722 74.2613 209.722 74.2781 204.909 74.1107C204.306 74.0939 203.569 74.7635 203.569 75.3662C203.569 79.5179 203.946 79.5179 203.946 83.6695C203.946 87.8212 203.444 87.8212 203.385 91.9729C203.26 93.3874 204.189 95.1117 205.662 95.8734C210.015 98.125 210.132 97.8823 214.484 100.134C218.829 102.386 218.695 102.645 223.047 104.897C227.4 107.148 227.718 106.537 232.062 108.789C236.415 111.04 236.281 111.291 240.633 113.543C244.994 115.803 250.092 116.063 254.603 114.121C259.056 112.204 259.006 112.095 263.459 110.178C267.912 108.261 268.046 108.58 272.499 106.663C276.952 104.746 276.927 104.671 281.38 102.754C285.833 100.837 285.808 100.787 290.269 98.8616C291.692 98.2506 292.244 96.8779 292.311 95.5554C292.345 91.2614 292.621 91.2614 292.621 86.9674C292.621 82.6735 292.881 82.6735 292.889 78.3795C292.889 77.8103 292.043 77.1826 291.474 77.1574L291.466 77.1491Z" fill="#D5E1E6"/>
<path d="M291.449 77.5343C286.644 77.3669 286.636 77.4841 281.831 77.3167C277.027 77.1492 277.043 76.6638 272.231 76.4964C267.426 76.329 267.409 76.6721 262.605 76.5047C257.8 76.3373 257.809 75.9188 253.004 75.7514C248.199 75.584 248.199 75.3747 243.395 75.2073C238.59 75.0399 238.565 75.5422 233.761 75.3747C228.956 75.2073 228.939 75.5338 224.135 75.3747C219.322 75.2073 219.33 74.8893 214.526 74.7219C209.713 74.5545 209.704 74.8223 204.892 74.6549C204.289 74.6382 203.485 74.747 203.485 75.3413C203.485 79.4929 203.795 79.4929 203.795 83.6446C203.795 87.7963 203.803 87.7963 203.753 91.9479C203.628 93.3625 204.49 94.5176 205.963 95.2793C210.316 97.5309 210.148 97.849 214.492 100.101C218.836 102.352 218.887 102.26 223.231 104.512C227.583 106.763 227.634 106.663 231.986 108.915C236.339 111.166 236.163 111.501 240.516 113.761C244.876 116.021 249.949 115.686 254.46 113.736C258.913 111.819 259.089 112.229 263.542 110.312C267.995 108.396 268.004 108.429 272.457 106.512C276.91 104.595 276.951 104.688 281.404 102.771C285.857 100.854 285.749 100.586 290.202 98.6693C291.625 98.0582 292.319 96.8529 292.386 95.5304C292.42 91.2364 292.805 91.2365 292.805 86.9425C292.805 82.6485 292.068 82.6485 292.068 78.3546C292.068 77.7854 292.026 77.551 291.457 77.5259L291.449 77.5343Z" fill="#D5E1E6"/>
<path d="M204.883 74.479C204.281 74.4539 203.921 74.7552 203.921 75.3579C203.921 79.5096 203.912 79.5096 203.912 83.6612C203.912 86.429 203.896 89.1968 203.862 91.9646C203.737 93.3791 204.323 94.8188 205.796 95.5805C210.148 97.8321 210.123 97.8824 214.467 100.134C218.812 102.386 218.887 102.243 223.231 104.495C227.584 106.746 227.558 106.797 231.903 109.048C236.255 111.3 236.23 111.342 240.583 113.593C242.943 114.815 245.714 115.502 248.308 115.502C249.564 110.706 248.141 110.496 248.141 105.541C248.141 100.586 248.292 100.586 248.292 95.6307C248.292 90.6755 248.25 90.6755 248.25 85.712C248.25 80.7567 251.598 79.3338 248.007 75.9103C244.09 72.1772 242.717 75.6341 237.31 75.4416C231.903 75.2491 231.911 75.2323 226.504 75.0398C222.899 74.9171 219.294 74.8138 215.689 74.7301C210.282 74.6046 210.282 74.6548 204.875 74.4706L204.883 74.479Z" fill="#ABBBC1"/>
<mask id="mask0_3822_39703" style="mask-type:luminance" maskUnits="userSpaceOnUse" x="203" y="74" width="90" height="42">
<path d="M291.458 77.2663C286.653 77.0989 286.645 77.2663 281.832 77.0989C277.028 76.9315 277.036 76.6135 272.223 76.4461C267.419 76.2786 267.419 76.1196 262.614 75.9522C257.809 75.7848 257.784 76.5298 252.971 76.3623C248.167 76.1949 248.167 76.0275 243.362 75.8601C238.558 75.6927 238.558 75.4416 233.753 75.2742C228.949 75.1068 228.94 75.1738 224.136 75.0064C219.323 74.839 219.314 75.0817 214.502 74.9143C209.689 74.7469 209.697 74.5962 204.884 74.4288C204.281 74.4121 204.081 74.7552 204.081 75.3579C204.081 79.5096 203.528 79.5096 203.528 83.6612C203.528 87.8129 203.486 87.8129 203.436 91.9646C203.31 93.3792 204.357 94.7686 205.822 95.5303C210.174 97.7819 210.132 97.8573 214.476 100.109C218.821 102.36 218.745 102.52 223.089 104.771C227.442 107.023 227.434 107.039 231.778 109.299C236.13 111.551 236.289 111.233 240.642 113.485C245.003 115.745 249.983 115.862 254.503 113.911C258.956 111.995 259.04 112.179 263.493 110.262C267.946 108.345 267.971 108.404 272.416 106.479C276.869 104.562 276.802 104.403 281.255 102.478C285.708 100.561 285.833 100.845 290.286 98.9287C291.709 98.3176 292.044 96.8612 292.111 95.5303C292.144 91.2364 292.462 91.2364 292.462 86.9424C292.462 82.6484 292.144 82.6484 292.153 78.3545C292.153 77.7853 292.019 77.2747 291.45 77.2496L291.458 77.2663Z" fill="white"/>
</mask>
<g mask="url(#mask0_3822_39703)">
<path d="M196.271 5.85696C199.611 6.72747 202.925 7.55613 205.863 9.07953C208.902 10.6531 211.84 12.4779 214.384 14.6374C216.971 16.8388 218.98 19.6512 220.989 22.3464C223.006 25.05 225.09 27.7955 226.463 30.8841C227.827 33.956 228.806 37.279 229.459 40.6104C230.112 43.9418 230.38 47.3234 230.271 50.7468C230.162 54.0531 229.016 57.2924 228.137 60.6322C227.266 63.9719 226.488 67.2531 224.956 70.191C223.382 73.2294 221.683 76.2176 219.524 78.7622C217.322 81.3486 214.828 83.7593 212.133 85.7681C209.438 87.777 206.265 89.1665 203.177 90.5392C200.105 91.9036 196.849 92.7741 193.517 93.427C190.236 94.0715 186.888 94.9671 183.473 94.8583C180.167 94.7495 176.726 94.2556 173.387 93.3851C170.047 92.5146 167.067 90.7568 164.129 89.2334C161.191 87.7101 158.479 85.584 155.943 83.4161C153.407 81.2482 150.77 79.0552 148.761 76.3599C146.744 73.6563 144.777 70.8355 143.413 67.7469C142.048 64.675 141.471 61.2934 140.81 57.962C140.165 54.6809 139.897 51.3495 140.006 47.9344C140.115 44.6282 140.533 41.3052 141.404 37.9654C142.274 34.6257 143.354 31.4366 144.878 28.4902C146.451 25.4518 148.209 22.5306 150.377 19.986C152.578 17.3996 154.972 14.9136 157.667 12.8964C160.371 10.8791 163.669 9.791 166.757 8.41827C169.829 7.05392 172.96 5.9323 176.291 5.27941C179.623 4.62653 182.904 3.99876 186.319 4.10757C189.734 4.21639 192.931 4.97808 196.271 5.84859V5.85696Z" fill="#FFCD6E"/>
</g>
<path d="M247.966 95.7645C245.748 95.7645 243.622 95.2456 241.638 94.2244C239.462 93.0944 238.374 92.475 237.327 91.8807C236.256 91.2697 235.151 90.6419 232.925 89.4868C230.69 88.3317 229.526 87.8044 228.396 87.2938C227.25 86.7748 226.161 86.2893 223.994 85.1593C221.75 83.9959 220.562 83.4937 219.415 83.0082C218.26 82.5143 217.172 82.054 215.012 80.9324C212.836 79.8107 211.815 79.1997 210.735 78.5552C209.672 77.919 208.567 77.2662 206.332 76.1111C205.294 75.5754 204.951 74.504 204.985 73.6837C205.018 72.6458 205.571 71.8004 206.458 71.4153C208.726 70.436 209.865 69.917 210.969 69.4065C212.058 68.9042 213.188 68.3853 215.431 67.4227C217.615 66.4769 218.737 66.142 219.917 65.7905C221.114 65.4306 222.353 65.0623 224.68 64.0578C226.932 63.0869 228.062 62.6098 229.183 62.1243C230.313 61.6388 231.451 61.1617 233.711 60.1824C235.971 59.2114 237.093 58.7092 238.215 58.207C239.336 57.7048 240.45 57.2026 242.71 56.2316C244.543 55.4364 246.451 55.0347 248.376 55.0347C250.553 55.0347 252.653 55.5453 254.604 56.5581C256.847 57.7215 258.036 58.2237 259.182 58.7092C260.337 59.2031 261.426 59.6634 263.585 60.7851C265.778 61.9234 266.875 62.501 267.971 63.0701C269.068 63.6477 270.172 64.2252 272.382 65.372C274.533 66.4852 275.529 67.1297 276.576 67.8077C277.63 68.4857 278.719 69.1888 280.979 70.3607C283.213 71.5158 284.385 72.0431 285.515 72.5453C286.662 73.0559 287.75 73.5498 289.918 74.6714C290.763 75.115 291.257 75.9269 291.224 76.8476C291.19 77.8102 290.621 78.6222 289.7 79.0156C287.39 80.0116 286.269 80.6227 285.18 81.2169C284.092 81.8112 283.063 82.372 280.861 83.3179C278.643 84.2721 277.538 84.6739 276.367 85.0924C275.211 85.5109 274.014 85.9378 271.729 86.9255L262.706 90.8093C260.471 91.7719 259.316 92.2323 258.203 92.6675C257.073 93.1195 255.901 93.5799 253.624 94.5592C251.816 95.3376 249.916 95.731 247.991 95.731L247.966 95.7645Z" fill="white"/>
<path d="M248.368 56.3071C250.343 56.3071 252.243 56.7758 254.018 57.6882C256.303 58.8684 257.508 59.3873 258.68 59.8812C259.81 60.3666 260.881 60.8186 262.999 61.9152C265.192 63.0535 266.288 63.6227 267.377 64.2002C268.473 64.7778 269.578 65.3553 271.788 66.5021C273.88 67.5902 274.851 68.2096 275.881 68.8709C276.961 69.5656 278.074 70.2854 280.384 71.4824C282.652 72.6542 283.841 73.1899 284.988 73.7005C286.118 74.2111 287.189 74.6882 289.332 75.7931C289.901 76.0861 289.968 76.5548 289.96 76.8143C289.96 77.0403 289.859 77.5927 289.19 77.8773C286.829 78.8985 285.674 79.5262 284.561 80.1289C283.498 80.7065 282.502 81.2505 280.351 82.1796C278.166 83.1171 277.078 83.5105 275.923 83.929C274.751 84.3475 273.537 84.7828 271.21 85.7872L266.674 87.7459L262.187 89.6794C259.969 90.6336 258.872 91.0689 257.717 91.5292C256.579 91.9812 255.399 92.45 253.105 93.4377C251.456 94.1491 249.724 94.5091 247.974 94.5091C245.957 94.5091 244.024 94.0403 242.224 93.1029C240.064 91.9896 239.043 91.4037 237.955 90.7843C236.875 90.1649 235.754 89.5287 233.51 88.3653C231.25 87.1934 230.07 86.6577 228.924 86.1471C227.794 85.6366 226.722 85.1511 224.579 84.0462C222.294 82.8576 221.081 82.347 219.917 81.8532C218.787 81.3761 217.716 80.9157 215.598 79.8192C213.464 78.7143 212.451 78.1117 211.388 77.4839C210.308 76.8394 209.186 76.1781 206.918 74.9979C206.265 74.6631 206.24 73.9433 206.248 73.734C206.257 73.4745 206.349 72.8384 206.968 72.5789C209.253 71.5912 210.4 71.0639 211.513 70.5533C212.643 70.0343 213.715 69.5405 215.941 68.5779C218.059 67.6655 219.147 67.3391 220.285 66.9959C221.516 66.6276 222.796 66.2426 225.182 65.213C227.434 64.2421 228.564 63.765 229.685 63.2795C230.815 62.794 231.954 62.3169 234.214 61.3376C236.482 60.3583 237.637 59.8477 238.742 59.3455C239.838 58.8516 240.968 58.3494 243.212 57.3868C244.894 56.667 246.627 56.2987 248.384 56.2987M248.384 53.7876C246.3 53.7876 244.216 54.2228 242.224 55.085C237.712 57.0269 237.737 57.0939 233.226 59.0358C228.714 60.9777 228.706 60.9609 224.194 62.9028C219.683 64.8448 219.457 64.3174 214.953 66.2593C210.442 68.2012 210.492 68.3101 205.981 70.252C203.093 71.4991 202.984 75.768 205.771 77.216C210.174 79.5011 210.04 79.7522 214.451 82.0373C218.854 84.3224 219.03 83.9792 223.441 86.2643C227.844 88.541 227.969 88.3067 232.372 90.5834C236.775 92.8601 236.683 93.0359 241.094 95.321C243.27 96.451 245.631 97.0034 247.999 97.0034C250.075 97.0034 252.159 96.5765 254.126 95.7228C258.638 93.7809 258.697 93.9148 263.208 91.9729C266.216 90.6783 269.224 89.3837 272.231 88.0891C276.743 86.1471 276.86 86.4234 281.372 84.4815C285.883 82.5396 285.699 82.121 290.211 80.1791C293.099 78.932 293.308 75.0063 290.512 73.5582C286.109 71.2731 285.975 71.5243 281.573 69.2475C277.17 66.9624 277.388 66.5439 272.976 64.2672C268.574 61.9905 268.59 61.957 264.188 59.6803C259.785 57.4036 259.609 57.73 255.206 55.4533C253.047 54.34 250.728 53.7876 248.401 53.7876H248.384Z" fill="#D5E1E6"/>
<path d="M286.185 89.3614C286.946 89.0015 287.792 89.4451 288.051 90.3491C288.311 91.2531 287.892 92.2659 287.13 92.6258C286.369 92.9857 285.532 92.5589 285.272 91.6549C285.013 90.7509 285.423 89.713 286.185 89.353V89.3614Z" fill="#FCBA44"/>
<path d="M286.185 89.3614C286.946 89.0015 287.792 89.4451 288.051 90.3491C288.311 91.2531 287.892 92.2659 287.13 92.6258C286.369 92.9857 285.532 92.5589 285.272 91.6549C285.013 90.7509 285.423 89.713 286.185 89.353V89.3614Z" stroke="white" stroke-width="1.33329" stroke-miterlimit="10"/>
<path d="M302.288 56.1146C297.484 55.9472 297.492 55.6794 292.679 55.512C287.866 55.3446 287.866 55.445 283.062 55.2776C278.257 55.1102 278.266 54.6666 273.461 54.4992C268.657 54.3318 268.648 54.449 263.844 54.2816C259.039 54.1141 259.039 54.0388 254.226 53.8714C249.413 53.704 249.422 53.6454 244.609 53.478C239.804 53.3106 239.804 53.252 234.991 53.0846C230.178 52.9172 230.153 53.7793 225.34 53.6119C220.527 53.4445 220.544 52.959 215.731 52.7916C215.129 52.7749 214.467 53.3106 214.467 53.9133C214.467 58.0649 214.568 58.0649 214.568 62.2166C214.568 66.3683 214.392 66.3683 214.342 70.5199C214.216 71.9345 214.961 73.7927 216.426 74.5544C220.779 76.806 220.946 76.4796 225.29 78.7312C229.634 80.9828 229.701 80.8489 234.054 83.1005C238.406 85.3521 238.524 85.1261 242.868 87.3777C247.22 89.6293 247.153 89.7549 251.506 92.0065C255.867 94.2664 260.755 94.233 265.275 92.2827C269.728 90.3659 269.904 90.7677 274.357 88.8509C278.81 86.9341 278.667 86.616 283.12 84.6992C287.573 82.7824 287.866 83.4604 292.319 81.5436C296.772 79.6268 296.647 79.3255 301.1 77.4003C302.523 76.7893 303.092 75.4249 303.159 74.094C303.192 69.8001 303.209 69.8001 303.209 65.5061C303.209 61.2122 303.762 61.2122 303.762 56.9182C303.762 56.349 302.858 56.1398 302.288 56.123V56.1146Z" fill="#D5E1E6"/>
<path d="M215.74 52.6746C215.137 52.6495 214.836 53.3024 214.836 53.8967C214.836 58.0483 214.551 58.0483 214.551 62.2C214.551 66.3517 214.535 66.3517 214.484 70.5033C214.359 71.9179 215.104 73.5166 216.569 74.2783C219.47 75.7794 222.372 77.2777 225.274 78.7732C229.618 81.0248 229.66 80.9578 234.004 83.2094C238.356 85.461 238.432 85.3104 242.784 87.562C247.137 89.8136 246.986 90.1065 251.33 92.3582C253.691 93.5802 256.587 94.0573 259.182 94.0573C260.437 89.2612 258.931 89.0435 258.931 84.0883C258.931 79.1331 258.847 79.1331 258.847 74.1779C258.847 69.2227 259.19 69.2227 259.19 64.2591C259.19 59.3039 262.68 57.6465 259.09 54.2231C255.172 50.4899 253.582 53.9887 248.175 53.7962C242.776 53.6121 242.759 53.9218 237.36 53.7293C231.953 53.5451 231.953 53.5786 226.546 53.3359C221.139 53.0931 221.147 52.8504 215.748 52.6662L215.74 52.6746Z" fill="#ABBBC1"/>
<mask id="mask1_3822_39703" style="mask-type:luminance" maskUnits="userSpaceOnUse" x="214" y="53" width="90" height="42">
<path d="M302.305 55.6544C297.501 55.487 297.501 55.3113 292.696 55.1438C287.892 54.9764 287.883 55.2024 283.07 55.0434C278.266 54.876 278.258 55.0518 273.445 54.8844C268.64 54.717 268.64 54.5663 263.836 54.3989C259.031 54.2315 259.039 53.9804 254.226 53.813C249.414 53.6456 249.397 54.2231 244.584 54.0557C239.779 53.8883 239.796 53.2605 234.992 53.0931C230.187 52.9257 230.153 53.7209 225.341 53.5535C220.528 53.3861 220.536 53.2773 215.723 53.1099C215.12 53.0931 214.367 53.3024 214.367 53.8967C214.367 58.0483 215.028 58.0483 215.028 62.2C215.028 66.3517 214.258 66.3517 214.208 70.5033C214.083 71.9179 215.062 73.5752 216.527 74.3286C220.879 76.5802 220.796 76.7308 225.148 78.9824C229.492 81.2341 229.475 81.2759 233.82 83.5275C238.172 85.7791 238.39 85.3522 242.742 87.6038C247.095 89.8555 247.02 89.9977 251.372 92.2494C255.733 94.5093 260.956 94.6684 265.468 92.7181C269.921 90.8013 269.971 90.9101 274.416 88.9933C277.384 87.7154 280.35 86.4348 283.313 85.1514C287.766 83.2346 287.523 82.6654 291.976 80.7486C296.429 78.8318 296.572 79.1666 301.025 77.2414C302.448 76.6304 303.536 75.4083 303.603 74.0774C303.636 69.7835 303.276 69.7835 303.276 65.4895C303.276 61.1956 303.009 61.1956 303.009 56.9016C303.009 56.3324 302.858 55.6628 302.289 55.6377L302.305 55.6544Z" fill="white"/>
</mask>
<g mask="url(#mask1_3822_39703)">
<path d="M204.482 -2.2012C207.822 -1.33069 211.036 -0.276034 213.974 1.24736C217.012 2.82097 219.565 5.0391 222.11 7.19864C224.655 9.35817 226.956 11.8274 228.965 14.5143C230.983 17.2179 232.707 20.0554 234.08 23.144C235.444 26.2159 237.068 29.2627 237.721 32.5941C238.365 35.8753 238.24 39.3071 238.122 42.7305C238.014 46.0368 237.813 49.4435 236.942 52.7833C236.072 56.123 234.289 59.0359 232.765 61.9738C231.242 64.9118 229.928 68.2348 227.76 70.7794C225.559 73.3658 222.654 75.2324 219.959 77.2496C217.255 79.2669 214.577 81.4013 211.488 82.774C208.399 84.1467 205.06 84.7829 201.728 85.4358C198.447 86.0803 195.124 86.2309 191.701 86.1138C188.394 86.0049 184.946 86.1891 181.606 85.3102C178.266 84.4313 175.153 82.9749 172.215 81.4431C169.277 79.9114 166.28 78.0364 163.744 75.8769C161.158 73.6755 158.906 71.0975 156.889 68.4022C154.871 65.6986 153.022 62.8025 151.649 59.7222C150.285 56.6503 149.615 53.2938 148.954 49.9625C148.309 46.6813 147.472 43.3248 147.581 39.9097C147.69 36.4947 148.259 33.18 149.129 29.8403C150 26.5005 151.607 23.4621 153.13 20.5241C154.704 17.4857 156.847 14.9077 159.015 12.3715C161.216 9.78506 163.258 7.0396 165.954 5.02236C168.657 3.00512 171.855 1.78306 174.943 0.41033C178.032 -0.962398 181.112 -2.26816 184.444 -2.92105C187.725 -3.56556 191.09 -3.95896 194.513 -3.85015C197.819 -3.74134 201.142 -3.07171 204.482 -2.2012Z" fill="#FFCD6E"/>
</g>
<path d="M216.761 73.8848C221.164 76.1615 221.021 76.4377 225.424 78.7228C229.827 80.9995 229.668 81.3176 234.071 83.5943C238.473 85.8794 238.49 85.8543 242.893 88.131C247.296 90.4161 247.53 89.9641 251.941 92.2408C256.026 94.3585 260.705 94.5594 264.923 92.7347C269.435 90.7928 269.468 90.8681 273.98 88.9262C278.492 86.9843 278.609 87.2521 283.112 85.3102C287.624 83.3683 287.691 83.5273 292.202 81.5854C296.714 79.6435 296.613 79.4008 301.125 77.4589" stroke="#80949C" stroke-width="1.33329" stroke-linecap="round" stroke-linejoin="round"/>
<path d="M257.885 74.4122C255.851 74.4122 253.976 73.9685 252.302 73.1064C250.092 71.9597 248.987 71.3989 247.882 70.8381C246.777 70.2772 245.672 69.7164 243.479 68.5781C241.336 67.4648 240.349 66.8203 239.302 66.134C238.248 65.4476 237.168 64.7361 234.908 63.5643C232.665 62.4008 231.485 61.8902 230.346 61.3964C229.191 60.8942 228.103 60.4254 225.943 59.3038C223.784 58.1822 222.771 57.5628 221.7 56.9099C220.637 56.257 219.54 55.5874 217.297 54.4323C216.418 53.9803 215.908 53.1684 215.941 52.2644C215.974 51.3771 216.519 50.6238 217.406 50.2388C219.716 49.2427 220.838 48.6317 221.934 48.0458C223.022 47.4598 224.052 46.899 226.253 45.9532C228.463 44.999 229.568 44.6223 230.748 44.2205C231.92 43.8188 233.125 43.4086 235.427 42.4209C237.712 41.4416 238.85 40.8892 239.947 40.3535C241.018 39.8345 242.132 39.2904 244.367 38.3278C246.61 37.3569 247.765 36.8965 248.878 36.4529C250.008 36.0009 251.172 35.5322 253.44 34.5612C255.106 33.8414 256.888 33.4814 258.73 33.4814C261.015 33.4814 263.334 34.059 265.443 35.1471C267.636 36.2855 268.724 36.863 269.821 37.449C270.917 38.0349 272.014 38.6208 274.223 39.7675C276.458 40.9226 277.63 41.4416 278.768 41.9438C279.915 42.4544 281.003 42.9315 283.171 44.0531C285.373 45.1915 286.469 45.769 287.566 46.3466C288.662 46.9241 289.767 47.5017 291.968 48.64C294.195 49.7951 295.35 50.3308 296.472 50.8498C297.568 51.3604 298.698 51.8877 300.874 53.0177C301.67 53.4279 302.113 54.1728 302.08 55.0433C302.055 55.8385 301.603 56.868 300.431 57.3703C298.196 58.3328 297.066 58.81 295.944 59.2871C294.806 59.7725 293.676 60.2496 291.399 61.229C289.114 62.2167 287.976 62.7691 286.879 63.3132C285.758 63.8656 284.703 64.3846 282.476 65.3388C280.25 66.3014 279.095 66.7366 277.973 67.1551C276.827 67.582 275.646 68.034 273.361 69.0133C271.093 69.9927 269.954 70.5116 268.85 71.0222C267.761 71.5244 266.631 72.0434 264.388 73.006C262.254 73.9267 260.011 74.4122 257.901 74.4122H257.885Z" fill="white"/>
<path d="M258.722 34.7118C260.806 34.7118 262.924 35.2392 264.857 36.2352C267.042 37.3652 268.147 37.9595 269.218 38.5287C270.298 39.1062 271.419 39.7089 273.637 40.8556C275.906 42.0275 277.094 42.5548 278.25 43.0654C279.38 43.5676 280.451 44.0447 282.585 45.1496C284.787 46.288 285.883 46.8655 286.98 47.4347C288.076 48.0122 289.181 48.5898 291.391 49.7281C293.642 50.8916 294.806 51.4357 295.936 51.963C297.066 52.4903 298.137 52.9926 300.297 54.1058C300.431 54.1728 300.841 54.3904 300.824 54.9763C300.807 55.3865 300.565 55.9222 299.937 56.1984C297.685 57.1693 296.564 57.6464 295.434 58.1236C294.304 58.6007 293.165 59.0861 290.905 60.0571C288.595 61.0532 287.44 61.6223 286.335 62.1664C285.23 62.7105 284.184 63.2211 281.991 64.1669C279.79 65.1127 278.701 65.5229 277.546 65.9581C276.391 66.3934 275.194 66.8454 272.884 67.8415C270.599 68.8292 269.452 69.3565 268.339 69.8671C267.209 70.386 266.138 70.8799 263.903 71.8425C261.919 72.6962 259.852 73.1482 257.91 73.1482C256.085 73.1482 254.394 72.7548 252.904 71.9848C250.694 70.838 249.59 70.2772 248.476 69.7164C247.371 69.1556 246.275 68.5948 244.074 67.4564C241.989 66.3767 241.027 65.7489 240.014 65.0793C238.934 64.3762 237.821 63.6396 235.502 62.4426C233.226 61.2624 232.02 60.7435 230.865 60.2412C229.735 59.7474 228.664 59.287 226.538 58.1821C224.412 57.0856 223.424 56.4746 222.369 55.8301C221.29 55.1688 220.168 54.4825 217.891 53.3023C217.255 52.9758 217.205 52.482 217.213 52.2895C217.213 52.0551 217.322 51.6366 217.925 51.3771C220.285 50.3643 221.432 49.7365 222.545 49.1339C223.608 48.5563 224.613 48.0122 226.764 47.0831C228.932 46.154 230.012 45.7774 231.167 45.384C232.355 44.9738 233.586 44.5553 235.929 43.5425C238.239 42.5464 239.386 41.994 240.499 41.4499C241.613 40.9142 242.659 40.4036 244.869 39.4494C247.095 38.4868 248.183 38.0516 249.347 37.5912C250.485 37.1392 251.657 36.6705 253.942 35.6828C255.449 35.0299 257.064 34.7035 258.738 34.7035M258.738 32.1924C256.771 32.1924 254.804 32.5774 252.946 33.381C248.435 35.3229 248.384 35.2057 243.873 37.1476C239.361 39.0895 239.445 39.2988 234.933 41.2407C230.422 43.1826 230.271 42.831 225.768 44.7729C221.256 46.7148 221.432 47.1166 216.92 49.0585C214.033 50.3057 213.932 54.0723 216.728 55.5204C221.131 57.8055 220.972 58.1152 225.374 60.4003C229.777 62.6854 229.936 62.3757 234.339 64.6607C238.742 66.9375 238.507 67.3978 242.91 69.6746C247.313 71.9513 247.33 71.9262 251.732 74.2029C253.666 75.2073 255.767 75.6509 257.893 75.6509C260.262 75.6509 262.656 75.0985 264.874 74.1443C269.385 72.2024 269.335 72.0936 273.847 70.1517C278.358 68.2098 278.45 68.419 282.962 66.4771C287.474 64.5352 287.373 64.3092 291.885 62.3673C296.396 60.4254 296.405 60.4505 300.916 58.5086C303.804 57.2614 304.231 53.3274 301.435 51.8877C297.032 49.6026 296.932 49.7867 292.529 47.51C288.126 45.2249 288.135 45.2082 283.732 42.9231C279.329 40.6464 279.187 40.9142 274.784 38.6291C270.381 36.3524 270.407 36.2938 266.004 34.0087C263.719 32.8285 261.216 32.2008 258.713 32.2008L258.738 32.1924Z" fill="#D5E1E6"/>
<path d="M297.015 67.9001C297.777 67.5402 298.614 68.0005 298.873 68.9045C299.133 69.8085 298.739 70.8464 297.978 71.2064C297.216 71.5663 296.371 71.1143 296.111 70.2103C295.852 69.3063 296.253 68.2684 297.015 67.9085V67.9001Z" fill="#FCBA44"/>
<path d="M297.015 67.9001C297.777 67.5402 298.614 68.0005 298.873 68.9045C299.133 69.8085 298.739 70.8464 297.978 71.2064C297.216 71.5663 296.371 71.1143 296.111 70.2103C295.852 69.3063 296.253 68.2684 297.015 67.9085V67.9001Z" stroke="white" stroke-width="1.33329" stroke-miterlimit="10"/>
<path d="M205.913 95.3711C210.316 97.6478 210.257 97.7734 214.66 100.058C219.063 102.335 218.87 102.703 223.273 104.989C227.676 107.274 227.659 107.307 232.07 109.584C236.473 111.869 236.624 111.584 241.026 113.861C245.111 115.979 250.083 116.523 254.31 114.706C258.822 112.765 258.688 112.446 263.191 110.505C267.694 108.563 267.661 108.471 272.172 106.529C276.684 104.587 276.634 104.461 281.145 102.519C285.657 100.577 285.833 100.979 290.344 99.0373" stroke="#80949C" stroke-width="1.33329" stroke-linecap="round" stroke-linejoin="round"/>
<path d="M285.974 34.0171C281.17 33.8497 281.178 33.3977 276.373 33.2303C271.569 33.0629 271.552 33.3893 266.748 33.2219C261.943 33.0545 261.926 33.3642 257.122 33.1968C252.317 33.0294 252.317 33.0127 247.504 32.8453C242.691 32.6778 242.717 32.184 237.904 32.0166C233.091 31.8492 233.091 31.8241 228.286 31.6567C223.482 31.4893 223.473 31.6232 218.669 31.4558C213.856 31.2884 213.856 31.2465 209.043 31.0791C204.23 30.9117 204.238 30.6271 199.425 30.4597C198.823 30.443 198.714 31.28 198.714 31.8743C198.714 36.026 198.203 36.026 198.203 40.1776C198.203 44.3293 197.961 44.3293 197.91 48.481C197.785 49.8955 198.99 51.0841 200.455 51.8458C204.807 54.0974 204.506 54.675 208.85 56.9266C213.195 59.1782 213.32 58.9438 217.664 61.1954C222.008 63.447 221.975 63.5224 226.327 65.774C230.68 68.0256 230.688 68.0089 235.041 70.2605C239.402 72.5204 244.658 72.6878 249.17 70.7459C253.623 68.8291 253.472 68.4692 257.925 66.5524C262.378 64.6356 262.529 64.9872 266.982 63.0704C271.435 61.1536 271.51 61.321 275.963 59.3958C280.416 57.479 280.165 56.8931 284.618 54.9679C286.041 54.3569 286.861 53.386 286.937 52.0551C286.97 47.7611 287.23 47.7611 287.23 43.4672C287.23 39.1732 287.046 39.1732 287.046 34.8792C287.046 34.3101 286.552 34.0255 285.983 34.0087L285.974 34.0171Z" fill="#D5E1E6"/>
<path d="M199.417 30.7862C198.815 30.7611 198.237 31.28 198.237 31.8743C198.237 36.026 198.262 36.026 198.262 40.1777C198.262 44.3293 198.195 44.3293 198.136 48.481C198.011 49.8956 198.923 51.2181 200.396 51.9714C204.749 54.223 204.699 54.3151 209.051 56.5667C213.396 58.8183 213.345 58.9188 217.69 61.1704C222.042 63.422 222.092 63.3215 226.445 65.5731C230.797 67.8247 230.831 67.7578 235.175 70.0178C237.535 71.2398 240.264 72.0266 242.867 72.0266C244.123 67.2305 242.474 67.0128 242.474 62.0576C242.474 57.1024 242.516 57.1024 242.516 52.1472C242.516 48.8437 242.513 45.5374 242.507 42.2284C242.507 37.2732 246.291 35.6996 242.7 32.2761C238.783 28.543 237.268 32.092 231.86 31.8994C226.462 31.7153 226.453 31.9664 221.046 31.7739C215.639 31.5897 215.647 31.3219 210.24 31.1294C204.833 30.9285 204.833 30.962 199.426 30.7695L199.417 30.7862Z" fill="#ABBBC1"/>
<mask id="mask2_3822_39703" style="mask-type:luminance" maskUnits="userSpaceOnUse" x="198" y="30" width="90" height="43">
<path d="M285.999 33.4564C281.195 33.289 281.187 33.4062 276.382 33.2388C271.577 33.0714 271.561 33.515 266.748 33.3476C261.943 33.1802 261.952 32.8202 257.147 32.6528C252.343 32.4854 252.343 32.3013 247.538 32.1339C242.733 31.9665 242.708 32.6696 237.895 32.5022C233.082 32.3348 233.099 32.0334 228.286 31.866C223.482 31.6986 223.482 31.6317 218.669 31.4643C213.856 31.2969 213.873 30.9118 209.06 30.7444C204.247 30.577 204.222 31.3303 199.409 31.1629C198.806 31.1462 198.488 31.2801 198.488 31.8828C198.488 36.0344 198.061 36.0344 198.061 40.1861C198.061 44.3378 198.078 44.3378 198.028 48.4894C197.902 49.904 198.764 51.5613 200.229 52.323C204.582 54.5746 204.808 54.131 209.152 56.3826C213.496 58.6342 213.195 59.2285 217.539 61.4801C220.441 62.9812 223.342 64.4795 226.244 65.975C230.597 68.2266 230.613 68.1931 234.966 70.4447C239.327 72.7047 244.675 72.688 249.187 70.746C253.64 68.8292 253.757 69.1055 258.21 67.1887C262.663 65.2719 262.554 65.0124 266.999 63.0956C271.452 61.1788 271.477 61.229 275.93 59.3122C280.383 57.3954 280.207 56.9853 284.66 55.0685C286.083 54.4575 287.138 53.3944 287.205 52.0719C287.238 47.778 286.811 47.778 286.811 43.484C286.811 39.19 287.054 39.19 287.054 34.8961C287.054 34.3269 286.577 33.4815 286.008 33.4648L285.999 33.4564Z" fill="white"/>
</mask>
<g mask="url(#mask2_3822_39703)">
<path d="M196.295 -10.243C199.635 -9.37254 202.983 -8.56899 205.93 -7.03722C208.968 -5.46361 211.488 -3.09482 214.024 -0.92691C216.61 1.27448 219.213 3.48423 221.222 6.17947C223.239 8.88307 224.612 12.0219 225.985 15.1022C227.349 18.1741 228.111 21.4134 228.772 24.7448C229.417 28.0259 229.978 31.3071 229.869 34.7305C229.76 38.0368 229.233 41.3431 228.362 44.6828C227.492 48.0226 226.663 51.3288 225.139 54.2668C223.566 57.3052 221.289 59.8498 219.121 62.3944C216.92 64.9808 214.61 67.4333 211.923 69.4421C209.219 71.4594 206.331 73.259 203.251 74.6317C200.179 75.9961 196.84 76.5569 193.508 77.2098C190.227 77.8543 186.921 78.9508 183.506 78.842C180.199 78.7332 176.818 78.005 173.478 77.1344C170.138 76.2639 166.882 75.159 163.944 73.6357C160.906 72.062 158.261 69.869 155.716 67.7011C153.13 65.4997 150.962 62.9133 148.953 60.2264C146.944 57.5396 145.119 54.6853 143.747 51.5967C142.382 48.5248 141.361 45.3106 140.708 41.9792C140.064 38.6981 139.578 35.3332 139.687 31.9181C139.796 28.6119 140.633 25.3223 141.512 21.9826C142.382 18.6428 143.68 15.5877 145.203 12.6497C146.777 9.61129 148.334 6.61472 150.493 4.07015C152.695 1.48373 155.273 -0.709282 157.968 -2.71815C160.671 -4.73539 163.668 -6.25042 166.748 -7.62315C169.82 -8.9875 172.85 -10.6532 176.182 -11.3144C179.463 -11.959 182.903 -11.733 186.318 -11.6241C189.624 -11.5153 192.964 -11.1219 196.304 -10.2514L196.295 -10.243Z" fill="#FFCD6E"/>
</g>
<path d="M200.129 52.4819C204.532 54.7587 204.64 54.5494 209.052 56.8261C213.454 59.1028 213.563 58.8852 217.966 61.1703C222.369 63.4554 222.335 63.5224 226.738 65.8074C231.141 68.0925 231.325 67.741 235.728 70.0261C239.812 72.1438 244.282 72.3028 248.509 70.4864C253.021 68.5445 253.138 68.8291 257.65 66.8872C262.161 64.9453 262.036 64.6523 266.539 62.7104C271.05 60.7685 271.26 61.2456 275.771 59.3037C280.283 57.3618 280.191 57.1358 284.702 55.1939" stroke="#80949C" stroke-width="1.33329" stroke-linecap="round" stroke-linejoin="round"/>
<path d="M242.324 52.3144C240.131 52.3144 238.046 51.8122 236.121 50.8162C233.878 49.6527 232.698 49.1505 231.551 48.6566C230.396 48.1628 229.308 47.694 227.148 46.5724C225.031 45.4759 224.093 44.7812 223.097 44.0446C222.068 43.2829 220.996 42.4961 218.711 41.3159L209.906 36.7457C207.637 35.5739 206.415 35.1051 205.235 34.6615C204.071 34.2179 202.967 33.7994 200.832 32.6945C199.995 32.2592 199.518 31.4389 199.551 30.4931C199.577 29.7063 200.003 28.7019 201.1 28.2247C203.36 27.2454 204.49 26.7516 205.612 26.241C206.725 25.7388 207.846 25.2449 210.09 24.274C212.391 23.2863 213.521 22.6836 214.61 22.1061C215.706 21.5285 216.744 20.9761 218.954 20.0302C221.205 19.0593 222.335 18.5822 223.457 18.1134C224.595 17.6363 225.725 17.1592 227.994 16.1799C230.22 15.2257 231.325 14.8155 232.489 14.3803C233.635 13.9534 234.832 13.5181 237.117 12.5304C239.109 11.6767 241.269 11.2163 243.37 11.2163C245.471 11.2163 247.597 11.7018 249.363 12.6141C251.556 13.7525 252.653 14.3217 253.749 14.8992C254.854 15.4768 255.951 16.0543 258.16 17.1927C260.353 18.3311 261.45 18.9086 262.538 19.4862C263.634 20.0721 264.739 20.6496 266.941 21.788C269.117 22.918 270.147 23.5123 271.235 24.1484C272.306 24.7678 273.411 25.4123 275.637 26.5674C277.814 27.6974 278.843 28.2917 279.931 28.9278C281.003 29.5473 282.108 30.1918 284.334 31.3469C285.406 31.8993 285.757 32.9456 285.732 33.7408C285.699 34.6866 285.163 35.4734 284.309 35.8417C282.074 36.8043 280.944 37.2814 279.823 37.7585C278.684 38.244 277.554 38.7211 275.278 39.7004C273.068 40.6546 271.954 41.0313 270.783 41.4414C269.619 41.8432 268.414 42.2617 266.112 43.2494C263.819 44.2371 262.68 44.823 261.592 45.3838C260.487 45.953 259.441 46.4887 257.223 47.4429C254.996 48.4055 253.891 48.8073 252.72 49.2425C251.573 49.6694 250.376 50.1047 248.091 51.0924C246.224 51.8959 244.274 52.3061 242.307 52.3061L242.324 52.3144Z" fill="white"/>
<path d="M243.37 12.4803C245.329 12.4803 247.195 12.9156 248.785 13.7359C250.987 14.8742 252.083 15.4518 253.18 16.021C254.276 16.5985 255.381 17.1761 257.583 18.3144C259.776 19.4528 260.864 20.0303 261.96 20.6079C263.057 21.1854 264.162 21.7714 266.371 22.9181C268.523 24.0313 269.535 24.6256 270.615 25.245C271.695 25.8728 272.817 26.5257 275.077 27.6891C277.219 28.8024 278.241 29.3967 279.312 30.0161C280.392 30.6439 281.513 31.2967 283.773 32.4686C284.468 32.8285 284.501 33.5065 284.493 33.699C284.485 34.0255 284.359 34.4607 283.832 34.6867C281.58 35.6577 280.459 36.1348 279.329 36.6119C278.19 37.089 277.06 37.5745 274.8 38.5454C272.632 39.4829 271.544 39.8512 270.398 40.253C269.209 40.6631 267.979 41.0816 265.643 42.0944C263.308 43.0989 262.153 43.6931 261.04 44.2707C259.951 44.8315 258.93 45.3588 256.754 46.2963C254.561 47.2422 253.473 47.6439 252.318 48.0708C251.154 48.4977 249.949 48.9413 247.63 49.9458C245.923 50.6823 244.14 51.059 242.34 51.059C240.348 51.059 238.457 50.5986 236.715 49.703C234.43 48.5228 233.233 48.0038 232.07 47.5016C230.94 47.0162 229.869 46.5558 227.751 45.4593C225.725 44.413 224.821 43.7434 223.867 43.0403C222.796 42.2535 221.691 41.4332 219.314 40.2027C217.112 39.0644 216.016 38.4952 214.911 37.9176C213.806 37.3485 212.709 36.7709 210.5 35.6326C208.164 34.4272 206.909 33.9501 205.695 33.4898C204.565 33.0629 203.494 32.6527 201.418 31.5813C200.899 31.3135 200.807 30.8615 200.815 30.535C200.815 30.3425 200.899 29.6813 201.61 29.3799C203.879 28.4006 205.026 27.89 206.139 27.3962C207.235 26.9107 208.365 26.4001 210.609 25.4375C212.952 24.4247 214.107 23.8137 215.221 23.2278C216.292 22.6586 217.313 22.1229 219.473 21.1938C221.716 20.2228 222.846 19.7541 223.968 19.277C225.106 18.7999 226.244 18.3228 228.513 17.3435C230.706 16.3976 231.794 15.9958 232.949 15.569C234.112 15.1421 235.318 14.6901 237.636 13.694C239.469 12.9072 241.461 12.4887 243.395 12.4887M243.395 9.97761C241.093 9.97761 238.766 10.4715 236.649 11.3922C232.137 13.3341 232.037 13.0997 227.525 15.0416C223.013 16.9835 222.997 16.9501 218.485 18.892C213.973 20.8339 214.132 21.1938 209.621 23.1357C205.109 25.0776 205.134 25.1362 200.623 27.0781C197.735 28.3253 197.476 32.3681 200.271 33.8162C204.674 36.1013 204.942 35.5907 209.345 37.8674C212.28 39.3908 215.215 40.9142 218.15 42.4376C222.553 44.7143 222.193 45.4174 226.596 47.6941C230.999 49.9709 231.166 49.6612 235.569 51.9379C237.703 53.0428 240.022 53.5785 242.349 53.5785C244.475 53.5785 246.618 53.1348 248.626 52.2643C253.138 50.3224 253.247 50.5652 257.758 48.6149C262.27 46.673 262.136 46.3633 266.648 44.413C271.159 42.4711 271.302 42.8059 275.813 40.864C280.325 38.9221 280.333 38.9472 284.845 37.0053C287.732 35.7581 287.741 31.6901 284.953 30.2421C280.551 27.957 280.66 27.7394 276.257 25.4627C271.854 23.1776 271.963 22.9683 267.552 20.6832C263.149 18.4065 263.166 18.3646 258.763 16.0879C254.36 13.8112 254.368 13.7861 249.966 11.5094C247.932 10.4547 245.672 9.96924 243.395 9.96924V9.97761Z" fill="#D5E1E6"/>
<path d="M280.709 45.8861C281.471 45.5261 282.308 45.9698 282.576 46.8738C282.843 47.7777 282.425 48.7906 281.663 49.1505C280.902 49.5104 280.081 49.0751 279.822 48.1711C279.562 47.2672 279.947 46.2376 280.717 45.8777L280.709 45.8861Z" fill="#FCBA44"/>
<path d="M280.709 45.8861C281.471 45.5261 282.308 45.9698 282.576 46.8738C282.843 47.7777 282.425 48.7906 281.663 49.1505C280.902 49.5104 280.081 49.0751 279.822 48.1711C279.562 47.2672 279.947 46.2376 280.717 45.8777L280.709 45.8861Z" stroke="white" stroke-width="1.33329" stroke-miterlimit="10"/>
<path d="M242.691 71.9848C242.691 68.8599 242.691 65.7377 242.691 62.6184" stroke="#80949C" stroke-width="1.33329" stroke-linecap="round" stroke-linejoin="round"/>
<path d="M258.888 93.6552C258.888 87.7793 258.854 87.7793 258.854 81.9033" stroke="#80949C" stroke-width="1.33329" stroke-linecap="round" stroke-linejoin="round"/>
<path d="M248.961 115.577C248.961 111.214 248.961 106.853 248.961 102.495" stroke="#80949C" stroke-width="1.33329" stroke-linecap="round" stroke-linejoin="round"/>
<path d="M227.575 99.0625C226.186 101.456 223.164 101.825 220.77 99.8745C218.376 97.9242 217.506 94.3919 218.895 92.0064C220.285 89.6209 223.39 89.2777 225.784 91.228C228.178 93.1782 228.965 96.677 227.575 99.0709V99.0625Z" fill="#80949C"/>
<path d="M223.348 95.6474C221.523 97.1959 219.916 98.937 218.602 100.937C216.794 103.691 214.911 106.621 213.747 109.701C212.475 113.049 211.989 116.481 212.199 119.545C212.425 122.926 213.63 126.023 216.618 128.174C219.079 129.949 223.13 129.329 226.052 126.844C228.295 124.927 229.642 121.872 229.433 117.787C229.299 115.05 228.881 111.693 226.763 108.094C225.298 105.608 223.247 102.871 220.552 100.017C218.493 97.8237 215.731 95.8232 212.826 93.4293C210.441 91.4623 207.871 89.2777 204.85 87.1767C202.263 85.3771 199.409 83.5775 196.312 81.6942C192.16 79.158 188.753 76.6971 186.301 74.2028C180.835 68.6616 181.279 69.8167 179.103 63.9575" stroke="#60747B" stroke-width="2" stroke-miterlimit="10" stroke-linecap="round"/>
<path d="M154.226 156.742C150.716 158.539 147.215 160.35 143.722 162.174C138.482 164.912 138.54 165.029 133.301 167.757C128.061 170.495 128.027 170.436 122.787 173.173C117.548 175.91 117.631 176.078 112.392 178.815C107.152 181.552 107.11 181.468 101.862 184.205C96.6136 186.942 96.5215 186.766 91.2817 189.503C86.0335 192.241 86.067 192.299 80.8188 195.028C80.5426 195.145 80.2915 195.363 79.9902 195.354C78.6174 195.312 74.5244 195.237 73.2102 195.179C72.9424 195.17 72.7164 194.894 72.4736 194.777C67.3929 192.358 67.4431 192.257 62.3707 189.838C57.2983 187.419 57.156 187.712 52.0836 185.293C47.0028 182.874 47.1451 182.59 42.0644 180.179C36.9836 177.768 36.9836 177.768 31.9028 175.349C26.8221 172.93 26.7216 173.156 21.6409 170.737C16.5601 168.318 16.6605 168.109 11.5798 165.69C6.49899 163.271 6.49899 163.271 1.41822 160.852C-0.121911 160.115 -0.138652 158.09 1.41822 157.403C6.93425 154.599 6.96773 154.675 12.4586 151.829C17.9496 148.983 17.9496 148.983 23.4405 146.137C28.9314 143.291 28.8644 143.157 34.3553 140.311C39.8462 137.465 39.9383 137.633 45.4292 134.787C50.9201 131.941 50.7946 131.698 56.2855 128.852C61.7764 126.006 61.7262 125.906 67.2255 123.06C72.7247 120.214 72.8503 120.465 78.3496 117.619C78.3663 117.619 78.2659 117.695 78.2659 117.711C83.6898 120.264 83.8154 119.988 89.2477 122.533C94.68 125.077 94.6214 125.178 100.054 127.722C105.486 130.267 105.411 130.418 110.835 132.962C114.456 134.659 118.075 136.352 121.691 138.043C127.115 140.587 127.157 140.504 132.581 143.048C138.013 145.593 138.088 145.434 143.521 147.978C148.953 150.523 148.978 150.464 154.41 153.009C155.959 153.737 155.817 156.073 154.251 156.759L154.226 156.742Z" fill="#ECE6F3"/>
<path d="M70.9835 77.827C76.1731 75.3159 76.2819 75.5335 81.4213 72.8969C84.8419 71.1447 88.2654 69.3925 91.6916 67.6403C96.8226 65.0121 96.7054 64.7693 101.836 62.1411C106.967 59.5128 107.026 59.6216 112.165 56.9933C117.305 54.3651 117.288 54.3399 122.419 51.7117C127.55 49.0834 127.466 48.916 132.606 46.2877C136.032 44.5355 139.458 42.7889 142.884 41.0479C148.015 38.4196 148.074 38.5285 153.205 35.9002C158.344 33.2719 158.261 33.1045 163.4 30.4762C168.539 27.848 168.514 27.7894 173.679 25.2281C174.013 25.2197 178.726 26.6175 183.263 28.1074C187.799 29.5974 192.478 31.4053 192.478 31.7402C192.478 37.9258 192.361 37.9258 192.361 44.1114C192.361 50.2971 192.244 50.2971 192.244 56.4911C192.244 62.6851 192.227 62.6768 192.227 68.8708C192.227 75.0648 192.344 75.0564 192.344 81.2504C192.344 87.4445 192.236 87.4361 192.236 93.6217C192.236 99.8074 192.294 99.8074 192.294 106.001C192.294 112.195 192.57 112.187 192.57 118.373C192.57 124.558 192.587 124.567 192.587 130.752C192.587 136.938 192.286 136.946 192.344 143.14C192.487 144.722 191.876 146.455 190.227 147.309C184.987 150.088 184.92 149.945 179.68 152.733C174.44 155.52 174.465 155.554 169.234 158.332C164.003 161.111 164.095 161.296 158.863 164.083C153.632 166.87 153.548 166.711 148.317 169.49C143.085 172.269 143.135 172.369 137.904 175.148C132.673 177.936 132.639 177.877 127.408 180.664C122.176 183.452 122.134 183.376 116.903 186.164C111.672 188.951 111.655 188.926 106.415 191.705C101.175 194.492 101.259 194.634 96.0107 197.405C91.1057 199.95 85.28 200.142 80.2076 197.957C76.3405 196.367 76.2735 196.518 72.3981 194.952C70.7994 194.266 70.0628 192.684 69.9874 191.194C69.954 184.975 69.7698 184.975 69.7698 178.748C69.7698 172.52 69.9121 172.528 69.9121 166.301C69.9121 160.073 69.9121 160.073 69.9121 153.854C69.9121 147.635 69.9791 147.627 69.9791 141.408C69.9791 135.189 69.954 135.189 69.9456 128.961C69.9372 122.734 70.0377 122.734 70.0377 116.514C70.0377 110.295 69.9121 110.295 69.9121 104.068C69.9121 97.8404 69.7363 97.8404 69.7363 91.6129C69.7363 85.3854 69.8703 85.3854 69.8703 79.1579C69.8703 78.5134 70.3474 77.8354 70.9835 77.8186V77.827Z" fill="#EAF0F3"/>
<path d="M87.9089 85.8375C85.6573 85.8375 83.4224 85.3687 81.288 84.448C79.1452 83.5691 78.0403 83.2092 76.9605 82.8576C75.8891 82.5061 74.8847 82.1796 72.8758 81.3593C71.6203 80.8153 71.1264 79.5848 71.0929 78.6055C71.0511 77.3751 71.6286 76.3288 72.6498 75.8015C75.2362 74.4371 76.5922 73.8093 77.898 73.2067C79.254 72.5789 80.6602 71.9344 83.3471 70.5031C86.0004 69.0885 87.3229 68.3184 88.5952 67.5735C89.8508 66.8369 91.1482 66.0752 93.7597 64.6857C96.3712 63.2962 97.7188 62.6434 99.033 62.0156C100.364 61.3711 101.737 60.7098 104.39 59.2952C107.043 57.8807 108.366 57.1106 109.638 56.3656C110.894 55.6291 112.191 54.8757 114.803 53.4863C117.414 52.0968 118.77 51.4272 120.068 50.7743C121.39 50.1214 122.754 49.4434 125.399 48.0372C128.011 46.6477 129.333 45.9614 130.648 45.275C131.978 44.5803 133.301 43.8939 135.946 42.4793C138.608 41.0648 139.922 40.2779 141.194 39.5163C142.441 38.7713 143.73 38.0012 146.334 36.6201C148.928 35.239 150.234 34.6531 151.615 34.0253C152.971 33.4143 154.369 32.7782 157.039 31.3636C159.5 30.0578 160.806 29.338 162.036 28.6684C163.434 27.9067 164.731 27.1952 167.535 25.722C169.929 24.4832 172.574 23.8303 175.178 23.8303C177.27 23.8303 179.287 24.2405 181.171 25.0524C183.205 25.8894 184.217 26.3498 185.197 26.7934C186.218 27.2538 187.273 27.7309 189.39 28.6014C190.671 29.1538 191.165 30.3257 191.198 31.2297C191.24 32.3429 190.663 33.3055 189.667 33.8245C187.122 35.1721 185.799 35.8417 184.519 36.4946C183.121 37.206 181.798 37.8757 179.07 39.3321C176.45 40.7299 175.102 41.4079 173.796 42.0608C172.482 42.7221 171.118 43.4084 168.473 44.8146C165.811 46.2292 164.497 47.016 163.225 47.7777C161.978 48.5227 160.689 49.2928 158.094 50.6739C155.499 52.0549 154.135 52.6911 152.812 53.2938C151.464 53.9215 150.075 54.566 147.413 55.9806C144.768 57.3868 143.446 58.1318 142.165 58.86C140.893 59.5798 139.579 60.3164 136.967 61.7059C134.347 63.1037 133.025 63.7734 131.702 64.443C130.371 65.121 129.04 65.799 126.395 67.2052C123.734 68.6198 122.42 69.4066 121.147 70.1766C119.908 70.9216 118.619 71.7 116.016 73.0811C113.413 74.4706 112.057 75.1151 110.743 75.7429C109.404 76.379 108.031 77.0403 105.369 78.4549C102.808 79.8192 101.502 80.5558 100.238 81.2673C98.8907 82.029 97.6184 82.7488 94.9148 84.1718C92.7636 85.285 90.4032 85.8542 87.9172 85.8542L87.9089 85.8375Z" fill="white"/>
<path d="M175.169 25.0774C177.086 25.0774 178.935 25.4541 180.66 26.199H180.676L180.693 26.2157C182.685 27.036 183.69 27.488 184.661 27.9317C185.682 28.4004 186.745 28.8775 188.871 29.748C189.817 30.1665 189.917 31.0203 189.926 31.2714C189.942 31.6397 189.842 32.3093 189.055 32.7195C186.536 34.0503 185.213 34.72 183.941 35.3728C182.535 36.0843 181.212 36.7623 178.467 38.2187C175.863 39.6082 174.516 40.2778 173.218 40.9307C171.896 41.592 170.532 42.2867 167.87 43.7013C165.183 45.1326 163.86 45.9278 162.571 46.6895C161.282 47.4596 160.06 48.1878 157.491 49.5605C154.921 50.9249 153.632 51.5275 152.276 52.1553C150.912 52.7831 149.505 53.4359 146.81 54.8756C144.148 56.2902 142.818 57.0435 141.528 57.7717C140.265 58.4832 138.959 59.2198 136.356 60.6009C133.744 61.9904 132.405 62.6684 131.107 63.3296C129.793 63.9993 128.429 64.694 125.784 66.1002C123.097 67.5315 121.766 68.3267 120.486 69.1051C119.197 69.8752 117.983 70.6118 115.413 71.9761C112.835 73.3489 111.546 73.9599 110.19 74.6128C108.842 75.2573 107.453 75.9185 104.775 77.3499C102.205 78.7142 100.891 79.4592 99.6184 80.1707C98.2792 80.924 97.0069 81.6438 94.3368 83.05C92.353 84.0796 90.1851 84.5985 87.9084 84.5985C85.8242 84.5985 83.7651 84.1633 81.7813 83.3095H81.7646L81.7479 83.2928C79.58 82.4055 78.45 82.0372 77.3535 81.6773C76.3155 81.3341 75.3278 81.0161 73.3776 80.2209C72.4652 79.8191 72.3564 78.8565 72.348 78.5719C72.3397 78.2957 72.3731 77.3666 73.2436 76.9146C75.7882 75.567 77.0689 74.9811 78.4249 74.3533C79.7976 73.7172 81.2122 73.0643 83.9409 71.6162C86.6194 70.1933 87.9502 69.4148 89.2393 68.6531C90.5367 67.8914 91.7671 67.1716 94.3535 65.7905C96.9399 64.4178 98.2206 63.7984 99.585 63.1371C100.924 62.4926 102.314 61.823 104.992 60.4C107.671 58.9771 109.002 58.1986 110.282 57.4453C111.588 56.6836 112.818 55.9638 115.405 54.591C118 53.2099 119.289 52.5738 120.645 51.9042C121.975 51.2429 123.348 50.5649 126.01 49.1504C128.63 47.7525 129.952 47.0661 131.267 46.3798C132.589 45.685 133.912 44.9987 136.548 43.5925C139.235 42.1612 140.566 41.366 141.847 40.5959C143.136 39.8258 144.349 39.0976 146.927 37.7249C149.489 36.3605 150.769 35.783 152.134 35.1636C153.506 34.5442 154.929 33.8997 157.633 32.46C160.094 31.1542 161.383 30.4427 162.63 29.7648C164.011 29.0114 165.317 28.3 168.104 26.8268C170.331 25.6717 172.775 25.069 175.177 25.069M175.177 22.5579C172.356 22.5579 169.527 23.261 166.949 24.6003C161.676 27.3792 161.718 27.4462 156.453 30.2419C151.188 33.0375 151.012 32.7027 145.747 35.4984C140.482 38.2941 140.625 38.5619 135.368 41.3576C130.111 44.1533 130.086 44.1198 124.83 46.9155C119.573 49.7112 119.49 49.5605 114.233 52.3645C108.968 55.1602 109.077 55.3695 103.82 58.1735C98.5554 60.9692 98.4466 60.7683 93.1901 63.564C87.9251 66.368 88.0423 66.5857 82.7774 69.3813C77.5125 72.177 77.3618 71.8924 72.0885 74.6797C68.9497 76.3036 69.1757 81.1165 72.415 82.5143C76.5499 84.2051 76.6755 83.8954 80.802 85.5946C83.0871 86.5739 85.5061 87.0845 87.9251 87.0845C90.5367 87.0845 93.1315 86.4902 95.5086 85.2514C100.782 82.4725 100.707 82.3302 105.963 79.5345C111.22 76.7388 111.345 76.9648 116.61 74.1692C121.875 71.3735 121.724 71.0889 126.981 68.2932C132.237 65.4975 132.288 65.5896 137.553 62.7939C142.809 59.9982 142.742 59.8643 148.007 57.0686C153.272 54.273 153.423 54.5576 158.688 51.7619C163.953 48.9662 163.81 48.6984 169.067 45.9027C174.332 43.0986 174.399 43.2242 179.655 40.4201C184.92 37.6161 184.97 37.7082 190.244 34.9209C193.382 33.297 193.115 28.8189 189.867 27.4211C185.732 25.7303 185.799 25.5796 181.664 23.8804C179.58 22.9848 177.378 22.5496 175.177 22.5496V22.5579Z" fill="#D5E1E6"/>
<path d="M190.092 147.074C184.836 149.87 184.945 150.088 179.688 152.892C174.423 155.687 174.381 155.604 169.125 158.408C163.868 161.212 163.893 161.253 158.628 164.058C153.372 166.853 153.456 167.021 148.199 169.816C142.942 172.612 142.875 172.495 137.611 175.29C132.346 178.086 132.27 177.944 127.005 180.748C123.501 182.612 119.997 184.484 116.492 186.364C111.227 189.168 111.294 189.294 106.029 192.098C100.765 194.902 100.806 194.977 95.5331 197.756C90.9462 200.133 85.4887 200.167 80.7428 198.125C76.6162 196.425 76.6497 196.342 72.498 194.684" stroke="#80949C" stroke-width="1.33329" stroke-linecap="round" stroke-linejoin="round"/>
<path d="M87.2803 198.928C87.2803 192.701 87.5732 192.701 87.5732 186.465C87.5732 180.229 87.3305 180.237 87.3305 174.002C87.3305 167.766 87.6318 167.766 87.6318 161.538C87.6318 155.311 87.3138 155.311 87.3138 149.075C87.3138 142.839 87.59 142.839 87.59 136.603C87.59 130.367 87.4979 130.367 87.4979 124.131" stroke="#80949C" stroke-width="1.33329" stroke-linecap="round" stroke-linejoin="round"/>
<path d="M186.058 142.429C180.575 145.3 180.45 145.057 174.993 147.962C169.535 150.866 169.644 151.076 164.178 153.98C158.712 156.885 158.762 156.968 153.305 159.873C147.848 162.777 147.781 162.66 142.323 165.565C136.866 168.469 136.807 168.369 131.341 171.273C125.876 174.178 125.993 174.378 120.527 177.283C115.061 180.187 115.044 180.154 109.579 183.058C104.113 185.963 104.088 185.913 98.5885 188.759C96.6549 189.596 94.5875 188.231 94.5875 186.122C94.5875 180.405 94.6293 180.405 94.6293 174.688C94.6293 168.971 94.6293 168.971 94.6293 163.254C94.6293 157.537 94.4452 157.537 94.4452 151.821C94.4452 146.104 94.6879 146.104 94.6879 140.387C94.6879 134.67 94.6628 134.67 94.6628 128.953C94.6628 123.236 94.4033 123.236 94.4033 117.519C94.4033 111.802 94.7214 111.802 94.7214 106.077C94.7214 100.352 94.4117 100.36 94.4117 94.6347C94.4117 93.4712 95.2738 92.5254 96.3452 92.0566C101.828 89.1856 101.727 89.0098 107.193 86.1053C112.659 83.2008 112.651 83.2008 118.116 80.2963C123.574 77.3919 123.624 77.4839 129.081 74.5794C134.539 71.6749 134.489 71.5745 139.946 68.67C145.404 65.7655 145.496 65.9329 150.961 63.0284C156.427 60.1239 156.31 59.9147 161.776 57.0102C167.242 54.1057 167.367 54.3401 172.833 51.4356C178.299 48.5311 178.215 48.3721 183.714 45.5262C185.648 44.6891 187.607 46.0535 187.607 48.1628C187.607 53.8797 187.774 53.8797 187.774 59.5966C187.774 65.3135 187.774 65.3135 187.774 71.0304C187.774 76.7473 187.849 76.7473 187.849 82.4643C187.849 88.1812 187.849 88.1812 187.849 93.8981C187.849 99.615 187.648 99.615 187.648 105.332C187.648 111.049 187.573 111.049 187.573 116.766C187.573 122.483 187.59 122.483 187.59 128.208C187.59 133.933 187.69 133.925 187.69 139.65C187.69 140.814 187.146 141.977 186.075 142.446L186.058 142.429Z" fill="#3F535A"/>
<path d="M184.51 137.667C184.569 138.73 183.916 139.491 183.598 139.801C183.355 140.035 183.12 140.32 182.802 140.462C177.362 143.342 177.345 143.308 171.904 146.196C166.472 149.084 166.43 149.017 160.998 151.913C155.565 154.8 155.532 154.742 150.1 157.63C144.667 160.517 144.776 160.735 139.344 163.623C133.903 166.511 133.778 166.268 128.337 169.164C122.896 172.06 123.072 172.378 117.64 175.266C112.207 178.154 112.132 178.028 106.691 180.924C101.251 183.82 101.267 183.854 95.8267 186.742C95.1906 187.076 95.0734 187.796 95.6091 188.282C95.6844 188.349 95.7681 188.407 95.8602 188.483C96.8646 189.328 98.229 188.951 98.547 188.842C98.5889 188.826 98.547 188.642 98.5805 188.625C104.038 185.72 104.205 186.038 109.663 183.134C115.12 180.229 115.037 180.07 120.494 177.166C125.951 174.261 125.859 174.094 131.317 171.198C136.774 168.293 136.916 168.57 142.374 165.665C147.831 162.761 147.731 162.568 153.188 159.664C158.646 156.759 158.738 156.935 164.195 154.039C169.653 151.143 169.678 151.168 175.135 148.263C180.593 145.359 180.618 145.401 186.075 142.496C186.1 142.488 186.058 142.354 186.075 142.337C186.837 141.986 187.691 141.525 187.691 139.115C186.996 137.457 186.259 137.943 184.485 137.683L184.51 137.667Z" fill="#D5E1E6"/>
<path d="M187.641 139.642C187.641 133.925 187.867 135.172 187.867 128.208C187.867 124.893 187.883 121.01 187.883 116.774C187.883 113.175 187.909 109.316 187.909 105.34C187.909 101.599 187.9 97.7485 187.9 93.9066C187.9 90.0646 187.816 86.2059 187.816 82.4644C187.816 78.4885 187.741 74.6298 187.741 71.0305C187.741 66.7952 187.984 62.9114 187.984 59.5884C187.984 52.7164 187.624 48.2717 187.624 48.1545C187.624 47.6272 187.632 46.74 186.661 45.9029C185.716 45.091 184.577 45.1329 184.519 45.1412C184.519 45.1412 184.678 45.2417 184.678 45.25C184.678 51.0256 184.602 51.0255 184.602 56.8011C184.602 62.5766 184.527 62.5766 184.527 68.3521C184.527 74.1276 184.544 74.1276 184.544 79.9031C184.544 85.6786 184.401 85.6786 184.401 91.4541C184.401 97.2296 184.627 97.2296 184.627 103.013C184.627 108.797 184.477 108.789 184.477 114.564C184.477 120.34 184.477 120.348 184.477 126.124C184.477 131.899 184.477 131.908 184.477 137.683C184.477 137.968 184.544 138.261 184.46 138.529C184.318 138.997 184.477 139.483 184.904 139.726C185.59 140.111 185.531 140.219 186.218 140.604C186.896 140.981 187.699 140.412 187.699 139.633C187.691 139.567 187.657 139.617 187.657 139.617L187.641 139.642Z" fill="#ABBBC1"/>
<path d="M171.185 139.667C165.911 142.387 165.769 142.128 160.513 144.881C155.256 147.635 155.348 147.819 150.083 150.573C144.827 153.327 144.81 153.302 139.553 156.056C134.288 158.81 134.263 158.768 129.007 161.522C123.75 164.275 123.75 164.284 118.452 166.979C116.585 167.791 114.367 166.51 114.367 164.476C114.367 161.764 114.509 161.764 114.509 159.052C114.509 157.922 115.305 157.077 116.343 156.633C121.616 153.913 121.574 153.813 126.831 151.059C132.087 148.305 132.037 148.196 137.293 145.434C142.55 142.68 142.609 142.789 147.865 140.035C153.122 137.281 153.013 137.064 158.278 134.301C163.543 131.539 163.618 131.698 168.908 128.995C170.775 128.183 173.009 129.455 173.009 131.489C173.009 134.201 172.884 134.201 172.884 136.913C172.884 138.043 172.223 139.215 171.193 139.658L171.185 139.667Z" fill="#60747B"/>
<path d="M169.092 73.3572C164.078 75.9352 164.17 76.1026 159.173 78.7225C154.176 81.3341 154.034 81.0578 149.045 83.6694C144.056 86.2809 144.182 86.5404 139.185 89.1603C134.188 91.7802 134.238 91.8723 129.207 94.4336C127.341 95.2455 125.29 93.7556 125.29 91.7216C125.29 89.0096 125.332 89.0096 125.332 86.2976C125.332 85.1677 125.943 84.2888 126.972 83.8451C131.986 81.2671 131.852 81.0076 136.849 78.3961C141.846 75.7846 141.813 75.7343 146.81 73.1228C151.807 70.5113 151.832 70.5448 156.821 67.9332C161.81 65.3217 161.751 65.1794 166.773 62.6181C168.64 61.8062 170.816 63.3547 170.816 65.3887C170.816 68.1006 170.992 68.1006 170.992 70.8126C170.992 71.9426 170.121 72.9219 169.083 73.3655L169.092 73.3572Z" fill="#60747B"/>
<path d="M158.411 112.899C153.397 115.477 153.473 115.619 148.476 118.23C143.479 120.842 143.445 120.775 138.456 123.395C133.459 126.006 133.526 126.132 128.529 128.744C123.532 131.355 123.507 131.313 118.485 133.866C116.618 134.678 114.434 133.356 114.434 131.322C114.434 128.61 114.676 128.61 114.676 125.898C114.676 124.768 115.279 123.864 116.309 123.412C121.322 120.834 121.23 120.649 126.227 118.038C129.559 116.297 132.887 114.553 136.213 112.807C141.21 110.195 141.26 110.279 146.249 107.667C151.238 105.056 151.112 104.796 156.143 102.243C158.009 101.431 160.219 102.946 160.219 104.98C160.219 107.692 159.968 107.692 159.968 110.404C159.968 111.534 159.449 112.455 158.411 112.899Z" fill="#60747B"/>
<path d="M146.677 103.356C141.981 105.775 141.939 105.708 137.26 108.161C132.581 110.613 132.631 110.714 127.944 113.166C123.256 115.619 123.223 115.56 118.51 117.954C116.644 118.766 114.643 117.36 114.643 115.326C114.643 112.614 114.543 112.614 114.543 109.902C114.543 108.772 115.146 107.634 116.175 107.182C120.871 104.763 120.829 104.679 125.508 102.226C130.187 99.7739 130.329 100.033 135.008 97.5809C139.687 95.1284 139.587 94.9192 144.299 92.5169C146.166 91.705 148.275 93.1363 148.275 95.1703C148.275 97.8822 148.292 97.8822 148.292 100.594C148.292 101.724 147.706 102.904 146.668 103.348L146.677 103.356Z" fill="#F16341"/>
<path d="M145.396 135.908C138.431 139.499 138.524 139.683 131.543 143.249C129.676 144.061 127.617 142.672 127.617 140.638C127.617 137.926 127.575 137.926 127.575 135.214C127.575 134.084 128.278 133.129 129.316 132.677C136.28 129.087 136.205 128.936 143.177 125.37C145.044 124.558 147.061 125.931 147.061 127.965C147.061 130.677 147.153 130.677 147.153 133.389C147.153 134.519 146.425 135.456 145.396 135.908Z" fill="#F16341"/>
<path d="M167.77 124.517C160.806 128.107 160.848 128.191 153.875 131.757C152.009 132.569 149.975 131.364 149.975 129.33C149.975 126.618 149.841 126.618 149.841 123.906C149.841 122.776 150.753 121.913 151.783 121.47C158.747 117.879 158.638 117.67 165.619 114.104C167.485 113.292 169.712 114.631 169.712 116.665C169.712 119.377 169.344 119.377 169.344 122.089C169.344 123.219 168.8 124.073 167.77 124.525V124.517Z" fill="#FCBA44"/>
<path d="M160.713 96.074C157.993 97.4551 158.118 97.6979 155.381 99.0622C153.515 99.8741 151.472 98.5014 151.472 96.4674C151.472 93.7554 151.347 93.7554 151.347 91.0435C151.347 89.9135 152.05 88.8002 153.079 88.3482C155.8 86.9671 155.892 87.1513 158.629 85.7953C160.495 84.9834 162.621 86.1971 162.621 88.2311C162.621 90.943 162.488 90.943 162.488 93.655C162.488 94.785 161.751 95.6304 160.713 96.0824V96.074Z" fill="#60747B"/>
<path d="M123.868 147.451C121.147 148.832 121.265 149.058 118.528 150.423C116.661 151.234 114.568 149.811 114.568 147.778C114.568 145.066 114.51 145.066 114.51 142.354C114.51 141.224 115.313 140.378 116.343 139.926C119.063 138.545 118.921 138.252 121.65 136.896C123.516 136.084 125.475 137.507 125.475 139.541C125.475 142.253 125.6 142.253 125.6 144.965C125.6 146.095 124.906 147.007 123.868 147.459V147.451Z" fill="#60747B"/>
<path d="M119.272 99.7655C112.308 103.356 112.467 103.658 105.486 107.223C103.62 108.035 101.443 106.629 101.443 104.595C101.443 101.883 101.569 101.883 101.569 99.1712C101.569 98.0412 102.264 97.1707 103.293 96.7187C110.257 93.1278 110.132 92.8851 117.113 89.3193C118.979 88.5074 121.105 89.8885 121.105 91.9225C121.105 94.6345 120.888 94.6345 120.888 97.3464C120.888 98.4764 120.302 99.3135 119.272 99.7571V99.7655Z" fill="#60747B"/>
<path d="M184.393 31.8992C184.393 34.494 179.806 36.7372 174.19 36.7372C168.573 36.7372 164.087 34.5024 164.087 31.8992C164.087 29.296 168.573 27.0444 174.19 27.0444C179.806 27.0444 184.393 29.3044 184.393 31.8992Z" fill="#80949C"/>
<path d="M182.635 31.3384C182.635 33.6654 178.4 34.7619 174.19 34.7619C169.98 34.7619 165.861 33.6654 165.861 31.3384C165.861 26.6845 169.536 22.8677 174.19 22.8677C178.844 22.8677 182.635 26.6845 182.635 31.3384Z" fill="#253135"/>
<path d="M182.635 31.3384C182.635 33.6654 178.4 34.7619 174.19 34.7619C169.98 34.7619 165.861 33.6654 165.861 31.3384C165.861 26.6845 169.536 22.8677 174.19 22.8677C178.844 22.8677 182.635 26.6845 182.635 31.3384Z" stroke="#253135" stroke-width="1.33329" stroke-linecap="round" stroke-linejoin="round"/>
<path d="M173.047 23.847C173.047 24.3993 173.495 24.847 174.047 24.847C174.6 24.847 175.047 24.3993 175.047 23.847H173.047ZM171.595 11.618L172.507 11.2076L172.506 11.2073L171.595 11.618ZM163.283 2.52788L162.877 3.44169L162.877 3.44177L163.283 2.52788ZM150.887 2.01729L150.654 1.04478L150.653 1.045L150.887 2.01729ZM132.556 17.5777L131.664 17.1247L131.664 17.125L132.556 17.5777ZM129.643 29.4886L128.643 29.4821L128.643 29.4847L129.643 29.4886ZM175.047 23.847C175.047 19.427 174.231 15.0396 172.507 11.2076L170.683 12.0284C172.273 15.5623 173.047 19.6624 173.047 23.847H175.047ZM172.506 11.2073C170.658 7.104 167.895 3.48248 163.689 1.61398L162.877 3.44177C166.472 5.03857 168.949 8.18026 170.683 12.0288L172.506 11.2073ZM163.689 1.61407C160.117 0.0266517 155.762 -0.178484 150.654 1.04478L151.119 2.9898C155.938 1.8359 159.819 2.08276 162.877 3.44169L163.689 1.61407ZM150.653 1.045C146.555 2.03029 142.649 4.07671 139.372 7.00539L140.705 8.49649C143.74 5.78359 147.35 3.89598 151.12 2.98958L150.653 1.045ZM139.372 7.00539C136.115 9.91681 133.565 13.3841 131.664 17.1247L133.447 18.0306C135.246 14.4891 137.651 11.2266 140.705 8.49649L139.372 7.00539ZM131.664 17.125C129.633 21.1262 128.669 25.4396 128.643 29.4821L130.643 29.495C130.667 25.7532 131.561 21.7465 133.447 18.0303L131.664 17.125ZM128.643 29.4847C128.634 31.8273 129.43 34.2354 130.424 36.4407C131.42 38.6483 132.671 40.7672 133.626 42.4856L135.374 41.5144C134.384 39.7328 133.198 37.7263 132.248 35.6183C131.296 33.508 130.635 31.4103 130.643 29.4925L128.643 29.4847Z" fill="#60747B"/>
<path d="M195.626 34.5274L192.319 33.9917" stroke="#FCBA44" stroke-width="1.33329" stroke-miterlimit="10" stroke-linecap="round"/>
<path d="M198.095 22.4744L190.964 25.178" stroke="#FCBA44" stroke-width="1.33329" stroke-miterlimit="10" stroke-linecap="round"/>
<path d="M187.164 16.0542L185.39 18.2221" stroke="#FCBA44" stroke-width="1.33329" stroke-miterlimit="10" stroke-linecap="round"/>
<path d="M178.308 7.46631L177.077 14.9912" stroke="#FCBA44" stroke-width="1.33329" stroke-miterlimit="10" stroke-linecap="round"/>
<path d="M167.451 14.1792L168.271 16.3471" stroke="#FCBA44" stroke-width="1.33329" stroke-miterlimit="10" stroke-linecap="round"/>
<path d="M155.407 17.1006L161.317 21.9219" stroke="#FCBA44" stroke-width="1.33329" stroke-miterlimit="10" stroke-linecap="round"/>
<path d="M154.988 29.7312L158.085 30.2334" stroke="#FCBA44" stroke-width="1.33329" stroke-miterlimit="10" stroke-linecap="round"/>
</svg>
