<svg width="181" height="152" viewBox="0 0 181 152" fill="none" xmlns="http://www.w3.org/2000/svg">
<path d="M102.405 117.147C98.0434 119.07 97.898 118.739 93.5442 120.661C89.1904 122.583 89.2227 122.672 84.8608 124.595C80.4989 126.517 80.4343 126.364 76.0644 128.286C71.6944 130.209 71.8721 130.588 67.5102 132.511C63.1484 134.433 62.9383 133.965 58.5765 135.887C54.2146 137.81 54.3519 138.133 49.99 140.055C49.99 140.055 49.99 139.53 49.99 139.522C45.8867 137.592 45.7493 137.89 41.6379 135.968C37.5264 134.045 37.591 133.908 33.4876 131.986C29.3842 130.063 29.2954 130.241 25.192 128.31C21.0886 126.38 21.1451 126.259 17.0417 124.336C12.9383 122.414 12.8656 122.559 8.75418 120.637C4.64271 118.714 4.54578 118.916 0.442383 116.994L0.474693 116.428C4.83657 114.506 4.80426 114.433 9.15805 112.511C13.5118 110.588 13.5199 110.58 17.8818 108.658C22.2437 106.735 22.4941 107.309 26.856 105.386C31.2178 103.464 31.0078 102.995 35.3697 101.073C39.7316 99.1505 39.7477 99.1828 44.1177 97.2603C48.4876 95.3379 48.5845 95.5641 52.9464 93.6416C52.9464 93.6416 52.9464 93.6416 52.9464 93.6497C57.0498 95.5802 56.961 95.766 61.0644 97.6884C65.1677 99.6109 65.0708 99.8209 69.1823 101.743C73.2938 103.666 73.4149 103.407 77.5183 105.338C81.6217 107.268 81.7267 107.05 85.8301 108.973C89.9335 110.895 90.1193 110.508 94.2308 112.438C98.3422 114.369 98.2938 114.466 102.397 116.396C102.397 116.396 102.413 117.147 102.397 117.155L102.405 117.147Z" fill="#EDEBFC"/>
<path d="M109.013 85.2244C109.013 88.2777 109.013 91.3284 109.013 94.3763C109.013 98.9563 108.884 98.9563 108.884 103.536C108.884 108.116 108.884 108.116 108.884 112.696H109.005C112.801 114.481 112.745 114.602 116.549 116.38C120.354 118.157 120.419 118.019 124.223 119.804C128.028 121.59 128.003 121.638 131.8 123.423C131.8 123.423 131.961 123.391 131.961 123.383C131.961 118.803 131.872 118.803 131.872 114.231C131.872 109.659 131.824 109.651 131.824 105.071C131.824 100.491 131.759 100.491 131.759 95.911L131.889 95.7818C128.092 93.9966 127.963 94.2632 124.167 92.4861C120.37 90.7091 120.378 90.6687 116.582 88.8836C112.785 87.0984 112.801 87.058 108.997 85.2729C108.997 85.2729 109.029 85.2163 109.029 85.2244H109.013Z" fill="#ABBBC1"/>
<path d="M155.968 112.502C151.929 114.279 152.074 114.602 148.035 116.379C143.997 118.157 143.94 118.043 139.901 119.821C135.863 121.598 135.879 121.646 131.84 123.423L131.937 123.391C131.937 118.811 131.848 118.811 131.848 114.239C131.848 109.667 131.856 109.659 131.856 105.079C131.856 100.499 131.888 100.499 131.888 95.9191L131.808 95.8787C135.846 94.1016 135.766 93.9159 139.804 92.1307C143.843 90.3456 143.964 90.6202 148.003 88.8432C152.042 87.0661 151.969 86.8884 156.008 85.1113C156.008 85.1113 155.919 85.2325 155.919 85.2406C155.919 89.8205 156.234 89.8205 156.234 94.3924C156.234 98.9643 155.951 98.9724 155.951 103.552C155.951 108.132 156.178 108.132 156.178 112.712C156.178 112.712 155.976 112.494 155.976 112.502H155.968Z" fill="#D5E1E6"/>
<path d="M155.992 85.0791C151.953 86.8562 151.986 86.937 147.947 88.714C143.908 90.4911 143.892 90.4507 139.845 92.2358C135.798 94.021 135.822 94.0614 131.784 95.8384C131.784 95.8384 131.921 95.7092 131.921 95.7011C128.125 93.916 128.092 93.9806 124.288 92.2035C120.483 90.4265 120.314 90.7819 116.509 88.9967C112.704 87.2116 112.793 87.0258 108.989 85.2407L108.973 85.1599C113.011 83.3828 112.971 83.294 117.01 81.5169C121.049 79.7399 121.154 79.966 125.192 78.1809C129.231 76.3958 129.142 76.1858 133.181 74.4087L133.133 74.7883C136.929 76.5735 137.099 76.2261 140.895 78.0113C144.692 79.7964 144.546 80.1276 148.351 81.9127C152.155 83.6979 152.406 83.1648 156.21 84.9499L155.992 85.0791Z" fill="#EAF0F3"/>
<path d="M109.021 112.664C112.818 114.441 112.778 114.538 116.574 116.315C120.37 118.092 120.37 118.1 124.175 119.885C127.979 121.671 128.02 121.566 131.824 123.351C131.841 123.351 131.937 123.641 131.954 123.633C135.992 121.856 135.904 121.662 139.942 119.885C143.981 118.108 143.925 117.979 147.963 116.202C152.002 114.425 152.131 114.708 156.17 112.931" stroke="#80949C" stroke-width="1.33332" stroke-linecap="round" stroke-linejoin="round"/>
<path d="M131.816 123.399C131.816 120.111 131.833 120.111 131.833 116.824" stroke="#80949C" stroke-width="1.33332" stroke-linecap="round" stroke-linejoin="round"/>
<path d="M79.7474 98.7785C79.7474 103.358 79.707 103.358 79.707 107.93C79.707 112.502 79.7797 112.51 79.7797 117.09C79.7797 121.67 79.7474 121.67 79.7474 126.25C79.7474 126.25 79.8847 126.177 79.8847 126.186C83.6812 127.971 83.6246 128.1 87.4211 129.885C91.2175 131.67 91.2095 131.703 95.0059 133.488C98.8023 135.273 98.8589 135.168 102.655 136.953H102.663C102.663 132.373 102.906 132.373 102.906 127.801C102.906 123.229 102.647 123.221 102.647 118.641C102.647 114.061 102.623 114.061 102.623 109.481L102.68 109.425C98.8831 107.64 98.8266 107.753 95.0301 105.967C91.2337 104.182 91.3387 103.94 87.5422 102.155C83.7458 100.37 83.7216 100.41 79.917 98.625L79.7474 98.7785Z" fill="#ABBBC1"/>
<path d="M126.888 126.226C122.849 128.003 122.809 127.914 118.77 129.699C114.731 131.484 114.747 131.517 110.709 133.294C106.67 135.071 106.694 135.127 102.647 136.904C102.647 136.904 102.776 136.953 102.776 136.945C102.776 132.365 102.478 132.365 102.478 127.793C102.478 123.221 102.671 123.213 102.671 118.633C102.671 114.053 102.873 114.053 102.873 109.473L102.696 109.554C106.734 107.777 106.759 107.833 110.797 106.048C114.836 104.263 114.812 104.215 118.851 102.429C122.889 100.644 122.841 100.539 126.888 98.7622L127.058 98.7864C127.058 103.366 126.831 103.366 126.831 107.938C126.831 112.51 126.847 112.518 126.847 117.098C126.847 121.678 126.686 121.678 126.686 126.258L126.88 126.218L126.888 126.226Z" fill="#D5E1E6"/>
<path d="M126.937 98.8754C124.244 100.06 121.552 101.242 118.859 102.421C114.821 104.198 114.845 104.263 110.806 106.04C106.767 107.817 106.783 107.866 102.745 109.651C102.745 109.651 102.664 109.481 102.664 109.473C98.8674 107.688 98.8271 107.769 95.0225 105.992C91.218 104.215 91.113 104.425 87.3165 102.64C83.5201 100.854 83.7301 100.386 79.9256 98.6007C79.9256 98.6007 79.8529 98.7784 79.861 98.7784C83.8998 97.0014 83.9401 97.0902 87.9789 95.3132C92.0177 93.5361 92.0096 93.52 96.0565 91.7429C100.103 89.9658 100.119 90.0062 104.158 88.2292C104.158 88.2292 104.174 87.9384 104.174 87.9465C107.971 89.7316 107.898 89.8931 111.703 91.6783C115.507 93.4634 115.548 93.3746 119.352 95.1597C123.157 96.9448 123.076 97.1064 126.88 98.8915L126.953 98.8754H126.937Z" fill="#EAF0F3"/>
<path d="M79.7881 126.379C83.5845 128.156 83.7299 127.849 87.5264 129.635C91.3228 131.42 91.2501 131.589 95.0466 133.366C98.843 135.152 98.9723 134.877 102.777 136.654C102.793 136.654 102.664 136.929 102.68 136.921C106.719 135.143 106.622 134.925 110.66 133.148C114.699 131.371 114.675 131.307 118.706 129.53C122.736 127.752 122.849 127.995 126.888 126.218" stroke="#80949C" stroke-width="1.33332" stroke-linecap="round" stroke-linejoin="round"/>
<path d="M102.623 136.961C102.623 132.443 102.621 127.925 102.615 123.407" stroke="#80949C" stroke-width="1.33332" stroke-linecap="round" stroke-linejoin="round"/>
<path d="M50.6449 112.333C50.6449 116.913 50.8791 116.913 50.8791 121.485C50.8791 126.057 50.7499 126.065 50.7499 130.645C50.7499 135.225 50.6933 135.225 50.6933 139.805L50.7741 139.643C54.5706 141.428 54.5302 141.517 58.3347 143.294C62.1392 145.071 62.0988 145.152 65.9034 146.937C69.7079 148.722 69.7321 148.658 73.5366 150.443L73.3105 150.507C73.3105 145.928 73.3912 145.928 73.3912 141.356C73.3912 136.784 73.7467 136.776 73.7467 132.196C73.7467 127.616 73.4639 127.616 73.4639 123.036L73.5528 122.939C69.7563 121.154 69.6675 121.348 65.863 119.562C62.0585 117.777 62.1311 117.632 58.3266 115.847C54.5221 114.062 54.409 114.312 50.6045 112.535L50.6449 112.341V112.333Z" fill="#ABBBC1"/>
<path d="M97.7124 139.748C93.6736 141.525 93.7463 141.687 89.7075 143.472C85.6688 145.257 85.6284 145.16 81.5896 146.945C77.5508 148.73 77.4943 148.601 73.4555 150.378V150.507C73.4555 145.927 73.6817 145.927 73.6817 141.356C73.6817 136.784 73.3828 136.776 73.3828 132.196C73.3828 127.616 73.6575 127.616 73.6575 123.036L73.4555 122.906C77.4943 121.129 77.567 121.299 81.6058 119.522C85.6445 117.745 85.6607 117.777 89.6995 115.992C93.7382 114.207 93.7786 114.296 97.8174 112.519C97.8174 112.519 97.6558 112.349 97.6558 112.357C97.6558 116.937 97.5831 116.937 97.5831 121.509C97.5831 126.081 97.5428 126.089 97.5428 130.669C97.5428 135.249 97.987 135.249 97.987 139.829C97.987 139.829 97.7205 139.756 97.7124 139.756V139.748Z" fill="#D5E1E6"/>
<path d="M97.7778 112.422C93.739 114.199 93.6906 114.086 89.6518 115.863C85.613 117.64 85.7423 117.947 81.7035 119.732C77.6647 121.517 77.5112 121.178 73.4725 122.955V123.092C69.676 121.307 69.7245 121.194 65.928 119.409C62.1316 117.624 62.0104 117.858 58.214 116.073C54.4175 114.288 54.4175 114.263 50.6211 112.478L50.6534 112.236C54.6922 110.459 54.7972 110.693 58.836 108.916C62.8747 107.139 62.794 106.953 66.8327 105.176C70.8715 103.399 70.9442 103.561 74.983 101.784H74.8699C78.6663 103.569 78.6906 103.52 82.4951 105.297C86.2996 107.074 86.2673 107.155 90.0718 108.94C93.8763 110.726 94.0621 110.338 97.8586 112.115L97.7778 112.422Z" fill="#EAF0F3"/>
<path d="M50.6045 139.991C54.4009 141.768 54.4494 141.679 58.2458 143.456C62.0423 145.233 62.2038 144.91 66.0003 146.687C69.7967 148.464 69.6513 148.787 73.4559 150.564C73.472 150.564 73.5609 150.588 73.577 150.58C77.6158 148.803 77.535 148.617 81.5657 146.84C85.5964 145.063 85.6206 145.096 89.6594 143.319C93.6982 141.542 93.6093 141.348 97.6481 139.562" stroke="#80949C" stroke-width="1.33332" stroke-linecap="round" stroke-linejoin="round"/>
<path d="M73.6012 150.516C73.6012 145.047 73.6254 145.047 73.6254 139.587C73.6254 134.126 73.4639 134.118 73.4639 128.658" stroke="#80949C" stroke-width="1.33332" stroke-linecap="round" stroke-linejoin="round"/>
<path d="M109.045 48.5363C109.045 53.1162 108.852 53.1162 108.852 57.6881C108.852 62.26 108.908 62.2681 108.908 66.848C108.908 71.428 108.852 71.428 108.852 76.008C108.852 76.008 108.981 76.0484 108.981 76.0564C112.777 77.8416 112.81 77.785 116.606 79.5621C120.402 81.3392 120.459 81.2422 124.255 83.0274C128.052 84.8125 127.915 85.1114 131.719 86.8965C131.719 86.8965 131.969 86.7188 131.969 86.7107C131.969 82.1308 131.59 82.1308 131.59 77.5589C131.59 72.987 131.679 72.9789 131.679 68.3989C131.679 63.819 131.978 63.819 131.978 59.239L131.856 59.1421C128.06 57.3569 127.955 57.567 124.159 55.7899C120.362 54.0128 120.467 53.7705 116.663 51.9934C112.858 50.2164 112.834 50.2729 109.029 48.4878C109.029 48.4878 109.029 48.5443 109.029 48.5524L109.045 48.5363Z" fill="#ABBBC1"/>
<path d="M156.04 75.9836C152.001 77.7607 152.034 77.8415 147.995 79.6185C143.956 81.3956 143.892 81.2502 139.853 83.0353C135.814 84.8204 135.919 85.0628 131.88 86.8398L131.63 86.7106C131.63 82.1306 131.913 82.1306 131.913 77.5587C131.913 72.9868 131.848 72.9788 131.848 68.3988C131.848 63.8188 131.993 63.8188 131.993 59.2389C131.993 59.2389 131.84 59.2873 131.848 59.2793C135.887 57.5022 135.814 57.3326 139.853 55.5555C143.892 53.7784 143.94 53.8835 147.987 52.1064C152.034 50.3293 152.066 50.4182 156.105 48.6331C156.105 48.6331 155.919 48.5442 155.919 48.5523C155.919 53.1322 155.887 53.1322 155.887 57.7041C155.887 62.276 156.032 62.2841 156.032 66.8641C156.032 71.444 156 71.444 156 76.024C156 76.024 156.048 75.9836 156.04 75.9836Z" fill="#D5E1E6"/>
<path d="M155.951 48.3102C151.913 50.0872 151.953 50.1842 147.914 51.9612C143.875 53.7383 143.94 53.8998 139.901 55.685C135.863 57.4701 135.976 57.7205 131.937 59.5056L131.751 59.3764C127.955 57.5913 127.979 57.5347 124.174 55.7496C120.37 53.9644 120.475 53.7464 116.67 51.9693C112.866 50.1922 112.882 50.1518 109.077 48.3667C109.077 48.3667 109.053 48.6898 109.061 48.6817C111.754 47.497 114.444 46.3096 117.131 45.1195C119.818 43.9294 122.51 42.7394 125.208 41.5493C129.247 39.7722 129.085 39.3926 133.124 37.6074L133.302 37.7447C137.098 39.5299 136.961 39.8287 140.766 41.6139C144.57 43.399 144.627 43.2779 148.431 45.063C152.236 46.8481 152.365 46.5654 156.169 48.3506L155.951 48.3263V48.3102Z" fill="#EAF0F3"/>
<path d="M108.94 76.1455C112.737 77.9225 112.721 77.9629 116.517 79.74C120.314 81.517 120.443 81.2586 124.239 83.0356C128.036 84.8127 128.06 84.7723 131.865 86.5494C131.881 86.5494 131.8 86.6624 131.816 86.6544C135.855 84.8773 135.936 85.0631 139.966 83.2779C143.997 81.4928 143.916 81.307 147.955 79.5219C151.994 77.7367 152.042 77.8418 156.081 76.0647" stroke="#80949C" stroke-width="1.33332" stroke-linecap="round" stroke-linejoin="round"/>
<path d="M131.832 86.7189C131.832 84.5272 131.832 82.3355 131.832 80.1438" stroke="#80949C" stroke-width="1.33332" stroke-linecap="round" stroke-linejoin="round"/>
<path d="M79.7559 62.0904C79.7559 66.6704 80.0628 66.6704 80.0628 71.2423C80.0628 75.8142 79.8366 75.8222 79.8366 80.4022C79.8366 84.9822 79.7962 84.9822 79.7962 89.5621C79.7962 89.5621 79.8609 89.5298 79.8689 89.5298C83.6654 91.315 83.625 91.4038 87.4215 93.189C91.2179 94.9741 91.2098 94.9983 95.0143 96.7835C98.8189 98.5686 98.8269 98.5444 102.631 100.33L102.753 100.265C102.753 95.6849 102.785 95.6849 102.785 91.113C102.785 86.5411 102.712 86.5331 102.712 81.9531C102.712 77.3731 102.68 77.3731 102.68 72.7932L102.656 72.8255C98.8593 71.0403 98.8189 71.1211 95.0224 69.336C91.226 67.5508 91.2583 67.462 87.4618 65.6849C83.6654 63.9079 83.6896 63.8432 79.8851 62.0581C79.8851 62.0581 79.772 62.0904 79.772 62.0985L79.7559 62.0904Z" fill="#FFCD6E"/>
<path d="M126.913 89.5946C124.22 90.7793 121.53 91.9694 118.843 93.1648C114.804 94.9419 114.861 95.0792 110.822 96.8563C106.783 98.6333 106.816 98.7141 102.777 100.499L102.583 100.265C102.583 95.685 102.599 95.685 102.599 91.1131C102.599 86.5413 102.753 86.5332 102.753 81.9532C102.753 77.3732 102.648 77.3732 102.648 72.7933C102.648 72.7933 102.656 72.7448 102.664 72.7367C105.356 71.552 108.046 70.3619 110.733 69.1665C113.42 67.971 116.116 66.7836 118.819 65.6043C122.858 63.8272 122.801 63.698 126.848 61.9209L126.937 62.1067C126.937 66.6867 126.88 66.6867 126.88 71.2585C126.88 75.8304 126.896 75.8385 126.896 80.4185C126.896 84.9984 126.953 84.9984 126.953 89.5784L126.937 89.5946H126.913Z" fill="#D5E1E6"/>
<path d="M126.969 62.26C122.93 64.0371 122.801 63.7544 118.77 65.5314C114.739 67.3085 114.877 67.6397 110.83 69.4167C106.783 71.1938 106.823 71.2746 102.785 73.0597C102.785 73.0597 102.583 72.9547 102.583 72.9466C98.7863 71.1615 98.8105 71.0969 95.014 69.3117C91.2176 67.5266 91.3145 67.3085 87.51 65.5234C83.7055 63.7382 83.6651 63.8271 79.8606 62.0419C79.8606 62.0419 79.8363 62.0581 79.8444 62.0581C83.8832 60.281 83.8913 60.3053 87.93 58.5282C91.9688 56.7512 92.0334 56.8885 96.0722 55.1114C100.111 53.3344 99.9656 52.9951 104.004 51.21L104.15 51.2827C107.946 53.0678 107.882 53.2051 111.686 54.9902C115.491 56.7754 115.628 56.4765 119.432 58.2617C123.237 60.0468 123.043 60.4507 126.848 62.2358L126.969 62.252V62.26Z" fill="#FFECCC"/>
<path d="M79.9014 89.457C83.6978 91.2341 83.714 91.2018 87.5185 92.9788C91.323 94.7559 91.2099 94.9982 95.0064 96.7834C98.8028 98.5685 98.8917 98.3746 102.696 100.16C102.712 100.16 102.656 100.224 102.672 100.224C106.711 98.4473 106.8 98.6493 110.838 96.8722C114.877 95.0952 114.764 94.8367 118.803 93.0596C122.842 91.2826 122.971 91.5733 127.01 89.7882" stroke="#80949C" stroke-width="1.33332" stroke-linecap="round" stroke-linejoin="round"/>
<path d="M102.721 100.273C102.721 93.4958 102.575 93.4958 102.575 86.7188" stroke="#80949C" stroke-width="1.33332" stroke-linecap="round" stroke-linejoin="round"/>
<path d="M50.6119 75.6445C50.6119 80.2244 50.8542 80.2244 50.8542 84.7963C50.8542 89.3682 50.5957 89.3763 50.5957 93.9562C50.5957 98.5362 50.9107 98.5362 50.9107 103.116C50.9107 103.116 50.628 103.245 50.6361 103.245C54.4325 105.031 54.481 104.926 58.2855 106.703C62.0901 108.48 62.1062 108.447 65.9107 110.232C69.7153 112.018 69.6991 112.042 73.5036 113.827C73.5036 113.827 73.5198 113.819 73.5198 113.811C73.5198 109.231 73.5763 109.231 73.5763 104.659C73.5763 100.087 73.3986 100.079 73.3986 95.4991C73.3986 90.9191 73.5359 90.9191 73.5359 86.3391C73.5359 86.3391 73.5602 86.2503 73.5521 86.2503C69.7556 84.4651 69.6506 84.6913 65.8542 82.9062C62.0577 81.121 62.082 81.0483 58.2855 79.2713C54.4891 77.4942 54.5456 77.365 50.7411 75.5798L50.628 75.6445H50.6119Z" fill="#ABBBC1"/>
<path d="M97.7205 103.076C93.6818 104.853 93.7141 104.934 89.6753 106.711C85.6365 108.488 85.7011 108.641 81.6624 110.427C77.6236 112.212 77.6155 112.196 73.5767 113.973L73.6575 113.819C73.6575 109.239 73.3586 109.239 73.3586 104.667C73.3586 100.095 73.5848 100.087 73.5848 95.5073C73.5848 90.9274 73.2617 90.9274 73.2617 86.3474L73.4717 86.2585C77.5105 84.4815 77.5186 84.5057 81.5574 82.7286C85.5961 80.9516 85.685 81.1454 89.7238 79.3684C93.7625 77.5913 93.7544 77.559 97.7932 75.7739C97.7932 75.7739 97.6721 75.6608 97.6721 75.6689C97.6721 80.2488 97.8821 80.2488 97.8821 84.8207C97.8821 89.3926 97.9871 89.4007 97.9871 93.9807C97.9871 98.5606 97.7448 98.5606 97.7448 103.141L97.7205 103.084V103.076Z" fill="#D5E1E6"/>
<path d="M97.8332 75.8625C93.7944 77.6396 93.7459 77.5346 89.7072 79.3117C85.6684 81.0887 85.6603 81.0726 81.6216 82.8577C77.5828 84.6428 77.6151 84.7236 73.5763 86.5007C73.5763 86.5007 73.5521 86.2583 73.5521 86.2503C69.7556 84.4651 69.6102 84.764 65.8138 82.9789C62.0174 81.1937 62.0981 81.0079 58.2936 79.2309C54.4891 77.4538 54.4002 77.6315 50.5957 75.8464C50.5957 75.8464 50.7976 75.8868 50.8057 75.8868C54.8445 74.1097 54.7799 73.9643 58.8186 72.1792C62.8574 70.394 62.8736 70.4264 66.9123 68.6412C70.9511 66.8561 70.9188 66.7753 74.9576 64.9982L75.006 64.8286C78.8025 66.6138 78.859 66.5007 82.6555 68.2858C86.4519 70.0709 86.4035 70.1921 90.208 71.9772C94.0125 73.7624 93.9237 73.9401 97.7282 75.7252L97.8413 75.8545L97.8332 75.8625Z" fill="#FFECCC"/>
<path d="M50.709 103.076C54.5054 104.853 54.5701 104.716 58.3665 106.501C62.1629 108.286 62.1226 108.375 65.9271 110.152C69.7316 111.929 69.6993 111.985 73.5038 113.77M73.5038 113.77C73.4877 113.779 73.52 113.77 73.5038 113.77ZM73.5038 113.77C77.5426 111.993 77.5587 112.042 81.5975 110.265C85.6363 108.488 85.6767 108.577 89.7154 106.8C93.7542 105.022 93.6654 104.821 97.7041 103.043" stroke="#80949C" stroke-width="1.33332" stroke-linecap="round" stroke-linejoin="round"/>
<path d="M73.5037 113.827C73.5037 108.359 73.4552 108.359 73.4552 102.898C73.4552 97.4377 73.3906 97.4297 73.3906 91.9692" stroke="#80949C" stroke-width="1.33332" stroke-linecap="round" stroke-linejoin="round"/>
<path d="M108.811 11.8479C108.811 16.4279 109.078 16.4279 109.078 20.9998C109.078 25.5717 108.956 25.5797 108.956 30.1597C108.956 34.7397 109.021 34.7397 109.021 39.3196V39.2712C112.818 41.0563 112.882 40.9271 116.679 42.7041C120.475 44.4812 120.37 44.7155 124.175 46.5006C127.979 48.2857 127.882 48.4877 131.679 50.2728C131.679 50.2728 131.872 50.0224 131.872 50.0143C131.872 45.4343 131.703 45.4343 131.703 40.8625C131.703 36.2906 131.889 36.2825 131.889 31.7025C131.889 27.1226 131.824 27.1226 131.824 22.5426C131.824 22.5426 131.727 22.7122 131.727 22.7041C127.931 20.919 127.987 20.7978 124.183 19.0208C120.378 17.2437 120.419 17.1549 116.614 15.3778C112.809 13.6007 112.777 13.6654 108.973 11.8802L108.795 11.8398L108.811 11.8479Z" fill="#ABBBC1"/>
<path d="M156.064 39.3522C152.026 41.1292 151.985 41.0404 147.946 42.8175C143.908 44.5945 143.892 44.5622 139.845 46.3393C135.798 48.1163 135.79 48.084 131.751 49.8611C131.751 49.8611 131.662 50.0226 131.662 50.0145C131.662 45.4346 131.702 45.4346 131.702 40.8627C131.702 36.2908 131.921 36.2827 131.921 31.7027C131.921 27.1228 131.969 27.1228 131.969 22.5428C131.969 22.5428 131.832 22.5832 131.832 22.5751C134.524 21.3904 137.217 20.203 139.909 19.0129C143.948 17.2359 143.94 17.2116 147.979 15.4265C152.018 13.6414 152.066 13.7464 156.105 11.9612L156.145 11.8481C156.145 16.4281 156.234 16.4281 156.234 21C156.234 25.5719 155.951 25.58 155.951 30.1599C155.951 34.7399 155.854 34.7399 155.854 39.3199L156.072 39.328L156.064 39.3522Z" fill="#D5E1E6"/>
<path d="M156.153 12.0822C152.114 13.8592 152.074 13.7623 148.035 15.5394C143.997 17.3164 143.948 17.2195 139.909 19.0046C135.871 20.7898 135.79 20.6121 131.751 22.3972C131.751 22.3972 131.727 22.7364 131.727 22.7284C127.93 20.9432 127.89 21.024 124.085 19.2389C120.281 17.4537 120.418 17.1629 116.614 15.3859C112.809 13.6088 112.745 13.7381 108.94 11.9529C108.94 11.9529 108.924 11.6944 108.932 11.6944C112.971 9.91739 113.068 10.1355 117.106 8.35842C121.145 6.58136 121.105 6.47635 125.144 4.69121C129.182 2.90608 129.263 3.09186 133.302 1.30672L133.318 0.991699C137.114 2.77684 137.139 2.73645 140.935 4.51351C144.732 6.29057 144.691 6.39558 148.496 8.18071C152.3 9.96585 152.211 10.1516 156.016 11.9368C156.016 11.9368 156.145 12.066 156.145 12.0741L156.153 12.0822Z" fill="#EAF0F3"/>
<path d="M108.956 39.4164C112.753 41.1935 112.785 41.1369 116.581 42.914C120.378 44.691 120.337 44.796 124.134 46.5731C127.93 48.3502 127.987 48.2451 131.783 50.0222C131.799 50.0222 131.727 49.8041 131.735 49.796C135.774 48.019 135.749 47.9786 139.788 46.2015C143.827 44.4245 143.908 44.5941 147.946 42.817C151.985 41.04 151.993 41.0481 156.032 39.271" stroke="#80949C" stroke-width="1.33332" stroke-linecap="round" stroke-linejoin="round"/>
<path d="M131.84 50.0307C131.84 46.7431 131.792 46.7431 131.792 43.4556" stroke="#80949C" stroke-width="1.33332" stroke-linecap="round" stroke-linejoin="round"/>
<path d="M79.9583 25.4021C79.9583 29.9821 79.7564 29.9821 79.7564 34.554C79.7564 39.1258 79.7402 39.1339 79.7402 43.7139C79.7402 48.2939 79.9583 48.2939 79.9583 52.8738C79.9583 52.8738 79.8291 52.9061 79.8372 52.9061C82.3681 54.0962 84.9018 55.2836 87.4381 56.4683C91.2427 58.2535 91.275 58.1808 95.0795 59.9659C98.884 61.751 98.8679 61.7753 102.672 63.5604C102.672 63.5604 102.753 63.5766 102.753 63.5685C102.753 58.9885 102.81 58.9885 102.81 54.4166C102.81 49.8447 102.68 49.8367 102.68 45.2567C102.68 40.6767 102.729 40.6767 102.729 36.0968C102.729 36.0968 102.664 36.0968 102.656 36.0968C98.8598 34.3116 98.884 34.2632 95.0795 32.478C91.275 30.6929 91.2023 30.8544 87.4058 29.0693C83.6094 27.2842 83.5851 27.3246 79.7806 25.5394L79.9583 25.4021Z" fill="#FFCD6E"/>
<path d="M126.97 53.0353C122.931 54.8124 122.834 54.5862 118.795 56.3633C114.756 58.1404 114.821 58.2938 110.782 60.0709C106.743 61.8479 106.679 61.7025 102.632 63.4796C102.632 63.4796 102.511 63.5765 102.511 63.5685C102.511 58.9885 102.729 58.9885 102.729 54.4166C102.729 49.8447 102.697 49.8366 102.697 45.2567C102.697 40.6767 102.89 40.6767 102.89 36.0967L102.608 35.919C106.646 34.142 106.751 34.3843 110.79 32.6072C114.829 30.8302 114.821 30.7979 118.86 29.0208C122.898 27.2437 122.842 27.1064 126.881 25.3213L126.945 25.4101C126.945 29.9901 126.751 29.9901 126.751 34.562C126.751 39.1339 126.816 39.142 126.816 43.7219C126.816 48.3019 126.865 48.3019 126.865 52.8819L126.986 53.0192L126.97 53.0353Z" fill="#D5E1E6"/>
<path d="M126.865 25.3295C124.173 26.5142 121.483 27.7043 118.796 28.8997C114.757 30.6768 114.716 30.596 110.678 32.3731C106.639 34.1501 106.695 34.2794 102.649 36.0564L102.665 36.0968C98.8683 34.3117 98.9572 34.1098 95.1607 32.3246C91.3643 30.5395 91.3885 30.4668 87.584 28.6897C83.7795 26.9127 83.7552 26.953 79.9588 25.1679L79.7568 25.1841C83.7956 23.407 83.8925 23.617 87.9232 21.84C91.9539 20.0629 91.9539 20.0306 95.9927 18.2455C100.031 16.4603 100.088 16.5896 104.127 14.8125L103.949 15.0306C107.746 16.8157 107.834 16.6299 111.639 18.407C115.443 20.1841 115.5 20.0629 119.305 21.848C123.109 23.6332 123.117 23.6089 126.922 25.386C126.922 25.386 126.865 25.3214 126.857 25.3214L126.865 25.3295Z" fill="#EAF0F3"/>
<path d="M95.7178 60.4505C99.1588 62.066 99.1346 62.1064 102.576 63.7138C102.592 63.7138 102.729 63.6977 102.745 63.6896C106.784 61.9125 106.792 61.9449 110.831 60.1678C114.87 58.3907 114.781 58.1888 118.82 56.4037C122.858 54.6185 122.915 54.7558 126.954 52.9707" stroke="#80949C" stroke-width="1.33332" stroke-linecap="round" stroke-linejoin="round"/>
<path d="M102.648 63.5847C102.648 60.0468 102.681 60.0468 102.681 56.5088" stroke="#80949C" stroke-width="1.33332" stroke-linecap="round" stroke-linejoin="round"/>
<path d="M18.4875 23.4391C18.4875 28.019 18.6005 28.019 18.6005 32.5909C18.6005 37.1628 18.6005 37.1709 18.6005 41.7509C18.6005 46.3308 18.334 46.3308 18.334 50.9108L18.439 51.04C22.2354 52.8252 22.2597 52.7767 26.0561 54.5618C29.8526 56.347 29.9333 56.1774 33.7379 57.9625C37.5424 59.7476 37.4535 59.9253 41.2581 61.7105L41.5246 61.6135C41.5246 58.5602 41.5219 55.5096 41.5165 52.4617C41.5165 47.8817 41.4196 47.8817 41.4196 43.3018C41.4196 38.7218 41.5973 38.7218 41.5973 34.1418L41.3308 34.1095C37.5343 32.3244 37.5505 32.284 33.754 30.4988C29.9576 28.7137 30.0141 28.5845 26.2096 26.8074C22.4051 25.0303 22.3324 25.1838 18.5359 23.3987L18.4955 23.4471L18.4875 23.4391Z" fill="#FCBA44"/>
<path d="M65.5151 50.822C61.4764 52.5991 61.5975 52.8657 57.5587 54.6508C53.52 56.4359 53.52 56.4279 49.4812 58.213C45.4424 59.9981 45.3213 59.7154 41.2744 61.4925C41.2744 61.4925 41.4521 61.6217 41.4521 61.6136C41.4521 57.0337 41.3794 57.0337 41.3794 52.4618C41.3794 47.8899 41.3067 47.8818 41.3067 43.3018C41.3067 38.7219 41.3229 38.7219 41.3229 34.1419C41.3229 34.1419 41.3552 34.2227 41.3633 34.2227C45.402 32.4456 45.4101 32.4618 49.4489 30.6847C53.4877 28.9077 53.4311 28.7784 57.4699 26.9933C61.5087 25.2082 61.5814 25.3778 65.6201 23.5926L65.4667 23.4553C65.4667 28.0353 65.4909 28.0353 65.4909 32.6072C65.4909 37.1791 65.5232 37.1871 65.5232 41.7671C65.5232 46.3471 65.6928 46.3471 65.6928 50.9271L65.507 50.814L65.5151 50.822Z" fill="#FFCD6E"/>
<path d="M65.5313 23.3907C61.4926 25.1678 61.5491 25.2889 57.5104 27.066C53.4716 28.8431 53.5281 28.9804 49.4894 30.7574C45.4506 32.5345 45.3698 32.3568 41.323 34.1339C41.323 34.1339 41.2745 34.2146 41.2745 34.2066C37.478 32.4214 37.4377 32.5022 33.6331 30.7171C29.8286 28.9319 29.9013 28.7784 26.0968 26.9933C22.2923 25.2082 22.2196 25.3697 18.415 23.5846L18.4797 23.3907C22.5184 21.6137 22.5669 21.7267 26.6057 19.9497C30.6444 18.1726 30.6929 18.2696 34.7317 16.4925C38.7704 14.7154 38.6574 14.4489 42.6961 12.6718L42.8011 12.5991C46.5976 14.3843 46.4764 14.6589 50.2729 16.436C54.0693 18.213 54.2713 17.8011 58.0758 19.5862C61.8803 21.3713 61.6703 21.8156 65.4748 23.6007L65.5152 23.3826L65.5313 23.3907Z" fill="#FFECCC"/>
<path d="M18.4473 51.032C22.2437 52.809 22.3649 52.5586 26.1613 54.3357C29.9578 56.1128 29.9335 56.1693 33.7381 57.9544C37.5426 59.7396 37.5183 59.788 41.3148 61.5651C41.331 61.5651 41.2906 61.5328 41.3067 61.5247C45.3455 59.7477 45.3697 59.8123 49.4085 58.0352C53.4473 56.2582 53.3826 56.1128 57.4214 54.3357C61.4602 52.5586 61.5975 52.8656 65.6363 51.0885" stroke="#F9A619" stroke-width="1.33332" stroke-linecap="round" stroke-linejoin="round"/>
<path d="M41.2745 61.6217C41.2745 56.1855 41.3068 56.1855 41.3068 50.7493C41.3068 45.3131 41.2422 45.3131 41.2422 39.877" stroke="#F9A619" stroke-width="1.33332" stroke-linecap="round" stroke-linejoin="round"/>
<path d="M58.1889 63.3828C57.5265 63.3828 56.8076 62.89 56.8076 62.0984C56.8076 59.3925 56.8399 58.0112 56.8722 56.6784C56.9045 55.3537 56.9369 53.9805 56.9369 51.2745C56.9369 48.5686 56.9369 47.2196 56.9207 45.8626C56.9207 44.5056 56.9045 43.1566 56.9045 40.4506C56.9045 39.764 57.4054 39.2471 58.0677 39.2471C58.3989 39.2471 58.722 39.3844 58.9724 39.6348C60.8787 41.5411 61.8803 42.4781 62.8496 43.3828C63.827 44.2955 64.8367 45.2325 66.7511 47.155C68.6655 49.0694 69.6186 50.071 70.5314 51.0403C71.4441 52.0015 72.3892 53.0031 74.2955 54.9094C74.7317 55.3456 74.8609 55.9272 74.6105 56.3876C74.4247 56.735 74.037 56.9369 73.5604 56.9369C73.4635 56.9369 73.3666 56.9369 73.2616 56.9127C71.1291 56.5815 70.0629 56.4361 68.9886 56.2988C67.9142 56.1534 66.8399 56.0161 64.6913 55.6768C64.659 55.6768 64.6348 55.6768 64.6024 55.6768C64.449 55.6768 64.3117 55.7333 64.239 55.8383C62.9627 57.5831 62.3407 58.4716 61.7268 59.3521C61.1049 60.2406 60.4829 61.1291 59.2066 62.882C58.9724 63.2051 58.6008 63.3909 58.1808 63.3909L58.1889 63.3828Z" fill="#60747B"/>
<path d="M58.0673 39.6508C58.2773 39.6508 58.4954 39.7396 58.6893 39.9254C62.518 43.7542 62.6473 43.6169 66.4679 47.4456C70.2886 51.2744 70.1917 51.3713 74.0204 55.2001C74.3193 55.4989 74.4324 55.8867 74.2709 56.2017C74.1416 56.4359 73.8831 56.5409 73.5762 56.5409C73.5035 56.5409 73.4227 56.5409 73.3419 56.5248C69.0689 55.8543 69.0528 55.9513 64.7717 55.2889C64.7232 55.2889 64.6666 55.2808 64.6182 55.2808C64.3516 55.2808 64.0851 55.3939 63.9235 55.6039C61.371 59.1015 61.4437 59.15 58.8912 62.6476C58.7216 62.8818 58.455 62.9868 58.1885 62.9868C57.7038 62.9868 57.2111 62.6395 57.2111 62.1064C57.2111 56.6944 57.3403 56.6944 57.3403 51.2825C57.3403 45.8705 57.308 45.8705 57.308 40.4585C57.308 39.9577 57.6634 39.6589 58.0673 39.6589M58.0673 38.8511C57.1868 38.8511 56.5003 39.5619 56.5003 40.4585C56.5003 43.1645 56.5003 44.5216 56.5164 45.8705C56.5164 47.2195 56.5326 48.5765 56.5326 51.2744C56.5326 53.9723 56.5003 55.3374 56.4679 56.6621C56.4356 57.9949 56.4033 59.3762 56.4033 62.0902C56.4033 63.0191 57.203 63.7784 58.1885 63.7784C58.7377 63.7784 59.2305 63.5361 59.5374 63.108C60.8217 61.3552 61.4518 60.4505 62.0657 59.57C62.6715 58.7057 63.3015 57.801 64.5697 56.0644C64.5697 56.0644 64.5939 56.0644 64.6101 56.0644C66.783 56.4036 67.8815 56.549 68.9397 56.6863C69.9897 56.8237 71.0802 56.969 73.2046 57.3002C73.3258 57.3164 73.4469 57.3325 73.5681 57.3325C74.1982 57.3325 74.707 57.0579 74.9736 56.5732C75.3048 55.9594 75.1513 55.192 74.5859 54.6185C72.6796 52.7122 71.7345 51.7186 70.8217 50.7574C69.9009 49.7881 68.9558 48.7865 67.0334 46.864C65.1109 44.9416 64.1012 43.9965 63.1238 43.0837C62.1545 42.1791 61.1529 41.2421 59.2547 39.3438C58.9235 39.0127 58.5035 38.835 58.0673 38.835V38.8511Z" fill="#60747B"/>
<path d="M74.6591 56.7669C74.4329 56.7669 74.1987 56.7022 73.9725 56.573C70.79 54.7636 69.9095 53.6085 68.6898 52.0173C67.9467 51.0399 67.1066 49.9413 65.5072 48.4066C63.9402 46.9042 62.8578 46.0803 61.8966 45.3533C60.3134 44.1578 59.1744 43.2935 57.0904 40.2402C56.63 39.5617 56.5816 38.5682 56.9774 37.825C57.2439 37.3242 57.6639 37.0415 58.1324 37.0415C58.3586 37.0415 58.5848 37.1061 58.811 37.2354C61.7269 38.9155 62.6316 40.1352 63.6817 41.5407C64.4572 42.5827 65.3295 43.762 67.2439 45.3452C68.5929 46.468 69.6187 47.2111 70.4345 47.8008C72.3732 49.2063 73.4394 49.9898 75.7496 53.3985C76.315 54.2305 76.2019 55.2968 75.8627 55.943C75.588 56.4599 75.1518 56.7588 74.6672 56.7588L74.6591 56.7669Z" fill="#60747B"/>
<path d="M58.1322 37.4455C58.2776 37.4455 58.4392 37.4859 58.6088 37.5828C63.6492 40.4826 62.5102 41.9447 66.9852 45.6523C71.4763 49.3841 72.1548 48.8106 75.4182 53.6248C76.1128 54.6426 75.612 56.355 74.667 56.355C74.5135 56.355 74.3519 56.3146 74.1823 56.2096C69.1177 53.334 69.9981 52.1385 65.7978 48.0998C61.5975 44.0691 60.7251 44.8122 57.4376 40.0061C56.7752 39.0367 57.2518 37.4374 58.1484 37.4374M58.1484 36.6296C57.5183 36.6296 56.9691 36.9931 56.6298 37.6313C56.1694 38.5036 56.2259 39.6668 56.7671 40.4665C58.8915 43.5682 60.0547 44.4487 61.6621 45.6684C62.6072 46.3873 63.6815 47.1951 65.2324 48.6894C66.8075 50.1999 67.6395 51.2904 68.3745 52.2516C69.5781 53.8267 70.5232 55.0626 73.7784 56.9204C74.0692 57.082 74.3681 57.1708 74.667 57.1708C75.3051 57.1708 75.8705 56.7993 76.2178 56.1369C76.7025 55.2241 76.646 54.0044 76.0886 53.1805C73.738 49.7072 72.6476 48.9156 70.6766 47.4778C69.8608 46.8881 68.8511 46.145 67.5103 45.0303C65.6363 43.4794 64.8124 42.3647 64.0208 41.2985C62.9868 39.9091 62.0175 38.6006 59.0288 36.88C58.7461 36.7185 58.4472 36.6296 58.1565 36.6296H58.1484Z" fill="#60747B"/>
<path d="M59.3768 60.8704C58.7225 60.8704 58.0117 60.3857 58.0117 59.6022C58.0117 56.8962 58.0117 55.5473 58.0117 54.1903C58.0117 52.8413 58.0117 51.4843 58.0117 48.7783C58.0117 46.0723 58.0279 44.7153 58.0521 43.3583C58.0683 42.0093 58.0925 40.6523 58.0925 37.9544C58.0925 37.2597 58.6418 36.7104 59.3364 36.7104C59.6676 36.7104 59.9907 36.8478 60.233 37.0901C62.1474 39.0045 63.1167 39.9415 64.086 40.8785C65.0553 41.8235 66.0327 42.7605 67.9471 44.683C69.8615 46.5974 70.8066 47.5667 71.7597 48.5279C72.7048 49.4891 73.6498 50.4584 75.5642 52.3728C75.9277 52.7363 76.0327 53.2613 75.8389 53.746C75.645 54.2226 75.1927 54.5295 74.6838 54.5295C74.6191 54.5295 74.5465 54.5295 74.4818 54.5134C72.3413 54.1822 71.275 53.9964 70.2007 53.8187C69.1345 53.641 68.0683 53.4633 65.9358 53.124C65.7985 53.124 65.6612 53.2209 65.54 53.3825C64.2637 55.1353 63.6175 56.0077 62.9713 56.8801C62.3332 57.7444 61.687 58.6167 60.4108 60.3615C60.1765 60.6846 59.7969 60.8785 59.3768 60.8785V60.8704Z" fill="white"/>
<path d="M59.3524 37.1224C59.5624 37.1224 59.7805 37.2032 59.9582 37.3809C63.7869 41.2097 63.8435 41.145 67.6722 44.9738C71.501 48.8026 71.4606 48.8349 75.2893 52.6636C75.8386 53.2129 75.4267 54.1257 74.6997 54.1257C74.6512 54.1257 74.6028 54.1257 74.5543 54.1176C70.2813 53.4472 70.2813 53.3987 66.0083 52.7363C65.9759 52.7363 65.9436 52.7363 65.9194 52.7363C65.6448 52.7363 65.3944 52.9302 65.2247 53.1644C62.6722 56.662 62.648 56.6459 60.0955 60.1354C59.9178 60.3777 59.6512 60.4827 59.3847 60.4827C58.9081 60.4827 58.4234 60.1434 58.4234 59.6184C58.4234 54.2064 58.4396 54.2064 58.4396 48.7945C58.4396 43.3825 58.5204 43.3825 58.5204 37.9706C58.5204 37.4617 58.9242 37.1305 59.3604 37.1305M59.3604 36.3228C58.4396 36.3228 57.7126 37.0497 57.7126 37.9706C57.7126 40.6685 57.6884 42.0417 57.6722 43.3664C57.6561 44.6992 57.6318 46.0804 57.6318 48.7864C57.6318 51.4924 57.6318 52.8413 57.6318 54.1984C57.6318 55.5554 57.6318 56.9043 57.6318 59.6103C57.6318 60.5312 58.4234 61.2824 59.4008 61.2824C59.9501 61.2824 60.4509 61.032 60.7659 60.6039C62.0422 58.8591 62.6803 57.9867 63.3265 57.1224C63.9727 56.2501 64.6189 55.3777 65.8952 53.6329C65.9275 53.5845 65.9598 53.5602 65.9759 53.5441C68.0519 53.8672 69.11 54.0449 70.1682 54.2226C71.2344 54.4003 72.3087 54.5861 74.4493 54.9173C74.5381 54.9334 74.627 54.9415 74.7158 54.9415C75.3863 54.9415 75.984 54.5376 76.2425 53.9156C76.501 53.2856 76.3637 52.5909 75.879 52.1063C73.9727 50.2 73.0196 49.2307 72.0745 48.2694C71.1294 47.3001 70.1763 46.3389 68.2619 44.4165C66.3475 42.5021 65.354 41.5408 64.4008 40.6119C63.4477 39.6911 62.4622 38.7299 60.5559 36.8236C60.2409 36.5085 59.8209 36.3308 59.3766 36.3308L59.3604 36.3228Z" fill="#60747B"/>
</svg>
