<svg xmlns="http://www.w3.org/2000/svg" width="16" height="16" fill="none"><path fill="#000" fill-rule="evenodd" d="M0 2.5C0 1.672.632 1 1.412 1h13.176C15.368 1 16 1.672 16 2.5v10c0 .828-.632 1.5-1.412 1.5H1.412C.632 14 0 13.328 0 12.5v-10ZM1.412 2c-.26 0-.47.224-.47.5v10c0 .276.21.5.47.5h13.176c.26 0 .47-.224.47-.5v-10c0-.276-.21-.5-.47-.5H1.412Z" clip-rule="evenodd"/><path fill="#000" fill-rule="evenodd" d="M10.646 5.146a.5.5 0 0 1 .708 0l2 2a.5.5 0 0 1 0 .708l-2 2a.5.5 0 0 1-.708-.708L12.293 7.5l-1.647-1.646a.5.5 0 0 1 0-.708ZM6.354 5.146a.5.5 0 0 0-.708 0l-2 2a.5.5 0 0 0 0 .708l2 2a.5.5 0 0 0 .708-.708L4.707 7.5l1.647-1.646a.5.5 0 0 0 0-.708ZM9.658 4.026a.5.5 0 0 1 .316.632l-2 6a.5.5 0 1 1-.948-.316l2-6a.5.5 0 0 1 .632-.316Z" clip-rule="evenodd"/></svg>