<svg width="24" height="24" viewBox="0 0 24 24" fill="none" xmlns="http://www.w3.org/2000/svg">
<path fill-rule="evenodd" clip-rule="evenodd" d="M23 1.00006V7.87506H20.25V3.75007H3.75001V7.87506H1V1.00006H23ZM1 23.0001V16.1251H3.75001V20.2501H20.25V16.1251H23V23.0001H1ZM16.8491 8.56704L17.575 7.85564L20.9216 11.2022L21.6257 11.9208L20.9216 12.6394L17.1539 16.4071L16.4354 15.6884L15.7168 14.9696L18.7657 11.9208L16.1377 9.29261L16.8491 8.56704ZM6.97563 16.4071L7.70155 15.6957L8.41294 14.9701L5.7849 12.3419L8.83378 9.29304L8.11517 8.57425L7.39664 7.85556L3.62899 11.6232L2.92488 12.3419L3.62899 13.0605L6.97563 16.4071ZM16.1556 5.65463L14.3083 4.80682L8.37367 17.7384L10.221 18.5863L16.1556 5.65463Z" fill="#4C5664"/>
</svg>
