<svg width="56" height="44" viewBox="0 0 56 44" fill="none" xmlns="http://www.w3.org/2000/svg">
<rect width="56" height="44" rx="3" fill="white"/>
<path d="M41.5 31.5V16.5C41.5 15.3954 40.6046 14.5 39.5 14.5H35.8541C35.0363 14.5 34.3008 14.0021 33.9971 13.2428L33.0029 10.7572C32.6992 9.9979 31.9637 9.5 31.1459 9.5H25.8541C25.0363 9.5 24.3008 9.9979 23.9971 10.7572L23.0029 13.2428C22.6992 14.0021 21.9637 14.5 21.1459 14.5H17.5C16.3954 14.5 15.5 15.3954 15.5 16.5V31.5C15.5 32.6046 16.3954 33.5 17.5 33.5H39.5C40.6046 33.5 41.5 32.6046 41.5 31.5Z" fill="white" stroke="#CC3D00" stroke-linecap="round" stroke-linejoin="round"/>
<circle cx="28.5" cy="23.5" r="6" transform="rotate(-90 28.5 23.5)" fill="#FFEEE5" stroke="#CC3D00" stroke-linejoin="round"/>
<rect x="18" y="12" width="3" height="3" rx="1" fill="#CC3D00"/>
</svg>
