<svg xmlns="http://www.w3.org/2000/svg" width="16" height="16" fill="none"><path stroke="#000" stroke-linecap="round" stroke-linejoin="round" d="M14.5 12.5v-8a1 1 0 0 0-1-1h-2.382a1 1 0 0 1-.894-.553l-.448-.894a1 1 0 0 0-.894-.553H6.118a1 1 0 0 0-.894.553l-.448.894a1 1 0 0 1-.894.553H1.5a1 1 0 0 0-1 1v8a1 1 0 0 0 1 1h12a1 1 0 0 0 1-1Z"/><circle cx="7.5" cy="8.5" r="3" stroke="#000" stroke-linejoin="round" transform="rotate(-90 7.5 8.5)"/><path stroke="#000" stroke-linecap="square" d="M2.5 2.5v.001"/></svg>