<svg xmlns="http://www.w3.org/2000/svg" width="72" height="76" fill="none"><rect width="56" height="44" x="8" y="16" fill="#fff" rx="3"/><path fill="#fff" stroke="#CC3D00" stroke-linecap="round" stroke-linejoin="round" d="M49.5 47.5v-15a2 2 0 0 0-2-2h-3.646a2 2 0 0 1-1.857-1.257l-.994-2.486a2 2 0 0 0-1.857-1.257h-5.292a2 2 0 0 0-1.857 1.257l-.994 2.486a2 2 0 0 1-1.857 1.257H25.5a2 2 0 0 0-2 2v15a2 2 0 0 0 2 2h22a2 2 0 0 0 2-2Z"/><circle cx="36.5" cy="39.5" r="6" fill="#FFEEE5" stroke="#CC3D00" stroke-linejoin="round" transform="rotate(-90 36.5 39.5)"/><rect width="3" height="3" x="26" y="28" fill="#CC3D00" rx="1"/></svg>