<svg xmlns="http://www.w3.org/2000/svg" width="73" height="73" fill="none"><g filter="url(#a)"><mask id="b" width="57" height="57" x="4" y="4" fill="#000" maskUnits="userSpaceOnUse"><path fill="#fff" d="M4 4h57v57H4z"/><path d="M4 7a3 3 0 0 1 3-3h50a3 3 0 0 1 3 3v50a3 3 0 0 1-3 3H7a3 3 0 0 1-3-3V7Z"/></mask><path fill="#fff" d="M4 7a3 3 0 0 1 3-3h50a3 3 0 0 1 3 3v50a3 3 0 0 1-3 3H7a3 3 0 0 1-3-3V7Z"/><path fill="#DCE2E8" d="M4 4h56H4Zm57 53a4 4 0 0 1-4 4H8a4 4 0 0 1-4-4c0 1.105 1.343 2 3 2h50a2 2 0 0 0 2-2h2ZM4 60V4v56ZM57 4a4 4 0 0 1 4 4v49a4 4 0 0 1-4 4v-2a2 2 0 0 0 2-2V7c0-1.657-.895-3-2-3Z" mask="url(#b)"/><rect width="28" height="9" x="12" y="12" fill="#E3E8EF" rx="1"/><path stroke="#CC3D00" stroke-linecap="round" d="m45.5 13.5 6 6m0-6-6 6"/><rect width="40" height="6" x="12" y="30" fill="#E3E8EF" rx="1"/><rect width="40" height="6" x="12" y="38" fill="#E3E8EF" rx="1"/><rect width="24" height="6" x="12" y="46" fill="#E3E8EF" rx="1"/></g><defs><filter id="a" width="73" height="73" x="0" y="0" color-interpolation-filters="sRGB" filterUnits="userSpaceOnUse"><feFlood flood-opacity="0" result="BackgroundImageFix"/><feColorMatrix in="SourceAlpha" result="hardAlpha" values="0 0 0 0 0 0 0 0 0 0 0 0 0 0 0 0 0 0 127 0"/><feOffset dx="4" dy="4"/><feGaussianBlur stdDeviation="4"/><feComposite in2="hardAlpha" operator="out"/><feColorMatrix values="0 0 0 0 0.862745 0 0 0 0 0.886275 0 0 0 0 0.909804 0 0 0 1 0"/><feBlend in2="BackgroundImageFix" result="effect1_dropShadow_7044_126706"/><feBlend in="SourceGraphic" in2="effect1_dropShadow_7044_126706" result="shape"/></filter></defs></svg>