<?xml version="1.0" encoding="utf-8"?>
<svg viewBox="-5.523 291.154 1192.128 401.608" style="enable-background:new 0 0 1190.55 841.89;" xmlns="http://www.w3.org/2000/svg">
  <defs>
    <style type="text/css">
	.st0{fill:#2A2F3D;}
	.st1{fill:#ED6C36;}
</style>
  </defs>
  <path class="st0" d="M749.47,358.61c-2.49-2.34-3.87-5.62-3.8-9.04c-0.05-3.44,1.32-6.75,3.8-9.13c2.42-2.47,5.74-3.84,9.2-3.78 c3.6,0,6.64,1.26,9.1,3.78c2.43,2.41,3.78,5.71,3.72,9.13c0,3.57-1.27,6.57-3.8,9.04c-2.39,2.39-5.64,3.72-9.02,3.68 C755.23,362.35,751.91,361.03,749.47,358.61L749.47,358.61z M154.86,468.95c-1.12-1.97-2-5.84-2.6-11.61 c-6.45,9.22-16.74,13.83-30.86,13.83c-10.53,0-18.93-2.52-25.19-7.57c-6.26-5.05-9.39-12.05-9.39-21.04 c0-17.35,12.26-27.25,36.8-29.7l14.5-1.3c4.84-0.61,8.3-1.74,10.4-3.4c2.11-1.67,3.17-4.16,3.17-7.47c0-4.07-1.33-7.05-4-8.95 c-2.66-1.91-7.15-2.87-13.48-2.87c-6.82,0-11.7,1.14-14.68,3.42c-2.97,2.27-4.7,6.18-5.2,11.7H91.27 c1.37-21.63,15.75-32.45,43.14-32.45c26.64,0,39.96,9.53,39.96,28.6v50.75c0,8.36,1.3,14.39,3.9,18.07h-23.4L154.86,468.95z M144.81,448.55c4.59-4,6.88-9.75,6.88-17.25v-8.67c-2.24,1.96-5.89,3.27-10.97,3.87l-12.64,1.48c-6.2,0.74-10.63,2.18-13.29,4.34 c-2.66,2.15-4,5.26-4,9.32s1.39,7.22,4.18,9.5c2.8,2.29,6.78,3.42,12,3.42c7.32,0,13.26-2,17.84-6L144.81,448.55z M290.56,384.99 c7.68,9.1,11.52,21.23,11.52,36.35c0,15.02-3.84,27.07-11.52,36.18c-7.8,9.1-18.28,13.65-31.41,13.65 c-13.02,0-22.93-4.86-29.74-14.57v48.53h-23.44v-131.4h22.5v13.66c6.93-10.58,17.16-15.88,30.66-15.88 C272.28,371.51,282.75,376.01,290.56,384.99L290.56,384.99z M253.56,451.97c7.68,0,13.76-2.77,18.22-8.3 c4.34-5.42,6.5-13.1,6.5-23.07c0-9.73-2.14-17.13-6.41-22.24c-4.28-5.1-10.38-7.66-18.3-7.66c-7.82,0-13.9,2.65-18.22,7.93 c-4.34,5.3-6.51,12.86-6.51,22.7c0,9.97,2.23,17.53,6.69,22.7C239.74,449.33,245.75,451.97,253.56,451.97z M410.98,384.99 c7.67,9.1,11.52,21.23,11.52,36.35c0,15.02-3.85,27.07-11.52,36.18c-7.81,9.1-18.28,13.65-31.42,13.65 c-13.01,0-22.93-4.86-29.73-14.57v48.53H326.4v-131.4h22.5v13.66c6.93-10.58,17.15-15.88,30.67-15.88c13.13,0,23.6,4.5,31.4,13.48 H410.98z M373.98,451.97c7.68,0,13.76-2.77,18.21-8.3c4.34-5.42,6.51-13.1,6.51-23.07c0-9.73-2.14-17.13-6.42-22.24 c-4.27-5.1-10.38-7.66-18.3-7.66c-7.8,0-13.89,2.65-18.22,7.93c-4.33,5.3-6.5,12.86-6.5,22.7c0,9.97,2.23,17.53,6.69,22.7 C360.15,449.33,366.17,451.97,373.98,451.97z M443.69,438.68h22.86c0.63,5.92,2.57,10.1,5.86,12.56c3.29,2.46,8.46,3.69,15.53,3.69 c12.64,0,18.96-3.82,18.96-11.44c0-3.45-1.36-6.09-4.09-7.94c-2.73-1.84-7.62-3.37-14.68-4.61l-10.96-1.85 c-20.95-3.44-31.42-13.03-31.42-28.78c0-8.97,3.47-16.03,10.41-21.12c6.94-5.1,16.73-7.66,29.37-7.66 c27.39,0,41.52,10.77,42.4,32.29H505.8c-0.25-5.66-2.04-9.69-5.4-12.08c-3.34-2.4-8.3-3.6-14.87-3.6 c-11.14,0-16.73,3.69-16.73,11.08c0,3.2,1.23,5.68,3.72,7.46c2.48,1.78,6.56,3.17,12.26,4.15l12.08,1.85 c11.65,2.09,20.11,5.41,25.37,9.97c5.27,4.55,7.9,10.88,7.9,19c0,9.6-3.71,16.98-11.16,22.15c-7.43,5.17-17.9,7.75-31.41,7.75 c-28-0.01-42.64-10.96-43.87-32.86L443.69,438.68z M690.46,380.75c5.89,6.15,8.84,14.57,8.84,25.27v62.92h-23.43v-59.23 c0-12.06-5.52-18.08-16.55-18.08c-5.95,0-10.74,2.13-14.4,6.37c-3.66,4.25-5.49,10.42-5.49,18.55v52.4h-23.24v-59.24 c0-12.06-5.57-18.08-16.73-18.08c-5.82,0-10.56,2.13-14.23,6.37c-3.66,4.25-5.48,10.42-5.48,18.55v52.4h-23.42v-95.22h22.68v13.66 c6.56-10.58,15.68-15.88,27.32-15.88c14.63,0,24.54,5.91,29.75,17.72c7.19-11.8,17.1-17.72,29.74-17.72 C676.37,371.51,684.58,374.6,690.46,380.75L690.46,380.75z M878.75,391.45h-29.97v51.48c0,3.08,0.83,5.24,2.5,6.46 c1.68,1.23,4.5,1.85,8.47,1.85h17.1v17.71c-5.07,0.5-18.29,0.74-21.38,0.74c-10.4,0-18-1.93-22.77-5.81 c-4.77-3.89-7.16-10.06-7.16-18.55v-53.88h-21.72v-17.72h21.74v-31.77h23.24v31.79h29.98v17.7L878.75,391.45L878.75,391.45z M983.52,380.46c6.02,5.98,9.02,14.42,9.02,25.38v63.11h-23.43v-59.24c0-12.06-6.01-18.08-18.03-18.08c-5.95,0-11,2.12-15.15,6.37 c-4.14,4.25-6.22,10.11-6.22,17.62v53.32h-23.42v-127h23.42v44.52c7.32-9.97,17.05-14.94,29.18-14.94 C969.29,371.52,977.51,374.51,983.52,380.46z"/>
  <path class="st1" d="M1102.9,482.6h-91.46v17.72h91.46V482.6z"/>
  <path class="st0" d="M770.57,451.24v-77.5h-49.26v17.71h25.84v59.79h-25.84v17.71h75.1v-17.71H770.57L770.57,451.24z"/>
  <text style="fill: rgb(42, 47, 61); font-family: Arial, sans-serif; font-size: 25.3px; font-weight: 700; white-space: pre;" transform="matrix(6.556304931640626, 0, 0, 6.363564968109132, -471.7248468697902, -2932.631306340251)" x="84.189" y="560.681">COMMUNITY</text>
</svg>