<svg width="16" height="16" viewBox="0 0 16 16" fill="none" xmlns="http://www.w3.org/2000/svg">
<g clip-path="url(#clip0_212_18452)">
<path d="M4.77692 11.3333V9.27778C4.77692 9.05676 4.68912 8.8448 4.53284 8.68852C4.37656 8.53224 4.1646 8.44444 3.94359 8.44444H3.66581V7.55556H3.94359C4.1646 7.55556 4.37656 7.46776 4.53284 7.31148C4.68912 7.1552 4.77692 6.94324 4.77692 6.72222V4.66667C4.77692 4.22464 4.95252 3.80072 5.26508 3.48816C5.57764 3.17559 6.00156 3 6.44359 3H6.99915V4.11111H6.44359C6.29625 4.11111 6.15494 4.16964 6.05075 4.27383C5.94657 4.37802 5.88803 4.51932 5.88803 4.66667V6.94444C5.88809 7.17834 5.81434 7.40629 5.67728 7.59582C5.54022 7.78535 5.34684 7.92679 5.1247 8C5.34684 8.07321 5.54022 8.21465 5.67728 8.40418C5.81434 8.59371 5.88809 8.82166 5.88803 9.05556V11.3333C5.88803 11.4807 5.94657 11.622 6.05075 11.7262C6.15494 11.8304 6.29625 11.8889 6.44359 11.8889H6.99915V13H6.44359C6.00156 13 5.57764 12.8244 5.26508 12.5118C4.95252 12.1993 4.77692 11.7754 4.77692 11.3333Z" fill="#4C5664"/>
<path d="M1.4444 11.3333V9.27778C1.4444 9.05676 1.35661 8.8448 1.20033 8.68852C1.04404 8.53224 0.832083 8.44444 0.61107 8.44444H0.333292V7.55556H0.61107C0.832083 7.55556 1.04404 7.46776 1.20033 7.31148C1.35661 7.1552 1.4444 6.94324 1.4444 6.72222V4.66667C1.4444 4.22464 1.62 3.80072 1.93256 3.48816C2.24512 3.17559 2.66904 3 3.11107 3H3.66663V4.11111H3.11107C2.96373 4.11111 2.82242 4.16964 2.71823 4.27383C2.61405 4.37802 2.55551 4.51932 2.55551 4.66667V6.94444C2.55557 7.17834 2.48182 7.40629 2.34476 7.59582C2.2077 7.78535 2.01432 7.92679 1.79218 8C2.01432 8.07321 2.2077 8.21465 2.34476 8.40418C2.48182 8.59371 2.55557 8.82166 2.55551 9.05556V11.3333C2.55551 11.4807 2.61405 11.622 2.71823 11.7262C2.82242 11.8304 2.96373 11.8889 3.11107 11.8889H3.66663V13H3.11107C2.66904 13 2.24512 12.8244 1.93256 12.5118C1.62 12.1993 1.4444 11.7754 1.4444 11.3333Z" fill="#4C5664"/>
<path d="M12.0005 11.3333V9.27778C12.0005 9.05676 12.0795 8.8448 12.2202 8.68852C12.3609 8.53224 12.5517 8.44444 12.7507 8.44444H13.0008V7.55556H12.7507C12.5517 7.55556 12.3609 7.46776 12.2202 7.31148C12.0795 7.1552 12.0005 6.94324 12.0005 6.72222V4.66667C12.0005 4.22464 11.8424 3.80072 11.561 3.48816C11.2796 3.17559 10.898 3 10.5001 3H9.99994V4.11111H10.5001C10.6327 4.11111 10.7599 4.16964 10.8537 4.27383C10.9475 4.37802 11.0002 4.51932 11.0002 4.66667V6.94444C11.0002 7.17834 11.0666 7.40629 11.1899 7.59582C11.3133 7.78535 11.4874 7.92679 11.6874 8C11.4874 8.07321 11.3133 8.21465 11.1899 8.40418C11.0666 8.59371 11.0002 8.82166 11.0002 9.05556V11.3333C11.0002 11.4807 10.9475 11.622 10.8537 11.7262C10.7599 11.8304 10.6327 11.8889 10.5001 11.8889H9.99994V13H10.5001C10.898 13 11.2796 12.8244 11.561 12.5118C11.8424 12.1993 12.0005 11.7754 12.0005 11.3333Z" fill="#4C5664"/>
<path d="M15.0006 11.3333V9.27778C15.0006 9.05676 15.0797 8.8448 15.2204 8.68852C15.3611 8.53224 15.5519 8.44444 15.7508 8.44444H16.0009V7.55556H15.7508C15.5519 7.55556 15.3611 7.46776 15.2204 7.31148C15.0797 7.1552 15.0006 6.94324 15.0006 6.72222V4.66667C15.0006 4.22464 14.8426 3.80072 14.5612 3.48816C14.2798 3.17559 13.8982 3 13.5002 3H13.0001V4.11111H13.5002C13.6329 4.11111 13.7601 4.16964 13.8539 4.27383C13.9477 4.37802 14.0004 4.51932 14.0004 4.66667V6.94444C14.0003 7.17834 14.0667 7.40629 14.1901 7.59582C14.3135 7.78535 14.4876 7.92679 14.6875 8C14.4876 8.07321 14.3135 8.21465 14.1901 8.40418C14.0667 8.59371 14.0003 8.82166 14.0004 9.05556V11.3333C14.0004 11.4807 13.9477 11.622 13.8539 11.7262C13.7601 11.8304 13.6329 11.8889 13.5002 11.8889H13.0001V13H13.5002C13.8982 13 14.2798 12.8244 14.5612 12.5118C14.8426 12.1993 15.0006 11.7754 15.0006 11.3333Z" fill="#4C5664"/>
</g>
<defs>
<clipPath id="clip0_212_18452">
<rect width="16" height="16" fill="white"/>
</clipPath>
</defs>
</svg>
