<svg width="16" height="16" viewBox="0 0 16 16" fill="none" xmlns="http://www.w3.org/2000/svg">
<path d="M10.4653 8.78343C10.4813 8.52259 10.4448 8.26119 10.3583 8.01533C10.2717 7.76946 10.1369 7.54436 9.96212 7.35389C9.78734 7.16342 9.5763 7.01162 9.34202 6.90785C9.10774 6.80409 8.85518 6.75056 8.59991 6.75056C8.34464 6.75056 8.09208 6.80409 7.8578 6.90785C7.62352 7.01162 7.41248 7.16342 7.2377 7.35389C7.06292 7.54436 6.9281 7.76946 6.84155 8.01533C6.755 8.26119 6.71856 8.52259 6.73448 8.78343C6.76412 9.26934 6.97356 9.7254 7.32014 10.0588C7.66672 10.3921 8.12437 10.5777 8.59991 10.5777C9.07545 10.5777 9.5331 10.3921 9.87968 10.0588C10.2263 9.7254 10.4357 9.26934 10.4653 8.78343ZM11.709 8.78343C11.6966 9.48251 11.4595 10.1579 11.0344 10.7051C10.6092 11.2523 10.0198 11.6408 9.35723 11.8104C8.69468 11.9799 7.99601 11.9212 7.36937 11.6432C6.74273 11.3652 6.22307 10.8835 5.89085 10.2726C5.56104 10.8802 5.04579 11.3605 4.424 11.6397C3.80221 11.919 3.10815 11.982 2.44809 11.8189C1.78803 11.6559 1.19835 11.2759 0.769343 10.7371C0.340333 10.1982 0.0956392 9.53031 0.0727265 8.83555H0V3.57139C0.0166056 3.41442 0.0892715 3.26926 0.204041 3.1638C0.318811 3.05833 0.467593 3 0.621812 3C0.77603 3 0.924812 3.05833 1.03958 3.1638C1.15435 3.26926 1.22702 3.41442 1.24362 3.57139V6.26676C1.60094 5.98944 2.01268 5.79463 2.45054 5.69572C2.88839 5.59682 3.34197 5.59616 3.7801 5.69379C4.21822 5.79143 4.6305 5.98504 4.98859 6.26132C5.34667 6.5376 5.64208 6.88999 5.85448 7.29427C6.17777 6.66431 6.69814 6.1636 7.33231 5.87229C7.96647 5.58098 8.67777 5.5159 9.35233 5.68749C10.0269 5.85907 10.6257 6.25739 11.053 6.81869C11.4803 7.37999 11.7112 8.07181 11.709 8.78343ZM4.97449 8.78343C4.99041 8.52259 4.95397 8.26119 4.86742 8.01533C4.78087 7.76946 4.64605 7.54436 4.47127 7.35389C4.29649 7.16342 4.08545 7.01162 3.85117 6.90785C3.61688 6.80409 3.36432 6.75056 3.10906 6.75056C2.85379 6.75056 2.60123 6.80409 2.36695 6.90785C2.13267 7.01162 1.92163 7.16342 1.74685 7.35389C1.57207 7.54436 1.43724 7.76946 1.3507 8.01533C1.26415 8.26119 1.22771 8.52259 1.24362 8.78343C1.27327 9.26934 1.48271 9.7254 1.82929 10.0588C2.17587 10.3921 2.63352 10.5777 3.10906 10.5777C3.58459 10.5777 4.04225 10.3921 4.38883 10.0588C4.73541 9.7254 4.94484 9.26934 4.97449 8.78343ZM15.8835 10.9576C15.9589 11.0692 15.9995 11.2016 15.9998 11.3373C16.001 11.4358 15.9792 11.5331 15.9362 11.6212C15.8931 11.7092 15.8302 11.7855 15.7526 11.8436C15.6446 11.924 15.5151 11.9682 15.3817 11.9702C15.2925 11.9749 15.2035 11.9586 15.1216 11.9224C15.0396 11.8863 14.9668 11.8313 14.9089 11.7617L13.5199 9.87796L12.1453 11.7617C12.0867 11.8362 12.0124 11.8962 11.9281 11.9375C11.8438 11.9787 11.7515 12.0001 11.6581 12C11.5205 11.996 11.3868 11.9521 11.2726 11.8734C11.197 11.8122 11.1361 11.734 11.0945 11.645C11.0529 11.556 11.0317 11.4584 11.0326 11.3597C11.0357 11.2267 11.0761 11.0975 11.149 10.9874L12.7271 8.78343L11.149 6.60182C11.0719 6.49388 11.031 6.36324 11.0326 6.22953C11.0334 6.13218 11.0553 6.03623 11.0968 5.94865C11.1383 5.86107 11.1984 5.78406 11.2726 5.72322C11.4047 5.62316 11.5696 5.57965 11.7325 5.60189C11.8954 5.62412 12.0434 5.71036 12.1453 5.84235L13.5199 7.71868L14.9089 5.84235C14.9562 5.77716 15.0157 5.72227 15.0839 5.6809C15.1522 5.63953 15.2278 5.61251 15.3063 5.60141C15.3849 5.59032 15.4648 5.59538 15.5414 5.61629C15.618 5.63721 15.6898 5.67356 15.7526 5.72322C15.8313 5.78366 15.8949 5.86249 15.9379 5.95314C15.9809 6.0438 16.0021 6.14366 15.9998 6.24442C16.0015 6.37357 15.9605 6.4995 15.8835 6.60182L14.298 8.78343L15.8835 11.0172V10.9576Z" fill="black"/>
</svg>
