<svg width="14" height="12" viewBox="0 0 14 12" fill="none" xmlns="http://www.w3.org/2000/svg">
<path d="M1.83333 10V7.53333C1.83333 7.26812 1.72798 7.01376 1.54044 6.82623C1.3529 6.63869 1.09855 6.53333 0.833333 6.53333H0.5V5.46667H0.833333C0.964655 5.46667 1.09469 5.4408 1.21602 5.39055C1.33734 5.34029 1.44758 5.26663 1.54044 5.17377C1.6333 5.08091 1.70696 4.97068 1.75721 4.84935C1.80747 4.72802 1.83333 4.59799 1.83333 4.46667V2C1.83333 1.46957 2.04405 0.960859 2.41912 0.585787C2.79419 0.210714 3.3029 0 3.83333 0H4.5V1.33333H3.83333C3.65652 1.33333 3.48695 1.40357 3.36193 1.5286C3.2369 1.65362 3.16667 1.82319 3.16667 2V4.73333C3.16674 5.01401 3.07823 5.28755 2.91376 5.51498C2.74929 5.74242 2.51724 5.91215 2.25067 6C2.51724 6.08785 2.74929 6.25758 2.91376 6.48502C3.07823 6.71245 3.16674 6.98599 3.16667 7.26667V10C3.16667 10.1768 3.2369 10.3464 3.36193 10.4714C3.48695 10.5964 3.65652 10.6667 3.83333 10.6667H4.5V12H3.83333C3.3029 12 2.79419 11.7893 2.41912 11.4142C2.04405 11.0391 1.83333 10.5304 1.83333 10ZM12.5 7.53333V10C12.5 10.5304 12.2893 11.0391 11.9142 11.4142C11.5391 11.7893 11.0304 12 10.5 12H9.83333V10.6667H10.5C10.6768 10.6667 10.8464 10.5964 10.9714 10.4714C11.0964 10.3464 11.1667 10.1768 11.1667 10V7.26667C11.1666 6.98599 11.2551 6.71245 11.4196 6.48502C11.584 6.25758 11.8161 6.08785 12.0827 6C11.8161 5.91215 11.584 5.74242 11.4196 5.51498C11.2551 5.28755 11.1666 5.01401 11.1667 4.73333V2C11.1667 1.82319 11.0964 1.65362 10.9714 1.5286C10.8464 1.40357 10.6768 1.33333 10.5 1.33333H9.83333V0H10.5C11.0304 0 11.5391 0.210714 11.9142 0.585787C12.2893 0.960859 12.5 1.46957 12.5 2V4.46667C12.5 4.73188 12.6054 4.98624 12.7929 5.17377C12.9804 5.36131 13.2348 5.46667 13.5 5.46667H13.8333V6.53333H13.5C13.2348 6.53333 12.9804 6.63869 12.7929 6.82623C12.6054 7.01376 12.5 7.26812 12.5 7.53333Z" fill="#4C5664"/>
</svg>
