<svg width="16" height="16" viewBox="0 0 16 16" fill="none" xmlns="http://www.w3.org/2000/svg">
<path fill-rule="evenodd" clip-rule="evenodd" d="M10.5267 1.34209C10.6125 1.18815 10.7558 1.07445 10.9252 1.02585C11.0946 0.97725 11.2764 0.997709 11.4307 1.08275L14.6554 2.86015C14.7323 2.90258 14.8001 2.95979 14.8548 3.02849C14.9095 3.09719 14.9501 3.17602 14.9743 3.26046C14.9984 3.3449 15.0057 3.43328 14.9956 3.52053C14.9855 3.60777 14.9582 3.69216 14.9154 3.76885L13.8434 5.69225C13.1451 6.9476 12.0058 7.89907 10.646 8.36235L14.5908 10.5364C14.6677 10.5788 14.7355 10.636 14.7903 10.7046C14.8451 10.7733 14.8858 10.8521 14.91 10.9366C14.9342 11.021 14.9415 11.1094 14.9315 11.1967C14.9214 11.284 14.8942 11.3684 14.8514 11.4451L13.0647 14.6519C12.9788 14.8059 12.8354 14.9196 12.6658 14.9681C12.4963 15.0166 12.3144 14.9959 12.1601 14.9106L7.64666 12.4225C7.45901 12.3186 7.23786 12.2931 7.03151 12.3517C6.82516 12.4103 6.65037 12.5481 6.54531 12.7352L5.4733 14.6579C5.38749 14.8118 5.24422 14.9256 5.07481 14.9741C4.90541 15.0227 4.72365 15.0023 4.56929 14.9172L1.34457 13.1405C1.26768 13.0981 1.19993 13.0409 1.14521 12.9722C1.09049 12.9035 1.04988 12.8246 1.02572 12.7402C1.00156 12.6558 0.994323 12.5674 1.00442 12.4801C1.01452 12.3929 1.04176 12.3085 1.08457 12.2318L2.15659 10.3084C2.85488 9.05307 3.99425 8.10159 5.35396 7.63832L1.40924 5.46424C1.33229 5.42187 1.26447 5.3647 1.20969 5.29602C1.1549 5.22735 1.11423 5.14853 1.09 5.06408C1.06578 4.97964 1.05848 4.89124 1.06854 4.80397C1.07859 4.7167 1.10579 4.63227 1.14857 4.55554L2.93526 1.34876C3.02119 1.19475 3.16463 1.08107 3.33418 1.03258C3.50374 0.984103 3.6856 1.00478 3.83994 1.09009L8.354 3.57817C8.74668 3.79485 9.23935 3.65151 9.45402 3.26616L10.5274 1.34209H10.5267ZM11.3687 2.5708L10.6194 3.91485C10.3426 4.40945 9.88136 4.77447 9.33641 4.93023C8.79146 5.08598 8.20702 5.01983 7.71066 4.74622L3.77727 2.57814L2.63993 4.61955L6.56731 6.78429C8.74068 7.98233 11.4774 7.19964 12.6794 5.04289L13.4261 3.70418L11.3694 2.5708H11.3687ZM9.43335 9.21638C7.25999 8.01833 4.52328 8.80103 3.32127 10.9578L2.57459 12.2965L4.63195 13.4299L5.3813 12.0858C5.65796 11.5911 6.11918 11.2259 6.66418 11.0702C7.20918 10.9144 7.79369 10.9807 8.29 11.2544L12.2227 13.4225L13.3607 11.3811L9.43335 9.21638Z" fill="black"/>
</svg>
