<svg xmlns="http://www.w3.org/2000/svg" width="16" height="16" viewBox="0 0 16 16" fill="none">
  <path d="M2.66683 12V9.53333C2.66683 9.26812 2.56147 9.01376 2.37394 8.82623C2.1864 8.63869 1.93205 8.53333 1.66683 8.53333H1.3335V7.46667H1.66683C1.79815 7.46667 1.92819 7.4408 2.04951 7.39055C2.17084 7.34029 2.28108 7.26663 2.37394 7.17377C2.46679 7.08092 2.54045 6.97068 2.59071 6.84935C2.64096 6.72802 2.66683 6.59799 2.66683 6.46667V4C2.66683 3.46957 2.87754 2.96086 3.25262 2.58579C3.62769 2.21071 4.1364 2 4.66683 2H5.3335V3.33333H4.66683C4.49002 3.33333 4.32045 3.40357 4.19543 3.5286C4.0704 3.65362 4.00016 3.82319 4.00016 4V6.73333C4.00023 7.01401 3.91173 7.28755 3.74726 7.51498C3.58278 7.74242 3.35073 7.91215 3.08416 8C3.35073 8.08785 3.58278 8.25758 3.74726 8.48502C3.91173 8.71245 4.00023 8.98599 4.00016 9.26667V12C4.00016 12.1768 4.0704 12.3464 4.19543 12.4714C4.32045 12.5964 4.49002 12.6667 4.66683 12.6667H5.3335V14H4.66683C4.1364 14 3.62769 13.7893 3.25262 13.4142C2.87754 13.0391 2.66683 12.5304 2.66683 12V12ZM13.3335 9.53333V12C13.3335 12.5304 13.1228 13.0391 12.7477 13.4142C12.3726 13.7893 11.8639 14 11.3335 14H10.6668V12.6667H11.3335C11.5103 12.6667 11.6799 12.5964 11.8049 12.4714C11.9299 12.3464 12.0002 12.1768 12.0002 12V9.26667C12.0001 8.98599 12.0886 8.71245 12.2531 8.48502C12.4175 8.25758 12.6496 8.08785 12.9162 8C12.6496 7.91215 12.4175 7.74242 12.2531 7.51498C12.0886 7.28755 12.0001 7.01401 12.0002 6.73333V4C12.0002 3.82319 11.9299 3.65362 11.8049 3.5286C11.6799 3.40357 11.5103 3.33333 11.3335 3.33333H10.6668V2H11.3335C11.8639 2 12.3726 2.21071 12.7477 2.58579C13.1228 2.96086 13.3335 3.46957 13.3335 4V6.46667C13.3335 6.73188 13.4389 6.98624 13.6264 7.17377C13.8139 7.36131 14.0683 7.46667 14.3335 7.46667H14.6668V8.53333H14.3335C14.0683 8.53333 13.8139 8.63869 13.6264 8.82623C13.4389 9.01376 13.3335 9.26812 13.3335 9.53333V9.53333Z" fill="#4C5664"/>
</svg>