<svg xmlns="http://www.w3.org/2000/svg" width="16" height="16" fill="none"><g fill="#000" clip-path="url(#a)"><path fill-rule="evenodd" d="M14 4.5V8h-1V4.5h-2A1.5 1.5 0 0 1 9.5 3V1H4a1 1 0 0 0-1 1v6H2V2a2 2 0 0 1 2-2h5.5L14 4.5Z" clip-rule="evenodd"/><path d="m12.409 15.31-2.063-6.22H11.8l1.158 4.063.117.418.127-.423 1.162-4.058h1.454l-2.068 6.22h-1.34ZM9.073 13.687a.749.749 0 0 0-.276-.586 1.656 1.656 0 0 0-.404-.226 3.797 3.797 0 0 0-.609-.197 5.53 5.53 0 0 1-.998-.341 2.966 2.966 0 0 1-.699-.44 1.685 1.685 0 0 1-.412-.53 1.474 1.474 0 0 1-.136-.633c0-.261.06-.5.183-.713.121-.214.29-.396.506-.547.215-.15.47-.266.764-.346.294-.082.612-.124.956-.124.356 0 .681.047.975.141.297.094.552.225.764.393.213.171.378.373.497.607.119.234.178.49.178.769H9.078a1.093 1.093 0 0 0-.085-.384.818.818 0 0 0-.21-.304 1.028 1.028 0 0 0-.361-.192 1.528 1.528 0 0 0-.497-.073c-.175 0-.332.02-.47.06-.133.037-.248.09-.341.158a.68.68 0 0 0-.286.56c0 .117.031.222.094.316.065.094.159.178.28.252.123.077.27.147.441.21.175.062.372.12.591.175.234.06.458.132.67.217.213.086.408.184.586.295.27.182.483.395.643.637.159.242.239.521.239.837 0 .274-.061.517-.183.73-.119.212-.285.39-.497.535-.213.148-.466.26-.76.337a3.923 3.923 0 0 1-.96.111c-.341 0-.679-.045-1.013-.136a2.727 2.727 0 0 1-.867-.41 2.07 2.07 0 0 1-.558-.624 1.69 1.69 0 0 1-.202-.842h1.294c.006.188.042.35.108.483a.87.87 0 0 0 .277.329c.115.085.254.148.417.188.165.04.347.06.544.06.175 0 .33-.019.464-.056.137-.037.253-.088.347-.154a.693.693 0 0 0 .215-.235.645.645 0 0 0 .075-.307ZM4.983 13.362a2.17 2.17 0 0 1-.225.846c-.125.25-.294.464-.506.64a2.3 2.3 0 0 1-.76.411 3.187 3.187 0 0 1-.975.141c-.281 0-.542-.033-.783-.098a2.336 2.336 0 0 1-.642-.29 2.19 2.19 0 0 1-.469-.424 2.648 2.648 0 0 1-.342-.547c-.09-.199-.16-.418-.21-.658a3.95 3.95 0 0 1-.071-.76v-.837c0-.251.022-.489.066-.714.043-.228.109-.438.197-.632.1-.237.23-.447.393-.633.163-.185.347-.341.553-.47.185-.108.386-.19.605-.247.222-.06.46-.09.713-.09.375 0 .707.048.998.145.294.097.544.235.75.415.206.18.369.398.487.658.12.259.194.55.226.876H3.675a1.808 1.808 0 0 0-.094-.488.916.916 0 0 0-.206-.35.887.887 0 0 0-.352-.205 1.503 1.503 0 0 0-.496-.073c-.104 0-.2.01-.291.03a.945.945 0 0 0-.572.384 1.612 1.612 0 0 0-.21.44c-.041.132-.071.277-.09.437a4.29 4.29 0 0 0-.028.508v.846c0 .248.014.47.042.667.031.193.078.363.14.508.044.1.096.188.155.265a.95.95 0 0 0 .492.32c.107.026.224.039.352.039.172 0 .327-.02.464-.06a.903.903 0 0 0 .352-.188.89.89 0 0 0 .23-.33c.056-.133.09-.294.103-.482h1.317Z"/></g><defs><clipPath id="a"><path fill="#fff" d="M0 0h16v16H0z"/></clipPath></defs></svg>