<svg width="16" height="16" viewBox="0 0 16 16" fill="none" xmlns="http://www.w3.org/2000/svg">
<path d="M13.4 3.5C13.4 4.14001 12.909 4.85573 11.8117 5.44659C10.7389 6.02429 9.21551 6.4 7.5 6.4C5.78449 6.4 4.26114 6.02429 3.18827 5.44659C2.09095 4.85573 1.6 4.14001 1.6 3.5C1.6 2.85999 2.09095 2.14427 3.18827 1.55341C4.26114 0.975708 5.78449 0.6 7.5 0.6C9.21551 0.6 10.7389 0.975708 11.8117 1.55341C12.909 2.14427 13.4 2.85999 13.4 3.5Z" stroke="#4C5664" stroke-width="1.2"/>
<path d="M4.21653 10.2149C4.5314 10.3182 4.87036 10.1467 4.97363 9.83179C5.0769 9.51692 4.90536 9.17796 4.5905 9.07469L4.21653 10.2149ZM2.2001 7.5V3.5H1.0001V7.5H2.2001ZM4.5905 9.07469C3.89823 8.84764 3.25762 8.5286 2.80329 8.19397C2.57578 8.0264 2.41316 7.86821 2.31248 7.73222C2.2093 7.59285 2.2001 7.51705 2.2001 7.5H1.0001C1.0001 7.86492 1.15654 8.18759 1.34803 8.44624C1.54202 8.70827 1.80308 8.94764 2.09164 9.16018C2.66947 9.58576 3.43057 9.95715 4.21653 10.2149L4.5905 9.07469Z" fill="currentColor"/>
<path d="M5.31323 14.6983C5.64076 14.7487 5.94707 14.5239 5.9974 14.1964C6.04773 13.8689 5.82303 13.5626 5.4955 13.5122L5.31323 14.6983ZM2.2001 11.5V7.5H1.0001V11.5H2.2001ZM5.4955 13.5122C4.41314 13.3459 3.55492 13.0412 2.98467 12.6612C2.41765 12.2833 2.2001 11.8823 2.2001 11.5H1.0001C1.0001 12.4204 1.55094 13.1478 2.31918 13.6597C3.08419 14.1696 4.1281 14.5162 5.31323 14.6983L5.4955 13.5122Z" fill="currentColor"/>
<path d="M13.4 3.5C13.4 4.14001 12.909 4.85573 11.8117 5.44659C10.7389 6.02429 9.21551 6.4 7.5 6.4C5.78449 6.4 4.26114 6.02429 3.18827 5.44659C2.09095 4.85573 1.6 4.14001 1.6 3.5C1.6 2.85999 2.09095 2.14427 3.18827 1.55341C4.26114 0.975708 5.78449 0.6 7.5 0.6C9.21551 0.6 10.7389 0.975708 11.8117 1.55341C12.909 2.14427 13.4 2.85999 13.4 3.5Z" stroke="#4C5664" stroke-width="1.2"/>
<path d="M12.7999 6.4C12.7999 6.73137 13.0685 7 13.3999 7C13.7313 7 13.9999 6.73137 13.9999 6.4H12.7999ZM12.7999 3.5V6.4H13.9999V3.5H12.7999Z" fill="currentColor"/>
<path d="M4.21653 10.2149C4.5314 10.3182 4.87036 10.1467 4.97363 9.83179C5.0769 9.51692 4.90536 9.17796 4.5905 9.07469L4.21653 10.2149ZM2.2001 7.5V3.5H1.0001V7.5H2.2001ZM4.5905 9.07469C3.89823 8.84764 3.25762 8.5286 2.80329 8.19397C2.57578 8.0264 2.41316 7.86821 2.31248 7.73222C2.2093 7.59285 2.2001 7.51705 2.2001 7.5H1.0001C1.0001 7.86492 1.15654 8.18759 1.34803 8.44624C1.54202 8.70827 1.80308 8.94764 2.09164 9.16018C2.66947 9.58576 3.43057 9.95715 4.21653 10.2149L4.5905 9.07469Z" fill="currentColor"/>
<path d="M5.31323 14.6983C5.64076 14.7487 5.94707 14.5239 5.9974 14.1964C6.04773 13.8689 5.82303 13.5626 5.4955 13.5122L5.31323 14.6983ZM2.2001 11.5V7.5H1.0001V11.5H2.2001ZM5.4955 13.5122C4.41314 13.3459 3.55492 13.0412 2.98467 12.6612C2.41765 12.2833 2.2001 11.8823 2.2001 11.5H1.0001C1.0001 12.4204 1.55094 13.1478 2.31918 13.6597C3.08419 14.1696 4.1281 14.5162 5.31323 14.6983L5.4955 13.5122Z" fill="currentColor"/>
<path fill-rule="evenodd" clip-rule="evenodd" d="M11.0179 8.5C11.0179 8.22386 11.2417 8 11.5179 8H11.7179C11.994 8 12.2179 8.22386 12.2179 8.5V8.77256C12.2179 9.00885 12.3852 9.20851 12.6072 9.28943C12.9252 9.40537 13.2172 9.57554 13.4718 9.78876C13.6526 9.9401 13.9086 9.98468 14.1128 9.86681L14.3489 9.73047C14.588 9.5924 14.8938 9.67433 15.0319 9.91348L15.1319 10.0867C15.27 10.3258 15.188 10.6316 14.9489 10.7697L14.7166 10.9038C14.5119 11.022 14.4226 11.267 14.4638 11.4999C14.4929 11.6644 14.508 11.8336 14.508 12.0064C14.508 12.1759 14.4934 12.3419 14.4655 12.5034C14.4252 12.7356 14.5146 12.9796 14.7187 13.0974L14.9489 13.2303C15.188 13.3684 15.27 13.6742 15.1319 13.9133L15.0319 14.0865C14.8938 14.3257 14.588 14.4076 14.3489 14.2695L14.1217 14.1384C13.9169 14.0201 13.6601 14.0654 13.4793 14.2178C13.2229 14.4339 12.9283 14.6063 12.6072 14.7234C12.3852 14.8043 12.2179 15.004 12.2179 15.2402V15.5C12.2179 15.7761 11.994 16 11.7179 16H11.5179C11.2417 16 11.0179 15.7761 11.0179 15.5V15.2409C11.0179 15.0044 10.8503 14.8047 10.6282 14.7239C10.3068 14.6069 10.012 14.4345 9.75538 14.2183C9.57457 14.066 9.3178 14.0208 9.11305 14.139L8.88672 14.2697C8.64758 14.4078 8.34178 14.3258 8.20371 14.0867L8.10371 13.9135C7.96564 13.6743 8.04758 13.3685 8.28672 13.2305L8.51547 13.0984C8.71966 12.9805 8.80901 12.7365 8.7687 12.5042C8.74063 12.3425 8.72601 12.1761 8.72601 12.0064C8.72601 11.8333 8.74122 11.6638 8.77037 11.4991C8.8116 11.2662 8.72239 11.0211 8.51756 10.9028L8.2867 10.7695C8.04756 10.6315 7.96562 10.3257 8.10369 10.0865L8.20369 9.91331C8.34176 9.67417 8.64756 9.59223 8.8867 9.7303L9.12203 9.86616C9.32614 9.98401 9.58207 9.93949 9.76283 9.78823C10.0177 9.57495 10.3099 9.40478 10.6282 9.28893C10.8503 9.20808 11.0179 9.00836 11.0179 8.77196V8.5ZM11.617 13.7769C12.5996 13.7769 13.3961 12.9804 13.3961 11.9978C13.3961 11.0153 12.5996 10.2188 11.617 10.2188C10.6345 10.2188 9.83796 11.0153 9.83796 11.9978C9.83796 12.9804 10.6345 13.7769 11.617 13.7769Z" fill="currentColor"/>
</svg>
