<svg width="24" height="24" viewBox="0 0 24 24" fill="none" xmlns="http://www.w3.org/2000/svg">
<path fill-rule="evenodd" clip-rule="evenodd" d="M6.12168 3.33862C4.63388 4.16518 4 5.14736 4 6C4 6.85264 4.63388 7.83482 6.12168 8.66138C7.57561 9.46911 9.65195 10 12 10C14.3481 10 16.4244 9.46911 17.8783 8.66138C19.3661 7.83482 20 6.85264 20 6C20 5.14736 19.3661 4.16518 17.8783 3.33862C16.4244 2.53089 14.3481 2 12 2C9.65195 2 7.57561 2.53089 6.12168 3.33862ZM5.1504 1.59031C6.95383 0.588402 9.37749 0 12 0C14.6225 0 17.0462 0.588402 18.8496 1.59031C20.6192 2.5734 22 4.09122 22 6C22 6.16979 21.9891 6.33649 21.9679 6.5H22V12.5V18.5C22 20.3255 20.5462 21.7089 18.8112 22.5764C17.0164 23.4738 14.6069 24 12 24C9.39314 24 6.98362 23.4738 5.18883 22.5764C3.45384 21.7089 2 20.3255 2 18.5V12.5V6.5H2.03208C2.01093 6.33649 2 6.16979 2 6C2 4.09122 3.38084 2.5734 5.1504 1.59031ZM4 15.8605V18.5C4 19.1598 4.56088 20.0264 6.08325 20.7876C7.54581 21.5188 9.6363 22 12 22C14.3637 22 16.4542 21.5188 17.9167 20.7876C19.4391 20.0264 20 19.1598 20 18.5V15.8605C19.631 16.1284 19.2292 16.3674 18.8112 16.5764C17.0164 17.4738 14.6069 18 12 18C9.39314 18 6.98362 17.4738 5.18883 16.5764C4.77076 16.3674 4.36901 16.1284 4 15.8605ZM4 12.5V9.64574C4.35466 9.92767 4.74219 10.1829 5.1504 10.4097C6.95383 11.4116 9.37749 12 12 12C14.6225 12 17.0462 11.4116 18.8496 10.4097C19.2578 10.1829 19.6453 9.92767 20 9.64574V12.5C20 13.1598 19.4391 14.0264 17.9167 14.7876C16.4542 15.5188 14.3637 16 12 16C9.6363 16 7.54581 15.5188 6.08325 14.7876C4.56088 14.0264 4 13.1598 4 12.5Z" fill="currentColor"/>
</svg>
