<svg width="16" height="16" viewBox="0 0 16 16" fill="none" xmlns="http://www.w3.org/2000/svg">
<path fill-rule="evenodd" clip-rule="evenodd" d="M11.5273 4.91831C12.5456 4.36996 12.8 3.81352 12.8 3.5C12.8 3.18648 12.5456 2.63004 11.5273 2.08169C10.5578 1.55967 9.13609 1.2 7.5 1.2C5.86391 1.2 4.4422 1.55967 3.47273 2.08169C2.45437 2.63004 2.2 3.18648 2.2 3.5C2.2 3.81352 2.45437 4.36996 3.47273 4.91831C4.4422 5.44033 5.86391 5.8 7.5 5.8C9.13609 5.8 10.5578 5.44033 11.5273 4.91831ZM7.5 7C11.0899 7 14 5.433 14 3.5C14 1.567 11.0899 0 7.5 0C3.91015 0 1 1.567 1 3.5C1 5.433 3.91015 7 7.5 7Z" fill="currentColor"/>
<path fill-rule="evenodd" clip-rule="evenodd" d="M2.2 3.5V7.5C2.2 7.51705 2.20921 7.59285 2.31238 7.73222C2.41306 7.86821 2.57568 8.0264 2.80319 8.19397C3.25752 8.5286 3.89813 8.84764 4.5904 9.07469C4.90527 9.17796 5.0768 9.51692 4.97353 9.83179C4.87027 10.1467 4.5313 10.3182 4.21643 10.2149C3.43047 9.95715 2.66937 9.58576 2.09155 9.16018C1.80298 8.94764 1.54192 8.70827 1.34793 8.44624C1.15644 8.18759 1 7.86492 1 7.5V3.5H2.2Z" fill="currentColor"/>
<path fill-rule="evenodd" clip-rule="evenodd" d="M2.2 7.5V11.5C2.2 11.8823 2.41755 12.2833 2.98457 12.6612C3.55483 13.0412 4.41304 13.3459 5.4954 13.5122C5.82293 13.5626 6.04764 13.8689 5.9973 14.1964C5.94697 14.5239 5.64066 14.7487 5.31313 14.6983C4.12801 14.5162 3.08409 14.1696 2.31909 13.6597C1.55084 13.1478 1 12.4204 1 11.5V7.5H2.2Z" fill="currentColor"/>
<path fill-rule="evenodd" clip-rule="evenodd" d="M11.5273 4.91831C12.5456 4.36996 12.8 3.81352 12.8 3.5C12.8 3.18648 12.5456 2.63004 11.5273 2.08169C10.5578 1.55967 9.13609 1.2 7.5 1.2C5.86391 1.2 4.4422 1.55967 3.47273 2.08169C2.45437 2.63004 2.2 3.18648 2.2 3.5C2.2 3.81352 2.45437 4.36996 3.47273 4.91831C4.4422 5.44033 5.86391 5.8 7.5 5.8C9.13609 5.8 10.5578 5.44033 11.5273 4.91831ZM7.5 7C11.0899 7 14 5.433 14 3.5C14 1.567 11.0899 0 7.5 0C3.91015 0 1 1.567 1 3.5C1 5.433 3.91015 7 7.5 7Z" fill="currentColor"/>
<path fill-rule="evenodd" clip-rule="evenodd" d="M12.7998 6.4V3.5H13.9998V6.4C13.9998 6.73137 13.7312 7 13.3998 7C13.0684 7 12.7998 6.73137 12.7998 6.4Z" fill="currentColor"/>
<path fill-rule="evenodd" clip-rule="evenodd" d="M2.2 3.5V7.5C2.2 7.51705 2.20921 7.59285 2.31238 7.73222C2.41306 7.86821 2.57568 8.0264 2.80319 8.19397C3.25752 8.5286 3.89813 8.84764 4.5904 9.07469C4.90527 9.17796 5.0768 9.51692 4.97353 9.83179C4.87027 10.1467 4.5313 10.3182 4.21643 10.2149C3.43047 9.95715 2.66937 9.58576 2.09155 9.16018C1.80298 8.94764 1.54192 8.70827 1.34793 8.44624C1.15644 8.18759 1 7.86492 1 7.5V3.5H2.2Z" fill="currentColor"/>
<path fill-rule="evenodd" clip-rule="evenodd" d="M2.2 7.5V11.5C2.2 11.8823 2.41755 12.2833 2.98457 12.6612C3.55483 13.0412 4.41304 13.3459 5.4954 13.5122C5.82293 13.5626 6.04764 13.8689 5.9973 14.1964C5.94697 14.5239 5.64066 14.7487 5.31313 14.6983C4.12801 14.5162 3.08409 14.1696 2.31909 13.6597C1.55084 13.1478 1 12.4204 1 11.5V7.5H2.2Z" fill="currentColor"/>
<path fill-rule="evenodd" clip-rule="evenodd" d="M11.0179 8.5C11.0179 8.22386 11.2417 8 11.5179 8H11.7179C11.994 8 12.2179 8.22386 12.2179 8.5V8.77256C12.2179 9.00885 12.3852 9.20851 12.6072 9.28943C12.9252 9.40537 13.2172 9.57554 13.4718 9.78876C13.6526 9.9401 13.9086 9.98468 14.1128 9.86681L14.3489 9.73047C14.588 9.5924 14.8938 9.67433 15.0319 9.91348L15.1319 10.0867C15.27 10.3258 15.188 10.6316 14.9489 10.7697L14.7166 10.9038C14.5119 11.022 14.4226 11.267 14.4638 11.4999C14.4929 11.6644 14.508 11.8336 14.508 12.0064C14.508 12.1759 14.4934 12.3419 14.4655 12.5034C14.4252 12.7356 14.5146 12.9796 14.7187 13.0974L14.9489 13.2303C15.188 13.3684 15.27 13.6742 15.1319 13.9133L15.0319 14.0865C14.8938 14.3257 14.588 14.4076 14.3489 14.2695L14.1217 14.1384C13.9169 14.0201 13.6601 14.0654 13.4793 14.2178C13.2229 14.4339 12.9283 14.6063 12.6072 14.7234C12.3852 14.8043 12.2179 15.004 12.2179 15.2402V15.5C12.2179 15.7761 11.994 16 11.7179 16H11.5179C11.2417 16 11.0179 15.7761 11.0179 15.5V15.2409C11.0179 15.0044 10.8503 14.8047 10.6282 14.7239C10.3068 14.6069 10.012 14.4345 9.75538 14.2183C9.57457 14.066 9.3178 14.0208 9.11305 14.139L8.88672 14.2697C8.64758 14.4078 8.34178 14.3258 8.20371 14.0867L8.10371 13.9135C7.96564 13.6743 8.04758 13.3685 8.28672 13.2305L8.51547 13.0984C8.71966 12.9805 8.80901 12.7365 8.7687 12.5042C8.74063 12.3425 8.72601 12.1761 8.72601 12.0064C8.72601 11.8333 8.74122 11.6638 8.77037 11.4991C8.8116 11.2662 8.72239 11.0211 8.51756 10.9028L8.2867 10.7695C8.04756 10.6315 7.96562 10.3257 8.10369 10.0865L8.20369 9.91331C8.34176 9.67417 8.64756 9.59223 8.8867 9.7303L9.12203 9.86616C9.32614 9.98401 9.58207 9.93949 9.76283 9.78823C10.0177 9.57495 10.3099 9.40478 10.6282 9.28893C10.8503 9.20808 11.0179 9.00836 11.0179 8.77196V8.5ZM11.617 13.7769C12.5996 13.7769 13.3961 12.9804 13.3961 11.9978C13.3961 11.0153 12.5996 10.2188 11.617 10.2188C10.6345 10.2188 9.83796 11.0153 9.83796 11.9978C9.83796 12.9804 10.6345 13.7769 11.617 13.7769Z" fill="currentColor"/>
</svg>
