<svg xmlns="http://www.w3.org/2000/svg" width="16" height="16" viewBox="0 0 16 16" fill="none">
  <path fill-rule="evenodd" clip-rule="evenodd"
        d="M3.13117 1.40571C3.32132 1.20546 3.6378 1.19728 3.83804 1.38743L5.0052 2.49573C5.83997 1.8704 6.87673 1.5 8 1.5C9.12007 1.5 10.1541 1.8683 10.9877 2.4904L12.1495 1.38739C12.3498 1.19726 12.6662 1.20548 12.8564 1.40575C13.0465 1.60601 13.0383 1.92249 12.838 2.11262L11.7273 3.16713C12.4144 3.93508 12.8678 4.91668 12.9753 6H14C14.2761 6 14.5 6.22386 14.5 6.5C14.5 6.77614 14.2761 7 14 7H13V8H14C14.2761 8 14.5 8.22386 14.5 8.5C14.5 8.77614 14.2761 9 14 9H13V9.5C13 9.66875 12.9916 9.83555 12.9753 10H14C14.2761 10 14.5 10.2239 14.5 10.5C14.5 10.7761 14.2761 11 14 11H12.7711C12.134 13.0286 10.2388 14.5 8 14.5C5.76118 14.5 3.86603 13.0286 3.2289 11H2C1.72386 11 1.5 10.7761 1.5 10.5C1.5 10.2239 1.72386 10 2 10H3.02469C3.00836 9.83555 3 9.66875 3 9.5V9H2C1.72386 9 1.5 8.77614 1.5 8.5C1.5 8.22386 1.72386 8 2 8H3V7H2C1.72386 7 1.5 6.77614 1.5 6.5C1.5 6.22386 1.72386 6 2 6H3.02469C3.13194 4.91976 3.583 3.94066 4.2669 3.17368L3.14946 2.11258C2.94921 1.92243 2.94103 1.60595 3.13117 1.40571ZM4 7V9.5C4 9.79543 4.03203 10.0834 4.0928 10.3606C4.09818 10.3791 4.10252 10.3982 4.10574 10.4176C4.48336 12.0264 5.83226 13.2611 7.5 13.4691V8.5C7.5 8.22386 7.72386 8 8 8C8.27614 8 8.5 8.22386 8.5 8.5V13.4691C10.1677 13.2611 11.5166 12.0264 11.8943 10.4176C11.8975 10.3982 11.9018 10.3791 11.9072 10.3606C11.968 10.0834 12 9.79543 12 9.5V7H4ZM11.9691 6H4.03095C4.277 4.02684 5.96019 2.5 8 2.5C10.0398 2.5 11.723 4.02684 11.9691 6Z"
        fill="currentColor"/>
</svg>
