<svg width="12" height="12" viewBox="0 0 14 14" fill="currentColor" xmlns="http://www.w3.org/2000/svg">
  <path clip-rule="evenodd" d="M2 5.5C2 2.73858 4.23858 0.500001 7 0.500001C9.76142 0.500001 12 2.73858 12 5.5V8.5C12 11.2614 9.76142 13.5 7 13.5C4.23858 13.5 2 11.2614 2 8.5V5.5ZM7 1.5C4.79086 1.5 3 3.29086 3 5.5V8.5C3 10.7092 4.79086 12.5 7 12.5C9.20914 12.5 11 10.7092 11 8.5V5.5C11 3.29086 9.20914 1.5 7 1.5Z" />
  <path clip-rule="evenodd" d="M11 7.5C11 7.22386 11.2239 7 11.5 7H13C13.2761 7 13.5 7.22386 13.5 7.5C13.5 7.77614 13.2761 8 13 8H11.5C11.2239 8 11 7.77614 11 7.5Z" />
  <path clip-rule="evenodd" d="M0.5 7.5C0.5 7.22386 0.723858 7 1 7H2.5C2.77614 7 3 7.22386 3 7.5C3 7.77614 2.77614 8 2.5 8H1C0.723858 8 0.5 7.77614 0.5 7.5Z" />
  <path clip-rule="evenodd" d="M0.5 9.5C0.5 9.22386 0.723858 9 1 9H2.6125C2.88864 9 3.1125 9.22386 3.1125 9.5C3.1125 9.77614 2.88864 10 2.6125 10H1C0.723858 10 0.5 9.77614 0.5 9.5Z" />
  <path clip-rule="evenodd" d="M0.5 5.5C0.5 5.22386 0.723858 5 1 5H13C13.2761 5 13.5 5.22386 13.5 5.5C13.5 5.77614 13.2761 6 13 6H1C0.723858 6 0.5 5.77614 0.5 5.5Z" />
  <path clip-rule="evenodd" d="M7 7C7.27614 7 7.5 7.22386 7.5 7.5V13C7.5 13.2761 7.27614 13.5 7 13.5C6.72386 13.5 6.5 13.2761 6.5 13V7.5C6.5 7.22386 6.72386 7 7 7Z" />
  <path clip-rule="evenodd" d="M10.8875 9.5C10.8875 9.22386 11.1114 9 11.3875 9H13C13.2761 9 13.5 9.22386 13.5 9.5C13.5 9.77614 13.2761 10 13 10H11.3875C11.1114 10 10.8875 9.77614 10.8875 9.5Z" />
  <path clip-rule="evenodd" d="M2.13107 0.405706C2.32122 0.205461 2.6377 0.197277 2.83794 0.387425L4.32544 1.79993C4.52569 1.99007 4.53387 2.30655 4.34373 2.5068C4.15358 2.70704 3.8371 2.71523 3.63686 2.52508L2.14936 1.11258C1.94911 0.922428 1.94093 0.605951 2.13107 0.405706Z" />
  <path clip-rule="evenodd" d="M11.8563 0.405741C12.0464 0.606004 12.0382 0.92248 11.838 1.11261L10.3568 2.51886C10.1565 2.70899 9.84002 2.70077 9.64989 2.50051C9.45976 2.30025 9.46798 1.98377 9.66824 1.79364L11.1494 0.387393C11.3497 0.197263 11.6662 0.205478 11.8563 0.405741Z" />
</svg>
