<svg xmlns="http://www.w3.org/2000/svg" width="16" height="16" fill="none"><g fill="#000" clip-path="url(#a)"><path fill-rule="evenodd" d="M14 4.5V8h-1V4.5h-2A1.5 1.5 0 0 1 9.5 3V1H4a1 1 0 0 0-1 1v6H2V2a2 2 0 0 1 2-2h5.5L14 4.5Z" clip-rule="evenodd"/><path d="M15.338 13.362a2.168 2.168 0 0 1-.225.846c-.125.25-.293.464-.506.64a2.3 2.3 0 0 1-.76.411 3.187 3.187 0 0 1-.974.141c-.281 0-.542-.033-.783-.098a2.336 2.336 0 0 1-.642-.29 2.19 2.19 0 0 1-.469-.424 2.645 2.645 0 0 1-.342-.547c-.09-.199-.161-.418-.211-.658a3.956 3.956 0 0 1-.07-.76v-.837c0-.251.021-.489.065-.714a2.82 2.82 0 0 1 .197-.632c.1-.237.231-.447.394-.633.162-.185.347-.341.553-.47.184-.108.386-.19.605-.247.222-.06.46-.09.712-.09.375 0 .708.048.999.145.293.097.543.235.75.415.206.18.368.398.487.658.119.259.194.55.225.876h-1.312a1.808 1.808 0 0 0-.094-.488.915.915 0 0 0-.206-.35.887.887 0 0 0-.352-.205 1.503 1.503 0 0 0-.497-.073c-.103 0-.2.01-.29.03a.945.945 0 0 0-.572.384 1.611 1.611 0 0 0-.211.44c-.04.132-.07.277-.09.437a4.28 4.28 0 0 0-.027.508v.846c0 .248.014.47.042.667.031.193.078.363.14.508.044.1.096.188.155.265a.95.95 0 0 0 .492.32 1.5 1.5 0 0 0 .352.039c.172 0 .326-.02.464-.06a.902.902 0 0 0 .351-.188.889.889 0 0 0 .23-.33c.056-.133.09-.294.103-.482h1.317ZM10.076 12.657c0 .268-.026.523-.08.765-.053.24-.13.461-.23.666a2.617 2.617 0 0 1-.393.564c-.156.171-.334.314-.534.428-.181.1-.382.176-.6.23a2.73 2.73 0 0 1-.699.086c-.265 0-.51-.032-.736-.094a2.373 2.373 0 0 1-.614-.265 2.321 2.321 0 0 1-.848-1.009 3.076 3.076 0 0 1-.202-.64 3.917 3.917 0 0 1-.065-.73v-.907c0-.273.025-.532.075-.777.053-.245.13-.472.23-.68a2.52 2.52 0 0 1 .35-.534c.142-.16.302-.296.484-.41.178-.11.378-.196.6-.256.222-.06.462-.09.722-.09.262 0 .507.032.736.094.23.06.439.147.623.26.184.11.345.24.483.394.14.154.26.323.36.508.11.211.193.442.25.692.059.251.088.517.088.8v.905Zm-1.336-.914c0-.16-.01-.31-.028-.453a2.158 2.158 0 0 0-.08-.402 1.596 1.596 0 0 0-.187-.41 1.08 1.08 0 0 0-.277-.299 1.026 1.026 0 0 0-.285-.132A1.192 1.192 0 0 0 7.536 10c-.122 0-.233.014-.333.042a.907.907 0 0 0-.263.124 1.1 1.1 0 0 0-.272.3c-.071.119-.128.259-.168.418a2.868 2.868 0 0 0-.07.402 5.335 5.335 0 0 0-.02.457v.914c0 .151.007.296.02.436.012.14.034.27.065.389.034.15.084.289.15.414.069.123.148.222.24.3.083.068.179.12.285.157.11.037.233.056.37.056.132 0 .252-.017.361-.052a.914.914 0 0 0 .29-.149c.107-.08.196-.18.268-.3.075-.122.134-.26.178-.413.035-.12.06-.251.075-.394.019-.142.028-.29.028-.444v-.914ZM0 15.31V9.09h1.767c.316 0 .611.035.886.107.275.068.525.166.75.294.197.106.372.235.525.39.156.15.292.315.408.495.134.219.237.461.31.726.074.265.112.547.112.846v.513c0 .287-.035.56-.103.816a2.85 2.85 0 0 1-.29.705c-.12.19-.259.367-.418.53a2.45 2.45 0 0 1-.525.4 2.881 2.881 0 0 1-.736.296c-.266.068-.55.102-.853.102H0Zm1.327-5.246v4.28h.506c.162 0 .314-.018.455-.055a1.306 1.306 0 0 0 .703-.444c.096-.117.18-.252.248-.406.056-.134.099-.282.127-.444.03-.166.046-.344.046-.534v-.522c0-.18-.015-.349-.046-.508a2.047 2.047 0 0 0-.127-.444 1.557 1.557 0 0 0-.272-.428 1.38 1.38 0 0 0-.76-.444 1.784 1.784 0 0 0-.44-.051h-.44Z"/></g><defs><clipPath id="a"><path fill="#fff" d="M0 0h16v16H0z"/></clipPath></defs></svg>