<svg width="16" height="16" viewBox="0 0 16 16" fill="none" xmlns="http://www.w3.org/2000/svg">
<g clip-path="url(#clip0_6_35)">
<path d="M15.8359 3.88317L13.3035 5.99025L15.3275 7.60738C15.389 7.6564 15.4381 7.71927 15.4707 7.79086C15.5033 7.86246 15.5185 7.94075 15.5151 8.01934C15.5116 8.09793 15.4897 8.1746 15.451 8.24309C15.4123 8.31159 15.3579 8.36996 15.2924 8.41344L13.0009 9.9389C13.0035 9.95894 13.013 9.97647 13.013 9.99701V12.4959C13.013 12.5782 12.9927 12.6592 12.9538 12.7318C12.9149 12.8043 12.8586 12.8661 12.79 12.9117L8.28531 15.9105C8.26828 15.922 8.24874 15.927 8.23071 15.936C8.21417 15.9445 8.19864 15.9531 8.18111 15.9596C8.12589 15.9815 8.06718 15.9934 8.00778 15.9946C7.94836 15.9934 7.88965 15.9816 7.83444 15.9596C7.81691 15.9531 7.80138 15.9445 7.78434 15.936C7.76631 15.927 7.74727 15.922 7.73024 15.9105L3.22551 12.9117C3.15693 12.8661 3.10069 12.8043 3.06179 12.7318C3.0229 12.6592 3.00255 12.5782 3.00258 12.4959V9.99701C3.00258 9.97647 3.0121 9.95894 3.0141 9.9389L0.723161 8.41344C0.657607 8.36996 0.603264 8.31159 0.564568 8.24309C0.525871 8.1746 0.503917 8.09793 0.500498 8.01934C0.497079 7.94075 0.512291 7.86246 0.544893 7.79086C0.577495 7.71927 0.626564 7.6564 0.688093 7.60738L2.71201 5.99025L0.179608 3.88317C0.119935 3.83332 0.0726984 3.77025 0.0416447 3.69896C0.0105911 3.62767 -0.00342526 3.55013 0.000707442 3.47249C0.00484015 3.39484 0.0270082 3.31923 0.0654533 3.25164C0.103898 3.18405 0.157563 3.12635 0.222191 3.08312L4.72692 0.0843069C4.81671 0.0243434 4.92351 -0.00493845 5.03133 0.000840931C5.13915 0.00662032 5.24221 0.0471503 5.32508 0.116369L8.00778 2.34869L10.6905 0.116369C10.7733 0.0470753 10.8764 0.0064967 10.9842 0.000716246C11.0921 -0.00506421 11.1989 0.0242649 11.2886 0.0843069L15.7929 3.08312C15.8576 3.12624 15.9114 3.18389 15.9499 3.25146C15.9885 3.31903 16.0108 3.39466 16.0149 3.47234C16.0191 3.55003 16.0051 3.62761 15.974 3.69893C15.943 3.77025 15.8957 3.83334 15.8359 3.88317ZM14.1677 7.96107L12.4854 6.61696L8.85492 9.03365L10.5372 10.3778L14.1677 7.96107ZM8.50824 14.5609L12.012 12.2283V10.5977L10.7882 11.4123C10.6996 11.471 10.5948 11.5001 10.4887 11.4955C10.3826 11.4909 10.2806 11.4528 10.1975 11.3867L8.50824 10.0371V14.5609ZM8.00778 8.39641L11.6103 5.99827L8.00778 3.60012L4.4053 5.99827L8.00778 8.39641ZM4.00352 12.2283L7.50731 14.5609V10.0371L5.81753 11.3867C5.73467 11.4532 5.63277 11.4915 5.52664 11.4961C5.42052 11.5007 5.31569 11.4713 5.22739 11.4123L4.00352 10.5977V12.2283ZM5.47837 10.3778L7.16063 9.03365L3.5301 6.61696L1.84784 7.96107L5.47837 10.3778ZM4.97139 1.12282L1.33535 3.54401L3.53661 5.37556L7.17266 2.95487L4.97139 1.12282ZM11.0442 1.12282L8.84289 2.95487L12.4789 5.37556L14.6802 3.54401L11.0442 1.12282Z" fill="black"/>
</g>
<defs>
<clipPath id="clip0_6_35">
<rect width="16" height="16" fill="white"/>
</clipPath>
</defs>
</svg>
