<svg width="24" height="24" viewBox="0 0 24 24" fill="none" xmlns="http://www.w3.org/2000/svg">
<g style="mix-blend-mode:luminosity">
<path fill-rule="evenodd" clip-rule="evenodd" d="M22 16C22 16.5523 21.5523 17 21 17H19V8C19 6.34315 17.6569 5 16 5H8V3C8 2.44772 8.44772 2 9 2H21C21.5523 2 22 2.44772 22 3V16ZM6 5V3C6 1.34315 7.34315 0 9 0H21C22.6569 0 24 1.34315 24 3V16C24 17.6569 22.6569 19 21 19H19V21C19 22.6569 17.6569 24 16 24H3C1.34315 24 0 22.6569 0 21V8C0 6.34315 1.34315 5 3 5H6ZM2 8C2 7.44772 2.44772 7 3 7H16C16.5523 7 17 7.44772 17 8V21C17 21.5523 16.5523 22 16 22H3C2.44772 22 2 21.5523 2 21V8ZM4 17C4 16.4477 4.44772 16 5 16H14C14.5523 16 15 16.4477 15 17C15 17.5523 14.5523 18 14 18H5C4.44772 18 4 17.5523 4 17ZM5 11C4.44772 11 4 11.4477 4 12C4 12.5523 4.44772 13 5 13H14C14.5523 13 15 12.5523 15 12C15 11.4477 14.5523 11 14 11H5Z" fill="currentColor"/>
</g>
</svg>
