<svg width="16" height="16" viewBox="0 0 16 16" fill="currentColor" xmlns="http://www.w3.org/2000/svg">
<path fill-rule="evenodd" clip-rule="evenodd" d="M8 2.5C4.96243 2.5 2.5 4.96243 2.5 8C2.5 11.0376 4.96243 13.5 8 13.5C11.0376 13.5 13.5 11.0376 13.5 8C13.5 4.96243 11.0376 2.5 8 2.5ZM1.5 8C1.5 4.41015 4.41015 1.5 8 1.5C11.5899 1.5 14.5 4.41015 14.5 8C14.5 11.5899 11.5899 14.5 8 14.5C4.41015 14.5 1.5 11.5899 1.5 8Z" />
<path fill-rule="evenodd" clip-rule="evenodd" d="M1.5 8C1.5 7.72386 1.72386 7.5 2 7.5H14C14.2761 7.5 14.5 7.72386 14.5 8C14.5 8.27614 14.2761 8.5 14 8.5H2C1.72386 8.5 1.5 8.27614 1.5 8Z" />
<path fill-rule="evenodd" clip-rule="evenodd" d="M6.69186 4.0692C6.27193 5.04973 6 6.43917 6 8.0001C6 9.56103 6.27193 10.9505 6.69186 11.931C6.9022 12.4222 7.13983 12.7877 7.37823 13.0231C7.61449 13.2564 7.82403 13.3376 8 13.3376C8.17597 13.3376 8.38551 13.2564 8.62177 13.0231C8.86017 12.7877 9.0978 12.4222 9.30814 11.931C9.72807 10.9505 10 9.56103 10 8.0001C10 6.43917 9.72807 5.04973 9.30814 4.0692C9.0978 3.57804 8.86017 3.21253 8.62177 2.97709C8.38551 2.74375 8.17597 2.6626 8 2.6626C7.82403 2.6626 7.61449 2.74375 7.37823 2.97709C7.13983 3.21253 6.9022 3.57804 6.69186 4.0692ZM6.67554 2.26559C7.03748 1.90814 7.48561 1.6626 8 1.6626C8.51439 1.6626 8.96253 1.90814 9.32446 2.26559C9.68425 2.62093 9.98533 3.1103 10.2274 3.67552C10.7123 4.80775 11 6.33707 11 8.0001C11 9.66313 10.7123 11.1924 10.2274 12.3247C9.98533 12.8899 9.68425 13.3793 9.32446 13.7346C8.96252 14.0921 8.51439 14.3376 8 14.3376C7.48561 14.3376 7.03748 14.0921 6.67554 13.7346C6.31575 13.3793 6.01467 12.8899 5.77261 12.3247C5.28771 11.1924 5 9.66313 5 8.0001C5 6.33707 5.28771 4.80775 5.77261 3.67552C6.01467 3.1103 6.31575 2.62093 6.67554 2.26559Z" />
</svg>
