<svg width="24" height="24" viewBox="0 0 24 24" fill="none" xmlns="http://www.w3.org/2000/svg">
<g clip-path="url(#clip0_5358_49383)">
<path d="M23.7459 12.27C23.7459 11.48 23.6759 10.73 23.5559 10H12.2559V14.51H18.7259C18.4359 15.99 17.5859 17.24 16.3259 18.09V21.09H20.1859C22.4459 19 23.7459 15.92 23.7459 12.27Z" fill="#4285F4"/>
<path d="M12.2569 23.9991C15.4969 23.9991 18.2069 22.9191 20.1869 21.0891L16.3269 18.0891C15.2469 18.8091 13.8769 19.2491 12.2569 19.2491C9.12688 19.2491 6.47688 17.1391 5.52688 14.2891H1.54688V17.3791C3.51688 21.2991 7.56688 23.9991 12.2569 23.9991Z" fill="#34A853"/>
<path d="M5.52586 14.2891C5.27586 13.5691 5.14586 12.7991 5.14586 11.9991C5.14586 11.1991 5.28586 10.4291 5.52586 9.70914V6.61914H1.54586C0.725858 8.23914 0.255859 10.0591 0.255859 11.9991C0.255859 13.9391 0.725858 15.7591 1.54586 17.3791L5.52586 14.2891Z" fill="#FBBC05"/>
<path d="M12.2549 4.75C14.0249 4.75 15.6049 5.36 16.8549 6.55L20.2749 3.13C18.2049 1.19 15.4949 0 12.2549 0C7.56492 0 3.51492 2.7 1.54492 6.62L5.52492 9.71C6.47492 6.86 9.12492 4.75 12.2549 4.75Z" fill="#EA4335"/>
</g>
<defs>
<clipPath id="clip0_5358_49383">
<rect width="24" height="24" fill="white"/>
</clipPath>
</defs>
</svg>
