<svg width="24" height="16" viewBox="0 0 24 16" fill="none" xmlns="http://www.w3.org/2000/svg">
<path d="M10.618 2.14378V10.5039C10.618 11.0247 10.5268 11.5011 10.3442 11.9333C10.1725 12.3543 9.92013 12.7144 9.58727 13.0136C9.26516 13.3128 8.87325 13.5454 8.41155 13.7116C7.94985 13.8668 7.43447 13.9443 6.86539 13.9443C5.71651 13.9443 4.82532 13.6507 4.19183 13.0634C3.56907 12.4651 3.1718 11.6839 3 10.72L5.28702 10.238C5.37292 10.7366 5.53398 11.141 5.7702 11.4513C6.01715 11.7615 6.38222 11.9166 6.86539 11.9166C7.27341 11.9166 7.59015 11.7837 7.81564 11.5177C8.05185 11.2407 8.16996 10.8197 8.16996 10.2546V4.1881V2.14378H10.618Z" fill="#4C5664"/>
<path d="M16.6997 13.9443C15.7549 13.9443 14.9335 13.7837 14.2356 13.4623C13.5376 13.141 12.9739 12.7033 12.5444 12.1493L13.9457 10.5538C14.3537 11.0191 14.7993 11.3626 15.2824 11.5842C15.7763 11.8058 16.2756 11.9166 16.7803 11.9166C17.3601 11.9166 17.8003 11.7837 18.101 11.5177C18.4016 11.2518 18.5519 10.8695 18.5519 10.3709C18.5519 9.96096 18.4338 9.65071 18.1976 9.44018C17.9721 9.22965 17.5856 9.08007 17.038 8.99143L15.8622 8.79198C14.8529 8.6147 14.1228 8.23242 13.6719 7.64517C13.2209 7.04683 12.9954 6.32107 12.9954 5.46788C12.9954 4.34877 13.3497 3.4845 14.0584 2.87508C14.7671 2.25459 15.7602 1.94434 17.038 1.94434C17.9077 1.94434 18.6647 2.08284 19.3089 2.35985C19.9531 2.63686 20.4739 3.01359 20.8712 3.49004L19.5022 5.06899C19.2015 4.7255 18.8472 4.45957 18.4392 4.27121C18.0312 4.07176 17.5695 3.97204 17.0541 3.97204C15.9696 3.97204 15.4274 4.43187 15.4274 5.35154C15.4274 5.75043 15.5455 6.0496 15.7817 6.24904C16.0287 6.44849 16.4259 6.59808 16.9735 6.6978L18.1493 6.91387C19.0619 7.08007 19.7652 7.43464 20.2591 7.97758C20.753 8.52051 21 9.25182 21 10.1715C21 10.7144 20.9087 11.2186 20.7262 11.6839C20.5437 12.1382 20.2699 12.5371 19.9048 12.8806C19.5397 13.213 19.0888 13.4734 18.5519 13.6618C18.0258 13.8502 17.4084 13.9443 16.6997 13.9443Z" fill="#4C5664"/>
</svg>
