<svg width="12" height="8" viewBox="0 0 12 8" fill="none" xmlns="http://www.w3.org/2000/svg">
<path d="M2.28871 8C3.77428 8 4.65092 7.11699 4.65092 5.61533V0.185063H3.47507V5.60476C3.47507 6.47191 3.05512 6.9425 2.27822 6.9425C1.5748 6.9425 1.2126 6.48777 1.16535 5.90615L1.1601 5.85856H0L0.00524934 5.92201C0.0682415 7.13814 0.887139 8 2.28871 8Z" fill="currentColor"/>
<path d="M9.10761 8C10.8714 8 12 7.09055 12 5.6312V5.62591C12 4.49438 11.3491 3.84931 9.75853 3.50562L8.93438 3.32056C7.95276 3.10905 7.55381 2.73893 7.55381 2.17317V2.16788C7.55381 1.44878 8.20997 1.03106 9.09711 1.03106C10.0157 1.02578 10.6089 1.4805 10.7087 2.10443L10.7192 2.17317H11.8583L11.853 2.09914C11.769 0.914739 10.7192 0 9.11286 0C7.50656 0 6.3727 0.909451 6.36745 2.22604V2.23133C6.36745 3.35757 7.02887 4.07667 8.56693 4.40449L9.39633 4.58427C10.3989 4.80106 10.8084 5.18176 10.8084 5.76867V5.77396C10.8084 6.48249 10.1207 6.96894 9.15486 6.96894C8.14173 6.96894 7.41207 6.52478 7.34908 5.83212L7.34383 5.77396H6.18898L6.19423 5.8427C6.29921 7.12756 7.39633 8 9.10761 8Z" fill="currentColor"/>
</svg>
