<svg xmlns="http://www.w3.org/2000/svg" width="16" height="16" fill="none"><g fill="#000" clip-path="url(#a)"><path fill-rule="evenodd" d="M15 4.5V9h-1V4.5h-2A1.5 1.5 0 0 1 10.5 3V1H5a1 1 0 0 0-1 1v7H3V2a2 2 0 0 1 2-2h5.5L15 4.5Z" clip-rule="evenodd"/><path d="M16 15.262h-1.027l-1.485-3.348v3.348H12.45v-5.19h1.038l1.474 3.333.004-3.334H16v5.191ZM12.07 13.048c0 .223-.02.436-.062.638-.042.2-.102.385-.18.556a2.191 2.191 0 0 1-.308.471 1.736 1.736 0 0 1-.418.357 1.858 1.858 0 0 1-.47.192c-.168.048-.35.071-.546.071-.208 0-.4-.026-.576-.078a1.8 1.8 0 0 1-.48-.221c-.142-.1-.27-.22-.382-.36a2.098 2.098 0 0 1-.282-.481 2.693 2.693 0 0 1-.158-.535 3.481 3.481 0 0 1-.051-.61v-.756c0-.228.02-.444.059-.649.041-.204.101-.393.18-.566.075-.164.167-.313.274-.446a1.679 1.679 0 0 1 .847-.556c.174-.05.362-.075.565-.075.206 0 .398.026.576.078.181.05.344.123.488.218.144.09.27.2.378.328.11.128.204.27.282.424.086.176.15.368.194.578.047.209.07.431.07.666v.756Zm-1.045-.763c0-.133-.008-.259-.022-.378a1.92 1.92 0 0 0-.063-.335 1.38 1.38 0 0 0-.146-.342.881.881 0 0 0-.217-.25.779.779 0 0 0-.223-.11.876.876 0 0 0-.272-.04.892.892 0 0 0-.26.036.69.69 0 0 0-.205.104.897.897 0 0 0-.213.25c-.056.1-.1.215-.132.349a2.539 2.539 0 0 0-.055.335 4.75 4.75 0 0 0-.015.381v.763c0 .126.005.247.015.364a2.106 2.106 0 0 0 .169.67.894.894 0 0 0 .187.25.727.727 0 0 0 .513.178.89.89 0 0 0 .282-.043.698.698 0 0 0 .228-.125.848.848 0 0 0 .209-.25c.059-.101.105-.217.14-.345a3.04 3.04 0 0 0 .08-.699v-.763ZM6.981 13.907a.66.66 0 0 0-.051-.26.618.618 0 0 0-.165-.228 1.278 1.278 0 0 0-.316-.19 2.843 2.843 0 0 0-.476-.163 4.146 4.146 0 0 1-.781-.285 2.305 2.305 0 0 1-.547-.367 1.397 1.397 0 0 1-.323-.442 1.299 1.299 0 0 1-.106-.528c0-.219.048-.417.143-.596.095-.178.227-.33.396-.456s.368-.222.598-.289c.23-.069.48-.103.748-.103.279 0 .533.04.763.118.232.078.431.187.598.328a1.472 1.472 0 0 1 .528 1.148H6.985a.964.964 0 0 0-.066-.321.685.685 0 0 0-.165-.253.789.789 0 0 0-.283-.16c-.11-.041-.24-.061-.388-.061-.137 0-.26.016-.367.05a.798.798 0 0 0-.268.131.612.612 0 0 0-.168.21.599.599 0 0 0-.055.257c0 .098.024.186.073.264a.734.734 0 0 0 .22.21c.095.065.21.123.345.175.137.053.29.101.462.146.183.05.358.11.524.182.166.072.32.154.459.246.21.152.377.33.502.531.125.202.187.435.187.7a1.272 1.272 0 0 1-.532 1.054 1.794 1.794 0 0 1-.594.282c-.23.062-.48.093-.752.093-.266 0-.53-.038-.792-.114a2.075 2.075 0 0 1-.678-.343 1.693 1.693 0 0 1-.437-.52 1.486 1.486 0 0 1-.157-.702h1.012c.005.156.033.29.084.402a.717.717 0 0 0 .217.275c.09.071.199.124.326.157.13.033.271.05.425.05.137 0 .258-.016.363-.047a.838.838 0 0 0 .272-.128.567.567 0 0 0 .169-.196.567.567 0 0 0 .058-.257ZM2.593 10.071h1.03l.004 3.597a1.621 1.621 0 0 1-.532 1.202 1.749 1.749 0 0 1-.58.342c-.22.08-.456.121-.71.121a2.53 2.53 0 0 1-.734-.1 1.553 1.553 0 0 1-.565-.299 1.32 1.32 0 0 1-.37-.495A1.77 1.77 0 0 1 0 13.736h1.034c0 .124.012.232.037.325a.663.663 0 0 0 .11.235.567.567 0 0 0 .25.175c.102.038.227.057.373.057a.796.796 0 0 0 .323-.065.758.758 0 0 0 .407-.452.99.99 0 0 0 .059-.343v-3.597Z"/></g><defs><clipPath id="a"><path fill="#fff" d="M0 0h16v16H0z"/></clipPath></defs></svg>