<svg width="16" height="16" viewBox="0 0 16 16" fill="none" xmlns="http://www.w3.org/2000/svg">
<path fill-rule="evenodd" clip-rule="evenodd" d="M2.5 2C2.22386 2 2 2.22386 2 2.5V12.5C2 12.7761 2.22386 13 2.5 13H12.5C12.7881 13 13 12.7824 13 12.5181V12.5181V12.518V12.518V12.5179V12.5179V12.5179V12.5178V12.5178V12.5178V12.5177V12.5177V12.5177V12.5176V12.5176V12.5176V12.5175V12.5175V12.5175V12.5174V12.5174V12.5173V12.5173V12.5173V12.5172V12.5172V12.5172V12.5171V12.5171V12.5171V12.517V12.517V12.517V12.5169V12.5169V12.5169V12.5168V12.5168V12.5168V12.5167V12.5167V12.5166V12.5166V12.5166V12.5165V12.5165V12.5165V12.5164V12.5164V12.5164V12.5163V12.5163V12.5163V12.5162V12.5162V12.5162V12.5161V12.5161V12.516V12.516V12.516V12.5159V12.5159V12.5159V12.5158V12.5158V12.5158V12.5157V12.5157V12.5157V12.5156V12.5156V12.5156V12.5155V12.5155V12.5154V12.5154V12.5154V12.5153V12.5153V12.5153V12.5152V12.5152V12.5152V12.5151V12.5151V12.5151V12.515V12.515V12.515V12.5149V12.5149V12.5149V12.5148V12.5148V12.5147V12.5147V12.5147V12.5146V12.5146V12.5146V12.5145V12.5145V12.5145V12.5144V12.5144V12.5144V12.5143V12.5143V12.5143V12.5142V12.5142V12.5141V12.5141V12.5141V12.514V12.514V12.514V12.5139V12.5139V12.5139V12.5138V12.5138V12.5138V12.5137V12.5137V12.5137V12.5136V12.5136V12.5135V12.5135V12.5135V12.5134V12.5134V12.5134V12.5133V12.5133V12.5133V12.5132V12.5132V12.5132V12.5131V12.5131V12.5131V12.513V12.513V12.513V12.5129V12.5129V12.5128V12.5128V12.5128V12.5127V12.5127V12.5127V12.5126V12.5126V12.5126V12.5125V12.5125V12.5125V12.5124V12.5124V12.5124V12.5123V12.5123V12.5122V12.5122V12.5122V12.5121V12.5121V12.5121V12.512V12.512V12.512V12.5119V12.5119V12.5119V12.5118V12.5118V12.5118V12.5117V12.5117V12.5116V12.5116V12.5116V12.5115V12.5115V12.5115V12.5114V12.5114V12.5114V12.5113V12.5113V12.5113V12.5112V12.5112V12.5112V12.5111V12.5111V12.511V12.511V12.511V12.5109V12.5109V12.5109V12.5108V12.5108V12.5108V12.5107V12.5107V12.5107V12.5106V12.5106V12.5106V12.5105V12.5105V12.5104V12.5104V12.5104V12.5103V12.5103V12.5103V12.5102V12.5102V12.5102V12.5101V12.5101V12.5101V12.51V12.51V12.51V12.5099V12.5099V12.5098V12.5098V12.5098V12.5097V12.5097V12.5097V12.5096V12.5096V12.5096V12.5095V12.5095V12.5095V12.5094V12.5094V12.5094V12.5093V12.5093V12.5092V12.5092V12.5092V12.5091V12.5091V12.5091V12.509V12.509V12.509V12.5089V12.5089V12.5089V12.5088V12.5088V12.5088V12.5087V12.5087V12.5086V12.5086V12.5086V12.5085V12.5085V12.5085V12.5084V12.5084V12.5084V12.5083V12.5083V12.5083V12.5082V12.5082V12.5082V12.5081V12.5081V12.508V12.508V12.508V12.5079V12.5079V12.5079V12.5078V12.5078V12.5078V12.5077V12.5077V12.5077V12.5076V12.5076V12.5076V12.5075V12.5075V12.5074V12.5074V12.5074V12.5073V12.5073V12.5073V12.5072V12.5072V12.5072V12.5071V12.5071V12.5071V12.507V12.507V12.5069V12.5069V12.5069V12.5068V12.5068V12.5068V12.5067V12.5067V12.5067V12.5066V12.5066V12.5066V12.5065V12.5065V12.5065V12.5064V12.5064V12.5063V12.5063V12.5063V12.5062V12.5062V12.5062V12.5061V12.5061V12.5061V12.506V12.506V12.506V12.5059V12.5059V12.5059V12.5058V12.5058V12.5057V12.5057V12.5057V12.5056V12.5056V12.5056V12.5055V12.5055V12.5055V12.5054V12.5054V12.5054V12.5053V12.5053V12.5052V12.5052V12.5052V12.5051V12.5051V12.5051V12.505V12.505V12.505V12.5049V12.5049V12.5049V12.5048V12.5048V12.5048V12.5047V12.5047V12.5046V12.5046V12.5046V12.5045V12.5045V12.5045V12.5044V12.5044V12.5044V12.5043V12.5043V12.5043V12.5042V12.5042V12.5042V12.5041V12.5041V12.504V12.504V12.504V12.5039V12.5039V12.5039V12.5038V12.5038V12.5038V12.5037V12.5037V12.5037V12.5036V12.5036V12.5035V12.5035V12.5035V12.5034V12.5034V12.5034V12.5033V12.5033V12.5033V12.5032V12.5032V12.5032V12.5031V12.5031V12.5031V12.503V12.503V12.5029V12.5029V12.5029V12.5028V12.5028V12.5028V12.5027V12.5027V12.5027V12.5026V12.5026V12.5026V12.5025V12.5025V12.5024V12.5024V12.5024V12.5023V12.5023V12.5023V12.5022V12.5022V12.5022V12.5021V12.5021V12.5021V12.502V12.502V12.502V12.5019V12.5019V12.5018V12.5018V12.5018V12.5017V12.5017V12.5017V12.5016V12.5016V12.5016V12.5015V12.5015V12.5015V12.5014V12.5014V12.5013V12.5013V12.5013V12.5012V12.5012V12.5012V12.5011V12.5011V12.5011V12.501V12.501V12.501V12.5009V12.5009V12.5009V12.5008V12.5008V12.5007V12.5007V12.5007V12.5006V12.5006V12.5006V12.5005V12.5005V12.5005V12.5004V12.5004V12.5004V12.5003V12.5003V12.5002V12.5002V12.5002V12.5001V12.5001V12.5001V12.5V12.5C13 12.2239 13.2239 12 13.5 12C13.7761 12 14 12.2239 14 12.5V12.5V12.5001V12.5001V12.5001V12.5002V12.5002V12.5002V12.5003V12.5003V12.5004V12.5004V12.5004V12.5005V12.5005V12.5005V12.5006V12.5006V12.5006V12.5007V12.5007V12.5007V12.5008V12.5008V12.5009V12.5009V12.5009V12.501V12.501V12.501V12.5011V12.5011V12.5011V12.5012V12.5012V12.5012V12.5013V12.5013V12.5013V12.5014V12.5014V12.5015V12.5015V12.5015V12.5016V12.5016V12.5016V12.5017V12.5017V12.5017V12.5018V12.5018V12.5018V12.5019V12.5019V12.502V12.502V12.502V12.5021V12.5021V12.5021V12.5022V12.5022V12.5022V12.5023V12.5023V12.5023V12.5024V12.5024V12.5024V12.5025V12.5025V12.5026V12.5026V12.5026V12.5027V12.5027V12.5027V12.5028V12.5028V12.5028V12.5029V12.5029V12.5029V12.503V12.503V12.5031V12.5031V12.5031V12.5032V12.5032V12.5032V12.5033V12.5033V12.5033V12.5034V12.5034V12.5034V12.5035V12.5035V12.5035V12.5036V12.5036V12.5037V12.5037V12.5037V12.5038V12.5038V12.5038V12.5039V12.5039V12.5039V12.504V12.504V12.504V12.5041V12.5041V12.5042V12.5042V12.5042V12.5043V12.5043V12.5043V12.5044V12.5044V12.5044V12.5045V12.5045V12.5045V12.5046V12.5046V12.5046V12.5047V12.5047V12.5048V12.5048V12.5048V12.5049V12.5049V12.5049V12.505V12.505V12.505V12.5051V12.5051V12.5051V12.5052V12.5052V12.5052V12.5053V12.5053V12.5054V12.5054V12.5054V12.5055V12.5055V12.5055V12.5056V12.5056V12.5056V12.5057V12.5057V12.5057V12.5058V12.5058V12.5059V12.5059V12.5059V12.506V12.506V12.506V12.5061V12.5061V12.5061V12.5062V12.5062V12.5062V12.5063V12.5063V12.5063V12.5064V12.5064V12.5065V12.5065V12.5065V12.5066V12.5066V12.5066V12.5067V12.5067V12.5067V12.5068V12.5068V12.5068V12.5069V12.5069V12.5069V12.507V12.507V12.5071V12.5071V12.5071V12.5072V12.5072V12.5072V12.5073V12.5073V12.5073V12.5074V12.5074V12.5074V12.5075V12.5075V12.5076V12.5076V12.5076V12.5077V12.5077V12.5077V12.5078V12.5078V12.5078V12.5079V12.5079V12.5079V12.508V12.508V12.508V12.5081V12.5081V12.5082V12.5082V12.5082V12.5083V12.5083V12.5083V12.5084V12.5084V12.5084V12.5085V12.5085V12.5085V12.5086V12.5086V12.5086V12.5087V12.5087V12.5088V12.5088V12.5088V12.5089V12.5089V12.5089V12.509V12.509V12.509V12.5091V12.5091V12.5091V12.5092V12.5092V12.5092V12.5093V12.5093V12.5094V12.5094V12.5094V12.5095V12.5095V12.5095V12.5096V12.5096V12.5096V12.5097V12.5097V12.5097V12.5098V12.5098V12.5098V12.5099V12.5099V12.51V12.51V12.51V12.5101V12.5101V12.5101V12.5102V12.5102V12.5102V12.5103V12.5103V12.5103V12.5104V12.5104V12.5104V12.5105V12.5105V12.5106V12.5106V12.5106V12.5107V12.5107V12.5107V12.5108V12.5108V12.5108V12.5109V12.5109V12.5109V12.511V12.511V12.511V12.5111V12.5111V12.5112V12.5112V12.5112V12.5113V12.5113V12.5113V12.5114V12.5114V12.5114V12.5115V12.5115V12.5115V12.5116V12.5116V12.5116V12.5117V12.5117V12.5118V12.5118V12.5118V12.5119V12.5119V12.5119V12.512V12.512V12.512V12.5121V12.5121V12.5121V12.5122V12.5122V12.5122V12.5123V12.5123V12.5124V12.5124V12.5124V12.5125V12.5125V12.5125V12.5126V12.5126V12.5126V12.5127V12.5127V12.5127V12.5128V12.5128V12.5128V12.5129V12.5129V12.513V12.513V12.513V12.5131V12.5131V12.5131V12.5132V12.5132V12.5132V12.5133V12.5133V12.5133V12.5134V12.5134V12.5134V12.5135V12.5135V12.5135V12.5136V12.5136V12.5137V12.5137V12.5137V12.5138V12.5138V12.5138V12.5139V12.5139V12.5139V12.514V12.514V12.514V12.5141V12.5141V12.5141V12.5142V12.5142V12.5143V12.5143V12.5143V12.5144V12.5144V12.5144V12.5145V12.5145V12.5145V12.5146V12.5146V12.5146V12.5147V12.5147V12.5147V12.5148V12.5148V12.5149V12.5149V12.5149V12.515V12.515V12.515V12.5151V12.5151V12.5151V12.5152V12.5152V12.5152V12.5153V12.5153V12.5153V12.5154V12.5154V12.5154V12.5155V12.5155V12.5156V12.5156V12.5156V12.5157V12.5157V12.5157V12.5158V12.5158V12.5158V12.5159V12.5159V12.5159V12.516V12.516V12.516V12.5161V12.5161V12.5162V12.5162V12.5162V12.5163V12.5163V12.5163V12.5164V12.5164V12.5164V12.5165V12.5165V12.5165V12.5166V12.5166V12.5166V12.5167V12.5167V12.5168V12.5168V12.5168V12.5169V12.5169V12.5169V12.517V12.517V12.517V12.5171V12.5171V12.5171V12.5172V12.5172V12.5172V12.5173V12.5173V12.5173V12.5174V12.5174V12.5175V12.5175V12.5175V12.5176V12.5176V12.5176V12.5177V12.5177V12.5177V12.5178V12.5178V12.5178V12.5179V12.5179V12.5179V12.518V12.518V12.5181V12.5181C14 13.3584 13.3164 14 12.5 14H2.5C1.67157 14 1 13.3284 1 12.5V2.5C1 1.67157 1.67157 1 2.5 1H4.5C4.77614 1 5 1.22386 5 1.5C5 1.77614 4.77614 2 4.5 2H2.5ZM9.5 1C9.22386 1 9 1.22386 9 1.5C9 1.77614 9.22386 2 9.5 2L12.2929 2L6 8.29289L6 5.5C6 5.22386 5.77614 5 5.5 5C5.22386 5 5 5.22386 5 5.5V9.5C5 9.77614 5.22386 10 5.5 10L9.5 10C9.77614 10 10 9.77614 10 9.5C10 9.22386 9.77614 9 9.5 9H6.70711L13 2.70711V5.5C13 5.77614 13.2239 6 13.5 6C13.7761 6 14 5.77614 14 5.5V1.5C14 1.22386 13.7761 1 13.5 1H9.5Z" fill="currentColor"/>
</svg>
