<svg width="15" height="15" viewBox="0 0 15 15" fill="none" xmlns="http://www.w3.org/2000/svg">
<g clip-path="url(#clip0_11481_107)">
<path fill-rule="evenodd" clip-rule="evenodd" d="M14.9999 4.5C14.9999 4.77614 14.7761 5 14.4999 5H10.5014H10.4999L10.4907 4.99992C10.4166 4.99858 10.3464 4.98111 10.2835 4.95087C10.2149 4.91788 10.155 4.86969 10.1081 4.81067C10.0918 4.79009 10.0773 4.76851 10.0646 4.74618C10.0235 4.6735 9.99994 4.5895 9.99994 4.5V0.499999C9.99994 0.223857 10.2238 0 10.4999 0C10.7761 0 10.9999 0.223857 10.9999 0.499999V3.29295L14.1464 0.146447C14.3417 -0.0488156 14.6583 -0.0488156 14.8536 0.146447C15.0488 0.341709 15.0488 0.658291 14.8536 0.853553L11.7072 4H14.4999C14.7761 4 14.9999 4.22386 14.9999 4.5ZM2.5 2C2.22386 2 2 2.22386 2 2.5V12.5C2 12.7761 2.22386 13 2.5 13H12.5C12.7764 13 13 12.7763 13 12.5005C13 12.2244 13.2239 12 13.5 12C13.7761 12 14 12.2239 14 12.5C14 13.3287 13.3281 14 12.5 14H2.5C1.67157 14 1 13.3284 1 12.5V2.5C1 1.67157 1.67157 1 2.5 1H4.5C4.77614 1 5 1.22386 5 1.5C5 1.77614 4.77614 2 4.5 2H2.5ZM9.78748 5.09081C9.91606 5.18129 10.0001 5.33084 10.0001 5.5V9.5C10.0001 9.77614 9.7762 10 9.50006 10C9.22391 10 9.00006 9.77614 9.00006 9.5V6.70704L5.85355 9.85355C5.65829 10.0488 5.34171 10.0488 5.14645 9.85355C4.95118 9.65829 4.95118 9.34171 5.14645 9.14645L8.2929 6H5.50006C5.22391 6 5.00006 5.77614 5.00006 5.5C5.00006 5.22386 5.22391 5 5.50006 5H9.49841L9.50926 5.00008L9.78748 5.09081Z" fill="currentColor"/>
</g>
<defs>
<clipPath id="clip0_11481_107">
<rect width="15" height="15" fill="white"/>
</clipPath>
</defs>
</svg>
