<svg width="16" height="16" viewBox="0 0 16 16" fill="none" xmlns="http://www.w3.org/2000/svg">
<path fill-rule="evenodd" clip-rule="evenodd" d="M5.7389 2.52365C6.76058 2.03833 7.9072 1.88527 9.01936 2.08576C10.1315 2.28625 11.1539 2.83032 11.9445 3.64233C12.5996 4.31524 13.0685 5.14446 13.3101 6.04772C14.0052 6.21405 14.6382 6.59185 15.1187 7.13684C15.7346 7.83541 16.0493 8.75145 15.9937 9.68345C15.9381 10.6155 15.5167 11.4871 14.8223 12.1066C14.134 12.7205 13.2333 13.037 12.3153 12.9881H4.60097C3.48011 13.072 2.37084 12.7093 1.51295 11.9774C0.646546 11.2384 0.107507 10.1833 0.0144164 9.04445C-0.0786747 7.90558 0.281807 6.77616 1.01656 5.90464C1.66271 5.13822 2.55176 4.62646 3.52679 4.4505C4.0738 3.61906 4.83805 2.95157 5.7389 2.52365ZM8.74536 3.62371C7.95096 3.48051 7.13194 3.58983 6.40217 3.93649C5.6724 4.28315 5.06813 4.84991 4.67338 5.55798C4.54705 5.78457 4.31702 5.93317 4.05962 5.95446C3.33801 6.01414 2.66951 6.35974 2.20121 6.91521C1.7329 7.47068 1.50314 8.19054 1.56248 8.91642C1.62181 9.64229 1.96537 10.3147 2.51759 10.7858C3.0698 11.2569 3.78544 11.488 4.50705 11.4283C4.52822 11.4265 4.54945 11.4257 4.5707 11.4257H12.3371C12.3526 11.4257 12.3681 11.4261 12.3836 11.4271C12.899 11.4582 13.4054 11.2821 13.7917 10.9375C14.1779 10.593 14.4123 10.1082 14.4432 9.58988C14.4741 9.07152 14.2991 8.56204 13.9566 8.17351C13.614 7.78498 13.1321 7.54924 12.6168 7.51814C12.2528 7.49617 11.953 7.22238 11.8962 6.86003C11.7704 6.05812 11.3994 5.31555 10.8347 4.73554C10.2701 4.15554 9.53976 3.76692 8.74536 3.62371Z" fill="black"/>
</svg>
