<svg width="24" height="25" viewBox="0 0 24 25" fill="none" xmlns="http://www.w3.org/2000/svg">
<path fill-rule="evenodd" clip-rule="evenodd" d="M3 5.5C3 4.84019 3.56088 3.97363 5.08325 3.21245C6.54581 2.48117 8.6363 2 11 2C13.3637 2 15.4542 2.48117 16.9167 3.21245C18.4391 3.97363 19 4.84019 19 5.5C19 6.15981 18.4391 7.02637 16.9167 7.78755C15.4542 8.51883 13.3637 9 11 9C8.6363 9 6.54581 8.51883 5.08325 7.78755C3.56088 7.02637 3 6.15981 3 5.5ZM19 8.86046V11C19 11.5523 19.4477 12 20 12C20.5523 12 21 11.5523 21 11V5.5C21 3.67453 19.5462 2.29108 17.8112 1.42359C16.0164 0.526193 13.6069 0 11 0C8.39314 0 5.98362 0.526193 4.18883 1.42359C2.45384 2.29108 1 3.67453 1 5.5V11V11.5001V17.5C1 19.0654 1.96595 20.3739 3.35399 21.2876C4.74711 22.2045 6.67023 22.8081 8.91641 22.9965C9.46676 23.0427 9.95033 22.6339 9.9965 22.0836C10.0427 21.5332 9.63394 21.0497 9.08359 21.0035C7.0732 20.8349 5.49632 20.3033 4.45358 19.617C3.40576 18.9273 3 18.1643 3 17.5V14.8606C3.36901 15.1285 3.77076 15.3675 4.18883 15.5765C5.98362 16.4739 8.39314 17.0001 11 17.0001C11.5523 17.0001 12 16.5524 12 16.0001C12 15.4478 11.5523 15.0001 11 15.0001C8.6363 15.0001 6.54581 14.519 5.08325 13.7877C3.56088 13.0265 3 12.1599 3 11.5001V11V8.86047C3.36901 9.12838 3.77076 9.36737 4.18883 9.57641C5.98362 10.4738 8.39314 11 11 11C13.6069 11 16.0164 10.4738 17.8112 9.57641C18.2292 9.36737 18.631 9.12838 19 8.86046ZM18.1337 17L15 17C14.4477 17 14 16.5523 14 16C14 15.4477 14.4477 15 15 15H18.1337C17.9126 14.6176 17.9657 14.1201 18.2929 13.7929C18.6834 13.4024 19.3166 13.4024 19.7071 13.7929L21.2071 15.2929C21.5976 15.6834 21.5976 16.3166 21.2071 16.7071L19.7071 18.2071C19.3166 18.5976 18.6834 18.5976 18.2929 18.2071C17.9657 17.8799 17.9126 17.3824 18.1337 17ZM15.3663 23L18.5 23C19.0523 23 19.5 22.5523 19.5 22C19.5 21.4477 19.0523 21 18.5 21L15.3663 21C15.5874 20.6176 15.5343 20.1201 15.2071 19.7929C14.8166 19.4024 14.1834 19.4024 13.7929 19.7929L12.2929 21.2929C11.9024 21.6834 11.9024 22.3166 12.2929 22.7071L13.7929 24.2071C14.1834 24.5976 14.8166 24.5976 15.2071 24.2071C15.5343 23.8799 15.5874 23.3824 15.3663 23Z" fill="currentColor"/>
</svg>
