<svg width="15" height="16" viewBox="0 0 15 16" fill="none" xmlns="http://www.w3.org/2000/svg">
<path fill-rule="evenodd" clip-rule="evenodd" d="M11.9243 5.5015C11.6986 5.66534 11.4529 5.81149 11.1973 5.93932C10.0997 6.48812 8.62617 6.8099 7.03198 6.8099C5.43779 6.8099 3.96429 6.48812 2.86671 5.93932C2.61104 5.81149 2.36536 5.66534 2.1397 5.5015V7.11567C2.1397 7.51917 2.48269 8.0491 3.41368 8.51459C4.30809 8.96179 5.5865 9.25605 7.03198 9.25605L7.075 9.25596C6.85748 9.63197 6.68857 10.0396 6.57686 10.4703C5.15861 10.4153 3.85902 10.1047 2.86671 9.60854C2.61104 9.48071 2.36536 9.33456 2.1397 9.17071V10.7849C2.1397 11.1884 2.48269 11.7183 3.41368 12.1838C4.21197 12.5829 5.31616 12.8602 6.57201 12.9152C6.68365 13.3528 6.85427 13.7668 7.07491 14.1483L7.03198 14.1483C5.43779 14.1483 3.96429 13.8265 2.86671 13.2778C1.8057 12.7473 0.916626 11.9012 0.916626 10.7849V3.44645C0.916626 2.33012 1.8057 1.48409 2.86671 0.953586C3.96429 0.404794 5.43779 0.0830078 7.03198 0.0830078C8.62617 0.0830078 10.0997 0.404794 11.1973 0.953586C12.2583 1.48409 13.1473 2.33012 13.1473 3.44645V7.16552C12.7616 7.0094 12.3515 6.90103 11.9243 6.84775V5.5015ZM3.41368 2.04753C2.48269 2.51303 2.1397 3.04296 2.1397 3.44645C2.1397 3.84995 2.48269 4.37988 3.41368 4.84538C4.30809 5.29258 5.5865 5.58683 7.03198 5.58683C8.47747 5.58683 9.75588 5.29258 10.6503 4.84538C11.5813 4.37988 11.9243 3.84995 11.9243 3.44645C11.9243 3.04296 11.5813 2.51303 10.6503 2.04753C9.75588 1.60033 8.47747 1.30608 7.03198 1.30608C5.5865 1.30608 4.30809 1.60033 3.41368 2.04753Z" fill="#4C5664"/>
<path d="M10.1948 8.20765L8.51783 10.1646H9.63579V12.401H10.7538V10.1646H11.8717L10.1948 8.20765Z" fill="#4C5664"/>
<path d="M12.9897 15.1967L11.3127 13.2398H12.4307V11.0033H13.5487V13.2398H14.6666L12.9897 15.1967Z" fill="#4C5664"/>
</svg>
