<svg xmlns="http://www.w3.org/2000/svg" width="14" height="12" fill="none" viewBox="0 0 14 12"><path fill="#FCD43E" d="M7.33325 3.33337V6.66669L10.1866 8.36004L10.6666 7.55004L8.33325 6.16669V3.33337H7.33325Z"/><path fill="#FCD43E" d="M7.99666 0C4.68 0 2 2.68666 2 6H0L2.59666 8.59665L2.64331 8.69331L5.33334 6H3.33334C3.33334 3.42334 5.42334 1.33334 8 1.33334C10.5767 1.33334 12.6667 3.42334 12.6667 6C12.6667 8.57666 10.5767 10.6667 8 10.6667C6.71 10.6667 5.54666 10.14 4.70334 9.29666L3.76 10.24C4.84334 11.3267 6.34 12 7.99666 12C11.3133 12 14 9.31334 14 6C14 2.68666 11.3133 0 7.99666 0Z"/></svg>