<svg version="1.1" id="Layer_1" xmlns="http://www.w3.org/2000/svg" xmlns:xlink="http://www.w3.org/1999/xlink" x="0px" y="0px"
	 viewBox="0 0 24 24" style="enable-background:new 0 0 24 24;" xml:space="preserve">
<style type="text/css">
	.st0{fill:currentColor;}
	.st1{fill-rule:evenodd;clip-rule:evenodd;fill:currentColor;}
</style>
<g>
	<path class="st0" d="M14,24h-4c-1.1,0-2-0.9-2-2v-1.9c-0.3-0.2-0.7-0.4-1-0.6l-1.7,1c-0.5,0.3-1,0.3-1.5,0.2
		c-0.5-0.1-0.9-0.5-1.2-0.9l-2-3.5c-0.3-0.5-0.3-1-0.2-1.5c0.1-0.5,0.5-0.9,0.9-1.2l1.7-1c0-0.2,0-0.4,0-0.6s0-0.4,0-0.6l-1.7-1
		c-1-0.6-1.3-1.8-0.7-2.7l2-3.5c0.3-0.5,0.7-0.8,1.2-0.9c0.5-0.1,1.1-0.1,1.5,0.2l1.7,1c0.3-0.2,0.6-0.4,1-0.6V2c0-1.1,0.9-2,2-2h4
		c1.1,0,2,0.9,2,2v1.9c0.3,0.2,0.7,0.4,1,0.6l1.7-1c1-0.6,2.2-0.2,2.7,0.7l2,3.5c0.3,0.5,0.3,1,0.2,1.5c-0.1,0.5-0.5,0.9-0.9,1.2
		l-1.7,1c0,0.2,0,0.4,0,0.6c0,0.2,0,0.4,0,0.6l1.7,1c0.5,0.3,0.8,0.7,0.9,1.2c0.1,0.5,0.1,1.1-0.2,1.5l-2,3.5
		c-0.3,0.5-0.7,0.8-1.2,0.9c-0.5,0.1-1.1,0.1-1.5-0.2l-1.7-1c-0.3,0.2-0.6,0.4-1,0.6V22C16,23.1,15.1,24,14,24z M7.2,17.1l0.5,0.4
		c0.5,0.4,1.1,0.7,1.7,1l0.6,0.3V22h4v-3.3l0.6-0.3c0.6-0.2,1.2-0.6,1.7-1l0.5-0.4l2.8,1.6l2-3.5l-2.8-1.6l0.1-0.7
		c0-0.3,0.1-0.6,0.1-1s0-0.7-0.1-1l-0.1-0.7l2.8-1.6l-2-3.5l-2.8,1.6l-0.5-0.4c-0.5-0.4-1.1-0.7-1.7-1L14,5.3V2h-4v3.3L9.4,5.5
		c-0.6,0.2-1.2,0.6-1.7,1L7.2,6.9L4.3,5.3l-2,3.5l2.8,1.6L5.1,11C5,11.3,5,11.7,5,12s0,0.7,0.1,1l0.1,0.7l-2.8,1.6l2,3.5L7.2,17.1z"
		/>
</g>
<path class="st1" d="M12,10c-1.1,0-2,0.9-2,2s0.9,2,2,2s2-0.9,2-2S13.1,10,12,10z M8,12c0-2.2,1.8-4,4-4c2.2,0,4,1.8,4,4
	c0,2.2-1.8,4-4,4C9.8,16,8,14.2,8,12z"/>
</svg>
