<svg xmlns="http://www.w3.org/2000/svg" width="24" height="24" viewBox="0 0 24 24" fill="none">
  <path fill-rule="evenodd" clip-rule="evenodd" d="M8.65637 1.23949C8.83848 0.511032 9.493 0 10.2439 0H13.7558C14.5066 0 15.1611 0.51103 15.3433 1.23949L15.928 3.57835C15.928 3.57835 15.9306 3.58296 15.9349 3.58789C15.9441 3.59863 15.9619 3.6142 15.9897 3.62747C16.432 3.83857 16.8548 4.08358 17.2547 4.35906C17.2798 4.37639 17.302 4.38399 17.3158 4.38661C17.3221 4.3878 17.3274 4.38778 17.3274 4.38778L19.647 3.72424C20.3689 3.51773 21.1387 3.82905 21.5142 4.47932L23.2701 7.5207C23.6455 8.17097 23.5302 8.99332 22.9904 9.51526L21.2558 11.1925C21.2558 11.1925 21.2531 11.1971 21.251 11.2032C21.2463 11.2164 21.2418 11.2394 21.2442 11.2698C21.263 11.5109 21.2725 11.7545 21.2725 12C21.2725 12.2456 21.263 12.4891 21.2442 12.7302C21.2418 12.7606 21.2463 12.7836 21.251 12.7969C21.2531 12.8029 21.2558 12.8075 21.2558 12.8075L22.9904 14.4847C23.5302 15.0066 23.6455 15.829 23.27 16.4793L21.5141 19.5206C21.1387 20.1709 20.3688 20.4822 19.6469 20.2757L17.3275 19.6122C17.3275 19.6122 17.3222 19.6122 17.3159 19.6134C17.3021 19.616 17.2799 19.6236 17.2547 19.6409C16.8548 19.9164 16.432 20.1614 15.9897 20.3726C15.9619 20.3858 15.9441 20.4014 15.9349 20.4121C15.9306 20.4171 15.928 20.4217 15.928 20.4217L15.3433 22.7605C15.1611 23.489 14.5066 24 13.7558 24H10.2439C9.493 24 8.83848 23.489 8.65637 22.7605L8.07165 20.4217C8.07165 20.4217 8.06902 20.4171 8.06478 20.4121C8.05554 20.4014 8.03773 20.3858 8.00993 20.3726C7.56764 20.1615 7.14487 19.9165 6.74498 19.641C6.71981 19.6236 6.69761 19.616 6.68381 19.6134C6.67749 19.6122 6.67223 19.6122 6.67223 19.6122L4.35265 20.2758C3.63073 20.4823 2.86091 20.171 2.48547 19.5207L0.72953 16.4793C0.354094 15.8291 0.469401 15.0067 1.0092 14.4848L2.74388 12.8075C2.74388 12.8075 2.74653 12.8029 2.74867 12.7969C2.75331 12.7836 2.75785 12.7607 2.75548 12.7303C2.73666 12.4891 2.72709 12.2456 2.72709 12C2.72709 11.7545 2.73666 11.5109 2.75548 11.2698C2.75785 11.2394 2.75331 11.2164 2.74867 11.2032C2.74653 11.1971 2.74387 11.1925 2.74387 11.1925L1.00928 9.51534C0.469476 8.99339 0.354169 8.17105 0.729606 7.52077L2.48555 4.4794C2.86098 3.82912 3.63081 3.51781 4.35273 3.72432L6.67218 4.38782C6.67218 4.38782 6.67744 4.38784 6.68375 4.38665C6.69755 4.38403 6.71975 4.37643 6.74492 4.3591C7.14483 4.0836 7.56762 3.83858 8.00993 3.62747C8.03773 3.6142 8.05554 3.59863 8.06478 3.58789C8.06902 3.58297 8.07165 3.57835 8.07165 3.57835L8.65637 1.23949ZM10.6698 2.18182L10.188 4.10881C10.0142 4.80406 9.52358 5.3226 8.94974 5.5965C8.61193 5.75773 8.2887 5.94503 7.98268 6.15584C7.45811 6.51721 6.7629 6.68311 6.07337 6.48586L4.16212 5.93913L2.83206 8.24286L4.26142 9.62493C4.77592 10.1224 4.98014 10.8057 4.93068 11.4395C4.91627 11.6242 4.90891 11.8112 4.90891 12C4.90891 12.1889 4.91627 12.3758 4.93068 12.5605C4.98014 13.1943 4.77592 13.8776 4.26142 14.3751L2.83198 15.7572L4.16204 18.061L6.07343 17.5142C6.76295 17.317 7.45816 17.4829 7.98272 17.8442C8.28873 18.055 8.61194 18.2423 8.94974 18.4035C9.52357 18.6774 10.0142 19.196 10.188 19.8912L10.6698 21.8182H13.3299L13.8116 19.8912C13.9854 19.196 14.4761 18.6774 15.0499 18.4035C15.3877 18.2423 15.7109 18.055 16.017 17.8442C16.5415 17.4828 17.2367 17.3169 17.9263 17.5142L19.8375 18.0609L21.1676 15.7572L19.7382 14.3751C19.2237 13.8776 19.0195 13.1943 19.069 12.5605C19.0834 12.3758 19.0907 12.1889 19.0907 12C19.0907 11.8112 19.0834 11.6242 19.069 11.4395C19.0195 10.8057 19.2237 10.1224 19.7382 9.62493L21.1677 8.24278L19.8376 5.93905L17.9262 6.48582C17.2367 6.68307 16.5415 6.51717 16.0169 6.15581C15.7109 5.94501 15.3877 5.75773 15.0499 5.5965C14.4761 5.32261 13.9854 4.80406 13.8116 4.10881L13.3299 2.18182H10.6698ZM11.9998 9.8182C10.7948 9.8182 9.818 10.795 9.818 12C9.818 13.205 10.7948 14.1818 11.9998 14.1818C13.2048 14.1818 14.1816 13.205 14.1816 12C14.1816 10.795 13.2048 9.8182 11.9998 9.8182ZM7.63618 12C7.63618 9.59004 9.58985 7.63638 11.9998 7.63638C14.4098 7.63638 16.3635 9.59004 16.3635 12C16.3635 14.41 14.4098 16.3637 11.9998 16.3637C9.58985 16.3637 7.63618 14.41 7.63618 12Z" fill="currentColor"/>
</svg>