<svg width="16" height="16" viewBox="0 0 16 16" fill="none" xmlns="http://www.w3.org/2000/svg">
<path fill-rule="evenodd" clip-rule="evenodd" d="M5.29132 11.6571H1.5902C1.26424 11.6571 1 11.3843 1 11.0478V4.95226C1 4.61568 1.26424 4.34284 1.5902 4.34284H3.56724C3.81967 1.90149 5.82091 0 8.2523 0C10.6985 0 12.7095 1.92493 12.9417 4.3879C14.7146 4.9649 16 6.6752 16 8.69669C16 10.9904 14.3442 12.8848 12.1995 13.1751C11.8386 14.7936 10.435 16 8.75824 16C6.80795 16 5.22697 14.3675 5.22697 12.3537C5.22697 12.1155 5.24909 11.8826 5.29132 11.6571ZM11.5709 4.17997C11.2624 2.5785 9.89383 1.37143 8.2523 1.37143C6.5555 1.37143 5.15037 2.66106 4.90615 4.34284H7.49346C7.8194 4.34284 8.08362 4.61568 8.08362 4.95226V6.04493C8.86875 4.92872 10.1368 4.19806 11.5709 4.17997ZM8.08362 10.1873V11.0478C8.08362 11.3843 7.8194 11.6571 7.49346 11.6571H6.66034C6.59207 11.8768 6.55515 12.1108 6.55515 12.3537C6.55515 13.6101 7.54154 14.6286 8.75824 14.6286C9.9312 14.6286 10.8905 13.6816 10.9576 12.4882C10.9601 12.4438 10.9613 12.399 10.9613 12.3537C10.9613 11.0974 9.97494 10.0789 8.75824 10.0789C8.5545 10.0789 8.35819 10.1072 8.17243 10.16C8.14259 10.1685 8.11292 10.1776 8.08362 10.1873ZM12.2456 11.777C11.9778 10.0373 10.5184 8.70747 8.75824 8.70747C8.69821 8.70747 8.63844 8.70903 8.57912 8.71214L8.57903 8.69669C8.57903 6.95936 9.94298 5.55106 11.6254 5.55106C11.8153 5.55106 12.0005 5.5689 12.1797 5.60287C13.5975 5.8716 14.6718 7.15529 14.6718 8.69669C14.6718 10.2145 13.6307 11.4812 12.2456 11.777ZM3.18551 7.53536C3.27342 7.69024 3.39447 7.82235 3.53936 7.92155C3.72741 8.04919 3.9273 8.15707 4.13608 8.24375C4.39851 8.35776 4.59719 8.44965 4.73212 8.51931C4.84906 8.57627 4.9559 8.65317 5.04819 8.7467C5.12239 8.82277 5.16374 8.92645 5.16287 9.03442C5.16622 9.18958 5.08663 9.33394 4.95576 9.41019C4.76894 9.51104 4.55894 9.55703 4.34858 9.54331C4.12129 9.53966 3.89569 9.50235 3.67867 9.4325C3.46091 9.36997 3.25542 9.26866 3.0715 9.13298V9.9776C3.26391 10.0638 3.46592 10.1252 3.67293 10.1601C3.9181 10.203 4.16638 10.224 4.41503 10.2228C4.69217 10.2272 4.96821 10.1858 5.23269 10.1002C5.45755 10.0283 5.65697 9.88983 5.80614 9.70176C5.95578 9.49723 6.03165 9.24526 6.02066 8.98917C6.02861 8.78281 5.98197 8.5781 5.88574 8.39698C5.79188 8.23735 5.66262 8.10286 5.50862 8.00485C5.30525 7.87794 5.09174 7.76923 4.87041 7.67991C4.84712 7.66802 4.82298 7.65797 4.79823 7.64992C4.57335 7.55401 4.40469 7.47712 4.29224 7.41934C4.1912 7.37061 4.09972 7.30304 4.02239 7.22011C3.95692 7.14971 3.92061 7.05582 3.92119 6.95817C3.9215 6.79735 4.01426 6.65198 4.15732 6.58825C4.34261 6.49499 4.54732 6.45019 4.75336 6.45806C4.94874 6.4576 5.14345 6.48174 5.33321 6.52974C5.50809 6.57216 5.67543 6.64265 5.82906 6.73874V5.93767C5.47547 5.81883 5.10439 5.76517 4.73278 5.77919C4.45021 5.77605 4.16905 5.82101 3.90062 5.91224C3.66509 5.98903 3.45441 6.13093 3.29143 6.32256C3.13632 6.51392 3.0548 6.75749 3.06239 7.00699C3.05787 7.19113 3.10033 7.37335 3.18551 7.53536Z" fill="#1F2328"/>
</svg>
