<svg xmlns="http://www.w3.org/2000/svg" width="16" height="16" fill="none"><path fill="#000" fill-rule="evenodd" d="M14 4.5V8h-1V4.5h-2A1.5 1.5 0 0 1 9.5 3V1H4a1 1 0 0 0-1 1v6H2V2a2 2 0 0 1 2-2h5.5L14 4.5Z" clip-rule="evenodd"/><path fill="#000" d="M11.555 15.319 9.671 9.086H11l1.057 4.07.107.42.116-.424 1.061-4.066h1.327l-1.887 6.233h-1.225ZM8.509 13.692a.812.812 0 0 0-.06-.313.742.742 0 0 0-.193-.274 1.483 1.483 0 0 0-.368-.226 3.256 3.256 0 0 0-.556-.197 4.753 4.753 0 0 1-.912-.343 2.687 2.687 0 0 1-.638-.44 1.677 1.677 0 0 1-.377-.532 1.598 1.598 0 0 1-.124-.633c0-.263.056-.501.167-.715.111-.214.265-.397.462-.548.197-.151.43-.267.698-.347A2.95 2.95 0 0 1 7.481 9c.326 0 .623.047.89.141.272.094.505.226.699.394a1.81 1.81 0 0 1 .616 1.378H8.513a1.186 1.186 0 0 0-.077-.385.826.826 0 0 0-.193-.304.916.916 0 0 0-.33-.192 1.283 1.283 0 0 0-.453-.073c-.16 0-.303.02-.428.06a.92.92 0 0 0-.313.158.731.731 0 0 0-.197.253.736.736 0 0 0-.064.308c0 .117.029.223.086.317.06.094.145.178.257.252.111.077.245.147.402.21.16.063.34.122.54.176.214.06.418.132.612.218s.372.184.535.295c.245.183.44.396.586.638.146.243.219.523.219.84 0 .273-.056.517-.167.731-.109.212-.26.39-.454.536a2.07 2.07 0 0 1-.694.338c-.268.074-.56.111-.877.111-.311 0-.62-.046-.925-.137a2.4 2.4 0 0 1-.792-.411 2.02 2.02 0 0 1-.51-.625 1.827 1.827 0 0 1-.183-.843h1.181c.006.188.039.35.099.483.06.135.144.244.252.33.106.086.233.149.381.188.151.04.317.06.497.06.16 0 .3-.018.424-.055a.965.965 0 0 0 .316-.154A.675.675 0 0 0 8.44 14a.697.697 0 0 0 .069-.308ZM5.026 10.066H3.104v5.253H1.896v-5.253H0v-.98h5.026v.98Z"/></svg>