<svg xmlns="http://www.w3.org/2000/svg" width="55" height="55" fill="none" viewBox="0 0 55 55"><path fill="#716E6E" d="M27.4998 28.8185L37.0465 38.363L33.8628 41.5467L29.7498 37.4338V50H25.2498V37.4292L21.1368 41.5467L17.953 38.363L27.4998 28.8185ZM27.4998 5C31.363 5.00018 35.0914 6.42001 37.9762 8.98952C40.861 11.559 42.701 15.099 43.1463 18.9365C45.9459 19.7 48.3881 21.423 50.0463 23.8044C51.7044 26.1859 52.4729 29.0743 52.2174 31.9649C51.962 34.8554 50.6988 37.5643 48.6488 39.6181C46.5987 41.6718 43.8921 42.9398 41.002 43.2005V38.669C42.0374 38.5211 43.033 38.1685 43.9306 37.6317C44.8282 37.0949 45.6099 36.3846 46.23 35.5424C46.8502 34.7002 47.2963 33.7429 47.5425 32.7264C47.7886 31.7099 47.8298 30.6545 47.6636 29.6219C47.4974 28.5893 47.1272 27.6001 46.5746 26.7122C46.022 25.8242 45.298 25.0552 44.445 24.4501C43.5919 23.8449 42.6269 23.4158 41.6062 23.1877C40.5854 22.9596 39.5295 22.9371 38.5 23.1215C38.8524 21.481 38.8333 19.7824 38.4443 18.1502C38.0552 16.5181 37.3059 14.9936 36.2514 13.6884C35.1968 12.3833 33.8637 11.3306 32.3496 10.6074C30.8355 9.88426 29.1788 9.50893 27.5009 9.50893C25.823 9.50893 24.1663 9.88426 22.6522 10.6074C21.1381 11.3306 19.805 12.3833 18.7504 13.6884C17.6959 14.9936 16.9466 16.5181 16.5575 18.1502C16.1684 19.7824 16.1494 21.481 16.5018 23.1215C14.449 22.736 12.3272 23.1818 10.603 24.3607C8.87892 25.5397 7.69375 27.3552 7.30826 29.408C6.92277 31.4608 7.36853 33.5826 8.54748 35.3067C9.72642 37.0308 11.542 38.216 13.5948 38.6015L13.9998 38.669V43.2005C11.1095 42.9402 8.40267 41.6725 6.35231 39.6189C4.30195 37.5653 3.0385 34.8565 2.78278 31.9659C2.52706 29.0752 3.29534 26.1866 4.95334 23.805C6.61134 21.4233 9.0536 19.7001 11.8533 18.9365C12.2981 15.0988 14.1379 11.5585 17.0228 8.98895C19.9077 6.41934 23.6364 4.99969 27.4998 5Z"/></svg>