<svg width="24" height="24" viewBox="0 0 24 24" fill="none" xmlns="http://www.w3.org/2000/svg">
<path d="M19.8183 8.3251H19.736L19.7412 8.40732C19.7676 8.81793 19.929 9.15476 20.226 9.41192L20.2263 9.41207C20.5229 9.66668 20.8964 9.7917 21.3407 9.7917C21.8264 9.7917 22.2276 9.64365 22.5371 9.34299L22.5373 9.34276C22.847 9.0397 23 8.64531 23 8.16693C23 7.70415 22.8582 7.31988 22.5703 7.021C22.2822 6.72175 21.9097 6.57354 21.46 6.57354C21.0822 6.57354 20.7739 6.67496 20.5435 6.8839L20.6519 5.66083H22.6654H22.7426V5.58356V5.07819V5.00092H22.6654H20.1385H20.0683L20.0616 5.07076L19.8136 7.63839L19.8054 7.72316H19.8905H20.421H20.4659L20.4881 7.68422C20.573 7.53562 20.6901 7.42142 20.8406 7.34036L20.8412 7.33997C20.9919 7.25691 21.1631 7.21464 21.3564 7.21464C21.6349 7.21464 21.8543 7.30497 22.0223 7.48239L22.0229 7.483C22.1929 7.65887 22.2805 7.8896 22.2805 8.18261C22.2805 8.4757 22.1929 8.7052 22.0231 8.87882L22.0228 8.87913C21.8554 9.0523 21.6328 9.14124 21.347 9.14124C21.0968 9.14124 20.8921 9.07169 20.728 8.93631C20.5665 8.79939 20.474 8.62051 20.4508 8.39449L20.4437 8.3251H20.3739H19.8183Z" fill="#4B4848" stroke="#4B4848" stroke-width="0.2"/>
<path d="M1 6.57449V6.72593L1.12262 6.63706L2.23055 5.83403V9.71353V9.7908H2.30782H2.88615H2.96342V9.71353V5.07727V5H2.88615H2.31103H2.28615L2.26594 5.01453L1.03218 5.90129L1 5.92441V5.96404V6.57449Z" fill="#4B4848" stroke="#4B4848" stroke-width="0.2"/>
<path d="M22.8185 13.578H1.18262V15.8961H22.8185V13.578Z" fill="#4B4848"/>
<path d="M7.75063 18.2143C9.67103 18.2143 11.2278 16.6575 11.2278 14.7371C11.2278 12.8167 9.67103 11.2599 7.75063 11.2599C5.83023 11.2599 4.27344 12.8167 4.27344 14.7371C4.27344 16.6575 5.83023 18.2143 7.75063 18.2143Z" fill="#4B4848"/>
<path d="M16.2504 18.2143C18.1708 18.2143 19.7276 16.6575 19.7276 14.7371C19.7276 12.8167 18.1708 11.2599 16.2504 11.2599C14.33 11.2599 12.7732 12.8167 12.7732 14.7371C12.7732 16.6575 14.33 18.2143 16.2504 18.2143Z" fill="#4B4848"/>
</svg>
