<svg width="256" height="256" viewBox="0 0 256 256" fill="none" xmlns="http://www.w3.org/2000/svg">
<path d="M236.26 122.823C237.623 122.329 238.883 121.969 240.04 121.742C241.197 121.495 242.302 121.372 243.356 121.372C246.971 121.372 249.977 122.628 252.373 125.14C254.79 127.632 255.999 130.731 255.999 134.437C255.999 138.37 254.666 141.614 252.001 144.167C249.336 146.721 245.928 147.997 241.775 147.997C238.305 147.997 235.392 147.534 233.037 146.607C230.702 145.66 229.535 144.517 229.535 143.179C229.535 142.643 229.752 142.17 230.186 141.758C230.62 141.325 231.126 141.109 231.704 141.109C231.932 141.109 233.14 141.511 235.33 142.314C237.54 143.096 239.586 143.488 241.465 143.488C244.234 143.488 246.475 142.664 248.19 141.017C249.925 139.349 250.793 137.207 250.793 134.592C250.793 132.038 249.977 129.917 248.345 128.229C246.713 126.52 244.657 125.665 242.178 125.665C240.319 125.665 238.491 126.128 236.693 127.055C234.917 127.982 233.842 128.445 233.471 128.445C232.851 128.445 232.407 128.218 232.138 127.765C231.89 127.312 231.766 126.489 231.766 125.294V109.912C231.766 109.232 231.973 108.748 232.386 108.46C232.82 108.151 233.564 107.997 234.617 107.997H250.297C251.289 107.997 252.032 108.203 252.528 108.615C253.024 109.006 253.272 109.603 253.272 110.406C253.272 111.168 253.014 111.765 252.497 112.198C251.981 112.609 251.247 112.815 250.297 112.815H236.26V122.823Z" fill="#4B4848"/>
<path d="M3.58297 114.671C3.31295 114.712 3.10524 114.743 2.95985 114.764C2.83522 114.785 2.72098 114.795 2.61713 114.795C1.97323 114.795 1.44357 114.619 1.02816 114.267C0.633511 113.894 0.436188 113.408 0.436188 112.807C0.436188 112.31 0.61274 111.876 0.965845 111.503C1.31895 111.13 1.82783 110.851 2.4925 110.664L11.7459 108.18C11.9744 108.118 12.1925 108.076 12.4002 108.056C12.6287 108.014 12.8572 107.994 13.0856 107.994C13.4803 107.994 13.7918 108.18 14.0203 108.553C14.2488 108.905 14.363 109.391 14.363 110.012V143.615H19.348C21.1967 143.615 22.3702 143.77 22.8687 144.081C23.3672 144.371 23.6165 144.93 23.6165 145.758C23.6165 146.503 23.4088 147.062 22.9933 147.435C22.5779 147.808 21.9548 147.994 21.124 147.994H2.4925C1.66167 147.994 1.03854 147.808 0.623126 147.435C0.207709 147.062 0 146.503 0 145.758C0 144.93 0.24925 144.371 0.747751 144.081C1.24625 143.77 2.4198 143.615 4.26841 143.615H9.44035V113.273L3.58297 114.671Z" fill="#4B4848"/>
<rect x="48" y="120" width="160" height="16" fill="#4B4848"/>
<ellipse cx="159.921" cy="128" rx="24.0773" ry="24" fill="#4B4848"/>
<ellipse cx="95.921" cy="128" rx="24.0773" ry="24" fill="#4B4848"/>
</svg>
