<svg xmlns="http://www.w3.org/2000/svg" width="56" height="44" fill="none"><rect width="56" height="16" y="13" fill="#fff" rx="8"/><circle cx="20" cy="21" r="3.5" fill="#fff" stroke="#CC3D00"/><circle cx="36" cy="21" r="3.5" fill="#fff" stroke="#CC3D00"/><path fill="#E3E8EF" d="M6 21a2 2 0 0 1 2-2h11.333a2 2 0 1 1 0 4H8a2 2 0 0 1-2-2Z"/><rect width="15.333" height="4" x="20.332" y="19" fill="#FFBFA1" rx="2"/><rect width="15.333" height="4" x="34.668" y="19" fill="#E3E8EF" rx="2"/><path stroke="#CC3D00" stroke-linecap="round" stroke-linejoin="round" d="M35.5 38.5v0a2 2 0 0 0 2-2v0m0 0v-1a1 1 0 0 0-1-1h-2a1 1 0 0 0-1 1v0a1 1 0 0 0 1 1h3ZM18.5 38.5h2m2 0h-2m-2-3 2-1v4"/></svg>