<svg xmlns="http://www.w3.org/2000/svg" width="56" height="24" fill="none"><path fill="#fff" d="M.5.5H19A2.5 2.5 0 0 1 21.5 3v18a2.5 2.5 0 0 1-2.5 2.5H.5V.5Z"/><path stroke="#CDD5DF" d="M.5.5H19A2.5 2.5 0 0 1 21.5 3v18a2.5 2.5 0 0 1-2.5 2.5H.5V.5Z"/><path fill="url(#a)" d="M8 0h24v8H8z" transform="rotate(90 8 0)"/><rect width="31" height="23" x="24.5" y=".5" fill="#FFEEE5" rx="3.5"/><rect width="31" height="23" x="24.5" y=".5" stroke="#CC3D00" rx="3.5"/><path stroke="#CC3D00" stroke-linecap="round" d="M42.5 11.5a5 5 0 0 0-10 0"/><path stroke="#CC3D00" stroke-linecap="round" d="M39.5 16.5H43a3.5 3.5 0 1 0 0-7h-.5M35.5 16.5V13"/><path stroke="#CC3D00" stroke-linecap="round" stroke-linejoin="round" d="m33.5 14.5 2-2 2 2"/><defs><linearGradient id="a" x1="20" x2="20" y1="0" y2="8" gradientUnits="userSpaceOnUse"><stop stop-color="#F1F5F9" stop-opacity="0"/><stop offset="1" stop-color="#F1F5F9"/></linearGradient></defs></svg>