<svg xmlns="http://www.w3.org/2000/svg" width="72" height="76" fill="none"><path fill="#fff" d="M8.5 26.5H27a2.5 2.5 0 0 1 2.5 2.5v18a2.5 2.5 0 0 1-2.5 2.5H8.5v-23Z"/><path stroke="#CDD5DF" d="M8.5 26.5H27a2.5 2.5 0 0 1 2.5 2.5v18a2.5 2.5 0 0 1-2.5 2.5H8.5v-23Z"/><path fill="url(#a)" d="M16 26h24v8H16z" transform="rotate(90 16 26)"/><rect width="31" height="23" x="32.5" y="26.5" fill="#FFEEE5" rx="5.5"/><rect width="31" height="23" x="32.5" y="26.5" stroke="#CC3D00" rx="5.5"/><path stroke="#CC3D00" stroke-linecap="round" d="M50.5 37.5a5 5 0 0 0-10 0"/><path stroke="#CC3D00" stroke-linecap="round" d="M47.5 42.5H51a3.5 3.5 0 1 0 0-7h-.5M43.5 42.5V39"/><path stroke="#CC3D00" stroke-linecap="round" stroke-linejoin="round" d="m41.5 40.5 2-2 2 2"/><defs><linearGradient id="a" x1="28" x2="28" y1="26" y2="34" gradientUnits="userSpaceOnUse"><stop stop-color="#F1F5F9" stop-opacity="0"/><stop offset="1" stop-color="#F1F5F9"/></linearGradient></defs></svg>