<svg width="20" height="20" viewBox="0 0 20 20" fill="none" xmlns="http://www.w3.org/2000/svg"><rect x="0.75" y="0.75" width="18.5" height="6.5" stroke="#EAEAEA" stroke-width="1.5"/><path d="M7.99985 10.05L14.9998 10.05V11.55L7.99985 11.55L7.99985 10.05Z" fill="#EAEAEA"/><path d="M7.99985 14.75H13.9998V16.25L7.99985 16.25L7.99985 14.75Z" fill="#EAEAEA"/><path d="M5.99985 10.5L2.99985 10.5L4.49985 12L5.99985 10.5Z" fill="#EAEAEA"/><path d="M6 15L3 15L4.5 16.5L6 15Z" fill="#EAEAEA"/><path fill-rule="evenodd" clip-rule="evenodd" d="M0 6.5V20H18V6.5H0ZM1.5 18.5V8H16.5V18.5H1.5Z" fill="#EAEAEA"/><path d="M3 3.25H11V4.75H3V3.25Z" fill="#EAEAEA"/><path d="M12 3.25H17V4.75H12V3.25Z" fill="#EAEAEA"/></svg>
