<svg xmlns="http://www.w3.org/2000/svg" width="56" height="44" fill="none"><rect width="56" height="44" fill="#fff" rx="3"/><path fill="#fff" stroke="#CC3D00" stroke-linecap="round" stroke-linejoin="round" d="M20.5 7.5h-10a1 1 0 0 0-1 1v10a1 1 0 0 0 1 1h10a1 1 0 0 0 1-1v-10a1 1 0 0 0-1-1Z"/><circle cx="13" cy="11" r="1.5" fill="#FFEEE5" stroke="#CC3D00" stroke-linejoin="round"/><path fill="#FFEEE5" stroke="#CC3D00" stroke-linecap="round" stroke-linejoin="round" d="m18.5 12.5 3 3v3a1 1 0 0 1-1 1h-9l7-7Z"/><rect width="20" height="8" x="26" y="10" fill="#E3E8EF" rx="1"/><path fill="#fff" stroke="#CC3D00" stroke-linecap="round" stroke-linejoin="round" d="M20.5 23.5h-10a1 1 0 0 0-1 1v10a1 1 0 0 0 1 1h10a1 1 0 0 0 1-1v-10a1 1 0 0 0-1-1Z"/><circle cx="13" cy="27" r="1.5" fill="#FFEEE5" stroke="#CC3D00" stroke-linejoin="round"/><path fill="#FFEEE5" stroke="#CC3D00" stroke-linecap="round" stroke-linejoin="round" d="m18.5 28.5 3 3v3a1 1 0 0 1-1 1h-9l7-7Z"/><rect width="22" height="8" x="26" y="26" fill="#E3E8EF" rx="1"/></svg>