<svg xmlns="http://www.w3.org/2000/svg" width="72" height="76" fill="none"><rect width="56" height="44" x="8" y="16" fill="#fff" rx="3"/><path fill="#fff" stroke="#CC3D00" stroke-linecap="round" stroke-linejoin="round" d="M28.5 23.5h-10a1 1 0 0 0-1 1v10a1 1 0 0 0 1 1h10a1 1 0 0 0 1-1v-10a1 1 0 0 0-1-1Z"/><circle cx="21" cy="27" r="1.5" fill="#FFEEE5" stroke="#CC3D00" stroke-linejoin="round"/><path fill="#FFEEE5" stroke="#CC3D00" stroke-linecap="round" stroke-linejoin="round" d="m26.5 28.5 3 3v3a1 1 0 0 1-1 1h-9l7-7Z"/><rect width="20" height="8" x="34" y="26" fill="#E3E8EF" rx="1"/><path fill="#fff" stroke="#CC3D00" stroke-linecap="round" stroke-linejoin="round" d="M28.5 39.5h-10a1 1 0 0 0-1 1v10a1 1 0 0 0 1 1h10a1 1 0 0 0 1-1v-10a1 1 0 0 0-1-1Z"/><circle cx="21" cy="43" r="1.5" fill="#FFEEE5" stroke="#CC3D00" stroke-linejoin="round"/><path fill="#FFEEE5" stroke="#CC3D00" stroke-linecap="round" stroke-linejoin="round" d="m26.5 44.5 3 3v3a1 1 0 0 1-1 1h-9l7-7Z"/><rect width="22" height="8" x="34" y="42" fill="#E3E8EF" rx="1"/></svg>