<svg xmlns="http://www.w3.org/2000/svg" width="56" height="56" fill="none"><g clip-path="url(#a)"><rect width="56" height="56" fill="#fff" rx="3"/><path fill="#fff" d="M0 0h56v24H0z"/><path stroke="#CC3D00" stroke-linecap="round" stroke-linejoin="round" d="M7.5 6.5h5c1.657 0 3 .843 3 2.5s-1.343 2.5-3 2.5h-4M8.5 11.5h5c1.657 0 3 .843 3 2.5s-1.343 2.5-3 2.5h-6M8.5 6.5v10"/><path stroke="#99A4B3" stroke-linecap="round" stroke-linejoin="round" d="M28.5 6.5h1.171m.829 0h-.829m-3.171 10h-1m-1 0h1m0 0 4.171-10M38.5 19.5h10"/><path stroke="#99A4B3" stroke-linecap="round" d="M39.5 6.5V13c0 2.21 1.79 3.5 4 3.5s4-1.29 4-3.5V6.5"/><path stroke="#99A4B3" stroke-linecap="round" stroke-linejoin="round" d="M38.5 6.5h2m6 0h2"/><mask id="b" fill="#fff"><path d="M0 24h56v32H0V24Z"/></mask><path fill="#fff" d="M0 24h56v32H0V24Z"/><path fill="#CDD5DF" d="M0 25h56v-2H0v2Z" mask="url(#b)"/></g><rect width="55" height="55" x=".5" y=".5" stroke="#CDD5DF" rx="2.5"/><defs><clipPath id="a"><rect width="56" height="56" fill="#fff" rx="3"/></clipPath></defs></svg>