<svg width="53" height="52" viewBox="0 0 53 52" fill="none" xmlns="http://www.w3.org/2000/svg">
<path d="M48.8083 14.9576C48.4317 14.9576 48.127 14.6581 48.127 14.2891C48.127 13.9196 48.4317 13.6207 48.8083 13.6207C49.1843 13.6207 49.4896 13.9196 49.4896 14.2891C49.4896 14.6581 49.1843 14.9576 48.8083 14.9576ZM42.0422 26.3782C41.6656 26.3782 41.3609 26.0787 41.3609 25.7098C41.3609 25.3403 41.6656 25.0413 42.0422 25.0413C42.4182 25.0413 42.7229 25.3403 42.7229 25.7098C42.7229 26.0787 42.4182 26.3782 42.0422 26.3782ZM48.8083 13.0654C48.1195 13.0654 47.5611 13.6133 47.5611 14.2891C47.5611 14.4333 47.5981 14.5675 47.6448 14.696L41.7938 24.535C41.2284 24.6513 40.7949 25.1203 40.7949 25.7098C40.7949 26.3856 41.3534 26.9335 42.0422 26.9335C42.7304 26.9335 43.2888 26.3856 43.2888 25.7098C43.2888 25.574 43.2518 25.4498 43.2105 25.3277L49.091 15.4565C49.6392 15.3276 50.0555 14.8665 50.0555 14.2891C50.0555 13.6133 49.4971 13.0654 48.8083 13.0654Z" fill="#0C544C"/>
<path d="M43.7068 14.9576C43.3302 14.9576 43.0255 14.6581 43.0255 14.2891C43.0255 13.9196 43.3302 13.6207 43.7068 13.6207C44.0828 13.6207 44.3875 13.9196 44.3875 14.2891C44.3875 14.6581 44.0828 14.9576 43.7068 14.9576ZM36.9401 26.3782C36.5641 26.3782 36.2588 26.0787 36.2588 25.7098C36.2588 25.3403 36.5641 25.0413 36.9401 25.0413C37.3167 25.0413 37.6214 25.3403 37.6214 25.7098C37.6214 26.0787 37.3167 26.3782 36.9401 26.3782ZM43.7068 13.0654C43.0175 13.0654 42.4596 13.6133 42.4596 14.2891C42.4596 14.4333 42.4966 14.5675 42.5432 14.696L36.6923 24.535C36.1263 24.6513 35.6929 25.1203 35.6929 25.7098C35.6929 26.3856 36.2513 26.9335 36.9401 26.9335C37.6289 26.9335 38.1873 26.3856 38.1873 25.7098C38.1873 25.574 38.1503 25.4498 38.109 25.3277L43.9895 15.4565C44.5377 15.3276 44.954 14.8665 44.954 14.2891C44.954 13.6133 44.395 13.0654 43.7068 13.0654Z" fill="#073551"/>
<path d="M34.3881 17.0034C34.7641 17.0034 35.0694 17.3029 35.0694 17.6718C35.0694 18.0408 34.7641 18.3402 34.3881 18.3402C34.0115 18.3402 33.7068 18.0408 33.7068 17.6718C33.7068 17.3029 34.0115 17.0034 34.3881 17.0034ZM34.3881 18.8955C35.0769 18.8955 35.6353 18.3476 35.6353 17.6718C35.6353 17.5366 35.5978 17.4118 35.5565 17.2897C35.3912 16.8039 34.9385 16.4481 34.3881 16.4481C34.3001 16.4481 34.2229 16.4802 34.1397 16.4976C33.5743 16.6134 33.1409 17.0823 33.1409 17.6718C33.1409 18.3476 33.6993 18.8955 34.3881 18.8955Z" fill="#073551"/>
<path d="M33.7068 21.9475C33.7068 21.578 34.012 21.279 34.3881 21.279C34.7641 21.279 35.0694 21.578 35.0694 21.9475C35.0694 22.3164 34.7641 22.6154 34.3881 22.6154C34.012 22.6154 33.7068 22.3164 33.7068 21.9475ZM35.6353 21.9475C35.6353 21.8117 35.5978 21.6874 35.5565 21.5653C35.3912 21.0795 34.939 20.7238 34.3881 20.7238C34.3001 20.7238 34.2229 20.7559 34.1397 20.7727C33.5743 20.889 33.1409 21.358 33.1409 21.9475C33.1409 22.6227 33.6993 23.1711 34.3881 23.1711C35.0769 23.1711 35.6353 22.6227 35.6353 21.9475Z" fill="#073551"/>
<path d="M2.94458 23.3204C2.94458 24.2762 3.12697 24.7456 3.88657 25.3604L5.05816 26.3183C5.8006 26.9162 6.1804 26.933 7.10523 26.933H9.61578C10.1436 26.933 10.7058 26.8193 10.7058 26.1562C10.7058 25.4741 10.0793 25.3772 9.61578 25.3772H6.82628C6.51085 25.3772 6.19757 25.2151 5.91647 24.9878L4.95946 24.1941C4.71055 24.0004 4.5303 23.8383 4.5303 23.5309V21.6025C4.5303 21.2951 4.71055 21.133 4.95946 20.9372L5.91647 20.1435C6.19757 19.9182 6.51085 19.7561 6.82628 19.7561H9.61578C10.0793 19.7561 10.7058 19.6572 10.7058 18.9772C10.7058 18.314 10.1436 18.2003 9.61578 18.2003H7.10523C6.1804 18.2003 5.8006 18.2172 5.05816 18.8151L3.88657 19.7709C3.12697 20.3877 2.94458 20.8572 2.94458 21.813V23.3204Z" fill="#073551"/>
<path d="M19.2927 19.2698C19.2927 18.7351 19.1769 18.2003 18.5009 18.2003C17.8229 18.2003 17.707 18.7351 17.707 19.2698V23.7898L15.3788 25.232C15.2308 25.3288 15.0656 25.3772 14.8832 25.3772H14.3553C13.9755 25.3772 13.5635 25.2804 13.4305 25.053C13.2974 24.8277 13.2824 24.4046 13.2653 24.0488L13.1 19.2698C13.0829 18.7666 13.0013 18.2003 12.3233 18.2003C11.598 18.2003 11.5143 18.8003 11.5315 19.3666L11.6967 24.2593C11.7289 25.1014 11.7139 25.7667 12.4241 26.3667C12.952 26.8025 13.4477 26.933 13.894 26.933H15.0656C15.4947 26.933 15.9239 26.7393 16.4367 26.4151L17.7242 25.5878V25.8467C17.7242 26.3814 17.84 26.933 18.516 26.933C19.3592 26.933 19.2927 26.1393 19.2927 25.7835V19.2698Z" fill="#073551"/>
<path d="M20.1194 25.8635C20.1194 26.3983 20.2353 26.933 20.9112 26.933C21.5892 26.933 21.7051 26.3983 21.7051 25.8635V21.9267L23.9174 20.1288C24.1985 19.9014 24.4131 19.7561 24.7092 19.7561H25.1727C25.5525 19.7561 25.9323 19.7561 26.1297 20.0319C26.2949 20.2572 26.2949 20.453 26.2949 20.7119C26.2949 21.213 26.5267 21.6677 27.1039 21.6677C27.7819 21.6677 27.8806 21.1161 27.8806 20.5814C27.8806 19.8698 27.6982 19.3351 27.1704 18.8151C26.7412 18.394 26.2305 18.2003 25.619 18.2003H24.3465C23.8509 18.2003 23.3895 18.5077 22.9432 18.8635L21.7051 19.8698V19.2361C21.7051 18.7182 21.5399 18.2003 20.9112 18.2003C20.1859 18.2003 20.1194 18.7835 20.1194 19.3498V25.8635Z" fill="#073551"/>
<path d="M30.7868 16.0781C30.7868 15.1539 30.5229 14.9918 29.6152 14.9918H27.948C27.418 14.9918 26.8579 15.1055 26.8579 15.7687C26.8579 16.4508 27.4845 16.5476 27.948 16.5476H29.2032V25.3772H27.948C27.418 25.3772 26.8579 25.4909 26.8579 26.1561C26.8579 26.8361 27.4845 26.933 27.948 26.933H31.9756C32.4391 26.933 33.0656 26.8361 33.0656 26.1561C33.0656 25.4909 32.5056 25.3772 31.9756 25.3772H30.7868V16.0781Z" fill="#073551"/>
</svg>
