<svg width="32" height="32" viewBox="0 0 32 32" fill="none" xmlns="http://www.w3.org/2000/svg">
<path d="M20.2 6H11.8C10.513 6 9.23869 6.25348 8.0497 6.74598C6.86071 7.23848 5.78037 7.96034 4.87035 8.87035C3.96034 9.78037 3.23848 10.8607 2.74598 12.0497C2.25348 13.2387 2 14.513 2 15.8C2 17.087 2.25348 18.3613 2.74598 19.5503C3.23848 20.7393 3.96034 21.8196 4.87035 22.7296C5.78037 23.6397 6.86071 24.3615 8.0497 24.854C9.23869 25.3465 10.513 25.6 11.8 25.6H20.2C21.487 25.6 22.7613 25.3465 23.9503 24.854C25.1393 24.3615 26.2196 23.6397 27.1296 22.7296C28.0397 21.8196 28.7615 20.7393 29.254 19.5503C29.7465 18.3613 30 17.087 30 15.8C30 14.513 29.7465 13.2387 29.254 12.0497C28.7615 10.8607 28.0397 9.78037 27.1296 8.87035C26.2196 7.96034 25.1393 7.23848 23.9503 6.74598C22.7613 6.25348 21.487 6 20.2 6ZM20.2 22.8C18.3433 22.7998 16.5627 22.0621 15.25 20.749C13.9372 19.436 13.1998 17.6553 13.2 15.7986C13.2002 13.9419 13.9379 12.1613 15.251 10.8486C16.564 9.53581 18.3447 8.79841 20.2014 8.7986C21.1207 8.79869 22.0311 8.97986 22.8804 9.33176C23.7297 9.68367 24.5014 10.1994 25.1514 10.8496C25.8014 11.4997 26.317 12.2715 26.6688 13.1209C27.0205 13.9703 27.2015 14.8807 27.2014 15.8C27.2013 16.7193 27.0201 17.6297 26.6682 18.479C26.3163 19.3283 25.8006 20.1 25.1504 20.75C24.5003 21.4 23.7285 21.9156 22.8791 22.2674C22.0297 22.6191 21.1193 22.8001 20.2 22.8Z" fill="#F2FAFF" fill-opacity="0.9"/>
</svg>
