<svg xmlns="http://www.w3.org/2000/svg" width="18" height="18" fill="none" viewBox="0 0 18 18"><path fill="#CE4257" d="M9.00033 0.666656C7.35215 0.666656 5.74099 1.1554 4.37058 2.07108C3.00017 2.98675 1.93206 4.28824 1.30133 5.81096C0.670603 7.33368 0.505575 9.00923 0.827119 10.6257C1.14866 12.2423 1.94234 13.7271 3.10777 14.8925C4.27321 16.058 5.75807 16.8517 7.37458 17.1732C8.99109 17.4947 10.6666 17.3297 12.1894 16.699C13.7121 16.0683 15.0136 15.0002 15.9292 13.6297C16.8449 12.2593 17.3337 10.6482 17.3337 8.99999C17.3337 7.90564 17.1181 6.82201 16.6993 5.81096C16.2805 4.79991 15.6667 3.88125 14.8929 3.10743C14.1191 2.33361 13.2004 1.71978 12.1894 1.30099C11.1783 0.882205 10.0947 0.666656 9.00033 0.666656ZM11.2587 10.075C11.3368 10.1525 11.3988 10.2446 11.4411 10.3462C11.4834 10.4477 11.5052 10.5566 11.5052 10.6667C11.5052 10.7767 11.4834 10.8856 11.4411 10.9871C11.3988 11.0887 11.3368 11.1809 11.2587 11.2583C11.1812 11.3364 11.089 11.3984 10.9875 11.4407C10.8859 11.483 10.777 11.5048 10.667 11.5048C10.557 11.5048 10.4481 11.483 10.3465 11.4407C10.245 11.3984 10.1528 11.3364 10.0753 11.2583L9.00033 10.175L7.92533 11.2583C7.84786 11.3364 7.75569 11.3984 7.65414 11.4407C7.55259 11.483 7.44367 11.5048 7.33366 11.5048C7.22365 11.5048 7.11473 11.483 7.01318 11.4407C6.91163 11.3984 6.81946 11.3364 6.742 11.2583C6.66389 11.1809 6.60189 11.0887 6.55959 10.9871C6.51728 10.8856 6.4955 10.7767 6.4955 10.6667C6.4955 10.5566 6.51728 10.4477 6.55959 10.3462C6.60189 10.2446 6.66389 10.1525 6.742 10.075L7.82533 8.99999L6.742 7.92499C6.58508 7.76807 6.49692 7.55524 6.49692 7.33332C6.49692 7.11141 6.58508 6.89858 6.742 6.74166C6.89892 6.58474 7.11174 6.49658 7.33366 6.49658C7.55558 6.49658 7.76841 6.58474 7.92533 6.74166L9.00033 7.82499L10.0753 6.74166C10.2322 6.58474 10.4451 6.49658 10.667 6.49658C10.8889 6.49658 11.1017 6.58474 11.2587 6.74166C11.4156 6.89858 11.5037 7.11141 11.5037 7.33332C11.5037 7.55524 11.4156 7.76807 11.2587 7.92499L10.1753 8.99999L11.2587 10.075Z"/></svg>