<svg xmlns="http://www.w3.org/2000/svg" width="18" height="18" fill="none" viewBox="0 0 18 18"><path fill="#0384FE" d="M9.00131 0.666687C7.35313 0.666687 5.74196 1.15543 4.37155 2.07111C3.00114 2.98679 1.93304 4.28827 1.30231 5.81099C0.671579 7.33371 0.506552 9.00926 0.828095 10.6258C1.14964 12.2423 1.94331 13.7271 3.10875 14.8926C4.27419 16.058 5.75905 16.8517 7.37555 17.1732C8.99206 17.4948 10.6676 17.3297 12.1903 16.699C13.7131 16.0683 15.0145 15.0002 15.9302 13.6298C16.8459 12.2594 17.3346 10.6482 17.3346 9.00002C17.3346 7.90567 17.1191 6.82204 16.7003 5.81099C16.2815 4.79994 15.6677 3.88129 14.8939 3.10746C14.12 2.33364 13.2014 1.71981 12.1903 1.30102C11.1793 0.882235 10.0957 0.666687 9.00131 0.666687ZM9.83464 12.3334C9.83464 12.5544 9.74684 12.7663 9.59056 12.9226C9.43428 13.0789 9.22232 13.1667 9.00131 13.1667C8.78029 13.1667 8.56833 13.0789 8.41205 12.9226C8.25577 12.7663 8.16797 12.5544 8.16797 12.3334V8.16669C8.16797 7.94567 8.25577 7.73371 8.41205 7.57743C8.56833 7.42115 8.78029 7.33335 9.00131 7.33335C9.22232 7.33335 9.43428 7.42115 9.59056 7.57743C9.74684 7.73371 9.83464 7.94567 9.83464 8.16669V12.3334ZM9.00131 6.50002C8.83649 6.50002 8.67537 6.45115 8.53833 6.35958C8.40129 6.26801 8.29448 6.13786 8.23141 5.98559C8.16833 5.83332 8.15183 5.66576 8.18398 5.50411C8.21614 5.34246 8.29551 5.19398 8.41205 5.07743C8.52859 4.96089 8.67708 4.88152 8.83873 4.84937C9.00038 4.81721 9.16794 4.83371 9.32021 4.89679C9.47248 4.95986 9.60263 5.06667 9.6942 5.20371C9.78576 5.34075 9.83464 5.50187 9.83464 5.66669C9.83464 5.8877 9.74684 6.09966 9.59056 6.25594C9.43428 6.41222 9.22232 6.50002 9.00131 6.50002Z"/></svg>