<svg width="63" height="24" viewBox="0 0 63 24" fill="none" xmlns="http://www.w3.org/2000/svg">
<rect x="0.5" y="4.5" width="19" height="16" rx="1.5" fill="#FFEEE5"/>
<rect x="0.5" y="4.5" width="19" height="16" rx="1.5" stroke="#CC3D00"/>
<path d="M14.5 17.4998V17.9998H15V17.4998H14.5ZM5.5 17.4998H5V17.9998H5.5V17.4998ZM10 7.5L10.3322 7.12629C10.1427 6.9579 9.85727 6.9579 9.66783 7.12629L10 7.5ZM8.5 17.4998V17.9998H9V17.4998H8.5ZM8.5 13.4998V12.9998H8V13.4998H8.5ZM11.5 13.4998H12V12.9998H11.5V13.4998ZM11.5 17.4998H11V17.9998H11.5V17.4998ZM14.1643 11.2015L14.4965 10.8277L14.1643 11.2015ZM5.83565 11.2015L5.50348 10.8277L5.83565 11.2015ZM6 17.4998V11.9489H5V17.4998H6ZM14 11.9489C14 11.9577 14 11.9665 14 11.9754C14 11.9842 14 11.993 14 12.0017C14 12.0105 14 12.0193 14 12.028C14 12.0368 14 12.0455 14 12.0543C14 12.063 14 12.0717 14 12.0804C14 12.0891 14 12.0978 14 12.1065C14 12.1152 14 12.1238 14 12.1325C14 12.1411 14 12.1498 14 12.1584C14 12.167 14 12.1756 14 12.1842C14 12.1928 14 12.2014 14 12.21C14 12.2185 14 12.2271 14 12.2356C14 12.2442 14 12.2527 14 12.2612C14 12.2697 14 12.2782 14 12.2867C14 12.2952 14 12.3037 14 12.3122C14 12.3206 14 12.3291 14 12.3375C14 12.346 14 12.3544 14 12.3628C14 12.3712 14 12.3796 14 12.388C14 12.3964 14 12.4048 14 12.4131C14 12.4215 14 12.4298 14 12.4382C14 12.4465 14 12.4548 14 12.4631C14 12.4714 14 12.4797 14 12.488C14 12.4963 14 12.5046 14 12.5128C14 12.5211 14 12.5293 14 12.5376C14 12.5458 14 12.554 14 12.5622C14 12.5704 14 12.5786 14 12.5868C14 12.595 14 12.6031 14 12.6113C14 12.6195 14 12.6276 14 12.6357C14 12.6439 14 12.652 14 12.6601C14 12.6682 14 12.6763 14 12.6843C14 12.6924 14 12.7005 14 12.7085C14 12.7166 14 12.7246 14 12.7327C14 12.7407 14 12.7487 14 12.7567C14 12.7647 14 12.7727 14 12.7807C14 12.7886 14 12.7966 14 12.8045C14 12.8125 14 12.8204 14 12.8284C14 12.8363 14 12.8442 14 12.8521C14 12.86 14 12.8679 14 12.8757C14 12.8836 14 12.8915 14 12.8993C14 12.9072 14 12.915 14 12.9228C14 12.9307 14 12.9385 14 12.9463C14 12.9541 14 12.9618 14 12.9696C14 12.9774 14 12.9851 14 12.9929C14 13.0006 14 13.0084 14 13.0161C14 13.0238 14 13.0315 14 13.0392C14 13.0469 14 13.0546 14 13.0623C14 13.07 14 13.0776 14 13.0853C14 13.0929 14 13.1005 14 13.1082C14 13.1158 14 13.1234 14 13.131C14 13.1386 14 13.1462 14 13.1537C14 13.1613 14 13.1689 14 13.1764C14 13.184 14 13.1915 14 13.199C14 13.2066 14 13.2141 14 13.2216C14 13.2291 14 13.2365 14 13.244C14 13.2515 14 13.2589 14 13.2664C14 13.2738 14 13.2813 14 13.2887C14 13.2961 14 13.3035 14 13.3109C14 13.3183 14 13.3257 14 13.3331C14 13.3405 14 13.3478 14 13.3552C14 13.3625 14 13.3699 14 13.3772C14 13.3845 14 13.3918 14 13.3991C14 13.4064 14 13.4137 14 13.421C14 13.4283 14 13.4355 14 13.4428C14 13.45 14 13.4573 14 13.4645C14 13.4717 14 13.479 14 13.4862C14 13.4934 14 13.5006 14 13.5077C14 13.5149 14 13.5221 14 13.5292C14 13.5364 14 13.5435 14 13.5507C14 13.5578 14 13.5649 14 13.572C14 13.5791 14 13.5862 14 13.5933C14 13.6004 14 13.6075 14 13.6145C14 13.6216 14 13.6286 14 13.6357C14 13.6427 14 13.6497 14 13.6567C14 13.6637 14 13.6707 14 13.6777C14 13.6847 14 13.6917 14 13.6986C14 13.7056 14 13.7125 14 13.7195C14 13.7264 14 13.7333 14 13.7403C14 13.7472 14 13.7541 14 13.761C14 13.7679 14 13.7747 14 13.7816C14 13.7885 14 13.7953 14 13.8022C14 13.809 14 13.8158 14 13.8227C14 13.8295 14 13.8363 14 13.8431C14 13.8499 14 13.8567 14 13.8634C14 13.8702 14 13.877 14 13.8837C14 13.8905 14 13.8972 14 13.9039C14 13.9106 14 13.9174 14 13.9241C14 13.9308 14 13.9374 14 13.9441C14 13.9508 14 13.9575 14 13.9641C14 13.9708 14 13.9774 14 13.984C14 13.9907 14 13.9973 14 14.0039C14 14.0105 14 14.0171 14 14.0237C14 14.0303 14 14.0368 14 14.0434C14 14.05 14 14.0565 14 14.063C14 14.0696 14 14.0761 14 14.0826C14 14.0891 14 14.0956 14 14.1021C14 14.1086 14 14.1151 14 14.1216C14 14.128 14 14.1345 14 14.1409C14 14.1474 14 14.1538 14 14.1602C14 14.1666 14 14.1731 14 14.1795C14 14.1858 14 14.1922 14 14.1986C14 14.205 14 14.2113 14 14.2177C14 14.2241 14 14.2304 14 14.2367C14 14.243 14 14.2494 14 14.2557C14 14.262 14 14.2683 14 14.2746C14 14.2808 14 14.2871 14 14.2934C14 14.2996 14 14.3059 14 14.3121C14 14.3184 14 14.3246 14 14.3308C14 14.337 14 14.3432 14 14.3494C14 14.3556 14 14.3618 14 14.3679C14 14.3741 14 14.3803 14 14.3864C14 14.3926 14 14.3987 14 14.4048C14 14.4109 14 14.4171 14 14.4232C14 14.4293 14 14.4353 14 14.4414C14 14.4475 14 14.4536 14 14.4596C14 14.4657 14 14.4717 14 14.4778C14 14.4838 14 14.4898 14 14.4958C14 14.5018 14 14.5078 14 14.5138C14 14.5198 14 14.5258 14 14.5318C14 14.5377 14 14.5437 14 14.5496C14 14.5556 14 14.5615 14 14.5674C14 14.5733 14 14.5792 14 14.5851C14 14.591 14 14.5969 14 14.6028C14 14.6087 14 14.6146 14 14.6204C14 14.6263 14 14.6321 14 14.6379C14 14.6438 14 14.6496 14 14.6554C14 14.6612 14 14.667 14 14.6728C14 14.6786 14 14.6844 14 14.6901C14 14.6959 14 14.7017 14 14.7074C14 14.7131 14 14.7189 14 14.7246C14 14.7303 14 14.736 14 14.7417C14 14.7474 14 14.7531 14 14.7588C14 14.7645 14 14.7701 14 14.7758C14 14.7815 14 14.7871 14 14.7927C14 14.7984 14 14.804 14 14.8096C14 14.8152 14 14.8208 14 14.8264C14 14.832 14 14.8376 14 14.8432C14 14.8487 14 14.8543 14 14.8598C14 14.8654 14 14.8709 14 14.8764C14 14.882 14 14.8875 14 14.893C14 14.8985 14 14.904 14 14.9095C14 14.9149 14 14.9204 14 14.9259C14 14.9313 14 14.9368 14 14.9422C14 14.9477 14 14.9531 14 14.9585C14 14.9639 14 14.9693 14 14.9747C14 14.9801 14 14.9855 14 14.9909C14 14.9963 14 15.0016 14 15.007C14 15.0124 14 15.0177 14 15.023C14 15.0284 14 15.0337 14 15.039C14 15.0443 14 15.0496 14 15.0549C14 15.0602 14 15.0655 14 15.0707C14 15.076 14 15.0813 14 15.0865C14 15.0918 14 15.097 14 15.1022C14 15.1074 14 15.1127 14 15.1179C14 15.1231 14 15.1283 14 15.1335C14 15.1386 14 15.1438 14 15.149C14 15.1541 14 15.1593 14 15.1644C14 15.1696 14 15.1747 14 15.1798C14 15.185 14 15.1901 14 15.1952C14 15.2003 14 15.2054 14 15.2104C14 15.2155 14 15.2206 14 15.2256C14 15.2307 14 15.2358 14 15.2408C14 15.2458 14 15.2509 14 15.2559C14 15.2609 14 15.2659 14 15.2709C14 15.2759 14 15.2809 14 15.2859C14 15.2908 14 15.2958 14 15.3008C14 15.3057 14 15.3107 14 15.3156C14 15.3205 14 15.3254 14 15.3304C14 15.3353 14 15.3402 14 15.3451C14 15.35 14 15.3548 14 15.3597C14 15.3646 14 15.3695 14 15.3743C14 15.3792 14 15.384 14 15.3888C14 15.3937 14 15.3985 14 15.4033C14 15.4081 14 15.4129 14 15.4177C14 15.4225 14 15.4273 14 15.432C14 15.4368 14 15.4416 14 15.4463C14 15.4511 14 15.4558 14 15.4606C14 15.4653 14 15.47 14 15.4747C14 15.4794 14 15.4841 14 15.4888C14 15.4935 14 15.4982 14 15.5029C14 15.5075 14 15.5122 14 15.5168C14 15.5215 14 15.5261 14 15.5308C14 15.5354 14 15.54 14 15.5446C14 15.5492 14 15.5538 14 15.5584C14 15.563 14 15.5676 14 15.5722C14 15.5767 14 15.5813 14 15.5858C14 15.5904 14 15.5949 14 15.5995C14 15.604 14 15.6085 14 15.613C14 15.6175 14 15.622 14 15.6265C14 15.631 14 15.6355 14 15.64C14 15.6444 14 15.6489 14 15.6533C14 15.6578 14 15.6622 14 15.6667C14 15.6711 14 15.6755 14 15.6799C14 15.6843 14 15.6887 14 15.6931C14 15.6975 14 15.7019 14 15.7063C14 15.7106 14 15.715 14 15.7194C14 15.7237 14 15.7281 14 15.7324C14 15.7367 14 15.741 14 15.7454C14 15.7497 14 15.754 14 15.7583C14 15.7626 14 15.7668 14 15.7711C14 15.7754 14 15.7797 14 15.7839C14 15.7882 14 15.7924 14 15.7967C14 15.8009 14 15.8051 14 15.8093C14 15.8136 14 15.8178 14 15.822C14 15.8262 14 15.8303 14 15.8345C14 15.8387 14 15.8429 14 15.847C14 15.8512 14 15.8553 14 15.8595C14 15.8636 14 15.8677 14 15.8719C14 15.876 14 15.8801 14 15.8842C14 15.8883 14 15.8924 14 15.8965C14 15.9006 14 15.9046 14 15.9087C14 15.9128 14 15.9168 14 15.9209C14 15.9249 14 15.9289 14 15.933C14 15.937 14 15.941 14 15.945C14 15.949 14 15.953 14 15.957C14 15.961 14 15.965 14 15.9689C14 15.9729 14 15.9769 14 15.9808C14 15.9848 14 15.9887 14 15.9926C14 15.9966 14 16.0005 14 16.0044C14 16.0083 14 16.0122 14 16.0161C14 16.02 14 16.0239 14 16.0278C14 16.0317 14 16.0355 14 16.0394C14 16.0432 14 16.0471 14 16.0509C14 16.0548 14 16.0586 14 16.0624C14 16.0662 14 16.07 14 16.0738C14 16.0776 14 16.0814 14 16.0852C14 16.089 14 16.0928 14 16.0965C14 16.1003 14 16.1041 14 16.1078C14 16.1116 14 16.1153 14 16.119C14 16.1227 14 16.1265 14 16.1302C14 16.1339 14 16.1376 14 16.1413C14 16.145 14 16.1486 14 16.1523C14 16.156 14 16.1597 14 16.1633C14 16.167 14 16.1706 14 16.1743C14 16.1779 14 16.1815 14 16.1851C14 16.1888 14 16.1924 14 16.196C14 16.1996 14 16.2032 14 16.2067C14 16.2103 14 16.2139 14 16.2175C14 16.221 14 16.2246 14 16.2281C14 16.2317 14 16.2352 14 16.2387C14 16.2423 14 16.2458 14 16.2493C14 16.2528 14 16.2563 14 16.2598C14 16.2633 14 16.2668 14 16.2703C14 16.2737 14 16.2772 14 16.2807C14 16.2841 14 16.2876 14 16.291C14 16.2944 14 16.2979 14 16.3013C14 16.3047 14 16.3081 14 16.3115C14 16.3149 14 16.3183 14 16.3217C14 16.3251 14 16.3285 14 16.3318C14 16.3352 14 16.3386 14 16.3419C14 16.3453 14 16.3486 14 16.352C14 16.3553 14 16.3586 14 16.3619C14 16.3652 14 16.3686 14 16.3719C14 16.3751 14 16.3784 14 16.3817C14 16.385 14 16.3883 14 16.3915C14 16.3948 14 16.3981 14 16.4013C14 16.4046 14 16.4078 14 16.411C14 16.4142 14 16.4175 14 16.4207C14 16.4239 14 16.4271 14 16.4303C14 16.4335 14 16.4367 14 16.4398C14 16.443 14 16.4462 14 16.4494C14 16.4525 14 16.4557 14 16.4588C14 16.462 14 16.4651 14 16.4682C14 16.4713 14 16.4745 14 16.4776C14 16.4807 14 16.4838 14 16.4869C14 16.49 14 16.493 14 16.4961C14 16.4992 14 16.5023 14 16.5053C14 16.5084 14 16.5114 14 16.5145C14 16.5175 14 16.5205 14 16.5236C14 16.5266 14 16.5296 14 16.5326C14 16.5356 14 16.5386 14 16.5416C14 16.5446 14 16.5476 14 16.5506C14 16.5535 14 16.5565 14 16.5595C14 16.5624 14 16.5654 14 16.5683C14 16.5712 14 16.5742 14 16.5771C14 16.58 14 16.5829 14 16.5859C14 16.5888 14 16.5917 14 16.5946C14 16.5974 14 16.6003 14 16.6032C14 16.6061 14 16.6089 14 16.6118C14 16.6147 14 16.6175 14 16.6203C14 16.6232 14 16.626 14 16.6288C14 16.6317 14 16.6345 14 16.6373C14 16.6401 14 16.6429 14 16.6457C14 16.6485 14 16.6513 14 16.654C14 16.6568 14 16.6596 14 16.6623C14 16.6651 14 16.6679 14 16.6706C14 16.6733 14 16.6761 14 16.6788C14 16.6815 14 16.6843 14 16.687C14 16.6897 14 16.6924 14 16.6951C14 16.6978 14 16.7005 14 16.7031C14 16.7058 14 16.7085 14 16.7111C14 16.7138 14 16.7165 14 16.7191C14 16.7218 14 16.7244 14 16.727C14 16.7297 14 16.7323 14 16.7349C14 16.7375 14 16.7401 14 16.7427C14 16.7453 14 16.7479 14 16.7505C14 16.7531 14 16.7556 14 16.7582C14 16.7608 14 16.7633 14 16.7659C14 16.7684 14 16.771 14 16.7735C14 16.7761 14 16.7786 14 16.7811C14 16.7836 14 16.7861 14 16.7886C14 16.7911 14 16.7936 14 16.7961C14 16.7986 14 16.8011 14 16.8036C14 16.806 14 16.8085 14 16.811C14 16.8134 14 16.8159 14 16.8183C14 16.8208 14 16.8232 14 16.8256C14 16.828 14 16.8305 14 16.8329C14 16.8353 14 16.8377 14 16.8401C14 16.8425 14 16.8449 14 16.8472C14 16.8496 14 16.852 14 16.8544C14 16.8567 14 16.8591 14 16.8614C14 16.8638 14 16.8661 14 16.8685C14 16.8708 14 16.8731 14 16.8754C14 16.8777 14 16.8801 14 16.8824C14 16.8847 14 16.887 14 16.8893C14 16.8915 14 16.8938 14 16.8961C14 16.8984 14 16.9006 14 16.9029C14 16.9051 14 16.9074 14 16.9096C14 16.9119 14 16.9141 14 16.9163C14 16.9186 14 16.9208 14 16.923C14 16.9252 14 16.9274 14 16.9296C14 16.9318 14 16.934 14 16.9362C14 16.9384 14 16.9406 14 16.9427C14 16.9449 14 16.9471 14 16.9492C14 16.9514 14 16.9535 14 16.9556C14 16.9578 14 16.9599 14 16.962C14 16.9642 14 16.9663 14 16.9684C14 16.9705 14 16.9726 14 16.9747C14 16.9768 14 16.9789 14 16.9809C14 16.983 14 16.9851 14 16.9872C14 16.9892 14 16.9913 14 16.9933C14 16.9954 14 16.9974 14 16.9995C14 17.0015 14 17.0035 14 17.0056C14 17.0076 14 17.0096 14 17.0116C14 17.0136 14 17.0156 14 17.0176C14 17.0196 14 17.0216 14 17.0236C14 17.0255 14 17.0275 14 17.0295C14 17.0314 14 17.0334 14 17.0353C14 17.0373 14 17.0392 14 17.0412C14 17.0431 14 17.045 14 17.0469C14 17.0489 14 17.0508 14 17.0527C14 17.0546 14 17.0565 14 17.0584C14 17.0603 14 17.0622 14 17.064C14 17.0659 14 17.0678 14 17.0697C14 17.0715 14 17.0734 14 17.0752C14 17.0771 14 17.0789 14 17.0808C14 17.0826 14 17.0844 14 17.0862C14 17.0881 14 17.0899 14 17.0917C14 17.0935 14 17.0953 14 17.0971C14 17.0989 14 17.1007 14 17.1024C14 17.1042 14 17.106 14 17.1078C14 17.1095 14 17.1113 14 17.113C14 17.1148 14 17.1165 14 17.1183C14 17.12 14 17.1218 14 17.1235C14 17.1252 14 17.1269 14 17.1286C14 17.1303 14 17.132 14 17.1337C14 17.1354 14 17.1371 14 17.1388C14 17.1405 14 17.1422 14 17.1438C14 17.1455 14 17.1472 14 17.1488C14 17.1505 14 17.1521 14 17.1538C14 17.1554 14 17.1571 14 17.1587C14 17.1603 14 17.162 14 17.1636C14 17.1652 14 17.1668 14 17.1684C14 17.17 14 17.1716 14 17.1732C14 17.1748 14 17.1764 14 17.1779C14 17.1795 14 17.1811 14 17.1826C14 17.1842 14 17.1858 14 17.1873C14 17.1889 14 17.1904 14 17.1919C14 17.1935 14 17.195 14 17.1965C14 17.1981 14 17.1996 14 17.2011C14 17.2026 14 17.2041 14 17.2056C14 17.2071 14 17.2086 14 17.2101C14 17.2115 14 17.213 14 17.2145C14 17.216 14 17.2174 14 17.2189C14 17.2203 14 17.2218 14 17.2232C14 17.2247 14 17.2261 14 17.2276C14 17.229 14 17.2304 14 17.2318C14 17.2333 14 17.2347 14 17.2361C14 17.2375 14 17.2389 14 17.2403C14 17.2417 14 17.2431 14 17.2444C14 17.2458 14 17.2472 14 17.2486C14 17.2499 14 17.2513 14 17.2526C14 17.254 14 17.2553 14 17.2567C14 17.258 14 17.2594 14 17.2607C14 17.262 14 17.2633 14 17.2647C14 17.266 14 17.2673 14 17.2686C14 17.2699 14 17.2712 14 17.2725C14 17.2738 14 17.2751 14 17.2764C14 17.2776 14 17.2789 14 17.2802C14 17.2814 14 17.2827 14 17.284C14 17.2852 14 17.2865 14 17.2877C14 17.2889 14 17.2902 14 17.2914C14 17.2926 14 17.2939 14 17.2951C14 17.2963 14 17.2975 14 17.2987C14 17.2999 14 17.3011 14 17.3023C14 17.3035 14 17.3047 14 17.3059C14 17.3071 14 17.3082 14 17.3094C14 17.3106 14 17.3117 14 17.3129C14 17.314 14 17.3152 14 17.3163C14 17.3175 14 17.3186 14 17.3198C14 17.3209 14 17.322 14 17.3231C14 17.3243 14 17.3254 14 17.3265C14 17.3276 14 17.3287 14 17.3298C14 17.3309 14 17.332 14 17.3331C14 17.3341 14 17.3352 14 17.3363C14 17.3374 14 17.3384 14 17.3395C14 17.3406 14 17.3416 14 17.3427C14 17.3437 14 17.3448 14 17.3458C14 17.3468 14 17.3479 14 17.3489C14 17.3499 14 17.3509 14 17.3519C14 17.353 14 17.354 14 17.355C14 17.356 14 17.357 14 17.358C14 17.359 14 17.3599 14 17.3609C14 17.3619 14 17.3629 14 17.3638C14 17.3648 14 17.3658 14 17.3667C14 17.3677 14 17.3686 14 17.3696C14 17.3705 14 17.3715 14 17.3724C14 17.3733 14 17.3743 14 17.3752C14 17.3761 14 17.377 14 17.3779C14 17.3788 14 17.3797 14 17.3806C14 17.3815 14 17.3824 14 17.3833C14 17.3842 14 17.3851 14 17.386C14 17.3868 14 17.3877 14 17.3886C14 17.3894 14 17.3903 14 17.3912C14 17.392 14 17.3929 14 17.3937C14 17.3946 14 17.3954 14 17.3962C14 17.3971 14 17.3979 14 17.3987C14 17.3995 14 17.4003 14 17.4011C14 17.402 14 17.4028 14 17.4036C14 17.4044 14 17.4052 14 17.4059C14 17.4067 14 17.4075 14 17.4083C14 17.4091 14 17.4098 14 17.4106C14 17.4114 14 17.4121 14 17.4129C14 17.4136 14 17.4144 14 17.4151C14 17.4159 14 17.4166 14 17.4174C14 17.4181 14 17.4188 14 17.4195C14 17.4203 14 17.421 14 17.4217C14 17.4224 14 17.4231 14 17.4238C14 17.4245 14 17.4252 14 17.4259C14 17.4266 14 17.4273 14 17.428C14 17.4286 14 17.4293 14 17.43C14 17.4307 14 17.4313 14 17.432C14 17.4326 14 17.4333 14 17.434C14 17.4346 14 17.4352 14 17.4359C14 17.4365 14 17.4372 14 17.4378C14 17.4384 14 17.439 14 17.4397C14 17.4403 14 17.4409 14 17.4415C14 17.4421 14 17.4427 14 17.4433C14 17.4439 14 17.4445 14 17.4451C14 17.4457 14 17.4462 14 17.4468C14 17.4474 14 17.448 14 17.4485C14 17.4491 14 17.4497 14 17.4502C14 17.4508 14 17.4513 14 17.4519C14 17.4524 14 17.453 14 17.4535C14 17.454 14 17.4546 14 17.4551C14 17.4556 14 17.4561 14 17.4567C14 17.4572 14 17.4577 14 17.4582C14 17.4587 14 17.4592 14 17.4597C14 17.4602 14 17.4607 14 17.4612C14 17.4617 14 17.4621 14 17.4626C14 17.4631 14 17.4636 14 17.464C14 17.4645 14 17.465 14 17.4654C14 17.4659 14 17.4663 14 17.4668C14 17.4672 14 17.4677 14 17.4681C14 17.4685 14 17.469 14 17.4694C14 17.4698 14 17.4703 14 17.4707C14 17.4711 14 17.4715 14 17.4719C14 17.4723 14 17.4727 14 17.4731C14 17.4735 14 17.4739 14 17.4743C14 17.4747 14 17.4751 14 17.4755C14 17.4759 14 17.4762 14 17.4766C14 17.477 14 17.4773 14 17.4777C14 17.4781 14 17.4784 14 17.4788C14 17.4791 14 17.4795 14 17.4798C14 17.4802 14 17.4805 14 17.4808C14 17.4812 14 17.4815 14 17.4818C14 17.4821 14 17.4825 14 17.4828C14 17.4831 14 17.4834 14 17.4837C14 17.484 14 17.4843 14 17.4846C14 17.4849 14 17.4852 14 17.4855C14 17.4858 14 17.4861 14 17.4863C14 17.4866 14 17.4869 14 17.4872C14 17.4874 14 17.4877 14 17.488C14 17.4882 14 17.4885 14 17.4887C14 17.489 14 17.4892 14 17.4895C14 17.4897 14 17.4899 14 17.4902C14 17.4904 14 17.4906 14 17.4909C14 17.4911 14 17.4913 14 17.4915C14 17.4917 14 17.492 14 17.4922C14 17.4924 14 17.4926 14 17.4928C14 17.493 14 17.4932 14 17.4934C14 17.4936 14 17.4937 14 17.4939C14 17.4941 14 17.4943 14 17.4944C14 17.4946 14 17.4948 14 17.495C14 17.4951 14 17.4953 14 17.4954C14 17.4956 14 17.4957 14 17.4959C14 17.496 14 17.4962 14 17.4963C14 17.4965 14 17.4966 14 17.4967C14 17.4968 14 17.497 14 17.4971C14 17.4972 14 17.4973 14 17.4974C14 17.4976 14 17.4977 14 17.4978C14 17.4979 14 17.498 14 17.4981C14 17.4982 14 17.4983 14 17.4984C14 17.4984 14 17.4985 14 17.4986C14 17.4987 14 17.4988 14 17.4988C14 17.4989 14 17.499 14 17.499C14 17.4991 14 17.4992 14 17.4992C14 17.4993 14 17.4993 14 17.4994C14 17.4994 14 17.4995 14 17.4995C14 17.4995 14 17.4996 14 17.4996C14 17.4996 14 17.4997 14 17.4997C14 17.4997 14 17.4997 14 17.4998C14 17.4998 14 17.4998 14 17.4998C14 17.4998 14 17.4998 14.5 17.4998C15 17.4998 15 17.4998 15 17.4998C15 17.4998 15 17.4998 15 17.4998C15 17.4997 15 17.4997 15 17.4997C15 17.4997 15 17.4996 15 17.4996C15 17.4996 15 17.4995 15 17.4995C15 17.4995 15 17.4994 15 17.4994C15 17.4993 15 17.4993 15 17.4992C15 17.4992 15 17.4991 15 17.499C15 17.499 15 17.4989 15 17.4988C15 17.4988 15 17.4987 15 17.4986C15 17.4985 15 17.4984 15 17.4984C15 17.4983 15 17.4982 15 17.4981C15 17.498 15 17.4979 15 17.4978C15 17.4977 15 17.4976 15 17.4974C15 17.4973 15 17.4972 15 17.4971C15 17.497 15 17.4968 15 17.4967C15 17.4966 15 17.4965 15 17.4963C15 17.4962 15 17.496 15 17.4959C15 17.4957 15 17.4956 15 17.4954C15 17.4953 15 17.4951 15 17.495C15 17.4948 15 17.4946 15 17.4944C15 17.4943 15 17.4941 15 17.4939C15 17.4937 15 17.4936 15 17.4934C15 17.4932 15 17.493 15 17.4928C15 17.4926 15 17.4924 15 17.4922C15 17.492 15 17.4917 15 17.4915C15 17.4913 15 17.4911 15 17.4909C15 17.4906 15 17.4904 15 17.4902C15 17.4899 15 17.4897 15 17.4895C15 17.4892 15 17.489 15 17.4887C15 17.4885 15 17.4882 15 17.488C15 17.4877 15 17.4874 15 17.4872C15 17.4869 15 17.4866 15 17.4863C15 17.4861 15 17.4858 15 17.4855C15 17.4852 15 17.4849 15 17.4846C15 17.4843 15 17.484 15 17.4837C15 17.4834 15 17.4831 15 17.4828C15 17.4825 15 17.4821 15 17.4818C15 17.4815 15 17.4812 15 17.4808C15 17.4805 15 17.4802 15 17.4798C15 17.4795 15 17.4791 15 17.4788C15 17.4784 15 17.4781 15 17.4777C15 17.4773 15 17.477 15 17.4766C15 17.4762 15 17.4759 15 17.4755C15 17.4751 15 17.4747 15 17.4743C15 17.4739 15 17.4735 15 17.4731C15 17.4727 15 17.4723 15 17.4719C15 17.4715 15 17.4711 15 17.4707C15 17.4703 15 17.4698 15 17.4694C15 17.469 15 17.4685 15 17.4681C15 17.4677 15 17.4672 15 17.4668C15 17.4663 15 17.4659 15 17.4654C15 17.465 15 17.4645 15 17.464C15 17.4636 15 17.4631 15 17.4626C15 17.4621 15 17.4617 15 17.4612C15 17.4607 15 17.4602 15 17.4597C15 17.4592 15 17.4587 15 17.4582C15 17.4577 15 17.4572 15 17.4567C15 17.4561 15 17.4556 15 17.4551C15 17.4546 15 17.454 15 17.4535C15 17.453 15 17.4524 15 17.4519C15 17.4513 15 17.4508 15 17.4502C15 17.4497 15 17.4491 15 17.4485C15 17.448 15 17.4474 15 17.4468C15 17.4462 15 17.4457 15 17.4451C15 17.4445 15 17.4439 15 17.4433C15 17.4427 15 17.4421 15 17.4415C15 17.4409 15 17.4403 15 17.4397C15 17.439 15 17.4384 15 17.4378C15 17.4372 15 17.4365 15 17.4359C15 17.4352 15 17.4346 15 17.434C15 17.4333 15 17.4326 15 17.432C15 17.4313 15 17.4307 15 17.43C15 17.4293 15 17.4286 15 17.428C15 17.4273 15 17.4266 15 17.4259C15 17.4252 15 17.4245 15 17.4238C15 17.4231 15 17.4224 15 17.4217C15 17.421 15 17.4203 15 17.4195C15 17.4188 15 17.4181 15 17.4174C15 17.4166 15 17.4159 15 17.4151C15 17.4144 15 17.4136 15 17.4129C15 17.4121 15 17.4114 15 17.4106C15 17.4098 15 17.4091 15 17.4083C15 17.4075 15 17.4067 15 17.4059C15 17.4052 15 17.4044 15 17.4036C15 17.4028 15 17.402 15 17.4011C15 17.4003 15 17.3995 15 17.3987C15 17.3979 15 17.3971 15 17.3962C15 17.3954 15 17.3946 15 17.3937C15 17.3929 15 17.392 15 17.3912C15 17.3903 15 17.3894 15 17.3886C15 17.3877 15 17.3868 15 17.386C15 17.3851 15 17.3842 15 17.3833C15 17.3824 15 17.3815 15 17.3806C15 17.3797 15 17.3788 15 17.3779C15 17.377 15 17.3761 15 17.3752C15 17.3743 15 17.3733 15 17.3724C15 17.3715 15 17.3705 15 17.3696C15 17.3686 15 17.3677 15 17.3667C15 17.3658 15 17.3648 15 17.3638C15 17.3629 15 17.3619 15 17.3609C15 17.3599 15 17.359 15 17.358C15 17.357 15 17.356 15 17.355C15 17.354 15 17.353 15 17.3519C15 17.3509 15 17.3499 15 17.3489C15 17.3479 15 17.3468 15 17.3458C15 17.3448 15 17.3437 15 17.3427C15 17.3416 15 17.3406 15 17.3395C15 17.3384 15 17.3374 15 17.3363C15 17.3352 15 17.3341 15 17.3331C15 17.332 15 17.3309 15 17.3298C15 17.3287 15 17.3276 15 17.3265C15 17.3254 15 17.3243 15 17.3231C15 17.322 15 17.3209 15 17.3198C15 17.3186 15 17.3175 15 17.3163C15 17.3152 15 17.314 15 17.3129C15 17.3117 15 17.3106 15 17.3094C15 17.3082 15 17.3071 15 17.3059C15 17.3047 15 17.3035 15 17.3023C15 17.3011 15 17.2999 15 17.2987C15 17.2975 15 17.2963 15 17.2951C15 17.2939 15 17.2926 15 17.2914C15 17.2902 15 17.2889 15 17.2877C15 17.2865 15 17.2852 15 17.284C15 17.2827 15 17.2814 15 17.2802C15 17.2789 15 17.2776 15 17.2764C15 17.2751 15 17.2738 15 17.2725C15 17.2712 15 17.2699 15 17.2686C15 17.2673 15 17.266 15 17.2647C15 17.2633 15 17.262 15 17.2607C15 17.2594 15 17.258 15 17.2567C15 17.2553 15 17.254 15 17.2526C15 17.2513 15 17.2499 15 17.2486C15 17.2472 15 17.2458 15 17.2444C15 17.2431 15 17.2417 15 17.2403C15 17.2389 15 17.2375 15 17.2361C15 17.2347 15 17.2333 15 17.2318C15 17.2304 15 17.229 15 17.2276C15 17.2261 15 17.2247 15 17.2232C15 17.2218 15 17.2203 15 17.2189C15 17.2174 15 17.216 15 17.2145C15 17.213 15 17.2115 15 17.2101C15 17.2086 15 17.2071 15 17.2056C15 17.2041 15 17.2026 15 17.2011C15 17.1996 15 17.1981 15 17.1965C15 17.195 15 17.1935 15 17.1919C15 17.1904 15 17.1889 15 17.1873C15 17.1858 15 17.1842 15 17.1826C15 17.1811 15 17.1795 15 17.1779C15 17.1764 15 17.1748 15 17.1732C15 17.1716 15 17.17 15 17.1684C15 17.1668 15 17.1652 15 17.1636C15 17.162 15 17.1603 15 17.1587C15 17.1571 15 17.1554 15 17.1538C15 17.1521 15 17.1505 15 17.1488C15 17.1472 15 17.1455 15 17.1438C15 17.1422 15 17.1405 15 17.1388C15 17.1371 15 17.1354 15 17.1337C15 17.132 15 17.1303 15 17.1286C15 17.1269 15 17.1252 15 17.1235C15 17.1218 15 17.12 15 17.1183C15 17.1165 15 17.1148 15 17.113C15 17.1113 15 17.1095 15 17.1078C15 17.106 15 17.1042 15 17.1024C15 17.1007 15 17.0989 15 17.0971C15 17.0953 15 17.0935 15 17.0917C15 17.0899 15 17.0881 15 17.0862C15 17.0844 15 17.0826 15 17.0808C15 17.0789 15 17.0771 15 17.0752C15 17.0734 15 17.0715 15 17.0697C15 17.0678 15 17.0659 15 17.064C15 17.0622 15 17.0603 15 17.0584C15 17.0565 15 17.0546 15 17.0527C15 17.0508 15 17.0489 15 17.0469C15 17.045 15 17.0431 15 17.0412C15 17.0392 15 17.0373 15 17.0353C15 17.0334 15 17.0314 15 17.0295C15 17.0275 15 17.0255 15 17.0236C15 17.0216 15 17.0196 15 17.0176C15 17.0156 15 17.0136 15 17.0116C15 17.0096 15 17.0076 15 17.0056C15 17.0035 15 17.0015 15 16.9995C15 16.9974 15 16.9954 15 16.9933C15 16.9913 15 16.9892 15 16.9872C15 16.9851 15 16.983 15 16.9809C15 16.9789 15 16.9768 15 16.9747C15 16.9726 15 16.9705 15 16.9684C15 16.9663 15 16.9642 15 16.962C15 16.9599 15 16.9578 15 16.9556C15 16.9535 15 16.9514 15 16.9492C15 16.9471 15 16.9449 15 16.9427C15 16.9406 15 16.9384 15 16.9362C15 16.934 15 16.9318 15 16.9296C15 16.9274 15 16.9252 15 16.923C15 16.9208 15 16.9186 15 16.9163C15 16.9141 15 16.9119 15 16.9096C15 16.9074 15 16.9051 15 16.9029C15 16.9006 15 16.8984 15 16.8961C15 16.8938 15 16.8915 15 16.8893C15 16.887 15 16.8847 15 16.8824C15 16.8801 15 16.8777 15 16.8754C15 16.8731 15 16.8708 15 16.8685C15 16.8661 15 16.8638 15 16.8614C15 16.8591 15 16.8567 15 16.8544C15 16.852 15 16.8496 15 16.8472C15 16.8449 15 16.8425 15 16.8401C15 16.8377 15 16.8353 15 16.8329C15 16.8305 15 16.828 15 16.8256C15 16.8232 15 16.8208 15 16.8183C15 16.8159 15 16.8134 15 16.811C15 16.8085 15 16.806 15 16.8036C15 16.8011 15 16.7986 15 16.7961C15 16.7936 15 16.7911 15 16.7886C15 16.7861 15 16.7836 15 16.7811C15 16.7786 15 16.7761 15 16.7735C15 16.771 15 16.7684 15 16.7659C15 16.7633 15 16.7608 15 16.7582C15 16.7556 15 16.7531 15 16.7505C15 16.7479 15 16.7453 15 16.7427C15 16.7401 15 16.7375 15 16.7349C15 16.7323 15 16.7297 15 16.727C15 16.7244 15 16.7218 15 16.7191C15 16.7165 15 16.7138 15 16.7111C15 16.7085 15 16.7058 15 16.7031C15 16.7005 15 16.6978 15 16.6951C15 16.6924 15 16.6897 15 16.687C15 16.6843 15 16.6815 15 16.6788C15 16.6761 15 16.6733 15 16.6706C15 16.6679 15 16.6651 15 16.6623C15 16.6596 15 16.6568 15 16.654C15 16.6513 15 16.6485 15 16.6457C15 16.6429 15 16.6401 15 16.6373C15 16.6345 15 16.6317 15 16.6288C15 16.626 15 16.6232 15 16.6203C15 16.6175 15 16.6147 15 16.6118C15 16.6089 15 16.6061 15 16.6032C15 16.6003 15 16.5974 15 16.5946C15 16.5917 15 16.5888 15 16.5859C15 16.5829 15 16.58 15 16.5771C15 16.5742 15 16.5712 15 16.5683C15 16.5654 15 16.5624 15 16.5595C15 16.5565 15 16.5535 15 16.5506C15 16.5476 15 16.5446 15 16.5416C15 16.5386 15 16.5356 15 16.5326C15 16.5296 15 16.5266 15 16.5236C15 16.5205 15 16.5175 15 16.5145C15 16.5114 15 16.5084 15 16.5053C15 16.5023 15 16.4992 15 16.4961C15 16.493 15 16.49 15 16.4869C15 16.4838 15 16.4807 15 16.4776C15 16.4745 15 16.4713 15 16.4682C15 16.4651 15 16.462 15 16.4588C15 16.4557 15 16.4525 15 16.4494C15 16.4462 15 16.443 15 16.4398C15 16.4367 15 16.4335 15 16.4303C15 16.4271 15 16.4239 15 16.4207C15 16.4175 15 16.4142 15 16.411C15 16.4078 15 16.4046 15 16.4013C15 16.3981 15 16.3948 15 16.3915C15 16.3883 15 16.385 15 16.3817C15 16.3784 15 16.3751 15 16.3719C15 16.3686 15 16.3652 15 16.3619C15 16.3586 15 16.3553 15 16.352C15 16.3486 15 16.3453 15 16.3419C15 16.3386 15 16.3352 15 16.3318C15 16.3285 15 16.3251 15 16.3217C15 16.3183 15 16.3149 15 16.3115C15 16.3081 15 16.3047 15 16.3013C15 16.2979 15 16.2944 15 16.291C15 16.2876 15 16.2841 15 16.2807C15 16.2772 15 16.2737 15 16.2703C15 16.2668 15 16.2633 15 16.2598C15 16.2563 15 16.2528 15 16.2493C15 16.2458 15 16.2423 15 16.2387C15 16.2352 15 16.2317 15 16.2281C15 16.2246 15 16.221 15 16.2175C15 16.2139 15 16.2103 15 16.2067C15 16.2032 15 16.1996 15 16.196C15 16.1924 15 16.1888 15 16.1851C15 16.1815 15 16.1779 15 16.1743C15 16.1706 15 16.167 15 16.1633C15 16.1597 15 16.156 15 16.1523C15 16.1486 15 16.145 15 16.1413C15 16.1376 15 16.1339 15 16.1302C15 16.1265 15 16.1227 15 16.119C15 16.1153 15 16.1116 15 16.1078C15 16.1041 15 16.1003 15 16.0965C15 16.0928 15 16.089 15 16.0852C15 16.0814 15 16.0776 15 16.0738C15 16.07 15 16.0662 15 16.0624C15 16.0586 15 16.0548 15 16.0509C15 16.0471 15 16.0432 15 16.0394C15 16.0355 15 16.0317 15 16.0278C15 16.0239 15 16.02 15 16.0161C15 16.0122 15 16.0083 15 16.0044C15 16.0005 15 15.9966 15 15.9926C15 15.9887 15 15.9848 15 15.9808C15 15.9769 15 15.9729 15 15.9689C15 15.965 15 15.961 15 15.957C15 15.953 15 15.949 15 15.945C15 15.941 15 15.937 15 15.933C15 15.9289 15 15.9249 15 15.9209C15 15.9168 15 15.9128 15 15.9087C15 15.9046 15 15.9006 15 15.8965C15 15.8924 15 15.8883 15 15.8842C15 15.8801 15 15.876 15 15.8719C15 15.8677 15 15.8636 15 15.8595C15 15.8553 15 15.8512 15 15.847C15 15.8429 15 15.8387 15 15.8345C15 15.8303 15 15.8262 15 15.822C15 15.8178 15 15.8136 15 15.8093C15 15.8051 15 15.8009 15 15.7967C15 15.7924 15 15.7882 15 15.7839C15 15.7797 15 15.7754 15 15.7711C15 15.7668 15 15.7626 15 15.7583C15 15.754 15 15.7497 15 15.7454C15 15.741 15 15.7367 15 15.7324C15 15.7281 15 15.7237 15 15.7194C15 15.715 15 15.7106 15 15.7063C15 15.7019 15 15.6975 15 15.6931C15 15.6887 15 15.6843 15 15.6799C15 15.6755 15 15.6711 15 15.6667C15 15.6622 15 15.6578 15 15.6533C15 15.6489 15 15.6444 15 15.64C15 15.6355 15 15.631 15 15.6265C15 15.622 15 15.6175 15 15.613C15 15.6085 15 15.604 15 15.5995C15 15.5949 15 15.5904 15 15.5858C15 15.5813 15 15.5767 15 15.5722C15 15.5676 15 15.563 15 15.5584C15 15.5538 15 15.5492 15 15.5446C15 15.54 15 15.5354 15 15.5308C15 15.5261 15 15.5215 15 15.5168C15 15.5122 15 15.5075 15 15.5029C15 15.4982 15 15.4935 15 15.4888C15 15.4841 15 15.4794 15 15.4747C15 15.47 15 15.4653 15 15.4606C15 15.4558 15 15.4511 15 15.4463C15 15.4416 15 15.4368 15 15.432C15 15.4273 15 15.4225 15 15.4177C15 15.4129 15 15.4081 15 15.4033C15 15.3985 15 15.3937 15 15.3888C15 15.384 15 15.3792 15 15.3743C15 15.3695 15 15.3646 15 15.3597C15 15.3548 15 15.35 15 15.3451C15 15.3402 15 15.3353 15 15.3304C15 15.3254 15 15.3205 15 15.3156C15 15.3107 15 15.3057 15 15.3008C15 15.2958 15 15.2908 15 15.2859C15 15.2809 15 15.2759 15 15.2709C15 15.2659 15 15.2609 15 15.2559C15 15.2509 15 15.2458 15 15.2408C15 15.2358 15 15.2307 15 15.2256C15 15.2206 15 15.2155 15 15.2104C15 15.2054 15 15.2003 15 15.1952C15 15.1901 15 15.185 15 15.1798C15 15.1747 15 15.1696 15 15.1644C15 15.1593 15 15.1541 15 15.149C15 15.1438 15 15.1386 15 15.1335C15 15.1283 15 15.1231 15 15.1179C15 15.1127 15 15.1074 15 15.1022C15 15.097 15 15.0918 15 15.0865C15 15.0813 15 15.076 15 15.0707C15 15.0655 15 15.0602 15 15.0549C15 15.0496 15 15.0443 15 15.039C15 15.0337 15 15.0284 15 15.023C15 15.0177 15 15.0124 15 15.007C15 15.0016 15 14.9963 15 14.9909C15 14.9855 15 14.9801 15 14.9747C15 14.9693 15 14.9639 15 14.9585C15 14.9531 15 14.9477 15 14.9422C15 14.9368 15 14.9313 15 14.9259C15 14.9204 15 14.9149 15 14.9095C15 14.904 15 14.8985 15 14.893C15 14.8875 15 14.882 15 14.8764C15 14.8709 15 14.8654 15 14.8598C15 14.8543 15 14.8487 15 14.8432C15 14.8376 15 14.832 15 14.8264C15 14.8208 15 14.8152 15 14.8096C15 14.804 15 14.7984 15 14.7927C15 14.7871 15 14.7815 15 14.7758C15 14.7701 15 14.7645 15 14.7588C15 14.7531 15 14.7474 15 14.7417C15 14.736 15 14.7303 15 14.7246C15 14.7189 15 14.7131 15 14.7074C15 14.7017 15 14.6959 15 14.6901C15 14.6844 15 14.6786 15 14.6728C15 14.667 15 14.6612 15 14.6554C15 14.6496 15 14.6438 15 14.6379C15 14.6321 15 14.6263 15 14.6204C15 14.6146 15 14.6087 15 14.6028C15 14.5969 15 14.591 15 14.5851C15 14.5792 15 14.5733 15 14.5674C15 14.5615 15 14.5556 15 14.5496C15 14.5437 15 14.5377 15 14.5318C15 14.5258 15 14.5198 15 14.5138C15 14.5078 15 14.5018 15 14.4958C15 14.4898 15 14.4838 15 14.4778C15 14.4717 15 14.4657 15 14.4596C15 14.4536 15 14.4475 15 14.4414C15 14.4353 15 14.4293 15 14.4232C15 14.4171 15 14.4109 15 14.4048C15 14.3987 15 14.3926 15 14.3864C15 14.3803 15 14.3741 15 14.3679C15 14.3618 15 14.3556 15 14.3494C15 14.3432 15 14.337 15 14.3308C15 14.3246 15 14.3184 15 14.3121C15 14.3059 15 14.2996 15 14.2934C15 14.2871 15 14.2808 15 14.2746C15 14.2683 15 14.262 15 14.2557C15 14.2494 15 14.243 15 14.2367C15 14.2304 15 14.2241 15 14.2177C15 14.2113 15 14.205 15 14.1986C15 14.1922 15 14.1858 15 14.1795C15 14.1731 15 14.1666 15 14.1602C15 14.1538 15 14.1474 15 14.1409C15 14.1345 15 14.128 15 14.1216C15 14.1151 15 14.1086 15 14.1021C15 14.0956 15 14.0891 15 14.0826C15 14.0761 15 14.0696 15 14.063C15 14.0565 15 14.05 15 14.0434C15 14.0368 15 14.0303 15 14.0237C15 14.0171 15 14.0105 15 14.0039C15 13.9973 15 13.9907 15 13.984C15 13.9774 15 13.9708 15 13.9641C15 13.9575 15 13.9508 15 13.9441C15 13.9374 15 13.9308 15 13.9241C15 13.9174 15 13.9106 15 13.9039C15 13.8972 15 13.8905 15 13.8837C15 13.877 15 13.8702 15 13.8634C15 13.8567 15 13.8499 15 13.8431C15 13.8363 15 13.8295 15 13.8227C15 13.8158 15 13.809 15 13.8022C15 13.7953 15 13.7885 15 13.7816C15 13.7747 15 13.7679 15 13.761C15 13.7541 15 13.7472 15 13.7403C15 13.7333 15 13.7264 15 13.7195C15 13.7125 15 13.7056 15 13.6986C15 13.6917 15 13.6847 15 13.6777C15 13.6707 15 13.6637 15 13.6567C15 13.6497 15 13.6427 15 13.6357C15 13.6286 15 13.6216 15 13.6145C15 13.6075 15 13.6004 15 13.5933C15 13.5862 15 13.5791 15 13.572C15 13.5649 15 13.5578 15 13.5507C15 13.5435 15 13.5364 15 13.5292C15 13.5221 15 13.5149 15 13.5077C15 13.5006 15 13.4934 15 13.4862C15 13.479 15 13.4717 15 13.4645C15 13.4573 15 13.45 15 13.4428C15 13.4355 15 13.4283 15 13.421C15 13.4137 15 13.4064 15 13.3991C15 13.3918 15 13.3845 15 13.3772C15 13.3699 15 13.3625 15 13.3552C15 13.3478 15 13.3405 15 13.3331C15 13.3257 15 13.3183 15 13.3109C15 13.3035 15 13.2961 15 13.2887C15 13.2813 15 13.2738 15 13.2664C15 13.2589 15 13.2515 15 13.244C15 13.2365 15 13.2291 15 13.2216C15 13.2141 15 13.2066 15 13.199C15 13.1915 15 13.184 15 13.1764C15 13.1689 15 13.1613 15 13.1537C15 13.1462 15 13.1386 15 13.131C15 13.1234 15 13.1158 15 13.1082C15 13.1005 15 13.0929 15 13.0853C15 13.0776 15 13.07 15 13.0623C15 13.0546 15 13.0469 15 13.0392C15 13.0315 15 13.0238 15 13.0161C15 13.0084 15 13.0006 15 12.9929C15 12.9851 15 12.9774 15 12.9696C15 12.9618 15 12.9541 15 12.9463C15 12.9385 15 12.9307 15 12.9228C15 12.915 15 12.9072 15 12.8993C15 12.8915 15 12.8836 15 12.8757C15 12.8679 15 12.86 15 12.8521C15 12.8442 15 12.8363 15 12.8284C15 12.8204 15 12.8125 15 12.8045C15 12.7966 15 12.7886 15 12.7807C15 12.7727 15 12.7647 15 12.7567C15 12.7487 15 12.7407 15 12.7327C15 12.7246 15 12.7166 15 12.7085C15 12.7005 15 12.6924 15 12.6843C15 12.6763 15 12.6682 15 12.6601C15 12.652 15 12.6439 15 12.6357C15 12.6276 15 12.6195 15 12.6113C15 12.6031 15 12.595 15 12.5868C15 12.5786 15 12.5704 15 12.5622C15 12.554 15 12.5458 15 12.5376C15 12.5293 15 12.5211 15 12.5128C15 12.5046 15 12.4963 15 12.488C15 12.4797 15 12.4714 15 12.4631C15 12.4548 15 12.4465 15 12.4382C15 12.4298 15 12.4215 15 12.4131C15 12.4048 15 12.3964 15 12.388C15 12.3796 15 12.3712 15 12.3628C15 12.3544 15 12.346 15 12.3375C15 12.3291 15 12.3206 15 12.3122C15 12.3037 15 12.2952 15 12.2867C15 12.2782 15 12.2697 15 12.2612C15 12.2527 15 12.2442 15 12.2356C15 12.2271 15 12.2185 15 12.21C15 12.2014 15 12.1928 15 12.1842C15 12.1756 15 12.167 15 12.1584C15 12.1498 15 12.1411 15 12.1325C15 12.1238 15 12.1152 15 12.1065C15 12.0978 15 12.0891 15 12.0804C15 12.0717 15 12.063 15 12.0543C15 12.0455 15 12.0368 15 12.028C15 12.0193 15 12.0105 15 12.0017C15 11.993 15 11.9842 15 11.9754C15 11.9665 15 11.9577 15 11.9489H14ZM6.16783 11.5752L10.3322 7.87371L9.66783 7.12629L5.50348 10.8277L6.16783 11.5752ZM9.66783 7.87371L13.8322 11.5752L14.4965 10.8277L10.3322 7.12629L9.66783 7.87371ZM8.5 16.9998H5.5V17.9998H8.5V16.9998ZM9 17.4998V13.4998H8V17.4998H9ZM8.5 13.9998C8.50305 13.9998 8.5061 13.9998 8.50913 13.9998C8.51217 13.9998 8.5152 13.9998 8.51823 13.9998C8.52125 13.9998 8.52427 13.9998 8.52729 13.9998C8.5303 13.9998 8.5333 13.9998 8.5363 13.9998C8.5393 13.9998 8.5423 13.9998 8.54529 13.9998C8.54827 13.9998 8.55125 13.9998 8.55423 13.9998C8.5572 13.9998 8.56017 13.9998 8.56313 13.9998C8.5661 13.9998 8.56905 13.9998 8.572 13.9998C8.57495 13.9998 8.57789 13.9998 8.58083 13.9998C8.58377 13.9998 8.5867 13.9998 8.58962 13.9998C8.59255 13.9998 8.59547 13.9998 8.59838 13.9998C8.60129 13.9998 8.6042 13.9998 8.6071 13.9998C8.61 13.9998 8.61289 13.9998 8.61578 13.9998C8.61867 13.9998 8.62155 13.9998 8.62443 13.9998C8.6273 13.9998 8.63017 13.9998 8.63304 13.9998C8.6359 13.9998 8.63876 13.9998 8.64161 13.9998C8.64446 13.9998 8.64731 13.9998 8.65015 13.9998C8.65299 13.9998 8.65582 13.9998 8.65865 13.9998C8.66147 13.9998 8.6643 13.9998 8.66711 13.9998C8.66993 13.9998 8.67274 13.9998 8.67554 13.9998C8.67834 13.9998 8.68114 13.9998 8.68393 13.9998C8.68673 13.9998 8.68951 13.9998 8.69229 13.9998C8.69507 13.9998 8.69785 13.9998 8.70061 13.9998C8.70338 13.9998 8.70614 13.9998 8.7089 13.9998C8.71166 13.9998 8.71441 13.9998 8.71715 13.9998C8.7199 13.9998 8.72264 13.9998 8.72537 13.9998C8.72811 13.9998 8.73083 13.9998 8.73355 13.9998C8.73628 13.9998 8.73899 13.9998 8.7417 13.9998C8.74441 13.9998 8.74712 13.9998 8.74982 13.9998C8.75252 13.9998 8.75521 13.9998 8.7579 13.9998C8.76059 13.9998 8.76327 13.9998 8.76594 13.9998C8.76862 13.9998 8.77129 13.9998 8.77396 13.9998C8.77662 13.9998 8.77928 13.9998 8.78193 13.9998C8.78459 13.9998 8.78724 13.9998 8.78988 13.9998C8.79252 13.9998 8.79516 13.9998 8.79779 13.9998C8.80042 13.9998 8.80305 13.9998 8.80567 13.9998C8.80829 13.9998 8.8109 13.9998 8.81351 13.9998C8.81612 13.9998 8.81872 13.9998 8.82132 13.9998C8.82392 13.9998 8.82651 13.9998 8.8291 13.9998C8.83169 13.9998 8.83427 13.9998 8.83685 13.9998C8.83942 13.9998 8.842 13.9998 8.84456 13.9998C8.84713 13.9998 8.84969 13.9998 8.85224 13.9998C8.8548 13.9998 8.85735 13.9998 8.85989 13.9998C8.86244 13.9998 8.86497 13.9998 8.86751 13.9998C8.87004 13.9998 8.87257 13.9998 8.87509 13.9998C8.87762 13.9998 8.88013 13.9998 8.88265 13.9998C8.88516 13.9998 8.88766 13.9998 8.89017 13.9998C8.89267 13.9998 8.89516 13.9998 8.89766 13.9998C8.90015 13.9998 8.90263 13.9998 8.90511 13.9998C8.9076 13.9998 8.91007 13.9998 8.91254 13.9998C8.91501 13.9998 8.91748 13.9998 8.91994 13.9998C8.9224 13.9998 8.92485 13.9998 8.9273 13.9998C8.92975 13.9998 8.9322 13.9998 8.93464 13.9998C8.93708 13.9998 8.93951 13.9998 8.94194 13.9998C8.94437 13.9998 8.94679 13.9998 8.94921 13.9998C8.95163 13.9998 8.95405 13.9998 8.95646 13.9998C8.95887 13.9998 8.96127 13.9998 8.96367 13.9998C8.96607 13.9998 8.96846 13.9998 8.97085 13.9998C8.97324 13.9998 8.97563 13.9998 8.97801 13.9998C8.98039 13.9998 8.98276 13.9998 8.98513 13.9998C8.9875 13.9998 8.98986 13.9998 8.99222 13.9998C8.99458 13.9998 8.99694 13.9998 8.99929 13.9998C9.00164 13.9998 9.00398 13.9998 9.00632 13.9998C9.00866 13.9998 9.011 13.9998 9.01333 13.9998C9.01566 13.9998 9.01798 13.9998 9.02031 13.9998C9.02263 13.9998 9.02494 13.9998 9.02725 13.9998C9.02957 13.9998 9.03187 13.9998 9.03417 13.9998C9.03648 13.9998 9.03877 13.9998 9.04106 13.9998C9.04336 13.9998 9.04564 13.9998 9.04793 13.9998C9.05021 13.9998 9.05249 13.9998 9.05476 13.9998C9.05704 13.9998 9.0593 13.9998 9.06157 13.9998C9.06383 13.9998 9.06609 13.9998 9.06835 13.9998C9.0706 13.9998 9.07285 13.9998 9.0751 13.9998C9.07734 13.9998 9.07959 13.9998 9.08182 13.9998C9.08406 13.9998 9.08629 13.9998 9.08852 13.9998C9.09074 13.9998 9.09297 13.9998 9.09519 13.9998C9.0974 13.9998 9.09962 13.9998 9.10183 13.9998C9.10404 13.9998 9.10624 13.9998 9.10844 13.9998C9.11064 13.9998 9.11284 13.9998 9.11503 13.9998C9.11722 13.9998 9.11941 13.9998 9.12159 13.9998C9.12377 13.9998 9.12595 13.9998 9.12813 13.9998C9.1303 13.9998 9.13247 13.9998 9.13463 13.9998C9.1368 13.9998 9.13896 13.9998 9.14111 13.9998C9.14327 13.9998 9.14542 13.9998 9.14757 13.9998C9.14972 13.9998 9.15186 13.9998 9.154 13.9998C9.15614 13.9998 9.15827 13.9998 9.1604 13.9998C9.16253 13.9998 9.16466 13.9998 9.16678 13.9998C9.1689 13.9998 9.17102 13.9998 9.17314 13.9998C9.17525 13.9998 9.17736 13.9998 9.17946 13.9998C9.18157 13.9998 9.18367 13.9998 9.18577 13.9998C9.18786 13.9998 9.18995 13.9998 9.19204 13.9998C9.19413 13.9998 9.19622 13.9998 9.1983 13.9998C9.20038 13.9998 9.20245 13.9998 9.20452 13.9998C9.2066 13.9998 9.20866 13.9998 9.21073 13.9998C9.21279 13.9998 9.21485 13.9998 9.21691 13.9998C9.21896 13.9998 9.22101 13.9998 9.22306 13.9998C9.22511 13.9998 9.22715 13.9998 9.22919 13.9998C9.23123 13.9998 9.23327 13.9998 9.2353 13.9998C9.23733 13.9998 9.23936 13.9998 9.24138 13.9998C9.2434 13.9998 9.24542 13.9998 9.24744 13.9998C9.24945 13.9998 9.25147 13.9998 9.25347 13.9998C9.25548 13.9998 9.25749 13.9998 9.25949 13.9998C9.26149 13.9998 9.26348 13.9998 9.26547 13.9998C9.26747 13.9998 9.26946 13.9998 9.27144 13.9998C9.27343 13.9998 9.27541 13.9998 9.27738 13.9998C9.27936 13.9998 9.28133 13.9998 9.2833 13.9998C9.28527 13.9998 9.28724 13.9998 9.2892 13.9998C9.29116 13.9998 9.29312 13.9998 9.29508 13.9998C9.29703 13.9998 9.29898 13.9998 9.30093 13.9998C9.30288 13.9998 9.30482 13.9998 9.30676 13.9998C9.3087 13.9998 9.31063 13.9998 9.31257 13.9998C9.3145 13.9998 9.31643 13.9998 9.31835 13.9998C9.32028 13.9998 9.3222 13.9998 9.32412 13.9998C9.32604 13.9998 9.32795 13.9998 9.32986 13.9998C9.33177 13.9998 9.33368 13.9998 9.33558 13.9998C9.33749 13.9998 9.33939 13.9998 9.34128 13.9998C9.34318 13.9998 9.34507 13.9998 9.34696 13.9998C9.34885 13.9998 9.35074 13.9998 9.35262 13.9998C9.35451 13.9998 9.35638 13.9998 9.35826 13.9998C9.36014 13.9998 9.36201 13.9998 9.36388 13.9998C9.36575 13.9998 9.36761 13.9998 9.36947 13.9998C9.37134 13.9998 9.3732 13.9998 9.37505 13.9998C9.37691 13.9998 9.37876 13.9998 9.38061 13.9998C9.38246 13.9998 9.3843 13.9998 9.38614 13.9998C9.38799 13.9998 9.38982 13.9998 9.39166 13.9998C9.39349 13.9998 9.39533 13.9998 9.39716 13.9998C9.39898 13.9998 9.40081 13.9998 9.40263 13.9998C9.40445 13.9998 9.40627 13.9998 9.40809 13.9998C9.40991 13.9998 9.41172 13.9998 9.41353 13.9998C9.41534 13.9998 9.41714 13.9998 9.41895 13.9998C9.42075 13.9998 9.42255 13.9998 9.42435 13.9998C9.42614 13.9998 9.42794 13.9998 9.42973 13.9998C9.43152 13.9998 9.43331 13.9998 9.43509 13.9998C9.43687 13.9998 9.43866 13.9998 9.44043 13.9998C9.44221 13.9998 9.44399 13.9998 9.44576 13.9998C9.44753 13.9998 9.4493 13.9998 9.45107 13.9998C9.45283 13.9998 9.4546 13.9998 9.45636 13.9998C9.45812 13.9998 9.45987 13.9998 9.46163 13.9998C9.46338 13.9998 9.46513 13.9998 9.46688 13.9998C9.46863 13.9998 9.47037 13.9998 9.47212 13.9998C9.47386 13.9998 9.4756 13.9998 9.47733 13.9998C9.47907 13.9998 9.4808 13.9998 9.48254 13.9998C9.48427 13.9998 9.48599 13.9998 9.48772 13.9998C9.48944 13.9998 9.49117 13.9998 9.49289 13.9998C9.4946 13.9998 9.49632 13.9998 9.49804 13.9998C9.49975 13.9998 9.50146 13.9998 9.50317 13.9998C9.50488 13.9998 9.50658 13.9998 9.50829 13.9998C9.50999 13.9998 9.51169 13.9998 9.51338 13.9998C9.51508 13.9998 9.51678 13.9998 9.51847 13.9998C9.52016 13.9998 9.52185 13.9998 9.52354 13.9998C9.52522 13.9998 9.52691 13.9998 9.52859 13.9998C9.53027 13.9998 9.53195 13.9998 9.53362 13.9998C9.5353 13.9998 9.53697 13.9998 9.53864 13.9998C9.54031 13.9998 9.54198 13.9998 9.54365 13.9998C9.54531 13.9998 9.54698 13.9998 9.54864 13.9998C9.5503 13.9998 9.55196 13.9998 9.55361 13.9998C9.55527 13.9998 9.55692 13.9998 9.55857 13.9998C9.56022 13.9998 9.56187 13.9998 9.56351 13.9998C9.56516 13.9998 9.5668 13.9998 9.56844 13.9998C9.57008 13.9998 9.57172 13.9998 9.57336 13.9998C9.57499 13.9998 9.57663 13.9998 9.57826 13.9998C9.57989 13.9998 9.58152 13.9998 9.58314 13.9998C9.58477 13.9998 9.58639 13.9998 9.58802 13.9998C9.58964 13.9998 9.59126 13.9998 9.59287 13.9998C9.59449 13.9998 9.59611 13.9998 9.59772 13.9998C9.59933 13.9998 9.60094 13.9998 9.60255 13.9998C9.60416 13.9998 9.60576 13.9998 9.60736 13.9998C9.60897 13.9998 9.61057 13.9998 9.61217 13.9998C9.61377 13.9998 9.61536 13.9998 9.61696 13.9998C9.61855 13.9998 9.62014 13.9998 9.62173 13.9998C9.62332 13.9998 9.62491 13.9998 9.6265 13.9998C9.62808 13.9998 9.62967 13.9998 9.63125 13.9998C9.63283 13.9998 9.63441 13.9998 9.63599 13.9998C9.63756 13.9998 9.63914 13.9998 9.64071 13.9998C9.64228 13.9998 9.64386 13.9998 9.64542 13.9998C9.64699 13.9998 9.64856 13.9998 9.65013 13.9998C9.65169 13.9998 9.65325 13.9998 9.65482 13.9998C9.65638 13.9998 9.65794 13.9998 9.65949 13.9998C9.66105 13.9998 9.6626 13.9998 9.66416 13.9998C9.66571 13.9998 9.66726 13.9998 9.66881 13.9998C9.67036 13.9998 9.67191 13.9998 9.67345 13.9998C9.675 13.9998 9.67654 13.9998 9.67808 13.9998C9.67963 13.9998 9.68117 13.9998 9.6827 13.9998C9.68424 13.9998 9.68578 13.9998 9.68731 13.9998C9.68885 13.9998 9.69038 13.9998 9.69191 13.9998C9.69344 13.9998 9.69497 13.9998 9.6965 13.9998C9.69803 13.9998 9.69955 13.9998 9.70108 13.9998C9.7026 13.9998 9.70412 13.9998 9.70564 13.9998C9.70716 13.9998 9.70868 13.9998 9.7102 13.9998C9.71171 13.9998 9.71323 13.9998 9.71474 13.9998C9.71626 13.9998 9.71777 13.9998 9.71928 13.9998C9.72079 13.9998 9.7223 13.9998 9.72381 13.9998C9.72531 13.9998 9.72682 13.9998 9.72832 13.9998C9.72983 13.9998 9.73133 13.9998 9.73283 13.9998C9.73433 13.9998 9.73583 13.9998 9.73733 13.9998C9.73883 13.9998 9.74032 13.9998 9.74182 13.9998C9.74331 13.9998 9.7448 13.9998 9.7463 13.9998C9.74779 13.9998 9.74928 13.9998 9.75077 13.9998C9.75225 13.9998 9.75374 13.9998 9.75523 13.9998C9.75671 13.9998 9.7582 13.9998 9.75968 13.9998C9.76116 13.9998 9.76265 13.9998 9.76413 13.9998C9.76561 13.9998 9.76709 13.9998 9.76856 13.9998C9.77004 13.9998 9.77152 13.9998 9.77299 13.9998C9.77447 13.9998 9.77594 13.9998 9.77741 13.9998C9.77888 13.9998 9.78035 13.9998 9.78182 13.9998C9.78329 13.9998 9.78476 13.9998 9.78623 13.9998C9.7877 13.9998 9.78916 13.9998 9.79063 13.9998C9.79209 13.9998 9.79355 13.9998 9.79502 13.9998C9.79648 13.9998 9.79794 13.9998 9.7994 13.9998C9.80086 13.9998 9.80232 13.9998 9.80377 13.9998C9.80523 13.9998 9.80669 13.9998 9.80814 13.9998C9.8096 13.9998 9.81105 13.9998 9.8125 13.9998C9.81396 13.9998 9.81541 13.9998 9.81686 13.9998C9.81831 13.9998 9.81976 13.9998 9.82121 13.9998C9.82266 13.9998 9.8241 13.9998 9.82555 13.9998C9.827 13.9998 9.82844 13.9998 9.82989 13.9998C9.83133 13.9998 9.83278 13.9998 9.83422 13.9998C9.83566 13.9998 9.8371 13.9998 9.83854 13.9998C9.83998 13.9998 9.84142 13.9998 9.84286 13.9998C9.8443 13.9998 9.84574 13.9998 9.84717 13.9998C9.84861 13.9998 9.85005 13.9998 9.85148 13.9998C9.85292 13.9998 9.85435 13.9998 9.85578 13.9998C9.85722 13.9998 9.85865 13.9998 9.86008 13.9998C9.86151 13.9998 9.86294 13.9998 9.86437 13.9998C9.8658 13.9998 9.86723 13.9998 9.86866 13.9998C9.87009 13.9998 9.87152 13.9998 9.87294 13.9998C9.87437 13.9998 9.8758 13.9998 9.87722 13.9998C9.87865 13.9998 9.88007 13.9998 9.8815 13.9998C9.88292 13.9998 9.88434 13.9998 9.88577 13.9998C9.88719 13.9998 9.88861 13.9998 9.89003 13.9998C9.89145 13.9998 9.89287 13.9998 9.89429 13.9998C9.89571 13.9998 9.89713 13.9998 9.89855 13.9998C9.89997 13.9998 9.90139 13.9998 9.9028 13.9998C9.90422 13.9998 9.90564 13.9998 9.90705 13.9998C9.90847 13.9998 9.90989 13.9998 9.9113 13.9998C9.91272 13.9998 9.91413 13.9998 9.91555 13.9998C9.91696 13.9998 9.91838 13.9998 9.91979 13.9998C9.9212 13.9998 9.92261 13.9998 9.92403 13.9998C9.92544 13.9998 9.92685 13.9998 9.92826 13.9998C9.92967 13.9998 9.93108 13.9998 9.9325 13.9998C9.93391 13.9998 9.93532 13.9998 9.93673 13.9998C9.93814 13.9998 9.93955 13.9998 9.94095 13.9998C9.94236 13.9998 9.94377 13.9998 9.94518 13.9998C9.94659 13.9998 9.948 13.9998 9.94941 13.9998C9.95081 13.9998 9.95222 13.9998 9.95363 13.9998C9.95504 13.9998 9.95644 13.9998 9.95785 13.9998C9.95926 13.9998 9.96066 13.9998 9.96207 13.9998C9.96347 13.9998 9.96488 13.9998 9.96629 13.9998C9.96769 13.9998 9.9691 13.9998 9.9705 13.9998C9.97191 13.9998 9.97331 13.9998 9.97472 13.9998C9.97612 13.9998 9.97753 13.9998 9.97893 13.9998C9.98034 13.9998 9.98174 13.9998 9.98315 13.9998C9.98455 13.9998 9.98596 13.9998 9.98736 13.9998C9.98877 13.9998 9.99017 13.9998 9.99157 13.9998C9.99298 13.9998 9.99438 13.9998 9.99579 13.9998C9.99719 13.9998 9.9986 13.9998 10 13.9998C10.0014 13.9998 10.0028 13.9998 10.0042 13.9998C10.0056 13.9998 10.007 13.9998 10.0084 13.9998C10.0098 13.9998 10.0112 13.9998 10.0126 13.9998C10.014 13.9998 10.0154 13.9998 10.0169 13.9998C10.0183 13.9998 10.0197 13.9998 10.0211 13.9998C10.0225 13.9998 10.0239 13.9998 10.0253 13.9998C10.0267 13.9998 10.0281 13.9998 10.0295 13.9998C10.0309 13.9998 10.0323 13.9998 10.0337 13.9998C10.0351 13.9998 10.0365 13.9998 10.0379 13.9998C10.0393 13.9998 10.0407 13.9998 10.0422 13.9998C10.0436 13.9998 10.045 13.9998 10.0464 13.9998C10.0478 13.9998 10.0492 13.9998 10.0506 13.9998C10.052 13.9998 10.0534 13.9998 10.0548 13.9998C10.0562 13.9998 10.0576 13.9998 10.059 13.9998C10.0605 13.9998 10.0619 13.9998 10.0633 13.9998C10.0647 13.9998 10.0661 13.9998 10.0675 13.9998C10.0689 13.9998 10.0703 13.9998 10.0717 13.9998C10.0731 13.9998 10.0746 13.9998 10.076 13.9998C10.0774 13.9998 10.0788 13.9998 10.0802 13.9998C10.0816 13.9998 10.083 13.9998 10.0845 13.9998C10.0859 13.9998 10.0873 13.9998 10.0887 13.9998C10.0901 13.9998 10.0915 13.9998 10.0929 13.9998C10.0944 13.9998 10.0958 13.9998 10.0972 13.9998C10.0986 13.9998 10.1 13.9998 10.1014 13.9998C10.1029 13.9998 10.1043 13.9998 10.1057 13.9998C10.1071 13.9998 10.1085 13.9998 10.11 13.9998C10.1114 13.9998 10.1128 13.9998 10.1142 13.9998C10.1157 13.9998 10.1171 13.9998 10.1185 13.9998C10.1199 13.9998 10.1214 13.9998 10.1228 13.9998C10.1242 13.9998 10.1256 13.9998 10.1271 13.9998C10.1285 13.9998 10.1299 13.9998 10.1313 13.9998C10.1328 13.9998 10.1342 13.9998 10.1356 13.9998C10.1371 13.9998 10.1385 13.9998 10.1399 13.9998C10.1414 13.9998 10.1428 13.9998 10.1442 13.9998C10.1456 13.9998 10.1471 13.9998 10.1485 13.9998C10.15 13.9998 10.1514 13.9998 10.1528 13.9998C10.1543 13.9998 10.1557 13.9998 10.1571 13.9998C10.1586 13.9998 10.16 13.9998 10.1615 13.9998C10.1629 13.9998 10.1643 13.9998 10.1658 13.9998C10.1672 13.9998 10.1687 13.9998 10.1701 13.9998C10.1716 13.9998 10.173 13.9998 10.1744 13.9998C10.1759 13.9998 10.1773 13.9998 10.1788 13.9998C10.1802 13.9998 10.1817 13.9998 10.1831 13.9998C10.1846 13.9998 10.186 13.9998 10.1875 13.9998C10.1889 13.9998 10.1904 13.9998 10.1919 13.9998C10.1933 13.9998 10.1948 13.9998 10.1962 13.9998C10.1977 13.9998 10.1991 13.9998 10.2006 13.9998C10.2021 13.9998 10.2035 13.9998 10.205 13.9998C10.2064 13.9998 10.2079 13.9998 10.2094 13.9998C10.2108 13.9998 10.2123 13.9998 10.2138 13.9998C10.2152 13.9998 10.2167 13.9998 10.2182 13.9998C10.2196 13.9998 10.2211 13.9998 10.2226 13.9998C10.2241 13.9998 10.2255 13.9998 10.227 13.9998C10.2285 13.9998 10.23 13.9998 10.2314 13.9998C10.2329 13.9998 10.2344 13.9998 10.2359 13.9998C10.2374 13.9998 10.2388 13.9998 10.2403 13.9998C10.2418 13.9998 10.2433 13.9998 10.2448 13.9998C10.2463 13.9998 10.2477 13.9998 10.2492 13.9998C10.2507 13.9998 10.2522 13.9998 10.2537 13.9998C10.2552 13.9998 10.2567 13.9998 10.2582 13.9998C10.2597 13.9998 10.2612 13.9998 10.2627 13.9998C10.2642 13.9998 10.2657 13.9998 10.2672 13.9998C10.2687 13.9998 10.2702 13.9998 10.2717 13.9998C10.2732 13.9998 10.2747 13.9998 10.2762 13.9998C10.2777 13.9998 10.2792 13.9998 10.2807 13.9998C10.2822 13.9998 10.2837 13.9998 10.2853 13.9998C10.2868 13.9998 10.2883 13.9998 10.2898 13.9998C10.2913 13.9998 10.2928 13.9998 10.2944 13.9998C10.2959 13.9998 10.2974 13.9998 10.2989 13.9998C10.3004 13.9998 10.302 13.9998 10.3035 13.9998C10.305 13.9998 10.3066 13.9998 10.3081 13.9998C10.3096 13.9998 10.3112 13.9998 10.3127 13.9998C10.3142 13.9998 10.3158 13.9998 10.3173 13.9998C10.3188 13.9998 10.3204 13.9998 10.3219 13.9998C10.3235 13.9998 10.325 13.9998 10.3265 13.9998C10.3281 13.9998 10.3296 13.9998 10.3312 13.9998C10.3327 13.9998 10.3343 13.9998 10.3358 13.9998C10.3374 13.9998 10.339 13.9998 10.3405 13.9998C10.3421 13.9998 10.3436 13.9998 10.3452 13.9998C10.3467 13.9998 10.3483 13.9998 10.3499 13.9998C10.3514 13.9998 10.353 13.9998 10.3546 13.9998C10.3561 13.9998 10.3577 13.9998 10.3593 13.9998C10.3609 13.9998 10.3624 13.9998 10.364 13.9998C10.3656 13.9998 10.3672 13.9998 10.3688 13.9998C10.3703 13.9998 10.3719 13.9998 10.3735 13.9998C10.3751 13.9998 10.3767 13.9998 10.3783 13.9998C10.3799 13.9998 10.3814 13.9998 10.383 13.9998C10.3846 13.9998 10.3862 13.9998 10.3878 13.9998C10.3894 13.9998 10.391 13.9998 10.3926 13.9998C10.3942 13.9998 10.3958 13.9998 10.3975 13.9998C10.3991 13.9998 10.4007 13.9998 10.4023 13.9998C10.4039 13.9998 10.4055 13.9998 10.4071 13.9998C10.4087 13.9998 10.4104 13.9998 10.412 13.9998C10.4136 13.9998 10.4152 13.9998 10.4169 13.9998C10.4185 13.9998 10.4201 13.9998 10.4217 13.9998C10.4234 13.9998 10.425 13.9998 10.4266 13.9998C10.4283 13.9998 10.4299 13.9998 10.4316 13.9998C10.4332 13.9998 10.4348 13.9998 10.4365 13.9998C10.4381 13.9998 10.4398 13.9998 10.4414 13.9998C10.4431 13.9998 10.4447 13.9998 10.4464 13.9998C10.448 13.9998 10.4497 13.9998 10.4514 13.9998C10.453 13.9998 10.4547 13.9998 10.4564 13.9998C10.458 13.9998 10.4597 13.9998 10.4614 13.9998C10.463 13.9998 10.4647 13.9998 10.4664 13.9998C10.4681 13.9998 10.4697 13.9998 10.4714 13.9998C10.4731 13.9998 10.4748 13.9998 10.4765 13.9998C10.4782 13.9998 10.4798 13.9998 10.4815 13.9998C10.4832 13.9998 10.4849 13.9998 10.4866 13.9998C10.4883 13.9998 10.49 13.9998 10.4917 13.9998C10.4934 13.9998 10.4951 13.9998 10.4968 13.9998C10.4985 13.9998 10.5003 13.9998 10.502 13.9998C10.5037 13.9998 10.5054 13.9998 10.5071 13.9998C10.5088 13.9998 10.5106 13.9998 10.5123 13.9998C10.514 13.9998 10.5157 13.9998 10.5175 13.9998C10.5192 13.9998 10.5209 13.9998 10.5227 13.9998C10.5244 13.9998 10.5261 13.9998 10.5279 13.9998C10.5296 13.9998 10.5314 13.9998 10.5331 13.9998C10.5349 13.9998 10.5366 13.9998 10.5384 13.9998C10.5401 13.9998 10.5419 13.9998 10.5436 13.9998C10.5454 13.9998 10.5472 13.9998 10.5489 13.9998C10.5507 13.9998 10.5525 13.9998 10.5542 13.9998C10.556 13.9998 10.5578 13.9998 10.5596 13.9998C10.5613 13.9998 10.5631 13.9998 10.5649 13.9998C10.5667 13.9998 10.5685 13.9998 10.5703 13.9998C10.5721 13.9998 10.5739 13.9998 10.5757 13.9998C10.5775 13.9998 10.5792 13.9998 10.5811 13.9998C10.5829 13.9998 10.5847 13.9998 10.5865 13.9998C10.5883 13.9998 10.5901 13.9998 10.5919 13.9998C10.5937 13.9998 10.5955 13.9998 10.5974 13.9998C10.5992 13.9998 10.601 13.9998 10.6028 13.9998C10.6047 13.9998 10.6065 13.9998 10.6083 13.9998C10.6102 13.9998 10.612 13.9998 10.6139 13.9998C10.6157 13.9998 10.6175 13.9998 10.6194 13.9998C10.6212 13.9998 10.6231 13.9998 10.6249 13.9998C10.6268 13.9998 10.6287 13.9998 10.6305 13.9998C10.6324 13.9998 10.6343 13.9998 10.6361 13.9998C10.638 13.9998 10.6399 13.9998 10.6417 13.9998C10.6436 13.9998 10.6455 13.9998 10.6474 13.9998C10.6493 13.9998 10.6511 13.9998 10.653 13.9998C10.6549 13.9998 10.6568 13.9998 10.6587 13.9998C10.6606 13.9998 10.6625 13.9998 10.6644 13.9998C10.6663 13.9998 10.6682 13.9998 10.6701 13.9998C10.672 13.9998 10.674 13.9998 10.6759 13.9998C10.6778 13.9998 10.6797 13.9998 10.6816 13.9998C10.6836 13.9998 10.6855 13.9998 10.6874 13.9998C10.6894 13.9998 10.6913 13.9998 10.6932 13.9998C10.6952 13.9998 10.6971 13.9998 10.6991 13.9998C10.701 13.9998 10.703 13.9998 10.7049 13.9998C10.7069 13.9998 10.7088 13.9998 10.7108 13.9998C10.7128 13.9998 10.7147 13.9998 10.7167 13.9998C10.7187 13.9998 10.7206 13.9998 10.7226 13.9998C10.7246 13.9998 10.7266 13.9998 10.7286 13.9998C10.7305 13.9998 10.7325 13.9998 10.7345 13.9998C10.7365 13.9998 10.7385 13.9998 10.7405 13.9998C10.7425 13.9998 10.7445 13.9998 10.7465 13.9998C10.7485 13.9998 10.7505 13.9998 10.7526 13.9998C10.7546 13.9998 10.7566 13.9998 10.7586 13.9998C10.7606 13.9998 10.7627 13.9998 10.7647 13.9998C10.7667 13.9998 10.7688 13.9998 10.7708 13.9998C10.7728 13.9998 10.7749 13.9998 10.7769 13.9998C10.779 13.9998 10.781 13.9998 10.7831 13.9998C10.7852 13.9998 10.7872 13.9998 10.7893 13.9998C10.7913 13.9998 10.7934 13.9998 10.7955 13.9998C10.7975 13.9998 10.7996 13.9998 10.8017 13.9998C10.8038 13.9998 10.8059 13.9998 10.808 13.9998C10.81 13.9998 10.8121 13.9998 10.8142 13.9998C10.8163 13.9998 10.8184 13.9998 10.8205 13.9998C10.8226 13.9998 10.8248 13.9998 10.8269 13.9998C10.829 13.9998 10.8311 13.9998 10.8332 13.9998C10.8353 13.9998 10.8375 13.9998 10.8396 13.9998C10.8417 13.9998 10.8439 13.9998 10.846 13.9998C10.8481 13.9998 10.8503 13.9998 10.8524 13.9998C10.8546 13.9998 10.8567 13.9998 10.8589 13.9998C10.861 13.9998 10.8632 13.9998 10.8654 13.9998C10.8675 13.9998 10.8697 13.9998 10.8719 13.9998C10.874 13.9998 10.8762 13.9998 10.8784 13.9998C10.8806 13.9998 10.8828 13.9998 10.885 13.9998C10.8872 13.9998 10.8894 13.9998 10.8916 13.9998C10.8938 13.9998 10.896 13.9998 10.8982 13.9998C10.9004 13.9998 10.9026 13.9998 10.9048 13.9998C10.907 13.9998 10.9093 13.9998 10.9115 13.9998C10.9137 13.9998 10.9159 13.9998 10.9182 13.9998C10.9204 13.9998 10.9227 13.9998 10.9249 13.9998C10.9271 13.9998 10.9294 13.9998 10.9317 13.9998C10.9339 13.9998 10.9362 13.9998 10.9384 13.9998C10.9407 13.9998 10.943 13.9998 10.9452 13.9998C10.9475 13.9998 10.9498 13.9998 10.9521 13.9998C10.9544 13.9998 10.9566 13.9998 10.9589 13.9998C10.9612 13.9998 10.9635 13.9998 10.9658 13.9998C10.9681 13.9998 10.9704 13.9998 10.9727 13.9998C10.9751 13.9998 10.9774 13.9998 10.9797 13.9998C10.982 13.9998 10.9843 13.9998 10.9867 13.9998C10.989 13.9998 10.9913 13.9998 10.9937 13.9998C10.996 13.9998 10.9984 13.9998 11.0007 13.9998C11.0031 13.9998 11.0054 13.9998 11.0078 13.9998C11.0101 13.9998 11.0125 13.9998 11.0149 13.9998C11.0172 13.9998 11.0196 13.9998 11.022 13.9998C11.0244 13.9998 11.0268 13.9998 11.0291 13.9998C11.0315 13.9998 11.0339 13.9998 11.0363 13.9998C11.0387 13.9998 11.0411 13.9998 11.0435 13.9998C11.046 13.9998 11.0484 13.9998 11.0508 13.9998C11.0532 13.9998 11.0556 13.9998 11.0581 13.9998C11.0605 13.9998 11.0629 13.9998 11.0654 13.9998C11.0678 13.9998 11.0702 13.9998 11.0727 13.9998C11.0751 13.9998 11.0776 13.9998 11.0801 13.9998C11.0825 13.9998 11.085 13.9998 11.0875 13.9998C11.0899 13.9998 11.0924 13.9998 11.0949 13.9998C11.0974 13.9998 11.0999 13.9998 11.1023 13.9998C11.1048 13.9998 11.1073 13.9998 11.1098 13.9998C11.1123 13.9998 11.1148 13.9998 11.1174 13.9998C11.1199 13.9998 11.1224 13.9998 11.1249 13.9998C11.1274 13.9998 11.13 13.9998 11.1325 13.9998C11.135 13.9998 11.1376 13.9998 11.1401 13.9998C11.1427 13.9998 11.1452 13.9998 11.1478 13.9998C11.1503 13.9998 11.1529 13.9998 11.1554 13.9998C11.158 13.9998 11.1606 13.9998 11.1632 13.9998C11.1657 13.9998 11.1683 13.9998 11.1709 13.9998C11.1735 13.9998 11.1761 13.9998 11.1787 13.9998C11.1813 13.9998 11.1839 13.9998 11.1865 13.9998C11.1891 13.9998 11.1917 13.9998 11.1943 13.9998C11.197 13.9998 11.1996 13.9998 11.2022 13.9998C11.2048 13.9998 11.2075 13.9998 11.2101 13.9998C11.2128 13.9998 11.2154 13.9998 11.2181 13.9998C11.2207 13.9998 11.2234 13.9998 11.226 13.9998C11.2287 13.9998 11.2314 13.9998 11.2341 13.9998C11.2367 13.9998 11.2394 13.9998 11.2421 13.9998C11.2448 13.9998 11.2475 13.9998 11.2502 13.9998C11.2529 13.9998 11.2556 13.9998 11.2583 13.9998C11.261 13.9998 11.2637 13.9998 11.2664 13.9998C11.2692 13.9998 11.2719 13.9998 11.2746 13.9998C11.2774 13.9998 11.2801 13.9998 11.2828 13.9998C11.2856 13.9998 11.2883 13.9998 11.2911 13.9998C11.2939 13.9998 11.2966 13.9998 11.2994 13.9998C11.3022 13.9998 11.3049 13.9998 11.3077 13.9998C11.3105 13.9998 11.3133 13.9998 11.3161 13.9998C11.3189 13.9998 11.3217 13.9998 11.3245 13.9998C11.3273 13.9998 11.3301 13.9998 11.3329 13.9998C11.3357 13.9998 11.3385 13.9998 11.3414 13.9998C11.3442 13.9998 11.347 13.9998 11.3499 13.9998C11.3527 13.9998 11.3555 13.9998 11.3584 13.9998C11.3612 13.9998 11.3641 13.9998 11.367 13.9998C11.3698 13.9998 11.3727 13.9998 11.3756 13.9998C11.3784 13.9998 11.3813 13.9998 11.3842 13.9998C11.3871 13.9998 11.39 13.9998 11.3929 13.9998C11.3958 13.9998 11.3987 13.9998 11.4016 13.9998C11.4045 13.9998 11.4075 13.9998 11.4104 13.9998C11.4133 13.9998 11.4162 13.9998 11.4192 13.9998C11.4221 13.9998 11.425 13.9998 11.428 13.9998C11.4309 13.9998 11.4339 13.9998 11.4369 13.9998C11.4398 13.9998 11.4428 13.9998 11.4458 13.9998C11.4487 13.9998 11.4517 13.9998 11.4547 13.9998C11.4577 13.9998 11.4607 13.9998 11.4637 13.9998C11.4667 13.9998 11.4697 13.9998 11.4727 13.9998C11.4757 13.9998 11.4787 13.9998 11.4818 13.9998C11.4848 13.9998 11.4878 13.9998 11.4909 13.9998C11.4939 13.9998 11.4969 13.9998 11.5 13.9998V12.9998C11.4969 12.9998 11.4939 12.9998 11.4909 12.9998C11.4878 12.9998 11.4848 12.9998 11.4818 12.9998C11.4787 12.9998 11.4757 12.9998 11.4727 12.9998C11.4697 12.9998 11.4667 12.9998 11.4637 12.9998C11.4607 12.9998 11.4577 12.9998 11.4547 12.9998C11.4517 12.9998 11.4487 12.9998 11.4458 12.9998C11.4428 12.9998 11.4398 12.9998 11.4369 12.9998C11.4339 12.9998 11.4309 12.9998 11.428 12.9998C11.425 12.9998 11.4221 12.9998 11.4192 12.9998C11.4162 12.9998 11.4133 12.9998 11.4104 12.9998C11.4075 12.9998 11.4045 12.9998 11.4016 12.9998C11.3987 12.9998 11.3958 12.9998 11.3929 12.9998C11.39 12.9998 11.3871 12.9998 11.3842 12.9998C11.3813 12.9998 11.3784 12.9998 11.3756 12.9998C11.3727 12.9998 11.3698 12.9998 11.367 12.9998C11.3641 12.9998 11.3612 12.9998 11.3584 12.9998C11.3555 12.9998 11.3527 12.9998 11.3499 12.9998C11.347 12.9998 11.3442 12.9998 11.3414 12.9998C11.3385 12.9998 11.3357 12.9998 11.3329 12.9998C11.3301 12.9998 11.3273 12.9998 11.3245 12.9998C11.3217 12.9998 11.3189 12.9998 11.3161 12.9998C11.3133 12.9998 11.3105 12.9998 11.3077 12.9998C11.3049 12.9998 11.3022 12.9998 11.2994 12.9998C11.2966 12.9998 11.2939 12.9998 11.2911 12.9998C11.2883 12.9998 11.2856 12.9998 11.2828 12.9998C11.2801 12.9998 11.2774 12.9998 11.2746 12.9998C11.2719 12.9998 11.2692 12.9998 11.2664 12.9998C11.2637 12.9998 11.261 12.9998 11.2583 12.9998C11.2556 12.9998 11.2529 12.9998 11.2502 12.9998C11.2475 12.9998 11.2448 12.9998 11.2421 12.9998C11.2394 12.9998 11.2367 12.9998 11.2341 12.9998C11.2314 12.9998 11.2287 12.9998 11.226 12.9998C11.2234 12.9998 11.2207 12.9998 11.2181 12.9998C11.2154 12.9998 11.2128 12.9998 11.2101 12.9998C11.2075 12.9998 11.2048 12.9998 11.2022 12.9998C11.1996 12.9998 11.197 12.9998 11.1943 12.9998C11.1917 12.9998 11.1891 12.9998 11.1865 12.9998C11.1839 12.9998 11.1813 12.9998 11.1787 12.9998C11.1761 12.9998 11.1735 12.9998 11.1709 12.9998C11.1683 12.9998 11.1657 12.9998 11.1632 12.9998C11.1606 12.9998 11.158 12.9998 11.1554 12.9998C11.1529 12.9998 11.1503 12.9998 11.1478 12.9998C11.1452 12.9998 11.1427 12.9998 11.1401 12.9998C11.1376 12.9998 11.135 12.9998 11.1325 12.9998C11.13 12.9998 11.1274 12.9998 11.1249 12.9998C11.1224 12.9998 11.1199 12.9998 11.1174 12.9998C11.1148 12.9998 11.1123 12.9998 11.1098 12.9998C11.1073 12.9998 11.1048 12.9998 11.1023 12.9998C11.0999 12.9998 11.0974 12.9998 11.0949 12.9998C11.0924 12.9998 11.0899 12.9998 11.0875 12.9998C11.085 12.9998 11.0825 12.9998 11.0801 12.9998C11.0776 12.9998 11.0751 12.9998 11.0727 12.9998C11.0702 12.9998 11.0678 12.9998 11.0654 12.9998C11.0629 12.9998 11.0605 12.9998 11.0581 12.9998C11.0556 12.9998 11.0532 12.9998 11.0508 12.9998C11.0484 12.9998 11.046 12.9998 11.0435 12.9998C11.0411 12.9998 11.0387 12.9998 11.0363 12.9998C11.0339 12.9998 11.0315 12.9998 11.0291 12.9998C11.0268 12.9998 11.0244 12.9998 11.022 12.9998C11.0196 12.9998 11.0172 12.9998 11.0149 12.9998C11.0125 12.9998 11.0101 12.9998 11.0078 12.9998C11.0054 12.9998 11.0031 12.9998 11.0007 12.9998C10.9984 12.9998 10.996 12.9998 10.9937 12.9998C10.9913 12.9998 10.989 12.9998 10.9867 12.9998C10.9843 12.9998 10.982 12.9998 10.9797 12.9998C10.9774 12.9998 10.9751 12.9998 10.9727 12.9998C10.9704 12.9998 10.9681 12.9998 10.9658 12.9998C10.9635 12.9998 10.9612 12.9998 10.9589 12.9998C10.9566 12.9998 10.9544 12.9998 10.9521 12.9998C10.9498 12.9998 10.9475 12.9998 10.9452 12.9998C10.943 12.9998 10.9407 12.9998 10.9384 12.9998C10.9362 12.9998 10.9339 12.9998 10.9317 12.9998C10.9294 12.9998 10.9271 12.9998 10.9249 12.9998C10.9227 12.9998 10.9204 12.9998 10.9182 12.9998C10.9159 12.9998 10.9137 12.9998 10.9115 12.9998C10.9093 12.9998 10.907 12.9998 10.9048 12.9998C10.9026 12.9998 10.9004 12.9998 10.8982 12.9998C10.896 12.9998 10.8938 12.9998 10.8916 12.9998C10.8894 12.9998 10.8872 12.9998 10.885 12.9998C10.8828 12.9998 10.8806 12.9998 10.8784 12.9998C10.8762 12.9998 10.874 12.9998 10.8719 12.9998C10.8697 12.9998 10.8675 12.9998 10.8654 12.9998C10.8632 12.9998 10.861 12.9998 10.8589 12.9998C10.8567 12.9998 10.8546 12.9998 10.8524 12.9998C10.8503 12.9998 10.8481 12.9998 10.846 12.9998C10.8439 12.9998 10.8417 12.9998 10.8396 12.9998C10.8375 12.9998 10.8353 12.9998 10.8332 12.9998C10.8311 12.9998 10.829 12.9998 10.8269 12.9998C10.8248 12.9998 10.8226 12.9998 10.8205 12.9998C10.8184 12.9998 10.8163 12.9998 10.8142 12.9998C10.8121 12.9998 10.81 12.9998 10.808 12.9998C10.8059 12.9998 10.8038 12.9998 10.8017 12.9998C10.7996 12.9998 10.7975 12.9998 10.7955 12.9998C10.7934 12.9998 10.7913 12.9998 10.7893 12.9998C10.7872 12.9998 10.7852 12.9998 10.7831 12.9998C10.781 12.9998 10.779 12.9998 10.7769 12.9998C10.7749 12.9998 10.7728 12.9998 10.7708 12.9998C10.7688 12.9998 10.7667 12.9998 10.7647 12.9998C10.7627 12.9998 10.7606 12.9998 10.7586 12.9998C10.7566 12.9998 10.7546 12.9998 10.7526 12.9998C10.7505 12.9998 10.7485 12.9998 10.7465 12.9998C10.7445 12.9998 10.7425 12.9998 10.7405 12.9998C10.7385 12.9998 10.7365 12.9998 10.7345 12.9998C10.7325 12.9998 10.7305 12.9998 10.7286 12.9998C10.7266 12.9998 10.7246 12.9998 10.7226 12.9998C10.7206 12.9998 10.7187 12.9998 10.7167 12.9998C10.7147 12.9998 10.7128 12.9998 10.7108 12.9998C10.7088 12.9998 10.7069 12.9998 10.7049 12.9998C10.703 12.9998 10.701 12.9998 10.6991 12.9998C10.6971 12.9998 10.6952 12.9998 10.6932 12.9998C10.6913 12.9998 10.6894 12.9998 10.6874 12.9998C10.6855 12.9998 10.6836 12.9998 10.6816 12.9998C10.6797 12.9998 10.6778 12.9998 10.6759 12.9998C10.674 12.9998 10.672 12.9998 10.6701 12.9998C10.6682 12.9998 10.6663 12.9998 10.6644 12.9998C10.6625 12.9998 10.6606 12.9998 10.6587 12.9998C10.6568 12.9998 10.6549 12.9998 10.653 12.9998C10.6511 12.9998 10.6493 12.9998 10.6474 12.9998C10.6455 12.9998 10.6436 12.9998 10.6417 12.9998C10.6399 12.9998 10.638 12.9998 10.6361 12.9998C10.6343 12.9998 10.6324 12.9998 10.6305 12.9998C10.6287 12.9998 10.6268 12.9998 10.6249 12.9998C10.6231 12.9998 10.6212 12.9998 10.6194 12.9998C10.6175 12.9998 10.6157 12.9998 10.6139 12.9998C10.612 12.9998 10.6102 12.9998 10.6083 12.9998C10.6065 12.9998 10.6047 12.9998 10.6028 12.9998C10.601 12.9998 10.5992 12.9998 10.5974 12.9998C10.5955 12.9998 10.5937 12.9998 10.5919 12.9998C10.5901 12.9998 10.5883 12.9998 10.5865 12.9998C10.5847 12.9998 10.5829 12.9998 10.5811 12.9998C10.5792 12.9998 10.5775 12.9998 10.5757 12.9998C10.5739 12.9998 10.5721 12.9998 10.5703 12.9998C10.5685 12.9998 10.5667 12.9998 10.5649 12.9998C10.5631 12.9998 10.5613 12.9998 10.5596 12.9998C10.5578 12.9998 10.556 12.9998 10.5542 12.9998C10.5525 12.9998 10.5507 12.9998 10.5489 12.9998C10.5472 12.9998 10.5454 12.9998 10.5436 12.9998C10.5419 12.9998 10.5401 12.9998 10.5384 12.9998C10.5366 12.9998 10.5349 12.9998 10.5331 12.9998C10.5314 12.9998 10.5296 12.9998 10.5279 12.9998C10.5261 12.9998 10.5244 12.9998 10.5227 12.9998C10.5209 12.9998 10.5192 12.9998 10.5175 12.9998C10.5157 12.9998 10.514 12.9998 10.5123 12.9998C10.5106 12.9998 10.5088 12.9998 10.5071 12.9998C10.5054 12.9998 10.5037 12.9998 10.502 12.9998C10.5003 12.9998 10.4985 12.9998 10.4968 12.9998C10.4951 12.9998 10.4934 12.9998 10.4917 12.9998C10.49 12.9998 10.4883 12.9998 10.4866 12.9998C10.4849 12.9998 10.4832 12.9998 10.4815 12.9998C10.4798 12.9998 10.4782 12.9998 10.4765 12.9998C10.4748 12.9998 10.4731 12.9998 10.4714 12.9998C10.4697 12.9998 10.4681 12.9998 10.4664 12.9998C10.4647 12.9998 10.463 12.9998 10.4614 12.9998C10.4597 12.9998 10.458 12.9998 10.4564 12.9998C10.4547 12.9998 10.453 12.9998 10.4514 12.9998C10.4497 12.9998 10.448 12.9998 10.4464 12.9998C10.4447 12.9998 10.4431 12.9998 10.4414 12.9998C10.4398 12.9998 10.4381 12.9998 10.4365 12.9998C10.4348 12.9998 10.4332 12.9998 10.4316 12.9998C10.4299 12.9998 10.4283 12.9998 10.4266 12.9998C10.425 12.9998 10.4234 12.9998 10.4217 12.9998C10.4201 12.9998 10.4185 12.9998 10.4169 12.9998C10.4152 12.9998 10.4136 12.9998 10.412 12.9998C10.4104 12.9998 10.4087 12.9998 10.4071 12.9998C10.4055 12.9998 10.4039 12.9998 10.4023 12.9998C10.4007 12.9998 10.3991 12.9998 10.3975 12.9998C10.3958 12.9998 10.3942 12.9998 10.3926 12.9998C10.391 12.9998 10.3894 12.9998 10.3878 12.9998C10.3862 12.9998 10.3846 12.9998 10.383 12.9998C10.3814 12.9998 10.3799 12.9998 10.3783 12.9998C10.3767 12.9998 10.3751 12.9998 10.3735 12.9998C10.3719 12.9998 10.3703 12.9998 10.3688 12.9998C10.3672 12.9998 10.3656 12.9998 10.364 12.9998C10.3624 12.9998 10.3609 12.9998 10.3593 12.9998C10.3577 12.9998 10.3561 12.9998 10.3546 12.9998C10.353 12.9998 10.3514 12.9998 10.3499 12.9998C10.3483 12.9998 10.3467 12.9998 10.3452 12.9998C10.3436 12.9998 10.3421 12.9998 10.3405 12.9998C10.339 12.9998 10.3374 12.9998 10.3358 12.9998C10.3343 12.9998 10.3327 12.9998 10.3312 12.9998C10.3296 12.9998 10.3281 12.9998 10.3265 12.9998C10.325 12.9998 10.3235 12.9998 10.3219 12.9998C10.3204 12.9998 10.3188 12.9998 10.3173 12.9998C10.3158 12.9998 10.3142 12.9998 10.3127 12.9998C10.3112 12.9998 10.3096 12.9998 10.3081 12.9998C10.3066 12.9998 10.305 12.9998 10.3035 12.9998C10.302 12.9998 10.3004 12.9998 10.2989 12.9998C10.2974 12.9998 10.2959 12.9998 10.2944 12.9998C10.2928 12.9998 10.2913 12.9998 10.2898 12.9998C10.2883 12.9998 10.2868 12.9998 10.2853 12.9998C10.2837 12.9998 10.2822 12.9998 10.2807 12.9998C10.2792 12.9998 10.2777 12.9998 10.2762 12.9998C10.2747 12.9998 10.2732 12.9998 10.2717 12.9998C10.2702 12.9998 10.2687 12.9998 10.2672 12.9998C10.2657 12.9998 10.2642 12.9998 10.2627 12.9998C10.2612 12.9998 10.2597 12.9998 10.2582 12.9998C10.2567 12.9998 10.2552 12.9998 10.2537 12.9998C10.2522 12.9998 10.2507 12.9998 10.2492 12.9998C10.2477 12.9998 10.2463 12.9998 10.2448 12.9998C10.2433 12.9998 10.2418 12.9998 10.2403 12.9998C10.2388 12.9998 10.2374 12.9998 10.2359 12.9998C10.2344 12.9998 10.2329 12.9998 10.2314 12.9998C10.23 12.9998 10.2285 12.9998 10.227 12.9998C10.2255 12.9998 10.2241 12.9998 10.2226 12.9998C10.2211 12.9998 10.2196 12.9998 10.2182 12.9998C10.2167 12.9998 10.2152 12.9998 10.2138 12.9998C10.2123 12.9998 10.2108 12.9998 10.2094 12.9998C10.2079 12.9998 10.2064 12.9998 10.205 12.9998C10.2035 12.9998 10.2021 12.9998 10.2006 12.9998C10.1991 12.9998 10.1977 12.9998 10.1962 12.9998C10.1948 12.9998 10.1933 12.9998 10.1919 12.9998C10.1904 12.9998 10.1889 12.9998 10.1875 12.9998C10.186 12.9998 10.1846 12.9998 10.1831 12.9998C10.1817 12.9998 10.1802 12.9998 10.1788 12.9998C10.1773 12.9998 10.1759 12.9998 10.1744 12.9998C10.173 12.9998 10.1716 12.9998 10.1701 12.9998C10.1687 12.9998 10.1672 12.9998 10.1658 12.9998C10.1643 12.9998 10.1629 12.9998 10.1615 12.9998C10.16 12.9998 10.1586 12.9998 10.1571 12.9998C10.1557 12.9998 10.1543 12.9998 10.1528 12.9998C10.1514 12.9998 10.15 12.9998 10.1485 12.9998C10.1471 12.9998 10.1456 12.9998 10.1442 12.9998C10.1428 12.9998 10.1414 12.9998 10.1399 12.9998C10.1385 12.9998 10.1371 12.9998 10.1356 12.9998C10.1342 12.9998 10.1328 12.9998 10.1313 12.9998C10.1299 12.9998 10.1285 12.9998 10.1271 12.9998C10.1256 12.9998 10.1242 12.9998 10.1228 12.9998C10.1214 12.9998 10.1199 12.9998 10.1185 12.9998C10.1171 12.9998 10.1157 12.9998 10.1142 12.9998C10.1128 12.9998 10.1114 12.9998 10.11 12.9998C10.1085 12.9998 10.1071 12.9998 10.1057 12.9998C10.1043 12.9998 10.1029 12.9998 10.1014 12.9998C10.1 12.9998 10.0986 12.9998 10.0972 12.9998C10.0958 12.9998 10.0944 12.9998 10.0929 12.9998C10.0915 12.9998 10.0901 12.9998 10.0887 12.9998C10.0873 12.9998 10.0859 12.9998 10.0845 12.9998C10.083 12.9998 10.0816 12.9998 10.0802 12.9998C10.0788 12.9998 10.0774 12.9998 10.076 12.9998C10.0746 12.9998 10.0731 12.9998 10.0717 12.9998C10.0703 12.9998 10.0689 12.9998 10.0675 12.9998C10.0661 12.9998 10.0647 12.9998 10.0633 12.9998C10.0619 12.9998 10.0605 12.9998 10.059 12.9998C10.0576 12.9998 10.0562 12.9998 10.0548 12.9998C10.0534 12.9998 10.052 12.9998 10.0506 12.9998C10.0492 12.9998 10.0478 12.9998 10.0464 12.9998C10.045 12.9998 10.0436 12.9998 10.0422 12.9998C10.0407 12.9998 10.0393 12.9998 10.0379 12.9998C10.0365 12.9998 10.0351 12.9998 10.0337 12.9998C10.0323 12.9998 10.0309 12.9998 10.0295 12.9998C10.0281 12.9998 10.0267 12.9998 10.0253 12.9998C10.0239 12.9998 10.0225 12.9998 10.0211 12.9998C10.0197 12.9998 10.0183 12.9998 10.0169 12.9998C10.0154 12.9998 10.014 12.9998 10.0126 12.9998C10.0112 12.9998 10.0098 12.9998 10.0084 12.9998C10.007 12.9998 10.0056 12.9998 10.0042 12.9998C10.0028 12.9998 10.0014 12.9998 10 12.9998C9.9986 12.9998 9.99719 12.9998 9.99579 12.9998C9.99438 12.9998 9.99298 12.9998 9.99157 12.9998C9.99017 12.9998 9.98877 12.9998 9.98736 12.9998C9.98596 12.9998 9.98455 12.9998 9.98315 12.9998C9.98174 12.9998 9.98034 12.9998 9.97893 12.9998C9.97753 12.9998 9.97612 12.9998 9.97472 12.9998C9.97331 12.9998 9.97191 12.9998 9.9705 12.9998C9.9691 12.9998 9.96769 12.9998 9.96629 12.9998C9.96488 12.9998 9.96347 12.9998 9.96207 12.9998C9.96066 12.9998 9.95926 12.9998 9.95785 12.9998C9.95644 12.9998 9.95504 12.9998 9.95363 12.9998C9.95222 12.9998 9.95081 12.9998 9.94941 12.9998C9.948 12.9998 9.94659 12.9998 9.94518 12.9998C9.94377 12.9998 9.94236 12.9998 9.94095 12.9998C9.93955 12.9998 9.93814 12.9998 9.93673 12.9998C9.93532 12.9998 9.93391 12.9998 9.9325 12.9998C9.93108 12.9998 9.92967 12.9998 9.92826 12.9998C9.92685 12.9998 9.92544 12.9998 9.92403 12.9998C9.92261 12.9998 9.9212 12.9998 9.91979 12.9998C9.91838 12.9998 9.91696 12.9998 9.91555 12.9998C9.91413 12.9998 9.91272 12.9998 9.9113 12.9998C9.90989 12.9998 9.90847 12.9998 9.90705 12.9998C9.90564 12.9998 9.90422 12.9998 9.9028 12.9998C9.90139 12.9998 9.89997 12.9998 9.89855 12.9998C9.89713 12.9998 9.89571 12.9998 9.89429 12.9998C9.89287 12.9998 9.89145 12.9998 9.89003 12.9998C9.88861 12.9998 9.88719 12.9998 9.88577 12.9998C9.88434 12.9998 9.88292 12.9998 9.8815 12.9998C9.88007 12.9998 9.87865 12.9998 9.87722 12.9998C9.8758 12.9998 9.87437 12.9998 9.87294 12.9998C9.87152 12.9998 9.87009 12.9998 9.86866 12.9998C9.86723 12.9998 9.8658 12.9998 9.86437 12.9998C9.86294 12.9998 9.86151 12.9998 9.86008 12.9998C9.85865 12.9998 9.85722 12.9998 9.85578 12.9998C9.85435 12.9998 9.85292 12.9998 9.85148 12.9998C9.85005 12.9998 9.84861 12.9998 9.84717 12.9998C9.84574 12.9998 9.8443 12.9998 9.84286 12.9998C9.84142 12.9998 9.83998 12.9998 9.83854 12.9998C9.8371 12.9998 9.83566 12.9998 9.83422 12.9998C9.83278 12.9998 9.83133 12.9998 9.82989 12.9998C9.82844 12.9998 9.827 12.9998 9.82555 12.9998C9.8241 12.9998 9.82266 12.9998 9.82121 12.9998C9.81976 12.9998 9.81831 12.9998 9.81686 12.9998C9.81541 12.9998 9.81396 12.9998 9.8125 12.9998C9.81105 12.9998 9.8096 12.9998 9.80814 12.9998C9.80669 12.9998 9.80523 12.9998 9.80377 12.9998C9.80232 12.9998 9.80086 12.9998 9.7994 12.9998C9.79794 12.9998 9.79648 12.9998 9.79502 12.9998C9.79355 12.9998 9.79209 12.9998 9.79063 12.9998C9.78916 12.9998 9.7877 12.9998 9.78623 12.9998C9.78476 12.9998 9.78329 12.9998 9.78182 12.9998C9.78035 12.9998 9.77888 12.9998 9.77741 12.9998C9.77594 12.9998 9.77447 12.9998 9.77299 12.9998C9.77152 12.9998 9.77004 12.9998 9.76856 12.9998C9.76709 12.9998 9.76561 12.9998 9.76413 12.9998C9.76265 12.9998 9.76116 12.9998 9.75968 12.9998C9.7582 12.9998 9.75671 12.9998 9.75523 12.9998C9.75374 12.9998 9.75225 12.9998 9.75077 12.9998C9.74928 12.9998 9.74779 12.9998 9.7463 12.9998C9.7448 12.9998 9.74331 12.9998 9.74182 12.9998C9.74032 12.9998 9.73883 12.9998 9.73733 12.9998C9.73583 12.9998 9.73433 12.9998 9.73283 12.9998C9.73133 12.9998 9.72983 12.9998 9.72832 12.9998C9.72682 12.9998 9.72531 12.9998 9.72381 12.9998C9.7223 12.9998 9.72079 12.9998 9.71928 12.9998C9.71777 12.9998 9.71626 12.9998 9.71474 12.9998C9.71323 12.9998 9.71171 12.9998 9.7102 12.9998C9.70868 12.9998 9.70716 12.9998 9.70564 12.9998C9.70412 12.9998 9.7026 12.9998 9.70108 12.9998C9.69955 12.9998 9.69803 12.9998 9.6965 12.9998C9.69497 12.9998 9.69344 12.9998 9.69191 12.9998C9.69038 12.9998 9.68885 12.9998 9.68731 12.9998C9.68578 12.9998 9.68424 12.9998 9.6827 12.9998C9.68117 12.9998 9.67963 12.9998 9.67808 12.9998C9.67654 12.9998 9.675 12.9998 9.67345 12.9998C9.67191 12.9998 9.67036 12.9998 9.66881 12.9998C9.66726 12.9998 9.66571 12.9998 9.66416 12.9998C9.6626 12.9998 9.66105 12.9998 9.65949 12.9998C9.65794 12.9998 9.65638 12.9998 9.65482 12.9998C9.65325 12.9998 9.65169 12.9998 9.65013 12.9998C9.64856 12.9998 9.64699 12.9998 9.64542 12.9998C9.64386 12.9998 9.64228 12.9998 9.64071 12.9998C9.63914 12.9998 9.63756 12.9998 9.63599 12.9998C9.63441 12.9998 9.63283 12.9998 9.63125 12.9998C9.62967 12.9998 9.62808 12.9998 9.6265 12.9998C9.62491 12.9998 9.62332 12.9998 9.62173 12.9998C9.62014 12.9998 9.61855 12.9998 9.61696 12.9998C9.61536 12.9998 9.61377 12.9998 9.61217 12.9998C9.61057 12.9998 9.60897 12.9998 9.60736 12.9998C9.60576 12.9998 9.60416 12.9998 9.60255 12.9998C9.60094 12.9998 9.59933 12.9998 9.59772 12.9998C9.59611 12.9998 9.59449 12.9998 9.59287 12.9998C9.59126 12.9998 9.58964 12.9998 9.58802 12.9998C9.58639 12.9998 9.58477 12.9998 9.58314 12.9998C9.58152 12.9998 9.57989 12.9998 9.57826 12.9998C9.57663 12.9998 9.57499 12.9998 9.57336 12.9998C9.57172 12.9998 9.57008 12.9998 9.56844 12.9998C9.5668 12.9998 9.56516 12.9998 9.56351 12.9998C9.56187 12.9998 9.56022 12.9998 9.55857 12.9998C9.55692 12.9998 9.55527 12.9998 9.55361 12.9998C9.55196 12.9998 9.5503 12.9998 9.54864 12.9998C9.54698 12.9998 9.54531 12.9998 9.54365 12.9998C9.54198 12.9998 9.54031 12.9998 9.53864 12.9998C9.53697 12.9998 9.5353 12.9998 9.53362 12.9998C9.53195 12.9998 9.53027 12.9998 9.52859 12.9998C9.52691 12.9998 9.52522 12.9998 9.52354 12.9998C9.52185 12.9998 9.52016 12.9998 9.51847 12.9998C9.51678 12.9998 9.51508 12.9998 9.51338 12.9998C9.51169 12.9998 9.50999 12.9998 9.50829 12.9998C9.50658 12.9998 9.50488 12.9998 9.50317 12.9998C9.50146 12.9998 9.49975 12.9998 9.49804 12.9998C9.49632 12.9998 9.4946 12.9998 9.49289 12.9998C9.49117 12.9998 9.48944 12.9998 9.48772 12.9998C9.48599 12.9998 9.48427 12.9998 9.48254 12.9998C9.4808 12.9998 9.47907 12.9998 9.47733 12.9998C9.4756 12.9998 9.47386 12.9998 9.47212 12.9998C9.47037 12.9998 9.46863 12.9998 9.46688 12.9998C9.46513 12.9998 9.46338 12.9998 9.46163 12.9998C9.45987 12.9998 9.45812 12.9998 9.45636 12.9998C9.4546 12.9998 9.45283 12.9998 9.45107 12.9998C9.4493 12.9998 9.44753 12.9998 9.44576 12.9998C9.44399 12.9998 9.44221 12.9998 9.44043 12.9998C9.43866 12.9998 9.43687 12.9998 9.43509 12.9998C9.43331 12.9998 9.43152 12.9998 9.42973 12.9998C9.42794 12.9998 9.42614 12.9998 9.42435 12.9998C9.42255 12.9998 9.42075 12.9998 9.41895 12.9998C9.41714 12.9998 9.41534 12.9998 9.41353 12.9998C9.41172 12.9998 9.40991 12.9998 9.40809 12.9998C9.40627 12.9998 9.40445 12.9998 9.40263 12.9998C9.40081 12.9998 9.39898 12.9998 9.39716 12.9998C9.39533 12.9998 9.39349 12.9998 9.39166 12.9998C9.38982 12.9998 9.38799 12.9998 9.38614 12.9998C9.3843 12.9998 9.38246 12.9998 9.38061 12.9998C9.37876 12.9998 9.37691 12.9998 9.37505 12.9998C9.3732 12.9998 9.37134 12.9998 9.36947 12.9998C9.36761 12.9998 9.36575 12.9998 9.36388 12.9998C9.36201 12.9998 9.36014 12.9998 9.35826 12.9998C9.35638 12.9998 9.35451 12.9998 9.35262 12.9998C9.35074 12.9998 9.34885 12.9998 9.34696 12.9998C9.34507 12.9998 9.34318 12.9998 9.34128 12.9998C9.33939 12.9998 9.33749 12.9998 9.33558 12.9998C9.33368 12.9998 9.33177 12.9998 9.32986 12.9998C9.32795 12.9998 9.32604 12.9998 9.32412 12.9998C9.3222 12.9998 9.32028 12.9998 9.31835 12.9998C9.31643 12.9998 9.3145 12.9998 9.31257 12.9998C9.31063 12.9998 9.3087 12.9998 9.30676 12.9998C9.30482 12.9998 9.30288 12.9998 9.30093 12.9998C9.29898 12.9998 9.29703 12.9998 9.29508 12.9998C9.29312 12.9998 9.29116 12.9998 9.2892 12.9998C9.28724 12.9998 9.28527 12.9998 9.2833 12.9998C9.28133 12.9998 9.27936 12.9998 9.27738 12.9998C9.27541 12.9998 9.27343 12.9998 9.27144 12.9998C9.26946 12.9998 9.26747 12.9998 9.26547 12.9998C9.26348 12.9998 9.26149 12.9998 9.25949 12.9998C9.25749 12.9998 9.25548 12.9998 9.25347 12.9998C9.25147 12.9998 9.24945 12.9998 9.24744 12.9998C9.24542 12.9998 9.2434 12.9998 9.24138 12.9998C9.23936 12.9998 9.23733 12.9998 9.2353 12.9998C9.23327 12.9998 9.23123 12.9998 9.22919 12.9998C9.22715 12.9998 9.22511 12.9998 9.22306 12.9998C9.22101 12.9998 9.21896 12.9998 9.21691 12.9998C9.21485 12.9998 9.21279 12.9998 9.21073 12.9998C9.20866 12.9998 9.2066 12.9998 9.20452 12.9998C9.20245 12.9998 9.20038 12.9998 9.1983 12.9998C9.19622 12.9998 9.19413 12.9998 9.19204 12.9998C9.18995 12.9998 9.18786 12.9998 9.18577 12.9998C9.18367 12.9998 9.18157 12.9998 9.17946 12.9998C9.17736 12.9998 9.17525 12.9998 9.17314 12.9998C9.17102 12.9998 9.1689 12.9998 9.16678 12.9998C9.16466 12.9998 9.16253 12.9998 9.1604 12.9998C9.15827 12.9998 9.15614 12.9998 9.154 12.9998C9.15186 12.9998 9.14972 12.9998 9.14757 12.9998C9.14542 12.9998 9.14327 12.9998 9.14111 12.9998C9.13896 12.9998 9.1368 12.9998 9.13463 12.9998C9.13247 12.9998 9.1303 12.9998 9.12813 12.9998C9.12595 12.9998 9.12377 12.9998 9.12159 12.9998C9.11941 12.9998 9.11722 12.9998 9.11503 12.9998C9.11284 12.9998 9.11064 12.9998 9.10844 12.9998C9.10624 12.9998 9.10404 12.9998 9.10183 12.9998C9.09962 12.9998 9.0974 12.9998 9.09519 12.9998C9.09297 12.9998 9.09074 12.9998 9.08852 12.9998C9.08629 12.9998 9.08406 12.9998 9.08182 12.9998C9.07959 12.9998 9.07734 12.9998 9.0751 12.9998C9.07285 12.9998 9.0706 12.9998 9.06835 12.9998C9.06609 12.9998 9.06383 12.9998 9.06157 12.9998C9.0593 12.9998 9.05704 12.9998 9.05476 12.9998C9.05249 12.9998 9.05021 12.9998 9.04793 12.9998C9.04564 12.9998 9.04336 12.9998 9.04106 12.9998C9.03877 12.9998 9.03648 12.9998 9.03417 12.9998C9.03187 12.9998 9.02957 12.9998 9.02725 12.9998C9.02494 12.9998 9.02263 12.9998 9.02031 12.9998C9.01798 12.9998 9.01566 12.9998 9.01333 12.9998C9.011 12.9998 9.00866 12.9998 9.00632 12.9998C9.00398 12.9998 9.00164 12.9998 8.99929 12.9998C8.99694 12.9998 8.99458 12.9998 8.99222 12.9998C8.98986 12.9998 8.9875 12.9998 8.98513 12.9998C8.98276 12.9998 8.98039 12.9998 8.97801 12.9998C8.97563 12.9998 8.97324 12.9998 8.97085 12.9998C8.96846 12.9998 8.96607 12.9998 8.96367 12.9998C8.96127 12.9998 8.95887 12.9998 8.95646 12.9998C8.95405 12.9998 8.95163 12.9998 8.94921 12.9998C8.94679 12.9998 8.94437 12.9998 8.94194 12.9998C8.93951 12.9998 8.93708 12.9998 8.93464 12.9998C8.9322 12.9998 8.92975 12.9998 8.9273 12.9998C8.92485 12.9998 8.9224 12.9998 8.91994 12.9998C8.91748 12.9998 8.91501 12.9998 8.91254 12.9998C8.91007 12.9998 8.9076 12.9998 8.90511 12.9998C8.90263 12.9998 8.90015 12.9998 8.89766 12.9998C8.89516 12.9998 8.89267 12.9998 8.89017 12.9998C8.88766 12.9998 8.88516 12.9998 8.88265 12.9998C8.88013 12.9998 8.87762 12.9998 8.87509 12.9998C8.87257 12.9998 8.87004 12.9998 8.86751 12.9998C8.86497 12.9998 8.86244 12.9998 8.85989 12.9998C8.85735 12.9998 8.8548 12.9998 8.85224 12.9998C8.84969 12.9998 8.84713 12.9998 8.84456 12.9998C8.842 12.9998 8.83942 12.9998 8.83685 12.9998C8.83427 12.9998 8.83169 12.9998 8.8291 12.9998C8.82651 12.9998 8.82392 12.9998 8.82132 12.9998C8.81872 12.9998 8.81612 12.9998 8.81351 12.9998C8.8109 12.9998 8.80829 12.9998 8.80567 12.9998C8.80305 12.9998 8.80042 12.9998 8.79779 12.9998C8.79516 12.9998 8.79252 12.9998 8.78988 12.9998C8.78724 12.9998 8.78459 12.9998 8.78193 12.9998C8.77928 12.9998 8.77662 12.9998 8.77396 12.9998C8.77129 12.9998 8.76862 12.9998 8.76594 12.9998C8.76327 12.9998 8.76059 12.9998 8.7579 12.9998C8.75521 12.9998 8.75252 12.9998 8.74982 12.9998C8.74712 12.9998 8.74441 12.9998 8.7417 12.9998C8.73899 12.9998 8.73628 12.9998 8.73355 12.9998C8.73083 12.9998 8.72811 12.9998 8.72537 12.9998C8.72264 12.9998 8.7199 12.9998 8.71715 12.9998C8.71441 12.9998 8.71166 12.9998 8.7089 12.9998C8.70614 12.9998 8.70338 12.9998 8.70061 12.9998C8.69785 12.9998 8.69507 12.9998 8.69229 12.9998C8.68951 12.9998 8.68673 12.9998 8.68393 12.9998C8.68114 12.9998 8.67834 12.9998 8.67554 12.9998C8.67274 12.9998 8.66993 12.9998 8.66711 12.9998C8.6643 12.9998 8.66147 12.9998 8.65865 12.9998C8.65582 12.9998 8.65299 12.9998 8.65015 12.9998C8.64731 12.9998 8.64446 12.9998 8.64161 12.9998C8.63876 12.9998 8.6359 12.9998 8.63304 12.9998C8.63017 12.9998 8.6273 12.9998 8.62443 12.9998C8.62155 12.9998 8.61867 12.9998 8.61578 12.9998C8.61289 12.9998 8.61 12.9998 8.6071 12.9998C8.6042 12.9998 8.60129 12.9998 8.59838 12.9998C8.59547 12.9998 8.59255 12.9998 8.58962 12.9998C8.5867 12.9998 8.58377 12.9998 8.58083 12.9998C8.57789 12.9998 8.57495 12.9998 8.572 12.9998C8.56905 12.9998 8.5661 12.9998 8.56313 12.9998C8.56017 12.9998 8.5572 12.9998 8.55423 12.9998C8.55125 12.9998 8.54827 12.9998 8.54529 12.9998C8.5423 12.9998 8.5393 12.9998 8.5363 12.9998C8.5333 12.9998 8.5303 12.9998 8.52729 12.9998C8.52427 12.9998 8.52125 12.9998 8.51823 12.9998C8.5152 12.9998 8.51217 12.9998 8.50913 12.9998C8.5061 12.9998 8.50305 12.9998 8.5 12.9998V13.9998ZM14.5 16.9998H11.5V17.9998H14.5V16.9998ZM11 13.4998V17.4998H12V13.4998H11ZM15 11.9489C15 11.5204 14.8168 11.1124 14.4965 10.8277L13.8322 11.5752C13.9389 11.6701 14 11.8061 14 11.9489H15ZM6 11.9489C6 11.8061 6.06108 11.6701 6.16783 11.5752L5.50348 10.8277C5.18323 11.1124 5 11.5204 5 11.9489H6Z" fill="#CC3D00"/>
<rect x="22.5" y="4.5" width="18" height="16" rx="1.5" fill="#E3E8EF"/>
<rect x="22.5" y="4.5" width="18" height="16" rx="1.5" stroke="#6A7585"/>
<circle cx="31.5" cy="12.5" r="5" stroke="#6A7585"/>
<path d="M29.5 12.5H33.5" stroke="#6A7585" stroke-linecap="round"/>
<path d="M31.5 14.5V10.5" stroke="#6A7585" stroke-linecap="round"/>
<rect x="43.5" y="4.5" width="19" height="16" rx="1.5" fill="#E3E8EF"/>
<rect x="43.5" y="4.5" width="19" height="16" rx="1.5" stroke="#6A7585"/>
<circle cx="53" cy="12" r="0.5" stroke="#6A7585" stroke-linejoin="round"/>
<circle cx="57" cy="12" r="0.5" stroke="#6A7585" stroke-linejoin="round"/>
<circle cx="49" cy="12" r="0.5" stroke="#6A7585" stroke-linejoin="round"/>
</svg>
