<svg width="24" height="24" viewBox="0 0 24 24" fill="none" xmlns="http://www.w3.org/2000/svg">
<mask id="mask0_35_3375" style="mask-type:alpha" maskUnits="userSpaceOnUse" x="1" y="8" width="22" height="9">
<path fill-rule="evenodd" clip-rule="evenodd" d="M1 9.375C1 8.61561 1.61561 8 2.375 8H7.53125V16.9375H2.375C1.61561 16.9375 1 16.3219 1 15.5625V9.375ZM8.5625 16.9375V8H15.4375V16.9375H8.5625ZM16.4688 16.9375H21.625C22.3844 16.9375 23 16.3219 23 15.5625V9.375C23 8.61561 22.3844 8 21.625 8H16.4688V16.9375Z" fill="white"/>
</mask>
<g mask="url(#mask0_35_3375)">
<path d="M7.53125 8H8.21875V7.3125H7.53125V8ZM7.53125 16.9375V17.625H8.21875V16.9375H7.53125ZM8.5625 8V7.3125H7.875V8H8.5625ZM8.5625 16.9375H7.875V17.625H8.5625V16.9375ZM15.4375 8H16.125V7.3125H15.4375V8ZM15.4375 16.9375V17.625H16.125V16.9375H15.4375ZM16.4688 16.9375H15.7812V17.625H16.4688V16.9375ZM16.4688 8V7.3125H15.7812V8H16.4688ZM2.375 7.3125C1.23591 7.3125 0.3125 8.23591 0.3125 9.375H1.6875C1.6875 8.99531 1.99531 8.6875 2.375 8.6875V7.3125ZM7.53125 7.3125H2.375V8.6875H7.53125V7.3125ZM8.21875 16.9375V8H6.84375V16.9375H8.21875ZM2.375 17.625H7.53125V16.25H2.375V17.625ZM0.3125 15.5625C0.3125 16.7016 1.23591 17.625 2.375 17.625V16.25C1.99531 16.25 1.6875 15.9422 1.6875 15.5625H0.3125ZM0.3125 9.375V15.5625H1.6875V9.375H0.3125ZM7.875 8V16.9375H9.25V8H7.875ZM15.4375 7.3125H8.5625V8.6875H15.4375V7.3125ZM16.125 16.9375V8H14.75V16.9375H16.125ZM8.5625 17.625H15.4375V16.25H8.5625V17.625ZM16.4688 17.625H21.625V16.25H16.4688V17.625ZM21.625 17.625C22.7641 17.625 23.6875 16.7016 23.6875 15.5625H22.3125C22.3125 15.9422 22.0047 16.25 21.625 16.25V17.625ZM23.6875 15.5625V9.375H22.3125V15.5625H23.6875ZM23.6875 9.375C23.6875 8.23591 22.7641 7.3125 21.625 7.3125V8.6875C22.0047 8.6875 22.3125 8.99531 22.3125 9.375H23.6875ZM21.625 7.3125H16.4688V8.6875H21.625V7.3125ZM15.7812 8V16.9375H17.1562V8H15.7812Z" fill="#4C5664"/>
<path fill-rule="evenodd" clip-rule="evenodd" d="M1 9.375C1 8.61561 1.61561 8 2.375 8H7.53125V16.9375H2.375C1.61561 16.9375 1 16.3219 1 15.5625V9.375ZM8.5625 16.9375V8H15.4375V16.9375H8.5625ZM16.4688 16.9375H21.625C22.3844 16.9375 23 16.3219 23 15.5625V9.375C23 8.61561 22.3844 8 21.625 8H16.4688V16.9375Z" fill="#4C5664"/>
</g>
</svg>
