<svg xmlns="http://www.w3.org/2000/svg" width="32" height="13" fill="none" viewBox="0 0 32 13"><mask id="path-1-inside-1" fill="#fff"><path fill-rule="evenodd" d="M0 2C0 0.895431 0.895431 0 2 0H9.5V13H2C0.895431 13 0 12.1046 0 11V2ZM11 13V0H21V13H11ZM22.5 13H30C31.1046 13 32 12.1046 32 11V2C32 0.895431 31.1046 0 30 0H22.5V13Z" clip-rule="evenodd"/></mask><path fill="#4b4848" fill-rule="evenodd" d="M0 2C0 0.895431 0.895431 0 2 0H9.5V13H2C0.895431 13 0 12.1046 0 11V2ZM11 13V0H21V13H11ZM22.5 13H30C31.1046 13 32 12.1046 32 11V2C32 0.895431 31.1046 0 30 0H22.5V13Z" clip-rule="evenodd"/><path fill="#4b4848" d="M9.5 0H10.5V-1H9.5V0ZM9.5 13V14H10.5V13H9.5ZM11 0V-1H10V0H11ZM11 13H10V14H11V13ZM21 0H22V-1H21V0ZM21 13V14H22V13H21ZM22.5 13H21.5V14H22.5V13ZM22.5 0V-1H21.5V0H22.5ZM2 -1C0.343146 -1 -1 0.343146 -1 2H1C1 1.44772 1.44772 1 2 1V-1ZM9.5 -1H2V1H9.5V-1ZM10.5 13V0H8.5V13H10.5ZM2 14H9.5V12H2V14ZM-1 11C-1 12.6569 0.343146 14 2 14V12C1.44772 12 1 11.5523 1 11H-1ZM-1 2V11H1V2H-1ZM10 0V13H12V0H10ZM21 -1H11V1H21V-1ZM22 13V0H20V13H22ZM11 14H21V12H11V14ZM22.5 14H30V12H22.5V14ZM30 14C31.6569 14 33 12.6569 33 11H31C31 11.5523 30.5523 12 30 12V14ZM33 11V2H31V11H33ZM33 2C33 0.343146 31.6569 -1 30 -1V1C30.5523 1 31 1.44772 31 2H33ZM30 -1H22.5V1H30V-1ZM21.5 0V13H23.5V0H21.5Z" mask="url(#path-1-inside-1)"/></svg>