<svg xmlns="http://www.w3.org/2000/svg" width="72" height="76" fill="none"><rect width="19" height="16" x="5.5" y="30.5" fill="#FFEEE5" rx="2.5"/><rect width="19" height="16" x="5.5" y="30.5" stroke="#CC3D00" rx="2.5"/><path fill="#CC3D00" d="M19.5 43.5v.5h.5v-.5h-.5Zm-9 0H10v.5h.5v-.5Zm4.5-10 .332-.374a.5.5 0 0 0-.664 0L15 33.5Zm-1.5 10v.5h.5v-.5h-.5Zm0-4V39H13v.5h.5Zm3 0h.5V39h-.5v.5Zm0 4H16v.5h.5v-.5Zm2.664-6.298.332-.374-.332.373Zm-8.328 0-.332-.374.332.373ZM11 43.5v-5.551h-1v5.55h1Zm8-5.551V43.499h1V37.948h-1Zm-7.832-.374 4.164-3.701-.664-.748-4.164 3.702.664.747Zm3.5-3.701 4.164 3.701.665-.747-4.165-3.702-.664.748ZM13.5 43h-3v1h3v-1Zm.5.5v-4h-1v4h1Zm-.5-3.5H16.5v-1H13.5v1Zm6 3h-3v1h3v-1ZM16 39.5v4h1v-4h-1Zm4-1.551a1.5 1.5 0 0 0-.503-1.121l-.665.747a.5.5 0 0 1 .168.374h1Zm-9 0a.5.5 0 0 1 .168-.374l-.664-.747a1.5 1.5 0 0 0-.504 1.12h1Z"/><rect width="18" height="16" x="27.5" y="30.5" fill="#E3E8EF" rx="2.5"/><rect width="18" height="16" x="27.5" y="30.5" stroke="#6A7585" rx="2.5"/><circle cx="36.5" cy="38.5" r="5" stroke="#6A7585"/><path stroke="#6A7585" stroke-linecap="round" d="M34.5 38.5h4M36.5 40.5v-4"/><rect width="19" height="16" x="48.5" y="30.5" fill="#E3E8EF" rx="2.5"/><rect width="19" height="16" x="48.5" y="30.5" stroke="#6A7585" rx="2.5"/><circle cx="58" cy="38" r=".5" stroke="#6A7585" stroke-linejoin="round"/><circle cx="62" cy="38" r=".5" stroke="#6A7585" stroke-linejoin="round"/><circle cx="54" cy="38" r=".5" stroke="#6A7585" stroke-linejoin="round"/></svg>