<svg xmlns="http://www.w3.org/2000/svg" width="63" height="24" fill="none"><rect width="19" height="16" x=".5" y="4.5" fill="#FFEEE5" rx="1.5"/><rect width="19" height="16" x=".5" y="4.5" stroke="#CC3D00" rx="1.5"/><path fill="#CC3D00" d="M14.5 17.5v.5h.5v-.5h-.5Zm-9 0H5v.5h.5v-.5Zm4.5-10 .332-.374a.5.5 0 0 0-.664 0L10 7.5Zm-1.5 10v.5H9v-.5h-.5Zm0-4V13H8v.5h.5Zm3 0h.5V13h-.5v.5Zm0 4H11v.5h.5v-.5Zm2.664-6.299.332-.373-.332.373Zm-8.328 0-.333-.373.333.373ZM6 17.5v-5.551H5v5.55h1Zm8-5.551V17.499h1V11.948h-1Zm-7.832-.374 4.164-3.701-.664-.748-4.165 3.702.665.747Zm3.5-3.701 4.164 3.701.664-.747-4.164-3.702-.664.748ZM8.5 17h-3v1h3v-1Zm.5.5v-4H8v4h1ZM8.5 14H11.5v-1H8.5v1Zm6 3h-3v1h3v-1ZM11 13.5v4h1v-4h-1Zm4-1.551a1.5 1.5 0 0 0-.504-1.121l-.664.747a.5.5 0 0 1 .168.374h1Zm-9 0a.5.5 0 0 1 .168-.374l-.665-.747A1.5 1.5 0 0 0 5 11.948h1Z"/><rect width="18" height="16" x="22.5" y="4.5" fill="#E3E8EF" rx="1.5"/><rect width="18" height="16" x="22.5" y="4.5" stroke="#6A7585" rx="1.5"/><circle cx="31.5" cy="12.5" r="5" stroke="#6A7585"/><path stroke="#6A7585" stroke-linecap="round" d="M29.5 12.5h4M31.5 14.5v-4"/><rect width="19" height="16" x="43.5" y="4.5" fill="#E3E8EF" rx="1.5"/><rect width="19" height="16" x="43.5" y="4.5" stroke="#6A7585" rx="1.5"/><circle cx="53" cy="12" r=".5" stroke="#6A7585" stroke-linejoin="round"/><circle cx="57" cy="12" r=".5" stroke="#6A7585" stroke-linejoin="round"/><circle cx="49" cy="12" r=".5" stroke="#6A7585" stroke-linejoin="round"/></svg>