<svg xmlns="http://www.w3.org/2000/svg" width="20" height="20" fill="none" viewBox="0 0 20 20"><path fill="#36AB80" d="M10.0001 1.66663C8.35191 1.66663 6.74074 2.15537 5.37033 3.07105C3.99992 3.98672 2.93182 5.28821 2.30109 6.81093C1.67036 8.33365 1.50533 10.0092 1.82687 11.6257C2.14842 13.2422 2.94209 14.7271 4.10753 15.8925C5.27297 17.058 6.75782 17.8516 8.37433 18.1732C9.99084 18.4947 11.6664 18.3297 13.1891 17.699C14.7118 17.0682 16.0133 16.0001 16.929 14.6297C17.8447 13.2593 18.3334 11.6481 18.3334 9.99996C18.3334 8.90561 18.1179 7.82198 17.6991 6.81093C17.2803 5.79988 16.6665 4.88122 15.8926 4.1074C15.1188 3.33358 14.2002 2.71975 13.1891 2.30096C12.1781 1.88217 11.0944 1.66663 10.0001 1.66663ZM13.5834 8.00829L9.77508 13.0083C9.69745 13.1091 9.59776 13.1909 9.48364 13.2472C9.36952 13.3035 9.24402 13.333 9.11675 13.3333C8.99017 13.334 8.8651 13.3058 8.75104 13.2509C8.63697 13.1961 8.5369 13.1159 8.45842 13.0166L6.42509 10.425C6.35778 10.3385 6.30817 10.2396 6.27907 10.134C6.24998 10.0284 6.24197 9.91806 6.25551 9.80934C6.26906 9.70062 6.30388 9.59563 6.358 9.50036C6.41211 9.4051 6.48446 9.32143 6.57092 9.25413C6.74552 9.1182 6.96696 9.05721 7.18654 9.08456C7.29526 9.0981 7.40025 9.13292 7.49551 9.18704C7.59078 9.24116 7.67445 9.31351 7.74175 9.39996L9.10009 11.1333L12.2501 6.96663C12.3168 6.87908 12.4002 6.80554 12.4954 6.7502C12.5905 6.69486 12.6957 6.65881 12.8048 6.64411C12.9139 6.62941 13.0248 6.63634 13.1313 6.66451C13.2377 6.69268 13.3375 6.74154 13.4251 6.80829C13.5126 6.87505 13.5862 6.95839 13.6415 7.05357C13.6968 7.14875 13.7329 7.25389 13.7476 7.363C13.7623 7.47211 13.7554 7.58305 13.7272 7.68948C13.699 7.79591 13.6502 7.89574 13.5834 7.98329V8.00829Z"/></svg>