<svg width="15" height="15" viewBox="0 0 15 15" fill="none" xmlns="http://www.w3.org/2000/svg">
<path d="M7.19629 14.0371C11.0107 14.0371 14.1689 10.8721 14.1689 7.06445C14.1689 3.25 11.0039 0.0917969 7.18945 0.0917969C3.38184 0.0917969 0.223633 3.25 0.223633 7.06445C0.223633 10.8721 3.38867 14.0371 7.19629 14.0371ZM7.19629 12.875C3.96973 12.875 1.39258 10.291 1.39258 7.06445C1.39258 3.83789 3.96289 1.25391 7.18945 1.25391C10.416 1.25391 13 3.83789 13.0068 7.06445C13.0137 10.291 10.4229 12.875 7.19629 12.875ZM5.21387 6.44238C5.61719 6.44238 5.95215 6.08691 5.95215 5.58789C5.95215 5.08887 5.61719 4.7334 5.21387 4.7334C4.81055 4.7334 4.48242 5.08887 4.48242 5.58789C4.48242 6.08691 4.81055 6.44238 5.21387 6.44238ZM9.20605 6.44238C9.60938 6.44238 9.94434 6.08691 9.94434 5.58789C9.94434 5.08887 9.60938 4.7334 9.20605 4.7334C8.80957 4.7334 8.47461 5.08887 8.47461 5.58789C8.47461 6.08691 8.80957 6.44238 9.20605 6.44238ZM4.80371 9.08789C4.80371 9.53906 5.76074 10.4893 7.18945 10.4893C8.61816 10.4893 9.5752 9.53906 9.5752 9.08789C9.5752 8.92383 9.41797 8.84863 9.27441 8.91699C8.77539 9.19043 8.18066 9.49805 7.18945 9.49805C6.19824 9.49805 5.60352 9.18359 5.11133 8.91699C4.96094 8.84863 4.80371 8.92383 4.80371 9.08789Z" fill="#A9A7A7"/>
</svg>
