<svg xmlns="http://www.w3.org/2000/svg" width="20" height="20" fill="none" viewBox="0 0 20 20"><path fill="#858282" fill-rule="evenodd" d="M15.6101 7.33577C13.7584 5.80292 11.8038 5 10.0034 5C5.66552 5 2.25348 9.4708 2.11631 9.65328C1.96123 9.85496 1.96123 10.145 2.11631 10.3467C2.79556 11.2046 3.56016 11.9817 4.39672 12.6642C6.24848 14.1971 8.20311 15 10.0034 15C14.3413 15 17.7534 10.5292 17.8906 10.3285C18.0365 10.1302 18.0365 9.85155 17.8906 9.65328C17.2112 8.79548 16.4466 8.01845 15.6101 7.33577ZM10.0034 13.3507C8.07167 13.3507 6.50567 11.8507 6.50567 10.0004C6.50567 8.15001 8.07167 6.65 10.0034 6.65C11.9352 6.65 13.5012 8.15001 13.5012 10.0004C13.4918 11.847 11.9313 13.3417 10.0034 13.3507ZM8.10024 10.003C8.10024 8.99618 8.95233 8.18 10.0034 8.18C11.0545 8.18 11.9066 8.99618 11.9066 10.003C11.9066 11.0098 11.0545 11.826 10.0034 11.826C8.95233 11.826 8.10024 11.0098 8.10024 10.003Z" clip-rule="evenodd"/></svg>