<svg xmlns="http://www.w3.org/2000/svg" width="13" height="12" fill="none" viewBox="0 0 13 12"><path fill="#A9A7A7" d="M12.5809 2.0722L8.26649 7.06702L7.98814 10.7165C7.98123 10.7872 7.9553 10.8547 7.9131 10.9119C7.8709 10.9691 7.814 11.0138 7.74846 11.0412L5.5062 11.9691C5.4602 11.9904 5.40997 12.0009 5.35929 12C5.2619 12.0003 5.16798 11.9638 5.09631 11.8979C5.02463 11.832 4.98049 11.7414 4.9727 11.6443L4.61703 7.06702L0.302615 2.0722C0.146342 1.89011 0.0455507 1.66703 0.0121888 1.42941C-0.0211732 1.19178 0.0142928 0.949577 0.114383 0.731494C0.214474 0.513411 0.374991 0.328596 0.576911 0.198956C0.778831 0.0693155 1.01369 0.000284716 1.25364 4.57764e-05H11.6299C11.8698 0.000284716 12.1047 0.0693155 12.3066 0.198956C12.5085 0.328596 12.669 0.513411 12.7691 0.731494C12.8692 0.949577 12.9047 1.19178 12.8713 1.42941C12.838 1.66703 12.7372 1.89011 12.5809 2.0722Z"/></svg>