<svg xmlns="http://www.w3.org/2000/svg" width="122" height="125" fill="none" viewBox="0 0 122 125"><ellipse cx="60.07" cy="117.638" fill="#C5C5C5" fill-opacity=".6" rx="53.052" ry="6.409"/><circle cx="21.704" cy="34.021" r="3.204" stroke="#C5C5C5" stroke-width="1.78"/><circle cx="112.718" cy="91.601" r="2.027" stroke="#939090" stroke-width="1.158"/><path stroke="#939090" stroke-width="1.709" d="M80.3922 11.0469V18.8313"/><path stroke="#939090" stroke-width="1.709" d="M76.5 14.94H84.2844"/><path stroke="#939090" stroke-width="2.136" d="M9.16304 84.0469V93.7774"/><path stroke="#939090" stroke-width="2.136" d="M4.29785 88.9123H14.0284"/><circle cx="50.502" cy="3.204" r="3.204" fill="#C5C5C5"/><path fill="#C5C5C5" fill-rule="evenodd" d="M35.5 34.0469C35.5 31.8377 37.2909 30.0469 39.5 30.0469H117.5C119.709 30.0469 121.5 31.8377 121.5 34.0469V55.0469C121.5 57.256 119.709 59.0469 117.5 59.0469H39.5C37.2909 59.0469 35.5 57.256 35.5 55.0469V34.0469Z" clip-rule="evenodd"/><circle cx="50.5" cy="44.047" r="9" fill="#E8E8E8"/><path stroke="#A9A7A7" stroke-width="2.502" d="M46.1008 43.6451L49.5766 47.0461L55.6868 40.2441"/><path fill="#A9A7A7" fill-rule="evenodd" d="M65.5 41.0469C65.5 39.9423 66.3954 39.0469 67.5 39.0469H92.5C93.6046 39.0469 94.5 39.9423 94.5 41.0469C94.5 42.1514 93.6046 43.0469 92.5 43.0469H67.5C66.3954 43.0469 65.5 42.1514 65.5 41.0469Z" clip-rule="evenodd"/><path fill="#A9A7A7" fill-rule="evenodd" d="M95.5 41.0469C95.5 39.9423 96.3954 39.0469 97.5 39.0469H109.5C110.605 39.0469 111.5 39.9423 111.5 41.0469C111.5 42.1514 110.605 43.0469 109.5 43.0469H97.5C96.3954 43.0469 95.5 42.1514 95.5 41.0469Z" clip-rule="evenodd"/><path fill="#A9A7A7" fill-rule="evenodd" d="M88.5 48.0469C88.5 46.9423 89.3954 46.0469 90.5 46.0469H99.5C100.605 46.0469 101.5 46.9423 101.5 48.0469C101.5 49.1514 100.605 50.0469 99.5 50.0469H90.5C89.3954 50.0469 88.5 49.1514 88.5 48.0469Z" clip-rule="evenodd"/><path fill="#C5C5C5" fill-rule="evenodd" d="M19.5 73.0469C19.5 70.8377 21.2909 69.0469 23.5 69.0469H92.5C94.7091 69.0469 96.5 70.8377 96.5 73.0469V94.0469C96.5 96.256 94.7091 98.0469 92.5 98.0469H23.5C21.2909 98.0469 19.5 96.256 19.5 94.0469V73.0469Z" clip-rule="evenodd"/><circle cx="34.5" cy="85.047" r="9" fill="#E8E8E8"/><path stroke="#A9A7A7" stroke-width="2.502" d="M30.1008 84.6451L33.5766 88.0461L39.6868 81.2441"/><path fill="#A9A7A7" fill-rule="evenodd" d="M49.5 82.0469C49.5 80.9423 50.3954 80.0469 51.5 80.0469H60.5C61.6046 80.0469 62.5 80.9423 62.5 82.0469C62.5 83.1514 61.6046 84.0469 60.5 84.0469H51.5C50.3954 84.0469 49.5 83.1514 49.5 82.0469Z" clip-rule="evenodd"/><path fill="#A9A7A7" fill-rule="evenodd" d="M63.5 82.0469C63.5 80.9423 64.3954 80.0469 65.5 80.0469H81.5C82.6046 80.0469 83.5 80.9423 83.5 82.0469C83.5 83.1514 82.6046 84.0469 81.5 84.0469H65.5C64.3954 84.0469 63.5 83.1514 63.5 82.0469Z" clip-rule="evenodd"/><path fill="#A9A7A7" fill-rule="evenodd" d="M68.5 89.0469C68.5 87.9423 67.6046 87.0469 66.5 87.0469H51.5C50.3954 87.0469 49.5 87.9423 49.5 89.0469C49.5 90.1514 50.3954 91.0469 51.5 91.0469H66.5C67.6046 91.0469 68.5 90.1514 68.5 89.0469Z" clip-rule="evenodd"/><rect width="86" height="30" x=".5" y="47.047" fill="#F1F0EE" rx="4"/><circle cx="15.5" cy="62.047" r="9" fill="#C5C5C5"/><path stroke="#716E6E" stroke-width="3" d="M10.6125 60.0712L15.5 64.5083L24.9996 53.9629"/><path fill="#918E8E" fill-rule="evenodd" d="M30.5 59.0469C30.5 57.9423 31.3954 57.0469 32.5 57.0469H43.5C44.6046 57.0469 45.5 57.9423 45.5 59.0469C45.5 60.1514 44.6046 61.0469 43.5 61.0469H32.5C31.3954 61.0469 30.5 60.1514 30.5 59.0469Z" clip-rule="evenodd"/><path fill="#918E8E" fill-rule="evenodd" d="M46.5 59.0469C46.5 57.9423 47.3954 57.0469 48.5 57.0469H74.5C75.6046 57.0469 76.5 57.9423 76.5 59.0469C76.5 60.1514 75.6046 61.0469 74.5 61.0469H48.5C47.3954 61.0469 46.5 60.1514 46.5 59.0469Z" clip-rule="evenodd"/><path fill="#C5C5C5" fill-rule="evenodd" d="M30.5 66.0469C30.5 64.9423 31.3954 64.0469 32.5 64.0469H50.5C51.6046 64.0469 52.5 64.9423 52.5 66.0469C52.5 67.1514 51.6046 68.0469 50.5 68.0469H32.5C31.3954 68.0469 30.5 67.1514 30.5 66.0469Z" clip-rule="evenodd"/><path fill="#C5C5C5" fill-rule="evenodd" d="M53.5 66.0469C53.5 64.9423 54.3954 64.0469 55.5 64.0469H64.5C65.6046 64.0469 66.5 64.9423 66.5 66.0469C66.5 67.1514 65.6046 68.0469 64.5 68.0469H55.5C54.3954 68.0469 53.5 67.1514 53.5 66.0469Z" clip-rule="evenodd"/><path fill="#716E6E" fill-rule="evenodd" d="M106.206 79.8068L89.9518 110.377L80.2394 105.213L96.4939 74.6426L106.206 79.8068Z" clip-rule="evenodd"/><path fill="#C5C5C5" fill-rule="evenodd" d="M86.8193 116.267L89.5283 111.172L79.8159 106.008L77.1068 111.103C75.4983 114.128 85.2107 119.292 86.8193 116.267Z" clip-rule="evenodd"/><path fill="#C5C5C5" fill-rule="evenodd" d="M97.1609 73.7703L107.694 65.4831L106.714 78.8499L97.1609 73.7703Z" clip-rule="evenodd"/></svg>