<svg xmlns="http://www.w3.org/2000/svg" width="18" height="18" fill="none" viewBox="0 0 18 18"><path fill="#4B4848" d="M8.99999 2.25C13.044 2.25 16.4085 5.16 17.1142 9C16.4092 12.84 13.044 15.75 8.99999 15.75C4.95599 15.75 1.59149 12.84 0.885742 9C1.59074 5.16 4.95599 2.25 8.99999 2.25ZM8.99999 14.25C10.5296 14.2497 12.0138 13.7301 13.2096 12.7764C14.4055 11.8226 15.2422 10.4912 15.5827 9C15.2409 7.50998 14.4037 6.18 13.208 5.22752C12.0122 4.27504 10.5287 3.7564 8.99999 3.7564C7.47126 3.7564 5.98776 4.27504 4.79202 5.22752C3.59629 6.18 2.75907 7.50998 2.41724 9C2.75781 10.4912 3.5945 11.8226 4.79035 12.7764C5.9862 13.7301 7.47039 14.2497 8.99999 14.25ZM8.99999 12.375C8.10489 12.375 7.24644 12.0194 6.61351 11.3865C5.98057 10.7535 5.62499 9.89511 5.62499 9C5.62499 8.10489 5.98057 7.24645 6.61351 6.61351C7.24644 5.98058 8.10489 5.625 8.99999 5.625C9.8951 5.625 10.7535 5.98058 11.3865 6.61351C12.0194 7.24645 12.375 8.10489 12.375 9C12.375 9.89511 12.0194 10.7535 11.3865 11.3865C10.7535 12.0194 9.8951 12.375 8.99999 12.375ZM8.99999 10.875C9.49727 10.875 9.97419 10.6775 10.3258 10.3258C10.6774 9.97419 10.875 9.49728 10.875 9C10.875 8.50272 10.6774 8.02581 10.3258 7.67417C9.97419 7.32254 9.49727 7.125 8.99999 7.125C8.50271 7.125 8.0258 7.32254 7.67417 7.67417C7.32254 8.02581 7.12499 8.50272 7.12499 9C7.12499 9.49728 7.32254 9.97419 7.67417 10.3258C8.0258 10.6775 8.50271 10.875 8.99999 10.875Z"/></svg>