<svg xmlns="http://www.w3.org/2000/svg" width="16" height="16" fill="none" viewBox="0 0 16 16"><path fill="#939090" fill-rule="evenodd" d="M15.0942 6.77075C15.3733 7.04975 15.3733 7.50125 15.0942 7.78025L14.4703 8.40425C14.3008 8.57375 14.0592 8.64575 13.8253 8.59925L11.0697 8.04725L8.79725 10.3197L9.34925 13.0753C9.39575 13.3092 9.32225 13.5523 9.15425 13.7203L8.53025 14.3442C8.25125 14.6233 7.79975 14.6233 7.52075 14.3442L1.45925 8.28275C1.18025 8.00375 1.18025 7.55225 1.45925 7.27325L2.08325 6.64925C2.25275 6.47975 2.49425 6.40775 2.72825 6.45425L5.48375 7.00625L7.75625 4.73375L7.20425 1.97825C7.15775 1.74425 7.23125 1.50125 7.39925 1.33325L8.02325 0.70925C8.30225 0.43025 8.75375 0.43025 9.03275 0.70925L15.0942 6.77075Z" clip-rule="evenodd"/><path stroke="#939090" stroke-linecap="round" stroke-linejoin="round" stroke-width="1.5" d="M1.45605 14.3474L4.48605 11.3174"/></svg>