<svg width="72" height="76" viewBox="0 0 72 76" fill="none" xmlns="http://www.w3.org/2000/svg">
<path d="M22.5 17V16.5H22H9C8.17157 16.5 7.5 17.1716 7.5 18V31V31.5H8H22H22.5V31V17Z" fill="#FFEEE5" stroke="#CC3D00"/>
<path d="M22 16.5H21.5V17V31V31.5H22H63H63.5V31V18C63.5 17.1716 62.8284 16.5 62 16.5H22Z" fill="#FFEEE5" stroke="#CC3D00"/>
<rect x="7.5" y="30.5" width="15" height="15" fill="#FFEEE5" stroke="#CC3D00"/>
<rect x="21.5" y="30.5" width="42" height="15" fill="white"/>
<rect x="21.5" y="30.5" width="42" height="15" stroke="#99A4B3"/>
<rect x="26" y="35" width="24" height="7" rx="1" fill="#E3E8EF"/>
<path d="M8 44.5H7.5V45V58C7.5 58.8284 8.17157 59.5 9 59.5H22H22.5V59V45V44.5H22H8Z" fill="#FFEEE5" stroke="#CC3D00"/>
<path d="M22 44.5H21.5V45V59V59.5H22H62C62.8284 59.5 63.5 58.8284 63.5 58V45V44.5H63H22Z" fill="white"/>
<path d="M22 44.5H21.5V45V59V59.5H22H62C62.8284 59.5 63.5 58.8284 63.5 58V45V44.5H63H22Z" stroke="#99A4B3"/>
<rect x="26" y="49" width="33" height="7" rx="1" fill="#E3E8EF"/>
</svg>
