<svg width="783" height="131" viewBox="0 0 783 131" fill="none" xmlns="http://www.w3.org/2000/svg">
<path d="M510.51 17.21C509.564 16.309 508.816 15.2218 508.312 14.017C507.807 12.8122 507.558 11.5159 507.58 10.21C507.58 7.55784 508.634 5.0143 510.509 3.13894C512.384 1.26357 514.928 0.210005 517.58 0.210005C518.886 0.188131 520.182 0.437208 521.387 0.941511C522.592 1.44581 523.679 2.19439 524.58 3.14C525.508 4.06766 526.239 5.17263 526.73 6.38903C527.222 7.60542 527.463 8.90832 527.44 10.22C527.462 11.5259 527.213 12.8222 526.708 14.027C526.204 15.2318 525.456 16.319 524.51 17.22C523.605 18.1384 522.523 18.865 521.331 19.3564C520.139 19.8478 518.86 20.0939 517.57 20.08C516.261 20.0985 514.962 19.854 513.749 19.361C512.536 18.868 511.435 18.1365 510.51 17.21V17.21Z" fill="#1A1A1A"/>
<path d="M52.81 102.78C51.95 101.253 51.2833 98.2533 50.81 93.78C45.85 100.94 37.9333 104.517 27.06 104.51C18.9467 104.51 12.4833 102.557 7.67001 98.65C2.85668 94.7433 0.450012 89.3033 0.450012 82.33C0.450012 68.8833 9.89335 61.2167 28.78 59.33L39.94 58.33C43.66 57.86 46.33 56.97 47.94 55.69C48.7694 54.9797 49.421 54.0853 49.843 53.0782C50.2649 52.0711 50.4454 50.9793 50.37 49.89C50.37 46.7433 49.3467 44.43 47.3 42.95C45.2534 41.47 41.7933 40.73 36.92 40.73C31.68 40.73 27.9134 41.6133 25.62 43.38C23.33 45.15 21.99 48.17 21.62 52.47H3.87002C4.91668 35.6833 15.9833 27.2867 37.07 27.28C57.5833 27.28 67.8367 34.6733 67.83 49.46V88.81C67.83 95.3033 68.83 99.97 70.83 102.81L52.81 102.78ZM45.08 87C48.6134 83.9 50.3767 79.44 50.37 73.62V66.9C48.66 68.43 45.84 69.43 41.93 69.9L32.2 71C27.4 71.58 24 72.7033 22 74.37C20.9609 75.2535 20.1416 76.3668 19.607 77.6216C19.0725 78.8765 18.8372 80.2385 18.92 81.6C18.8401 82.9965 19.0868 84.3924 19.6405 85.677C20.1943 86.9615 21.0398 88.0993 22.11 89C24.2633 90.76 27.34 91.64 31.34 91.64C36.9733 91.62 41.5534 90.0733 45.08 87Z" fill="#1A1A1A"/>
<path d="M157.26 37.67C163.18 44.73 166.137 54.1267 166.13 65.86C166.123 77.5933 163.167 86.9267 157.26 93.86C151.26 100.92 143.2 104.45 133.08 104.45C122.96 104.45 115.327 100.683 110.18 93.15V130.78H92.18V28.94H109.49V39.53C114.823 31.33 122.693 27.2267 133.1 27.22C143.2 27.22 151.253 30.7033 157.26 37.67V37.67ZM128.79 89.61C134.697 89.61 139.363 87.4633 142.79 83.17C146.217 78.8767 147.883 72.9167 147.79 65.29C147.79 57.75 146.143 52 142.85 48.04C139.557 44.08 134.86 42.1 128.76 42.1C122.76 42.1 118.093 44.1533 114.76 48.26C111.427 52.3667 109.76 58.2333 109.76 65.86C109.76 73.58 111.477 79.4467 114.91 83.46C118.15 87.56 122.777 89.61 128.79 89.61Z" fill="#1A1A1A"/>
<path d="M250 37.67C255.92 44.73 258.877 54.1267 258.87 65.86C258.863 77.5933 255.907 86.9267 250 93.86C244 100.92 235.94 104.45 225.82 104.45C215.7 104.45 208.067 100.683 202.92 93.15V130.78H184.92V28.94H202.24V39.53C207.573 31.33 215.443 27.2267 225.85 27.22C235.91 27.22 243.96 30.7033 250 37.67ZM221.53 89.61C227.437 89.61 232.103 87.4633 235.53 83.17C238.957 78.8767 240.623 72.9167 240.53 65.29C240.53 57.75 238.883 52 235.59 48.04C232.297 44.08 227.6 42.1 221.5 42.1C215.5 42.1 210.833 44.1533 207.5 48.26C204.167 52.3667 202.5 58.2333 202.5 65.86C202.5 73.58 204.22 79.4467 207.66 83.46C210.86 87.56 215.467 89.61 221.48 89.61H221.53Z" fill="#1A1A1A"/>
<path d="M275.13 79.31H292.73C293.21 83.89 294.713 87.1333 297.24 89.04C299.767 90.9467 303.75 91.9 309.19 91.9C318.923 91.9 323.79 88.9433 323.79 83.03C323.842 81.82 323.579 80.6172 323.027 79.5392C322.475 78.4613 321.652 77.545 320.64 76.88C318.54 75.4467 314.77 74.2533 309.33 73.3L300.89 71.87C284.77 69.2033 276.71 61.7633 276.71 49.55C276.71 42.5833 279.377 37.12 284.71 33.16C290.043 29.2 297.58 27.22 307.32 27.22C328.4 27.22 339.277 35.5533 339.95 52.22H322.95C322.757 47.84 321.373 44.7167 318.8 42.85C316.227 40.9833 312.41 40.0533 307.35 40.06C298.763 40.06 294.47 42.9233 294.47 48.65C294.425 49.7772 294.663 50.8978 295.163 51.9092C295.662 52.9207 296.407 53.7908 297.33 54.44C299.243 55.82 302.393 56.8933 306.78 57.66L316.08 59.09C325.047 60.71 331.557 63.2867 335.61 66.82C339.663 70.3533 341.69 75.2667 341.69 81.56C341.69 89 338.83 94.7233 333.11 98.73C327.39 102.737 319.327 104.737 308.92 104.73C287.36 104.763 276.097 96.29 275.13 79.31V79.31Z" fill="#1A1A1A"/>
<path d="M465.09 34.38C469.617 39.1533 471.883 45.6867 471.89 53.98V102.78H453.89V56.84C453.89 47.5067 449.643 42.84 441.15 42.84C439.04 42.7592 436.939 43.1604 435.007 44.0128C433.075 44.8653 431.363 46.1468 430 47.76C427.193 51.0467 425.787 55.84 425.78 62.14V102.78H407.92V56.84C407.92 47.5067 403.63 42.84 395.05 42.84C392.97 42.7797 390.903 43.1931 389.006 44.0489C387.109 44.9047 385.431 46.1806 384.1 47.78C381.28 51.0667 379.873 55.86 379.88 62.16V102.8H361.88V28.94H379.34V39.53C384.387 31.33 391.387 27.2267 400.34 27.22C411.6 27.22 419.233 31.8 423.24 40.96C428.767 31.8 436.397 27.22 446.13 27.22C454.243 27.22 460.563 29.6067 465.09 34.38V34.38Z" fill="#1A1A1A"/>
<path d="M610 42.68H587V82.6C587 84.98 587.643 86.6467 588.93 87.6C590.217 88.5533 592.373 89.02 595.4 89H608.57V102.74C604.66 103.12 594.5 103.31 592.11 103.31C584.11 103.31 578.267 101.807 574.58 98.8C570.893 95.7933 569.057 91 569.07 84.42V42.68H552.33V28.94H569.07V4.29001H587V28.94H610V42.68Z" fill="#1A1A1A"/>
<path d="M690.66 34.16C695.293 38.7933 697.607 45.3533 697.6 53.84V102.78H679.6V56.84C679.6 47.5067 674.973 42.84 665.72 42.84C663.531 42.7946 661.357 43.2091 659.338 44.0566C657.319 44.9041 655.501 46.1657 654 47.76C650.813 51.0467 649.217 55.6 649.21 61.42V102.78H631.21V4.29001H649.21V38.81C654.837 31.09 662.323 27.2267 671.67 27.22C679.71 27.22 686.04 29.5333 690.66 34.16V34.16Z" fill="#1A1A1A"/>
<path d="M526.75 89.04V28.94H488.84V42.68H508.73V89.04H488.84V102.78H546.64V89.04H526.75Z" fill="#1A1A1A"/>
<path d="M712.16 127.1V113.36H782.56V127.1H712.16Z" fill="#FF6D2D"/>
</svg>
