<svg width="16" height="16" viewBox="0 0 16 16" fill="none" xmlns="http://www.w3.org/2000/svg">
<path d="M7.99967 14.6663C4.31767 14.6663 1.33301 11.6817 1.33301 7.99967C1.33301 4.31767 4.31767 1.33301 7.99967 1.33301C11.6817 1.33301 14.6663 4.31768 14.6663 7.99967C14.6663 11.6817 11.6817 14.6663 7.99967 14.6663ZM7.99967 13.333C9.41416 13.333 10.7707 12.7711 11.7709 11.7709C12.7711 10.7707 13.333 9.41416 13.333 7.99967C13.333 6.58519 12.7711 5.22863 11.7709 4.22844C10.7707 3.22824 9.41416 2.66634 7.99967 2.66634C6.58519 2.66634 5.22863 3.22824 4.22844 4.22844C3.22824 5.22863 2.66634 6.58519 2.66634 7.99967C2.66634 9.41416 3.22824 10.7707 4.22844 11.7709C5.22863 12.7711 6.58519 13.333 7.99967 13.333ZM7.33301 9.99967L8.66634 9.99967L8.66634 11.333L7.33301 11.333L7.33301 9.99967ZM7.33301 4.66634L8.66634 4.66634L8.66634 8.66634L7.33301 8.66634L7.33301 4.66634Z" fill="#D71010"/>
</svg>
