<svg xmlns="http://www.w3.org/2000/svg" width="16" height="16" fill="none" viewBox="0 0 16 16"><path fill="#716E6E" d="M7.99967 1.33301C8.17649 1.33301 8.34606 1.40325 8.47108 1.52827C8.5961 1.65329 8.66634 1.82286 8.66634 1.99967V3.99967C8.66634 4.17649 8.5961 4.34605 8.47108 4.47108C8.34606 4.5961 8.17649 4.66634 7.99967 4.66634C7.82286 4.66634 7.65329 4.5961 7.52827 4.47108C7.40325 4.34605 7.33301 4.17649 7.33301 3.99967V1.99967C7.33301 1.82286 7.40325 1.65329 7.52827 1.52827C7.65329 1.40325 7.82286 1.33301 7.99967 1.33301ZM7.99967 11.333C8.17649 11.333 8.34606 11.4032 8.47108 11.5283C8.5961 11.6533 8.66634 11.8229 8.66634 11.9997V13.9997C8.66634 14.1765 8.5961 14.3461 8.47108 14.4711C8.34606 14.5961 8.17649 14.6663 7.99967 14.6663C7.82286 14.6663 7.65329 14.5961 7.52827 14.4711C7.40325 14.3461 7.33301 14.1765 7.33301 13.9997V11.9997C7.33301 11.8229 7.40325 11.6533 7.52827 11.5283C7.65329 11.4032 7.82286 11.333 7.99967 11.333ZM14.6663 7.99967C14.6663 8.17649 14.5961 8.34606 14.4711 8.47108C14.3461 8.5961 14.1765 8.66634 13.9997 8.66634H11.9997C11.8229 8.66634 11.6533 8.5961 11.5283 8.47108C11.4032 8.34606 11.333 8.17649 11.333 7.99967C11.333 7.82286 11.4032 7.65329 11.5283 7.52827C11.6533 7.40325 11.8229 7.33301 11.9997 7.33301H13.9997C14.1765 7.33301 14.3461 7.40325 14.4711 7.52827C14.5961 7.65329 14.6663 7.82286 14.6663 7.99967ZM4.66634 7.99967C4.66634 8.17649 4.5961 8.34606 4.47108 8.47108C4.34605 8.5961 4.17649 8.66634 3.99967 8.66634H1.99967C1.82286 8.66634 1.65329 8.5961 1.52827 8.47108C1.40325 8.34606 1.33301 8.17649 1.33301 7.99967C1.33301 7.82286 1.40325 7.65329 1.52827 7.52827C1.65329 7.40325 1.82286 7.33301 1.99967 7.33301H3.99967C4.17649 7.33301 4.34605 7.40325 4.47108 7.52827C4.5961 7.65329 4.66634 7.82286 4.66634 7.99967ZM12.7137 12.7137C12.5887 12.8387 12.4191 12.9089 12.2423 12.9089C12.0656 12.9089 11.896 12.8387 11.771 12.7137L10.357 11.2997C10.2356 11.1739 10.1684 11.0055 10.1699 10.8307C10.1714 10.6559 10.2415 10.4887 10.3651 10.3651C10.4887 10.2415 10.6559 10.1714 10.8307 10.1699C11.0055 10.1684 11.1739 10.2356 11.2997 10.357L12.7137 11.7703C12.7757 11.8323 12.8248 11.9058 12.8584 11.9867C12.8919 12.0676 12.9092 12.1544 12.9092 12.242C12.9092 12.3296 12.8919 12.4164 12.8584 12.4973C12.8248 12.5782 12.7757 12.6518 12.7137 12.7137ZM5.64234 5.64234C5.51732 5.76732 5.34778 5.83753 5.17101 5.83753C4.99423 5.83753 4.82469 5.76732 4.69967 5.64234L3.28634 4.22901C3.16125 4.104 3.09094 3.93442 3.09087 3.75758C3.09081 3.58073 3.161 3.4111 3.28601 3.28601C3.41101 3.16091 3.58059 3.0906 3.75744 3.09054C3.93429 3.09048 4.10391 3.16067 4.22901 3.28567L5.64234 4.69967C5.76732 4.82469 5.83753 4.99423 5.83753 5.17101C5.83753 5.34778 5.76732 5.51732 5.64234 5.64234ZM3.28634 12.7137C3.16136 12.5887 3.09115 12.4191 3.09115 12.2423C3.09115 12.0656 3.16136 11.896 3.28634 11.771L4.70034 10.357C4.76184 10.2933 4.8354 10.2425 4.91674 10.2076C4.99807 10.1727 5.08555 10.1543 5.17407 10.1535C5.26259 10.1527 5.35038 10.1696 5.43231 10.2031C5.51424 10.2366 5.58868 10.2861 5.65127 10.3487C5.71387 10.4113 5.76337 10.4858 5.79689 10.5677C5.83041 10.6496 5.84728 10.7374 5.84651 10.8259C5.84574 10.9145 5.82735 11.0019 5.79241 11.0833C5.75747 11.1646 5.70668 11.2382 5.64301 11.2997L4.22967 12.7137C4.16776 12.7757 4.09423 12.8248 4.0133 12.8584C3.93237 12.8919 3.84562 12.9092 3.75801 12.9092C3.6704 12.9092 3.58365 12.8919 3.50271 12.8584C3.42178 12.8248 3.34826 12.7757 3.28634 12.7137ZM10.357 5.64234C10.232 5.51732 10.1618 5.34778 10.1618 5.17101C10.1618 4.99423 10.232 4.82469 10.357 4.69967L11.7703 3.28567C11.8953 3.16058 12.0649 3.09027 12.2418 3.09021C12.4186 3.09014 12.5882 3.16034 12.7133 3.28534C12.8384 3.41035 12.9087 3.57993 12.9088 3.75677C12.9089 3.93362 12.8387 4.10325 12.7137 4.22834L11.2997 5.64234C11.1747 5.76732 11.0051 5.83753 10.8283 5.83753C10.6516 5.83753 10.482 5.76732 10.357 5.64234Z"/></svg>