<svg xmlns="http://www.w3.org/2000/svg" width="50" height="50" fill="none" viewBox="0 0 50 50"><path fill="#fff" fill-rule="evenodd" d="M21.3542 50.0001C33.1477 50.0001 42.7083 40.4395 42.7083 28.6459C42.7083 16.8523 33.1477 7.29175 21.3542 7.29175C9.56059 7.29175 0 16.8523 0 28.6459C0 40.4395 9.56059 50.0001 21.3542 50.0001ZM27.6431 30.1616C27.3379 29.6421 26.9343 29.2385 26.4191 28.9508C26.0637 28.7463 25.5474 28.5537 24.877 28.3842C25.5014 28.1709 26.0133 27.9041 26.3917 27.5738C26.7777 27.2512 27.0697 26.8717 27.2676 26.4463C27.4699 26.0209 27.5716 25.5714 27.5683 25.0978C27.5693 24.447 27.3801 23.8488 26.9994 23.2997C26.6155 22.7561 26.0664 22.3383 25.3489 22.0451C25.0766 21.9346 24.7463 21.8471 24.3853 21.7771L24.3895 19.2462L21.956 19.2449L21.9573 21.6106L20.3933 21.6105L20.3942 19.247L17.9618 19.2468L17.962 21.6092L14.2467 21.61L14.2491 23.5983L14.8145 23.5973C15.1951 23.5951 15.4478 23.6291 15.5845 23.698C15.7136 23.768 15.8087 23.8631 15.8667 23.9758C15.9236 24.0917 15.9455 24.3674 15.9455 24.7895L15.9472 32.8053C15.9473 33.2231 15.9276 33.4943 15.8686 33.6146C15.8106 33.736 15.7166 33.8257 15.5864 33.8924C15.4497 33.9547 15.1982 33.9897 14.8154 33.9875L14.2499 33.9885L14.249 35.9758L17.961 35.9761L17.959 38.3406L20.3925 38.3398L20.3923 35.973L21.7802 35.9764C21.8382 35.9753 21.8983 35.9742 21.9574 35.9742L21.9543 38.3377L24.3889 38.3379L24.3865 35.7721C24.7966 35.6923 25.1532 35.5917 25.4616 35.4714C26.307 35.1335 26.9511 34.6447 27.4071 34.0005C27.8654 33.3607 28.1026 32.6597 28.1015 31.8952C28.1003 31.2598 27.9461 30.679 27.6431 30.1616ZM21.0697 27.4269C21.8944 27.4269 22.5057 27.3581 22.9016 27.2225C23.2976 27.0825 23.5906 26.8747 23.7897 26.5991C23.9876 26.3203 24.0827 25.9954 24.0882 25.6378C24.086 25.2572 23.9919 24.9356 23.8015 24.6688C23.6167 24.4008 23.34 24.2072 22.9823 24.0923C22.628 23.9764 21.9925 23.9227 21.0716 23.9248L19.4945 23.9225L19.497 27.4267L21.0697 27.4269ZM23.1731 29.7665C23.5745 29.9163 23.8698 30.1416 24.0689 30.4348C24.2701 30.7345 24.3664 31.091 24.3665 31.5176C24.3665 32.0185 24.2244 32.4494 23.9433 32.807C23.6601 33.1602 23.321 33.3965 22.9229 33.508C22.5161 33.6173 22.0108 33.6807 21.4049 33.6807L20.3571 33.6806C20.0082 33.6816 19.7928 33.6587 19.7162 33.6237C19.6342 33.5876 19.5817 33.5219 19.5445 33.4235C19.516 33.3491 19.4985 33.0866 19.4985 32.6492L19.496 29.5343L21.3564 29.5355C22.1701 29.5334 22.7772 29.6111 23.1731 29.7665Z" clip-rule="evenodd"/><path fill="#fff" fill-rule="evenodd" d="M43.303 36.8839C47.4266 32.9906 50.0001 27.4729 50.0001 21.3542C50.0001 9.56059 40.4395 0 28.6459 0C22.5272 0 17.0095 2.57346 13.1162 6.69706C15.6791 5.73469 18.4552 5.20833 21.3543 5.20833C34.2984 5.20833 44.7918 15.7017 44.7918 28.6458C44.7918 31.5449 44.2654 34.321 43.303 36.8839Z" clip-rule="evenodd" opacity=".6"/></svg>