<svg width="8" height="24" viewBox="0 0 8 24" fill="none" xmlns="http://www.w3.org/2000/svg">
<path fill-rule="evenodd" clip-rule="evenodd" d="M6 0H0V4V8V12V16V20V24H6C7.10457 24 8 23.1046 8 22V2C8 0.895431 7.10457 0 6 0ZM0 20C0 19.4477 0.447715 19 1 19C1.55228 19 2 19.4477 2 20C2 20.5523 1.55228 21 1 21C0.447715 21 0 20.5523 0 20ZM0 16C0 16.5523 0.447715 17 1 17C1.55228 17 2 16.5523 2 16C2 15.4477 1.55228 15 1 15C0.447715 15 0 15.4477 0 16ZM0 12C0 11.4477 0.447715 11 1 11C1.55228 11 2 11.4477 2 12C2 12.5523 1.55228 13 1 13C0.447715 13 0 12.5523 0 12ZM0 8C0 8.55228 0.447715 9 1 9C1.55228 9 2 8.55228 2 8C2 7.44772 1.55228 7 1 7C0.447715 7 0 7.44772 0 8ZM0 4C0 4.55228 0.447715 5 1 5C1.55228 5 2 4.55228 2 4C2 3.44772 1.55228 3 1 3C0.447715 3 0 3.44772 0 4ZM6 8C6 8.55228 5.55228 9 5 9C4.44772 9 4 8.55228 4 8C4 7.44772 4.44772 7 5 7C5.55228 7 6 7.44772 6 8ZM5 5C5.55228 5 6 4.55228 6 4C6 3.44772 5.55228 3 5 3C4.44772 3 4 3.44772 4 4C4 4.55228 4.44772 5 5 5ZM6 12C6 12.5523 5.55228 13 5 13C4.44772 13 4 12.5523 4 12C4 11.4477 4.44772 11 5 11C5.55228 11 6 11.4477 6 12ZM5 17C5.55228 17 6 16.5523 6 16C6 15.4477 5.55228 15 5 15C4.44772 15 4 15.4477 4 16C4 16.5523 4.44772 17 5 17ZM6 20C6 20.5523 5.55228 21 5 21C4.44772 21 4 20.5523 4 20C4 19.4477 4.44772 19 5 19C5.55228 19 6 19.4477 6 20Z"/>
</svg>
