<svg xmlns="http://www.w3.org/2000/svg" width="50" height="50" fill="none" viewBox="0 0 50 50"><path fill="#fff" fill-rule="evenodd" d="M8.90674 7.35558L5.55518 19.2071H10.0658C10.4092 18.0752 10.7723 16.685 11.1424 15.2675C11.6847 13.191 12.2422 11.0561 12.7755 9.58944C13.266 8.445 14.1652 7.5458 15.5549 7.30056H33.8942C35.2838 7.5458 36.1013 8.445 36.6735 9.58944C37.1231 10.9382 37.634 12.8522 38.1449 14.7662C38.5688 16.3541 38.9927 17.942 39.3816 19.2071H43.8939L40.5423 7.35558C39.2344 4.98496 37.436 3.51354 35.2288 2.77783H14.2202C12.0131 3.51354 10.1329 4.98496 8.90674 7.35558Z" clip-rule="evenodd" opacity=".6"/><path fill="#fff" fill-rule="evenodd" d="M5.83052 21.0591H44.1692H47.5616C48.3969 21.0591 49.0739 21.7362 49.0739 22.5714C49.0739 23.4066 48.3969 24.0837 47.5616 24.0837H45.9676L47.2661 26.0555C47.859 26.9558 48.1772 28.0092 48.1818 29.0873L48.2446 43.7741C48.2511 45.3128 47.0056 46.5637 45.4668 46.5637H44.0041C42.47 46.5637 41.2264 45.3201 41.2264 43.7859V40.5963H8.77336V43.7859C8.77336 45.32 7.5297 46.5637 5.99558 46.5637H4.53291C2.99415 46.5637 1.74858 45.3128 1.75516 43.7741L1.81792 29.0873C1.82253 28.0092 2.14068 26.9558 2.73359 26.0555L4.03211 24.0837H2.43808C1.60286 24.0837 0.925781 23.4066 0.925781 22.5714C0.925781 21.7362 1.60286 21.0591 2.43807 21.0591H5.83052ZM38.9925 27.6805C37.3576 27.6805 36.0497 28.9884 36.0497 30.6233C36.0497 32.2582 37.3576 33.5662 38.9925 33.5662C40.5457 33.5662 41.8536 32.2582 41.8536 30.6233C41.8536 28.9884 40.5457 27.6805 38.9925 27.6805ZM11.0072 27.6805C12.6421 27.6805 13.9501 28.9884 13.9501 30.6233C13.9501 32.2582 12.6421 33.5662 11.0072 33.5662C9.45405 33.5662 8.14612 32.2582 8.14612 30.6233C8.14612 28.9884 9.45405 27.6805 11.0072 27.6805Z" clip-rule="evenodd"/><rect width="14.815" height="2.778" x="17.592" y="29.63" fill="#B2B2B2"/></svg>