<svg xmlns="http://www.w3.org/2000/svg" width="44" height="30" fill="none" viewBox="0 0 44 30"><path fill="#fff" fill-rule="evenodd" d="M43.8596 24.8291V11.9299H0V24.8291C0 27.3524 2.04547 29.3978 4.56869 29.3977H39.2909C41.8141 29.3977 43.8596 27.3523 43.8596 24.8291ZM31.5789 24.6909C32.0583 24.6909 32.5077 24.5627 32.8947 24.3388C33.2818 24.5627 33.7312 24.6909 34.2105 24.6909C35.6639 24.6909 36.8421 23.5127 36.8421 22.0593C36.8421 20.6059 35.6639 19.4277 34.2105 19.4277C33.7312 19.4277 33.2818 19.5559 32.8947 19.7798C32.5077 19.5559 32.0583 19.4277 31.5789 19.4277C30.1256 19.4277 28.9474 20.6059 28.9474 22.0593C28.9474 23.5127 30.1256 24.6909 31.5789 24.6909ZM14.6199 20.1872H5.48246V18.4328H14.6199V20.1872ZM5.48246 23.8422H20.1024V22.0878H5.48246V23.8422Z" clip-rule="evenodd"/><path fill="#fff" fill-rule="evenodd" d="M32.8949 24.3674C33.6815 23.9124 34.2107 23.0619 34.2107 22.0879C34.2107 21.1138 33.6815 20.2634 32.8949 19.8083C32.1083 20.2634 31.5791 21.1138 31.5791 22.0879C31.5791 23.0619 32.1083 23.9124 32.8949 24.3674Z" clip-rule="evenodd" opacity=".6"/><path fill="#fff" d="M4.56869 0.157959H39.2909C41.8141 0.157959 43.8596 2.13745 43.8596 4.57928V6.29831H0V4.57936C0 2.13745 2.04547 0.157959 4.56869 0.157959Z"/></svg>