<svg xmlns="http://www.w3.org/2000/svg" width="50" height="50" fill="none" viewBox="0 0 50 50"><path fill="#fff" fill-rule="evenodd" d="M21.3542 50.0001C33.1477 50.0001 42.7083 40.4395 42.7083 28.6459C42.7083 16.8523 33.1477 7.29175 21.3542 7.29175C9.56059 7.29175 0 16.8523 0 28.6459C0 40.4395 9.56059 50.0001 21.3542 50.0001ZM29.0031 19.7917C29.0985 19.7917 29.1868 19.8431 29.234 19.9257C29.2813 20.0082 29.2807 20.1106 29.2326 20.1925L26.0746 25.5514H27.8432C27.9897 25.5514 28.109 25.6708 28.109 25.8172V27.5464C28.109 27.6929 27.9897 27.8122 27.8432 27.8122H24.7328L23.3922 30.0945H27.4282C27.5748 30.0945 27.6941 30.2136 27.6941 30.3603V32.1008C27.6941 32.2473 27.5749 32.3666 27.4282 32.3666H22.8763V38.177C22.8763 38.3234 22.7571 38.4428 22.6104 38.4428H20.1807C20.0342 38.4428 19.9149 38.3237 19.9149 38.177V32.3666H15.4947C15.3483 32.3666 15.2289 32.2475 15.2289 32.1008V30.3603C15.2289 30.2138 15.3483 30.0945 15.4947 30.0945H19.4066L18.0586 27.8122H14.8919C14.7453 27.8122 14.626 27.6931 14.626 27.5464V25.8171C14.626 25.6707 14.7452 25.5513 14.8919 25.5513H16.7257L13.5782 20.1924C13.5299 20.1102 13.5295 20.0082 13.5768 19.9259C13.6236 19.8434 13.7121 19.7919 13.8074 19.7919H16.6771C16.7747 19.7919 16.8642 19.8452 16.9108 19.931L21.3946 28.2131L25.8913 19.9308C25.9377 19.845 26.0272 19.7917 26.1247 19.7917H29.0031Z" clip-rule="evenodd"/><path fill="#fff" fill-rule="evenodd" d="M43.303 36.8839C47.4266 32.9906 50.0001 27.4729 50.0001 21.3542C50.0001 9.56059 40.4395 0 28.6459 0C22.5272 0 17.0095 2.57346 13.1162 6.69706C15.6791 5.73469 18.4552 5.20833 21.3543 5.20833C34.2984 5.20833 44.7918 15.7017 44.7918 28.6458C44.7918 31.5449 44.2654 34.321 43.303 36.8839Z" clip-rule="evenodd" opacity=".6"/></svg>