<svg xmlns="http://www.w3.org/2000/svg" width="50" height="50" fill="none" viewBox="0 0 50 50"><path fill="#fff" fill-rule="evenodd" d="M48.9822 27.9958C48.452 13.1576 36.1701 1.25639 21 1V6.00088C33.4072 6.25434 43.4503 15.919 43.9782 27.9958H48.9822Z" clip-rule="evenodd" opacity=".6"/><path fill="#fff" fill-rule="evenodd" d="M38.6516 21.5748H28.2583C27.6158 17.0079 25.9914 12.9107 24.4452 9.99585C30.4097 10.6175 35.929 15.9487 38.6516 21.5748ZM20.6162 10.1013C21.5351 10.1013 23.0168 11.7642 24.255 15.4793C24.8524 17.272 25.3311 19.3329 25.6795 21.5746H15.5528C15.9014 19.3327 16.3799 17.272 16.9775 15.4793C18.2159 11.7642 19.6974 10.1013 20.6162 10.1013ZM15.1334 35.1001C14.9671 33.2559 14.8793 31.332 14.8793 29.3631C14.8793 27.3942 14.9671 25.4703 15.1334 23.6261H26.0989C26.2651 25.4703 26.353 27.3942 26.353 29.3631C26.353 31.332 26.2651 33.2559 26.0989 35.1001H15.1334ZM20.6162 48.6267C19.6974 48.6267 18.2159 46.9638 16.9777 43.2487C16.3801 41.456 15.9016 39.3951 15.553 37.1532H25.6795C25.3308 39.3951 24.8524 41.4557 24.255 43.2487C23.0165 46.9638 21.5351 48.6267 20.6162 48.6267ZM1.81071 23.6263C1.28338 25.4486 1 27.3734 1 29.3633C1 31.3532 1.28338 33.2778 1.81071 35.1003H12.717C12.5551 33.2181 12.4733 31.2891 12.4733 29.3633C12.4733 27.4375 12.5553 25.5085 12.717 23.6263H1.81071ZM39.4215 23.6263H28.5153C28.6769 25.5085 28.759 27.4375 28.759 29.3633C28.759 31.2891 28.6769 33.2181 28.5153 35.1003H39.4215C39.9489 33.278 40.2323 31.3532 40.2323 29.3633C40.2323 27.3734 39.9489 25.4486 39.4215 23.6263ZM12.974 21.5748C13.6164 17.0078 15.5153 12.9106 17.0615 9.99585C10.4289 11.1005 5.30347 15.9488 2.58064 21.5748H12.974ZM2.58064 37.1532H12.974C13.6164 41.72 15.0418 45.7116 16.5881 48.6267C10.3093 47.6951 5.30347 42.7794 2.58064 37.1532ZM28.2583 37.1532C27.6158 41.7202 25.9914 45.7119 24.4452 48.6267C29.9247 47.4332 35.929 42.7794 38.6516 37.1532H28.2583Z" clip-rule="evenodd"/></svg>