<svg xmlns="http://www.w3.org/2000/svg" width="50" height="50" fill="none" viewBox="0 0 50 50"><path fill="#fff" d="M48.1424 28.8396C47.5275 28.4896 46.9846 28.171 46.4321 27.8748C43.4679 26.2863 40.2922 25.9812 36.9725 26.5286C34.3255 27.0325 31.7321 27.7563 29.2231 28.6916C26.4799 29.6384 23.7414 30.6211 20.8589 31.1507C18.2321 31.7021 15.493 31.5623 12.9462 30.7468C11.6988 30.333 10.5284 29.7395 9.47751 28.9877C9.37377 28.8834 9.30236 28.7546 9.27093 28.6153C9.25539 28.5186 9.25539 28.4203 9.27093 28.3236C9.27093 21.1886 9.27093 11.2758 9.27093 4.14081C9.27093 3.97926 9.27093 3.81323 9.27093 3.56642C9.86186 3.90746 10.3423 4.2171 10.89 4.52224C13.5648 5.94635 16.6827 6.46764 19.7203 5.9986C22.2658 5.59369 24.7586 4.9394 27.1573 4.04657C30.3521 2.96511 33.499 1.7535 36.8572 1.19257C39.6677 0.743832 42.4638 0.784218 45.1157 1.91954C46.0766 2.33687 46.999 2.89331 47.9262 3.40487C48.0281 3.49347 48.1013 3.60695 48.1376 3.73245C48.1517 3.80214 48.1517 3.87367 48.1376 3.94336C48.1376 11.1621 48.1376 21.1587 48.1376 28.3774V28.8262L48.1424 28.8396Z"/><path fill="#fff" d="M2.77783 3.24084C2.77783 1.96241 3.81421 0.926025 5.09265 0.926025C6.37108 0.926025 7.40746 1.9624 7.40746 3.24084V47.2223H2.77783V3.24084Z" opacity=".6"/></svg>