<svg xmlns="http://www.w3.org/2000/svg" width="51" height="50" fill="none" viewBox="0 0 51 50"><path fill="#fff" fill-rule="evenodd" d="M45.0007 9.2659C43.3499 7.61511 41.4271 6.31941 39.2852 5.4128C37.0678 4.47597 34.7144 4 32.2854 4C29.8603 4.00378 27.5068 4.47597 25.2894 5.41658C23.1476 6.32319 21.2248 7.61889 19.574 9.26967C17.9232 10.9205 16.6275 12.8432 15.7209 14.9851C14.7841 17.2025 14.3081 19.5559 14.3081 21.9849C14.3081 24.4101 14.7841 26.7673 15.7209 28.9847C16.6275 31.1265 17.9232 33.0494 19.574 34.7001C21.2248 36.3509 23.1476 37.6466 25.2894 38.5532C27.5068 39.4901 29.8603 39.966 32.2892 39.966C34.7144 39.966 37.0716 39.49 39.289 38.5532C41.4309 37.6466 43.3537 36.3509 45.0045 34.7001C46.6552 33.0494 47.951 31.1265 48.8576 28.9847C49.7944 26.7673 50.2703 24.4139 50.2703 21.9849C50.2703 19.5597 49.7944 17.2025 48.8576 14.9851C47.9471 12.8395 46.6514 10.9205 45.0007 9.2659ZM22.3354 8.06086C22.3895 8.01931 22.4433 7.97692 22.497 7.93453C22.6044 7.84974 22.7119 7.76495 22.8227 7.68688C23.6953 7.07492 24.6624 6.58006 25.6445 6.16831C27.7373 5.29192 30.0114 4.83106 32.2854 4.83106C33.8002 4.83106 35.3528 5.03505 36.8147 5.43547C36.2367 5.66967 35.5303 6.11543 34.3442 7.12781C33.3582 7.02204 32.361 7.01826 31.3599 7.1127C30.0529 7.23736 28.7383 7.52823 27.454 7.98153C26.2943 8.38951 25.3763 8.85415 24.7568 9.20923C23.8086 8.86926 22.5847 8.46884 21.9803 8.2724C22.0573 8.29705 22.2021 8.1735 22.2878 8.10042C22.3072 8.08388 22.3235 8.06993 22.3354 8.06086ZM35.4459 20.9368L38.5208 12.5431L34.6002 8.56116C33.6256 8.44405 32.6397 8.42894 31.65 8.5196C30.4374 8.63293 29.221 8.90114 28.0273 9.32044C26.03 10.0169 24.766 10.9111 24.6948 10.9615L24.6917 10.9637C24.6917 10.9637 22.6911 13.0841 22.2794 15.9399L28.3763 22.2371L35.4459 20.9368ZM15.7927 21.3843C15.6038 22.6044 15.5623 23.8699 15.6605 25.1429C15.5131 24.8483 15.396 24.599 15.3092 24.3988C15.1958 23.6093 15.1392 22.8008 15.1392 21.9774C15.1392 19.4464 15.6869 17.0401 16.6728 14.8756C16.5633 16.0089 16.6162 17.1837 16.6955 18.0752C16.2724 19.1366 15.9702 20.2434 15.7927 21.3843ZM16.8051 25.2412C16.9071 26.3555 17.111 27.2848 17.2848 27.9232C18.2103 29.2793 19.3442 30.6544 20.8325 31.7498L26.6802 29.7969L27.1715 23.1615L21.1879 16.9814C20.2775 17.2648 18.8487 17.8183 17.6059 18.8684C17.2886 19.726 17.0582 20.6174 16.9146 21.5354C16.7257 22.7329 16.6917 23.9832 16.8051 25.2412ZM34.8946 37.8618C33.651 38.6764 30.7403 38.7792 29.3145 38.8295L29.1199 38.8365C27.6466 38.5608 26.2149 38.0886 24.8663 37.4388C23.6877 36.8722 22.5696 36.1695 21.5496 35.3461C21.5575 35.3319 21.5455 35.0846 21.5295 34.7538C21.5073 34.2954 21.4773 33.6767 21.4817 33.2949L27.3897 31.323L33.9653 33.9634L34.9059 37.8504L34.8946 37.8618ZM42.6888 35.6143C44.1507 34.5792 45.3671 33.2155 46.3832 31.7498C46.4445 31.6626 46.5044 31.5739 46.5646 31.4846L46.5646 31.4845C46.6009 31.4308 46.6372 31.3769 46.6741 31.323C46.6384 30.8962 46.6584 30.3821 46.6791 29.8518C46.7021 29.2604 46.7259 28.6486 46.6741 28.1149L40.3165 28.7004L35.5478 33.2911L36.4884 37.182C36.4997 37.2348 37.7251 37.2008 37.8498 37.182C39.4817 36.9137 41.3175 36.5813 42.6888 35.6143ZM46.6174 26.4103C46.5948 26.4481 46.5721 26.4897 46.5494 26.535L40.2183 27.1167L37.0231 21.4107L40.1055 12.9981L44.1092 13.2739C45.0347 14.0483 45.8544 14.9095 46.5494 15.8388C47.4183 17.0061 48.0945 18.2867 48.5554 19.6428C48.0718 23.8435 47.0934 25.6812 46.6174 26.4103ZM47.4447 15.1362C47.9396 15.7973 48.3778 16.4923 48.7518 17.2139C48.7518 17.2025 48.7518 17.1912 48.7556 17.1761C48.1058 14.9511 46.999 12.8772 45.5333 11.0905C44.7438 10.131 43.8523 9.25834 42.8739 8.48772C42.8305 8.45561 42.788 8.42256 42.7455 8.38951C42.703 8.35645 42.6605 8.3234 42.6171 8.29129C42.6038 8.28181 42.5905 8.27138 42.5772 8.26095C42.564 8.2506 42.5509 8.24026 42.5377 8.23085C43.9581 9.80986 44.4869 11.3133 44.6796 12.269C45.7335 13.1265 46.6628 14.0898 47.4447 15.1362Z" clip-rule="evenodd"/><path fill="#fff" fill-rule="evenodd" d="M21.4311 38.7848C22.0549 39.1884 22.7015 39.5571 23.3694 39.8899L14.8919 45.6079C14.4341 45.9168 13.8126 45.796 13.5037 45.3381C13.1949 44.8802 13.3157 44.2587 13.7736 43.9499L21.4311 38.7848ZM18.0197 35.9986C18.0618 36.0414 18.1041 36.084 18.1466 36.1265C18.5912 36.5711 19.0536 36.9926 19.5329 37.3903L8.43586 44.8754C7.97799 45.1842 7.35646 45.0634 7.04763 44.6055C6.73879 44.1477 6.85961 43.5261 7.31747 43.2173L18.0197 35.9986ZM15.3403 32.6105C15.6947 33.1751 16.0774 33.7216 16.4876 34.2488L2.56148 43.7444C2.10356 44.0566 1.47903 43.9368 1.1691 43.4774C0.861372 43.0211 0.980106 42.402 1.43478 42.092L15.3403 32.6105ZM13.4701 28.7716C13.5911 29.1071 13.7214 29.44 13.8609 29.7701C13.9869 30.0678 14.1197 30.3618 14.2592 30.6518L3.66285 37.7991C3.20498 38.1079 2.58345 37.9871 2.27462 37.5293C1.96578 37.0714 2.08659 36.4499 2.54446 36.141L13.4701 28.7716ZM12.4313 24.385C12.5181 25.1121 12.6444 25.8316 12.8101 26.542L5.40213 31.5387C4.94426 31.8475 4.32273 31.7267 4.0139 31.2689C3.70507 30.811 3.82588 30.1895 4.28374 29.8806L12.4313 24.385Z" clip-rule="evenodd" opacity=".6"/></svg>