<svg xmlns="http://www.w3.org/2000/svg" width="51" height="50" fill="none" viewBox="0 0 51 50"><path fill="#fff" fill-rule="evenodd" d="M1.83134 25.6111C2.75457 30.0697 6.69657 33.5886 11.631 33.5886H12.2273L10.4374 37.3989C9.56839 38.8477 7.9788 39.748 6.28698 39.748C2.31627 39.748 -1.01655 37.3989 0.287228 32.1728L1.83134 25.6111Z" clip-rule="evenodd" opacity=".6"/><path fill="#fff" fill-rule="evenodd" d="M46.482 17.782L49.8336 32.0245C51.4996 37.2507 47.8045 39.5998 43.8338 39.5998C42.142 39.5998 40.5524 38.6995 39.6834 37.2507L37.102 31.7556H34.9948H15.0046H12.8484C6.38211 31.7556 1.61599 25.7111 3.12415 19.4232L3.51781 17.782C4.7511 12.5394 9.40122 10 13.3429 10H36.6572C42.0428 10 45.5794 13.9452 46.482 17.782ZM17.0516 22.3425H18.7247C19.5334 22.3425 20.1892 21.6867 20.1892 20.878C20.1892 20.0689 19.5334 19.4131 18.7247 19.4131H17.0516V17.74C17.0516 16.9313 16.3958 16.2756 15.5868 16.2756C14.778 16.2756 14.1223 16.9313 14.1223 17.74V19.4131H12.4492C11.6404 19.4131 10.9847 20.0689 10.9847 20.878C10.9847 21.6867 11.6404 22.3425 12.4492 22.3425H14.1223V24.0156C14.1223 24.8243 14.778 25.48 15.5868 25.48C16.3958 25.48 17.0516 24.8243 17.0516 24.0156V22.3425ZM31.2751 22.3425C30.4667 22.3425 29.8106 21.6863 29.8106 20.878C29.8106 20.0693 30.4671 19.4131 31.2751 19.4131C32.0838 19.4131 32.7399 20.0693 32.7399 20.878C32.7399 21.6863 32.0838 22.3425 31.2751 22.3425ZM32.9482 24.0156C32.9482 24.8239 33.6047 25.48 34.413 25.48C35.2214 25.48 35.8775 24.8239 35.8775 24.0156C35.8775 23.2072 35.2214 22.5507 34.413 22.5507C33.6047 22.5507 32.9482 23.2072 32.9482 24.0156ZM34.413 19.2049C33.6047 19.2049 32.9482 18.5487 32.9482 17.74C32.9482 16.9317 33.6047 16.2756 34.413 16.2756C35.2214 16.2756 35.8775 16.9317 35.8775 17.74C35.8775 18.5487 35.2214 19.2049 34.413 19.2049ZM36.0858 20.878C36.0858 21.6863 36.7423 22.3425 37.5506 22.3425C38.359 22.3425 39.0151 21.6863 39.0151 20.878C39.0151 20.0693 38.359 19.4131 37.5506 19.4131C36.7423 19.4131 36.0858 20.0693 36.0858 20.878Z" clip-rule="evenodd"/></svg>