<svg xmlns="http://www.w3.org/2000/svg" width="66" height="67" fill="none" viewBox="0 0 66 67"><path fill="#fff" d="M20.4481 22.9908C24.9194 17.6621 32.0543 15.8577 38.2962 17.8867L44.6844 15.1046C35.6084 9.45211 23.4886 11.1894 16.4213 19.6119C9.9914 27.2748 9.73682 38.0961 15.1225 45.9776L18.9963 42.2902C15.3948 36.3797 15.7589 28.5791 20.4481 22.9908Z" opacity=".6"/><path fill="#fff" d="M49.8803 47.6875C56.3089 40.0261 56.5647 29.208 51.1827 21.327L47.3011 25.0027C50.9069 30.914 50.5443 38.7183 45.8535 44.3086C41.4083 49.6062 34.3305 51.4204 28.1146 49.4478L21.6346 52.2055C30.7085 57.8451 42.8175 56.1046 49.8803 47.6875Z" opacity=".6"/><path fill="#fff" d="M45.1876 38.6713L37.0262 31.1121L50.9254 16.4441L20.6887 29.1387L28.646 36.732L15.3787 50.8447L45.1876 38.6713Z"/></svg>