<svg xmlns="http://www.w3.org/2000/svg" width="50" height="51" fill="none" viewBox="0 0 50 51"><path fill="#fff" fill-rule="evenodd" d="M14.007 30.416C10.7211 25.9837 8 21.9005 8 16.812C8 7.56708 15.5823 0.0426053 24.9183 0H24.9998C34.3732 0 42 7.54253 42 16.812C42 21.9005 39.2789 25.9846 35.993 30.416C35.993 30.416 25.4437 43.8985 25.0143 44.4792L14.007 30.416ZM24.9998 4.26794C31.9934 4.26794 37.6844 9.89462 37.6844 16.812C37.6844 23.7284 31.9934 29.3551 24.9998 29.3551C18.0061 29.3551 12.3156 23.7284 12.3156 16.812C12.3156 9.89462 18.0061 4.26794 24.9998 4.26794ZM19.3156 16.7682C19.3156 19.8011 21.7831 22.2679 24.8155 22.2679C27.8481 22.2679 30.3156 19.8011 30.3156 16.7682C30.3156 13.7357 27.8481 11.2679 24.8155 11.2679C21.7831 11.2679 19.3156 13.7357 19.3156 16.7682Z" clip-rule="evenodd"/><path fill="#fff" fill-rule="evenodd" d="M6.51611 50.6977L9.6837 42.2964H21.0033L25.0311 47.789C25.0311 47.789 28.3974 43.3593 29.1707 42.2964H40.4596L43.6266 50.6977H6.51611Z" clip-rule="evenodd" opacity=".6"/></svg>