<svg xmlns="http://www.w3.org/2000/svg" width="50" height="50" fill="none" viewBox="0 0 50 50"><path fill="#979797" fill-rule="evenodd" d="M50 25C50 11.1929 38.8071 0 25 0C11.1929 0 0 11.1929 0 25C0 38.8071 11.1929 50 25 50C38.8071 50 50 38.8071 50 25ZM5.74627 25C5.74627 14.3665 14.3665 5.74627 25 5.74627C35.6335 5.74627 44.2537 14.3665 44.2537 25C44.2537 35.6335 35.6335 44.2537 25 44.2537C14.3665 44.2537 5.74627 35.6335 5.74627 25Z" clip-rule="evenodd"/><path fill="#fff" d="M36 21.9297H28.0795V14H21.9205V21.9205H14V28.0795H21.9205V36H28.0703V28.0795H36V21.9297Z"/></svg>