<svg xmlns="http://www.w3.org/2000/svg" width="51" height="51" fill="none" viewBox="0 0 51 51"><path fill="#fff" fill-rule="evenodd" d="M21.3542 51.0001C33.1477 51.0001 42.7083 41.4395 42.7083 29.6459C42.7083 17.8523 33.1477 8.29175 21.3542 8.29175C9.56059 8.29175 0 17.8523 0 29.6459C0 41.4395 9.56059 51.0001 21.3542 51.0001ZM17.2898 23.2131H15V20.2917H27.8645V23.2135H22.8568C23.3432 23.9144 23.7002 24.711 23.894 25.5692H27.8645V28.491H23.9104C23.4518 30.6215 21.9886 32.383 20.0424 33.2519L24.7809 37.5519L22.8171 39.7156L15.8293 33.3738V30.9149H17.2898C18.9095 30.9149 20.2973 29.9096 20.8656 28.4906H15V25.5688H20.8386C20.2538 24.186 18.8832 23.2131 17.2898 23.2131Z" clip-rule="evenodd"/><path fill="#fff" fill-rule="evenodd" d="M43.303 37.8839C47.4266 33.9906 50.0001 28.4729 50.0001 22.3542C50.0001 10.5606 40.4395 1 28.6459 1C22.5272 1 17.0095 3.57346 13.1162 7.69706C15.6791 6.73469 18.4552 6.20833 21.3543 6.20833C34.2984 6.20833 44.7918 16.7017 44.7918 29.6458C44.7918 32.5449 44.2654 35.321 43.303 37.8839Z" clip-rule="evenodd" opacity=".6"/></svg>