<svg xmlns="http://www.w3.org/2000/svg" width="50" height="50" fill="none" viewBox="0 0 50 50"><path fill="#fff" d="M25.0028 7.03491C15.3319 7.03491 7.49219 14.9638 7.49219 24.7446C7.49219 29.0851 9.03344 33.0617 11.5962 36.1417C16.278 35.2185 22.195 32.9664 28.1834 29.5698C33.8285 26.3679 38.5306 22.7219 41.6925 19.366C39.4432 12.2116 32.8218 7.03491 25.0028 7.03491Z"/><path fill="#fff" d="M41.8979 8.69508C40.3156 8.69653 38.5213 8.92484 36.5968 9.33498C37.3298 9.90168 38.0217 10.5367 38.666 11.2028C39.8411 11.0194 40.9356 10.9097 41.8979 10.9088C44.4733 10.906 46.0217 11.5788 46.5833 12.5345C46.9928 13.2312 47.0216 14.2108 46.4978 15.5956C45.9741 16.9805 44.9027 18.6636 43.3343 20.4554C40.1976 24.0389 35.1524 28.0465 29.0215 31.5239C22.8902 35.0016 16.8243 37.2851 12.0923 38.1651C9.72631 38.605 7.68838 38.6904 6.19274 38.4418C4.6971 38.1931 3.83212 37.6514 3.42251 36.9544C2.96066 36.1685 2.9838 35.0029 3.73032 33.3572C4.27018 32.167 5.16945 30.7959 6.39794 29.3448C6.18063 28.4525 6.02544 27.5303 5.93624 26.595C4.02382 28.6151 2.57172 30.5841 1.7296 32.4406C0.817603 34.4511 0.586669 36.4711 1.5415 38.0959C2.38879 39.5376 3.97894 40.3097 5.85074 40.6209C7.72254 40.9321 9.95345 40.815 12.4856 40.3442C13.4562 40.1637 14.4813 39.9186 15.5294 39.6351C18.2606 41.4178 21.5114 42.4541 25.0029 42.4541C34.6738 42.4541 42.5135 34.5252 42.5135 24.7445C42.5135 24.6467 42.5154 24.5478 42.5135 24.4505C43.4048 23.6028 44.2313 22.7566 44.9588 21.9254C46.6427 20.0017 47.8832 18.1367 48.5499 16.3739C49.2165 14.6111 49.3118 12.8351 48.4644 11.393C47.2978 9.40798 44.8376 8.6922 41.8979 8.69508Z" opacity=".6"/></svg>