<svg xmlns="http://www.w3.org/2000/svg" width="51" height="51" fill="none" viewBox="0 0 51 51"><path fill="#fff" fill-rule="evenodd" d="M50.9752 15.8309C50.98 15.895 50.9848 15.9591 50.9872 16.024C50.996 16.1766 51 16.3307 51 16.4856C51 20.3392 48.4705 23.5954 45 24.6449V16H15.2319C16.0301 12.9237 18.7962 10.6541 22.0849 10.6523C22.6019 10.6523 23.1061 10.7099 23.5918 10.8162C23.5068 10.3083 23.4619 9.78743 23.4619 9.25515C23.4619 4.14358 27.5555 0 32.6054 0C32.6671 0 32.7288 0.000811527 32.7898 0.00243458C32.8114 0.00243458 32.833 0.00243458 32.8539 0.00324611C32.9132 0.00486917 32.9725 0.00730375 33.0311 0.0105499C33.2227 0.0186651 33.4134 0.0332726 33.6018 0.0543723C33.6467 0.0592415 33.6908 0.0641107 33.7357 0.0706029C33.7951 0.0770951 33.8544 0.0852104 33.9137 0.0941372L33.9253 0.0958516C33.9816 0.104213 34.0386 0.112666 34.0949 0.122541C34.1574 0.132279 34.2192 0.14364 34.2817 0.155813C34.2961 0.158248 34.3106 0.160682 34.3258 0.163929C34.3691 0.172044 34.4132 0.180971 34.4565 0.189897C34.4869 0.196375 34.5165 0.202853 34.5461 0.209331L34.5463 0.209374C34.6513 0.232097 34.7555 0.256443 34.8589 0.283223C34.8906 0.291244 34.9217 0.299815 34.9532 0.308484C34.96 0.31034 34.9667 0.312201 34.9735 0.314061C35 0.320553 35.0272 0.327857 35.0537 0.335972L35.1635 0.367622C35.2654 0.397649 35.3655 0.429298 35.4657 0.462571C35.5154 0.478801 35.5659 0.495843 35.6148 0.513697C35.6645 0.530739 35.7143 0.548593 35.7632 0.567258C35.8617 0.603777 35.9595 0.64273 36.0565 0.682495C36.0888 0.695555 36.1215 0.709483 36.1539 0.723327C36.1659 0.728408 36.1778 0.733479 36.1896 0.73849C36.1939 0.741001 36.1988 0.743026 36.2033 0.744941C36.2047 0.745502 36.206 0.746054 36.2072 0.746605C36.2529 0.766082 36.2986 0.78637 36.3443 0.80747C36.3916 0.82857 36.4389 0.850481 36.4862 0.873204L36.4866 0.873371C36.5386 0.898473 36.5906 0.923574 36.6418 0.948676C36.7106 0.98276 36.7788 1.01847 36.8461 1.05417C36.9222 1.09475 36.9984 1.13614 37.073 1.17915C37.1482 1.22135 37.2228 1.26517 37.2958 1.30981L37.2959 1.30989C37.3447 1.33989 37.3936 1.36989 37.4417 1.4007C37.4817 1.42579 37.5209 1.45089 37.56 1.47599L37.5603 1.47617C37.6492 1.5346 37.7366 1.59384 37.8224 1.6547L37.8224 1.65471C37.8513 1.675 37.8801 1.69528 37.909 1.71638C37.9507 1.7456 37.9916 1.77562 38.0325 1.80727C38.0734 1.8373 38.1143 1.86814 38.1543 1.89979C38.2073 1.94117 38.2602 1.98256 38.3123 2.02476L38.3126 2.02502C38.351 2.05658 38.3893 2.08815 38.4269 2.11971H38.4277V2.12052L38.4285 2.12133C38.4822 2.16597 38.536 2.21222 38.5889 2.25848C38.6946 2.351 38.7989 2.44667 38.9007 2.54487C38.952 2.59356 39.0017 2.64306 39.0514 2.69338C39.0995 2.74126 39.1468 2.78914 39.1933 2.83864L39.2013 2.84676C39.2494 2.89707 39.2967 2.94901 39.3432 3.00014C39.3889 3.05045 39.433 3.09995 39.4771 3.15108C39.526 3.20708 39.5741 3.26388 39.6214 3.3215C39.6663 3.37587 39.7112 3.43106 39.7545 3.48624C39.7986 3.54224 39.8419 3.59823 39.8844 3.65423C39.9589 3.75405 40.0318 3.85459 40.1024 3.95766C40.1601 4.04035 40.2162 4.12394 40.2708 4.20915L40.2708 4.20918C40.302 4.25786 40.3333 4.30654 40.3638 4.35604L40.364 4.35644C40.3936 4.40499 40.4232 4.45355 40.452 4.50211C40.4864 4.55973 40.5201 4.61816 40.553 4.6774C40.553 4.6774 40.5533 4.6774 40.5535 4.67758C40.5536 4.6777 40.5538 4.67789 40.5538 4.67821L40.5538 4.67826C40.5819 4.72856 40.6099 4.77886 40.6372 4.82916C40.6444 4.84295 40.6516 4.85675 40.6588 4.86973C40.6829 4.91518 40.7069 4.96062 40.7302 5.00688C40.739 5.02311 40.747 5.03934 40.755 5.05557C40.7791 5.10264 40.8023 5.14971 40.8248 5.19759C40.8328 5.21301 40.84 5.22762 40.8472 5.24304C40.86 5.26955 40.8723 5.29652 40.8845 5.32326C40.8884 5.33172 40.8923 5.34015 40.8961 5.34854C40.9145 5.38742 40.9321 5.42712 40.9497 5.46682L40.9498 5.46702C40.9595 5.48812 40.9691 5.50922 40.9779 5.53032C40.9978 5.57634 41.017 5.62237 41.0361 5.6684L41.0364 5.66909C41.0452 5.68857 41.0525 5.70723 41.0597 5.72671C41.0757 5.76323 41.0901 5.80056 41.1046 5.83789L41.1047 5.83817C41.1207 5.87865 41.1367 5.91914 41.1511 5.95962L41.1511 5.95973C41.1575 5.97511 41.1639 5.99049 41.1687 6.00587C41.1888 6.05943 41.2088 6.11381 41.2272 6.16899C41.2328 6.18196 41.2368 6.19492 41.2408 6.20789L41.2409 6.20794C41.2561 6.25095 41.2705 6.29478 41.285 6.3386C41.297 6.37349 41.3082 6.40839 41.3186 6.4441C41.3261 6.46626 41.3329 6.48843 41.3396 6.51059C41.343 6.5217 41.3464 6.53281 41.3499 6.54391C41.3675 6.60234 41.3852 6.66159 41.4012 6.72164C41.4205 6.78973 41.4397 6.85871 41.4565 6.9285C41.4581 6.93093 41.4589 6.93337 41.4589 6.9358C41.4734 6.99099 41.487 7.04617 41.499 7.10216C41.5375 7.26041 41.5704 7.41939 41.5992 7.58007C41.6129 7.65303 41.6249 7.72607 41.6361 7.7991C41.6481 7.87287 41.6586 7.94672 41.6682 8.02057C41.9704 7.9873 42.2766 7.97026 42.5876 7.97026C42.6557 7.97026 42.723 7.97107 42.7904 7.97269L42.8633 7.97512C42.9098 7.97594 42.9555 7.97837 43.0012 7.98081C43.0149 7.98081 43.0277 7.98162 43.0413 7.98324C43.1046 7.98567 43.1679 7.98973 43.2305 7.99541C43.2329 7.9946 43.2361 7.99541 43.2385 7.99541C43.2922 7.99947 43.3459 8.00434 43.3988 8.01002L43.3989 8.01003C43.4277 8.01246 43.4566 8.01489 43.4846 8.01814C43.5495 8.02544 43.6136 8.03274 43.6785 8.04086C43.7418 8.04979 43.8051 8.05871 43.8685 8.06845C43.9374 8.079 44.0064 8.09036 44.0745 8.10335C44.0769 8.10335 44.0793 8.10416 44.0817 8.10416C44.145 8.11552 44.2075 8.12769 44.2693 8.14068C44.2805 8.14311 44.2909 8.14473 44.3013 8.14717C44.3639 8.16015 44.4256 8.17395 44.4873 8.18856C44.5459 8.20235 44.6044 8.21615 44.6621 8.23157C44.8257 8.27295 44.9867 8.32002 45.1463 8.37196C45.184 8.38332 45.2208 8.3955 45.2585 8.40848C45.2665 8.41125 45.2744 8.41396 45.2823 8.41666C45.3022 8.42343 45.3218 8.43015 45.3419 8.4377C45.3804 8.45068 45.4181 8.46447 45.4557 8.47826L45.4558 8.47827C45.4702 8.48314 45.4846 8.48882 45.4991 8.4945C45.5439 8.51073 45.5888 8.52777 45.6329 8.54644C45.8854 8.64464 46.1315 8.75573 46.3704 8.87827C46.3944 8.89017 46.4185 8.90279 46.4425 8.91541C46.4545 8.92173 46.4666 8.92804 46.4786 8.93427C46.5243 8.9578 46.5692 8.98215 46.6133 9.00731C46.643 9.02354 46.6718 9.03977 46.7007 9.05681C46.7384 9.0771 46.7753 9.09901 46.8121 9.12092C46.9067 9.1761 46.9997 9.23291 47.0911 9.29215C47.1015 9.29905 47.1119 9.30575 47.1223 9.31244C47.1328 9.31914 47.1432 9.32583 47.1536 9.33273L47.154 9.33299C47.198 9.36212 47.2419 9.39125 47.2851 9.42037C47.2903 9.42446 47.2959 9.42812 47.3013 9.43167C47.3034 9.43306 47.3055 9.43443 47.3075 9.43579C47.3482 9.46406 47.3881 9.49233 47.428 9.5206L47.4286 9.521L47.4287 9.52109C47.4495 9.53567 47.4703 9.55025 47.4903 9.56564C47.5224 9.58836 47.5545 9.6119 47.5857 9.63624C47.6602 9.69142 47.7332 9.74823 47.8053 9.80585C47.8057 9.80585 47.8059 9.806 47.8061 9.80618C47.8063 9.8064 47.8065 9.80666 47.8069 9.80666C47.851 9.84237 47.8951 9.87808 47.9384 9.91459C47.9905 9.95761 48.0418 10.0022 48.0924 10.0469C48.1405 10.0883 48.1886 10.1313 48.2359 10.1751C48.2888 10.223 48.3401 10.2717 48.3914 10.3212C48.4363 10.3642 48.4804 10.408 48.5237 10.4526C48.5846 10.5126 48.6439 10.5743 48.7017 10.6368C49.0584 11.0181 49.3798 11.4327 49.6619 11.8765C49.6956 11.9293 49.7293 11.9829 49.7621 12.0372L49.7669 12.0445C49.7934 12.0892 49.8207 12.1346 49.8463 12.1801C49.8543 12.1939 49.8623 12.2068 49.8704 12.2206C49.9016 12.2758 49.9321 12.331 49.9626 12.3862C49.9938 12.4438 50.0251 12.5022 50.0548 12.5615C50.0748 12.5996 50.0948 12.6386 50.1133 12.6775C50.1285 12.7067 50.143 12.736 50.1566 12.766C50.1814 12.8163 50.2047 12.8674 50.2279 12.9185L50.228 12.9187C50.252 12.9714 50.2761 13.0241 50.2993 13.0776L50.3137 13.1117C50.3354 13.1628 50.357 13.2148 50.3779 13.2667C50.3827 13.2781 50.3875 13.2894 50.3915 13.3016C50.4091 13.3454 50.426 13.3884 50.4428 13.4331C50.4524 13.4574 50.462 13.4826 50.4701 13.5077C50.4845 13.5434 50.4973 13.5799 50.5102 13.6165C50.519 13.6408 50.5278 13.666 50.5358 13.6911C50.5494 13.7293 50.5623 13.7682 50.5751 13.8072C50.5887 13.8469 50.6007 13.8859 50.6128 13.9257C50.6184 13.9411 50.6232 13.9573 50.6272 13.9735C50.6416 14.0174 50.6545 14.062 50.6665 14.1058C50.6777 14.1431 50.6881 14.1805 50.6986 14.2186C50.7018 14.23 50.705 14.2421 50.7082 14.2551C50.7226 14.3095 50.737 14.3647 50.7499 14.4199C50.7627 14.4694 50.7747 14.5205 50.7859 14.5716C50.798 14.6203 50.8084 14.6698 50.818 14.7193C50.8244 14.7477 50.8308 14.7769 50.8365 14.8062C50.8493 14.871 50.8613 14.9359 50.8725 15.0017C50.8814 15.0503 50.8894 15.0982 50.8958 15.1469C50.8998 15.1648 50.9022 15.1826 50.9046 15.2013C50.911 15.2435 50.9174 15.2857 50.9222 15.3287C50.9266 15.3571 50.9302 15.3862 50.9338 15.4148L50.9351 15.4245C50.9439 15.4909 50.9511 15.5583 50.9575 15.6256C50.9647 15.6937 50.9703 15.7619 50.9752 15.8309Z" clip-rule="evenodd" opacity=".6"/><path fill="#fff" fill-rule="evenodd" d="M0 18H43V33.3214H0V18ZM6.39189 27.4286C7.35466 27.4286 8.13514 26.6371 8.13514 25.6607C8.13514 24.6844 7.35466 23.8929 6.39189 23.8929C5.42913 23.8929 4.64865 24.6844 4.64865 25.6607C4.64865 26.6371 5.42913 27.4286 6.39189 27.4286ZM38.3513 23.8929H20.9189V27.4286H38.3513V23.8929ZM0 35.6786H43V51H0V35.6786ZM6.39189 45.1071C7.35466 45.1071 8.13514 44.3156 8.13514 43.3393C8.13514 42.3629 7.35466 41.5714 6.39189 41.5714C5.42913 41.5714 4.64865 42.3629 4.64865 43.3393C4.64865 44.3156 5.42913 45.1071 6.39189 45.1071ZM38.3513 41.5714H20.9189V45.1071H38.3513V41.5714Z" clip-rule="evenodd"/></svg>