<svg xmlns="http://www.w3.org/2000/svg" width="52" height="50" fill="none" viewBox="0 0 52 50"><path fill="#fff" fill-rule="evenodd" d="M33.2977 16.0356C34.7662 16.519 36.3591 16.4611 37.7887 15.8726L38.9034 15.4166L45.1282 25.5412L42.2073 28.4642C42.0776 28.2954 41.929 28.1419 41.7645 28.0066L29.9517 18.3782C29.7181 18.1884 29.392 18.1619 29.1308 18.3114C25.3828 20.462 22.7647 19.7508 21.2362 18.7753C21.173 18.736 21.137 18.6646 21.1427 18.5905C21.1456 18.5085 21.1938 18.4348 21.2678 18.3993L26.4643 15.6386C26.4731 15.6349 26.4808 15.6304 26.4885 15.626C26.4939 15.6228 26.4994 15.6197 26.5051 15.6168L27.8166 14.9203C28.3139 14.6608 28.8941 14.6102 29.4288 14.7797L33.2977 16.0356ZM40.4078 29.3491L28.9703 20.0291C24.5903 22.3548 21.4888 21.1578 20.0059 20.2112C19.2329 19.7068 19.0152 18.6712 19.5196 17.8982C19.6763 17.6581 19.8922 17.4623 20.1465 17.3297L23.9585 15.3049C23.8601 15.2902 23.7638 15.2776 23.6774 15.2691C20.2373 15.8126 16.7631 16.1118 13.2807 16.1645L6.6167 27.0031L8.10239 28.1353L9.84887 26.6018C11.0614 25.5374 12.9074 25.6574 13.9719 26.8699L13.9723 26.8703L13.9976 26.8992C14.347 27.2999 14.5795 27.7891 14.6695 28.3133C15.199 27.9519 15.8346 27.7787 16.4743 27.8213C17.2481 27.8695 17.9704 28.2253 18.4801 28.8094L18.5623 28.9036C19.0747 29.4845 19.3336 30.2461 19.2812 31.019V31.0233C19.415 31.0096 19.5495 31.0052 19.684 31.0099C20.4577 31.0582 21.18 31.414 21.6898 31.9981L21.1647 32.5013L21.7108 32.022C22.224 32.6031 22.4834 33.3653 22.4312 34.1388C22.4312 34.1441 22.43 34.1493 22.4287 34.1544C22.4277 34.1587 22.4266 34.1631 22.4263 34.1676C24.0265 34.0537 25.416 35.2587 25.5299 36.8589C25.5393 36.9924 25.5396 37.1265 25.5306 37.26C25.4946 37.7626 25.3279 38.2472 25.0471 38.6656L28.1809 40.4739C28.8679 40.8635 29.7404 40.6324 30.1445 39.9538C30.5278 39.3062 30.3409 38.4721 29.7178 38.0499L24.7279 34.5921C24.7237 34.5921 24.7216 34.5844 24.7181 34.5815L24.3821 34.3489C24.0561 34.1147 23.9817 33.6607 24.2159 33.3347C24.4443 33.0167 24.8836 32.9369 25.2093 33.1541L32.2473 38.0295C32.8965 38.4795 33.7875 38.318 34.2375 37.6688L34.2383 37.6676C34.68 37.022 34.5237 36.1419 33.887 35.6878L26.8835 30.7203C26.8824 30.7203 26.8816 30.7198 26.8808 30.7191C26.8798 30.7181 26.8789 30.7167 26.878 30.7152L26.878 30.7152C26.8767 30.7131 26.8754 30.711 26.8736 30.7097C26.5464 30.4768 26.47 30.0228 26.7028 29.6955C26.9356 29.3683 27.3897 29.2919 27.717 29.5247L35.5688 35.0952C36.2555 35.5801 37.2054 35.4165 37.6903 34.7297C38.1597 34.065 38.0232 33.1486 37.3805 32.6494L28.932 26.5617C28.5981 26.339 28.5081 25.8878 28.7308 25.554C28.9536 25.2201 29.4047 25.13 29.7386 25.3527C29.7511 25.3611 29.7634 25.3698 29.7754 25.379L30.3531 25.7908H30.3608L38.1908 31.4323C38.1986 31.4379 38.2052 31.4442 38.2117 31.4505L38.2117 31.4505C38.2176 31.4562 38.2235 31.4618 38.2302 31.4668L38.3595 31.5596C38.3841 31.5765 38.4076 31.595 38.4297 31.6151L38.5703 31.7114C39.2247 32.1803 40.1317 32.055 40.6344 31.426C40.935 31.0462 41.0323 30.544 40.8952 30.0794C40.8118 29.7915 40.6415 29.5366 40.4078 29.3491ZM12.316 30.2723C12.9256 29.7369 12.9859 28.8088 12.4509 28.199L12.4256 28.1702C12.1695 27.8768 11.8066 27.6981 11.4179 27.674H11.3202C10.9641 27.6734 10.6201 27.8032 10.3531 28.0388L7.99652 30.1023C7.38694 30.6377 7.32658 31.5657 7.86159 32.1755C8.38603 32.7995 9.31705 32.8801 9.94106 32.3556L9.96023 32.3392L10.1387 32.1824L11.9323 30.6081L12.316 30.2723ZM17.0143 30.1992C17.5491 30.8084 17.4894 31.7355 16.8808 32.271L14.5011 34.3698L13.1235 35.5786C12.5141 36.1131 11.5869 36.0533 11.051 35.445L10.9688 35.3509C10.4355 34.7416 10.4948 33.8159 11.1017 33.2797L12.8938 31.7068L14.8616 29.9793C15.1286 29.7437 15.4726 29.6139 15.8287 29.6145H15.9264C16.3142 29.6377 16.6768 29.8147 16.9335 30.1064L17.0143 30.1992ZM21.1904 36.3065C21.4579 36.0714 21.802 35.942 22.1581 35.9425C22.5818 35.9419 22.9851 36.1244 23.2644 36.443C23.7988 37.0528 23.7378 37.9804 23.128 38.5148L21.1875 40.2184C20.5777 40.7534 19.6496 40.6929 19.1145 40.0831C18.5795 39.4733 18.6401 38.5452 19.2499 38.0101L21.1904 36.3065ZM20.1426 33.2957L20.1636 33.3196C20.4217 33.6119 20.5521 33.9954 20.5255 34.3844C20.5029 34.7757 20.3238 35.1414 20.0287 35.3993L16.7866 38.2449C16.4946 38.5035 16.1109 38.6339 15.7218 38.6069C15.3385 38.5794 14.9805 38.405 14.7226 38.12C14.1701 37.5093 14.2171 36.5662 14.8278 36.0135L15.4604 35.4611L17.8415 33.371L18.0721 33.1686C18.3391 32.9329 18.683 32.8032 19.0392 32.8038H19.1369C19.5242 32.8273 19.8862 33.0043 20.1426 33.2957Z" clip-rule="evenodd"/><path fill="#fff" fill-rule="evenodd" d="M40.0026 13.7083L43.7185 11.2769L51.5134 24.5437L48.1666 26.9865L40.0026 13.7083ZM0 25.9431L8.99854 11.4226L12.816 13.718L3.45728 27.9661L0 25.9431Z" clip-rule="evenodd" opacity=".6"/></svg>