<svg xmlns="http://www.w3.org/2000/svg" width="50" height="50" fill="none" viewBox="0 0 50 50"><path fill="#fff" d="M0 10.9624L4.10375 3.72537C4.35737 3.27809 4.84339 3 5.37143 3H43.8993C44.4431 3 44.941 3.29484 45.1875 3.76297L49 11L0 10.9624Z" opacity=".6"/><path fill="#fff" d="M0 13V13.1989C0 16.3977 2.76875 19 6.17188 19C8.05674 19 9.7459 18.2009 10.8789 16.9452C12.0119 18.2009 13.7011 19 15.5859 19C17.4708 19 19.16 18.2009 20.293 16.9452C21.426 18.2009 23.1151 19 25 19C26.8849 19 28.574 18.2009 29.707 16.9452C30.84 18.2009 32.5292 19 34.4141 19C36.2989 19 37.9881 18.2009 39.1211 16.9452C40.2541 18.2009 41.9433 19 43.8281 19C47.2313 19 50 16.3977 50 13.1989V13L0 13Z"/><path fill="#fff" d="M6.17197 21.536C6.17197 21.536 6.15084 21.536 6.14028 21.536C5.00936 21.5321 3.92671 21.3217 2.92773 20.9419V46.4816L6.17197 46.3339V21.7762V21.536Z"/><path fill="#fff" d="M35.4287 28.1683C35.2175 28.1683 34.9666 28.1934 34.679 28.2571C33.6616 28.4826 32.5945 29.0956 31.7511 29.9389C30.9077 30.7824 30.2947 31.8495 30.0693 32.8669C29.8826 33.7091 30.0276 34.2374 30.1627 34.3726C30.298 34.5078 30.8263 34.6527 31.6684 34.4661C32.6858 34.2406 33.753 33.6277 34.5963 32.7843C35.4397 31.9408 36.0527 30.8737 36.2781 29.8563C36.4648 29.0141 36.3198 28.4858 36.1847 28.3507C36.0956 28.2616 35.8361 28.1683 35.4287 28.1683V28.1683Z"/><path fill="#fff" d="M45.4355 21.3949C45.4344 21.3951 45.4332 21.3953 45.432 21.3955C44.9112 21.4878 44.3753 21.5361 43.8281 21.5361C42.1487 21.5361 40.526 21.0762 39.1211 20.2307C38.5488 20.5741 37.9392 20.8545 37.3061 21.0658C36.3842 21.3733 35.4093 21.5361 34.414 21.5361C33.4294 21.5361 32.4647 21.3769 31.5517 21.0757C30.9084 20.8647 30.2871 20.5798 29.707 20.2307C28.3021 21.0762 26.6794 21.5361 25 21.5361C23.3206 21.5361 21.6979 21.0762 20.293 20.2307C20.2651 20.2474 20.2367 20.263 20.2088 20.2794C20.1885 20.2911 20.1683 20.303 20.1479 20.3147V22.6076V37.4708H4.14795V46.3339H47.3642V20.8258C46.7523 21.083 46.1066 21.2756 45.4355 21.3949Z"/></svg>