<svg xmlns="http://www.w3.org/2000/svg" width="50" height="50" fill="none" viewBox="0 0 50 50"><path fill="#fff" fill-rule="evenodd" d="M0 4H50V38H0V4ZM19.0243 31C18.9583 30.6331 18.922 30.2556 18.922 29.8691C18.922 26.4372 21.6432 23.6551 25 23.6551C28.3568 23.6551 31.078 26.4372 31.078 29.8691C31.078 30.2555 31.0417 30.6331 30.9757 31H41.5V27.7722H38.4272C38.091 25.5032 37.2172 23.415 35.9436 21.6462L38.1175 19.4236L35.2169 16.4581L33.0429 18.6807C31.3129 17.3786 29.2703 16.4853 27.0509 16.1416V13H22.9489V16.1416C20.7296 16.4853 18.687 17.3786 16.9569 18.6807L14.783 16.4581L11.8825 19.4236L14.0564 21.6462C12.7828 23.415 11.909 25.5032 11.5728 27.7722H8.5V31H19.0243Z" clip-rule="evenodd"/><path fill="#fff" fill-rule="evenodd" d="M19 40H31V44H35.0391C35.5913 44 36.0391 44.4477 36.0391 45C36.0391 45.5523 35.5913 46 35.0391 46H15.313C14.7607 46 14.313 45.5523 14.313 45C14.313 44.4477 14.7607 44 15.313 44H19V40Z" clip-rule="evenodd" opacity=".6"/><path fill="#B2B2B2" fill-rule="evenodd" d="M0 30H50V38H0V30Z" clip-rule="evenodd"/></svg>