<svg width="50" height="50" viewBox="0 0 50 50" fill="none" xmlns="http://www.w3.org/2000/svg">
<path fill-rule="evenodd" clip-rule="evenodd" d="M29.4468 20.3703C30.4074 18.7097 32.2028 17.5925 34.2591 17.5925H43.0991C46.3263 17.5925 48.8744 20.3329 48.64 23.5515L47.2221 43.0259H35.2244L36.477 27.3687C36.7787 23.5973 33.7996 20.3703 30.0162 20.3703H29.4468Z" fill="white"/>
<circle cx="38.8886" cy="8.33339" r="5.55556" fill="white"/>
<path fill-rule="evenodd" clip-rule="evenodd" d="M1.35969 23.5515C1.12534 20.3329 3.67342 17.5925 6.90058 17.5925H15.7406C17.797 17.5925 19.5924 18.7097 20.5529 20.3703H19.9836C16.2002 20.3703 13.221 23.5973 13.5227 27.3687L14.7753 43.0259H2.77766L1.35969 23.5515Z" fill="white"/>
<circle cx="11.1112" cy="8.33339" r="5.55556" fill="white"/>
<path opacity="0.6" d="M20.8077 22.2222C17.5738 22.2222 15.0233 24.9736 15.2681 28.1982L16.6663 46.6177H33.333L34.7312 28.1982C34.976 24.9736 32.4255 22.2222 29.1916 22.2222H20.8077Z" fill="white"/>
<circle opacity="0.6" cx="24.9999" cy="12.963" r="5.55556" fill="white"/>
</svg>
