<svg width="24" height="24" viewBox="0 0 24 24" fill="none" xmlns="http://www.w3.org/2000/svg">
<path d="M18.5179 10.6427C18.5179 10.1277 18.147 9.70636 17.6936 9.70636C17.2403 9.70636 16.8694 10.1277 16.8694 10.6427C16.8694 13.8724 14.5614 16.4469 11.7589 16.4469C8.95648 16.4469 6.64851 13.8724 6.64851 10.6427C6.64851 10.1277 6.27761 9.70636 5.82425 9.70636C5.37092 9.70636 5 10.1277 5 10.6427C5 14.5744 7.59643 17.8043 10.9346 18.2256V21.1278H9.08006C8.62674 21.1278 8.25583 21.549 8.25583 22.0638C8.25583 22.5788 8.62674 23 9.08006 23H14.3965C14.8499 23 15.2208 22.5788 15.2208 22.0638C15.2208 21.549 14.8499 21.1278 14.3965 21.1278H12.5831V18.2256C15.9214 17.8043 18.5179 14.5744 18.5179 10.6427Z" fill="#4C5664"/>
<path d="M11.8823 1.00002H11.6349C9.73914 1.00002 8.1731 2.77873 8.1731 4.93194V10.5958C8.1731 12.749 9.73914 14.5278 11.6349 14.5278H11.8823C13.7781 14.5278 15.3442 12.749 15.3442 10.5958V4.93194C15.3442 2.77873 13.7781 1.00002 11.8823 1.00002Z" fill="#4C5664"/>
</svg>
