<svg width="72" height="76" viewBox="0 0 72 76" fill="none" xmlns="http://www.w3.org/2000/svg">
<mask id="path-1-inside-1_16_10403" fill="white">
<path d="M9 11H63V17C63 18.1046 62.1046 19 61 19H11C9.89543 19 9 18.1046 9 17V11Z"/>
</mask>
<path d="M9 11H63H9ZM64 17C64 18.6569 62.6569 20 61 20H11C9.34315 20 8 18.6569 8 17H10C10 17.5523 10.4477 18 11 18H61C61.5523 18 62 17.5523 62 17H64ZM11 20C9.34315 20 8 18.6569 8 17V11H10V17C10 17.5523 10.4477 18 11 18V20ZM64 11V17C64 18.6569 62.6569 20 61 20V18C61.5523 18 62 17.5523 62 17V11H64Z" fill="#CC3D00" mask="url(#path-1-inside-1_16_10403)"/>
<rect x="9.5" y="23.5" width="53" height="29" rx="1.5" fill="white"/>
<rect x="9.5" y="23.5" width="53" height="29" rx="1.5" stroke="#CC3D00" stroke-linecap="square" stroke-linejoin="round"/>
<mask id="path-4-inside-2_16_10403" fill="white">
<path d="M9 65H63V59C63 57.8954 62.1046 57 61 57H11C9.89543 57 9 57.8954 9 59V65Z"/>
</mask>
<path d="M9 65H63H9ZM64 59C64 57.3431 62.6569 56 61 56H11C9.34315 56 8 57.3431 8 59H10C10 58.4477 10.4477 58 11 58H61C61.5523 58 62 58.4477 62 59H64ZM11 56C9.34315 56 8 57.3431 8 59V65H10V59C10 58.4477 10.4477 58 11 58V56ZM64 65V59C64 57.3431 62.6569 56 61 56V58C61.5523 58 62 58.4477 62 59V65H64Z" fill="#CC3D00" mask="url(#path-4-inside-2_16_10403)"/>
</svg>
