<svg xmlns="http://www.w3.org/2000/svg" width="15" height="15" fill="none"><path fill="#4C5664" fill-opacity=".5" fill-rule="evenodd" d="M8.596 5.475 8.08 4.269 7.536 3l-.544 1.27-.517 1.205-1.206.517L4 6.536l1.27.544 1.205.516.517 1.206.544 1.27.543-1.27.517-1.206 1.206-.516 1.27-.544-1.27-.544zm-.064 1.06-.33-.141-.367-.158-.158-.367-.141-.33-.142.33-.158.367-.367.158-.33.142.33.141.367.158.158.367.142.33.141-.33.158-.367.367-.158z" clip-rule="evenodd"/><path fill="#4C5664" fill-rule="evenodd" d="m8.6 11 .275.22L11 12.92V11h1a1 1 0 0 0 1-1V3a1 1 0 0 0-1-1H3a1 1 0 0 0-1 1v7a1 1 0 0 0 1 1h5.6m3.4 2v-1a2 2 0 0 0 2-2V3a2 2 0 0 0-2-2H3a2 2 0 0 0-2 2v7a2 2 0 0 0 2 2h5.25l2.938 2.35a.5.5 0 0 0 .812-.39z" clip-rule="evenodd"/></svg>