<svg xmlns="http://www.w3.org/2000/svg" width="16" height="17" fill="none"><path fill="#000" fill-opacity=".25" fill-rule="evenodd" d="M1.5 1A1.5 1.5 0 0 0 0 2.5v8A1.5 1.5 0 0 0 1.5 12H2V4.5A1.5 1.5 0 0 1 3.5 3H13v-.5A1.5 1.5 0 0 0 11.5 1z" clip-rule="evenodd"/><mask id="a" fill="#fff"><path fill-rule="evenodd" d="M3.5 3A1.5 1.5 0 0 0 2 4.5v8A1.5 1.5 0 0 0 3.5 14H10l2.146 2.146a.5.5 0 0 0 .854-.353V14h.5a1.5 1.5 0 0 0 1.5-1.5v-8A1.5 1.5 0 0 0 13.5 3z" clip-rule="evenodd"/></mask><path fill="#000" d="m10 14 .707-.707-.293-.293H10zm3 0v-1h-1v1zM3 4.5a.5.5 0 0 1 .5-.5V2A2.5 2.5 0 0 0 1 4.5zm0 8v-8H1v8zm.5.5a.5.5 0 0 1-.5-.5H1A2.5 2.5 0 0 0 3.5 15zm6.5 0H3.5v2H10zm2.854 2.44-2.147-2.147-1.414 1.414 2.146 2.147zm-.854.353a.5.5 0 0 1 .854-.354l-1.415 1.415c.945.945 2.561.275 2.561-1.061zM12 14v1.793h2V14zm1.5-1H13v2h.5zm.5-.5a.5.5 0 0 1-.5.5v2a2.5 2.5 0 0 0 2.5-2.5zm0-8v8h2v-8zm-.5-.5a.5.5 0 0 1 .5.5h2A2.5 2.5 0 0 0 13.5 2zm-10 0h10V2h-10z" mask="url(#a)"/><path stroke="#000" stroke-opacity=".75" d="m8.536 6.27.6 1.402.08.184.183.078 1.403.602-1.403.6-.184.08-.078.183-.601 1.403-.602-1.403-.078-.184-.184-.078-1.403-.601 1.403-.602.184-.078.078-.184z"/></svg>