<svg xmlns="http://www.w3.org/2000/svg" width="16" height="16" fill="none"><path stroke="#000" stroke-linecap="round" stroke-linejoin="round" stroke-opacity=".25" d="M14.5 8.5v3a2 2 0 0 1-2 2h-10a2 2 0 0 1-2-2v-3"/><path stroke="#000" stroke-linecap="round" stroke-linejoin="round" d="M12.5 2.5h-10a2 2 0 0 0-2 2v6a2 2 0 0 0 2 2h10a2 2 0 0 0 2-2v-6a2 2 0 0 0-2-2"/><path stroke="#000" stroke-linecap="round" stroke-linejoin="round" d="M8.5 5.5v2m0 2v-2m3-2L9.793 7.207a1 1 0 0 1-.707.293H8.5M8.5 9.5v-4m3 4-2-2M3.5 8V7a1.5 1.5 0 1 1 3 0v1a1.5 1.5 0 1 1-3 0"/></svg>