<svg xmlns="http://www.w3.org/2000/svg" width="15" height="15" fill="none"><path fill="#4C5664" d="M4.724 2.053a.5.5 0 0 1 .223.67l-1 2a.5.5 0 0 1-.8.13l-1-1a.5.5 0 1 1 .707-.707l.509.51.69-1.38a.5.5 0 0 1 .67-.223"/><path fill="#4C5664" fill-rule="evenodd" d="M0 2a2 2 0 0 1 2-2h3a2 2 0 0 1 2 2v3a2 2 0 0 1-2 2H2a2 2 0 0 1-2-2zm2-1a1 1 0 0 0-1 1v3a1 1 0 0 0 1 1h3a1 1 0 0 0 1-1V2a1 1 0 0 0-1-1z" clip-rule="evenodd"/><path fill="#4C5664" d="M8.5 2a.5.5 0 0 0 0 1h6a.5.5 0 0 0 0-1zM8 12.5a.5.5 0 0 1 .5-.5h4a.5.5 0 0 1 0 1h-4a.5.5 0 0 1-.5-.5"/><path fill="#4C5664" fill-rule="evenodd" d="M2 8a2 2 0 0 0-2 2v3a2 2 0 0 0 2 2h3a2 2 0 0 0 2-2v-3a2 2 0 0 0-2-2zm-1 2a1 1 0 0 1 1-1h3a1 1 0 0 1 1 1v3a1 1 0 0 1-1 1H2a1 1 0 0 1-1-1z" clip-rule="evenodd"/><path fill="#4C5664" d="M8 4.5a.5.5 0 0 1 .5-.5h4a.5.5 0 0 1 0 1h-4a.5.5 0 0 1-.5-.5M8.5 10a.5.5 0 0 0 0 1h6a.5.5 0 0 0 0-1z"/></svg>