<svg xmlns="http://www.w3.org/2000/svg" width="15" height="15" fill="none"><path fill="#4C5664" d="M0 4.5A2.5 2.5 0 0 1 2.5 2h12a.5.5 0 0 1 0 1h-12A1.5 1.5 0 0 0 1 4.5v6A1.5 1.5 0 0 0 2.5 12h7a.5.5 0 0 1 0 1h-7A2.5 2.5 0 0 1 0 10.5z"/><path fill="#4C5664" d="M12.146 7.146a.5.5 0 0 1 .708 0l.646.647.646-.647a.5.5 0 0 1 .708.708l-1 1a.5.5 0 0 1-.708 0l-1-1a.5.5 0 0 1 0-.708"/><path fill="#4C5664" fill-rule="evenodd" d="M5.5 10.079c.495 0 .957-.14 1.35-.381l.726.726a.6.6 0 0 0 .848-.848l-.726-.727A2.579 2.579 0 1 0 5.5 10.08m0-1a1.579 1.579 0 1 0 0-3.158 1.579 1.579 0 0 0 0 3.158" clip-rule="evenodd"/></svg>