<svg xmlns="http://www.w3.org/2000/svg" width="15" height="15" fill="none"><path fill="#4C5664" fill-opacity=".5" d="M5.5 5a.5.5 0 0 1 .5.5V9h3V5.5a.5.5 0 0 1 1 0V9h3.5a.5.5 0 0 1 0 1H10v3.5a.5.5 0 0 1-1 0V10H6v3.5a.5.5 0 0 1-1 0V10H1.5a.5.5 0 0 1 0-1H5V5.5a.5.5 0 0 1 .5-.5"/><path fill="#4C5664" fill-rule="evenodd" d="M5 .5a.5.5 0 0 0-1 0V1h-.5A2.5 2.5 0 0 0 1 3.5v8A2.5 2.5 0 0 0 3.5 14h8a2.5 2.5 0 0 0 2.5-2.5v-8A2.5 2.5 0 0 0 11.5 1H11V.5a.5.5 0 0 0-1 0V1H5zM4 2v1.5a.5.5 0 0 0 1 0V2h5v1.5a.5.5 0 0 0 1 0V2h.5A1.5 1.5 0 0 1 13 3.5V5H2V3.5A1.5 1.5 0 0 1 3.5 2zm9 4H2v5.5A1.5 1.5 0 0 0 3.5 13h8a1.5 1.5 0 0 0 1.5-1.5z" clip-rule="evenodd"/></svg>