<svg xmlns="http://www.w3.org/2000/svg" width="15" height="15" fill="none"><path fill="#4C5664" fill-opacity=".5" d="M.5 8a.5.5 0 0 1 .5.5v3A1.5 1.5 0 0 0 2.5 13h10a1.5 1.5 0 0 0 1.5-1.5v-3a.5.5 0 0 1 1 0v3a2.5 2.5 0 0 1-2.5 2.5h-10A2.5 2.5 0 0 1 0 11.5v-3A.5.5 0 0 1 .5 8"/><path fill="#4C5664" d="M7.5 10a.5.5 0 0 1-.5-.5V8H5.5a.5.5 0 0 1 0-1H7V5.5a.5.5 0 0 1 1 0V7h1.5a.5.5 0 0 1 0 1H8v1.5a.5.5 0 0 1-.5.5"/><path fill="#4C5664" fill-rule="evenodd" d="M2.5 2A2.5 2.5 0 0 0 0 4.5v6A2.5 2.5 0 0 0 2.5 13h10a2.5 2.5 0 0 0 2.5-2.5v-6A2.5 2.5 0 0 0 12.5 2zM1 4.5A1.5 1.5 0 0 1 2.5 3h10A1.5 1.5 0 0 1 14 4.5v6a1.5 1.5 0 0 1-1.5 1.5h-10A1.5 1.5 0 0 1 1 10.5z" clip-rule="evenodd"/></svg>