<svg xmlns="http://www.w3.org/2000/svg" width="15" height="15" fill="none"><path fill="#4C5664" fill-opacity=".75" d="m3.5 6.793-.646-.647a.5.5 0 1 0-.708.708l.647.646-.647.646a.5.5 0 1 0 .708.708l.646-.647.646.647a.5.5 0 1 0 .708-.708L4.207 7.5l.647-.646a.5.5 0 1 0-.708-.708z"/><path fill="#4C5664" fill-opacity=".75" fill-rule="evenodd" d="M2.5 4A2.5 2.5 0 0 0 0 6.5v2A2.5 2.5 0 0 0 2.5 11h2A2.5 2.5 0 0 0 7 8.5v-2A2.5 2.5 0 0 0 4.5 4zM1 6.5A1.5 1.5 0 0 1 2.5 5h2A1.5 1.5 0 0 1 6 6.5v2A1.5 1.5 0 0 1 4.5 10h-2A1.5 1.5 0 0 1 1 8.5z" clip-rule="evenodd"/><path fill="#4C5664" d="M12.947 6.724a.5.5 0 1 0-.894-.448l-.69 1.38-.51-.51a.5.5 0 0 0-.707.708l1 1a.5.5 0 0 0 .801-.13z"/><path fill="#4C5664" fill-rule="evenodd" d="M10.5 4A2.5 2.5 0 0 0 8 6.5v2a2.5 2.5 0 0 0 2.5 2.5h2A2.5 2.5 0 0 0 15 8.5v-2A2.5 2.5 0 0 0 12.5 4zM9 6.5A1.5 1.5 0 0 1 10.5 5h2A1.5 1.5 0 0 1 14 6.5v2a1.5 1.5 0 0 1-1.5 1.5h-2A1.5 1.5 0 0 1 9 8.5z" clip-rule="evenodd"/></svg>