<svg xmlns="http://www.w3.org/2000/svg" width="15" height="15" fill="none"><path fill="#4C5664" d="M10.5 4A1.5 1.5 0 0 1 12 5.5V7h1.001v1H12v1.5a1.5 1.5 0 0 1-1.5 1.5H10a.5.5 0 0 1 0-1h.5a.5.5 0 0 0 .5-.5v-4a.5.5 0 0 0-.5-.5H10a.5.5 0 0 1 0-1zM3 5.5A1.5 1.5 0 0 1 4.5 4H5a.5.5 0 0 1 0 1h-.5a.5.5 0 0 0-.5.5v4a.5.5 0 0 0 .5.5H5a.5.5 0 0 1 0 1h-.5A1.5 1.5 0 0 1 3 9.5V8H2V7h1z"/><path fill="#4C5664" d="M5 7h1.001v1H5zM7 7v1h1.001V7zM9 7h1.001v1H9z"/><path fill="#4C5664" fill-rule="evenodd" d="M1.5 1A1.5 1.5 0 0 0 0 2.5v10A1.5 1.5 0 0 0 1.5 14h12a1.5 1.5 0 0 0 1.5-1.5v-10A1.5 1.5 0 0 0 13.5 1zM1 2.5a.5.5 0 0 1 .5-.5h12a.5.5 0 0 1 .5.5v10a.5.5 0 0 1-.5.5h-12a.5.5 0 0 1-.5-.5z" clip-rule="evenodd"/></svg>