<svg xmlns="http://www.w3.org/2000/svg" width="15" height="15" fill="none"><path fill="#4C5664" fill-rule="evenodd" d="M10.5 3a1.5 1.5 0 0 0 0 3h2.415A1.5 1.5 0 0 1 11.5 7a.5.5 0 0 0 0 1A2.5 2.5 0 0 0 14 5.5v-1A1.5 1.5 0 0 0 12.5 3zM13 4.5V5h-2.5a.5.5 0 0 1 0-1h2a.5.5 0 0 1 .5.5" clip-rule="evenodd"/><path fill="#4C5664" d="M3.763 3.075A.5.5 0 0 1 4 3.5V7h1.5a.5.5 0 1 1 0 1h-4a.5.5 0 0 1 0-1H3V4.309l-1.276.638a.5.5 0 1 1-.448-.894l2-1a.5.5 0 0 1 .487.022"/><path fill="#4C5664" fill-rule="evenodd" d="M5.05 11H1.5a.5.5 0 0 0 0 1h3.55a2.5 2.5 0 0 0 4.9 0h3.55a.5.5 0 0 0 0-1H9.95a2.5 2.5 0 0 0-4.9 0m2.45-1a1.5 1.5 0 1 1 0 3 1.5 1.5 0 0 1 0-3" clip-rule="evenodd"/></svg>