<svg xmlns="http://www.w3.org/2000/svg" width="15" height="15" fill="none"><path fill="#4C5664" fill-opacity=".5" d="M12 6.5a.5.5 0 0 1 .5-.5h2a.5.5 0 0 1 0 1H14v7h.5a.5.5 0 0 1 0 1h-2a.5.5 0 0 1 0-1h.5V7h-.5a.5.5 0 0 1-.5-.5"/><path fill="#4C5664" d="M2.5 2A2.5 2.5 0 0 0 0 4.5v6A2.5 2.5 0 0 0 2.5 13h7a.5.5 0 0 0 0-1h-7A1.5 1.5 0 0 1 1 10.5v-6A1.5 1.5 0 0 1 2.5 3h12a.5.5 0 0 0 0-1z"/><path fill="#4C5664" d="M4 5.95a1.05 1.05 0 1 0 0 2.1h.01a1.05 1.05 0 1 0 0-2.1zM5.95 7c0-.58.47-1.05 1.05-1.05h.01a1.05 1.05 0 1 1 0 2.1H7c-.58 0-1.05-.47-1.05-1.05M10 5.95a1.05 1.05 0 1 0 0 2.1h.01a1.05 1.05 0 1 0 0-2.1z"/></svg>