<svg xmlns="http://www.w3.org/2000/svg" width="16" height="16" fill="none"><path stroke="#000" stroke-linecap="round" stroke-linejoin="round" d="M8.5 2.5h6M8.5 10.5h6M8.5 4.5h4M8.5 12.5h4"/><circle cx="3.5" cy="11.5" r="3" stroke="#000" stroke-linejoin="round" transform="rotate(-90 3.5 11.5)"/><path fill="#000" fill-opacity=".1" fill-rule="evenodd" d="M6.5 3.5a3 3 0 1 0-6 0 3 3 0 0 0 6 0M5 3.5a1.5 1.5 0 1 0-3 0 1.5 1.5 0 0 0 3 0" clip-rule="evenodd"/><circle cx="3.5" cy="3.5" r="3" stroke="#000" stroke-linejoin="round" transform="rotate(-90 3.5 3.5)"/><circle cx="3.5" cy="3.5" r="1" stroke="#000" stroke-linejoin="round" transform="rotate(-90 3.5 3.5)"/></svg>