<svg xmlns="http://www.w3.org/2000/svg" width="15" height="15" fill="none"><path fill="#4C5664" fill-opacity=".5" fill-rule="evenodd" d="M6.5 3.5a3 3 0 1 0-6 0 3 3 0 0 0 6 0M5 3.5a1.5 1.5 0 1 0-3 0 1.5 1.5 0 0 0 3 0" clip-rule="evenodd"/><path fill="#4C5664" fill-rule="evenodd" d="M2 3.5a1.5 1.5 0 1 0 3 0 1.5 1.5 0 0 0-3 0m1.5.5a.5.5 0 1 1 0-1 .5.5 0 0 1 0 1" clip-rule="evenodd"/><path fill="#4C5664" fill-rule="evenodd" d="M3.5 7a3.5 3.5 0 1 1 0-7 3.5 3.5 0 0 1 0 7M1 3.5a2.5 2.5 0 1 0 5 0 2.5 2.5 0 0 0-5 0" clip-rule="evenodd"/><path fill="#4C5664" d="M8 2.5a.5.5 0 0 1 .5-.5h6a.5.5 0 0 1 0 1h-6a.5.5 0 0 1-.5-.5M8 10.5a.5.5 0 0 1 .5-.5h6a.5.5 0 0 1 0 1h-6a.5.5 0 0 1-.5-.5M8.5 4a.5.5 0 0 0 0 1h4a.5.5 0 0 0 0-1zM8 12.5a.5.5 0 0 1 .5-.5h4a.5.5 0 0 1 0 1h-4a.5.5 0 0 1-.5-.5"/><path fill="#4C5664" fill-rule="evenodd" d="M0 11.5a3.5 3.5 0 1 0 7 0 3.5 3.5 0 0 0-7 0M3.5 14a2.5 2.5 0 1 1 0-5 2.5 2.5 0 0 1 0 5" clip-rule="evenodd"/></svg>