<svg xmlns="http://www.w3.org/2000/svg" width="15" height="15" fill="none"><path fill="#4C5664" fill-rule="evenodd" d="M7.297.043a.5.5 0 0 1 .67.278l.497 1.243A.5.5 0 0 1 8 2.25v8.967l1.007.604a.5.5 0 0 1-.514.858l-.993-.596-4.743 2.846a.5.5 0 0 1-.727-.6l1.883-5.178L.171 5.876A.5.5 0 0 1 .5 5h4.661L7.035.315m-1.07 5.37L7 3.097v8.12l-3.548 2.13L4.97 9.17a.5.5 0 0 0-.14-.547L1.83 6H5.5a.5.5 0 0 0 .464-.314" clip-rule="evenodd"/><path fill="#4C5664" d="M7.037.312a.5.5 0 0 1 .26-.269zM9.464 4.064a.5.5 0 0 0-.928.372l.5 1.25A.5.5 0 0 0 9.5 6h1.25a.5.5 0 1 0 0-1h-.912zM13.25 5a.5.5 0 0 0-.075.995l-.004.004a.5.5 0 1 0 .658.752l1-.875a.5.5 0 0 0-.33-.876zM11.83 8.501a.5.5 0 1 0-.66-.752l-1 .875a.5.5 0 0 0-.14.547l.5 1.375a.5.5 0 1 0 .94-.342l-.383-1.053zM12.47 12.954a.5.5 0 0 0-.94.342l.018.05-.04-.025a.5.5 0 0 0-.515.858l1.25.75a.5.5 0 0 0 .727-.6z"/></svg>