<svg xmlns="http://www.w3.org/2000/svg" width="15" height="15" fill="none"><path fill="#4C5664" fill-opacity=".5" d="M3 4.5a.5.5 0 0 1 .5-.5h6a.5.5 0 0 1 0 1h-6a.5.5 0 0 1-.5-.5"/><path fill="#4C5664" d="M4.691 6.038A.5.5 0 0 1 5 6.5V10h.5a.5.5 0 0 1 0 1h-2a.5.5 0 0 1 0-1H4V7.707l-.146.147a.5.5 0 1 1-.708-.708l1-1a.5.5 0 0 1 .545-.108M7.146 8.854a.5.5 0 0 1 0-.708l2-2a.5.5 0 0 1 .708 0l2 2a.5.5 0 0 1-.708.708L10 7.707V10.5a.5.5 0 0 1-1 0V7.707L7.854 8.854a.5.5 0 0 1-.708 0"/><path fill="#4C5664" fill-rule="evenodd" d="M0 3.5A2.5 2.5 0 0 1 2.5 1h10A2.5 2.5 0 0 1 15 3.5v8a2.5 2.5 0 0 1-2.5 2.5h-10A2.5 2.5 0 0 1 0 11.5zM2.5 2A1.5 1.5 0 0 0 1 3.5v8A1.5 1.5 0 0 0 2.5 13h10a1.5 1.5 0 0 0 1.5-1.5v-8A1.5 1.5 0 0 0 12.5 2z" clip-rule="evenodd"/></svg>