<svg xmlns="http://www.w3.org/2000/svg" width="16" height="16" fill="none"><path stroke="#000" stroke-linecap="round" stroke-linejoin="round" d="M10.5 8.5h-6a3 3 0 0 0 0 6h6a3 3 0 1 0 0-6"/><path fill="#000" fill-opacity=".15" fill-rule="evenodd" d="M1.5 3.5a3 3 0 0 1 3-3h6a3 3 0 0 0 0 6h-6a3 3 0 0 1-3-3" clip-rule="evenodd"/><path stroke="#000" stroke-linecap="round" stroke-linejoin="round" d="M10.5.5h-6a3 3 0 0 0 0 6h6a3 3 0 1 0 0-6"/><circle cx="10.5" cy="3.5" r="3" stroke="#000"/><circle cx="4.5" cy="11.5" r="3" stroke="#000"/></svg>