<svg xmlns="http://www.w3.org/2000/svg" width="15" height="15" fill="none"><path fill="#4C5664" fill-opacity=".5" d="M1.5 3.5a3 3 0 0 1 3-3h6a3 3 0 0 0 0 6h-6a3 3 0 0 1-3-3"/><path fill="#4C5664" fill-rule="evenodd" d="M4.5 0a3.5 3.5 0 1 0 0 7h6a3.5 3.5 0 1 0 0-7zM13 3.5a2.5 2.5 0 1 1-5 0 2.5 2.5 0 0 1 5 0m-6 0c0-.98.402-1.865 1.05-2.5H4.5a2.5 2.5 0 0 0 0 5h3.55A3.5 3.5 0 0 1 7 3.5M4.5 8a3.5 3.5 0 1 0 0 7h6a3.5 3.5 0 1 0 0-7zm2.45 1h3.55a2.5 2.5 0 0 1 0 5H6.95A3.5 3.5 0 0 0 8 11.5 3.5 3.5 0 0 0 6.95 9M2 11.5a2.5 2.5 0 1 1 5 0 2.5 2.5 0 0 1-5 0" clip-rule="evenodd"/></svg>