<svg xmlns="http://www.w3.org/2000/svg" width="14" height="14" fill="none" viewBox="0 0 14 14"><path fill="#858282" d="M3.61953 2.99992V0.999919C3.61953 0.823108 3.6912 0.653538 3.81877 0.528514C3.94635 0.40349 4.11938 0.333252 4.2998 0.333252H12.4631C12.6435 0.333252 12.8165 0.40349 12.9441 0.528514C13.0717 0.653538 13.1433 0.823108 13.1433 0.999919V10.3333C13.1433 10.5101 13.0717 10.6796 12.9441 10.8047C12.8165 10.9297 12.6435 10.9999 12.4631 10.9999H10.4222V12.9999C10.4222 13.3679 10.1161 13.6666 9.73721 13.6666H1.58347C1.49376 13.6671 1.40483 13.6503 1.32179 13.617C1.23874 13.5837 1.16322 13.5347 1.09957 13.4728C1.03591 13.4108 0.985371 13.3372 0.950855 13.256C0.916339 13.1749 0.898526 13.0878 0.898438 12.9999L0.900478 3.66659C0.900478 3.29859 1.2066 2.99992 1.58551 2.99992H3.61953ZM2.26102 4.33325L2.25898 12.3333H9.0617V4.33325H2.26102ZM4.98007 2.99992H10.4222V9.66659H11.7828V1.66659H4.98007V2.99992Z"/></svg>