<svg width="12" height="15" viewBox="0 0 12 15" fill="none" xmlns="http://www.w3.org/2000/svg">
<path d="M9.74505 3.97899L10.7137 3.01033L11.6564 3.95299L10.6877 4.92166C11.6449 6.11977 12.107 7.63891 11.9791 9.16708C11.8512 10.6953 11.143 12.1165 10 13.1388C8.85704 14.1612 7.36596 14.7071 5.83304 14.6644C4.30012 14.6217 2.84172 13.9937 1.75736 12.9093C0.673004 11.825 0.0449996 10.3666 0.00232589 8.83367C-0.0403479 7.30075 0.505548 5.80967 1.5279 4.66667C2.55025 3.52366 3.97145 2.81549 5.49963 2.6876C7.0278 2.55972 8.54694 3.02181 9.74505 3.97899ZM5.99971 13.3337C6.61255 13.3337 7.21938 13.213 7.78557 12.9784C8.35176 12.7439 8.86621 12.4002 9.29955 11.9668C9.73289 11.5335 10.0766 11.019 10.3112 10.4528C10.5457 9.88666 10.6664 9.27983 10.6664 8.66699C10.6664 8.05416 10.5457 7.44732 10.3112 6.88114C10.0766 6.31495 9.73289 5.8005 9.29955 5.36716C8.86621 4.93382 8.35176 4.59008 7.78557 4.35555C7.21938 4.12103 6.61255 4.00033 5.99971 4.00033C4.76204 4.00033 3.57505 4.49199 2.69988 5.36716C1.82471 6.24233 1.33305 7.42932 1.33305 8.66699C1.33305 9.90467 1.82471 11.0917 2.69988 11.9668C3.57505 12.842 4.76204 13.3337 5.99971 13.3337ZM5.33305 5.33366H6.66638V9.33366H5.33305V5.33366ZM3.33305 0.666992H8.66638V2.00033H3.33305V0.666992Z" fill="#6B6B6B"/>
</svg>
