<svg width="16" height="8" viewBox="0 0 16 8" fill="none" xmlns="http://www.w3.org/2000/svg">
<path fill-rule="evenodd" clip-rule="evenodd" d="M15 1H1V7H15V1ZM0 0V8H16V0H0Z" fill="#6B6B6B"/>
<path d="M4.53516 5.30127H5.28711L5.46094 4.68213H6.38086L6.55469 5.30127H7.30664L6.35938 2.48291H5.48242L4.53516 5.30127ZM5.90234 3.104H5.93945L6.23633 4.1665H5.60547L5.90234 3.104Z" fill="#6B6B6B"/>
<path d="M7.7793 5.30127H8.49609V4.4751H8.99219C9.62305 4.4751 10.0293 4.08838 10.0293 3.48486V3.48096C10.0293 2.87744 9.62305 2.48291 8.99219 2.48291H7.7793V5.30127ZM8.82031 3.03174C9.125 3.03174 9.30469 3.18799 9.30469 3.48096V3.48486C9.30469 3.77783 9.125 3.93604 8.82031 3.93604H8.49609V3.03174H8.82031Z" fill="#6B6B6B"/>
<path d="M10.5566 5.30127H11.2734V2.48291H10.5566V5.30127Z" fill="#6B6B6B"/>
</svg>
