<svg width="12" height="15" viewBox="0 0 12 15" fill="none" xmlns="http://www.w3.org/2000/svg">
<path d="M2.25467 3.97899C3.31716 3.1277 4.63854 2.66482 6 2.66699C7.41667 2.66699 8.71867 3.15766 9.74534 3.97899L10.714 3.01033L11.6567 3.95299L10.688 4.92166C11.3931 5.80442 11.8347 6.86834 11.9619 7.99098C12.089 9.11362 11.8967 10.2494 11.4069 11.2675C10.9171 12.2856 10.1497 13.1448 9.19321 13.746C8.23668 14.3473 7.12982 14.6663 6 14.6663C4.87018 14.6663 3.76332 14.3473 2.8068 13.746C1.85027 13.1448 1.08295 12.2856 0.593151 11.2675C0.103347 10.2494 -0.0890385 9.11362 0.0381335 7.99098C0.165306 6.86834 0.606867 5.80442 1.312 4.92166L0.343337 3.95366L1.286 3.01099L2.25467 3.97966V3.97899ZM6 13.3337C6.61284 13.3337 7.21967 13.213 7.78586 12.9784C8.35205 12.7439 8.86649 12.4002 9.29983 11.9668C9.73317 11.5335 10.0769 11.019 10.3114 10.4528C10.546 9.88666 10.6667 9.27983 10.6667 8.66699C10.6667 8.05416 10.546 7.44732 10.3114 6.88114C10.0769 6.31495 9.73317 5.8005 9.29983 5.36716C8.86649 4.93382 8.35205 4.59008 7.78586 4.35555C7.21967 4.12103 6.61284 4.00033 6 4.00033C4.76233 4.00033 3.57534 4.49199 2.70017 5.36716C1.825 6.24233 1.33334 7.42931 1.33334 8.66699C1.33334 9.90467 1.825 11.0917 2.70017 11.9668C3.57534 12.842 4.76233 13.3337 6 13.3337ZM6.66667 8.00033H8.66667L5.33334 12.3337V9.33366H3.33334L6.66667 4.99699V8.00033ZM3.33334 0.666992H8.66667V2.00033H3.33334V0.666992Z" fill="#6B6B6B"/>
</svg>
