<svg width="72" height="76" viewBox="0 0 72 76" fill="none" xmlns="http://www.w3.org/2000/svg">
<rect x="14" y="26" width="22" height="8" rx="1" fill="#CDD5DF"/>
<path d="M55.5 39.5H49.5V43.5M55.5 47.5H49.5V43.5M49.5 43.5H53.5" stroke="#CC3D00" stroke-linecap="round" stroke-linejoin="round"/>
<path d="M33.5 39.5V47.5H38.5" stroke="#CC3D00" stroke-linecap="round" stroke-linejoin="round"/>
<path d="M40.5 39.5V44.5C40.5 46.1569 41.8431 47.5 43.5 47.5V47.5C45.1569 47.5 46.5 46.1569 46.5 44.5V39.5" stroke="#CC3D00" stroke-linecap="round" stroke-linejoin="round"/>
<path d="M23.5 47.5L25 44.5M31.5 47.5L30 44.5M25 44.5L27.5 39.5L30 44.5M25 44.5H30" stroke="#CC3D00" stroke-linecap="round" stroke-linejoin="round"/>
<path d="M23.5 39.5L19.5 47.5L15.5 39.5" stroke="#CC3D00" stroke-linecap="round" stroke-linejoin="round"/>
</svg>
