<svg width="246" height="247" viewBox="0 0 246 247" fill="none" xmlns="http://www.w3.org/2000/svg">
    <g clip-path="url(#9fqcalscna)">
        <path d="M87.463 188.312c1.476-1.476 1.356-1.588 2.832-3.064 1.476-1.477 1.394-1.551 2.863-3.028 1.468-1.476 2.262-3.304 2.262-5.237 0-1.933-.591-3.964-2.06-5.432-1.469-1.469-3.507-2.248-5.432-2.248-1.926 0-3.882.862-5.35 2.338 1.498-1.499 1.408-1.596 2.907-3.095 1.499-1.498 1.588-1.416 3.087-2.915 1.469-1.468 2.323-3.364 2.323-5.297 0-1.933-.734-3.941-2.21-5.41-1.477-1.468-3.485-2.3-5.41-2.3-1.926 0-3.95.824-5.418 2.293-1.498 1.498-1.326 1.671-2.832 3.177-1.506 1.506-1.476 1.521-2.982 3.027 1.468-1.469 2.285-3.499 2.285-5.425 0-1.926-.929-3.844-2.398-5.312-1.468-1.469-3.386-2.181-5.312-2.181a7.44 7.44 0 0 0-5.297 2.196c-1.799 1.798-1.814 1.79-3.612 3.589-1.798 1.798-1.7 1.903-3.499 3.701-1.798 1.798-1.926 1.678-3.724 3.477-1.798 1.798-1.813 1.79-3.611 3.589-1.799 1.798-1.821 1.783-3.627 3.581-1.806 1.799-1.708 1.903-3.507 3.702-1.798 1.798-1.146 3.162-3.679 3.439-1.715.187.6-1.529 1.094-3.185a8.719 8.719 0 0 0-.697-6.586c-1.049-1.925-2.922-3.349-5.192-4.016-2.263-.667-4.563-.397-6.481.645-1.918 1.041-3.477 2.802-4.151 5.065-.75 2.525-.87 2.487-1.619 5.012-.749 2.525-.57 2.578-1.318 5.103-.75 2.525-.675 2.548-1.424 5.073-.75 2.525-.974 2.457-1.716 4.99-.742 2.532-.794 2.51-1.543 5.035-.75 2.525-.42 2.622-1.17 5.155-.749 2.533-.824 2.51-1.573 5.035-.75 2.525-.802 2.518-1.55 5.043-.083.255-.248.487-.323.742-.023.067.037.082.015.149-.195.652-.315 1.319-.442 1.979-.33 1.626-.555 3.266-.622 4.915-.067 1.648-.105 3.319.105 4.968.21 1.648.494 3.296.966 4.885.473 1.588 1.132 3.124 1.859 4.623.727 1.499 1.64 2.862 2.615 4.226a29.646 29.646 0 0 0 3.207 3.791 29.95 29.95 0 0 0 4.038 3.365c1.416.989 3.057 1.73 4.63 2.457 1.574.727 3.2 1.439 4.879 1.888 1.678.45 3.401.937 5.147 1.087 1.746.15 3.507-.075 5.253-.232 1.745-.158 3.521-.195 5.222-.652 1.7-.457 3.32-1.154 4.915-1.896 1.596-.742 3.125-1.581 4.578-2.6 1.454-1.019 2.69-2.21 3.95-3.469 1.962-1.963 2.082-1.836 4.045-3.799 1.963-1.963 1.866-2.053 3.83-4.016 1.962-1.963 1.857-2.068 3.82-4.031 1.963-1.963 1.993-1.933 3.957-3.897 1.963-1.963 1.94-1.985 3.903-3.948 1.963-1.963 2.106-1.821 4.069-3.784 1.963-1.963 2.016-1.911 3.979-3.874s1.723-2.203 3.694-4.166c1.97-1.963 2-1.926 3.97-3.896 1.971-1.971 1.986-1.941 3.95-3.911 1.468-1.469 2.105-3.327 2.105-5.253 0-1.926-.63-3.791-2.098-5.26-1.469-1.468-3.334-2.427-5.26-2.427-1.926 0-3.746 1.004-5.215 2.472v.03zM222.762 136.311c-2.682-.719-2.675-.749-5.357-1.468-2.683-.72-2.683-.712-5.358-1.432-2.675-.719-2.675-.749-5.357-1.468-2.682-.72-2.69-.69-5.372-1.409-2.683-.719-2.728-.539-5.41-1.259-2.683-.719-2.653-.824-5.335-1.543-2.683-.719-2.705-.637-5.38-1.356-2.675-.72-2.697-.652-5.38-1.372-2.682-.719-2.592-1.071-5.275-1.79-2.682-.72-2.712-.615-5.394-1.334-2.009-.54-4.062-.127-5.725.839-1.663.967-2.975 2.555-3.514 4.563-.54 2.008-.307 4.099.659 5.77.967 1.671 2.645 2.952 4.653 3.491-2.008-.539-1.955-.741-3.971-1.281-2.015-.539-2.075-.307-4.083-.847-2.009-.539-4.039-.299-5.703.66-1.663.959-2.862 2.607-3.401 4.615-.54 2.008-.337 4.039.629 5.702a7.589 7.589 0 0 0 4.601 3.5c-2.053-.547-2.031-.63-4.076-1.184-2.046-.555-2.106-.353-4.151-.899-2.008-.54-4.061-.413-5.725.547-1.663.959-2.952 2.637-3.484 4.645-.54 2.008-.3 4.121.659 5.792.959 1.671 2.66 2.982 4.668 3.522 2.053.547 2.106.352 4.151.899 2.046.547 2.001.742 4.046 1.288-2.008-.539-3.956-.164-5.619.795-1.664.959-3.185 2.405-3.724 4.413-.54 2.008.052 4.016 1.019 5.68.967 1.663 2.488 2.869 4.496 3.401 2.457.66 2.42.809 4.877 1.469 2.458.659 2.481.584 4.938 1.244 2.458.659 2.39.929 4.848 1.588 2.458.66 2.525.405 4.99 1.064 2.465.659 2.435.749 4.901 1.409 2.465.659 2.427.802 4.885 1.461 2.458.659 3.364-.824 4.878 1.236 1.026 1.394-1.626.188-3.312.592-2.293.555-4.016 2.195-5.163 4.061-1.146 1.866-1.701 4.114-1.146 6.414.554 2.293 2.098 4.001 3.964 5.148 1.865 1.146 4.053 1.596 6.346 1.041 2.563-.614 2.57-.577 5.133-1.191 2.562-.615 2.57-.585 5.132-1.199 2.563-.615 2.615-.397 5.178-1.012 2.562-.614 2.525-.779 5.087-1.393 2.563-.615 2.533-.72 5.095-1.334 2.563-.614 2.578-.569 5.14-1.184 2.563-.614 2.601-.479 5.163-1.101 2.563-.622 2.518-.817 5.08-1.439.262-.06.547 0 .809-.06.068-.015.075.008.143-.007.667-.158 1.363-.21 1.993-.435 1.573-.524 3.102-1.221 4.563-1.993a30.413 30.413 0 0 0 4.203-2.675 30.557 30.557 0 0 0 3.694-3.334c1.139-1.207 2.218-2.48 3.147-3.859.929-1.379 1.619-2.885 2.308-4.406.689-1.521 1.199-3.057 1.634-4.683a29.91 29.91 0 0 0 .921-5.17c.15-1.716.12-3.521-.03-5.245-.15-1.723-.412-3.491-.869-5.177-.457-1.686-1.139-3.312-1.881-4.901-.741-1.588-1.483-3.192-2.487-4.63-1.004-1.439-2.316-2.615-3.552-3.859-1.236-1.244-2.36-2.615-3.806-3.627-1.446-1.011-3.065-1.678-4.668-2.427-1.604-.749-3.185-1.409-4.901-1.873l-.022.007zM103.88 16.914c-.18-.195-.442-.314-.622-.51-.053-.052.067-.164.015-.209-.472-.495-1.012-.922-1.521-1.356-1.237-1.102-2.66-1.963-4.061-2.847a30.049 30.049 0 0 0-4.384-2.286c-1.528-.644-3.064-1.214-4.683-1.596-1.618-.382-3.23-.689-4.892-.801-1.664-.113-3.282.037-4.953.202-1.671.165-3.297.217-4.923.652-1.723.464-3.35 1.184-4.908 1.91-1.558.727-3.027 1.784-4.443 2.78-1.416.997-2.787 2.113-4.016 3.342s-2.563 2.428-3.567 3.859c-1.004 1.43-1.678 3.08-2.42 4.668s-1.446 3.184-1.903 4.885c-.457 1.701-.922 3.394-1.072 5.155-.15 1.761.128 3.484.285 5.253.157 1.768.247 3.484.705 5.207.719 2.683.891 2.638 1.61 5.32.72 2.682.502 2.735 1.222 5.417.72 2.683.974 2.615 1.693 5.298.72 2.682.645 2.697 1.364 5.38.72 2.682.809 2.66 1.528 5.335.72 2.674.645 2.697 1.364 5.38.72 2.682.674 2.69 1.394 5.372.719 2.682.674 2.697 1.393 5.38.72 2.682.607 2.712 1.327 5.402.719 2.69.681 2.697 1.4 5.38.54 2.008 2.061 3.469 3.732 4.435 1.671.967 3.62 1.244 5.627.705 2.008-.54 3.732-1.649 4.698-3.32.967-1.67 1.177-3.754.645-5.762.54 2.008.39 2.053.929 4.061.54 2.009.674 1.979 1.214 3.987a7.568 7.568 0 0 0 3.529 4.585c1.67.967 3.709 1.222 5.717.682 2.008-.539 3.626-1.791 4.585-3.462.96-1.67 1.184-3.679.652-5.687.547 2.053.72 2.008 1.266 4.054.547 2.046.39 2.091.945 4.144.539 2.008 1.933 3.574 3.604 4.533 1.67.959 3.738 1.446 5.747.906 2.008-.539 3.476-2.038 4.443-3.701.966-1.671 1.521-3.687.981-5.695-.547-2.053-.569-2.045-1.116-4.098-.547-2.053-.607-2.03-1.161-4.084a7.36 7.36 0 0 0 3.484 4.526c1.671.959 3.716 1.513 5.724.974 2.008-.54 3.567-2 4.533-3.664.967-1.663 1.446-3.754.907-5.762-.659-2.458-.854-2.405-1.514-4.87-.659-2.466-.464-2.51-1.124-4.976-.659-2.465-.756-2.435-1.416-4.892-.659-2.458-.831-2.413-1.491-4.87-.659-2.458-.389-2.533-1.049-4.998-.659-2.466-.884-2.406-1.543-4.863-.66-2.458-2.211-2.585-1.184-4.916.697-1.58 1.116 1.237 2.308 2.488 1.626 1.716 3.806 2.57 5.994 2.623 2.188.052 4.503-.585 6.211-2.21 1.716-1.627 2.608-3.905 2.66-6.085.053-2.18-.809-4.42-2.435-6.13-1.813-1.91-1.963-1.767-3.776-3.678-1.813-1.91-1.566-2.143-3.379-4.054-1.814-1.91-1.851-1.88-3.664-3.791-1.814-1.91-1.874-1.858-3.687-3.769-1.813-1.91-1.791-1.926-3.604-3.836-1.813-1.91-1.821-1.903-3.641-3.814-1.821-1.91-1.919-1.82-3.717-3.754-1.798-1.933-1.716-2.008-3.529-3.926l-.037-.008z" fill="#CEC5F2"/>
        <path d="M70.353 147.416c-1.498 1.499-2.015 2.48-2.75 3.252-.734.772-1.603 1.401-3.109 2.9 1.476-1.476 2.24-3.402 2.225-5.335-.015-1.933-.741-3.926-2.21-5.395-1.469-1.468-3.447-2.285-5.335-2.255-1.888.03-3.761.966-5.23 2.435-1.61 1.611-2.547 2.278-3.394 3.05-.847.771-1.551 1.685-3.162 3.296-1.611 1.611-2.42 2.421-3.252 3.2-.832.779-1.768 1.453-3.38 3.064-1.61 1.611-2.292 2.54-3.034 3.41-.742.869-1.476 1.753-3.094 3.364-1.619 1.611-2.488 2.353-3.35 3.109-.861.757-1.858 1.364-3.469 2.975-1.618 1.618-2.24 2.6-3.057 3.402-.816.801-1.768 1.453-3.38 3.064-1.61 1.611-2.232 2.615-3.049 3.41-.816.794-1.723 1.498-3.341 3.109-1.619 1.611-2.24 2.578-2.99 3.447-.75.869-1.551 1.701-3.162 3.312-1.131 1.131-2.203 2.262-3.095 3.521-.891 1.259-1.596 2.69-2.3 4.084-.704 1.393-1.483 2.787-2.038 4.248-.554 1.461-.899 2.997-1.146 4.556-.248 1.558-.27 3.109-.203 4.683.068 1.573.225 3.124.472 4.683.248 1.558.315 3.147.787 4.645.472 1.499 1.326 2.825 2.046 4.241.719 1.416 1.408 2.788 2.33 4.084.922 1.296 1.963 2.398 3.102 3.529 1.139 1.131 2.12 2.405 3.364 3.342 1.244.936 2.683 1.723 4.076 2.427 1.394.705 2.878 1.342 4.391 1.761 1.514.42 3.11.562 4.66.809 1.552.248 3.11.69 4.684.78 1.573.09 3.154-.195 4.72-.442 1.566-.248 3.042-.75 4.548-1.259 1.506-.51 3.087-.802 4.503-1.521 1.417-.72 2.638-1.724 3.904-2.69 1.267-.967 2.45-1.956 3.582-3.087 1.633-1.634 2.398-2.51 3.252-3.297.854-.787 1.7-1.558 3.334-3.199 1.633-1.641 2.615-2.301 3.402-3.147.786-.847 1.408-1.851 3.05-3.492 1.64-1.641 2.494-2.413 3.281-3.267.787-.854 1.559-1.716 3.192-3.349 1.634-1.634 2.578-2.323 3.424-3.11.847-.786 1.574-1.701 3.207-3.341 1.634-1.641 2.645-2.248 3.507-3.028.862-.779 1.596-1.693 3.23-3.326 1.633-1.634 2.427-2.488 3.191-3.365.764-.876 1.499-1.775 3.132-3.409 1.469-1.468 2.113-3.379 2.143-5.282.03-1.903-.495-3.897-1.97-5.373-1.477-1.476-3.5-2.06-5.47-2.105-1.97-.045-4.084.427-5.56 1.896 1.476-1.477 2.435-1.986 3.17-2.72.734-.735 1.476-1.469 2.944-2.945 1.469-1.476 2.12-3.409 2.12-5.26s-.741-3.694-2.21-5.17c-1.468-1.476-3.341-2.105-5.207-2.135-1.866-.03-3.702.606-5.178 2.083 1.499-1.499 2.323-2.181 3.072-2.93.75-.749 1.476-1.521 2.982-3.02 1.507-1.498 2.098-3.529 2.113-5.499.015-1.971-.666-3.964-2.135-5.44-1.469-1.476-3.454-2.345-5.425-2.323-1.97.022-4.001.877-5.462 2.338l.007.007z" fill="#FFE7C4"/>
        <path d="M47.215 213.608c1.61-1.611 2.24-2.593 3.034-3.402.795-.809 1.769-1.453 3.38-3.064 1.61-1.611 2.18-2.66 3.004-3.44.825-.779 1.821-1.393 3.424-3.004 1.604-1.611 2.458-2.375 3.267-3.185.81-.809 1.454-1.76 3.065-3.371 1.61-1.611 2.465-2.368 3.252-3.192.787-.824 1.543-1.679 3.154-3.29s2.533-2.307 3.327-3.124c.794-.817 1.544-1.671 3.162-3.282 1.618-1.611 2.323-2.51 3.14-3.312.816-.802 1.79-1.431 3.401-3.042a7.724 7.724 0 0 0 2.233-5.387c0-1.903-.959-3.724-2.435-5.193M42.27 196.995c1.618-1.619 2.292-2.563 3.109-3.357.817-.794 1.776-1.454 3.394-3.072 1.619-1.619 2.435-2.42 3.245-3.229.809-.81 1.468-1.769 3.08-3.38 1.61-1.611 2.487-2.367 3.311-3.162.824-.794 1.768-1.468 3.387-3.087 1.618-1.618 2.278-2.585 3.094-3.386.817-.802 1.791-1.439 3.41-3.05 1.618-1.611 2.465-2.398 3.251-3.229.787-.832 1.447-1.784 3.065-3.402 1.618-1.619 2.398-2.458 3.23-3.252.831-.794 1.588-1.648 3.206-3.267 1.476-1.476 2.33-3.289 2.3-5.222-.03-1.934-.861-3.814-2.33-5.283M25.688 192.081c1.61-1.611 2.532-2.308 3.334-3.117.802-.81 1.7-1.521 3.304-3.125 1.604-1.603 2.24-2.585 3.035-3.409.794-.824 1.58-1.649 3.192-3.26 1.61-1.61 2.622-2.21 3.439-3.004.817-.794 1.566-1.664 3.177-3.274 1.61-1.611 2.353-2.481 3.162-3.282.809-.802 1.513-1.709 3.124-3.32 1.611-1.611 2.488-2.352 3.32-3.124.831-.772 1.7-1.521 3.311-3.132 1.611-1.611 2.526-2.315 3.312-3.14a156.18 156.18 0 0 1 3.192-3.251c1.469-1.469 2.255-3.507 2.263-5.455.008-1.948-.87-3.882-2.345-5.35" stroke="#F79E84" stroke-width="1.333" stroke-miterlimit="10" stroke-linecap="round"/>
        <path d="M72.054 192.185c-2.195.592-3.267.997-4.353 1.334-1.087.337-2.21.54-4.406 1.131-2.196.592-3.267.982-4.376 1.267-1.109.285-2.195.592-4.398 1.176-2.203.585-3.32.802-4.413 1.109-1.094.307-2.173.667-4.376 1.259-2.203.592-3.282.959-4.399 1.191-1.116.233-2.255.36-4.458.952-2.203.592-3.29.929-4.39 1.206-1.102.277-2.248.397-4.451.989-1.866.502-3.732.322-5.328-.502-1.618-.839-2.81-2.248-3.319-4.143-.547-2.053-.99-3.042-1.251-4.069-.263-1.026-.622-2.038-1.17-4.091-.546-2.053-.748-3.11-1.018-4.136-.27-1.027-.42-2.083-.967-4.136-.547-2.053-.832-3.08-1.131-4.099-.3-1.019-.45-2.083-1.004-4.136-.555-2.053-1.012-3.034-1.267-4.068-.254-1.034-.472-2.076-1.019-4.129-.546-2.053-.816-3.087-1.019-4.136-.202-1.049-.277-2.12-.824-4.181-.547-2.06-1.101-2.997-1.468-3.993-.368-.997-.435-2.098-.982-4.151-.547-2.053-.802-3.08-.974-4.136-.172-1.057-.525-2.076-1.071-4.129-.547-2.053-.877-3.065-1.237-4.069-.36-1.004-.697-2.023-1.244-4.076-.502-1.88-.232-3.866.69-5.462.921-1.596 2.562-2.637 4.443-3.139 2.195-.592 3.267-.997 4.39-1.214 1.125-.218 2.241-.42 4.444-1.004 2.195-.592 3.304-.862 4.39-1.229 1.087-.367 2.121-.862 4.317-1.446 2.195-.585 3.311-.832 4.42-1.087 1.11-.254 2.233-.442 4.429-1.034 2.195-.592 3.326-.779 4.428-1.064 1.101-.284 2.188-.637 4.383-1.221 2.196-.584 3.29-.929 4.376-1.259 1.086-.329 2.195-.592 4.398-1.176 1.873-.502 3.8-.345 5.38.539a7.025 7.025 0 0 1 3.35 4.294c.546 2.053.711 3.109.996 4.136.285 1.026.502 2.068 1.056 4.121.555 2.053 1.012 3.034 1.29 4.061.276 1.026.486 2.068 1.04 4.113.555 2.046.713 3.11.982 4.136.27 1.027.585 2.046 1.14 4.099.554 2.053.846 3.08 1.116 4.106.27 1.027.696 2.016 1.243 4.061.547 2.046.87 3.072 1.154 4.099.285 1.026.607 2.038 1.154 4.091.547 2.053.562 3.147.757 4.196.195 1.049.54 2.06 1.086 4.113.547 2.053.697 3.117.99 4.144.292 1.026.771 1.993 1.318 4.053.547 2.061.794 3.095 1.094 4.114.3 1.019.457 2.083 1.012 4.136.502 1.881.352 3.799-.57 5.365-.921 1.566-2.525 2.622-4.398 3.124h.015z" fill="#FFCD6E"/>
        <path d="M33.458 126.069c0 1.821-1.424 3.192-3.244 3.192-1.821 0-3.327-1.371-3.327-3.192 0-1.82 1.506-3.131 3.326-3.131 1.821 0 3.245 1.311 3.245 3.131z" fill="#F9A619"/>
        <path d="M33.482 126.07c0 1.821-1.446 3.454-3.267 3.454" stroke="#E19622" stroke-width="1.333" stroke-miterlimit="10"/>
        <path d="M14.781 93.14c.525 2.42.675 3.327.997 4.444.277.944.547 2.075 1.251 4.391.42 1.363.922 2.817 1.424 4.33a76.998 76.998 0 0 0 1.58 4.279c.578 1.446 1.14 2.825 1.776 4.203.637 1.379 1.244 2.825 1.979 4.121.779 1.372 1.588 2.69 2.48 3.844.981 1.266 2.075 2.383 3.132 3.334M34.563 117.349c.112-2.271.157-3.072.12-4.144-.023-.877-.105-1.933-.225-4.136-.075-1.281-.323-2.66-.465-4.113-.127-1.319-.247-2.705-.457-4.114-.195-1.334-.397-2.712-.69-4.084-.291-1.37-.479-2.72-.846-4.06" stroke="#F9A619" stroke-width="2.667" stroke-miterlimit="10" stroke-linecap="round"/>
        <path d="M61.705 160.321c-2.06.554-3.072.921-4.09 1.244-1.02.322-2.031.644-4.092 1.198-2.06.555-3.094.825-4.128 1.087-1.034.262-2.083.472-4.144 1.026-2.06.555-3.064.93-4.098 1.177-1.034.247-2.068.532-4.129 1.086-2.06.555-3.094.832-4.128 1.117-1.034.284-2.046.607-4.099 1.154-2.053.547-3.117.771-4.151 1.041-1.034.27-2.038.622-4.099 1.176-2.345.63-4.742-.719-5.364-3.064-.585-2.173-1.087-3.215-1.35-4.308-.261-1.094-.209-2.271-.793-4.451-.585-2.181-1.132-3.192-1.461-4.271-.33-1.079-.458-2.21-1.042-4.391-.584-2.18-1.026-3.229-1.311-4.323-.285-1.094-.675-2.151-1.259-4.324-.63-2.345.952-4.907 3.297-5.529 2.068-.555 3.147-.637 4.18-.907 1.035-.27 2.061-.539 4.122-1.094 2.06-.554 3.057-.966 4.099-1.206 1.041-.24 2.045-.6 4.105-1.147 2.061-.547 3.117-.741 4.137-1.049 1.019-.307 2.075-.487 4.136-1.041 2.06-.555 3.102-.817 4.12-1.117 1.02-.299 2.069-.532 4.13-1.086 2.067-.554 3.086-.869 4.12-1.139 1.034-.27 2-.772 4.061-1.319 2.346-.629 4.87.892 5.5 3.237.584 2.173.607 3.342.937 4.421.33 1.079.846 2.098 1.43 4.271.585 2.173.87 3.267 1.14 4.361.27 1.094.54 2.188 1.116 4.368.577 2.18.854 3.274 1.146 4.368.293 1.094.712 2.143 1.297 4.316.63 2.345-.982 4.488-3.327 5.11l-.008.008zM65.695 171.439c.885 3.29.682 3.342 1.566 6.632.885 3.289 1.004 3.259 1.889 6.548" fill="#fff"/>
        <path d="M65.695 171.439c.885 3.29.682 3.342 1.566 6.632.885 3.289 1.004 3.259 1.889 6.548" stroke="#F9A619" stroke-width="2.667" stroke-miterlimit="10" stroke-linecap="round"/>
        <path d="M62.434 172.332c.884 3.289 1.086 3.237 1.97 6.526.884 3.29.675 3.35 1.551 6.639" fill="#fff"/>
        <path d="M62.434 172.332c.884 3.289 1.086 3.237 1.97 6.526.884 3.29.675 3.35 1.551 6.639" stroke="#F9A619" stroke-width="1.333" stroke-miterlimit="10" stroke-linecap="round"/>
        <path d="M59.57 173.109c.885 3.29.817 3.305 1.701 6.594.884 3.289 1.057 3.244 1.933 6.534" fill="#fff"/>
        <path d="M59.57 173.109c.885 3.29.817 3.305 1.701 6.594.884 3.289 1.057 3.244 1.933 6.534" stroke="#F9A619" stroke-width="2.667" stroke-miterlimit="10" stroke-linecap="round"/>
        <path d="M56.64 173.904c.885 3.29.682 3.342 1.56 6.631.883 3.29 1.093 3.23 1.977 6.519" fill="#fff"/>
        <path d="M56.64 173.904c.885 3.29.682 3.342 1.56 6.631.883 3.29 1.093 3.23 1.977 6.519" stroke="#F9A619" stroke-width="1.333" stroke-miterlimit="10" stroke-linecap="round"/>
        <path d="M53.824 174.676c.884 3.289.517 3.387 1.394 6.676.884 3.289 1.004 3.259 1.88 6.549" fill="#fff"/>
        <path d="M53.824 174.676c.884 3.289.517 3.387 1.394 6.676.884 3.289 1.004 3.259 1.88 6.549" stroke="#F9A619" stroke-width="1.333" stroke-miterlimit="10" stroke-linecap="round"/>
        <path d="M50.625 175.545c.884 3.289.84 3.304 1.716 6.594.877 3.289.907 3.281 1.79 6.571" fill="#fff"/>
        <path d="M50.625 175.545c.884 3.289.84 3.304 1.716 6.594.877 3.289.907 3.281 1.79 6.571" stroke="#F9A619" stroke-width="2.667" stroke-miterlimit="10" stroke-linecap="round"/>
        <path d="M59.408 117.955c.547 2.053.914 3.057 1.176 4.091.263 1.034.368 2.106.915 4.159s1.041 3.027 1.28 4.061c.24 1.034.24 2.135.795 4.188s.832 3.08 1.094 4.106c.262 1.027.592 2.046 1.139 4.099.547 2.053 1.026 3.019 1.386 4.023.36 1.005.48 2.076 1.027 4.137.547 2.06.989 3.034 1.273 4.061.285 1.026.42 2.09.967 4.143.547 2.053.952 3.05 1.161 4.091.21 1.042.225 2.143.772 4.196s.944 3.05 1.244 4.076c.3 1.027.772 1.993 1.319 4.054.547 2.06.51 3.162.749 4.196.24 1.034.697 2.023 1.244 4.076.502 1.873.112 3.739-.734 5.275-.847 1.536-2.256 2.765-4.137 3.267-2.203.592-3.289.929-4.383 1.221-1.094.292-2.24.42-4.436 1.012-2.195.592-3.281.951-4.375 1.266-1.094.315-2.166.704-4.361 1.296-2.196.592-3.252 1.064-4.354 1.349-1.101.285-2.292.232-4.488.824-2.195.592-3.29.899-4.398 1.169-1.109.27-2.195.614-4.39 1.206-2.196.592-3.298.907-4.384 1.252-1.087.344-2.166.696-4.368 1.281" stroke="#E19622" stroke-width="1.333" stroke-miterlimit="10"/>
        <path d="M57.908 129.121c.584 2.173.974 3.237 1.243 4.331.27 1.094.3 2.248.885 4.428.584 2.181 1.004 3.23 1.318 4.316.315 1.086.794 2.12 1.379 4.301.584 2.18.84 3.282 1.109 4.368.27 1.087.3 2.248.884 4.428.63 2.346-.562 4.833-2.907 5.463-2.06.554-3.125.697-4.166.944-1.042.247-2.113.352-4.174.906-2.06.555-3.02 1.109-4.053 1.394-1.034.285-2.113.367-4.166.914-2.053.547-3.035 1.027-4.061 1.326-1.027.3-2.106.383-4.166.937-2.06.555-3.027 1.086-4.054 1.356-1.026.27-2.083.48-4.143 1.034-2.061.555-3.072.907-4.106 1.177-1.035.269-2.084.464-4.144 1.011" stroke="#E19622" stroke-width="1.333" stroke-miterlimit="10"/>
        <path d="M23.83 154.057c-1.506-.442-3.005-.487-4.42-.113-1.417.375-2.878 1.042-3.957 2.106a9.018 9.018 0 0 0-2.308 3.881c-.614 2.076-.772 3.147-1.086 4.181-.315 1.034-.525 2.091-1.14 4.151-.614 2.061-.988 3.08-1.295 4.114-.308 1.034-.592 2.068-1.207 4.136-.614 2.068-.989 3.079-1.304 4.113-.314 1.034-.576 2.076-1.183 4.136-.615 2.068-.885 3.11-1.207 4.144-.322 1.034-.577 2.075-1.191 4.143-.615 2.068-1.094 3.05-1.439 4.076-.344 1.027-.637 2.061-1.244 4.129-.487 1.656-.809 3.319-.846 4.983-.038 1.663.307 3.386.697 5.005.39 1.618.771 3.319 1.61 4.78.84 1.461 2.009 2.72 3.17 3.949 1.161 1.229 2.458 2.263 3.896 3.177 1.439.914 2.863 1.731 4.519 2.218 1.655.487 3.356.644 5.012.704 1.656.06 3.454.12 5.073-.27 1.618-.389 3.17-1.221 4.653-2.045 1.483-.824 2.772-1.911 4.001-3.072a17.78 17.78 0 0 0 3.117-3.904c.862-1.469 1.648-2.907 2.135-4.556.487-1.648.645-3.341.735-4.99.09-1.648-.128-3.349-.525-4.975a19.952 19.952 0 0 0-1.798-4.691c-.802-1.498-1.626-2.989-2.787-4.218-1.162-1.229-2.496-2.27-3.972-3.154-1.476-.885-3.05-1.349-4.698-1.836-.704-.21-1.273-.472-1.985-.592.787-3.919 1.041-3.814 2.173-7.643 1.131-3.829.974-3.881 2.113-7.71 1.131-3.829 1.438-3.739 2.57-7.575.442-1.491.397-3.08.06-4.526-.337-1.446-1.154-2.81-2.173-3.919-1.02-1.108-2.278-1.888-3.784-2.337h.015z" fill="#FFE7C4"/>
        <path d="M38.15 212.298c.488-1.656.465-3.387.495-5.043.03-1.656-.127-3.386-.517-5.005a18.64 18.64 0 0 0-1.836-4.668 20.115 20.115 0 0 0-2.952-4.061c-1.161-1.229-2.413-2.308-3.874-3.184-1.46-.877-2.907-1.664-4.563-2.151-.704-.21-1.199-.262-1.903-.389.787-3.919.78-3.889 1.918-7.718 1.14-3.829 1.401-3.754 2.533-7.583 1.131-3.829 1.191-3.814 2.33-7.642.674-2.271.247-4.661-.817-6.579-1.064-1.918-2.93-3.327-5.192-3.994" stroke="#F79E84" stroke-width="1.333" stroke-miterlimit="10" stroke-linecap="round"/>
        <path d="M16.066 165.332c.81 1.491 2.248 2.495 3.754 2.937 1.506.442 3.185.247 4.683-.562M18.444 180.491c-.966-1.776-3.192-2.27-4.967-1.304M17.377 183.361c-.967-1.776-3.125-2.488-4.908-1.521M51.172 230.549c1.633-1.633 2.525-2.382 3.35-3.191.823-.81 1.558-1.716 3.191-3.35 1.633-1.633 2.518-2.397 3.334-3.214.817-.817 1.686-1.589 3.32-3.222 1.633-1.633 2.3-2.615 3.124-3.432.824-.816 1.836-1.431 3.47-3.064 1.633-1.634 2.405-2.495 3.236-3.305.832-.809 1.619-1.656 3.252-3.289 1.634-1.633 2.375-2.533 3.17-3.372.794-.839 1.768-1.513 3.401-3.147 1.634-1.633 2.316-2.6 3.162-3.386.847-.787 1.843-1.424 3.477-3.065 1.468-1.469 2.203-3.499 2.188-5.462-.015-1.963-.877-3.867-2.345-5.335" stroke="#F79E84" stroke-width="1.333" stroke-miterlimit="10" stroke-linecap="round"/>
        <path d="M133.647 153.907c2.053.547 3.154.502 4.188.749 1.035.248 2.016.69 4.069 1.237-2.015-.54-4.069-.24-5.732.749-1.663.989-3.027 2.615-3.566 4.615-.54 2.001-.255 4.122.719 5.74.974 1.618 2.72 2.765 4.72 3.297 2.203.592 3.245 1.071 4.331 1.423 1.087.353 2.233.51 4.436 1.102 2.203.592 3.304.884 4.398 1.221 1.094.337 2.136.809 4.338 1.401 2.203.592 3.35.712 4.474.907 1.124.195 2.263.382 4.465.974 2.203.592 3.282.989 4.361 1.356 1.079.367 2.106.944 4.309 1.529 2.202.584 3.371.644 4.473.944 1.101.3 2.143.809 4.338 1.401 2.196.592 3.379.629 4.473.937 1.094.307 2.158.749 4.361 1.341s3.357.644 4.481.847c1.124.202 2.248.472 4.451 1.064 1.551.412 3.064.771 4.593.921 1.528.15 3.124.03 4.683-.052 1.558-.083 3.162-.105 4.698-.345 1.536-.24 3.049-.704 4.518-1.266 1.468-.562 2.825-1.327 4.151-2.173a42.988 42.988 0 0 0 3.814-2.758c1.228-.989 2.562-1.843 3.626-3.004 1.064-1.162 1.783-2.555 2.653-3.889.869-1.334 1.708-2.615 2.367-4.054.66-1.438 1.094-2.899 1.514-4.443.419-1.543 1.019-3.042 1.221-4.578.203-1.536.158-3.184.075-4.743-.082-1.588-.285-3.162-.682-4.675-.397-1.514-1.079-2.967-1.648-4.436-.57-1.469-.944-3.042-1.649-4.451-.704-1.408-1.73-2.645-2.727-3.874-.996-1.228-2.173-2.262-3.372-3.311-1.184-1.034-2.24-2.271-3.574-3.14-1.333-.869-2.817-1.416-4.286-2.03-1.468-.615-2.922-1.139-4.465-1.551-2.233-.6-3.372-.825-4.481-1.184a78.468 78.468 0 0 0-4.436-1.304c-2.233-.599-3.297-1.109-4.428-1.364-1.131-.255-2.315-.284-4.548-.884-2.233-.599-3.342-.951-4.473-1.199-1.132-.247-2.263-.479-4.504-1.079-2.24-.599-3.296-1.071-4.405-1.416-1.109-.345-2.263-.524-4.496-1.116-2.233-.592-3.267-1.177-4.368-1.536-1.102-.36-2.263-.547-4.496-1.147-2.233-.599-3.372-.854-4.511-1.064-1.139-.209-2.285-.389-4.525-.989-2.001-.539-3.979-.142-5.642.78-1.664.921-3.132 2.375-3.672 4.39-.539 2.016-.037 4.069.907 5.8.944 1.731 2.412 3.342 4.428 3.881-2.008-.539-2.937-1.116-3.941-1.386-1.004-.27-2.008-.54-4.024-1.079-2.008-.54-4.008-.135-5.597.779-1.588.914-2.817 2.48-3.357 4.488-.539 2.008-.157 3.942.742 5.567.899 1.626 2.368 2.893 4.383 3.432-2.053-.547-3.049-.921-4.076-1.199-1.026-.277-2.06-.524-4.106-1.071-2.008-.54-4.106-.053-5.829.921-1.724.975-3.11 2.563-3.649 4.571-.54 2.008-.3 4.174.712 5.859 1.011 1.686 2.764 3.028 4.765 3.567h.03z" fill="#FBCEC1"/>
        <path d="M202.544 140.847c-2.203-.592-3.365-.644-4.466-.922-1.102-.277-2.143-.794-4.346-1.386-2.203-.592-3.394-.569-4.481-.899-1.086-.33-2.113-.892-4.316-1.476-2.202-.584-3.289-.944-4.39-1.236-1.102-.292-2.256-.375-4.451-.967s-3.282-.944-4.391-1.206-2.225-.487-4.428-1.072c-2.203-.592-3.267-1.034-4.368-1.311-1.102-.277-2.226-.494-4.429-1.086-2.203-.592-3.334-.757-4.435-1.064-1.102-.308-2.136-.84-4.339-1.431a7.677 7.677 0 0 0-5.769.756c-1.641.952-2.735 2.69-3.267 4.698M190.623 153.457c-2.21-.592-3.364-.712-4.465-1.019-1.102-.307-2.151-.816-4.354-1.408-2.202-.592-3.311-.9-4.42-1.199-1.109-.3-2.263-.39-4.466-.982-2.203-.592-3.297-.974-4.391-1.296-1.094-.322-2.15-.809-4.361-1.401-2.21-.592-3.379-.682-4.48-.989-1.102-.307-2.143-.839-4.346-1.424-2.211-.592-3.312-.929-4.428-1.191-1.117-.262-2.271-.345-4.481-.937-2.21-.592-3.327-.854-4.428-1.176-1.102-.322-2.218-.562-4.429-1.154-2.015-.54-4.016-.367-5.664.637-1.649 1.004-2.862 2.667-3.394 4.668M194.66 170.249c-2.203-.592-3.267-1.034-4.368-1.326-1.102-.292-2.165-.712-4.361-1.296-2.195-.585-3.364-.645-4.466-.915-1.101-.269-2.217-.532-4.42-1.123-2.203-.592-3.222-1.169-4.316-1.477-1.094-.307-2.218-.532-4.421-1.123-2.203-.592-3.327-.802-4.421-1.094-1.094-.293-2.233-.457-4.435-1.042-2.203-.584-3.275-.989-4.369-1.334-1.094-.344-2.158-.726-4.361-1.318-2.202-.592-3.266-1.019-4.375-1.289s-2.211-.532-4.414-1.124c-2.008-.54-4.166-.202-5.866.764-1.701.967-2.938 2.698-3.477 4.706" stroke="#F2765E" stroke-width="1.333" stroke-miterlimit="10" stroke-linecap="round"/>
        <path d="M157.842 125.638c1.491-.225 2.959-.45 4.428-.465 1.468-.015 2.982.098 4.451.255 1.468.157 2.967.345 4.39.727 1.424.382 2.788 1.026 4.166 1.573 1.379.547 2.803 1.019 4.121 1.694 1.319.674 2.683 1.326 3.882 2.21 1.199.884 2.337 1.873 3.431 2.892 1.087 1.019 2.143 2.098 3.08 3.267.937 1.169 1.573 2.525 2.3 3.836.727 1.312 1.289 2.66 1.888 4.039.6 1.379 1.402 2.638 1.806 4.084.405 1.446.652 2.884.884 4.383.233 1.498.397 2.982.51 4.451.112 1.468.187 3.019.022 4.488-.165 1.468-.532 2.967-.906 4.406-.375 1.438-1.087 2.794-1.634 4.181-.547 1.386-.906 2.877-1.641 4.173-.734 1.296-1.835 2.368-2.712 3.567-.877 1.198-1.641 2.502-2.69 3.559a39.419 39.419 0 0 1-3.334 2.982c-1.162.929-2.518 1.573-3.792 2.353-1.273.779-2.465 1.663-3.836 2.262-1.371.6-2.802.967-4.241 1.394-1.438.427-2.862.712-4.353.937-1.491.224-2.96.464-4.436.487-1.476.022-3.005.052-4.473-.113-1.469-.165-2.975-.419-4.406-.794a38.85 38.85 0 0 1-4.256-1.386 32.163 32.163 0 0 1-4.031-1.926c-1.289-.727-2.533-1.566-3.731-2.45-1.199-.884-2.368-1.821-3.447-2.84-1.079-1.019-1.903-2.27-2.84-3.439-.936-1.169-1.836-2.33-2.622-3.596-.787-1.267-1.559-2.525-2.158-3.904-.6-1.379-.952-2.802-1.371-4.241-.42-1.439-.787-2.84-1.012-4.338-.225-1.499-.217-2.975-.247-4.444-.03-1.468-.09-2.982.075-4.443.165-1.461.367-2.967.682-4.421.314-1.453.816-2.862 1.363-4.248.547-1.386 1.147-2.75 1.888-4.046.742-1.296 1.462-2.623 2.338-3.821.877-1.199 1.956-2.241 3.02-3.29s2.135-2.068 3.297-3.004c1.161-.937 2.435-1.701 3.686-2.518 1.251-.817 2.495-1.581 3.874-2.188 1.379-.607 2.765-1.034 4.226-1.431 1.461-.397 2.877-.652 4.368-.877l-.007.023z" fill="#FFCD6E"/>
        <path d="M157.82 125.517a34.547 34.547 0 0 1 4.444-.397 34.13 34.13 0 0 1 4.458.21c1.468.164 2.952.449 4.383.809 1.431.359 2.915.697 4.293 1.236 1.379.54 2.675 1.334 3.972 2.046a33.4 33.4 0 0 1 3.746 2.405 41.612 41.612 0 0 1 3.432 2.847c1.094 1.004 2.225 1.993 3.162 3.162.936 1.169 1.633 2.488 2.412 3.776a33.013 33.013 0 0 1 2.061 3.957 27.619 27.619 0 0 1 1.431 4.211c.375 1.461.802 2.854 1.027 4.345" stroke="#E19622" stroke-width="1.333" stroke-miterlimit="10"/>
        <path d="M192.788 154.65c.03.194-.285.397-.472.427-.187.03-.337-.075-.367-.263-.21-1.378-.27-2.832-.667-4.158-.052-.187-.255-.375-.067-.435.187-.06.449.113.509.3.412 1.356.734 2.765.952 4.181 0 .03.105-.082.12-.052h-.008zm.352 4.248s-.217.06-.217.075a30.08 30.08 0 0 1-.255 4.271c-.03.195-.135.045-.329.015-.195-.03-.45.075-.42-.12.187-1.379.307-2.765.292-4.159 0-.194.202-.404.397-.412.18 0 .51.15.532.323v.007zm-2.787-12.296c.022.15-.255.3-.397.367-.18.083-.345.03-.427-.149-.592-1.259-1.057-2.638-1.821-3.799-.105-.165-.352-.285-.187-.397.164-.105.464-.023.569.142a30.99 30.99 0 0 1 2.098 3.739c.015.03.157.06.165.09v.007zm1.663 20.658c0 .045-.209.12-.224.165a30.691 30.691 0 0 1-1.454 4.023c-.082.18-.142 0-.322-.074-.18-.083-.45-.053-.375-.233.57-1.266 1.079-2.57 1.461-3.911.053-.187.307-.337.495-.285.135.038.397.18.419.307v.008zm-6.286-27.716c.015.112-.225.24-.322.322-.143.128-.323.12-.45-.022-.922-1.042-1.753-2.233-2.817-3.132-.15-.128-.42-.18-.292-.33.127-.15.442-.15.592-.022a30.424 30.424 0 0 1 3.064 2.997c.045.052.217.12.225.187zm2.847 35.426c.015.082-.217.172-.262.247a29.306 29.306 0 0 1-2.525 3.447c-.128.15-.135-.037-.285-.165-.15-.127-.42-.18-.292-.33.899-1.056 1.753-2.165 2.495-3.341.105-.165.39-.233.554-.128.09.06.3.165.315.263v.007zm-9.268-40.896c.015.083-.218.173-.263.248-.105.164-.277.209-.442.104-1.176-.741-2.308-1.648-3.581-2.217-.18-.083-.45-.053-.368-.233.083-.179.383-.262.562-.187a30.473 30.473 0 0 1 3.784 2.023c.09.06.3.165.315.262h-.007zm3.806 47.325c.015.112-.225.232-.322.322a30.564 30.564 0 0 1-3.387 2.6c-.165.105-.12-.075-.232-.24-.105-.165-.353-.284-.188-.397 1.154-.757 2.286-1.581 3.335-2.502.149-.128.442-.12.569.03.045.052.217.119.225.187zm-11.509-50.771c0 .052-.21.12-.225.164-.052.188-.21.278-.397.225-1.341-.382-2.682-.929-4.061-1.116-.195-.023-.45.075-.42-.12.023-.195.293-.36.487-.337 1.409.187 2.833.479 4.204.869.135.037.397.18.419.307l-.007.008zm4.458 55.409c.023.15-.255.3-.397.367a29.254 29.254 0 0 1-3.994 1.536c-.187.06-.097-.105-.15-.292-.052-.18-.254-.382-.067-.435 1.334-.404 2.653-.869 3.904-1.461.18-.082.457.015.539.188.015.029.158.059.165.089v.008zm-12.828-56.541s-.217.06-.217.075c0 .195-.12.322-.315.33-1.386.015-2.832-.135-4.21.075-.06.007 0 .374-.068.389-.195.03-.427-.172-.457-.367-.03-.195.142-.434.33-.464.06-.008.067.03.127.022 1.409-.217 2.847-.225 4.271-.24.18 0 .509.008.532.18h.007zm4.721 58.991c.03.195-.262.36-.45.39-.03 0-.03.007-.06.015-1.393.209-2.802.06-4.203.075-.195 0-.427.134-.435-.053 0-.195.233-.404.427-.404a28.963 28.963 0 0 0 4.099-.345c.195-.03.592.12.622.315v.007zm-13.18-57.687c.023.172-.27.33-.442.382a29.047 29.047 0 0 0-3.904 1.514c-.18.082-.112-.09-.195-.27-.082-.18-.307-.337-.127-.42 1.289-.607 2.653-1.094 4.016-1.506.188-.06.45.075.502.263 0 .014.143.022.143.037h.007zm4.773 57.777s-.21.09-.217.12c-.023.195-.165.307-.36.277-1.409-.187-2.75-.734-4.121-1.124-.187-.052-.45.008-.405-.18.053-.187.338-.314.525-.262a29.3 29.3 0 0 0 4.091.839c.157.023.457.173.479.323l.008.007zm-12.408-54.188c.022.135-.24.27-.36.345a29.526 29.526 0 0 0-3.312 2.555c-.142.127-.134-.053-.262-.203-.127-.142-.389-.232-.24-.367 1.064-.944 2.233-1.798 3.425-2.585.164-.105.449-.052.562.105.03.045.187.098.194.143l-.007.007zm4.286 51.888c.007.067-.21.142-.24.21-.082.179-.247.247-.42.164-1.296-.577-2.427-1.476-3.634-2.233-.164-.104-.442-.119-.337-.284.105-.165.412-.21.577-.105a29.86 29.86 0 0 0 3.687 1.963c.112.052.352.172.367.292v-.007zm-10.588-46.283c.015.097-.217.202-.292.284a30.194 30.194 0 0 0-2.465 3.38c-.105.164-.142-.015-.307-.12s-.435-.12-.337-.285c.757-1.206 1.641-2.353 2.562-3.439.128-.15.42-.18.57-.053.067.06.254.15.269.233zm3.447 41.787c.015.097-.217.202-.292.285-.127.15-.3.165-.45.045-1.086-.922-1.918-2.098-2.862-3.162-.127-.143-.39-.233-.24-.367.143-.128.457-.083.585.06a29.598 29.598 0 0 0 2.989 2.914c.068.06.255.15.27.233v-.008zm-7.927-34.639c.007.067-.21.142-.24.21a30.05 30.05 0 0 0-1.416 3.941c-.053.187-.143.022-.33-.03-.187-.053-.457.007-.404-.18.389-1.371.914-2.72 1.491-4.024.082-.179.352-.292.532-.209.112.052.352.172.367.292zm2.338 28.323c.022.134-.24.269-.36.344-.165.105-.337.075-.442-.09-.787-1.191-1.244-2.555-1.851-3.843-.082-.18-.307-.338-.127-.42.18-.082.464.045.547.225a28.818 28.818 0 0 0 2.045 3.634c.03.045.188.09.195.142l-.007.008zm-4.624-20.201s-.209.09-.217.12a29.89 29.89 0 0 0-.24 4.173c0 .195-.127.06-.322.068-.195.007-.427.135-.434-.06-.015-1.424.105-2.87.292-4.279.022-.194.255-.374.449-.352.158.023.457.173.48.322l-.008.008zm1.042 12.565c.022.173-.27.33-.442.383-.187.059-.345-.023-.405-.21-.412-1.356-.472-2.795-.689-4.211l-.367.052c-.03-.195.172-.427.367-.457.195-.03.435.135.464.33.218 1.379.488 2.757.892 4.076 0 .015.18.007.18.03v.007z" fill="#E19622"/>
        <path d="M159.085 133.835c1.693-.255 3.387-.442 5.043-.382 1.656.06 3.334.554 4.945.959 1.611.404 3.304.742 4.818 1.476 1.513.742 2.915 1.708 4.263 2.705 1.349.996 2.503 2.218 3.649 3.454 1.147 1.236 2.173 2.525 3.05 3.971.876 1.446 1.521 2.945 2.083 4.548.562 1.604 1.206 3.125 1.468 4.818.263 1.693.233 3.394.195 5.05-.037 1.656-.06 3.424-.457 5.035-.397 1.611-1.056 3.237-1.806 4.736-.749 1.506-1.693 2.937-2.69 4.286a27.054 27.054 0 0 1-3.379 3.746c-1.236 1.147-2.69 1.971-4.136 2.847-1.446.877-2.862 1.716-4.466 2.271-1.603.554-3.169 1.049-4.862 1.303-1.694.255-3.387.3-5.036.24-1.648-.06-3.334-.442-4.952-.839-1.619-.397-3.32-.749-4.848-1.424-1.529-.674-2.96-1.641-4.308-2.637-1.349-.997-2.571-2.165-3.679-3.439-1.109-1.274-1.964-2.705-2.84-4.151-.877-1.446-1.649-2.885-2.263-4.481-.614-1.596-1.042-3.139-1.296-4.84a22.492 22.492 0 0 1-.188-5.006c.12-1.655.465-3.326.862-4.945.397-1.618.802-3.274 1.461-4.81.66-1.536 1.461-3.035 2.458-4.391a26.364 26.364 0 0 1 3.379-3.769c1.251-1.154 2.57-2.195 4.024-3.072 1.453-.877 2.989-1.513 4.608-2.068a27.614 27.614 0 0 1 4.9-1.214v.023z" fill="#F9A619"/>
        <path d="M159.062 133.699c1.694-.255 3.395.015 5.043.083 1.649.067 3.357.202 4.968.599 1.611.397 3.267.869 4.788 1.566a24.896 24.896 0 0 1 4.346 2.563c1.356.996 2.525 2.202 3.656 3.461 1.132 1.259 2.24 2.51 3.117 3.956.877 1.447 1.409 3.02 1.993 4.623.585 1.604 1.229 3.117 1.484 4.818" stroke="#E19622" stroke-width="1.333" stroke-miterlimit="10"/>
        <path d="M152.844 160.785c-1.971-2.682-2.75-4.173-3.732-5.522-.981-1.349-1.978-2.683-3.948-5.365-.075-.105-.075-.15.06-.15 3.334.068 4.997-.03 6.668.008 1.671.037 3.319.314 6.646.374.053 0 .165-.157.195-.194 1.941-2.713 3.042-3.964 4.016-5.32.974-1.357 1.784-2.818 3.717-5.523.075-.104.097-.075.135.045.966 3.192 1.551 4.751 2.038 6.347.487 1.596 1.146 3.132 2.113 6.309.015.052-.195.344-.143.367 3.177 1.011 4.833 1.281 6.422 1.776 1.588.494 3.139 1.124 6.308 2.135.12.038.113.038 0 .113-2.727 1.903-4.061 2.907-5.417 3.873-1.356.967-2.817 1.784-5.545 3.694-.044.03-.089.218-.089.27.022 3.327.119 4.998.142 6.661.022 1.663.247 3.327.27 6.661 0 .128-.255.075-.352 0-2.653-2.008-4.002-2.982-5.32-4.001-1.319-1.011-2.69-1.963-5.35-3.971-.038-.03-.15 0-.203.022a456.739 456.739 0 0 1-6.331 2.068c-1.588.502-3.139 1.117-6.301 2.166-.12.037-.225-.09-.18-.21 1.086-3.147 1.686-4.698 2.248-6.272.562-1.573 1.124-3.132 2.217-6.278.015-.045-.262-.038-.292-.075l.008-.008z" fill="#fff"/>
        <path d="M144.906 149.569c3.409.068 3.402.39 6.811.457 3.409.068 3.409-.112 6.819-.052.052 0 .007-.098.037-.143 1.941-2.704 2.915-4.053 3.874-5.417.959-1.364 2.128-2.57 4.069-5.282.074-.105.187-.158.224-.038.967 3.192 1.349 4.818 1.844 6.407.494 1.588.831 3.221 1.798 6.406.015.052.292-.135.344-.112 3.177 1.011 4.698 1.715 6.279 2.217 1.581.502 3.23.84 6.399 1.844.12.037.038.232-.067.307-2.75 1.918-3.979 3.087-5.358 4.038-1.378.952-2.794 1.844-5.537 3.754" stroke="#E19622" stroke-width="1.333" stroke-miterlimit="10"/>
        <path d="M162.677 190.868c.367 1.521 1.079 2.848 2.113 3.882 1.034 1.034 2.337 1.97 3.798 2.375a9.027 9.027 0 0 0 4.511.06c2.098-.502 3.11-.907 4.166-1.147 1.057-.239 2.068-.592 4.159-1.094 2.09-.502 3.162-.681 4.211-.936 1.049-.255 2.09-.517 4.188-1.019 2.098-.502 3.162-.682 4.211-.929 1.049-.248 2.083-.54 4.174-1.042 2.09-.502 3.139-.787 4.188-1.026 1.049-.24 2.083-.54 4.181-1.042s3.192-.577 4.248-.794c1.057-.217 2.098-.487 4.196-.989 1.679-.405 3.282-.959 4.743-1.761 1.461-.802 2.78-1.955 3.986-3.102 1.207-1.146 2.488-2.323 3.335-3.784.846-1.461 1.356-3.094 1.836-4.713.479-1.618.734-3.259.801-4.96.068-1.701.06-3.349-.344-5.028-.405-1.678-1.124-3.229-1.896-4.698-.772-1.468-1.626-3.049-2.772-4.256-1.147-1.206-2.645-2.135-4.099-3.004-1.454-.869-3.035-1.454-4.653-1.933a17.699 17.699 0 0 0-4.938-.75c-1.701-.015-3.342.023-5.012.42-1.671.397-3.215 1.116-4.691 1.866-1.476.749-2.832 1.791-4.039 2.944a19.429 19.429 0 0 0-3.154 3.904c-.884 1.446-1.776 2.9-2.255 4.518-.48 1.619-.72 3.29-.75 5.013-.03 1.723.352 3.312.757 4.99.172.712.225 1.334.472 2.008-3.784 1.274-3.821 1.012-7.702 1.948-3.882.937-3.852 1.087-7.733 2.023-3.889.937-3.956.637-7.845 1.566-1.514.368-2.87 1.192-3.941 2.211-1.072 1.019-1.851 2.405-2.301 3.844-.449 1.438-.494 2.914-.127 4.435h-.022z" fill="#FBCEC1"/>
        <path d="M205.942 149.381c-1.678.404-3.161 1.289-4.615 2.083a19.62 19.62 0 0 0-4.076 2.945 18.874 18.874 0 0 0-3.132 3.918 19.693 19.693 0 0 0-2.046 4.586c-.479 1.618-.794 3.252-.831 4.945-.038 1.693.007 3.357.412 5.028.172.712.397 1.191.644 1.865-3.784 1.274-3.769 1.222-7.65 2.151-3.881.929-3.941.704-7.83 1.641-3.889.936-3.904.869-7.785 1.806-2.3.554-4.166 2.113-5.297 3.986-1.132 1.873-1.424 4.196-.87 6.489" stroke="#F2765E" stroke-width="1.333" stroke-miterlimit="10" stroke-linecap="round"/>
        <path d="M176.306 191.962c.892-1.446 1.034-3.192.659-4.72-.374-1.529-1.378-2.885-2.824-3.769M188.249 182.32c-1.056 1.724-.375 3.897 1.356 4.953M191.261 181.809c-1.056 1.723-.592 3.948 1.132 5.005M215.229 128.97c-2.233-.599-3.319-.996-4.436-1.311-1.116-.315-2.262-.494-4.495-1.094-2.233-.599-3.335-.981-4.451-1.274-1.116-.292-2.218-.666-4.451-1.258-2.233-.592-3.409-.682-4.525-.997-1.117-.315-2.158-.877-4.391-1.476s-3.364-.839-4.481-1.161c-1.116-.323-2.24-.577-4.473-1.177-2.233-.599-3.379-.779-4.511-1.049-1.131-.269-2.195-.764-4.428-1.363-2.233-.6-3.409-.72-4.511-1.072-1.101-.352-2.15-.899-4.383-1.498-2.008-.54-4.136-.15-5.837.846-1.701.997-2.922 2.705-3.461 4.706" stroke="#F2765E" stroke-width="1.333" stroke-miterlimit="10" stroke-linecap="round"/>
        <path d="M107.617 95.844c-.547-2.053-1.147-2.982-1.439-4.001-.292-1.019-.412-2.09-.959-4.144.54 2.009 1.828 3.642 3.514 4.594 1.686.951 3.777 1.318 5.777.779 2.001-.54 3.702-1.843 4.616-3.492.914-1.648 1.034-3.739.502-5.74-.592-2.202-.697-3.349-.937-4.465-.24-1.116-.674-2.188-1.266-4.39-.592-2.204-.884-3.305-1.139-4.422-.255-1.116-.367-2.255-.959-4.458-.592-2.203-1.057-3.252-1.446-4.33-.39-1.08-.787-2.151-1.379-4.354-.592-2.203-.787-3.334-1.011-4.458-.225-1.124-.24-2.293-.832-4.496-.592-2.203-1.131-3.244-1.424-4.346-.292-1.101-.367-2.255-.959-4.458-.592-2.203-1.146-3.237-1.431-4.346-.285-1.109-.434-2.248-1.019-4.45-.584-2.203-1.116-3.23-1.506-4.309-.39-1.079-.712-2.188-1.296-4.39-.412-1.552-.862-3.043-1.499-4.436-.637-1.394-1.536-2.72-2.383-4.031-.846-1.312-1.67-2.683-2.652-3.897-.981-1.214-2.135-2.285-3.364-3.274-1.229-.99-2.555-1.783-3.956-2.51a42.395 42.395 0 0 0-4.294-1.926C83.4 1.524 82 .798 80.463.454c-1.536-.345-3.11-.27-4.69-.353C74.191.02 72.654-.07 71.073.08c-1.58.15-3.057.502-4.608.914-1.55.412-3.14.637-4.578 1.236-1.438.6-2.832 1.461-4.143 2.308-1.311.847-2.6 1.828-3.717 2.93-1.116 1.101-2.038 2.42-3.02 3.634-.98 1.213-2.157 2.345-3.019 3.656-.861 1.311-1.416 2.825-1.985 4.3-.57 1.477-.87 3.013-1.184 4.572-.315 1.558-.847 3.08-.93 4.66-.082 1.581.18 3.147.383 4.728.202 1.581.472 3.094.891 4.645.6 2.233.974 3.335 1.222 4.466a84.369 84.369 0 0 0 1.094 4.488c.599 2.233.689 3.417 1.026 4.519.337 1.101.907 2.143 1.506 4.383.6 2.233.847 3.364 1.191 4.473.345 1.109.712 2.203 1.312 4.436.6 2.233.72 3.394.974 4.525.255 1.132.682 2.218 1.281 4.451.6 2.233.622 3.417.854 4.556.233 1.139.66 2.233 1.26 4.466.599 2.232.943 3.341 1.325 4.435.382 1.094.794 2.18 1.394 4.414.54 2 1.866 3.514 3.5 4.495 1.633.982 3.618 1.521 5.634.982 2.015-.54 3.536-2 4.563-3.687 1.026-1.685 1.686-3.754 1.146-5.77.54 2.009.502 3.103.772 4.107l1.079 4.024c.54 2.008 1.888 3.544 3.484 4.458 1.596.914 3.56 1.199 5.567.659 2.008-.539 3.492-1.836 4.451-3.431.959-1.597 1.326-3.507.787-5.515.547 2.053.727 3.102 1.004 4.128.277 1.027.577 2.046 1.124 4.091.54 2.008 2.008 3.582 3.709 4.586 1.7 1.004 3.768 1.409 5.784.869 2.016-.539 3.761-1.821 4.721-3.544.959-1.723 1.243-3.904.704-5.904l-.015.022z" fill="#FDE3D4"/>
        <path d="M61.86 42.705c.591 2.203 1.123 3.237 1.43 4.33.308 1.095.383 2.256.967 4.46.584 2.202 1.206 3.221 1.469 4.33.262 1.109.292 2.278.884 4.473.592 2.196.824 3.32 1.124 4.42.3 1.102.802 2.144 1.386 4.34.584 2.195.824 3.319 1.146 4.405.322 1.087.69 2.173 1.282 4.376.591 2.203.734 3.342 1.049 4.443.314 1.102.681 2.173 1.273 4.376.592 2.203 1.012 3.267 1.297 4.376.284 1.109.344 2.27.929 4.465a7.69 7.69 0 0 0 3.536 4.616c1.641.944 3.702 1.019 5.71.487M78.734 46.728c.592 2.21 1.064 3.267 1.35 4.376.284 1.11.366 2.27.958 4.481.592 2.21.884 3.32 1.169 4.428.285 1.11.794 2.15 1.386 4.361.592 2.21.81 3.342 1.08 4.45.269 1.11.381 2.264.973 4.474.592 2.21 1.102 3.267 1.386 4.376.285 1.109.345 2.27.937 4.473.592 2.203.847 3.334 1.176 4.428.33 1.094.832 2.143 1.424 4.354.592 2.21.922 3.311 1.191 4.42.27 1.11.622 2.203 1.214 4.414.54 2.015 1.686 3.664 3.38 4.593 1.693.929 3.738 1.146 5.739.614M91.266 34.83c.592 2.203.734 3.342 1.034 4.443.3 1.102.464 2.233 1.056 4.429.592 2.195 1.124 3.236 1.439 4.33.314 1.094.644 2.188 1.229 4.391.584 2.203.599 3.372.884 4.48.284 1.11.652 2.189 1.243 4.392.592 2.203.967 3.281 1.267 4.376.3 1.093.727 2.165 1.311 4.36.584 2.196.779 3.335 1.034 4.444.255 1.108.457 2.232 1.042 4.435.591 2.203.749 3.342 1.071 4.436.322 1.094.644 2.188 1.229 4.383.539 2.008 1.911 3.71 3.589 4.698 1.678.99 3.799 1.192 5.807.652M45.227 37.662c.599 2.233.794 3.38 1.079 4.496.284 1.116.704 2.203 1.303 4.443.6 2.24.817 3.38 1.117 4.496.3 1.116.532 2.248 1.131 4.48.6 2.233 1.117 3.297 1.401 4.414.285 1.116.322 2.307.922 4.54.6 2.233.959 3.335 1.236 4.459.277 1.123.622 2.225 1.222 4.465.599 2.233 1.011 3.32 1.34 4.428.33 1.11.435 2.286 1.035 4.519.6 2.233 1.086 3.311 1.334 4.443.247 1.131.3 2.308.899 4.548.54 2.008 1.94 3.656 3.641 4.63 1.701.967 3.799 1.177 5.8.638" stroke="#F79E84" stroke-width="1.333" stroke-miterlimit="10" stroke-linecap="round"/>
        <path d="M140.531 51.427c-1.229-2.75-1.731-4.181-2.421-5.523-.689-1.34-1.468-2.637-2.697-5.387-.105-.24-.112-.517-.255-.727-.015-.015.158-.164.15-.187-.03-.037-.367.157-.397.112-.809-1.049-1.911-1.67-3.215-1.648-.539.008-1.108-.015-1.633.217 0 0 .053.12.045.128-2.533 1.124-3.784 1.723-5.043 2.3-1.258.577-2.547 1.086-5.08 2.21-2.532 1.124-3.799 1.679-5.057 2.27-1.259.593-2.488 1.237-5.013 2.36l-.038-.066.06.142c-1.843.831-2.817 1.139-3.746 1.55-.929.413-1.836.855-3.671 1.68-1.836.823-2.81 1.16-3.74 1.573-.928.412-1.798.929-3.633 1.753-1.836.824-2.863 1.049-3.777 1.476-.914.427-1.85.817-3.694 1.649-1.843.831-2.757 1.243-3.701 1.61-.944.368-1.843.847-3.694 1.679-.217.097-.6.165-.75-.023a17.879 17.879 0 0 0-6.106-4.937c-2.383-1.184-4.93-2.233-7.613-2.3-2.682-.068-5.29.584-7.815 1.708-1.4.622-2.757 1.34-3.919 2.24-1.16.9-2.315 2.008-3.221 3.184-.907 1.177-1.581 2.586-2.188 3.957-.607 1.37-1.072 2.824-1.319 4.3-.247 1.477-.142 2.96.023 4.466.164 1.506.524 2.9 1.011 4.339a21.484 21.484 0 0 0 1.843 4.06c.727 1.252 1.461 2.563 2.57 3.672.015.015.18-.127.195-.112 1.379 1.206 2.81 2.285 4.353 3.072a17.371 17.371 0 0 0 5.058 1.64c1.716.285 3.56.443 5.335.196 1.776-.248 3.484-.802 5.133-1.529 2.532-1.124 4.847-2.682 6.54-4.653 1.754-2.038 3.073-4.548 3.792-7.11.72-2.563.375-5.283-.075-7.958-.037-.232.277-.585.495-.682 2.105-.951 3.154-1.416 4.233-1.836 1.08-.42 2.196-.741 4.301-1.693 2.105-.952 3.035-1.693 4.091-2.173s2.218-.704 4.316-1.656c2.098-.951 3.087-1.573 4.128-2.083 1.042-.51 2.128-.891 4.234-1.835.262-.12.412.022.532.284 1.506 3.357 1.453 3.38 2.959 6.744.465 1.049 1.417 1.948 2.413 2.33.997.382 2.143 0 3.2-.465 2.098-.936 3.334-3.319 2.397-5.424-1.498-3.357-1.873-3.192-3.379-6.55-.12-.261.112-.74.375-.86.786-.353.839-.24 1.626-.585.262-.12.254.127.374.39 1.244 2.772 1.784 2.532 3.02 5.304.464 1.05 1.079 1.933 2.075 2.316.997.382 2.151.39 3.2-.075 2.098-.937 2.832-3.32 1.903-5.425-1.236-2.772-1.049-2.855-2.293-5.627-.12-.263 0-.607.262-.72.787-.352.937-.022 1.724-.374.262-.12.187-.188.299.075 1.507 3.357 1.522 3.357 3.028 6.713.464 1.05 1.521 1.776 2.517 2.158.997.382 2.031.015 3.08-.45 2.098-.936 3.229-3.116 2.3-5.222l-.007.038zm-71.13 29.349c-2.412 1.072-5.102 1.266-7.567.315-2.466-.952-4.301-2.907-5.373-5.328-1.109-2.487-1.094-5.132-.187-7.493.907-2.36 2.637-4.42 5.125-5.53 2.495-1.108 5.297-1.325 7.658-.411 2.36.906 4.278 2.96 5.387 5.455a9.797 9.797 0 0 1 .172 7.552c-.906 2.36-2.727 4.338-5.215 5.44z" fill="#FFCD6E"/>
        <path d="M72.768 88.307c-1.506.667-3.102 1.356-4.848 1.558-1.746.203-3.402-.022-5.103-.217-1.7-.195-3.334-.652-4.9-1.251-1.566-.6-3.154-1.312-4.428-2.428-1.963-1.963-3.372-3.926-4.121-6.092-.75-2.165-.742-4.6-.247-7.305.27-1.506.54-2.99 1.019-4.406.48-1.416 1.086-2.75 2.09-4.001.854-1.064 1.903-2.18 3.304-3.14 1.117-.771 2.495-1.43 4.032-2.127 1.798-.817 3.529-1.364 5.17-1.559a15.123 15.123 0 0 1 5.394.345c1.679.412 3.38 1.244 4.84 2.3a19.32 19.32 0 0 1 3.882 3.709c.742.937 2.046 1.199 3.132.72 1.843-.832 2.735-1.327 3.672-1.717.936-.39 1.843-.831 3.686-1.663 1.843-.832 2.885-.982 3.821-1.364.937-.382 1.844-.846 3.687-1.678 1.843-.832 2.78-1.229 3.694-1.656.914-.427 1.85-.824 3.694-1.656 1.843-.832 2.705-1.386 3.626-1.813.922-.427 1.918-.675 3.769-1.506 1.851-.832 2.727-1.341 3.634-1.798.907-.457 1.843-.825 3.694-1.649 1.851-.824 2.75-1.304 3.664-1.73.914-.428 1.873-.773 3.724-1.597 1.851-.824 2.735-1.326 3.656-1.753.922-.427 1.754-1.049 3.604-1.866.225-.09.592.053.847.053.652-.015 1.311.344 1.709.869.037.052-.105.15-.068.202.097.143.465.068.502.158 1.079 2.63 1.529 3.986 2.046 5.304.517 1.32.906 2.705 1.985 5.328.457 1.034.09 3.237-.951 3.709-.525.232-2.518 1.498-3.035 1.303-.517-.194-2.218-1.318-2.45-1.828-1.574-3.117-2.046-2.877-3.612-6.002-.277-.629-1.498-2.3-3.027-1.61-1.528.689.083 1.333.667 2.637 1.244 2.772 1.162 2.81 2.398 5.575.457 1.034-1.791 3.289-2.825 3.761-.524.232-1.176.082-1.693-.12-.517-.202-2.885.285-3.11-.225-1.244-2.78-1.498-2.667-2.742-5.44-.585-1.303.082-2.907-1.229-2.322-.787.352-.652.644-1.439.996-1.318.6-.202 1.02.382 2.323 1.507 3.357 1.574 3.327 3.08 6.684.457 1.034-1.903 3.132-2.937 3.604-.525.232-2.915.914-3.439.712-.517-.203-.937-.435-1.169-.945-1.506-3.364-1.521-3.356-3.027-6.713-.285-.637-1.087-2.712-1.716-2.428-2.106.952-3.125 1.499-4.174 1.97-1.049.473-2.053 1.05-4.158 2.002-2.106.951-3.162 1.416-4.174 1.978-1.011.562-1.955 1.28-4.06 2.232-2.106.952-3.223 1.282-4.28 1.754-1.056.472-2.12.914-4.225 1.858-1.072.487-.517 1.843-.33 3.005.3 1.813.255 3.641-.135 5.357-.39 1.716-1.183 3.394-2.165 4.9-.982 1.506-2.203 2.803-3.59 3.971-1.385 1.17-2.869 2.173-4.495 2.908-.06.03-.172-.218-.232-.195l.03.015zm-11.494-25.64c-1.461.666-2.593 1.805-3.664 2.907-1.072 1.101-2.128 2.352-2.675 3.799-.547 1.446-.9 3.05-.84 4.637.06 1.589.57 3.073 1.222 4.541.652 1.461 1.604 2.713 2.735 3.784 1.131 1.072 2.42 1.986 3.911 2.563 1.491.577 3.065.839 4.63.816 1.567-.022 3.103-.39 4.571-1.041 1.484-.674 2.638-1.686 3.664-2.832 1.027-1.147 1.934-2.473 2.495-3.92.563-1.445.765-2.981.735-4.547a11.382 11.382 0 0 0-.99-4.489c-.644-1.453-1.49-2.757-2.592-3.858-1.101-1.102-2.412-1.911-3.903-2.48-1.492-.577-3.02-1.012-4.601-.99-1.581.023-3.117.443-4.586 1.087-.045.022-.06 0-.105.015l-.007.007z" fill="#FCBA44"/>
        <path d="M67.645 83.87c-2.517.967-5.132 1.109-7.672.6-2.54-.51-4.773-1.656-6.864-3.462-.63-.637-1.244-1.251-1.745-1.956 1.573 2.15 3.686 3.874 6.233 4.848 1.627.63 3.35.81 5.036.824 1.686.015 3.386-.24 5.012-.861v.007zm6.474-5.028c.832-1.19 1.394-2.495 1.828-3.866-.434 1.386-1.004 2.683-1.828 3.866zm19.107-21.961c-1.386.63-2.683 1.109-3.814 1.618-1.484.667-2.712 1.297-3.746 1.761-2.863 1.297-4.002 1.91-3.485 1.701.375-.15 1.671-.644 3.814-1.618 1.042-.472 2.218-1.222 3.664-1.919 1.117-.539 2.368-1.123 3.747-1.753 2-.906 3.057-1.236 4.06-1.693 1.005-.457 2.031-.84 4.032-1.746 2-.907 2.93-1.514 3.941-1.948 1.012-.435 2.046-.81 4.046-1.716 2.001-.907 3.057-1.229 4.069-1.656 1.011-.427 2.008-.899 4.016-1.806 1.431-.651 3.357-1.573 5.073-2.375 3.079-1.439 5.409-2.63 2.839-1.46-2.015.913-3.004 1.408-4.016 1.865-1.011.457-2 .951-4.008 1.865-2.009.915-3.11 1.17-4.129 1.611-1.019.442-1.978 1.005-3.994 1.919-2.015.914-3.072 1.266-4.068 1.753-.997.487-1.903 1.154-3.919 2.068-2.016.914-3.057 1.311-4.076 1.76-1.02.45-2.038.855-4.054 1.761l.008.008zM76.472 68.135c-.195-1.041-.442-2.105-.892-3.117-.434-.981-1.139-1.768-1.768-2.607 1.334 1.43 3.537 1.79 5.35 1.026-1.799.847-2.885 2.743-2.698 4.698h.008zM48.666 71.83c-.09-1.169.045-2.338.262-3.521.278-1.552.735-3.043 1.461-4.399.727-1.356 1.664-2.652 2.825-3.694-1.618 1.454-2.914 3.26-3.686 5.253-.772 1.993-1.02 4.196-.854 6.361h-.008zm6.024-12.655c.675-.465 1.439-.772 2.203-1.117.053-.022.06 0 .113-.022.434-.195.854-.487 1.303-.63-.442.15-.936.3-1.363.488-.053.022-.015.105-.075.127-.765.345-1.514.697-2.18 1.161v-.007z" fill="#fff"/>
        <path d="M67.645 83.87c-2.517.967-5.132 1.109-7.672.6-2.54-.51-4.773-1.656-6.864-3.462-.63-.637-1.244-1.251-1.745-1.956 1.573 2.15 3.686 3.874 6.233 4.848 1.627.63 3.35.81 5.036.824 1.686.015 3.386-.24 5.012-.861v.007zm6.474-5.028c.832-1.19 1.394-2.495 1.828-3.866-.434 1.386-1.004 2.683-1.828 3.866zm19.107-21.961c-1.386.63-2.683 1.109-3.814 1.618-1.484.667-2.712 1.297-3.746 1.761-2.863 1.297-4.002 1.91-3.485 1.701.375-.15 1.671-.644 3.814-1.618 1.042-.472 2.218-1.222 3.664-1.919 1.117-.539 2.368-1.123 3.747-1.753 2-.906 3.057-1.236 4.06-1.693 1.005-.457 2.031-.84 4.032-1.746 2-.907 2.93-1.514 3.941-1.948 1.012-.435 2.046-.81 4.046-1.716 2.001-.907 3.057-1.229 4.069-1.656 1.011-.427 2.008-.899 4.016-1.806 1.431-.651 3.357-1.573 5.073-2.375 3.079-1.439 5.409-2.63 2.839-1.46-2.015.913-3.004 1.408-4.016 1.865-1.011.457-2 .951-4.008 1.865-2.009.915-3.11 1.17-4.129 1.611-1.019.442-1.978 1.005-3.994 1.919-2.015.914-3.072 1.266-4.068 1.753-.997.487-1.903 1.154-3.919 2.068-2.016.914-3.057 1.311-4.076 1.76-1.02.45-2.038.855-4.054 1.761l.008.008zM76.472 68.135c-.195-1.041-.442-2.105-.892-3.117-.434-.981-1.139-1.768-1.768-2.607 1.334 1.43 3.537 1.79 5.35 1.026-1.799.847-2.885 2.743-2.698 4.698h.008zM48.666 71.83c-.09-1.169.045-2.338.262-3.521.278-1.552.735-3.043 1.461-4.399.727-1.356 1.664-2.652 2.825-3.694-1.618 1.454-2.914 3.26-3.686 5.253-.772 1.993-1.02 4.196-.854 6.361h-.008zm6.024-12.655c.675-.465 1.439-.772 2.203-1.117.053-.022.06 0 .113-.022.434-.195.854-.487 1.303-.63-.442.15-.936.3-1.363.488-.053.022-.015.105-.075.127-.765.345-1.514.697-2.18 1.161v-.007z" stroke="#fff" stroke-width="1.333" stroke-linecap="round" stroke-linejoin="round"/>
        <path d="M135.258 57.136c.996.382 2.12.404 3.169-.06 2.098-.937 3.11-3.41 2.173-5.515-1.229-2.75-1.963-4.068-2.562-5.455-.6-1.386-1.192-2.764-2.421-5.514M124.602 60.448a4.081 4.081 0 0 0 3.154-.067c2.098-.937 2.997-3.334 2.061-5.44-1.237-2.772-1.034-2.862-2.278-5.634-.12-.263-.135-.495.127-.615.525-.235 1.049-.467 1.574-.697.262-.12.494.015.614.278M114.98 66.143c.997.382 2.083.307 3.14-.157 2.098-.937 3.124-3.312 2.195-5.417-1.498-3.357-1.663-3.29-3.162-6.647-.12-.262.195-.45.465-.569.787-.352.764-.397 1.558-.75.263-.12.577-.157.697.106M48.813 79.33c.989 2.226 2.495 4.084 4.203 5.71 1.708 1.626 3.634 3.057 5.904 3.934 2.27.876 4.66 1.31 7.021 1.25 2.36-.059 4.736-.599 6.953-1.588 2.533-1.123 4.863-2.63 6.564-4.593 1.7-1.963 2.832-4.615 3.552-7.17.712-2.54.809-5.238.36-7.92-.038-.232.12-.495.337-.592 2.105-.952 3.199-1.319 4.248-1.806 1.049-.487 2.008-1.154 4.114-2.098 2.105-.944 3.296-1.101 4.36-1.55 1.064-.45 2.098-.967 4.204-1.919 2.105-.952 3.079-1.596 4.128-2.075 1.049-.48 2.106-.945 4.211-1.896.262-.12.487.015.607.277" stroke="#E19622" stroke-width="1.333" stroke-miterlimit="10" stroke-linecap="round"/>
        <path d="M74.444 67.95c1.109 2.494 1.161 5.17.255 7.53-.907 2.36-2.803 4.188-5.29 5.297-2.413 1.071-4.99 1.259-7.456.307-2.465-.952-4.413-2.742-5.484-5.155" stroke="#E19622" stroke-width="1.333" stroke-miterlimit="10" stroke-linecap="round"/>
        <path d="M125.113 52.22c1.139-1.08 1.926-2.36 2.308-3.77.382-1.408.539-3.011.164-4.472a8.91 8.91 0 0 0-2.202-3.934c-1.491-1.566-2.338-2.24-3.08-3.035-.742-.794-1.543-1.498-3.027-3.057-1.484-1.558-2.173-2.397-2.915-3.177-.742-.779-1.498-1.55-2.982-3.117-1.483-1.566-2.173-2.397-2.915-3.184-.741-.787-1.513-1.536-2.989-3.095-1.476-1.558-2.256-2.323-2.982-3.117-.727-.794-1.514-1.536-2.997-3.102-1.484-1.566-2.099-2.472-2.818-3.274-.72-.802-1.476-1.574-2.96-3.14-1.19-1.25-2.465-2.36-3.888-3.229-1.424-.87-3.08-1.431-4.676-1.896-1.596-.464-3.26-.996-4.945-1.004-1.686-.007-3.364.367-5.005.765a20.31 20.31 0 0 0-4.698 1.79c-1.514.795-2.93 1.619-4.181 2.81-1.251 1.184-2.233 2.585-3.117 3.994-.884 1.408-1.82 2.93-2.293 4.525-.472 1.596-.532 3.357-.554 5.05-.023 1.694.262 3.357.652 4.998s.981 3.17 1.82 4.653c.84 1.484 1.686 2.885 2.87 4.136 1.184 1.252 2.578 2.226 3.956 3.125 1.379.899 2.967 1.55 4.57 2.023 1.604.472 3.26.734 4.961.787 1.7.052 3.402.09 5.043-.3 1.64-.39 3.207-1.027 4.713-1.858 1.506-.832 2.69-1.963 3.94-3.147.533-.502 1.05-.862 1.507-1.409 2.997 2.638 2.787 2.802 5.537 5.702s2.862 2.787 5.612 5.687c2.75 2.9 2.533 3.11 5.283 6.01 1.071 1.13 2.465 1.888 3.881 2.307 1.416.42 3.005.405 4.481.075s2.772-1.034 3.903-2.105l.023-.015z" fill="#FDE3D4"/>
        <path d="M67.531 35.51c1.192 1.251 2.698 2.098 4.121 2.952 1.424.854 2.997 1.58 4.593 2.053 1.596.472 3.282.712 4.96.75 1.679.037 3.35-.136 4.99-.525 1.642-.39 3.208-.937 4.691-1.761 1.484-.824 2.892-1.693 4.144-2.877.532-.502.832-.907 1.289-1.461 2.997 2.637 2.974 2.622 5.724 5.522 2.75 2.9 2.555 3.087 5.305 5.987 2.75 2.9 2.705 2.937 5.455 5.837 1.626 1.715 3.911 2.547 6.106 2.584 2.196.038 4.346-.876 6.055-2.502" stroke="#F79E84" stroke-width="1.333" stroke-miterlimit="10" stroke-linecap="round"/>
        <path d="M119.248 39.871c-1.701-.045-3.282.697-4.421 1.783-1.139 1.087-1.813 2.638-1.858 4.331M104.93 34.348c2.023.053 3.559-1.626 3.611-3.649M102.969 31.996c2.023.052 3.716-1.461 3.769-3.484" stroke="#F79E84" stroke-width="1.333" stroke-miterlimit="10" stroke-linecap="round"/>
    </g>
    <defs>
        <clipPath id="9fqcalscna">
            <path fill="#fff" d="M0 0h245.067v247H0z"/>
        </clipPath>
    </defs>
</svg>
