<svg width="144" height="205" viewBox="0 0 144 205" fill="none" xmlns="http://www.w3.org/2000/svg">
    <g clip-path="url(#iqwboxz38a)">
        <path d="M131.469 123.172c0-2.884-1.162-5.378-3.051-7.266-1.889-1.889-4.382-2.987-7.266-2.987-.038 0-.038-.242-.075-.242-1.935 0-3.693.689-5.247 1.61-1.554.921-2.996 2.223-3.898 3.861-.903-1.638-2.271-2.94-3.88-3.889-1.61-.949-3.331-1.61-5.266-1.61-.037 0-.037.066-.075.066-1.944 0-3.814.465-5.368 1.386-1.554.921-2.884 2.186-3.787 3.824-.911-1.638-2.288-2.708-3.898-3.657-1.61-.949-3.33-1.665-5.275-1.665-3.145 0-5.908 1.498-7.834 3.684-1.34-2.763.13-3.042.13-6.122 0-3.079-.362-3.07-.362-6.15 0-3.079.335-3.07.335-6.14s-.15-3.07-.15-6.15c0-3.08.177-3.08.177-6.15 0-3.07.019-3.08.019-6.15 0-2.204-.567-4.13-1.284-5.721-.856-1.917-2.168-3.424-3.768-4.41-1.6-.986-3.563-1.442-5.62-1.442-2.056 0-4 .455-5.619 1.451-1.619.996-2.707 2.577-3.573 4.494-.716 1.6-1.32 3.424-1.32 5.629 0 3.321.157 3.321.157 6.642 0 3.322-.307 3.322-.307 6.643 0 3.322.354 3.322.354 6.634 0 3.312.037 3.321.037 6.643 0 3.321-.037 3.321-.037 6.643 0 3.321-.102 3.321-.102 6.643 0 3.321-.196 3.321-.196 6.643 0 3.321-.065 3.321-.065 6.633s.047 3.322.047 6.643c0 3.322-.056 3.322-.056 6.652 0 3.331.381 3.322 0 6.625-.819.456-1.359.939-2.066 1.451-2.605-2.558-2.456-2.707-4.735-5.554-2.28-2.847-2.261-2.875-4.55-5.722-2.289-2.847-2.01-3.08-4.298-5.927-2.289-2.847-2.512-2.67-4.801-5.526-1.833-2.289-4.364-3.657-7.07-3.954-2.708-.298-5.406.577-7.695 2.409-2.289 1.833-3.712 4.289-4.01 6.988-.298 2.698.549 5.424 2.382 7.703 2.093 2.605 2.149 2.568 4.242 5.173 2.094 2.605 1.945 2.735 4.038 5.34s2.186 2.531 4.28 5.145c2.093 2.615 2.028 2.661 4.121 5.266 2.094 2.605 2.057 2.643 4.15 5.248 2.093 2.605 1.954 2.726 4.047 5.331 2.093 2.605 2.177 2.549 4.27 5.154 2.094 2.605 2.103 2.605 4.196 5.22 1.098 1.367 2.485 2.4 3.797 3.451 1.311 1.052 2.79 2.029 4.307 2.782 1.554 1.572 3.145 3.135 4.922 4.447 1.777 1.303 3.572 2.633 5.545 3.647 1.972 1.015 4.038 1.824 6.16 2.512 2.12.689 4.26 1.154 6.465 1.508 2.205.353 4.364.409 6.615.409 2.252 0 4.41-.214 6.55-.558 2.196-.344 4.391-.633 6.457-1.303 2.065-.67 4.01-1.833 5.954-2.819 1.945-.986 3.927-1.991 5.694-3.275a41.273 41.273 0 0 0 4.996-4.279c1.545-1.554 3.108-3.136 4.401-4.913 1.293-1.777 2.307-3.74 3.312-5.703s1.991-3.926 2.67-6.029c.68-2.103 1.015-4.261 1.359-6.457.344-2.196.763-4.326.763-6.559 0-.195-.391-.381-.41-.577.019-.242.307-.474.307-.716 0-3.219-.186-3.219-.186-6.438 0-3.22-.018-3.22-.018-6.439s.242-3.219.242-6.438-.038-3.219-.038-6.438.047-3.229 0-6.448c-.046-3.219-.26-3.219-.26-6.447l.018.037z" fill="#CEC5F2"/>
        <path d="M142.588 58.512c.345 2.26.242 4.55.401 6.791.158 2.243.446 4.522.437 6.774-.009 2.251 0 4.55-.196 6.791-.195 2.243-.716 4.485-1.079 6.709-.363 2.223-.902 4.428-1.442 6.624-.54 2.196-.893 4.456-1.6 6.606-.707 2.149-1.796 4.168-2.67 6.242-.875 2.075-1.815 4.141-2.857 6.141-1.042 2-1.879 4.14-3.079 6.057-1.2 1.916-2.521 3.777-3.861 5.601-1.34 1.823-2.708 3.647-4.187 5.359-1.479 1.711-3.312 3.098-4.922 4.689-1.609 1.591-3.2 3.182-4.94 4.642a88.55 88.55 0 0 1-5.34 4.178c-1.843 1.321-3.694 2.605-5.638 3.777-1.945 1.172-3.806 2.465-5.843 3.48-2.038 1.014-4.103 1.907-6.215 2.763-2.112.856-4.308 1.367-6.476 2.056-2.167.688-4.289 1.386-6.512 1.898-2.224.512-4.392 1.079-6.643 1.423" stroke="#CEC5F2" stroke-width="1.333" stroke-miterlimit="10"/>
        <path d="M46.258 1.248C48.444.913 50.62.755 52.789.625c2.168-.13 4.382-.205 6.56-.13 2.176.074 4.372.306 6.53.576 2.159.27 4.327.652 6.457 1.126 2.13.474 4.299.893 6.383 1.563 2.084.67 4.233 1.247 6.243 2.103 2.01.856 3.991 1.86 5.917 2.902 1.926 1.043 3.619 2.485 5.443 3.703 1.823 1.22 3.749 2.29 5.461 3.666 1.712 1.377 3.293 2.894 4.866 4.429 1.572 1.535 3.2 3.014 4.624 4.689 1.423 1.675 2.642 3.507 3.907 5.303 1.266 1.796 2.559 3.563 3.657 5.48 1.098 1.917 2.149 3.833 3.07 5.833.921 2 1.544 4.103 2.27 6.188.726 2.084 1.452 4.13 1.982 6.28.53 2.149.865 4.289 1.2 6.475.335 2.186.512 4.382.642 6.55.13 2.205-.019 4.391-.093 6.568-.074 2.177-.149 4.392-.419 6.55a69.684 69.684 0 0 1-1.125 6.476c-.475 2.13-.819 4.335-1.489 6.42a72.366 72.366 0 0 1-2.326 6.168c-.856 2.009-1.963 3.935-3.005 5.861-1.042 1.926-2.335 3.703-3.554 5.527-1.219 1.823-2.466 3.609-3.843 5.321-1.377 1.712-2.791 3.368-4.326 4.941-1.535 1.572-3.061 3.144-4.726 4.568-1.666 1.423-3.377 2.8-5.173 4.066-1.796 1.265-3.759 2.232-5.666 3.33-1.907 1.098-3.694 2.382-5.703 3.294-2.01.912-4.094 1.544-6.187 2.27a71.23 71.23 0 0 1-6.3 1.87c-2.139.53-4.279.791-6.475 1.126" stroke="#CEC5F2" stroke-width="1.333" stroke-miterlimit="10"/>
        <path d="M48.435 15.547c2.28-.344 4.559-.493 6.81-.558 2.252-.065 4.568.14 6.81.344 2.243.205 4.513.596 6.727 1.07 2.215.475 4.522.763 6.671 1.507 2.15.745 4.298 1.591 6.345 2.587 2.047.995 3.89 2.39 5.797 3.628 1.907 1.238 3.805 2.503 5.554 3.964 1.749 1.46 3.266 3.144 4.838 4.81 1.572 1.665 3.145 3.284 4.503 5.126a56.21 56.21 0 0 1 3.721 5.722c1.126 1.99 2.196 3.982 3.071 6.103.874 2.121 1.544 4.27 2.158 6.485.614 2.214.958 4.42 1.303 6.699.344 2.28.763 4.53.837 6.782.075 2.252-.195 4.568-.4 6.82-.205 2.251-.419 4.559-.893 6.764-.475 2.205-1.293 4.372-2.038 6.512-.744 2.14-1.33 4.382-2.326 6.43-.995 2.046-2.4 3.879-3.637 5.786-1.238 1.908-2.559 3.75-4.02 5.499-1.46 1.749-2.949 3.452-4.614 5.015-1.666 1.563-3.303 3.144-5.145 4.503-1.843 1.358-3.899 2.335-5.89 3.461-1.99 1.125-3.926 2.288-6.047 3.163-2.121.875-4.298 1.414-6.513 2.028-2.214.614-4.335 1.321-6.624 1.675-2.289.353-4.568.307-6.82.372-2.251.065-4.568.121-6.82-.084-2.251-.204-4.577-.335-6.791-.809-2.215-.475-4.336-1.433-6.485-2.177-2.15-.745-4.373-1.359-6.41-2.354-2.038-.996-3.954-2.28-5.862-3.517-1.916-1.237-3.786-2.531-5.536-3.991-1.749-1.461-3.442-2.987-5.014-4.643-1.573-1.656-2.847-3.545-4.196-5.377-1.35-1.833-2.624-3.694-3.75-5.685-1.125-1.991-2.195-3.973-3.07-6.094-.875-2.121-1.851-4.168-2.465-6.392-.615-2.223-.67-4.484-1.015-6.773-.344-2.289-.604-4.53-.679-6.782-.074-2.252-.102-4.569.103-6.82.204-2.252.586-4.531 1.06-6.745a56.04 56.04 0 0 1 1.824-6.578c.744-2.15 1.498-4.317 2.493-6.364.996-2.047 2.224-3.982 3.461-5.89 1.238-1.907 2.624-3.72 4.075-5.47a56.098 56.098 0 0 1 4.67-4.968c1.657-1.563 3.425-2.987 5.267-4.336 1.842-1.349 3.712-2.614 5.703-3.74 1.991-1.126 3.926-2.316 6.047-3.2 2.122-.884 4.299-1.48 6.513-2.094a56.11 56.11 0 0 1 6.68-1.432l.019.018z" stroke="#CEC5F2" stroke-width="1.333" stroke-miterlimit="10"/>
        <path d="M50.662 30.2c2.215-.335 4.373-1.293 6.55-1.284 2.177.01 4.373 1.033 6.522 1.386 2.15.354 4.54.121 6.615.81 2.075.688 4.056 1.88 6.001 2.893 1.945 1.014 3.312 2.94 5.08 4.243 1.768 1.302 4.196 1.842 5.74 3.414 1.545 1.573 1.945 4.066 3.238 5.862 1.293 1.795 3.629 2.902 4.624 4.893.996 1.991.512 4.494 1.182 6.615.67 2.122 2.716 3.843 3.051 6.057.335 2.215-.009 4.531-.028 6.699-.009 2.224-.13 4.475-.483 6.634-.354 2.158-.484 4.521-1.173 6.596-.688 2.075-1.526 4.28-2.54 6.234-1.014 1.953-2.233 3.963-3.544 5.73-1.312 1.768-3.666 2.717-5.23 4.262-1.562 1.544-2.772 3.554-4.567 4.847-1.777 1.275-3.759 2.41-5.74 3.396a43.595 43.595 0 0 1-6.188 2.484c-2.13.679-4.298 1.042-6.512 1.377-2.215.335-4.448-.326-6.615-.335-2.168-.009-4.308-.4-6.457-.753-2.15-.354-4.252-.735-6.327-1.433-2.075-.698-3.907-1.777-5.852-2.782a40.154 40.154 0 0 1-5.49-3.396c-1.767-1.302-4.428-1.572-5.981-3.135-1.554-1.563-2.95-3.378-4.243-5.173-1.293-1.796-2.103-3.917-3.098-5.899-.996-1.982-2.103-3.926-2.773-6.047-.67-2.122-1.014-4.308-1.349-6.522-.335-2.215.623-4.448.642-6.615.019-2.168-1.405-4.55-1.051-6.708.353-2.159 1.982-4.094 2.67-6.169.689-2.075 2.084-3.796 3.098-5.74 1.014-1.945 1.424-4.206 2.726-5.973 1.303-1.768 2.521-3.647 4.094-5.192 1.572-1.544 3.386-2.819 5.191-4.103 1.805-1.284 3.582-2.568 5.564-3.563 1.982-.996 3.917-2.121 6.038-2.791 2.122-.67 4.392-.465 6.606-.81l.01-.009z" stroke="#CEC5F2" stroke-width="1.333" stroke-miterlimit="10"/>
        <path d="M55.598 43.922c2.466-.12 4.847.28 7.145.773 2.298.493 4.69 1.2 6.81 2.288 2.122 1.089 4.039 2.606 5.816 4.215 1.777 1.61 3.433 3.359 4.735 5.387 1.303 2.028 2.14 4.242 2.885 6.568.744 2.326 1.228 4.569 1.34 7.025.11 2.456.11 4.884-.382 7.182a27.96 27.96 0 0 1-2.438 6.792c-1.088 2.112-2.558 4.103-4.177 5.87-1.62 1.768-3.498 3.285-5.527 4.588-2.028 1.302-4.121 2.474-6.438 3.21-2.317.734-4.652.855-7.117.976-2.466.121-4.848.056-7.146-.437s-4.745-1.135-6.856-2.224c-2.112-1.088-4.15-2.54-5.927-4.15-1.777-1.609-3.098-3.656-4.41-5.684-1.312-2.028-2.596-4.047-3.34-6.373-.744-2.326-1.014-4.652-1.135-7.117-.121-2.466.279-4.82.781-7.118.503-2.298 1.015-4.763 2.103-6.875 1.089-2.112 2.707-3.982 4.317-5.76 1.61-1.776 3.312-3.507 5.34-4.819 2.029-1.311 4.29-2.074 6.606-2.819 2.317-.744 4.559-1.404 7.015-1.526v.028z" stroke="#CEC5F2" stroke-width="1.333" stroke-miterlimit="10"/>
        <path d="M122.167 152.506c0-3.219-.037-3.219-.037-6.438s-.028-3.219-.028-6.438.242-3.219.242-6.438-.177-3.219-.177-6.438c0-3.22.112-3.22.112-6.448s-.066-3.219-.066-6.448c0-2.884-1.023-5.554-2.921-7.452-1.898-1.898-4.568-3.024-7.452-3.024-.038 0-.038-.083-.075-.083-1.935 0-3.87.437-5.424 1.367-1.554.931-2.819 2.605-3.721 4.234-.903-1.638-2.168-3.21-3.768-4.159-1.6-.949-3.434-1.396-5.378-1.396-.037 0-.037-.121-.075-.121-1.944 0-3.665.865-5.219 1.796-1.554.93-3.033 2.009-3.935 3.647-.912-1.638-2.243-2.856-3.852-3.805-1.61-.949-3.377-1.628-5.331-1.628-3.145 0-5.787 1.488-7.704 3.675-1.34-2.764-.14-2.987-.14-6.057 0-3.07.028-3.07.028-6.15 0-3.08-.074-3.07-.074-6.14s.065-3.07.065-6.15c0-3.08-.251-3.08-.251-6.15 0-3.07.223-3.08.223-6.15 0-2.205-.549-4.066-1.265-5.657-.856-1.916-1.963-3.582-3.563-4.568-1.6-.986-3.629-1.172-5.685-1.172-2.056 0-3.852.52-5.47 1.516-1.62.996-2.866 2.336-3.722 4.252a13.51 13.51 0 0 0-1.21 5.638c0 3.322-.195 3.322-.195 6.643 0 3.322-.065 3.322-.065 6.643 0 3.322.046 3.322.046 6.634 0 3.312-.055 3.321-.055 6.643v6.643c0 3.321.167 3.321.167 6.642 0 3.322.223 3.322.223 6.643 0 3.322-.037 3.322-.037 6.634 0 3.312-.363 3.321-.363 6.643 0 3.321.28 3.321.28 6.652s.827 3.452-.075 6.652a18.802 18.802 0 0 0-5.257 4.392c-1.553 1.87-2.549 3.87-2.549 6.224s.316 4.401.651 6.541c.335 2.139.921 4.289 1.591 6.354.67 2.066 1.34 4.196 2.336 6.141.995 1.944 2.251 3.768 3.535 5.535 1.293 1.777 2.652 3.499 4.205 5.043 1.554 1.544 3.191 3.024 4.968 4.317 1.778 1.293 3.564 2.605 5.527 3.61s4.038 1.749 6.14 2.437a40.591 40.591 0 0 0 6.41 1.526c2.197.345 4.346.261 6.579.261 2.233 0 4.4-.158 6.54-.493 2.14-.335 4.354-.707 6.42-1.387 2.065-.679 4.214-1.367 6.159-2.353 1.944-.987 3.833-2.215 5.601-3.508 1.768-1.293 3.424-2.773 4.977-4.326 1.554-1.554 2.903-3.294 4.196-5.071 1.294-1.777 2.401-3.656 3.396-5.619.996-1.963 2.056-3.889 2.736-5.992.679-2.103.865-4.28 1.209-6.475.344-2.196.698-4.299.698-6.532 0-.195-.028-.381-.037-.577.018-.241-.103-.474-.103-.716l.019-.019z" fill="#FDE3D4"/>
        <path d="M10.791 120.291c-2.288 1.833-3.889 4.326-4.186 7.024-.298 2.699.753 5.462 2.586 7.751 2.094 2.605 1.852 2.8 3.945 5.405 2.093 2.605 2.363 2.391 4.457 5.006 2.093 2.614 2.074 2.623 4.168 5.238 2.093 2.614 2.093 2.614 4.186 5.219 2.094 2.605 2.14 2.568 4.234 5.182 2.093 2.605 2.12 2.587 4.214 5.201 2.094 2.614 2.103 2.605 4.205 5.219 2.094 2.615 1.852 2.81 3.945 5.415 1.34 1.675 3.043 2.912 4.69 4.122 1.646 1.209 3.48 2.307 5.405 3.052a24.427 24.427 0 0 0 6.038 1.479c2.066.232 4.15.186 6.224-.13 2.075-.317 4.14-.661 6.076-1.508 1.935-.846 3.73-1.888 5.405-3.228 1.675-1.34 3.108-2.931 4.317-4.578 1.21-1.646 2.317-3.572 3.061-5.498.745-1.926 1.284-4.047 1.507-6.113.224-2.065-.195-4.168-.511-6.243a23.113 23.113 0 0 0-1.73-5.954c-.857-1.935-1.769-3.721-3.108-5.387-1.34-1.665-2.903-3.052-4.55-4.261a23.874 23.874 0 0 0-5.452-2.987c-1.926-.744-3.945-1.507-6.02-1.73-2.074-.223-4.158.158-6.233.474-2.075.317-4.112.642-6.057 1.498-1.944.856-3.758 1.824-5.424 3.164-.707.567-1.265 1.33-1.898 1.963-2.66-2.596-2.382-2.857-4.708-5.759-2.325-2.903-2.251-2.968-4.577-5.871-2.326-2.903-2.354-2.884-4.69-5.787-2.334-2.903-2.38-2.866-4.716-5.768-1.833-2.289-4.392-3.461-7.09-3.759-2.698-.298-5.433.316-7.713 2.149z" fill="#FDE3D4"/>
        <path d="M54.298 139.075c-2.828.865-5.49 2.298-7.936 4.261-.707.567-1.563 1.2-2.187 1.833-2.66-2.596-2.149-3.071-4.475-5.964-2.326-2.894-2.465-2.791-4.791-5.694-2.326-2.903-2.187-3.024-4.512-5.927-2.326-2.902-2.512-2.754-4.848-5.656-1.833-2.289-4.326-3.638-7.024-3.936-2.698-.298-5.592.279-7.88 2.121" stroke="#F79E84" stroke-width="1.333" stroke-miterlimit="10" stroke-linecap="round"/>
        <path d="m119.988 174.009-1.265-5.173c-.065-.261-.093-.531.177-.568 1.755-.285 3.507-.57 5.256-.856.27-.046.233-.204.168-.465-.633-2.586-.586-2.596-1.219-5.182-.065-.261.289-.493.549-.54 2.289-.372 2.27-.484 4.559-.856.419-.065.586-.642.233-.874-2.857-1.889-3.024-1.647-5.88-3.536-2.857-1.888-2.829-1.926-5.694-3.824-2.866-1.898-2.652-2.195-5.508-4.093-2.857-1.898-2.95-1.749-5.815-3.647-2.866-1.898-2.94-1.768-5.796-3.657-2.857-1.888-2.792-1.991-5.648-3.879-2.856-1.889-2.754-2.057-5.61-3.945-2.856-1.889-2.884-1.852-5.74-3.74-2.857-1.889-3.024-1.638-5.88-3.536-2.857-1.898-2.8-1.981-5.657-3.87-2.856-1.889-2.847-1.917-5.703-3.805-2.857-1.889-2.782-2.01-5.639-3.908-2.856-1.898-2.902-1.824-5.759-3.722-2.856-1.898-2.79-2-5.647-3.889-2.856-1.888-2.884-1.851-5.75-3.749-2.865-1.898-2.893-1.842-5.759-3.74-2.865-1.898-2.847-1.907-5.712-3.805-.214-.14-.698-.13-.847.083-1.712 2.587-1.368 2.82-3.08 5.406-1.711 2.586-1.749 2.568-3.47 5.154-1.721 2.587-2.028 2.382-3.75 4.978-1.72 2.596-1.423 2.782-3.144 5.377-.14.214-.335.586-.12.735 2.855 1.889 2.967 1.722 5.823 3.62 2.856 1.898 2.82 1.944 5.676 3.833 2.856 1.888 2.8 1.972 5.656 3.87 2.857 1.898 2.912 1.805 5.778 3.694 2.865 1.888 2.875 1.87 5.731 3.758 2.856 1.889 2.95 1.759 5.806 3.648 2.856 1.888 2.865 1.879 5.721 3.768 2.857 1.888 2.792 1.981 5.648 3.879s2.866 1.87 5.731 3.768c2.866 1.898 2.763 2.038 5.62 3.926 2.856 1.889 3.023 1.647 5.88 3.536 2.856 1.889 2.716 2.103 5.573 4.001 2.856 1.898 2.837 1.916 5.703 3.814 2.865 1.898 2.912 1.805 5.768 3.703s2.82 1.954 5.685 3.852c2.865 1.898 2.819 1.963 5.684 3.852 2.866 1.888 2.987 1.702 5.852 3.6.354.233.912-.074.81-.484-.549-2.251-.903-2.167-1.451-4.419-.066-.26.288-.809.558-.847 2.633-.428 2.633-.372 5.266-.8.27-.046.66-.176.595-.437l.037-.009z" fill="#FFCD6E"/>
        <path d="M16.93 116.801c2.856 1.888 2.968 1.721 5.824 3.619 2.856 1.898 2.8 1.982 5.657 3.87 2.856 1.889 2.79 1.991 5.647 3.889 2.856 1.898 3.052 1.61 5.908 3.499 2.856 1.888 2.651 2.205 5.508 4.093 2.856 1.889 2.847 1.908 5.703 3.796 2.856 1.889 3.042 1.619 5.899 3.508 2.856 1.888 2.8 1.972 5.656 3.861 2.857 1.888 2.894 1.842 5.75 3.731 2.856 1.888 2.82 1.953 5.675 3.842 2.857 1.889 2.866 1.879 5.731 3.768 2.866 1.889 2.736 2.075 5.592 3.973 2.856 1.898 3.014 1.665 5.87 3.554 2.857 1.889 2.792 1.991 5.648 3.88 2.856 1.888 2.987 1.711 5.843 3.6s2.819 1.954 5.685 3.852c2.865 1.898 2.856 1.907 5.712 3.805M19.203 113.375c2.856 1.889 2.866 1.87 5.731 3.768 2.866 1.898 3.015 1.656 5.871 3.545 2.856 1.888 2.763 2.037 5.62 3.926 2.856 1.889 2.79 2 5.647 3.889 2.856 1.889 2.847 1.917 5.703 3.805 2.856 1.889 2.977 1.712 5.834 3.601 2.856 1.888 2.781 2.009 5.638 3.907 2.856 1.898 2.921 1.796 5.777 3.685 2.857 1.888 2.847 1.898 5.704 3.796 2.856 1.888 2.828 1.944 5.684 3.833 2.856 1.889 2.884 1.861 5.74 3.749 2.857 1.889 2.764 2.038 5.62 3.926 2.856 1.889 3.005 1.675 5.861 3.564 2.857 1.889 2.903 1.823 5.76 3.721 2.856 1.898 2.726 2.094 5.591 3.982 2.866 1.889 2.875 1.88 5.731 3.778 2.857 1.898 2.959 1.758 5.815 3.647" stroke="#E19622" stroke-width="1.333" stroke-miterlimit="10"/>
        <path d="M24.168 105.877c2.856 1.889 2.698 2.14 5.554 4.028 2.857 1.889 2.959 1.75 5.815 3.638 2.857 1.889 2.987 1.703 5.843 3.601s2.847 1.916 5.703 3.805c2.857 1.889 2.661 2.187 5.517 4.084 2.857 1.898 2.95 1.75 5.806 3.648 2.856 1.898 2.968 1.73 5.824 3.628 2.856 1.898 2.782 2 5.638 3.889 2.857 1.889 2.764 2.038 5.62 3.926 2.856 1.889 2.93 1.777 5.796 3.666 2.856 1.889 2.763 2.037 5.62 3.926 2.856 1.889 2.93 1.786 5.787 3.684 2.856 1.898 2.912 1.824 5.768 3.713 2.856 1.888 2.847 1.907 5.703 3.796 2.856 1.888 2.884 1.86 5.741 3.758 2.856 1.898 2.874 1.87 5.74 3.768 2.866 1.898 2.856 1.898 5.722 3.796" stroke="#FCBA44" stroke-width="1.333" stroke-miterlimit="10"/>
        <path d="M128.303 159.968c-2.698.438-2.754.093-5.452.531-.269.046-.372.418-.316.688.633 2.587.651 2.587 1.284 5.173.065.261-.177.484-.447.521-2.633.428-2.586.689-5.21 1.116-.27.047-.335.066-.27.326l1.266 5.173c.065.261-.242.568-.512.614-2.633.428-2.67.186-5.294.614-.27.047-.493.558-.437.819.651 2.651.735 2.633 1.386 5.284.047.205.242.428.456.428 3.694-.009 3.694-.269 7.387-.279 3.694-.009 3.694-.018 7.397-.028 3.703-.009 3.693.112 7.396.103.335 0 .382-.205.261-.512-1.433-3.405-1.368-3.433-2.801-6.838-1.432-3.405-1.414-3.415-2.847-6.829-1.432-3.415-1.2-3.508-2.633-6.913-.083-.195-.409-.037-.623 0l.009.009z" fill="#FFE7C4"/>
        <path d="M118.127 167.758c-.27.046-.4.335-.335.605.633 2.586.521 2.614 1.154 5.2.065.261 0 .698-.27.745-2.633.428-2.652.279-5.285.707-.269.046-.353.242-.288.502.651 2.652.689 2.642 1.34 5.294.046.205.102.177.316.177 3.694-.009 3.694.009 7.387 0 3.694-.009 3.703.158 7.397.149 3.693-.01 3.693 0 7.396-.019" stroke="#FCBA44" stroke-width="1.333" stroke-miterlimit="10"/>
        <path d="M132.996 171.683c-.846 1.275-.874 1.247-1.721 2.522-.074.111-.279.307-.4.325-1.154.186-1.2-.13-2.354.056-.27.047-.205.363-.139.633.279 1.135-.066 1.219.214 2.344.027.131.093.214.027.317-.846 1.274-.79 1.312-1.628 2.577a.447.447 0 0 0 .363.707c4.792-.019 4.792-.14 9.583-.158.335 0 .363-.13.233-.437-1.861-4.42-1.731-4.476-3.592-8.895-.139-.344-.39-.307-.595 0l.009.009z" fill="#253135"/>
        <path d="M18.45 117.795c-3.815-2.53-3.638-2.8-7.453-5.331-1.712-1.135-2.41-3.312-1.275-5.033 1.684-2.549 1.703-2.54 3.387-5.089 1.684-2.55 1.619-2.596 3.303-5.145 1.684-2.55 1.935-2.382 3.628-4.931 1.135-1.712 3.48-2.438 5.192-1.303 3.814 2.53 3.628 2.81 7.443 5.34 1.712 1.136 2.056 3.23.921 4.941-1.684 2.549-1.405 2.735-3.089 5.285-1.684 2.549-1.963 2.372-3.647 4.921-1.684 2.549-1.6 2.605-3.284 5.155-1.135 1.711-3.405 2.325-5.117 1.19h-.01z" fill="#F2765E"/>
        <path d="M23.858 116.79c-1.136 1.712-3.527 1.898-5.239.763-3.814-2.531-4.037-2.186-7.861-4.717" stroke="#D24824" stroke-width="1.333" stroke-miterlimit="10"/>
        <path d="M23.984 123.666c-3.452-2.28-3.526-2.168-6.978-4.448-.856-.567-1.07-1.628-.502-2.484 1.814-2.744 1.74-2.8 3.554-5.545 1.814-2.744 1.693-2.828 3.517-5.582 1.823-2.754 1.953-2.661 3.777-5.415 1.823-2.754 1.99-2.642 3.805-5.387.568-.856 1.591-1.247 2.456-.679 3.452 2.28 3.294 2.512 6.746 4.791.855.568 1.228 1.554.66 2.41-1.814 2.745-1.982 2.642-3.796 5.387-1.814 2.745-1.795 2.763-3.619 5.508-1.823 2.754-1.507 2.959-3.33 5.712-1.824 2.754-2.076 2.578-3.899 5.332-.568.855-1.535.958-2.391.39v.01z" fill="#EAF0F3"/>
        <path d="M41.198 101.457c-1.814 2.745-1.889 2.698-3.703 5.452-1.814 2.754-1.898 2.698-3.712 5.443-1.814 2.744-1.991 2.633-3.815 5.387-1.823 2.754-1.749 2.791-3.572 5.545-.568.856-1.591 1.032-2.447.465-2.301-1.52-4.6-3.046-6.894-4.578" stroke="#ABBBC1" stroke-width="1.333" stroke-miterlimit="10"/>
        <path d="M111.981 103.273v.112c2.838 0 5.443 1.154 7.304 3.015 1.861 1.86 2.773 4.465 2.773 7.303 0 3.703.325 3.703.325 7.415s-.186 3.703-.186 7.415.019 3.712.019 7.415-.121 3.713-.121 7.416c0 2.837-.949 5.452-2.81 7.312-1.861 1.861-4.466 3.052-7.313 3.052v.13c-2.837 0-5.443-1.321-7.303-3.182-1.861-1.86-3.173-4.466-3.173-7.303 0-3.703.177-3.703.177-7.415v-7.415c0-3.713.232-3.713.232-7.416 0-3.702-.409-3.712-.409-7.415 0-2.837 1.293-5.461 3.154-7.322 1.861-1.861 4.485-3.107 7.322-3.107l.009-.01z" fill="#FDE3D4"/>
        <path d="M93.65 103.273v.112c2.837 0 5.442 1.154 7.303 3.015 1.861 1.86 2.772 4.465 2.772 7.303 0 3.703.326 3.703.326 7.415s-.186 3.703-.186 7.415.019 3.712.019 7.415-.121 3.713-.121 7.416c0 2.837-.949 5.452-2.81 7.312-1.86 1.861-4.466 3.052-7.313 3.052v.13c-2.838 0-5.443-1.321-7.303-3.182-1.861-1.86-3.173-4.466-3.173-7.303 0-3.703.177-3.703.177-7.415v-7.415c0-3.713.232-3.713.232-7.416 0-3.702-.409-3.712-.409-7.415 0-2.837 1.293-5.461 3.154-7.322 1.86-1.861 4.484-3.107 7.322-3.107l.01-.01z" fill="#FDE3D4"/>
        <path d="M76.608 102.984v.112a9.448 9.448 0 0 1 6.68 2.753c1.703 1.703 2.513 4.085 2.513 6.681 0 3.144.325 3.144.325 6.28 0 3.135-.186 3.135-.186 6.28 0 3.144.019 3.144.019 6.289 0 3.145-.121 3.145-.121 6.289 0 3.145.214 3.145.214 6.29a9.491 9.491 0 0 1-2.754 6.699c-1.703 1.702-4.103 2.912-6.699 2.912v-.158c-2.596 0-5.09-.959-6.792-2.661-1.702-1.703-2.642-4.187-2.642-6.792v-6.28c0-3.136.233-3.136.233-6.28 0-3.145-.41-3.145-.41-6.29 0-3.144.13-3.144.13-6.289 0-3.145.094-3.145.094-6.289 0-2.596 1.153-4.82 2.856-6.522 1.702-1.703 3.926-3.033 6.522-3.033l.018.009z" fill="#FDE3D4"/>
        <path d="M66.988 132.783c0-3.479-.01-3.479-.01-6.959 0-3.479.242-3.479.242-6.959 0-3.48-.167-3.48-.167-6.959 0-3.48.316-3.48.316-6.959 0-3.48-.316-3.48-.316-6.96s.204-3.48.204-6.968c0-3.49-.046-3.48-.046-6.96s-.084-3.48-.084-6.968c0-3.489-.018-3.48-.018-6.969 0-2.205-.391-4.084-1.108-5.675-.855-1.916-2.14-3.34-3.749-4.326-1.61-.986-3.489-1.777-5.545-1.777M111.852 153.792c2.884 0 5.461-1.34 7.359-3.228 1.898-1.889 3.247-4.475 3.247-7.36 0 0-.009-3.126-.009-7.331 0-2.242-.326-4.791-.326-7.331s.112-5.099.112-7.332c0-4.205.093-7.331.093-7.331 0-2.884-1.256-5.434-3.145-7.322-1.889-1.889-4.438-3.303-7.322-3.303M75.082 153.866c2.894 0 5.675-1.228 7.573-3.126 1.898-1.898 2.698-4.67 2.698-7.573 0 0 .028 0 .028-.019 0-3.656.307-3.656.307-7.313 0-3.656.028-3.656.028-7.312 0-3.657-.214-3.657-.214-7.313 0-3.657-.037-3.657-.037-7.313 0-2.893-1.08-5.508-2.977-7.406-1.898-1.898-4.513-3.089-7.406-3.089M93.484 153.559c2.885 0 5.369-1.209 7.257-3.098 1.889-1.889 3.005-4.373 3.005-7.257 0 0 .345-3.126.345-7.331 0-2.243-.345-4.792-.345-7.332s.103-5.098.103-7.331c0-4.205-.13-3.666-.13-7.332 0-2.884-.819-5.638-2.708-7.526-1.888-1.889-4.642-3.145-7.527-3.145" stroke="#F79E84" stroke-width="1.333" stroke-miterlimit="10" stroke-linecap="round"/>
        <path d="M80.924 138.888c-1.544-1.433-3.47-2.335-5.424-2.261-1.954.075-3.759 1.163-5.191 2.708M72.469 121.591c1.842 1.703 4.521 1.675 6.224-.167M72.43 117.944c1.842 1.703 4.642 1.787 6.345-.055M99.514 138.943c-1.544-1.433-3.405-2.056-5.359-1.982-1.953.074-3.777.819-5.21 2.372M91.04 121.666c1.841 1.702 4.549 1.572 6.251-.279M90.836 118.213c1.842 1.703 4.856 1.489 6.56-.354M119.05 138.646c-1.544-1.433-3.675-1.889-5.629-1.814-1.954.074-3.973.754-5.405 2.307M110.312 121.656c1.843 1.703 4.559 1.61 6.271-.232M110.34 117.953c1.842 1.703 4.763 1.889 6.466.047" stroke="#F79E84" stroke-width="1.333" stroke-miterlimit="10" stroke-linecap="round"/>
    </g>
    <defs>
        <clipPath id="iqwboxz38a">
            <path fill="#fff" d="M0 0h143.893v205H0z"/>
        </clipPath>
    </defs>
</svg>
