<svg width="24" height="24" viewBox="0 0 24 24" fill="none" xmlns="http://www.w3.org/2000/svg">
<path d="M3.66891 4.16199L2.07141 4.96449V19.0026L3.66891 19.7981L3.68204 19.785V4.17511L3.66891 4.16199Z" fill="#8C3123"/>
<path d="M12.2302 17.76L3.66895 19.7981V4.16199L12.2302 6.15464V17.76Z" fill="#E05243"/>
<path d="M8.37048 14.5711L12 15.0314L12.0197 14.9784L12.046 9.0281L12 8.98169L8.37048 9.43544V14.5711Z" fill="#8C3123"/>
<path d="M12 17.7862L20.3245 19.8051L20.3377 19.785V4.17511L20.3245 4.16199L12 6.18089V17.7862Z" fill="#8C3123"/>
<path d="M15.6295 14.5711L12 15.0314V8.98169L15.6295 9.43544V14.5711Z" fill="#E05243"/>
<path d="M15.6295 6.95005L12 7.61427L8.37048 6.95005L11.9935 6.00317L15.6295 6.95005Z" fill="#5E1F18"/>
<path d="M15.6295 17.0498L12 16.379L8.37048 17.0498L11.9935 18.0623L15.6295 17.0498Z" fill="#F2B0A9"/>
<path d="M8.37048 6.95016L12 6.05578L12.0263 6.04266V0.02625L12 0L8.37048 1.815V6.95016Z" fill="#8C3123"/>
<path d="M15.6295 6.95016L12 6.05578V0L15.6295 1.815V6.95016Z" fill="#E05243"/>
<path d="M12 24.0001L8.37048 22.1851V17.0499L12 17.9443L12.0525 18.0099L12.0394 23.8951L12 24.0001Z" fill="#8C3123"/>
<path d="M12 24.0001L15.6295 22.1851V17.0499L12 17.9443V24.0001Z" fill="#E05243"/>
<path d="M20.3245 4.16199L21.9285 4.96449V19.0026L20.3245 19.8051V4.16199Z" fill="#E05243"/>
</svg>
