<svg width="22" height="25" viewBox="0 0 22 25" fill="none" xmlns="http://www.w3.org/2000/svg">
<g clip-path="url(#clip0)">
<path d="M11 18.5781L20.24 20.7781V3.47095L11 5.67095V18.5781Z" fill="#205B97"/>
<path d="M20.2401 3.47095L22.0001 4.35095V19.8981L20.2401 20.7781V3.47095ZM11 18.5781L1.76001 20.7781V3.47095L11 5.67095V18.5781Z" fill="#5193CE"/>
<path d="M1.76 3.47095L0 4.35095V19.8981L1.76 20.7781V3.47095Z" fill="#205B97"/>
<path d="M13.3471 24.2981L16.867 22.5381V1.76L13.3471 0L12.271 11.5381L13.3471 24.2981Z" fill="#5193CE"/>
<path d="M8.65294 24.2981L5.13293 22.5381V1.76L8.65294 0L9.7291 11.5381L8.65294 24.2981Z" fill="#205B97"/>
<path d="M8.65295 0H13.3948V24.249H8.65295V0Z" fill="#2E73B7"/>
</g>
<defs>
<clipPath id="clip0">
<rect width="22" height="24.2981" fill="white"/>
</clipPath>
</defs>
</svg>
