<?xml version="1.0" encoding="utf-8"?>
<!-- Generator: Adobe Illustrator 25.2.0, SVG Export Plug-In . SVG Version: 6.00 Build 0)  -->
<svg version="1.1" id="katman_1" xmlns="http://www.w3.org/2000/svg" xmlns:xlink="http://www.w3.org/1999/xlink" x="0px" y="0px"
	 viewBox="0 0 4080.25 2850.72" style="enable-background:new 0 0 4080.25 2850.72;" xml:space="preserve">
<style type="text/css">
	.st0{fill:#FA7E14;}
</style>
<path class="st0" d="M2045.96,1490.76c-9.17,13.03-16.9,23.76-24.33,34.6c-118.64,174.61-237.23,349.2-355.79,523.77
	c-110.29,162.38-220.7,324.67-331.23,486.86c-3.71,5.15-9.43,8.48-15.74,9.17c-156.04-1.35-312.04-3.04-468.01-5.07
	c-1.73,0-3.52-0.52-6.92-1.04c1.26-3.26,2.72-6.44,4.38-9.51c108.83-168.73,217.67-337.42,326.5-506.07
	c96.53-149.47,193.12-298.9,289.77-448.29c107.1-166,214.15-332.11,321.14-498.34c15.8-24.51,32.23-48.55,47.23-73.52
	c3.84-6.68,5-14.58,3.23-22.09c-28.83-91.92-58.24-183.6-87.59-275.29c-12.57-39.27-25.72-78.31-37.48-117.81
	c-3.81-12.69-10.09-16.55-23.07-16.49c-98.03,0.4-195.48,0.29-293.23,0.29c-18.57,0-18.63,0-18.63-18.34
	c0-120.17,0-240.35-0.35-360.52c0-13.38,4.38-16.38,16.95-16.38c196.79,0.35,393.62,0.35,590.49,0c9.46-1.21,18.34,4.79,20.76,14.01
	c103.8,261.07,207.59,522.04,311.39,782.91c121.1,304.24,242.19,608.52,363.29,912.83c37.6,94.45,75.48,188.85,112.68,283.54
	c4.44,11.53,9.05,13.72,20.7,10.15c103.16-31.89,206.56-62.91,309.66-94.86c12.97-4.04,17.7-1.33,21.74,11.53
	c35.18,110.54,71.04,220.86,106.68,331.28c1.21,3.81,2.13,7.67,3.58,12.97c-7.38,2.71-14.3,5.77-21.39,7.73
	c-234.5,74.31-468.87,148.66-703.11,223.05c-11.19,3.52-14.53-0.29-18.28-9.69c-71.54-181.3-143.26-362.52-215.15-543.66
	c-70.31-177.38-140.66-354.75-211.05-532.13c-10.55-26.64-20.93-53.4-31.49-80.04C2051.61,1501.77,2049.3,1497.79,2045.96,1490.76
	L2045.96,1490.76z"/>
</svg>
