<svg width="155" height="67" viewBox="0 0 155 67" fill="none" xmlns="http://www.w3.org/2000/svg">
<rect x="119.716" y="0.374587" width="29.0863" height="15.4117" rx="7.70585" fill="#6A86CE"/>
<path d="M130.986 11.0013C132.357 11.0013 133.152 10.2235 133.152 8.88753V4.49739H131.825V8.87874C131.825 9.51595 131.531 9.85432 130.968 9.85432C130.45 9.85432 130.16 9.51155 130.133 9.02376V8.99739H128.846V9.03255C128.881 10.2235 129.676 11.0013 130.986 11.0013ZM136.962 11.0013C138.544 11.0013 139.52 10.2059 139.52 8.94905V8.94466C139.52 7.95589 138.935 7.41975 137.595 7.1429L136.923 7.00667C136.176 6.85286 135.868 6.60677 135.868 6.19368V6.18929C135.868 5.71468 136.303 5.41585 136.958 5.41145C137.626 5.41145 138.065 5.72786 138.14 6.1805L138.149 6.23323H139.397L139.392 6.1761C139.309 5.11702 138.439 4.33479 136.958 4.33479C135.552 4.33479 134.541 5.11263 134.541 6.29036V6.29475C134.541 7.25716 135.108 7.87239 136.426 8.14046L137.094 8.27669C137.881 8.43929 138.193 8.6722 138.193 9.08968V9.09407C138.193 9.58186 137.705 9.92024 136.997 9.92024C136.255 9.92024 135.741 9.59944 135.692 9.12483L135.688 9.08089H134.409L134.413 9.1512C134.488 10.2762 135.446 11.0013 136.962 11.0013Z" fill="white"/>
<rect x="119.716" y="0.374587" width="29.0863" height="15.4117" rx="7.70585" stroke="black" stroke-width="0.749173"/>
<mask id="path-3-inside-1_704_2040" fill="white">
<rect x="10.9553" y="19.4399" width="31.0443" height="35.507" rx="0.312156"/>
</mask>
<rect x="10.9553" y="19.4399" width="31.0443" height="35.507" rx="0.312156" fill="white" stroke="black" stroke-width="1.49835" mask="url(#path-3-inside-1_704_2040)"/>
<line x1="17.0762" y1="32.2592" x2="36.9353" y2="32.2592" stroke="black" stroke-width="0.749173"/>
<line x1="17.0762" y1="38.4676" x2="36.9353" y2="38.4676" stroke="black" stroke-width="0.749173"/>
<line x1="17.0762" y1="44.6766" x2="36.9353" y2="44.6766" stroke="black" stroke-width="0.749173"/>
<path d="M21.8766 49.1235C19.2815 46.9753 16.5422 45.8501 14.0191 45.8501C7.93976 45.8501 3.15797 52.1157 2.96574 52.3714C2.7484 52.6541 2.7484 53.0606 2.96574 53.3432C3.91767 54.5455 4.98921 55.6345 6.16161 56.5911C8.75675 58.7393 11.4961 59.8646 14.0191 59.8646C20.0985 59.8646 24.8803 53.599 25.0725 53.3177C25.277 53.0398 25.277 52.6493 25.0725 52.3714C24.1204 51.1692 23.0489 50.0803 21.8766 49.1235Z" fill="white" stroke="black" stroke-width="0.749173"/>
<path d="M14.0194 57.5533C11.3121 57.5533 9.11743 55.4511 9.11743 52.8579C9.11743 50.2647 11.3121 48.1625 14.0194 48.1625C16.7266 48.1625 18.9213 50.2647 18.9213 52.8579C18.9082 55.4458 16.7212 57.5407 14.0194 57.5533Z" fill="#6A86CE" stroke="#6C4CF1" stroke-width="0.749173"/>
<path d="M14.0185 50.3059C12.5455 50.3059 11.3513 51.4498 11.3513 52.8608C11.3513 54.2718 12.5455 55.4156 14.0185 55.4156C15.4916 55.4156 16.6858 54.2718 16.6858 52.8608C16.6858 51.4498 15.4916 50.3059 14.0185 50.3059Z" fill="black"/>
<line x1="17.0762" y1="26.0501" x2="36.9353" y2="26.0501" stroke="black" stroke-width="0.749173"/>
<path d="M49.8296 20.511L46.1615 16.1133C45.9404 15.8482 45.5462 15.8125 45.2811 16.0337L32.6305 26.5854C32.5182 26.6791 32.4423 26.8091 32.416 26.953L32.7845 27.0204L32.416 26.953L31.6114 31.3527C31.5412 31.7367 31.8362 32.0904 32.2266 32.0902L36.6993 32.0882L36.6991 31.7136L36.6993 32.0882C36.8455 32.0881 36.9871 32.0368 37.0994 31.9432L49.7499 21.3914C50.0151 21.1703 50.0507 20.7761 49.8296 20.511Z" fill="#9177FF" stroke="black" stroke-width="0.749173"/>
<rect x="45.7611" y="15.6333" width="6.97683" height="3.24024" rx="0.625067" transform="rotate(50.1688 45.7611 15.6333)" fill="#6A86CE" stroke="black" stroke-width="0.749173"/>
<mask id="path-13-inside-2_704_2040" fill="white">
<rect x="115.612" y="22.3766" width="35.8069" height="35.8069" rx="0.360044"/>
</mask>
<rect x="115.612" y="22.3766" width="35.8069" height="35.8069" rx="0.360044" fill="white" stroke="black" stroke-width="1.49835" stroke-dasharray="1.73 1.73" mask="url(#path-13-inside-2_704_2040)"/>
<rect width="30.6916" height="6.67209" transform="matrix(-1 0 0 1 154.233 30.3053)" fill="#6A86CE"/>
<rect width="32.2262" height="5.37103" transform="matrix(-1 0 0 1 155 36.6989)" fill="white"/>
<rect width="32.2262" height="5.37103" transform="matrix(-1 0 0 1 155 49.2311)" fill="white"/>
<rect width="32.2262" height="7.16138" transform="matrix(-1 0 0 1 155 42.0703)" fill="#CFD2F5"/>
<rect width="32.2262" height="7.16138" transform="matrix(-1 0 0 1 155 54.6025)" fill="#CFD2F5"/>
<rect x="123.149" y="29.9127" width="31.477" height="31.477" stroke="black" stroke-width="0.749173"/>
<path d="M122.774 36.6995L155 36.6995" stroke="black" stroke-width="0.724202"/>
<path d="M131.726 29.5381L131.726 61.7643" stroke="black" stroke-width="0.749173"/>
<path d="M140.626 17.9836C140.038 18.3906 139.881 19.1139 140.16 19.7343C139.957 19.7786 139.762 19.8629 139.587 19.9837C138.96 20.4179 138.824 21.2121 139.186 21.8559C138.942 22.119 138.741 22.4126 138.639 22.7549C138.494 23.246 138.508 23.8331 138.898 24.3045L139.797 25.3904C140.429 26.1543 141.496 26.4898 142.547 26.7296C143.502 26.9475 144.432 27.0533 145.061 27.1384L145.595 27.7832C145.684 27.8912 145.815 27.9636 145.959 27.9844C146.102 28.0051 146.247 27.9727 146.36 27.8941L151.214 24.5348C151.327 24.4561 151.401 24.3378 151.418 24.2059C151.435 24.0739 151.394 23.9391 151.305 23.8311L150.185 22.4779C150.263 21.4007 149.939 20.2824 149.157 19.3385L147.472 17.3023C146.917 16.6325 145.88 16.4823 145.176 16.9698C145.001 17.0906 144.86 17.2392 144.758 17.4058C144.18 16.9926 143.376 16.9339 142.788 17.3409C142.58 17.4852 142.433 17.6727 142.329 17.8792C141.785 17.6254 141.126 17.6378 140.626 17.9836ZM141.3 18.7981C141.545 18.6287 141.873 18.6763 142.066 18.9089L142.515 19.4519C142.701 19.6768 143.044 19.7264 143.28 19.5627C143.517 19.399 143.558 19.084 143.372 18.8591C143.179 18.6264 143.218 18.3248 143.463 18.1554C143.707 17.9861 144.035 18.0336 144.228 18.2663L144.453 18.5378L144.902 19.0808C145.089 19.3057 145.431 19.3553 145.668 19.1916C145.904 19.0279 145.945 18.7129 145.759 18.4879C145.566 18.2553 145.605 17.9536 145.85 17.7843C146.095 17.6149 146.423 17.6625 146.615 17.8951L148.301 19.9313C148.958 20.7251 149.213 21.6664 149.098 22.5558C149.09 22.6212 149.096 22.688 149.115 22.7523C149.135 22.8166 149.168 22.8773 149.212 22.9307L150.111 24.0167L146.114 26.7832L145.777 26.3759C145.733 26.3223 145.678 26.2769 145.616 26.2422C145.553 26.2075 145.484 26.1843 145.413 26.1739C144.75 26.0779 143.732 25.9691 142.776 25.7509C141.819 25.5326 140.964 25.1734 140.653 24.7976L139.754 23.7116C139.646 23.5814 139.604 23.3423 139.689 23.0562C139.722 22.9443 139.776 22.8348 139.841 22.731L141 24.1309C141.043 24.1854 141.098 24.2318 141.161 24.2672C141.223 24.3026 141.293 24.3265 141.364 24.3373C141.436 24.3482 141.509 24.3458 141.578 24.3304C141.648 24.315 141.713 24.2868 141.77 24.2475C141.826 24.2083 141.874 24.1587 141.909 24.1016C141.944 24.0445 141.966 23.9811 141.974 23.9151C141.982 23.8491 141.976 23.7818 141.956 23.7171C141.935 23.6523 141.901 23.5915 141.856 23.5381L140.307 21.6673C140.299 21.6571 140.291 21.6472 140.283 21.6376C140.273 21.6245 140.262 21.6117 140.251 21.5994L140.17 21.5019C139.978 21.2692 140.017 20.9675 140.261 20.7982C140.506 20.6289 140.834 20.6764 141.027 20.909C141.213 21.134 141.556 21.1836 141.792 21.0199C142.029 20.8562 142.07 20.5411 141.883 20.3162L141.209 19.5017C141.016 19.2691 141.056 18.9674 141.3 18.7981Z" fill="black"/>
<path d="M58.0742 38.1839C57.8789 38.3792 57.8789 38.6958 58.0742 38.891L61.2562 42.073C61.4514 42.2683 61.768 42.2683 61.9633 42.073C62.1585 41.8777 62.1585 41.5611 61.9633 41.3659L59.1348 38.5375L61.9633 35.709C62.1585 35.5138 62.1585 35.1972 61.9633 35.0019C61.768 34.8067 61.4514 34.8067 61.2562 35.0019L58.0742 38.1839ZM102.291 38.891C102.487 38.6958 102.487 38.3792 102.291 38.1839L99.1093 35.0019C98.9141 34.8067 98.5975 34.8067 98.4022 35.0019C98.207 35.1972 98.207 35.5138 98.4022 35.709L101.231 38.5375L98.4022 41.3659C98.207 41.5611 98.207 41.8777 98.4022 42.073C98.5975 42.2683 98.9141 42.2683 99.1093 42.073L102.291 38.891ZM58.4277 39.0375H101.938V38.0375H58.4277V39.0375Z" fill="#A9A7A7"/>
</svg>
