<svg width="24" height="24" viewBox="0 0 24 24" fill="none" xmlns="http://www.w3.org/2000/svg">
<g clip-path="url(#clip0)">
<path d="M24 12.5774C24 10.5689 22.752 8.80492 20.8755 8.12467C20.9566 7.69996 20.9972 7.26854 20.997 6.83617C20.997 3.08617 17.9543 0.0501709 14.2208 0.0501709C12.0308 0.0501709 10.0013 1.09492 8.72326 2.85967C8.09323 2.37202 7.31871 2.10813 6.52201 2.10967C4.53451 2.10967 2.92201 3.72217 2.92201 5.70967C2.92201 6.14617 3.00301 6.57217 3.14551 6.96742C2.22716 7.30005 1.43306 7.90659 0.870525 8.70506C0.307987 9.50353 0.00412757 10.4554 8.17475e-06 11.4322C-0.00180616 12.4086 0.29843 13.3616 0.859556 14.1607C1.42068 14.9597 2.21523 15.5657 3.13426 15.8954C3.05267 16.3201 3.01199 16.7515 3.01276 17.1839C3.01455 18.9778 3.72794 20.6976 4.99637 21.9661C6.26481 23.2345 7.98467 23.9479 9.77851 23.9497C11.9685 23.9497 13.998 22.8944 15.2663 21.1297C15.8963 21.6269 16.6658 21.9007 17.4675 21.9007C19.455 21.9007 21.0675 20.2882 21.0675 18.3007C21.0675 17.8642 20.9865 17.4382 20.844 17.0429C21.7637 16.7111 22.5595 16.1051 23.1238 15.3067C23.6882 14.5082 23.994 13.5559 24 12.5782" fill="white"/>
<path d="M9.4335 10.3463L14.688 12.7403L19.983 8.09477C20.0613 7.71106 20.0987 7.32013 20.0947 6.92852C20.0926 5.35798 19.4677 3.8524 18.3572 2.74186C17.2466 1.63132 15.741 1.00646 14.1705 1.00427C13.2092 1.00512 12.2626 1.24014 11.4125 1.68902C10.5624 2.1379 9.83453 2.78712 9.29175 3.58052L8.409 8.15552L9.4335 10.3463Z" fill="#FED10A"/>
<path d="M3.99752 15.9053C3.91898 16.2958 3.88128 16.6934 3.88502 17.0918C3.88502 20.3693 6.55277 23.0258 9.82952 23.0258C10.7975 23.0257 11.7508 22.7892 12.6064 22.3366C13.4621 21.8841 14.1942 21.2293 14.739 20.4293L15.6113 15.8745L14.445 13.6433L9.17027 11.2395L3.99752 15.9053Z" fill="#24BBB1"/>
<path d="M3.96596 6.81752L7.56596 7.66952L8.35721 3.58202C7.86971 3.20702 7.26221 3.00452 6.63221 3.00452C5.87976 3.00551 5.1584 3.30481 4.62627 3.8368C4.09414 4.36879 3.79465 5.09007 3.79346 5.84252C3.79346 6.17702 3.85346 6.51227 3.96596 6.81602" fill="#EF5098"/>
<path d="M3.65251 7.67859C2.04976 8.20584 0.924011 9.74859 0.924011 11.4421C0.924011 13.0958 1.94851 14.5666 3.48001 15.1546L8.53126 10.5901L7.60876 8.61234L3.65251 7.67859Z" fill="#17A8E0"/>
<path d="M15.6525 20.4299C16.1448 20.8073 16.7468 21.0137 17.367 21.0179C18.1201 21.0173 18.8422 20.7179 19.3747 20.1854C19.9072 19.6529 20.2067 18.9308 20.2073 18.1777C20.2078 17.8421 20.1495 17.5091 20.0348 17.1937L16.4438 16.3514L15.6525 20.4299Z" fill="#93C83E"/>
<path d="M16.3822 15.408L20.3385 16.3305C21.1304 16.0654 21.8194 15.5589 22.3088 14.8821C22.7982 14.2054 23.0633 13.3924 23.067 12.5572C23.0659 11.7538 22.821 10.9697 22.3646 10.3085C21.9082 9.64735 21.2618 9.14031 20.511 8.85449L15.3375 13.389L16.3822 15.408Z" fill="#0779A1"/>
</g>
<defs>
<clipPath id="clip0">
<rect width="24" height="24" fill="white"/>
</clipPath>
</defs>
</svg>
