<svg width="284" height="181" viewBox="0 0 284 181" fill="none" xmlns="http://www.w3.org/2000/svg">
<g clip-path="url(#clip0_4024_89498)">
<path d="M71.535 149.68C68.615 149.74 68.885 148.02 66.125 147.04C63.365 146.06 63.255 146.39 60.495 145.41C57.735 144.43 57.835 144.16 55.075 143.19C52.315 142.22 52.325 142.2 49.565 141.23C46.805 140.26 46.585 140.88 43.835 139.9C41.085 138.92 41.215 138.54 38.455 137.57C35.695 136.6 35.765 136.39 33.005 135.41C30.245 134.43 30.045 135 27.285 134.03C24.525 133.06 24.555 132.96 21.795 131.99C19.035 131.02 19.185 130.6 16.425 129.63C13.665 128.66 13.565 128.93 10.805 127.95C8.04499 126.97 8.09499 126.81 5.33499 125.84C2.57499 124.87 0.0649928 126.99 0.0949928 124.06C0.124993 121.13 2.50499 122.84 5.28499 121.76C8.06499 120.68 8.21499 121.04 10.995 119.96C13.775 118.88 13.765 118.84 16.555 117.76C19.345 116.68 19.325 116.64 22.115 115.55C24.905 114.46 24.765 114.12 27.555 113.04C30.345 111.96 30.345 111.96 33.125 110.87C35.905 109.78 36.035 110.11 38.825 109.02C41.615 107.93 41.495 107.64 44.285 106.55C47.075 105.47 47.075 105.49 49.865 104.4C52.655 103.31 52.735 103.52 55.515 102.44C58.295 101.36 58.245 101.22 61.035 100.14C63.825 99.0604 63.875 99.1804 66.655 98.1004C69.435 97.0204 69.505 97.1804 72.295 96.1004C75.085 95.0204 75.075 95.0004 77.865 93.9204C80.655 92.8404 80.565 92.6104 83.355 91.5304C86.145 90.4504 86.105 90.3404 88.885 89.2604C91.665 88.1804 91.815 88.5404 94.595 87.4504C97.375 86.3604 97.355 86.3004 100.145 85.2104C102.935 84.1204 102.825 83.8404 105.615 82.7604C108.405 81.6804 108.245 81.0904 111.235 81.0304C114.225 80.9704 113.875 81.9704 116.635 82.9404C119.395 83.9104 119.455 83.7404 122.215 84.7104C124.975 85.6804 125.075 85.4004 127.835 86.3704C130.595 87.3404 130.595 87.3204 133.355 88.2904C136.115 89.2604 136.055 89.4104 138.815 90.3904C141.575 91.3704 141.585 91.3404 144.345 92.3104C147.105 93.2804 147.025 93.5004 149.785 94.4704C152.545 95.4404 152.675 95.0604 155.435 96.0304C158.195 97.0004 158.155 97.1204 160.915 98.0904C163.675 99.0604 163.565 99.3604 166.325 100.33C169.085 101.3 169.065 101.38 171.825 102.35C174.585 103.32 174.655 103.14 177.415 104.12C180.175 105.1 183.375 103.02 183.345 105.95C183.315 108.88 180.125 106.83 177.335 107.91C174.545 108.99 174.635 109.2 171.845 110.29C169.055 111.38 168.955 111.11 166.175 112.19C163.395 113.27 163.575 113.75 160.785 114.84C157.995 115.93 157.805 115.43 155.025 116.52C152.245 117.61 152.215 117.55 149.425 118.63C146.635 119.71 146.865 120.3 144.075 121.38C141.285 122.46 141.305 122.51 138.525 123.6C135.745 124.69 135.675 124.52 132.885 125.61C130.095 126.7 130.015 126.48 127.235 127.57C124.455 128.66 124.405 128.54 121.625 129.63C118.835 130.71 118.815 130.66 116.035 131.74C113.255 132.82 113.235 132.8 110.455 133.89C107.675 134.98 107.755 135.19 104.965 136.28C102.175 137.37 102.145 137.28 99.355 138.36C96.565 139.44 96.755 139.92 93.965 141.01C91.175 142.1 91.135 141.97 88.345 143.06C85.555 144.15 85.525 144.07 82.735 145.16C79.945 146.25 79.605 145.53 76.995 147.01C74.385 148.49 74.515 149.65 71.525 149.71L71.535 149.68Z" fill="#EDEBFC"/>
<path d="M152.365 121.68C149.475 122.66 149.545 122.88 146.665 123.86C143.785 124.84 143.765 124.81 140.875 125.79C137.985 126.77 137.915 126.55 135.025 127.54C132.135 128.53 132.205 128.72 129.315 129.7C126.425 130.68 126.435 130.71 123.555 131.69C120.675 132.67 120.645 132.61 117.765 133.59C114.885 134.57 114.845 134.49 111.965 135.47C109.085 136.45 109.185 136.77 106.295 137.75C103.405 138.73 103.305 138.43 100.415 139.41C97.5252 140.39 97.5852 140.56 94.6952 141.54C91.8052 142.52 91.7852 142.45 88.8952 143.44C86.0052 144.43 86.0052 144.42 83.1152 145.4C80.2252 146.38 80.2852 146.57 77.3952 147.55C74.5052 148.53 74.4552 148.4 71.5652 149.39L71.6152 149.33C71.6152 146.4 71.5652 146.4 71.5652 143.47C71.5652 140.54 71.4252 140.54 71.4252 137.61C71.4252 134.68 71.3452 134.68 71.3452 131.75C71.3452 128.82 71.5052 128.82 71.5052 125.89C71.5052 122.96 71.3552 122.96 71.3552 120.04C71.3552 117.12 71.4252 117.11 71.4252 114.18C71.4252 111.25 71.4652 111.25 71.4652 108.32C71.4652 105.39 71.6252 105.39 71.6252 102.46C71.6252 99.5301 71.6552 99.5301 71.6552 96.6001C71.6552 93.6701 71.4652 93.6701 71.4652 90.7401C71.4652 87.8101 71.6752 87.8101 71.6752 84.8801C71.6752 81.9501 71.4852 81.9501 71.4852 79.0201C71.4852 76.0901 71.5252 76.0901 71.5252 73.1501C71.5252 70.2101 71.5952 70.2201 71.5952 67.2801C71.5952 67.2801 71.5352 67.2601 71.5452 67.2601C74.4352 66.2801 74.3952 66.1701 77.2852 65.1901C80.1752 64.2101 80.2652 64.4701 83.1452 63.4901C86.0252 62.5101 86.0352 62.5201 88.9252 61.5401C91.8152 60.5601 91.8252 60.5801 94.7052 59.6001C97.5852 58.6201 97.5852 58.6001 100.465 57.6201C103.345 56.6401 103.275 56.4001 106.155 55.4201C109.045 54.4401 109.055 54.4801 111.945 53.4901C114.835 52.5101 114.815 52.4601 117.705 51.4801C120.595 50.5001 120.625 50.5801 123.515 49.6001C126.405 48.6201 126.365 48.5101 129.255 47.5301C132.145 46.5501 132.135 46.5201 135.025 45.5401C137.915 44.5601 138.015 44.8501 140.905 43.8701C143.795 42.8901 143.775 42.8101 146.665 41.8301C149.555 40.8501 149.475 40.6201 152.375 39.6401L152.605 39.8001C152.605 42.7301 152.315 42.7301 152.315 45.6601C152.315 48.5901 152.465 48.5901 152.465 51.5201C152.465 54.4501 152.365 54.4501 152.365 57.3801C152.365 60.3101 152.435 60.3101 152.435 63.2401C152.435 66.1701 152.445 66.1701 152.445 69.0901C152.445 72.0101 152.585 72.0201 152.585 74.9501C152.585 77.8801 152.455 77.8801 152.455 80.8101C152.455 83.7401 152.485 83.7401 152.485 86.6701C152.485 89.6001 152.565 89.6001 152.565 92.5301C152.565 95.4601 152.385 95.4601 152.385 98.3901C152.385 101.32 152.565 101.32 152.565 104.25C152.565 107.18 152.635 107.18 152.635 110.11C152.635 113.04 152.285 113.04 152.285 115.98C152.285 118.92 152.345 118.91 152.345 121.85C152.345 121.85 152.405 121.69 152.395 121.69L152.365 121.68Z" fill="#FFDA99"/>
<path d="M152.635 39.8101C152.635 42.7401 152.575 42.7401 152.575 45.6701C152.575 48.6001 152.605 48.6001 152.605 51.5301C152.605 54.4601 152.325 54.4601 152.325 57.3901C152.325 60.3201 152.585 60.3201 152.585 63.2501C152.585 66.1801 152.395 66.1801 152.395 69.1001C152.395 72.0201 152.595 72.0301 152.595 74.9601C152.595 77.8901 152.375 77.8901 152.375 80.8201C152.375 83.7501 152.585 83.7501 152.585 86.6801C152.585 89.6101 152.285 89.6101 152.285 92.5401C152.285 95.4701 152.665 95.4701 152.665 98.4001C152.665 101.33 152.445 101.33 152.445 104.26C152.445 107.19 152.325 107.19 152.325 110.12C152.325 113.05 152.295 113.05 152.295 115.99C152.295 118.93 152.385 118.92 152.385 121.86C152.385 121.86 152.395 122.01 152.405 122.01C155.235 123.3 155.335 123.08 158.165 124.37C160.995 125.66 161.015 125.61 163.845 126.9C166.675 128.19 166.675 128.19 169.495 129.48C172.315 130.77 172.275 130.87 175.105 132.16C177.935 133.45 177.895 133.54 180.725 134.83C183.555 136.12 183.555 136.11 186.385 137.4C189.215 138.69 189.215 138.69 192.045 139.98C194.875 141.27 194.935 141.14 197.765 142.43C200.595 143.72 200.485 143.96 203.315 145.25C206.145 146.54 206.215 146.4 209.045 147.69C211.875 148.98 211.825 149.1 214.655 150.39C217.485 151.68 217.565 151.51 220.395 152.8C220.395 152.8 220.445 152.86 220.445 152.85C220.445 149.92 220.325 149.92 220.325 146.99C220.325 144.06 220.555 144.06 220.555 141.13C220.555 138.2 220.325 138.2 220.325 135.27C220.325 132.34 220.355 132.34 220.355 129.41C220.355 126.48 220.595 126.48 220.595 123.56C220.595 120.64 220.375 120.63 220.375 117.7C220.375 114.77 220.345 114.77 220.345 111.84C220.345 108.91 220.405 108.91 220.405 105.98C220.405 103.05 220.495 103.05 220.495 100.12C220.495 97.1901 220.155 97.1901 220.155 94.2601C220.155 91.3301 220.485 91.3301 220.485 88.4001C220.485 85.4701 220.305 85.4701 220.305 82.5401C220.305 79.6101 220.375 79.6101 220.375 76.6701C220.375 73.7301 220.375 73.7401 220.375 70.8001L220.285 70.9701C217.455 69.6801 217.515 69.5501 214.685 68.2601C211.855 66.9701 211.915 66.8401 209.085 65.5501C206.255 64.2601 206.235 64.3001 203.415 63.0201C200.595 61.7401 200.525 61.8601 197.705 60.5701C194.885 59.2801 194.845 59.3501 192.015 58.0601C189.185 56.7701 189.255 56.6201 186.425 55.3301C183.595 54.0401 183.535 54.1801 180.705 52.8901C177.875 51.6001 177.905 51.5301 175.075 50.2401C172.245 48.9501 172.265 48.9101 169.435 47.6201C166.605 46.3301 166.675 46.1801 163.845 44.8901C161.015 43.6001 161.025 43.5701 158.195 42.2801C155.365 40.9901 155.285 41.1701 152.455 39.8701C152.455 39.8701 152.675 39.8001 152.675 39.8101H152.635Z" fill="#FCBA44"/>
<path d="M152.415 107.94C152.415 104.88 152.455 104.88 152.455 101.82C152.455 98.7601 152.445 98.7601 152.445 95.7001C152.445 92.6401 152.405 92.6401 152.405 89.5701C152.405 86.5001 152.385 86.5101 152.385 83.4401C152.385 80.3701 152.425 80.3801 152.425 77.3101" stroke="#E19622" stroke-linecap="round" stroke-linejoin="round"/>
<path d="M197.265 80.6603C196.755 81.7703 194.255 81.5803 191.165 80.6703C189.305 80.1303 187.225 79.3203 185.195 78.3903C183.165 77.4603 181.205 76.3803 179.585 75.3403C176.875 73.6003 175.125 71.9003 175.635 70.7903C176.295 69.3403 177.685 68.3403 179.545 67.8903C180.995 67.5303 182.725 67.5303 184.555 67.8303C186.105 68.0803 187.755 68.5303 189.375 69.2703C190.995 70.0103 192.435 70.9303 193.635 71.9403C195.055 73.1303 196.145 74.4703 196.825 75.8003C197.695 77.5003 197.935 79.2103 197.265 80.6703V80.6603Z" fill="white"/>
<path d="M197.265 80.66C196.755 81.77 194.255 81.59 191.165 80.69C189.305 80.15 187.245 79.28 185.215 78.35C183.185 77.42 181.185 76.42 179.555 75.38C176.845 73.64 175.115 71.9 175.625 70.79" stroke="#E19622" stroke-linecap="round" stroke-linejoin="round"/>
<path d="M71.3652 67.3002C71.3652 70.2302 71.6952 70.2302 71.6952 73.1602C71.6952 76.0902 71.7252 76.0901 71.7252 79.0201C71.7252 81.9501 71.3852 81.9501 71.3852 84.8801C71.3852 87.8101 71.6152 87.8101 71.6152 90.7401C71.6152 93.6701 71.6152 93.6702 71.6152 96.5902C71.6152 99.5102 71.3452 99.5201 71.3452 102.45C71.3452 105.38 71.6552 105.38 71.6552 108.31C71.6552 111.24 71.4752 111.24 71.4752 114.17C71.4752 117.1 71.5652 117.1 71.5652 120.03C71.5652 122.96 71.4152 122.96 71.4152 125.89C71.4152 128.82 71.4152 128.82 71.4152 131.75C71.4152 134.68 71.7552 134.68 71.7552 137.61C71.7552 140.54 71.5752 140.54 71.5752 143.48C71.5752 146.42 71.7252 146.41 71.7252 149.35L71.5052 149.46C74.3352 150.75 74.4252 150.56 77.2452 151.85C80.0652 153.14 80.0852 153.11 82.9152 154.4C85.7452 155.69 85.6652 155.86 88.4852 157.15C91.3052 158.44 91.3552 158.35 94.1752 159.64C96.9952 160.93 96.9852 160.97 99.8152 162.26C102.645 163.55 102.725 163.37 105.555 164.66C108.385 165.95 108.335 166.06 111.165 167.35C113.995 168.64 113.885 168.87 116.715 170.16C119.545 171.45 119.685 171.13 122.515 172.42C125.345 173.71 125.225 173.97 128.055 175.26C130.885 176.55 130.955 176.4 133.785 177.69C136.615 178.98 136.595 179.03 139.425 180.33H139.465C139.465 177.4 139.655 177.4 139.655 174.47C139.655 171.54 139.605 171.54 139.605 168.61C139.605 165.68 139.555 165.68 139.555 162.75C139.555 159.82 139.455 159.82 139.455 156.89C139.455 153.96 139.245 153.96 139.245 151.04C139.245 148.12 139.625 148.11 139.625 145.18C139.625 142.25 139.325 142.25 139.325 139.32C139.325 136.39 139.495 136.39 139.495 133.46C139.495 130.53 139.605 130.53 139.605 127.6C139.605 124.67 139.625 124.67 139.625 121.74C139.625 118.81 139.625 118.81 139.625 115.88C139.625 112.95 139.415 112.95 139.415 110.02C139.415 107.09 139.295 107.09 139.295 104.15C139.295 101.21 139.555 101.22 139.555 98.2801L139.505 98.1401C136.675 96.8501 136.555 97.1201 133.725 95.8301C130.895 94.5401 130.995 94.3201 128.175 93.0301C125.355 91.7401 125.305 91.8401 122.475 90.5501C119.645 89.2602 119.635 89.3001 116.805 88.0101C113.975 86.7201 113.995 86.6701 111.175 85.3801C108.355 84.0901 108.365 84.0401 105.545 82.7501C102.725 81.4601 102.685 81.5401 99.8552 80.2501C97.0252 78.9601 96.9852 79.0401 94.1552 77.7501C91.3252 76.4601 91.4652 76.1701 88.6352 74.8801C85.8052 73.5901 85.7652 73.6801 82.9352 72.3901C80.1052 71.1001 80.0152 71.2801 77.1852 69.9901C74.3552 68.7001 74.3852 68.6302 71.5552 67.3402C71.5552 67.3402 71.3952 67.2902 71.3952 67.3002H71.3652Z" fill="#FCBA44"/>
<path d="M220.385 153.01C217.495 153.99 217.455 153.87 214.565 154.85C211.675 155.83 211.625 155.69 208.745 156.67C205.865 157.65 205.885 157.73 202.995 158.71C200.105 159.69 200.065 159.56 197.175 160.54C194.285 161.52 194.265 161.46 191.385 162.44C188.505 163.42 188.595 163.71 185.715 164.69C182.835 165.67 182.845 165.71 179.955 166.7C177.065 167.69 177.055 167.64 174.165 168.62C171.275 169.6 171.315 169.71 168.425 170.69C165.535 171.67 165.455 171.42 162.565 172.4C159.675 173.38 159.675 173.37 156.785 174.35C153.895 175.33 153.975 175.56 151.085 176.54C148.195 177.52 148.195 177.51 145.295 178.5C142.395 179.49 142.315 179.22 139.425 180.2L139.275 180.3C139.275 177.37 139.335 177.37 139.335 174.44C139.335 171.51 139.445 171.51 139.445 168.58C139.445 165.65 139.405 165.65 139.405 162.72C139.405 159.79 139.565 159.79 139.565 156.86C139.565 153.93 139.345 153.93 139.345 151.01C139.345 148.09 139.455 148.08 139.455 145.15C139.455 142.22 139.485 142.22 139.485 139.29C139.485 136.36 139.395 136.36 139.395 133.43C139.395 130.5 139.285 130.5 139.285 127.57C139.285 124.64 139.575 124.64 139.575 121.71C139.575 118.78 139.555 118.78 139.555 115.85C139.555 112.92 139.325 112.92 139.325 109.99C139.325 107.06 139.365 107.06 139.365 104.12C139.365 101.18 139.325 101.19 139.325 98.2503C139.325 98.2503 139.475 98.3403 139.475 98.3303C142.365 97.3503 142.315 97.2003 145.205 96.2203C148.095 95.2403 148.125 95.3303 151.015 94.3503C153.905 93.3703 153.955 93.5203 156.845 92.5403C159.735 91.5603 159.685 91.4303 162.575 90.4403C165.465 89.4503 165.495 89.5703 168.385 88.5903C171.275 87.6103 171.225 87.4603 174.105 86.4803C176.985 85.5003 177.045 85.6503 179.935 84.6703C182.825 83.6903 182.815 83.6703 185.705 82.6903C188.595 81.7103 188.605 81.7303 191.485 80.7503C194.375 79.7703 194.285 79.5103 197.175 78.5303C200.065 77.5503 200.035 77.4703 202.925 76.4903C205.815 75.5103 205.925 75.8303 208.815 74.8503C211.705 73.8703 211.695 73.8403 214.595 72.8603C217.495 71.8803 217.375 71.5503 220.265 70.5703L220.195 70.7703C220.195 73.7003 220.355 73.7003 220.355 76.6303C220.355 79.5603 220.265 79.5603 220.265 82.4903C220.265 85.4203 220.555 85.4203 220.555 88.3503C220.555 91.2803 220.435 91.2803 220.435 94.2103C220.435 97.1403 220.485 97.1403 220.485 100.06C220.485 102.98 220.245 102.99 220.245 105.92C220.245 108.85 220.395 108.85 220.395 111.78C220.395 114.71 220.165 114.71 220.165 117.64C220.165 120.57 220.165 120.57 220.165 123.5C220.165 126.43 220.165 126.43 220.165 129.36C220.165 132.29 220.145 132.29 220.145 135.22C220.145 138.15 220.415 138.15 220.415 141.08C220.415 144.01 220.395 144.01 220.395 146.95C220.395 149.89 220.415 149.88 220.415 152.82C220.415 152.82 220.415 153.01 220.405 153.01H220.385Z" fill="#FFDA99"/>
<path d="M71.5654 149.27C74.3954 150.56 74.2754 150.82 77.1054 152.11C79.9354 153.4 79.9854 153.29 82.8154 154.58C85.6454 155.87 85.6654 155.81 88.4954 157.1C91.3254 158.39 91.2354 158.58 94.0654 159.87C96.8954 161.16 96.8954 161.17 99.7154 162.46C102.535 163.75 102.535 163.77 105.365 165.06C108.195 166.35 108.285 166.14 111.115 167.43C113.945 168.72 113.865 168.89 116.695 170.18C119.525 171.47 119.605 171.28 122.435 172.57C125.265 173.86 125.225 173.95 128.055 175.24C130.885 176.53 130.935 176.44 133.765 177.73C136.595 179.02 136.335 179.9 139.445 180.07C142.555 180.24 142.245 179.11 145.135 178.12C148.025 177.13 148.065 177.27 150.955 176.29C153.845 175.31 153.905 175.48 156.795 174.5C159.685 173.52 159.705 173.57 162.585 172.59C165.465 171.61 165.385 171.34 168.265 170.36C171.145 169.38 171.205 169.52 174.085 168.54C176.965 167.56 176.945 167.47 179.835 166.49C182.725 165.51 182.815 165.78 185.705 164.79C188.595 163.8 188.505 163.53 191.385 162.55C194.265 161.57 194.335 161.74 197.225 160.76C200.115 159.78 200.045 159.57 202.935 158.59C205.825 157.61 205.885 157.79 208.775 156.81C211.665 155.83 211.675 155.85 214.565 154.87C217.455 153.89 217.505 154.03 220.395 153.04" stroke="#E19622" stroke-linecap="round" stroke-linejoin="round"/>
<path d="M139.345 180.32C139.345 177.43 139.415 177.43 139.415 174.53C139.415 171.63 139.375 171.64 139.375 168.74C139.375 165.84 139.395 165.85 139.395 162.95C139.395 160.05 139.395 160.05 139.395 157.16C139.395 154.27 139.525 154.27 139.525 151.37C139.525 148.47 139.505 148.47 139.505 145.58C139.505 142.69 139.485 142.68 139.485 139.78C139.485 136.88 139.375 136.88 139.375 133.98" stroke="#E19622" stroke-linecap="round" stroke-linejoin="round"/>
<path d="M116.105 107.75C115.595 108.86 113.165 108.7 110.075 107.8C108.215 107.26 106.155 106.4 104.125 105.47C102.095 104.54 100.095 103.55 98.4651 102.5C95.7551 100.76 93.9751 98.9901 94.4851 97.8801C95.1451 96.4301 96.5951 95.4401 98.4451 94.9801C99.8951 94.6201 101.625 94.6501 103.455 94.9401C105.005 95.1901 106.665 95.6201 108.285 96.3601C109.905 97.1001 111.335 98.0401 112.535 99.0501C113.955 100.24 115.095 101.55 115.775 102.89C116.645 104.59 116.775 106.3 116.105 107.75Z" fill="#FFDA99"/>
<path d="M116.145 107.77C115.635 108.88 113.155 108.72 110.065 107.81C108.205 107.27 106.155 106.39 104.125 105.46C102.095 104.53 100.125 103.49 98.495 102.45C95.785 100.71 94.015 99.0202 94.525 97.9102" stroke="#E19622" stroke-linecap="round" stroke-linejoin="round"/>
<path d="M71.5054 67.3501C74.3354 68.6401 74.3354 68.6301 77.1654 69.9201C79.9954 71.2101 79.9954 71.2001 82.8254 72.4901C85.6554 73.7801 85.7254 73.6101 88.5554 74.9001C91.3854 76.1901 91.2454 76.5001 94.0654 77.7901C96.8854 79.0801 96.9854 78.8901 99.8054 80.1801C102.625 81.4701 102.565 81.6301 105.385 82.9201C108.205 84.2101 108.315 83.9801 111.145 85.2701C113.975 86.5601 113.905 86.7201 116.735 88.0101C119.565 89.3001 119.625 89.1601 122.455 90.4501C125.285 91.7401 125.155 92.0201 127.985 93.3101C130.815 94.6001 130.945 94.3201 133.775 95.6201C136.605 96.9201 136.585 96.9501 139.415 98.2401C139.415 98.2401 139.505 98.5401 139.505 98.5301C142.395 97.5501 142.305 97.2801 145.195 96.3001C148.085 95.3201 148.065 95.2801 150.955 94.3001C153.845 93.3201 153.875 93.4001 156.755 92.4201C159.635 91.4401 159.685 91.5501 162.575 90.5701C165.465 89.5901 165.315 89.1601 168.205 88.1801C171.095 87.2001 171.235 87.6101 174.115 86.6301C176.995 85.6501 176.925 85.4201 179.815 84.4401C182.705 83.4601 182.735 83.5501 185.625 82.5701C188.515 81.5901 188.515 81.6001 191.405 80.6101C194.295 79.6201 194.205 79.3701 197.095 78.3901C199.985 77.4101 200.045 77.5801 202.935 76.6001C205.825 75.6201 205.885 75.7901 208.775 74.8101C211.665 73.8301 211.645 73.7701 214.535 72.7801C217.425 71.7901 217.365 71.6101 220.255 70.6301" stroke="#E19622" stroke-linecap="round" stroke-linejoin="round"/>
<path d="M162.14 109.97C164.413 109.209 164.389 109.155 166.663 108.393C168.936 107.631 168.959 107.701 171.232 106.939C173.505 106.177 173.489 106.131 175.762 105.37C178.035 104.608 178.036 104.616 180.309 103.862C182.582 103.108 182.589 103.115 184.862 102.354C187.135 101.592 187.128 101.569 189.408 100.807C191.689 100.046 191.689 100.053 193.962 99.2916C195.907 98.6377 197.844 99.1454 199.344 100.199C200.844 101.253 201.969 102.9 201.969 104.923C201.969 107.101 201.961 107.101 201.961 109.278C201.961 111.455 201.953 111.455 201.953 113.632C201.953 115.81 201.844 115.81 201.844 117.987C201.844 120.164 202 120.164 202 122.341C202 124.519 201.914 124.519 201.914 126.696C201.914 128.873 201.828 128.873 201.828 131.058C201.828 133.243 201.922 133.235 201.922 135.42C201.922 136.682 201.461 137.844 200.742 138.829C200.024 139.813 199.079 140.66 197.868 141.067C195.595 141.829 195.587 141.798 193.314 142.56C191.041 143.322 191.01 143.229 188.737 143.983C186.464 144.737 186.495 144.837 184.222 145.599C181.949 146.361 181.964 146.391 179.691 147.153C177.418 147.915 177.418 147.915 175.145 148.676C172.872 149.438 172.857 149.407 170.584 150.169C168.311 150.931 168.303 150.923 166.03 151.685C164.085 152.338 162.101 151.931 160.601 150.877C159.101 149.823 158.172 148.099 158.172 146.076C158.172 143.899 158 143.899 158 141.721C158 139.544 158.148 139.544 158.148 137.367C158.148 135.19 158.023 135.19 158.023 133.012C158.023 130.835 158.078 130.835 158.078 128.658C158.078 126.481 158.023 126.481 158.023 124.303C158.023 122.126 158.141 122.126 158.141 119.941C158.141 117.756 158.117 117.764 158.117 115.579C158.117 114.317 158.43 113.071 159.14 112.086C159.851 111.101 160.937 110.378 162.156 109.97H162.14Z" fill="#FFF3E2" stroke="#F2765E" stroke-miterlimit="10" stroke-linejoin="round"/>
<path d="M166.745 119.48C169.365 118.59 169.385 118.64 172.005 117.75C174.625 116.86 174.635 116.88 177.255 115.99C179.875 115.1 179.875 115.09 182.505 114.2C185.135 113.31 185.115 113.25 187.735 112.36C190.355 111.47 190.385 111.54 193.005 110.65" stroke="#F2765E" stroke-linecap="round" stroke-linejoin="round"/>
<path d="M166.775 129.87C169.395 128.98 169.365 128.89 171.995 128C174.625 127.11 174.635 127.16 177.255 126.27C179.875 125.38 179.885 125.41 182.515 124.52C185.145 123.63 185.125 123.58 187.755 122.69C190.385 121.8 190.375 121.8 193.005 120.9" stroke="#F2765E" stroke-linecap="round" stroke-linejoin="round"/>
<path d="M166.775 124.87C169.395 123.98 169.365 123.89 171.995 123C174.625 122.11 174.635 122.16 177.255 121.27C179.875 120.38 179.885 120.41 182.515 119.52C185.145 118.63 185.125 118.58 187.755 117.69" stroke="#F2765E" stroke-linecap="round" stroke-linejoin="round"/>
<path d="M166.745 140.09C169.365 139.2 169.385 139.25 172.005 138.36C174.625 137.47 174.635 137.49 177.255 136.6C179.875 135.71 179.875 135.7 182.505 134.81C185.135 133.92 185.115 133.86 187.735 132.97C190.355 132.08 190.385 132.15 193.005 131.26" stroke="#F2765E" stroke-linecap="round" stroke-linejoin="round"/>
<path d="M166.745 135.09C169.365 134.2 169.385 134.25 172.005 133.36C174.625 132.47 174.635 132.49 177.255 131.6C179.875 130.71 179.875 130.7 182.505 129.81C185.135 128.92 185.115 128.86 187.735 127.97" stroke="#F2765E" stroke-linecap="round" stroke-linejoin="round"/>
</g>
<defs>
<clipPath id="clip0_4024_89498">
<rect width="283" height="181" fill="white" transform="translate(0.5)"/>
</clipPath>
</defs>
</svg>
