<svg width="24" height="24" viewBox="0 0 24 24" fill="none" xmlns="http://www.w3.org/2000/svg">
<path d="M12 24C18.6274 24 24 18.6274 24 12C24 5.37258 18.6274 0 12 0C5.37258 0 0 5.37258 0 12C0 18.6274 5.37258 24 12 24Z" fill="#FFCA28"/>
<path fill-rule="evenodd" clip-rule="evenodd" d="M12 12.5834L6.75 14.9166V12.5834L12 10.25L17.25 12.5834V14.625V14.1875V14.9166L12 12.5834ZM12 6.16663L17.25 8.5V10.8334L12 8.5L6.75 10.8334V8.5L12 6.16663ZM13.9688 14.625L16.5938 15.7916L12 17.8334V15.5L13.9688 14.625Z" fill="white"/>
</svg>
