<svg width="229" height="85" viewBox="0 0 229 85" fill="none" xmlns="http://www.w3.org/2000/svg">
<path d="M0 82C0 83.1046 0.895431 84 2 84H226C227.105 84 228 83.1046 228 82V54H0V82Z" fill="white"/>
<path d="M228 54V83C228 83.5523 227.552 84 227 84H2C1.44772 84 1 83.5523 1 83V54" stroke="#F0F0F0"/>
<path d="M36.3105 74H35.168V64.8403H36.3105V74ZM38.2853 74V67.1572H39.3263V68.2363H39.4279C39.7918 67.4365 40.4774 67.0366 41.4845 67.0366C42.2505 67.0366 42.8408 67.2567 43.2555 67.6968C43.6702 68.1326 43.8776 68.7568 43.8776 69.5693V74H42.7858V69.8359C42.7858 69.2223 42.6525 68.7674 42.3859 68.4712C42.1235 68.1707 41.7194 68.0205 41.1735 68.0205C40.6234 68.0205 40.1854 68.194 39.8595 68.541C39.5379 68.8838 39.3771 69.3535 39.3771 69.9502V74H38.2853ZM48.9881 67.0366C49.8598 67.0366 50.5559 67.3582 51.0765 68.0015C51.6012 68.6447 51.8636 69.5037 51.8636 70.5786C51.8636 71.6493 51.6012 72.5083 51.0765 73.1558C50.5517 73.799 49.8556 74.1206 48.9881 74.1206C48.5014 74.1206 48.0698 74.0212 47.6932 73.8223C47.3165 73.6191 47.0351 73.3356 46.8489 72.9717H46.7474V76.2852H45.6556V67.1572H46.6966V68.2998H46.7981C47.0182 67.9062 47.3208 67.5973 47.7058 67.373C48.0952 67.1488 48.5226 67.0366 48.9881 67.0366ZM48.7278 73.1367C49.3541 73.1367 49.845 72.9103 50.2005 72.4575C50.5559 72.0047 50.7337 71.3784 50.7337 70.5786C50.7337 69.7788 50.5559 69.1525 50.2005 68.6997C49.8492 68.2469 49.3605 68.0205 48.7342 68.0205C48.1163 68.0205 47.6254 68.2511 47.2615 68.7124C46.8976 69.1694 46.7156 69.7915 46.7156 70.5786C46.7156 71.3615 46.8955 71.9836 47.2552 72.4448C47.6191 72.9061 48.11 73.1367 48.7278 73.1367ZM58.891 67.1572V74H57.85V72.9272H57.7485C57.575 73.3123 57.3084 73.6086 56.9487 73.8159C56.589 74.019 56.1489 74.1206 55.6284 74.1206C54.8666 74.1206 54.2869 73.9027 53.8891 73.4668C53.4913 73.0309 53.2924 72.4046 53.2924 71.5879V67.1572H54.3842V71.3213C54.3842 71.9434 54.5069 72.4004 54.7524 72.6924C54.9978 72.9801 55.3914 73.124 55.933 73.124C56.5297 73.124 56.9889 72.9569 57.3105 72.6226C57.6363 72.284 57.7993 71.8122 57.7993 71.207V67.1572H58.891ZM61.1832 65.3862H62.275V67.1572H63.7984V68.0713H62.275V71.9434C62.275 72.3454 62.3554 72.6374 62.5162 72.8193C62.677 73.0013 62.9351 73.0923 63.2906 73.0923C63.4472 73.0923 63.6164 73.0838 63.7984 73.0669V73.9873C63.5572 74.0296 63.3435 74.0508 63.1573 74.0508C62.4506 74.0508 61.9449 73.909 61.6402 73.6255C61.3355 73.342 61.1832 72.8743 61.1832 72.2227V68.0713H60.0787V67.1572H61.1832V65.3862Z" fill="#4B4848"/>
<path fill-rule="evenodd" clip-rule="evenodd" d="M26 64H10V74H26V64ZM12 66V72H24V66H12ZM14 67V71H15.5V67H14Z" fill="#858282"/>
<rect width="229" height="54" fill="white"/>
<rect width="229" height="54" fill="#61DF48" fill-opacity="0.15"/>
<g filter="url(#filter0_d)">
<rect x="10.5" y="14.5" width="208" height="25" fill="white" stroke="#EBEBEB"/>
</g>
<defs>
<filter id="filter0_d" x="2" y="6" width="225" height="42" filterUnits="userSpaceOnUse" color-interpolation-filters="sRGB">
<feFlood flood-opacity="0" result="BackgroundImageFix"/>
<feColorMatrix in="SourceAlpha" type="matrix" values="0 0 0 0 0 0 0 0 0 0 0 0 0 0 0 0 0 0 127 0"/>
<feOffset/>
<feGaussianBlur stdDeviation="4"/>
<feColorMatrix type="matrix" values="0 0 0 0 0 0 0 0 0 0 0 0 0 0 0 0 0 0 0.1 0"/>
<feBlend mode="normal" in2="BackgroundImageFix" result="effect1_dropShadow"/>
<feBlend mode="normal" in="SourceGraphic" in2="effect1_dropShadow" result="shape"/>
</filter>
</defs>
</svg>
