<svg width="261" height="150" viewBox="0 0 261 150" fill="none" xmlns="http://www.w3.org/2000/svg">
    <g clip-path="url(#eyuhobfo0a)">
        <path d="M152.249 126.553c-5.613 2.416-5.665 2.281-11.278 4.697s-5.946 1.624-11.56 4.04c-5.613 2.416-5.581 2.489-11.194 4.905-5.613 2.416-5.353 3.03-10.966 5.446-5.249 2.26-11.268 1.75-16.35-.874-5.477-2.833-5.581-2.635-11.06-5.478-5.477-2.843-5.29-3.187-10.767-6.03-5.477-2.843-5.488-2.811-10.976-5.654s-5.686-2.437-11.174-5.27c-3.478-1.801-3.405-7.456.188-9.008 5.612-2.416 5.904-1.739 11.507-4.165 5.602-2.426 5.3-3.135 10.913-5.551 5.613-2.416 5.978-1.582 11.59-3.999 5.614-2.415 5.635-2.384 11.248-4.8 5.248-2.26 11.247-2.75 16.329-.115 3.651 1.889 7.307 3.777 10.965 5.665 5.478 2.833 5.457 2.875 10.935 5.707 5.477 2.833 5.102 3.572 10.59 6.405 5.489 2.832 5.624 2.561 11.102 5.404 3.478 1.802 3.561 7.102-.032 8.654l-.01.021z" fill="#ECE6F3"/>
        <path d="M188.864 83.574c-5.978-.208-5.967-.729-11.945-.937-5.977-.208-5.988.073-11.976-.135-5.987-.209-5.998.198-11.975-.01-5.978-.21-5.978-.386-11.955-.594-5.978-.209-5.999.26-11.976.052-5.988-.209-5.957-.938-11.945-1.146-5.977-.208-5.998.385-11.986.177-5.988-.208-5.967-.885-11.945-1.093-5.977-.209-6.019.666-12.007.458-.75-.02-1.291.083-1.291.833 0 5.165.135 5.165.135 10.33 0 5.166-.53 5.166-.593 10.331-.156 1.76 1.208 3.291 3.04 4.238 5.416 2.802 5.114 3.374 10.519 6.176 5.404 2.801 5.519 2.593 10.924 5.394 5.404 2.801 5.581 2.489 10.986 5.29 5.405 2.802 5.426 2.77 10.841 5.572 5.425 2.811 11.83 3.676 17.453 1.249A5518.16 5518.16 0 0 1 154.259 125c5.54-2.385 5.446-2.603 10.986-4.988 5.541-2.385 5.426-2.645 10.966-5.04 5.54-2.395 5.624-2.198 11.164-4.582 1.77-.76 3.113-2.448 3.197-4.103.041-5.343-.969-5.343-.958-10.685.01-5.342.854-5.342.854-10.684 0-.709-.886-1.323-1.594-1.344h-.01z" fill="#D5E1E6"/>
        <path d="M188.874 83.16c-5.977-.21-5.988-.157-11.965-.365-5.978-.209-5.978-.365-11.955-.573-5.978-.208-6.009.416-11.987.208-5.977-.208-5.967-.51-11.955-.718-5.977-.209-5.977-.438-11.955-.646-5.977-.208-5.987-.135-11.975-.344-5.988-.208-6.009.5-11.987.292-5.988-.208-5.967-.77-11.955-.979-5.988-.208-6.008.541-11.996.333-.75-.02-1.77.063-1.77.802 0 5.165-.084 5.165-.084 10.33 0 5.166.469 5.166.396 10.331-.156 1.76.645 3.811 2.468 4.759 5.415 2.801 5.634 2.364 11.049 5.165 5.405 2.802 5.3 3.01 10.705 5.811 5.405 2.802 5.415 2.791 10.831 5.603 5.415 2.812 5.3 3.02 10.715 5.821 5.426 2.812 11.882 2.687 17.506.26 5.54-2.384 5.623-2.197 11.163-4.582 5.541-2.384 5.686-2.041 11.226-4.425 5.541-2.385 5.572-2.323 11.112-4.718s5.509-2.458 11.049-4.853c1.77-.76 2.156-2.749 2.239-4.405.042-5.342.271-5.342.271-10.684 0-5.343.302-5.343.302-10.685 0-.708-.719-1.739-1.427-1.76l-.021.021z" fill="#D5E1E6"/>
        <path d="M188.864 83.407c-5.978-.208-5.978-.374-11.955-.583-5.978-.208-6.009.667-11.997.459-5.988-.209-5.977-.459-11.955-.667-5.977-.208-5.957-.864-11.934-1.073-5.978-.208-5.978-.239-11.965-.447-5.988-.209-5.988-.084-11.976-.292-5.988-.208-5.999.24-11.976.031-5.978-.208-5.978-.604-11.955-.812-5.988-.208-5.988-.187-11.976-.396-.75-.02-1.666.813-1.666 1.562 0 5.166.468 5.166.468 10.33 0 5.166-.624 5.166-.697 10.331-.156 1.76 1 3.905 2.832 4.853 5.415 2.801 5.561 2.499 10.976 5.301 5.416 2.801 5.239 3.124 10.654 5.925 5.415 2.801 5.811 2.041 11.215 4.843 5.405 2.801 5.249 3.113 10.664 5.915 5.426 2.811 11.768 3.134 17.381.718 5.54-2.385 5.477-2.52 11.017-4.905 5.54-2.384 5.707-1.989 11.247-4.374 5.54-2.384 5.509-2.478 11.049-4.863 5.54-2.384 5.509-2.447 11.06-4.842 1.77-.76 2.457-2.468 2.541-4.114.041-5.342.385-5.342.385-10.684s.323-5.342.333-10.685c0-.708-1.052-1.489-1.76-1.52l-.01-.01z" fill="#D5E1E6"/>
        <path d="M188.853 83.899c-5.977-.209-5.988-.063-11.965-.271-5.978-.208-5.957-.812-11.945-1.02-5.988-.209-5.998.218-11.976.01-5.977-.208-5.967-.73-11.944-.937-5.978-.209-5.978-.469-11.955-.677-5.988-.209-6.009.416-11.986.208-5.978-.208-5.999.198-11.976 0-5.978-.198-5.978-.604-11.955-.812-5.988-.209-5.998.125-11.986-.084-.75-.02-1.75.115-1.75.854 0 5.166.385 5.166.385 10.33 0 5.166.01 5.166-.052 10.331-.156 1.76.917 3.197 2.75 4.145 5.415 2.801 5.206 3.197 10.611 5.998 5.405 2.802 5.467 2.687 10.872 5.488 5.405 2.802 5.478 2.677 10.893 5.478 5.415 2.801 5.196 3.218 10.612 6.03 5.425 2.811 11.736 2.395 17.349-.032 5.54-2.384 5.759-1.874 11.299-4.259 5.54-2.385 5.55-2.343 11.091-4.728 5.54-2.385 5.592-2.27 11.132-4.655 5.54-2.384 5.405-2.718 10.945-5.102 1.77-.761 2.634-2.26 2.718-3.906.041-5.342.52-5.342.52-10.684s-.916-5.342-.916-10.685c0-.708-.052-1-.76-1.03l-.011.01z" fill="#D5E1E6"/>
        <path d="M81.154 80.086c-.75-.031-1.197.344-1.197 1.094 0 5.165-.01 5.165-.01 10.33s0 5.165-.063 10.331c-.156 1.76.573 3.551 2.405 4.498 5.415 2.802 5.384 2.864 10.79 5.665 5.404 2.802 5.498 2.625 10.902 5.426 5.405 2.801 5.384 2.864 10.789 5.665 5.405 2.801 5.384 2.853 10.799 5.655 2.937 1.52 6.384 2.374 9.612 2.374 1.562-5.967-.208-6.227-.208-12.392 0-6.165.187-6.165.187-12.33s-.052-6.165-.052-12.34c0-6.176 4.166-7.936-.302-12.195-4.874-4.645-6.581-.344-13.309-.583-6.717-.23-6.717-.26-13.444-.5-6.727-.24-6.727-.23-13.454-.385-6.728-.157-6.728-.094-13.455-.323l.01.01z" fill="#ABBBC1"/>
        <mask id="p56v5l84rb" style="mask-type:luminance" maskUnits="userSpaceOnUse" x="79" y="80" width="112" height="51">
            <path d="M188.864 83.554c-5.978-.208-5.988 0-11.976-.208-5.978-.208-5.967-.604-11.955-.812-5.988-.208-5.978-.406-11.955-.615-5.978-.208-6.009.719-11.997.51-5.988-.207-5.977-.416-11.955-.624-5.988-.208-5.977-.52-11.955-.729-5.977-.208-5.988-.125-11.965-.333-5.978-.209-5.998.093-11.986-.115-5.988-.208-5.978-.396-11.966-.604-.75-.02-1 .406-1 1.156 0 5.165-.687 5.165-.687 10.33 0 5.166-.052 5.166-.114 10.331-.157 1.76 1.145 3.489 2.968 4.436 5.415 2.802 5.363 2.895 10.767 5.697 5.405 2.801 5.311 2.999 10.716 5.8 5.405 2.801 5.405 2.822 10.81 5.634 5.404 2.812 5.613 2.406 11.028 5.207 5.425 2.812 11.622 2.957 17.245.531 5.54-2.385 5.644-2.156 11.184-4.54 5.54-2.385 5.572-2.312 11.101-4.708 5.53-2.395 5.457-2.582 10.997-4.977 5.541-2.395 5.697-2.031 11.237-4.416 1.77-.76 2.187-2.572 2.27-4.228.042-5.342.437-5.342.437-10.684 0-5.343-.395-5.343-.385-10.685 0-.708-.167-1.343-.875-1.374l.011.02z" fill="#fff"/>
        </mask>
        <g mask="url(#p56v5l84rb)">
            <path d="M70.438 24.57c4.155 1.084 8.28 2.115 11.934 4.01 3.656 1.895 7.436 4.228 10.602 6.915 3.165 2.687 5.717 6.238 8.216 9.59 2.499 3.354 5.103 6.78 6.811 10.623 1.707 3.843 2.915 7.956 3.728 12.1a56.156 56.156 0 0 1 1.01 12.612c-.136 4.259-1.562 8.143-2.656 12.299-1.083 4.155-2.051 8.237-3.957 11.892-1.958 3.78-4.072 7.498-6.758 10.664-2.687 3.165-5.843 6.217-9.196 8.716-3.353 2.499-7.3 4.228-11.142 5.936-3.822 1.697-7.873 2.78-12.018 3.593-4.145.812-8.248 1.916-12.497 1.78a57.684 57.684 0 0 1-12.548-1.832c-4.155-1.083-7.862-3.27-11.518-5.166-3.655-1.895-7.03-4.54-10.184-7.237-3.156-2.697-6.436-5.426-8.936-8.779-2.499-3.353-4.956-6.873-6.654-10.716-1.697-3.842-2.416-8.029-3.239-12.173-.822-4.145-1.135-8.227-1-12.476.136-4.249.657-8.248 1.74-12.403 1.083-4.155 2.426-8.123 4.322-11.788 1.957-3.78 4.144-7.415 6.841-10.58 2.698-3.167 5.718-6.311 9.07-8.821 3.354-2.51 7.468-3.864 11.31-5.572 3.843-1.708 7.717-3.093 11.861-3.905 4.145-.812 8.227-1.593 12.476-1.458 4.114.136 8.227 1.083 12.382 2.166v.01z" fill="#FFCD6E"/>
        </g>
        <path d="M136.077 106.714c-2.947 0-6.082-.813-9.049-2.343-2.77-1.438-4.197-2.114-5.582-2.771-1.354-.645-2.76-1.312-5.478-2.718-2.697-1.395-3.978-2.145-5.332-2.936-1.333-.781-2.697-1.583-5.477-3.02-2.739-1.416-4.114-2.125-5.488-2.833-1.375-.708-2.74-1.406-5.478-2.822a365.148 365.148 0 0 0-5.509-2.812c-1.375-.697-2.75-1.385-5.478-2.8-1.385-.72-1.832-1.99-1.801-2.948.041-1.093.656-1.968 1.708-2.426 2.728-1.177 4.124-1.614 5.582-2.083 1.478-.469 2.999-.948 5.883-2.187a489.407 489.407 0 0 1 5.603-2.385c1.406-.593 2.822-1.187 5.634-2.395 2.916-1.26 4.301-2.124 5.634-2.968 1.291-.812 2.52-1.583 5.206-2.739 2.791-1.197 4.187-1.801 5.582-2.395 1.417-.604 2.822-1.198 5.655-2.416 1.801-.77 3.77-1.166 5.852-1.166 3.02 0 6.197.822 9.196 2.374 2.78 1.437 4.249 2.083 5.665 2.697 1.437.625 2.791 1.219 5.478 2.614a659.164 659.164 0 0 0 5.54 2.854c1.353.697 2.728 1.395 5.425 2.8 2.77 1.438 4.218 2.094 5.624 2.74 1.426.656 2.78 1.27 5.477 2.676 2.739 1.416 4.114 2.124 5.488 2.832 1.375.709 2.739 1.406 5.478 2.833 1.041.542 1.635 1.666 1.583 3.02-.042 1.114-.573 2.51-1.937 3.103-2.801 1.208-4.207 1.791-5.603 2.385a616.847 616.847 0 0 0-5.633 2.395c-2.854 1.23-4.26 1.948-5.624 2.645-1.375.709-2.676 1.365-5.436 2.552l-11.226 4.842c-2.78 1.198-4.218 1.76-5.603 2.302a154.466 154.466 0 0 0-5.706 2.343c-1.823.781-3.791 1.176-5.863 1.176l.01-.02z" fill="#fff"/>
        <path d="M133.754 57.093c2.77 0 5.707.76 8.477 2.197 2.833 1.468 4.322 2.114 5.759 2.75 1.406.614 2.739 1.197 5.384 2.572 2.739 1.416 4.113 2.124 5.488 2.832 1.375.708 2.739 1.406 5.478 2.822a107.432 107.432 0 0 0 5.686 2.77c1.405.646 2.738 1.25 5.415 2.635 2.749 1.427 4.124 2.124 5.498 2.833 1.364.708 2.739 1.405 5.478 2.822.729.375.75 1.301.739 1.572-.021.604-.291 1.416-1 1.719-2.79 1.207-4.196 1.79-5.592 2.384-1.416.594-2.832 1.187-5.644 2.406-2.895 1.25-4.332 1.978-5.717 2.687-1.354.687-2.635 1.343-5.353 2.51-2.812 1.207-4.217 1.822-5.613 2.426-1.395.604-2.801 1.208-5.602 2.416a153.332 153.332 0 0 1-5.551 2.28 132.955 132.955 0 0 0-5.759 2.364c-1.624.698-3.384 1.052-5.248 1.052-2.698 0-5.582-.75-8.331-2.176-2.791-1.448-4.228-2.125-5.624-2.791a150.583 150.583 0 0 1-5.436-2.697c-2.666-1.385-3.926-2.114-5.259-2.906-1.343-.791-2.739-1.604-5.55-3.062-2.75-1.426-4.124-2.124-5.499-2.832a967.16 967.16 0 0 1-5.467-2.822c-2.76-1.427-4.145-2.125-5.53-2.822a494.611 494.611 0 0 1-5.467-2.791c-.729-.375-.979-1.02-.958-1.5.02-.479.27-.833.76-1.041 2.656-1.146 4.01-1.573 5.436-2.02 1.51-.48 3.083-.969 6.03-2.24 2.79-1.207 4.197-1.79 5.592-2.384 1.416-.594 2.833-1.187 5.644-2.406 3.031-1.302 4.468-2.208 5.853-3.082 1.239-.781 2.416-1.52 4.998-2.635 2.802-1.208 4.208-1.802 5.603-2.395 1.406-.604 2.822-1.198 5.634-2.406 1.604-.687 3.363-1.041 5.238-1.041m0-3.124c-2.208 0-4.405.406-6.477 1.291-5.613 2.416-5.624 2.385-11.237 4.811-5.613 2.416-5.238 3.291-10.851 5.707s-5.634 2.374-11.237 4.79c-5.612 2.416-5.852 1.854-11.465 4.27-3.593 1.552-3.478 6.394 0 8.196 5.478 2.843 5.509 2.78 10.997 5.613 3.652 1.895 7.31 3.78 10.976 5.654 5.478 2.833 5.332 3.124 10.81 5.957 5.477 2.833 5.571 2.655 11.059 5.488 3.062 1.583 6.425 2.52 9.768 2.52 2.197 0 4.395-.406 6.477-1.312 5.613-2.416 5.697-2.218 11.31-4.634 5.613-2.416 5.613-2.426 11.226-4.842 5.613-2.416 5.457-2.781 11.059-5.197 5.613-2.416 5.634-2.364 11.247-4.78 3.593-1.552 3.926-7.133.458-8.935a3262.694 3262.694 0 0 0-10.965-5.665c-5.478-2.843-5.624-2.572-11.101-5.405a5432.345 5432.345 0 0 0-10.966-5.654c-5.478-2.833-5.665-2.479-11.143-5.311-3.082-1.594-6.519-2.552-9.914-2.552l-.031-.01z" fill="#D5E1E6"/>
        <path d="M182.303 98.603c.948-.448 2 .104 2.323 1.229.322 1.124-.198 2.384-1.146 2.832-.948.448-1.989-.083-2.312-1.208-.323-1.124.188-2.416 1.135-2.864v.01z" fill="#FCBA44"/>
        <path d="M182.303 98.603c.948-.448 2 .104 2.323 1.229.322 1.124-.198 2.384-1.146 2.832-.948.448-1.989-.083-2.312-1.208-.323-1.124.188-2.416 1.135-2.864v.01z" stroke="#fff" stroke-width="1.333" stroke-miterlimit="10"/>
        <path d="M202.34 57.24c-5.978-.208-5.967-.541-11.955-.75-5.988-.208-5.988-.083-11.966-.291-5.977-.208-5.967-.76-11.944-.969-5.978-.208-5.988-.062-11.966-.27-5.977-.209-5.977-.302-11.965-.51-5.988-.209-5.978-.282-11.966-.49-5.987-.208-5.977-.281-11.965-.49-5.988-.208-6.019.865-12.007.657-5.988-.209-5.967-.813-11.955-1.021-.75-.02-1.573.646-1.573 1.395 0 5.166.125 5.166.125 10.33 0 5.166-.218 5.166-.28 10.331-.157 1.76.77 4.072 2.592 5.02 5.415 2.801 5.624 2.395 11.028 5.196 5.405 2.802 5.489 2.635 10.904 5.436 5.415 2.802 5.561 2.52 10.965 5.322 5.405 2.8 5.332 2.957 10.747 5.758 5.426 2.812 11.508 2.771 17.131.344 5.54-2.385 5.759-1.885 11.299-4.27 5.54-2.384 5.363-2.78 10.903-5.165 5.54-2.385 5.905-1.541 11.445-3.926 5.54-2.384 5.384-2.76 10.924-5.155 1.77-.76 2.478-2.457 2.562-4.113.041-5.342.062-5.342.062-10.684 0-5.343.688-5.343.688-10.685 0-.708-1.125-.968-1.833-.99v-.01z" fill="#D5E1E6"/>
        <path d="M94.651 52.96c-.75-.03-1.124.782-1.124 1.521 0 5.165-.355 5.165-.355 10.33 0 5.166-.02 5.166-.083 10.331-.156 1.76.77 3.749 2.593 4.697 3.61 1.867 7.22 3.731 10.831 5.592 5.404 2.801 5.456 2.718 10.861 5.52 5.405 2.8 5.509 2.613 10.924 5.414 5.415 2.802 5.228 3.166 10.633 5.967 2.936 1.521 6.539 2.114 9.768 2.114 1.562-5.967-.313-6.237-.313-12.402 0-6.165-.104-6.165-.104-12.33s.427-6.165.427-12.34c0-6.176 4.343-8.227-.125-12.487-4.873-4.644-6.852-.291-13.579-.53-6.717-.23-6.738.155-13.455-.084-6.717-.24-6.727-.188-13.455-.49-6.727-.302-6.716-.604-13.433-.833l-.01.01z" fill="#ABBBC1"/>
        <mask id="2fn6vb820c" style="mask-type:luminance" maskUnits="userSpaceOnUse" x="92" y="53" width="112" height="52">
            <path d="M202.361 56.667c-5.978-.209-5.978-.427-11.955-.636-5.978-.208-5.988.073-11.976-.124-5.988-.198-5.988.01-11.976-.198-5.988-.209-5.978-.396-11.955-.604-5.978-.209-5.967-.521-11.955-.73-5.988-.208-6.009.511-11.997.303-5.988-.209-5.956-.99-11.934-1.198-5.977-.208-6.019.781-12.007.573-5.988-.208-5.978-.344-11.965-.552-.75-.02-1.688.24-1.688.979 0 5.165.823 5.165.823 10.33 0 5.166-.958 5.166-1.02 10.33-.157 1.76 1.062 3.823 2.884 4.76 5.415 2.801 5.311 2.989 10.726 5.79 5.416 2.801 5.384 2.853 10.789 5.655 5.405 2.8 5.686 2.27 11.101 5.071 5.415 2.801 5.322 2.978 10.737 5.78 5.425 2.811 11.924 3.009 17.537.583 5.54-2.385 5.602-2.249 11.132-4.634 5.53-2.385 5.53-2.395 11.07-4.78 5.54-2.385 5.238-3.093 10.778-5.478s5.717-1.968 11.257-4.363c1.771-.76 3.124-2.28 3.208-3.936.041-5.343-.406-5.343-.406-10.685 0-5.342-.334-5.342-.334-10.685 0-.708-.187-1.54-.895-1.572l.021.02z" fill="#fff"/>
        </mask>
        <g mask="url(#2fn6vb820c)">
            <path d="M80.655 24.498c4.155 1.083 8.154 2.395 11.809 4.29 3.655 1.896 6.956 4.718 10.122 7.405a55.622 55.622 0 0 1 8.529 9.101c2.499 3.343 4.655 6.894 6.363 10.737 1.708 3.843 3.717 7.613 4.53 11.757.812 4.145.645 8.352.5 12.611-.146 4.26-.386 8.352-1.469 12.507-1.083 4.155-3.301 7.779-5.196 11.434-1.958 3.781-3.531 7.79-6.228 10.956-2.697 3.166-6.352 5.54-9.705 8.05-3.354 2.509-6.696 5.165-10.54 6.873-3.842 1.708-7.997 2.499-12.142 3.311-4.144.813-8.216.99-12.475.844-4.26-.146-8.404.094-12.56-1-4.154-1.083-8.028-2.905-11.683-4.811-3.656-1.906-7.384-4.238-10.54-6.925-3.155-2.687-6.018-5.947-8.528-9.3-2.51-3.353-4.811-6.967-6.52-10.799-1.707-3.832-2.53-7.998-3.352-12.142-.823-4.145-1.844-8.258-1.708-12.507.135-4.249.843-8.373 1.926-12.528 1.083-4.155 3.083-7.935 4.978-11.59 1.895-3.656 4.624-6.988 7.321-10.143 2.697-3.156 5.28-6.634 8.633-9.144 3.353-2.51 7.342-4.03 11.184-5.738 3.843-1.708 7.675-3.332 11.82-4.145 4.145-.812 8.269-1.29 12.528-1.155 4.113.135 8.248.968 12.403 2.051z" fill="#FFCD6E"/>
        </g>
        <path d="M95.932 79.36c5.477 2.832 5.3 3.176 10.778 6.019 5.478 2.832 5.28 3.228 10.757 6.06 5.478 2.833 5.499 2.812 10.976 5.645 5.478 2.832 5.77 2.28 11.258 5.113 5.082 2.634 10.903 2.884 16.151.614 5.614-2.416 5.655-2.322 11.268-4.738 5.613-2.416 5.759-2.083 11.362-4.499 5.602-2.416 5.696-2.218 11.309-4.634 5.613-2.416 5.488-2.718 11.101-5.134" stroke="#80949C" stroke-width="1.333" stroke-linecap="round" stroke-linejoin="round"/>
        <path d="M148.208 79.806c-2.728 0-5.363-.645-7.81-1.916a147.995 147.995 0 0 1-5.384-2.905c-1.333-.75-2.718-1.52-5.478-2.958a240.852 240.852 0 0 0-5.54-2.79c-1.354-.667-2.76-1.344-5.478-2.76-2.79-1.448-4.248-2.083-5.665-2.698-1.437-.624-2.791-1.218-5.477-2.613-2.677-1.385-3.916-2.177-5.228-3.02-1.312-.844-2.666-1.719-5.478-3.166-1.114-.573-1.76-1.562-1.718-2.635.042-1.041.687-1.906 1.791-2.385 2.885-1.239 4.28-2.03 5.634-2.8 1.333-.761 2.604-1.48 5.322-2.646 2.686-1.156 4.082-1.5 5.571-1.864 1.541-.375 3.134-.77 6.05-2.03 2.781-1.198 4.187-1.813 5.572-2.417 1.416-.614 2.811-1.229 5.644-2.447 2.801-1.208 4.207-1.833 5.603-2.447 1.395-.625 2.79-1.24 5.602-2.447 2.52-1.083 5.072-1.635 7.592-1.635 2.52 0 5.019.583 7.248 1.739 2.676 1.385 3.915 2.176 5.228 3.01 1.312.832 2.665 1.707 5.477 3.155 2.812 1.458 4.322 2.04 5.78 2.614 1.447.562 2.812 1.103 5.477 2.478 2.729 1.416 4.072 2.145 5.426 2.874 1.364.74 2.728 1.479 5.488 2.906 2.697 1.395 3.968 2.155 5.322 2.947 1.322.791 2.697 1.603 5.477 3.04 1.125.584 1.771 1.604 1.729 2.75-.042 1.083-.687 1.978-1.781 2.447-2.843 1.218-4.249 1.906-5.623 2.562-1.344.645-2.729 1.312-5.499 2.51-2.749 1.187-4.124 1.645-5.592 2.145-1.458.49-2.968 1-5.832 2.228l-11.226 4.832a683.9 683.9 0 0 0-5.592 2.437c-1.406.615-2.801 1.229-5.613 2.447a17.497 17.497 0 0 1-6.988 1.469l-.031-.01z" fill="#fff"/>
        <path d="M149.333 30.768c2.333 0 4.53.52 6.519 1.562 2.614 1.354 3.822 2.125 5.103 2.947 1.343.854 2.728 1.74 5.592 3.228 2.885 1.49 4.436 2.094 5.926 2.687 1.405.552 2.738 1.073 5.331 2.416a283.397 283.397 0 0 1 5.395 2.864c1.343.729 2.739 1.49 5.509 2.926 2.655 1.375 3.915 2.125 5.238 2.906 1.343.802 2.739 1.624 5.561 3.082.822.427.895 1.052.885 1.302-.011.323-.167.78-.844 1.072-2.863 1.24-4.3 1.927-5.675 2.593-1.385.667-2.697 1.302-5.436 2.479-2.687 1.156-4.041 1.614-5.467 2.093-1.49.5-3.031 1.02-5.947 2.28-2.801 1.209-4.207 1.813-5.613 2.417-1.405.604-2.811 1.208-5.613 2.416-2.822 1.218-4.217 1.833-5.623 2.447-1.396.614-2.791 1.229-5.582 2.426-2.062.886-4.207 1.344-6.373 1.344-2.479 0-4.863-.583-7.102-1.74-2.687-1.395-3.978-2.113-5.332-2.884a140.572 140.572 0 0 0-5.53-2.978 203.306 203.306 0 0 0-5.571-2.802 249.6 249.6 0 0 1-5.447-2.738c-2.832-1.469-4.321-2.114-5.758-2.75-1.406-.614-2.739-1.197-5.384-2.572-2.614-1.354-3.822-2.124-5.093-2.947-1.343-.864-2.728-1.75-5.602-3.239-.573-.291-.886-.729-.875-1.197.01-.417.312-.77.854-1.01 2.957-1.281 4.394-2.094 5.78-2.875 1.301-.739 2.52-1.437 5.175-2.572 2.562-1.104 3.905-1.437 5.322-1.78 1.53-.375 3.259-.802 6.3-2.114a815.728 815.728 0 0 0 5.623-2.437c1.396-.604 2.791-1.219 5.593-2.427 2.822-1.218 4.248-1.853 5.633-2.468 1.365-.604 2.781-1.239 5.561-2.437 2.323-1 4.666-1.51 6.978-1.51m0-3.124c-2.77 0-5.561.625-8.206 1.76-5.613 2.416-5.582 2.479-11.195 4.905s-5.603 2.447-11.216 4.863c-5.613 2.416-6.009 1.48-11.622 3.895-5.613 2.416-5.342 3.03-10.955 5.447-3.593 1.551-3.655 6.05-.177 7.841 5.478 2.843 5.217 3.353 10.695 6.186 5.478 2.843 5.665 2.478 11.153 5.31 5.478 2.833 5.54 2.708 11.018 5.551 5.478 2.833 5.384 3.02 10.861 5.863a18.532 18.532 0 0 0 8.529 2.093c2.573 0 5.155-.53 7.613-1.593 5.613-2.416 5.592-2.457 11.205-4.873l11.226-4.832c5.613-2.416 5.811-1.958 11.414-4.374 5.613-2.416 5.508-2.656 11.121-5.072 3.593-1.551 3.624-6.217.157-8.018-5.478-2.843-5.322-3.156-10.799-5.999-5.478-2.843-5.426-2.947-10.904-5.79-5.477-2.832-5.779-2.26-11.257-5.092-5.478-2.833-5.228-3.332-10.705-6.165-2.52-1.302-5.228-1.906-7.956-1.906z" fill="#D5E1E6"/>
        <path d="M195.779 71.903c.948-.448 1.989.125 2.312 1.25.323 1.124-.166 2.415-1.114 2.863-.948.448-1.999-.114-2.322-1.24-.323-1.124.177-2.415 1.124-2.863v-.01z" fill="#FCBA44"/>
        <path d="M195.779 71.903c.948-.448 1.989.125 2.312 1.25.323 1.124-.166 2.415-1.114 2.863-.948.448-1.999-.114-2.322-1.24-.323-1.124.177-2.415 1.124-2.863v-.01z" stroke="#fff" stroke-width="1.333" stroke-miterlimit="10"/>
        <path d="M82.436 106.08c5.477 2.833 5.404 2.989 10.882 5.832s5.238 3.291 10.716 6.133c5.477 2.843 5.457 2.885 10.945 5.718 5.488 2.832 5.665 2.489 11.142 5.321 5.082 2.635 11.268 3.312 16.527 1.052 5.613-2.416 5.446-2.812 11.049-5.228s5.561-2.53 11.174-4.946c5.613-2.416 5.55-2.573 11.164-4.989 5.613-2.416 5.831-1.916 11.444-4.332" stroke="#80949C" stroke-width="1.333" stroke-linecap="round" stroke-linejoin="round"/>
        <path d="M182.043 29.748c-5.977-.208-5.967-.77-11.944-.979-5.978-.208-5.999.198-11.976-.01-5.978-.208-5.999.177-11.976-.031-5.978-.208-5.978-.23-11.965-.438-5.988-.208-5.957-.822-11.945-1.03-5.988-.209-5.988-.24-11.965-.448-5.978-.209-5.988-.042-11.966-.25-5.977-.209-5.988-.26-11.976-.469-5.988-.208-5.977-.562-11.965-.77-.75-.021-.885 1.02-.885 1.76 0 5.165-.636 5.165-.636 10.33s-.302 5.165-.364 10.33c-.156 1.76 1.343 3.24 3.166 4.187 5.415 2.801 5.04 3.52 10.445 6.32 5.405 2.802 5.56 2.51 10.965 5.312 5.405 2.801 5.364 2.895 10.779 5.696 5.415 2.802 5.425 2.78 10.84 5.582 5.426 2.812 11.966 3.02 17.579.604 5.54-2.385 5.353-2.832 10.893-5.217 5.54-2.385 5.727-1.948 11.267-4.332 5.541-2.385 5.634-2.177 11.174-4.572 5.541-2.395 5.228-3.114 10.768-5.509 1.771-.76 2.791-1.968 2.885-3.624.041-5.342.364-5.342.364-10.684 0-5.343-.229-5.343-.229-10.685 0-.708-.614-1.062-1.322-1.083l-.011.01z" fill="#D5E1E6"/>
        <path d="M74.355 25.739c-.75-.032-1.469.614-1.469 1.354 0 5.165.032 5.165.032 10.33s-.084 5.165-.157 10.33c-.156 1.76.98 3.406 2.812 4.343 5.415 2.801 5.353 2.916 10.768 5.717 5.415 2.801 5.342 2.926 10.747 5.728 5.405 2.801 5.478 2.676 10.893 5.477 5.415 2.802 5.457 2.718 10.861 5.53 2.937 1.52 6.332 2.5 9.571 2.5 1.562-5.968-.49-6.239-.49-12.404 0-6.164.052-6.164.052-12.33 0-6.164-.01-6.164-.01-12.34 0-6.175 4.707-8.122.239-12.382-4.873-4.644-6.758-.229-13.486-.468-6.727-.24-6.727.083-13.454-.156-6.727-.24-6.717-.563-13.444-.802-6.728-.24-6.728-.209-13.455-.448l-.01.02z" fill="#ABBBC1"/>
        <mask id="nzvyryl99d" style="mask-type:luminance" maskUnits="userSpaceOnUse" x="72" y="25" width="112" height="53">
            <path d="M182.064 29.049c-5.977-.208-5.988-.063-11.965-.27-5.978-.209-5.998.343-11.986.135-5.988-.209-5.967-.656-11.945-.865-5.977-.208-5.977-.437-11.955-.645-5.977-.209-6.009.666-11.997.458-5.988-.208-5.967-.583-11.955-.792-5.977-.208-5.977-.291-11.965-.5-5.988-.208-5.967-.687-11.955-.895-5.988-.208-6.02.729-12.007.52-.75-.02-1.146.146-1.146.896 0 5.165-.53 5.165-.53 10.33 0 5.166.02 5.166-.042 10.331-.157 1.76.916 3.822 2.738 4.77 5.416 2.801 5.697 2.249 11.102 5.05 5.404 2.802 5.03 3.541 10.434 6.342 5.405 2.802 5.415 2.791 10.83 5.593 5.416 2.8 5.436 2.76 10.852 5.56 5.425 2.812 12.08 2.791 17.693.375 5.54-2.384 5.685-2.04 11.226-4.425 5.54-2.385 5.404-2.708 10.934-5.093 5.53-2.385 5.571-2.322 11.112-4.707 5.54-2.385 5.321-2.895 10.861-5.28 1.77-.76 3.083-2.082 3.166-3.728.042-5.342-.49-5.342-.49-10.684 0-5.343.302-5.343.302-10.685 0-.708-.593-1.76-1.301-1.78l-.011-.011z" fill="#fff"/>
        </mask>
        <g mask="url(#nzvyryl99d)">
            <path d="M70.47 24.445c4.155 1.084 8.32 2.083 11.986 3.989 3.666 1.906 6.915 4.905 10.07 7.602 3.156 2.697 6.457 5.488 8.956 8.841 2.499 3.353 4.218 7.27 5.926 11.101 1.707 3.833 2.645 7.852 3.467 11.997.823 4.145 1.5 8.164 1.365 12.424-.136 4.259-.792 8.227-1.875 12.382-1.083 4.155-2.114 8.268-4.009 11.923-1.958 3.781-4.791 6.946-7.488 10.112-2.697 3.166-5.613 6.269-8.956 8.769-3.342 2.499-6.956 4.748-10.788 6.456-3.832 1.708-7.977 2.395-12.122 3.208-4.145.812-8.195 2.166-12.444 2.03-4.25-.135-8.321-1.041-12.476-2.124-4.155-1.083-8.206-2.458-11.861-4.353-3.656-1.895-7.071-4.686-10.237-7.383-3.166-2.698-5.915-5.957-8.414-9.3-2.5-3.343-4.77-6.894-6.478-10.737a55.711 55.711 0 0 1-3.78-11.965C.5 85.272-.115 81.159.021 76.91c.135-4.249 1.176-8.206 2.27-12.361 1.083-4.155 2.697-7.956 4.592-11.611 1.958-3.78 3.895-7.509 6.582-10.675 2.687-3.165 5.946-5.946 9.3-8.445 3.353-2.5 7.091-4.395 10.923-6.103 3.833-1.707 7.592-3.77 11.737-4.592 4.144-.823 8.362-.52 12.61-.385 4.25.135 8.27.625 12.425 1.707h.01z" fill="#FFCD6E"/>
        </g>
        <path d="M75.24 52.73c5.477 2.833 5.612 2.573 11.1 5.405 5.488 2.833 5.613 2.562 11.091 5.405 5.478 2.843 5.436 2.926 10.914 5.77 5.477 2.842 5.706 2.405 11.184 5.248 5.082 2.634 10.643 2.832 15.902.572 5.613-2.415 5.759-2.061 11.372-4.477 5.613-2.416 5.457-2.78 11.059-5.197 5.603-2.416 5.873-1.822 11.487-4.238 5.613-2.416 5.498-2.698 11.111-5.114" stroke="#80949C" stroke-width="1.333" stroke-linecap="round" stroke-linejoin="round"/>
        <path d="M126.424 52.648c-2.427 0-4.666-.52-6.634-1.541-2.645-1.375-3.853-2.208-5.123-3.093-1.292-.906-2.635-1.833-5.468-3.301-2.822-1.458-4.353-2.031-5.831-2.573-1.458-.53-2.822-1.041-5.478-2.416-2.635-1.364-3.801-2.228-5.05-3.144-1.282-.948-2.615-1.927-5.468-3.406-2.77-1.437-4.218-2.103-5.623-2.739-1.427-.656-2.77-1.27-5.478-2.676-1.073-.562-1.697-1.53-1.656-2.614.042-1.093.73-2.03 1.854-2.52 2.78-1.198 4.197-1.77 5.603-2.333a207.121 207.121 0 0 0 5.675-2.374c2.853-1.229 4.26-1.947 5.623-2.635 1.375-.697 2.687-1.364 5.447-2.551a679.003 679.003 0 0 1 5.613-2.395 935.312 935.312 0 0 0 5.634-2.406 127.835 127.835 0 0 0 5.613-2.551c1.343-.646 2.739-1.302 5.519-2.5 2.02-.874 4.197-1.312 6.477-1.312 2.895 0 5.853.73 8.529 2.125a208.374 208.374 0 0 0 5.551 2.78c1.354.656 2.759 1.344 5.477 2.75 2.677 1.384 3.916 2.176 5.228 3.01 1.312.832 2.666 1.697 5.467 3.144 2.76 1.427 8.248 4.249 10.966 5.665 2.812 1.458 4.332 2.041 5.79 2.604 1.448.562 2.812 1.083 5.478 2.468 1.041.541 1.645 1.582 1.604 2.78-.032.979-.563 2.25-1.927 2.833-2.801 1.208-4.207 1.79-5.613 2.384-1.416.594-2.822 1.177-5.644 2.396-2.854 1.228-4.26 1.947-5.624 2.634-1.385.698-2.686 1.364-5.446 2.552a298.65 298.65 0 0 1-5.603 2.353 297.974 297.974 0 0 0-5.675 2.385c-2.749 1.187-4.124 1.645-5.592 2.135-1.458.49-2.979.989-5.843 2.228-2.822 1.219-5.738 1.864-8.424 1.864l.052-.01z" fill="#fff"/>
        <path d="M127.673 3.13c2.645 0 5.353.677 7.811 1.947a195.73 195.73 0 0 0 5.592 2.802c1.406.687 2.739 1.333 5.446 2.728 2.614 1.354 3.832 2.125 5.113 2.947 1.344.854 2.729 1.74 5.592 3.218 2.739 1.416 4.114 2.124 5.489 2.833 1.374.708 2.738 1.416 5.488 2.832 2.895 1.5 4.446 2.093 5.946 2.676 1.406.542 2.739 1.052 5.321 2.396.688.354.771.989.761 1.333 0 .25-.105 1.072-.979 1.457a488.255 488.255 0 0 1-5.593 2.375 696.744 696.744 0 0 0-5.654 2.395 87.59 87.59 0 0 0-5.707 2.676c-1.354.688-2.635 1.344-5.353 2.51-2.78 1.198-4.207 1.78-5.581 2.343a278.024 278.024 0 0 0-5.686 2.385c-2.687 1.156-4.041 1.604-5.468 2.083-1.489.5-3.04 1.01-5.967 2.27-2.634 1.135-5.332 1.739-7.8 1.739-2.176 0-4.165-.458-5.915-1.364-2.561-1.323-3.717-2.135-4.946-2.989-1.333-.937-2.718-1.895-5.644-3.405-2.916-1.51-4.489-2.093-6.009-2.656-1.406-.52-2.729-1.01-5.3-2.333-2.52-1.301-3.646-2.134-4.843-3.009-1.333-.979-2.718-2-5.676-3.53a107.986 107.986 0 0 0-5.686-2.77 109.56 109.56 0 0 1-5.415-2.645c-.729-.375-.823-.896-.812-1.177 0-.281.146-.802.916-1.135 2.77-1.198 4.197-1.77 5.572-2.323 1.406-.572 2.863-1.155 5.706-2.384 2.895-1.25 4.333-1.979 5.718-2.677 1.353-.687 2.634-1.343 5.352-2.51a732.513 732.513 0 0 1 5.603-2.395c1.416-.593 2.822-1.197 5.634-2.405 2.864-1.229 4.29-1.916 5.675-2.572a135.592 135.592 0 0 1 5.457-2.479c1.822-.791 3.801-1.187 5.853-1.187m0-3.124c-2.416 0-4.822.468-7.092 1.437-5.613 2.416-5.519 2.635-11.132 5.05-5.613 2.417-5.634 2.385-11.247 4.801-5.613 2.416-5.457 2.78-11.06 5.197-5.613 2.416-5.665 2.29-11.278 4.707-3.593 1.552-3.78 6.154-.302 7.956 5.478 2.843 5.624 2.572 11.101 5.415 5.478 2.843 5.03 3.707 10.518 6.55 5.478 2.833 5.832 2.156 11.309 4.989 5.478 2.832 5.103 3.561 10.581 6.394 2.301 1.197 4.811 1.707 7.352 1.707 3.062 0 6.165-.75 9.039-1.989 5.613-2.416 5.821-1.937 11.434-4.352 5.613-2.416 5.655-2.312 11.268-4.728s5.457-2.77 11.07-5.186 5.634-2.354 11.247-4.77c3.593-1.551 3.895-6.633.427-8.435-5.478-2.843-5.79-2.239-11.278-5.072a3263.163 3263.163 0 0 0-10.966-5.665c-5.478-2.832-5.228-3.322-10.705-6.165-5.478-2.832-5.551-2.697-11.029-5.53-2.884-1.499-6.071-2.3-9.247-2.3l-.01-.011z" fill="#D5E1E6"/>
        <path d="M175.493 44.515c.948-.448 1.989.104 2.322 1.229.334 1.124-.187 2.385-1.135 2.832-.947.448-1.968-.093-2.291-1.218-.322-1.125.157-2.406 1.115-2.853l-.011.01z" fill="#FCBA44"/>
        <path d="M175.493 44.515c.948-.448 1.989.104 2.322 1.229.334 1.124-.187 2.385-1.135 2.832-.947.448-1.968-.093-2.291-1.218-.322-1.125.157-2.406 1.115-2.853l-.011.01z" stroke="#fff" stroke-width="1.333" stroke-miterlimit="10"/>
        <path d="M128.193 76.985V65.332M148.344 103.945c0-7.31-.041-7.31-.041-14.62M135.993 131.218v-16.277" stroke="#80949C" stroke-width="1.333" stroke-linecap="round" stroke-linejoin="round"/>
        <path d="M109.386 110.673c-1.729 2.978-5.488 3.436-8.467 1.01-2.978-2.427-4.061-6.821-2.332-9.789 1.728-2.979 5.592-3.395 8.57-.969 2.979 2.427 3.957 6.78 2.229 9.758v-.01z" fill="#80949C"/>
        <path d="M61.42 59.061c3.603.938 6.821 2.562 9.29 5.01 2.467 2.447 4.165 5.779 5.123 9.226.958 3.447 1.114 6.915.177 10.518-.937 3.603-2.687 6.78-5.124 9.247-2.436 2.468-5.706 4.374-9.164 5.322-3.457.947-7.03 1.187-10.632.24a20.809 20.809 0 0 1-9.29-5.28c-2.478-2.437-4.3-5.801-5.258-9.258-.958-3.458-1.156-7.04-.209-10.643.938-3.603 3.02-6.634 5.468-9.112 2.447-2.479 5.623-4.5 9.07-5.447 3.447-.947 6.946-.77 10.55.177z" fill="#fff"/>
        <path d="M103.93 106.184c-2.271 1.927-3.958 4.405-5.593 6.894-2.249 3.426-4.748 6.988-6.206 10.809-1.583 4.166-2.333 8.467-2.083 12.278.281 4.207 2 8.04 5.717 10.726 3.187 2.302 8.342 2.031 11.653-.885 2.541-2.239 3.999-6.186 3.114-11.507-.531-3.218-1.958-7.019-4.645-11.361-1.853-3-4.394-6.197-7.55-9.737-2.457-2.76-5.217-5.79-8.58-8.873-2.791-2.562-5.968-5.165-9.446-7.946-3.01-2.405-6.102-5.123-9.674-7.695" stroke="#60747B" stroke-width="4" stroke-miterlimit="10" stroke-linecap="round"/>
        <path d="M59.296 53.25c-.333 2.051-.302 2.062-.635 4.113M44.331 50.168c1.118 2.958 2.235 5.919 3.353 8.883M36.323 63.78c.903.735 1.805 1.475 2.708 2.217M25.639 74.828c3.124.507 6.248 1.017 9.372 1.531M33.99 88.304l2.708-1.02M37.645 103.299c2-2.45 4.003-4.901 6.01-7.352M53.35 103.81c.312-1.926.302-1.926.614-3.853" stroke="#FCBA44" stroke-width="1.333" stroke-miterlimit="10" stroke-linecap="round"/>
        <path d="M64.576 76.953c-.833 1.145-.874 1.124-1.707 2.27l-.01.042c-2.365-1.719-2.323-1.77-4.687-3.489a1.381 1.381 0 0 1-.302-1.958l-.042-.03a1.457 1.457 0 0 1 2.02-.313c1.577 1.145 3.149 2.294 4.718 3.447l.01.041v-.01zM58.734 84.847c-.556.764-1.11 1.53-1.666 2.301 0 0 .01.032 0 .032-2.364-1.719-2.343-1.74-4.707-3.458a1.431 1.431 0 0 1-.323-1.989l.02.01a1.404 1.404 0 0 1 1.969-.312c2.364 1.718 2.374 1.698 4.738 3.416h-.031z" fill="#FCBA44"/>
        <path d="M72.949 86.074c-2.27 3.104-2.229 3.124-4.5 6.238h-.04c-1.209-.874-1.188-.906-2.386-1.78a2016.87 2016.87 0 0 0 4.53-6.218l.021-.03c1.208.874 1.198.884 2.395 1.76l-.02.02v.01z" fill="#253135"/>
        <path d="M72.949 86.074c-2.27 3.104-2.229 3.124-4.5 6.238h-.04c-1.209-.874-1.188-.906-2.386-1.78a2016.87 2016.87 0 0 0 4.53-6.218l.021-.03c1.208.874 1.198.884 2.395 1.76l-.02.02v.01z" stroke="#253135" stroke-width="1.333" stroke-linejoin="round"/>
        <path d="M70.543 84.326c1.208.875 1.219.854 2.427 1.74l-.021.01a2063.353 2063.353 0 0 0-4.53 6.217" fill="#253135"/>
        <path d="M70.543 84.326c1.208.875 1.219.854 2.427 1.74l-.021.01a2063.353 2063.353 0 0 0-4.53 6.217" stroke="#253135" stroke-width="1.333" stroke-linecap="round" stroke-linejoin="round"/>
        <path d="m69.043 79.337-8.227 11.289v-.042c2.593-.052 2.593 0 5.197-.041 0 0 .041.02.041.01 2.27-3.103 2.24-3.124 4.5-6.238h-.042c-.75-2.489-.677-2.51-1.427-4.999h-.052l.01.021z" fill="#253135"/>
        <path d="m69.043 79.337-8.227 11.289v-.042c2.593-.052 2.593 0 5.197-.041 0 0 .041.02.041.01 2.27-3.103 2.24-3.124 4.5-6.238h-.042c-.75-2.489-.677-2.51-1.427-4.999h-.052l.01.021z" stroke="#253135" stroke-width="1.333" stroke-linejoin="round"/>
        <path d="M66.003 90.533c1.513-2.07 3.023-4.142 4.53-6.217h.042c-.75-2.49-.771-2.49-1.51-4.978" fill="#253135"/>
        <path d="M66.003 90.533c1.513-2.07 3.023-4.142 4.53-6.217h.042c-.75-2.49-.771-2.49-1.51-4.978" stroke="#253135" stroke-width="1.333" stroke-linecap="round" stroke-linejoin="round"/>
        <path d="M69.096 79.369a6712.74 6712.74 0 0 1-8.259 11.278l-.03-.021c-1.209-.875-1.198-.885-2.396-1.77v.01c2.75-3.763 5.495-7.53 8.237-11.299l.032-.042c1.208.875 1.197.886 2.405 1.76l.032.073-.021.01z" fill="#253135"/>
        <path d="M69.096 79.369a6712.74 6712.74 0 0 1-8.259 11.278l-.03-.021c-1.209-.875-1.198-.885-2.396-1.77v.01c2.75-3.763 5.495-7.53 8.237-11.299l.032-.042c1.208.875 1.197.886 2.405 1.76l.032.073-.021.01z" stroke="#253135" stroke-width="1.333" stroke-linejoin="round"/>
        <path d="M66.638 77.578c1.208.875 1.188.896 2.395 1.77l.01-.02c-4.123 5.644-4.081 5.675-8.205 11.33" fill="#253135"/>
        <path d="M66.638 77.578c1.208.875 1.188.896 2.395 1.77l.01-.02c-4.123 5.644-4.081 5.675-8.205 11.33" stroke="#253135" stroke-width="1.333" stroke-linecap="round" stroke-linejoin="round"/>
        <path d="M67.336 76.536c-4.864 6.665-4.822 6.696-9.675 13.36l-.041.043c-.969-.708-.906-.802-1.875-1.51 0 0 .01.083.02.083 3.243-4.443 6.478-8.89 9.707-13.34h-.052c.968.708.947.729 1.916 1.437v-.073z" fill="#253135"/>
        <path d="M67.336 76.536c-4.864 6.665-4.822 6.696-9.675 13.36l-.041.043c-.969-.708-.906-.802-1.875-1.51 0 0 .01.083.02.083 3.243-4.443 6.478-8.89 9.707-13.34h-.052c.968.708.947.729 1.916 1.437v-.073z" stroke="#253135" stroke-width="1.333" stroke-linejoin="round"/>
        <path d="M65.42 75.162c.968.708.968.719 1.936 1.427h.063l-9.727 13.33" fill="#253135"/>
        <path d="M65.42 75.162c.968.708.968.719 1.936 1.427h.063l-9.727 13.33" stroke="#253135" stroke-width="1.333" stroke-linecap="round" stroke-linejoin="round"/>
    </g>
    <defs>
        <clipPath id="eyuhobfo0a">
            <path fill="#fff" d="M0 0h261v150H0z"/>
        </clipPath>
    </defs>
</svg>
