<svg width="181" height="178" viewBox="0 0 181 178" fill="none" xmlns="http://www.w3.org/2000/svg">
    <g clip-path="url(#bbb8sz2h1a)">
        <path d="M79.973 91.975a2.333 2.333 0 0 0 2.251-2.411 2.334 2.334 0 0 0-2.419-2.244 2.333 2.333 0 0 0-2.25 2.41 2.334 2.334 0 0 0 2.418 2.245zM68.117 102.375c3.081 0 5.57-2.49 5.57-5.553 0-3.062-2.498-5.553-5.57-5.553s-5.57 2.49-5.57 5.553c0 3.062 2.498 5.553 5.57 5.553zM107.34 114.088a8.228 8.228 0 0 0-4.476-2.297 10.018 10.018 0 0 0-2.94-7.647c-2.383-2.376-5.65-3.309-8.74-2.816a7.16 7.16 0 0 0-1.96-3.678 7.167 7.167 0 0 0-10.107 0c-1.598 1.593-2.27 3.74-2.048 5.817a3.645 3.645 0 0 0-4.467 4.831c-.177-.009-.353 0-.53.017a2.644 2.644 0 0 0-2.278 2.957 2.649 2.649 0 0 0 2.966 2.27 2.639 2.639 0 0 0 2.278-2.957c0-.044-.017-.079-.026-.114.785.22 1.633.185 2.418-.141a8.53 8.53 0 0 0 2.41 7.357 8.54 8.54 0 0 0 4.891 2.42 6.642 6.642 0 0 0 1.81 6.08c1.74 1.734 4.21 2.306 6.436 1.725-.08.079-.15.158-.23.246-.08.088-.159.176-.23.282-.079.106-.15.22-.211.334-.036.062-.08.115-.115.185h.017c-.361.731-.511 1.567-.335 2.42a3.794 3.794 0 0 0 4.458 2.957 3.77 3.77 0 0 0 2.63-2.024h.019s.026-.071.044-.106c.053-.123.097-.255.141-.378.035-.106.07-.22.097-.326.027-.123.044-.246.062-.369.017-.123.035-.247.035-.37 0-.114 0-.229-.009-.334a2.03 2.03 0 0 0-.044-.405c0-.044 0-.079-.009-.123-.017-.071-.044-.141-.061-.211a6.396 6.396 0 0 0-.115-.388 3.633 3.633 0 0 0-.15-.325c-.053-.115-.115-.22-.177-.326a2.351 2.351 0 0 0-.212-.299 2.354 2.354 0 0 0-.238-.282 6.95 6.95 0 0 0-.265-.255 3.732 3.732 0 0 0-.282-.229 2.747 2.747 0 0 0-.336-.211c-.062-.035-.123-.088-.185-.114-.035-.018-.08-.027-.115-.044-.124-.053-.256-.097-.38-.141a5.047 5.047 0 0 0-.326-.097 5.302 5.302 0 0 0-.371-.061 2.586 2.586 0 0 0-.37-.036c-.115 0-.23 0-.345.009h-.212c.3-.211.583-.44.848-.713 0 0 .008-.017.017-.017 3.258 2.842 8.21 2.728 11.318-.37 3.107-3.097 3.24-8.465 0-11.694v-.009zM123.062 139.413c-2.913.167-5.147 2.658-4.979 5.562a5.285 5.285 0 0 0 5.579 4.963c2.914-.168 5.147-2.658 4.979-5.562a5.284 5.284 0 0 0-5.579-4.963zM77.898 140.451c.283-5.412-1.633-10.912-5.773-15.047-4.688-4.673-11.123-6.503-17.197-5.535a13.898 13.898 0 0 0-3.858-7.225c-5.49-5.473-14.39-5.473-19.88 0a13.894 13.894 0 0 0-4.017 8.395 4.353 4.353 0 0 0-1.457.194 4.489 4.489 0 0 0-2.93 5.649 4.512 4.512 0 0 0 5.667 2.921c.194-.061.362-.149.538-.228a14.1 14.1 0 0 0 1.183 1.742c-3.99 6.494-3.186 15.091 2.455 20.723 2.71 2.702 6.1 4.268 9.622 4.761-.883 4.18.3 8.712 3.567 11.959 5.137 5.121 13.453 5.121 18.591 0 .01-.018.027-.027.036-.044a16.396 16.396 0 0 0 3.928 2.543 5.263 5.263 0 0 0 1.942 5.737c2.357 1.716 5.668 1.214 7.39-1.135a5.245 5.245 0 0 0 1.006-3.494 16.288 16.288 0 0 0 8.007-4.373c6.373-6.353 6.373-16.649 0-23.002a16.244 16.244 0 0 0-8.802-4.523l-.018-.018z" fill="#EDEBFC"/>
        <path d="M90.346 123.31c.194-3.758-1.13-7.585-4.017-10.454-3.257-3.247-7.724-4.514-11.953-3.846a9.72 9.72 0 0 0-2.684-5.024c-3.813-3.802-10.002-3.802-13.815 0a9.714 9.714 0 0 0-2.799 5.834c-.335 0-.68.026-1.015.132a3.124 3.124 0 0 0-2.04 3.925c.521 1.645 2.287 2.552 3.938 2.032.132-.044.256-.105.37-.158.248.422.513.827.822 1.214-2.772 4.515-2.216 10.49 1.703 14.397a11.723 11.723 0 0 0 6.683 3.308 9.078 9.078 0 0 0 2.472 8.307c3.567 3.555 9.349 3.555 12.924 0l.027-.026c.838.73 1.757 1.32 2.728 1.769a3.64 3.64 0 0 0 1.35 3.986 3.68 3.68 0 0 0 5.138-.792c.539-.731.76-1.593.698-2.429a11.337 11.337 0 0 0 5.561-3.036 11.276 11.276 0 0 0 0-15.989 11.273 11.273 0 0 0-6.118-3.141l.027-.009zM56.155 96.813a2.643 2.643 0 0 0 2.278-2.957 2.644 2.644 0 0 0-5.244.686c.185 1.444 1.518 2.456 2.966 2.271zM106.572 152.814s-.018-.07-.018-.105c-.009-.115-.035-.229-.062-.352a1.71 1.71 0 0 0-.07-.291 3.31 3.31 0 0 0-.115-.299c-.044-.097-.08-.202-.133-.29-.044-.088-.105-.168-.158-.247a3.135 3.135 0 0 0-.212-.29c-.027-.027-.036-.053-.062-.088-.044-.044-.097-.079-.141-.132-.08-.079-.168-.158-.256-.238a7.095 7.095 0 0 0-.256-.184 2.907 2.907 0 0 0-.274-.168c-.097-.052-.185-.088-.283-.132a1.69 1.69 0 0 0-.3-.105c-.106-.027-.203-.053-.309-.071-.106-.017-.203-.035-.309-.044-.114-.008-.229-.008-.344-.008-.062 0-.124-.009-.194 0-.035 0-.071.017-.106.017a2.28 2.28 0 0 0-.344.062 1.72 1.72 0 0 0-.292.07 2.962 2.962 0 0 0-.3.115c-.097.044-.203.079-.291.132-.088.044-.168.105-.247.158a3.435 3.435 0 0 0-.283.202c-.026.027-.062.036-.088.062-.053.044-.088.097-.133.141a3.275 3.275 0 0 0-.229.255c-.071.079-.124.167-.185.255a2.768 2.768 0 0 0-.168.273c-.053.097-.088.193-.133.29-.035.097-.079.194-.106.299-.026.106-.053.203-.07.308a3.215 3.215 0 0 0-.044.308c-.009.115-.009.229-.009.344 0 .061-.009.123 0 .184h.018c.044.696.3 1.382.803 1.945a3.277 3.277 0 0 0 4.617.273 3.234 3.234 0 0 0 1.077-2.649h.018-.009zM91.838 87.108a3.25 3.25 0 0 0-.212-4.602 3.274 3.274 0 0 0-4.617.211 3.25 3.25 0 0 0 .212 4.602 3.274 3.274 0 0 0 4.617-.21z" fill="#EDEBFC"/>
        <path d="M179.225 34.275c-4.705-4.69-26.36-.185-45.887 15.065-.592-.466-1.475-.475-2.048.097L114.393 66.28a1.527 1.527 0 0 0-.265 1.786c.088.167.185.352.291.545-.079.097-.15.194-.229.29-.486.626-.962 1.26-1.43 1.884-.106.15-.212.3-.327.449-.353.484-.706.968-1.042 1.443l-.529.765c-.256.37-.521.748-.768 1.118-.195.282-.38.563-.565.845-.23.343-.451.686-.671 1.03-.186.29-.371.589-.556.88-.204.325-.407.66-.61.985-.176.29-.353.58-.52.871-.565-1.276-2.013-2.12-3.558-1.663l-16.888 4.945a2.983 2.983 0 0 0-1.668 1.259L71.32 102.64a2.97 2.97 0 0 0-.362 2.349l.874 3.23c.592 2.2 3.346 2.93 4.962 1.328l12.253-12.213 8.89-2.658 1.527.37c.247.061.494.079.75.07-.088.36-.168.713-.247 1.065-.044.193-.088.387-.124.58-.088.423-.159.837-.22 1.25l-.08.458a26.99 26.99 0 0 0-.185 1.601v.035a24.879 24.879 0 0 0-.07 1.593v.123c-1.599-.44-3.382-.052-4.644 1.197a4.732 4.732 0 0 0 0 6.714l8.836 8.809a4.77 4.77 0 0 0 6.736 0c1.263-1.259 1.642-3.036 1.201-4.629.256 0 .521-.009.794-.017.133 0 .265-.009.398-.018.485-.026.979-.07 1.492-.123l.229-.027a33.174 33.174 0 0 0 3.84-.721c0 .246.018.501.08.748l.37 1.522-2.666 8.861-12.253 12.214c-1.615 1.611-.874 4.356 1.333 4.946l3.24.871a2.96 2.96 0 0 0 2.357-.361l18.989-13.692a2.976 2.976 0 0 0 1.262-1.663l4.962-16.834c.45-1.54-.389-2.983-1.669-3.546a86.97 86.97 0 0 0 3.479-2.165c.053-.035.105-.07.167-.106.459-.299.927-.616 1.395-.924l.336-.228a104.73 104.73 0 0 0 4.043-2.904c.203-.15.406-.308.609-.458.194-.15.397-.3.591-.449.186.106.371.203.521.282.601.325 1.333.22 1.81-.255l16.914-16.86c.574-.572.565-1.452.097-2.042 15.291-19.456 19.793-41.015 15.087-45.705v.017z" fill="#EDEBFC"/>
        <path d="M71.242 123.266c-.362-.335-.954-.616-1.369-.819.468-.255.927-.712 1.298-1.126 1.872-2.015 1.73-4.796-.282-6.661-1.14-1.056-2.72-1.391-4.14-1.197-.027-1.531-.486-3.23-1.704-4.356-1.387-1.276-3.214-2.217-4.944-1.927 0 0 .185.458.194.449 2.278-2.455 2.216-6.591-.238-8.862-.415-.387-.83-.527-1.316-.774.097-2.094-1.041-4.074-2.71-5.614-3.001-2.772-7.318-2.438-10.1.554-.043.044-.493-.105-.529-.053-.344-.95-.856-1.812-1.66-2.551-2.648-2.438-6.762-2.43-9.207.21-.335.362-.327.978-.565 1.382-.035-.035-.565.053-.61.018-2.471-2.28-5.923-2.297-8.21.167-2.286 2.464-2.374 6.292.098 8.571.715.66 1.96 1.03 2.843 1.285-1.069 2.305-.768 4.963 1.209 6.776 1.483 1.363 3.31 2.05 5.147 1.68.264.933.494 2.068 1.262 2.781 1.386 1.276 3.558 1.478 5.27 1.082.195.238.203.599.442.81.423.387.936.484 1.421.739-.874 2.605-.23 5.79 1.925 7.77 2.78 2.57 7.088 2.147 9.834-.361.318.81.9 1.831 1.58 2.455 1.05.968 2.375 1.576 3.7 1.672-.072.071-.416-.264-.486-.193-1.325 1.425-1.157 4.136.273 5.456 1.43 1.32 4.088 1.214 5.412-.212.326-.352.265-.686.424-1.1 1.915 1.056 4.387.405 5.94-1.267 1.828-1.971 1.775-4.98-.202-6.802v.018zm-24.63-19.676c-.362-.027-.848.123-1.201.149.097-.246.133-.809.185-1.064.098.096.548.167.654.264.176.158.176.51.362.651zM90.831 120.715c-3.151 1.751-4.484 5.517-2.728 8.659 1.757 3.141 5.712 4.074 8.864 2.323 3.151-1.752 4.529-5.65 2.78-8.791-1.747-3.142-5.764-3.943-8.916-2.191zM37.325 65.61c-.76 1.963-.097 3.987 1.871 4.743 1.97.757 4.22-.14 4.98-2.103.759-1.962-.424-3.801-2.393-4.558-1.969-.757-3.699-.053-4.458 1.918zM79.47 152.438c2.498-.775 4.096-3.74 3.32-6.222-.778-2.481-3.709-3.757-6.198-2.983-2.49.775-3.673 3.318-2.896 5.808.777 2.49 3.275 4.171 5.774 3.397z" fill="#FFDA99"/>
        <path d="M87.97 129.443c1.758 3.141 5.81 3.915 8.952 2.173 3.152-1.751 4.706-5.641 2.949-8.782M41.828 63.587c-1.97-.757-4.29-.15-5.05 1.812-.76 1.963.441 4.233 2.41 4.998M73.644 149.057c.776 2.49 3.275 3.96 5.773 3.185 2.498-.774 3.752-3.414 2.975-5.904M24.842 91.842c-2.286 2.464-1.933 6.432.539 8.711.715.66 1.66 1.162 2.542 1.417-1.068 2.306-.618 4.998 1.35 6.811 1.484 1.364 3.338 1.998 5.183 1.637.265.933 1.05 1.496 1.81 2.209 1.386 1.276 2.966 1.601 4.67 1.205.194.238.37.933.609 1.153.423.387.891.633 1.377.889-.874 2.604.141 5.288 2.295 7.268 2.781 2.57 6.657 2.675 9.402.159.318.809.883 1.786 1.571 2.42a6.132 6.132 0 0 0 3.708 1.583c-.07.071.159.37.088.44-1.324 1.426-1.721 3.582-.29 4.902 1.43 1.32 4.086 1.249 5.41-.185.327-.352.23-.634.39-1.056 1.915 1.056 4.722.642 6.276-1.029" stroke="#FCBA44" stroke-width="1.333" stroke-miterlimit="10"/>
        <path d="M74.323 97.042c-.927.59-1.669 1.373-2.366 2.209-.31.378-.645.809-1.05 1.073-.442.282-1.06.079-1.537.211-1.289.379-2.366 1.98-3.663 2.139-.433.052-.715-.027-1.077.281-.23.194-.592.203-.76.44-.653.942-1.933 1.012-2.94.898-1.544-.185-4.263-.343-4.537-2.174-.23-1.522 1.086-3.22 1.033-4.77-.035-1.108-.627-2.155.097-3.15.247-.334.062-.976.31-1.31.67-.925.564-1.99 1.138-2.966.415-.704 1.448-.95 2.04-1.531 1.209-1.162 1.42-2.992 2.26-4.409 1.712-2.886 5.684-6.538 8.995-7.488 3.31-.95 5.703 1.355 7.61 3.255 1.924 1.919 4.255 4.374 3.23 7.691-.379 1.224-1.103 2.438-1.977 3.45-1.783 2.059-3.646 3.88-5.941 5.412-.31.21-.547.528-.865.739z" fill="#FFCD6E"/>
        <path d="M74.323 97.042c-.927.59-1.669 1.373-2.366 2.209-.31.378-.645.809-1.05 1.073-.442.282-1.06.079-1.537.211-1.289.379-2.366 1.98-3.663 2.139-.433.052-.715-.027-1.077.281-.23.194-.592.203-.76.44-.653.942-1.933 1.012-2.94.898-1.544-.185-4.263-.343-4.537-2.174-.23-1.522 1.086-3.22 1.033-4.77-.035-1.108-.627-2.155.097-3.15.247-.334.062-.976.31-1.31.67-.925.564-1.99 1.138-2.966.415-.704 1.448-.95 2.04-1.531 1.209-1.162 1.42-2.992 2.26-4.409 1.712-2.886 5.684-6.538 8.995-7.488 3.31-.95 5.703 1.355 7.61 3.255 1.924 1.919 4.255 4.374 3.23 7.691-.379 1.224-1.103 2.438-1.977 3.45-1.783 2.059-3.646 3.88-5.941 5.412-.31.21-.547.528-.865.739z" stroke="#F16341" stroke-width="1.333" stroke-miterlimit="10"/>
        <path d="M75.973 91.085c-.626.396-.9 1.276-1.368 1.848-.212.255-.627.273-.91.449-.3.194-.44.677-.767.774-.874.255-1.766.555-2.64.66-.291.035-.883-.114-1.121.097-.15.132-.08.563-.203.73-.441.634-1.227 1.083-1.907 1.004-1.05-.124-2.798-.555-2.984-1.787-.159-1.038.018-2.147-.017-3.203-.027-.748-.018-1.663.476-2.34.168-.23.68-.194.848-.423.45-.625.424-1.382.812-2.041.283-.476.37-1.092.768-1.479.821-.783.98-1.936 1.554-2.895 1.156-1.962 3.946-4.629 6.188-5.27 2.243-.643 4.405.756 5.694 2.05 1.307 1.302 2.11 3.317 1.421 5.57-.255.827-.723 1.487-1.324 2.173-1.21 1.4-2.295 2.71-3.849 3.74-.212.14-.45.229-.67.37v-.027z" fill="#FFE7C4"/>
        <path d="M77.13 88.163c-.459.3-1.015.59-1.368 1.012-.159.185-.265.308-.468.44-.22.141-.317.388-.556.45-.644.184-1.227.66-1.88.73-.221.026-.168.466-.345.624-.114.097-.609-.193-.697-.07-.327.466-.803.598-1.306.537-.777-.097-1.996-.168-2.128-1.083-.115-.765.212-1.584.185-2.358-.017-.554-.14-1.1.221-1.593.124-.167-.08-.563.044-.73.336-.458.76-.704 1.042-1.188.203-.352.212-.845.512-1.135.6-.581.689-1.435 1.103-2.147.857-1.444 3.108-2.904 4.759-3.38 1.65-.475 2.604.599 3.557 1.55.963.958 2.437 2.05 1.934 3.713-.186.616-.848 1.038-1.29 1.54-.89 1.03-1.844 1.812-2.983 2.578-.159.106-.168.422-.327.528l-.008-.018z" fill="#fff"/>
        <path d="M77.465 62.989c-2.463-.59-2.383-.942-4.846-1.531-1.007-.238-2.163.114-2.887.836-3.743 3.73-3.62 3.845-7.362 7.567-3.743 3.722-3.735 3.731-7.469 7.462-1.615 1.61-4.564.854-5.156-1.346-.432-1.62-.361-1.637-.794-3.256-.212-.8.256-1.478.697-2.173 3.417-4.743 3.002-5.043 6.436-9.777 3.434-4.734 3.62-4.593 7.036-9.345.388-.607 1.033-.854 1.721-1.056 4.22-1.24 4.044-1.83 8.263-3.071 4.22-1.24 4.326-.88 8.546-2.112 2.33-.686 4.829 1.733 4.008 4.013-2.145 5.913-2.772 5.684-4.909 11.597-.512 1.417-1.81 2.544-3.275 2.192h-.009z" fill="#EF5023"/>
        <path d="M85.287 49.077c.83-2.28-1.307-4.567-3.637-3.88-4.22 1.24-4.326.888-8.546 2.12-4.22 1.232-4.167 1.417-8.386 2.657-.689.203-.918 1.056-1.307 1.655" stroke="#B43F25" stroke-width="1.333" stroke-miterlimit="10" stroke-linecap="round"/>
        <path d="M96.172 81.52c.592 2.455.76 2.42 1.351 4.875.239 1.003.22 2.376-.512 3.106-3.743 3.731-4.246 3.22-7.98 6.952-3.735 3.731-3.7 3.766-7.442 7.488-1.616 1.611-.724 4.506 1.483 5.095 1.624.432 1.642.352 3.266.784.803.211 1.669.237 2.375-.212 3.172-2.27 6.341-4.546 9.508-6.828 3.166-2.282 6.332-4.561 9.499-6.838.609-.387.723-1.135.926-1.821 1.245-4.206 1.113-4.25 2.349-8.457 1.236-4.206 2.065-3.968 3.31-8.174.689-2.324-1.951-4.462-4.237-3.635-5.933 2.139-5.915 2.183-11.838 4.32-1.422.511-2.42 1.893-2.058 3.354v-.01z" fill="#EF5023"/>
        <path d="M98.22 78.186c-1.465.37-2.021 1.786-1.668 3.247.591 2.455.335 2.517.927 4.972.238 1.003-.115 1.989-.848 2.719-3.743 3.73-3.398 4.065-7.133 7.796-3.734 3.731-4.22 3.247-7.954 6.979-1.615 1.61-.803 4.276 1.404 4.866 5.932-2.772 5.226-3.819 10.258-8.008 4.555-3.793 8.766-7.77 9.243-8.993.477-1.223 1.457-5.025.98-8.351-.477-3.326-2.057-6.01-5.217-5.227h.008zM81.085 60.92c-.37 1.462-2.083 2.14-3.549 1.778-2.463-.59-2.507-.422-4.97-1.012-1.006-.237-1.739.255-2.472.977-3.743 3.731-4.264 3.203-8.007 6.925-3.743 3.732-3.54 3.925-7.274 7.656-1.615 1.61-4.202.968-4.794-1.232 2.781-5.913 3.823-5.262 8.034-10.278 3.805-4.54 7.91-8.685 9.137-9.16 1.227-.475 4.97-.757 8.316-.282 3.346.475 6.365 1.478 5.58 4.629z" fill="#FCBA44"/>
        <path d="M110.085 73.866c2.286-.828 4.511 1.179 3.823 3.502-1.245 4.206-1.351 4.18-2.587 8.386-1.236 4.206-.803 4.338-2.039 8.544-.203.687-.821 1.452-1.43 1.84" stroke="#B43F25" stroke-width="1.333" stroke-miterlimit="10" stroke-linecap="round"/>
        <path d="M81.35 61.025c-.512 1.417-2.366 2.13-3.84 1.778-2.463-.59-2.499-.449-4.962-1.038-1.006-.238-2.004-.106-2.727.624-3.743 3.731-3.532 3.934-7.275 7.656-3.743 3.731-4.166 3.3-7.9 7.031-1.616 1.61-4.265 1.1-4.856-1.1-.433-1.62-.618-1.566-1.05-3.186-.212-.8.194-1.715.644-2.41M98.238 78.186c-1.421.51-2.286 1.847-1.933 3.308.591 2.455.353 2.517.953 4.963.239 1.003 0 1.813-.741 2.543-3.743 3.731-3.55 3.916-7.292 7.638-3.743 3.723-4.035 3.432-7.769 7.163-1.615 1.611-.494 4.303 1.713 4.893 1.624.431 1.51.862 3.125 1.294.803.211 1.448-.361 2.145-.801" stroke="#FFF0DF" stroke-width="1.333" stroke-miterlimit="10"/>
        <path d="M156.987 2.28c-1.58-1.576-4.811-2.685-9.481-2.14-2.887.344-6.073 1.77-9.693 2.958-2.966.976-6.347 1.671-9.605 3.238-2.904 1.39-5.87 3.07-8.863 4.945-2.772 1.734-5.668 3.546-8.404 5.694-2.587 2.032-4.697 4.382-7.16 6.802 3.337 5.684 3.169 6.538 8.952 9.74 2.684-2.657 5.367-5.648 8.007-8.024 2.851-2.561 5.906-4.673 8.616-6.873a186.185 186.185 0 0 1 8.757-6.679c3.399-2.437 6.215-4.936 8.908-6.53 5.473-3.237 9.11-4.003 9.966-3.15v.018z" fill="#fff"/>
        <path d="M103.605 23.857c-.176.167-.556.263-.733.44-2.825 2.815-5.296 5.834-7.706 8.711-2.596 3.098-4.882 6.24-6.957 9.301-2.304 3.415-4.025 6.89-5.623 10.12-1.483 3-2.631 5.834-3.452 8.553-1.015 3.335-2.269 6.327-2.207 9.046.08 3.529 1.412 6.53 3.47 8.589-1.475-1.47.476-5.606 4.254-11.554 1.943-3.063 4.159-6.776 7.187-10.595 1.977-2.49 3.999-5.271 6.364-7.99 2.146-2.455 4.794-4.664 7.213-7.242 2.269-2.411 4.352-5.14 6.833-7.603.176-.176.468-.229.635-.405-4.343-4.972-4.528-4.805-9.287-9.38l.009.009z" fill="#FFE7C4"/>
        <path d="M125.64 46.532c-.176.176-.035.08-.203.247-2.366 2.358-4.476 4.883-6.789 7.048-2.463 2.306-5.341 4.013-7.698 6.072-2.586 2.261-4.82 4.681-7.212 6.6-2.534 2.024-4.776 4.083-7.01 5.675-2.816 1.998-5.587 3.344-7.803 4.55-4.22 2.297-6.974 2.71-8.157 1.531 2.26 2.253 5.287 3.344 9.295 3.23 3.01-.088 6.418-.67 10.1-1.972 2.992-1.056 6.329-2.164 9.604-3.942 2.931-1.593 5.633-3.96 8.67-6.09 2.78-1.944 5.994-3.58 8.783-5.939a130.205 130.205 0 0 0 7.822-7.172c.177-.176.159-.765.335-.941-4.705-4.629-4.987-4.33-9.746-8.906l.009.01z" fill="#FFCD6E"/>
        <path d="M126.223 46.075c3.204 5.755 3.257 6.3 8.969 9.627 2.428-2.456 5.076-4.893 7.115-7.48 2.154-2.728 3.452-5.958 5.191-8.712 1.88-2.983 3.522-5.895 4.917-8.79 1.572-3.248 3.434-6.152 4.414-9.117 1.192-3.617 1.766-7.031 2.11-9.909.556-4.655.062-8.28-1.509-9.846.856.853-.671 4.716-3.92 10.172a124.843 124.843 0 0 1-6.038 9.196c-1.987 2.745-4.017 5.843-6.507 8.896a222.498 222.498 0 0 1-7.177 8.369c-2.383 2.64-4.882 4.919-7.548 7.594h-.017z" fill="#D5E1E6"/>
        <path d="M111.612 32.505c2.225 4.743 3.788 3.828 7.495 7.533 3.717 3.704 2.896 5.042 7.654 7.25 2.684-2.692 5.482-5.376 7.866-8.051a188.58 188.58 0 0 0 7.142-8.5c2.454-3.107 4.776-6.046 6.709-8.862 2.383-3.467 3.928-6.925 5.438-9.68 3.019-5.5 4.379-9.3 3.416-10.26-.962-.959-4.837.3-10.355 3.309-2.763 1.505-6.029 3.361-9.508 5.737-2.816 1.927-5.535 4.497-8.651 6.952-2.772 2.174-5.579 4.567-8.475 7.128-2.684 2.376-6.029 4.787-8.731 7.462v-.018z" fill="#EAF0F3"/>
        <path d="M112.159 32.145c-.176.175-.715.343-.891.519-2.499 2.49-4.988 4.892-7.266 7.339-2.436 2.613-4.352 5.526-6.497 8.034-2.366 2.772-4.705 5.315-6.656 7.867-2.993 3.907-5.386 7.558-7.23 10.709-3.496 5.948-4.865 10.348-3.205 11.994 1.324 1.32 4.308.37 8.537-1.699 2.295-1.126 4.873-2.701 7.786-4.663 2.313-1.558 4.802-3.291 7.398-5.307 2.436-1.883 5.296-3.572 7.91-5.807 2.383-2.042 4.996-4.057 7.486-6.362 2.33-2.165 4.14-5.016 6.515-7.375.176-.176.362.168.538 0-3.628-3.783-3.337-4.056-6.956-7.849-3.62-3.793-3.664-3.775-7.46-7.392l-.009-.008z" fill="#FFDA99"/>
        <path d="M134.601 55.913c-2.534 2.526-4.723 5.324-7.31 7.515-2.754 2.34-5.977 3.898-8.722 5.825-3.002 2.112-5.588 4.576-8.484 6.169-3.301 1.813-6.559 3.273-9.578 4.347-3.717 1.329-7.274 1.637-10.32 1.742-4.06.141-7.362-.757-9.649-3.027-2.286-2.27-3.734-5.588-3.593-9.635.106-3.036 1.413-6.407 2.737-10.111 1.077-3.01 2.198-6.362 4.016-9.654 1.598-2.886 3.77-5.667 5.889-8.658a120.065 120.065 0 0 1 6.4-8.263c2.207-2.579 4.458-5.262 6.992-7.788" stroke="#F9A619" stroke-width="1.333" stroke-miterlimit="10" stroke-linecap="round"/>
        <path d="M81.341 86.492c-4.422-4.409-4.52-4.312-8.933-8.712-1.863-1.857-1.254-4.849.609-6.705l-.389-.387c1.863-1.857 5.067-1.892 6.93-.036 4.423 4.409 4.308 4.515 8.731 8.923 1.863 1.857 1.827 4.831-.035 6.688l-.256-.255c-1.863 1.857-4.785 2.34-6.648.493l-.009-.01z" fill="#FFCD6E"/>
        <path d="M88.139 86.457c1.862-1.857 1.995-5.025.132-6.873-4.423-4.408-4.485-4.338-8.899-8.746-1.862-1.857-4.864-1.884-6.727-.027 1.748 2.156 3.32-.018 5.13 1.778 1.81 1.795 7.38 7.365 8.801 8.782 1.421 1.416-.503 3.379 1.563 5.086z" fill="#FCBA44"/>
        <path d="M147.03 22.316c-4.432 4.418-10.267 5.808-13.118 2.966-2.852-2.843-1.863-9.064 2.569-13.481 4.431-4.418 10.452-5.183 13.303-2.341 2.852 2.842 1.678 8.448-2.754 12.856z" fill="#253135"/>
        <path d="M147.03 22.316c-4.432 4.418-10.267 5.808-13.118 2.966-2.852-2.843-1.863-9.064 2.569-13.481 4.431-4.418 10.452-5.183 13.303-2.341 2.852 2.842 1.678 8.448-2.754 12.856z" stroke="#D5E1E6" stroke-width="1.333" stroke-miterlimit="10"/>
        <path d="M147.904 15.33c-.936.932-2.79.747-3.778-.238-.989-.986-1.192-2.843-.256-3.784.935-.942 2.577-.502 3.566.484.989.986 1.404 2.605.468 3.537z" fill="#fff"/>
        <path d="M125.234 66.666c-.477.475-1.227.458-1.836.132-1.686-.907-5.385-2.807-9.605-5.922-2.719-2.007-5.932-4.242-8.81-7.12-2.878-2.877-4.688-6.22-6.639-8.852-3.072-4.144-5.261-7.48-6.126-9.134-.318-.598-.133-1.188.344-1.654 4.228-4.215 4.052-4.382 8.272-8.597 4.219-4.215 4.475-3.96 8.695-8.175.751-.748 1.474-.52 1.934.457.874 1.83 3.081 4.532 6.232 8.492 1.819 2.288 4.176 4.822 7.089 7.726 2.913 2.904 5.473 5.509 7.839 7.374 4.061 3.203 7.107 5.042 8.978 5.949.962.466 1.51 1.927.768 2.675-4.228 4.215-4.732 3.722-8.934 7.955-4.202 4.233-3.963 4.479-8.192 8.694h-.009z" fill="#80949C"/>
        <path d="M110.121 19.465c.874 1.83 2.357 4.91 5.509 8.87 1.818 2.288 4.255 4.76 7.168 7.664 2.975 2.966 5.597 5.36 7.963 7.225 4.061 3.203 7.053 5.06 8.925 5.966" stroke="#ABBBC1" stroke-width="1.333" stroke-linecap="round" stroke-linejoin="round"/>
        <path d="M106.854 22.598c.874 1.83 2.684 4.716 5.836 8.676 1.818 2.288 3.999 4.99 6.912 7.893 2.913 2.904 5.844 5.095 8.201 6.961 4.061 3.203 6.824 5.465 8.696 6.37" stroke="#BCBFB0" stroke-width="1.333" stroke-miterlimit="10" stroke-linecap="round"/>
        <path d="M103.411 25.818c.874 1.83 3.222 4.418 6.383 8.378 1.818 2.288 3.787 5.174 6.7 8.078 2.913 2.904 5.994 4.928 8.351 6.793 4.061 3.203 7.036 4.972 8.908 5.878" stroke="#CDC2A0" stroke-width="1.333" stroke-miterlimit="10" stroke-linecap="round"/>
        <path d="M100.896 28.6c.873 1.83 2.41 4.892 5.57 8.852 1.819 2.288 3.955 5.069 6.859 7.973 2.975 2.965 5.668 5.359 8.034 7.224 4.061 3.203 7.309 4.752 9.181 5.667" stroke="#DDC68F" stroke-width="1.333" stroke-miterlimit="10" stroke-linecap="round"/>
        <path d="M97.947 31.59c.874 1.83 2.357 4.91 5.509 8.87 1.818 2.288 4.255 4.76 7.168 7.664 2.975 2.966 5.597 5.36 7.963 7.225 4.061 3.203 7.054 5.06 8.925 5.966" stroke="#EEC97F" stroke-width="1.333" stroke-miterlimit="10" stroke-linecap="round"/>
        <path d="M94.68 34.723c.875 1.83 2.455 4.901 5.606 8.86 1.819 2.289 3.991 5.052 6.904 7.956 2.913 2.904 5.756 5.262 8.122 7.127 4.061 3.204 7.124 5.096 8.995 6.002" stroke="#FFCD6E" stroke-width="1.333" stroke-miterlimit="10" stroke-linecap="round"/>
        <path d="M123.513 66.588c-1.686-.906-5.429-2.693-9.649-5.808-2.719-2.006-5.456-4.699-8.334-7.568-2.878-2.868-5.8-5.253-7.75-7.893-3.073-4.145-4.644-7.928-5.51-9.583" stroke="#F9A619" stroke-width="1.333" stroke-miterlimit="10" stroke-linecap="round"/>
        <path d="M146.924 22.21c-4.432 4.417-10.329 6.089-13.189 3.238-2.86-2.851-1.519-9.064 2.913-13.481" stroke="#80949C" stroke-width="1.333" stroke-linecap="round" stroke-linejoin="round"/>
        <path d="M47.23 92.502c-2.031 3.3-1.554 7.462 1.315 10.322 1.377 1.373 2.692 2.499 4.476 2.746-.45 2.129.264 4.4 1.924 6.054 2.613 2.605 7.027 2.631 9.64.026 0 0-.388.212-.38.203 3.258 2.842 8.687 2.578 11.795-.519 3.24-3.23 3.169-8.756-.07-11.986-1.263-1.258-2.702-2.032-4.344-2.305.141-2.754-.927-5.58-3.028-7.682-2.384-2.376-5.783-3.256-8.872-2.763-.265-1.347-.927-2.543-1.978-3.59-2.79-2.781-7.336-2.781-10.125 0-2.605 2.595-2.614 6.696-.362 9.494h.008zM77.192 125.07c2.913-.168 5.244-2.807 5.076-5.711-.168-2.904-2.754-4.77-5.667-4.603-2.914.168-5.5 2.324-5.332 5.236.167 2.913 3.01 5.254 5.923 5.086v-.008zM46.285 75.088c.044 1.285.892 2.482 2.18 2.429 1.29-.053 2.128-1.302 2.075-2.587-.053-1.285-.97-2.56-2.26-2.517-1.289.044-2.04 1.382-1.995 2.666v.01zM30.836 82.19c0 3.07 2.693 5.552 5.765 5.552 3.072 0 5.279-2.482 5.279-5.553 0-3.07-2.198-5.535-5.28-5.535-3.08 0-5.764 2.473-5.764 5.535z" fill="#fff"/>
        <path d="M75.877 111.211c3.24-3.23 3.142-8.483-.097-11.712-1.263-1.259-2.42-2.244-4.061-2.526.141-2.754-1.5-5.069-3.602-7.172-2.384-2.376-5.28-3.933-8.369-3.44-.265-1.347-1.271-2.024-2.322-3.072-2.79-2.78-7.08-3.088-9.87-.299M81.994 119.367c-.168-2.904-2.507-5.35-5.429-5.183-2.913.167-5.111 2.869-4.944 5.772M48.466 77.49c1.288-.045 2.145-1.268 2.092-2.561-.053-1.294-.98-2.43-2.278-2.376M36.6 87.777c3.081 0 5.668-2.517 5.668-5.588 0-3.07-2.587-5.43-5.667-5.43" stroke="#FCBA44" stroke-width="1.333" stroke-miterlimit="10" stroke-linecap="round"/>
        <path d="M66.475 98.671c.15 1.074 1.448 1.214 1.907.22 1.068-2.27.997-4.901-.663-7.013-1.703-2.174-4.466-3.37-7-2.78-1.05.237-1.095 1.847-.097 2.27 1.35.563 3.134 1.398 4.29 2.736 1.157 1.338 1.35 3.15 1.554 4.567h.009zM74.182 107.427c.114.836 1.27 1.03 1.624.273.82-1.76.6-3.898-.68-5.526-1.28-1.628-3.363-2.103-5.323-1.654-.812.185-.953.95-.185 1.267 1.041.44 2.03 1.417 2.922 2.455.891 1.038 1.474 2.094 1.633 3.194l.009-.009zM79.02 117.845c.573.114 1.138-.493.723-.906-.97-.942-2.728-1.224-4.096-.757-1.368.466-2.684 1.839-2.834 3.22-.062.572.954.863 1.342.432.53-.581 1.245-1.47 2.128-1.813.882-.343 1.986-.326 2.736-.176z" fill="#FFDA99"/>
        <path d="M88.297 101.478c2.234-1.866 2.578-5.729.707-7.955-1.872-2.226-5.236-1.962-7.478-.097-2.242 1.866-2.728 4.822-.856 7.057 1.871 2.236 5.385 2.869 7.627.995z" fill="#fff"/>
        <path d="M88.792 93.699c-1.871-2.226-5.014-2.138-7.257-.273-2.233 1.866-2.966 5.007-1.085 7.242" stroke="#FCBA44" stroke-width="1.333" stroke-miterlimit="10" stroke-linecap="round"/>
        <path d="M85.454 94.763c.53-.255.398-.985-.185-1.065-1.342-.175-2.772.282-3.584 1.461-.812 1.18-1.06 2.957-.353 4.154.291.492 1.439.193 1.492-.379.07-.783.15-1.768.653-2.57.503-.8 1.28-1.266 1.977-1.6zM37.121 84.687c-.353.467-.114.722.442.52 1.271-.458 2.78-1.241 2.957-2.667.177-1.47-.803-3.141-1.986-3.88-.486-.308-1.492.536-1.28 1.064.3.722.53 1.558.459 2.508-.07.95-.124 1.84-.583 2.455h-.009z" fill="#FFDA99"/>
        <path d="M41.615 94.14c1.086 1.707 3.302 2.64 5.023 1.566 1.721-1.074 2.137-3.678 1.05-5.386-1.085-1.707-3.557-2.349-5.27-1.267-1.712 1.083-1.88 3.388-.794 5.095l-.009-.008z" fill="#fff"/>
        <path d="M46.294 95.15c1.713-1.082 2.507-3.15 1.421-4.857-1.086-1.707-3.478-2.164-5.19-1.09" stroke="#FCBA44" stroke-width="1.333" stroke-miterlimit="10" stroke-linecap="round"/>
        <path d="M46.012 93.557c-.036.388.159.643.388.344.547-.704.274-1.646-.132-2.5-.406-.853-1.024-1.698-1.942-1.698-.38 0-.645.792-.336 1.012.424.3.768.73 1.06 1.276.29.546.988 1.056.953 1.558l.009.008zM56.084 88.543c.494.678 2.136.088 2.092-.748-.106-1.936-1.607-3.572-3.513-4.408-1.96-.863-4.229-.784-5.738.537-.627.545-.08 1.522.75 1.451 1.13-.105 2.445.493 3.725.995 1.28.501 2.03 1.293 2.693 2.182l-.009-.009zM63.155 107.17c.203.564 1.475.476 1.616-.096.318-1.338-.503-2.614-1.624-3.564-1.122-.951-2.667-1.646-3.956-1.056-.538.246-.388 1.637.195 1.751.785.15 1.553.484 2.313 1.073.759.59 1.191 1.162 1.456 1.892zM53.754 98.733c-.01.598 1.2.941 1.536.457.768-1.135.688-2.692-.018-3.977-.706-1.285-2.057-1.945-3.47-1.848-.582.035-.661.457-.167.774.68.422 1.324 1.276 1.827 2.103.503.828.31 1.725.292 2.508v-.017z" fill="#FFDA99"/>
        <path d="M7.53 112.688c-2.013 3.273-2.498 7.048-2.066 10.744.433 3.696 1.801 7.075 4.59 9.865 2.711 2.701 5.915 4.426 9.438 4.91-.874 4.18.636 8.412 3.893 11.659 2.569 2.561 5.668 4.497 9.04 4.497 3.372 0 7.018-1.39 9.587-3.951.009-.009-.486-.07-.468-.079 3.214 2.807 7.486 4.021 11.503 3.889 3.99-.132 7.883-1.883 10.93-4.919 3.186-3.176 5.031-7.286 5.031-11.448 0-4.162-1.766-8.351-4.953-11.528-2.489-2.481-5.596-3.959-8.819-4.505.142-2.754-.326-5.509-1.324-8.113-.997-2.605-2.613-4.699-4.652-6.732-2.304-2.297-4.838-4.092-7.733-5.025-2.896-.932-6.392-.844-9.482-.352-.512-2.648-1.871-5.244-3.928-7.295-2.746-2.736-6.056-4.637-9.658-4.637-3.602 0-7.336 1.47-10.082 4.206-2.55 2.543-3.963 5.949-4.14 9.275-.176 3.326 1.077 6.776 3.31 9.539H7.53z" fill="#fff"/>
        <path d="M64.205 149.541c3.187-3.177 4.935-7.515 4.935-11.678 0-4.162-1.668-8.579-4.855-11.756-2.49-2.482-5.836-3.722-9.058-4.268.141-2.754-.106-5.596-1.103-8.201-.998-2.605-2.393-5.06-4.423-7.093-2.304-2.296-5.297-3.599-8.193-4.531-2.895-.933-6.064-1.417-9.154-.924-.512-2.65-1.642-5.272-3.699-7.322-2.745-2.737-6.603-3.784-10.205-3.784-3.602 0-7.363 1.144-10.108 3.881" stroke="#FCBA44" stroke-width="1.333" stroke-miterlimit="10" stroke-linecap="round"/>
        <path d="M45.27 124.859c.3 2.12 3.742 2.569 4.652.633 2.092-4.47 1.289-9.767-1.978-13.921-3.354-4.277-8.528-6.274-13.507-5.13-2.065.475-2.357 3.432-.406 4.25 2.658 1.118 6.1 2.649 8.378 5.289 2.278 2.64 2.463 6.098 2.86 8.887v-.008zM61.028 142.009c.23 1.636 2.286 2.068 2.992.563 1.616-3.458 1.13-7.638-1.385-10.85-2.596-3.3-6.692-4.62-10.532-3.731-1.598.369-1.828 2.464-.318 3.097 2.048.863 4.661 2.121 6.418 4.163 1.686 1.953 2.525 4.602 2.834 6.758h-.01zM25.442 104.706c.98 1.338 3.682.37 3.585-1.284-.204-3.81-2.808-7.216-6.55-8.862-3.85-1.698-8.396-1.364-11.371 1.224-1.236 1.073-.124 3.29 1.51 3.141 2.215-.202 5.137-.202 7.644.774 2.41.933 3.893 3.256 5.182 5.016v-.009zM39.532 141.374c.397 1.1 2.057.994 2.33-.15.627-2.622-.423-5.2-2.63-7.066-2.207-1.865-5.032-2.332-7.575-1.17-1.05.484-.909 1.505.221 1.725 1.545.299 3.496 1.091 5.005 2.252 1.51 1.162 2.128 2.957 2.649 4.4v.009zM20.966 124.945c-.017 1.171 1.828 1.716 2.48.748 1.52-2.226 1.872-5.341.478-7.866-1.395-2.526-4.379-3.811-7.16-3.626-1.156.079-1.483 1.364-.503 1.971 1.333.827 2.948 2.112 3.946 3.731.953 1.558.786 3.494.76 5.034v.008z" fill="#FFDA99"/>
        <path d="M.23 108.218c.75 2.367 3.178 3.775 5.552 3.018 2.375-.748 3.275-3.212 2.516-5.579-.759-2.367-2.904-3.837-5.279-3.08-2.375.748-3.549 3.273-2.79 5.641zM26.643 79.259c-.195-1.444-1.272-2.587-2.72-2.394-1.447.194-2.604 1.628-2.41 3.071.195 1.443 1.695 2.675 3.143 2.482 1.448-.194 2.172-1.716 1.978-3.16h.009zM73.696 130.676c-1.35 1.196-1.58 3.678-.38 5.024 1.201 1.347 3.285.951 4.635-.246 1.351-1.197 2.022-3.247.821-4.594-1.2-1.346-3.734-1.381-5.076-.184z" fill="#fff"/>
        <path d="M5.826 111.369c2.375-.748 3.664-3.485 2.914-5.852-.75-2.367-3.258-3.432-5.633-2.675M24.621 82.057c1.448-.194 2.454-1.39 2.26-2.834-.194-1.443-1.5-2.525-2.948-2.331M79.01 133.095c-.124-1.795-1.395-3.132-3.196-3.009-1.8.123-3.53 1.654-3.416 3.449" stroke="#FCBA44" stroke-width="1.333" stroke-miterlimit="10" stroke-linecap="round"/>
        <path d="M77.457 132.875c.327.158.697-.247.512-.555-.424-.712-1.218-.721-2.101-.66-.883.062-1.554.273-1.863 1.065-.132.335.08.555.38.361.406-.264.98-.387 1.562-.458.583-.07 1.077.027 1.501.238l.009.009z" fill="#FFDA99"/>
        <path d="M63.287 112.178c-2.048.414-3.734 2.587-3.328 4.637.415 2.042 2.746 3.054 4.794 2.649 2.048-.405 3.478-2.182 3.063-4.224-.415-2.041-2.49-3.467-4.537-3.053l.008-.009z" fill="#fff"/>
        <path d="M67.436 117.67c.927-1.866.221-4.206-1.65-5.139-1.872-.924-3.84.088-4.767 1.953" stroke="#FCBA44" stroke-width="1.333" stroke-miterlimit="10" stroke-linecap="round"/>
        <path d="M65.442 116.595c.23.344.988-.026.988-.448-.009-.96-.38-1.989-1.297-2.447-.918-.457-2.12-.229-2.896.387-.318.256-.115.713.291.696.557-.027 1.386-.159 2.004.114.618.273.6 1.241.9 1.69l.01.008z" fill="#FFDA99"/>
        <path d="M60.233 72.395c1.218-1.329 1.263-3.37-.07-4.585-1.333-1.214-3.16-.792-4.38.537-1.217 1.329-1.297 2.992.036 4.206 1.333 1.215 3.196 1.18 4.414-.15v-.008z" fill="#fff"/>
        <path d="M55.404 73.002c1.333 1.214 3.92 1.003 5.138-.326 1.218-1.328.662-3.335-.67-4.549" stroke="#FCBA44" stroke-width="1.333" stroke-miterlimit="10" stroke-linecap="round"/>
        <path d="M57.056 71.225c-.345.105-.23.994.114 1.09.804.22 1.88.133 2.481-.518.6-.651.865-1.91.538-2.693-.132-.326-1.165-.229-1.253.115-.115.466-.035 1.126-.406 1.575-.371.448-1.024.29-1.474.43zM24.463 80.658c-.106.255.45.8.68.642.529-.36.29-1.223.202-1.9-.088-.678-.203-1.373-.838-1.575-.265-.08-.689.43-.53.65.22.3.389.617.468 1.066.08.448.15.783 0 1.117h.018z" fill="#FFDA99"/>
        <path d="M43.486 95.951c-.194-1.443-1.474-2.402-2.922-2.217-1.448.193-2.11 1.408-1.916 2.85.195 1.444 1.14 2.394 2.587 2.21 1.448-.185 2.445-1.4 2.251-2.843z" fill="#fff"/>
        <path d="M41.297 99.26c1.448-.194 2.825-1.927 2.63-3.37-.193-1.443-1.906-2.27-3.354-2.077" stroke="#FCBA44" stroke-width="1.333" stroke-miterlimit="10" stroke-linecap="round"/>
        <path d="M41.077 97.387c-.106.255.512.889.741.73.53-.36.415-1.337.327-2.024-.088-.686-.388-1.328-1.024-1.53-.265-.08-.177.034-.018.254.221.3.256.924.336 1.373.08.449-.23.854-.371 1.188l.009.009zM5.403 108.773c-.115.511.574.704.953.335.865-.854 1.792-2.033 1.395-3.274s-1.871-1.857-3.116-2.015c-.512-.07-1.086.695-.706 1.056.52.484 1.536.81 1.836 1.61.3.801-.212 1.611-.362 2.288z" fill="#FFDA99"/>
        <path d="M28.664 124.26c1.74 2.534 5.156 3.045 7.698 1.311 2.543-1.733 3.187-5.007 1.448-7.541-1.739-2.534-5.217-3.388-7.75-1.655-2.534 1.734-3.135 5.351-1.396 7.885z" fill="#fff"/>
        <path d="M36.671 126.021c2.543-1.734 2.993-5.544 1.263-8.078s-5.43-3.441-7.972-1.716" stroke="#FCBA44" stroke-width="1.333" stroke-miterlimit="10" stroke-linecap="round"/>
        <path d="M34.614 122.853c-.026.581 1.219.95 1.563.475.785-1.091.997-2.736.335-4.012-.68-1.311-2.215-2.024-3.61-1.971-.574.026-.848.906-.362 1.223.653.431 1.827.792 2.304 1.61.477.818-.194 1.91-.23 2.675z" fill="#FFDA99"/>
        <path d="M47.6 158.402c2.358 1.716 5.765 1.223 7.487-1.126 1.721-2.35.936-5.412-1.422-7.137-2.357-1.724-5.129-1.258-6.85 1.092-1.721 2.349-1.571 5.447.786 7.162v.009z" fill="#fff"/>
        <path d="M55.308 157.444c1.721-2.349.918-5.843-1.44-7.567-2.356-1.725-5.905-1.408-7.636.941" stroke="#FCBA44" stroke-width="1.333" stroke-miterlimit="10" stroke-linecap="round"/>
        <path d="M53.515 154.108c.37.449.689.37.627-.211-.15-1.337-.91-2.358-2.26-2.86-1.35-.501-2.507-.052-3.505.916-.415.404-.353.985.212.906.777-.115 1.669-.132 2.578.167.909.299 1.871.502 2.357 1.1l-.009-.018z" fill="#FFDA99"/>
        <path d="M88.28 86.29a4.732 4.732 0 0 0 0-6.714l-8.837-8.808a4.769 4.769 0 0 0-6.736 0" stroke="#F9A619" stroke-width="1.333" stroke-miterlimit="10" stroke-linecap="round"/>
    </g>
    <defs>
        <clipPath id="bbb8sz2h1a">
            <path fill="#fff" d="M0 0h181v178H0z"/>
        </clipPath>
    </defs>
</svg>
