<svg width="24" height="24" viewBox="0 0 24 24" fill="none" xmlns="http://www.w3.org/2000/svg">
<g clip-path="url(#clip0)">
<path d="M11.925 0.0653076L12.5655 1.26831C12.7095 1.49031 12.8655 1.68681 13.0492 1.86981C13.5855 2.40606 14.0947 2.96781 14.5522 3.56931C15.6375 4.99431 16.3695 6.57681 16.8922 8.28831C17.2057 9.33381 17.376 10.4063 17.3887 11.4908C17.4412 14.7331 16.3297 17.5171 14.0887 19.8308C13.7227 20.1968 13.3312 20.5358 12.9112 20.8373C12.6892 20.8373 12.5842 20.6671 12.4927 20.5103C12.3225 20.2231 12.2182 19.8953 12.1657 19.5691C12.087 19.1768 12.0352 18.7846 12.0607 18.3796V18.1966C12.0427 18.1576 11.847 0.157558 11.925 0.0653076Z" fill="#599636"/>
<path d="M11.925 0.0255581C11.8987 -0.0269419 11.8725 0.0128081 11.8462 0.0383081C11.859 0.300808 11.7675 0.534808 11.6242 0.758308C11.4667 0.980308 11.2582 1.15056 11.049 1.33356C9.88649 2.34006 8.97149 3.55581 8.23874 4.91556C7.26374 6.74556 6.76124 8.70681 6.61874 10.7716C6.55349 11.5163 6.85424 14.1443 7.08899 14.9026C7.72949 16.9156 8.87999 18.6023 10.3702 20.0663C10.7362 20.4188 11.1277 20.7458 11.5327 21.0601C11.6505 21.0601 11.6632 20.9551 11.6902 20.8771C11.7419 20.7102 11.7812 20.5397 11.808 20.3671L12.0705 18.4066L11.925 0.0255581Z" fill="#6CAC48"/>
<path d="M12.5655 21.6338C12.5917 21.3338 12.7357 21.0848 12.8925 20.8365C12.735 20.7713 12.618 20.6415 12.5265 20.4968C12.4477 20.3663 12.3825 20.2095 12.3315 20.0655C12.1485 19.5165 12.1095 18.9405 12.057 18.3795V18.0398C11.9917 18.0923 11.9782 18.5363 11.9782 18.6023C11.9401 19.1952 11.8614 19.7849 11.7427 20.367C11.7037 20.6025 11.6775 20.8373 11.5327 21.0465C11.5327 21.0728 11.5327 21.099 11.5455 21.138C11.781 21.831 11.8455 22.5368 11.8852 23.256V23.5185C11.8852 23.832 11.8725 23.766 12.1327 23.871C12.2377 23.91 12.3547 23.9235 12.4597 24.0015C12.5385 24.0015 12.5512 23.9363 12.5512 23.8838L12.5122 23.4525V22.2495C12.4995 22.0395 12.5385 21.831 12.5647 21.6345L12.5655 21.6338Z" fill="#C2BFBF"/>
</g>
<defs>
<clipPath id="clip0">
<rect width="24" height="24" fill="white"/>
</clipPath>
</defs>
</svg>
