<svg width="25" height="27" viewBox="0 0 25 27" fill="none" xmlns="http://www.w3.org/2000/svg">
<path d="M15.7897 12.561L10.5291 14.2788L5.95242 16.2987L4.67203 16.6367C4.34594 16.9469 4.00403 17.2611 3.63423 17.5792C3.22865 17.929 2.85091 18.2472 2.56059 18.4778C2.23854 18.7323 1.76138 19.2094 1.51885 19.5116C1.15698 19.9648 0.870704 20.446 0.74743 20.8158C0.528718 21.4838 0.63613 22.1598 1.0576 22.7841C1.59837 23.5793 2.67596 24.3904 3.93243 24.9431C4.57265 25.2255 5.6502 25.5873 6.46134 25.7901C7.80926 26.1321 10.4177 26.5019 11.8531 26.5576C12.1434 26.5695 12.5331 26.5695 12.5489 26.5576C12.5808 26.5376 12.8035 26.1122 13.062 25.5834C13.9447 23.7821 14.5809 22.0922 14.9268 20.6488C15.1336 19.7741 15.2966 18.609 15.4039 17.2293C15.4318 16.8436 15.4437 15.5513 15.4198 15.1139C15.384 14.3982 15.3204 13.8177 15.221 13.2491C15.2051 13.1655 15.2011 13.09 15.2091 13.086C15.2249 13.0741 15.2726 13.0582 15.9208 12.8713L15.7896 12.5612V12.5611H15.7897V12.561ZM14.5889 13.2649C14.6366 13.2649 14.7638 14.4856 14.7956 15.257C14.8036 15.42 14.7995 15.5274 14.7916 15.5274C14.7598 15.5274 14.1196 15.1497 13.6624 14.8634C13.2648 14.6129 12.5093 14.1118 12.39 14.0164C12.3502 13.9886 12.3541 13.9846 12.6803 13.8733C13.2329 13.6864 14.5451 13.2649 14.5889 13.2649ZM11.9089 14.1476C11.9447 14.1476 12.0361 14.1993 12.2548 14.3345C13.0739 14.8474 14.1873 15.4677 14.6644 15.6745C14.8115 15.7381 14.8274 15.7143 14.4894 15.9449C13.7658 16.438 12.8631 16.923 11.7577 17.4121C11.5629 17.4996 11.3999 17.5672 11.3959 17.5672C11.388 17.5672 11.4118 17.4678 11.4435 17.3485C11.71 16.3584 11.8611 15.3564 11.8691 14.5532C11.873 14.1555 11.873 14.1555 11.9089 14.1437C11.9009 14.1476 11.9048 14.1476 11.9089 14.1476ZM11.3562 14.3583C11.38 14.3822 11.3641 15.2729 11.3323 15.5154C11.2607 16.096 11.1494 16.6367 10.9665 17.2451C10.9228 17.3922 10.8829 17.5155 10.8751 17.5234C10.8591 17.5433 10.3143 17.0105 10.1354 16.8037C9.82524 16.4458 9.58274 16.088 9.4038 15.7381C9.31234 15.5592 9.16923 15.2093 9.18113 15.1973C9.24474 15.1536 11.3403 14.3425 11.3562 14.3583ZM8.75564 15.3802C8.7596 15.3802 8.76356 15.3802 8.76759 15.3842C8.77552 15.3922 8.80341 15.4558 8.82726 15.5273C8.95446 15.8733 9.2407 16.3822 9.4873 16.7083C9.75769 17.0662 10.1116 17.4479 10.4058 17.6984C10.5013 17.7779 10.5887 17.8534 10.6006 17.8654C10.6245 17.8893 10.6324 17.8852 9.98427 18.1318C9.23284 18.4181 8.41367 18.7044 7.47525 19.0065C7.25108 19.0788 7.02712 19.1517 6.80336 19.2253C6.76751 19.2372 6.77947 19.2173 6.88285 19.0543C7.34805 18.3266 8.05581 16.8992 8.45346 15.8892C8.52107 15.7142 8.58865 15.5393 8.60061 15.4995C8.61652 15.4438 8.63636 15.424 8.68803 15.3961C8.71587 15.3882 8.74374 15.3802 8.75564 15.3802ZM7.96046 15.7103C7.97236 15.7183 7.76956 16.1437 7.57074 16.5333C7.18503 17.2848 6.76355 18.0245 6.19893 18.9231C6.10351 19.0781 6.01208 19.2213 6.00013 19.2372C5.98027 19.2651 5.97228 19.2571 5.90867 19.1338C5.77348 18.8674 5.6621 18.5254 5.60248 18.2113C5.54281 17.9011 5.55477 17.3604 5.62239 17.0264C5.67402 16.7799 5.6701 16.7839 5.78938 16.7242C6.29833 16.4658 7.94454 15.6944 7.96046 15.7103ZM14.8195 15.9886V16.1556C14.8195 17.0423 14.7241 18.2591 14.5848 19.1458C14.561 19.3009 14.541 19.4281 14.5371 19.4321C14.5371 19.4321 14.4218 19.4003 14.2866 19.3605C13.6902 19.1736 13.0421 18.8992 12.4575 18.5772C12.0718 18.3665 11.5112 18.0205 11.5271 18.0046C11.531 18.0006 11.6981 17.9131 11.8929 17.8097C12.6723 17.4042 13.4198 16.9668 14.0679 16.5334C14.3105 16.3703 14.6762 16.108 14.7559 16.0363L14.8195 15.9886ZM4.95831 17.1655C4.97421 17.1655 4.97023 17.1973 4.94637 17.3405C4.93046 17.4439 4.9106 17.6348 4.9027 17.7659C4.87081 18.3465 4.9663 18.7759 5.25259 19.3644C5.33211 19.5274 5.39577 19.6626 5.39174 19.6666C5.36389 19.6905 2.73165 20.4619 1.90453 20.6885C1.65802 20.7561 1.44334 20.8158 1.42735 20.8197C1.39957 20.8277 1.39557 20.8237 1.40749 20.7561C1.49893 20.1716 1.9443 19.4081 2.56457 18.764C2.97812 18.3345 3.30817 18.0841 3.8728 17.7619C4.27837 17.5314 4.90264 17.1855 4.95035 17.1695C4.95039 17.1655 4.95435 17.1655 4.95831 17.1655ZM11.1613 18.2749C11.1653 18.271 11.2607 18.3227 11.376 18.3902C12.2269 18.8833 13.4118 19.3406 14.4218 19.5752L14.5133 19.5951L14.386 19.6666C13.8572 19.9609 12.1196 20.6845 10.3422 21.3486C10.0837 21.444 9.82925 21.5394 9.78147 21.5593C9.73376 21.5792 9.69001 21.5911 9.69001 21.5872C9.69001 21.5831 9.76163 21.444 9.85302 21.273C10.3501 20.3426 10.8511 19.2094 11.1056 18.422C11.1375 18.3465 11.1573 18.2789 11.1613 18.2749ZM10.5291 18.4817C10.5331 18.4858 10.5013 18.5692 10.4615 18.6646C10.1156 19.5036 9.66221 20.4182 9.08171 21.444C8.93462 21.7065 8.81132 21.9173 8.80729 21.9173C8.80338 21.9173 8.68405 21.8456 8.54092 21.7582C7.6979 21.2412 6.9504 20.6051 6.46136 19.9887L6.38975 19.9012L6.75156 19.8018C8.04785 19.448 9.14922 19.0663 10.2427 18.5971C10.3979 18.5334 10.5251 18.4817 10.5291 18.4817ZM14.4576 19.8535C14.4576 19.8535 14.4616 19.8575 14.4576 19.8535C14.4616 19.945 14.2588 20.7641 14.0918 21.3565C13.9526 21.8535 13.8333 22.2432 13.6146 22.9311C13.5192 23.2334 13.4358 23.4838 13.4317 23.4838C13.4278 23.4838 13.4039 23.4798 13.3801 23.4719C12.1991 23.2571 11.1414 22.9589 10.1474 22.5613C9.86899 22.45 9.47139 22.271 9.44753 22.2512C9.43961 22.2431 9.6782 22.1319 9.98038 22.0006C11.7896 21.2094 13.6664 20.3107 14.3105 19.9251C14.386 19.8774 14.4457 19.8535 14.4576 19.8535ZM5.38778 20.1637C5.39574 20.1716 4.89074 20.8993 4.18293 21.8894C3.93642 22.2353 3.65014 22.6409 3.5428 22.792C3.43543 22.9431 3.27242 23.1816 3.18096 23.3248L3.01388 23.5833L2.83494 23.4322C2.62418 23.2572 2.25841 22.8834 2.09539 22.6767C1.7534 22.2512 1.52283 21.8019 1.43137 21.3924C1.38762 21.2015 1.38762 21.106 1.42733 21.0942C1.48696 21.0783 2.54864 20.8277 3.54276 20.5971C4.09547 20.4699 4.7356 20.3188 4.96623 20.2631C5.19688 20.2074 5.38382 20.1637 5.38778 20.1637ZM5.89671 20.3585L6.02391 20.5017C6.59657 21.1418 7.18106 21.6151 7.88884 22.0285C8.01611 22.1002 8.11151 22.1637 8.10352 22.1678C8.07576 22.1876 5.64619 23.0504 4.52092 23.4401C3.88873 23.6627 3.3678 23.8417 3.36388 23.8417C3.35992 23.8417 3.32411 23.8179 3.28428 23.79L3.21275 23.7383L3.32805 23.5713C3.70179 23.0305 4.17107 22.4381 5.19296 21.2055L5.89671 20.3585ZM9.06983 22.6289C9.07373 22.625 9.2487 22.6886 9.46339 22.7682C9.98038 22.963 10.3899 23.0862 10.9386 23.2254C11.6146 23.3964 12.5928 23.5634 13.1694 23.6111C13.2568 23.619 13.3045 23.627 13.2886 23.6389C13.2607 23.6549 12.6763 23.8497 12.2468 23.9849C11.5629 24.1996 9.47537 24.8159 7.77354 25.305C7.45941 25.3964 7.189 25.472 7.17311 25.4759C7.13339 25.4839 7.00212 25.4481 7.00212 25.4322C7.00212 25.4243 7.09754 25.301 7.21288 25.1658C7.78542 24.4819 8.35408 23.7185 8.82726 22.9948C8.95844 22.7959 9.06983 22.6329 9.06983 22.6289ZM8.36994 22.6489C8.3739 22.6528 8.09162 23.1061 7.59861 23.8854C7.38782 24.2154 7.15321 24.5892 7.06969 24.7204C6.99017 24.8477 6.87089 25.0465 6.80332 25.1578L6.68799 25.3606L6.62836 25.3447C6.48517 25.305 5.4792 24.951 5.21278 24.8437C4.88273 24.7125 4.54078 24.5535 4.28627 24.4183C3.96822 24.2473 3.57062 23.9928 3.60239 23.9849C3.61033 23.9809 4.1551 23.8337 4.81114 23.6548C6.55278 23.1816 7.51898 22.9073 8.15126 22.7085C8.2666 22.6727 8.36598 22.6448 8.36994 22.6489ZM13.3204 23.8099H13.3244C13.3403 23.8497 12.6962 25.639 12.4615 26.2036C12.4099 26.3308 12.39 26.3627 12.3621 26.3586C12.2945 26.3547 11.3602 26.2235 10.7915 26.14C9.80144 25.9889 8.13933 25.6986 7.72185 25.6032L7.62643 25.5833L8.21881 25.448C9.49126 25.1618 10.1036 25.0067 10.7239 24.8158C11.5072 24.5773 12.2826 24.279 13.0659 23.9133C13.1892 23.8576 13.2926 23.8138 13.3204 23.8099Z" fill="url(#paint0_linear)"/>
<path d="M10.366 0.298177C10.2785 0.286314 8.86691 0.795265 7.95637 1.16501C6.72767 1.66608 5.77343 2.14325 5.18491 2.55669C4.96625 2.71183 4.69184 2.98616 4.64816 3.0935C4.63226 3.13327 4.62427 3.18098 4.62427 3.22869L5.15711 3.73368L6.42551 4.13925L9.44352 4.68003L12.8949 5.2725L12.9307 4.97429C12.9188 4.97429 12.9108 4.97033 12.899 4.97033L12.4456 4.89873L12.3542 4.73572C11.885 3.90864 11.368 2.88276 11.0659 2.19089C10.8313 1.65409 10.6086 1.03385 10.4853 0.588491C10.4177 0.318108 10.4098 0.302211 10.3661 0.298251V0.298159H10.366V0.298177ZM10.3023 0.501028H10.3064C10.3103 0.504952 10.3262 0.616361 10.3422 0.7475C10.4097 1.30425 10.5331 1.84097 10.7279 2.42152C10.8749 2.85892 10.8749 2.83509 10.704 2.78336C10.2984 2.67206 8.48128 2.35793 7.16514 2.17503C6.95438 2.14718 6.77544 2.11936 6.77544 2.1154C6.75954 2.0995 7.72574 1.59448 8.15121 1.39571C8.69596 1.14515 10.191 0.520886 10.3023 0.501028ZM6.46921 2.28237L6.62435 2.334C7.46726 2.62034 9.58656 3.02593 10.7557 3.12135C10.8868 3.13328 10.9982 3.14524 11.0021 3.14524C11.0061 3.1492 10.8948 3.20885 10.7516 3.27641C10.1871 3.55873 9.56674 3.90468 9.13729 4.1711C9.01009 4.25059 8.89472 4.31425 8.87886 4.31425C8.86295 4.31425 8.77948 4.29833 8.692 4.2864L8.53295 4.2625L8.13537 3.87281C7.43554 3.19291 6.88679 2.66806 6.67604 2.46921L6.46921 2.28237ZM6.31022 2.4056L6.87086 3.10545C7.177 3.49115 7.48715 3.86887 7.55481 3.95233C7.62235 4.03589 7.67805 4.10351 7.67409 4.10747C7.65817 4.11939 6.86298 3.96429 6.44143 3.86891C6.00802 3.76947 5.8291 3.72176 5.56269 3.63829L5.34398 3.56669V3.51099C5.34794 3.24457 5.68596 2.84697 6.25853 2.44143L6.31022 2.4056ZM11.0738 3.35992C11.0897 3.35992 11.1095 3.39569 11.1572 3.50305C11.2924 3.80125 11.714 4.60449 11.8173 4.75954C11.8492 4.81128 11.9048 4.81524 11.3442 4.72378C9.99624 4.50503 9.56278 4.43354 9.56278 4.42558C9.56278 4.42162 9.60255 4.39377 9.65424 4.36592C10.0718 4.13534 10.4932 3.84107 10.867 3.52694C10.9585 3.45138 11.042 3.37981 11.0578 3.36786C11.0618 3.35992 11.0698 3.35596 11.0738 3.35992Z" fill="url(#paint1_linear)"/>
<path d="M4.67607 3.03772C4.67607 3.03772 4.58864 3.17695 4.67213 3.38372C4.72387 3.51092 4.87494 3.66597 5.04589 3.82505C5.04589 3.82505 6.81532 5.55073 7.03005 5.7973C8.00817 6.92653 8.43366 8.03989 8.47343 9.57475C8.49729 10.5609 8.31035 11.4277 7.84517 12.4337C7.0181 14.2389 5.27249 16.2311 2.58057 18.4419L2.97428 18.3106C3.22875 18.1197 3.57469 17.917 4.38583 17.4717C6.25862 16.4457 8.36606 15.5034 10.9507 14.5332C14.6723 13.1335 20.7919 11.4952 24.275 10.9625L24.6369 10.9068L24.5812 10.8193C24.2632 10.3262 24.0444 10.0201 23.782 9.69401C23.0186 8.74765 22.0922 7.98026 20.9589 7.34404C19.4002 6.47328 17.3841 5.79334 14.8314 5.28835C14.3503 5.19287 13.2926 5.00999 12.4338 4.87877C10.6126 4.59652 9.43564 4.40165 8.1394 4.17898C7.67422 4.09942 6.97831 3.98016 6.51706 3.88078C6.27849 3.82903 5.82127 3.72169 5.4634 3.59844C5.17712 3.48705 4.76355 3.37571 4.67607 3.03772ZM5.70201 4.03183C5.70593 4.0279 5.76954 4.05169 5.8531 4.07954C6.00419 4.13117 6.19901 4.19084 6.42969 4.2545C6.60421 4.3025 6.77917 4.34889 6.95455 4.39365C7.19312 4.45327 7.3919 4.50895 7.39586 4.50895C7.42375 4.5368 7.82536 5.82104 7.96055 6.31412C8.01217 6.50106 8.05201 6.66007 8.04804 6.66007C8.04395 6.6641 8.00027 6.59646 7.9486 6.50502C7.48336 5.68589 6.74775 4.85486 5.89681 4.18682C5.78553 4.10737 5.70201 4.03579 5.70201 4.03183ZM7.65832 4.5726C7.67822 4.5726 7.7657 4.58453 7.873 4.60837C8.54898 4.75946 9.76176 4.99009 10.5371 5.12132C10.6683 5.14118 10.7718 5.16509 10.7718 5.17299C10.7718 5.18099 10.724 5.20877 10.6643 5.24062C10.5332 5.30818 10.0043 5.62228 9.82937 5.74159C9.38796 6.03583 8.99038 6.35393 8.70406 6.64021C8.58877 6.75554 8.48931 6.85096 8.48931 6.85096C8.48931 6.85096 8.46553 6.7834 8.44556 6.69984C8.3025 6.14713 8.00423 5.32801 7.73385 4.75148C7.6901 4.66006 7.65429 4.57654 7.65429 4.56862C7.65429 4.57656 7.65429 4.5726 7.65832 4.5726ZM11.1017 5.22868C11.1256 5.2366 11.1654 5.37181 11.2449 5.67001C11.392 6.24661 11.4596 6.89075 11.4358 7.49117C11.4278 7.65817 11.4199 7.81322 11.4119 7.83315L11.4 7.87287L11.1932 7.8053C10.7677 7.67011 10.0759 7.46728 9.48346 7.30031C9.14541 7.20885 8.87112 7.12534 8.87112 7.11741C8.87112 7.09351 9.3642 6.60047 9.57492 6.41361C9.97644 6.05967 11.0659 5.21672 11.1017 5.22868ZM11.3761 5.2684C11.3881 5.25653 13.0223 5.53878 13.7659 5.68195C14.3186 5.78929 15.1218 5.95631 15.1695 5.97622C15.1933 5.98414 15.1098 6.03185 14.8434 6.15113C13.7937 6.62435 13.0143 7.04975 12.239 7.56671C12.0362 7.70191 11.8652 7.81322 11.8612 7.81322C11.8573 7.81322 11.8533 7.69794 11.8533 7.55875C11.8533 6.80329 11.7022 6.03983 11.4238 5.39568C11.396 5.33206 11.3721 5.27243 11.3761 5.2684ZM15.6029 6.10346C15.6148 6.11538 15.5631 6.43748 15.5154 6.62831C15.3723 7.22078 14.9866 8.0996 14.5134 8.92661C14.4299 9.07374 14.3543 9.19303 14.3463 9.19699C14.3385 9.20095 14.2311 9.14129 14.1078 9.06972C13.6466 8.79934 13.1217 8.54487 12.5491 8.30626C12.3901 8.23869 12.2509 8.18299 12.2469 8.1751C12.219 8.15121 13.4994 7.30427 14.1754 6.89869C14.7122 6.57266 15.587 6.08752 15.6029 6.10346ZM15.905 6.15115C15.9409 6.15115 16.6645 6.34999 17.0422 6.46132C17.9767 6.73968 19.0502 7.1333 19.7501 7.4514L20.0403 7.58267L19.8376 7.63034C18.1278 8.02396 16.6645 8.47732 15.2529 9.04988C15.1376 9.09759 15.0342 9.13736 15.0264 9.13736C15.0184 9.13736 15.0581 9.04592 15.1098 8.93455C15.5353 8.03195 15.8097 7.08957 15.8772 6.28632C15.8812 6.21076 15.8931 6.15115 15.905 6.15115ZM8.7001 7.8053C8.712 7.79335 9.26473 7.9246 9.56294 8.00803C10.0162 8.13531 10.9785 8.45735 10.9785 8.48124C10.9785 8.4852 10.8711 8.57666 10.7439 8.68804C10.223 9.12145 9.72199 9.57866 9.12154 10.1592C8.9426 10.3303 8.79155 10.4694 8.78363 10.4694C8.77563 10.4694 8.77172 10.4455 8.77563 10.4137C8.86707 9.74566 8.84725 8.88682 8.72 8.01602C8.70802 7.90465 8.69612 7.80926 8.7001 7.8053ZM20.3148 7.81726C20.3226 7.82516 20.0603 8.23869 19.8933 8.47327C19.6547 8.81522 19.3047 9.26859 18.5134 10.2626C18.096 10.7875 17.6267 11.38 17.4717 11.5788C17.3126 11.7776 17.1815 11.9445 17.1774 11.9445C17.1735 11.9445 17.1218 11.873 17.0661 11.7856C16.6208 11.1175 16.0879 10.533 15.4557 10.0081C15.3364 9.90871 15.2053 9.80135 15.1615 9.76954C15.1178 9.73774 15.082 9.70593 15.082 9.70197C15.082 9.69007 15.7579 9.39973 16.2709 9.19301C17.1695 8.82717 18.3941 8.3898 19.3127 8.10746C19.7938 7.95639 20.3068 7.80926 20.3148 7.81726ZM20.6209 7.89673C20.6368 7.89278 20.7323 7.94049 20.8476 8.00803C21.8138 8.56073 22.7601 9.27252 23.5077 10.0042C23.7184 10.211 24.2393 10.7517 24.2313 10.7557C24.2313 10.7557 24.0484 10.7716 23.8337 10.7875C22.1597 10.9148 20.0166 11.2686 17.9568 11.7656C17.8177 11.7974 17.6944 11.8252 17.6865 11.8252C17.6786 11.8252 17.8336 11.6702 18.0285 11.4833C19.2372 10.3183 19.79 9.58267 20.442 8.27047C20.5334 8.07569 20.613 7.90868 20.6209 7.89673C20.617 7.89673 20.617 7.89673 20.6209 7.89673ZM11.7658 8.80337C11.8215 8.81523 12.3384 9.05788 12.728 9.25266C13.0859 9.43153 13.6227 9.71788 13.6506 9.7417C13.6545 9.74566 13.4636 9.84508 13.2291 9.96041C12.4815 10.3342 11.8414 10.688 11.1733 11.0936C10.9825 11.209 10.8234 11.3044 10.8195 11.3044C10.8035 11.3044 10.8075 11.2884 10.9149 11.0936C11.2728 10.4416 11.559 9.66222 11.7221 8.90272C11.7379 8.84309 11.7539 8.80337 11.7658 8.80337ZM11.2488 8.89876C11.2608 8.91071 11.1256 9.39975 11.0421 9.66617C10.8791 10.1712 10.6047 10.8034 10.3383 11.2805C10.2746 11.3918 10.1792 11.5549 10.1275 11.6463L10.0282 11.8054L9.80549 11.5907C9.54707 11.3402 9.33627 11.1851 9.06595 11.0459C8.95851 10.9903 8.87505 10.9425 8.87505 10.9346C8.87505 10.9028 9.55499 10.2865 10.0759 9.84114C10.4496 9.51905 11.2369 8.88684 11.2488 8.89876ZM14.41 10.199L14.6049 10.3262C15.0501 10.6165 15.575 11.0022 15.9767 11.3402C16.2033 11.527 16.6406 11.9207 16.7282 12.0161L16.7758 12.0679L16.4538 12.1593C14.6327 12.6643 13.2251 13.1136 11.5829 13.718C11.4 13.7856 11.2449 13.8412 11.2329 13.8412C11.2091 13.8412 11.1892 13.8611 11.5988 13.4833C12.6486 12.5172 13.5789 11.4515 14.2708 10.4137L14.41 10.199ZM13.579 10.4058C13.5869 10.4137 13.0422 11.1811 12.7161 11.6145C12.3264 12.1315 11.6345 12.9983 11.1574 13.5628C10.9586 13.7975 10.7877 13.9923 10.7797 13.9963C10.7677 14.0003 10.7638 13.9406 10.7638 13.8492C10.7638 13.368 10.6405 12.8551 10.4258 12.4177C10.3343 12.2348 10.3184 12.1911 10.3384 12.1712C10.4139 12.1036 11.571 11.4435 12.3026 11.0499C12.7956 10.7875 13.567 10.3978 13.579 10.4058ZM8.55294 11.6384C8.56489 11.6384 8.65635 11.6861 8.75975 11.7418C9.01422 11.881 9.24087 12.036 9.44365 12.2031C9.45157 12.211 9.34823 12.2945 9.21304 12.3939C8.83528 12.6643 8.26271 13.0977 7.92876 13.3641C7.57876 13.6425 7.56692 13.6504 7.60663 13.5908C7.86909 13.1892 8.00025 12.9625 8.13948 12.6723C8.26271 12.4138 8.38595 12.1076 8.47343 11.8412C8.50523 11.7259 8.54502 11.6384 8.55294 11.6384ZM9.89299 12.6881C9.91281 12.6842 9.93674 12.7199 10.044 12.879C10.2707 13.2169 10.4457 13.6703 10.4895 14.0361L10.4973 14.1157L9.95266 14.3264C8.97841 14.7041 8.07983 15.0779 7.47138 15.3562C7.30046 15.4358 7.00222 15.5789 6.80742 15.6744C6.61256 15.7737 6.45351 15.8493 6.45351 15.8453C6.45351 15.8414 6.57675 15.7499 6.72784 15.6385C7.91682 14.7757 8.94663 13.8293 9.71801 12.883C9.80153 12.7836 9.87711 12.6921 9.885 12.6881L9.89299 12.6881ZM9.27668 12.8393C9.2926 12.8551 8.83931 13.3681 8.52916 13.6822C7.76174 14.4656 7.00226 15.0779 6.05985 15.6744C5.94058 15.7499 5.83324 15.8175 5.82128 15.8255C5.79343 15.8414 5.82921 15.8016 6.24276 15.3522C6.50522 15.0699 6.704 14.8314 6.93065 14.5372C7.08174 14.3424 7.1096 14.3145 7.32833 14.1594C7.91284 13.7379 9.26076 12.8233 9.27668 12.8393Z" fill="url(#paint2_radial)"/>
<defs>
<linearGradient id="paint0_linear" x1="4.59473" y1="23.968" x2="6.49696" y2="22.844" gradientUnits="userSpaceOnUse">
<stop stop-color="#909CA9"/>
<stop offset="1" stop-color="#EDEDEE"/>
</linearGradient>
<linearGradient id="paint1_linear" x1="4.63822" y1="2.77756" x2="6.16881" y2="2.77756" gradientUnits="userSpaceOnUse">
<stop stop-color="#939FAB"/>
<stop offset="1" stop-color="#DCDEE1"/>
</linearGradient>
<radialGradient id="paint2_radial" cx="0" cy="0" r="1" gradientUnits="userSpaceOnUse" gradientTransform="translate(12.3617 9.7972) rotate(-171.457) scale(1.97335 3.94768)">
<stop stop-color="#EE352C"/>
<stop offset="1" stop-color="#A91D22"/>
</radialGradient>
</defs>
</svg>
