<svg width="20" height="20" viewBox="0 0 20 20" fill="none" xmlns="http://www.w3.org/2000/svg">
<g clip-path="url(#clip0)">
<path fill-rule="evenodd" clip-rule="evenodd" d="M18.4224 15.5788C17.3346 15.5485 16.4908 15.66 15.7835 15.9576C15.5798 16.0394 15.253 16.0394 15.2262 16.2957C15.335 16.4032 15.3481 16.5793 15.4436 16.7283C15.6067 16.9989 15.8926 17.3634 16.1508 17.5524L17.0212 18.1744C17.5517 18.4986 18.1502 18.688 18.6669 19.0125C18.9663 19.2018 19.2654 19.4451 19.5647 19.6481C19.7172 19.7563 19.8095 19.9323 20.0001 19.9996V19.9587C19.905 19.8375 19.8775 19.6617 19.7827 19.526L19.3742 19.1343C18.98 18.6071 18.4901 18.1472 17.9596 17.7691C17.5243 17.4715 16.5725 17.0661 16.3957 16.5662L16.3688 16.5359C16.6676 16.5056 17.0212 16.4005 17.3072 16.3193C17.77 16.1981 18.1913 16.2248 18.6669 16.1033L19.3202 15.9139V15.7927C19.0754 15.5494 18.8986 15.225 18.6404 14.9953C17.9468 14.4006 17.1846 13.8191 16.3957 13.3326C15.974 13.0623 15.4298 12.8863 14.9811 12.6569C14.8174 12.5757 14.5457 12.5351 14.4506 12.4C14.2052 12.1031 14.0695 11.7107 13.8927 11.359L12.7775 9.00697C12.5327 8.47979 12.3827 7.95261 12.0839 7.46603C10.6828 5.16795 9.15904 3.77578 6.8195 2.41026C6.31647 2.12637 5.71801 2.00427 5.08176 1.85581L4.06167 1.80128C3.84369 1.70675 3.62633 1.44983 3.43578 1.32803C2.66051 0.841448 0.660891 -0.21291 0.089267 1.17654C-0.278097 2.05517 0.633452 2.92017 0.942891 3.36646C1.17459 3.67731 1.47336 4.02876 1.63707 4.38021C1.72853 4.60987 1.75902 4.85347 1.85444 5.09676C2.07181 5.6915 2.27607 6.35411 2.56173 6.90855C2.71417 7.19244 2.87422 7.49027 3.06476 7.74689C3.1736 7.89838 3.36414 7.96322 3.40469 8.20651C3.21414 8.47707 3.20104 8.88214 3.0922 9.22057C2.60228 10.7482 2.79282 12.6406 3.48639 13.7652C3.70437 14.103 4.21807 14.8468 4.915 14.5627C5.52717 14.3194 5.39059 13.5489 5.56741 12.873C5.60857 12.7109 5.58113 12.6027 5.66253 12.4942V12.5245L6.22043 13.6465C6.64206 14.3088 7.37679 14.9983 7.98866 15.4583C8.31487 15.7015 8.57339 16.1209 8.9813 16.2693V16.2284H8.95448C8.87277 16.1072 8.75021 16.0527 8.64138 15.9582C8.39657 15.7149 8.12463 15.4173 7.93409 15.1471C7.36307 14.3903 6.86004 13.5519 6.41098 12.6869C6.193 12.2679 6.00246 11.8083 5.82624 11.3893C5.74393 11.2269 5.74393 10.9833 5.60826 10.9027C5.404 11.1996 5.10523 11.4571 4.95493 11.8219C4.69641 12.403 4.66958 13.1196 4.57446 13.8631C4.51958 13.8767 4.54398 13.8631 4.51959 13.8934C4.08485 13.7855 3.93485 13.3389 3.77175 12.9608C3.36384 12.001 3.29554 10.46 3.64919 9.35146C3.74431 9.06757 4.15283 8.1753 3.98973 7.90504C3.90741 7.64812 3.63608 7.49966 3.48609 7.29667C3.30926 7.03974 3.11933 6.71556 2.99678 6.43167C2.67057 5.67423 2.50747 4.8365 2.15352 4.07936C1.9898 3.72791 1.70445 3.36282 1.47306 3.03863C1.21453 2.67355 0.929478 2.41662 0.725218 1.98428C0.657233 1.83279 0.562114 1.59222 0.670951 1.42983C0.697779 1.32167 0.752656 1.27834 0.860883 1.2541C1.03771 1.10261 1.54134 1.2947 1.71817 1.37529C2.2212 1.57829 2.64283 1.76735 3.06446 2.05093C3.255 2.18606 3.45926 2.44298 3.70407 2.51085H3.99003C4.42538 2.60538 4.91469 2.54115 5.3223 2.66234C6.04331 2.8926 6.69602 3.23012 7.28137 3.59551C9.06301 4.71743 10.5325 6.3126 11.5251 8.21893C11.6882 8.52978 11.7562 8.81367 11.9062 9.13816C12.1922 9.80077 12.5458 10.4764 12.8309 11.1257C13.1168 11.761 13.3888 12.4103 13.7967 12.9375C14.0009 13.2214 14.8168 13.3698 15.1838 13.5186C15.4561 13.6398 15.8774 13.7489 16.1228 13.8973C16.585 14.1812 17.0475 14.5057 17.4825 14.8165C17.6999 14.9783 18.3803 15.3165 18.4209 15.5861L18.4224 15.5788ZM4.55099 3.83183C4.36306 3.83017 4.17571 3.85289 3.99369 3.89939V3.92969H4.02052C4.12935 4.14601 4.3199 4.29478 4.45587 4.48414L4.76897 5.13311L4.79579 5.10281C4.98633 4.96769 5.08176 4.75136 5.08176 4.42718C5.00005 4.33265 4.98664 4.23782 4.91865 4.14329C4.83695 4.00816 4.66013 3.94029 4.55099 3.83243V3.83183Z" fill="#00678C"/>
</g>
<defs>
<clipPath id="clip0">
<rect width="20" height="20" fill="white"/>
</clipPath>
</defs>
</svg>
