<?xml version="1.0" encoding="UTF-8"?>
<svg xmlns="http://www.w3.org/2000/svg" xmlns:xlink="http://www.w3.org/1999/xlink" width="25px" height="25px" viewBox="0 0 25 25" version="1.1">
<g id="surface1">
<path style=" stroke:none;fill-rule:nonzero;fill:rgb(0%,0%,0%);fill-opacity:1;" d="M 23.207031 10.230469 C 23.773438 8.53125 23.578125 6.664062 22.671875 5.117188 C 21.308594 2.742188 18.566406 1.519531 15.886719 2.09375 C 14.695312 0.753906 12.984375 -0.0117188 11.191406 0 C 8.453125 -0.0078125 6.023438 1.757812 5.183594 4.359375 C 3.421875 4.722656 1.90625 5.820312 1.015625 7.382812 C -0.355469 9.75 -0.0429688 12.738281 1.792969 14.769531 C 1.226562 16.46875 1.421875 18.335938 2.328125 19.882812 C 3.691406 22.257812 6.433594 23.480469 9.113281 22.90625 C 10.300781 24.246094 12.015625 25.011719 13.808594 25 C 16.546875 25.007812 18.976562 23.242188 19.820312 20.636719 C 21.578125 20.273438 23.097656 19.175781 23.984375 17.613281 C 25.359375 15.246094 25.042969 12.261719 23.207031 10.230469 Z M 13.8125 23.367188 C 12.714844 23.367188 11.652344 22.984375 10.8125 22.28125 C 10.851562 22.261719 10.917969 22.222656 10.960938 22.199219 L 15.9375 19.324219 C 16.191406 19.179688 16.347656 18.90625 16.347656 18.613281 L 16.347656 11.597656 L 18.449219 12.8125 C 18.472656 12.820312 18.488281 12.84375 18.492188 12.867188 L 18.492188 18.679688 C 18.488281 21.265625 16.394531 23.359375 13.8125 23.367188 Z M 3.746094 19.066406 C 3.195312 18.117188 3 17.007812 3.1875 15.925781 C 3.222656 15.949219 3.289062 15.988281 3.335938 16.015625 L 8.3125 18.890625 C 8.566406 19.039062 8.878906 19.039062 9.128906 18.890625 L 15.207031 15.382812 L 15.207031 17.8125 C 15.210938 17.835938 15.199219 17.859375 15.179688 17.875 L 10.144531 20.78125 C 7.90625 22.070312 5.042969 21.304688 3.746094 19.066406 Z M 2.433594 8.199219 C 2.980469 7.25 3.84375 6.523438 4.875 6.144531 C 4.875 6.1875 4.871094 6.265625 4.871094 6.316406 L 4.871094 12.070312 C 4.871094 12.359375 5.027344 12.632812 5.28125 12.777344 L 11.355469 16.285156 L 9.253906 17.5 C 9.230469 17.515625 9.207031 17.515625 9.183594 17.507812 L 4.148438 14.597656 C 1.914062 13.304688 1.144531 10.441406 2.433594 8.199219 Z M 19.722656 12.222656 L 13.644531 8.714844 L 15.746094 7.5 C 15.769531 7.484375 15.796875 7.484375 15.820312 7.492188 L 20.851562 10.398438 C 23.09375 11.691406 23.859375 14.558594 22.566406 16.800781 C 22.019531 17.75 21.15625 18.476562 20.128906 18.851562 L 20.128906 12.929688 C 20.128906 12.636719 19.976562 12.367188 19.722656 12.222656 Z M 21.816406 9.070312 C 21.777344 9.046875 21.714844 9.007812 21.667969 8.984375 L 16.6875 6.109375 C 16.4375 5.960938 16.125 5.960938 15.871094 6.109375 L 9.792969 9.617188 L 9.792969 7.1875 C 9.792969 7.164062 9.804688 7.136719 9.824219 7.121094 L 14.855469 4.21875 C 17.097656 2.925781 19.960938 3.695312 21.253906 5.9375 C 21.800781 6.886719 22 7.992188 21.8125 9.070312 Z M 8.648438 13.402344 L 6.546875 12.1875 C 6.523438 12.175781 6.507812 12.152344 6.503906 12.128906 L 6.503906 6.316406 C 6.507812 3.730469 8.605469 1.632812 11.191406 1.632812 C 12.289062 1.632812 13.347656 2.019531 14.1875 2.71875 C 14.148438 2.738281 14.085938 2.777344 14.039062 2.800781 L 9.0625 5.675781 C 8.808594 5.820312 8.652344 6.09375 8.652344 6.386719 L 8.648438 13.398438 Z M 9.792969 10.9375 L 12.5 9.375 L 15.207031 10.9375 L 15.207031 14.0625 L 12.5 15.625 L 9.792969 14.0625 Z M 9.792969 10.9375 "/>
</g>
</svg>
