<svg width="24" height="25" viewBox="0 0 24 25" fill="none" xmlns="http://www.w3.org/2000/svg">
<g clip-path="url(#clip0)">
<path d="M23.9069 14.8205C23.763 14.3846 23.386 14.081 22.8985 14.0082C22.6686 13.9739 22.4054 13.9885 22.0938 14.0527C21.5508 14.1648 21.148 14.2074 20.854 14.2157C21.9637 12.3421 22.8661 10.2055 23.3855 8.19429C24.2255 4.9422 23.7767 3.46067 23.2521 2.79054C21.864 1.01679 19.8387 0.0639198 17.3954 0.0347635C16.092 0.018826 14.9478 0.27617 14.3509 0.461232C13.7951 0.36317 13.1976 0.30842 12.5706 0.298295C11.3952 0.279545 10.3568 0.535764 9.46943 1.06236C8.97818 0.896232 8.18975 0.662045 7.27925 0.512607C5.13782 0.161045 3.41189 0.434982 2.14946 1.32683C0.620775 2.40664 -0.0878786 4.28276 0.0431834 6.90308C0.0848083 7.73501 0.550182 10.2663 1.28293 12.6668C1.70405 14.0466 2.15311 15.1925 2.61764 16.0728C3.27642 17.321 3.98132 18.0561 4.77267 18.3201C5.21619 18.4679 6.02207 18.5714 6.86966 17.8654C6.97709 17.9956 7.12044 18.1249 7.31066 18.245C7.55225 18.3973 7.84765 18.5218 8.14268 18.5956C9.2059 18.8614 10.2018 18.7949 11.0515 18.4223C11.0567 18.5735 11.0607 18.7178 11.0641 18.8425C11.0697 19.0447 11.0754 19.243 11.0828 19.4285C11.1331 20.6823 11.2184 21.6572 11.4712 22.3393C11.485 22.3768 11.5037 22.434 11.5234 22.4946C11.6495 22.8807 11.8603 23.527 12.3968 24.0332C12.9522 24.5575 13.6241 24.7183 14.2395 24.7183C14.5481 24.7183 14.8426 24.6778 15.1009 24.6225C16.0215 24.4251 17.0671 24.1246 17.8235 23.0476C18.5386 22.0295 18.8862 20.496 18.9491 18.0798C18.9573 18.0114 18.9648 17.9462 18.972 17.884L18.987 17.7563L19.1555 17.7711L19.1989 17.774C20.1365 17.8168 21.2831 17.618 21.9873 17.2909C22.5437 17.0327 24.3267 16.0913 23.9069 14.8205Z" fill="black"/>
<path d="M22.3037 15.0677C19.5156 15.6429 19.3239 14.6989 19.3239 14.6989C22.2676 10.3308 23.4983 4.78619 22.4364 3.42915C19.5391 -0.272565 14.524 1.47812 14.4402 1.5235L14.4133 1.52837C13.8625 1.414 13.246 1.34594 12.5531 1.33459C11.2916 1.31397 10.3346 1.66534 9.60845 2.21603C9.60845 2.21603 0.661889 -1.46966 1.07805 6.8514C1.16655 8.62159 3.6153 20.2458 6.53598 16.7347C7.60351 15.4508 8.63505 14.3653 8.63505 14.3653C9.1473 14.7056 9.76061 14.8792 10.4035 14.8169L10.4535 14.7745C10.438 14.9339 10.4451 15.0898 10.4735 15.2744C9.72105 16.115 9.9422 16.2626 8.43808 16.5722C6.91605 16.8859 7.81014 17.4443 8.39392 17.5904C9.10164 17.7673 10.7389 18.018 11.8451 16.4693L11.8011 16.646C12.0958 16.8822 12.3028 18.1819 12.2681 19.3603C12.2335 20.5385 12.2103 21.3475 12.4425 21.9794C12.6749 22.6112 12.9064 24.033 14.8838 23.6093C16.5359 23.2552 17.3921 22.3377 17.5113 20.8071C17.5958 19.7191 17.7871 19.8799 17.7991 18.9071L17.9526 18.4466C18.1295 16.9716 17.9807 16.4957 18.9985 16.7171L19.246 16.7388C19.9951 16.7729 20.9757 16.6183 21.5513 16.3508C22.7905 15.7758 23.5255 14.8155 22.3035 15.0677H22.3037Z" fill="#336791"/>
<path d="M10.1321 7.64306C9.88088 7.60809 9.65335 7.64044 9.53822 7.72763C9.47354 7.77666 9.45347 7.83348 9.44804 7.87257C9.4336 7.97617 9.50616 8.09073 9.55079 8.1498C9.67697 8.31705 9.86129 8.43199 10.0437 8.45731C10.0702 8.46106 10.0965 8.46274 10.1227 8.46274C10.4269 8.46274 10.7035 8.22583 10.7279 8.05098C10.7584 7.83198 10.4405 7.686 10.1321 7.64316V7.64306ZM18.4556 7.65C18.4316 7.47834 18.1262 7.4294 17.8363 7.46971C17.5468 7.51003 17.2661 7.64072 17.2896 7.81276C17.3083 7.94654 17.5499 8.17492 17.8358 8.17492C17.86 8.17492 17.8844 8.17333 17.909 8.16986C18.0998 8.14342 18.2399 8.0222 18.3065 7.95235C18.4077 7.84585 18.4664 7.72716 18.4556 7.65Z" fill="white"/>
<path d="M23.2315 15.0025C23.1252 14.681 22.783 14.5776 22.2145 14.695C20.5265 15.0433 19.922 14.802 19.7236 14.6559C21.0356 12.6571 22.115 10.241 22.6972 7.98678C22.9731 6.91897 23.1254 5.92728 23.1379 5.11897C23.1516 4.23182 23.0005 3.57988 22.6889 3.18163C21.4325 1.57616 19.5884 0.714972 17.3562 0.691347C15.8216 0.674097 14.525 1.06682 14.2737 1.17725C13.7444 1.04563 13.1673 0.964816 12.5391 0.954503C11.3871 0.935847 10.3913 1.21166 9.56684 1.77388C9.20872 1.64057 8.28321 1.32285 7.15136 1.1405C5.19461 0.825503 3.63966 1.06419 2.53003 1.85028C1.206 2.78835 0.594744 4.46516 0.71315 6.83403C0.752994 7.631 1.20712 10.0828 1.92375 12.4307C2.86707 15.5211 3.89251 17.2706 4.97139 17.6305C5.09767 17.6726 5.24326 17.702 5.40386 17.702C5.79742 17.702 6.27996 17.5246 6.78199 16.9211C7.39433 16.1865 8.02775 15.4698 8.68146 14.7718C9.10559 14.9994 9.57153 15.1265 10.0481 15.1393C10.049 15.1517 10.0502 15.1642 10.0513 15.1766C9.96932 15.2744 9.88899 15.3736 9.81041 15.4742C9.48022 15.8934 9.4115 15.9807 8.34865 16.1995C8.04631 16.2619 7.24333 16.4274 7.23152 16.9903C7.21877 17.6053 8.18074 17.8635 8.29034 17.8909C8.67228 17.9865 9.04025 18.0337 9.39116 18.0337C10.2446 18.0337 10.9956 17.7532 11.5958 17.2105C11.5773 19.4029 11.6687 21.5633 11.932 22.2215C12.1476 22.7604 12.6743 24.0773 14.338 24.0772C14.5821 24.0772 14.8508 24.0488 15.1464 23.9854C16.8827 23.6132 17.6368 22.8458 17.9284 21.1539C18.0845 20.2497 18.3524 18.0905 18.4784 16.9323C18.7443 17.0153 19.0865 17.0533 19.4566 17.0532C20.2283 17.0532 21.1189 16.8892 21.6773 16.63C22.3047 16.3386 23.4368 15.6237 23.2315 15.0025ZM19.0966 7.17622C19.0909 7.51813 19.0438 7.82853 18.9939 8.15253C18.9402 8.501 18.8847 8.86128 18.8707 9.29863C18.8569 9.72425 18.9101 10.1668 18.9615 10.5947C19.0654 11.4591 19.1719 12.349 18.7593 13.227C18.6908 13.1056 18.6298 12.9801 18.5765 12.8512C18.5253 12.7269 18.4139 12.5272 18.2597 12.2508C17.6598 11.1749 16.2549 8.6555 16.9741 7.62744C17.1883 7.32144 17.7319 7.00681 19.0966 7.17622ZM17.4424 1.38369C19.4425 1.42785 21.0246 2.17607 22.1448 3.60744C23.0039 4.70535 22.0579 9.701 19.3191 14.0108C19.2916 13.9758 19.2639 13.9409 19.2361 13.9061L19.2014 13.8628C19.9091 12.694 19.7707 11.5376 19.6475 10.5123C19.5969 10.0916 19.5491 9.69416 19.5613 9.32085C19.5739 8.92522 19.6262 8.58585 19.6768 8.25772C19.7389 7.85338 19.8022 7.43497 19.7848 6.94175C19.7978 6.89 19.8031 6.82888 19.7962 6.75631C19.7517 6.28335 19.2117 4.86782 18.1111 3.58663C17.509 2.88585 16.631 2.10163 15.4322 1.57269C15.9479 1.46582 16.653 1.36616 17.4424 1.38369ZM6.25071 16.4793C5.69758 17.1444 5.31564 17.0169 5.19001 16.9751C4.37157 16.7021 3.42188 14.9722 2.5846 12.2291C1.86009 9.8555 1.43672 7.46872 1.40315 6.79944C1.2974 4.68275 1.8105 3.2076 2.92828 2.41485C4.74742 1.12485 7.73824 1.89697 8.94003 2.28857C8.92278 2.30563 8.90478 2.32157 8.88772 2.33891C6.91558 4.33053 6.96236 7.73328 6.96724 7.94131C6.96705 8.02156 6.9738 8.13519 6.98299 8.29147C7.01693 8.86381 7.08011 9.929 6.91136 11.1353C6.75461 12.2563 7.10018 13.3534 7.85927 14.1455C7.93718 14.2266 8.01906 14.3039 8.10462 14.3769C7.76674 14.7388 7.0324 15.539 6.25071 16.4793ZM8.35812 13.6675C7.7463 13.029 7.46843 12.141 7.59565 11.2309C7.77377 9.95666 7.70806 8.84685 7.67271 8.2506C7.66774 8.16716 7.66333 8.09403 7.6608 8.03638C7.9489 7.78091 9.284 7.0656 10.2361 7.28375C10.6706 7.38322 10.9353 7.6791 11.0454 8.18797C11.615 10.8226 11.1208 11.9207 10.7236 12.8032C10.6418 12.985 10.5644 13.1568 10.4984 13.3346L10.4473 13.472C10.3177 13.8194 10.1971 14.1425 10.1224 14.4493C9.47197 14.4474 8.83925 14.1696 8.35812 13.6675ZM8.45796 17.2206C8.26803 17.1732 8.09721 17.0908 7.99699 17.0224C8.08071 16.983 8.22968 16.9294 8.48806 16.8762C9.73841 16.6188 9.93153 16.4371 10.3532 15.9017C10.4499 15.7789 10.5595 15.6398 10.7113 15.4703C10.9373 15.2172 11.0409 15.2599 11.2284 15.3377C11.3804 15.4005 11.5284 15.591 11.5884 15.8007C11.6168 15.8997 11.6487 16.0875 11.5443 16.2338C10.6634 17.4672 9.37981 17.4513 8.45796 17.2206ZM15.0016 23.3098C13.472 23.6376 12.9304 22.8571 12.5735 21.9649C12.3432 21.3889 12.2299 18.7915 12.3103 15.923C12.3113 15.8848 12.3059 15.848 12.2954 15.8133C12.286 15.7448 12.2717 15.6771 12.2526 15.6106C12.1332 15.1933 11.8421 14.8441 11.4929 14.6994C11.3541 14.6419 11.0995 14.5364 10.7935 14.6147C10.8587 14.3458 10.9719 14.0422 11.0946 13.7134L11.1461 13.5751C11.204 13.4192 11.2768 13.2577 11.3536 13.0867C11.7692 12.1634 12.3384 10.8988 11.7207 8.042C11.4893 6.97194 10.7166 6.44938 9.54528 6.57078C8.84309 6.64344 8.20062 6.92675 7.88018 7.08922C7.81127 7.1241 7.74827 7.15785 7.6894 7.19066C7.77884 6.11253 8.11671 4.09766 9.38066 2.82285C10.1765 2.02035 11.2364 1.62397 12.5277 1.64535C15.0721 1.68697 16.7037 2.99272 17.6245 4.08088C18.418 5.01847 18.8477 5.963 19.0191 6.47244C17.7296 6.34128 16.8526 6.59582 16.408 7.23144C15.4408 8.61407 16.9371 11.2976 17.6563 12.5873C17.7882 12.8236 17.902 13.0279 17.9378 13.1147C18.172 13.6823 18.4752 14.0612 18.6965 14.3378C18.7644 14.4225 18.8302 14.5048 18.8803 14.5766C18.4897 14.6892 17.7882 14.9493 17.8521 16.2497C17.8006 16.9022 17.4339 19.9572 17.2476 21.0365C17.0017 22.4624 16.477 22.9934 15.0016 23.3098ZM21.3864 16.0033C20.987 16.1887 20.3187 16.3277 19.6838 16.3576C18.9826 16.3904 18.6256 16.2791 18.5416 16.2105C18.5022 15.4002 18.8038 15.3155 19.123 15.2259C19.1732 15.2118 19.2221 15.198 19.2694 15.1815C19.2987 15.2054 19.3309 15.2292 19.3661 15.2524C19.9297 15.6244 20.935 15.6645 22.3543 15.3716L22.3699 15.3685C22.1784 15.5474 21.8509 15.7876 21.3864 16.0033Z" fill="white"/>
</g>
<defs>
<clipPath id="clip0">
<rect width="24" height="24.7525" fill="white"/>
</clipPath>
</defs>
</svg>
