<svg width="58" height="55" viewBox="0 0 58 55" fill="none" xmlns="http://www.w3.org/2000/svg">
<path d="M23.0297 48.9848V40.2355C23.0297 39.6832 23.4774 39.2355 24.0297 39.2355H34.1441C34.6964 39.2355 35.1441 39.6832 35.1441 40.2355V49.0309C35.1441 49.3112 35.2617 49.5786 35.4684 49.7681L38.3667 52.4248C39.039 53.0411 38.603 54.162 37.6909 54.162H32.8385H19.9486C18.9989 54.162 18.5858 52.9624 19.3326 52.3757L22.6475 49.7711C22.8888 49.5815 23.0297 49.2916 23.0297 48.9848Z" fill="#FFAD5E"/>
<path d="M22.6475 49.7711L23.0707 50.3097H23.0707L22.6475 49.7711ZM19.3326 52.3757L19.7558 52.9143L19.7558 52.9143L19.3326 52.3757ZM35.4684 49.7681L35.0055 50.273V50.273L35.4684 49.7681ZM38.3667 52.4248L37.9038 52.9298L38.3667 52.4248ZM22.3447 40.2355V48.9848H23.7147V40.2355H22.3447ZM22.2243 49.2325L18.9094 51.837L19.7558 52.9143L23.0707 50.3097L22.2243 49.2325ZM19.9486 54.847H32.8385V53.477H19.9486V54.847ZM24.0297 39.9205H34.1441V38.5505H24.0297V39.9205ZM34.4591 40.2355V49.0309H35.8291V40.2355H34.4591ZM35.0055 50.273L37.9038 52.9298L38.8295 51.9199L35.9312 49.2631L35.0055 50.273ZM37.6909 53.477H32.8385V54.847H37.6909V53.477ZM37.9038 52.9298C38.1156 53.1239 37.9782 53.477 37.6909 53.477V54.847C39.2277 54.847 39.9624 52.9583 38.8295 51.9199L37.9038 52.9298ZM34.1441 39.9205C34.3181 39.9205 34.4591 40.0615 34.4591 40.2355H35.8291C35.8291 39.3049 35.0747 38.5505 34.1441 38.5505V39.9205ZM18.9094 51.837C17.6535 52.8238 18.3453 54.847 19.9486 54.847V53.477C19.6525 53.477 19.5182 53.101 19.7558 52.9143L18.9094 51.837ZM22.3447 48.9848C22.3447 49.0814 22.3003 49.1727 22.2243 49.2325L23.0707 50.3097C23.4773 49.9903 23.7147 49.5018 23.7147 48.9848H22.3447ZM34.4591 49.0309C34.4591 49.5032 34.6573 49.9538 35.0055 50.273L35.9312 49.2631C35.8662 49.2034 35.8291 49.1192 35.8291 49.0309H34.4591ZM23.7147 40.2355C23.7147 40.0615 23.8557 39.9205 24.0297 39.9205V38.5505C23.0991 38.5505 22.3447 39.3049 22.3447 40.2355H23.7147Z" fill="black"/>
<mask id="path-3-inside-1_704_2010" fill="white">
<rect width="58" height="40.9412" rx="1.22857"/>
</mask>
<rect width="58" height="40.9412" rx="1.22857" fill="#FFAD5E" stroke="black" stroke-width="2.74" mask="url(#path-3-inside-1_704_2010)"/>
<mask id="path-4-inside-2_704_2010" fill="white">
<rect x="4.26489" y="4.2648" width="50.3235" height="32.4118" rx="1.22857"/>
</mask>
<rect x="4.26489" y="4.2648" width="50.3235" height="32.4118" rx="1.22857" fill="white" stroke="black" stroke-width="2.74" mask="url(#path-4-inside-2_704_2010)"/>
<rect x="9.40112" y="14.125" width="4.55892" height="15.6306" fill="#FEB998"/>
<rect x="16.5671" y="19.3353" width="4.55892" height="10.4204" fill="#FFAD5E"/>
<rect x="23.7312" y="26.4988" width="4.55892" height="3.25637" fill="#FEB998"/>
<rect x="30.8943" y="16.0782" width="4.55892" height="13.6768" fill="#FFAD5E"/>
<rect x="38.0593" y="20.6371" width="4.55892" height="9.11785" fill="#FEB998"/>
<rect x="45.2222" y="12.1713" width="4.55892" height="17.5844" fill="#FFAD5E"/>
<path d="M12.0474 21.9806L18.9265 25.3184L26.0498 17.788L33.4173 22.754L40.3778 24.5043L47.5011 18.073" stroke="#FE6D2C" stroke-width="0.763564"/>
<circle cx="11.8854" cy="21.94" r="0.773389" fill="#FE6D2C"/>
<ellipse cx="11.8857" cy="21.9404" rx="0.488456" ry="0.488456" fill="white"/>
<circle cx="18.8459" cy="25.3185" r="0.773389" fill="#FE6D2C"/>
<ellipse cx="18.8466" cy="25.319" rx="0.488456" ry="0.488456" fill="white"/>
<circle cx="26.0109" cy="17.8295" r="0.773389" fill="#FE6D2C"/>
<ellipse cx="26.0087" cy="17.8284" rx="0.488456" ry="0.488456" fill="white"/>
<circle cx="33.4047" cy="22.7336" r="0.773389" fill="#FE6D2C"/>
<ellipse cx="33.4037" cy="22.7337" rx="0.488456" ry="0.488456" fill="white"/>
<circle cx="40.3378" cy="24.5451" r="0.773389" fill="#FE6D2C"/>
<ellipse cx="40.3383" cy="24.5452" rx="0.488456" ry="0.488456" fill="white"/>
<circle cx="47.5009" cy="18.1135" r="0.773389" fill="#FE6D2C"/>
<ellipse cx="47.5014" cy="18.1136" rx="0.488456" ry="0.488456" fill="white"/>
</svg>
