<svg width="24" height="24" viewBox="0 0 24 24" fill="none" xmlns="http://www.w3.org/2000/svg">
<g clip-path="url(#clip0)">
<path d="M23.0594 17.576C21.7786 18.2441 15.1445 20.9717 13.732 21.7078C12.3196 22.444 11.5351 22.437 10.4191 21.9038C9.30313 21.3706 2.24335 18.519 0.970859 17.9107C0.334613 17.6066 0.0012207 17.3508 0.0012207 17.109V14.683C0.0012207 14.683 9.19306 12.682 10.6774 12.1495C12.1618 11.617 12.6752 11.5979 13.9388 12.0604C15.2024 12.523 22.7527 13.8852 24.0004 14.3426V16.7349C24.0004 16.9748 23.7128 17.2439 23.0607 17.5773L23.0594 17.576Z" fill="#A41E11"/>
<path d="M23.0594 15.1494C21.7786 15.8174 15.1445 18.545 13.732 19.2812C12.3196 20.0173 11.5351 20.0103 10.4191 19.4771C9.30312 18.944 2.24334 16.0923 0.970852 15.4841C-0.301638 14.8758 -0.327089 14.4578 0.921861 13.9685L10.6768 10.1918C12.1605 9.65987 12.6746 9.64014 13.9382 10.1027C15.2017 10.5652 21.7958 13.1898 23.0428 13.6542C24.2899 14.1187 24.3389 14.4877 23.0581 15.1558L23.0594 15.1494Z" fill="#D82C20"/>
<path d="M23.0594 13.6199C21.7786 14.2879 15.1445 17.0155 13.732 17.7516C12.3196 18.4878 11.5351 18.4808 10.4191 17.9476C9.30313 17.4144 2.24335 14.5628 0.970859 13.9545C0.334613 13.6504 0.0012207 13.3946 0.0012207 13.1529V10.7269C0.0012207 10.7269 9.19306 8.72587 10.6774 8.19333C12.1618 7.6608 12.6752 7.64171 13.9388 8.10426C15.2024 8.56681 22.7527 9.92901 24.0004 10.3865V12.7788C24.0004 13.0186 23.7128 13.2877 23.0607 13.6211L23.0594 13.6199Z" fill="#A41E11"/>
<path d="M23.0594 11.1939C21.7786 11.862 15.1445 14.5895 13.732 15.3257C12.3196 16.0618 11.5351 16.0548 10.4191 15.5216C9.30312 14.9885 2.24334 12.1368 0.970852 11.5286C-0.301638 10.9203 -0.327089 10.5023 0.921861 10.013L10.6768 6.23691C12.1605 5.70438 12.6746 5.68529 13.9382 6.14784C15.2017 6.61039 21.7958 9.23554 23.0441 9.69173C24.2924 10.1479 24.3401 10.5252 23.0594 11.1933V11.1939Z" fill="#D82C20"/>
<path d="M23.0594 9.51748C21.7786 10.1855 15.1445 12.9131 13.732 13.6499C12.3196 14.3867 11.5351 14.379 10.4191 13.8459C9.30313 13.3127 2.24335 10.461 0.970859 9.85278C0.334613 9.54866 0.0012207 9.29288 0.0012207 9.05111V6.62384C0.0012207 6.62384 9.19306 4.62284 10.6774 4.09031C12.1618 3.55777 12.6752 3.53868 13.9388 4.00123C15.2024 4.46378 22.7527 5.82598 24.0004 6.28344V8.67573C24.0004 8.91559 23.7128 9.18472 23.0607 9.51812L23.0594 9.51748Z" fill="#A41E11"/>
<path d="M23.0594 7.09075C21.7786 7.75881 15.1445 10.4864 13.732 11.2225C12.3196 11.9587 11.5351 11.9517 10.4191 11.4185C9.30312 10.8853 2.24334 8.03367 0.970852 7.42542C-0.301638 6.81717 -0.327089 6.39915 0.921861 5.90988L10.6768 2.13376C12.1605 1.60123 12.6746 1.58214 13.9382 2.04469C15.2017 2.50724 21.7958 5.13239 23.0441 5.58858C24.2924 6.04476 24.3401 6.42206 23.0594 7.09011V7.09075Z" fill="#D82C20"/>
<path d="M12.5996 6.0905L11.8475 4.84028L9.44632 4.62395L11.238 3.97753L10.7004 2.98499L12.3775 3.64032L13.9592 3.12241L13.5317 4.14804L15.1439 4.75247L13.0646 4.9688L12.5996 6.0905ZM8.59375 8.57949L14.1545 7.72565L12.4748 10.1892L8.59375 8.57949Z" fill="white"/>
<path d="M7.09473 7.6818C8.73642 7.6818 10.0673 7.16592 10.0673 6.52956C10.0673 5.8932 8.73642 5.37732 7.09473 5.37732C5.45304 5.37732 4.12219 5.8932 4.12219 6.52956C4.12219 7.16592 5.45304 7.6818 7.09473 7.6818Z" fill="white"/>
<path d="M20.8936 6.36167L17.6042 7.66088L17.6017 5.06055L20.8936 6.36167Z" fill="#7A0C00"/>
<path d="M17.6048 7.66086L17.2485 7.80083L13.9617 6.50162L17.6029 5.06116L17.6048 7.66086Z" fill="#AD2115"/>
</g>
<defs>
<clipPath id="clip0">
<rect width="24" height="24" fill="white"/>
</clipPath>
</defs>
</svg>
