<svg width="24" height="24" viewBox="0 0 24 24" fill="none" xmlns="http://www.w3.org/2000/svg">
<g clip-path="url(#clip0)">
<path d="M3.69753 5.73668L8.57553 8.66168C8.84565 8.82403 9.16279 8.89012 9.47528 8.8492C9.78777 8.80827 10.0772 8.66274 10.2964 8.43631C10.4429 8.29511 10.5592 8.12567 10.6383 7.93823C10.7174 7.75079 10.7576 7.54925 10.7565 7.34581V1.48343C10.7663 1.22666 10.7066 0.972008 10.5838 0.746302C10.461 0.520597 10.2796 0.332191 10.0587 0.20093C9.8378 0.0696735 9.58563 0.000397654 9.32872 0.000397654C9.0718 0.000397654 8.81964 0.0696735 8.59878 0.20093C8.37788 0.332191 8.19646 0.520597 8.07364 0.746302C7.95083 0.972008 7.89115 1.22666 7.9009 1.48343V4.81943L5.13078 3.15818C4.96743 3.06122 4.7863 2.99799 4.59809 2.97222C4.40989 2.94646 4.21843 2.95869 4.03503 3.00818C3.66528 3.10756 3.35328 3.36068 3.17253 3.69968C2.77615 4.41218 3.00753 5.30468 3.69753 5.73293V5.73668ZM15.4238 8.65793L20.3018 5.73293C20.9918 5.30431 21.2235 4.40806 20.8268 3.69893C20.7371 3.53161 20.6144 3.38419 20.4662 3.26556C20.3179 3.14692 20.1472 3.05953 19.9643 3.00865C19.7814 2.95777 19.5901 2.94446 19.4019 2.96951C19.2137 2.99457 19.0325 3.05747 18.8693 3.15443L16.1318 4.79318V1.47818C16.1387 1.28632 16.1069 1.09503 16.0383 0.915735C15.9697 0.736436 15.8657 0.572806 15.7324 0.434617C15.5991 0.296428 15.4394 0.186516 15.2627 0.111444C15.086 0.036372 14.8959 -0.00231934 14.704 -0.00231934C14.512 -0.00231934 14.322 0.036372 14.1453 0.111444C13.9686 0.186516 13.8088 0.296428 13.6756 0.434617C13.5423 0.572806 13.4382 0.736436 13.3696 0.915735C13.301 1.09503 13.2692 1.28632 13.2762 1.47818V7.22431C13.2468 7.5321 13.3114 7.84157 13.4614 8.11193C13.6422 8.45055 13.9542 8.70068 14.3239 8.80343C14.5071 8.85467 14.6989 8.86779 14.8873 8.84199C15.0758 8.81619 15.257 8.75202 15.4197 8.65343L15.4238 8.65793ZM11.082 11.9887C11.0869 11.8949 11.1225 11.8012 11.184 11.7337L11.754 11.1412C11.8215 11.0784 11.9088 11.041 12.0008 11.0354H12.0222C12.114 11.0409 12.201 11.0783 12.2682 11.1412L12.8382 11.7337C12.8998 11.8049 12.9358 11.8949 12.9402 11.9891V12.0116C12.9357 12.1059 12.8998 12.1961 12.8382 12.2677L12.2682 12.8602C12.2013 12.9236 12.1142 12.9614 12.0222 12.9667H12.0008C11.9085 12.9614 11.8208 12.9236 11.754 12.8602L11.184 12.2677C11.1224 12.1961 11.0865 12.1059 11.082 12.0116V11.9887ZM9.35553 11.7449V12.2564C9.36187 12.385 9.41096 12.5077 9.49503 12.6052L11.43 14.6141C11.5213 14.7004 11.6402 14.7517 11.7657 14.7588H12.2577C12.3831 14.7517 12.502 14.7004 12.5933 14.6141L14.5283 12.6052C14.6123 12.5077 14.6614 12.385 14.6678 12.2564V11.7449C14.6614 11.6164 14.6123 11.4936 14.5283 11.3962L12.5933 9.38731C12.502 9.30097 12.3831 9.2497 12.2577 9.24255H11.7657C11.6402 9.2497 11.5213 9.30097 11.43 9.38731L9.49503 11.3999C9.41121 11.4975 9.36215 11.6202 9.35553 11.7487V11.7449ZM1.17378 10.3574L3.93565 12.0138L1.17378 13.6687C0.841834 13.8755 0.602187 14.202 0.504513 14.5807C0.40684 14.9594 0.458632 15.3611 0.649153 15.7027C0.738746 15.8702 0.861364 16.0179 1.0096 16.1367C1.15784 16.2556 1.32863 16.3432 1.51165 16.3942C1.8814 16.4969 2.2774 16.4441 2.6074 16.2472L7.4854 13.3222C7.9354 13.0364 8.1979 12.5429 8.1979 12.0127C8.19787 11.7523 8.13265 11.496 8.0082 11.2673C7.88375 11.0386 7.70402 10.8446 7.4854 10.7032L2.6074 7.77818C2.44405 7.68122 2.26292 7.61799 2.07472 7.59222C1.88651 7.56646 1.69505 7.57869 1.51165 7.62818C1.1419 7.72755 0.829903 7.98068 0.649153 8.31968C0.252778 9.03218 0.484153 9.92393 1.17415 10.3529L1.17378 10.3574ZM15.7973 12.0187C15.793 12.2795 15.8568 12.537 15.9824 12.7657C16.108 12.9943 16.2911 13.1863 16.5135 13.3226L21.3885 16.2476C21.7185 16.4441 22.1138 16.4973 22.4835 16.3946C22.8533 16.2918 23.1649 16.0421 23.346 15.7034C23.5375 15.3621 23.5897 14.96 23.4919 14.581C23.3941 14.2021 23.1538 13.8755 22.821 13.6694L20.0625 12.0142L22.8244 10.3578C23.5144 9.92918 23.7458 9.03405 23.3494 8.32455C23.26 8.15687 23.1374 8.00911 22.9892 7.89024C22.8409 7.77137 22.67 7.68387 22.4869 7.63305C22.1168 7.5303 21.7212 7.5828 21.3919 7.78305L16.5169 10.7081C16.2928 10.8453 16.1086 11.039 15.9829 11.2698C15.8572 11.5007 15.7944 11.7604 15.8007 12.0232L15.7973 12.0187ZM9.55503 15.1904C9.21836 15.1255 8.86957 15.1874 8.5759 15.3644L3.6979 18.2894C3.0079 18.7181 2.7769 19.6132 3.1729 20.3227C3.35403 20.6613 3.66565 20.9114 4.0354 21.0138C4.2185 21.0646 4.41 21.0778 4.59833 21.0525C4.78666 21.0272 4.96792 20.9641 5.13115 20.8668L7.90128 19.2056V22.5168C7.89364 22.7091 7.92492 22.9009 7.99322 23.0807C8.06153 23.2606 8.16546 23.4248 8.29878 23.5635C8.4321 23.7022 8.59206 23.8126 8.76907 23.888C8.94609 23.9634 9.13651 24.0022 9.3289 24.0022C9.5213 24.0022 9.71172 23.9634 9.88873 23.888C10.0657 23.8126 10.2257 23.7022 10.359 23.5635C10.4923 23.4248 10.5963 23.2606 10.6646 23.0807C10.7329 22.9009 10.7642 22.7091 10.7565 22.5168V16.6499C10.7616 16.3033 10.6436 15.966 10.4236 15.698C10.2036 15.4301 9.89569 15.2488 9.55465 15.1863L9.55503 15.1904ZM20.3022 18.2898L15.4242 15.3648C15.2609 15.2675 15.0797 15.2044 14.8913 15.1791C14.703 15.1538 14.5115 15.167 14.3284 15.2178C14.1453 15.2686 13.9745 15.356 13.8262 15.4748C13.6779 15.5936 13.5554 15.7413 13.4659 15.9089C13.3159 16.1797 13.2513 16.4895 13.2807 16.7977V22.5164C13.273 22.7087 13.3043 22.9005 13.3726 23.0804C13.4409 23.2602 13.5448 23.4244 13.6782 23.5632C13.8115 23.7019 13.9714 23.8122 14.1485 23.8876C14.3255 23.963 14.5159 24.0019 14.7083 24.0019C14.9007 24.0019 15.0911 23.963 15.2681 23.8876C15.4451 23.8122 15.6051 23.7019 15.7384 23.5632C15.8717 23.4244 15.9757 23.2602 16.044 23.0804C16.1123 22.9005 16.1435 22.7087 16.1359 22.5164V19.2299L18.8685 20.8687C19.0319 20.9656 19.213 21.0289 19.4012 21.0546C19.5894 21.0804 19.7809 21.0682 19.9643 21.0187C20.334 20.9193 20.646 20.6662 20.8268 20.3272C21.2232 19.6147 20.9918 18.7222 20.3018 18.2939" fill="#29B5E8"/>
</g>
<defs>
<clipPath id="clip0">
<rect width="24" height="24" fill="white"/>
</clipPath>
</defs>
</svg>
