<svg width="246" height="161" viewBox="0 0 246 161" fill="none" xmlns="http://www.w3.org/2000/svg">
<path d="M142.295 68.1522C145.904 69.803 148.11 72.0421 148.885 74.4081C149.787 77.1685 148.738 80.0625 145.476 82.3817C143.324 83.9123 140.524 84.9951 137.443 85.5699C134.675 86.0845 131.681 86.265 128.76 85.9776C125.84 85.6902 122.946 84.8146 120.406 83.6583C116.797 82.0075 114.464 79.8553 113.689 77.4893C112.786 74.7289 113.903 71.7413 117.158 69.4221C119.31 67.8915 122.157 66.8823 125.231 66.3075C127.998 65.7928 130.986 65.6658 133.907 65.9532C136.828 66.2406 139.755 66.9892 142.288 68.1455L142.295 68.1522Z" fill="#EDEBFC"/>
<path d="M142.342 40.4484C145.951 42.0993 148.237 44.3984 149.012 46.7711C149.914 49.5315 148.705 52.4322 145.45 54.7515C143.297 56.282 140.524 57.4183 137.449 57.9931C134.682 58.5077 131.701 58.5278 128.78 58.2337C125.86 57.9396 122.899 57.3314 120.366 56.1751C116.757 54.5242 114.471 52.2651 113.695 49.8991C112.793 47.1388 113.983 44.2648 117.244 41.9455C119.397 40.415 122.17 39.3322 125.251 38.7574C128.019 38.2428 130.999 38.0623 133.92 38.3564C136.841 38.6505 139.815 39.2988 142.348 40.4551L142.342 40.4484Z" fill="#EF5023"/>
<path d="M113.428 42.3265C113.428 45 113.502 45 113.502 47.6735C113.502 47.9141 113.642 48.1012 113.883 48.1012C118.247 48.1814 118.247 48.1547 122.605 48.2282C126.962 48.3017 126.962 48.2884 131.327 48.3686C135.691 48.4488 135.691 48.5825 140.049 48.6627C144.407 48.7429 144.414 48.656 148.778 48.7362C149.025 48.7362 149.212 48.5557 149.212 48.3017C149.212 45.6684 149.319 45.6684 149.319 43.035C149.319 42.7944 149.039 42.507 148.798 42.5003C144.434 42.4134 144.434 42.5872 140.069 42.5003C135.705 42.4134 135.711 42.4067 131.347 42.3132C126.983 42.2196 126.989 42.0859 122.625 41.9923C118.26 41.9055 118.26 41.979 113.896 41.8921C113.649 41.8921 113.421 42.0659 113.421 42.3198L113.428 42.3265Z" fill="#EF5023"/>
<path d="M142.295 34.4464C145.904 36.0973 148.203 38.3096 148.979 40.6756C149.881 43.436 148.771 46.4236 145.516 48.7428C143.364 50.2734 140.517 51.2826 137.442 51.8574C134.675 52.3721 131.688 52.5191 128.767 52.225C125.846 51.9309 122.926 51.1556 120.392 49.9993C116.783 48.3485 114.497 46.1495 113.722 43.7835C112.82 41.0232 113.963 38.1224 117.224 35.8032C119.376 34.2726 122.15 33.0963 125.225 32.5215C127.992 32.0069 130.993 31.9601 133.913 32.2542C136.834 32.5482 139.762 33.2901 142.302 34.4464H142.295Z" fill="#F79E84"/>
<path d="M136.627 38.4433C134.816 37.6145 132.604 37.3071 130.485 37.394C128.219 37.4808 126.027 38.0356 124.523 39.105C121.616 41.1769 122.324 44.2648 126.074 45.9758C127.885 46.8046 130.077 47.1722 132.189 47.092C134.455 47.0051 136.62 46.4102 138.131 45.3409C141.038 43.2689 140.377 40.161 136.627 38.45V38.4433ZM135.103 43.9306C133.479 45.0869 130.492 45.2941 128.4 44.3383C126.308 43.3825 125.953 41.6916 127.577 40.5353C129.202 39.379 132.189 39.1785 134.281 40.1343C136.373 41.09 136.721 42.7743 135.103 43.9306Z" fill="white"/>
<path d="M64.8241 115.446C62.2375 112.505 61.2884 113.768 57.7995 111.991C54.3106 110.213 54.3708 110.092 50.8819 108.315C47.393 106.537 47.3262 106.664 43.8306 104.886C40.335 103.108 40.3952 103.001 36.9197 101.183C36.9197 101.089 36.8595 101.036 36.8595 100.942C36.8662 100.809 36.8729 100.675 36.8595 100.541C36.8662 100.408 37.0199 100.274 37.0132 100.14C37.0199 100.007 36.913 99.873 36.9063 99.7394C36.913 99.6057 36.8127 99.472 36.806 99.3383C36.8127 99.2047 36.913 99.071 36.9063 98.9373C37.04 96.9255 35.5428 94.8536 32.5753 93.3431C30.7038 92.394 28.525 91.6721 26.2926 91.4516C24.0603 91.231 21.8212 91.5117 19.8027 92.013C18.9673 94.0449 18.3056 94.7199 19.8161 96.3173C22.904 99.5789 24.1405 97.7877 27.7764 100.428C26.1255 100.976 23.833 100.936 22.2089 100.107C18.0316 97.9815 18.2053 97.6006 13.8743 95.8027C13.5401 96.451 13.2862 97.1394 13.3263 97.8211C13.3263 97.9548 13.4933 98.0818 13.5 98.2155C13.5 98.3491 13.4532 98.4828 13.4599 98.6165C13.4599 98.7502 13.373 98.8838 13.3797 99.0175C13.3797 99.1512 13.4466 99.2849 13.4532 99.4185C13.4532 99.5522 13.3864 99.6859 13.3931 99.8196C13.3931 99.9532 13.5334 100.087 13.5401 100.221C13.5401 100.354 13.3664 100.488 13.373 100.622C13.373 100.755 13.4265 100.889 13.4399 101.023C13.4399 101.156 13.3864 101.29 13.3931 101.424C13.3931 101.557 13.4466 101.691 13.4532 101.825C13.353 103.816 14.8301 105.822 17.7709 107.319C19.7359 108.315 22.0351 108.856 24.3878 109.05C26.7404 109.244 29.18 109.05 31.2586 108.435C35.0683 109.685 34.7742 110.407 38.3433 112.224C41.9124 114.042 41.9592 113.962 45.5283 115.78C49.0973 117.598 49.0372 117.732 52.613 119.55C56.1887 121.368 55.8078 123.032 59.818 123.159C62.7989 123.253 62.6385 121.856 64.8241 119.824C66.5217 118.24 66.2544 117.084 64.804 115.433L64.8241 115.446Z" fill="#ABBBC1"/>
<path d="M187.356 100.855C183.987 99.111 184.135 98.8236 180.759 97.0792C177.384 95.3348 177.183 95.7291 173.815 93.9847C170.446 92.2402 170.593 91.9461 167.225 90.2017C163.856 88.4572 163.669 88.8115 160.294 87.067C156.925 85.3226 157.059 85.0553 153.684 83.3108C150.308 81.5664 150.275 81.6332 146.9 79.8821C143.524 78.131 143.484 78.2178 140.109 76.4734C137.703 75.2235 135.17 74.1274 132.53 73.8935C129.175 73.5994 125.813 74.5685 122.645 75.9387C119.196 77.4292 119.169 77.369 115.72 78.8595C112.272 80.3499 112.191 80.1695 108.743 81.6599C105.287 83.1504 105.334 83.244 101.878 84.7344C98.4229 86.2249 98.3561 86.0645 94.9006 87.5483C91.4452 89.032 91.4919 89.139 88.0365 90.6228C84.581 92.1065 84.5142 91.9595 81.0587 93.45C77.6032 94.9404 77.777 95.3348 74.3215 96.8252C70.4517 98.4895 70.1376 103.736 73.8804 105.674C77.249 107.419 77.3292 107.272 80.6978 109.016C84.0664 110.761 83.9394 111.008 87.3146 112.752C90.6899 114.497 90.8236 114.236 94.1921 115.981C97.5607 117.725 97.5407 117.772 100.916 119.523C104.291 121.274 104.211 121.415 107.586 123.159C110.962 124.903 111.068 124.703 114.444 126.447C117.819 128.192 117.632 128.546 121.007 130.297C124.549 132.135 128.647 132.797 132.53 132.429C134.642 132.229 136.807 131.761 138.799 130.899C142.248 129.408 142.208 129.321 145.663 127.831C149.112 126.34 149.025 126.14 152.481 124.656C155.936 123.172 155.883 123.052 159.338 121.562C162.794 120.071 162.88 120.272 166.329 118.781C169.778 117.291 169.718 117.137 173.167 115.653C176.622 114.163 176.722 114.397 180.178 112.906C183.633 111.416 183.647 111.449 187.102 109.959C190.972 108.294 191.106 102.794 187.363 100.862L187.356 100.855Z" fill="#ABBBC1"/>
<path d="M147.428 80.1094C145.202 76.694 143.799 78.2179 140.183 76.3398C137.777 75.0899 135.157 74.348 132.523 74.1208C129.168 73.8267 125.733 74.348 122.565 75.7115C118.601 77.4158 117.191 75.6781 114.685 79.187C112.452 82.315 114.664 83.0168 114.664 86.8599C114.664 90.703 114.678 90.7097 114.678 94.5528C114.678 98.3959 111.904 99.5656 114.705 102.206C117.685 105.006 118.755 102.186 122.845 102.186C126.936 102.186 126.936 102.326 131.026 102.326C135.117 102.326 135.117 102.246 139.214 102.246C143.311 102.246 144.36 104.993 147.408 102.246C150.148 99.7794 147.394 98.5563 147.394 94.8669C147.394 91.1775 146.846 91.1374 147.481 87.5015C148.116 83.8656 149.446 83.1838 147.435 80.0893L147.428 80.1094Z" fill="#AAA3CC"/>
<path d="M138.659 130.571C142.228 129.034 142.181 128.934 145.75 127.396C149.319 125.859 149.506 126.287 153.069 124.75C156.638 123.212 156.471 122.831 160.04 121.294C163.609 119.757 163.649 119.857 167.218 118.32C170.787 116.783 170.72 116.629 174.29 115.085C177.859 113.541 181.354 116.101 181.642 112.224C181.929 108.348 178.086 110.694 174.757 108.97C171.429 107.245 171.583 106.944 168.254 105.22C164.926 103.496 164.972 103.402 161.637 101.678C158.309 99.9532 158.235 100.087 154.907 98.3625C151.578 96.6381 151.492 96.7918 148.163 95.0674C144.835 93.343 144.921 93.1626 141.586 91.4382C138.853 90.0213 135.832 89.1925 132.831 89.0855C129.83 88.9786 126.755 89.5935 123.928 90.8166C120.359 92.3539 120.432 92.5209 116.863 94.0582C113.294 95.5954 113.274 95.542 109.705 97.0792C106.136 98.6165 106.143 98.6298 102.574 100.167C99.0045 101.704 98.9845 101.651 95.4154 103.188C91.8463 104.725 91.7594 104.525 88.1903 106.062C84.6212 107.599 81.6269 105.494 81.3462 109.371C81.0655 113.247 84.4809 111.075 87.8093 112.799C91.1378 114.524 91.1378 114.524 94.473 116.248C97.8081 117.972 97.6945 118.186 101.03 119.911C104.365 121.635 104.438 121.488 107.767 123.212C111.095 124.937 111.115 124.91 114.451 126.634C117.786 128.359 117.812 128.305 121.148 130.03C123.881 131.447 126.842 132.463 129.843 132.57C132.844 132.677 135.838 131.794 138.666 130.578L138.659 130.571Z" fill="#EAF0F3"/>
<path d="M186.942 109.591C183.493 111.081 183.687 111.536 180.238 113.026C176.789 114.517 176.589 114.049 173.133 115.54C169.678 117.03 169.698 117.077 166.249 118.561C162.794 120.051 162.934 120.372 159.479 121.856C156.023 123.346 155.996 123.273 152.541 124.763C149.086 126.253 149.059 126.187 145.603 127.677C142.148 129.168 142.175 129.228 138.719 130.718C135.892 131.935 132.851 132.182 129.85 132.075C126.849 131.968 123.855 131.473 121.114 130.056C117.746 128.312 117.766 128.265 114.397 126.521C111.029 124.776 111.095 124.643 107.72 122.898C104.352 121.154 104.345 121.167 100.97 119.423C97.5944 117.678 97.6412 117.585 94.2726 115.84C90.904 114.096 90.7436 114.397 87.375 112.652C83.9998 110.908 84.1268 110.667 80.7515 108.923C77.3762 107.178 77.2025 107.512 73.8272 105.768C70.0843 103.83 70.3383 98.202 74.2082 96.5378C77.657 95.0473 77.7238 95.2011 81.1793 93.7106C84.628 92.2201 84.5612 92.0597 88.01 90.5693C91.4654 89.0788 91.5991 89.4063 95.0546 87.9158C98.5101 86.4254 98.4766 86.3519 101.932 84.8614C105.388 83.3709 105.361 83.3108 108.81 81.827C112.265 80.3365 112.172 80.1227 115.627 78.6322C119.082 77.1417 119.022 77.0081 122.478 75.5176C125.305 74.3012 128.44 73.7598 131.441 73.8667C134.442 73.9737 137.389 75.003 140.123 76.4199C142.368 77.5829 144.616 78.7458 146.867 79.9088C150.235 81.6532 150.248 81.6265 153.624 83.3709C156.992 85.1154 157.079 84.9483 160.454 86.6927C163.83 88.4372 163.736 88.6109 167.111 90.3554C170.48 92.0998 170.38 92.3003 173.755 94.0448C177.13 95.7892 177.291 95.4818 180.666 97.2262C184.041 98.9707 183.988 99.0776 187.363 100.822C191.106 102.76 190.812 107.907 186.942 109.571V109.591Z" stroke="#5522E2" stroke-width="1.33328" stroke-miterlimit="10" stroke-linecap="round" stroke-dasharray="12 12"/>
<path d="M32.5887 93.3363C30.7173 92.3872 28.5117 91.8659 26.2793 91.6454C24.047 91.4248 21.7411 91.5317 19.7226 92.033C23.4722 94.8468 23.9133 94.1517 28.0906 96.2771C30.0823 97.2864 30.3564 98.8838 28.7389 99.9398C27.1215 100.996 24.174 101.176 22.1889 100.167C18.0116 98.0416 18.4728 96.7383 13.8677 95.8628C12.6312 98.2889 13.9947 101.103 17.7443 103.008C19.7093 104.003 22.0486 104.532 24.3945 104.725C26.7405 104.919 29.1934 104.652 31.272 104.037C35.0817 105.287 34.8144 105.948 38.3902 107.766C41.9659 109.584 41.9593 109.591 45.535 111.409C49.1108 113.227 49.0707 113.307 52.6465 115.125C56.2222 116.943 55.8346 118.554 59.8381 118.681C62.819 118.774 65.673 118.287 64.784 115.446C63.5877 111.616 61.2283 113.675 57.6525 111.857C54.0768 110.039 54.0901 110.012 50.5211 108.194C46.952 106.376 46.9052 106.45 43.3294 104.632C39.7536 102.814 38.9182 103.87 36.2246 100.896C37.8287 98.3892 36.5321 95.3481 32.582 93.3363H32.5887Z" fill="#EAF0F3"/>
<path d="M13.4799 101.831C13.3797 103.823 14.8233 105.895 17.7642 107.392C19.7292 108.388 22.0484 109.01 24.4011 109.203C26.7537 109.397 29.1866 109.123 31.2585 108.508C35.0682 109.758 34.7741 110.453 38.3499 112.271C41.9257 114.089 41.9992 113.935 45.575 115.753C49.1508 117.571 49.0706 117.732 52.6463 119.55C56.2221 121.368 55.8344 123.019 59.8447 123.146C62.8256 123.239 62.2775 121.361 64.7772 119.737" stroke="#80949C" stroke-width="1.33332" stroke-miterlimit="10"/>
<path d="M41.6386 85.7839C42.728 88.2101 42.6077 88.9252 45.1141 89.8141C48.9438 91.1776 49.3582 91.0974 53.2415 89.9144C56.1823 89.0188 56.316 88.5376 57.9267 85.9242C58.8758 84.387 58.6887 83.9392 57.9267 82.3017C56.844 79.9891 56.9041 79.3208 54.4779 78.512C50.6215 77.2288 50.2472 77.3424 46.3372 78.4452C43.4699 79.2539 43.7373 80.0159 41.672 82.168C40.3887 83.5047 40.89 84.133 41.6319 85.7839H41.6386Z" fill="#ABBBC1"/>
<path d="M46.3506 78.1845C43.4097 79.0801 42.1599 79.1202 41.692 82.1613C41.291 84.788 42.6144 85.2893 45.1208 86.1782C48.9505 87.5417 49.3449 87.4548 53.2348 86.2651C56.1756 85.3695 57.4254 85.3294 57.8933 82.295C58.2943 79.6683 56.6635 79.7618 54.4712 78.2513C51.0893 75.9187 50.2338 77.0015 46.3506 78.1845ZM53.2214 82.2615C53.0276 83.5381 52.4862 83.5849 51.2497 83.9592C49.6189 84.4605 49.4251 84.5073 47.8143 83.9325C46.7583 83.5582 46.1902 83.3042 46.3639 82.1947C46.5578 80.9181 47.0991 80.8713 48.3356 80.497C49.9664 79.9958 50.0667 80.3366 51.7577 80.5505C52.9607 80.6976 53.3885 81.152 53.2147 82.2615H53.2214Z" fill="#EAF0F3"/>
<path d="M41.6787 85.7571C43.4031 87.7822 42.6011 88.9452 45.1074 89.8408C48.9372 91.2043 49.3516 91.0572 53.2348 89.8742C56.1756 88.9786 55.5607 87.8825 57.9 85.8908" stroke="#80949C" stroke-width="1.33332" stroke-miterlimit="10"/>
<path d="M42.9951 125.525C45.2475 126.935 45.5215 127.604 48.1014 126.949C52.0448 125.953 52.3589 125.692 54.9321 122.544C56.8771 120.165 56.6966 119.683 56.583 116.616C56.5162 114.811 56.1152 114.557 54.5645 113.621C52.379 112.298 52.0648 111.696 49.6052 112.371C45.6886 113.454 45.4279 113.742 42.7946 116.829C40.863 119.102 41.4712 119.576 40.9565 122.517C40.6357 124.335 41.4578 124.562 42.9884 125.525H42.9951Z" fill="#ABBBC1"/>
<path d="M42.6475 116.596C40.7025 118.975 39.7067 119.73 41.0033 122.511C42.1262 124.923 43.5297 124.649 46.1096 124.001C50.053 123.005 50.3538 122.684 52.927 119.536C54.872 117.157 55.8745 116.395 54.5712 113.608C53.4483 111.195 52.1183 112.211 49.4582 112.164C45.341 112.097 45.214 113.448 42.6475 116.596ZM50.6211 116.201C51.1692 117.371 50.7682 117.692 49.9528 118.688C48.87 120.011 48.7296 120.104 47.0721 120.519C45.9893 120.793 45.4279 120.933 44.96 119.917C44.412 118.748 44.813 118.44 45.6284 117.444C46.7112 116.121 46.9585 116.335 48.489 115.566C49.5584 115.032 50.1533 115.185 50.6278 116.201H50.6211Z" fill="#EAF0F3"/>
<path d="M43.0017 125.498C45.5616 126.227 45.5281 127.61 48.108 126.962C52.0514 125.966 52.3321 125.665 54.8987 122.517C56.8436 120.138 55.7676 119.577 56.6097 116.622" stroke="#80949C" stroke-width="1.33332" stroke-miterlimit="10"/>
<path d="M144.775 97.0859C145.891 96.2905 146.713 95.4952 147.328 94.5929C144.708 92.6212 144.447 93.0556 141.54 91.5518C138.806 90.1349 135.832 89.4197 132.831 89.3128C129.83 89.2058 126.822 89.7405 123.995 90.957C119.336 92.9621 118.929 92.1801 114.691 94.9605C115.854 96.2839 117.505 97.4468 119.684 98.4427C122.217 99.599 125.118 100.287 128.079 100.581C130.999 100.869 133.974 100.749 136.741 100.234C139.815 99.6591 142.629 98.6232 144.781 97.0926L144.775 97.0859Z" fill="#CEC5F2"/>
<path d="M212.567 54.3438L212.54 54.3304C210.401 52.205 211.157 50.8883 208.236 50.1464C205.021 49.331 205.074 51.1556 201.799 51.6703C200.937 51.296 200.048 50.9083 199.046 50.6677C198.197 48.8164 199.955 47.4863 198.077 46.6976C194.133 45.0468 193.445 45.0468 189.501 46.6976C187.623 47.4863 189.415 48.8297 188.566 50.6811C187.563 50.9284 186.634 51.296 185.779 51.6703C182.504 51.1556 182.53 49.2107 179.315 50.0261C176.395 50.768 177.224 52.2451 175.085 54.3705L175.132 54.3438C175.132 58.0733 175.098 58.0733 175.098 61.7961C175.098 65.5256 175.058 65.5256 175.058 69.2484L175.031 69.2751C177.17 71.4005 176.415 72.7506 179.336 73.4925C182.55 74.3079 182.517 72.51 185.792 71.9954C186.654 72.3697 187.67 72.6236 188.673 72.8709C189.521 74.7223 187.63 76.1058 189.508 76.8878C193.451 78.5387 194.133 78.5588 198.077 76.9079C199.955 76.1192 198.163 74.7691 199.012 72.9177C200.015 72.6704 200.931 72.3496 201.786 71.982C205.061 72.4967 205.021 74.3079 208.236 73.4925C211.157 72.7506 210.334 71.3337 212.467 69.2083L212.426 69.2551C212.426 65.5256 212.587 65.5256 212.6 61.8028C212.614 58.0799 212.553 58.0733 212.553 54.3504L212.567 54.3438Z" fill="#ABBBC1"/>
<path d="M207.18 57.7123C207.18 57.3982 207.033 57.0573 206.973 56.7499C209.673 55.3931 211.979 57.318 212.54 54.3437C213.102 51.3695 211.163 50.8682 208.242 50.1263C205.028 49.3109 205.088 51.1757 201.813 51.6903C200.951 51.316 200.055 50.9083 199.046 50.661C198.197 48.8097 199.941 47.5331 198.063 46.7444C194.12 45.0935 193.492 45.1203 189.548 46.7711C187.67 47.5598 189.428 48.823 188.579 50.6744C187.577 50.9217 186.647 51.3094 185.785 51.6836C182.51 51.169 182.55 49.2641 179.342 50.0796C176.421 50.8214 174.463 51.3896 175.018 54.3504C175.573 57.3113 177.912 55.3998 180.612 56.7566C180.545 57.064 180.572 57.3982 180.572 57.7123C180.572 58.0265 180.499 58.2537 180.559 58.5612C177.858 59.9179 175.546 58.1 174.984 61.0675C174.423 64.0351 176.415 64.6099 179.336 65.3518C182.55 66.1672 182.51 64.2623 185.785 63.741C186.647 64.1153 187.523 64.523 188.526 64.7703C189.374 66.6217 187.643 67.9183 189.521 68.7003C193.465 70.3512 194.106 70.2977 198.05 68.6468C199.928 67.8582 198.184 66.6016 199.026 64.7502C200.028 64.503 200.944 64.1353 201.806 63.7611C205.081 64.2757 205.034 66.1405 208.249 65.325C211.17 64.5832 213.148 64.0284 212.594 61.0675C212.039 58.1067 209.7 59.9981 206.993 58.6347C207.059 58.3272 207.186 58.0198 207.186 57.7056L207.18 57.7123ZM193.792 60.9673C190.571 60.9673 187.917 59.557 187.917 57.7123C187.917 55.8676 190.571 54.3839 193.792 54.3839C197.014 54.3839 199.661 55.8676 199.661 57.7123C199.661 59.557 197.014 60.9673 193.792 60.9673Z" fill="#EAF0F3"/>
<path d="M175.118 69.1949C177.257 71.3203 176.421 72.7239 179.342 73.4658C182.557 74.2812 182.51 72.4566 185.785 71.9419C186.648 72.3162 187.59 72.6571 188.592 72.8977C189.441 74.7491 187.63 76.0858 189.508 76.8745C193.452 78.5253 194.147 78.5922 198.09 76.9413C199.968 76.1526 198.09 74.729 198.932 72.8776C199.935 72.6303 200.911 72.4298 201.773 72.0622C205.048 72.5769 205.028 74.328 208.243 73.5126C211.163 72.7707 210.314 71.3136 212.453 69.1882" stroke="#80949C" stroke-width="1.33332" stroke-linecap="round" stroke-linejoin="round"/>
<path d="M179.329 73.4992C179.329 71.9664 179.329 70.4358 179.329 68.9075" stroke="#80949C" stroke-width="1.33332" stroke-linecap="round" stroke-linejoin="round"/>
<path d="M185.799 71.9686C185.799 70.2932 185.799 68.6156 185.799 66.9358" stroke="#80949C" stroke-width="1.33332" stroke-linecap="round" stroke-linejoin="round"/>
<path d="M188.599 72.9043C188.599 71.5943 188.599 71.5943 188.599 70.2843" stroke="#80949C" stroke-width="1.33332" stroke-linecap="round" stroke-linejoin="round"/>
<path d="M198.999 72.9044C198.999 71.9219 198.992 71.9219 198.992 70.946" stroke="#80949C" stroke-width="1.33332" stroke-linecap="round" stroke-linejoin="round"/>
<path d="M201.779 71.9686C201.779 69.1348 201.799 69.1348 201.799 66.2942" stroke="#80949C" stroke-width="1.33332" stroke-linecap="round" stroke-linejoin="round"/>
<path d="M208.242 73.4992C208.242 72.1535 208.242 70.8057 208.242 69.4556" stroke="#80949C" stroke-width="1.33332" stroke-linecap="round" stroke-linejoin="round"/>
<path d="M105.996 144.039L106.022 144.019C104.612 142.615 105.12 141.673 103.189 141.185C101.07 140.643 101.076 141.9 98.9177 142.248C98.3496 142 97.7146 141.8 97.0529 141.639C96.4915 140.416 97.6879 139.554 96.4514 139.033C93.8448 137.943 93.4036 137.89 90.8037 138.979C89.5605 139.501 90.7769 140.41 90.2155 141.633C89.5538 141.793 88.9189 142.02 88.3508 142.268C86.1852 141.927 86.212 140.697 84.0933 141.232C82.1617 141.72 82.6696 142.622 81.2594 144.025L81.3262 144.039C81.3262 148.958 81.2126 148.958 81.2126 153.884H81.2661C82.6763 155.294 82.1684 156.203 84.0933 156.691C86.212 157.232 86.1986 156.056 88.3574 155.715C88.9256 155.962 89.5672 156.123 90.2289 156.283C90.7903 157.506 89.5872 158.349 90.8304 158.87C93.437 159.959 93.8314 159.959 96.438 158.87C97.6812 158.349 96.4714 157.506 97.0262 156.283C97.6879 156.123 98.3562 155.902 98.9244 155.655C101.09 155.996 101.05 157.212 103.175 156.671C105.107 156.183 104.585 155.281 105.996 153.877H106.063C106.056 148.965 106.002 148.965 106.002 144.045L105.996 144.039Z" fill="#ABBBC1"/>
<path d="M102.427 146.264C102.427 146.057 102.413 145.897 102.366 145.69C104.151 144.794 105.635 145.997 106.002 144.039C106.37 142.08 105.093 141.78 103.162 141.292C101.043 140.75 101.07 141.846 98.9043 142.187C98.3362 141.94 97.7012 141.8 97.0396 141.639C96.4781 140.416 97.6812 139.561 96.4447 139.039C93.8381 137.95 93.4371 137.963 90.8304 139.053C89.5872 139.574 90.7903 140.416 90.2289 141.639C89.5672 141.8 88.9189 142 88.3508 142.247C86.1853 141.907 86.2187 140.717 84.0999 141.258C82.1684 141.746 80.9185 142.08 81.2861 144.039C81.6537 145.997 83.1308 144.781 84.9087 145.676C84.8686 145.877 84.8151 146.057 84.8151 146.264C84.8151 146.472 84.8819 146.692 84.922 146.893C83.1375 147.788 81.6403 146.532 81.2727 148.497C80.9051 150.462 82.1483 150.843 84.0732 151.331C86.1919 151.872 86.1786 150.609 88.3374 150.268C88.9055 150.515 89.507 150.756 90.1754 150.916C90.7368 152.139 89.5471 153.042 90.7903 153.563C93.397 154.652 93.8581 154.646 96.4648 153.556C97.7079 153.035 96.5182 152.139 97.0797 150.916C97.7413 150.756 98.3429 150.542 98.911 150.295C101.077 150.636 101.063 151.885 103.182 151.344C105.113 150.856 106.37 150.448 106.002 148.49C105.635 146.532 104.131 147.762 102.346 146.866C102.387 146.665 102.42 146.472 102.42 146.264H102.427ZM93.6309 148.463C91.5055 148.463 89.8279 147.487 89.8279 146.264C89.8279 145.041 91.5055 144.059 93.6309 144.059C95.7563 144.059 97.5408 145.048 97.5408 146.264C97.5408 147.481 95.7563 148.463 93.6309 148.463Z" fill="#EAF0F3"/>
<path d="M81.3062 153.844C82.7164 155.247 82.175 156.15 84.0999 156.638C86.2187 157.179 86.1852 156.016 88.3508 155.675C88.9189 155.922 89.487 156.15 90.1487 156.317C90.7101 157.54 89.5806 158.369 90.817 158.89C93.4237 159.979 93.8648 160.04 96.4714 158.95C97.7146 158.429 96.5516 157.54 97.1131 156.317C97.7748 156.156 98.3362 155.983 98.9043 155.742C101.07 156.083 101.043 157.199 103.168 156.664C105.1 156.176 104.612 155.314 106.022 153.911" stroke="#80949C" stroke-width="1.33332" stroke-linecap="round" stroke-linejoin="round"/>
<path d="M226.837 116.923C226.155 116.803 226.342 116.094 225.66 116.201C223.388 116.569 223.562 117.144 221.329 117.712C218.816 118.353 218.656 117.698 216.223 118.587C215.728 118.768 215.835 119.222 216.149 119.643C216.617 120.278 218.195 119.897 217.573 120.385C214.251 122.952 213.87 122.364 210.154 124.315C207.677 125.616 205.197 126.917 202.715 128.219C198.999 130.17 198.03 128.94 195.243 132.082C194.24 133.211 196.426 134.007 197.896 133.652C201.98 132.683 201.639 131.727 205.348 129.776C209.058 127.824 209.004 127.704 212.721 125.752C216.437 123.801 216.243 123.346 220.2 121.949C220.942 121.689 220.835 123.032 221.536 122.664C225.253 120.713 225.119 120.439 228.227 117.618C228.614 117.264 228.655 116.97 228.254 116.629C227.685 116.141 227.545 117.043 226.83 116.916L226.837 116.923Z" fill="#ABBBC1"/>
<path d="M197.903 133.646C201.619 131.694 201.579 131.614 205.288 129.662C208.998 127.711 209.058 127.804 212.774 125.852C216.49 123.901 216.223 123.279 220.18 121.876C220.921 121.615 220.841 123.039 221.543 122.671C225.259 120.719 224.898 120.165 228.253 117.652" stroke="#80949C" stroke-width="1.33332" stroke-linecap="round" stroke-linejoin="round"/>
<path d="M221.59 121.695C225.306 119.744 226.068 120.185 228.294 116.629C229.096 115.346 227.151 114.844 225.653 115.085C220.688 115.88 220.641 116.175 216.189 118.514C215.488 118.881 218.168 118.815 217.54 119.302C214.218 121.869 213.897 121.374 210.181 123.326C206.465 125.278 206.425 125.204 202.708 127.163C198.992 129.121 198.07 127.938 195.283 131.079C194.28 132.209 196.419 132.931 197.896 132.583C201.98 131.614 201.626 130.665 205.342 128.713C209.058 126.761 209.051 126.741 212.767 124.79C216.483 122.838 216.229 122.257 220.22 120.933C221.062 120.653 220.895 122.076 221.59 121.709V121.695Z" fill="#EAF0F3"/>
<path d="M201.037 127.517C199.474 126.247 197.615 126.12 196.232 126.955C192.803 128.807 192.783 128.773 189.334 130.591C185.886 132.409 185.872 132.389 182.423 134.207C178.975 136.025 178.948 135.985 175.499 137.803C175.051 138.037 174.938 138.605 175.192 139.046C176.609 141.528 178.021 144.012 179.429 146.498C179.67 146.913 180.191 147.107 180.619 146.879C182.922 145.663 185.226 144.446 187.53 143.23C190.985 141.399 190.945 141.325 194.401 139.501C197.856 137.676 197.903 137.763 201.358 135.925C201.886 135.617 202.341 135.136 202.688 134.541C203.925 132.402 203.183 129.254 201.044 127.517H201.037Z" fill="#D5E1E6"/>
<path d="M181.154 145.884C179.917 148.022 177.177 148.363 175.038 146.619C172.899 144.874 172.171 141.713 173.407 139.581C174.644 137.449 177.391 137.135 179.529 138.872C181.668 140.61 182.39 143.751 181.154 145.884Z" fill="#ABBBC1"/>
<path d="M179.817 147.214C183.399 145.315 183.419 145.362 187.002 143.464C190.584 141.566 190.598 141.593 194.18 139.694C197.763 137.796 197.736 137.749 201.318 135.845C201.846 135.537 202.341 135.129 202.682 134.541C203.918 132.402 203.21 129.221 201.071 127.483" stroke="#80949C" stroke-width="1.33332" stroke-linecap="round" stroke-linejoin="round"/>
<path d="M179.529 138.872C181.668 140.61 182.397 143.745 181.154 145.884C179.91 148.022 177.19 148.336 175.051 146.599C172.913 144.861 172.177 141.72 173.414 139.581" stroke="#80949C" stroke-width="1.33332" stroke-linecap="round" stroke-linejoin="round"/>
</svg>
