<svg width="246" height="161" viewBox="0 0 246 161" fill="none" xmlns="http://www.w3.org/2000/svg">
<path d="M190.204 104.07C187.317 105.312 187.29 105.243 184.403 106.486C181.515 107.728 181.344 107.321 178.456 108.564C175.569 109.807 175.585 109.844 172.698 111.087C169.81 112.33 169.944 112.646 167.057 113.889C164.357 115.051 161.26 114.789 158.646 113.439C155.828 111.982 155.775 112.084 152.957 110.621C150.139 109.164 150.236 108.982 147.418 107.519C144.6 106.057 144.595 106.073 141.772 104.611C138.954 103.148 138.847 103.357 136.024 101.9C134.234 100.973 134.272 98.0644 136.12 97.2662C139.007 96.0234 139.157 96.3716 142.039 95.1234C144.922 93.8752 144.766 93.511 147.654 92.2681C150.541 91.0253 150.729 91.4539 153.616 90.2111C156.503 88.9682 156.514 88.9843 159.401 87.7415C162.101 86.579 165.187 86.3272 167.801 87.6826C169.68 88.654 171.56 89.6254 173.442 90.5968C176.26 92.0539 176.249 92.0753 179.067 93.5324C181.885 94.9948 181.692 95.3698 184.515 96.8269C187.333 98.2894 187.408 98.1448 190.226 99.6072C192.015 100.534 192.058 103.261 190.209 104.059L190.204 104.07Z" fill="#ECE6F3"/>
<path d="M209.04 81.9611C205.965 81.854 205.97 81.5861 202.895 81.479C199.82 81.3718 199.815 81.5165 196.735 81.4093C193.66 81.3022 193.649 81.5111 190.574 81.404C187.499 81.2968 187.499 81.2058 184.424 81.0986C181.349 80.9915 181.339 81.2325 178.264 81.1254C175.183 81.0183 175.199 80.6433 172.119 80.5361C169.044 80.429 169.034 80.7343 165.953 80.6272C162.873 80.5201 162.884 80.1719 159.809 80.0647C156.729 79.9576 156.712 80.4076 153.632 80.3004C153.246 80.2897 152.968 80.3433 152.968 80.729C152.968 83.386 153.038 83.386 153.038 86.0431C153.038 88.7002 152.764 88.7002 152.732 91.3572C152.652 92.2626 153.354 93.0501 154.296 93.5375C157.082 94.9786 156.927 95.2732 159.707 96.7142C162.487 98.1553 162.546 98.0481 165.327 99.4892C168.107 100.93 168.198 100.769 170.978 102.211C173.764 103.652 173.769 103.635 176.555 105.076C179.346 106.523 182.64 106.968 185.533 105.719C187.433 104.901 189.335 104.085 191.238 103.271C194.088 102.044 194.04 101.932 196.89 100.705C199.74 99.4784 199.681 99.3445 202.531 98.1124C205.381 96.8857 205.424 96.9821 208.273 95.7553C209.184 95.3643 209.875 94.4964 209.918 93.6447C209.939 90.8965 209.42 90.8965 209.425 88.1484C209.431 85.4003 209.864 85.4003 209.864 82.6521C209.864 82.2879 209.409 81.9718 209.045 81.9611H209.04Z" fill="#D5E1E6"/>
<path d="M209.045 81.7467C205.97 81.6396 205.965 81.6663 202.89 81.5592C199.815 81.4521 199.815 81.3717 196.74 81.2646C193.665 81.1574 193.649 81.4789 190.574 81.3717C187.499 81.2646 187.505 81.1092 184.424 81.0021C181.35 80.8949 181.35 80.7771 178.275 80.6699C175.2 80.5628 175.194 80.6003 172.114 80.4932C169.039 80.386 169.023 80.7503 165.948 80.6432C162.868 80.536 162.879 80.2467 159.798 80.1396C156.718 80.0325 156.707 80.4182 153.627 80.311C153.241 80.3003 152.716 80.3432 152.716 80.7235C152.716 83.3806 152.674 83.3806 152.674 86.0377C152.674 88.6947 152.915 88.6947 152.877 91.3518C152.797 92.2571 153.209 93.3124 154.147 93.7999C156.932 95.241 157.045 95.016 159.83 96.457C162.611 97.898 162.557 98.0052 165.337 99.4462C167.195 100.407 169.052 101.368 170.909 102.328C173.694 103.769 173.635 103.882 176.421 105.323C179.212 106.769 182.533 106.705 185.426 105.457C188.276 104.23 188.319 104.326 191.169 103.1C194.019 101.873 194.094 102.05 196.944 100.823C199.794 99.5962 199.81 99.6283 202.66 98.3962C205.51 97.1695 205.493 97.132 208.343 95.8999C209.254 95.5088 209.452 94.4856 209.495 93.6339C209.517 90.8857 209.634 90.8857 209.634 88.1376C209.634 85.3895 209.79 85.3895 209.79 82.6413C209.79 82.277 209.42 81.7467 209.056 81.736L209.045 81.7467Z" fill="#D5E1E6"/>
<path d="M209.045 81.8754C205.97 81.7683 205.97 81.6826 202.895 81.5755C199.82 81.4683 199.804 81.9183 196.724 81.8112C193.649 81.704 193.649 81.5755 190.574 81.4683C187.499 81.3612 187.51 81.0237 184.435 80.9165C181.36 80.8094 181.36 80.7933 178.28 80.6862C175.199 80.5791 175.199 80.6433 172.119 80.5362C169.044 80.4291 169.034 80.6594 165.959 80.5523C162.884 80.4451 162.884 80.2416 159.809 80.1344C156.729 80.0273 156.729 80.038 153.648 79.9309C153.263 79.9201 152.791 80.3487 152.791 80.7344C152.791 83.3915 153.032 83.3915 153.032 86.0485C153.032 88.7056 152.711 88.7056 152.673 91.3627C152.593 92.268 153.188 93.3715 154.13 93.859C156.916 95.3001 156.991 95.1447 159.777 96.5857C162.557 98.0268 162.471 98.1928 165.257 99.6339C168.042 101.075 168.246 100.684 171.026 102.125C173.812 103.566 173.726 103.727 176.512 105.168C179.303 106.614 182.565 106.78 185.453 105.537C188.303 104.311 188.27 104.241 191.12 103.014C193.97 101.787 194.056 101.991 196.906 100.764C199.756 99.5374 199.74 99.4892 202.59 98.2625C205.44 97.0357 205.424 97.0036 208.279 95.7715C209.19 95.3804 209.543 94.5019 209.586 93.6555C209.607 90.9073 209.784 90.9073 209.784 88.1592C209.784 85.4111 209.95 85.4111 209.956 82.6629C209.956 82.2986 209.415 81.8969 209.05 81.8808L209.045 81.8754Z" fill="#D5E1E6"/>
<path d="M209.034 82.1219C205.959 82.0147 205.954 82.0897 202.879 81.9826C199.804 81.8755 199.815 81.5648 196.734 81.4576C193.659 81.3505 193.649 81.5701 190.574 81.463C187.499 81.3558 187.504 81.088 184.429 80.9809C181.354 80.8737 181.354 80.7398 178.279 80.6326C175.205 80.5255 175.188 80.8469 172.114 80.7398C169.039 80.6326 169.028 80.8416 165.953 80.7398C162.873 80.6326 162.878 80.4291 159.803 80.3219C156.723 80.2148 156.718 80.3862 153.637 80.2791C153.252 80.2684 152.737 80.338 152.737 80.7184C152.737 83.3754 152.936 83.3754 152.936 86.0325C152.936 88.6896 152.941 88.6896 152.909 91.3466C152.828 92.252 153.38 92.9912 154.323 93.4787C157.109 94.9197 157.001 95.1233 159.782 96.5643C162.562 98.0054 162.594 97.9464 165.374 99.3875C168.16 100.828 168.192 100.764 170.978 102.205C173.763 103.646 173.651 103.861 176.437 105.307C179.228 106.753 182.474 106.539 185.361 105.291C188.211 104.064 188.324 104.327 191.174 103.1C194.024 101.873 194.029 101.895 196.879 100.668C199.729 99.441 199.756 99.5 202.606 98.2732C205.455 97.0465 205.386 96.875 208.236 95.6483C209.146 95.2572 209.591 94.4858 209.634 93.6394C209.655 90.8913 209.902 90.8913 209.902 88.1431C209.902 85.395 209.43 85.395 209.43 82.6469C209.43 82.2826 209.404 82.1326 209.039 82.1165L209.034 82.1219Z" fill="#D5E1E6"/>
<path d="M153.632 80.1666C153.246 80.1505 153.016 80.3434 153.016 80.7291C153.016 83.3862 153.011 83.3861 153.011 86.0432C153.011 87.8146 153 89.586 152.979 91.3573C152.898 92.2627 153.273 93.1841 154.216 93.6716C157.002 95.1126 156.986 95.1447 159.766 96.5858C162.546 98.0268 162.594 97.9357 165.375 99.3768C168.16 100.818 168.144 100.85 170.925 102.291C173.71 103.732 173.694 103.759 176.48 105.2C177.99 105.982 179.764 106.421 181.424 106.421C182.228 103.352 181.317 103.218 181.317 100.046C181.317 96.875 181.414 96.875 181.414 93.7037C181.414 90.5324 181.387 90.5324 181.387 87.3557C181.387 84.1843 183.53 83.2737 181.231 81.0826C178.724 78.6934 177.846 80.9059 174.385 80.7827C170.925 80.6594 170.93 80.6487 167.469 80.5255C165.162 80.447 162.855 80.3809 160.548 80.3273C157.087 80.247 157.087 80.2791 153.627 80.1612L153.632 80.1666Z" fill="#ABBBC1"/>
<mask id="mask0_3787_14424" style="mask-type:luminance" maskUnits="userSpaceOnUse" x="152" y="80" width="58" height="27">
<path d="M209.04 81.9504C205.965 81.8433 205.96 81.9504 202.879 81.8433C199.804 81.7361 199.81 81.5326 196.729 81.4254C193.655 81.3183 193.654 81.2165 190.58 81.1094C187.505 81.0022 187.489 81.479 184.408 81.3719C181.333 81.2647 181.333 81.1576 178.259 81.0505C175.184 80.9433 175.184 80.7826 172.109 80.6755C169.034 80.5683 169.028 80.6112 165.954 80.504C162.873 80.3969 162.868 80.5523 159.788 80.4451C156.707 80.338 156.713 80.2415 153.632 80.1344C153.247 80.1237 153.118 80.3433 153.118 80.729C153.118 83.3861 152.765 83.3861 152.765 86.0432C152.765 88.7002 152.738 88.7002 152.706 91.3573C152.625 92.2626 153.295 93.1519 154.232 93.6394C157.018 95.0804 156.991 95.1286 159.772 96.5696C162.552 98.0107 162.504 98.1125 165.284 99.5535C168.07 100.995 168.064 101.005 170.844 102.452C173.63 103.893 173.732 103.689 176.517 105.13C179.308 106.576 182.496 106.651 185.389 105.403C188.239 104.177 188.292 104.294 191.142 103.068C193.992 101.841 194.008 101.878 196.853 100.646C199.703 99.4196 199.66 99.3178 202.51 98.0857C205.36 96.8589 205.44 97.0411 208.29 95.8143C209.2 95.4233 209.415 94.4911 209.458 93.6394C209.479 90.8912 209.683 90.8912 209.683 88.1431C209.683 85.395 209.479 85.395 209.484 82.6468C209.484 82.2826 209.399 81.9558 209.034 81.9397L209.04 81.9504Z" fill="white"/>
</mask>
<g mask="url(#mask0_3787_14424)">
<path d="M148.12 36.2485C150.258 36.8056 152.379 37.336 154.259 38.3109C156.204 39.318 158.084 40.4859 159.713 41.868C161.368 43.2769 162.654 45.0768 163.939 46.8018C165.23 48.5321 166.564 50.2892 167.443 52.2659C168.316 54.2319 168.943 56.3586 169.361 58.4907C169.778 60.6228 169.95 62.787 169.88 64.978C169.811 67.094 169.077 69.1672 168.514 71.3046C167.957 73.4421 167.459 75.542 166.478 77.4223C165.471 79.3669 164.384 81.2793 163.002 82.9078C161.593 84.5632 159.997 86.106 158.272 87.3916C156.547 88.6773 154.516 89.5666 152.54 90.4451C150.574 91.3183 148.49 91.8754 146.358 92.2933C144.258 92.7058 142.115 93.279 139.929 93.2093C137.813 93.1397 135.612 92.8236 133.474 92.2665C131.337 91.7094 129.43 90.5844 127.549 89.6094C125.669 88.6345 123.933 87.2738 122.31 85.8863C120.687 84.4989 119 83.0953 117.714 81.3704C116.423 79.6401 115.164 77.8348 114.291 75.8581C113.418 73.892 113.048 71.7278 112.625 69.5957C112.212 67.4958 112.041 65.3637 112.11 63.1781C112.18 61.0621 112.448 58.9353 113.005 56.7979C113.562 54.6605 114.253 52.6194 115.228 50.7338C116.235 48.7892 117.36 46.9196 118.748 45.2911C120.157 43.6358 121.689 42.0448 123.414 40.7537C125.144 39.4627 127.255 38.7663 129.231 37.8877C131.197 37.0145 133.201 36.2967 135.333 35.8789C137.465 35.461 139.565 35.0592 141.751 35.1289C143.936 35.1985 145.983 35.686 148.12 36.2431V36.2485Z" fill="#FFCD6E"/>
</g>
<path d="M181.205 93.7894C179.785 93.7894 178.425 93.4573 177.155 92.8037C175.762 92.0805 175.066 91.6841 174.396 91.3037C173.71 90.9127 173.003 90.5109 171.578 89.7717C170.148 89.0324 169.403 88.6949 168.68 88.3681C167.946 88.036 167.25 87.7253 165.862 87.0021C164.427 86.2575 163.666 85.936 162.932 85.6253C162.193 85.3093 161.496 85.0146 160.114 84.2968C158.722 83.579 158.068 83.1879 157.377 82.7754C156.697 82.3683 155.99 81.9504 154.559 81.2112C153.895 80.8683 153.675 80.1826 153.697 79.6577C153.718 78.9934 154.072 78.4523 154.64 78.2059C156.091 77.5791 156.82 77.247 157.527 76.9202C158.223 76.5988 158.947 76.2667 160.382 75.6506C161.78 75.0453 162.498 74.831 163.254 74.606C164.02 74.3757 164.812 74.14 166.302 73.4971C167.743 72.8757 168.466 72.5704 169.184 72.2597C169.907 71.949 170.636 71.6436 172.082 71.0168C173.528 70.3954 174.246 70.074 174.964 69.7526C175.682 69.4312 176.394 69.1097 177.841 68.4883C179.014 67.9794 180.235 67.7223 181.467 67.7223C182.86 67.7223 184.205 68.0491 185.453 68.6973C186.889 69.4419 187.649 69.7633 188.383 70.074C189.122 70.3901 189.819 70.6847 191.201 71.4025C192.605 72.1311 193.306 72.5007 194.008 72.865C194.71 73.2346 195.417 73.6043 196.831 74.3382C198.208 75.0506 198.845 75.4631 199.515 75.8971C200.19 76.331 200.886 76.781 202.333 77.5309C203.763 78.2702 204.513 78.6077 205.236 78.9291C205.97 79.2559 206.667 79.5719 208.054 80.2898C208.595 80.5737 208.911 81.0933 208.89 81.6826C208.868 82.2987 208.504 82.8183 207.915 83.0701C206.436 83.7075 205.718 84.0986 205.022 84.4789C204.326 84.8593 203.667 85.2182 202.258 85.8235C200.838 86.4342 200.131 86.6914 199.381 86.9592C198.642 87.2271 197.876 87.5003 196.413 88.1324L190.639 90.6181C189.208 91.2341 188.469 91.5287 187.756 91.8073C187.033 92.0966 186.283 92.3912 184.826 93.018C183.669 93.5162 182.453 93.768 181.221 93.768L181.205 93.7894Z" fill="white"/>
<path d="M181.462 68.5365C182.726 68.5365 183.942 68.8365 185.078 69.4204C186.54 70.1758 187.312 70.5079 188.062 70.824C188.785 71.1347 189.471 71.4239 190.826 72.1257C192.23 72.8543 192.931 73.2185 193.628 73.5882C194.329 73.9578 195.037 74.3274 196.451 75.0613C197.79 75.7577 198.412 76.1542 199.07 76.5774C199.761 77.022 200.474 77.4827 201.952 78.2487C203.404 78.9987 204.165 79.3416 204.899 79.6683C205.622 79.9951 206.308 80.3005 207.679 81.0076C208.043 81.1951 208.086 81.4951 208.081 81.6611C208.081 81.8058 208.017 82.1593 207.588 82.3415C206.077 82.995 205.338 83.3968 204.626 83.7825C203.945 84.1521 203.308 84.5003 201.931 85.095C200.533 85.695 199.836 85.9467 199.097 86.2146C198.347 86.4824 197.57 86.761 196.081 87.4038L193.178 88.6574L190.306 89.8948C188.887 90.5055 188.185 90.7841 187.446 91.0787C186.717 91.368 185.962 91.668 184.494 92.3001C183.439 92.7555 182.33 92.9858 181.21 92.9858C179.919 92.9858 178.682 92.6858 177.53 92.0858C176.148 91.3734 175.494 90.9984 174.798 90.602C174.107 90.2055 173.389 89.7984 171.953 89.0538C170.507 88.3038 169.752 87.961 169.018 87.6342C168.295 87.3074 167.609 86.9967 166.237 86.2896C164.775 85.5289 163.998 85.2021 163.254 84.886C162.53 84.5807 161.845 84.2861 160.489 83.5843C159.123 82.8772 158.475 82.4915 157.795 82.0897C157.104 81.6772 156.386 81.254 154.934 80.4987C154.516 80.2844 154.5 79.8237 154.506 79.6898C154.511 79.5237 154.57 79.1166 154.966 78.9505C156.429 78.3184 157.163 77.9809 157.875 77.6541C158.598 77.322 159.284 77.0059 160.709 76.3899C162.064 75.806 162.761 75.597 163.489 75.3774C164.277 75.1417 165.096 74.8953 166.623 74.2364C168.064 73.615 168.787 73.3096 169.505 72.9989C170.228 72.6882 170.957 72.3828 172.403 71.7561C173.855 71.1293 174.594 70.8025 175.301 70.4811C176.003 70.165 176.726 69.8436 178.162 69.2276C179.239 68.7669 180.348 68.5312 181.473 68.5312M181.473 66.9241C180.139 66.9241 178.805 67.2026 177.53 67.7544C174.643 68.9972 174.659 69.0401 171.771 70.2829C168.884 71.5257 168.878 71.515 165.991 72.7578C163.104 74.0007 162.959 73.6632 160.077 74.906C157.189 76.1488 157.222 76.2184 154.334 77.4613C152.486 78.2595 152.416 80.9915 154.2 81.9183C157.018 83.3807 156.932 83.5414 159.755 85.0039C162.573 86.4664 162.686 86.2467 165.509 87.7092C168.327 89.1663 168.407 89.0163 171.225 90.4734C174.043 91.9305 173.984 92.043 176.807 93.5054C178.2 94.2286 179.71 94.5822 181.226 94.5822C182.555 94.5822 183.889 94.309 185.148 93.7626C188.035 92.5198 188.073 92.6055 190.96 91.3626C192.885 90.5341 194.81 89.7056 196.735 88.877C199.622 87.6342 199.697 87.811 202.585 86.5681C205.472 85.3253 205.354 85.0575 208.242 83.8147C210.09 83.0165 210.224 80.504 208.434 79.5773C205.617 78.1148 205.531 78.2755 202.713 76.8184C199.895 75.356 200.035 75.0881 197.212 73.631C194.394 72.1739 194.404 72.1525 191.587 70.6954C188.769 69.2383 188.656 69.4472 185.839 67.9901C184.457 67.2776 182.973 66.9241 181.483 66.9241H181.473Z" fill="#D5E1E6"/>
<path d="M205.665 89.6913C206.152 89.4609 206.693 89.7448 206.859 90.3234C207.026 90.9019 206.758 91.5501 206.27 91.7805C205.783 92.0108 205.247 91.7376 205.081 91.1591C204.915 90.5805 205.177 89.9162 205.665 89.6859V89.6913Z" fill="#FCBA44"/>
<path d="M205.665 89.6913C206.152 89.4609 206.693 89.7448 206.859 90.3234C207.026 90.9019 206.758 91.5501 206.27 91.7805C205.783 92.0108 205.247 91.7376 205.081 91.1591C204.915 90.5805 205.177 89.9162 205.665 89.6859V89.6913Z" stroke="white" stroke-width="1.33329" stroke-miterlimit="10"/>
<path d="M215.971 68.4135C212.897 68.3063 212.902 68.1349 209.822 68.0278C206.741 67.9206 206.741 67.9849 203.666 67.8778C200.592 67.7706 200.597 67.4867 197.522 67.3796C194.447 67.2724 194.442 67.3474 191.367 67.2403C188.292 67.1331 188.292 67.0849 185.212 66.9778C182.131 66.8707 182.137 66.8332 179.056 66.726C175.982 66.6189 175.982 66.5814 172.901 66.4742C169.821 66.3671 169.805 66.9189 166.725 66.8117C163.644 66.7046 163.655 66.3939 160.575 66.2867C160.189 66.276 159.766 66.6189 159.766 67.0046C159.766 69.6616 159.83 69.6616 159.83 72.3187C159.83 74.9758 159.718 74.9758 159.686 77.6328C159.605 78.5382 160.082 79.7274 161.02 80.2149C163.805 81.6559 163.912 81.447 166.693 82.888C169.473 84.3291 169.516 84.2434 172.301 85.6844C175.087 87.1254 175.162 86.9808 177.942 88.4218C180.728 89.8628 180.685 89.9432 183.471 91.3842C186.262 92.8306 189.39 92.8092 192.283 91.561C195.133 90.3343 195.245 90.5914 198.095 89.3646C200.945 88.1379 200.854 87.9343 203.704 86.7076C206.554 85.4808 206.741 85.9147 209.591 84.688C212.441 83.4612 212.361 83.2684 215.211 82.0363C216.121 81.6452 216.486 80.772 216.529 79.9203C216.55 77.1721 216.561 77.1721 216.561 74.424C216.561 71.6759 216.914 71.6759 216.914 68.9277C216.914 68.5635 216.336 68.4295 215.971 68.4188V68.4135Z" fill="#D5E1E6"/>
<path d="M160.58 66.2116C160.195 66.1956 160.002 66.6134 160.002 66.9938C160.002 69.6508 159.82 69.6508 159.82 72.3079C159.82 74.965 159.809 74.965 159.777 77.622C159.696 78.5274 160.173 79.5505 161.111 80.038C162.968 80.9987 164.825 81.9576 166.682 82.9147C169.462 84.3558 169.489 84.3129 172.269 85.7539C175.055 87.195 175.103 87.0985 177.889 88.5396C180.674 89.9806 180.578 90.1681 183.358 91.6091C184.869 92.3912 186.722 92.6966 188.383 92.6966C189.187 89.627 188.222 89.4878 188.222 86.3164C188.222 83.1451 188.169 83.1451 188.169 79.9737C188.169 76.8024 188.388 76.8024 188.388 73.6257C188.388 70.4544 190.622 69.3937 188.324 67.2027C185.817 64.8135 184.799 67.0527 181.339 66.9295C177.883 66.8116 177.873 67.0098 174.417 66.8866C170.957 66.7688 170.957 66.7902 167.496 66.6348C164.035 66.4795 164.041 66.3241 160.586 66.2063L160.58 66.2116Z" fill="#ABBBC1"/>
<mask id="mask1_3787_14424" style="mask-type:luminance" maskUnits="userSpaceOnUse" x="159" y="66" width="58" height="27">
<path d="M215.982 68.1188C212.907 68.0116 212.907 67.8991 209.832 67.792C206.757 67.6848 206.752 67.8295 203.672 67.7277C200.597 67.6206 200.592 67.733 197.511 67.6259C194.436 67.5188 194.436 67.4223 191.361 67.3152C188.287 67.2081 188.292 67.0474 185.212 66.9402C182.131 66.8331 182.121 67.2027 179.04 67.0956C175.965 66.9884 175.976 66.5867 172.901 66.4795C169.826 66.3724 169.805 66.8813 166.725 66.7741C163.644 66.667 163.65 66.5974 160.569 66.4902C160.184 66.4795 159.702 66.6134 159.702 66.9938C159.702 69.6508 160.125 69.6508 160.125 72.3079C160.125 74.965 159.632 74.965 159.6 77.622C159.52 78.5274 160.146 79.5881 161.084 80.0702C163.869 81.5112 163.816 81.6076 166.601 83.0487C169.382 84.4897 169.371 84.5165 172.151 85.9575C174.937 87.3986 175.076 87.1253 177.862 88.5664C180.647 90.0074 180.599 90.0985 183.385 91.5395C186.176 92.9859 189.519 93.0877 192.406 91.8395C195.256 90.6127 195.288 90.6824 198.133 89.4556C200.033 88.6378 201.931 87.8182 203.827 86.9968C206.677 85.77 206.522 85.4058 209.372 84.179C212.222 82.9523 212.313 83.1665 215.163 81.9344C216.073 81.5434 216.77 80.7612 216.813 79.9095C216.834 77.1613 216.604 77.1613 216.604 74.4132C216.604 71.6651 216.432 71.6651 216.432 68.9169C216.432 68.5527 216.336 68.1241 215.971 68.108L215.982 68.1188Z" fill="white"/>
</mask>
<g mask="url(#mask1_3787_14424)">
<path d="M153.375 31.0911C155.513 31.6483 157.57 32.3233 159.45 33.2982C161.395 34.3053 163.029 35.7249 164.657 37.107C166.286 38.4891 167.759 40.0695 169.044 41.7891C170.336 43.5194 171.439 45.3354 172.318 47.3121C173.191 49.2781 174.23 51.2281 174.648 53.3601C175.06 55.4601 174.98 57.6564 174.905 59.8475C174.835 61.9635 174.707 64.1438 174.15 66.2812C173.593 68.4186 172.452 70.2829 171.477 72.1632C170.502 74.0435 169.661 76.1702 168.273 77.7987C166.864 79.454 165.005 80.6486 163.28 81.9397C161.55 83.2307 159.836 84.5967 157.859 85.4753C155.882 86.3538 153.745 86.761 151.613 87.1788C149.513 87.5913 147.386 87.6877 145.195 87.6127C143.079 87.5431 140.872 87.6609 138.735 87.0985C136.597 86.536 134.604 85.6039 132.724 84.6235C130.844 83.6432 128.926 82.4432 127.303 81.0611C125.648 79.6522 124.206 78.0023 122.915 76.2773C121.624 74.547 120.441 72.6935 119.562 70.7221C118.689 68.7561 118.26 66.608 117.837 64.4759C117.425 62.376 116.889 60.2278 116.958 58.0422C117.028 55.8565 117.392 53.7351 117.95 51.5977C118.507 49.4603 119.535 47.5157 120.51 45.6354C121.517 43.6908 122.889 42.0408 124.276 40.4177C125.685 38.7624 126.992 37.0053 128.717 35.7142C130.447 34.4232 132.494 33.6411 134.47 32.7625C136.447 31.884 138.419 31.0483 140.551 30.6304C142.651 30.218 144.804 29.9662 146.995 30.0358C149.111 30.1055 151.238 30.534 153.375 31.0911Z" fill="#FFCD6E"/>
</g>
<path d="M161.234 79.7863C164.051 81.2434 163.96 81.4201 166.778 82.8826C169.596 84.3397 169.494 84.5433 172.312 86.0004C175.13 87.4628 175.14 87.4467 177.958 88.9038C180.776 90.3663 180.926 90.077 183.749 91.5341C186.363 92.8894 189.358 93.018 192.058 91.8502C194.945 90.6074 194.967 90.6556 197.854 89.4128C200.741 88.1699 200.816 88.3414 203.698 87.0985C206.586 85.8557 206.629 85.9575 209.516 84.7147C212.404 83.4719 212.339 83.3165 215.227 82.0737" stroke="#80949C" stroke-width="1.33329" stroke-linecap="round" stroke-linejoin="round"/>
<path d="M187.553 80.1238C186.251 80.1238 185.051 79.8398 183.98 79.2881C182.565 78.5542 181.858 78.1953 181.151 77.8363C180.444 77.4774 179.737 77.1185 178.333 76.3899C176.962 75.6775 176.33 75.265 175.66 74.8257C174.985 74.3864 174.294 73.9311 172.848 73.1811C171.412 72.4365 170.657 72.1097 169.928 71.7937C169.189 71.4722 168.493 71.1722 167.111 70.4544C165.728 69.7366 165.08 69.3402 164.395 68.9223C163.714 68.5045 163.012 68.0759 161.577 67.3366C161.014 67.0474 160.688 66.5277 160.709 65.9492C160.73 65.3813 161.079 64.8992 161.646 64.6528C163.125 64.0153 163.843 63.6242 164.545 63.2493C165.241 62.8743 165.9 62.5154 167.309 61.91C168.723 61.2993 169.43 61.0583 170.185 60.8011C170.935 60.544 171.707 60.2815 173.18 59.6494C174.642 59.0226 175.371 58.669 176.073 58.3262C176.758 57.9941 177.471 57.6459 178.901 57.0298C180.337 56.4084 181.076 56.1138 181.789 55.8298C182.512 55.5406 183.256 55.2406 184.708 54.6192C185.774 54.1585 186.915 53.9281 188.094 53.9281C189.556 53.9281 191.04 54.2977 192.39 54.9941C193.794 55.7227 194.49 56.0923 195.192 56.4673C195.894 56.8423 196.595 57.2173 198.01 57.9512C199.44 58.6905 200.19 59.0226 200.918 59.344C201.652 59.6708 202.349 59.9761 203.736 60.694C205.145 61.4225 205.847 61.7922 206.549 62.1618C207.25 62.5314 207.958 62.9011 209.366 63.6296C210.791 64.3689 211.531 64.7117 212.249 65.0438C212.95 65.3706 213.673 65.7081 215.066 66.4313C215.575 66.6938 215.859 67.1706 215.838 67.7277C215.822 68.2366 215.532 68.8955 214.782 69.2169C213.352 69.833 212.629 70.1383 211.911 70.4437C211.182 70.7544 210.459 71.0597 209.002 71.6865C207.54 72.3186 206.811 72.6722 206.109 73.0204C205.392 73.374 204.717 73.7061 203.292 74.3168C201.867 74.9328 201.127 75.2114 200.41 75.4793C199.676 75.7525 198.92 76.0417 197.458 76.6685C196.006 77.2953 195.278 77.6274 194.57 77.9542C193.874 78.2756 193.151 78.6077 191.715 79.2238C190.349 79.8131 188.913 80.1238 187.564 80.1238H187.553Z" fill="white"/>
<path d="M188.089 54.7156C189.422 54.7156 190.778 55.0531 192.015 55.6906C193.413 56.4138 194.12 56.7941 194.806 57.1584C195.497 57.528 196.215 57.9137 197.635 58.6476C199.086 59.3976 199.847 59.7351 200.586 60.0619C201.31 60.3833 201.995 60.6886 203.361 61.3958C204.77 62.1243 205.472 62.4939 206.174 62.8582C206.875 63.2279 207.583 63.5975 208.997 64.326C210.438 65.0707 211.182 65.4189 211.906 65.7564C212.629 66.0938 213.315 66.4153 214.697 67.1277C214.782 67.1706 215.045 67.3099 215.034 67.6849C215.023 67.9474 214.868 68.2902 214.466 68.467C213.025 69.0884 212.307 69.3937 211.584 69.6991C210.861 70.0044 210.133 70.3151 208.686 70.9366C207.208 71.574 206.468 71.9383 205.761 72.2865C205.054 72.6347 204.384 72.9615 202.981 73.5668C201.572 74.1722 200.876 74.4347 200.136 74.7132C199.397 74.9918 198.631 75.2811 197.153 75.9186C195.69 76.5507 194.956 76.8882 194.244 77.2149C193.52 77.5471 192.835 77.8631 191.404 78.4792C190.135 79.0256 188.812 79.3149 187.569 79.3149C186.401 79.3149 185.319 79.0631 184.365 78.5703C182.951 77.8364 182.244 77.4774 181.532 77.1185C180.824 76.7596 180.123 76.4007 178.714 75.6721C177.38 74.9811 176.764 74.5793 176.116 74.1508C175.425 73.7008 174.712 73.2293 173.228 72.4633C171.771 71.708 171 71.3758 170.26 71.0544C169.537 70.7384 168.852 70.4437 167.491 69.7366C166.13 69.0348 165.498 68.6438 164.823 68.2313C164.132 67.8081 163.414 67.3688 161.957 66.6135C161.55 66.4045 161.518 66.0885 161.523 65.9653C161.523 65.8153 161.593 65.5474 161.979 65.3814C163.489 64.7332 164.223 64.3314 164.936 63.9457C165.616 63.5761 166.259 63.2279 167.636 62.6332C169.023 62.0386 169.714 61.7975 170.453 61.5458C171.214 61.2833 172.001 61.0154 173.501 60.3672C174.98 59.7297 175.714 59.3762 176.426 59.028C177.139 58.6851 177.808 58.3584 179.223 57.7477C180.648 57.1316 181.344 56.853 182.089 56.5584C182.817 56.2691 183.567 55.9691 185.03 55.337C185.994 54.9192 187.028 54.7102 188.099 54.7102M188.099 53.1031C186.84 53.1031 185.581 53.3496 184.392 53.8638C181.505 55.1067 181.473 55.0317 178.585 56.2745C175.698 57.5173 175.751 57.6512 172.864 58.8941C169.977 60.1369 169.88 59.9119 166.998 61.1547C164.111 62.3975 164.223 62.6547 161.336 63.8975C159.488 64.6957 159.423 67.1063 161.213 68.0331C164.03 69.4955 163.928 69.6937 166.746 71.1562C169.564 72.6187 169.666 72.4204 172.484 73.8829C175.301 75.34 175.151 75.6346 177.969 77.0917C180.787 78.5488 180.798 78.5328 183.615 79.9899C184.853 80.6327 186.197 80.9166 187.558 80.9166C189.074 80.9166 190.606 80.5631 192.026 79.9524C194.913 78.7095 194.881 78.6399 197.769 77.3971C200.656 76.1543 200.715 76.2882 203.602 75.0454C206.49 73.8025 206.425 73.6579 209.313 72.4151C212.2 71.1723 212.206 71.1883 215.093 69.9455C216.941 69.1473 217.214 66.6295 215.425 65.7081C212.607 64.2457 212.543 64.3635 209.725 62.9064C206.908 61.444 206.913 61.4333 204.095 59.9708C201.277 58.5137 201.186 58.6851 198.369 57.2227C195.551 55.7656 195.567 55.7281 192.749 54.2656C191.287 53.5103 189.685 53.1085 188.083 53.1085L188.099 53.1031Z" fill="#D5E1E6"/>
<path d="M212.596 75.9561C213.084 75.7258 213.62 76.0204 213.786 76.599C213.952 77.1775 213.7 77.8418 213.212 78.0721C212.725 78.3025 212.184 78.0132 212.018 77.4347C211.852 76.8561 212.109 76.1918 212.596 75.9615V75.9561Z" fill="#FCBA44"/>
<path d="M212.596 75.9561C213.084 75.7258 213.62 76.0204 213.786 76.599C213.952 77.1775 213.7 77.8418 213.212 78.0721C212.725 78.3025 212.184 78.0132 212.018 77.4347C211.852 76.8561 212.109 76.1918 212.596 75.9615V75.9561Z" stroke="white" stroke-width="1.33329" stroke-miterlimit="10"/>
<path d="M154.291 93.5376C157.109 94.9947 157.071 95.0751 159.889 96.5375C162.707 97.9946 162.584 98.2303 165.401 99.6928C168.219 101.155 168.208 101.177 171.032 102.634C173.849 104.096 173.946 103.914 176.764 105.371C179.378 106.726 182.56 107.075 185.265 105.912C188.153 104.669 188.067 104.466 190.949 103.223C193.831 101.98 193.81 101.921 196.697 100.678C199.584 99.4356 199.552 99.3553 202.44 98.1125C205.327 96.8696 205.44 97.1268 208.327 95.884" stroke="#80949C" stroke-width="1.33329" stroke-linecap="round" stroke-linejoin="round"/>
<path d="M205.53 54.271C202.455 54.1639 202.461 53.8746 199.386 53.7675C196.311 53.6603 196.3 53.8692 193.225 53.7621C190.15 53.655 190.14 53.8532 187.065 53.746C183.99 53.6389 183.99 53.6282 180.909 53.521C177.829 53.4139 177.845 53.0978 174.765 52.9907C171.685 52.8836 171.685 52.8675 168.61 52.7603C165.535 52.6532 165.53 52.7389 162.455 52.6318C159.374 52.5246 159.374 52.4979 156.294 52.3907C153.214 52.2836 153.219 52.1014 150.139 51.9943C149.753 51.9836 149.684 52.5193 149.684 52.8996C149.684 55.5567 149.357 55.5567 149.357 58.2138C149.357 60.8708 149.201 60.8708 149.169 63.5279C149.089 64.4332 149.86 65.1939 150.798 65.6814C153.583 67.1224 153.391 67.4921 156.171 68.9331C158.951 70.3741 159.032 70.2241 161.812 71.6652C164.592 73.1062 164.571 73.1544 167.356 74.5954C170.142 76.0365 170.147 76.0257 172.933 77.4668C175.724 78.9132 179.088 79.0203 181.975 77.7775C184.825 76.5507 184.729 76.3204 187.579 75.0936C190.429 73.8669 190.525 74.0919 193.375 72.8651C196.225 71.6384 196.273 71.7455 199.123 70.5134C201.973 69.2867 201.812 68.9117 204.662 67.6796C205.573 67.2885 206.098 66.6671 206.146 65.8153C206.168 63.0672 206.334 63.0672 206.334 60.3191C206.334 57.5709 206.216 57.5709 206.216 54.8228C206.216 54.4585 205.9 54.2764 205.536 54.2657L205.53 54.271Z" fill="#D5E1E6"/>
<path d="M150.134 52.2032C149.748 52.1872 149.378 52.5193 149.378 52.8996C149.378 55.5567 149.394 55.5567 149.394 58.2138C149.394 60.8708 149.351 60.8708 149.314 63.5279C149.234 64.4332 149.818 65.2796 150.76 65.7618C153.546 67.2028 153.514 67.2617 156.299 68.7028C159.08 70.1438 159.048 70.2081 161.828 71.6491C164.614 73.0901 164.646 73.0258 167.431 74.4669C170.217 75.9079 170.238 75.865 173.019 77.3114C174.529 78.0936 176.276 78.5971 177.942 78.5971C178.745 75.5276 177.69 75.3883 177.69 72.2169C177.69 69.0456 177.717 69.0456 177.717 65.8743C177.717 63.76 177.715 61.644 177.711 59.5262C177.711 56.3549 180.133 55.3478 177.835 53.1568C175.327 50.7676 174.358 53.0389 170.897 52.9157C167.442 52.7979 167.437 52.9586 163.976 52.8354C160.515 52.7175 160.521 52.5461 157.06 52.4229C153.6 52.2943 153.6 52.3157 150.139 52.1925L150.134 52.2032Z" fill="#ABBBC1"/>
<mask id="mask2_3787_14424" style="mask-type:luminance" maskUnits="userSpaceOnUse" x="149" y="52" width="58" height="27">
<path d="M205.546 53.9121C202.471 53.8049 202.466 53.8799 199.391 53.7728C196.316 53.6657 196.305 53.9496 193.225 53.8424C190.15 53.7353 190.156 53.5049 187.081 53.3978C184.006 53.2907 184.006 53.1728 180.931 53.0657C177.856 52.9585 177.84 53.4085 174.76 53.3014C171.679 53.1942 171.69 53.0014 168.61 52.8942C165.535 52.7871 165.535 52.7443 162.455 52.6371C159.374 52.53 159.385 52.2836 156.305 52.1764C153.225 52.0693 153.208 52.5514 150.128 52.4443C149.742 52.4335 149.539 52.5193 149.539 52.905C149.539 55.562 149.266 55.562 149.266 58.2191C149.266 60.8762 149.276 60.8762 149.244 63.5332C149.164 64.4386 149.716 65.4992 150.653 65.9867C153.439 67.4278 153.583 67.1438 156.364 68.5849C159.144 70.0259 158.951 70.4062 161.731 71.8473C163.589 72.808 165.446 73.7669 167.303 74.724C170.088 76.165 170.099 76.1436 172.885 77.5846C175.676 79.031 179.099 79.0203 181.986 77.7775C184.836 76.5507 184.911 76.7275 187.761 75.5007C190.611 74.274 190.541 74.1079 193.386 72.8812C196.236 71.6544 196.252 71.6866 199.102 70.4598C201.952 69.2331 201.839 68.9706 204.689 67.7438C205.6 67.3528 206.275 66.6724 206.318 65.826C206.339 63.0779 206.066 63.0779 206.066 60.3297C206.066 57.5816 206.221 57.5816 206.221 54.8335C206.221 54.4692 205.916 53.9281 205.552 53.9174L205.546 53.9121Z" fill="white"/>
</mask>
<g mask="url(#mask2_3787_14424)">
<path d="M148.136 25.9444C150.273 26.5016 152.416 27.0158 154.302 27.9962C156.246 29.0033 157.859 30.5193 159.482 31.9068C161.137 33.3157 162.803 34.7299 164.089 36.4548C165.38 38.1852 166.258 40.194 167.137 42.1654C168.01 44.1314 168.498 46.2046 168.921 48.3366C169.333 50.4366 169.692 52.5365 169.623 54.7275C169.553 56.8435 169.215 58.9596 168.658 61.097C168.101 63.2344 167.571 65.3504 166.596 67.2307C165.589 69.1753 164.132 70.8039 162.744 72.4324C161.335 74.0877 159.857 75.6573 158.137 76.943C156.407 78.234 154.559 79.3857 152.587 80.2643C150.621 81.1375 148.484 81.4964 146.352 81.9142C144.252 82.3267 142.136 83.0285 139.95 82.9589C137.834 82.8892 135.67 82.4232 133.533 81.866C131.395 81.3089 129.311 80.6018 127.431 79.6268C125.486 78.6197 123.794 77.2162 122.165 75.8287C120.51 74.4198 119.122 72.7645 117.837 71.0449C116.551 69.3253 115.383 67.4986 114.504 65.5219C113.631 63.5559 112.978 61.4988 112.56 59.3667C112.147 57.2668 111.837 55.1132 111.906 52.9276C111.976 50.8116 112.512 48.7063 113.074 46.5688C113.631 44.4314 114.462 42.4761 115.437 40.5958C116.444 38.6512 117.44 36.7334 118.822 35.1049C120.231 33.4496 121.881 32.0461 123.606 30.7604C125.336 29.4693 127.254 28.4997 129.225 27.6212C131.192 26.748 133.131 25.6819 135.263 25.2587C137.363 24.8463 139.564 24.9909 141.75 25.0605C143.866 25.1302 146.004 25.382 148.141 25.9391L148.136 25.9444Z" fill="#FFCD6E"/>
</g>
<path d="M150.589 66.0885C153.407 67.5456 153.477 67.4117 156.3 68.8688C159.117 70.3259 159.187 70.1866 162.005 71.6491C164.823 73.1115 164.801 73.1544 167.619 74.6168C170.437 76.0793 170.555 75.8543 173.372 77.3167C175.987 78.6721 178.847 78.7738 181.553 77.6114C184.44 76.3686 184.515 76.5507 187.402 75.3079C190.29 74.0651 190.209 73.8776 193.092 72.6347C195.979 71.3919 196.113 71.6973 199 70.4544C201.888 69.2116 201.829 69.067 204.716 67.8242" stroke="#80949C" stroke-width="1.33329" stroke-linecap="round" stroke-linejoin="round"/>
<path d="M177.594 65.9814C176.19 65.9814 174.856 65.66 173.624 65.0225C172.189 64.2779 171.433 63.9565 170.699 63.6404C169.96 63.3243 169.264 63.0243 167.882 62.3065C166.526 61.6047 165.926 61.1601 165.289 60.6887C164.63 60.2012 163.944 59.6976 162.482 58.9423L156.846 56.0174C155.394 55.2674 154.612 54.9674 153.857 54.6835C153.112 54.3996 152.405 54.1317 151.039 53.4246C150.504 53.1461 150.198 52.6211 150.22 52.0157C150.236 51.5122 150.509 50.8693 151.211 50.564C152.657 49.9372 153.38 49.6212 154.098 49.2944C154.811 48.973 155.528 48.6569 156.964 48.0355C158.437 47.4034 159.16 47.0177 159.857 46.648C160.559 46.2784 161.223 45.9248 162.637 45.3195C164.078 44.6981 164.801 44.3927 165.519 44.0927C166.248 43.7874 166.971 43.482 168.423 42.8553C169.848 42.2446 170.555 41.9821 171.299 41.7035C172.033 41.4303 172.799 41.1518 174.262 40.5196C175.537 39.9732 176.919 39.6786 178.263 39.6786C179.608 39.6786 180.969 39.9893 182.099 40.5732C183.503 41.3018 184.204 41.666 184.906 42.0357C185.613 42.4053 186.315 42.7749 187.729 43.5035C189.133 44.232 189.835 44.6017 190.531 44.9713C191.233 45.3463 191.94 45.7159 193.349 46.4445C194.742 47.1677 195.4 47.548 196.097 47.9551C196.783 48.3516 197.49 48.764 198.915 49.5033C200.307 50.2265 200.966 50.6068 201.663 51.014C202.348 51.4104 203.056 51.8229 204.481 52.5621C205.166 52.9157 205.391 53.5853 205.375 54.0942C205.354 54.6996 205.011 55.2031 204.464 55.4388C203.034 56.0549 202.311 56.3602 201.593 56.6656C200.865 56.9763 200.141 57.2816 198.684 57.9084C197.27 58.5191 196.558 58.7602 195.808 59.0227C195.063 59.2798 194.292 59.5477 192.818 60.1798C191.351 60.8119 190.622 61.1869 189.926 61.5458C189.218 61.9101 188.549 62.2529 187.129 62.8636C185.704 63.4797 184.997 63.7368 184.247 64.0154C183.513 64.2886 182.747 64.5672 181.285 65.1993C180.09 65.7135 178.842 65.976 177.583 65.976L177.594 65.9814Z" fill="white"/>
<path d="M178.263 40.4875C179.517 40.4875 180.712 40.766 181.729 41.291C183.138 42.0196 183.84 42.3892 184.542 42.7535C185.244 43.1231 185.951 43.4927 187.36 44.2213C188.763 44.9498 189.459 45.3195 190.161 45.6891C190.863 46.0587 191.57 46.4337 192.984 47.1676C194.361 47.8801 195.009 48.2605 195.7 48.6569C196.391 49.0586 197.109 49.4765 198.556 50.2211C199.927 50.9336 200.581 51.3139 201.266 51.7104C201.957 52.1121 202.675 52.53 204.122 53.28C204.566 53.5103 204.588 53.9442 204.582 54.0674C204.577 54.2764 204.497 54.5549 204.159 54.6996C202.718 55.321 202 55.6263 201.277 55.9317C200.548 56.237 199.825 56.5477 198.379 57.1691C196.991 57.7691 196.295 58.0048 195.561 58.262C194.8 58.5244 194.013 58.7923 192.518 59.4405C191.024 60.0833 190.284 60.4637 189.572 60.8333C188.876 61.1922 188.222 61.5297 186.829 62.1297C185.426 62.735 184.729 62.9922 183.99 63.2654C183.245 63.5386 182.474 63.8225 180.99 64.4653C179.897 64.9368 178.756 65.1778 177.604 65.1778C176.33 65.1778 175.119 64.8832 174.005 64.31C172.542 63.5547 171.776 63.2225 171.031 62.9011C170.308 62.5904 169.623 62.2958 168.267 61.594C166.971 60.9244 166.392 60.4958 165.782 60.0458C165.096 59.5423 164.389 59.0173 162.867 58.2298C161.459 57.5013 160.757 57.137 160.05 56.7674C159.343 56.4031 158.641 56.0334 157.227 55.3049C155.732 54.5335 154.928 54.2281 154.152 53.9335C153.428 53.6603 152.743 53.3978 151.414 52.7121C151.082 52.5407 151.023 52.2514 151.028 52.0425C151.028 51.9193 151.082 51.4961 151.537 51.3032C152.989 50.6765 153.723 50.3497 154.436 50.0336C155.137 49.7229 155.86 49.3961 157.296 48.7801C158.796 48.1319 159.535 47.7408 160.248 47.3658C160.934 47.0016 161.587 46.6587 162.969 46.0641C164.405 45.4427 165.128 45.1427 165.846 44.8373C166.574 44.532 167.303 44.2266 168.755 43.5999C170.158 42.9945 170.855 42.7374 171.594 42.4642C172.339 42.191 173.11 41.9017 174.594 41.2642C175.767 40.7607 177.042 40.4928 178.279 40.4928M178.279 38.8857C176.806 38.8857 175.317 39.2018 173.962 39.7911C171.074 41.0339 171.01 40.8839 168.123 42.1267C165.235 43.3695 165.224 43.3481 162.337 44.5909C159.45 45.8337 159.551 46.0641 156.664 47.3069C153.777 48.5497 153.793 48.5872 150.905 49.8301C149.057 50.6282 148.891 53.2157 150.68 54.1424C153.498 55.6049 153.669 55.2781 156.487 56.7352C158.366 57.7102 160.244 58.6852 162.123 59.6601C164.941 61.1172 164.71 61.5672 167.528 63.0243C170.346 64.4814 170.453 64.2832 173.271 65.7403C174.637 66.4474 176.121 66.7903 177.61 66.7903C178.971 66.7903 180.342 66.5064 181.628 65.9492C184.515 64.7064 184.585 64.8618 187.472 63.6136C190.359 62.3708 190.274 62.1726 193.161 60.9244C196.049 59.6816 196.14 59.8958 199.027 58.653C201.915 57.4102 201.92 57.4263 204.807 56.1834C206.655 55.3853 206.661 52.7818 204.877 51.855C202.059 50.3925 202.129 50.2533 199.311 48.7962C196.493 47.3337 196.563 47.1998 193.74 45.7373C190.922 44.2802 190.933 44.2534 188.115 42.7963C185.297 41.3392 185.302 41.3232 182.485 39.8661C181.183 39.1911 179.737 38.8804 178.279 38.8804V38.8857Z" fill="#D5E1E6"/>
<path d="M202.161 61.8672C202.648 61.6368 203.184 61.9207 203.355 62.4993C203.527 63.0778 203.259 63.726 202.771 63.9564C202.284 64.1867 201.759 63.9082 201.593 63.3296C201.427 62.7511 201.673 62.0922 202.166 61.8618L202.161 61.8672Z" fill="#FCBA44"/>
<path d="M202.161 61.8672C202.648 61.6368 203.184 61.9207 203.355 62.4993C203.527 63.0778 203.259 63.726 202.771 63.9564C202.284 64.1867 201.759 63.9082 201.593 63.3296C201.427 62.7511 201.673 62.0922 202.166 61.8618L202.161 61.8672Z" stroke="white" stroke-width="1.33329" stroke-miterlimit="10"/>
<path d="M177.829 78.5703C177.829 76.5703 177.829 74.5722 177.829 72.5758" stroke="#80949C" stroke-width="1.33329" stroke-linecap="round" stroke-linejoin="round"/>
<path d="M188.195 92.4394C188.195 88.6788 188.174 88.6788 188.174 84.9182" stroke="#80949C" stroke-width="1.33329" stroke-linecap="round" stroke-linejoin="round"/>
<path d="M181.842 106.47C181.842 103.677 181.842 100.886 181.842 98.0967" stroke="#80949C" stroke-width="1.33329" stroke-linecap="round" stroke-linejoin="round"/>
<path d="M168.155 95.9001C167.266 97.4322 165.332 97.668 163.8 96.4198C162.267 95.1716 161.71 92.9109 162.6 91.3842C163.489 89.8575 165.476 89.6378 167.008 90.886C168.54 92.1342 169.044 94.3734 168.155 95.9055V95.9001Z" fill="#80949C"/>
<path d="M165.449 93.7144C164.281 94.7055 163.253 95.8197 162.412 97.1C161.255 98.8625 160.049 100.737 159.305 102.709C158.491 104.852 158.18 107.048 158.314 109.009C158.458 111.173 159.23 113.155 161.142 114.532C162.717 115.667 165.31 115.271 167.18 113.68C168.615 112.453 169.478 110.498 169.344 107.884C169.258 106.132 168.99 103.984 167.635 101.68C166.698 100.089 165.385 98.3375 163.66 96.5108C162.342 95.1072 160.574 93.8269 158.716 92.2948C157.189 91.0359 155.544 89.6377 153.61 88.2931C151.955 87.1414 150.128 85.9896 148.146 84.7843C145.489 83.1611 143.309 81.5862 141.739 79.9898C138.241 76.4435 138.525 77.1828 137.132 73.4329" stroke="#60747B" stroke-width="2" stroke-miterlimit="10" stroke-linecap="round"/>
<path d="M121.211 132.815C118.965 133.965 116.724 135.124 114.488 136.292C111.135 138.043 111.173 138.118 107.819 139.865C104.466 141.617 104.444 141.579 101.091 143.331C97.7372 145.083 97.7907 145.19 94.4373 146.941C91.0838 148.693 91.057 148.64 87.6982 150.391C84.3394 152.143 84.2804 152.031 80.9269 153.782C77.5681 155.534 77.5895 155.572 74.2307 157.318C74.0539 157.393 73.8932 157.532 73.7004 157.527C72.8218 157.5 70.2023 157.452 69.3612 157.414C69.1898 157.409 69.0452 157.232 68.8898 157.157C65.6381 155.609 65.6703 155.545 62.4239 153.997C59.1776 152.448 59.0865 152.636 55.8402 151.088C52.5885 149.54 52.6796 149.357 49.4279 147.815C46.1762 146.272 46.1762 146.272 42.9245 144.724C39.6728 143.175 39.6085 143.32 36.3568 141.772C33.1051 140.224 33.1694 140.09 29.9177 138.542C26.666 136.993 26.666 136.993 23.4143 135.445C22.4287 134.974 22.4179 133.678 23.4143 133.238C26.9446 131.444 26.966 131.492 30.4802 129.67C33.9944 127.849 33.9944 127.849 37.5086 126.028C41.0228 124.206 40.9799 124.121 44.4941 122.299C48.0083 120.478 48.0672 120.585 51.5814 118.764C55.0956 116.942 55.0152 116.787 58.5294 114.966C62.0436 113.144 62.0114 113.08 65.531 111.259C69.0505 109.437 69.1309 109.598 72.6504 107.776C72.6611 107.776 72.5968 107.825 72.5968 107.835C76.0682 109.469 76.1485 109.293 79.6252 110.921C83.1019 112.55 83.0644 112.614 86.5411 114.242C90.0178 115.871 89.9696 115.967 93.4409 117.596C95.7587 118.682 98.0747 119.765 100.389 120.848C103.86 122.476 103.887 122.422 107.358 124.051C110.835 125.68 110.883 125.578 114.36 127.206C117.837 128.835 117.853 128.797 121.329 130.426C122.32 130.892 122.229 132.386 121.228 132.826L121.211 132.815Z" fill="#ECE6F3"/>
<path d="M67.9363 82.3093C71.2576 80.7022 71.3272 80.8415 74.6164 79.1541C76.8056 78.0327 78.9966 76.9113 81.1894 75.7899C84.4733 74.1078 84.3983 73.9524 87.6821 72.2703C90.9659 70.5882 91.0034 70.6579 94.2926 68.9758C97.5818 67.2937 97.5711 67.2776 100.855 65.5955C104.139 63.9134 104.085 63.8063 107.374 62.1242C109.567 61.0028 111.76 59.885 113.953 58.7707C117.237 57.0886 117.274 57.1583 120.558 55.4762C123.847 53.7941 123.794 53.6869 127.083 52.0049C130.372 50.3228 130.356 50.2853 133.661 48.646C133.875 48.6407 136.891 49.5353 139.795 50.4888C142.698 51.4424 145.693 52.5995 145.693 52.8138C145.693 56.7726 145.618 56.7726 145.618 60.7314C145.618 64.6902 145.543 64.6902 145.543 68.6544C145.543 72.6185 145.532 72.6132 145.532 76.5774C145.532 80.5415 145.607 80.5362 145.607 84.5003C145.607 88.4645 145.538 88.4591 145.538 92.418C145.538 96.3768 145.575 96.3768 145.575 100.341C145.575 104.305 145.752 104.3 145.752 108.259C145.752 112.217 145.763 112.223 145.763 116.182C145.763 120.14 145.57 120.146 145.607 124.11C145.698 125.122 145.307 126.231 144.252 126.778C140.898 128.556 140.856 128.465 137.502 130.249C134.149 132.033 134.165 132.054 130.817 133.833C127.468 135.611 127.527 135.729 124.179 137.513C120.831 139.297 120.778 139.195 117.429 140.974C114.081 142.752 114.113 142.816 110.765 144.595C107.417 146.379 107.396 146.341 104.048 148.125C100.7 149.909 100.673 149.861 97.3247 151.645C93.9766 153.429 93.9659 153.413 90.6124 155.191C87.2589 156.975 87.3125 157.066 83.9536 158.839C80.8144 160.468 77.086 160.591 73.8397 159.193C71.3647 158.175 71.3219 158.271 68.8416 157.27C67.8184 156.83 67.347 155.818 67.2988 154.864C67.2773 150.884 67.1595 150.884 67.1595 146.899C67.1595 142.913 67.2506 142.918 67.2506 138.933C67.2506 134.947 67.2506 134.947 67.2506 130.967C67.2506 126.987 67.2934 126.981 67.2934 123.001C67.2934 119.021 67.2773 119.021 67.272 115.035C67.2666 111.05 67.3309 111.05 67.3309 107.069C67.3309 103.089 67.2506 103.089 67.2506 99.1035C67.2506 95.1179 67.1381 95.1179 67.1381 91.1323C67.1381 87.1467 67.2238 87.1467 67.2238 83.1611C67.2238 82.7486 67.5291 82.3147 67.9363 82.304V82.3093Z" fill="#EAF0F3"/>
<path d="M78.7684 87.436C77.3273 87.436 75.897 87.136 74.531 86.5468C73.1596 85.9843 72.4525 85.7539 71.7614 85.5289C71.0757 85.3039 70.4329 85.095 69.1472 84.57C68.3437 84.2218 68.0276 83.4344 68.0062 82.8076C67.9794 82.0201 68.349 81.3505 69.0026 81.013C70.6579 80.1398 71.5257 79.738 72.3614 79.3523C73.2292 78.9506 74.1292 78.5381 75.8488 77.622C77.547 76.7167 78.3934 76.2239 79.2076 75.7471C80.0112 75.2757 80.8415 74.7882 82.5129 73.8989C84.1843 73.0097 85.0468 72.5918 85.8878 72.19C86.7396 71.7775 87.6181 71.3543 89.3163 70.449C91.0144 69.5437 91.8608 69.0508 92.6751 68.5741C93.4787 68.1027 94.309 67.6205 95.9804 66.7313C97.6517 65.842 98.5196 65.4135 99.3499 64.9956C100.196 64.5778 101.07 64.1438 102.762 63.2439C104.434 62.3546 105.28 61.9153 106.121 61.4761C106.973 61.0314 107.819 60.5922 109.512 59.6868C111.216 58.7815 112.057 58.2779 112.871 57.7905C113.669 57.3137 114.494 56.8208 116.16 55.9369C117.821 55.053 118.656 54.6781 119.54 54.2763C120.408 53.8852 121.303 53.4781 123.012 52.5728C124.587 51.7371 125.422 51.2764 126.21 50.8478C127.104 50.3603 127.935 49.905 129.729 48.9621C131.261 48.1693 132.954 47.7515 134.62 47.7515C135.96 47.7515 137.251 48.014 138.456 48.5336C139.758 49.0693 140.406 49.3639 141.033 49.6478C141.686 49.9425 142.361 50.2478 143.716 50.8049C144.536 51.1585 144.852 51.9085 144.874 52.487C144.9 53.1995 144.531 53.8156 143.893 54.1477C142.265 55.0102 141.418 55.4387 140.599 55.8566C139.704 56.3119 138.858 56.7405 137.111 57.6726C135.435 58.5672 134.572 59.0011 133.736 59.419C132.895 59.8422 132.022 60.2815 130.329 61.1814C128.626 62.0868 127.785 62.5903 126.971 63.0778C126.172 63.5546 125.347 64.0474 123.687 64.9313C122.026 65.8152 121.153 66.2224 120.306 66.6081C119.444 67.0098 118.555 67.4223 116.851 68.3277C115.158 69.2276 114.312 69.7044 113.492 70.1705C112.678 70.6312 111.837 71.1026 110.166 71.9918C108.489 72.8864 107.643 73.315 106.796 73.7436C105.944 74.1775 105.093 74.6114 103.4 75.5114C101.696 76.4167 100.855 76.9203 100.041 77.4131C99.2481 77.8899 98.4232 78.3881 96.7571 79.272C95.0911 80.1612 94.2233 80.5737 93.3822 80.9755C92.5251 81.3826 91.6466 81.8058 89.943 82.7112C88.3038 83.5844 87.4681 84.0558 86.6592 84.5111C85.7967 84.9986 84.9825 85.4593 83.2522 86.37C81.8754 87.0825 80.3648 87.4467 78.7737 87.4467L78.7684 87.436Z" fill="white"/>
<path d="M134.615 48.5496C135.841 48.5496 137.025 48.7906 138.129 49.2674H138.14L138.15 49.2781C139.425 49.8031 140.068 50.0924 140.689 50.3763C141.343 50.6763 142.023 50.9816 143.384 51.5388C143.989 51.8066 144.054 52.353 144.059 52.5137C144.07 52.7495 144.005 53.178 143.502 53.4405C141.889 54.2923 141.043 54.7208 140.229 55.1387C139.329 55.594 138.482 56.0279 136.725 56.96C135.059 57.8493 134.197 58.2779 133.367 58.6957C132.52 59.1189 131.647 59.5635 129.943 60.4689C128.224 61.3849 127.377 61.8938 126.552 62.3813C125.727 62.8742 124.945 63.3402 123.301 64.2188C121.656 65.0919 120.831 65.4777 119.963 65.8794C119.09 66.2812 118.19 66.699 116.465 67.6204C114.762 68.5258 113.91 69.0079 113.085 69.474C112.276 69.9293 111.44 70.4007 109.774 71.2846C108.103 72.1739 107.246 72.6078 106.415 73.031C105.574 73.4596 104.701 73.9042 103.008 74.8042C101.289 75.7202 100.437 76.2291 99.6175 76.7273C98.7925 77.2202 98.0157 77.6916 96.3711 78.5648C94.7212 79.4433 93.8962 79.8344 93.0284 80.2522C92.1659 80.6647 91.2766 81.0879 89.5624 82.004C87.9178 82.8772 87.0768 83.3539 86.2625 83.8093C85.4054 84.2914 84.5911 84.7521 82.8822 85.6521C81.6126 86.311 80.2252 86.6431 78.7681 86.6431C77.4342 86.6431 76.1164 86.3645 74.8468 85.8181H74.836L74.8253 85.8074C73.4379 85.2396 72.7147 85.0039 72.0129 84.7735C71.3486 84.5539 70.7165 84.3503 69.4683 83.8414C68.8844 83.5843 68.8148 82.9682 68.8094 82.7861C68.8041 82.6093 68.8255 82.0147 69.3826 81.7254C71.0112 80.8629 71.8308 80.4879 72.6986 80.0862C73.5772 79.679 74.4825 79.2612 76.2289 78.3344C77.9431 77.4237 78.7949 76.9255 79.6198 76.438C80.4502 75.9506 81.2376 75.4899 82.893 74.606C84.5483 73.7274 85.3679 73.331 86.2411 72.9078C87.0982 72.4953 87.9875 72.0667 89.7017 71.1561C91.4159 70.2454 92.2677 69.7472 93.0873 69.265C93.923 68.7776 94.7105 68.3169 96.3658 67.4383C98.0264 66.5544 98.8514 66.1473 99.7193 65.7187C100.571 65.2955 101.45 64.8616 103.153 63.9563C104.83 63.0617 105.676 62.6224 106.517 62.1831C107.364 61.7385 108.21 61.2992 109.898 60.3992C111.617 59.4832 112.469 58.9743 113.289 58.4814C114.113 57.9886 114.89 57.5225 116.54 56.644C118.179 55.7708 118.999 55.4012 119.872 55.0047C120.751 54.6083 121.661 54.1958 123.392 53.2744C124.967 52.4387 125.792 51.9834 126.59 51.5495C127.474 51.0674 128.31 50.612 130.093 49.6692C131.518 48.9299 133.083 48.5442 134.62 48.5442M134.62 46.9371C132.815 46.9371 131.004 47.3871 129.354 48.2442C125.979 50.0227 126.006 50.0656 122.636 51.8548C119.267 53.6441 119.154 53.4298 115.785 55.219C112.415 57.0083 112.506 57.1797 109.142 58.9689C105.778 60.7581 105.762 60.7367 102.398 62.526C99.0336 64.3152 98.98 64.2188 95.6158 66.0134C92.2463 67.8026 92.3159 67.9365 88.9517 69.7311C85.5822 71.5203 85.5125 71.3918 82.1483 73.181C78.7788 74.9756 78.8538 75.1149 75.4842 76.9041C72.1147 78.6933 72.0183 78.5112 68.6434 80.2951C66.6345 81.3343 66.7791 84.4146 68.8523 85.3092C71.4986 86.3913 71.579 86.1931 74.22 87.2806C75.6825 87.9074 77.2306 88.2341 78.7788 88.2341C80.4502 88.2341 82.1108 87.8538 83.6322 87.061C87.0071 85.2824 86.9589 85.1914 90.3231 83.4021C93.6873 81.6129 93.7676 81.7575 97.1372 79.9683C100.507 78.1791 100.41 77.9969 103.774 76.2077C107.139 74.4185 107.171 74.4774 110.54 72.6882C113.905 70.8989 113.862 70.8132 117.231 69.024C120.601 67.2347 120.697 67.4169 124.067 65.6277C127.436 63.8384 127.345 63.667 130.709 61.8778C134.079 60.0832 134.122 60.1635 137.486 58.3689C140.856 56.5743 140.888 56.6333 144.263 54.8494C146.271 53.8101 146.1 50.9441 144.022 50.0495C141.375 48.9674 141.418 48.871 138.772 47.7835C137.438 47.2103 136.029 46.9318 134.62 46.9318V46.9371Z" fill="#D5E1E6"/>
<path d="M144.166 126.628C140.802 128.417 140.871 128.556 137.507 130.351C134.138 132.14 134.111 132.086 130.747 133.881C127.382 135.676 127.398 135.702 124.029 137.497C120.665 139.286 120.718 139.393 117.354 141.183C113.99 142.972 113.947 142.897 110.578 144.686C107.208 146.475 107.16 146.384 103.79 148.179C101.547 149.372 99.3047 150.57 97.0619 151.773C93.6923 153.568 93.7352 153.648 90.3656 155.443C86.9961 157.238 87.0229 157.286 83.648 159.064C80.7123 160.586 77.2196 160.607 74.1822 159.3C71.5412 158.212 71.5626 158.159 68.9055 157.098" stroke="#80949C" stroke-width="1.33329" stroke-linecap="round" stroke-linejoin="round"/>
<path d="M78.3663 159.814C78.3663 155.829 78.5538 155.829 78.5538 151.838C78.5538 147.847 78.3984 147.852 78.3984 143.861C78.3984 139.87 78.5913 139.87 78.5913 135.885C78.5913 131.899 78.3877 131.899 78.3877 127.908C78.3877 123.917 78.5645 123.917 78.5645 119.926C78.5645 115.935 78.5056 115.935 78.5056 111.944" stroke="#80949C" stroke-width="1.33329" stroke-linecap="round" stroke-linejoin="round"/>
<path d="M141.584 123.655C138.075 125.492 137.995 125.337 134.502 127.196C131.009 129.054 131.079 129.188 127.581 131.047C124.083 132.906 124.115 132.96 120.622 134.819C117.129 136.677 117.086 136.602 113.594 138.461C110.101 140.32 110.063 140.256 106.565 142.115C103.067 143.974 103.142 144.102 99.644 145.961C96.1459 147.82 96.1351 147.799 92.637 149.657C89.1389 151.516 89.1228 151.484 85.6033 153.306C84.3658 153.841 83.0427 152.968 83.0427 151.618C83.0427 147.959 83.0694 147.959 83.0694 144.3C83.0694 140.642 83.0694 140.642 83.0694 136.983C83.0694 133.324 82.9516 133.324 82.9516 129.665C82.9516 126.006 83.1069 126.006 83.1069 122.348C83.1069 118.689 83.0909 118.689 83.0909 115.03C83.0909 111.371 82.9248 111.371 82.9248 107.712C82.9248 104.053 83.1284 104.053 83.1284 100.389C83.1284 96.7251 82.9302 96.7304 82.9302 93.0662C82.9302 92.3216 83.4819 91.7163 84.1676 91.4163C87.6765 89.5788 87.6122 89.4663 91.1103 87.6075C94.6084 85.7486 94.603 85.7486 98.1012 83.8897C101.594 82.0308 101.626 82.0898 105.119 80.2309C108.612 78.372 108.579 78.3077 112.072 76.4489C115.565 74.59 115.624 74.6971 119.122 72.8383C122.62 70.9794 122.545 70.8455 126.043 68.9866C129.541 67.1277 129.622 67.2777 133.12 65.4188C136.618 63.56 136.564 63.4582 140.084 61.6368C141.321 61.1011 142.575 61.9743 142.575 63.3242C142.575 66.9831 142.682 66.9831 142.682 70.6419C142.682 74.3007 142.682 74.3007 142.682 77.9595C142.682 81.6184 142.73 81.6184 142.73 85.2772C142.73 88.936 142.73 88.936 142.73 92.5948C142.73 96.2536 142.602 96.2536 142.602 99.9125C142.602 103.571 142.553 103.571 142.553 107.23C142.553 110.889 142.564 110.889 142.564 114.553C142.564 118.217 142.628 118.212 142.628 121.876C142.628 122.621 142.28 123.365 141.595 123.665L141.584 123.655Z" fill="#3F535A"/>
<path d="M140.593 120.607C140.631 121.287 140.213 121.774 140.009 121.973C139.854 122.123 139.704 122.305 139.5 122.396C136.018 124.239 136.007 124.217 132.525 126.065C129.049 127.913 129.022 127.871 125.545 129.724C122.069 131.572 122.047 131.535 118.57 133.383C115.094 135.231 115.163 135.37 111.687 137.219C108.205 139.067 108.124 138.911 104.642 140.765C101.16 142.618 101.273 142.822 97.7961 144.67C94.3194 146.518 94.2712 146.438 90.7891 148.291C87.3071 150.145 87.3178 150.166 83.8358 152.015C83.4286 152.229 83.3537 152.69 83.6965 153C83.7447 153.043 83.7983 153.081 83.8572 153.129C84.5 153.67 85.3732 153.429 85.5768 153.359C85.6036 153.348 85.5768 153.231 85.5982 153.22C89.091 151.361 89.1981 151.565 92.6909 149.706C96.1836 147.847 96.1301 147.745 99.6228 145.886C103.116 144.027 103.057 143.92 106.549 142.067C110.042 140.208 110.133 140.385 113.626 138.526C117.119 136.667 117.054 136.544 120.547 134.685C124.04 132.826 124.099 132.938 127.592 131.085C131.084 129.231 131.1 129.247 134.593 127.389C138.086 125.53 138.102 125.556 141.595 123.698C141.611 123.692 141.584 123.606 141.595 123.596C142.082 123.371 142.629 123.076 142.629 121.533C142.184 120.473 141.713 120.783 140.577 120.617L140.593 120.607Z" fill="#D5E1E6"/>
<path d="M142.597 121.871C142.597 118.212 142.741 119.01 142.741 114.553C142.741 112.432 142.752 109.946 142.752 107.235C142.752 104.932 142.768 102.462 142.768 99.9178C142.768 97.5233 142.763 95.059 142.763 92.6002C142.763 90.1413 142.709 87.6718 142.709 85.2772C142.709 82.7326 142.661 80.263 142.661 77.9595C142.661 75.2489 142.816 72.7633 142.816 70.6365C142.816 66.2385 142.586 63.3939 142.586 63.3189C142.586 62.9814 142.591 62.4136 141.97 61.8779C141.364 61.3582 140.636 61.385 140.598 61.3904C140.598 61.3904 140.7 61.4547 140.7 61.46C140.7 65.1563 140.652 65.1563 140.652 68.8527C140.652 72.549 140.604 72.549 140.604 76.2453C140.604 79.9416 140.614 79.9416 140.614 83.6379C140.614 87.3343 140.523 87.3343 140.523 91.0306C140.523 94.7269 140.668 94.7269 140.668 98.4286C140.668 102.13 140.572 102.125 140.572 105.821C140.572 109.518 140.572 109.523 140.572 113.219C140.572 116.916 140.572 116.921 140.572 120.617C140.572 120.799 140.614 120.987 140.561 121.158C140.47 121.458 140.572 121.769 140.845 121.924C141.284 122.171 141.247 122.24 141.686 122.487C142.12 122.728 142.634 122.364 142.634 121.865C142.629 121.823 142.607 121.855 142.607 121.855L142.597 121.871Z" fill="#ABBBC1"/>
<path d="M132.065 121.887C128.69 123.628 128.599 123.462 125.235 125.224C121.87 126.987 121.929 127.104 118.56 128.867C115.196 130.629 115.185 130.613 111.821 132.376C108.451 134.138 108.435 134.111 105.071 135.874C101.707 137.636 101.707 137.642 98.3157 139.367C97.1211 139.886 95.7015 139.067 95.7015 137.765C95.7015 136.029 95.7926 136.029 95.7926 134.294C95.7926 133.57 96.3015 133.029 96.9658 132.745C100.341 131.004 100.314 130.94 103.678 129.178C107.042 127.415 107.01 127.345 110.374 125.578C113.738 123.815 113.776 123.885 117.14 122.122C120.504 120.36 120.435 120.221 123.804 118.453C127.174 116.685 127.222 116.787 130.608 115.057C131.802 114.537 133.233 115.351 133.233 116.653C133.233 118.389 133.152 118.389 133.152 120.124C133.152 120.847 132.729 121.597 132.07 121.881L132.065 121.887Z" fill="#60747B"/>
<path d="M130.725 79.4487C127.516 81.0987 127.575 81.2058 124.377 82.8825C121.179 84.5539 121.088 84.3771 117.895 86.0485C114.703 87.7199 114.783 87.886 111.585 89.5627C108.387 91.2394 108.419 91.2984 105.199 92.9376C104.005 93.4572 102.692 92.5037 102.692 91.2019C102.692 89.4663 102.719 89.4663 102.719 87.7306C102.719 87.0074 103.11 86.4449 103.769 86.161C106.978 84.5111 106.892 84.345 110.09 82.6736C113.288 81.0022 113.267 80.9701 116.465 79.2987C119.663 77.6273 119.679 77.6488 122.872 75.9774C126.065 74.306 126.027 74.2149 129.241 72.5757C130.436 72.0561 131.829 73.0471 131.829 74.3489C131.829 76.0845 131.941 76.0845 131.941 77.8202C131.941 78.5434 131.384 79.1702 130.72 79.4541L130.725 79.4487Z" fill="#60747B"/>
<path d="M123.89 104.755C120.681 106.405 120.729 106.496 117.531 108.168C114.333 109.839 114.311 109.796 111.119 111.473C107.921 113.144 107.963 113.225 104.765 114.896C101.567 116.567 101.551 116.541 98.3369 118.175C97.1423 118.694 95.7441 117.848 95.7441 116.546C95.7441 114.81 95.8994 114.81 95.8994 113.075C95.8994 112.351 96.2851 111.773 96.944 111.484C100.153 109.834 100.094 109.716 103.292 108.044C105.424 106.93 107.554 105.814 109.683 104.696C112.881 103.025 112.913 103.079 116.106 101.407C119.299 99.7358 119.218 99.5697 122.438 97.9358C123.633 97.4162 125.047 98.3858 125.047 99.6876C125.047 101.423 124.886 101.423 124.886 103.159C124.886 103.882 124.554 104.471 123.89 104.755Z" fill="#60747B"/>
<path d="M116.379 98.6482C113.374 100.196 113.347 100.153 110.353 101.723C107.358 103.293 107.39 103.357 104.391 104.927C101.391 106.496 101.369 106.459 98.3532 107.991C97.1586 108.51 95.8783 107.61 95.8783 106.309C95.8783 104.573 95.814 104.573 95.814 102.837C95.814 102.114 96.1997 101.386 96.8586 101.096C99.8639 99.5481 99.8371 99.4946 102.832 97.925C105.826 96.3554 105.917 96.5214 108.912 94.9518C111.906 93.3822 111.842 93.2483 114.858 91.7109C116.053 91.1912 117.403 92.1073 117.403 93.409C117.403 95.1447 117.413 95.1447 117.413 96.8804C117.413 97.6035 117.038 98.3589 116.374 98.6428L116.379 98.6482Z" fill="#F16341"/>
<path d="M115.56 119.481C111.103 121.78 111.162 121.897 106.694 124.18C105.499 124.699 104.182 123.81 104.182 122.508C104.182 120.772 104.155 120.772 104.155 119.037C104.155 118.314 104.605 117.703 105.269 117.414C109.726 115.116 109.678 115.019 114.14 112.737C115.335 112.217 116.626 113.096 116.626 114.398C116.626 116.133 116.685 116.133 116.685 117.869C116.685 118.592 116.219 119.192 115.56 119.481Z" fill="#F16341"/>
<path d="M129.879 112.191C125.422 114.489 125.449 114.543 120.987 116.825C119.792 117.344 118.49 116.573 118.49 115.271C118.49 113.535 118.405 113.535 118.405 111.8C118.405 111.077 118.989 110.525 119.648 110.241C124.105 107.943 124.035 107.809 128.503 105.527C129.697 105.007 131.122 105.864 131.122 107.166C131.122 108.902 130.886 108.902 130.886 110.637C130.886 111.36 130.538 111.907 129.879 112.196V112.191Z" fill="#FCBA44"/>
<path d="M125.363 93.9875C123.622 94.8714 123.702 95.0268 121.951 95.9C120.756 96.4196 119.449 95.5411 119.449 94.2393C119.449 92.5036 119.368 92.5036 119.368 90.768C119.368 90.0448 119.818 89.3323 120.477 89.043C122.218 88.1591 122.277 88.277 124.029 87.4091C125.224 86.8895 126.584 87.6663 126.584 88.968C126.584 90.7037 126.499 90.7037 126.499 92.4394C126.499 93.1625 126.027 93.7036 125.363 93.9929V93.9875Z" fill="#60747B"/>
<path d="M101.782 126.869C100.041 127.753 100.116 127.897 98.3642 128.771C97.1696 129.29 95.8303 128.379 95.8303 127.078C95.8303 125.342 95.7928 125.342 95.7928 123.606C95.7928 122.883 96.3071 122.342 96.966 122.053C98.707 121.169 98.6159 120.981 100.362 120.114C101.557 119.594 102.81 120.505 102.81 121.806C102.81 123.542 102.891 123.542 102.891 125.278C102.891 126.001 102.446 126.585 101.782 126.874V126.869Z" fill="#60747B"/>
<path d="M98.8407 96.3501C94.3837 98.6482 94.4855 98.8411 90.0178 101.123C88.8231 101.643 87.4303 100.743 87.4303 99.441C87.4303 97.7054 87.5107 97.7054 87.5107 95.9697C87.5107 95.2465 87.9553 94.6894 88.6142 94.4001C93.0712 92.102 92.9909 91.9466 97.4586 89.6645C98.6532 89.1449 100.014 90.0288 100.014 91.3306C100.014 93.0662 99.8746 93.0662 99.8746 94.8019C99.8746 95.5251 99.4996 96.0608 98.8407 96.3447V96.3501Z" fill="#60747B"/>
<path d="M140.518 52.9155C140.518 54.5762 137.583 56.0119 133.988 56.0119C130.394 56.0119 127.522 54.5815 127.522 52.9155C127.522 51.2495 130.394 49.8085 133.988 49.8085C137.583 49.8085 140.518 51.2549 140.518 52.9155Z" fill="#80949C"/>
<path d="M139.393 52.5566C139.393 54.0459 136.683 54.7477 133.988 54.7477C131.294 54.7477 128.658 54.0459 128.658 52.5566C128.658 49.5782 131.01 47.1354 133.988 47.1354C136.967 47.1354 139.393 49.5782 139.393 52.5566Z" fill="#253135"/>
<path d="M139.393 52.5566C139.393 54.0459 136.683 54.7477 133.988 54.7477C131.294 54.7477 128.658 54.0459 128.658 52.5566C128.658 49.5782 131.01 47.1354 133.988 47.1354C136.967 47.1354 139.393 49.5782 139.393 52.5566Z" stroke="#253135" stroke-width="1.33329" stroke-linecap="round" stroke-linejoin="round"/>
<path d="M132.897 47.7621C132.897 48.3144 133.345 48.7621 133.897 48.7621C134.449 48.7621 134.897 48.3144 134.897 47.7621H132.897ZM132.327 39.9356L133.239 39.5252L133.239 39.5248L132.327 39.9356ZM127.008 34.1179L126.602 35.0317L126.602 35.0318L127.008 34.1179ZM119.074 33.7911L118.841 32.8186L118.84 32.8188L119.074 33.7911ZM107.342 43.7497L106.451 43.2968L106.451 43.2971L107.342 43.7497ZM105.478 51.3727L104.478 51.3663L104.478 51.3688L105.478 51.3727ZM134.897 47.7621C134.897 44.8909 134.367 42.0313 133.239 39.5252L131.415 40.3459C132.409 42.5539 132.897 45.1263 132.897 47.7621H134.897ZM133.239 39.5248C132.035 36.8529 130.216 34.4487 127.414 33.204L126.602 35.0318C128.792 36.0048 130.327 37.9291 131.416 40.3463L133.239 39.5248ZM127.414 33.2041C125.036 32.147 122.163 32.0232 118.841 32.8186L119.307 34.7636C122.339 34.0376 124.737 34.2031 126.602 35.0317L127.414 33.2041ZM118.84 32.8188C116.158 33.4636 113.605 34.8019 111.465 36.7151L112.798 38.2062C114.697 36.5088 116.954 35.3293 119.308 34.7634L118.84 32.8188ZM111.465 36.7151C109.344 38.611 107.685 40.867 106.451 43.2968L108.234 44.2027C109.367 41.9719 110.88 39.9208 112.798 38.2062L111.465 36.7151ZM106.451 43.2971C105.125 45.9091 104.495 48.7249 104.478 51.3663L106.478 51.3792C106.493 49.0386 107.053 46.5295 108.234 44.2024L106.451 43.2971ZM104.478 51.3688C104.472 52.9446 105.006 54.5416 105.65 55.9701C106.296 57.4009 107.108 58.7772 107.712 59.8656L109.461 58.8944C108.821 57.7429 108.074 56.4789 107.473 55.1477C106.872 53.8142 106.474 52.5276 106.478 51.3767L104.478 51.3688Z" fill="#60747B"/>
<path d="M147.707 54.5975L145.591 54.2546" stroke="#FCBA44" stroke-width="1.33329" stroke-miterlimit="10" stroke-linecap="round"/>
<path d="M149.288 46.8835L144.724 48.6139" stroke="#FCBA44" stroke-width="1.33329" stroke-miterlimit="10" stroke-linecap="round"/>
<path d="M142.292 42.7747L141.156 44.1621" stroke="#FCBA44" stroke-width="1.33329" stroke-miterlimit="10" stroke-linecap="round"/>
<path d="M136.624 37.2784L135.836 42.0944" stroke="#FCBA44" stroke-width="1.33329" stroke-miterlimit="10" stroke-linecap="round"/>
<path d="M129.675 41.5747L130.2 42.9622" stroke="#FCBA44" stroke-width="1.33329" stroke-miterlimit="10" stroke-linecap="round"/>
<path d="M121.967 43.4443L125.749 46.53" stroke="#FCBA44" stroke-width="1.33329" stroke-miterlimit="10" stroke-linecap="round"/>
<path d="M121.699 51.5281L123.681 51.8495" stroke="#FCBA44" stroke-width="1.33329" stroke-miterlimit="10" stroke-linecap="round"/>
</svg>
