<svg width="233" height="85" viewBox="0 0 233 85" fill="none" xmlns="http://www.w3.org/2000/svg">
<path d="M0 82C0 83.1046 0.895431 84 2 84H231C232.105 84 233 83.1046 233 82V54H0V82Z" fill="white"/>
<path d="M38.6909 74H37.5483V65.8687H34.5967V64.8403H41.6426V65.8687H38.6909V74ZM44.506 68.0015C43.9601 68.0015 43.5115 68.1855 43.1603 68.5537C42.8091 68.9219 42.6123 69.4085 42.57 70.0137H46.3405C46.3278 69.4085 46.1543 68.9219 45.82 68.5537C45.4857 68.1855 45.0477 68.0015 44.506 68.0015ZM46.3087 72.229H47.4005C47.2355 72.8215 46.8991 73.2848 46.3913 73.6191C45.8877 73.9535 45.2635 74.1206 44.5187 74.1206C43.5708 74.1206 42.8196 73.8032 42.2653 73.1685C41.7109 72.5295 41.4337 71.6683 41.4337 70.585C41.4337 69.5059 41.713 68.6447 42.2716 68.0015C42.8302 67.3582 43.5792 67.0366 44.5187 67.0366C45.4412 67.0366 46.167 67.3434 46.6959 67.957C47.2249 68.5706 47.4894 69.4106 47.4894 70.4771V70.896H42.57V70.9468C42.5996 71.6239 42.79 72.1613 43.1413 72.5591C43.4967 72.9569 43.9643 73.1558 44.5441 73.1558C45.4285 73.1558 46.0167 72.8468 46.3087 72.229ZM51.1526 71.4165H51.0511L49.4261 74H48.1883L50.5306 70.5786L48.1629 67.1572H49.4641L51.0891 69.7026H51.1907L52.7967 67.1572H54.0345L51.7112 70.5342L54.0662 74H52.7713L51.1526 71.4165ZM55.7934 65.3862H56.8852V67.1572H58.4086V68.0713H56.8852V71.9434C56.8852 72.3454 56.9656 72.6374 57.1264 72.8193C57.2872 73.0013 57.5453 73.0923 57.9008 73.0923C58.0574 73.0923 58.2267 73.0838 58.4086 73.0669V73.9873C58.1674 74.0296 57.9537 74.0508 57.7675 74.0508C57.0608 74.0508 56.5551 73.909 56.2504 73.6255C55.9457 73.342 55.7934 72.8743 55.7934 72.2227V68.0713H54.6889V67.1572H55.7934V65.3862Z" fill="#4B4848"/>
<path d="M16.5 74V64H13V66H11V62H25V66H23V64H19.5V74H21.5V76H14.5V74H16.5Z" fill="#858282"/>
<rect width="231" height="54" transform="translate(1)" fill="white"/>
<rect width="231" height="54" transform="translate(1)" fill="#69B5FF" fill-opacity="0.15"/>
<g filter="url(#filter0_d)">
<rect width="213" height="26" transform="translate(10 14)" fill="white"/>
<path d="M24.7285 30.9717V32H19.168V22.8403H20.3105V30.9717H24.7285ZM28.3029 31.1621C28.8657 31.1621 29.3312 30.9992 29.6994 30.6733C30.0718 30.3475 30.258 29.9391 30.258 29.4482V28.8198L28.4171 28.9404C27.9009 28.9743 27.5221 29.0822 27.2809 29.2642C27.0397 29.4461 26.9191 29.7106 26.9191 30.0576C26.9191 30.4004 27.0482 30.6712 27.3063 30.8701C27.5644 31.0648 27.8966 31.1621 28.3029 31.1621ZM28.0998 32.1206C27.4269 32.1206 26.8725 31.9365 26.4367 31.5684C26.005 31.196 25.7892 30.7008 25.7892 30.083C25.7892 29.4736 26.005 28.9954 26.4367 28.6484C26.8683 28.3014 27.484 28.1047 28.2838 28.0581L30.258 27.9375V27.3154C30.258 26.8923 30.1268 26.5685 29.8644 26.3442C29.602 26.12 29.2169 26.0078 28.7091 26.0078C28.2986 26.0078 27.958 26.0819 27.6872 26.23C27.4163 26.3781 27.2428 26.5876 27.1666 26.8584H26.0622C26.1341 26.3125 26.4155 25.8724 26.9064 25.5381C27.4015 25.2038 28.0151 25.0366 28.7472 25.0366C29.5766 25.0366 30.2178 25.2376 30.6706 25.6396C31.1234 26.0417 31.3498 26.6003 31.3498 27.3154V32H30.3087V30.9907H30.2072C29.9871 31.3547 29.6951 31.634 29.3312 31.8286C28.9673 32.0233 28.5568 32.1206 28.0998 32.1206ZM36.5491 32.1206C36.0752 32.1206 35.6435 32.0148 35.2542 31.8032C34.8691 31.5874 34.5686 31.2891 34.3528 30.9082H34.2513V32H33.2102V22.4404H34.302V26.2363H34.4036C34.5898 25.8682 34.8754 25.5762 35.2605 25.3604C35.6499 25.1445 36.0794 25.0366 36.5491 25.0366C37.4209 25.0366 38.117 25.3582 38.6375 26.0015C39.158 26.6447 39.4183 27.5037 39.4183 28.5786C39.4183 29.6493 39.1559 30.5083 38.6311 31.1558C38.1106 31.799 37.4166 32.1206 36.5491 32.1206ZM36.2952 26.0205C35.6731 26.0205 35.1801 26.249 34.8162 26.7061C34.4565 27.1631 34.2766 27.7873 34.2766 28.5786C34.2766 29.37 34.4565 29.9941 34.8162 30.4512C35.1801 30.9082 35.6731 31.1367 36.2952 31.1367C36.9215 31.1367 37.4103 30.9103 37.7615 30.4575C38.1127 30.0047 38.2884 29.3784 38.2884 28.5786C38.2884 27.7788 38.1127 27.1525 37.7615 26.6997C37.4103 26.2469 36.9215 26.0205 36.2952 26.0205ZM43.6401 26.0015C43.0942 26.0015 42.6456 26.1855 42.2944 26.5537C41.9431 26.9219 41.7464 27.4085 41.704 28.0137H45.4745C45.4618 27.4085 45.2883 26.9219 44.954 26.5537C44.6197 26.1855 44.1817 26.0015 43.6401 26.0015ZM45.4428 30.229H46.5346C46.3696 30.8215 46.0331 31.2848 45.5253 31.6191C45.0217 31.9535 44.3976 32.1206 43.6528 32.1206C42.7049 32.1206 41.9537 31.8032 41.3993 31.1685C40.845 30.5295 40.5678 29.6683 40.5678 28.585C40.5678 27.5059 40.8471 26.6447 41.4057 26.0015C41.9643 25.3582 42.7133 25.0366 43.6528 25.0366C44.5753 25.0366 45.301 25.3434 45.83 25.957C46.359 26.5706 46.6235 27.4106 46.6235 28.4771V28.896H41.704V28.9468C41.7337 29.6239 41.9241 30.1613 42.2753 30.5591C42.6308 30.9569 43.0984 31.1558 43.6782 31.1558C44.5626 31.1558 45.1508 30.8468 45.4428 30.229ZM48.1793 32V22.4404H49.2711V32H48.1793Z" fill="black"/>
</g>
<path d="M232 54V83C232 83.5523 231.552 84 231 84H2C1.44772 84 1 83.5523 1 83V54" stroke="#F0F0F0"/>
<defs>
<filter id="filter0_d" x="2" y="6" width="229" height="42" filterUnits="userSpaceOnUse" color-interpolation-filters="sRGB">
<feFlood flood-opacity="0" result="BackgroundImageFix"/>
<feColorMatrix in="SourceAlpha" type="matrix" values="0 0 0 0 0 0 0 0 0 0 0 0 0 0 0 0 0 0 127 0"/>
<feOffset/>
<feGaussianBlur stdDeviation="4"/>
<feColorMatrix type="matrix" values="0 0 0 0 0 0 0 0 0 0 0 0 0 0 0 0 0 0 0.1 0"/>
<feBlend mode="normal" in2="BackgroundImageFix" result="effect1_dropShadow"/>
<feBlend mode="normal" in="SourceGraphic" in2="effect1_dropShadow" result="shape"/>
</filter>
</defs>
</svg>
