<svg width="216" height="198" viewBox="0 0 216 198" fill="none" xmlns="http://www.w3.org/2000/svg">
    <path d="m57 197.102 52-18-52-24-50 19 50 23z" fill="url(#hfkt8n7uya)"/>
    <path d="m108 117.102 53-24v62l-53 24v-62z" fill="#DACEB8"/>
    <path d="M154.443 112.271 121 128.102l.298 35.998 33.442-15.83-.297-35.999z" fill="#FF6D2D"/>
    <path d="M150.443 110.271 117 126.102l.298 35.998 33.442-15.83-.297-35.999z" fill="#fff"/>
    <path fill-rule="evenodd" clip-rule="evenodd" d="m117 126.102 34.346-16.259.306 36.999-34.346 16.258-.306-36.998zm.912.572.289 34.998 32.539-15.402-.289-34.999-32.539 15.403z" fill="#000"/>
    <path d="M129.338 142.678c-.137-.193.061-1.28-.016-2-.754 1.565-1.02 2.49-2.695 3.284-1.249.591-2.876 1.018-3.624.711-.748-.306-.919-1.401-.929-2.572-.018-2.262 1.588-3.441 4.495-5.139l1.799-1.856c.573-.351.656-.092.904-.427.248-.336-.005-.566-.008-1-.004-.529.3-1.9-.017-2-.316-.101-1.056.499-1.807.855-.809.383-.555-.032-.904.428-.349.461-.825 2.675-.879 3.428l-3.616 1.711c.138-2.899 2.134-6.029 5.382-7.567 3.16-1.495 5.436-1.053 5.456 1.433l.058 7c.009 1.091-.296 1.667.017 2l-3.616 1.711zm-.92-1.572c.539-.779.887-2.449.879-3.427l-.008-1c-.263.381-.302.062-.904.427l-.904.428c-.734.446-1.486 1.428-1.799 1.856-.314.428.002.469.008 1 .004.53-.316 1.86.016 2 .333.14.287-.134.904-.428.867-.408 1.269-.078 1.808-.856zM135.017 143.101l-.017-1.999 10.846-5.135.017 2-10.846 5.134z" fill="#000"/>
    <path d="m108 117.102-53-24v62l53 24v-62z" fill="#EBE2D3"/>
    <path d="M108 70.102v47l53-24-53-23z" fill="#DACEB8"/>
    <path d="M108 70.102v47l-53-24 53-23zM160 93.102l-51 25 34 1 47-26h-30z" fill="#EBE2D3"/>
    <path d="m32 109.102 24-16 53 25-21 18-56-27zM109 70.102l-53 23-17-22 56-21 14 20z" fill="#DACEB8"/>
    <path d="m127 49.102-18 21 52 23 16-22-50-22z" fill="#EBE2D3"/>
    <path d="m141 62.102-2 7M148 64.102l-4 4" stroke="#EE7541" stroke-width="1.168" stroke-linecap="round"/>
    <path d="M91.43 130.628c3.434-18.223 6.286-61.182-12.938-86.142-19.225-24.96-28.854-27.515-34.836-26.961" stroke="url(#limxgln6bb)" stroke-width="6"/>
    <rect x="62.002" y="15.102" width="36" height="16" rx="8" fill="#FF6D2D"/>
    <path d="m76.056 20.048-1.389 4.45-1.404-4.45h-1.61v5.554h.96v-4.657l1.538 4.657h1.008l1.54-4.713v4.713h.96v-5.554h-1.603zm3.172 1.016c.326 0 .58-.254.58-.58a.572.572 0 0 0-.58-.579.572.572 0 0 0-.579.58c0 .325.254.579.58.579zm-.46 4.538h.905v-3.967h-.905v3.967zm4.51-1.492c.547-.23.888-.706.888-1.317 0-.754-.507-1.27-1.317-1.27-.634 0-1.126.318-1.364.85v-2.325h-.905v5.554h.905v-1.944c0-.81.428-1.333 1.04-1.333.396 0 .697.222.697.627 0 .468-.404.817-1.04.817v.619c.596.055 1.056.492 1.183 1.214h1.047c-.166-.73-.587-1.238-1.134-1.492zm4.418.238c-.135.365-.484.571-.928.571-.635 0-1-.389-1.079-1.047h2.824c.381-1.301-.34-2.348-1.737-2.348-1.254 0-2.047.833-2.047 2.094 0 1.262.785 2.095 2.023 2.095.992 0 1.698-.532 1.928-1.365h-.984zm-.936-2.063c.627 0 .952.373.897.944h-1.952c.095-.61.46-.944 1.055-.944z" fill="#fff"/>
    <g filter="url(#gqipfqli6c)">
        <path d="m51 26.102 2-8c.288-.686.315-.712 1-1l8-2c.54-.228.69-.503 1-1 .31-.498.033-2.415 0-3-.033-.586-.635-.54-1-1-.365-.46-1.437-.835-2-1l-16-5c-.49-.145-1.505-.127-2 0-.495.126-.639.638-1 1-.361.36-.874.505-1 1-.126.494-.144 1.51 0 2l5 16c.166.563.54 1.635 1 2 .46.364.414.966 1 1 .586.032 2.502.31 3 0 .498-.311.772-.46 1-1z" fill="#FF6D2D"/>
        <path d="m51 26.102 2-8c.288-.686.315-.712 1-1l8-2c.54-.228.69-.503 1-1 .31-.498.033-2.415 0-3-.033-.586-.635-.54-1-1-.365-.46-1.437-.835-2-1l-16-5c-.49-.145-1.505-.127-2 0-.495.126-.639.638-1 1-.361.36-.874.505-1 1-.126.494-.144 1.51 0 2l5 16c.166.563.54 1.635 1 2 .46.364.414.966 1 1 .586.032 2.502.31 3 0 .498-.311.772-.46 1-1z" stroke="#fff" stroke-width="1.922" stroke-linecap="round" stroke-linejoin="round"/>
    </g>
    <g filter="url(#9zcvey32od)">
        <circle cx="16.5" cy="16.5" transform="matrix(.99921 .0396 -.24346 .96991 106 14.102)" fill="#5E5DC1" r="16.5"/>
    </g>
    <path d="m125.309 33.364 1.461-5.82c.026-.103.277-.878.244-.97-.034-.09.083.055 0 0l-6.02-4.156c-.08-.053.106.004 0 0-.107-.004.104-.046 0 0l-8.968 3.563c-.109.047.078-.087 0 0-.079.087-.217.867-.244.97l-1.461 5.82c-.026.102-.278.878-.244.969.034.091-.084-.055 0 0l7.019 4.196c.08.053-.106-.004 0 0 .107.004-.104.046 0 0l7.969-3.602c.109-.047-.078.086 0 0 .078-.087.217-.867.244-.97v0z" stroke="#fff" stroke-width="1.165" stroke-linecap="round" stroke-linejoin="round"/>
    <path d="m126.988 27.695-7.969 3.603L112 27.102M118 31.102l-2.192 8.729" stroke="#fff" stroke-width="1.165" stroke-linecap="round" stroke-linejoin="round"/>
    <path d="m116.001 54.102-1 7M121.001 59.102v5M104 54.102v4M59.965 64.841l2.588 7.428M67 67.102l2.22 4.48M48 67.102l1.776 3.584" stroke="#5E5DC1" stroke-width="1.168" stroke-linecap="round"/>
    <path d="M109 116.102s1.098-20.08 23-30c21.902-9.92 42-6 42-6" stroke="url(#cvdc7dqare)" stroke-width="4.673" stroke-linecap="round"/>
    <path d="M193.129 103.014c-2.781 1.197-6.627 2.066-9.187 1.951-2.559-.115-4.5-.826-6.43-2.234-1.93-1.408-3.6-3.548-4.593-6.024-.993-2.476-1.021-5.456-.919-8.605.102-3.15.656-6.469 1.837-9.79 1.182-3.322 2.521-6.012 4.593-8.976 2.073-2.964 5.636-6.422 8.268-8.556 2.633-2.134 4.576-3.196 7.349-4.16l-.918 16.395c-.852.296-1.947.529-2.756 1.185-.809.656-1.201.88-1.837 1.79-.637.91-.556 1.374-.919 2.395-.363 1.02-.887 3.427-.919 4.395-.031.968-.305 1.24 0 2s1.245 1.777 1.838 2.21c.593.432 1.05.174 1.837.21.786.035 1.901.182 2.756-.186v16z" fill="#D3B8AC"/>
    <path d="M213.664 75.403c0 4.329-1.259 9.088-3.597 13.596-2.338 4.508-5.634 8.532-9.416 11.497-3.782 2.964-7.857 4.717-11.639 5.006-3.782.289-7.079-.901-9.416-3.398l8.939-10.915c.966 1.032 2.328 1.524 3.892 1.404 1.563-.119 3.246-.843 4.809-2.068 1.563-1.225 2.925-2.888 3.891-4.751.966-1.863 1.487-3.83 1.487-5.619l11.05-4.752z" fill="#FF6D2D"/>
    <path d="M193.999 58.102c3.305-1.422 7.186-2.99 10.105-2.346 4.53.996 5.495 3.282 7.349 5.839 1.855 2.556 3.318 6.544 3.675 10.42.357 3.874-.614 7.499-1.837 11.79l-11.943.136c.513-1.796 1.987-4.168 1.838-5.79-.15-1.623-1.98-2.745-2.756-3.815-.776-1.07-.615-1.94-1.838-2.21-1.222-.269-3.209.38-4.593.976v-15z" fill="#3F3E87"/>
    <path d="M194.831 104.002c-2.531 1.089-5.036 1.611-7.366 1.535-2.33-.076-4.436-.748-6.193-1.977-1.756-1.228-3.128-2.988-4.032-5.173-.903-2.185-1.321-4.752-1.228-7.545.093-2.794.695-5.758 1.771-8.715a35.898 35.898 0 0 1 4.487-8.496c1.886-2.65 4.093-5.004 6.49-6.923 2.396-1.919 4.932-3.363 7.457-4.246l-.96 14.575c-.776.272-1.555.716-2.291 1.305a10.62 10.62 0 0 0-1.994 2.127 11.073 11.073 0 0 0-1.379 2.61 8.778 8.778 0 0 0-.544 2.678c-.028.859.1 1.647.378 2.319.277.67.699 1.212 1.238 1.589.54.377 1.187.584 1.903.607.716.024 1.486-.137 2.263-.471v14.201z" fill="#FDE3D7"/>
    <path d="M194.831 63.002c3.195-1.374 6.337-1.84 9.131-1.356 2.794.484 5.148 1.904 6.841 4.125 1.692 2.221 2.668 5.17 2.835 8.572.167 3.4-.481 7.14-1.881 10.868l-9.84-.993c.586-1.56.857-3.127.787-4.55-.07-1.424-.478-2.659-1.187-3.588a4.49 4.49 0 0 0-2.863-1.727c-1.17-.203-2.485-.007-3.823.568V63.002z" fill="#5E5DC1"/>
    <circle cx="10.5" cy="10.5" r="10.5" transform="matrix(.91864 -.3951 0 1 184.999 78.102)" fill="#fff"/>
    <path d="M48 89.102s17.407-5.922 34 0c16.593 5.92 22 19.999 22 19.999" stroke="url(#oq05vubwdf)" stroke-width="4.673" stroke-linecap="round"/>
    <g clip-path="url(#bklvwayvrg)">
        <g clip-path="url(#s0bxr3kv6h)">
            <path d="M3.73 82.442c0-1.38 1.068-2.832 2.387-3.242 1.318-.41 2.387.377 2.387 1.758v26c0 1.381-1.069 2.832-2.387 3.242-1.319.41-2.387-.377-2.387-1.758v-26z" fill="#DADAF0"/>
            <path d="M3.73 91.442c0-1.38 1.068-2.832 2.387-3.242 1.318-.41 2.387.377 2.387 1.758v17c0 1.381-1.069 2.832-2.387 3.242-1.319.41-2.387-.377-2.387-1.758v-17z" fill="#5E5DC1"/>
        </g>
        <g clip-path="url(#gy10hazesi)">
            <path d="M13.02 68.554c0-1.38 1.07-2.832 2.388-3.242 1.319-.41 2.387.377 2.387 1.758v36c0 1.381-1.068 2.832-2.387 3.242-1.318.41-2.387-.377-2.387-1.758v-36z" fill="#DADAF0"/>
            <path d="M13.02 80.554c0-1.38 1.07-2.832 2.388-3.242 1.319-.41 2.387.377 2.387 1.758v24c0 1.381-1.068 2.832-2.387 3.242-1.318.41-2.387-.377-2.387-1.758v-24z" fill="#5E5DC1"/>
        </g>
        <g clip-path="url(#qw8ehsn24j)">
            <path d="M22.312 86.666c0-1.38 1.069-2.832 2.387-3.242 1.319-.41 2.387.377 2.387 1.758v15c0 1.381-1.068 2.832-2.387 3.242-1.318.41-2.387-.377-2.387-1.758v-15z" fill="#DADAF0"/>
            <path d="M22.312 93.666c0-1.38 1.069-2.832 2.387-3.242 1.319-.41 2.387.377 2.387 1.758v10c0 1.381-1.068 2.832-2.387 3.242-1.318.41-2.387-.377-2.387-1.758v-10z" fill="#5E5DC1"/>
        </g>
        <g clip-path="url(#335n8uim9k)">
            <path d="M31.603 70.778c0-1.38 1.069-2.832 2.387-3.242 1.319-.41 2.387.377 2.387 1.758v28c0 1.38-1.068 2.832-2.387 3.242-1.318.41-2.387-.377-2.387-1.758v-28z" fill="#DADAF0"/>
            <path d="M31.603 79.778c0-1.38 1.069-2.832 2.387-3.242 1.319-.41 2.387.377 2.387 1.758v19c0 1.38-1.068 2.832-2.387 3.242-1.318.41-2.387-.377-2.387-1.758v-19z" fill="#5E5DC1"/>
        </g>
    </g>
    <rect width="44" height="12" rx="6" transform="matrix(.9753 -.22092 .43878 .8986 19 54.102)" fill="#2B2F3C"/>
    <rect width="33" height="12" rx="6" transform="matrix(.9753 -.22092 .43878 .8986 19 54.102)" fill="#5E5DC1"/>
    <mask id="1u5omw259l" style="mask-type:alpha" maskUnits="userSpaceOnUse" x="21" y="47" width="34" height="17">
        <rect width="33" height="12" rx="6" transform="matrix(.9753 -.22092 .43878 .8986 19 54.102)" fill="#7962EE"/>
    </mask>
    <g mask="url(#1u5omw259l)">
        <path fill-rule="evenodd" clip-rule="evenodd" d="M21.98 42.805 9.64 68.553l.901.432 12.34-25.749-.9-.431zm3.981-.902-12.34 25.749.901.431 12.34-25.748-.901-.432zM17.602 66.75 29.942 41l.9.432-12.339 25.749-.9-.432zm16.32-26.65L21.584 65.847l.9.432 12.34-25.749-.9-.431zm-8.358 24.846 12.34-25.748.9.431-12.34 25.75-.9-.433zm16.32-26.65-12.34 25.749.901.431 12.34-25.748-.9-.432zm-8.358 24.847 12.34-25.749.9.432-12.34 25.749-.9-.432zm16.32-26.65L37.506 62.24l.901.432 12.34-25.749-.9-.431zM41.487 61.34l12.34-25.75.9.432-12.339 25.75-.9-.432zm16.32-26.65L45.469 60.437l.9.432 12.34-25.75-.9-.43zM49.45 59.535l12.34-25.749.9.432-12.34 25.749-.9-.432zm16.32-26.65L53.43 58.634l.902.432 12.34-25.749-.901-.431zm-8.358 24.847 12.34-25.749.9.432-12.34 25.748-.9-.431zm16.32-26.65L61.391 56.83l.901.432 12.34-25.75-.9-.43zm-8.359 24.846 12.34-25.749.9.432-12.339 25.749-.9-.432zm16.321-26.65-12.34 25.749.901.431 12.34-25.749-.901-.431z" fill="#fff"/>
    </g>
    <g filter="url(#gsrt3lwoqm)">
        <g clip-path="url(#7ap7ur2gwn)">
            <rect width="26" height="14" rx="7" transform="matrix(.9958 .0916 -.29292 .95614 145 43.102)" fill="#EE7541"/>
            <g filter="url(#5eyq28559o)">
                <circle cx="5.842" cy="5.842" r="5.842" transform="matrix(.9958 .0916 -.29292 .95614 157.754 45.414)" fill="#fff"/>
            </g>
        </g>
    </g>
    <defs>
        <clipPath id="bklvwayvrg">
            <path fill="#fff" transform="matrix(.95493 -.29683 0 1 0 65.102)" d="M0 0h42v46H0z"/>
        </clipPath>
        <clipPath id="s0bxr3kv6h">
            <path d="M3.73 81.244c0-.719.556-1.475 1.243-1.688l2.288-.712c.687-.213 1.243.197 1.243.916v29.698l-4.774 1.484V81.244z" fill="#fff"/>
        </clipPath>
        <clipPath id="gy10hazesi">
            <path d="M13.02 67.356c0-.719.557-1.475 1.244-1.688l2.288-.712c.687-.213 1.243.197 1.243.916v39.698l-4.774 1.484V67.356z" fill="#fff"/>
        </clipPath>
        <clipPath id="qw8ehsn24j">
            <path d="M22.312 85.468c0-.719.556-1.475 1.243-1.688l2.288-.711c.687-.214 1.243.196 1.243.915v18.698l-4.774 1.484V85.468z" fill="#fff"/>
        </clipPath>
        <clipPath id="335n8uim9k">
            <path d="M31.603 69.58c0-.719.556-1.475 1.243-1.688l2.288-.711c.687-.214 1.243.196 1.243.915v31.698l-4.774 1.484V69.58z" fill="#fff"/>
        </clipPath>
        <clipPath id="7ap7ur2gwn">
            <rect width="26" height="14" rx="7" transform="matrix(.9958 .0916 -.29292 .95614 145 43.102)" fill="#fff"/>
        </clipPath>
        <linearGradient id="hfkt8n7uya" x1="74.424" y1="171.387" x2="68.46" y2="185.994" gradientUnits="userSpaceOnUse">
            <stop stop-color="#EDEDED"/>
            <stop offset="1" stop-color="#F7F7F7" stop-opacity="0"/>
        </linearGradient>
        <linearGradient id="limxgln6bb" x1="38.225" y1="18.041" x2="92.366" y2="110.905" gradientUnits="userSpaceOnUse">
            <stop stop-color="#FF6D2D"/>
            <stop offset="1" stop-color="#FF6D2D" stop-opacity="0"/>
        </linearGradient>
        <linearGradient id="cvdc7dqare" x1="175.806" y1="81.004" x2="131.83" y2="118.977" gradientUnits="userSpaceOnUse">
            <stop stop-color="#5E5DC1"/>
            <stop offset="1" stop-color="#5E5DC1" stop-opacity="0"/>
        </linearGradient>
        <linearGradient id="oq05vubwdf" x1="45.926" y1="86.731" x2="99.229" y2="81.326" gradientUnits="userSpaceOnUse">
            <stop stop-color="#5E5DC1"/>
            <stop offset="1" stop-color="#5E5DC1" stop-opacity="0"/>
        </linearGradient>
        <filter id="gqipfqli6c" x="31.889" y=".476" width="39.267" height="39.267" filterUnits="userSpaceOnUse" color-interpolation-filters="sRGB">
            <feFlood flood-opacity="0" result="BackgroundImageFix"/>
            <feColorMatrix in="SourceAlpha" values="0 0 0 0 0 0 0 0 0 0 0 0 0 0 0 0 0 0 127 0" result="hardAlpha"/>
            <feOffset dy="4.486"/>
            <feGaussianBlur stdDeviation="3.524"/>
            <feComposite in2="hardAlpha" operator="out"/>
            <feColorMatrix values="0 0 0 0 0 0 0 0 0 0 0 0 0 0 0 0 0 0 0.25 0"/>
            <feBlend in2="BackgroundImageFix" result="effect1_dropShadow_3933_98129"/>
            <feBlend in="SourceGraphic" in2="effect1_dropShadow_3933_98129" result="shape"/>
        </filter>
        <filter id="9zcvey32od" x="101.497" y="14.742" width="34.733" height="34.393" filterUnits="userSpaceOnUse" color-interpolation-filters="sRGB">
            <feFlood flood-opacity="0" result="BackgroundImageFix"/>
            <feColorMatrix in="SourceAlpha" values="0 0 0 0 0 0 0 0 0 0 0 0 0 0 0 0 0 0 127 0" result="hardAlpha"/>
            <feOffset dx=".786" dy="2.358"/>
            <feComposite in2="hardAlpha" operator="out"/>
            <feColorMatrix values="0 0 0 0 0.168627 0 0 0 0 0.184314 0 0 0 0 0.235294 0 0 0 1 0"/>
            <feBlend in2="BackgroundImageFix" result="effect1_dropShadow_3933_98129"/>
            <feBlend in="SourceGraphic" in2="effect1_dropShadow_3933_98129" result="shape"/>
        </filter>
        <filter id="gsrt3lwoqm" x="140.02" y="43.102" width="38.186" height="21.43" filterUnits="userSpaceOnUse" color-interpolation-filters="sRGB">
            <feFlood flood-opacity="0" result="BackgroundImageFix"/>
            <feColorMatrix in="SourceAlpha" values="0 0 0 0 0 0 0 0 0 0 0 0 0 0 0 0 0 0 127 0" result="hardAlpha"/>
            <feOffset dx="2.337" dy="2.337"/>
            <feComposite in2="hardAlpha" operator="out"/>
            <feColorMatrix values="0 0 0 0 0.168627 0 0 0 0 0.184314 0 0 0 0 0.235294 0 0 0 1 0"/>
            <feBlend in2="BackgroundImageFix" result="effect1_dropShadow_3933_98129"/>
            <feBlend in="SourceGraphic" in2="effect1_dropShadow_3933_98129" result="shape"/>
        </filter>
        <filter id="5eyq28559o" x="152.795" y="43.923" width="18.13" height="17.223" filterUnits="userSpaceOnUse" color-interpolation-filters="sRGB">
            <feFlood flood-opacity="0" result="BackgroundImageFix"/>
            <feColorMatrix in="SourceAlpha" values="0 0 0 0 0 0 0 0 0 0 0 0 0 0 0 0 0 0 127 0" result="hardAlpha"/>
            <feOffset dy="1"/>
            <feGaussianBlur stdDeviation="1"/>
            <feColorMatrix values="0 0 0 0 0.0627451 0 0 0 0 0.0941176 0 0 0 0 0.156863 0 0 0 0.06 0"/>
            <feBlend in2="BackgroundImageFix" result="effect1_dropShadow_3933_98129"/>
            <feColorMatrix in="SourceAlpha" values="0 0 0 0 0 0 0 0 0 0 0 0 0 0 0 0 0 0 127 0" result="hardAlpha"/>
            <feOffset dy="1"/>
            <feGaussianBlur stdDeviation="1.5"/>
            <feColorMatrix values="0 0 0 0 0.0627451 0 0 0 0 0.0941176 0 0 0 0 0.156863 0 0 0 0.1 0"/>
            <feBlend in2="effect1_dropShadow_3933_98129" result="effect2_dropShadow_3933_98129"/>
            <feBlend in="SourceGraphic" in2="effect2_dropShadow_3933_98129" result="shape"/>
        </filter>
    </defs>
</svg>
