<svg xmlns="http://www.w3.org/2000/svg" xmlns:xlink="http://www.w3.org/1999/xlink" width="963" height="720" fill="none" xmlns:v="https://vecta.io/nano"><style><![CDATA[.B{fill:#fafafa}.C{fill:#ffe6db}.D{fill:#ccc}.E{fill:#fff}.F{fill:#e0dede}.G{fill:#6b6b6b}.H{fill:#f0f0f0}.I{stroke:#000}.J{fill:#f86a2b}.K{fill:#4b4848}.L{stroke-width:2.481}]]></style><g class="I L"><path d="M407 657.717V542.333c0-4.112 3.333-7.445 7.444-7.445h133.994c4.112 0 7.445 3.333 7.445 7.445v115.384s-12.407 17.369-74.442 17.369S407 657.717 407 657.717z" fill="#f3f3f3"/><path d="M407 657.716v-37.22s19.851 14.888 74.441 14.888 74.442-14.888 74.442-14.888v37.22s-19.851 17.37-74.442 17.37S407 657.716 407 657.716z" class="C"/><path d="M407 616.774v-37.221s19.851 14.888 74.441 14.888 74.442-14.888 74.442-14.888v37.221s0 17.369-74.442 17.369S407 616.774 407 616.774z" fill="#e9e9e9"/><path d="M554.642 538.61c0 1.86-1.538 3.988-5.241 6.176-3.619 2.14-8.94 4.109-15.623 5.78-13.347 3.337-31.851 5.414-52.337 5.414s-38.99-2.077-52.337-5.414c-6.683-1.671-12.003-3.64-15.623-5.78-3.702-2.188-5.24-4.316-5.24-6.176s1.538-3.987 5.24-6.176c3.62-2.139 8.94-4.109 15.623-5.78 13.347-3.336 31.852-5.413 52.337-5.413s38.99 2.077 52.337 5.413c6.683 1.671 12.004 3.641 15.623 5.78 3.703 2.189 5.241 4.316 5.241 6.176z" class="D"/><path d="M555.883 616.774c0 9.593-34.57 18.61-75.682 18.61S407 626.367 407 616.774"/></g><g fill="#000"><path d="M94.132 6.516V24h6.882c5.234 0 8.202-3.199 8.202-8.857 0-5.489-3.005-8.627-8.202-8.627h-6.882zm3.659 3.017h2.641c3.174 0 5.052 2.06 5.052 5.67 0 3.744-1.817 5.779-5.052 5.779h-2.641V9.533zm16.344-.921c1.091 0 1.987-.872 1.987-1.963 0-1.103-.896-1.975-1.987-1.975s-1.999.872-1.999 1.975c0 1.09.909 1.963 1.999 1.963zM112.366 24h3.526V10.66h-3.526V24zm6.798-9.451c0 2.048 1.26 3.271 3.852 3.841l2.424.545c1.175.267 1.684.678 1.684 1.357 0 .884-.945 1.49-2.314 1.49-1.406 0-2.266-.545-2.533-1.466h-3.441c.243 2.52 2.375 3.962 5.901 3.962 3.501 0 5.888-1.721 5.888-4.362 0-1.987-1.163-3.077-3.756-3.647l-2.508-.545c-1.235-.279-1.805-.703-1.805-1.381 0-.872.933-1.466 2.193-1.466 1.309 0 2.12.545 2.302 1.43h3.259c-.194-2.52-2.193-3.938-5.585-3.938-3.332 0-5.561 1.684-5.561 4.18zm22.075-4.107c-1.842 0-3.356.909-4.083 2.411h-.218V10.66h-3.417v17.762h3.526v-6.458h.218c.654 1.406 2.12 2.241 4.035 2.241 3.344 0 5.391-2.593 5.391-6.882 0-4.301-2.072-6.882-5.452-6.882zm-1.199 10.917c-1.866 0-3.029-1.527-3.029-4.023s1.163-4.035 3.041-4.035 3.017 1.515 3.017 4.023c0 2.52-1.127 4.035-3.029 4.035zM149.684 24h3.526V5.559h-3.526V24zm10.856.206c1.733 0 3.187-.739 3.877-1.975h.218V24h3.417v-9.111c0-2.847-1.999-4.519-5.537-4.519-3.356 0-5.622 1.539-5.852 3.986h3.247c.291-.836 1.139-1.284 2.411-1.284 1.454 0 2.254.666 2.254 1.817v1.103l-3.235.194c-3.32.194-5.174 1.599-5.174 4.01 0 2.435 1.805 4.011 4.374 4.011zm1.163-2.581c-1.224 0-2.084-.618-2.084-1.648 0-.981.739-1.551 2.254-1.648l2.702-.182v.994c0 1.406-1.236 2.484-2.872 2.484zm11.111 7.221c3.332 0 4.967-1.187 6.106-4.592l4.604-13.594h-3.732l-2.81 10.178h-.219l-2.81-10.178h-3.89l4.689 13.413-.121.509c-.291 1.078-1.042 1.514-2.363 1.514-.145 0-.678-.012-.799-.036v2.75c.145.024 1.211.036 1.345.036zm23.226-4.64c1.733 0 3.187-.739 3.877-1.975h.218V24h3.417v-9.111c0-2.847-1.999-4.519-5.537-4.519-3.356 0-5.622 1.539-5.852 3.986h3.247c.291-.836 1.139-1.284 2.411-1.284 1.454 0 2.254.666 2.254 1.817v1.103l-3.235.194c-3.32.194-5.174 1.599-5.174 4.01 0 2.435 1.806 4.011 4.374 4.011zm1.163-2.581c-1.223 0-2.084-.618-2.084-1.648 0-.981.739-1.551 2.254-1.648l2.702-.182v.994c0 1.406-1.236 2.484-2.872 2.484zm21.531-10.965h-3.72l-2.738 10.032h-.218l-2.763-10.032h-3.792l4.64 13.34h3.974l4.617-13.34zm5.609 13.546c1.733 0 3.187-.739 3.877-1.975h.219V24h3.416v-9.111c0-2.847-1.999-4.519-5.537-4.519-3.356 0-5.622 1.539-5.852 3.986h3.247c.291-.836 1.139-1.284 2.411-1.284 1.454 0 2.254.666 2.254 1.817v1.103l-3.235.194c-3.32.194-5.174 1.599-5.174 4.01 0 2.435 1.806 4.011 4.374 4.011zm1.163-2.581c-1.223 0-2.083-.618-2.083-1.648 0-.981.739-1.551 2.253-1.648l2.702-.182v.994c0 1.406-1.236 2.484-2.872 2.484zm11.608-13.013c1.09 0 1.987-.872 1.987-1.963 0-1.103-.897-1.975-1.987-1.975s-1.999.872-1.999 1.975c0 1.09.908 1.963 1.999 1.963zM235.345 24h3.526V10.66h-3.526V24zm7.221 0h3.526V5.559h-3.526V24zm10.856.206c1.733 0 3.186-.739 3.877-1.975h.218V24h3.417v-9.111c0-2.847-1.999-4.519-5.537-4.519-3.356 0-5.622 1.539-5.852 3.986h3.247c.291-.836 1.139-1.284 2.411-1.284 1.454 0 2.254.666 2.254 1.817v1.103l-3.235.194c-3.32.194-5.174 1.599-5.174 4.01 0 2.435 1.805 4.011 4.374 4.011zm1.163-2.581c-1.224 0-2.084-.618-2.084-1.648 0-.981.739-1.551 2.254-1.648l2.702-.182v.994c0 1.406-1.236 2.484-2.872 2.484zm17.69 2.581c3.356 0 5.415-2.605 5.415-6.882 0-4.301-2.035-6.882-5.415-6.882-1.83 0-3.332.884-4.011 2.351h-.218V5.559h-3.526V24h3.417v-2.096h.218c.715 1.454 2.229 2.302 4.12 2.302zm-1.224-10.904c1.866 0 3.017 1.539 3.017 4.023 0 2.508-1.139 4.035-3.017 4.035-1.866 0-3.029-1.539-3.041-4.023.012-2.484 1.187-4.035 3.041-4.035zM280.683 24h3.526V5.559h-3.526V24zm15.836-3.768c-.376.909-1.333 1.418-2.726 1.418-1.842 0-3.005-1.272-3.053-3.308v-.182h9.171v-1.054c0-4.216-2.326-6.736-6.264-6.736-3.974 0-6.421 2.69-6.421 7.027 0 4.313 2.399 6.882 6.47 6.882 3.271 0 5.585-1.563 6.106-4.047h-3.283zm-2.86-7.233c1.648 0 2.714 1.139 2.787 2.968h-5.694c.121-1.793 1.272-2.968 2.907-2.968zM310.234 24h3.526V13.459h2.763v-2.678h-2.836V9.655c0-1.163.509-1.733 1.89-1.733a6.89 6.89 0 0 1 1.055.073V5.559a12.58 12.58 0 0 0-1.818-.133c-3.223 0-4.58 1.333-4.58 3.986v1.369h-2.156v2.678h2.156V24zm10.893-15.387c1.09 0 1.987-.872 1.987-1.963 0-1.103-.897-1.975-1.987-1.975s-1.999.872-1.999 1.975c0 1.09.908 1.963 1.999 1.963zM319.358 24h3.526V10.66h-3.526V24zm7.221 0h3.526V5.559h-3.526V24zm15.836-3.768c-.376.909-1.333 1.418-2.726 1.418-1.842 0-3.005-1.272-3.054-3.308v-.182h9.172v-1.054c0-4.216-2.326-6.736-6.264-6.736-3.974 0-6.421 2.69-6.421 7.027 0 4.313 2.399 6.882 6.47 6.882 3.271 0 5.585-1.563 6.106-4.047h-3.283zm-2.86-7.233c1.648 0 2.714 1.139 2.787 2.968h-5.695c.122-1.793 1.273-2.968 2.908-2.968zm8.845 1.551c0 2.048 1.26 3.271 3.853 3.841l2.423.545c1.175.267 1.684.678 1.684 1.357 0 .884-.945 1.49-2.314 1.49-1.405 0-2.266-.545-2.532-1.466h-3.441c.242 2.52 2.375 3.962 5.9 3.962 3.502 0 5.889-1.721 5.889-4.362 0-1.987-1.163-3.077-3.756-3.647l-2.508-.545c-1.236-.279-1.806-.703-1.806-1.381 0-.872.933-1.466 2.194-1.466 1.308 0 2.12.545 2.302 1.43h3.259c-.194-2.52-2.193-3.938-5.586-3.938-3.332 0-5.561 1.684-5.561 4.18zm42.093 694.616c.133 3.235 2.835 5.282 7.003 5.282 4.386 0 7.088-2.156 7.088-5.646 0-2.702-1.515-4.216-5.028-4.967l-2.109-.449c-2.047-.448-2.883-1.09-2.883-2.193 0-1.369 1.211-2.253 3.041-2.253 1.769 0 3.053.933 3.223 2.362h3.441c-.109-3.089-2.835-5.234-6.688-5.234-4.035 0-6.688 2.157-6.688 5.416 0 2.654 1.563 4.289 4.749 4.968l2.278.496c2.145.473 3.017 1.139 3.017 2.29 0 1.357-1.345 2.315-3.247 2.315-2.06 0-3.49-.933-3.659-2.387h-3.538zm21.421-2.835h2.217c1.963 0 3.175.993 3.175 2.592 0 1.539-1.297 2.581-3.15 2.581-1.878 0-3.139-.957-3.248-2.472h-3.501c.157 3.272 2.847 5.416 6.797 5.416s6.833-2.168 6.833-5.222c0-2.35-1.478-3.901-3.913-4.265v-.218c1.878-.472 3.211-1.853 3.223-3.974.012-2.556-2.145-4.701-6.022-4.701-3.938 0-6.421 2.169-6.543 5.355h3.381c.121-1.611 1.211-2.532 2.98-2.532 1.709 0 2.739 1.03 2.739 2.375 0 1.454-1.127 2.46-2.787 2.46h-2.181v2.605zm22.79 7.669v-6.882h7.113v-2.896h-7.113v-4.689h7.791v-3.017h-11.45V714h3.659zm12.613-15.387c1.091 0 1.987-.873 1.987-1.963 0-1.103-.896-1.975-1.987-1.975s-1.999.872-1.999 1.975c0 1.09.909 1.963 1.999 1.963zM445.548 714h3.526v-13.34h-3.526V714zm7.222 0h3.525v-18.441h-3.525V714zm15.835-3.768c-.375.909-1.333 1.417-2.726 1.417-1.842 0-3.005-1.272-3.053-3.307v-.182h9.172v-1.054c0-4.216-2.327-6.737-6.264-6.737-3.974 0-6.422 2.69-6.422 7.028 0 4.313 2.399 6.882 6.47 6.882 3.272 0 5.586-1.563 6.107-4.047h-3.284zm-2.859-7.233c1.648 0 2.714 1.139 2.787 2.968h-5.695c.121-1.793 1.272-2.968 2.908-2.968zm15.109 6.167c.133 3.235 2.835 5.282 7.003 5.282 4.386 0 7.088-2.156 7.088-5.646 0-2.702-1.515-4.216-5.029-4.967l-2.108-.449c-2.047-.448-2.883-1.09-2.883-2.193 0-1.369 1.211-2.253 3.041-2.253 1.769 0 3.053.933 3.223 2.362h3.441c-.109-3.089-2.836-5.234-6.688-5.234-4.035 0-6.689 2.157-6.689 5.416 0 2.654 1.563 4.289 4.75 4.968l2.278.496c2.144.473 3.017 1.139 3.017 2.29 0 1.357-1.345 2.315-3.247 2.315-2.06 0-3.49-.933-3.659-2.387h-3.538zm18.864 9.68c3.332 0 4.968-1.187 6.107-4.592l4.604-13.594h-3.732l-2.811 10.178h-.218l-2.811-10.178h-3.889l4.689 13.413-.121.509c-.291 1.078-1.042 1.514-2.363 1.514a8.55 8.55 0 0 1-.8-.036v2.75c.146.024 1.212.036 1.345.036zm12.504-14.297c0 2.048 1.26 3.272 3.853 3.841l2.423.545c1.176.267 1.684.679 1.684 1.357 0 .885-.945 1.491-2.314 1.491-1.405 0-2.265-.545-2.532-1.466h-3.441c.242 2.52 2.375 3.962 5.901 3.962 3.501 0 5.888-1.721 5.888-4.362 0-1.987-1.163-3.078-3.756-3.647l-2.508-.545c-1.236-.279-1.805-.703-1.805-1.382 0-.872.933-1.466 2.193-1.466 1.308 0 2.12.546 2.302 1.43h3.259c-.194-2.52-2.193-3.938-5.586-3.938-3.331 0-5.561 1.685-5.561 4.18zm15.291-7.075v3.307h-2.084v2.678h2.084v6.943c0 2.592 1.284 3.646 4.531 3.646.679 0 1.333-.072 1.769-.157v-2.605l-1.042.061c-1.199 0-1.733-.558-1.733-1.757v-6.131h2.775v-2.678h-2.775v-3.307h-3.525zm17.786 12.758c-.376.909-1.333 1.417-2.726 1.417-1.842 0-3.005-1.272-3.053-3.307v-.182h9.172v-1.054c0-4.216-2.327-6.737-6.264-6.737-3.975 0-6.422 2.69-6.422 7.028 0 4.313 2.399 6.882 6.47 6.882 3.271 0 5.586-1.563 6.107-4.047H545.3zm-2.859-7.233c1.647 0 2.714 1.139 2.786 2.968h-5.694c.121-1.793 1.272-2.968 2.908-2.968zM551.588 714h3.526v-8.045c0-1.527.982-2.641 2.363-2.641s2.205.824 2.205 2.253V714h3.392v-8.203c0-1.441.921-2.483 2.351-2.483 1.49 0 2.229.799 2.229 2.411V714h3.526v-9.16c0-2.75-1.66-4.471-4.325-4.471-1.866 0-3.405.982-4.023 2.46h-.218c-.533-1.527-1.817-2.46-3.695-2.46-1.757 0-3.151.933-3.696 2.46h-.218v-2.169h-3.417V714z"/><path d="M9.501 76.286H3.56V65.317H1.591V78h7.91v-1.714zm3.252-9.536c.659 0 1.195-.536 1.195-1.186 0-.659-.536-1.195-1.195-1.195s-1.195.536-1.195 1.195c0 .65.536 1.186 1.195 1.186zM11.813 78h1.881v-9.545h-1.881V78zm4.439-6.873c0 1.415.844 2.224 2.663 2.645l1.67.396c.958.228 1.406.615 1.406 1.213 0 .782-.835 1.327-2.013 1.327-1.142 0-1.846-.466-2.083-1.213h-1.89c.167 1.661 1.652 2.69 3.929 2.69 2.285 0 3.964-1.204 3.964-2.98 0-1.389-.853-2.171-2.672-2.593l-1.591-.369c-1.037-.246-1.52-.615-1.52-1.204 0-.773.8-1.292 1.855-1.292 1.072 0 1.758.466 1.933 1.178h1.811c-.185-1.652-1.591-2.654-3.744-2.654-2.162 0-3.718 1.195-3.718 2.856zm10.52-5.08v2.435h-1.52v1.512h1.52v5.493c0 1.837.835 2.575 2.936 2.575a6.1 6.1 0 0 0 1.028-.097v-1.503l-.721.044c-.94 0-1.354-.448-1.354-1.477v-5.036h2.074v-1.512h-2.074v-2.434h-1.89zm18.519 2.47h.123L48.138 78h1.854l3.428-12.683h-2.048l-2.32 9.861h-.123l-2.663-9.861h-1.828l-2.645 9.861h-.123l-2.329-9.861h-2.048L40.711 78h1.863l2.716-9.483zm11.268-1.767c.659 0 1.195-.536 1.195-1.186 0-.659-.536-1.195-1.195-1.195s-1.195.536-1.195 1.195c0 .65.536 1.186 1.195 1.186zM55.617 78h1.881v-9.545h-1.881V78zm8.156.158c1.318 0 2.435-.624 3.006-1.67h.149V78h1.811V64.711h-1.89v5.256h-.141c-.519-1.046-1.626-1.679-2.936-1.679-2.417 0-3.973 1.925-3.973 4.931 0 3.023 1.538 4.939 3.973 4.939zm.536-8.253c1.582 0 2.575 1.283 2.575 3.322 0 2.057-.984 3.313-2.575 3.313-1.6 0-2.558-1.239-2.558-3.313 0-2.065.967-3.322 2.558-3.322zm11.303 11.742c2.707 0 4.421-1.38 4.421-3.551v-9.642h-1.81v1.52h-.15c-.536-1.037-1.687-1.687-3.006-1.687-2.443 0-3.973 1.925-3.973 4.816 0 2.865 1.512 4.755 3.955 4.755 1.318 0 2.373-.571 2.953-1.608h.141v1.837c0 1.292-.932 2.065-2.505 2.065-1.274 0-2.074-.457-2.233-1.178h-1.933c.202 1.608 1.749 2.672 4.14 2.672zm-.026-5.353c-1.626 0-2.54-1.239-2.54-3.19s.914-3.199 2.54-3.199c1.608 0 2.593 1.248 2.593 3.199s-.976 3.19-2.593 3.19zm13.465-.852c-.352.773-1.134 1.195-2.276 1.195-1.512 0-2.487-1.09-2.549-2.821v-.088h6.759v-.65c0-2.988-1.608-4.808-4.271-4.808-2.698 0-4.412 1.942-4.412 4.975 0 3.05 1.679 4.94 4.421 4.94 2.189 0 3.735-1.055 4.148-2.742h-1.819zm-2.347-5.634c1.398 0 2.312 1.011 2.356 2.558h-4.834c.106-1.538 1.081-2.558 2.478-2.558zm7.216-3.762v2.435H92.4v1.512h1.52v5.493c0 1.837.835 2.575 2.936 2.575.369 0 .721-.044 1.028-.097v-1.503l-.721.044c-.94 0-1.353-.448-1.353-1.477v-5.036h2.074V68.48H95.81v-2.434h-1.89zM513.56 78v-5.309h5.449V71.03h-5.449v-4.017h5.95v-1.696h-7.919V78h1.969zm12.331.185c2.795 0 4.508-1.872 4.508-4.957s-1.722-4.957-4.508-4.957c-2.795 0-4.518 1.881-4.518 4.957 0 3.085 1.714 4.957 4.518 4.957zm0-1.608c-1.644 0-2.567-1.222-2.567-3.349s.923-3.357 2.567-3.357c1.634 0 2.566 1.231 2.566 3.357 0 2.118-.932 3.349-2.566 3.349zM532.676 78h1.889v-5.704c0-1.345 1.011-2.268 2.444-2.268.334 0 .896.061 1.054.105v-1.775a4.73 4.73 0 0 0-.843-.07c-1.248 0-2.312.677-2.584 1.617h-.141v-1.45h-1.819V78zm7.347 0h1.89v-5.862c0-1.248.87-2.224 2.022-2.224 1.125 0 1.845.677 1.845 1.767V78h1.855v-6.038c0-1.151.8-2.048 2.021-2.048 1.24 0 1.855.642 1.855 1.96V78h1.889v-6.583c0-1.986-1.125-3.147-3.058-3.147-1.327 0-2.426.677-2.909 1.705h-.15c-.422-1.028-1.327-1.705-2.637-1.705-1.274 0-2.241.633-2.663 1.705h-.14v-1.52h-1.82V78zm28.363-9.483h.123L571.233 78h1.855l3.428-12.683h-2.048l-2.321 9.861h-.123l-2.663-9.861h-1.828l-2.645 9.861h-.123l-2.329-9.861h-2.048L563.807 78h1.863l2.716-9.483zm11.267-1.767c.659 0 1.196-.536 1.196-1.186a1.2 1.2 0 0 0-1.196-1.195c-.659 0-1.195.536-1.195 1.195 0 .65.536 1.186 1.195 1.186zm-.94 11.25h1.881v-9.545h-1.881V78zm8.156.158c1.319 0 2.435-.624 3.006-1.67h.149V78h1.811V64.711h-1.89v5.256h-.14c-.519-1.046-1.626-1.679-2.936-1.679-2.417 0-3.973 1.925-3.973 4.931 0 3.023 1.539 4.939 3.973 4.939zm.536-8.253c1.582 0 2.575 1.283 2.575 3.322 0 2.057-.984 3.313-2.575 3.313-1.599 0-2.557-1.239-2.557-3.313 0-2.065.966-3.322 2.557-3.322zm11.303 11.742c2.707 0 4.421-1.38 4.421-3.551v-9.642h-1.811v1.52h-.149c-.536-1.037-1.688-1.687-3.006-1.687-2.443 0-3.973 1.925-3.973 4.816 0 2.865 1.512 4.755 3.956 4.755 1.318 0 2.373-.571 2.953-1.608h.14v1.837c0 1.292-.931 2.065-2.505 2.065-1.274 0-2.074-.457-2.232-1.178h-1.934c.203 1.608 1.749 2.672 4.14 2.672zm-.026-5.353c-1.626 0-2.54-1.239-2.54-3.19s.914-3.199 2.54-3.199c1.608 0 2.592 1.248 2.592 3.199s-.975 3.19-2.592 3.19zm13.464-.852c-.351.773-1.133 1.195-2.276 1.195-1.512 0-2.487-1.09-2.549-2.821v-.088h6.759v-.65c0-2.988-1.608-4.808-4.271-4.808-2.699 0-4.413 1.942-4.413 4.975 0 3.05 1.679 4.94 4.421 4.94 2.189 0 3.736-1.055 4.149-2.742h-1.82zm-2.346-5.634c1.397 0 2.311 1.011 2.355 2.558h-4.834c.106-1.538 1.081-2.558 2.479-2.558zm7.216-3.762v2.435h-1.521v1.512h1.521v5.493c0 1.837.835 2.575 2.935 2.575a6.09 6.09 0 0 0 1.028-.097v-1.503l-.72.044c-.941 0-1.354-.448-1.354-1.477v-5.036h2.074V68.48h-2.074v-2.434h-1.889zM696.642 24h3.962l-6.07-17.484h-4.302L684.162 24h3.671l1.345-4.241h6.143L696.642 24zm-4.483-13.933h.218l2.169 6.955h-4.58l2.193-6.955zm15.133 14.14c1.854 0 3.368-.86 4.083-2.302h.218V24h3.417V5.559h-3.526v7.233h-.206c-.691-1.478-2.181-2.351-3.986-2.351-3.356 0-5.44 2.629-5.44 6.87 0 4.253 2.072 6.894 5.44 6.894zm1.199-10.904c1.878 0 3.029 1.539 3.029 4.035s-1.138 4.023-3.029 4.023-3.017-1.514-3.017-4.035c0-2.508 1.139-4.023 3.017-4.023zm14.964 10.904c1.854 0 3.368-.86 4.083-2.302h.218V24h3.417V5.559h-3.526v7.233h-.206c-.691-1.478-2.181-2.351-3.986-2.351-3.356 0-5.44 2.629-5.44 6.87 0 4.253 2.071 6.894 5.44 6.894zm1.199-10.904c1.878 0 3.029 1.539 3.029 4.035s-1.139 4.023-3.029 4.023-3.017-1.514-3.017-4.035c0-2.508 1.139-4.023 3.017-4.023zM741.229 24h3.526v-7.718c0-1.805 1.005-2.968 2.641-2.968 1.672 0 2.46.981 2.46 2.859V24h3.526v-8.627c0-3.187-1.6-5.004-4.568-5.004-1.975 0-3.332.933-3.95 2.435h-.218V10.66h-3.417V24zm24.22-3.768c-.375.909-1.333 1.418-2.726 1.418-1.842 0-3.005-1.272-3.053-3.308v-.182h9.172v-1.054c0-4.216-2.327-6.736-6.264-6.736-3.974 0-6.422 2.69-6.422 7.027 0 4.313 2.399 6.882 6.47 6.882 3.271 0 5.586-1.563 6.107-4.047h-3.284zm-2.859-7.233c1.648 0 2.714 1.139 2.786 2.968h-5.694c.121-1.793 1.272-2.968 2.908-2.968zm27.418-2.338h-3.501l-1.987 9.657h-.218l-2.351-9.657h-3.368l-2.338 9.657h-.219l-1.987-9.657h-3.574L774.027 24h3.708l2.362-9.305h.219L782.702 24h3.756l3.55-13.34zM799.956 24h3.526V13.459h2.762v-2.678h-2.835V9.655c0-1.163.509-1.733 1.89-1.733a6.97 6.97 0 0 1 1.054.073V5.559c-.509-.073-1.102-.133-1.817-.133-3.223 0-4.58 1.333-4.58 3.986v1.369h-2.157v2.678h2.157V24zm10.892-15.387c1.091 0 1.987-.872 1.987-1.963 0-1.103-.896-1.975-1.987-1.975s-1.999.872-1.999 1.975c0 1.09.909 1.963 1.999 1.963zM809.079 24h3.526V10.66h-3.526V24zm7.221 0h3.526V5.559H816.3V24zm15.836-3.768c-.375.909-1.333 1.418-2.726 1.418-1.842 0-3.005-1.272-3.053-3.308v-.182h9.172v-1.054c0-4.216-2.327-6.736-6.264-6.736-3.974 0-6.422 2.69-6.422 7.027 0 4.313 2.399 6.882 6.47 6.882 3.271 0 5.586-1.563 6.107-4.047h-3.284zm-2.859-7.233c1.648 0 2.714 1.139 2.786 2.968h-5.694c.121-1.793 1.272-2.968 2.908-2.968zm8.844 1.551c0 2.048 1.261 3.271 3.853 3.841l2.424.545c1.175.267 1.684.678 1.684 1.357 0 .884-.945 1.49-2.314 1.49-1.406 0-2.266-.545-2.533-1.466h-3.441c.243 2.52 2.375 3.962 5.901 3.962 3.501 0 5.888-1.721 5.888-4.362 0-1.987-1.163-3.077-3.756-3.647l-2.508-.545c-1.236-.279-1.805-.703-1.805-1.381 0-.872.933-1.466 2.193-1.466 1.309 0 2.12.545 2.302 1.43h3.259c-.194-2.52-2.193-3.938-5.585-3.938-3.332 0-5.562 1.684-5.562 4.18z"/></g><path d="M1.241 98.241H451.76V467.76H1.241zm510 0H961.76V467.76H511.241z" class="B I L"/><path d="M666 410h142v31H666z" class="J"/><path d="M689.761 420.84h-1.637v6.005c0 2 1.447 3.384 3.764 3.384s3.764-1.384 3.764-3.384v-6.005h-1.638v5.859c0 1.251-.768 2.101-2.126 2.101s-2.127-.85-2.127-2.101v-5.859zm8.744 0V430h1.638v-3.028h1.987c1.853 0 3.148-1.238 3.148-3.047 0-1.841-1.25-3.085-3.078-3.085h-3.695zm1.638 1.34h1.625c1.181 0 1.847.609 1.847 1.745 0 1.105-.685 1.727-1.853 1.727h-1.619v-3.472zm13.384 6.417h-4.202v-7.757h-1.638V430h5.84v-1.403zm6.008-7.985c-2.659 0-4.335 1.847-4.335 4.805 0 2.952 1.65 4.812 4.335 4.812 2.673 0 4.329-1.86 4.329-4.812 0-2.958-1.663-4.805-4.329-4.805zm0 1.415c1.625 0 2.66 1.314 2.66 3.39 0 2.063-1.028 3.396-2.66 3.396-1.65 0-2.659-1.333-2.659-3.396 0-2.076 1.034-3.39 2.659-3.39zM731.821 430h1.759l-3.257-9.16h-1.84l-3.25 9.16h1.656l.787-2.368h3.371l.774 2.368zm-2.507-7.439h.108l1.244 3.808h-2.609l1.257-3.808zm6.44-1.721V430h3.434c2.742 0 4.31-1.682 4.31-4.621 0-2.876-1.587-4.539-4.31-4.539h-3.434zm1.638 1.378h1.58c1.797 0 2.857 1.168 2.857 3.186 0 2.063-1.035 3.219-2.857 3.219h-1.58v-6.405zM751.68 430v-3.739h3.841v-1.333h-3.841v-2.71h4.203v-1.378h-5.84V430h1.637zm8.256 0v-9.16h-1.638V430h1.638zm8.699-1.403h-4.202v-7.757h-1.637V430h5.839v-1.403zm8.294.026h-4.291v-2.622h4.056V424.7h-4.056v-2.482h4.291v-1.378H771V430h5.929v-1.377zm2.212-1.105c.083 1.657 1.473 2.711 3.574 2.711 2.221 0 3.599-1.105 3.599-2.882 0-1.39-.781-2.165-2.641-2.59l-1.053-.241c-1.137-.267-1.6-.629-1.6-1.257 0-.794.698-1.314 1.752-1.314 1.003 0 1.714.514 1.828 1.333h1.568c-.076-1.568-1.466-2.666-3.39-2.666-2.05 0-3.408 1.104-3.408 2.755 0 1.358.78 2.177 2.443 2.558l1.187.273c1.175.273 1.676.679 1.676 1.345 0 .781-.781 1.346-1.86 1.346-1.161 0-1.974-.533-2.075-1.371h-1.6z" class="E"/><path opacity=".1" d="M30.5 221.5H428M30.5 340H428m112.5-111H938" class="I"/><path d="M131.164 145v-4.719h4.844v-1.476h-4.844v-3.571h5.289v-1.507h-7.039V145h1.75zm8.234-10c.586 0 1.063-.477 1.063-1.055 0-.586-.477-1.062-1.063-1.062s-1.062.476-1.062 1.062c0 .578.476 1.055 1.062 1.055zm-.836 10h1.672v-8.484h-1.672V145zm4.219 0h1.68v-11.812h-1.68V145zm9.781-2.273c-.312.687-1.007 1.062-2.023 1.062-1.344 0-2.211-.969-2.266-2.508v-.078h6.008v-.578c0-2.656-1.429-4.273-3.797-4.273-2.398 0-3.922 1.726-3.922 4.421 0 2.711 1.493 4.391 3.93 4.391 1.946 0 3.32-.937 3.688-2.437h-1.618zm-2.085-5.008c1.242 0 2.054.898 2.093 2.273h-4.297c.094-1.367.961-2.273 2.204-2.273zm5.82 7.281h1.68v-4.977c0-1.367.789-2.211 2.031-2.211s1.836.688 1.836 2.094V145h1.679v-5.492c0-2.024-1.046-3.156-2.945-3.156-1.281 0-2.125.57-2.539 1.507h-.125v-1.343h-1.617V145zm11.945.141c1.117 0 2.047-.485 2.555-1.344h.133V145h1.617v-5.805c0-1.781-1.203-2.843-3.336-2.843-1.93 0-3.305.929-3.477 2.359h1.625c.188-.617.836-.969 1.774-.969 1.148 0 1.742.524 1.742 1.453v.743l-2.305.14c-2.023.125-3.164 1.008-3.164 2.531 0 1.547 1.196 2.532 2.836 2.532zm.43-1.352c-.914 0-1.578-.461-1.578-1.25 0-.773.531-1.187 1.703-1.266l2.078-.14v.734c0 1.094-.937 1.922-2.203 1.922zm6.266 1.211h1.679v-5.211c0-1.109.774-1.977 1.797-1.977 1 0 1.641.602 1.641 1.571V145h1.648v-5.367c0-1.024.711-1.821 1.797-1.821 1.102 0 1.648.571 1.648 1.743V145h1.68v-5.852c0-1.765-1-2.796-2.719-2.796-1.179 0-2.156.601-2.586 1.515h-.132c-.375-.914-1.18-1.515-2.344-1.515-1.133 0-1.992.562-2.367 1.515h-.125v-1.351h-1.617V145zm19.828-2.273c-.313.687-1.008 1.062-2.024 1.062-1.344 0-2.211-.969-2.265-2.508v-.078h6.007v-.578c0-2.656-1.429-4.273-3.796-4.273-2.399 0-3.922 1.726-3.922 4.421 0 2.711 1.492 4.391 3.929 4.391 1.946 0 3.321-.937 3.688-2.437h-1.617zm-2.086-5.008c1.242 0 2.054.898 2.093 2.273h-4.296c.093-1.367.961-2.273 2.203-2.273z" class="G"/><path d="M128 163h96v31h-96z" class="J"/><path d="M150.761 173.84h-1.637v6.005c0 2 1.447 3.384 3.764 3.384s3.764-1.384 3.764-3.384v-6.005h-1.638v5.859c0 1.251-.768 2.101-2.126 2.101s-2.127-.85-2.127-2.101v-5.859zm8.744 0V183h1.638v-3.028h1.987c1.853 0 3.148-1.238 3.148-3.047 0-1.841-1.25-3.085-3.078-3.085h-3.695zm1.638 1.34h1.625c1.181 0 1.847.609 1.847 1.745 0 1.105-.685 1.727-1.853 1.727h-1.619v-3.472zm7.544-1.34V183h3.434c2.743 0 4.31-1.682 4.31-4.621 0-2.876-1.586-4.539-4.31-4.539h-3.434zm1.638 1.378h1.581c1.796 0 2.856 1.168 2.856 3.186 0 2.063-1.035 3.219-2.856 3.219h-1.581v-6.405zM184.388 183h1.759l-3.257-9.16h-1.84L177.8 183h1.656l.787-2.368h3.371l.774 2.368zm-2.507-7.439h.108l1.244 3.808h-2.609l1.257-3.808zm9.341 7.439v-7.782h2.824v-1.378h-7.28v1.378h2.818V183h1.638zm11.067-1.377h-4.291v-2.622h4.056V177.7h-4.056v-2.482h4.291v-1.378h-5.929V183h5.929v-1.377z" class="E"/><path d="M260.13 173.84V183h3.434c2.742 0 4.31-1.682 4.31-4.621 0-2.876-1.587-4.539-4.31-4.539h-3.434zm1.638 1.378h1.58c1.797 0 2.857 1.168 2.857 3.186 0 2.063-1.035 3.219-2.857 3.219h-1.58v-6.405zm14.514 6.405h-4.291v-2.622h4.056V177.7h-4.056v-2.482h4.291v-1.378h-5.929V183h5.929v-1.377zm8.471-.026h-4.202v-7.757h-1.638V183h5.84v-1.403zm8.293.026h-4.291v-2.622h4.056V177.7h-4.056v-2.482h4.291v-1.378h-5.929V183h5.929v-1.377zm6.548 1.377v-7.782h2.825v-1.378h-7.281v1.378h2.818V183h1.638zm11.067-1.377h-4.291v-2.622h4.056V177.7h-4.056v-2.482h4.291v-1.378h-5.929V183h5.929v-1.377zM249.332 174h3.333v1.333h-1.333V184c0 .177-.07.346-.195.471a.67.67 0 0 1-.472.196h-9.333c-.177 0-.346-.071-.471-.196s-.196-.294-.196-.471v-8.667h-1.333V174h3.333v-2c0-.177.071-.346.196-.471a.66.66 0 0 1 .471-.196h5.333c.177 0 .347.07.472.196s.195.294.195.471v2zm.667 1.333h-8v8h8v-8zm-6-2.666V174h4v-1.333h-4z" class="K"/><path d="M28 123h78v78H28z" class="H"/><path d="M39 136h34v8H39z" class="B"/><path d="M39 151h21v8H39z" class="D"/><path d="M39 166h49v8H39z" class="C"/><path d="M39 181h56v8H39z" class="F"/><path d="M131.164 264v-4.719h4.844v-1.476h-4.844v-3.571h5.289v-1.507h-7.039V264h1.75zm8.234-10c.586 0 1.063-.477 1.063-1.055 0-.586-.477-1.062-1.063-1.062s-1.062.476-1.062 1.062c0 .578.476 1.055 1.062 1.055zm-.836 10h1.672v-8.484h-1.672V264zm4.219 0h1.68v-11.812h-1.68V264zm9.781-2.273c-.312.687-1.007 1.062-2.023 1.062-1.344 0-2.211-.969-2.266-2.508v-.078h6.008v-.578c0-2.656-1.429-4.273-3.797-4.273-2.398 0-3.922 1.726-3.922 4.421 0 2.711 1.493 4.391 3.93 4.391 1.946 0 3.32-.937 3.688-2.437h-1.618zm-2.085-5.008c1.242 0 2.054.898 2.093 2.273h-4.297c.094-1.367.961-2.273 2.204-2.273zm5.82 7.281h1.68v-4.977c0-1.367.789-2.211 2.031-2.211s1.836.688 1.836 2.094V264h1.679v-5.492c0-2.024-1.046-3.156-2.945-3.156-1.281 0-2.125.57-2.539 1.507h-.125v-1.343h-1.617V264zm11.945.141c1.117 0 2.047-.485 2.555-1.344h.133V264h1.617v-5.805c0-1.781-1.203-2.843-3.336-2.843-1.93 0-3.305.929-3.477 2.359h1.625c.188-.617.836-.969 1.774-.969 1.148 0 1.742.524 1.742 1.453v.743l-2.305.14c-2.023.125-3.164 1.008-3.164 2.531 0 1.547 1.196 2.532 2.836 2.532zm.43-1.352c-.914 0-1.578-.461-1.578-1.25 0-.773.531-1.187 1.703-1.266l2.078-.14v.734c0 1.094-.937 1.922-2.203 1.922zm6.266 1.211h1.679v-5.211c0-1.109.774-1.977 1.797-1.977 1 0 1.641.602 1.641 1.571V264h1.648v-5.367c0-1.024.711-1.821 1.797-1.821 1.102 0 1.648.571 1.648 1.743V264h1.68v-5.852c0-1.765-1-2.796-2.719-2.796-1.179 0-2.156.601-2.586 1.515h-.132c-.375-.914-1.18-1.515-2.344-1.515-1.133 0-1.992.562-2.367 1.515h-.125v-1.351h-1.617V264zm19.828-2.273c-.313.687-1.008 1.062-2.024 1.062-1.344 0-2.211-.969-2.265-2.508v-.078h6.007v-.578c0-2.656-1.429-4.273-3.796-4.273-2.399 0-3.922 1.726-3.922 4.421 0 2.711 1.492 4.391 3.929 4.391 1.946 0 3.321-.937 3.688-2.437h-1.617zm-2.086-5.008c1.242 0 2.054.898 2.093 2.273h-4.296c.093-1.367.961-2.273 2.203-2.273z" class="G"/><path d="M128 282h96v31h-96z" class="J"/><path d="M150.761 292.84h-1.637v6.005c0 2 1.447 3.384 3.764 3.384s3.764-1.384 3.764-3.384v-6.005h-1.638v5.859c0 1.251-.768 2.101-2.126 2.101s-2.127-.85-2.127-2.101v-5.859zm8.744 0V302h1.638v-3.028h1.987c1.853 0 3.148-1.238 3.148-3.047 0-1.841-1.25-3.085-3.078-3.085h-3.695zm1.638 1.34h1.625c1.181 0 1.847.609 1.847 1.745 0 1.105-.685 1.727-1.853 1.727h-1.619v-3.472zm7.544-1.34V302h3.434c2.743 0 4.31-1.682 4.31-4.621 0-2.876-1.586-4.539-4.31-4.539h-3.434zm1.638 1.378h1.581c1.796 0 2.856 1.168 2.856 3.186 0 2.063-1.035 3.219-2.856 3.219h-1.581v-6.405zM184.388 302h1.759l-3.257-9.16h-1.84L177.8 302h1.656l.787-2.368h3.371l.774 2.368zm-2.507-7.439h.108l1.244 3.808h-2.609l1.257-3.808zm9.341 7.439v-7.782h2.824v-1.378h-7.28v1.378h2.818V302h1.638zm11.067-1.377h-4.291v-2.622h4.056V296.7h-4.056v-2.482h4.291v-1.378h-5.929V302h5.929v-1.377z" class="E"/><path d="M260.13 292.84V302h3.434c2.742 0 4.31-1.682 4.31-4.621 0-2.876-1.587-4.539-4.31-4.539h-3.434zm1.638 1.378h1.58c1.797 0 2.857 1.168 2.857 3.186 0 2.063-1.035 3.219-2.857 3.219h-1.58v-6.405zm14.514 6.405h-4.291v-2.622h4.056V296.7h-4.056v-2.482h4.291v-1.378h-5.929V302h5.929v-1.377zm8.471-.026h-4.202v-7.757h-1.638V302h5.84v-1.403zm8.293.026h-4.291v-2.622h4.056V296.7h-4.056v-2.482h4.291v-1.378h-5.929V302h5.929v-1.377zm6.548 1.377v-7.782h2.825v-1.378h-7.281v1.378h2.818V302h1.638zm11.067-1.377h-4.291v-2.622h4.056V296.7h-4.056v-2.482h4.291v-1.378h-5.929V302h5.929v-1.377zM249.332 293h3.333v1.333h-1.333V303c0 .177-.07.346-.195.471a.67.67 0 0 1-.472.196h-9.333c-.177 0-.346-.071-.471-.196s-.196-.294-.196-.471v-8.667h-1.333V293h3.333v-2c0-.177.071-.346.196-.471a.66.66 0 0 1 .471-.196h5.333c.177 0 .347.07.472.196s.195.294.195.471v2zm.667 1.333h-8v8h8v-8zm-6-2.666V293h4v-1.333h-4z" class="K"/><path d="M28 242h78v78H28z" class="H"/><path d="M39 255h34v8H39z" class="B"/><path d="M39 270h21v8H39z" class="D"/><path d="M39 285h49v8H39z" class="C"/><path d="M39 300h56v8H39z" class="F"/><path d="M607.5 174.5h259v30h-259z" class="I"/><path d="M665.772 194h1.758l-3.256-9.16h-1.841l-3.25 9.16h1.657l.787-2.368h3.37l.775 2.368zm-2.507-7.439h.107l1.245 3.808h-2.609l1.257-3.808zm6.439-1.721V194h3.434c2.743 0 4.311-1.682 4.311-4.621 0-2.876-1.587-4.539-4.311-4.539h-3.434zm1.638 1.378h1.581c1.796 0 2.856 1.168 2.856 3.186 0 2.063-1.035 3.219-2.856 3.219h-1.581v-6.405zm8.585-1.378V194h3.435c2.742 0 4.31-1.682 4.31-4.621 0-2.876-1.587-4.539-4.31-4.539h-3.435zm1.638 1.378h1.581c1.796 0 2.856 1.168 2.856 3.186 0 2.063-1.035 3.219-2.856 3.219h-1.581v-6.405zM695.854 194v-3.739h3.84v-1.333h-3.84v-2.71h4.202v-1.378h-5.84V194h1.638zm8.255 0v-9.16h-1.637V194h1.637zm8.7-1.403h-4.202v-7.757h-1.638V194h5.84v-1.403zm8.293.026h-4.291v-2.622h4.056V188.7h-4.056v-2.482h4.291v-1.378h-5.928V194h5.928v-1.377zm2.213-1.105c.082 1.657 1.472 2.711 3.573 2.711 2.222 0 3.599-1.105 3.599-2.882 0-1.39-.78-2.165-2.64-2.59l-1.054-.241c-1.136-.267-1.6-.629-1.6-1.257 0-.794.699-1.314 1.752-1.314 1.003 0 1.714.514 1.829 1.333h1.567c-.076-1.568-1.466-2.666-3.389-2.666-2.051 0-3.409 1.104-3.409 2.755 0 1.358.781 2.177 2.444 2.558l1.187.273c1.174.273 1.676.679 1.676 1.345 0 .781-.781 1.346-1.86 1.346-1.162 0-1.974-.533-2.076-1.371h-1.599zM740.911 194v-7.782h2.824v-1.378h-7.281v1.378h2.819V194h1.638zm8.744-9.388c-2.66 0-4.336 1.847-4.336 4.805 0 2.952 1.651 4.812 4.336 4.812 2.672 0 4.329-1.86 4.329-4.812 0-2.958-1.663-4.805-4.329-4.805zm0 1.415c1.625 0 2.659 1.314 2.659 3.39 0 2.063-1.028 3.396-2.659 3.396-1.651 0-2.66-1.333-2.66-3.396 0-2.076 1.035-3.39 2.66-3.39zm12.505-1.187h-1.638v6.005c0 2 1.447 3.384 3.764 3.384s3.764-1.384 3.764-3.384v-6.005h-1.637v5.859c0 1.251-.768 2.101-2.127 2.101s-2.126-.85-2.126-2.101v-5.859zm8.744 0V194h1.638v-3.028h1.986c1.854 0 3.149-1.238 3.149-3.047 0-1.841-1.251-3.085-3.079-3.085h-3.694zm1.638 1.34h1.625c1.18 0 1.847.609 1.847 1.745 0 1.105-.686 1.727-1.854 1.727h-1.618v-3.472zm13.384 6.417h-4.202v-7.757h-1.638V194h5.84v-1.403zm6.008-7.985c-2.66 0-4.336 1.847-4.336 4.805 0 2.952 1.651 4.812 4.336 4.812 2.672 0 4.329-1.86 4.329-4.812 0-2.958-1.663-4.805-4.329-4.805zm0 1.415c1.625 0 2.66 1.314 2.66 3.39 0 2.063-1.029 3.396-2.66 3.396-1.65 0-2.66-1.333-2.66-3.396 0-2.076 1.035-3.39 2.66-3.39zM804.22 194h1.758l-3.256-9.16h-1.841l-3.25 9.16h1.657l.787-2.368h3.37l.775 2.368zm-2.507-7.439h.107l1.245 3.808h-2.609l1.257-3.808zm6.439-1.721V194h3.435c2.742 0 4.31-1.682 4.31-4.621 0-2.876-1.587-4.539-4.31-4.539h-3.435zm1.638 1.378h1.581c1.796 0 2.856 1.168 2.856 3.186 0 2.063-1.035 3.219-2.856 3.219h-1.581v-6.405z" fill="#090707"/><path d="M131.164 382v-4.719h4.844v-1.476h-4.844v-3.571h5.289v-1.507h-7.039V382h1.75zm8.234-10c.586 0 1.063-.477 1.063-1.055 0-.586-.477-1.062-1.063-1.062s-1.062.476-1.062 1.062c0 .578.476 1.055 1.062 1.055zm-.836 10h1.672v-8.484h-1.672V382zm4.219 0h1.68v-11.812h-1.68V382zm9.781-2.273c-.312.687-1.007 1.062-2.023 1.062-1.344 0-2.211-.969-2.266-2.508v-.078h6.008v-.578c0-2.656-1.429-4.273-3.797-4.273-2.398 0-3.922 1.726-3.922 4.421 0 2.711 1.493 4.391 3.93 4.391 1.946 0 3.32-.937 3.688-2.437h-1.618zm-2.085-5.008c1.242 0 2.054.898 2.093 2.273h-4.297c.094-1.367.961-2.273 2.204-2.273zm5.82 7.281h1.68v-4.977c0-1.367.789-2.211 2.031-2.211s1.836.688 1.836 2.094V382h1.679v-5.492c0-2.024-1.046-3.156-2.945-3.156-1.281 0-2.125.57-2.539 1.507h-.125v-1.343h-1.617V382zm11.945.141c1.117 0 2.047-.485 2.555-1.344h.133V382h1.617v-5.805c0-1.781-1.203-2.843-3.336-2.843-1.93 0-3.305.929-3.477 2.359h1.625c.188-.617.836-.969 1.774-.969 1.148 0 1.742.524 1.742 1.453v.743l-2.305.14c-2.023.125-3.164 1.008-3.164 2.531 0 1.547 1.196 2.532 2.836 2.532zm.43-1.352c-.914 0-1.578-.461-1.578-1.25 0-.773.531-1.187 1.703-1.266l2.078-.14v.734c0 1.094-.937 1.922-2.203 1.922zm6.266 1.211h1.679v-5.211c0-1.109.774-1.977 1.797-1.977 1 0 1.641.602 1.641 1.571V382h1.648v-5.367c0-1.024.711-1.821 1.797-1.821 1.102 0 1.648.571 1.648 1.743V382h1.68v-5.852c0-1.765-1-2.796-2.719-2.796-1.179 0-2.156.601-2.586 1.515h-.132c-.375-.914-1.18-1.515-2.344-1.515-1.133 0-1.992.562-2.367 1.515h-.125v-1.351h-1.617V382zm19.828-2.273c-.313.687-1.008 1.062-2.024 1.062-1.344 0-2.211-.969-2.265-2.508v-.078h6.007v-.578c0-2.656-1.429-4.273-3.796-4.273-2.399 0-3.922 1.726-3.922 4.421 0 2.711 1.492 4.391 3.929 4.391 1.946 0 3.321-.937 3.688-2.437h-1.617zm-2.086-5.008c1.242 0 2.054.898 2.093 2.273h-4.296c.093-1.367.961-2.273 2.203-2.273z" class="G"/><path d="M128 400h96v31h-96z" class="J"/><path d="M150.761 410.84h-1.637v6.005c0 2 1.447 3.384 3.764 3.384s3.764-1.384 3.764-3.384v-6.005h-1.638v5.859c0 1.251-.768 2.101-2.126 2.101s-2.127-.85-2.127-2.101v-5.859zm8.744 0V420h1.638v-3.028h1.987c1.853 0 3.148-1.238 3.148-3.047 0-1.841-1.25-3.085-3.078-3.085h-3.695zm1.638 1.34h1.625c1.181 0 1.847.609 1.847 1.745 0 1.105-.685 1.727-1.853 1.727h-1.619v-3.472zm7.544-1.34V420h3.434c2.743 0 4.31-1.682 4.31-4.621 0-2.876-1.586-4.539-4.31-4.539h-3.434zm1.638 1.378h1.581c1.796 0 2.856 1.168 2.856 3.186 0 2.063-1.035 3.219-2.856 3.219h-1.581v-6.405zM184.388 420h1.759l-3.257-9.16h-1.84L177.8 420h1.656l.787-2.368h3.371l.774 2.368zm-2.507-7.439h.108l1.244 3.808h-2.609l1.257-3.808zm9.341 7.439v-7.782h2.824v-1.378h-7.28v1.378h2.818V420h1.638zm11.067-1.377h-4.291v-2.622h4.056V414.7h-4.056v-2.482h4.291v-1.378h-5.929V420h5.929v-1.377z" class="E"/><path d="M260.13 410.84V420h3.434c2.742 0 4.31-1.682 4.31-4.621 0-2.876-1.587-4.539-4.31-4.539h-3.434zm1.638 1.378h1.58c1.797 0 2.857 1.168 2.857 3.186 0 2.063-1.035 3.219-2.857 3.219h-1.58v-6.405zm14.514 6.405h-4.291v-2.622h4.056V414.7h-4.056v-2.482h4.291v-1.378h-5.929V420h5.929v-1.377zm8.471-.026h-4.202v-7.757h-1.638V420h5.84v-1.403zm8.293.026h-4.291v-2.622h4.056V414.7h-4.056v-2.482h4.291v-1.378h-5.929V420h5.929v-1.377zm6.548 1.377v-7.782h2.825v-1.378h-7.281v1.378h2.818V420h1.638zm11.067-1.377h-4.291v-2.622h4.056V414.7h-4.056v-2.482h4.291v-1.378h-5.929V420h5.929v-1.377zM249.332 411h3.333v1.333h-1.333V421c0 .177-.07.346-.195.471a.67.67 0 0 1-.472.196h-9.333c-.177 0-.346-.071-.471-.196s-.196-.294-.196-.471v-8.667h-1.333V411h3.333v-2c0-.177.071-.346.196-.471a.66.66 0 0 1 .471-.196h5.333c.177 0 .347.07.472.196s.195.294.195.471v2zm.667 1.333h-8v8h8v-8zm-6-2.666V411h4v-1.333h-4z" class="K"/><path d="M28 360h78v78H28z" class="H"/><path d="M39 373h34v8H39z" class="B"/><path d="M39 388h21v8H39z" class="D"/><path d="M39 403h49v8H39z" class="C"/><path d="M39 418h56v8H39z" class="F"/><path d="M607 125h260v36H607v-36z" class="B"/><path d="M621.488 147v-4.272h4.368v-1.094h-4.368v-3.391h4.758v-1.107h-5.988V147h1.23zm9.419.13c2.099 0 3.398-1.449 3.398-3.815 0-2.372-1.299-3.814-3.398-3.814s-3.397 1.442-3.397 3.814c0 2.366 1.299 3.815 3.397 3.815zm0-1.06c-1.394 0-2.18-1.011-2.18-2.755 0-1.75.786-2.754 2.18-2.754s2.181 1.004 2.181 2.754c0 1.744-.786 2.755-2.181 2.755zm5.072.93h1.176v-10.295h-1.176V147zm5.947.13c1.018 0 1.893-.485 2.358-1.306h.109V147h1.121v-10.295h-1.175v4.088h-.103c-.417-.807-1.285-1.292-2.31-1.292-1.874 0-3.097 1.504-3.097 3.814 0 2.318 1.21 3.815 3.097 3.815zm.273-6.569c1.333 0 2.167 1.066 2.167 2.754 0 1.703-.827 2.755-2.167 2.755-1.347 0-2.153-1.032-2.153-2.755 0-1.715.813-2.754 2.153-2.754zm10.239 4.532c-.307.649-.95.998-1.9.998-1.251 0-2.064-.923-2.126-2.379v-.055h5.298v-.451c0-2.29-1.21-3.705-3.199-3.705-2.024 0-3.323 1.504-3.323 3.821 0 2.331 1.279 3.808 3.323 3.808 1.613 0 2.761-.779 3.103-2.037h-1.176zm-1.941-4.553c1.169 0 1.948.861 1.976 2.167h-4.061c.089-1.306.909-2.167 2.085-2.167zm4.819 6.46h1.175v-4.566c0-1.039.814-1.791 1.935-1.791a4.78 4.78 0 0 1 .752.068v-1.176a5.17 5.17 0 0 0-.588-.034c-.978 0-1.825.506-2.044 1.224h-.109v-1.094h-1.121V147zm10.17 0v-7.649h.109l5.353 7.649h1.196v-9.864h-1.217v7.676h-.109l-5.352-7.676h-1.197V147h1.217zm10.834.13c.985 0 1.791-.431 2.27-1.217h.109V147h1.121v-5.045c0-1.531-1.005-2.454-2.802-2.454-1.573 0-2.735.779-2.892 1.962h1.189c.164-.581.78-.916 1.661-.916 1.101 0 1.668.499 1.668 1.408v.67l-2.126.13c-1.715.102-2.686.861-2.686 2.181 0 1.346 1.06 2.194 2.488 2.194zm.219-1.032c-.855 0-1.49-.438-1.49-1.19 0-.738.492-1.128 1.613-1.203l1.982-.13v.677c0 1.053-.895 1.846-2.105 1.846zm5.215.902h1.176v-4.566c0-1.039.745-1.873 1.709-1.873.93 0 1.538.56 1.538 1.435V147h1.176v-4.737c0-.937.683-1.702 1.709-1.702 1.039 0 1.551.533 1.551 1.62V147h1.176v-5.093c0-1.545-.841-2.406-2.345-2.406-1.018 0-1.859.513-2.255 1.292h-.11c-.342-.766-1.039-1.292-2.037-1.292-.984 0-1.723.472-2.057 1.292h-.11v-1.162h-1.121V147zm16.823-1.907c-.308.649-.951.998-1.901.998-1.251 0-2.064-.923-2.126-2.379v-.055h5.298v-.451c0-2.29-1.21-3.705-3.199-3.705-2.024 0-3.322 1.504-3.322 3.821 0 2.331 1.278 3.808 3.322 3.808 1.613 0 2.762-.779 3.103-2.037h-1.175zm-1.942-4.553c1.169 0 1.948.861 1.976 2.167h-4.061c.089-1.306.909-2.167 2.085-2.167z" class="K"/><path d="M607 125v-.6h-.6v.6h.6zm260 0h.6v-.6h-.6v.6zm0 36v.6h.6v-.6h-.6zm-260 0h-.6v.6h.6v-.6zm0-35.4h260v-1.2H607v1.2zm259.4-.6v36h1.2v-36h-1.2zm.6 35.4H607v1.2h260v-1.2zm-259.4.6v-36h-1.2v36h1.2z" class="F"/><path d="M541 252h397v129H541z" class="E"/><use xlink:href="#B" class="G"/><path d="M562 277h78v78h-78z" class="H"/><path d="M573 290h34v8h-34z" class="B"/><path d="M573 305h21v8h-21z" class="D"/><path d="M573 320h49v8h-49z" class="C"/><path d="M573 335h56v8h-56z" class="F"/><use xlink:href="#B" x="185" class="G"/><path d="M747 277h78v78h-78z" class="H"/><path d="M758 290h34v8h-34z" class="B"/><path d="M758 305h21v8h-21z" class="D"/><path d="M758 320h49v8h-49z" class="C"/><path d="M758 335h56v8h-56z" class="F"/><path d="M394.5 593.241a1.241 1.241 0 1 0 0-2.482v2.482zM220.877 470.123a1.24 1.24 0 0 0-1.754 0l-7.896 7.895a1.241 1.241 0 1 0 1.755 1.755l7.018-7.018 7.018 7.018a1.241 1.241 0 1 0 1.755-1.755l-7.896-7.895zM312 592v1.241V592zm-70 0v1.241V592zm-23.241-121v2.475h2.482V471h-2.482zm0 7.425v4.95h2.482v-4.95h-2.482zm0 9.9v4.95h2.482v-4.95h-2.482zm0 9.9v4.95h2.482v-4.95h-2.482zm0 9.9v4.95h2.482v-4.95h-2.482zm0 9.9v4.95h2.482v-4.95h-2.482zm0 9.9v4.95h2.482v-4.95h-2.482zm0 9.9v4.95h2.482v-4.95h-2.482zm0 9.9v4.95h2.482v-4.95h-2.482zm0 9.9v4.95h2.482v-4.95h-2.482zm0 9.9V570h2.482v-2.475h-2.482zm0 2.475a23.38 23.38 0 0 0 .197 3.034l2.46-.321a20.92 20.92 0 0 1-.175-2.713h-2.482zm1.764 8.897a23.25 23.25 0 0 0 3.038 5.252l1.968-1.512c-1.098-1.429-2.014-3.004-2.714-4.691l-2.292.951zm7.328 9.541c1.599 1.229 3.362 2.255 5.252 3.039l.951-2.292c-1.687-.7-3.262-1.616-4.691-2.714l-1.512 1.967zm11.115 4.606a23.38 23.38 0 0 0 3.034.197v-2.482a21.1 21.1 0 0 1-2.713-.175l-.321 2.46zm3.034.197h2.5v-2.482H242v2.482zm7.5 0h5v-2.482h-5v2.482zm10 0h5v-2.482h-5v2.482zm10 0h5v-2.482h-5v2.482zm10 0h5v-2.482h-5v2.482zm10 0h5v-2.482h-5v2.482zm10 0h5v-2.482h-5v2.482zm10 0h2.5v-2.482h-2.5v2.482zm2.5 0h2.578v-2.482H312v2.482zm7.734 0h5.157v-2.482h-5.157v2.482zm10.313 0h5.156v-2.482h-5.156v2.482zm10.312 0h5.157v-2.482h-5.157v2.482zm10.313 0h5.156v-2.482h-5.156v2.482zm10.312 0h5.157v-2.482h-5.157v2.482zm10.313 0h5.156v-2.482h-5.156v2.482zm10.312 0h5.157v-2.482h-5.157v2.482zm10.313 0h2.578v-2.482h-2.578v2.482zM743.241 469a1.241 1.241 0 1 0-2.482 0h2.482zM559.123 591.123a1.24 1.24 0 0 0 0 1.754l7.895 7.896a1.241 1.241 0 1 0 1.755-1.755L561.755 592l7.018-7.018a1.241 1.241 0 1 0-1.755-1.755l-7.895 7.896zM658 592v1.241V592zm62 0v-1.241V592zm-160 1.241h2.45v-2.482H560v2.482zm7.35 0h4.9v-2.482h-4.9v2.482zm9.8 0h4.9v-2.482h-4.9v2.482zm9.8 0h4.9v-2.482h-4.9v2.482zm9.8 0h4.9v-2.482h-4.9v2.482zm9.8 0h4.9v-2.482h-4.9v2.482zm9.8 0h4.9v-2.482h-4.9v2.482zm9.8 0h4.9v-2.482h-4.9v2.482zm9.8 0h4.9v-2.482h-4.9v2.482zm9.8 0h4.9v-2.482h-4.9v2.482zm9.8 0H658v-2.482h-2.45v2.482zm2.45 0h2.583v-2.482H658v2.482zm7.75 0h5.167v-2.482h-5.167v2.482zm10.333 0h5.167v-2.482h-5.167v2.482zm10.334 0h5.166v-2.482h-5.166v2.482zm10.333 0h5.167v-2.482h-5.167v2.482zm10.333 0h5.167v-2.482h-5.167v2.482zm10.334 0H720v-2.482h-2.583v2.482zm2.583 0a23.38 23.38 0 0 0 3.034-.197l-.321-2.46a21.1 21.1 0 0 1-2.713.175v2.482zm8.897-1.764c1.89-.784 3.653-1.81 5.252-3.039l-1.512-1.967c-1.429 1.098-3.004 2.014-4.691 2.714l.951 2.292zm9.542-7.328a23.25 23.25 0 0 0 3.038-5.252l-2.292-.951c-.7 1.687-1.616 3.262-2.714 4.691l1.968 1.512zm4.605-11.115a23.38 23.38 0 0 0 .197-3.034h-2.482a21.1 21.1 0 0 1-.175 2.713l2.46.321zm.197-3.034v-2.525h-2.482V570h2.482zm0-7.575v-5.05h-2.482v5.05h2.482zm0-10.1v-5.05h-2.482v5.05h2.482zm0-10.1v-5.05h-2.482v5.05h2.482zm0-10.1v-5.05h-2.482v5.05h2.482zm0-10.1v-5.05h-2.482v5.05h2.482zm0-10.1v-5.05h-2.482v5.05h2.482zm0-10.1v-5.05h-2.482v5.05h2.482zm0-10.1v-5.05h-2.482v5.05h2.482zm0-10.1v-5.05h-2.482v5.05h2.482zm0-10.1V469h-2.482v2.525h2.482z" fill="#4b4b4b"/><g stroke="#4b4848" class="E L"><circle cx="742.444" cy="465.444" r="6.203"/><circle cx="404.444" cy="592.444" r="6.203"/></g><defs ><path id="B" d="M665.164 321v-4.719h4.844v-1.476h-4.844v-3.571h5.289v-1.507h-7.039V321h1.75zm8.234-10c.586 0 1.063-.477 1.063-1.055 0-.586-.477-1.062-1.063-1.062s-1.062.476-1.062 1.062c0 .578.476 1.055 1.062 1.055zm-.836 10h1.672v-8.484h-1.672V321zm4.219 0h1.68v-11.812h-1.68V321zm9.781-2.273c-.312.687-1.007 1.062-2.023 1.062-1.344 0-2.211-.969-2.266-2.508v-.078h6.008v-.578c0-2.656-1.429-4.273-3.797-4.273-2.398 0-3.922 1.726-3.922 4.421 0 2.711 1.493 4.391 3.93 4.391 1.946 0 3.32-.937 3.688-2.437h-1.618zm-2.085-5.008c1.242 0 2.054.898 2.093 2.273h-4.297c.094-1.367.961-2.273 2.204-2.273zm5.82 7.281h1.68v-4.977c0-1.367.789-2.211 2.031-2.211s1.836.688 1.836 2.094V321h1.679v-5.492c0-2.024-1.046-3.156-2.945-3.156-1.281 0-2.125.57-2.539 1.507h-.125v-1.343h-1.617V321zm11.945.141c1.117 0 2.047-.485 2.555-1.344h.133V321h1.617v-5.805c0-1.781-1.203-2.843-3.336-2.843-1.93 0-3.305.929-3.477 2.359h1.625c.188-.617.836-.969 1.774-.969 1.148 0 1.742.524 1.742 1.453v.743l-2.305.14c-2.023.125-3.164 1.008-3.164 2.531 0 1.547 1.196 2.532 2.836 2.532zm.43-1.352c-.914 0-1.578-.461-1.578-1.25 0-.773.531-1.187 1.703-1.266l2.078-.14v.734c0 1.094-.937 1.922-2.203 1.922zm6.266 1.211h1.679v-5.211c0-1.109.774-1.977 1.797-1.977 1 0 1.641.602 1.641 1.571V321h1.648v-5.367c0-1.024.711-1.821 1.797-1.821 1.102 0 1.648.571 1.648 1.743V321h1.68v-5.852c0-1.765-1-2.796-2.719-2.796-1.179 0-2.156.601-2.586 1.515h-.132c-.375-.914-1.18-1.515-2.344-1.515-1.133 0-1.992.562-2.367 1.515h-.125v-1.351h-1.617V321zm19.828-2.273c-.313.687-1.008 1.062-2.024 1.062-1.344 0-2.211-.969-2.265-2.508v-.078h6.007v-.578c0-2.656-1.429-4.273-3.796-4.273-2.399 0-3.922 1.726-3.922 4.421 0 2.711 1.492 4.391 3.929 4.391 1.946 0 3.321-.937 3.688-2.437h-1.617zm-2.086-5.008c1.242 0 2.054.898 2.093 2.273h-4.296c.093-1.367.961-2.273 2.203-2.273z"/></defs></svg>