<svg width="24" height="24" viewBox="0 0 24 24" fill="none" xmlns="http://www.w3.org/2000/svg">
<g clip-path="url(#clip0_1_1421)">
<path d="M10 2C10.552 2 11 2.448 11 3V7C11 7.552 10.552 8 10 8H8V10H13V9C13 8.448 13.448 8 14 8H20C20.552 8 21 8.448 21 9V13C21 13.552 20.552 14 20 14H14C13.448 14 13 13.552 13 13V12H8V18H13V17C13 16.448 13.448 16 14 16H20C20.552 16 21 16.448 21 17V21C21 21.552 20.552 22 20 22H14C13.448 22 13 21.552 13 21V20H7C6.448 20 6 19.552 6 19V8H4C3.448 8 3 7.552 3 7V3C3 2.448 3.448 2 4 2H10ZM19 18H15V20H19V18ZM19 10H15V12H19V10ZM9 4H5V6H9V4Z" fill="#4C5664"/>
</g>
<defs>
<clipPath id="clip0_1_1421">
<rect width="24" height="24" fill="white"/>
</clipPath>
</defs>
</svg>
