<svg xmlns="http://www.w3.org/2000/svg" xmlns:xlink="http://www.w3.org/1999/xlink" width="882" height="476" fill="none" xmlns:v="https://vecta.io/nano"><path fill="#fff" d="M0 0h882v476H0z"/><path d="M315.061 94.126a1.24 1.24 0 1 0 0-2.481v2.481zM136.883 384.083a1.24 1.24 0 0 0 0-1.754l-7.895-7.896a1.241 1.241 0 1 0-1.755 1.755l7.018 7.018-7.018 7.018a1.241 1.241 0 1 0 1.755 1.755l7.895-7.896zM105.774 92.885v1.241-1.241zm-14.888 14.888h-1.241 1.241zm0 260.545h-1.241 1.241zM315.061 91.644h-2.492v2.481h2.492v-2.481zm-7.475 0h-4.983v2.481h4.983v-2.481zm-9.966 0h-4.983v2.481h4.983v-2.481zm-9.966 0h-4.983v2.481h4.983v-2.481zm-9.966 0h-4.983v2.481h4.983v-2.481zm-9.966 0h-4.983v2.481h4.983v-2.481zm-9.966 0h-4.983v2.481h4.983v-2.481zm-9.966 0h-4.983v2.481h4.983v-2.481zm-9.966 0h-4.983v2.481h4.983v-2.481zm-9.966 0h-4.983v2.481h4.983v-2.481zm-9.966 0h-4.983v2.481h4.983v-2.481zm-9.966 0h-4.983v2.481h4.983v-2.481zm-9.966 0h-4.983v2.481h4.983v-2.481zm-9.966 0h-4.983v2.481h4.983v-2.481zm-9.966 0h-4.983v2.481h4.983v-2.481zm-9.966 0h-4.983v2.481h4.983v-2.481zm-9.966 0h-4.983v2.481h4.983v-2.481zm-9.966 0h-4.983v2.481h4.983v-2.481zm-9.966 0h-4.983v2.481h4.983v-2.481zm-9.967 0h-4.983v2.481h4.983v-2.481zm-9.966 0h-4.983v2.481h4.983v-2.481zm-9.966 0h-2.491v2.481h2.491v-2.481zm-2.491 0a16.19 16.19 0 0 0-3.146.307l.481 2.434c.861-.17 1.752-.26 2.665-.26v-2.481zm-8.962 2.717a16.21 16.21 0 0 0-4.449 4.449l2.062 1.38c.997-1.488 2.279-2.77 3.768-3.767l-1.38-2.062zm-6.86 10.265c-.201 1.019-.307 2.071-.307 3.146h2.481a13.73 13.73 0 0 1 .26-2.664l-2.434-.482zm-.307 3.146v2.506h2.481v-2.506h-2.481zm0 7.516v5.011h2.481v-5.011h-2.481zm0 10.021v5.011h2.481v-5.011h-2.481zm0 10.021v5.01h2.481v-5.01h-2.481zm0 10.021v5.01h2.481v-5.01h-2.481zm0 10.021v5.01h2.481v-5.01h-2.481zm0 10.021v5.01h2.481v-5.01h-2.481zm0 10.021v5.01h2.481v-5.01h-2.481zm0 10.021v5.01h2.481v-5.01h-2.481zm0 10.021v5.01h2.481v-5.01h-2.481zm0 10.021v5.01h2.481v-5.01h-2.481zm0 10.02v5.011h2.481v-5.011h-2.481zm0 10.021v5.011h2.481v-5.011h-2.481zm0 10.021v5.011h2.481v-5.011h-2.481zm0 10.021v5.011h2.481v-5.011h-2.481zm0 10.021v5.011h2.481v-5.011h-2.481zm0 10.021v5.011h2.481v-5.011h-2.481zm0 10.021v5.011h2.481v-5.011h-2.481zm0 10.021v5.01h2.481v-5.01h-2.481zm0 10.021v5.01h2.481v-5.01h-2.481zm0 10.021v5.01h2.481v-5.01h-2.481zm0 10.021v5.01h2.481v-5.01h-2.481zm0 10.021v5.01h2.481v-5.01h-2.481zm0 10.021v5.01h2.481v-5.01h-2.481zm0 10.021v5.01h2.481v-5.01h-2.481zm0 10.021v5.01h2.481v-5.01h-2.481zm0 10.02v2.506h2.481v-2.506h-2.481zm0 2.506a16.2 16.2 0 0 0 .307 3.146l2.434-.481c-.17-.861-.26-1.752-.26-2.665h-2.481zm2.717 8.962a16.2 16.2 0 0 0 4.449 4.449l1.38-2.062c-1.489-.996-2.771-2.278-3.768-3.767l-2.062 1.38zm10.266 6.86a16.23 16.23 0 0 0 3.146.307v-2.482c-.913 0-1.804-.089-2.665-.259l-.481 2.434zm3.146.307h2.519v-2.482h-2.519v2.482zm7.558 0h5.039v-2.482h-5.039v2.482zm10.077 0h5.039v-2.482h-5.039v2.482zm10.078 0h2.519v-2.482h-2.519v2.482zM531.916 96.244a1.24 1.24 0 0 1 0-1.755l7.895-7.896a1.241 1.241 0 1 1 1.755 1.755l-7.018 7.018 7.018 7.018a1.241 1.241 0 1 1-1.755 1.755l-7.895-7.896zm201.645-.877v1.241-1.241zm14.888 14.888h1.241-1.241zm0 260.544h-1.241 1.241zM532.793 94.126h2.51v2.481h-2.51v-2.481zm7.529 0h5.019v2.481h-5.019v-2.481zm10.038 0h5.019v2.481h-5.019v-2.481zm10.039 0h5.019v2.481h-5.019v-2.481zm10.038 0h5.019v2.481h-5.019v-2.481zm10.038 0h5.02v2.481h-5.02v-2.481zm10.039 0h5.019v2.481h-5.019v-2.481zm10.038 0h5.019v2.481h-5.019v-2.481zm10.039 0h5.019v2.481h-5.019v-2.481zm10.038 0h5.019v2.481h-5.019v-2.481zm10.038 0h5.019v2.481h-5.019v-2.481zm10.039 0h5.019v2.481h-5.019v-2.481zm10.038 0h5.019v2.481h-5.019v-2.481zm10.038 0h5.02v2.481h-5.02v-2.481zm10.039 0h5.019v2.481h-5.019v-2.481zm10.038 0h5.019v2.481h-5.019v-2.481zm10.039 0h5.019v2.481h-5.019v-2.481zm10.038 0h5.019v2.481h-5.019v-2.481zm10.038 0h5.02v2.481h-5.02v-2.481zm10.039 0h5.019v2.481h-5.019v-2.481zm10.038 0h2.51v2.481h-2.51v-2.481zm2.51 0a16.2 16.2 0 0 1 3.146.307l-.481 2.434c-.861-.17-1.752-.26-2.665-.26v-2.481zm8.962 2.717a16.19 16.19 0 0 1 4.449 4.45l-2.062 1.38a13.71 13.71 0 0 0-3.767-3.768l1.38-2.062zm6.86 10.265a16.23 16.23 0 0 1 .307 3.146h-2.482c0-.913-.089-1.804-.259-2.665l2.434-.481zm.307 3.146v2.505h-2.482v-2.505h2.482zm0 7.516v5.01h-2.482v-5.01h2.482zm0 10.021v5.01h-2.482v-5.01h2.482zm0 10.021v5.01h-2.482v-5.01h2.482zm0 10.02v5.011h-2.482v-5.011h2.482zm0 10.021v5.011h-2.482v-5.011h2.482zm0 10.021v5.011h-2.482v-5.011h2.482zm0 10.021v5.011h-2.482v-5.011h2.482zm0 10.021v5.011h-2.482v-5.011h2.482zm0 10.021v5.011h-2.482v-5.011h2.482zm0 10.021v5.011h-2.482v-5.011h2.482zm0 10.021v5.01h-2.482v-5.01h2.482zm0 10.021v5.01h-2.482V228h2.482zm0 10.021v5.01h-2.482v-5.01h2.482zm0 10.021v5.01h-2.482v-5.01h2.482zm0 10.021v5.01h-2.482v-5.01h2.482zm0 10.021v5.01h-2.482v-5.01h2.482zm0 10.021v5.01h-2.482v-5.01h2.482zm0 10.021v5.01h-2.482v-5.01h2.482zm0 10.02v5.011h-2.482v-5.011h2.482zm0 10.021v5.011h-2.482v-5.011h2.482zm0 10.021v5.011h-2.482v-5.011h2.482zm0 10.021v5.011h-2.482v-5.011h2.482zm0 10.021v5.011h-2.482v-5.011h2.482zm0 10.021v5.011h-2.482v-5.011h2.482zm0 10.021v5.011h-2.482v-5.011h2.482zm0 10.021v2.505h-2.482v-2.505h2.482zm0 2.505a16.25 16.25 0 0 1-.307 3.147l-2.434-.482c.17-.861.259-1.752.259-2.665h2.482zm-2.718 8.963a16.2 16.2 0 0 1-4.449 4.449l-1.38-2.062c1.489-.997 2.771-2.279 3.767-3.768l2.062 1.381zm-10.265 6.859a16.16 16.16 0 0 1-3.146.307v-2.481c.913 0 1.804-.09 2.665-.26l.481 2.434zm-3.146.307h-2.636v-2.481h2.636v2.481zm-7.907 0h-5.272v-2.481h5.272v2.481zm-10.543 0h-5.271v-2.481h5.271v2.481zm-10.543 0h-2.635v-2.481h2.635v2.481z" fill="#4b4b4b"/><path d="M221.977 285.619v-15.145h5.488v-2.338h-13.703v2.338h5.501v15.145h2.714zm9.692.218c1.733 0 3.175-.751 3.962-2.084h.206v1.866h2.508v-9.002c0-2.763-1.866-4.41-5.173-4.41-2.993 0-5.125 1.441-5.392 3.659h2.52c.291-.957 1.297-1.503 2.751-1.503 1.781 0 2.702.812 2.702 2.254v1.151l-3.575.218c-3.138.194-4.907 1.563-4.907 3.926 0 2.399 1.854 3.925 4.398 3.925zm.667-2.096c-1.418 0-2.448-.715-2.448-1.938 0-1.2.824-1.842 2.642-1.963l3.223-.218v1.139c0 1.696-1.454 2.98-3.417 2.98zm16.708 2.096c3.332 0 5.452-2.653 5.452-6.797 0-4.18-2.108-6.809-5.452-6.809-1.805 0-3.356.884-4.059 2.314h-.206V267.3h-2.605v18.319h2.508v-2.084h.194c.787 1.454 2.326 2.302 4.168 2.302zm-.751-11.377c2.205 0 3.525 1.733 3.525 4.58s-1.32 4.568-3.525 4.568c-2.193 0-3.55-1.745-3.562-4.568.012-2.823 1.381-4.58 3.562-4.58zm9.462 11.159h2.605V267.3h-2.605v18.319zm15.17-3.526c-.485 1.067-1.563 1.648-3.138 1.648-2.084 0-3.429-1.502-3.514-3.889v-.121h9.317v-.897c0-4.119-2.217-6.627-5.888-6.627-3.72 0-6.082 2.677-6.082 6.857 0 4.205 2.314 6.81 6.094 6.81 3.017 0 5.149-1.454 5.719-3.781h-2.508zm-3.235-7.766c1.926 0 3.186 1.393 3.247 3.526h-6.664c.145-2.121 1.49-3.526 3.417-3.526z" fill="#000"/><path d="M0 202h171v53H0zm615 0h267v53H615z" fill="#fff"/><g stroke="#000" stroke-width="2.481"><path fill="#e3e3e3" d="M146.715 305.043h196.029v161.289H146.715z"/><g fill="#f9f9f9"><path d="M146.715 305.043h66.997v161.289h-66.997z"/><path d="M211.231 305.043h66.997v161.289h-66.997z"/><path d="M275.747 305.043h66.997v161.289h-66.997z"/><use xlink:href="#B"/><use xlink:href="#B" x="64.516"/><use xlink:href="#B" x="129.032"/></g><use xlink:href="#B" y="34.739" fill="#ffe6db"/><use xlink:href="#B" y="69.478" fill="#e6e6e6"/><use xlink:href="#B" x="64.516" y="34.739" fill="#ffe6db"/><use xlink:href="#B" x="64.516" y="69.478" fill="#e6e6e6"/><use xlink:href="#B" x="129.032" y="34.739" fill="#ffe6db"/><use xlink:href="#B" x="129.032" y="69.478" fill="#e6e6e6"/><path fill="#e3e3e3" d="M146.715 305.043h196.029v27.295H146.715z"/></g><path d="M572.434 285.619v-7.318h7.512v-2.29h-7.512v-5.537h8.202v-2.338H569.72v17.483h2.714zm16.999.255c3.852 0 6.215-2.581 6.215-6.834s-2.375-6.833-6.215-6.833c-3.853 0-6.228 2.592-6.228 6.833 0 4.253 2.363 6.834 6.228 6.834zm0-2.218c-2.266 0-3.538-1.684-3.538-4.616s1.272-4.628 3.538-4.628c2.253 0 3.537 1.696 3.537 4.628 0 2.92-1.284 4.616-3.537 4.616zm9.353 1.963h2.605v-7.863c0-1.854 1.394-3.126 3.368-3.126.461 0 1.236.085 1.454.145v-2.447c-.278-.061-.775-.097-1.163-.097-1.72 0-3.186.933-3.562 2.229h-.194v-1.999h-2.508v13.158zm10.129 0h2.605v-8.081c0-1.721 1.2-3.066 2.787-3.066 1.551 0 2.544.933 2.544 2.436v8.711h2.557v-8.324c0-1.587 1.102-2.823 2.786-2.823 1.709 0 2.557.885 2.557 2.702v8.445h2.605v-9.075c0-2.738-1.551-4.337-4.216-4.337-1.83 0-3.345.933-4.011 2.35h-.206c-.581-1.417-1.829-2.35-3.635-2.35-1.757 0-3.089.872-3.671 2.35h-.194v-2.096h-2.508v13.158z" fill="#000"/><g stroke="#000" stroke-width="2.481"><path fill="#f3f3f3" d="M499.071 305.043H695.1v161.289H499.071z"/><path fill="#f9f9f9" d="M543.737 344.746h109.181v17.37H543.737z"/><path fill="#ffe6db" d="M543.737 372.04h109.181v17.37H543.737z"/><path fill="#f9f9f9" d="M543.737 399.336h109.181v17.37H543.737z"/><path fill="#f86a2b" d="M566.069 426.631h64.516v17.37h-64.516z"/></g><g fill="#000"><circle cx="516.441" cy="322.413" r="3.722"/><circle cx="531.329" cy="322.413" r="3.722"/><circle cx="546.218" cy="322.413" r="3.722"/><path d="M12.368 220.989v17.484h5.997c5.198 0 8.251-3.235 8.251-8.748 0-5.501-3.065-8.736-8.251-8.736h-5.997zm2.181 1.963h3.671c3.877 0 6.167 2.52 6.167 6.797 0 4.265-2.266 6.761-6.167 6.761h-3.671v-13.558zm16.672-.061a1.46 1.46 0 0 0 1.454-1.454 1.46 1.46 0 0 0-1.454-1.453 1.46 1.46 0 0 0-1.454 1.453 1.46 1.46 0 0 0 1.454 1.454zm-1.042 15.582h2.084v-13.061h-2.084v13.061zm5.755-9.487c0 1.89 1.115 2.944 3.562 3.538l2.241.545c1.393.339 2.072.945 2.072 1.842 0 1.199-1.26 2.035-3.017 2.035-1.672 0-2.714-.703-3.065-1.805h-2.145c.23 2.169 2.229 3.562 5.137 3.562 2.968 0 5.234-1.612 5.234-3.95 0-1.878-1.187-2.944-3.647-3.538l-2.011-.485c-1.539-.375-2.266-.932-2.266-1.829 0-1.163 1.212-1.951 2.762-1.951 1.575 0 2.593.691 2.871 1.733h2.06c-.279-2.145-2.181-3.502-4.919-3.502-2.774 0-4.871 1.636-4.871 3.805zm19.652-3.805c-1.781 0-3.344.909-4.18 2.411h-.194v-2.18h-1.987v17.422h2.084v-6.324h.194c.715 1.381 2.217 2.193 4.083 2.193 3.32 0 5.489-2.678 5.489-6.761 0-4.107-2.157-6.761-5.489-6.761zm-.497 11.644c-2.35 0-3.841-1.89-3.841-4.883 0-3.005 1.49-4.883 3.853-4.883 2.387 0 3.817 1.83 3.817 4.883s-1.43 4.883-3.829 4.883zm9.378 1.648h2.084v-18.247h-2.084v18.247zm9.766.23c1.745 0 3.174-.763 4.023-2.157h.194v1.927h1.987v-8.942c0-2.714-1.781-4.35-4.968-4.35-2.787 0-4.847 1.382-5.125 3.478h2.108c.291-1.03 1.381-1.624 2.944-1.624 1.951 0 2.956.885 2.956 2.496v1.187l-3.768.231c-3.041.181-4.762 1.526-4.762 3.865 0 2.386 1.878 3.889 4.41 3.889zm.388-1.83c-1.514 0-2.641-.775-2.641-2.108 0-1.308.872-1.999 2.859-2.132l3.514-.231v1.2c0 1.866-1.587 3.271-3.732 3.271zm10.299 6.325c2.314 0 3.356-.897 4.471-3.926l5.101-13.86h-2.217L88.7 236.158h-.194l-3.586-10.746h-2.254l4.834 13.073-.242.775c-.545 1.575-1.2 2.145-2.399 2.145-.291 0-.618-.012-.872-.061v1.781a6.1 6.1 0 0 0 .933.073zm19.628-22.209v17.484h5.998c5.198 0 8.251-3.235 8.251-8.748 0-5.501-3.065-8.736-8.251-8.736h-5.998zm2.181 1.963h3.672c3.877 0 6.167 2.52 6.167 6.797 0 4.265-2.266 6.761-6.167 6.761h-3.672v-13.558zm19.217 15.751c1.744 0 3.174-.763 4.022-2.157h.194v1.927h1.987v-8.942c0-2.714-1.781-4.35-4.968-4.35-2.786 0-4.846 1.382-5.125 3.478h2.108c.291-1.03 1.382-1.624 2.945-1.624 1.95 0 2.956.885 2.956 2.496v1.187l-3.768.231c-3.041.181-4.762 1.526-4.762 3.865 0 2.386 1.878 3.889 4.411 3.889zm.387-1.83c-1.514 0-2.641-.775-2.641-2.108 0-1.308.872-1.999 2.859-2.132l3.514-.231v1.2c0 1.866-1.587 3.271-3.732 3.271zm10.541-14.842v3.381h-2.108v1.744h2.108v7.924c0 2.496 1.079 3.49 3.768 3.49.412 0 .812-.049 1.224-.122v-1.756a8.89 8.89 0 0 1-.969.048c-1.357 0-1.939-.654-1.939-2.193v-7.391h2.908v-1.744h-2.908v-3.381h-2.084zm11.777 16.672c1.745 0 3.174-.763 4.023-2.157h.193v1.927h1.988v-8.942c0-2.714-1.782-4.35-4.968-4.35-2.787 0-4.847 1.382-5.125 3.478h2.108c.291-1.03 1.381-1.624 2.944-1.624 1.951 0 2.957.885 2.957 2.496v1.187l-3.769.231c-3.041.181-4.761 1.526-4.761 3.865 0 2.386 1.878 3.889 4.41 3.889zm.388-1.83c-1.515 0-2.642-.775-2.642-2.108 0-1.308.873-1.999 2.86-2.132l3.514-.231v1.2c0 1.866-1.588 3.271-3.732 3.271zm487.011 1.6h2.289l-6.445-17.483h-2.157l-6.446 17.483h2.29l1.757-5.004h6.955l1.757 5.004zm-5.332-14.66h.194l2.739 7.802h-5.671l2.738-7.802zm14.528 14.89c1.805 0 3.356-.86 4.18-2.314h.194v2.084h1.987v-18.247h-2.084v7.246h-.182c-.739-1.43-2.278-2.29-4.095-2.29-3.32 0-5.489 2.665-5.489 6.761 0 4.107 2.145 6.76 5.489 6.76zm.484-11.643c2.363 0 3.841 1.89 3.841 4.883 0 3.016-1.466 4.882-3.841 4.882-2.387 0-3.816-1.829-3.816-4.882 0-3.042 1.442-4.883 3.816-4.883zm14.758 11.643c1.805 0 3.356-.86 4.18-2.314h.194v2.084h1.987v-18.247h-2.084v7.246h-.182c-.739-1.43-2.278-2.29-4.095-2.29-3.32 0-5.489 2.665-5.489 6.761 0 4.107 2.145 6.76 5.489 6.76zm.484-11.643c2.363 0 3.841 1.89 3.841 4.883 0 3.016-1.466 4.882-3.841 4.882-2.387 0-3.816-1.829-3.816-4.882 0-3.042 1.442-4.883 3.816-4.883zm16.83 15.133l6.3-21.967h-1.769l-6.3 21.967h1.769zm17.786-21.203h-2.181v11.474c0 3.731 2.605 6.421 6.943 6.421s6.942-2.69 6.942-6.421V220.99h-2.181v11.328c0 2.641-1.732 4.556-4.761 4.556s-4.762-1.915-4.762-4.556V220.99zm22.233 4.192c-1.781 0-3.344.908-4.18 2.411h-.194v-2.181h-1.987v17.423h2.084v-6.325h.194c.715 1.382 2.217 2.193 4.083 2.193 3.32 0 5.489-2.677 5.489-6.76 0-4.108-2.157-6.761-5.489-6.761zm-.497 11.643c-2.35 0-3.841-1.89-3.841-4.882 0-3.005 1.491-4.883 3.853-4.883 2.387 0 3.817 1.829 3.817 4.883s-1.43 4.882-3.829 4.882zm14.091 1.878c1.806 0 3.356-.86 4.18-2.314h.194v2.084h1.987v-18.247h-2.084v7.246h-.181c-.74-1.43-2.278-2.29-4.096-2.29-3.32 0-5.488 2.665-5.488 6.761 0 4.107 2.144 6.76 5.488 6.76zm.485-11.643c2.363 0 3.841 1.89 3.841 4.883 0 3.016-1.466 4.882-3.841 4.882-2.387 0-3.817-1.829-3.817-4.882 0-3.042 1.442-4.883 3.817-4.883zm13.558 11.643c1.745 0 3.174-.763 4.022-2.156h.194v1.926h1.987v-8.942c0-2.714-1.781-4.349-4.967-4.349-2.787 0-4.847 1.381-5.125 3.477h2.108c.291-1.03 1.381-1.623 2.944-1.623 1.951 0 2.956.884 2.956 2.495v1.188l-3.768.23c-3.041.182-4.761 1.527-4.761 3.865 0 2.387 1.878 3.889 4.41 3.889zm.388-1.829c-1.515 0-2.642-.776-2.642-2.108 0-1.309.873-2 2.86-2.133l3.513-.23v1.199c0 1.866-1.587 3.272-3.731 3.272zm10.541-14.842v3.38h-2.109v1.745h2.109v7.924c0 2.496 1.078 3.489 3.768 3.489.412 0 .811-.048 1.223-.121v-1.757l-.969.049c-1.357 0-1.938-.655-1.938-2.193v-7.391h2.907v-1.745h-2.907v-3.38h-2.084zm16.599 13.061c-.546 1.151-1.685 1.769-3.369 1.769-2.217 0-3.659-1.636-3.768-4.217v-.097h9.39v-.799c0-4.059-2.144-6.567-5.67-6.567-3.586 0-5.889 2.665-5.889 6.773 0 4.131 2.266 6.748 5.889 6.748 2.859 0 4.895-1.381 5.501-3.61h-2.084zm-3.441-8.07c2.071 0 3.453 1.527 3.501 3.841h-7.197c.158-2.314 1.612-3.841 3.696-3.841zm15.872 15.17l6.3-21.967h-1.769l-6.3 21.967h1.769zm15.629-21.203v17.483h5.998c5.198 0 8.251-3.235 8.251-8.748 0-5.5-3.065-8.735-8.251-8.735h-5.998zm2.181 1.962h3.672c3.877 0 6.167 2.521 6.167 6.798 0 4.264-2.266 6.76-6.167 6.76h-3.672v-13.558zm24.233 12.141c-.546 1.151-1.685 1.769-3.369 1.769-2.217 0-3.659-1.636-3.768-4.217v-.097h9.39v-.799c0-4.059-2.144-6.567-5.67-6.567-3.587 0-5.889 2.665-5.889 6.773 0 4.131 2.266 6.748 5.889 6.748 2.859 0 4.895-1.381 5.501-3.61h-2.084zm-3.441-8.07c2.071 0 3.453 1.527 3.501 3.841h-7.197c.158-2.314 1.612-3.841 3.696-3.841zm9.087 11.45h2.084v-18.247h-2.084v18.247zm14.781-3.38c-.545 1.151-1.684 1.769-3.368 1.769-2.217 0-3.659-1.636-3.768-4.217v-.097h9.39v-.799c0-4.059-2.145-6.567-5.67-6.567-3.587 0-5.889 2.665-5.889 6.773 0 4.131 2.266 6.748 5.889 6.748 2.859 0 4.894-1.381 5.5-3.61h-2.084zm-3.441-8.07c2.072 0 3.453 1.527 3.502 3.841h-7.197c.157-2.314 1.611-3.841 3.695-3.841zm9.839-4.991v3.38h-2.109v1.745h2.109v7.924c0 2.496 1.078 3.489 3.768 3.489.412 0 .811-.048 1.223-.121v-1.757a8.87 8.87 0 0 1-.969.049c-1.357 0-1.938-.655-1.938-2.193v-7.391h2.907v-1.745h-2.907v-3.38h-2.084zm16.599 13.061c-.546 1.151-1.685 1.769-3.369 1.769-2.217 0-3.659-1.636-3.768-4.217v-.097h9.39v-.799c0-4.059-2.144-6.567-5.67-6.567-3.586 0-5.889 2.665-5.889 6.773 0 4.131 2.266 6.748 5.889 6.748 2.859 0 4.895-1.381 5.501-3.61h-2.084zm-3.441-8.07c2.072 0 3.453 1.527 3.501 3.841h-7.197c.158-2.314 1.612-3.841 3.696-3.841z"/></g><g stroke="#000" stroke-width="2.983"><path d="M337 165.575V26.85a8.95 8.95 0 0 1 8.95-8.95h161.1a8.95 8.95 0 0 1 8.95 8.95v138.725s-14.917 20.883-89.5 20.883-89.5-20.883-89.5-20.883z" fill="#f3f3f3"/><path d="M337 165.575v-44.75s23.867 17.9 89.5 17.9 89.5-17.9 89.5-17.9v44.75s-23.867 20.884-89.5 20.884-89.5-20.884-89.5-20.884z" fill="#ffe6db"/><path d="M337 116.351v-44.75s23.867 17.9 89.5 17.9 89.5-17.9 89.5-17.9v44.75s0 20.883-89.5 20.883-89.5-20.883-89.5-20.883z" fill="#e9e9e9"/><path d="M514.508 22.375c0 2.236-1.849 4.794-6.3 7.425-4.352 2.572-10.749 4.94-18.784 6.949-16.047 4.012-38.294 6.509-62.924 6.509s-46.877-2.497-62.924-6.509c-8.035-2.009-14.432-4.377-18.784-6.949-4.451-2.631-6.3-5.189-6.3-7.425s1.849-4.794 6.3-7.425c4.352-2.572 10.749-4.94 18.784-6.949 16.047-4.012 38.294-6.509 62.924-6.509s46.877 2.497 62.924 6.509c8.035 2.009 14.432 4.377 18.784 6.949 4.451 2.631 6.3 5.189 6.3 7.425z" fill="#ccc"/><path d="M516 116.351c0 11.534-41.562 22.375-90.992 22.375S337 127.885 337 116.351"/></g><path d="M489.377 386.877a1.24 1.24 0 0 0 0-1.754l-7.895-7.896a1.24 1.24 0 1 0-1.755 1.755l7.018 7.018-7.018 7.018a1.24 1.24 0 1 0 1.755 1.755l7.895-7.896zm-137.877.364h2.446v-2.482H351.5v2.482zm7.339 0h4.893v-2.482h-4.893v2.482zm9.786 0h4.893v-2.482h-4.893v2.482zm9.786 0h4.893v-2.482h-4.893v2.482zm9.785 0h4.893v-2.482h-4.893v2.482zm9.786 0h4.893v-2.482h-4.893v2.482zm9.786 0h4.893v-2.482h-4.893v2.482zm9.786 0h4.892v-2.482h-4.892v2.482zm9.785 0h4.893v-2.482h-4.893v2.482zm9.786 0h4.893v-2.482h-4.893v2.482zm9.786 0h4.893v-2.482h-4.893v2.482zm9.785 0h4.893v-2.482h-4.893v2.482zm9.786 0h4.893v-2.482h-4.893v2.482zm9.786 0h4.893v-2.482h-4.893v2.482zm9.786 0h2.446v-2.482h-2.446v2.482z" fill="#4b4b4b"/><defs ><path id="B" d="M146.715 332.338h66.997v34.739h-66.997z"/></defs></svg>