<svg fill="none" height="32" viewBox="0 0 32 32" width="32" xmlns="http://www.w3.org/2000/svg"><path clip-rule="evenodd" d="m28.7999 3.20001v7.99999h-3.2v-4.79999h-19.19995v4.79999h-3.2v-7.99999zm-25.59995 25.59999v-8h3.2v4.8h19.19995v-4.8h3.2v8zm18.44255-16.7948.8447-.8278 3.8942 3.8942.8193.8361-.8193.8363-4.3842 4.3842-.8361-.8363-.8362-.8364 3.5478-3.5477-3.058-3.0583zm-11.4891 9.123.8447-.8279.8278-.8443-3.05808-3.0582 3.54778-3.5478-.8362-.8364-.8361-.8363-4.38417 4.3842-.81932.8363.81932.8361zm10.6821-12.51198-2.1496-.98653-6.9057 15.04761 2.1496.9866z" fill="#4b4848" fill-rule="evenodd"/></svg>