<svg xmlns="http://www.w3.org/2000/svg" width="22" height="22" fill="none" viewBox="0 0 22 22"><path fill="#858282" d="M18.5861 20.0001H2.00007C1.73485 20.0001 1.4805 19.8947 1.29296 19.7072C1.10542 19.5196 1.00007 19.2653 1.00007 19.0001V5.00007C1.00007 4.73485 1.10542 4.4805 1.29296 4.29296C1.4805 4.10542 1.73485 4.00007 2.00007 4.00007H2.58607L0.393066 1.80807L1.80807 0.393066L21.6071 20.1931L20.1921 21.6071L18.5861 20.0001ZM4.58607 6.00007H3.00007V18.0001H16.5861L14.4061 15.8201C13.3486 16.657 12.0205 17.0762 10.6742 16.9981C9.32795 16.92 8.05726 16.35 7.10368 15.3965C6.1501 14.4429 5.5801 13.1722 5.502 11.8259C5.4239 10.4796 5.84315 9.15151 6.68007 8.09407L4.58607 6.00007ZM8.11007 9.52507C7.64905 10.1988 7.43805 11.0125 7.51359 11.8254C7.58912 12.6383 7.94644 13.3992 8.5237 13.9764C9.10097 14.5537 9.86187 14.911 10.6747 14.9865C11.4876 15.0621 12.3013 14.8511 12.9751 14.3901L8.11007 9.52507ZM21.0001 16.7851L19.0001 14.7851V6.00007H15.1721L13.1721 4.00007H8.82807L8.52107 4.30707L7.10707 2.89307L8.00007 2.00007H14.0001L16.0001 4.00007H20.0001C20.2653 4.00007 20.5196 4.10542 20.7072 4.29296C20.8947 4.4805 21.0001 4.73485 21.0001 5.00007V16.7861V16.7851ZM10.2631 6.05007C11.1024 5.93646 11.9567 6.01825 12.7592 6.28905C13.5618 6.55985 14.2909 7.01236 14.8899 7.61128C15.4888 8.21021 15.9413 8.93937 16.2121 9.74191C16.4829 10.5445 16.5647 11.3987 16.4511 12.2381L14.1131 9.90007C13.7783 9.25128 13.2499 8.72282 12.6011 8.38807L10.2631 6.05007Z"/></svg>