<svg xmlns="http://www.w3.org/2000/svg" width="24" height="24" fill="none" viewBox="0 0 24 24"><path fill="#fff" d="M15.6364 5C16.1382 5 16.5455 5.392 16.5455 5.875V9.55001L21.2846 6.35625C21.49 6.21801 21.7736 6.26613 21.9182 6.46476C21.9709 6.53826 22 6.62575 22 6.715V17.285C22 17.5265 21.7963 17.7226 21.5454 17.7226C21.4518 17.7226 21.3609 17.6945 21.2846 17.6438L16.5455 14.45V18.125C16.5455 18.608 16.1382 19 15.6364 19H2.90909C2.40728 19 2 18.608 2 18.125V5.875C2 5.392 2.40728 5 2.90909 5H15.6364ZM14.7272 6.75H3.81818V17.2501H14.7272V6.75ZM20.1818 9.23588L16.5455 11.6859V12.3141L20.1818 14.7641V9.23588Z"/><path stroke="#fff" stroke-linecap="round" stroke-width="2" d="M21.5 2.5L2 21.5"/></svg>