<svg xmlns="http://www.w3.org/2000/svg" width="16" height="20" fill="none" viewBox="0 0 16 20"><path fill="#fff" d="M7.99994 2.50016C7.3369 2.50016 6.70102 2.76355 6.23218 3.2324C5.76333 3.70124 5.49994 4.33712 5.49994 5.00016V8.3335C5.49994 8.99654 5.76333 9.63242 6.23218 10.1013C6.70102 10.5701 7.3369 10.8335 7.99994 10.8335C8.66298 10.8335 9.29887 10.5701 9.76771 10.1013C10.2366 9.63242 10.4999 8.99654 10.4999 8.3335V5.00016C10.4999 4.33712 10.2366 3.70124 9.76771 3.2324C9.29887 2.76355 8.66298 2.50016 7.99994 2.50016ZM7.99994 0.833496C8.54712 0.833496 9.08893 0.94127 9.59446 1.15066C10.1 1.36006 10.5593 1.66697 10.9462 2.05388C11.3331 2.4408 11.64 2.90012 11.8494 3.40565C12.0588 3.91117 12.1666 4.45299 12.1666 5.00016V8.3335C12.1666 9.43856 11.7276 10.4984 10.9462 11.2798C10.1648 12.0612 9.10501 12.5002 7.99994 12.5002C6.89487 12.5002 5.83507 12.0612 5.05366 11.2798C4.27226 10.4984 3.83328 9.43856 3.83328 8.3335V5.00016C3.83328 3.89509 4.27226 2.83529 5.05366 2.05388C5.83507 1.27248 6.89487 0.833496 7.99994 0.833496ZM0.545776 9.16683H2.22494C2.42685 10.5541 3.1215 11.8224 4.1818 12.7396C5.24211 13.6567 6.59718 14.1615 7.99911 14.1615C9.40104 14.1615 10.7561 13.6567 11.8164 12.7396C12.8767 11.8224 13.5714 10.5541 13.7733 9.16683H15.4533C15.2638 10.8574 14.5055 12.4335 13.3026 13.6364C12.0998 14.8394 10.5238 15.598 8.83328 15.7877V19.1668H7.16661V15.7877C5.47589 15.5982 3.89976 14.8397 2.69676 13.6367C1.49375 12.4337 0.735287 10.8575 0.545776 9.16683Z"/></svg>