<svg xmlns="http://www.w3.org/2000/svg" width="50" height="50" fill="none" viewBox="0 0 50 50"><path fill="#fff" d="M31.9355 10.798C31.9355 10.798 36.4468 3.72082 44.6363 2V29.1204L31.9355 10.798Z" opacity=".6"/><path fill="#fff" d="M18.7007 10.798C18.7007 10.798 14.1894 3.72082 5.99994 2V29.1204L18.7007 10.798Z" opacity=".6"/><path fill="#fff" fill-rule="evenodd" d="M25.3182 9.23413C14.649 9.23413 6 17.8832 6 28.5523V32.5196V34.9338V36.8905V39.7623C6 44.7831 10.0701 48.8532 15.0909 48.8532H43.075C43.9373 48.8532 44.6364 48.1542 44.6364 47.2919V28.5523C44.6364 17.8832 35.9873 9.23413 25.3182 9.23413ZM25.318 41.7854L19.3099 37.0727C18.5725 35.8248 18.5007 34.5139 19.1142 33.4767C19.7273 32.4398 20.9248 31.8448 22.4004 31.8448H28.2355C29.7107 31.8448 30.9087 32.4394 31.5218 33.4767C32.1353 34.5139 32.0638 35.8244 31.3265 37.0723L25.318 41.7854ZM17.3636 25.1432C17.3636 24.5156 17.8724 24.0069 18.5 24.0069C19.1276 24.0069 19.6364 24.5156 19.6364 25.1432V28.5523C19.6364 29.1799 19.1276 29.6887 18.5 29.6887C17.8724 29.6887 17.3636 29.1799 17.3636 28.5523V25.1432ZM31 25.1432C31 24.5156 31.5088 24.0069 32.1364 24.0069C32.764 24.0069 33.2727 24.5156 33.2727 25.1432V28.5523C33.2727 29.1799 32.764 29.6887 32.1364 29.6887C31.5088 29.6887 31 29.1799 31 28.5523V25.1432ZM34.3869 38.036L39.1212 39.9326L38.2241 42.0208L33.496 40.1269L34.3869 38.036ZM41.6317 33.7768L34.4313 33.3998L34.3869 35.6721L41.5873 36.049L41.6317 33.7768ZM16.4728 37.7339L11.4874 39.9511L12.3504 42.0538L17.3636 39.8248L16.4728 37.7339ZM9.06626 33.4934L16.4284 33.0978L16.4728 35.3701L9.1106 35.7657L9.06626 33.4934Z" clip-rule="evenodd"/></svg>