<svg xmlns="http://www.w3.org/2000/svg" width="51" height="50" fill="none" viewBox="0 0 51 50"><path fill="#fff" fill-rule="evenodd" d="M0 42.6667H43.3333V16H0V42.6667ZM9.85309 40.4427C9.16162 36.5634 6.10175 33.504 2.22222 32.8133V25.8534C6.1003 25.1629 9.15934 22.1055 9.85232 18.2283L33.4844 18.2472C34.1839 22.1152 37.239 25.1637 41.1104 25.8533L41.1107 32.8133C37.2314 33.5042 34.1717 36.5635 33.4802 40.4427H9.85309Z" clip-rule="evenodd"/><path fill="#fff" d="M21.111 36.0001C24.7929 36.0001 27.7777 33.0154 27.7777 29.3334C27.7777 25.6515 24.7929 22.6667 21.111 22.6667C17.4291 22.6667 14.4443 25.6515 14.4443 29.3334C14.4479 33.0138 17.4306 35.9965 21.111 36.0001Z"/><path fill="#fff" d="M9.4445 31.0001C10.3649 31.0001 11.1112 30.2538 11.1112 29.3334C11.1112 28.413 10.3649 27.6667 9.4445 27.6667C8.52408 27.6667 7.77783 28.413 7.77783 29.3334C7.77783 30.254 8.52408 31.0001 9.4445 31.0001Z"/><path fill="#fff" d="M33.8888 31.0001C34.8093 31.0001 35.5555 30.2538 35.5555 29.3334C35.5555 28.413 34.8093 27.6667 33.8888 27.6667C32.9684 27.6667 32.2222 28.413 32.2222 29.3334C32.2222 30.254 32.9684 31.0001 33.8888 31.0001Z"/><path fill="#fff" d="M8 7H51V37H45.416V14H8V7Z" opacity=".6"/></svg>