<svg xmlns="http://www.w3.org/2000/svg" width="50" height="50" fill="none" viewBox="0 0 50 50"><path fill="#B2B2B2" fill-rule="evenodd" d="M22 0C19.7909 0 18 1.79086 18 4V6H30C32.7614 6 35 8.23858 35 11V39H39C41.2091 39 43 37.2091 43 35V4C43 1.79086 41.2091 0 39 0H22Z" clip-rule="evenodd" opacity=".6"/><path fill="#fff" fill-rule="evenodd" d="M8 12C8 9.79086 9.79086 8 12 8H29C31.2091 8 33 9.79086 33 12V46C33 48.2091 31.2091 50 29 50H12C9.79086 50 8 48.2091 8 46V12ZM22 47.5C22 48.3284 21.3284 49 20.5 49C19.6716 49 19 48.3284 19 47.5C19 46.6716 19.6716 46 20.5 46C21.3284 46 22 46.6716 22 47.5ZM24 11H17V13H24V11Z" clip-rule="evenodd"/><path fill="#B2B2B2" d="M10 14H31V45H10V14Z"/></svg>