<svg xmlns="http://www.w3.org/2000/svg" width="48" height="45" fill="none" viewBox="0 0 48 45"><path fill="#fff" d="M47.9829 20.921C47.9797 20.8362 47.9733 20.7525 47.9669 20.6688C47.9604 20.5787 47.953 20.4897 47.9433 20.4008C47.9348 20.3129 47.9252 20.225 47.9134 20.1382C47.9081 20.0969 47.9027 20.0545 47.8963 20.0132C47.8899 19.957 47.8813 19.9019 47.8728 19.8468C47.8696 19.8224 47.8664 19.7991 47.861 19.7758C47.8525 19.7122 47.8418 19.6497 47.83 19.5862C47.8151 19.5003 47.799 19.4156 47.7819 19.3309C47.7744 19.2928 47.7659 19.2546 47.7573 19.2176C47.7445 19.1529 47.7306 19.0883 47.7146 19.0247C47.6996 18.958 47.6836 18.8912 47.6665 18.8266C47.6494 18.7545 47.6301 18.6825 47.6109 18.6115C47.6066 18.5945 47.6023 18.5787 47.5981 18.5638C47.5842 18.514 47.5703 18.4653 47.5553 18.4165C47.5393 18.3593 47.5222 18.3011 47.5029 18.2438C47.4976 18.2227 47.4912 18.2015 47.4837 18.1813C47.4676 18.1294 47.4516 18.0786 47.4334 18.0266C47.4163 17.9758 47.3992 17.9249 47.3811 17.8751C47.3704 17.8423 47.3586 17.8094 47.3469 17.7776C47.3297 17.73 47.3126 17.6823 47.2934 17.6357C47.2827 17.6028 47.2699 17.57 47.2571 17.5382C47.2346 17.4799 47.2122 17.4238 47.1886 17.3666C47.1833 17.3507 47.1769 17.3358 47.1705 17.321C47.1427 17.2532 47.1138 17.1854 47.0849 17.1186L47.0657 17.0741C47.0347 17.0042 47.0026 16.9353 46.9706 16.8665C46.9396 16.7997 46.9086 16.733 46.8754 16.6673C46.8573 16.6281 46.838 16.5899 46.8177 16.5518C46.7931 16.5009 46.7664 16.4501 46.7397 16.4003C46.7001 16.3229 46.6584 16.2466 46.6167 16.1714C46.5761 16.0994 46.5355 16.0273 46.4938 15.9553C46.4831 15.9372 46.4724 15.9203 46.4617 15.9023C46.4275 15.8429 46.3912 15.7836 46.3559 15.7253C46.3538 15.7222 46.3516 15.719 46.3495 15.7158C46.3057 15.6448 46.2608 15.5749 46.2159 15.506C45.8397 14.9266 45.4111 14.3852 44.9355 13.8874C44.8586 13.8058 44.7795 13.7253 44.6982 13.647C44.6405 13.5887 44.5817 13.5315 44.5219 13.4753C44.4534 13.4107 44.385 13.3471 44.3145 13.2846C44.2514 13.2274 44.1873 13.1712 44.1231 13.1172C44.0558 13.0589 43.9874 13.0007 43.9179 12.9445C43.8602 12.8968 43.8014 12.8502 43.7426 12.8036C43.6442 12.7273 43.5469 12.6531 43.4476 12.5811C43.4059 12.5493 43.3632 12.5186 43.3204 12.4889C43.2937 12.4688 43.2659 12.4497 43.2381 12.4306C43.1847 12.3935 43.1312 12.3565 43.0767 12.3194C43.0671 12.313 43.0564 12.3067 43.0468 12.2992C42.989 12.2611 42.9302 12.223 42.8714 12.1848C42.8437 12.1668 42.8159 12.1498 42.7881 12.1318C42.6662 12.0545 42.5423 11.9803 42.4162 11.9083C42.367 11.8797 42.3178 11.8511 42.2676 11.8246C42.2291 11.8023 42.1906 11.7811 42.1511 11.7599C42.0923 11.7271 42.0324 11.6953 41.9715 11.6646C41.9234 11.6402 41.8753 11.6148 41.8272 11.5915C41.5087 11.4315 41.1805 11.2864 40.8439 11.1582C40.7851 11.1339 40.7253 11.1116 40.6654 11.0904C40.6461 11.083 40.6269 11.0756 40.6077 11.0692C40.5574 11.0512 40.5072 11.0332 40.4559 11.0163C40.4185 11.0025 40.3821 10.9908 40.3447 10.9781C40.2944 10.9612 40.2453 10.9453 40.195 10.9304C39.9823 10.8626 39.7675 10.8012 39.5495 10.7471C39.4725 10.727 39.3945 10.709 39.3164 10.691C39.2341 10.6719 39.1518 10.6539 39.0684 10.6369C39.0545 10.6338 39.0406 10.6316 39.0257 10.6285C38.9434 10.6115 38.86 10.5956 38.7756 10.5808C38.7724 10.5808 38.7692 10.5797 38.766 10.5797C38.6752 10.5628 38.5832 10.5479 38.4913 10.5342C38.4068 10.5215 38.3224 10.5098 38.238 10.4981C38.1515 10.4875 38.0659 10.478 37.9795 10.4685C37.942 10.4642 37.9036 10.4611 37.8651 10.4579C37.7945 10.4505 37.7229 10.4441 37.6513 10.4388C37.6481 10.4388 37.6438 10.4378 37.6406 10.4388C37.5572 10.4314 37.4728 10.4261 37.3884 10.4229C37.3702 10.4208 37.3531 10.4197 37.335 10.4197C37.274 10.4166 37.2131 10.4134 37.1511 10.4123C37.119 10.4113 37.0859 10.4102 37.0538 10.4091C36.964 10.407 36.8742 10.406 36.7835 10.406C36.3688 10.406 35.9606 10.4282 35.5576 10.4717C35.5447 10.3752 35.5308 10.2788 35.5148 10.1825C35.4999 10.0872 35.4838 9.9918 35.4656 9.89654C35.4272 9.68676 35.3833 9.4792 35.332 9.27259C35.316 9.19948 35.2978 9.12743 35.2786 9.05538C35.2786 9.0522 35.2775 9.04903 35.2754 9.04585C35.2529 8.95473 35.2273 8.86467 35.2016 8.77577C35.1802 8.69737 35.1567 8.62002 35.1332 8.54374C35.1193 8.50029 35.1065 8.45685 35.0915 8.41341C35.0776 8.36679 35.0626 8.32123 35.0466 8.27567C35.0274 8.21846 35.0081 8.16125 34.9878 8.10509C34.9825 8.08814 34.9771 8.07119 34.9696 8.05423C34.945 7.98218 34.9183 7.9112 34.8916 7.84127C34.8852 7.82114 34.8766 7.801 34.8681 7.78087C34.8488 7.7279 34.8275 7.67492 34.8061 7.62194C34.7868 7.57321 34.7676 7.52447 34.7462 7.47679C34.7366 7.45136 34.727 7.42699 34.7152 7.40156C34.6896 7.34117 34.6639 7.28078 34.6372 7.22038C34.6254 7.19283 34.6126 7.16529 34.5998 7.13774C34.5762 7.08582 34.5527 7.0339 34.5281 6.98305C34.5068 6.93749 34.4854 6.89087 34.4629 6.84531C34.4533 6.82518 34.4437 6.80611 34.433 6.78597C34.4031 6.72346 34.3721 6.66201 34.34 6.60056C34.3293 6.57937 34.3186 6.55818 34.3069 6.53698C34.2759 6.47659 34.2438 6.41726 34.2117 6.35792C34.2021 6.34097 34.1925 6.32296 34.1829 6.30495C34.1465 6.23926 34.1091 6.17357 34.0717 6.10787C34.0268 6.02947 33.9819 5.95318 33.9359 5.87796C33.8974 5.81438 33.8579 5.75081 33.8183 5.68724C33.7777 5.62261 33.736 5.55904 33.6943 5.49547C33.6216 5.38422 33.5468 5.27508 33.4699 5.16712C33.3758 5.03256 33.2785 4.90128 33.1792 4.77096C33.1225 4.69785 33.0648 4.62474 33.006 4.55164C32.9483 4.47959 32.8884 4.40754 32.8286 4.33655C32.7655 4.26133 32.7014 4.18716 32.6362 4.11405C32.5774 4.0473 32.5186 3.98267 32.4576 3.91698C32.3956 3.85023 32.3326 3.78242 32.2684 3.71673C32.2641 3.71249 32.2609 3.70931 32.2577 3.70613C32.1957 3.6415 32.1327 3.57899 32.0685 3.51648C32.0022 3.45078 31.936 3.38615 31.8676 3.32258C31.7318 3.19438 31.5928 3.06946 31.4518 2.94867C31.3813 2.88828 31.3097 2.82789 31.238 2.76961C31.1856 2.72617 31.1343 2.68485 31.083 2.64353C31.0135 2.58843 30.943 2.5344 30.8724 2.48036C30.819 2.43904 30.7645 2.39878 30.71 2.35957C30.6554 2.31825 30.6009 2.27905 30.5453 2.24091C30.5068 2.21336 30.4684 2.18687 30.4299 2.16038C30.3155 2.08092 30.199 2.00357 30.0804 1.92729C30.028 1.89444 29.9757 1.8616 29.9222 1.82875C29.8581 1.78849 29.7929 1.74928 29.7277 1.71008C29.6304 1.65181 29.531 1.59459 29.4306 1.5395C29.3312 1.48334 29.2296 1.42931 29.1282 1.37633C29.0384 1.32971 28.9475 1.28309 28.8557 1.23859C28.7873 1.20575 28.7178 1.1729 28.6483 1.14005C28.5852 1.11039 28.5222 1.08178 28.4591 1.05423C28.3982 1.02668 28.3372 1.0002 28.2763 0.974768C28.2688 0.971589 28.2603 0.968411 28.2528 0.964173C28.194 0.939803 28.1341 0.914375 28.0753 0.891065C27.946 0.839148 27.8156 0.788291 27.6842 0.740612C27.619 0.716243 27.5527 0.692933 27.4864 0.670683C27.4212 0.647373 27.3539 0.625123 27.2876 0.603932C27.154 0.560492 27.0205 0.51917 26.8847 0.479967C26.8355 0.466193 26.7874 0.452419 26.7383 0.438646C26.703 0.42805 26.6666 0.418515 26.6314 0.410038C26.58 0.396264 26.5298 0.38249 26.4785 0.369776C26.3406 0.334812 26.2017 0.303026 26.0617 0.273359C26.0221 0.264883 25.9826 0.256406 25.942 0.24793C25.8842 0.236275 25.8254 0.22462 25.7677 0.214025C25.7474 0.209787 25.7282 0.206608 25.7089 0.20343C25.6255 0.187537 25.5432 0.172703 25.4599 0.159989C25.3797 0.146215 25.2984 0.13456 25.2183 0.122906C25.1392 0.111251 25.0601 0.100655 24.981 0.0921791C24.9211 0.0837029 24.8623 0.0773457 24.8024 0.0709885C24.5512 0.0434407 24.2969 0.0243692 24.0414 0.0137739C23.9634 0.00953577 23.8843 0.00635718 23.8052 0.00423812C23.7774 0.00317859 23.7485 0.00317859 23.7197 0.00317859C23.6384 0.00105953 23.5561 0 23.4739 0C16.7407 0 11.2826 5.40986 11.2826 12.0835C11.2826 12.7785 11.3424 13.4585 11.4558 14.1216C10.8081 13.9828 10.1359 13.9076 9.44649 13.9076C4.23018 13.9105 0 18.1032 0 23.2747C0 28.0437 3.66497 31.7661 8.24669 32.5649L9.90056 32.5717L8.14892 31.6551L11.576 25.6448L14.5499 27.3075V23.8997H15.5099L21.3899 23.88V27.3873L24.4445 25.6448L27.8446 31.5926L25.9621 32.64H36.7844C42.979 32.64 48 27.6623 48 21.5236C48 21.3214 47.9947 21.1201 47.9829 20.921Z"/><path fill="#fff" d="M39.3598 40.9287L36.544 39.3601L39.3578 37.7914L38.3642 36.1287L35.5524 37.6973V34.5601H33.5652V37.6973L30.7533 36.1287L29.7598 37.7914L32.5736 39.3601L29.7598 40.9287L30.7553 42.5914L33.5652 41.0228V44.1601H34.5588H35.5524V41.0228L38.3642 42.5914L38.862 41.7601L39.3598 40.9287Z" opacity=".6"/><path fill="#fff" d="M25.2479 35.751L20.9969 33.3L25.2449 30.849L23.7449 28.251L19.4999 30.702V25.8H16.4999V30.702L12.2549 28.251L10.7549 30.849L15.0029 33.3L10.7549 35.751L12.2579 38.349L16.4999 35.898V40.8H17.9999H19.4999V35.898L23.7449 38.349L24.4964 37.05L25.2479 35.751Z" opacity=".6"/></svg>