<?xml version="1.0" encoding="iso-8859-1"?>
<!-- Generator: Adobe Illustrator 19.0.0, SVG Export Plug-In . SVG Version: 6.00 Build 0)  -->
<svg version="1.1" id="Layer_1" xmlns="http://www.w3.org/2000/svg" xmlns:xlink="http://www.w3.org/1999/xlink" x="0px" y="0px"
	 viewBox="0 0 512 512" style="enable-background:new 0 0 512 512;" xml:space="preserve">
<g>
	<g>
		<path d="M489.093,30.082c-0.859-3.175-3.405-5.609-6.61-6.337c-3.214-0.712-6.554,0.382-8.701,2.867
			c-0.521,0.603-53.018,60.431-155.32,86.005c-98.549,24.638-111.41,108.014-113.079,128.438
			c-36.3-11.605-76.443-16.394-109.261-20.306l-14.253-1.727c-58.445-7.309-63.073-26.039-63.298-27.192
			c-0.238-4.559-3.917-8.228-8.528-8.402c-4.888-0.226-8.831,3.435-9.2,8.194c-0.187,2.407-4.39,59.668,7.908,123.4
			c16.626,86.153,55.916,141.856,113.623,161.094c26.464,8.818,49.067,12.353,68.312,12.353c31.844,0,54.452-9.687,70.072-21.124
			c2.312-0.631,4.292-2.166,5.455-4.292c0.579-0.487,1.171-0.974,1.726-1.464c18.274-16.13,30.352-38.623,35.482-64.608
			c21.595,5.06,41.632,7.612,60.041,7.612c41.185,0,74.285-12.644,98.819-37.837C553.545,273.021,491.765,39.954,489.093,30.082z
			 M256.182,448.268c-0.303,0.268-0.618,0.518-0.924,0.782C164.834,427.403,80.682,261.102,79.829,259.397
			c-2.195-4.381-7.521-6.172-11.92-3.973c-4.389,2.195-6.168,7.53-3.973,11.92c3.449,6.899,80.055,158.248,171.953,194.148
			c-27.772,12.898-64.518,12.229-107.895-2.232C27.769,425.852,17.784,276.513,17.862,217.283
			c11.364,7.829,30.294,15.429,61.802,19.367l14.353,1.739c70.035,8.35,175.876,20.972,191.24,97.791
			C294.452,382.172,283.587,424.078,256.182,448.268z M449.538,354.373c-31.12,31.95-79.492,40.323-143.751,24.929
			c1.095-14.848,0.105-30.532-3.111-46.609c-0.597-2.985-1.308-5.879-2.112-8.698c24.782-7.705,145.616-51.87,162.117-183.891
			c0.607-4.867-2.846-9.308-7.712-9.916c-4.88-0.616-9.308,2.841-9.916,7.712c-15.736,125.899-131.872,164.08-150.821,169.493
			c-14.077-29.014-40.539-47.651-71.502-60.106c0.105-0.547,0.169-1.108,0.169-1.685c0-0.907,1.141-91.068,99.873-115.749
			c80.848-20.213,131.507-59.993,152.856-79.868C487.679,103.161,521.113,280.885,449.538,354.373z"/>
	</g>
</g>
<g>
</g>
<g>
</g>
<g>
</g>
<g>
</g>
<g>
</g>
<g>
</g>
<g>
</g>
<g>
</g>
<g>
</g>
<g>
</g>
<g>
</g>
<g>
</g>
<g>
</g>
<g>
</g>
<g>
</g>
</svg>
