<svg width="24" height="24" viewBox="0 0 24 24" fill="none" xmlns="http://www.w3.org/2000/svg">
<path fill-rule="evenodd" clip-rule="evenodd" d="M1 3.20001H7.59996H16.4H18.6H23V23.0001H1V3.20001ZM3.2 20.8V9.80006V7.60003V5.40002H20.8V7.60003V9.80006V20.8H3.2Z" fill="#4C5664"/>
<path d="M5.39978 1V3.2H7.59974V1H5.39978Z" fill="#4C5664"/>
<path d="M16.4003 1V3.2H18.6003V1H16.4003Z" fill="#4C5664"/>
<path d="M3.20032 9.80003H20.8003V7.60001H3.20032V9.80003Z" fill="#4C5664"/>
<path d="M6.50024 14.2V12H8.70026V14.2H6.50024Z" fill="#4C5664"/>
<path d="M6.50024 18.6V16.4H8.70026V18.6H6.50024Z" fill="#4C5664"/>
<path d="M10.9 14.2V12H13.1001V14.2H10.9Z" fill="#4C5664"/>
<path d="M10.9 18.6V16.4H13.1001V18.6H10.9Z" fill="#4C5664"/>
<path d="M15.2997 14.2V12H17.4996V14.2H15.2997Z" fill="#4C5664"/>
<path d="M15.2997 18.6V16.4H17.4996V18.6H15.2997Z" fill="#4C5664"/>
</svg>
