<svg fill="none" height="32" viewBox="0 0 32 32" width="32" xmlns="http://www.w3.org/2000/svg"><g fill="#4b4848"><path clip-rule="evenodd" d="m2.66675 5.33335h7.99995 10.6667 2.6667 5.3333v24.00005h-26.66665zm2.66666 21.33335v-13.3333-2.6667-2.66668h21.33329v2.66668 2.6667 13.3333z" fill-rule="evenodd"/><path d="m8.00008 2.66669v2.66666h2.66662v-2.66666z"/><path d="m21.3334 2.66669v2.66666h2.6667v-2.66666z"/><path d="m5.33341 13.3334h21.33329v-2.6667h-21.33329z"/><path d="m9.33342 18.6667v-2.6667h2.66668v2.6667z"/><path d="m9.33342 24v-2.6666h2.66668v2.6666z"/><path d="m14.6667 18.6667v-2.6667h2.6667v2.6667z"/><path d="m14.6667 24v-2.6666h2.6667v2.6666z"/><path d="m20.0001 18.6667v-2.6667h2.6666v2.6667z"/><path d="m20.0001 24v-2.6666h2.6666v2.6666z"/></g></svg>