<svg xmlns="http://www.w3.org/2000/svg" width="56" height="24" fill="none"><rect width="55" height="23" x=".5" y=".5" fill="#fff" rx="2.5"/><rect width="55" height="23" x=".5" y=".5" stroke="#CDD5DF" rx="2.5"/><path stroke="#CC3D00" stroke-linecap="round" stroke-linejoin="round" d="M17.5 6.5h-10a1 1 0 0 0-1 1v10a1 1 0 0 0 1 1h10a1 1 0 0 0 1-1v-10a1 1 0 0 0-1-1ZM14.5 10.5v8M10.5 10.5v8M6.5 10.5h12M6.5 14.5h12M9.5 8.5v-3m6 3v-3"/><path stroke="#99A4B3" stroke-linecap="round" stroke-linejoin="round" d="m48.5 10.5-3 3-3-3"/></svg>