<svg width="924" height="235" viewBox="0 0 924 235" fill="none" xmlns="http://www.w3.org/2000/svg">
<g clip-path="url(#clip0_1_41)">
<path d="M602.936 59.0637C601.82 58.0005 600.937 56.7175 600.342 55.2956C599.746 53.8738 599.452 52.344 599.478 50.8028C599.478 47.673 600.722 44.6712 602.935 42.4581C605.148 40.2449 608.15 39.0016 611.28 39.0016C612.821 38.9758 614.351 39.2697 615.772 39.8648C617.194 40.46 618.477 41.3434 619.54 42.4593C620.635 43.5541 621.498 44.8581 622.078 46.2936C622.658 47.7291 622.943 49.2667 622.916 50.8146C622.941 52.3558 622.648 53.8856 622.052 55.3074C621.457 56.7293 620.574 58.0123 619.458 59.0755C618.389 60.1594 617.114 61.0169 615.706 61.5968C614.299 62.1767 612.79 62.4671 611.268 62.4507C609.723 62.4725 608.19 62.184 606.758 61.6022C605.327 61.0204 604.027 60.1572 602.936 59.0637V59.0637Z" fill="#1A1A1A"/>
<path d="M62.7915 160.047C61.7766 158.246 60.9899 154.705 60.4313 149.426C54.5778 157.876 45.2351 162.097 32.4032 162.089C22.8284 162.089 15.2009 159.784 9.52053 155.173C3.84018 150.563 1 144.143 1 135.914C1 120.045 12.1443 110.997 34.433 108.771L47.6033 107.591C51.9934 107.036 55.1443 105.986 57.0443 104.475C58.023 103.637 58.7921 102.581 59.29 101.393C59.788 100.204 60.001 98.9159 59.912 97.6303C59.912 93.9169 58.7043 91.1868 56.289 89.4402C53.8737 87.6936 49.7904 86.8204 44.0393 86.8204C37.8554 86.8204 33.4103 87.8628 30.7038 89.9477C28.0013 92.0365 26.42 95.6005 25.9833 100.675H5.03605C6.27125 80.8646 19.3313 70.9555 44.2163 70.9476C68.4247 70.9476 80.5249 79.6727 80.5171 97.1229V143.561C80.5171 151.224 81.6972 156.731 84.0574 160.083L62.7915 160.047ZM53.6691 141.425C57.8389 137.766 59.9199 132.503 59.912 125.635V117.704C57.894 119.51 54.566 120.69 49.9517 121.245L38.4691 122.543C32.8045 123.227 28.792 124.553 26.4318 126.52C25.2054 127.563 24.2386 128.876 23.6077 130.357C22.9769 131.838 22.6993 133.446 22.797 135.052C22.7027 136.7 22.9938 138.348 23.6473 139.864C24.3008 141.379 25.2986 142.722 26.5616 143.785C29.1028 145.862 32.7337 146.901 37.4542 146.901C44.1022 146.877 49.5072 145.052 53.6691 141.425Z" fill="#1A1A1A"/>
<path d="M186.056 83.2092C193.042 91.5409 196.531 102.63 196.524 116.477C196.516 130.324 193.026 141.338 186.056 149.521C178.975 157.852 169.463 162.018 157.52 162.018C145.577 162.018 136.569 157.573 130.495 148.683V193.091H109.253V72.9067H129.681V85.4042C135.975 75.7272 145.263 70.8847 157.544 70.8768C169.463 70.8768 178.967 74.9876 186.056 83.2092V83.2092ZM152.458 144.505C159.428 144.505 164.935 141.972 168.979 136.905C173.023 131.838 174.99 124.805 174.88 115.804C174.88 106.906 172.937 100.12 169.05 95.4471C165.164 90.7738 159.621 88.4371 152.422 88.4371C145.341 88.4371 139.834 90.8603 135.9 95.7067C131.967 100.553 130 107.477 130 116.477C130 125.588 132.026 132.511 136.077 137.247C139.901 142.086 145.361 144.505 152.458 144.505Z" fill="#1A1A1A"/>
<path d="M295.501 83.2092C302.487 91.5409 305.977 102.63 305.969 116.477C305.961 130.324 302.472 141.338 295.501 149.521C288.42 157.852 278.908 162.018 266.965 162.018C255.023 162.018 246.014 157.573 239.941 148.683V193.091H218.698V72.9067H239.138V85.4042C245.432 75.7272 254.72 70.8847 267.001 70.8768C278.873 70.8768 288.373 74.9876 295.501 83.2092ZM261.903 144.505C268.873 144.505 274.381 141.972 278.424 136.905C282.468 131.838 284.435 124.805 284.325 115.804C284.325 106.906 282.382 100.12 278.495 95.4471C274.609 90.7738 269.066 88.4371 261.867 88.4371C254.787 88.4371 249.279 90.8603 245.346 95.7067C241.412 100.553 239.445 107.477 239.445 116.477C239.445 125.588 241.475 132.511 245.534 137.247C249.311 142.086 254.747 144.505 261.844 144.505H261.903Z" fill="#1A1A1A"/>
<path d="M325.158 132.35H345.928C346.494 137.755 348.268 141.582 351.25 143.832C354.232 146.082 358.933 147.208 365.353 147.208C376.839 147.208 382.583 143.718 382.583 136.74C382.644 135.312 382.333 133.892 381.682 132.62C381.03 131.348 380.06 130.267 378.865 129.482C376.387 127.79 371.938 126.382 365.518 125.257L355.558 123.57C336.534 120.423 327.022 111.642 327.022 97.2291C327.022 89.0075 330.169 82.5601 336.463 77.8868C342.757 73.2135 351.651 70.8768 363.146 70.8768C388.023 70.8768 400.859 80.7112 401.653 100.38H381.591C381.363 95.2111 379.731 91.5251 376.694 89.3222C373.657 87.1193 369.153 86.0218 363.181 86.0297C353.048 86.0297 347.981 89.4088 347.981 96.167C347.928 97.4972 348.209 98.8196 348.799 100.013C349.388 101.207 350.268 102.234 351.356 103C353.614 104.628 357.332 105.895 362.509 106.8L373.484 108.488C384.066 110.399 391.748 113.44 396.532 117.61C401.315 121.78 403.707 127.578 403.707 135.005C403.707 143.785 400.332 150.539 393.581 155.268C386.831 159.996 377.315 162.356 365.034 162.349C339.591 162.388 326.298 152.388 325.158 132.35V132.35Z" fill="#1A1A1A"/>
<path d="M549.335 79.3265C554.677 84.9597 557.352 92.6699 557.36 102.457V160.047H536.117V105.832C536.117 94.8177 531.106 89.3104 521.082 89.3104C518.592 89.2151 516.113 89.6885 513.833 90.6945C511.553 91.7006 509.532 93.2129 507.924 95.1167C504.612 98.9954 502.952 104.652 502.944 112.087V160.047H481.867V105.832C481.867 94.8177 476.804 89.3104 466.678 89.3104C464.224 89.2393 461.785 89.7271 459.546 90.7371C457.307 91.7471 455.327 93.2527 453.756 95.1403C450.428 99.0189 448.768 104.676 448.776 112.111V160.071H427.534V72.9067H448.139V85.4042C454.094 75.7272 462.355 70.8847 472.921 70.8768C486.21 70.8768 495.218 76.2818 499.946 87.0918C506.468 76.2818 515.473 70.8768 526.959 70.8768C536.534 70.8768 543.993 73.6934 549.335 79.3265V79.3265Z" fill="#1A1A1A"/>
<path d="M720.347 89.1216H693.204V136.232C693.204 139.041 693.963 141.008 695.482 142.133C697 143.258 699.545 143.809 703.117 143.785H718.66V160C714.045 160.449 702.055 160.673 699.235 160.673C689.794 160.673 682.898 158.899 678.547 155.35C674.196 151.802 672.029 146.145 672.044 138.38V89.1216H652.289V72.9066H672.044V43.8165H693.204V72.9066H720.347V89.1216Z" fill="#1A1A1A"/>
<path d="M815.536 79.0669C821.004 84.5348 823.734 92.2765 823.726 102.292V160.047H802.484V105.832C802.484 94.8177 797.024 89.3104 786.104 89.3104C783.52 89.2569 780.955 89.746 778.572 90.7461C776.19 91.7463 774.044 93.2352 772.273 95.1167C768.512 98.9953 766.628 104.369 766.62 111.237V160.047H745.378V43.8165H766.62V84.5545C773.26 75.4439 782.095 70.8847 793.126 70.8768C802.614 70.8768 810.084 73.6069 815.536 79.0669V79.0669Z" fill="#1A1A1A"/>
<path d="M840.909 188.748V172.533H923.99V188.748H840.909Z" fill="#FF6D2D"/>
<path d="M622.101 143.832V72.9066H577.363V89.1216H600.836V143.832H577.363V160.047H645.574V143.832H622.101Z" fill="#1A1A1A"/>
</g>
<defs>
<clipPath id="clip0_1_41">
<rect width="924" height="235" fill="white"/>
</clipPath>
</defs>
</svg>
