<svg width="24" height="24" viewBox="0 0 24 24" fill="none" xmlns="http://www.w3.org/2000/svg">
<path d="M12.2497 12.0001C13.7685 12.0001 14.9997 10.7689 14.9997 9.25002C14.9997 7.7312 13.7685 6.49998 12.2497 6.49998C10.7308 6.49998 9.49963 7.7312 9.49963 9.25002C9.49963 10.7689 10.7308 12.0001 12.2497 12.0001Z" fill="#4C5664"/>
<path fill-rule="evenodd" clip-rule="evenodd" d="M20.5 9.25001C20.5 11.0914 19.8967 12.7918 18.8771 14.1645L12.2499 23L5.62292 14.1645C4.60326 12.7918 4 11.0914 4 9.25001C4 4.69365 7.69363 1 12.25 1C16.8064 1 20.5 4.69365 20.5 9.25001ZM17.75 9.25001C17.75 10.4787 17.3504 11.6061 16.6731 12.52L12.2499 18.4169L7.82708 12.5201C7.14965 11.6062 6.75004 10.4787 6.75004 9.25001C6.75004 6.21246 9.21246 3.75001 12.25 3.75001C15.2876 3.75001 17.75 6.21246 17.75 9.25001Z" fill="#4C5664"/>
</svg>
