<svg width="56" height="56" viewBox="0 0 56 56" fill="none" xmlns="http://www.w3.org/2000/svg">
<g clip-path="url(#clip0_7044_126880)">
<rect width="56" height="56" rx="3" fill="white"/>
<rect x="-57.8516" y="43" width="59.9996" height="19.9999" transform="rotate(-45 -57.8516 43)" fill="#F8FAFC" stroke="white" stroke-width="2.49998"/>
<rect x="-15.4258" y="0.574219" width="59.9996" height="19.9999" transform="rotate(-45 -15.4258 0.574219)" fill="#F8FAFC" stroke="white" stroke-width="2.49998"/>
<rect x="-22.4961" y="35.9287" width="29.9998" height="19.9999" transform="rotate(-45 -22.4961 35.9287)" fill="#FFEEE5" stroke="white" stroke-width="2.49998"/>
<rect x="-1.28516" y="14.7158" width="59.9996" height="19.9999" transform="rotate(-45 -1.28516 14.7158)" fill="#F8FAFC" stroke="white" stroke-width="2.49998"/>
<rect x="-29.5664" y="71.2842" width="29.9998" height="19.9999" transform="rotate(-45 -29.5664 71.2842)" fill="#F8FAFC" stroke="white" stroke-width="2.49998"/>
<rect x="-8.35547" y="50.0713" width="29.9998" height="19.9999" transform="rotate(-45 -8.35547 50.0713)" fill="#F8FAFC" stroke="white" stroke-width="2.49998"/>
<rect x="12.8594" y="28.8584" width="59.9996" height="19.9999" transform="rotate(-45 12.8594 28.8584)" fill="#F8FAFC" stroke="white" stroke-width="2.49998"/>
<rect x="-15.4258" y="85.4258" width="59.9996" height="19.9999" transform="rotate(-45 -15.4258 85.4258)" fill="#F8FAFC" stroke="white" stroke-width="2.49998"/>
<rect x="27" y="43" width="29.9998" height="19.9999" transform="rotate(-45 27 43)" fill="#FFEEE5" stroke="white" stroke-width="2.49998"/>
<rect x="48.2148" y="21.7871" width="29.9998" height="19.9999" transform="rotate(-45 48.2148 21.7871)" fill="#F8FAFC" stroke="white" stroke-width="2.49998"/>
<rect x="19.9297" y="78.3555" width="59.9996" height="19.9999" transform="rotate(-45 19.9297 78.3555)" fill="#FFEEE5" stroke="white" stroke-width="2.49998"/>
<rect x="34.0703" y="92.4971" width="59.9996" height="19.9999" transform="rotate(-45 34.0703 92.4971)" fill="#FFEEE5" stroke="white" stroke-width="2.49998"/>
<mask id="path-15-outside-1_7044_126880" maskUnits="userSpaceOnUse" x="16" y="12" width="22" height="30" fill="black">
<rect fill="white" x="16" y="12" width="22" height="30"/>
<path fill-rule="evenodd" clip-rule="evenodd" d="M28.3262 40.2197C31.0456 37.2469 37 29.9448 37 23C37 17.4772 32.5228 13 27 13C21.4772 13 17 17.4772 17 23C17 29.9448 22.9544 37.2469 25.6738 40.2197C26.3979 41.0113 27.6021 41.0113 28.3262 40.2197ZM27 27C29.2091 27 31 25.2091 31 23C31 20.7909 29.2091 19 27 19C24.7909 19 23 20.7909 23 23C23 25.2091 24.7909 27 27 27Z"/>
</mask>
<path fill-rule="evenodd" clip-rule="evenodd" d="M28.3262 40.2197C31.0456 37.2469 37 29.9448 37 23C37 17.4772 32.5228 13 27 13C21.4772 13 17 17.4772 17 23C17 29.9448 22.9544 37.2469 25.6738 40.2197C26.3979 41.0113 27.6021 41.0113 28.3262 40.2197ZM27 27C29.2091 27 31 25.2091 31 23C31 20.7909 29.2091 19 27 19C24.7909 19 23 20.7909 23 23C23 25.2091 24.7909 27 27 27Z" fill="white"/>
<path d="M28.3262 40.2197L29.064 40.8946H29.064L28.3262 40.2197ZM25.6738 40.2197L24.9359 40.8946L25.6738 40.2197ZM36 23C36 26.2083 34.6154 29.5841 32.8241 32.5871C31.0432 35.5725 28.9232 38.0855 27.5883 39.5447L29.064 40.8946C30.4486 39.3811 32.6655 36.7567 34.5417 33.6117C36.4074 30.4842 38 26.7365 38 23H36ZM27 14C31.9706 14 36 18.0294 36 23H38C38 16.9249 33.0751 12 27 12V14ZM18 23C18 18.0294 22.0294 14 27 14V12C20.9249 12 16 16.9249 16 23H18ZM26.4116 39.5447C25.0768 38.0855 22.9568 35.5725 21.1759 32.5871C19.3846 29.5841 18 26.2083 18 23H16C16 26.7365 17.5926 30.4842 19.4583 33.6117C21.3345 36.7567 23.5514 39.3811 24.9359 40.8946L26.4116 39.5447ZM27.5884 39.5447C27.2607 39.9029 26.7393 39.9029 26.4116 39.5447L24.9359 40.8946C26.0565 42.1196 27.9435 42.1196 29.064 40.8946L27.5884 39.5447ZM30 23C30 24.6569 28.6569 26 27 26V28C29.7614 28 32 25.7614 32 23H30ZM27 20C28.6569 20 30 21.3431 30 23H32C32 20.2386 29.7614 18 27 18V20ZM24 23C24 21.3431 25.3431 20 27 20V18C24.2386 18 22 20.2386 22 23H24ZM27 26C25.3431 26 24 24.6569 24 23H22C22 25.7614 24.2386 28 27 28V26Z" fill="#CC3D00" mask="url(#path-15-outside-1_7044_126880)"/>
</g>
<rect x="0.5" y="0.5" width="55" height="55" rx="2.5" stroke="#E3E8EF"/>
<defs>
<clipPath id="clip0_7044_126880">
<rect width="56" height="56" rx="3" fill="white"/>
</clipPath>
</defs>
</svg>
