<svg xmlns="http://www.w3.org/2000/svg" width="56" height="56" fill="none"><g clip-path="url(#a)"><rect width="56" height="56" fill="#fff" rx="3"/><path fill="#F8FAFC" stroke="#fff" stroke-width="2.5" d="M-57.852 43-15.425.574l14.142 14.142-42.427 42.426z"/><path fill="#F8FAFC" stroke="#fff" stroke-width="2.5" d="M-15.426.574 27-41.852 41.142-27.71-1.284 14.716z"/><path fill="#FFEEE5" stroke="#fff" stroke-width="2.5" d="m-22.496 35.929 21.213-21.213L12.86 28.858-8.354 50.07z"/><path fill="#F8FAFC" stroke="#fff" stroke-width="2.5" d="m-1.285 14.716 42.427-42.427 14.142 14.143-42.427 42.426zM-29.566 71.284-8.353 50.07 5.789 64.213l-21.213 21.213z"/><path fill="#F8FAFC" stroke="#fff" stroke-width="2.5" d="m-8.355 50.07 21.213-21.212L27 43 5.787 64.213zM12.859 28.858l42.426-42.426L69.427.574 27.001 43.001z"/><path fill="#F8FAFC" stroke="#fff" stroke-width="2.5" d="M-15.426 85.426 27.001 43l14.142 14.142-42.427 42.426z"/><path fill="#FFEEE5" stroke="#fff" stroke-width="2.5" d="m27 43 21.213-21.213 14.142 14.142-21.213 21.213z"/><path fill="#F8FAFC" stroke="#fff" stroke-width="2.5" d="M48.215 21.787 69.428.574 83.57 14.716 62.357 35.929z"/><path fill="#FFEEE5" stroke="#fff" stroke-width="2.5" d="m19.93 78.356 42.427-42.427 14.142 14.142-42.427 42.427z"/><path fill="#FFEEE5" stroke="#fff" stroke-width="2.5" d="m34.07 92.497 42.426-42.426L90.64 64.213l-42.427 42.426z"/><mask id="b" width="22" height="30" x="16" y="12" fill="#000" maskUnits="userSpaceOnUse"><path fill="#fff" d="M16 12h22v30H16z"/><path fill-rule="evenodd" d="M28.326 40.22C31.046 37.247 37 29.945 37 23c0-5.523-4.477-10-10-10s-10 4.477-10 10c0 6.945 5.954 14.247 8.674 17.22a1.778 1.778 0 0 0 2.652 0ZM27 27a4 4 0 1 0 0-8 4 4 0 0 0 0 8Z" clip-rule="evenodd"/></mask><path fill="#fff" fill-rule="evenodd" d="M28.326 40.22C31.046 37.247 37 29.945 37 23c0-5.523-4.477-10-10-10s-10 4.477-10 10c0 6.945 5.954 14.247 8.674 17.22a1.778 1.778 0 0 0 2.652 0ZM27 27a4 4 0 1 0 0-8 4 4 0 0 0 0 8Z" clip-rule="evenodd"/><path fill="#CC3D00" d="m28.326 40.22.738.675-.738-.675Zm-2.652 0-.738.675.738-.675ZM36 23c0 3.208-1.385 6.584-3.176 9.587-1.78 2.985-3.9 5.498-5.236 6.958l1.476 1.35c1.385-1.514 3.602-4.138 5.478-7.283C36.407 30.484 38 26.736 38 23h-2Zm-9-9a9 9 0 0 1 9 9h2c0-6.075-4.925-11-11-11v2Zm-9 9a9 9 0 0 1 9-9v-2c-6.075 0-11 4.925-11 11h2Zm8.412 16.545c-1.335-1.46-3.455-3.973-5.236-6.958C19.385 29.584 18 26.208 18 23h-2c0 3.736 1.593 7.484 3.458 10.612 1.877 3.145 4.093 5.77 5.478 7.283l1.476-1.35Zm1.176 0a.779.779 0 0 1-1.176 0l-1.476 1.35a2.778 2.778 0 0 0 4.128 0l-1.476-1.35ZM30 23a3 3 0 0 1-3 3v2a5 5 0 0 0 5-5h-2Zm-3-3a3 3 0 0 1 3 3h2a5 5 0 0 0-5-5v2Zm-3 3a3 3 0 0 1 3-3v-2a5 5 0 0 0-5 5h2Zm3 3a3 3 0 0 1-3-3h-2a5 5 0 0 0 5 5v-2Z" mask="url(#b)"/></g><rect width="55" height="55" x=".5" y=".5" stroke="#E3E8EF" rx="2.5"/><defs><clipPath id="a"><rect width="56" height="56" fill="#fff" rx="3"/></clipPath></defs></svg>