<svg xmlns="http://www.w3.org/2000/svg" width="72" height="76" fill="none"><g clip-path="url(#a)"><rect width="56" height="56" x="8" y="10" fill="#fff" rx="3"/><path fill="#F8FAFC" stroke="#fff" stroke-width="2.5" d="m-49.852 53 42.427-42.426L6.717 24.716-35.71 67.142z"/><path fill="#F8FAFC" stroke="#fff" stroke-width="2.5" d="M-7.425 10.574 35-31.853 49.143-17.71 6.717 24.716z"/><path fill="#FFEEE5" stroke="#fff" stroke-width="2.5" d="M-14.496 45.929 6.717 24.715 20.86 38.858-.354 60.07z"/><path fill="#F8FAFC" stroke="#fff" stroke-width="2.5" d="m6.717 24.716 42.426-42.427L63.285-3.569 20.86 38.858zM-21.567 81.284-.354 60.07l14.142 14.142-21.213 21.213z"/><path fill="#F8FAFC" stroke="#fff" stroke-width="2.5" d="m-.354 60.07 21.213-21.212L35.001 53 13.788 74.213z"/><path fill="#F8FAFC" stroke="#fff" stroke-width="2.5" d="M20.859 38.858 63.285-3.57l14.143 14.142L35 53z"/><path fill="#F8FAFC" stroke="#fff" stroke-width="2.5" d="M-7.425 95.426 35 52.999l14.142 14.142-42.426 42.427z"/><path fill="#FFEEE5" stroke="#fff" stroke-width="2.5" d="m35 53 21.214-21.213 14.142 14.142-21.213 21.213z"/><path fill="#F8FAFC" stroke="#fff" stroke-width="2.5" d="m56.214 31.787 21.213-21.213L91.57 24.716 70.356 45.929z"/><path fill="#FFEEE5" stroke="#fff" stroke-width="2.5" d="m27.93 88.355 42.426-42.427 14.142 14.143-42.426 42.426z"/><path fill="#FFEEE5" stroke="#fff" stroke-width="2.5" d="M42.072 102.497 84.498 60.07 98.64 74.213l-42.426 42.426z"/><mask id="b" width="22" height="30" x="24" y="22" fill="#000" maskUnits="userSpaceOnUse"><path fill="#fff" d="M24 22h22v30H24z"/><path fill-rule="evenodd" d="M36.326 50.22C39.046 47.247 45 39.945 45 33c0-5.523-4.477-10-10-10s-10 4.477-10 10c0 6.945 5.954 14.247 8.674 17.22a1.778 1.778 0 0 0 2.652 0ZM35 37a4 4 0 1 0 0-8 4 4 0 0 0 0 8Z" clip-rule="evenodd"/></mask><path fill="#fff" fill-rule="evenodd" d="M36.326 50.22C39.046 47.247 45 39.945 45 33c0-5.523-4.477-10-10-10s-10 4.477-10 10c0 6.945 5.954 14.247 8.674 17.22a1.778 1.778 0 0 0 2.652 0ZM35 37a4 4 0 1 0 0-8 4 4 0 0 0 0 8Z" clip-rule="evenodd"/><path fill="#CC3D00" d="m36.326 50.22.738.675-.738-.675Zm-2.652 0-.738.675.738-.675ZM44 33c0 3.208-1.385 6.584-3.176 9.587-1.78 2.985-3.9 5.498-5.236 6.958l1.476 1.35c1.385-1.514 3.602-4.138 5.478-7.283C44.407 40.484 46 36.736 46 33h-2Zm-9-9a9 9 0 0 1 9 9h2c0-6.075-4.925-11-11-11v2Zm-9 9a9 9 0 0 1 9-9v-2c-6.075 0-11 4.925-11 11h2Zm8.412 16.545c-1.335-1.46-3.455-3.973-5.236-6.958C27.385 39.584 26 36.208 26 33h-2c0 3.736 1.593 7.484 3.458 10.612 1.877 3.145 4.093 5.77 5.478 7.283l1.476-1.35Zm1.176 0a.779.779 0 0 1-1.176 0l-1.476 1.35a2.778 2.778 0 0 0 4.128 0l-1.476-1.35ZM38 33a3 3 0 0 1-3 3v2a5 5 0 0 0 5-5h-2Zm-3-3a3 3 0 0 1 3 3h2a5 5 0 0 0-5-5v2Zm-3 3a3 3 0 0 1 3-3v-2a5 5 0 0 0-5 5h2Zm3 3a3 3 0 0 1-3-3h-2a5 5 0 0 0 5 5v-2Z" mask="url(#b)"/></g><rect width="55" height="55" x="8.5" y="10.5" stroke="#E3E8EF" rx="2.5"/><defs><clipPath id="a"><rect width="56" height="56" x="8" y="10" fill="#fff" rx="3"/></clipPath></defs></svg>