<svg xmlns="http://www.w3.org/2000/svg" width="24" height="24" fill="none" viewBox="0 0 24 24"><path fill="#BCCCD9" d="M12 14.4479C12 14.0035 11.9707 13.5955 11.9121 13.224C11.8535 12.8524 11.7575 12.4948 11.624 12.151C11.4906 11.8073 11.2936 11.5365 11.0332 11.3385C10.7728 11.1406 10.457 11.0417 10.0859 11.0417C10.0469 11.0694 9.94922 11.1319 9.79297 11.2292C9.63672 11.3264 9.51465 11.401 9.42676 11.4531C9.33887 11.5052 9.22331 11.566 9.08008 11.6354C8.93685 11.7049 8.79688 11.7552 8.66016 11.7865C8.52344 11.8177 8.38672 11.8333 8.25 11.8333C8.11329 11.8333 7.97657 11.8177 7.83985 11.7865C7.70313 11.7552 7.56316 11.7049 7.41993 11.6354C7.2767 11.566 7.16114 11.5052 7.07325 11.4531C6.98536 11.401 6.86329 11.3264 6.70704 11.2292C6.55079 11.1319 6.45313 11.0694 6.41407 11.0417C6.04297 11.0417 5.72722 11.1406 5.4668 11.3385C5.20638 11.5365 5.00944 11.8073 4.87598 12.151C4.74252 12.4948 4.64649 12.8524 4.5879 13.224C4.5293 13.5955 4.5 14.0035 4.5 14.4479C4.5 14.8924 4.62045 15.2621 4.86133 15.5573C5.10222 15.8524 5.39844 16 5.75 16H10.75C11.1016 16 11.3978 15.8524 11.6387 15.5573C11.8796 15.2621 12 14.8924 12 14.4479ZM10.4668 9.03125C10.4668 8.37847 10.2503 7.82118 9.81739 7.35937C9.38444 6.89756 8.86198 6.66666 8.25 6.66666C7.63803 6.66666 7.11556 6.89756 6.68262 7.35937C6.24968 7.82118 6.03321 8.37847 6.03321 9.03125C6.03321 9.68402 6.24968 10.2413 6.68262 10.7031C7.11556 11.1649 7.63803 11.3958 8.25 11.3958C8.86198 11.3958 9.38444 11.1649 9.81739 10.7031C10.2503 10.2413 10.4668 9.68402 10.4668 9.03125ZM19.5 14.3333V13.6667C19.5 13.5694 19.4707 13.4896 19.4121 13.4271C19.3535 13.3646 19.2787 13.3333 19.1875 13.3333H13.5625C13.4714 13.3333 13.3965 13.3646 13.3379 13.4271C13.2793 13.4896 13.25 13.5694 13.25 13.6667V14.3333C13.25 14.4306 13.2793 14.5104 13.3379 14.5729C13.3965 14.6354 13.4714 14.6667 13.5625 14.6667H19.1875C19.2787 14.6667 19.3535 14.6354 19.4121 14.5729C19.4707 14.5104 19.5 14.4306 19.5 14.3333ZM19.5 11.625V11.0417C19.5 10.9375 19.4658 10.849 19.3975 10.776C19.3291 10.7031 19.2461 10.6667 19.1484 10.6667H13.6016C13.5039 10.6667 13.4209 10.7031 13.3525 10.776C13.2842 10.849 13.25 10.9375 13.25 11.0417V11.625C13.25 11.7292 13.2842 11.8177 13.3525 11.8906C13.4209 11.9635 13.5039 12 13.6016 12H19.1484C19.2461 12 19.3291 11.9635 19.3975 11.8906C19.4658 11.8177 19.5 11.7292 19.5 11.625ZM19.5 9V8.33333C19.5 8.23611 19.4707 8.15625 19.4121 8.09375C19.3535 8.03125 19.2787 8 19.1875 8H13.5625C13.4714 8 13.3965 8.03125 13.3379 8.09375C13.2793 8.15625 13.25 8.23611 13.25 8.33333V9C13.25 9.09722 13.2793 9.17708 13.3379 9.23958C13.3965 9.30208 13.4714 9.33333 13.5625 9.33333H19.1875C19.2787 9.33333 19.3535 9.30208 19.4121 9.23958C19.4707 9.17708 19.5 9.09722 19.5 9ZM22 5.66666V18.3333C22 18.7917 21.847 19.184 21.541 19.5104C21.235 19.8368 20.8672 20 20.4375 20H17V19C17 18.9028 16.9707 18.8229 16.9121 18.7604C16.8535 18.6979 16.7787 18.6667 16.6875 18.6667H16.0625C15.9714 18.6667 15.8965 18.6979 15.8379 18.7604C15.7793 18.8229 15.75 18.9028 15.75 19V20H8.25V19C8.25 18.9028 8.22071 18.8229 8.16211 18.7604C8.10352 18.6979 8.02865 18.6667 7.9375 18.6667H7.3125C7.22136 18.6667 7.14649 18.6979 7.0879 18.7604C7.0293 18.8229 7 18.9028 7 19V20H3.5625C3.13282 20 2.76498 19.8368 2.45899 19.5104C2.153 19.184 2 18.7917 2 18.3333V5.66666C2 5.20833 2.153 4.81597 2.45899 4.48958C2.76498 4.16319 3.13282 4 3.5625 4H20.4375C20.8672 4 21.235 4.16319 21.541 4.48958C21.847 4.81597 22 5.20833 22 5.66666Z"/></svg>