<svg xmlns="http://www.w3.org/2000/svg" width="12" height="10" fill="none" viewBox="0 0 12 10"><path fill="#fff" fill-rule="evenodd" d="M12 0H2.5L0 5.00366L2.5 10H12V0ZM4.5 5C4.5 5.55228 4.05228 6 3.5 6C2.94772 6 2.5 5.55228 2.5 5C2.5 4.44772 2.94772 4 3.5 4C4.05228 4 4.5 4.44772 4.5 5ZM6.5 6C7.05228 6 7.5 5.55228 7.5 5C7.5 4.44772 7.05228 4 6.5 4C5.94772 4 5.5 4.44772 5.5 5C5.5 5.55228 5.94772 6 6.5 6ZM9.5 6C10.0523 6 10.5 5.55228 10.5 5C10.5 4.44772 10.0523 4 9.5 4C8.94772 4 8.5 4.44772 8.5 5C8.5 5.55228 8.94772 6 9.5 6Z" clip-rule="evenodd"/></svg>