<svg xmlns="http://www.w3.org/2000/svg" width="24" height="24" fill="none" viewBox="0 0 24 24"><path fill="#BCCCD9" d="M17.625 3.1875C17.625 3.80882 18.1287 4.3125 18.75 4.3125H19.3125C20.2445 4.3125 21 5.06802 21 6V19.1875C21 20.2921 20.1046 21.1875 19 21.1875H5C3.89543 21.1875 3 20.2921 3 19.1875V6C3 5.06802 3.75552 4.3125 4.6875 4.3125H5.25C5.87132 4.3125 6.375 3.80882 6.375 3.1875C6.375 2.72625 6.54375 2.3325 6.87 1.995C7.19625 1.66875 7.60125 1.5 8.0625 1.5C8.52375 1.5 8.92875 1.66875 9.255 1.995C9.58125 2.3325 9.75 2.72625 9.75 3.1875C9.75 3.80882 10.2537 4.3125 10.875 4.3125H13.125C13.7463 4.3125 14.25 3.80882 14.25 3.1875C14.25 2.72625 14.4187 2.3325 14.745 1.995C15.0712 1.66875 15.4762 1.5 15.9375 1.5C16.3988 1.5 16.8038 1.66875 17.13 1.995C17.4563 2.3325 17.625 2.72625 17.625 3.1875ZM7.5 3.1875V6C7.49863 6.07425 7.51224 6.14801 7.54002 6.21687C7.5678 6.28574 7.60918 6.3483 7.66169 6.40081C7.7142 6.45332 7.77676 6.4947 7.84563 6.52248C7.91449 6.55026 7.98825 6.56387 8.0625 6.5625C8.13675 6.56387 8.21051 6.55026 8.27937 6.52248C8.34824 6.4947 8.4108 6.45332 8.46331 6.40081C8.51582 6.3483 8.5572 6.28574 8.58498 6.21687C8.61276 6.14801 8.62637 6.07425 8.625 6V3.1875C8.625 3.03 8.56875 2.895 8.45625 2.79375C8.355 2.68125 8.22 2.625 8.0625 2.625C7.905 2.625 7.77 2.68125 7.66875 2.79375C7.55625 2.895 7.5 3.03 7.5 3.1875ZM15.375 3.1875V6C15.375 6.1575 15.4313 6.2925 15.5325 6.405C15.645 6.50625 15.78 6.5625 15.9375 6.5625C16.095 6.5625 16.23 6.50625 16.3425 6.405C16.4437 6.2925 16.5 6.1575 16.5 6V3.1875C16.5014 3.11325 16.4878 3.03949 16.46 2.97063C16.4322 2.90176 16.3908 2.8392 16.3383 2.78669C16.2858 2.73418 16.2232 2.6928 16.1544 2.66502C16.0855 2.63724 16.0117 2.62363 15.9375 2.625C15.8633 2.62363 15.7895 2.63724 15.7206 2.66502C15.6518 2.6928 15.5892 2.73418 15.5367 2.78669C15.4842 2.8392 15.4428 2.90176 15.415 2.97063C15.3872 3.03949 15.3736 3.11325 15.375 3.1875ZM17.875 20.0625C18.9796 20.0625 19.875 19.1671 19.875 18.0625V10.8125C19.875 9.70793 18.9796 8.8125 17.875 8.8125H6.125C5.02043 8.8125 4.125 9.70793 4.125 10.8125V18.0625C4.125 19.1671 5.02043 20.0625 6.125 20.0625H17.875ZM7.5 9.9375C8.12132 9.9375 8.625 10.4412 8.625 11.0625C8.625 11.6838 8.12132 12.1875 7.5 12.1875C6.87868 12.1875 6.375 11.6838 6.375 11.0625C6.375 10.4412 6.87868 9.9375 7.5 9.9375ZM10.875 11.0625C10.875 10.4412 11.3787 9.9375 12 9.9375C12.6213 9.9375 13.125 10.4412 13.125 11.0625C13.125 11.6838 12.6213 12.1875 12 12.1875C11.3787 12.1875 10.875 11.6838 10.875 11.0625ZM16.5 12.1875C15.8787 12.1875 15.375 11.6838 15.375 11.0625C15.375 10.4412 15.8787 9.9375 16.5 9.9375C17.1213 9.9375 17.625 10.4412 17.625 11.0625C17.625 11.6838 17.1213 12.1875 16.5 12.1875ZM7.5 13.3125C8.12132 13.3125 8.625 13.8162 8.625 14.4375C8.625 15.0588 8.12132 15.5625 7.5 15.5625C6.87868 15.5625 6.375 15.0588 6.375 14.4375C6.375 13.8162 6.87868 13.3125 7.5 13.3125ZM10.875 14.4375C10.875 13.8162 11.3787 13.3125 12 13.3125C12.6213 13.3125 13.125 13.8162 13.125 14.4375C13.125 15.0588 12.6213 15.5625 12 15.5625C11.3787 15.5625 10.875 15.0588 10.875 14.4375ZM16.5 15.5625C15.8787 15.5625 15.375 15.0588 15.375 14.4375C15.375 13.8162 15.8787 13.3125 16.5 13.3125C17.1213 13.3125 17.625 13.8162 17.625 14.4375C17.625 15.0588 17.1213 15.5625 16.5 15.5625ZM7.5 16.6875C8.12132 16.6875 8.625 17.1912 8.625 17.8125C8.625 18.4338 8.12132 18.9375 7.5 18.9375C6.87868 18.9375 6.375 18.4338 6.375 17.8125C6.375 17.1912 6.87868 16.6875 7.5 16.6875ZM13.125 17.8125C13.125 18.4338 12.6213 18.9375 12 18.9375C11.3787 18.9375 10.875 18.4338 10.875 17.8125C10.875 17.1912 11.3787 16.6875 12 16.6875C12.6213 16.6875 13.125 17.1912 13.125 17.8125ZM17.625 17.8125C17.625 18.4338 17.1213 18.9375 16.5 18.9375C15.8787 18.9375 15.375 18.4338 15.375 17.8125C15.375 17.1912 15.8787 16.6875 16.5 16.6875C17.1213 16.6875 17.625 17.1912 17.625 17.8125Z"/></svg>