<svg xmlns="http://www.w3.org/2000/svg" width="24" height="24" fill="none" viewBox="0 0 24 24"><path fill="#768896" d="M11.6 8C8.6 8 6.038 9.866 5 12.5C6.038 15.134 8.6 17 11.6 17C14.6 17 17.162 15.134 18.2 12.5C17.162 9.866 14.6 8 11.6 8ZM11.6 15.5C9.944 15.5 8.6 14.156 8.6 12.5C8.6 10.844 9.944 9.5 11.6 9.5C13.256 9.5 14.6 10.844 14.6 12.5C14.6 14.156 13.256 15.5 11.6 15.5ZM11.6 10.7C10.604 10.7 9.8 11.504 9.8 12.5C9.8 13.496 10.604 14.3 11.6 14.3C12.596 14.3 13.4 13.496 13.4 12.5C13.4 11.504 12.596 10.7 11.6 10.7Z"/></svg>