<svg xmlns="http://www.w3.org/2000/svg" width="24" height="24" fill="none" viewBox="0 0 24 24"><path fill="#BCCCD9" d="M7.02344 14.8428V8.9541H5.66602L3.76172 10.2285V11.5371L5.57812 10.3311H5.66602V14.8428H3.7666V16H5.66602H7.02344H8.8252V14.8428H7.02344ZM10.4432 11.0781V11.1074H11.7322V11.0732C11.7322 10.3994 12.201 9.94043 12.8992 9.94043C13.5828 9.94043 14.0271 10.3408 14.0271 10.9512C14.0271 11.4248 13.7781 11.7959 12.8162 12.7578L10.5213 15.0283V16H15.4871V14.833H12.4061V14.7451L13.783 13.4316C14.9744 12.2891 15.3797 11.6299 15.3797 10.8584C15.3797 9.6377 14.3982 8.8125 12.9432 8.8125C11.4637 8.8125 10.4432 9.73047 10.4432 11.0781ZM18.9947 12.9092H19.8346C20.6451 12.9092 21.1676 13.3145 21.1676 13.9443C21.1676 14.5645 20.6549 14.96 19.8492 14.96C19.0924 14.96 18.5846 14.5791 18.5357 13.9785H17.2516C17.315 15.2969 18.3502 16.1416 19.8883 16.1416C21.4654 16.1416 22.5445 15.2871 22.5445 14.0371C22.5445 13.1045 21.9781 12.4795 21.026 12.3672V12.2793C21.7975 12.123 22.2711 11.5127 22.2711 10.6826C22.2711 9.56934 21.2994 8.8125 19.8687 8.8125C18.3795 8.8125 17.4371 9.62305 17.3883 10.9463H18.6236C18.6676 10.3262 19.1314 9.93066 19.8248 9.93066C20.5328 9.93066 20.982 10.3018 20.982 10.8877C20.982 11.4785 20.523 11.8643 19.8199 11.8643H18.9947V12.9092Z"/></svg>