<svg xmlns="http://www.w3.org/2000/svg" width="24" height="24" fill="none" viewBox="0 0 24 24"><g id="Icon/Outline/more-vertical"><path id="Mask" fill="#A3B3BF" fill-rule="evenodd" d="M12 7C13.104 7 14 6.104 14 5C14 3.896 13.104 3 12 3C10.896 3 10 3.896 10 5C10 6.104 10.896 7 12 7ZM12 10C10.896 10 10 10.896 10 12C10 13.104 10.896 14 12 14C13.104 14 14 13.104 14 12C14 10.896 13.104 10 12 10ZM10 19C10 17.896 10.896 17 12 17C13.104 17 14 17.896 14 19C14 20.104 13.104 21 12 21C10.896 21 10 20.104 10 19Z" clip-rule="evenodd"/><mask id="mask0" width="4" height="18" x="10" y="3" mask-type="alpha" maskUnits="userSpaceOnUse"><path id="Mask_2" fill="#fff" fill-rule="evenodd" d="M12 7C13.104 7 14 6.104 14 5C14 3.896 13.104 3 12 3C10.896 3 10 3.896 10 5C10 6.104 10.896 7 12 7ZM12 10C10.896 10 10 10.896 10 12C10 13.104 10.896 14 12 14C13.104 14 14 13.104 14 12C14 10.896 13.104 10 12 10ZM10 19C10 17.896 10.896 17 12 17C13.104 17 14 17.896 14 19C14 20.104 13.104 21 12 21C10.896 21 10 20.104 10 19Z" clip-rule="evenodd"/></mask></g></svg>