<svg xmlns="http://www.w3.org/2000/svg" width="24" height="24" fill="none" viewBox="0 0 24 24"><path fill="#BCCCD9" fill-rule="evenodd" d="M22 15.7895C22 16.2546 21.623 16.6316 21.1579 16.6316H2.84211C2.37702 16.6316 2 16.2546 2 15.7895C2 15.3244 2.37702 14.9474 2.84211 14.9474H21.1579C21.623 14.9474 22 15.3244 22 15.7895Z" clip-rule="evenodd"/><path fill="#BCCCD9" fill-rule="evenodd" d="M22 19.1579C22 19.623 21.623 20 21.1579 20H2.84211C2.37702 20 2 19.623 2 19.1579C2 18.6928 2.37702 18.3158 2.84211 18.3158H21.1579C21.623 18.3158 22 18.6928 22 19.1579Z" clip-rule="evenodd"/><path fill="#BCCCD9" fill-rule="evenodd" d="M22 4.84211C22 5.30719 21.623 5.68421 21.1579 5.68421H15.3421C14.877 5.68421 14.5 5.30719 14.5 4.84211C14.5 4.37702 14.877 4 15.3421 4H21.1579C21.623 4 22 4.37702 22 4.84211Z" clip-rule="evenodd"/><path fill="#BCCCD9" fill-rule="evenodd" d="M22 8.21052C22 8.6756 21.623 9.05263 21.1579 9.05263H15.3421C14.877 9.05263 14.5 8.6756 14.5 8.21052C14.5 7.74544 14.877 7.36842 15.3421 7.36842H21.1579C21.623 7.36842 22 7.74544 22 8.21052Z" clip-rule="evenodd"/><path fill="#BCCCD9" fill-rule="evenodd" d="M22 11.579C22 12.044 21.623 12.4211 21.1579 12.4211H15.3421C14.877 12.4211 14.5 12.044 14.5 11.579C14.5 11.1139 14.877 10.7368 15.3421 10.7368H21.1579C21.623 10.7368 22 11.1139 22 11.579Z" clip-rule="evenodd"/><path fill="#BCCCD9" d="M5.31543 12.421L5.73657 10.7372H8.09253L8.50146 12.421H11.0771L8.52588 4.00203H5.49854L2.92896 12.421H5.31543ZM6.98779 6.0559L7.6958 9.01026H6.14551L6.87183 6.0559H6.98779Z"/></svg>