<svg xmlns="http://www.w3.org/2000/svg" width="25" height="25" fill="none" viewBox="0 0 25 25"><rect width="25" height="25" fill="#464646" rx="2"/><path fill="#fff" d="M6.923 17V7.9H10.108C10.8187 7.9 11.408 8.02133 11.876 8.264C12.344 8.498 12.6907 8.823 12.916 9.239C13.15 9.64633 13.267 10.11 13.267 10.63C13.267 11.124 13.1543 11.579 12.929 11.995C12.7123 12.4023 12.37 12.7273 11.902 12.97C11.434 13.2127 10.836 13.334 10.108 13.334H8.301V17H6.923ZM8.301 12.203H10.043C10.693 12.203 11.1567 12.0643 11.434 11.787C11.72 11.501 11.863 11.1153 11.863 10.63C11.863 10.1273 11.72 9.73733 11.434 9.46C11.1567 9.174 10.693 9.031 10.043 9.031H8.301V12.203ZM15.5651 17V9.46L14.0961 9.798V8.784L16.1111 7.9H16.9951V17H15.5651Z"/></svg>