<svg xmlns="http://www.w3.org/2000/svg" width="24" height="24" fill="none" viewBox="0 0 24 24"><path fill="#BCCCD9" d="M5.4129 18.9997C5.60096 19.0051 5.78522 18.946 5.93501 18.8322C6.0848 18.7184 6.19107 18.5566 6.23615 18.374C6.60682 16.9053 7.42309 15.5874 8.57285 14.6013C9.7226 13.6151 11.1495 13.0091 12.6575 12.8665V13.7885C12.6576 14.0769 12.7428 14.3588 12.9024 14.599C13.062 14.8391 13.289 15.0268 13.5548 15.1386C13.843 15.2711 14.1634 15.3175 14.4775 15.2723C14.7915 15.227 15.0857 15.092 15.3248 14.8834L19.4904 11.2529C19.6501 11.1169 19.7784 10.9478 19.8664 10.7573C19.9544 10.5669 19.9999 10.3596 19.9999 10.1498C19.9999 9.93996 19.9544 9.73266 19.8664 9.54219C19.7784 9.35173 19.6501 9.18264 19.4904 9.04662L15.3248 5.40787C15.0825 5.19573 14.7834 5.05927 14.4645 5.01537C14.1455 4.97148 13.8206 5.02207 13.5301 5.1609C13.2643 5.27268 13.0373 5.46041 12.8777 5.70057C12.7181 5.94073 12.6329 6.22265 12.6328 6.51102V7.47422C10.3966 7.64711 8.30655 8.65185 6.7749 10.2902C5.24325 11.9285 4.38131 14.0814 4.35915 16.3241C4.36028 17.0153 4.44598 17.7037 4.61435 18.374C4.65943 18.5566 4.7657 18.7184 4.91549 18.8322C5.06528 18.946 5.24954 19.0051 5.4376 18.9997H5.4129Z"/></svg>