<svg xmlns="http://www.w3.org/2000/svg" width="12" height="12" fill="none" viewBox="0 0 12 12"><path fill="#fff" d="M10.5844 6.588C10.6091 6.396 10.6276 6.204 10.6276 6C10.6276 5.796 10.6091 5.604 10.5844 5.412L11.8859 4.422C12.0031 4.332 12.034 4.17 11.96 4.038L10.7263 1.962C10.6523 1.83 10.4857 1.782 10.35 1.83L8.81412 2.43C8.49336 2.19 8.14794 1.992 7.77167 1.842L7.53727 0.252C7.51877 0.108 7.38923 0 7.23503 0H4.7677C4.61349 0 4.48396 0.108 4.46545 0.252L4.23105 1.842C3.85479 1.992 3.50936 2.196 3.18861 2.43L1.6527 1.83C1.51083 1.776 1.35045 1.83 1.27643 1.962L0.0427659 4.038C-0.0374222 4.17 -0.00041223 4.332 0.116786 4.422L1.4183 5.412C1.39363 5.604 1.37512 5.802 1.37512 6C1.37512 6.198 1.39363 6.396 1.4183 6.588L0.116786 7.578C-0.00041223 7.668 -0.0312539 7.83 0.0427659 7.962L1.27643 10.038C1.35045 10.17 1.51699 10.218 1.6527 10.17L3.18861 9.57C3.50936 9.81 3.85479 10.008 4.23105 10.158L4.46545 11.748C4.48396 11.892 4.61349 12 4.7677 12H7.23503C7.38923 12 7.51877 11.892 7.53727 11.748L7.77167 10.158C8.14794 10.008 8.49336 9.804 8.81412 9.57L10.35 10.17C10.4919 10.224 10.6523 10.17 10.7263 10.038L11.96 7.962C12.034 7.83 12.0031 7.668 11.8859 7.578L10.5844 6.588ZM6.00136 8.1C4.81088 8.1 3.84245 7.158 3.84245 6C3.84245 4.842 4.81088 3.9 6.00136 3.9C7.19185 3.9 8.16027 4.842 8.16027 6C8.16027 7.158 7.19185 8.1 6.00136 8.1Z"/></svg>