<svg xmlns="http://www.w3.org/2000/svg" width="24" height="24" fill="none" viewBox="0 0 24 24"><path fill="#BCCCD9" d="M18.5871 18.9997C18.399 19.0051 18.2148 18.946 18.065 18.8322C17.9152 18.7184 17.8089 18.5566 17.7639 18.374C17.3932 16.9053 16.5769 15.5874 15.4272 14.6013C14.2774 13.6151 12.8505 13.0091 11.3425 12.8665V13.7885C11.3424 14.0769 11.2572 14.3588 11.0976 14.599C10.938 14.8391 10.711 15.0268 10.4452 15.1386C10.157 15.2711 9.83655 15.3175 9.52255 15.2723C9.20855 15.227 8.91431 15.092 8.67523 14.8834L4.50961 11.2529C4.34987 11.1169 4.22158 10.9478 4.1336 10.7573C4.04562 10.5669 4.00006 10.3596 4.00006 10.1498C4.00006 9.93996 4.04562 9.73266 4.1336 9.54219C4.22158 9.35173 4.34987 9.18264 4.50961 9.04662L8.67523 5.40787C8.91745 5.19573 9.21656 5.05927 9.53554 5.01537C9.85453 4.97148 10.1794 5.02207 10.4699 5.1609C10.7357 5.27268 10.9627 5.46041 11.1223 5.70057C11.2819 5.94073 11.3671 6.22265 11.3672 6.51102V7.47422C13.6034 7.64711 15.6934 8.65185 17.2251 10.2902C18.7567 11.9285 19.6187 14.0814 19.6409 16.3241C19.6397 17.0153 19.554 17.7037 19.3856 18.374C19.3406 18.5566 19.2343 18.7184 19.0845 18.8322C18.9347 18.946 18.7505 19.0051 18.5624 18.9997H18.5871Z"/></svg>