<svg xmlns="http://www.w3.org/2000/svg" width="24" height="24" fill="none" viewBox="0 0 24 24"><path fill="#A3B3BF" fill-rule="evenodd" d="M13 12H12V13C12 13.55 11.55 14 11 14C10.45 14 10 13.55 10 13V12H9C8.45 12 8 11.55 8 11C8 10.45 8.45 10 9 10H10V9C10 8.45 10.45 8 11 8C11.55 8 12 8.45 12 9V10H13C13.55 10 14 10.45 14 11C14 11.55 13.55 12 13 12ZM20.707 19.293L17.312 15.897C18.365 14.543 19 12.846 19 11C19 6.589 15.411 3 11 3C6.589 3 3 6.589 3 11C3 15.411 6.589 19 11 19C12.846 19 14.543 18.365 15.897 17.312L19.293 20.707C19.488 20.902 19.744 21 20 21C20.256 21 20.512 20.902 20.707 20.707C21.098 20.316 21.098 19.684 20.707 19.293Z" clip-rule="evenodd"/></svg>