<svg width="72" height="76" viewBox="0 0 72 76" fill="none" xmlns="http://www.w3.org/2000/svg">
<rect x="5.5" y="30.5" width="19" height="16" rx="2.5" fill="#FFEEE5"/>
<rect x="5.5" y="30.5" width="19" height="16" rx="2.5" stroke="#CC3D00"/>
<path d="M19.5 43.4998V43.9998H20V43.4998H19.5ZM10.5 43.4998H10V43.9998H10.5V43.4998ZM15 33.5L15.3322 33.1263C15.1427 32.9579 14.8573 32.9579 14.6678 33.1263L15 33.5ZM13.5 43.4998V43.9998H14V43.4998H13.5ZM13.5 39.4998V38.9998H13V39.4998H13.5ZM16.5 39.4998H17V38.9998H16.5V39.4998ZM16.5 43.4998H16V43.9998H16.5V43.4998ZM19.1643 37.2015L19.4965 36.8277L19.1643 37.2015ZM10.8357 37.2015L10.5035 36.8277L10.8357 37.2015ZM11 43.4998V37.9489H10V43.4998H11ZM19 37.9489C19 37.9577 19 37.9665 19 37.9754C19 37.9842 19 37.993 19 38.0017C19 38.0105 19 38.0193 19 38.028C19 38.0368 19 38.0455 19 38.0543C19 38.063 19 38.0717 19 38.0804C19 38.0891 19 38.0978 19 38.1065C19 38.1152 19 38.1238 19 38.1325C19 38.1411 19 38.1498 19 38.1584C19 38.167 19 38.1756 19 38.1842C19 38.1928 19 38.2014 19 38.21C19 38.2185 19 38.2271 19 38.2356C19 38.2442 19 38.2527 19 38.2612C19 38.2697 19 38.2782 19 38.2867C19 38.2952 19 38.3037 19 38.3122C19 38.3206 19 38.3291 19 38.3375C19 38.346 19 38.3544 19 38.3628C19 38.3712 19 38.3796 19 38.388C19 38.3964 19 38.4048 19 38.4131C19 38.4215 19 38.4298 19 38.4382C19 38.4465 19 38.4548 19 38.4631C19 38.4714 19 38.4797 19 38.488C19 38.4963 19 38.5046 19 38.5128C19 38.5211 19 38.5293 19 38.5376C19 38.5458 19 38.554 19 38.5622C19 38.5704 19 38.5786 19 38.5868C19 38.595 19 38.6031 19 38.6113C19 38.6195 19 38.6276 19 38.6357C19 38.6439 19 38.652 19 38.6601C19 38.6682 19 38.6763 19 38.6843C19 38.6924 19 38.7005 19 38.7085C19 38.7166 19 38.7246 19 38.7327C19 38.7407 19 38.7487 19 38.7567C19 38.7647 19 38.7727 19 38.7807C19 38.7886 19 38.7966 19 38.8045C19 38.8125 19 38.8204 19 38.8284C19 38.8363 19 38.8442 19 38.8521C19 38.86 19 38.8679 19 38.8757C19 38.8836 19 38.8915 19 38.8993C19 38.9072 19 38.915 19 38.9228C19 38.9307 19 38.9385 19 38.9463C19 38.9541 19 38.9618 19 38.9696C19 38.9774 19 38.9851 19 38.9929C19 39.0006 19 39.0084 19 39.0161C19 39.0238 19 39.0315 19 39.0392C19 39.0469 19 39.0546 19 39.0623C19 39.07 19 39.0776 19 39.0853C19 39.0929 19 39.1005 19 39.1082C19 39.1158 19 39.1234 19 39.131C19 39.1386 19 39.1462 19 39.1537C19 39.1613 19 39.1689 19 39.1764C19 39.184 19 39.1915 19 39.199C19 39.2066 19 39.2141 19 39.2216C19 39.2291 19 39.2365 19 39.244C19 39.2515 19 39.2589 19 39.2664C19 39.2738 19 39.2813 19 39.2887C19 39.2961 19 39.3035 19 39.3109C19 39.3183 19 39.3257 19 39.3331C19 39.3405 19 39.3478 19 39.3552C19 39.3625 19 39.3699 19 39.3772C19 39.3845 19 39.3918 19 39.3991C19 39.4064 19 39.4137 19 39.421C19 39.4283 19 39.4355 19 39.4428C19 39.45 19 39.4573 19 39.4645C19 39.4717 19 39.479 19 39.4862C19 39.4934 19 39.5006 19 39.5077C19 39.5149 19 39.5221 19 39.5292C19 39.5364 19 39.5435 19 39.5507C19 39.5578 19 39.5649 19 39.572C19 39.5791 19 39.5862 19 39.5933C19 39.6004 19 39.6075 19 39.6145C19 39.6216 19 39.6286 19 39.6357C19 39.6427 19 39.6497 19 39.6567C19 39.6637 19 39.6707 19 39.6777C19 39.6847 19 39.6917 19 39.6986C19 39.7056 19 39.7125 19 39.7195C19 39.7264 19 39.7333 19 39.7403C19 39.7472 19 39.7541 19 39.761C19 39.7679 19 39.7747 19 39.7816C19 39.7885 19 39.7953 19 39.8022C19 39.809 19 39.8158 19 39.8227C19 39.8295 19 39.8363 19 39.8431C19 39.8499 19 39.8567 19 39.8634C19 39.8702 19 39.877 19 39.8837C19 39.8905 19 39.8972 19 39.9039C19 39.9106 19 39.9174 19 39.9241C19 39.9308 19 39.9374 19 39.9441C19 39.9508 19 39.9575 19 39.9641C19 39.9708 19 39.9774 19 39.984C19 39.9907 19 39.9973 19 40.0039C19 40.0105 19 40.0171 19 40.0237C19 40.0303 19 40.0368 19 40.0434C19 40.05 19 40.0565 19 40.063C19 40.0696 19 40.0761 19 40.0826C19 40.0891 19 40.0956 19 40.1021C19 40.1086 19 40.1151 19 40.1216C19 40.128 19 40.1345 19 40.1409C19 40.1474 19 40.1538 19 40.1602C19 40.1666 19 40.1731 19 40.1795C19 40.1858 19 40.1922 19 40.1986C19 40.205 19 40.2113 19 40.2177C19 40.2241 19 40.2304 19 40.2367C19 40.243 19 40.2494 19 40.2557C19 40.262 19 40.2683 19 40.2746C19 40.2808 19 40.2871 19 40.2934C19 40.2996 19 40.3059 19 40.3121C19 40.3184 19 40.3246 19 40.3308C19 40.337 19 40.3432 19 40.3494C19 40.3556 19 40.3618 19 40.3679C19 40.3741 19 40.3803 19 40.3864C19 40.3926 19 40.3987 19 40.4048C19 40.4109 19 40.4171 19 40.4232C19 40.4293 19 40.4353 19 40.4414C19 40.4475 19 40.4536 19 40.4596C19 40.4657 19 40.4717 19 40.4778C19 40.4838 19 40.4898 19 40.4958C19 40.5018 19 40.5078 19 40.5138C19 40.5198 19 40.5258 19 40.5318C19 40.5377 19 40.5437 19 40.5496C19 40.5556 19 40.5615 19 40.5674C19 40.5733 19 40.5792 19 40.5851C19 40.591 19 40.5969 19 40.6028C19 40.6087 19 40.6146 19 40.6204C19 40.6263 19 40.6321 19 40.6379C19 40.6438 19 40.6496 19 40.6554C19 40.6612 19 40.667 19 40.6728C19 40.6786 19 40.6844 19 40.6901C19 40.6959 19 40.7017 19 40.7074C19 40.7131 19 40.7189 19 40.7246C19 40.7303 19 40.736 19 40.7417C19 40.7474 19 40.7531 19 40.7588C19 40.7645 19 40.7701 19 40.7758C19 40.7815 19 40.7871 19 40.7927C19 40.7984 19 40.804 19 40.8096C19 40.8152 19 40.8208 19 40.8264C19 40.832 19 40.8376 19 40.8432C19 40.8487 19 40.8543 19 40.8598C19 40.8654 19 40.8709 19 40.8764C19 40.882 19 40.8875 19 40.893C19 40.8985 19 40.904 19 40.9095C19 40.9149 19 40.9204 19 40.9259C19 40.9313 19 40.9368 19 40.9422C19 40.9477 19 40.9531 19 40.9585C19 40.9639 19 40.9693 19 40.9747C19 40.9801 19 40.9855 19 40.9909C19 40.9963 19 41.0016 19 41.007C19 41.0124 19 41.0177 19 41.023C19 41.0284 19 41.0337 19 41.039C19 41.0443 19 41.0496 19 41.0549C19 41.0602 19 41.0655 19 41.0707C19 41.076 19 41.0813 19 41.0865C19 41.0918 19 41.097 19 41.1022C19 41.1074 19 41.1127 19 41.1179C19 41.1231 19 41.1283 19 41.1335C19 41.1386 19 41.1438 19 41.149C19 41.1541 19 41.1593 19 41.1644C19 41.1696 19 41.1747 19 41.1798C19 41.185 19 41.1901 19 41.1952C19 41.2003 19 41.2054 19 41.2104C19 41.2155 19 41.2206 19 41.2256C19 41.2307 19 41.2358 19 41.2408C19 41.2458 19 41.2509 19 41.2559C19 41.2609 19 41.2659 19 41.2709C19 41.2759 19 41.2809 19 41.2859C19 41.2908 19 41.2958 19 41.3008C19 41.3057 19 41.3107 19 41.3156C19 41.3205 19 41.3254 19 41.3304C19 41.3353 19 41.3402 19 41.3451C19 41.35 19 41.3548 19 41.3597C19 41.3646 19 41.3695 19 41.3743C19 41.3792 19 41.384 19 41.3888C19 41.3937 19 41.3985 19 41.4033C19 41.4081 19 41.4129 19 41.4177C19 41.4225 19 41.4273 19 41.432C19 41.4368 19 41.4416 19 41.4463C19 41.4511 19 41.4558 19 41.4606C19 41.4653 19 41.47 19 41.4747C19 41.4794 19 41.4841 19 41.4888C19 41.4935 19 41.4982 19 41.5029C19 41.5075 19 41.5122 19 41.5168C19 41.5215 19 41.5261 19 41.5308C19 41.5354 19 41.54 19 41.5446C19 41.5492 19 41.5538 19 41.5584C19 41.563 19 41.5676 19 41.5722C19 41.5767 19 41.5813 19 41.5858C19 41.5904 19 41.5949 19 41.5995C19 41.604 19 41.6085 19 41.613C19 41.6175 19 41.622 19 41.6265C19 41.631 19 41.6355 19 41.64C19 41.6444 19 41.6489 19 41.6533C19 41.6578 19 41.6622 19 41.6667C19 41.6711 19 41.6755 19 41.6799C19 41.6843 19 41.6887 19 41.6931C19 41.6975 19 41.7019 19 41.7063C19 41.7106 19 41.715 19 41.7194C19 41.7237 19 41.7281 19 41.7324C19 41.7367 19 41.741 19 41.7454C19 41.7497 19 41.754 19 41.7583C19 41.7626 19 41.7668 19 41.7711C19 41.7754 19 41.7797 19 41.7839C19 41.7882 19 41.7924 19 41.7967C19 41.8009 19 41.8051 19 41.8093C19 41.8136 19 41.8178 19 41.822C19 41.8262 19 41.8303 19 41.8345C19 41.8387 19 41.8429 19 41.847C19 41.8512 19 41.8553 19 41.8595C19 41.8636 19 41.8677 19 41.8719C19 41.876 19 41.8801 19 41.8842C19 41.8883 19 41.8924 19 41.8965C19 41.9006 19 41.9046 19 41.9087C19 41.9128 19 41.9168 19 41.9209C19 41.9249 19 41.9289 19 41.933C19 41.937 19 41.941 19 41.945C19 41.949 19 41.953 19 41.957C19 41.961 19 41.965 19 41.9689C19 41.9729 19 41.9769 19 41.9808C19 41.9848 19 41.9887 19 41.9926C19 41.9966 19 42.0005 19 42.0044C19 42.0083 19 42.0122 19 42.0161C19 42.02 19 42.0239 19 42.0278C19 42.0317 19 42.0355 19 42.0394C19 42.0432 19 42.0471 19 42.0509C19 42.0548 19 42.0586 19 42.0624C19 42.0662 19 42.07 19 42.0738C19 42.0776 19 42.0814 19 42.0852C19 42.089 19 42.0928 19 42.0965C19 42.1003 19 42.1041 19 42.1078C19 42.1116 19 42.1153 19 42.119C19 42.1227 19 42.1265 19 42.1302C19 42.1339 19 42.1376 19 42.1413C19 42.145 19 42.1486 19 42.1523C19 42.156 19 42.1597 19 42.1633C19 42.167 19 42.1706 19 42.1743C19 42.1779 19 42.1815 19 42.1851C19 42.1888 19 42.1924 19 42.196C19 42.1996 19 42.2032 19 42.2067C19 42.2103 19 42.2139 19 42.2175C19 42.221 19 42.2246 19 42.2281C19 42.2317 19 42.2352 19 42.2387C19 42.2423 19 42.2458 19 42.2493C19 42.2528 19 42.2563 19 42.2598C19 42.2633 19 42.2668 19 42.2703C19 42.2737 19 42.2772 19 42.2807C19 42.2841 19 42.2876 19 42.291C19 42.2944 19 42.2979 19 42.3013C19 42.3047 19 42.3081 19 42.3115C19 42.3149 19 42.3183 19 42.3217C19 42.3251 19 42.3285 19 42.3318C19 42.3352 19 42.3386 19 42.3419C19 42.3453 19 42.3486 19 42.352C19 42.3553 19 42.3586 19 42.3619C19 42.3652 19 42.3686 19 42.3719C19 42.3751 19 42.3784 19 42.3817C19 42.385 19 42.3883 19 42.3915C19 42.3948 19 42.3981 19 42.4013C19 42.4046 19 42.4078 19 42.411C19 42.4142 19 42.4175 19 42.4207C19 42.4239 19 42.4271 19 42.4303C19 42.4335 19 42.4367 19 42.4398C19 42.443 19 42.4462 19 42.4494C19 42.4525 19 42.4557 19 42.4588C19 42.462 19 42.4651 19 42.4682C19 42.4713 19 42.4745 19 42.4776C19 42.4807 19 42.4838 19 42.4869C19 42.49 19 42.493 19 42.4961C19 42.4992 19 42.5023 19 42.5053C19 42.5084 19 42.5114 19 42.5145C19 42.5175 19 42.5205 19 42.5236C19 42.5266 19 42.5296 19 42.5326C19 42.5356 19 42.5386 19 42.5416C19 42.5446 19 42.5476 19 42.5506C19 42.5535 19 42.5565 19 42.5595C19 42.5624 19 42.5654 19 42.5683C19 42.5712 19 42.5742 19 42.5771C19 42.58 19 42.5829 19 42.5859C19 42.5888 19 42.5917 19 42.5946C19 42.5974 19 42.6003 19 42.6032C19 42.6061 19 42.6089 19 42.6118C19 42.6147 19 42.6175 19 42.6203C19 42.6232 19 42.626 19 42.6288C19 42.6317 19 42.6345 19 42.6373C19 42.6401 19 42.6429 19 42.6457C19 42.6485 19 42.6513 19 42.654C19 42.6568 19 42.6596 19 42.6623C19 42.6651 19 42.6679 19 42.6706C19 42.6733 19 42.6761 19 42.6788C19 42.6815 19 42.6843 19 42.687C19 42.6897 19 42.6924 19 42.6951C19 42.6978 19 42.7005 19 42.7031C19 42.7058 19 42.7085 19 42.7111C19 42.7138 19 42.7165 19 42.7191C19 42.7218 19 42.7244 19 42.727C19 42.7297 19 42.7323 19 42.7349C19 42.7375 19 42.7401 19 42.7427C19 42.7453 19 42.7479 19 42.7505C19 42.7531 19 42.7556 19 42.7582C19 42.7608 19 42.7633 19 42.7659C19 42.7684 19 42.771 19 42.7735C19 42.7761 19 42.7786 19 42.7811C19 42.7836 19 42.7861 19 42.7886C19 42.7911 19 42.7936 19 42.7961C19 42.7986 19 42.8011 19 42.8036C19 42.806 19 42.8085 19 42.811C19 42.8134 19 42.8159 19 42.8183C19 42.8208 19 42.8232 19 42.8256C19 42.828 19 42.8305 19 42.8329C19 42.8353 19 42.8377 19 42.8401C19 42.8425 19 42.8449 19 42.8472C19 42.8496 19 42.852 19 42.8544C19 42.8567 19 42.8591 19 42.8614C19 42.8638 19 42.8661 19 42.8685C19 42.8708 19 42.8731 19 42.8754C19 42.8777 19 42.8801 19 42.8824C19 42.8847 19 42.887 19 42.8893C19 42.8915 19 42.8938 19 42.8961C19 42.8984 19 42.9006 19 42.9029C19 42.9051 19 42.9074 19 42.9096C19 42.9119 19 42.9141 19 42.9163C19 42.9186 19 42.9208 19 42.923C19 42.9252 19 42.9274 19 42.9296C19 42.9318 19 42.934 19 42.9362C19 42.9384 19 42.9406 19 42.9427C19 42.9449 19 42.9471 19 42.9492C19 42.9514 19 42.9535 19 42.9556C19 42.9578 19 42.9599 19 42.962C19 42.9642 19 42.9663 19 42.9684C19 42.9705 19 42.9726 19 42.9747C19 42.9768 19 42.9789 19 42.9809C19 42.983 19 42.9851 19 42.9872C19 42.9892 19 42.9913 19 42.9933C19 42.9954 19 42.9974 19 42.9995C19 43.0015 19 43.0035 19 43.0056C19 43.0076 19 43.0096 19 43.0116C19 43.0136 19 43.0156 19 43.0176C19 43.0196 19 43.0216 19 43.0236C19 43.0255 19 43.0275 19 43.0295C19 43.0314 19 43.0334 19 43.0353C19 43.0373 19 43.0392 19 43.0412C19 43.0431 19 43.045 19 43.0469C19 43.0489 19 43.0508 19 43.0527C19 43.0546 19 43.0565 19 43.0584C19 43.0603 19 43.0622 19 43.064C19 43.0659 19 43.0678 19 43.0697C19 43.0715 19 43.0734 19 43.0752C19 43.0771 19 43.0789 19 43.0808C19 43.0826 19 43.0844 19 43.0862C19 43.0881 19 43.0899 19 43.0917C19 43.0935 19 43.0953 19 43.0971C19 43.0989 19 43.1007 19 43.1024C19 43.1042 19 43.106 19 43.1078C19 43.1095 19 43.1113 19 43.113C19 43.1148 19 43.1165 19 43.1183C19 43.12 19 43.1218 19 43.1235C19 43.1252 19 43.1269 19 43.1286C19 43.1303 19 43.132 19 43.1337C19 43.1354 19 43.1371 19 43.1388C19 43.1405 19 43.1422 19 43.1438C19 43.1455 19 43.1472 19 43.1488C19 43.1505 19 43.1521 19 43.1538C19 43.1554 19 43.1571 19 43.1587C19 43.1603 19 43.162 19 43.1636C19 43.1652 19 43.1668 19 43.1684C19 43.17 19 43.1716 19 43.1732C19 43.1748 19 43.1764 19 43.1779C19 43.1795 19 43.1811 19 43.1826C19 43.1842 19 43.1858 19 43.1873C19 43.1889 19 43.1904 19 43.1919C19 43.1935 19 43.195 19 43.1965C19 43.1981 19 43.1996 19 43.2011C19 43.2026 19 43.2041 19 43.2056C19 43.2071 19 43.2086 19 43.2101C19 43.2115 19 43.213 19 43.2145C19 43.216 19 43.2174 19 43.2189C19 43.2203 19 43.2218 19 43.2232C19 43.2247 19 43.2261 19 43.2276C19 43.229 19 43.2304 19 43.2318C19 43.2333 19 43.2347 19 43.2361C19 43.2375 19 43.2389 19 43.2403C19 43.2417 19 43.2431 19 43.2444C19 43.2458 19 43.2472 19 43.2486C19 43.2499 19 43.2513 19 43.2526C19 43.254 19 43.2553 19 43.2567C19 43.258 19 43.2594 19 43.2607C19 43.262 19 43.2633 19 43.2647C19 43.266 19 43.2673 19 43.2686C19 43.2699 19 43.2712 19 43.2725C19 43.2738 19 43.2751 19 43.2764C19 43.2776 19 43.2789 19 43.2802C19 43.2814 19 43.2827 19 43.284C19 43.2852 19 43.2865 19 43.2877C19 43.2889 19 43.2902 19 43.2914C19 43.2926 19 43.2939 19 43.2951C19 43.2963 19 43.2975 19 43.2987C19 43.2999 19 43.3011 19 43.3023C19 43.3035 19 43.3047 19 43.3059C19 43.3071 19 43.3082 19 43.3094C19 43.3106 19 43.3117 19 43.3129C19 43.314 19 43.3152 19 43.3163C19 43.3175 19 43.3186 19 43.3198C19 43.3209 19 43.322 19 43.3231C19 43.3243 19 43.3254 19 43.3265C19 43.3276 19 43.3287 19 43.3298C19 43.3309 19 43.332 19 43.3331C19 43.3341 19 43.3352 19 43.3363C19 43.3374 19 43.3384 19 43.3395C19 43.3406 19 43.3416 19 43.3427C19 43.3437 19 43.3448 19 43.3458C19 43.3468 19 43.3479 19 43.3489C19 43.3499 19 43.3509 19 43.3519C19 43.353 19 43.354 19 43.355C19 43.356 19 43.357 19 43.358C19 43.359 19 43.3599 19 43.3609C19 43.3619 19 43.3629 19 43.3638C19 43.3648 19 43.3658 19 43.3667C19 43.3677 19 43.3686 19 43.3696C19 43.3705 19 43.3715 19 43.3724C19 43.3733 19 43.3743 19 43.3752C19 43.3761 19 43.377 19 43.3779C19 43.3788 19 43.3797 19 43.3806C19 43.3815 19 43.3824 19 43.3833C19 43.3842 19 43.3851 19 43.386C19 43.3868 19 43.3877 19 43.3886C19 43.3894 19 43.3903 19 43.3912C19 43.392 19 43.3929 19 43.3937C19 43.3946 19 43.3954 19 43.3962C19 43.3971 19 43.3979 19 43.3987C19 43.3995 19 43.4003 19 43.4011C19 43.402 19 43.4028 19 43.4036C19 43.4044 19 43.4052 19 43.4059C19 43.4067 19 43.4075 19 43.4083C19 43.4091 19 43.4098 19 43.4106C19 43.4114 19 43.4121 19 43.4129C19 43.4136 19 43.4144 19 43.4151C19 43.4159 19 43.4166 19 43.4174C19 43.4181 19 43.4188 19 43.4195C19 43.4203 19 43.421 19 43.4217C19 43.4224 19 43.4231 19 43.4238C19 43.4245 19 43.4252 19 43.4259C19 43.4266 19 43.4273 19 43.428C19 43.4286 19 43.4293 19 43.43C19 43.4307 19 43.4313 19 43.432C19 43.4326 19 43.4333 19 43.434C19 43.4346 19 43.4352 19 43.4359C19 43.4365 19 43.4372 19 43.4378C19 43.4384 19 43.439 19 43.4397C19 43.4403 19 43.4409 19 43.4415C19 43.4421 19 43.4427 19 43.4433C19 43.4439 19 43.4445 19 43.4451C19 43.4457 19 43.4462 19 43.4468C19 43.4474 19 43.448 19 43.4485C19 43.4491 19 43.4497 19 43.4502C19 43.4508 19 43.4513 19 43.4519C19 43.4524 19 43.453 19 43.4535C19 43.454 19 43.4546 19 43.4551C19 43.4556 19 43.4561 19 43.4567C19 43.4572 19 43.4577 19 43.4582C19 43.4587 19 43.4592 19 43.4597C19 43.4602 19 43.4607 19 43.4612C19 43.4617 19 43.4621 19 43.4626C19 43.4631 19 43.4636 19 43.464C19 43.4645 19 43.465 19 43.4654C19 43.4659 19 43.4663 19 43.4668C19 43.4672 19 43.4677 19 43.4681C19 43.4685 19 43.469 19 43.4694C19 43.4698 19 43.4703 19 43.4707C19 43.4711 19 43.4715 19 43.4719C19 43.4723 19 43.4727 19 43.4731C19 43.4735 19 43.4739 19 43.4743C19 43.4747 19 43.4751 19 43.4755C19 43.4759 19 43.4762 19 43.4766C19 43.477 19 43.4773 19 43.4777C19 43.4781 19 43.4784 19 43.4788C19 43.4791 19 43.4795 19 43.4798C19 43.4802 19 43.4805 19 43.4808C19 43.4812 19 43.4815 19 43.4818C19 43.4821 19 43.4825 19 43.4828C19 43.4831 19 43.4834 19 43.4837C19 43.484 19 43.4843 19 43.4846C19 43.4849 19 43.4852 19 43.4855C19 43.4858 19 43.4861 19 43.4863C19 43.4866 19 43.4869 19 43.4872C19 43.4874 19 43.4877 19 43.488C19 43.4882 19 43.4885 19 43.4887C19 43.489 19 43.4892 19 43.4895C19 43.4897 19 43.4899 19 43.4902C19 43.4904 19 43.4906 19 43.4909C19 43.4911 19 43.4913 19 43.4915C19 43.4917 19 43.492 19 43.4922C19 43.4924 19 43.4926 19 43.4928C19 43.493 19 43.4932 19 43.4934C19 43.4936 19 43.4937 19 43.4939C19 43.4941 19 43.4943 19 43.4944C19 43.4946 19 43.4948 19 43.495C19 43.4951 19 43.4953 19 43.4954C19 43.4956 19 43.4957 19 43.4959C19 43.496 19 43.4962 19 43.4963C19 43.4965 19 43.4966 19 43.4967C19 43.4968 19 43.497 19 43.4971C19 43.4972 19 43.4973 19 43.4974C19 43.4976 19 43.4977 19 43.4978C19 43.4979 19 43.498 19 43.4981C19 43.4982 19 43.4983 19 43.4984C19 43.4984 19 43.4985 19 43.4986C19 43.4987 19 43.4988 19 43.4988C19 43.4989 19 43.499 19 43.499C19 43.4991 19 43.4992 19 43.4992C19 43.4993 19 43.4993 19 43.4994C19 43.4994 19 43.4995 19 43.4995C19 43.4995 19 43.4996 19 43.4996C19 43.4996 19 43.4997 19 43.4997C19 43.4997 19 43.4997 19 43.4998C19 43.4998 19 43.4998 19 43.4998C19 43.4998 19 43.4998 19.5 43.4998C20 43.4998 20 43.4998 20 43.4998C20 43.4998 20 43.4998 20 43.4998C20 43.4997 20 43.4997 20 43.4997C20 43.4997 20 43.4996 20 43.4996C20 43.4996 20 43.4995 20 43.4995C20 43.4995 20 43.4994 20 43.4994C20 43.4993 20 43.4993 20 43.4992C20 43.4992 20 43.4991 20 43.499C20 43.499 20 43.4989 20 43.4988C20 43.4988 20 43.4987 20 43.4986C20 43.4985 20 43.4984 20 43.4984C20 43.4983 20 43.4982 20 43.4981C20 43.498 20 43.4979 20 43.4978C20 43.4977 20 43.4976 20 43.4974C20 43.4973 20 43.4972 20 43.4971C20 43.497 20 43.4968 20 43.4967C20 43.4966 20 43.4965 20 43.4963C20 43.4962 20 43.496 20 43.4959C20 43.4957 20 43.4956 20 43.4954C20 43.4953 20 43.4951 20 43.495C20 43.4948 20 43.4946 20 43.4944C20 43.4943 20 43.4941 20 43.4939C20 43.4937 20 43.4936 20 43.4934C20 43.4932 20 43.493 20 43.4928C20 43.4926 20 43.4924 20 43.4922C20 43.492 20 43.4917 20 43.4915C20 43.4913 20 43.4911 20 43.4909C20 43.4906 20 43.4904 20 43.4902C20 43.4899 20 43.4897 20 43.4895C20 43.4892 20 43.489 20 43.4887C20 43.4885 20 43.4882 20 43.488C20 43.4877 20 43.4874 20 43.4872C20 43.4869 20 43.4866 20 43.4863C20 43.4861 20 43.4858 20 43.4855C20 43.4852 20 43.4849 20 43.4846C20 43.4843 20 43.484 20 43.4837C20 43.4834 20 43.4831 20 43.4828C20 43.4825 20 43.4821 20 43.4818C20 43.4815 20 43.4812 20 43.4808C20 43.4805 20 43.4802 20 43.4798C20 43.4795 20 43.4791 20 43.4788C20 43.4784 20 43.4781 20 43.4777C20 43.4773 20 43.477 20 43.4766C20 43.4762 20 43.4759 20 43.4755C20 43.4751 20 43.4747 20 43.4743C20 43.4739 20 43.4735 20 43.4731C20 43.4727 20 43.4723 20 43.4719C20 43.4715 20 43.4711 20 43.4707C20 43.4703 20 43.4698 20 43.4694C20 43.469 20 43.4685 20 43.4681C20 43.4677 20 43.4672 20 43.4668C20 43.4663 20 43.4659 20 43.4654C20 43.465 20 43.4645 20 43.464C20 43.4636 20 43.4631 20 43.4626C20 43.4621 20 43.4617 20 43.4612C20 43.4607 20 43.4602 20 43.4597C20 43.4592 20 43.4587 20 43.4582C20 43.4577 20 43.4572 20 43.4567C20 43.4561 20 43.4556 20 43.4551C20 43.4546 20 43.454 20 43.4535C20 43.453 20 43.4524 20 43.4519C20 43.4513 20 43.4508 20 43.4502C20 43.4497 20 43.4491 20 43.4485C20 43.448 20 43.4474 20 43.4468C20 43.4462 20 43.4457 20 43.4451C20 43.4445 20 43.4439 20 43.4433C20 43.4427 20 43.4421 20 43.4415C20 43.4409 20 43.4403 20 43.4397C20 43.439 20 43.4384 20 43.4378C20 43.4372 20 43.4365 20 43.4359C20 43.4352 20 43.4346 20 43.434C20 43.4333 20 43.4326 20 43.432C20 43.4313 20 43.4307 20 43.43C20 43.4293 20 43.4286 20 43.428C20 43.4273 20 43.4266 20 43.4259C20 43.4252 20 43.4245 20 43.4238C20 43.4231 20 43.4224 20 43.4217C20 43.421 20 43.4203 20 43.4195C20 43.4188 20 43.4181 20 43.4174C20 43.4166 20 43.4159 20 43.4151C20 43.4144 20 43.4136 20 43.4129C20 43.4121 20 43.4114 20 43.4106C20 43.4098 20 43.4091 20 43.4083C20 43.4075 20 43.4067 20 43.4059C20 43.4052 20 43.4044 20 43.4036C20 43.4028 20 43.402 20 43.4011C20 43.4003 20 43.3995 20 43.3987C20 43.3979 20 43.3971 20 43.3962C20 43.3954 20 43.3946 20 43.3937C20 43.3929 20 43.392 20 43.3912C20 43.3903 20 43.3894 20 43.3886C20 43.3877 20 43.3868 20 43.386C20 43.3851 20 43.3842 20 43.3833C20 43.3824 20 43.3815 20 43.3806C20 43.3797 20 43.3788 20 43.3779C20 43.377 20 43.3761 20 43.3752C20 43.3743 20 43.3733 20 43.3724C20 43.3715 20 43.3705 20 43.3696C20 43.3686 20 43.3677 20 43.3667C20 43.3658 20 43.3648 20 43.3638C20 43.3629 20 43.3619 20 43.3609C20 43.3599 20 43.359 20 43.358C20 43.357 20 43.356 20 43.355C20 43.354 20 43.353 20 43.3519C20 43.3509 20 43.3499 20 43.3489C20 43.3479 20 43.3468 20 43.3458C20 43.3448 20 43.3437 20 43.3427C20 43.3416 20 43.3406 20 43.3395C20 43.3384 20 43.3374 20 43.3363C20 43.3352 20 43.3341 20 43.3331C20 43.332 20 43.3309 20 43.3298C20 43.3287 20 43.3276 20 43.3265C20 43.3254 20 43.3243 20 43.3231C20 43.322 20 43.3209 20 43.3198C20 43.3186 20 43.3175 20 43.3163C20 43.3152 20 43.314 20 43.3129C20 43.3117 20 43.3106 20 43.3094C20 43.3082 20 43.3071 20 43.3059C20 43.3047 20 43.3035 20 43.3023C20 43.3011 20 43.2999 20 43.2987C20 43.2975 20 43.2963 20 43.2951C20 43.2939 20 43.2926 20 43.2914C20 43.2902 20 43.2889 20 43.2877C20 43.2865 20 43.2852 20 43.284C20 43.2827 20 43.2814 20 43.2802C20 43.2789 20 43.2776 20 43.2764C20 43.2751 20 43.2738 20 43.2725C20 43.2712 20 43.2699 20 43.2686C20 43.2673 20 43.266 20 43.2647C20 43.2633 20 43.262 20 43.2607C20 43.2594 20 43.258 20 43.2567C20 43.2553 20 43.254 20 43.2526C20 43.2513 20 43.2499 20 43.2486C20 43.2472 20 43.2458 20 43.2444C20 43.2431 20 43.2417 20 43.2403C20 43.2389 20 43.2375 20 43.2361C20 43.2347 20 43.2333 20 43.2318C20 43.2304 20 43.229 20 43.2276C20 43.2261 20 43.2247 20 43.2232C20 43.2218 20 43.2203 20 43.2189C20 43.2174 20 43.216 20 43.2145C20 43.213 20 43.2115 20 43.2101C20 43.2086 20 43.2071 20 43.2056C20 43.2041 20 43.2026 20 43.2011C20 43.1996 20 43.1981 20 43.1965C20 43.195 20 43.1935 20 43.1919C20 43.1904 20 43.1889 20 43.1873C20 43.1858 20 43.1842 20 43.1826C20 43.1811 20 43.1795 20 43.1779C20 43.1764 20 43.1748 20 43.1732C20 43.1716 20 43.17 20 43.1684C20 43.1668 20 43.1652 20 43.1636C20 43.162 20 43.1603 20 43.1587C20 43.1571 20 43.1554 20 43.1538C20 43.1521 20 43.1505 20 43.1488C20 43.1472 20 43.1455 20 43.1438C20 43.1422 20 43.1405 20 43.1388C20 43.1371 20 43.1354 20 43.1337C20 43.132 20 43.1303 20 43.1286C20 43.1269 20 43.1252 20 43.1235C20 43.1218 20 43.12 20 43.1183C20 43.1165 20 43.1148 20 43.113C20 43.1113 20 43.1095 20 43.1078C20 43.106 20 43.1042 20 43.1024C20 43.1007 20 43.0989 20 43.0971C20 43.0953 20 43.0935 20 43.0917C20 43.0899 20 43.0881 20 43.0862C20 43.0844 20 43.0826 20 43.0808C20 43.0789 20 43.0771 20 43.0752C20 43.0734 20 43.0715 20 43.0697C20 43.0678 20 43.0659 20 43.064C20 43.0622 20 43.0603 20 43.0584C20 43.0565 20 43.0546 20 43.0527C20 43.0508 20 43.0489 20 43.0469C20 43.045 20 43.0431 20 43.0412C20 43.0392 20 43.0373 20 43.0353C20 43.0334 20 43.0314 20 43.0295C20 43.0275 20 43.0255 20 43.0236C20 43.0216 20 43.0196 20 43.0176C20 43.0156 20 43.0136 20 43.0116C20 43.0096 20 43.0076 20 43.0056C20 43.0035 20 43.0015 20 42.9995C20 42.9974 20 42.9954 20 42.9933C20 42.9913 20 42.9892 20 42.9872C20 42.9851 20 42.983 20 42.9809C20 42.9789 20 42.9768 20 42.9747C20 42.9726 20 42.9705 20 42.9684C20 42.9663 20 42.9642 20 42.962C20 42.9599 20 42.9578 20 42.9556C20 42.9535 20 42.9514 20 42.9492C20 42.9471 20 42.9449 20 42.9427C20 42.9406 20 42.9384 20 42.9362C20 42.934 20 42.9318 20 42.9296C20 42.9274 20 42.9252 20 42.923C20 42.9208 20 42.9186 20 42.9163C20 42.9141 20 42.9119 20 42.9096C20 42.9074 20 42.9051 20 42.9029C20 42.9006 20 42.8984 20 42.8961C20 42.8938 20 42.8915 20 42.8893C20 42.887 20 42.8847 20 42.8824C20 42.8801 20 42.8777 20 42.8754C20 42.8731 20 42.8708 20 42.8685C20 42.8661 20 42.8638 20 42.8614C20 42.8591 20 42.8567 20 42.8544C20 42.852 20 42.8496 20 42.8472C20 42.8449 20 42.8425 20 42.8401C20 42.8377 20 42.8353 20 42.8329C20 42.8305 20 42.828 20 42.8256C20 42.8232 20 42.8208 20 42.8183C20 42.8159 20 42.8134 20 42.811C20 42.8085 20 42.806 20 42.8036C20 42.8011 20 42.7986 20 42.7961C20 42.7936 20 42.7911 20 42.7886C20 42.7861 20 42.7836 20 42.7811C20 42.7786 20 42.7761 20 42.7735C20 42.771 20 42.7684 20 42.7659C20 42.7633 20 42.7608 20 42.7582C20 42.7556 20 42.7531 20 42.7505C20 42.7479 20 42.7453 20 42.7427C20 42.7401 20 42.7375 20 42.7349C20 42.7323 20 42.7297 20 42.727C20 42.7244 20 42.7218 20 42.7191C20 42.7165 20 42.7138 20 42.7111C20 42.7085 20 42.7058 20 42.7031C20 42.7005 20 42.6978 20 42.6951C20 42.6924 20 42.6897 20 42.687C20 42.6843 20 42.6815 20 42.6788C20 42.6761 20 42.6733 20 42.6706C20 42.6679 20 42.6651 20 42.6623C20 42.6596 20 42.6568 20 42.654C20 42.6513 20 42.6485 20 42.6457C20 42.6429 20 42.6401 20 42.6373C20 42.6345 20 42.6317 20 42.6288C20 42.626 20 42.6232 20 42.6203C20 42.6175 20 42.6147 20 42.6118C20 42.6089 20 42.6061 20 42.6032C20 42.6003 20 42.5974 20 42.5946C20 42.5917 20 42.5888 20 42.5859C20 42.5829 20 42.58 20 42.5771C20 42.5742 20 42.5712 20 42.5683C20 42.5654 20 42.5624 20 42.5595C20 42.5565 20 42.5535 20 42.5506C20 42.5476 20 42.5446 20 42.5416C20 42.5386 20 42.5356 20 42.5326C20 42.5296 20 42.5266 20 42.5236C20 42.5205 20 42.5175 20 42.5145C20 42.5114 20 42.5084 20 42.5053C20 42.5023 20 42.4992 20 42.4961C20 42.493 20 42.49 20 42.4869C20 42.4838 20 42.4807 20 42.4776C20 42.4745 20 42.4713 20 42.4682C20 42.4651 20 42.462 20 42.4588C20 42.4557 20 42.4525 20 42.4494C20 42.4462 20 42.443 20 42.4398C20 42.4367 20 42.4335 20 42.4303C20 42.4271 20 42.4239 20 42.4207C20 42.4175 20 42.4142 20 42.411C20 42.4078 20 42.4046 20 42.4013C20 42.3981 20 42.3948 20 42.3915C20 42.3883 20 42.385 20 42.3817C20 42.3784 20 42.3751 20 42.3719C20 42.3686 20 42.3652 20 42.3619C20 42.3586 20 42.3553 20 42.352C20 42.3486 20 42.3453 20 42.3419C20 42.3386 20 42.3352 20 42.3318C20 42.3285 20 42.3251 20 42.3217C20 42.3183 20 42.3149 20 42.3115C20 42.3081 20 42.3047 20 42.3013C20 42.2979 20 42.2944 20 42.291C20 42.2876 20 42.2841 20 42.2807C20 42.2772 20 42.2737 20 42.2703C20 42.2668 20 42.2633 20 42.2598C20 42.2563 20 42.2528 20 42.2493C20 42.2458 20 42.2423 20 42.2387C20 42.2352 20 42.2317 20 42.2281C20 42.2246 20 42.221 20 42.2175C20 42.2139 20 42.2103 20 42.2067C20 42.2032 20 42.1996 20 42.196C20 42.1924 20 42.1888 20 42.1851C20 42.1815 20 42.1779 20 42.1743C20 42.1706 20 42.167 20 42.1633C20 42.1597 20 42.156 20 42.1523C20 42.1486 20 42.145 20 42.1413C20 42.1376 20 42.1339 20 42.1302C20 42.1265 20 42.1227 20 42.119C20 42.1153 20 42.1116 20 42.1078C20 42.1041 20 42.1003 20 42.0965C20 42.0928 20 42.089 20 42.0852C20 42.0814 20 42.0776 20 42.0738C20 42.07 20 42.0662 20 42.0624C20 42.0586 20 42.0548 20 42.0509C20 42.0471 20 42.0432 20 42.0394C20 42.0355 20 42.0317 20 42.0278C20 42.0239 20 42.02 20 42.0161C20 42.0122 20 42.0083 20 42.0044C20 42.0005 20 41.9966 20 41.9926C20 41.9887 20 41.9848 20 41.9808C20 41.9769 20 41.9729 20 41.9689C20 41.965 20 41.961 20 41.957C20 41.953 20 41.949 20 41.945C20 41.941 20 41.937 20 41.933C20 41.9289 20 41.9249 20 41.9209C20 41.9168 20 41.9128 20 41.9087C20 41.9046 20 41.9006 20 41.8965C20 41.8924 20 41.8883 20 41.8842C20 41.8801 20 41.876 20 41.8719C20 41.8677 20 41.8636 20 41.8595C20 41.8553 20 41.8512 20 41.847C20 41.8429 20 41.8387 20 41.8345C20 41.8303 20 41.8262 20 41.822C20 41.8178 20 41.8136 20 41.8093C20 41.8051 20 41.8009 20 41.7967C20 41.7924 20 41.7882 20 41.7839C20 41.7797 20 41.7754 20 41.7711C20 41.7668 20 41.7626 20 41.7583C20 41.754 20 41.7497 20 41.7454C20 41.741 20 41.7367 20 41.7324C20 41.7281 20 41.7237 20 41.7194C20 41.715 20 41.7106 20 41.7063C20 41.7019 20 41.6975 20 41.6931C20 41.6887 20 41.6843 20 41.6799C20 41.6755 20 41.6711 20 41.6667C20 41.6622 20 41.6578 20 41.6533C20 41.6489 20 41.6444 20 41.64C20 41.6355 20 41.631 20 41.6265C20 41.622 20 41.6175 20 41.613C20 41.6085 20 41.604 20 41.5995C20 41.5949 20 41.5904 20 41.5858C20 41.5813 20 41.5767 20 41.5722C20 41.5676 20 41.563 20 41.5584C20 41.5538 20 41.5492 20 41.5446C20 41.54 20 41.5354 20 41.5308C20 41.5261 20 41.5215 20 41.5168C20 41.5122 20 41.5075 20 41.5029C20 41.4982 20 41.4935 20 41.4888C20 41.4841 20 41.4794 20 41.4747C20 41.47 20 41.4653 20 41.4606C20 41.4558 20 41.4511 20 41.4463C20 41.4416 20 41.4368 20 41.432C20 41.4273 20 41.4225 20 41.4177C20 41.4129 20 41.4081 20 41.4033C20 41.3985 20 41.3937 20 41.3888C20 41.384 20 41.3792 20 41.3743C20 41.3695 20 41.3646 20 41.3597C20 41.3548 20 41.35 20 41.3451C20 41.3402 20 41.3353 20 41.3304C20 41.3254 20 41.3205 20 41.3156C20 41.3107 20 41.3057 20 41.3008C20 41.2958 20 41.2908 20 41.2859C20 41.2809 20 41.2759 20 41.2709C20 41.2659 20 41.2609 20 41.2559C20 41.2509 20 41.2458 20 41.2408C20 41.2358 20 41.2307 20 41.2256C20 41.2206 20 41.2155 20 41.2104C20 41.2054 20 41.2003 20 41.1952C20 41.1901 20 41.185 20 41.1798C20 41.1747 20 41.1696 20 41.1644C20 41.1593 20 41.1541 20 41.149C20 41.1438 20 41.1386 20 41.1335C20 41.1283 20 41.1231 20 41.1179C20 41.1127 20 41.1074 20 41.1022C20 41.097 20 41.0918 20 41.0865C20 41.0813 20 41.076 20 41.0707C20 41.0655 20 41.0602 20 41.0549C20 41.0496 20 41.0443 20 41.039C20 41.0337 20 41.0284 20 41.023C20 41.0177 20 41.0124 20 41.007C20 41.0016 20 40.9963 20 40.9909C20 40.9855 20 40.9801 20 40.9747C20 40.9693 20 40.9639 20 40.9585C20 40.9531 20 40.9477 20 40.9422C20 40.9368 20 40.9313 20 40.9259C20 40.9204 20 40.9149 20 40.9095C20 40.904 20 40.8985 20 40.893C20 40.8875 20 40.882 20 40.8764C20 40.8709 20 40.8654 20 40.8598C20 40.8543 20 40.8487 20 40.8432C20 40.8376 20 40.832 20 40.8264C20 40.8208 20 40.8152 20 40.8096C20 40.804 20 40.7984 20 40.7927C20 40.7871 20 40.7815 20 40.7758C20 40.7701 20 40.7645 20 40.7588C20 40.7531 20 40.7474 20 40.7417C20 40.736 20 40.7303 20 40.7246C20 40.7189 20 40.7131 20 40.7074C20 40.7017 20 40.6959 20 40.6901C20 40.6844 20 40.6786 20 40.6728C20 40.667 20 40.6612 20 40.6554C20 40.6496 20 40.6438 20 40.6379C20 40.6321 20 40.6263 20 40.6204C20 40.6146 20 40.6087 20 40.6028C20 40.5969 20 40.591 20 40.5851C20 40.5792 20 40.5733 20 40.5674C20 40.5615 20 40.5556 20 40.5496C20 40.5437 20 40.5377 20 40.5318C20 40.5258 20 40.5198 20 40.5138C20 40.5078 20 40.5018 20 40.4958C20 40.4898 20 40.4838 20 40.4778C20 40.4717 20 40.4657 20 40.4596C20 40.4536 20 40.4475 20 40.4414C20 40.4353 20 40.4293 20 40.4232C20 40.4171 20 40.4109 20 40.4048C20 40.3987 20 40.3926 20 40.3864C20 40.3803 20 40.3741 20 40.3679C20 40.3618 20 40.3556 20 40.3494C20 40.3432 20 40.337 20 40.3308C20 40.3246 20 40.3184 20 40.3121C20 40.3059 20 40.2996 20 40.2934C20 40.2871 20 40.2808 20 40.2746C20 40.2683 20 40.262 20 40.2557C20 40.2494 20 40.243 20 40.2367C20 40.2304 20 40.2241 20 40.2177C20 40.2113 20 40.205 20 40.1986C20 40.1922 20 40.1858 20 40.1795C20 40.1731 20 40.1666 20 40.1602C20 40.1538 20 40.1474 20 40.1409C20 40.1345 20 40.128 20 40.1216C20 40.1151 20 40.1086 20 40.1021C20 40.0956 20 40.0891 20 40.0826C20 40.0761 20 40.0696 20 40.063C20 40.0565 20 40.05 20 40.0434C20 40.0368 20 40.0303 20 40.0237C20 40.0171 20 40.0105 20 40.0039C20 39.9973 20 39.9907 20 39.984C20 39.9774 20 39.9708 20 39.9641C20 39.9575 20 39.9508 20 39.9441C20 39.9374 20 39.9308 20 39.9241C20 39.9174 20 39.9106 20 39.9039C20 39.8972 20 39.8905 20 39.8837C20 39.877 20 39.8702 20 39.8634C20 39.8567 20 39.8499 20 39.8431C20 39.8363 20 39.8295 20 39.8227C20 39.8158 20 39.809 20 39.8022C20 39.7953 20 39.7885 20 39.7816C20 39.7747 20 39.7679 20 39.761C20 39.7541 20 39.7472 20 39.7403C20 39.7333 20 39.7264 20 39.7195C20 39.7125 20 39.7056 20 39.6986C20 39.6917 20 39.6847 20 39.6777C20 39.6707 20 39.6637 20 39.6567C20 39.6497 20 39.6427 20 39.6357C20 39.6286 20 39.6216 20 39.6145C20 39.6075 20 39.6004 20 39.5933C20 39.5862 20 39.5791 20 39.572C20 39.5649 20 39.5578 20 39.5507C20 39.5435 20 39.5364 20 39.5292C20 39.5221 20 39.5149 20 39.5077C20 39.5006 20 39.4934 20 39.4862C20 39.479 20 39.4717 20 39.4645C20 39.4573 20 39.45 20 39.4428C20 39.4355 20 39.4283 20 39.421C20 39.4137 20 39.4064 20 39.3991C20 39.3918 20 39.3845 20 39.3772C20 39.3699 20 39.3625 20 39.3552C20 39.3478 20 39.3405 20 39.3331C20 39.3257 20 39.3183 20 39.3109C20 39.3035 20 39.2961 20 39.2887C20 39.2813 20 39.2738 20 39.2664C20 39.2589 20 39.2515 20 39.244C20 39.2365 20 39.2291 20 39.2216C20 39.2141 20 39.2066 20 39.199C20 39.1915 20 39.184 20 39.1764C20 39.1689 20 39.1613 20 39.1537C20 39.1462 20 39.1386 20 39.131C20 39.1234 20 39.1158 20 39.1082C20 39.1005 20 39.0929 20 39.0853C20 39.0776 20 39.07 20 39.0623C20 39.0546 20 39.0469 20 39.0392C20 39.0315 20 39.0238 20 39.0161C20 39.0084 20 39.0006 20 38.9929C20 38.9851 20 38.9774 20 38.9696C20 38.9618 20 38.9541 20 38.9463C20 38.9385 20 38.9307 20 38.9228C20 38.915 20 38.9072 20 38.8993C20 38.8915 20 38.8836 20 38.8757C20 38.8679 20 38.86 20 38.8521C20 38.8442 20 38.8363 20 38.8284C20 38.8204 20 38.8125 20 38.8045C20 38.7966 20 38.7886 20 38.7807C20 38.7727 20 38.7647 20 38.7567C20 38.7487 20 38.7407 20 38.7327C20 38.7246 20 38.7166 20 38.7085C20 38.7005 20 38.6924 20 38.6843C20 38.6763 20 38.6682 20 38.6601C20 38.652 20 38.6439 20 38.6357C20 38.6276 20 38.6195 20 38.6113C20 38.6031 20 38.595 20 38.5868C20 38.5786 20 38.5704 20 38.5622C20 38.554 20 38.5458 20 38.5376C20 38.5293 20 38.5211 20 38.5128C20 38.5046 20 38.4963 20 38.488C20 38.4797 20 38.4714 20 38.4631C20 38.4548 20 38.4465 20 38.4382C20 38.4298 20 38.4215 20 38.4131C20 38.4048 20 38.3964 20 38.388C20 38.3796 20 38.3712 20 38.3628C20 38.3544 20 38.346 20 38.3375C20 38.3291 20 38.3206 20 38.3122C20 38.3037 20 38.2952 20 38.2867C20 38.2782 20 38.2697 20 38.2612C20 38.2527 20 38.2442 20 38.2356C20 38.2271 20 38.2185 20 38.21C20 38.2014 20 38.1928 20 38.1842C20 38.1756 20 38.167 20 38.1584C20 38.1498 20 38.1411 20 38.1325C20 38.1238 20 38.1152 20 38.1065C20 38.0978 20 38.0891 20 38.0804C20 38.0717 20 38.063 20 38.0543C20 38.0455 20 38.0368 20 38.028C20 38.0193 20 38.0105 20 38.0017C20 37.993 20 37.9842 20 37.9754C20 37.9665 20 37.9577 20 37.9489H19ZM11.1678 37.5752L15.3322 33.8737L14.6678 33.1263L10.5035 36.8277L11.1678 37.5752ZM14.6678 33.8737L18.8322 37.5752L19.4965 36.8277L15.3322 33.1263L14.6678 33.8737ZM13.5 42.9998H10.5V43.9998H13.5V42.9998ZM14 43.4998V39.4998H13V43.4998H14ZM13.5 39.9998C13.5031 39.9998 13.5061 39.9998 13.5091 39.9998C13.5122 39.9998 13.5152 39.9998 13.5182 39.9998C13.5213 39.9998 13.5243 39.9998 13.5273 39.9998C13.5303 39.9998 13.5333 39.9998 13.5363 39.9998C13.5393 39.9998 13.5423 39.9998 13.5453 39.9998C13.5483 39.9998 13.5513 39.9998 13.5542 39.9998C13.5572 39.9998 13.5602 39.9998 13.5631 39.9998C13.5661 39.9998 13.5691 39.9998 13.572 39.9998C13.575 39.9998 13.5779 39.9998 13.5808 39.9998C13.5838 39.9998 13.5867 39.9998 13.5896 39.9998C13.5925 39.9998 13.5955 39.9998 13.5984 39.9998C13.6013 39.9998 13.6042 39.9998 13.6071 39.9998C13.61 39.9998 13.6129 39.9998 13.6158 39.9998C13.6187 39.9998 13.6216 39.9998 13.6244 39.9998C13.6273 39.9998 13.6302 39.9998 13.633 39.9998C13.6359 39.9998 13.6388 39.9998 13.6416 39.9998C13.6445 39.9998 13.6473 39.9998 13.6501 39.9998C13.653 39.9998 13.6558 39.9998 13.6586 39.9998C13.6615 39.9998 13.6643 39.9998 13.6671 39.9998C13.6699 39.9998 13.6727 39.9998 13.6755 39.9998C13.6783 39.9998 13.6811 39.9998 13.6839 39.9998C13.6867 39.9998 13.6895 39.9998 13.6923 39.9998C13.6951 39.9998 13.6978 39.9998 13.7006 39.9998C13.7034 39.9998 13.7061 39.9998 13.7089 39.9998C13.7117 39.9998 13.7144 39.9998 13.7172 39.9998C13.7199 39.9998 13.7226 39.9998 13.7254 39.9998C13.7281 39.9998 13.7308 39.9998 13.7336 39.9998C13.7363 39.9998 13.739 39.9998 13.7417 39.9998C13.7444 39.9998 13.7471 39.9998 13.7498 39.9998C13.7525 39.9998 13.7552 39.9998 13.7579 39.9998C13.7606 39.9998 13.7633 39.9998 13.7659 39.9998C13.7686 39.9998 13.7713 39.9998 13.774 39.9998C13.7766 39.9998 13.7793 39.9998 13.7819 39.9998C13.7846 39.9998 13.7872 39.9998 13.7899 39.9998C13.7925 39.9998 13.7952 39.9998 13.7978 39.9998C13.8004 39.9998 13.803 39.9998 13.8057 39.9998C13.8083 39.9998 13.8109 39.9998 13.8135 39.9998C13.8161 39.9998 13.8187 39.9998 13.8213 39.9998C13.8239 39.9998 13.8265 39.9998 13.8291 39.9998C13.8317 39.9998 13.8343 39.9998 13.8368 39.9998C13.8394 39.9998 13.842 39.9998 13.8446 39.9998C13.8471 39.9998 13.8497 39.9998 13.8522 39.9998C13.8548 39.9998 13.8573 39.9998 13.8599 39.9998C13.8624 39.9998 13.865 39.9998 13.8675 39.9998C13.87 39.9998 13.8726 39.9998 13.8751 39.9998C13.8776 39.9998 13.8801 39.9998 13.8826 39.9998C13.8852 39.9998 13.8877 39.9998 13.8902 39.9998C13.8927 39.9998 13.8952 39.9998 13.8977 39.9998C13.9001 39.9998 13.9026 39.9998 13.9051 39.9998C13.9076 39.9998 13.9101 39.9998 13.9125 39.9998C13.915 39.9998 13.9175 39.9998 13.9199 39.9998C13.9224 39.9998 13.9249 39.9998 13.9273 39.9998C13.9298 39.9998 13.9322 39.9998 13.9346 39.9998C13.9371 39.9998 13.9395 39.9998 13.9419 39.9998C13.9444 39.9998 13.9468 39.9998 13.9492 39.9998C13.9516 39.9998 13.954 39.9998 13.9565 39.9998C13.9589 39.9998 13.9613 39.9998 13.9637 39.9998C13.9661 39.9998 13.9685 39.9998 13.9709 39.9998C13.9732 39.9998 13.9756 39.9998 13.978 39.9998C13.9804 39.9998 13.9828 39.9998 13.9851 39.9998C13.9875 39.9998 13.9899 39.9998 13.9922 39.9998C13.9946 39.9998 13.9969 39.9998 13.9993 39.9998C14.0016 39.9998 14.004 39.9998 14.0063 39.9998C14.0087 39.9998 14.011 39.9998 14.0133 39.9998C14.0157 39.9998 14.018 39.9998 14.0203 39.9998C14.0226 39.9998 14.0249 39.9998 14.0273 39.9998C14.0296 39.9998 14.0319 39.9998 14.0342 39.9998C14.0365 39.9998 14.0388 39.9998 14.0411 39.9998C14.0434 39.9998 14.0456 39.9998 14.0479 39.9998C14.0502 39.9998 14.0525 39.9998 14.0548 39.9998C14.057 39.9998 14.0593 39.9998 14.0616 39.9998C14.0638 39.9998 14.0661 39.9998 14.0683 39.9998C14.0706 39.9998 14.0729 39.9998 14.0751 39.9998C14.0773 39.9998 14.0796 39.9998 14.0818 39.9998C14.0841 39.9998 14.0863 39.9998 14.0885 39.9998C14.0907 39.9998 14.093 39.9998 14.0952 39.9998C14.0974 39.9998 14.0996 39.9998 14.1018 39.9998C14.104 39.9998 14.1062 39.9998 14.1084 39.9998C14.1106 39.9998 14.1128 39.9998 14.115 39.9998C14.1172 39.9998 14.1194 39.9998 14.1216 39.9998C14.1238 39.9998 14.126 39.9998 14.1281 39.9998C14.1303 39.9998 14.1325 39.9998 14.1346 39.9998C14.1368 39.9998 14.139 39.9998 14.1411 39.9998C14.1433 39.9998 14.1454 39.9998 14.1476 39.9998C14.1497 39.9998 14.1519 39.9998 14.154 39.9998C14.1561 39.9998 14.1583 39.9998 14.1604 39.9998C14.1625 39.9998 14.1647 39.9998 14.1668 39.9998C14.1689 39.9998 14.171 39.9998 14.1731 39.9998C14.1752 39.9998 14.1774 39.9998 14.1795 39.9998C14.1816 39.9998 14.1837 39.9998 14.1858 39.9998C14.1879 39.9998 14.19 39.9998 14.192 39.9998C14.1941 39.9998 14.1962 39.9998 14.1983 39.9998C14.2004 39.9998 14.2025 39.9998 14.2045 39.9998C14.2066 39.9998 14.2087 39.9998 14.2107 39.9998C14.2128 39.9998 14.2148 39.9998 14.2169 39.9998C14.219 39.9998 14.221 39.9998 14.2231 39.9998C14.2251 39.9998 14.2272 39.9998 14.2292 39.9998C14.2312 39.9998 14.2333 39.9998 14.2353 39.9998C14.2373 39.9998 14.2394 39.9998 14.2414 39.9998C14.2434 39.9998 14.2454 39.9998 14.2474 39.9998C14.2495 39.9998 14.2515 39.9998 14.2535 39.9998C14.2555 39.9998 14.2575 39.9998 14.2595 39.9998C14.2615 39.9998 14.2635 39.9998 14.2655 39.9998C14.2675 39.9998 14.2695 39.9998 14.2714 39.9998C14.2734 39.9998 14.2754 39.9998 14.2774 39.9998C14.2794 39.9998 14.2813 39.9998 14.2833 39.9998C14.2853 39.9998 14.2872 39.9998 14.2892 39.9998C14.2912 39.9998 14.2931 39.9998 14.2951 39.9998C14.297 39.9998 14.299 39.9998 14.3009 39.9998C14.3029 39.9998 14.3048 39.9998 14.3068 39.9998C14.3087 39.9998 14.3106 39.9998 14.3126 39.9998C14.3145 39.9998 14.3164 39.9998 14.3184 39.9998C14.3203 39.9998 14.3222 39.9998 14.3241 39.9998C14.326 39.9998 14.328 39.9998 14.3299 39.9998C14.3318 39.9998 14.3337 39.9998 14.3356 39.9998C14.3375 39.9998 14.3394 39.9998 14.3413 39.9998C14.3432 39.9998 14.3451 39.9998 14.347 39.9998C14.3489 39.9998 14.3507 39.9998 14.3526 39.9998C14.3545 39.9998 14.3564 39.9998 14.3583 39.9998C14.3601 39.9998 14.362 39.9998 14.3639 39.9998C14.3657 39.9998 14.3676 39.9998 14.3695 39.9998C14.3713 39.9998 14.3732 39.9998 14.3751 39.9998C14.3769 39.9998 14.3788 39.9998 14.3806 39.9998C14.3825 39.9998 14.3843 39.9998 14.3861 39.9998C14.388 39.9998 14.3898 39.9998 14.3917 39.9998C14.3935 39.9998 14.3953 39.9998 14.3972 39.9998C14.399 39.9998 14.4008 39.9998 14.4026 39.9998C14.4045 39.9998 14.4063 39.9998 14.4081 39.9998C14.4099 39.9998 14.4117 39.9998 14.4135 39.9998C14.4153 39.9998 14.4171 39.9998 14.4189 39.9998C14.4207 39.9998 14.4225 39.9998 14.4243 39.9998C14.4261 39.9998 14.4279 39.9998 14.4297 39.9998C14.4315 39.9998 14.4333 39.9998 14.4351 39.9998C14.4369 39.9998 14.4387 39.9998 14.4404 39.9998C14.4422 39.9998 14.444 39.9998 14.4458 39.9998C14.4475 39.9998 14.4493 39.9998 14.4511 39.9998C14.4528 39.9998 14.4546 39.9998 14.4564 39.9998C14.4581 39.9998 14.4599 39.9998 14.4616 39.9998C14.4634 39.9998 14.4651 39.9998 14.4669 39.9998C14.4686 39.9998 14.4704 39.9998 14.4721 39.9998C14.4739 39.9998 14.4756 39.9998 14.4773 39.9998C14.4791 39.9998 14.4808 39.9998 14.4825 39.9998C14.4843 39.9998 14.486 39.9998 14.4877 39.9998C14.4894 39.9998 14.4912 39.9998 14.4929 39.9998C14.4946 39.9998 14.4963 39.9998 14.498 39.9998C14.4997 39.9998 14.5015 39.9998 14.5032 39.9998C14.5049 39.9998 14.5066 39.9998 14.5083 39.9998C14.51 39.9998 14.5117 39.9998 14.5134 39.9998C14.5151 39.9998 14.5168 39.9998 14.5185 39.9998C14.5202 39.9998 14.5218 39.9998 14.5235 39.9998C14.5252 39.9998 14.5269 39.9998 14.5286 39.9998C14.5303 39.9998 14.5319 39.9998 14.5336 39.9998C14.5353 39.9998 14.537 39.9998 14.5386 39.9998C14.5403 39.9998 14.542 39.9998 14.5436 39.9998C14.5453 39.9998 14.547 39.9998 14.5486 39.9998C14.5503 39.9998 14.552 39.9998 14.5536 39.9998C14.5553 39.9998 14.5569 39.9998 14.5586 39.9998C14.5602 39.9998 14.5619 39.9998 14.5635 39.9998C14.5652 39.9998 14.5668 39.9998 14.5684 39.9998C14.5701 39.9998 14.5717 39.9998 14.5734 39.9998C14.575 39.9998 14.5766 39.9998 14.5783 39.9998C14.5799 39.9998 14.5815 39.9998 14.5831 39.9998C14.5848 39.9998 14.5864 39.9998 14.588 39.9998C14.5896 39.9998 14.5913 39.9998 14.5929 39.9998C14.5945 39.9998 14.5961 39.9998 14.5977 39.9998C14.5993 39.9998 14.6009 39.9998 14.6025 39.9998C14.6042 39.9998 14.6058 39.9998 14.6074 39.9998C14.609 39.9998 14.6106 39.9998 14.6122 39.9998C14.6138 39.9998 14.6154 39.9998 14.617 39.9998C14.6186 39.9998 14.6201 39.9998 14.6217 39.9998C14.6233 39.9998 14.6249 39.9998 14.6265 39.9998C14.6281 39.9998 14.6297 39.9998 14.6312 39.9998C14.6328 39.9998 14.6344 39.9998 14.636 39.9998C14.6376 39.9998 14.6391 39.9998 14.6407 39.9998C14.6423 39.9998 14.6439 39.9998 14.6454 39.9998C14.647 39.9998 14.6486 39.9998 14.6501 39.9998C14.6517 39.9998 14.6533 39.9998 14.6548 39.9998C14.6564 39.9998 14.6579 39.9998 14.6595 39.9998C14.661 39.9998 14.6626 39.9998 14.6642 39.9998C14.6657 39.9998 14.6673 39.9998 14.6688 39.9998C14.6704 39.9998 14.6719 39.9998 14.6735 39.9998C14.675 39.9998 14.6765 39.9998 14.6781 39.9998C14.6796 39.9998 14.6812 39.9998 14.6827 39.9998C14.6842 39.9998 14.6858 39.9998 14.6873 39.9998C14.6888 39.9998 14.6904 39.9998 14.6919 39.9998C14.6934 39.9998 14.695 39.9998 14.6965 39.9998C14.698 39.9998 14.6996 39.9998 14.7011 39.9998C14.7026 39.9998 14.7041 39.9998 14.7056 39.9998C14.7072 39.9998 14.7087 39.9998 14.7102 39.9998C14.7117 39.9998 14.7132 39.9998 14.7147 39.9998C14.7163 39.9998 14.7178 39.9998 14.7193 39.9998C14.7208 39.9998 14.7223 39.9998 14.7238 39.9998C14.7253 39.9998 14.7268 39.9998 14.7283 39.9998C14.7298 39.9998 14.7313 39.9998 14.7328 39.9998C14.7343 39.9998 14.7358 39.9998 14.7373 39.9998C14.7388 39.9998 14.7403 39.9998 14.7418 39.9998C14.7433 39.9998 14.7448 39.9998 14.7463 39.9998C14.7478 39.9998 14.7493 39.9998 14.7508 39.9998C14.7523 39.9998 14.7537 39.9998 14.7552 39.9998C14.7567 39.9998 14.7582 39.9998 14.7597 39.9998C14.7612 39.9998 14.7626 39.9998 14.7641 39.9998C14.7656 39.9998 14.7671 39.9998 14.7686 39.9998C14.77 39.9998 14.7715 39.9998 14.773 39.9998C14.7745 39.9998 14.7759 39.9998 14.7774 39.9998C14.7789 39.9998 14.7804 39.9998 14.7818 39.9998C14.7833 39.9998 14.7848 39.9998 14.7862 39.9998C14.7877 39.9998 14.7892 39.9998 14.7906 39.9998C14.7921 39.9998 14.7936 39.9998 14.795 39.9998C14.7965 39.9998 14.7979 39.9998 14.7994 39.9998C14.8009 39.9998 14.8023 39.9998 14.8038 39.9998C14.8052 39.9998 14.8067 39.9998 14.8081 39.9998C14.8096 39.9998 14.8111 39.9998 14.8125 39.9998C14.814 39.9998 14.8154 39.9998 14.8169 39.9998C14.8183 39.9998 14.8198 39.9998 14.8212 39.9998C14.8227 39.9998 14.8241 39.9998 14.8256 39.9998C14.827 39.9998 14.8284 39.9998 14.8299 39.9998C14.8313 39.9998 14.8328 39.9998 14.8342 39.9998C14.8357 39.9998 14.8371 39.9998 14.8385 39.9998C14.84 39.9998 14.8414 39.9998 14.8429 39.9998C14.8443 39.9998 14.8457 39.9998 14.8472 39.9998C14.8486 39.9998 14.85 39.9998 14.8515 39.9998C14.8529 39.9998 14.8544 39.9998 14.8558 39.9998C14.8572 39.9998 14.8586 39.9998 14.8601 39.9998C14.8615 39.9998 14.8629 39.9998 14.8644 39.9998C14.8658 39.9998 14.8672 39.9998 14.8687 39.9998C14.8701 39.9998 14.8715 39.9998 14.8729 39.9998C14.8744 39.9998 14.8758 39.9998 14.8772 39.9998C14.8786 39.9998 14.8801 39.9998 14.8815 39.9998C14.8829 39.9998 14.8843 39.9998 14.8858 39.9998C14.8872 39.9998 14.8886 39.9998 14.89 39.9998C14.8915 39.9998 14.8929 39.9998 14.8943 39.9998C14.8957 39.9998 14.8971 39.9998 14.8986 39.9998C14.9 39.9998 14.9014 39.9998 14.9028 39.9998C14.9042 39.9998 14.9056 39.9998 14.9071 39.9998C14.9085 39.9998 14.9099 39.9998 14.9113 39.9998C14.9127 39.9998 14.9141 39.9998 14.9155 39.9998C14.917 39.9998 14.9184 39.9998 14.9198 39.9998C14.9212 39.9998 14.9226 39.9998 14.924 39.9998C14.9254 39.9998 14.9269 39.9998 14.9283 39.9998C14.9297 39.9998 14.9311 39.9998 14.9325 39.9998C14.9339 39.9998 14.9353 39.9998 14.9367 39.9998C14.9381 39.9998 14.9395 39.9998 14.941 39.9998C14.9424 39.9998 14.9438 39.9998 14.9452 39.9998C14.9466 39.9998 14.948 39.9998 14.9494 39.9998C14.9508 39.9998 14.9522 39.9998 14.9536 39.9998C14.955 39.9998 14.9564 39.9998 14.9578 39.9998C14.9593 39.9998 14.9607 39.9998 14.9621 39.9998C14.9635 39.9998 14.9649 39.9998 14.9663 39.9998C14.9677 39.9998 14.9691 39.9998 14.9705 39.9998C14.9719 39.9998 14.9733 39.9998 14.9747 39.9998C14.9761 39.9998 14.9775 39.9998 14.9789 39.9998C14.9803 39.9998 14.9817 39.9998 14.9831 39.9998C14.9846 39.9998 14.986 39.9998 14.9874 39.9998C14.9888 39.9998 14.9902 39.9998 14.9916 39.9998C14.993 39.9998 14.9944 39.9998 14.9958 39.9998C14.9972 39.9998 14.9986 39.9998 15 39.9998C15.0014 39.9998 15.0028 39.9998 15.0042 39.9998C15.0056 39.9998 15.007 39.9998 15.0084 39.9998C15.0098 39.9998 15.0112 39.9998 15.0126 39.9998C15.014 39.9998 15.0154 39.9998 15.0169 39.9998C15.0183 39.9998 15.0197 39.9998 15.0211 39.9998C15.0225 39.9998 15.0239 39.9998 15.0253 39.9998C15.0267 39.9998 15.0281 39.9998 15.0295 39.9998C15.0309 39.9998 15.0323 39.9998 15.0337 39.9998C15.0351 39.9998 15.0365 39.9998 15.0379 39.9998C15.0393 39.9998 15.0407 39.9998 15.0422 39.9998C15.0436 39.9998 15.045 39.9998 15.0464 39.9998C15.0478 39.9998 15.0492 39.9998 15.0506 39.9998C15.052 39.9998 15.0534 39.9998 15.0548 39.9998C15.0562 39.9998 15.0576 39.9998 15.059 39.9998C15.0605 39.9998 15.0619 39.9998 15.0633 39.9998C15.0647 39.9998 15.0661 39.9998 15.0675 39.9998C15.0689 39.9998 15.0703 39.9998 15.0717 39.9998C15.0731 39.9998 15.0746 39.9998 15.076 39.9998C15.0774 39.9998 15.0788 39.9998 15.0802 39.9998C15.0816 39.9998 15.083 39.9998 15.0845 39.9998C15.0859 39.9998 15.0873 39.9998 15.0887 39.9998C15.0901 39.9998 15.0915 39.9998 15.0929 39.9998C15.0944 39.9998 15.0958 39.9998 15.0972 39.9998C15.0986 39.9998 15.1 39.9998 15.1014 39.9998C15.1029 39.9998 15.1043 39.9998 15.1057 39.9998C15.1071 39.9998 15.1085 39.9998 15.11 39.9998C15.1114 39.9998 15.1128 39.9998 15.1142 39.9998C15.1157 39.9998 15.1171 39.9998 15.1185 39.9998C15.1199 39.9998 15.1214 39.9998 15.1228 39.9998C15.1242 39.9998 15.1256 39.9998 15.1271 39.9998C15.1285 39.9998 15.1299 39.9998 15.1313 39.9998C15.1328 39.9998 15.1342 39.9998 15.1356 39.9998C15.1371 39.9998 15.1385 39.9998 15.1399 39.9998C15.1414 39.9998 15.1428 39.9998 15.1442 39.9998C15.1456 39.9998 15.1471 39.9998 15.1485 39.9998C15.15 39.9998 15.1514 39.9998 15.1528 39.9998C15.1543 39.9998 15.1557 39.9998 15.1571 39.9998C15.1586 39.9998 15.16 39.9998 15.1615 39.9998C15.1629 39.9998 15.1643 39.9998 15.1658 39.9998C15.1672 39.9998 15.1687 39.9998 15.1701 39.9998C15.1716 39.9998 15.173 39.9998 15.1744 39.9998C15.1759 39.9998 15.1773 39.9998 15.1788 39.9998C15.1802 39.9998 15.1817 39.9998 15.1831 39.9998C15.1846 39.9998 15.186 39.9998 15.1875 39.9998C15.1889 39.9998 15.1904 39.9998 15.1919 39.9998C15.1933 39.9998 15.1948 39.9998 15.1962 39.9998C15.1977 39.9998 15.1991 39.9998 15.2006 39.9998C15.2021 39.9998 15.2035 39.9998 15.205 39.9998C15.2064 39.9998 15.2079 39.9998 15.2094 39.9998C15.2108 39.9998 15.2123 39.9998 15.2138 39.9998C15.2152 39.9998 15.2167 39.9998 15.2182 39.9998C15.2196 39.9998 15.2211 39.9998 15.2226 39.9998C15.2241 39.9998 15.2255 39.9998 15.227 39.9998C15.2285 39.9998 15.23 39.9998 15.2314 39.9998C15.2329 39.9998 15.2344 39.9998 15.2359 39.9998C15.2374 39.9998 15.2388 39.9998 15.2403 39.9998C15.2418 39.9998 15.2433 39.9998 15.2448 39.9998C15.2463 39.9998 15.2477 39.9998 15.2492 39.9998C15.2507 39.9998 15.2522 39.9998 15.2537 39.9998C15.2552 39.9998 15.2567 39.9998 15.2582 39.9998C15.2597 39.9998 15.2612 39.9998 15.2627 39.9998C15.2642 39.9998 15.2657 39.9998 15.2672 39.9998C15.2687 39.9998 15.2702 39.9998 15.2717 39.9998C15.2732 39.9998 15.2747 39.9998 15.2762 39.9998C15.2777 39.9998 15.2792 39.9998 15.2807 39.9998C15.2822 39.9998 15.2837 39.9998 15.2853 39.9998C15.2868 39.9998 15.2883 39.9998 15.2898 39.9998C15.2913 39.9998 15.2928 39.9998 15.2944 39.9998C15.2959 39.9998 15.2974 39.9998 15.2989 39.9998C15.3004 39.9998 15.302 39.9998 15.3035 39.9998C15.305 39.9998 15.3066 39.9998 15.3081 39.9998C15.3096 39.9998 15.3112 39.9998 15.3127 39.9998C15.3142 39.9998 15.3158 39.9998 15.3173 39.9998C15.3188 39.9998 15.3204 39.9998 15.3219 39.9998C15.3235 39.9998 15.325 39.9998 15.3265 39.9998C15.3281 39.9998 15.3296 39.9998 15.3312 39.9998C15.3327 39.9998 15.3343 39.9998 15.3358 39.9998C15.3374 39.9998 15.339 39.9998 15.3405 39.9998C15.3421 39.9998 15.3436 39.9998 15.3452 39.9998C15.3467 39.9998 15.3483 39.9998 15.3499 39.9998C15.3514 39.9998 15.353 39.9998 15.3546 39.9998C15.3561 39.9998 15.3577 39.9998 15.3593 39.9998C15.3609 39.9998 15.3624 39.9998 15.364 39.9998C15.3656 39.9998 15.3672 39.9998 15.3688 39.9998C15.3703 39.9998 15.3719 39.9998 15.3735 39.9998C15.3751 39.9998 15.3767 39.9998 15.3783 39.9998C15.3799 39.9998 15.3814 39.9998 15.383 39.9998C15.3846 39.9998 15.3862 39.9998 15.3878 39.9998C15.3894 39.9998 15.391 39.9998 15.3926 39.9998C15.3942 39.9998 15.3958 39.9998 15.3975 39.9998C15.3991 39.9998 15.4007 39.9998 15.4023 39.9998C15.4039 39.9998 15.4055 39.9998 15.4071 39.9998C15.4087 39.9998 15.4104 39.9998 15.412 39.9998C15.4136 39.9998 15.4152 39.9998 15.4169 39.9998C15.4185 39.9998 15.4201 39.9998 15.4217 39.9998C15.4234 39.9998 15.425 39.9998 15.4266 39.9998C15.4283 39.9998 15.4299 39.9998 15.4316 39.9998C15.4332 39.9998 15.4348 39.9998 15.4365 39.9998C15.4381 39.9998 15.4398 39.9998 15.4414 39.9998C15.4431 39.9998 15.4447 39.9998 15.4464 39.9998C15.448 39.9998 15.4497 39.9998 15.4514 39.9998C15.453 39.9998 15.4547 39.9998 15.4564 39.9998C15.458 39.9998 15.4597 39.9998 15.4614 39.9998C15.463 39.9998 15.4647 39.9998 15.4664 39.9998C15.4681 39.9998 15.4697 39.9998 15.4714 39.9998C15.4731 39.9998 15.4748 39.9998 15.4765 39.9998C15.4782 39.9998 15.4798 39.9998 15.4815 39.9998C15.4832 39.9998 15.4849 39.9998 15.4866 39.9998C15.4883 39.9998 15.49 39.9998 15.4917 39.9998C15.4934 39.9998 15.4951 39.9998 15.4968 39.9998C15.4985 39.9998 15.5003 39.9998 15.502 39.9998C15.5037 39.9998 15.5054 39.9998 15.5071 39.9998C15.5088 39.9998 15.5106 39.9998 15.5123 39.9998C15.514 39.9998 15.5157 39.9998 15.5175 39.9998C15.5192 39.9998 15.5209 39.9998 15.5227 39.9998C15.5244 39.9998 15.5261 39.9998 15.5279 39.9998C15.5296 39.9998 15.5314 39.9998 15.5331 39.9998C15.5349 39.9998 15.5366 39.9998 15.5384 39.9998C15.5401 39.9998 15.5419 39.9998 15.5436 39.9998C15.5454 39.9998 15.5472 39.9998 15.5489 39.9998C15.5507 39.9998 15.5525 39.9998 15.5542 39.9998C15.556 39.9998 15.5578 39.9998 15.5596 39.9998C15.5613 39.9998 15.5631 39.9998 15.5649 39.9998C15.5667 39.9998 15.5685 39.9998 15.5703 39.9998C15.5721 39.9998 15.5739 39.9998 15.5757 39.9998C15.5775 39.9998 15.5792 39.9998 15.5811 39.9998C15.5829 39.9998 15.5847 39.9998 15.5865 39.9998C15.5883 39.9998 15.5901 39.9998 15.5919 39.9998C15.5937 39.9998 15.5955 39.9998 15.5974 39.9998C15.5992 39.9998 15.601 39.9998 15.6028 39.9998C15.6047 39.9998 15.6065 39.9998 15.6083 39.9998C15.6102 39.9998 15.612 39.9998 15.6139 39.9998C15.6157 39.9998 15.6175 39.9998 15.6194 39.9998C15.6212 39.9998 15.6231 39.9998 15.6249 39.9998C15.6268 39.9998 15.6287 39.9998 15.6305 39.9998C15.6324 39.9998 15.6343 39.9998 15.6361 39.9998C15.638 39.9998 15.6399 39.9998 15.6417 39.9998C15.6436 39.9998 15.6455 39.9998 15.6474 39.9998C15.6493 39.9998 15.6511 39.9998 15.653 39.9998C15.6549 39.9998 15.6568 39.9998 15.6587 39.9998C15.6606 39.9998 15.6625 39.9998 15.6644 39.9998C15.6663 39.9998 15.6682 39.9998 15.6701 39.9998C15.672 39.9998 15.674 39.9998 15.6759 39.9998C15.6778 39.9998 15.6797 39.9998 15.6816 39.9998C15.6836 39.9998 15.6855 39.9998 15.6874 39.9998C15.6894 39.9998 15.6913 39.9998 15.6932 39.9998C15.6952 39.9998 15.6971 39.9998 15.6991 39.9998C15.701 39.9998 15.703 39.9998 15.7049 39.9998C15.7069 39.9998 15.7088 39.9998 15.7108 39.9998C15.7128 39.9998 15.7147 39.9998 15.7167 39.9998C15.7187 39.9998 15.7206 39.9998 15.7226 39.9998C15.7246 39.9998 15.7266 39.9998 15.7286 39.9998C15.7305 39.9998 15.7325 39.9998 15.7345 39.9998C15.7365 39.9998 15.7385 39.9998 15.7405 39.9998C15.7425 39.9998 15.7445 39.9998 15.7465 39.9998C15.7485 39.9998 15.7505 39.9998 15.7526 39.9998C15.7546 39.9998 15.7566 39.9998 15.7586 39.9998C15.7606 39.9998 15.7627 39.9998 15.7647 39.9998C15.7667 39.9998 15.7688 39.9998 15.7708 39.9998C15.7728 39.9998 15.7749 39.9998 15.7769 39.9998C15.779 39.9998 15.781 39.9998 15.7831 39.9998C15.7852 39.9998 15.7872 39.9998 15.7893 39.9998C15.7913 39.9998 15.7934 39.9998 15.7955 39.9998C15.7975 39.9998 15.7996 39.9998 15.8017 39.9998C15.8038 39.9998 15.8059 39.9998 15.808 39.9998C15.81 39.9998 15.8121 39.9998 15.8142 39.9998C15.8163 39.9998 15.8184 39.9998 15.8205 39.9998C15.8226 39.9998 15.8248 39.9998 15.8269 39.9998C15.829 39.9998 15.8311 39.9998 15.8332 39.9998C15.8353 39.9998 15.8375 39.9998 15.8396 39.9998C15.8417 39.9998 15.8439 39.9998 15.846 39.9998C15.8481 39.9998 15.8503 39.9998 15.8524 39.9998C15.8546 39.9998 15.8567 39.9998 15.8589 39.9998C15.861 39.9998 15.8632 39.9998 15.8654 39.9998C15.8675 39.9998 15.8697 39.9998 15.8719 39.9998C15.874 39.9998 15.8762 39.9998 15.8784 39.9998C15.8806 39.9998 15.8828 39.9998 15.885 39.9998C15.8872 39.9998 15.8894 39.9998 15.8916 39.9998C15.8938 39.9998 15.896 39.9998 15.8982 39.9998C15.9004 39.9998 15.9026 39.9998 15.9048 39.9998C15.907 39.9998 15.9093 39.9998 15.9115 39.9998C15.9137 39.9998 15.9159 39.9998 15.9182 39.9998C15.9204 39.9998 15.9227 39.9998 15.9249 39.9998C15.9271 39.9998 15.9294 39.9998 15.9317 39.9998C15.9339 39.9998 15.9362 39.9998 15.9384 39.9998C15.9407 39.9998 15.943 39.9998 15.9452 39.9998C15.9475 39.9998 15.9498 39.9998 15.9521 39.9998C15.9544 39.9998 15.9566 39.9998 15.9589 39.9998C15.9612 39.9998 15.9635 39.9998 15.9658 39.9998C15.9681 39.9998 15.9704 39.9998 15.9727 39.9998C15.9751 39.9998 15.9774 39.9998 15.9797 39.9998C15.982 39.9998 15.9843 39.9998 15.9867 39.9998C15.989 39.9998 15.9913 39.9998 15.9937 39.9998C15.996 39.9998 15.9984 39.9998 16.0007 39.9998C16.0031 39.9998 16.0054 39.9998 16.0078 39.9998C16.0101 39.9998 16.0125 39.9998 16.0149 39.9998C16.0172 39.9998 16.0196 39.9998 16.022 39.9998C16.0244 39.9998 16.0268 39.9998 16.0291 39.9998C16.0315 39.9998 16.0339 39.9998 16.0363 39.9998C16.0387 39.9998 16.0411 39.9998 16.0435 39.9998C16.046 39.9998 16.0484 39.9998 16.0508 39.9998C16.0532 39.9998 16.0556 39.9998 16.0581 39.9998C16.0605 39.9998 16.0629 39.9998 16.0654 39.9998C16.0678 39.9998 16.0702 39.9998 16.0727 39.9998C16.0751 39.9998 16.0776 39.9998 16.0801 39.9998C16.0825 39.9998 16.085 39.9998 16.0875 39.9998C16.0899 39.9998 16.0924 39.9998 16.0949 39.9998C16.0974 39.9998 16.0999 39.9998 16.1023 39.9998C16.1048 39.9998 16.1073 39.9998 16.1098 39.9998C16.1123 39.9998 16.1148 39.9998 16.1174 39.9998C16.1199 39.9998 16.1224 39.9998 16.1249 39.9998C16.1274 39.9998 16.13 39.9998 16.1325 39.9998C16.135 39.9998 16.1376 39.9998 16.1401 39.9998C16.1427 39.9998 16.1452 39.9998 16.1478 39.9998C16.1503 39.9998 16.1529 39.9998 16.1554 39.9998C16.158 39.9998 16.1606 39.9998 16.1632 39.9998C16.1657 39.9998 16.1683 39.9998 16.1709 39.9998C16.1735 39.9998 16.1761 39.9998 16.1787 39.9998C16.1813 39.9998 16.1839 39.9998 16.1865 39.9998C16.1891 39.9998 16.1917 39.9998 16.1943 39.9998C16.197 39.9998 16.1996 39.9998 16.2022 39.9998C16.2048 39.9998 16.2075 39.9998 16.2101 39.9998C16.2128 39.9998 16.2154 39.9998 16.2181 39.9998C16.2207 39.9998 16.2234 39.9998 16.226 39.9998C16.2287 39.9998 16.2314 39.9998 16.2341 39.9998C16.2367 39.9998 16.2394 39.9998 16.2421 39.9998C16.2448 39.9998 16.2475 39.9998 16.2502 39.9998C16.2529 39.9998 16.2556 39.9998 16.2583 39.9998C16.261 39.9998 16.2637 39.9998 16.2664 39.9998C16.2692 39.9998 16.2719 39.9998 16.2746 39.9998C16.2774 39.9998 16.2801 39.9998 16.2828 39.9998C16.2856 39.9998 16.2883 39.9998 16.2911 39.9998C16.2939 39.9998 16.2966 39.9998 16.2994 39.9998C16.3022 39.9998 16.3049 39.9998 16.3077 39.9998C16.3105 39.9998 16.3133 39.9998 16.3161 39.9998C16.3189 39.9998 16.3217 39.9998 16.3245 39.9998C16.3273 39.9998 16.3301 39.9998 16.3329 39.9998C16.3357 39.9998 16.3385 39.9998 16.3414 39.9998C16.3442 39.9998 16.347 39.9998 16.3499 39.9998C16.3527 39.9998 16.3555 39.9998 16.3584 39.9998C16.3612 39.9998 16.3641 39.9998 16.367 39.9998C16.3698 39.9998 16.3727 39.9998 16.3756 39.9998C16.3784 39.9998 16.3813 39.9998 16.3842 39.9998C16.3871 39.9998 16.39 39.9998 16.3929 39.9998C16.3958 39.9998 16.3987 39.9998 16.4016 39.9998C16.4045 39.9998 16.4075 39.9998 16.4104 39.9998C16.4133 39.9998 16.4162 39.9998 16.4192 39.9998C16.4221 39.9998 16.425 39.9998 16.428 39.9998C16.4309 39.9998 16.4339 39.9998 16.4369 39.9998C16.4398 39.9998 16.4428 39.9998 16.4458 39.9998C16.4487 39.9998 16.4517 39.9998 16.4547 39.9998C16.4577 39.9998 16.4607 39.9998 16.4637 39.9998C16.4667 39.9998 16.4697 39.9998 16.4727 39.9998C16.4757 39.9998 16.4787 39.9998 16.4818 39.9998C16.4848 39.9998 16.4878 39.9998 16.4909 39.9998C16.4939 39.9998 16.4969 39.9998 16.5 39.9998V38.9998C16.4969 38.9998 16.4939 38.9998 16.4909 38.9998C16.4878 38.9998 16.4848 38.9998 16.4818 38.9998C16.4787 38.9998 16.4757 38.9998 16.4727 38.9998C16.4697 38.9998 16.4667 38.9998 16.4637 38.9998C16.4607 38.9998 16.4577 38.9998 16.4547 38.9998C16.4517 38.9998 16.4487 38.9998 16.4458 38.9998C16.4428 38.9998 16.4398 38.9998 16.4369 38.9998C16.4339 38.9998 16.4309 38.9998 16.428 38.9998C16.425 38.9998 16.4221 38.9998 16.4192 38.9998C16.4162 38.9998 16.4133 38.9998 16.4104 38.9998C16.4075 38.9998 16.4045 38.9998 16.4016 38.9998C16.3987 38.9998 16.3958 38.9998 16.3929 38.9998C16.39 38.9998 16.3871 38.9998 16.3842 38.9998C16.3813 38.9998 16.3784 38.9998 16.3756 38.9998C16.3727 38.9998 16.3698 38.9998 16.367 38.9998C16.3641 38.9998 16.3612 38.9998 16.3584 38.9998C16.3555 38.9998 16.3527 38.9998 16.3499 38.9998C16.347 38.9998 16.3442 38.9998 16.3414 38.9998C16.3385 38.9998 16.3357 38.9998 16.3329 38.9998C16.3301 38.9998 16.3273 38.9998 16.3245 38.9998C16.3217 38.9998 16.3189 38.9998 16.3161 38.9998C16.3133 38.9998 16.3105 38.9998 16.3077 38.9998C16.3049 38.9998 16.3022 38.9998 16.2994 38.9998C16.2966 38.9998 16.2939 38.9998 16.2911 38.9998C16.2883 38.9998 16.2856 38.9998 16.2828 38.9998C16.2801 38.9998 16.2774 38.9998 16.2746 38.9998C16.2719 38.9998 16.2692 38.9998 16.2664 38.9998C16.2637 38.9998 16.261 38.9998 16.2583 38.9998C16.2556 38.9998 16.2529 38.9998 16.2502 38.9998C16.2475 38.9998 16.2448 38.9998 16.2421 38.9998C16.2394 38.9998 16.2367 38.9998 16.2341 38.9998C16.2314 38.9998 16.2287 38.9998 16.226 38.9998C16.2234 38.9998 16.2207 38.9998 16.2181 38.9998C16.2154 38.9998 16.2128 38.9998 16.2101 38.9998C16.2075 38.9998 16.2048 38.9998 16.2022 38.9998C16.1996 38.9998 16.197 38.9998 16.1943 38.9998C16.1917 38.9998 16.1891 38.9998 16.1865 38.9998C16.1839 38.9998 16.1813 38.9998 16.1787 38.9998C16.1761 38.9998 16.1735 38.9998 16.1709 38.9998C16.1683 38.9998 16.1657 38.9998 16.1632 38.9998C16.1606 38.9998 16.158 38.9998 16.1554 38.9998C16.1529 38.9998 16.1503 38.9998 16.1478 38.9998C16.1452 38.9998 16.1427 38.9998 16.1401 38.9998C16.1376 38.9998 16.135 38.9998 16.1325 38.9998C16.13 38.9998 16.1274 38.9998 16.1249 38.9998C16.1224 38.9998 16.1199 38.9998 16.1174 38.9998C16.1148 38.9998 16.1123 38.9998 16.1098 38.9998C16.1073 38.9998 16.1048 38.9998 16.1023 38.9998C16.0999 38.9998 16.0974 38.9998 16.0949 38.9998C16.0924 38.9998 16.0899 38.9998 16.0875 38.9998C16.085 38.9998 16.0825 38.9998 16.0801 38.9998C16.0776 38.9998 16.0751 38.9998 16.0727 38.9998C16.0702 38.9998 16.0678 38.9998 16.0654 38.9998C16.0629 38.9998 16.0605 38.9998 16.0581 38.9998C16.0556 38.9998 16.0532 38.9998 16.0508 38.9998C16.0484 38.9998 16.046 38.9998 16.0435 38.9998C16.0411 38.9998 16.0387 38.9998 16.0363 38.9998C16.0339 38.9998 16.0315 38.9998 16.0291 38.9998C16.0268 38.9998 16.0244 38.9998 16.022 38.9998C16.0196 38.9998 16.0172 38.9998 16.0149 38.9998C16.0125 38.9998 16.0101 38.9998 16.0078 38.9998C16.0054 38.9998 16.0031 38.9998 16.0007 38.9998C15.9984 38.9998 15.996 38.9998 15.9937 38.9998C15.9913 38.9998 15.989 38.9998 15.9867 38.9998C15.9843 38.9998 15.982 38.9998 15.9797 38.9998C15.9774 38.9998 15.9751 38.9998 15.9727 38.9998C15.9704 38.9998 15.9681 38.9998 15.9658 38.9998C15.9635 38.9998 15.9612 38.9998 15.9589 38.9998C15.9566 38.9998 15.9544 38.9998 15.9521 38.9998C15.9498 38.9998 15.9475 38.9998 15.9452 38.9998C15.943 38.9998 15.9407 38.9998 15.9384 38.9998C15.9362 38.9998 15.9339 38.9998 15.9317 38.9998C15.9294 38.9998 15.9271 38.9998 15.9249 38.9998C15.9227 38.9998 15.9204 38.9998 15.9182 38.9998C15.9159 38.9998 15.9137 38.9998 15.9115 38.9998C15.9093 38.9998 15.907 38.9998 15.9048 38.9998C15.9026 38.9998 15.9004 38.9998 15.8982 38.9998C15.896 38.9998 15.8938 38.9998 15.8916 38.9998C15.8894 38.9998 15.8872 38.9998 15.885 38.9998C15.8828 38.9998 15.8806 38.9998 15.8784 38.9998C15.8762 38.9998 15.874 38.9998 15.8719 38.9998C15.8697 38.9998 15.8675 38.9998 15.8654 38.9998C15.8632 38.9998 15.861 38.9998 15.8589 38.9998C15.8567 38.9998 15.8546 38.9998 15.8524 38.9998C15.8503 38.9998 15.8481 38.9998 15.846 38.9998C15.8439 38.9998 15.8417 38.9998 15.8396 38.9998C15.8375 38.9998 15.8353 38.9998 15.8332 38.9998C15.8311 38.9998 15.829 38.9998 15.8269 38.9998C15.8248 38.9998 15.8226 38.9998 15.8205 38.9998C15.8184 38.9998 15.8163 38.9998 15.8142 38.9998C15.8121 38.9998 15.81 38.9998 15.808 38.9998C15.8059 38.9998 15.8038 38.9998 15.8017 38.9998C15.7996 38.9998 15.7975 38.9998 15.7955 38.9998C15.7934 38.9998 15.7913 38.9998 15.7893 38.9998C15.7872 38.9998 15.7852 38.9998 15.7831 38.9998C15.781 38.9998 15.779 38.9998 15.7769 38.9998C15.7749 38.9998 15.7728 38.9998 15.7708 38.9998C15.7688 38.9998 15.7667 38.9998 15.7647 38.9998C15.7627 38.9998 15.7606 38.9998 15.7586 38.9998C15.7566 38.9998 15.7546 38.9998 15.7526 38.9998C15.7505 38.9998 15.7485 38.9998 15.7465 38.9998C15.7445 38.9998 15.7425 38.9998 15.7405 38.9998C15.7385 38.9998 15.7365 38.9998 15.7345 38.9998C15.7325 38.9998 15.7305 38.9998 15.7286 38.9998C15.7266 38.9998 15.7246 38.9998 15.7226 38.9998C15.7206 38.9998 15.7187 38.9998 15.7167 38.9998C15.7147 38.9998 15.7128 38.9998 15.7108 38.9998C15.7088 38.9998 15.7069 38.9998 15.7049 38.9998C15.703 38.9998 15.701 38.9998 15.6991 38.9998C15.6971 38.9998 15.6952 38.9998 15.6932 38.9998C15.6913 38.9998 15.6894 38.9998 15.6874 38.9998C15.6855 38.9998 15.6836 38.9998 15.6816 38.9998C15.6797 38.9998 15.6778 38.9998 15.6759 38.9998C15.674 38.9998 15.672 38.9998 15.6701 38.9998C15.6682 38.9998 15.6663 38.9998 15.6644 38.9998C15.6625 38.9998 15.6606 38.9998 15.6587 38.9998C15.6568 38.9998 15.6549 38.9998 15.653 38.9998C15.6511 38.9998 15.6493 38.9998 15.6474 38.9998C15.6455 38.9998 15.6436 38.9998 15.6417 38.9998C15.6399 38.9998 15.638 38.9998 15.6361 38.9998C15.6343 38.9998 15.6324 38.9998 15.6305 38.9998C15.6287 38.9998 15.6268 38.9998 15.6249 38.9998C15.6231 38.9998 15.6212 38.9998 15.6194 38.9998C15.6175 38.9998 15.6157 38.9998 15.6139 38.9998C15.612 38.9998 15.6102 38.9998 15.6083 38.9998C15.6065 38.9998 15.6047 38.9998 15.6028 38.9998C15.601 38.9998 15.5992 38.9998 15.5974 38.9998C15.5955 38.9998 15.5937 38.9998 15.5919 38.9998C15.5901 38.9998 15.5883 38.9998 15.5865 38.9998C15.5847 38.9998 15.5829 38.9998 15.5811 38.9998C15.5792 38.9998 15.5775 38.9998 15.5757 38.9998C15.5739 38.9998 15.5721 38.9998 15.5703 38.9998C15.5685 38.9998 15.5667 38.9998 15.5649 38.9998C15.5631 38.9998 15.5613 38.9998 15.5596 38.9998C15.5578 38.9998 15.556 38.9998 15.5542 38.9998C15.5525 38.9998 15.5507 38.9998 15.5489 38.9998C15.5472 38.9998 15.5454 38.9998 15.5436 38.9998C15.5419 38.9998 15.5401 38.9998 15.5384 38.9998C15.5366 38.9998 15.5349 38.9998 15.5331 38.9998C15.5314 38.9998 15.5296 38.9998 15.5279 38.9998C15.5261 38.9998 15.5244 38.9998 15.5227 38.9998C15.5209 38.9998 15.5192 38.9998 15.5175 38.9998C15.5157 38.9998 15.514 38.9998 15.5123 38.9998C15.5106 38.9998 15.5088 38.9998 15.5071 38.9998C15.5054 38.9998 15.5037 38.9998 15.502 38.9998C15.5003 38.9998 15.4985 38.9998 15.4968 38.9998C15.4951 38.9998 15.4934 38.9998 15.4917 38.9998C15.49 38.9998 15.4883 38.9998 15.4866 38.9998C15.4849 38.9998 15.4832 38.9998 15.4815 38.9998C15.4798 38.9998 15.4782 38.9998 15.4765 38.9998C15.4748 38.9998 15.4731 38.9998 15.4714 38.9998C15.4697 38.9998 15.4681 38.9998 15.4664 38.9998C15.4647 38.9998 15.463 38.9998 15.4614 38.9998C15.4597 38.9998 15.458 38.9998 15.4564 38.9998C15.4547 38.9998 15.453 38.9998 15.4514 38.9998C15.4497 38.9998 15.448 38.9998 15.4464 38.9998C15.4447 38.9998 15.4431 38.9998 15.4414 38.9998C15.4398 38.9998 15.4381 38.9998 15.4365 38.9998C15.4348 38.9998 15.4332 38.9998 15.4316 38.9998C15.4299 38.9998 15.4283 38.9998 15.4266 38.9998C15.425 38.9998 15.4234 38.9998 15.4217 38.9998C15.4201 38.9998 15.4185 38.9998 15.4169 38.9998C15.4152 38.9998 15.4136 38.9998 15.412 38.9998C15.4104 38.9998 15.4087 38.9998 15.4071 38.9998C15.4055 38.9998 15.4039 38.9998 15.4023 38.9998C15.4007 38.9998 15.3991 38.9998 15.3975 38.9998C15.3958 38.9998 15.3942 38.9998 15.3926 38.9998C15.391 38.9998 15.3894 38.9998 15.3878 38.9998C15.3862 38.9998 15.3846 38.9998 15.383 38.9998C15.3814 38.9998 15.3799 38.9998 15.3783 38.9998C15.3767 38.9998 15.3751 38.9998 15.3735 38.9998C15.3719 38.9998 15.3703 38.9998 15.3688 38.9998C15.3672 38.9998 15.3656 38.9998 15.364 38.9998C15.3624 38.9998 15.3609 38.9998 15.3593 38.9998C15.3577 38.9998 15.3561 38.9998 15.3546 38.9998C15.353 38.9998 15.3514 38.9998 15.3499 38.9998C15.3483 38.9998 15.3467 38.9998 15.3452 38.9998C15.3436 38.9998 15.3421 38.9998 15.3405 38.9998C15.339 38.9998 15.3374 38.9998 15.3358 38.9998C15.3343 38.9998 15.3327 38.9998 15.3312 38.9998C15.3296 38.9998 15.3281 38.9998 15.3265 38.9998C15.325 38.9998 15.3235 38.9998 15.3219 38.9998C15.3204 38.9998 15.3188 38.9998 15.3173 38.9998C15.3158 38.9998 15.3142 38.9998 15.3127 38.9998C15.3112 38.9998 15.3096 38.9998 15.3081 38.9998C15.3066 38.9998 15.305 38.9998 15.3035 38.9998C15.302 38.9998 15.3004 38.9998 15.2989 38.9998C15.2974 38.9998 15.2959 38.9998 15.2944 38.9998C15.2928 38.9998 15.2913 38.9998 15.2898 38.9998C15.2883 38.9998 15.2868 38.9998 15.2853 38.9998C15.2837 38.9998 15.2822 38.9998 15.2807 38.9998C15.2792 38.9998 15.2777 38.9998 15.2762 38.9998C15.2747 38.9998 15.2732 38.9998 15.2717 38.9998C15.2702 38.9998 15.2687 38.9998 15.2672 38.9998C15.2657 38.9998 15.2642 38.9998 15.2627 38.9998C15.2612 38.9998 15.2597 38.9998 15.2582 38.9998C15.2567 38.9998 15.2552 38.9998 15.2537 38.9998C15.2522 38.9998 15.2507 38.9998 15.2492 38.9998C15.2477 38.9998 15.2463 38.9998 15.2448 38.9998C15.2433 38.9998 15.2418 38.9998 15.2403 38.9998C15.2388 38.9998 15.2374 38.9998 15.2359 38.9998C15.2344 38.9998 15.2329 38.9998 15.2314 38.9998C15.23 38.9998 15.2285 38.9998 15.227 38.9998C15.2255 38.9998 15.2241 38.9998 15.2226 38.9998C15.2211 38.9998 15.2196 38.9998 15.2182 38.9998C15.2167 38.9998 15.2152 38.9998 15.2138 38.9998C15.2123 38.9998 15.2108 38.9998 15.2094 38.9998C15.2079 38.9998 15.2064 38.9998 15.205 38.9998C15.2035 38.9998 15.2021 38.9998 15.2006 38.9998C15.1991 38.9998 15.1977 38.9998 15.1962 38.9998C15.1948 38.9998 15.1933 38.9998 15.1919 38.9998C15.1904 38.9998 15.1889 38.9998 15.1875 38.9998C15.186 38.9998 15.1846 38.9998 15.1831 38.9998C15.1817 38.9998 15.1802 38.9998 15.1788 38.9998C15.1773 38.9998 15.1759 38.9998 15.1744 38.9998C15.173 38.9998 15.1716 38.9998 15.1701 38.9998C15.1687 38.9998 15.1672 38.9998 15.1658 38.9998C15.1643 38.9998 15.1629 38.9998 15.1615 38.9998C15.16 38.9998 15.1586 38.9998 15.1571 38.9998C15.1557 38.9998 15.1543 38.9998 15.1528 38.9998C15.1514 38.9998 15.15 38.9998 15.1485 38.9998C15.1471 38.9998 15.1456 38.9998 15.1442 38.9998C15.1428 38.9998 15.1414 38.9998 15.1399 38.9998C15.1385 38.9998 15.1371 38.9998 15.1356 38.9998C15.1342 38.9998 15.1328 38.9998 15.1313 38.9998C15.1299 38.9998 15.1285 38.9998 15.1271 38.9998C15.1256 38.9998 15.1242 38.9998 15.1228 38.9998C15.1214 38.9998 15.1199 38.9998 15.1185 38.9998C15.1171 38.9998 15.1157 38.9998 15.1142 38.9998C15.1128 38.9998 15.1114 38.9998 15.11 38.9998C15.1085 38.9998 15.1071 38.9998 15.1057 38.9998C15.1043 38.9998 15.1029 38.9998 15.1014 38.9998C15.1 38.9998 15.0986 38.9998 15.0972 38.9998C15.0958 38.9998 15.0944 38.9998 15.0929 38.9998C15.0915 38.9998 15.0901 38.9998 15.0887 38.9998C15.0873 38.9998 15.0859 38.9998 15.0845 38.9998C15.083 38.9998 15.0816 38.9998 15.0802 38.9998C15.0788 38.9998 15.0774 38.9998 15.076 38.9998C15.0746 38.9998 15.0731 38.9998 15.0717 38.9998C15.0703 38.9998 15.0689 38.9998 15.0675 38.9998C15.0661 38.9998 15.0647 38.9998 15.0633 38.9998C15.0619 38.9998 15.0605 38.9998 15.059 38.9998C15.0576 38.9998 15.0562 38.9998 15.0548 38.9998C15.0534 38.9998 15.052 38.9998 15.0506 38.9998C15.0492 38.9998 15.0478 38.9998 15.0464 38.9998C15.045 38.9998 15.0436 38.9998 15.0422 38.9998C15.0407 38.9998 15.0393 38.9998 15.0379 38.9998C15.0365 38.9998 15.0351 38.9998 15.0337 38.9998C15.0323 38.9998 15.0309 38.9998 15.0295 38.9998C15.0281 38.9998 15.0267 38.9998 15.0253 38.9998C15.0239 38.9998 15.0225 38.9998 15.0211 38.9998C15.0197 38.9998 15.0183 38.9998 15.0169 38.9998C15.0154 38.9998 15.014 38.9998 15.0126 38.9998C15.0112 38.9998 15.0098 38.9998 15.0084 38.9998C15.007 38.9998 15.0056 38.9998 15.0042 38.9998C15.0028 38.9998 15.0014 38.9998 15 38.9998C14.9986 38.9998 14.9972 38.9998 14.9958 38.9998C14.9944 38.9998 14.993 38.9998 14.9916 38.9998C14.9902 38.9998 14.9888 38.9998 14.9874 38.9998C14.986 38.9998 14.9846 38.9998 14.9831 38.9998C14.9817 38.9998 14.9803 38.9998 14.9789 38.9998C14.9775 38.9998 14.9761 38.9998 14.9747 38.9998C14.9733 38.9998 14.9719 38.9998 14.9705 38.9998C14.9691 38.9998 14.9677 38.9998 14.9663 38.9998C14.9649 38.9998 14.9635 38.9998 14.9621 38.9998C14.9607 38.9998 14.9593 38.9998 14.9578 38.9998C14.9564 38.9998 14.955 38.9998 14.9536 38.9998C14.9522 38.9998 14.9508 38.9998 14.9494 38.9998C14.948 38.9998 14.9466 38.9998 14.9452 38.9998C14.9438 38.9998 14.9424 38.9998 14.941 38.9998C14.9395 38.9998 14.9381 38.9998 14.9367 38.9998C14.9353 38.9998 14.9339 38.9998 14.9325 38.9998C14.9311 38.9998 14.9297 38.9998 14.9283 38.9998C14.9269 38.9998 14.9254 38.9998 14.924 38.9998C14.9226 38.9998 14.9212 38.9998 14.9198 38.9998C14.9184 38.9998 14.917 38.9998 14.9155 38.9998C14.9141 38.9998 14.9127 38.9998 14.9113 38.9998C14.9099 38.9998 14.9085 38.9998 14.9071 38.9998C14.9056 38.9998 14.9042 38.9998 14.9028 38.9998C14.9014 38.9998 14.9 38.9998 14.8986 38.9998C14.8971 38.9998 14.8957 38.9998 14.8943 38.9998C14.8929 38.9998 14.8915 38.9998 14.89 38.9998C14.8886 38.9998 14.8872 38.9998 14.8858 38.9998C14.8843 38.9998 14.8829 38.9998 14.8815 38.9998C14.8801 38.9998 14.8786 38.9998 14.8772 38.9998C14.8758 38.9998 14.8744 38.9998 14.8729 38.9998C14.8715 38.9998 14.8701 38.9998 14.8687 38.9998C14.8672 38.9998 14.8658 38.9998 14.8644 38.9998C14.8629 38.9998 14.8615 38.9998 14.8601 38.9998C14.8586 38.9998 14.8572 38.9998 14.8558 38.9998C14.8544 38.9998 14.8529 38.9998 14.8515 38.9998C14.85 38.9998 14.8486 38.9998 14.8472 38.9998C14.8457 38.9998 14.8443 38.9998 14.8429 38.9998C14.8414 38.9998 14.84 38.9998 14.8385 38.9998C14.8371 38.9998 14.8357 38.9998 14.8342 38.9998C14.8328 38.9998 14.8313 38.9998 14.8299 38.9998C14.8284 38.9998 14.827 38.9998 14.8256 38.9998C14.8241 38.9998 14.8227 38.9998 14.8212 38.9998C14.8198 38.9998 14.8183 38.9998 14.8169 38.9998C14.8154 38.9998 14.814 38.9998 14.8125 38.9998C14.8111 38.9998 14.8096 38.9998 14.8081 38.9998C14.8067 38.9998 14.8052 38.9998 14.8038 38.9998C14.8023 38.9998 14.8009 38.9998 14.7994 38.9998C14.7979 38.9998 14.7965 38.9998 14.795 38.9998C14.7936 38.9998 14.7921 38.9998 14.7906 38.9998C14.7892 38.9998 14.7877 38.9998 14.7862 38.9998C14.7848 38.9998 14.7833 38.9998 14.7818 38.9998C14.7804 38.9998 14.7789 38.9998 14.7774 38.9998C14.7759 38.9998 14.7745 38.9998 14.773 38.9998C14.7715 38.9998 14.77 38.9998 14.7686 38.9998C14.7671 38.9998 14.7656 38.9998 14.7641 38.9998C14.7626 38.9998 14.7612 38.9998 14.7597 38.9998C14.7582 38.9998 14.7567 38.9998 14.7552 38.9998C14.7537 38.9998 14.7523 38.9998 14.7508 38.9998C14.7493 38.9998 14.7478 38.9998 14.7463 38.9998C14.7448 38.9998 14.7433 38.9998 14.7418 38.9998C14.7403 38.9998 14.7388 38.9998 14.7373 38.9998C14.7358 38.9998 14.7343 38.9998 14.7328 38.9998C14.7313 38.9998 14.7298 38.9998 14.7283 38.9998C14.7268 38.9998 14.7253 38.9998 14.7238 38.9998C14.7223 38.9998 14.7208 38.9998 14.7193 38.9998C14.7178 38.9998 14.7163 38.9998 14.7147 38.9998C14.7132 38.9998 14.7117 38.9998 14.7102 38.9998C14.7087 38.9998 14.7072 38.9998 14.7056 38.9998C14.7041 38.9998 14.7026 38.9998 14.7011 38.9998C14.6996 38.9998 14.698 38.9998 14.6965 38.9998C14.695 38.9998 14.6934 38.9998 14.6919 38.9998C14.6904 38.9998 14.6888 38.9998 14.6873 38.9998C14.6858 38.9998 14.6842 38.9998 14.6827 38.9998C14.6812 38.9998 14.6796 38.9998 14.6781 38.9998C14.6765 38.9998 14.675 38.9998 14.6735 38.9998C14.6719 38.9998 14.6704 38.9998 14.6688 38.9998C14.6673 38.9998 14.6657 38.9998 14.6642 38.9998C14.6626 38.9998 14.661 38.9998 14.6595 38.9998C14.6579 38.9998 14.6564 38.9998 14.6548 38.9998C14.6533 38.9998 14.6517 38.9998 14.6501 38.9998C14.6486 38.9998 14.647 38.9998 14.6454 38.9998C14.6439 38.9998 14.6423 38.9998 14.6407 38.9998C14.6391 38.9998 14.6376 38.9998 14.636 38.9998C14.6344 38.9998 14.6328 38.9998 14.6312 38.9998C14.6297 38.9998 14.6281 38.9998 14.6265 38.9998C14.6249 38.9998 14.6233 38.9998 14.6217 38.9998C14.6201 38.9998 14.6186 38.9998 14.617 38.9998C14.6154 38.9998 14.6138 38.9998 14.6122 38.9998C14.6106 38.9998 14.609 38.9998 14.6074 38.9998C14.6058 38.9998 14.6042 38.9998 14.6025 38.9998C14.6009 38.9998 14.5993 38.9998 14.5977 38.9998C14.5961 38.9998 14.5945 38.9998 14.5929 38.9998C14.5913 38.9998 14.5896 38.9998 14.588 38.9998C14.5864 38.9998 14.5848 38.9998 14.5831 38.9998C14.5815 38.9998 14.5799 38.9998 14.5783 38.9998C14.5766 38.9998 14.575 38.9998 14.5734 38.9998C14.5717 38.9998 14.5701 38.9998 14.5684 38.9998C14.5668 38.9998 14.5652 38.9998 14.5635 38.9998C14.5619 38.9998 14.5602 38.9998 14.5586 38.9998C14.5569 38.9998 14.5553 38.9998 14.5536 38.9998C14.552 38.9998 14.5503 38.9998 14.5486 38.9998C14.547 38.9998 14.5453 38.9998 14.5436 38.9998C14.542 38.9998 14.5403 38.9998 14.5386 38.9998C14.537 38.9998 14.5353 38.9998 14.5336 38.9998C14.5319 38.9998 14.5303 38.9998 14.5286 38.9998C14.5269 38.9998 14.5252 38.9998 14.5235 38.9998C14.5218 38.9998 14.5202 38.9998 14.5185 38.9998C14.5168 38.9998 14.5151 38.9998 14.5134 38.9998C14.5117 38.9998 14.51 38.9998 14.5083 38.9998C14.5066 38.9998 14.5049 38.9998 14.5032 38.9998C14.5015 38.9998 14.4997 38.9998 14.498 38.9998C14.4963 38.9998 14.4946 38.9998 14.4929 38.9998C14.4912 38.9998 14.4894 38.9998 14.4877 38.9998C14.486 38.9998 14.4843 38.9998 14.4825 38.9998C14.4808 38.9998 14.4791 38.9998 14.4773 38.9998C14.4756 38.9998 14.4739 38.9998 14.4721 38.9998C14.4704 38.9998 14.4686 38.9998 14.4669 38.9998C14.4651 38.9998 14.4634 38.9998 14.4616 38.9998C14.4599 38.9998 14.4581 38.9998 14.4564 38.9998C14.4546 38.9998 14.4528 38.9998 14.4511 38.9998C14.4493 38.9998 14.4475 38.9998 14.4458 38.9998C14.444 38.9998 14.4422 38.9998 14.4404 38.9998C14.4387 38.9998 14.4369 38.9998 14.4351 38.9998C14.4333 38.9998 14.4315 38.9998 14.4297 38.9998C14.4279 38.9998 14.4261 38.9998 14.4243 38.9998C14.4225 38.9998 14.4207 38.9998 14.4189 38.9998C14.4171 38.9998 14.4153 38.9998 14.4135 38.9998C14.4117 38.9998 14.4099 38.9998 14.4081 38.9998C14.4063 38.9998 14.4045 38.9998 14.4026 38.9998C14.4008 38.9998 14.399 38.9998 14.3972 38.9998C14.3953 38.9998 14.3935 38.9998 14.3917 38.9998C14.3898 38.9998 14.388 38.9998 14.3861 38.9998C14.3843 38.9998 14.3825 38.9998 14.3806 38.9998C14.3788 38.9998 14.3769 38.9998 14.3751 38.9998C14.3732 38.9998 14.3713 38.9998 14.3695 38.9998C14.3676 38.9998 14.3657 38.9998 14.3639 38.9998C14.362 38.9998 14.3601 38.9998 14.3583 38.9998C14.3564 38.9998 14.3545 38.9998 14.3526 38.9998C14.3507 38.9998 14.3489 38.9998 14.347 38.9998C14.3451 38.9998 14.3432 38.9998 14.3413 38.9998C14.3394 38.9998 14.3375 38.9998 14.3356 38.9998C14.3337 38.9998 14.3318 38.9998 14.3299 38.9998C14.328 38.9998 14.326 38.9998 14.3241 38.9998C14.3222 38.9998 14.3203 38.9998 14.3184 38.9998C14.3164 38.9998 14.3145 38.9998 14.3126 38.9998C14.3106 38.9998 14.3087 38.9998 14.3068 38.9998C14.3048 38.9998 14.3029 38.9998 14.3009 38.9998C14.299 38.9998 14.297 38.9998 14.2951 38.9998C14.2931 38.9998 14.2912 38.9998 14.2892 38.9998C14.2872 38.9998 14.2853 38.9998 14.2833 38.9998C14.2813 38.9998 14.2794 38.9998 14.2774 38.9998C14.2754 38.9998 14.2734 38.9998 14.2714 38.9998C14.2695 38.9998 14.2675 38.9998 14.2655 38.9998C14.2635 38.9998 14.2615 38.9998 14.2595 38.9998C14.2575 38.9998 14.2555 38.9998 14.2535 38.9998C14.2515 38.9998 14.2495 38.9998 14.2474 38.9998C14.2454 38.9998 14.2434 38.9998 14.2414 38.9998C14.2394 38.9998 14.2373 38.9998 14.2353 38.9998C14.2333 38.9998 14.2312 38.9998 14.2292 38.9998C14.2272 38.9998 14.2251 38.9998 14.2231 38.9998C14.221 38.9998 14.219 38.9998 14.2169 38.9998C14.2148 38.9998 14.2128 38.9998 14.2107 38.9998C14.2087 38.9998 14.2066 38.9998 14.2045 38.9998C14.2025 38.9998 14.2004 38.9998 14.1983 38.9998C14.1962 38.9998 14.1941 38.9998 14.192 38.9998C14.19 38.9998 14.1879 38.9998 14.1858 38.9998C14.1837 38.9998 14.1816 38.9998 14.1795 38.9998C14.1774 38.9998 14.1752 38.9998 14.1731 38.9998C14.171 38.9998 14.1689 38.9998 14.1668 38.9998C14.1647 38.9998 14.1625 38.9998 14.1604 38.9998C14.1583 38.9998 14.1561 38.9998 14.154 38.9998C14.1519 38.9998 14.1497 38.9998 14.1476 38.9998C14.1454 38.9998 14.1433 38.9998 14.1411 38.9998C14.139 38.9998 14.1368 38.9998 14.1346 38.9998C14.1325 38.9998 14.1303 38.9998 14.1281 38.9998C14.126 38.9998 14.1238 38.9998 14.1216 38.9998C14.1194 38.9998 14.1172 38.9998 14.115 38.9998C14.1128 38.9998 14.1106 38.9998 14.1084 38.9998C14.1062 38.9998 14.104 38.9998 14.1018 38.9998C14.0996 38.9998 14.0974 38.9998 14.0952 38.9998C14.093 38.9998 14.0907 38.9998 14.0885 38.9998C14.0863 38.9998 14.0841 38.9998 14.0818 38.9998C14.0796 38.9998 14.0773 38.9998 14.0751 38.9998C14.0729 38.9998 14.0706 38.9998 14.0683 38.9998C14.0661 38.9998 14.0638 38.9998 14.0616 38.9998C14.0593 38.9998 14.057 38.9998 14.0548 38.9998C14.0525 38.9998 14.0502 38.9998 14.0479 38.9998C14.0456 38.9998 14.0434 38.9998 14.0411 38.9998C14.0388 38.9998 14.0365 38.9998 14.0342 38.9998C14.0319 38.9998 14.0296 38.9998 14.0273 38.9998C14.0249 38.9998 14.0226 38.9998 14.0203 38.9998C14.018 38.9998 14.0157 38.9998 14.0133 38.9998C14.011 38.9998 14.0087 38.9998 14.0063 38.9998C14.004 38.9998 14.0016 38.9998 13.9993 38.9998C13.9969 38.9998 13.9946 38.9998 13.9922 38.9998C13.9899 38.9998 13.9875 38.9998 13.9851 38.9998C13.9828 38.9998 13.9804 38.9998 13.978 38.9998C13.9756 38.9998 13.9732 38.9998 13.9709 38.9998C13.9685 38.9998 13.9661 38.9998 13.9637 38.9998C13.9613 38.9998 13.9589 38.9998 13.9565 38.9998C13.954 38.9998 13.9516 38.9998 13.9492 38.9998C13.9468 38.9998 13.9444 38.9998 13.9419 38.9998C13.9395 38.9998 13.9371 38.9998 13.9346 38.9998C13.9322 38.9998 13.9298 38.9998 13.9273 38.9998C13.9249 38.9998 13.9224 38.9998 13.9199 38.9998C13.9175 38.9998 13.915 38.9998 13.9125 38.9998C13.9101 38.9998 13.9076 38.9998 13.9051 38.9998C13.9026 38.9998 13.9001 38.9998 13.8977 38.9998C13.8952 38.9998 13.8927 38.9998 13.8902 38.9998C13.8877 38.9998 13.8852 38.9998 13.8826 38.9998C13.8801 38.9998 13.8776 38.9998 13.8751 38.9998C13.8726 38.9998 13.87 38.9998 13.8675 38.9998C13.865 38.9998 13.8624 38.9998 13.8599 38.9998C13.8573 38.9998 13.8548 38.9998 13.8522 38.9998C13.8497 38.9998 13.8471 38.9998 13.8446 38.9998C13.842 38.9998 13.8394 38.9998 13.8368 38.9998C13.8343 38.9998 13.8317 38.9998 13.8291 38.9998C13.8265 38.9998 13.8239 38.9998 13.8213 38.9998C13.8187 38.9998 13.8161 38.9998 13.8135 38.9998C13.8109 38.9998 13.8083 38.9998 13.8057 38.9998C13.803 38.9998 13.8004 38.9998 13.7978 38.9998C13.7952 38.9998 13.7925 38.9998 13.7899 38.9998C13.7872 38.9998 13.7846 38.9998 13.7819 38.9998C13.7793 38.9998 13.7766 38.9998 13.774 38.9998C13.7713 38.9998 13.7686 38.9998 13.7659 38.9998C13.7633 38.9998 13.7606 38.9998 13.7579 38.9998C13.7552 38.9998 13.7525 38.9998 13.7498 38.9998C13.7471 38.9998 13.7444 38.9998 13.7417 38.9998C13.739 38.9998 13.7363 38.9998 13.7336 38.9998C13.7308 38.9998 13.7281 38.9998 13.7254 38.9998C13.7226 38.9998 13.7199 38.9998 13.7172 38.9998C13.7144 38.9998 13.7117 38.9998 13.7089 38.9998C13.7061 38.9998 13.7034 38.9998 13.7006 38.9998C13.6978 38.9998 13.6951 38.9998 13.6923 38.9998C13.6895 38.9998 13.6867 38.9998 13.6839 38.9998C13.6811 38.9998 13.6783 38.9998 13.6755 38.9998C13.6727 38.9998 13.6699 38.9998 13.6671 38.9998C13.6643 38.9998 13.6615 38.9998 13.6586 38.9998C13.6558 38.9998 13.653 38.9998 13.6501 38.9998C13.6473 38.9998 13.6445 38.9998 13.6416 38.9998C13.6388 38.9998 13.6359 38.9998 13.633 38.9998C13.6302 38.9998 13.6273 38.9998 13.6244 38.9998C13.6216 38.9998 13.6187 38.9998 13.6158 38.9998C13.6129 38.9998 13.61 38.9998 13.6071 38.9998C13.6042 38.9998 13.6013 38.9998 13.5984 38.9998C13.5955 38.9998 13.5925 38.9998 13.5896 38.9998C13.5867 38.9998 13.5838 38.9998 13.5808 38.9998C13.5779 38.9998 13.575 38.9998 13.572 38.9998C13.5691 38.9998 13.5661 38.9998 13.5631 38.9998C13.5602 38.9998 13.5572 38.9998 13.5542 38.9998C13.5513 38.9998 13.5483 38.9998 13.5453 38.9998C13.5423 38.9998 13.5393 38.9998 13.5363 38.9998C13.5333 38.9998 13.5303 38.9998 13.5273 38.9998C13.5243 38.9998 13.5213 38.9998 13.5182 38.9998C13.5152 38.9998 13.5122 38.9998 13.5091 38.9998C13.5061 38.9998 13.5031 38.9998 13.5 38.9998V39.9998ZM19.5 42.9998H16.5V43.9998H19.5V42.9998ZM16 39.4998V43.4998H17V39.4998H16ZM20 37.9489C20 37.5204 19.8168 37.1124 19.4965 36.8277L18.8322 37.5752C18.9389 37.6701 19 37.8061 19 37.9489H20ZM11 37.9489C11 37.8061 11.0611 37.6701 11.1678 37.5752L10.5035 36.8277C10.1832 37.1124 10 37.5204 10 37.9489H11Z" fill="#CC3D00"/>
<rect x="27.5" y="30.5" width="18" height="16" rx="2.5" fill="#E3E8EF"/>
<rect x="27.5" y="30.5" width="18" height="16" rx="2.5" stroke="#6A7585"/>
<circle cx="36.5" cy="38.5" r="5" stroke="#6A7585"/>
<path d="M34.5 38.5H38.5" stroke="#6A7585" stroke-linecap="round"/>
<path d="M36.5 40.5V36.5" stroke="#6A7585" stroke-linecap="round"/>
<rect x="48.5" y="30.5" width="19" height="16" rx="2.5" fill="#E3E8EF"/>
<rect x="48.5" y="30.5" width="19" height="16" rx="2.5" stroke="#6A7585"/>
<circle cx="58" cy="38" r="0.5" stroke="#6A7585" stroke-linejoin="round"/>
<circle cx="62" cy="38" r="0.5" stroke="#6A7585" stroke-linejoin="round"/>
<circle cx="54" cy="38" r="0.5" stroke="#6A7585" stroke-linejoin="round"/>
</svg>
