<svg xmlns="http://www.w3.org/2000/svg" width="72" height="76" fill="none"><path fill="#fff" stroke="#CC3D00" stroke-linecap="square" d="M26.5 23.5h-9a1 1 0 0 0-1 1v9a1 1 0 0 0 1 1h9a1 1 0 0 0 1-1v-9a1 1 0 0 0-1-1Z"/><path fill="#fff" stroke="#CDD5DF" stroke-linecap="square" d="M26.5 41.5h-9a1 1 0 0 0-1 1v9a1 1 0 0 0 1 1h9a1 1 0 0 0 1-1v-9a1 1 0 0 0-1-1Z"/><path stroke="#CC3D00" stroke-linecap="round" stroke-linejoin="round" d="m19 29 2 2 4-4"/><rect width="22" height="8" x="34" y="25" fill="#CDD5DF" rx="1"/><rect width="22" height="8" x="34" y="43" fill="#CDD5DF" rx="1"/></svg>