<svg xmlns="http://www.w3.org/2000/svg" width="72" height="76" fill="none"><rect width="55" height="32" x="8.5" y="35.5" fill="#fff" stroke="#CDD5DF" rx="1.5"/><path fill="#fff" stroke="#CC3D00" stroke-linecap="square" d="M21.5 40.5h-7a1 1 0 0 0-1 1v7a1 1 0 0 0 1 1h7a1 1 0 0 0 1-1v-7a1 1 0 0 0-1-1Z"/><path fill="#fff" stroke="#CDD5DF" stroke-linecap="square" d="M21.5 53.5h-7a1 1 0 0 0-1 1v7a1 1 0 0 0 1 1h7a1 1 0 0 0 1-1v-7a1 1 0 0 0-1-1Z"/><path stroke="#CC3D00" stroke-linecap="round" stroke-linejoin="round" d="M15.5 45.5 17 47l3.5-3.5"/><rect width="22" height="8" x="26" y="41" fill="#E3E8EF" rx="1"/><rect width="28" height="8" x="26" y="54" fill="#E3E8EF" rx="1"/><rect width="55" height="23" x="8.5" y="8.5" fill="#fff" stroke="#CDD5DF" rx="2.5"/><path stroke="#6A7585" stroke-linecap="round" stroke-linejoin="round" d="m56.5 18.5-3 3-3-3"/><rect width="22" height="11" x="13.5" y="14.5" fill="#FFEEE5" stroke="#FFBFA1" rx=".5"/></svg>