<svg xmlns="http://www.w3.org/2000/svg" width="72" height="76" fill="none"><rect width="55" height="41" x="8.5" y="14.5" fill="#fff" stroke="#CDD5DF" rx="2.5"/><path stroke="#CC3D00" stroke-linecap="round" d="M49.5 23.5v0a3 3 0 0 0-3-3h-2a3 3 0 0 0-3 3v6a3 3 0 0 0 3 3h2a3 3 0 0 0 3-3v0M14.5 49.5h4a3 3 0 0 0 3-3v-6a3 3 0 0 0-3-3h-4a1 1 0 0 0-1 1v10a1 1 0 0 0 1 1ZM33.5 40.5v0a3 3 0 0 0-3-3h-2a3 3 0 0 0-3 3v3m8 3v0a3 3 0 0 1-3 3h-2a3 3 0 0 1-3-3v-3m0 0h5"/><path stroke="#CC3D00" stroke-linecap="round" stroke-linejoin="round" d="M28.5 20.5h5c1.657 0 3 .843 3 2.5s-1.343 2.5-3 2.5h-4M29.5 25.5h5c1.657 0 3 1.843 3 3.5s-1.343 3.5-3 3.5h-6M29.5 20.5v12M14.5 32.5l1.833-4m9.167 4-1.833-4m-7.334 0 3.667-8 3.667 8m-7.334 0h7.334"/><path stroke="#6A7585" stroke-linecap="round" stroke-linejoin="round" d="M51.5 49.5h2m2 0h-2m0 0v12m-2 0h4"/><path stroke="#CC3D00" stroke-linecap="round" d="M37.5 49.5v-6m7-6h-4a3 3 0 0 0-3 3v3m0 0h4"/></svg>