<svg xmlns="http://www.w3.org/2000/svg" width="72" height="76" fill="none"><rect width="56" height="43" x="7.5" y="16.5" fill="#fff" stroke="#6A7585" rx="1.5"/><path fill="#FFEEE5" d="M22.5 32.5v26a1 1 0 0 1-1 1h-13a1 1 0 0 1-1-1v-41a1 1 0 0 1 1-1h54a1 1 0 0 1 1 1v13a1 1 0 0 1-1 1h-39a1 1 0 0 0-1 1"/><path stroke="#CC3D00" d="M22.5 59.5H9A1.5 1.5 0 0 1 7.5 58V18A1.5 1.5 0 0 1 9 16.5h53a1.5 1.5 0 0 1 1.5 1.5v13.5"/><path stroke="#6A7585" stroke-linecap="round" d="M22.5 45.5h41"/><path stroke="#CC3D00" stroke-linecap="round" d="M22.5 17v28.5m0 14v-14m0 0h-15m.5-14h55.5"/><path fill="#E3E8EF" fill-rule="evenodd" d="M27 35a1 1 0 0 0-1 1v5a1 1 0 0 0 1 1h22a1 1 0 0 0 1-1v-5a1 1 0 0 0-1-1zm0 14a1 1 0 0 0-1 1v5a1 1 0 0 0 1 1h31a1 1 0 0 0 1-1v-5a1 1 0 0 0-1-1z" clip-rule="evenodd"/></svg>