<svg xmlns="http://www.w3.org/2000/svg" width="58" height="44" fill="none"><rect width="57" height="17" x=".5" y="11.5" fill="#fff" rx="8.5"/><rect width="57" height="17" x=".5" y="11.5" stroke="#CDD5DF" rx="8.5"/><path fill="#FFBFA1" stroke="#CC3D00" d="M3.5 20A5.5 5.5 0 0 1 9 14.5h29.294c.114 0 .206.092.206.206v10.588a.206.206 0 0 1-.206.206H9A5.5 5.5 0 0 1 3.5 20Z"/><path stroke="#CC3D00" stroke-linecap="round" stroke-linejoin="round" d="m46.5 35.5-4 4"/><path fill="#CC3D00" d="M42 35h1v1h-1zM46 39h1v1h-1z"/><path stroke="#CC3D00" stroke-linecap="round" stroke-linejoin="round" d="M36.5 39.5h2m2 0h-2m-2-3 2-1v4M32.5 39.5v0a2 2 0 0 0 2-2v0m0 0v-1a1 1 0 0 0-1-1h-2a1 1 0 0 0-1 1v0a1 1 0 0 0 1 1h3Z"/></svg>