<svg xmlns="http://www.w3.org/2000/svg" width="72" height="76" fill="none"><rect width="57" height="17" x="7.5" y="27.5" fill="#fff" rx="8.5"/><rect width="57" height="17" x="7.5" y="27.5" stroke="#CDD5DF" rx="8.5"/><path fill="#FFBFA1" stroke="#CC3D00" d="M10.5 36a5.5 5.5 0 0 1 5.5-5.5h29.294c.114 0 .206.092.206.206v10.588a.206.206 0 0 1-.206.206H16a5.5 5.5 0 0 1-5.5-5.5Z"/><path stroke="#CC3D00" stroke-linecap="round" stroke-linejoin="round" d="m53.5 51.5-4 4"/><path fill="#CC3D00" d="M49 51h1v1h-1zM53 55h1v1h-1z"/><path stroke="#CC3D00" stroke-linecap="round" stroke-linejoin="round" d="M43.5 55.5h2m2 0h-2m-2-3 2-1v4M39.5 55.5v0a2 2 0 0 0 2-2v0m0 0v-1a1 1 0 0 0-1-1h-2a1 1 0 0 0-1 1v0a1 1 0 0 0 1 1h3Z"/></svg>