<svg width="725" height="537" viewBox="0 0 725 537" fill="none" xmlns="http://www.w3.org/2000/svg">
<g clip-path="url(#clip0_625_11712)">
<g filter="url(#filter0_d_625_11712)">
<path d="M91 33H730V504H91V33Z" fill="white"/>
</g>
<g filter="url(#filter1_d_625_11712)">
<path fill-rule="evenodd" clip-rule="evenodd" d="M729 34H92V503H729V34ZM91 33V504H730V33H91Z" fill="#E7E7E7"/>
</g>
<path d="M151 137C151 141.971 146.971 146 142 146C137.029 146 133 141.971 133 137C133 132.029 137.029 128 142 128C146.971 128 151 132.029 151 137Z" fill="#FFDEDE"/>
<g opacity="0.7">
<path d="M181 133H332.334V141.294H181V133Z" fill="#D9D9D9"/>
<path d="M354.83 133H571.606V141.294H354.83V133Z" fill="#D9D9D9"/>
<path d="M650 133H594.102V141.294H650V133Z" fill="#D9D9D9"/>
</g>
<g opacity="0.7">
<path d="M181 205H332.334V213.294H181V205Z" fill="#D9D9D9"/>
<path d="M354.83 205H571.606V213.294H354.83V205Z" fill="#D9D9D9"/>
<path d="M650 205H594.102V213.294H650V205Z" fill="#D9D9D9"/>
</g>
<g opacity="0.7">
<path d="M181 242H332.334V250.294H181V242Z" fill="#D9D9D9"/>
<path d="M354.83 242H571.606V250.294H354.83V242Z" fill="#D9D9D9"/>
<path d="M650 242H594.102V250.294H650V242Z" fill="#D9D9D9"/>
</g>
<path d="M150 244C150 248.971 145.971 253 141 253C136.029 253 132 248.971 132 244C132 239.029 136.029 235 141 235C145.971 235 150 239.029 150 244Z" fill="#FFDEDE"/>
<path d="M150 285C150 289.971 145.971 294 141 294C136.029 294 132 289.971 132 285C132 280.029 136.029 276 141 276C145.971 276 150 280.029 150 285Z" fill="#FFDEDE"/>
<path d="M150 322C150 326.971 145.971 331 141 331C136.029 331 132 326.971 132 322C132 317.029 136.029 313 141 313C145.971 313 150 317.029 150 322Z" fill="#FFDEDE"/>
<path d="M150 359C150 363.971 145.971 368 141 368C136.029 368 132 363.971 132 359C132 354.029 136.029 350 141 350C145.971 350 150 354.029 150 359Z" fill="#FFDEDE"/>
<path d="M150 396C150 400.971 145.971 405 141 405C136.029 405 132 400.971 132 396C132 391.029 136.029 387 141 387C145.971 387 150 391.029 150 396Z" fill="#FFDEDE"/>
<path d="M150 433C150 437.971 145.971 442 141 442C136.029 442 132 437.971 132 433C132 428.029 136.029 424 141 424C145.971 424 150 428.029 150 433Z" fill="#FFDEDE"/>
<path d="M150 470C150 474.971 145.971 479 141 479C136.029 479 132 474.971 132 470C132 465.029 136.029 461 141 461C145.971 461 150 465.029 150 470Z" fill="#FFDEDE"/>
<g opacity="0.7">
<path d="M181 281H332.334V289.294H181V281Z" fill="#D9D9D9"/>
<path d="M354.83 281H571.606V289.294H354.83V281Z" fill="#D9D9D9"/>
<path d="M650 281H594.102V289.294H650V281Z" fill="#D9D9D9"/>
</g>
<g opacity="0.7">
<path d="M181 318H332.334V326.294H181V318Z" fill="#D9D9D9"/>
<path d="M354.83 318H571.606V326.294H354.83V318Z" fill="#D9D9D9"/>
<path d="M650 318H594.102V326.294H650V318Z" fill="#D9D9D9"/>
</g>
<g opacity="0.7">
<path d="M181 355H332.334V363.294H181V355Z" fill="#D9D9D9"/>
<path d="M354.83 355H571.606V363.294H354.83V355Z" fill="#D9D9D9"/>
<path d="M650 355H594.102V363.294H650V355Z" fill="#D9D9D9"/>
</g>
<g opacity="0.7">
<path d="M181 392H332.334V400.294H181V392Z" fill="#D9D9D9"/>
<path d="M354.83 392H571.606V400.294H354.83V392Z" fill="#D9D9D9"/>
<path d="M650 392H594.102V400.294H650V392Z" fill="#D9D9D9"/>
</g>
<g opacity="0.7">
<path d="M181 429H332.334V437.294H181V429Z" fill="#D9D9D9"/>
<path d="M354.83 429H571.606V437.294H354.83V429Z" fill="#D9D9D9"/>
<path d="M650 429H594.102V437.294H650V429Z" fill="#D9D9D9"/>
</g>
<g opacity="0.7">
<path d="M181 466H332.334V474.294H181V466Z" fill="#D9D9D9"/>
<path d="M354.83 466H571.606V474.294H354.83V466Z" fill="#D9D9D9"/>
<path d="M650 466H594.102V474.294H650V466Z" fill="#D9D9D9"/>
</g>
<path d="M137.128 89.0002H133.613L140.013 70.8184H144.08L150.489 89.0002H146.974L142.118 74.5471H141.975L137.128 89.0002ZM137.244 81.8713H146.832V84.5169H137.244V81.8713Z" fill="#393939"/>
<path d="M161.433 83.2651V75.3638H164.647V89.0002H161.531V86.5765H161.389C161.081 87.34 160.575 87.9644 159.871 88.4498C159.173 88.9351 158.311 89.1777 157.288 89.1777C156.394 89.1777 155.604 88.9795 154.917 88.5829C154.237 88.1805 153.704 87.5975 153.319 86.834C152.934 86.0646 152.742 85.1354 152.742 84.0463V75.3638H155.956V83.5492C155.956 84.4133 156.193 85.0998 156.666 85.6088C157.14 86.1178 157.761 86.3723 158.53 86.3723C159.004 86.3723 159.463 86.2569 159.906 86.0261C160.35 85.7953 160.714 85.452 160.998 84.9963C161.288 84.5346 161.433 83.9576 161.433 83.2651Z" fill="#393939"/>
<path d="M173.012 89.2399C171.941 89.2399 170.982 88.9647 170.136 88.4142C169.29 87.8638 168.621 87.0648 168.13 86.0172C167.638 84.9696 167.393 83.6971 167.393 82.1998C167.393 80.6846 167.641 79.4062 168.138 78.3645C168.642 77.3169 169.319 76.5268 170.171 75.9941C171.024 75.4556 171.974 75.1863 173.021 75.1863C173.82 75.1863 174.477 75.3224 174.992 75.5946C175.507 75.861 175.915 76.1835 176.217 76.5623C176.519 76.9352 176.753 77.2873 176.919 77.6188H177.052V70.8184H180.274V89.0002H177.114V86.8517H176.919C176.753 87.1832 176.513 87.5353 176.2 87.9082C175.886 88.2752 175.472 88.5888 174.957 88.8493C174.442 89.1097 173.794 89.2399 173.012 89.2399ZM173.909 86.6032C174.59 86.6032 175.17 86.4197 175.649 86.0527C176.129 85.6799 176.493 85.162 176.741 84.4991C176.99 83.8362 177.114 83.0639 177.114 82.182C177.114 81.3001 176.99 80.5337 176.741 79.8826C176.498 79.2316 176.137 78.7256 175.658 78.3645C175.185 78.0035 174.602 77.823 173.909 77.823C173.193 77.823 172.595 78.0094 172.116 78.3823C171.636 78.7551 171.275 79.2701 171.033 79.927C170.79 80.584 170.669 81.3356 170.669 82.182C170.669 83.0343 170.79 83.7948 171.033 84.4636C171.281 85.1265 171.645 85.6503 172.125 86.035C172.61 86.4138 173.205 86.6032 173.909 86.6032Z" fill="#393939"/>
<path d="M183.699 89.0002V75.3638H186.913V89.0002H183.699ZM185.315 73.4284C184.806 73.4284 184.368 73.2598 184.001 72.9224C183.634 72.5791 183.451 72.1678 183.451 71.6884C183.451 71.2031 183.634 70.7917 184.001 70.4544C184.368 70.1111 184.806 69.9395 185.315 69.9395C185.83 69.9395 186.268 70.1111 186.629 70.4544C186.996 70.7917 187.179 71.2031 187.179 71.6884C187.179 72.1678 186.996 72.5791 186.629 72.9224C186.268 73.2598 185.83 73.4284 185.315 73.4284Z" fill="#393939"/>
<path d="M197.027 75.3638V77.8496H189.188V75.3638H197.027ZM191.123 72.0968H194.337V84.8986C194.337 85.3307 194.402 85.6621 194.532 85.8929C194.668 86.1178 194.846 86.2717 195.065 86.3546C195.284 86.4374 195.527 86.4789 195.793 86.4789C195.994 86.4789 196.178 86.4641 196.343 86.4345C196.515 86.4049 196.645 86.3783 196.734 86.3546L197.276 88.867C197.104 88.9262 196.858 88.9913 196.539 89.0623C196.225 89.1333 195.84 89.1748 195.385 89.1866C194.58 89.2103 193.855 89.089 193.209 88.8226C192.564 88.5504 192.052 88.1302 191.674 87.562C191.301 86.9938 191.117 86.2836 191.123 85.4313V72.0968Z" fill="#393939"/>
<path d="M206.058 89.0002V70.8184H209.352V86.2392H217.359V89.0002H206.058Z" fill="#393939"/>
<path d="M226.024 89.2665C224.693 89.2665 223.538 88.9735 222.562 88.3876C221.585 87.8017 220.828 86.9819 220.289 85.9284C219.756 84.8749 219.49 83.6439 219.49 82.2353C219.49 80.8266 219.756 79.5926 220.289 78.5332C220.828 77.4738 221.585 76.6511 222.562 76.0652C223.538 75.4792 224.693 75.1863 226.024 75.1863C227.356 75.1863 228.51 75.4792 229.487 76.0652C230.463 76.6511 231.218 77.4738 231.75 78.5332C232.289 79.5926 232.558 80.8266 232.558 82.2353C232.558 83.6439 232.289 84.8749 231.75 85.9284C231.218 86.9819 230.463 87.8017 229.487 88.3876C228.51 88.9735 227.356 89.2665 226.024 89.2665ZM226.042 86.6919C226.764 86.6919 227.368 86.4937 227.853 86.0971C228.338 85.6947 228.699 85.1561 228.936 84.4814C229.179 83.8066 229.3 83.055 229.3 82.2264C229.3 81.3919 229.179 80.6373 228.936 79.9625C228.699 79.2819 228.338 78.7404 227.853 78.3379C227.368 77.9354 226.764 77.7342 226.042 77.7342C225.302 77.7342 224.687 77.9354 224.195 78.3379C223.71 78.7404 223.346 79.2819 223.103 79.9625C222.867 80.6373 222.748 81.3919 222.748 82.2264C222.748 83.055 222.867 83.8066 223.103 84.4814C223.346 85.1561 223.71 85.6947 224.195 86.0971C224.687 86.4937 225.302 86.6919 226.042 86.6919Z" fill="#393939"/>
<path d="M241.216 94.3979C240.062 94.3979 239.071 94.2411 238.242 93.9274C237.414 93.6196 236.748 93.2053 236.245 92.6845C235.742 92.1636 235.393 91.5866 235.197 90.9533L238.091 90.252C238.222 90.5183 238.411 90.7817 238.66 91.0421C238.908 91.3084 239.243 91.5274 239.663 91.699C240.089 91.8766 240.625 91.9654 241.27 91.9654C242.181 91.9654 242.936 91.7434 243.534 91.2995C244.131 90.8616 244.43 90.1395 244.43 89.1333V86.5499H244.27C244.105 86.8813 243.862 87.2217 243.542 87.5708C243.229 87.92 242.811 88.213 242.291 88.4498C241.776 88.6865 241.128 88.8049 240.346 88.8049C239.299 88.8049 238.349 88.5592 237.497 88.068C236.65 87.5708 235.976 86.831 235.472 85.8485C234.975 84.8601 234.727 83.6232 234.727 82.1376C234.727 80.6402 234.975 79.3766 235.472 78.3468C235.976 77.311 236.653 76.5268 237.505 75.9941C238.358 75.4556 239.308 75.1863 240.355 75.1863C241.154 75.1863 241.811 75.3224 242.326 75.5946C242.847 75.861 243.261 76.1835 243.569 76.5623C243.877 76.9352 244.111 77.2873 244.27 77.6188H244.448V75.3638H247.617V89.2221C247.617 90.3881 247.339 91.3528 246.783 92.1163C246.226 92.8798 245.466 93.4509 244.501 93.8297C243.536 94.2085 242.442 94.3979 241.216 94.3979ZM241.243 86.2836C241.924 86.2836 242.504 86.1178 242.983 85.7864C243.463 85.455 243.827 84.9785 244.075 84.3571C244.324 83.7356 244.448 82.9899 244.448 82.1199C244.448 81.2617 244.324 80.51 244.075 79.8649C243.832 79.2198 243.471 78.7196 242.992 78.3645C242.519 78.0035 241.936 77.823 241.243 77.823C240.527 77.823 239.929 78.0094 239.45 78.3823C238.97 78.7551 238.609 79.2671 238.367 79.9181C238.124 80.5633 238.003 81.2972 238.003 82.1199C238.003 82.9544 238.124 83.6853 238.367 84.3127C238.615 84.9341 238.979 85.4194 239.459 85.7686C239.944 86.1119 240.539 86.2836 241.243 86.2836Z" fill="#393939"/>
<path d="M261.689 78.9682L258.759 79.2878C258.676 78.9919 258.531 78.7137 258.324 78.4533C258.123 78.1929 257.851 77.9828 257.507 77.823C257.164 77.6632 256.744 77.5833 256.247 77.5833C255.578 77.5833 255.016 77.7283 254.56 78.0183C254.11 78.3083 253.888 78.6841 253.894 79.1458C253.888 79.5423 254.033 79.8649 254.329 80.1135C254.631 80.362 255.128 80.5662 255.82 80.726L258.146 81.2232C259.437 81.5014 260.396 81.9423 261.023 82.546C261.656 83.1497 261.976 83.9398 261.982 84.9164C261.976 85.7746 261.724 86.5321 261.227 87.1891C260.736 87.8401 260.052 88.3491 259.176 88.7161C258.3 89.083 257.294 89.2665 256.158 89.2665C254.489 89.2665 253.145 88.9173 252.127 88.2189C251.109 87.5146 250.503 86.5351 250.307 85.2804L253.441 84.9785C253.583 85.594 253.885 86.0587 254.347 86.3723C254.808 86.686 255.409 86.8429 256.149 86.8429C256.912 86.8429 257.525 86.686 257.987 86.3723C258.454 86.0587 258.688 85.671 258.688 85.2093C258.688 84.8187 258.537 84.4962 258.235 84.2417C257.939 83.9872 257.478 83.7918 256.85 83.6557L254.524 83.1674C253.216 82.8952 252.249 82.4365 251.621 81.7914C250.994 81.1403 250.683 80.3176 250.689 79.3233C250.683 78.4829 250.911 77.7549 251.373 77.1394C251.84 76.5179 252.488 76.0385 253.317 75.7012C254.151 75.3579 255.113 75.1863 256.202 75.1863C257.8 75.1863 259.058 75.5266 259.975 76.2072C260.899 76.8878 261.47 77.8082 261.689 78.9682Z" fill="#393939"/>
<path d="M151 207C151 211.971 146.971 216 142 216C137.029 216 133 211.971 133 207C133 202.029 137.029 198 142 198C146.971 198 151 202.029 151 207Z" fill="#FFDEDE"/>
<g filter="url(#filter2_d_625_11712)">
<rect width="679" height="95" transform="translate(49 113)" fill="white"/>
<g opacity="0.5">
<rect x="68.0286" y="154.062" width="151.913" height="33.7906" fill="white"/>
<path d="M205.03 171.254L207.748 168.536L208.524 169.313L205.03 172.807L201.535 169.313L202.312 168.536L205.03 171.254Z" fill="#575757"/>
<rect x="68.0286" y="154.062" width="151.913" height="33.7906" stroke="#B3B3B3" stroke-width="0.83"/>
</g>
<g opacity="0.5">
<rect x="231.039" y="154.062" width="151.913" height="33.7906" fill="white"/>
<path d="M368.04 171.254L370.758 168.536L371.534 169.313L368.04 172.807L364.545 169.313L365.322 168.536L368.04 171.254Z" fill="#575757"/>
<rect x="231.039" y="154.062" width="151.913" height="33.7906" stroke="#B3B3B3" stroke-width="0.83"/>
</g>
<g opacity="0.5">
<rect x="394.049" y="154.062" width="151.913" height="33.7906" fill="white"/>
<path d="M531.05 171.254L533.768 168.536L534.544 169.313L531.05 172.807L527.555 169.313L528.332 168.536L531.05 171.254Z" fill="#575757"/>
<rect x="394.049" y="154.062" width="151.913" height="33.7906" stroke="#B3B3B3" stroke-width="0.83"/>
</g>
<g opacity="0.5">
<rect x="557.059" y="154.062" width="151.913" height="33.7906" fill="white"/>
<path d="M694.06 171.254L696.778 168.536L697.554 169.313L694.06 172.807L690.565 169.313L691.342 168.536L694.06 171.254Z" fill="#575757"/>
<rect x="557.059" y="154.062" width="151.913" height="33.7906" stroke="#B3B3B3" stroke-width="0.83"/>
</g>
<path d="M81.0781 175H86.3164V174.051H82.1328V171.145H86.0996V170.207H82.1328V167.494H86.3164V166.545H81.0781V175Z" fill="#4B4848"/>
<path d="M89.8848 175H90.916L93.2539 168.684H92.1758L90.4473 173.887H90.3535L88.625 168.684H87.5469L89.8848 175Z" fill="#4B4848"/>
<path d="M96.9453 175.111C98.4336 175.111 99.3359 174.268 99.5527 173.412L99.5645 173.365H98.5449L98.5215 173.418C98.3516 173.799 97.8242 174.203 96.9688 174.203C95.8438 174.203 95.123 173.441 95.0938 172.135H99.6406V171.736C99.6406 169.85 98.5977 168.572 96.8809 168.572C95.1641 168.572 94.0508 169.908 94.0508 171.859V171.865C94.0508 173.846 95.1406 175.111 96.9453 175.111ZM96.875 169.48C97.8066 169.48 98.498 170.072 98.6035 171.32H95.1113C95.2227 170.119 95.9375 169.48 96.875 169.48Z" fill="#4B4848"/>
<path d="M101.223 175H102.242V171.262C102.242 170.154 102.881 169.475 103.889 169.475C104.896 169.475 105.365 170.02 105.365 171.156V175H106.385V170.91C106.385 169.41 105.594 168.572 104.176 168.572C103.244 168.572 102.652 168.965 102.336 169.633H102.242V168.684H101.223V175Z" fill="#4B4848"/>
<path d="M110.475 175.047C110.674 175.047 110.867 175.023 111.066 174.988V174.121C110.879 174.139 110.779 174.145 110.598 174.145C109.941 174.145 109.684 173.846 109.684 173.102V169.527H111.066V168.684H109.684V167.049H108.629V168.684H107.633V169.527H108.629V173.359C108.629 174.566 109.174 175.047 110.475 175.047Z" fill="#4B4848"/>
<path d="M118.209 175.047C118.408 175.047 118.602 175.023 118.801 174.988V174.121C118.613 174.139 118.514 174.145 118.332 174.145C117.676 174.145 117.418 173.846 117.418 173.102V169.527H118.801V168.684H117.418V167.049H116.363V168.684H115.367V169.527H116.363V173.359C116.363 174.566 116.908 175.047 118.209 175.047Z" fill="#4B4848"/>
<path d="M120.863 177.215C121.982 177.215 122.504 176.805 123.025 175.387L125.492 168.684H124.42L122.691 173.881H122.598L120.863 168.684H119.773L122.111 175.006L121.994 175.381C121.766 176.107 121.414 176.371 120.834 176.371C120.693 176.371 120.535 176.365 120.412 176.342V177.18C120.553 177.203 120.729 177.215 120.863 177.215Z" fill="#4B4848"/>
<path d="M126.84 177.109H127.859V174.004H127.953C128.299 174.678 129.055 175.111 129.922 175.111C131.527 175.111 132.57 173.828 132.57 171.848V171.836C132.57 169.867 131.521 168.572 129.922 168.572C129.043 168.572 128.34 168.988 127.953 169.691H127.859V168.684H126.84V177.109ZM129.688 174.209C128.539 174.209 127.836 173.307 127.836 171.848V171.836C127.836 170.377 128.539 169.475 129.688 169.475C130.842 169.475 131.527 170.365 131.527 171.836V171.848C131.527 173.318 130.842 174.209 129.688 174.209Z" fill="#4B4848"/>
<path d="M136.742 175.111C138.23 175.111 139.133 174.268 139.35 173.412L139.361 173.365H138.342L138.318 173.418C138.148 173.799 137.621 174.203 136.766 174.203C135.641 174.203 134.92 173.441 134.891 172.135H139.438V171.736C139.438 169.85 138.395 168.572 136.678 168.572C134.961 168.572 133.848 169.908 133.848 171.859V171.865C133.848 173.846 134.938 175.111 136.742 175.111ZM136.672 169.48C137.604 169.48 138.295 170.072 138.4 171.32H134.908C135.02 170.119 135.734 169.48 136.672 169.48Z" fill="#4B4848"/>
<path d="M247.439 175.199C249.537 175.199 250.791 173.934 250.791 172.094V166.545H249.736V172.023C249.736 173.324 248.904 174.227 247.439 174.227C245.975 174.227 245.131 173.324 245.131 172.023V166.545H244.076V172.094C244.076 173.934 245.342 175.199 247.439 175.199Z" fill="#4B4848"/>
<path d="M254.975 175.111C256.41 175.111 257.506 174.332 257.506 173.207V173.195C257.506 172.293 256.932 171.777 255.742 171.49L254.77 171.256C254.025 171.074 253.709 170.805 253.709 170.377V170.365C253.709 169.809 254.26 169.422 255.01 169.422C255.771 169.422 256.264 169.768 256.398 170.266H257.4C257.26 169.234 256.34 168.572 255.016 168.572C253.674 168.572 252.666 169.363 252.666 170.412V170.418C252.666 171.326 253.199 171.842 254.383 172.123L255.361 172.357C256.141 172.545 256.463 172.844 256.463 173.271V173.283C256.463 173.857 255.859 174.262 255.01 174.262C254.201 174.262 253.697 173.916 253.527 173.389H252.484C252.602 174.432 253.568 175.111 254.975 175.111Z" fill="#4B4848"/>
<path d="M261.666 175.111C263.154 175.111 264.057 174.268 264.273 173.412L264.285 173.365H263.266L263.242 173.418C263.072 173.799 262.545 174.203 261.689 174.203C260.564 174.203 259.844 173.441 259.814 172.135H264.361V171.736C264.361 169.85 263.318 168.572 261.602 168.572C259.885 168.572 258.771 169.908 258.771 171.859V171.865C258.771 173.846 259.861 175.111 261.666 175.111ZM261.596 169.48C262.527 169.48 263.219 170.072 263.324 171.32H259.832C259.943 170.119 260.658 169.48 261.596 169.48Z" fill="#4B4848"/>
<path d="M265.943 175H266.963V171.086C266.963 170.16 267.654 169.545 268.627 169.545C268.85 169.545 269.043 169.568 269.254 169.604V168.613C269.154 168.596 268.938 168.572 268.744 168.572C267.889 168.572 267.297 168.959 267.057 169.621H266.963V168.684H265.943V175Z" fill="#4B4848"/>
<path d="M407.098 175H408.153V171.654H410.233L412.043 175H413.28L411.323 171.49C412.383 171.156 413.022 170.242 413.022 169.07V169.059C413.022 167.541 411.956 166.545 410.327 166.545H407.098V175ZM408.153 170.717V167.482H410.186C411.276 167.482 411.932 168.086 411.932 169.094V169.105C411.932 170.137 411.317 170.717 410.233 170.717H408.153Z" fill="#4B4848"/>
<path d="M417.211 175.111C418.7 175.111 419.602 174.268 419.819 173.412L419.831 173.365H418.811L418.788 173.418C418.618 173.799 418.09 174.203 417.235 174.203C416.11 174.203 415.389 173.441 415.36 172.135H419.907V171.736C419.907 169.85 418.864 168.572 417.147 168.572C415.43 168.572 414.317 169.908 414.317 171.859V171.865C414.317 173.846 415.407 175.111 417.211 175.111ZM417.141 169.48C418.073 169.48 418.764 170.072 418.87 171.32H415.377C415.489 170.119 416.204 169.48 417.141 169.48Z" fill="#4B4848"/>
<path d="M423.657 175.111C425.092 175.111 426.188 174.332 426.188 173.207V173.195C426.188 172.293 425.614 171.777 424.424 171.49L423.452 171.256C422.708 171.074 422.391 170.805 422.391 170.377V170.365C422.391 169.809 422.942 169.422 423.692 169.422C424.454 169.422 424.946 169.768 425.081 170.266H426.083C425.942 169.234 425.022 168.572 423.698 168.572C422.356 168.572 421.348 169.363 421.348 170.412V170.418C421.348 171.326 421.881 171.842 423.065 172.123L424.043 172.357C424.823 172.545 425.145 172.844 425.145 173.271V173.283C425.145 173.857 424.542 174.262 423.692 174.262C422.883 174.262 422.379 173.916 422.209 173.389H421.167C421.284 174.432 422.25 175.111 423.657 175.111Z" fill="#4B4848"/>
<path d="M430.366 175.111C432.165 175.111 433.278 173.869 433.278 171.848V171.836C433.278 169.809 432.165 168.572 430.366 168.572C428.567 168.572 427.454 169.809 427.454 171.836V171.848C427.454 173.869 428.567 175.111 430.366 175.111ZM430.366 174.209C429.17 174.209 428.497 173.336 428.497 171.848V171.836C428.497 170.342 429.17 169.475 430.366 169.475C431.561 169.475 432.235 170.342 432.235 171.836V171.848C432.235 173.336 431.561 174.209 430.366 174.209Z" fill="#4B4848"/>
<path d="M436.975 175.111C437.901 175.111 438.54 174.73 438.85 174.057H438.944V175H439.963V168.684H438.944V172.422C438.944 173.529 438.352 174.209 437.239 174.209C436.231 174.209 435.821 173.664 435.821 172.527V168.684H434.801V172.773C434.801 174.268 435.54 175.111 436.975 175.111Z" fill="#4B4848"/>
<path d="M441.868 175H442.887V171.086C442.887 170.16 443.579 169.545 444.551 169.545C444.774 169.545 444.967 169.568 445.178 169.604V168.613C445.079 168.596 444.862 168.572 444.668 168.572C443.813 168.572 443.221 168.959 442.981 169.621H442.887V168.684H441.868V175Z" fill="#4B4848"/>
<path d="M448.846 175.111C450.364 175.111 451.213 174.297 451.471 173.154L451.483 173.09L450.475 173.096L450.463 173.131C450.229 173.834 449.69 174.209 448.84 174.209C447.715 174.209 446.989 173.277 446.989 171.824V171.812C446.989 170.389 447.704 169.475 448.84 169.475C449.749 169.475 450.311 169.979 450.469 170.6L450.475 170.617H451.489L451.483 170.582C451.295 169.457 450.375 168.572 448.84 168.572C447.071 168.572 445.946 169.85 445.946 171.812V171.824C445.946 173.828 447.077 175.111 448.846 175.111Z" fill="#4B4848"/>
<path d="M455.555 175.111C457.043 175.111 457.946 174.268 458.163 173.412L458.174 173.365H457.155L457.131 173.418C456.961 173.799 456.434 174.203 455.579 174.203C454.454 174.203 453.733 173.441 453.704 172.135H458.25V171.736C458.25 169.85 457.208 168.572 455.491 168.572C453.774 168.572 452.661 169.908 452.661 171.859V171.865C452.661 173.846 453.75 175.111 455.555 175.111ZM455.485 169.48C456.417 169.48 457.108 170.072 457.213 171.32H453.721C453.833 170.119 454.547 169.48 455.485 169.48Z" fill="#4B4848"/>
<path d="M463.336 175H464.391V166.545H463.336V175Z" fill="#4B4848"/>
<path d="M466.547 175H469.448C471.961 175 473.438 173.436 473.438 170.775V170.764C473.438 168.109 471.956 166.545 469.448 166.545H466.547V175ZM467.602 174.051V167.494H469.377C471.252 167.494 472.36 168.713 472.36 170.775V170.787C472.36 172.844 471.264 174.051 469.377 174.051H467.602Z" fill="#4B4848"/>
<path d="M570.108 175H573.008C575.522 175 576.999 173.436 576.999 170.775V170.764C576.999 168.109 575.516 166.545 573.008 166.545H570.108V175ZM571.163 174.051V167.494H572.938C574.813 167.494 575.92 168.713 575.92 170.775V170.787C575.92 172.844 574.825 174.051 572.938 174.051H571.163Z" fill="#4B4848"/>
<path d="M580.432 175.111C581.282 175.111 581.944 174.742 582.342 174.068H582.436V175H583.456V170.676C583.456 169.363 582.594 168.572 581.053 168.572C579.706 168.572 578.745 169.24 578.581 170.23L578.575 170.266H579.594L579.6 170.248C579.764 169.756 580.262 169.475 581.018 169.475C581.961 169.475 582.436 169.896 582.436 170.676V171.25L580.625 171.361C579.155 171.449 578.323 172.1 578.323 173.225V173.236C578.323 174.385 579.231 175.111 580.432 175.111ZM579.366 173.213V173.201C579.366 172.574 579.788 172.234 580.749 172.176L582.436 172.07V172.645C582.436 173.547 581.68 174.227 580.643 174.227C579.911 174.227 579.366 173.852 579.366 173.213Z" fill="#4B4848"/>
<path d="M587.563 175.047C587.762 175.047 587.956 175.023 588.155 174.988V174.121C587.967 174.139 587.868 174.145 587.686 174.145C587.03 174.145 586.772 173.846 586.772 173.102V169.527H588.155V168.684H586.772V167.049H585.717V168.684H584.721V169.527H585.717V173.359C585.717 174.566 586.262 175.047 587.563 175.047Z" fill="#4B4848"/>
<path d="M592.163 175.111C593.651 175.111 594.553 174.268 594.77 173.412L594.782 173.365H593.762L593.739 173.418C593.569 173.799 593.042 174.203 592.186 174.203C591.061 174.203 590.34 173.441 590.311 172.135H594.858V171.736C594.858 169.85 593.815 168.572 592.098 168.572C590.381 168.572 589.268 169.908 589.268 171.859V171.865C589.268 173.846 590.358 175.111 592.163 175.111ZM592.092 169.48C593.024 169.48 593.715 170.072 593.821 171.32H590.329C590.44 170.119 591.155 169.48 592.092 169.48Z" fill="#4B4848"/>
<path d="M599.944 175H600.999V171.654H603.079L604.889 175H606.125L604.168 171.49C605.229 171.156 605.868 170.242 605.868 169.07V169.059C605.868 167.541 604.801 166.545 603.172 166.545H599.944V175ZM600.999 170.717V167.482H603.032C604.122 167.482 604.778 168.086 604.778 169.094V169.105C604.778 170.137 604.163 170.717 603.079 170.717H600.999Z" fill="#4B4848"/>
<path d="M609.389 175.111C610.239 175.111 610.901 174.742 611.299 174.068H611.393V175H612.413V170.676C612.413 169.363 611.551 168.572 610.01 168.572C608.663 168.572 607.702 169.24 607.538 170.23L607.532 170.266H608.551L608.557 170.248C608.721 169.756 609.219 169.475 609.975 169.475C610.918 169.475 611.393 169.896 611.393 170.676V171.25L609.583 171.361C608.112 171.449 607.28 172.1 607.28 173.225V173.236C607.28 174.385 608.188 175.111 609.389 175.111ZM608.323 173.213V173.201C608.323 172.574 608.745 172.234 609.706 172.176L611.393 172.07V172.645C611.393 173.547 610.637 174.227 609.6 174.227C608.868 174.227 608.323 173.852 608.323 173.213Z" fill="#4B4848"/>
<path d="M614.276 175H615.295V171.262C615.295 170.154 615.934 169.475 616.942 169.475C617.95 169.475 618.418 170.02 618.418 171.156V175H619.438V170.91C619.438 169.41 618.647 168.572 617.229 168.572C616.297 168.572 615.706 168.965 615.389 169.633H615.295V168.684H614.276V175Z" fill="#4B4848"/>
<path d="M623.885 177.227C625.608 177.227 626.698 176.324 626.698 174.912V168.684H625.678V169.727H625.608C625.221 169.012 624.53 168.572 623.639 168.572C621.987 168.572 620.967 169.855 620.967 171.625V171.637C620.967 173.406 621.981 174.672 623.616 174.672C624.483 174.672 625.198 174.279 625.596 173.582H625.69V174.859C625.69 175.791 625.016 176.324 623.885 176.324C622.977 176.324 622.415 175.984 622.303 175.504L622.297 175.498H621.243L621.231 175.504C621.389 176.541 622.362 177.227 623.885 177.227ZM623.838 173.77C622.667 173.77 622.01 172.891 622.01 171.637V171.625C622.01 170.371 622.667 169.475 623.838 169.475C625.004 169.475 625.713 170.371 625.713 171.625V171.637C625.713 172.891 625.01 173.77 623.838 173.77Z" fill="#4B4848"/>
<path d="M631.174 175.111C632.663 175.111 633.565 174.268 633.782 173.412L633.793 173.365H632.774L632.75 173.418C632.581 173.799 632.053 174.203 631.198 174.203C630.073 174.203 629.352 173.441 629.323 172.135H633.87V171.736C633.87 169.85 632.827 168.572 631.11 168.572C629.393 168.572 628.28 169.908 628.28 171.859V171.865C628.28 173.846 629.37 175.111 631.174 175.111ZM631.104 169.48C632.036 169.48 632.727 170.072 632.833 171.32H629.34C629.452 170.119 630.167 169.48 631.104 169.48Z" fill="#4B4848"/>
<path d="M68.9481 140V129.091H76.1711V130.993H71.2546V133.592H75.6917V135.494H71.2546V140H68.9481Z" fill="#393939"/>
<path d="M77.6799 140V131.818H79.9491V140H77.6799ZM78.8198 130.764C78.4825 130.764 78.1931 130.652 77.9516 130.428C77.7137 130.201 77.5947 129.929 77.5947 129.613C77.5947 129.301 77.7137 129.032 77.9516 128.809C78.1931 128.581 78.4825 128.468 78.8198 128.468C79.1572 128.468 79.4448 128.581 79.6828 128.809C79.9242 129.032 80.045 129.301 80.045 129.613C80.045 129.929 79.9242 130.201 79.6828 130.428C79.4448 130.652 79.1572 130.764 78.8198 130.764Z" fill="#393939"/>
<path d="M84.036 129.091V140H81.7668V129.091H84.036Z" fill="#393939"/>
<path d="M90.2057 131.818V133.523H85.2785V131.818H90.2057ZM86.3971 129.858H88.6663V137.486C88.6663 137.695 88.6982 137.859 88.7621 137.976C88.8261 138.09 88.9148 138.169 89.0285 138.216C89.1457 138.262 89.2806 138.285 89.4333 138.285C89.5398 138.285 89.6464 138.276 89.7529 138.258C89.8594 138.237 89.9411 138.221 89.9979 138.21L90.3548 139.899C90.2412 139.934 90.0814 139.975 89.8754 140.021C89.6694 140.071 89.4191 140.101 89.1243 140.112C88.5775 140.133 88.0981 140.06 87.6861 139.894C87.2778 139.727 86.9599 139.467 86.7327 139.116C86.5054 138.764 86.3935 138.32 86.3971 137.784V129.858Z" fill="#393939"/>
<path d="M95.3246 140.16C94.483 140.16 93.7586 139.989 93.1513 139.649C92.5476 139.304 92.0824 138.818 91.7557 138.189C91.429 137.557 91.2657 136.809 91.2657 135.946C91.2657 135.105 91.429 134.366 91.7557 133.731C92.0824 133.095 92.5423 132.6 93.1354 132.244C93.7319 131.889 94.4315 131.712 95.2341 131.712C95.7738 131.712 96.2763 131.799 96.7415 131.973C97.2103 132.143 97.6187 132.401 97.9667 132.745C98.3182 133.09 98.5917 133.523 98.787 134.045C98.9823 134.563 99.08 135.171 99.08 135.867V136.49H92.1712V135.084H96.9439C96.9439 134.757 96.8729 134.467 96.7309 134.215C96.5888 133.963 96.3917 133.766 96.1396 133.624C95.891 133.478 95.6016 133.406 95.2714 133.406C94.9269 133.406 94.6215 133.486 94.3552 133.645C94.0924 133.802 93.8864 134.013 93.7373 134.279C93.5881 134.542 93.5118 134.835 93.5082 135.158V136.495C93.5082 136.9 93.5828 137.25 93.7319 137.544C93.8846 137.839 94.0995 138.066 94.3765 138.226C94.6535 138.386 94.9819 138.466 95.3619 138.466C95.614 138.466 95.8449 138.43 96.0544 138.359C96.2639 138.288 96.4432 138.182 96.5924 138.04C96.7415 137.898 96.8552 137.724 96.9333 137.518L99.032 137.656C98.9255 138.161 98.7071 138.601 98.3768 138.977C98.0501 139.35 97.6275 139.641 97.1091 139.851C96.5942 140.057 95.9993 140.16 95.3246 140.16Z" fill="#393939"/>
<path d="M100.561 140V131.818H102.761V133.246H102.846C102.995 132.738 103.245 132.354 103.597 132.095C103.949 131.832 104.353 131.701 104.811 131.701C104.925 131.701 105.048 131.708 105.179 131.722C105.31 131.737 105.426 131.756 105.525 131.781V133.794C105.419 133.763 105.271 133.734 105.083 133.709C104.895 133.684 104.723 133.672 104.566 133.672C104.233 133.672 103.934 133.745 103.672 133.89C103.412 134.032 103.206 134.231 103.054 134.487C102.905 134.743 102.83 135.037 102.83 135.371V140H100.561Z" fill="#393939"/>
<path d="M113.506 134.151L111.429 134.279C111.393 134.102 111.317 133.942 111.2 133.8C111.082 133.654 110.928 133.539 110.736 133.454C110.548 133.365 110.322 133.32 110.06 133.32C109.708 133.32 109.412 133.395 109.17 133.544C108.929 133.69 108.808 133.885 108.808 134.13C108.808 134.325 108.886 134.491 109.042 134.625C109.198 134.76 109.467 134.869 109.847 134.95L111.327 135.249C112.123 135.412 112.716 135.675 113.106 136.037C113.497 136.399 113.692 136.875 113.692 137.465C113.692 138.001 113.534 138.471 113.218 138.876C112.906 139.281 112.476 139.597 111.929 139.824C111.386 140.048 110.759 140.16 110.049 140.16C108.966 140.16 108.103 139.934 107.46 139.483C106.821 139.029 106.446 138.411 106.336 137.63L108.568 137.513C108.636 137.843 108.799 138.095 109.058 138.269C109.317 138.439 109.649 138.525 110.054 138.525C110.452 138.525 110.772 138.448 111.013 138.296C111.258 138.139 111.382 137.939 111.386 137.694C111.382 137.488 111.295 137.319 111.125 137.188C110.955 137.053 110.692 136.95 110.337 136.879L108.92 136.596C108.121 136.437 107.526 136.16 107.135 135.765C106.748 135.371 106.555 134.869 106.555 134.258C106.555 133.732 106.697 133.28 106.981 132.9C107.268 132.52 107.671 132.227 108.19 132.021C108.712 131.815 109.323 131.712 110.022 131.712C111.056 131.712 111.869 131.93 112.462 132.367C113.059 132.804 113.407 133.399 113.506 134.151Z" fill="#393939"/>
</g>
</g>
<defs>
<filter id="filter0_d_625_11712" x="71" y="23" width="679" height="511" filterUnits="userSpaceOnUse" color-interpolation-filters="sRGB">
<feFlood flood-opacity="0" result="BackgroundImageFix"/>
<feColorMatrix in="SourceAlpha" type="matrix" values="0 0 0 0 0 0 0 0 0 0 0 0 0 0 0 0 0 0 127 0" result="hardAlpha"/>
<feOffset dy="10"/>
<feGaussianBlur stdDeviation="10"/>
<feComposite in2="hardAlpha" operator="out"/>
<feColorMatrix type="matrix" values="0 0 0 0 0 0 0 0 0 0 0 0 0 0 0 0 0 0 0.11 0"/>
<feBlend mode="normal" in2="BackgroundImageFix" result="effect1_dropShadow_625_11712"/>
<feBlend mode="normal" in="SourceGraphic" in2="effect1_dropShadow_625_11712" result="shape"/>
</filter>
<filter id="filter1_d_625_11712" x="71" y="23" width="679" height="511" filterUnits="userSpaceOnUse" color-interpolation-filters="sRGB">
<feFlood flood-opacity="0" result="BackgroundImageFix"/>
<feColorMatrix in="SourceAlpha" type="matrix" values="0 0 0 0 0 0 0 0 0 0 0 0 0 0 0 0 0 0 127 0" result="hardAlpha"/>
<feOffset dy="10"/>
<feGaussianBlur stdDeviation="10"/>
<feComposite in2="hardAlpha" operator="out"/>
<feColorMatrix type="matrix" values="0 0 0 0 0 0 0 0 0 0 0 0 0 0 0 0 0 0 0.11 0"/>
<feBlend mode="normal" in2="BackgroundImageFix" result="effect1_dropShadow_625_11712"/>
<feBlend mode="normal" in="SourceGraphic" in2="effect1_dropShadow_625_11712" result="shape"/>
</filter>
<filter id="filter2_d_625_11712" x="-5" y="73" width="787" height="203" filterUnits="userSpaceOnUse" color-interpolation-filters="sRGB">
<feFlood flood-opacity="0" result="BackgroundImageFix"/>
<feColorMatrix in="SourceAlpha" type="matrix" values="0 0 0 0 0 0 0 0 0 0 0 0 0 0 0 0 0 0 127 0" result="hardAlpha"/>
<feOffset dy="14"/>
<feGaussianBlur stdDeviation="27"/>
<feComposite in2="hardAlpha" operator="out"/>
<feColorMatrix type="matrix" values="0 0 0 0 0 0 0 0 0 0 0 0 0 0 0 0 0 0 0.11 0"/>
<feBlend mode="normal" in2="BackgroundImageFix" result="effect1_dropShadow_625_11712"/>
<feBlend mode="normal" in="SourceGraphic" in2="effect1_dropShadow_625_11712" result="shape"/>
</filter>
<clipPath id="clip0_625_11712">
<rect width="725" height="537" fill="white"/>
</clipPath>
</defs>
</svg>
