<svg width="725" height="537" viewBox="0 0 725 537" fill="none" xmlns="http://www.w3.org/2000/svg">
<g clip-path="url(#clip0_625_11712)">
<g filter="url(#filter0_d_625_11712)">
<rect x="88" y="41" width="639" height="471" fill="white"/>
<rect x="88.5" y="41.5" width="638" height="470" stroke="#E7E7E7"/>
</g>
<circle cx="139" cy="145" r="9" fill="#FFDEDE"/>
<g opacity="0.7">
<rect x="178" y="141" width="151.334" height="8.29379" fill="#D9D9D9"/>
<rect x="351.83" y="141" width="216.776" height="8.29379" fill="#D9D9D9"/>
<rect width="55.8983" height="8.29379" transform="matrix(-1 0 0 1 647 141)" fill="#D9D9D9"/>
</g>
<g opacity="0.7">
<rect x="178" y="213" width="151.334" height="8.29379" fill="#D9D9D9"/>
<rect x="351.83" y="213" width="216.776" height="8.29379" fill="#D9D9D9"/>
<rect width="55.8983" height="8.29379" transform="matrix(-1 0 0 1 647 213)" fill="#D9D9D9"/>
</g>
<g opacity="0.7">
<rect x="178" y="250" width="151.334" height="8.29379" fill="#D9D9D9"/>
<rect x="351.83" y="250" width="216.776" height="8.29379" fill="#D9D9D9"/>
<rect width="55.8983" height="8.29379" transform="matrix(-1 0 0 1 647 250)" fill="#D9D9D9"/>
</g>
<circle cx="138" cy="252" r="9" fill="#FFDEDE"/>
<circle cx="138" cy="293" r="9" fill="#FFDEDE"/>
<circle cx="138" cy="330" r="9" fill="#FFDEDE"/>
<circle cx="138" cy="367" r="9" fill="#FFDEDE"/>
<circle cx="138" cy="404" r="9" fill="#FFDEDE"/>
<circle cx="138" cy="441" r="9" fill="#FFDEDE"/>
<circle cx="138" cy="478" r="9" fill="#FFDEDE"/>
<g opacity="0.7">
<rect x="178" y="289" width="151.334" height="8.29379" fill="#D9D9D9"/>
<rect x="351.83" y="289" width="216.776" height="8.29379" fill="#D9D9D9"/>
<rect width="55.8983" height="8.29379" transform="matrix(-1 0 0 1 647 289)" fill="#D9D9D9"/>
</g>
<g opacity="0.7">
<rect x="178" y="326" width="151.334" height="8.29379" fill="#D9D9D9"/>
<rect x="351.83" y="326" width="216.776" height="8.29379" fill="#D9D9D9"/>
<rect width="55.8983" height="8.29379" transform="matrix(-1 0 0 1 647 326)" fill="#D9D9D9"/>
</g>
<g opacity="0.7">
<rect x="178" y="363" width="151.334" height="8.29379" fill="#D9D9D9"/>
<rect x="351.83" y="363" width="216.776" height="8.29379" fill="#D9D9D9"/>
<rect width="55.8983" height="8.29379" transform="matrix(-1 0 0 1 647 363)" fill="#D9D9D9"/>
</g>
<g opacity="0.7">
<rect x="178" y="400" width="151.334" height="8.29379" fill="#D9D9D9"/>
<rect x="351.83" y="400" width="216.776" height="8.29379" fill="#D9D9D9"/>
<rect width="55.8983" height="8.29379" transform="matrix(-1 0 0 1 647 400)" fill="#D9D9D9"/>
</g>
<g opacity="0.7">
<rect x="178" y="437" width="151.334" height="8.29379" fill="#D9D9D9"/>
<rect x="351.83" y="437" width="216.776" height="8.29379" fill="#D9D9D9"/>
<rect width="55.8983" height="8.29379" transform="matrix(-1 0 0 1 647 437)" fill="#D9D9D9"/>
</g>
<g opacity="0.7">
<rect x="178" y="474" width="151.334" height="8.29379" fill="#D9D9D9"/>
<rect x="351.83" y="474" width="216.776" height="8.29379" fill="#D9D9D9"/>
<rect width="55.8983" height="8.29379" transform="matrix(-1 0 0 1 647 474)" fill="#D9D9D9"/>
</g>
<path d="M134.128 97H130.613L137.013 78.8182H141.08L147.489 97H143.974L139.118 82.5469H138.975L134.128 97ZM134.244 89.8711H143.832V92.5167H134.244V89.8711ZM158.434 91.2649V83.3636H161.647V97H158.531V94.5763H158.389C158.081 95.3398 157.575 95.9643 156.871 96.4496C156.173 96.9349 155.311 97.1776 154.288 97.1776C153.394 97.1776 152.604 96.9793 151.917 96.5827C151.237 96.1803 150.704 95.5973 150.319 94.8338C149.934 94.0644 149.742 93.1352 149.742 92.0462V83.3636H152.956V91.549C152.956 92.4131 153.193 93.0997 153.666 93.6087C154.14 94.1177 154.761 94.3722 155.53 94.3722C156.004 94.3722 156.463 94.2567 156.907 94.0259C157.35 93.7951 157.714 93.4518 157.998 92.9961C158.289 92.5344 158.434 91.9574 158.434 91.2649ZM170.012 97.2397C168.941 97.2397 167.982 96.9645 167.136 96.4141C166.29 95.8636 165.621 95.0646 165.13 94.017C164.638 92.9695 164.393 91.697 164.393 90.1996C164.393 88.6844 164.641 87.406 165.138 86.3643C165.642 85.3168 166.319 84.5266 167.172 83.994C168.024 83.4554 168.974 83.1861 170.021 83.1861C170.82 83.1861 171.477 83.3222 171.992 83.5945C172.507 83.8608 172.915 84.1834 173.217 84.5621C173.519 84.935 173.753 85.2872 173.919 85.6186H174.052V78.8182H177.275V97H174.114V94.8516H173.919C173.753 95.183 173.513 95.5352 173.2 95.908C172.886 96.275 172.472 96.5887 171.957 96.8491C171.442 97.1095 170.794 97.2397 170.012 97.2397ZM170.909 94.603C171.59 94.603 172.17 94.4195 172.649 94.0526C173.129 93.6797 173.493 93.1618 173.741 92.4989C173.99 91.8361 174.114 91.0637 174.114 90.1818C174.114 89.3 173.99 88.5335 173.741 87.8825C173.498 87.2314 173.137 86.7254 172.658 86.3643C172.185 86.0033 171.602 85.8228 170.909 85.8228C170.193 85.8228 169.595 86.0092 169.116 86.3821C168.636 86.755 168.275 87.2699 168.033 87.9268C167.79 88.5838 167.669 89.3355 167.669 90.1818C167.669 91.0341 167.79 91.7946 168.033 92.4634C168.281 93.1263 168.645 93.6501 169.125 94.0348C169.61 94.4136 170.205 94.603 170.909 94.603ZM180.699 97V83.3636H183.913V97H180.699ZM182.315 81.4283C181.806 81.4283 181.368 81.2596 181.001 80.9222C180.634 80.579 180.451 80.1676 180.451 79.6882C180.451 79.2029 180.634 78.7915 181.001 78.4542C181.368 78.1109 181.806 77.9393 182.315 77.9393C182.83 77.9393 183.268 78.1109 183.629 78.4542C183.996 78.7915 184.179 79.2029 184.179 79.6882C184.179 80.1676 183.996 80.579 183.629 80.9222C183.268 81.2596 182.83 81.4283 182.315 81.4283ZM194.027 83.3636V85.8494H186.188V83.3636H194.027ZM188.123 80.0966H191.337V92.8984C191.337 93.3305 191.402 93.6619 191.532 93.8928C191.668 94.1177 191.846 94.2715 192.065 94.3544C192.284 94.4373 192.527 94.4787 192.793 94.4787C192.994 94.4787 193.178 94.4639 193.343 94.4343C193.515 94.4047 193.645 94.3781 193.734 94.3544L194.276 96.8668C194.104 96.926 193.858 96.9911 193.539 97.0621C193.225 97.1332 192.84 97.1746 192.385 97.1864C191.58 97.2101 190.855 97.0888 190.21 96.8224C189.564 96.5502 189.052 96.13 188.674 95.5618C188.301 94.9936 188.117 94.2834 188.123 93.4311V80.0966ZM203.058 97V78.8182H206.352V94.239H214.359V97H203.058ZM223.024 97.2663C221.693 97.2663 220.538 96.9734 219.562 96.3874C218.585 95.8015 217.828 94.9818 217.289 93.9283C216.756 92.8748 216.49 91.6437 216.49 90.2351C216.49 88.8265 216.756 87.5924 217.289 86.533C217.828 85.4736 218.585 84.6509 219.562 84.065C220.538 83.479 221.693 83.1861 223.024 83.1861C224.356 83.1861 225.51 83.479 226.487 84.065C227.463 84.6509 228.218 85.4736 228.75 86.533C229.289 87.5924 229.558 88.8265 229.558 90.2351C229.558 91.6437 229.289 92.8748 228.75 93.9283C228.218 94.9818 227.463 95.8015 226.487 96.3874C225.51 96.9734 224.356 97.2663 223.024 97.2663ZM223.042 94.6918C223.764 94.6918 224.368 94.4935 224.853 94.0969C225.338 93.6945 225.699 93.1559 225.936 92.4812C226.179 91.8065 226.3 91.0548 226.3 90.2262C226.3 89.3917 226.179 88.6371 225.936 87.9624C225.699 87.2817 225.338 86.7402 224.853 86.3377C224.368 85.9353 223.764 85.734 223.042 85.734C222.302 85.734 221.687 85.9353 221.195 86.3377C220.71 86.7402 220.346 87.2817 220.103 87.9624C219.867 88.6371 219.748 89.3917 219.748 90.2262C219.748 91.0548 219.867 91.8065 220.103 92.4812C220.346 93.1559 220.71 93.6945 221.195 94.0969C221.687 94.4935 222.302 94.6918 223.042 94.6918ZM238.216 102.398C237.062 102.398 236.071 102.241 235.242 101.927C234.414 101.619 233.748 101.205 233.245 100.684C232.742 100.163 232.393 99.5864 232.197 98.9531L235.091 98.2518C235.222 98.5181 235.411 98.7815 235.66 99.0419C235.908 99.3082 236.243 99.5272 236.663 99.6989C237.089 99.8764 237.625 99.9652 238.27 99.9652C239.181 99.9652 239.936 99.7433 240.534 99.2994C241.131 98.8614 241.43 98.1393 241.43 97.1332V94.5497H241.27C241.105 94.8812 240.862 95.2215 240.542 95.5707C240.229 95.9199 239.811 96.2128 239.291 96.4496C238.776 96.6863 238.128 96.8047 237.346 96.8047C236.299 96.8047 235.349 96.5591 234.497 96.0678C233.65 95.5707 232.976 94.8308 232.472 93.8484C231.975 92.86 231.727 91.623 231.727 90.1374C231.727 88.64 231.975 87.3764 232.472 86.3466C232.976 85.3108 233.653 84.5266 234.506 83.994C235.358 83.4554 236.308 83.1861 237.355 83.1861C238.154 83.1861 238.811 83.3222 239.326 83.5945C239.847 83.8608 240.261 84.1834 240.569 84.5621C240.877 84.935 241.111 85.2872 241.27 85.6186H241.448V83.3636H244.617V97.2219C244.617 98.3879 244.339 99.3526 243.783 100.116C243.227 100.88 242.466 101.451 241.501 101.83C240.537 102.208 239.442 102.398 238.216 102.398ZM238.243 94.2834C238.924 94.2834 239.504 94.1177 239.983 93.7862C240.463 93.4548 240.827 92.9783 241.075 92.3569C241.324 91.7354 241.448 90.9897 241.448 90.1197C241.448 89.2615 241.324 88.5098 241.075 87.8647C240.832 87.2196 240.471 86.7195 239.992 86.3643C239.519 86.0033 238.936 85.8228 238.243 85.8228C237.527 85.8228 236.929 86.0092 236.45 86.3821C235.97 86.755 235.609 87.2669 235.367 87.918C235.124 88.5631 235.003 89.297 235.003 90.1197C235.003 90.9542 235.124 91.6851 235.367 92.3125C235.615 92.9339 235.979 93.4193 236.459 93.7685C236.944 94.1117 237.539 94.2834 238.243 94.2834ZM258.689 86.968L255.759 87.2876C255.676 86.9917 255.531 86.7135 255.324 86.4531C255.123 86.1927 254.851 85.9826 254.507 85.8228C254.164 85.663 253.744 85.5831 253.247 85.5831C252.578 85.5831 252.016 85.7281 251.56 86.0181C251.11 86.3081 250.888 86.6839 250.894 87.1456C250.888 87.5421 251.033 87.8647 251.329 88.1133C251.631 88.3619 252.128 88.5661 252.82 88.7259L255.146 89.223C256.437 89.5012 257.396 89.9421 258.023 90.5458C258.656 91.1495 258.976 91.9396 258.982 92.9162C258.976 93.7744 258.724 94.532 258.227 95.1889C257.736 95.84 257.052 96.349 256.176 96.7159C255.3 97.0829 254.294 97.2663 253.158 97.2663C251.489 97.2663 250.145 96.9171 249.127 96.2188C248.109 95.5144 247.503 94.5349 247.307 93.2802L250.441 92.9783C250.583 93.5939 250.885 94.0585 251.347 94.3722C251.808 94.6858 252.409 94.8427 253.149 94.8427C253.912 94.8427 254.525 94.6858 254.987 94.3722C255.454 94.0585 255.688 93.6708 255.688 93.2092C255.688 92.8185 255.537 92.496 255.235 92.2415C254.939 91.987 254.478 91.7917 253.85 91.6555L251.524 91.1673C250.216 90.895 249.249 90.4363 248.621 89.7912C247.994 89.1402 247.683 88.3175 247.689 87.3232C247.683 86.4827 247.911 85.7547 248.373 85.1392C248.84 84.5178 249.488 84.0384 250.317 83.701C251.151 83.3577 252.113 83.1861 253.202 83.1861C254.8 83.1861 256.058 83.5264 256.975 84.207C257.899 84.8877 258.47 85.808 258.689 86.968Z" fill="#393939"/>
<circle cx="139" cy="215" r="9" fill="#FFDEDE"/>
<g filter="url(#filter1_d_625_11712)">
<rect width="679" height="95" transform="translate(46 121)" fill="white"/>
<g opacity="0.5">
<rect x="224" y="162" width="157" height="34" fill="white"/>
<path d="M369.589 179.193L372.307 176.475L373.083 177.251L369.589 180.745L366.095 177.251L366.871 176.475L369.589 179.193Z" fill="#575757"/>
<rect x="224" y="162" width="157" height="34" stroke="#B3B3B3" stroke-width="0.83"/>
</g>
<g opacity="0.5">
<rect x="65" y="162" width="150" height="34" fill="white"/>
<path d="M204.589 179.193L207.307 176.475L208.083 177.251L204.589 180.745L201.094 177.251L201.871 176.475L204.589 179.193Z" fill="#575757"/>
<rect x="65" y="162" width="150" height="34" stroke="#B3B3B3" stroke-width="0.83"/>
</g>
<path d="M78.4697 183.197C79.0032 183.197 79.4973 183.112 79.9297 182.944L80.6147 183.876H81.9119L80.845 182.422C81.7434 181.697 82.2488 180.49 82.2488 178.951V178.94C82.2488 176.34 80.8 174.701 78.4697 174.701C76.145 174.701 74.6851 176.335 74.6851 178.94V178.951C74.6851 181.551 76.1113 183.197 78.4697 183.197ZM78.4697 182.085C76.9087 182.085 75.9709 180.849 75.9709 178.951V178.94C75.9709 177.025 76.9368 175.812 78.4697 175.812C80.0027 175.812 80.9629 177.025 80.9629 178.94V178.951C80.9629 180.024 80.6597 180.889 80.115 181.433L79.4692 180.557H78.1721L79.2166 181.972C78.9863 182.045 78.7336 182.085 78.4697 182.085ZM85.6266 183.118C86.5138 183.118 87.1315 182.736 87.4235 182.079H87.5189V183H88.7318V176.902H87.5189V180.479C87.5189 181.461 86.9967 182.073 86.0197 182.073C85.1269 182.073 84.7562 181.574 84.7562 180.563V176.902H83.5377V180.849C83.5377 182.292 84.2509 183.118 85.6266 183.118ZM92.8284 183.118C94.3894 183.118 95.2317 182.219 95.4339 181.417L95.4451 181.366L94.2715 181.372L94.2491 181.417C94.1031 181.731 93.637 182.118 92.8565 182.118C91.8514 182.118 91.2112 181.439 91.1888 180.271H95.5125V179.844C95.5125 178.014 94.4681 176.784 92.7666 176.784C91.0652 176.784 89.9646 178.059 89.9646 179.962V179.968C89.9646 181.899 91.0428 183.118 92.8284 183.118ZM92.7723 177.783C93.5977 177.783 94.2098 178.311 94.3052 179.401H91.2056C91.3123 178.351 91.9412 177.783 92.7723 177.783ZM96.7397 183H97.9582V179.356C97.9582 178.474 98.5927 177.901 99.5248 177.901C99.7551 177.901 99.9628 177.929 100.182 177.974V176.851C100.058 176.823 99.8449 176.795 99.6484 176.795C98.8342 176.795 98.267 177.177 98.048 177.823H97.9582V176.902H96.7397V183ZM101.796 185.145C103.032 185.145 103.649 184.69 104.166 183.236L106.435 176.902H105.154L103.633 181.776H103.526L101.999 176.902H100.685L102.897 183.006L102.807 183.32C102.628 183.938 102.285 184.179 101.718 184.179C101.577 184.179 101.426 184.174 101.308 184.157V185.117C101.465 185.134 101.645 185.145 101.796 185.145ZM110.512 183H115.655V181.916H111.77V179.395H115.448V178.351H111.77V175.981H115.655V174.897H110.512V183ZM116.641 183H117.966L119.303 180.799H119.393L120.729 183H122.116L120.078 179.912L122.094 176.902H120.746L119.443 179.081H119.348L118.034 176.902H116.624L118.668 179.962L116.641 183ZM125.415 183.118C126.976 183.118 127.819 182.219 128.021 181.417L128.032 181.366L126.858 181.372L126.836 181.417C126.69 181.731 126.224 182.118 125.443 182.118C124.438 182.118 123.798 181.439 123.776 180.271H128.099V179.844C128.099 178.014 127.055 176.784 125.353 176.784C123.652 176.784 122.551 178.059 122.551 179.962V179.968C122.551 181.899 123.63 183.118 125.415 183.118ZM125.359 177.783C126.184 177.783 126.797 178.311 126.892 179.401H123.792C123.899 178.351 124.528 177.783 125.359 177.783ZM131.893 183.118C133.403 183.118 134.273 182.304 134.492 181.119L134.504 181.068H133.336L133.325 181.096C133.128 181.753 132.656 182.102 131.893 182.102C130.888 182.102 130.264 181.282 130.264 179.934V179.923C130.264 178.609 130.876 177.8 131.893 177.8C132.701 177.8 133.195 178.25 133.33 178.85L133.336 178.867L134.504 178.862V178.833C134.335 177.649 133.42 176.784 131.887 176.784C130.107 176.784 129.023 177.991 129.023 179.923V179.934C129.023 181.905 130.113 183.118 131.893 183.118ZM137.696 183.118C138.583 183.118 139.201 182.736 139.493 182.079H139.589V183H140.801V176.902H139.589V180.479C139.589 181.461 139.066 182.073 138.089 182.073C137.196 182.073 136.826 181.574 136.826 180.563V176.902H135.607V180.849C135.607 182.292 136.321 183.118 137.696 183.118ZM144.64 183.039C144.876 183.039 145.1 183.011 145.297 182.978V182.006C145.128 182.023 145.022 182.029 144.836 182.029C144.235 182.029 143.988 181.759 143.988 181.102V177.862H145.297V176.902H143.988V175.363H142.747V176.902H141.793V177.862H142.747V181.394C142.747 182.568 143.298 183.039 144.64 183.039ZM148.989 183.118C150.55 183.118 151.392 182.219 151.594 181.417L151.606 181.366L150.432 181.372L150.41 181.417C150.264 181.731 149.798 182.118 149.017 182.118C148.012 182.118 147.372 181.439 147.349 180.271H151.673V179.844C151.673 178.014 150.629 176.784 148.927 176.784C147.226 176.784 146.125 178.059 146.125 179.962V179.968C146.125 181.899 147.203 183.118 148.989 183.118ZM148.933 177.783C149.758 177.783 150.37 178.311 150.466 179.401H147.366C147.473 178.351 148.102 177.783 148.933 177.783ZM155.124 183.101C155.977 183.101 156.646 182.708 156.999 182.04H157.095V183H158.308V174.51H157.095V177.868H156.999C156.674 177.211 155.961 176.795 155.124 176.795C153.574 176.795 152.597 178.014 152.597 179.945V179.957C152.597 181.871 153.591 183.101 155.124 183.101ZM155.472 182.062C154.45 182.062 153.838 181.265 153.838 179.957V179.945C153.838 178.637 154.45 177.84 155.472 177.84C156.483 177.84 157.112 178.643 157.112 179.945V179.957C157.112 181.259 156.488 182.062 155.472 182.062Z" fill="#4B4848"/>
<rect x="555" y="162" width="160" height="34" fill="white"/>
<path d="M567.938 183.197C569.528 183.197 570.465 182.259 570.465 180.664V174.897H569.208V180.653C569.208 181.574 568.758 182.073 567.927 182.073C567.175 182.073 566.787 181.591 566.737 180.973L566.731 180.922H565.49L565.496 180.99C565.563 182.281 566.439 183.197 567.938 183.197ZM574.163 183.118C575.05 183.118 575.668 182.736 575.96 182.079H576.056V183H577.268V176.902H576.056V180.479C576.056 181.461 575.533 182.073 574.556 182.073C573.663 182.073 573.293 181.574 573.293 180.563V176.902H572.074V180.849C572.074 182.292 572.787 183.118 574.163 183.118ZM578.804 183H580.023V179.423C580.023 178.44 580.579 177.828 581.472 177.828C582.365 177.828 582.786 178.328 582.786 179.339V183H583.999V179.052C583.999 177.598 583.246 176.784 581.882 176.784C580.994 176.784 580.41 177.177 580.113 177.828H580.023V176.902H578.804V183ZM591.394 183.197C593.096 183.197 594.326 182.006 594.326 180.378V180.366C594.326 178.817 593.219 177.671 591.675 177.671C590.569 177.671 589.839 178.25 589.541 178.901H589.435C589.435 178.839 589.435 178.777 589.44 178.716C589.502 177.098 590.069 175.768 591.434 175.768C592.197 175.768 592.725 176.161 592.95 176.778L592.972 176.834H594.219L594.208 176.767C593.938 175.543 592.871 174.701 591.439 174.701C589.435 174.701 588.239 176.318 588.239 179.058V179.069C588.239 182.051 589.766 183.197 591.394 183.197ZM589.682 180.378V180.372C589.682 179.395 590.423 178.688 591.394 178.688C592.377 178.688 593.085 179.406 593.085 180.4V180.411C593.085 181.383 592.332 182.141 591.383 182.141C590.429 182.141 589.682 181.366 589.682 180.378ZM598.627 183H604.085V181.927H600.34V181.815L602.058 180.103C603.529 178.643 603.956 177.935 603.956 177.014V176.997C603.956 175.661 602.844 174.701 601.334 174.701C599.705 174.701 598.56 175.745 598.554 177.228L598.566 177.239H599.745L599.75 177.222C599.75 176.335 600.357 175.74 601.266 175.74C602.154 175.74 602.698 176.323 602.698 177.115V177.132C602.698 177.789 602.39 178.205 601.317 179.322L598.627 182.146V183ZM608.373 183.197C610.237 183.197 611.366 181.562 611.366 178.951V178.94C611.366 176.329 610.237 174.701 608.373 174.701C606.503 174.701 605.38 176.329 605.38 178.94V178.951C605.38 181.562 606.503 183.197 608.373 183.197ZM608.373 182.152C607.283 182.152 606.649 180.934 606.649 178.951V178.94C606.649 176.958 607.283 175.751 608.373 175.751C609.457 175.751 610.097 176.958 610.097 178.94V178.951C610.097 180.934 609.457 182.152 608.373 182.152ZM612.761 183H618.219V181.927H614.474V181.815L616.192 180.103C617.663 178.643 618.09 177.935 618.09 177.014V176.997C618.09 175.661 616.978 174.701 615.468 174.701C613.84 174.701 612.694 175.745 612.688 177.228L612.7 177.239H613.879L613.884 177.222C613.884 176.335 614.491 175.74 615.401 175.74C616.288 175.74 616.832 176.323 616.832 177.115V177.132C616.832 177.789 616.524 178.205 615.451 179.322L612.761 182.146V183ZM619.649 183H625.107V181.927H621.361V181.815L623.08 180.103C624.551 178.643 624.978 177.935 624.978 177.014V176.997C624.978 175.661 623.866 174.701 622.355 174.701C620.727 174.701 619.581 175.745 619.576 177.228L619.587 177.239H620.766L620.772 177.222C620.772 176.335 621.378 175.74 622.288 175.74C623.175 175.74 623.72 176.323 623.72 177.115V177.132C623.72 177.789 623.411 178.205 622.338 179.322L619.649 182.146V183ZM638.034 178.94C638.034 178.794 637.966 178.648 637.854 178.542L634.979 175.667C634.855 175.554 634.726 175.498 634.591 175.498C634.288 175.498 634.064 175.717 634.064 176.015C634.064 176.166 634.125 176.295 634.221 176.396L635.046 177.233L636.411 178.474L635.372 178.407H630.251C629.925 178.407 629.706 178.626 629.706 178.94C629.706 179.255 629.925 179.479 630.251 179.479H635.372L636.416 179.406L635.046 180.653L634.221 181.484C634.125 181.585 634.064 181.714 634.064 181.866C634.064 182.163 634.288 182.382 634.591 182.382C634.726 182.382 634.855 182.326 634.973 182.214L637.854 179.339C637.966 179.232 638.034 179.086 638.034 178.94ZM646.333 183.197C648.675 183.197 650.112 181.546 650.112 178.951V178.94C650.112 176.34 648.664 174.701 646.333 174.701C644.009 174.701 642.549 176.335 642.549 178.94V178.951C642.549 181.551 643.975 183.197 646.333 183.197ZM646.333 182.085C644.772 182.085 643.835 180.849 643.835 178.951V178.94C643.835 177.025 644.8 175.812 646.333 175.812C647.866 175.812 648.827 177.025 648.827 178.94V178.951C648.827 180.849 647.872 182.085 646.333 182.085ZM654.024 183.118C655.534 183.118 656.405 182.304 656.624 181.119L656.635 181.068H655.467L655.456 181.096C655.259 181.753 654.787 182.102 654.024 182.102C653.019 182.102 652.395 181.282 652.395 179.934V179.923C652.395 178.609 653.007 177.8 654.024 177.8C654.832 177.8 655.326 178.25 655.461 178.85L655.467 178.867L656.635 178.862V178.833C656.466 177.649 655.551 176.784 654.018 176.784C652.238 176.784 651.154 177.991 651.154 179.923V179.934C651.154 181.905 652.244 183.118 654.024 183.118ZM660.187 183.039C660.423 183.039 660.647 183.011 660.844 182.978V182.006C660.675 182.023 660.569 182.029 660.383 182.029C659.782 182.029 659.535 181.759 659.535 181.102V177.862H660.844V176.902H659.535V175.363H658.294V176.902H657.34V177.862H658.294V181.394C658.294 182.568 658.845 183.039 660.187 183.039ZM664.966 183H670.424V181.927H666.678V181.815L668.397 180.103C669.868 178.643 670.295 177.935 670.295 177.014V176.997C670.295 175.661 669.183 174.701 667.672 174.701C666.044 174.701 664.898 175.745 664.893 177.228L664.904 177.239H666.083L666.089 177.222C666.089 176.335 666.695 175.74 667.605 175.74C668.492 175.74 669.037 176.323 669.037 177.115V177.132C669.037 177.789 668.728 178.205 667.655 179.322L664.966 182.146V183ZM671.853 183H677.311V181.927H673.566V181.815L675.284 180.103C676.755 178.643 677.182 177.935 677.182 177.014V176.997C677.182 175.661 676.07 174.701 674.56 174.701C672.931 174.701 671.786 175.745 671.78 177.228L671.791 177.239H672.971L672.976 177.222C672.976 176.335 673.583 175.74 674.492 175.74C675.379 175.74 675.924 176.323 675.924 177.115V177.132C675.924 177.789 675.615 178.205 674.543 179.322L671.853 182.146V183ZM681.663 183H687.121V181.927H683.376V181.815L685.094 180.103C686.566 178.643 686.992 177.935 686.992 177.014V176.997C686.992 175.661 685.881 174.701 684.37 174.701C682.742 174.701 681.596 175.745 681.59 177.228L681.602 177.239H682.781L682.787 177.222C682.787 176.335 683.393 175.74 684.303 175.74C685.19 175.74 685.735 176.323 685.735 177.115V177.132C685.735 177.789 685.426 178.205 684.353 179.322L681.663 182.146V183ZM691.409 183.197C693.273 183.197 694.402 181.562 694.402 178.951V178.94C694.402 176.329 693.273 174.701 691.409 174.701C689.539 174.701 688.416 176.329 688.416 178.94V178.951C688.416 181.562 689.539 183.197 691.409 183.197ZM691.409 182.152C690.32 182.152 689.685 180.934 689.685 178.951V178.94C689.685 176.958 690.32 175.751 691.409 175.751C692.493 175.751 693.133 176.958 693.133 178.94V178.951C693.133 180.934 692.493 182.152 691.409 182.152ZM695.798 183H701.256V181.927H697.51V181.815L699.228 180.103C700.7 178.643 701.126 177.935 701.126 177.014V176.997C701.126 175.661 700.015 174.701 698.504 174.701C696.876 174.701 695.73 175.745 695.725 177.228L695.736 177.239H696.915L696.921 177.222C696.921 176.335 697.527 175.74 698.437 175.74C699.324 175.74 699.869 176.323 699.869 177.115V177.132C699.869 177.789 699.56 178.205 698.487 179.322L695.798 182.146V183ZM702.685 183H708.143V181.927H704.398V181.815L706.116 180.103C707.587 178.643 708.014 177.935 708.014 177.014V176.997C708.014 175.661 706.902 174.701 705.391 174.701C703.763 174.701 702.618 175.745 702.612 177.228L702.623 177.239H703.802L703.808 177.222C703.808 176.335 704.414 175.74 705.324 175.74C706.211 175.74 706.756 176.323 706.756 177.115V177.132C706.756 177.789 706.447 178.205 705.375 179.322L702.685 182.146V183Z" fill="#4B4848"/>
<rect x="555" y="162" width="160" height="34" stroke="#D7D7D7" stroke-width="0.83"/>
<path d="M234.886 183H236.104V179.356C236.104 178.474 236.739 177.901 237.671 177.901C237.901 177.901 238.109 177.929 238.328 177.974V176.851C238.204 176.823 237.991 176.795 237.794 176.795C236.98 176.795 236.413 177.177 236.194 177.823H236.104V176.902H234.886V183ZM241.694 183.118C243.48 183.118 244.575 181.922 244.575 179.957V179.945C244.575 177.98 243.475 176.784 241.694 176.784C239.909 176.784 238.808 177.986 238.808 179.945V179.957C238.808 181.922 239.903 183.118 241.694 183.118ZM241.694 182.102C240.644 182.102 240.055 181.31 240.055 179.957V179.945C240.055 178.592 240.644 177.8 241.694 177.8C242.739 177.8 243.334 178.592 243.334 179.945V179.957C243.334 181.304 242.739 182.102 241.694 182.102ZM245.808 183H247.026V179.255C247.026 178.457 247.571 177.828 248.307 177.828C249.025 177.828 249.48 178.266 249.48 178.963V183H250.693V179.142C250.693 178.407 251.204 177.828 251.979 177.828C252.776 177.828 253.158 178.244 253.158 179.086V183H254.371V178.794C254.371 177.525 253.652 176.784 252.423 176.784C251.575 176.784 250.873 177.216 250.564 177.873H250.469C250.199 177.216 249.609 176.784 248.778 176.784C247.981 176.784 247.386 177.171 247.116 177.84H247.026V176.902H245.808V183ZM256.486 175.812C256.901 175.812 257.249 175.47 257.249 175.054C257.249 174.633 256.901 174.291 256.486 174.291C256.064 174.291 255.722 174.633 255.722 175.054C255.722 175.47 256.064 175.812 256.486 175.812ZM255.873 183H257.086V176.902H255.873V183ZM258.639 183H259.858V179.423C259.858 178.44 260.414 177.828 261.306 177.828C262.199 177.828 262.62 178.328 262.62 179.339V183H263.833V179.052C263.833 177.598 263.081 176.784 261.716 176.784C260.829 176.784 260.245 177.177 259.948 177.828H259.858V176.902H258.639V183ZM266.987 183.101C267.795 183.101 268.435 182.753 268.795 182.135H268.89V183H270.097V178.828C270.097 177.548 269.233 176.784 267.7 176.784C266.313 176.784 265.353 177.452 265.207 178.452L265.201 178.491H266.374L266.38 178.469C266.526 178.036 266.97 177.789 267.644 177.789C268.469 177.789 268.89 178.16 268.89 178.828V179.367L267.239 179.462C265.785 179.552 264.965 180.187 264.965 181.276V181.287C264.965 182.394 265.824 183.101 266.987 183.101ZM266.178 181.237V181.226C266.178 180.675 266.56 180.372 267.402 180.322L268.89 180.226V180.748C268.89 181.534 268.222 182.13 267.312 182.13C266.655 182.13 266.178 181.798 266.178 181.237ZM276.26 184.28C276.929 184.28 277.569 184.19 278.052 184.033V183.253C277.715 183.404 277.007 183.5 276.3 183.5C273.902 183.5 272.363 181.989 272.363 179.636V179.625C272.363 177.323 273.919 175.689 276.103 175.689C278.31 175.689 279.804 177.053 279.804 179.081V179.092C279.804 180.383 279.382 181.22 278.72 181.22C278.338 181.22 278.125 180.99 278.125 180.597V177.407H277.17V178.087H277.075C276.856 177.593 276.356 177.295 275.766 177.295C274.621 177.295 273.835 178.238 273.835 179.597V179.608C273.835 181.029 274.615 181.984 275.783 181.984C276.44 181.984 276.929 181.675 277.164 181.102H277.26L277.265 181.136C277.372 181.675 277.872 182.023 278.535 182.023C279.849 182.023 280.68 180.877 280.68 179.064V179.052C280.68 176.61 278.832 174.914 276.165 174.914C273.391 174.914 271.487 176.818 271.487 179.592V179.603C271.487 182.45 273.352 184.28 276.26 184.28ZM275.963 181.108C275.283 181.108 274.868 180.546 274.868 179.636V179.625C274.868 178.704 275.278 178.154 275.974 178.154C276.676 178.154 277.125 178.727 277.125 179.625V179.636C277.125 180.535 276.676 181.108 275.963 181.108ZM284.535 183.118C286.096 183.118 286.938 182.219 287.14 181.417L287.151 181.366L285.978 181.372L285.955 181.417C285.809 181.731 285.343 182.118 284.563 182.118C283.558 182.118 282.917 181.439 282.895 180.271H287.219V179.844C287.219 178.014 286.174 176.784 284.473 176.784C282.771 176.784 281.671 178.059 281.671 179.962V179.968C281.671 181.899 282.749 183.118 284.535 183.118ZM284.479 177.783C285.304 177.783 285.916 178.311 286.011 179.401H282.912C283.019 178.351 283.647 177.783 284.479 177.783ZM287.738 183H289.064L290.4 180.799H290.49L291.826 183H293.213L291.175 179.912L293.191 176.902H291.843L290.54 179.081H290.445L289.131 176.902H287.722L289.766 179.962L287.738 183ZM295.895 183.101C296.703 183.101 297.344 182.753 297.703 182.135H297.798V183H299.006V178.828C299.006 177.548 298.141 176.784 296.608 176.784C295.221 176.784 294.261 177.452 294.115 178.452L294.109 178.491H295.283L295.288 178.469C295.434 178.036 295.878 177.789 296.552 177.789C297.377 177.789 297.798 178.16 297.798 178.828V179.367L296.148 179.462C294.693 179.552 293.873 180.187 293.873 181.276V181.287C293.873 182.394 294.732 183.101 295.895 183.101ZM295.086 181.237V181.226C295.086 180.675 295.468 180.372 296.31 180.322L297.798 180.226V180.748C297.798 181.534 297.13 182.13 296.221 182.13C295.564 182.13 295.086 181.798 295.086 181.237ZM300.502 183H301.721V179.255C301.721 178.457 302.266 177.828 303.001 177.828C303.72 177.828 304.175 178.266 304.175 178.963V183H305.388V179.142C305.388 178.407 305.899 177.828 306.674 177.828C307.471 177.828 307.853 178.244 307.853 179.086V183H309.066V178.794C309.066 177.525 308.347 176.784 307.117 176.784C306.269 176.784 305.567 177.216 305.258 177.873H305.163C304.894 177.216 304.304 176.784 303.473 176.784C302.675 176.784 302.08 177.171 301.811 177.84H301.721V176.902H300.502V183ZM310.546 185.033H311.764V182.034H311.854C312.18 182.691 312.893 183.101 313.729 183.101C315.279 183.101 316.256 181.888 316.256 179.957V179.945C316.256 178.025 315.268 176.795 313.729 176.795C312.876 176.795 312.208 177.194 311.854 177.862H311.764V176.902H310.546V185.033ZM313.387 182.062C312.37 182.062 311.742 181.259 311.742 179.957V179.945C311.742 178.643 312.37 177.84 313.387 177.84C314.403 177.84 315.015 178.631 315.015 179.945V179.957C315.015 181.265 314.403 182.062 313.387 182.062ZM317.556 183H318.775V174.51H317.556V183ZM322.928 183.118C324.489 183.118 325.331 182.219 325.533 181.417L325.544 181.366L324.371 181.372L324.348 181.417C324.202 181.731 323.736 182.118 322.956 182.118C321.951 182.118 321.31 181.439 321.288 180.271H325.612V179.844C325.612 178.014 324.567 176.784 322.866 176.784C321.164 176.784 320.064 178.059 320.064 179.962V179.968C320.064 181.899 321.142 183.118 322.928 183.118ZM322.871 177.783C323.697 177.783 324.309 178.311 324.404 179.401H321.305C321.412 178.351 322.04 177.783 322.871 177.783ZM327.777 183.084C328.243 183.084 328.596 182.725 328.596 182.27C328.596 181.81 328.243 181.45 327.777 181.45C327.311 181.45 326.951 181.81 326.951 182.27C326.951 182.725 327.311 183.084 327.777 183.084ZM332.586 183.118C334.097 183.118 334.967 182.304 335.186 181.119L335.197 181.068H334.029L334.018 181.096C333.822 181.753 333.35 182.102 332.586 182.102C331.581 182.102 330.958 181.282 330.958 179.934V179.923C330.958 178.609 331.57 177.8 332.586 177.8C333.395 177.8 333.889 178.25 334.024 178.85L334.029 178.867L335.197 178.862V178.833C335.029 177.649 334.114 176.784 332.581 176.784C330.801 176.784 329.717 177.991 329.717 179.923V179.934C329.717 181.905 330.806 183.118 332.586 183.118ZM338.94 183.118C340.726 183.118 341.821 181.922 341.821 179.957V179.945C341.821 177.98 340.72 176.784 338.94 176.784C337.155 176.784 336.054 177.986 336.054 179.945V179.957C336.054 181.922 337.149 183.118 338.94 183.118ZM338.94 182.102C337.89 182.102 337.301 181.31 337.301 179.957V179.945C337.301 178.592 337.89 177.8 338.94 177.8C339.985 177.8 340.58 178.592 340.58 179.945V179.957C340.58 181.304 339.985 182.102 338.94 182.102ZM343.054 183H344.272V179.255C344.272 178.457 344.817 177.828 345.552 177.828C346.271 177.828 346.726 178.266 346.726 178.963V183H347.939V179.142C347.939 178.407 348.45 177.828 349.225 177.828C350.022 177.828 350.404 178.244 350.404 179.086V183H351.617V178.794C351.617 177.525 350.898 176.784 349.668 176.784C348.821 176.784 348.119 177.216 347.81 177.873H347.714C347.445 177.216 346.855 176.784 346.024 176.784C345.227 176.784 344.632 177.171 344.362 177.84H344.272V176.902H343.054V183Z" fill="#4B4848"/>
<g opacity="0.5">
<rect x="390" y="162" width="156" height="34" fill="white"/>
<path d="M532.589 179.193L535.307 176.475L536.083 177.251L532.589 180.745L529.094 177.251L529.871 176.475L532.589 179.193Z" fill="#575757"/>
<rect x="390" y="162" width="156" height="34" stroke="#B3B3B3" stroke-width="0.83"/>
</g>
<path d="M402.889 183.197C404.59 183.197 405.82 182.006 405.82 180.378V180.366C405.82 178.817 404.714 177.671 403.17 177.671C402.063 177.671 401.333 178.25 401.036 178.901H400.929C400.929 178.839 400.929 178.777 400.935 178.716C400.997 177.098 401.564 175.768 402.928 175.768C403.692 175.768 404.22 176.161 404.444 176.778L404.467 176.834H405.713L405.702 176.767C405.433 175.543 404.366 174.701 402.934 174.701C400.929 174.701 399.733 176.318 399.733 179.058V179.069C399.733 182.051 401.26 183.197 402.889 183.197ZM401.176 180.378V180.372C401.176 179.395 401.917 178.688 402.889 178.688C403.872 178.688 404.579 179.406 404.579 180.4V180.411C404.579 181.383 403.827 182.141 402.878 182.141C401.923 182.141 401.176 181.366 401.176 180.378ZM407.199 183H412.657V181.927H408.912V181.815L410.63 180.103C412.101 178.643 412.528 177.935 412.528 177.014V176.997C412.528 175.661 411.416 174.701 409.905 174.701C408.277 174.701 407.131 175.745 407.126 177.228L407.137 177.239H408.316L408.322 177.222C408.322 176.335 408.928 175.74 409.838 175.74C410.725 175.74 411.27 176.323 411.27 177.115V177.132C411.27 177.789 410.961 178.205 409.889 179.322L407.199 182.146V183ZM417.326 183.101C418.865 183.101 419.853 181.871 419.853 179.957V179.945C419.853 178.014 418.876 176.795 417.326 176.795C416.49 176.795 415.776 177.211 415.451 177.868H415.361V174.51H414.142V183H415.361V182.04H415.451C415.804 182.708 416.473 183.101 417.326 183.101ZM416.984 182.062C415.967 182.062 415.338 181.259 415.338 179.957V179.945C415.338 178.643 415.967 177.84 416.984 177.84C418 177.84 418.612 178.637 418.612 179.945V179.957C418.612 181.265 418 182.062 416.984 182.062ZM423.652 183.118C425.163 183.118 426.033 182.304 426.252 181.119L426.263 181.068H425.095L425.084 181.096C424.887 181.753 424.416 182.102 423.652 182.102C422.647 182.102 422.024 181.282 422.024 179.934V179.923C422.024 178.609 422.636 177.8 423.652 177.8C424.461 177.8 424.955 178.25 425.09 178.85L425.095 178.867L426.263 178.862V178.833C426.095 177.649 425.179 176.784 423.646 176.784C421.866 176.784 420.783 177.991 420.783 179.923V179.934C420.783 181.905 421.872 183.118 423.652 183.118ZM430.281 183.197C432.145 183.197 433.274 181.562 433.274 178.951V178.94C433.274 176.329 432.145 174.701 430.281 174.701C428.411 174.701 427.288 176.329 427.288 178.94V178.951C427.288 181.562 428.411 183.197 430.281 183.197ZM430.281 182.152C429.192 182.152 428.557 180.934 428.557 178.951V178.94C428.557 176.958 429.192 175.751 430.281 175.751C431.365 175.751 432.005 176.958 432.005 178.94V178.951C432.005 180.934 431.365 182.152 430.281 182.152ZM435.102 183H436.315V177.862H437.657V176.902H436.304V176.318C436.304 175.7 436.568 175.375 437.241 175.375C437.432 175.375 437.595 175.386 437.707 175.403V174.51C437.5 174.476 437.264 174.454 436.989 174.454C435.72 174.454 435.102 175.049 435.102 176.262V176.902H434.097V177.862H435.102V183ZM440.788 183H442.046V174.897H440.788L438.654 176.413V177.649L440.692 176.194H440.788V183ZM446.103 183H447.361V174.897H446.103L443.969 176.413V177.649L446.007 176.194H446.103V183ZM452.243 183.197C453.95 183.197 455.152 182.051 455.152 180.389V180.378C455.152 178.822 454.063 177.688 452.541 177.688C451.794 177.688 451.16 178.002 450.817 178.547H450.722L450.969 175.964H454.692V174.897H449.98L449.576 179.603H450.66C450.755 179.417 450.884 179.26 451.03 179.131C451.35 178.839 451.772 178.693 452.266 178.693C453.243 178.693 453.95 179.401 453.95 180.4V180.411C453.95 181.428 453.254 182.141 452.255 182.141C451.367 182.141 450.722 181.574 450.615 180.861L450.609 180.816H449.43L449.436 180.889C449.548 182.203 450.649 183.197 452.243 183.197ZM460.231 183H461.444V181.388H462.562V180.322H461.444V174.897H459.653C458.535 176.576 457.345 178.491 456.278 180.322V181.388H460.231V183ZM457.485 180.344V180.265C458.316 178.845 459.305 177.267 460.175 175.958H460.248V180.344H457.485ZM466.681 183.197C468.388 183.197 469.589 182.051 469.589 180.389V180.378C469.589 178.822 468.5 177.688 466.978 177.688C466.231 177.688 465.597 178.002 465.254 178.547H465.159L465.406 175.964H469.129V174.897H464.418L464.013 179.603H465.097C465.193 179.417 465.322 179.26 465.468 179.131C465.788 178.839 466.209 178.693 466.703 178.693C467.68 178.693 468.388 179.401 468.388 180.4V180.411C468.388 181.428 467.691 182.141 466.692 182.141C465.805 182.141 465.159 181.574 465.052 180.861L465.047 180.816H463.867L463.873 180.889C463.985 182.203 465.086 183.197 466.681 183.197ZM473.517 183.118C475.028 183.118 475.898 182.304 476.117 181.119L476.129 181.068H474.961L474.949 181.096C474.753 181.753 474.281 182.102 473.517 182.102C472.512 182.102 471.889 181.282 471.889 179.934V179.923C471.889 178.609 472.501 177.8 473.517 177.8C474.326 177.8 474.82 178.25 474.955 178.85L474.961 178.867L476.129 178.862V178.833C475.96 177.649 475.045 176.784 473.512 176.784C471.732 176.784 470.648 177.991 470.648 179.923V179.934C470.648 181.905 471.737 183.118 473.517 183.118ZM481.006 183H482.218V181.388H483.336V180.322H482.218V174.897H480.427C479.31 176.576 478.119 178.491 477.052 180.322V181.388H481.006V183ZM478.26 180.344V180.265C479.091 178.845 480.079 177.267 480.949 175.958H481.022V180.344H478.26ZM484.647 183H490.105V181.927H486.36V181.815L488.078 180.103C489.549 178.643 489.976 177.935 489.976 177.014V176.997C489.976 175.661 488.864 174.701 487.354 174.701C485.725 174.701 484.58 175.745 484.574 177.228L484.586 177.239H485.765L485.77 177.222C485.77 176.335 486.377 175.74 487.287 175.74C488.174 175.74 488.718 176.323 488.718 177.115V177.132C488.718 177.789 488.41 178.205 487.337 179.322L484.647 182.146V183ZM491.535 183H496.993V181.927H493.247V181.815L494.966 180.103C496.437 178.643 496.864 177.935 496.864 177.014V176.997C496.864 175.661 495.752 174.701 494.241 174.701C492.613 174.701 491.467 175.745 491.462 177.228L491.473 177.239H492.652L492.658 177.222C492.658 176.335 493.264 175.74 494.174 175.74C495.061 175.74 495.606 176.323 495.606 177.115V177.132C495.606 177.789 495.297 178.205 494.224 179.322L491.535 182.146V183ZM499.214 183.084C499.68 183.084 500.034 182.725 500.034 182.27C500.034 181.81 499.68 181.45 499.214 181.45C498.748 181.45 498.388 181.81 498.388 182.27C498.388 182.725 498.748 183.084 499.214 183.084ZM502.62 183.084C503.086 183.084 503.44 182.725 503.44 182.27C503.44 181.81 503.086 181.45 502.62 181.45C502.154 181.45 501.794 181.81 501.794 182.27C501.794 182.725 502.154 183.084 502.62 183.084ZM506.026 183.084C506.492 183.084 506.845 182.725 506.845 182.27C506.845 181.81 506.492 181.45 506.026 181.45C505.56 181.45 505.2 181.81 505.2 182.27C505.2 182.725 505.56 183.084 506.026 183.084Z" fill="#4B4848"/>
<path d="M65.9482 148V137.091H73.1712V138.993H68.2546V141.592H72.6918V143.494H68.2546V148H65.9482ZM74.68 148V139.818H76.9491V148H74.68ZM75.8199 138.763C75.4825 138.763 75.1931 138.652 74.9516 138.428C74.7137 138.201 74.5947 137.929 74.5947 137.613C74.5947 137.3 74.7137 137.032 74.9516 136.809C75.1931 136.581 75.4825 136.468 75.8199 136.468C76.1572 136.468 76.4449 136.581 76.6828 136.809C76.9243 137.032 77.045 137.3 77.045 137.613C77.045 137.929 76.9243 138.201 76.6828 138.428C76.4449 138.652 76.1572 138.763 75.8199 138.763ZM81.036 137.091V148H78.7669V137.091H81.036ZM87.2057 139.818V141.523H82.2785V139.818H87.2057ZM83.3971 137.858H85.6663V145.486C85.6663 145.695 85.6982 145.859 85.7622 145.976C85.8261 146.089 85.9149 146.169 86.0285 146.216C86.1457 146.262 86.2806 146.285 86.4333 146.285C86.5399 146.285 86.6464 146.276 86.7529 146.258C86.8595 146.237 86.9411 146.221 86.998 146.21L87.3548 147.899C87.2412 147.934 87.0814 147.975 86.8754 148.021C86.6695 148.071 86.4191 148.101 86.1244 148.112C85.5775 148.133 85.0981 148.06 84.6862 147.893C84.2778 147.727 83.96 147.467 83.7327 147.116C83.5054 146.764 83.3936 146.32 83.3971 145.784V137.858ZM92.3247 148.16C91.483 148.16 90.7586 147.989 90.1514 147.648C89.5477 147.304 89.0825 146.817 88.7558 146.189C88.4291 145.557 88.2657 144.809 88.2657 143.946C88.2657 143.105 88.4291 142.366 88.7558 141.73C89.0825 141.095 89.5423 140.599 90.1354 140.244C90.732 139.889 91.4316 139.712 92.2341 139.712C92.7739 139.712 93.2764 139.799 93.7416 139.973C94.2103 140.143 94.6187 140.401 94.9667 140.745C95.3183 141.089 95.5917 141.523 95.787 142.045C95.9823 142.563 96.08 143.17 96.08 143.866V144.49H89.1713V143.083H93.944C93.944 142.757 93.873 142.467 93.7309 142.215C93.5889 141.963 93.3918 141.766 93.1396 141.624C92.8911 141.478 92.6017 141.406 92.2714 141.406C91.9269 141.406 91.6215 141.485 91.3552 141.645C91.0924 141.801 90.8865 142.013 90.7373 142.279C90.5882 142.542 90.5118 142.835 90.5083 143.158V144.495C90.5083 144.9 90.5828 145.25 90.732 145.544C90.8847 145.839 91.0995 146.066 91.3765 146.226C91.6535 146.386 91.982 146.466 92.3619 146.466C92.6141 146.466 92.8449 146.43 93.0544 146.359C93.2639 146.288 93.4433 146.182 93.5924 146.04C93.7416 145.898 93.8552 145.724 93.9333 145.518L96.032 145.656C95.9255 146.161 95.7071 146.601 95.3769 146.977C95.0502 147.35 94.6276 147.641 94.1091 147.851C93.5942 148.057 92.9994 148.16 92.3247 148.16ZM97.5608 148V139.818H99.7607V141.246H99.846C99.9951 140.738 100.245 140.354 100.597 140.095C100.949 139.832 101.353 139.701 101.812 139.701C101.925 139.701 102.048 139.708 102.179 139.722C102.31 139.737 102.426 139.756 102.525 139.781V141.794C102.419 141.762 102.271 141.734 102.083 141.709C101.895 141.684 101.723 141.672 101.566 141.672C101.233 141.672 100.934 141.745 100.672 141.89C100.412 142.032 100.206 142.231 100.054 142.487C99.9046 142.743 99.83 143.037 99.83 143.371V148H97.5608ZM110.506 142.151L108.429 142.279C108.393 142.102 108.317 141.942 108.2 141.8C108.082 141.654 107.928 141.539 107.736 141.453C107.548 141.365 107.322 141.32 107.06 141.32C106.708 141.32 106.412 141.395 106.17 141.544C105.929 141.69 105.808 141.885 105.808 142.13C105.808 142.325 105.886 142.49 106.042 142.625C106.199 142.76 106.467 142.869 106.847 142.95L108.327 143.249C109.123 143.412 109.716 143.675 110.107 144.037C110.497 144.399 110.692 144.875 110.692 145.464C110.692 146.001 110.534 146.471 110.218 146.876C109.906 147.281 109.476 147.597 108.929 147.824C108.386 148.048 107.759 148.16 107.049 148.16C105.966 148.16 105.103 147.934 104.46 147.483C103.821 147.029 103.446 146.411 103.336 145.63L105.568 145.512C105.636 145.843 105.799 146.095 106.058 146.269C106.317 146.439 106.65 146.525 107.054 146.525C107.452 146.525 107.772 146.448 108.013 146.295C108.258 146.139 108.382 145.939 108.386 145.694C108.382 145.488 108.295 145.319 108.125 145.188C107.955 145.053 107.692 144.95 107.337 144.879L105.92 144.596C105.121 144.436 104.526 144.159 104.135 143.765C103.748 143.371 103.555 142.869 103.555 142.258C103.555 141.732 103.697 141.279 103.981 140.9C104.268 140.52 104.672 140.227 105.19 140.021C105.712 139.815 106.323 139.712 107.022 139.712C108.056 139.712 108.869 139.93 109.462 140.367C110.059 140.804 110.407 141.398 110.506 142.151Z" fill="#393939"/>
</g>
</g>
<defs>
<filter id="filter0_d_625_11712" x="68" y="31" width="679" height="511" filterUnits="userSpaceOnUse" color-interpolation-filters="sRGB">
<feFlood flood-opacity="0" result="BackgroundImageFix"/>
<feColorMatrix in="SourceAlpha" type="matrix" values="0 0 0 0 0 0 0 0 0 0 0 0 0 0 0 0 0 0 127 0" result="hardAlpha"/>
<feOffset dy="10"/>
<feGaussianBlur stdDeviation="10"/>
<feComposite in2="hardAlpha" operator="out"/>
<feColorMatrix type="matrix" values="0 0 0 0 0 0 0 0 0 0 0 0 0 0 0 0 0 0 0.11 0"/>
<feBlend mode="normal" in2="BackgroundImageFix" result="effect1_dropShadow_625_11712"/>
<feBlend mode="normal" in="SourceGraphic" in2="effect1_dropShadow_625_11712" result="shape"/>
</filter>
<filter id="filter1_d_625_11712" x="-8" y="81" width="787" height="203" filterUnits="userSpaceOnUse" color-interpolation-filters="sRGB">
<feFlood flood-opacity="0" result="BackgroundImageFix"/>
<feColorMatrix in="SourceAlpha" type="matrix" values="0 0 0 0 0 0 0 0 0 0 0 0 0 0 0 0 0 0 127 0" result="hardAlpha"/>
<feOffset dy="14"/>
<feGaussianBlur stdDeviation="27"/>
<feComposite in2="hardAlpha" operator="out"/>
<feColorMatrix type="matrix" values="0 0 0 0 0 0 0 0 0 0 0 0 0 0 0 0 0 0 0.11 0"/>
<feBlend mode="normal" in2="BackgroundImageFix" result="effect1_dropShadow_625_11712"/>
<feBlend mode="normal" in="SourceGraphic" in2="effect1_dropShadow_625_11712" result="shape"/>
</filter>
<clipPath id="clip0_625_11712">
<rect width="725" height="537" fill="white"/>
</clipPath>
</defs>
</svg>
