<svg width="725" height="537" viewBox="0 0 725 537" fill="none" xmlns="http://www.w3.org/2000/svg">
<g clip-path="url(#clip0_625_11712)">
<g filter="url(#filter0_d_625_11712)">
<path d="M87 36H726V507H87V36Z" fill="white"/>
</g>
<g filter="url(#filter1_d_625_11712)">
<path fill-rule="evenodd" clip-rule="evenodd" d="M725 37H88V506H725V37ZM87 36V507H726V36H87Z" fill="#E7E7E7"/>
</g>
<path d="M147 140C147 144.971 142.971 149 138 149C133.029 149 129 144.971 129 140C129 135.029 133.029 131 138 131C142.971 131 147 135.029 147 140Z" fill="#FFDEDE"/>
<g opacity="0.7">
<path d="M177 136H328.334V144.294H177V136Z" fill="#D9D9D9"/>
<path d="M350.83 136H567.606V144.294H350.83V136Z" fill="#D9D9D9"/>
<path d="M646 136H590.102V144.294H646V136Z" fill="#D9D9D9"/>
</g>
<g opacity="0.7">
<path d="M177 208H328.334V216.294H177V208Z" fill="#D9D9D9"/>
<path d="M350.83 208H567.606V216.294H350.83V208Z" fill="#D9D9D9"/>
<path d="M646 208H590.102V216.294H646V208Z" fill="#D9D9D9"/>
</g>
<g opacity="0.7">
<path d="M177 245H328.334V253.294H177V245Z" fill="#D9D9D9"/>
<path d="M350.83 245H567.606V253.294H350.83V245Z" fill="#D9D9D9"/>
<path d="M646 245H590.102V253.294H646V245Z" fill="#D9D9D9"/>
</g>
<path d="M146 247C146 251.971 141.971 256 137 256C132.029 256 128 251.971 128 247C128 242.029 132.029 238 137 238C141.971 238 146 242.029 146 247Z" fill="#FFDEDE"/>
<path d="M146 288C146 292.971 141.971 297 137 297C132.029 297 128 292.971 128 288C128 283.029 132.029 279 137 279C141.971 279 146 283.029 146 288Z" fill="#FFDEDE"/>
<path d="M146 325C146 329.971 141.971 334 137 334C132.029 334 128 329.971 128 325C128 320.029 132.029 316 137 316C141.971 316 146 320.029 146 325Z" fill="#FFDEDE"/>
<path d="M146 362C146 366.971 141.971 371 137 371C132.029 371 128 366.971 128 362C128 357.029 132.029 353 137 353C141.971 353 146 357.029 146 362Z" fill="#FFDEDE"/>
<path d="M146 399C146 403.971 141.971 408 137 408C132.029 408 128 403.971 128 399C128 394.029 132.029 390 137 390C141.971 390 146 394.029 146 399Z" fill="#FFDEDE"/>
<path d="M146 436C146 440.971 141.971 445 137 445C132.029 445 128 440.971 128 436C128 431.029 132.029 427 137 427C141.971 427 146 431.029 146 436Z" fill="#FFDEDE"/>
<path d="M146 473C146 477.971 141.971 482 137 482C132.029 482 128 477.971 128 473C128 468.029 132.029 464 137 464C141.971 464 146 468.029 146 473Z" fill="#FFDEDE"/>
<g opacity="0.7">
<path d="M177 284H328.334V292.294H177V284Z" fill="#D9D9D9"/>
<path d="M350.83 284H567.606V292.294H350.83V284Z" fill="#D9D9D9"/>
<path d="M646 284H590.102V292.294H646V284Z" fill="#D9D9D9"/>
</g>
<g opacity="0.7">
<path d="M177 321H328.334V329.294H177V321Z" fill="#D9D9D9"/>
<path d="M350.83 321H567.606V329.294H350.83V321Z" fill="#D9D9D9"/>
<path d="M646 321H590.102V329.294H646V321Z" fill="#D9D9D9"/>
</g>
<g opacity="0.7">
<path d="M177 358H328.334V366.294H177V358Z" fill="#D9D9D9"/>
<path d="M350.83 358H567.606V366.294H350.83V358Z" fill="#D9D9D9"/>
<path d="M646 358H590.102V366.294H646V358Z" fill="#D9D9D9"/>
</g>
<g opacity="0.7">
<path d="M177 395H328.334V403.294H177V395Z" fill="#D9D9D9"/>
<path d="M350.83 395H567.606V403.294H350.83V395Z" fill="#D9D9D9"/>
<path d="M646 395H590.102V403.294H646V395Z" fill="#D9D9D9"/>
</g>
<g opacity="0.7">
<path d="M177 432H328.334V440.294H177V432Z" fill="#D9D9D9"/>
<path d="M350.83 432H567.606V440.294H350.83V432Z" fill="#D9D9D9"/>
<path d="M646 432H590.102V440.294H646V432Z" fill="#D9D9D9"/>
</g>
<g opacity="0.7">
<path d="M177 469H328.334V477.294H177V469Z" fill="#D9D9D9"/>
<path d="M350.83 469H567.606V477.294H350.83V469Z" fill="#D9D9D9"/>
<path d="M646 469H590.102V477.294H646V469Z" fill="#D9D9D9"/>
</g>
<path d="M133.128 92.0002H129.613L136.013 73.8184H140.08L146.489 92.0002H142.974L138.118 77.5471H137.975L133.128 92.0002ZM133.244 84.8713H142.832V87.5169H133.244V84.8713Z" fill="#393939"/>
<path d="M157.433 86.2651V78.3638H160.647V92.0002H157.531V89.5765H157.389C157.081 90.34 156.575 90.9644 155.871 91.4498C155.173 91.9351 154.311 92.1777 153.288 92.1777C152.394 92.1777 151.604 91.9795 150.917 91.5829C150.237 91.1805 149.704 90.5975 149.319 89.834C148.934 89.0646 148.742 88.1354 148.742 87.0463V78.3638H151.956V86.5492C151.956 87.4133 152.193 88.0998 152.666 88.6088C153.14 89.1178 153.761 89.3723 154.53 89.3723C155.004 89.3723 155.463 89.2569 155.906 89.0261C156.35 88.7953 156.714 88.452 156.998 87.9963C157.288 87.5346 157.433 86.9576 157.433 86.2651Z" fill="#393939"/>
<path d="M169.012 92.2399C167.941 92.2399 166.982 91.9647 166.136 91.4142C165.29 90.8638 164.621 90.0648 164.13 89.0172C163.638 87.9696 163.393 86.6971 163.393 85.1998C163.393 83.6846 163.641 82.4062 164.138 81.3645C164.642 80.3169 165.319 79.5268 166.171 78.9941C167.024 78.4556 167.974 78.1863 169.021 78.1863C169.82 78.1863 170.477 78.3224 170.992 78.5946C171.507 78.861 171.915 79.1835 172.217 79.5623C172.519 79.9352 172.753 80.2873 172.919 80.6188H173.052V73.8184H176.274V92.0002H173.114V89.8517H172.919C172.753 90.1832 172.513 90.5353 172.2 90.9082C171.886 91.2752 171.472 91.5888 170.957 91.8493C170.442 92.1097 169.794 92.2399 169.012 92.2399ZM169.909 89.6032C170.59 89.6032 171.17 89.4197 171.649 89.0527C172.129 88.6799 172.493 88.162 172.741 87.4991C172.99 86.8362 173.114 86.0639 173.114 85.182C173.114 84.3001 172.99 83.5337 172.741 82.8826C172.498 82.2316 172.137 81.7256 171.658 81.3645C171.185 81.0035 170.602 80.823 169.909 80.823C169.193 80.823 168.595 81.0094 168.116 81.3823C167.636 81.7551 167.275 82.2701 167.033 82.927C166.79 83.584 166.669 84.3356 166.669 85.182C166.669 86.0343 166.79 86.7948 167.033 87.4636C167.281 88.1265 167.645 88.6503 168.125 89.035C168.61 89.4138 169.205 89.6032 169.909 89.6032Z" fill="#393939"/>
<path d="M179.699 92.0002V78.3638H182.913V92.0002H179.699ZM181.315 76.4284C180.806 76.4284 180.368 76.2598 180.001 75.9224C179.634 75.5791 179.451 75.1678 179.451 74.6884C179.451 74.2031 179.634 73.7917 180.001 73.4544C180.368 73.1111 180.806 72.9395 181.315 72.9395C181.83 72.9395 182.268 73.1111 182.629 73.4544C182.996 73.7917 183.179 74.2031 183.179 74.6884C183.179 75.1678 182.996 75.5791 182.629 75.9224C182.268 76.2598 181.83 76.4284 181.315 76.4284Z" fill="#393939"/>
<path d="M193.027 78.3638V80.8496H185.188V78.3638H193.027ZM187.123 75.0968H190.337V87.8986C190.337 88.3307 190.402 88.6621 190.532 88.8929C190.668 89.1178 190.846 89.2717 191.065 89.3546C191.284 89.4374 191.527 89.4789 191.793 89.4789C191.994 89.4789 192.178 89.4641 192.343 89.4345C192.515 89.4049 192.645 89.3783 192.734 89.3546L193.276 91.867C193.104 91.9262 192.858 91.9913 192.539 92.0623C192.225 92.1333 191.84 92.1748 191.385 92.1866C190.58 92.2103 189.855 92.089 189.209 91.8226C188.564 91.5504 188.052 91.1302 187.674 90.562C187.301 89.9938 187.117 89.2836 187.123 88.4313V75.0968Z" fill="#393939"/>
<path d="M202.058 92.0002V73.8184H205.352V89.2392H213.359V92.0002H202.058Z" fill="#393939"/>
<path d="M222.024 92.2665C220.693 92.2665 219.538 91.9735 218.562 91.3876C217.585 90.8017 216.828 89.9819 216.289 88.9284C215.756 87.8749 215.49 86.6439 215.49 85.2353C215.49 83.8266 215.756 82.5926 216.289 81.5332C216.828 80.4738 217.585 79.6511 218.562 79.0652C219.538 78.4792 220.693 78.1863 222.024 78.1863C223.356 78.1863 224.51 78.4792 225.487 79.0652C226.463 79.6511 227.218 80.4738 227.75 81.5332C228.289 82.5926 228.558 83.8266 228.558 85.2353C228.558 86.6439 228.289 87.8749 227.75 88.9284C227.218 89.9819 226.463 90.8017 225.487 91.3876C224.51 91.9735 223.356 92.2665 222.024 92.2665ZM222.042 89.6919C222.764 89.6919 223.368 89.4937 223.853 89.0971C224.338 88.6947 224.699 88.1561 224.936 87.4814C225.179 86.8066 225.3 86.055 225.3 85.2264C225.3 84.3919 225.179 83.6373 224.936 82.9625C224.699 82.2819 224.338 81.7404 223.853 81.3379C223.368 80.9354 222.764 80.7342 222.042 80.7342C221.302 80.7342 220.687 80.9354 220.195 81.3379C219.71 81.7404 219.346 82.2819 219.103 82.9625C218.867 83.6373 218.748 84.3919 218.748 85.2264C218.748 86.055 218.867 86.8066 219.103 87.4814C219.346 88.1561 219.71 88.6947 220.195 89.0971C220.687 89.4937 221.302 89.6919 222.042 89.6919Z" fill="#393939"/>
<path d="M237.216 97.3979C236.062 97.3979 235.071 97.2411 234.242 96.9274C233.414 96.6196 232.748 96.2053 232.245 95.6845C231.742 95.1636 231.393 94.5866 231.197 93.9533L234.091 93.252C234.222 93.5183 234.411 93.7817 234.66 94.0421C234.908 94.3084 235.243 94.5274 235.663 94.699C236.089 94.8766 236.625 94.9654 237.27 94.9654C238.181 94.9654 238.936 94.7434 239.534 94.2995C240.131 93.8616 240.43 93.1395 240.43 92.1333V89.5499H240.27C240.105 89.8813 239.862 90.2217 239.542 90.5708C239.229 90.92 238.811 91.213 238.291 91.4498C237.776 91.6865 237.128 91.8049 236.346 91.8049C235.299 91.8049 234.349 91.5592 233.497 91.068C232.65 90.5708 231.976 89.831 231.472 88.8485C230.975 87.8601 230.727 86.6232 230.727 85.1376C230.727 83.6402 230.975 82.3766 231.472 81.3468C231.976 80.311 232.653 79.5268 233.505 78.9941C234.358 78.4556 235.308 78.1863 236.355 78.1863C237.154 78.1863 237.811 78.3224 238.326 78.5946C238.847 78.861 239.261 79.1835 239.569 79.5623C239.877 79.9352 240.111 80.2873 240.27 80.6188H240.448V78.3638H243.617V92.2221C243.617 93.3881 243.339 94.3528 242.783 95.1163C242.226 95.8798 241.466 96.4509 240.501 96.8297C239.536 97.2085 238.442 97.3979 237.216 97.3979ZM237.243 89.2836C237.924 89.2836 238.504 89.1178 238.983 88.7864C239.463 88.455 239.827 87.9785 240.075 87.3571C240.324 86.7356 240.448 85.9899 240.448 85.1199C240.448 84.2617 240.324 83.51 240.075 82.8649C239.832 82.2198 239.471 81.7196 238.992 81.3645C238.519 81.0035 237.936 80.823 237.243 80.823C236.527 80.823 235.929 81.0094 235.45 81.3823C234.97 81.7551 234.609 82.2671 234.367 82.9181C234.124 83.5633 234.003 84.2972 234.003 85.1199C234.003 85.9544 234.124 86.6853 234.367 87.3127C234.615 87.9341 234.979 88.4194 235.459 88.7686C235.944 89.1119 236.539 89.2836 237.243 89.2836Z" fill="#393939"/>
<path d="M257.689 81.9682L254.759 82.2878C254.676 81.9919 254.531 81.7137 254.324 81.4533C254.123 81.1929 253.851 80.9828 253.507 80.823C253.164 80.6632 252.744 80.5833 252.247 80.5833C251.578 80.5833 251.016 80.7283 250.56 81.0183C250.11 81.3083 249.888 81.6841 249.894 82.1458C249.888 82.5423 250.033 82.8649 250.329 83.1135C250.631 83.362 251.128 83.5662 251.82 83.726L254.146 84.2232C255.437 84.5014 256.396 84.9423 257.023 85.546C257.656 86.1497 257.976 86.9398 257.982 87.9164C257.976 88.7746 257.724 89.5321 257.227 90.1891C256.736 90.8401 256.052 91.3491 255.176 91.7161C254.3 92.083 253.294 92.2665 252.158 92.2665C250.489 92.2665 249.145 91.9173 248.127 91.2189C247.109 90.5146 246.503 89.5351 246.307 88.2804L249.441 87.9785C249.583 88.594 249.885 89.0587 250.347 89.3723C250.808 89.686 251.409 89.8429 252.149 89.8429C252.912 89.8429 253.525 89.686 253.987 89.3723C254.454 89.0587 254.688 88.671 254.688 88.2093C254.688 87.8187 254.537 87.4962 254.235 87.2417C253.939 86.9872 253.478 86.7918 252.85 86.6557L250.524 86.1674C249.216 85.8952 248.249 85.4365 247.621 84.7914C246.994 84.1403 246.683 83.3176 246.689 82.3233C246.683 81.4829 246.911 80.7549 247.373 80.1394C247.84 79.5179 248.488 79.0385 249.317 78.7012C250.151 78.3579 251.113 78.1863 252.202 78.1863C253.8 78.1863 255.058 78.5266 255.975 79.2072C256.899 79.8878 257.47 80.8082 257.689 81.9682Z" fill="#393939"/>
<path d="M147 210C147 214.971 142.971 219 138 219C133.029 219 129 214.971 129 210C129 205.029 133.029 201 138 201C142.971 201 147 205.029 147 210Z" fill="#FFDEDE"/>
<g filter="url(#filter2_d_625_11712)">
<rect width="679" height="95" transform="translate(45 116)" fill="white"/>
<g opacity="0.5">
<rect x="64" y="157" width="157" height="34" fill="white"/>
<path d="M209.589 174.193L212.307 171.475L213.083 172.251L209.589 175.745L206.094 172.251L206.871 171.475L209.589 174.193Z" fill="#575757"/>
<rect x="64" y="157" width="157" height="34" stroke="#B3B3B3" stroke-width="0.83"/>
</g>
<g opacity="0.5">
<rect x="227" y="157" width="157" height="34" fill="white"/>
<path d="M372.589 174.193L375.307 171.475L376.083 172.251L372.589 175.745L369.094 172.251L369.871 171.475L372.589 174.193Z" fill="#575757"/>
<rect x="227" y="157" width="157" height="34" stroke="#B3B3B3" stroke-width="0.83"/>
</g>
<g opacity="0.5">
<rect x="390" y="157" width="156" height="34" fill="white"/>
<path d="M532.589 174.193L535.307 171.475L536.083 172.251L532.589 175.745L529.094 172.251L529.871 171.475L532.589 174.193Z" fill="#575757"/>
<rect x="390" y="157" width="156" height="34" stroke="#B3B3B3" stroke-width="0.83"/>
</g>
<g opacity="0.5">
<rect x="552.941" y="156.972" width="183" height="34" fill="white"/>
<path d="M575.938 178.197C577.528 178.197 578.465 177.259 578.465 175.665V169.898H577.208V175.653C577.208 176.574 576.758 177.074 575.927 177.074C575.175 177.074 574.787 176.591 574.737 175.973L574.731 175.923H573.49L573.496 175.99C573.563 177.282 574.439 178.197 575.938 178.197Z" fill="#4B4848"/>
<path d="M582.163 178.118C583.05 178.118 583.668 177.737 583.96 177.08H584.056V178H585.268V171.902H584.056V175.479C584.056 176.462 583.533 177.074 582.556 177.074C581.663 177.074 581.293 176.574 581.293 175.563V171.902H580.074V175.85C580.074 177.293 580.787 178.118 582.163 178.118Z" fill="#4B4848"/>
<path d="M586.804 178H588.023V174.424C588.023 173.441 588.579 172.829 589.472 172.829C590.365 172.829 590.786 173.329 590.786 174.339V178H591.999V174.053C591.999 172.599 591.246 171.784 589.882 171.784C588.994 171.784 588.41 172.177 588.113 172.829H588.023V171.902H586.804V178Z" fill="#4B4848"/>
<path d="M599.394 178.197C601.096 178.197 602.326 177.007 602.326 175.378V175.367C602.326 173.817 601.219 172.672 599.675 172.672C598.569 172.672 597.839 173.25 597.541 173.901H597.435C597.435 173.84 597.435 173.778 597.44 173.716C597.502 172.099 598.069 170.768 599.434 170.768C600.197 170.768 600.725 171.161 600.95 171.779L600.972 171.835H602.219L602.208 171.768C601.938 170.543 600.871 169.701 599.439 169.701C597.435 169.701 596.239 171.318 596.239 174.059V174.07C596.239 177.052 597.766 178.197 599.394 178.197ZM597.682 175.378V175.373C597.682 174.396 598.423 173.688 599.394 173.688C600.377 173.688 601.085 174.407 601.085 175.401V175.412C601.085 176.383 600.332 177.141 599.383 177.141C598.429 177.141 597.682 176.366 597.682 175.378Z" fill="#4B4848"/>
<path d="M606.627 178H612.085V176.928H608.34V176.816L610.058 175.103C611.529 173.643 611.956 172.936 611.956 172.015V171.998C611.956 170.661 610.844 169.701 609.334 169.701C607.705 169.701 606.56 170.746 606.554 172.228L606.566 172.239H607.745L607.75 172.222C607.75 171.335 608.357 170.74 609.266 170.74C610.154 170.74 610.698 171.324 610.698 172.116V172.133C610.698 172.79 610.39 173.205 609.317 174.323L606.627 177.147V178Z" fill="#4B4848"/>
<path d="M616.373 178.197C618.237 178.197 619.366 176.563 619.366 173.952V173.941C619.366 171.33 618.237 169.701 616.373 169.701C614.503 169.701 613.38 171.33 613.38 173.941V173.952C613.38 176.563 614.503 178.197 616.373 178.197ZM616.373 177.153C615.283 177.153 614.649 175.934 614.649 173.952V173.941C614.649 171.958 615.283 170.751 616.373 170.751C617.457 170.751 618.097 171.958 618.097 173.941V173.952C618.097 175.934 617.457 177.153 616.373 177.153Z" fill="#4B4848"/>
<path d="M620.761 178H626.219V176.928H622.474V176.816L624.192 175.103C625.663 173.643 626.09 172.936 626.09 172.015V171.998C626.09 170.661 624.978 169.701 623.468 169.701C621.84 169.701 620.694 170.746 620.688 172.228L620.7 172.239H621.879L621.884 172.222C621.884 171.335 622.491 170.74 623.401 170.74C624.288 170.74 624.832 171.324 624.832 172.116V172.133C624.832 172.79 624.524 173.205 623.451 174.323L620.761 177.147V178Z" fill="#4B4848"/>
<path d="M627.649 178H633.107V176.928H629.361V176.816L631.08 175.103C632.551 173.643 632.978 172.936 632.978 172.015V171.998C632.978 170.661 631.866 169.701 630.355 169.701C628.727 169.701 627.581 170.746 627.576 172.228L627.587 172.239H628.766L628.772 172.222C628.772 171.335 629.378 170.74 630.288 170.74C631.175 170.74 631.72 171.324 631.72 172.116V172.133C631.72 172.79 631.411 173.205 630.338 174.323L627.649 177.147V178Z" fill="#4B4848"/>
<path d="M646.034 173.941C646.034 173.795 645.966 173.649 645.854 173.542L642.979 170.667C642.855 170.555 642.726 170.499 642.591 170.499C642.288 170.499 642.064 170.718 642.064 171.015C642.064 171.167 642.125 171.296 642.221 171.397L643.046 172.234L644.411 173.475L643.372 173.407H638.251C637.925 173.407 637.706 173.626 637.706 173.941C637.706 174.255 637.925 174.48 638.251 174.48H643.372L644.416 174.407L643.046 175.653L642.221 176.484C642.125 176.585 642.064 176.715 642.064 176.866C642.064 177.164 642.288 177.383 642.591 177.383C642.726 177.383 642.855 177.327 642.973 177.214L645.854 174.339C645.966 174.233 646.034 174.087 646.034 173.941Z" fill="#4B4848"/>
<path d="M654.333 178.197C656.675 178.197 658.112 176.546 658.112 173.952V173.941C658.112 171.341 656.664 169.701 654.333 169.701C652.009 169.701 650.549 171.335 650.549 173.941V173.952C650.549 176.552 651.975 178.197 654.333 178.197ZM654.333 177.085C652.772 177.085 651.835 175.85 651.835 173.952V173.941C651.835 172.026 652.8 170.813 654.333 170.813C655.866 170.813 656.827 172.026 656.827 173.941V173.952C656.827 175.85 655.872 177.085 654.333 177.085Z" fill="#4B4848"/>
<path d="M662.024 178.118C663.534 178.118 664.405 177.304 664.624 176.119L664.635 176.069H663.467L663.456 176.097C663.259 176.754 662.787 177.102 662.024 177.102C661.019 177.102 660.395 176.282 660.395 174.935V174.923C660.395 173.609 661.007 172.801 662.024 172.801C662.832 172.801 663.326 173.25 663.461 173.851L663.467 173.868L664.635 173.862V173.834C664.466 172.649 663.551 171.784 662.018 171.784C660.238 171.784 659.154 172.992 659.154 174.923V174.935C659.154 176.906 660.244 178.118 662.024 178.118Z" fill="#4B4848"/>
<path d="M668.187 178.04C668.423 178.04 668.647 178.012 668.844 177.978V177.007C668.675 177.023 668.569 177.029 668.383 177.029C667.782 177.029 667.535 176.76 667.535 176.103V172.863H668.844V171.902H667.535V170.364H666.294V171.902H665.34V172.863H666.294V176.395C666.294 177.568 666.845 178.04 668.187 178.04Z" fill="#4B4848"/>
<path d="M674.948 178H676.206V169.898H674.948L672.814 171.414V172.649L674.853 171.195H674.948V178Z" fill="#4B4848"/>
<path d="M681.133 178.152C682.852 178.152 684.07 177.153 684.07 175.76V175.749C684.07 174.615 683.273 173.896 682.082 173.789V173.761C683.071 173.553 683.789 172.879 683.789 171.874V171.863C683.789 170.611 682.734 169.746 681.122 169.746C679.539 169.746 678.461 170.65 678.337 172.015L678.331 172.076H679.511L679.516 172.02C679.595 171.257 680.224 170.779 681.122 170.779C682.037 170.779 682.565 171.24 682.565 172.026V172.037C682.565 172.79 681.936 173.334 681.01 173.334H680.061V174.311H681.049C682.127 174.311 682.79 174.822 682.79 175.738V175.749C682.79 176.546 682.122 177.102 681.133 177.102C680.128 177.102 679.449 176.585 679.37 175.85L679.365 175.794H678.163L678.169 175.861C678.275 177.203 679.404 178.152 681.133 178.152Z" fill="#4B4848"/>
<path d="M688.372 178H693.83V176.928H690.085V176.816L691.803 175.103C693.274 173.643 693.701 172.936 693.701 172.015V171.998C693.701 170.661 692.589 169.701 691.079 169.701C689.45 169.701 688.305 170.746 688.299 172.228L688.31 172.239H689.489L689.495 172.222C689.495 171.335 690.101 170.74 691.011 170.74C691.898 170.74 692.443 171.324 692.443 172.116V172.133C692.443 172.79 692.134 173.205 691.062 174.323L688.372 177.147V178Z" fill="#4B4848"/>
<path d="M698.117 178.197C699.982 178.197 701.11 176.563 701.11 173.952V173.941C701.11 171.33 699.982 169.701 698.117 169.701C696.248 169.701 695.125 171.33 695.125 173.941V173.952C695.125 176.563 696.248 178.197 698.117 178.197ZM698.117 177.153C697.028 177.153 696.394 175.934 696.394 173.952V173.941C696.394 171.958 697.028 170.751 698.117 170.751C699.201 170.751 699.841 171.958 699.841 173.941V173.952C699.841 175.934 699.201 177.153 698.117 177.153Z" fill="#4B4848"/>
<path d="M702.506 178H707.964V176.928H704.219V176.816L705.937 175.103C707.408 173.643 707.835 172.936 707.835 172.015V171.998C707.835 170.661 706.723 169.701 705.213 169.701C703.584 169.701 702.439 170.746 702.433 172.228L702.444 172.239H703.623L703.629 172.222C703.629 171.335 704.236 170.74 705.145 170.74C706.032 170.74 706.577 171.324 706.577 172.116V172.133C706.577 172.79 706.268 173.205 705.196 174.323L702.506 177.147V178Z" fill="#4B4848"/>
<path d="M709.393 178H714.851V176.928H711.106V176.816L712.824 175.103C714.295 173.643 714.722 172.936 714.722 172.015V171.998C714.722 170.661 713.61 169.701 712.1 169.701C710.472 169.701 709.326 170.746 709.32 172.228L709.332 172.239H710.511L710.516 172.222C710.516 171.335 711.123 170.74 712.033 170.74C712.92 170.74 713.464 171.324 713.464 172.116V172.133C713.464 172.79 713.156 173.205 712.083 174.323L709.393 177.147V178Z" fill="#4B4848"/>
<rect x="552.941" y="156.972" width="183" height="34" stroke="#B3B3B3" stroke-width="0.83"/>
</g>
<path d="M80.4697 178.197C81.0032 178.197 81.4973 178.112 81.9297 177.944L82.6147 178.876H83.9119L82.845 177.422C83.7434 176.697 84.2488 175.49 84.2488 173.951V173.94C84.2488 171.34 82.8 169.701 80.4697 169.701C78.145 169.701 76.6851 171.335 76.6851 173.94V173.951C76.6851 176.551 78.1113 178.197 80.4697 178.197ZM80.4697 177.085C78.9087 177.085 77.9709 175.849 77.9709 173.951V173.94C77.9709 172.025 78.9368 170.812 80.4697 170.812C82.0027 170.812 82.9629 172.025 82.9629 173.94V173.951C82.9629 175.024 82.6597 175.889 82.115 176.433L81.4692 175.557H80.1721L81.2166 176.972C80.9863 177.045 80.7336 177.085 80.4697 177.085Z" fill="#4B4848"/>
<path d="M87.6266 178.118C88.5138 178.118 89.1315 177.736 89.4235 177.079H89.5189V178H90.7318V171.902H89.5189V175.479C89.5189 176.461 88.9967 177.073 88.0197 177.073C87.1269 177.073 86.7562 176.574 86.7562 175.563V171.902H85.5377V175.849C85.5377 177.292 86.2509 178.118 87.6266 178.118Z" fill="#4B4848"/>
<path d="M94.8284 178.118C96.3894 178.118 97.2317 177.219 97.4339 176.417L97.4451 176.366L96.2715 176.372L96.2491 176.417C96.1031 176.731 95.637 177.118 94.8565 177.118C93.8514 177.118 93.2112 176.439 93.1888 175.271H97.5125V174.844C97.5125 173.014 96.4681 171.784 94.7666 171.784C93.0652 171.784 91.9646 173.059 91.9646 174.962V174.968C91.9646 176.899 93.0428 178.118 94.8284 178.118ZM94.7723 172.783C95.5977 172.783 96.2098 173.311 96.3052 174.401H93.2056C93.3123 173.351 93.9412 172.783 94.7723 172.783Z" fill="#4B4848"/>
<path d="M98.7397 178H99.9582V174.356C99.9582 173.474 100.593 172.901 101.525 172.901C101.755 172.901 101.963 172.929 102.182 172.974V171.851C102.058 171.823 101.845 171.795 101.648 171.795C100.834 171.795 100.267 172.177 100.048 172.823H99.9582V171.902H98.7397V178Z" fill="#4B4848"/>
<path d="M103.796 180.145C105.032 180.145 105.649 179.69 106.166 178.236L108.435 171.902H107.154L105.633 176.776H105.526L103.999 171.902H102.685L104.897 178.006L104.807 178.32C104.628 178.938 104.285 179.179 103.718 179.179C103.577 179.179 103.426 179.174 103.308 179.157V180.117C103.465 180.134 103.645 180.145 103.796 180.145Z" fill="#4B4848"/>
<path d="M112.512 178H117.655V176.916H113.77V174.395H117.448V173.351H113.77V170.981H117.655V169.897H112.512V178Z" fill="#4B4848"/>
<path d="M118.641 178H119.966L121.303 175.799H121.393L122.729 178H124.116L122.078 174.912L124.094 171.902H122.746L121.443 174.081H121.348L120.034 171.902H118.624L120.668 174.962L118.641 178Z" fill="#4B4848"/>
<path d="M127.415 178.118C128.976 178.118 129.819 177.219 130.021 176.417L130.032 176.366L128.858 176.372L128.836 176.417C128.69 176.731 128.224 177.118 127.443 177.118C126.438 177.118 125.798 176.439 125.776 175.271H130.099V174.844C130.099 173.014 129.055 171.784 127.353 171.784C125.652 171.784 124.551 173.059 124.551 174.962V174.968C124.551 176.899 125.63 178.118 127.415 178.118ZM127.359 172.783C128.184 172.783 128.797 173.311 128.892 174.401H125.792C125.899 173.351 126.528 172.783 127.359 172.783Z" fill="#4B4848"/>
<path d="M133.893 178.118C135.403 178.118 136.273 177.304 136.492 176.119L136.504 176.068H135.336L135.325 176.096C135.128 176.753 134.656 177.102 133.893 177.102C132.888 177.102 132.264 176.282 132.264 174.934V174.923C132.264 173.609 132.876 172.8 133.893 172.8C134.701 172.8 135.195 173.25 135.33 173.85L135.336 173.867L136.504 173.862V173.833C136.335 172.649 135.42 171.784 133.887 171.784C132.107 171.784 131.023 172.991 131.023 174.923V174.934C131.023 176.905 132.113 178.118 133.893 178.118Z" fill="#4B4848"/>
<path d="M139.696 178.118C140.583 178.118 141.201 177.736 141.493 177.079H141.589V178H142.801V171.902H141.589V175.479C141.589 176.461 141.066 177.073 140.089 177.073C139.196 177.073 138.826 176.574 138.826 175.563V171.902H137.607V175.849C137.607 177.292 138.321 178.118 139.696 178.118Z" fill="#4B4848"/>
<path d="M146.64 178.039C146.876 178.039 147.1 178.011 147.297 177.978V177.006C147.128 177.023 147.022 177.029 146.836 177.029C146.235 177.029 145.988 176.759 145.988 176.102V172.862H147.297V171.902H145.988V170.363H144.747V171.902H143.793V172.862H144.747V176.394C144.747 177.568 145.298 178.039 146.64 178.039Z" fill="#4B4848"/>
<path d="M150.989 178.118C152.55 178.118 153.392 177.219 153.594 176.417L153.606 176.366L152.432 176.372L152.41 176.417C152.264 176.731 151.798 177.118 151.017 177.118C150.012 177.118 149.372 176.439 149.349 175.271H153.673V174.844C153.673 173.014 152.629 171.784 150.927 171.784C149.226 171.784 148.125 173.059 148.125 174.962V174.968C148.125 176.899 149.203 178.118 150.989 178.118ZM150.933 172.783C151.758 172.783 152.37 173.311 152.466 174.401H149.366C149.473 173.351 150.102 172.783 150.933 172.783Z" fill="#4B4848"/>
<path d="M157.124 178.101C157.977 178.101 158.646 177.708 158.999 177.04H159.095V178H160.308V169.51H159.095V172.868H158.999C158.674 172.211 157.961 171.795 157.124 171.795C155.574 171.795 154.597 173.014 154.597 174.945V174.957C154.597 176.871 155.591 178.101 157.124 178.101ZM157.472 177.062C156.45 177.062 155.838 176.265 155.838 174.957V174.945C155.838 173.637 156.45 172.84 157.472 172.84C158.483 172.84 159.112 173.643 159.112 174.945V174.957C159.112 176.259 158.488 177.062 157.472 177.062Z" fill="#4B4848"/>
<path d="M238.886 178H240.104V174.356C240.104 173.474 240.739 172.902 241.671 172.902C241.901 172.902 242.109 172.93 242.328 172.975V171.852C242.204 171.823 241.991 171.795 241.794 171.795C240.98 171.795 240.413 172.177 240.194 172.823H240.104V171.902H238.886V178Z" fill="#4B4848"/>
<path d="M245.694 178.118C247.48 178.118 248.575 176.922 248.575 174.957V174.946C248.575 172.98 247.475 171.784 245.694 171.784C243.909 171.784 242.808 172.986 242.808 174.946V174.957C242.808 176.922 243.903 178.118 245.694 178.118ZM245.694 177.102C244.644 177.102 244.055 176.31 244.055 174.957V174.946C244.055 173.592 244.644 172.801 245.694 172.801C246.739 172.801 247.334 173.592 247.334 174.946V174.957C247.334 176.304 246.739 177.102 245.694 177.102Z" fill="#4B4848"/>
<path d="M249.808 178H251.026V174.255C251.026 173.458 251.571 172.829 252.307 172.829C253.025 172.829 253.48 173.267 253.48 173.963V178H254.693V174.143C254.693 173.407 255.204 172.829 255.979 172.829C256.776 172.829 257.158 173.244 257.158 174.086V178H258.371V173.794C258.371 172.525 257.652 171.784 256.423 171.784C255.575 171.784 254.873 172.217 254.564 172.874H254.469C254.199 172.217 253.609 171.784 252.778 171.784C251.981 171.784 251.386 172.172 251.116 172.84H251.026V171.902H249.808V178Z" fill="#4B4848"/>
<path d="M260.486 170.813C260.901 170.813 261.249 170.47 261.249 170.055C261.249 169.634 260.901 169.291 260.486 169.291C260.064 169.291 259.722 169.634 259.722 170.055C259.722 170.47 260.064 170.813 260.486 170.813ZM259.873 178H261.086V171.902H259.873V178Z" fill="#4B4848"/>
<path d="M262.639 178H263.858V174.423C263.858 173.441 264.414 172.829 265.306 172.829C266.199 172.829 266.62 173.328 266.62 174.339V178H267.833V174.053C267.833 172.598 267.081 171.784 265.716 171.784C264.829 171.784 264.245 172.177 263.948 172.829H263.858V171.902H262.639V178Z" fill="#4B4848"/>
<path d="M270.987 178.101C271.795 178.101 272.435 177.753 272.795 177.135H272.89V178H274.097V173.828C274.097 172.548 273.233 171.784 271.7 171.784C270.313 171.784 269.353 172.452 269.207 173.452L269.201 173.491H270.374L270.38 173.469C270.526 173.036 270.97 172.789 271.644 172.789C272.469 172.789 272.89 173.16 272.89 173.828V174.367L271.239 174.463C269.785 174.552 268.965 175.187 268.965 176.276V176.288C268.965 177.394 269.824 178.101 270.987 178.101ZM270.178 176.237V176.226C270.178 175.676 270.56 175.372 271.402 175.322L272.89 175.226V175.749C272.89 176.535 272.222 177.13 271.312 177.13C270.655 177.13 270.178 176.799 270.178 176.237Z" fill="#4B4848"/>
<path d="M280.26 179.281C280.929 179.281 281.569 179.191 282.052 179.033V178.253C281.715 178.405 281.007 178.5 280.3 178.5C277.902 178.5 276.363 176.99 276.363 174.637V174.625C276.363 172.323 277.919 170.689 280.103 170.689C282.31 170.689 283.804 172.054 283.804 174.081V174.092C283.804 175.384 283.382 176.22 282.72 176.22C282.338 176.22 282.125 175.99 282.125 175.597V172.407H281.17V173.087H281.075C280.856 172.593 280.356 172.295 279.766 172.295C278.621 172.295 277.835 173.239 277.835 174.597V174.609C277.835 176.029 278.615 176.984 279.783 176.984C280.44 176.984 280.929 176.675 281.164 176.102H281.26L281.265 176.136C281.372 176.675 281.872 177.023 282.535 177.023C283.849 177.023 284.68 175.878 284.68 174.064V174.053C284.68 171.61 282.832 169.914 280.165 169.914C277.391 169.914 275.487 171.818 275.487 174.592V174.603C275.487 177.45 277.352 179.281 280.26 179.281ZM279.963 176.108C279.283 176.108 278.868 175.546 278.868 174.637V174.625C278.868 173.705 279.278 173.154 279.974 173.154C280.676 173.154 281.125 173.727 281.125 174.625V174.637C281.125 175.535 280.676 176.108 279.963 176.108Z" fill="#4B4848"/>
<path d="M288.535 178.118C290.096 178.118 290.938 177.22 291.14 176.417L291.151 176.366L289.978 176.372L289.955 176.417C289.809 176.731 289.343 177.119 288.563 177.119C287.558 177.119 286.917 176.439 286.895 175.271H291.219V174.844C291.219 173.014 290.174 171.784 288.473 171.784C286.771 171.784 285.671 173.059 285.671 174.962V174.968C285.671 176.9 286.749 178.118 288.535 178.118ZM288.479 172.784C289.304 172.784 289.916 173.312 290.011 174.401H286.912C287.019 173.351 287.647 172.784 288.479 172.784Z" fill="#4B4848"/>
<path d="M291.738 178H293.064L294.4 175.799H294.49L295.826 178H297.213L295.175 174.912L297.191 171.902H295.843L294.54 174.081H294.445L293.131 171.902H291.722L293.766 174.962L291.738 178Z" fill="#4B4848"/>
<path d="M299.895 178.101C300.703 178.101 301.344 177.753 301.703 177.135H301.798V178H303.006V173.828C303.006 172.548 302.141 171.784 300.608 171.784C299.221 171.784 298.261 172.452 298.115 173.452L298.109 173.491H299.283L299.288 173.469C299.434 173.036 299.878 172.789 300.552 172.789C301.377 172.789 301.798 173.16 301.798 173.828V174.367L300.148 174.463C298.693 174.552 297.873 175.187 297.873 176.276V176.288C297.873 177.394 298.732 178.101 299.895 178.101ZM299.086 176.237V176.226C299.086 175.676 299.468 175.372 300.31 175.322L301.798 175.226V175.749C301.798 176.535 301.13 177.13 300.221 177.13C299.564 177.13 299.086 176.799 299.086 176.237Z" fill="#4B4848"/>
<path d="M304.502 178H305.721V174.255C305.721 173.458 306.266 172.829 307.001 172.829C307.72 172.829 308.175 173.267 308.175 173.963V178H309.388V174.143C309.388 173.407 309.899 172.829 310.674 172.829C311.471 172.829 311.853 173.244 311.853 174.086V178H313.066V173.794C313.066 172.525 312.347 171.784 311.117 171.784C310.269 171.784 309.567 172.217 309.258 172.874H309.163C308.894 172.217 308.304 171.784 307.473 171.784C306.675 171.784 306.08 172.172 305.811 172.84H305.721V171.902H304.502V178Z" fill="#4B4848"/>
<path d="M314.546 180.033H315.764V177.034H315.854C316.18 177.691 316.893 178.101 317.729 178.101C319.279 178.101 320.256 176.888 320.256 174.957V174.946C320.256 173.025 319.268 171.795 317.729 171.795C316.876 171.795 316.208 172.194 315.854 172.862H315.764V171.902H314.546V180.033ZM317.387 177.062C316.37 177.062 315.742 176.26 315.742 174.957V174.946C315.742 173.643 316.37 172.84 317.387 172.84C318.403 172.84 319.015 173.632 319.015 174.946V174.957C319.015 176.265 318.403 177.062 317.387 177.062Z" fill="#4B4848"/>
<path d="M321.556 178H322.775V169.51H321.556V178Z" fill="#4B4848"/>
<path d="M326.928 178.118C328.489 178.118 329.331 177.22 329.533 176.417L329.544 176.366L328.371 176.372L328.348 176.417C328.202 176.731 327.736 177.119 326.956 177.119C325.951 177.119 325.31 176.439 325.288 175.271H329.612V174.844C329.612 173.014 328.567 171.784 326.866 171.784C325.164 171.784 324.064 173.059 324.064 174.962V174.968C324.064 176.9 325.142 178.118 326.928 178.118ZM326.871 172.784C327.697 172.784 328.309 173.312 328.404 174.401H325.305C325.412 173.351 326.04 172.784 326.871 172.784Z" fill="#4B4848"/>
<path d="M331.777 178.084C332.243 178.084 332.596 177.725 332.596 177.27C332.596 176.81 332.243 176.45 331.777 176.45C331.311 176.45 330.951 176.81 330.951 177.27C330.951 177.725 331.311 178.084 331.777 178.084Z" fill="#4B4848"/>
<path d="M336.586 178.118C338.097 178.118 338.967 177.304 339.186 176.119L339.197 176.069H338.029L338.018 176.097C337.822 176.754 337.35 177.102 336.586 177.102C335.581 177.102 334.958 176.282 334.958 174.934V174.923C334.958 173.609 335.57 172.801 336.586 172.801C337.395 172.801 337.889 173.25 338.024 173.851L338.029 173.867L339.197 173.862V173.834C339.029 172.649 338.114 171.784 336.581 171.784C334.801 171.784 333.717 172.991 333.717 174.923V174.934C333.717 176.905 334.806 178.118 336.586 178.118Z" fill="#4B4848"/>
<path d="M342.94 178.118C344.726 178.118 345.821 176.922 345.821 174.957V174.946C345.821 172.98 344.72 171.784 342.94 171.784C341.155 171.784 340.054 172.986 340.054 174.946V174.957C340.054 176.922 341.149 178.118 342.94 178.118ZM342.94 177.102C341.89 177.102 341.301 176.31 341.301 174.957V174.946C341.301 173.592 341.89 172.801 342.94 172.801C343.985 172.801 344.58 173.592 344.58 174.946V174.957C344.58 176.304 343.985 177.102 342.94 177.102Z" fill="#4B4848"/>
<path d="M347.054 178H348.272V174.255C348.272 173.458 348.817 172.829 349.552 172.829C350.271 172.829 350.726 173.267 350.726 173.963V178H351.939V174.143C351.939 173.407 352.45 172.829 353.225 172.829C354.022 172.829 354.404 173.244 354.404 174.086V178H355.617V173.794C355.617 172.525 354.898 171.784 353.668 171.784C352.821 171.784 352.119 172.217 351.81 172.874H351.714C351.445 172.217 350.855 171.784 350.024 171.784C349.227 171.784 348.632 172.172 348.362 172.84H348.272V171.902H347.054V178Z" fill="#4B4848"/>
<path d="M405.889 178.196C407.59 178.196 408.82 177.006 408.82 175.377V175.366C408.82 173.816 407.714 172.671 406.17 172.671C405.063 172.671 404.333 173.249 404.036 173.9H403.929C403.929 173.839 403.929 173.777 403.935 173.715C403.997 172.098 404.564 170.767 405.928 170.767C406.692 170.767 407.22 171.16 407.444 171.778L407.467 171.834H408.713L408.702 171.767C408.433 170.542 407.366 169.7 405.934 169.7C403.929 169.7 402.733 171.317 402.733 174.058V174.069C402.733 177.051 404.26 178.196 405.889 178.196ZM404.176 175.377V175.372C404.176 174.395 404.917 173.687 405.889 173.687C406.872 173.687 407.579 174.406 407.579 175.4V175.411C407.579 176.382 406.827 177.14 405.878 177.14C404.923 177.14 404.176 176.365 404.176 175.377Z" fill="#4B4848"/>
<path d="M410.199 178H415.657V176.927H411.912V176.815L413.63 175.102C415.101 173.642 415.528 172.935 415.528 172.014V171.997C415.528 170.66 414.416 169.7 412.905 169.7C411.277 169.7 410.131 170.745 410.126 172.227L410.137 172.238H411.316L411.322 172.221C411.322 171.334 411.928 170.739 412.838 170.739C413.725 170.739 414.27 171.323 414.27 172.115V172.132C414.27 172.789 413.961 173.204 412.889 174.322L410.199 177.146V178Z" fill="#4B4848"/>
<path d="M420.326 178.101C421.865 178.101 422.853 176.871 422.853 174.956V174.945C422.853 173.013 421.876 171.795 420.326 171.795C419.49 171.795 418.776 172.21 418.451 172.867H418.361V169.509H417.142V178H418.361V177.039H418.451C418.804 177.708 419.473 178.101 420.326 178.101ZM419.984 177.062C418.967 177.062 418.338 176.259 418.338 174.956V174.945C418.338 173.642 418.967 172.839 419.984 172.839C421 172.839 421.612 173.636 421.612 174.945V174.956C421.612 176.264 421 177.062 419.984 177.062Z" fill="#4B4848"/>
<path d="M426.652 178.117C428.163 178.117 429.033 177.303 429.252 176.118L429.263 176.068H428.095L428.084 176.096C427.887 176.753 427.416 177.101 426.652 177.101C425.647 177.101 425.024 176.281 425.024 174.934V174.922C425.024 173.608 425.636 172.8 426.652 172.8C427.461 172.8 427.955 173.249 428.09 173.85L428.095 173.867L429.263 173.861V173.833C429.095 172.648 428.179 171.783 426.646 171.783C424.866 171.783 423.783 172.991 423.783 174.922V174.934C423.783 176.905 424.872 178.117 426.652 178.117Z" fill="#4B4848"/>
<path d="M433.281 178.196C435.145 178.196 436.274 176.562 436.274 173.951V173.94C436.274 171.329 435.145 169.7 433.281 169.7C431.411 169.7 430.288 171.329 430.288 173.94V173.951C430.288 176.562 431.411 178.196 433.281 178.196ZM433.281 177.152C432.192 177.152 431.557 175.933 431.557 173.951V173.94C431.557 171.958 432.192 170.75 433.281 170.75C434.365 170.75 435.005 171.958 435.005 173.94V173.951C435.005 175.933 434.365 177.152 433.281 177.152Z" fill="#4B4848"/>
<path d="M438.102 178H439.315V172.862H440.657V171.901H439.304V171.317C439.304 170.7 439.568 170.374 440.241 170.374C440.432 170.374 440.595 170.385 440.707 170.402V169.509C440.5 169.476 440.264 169.453 439.989 169.453C438.72 169.453 438.102 170.048 438.102 171.261V171.901H437.097V172.862H438.102V178Z" fill="#4B4848"/>
<path d="M443.788 178H445.046V169.897H443.788L441.654 171.413V172.648L443.692 171.194H443.788V178Z" fill="#4B4848"/>
<path d="M449.103 178H450.361V169.897H449.103L446.969 171.413V172.648L449.007 171.194H449.103V178Z" fill="#4B4848"/>
<path d="M455.243 178.196C456.95 178.196 458.152 177.051 458.152 175.388V175.377C458.152 173.822 457.063 172.688 455.541 172.688C454.794 172.688 454.16 173.002 453.817 173.547H453.722L453.969 170.964H457.692V169.897H452.98L452.576 174.602H453.66C453.755 174.417 453.884 174.26 454.03 174.131C454.35 173.839 454.772 173.693 455.266 173.693C456.243 173.693 456.95 174.4 456.95 175.4V175.411C456.95 176.427 456.254 177.14 455.255 177.14C454.367 177.14 453.722 176.573 453.615 175.86L453.609 175.815H452.43L452.436 175.888C452.548 177.202 453.649 178.196 455.243 178.196Z" fill="#4B4848"/>
<path d="M463.231 178H464.444V176.388H465.562V175.321H464.444V169.897H462.653C461.535 171.576 460.345 173.49 459.278 175.321V176.388H463.231V178ZM460.485 175.344V175.265C461.316 173.844 462.305 172.266 463.175 170.958H463.248V175.344H460.485Z" fill="#4B4848"/>
<path d="M469.681 178.196C471.388 178.196 472.589 177.051 472.589 175.388V175.377C472.589 173.822 471.5 172.688 469.978 172.688C469.231 172.688 468.597 173.002 468.254 173.547H468.159L468.406 170.964H472.129V169.897H467.418L467.013 174.602H468.097C468.193 174.417 468.322 174.26 468.468 174.131C468.788 173.839 469.209 173.693 469.703 173.693C470.68 173.693 471.388 174.4 471.388 175.4V175.411C471.388 176.427 470.691 177.14 469.692 177.14C468.805 177.14 468.159 176.573 468.052 175.86L468.047 175.815H466.867L466.873 175.888C466.985 177.202 468.086 178.196 469.681 178.196Z" fill="#4B4848"/>
<path d="M476.517 178.117C478.028 178.117 478.898 177.303 479.117 176.118L479.129 176.068H477.961L477.949 176.096C477.753 176.753 477.281 177.101 476.517 177.101C475.512 177.101 474.889 176.281 474.889 174.934V174.922C474.889 173.608 475.501 172.8 476.517 172.8C477.326 172.8 477.82 173.249 477.955 173.85L477.961 173.867L479.129 173.861V173.833C478.96 172.648 478.045 171.783 476.512 171.783C474.732 171.783 473.648 172.991 473.648 174.922V174.934C473.648 176.905 474.737 178.117 476.517 178.117Z" fill="#4B4848"/>
<path d="M484.006 178H485.218V176.388H486.336V175.321H485.218V169.897H483.427C482.31 171.576 481.119 173.49 480.052 175.321V176.388H484.006V178ZM481.26 175.344V175.265C482.091 173.844 483.079 172.266 483.949 170.958H484.022V175.344H481.26Z" fill="#4B4848"/>
<path d="M487.647 178H493.105V176.927H489.36V176.815L491.078 175.102C492.549 173.642 492.976 172.935 492.976 172.014V171.997C492.976 170.66 491.864 169.7 490.354 169.7C488.725 169.7 487.58 170.745 487.574 172.227L487.586 172.238H488.765L488.77 172.221C488.77 171.334 489.377 170.739 490.287 170.739C491.174 170.739 491.718 171.323 491.718 172.115V172.132C491.718 172.789 491.41 173.204 490.337 174.322L487.647 177.146V178Z" fill="#4B4848"/>
<path d="M494.535 178H499.993V176.927H496.247V176.815L497.966 175.102C499.437 173.642 499.864 172.935 499.864 172.014V171.997C499.864 170.66 498.752 169.7 497.241 169.7C495.613 169.7 494.467 170.745 494.462 172.227L494.473 172.238H495.652L495.658 172.221C495.658 171.334 496.264 170.739 497.174 170.739C498.061 170.739 498.606 171.323 498.606 172.115V172.132C498.606 172.789 498.297 173.204 497.224 174.322L494.535 177.146V178Z" fill="#4B4848"/>
<path d="M502.214 178.084C502.68 178.084 503.034 177.724 503.034 177.27C503.034 176.809 502.68 176.45 502.214 176.45C501.748 176.45 501.388 176.809 501.388 177.27C501.388 177.724 501.748 178.084 502.214 178.084Z" fill="#4B4848"/>
<path d="M505.62 178.084C506.086 178.084 506.44 177.724 506.44 177.27C506.44 176.809 506.086 176.45 505.62 176.45C505.154 176.45 504.794 176.809 504.794 177.27C504.794 177.724 505.154 178.084 505.62 178.084Z" fill="#4B4848"/>
<path d="M509.026 178.084C509.492 178.084 509.845 177.724 509.845 177.27C509.845 176.809 509.492 176.45 509.026 176.45C508.56 176.45 508.2 176.809 508.2 177.27C508.2 177.724 508.56 178.084 509.026 178.084Z" fill="#4B4848"/>
<path d="M64.9481 143V132.091H72.1711V133.993H67.2546V136.592H71.6917V138.494H67.2546V143H64.9481Z" fill="#393939"/>
<path d="M73.6799 143V134.818H75.9491V143H73.6799ZM74.8198 133.764C74.4825 133.764 74.1931 133.652 73.9516 133.428C73.7137 133.201 73.5947 132.929 73.5947 132.613C73.5947 132.301 73.7137 132.032 73.9516 131.809C74.1931 131.581 74.4825 131.468 74.8198 131.468C75.1572 131.468 75.4448 131.581 75.6828 131.809C75.9242 132.032 76.045 132.301 76.045 132.613C76.045 132.929 75.9242 133.201 75.6828 133.428C75.4448 133.652 75.1572 133.764 74.8198 133.764Z" fill="#393939"/>
<path d="M80.036 132.091V143H77.7668V132.091H80.036Z" fill="#393939"/>
<path d="M86.2057 134.818V136.523H81.2785V134.818H86.2057ZM82.3971 132.858H84.6663V140.486C84.6663 140.695 84.6982 140.859 84.7621 140.976C84.8261 141.09 84.9148 141.169 85.0285 141.216C85.1457 141.262 85.2806 141.285 85.4333 141.285C85.5398 141.285 85.6464 141.276 85.7529 141.258C85.8594 141.237 85.9411 141.221 85.9979 141.21L86.3548 142.899C86.2412 142.934 86.0814 142.975 85.8754 143.021C85.6694 143.071 85.4191 143.101 85.1243 143.112C84.5775 143.133 84.0981 143.06 83.6861 142.894C83.2778 142.727 82.9599 142.467 82.7327 142.116C82.5054 141.764 82.3935 141.32 82.3971 140.784V132.858Z" fill="#393939"/>
<path d="M91.3246 143.16C90.483 143.16 89.7586 142.989 89.1513 142.649C88.5476 142.304 88.0824 141.818 87.7557 141.189C87.429 140.557 87.2657 139.809 87.2657 138.946C87.2657 138.105 87.429 137.366 87.7557 136.731C88.0824 136.095 88.5423 135.6 89.1354 135.244C89.7319 134.889 90.4315 134.712 91.2341 134.712C91.7738 134.712 92.2763 134.799 92.7415 134.973C93.2103 135.143 93.6187 135.401 93.9667 135.745C94.3182 136.09 94.5917 136.523 94.787 137.045C94.9823 137.563 95.08 138.171 95.08 138.867V139.49H88.1712V138.084H92.9439C92.9439 137.757 92.8729 137.467 92.7309 137.215C92.5888 136.963 92.3917 136.766 92.1396 136.624C91.891 136.478 91.6016 136.406 91.2714 136.406C90.9269 136.406 90.6215 136.486 90.3552 136.645C90.0924 136.802 89.8864 137.013 89.7373 137.279C89.5881 137.542 89.5118 137.835 89.5082 138.158V139.495C89.5082 139.9 89.5828 140.25 89.7319 140.544C89.8846 140.839 90.0995 141.066 90.3765 141.226C90.6535 141.386 90.9819 141.466 91.3619 141.466C91.614 141.466 91.8449 141.43 92.0544 141.359C92.2639 141.288 92.4432 141.182 92.5924 141.04C92.7415 140.898 92.8552 140.724 92.9333 140.518L95.032 140.656C94.9255 141.161 94.7071 141.601 94.3768 141.977C94.0501 142.35 93.6275 142.641 93.1091 142.851C92.5942 143.057 91.9993 143.16 91.3246 143.16Z" fill="#393939"/>
<path d="M96.5608 143V134.818H98.7607V136.246H98.8459C98.9951 135.738 99.2454 135.354 99.597 135.095C99.9486 134.832 100.353 134.701 100.811 134.701C100.925 134.701 101.048 134.708 101.179 134.722C101.31 134.737 101.426 134.756 101.525 134.781V136.794C101.419 136.763 101.271 136.734 101.083 136.709C100.895 136.684 100.723 136.672 100.566 136.672C100.233 136.672 99.9344 136.745 99.6716 136.89C99.4123 137.032 99.2064 137.231 99.0537 137.487C98.9045 137.743 98.83 138.037 98.83 138.371V143H96.5608Z" fill="#393939"/>
<path d="M109.506 137.151L107.429 137.279C107.393 137.102 107.317 136.942 107.2 136.8C107.082 136.654 106.928 136.539 106.736 136.454C106.548 136.365 106.322 136.32 106.06 136.32C105.708 136.32 105.412 136.395 105.17 136.544C104.929 136.69 104.808 136.885 104.808 137.13C104.808 137.325 104.886 137.491 105.042 137.625C105.198 137.76 105.467 137.869 105.847 137.95L107.327 138.249C108.123 138.412 108.716 138.675 109.106 139.037C109.497 139.399 109.692 139.875 109.692 140.465C109.692 141.001 109.534 141.471 109.218 141.876C108.906 142.281 108.476 142.597 107.929 142.824C107.386 143.048 106.759 143.16 106.049 143.16C104.966 143.16 104.103 142.934 103.46 142.483C102.821 142.029 102.446 141.411 102.336 140.63L104.568 140.513C104.636 140.843 104.799 141.095 105.058 141.269C105.317 141.439 105.649 141.525 106.054 141.525C106.452 141.525 106.772 141.448 107.013 141.296C107.258 141.139 107.382 140.939 107.386 140.694C107.382 140.488 107.295 140.319 107.125 140.188C106.955 140.053 106.692 139.95 106.337 139.879L104.92 139.596C104.121 139.437 103.526 139.16 103.135 138.765C102.748 138.371 102.555 137.869 102.555 137.258C102.555 136.732 102.697 136.28 102.981 135.9C103.268 135.52 103.671 135.227 104.19 135.021C104.712 134.815 105.323 134.712 106.022 134.712C107.056 134.712 107.869 134.93 108.462 135.367C109.059 135.804 109.407 136.399 109.506 137.151Z" fill="#393939"/>
</g>
</g>
<defs>
<filter id="filter0_d_625_11712" x="67" y="26" width="679" height="511" filterUnits="userSpaceOnUse" color-interpolation-filters="sRGB">
<feFlood flood-opacity="0" result="BackgroundImageFix"/>
<feColorMatrix in="SourceAlpha" type="matrix" values="0 0 0 0 0 0 0 0 0 0 0 0 0 0 0 0 0 0 127 0" result="hardAlpha"/>
<feOffset dy="10"/>
<feGaussianBlur stdDeviation="10"/>
<feComposite in2="hardAlpha" operator="out"/>
<feColorMatrix type="matrix" values="0 0 0 0 0 0 0 0 0 0 0 0 0 0 0 0 0 0 0.11 0"/>
<feBlend mode="normal" in2="BackgroundImageFix" result="effect1_dropShadow_625_11712"/>
<feBlend mode="normal" in="SourceGraphic" in2="effect1_dropShadow_625_11712" result="shape"/>
</filter>
<filter id="filter1_d_625_11712" x="67" y="26" width="679" height="511" filterUnits="userSpaceOnUse" color-interpolation-filters="sRGB">
<feFlood flood-opacity="0" result="BackgroundImageFix"/>
<feColorMatrix in="SourceAlpha" type="matrix" values="0 0 0 0 0 0 0 0 0 0 0 0 0 0 0 0 0 0 127 0" result="hardAlpha"/>
<feOffset dy="10"/>
<feGaussianBlur stdDeviation="10"/>
<feComposite in2="hardAlpha" operator="out"/>
<feColorMatrix type="matrix" values="0 0 0 0 0 0 0 0 0 0 0 0 0 0 0 0 0 0 0.11 0"/>
<feBlend mode="normal" in2="BackgroundImageFix" result="effect1_dropShadow_625_11712"/>
<feBlend mode="normal" in="SourceGraphic" in2="effect1_dropShadow_625_11712" result="shape"/>
</filter>
<filter id="filter2_d_625_11712" x="-9" y="76" width="799.356" height="203" filterUnits="userSpaceOnUse" color-interpolation-filters="sRGB">
<feFlood flood-opacity="0" result="BackgroundImageFix"/>
<feColorMatrix in="SourceAlpha" type="matrix" values="0 0 0 0 0 0 0 0 0 0 0 0 0 0 0 0 0 0 127 0" result="hardAlpha"/>
<feOffset dy="14"/>
<feGaussianBlur stdDeviation="27"/>
<feComposite in2="hardAlpha" operator="out"/>
<feColorMatrix type="matrix" values="0 0 0 0 0 0 0 0 0 0 0 0 0 0 0 0 0 0 0.11 0"/>
<feBlend mode="normal" in2="BackgroundImageFix" result="effect1_dropShadow_625_11712"/>
<feBlend mode="normal" in="SourceGraphic" in2="effect1_dropShadow_625_11712" result="shape"/>
</filter>
<clipPath id="clip0_625_11712">
<rect width="725" height="537" fill="white"/>
</clipPath>
</defs>
</svg>
