<svg width="734" height="537" viewBox="0 0 734 537" fill="none" xmlns="http://www.w3.org/2000/svg">
<g clip-path="url(#clip0_625_11711)">
<g filter="url(#filter0_d_625_11711)">
<rect x="98" y="40" width="639" height="471" fill="white"/>
<rect x="98.5" y="40.5" width="638" height="470" stroke="#E7E7E7"/>
</g>
<circle cx="149" cy="144" r="9" fill="#FFDEDE"/>
<g opacity="0.7">
<rect x="188" y="140" width="151.334" height="8.29379" fill="#D9D9D9"/>
<rect x="361.83" y="140" width="216.776" height="8.29379" fill="#D9D9D9"/>
<rect width="55.8983" height="8.29379" transform="matrix(-1 0 0 1 657 140)" fill="#D9D9D9"/>
</g>
<g opacity="0.7">
<rect x="188" y="177" width="151.334" height="8.29379" fill="#D9D9D9"/>
<rect x="361.83" y="177" width="216.776" height="8.29379" fill="#D9D9D9"/>
<rect width="55.8983" height="8.29379" transform="matrix(-1 0 0 1 657 177)" fill="#D9D9D9"/>
</g>
<g opacity="0.7">
<rect x="188" y="214" width="151.334" height="8.29379" fill="#D9D9D9"/>
<rect x="361.83" y="214" width="216.776" height="8.29379" fill="#D9D9D9"/>
<rect width="55.8983" height="8.29379" transform="matrix(-1 0 0 1 657 214)" fill="#D9D9D9"/>
</g>
<circle cx="148" cy="216" r="9" fill="#FFDEDE"/>
<circle cx="148" cy="292" r="9" fill="#FFDEDE"/>
<circle cx="148" cy="329" r="9" fill="#FFDEDE"/>
<circle cx="148" cy="366" r="9" fill="#FFDEDE"/>
<circle cx="148" cy="403" r="9" fill="#FFDEDE"/>
<circle cx="148" cy="440" r="9" fill="#FFDEDE"/>
<circle cx="148" cy="477" r="9" fill="#FFDEDE"/>
<g opacity="0.7">
<rect x="188" y="288" width="151.334" height="8.29379" fill="#D9D9D9"/>
<rect x="361.83" y="288" width="216.776" height="8.29379" fill="#D9D9D9"/>
<rect width="55.8983" height="8.29379" transform="matrix(-1 0 0 1 657 288)" fill="#D9D9D9"/>
</g>
<g opacity="0.7">
<rect x="188" y="325" width="151.334" height="8.29379" fill="#D9D9D9"/>
<rect x="361.83" y="325" width="216.776" height="8.29379" fill="#D9D9D9"/>
<rect width="55.8983" height="8.29379" transform="matrix(-1 0 0 1 657 325)" fill="#D9D9D9"/>
</g>
<g opacity="0.7">
<rect x="188" y="362" width="151.334" height="8.29379" fill="#D9D9D9"/>
<rect x="361.83" y="362" width="216.776" height="8.29379" fill="#D9D9D9"/>
<rect width="55.8983" height="8.29379" transform="matrix(-1 0 0 1 657 362)" fill="#D9D9D9"/>
</g>
<g opacity="0.7">
<rect x="188" y="399" width="151.334" height="8.29379" fill="#D9D9D9"/>
<rect x="361.83" y="399" width="216.776" height="8.29379" fill="#D9D9D9"/>
<rect width="55.8983" height="8.29379" transform="matrix(-1 0 0 1 657 399)" fill="#D9D9D9"/>
</g>
<g opacity="0.7">
<rect x="188" y="436" width="151.334" height="8.29379" fill="#D9D9D9"/>
<rect x="361.83" y="436" width="216.776" height="8.29379" fill="#D9D9D9"/>
<rect width="55.8983" height="8.29379" transform="matrix(-1 0 0 1 657 436)" fill="#D9D9D9"/>
</g>
<g opacity="0.7">
<rect x="188" y="473" width="151.334" height="8.29379" fill="#D9D9D9"/>
<rect x="361.83" y="473" width="216.776" height="8.29379" fill="#D9D9D9"/>
<rect width="55.8983" height="8.29379" transform="matrix(-1 0 0 1 657 473)" fill="#D9D9D9"/>
</g>
<path d="M144.128 96H140.613L147.013 77.8182H151.08L157.489 96H153.974L149.118 81.5469H148.975L144.128 96ZM144.244 88.8711H153.832V91.5167H144.244V88.8711ZM168.434 90.2649V82.3636H171.647V96H168.531V93.5763H168.389C168.081 94.3398 167.575 94.9643 166.871 95.4496C166.173 95.9349 165.311 96.1776 164.288 96.1776C163.394 96.1776 162.604 95.9793 161.917 95.5827C161.237 95.1803 160.704 94.5973 160.319 93.8338C159.934 93.0644 159.742 92.1352 159.742 91.0462V82.3636H162.956V90.549C162.956 91.4131 163.193 92.0997 163.666 92.6087C164.14 93.1177 164.761 93.3722 165.53 93.3722C166.004 93.3722 166.463 93.2567 166.907 93.0259C167.35 92.7951 167.714 92.4518 167.998 91.9961C168.289 91.5344 168.434 90.9574 168.434 90.2649ZM180.012 96.2397C178.941 96.2397 177.982 95.9645 177.136 95.4141C176.29 94.8636 175.621 94.0646 175.13 93.017C174.638 91.9695 174.393 90.697 174.393 89.1996C174.393 87.6844 174.641 86.406 175.138 85.3643C175.642 84.3168 176.319 83.5266 177.172 82.994C178.024 82.4554 178.974 82.1861 180.021 82.1861C180.82 82.1861 181.477 82.3222 181.992 82.5945C182.507 82.8608 182.915 83.1834 183.217 83.5621C183.519 83.935 183.753 84.2872 183.919 84.6186H184.052V77.8182H187.275V96H184.114V93.8516H183.919C183.753 94.183 183.513 94.5352 183.2 94.908C182.886 95.275 182.472 95.5887 181.957 95.8491C181.442 96.1095 180.794 96.2397 180.012 96.2397ZM180.909 93.603C181.59 93.603 182.17 93.4195 182.649 93.0526C183.129 92.6797 183.493 92.1618 183.741 91.4989C183.99 90.8361 184.114 90.0637 184.114 89.1818C184.114 88.3 183.99 87.5335 183.741 86.8825C183.498 86.2314 183.137 85.7254 182.658 85.3643C182.185 85.0033 181.602 84.8228 180.909 84.8228C180.193 84.8228 179.595 85.0092 179.116 85.3821C178.636 85.755 178.275 86.2699 178.033 86.9268C177.79 87.5838 177.669 88.3355 177.669 89.1818C177.669 90.0341 177.79 90.7946 178.033 91.4634C178.281 92.1263 178.645 92.6501 179.125 93.0348C179.61 93.4136 180.205 93.603 180.909 93.603ZM190.699 96V82.3636H193.913V96H190.699ZM192.315 80.4283C191.806 80.4283 191.368 80.2596 191.001 79.9222C190.634 79.579 190.451 79.1676 190.451 78.6882C190.451 78.2029 190.634 77.7915 191.001 77.4542C191.368 77.1109 191.806 76.9393 192.315 76.9393C192.83 76.9393 193.268 77.1109 193.629 77.4542C193.996 77.7915 194.179 78.2029 194.179 78.6882C194.179 79.1676 193.996 79.579 193.629 79.9222C193.268 80.2596 192.83 80.4283 192.315 80.4283ZM204.027 82.3636V84.8494H196.188V82.3636H204.027ZM198.123 79.0966H201.337V91.8984C201.337 92.3305 201.402 92.6619 201.532 92.8928C201.668 93.1177 201.846 93.2715 202.065 93.3544C202.284 93.4373 202.527 93.4787 202.793 93.4787C202.994 93.4787 203.178 93.4639 203.343 93.4343C203.515 93.4047 203.645 93.3781 203.734 93.3544L204.276 95.8668C204.104 95.926 203.858 95.9911 203.539 96.0621C203.225 96.1332 202.84 96.1746 202.385 96.1864C201.58 96.2101 200.855 96.0888 200.21 95.8224C199.564 95.5502 199.052 95.13 198.674 94.5618C198.301 93.9936 198.117 93.2834 198.123 92.4311V79.0966ZM213.058 96V77.8182H216.352V93.239H224.359V96H213.058ZM233.024 96.2663C231.693 96.2663 230.538 95.9734 229.562 95.3874C228.585 94.8015 227.828 93.9818 227.289 92.9283C226.756 91.8748 226.49 90.6437 226.49 89.2351C226.49 87.8265 226.756 86.5924 227.289 85.533C227.828 84.4736 228.585 83.6509 229.562 83.065C230.538 82.479 231.693 82.1861 233.024 82.1861C234.356 82.1861 235.51 82.479 236.487 83.065C237.463 83.6509 238.218 84.4736 238.75 85.533C239.289 86.5924 239.558 87.8265 239.558 89.2351C239.558 90.6437 239.289 91.8748 238.75 92.9283C238.218 93.9818 237.463 94.8015 236.487 95.3874C235.51 95.9734 234.356 96.2663 233.024 96.2663ZM233.042 93.6918C233.764 93.6918 234.368 93.4935 234.853 93.0969C235.338 92.6945 235.699 92.1559 235.936 91.4812C236.179 90.8065 236.3 90.0548 236.3 89.2262C236.3 88.3917 236.179 87.6371 235.936 86.9624C235.699 86.2817 235.338 85.7402 234.853 85.3377C234.368 84.9353 233.764 84.734 233.042 84.734C232.302 84.734 231.687 84.9353 231.195 85.3377C230.71 85.7402 230.346 86.2817 230.103 86.9624C229.867 87.6371 229.748 88.3917 229.748 89.2262C229.748 90.0548 229.867 90.8065 230.103 91.4812C230.346 92.1559 230.71 92.6945 231.195 93.0969C231.687 93.4935 232.302 93.6918 233.042 93.6918ZM248.216 101.398C247.062 101.398 246.071 101.241 245.242 100.927C244.414 100.619 243.748 100.205 243.245 99.6843C242.742 99.1635 242.393 98.5864 242.197 97.9531L245.091 97.2518C245.222 97.5181 245.411 97.7815 245.66 98.0419C245.908 98.3082 246.243 98.5272 246.663 98.6989C247.089 98.8764 247.625 98.9652 248.27 98.9652C249.181 98.9652 249.936 98.7433 250.534 98.2994C251.131 97.8614 251.43 97.1393 251.43 96.1332V93.5497H251.27C251.105 93.8812 250.862 94.2215 250.542 94.5707C250.229 94.9199 249.811 95.2128 249.291 95.4496C248.776 95.6863 248.128 95.8047 247.346 95.8047C246.299 95.8047 245.349 95.5591 244.497 95.0678C243.65 94.5707 242.976 93.8308 242.472 92.8484C241.975 91.86 241.727 90.623 241.727 89.1374C241.727 87.64 241.975 86.3764 242.472 85.3466C242.976 84.3108 243.653 83.5266 244.506 82.994C245.358 82.4554 246.308 82.1861 247.355 82.1861C248.154 82.1861 248.811 82.3222 249.326 82.5945C249.847 82.8608 250.261 83.1834 250.569 83.5621C250.877 83.935 251.111 84.2872 251.27 84.6186H251.448V82.3636H254.617V96.2219C254.617 97.3879 254.339 98.3526 253.783 99.1161C253.227 99.8796 252.466 100.451 251.501 100.83C250.537 101.208 249.442 101.398 248.216 101.398ZM248.243 93.2834C248.924 93.2834 249.504 93.1177 249.983 92.7862C250.463 92.4548 250.827 91.9783 251.075 91.3569C251.324 90.7354 251.448 89.9897 251.448 89.1197C251.448 88.2615 251.324 87.5098 251.075 86.8647C250.832 86.2196 250.471 85.7195 249.992 85.3643C249.519 85.0033 248.936 84.8228 248.243 84.8228C247.527 84.8228 246.929 85.0092 246.45 85.3821C245.97 85.755 245.609 86.2669 245.367 86.918C245.124 87.5631 245.003 88.297 245.003 89.1197C245.003 89.9542 245.124 90.6851 245.367 91.3125C245.615 91.9339 245.979 92.4193 246.459 92.7685C246.944 93.1117 247.539 93.2834 248.243 93.2834ZM268.689 85.968L265.759 86.2876C265.676 85.9917 265.531 85.7135 265.324 85.4531C265.123 85.1927 264.851 84.9826 264.507 84.8228C264.164 84.663 263.744 84.5831 263.247 84.5831C262.578 84.5831 262.016 84.7281 261.56 85.0181C261.11 85.3081 260.888 85.6839 260.894 86.1456C260.888 86.5421 261.033 86.8647 261.329 87.1133C261.631 87.3619 262.128 87.5661 262.82 87.7259L265.146 88.223C266.437 88.5012 267.396 88.9421 268.023 89.5458C268.656 90.1495 268.976 90.9396 268.982 91.9162C268.976 92.7744 268.724 93.532 268.227 94.1889C267.736 94.84 267.052 95.349 266.176 95.7159C265.3 96.0829 264.294 96.2663 263.158 96.2663C261.489 96.2663 260.145 95.9171 259.127 95.2188C258.109 94.5144 257.503 93.5349 257.307 92.2802L260.441 91.9783C260.583 92.5939 260.885 93.0585 261.347 93.3722C261.808 93.6858 262.409 93.8427 263.149 93.8427C263.912 93.8427 264.525 93.6858 264.987 93.3722C265.454 93.0585 265.688 92.6708 265.688 92.2092C265.688 91.8185 265.537 91.496 265.235 91.2415C264.939 90.987 264.478 90.7917 263.85 90.6555L261.524 90.1673C260.216 89.895 259.249 89.4363 258.621 88.7912C257.994 88.1402 257.683 87.3175 257.689 86.3232C257.683 85.4827 257.911 84.7547 258.373 84.1392C258.84 83.5178 259.488 83.0384 260.317 82.701C261.151 82.3577 262.113 82.1861 263.202 82.1861C264.8 82.1861 266.058 82.5264 266.975 83.207C267.899 83.8877 268.47 84.808 268.689 85.968Z" fill="#393939"/>
<g filter="url(#filter1_d_625_11711)">
<rect x="53" y="228" width="733" height="52" fill="white"/>
<rect x="53.5" y="228.5" width="732" height="51" stroke="#E7E7E7"/>
</g>
<path d="M79 254L74 259V249L79 254Z" fill="#939393"/>
<g clip-path="url(#clip1_625_11711)">
<path d="M109.6 261V251.491L110.4 250.691V262C110.4 262.106 110.358 262.207 110.283 262.282C110.208 262.357 110.106 262.4 110 262.4H94C93.8939 262.4 93.7922 262.357 93.7172 262.282C93.6421 262.207 93.6 262.106 93.6 262V246C93.6 245.894 93.6421 245.792 93.7172 245.717C93.7922 245.642 93.8939 245.6 94 245.6H105.308L104.508 246.4H95H94.4V247V261V261.6H95H109H109.6V261ZM101.894 253.542L110.485 244.948L111.052 245.515L102.459 254.108L101.895 254.109L101.894 253.542Z" stroke="#F86A2B" stroke-width="1.2"/>
</g>
<path d="M135.441 258.739C138.292 258.739 140.042 256.729 140.042 253.571V253.558C140.042 250.393 138.278 248.396 135.441 248.396C132.611 248.396 130.834 250.386 130.834 253.558V253.571C130.834 256.736 132.57 258.739 135.441 258.739ZM135.441 257.386C133.541 257.386 132.399 255.882 132.399 253.571V253.558C132.399 251.227 133.575 249.75 135.441 249.75C137.308 249.75 138.477 251.227 138.477 253.558V253.571C138.477 255.882 137.314 257.386 135.441 257.386ZM142.12 258.5H143.651V248.636H142.12V258.5ZM146.126 258.5H149.688C152.627 258.5 154.329 256.682 154.329 253.551V253.537C154.329 250.44 152.613 248.636 149.688 248.636H146.126V258.5ZM147.657 257.181V249.955H149.517C151.561 249.955 152.771 251.288 152.771 253.558V253.571C152.771 255.861 151.581 257.181 149.517 257.181H147.657ZM160.454 258.739C162.655 258.739 164.262 257.481 164.549 255.588V255.547H163.031L163.018 255.574C162.737 256.688 161.76 257.386 160.454 257.386C158.677 257.386 157.569 255.916 157.569 253.578V253.564C157.569 251.22 158.677 249.75 160.447 249.75C161.746 249.75 162.737 250.536 163.024 251.746V251.767H164.542L164.549 251.732C164.289 249.771 162.621 248.396 160.447 248.396C157.706 248.396 156.004 250.379 156.004 253.564V253.578C156.004 256.757 157.713 258.739 160.454 258.739ZM172.26 258.623C173.244 258.623 174.023 258.199 174.461 257.447H174.577V258.5H176.047V253.421C176.047 251.862 174.994 250.933 173.128 250.933C171.439 250.933 170.271 251.746 170.093 252.963L170.086 253.011H171.515L171.521 252.983C171.699 252.457 172.239 252.156 173.06 252.156C174.064 252.156 174.577 252.607 174.577 253.421V254.077L172.567 254.193C170.797 254.303 169.799 255.075 169.799 256.401V256.415C169.799 257.762 170.845 258.623 172.26 258.623ZM171.275 256.354V256.34C171.275 255.67 171.74 255.301 172.766 255.239L174.577 255.123V255.759C174.577 256.716 173.764 257.44 172.656 257.44C171.856 257.44 171.275 257.037 171.275 256.354ZM180.613 258.644C181.693 258.644 182.445 258.179 182.801 257.379H182.917V258.5H184.394V251.076H182.917V255.431C182.917 256.627 182.281 257.372 181.092 257.372C180.005 257.372 179.554 256.764 179.554 255.533V251.076H178.07V255.882C178.07 257.639 178.938 258.644 180.613 258.644ZM189.336 258.548C189.623 258.548 189.896 258.514 190.136 258.473V257.29C189.931 257.311 189.801 257.317 189.575 257.317C188.844 257.317 188.543 256.989 188.543 256.189V252.245H190.136V251.076H188.543V249.203H187.032V251.076H185.87V252.245H187.032V256.545C187.032 257.974 187.702 258.548 189.336 258.548ZM191.934 258.5H193.417V254.146C193.417 252.949 194.094 252.204 195.181 252.204C196.268 252.204 196.78 252.812 196.78 254.043V258.5H198.257V253.694C198.257 251.924 197.341 250.933 195.68 250.933C194.6 250.933 193.889 251.411 193.526 252.204H193.417V248.164H191.934V258.5ZM203.445 258.644C205.346 258.644 206.371 257.55 206.617 256.572L206.631 256.511L205.202 256.518L205.175 256.572C204.997 256.955 204.43 257.427 203.479 257.427C202.256 257.427 201.477 256.6 201.449 255.178H206.713V254.658C206.713 252.43 205.441 250.933 203.37 250.933C201.299 250.933 199.959 252.484 199.959 254.802V254.809C199.959 257.16 201.271 258.644 203.445 258.644ZM203.377 252.149C204.382 252.149 205.127 252.792 205.243 254.118H201.47C201.6 252.84 202.365 252.149 203.377 252.149ZM208.477 258.5H209.96V254.146C209.96 252.949 210.637 252.204 211.724 252.204C212.811 252.204 213.323 252.812 213.323 254.043V258.5H214.8V253.694C214.8 251.924 213.884 250.933 212.223 250.933C211.143 250.933 210.432 251.411 210.069 252.204H209.96V251.076H208.477V258.5ZM219.674 258.548C219.961 258.548 220.234 258.514 220.474 258.473V257.29C220.269 257.311 220.139 257.317 219.913 257.317C219.182 257.317 218.881 256.989 218.881 256.189V252.245H220.474V251.076H218.881V249.203H217.37V251.076H216.208V252.245H217.37V256.545C217.37 257.974 218.04 258.548 219.674 258.548ZM222.976 249.75C223.481 249.75 223.905 249.333 223.905 248.827C223.905 248.314 223.481 247.897 222.976 247.897C222.463 247.897 222.046 248.314 222.046 248.827C222.046 249.333 222.463 249.75 222.976 249.75ZM222.23 258.5H223.707V251.076H222.23V258.5ZM228.991 258.644C230.83 258.644 231.89 257.652 232.156 256.21L232.17 256.148H230.748L230.734 256.183C230.495 256.982 229.921 257.406 228.991 257.406C227.768 257.406 227.009 256.408 227.009 254.768V254.754C227.009 253.154 227.754 252.17 228.991 252.17C229.976 252.17 230.577 252.717 230.741 253.448L230.748 253.469L232.17 253.462V253.428C231.965 251.985 230.851 250.933 228.984 250.933C226.817 250.933 225.498 252.402 225.498 254.754V254.768C225.498 257.167 226.824 258.644 228.991 258.644ZM235.889 258.623C236.873 258.623 237.652 258.199 238.09 257.447H238.206V258.5H239.676V253.421C239.676 251.862 238.623 250.933 236.757 250.933C235.068 250.933 233.899 251.746 233.722 252.963L233.715 253.011H235.144L235.15 252.983C235.328 252.457 235.868 252.156 236.688 252.156C237.693 252.156 238.206 252.607 238.206 253.421V254.077L236.196 254.193C234.426 254.303 233.428 255.075 233.428 256.401V256.415C233.428 257.762 234.474 258.623 235.889 258.623ZM234.904 256.354V256.34C234.904 255.67 235.369 255.301 236.395 255.239L238.206 255.123V255.759C238.206 256.716 237.393 257.44 236.285 257.44C235.485 257.44 234.904 257.037 234.904 256.354ZM244.57 258.548C244.857 258.548 245.131 258.514 245.37 258.473V257.29C245.165 257.311 245.035 257.317 244.81 257.317C244.078 257.317 243.777 256.989 243.777 256.189V252.245H245.37V251.076H243.777V249.203H242.267V251.076H241.104V252.245H242.267V256.545C242.267 257.974 242.937 258.548 244.57 258.548ZM247.872 249.75C248.378 249.75 248.802 249.333 248.802 248.827C248.802 248.314 248.378 247.897 247.872 247.897C247.359 247.897 246.942 248.314 246.942 248.827C246.942 249.333 247.359 249.75 247.872 249.75ZM247.127 258.5H248.604V251.076H247.127V258.5ZM253.908 258.644C256.082 258.644 257.415 257.188 257.415 254.795V254.781C257.415 252.389 256.075 250.933 253.908 250.933C251.734 250.933 250.395 252.396 250.395 254.781V254.795C250.395 257.188 251.728 258.644 253.908 258.644ZM253.908 257.406C252.63 257.406 251.912 256.442 251.912 254.795V254.781C251.912 253.134 252.63 252.17 253.908 252.17C255.18 252.17 255.904 253.134 255.904 254.781V254.795C255.904 256.436 255.18 257.406 253.908 257.406ZM259.186 258.5H260.669V254.146C260.669 252.949 261.346 252.204 262.433 252.204C263.52 252.204 264.032 252.812 264.032 254.043V258.5H265.509V253.694C265.509 251.924 264.593 250.933 262.932 250.933C261.852 250.933 261.141 251.411 260.778 252.204H260.669V251.076H259.186V258.5ZM274.532 258.644C276.371 258.644 277.431 257.652 277.697 256.21L277.711 256.148H276.289L276.275 256.183C276.036 256.982 275.462 257.406 274.532 257.406C273.309 257.406 272.55 256.408 272.55 254.768V254.754C272.55 253.154 273.295 252.17 274.532 252.17C275.517 252.17 276.118 252.717 276.282 253.448L276.289 253.469L277.711 253.462V253.428C277.506 251.985 276.392 250.933 274.525 250.933C272.358 250.933 271.039 252.402 271.039 254.754V254.768C271.039 257.167 272.365 258.644 274.532 258.644ZM282.537 258.644C284.711 258.644 286.044 257.188 286.044 254.795V254.781C286.044 252.389 284.704 250.933 282.537 250.933C280.363 250.933 279.023 252.396 279.023 254.781V254.795C279.023 257.188 280.356 258.644 282.537 258.644ZM282.537 257.406C281.259 257.406 280.541 256.442 280.541 254.795V254.781C280.541 253.134 281.259 252.17 282.537 252.17C283.809 252.17 284.533 253.134 284.533 254.781V254.795C284.533 256.436 283.809 257.406 282.537 257.406ZM287.814 258.5H289.298V254.146C289.298 252.949 289.975 252.204 291.062 252.204C292.148 252.204 292.661 252.812 292.661 254.043V258.5H294.138V253.694C294.138 251.924 293.222 250.933 291.561 250.933C290.48 250.933 289.77 251.411 289.407 252.204H289.298V251.076H287.814V258.5ZM296.735 258.5H298.212V252.245H299.846V251.076H298.198V250.365C298.198 249.613 298.52 249.217 299.34 249.217C299.572 249.217 299.771 249.23 299.907 249.251V248.164C299.654 248.123 299.367 248.096 299.032 248.096C297.487 248.096 296.735 248.82 296.735 250.297V251.076H295.512V252.245H296.735V258.5ZM302.286 249.75C302.792 249.75 303.216 249.333 303.216 248.827C303.216 248.314 302.792 247.897 302.286 247.897C301.773 247.897 301.356 248.314 301.356 248.827C301.356 249.333 301.773 249.75 302.286 249.75ZM301.541 258.5H303.018V251.076H301.541V258.5ZM308.315 261.118C310.421 261.118 311.754 260.038 311.754 258.35V251.076H310.277V252.293H310.188C309.758 251.459 308.951 250.946 307.912 250.946C305.984 250.946 304.802 252.443 304.802 254.562V254.576C304.802 256.668 305.978 258.138 307.885 258.138C308.903 258.138 309.724 257.687 310.175 256.88H310.284V258.343C310.284 259.354 309.56 259.929 308.336 259.929C307.331 259.929 306.729 259.566 306.606 259.054L306.6 259.04H305.103L305.089 259.054C305.267 260.291 306.429 261.118 308.315 261.118ZM308.295 256.914C307.03 256.914 306.319 255.95 306.319 254.569V254.556C306.319 253.175 307.03 252.204 308.295 252.204C309.546 252.204 310.312 253.175 310.312 254.556V254.569C310.312 255.957 309.553 256.914 308.295 256.914ZM316.361 258.644C317.441 258.644 318.193 258.179 318.549 257.379H318.665V258.5H320.142V251.076H318.665V255.431C318.665 256.627 318.029 257.372 316.84 257.372C315.753 257.372 315.302 256.764 315.302 255.533V251.076H313.818V255.882C313.818 257.639 314.687 258.644 316.361 258.644ZM322.281 258.5H323.765V254.063C323.765 252.99 324.537 252.293 325.672 252.293C325.952 252.293 326.205 252.327 326.472 252.382V251.015C326.321 250.98 326.062 250.946 325.822 250.946C324.831 250.946 324.141 251.411 323.874 252.197H323.765V251.076H322.281V258.5ZM330.812 258.644C332.713 258.644 333.738 257.55 333.984 256.572L333.998 256.511L332.569 256.518L332.542 256.572C332.364 256.955 331.797 257.427 330.847 257.427C329.623 257.427 328.844 256.6 328.816 255.178H334.08V254.658C334.08 252.43 332.809 250.933 330.737 250.933C328.666 250.933 327.326 252.484 327.326 254.802V254.809C327.326 257.16 328.639 258.644 330.812 258.644ZM330.744 252.149C331.749 252.149 332.494 252.792 332.61 254.118H328.837C328.967 252.84 329.732 252.149 330.744 252.149ZM338.551 258.623C339.59 258.623 340.403 258.145 340.834 257.331H340.95V258.5H342.427V248.164H340.95V252.252H340.834C340.438 251.452 339.569 250.946 338.551 250.946C336.664 250.946 335.475 252.43 335.475 254.781V254.795C335.475 257.126 336.685 258.623 338.551 258.623ZM338.975 257.358C337.73 257.358 336.985 256.388 336.985 254.795V254.781C336.985 253.188 337.73 252.218 338.975 252.218C340.205 252.218 340.971 253.195 340.971 254.781V254.795C340.971 256.381 340.212 257.358 338.975 257.358Z" fill="#393939"/>
<path d="M361.723 250.209C362.174 250.209 362.543 249.84 362.543 249.389C362.543 248.938 362.174 248.568 361.723 248.568C361.271 248.568 360.902 248.938 360.902 249.389C360.902 249.84 361.271 250.209 361.723 250.209ZM360.055 261.529C361.6 261.529 362.317 260.88 362.317 259.362V251.631H361.128V259.383C361.128 260.196 360.827 260.477 360.027 260.477H359.85V261.529H360.055ZM366.59 259.13C367.581 259.13 368.354 258.699 368.818 257.913H368.928V259H370.117V253.955C370.117 252.424 369.112 251.501 367.314 251.501C365.742 251.501 364.621 252.28 364.43 253.436L364.423 253.477H365.612L365.619 253.456C365.811 252.882 366.392 252.554 367.273 252.554C368.374 252.554 368.928 253.046 368.928 253.955V254.625L366.815 254.755C365.1 254.857 364.129 255.616 364.129 256.929V256.942C364.129 258.282 365.188 259.13 366.59 259.13ZM365.346 256.915V256.901C365.346 256.17 365.838 255.773 366.959 255.705L368.928 255.582V256.252C368.928 257.305 368.046 258.098 366.836 258.098C365.981 258.098 365.346 257.66 365.346 256.915ZM372.291 259H373.48V254.639C373.48 253.347 374.226 252.554 375.401 252.554C376.577 252.554 377.124 253.189 377.124 254.516V259H378.313V254.229C378.313 252.479 377.391 251.501 375.736 251.501C374.649 251.501 373.959 251.959 373.59 252.738H373.48V251.631H372.291V259ZM383.475 259.13C385.211 259.13 386.264 258.146 386.517 257.147L386.53 257.093H385.341L385.313 257.154C385.115 257.599 384.5 258.07 383.502 258.07C382.189 258.07 381.349 257.182 381.314 255.657H386.619V255.192C386.619 252.991 385.402 251.501 383.399 251.501C381.396 251.501 380.098 253.06 380.098 255.336V255.343C380.098 257.653 381.369 259.13 383.475 259.13ZM383.393 252.561C384.479 252.561 385.286 253.251 385.409 254.707H381.335C381.465 253.306 382.299 252.561 383.393 252.561ZM389.436 259.068C389.928 259.068 390.324 258.665 390.324 258.18C390.324 257.688 389.928 257.291 389.436 257.291C388.95 257.291 388.547 257.688 388.547 258.18C388.547 258.665 388.95 259.068 389.436 259.068ZM395.068 259.13C396.094 259.13 396.914 258.645 397.365 257.824H397.475V259H398.664V248.705H397.475V252.793H397.365C396.962 252.007 396.08 251.501 395.068 251.501C393.195 251.501 391.979 252.998 391.979 255.309V255.322C391.979 257.619 393.202 259.13 395.068 259.13ZM395.342 258.077C393.995 258.077 393.195 257.038 393.195 255.322V255.309C393.195 253.593 393.995 252.554 395.342 252.554C396.682 252.554 397.502 253.606 397.502 255.309V255.322C397.502 257.024 396.682 258.077 395.342 258.077ZM403.976 259.13C406.074 259.13 407.373 257.681 407.373 255.322V255.309C407.373 252.943 406.074 251.501 403.976 251.501C401.877 251.501 400.578 252.943 400.578 255.309V255.322C400.578 257.681 401.877 259.13 403.976 259.13ZM403.976 258.077C402.581 258.077 401.795 257.059 401.795 255.322V255.309C401.795 253.565 402.581 252.554 403.976 252.554C405.37 252.554 406.156 253.565 406.156 255.309V255.322C406.156 257.059 405.37 258.077 403.976 258.077ZM412.227 259.13C413.963 259.13 415.016 258.146 415.269 257.147L415.282 257.093H414.093L414.065 257.154C413.867 257.599 413.252 258.07 412.254 258.07C410.941 258.07 410.101 257.182 410.066 255.657H415.371V255.192C415.371 252.991 414.154 251.501 412.151 251.501C410.148 251.501 408.85 253.06 408.85 255.336V255.343C408.85 257.653 410.121 259.13 412.227 259.13ZM412.145 252.561C413.231 252.561 414.038 253.251 414.161 254.707H410.087C410.217 253.306 411.051 252.561 412.145 252.561ZM422.85 260.6C423.711 260.6 424.538 260.477 425.153 260.265V259.403C424.723 259.602 423.8 259.731 422.863 259.731C419.938 259.731 418.051 257.852 418.051 254.939V254.926C418.051 252.089 419.972 250.052 422.645 250.052C425.379 250.052 427.252 251.74 427.252 254.201V254.215C427.252 255.89 426.698 256.977 425.837 256.977C425.345 256.977 425.064 256.696 425.064 256.218V252.205H424.032V253.039H423.923C423.656 252.444 423.041 252.075 422.323 252.075C420.922 252.075 419.944 253.237 419.944 254.892V254.905C419.944 256.635 420.901 257.804 422.323 257.804C423.123 257.804 423.738 257.414 424.032 256.717H424.142L424.148 256.758C424.258 257.421 424.859 257.865 425.646 257.865C427.218 257.865 428.216 256.45 428.216 254.229V254.215C428.216 251.255 425.967 249.19 422.733 249.19C419.384 249.19 417.087 251.508 417.087 254.885V254.898C417.087 258.385 419.322 260.6 422.85 260.6ZM422.48 256.84C421.585 256.84 421.038 256.115 421.038 254.933V254.919C421.038 253.729 421.578 253.019 422.494 253.019C423.424 253.019 424.019 253.757 424.019 254.919V254.933C424.019 256.095 423.417 256.84 422.48 256.84ZM433.076 259.13C434.812 259.13 435.865 258.146 436.118 257.147L436.132 257.093H434.942L434.915 257.154C434.717 257.599 434.102 258.07 433.104 258.07C431.791 258.07 430.95 257.182 430.916 255.657H436.221V255.192C436.221 252.991 435.004 251.501 433.001 251.501C430.998 251.501 429.699 253.06 429.699 255.336V255.343C429.699 257.653 430.971 259.13 433.076 259.13ZM432.994 252.561C434.081 252.561 434.888 253.251 435.011 254.707H430.937C431.066 253.306 431.9 252.561 432.994 252.561ZM437.205 259H438.538L440.288 256.218H440.397L442.141 259H443.535L440.999 255.268L443.501 251.631H442.168L440.438 254.372H440.329L438.579 251.631H437.178L439.728 255.315L437.205 259ZM447.158 259.13C448.149 259.13 448.922 258.699 449.387 257.913H449.496V259H450.686V253.955C450.686 252.424 449.681 251.501 447.883 251.501C446.311 251.501 445.189 252.28 444.998 253.436L444.991 253.477H446.181L446.188 253.456C446.379 252.882 446.96 252.554 447.842 252.554C448.942 252.554 449.496 253.046 449.496 253.955V254.625L447.384 254.755C445.668 254.857 444.697 255.616 444.697 256.929V256.942C444.697 258.282 445.757 259.13 447.158 259.13ZM445.914 256.915V256.901C445.914 256.17 446.406 255.773 447.527 255.705L449.496 255.582V256.252C449.496 257.305 448.614 258.098 447.404 258.098C446.55 258.098 445.914 257.66 445.914 256.915ZM452.859 259H454.049V254.434C454.049 253.395 454.78 252.554 455.744 252.554C456.674 252.554 457.275 253.121 457.275 253.996V259H458.465V254.263C458.465 253.326 459.142 252.554 460.167 252.554C461.206 252.554 461.705 253.094 461.705 254.181V259H462.895V253.907C462.895 252.362 462.054 251.501 460.55 251.501C459.531 251.501 458.69 252.014 458.294 252.793H458.185C457.843 252.027 457.146 251.501 456.147 251.501C455.184 251.501 454.486 251.959 454.158 252.752H454.049V251.631H452.859V259ZM465.041 261.461H466.23V257.838H466.34C466.743 258.624 467.625 259.13 468.637 259.13C470.51 259.13 471.727 257.633 471.727 255.322V255.309C471.727 253.012 470.503 251.501 468.637 251.501C467.611 251.501 466.791 251.986 466.34 252.807H466.23V251.631H465.041V261.461ZM468.363 258.077C467.023 258.077 466.203 257.024 466.203 255.322V255.309C466.203 253.606 467.023 252.554 468.363 252.554C469.71 252.554 470.51 253.593 470.51 255.309V255.322C470.51 257.038 469.71 258.077 468.363 258.077ZM473.654 259H474.844V248.705H473.654V259ZM480.135 259.13C481.871 259.13 482.924 258.146 483.177 257.147L483.19 257.093H482.001L481.974 257.154C481.775 257.599 481.16 258.07 480.162 258.07C478.85 258.07 478.009 257.182 477.975 255.657H483.279V255.192C483.279 252.991 482.062 251.501 480.06 251.501C478.057 251.501 476.758 253.06 476.758 255.336V255.343C476.758 257.653 478.029 259.13 480.135 259.13ZM480.053 252.561C481.14 252.561 481.946 253.251 482.069 254.707H477.995C478.125 253.306 478.959 252.561 480.053 252.561ZM486.096 259.068C486.588 259.068 486.984 258.665 486.984 258.18C486.984 257.688 486.588 257.291 486.096 257.291C485.61 257.291 485.207 257.688 485.207 258.18C485.207 258.665 485.61 259.068 486.096 259.068ZM492.022 259.13C493.793 259.13 494.784 258.18 495.085 256.847L495.099 256.771L493.923 256.778L493.909 256.819C493.636 257.64 493.007 258.077 492.016 258.077C490.703 258.077 489.855 256.99 489.855 255.295V255.281C489.855 253.62 490.689 252.554 492.016 252.554C493.075 252.554 493.731 253.142 493.916 253.866L493.923 253.887H495.105L495.099 253.846C494.88 252.533 493.807 251.501 492.016 251.501C489.951 251.501 488.639 252.991 488.639 255.281V255.295C488.639 257.633 489.958 259.13 492.022 259.13ZM499.87 259.13C501.969 259.13 503.268 257.681 503.268 255.322V255.309C503.268 252.943 501.969 251.501 499.87 251.501C497.771 251.501 496.473 252.943 496.473 255.309V255.322C496.473 257.681 497.771 259.13 499.87 259.13ZM499.87 258.077C498.476 258.077 497.689 257.059 497.689 255.322V255.309C497.689 253.565 498.476 252.554 499.87 252.554C501.265 252.554 502.051 253.565 502.051 255.309V255.322C502.051 257.059 501.265 258.077 499.87 258.077ZM505.113 259H506.303V254.434C506.303 253.395 507.034 252.554 507.998 252.554C508.928 252.554 509.529 253.121 509.529 253.996V259H510.719V254.263C510.719 253.326 511.396 252.554 512.421 252.554C513.46 252.554 513.959 253.094 513.959 254.181V259H515.148V253.907C515.148 252.362 514.308 251.501 512.804 251.501C511.785 251.501 510.944 252.014 510.548 252.793H510.438C510.097 252.027 509.399 251.501 508.401 251.501C507.438 251.501 506.74 251.959 506.412 252.752H506.303V251.631H505.113V259Z" fill="#575757"/>
<path d="M537.491 259.232C539.692 259.232 541.135 258.084 541.135 256.238V256.231C541.135 254.81 540.321 253.982 538.264 253.524L537.17 253.278C535.83 252.984 535.29 252.451 535.29 251.665V251.658C535.29 250.626 536.24 250.045 537.471 250.038C538.756 250.031 539.576 250.674 539.713 251.542L539.727 251.631H540.957L540.95 251.535C540.848 250.065 539.474 248.903 537.505 248.903C535.468 248.903 534.039 250.059 534.032 251.692V251.699C534.032 253.128 534.887 254.037 536.862 254.475L537.956 254.714C539.31 255.015 539.877 255.575 539.877 256.396V256.402C539.877 257.407 538.899 258.098 537.56 258.098C536.138 258.098 535.112 257.476 535.023 256.491L535.017 256.416H533.786L533.793 256.491C533.937 258.098 535.331 259.232 537.491 259.232ZM546.043 259.13C547.779 259.13 548.832 258.146 549.085 257.147L549.099 257.093H547.909L547.882 257.154C547.684 257.599 547.068 258.07 546.07 258.07C544.758 258.07 543.917 257.182 543.883 255.657H549.188V255.192C549.188 252.991 547.971 251.501 545.968 251.501C543.965 251.501 542.666 253.06 542.666 255.336V255.343C542.666 257.653 543.938 259.13 546.043 259.13ZM545.961 252.561C547.048 252.561 547.854 253.251 547.978 254.707H543.903C544.033 253.306 544.867 252.561 545.961 252.561ZM551.033 261.461H552.223V257.838H552.332C552.735 258.624 553.617 259.13 554.629 259.13C556.502 259.13 557.719 257.633 557.719 255.322V255.309C557.719 253.012 556.495 251.501 554.629 251.501C553.604 251.501 552.783 251.986 552.332 252.807H552.223V251.631H551.033V261.461ZM554.355 258.077C553.016 258.077 552.195 257.024 552.195 255.322V255.309C552.195 253.606 553.016 252.554 554.355 252.554C555.702 252.554 556.502 253.593 556.502 255.309V255.322C556.502 257.038 555.702 258.077 554.355 258.077ZM563.509 259H569.894V257.893H565.218V257.783L567.46 255.466C569.244 253.627 569.729 252.807 569.729 251.679V251.665C569.729 250.072 568.41 248.903 566.688 248.903C564.801 248.903 563.447 250.161 563.44 251.911L563.454 251.918L564.63 251.925L564.637 251.911C564.637 250.749 565.423 249.977 566.605 249.977C567.768 249.977 568.472 250.756 568.472 251.795V251.809C568.472 252.67 568.103 253.183 566.845 254.543L563.509 258.152V259ZM578.309 259H579.539V249.136H578.315L575.69 251.022V252.321L578.199 250.503H578.309V259ZM582.39 259H588.774V257.893H584.099V257.783L586.341 255.466C588.125 253.627 588.61 252.807 588.61 251.679V251.665C588.61 250.072 587.291 248.903 585.568 248.903C583.682 248.903 582.328 250.161 582.321 251.911L582.335 251.918L583.511 251.925L583.518 251.911C583.518 250.749 584.304 249.977 585.486 249.977C586.648 249.977 587.353 250.756 587.353 251.795V251.809C587.353 252.67 586.983 253.183 585.726 254.543L582.39 258.152V259ZM591.816 252.308C592.309 252.308 592.705 251.904 592.705 251.419C592.705 250.927 592.309 250.53 591.816 250.53C591.331 250.53 590.928 250.927 590.928 251.419C590.928 251.904 591.331 252.308 591.816 252.308ZM591.816 257.599C592.309 257.599 592.705 257.195 592.705 256.71C592.705 256.218 592.309 255.821 591.816 255.821C591.331 255.821 590.928 256.218 590.928 256.71C590.928 257.195 591.331 257.599 591.816 257.599ZM598.468 259.232C600.471 259.232 601.899 257.845 601.899 255.855V255.842C601.899 253.935 600.566 252.547 598.714 252.547C597.818 252.547 597.046 252.909 596.608 253.572H596.499L596.834 250.236H601.353V249.136H595.863L595.344 254.803H596.41C596.533 254.57 596.69 254.379 596.861 254.215C597.285 253.812 597.846 253.613 598.502 253.613C599.78 253.613 600.696 254.55 600.696 255.862V255.876C600.696 257.209 599.794 258.146 598.481 258.146C597.326 258.146 596.472 257.394 596.355 256.45L596.349 256.396H595.166L595.173 256.471C595.316 258.05 596.629 259.232 598.468 259.232ZM607.238 259.164C609.214 259.164 610.663 257.947 610.663 256.3V256.286C610.663 254.885 609.686 253.989 608.25 253.866V253.839C609.48 253.579 610.342 252.745 610.342 251.528V251.515C610.342 250.018 609.104 248.972 607.225 248.972C605.379 248.972 604.107 250.045 603.95 251.651L603.943 251.72H605.126L605.133 251.651C605.235 250.653 606.062 250.038 607.225 250.038C608.428 250.038 609.104 250.633 609.104 251.665V251.679C609.104 252.663 608.284 253.388 607.108 253.388H605.926V254.427H607.163C608.544 254.427 609.412 255.104 609.412 256.313V256.327C609.412 257.373 608.53 258.098 607.238 258.098C605.926 258.098 605.03 257.428 604.935 256.457L604.928 256.389H603.745L603.752 256.471C603.882 258.029 605.201 259.164 607.238 259.164ZM613.637 252.308C614.129 252.308 614.525 251.904 614.525 251.419C614.525 250.927 614.129 250.53 613.637 250.53C613.151 250.53 612.748 250.927 612.748 251.419C612.748 251.904 613.151 252.308 613.637 252.308ZM613.637 257.599C614.129 257.599 614.525 257.195 614.525 256.71C614.525 256.218 614.129 255.821 613.637 255.821C613.151 255.821 612.748 256.218 612.748 256.71C612.748 257.195 613.151 257.599 613.637 257.599ZM620.117 259.232C622.298 259.232 623.61 257.243 623.61 254.071V254.058C623.61 250.886 622.298 248.903 620.117 248.903C617.937 248.903 616.638 250.886 616.638 254.058V254.071C616.638 257.243 617.937 259.232 620.117 259.232ZM620.117 258.159C618.702 258.159 617.875 256.587 617.875 254.071V254.058C617.875 251.542 618.702 249.983 620.117 249.983C621.532 249.983 622.373 251.542 622.373 254.058V254.071C622.373 256.587 621.532 258.159 620.117 258.159ZM628.936 259.232C631.116 259.232 632.429 257.243 632.429 254.071V254.058C632.429 250.886 631.116 248.903 628.936 248.903C626.755 248.903 625.456 250.886 625.456 254.058V254.071C625.456 257.243 626.755 259.232 628.936 259.232ZM628.936 258.159C627.521 258.159 626.693 256.587 626.693 254.071V254.058C626.693 251.542 627.521 249.983 628.936 249.983C630.351 249.983 631.191 251.542 631.191 254.058V254.071C631.191 256.587 630.351 258.159 628.936 258.159ZM642.635 259.232C645.157 259.232 646.825 257.619 646.825 255.186V253.982H642.826V255.062H645.595V255.302C645.595 256.97 644.405 258.098 642.642 258.098C640.659 258.098 639.422 256.553 639.422 254.071V254.058C639.422 251.61 640.68 250.038 642.635 250.038C644.104 250.038 645.096 250.735 645.499 252.007L645.52 252.075H646.764L646.75 252.007C646.36 250.134 644.822 248.903 642.635 248.903C639.935 248.903 638.164 250.947 638.164 254.058V254.071C638.164 257.223 639.907 259.232 642.635 259.232ZM649.006 259H650.154V251.467H650.229L653.347 259H654.386L657.503 251.467H657.578V259H658.727V249.136H657.298L653.921 257.366H653.812L650.435 249.136H649.006V259ZM663.806 259H665.036V250.243H668.215V249.136H660.627V250.243H663.806V259ZM673.588 255.582H676.65V258.713H677.758V255.582H680.82V254.475H677.758V251.344H676.65V254.475H673.588V255.582ZM689.892 259.232C691.895 259.232 693.323 257.845 693.323 255.855V255.842C693.323 253.935 691.99 252.547 690.138 252.547C689.242 252.547 688.47 252.909 688.032 253.572H687.923L688.258 250.236H692.776V249.136H687.287L686.768 254.803H687.834C687.957 254.57 688.114 254.379 688.285 254.215C688.709 253.812 689.27 253.613 689.926 253.613C691.204 253.613 692.12 254.55 692.12 255.862V255.876C692.12 257.209 691.218 258.146 689.905 258.146C688.75 258.146 687.896 257.394 687.779 256.45L687.772 256.396H686.59L686.597 256.471C686.74 258.05 688.053 259.232 689.892 259.232ZM696.283 252.308C696.775 252.308 697.172 251.904 697.172 251.419C697.172 250.927 696.775 250.53 696.283 250.53C695.798 250.53 695.395 250.927 695.395 251.419C695.395 251.904 695.798 252.308 696.283 252.308ZM696.283 257.599C696.775 257.599 697.172 257.195 697.172 256.71C697.172 256.218 696.775 255.821 696.283 255.821C695.798 255.821 695.395 256.218 695.395 256.71C695.395 257.195 695.798 257.599 696.283 257.599ZM702.75 259.164C704.726 259.164 706.175 257.947 706.175 256.3V256.286C706.175 254.885 705.197 253.989 703.762 253.866V253.839C704.992 253.579 705.854 252.745 705.854 251.528V251.515C705.854 250.018 704.616 248.972 702.736 248.972C700.891 248.972 699.619 250.045 699.462 251.651L699.455 251.72H700.638L700.645 251.651C700.747 250.653 701.574 250.038 702.736 250.038C703.939 250.038 704.616 250.633 704.616 251.665V251.679C704.616 252.663 703.796 253.388 702.62 253.388H701.438V254.427H702.675C704.056 254.427 704.924 255.104 704.924 256.313V256.327C704.924 257.373 704.042 258.098 702.75 258.098C701.438 258.098 700.542 257.428 700.446 256.457L700.439 256.389H699.257L699.264 256.471C699.394 258.029 700.713 259.164 702.75 259.164ZM711.473 259.232C713.653 259.232 714.966 257.243 714.966 254.071V254.058C714.966 250.886 713.653 248.903 711.473 248.903C709.292 248.903 707.993 250.886 707.993 254.058V254.071C707.993 257.243 709.292 259.232 711.473 259.232ZM711.473 258.159C710.058 258.159 709.23 256.587 709.23 254.071V254.058C709.23 251.542 710.058 249.983 711.473 249.983C712.888 249.983 713.729 251.542 713.729 254.058V254.071C713.729 256.587 712.888 258.159 711.473 258.159Z" fill="#575757"/>
<circle cx="149" cy="179" r="9" fill="#FFDEDE"/>
</g>
<defs>
<filter id="filter0_d_625_11711" x="78" y="30" width="679" height="511" filterUnits="userSpaceOnUse" color-interpolation-filters="sRGB">
<feFlood flood-opacity="0" result="BackgroundImageFix"/>
<feColorMatrix in="SourceAlpha" type="matrix" values="0 0 0 0 0 0 0 0 0 0 0 0 0 0 0 0 0 0 127 0" result="hardAlpha"/>
<feOffset dy="10"/>
<feGaussianBlur stdDeviation="10"/>
<feComposite in2="hardAlpha" operator="out"/>
<feColorMatrix type="matrix" values="0 0 0 0 0 0 0 0 0 0 0 0 0 0 0 0 0 0 0.11 0"/>
<feBlend mode="normal" in2="BackgroundImageFix" result="effect1_dropShadow_625_11711"/>
<feBlend mode="normal" in="SourceGraphic" in2="effect1_dropShadow_625_11711" result="shape"/>
</filter>
<filter id="filter1_d_625_11711" x="-11" y="188" width="861" height="180" filterUnits="userSpaceOnUse" color-interpolation-filters="sRGB">
<feFlood flood-opacity="0" result="BackgroundImageFix"/>
<feColorMatrix in="SourceAlpha" type="matrix" values="0 0 0 0 0 0 0 0 0 0 0 0 0 0 0 0 0 0 127 0" result="hardAlpha"/>
<feOffset dy="24"/>
<feGaussianBlur stdDeviation="32"/>
<feComposite in2="hardAlpha" operator="out"/>
<feColorMatrix type="matrix" values="0 0 0 0 0 0 0 0 0 0 0 0 0 0 0 0 0 0 0.13 0"/>
<feBlend mode="normal" in2="BackgroundImageFix" result="effect1_dropShadow_625_11711"/>
<feBlend mode="normal" in="SourceGraphic" in2="effect1_dropShadow_625_11711" result="shape"/>
</filter>
<clipPath id="clip0_625_11711">
<rect width="734" height="537" fill="white"/>
</clipPath>
<clipPath id="clip1_625_11711">
<rect width="24" height="24" fill="white" transform="translate(90 242)"/>
</clipPath>
</defs>
</svg>
