<svg width="725" height="537" viewBox="0 0 725 537" fill="none" xmlns="http://www.w3.org/2000/svg">
<g clip-path="url(#clip0_625_11711)">
<g filter="url(#filter0_d_625_11711)">
<path d="M86 33H725V504H86V33Z" fill="white"/>
</g>
<g filter="url(#filter1_d_625_11711)">
<path fill-rule="evenodd" clip-rule="evenodd" d="M724 34H87V503H724V34ZM86 33V504H725V33H86Z" fill="#E7E7E7"/>
</g>
<path d="M146 137C146 141.971 141.971 146 137 146C132.029 146 128 141.971 128 137C128 132.029 132.029 128 137 128C141.971 128 146 132.029 146 137Z" fill="#FFDEDE"/>
<g opacity="0.7">
<path d="M176 133H327.334V141.294H176V133Z" fill="#D9D9D9"/>
<path d="M349.83 133H566.606V141.294H349.83V133Z" fill="#D9D9D9"/>
<path d="M645 133H589.102V141.294H645V133Z" fill="#D9D9D9"/>
</g>
<g opacity="0.7">
<path d="M176 170H327.334V178.294H176V170Z" fill="#D9D9D9"/>
<path d="M349.83 170H566.606V178.294H349.83V170Z" fill="#D9D9D9"/>
<path d="M645 170H589.102V178.294H645V170Z" fill="#D9D9D9"/>
</g>
<g opacity="0.7">
<path d="M176 207H327.334V215.294H176V207Z" fill="#D9D9D9"/>
<path d="M349.83 207H566.606V215.294H349.83V207Z" fill="#D9D9D9"/>
<path d="M645 207H589.102V215.294H645V207Z" fill="#D9D9D9"/>
</g>
<path d="M145 209C145 213.971 140.971 218 136 218C131.029 218 127 213.971 127 209C127 204.029 131.029 200 136 200C140.971 200 145 204.029 145 209Z" fill="#FFDEDE"/>
<path d="M145 285C145 289.971 140.971 294 136 294C131.029 294 127 289.971 127 285C127 280.029 131.029 276 136 276C140.971 276 145 280.029 145 285Z" fill="#FFDEDE"/>
<path d="M145 322C145 326.971 140.971 331 136 331C131.029 331 127 326.971 127 322C127 317.029 131.029 313 136 313C140.971 313 145 317.029 145 322Z" fill="#FFDEDE"/>
<path d="M145 359C145 363.971 140.971 368 136 368C131.029 368 127 363.971 127 359C127 354.029 131.029 350 136 350C140.971 350 145 354.029 145 359Z" fill="#FFDEDE"/>
<path d="M145 396C145 400.971 140.971 405 136 405C131.029 405 127 400.971 127 396C127 391.029 131.029 387 136 387C140.971 387 145 391.029 145 396Z" fill="#FFDEDE"/>
<path d="M145 433C145 437.971 140.971 442 136 442C131.029 442 127 437.971 127 433C127 428.029 131.029 424 136 424C140.971 424 145 428.029 145 433Z" fill="#FFDEDE"/>
<path d="M145 470C145 474.971 140.971 479 136 479C131.029 479 127 474.971 127 470C127 465.029 131.029 461 136 461C140.971 461 145 465.029 145 470Z" fill="#FFDEDE"/>
<g opacity="0.7">
<path d="M176 281H327.334V289.294H176V281Z" fill="#D9D9D9"/>
<path d="M349.83 281H566.606V289.294H349.83V281Z" fill="#D9D9D9"/>
<path d="M645 281H589.102V289.294H645V281Z" fill="#D9D9D9"/>
</g>
<g opacity="0.7">
<path d="M176 318H327.334V326.294H176V318Z" fill="#D9D9D9"/>
<path d="M349.83 318H566.606V326.294H349.83V318Z" fill="#D9D9D9"/>
<path d="M645 318H589.102V326.294H645V318Z" fill="#D9D9D9"/>
</g>
<g opacity="0.7">
<path d="M176 355H327.334V363.294H176V355Z" fill="#D9D9D9"/>
<path d="M349.83 355H566.606V363.294H349.83V355Z" fill="#D9D9D9"/>
<path d="M645 355H589.102V363.294H645V355Z" fill="#D9D9D9"/>
</g>
<g opacity="0.7">
<path d="M176 392H327.334V400.294H176V392Z" fill="#D9D9D9"/>
<path d="M349.83 392H566.606V400.294H349.83V392Z" fill="#D9D9D9"/>
<path d="M645 392H589.102V400.294H645V392Z" fill="#D9D9D9"/>
</g>
<g opacity="0.7">
<path d="M176 429H327.334V437.294H176V429Z" fill="#D9D9D9"/>
<path d="M349.83 429H566.606V437.294H349.83V429Z" fill="#D9D9D9"/>
<path d="M645 429H589.102V437.294H645V429Z" fill="#D9D9D9"/>
</g>
<g opacity="0.7">
<path d="M176 466H327.334V474.294H176V466Z" fill="#D9D9D9"/>
<path d="M349.83 466H566.606V474.294H349.83V466Z" fill="#D9D9D9"/>
<path d="M645 466H589.102V474.294H645V466Z" fill="#D9D9D9"/>
</g>
<path d="M132.128 89.0002H128.613L135.013 70.8184H139.08L145.489 89.0002H141.974L137.118 74.5471H136.975L132.128 89.0002ZM132.244 81.8713H141.832V84.5169H132.244V81.8713Z" fill="#393939"/>
<path d="M156.433 83.2651V75.3638H159.647V89.0002H156.531V86.5765H156.389C156.081 87.34 155.575 87.9644 154.871 88.4498C154.173 88.9351 153.311 89.1777 152.288 89.1777C151.394 89.1777 150.604 88.9795 149.917 88.5829C149.237 88.1805 148.704 87.5975 148.319 86.834C147.934 86.0646 147.742 85.1354 147.742 84.0463V75.3638H150.956V83.5492C150.956 84.4133 151.193 85.0998 151.666 85.6088C152.14 86.1178 152.761 86.3723 153.53 86.3723C154.004 86.3723 154.463 86.2569 154.906 86.0261C155.35 85.7953 155.714 85.452 155.998 84.9963C156.288 84.5346 156.433 83.9576 156.433 83.2651Z" fill="#393939"/>
<path d="M168.012 89.2399C166.941 89.2399 165.982 88.9647 165.136 88.4142C164.29 87.8638 163.621 87.0648 163.13 86.0172C162.638 84.9696 162.393 83.6971 162.393 82.1998C162.393 80.6846 162.641 79.4062 163.138 78.3645C163.642 77.3169 164.319 76.5268 165.171 75.9941C166.024 75.4556 166.974 75.1863 168.021 75.1863C168.82 75.1863 169.477 75.3224 169.992 75.5946C170.507 75.861 170.915 76.1835 171.217 76.5623C171.519 76.9352 171.753 77.2873 171.919 77.6188H172.052V70.8184H175.274V89.0002H172.114V86.8517H171.919C171.753 87.1832 171.513 87.5353 171.2 87.9082C170.886 88.2752 170.472 88.5888 169.957 88.8493C169.442 89.1097 168.794 89.2399 168.012 89.2399ZM168.909 86.6032C169.59 86.6032 170.17 86.4197 170.649 86.0527C171.129 85.6799 171.493 85.162 171.741 84.4991C171.99 83.8362 172.114 83.0639 172.114 82.182C172.114 81.3001 171.99 80.5337 171.741 79.8826C171.498 79.2316 171.137 78.7256 170.658 78.3645C170.185 78.0035 169.602 77.823 168.909 77.823C168.193 77.823 167.595 78.0094 167.116 78.3823C166.636 78.7551 166.275 79.2701 166.033 79.927C165.79 80.584 165.669 81.3356 165.669 82.182C165.669 83.0343 165.79 83.7948 166.033 84.4636C166.281 85.1265 166.645 85.6503 167.125 86.035C167.61 86.4138 168.205 86.6032 168.909 86.6032Z" fill="#393939"/>
<path d="M178.699 89.0002V75.3638H181.913V89.0002H178.699ZM180.315 73.4284C179.806 73.4284 179.368 73.2598 179.001 72.9224C178.634 72.5791 178.451 72.1678 178.451 71.6884C178.451 71.2031 178.634 70.7917 179.001 70.4544C179.368 70.1111 179.806 69.9395 180.315 69.9395C180.83 69.9395 181.268 70.1111 181.629 70.4544C181.996 70.7917 182.179 71.2031 182.179 71.6884C182.179 72.1678 181.996 72.5791 181.629 72.9224C181.268 73.2598 180.83 73.4284 180.315 73.4284Z" fill="#393939"/>
<path d="M192.027 75.3638V77.8496H184.188V75.3638H192.027ZM186.123 72.0968H189.337V84.8986C189.337 85.3307 189.402 85.6621 189.532 85.8929C189.668 86.1178 189.846 86.2717 190.065 86.3546C190.284 86.4374 190.527 86.4789 190.793 86.4789C190.994 86.4789 191.178 86.4641 191.343 86.4345C191.515 86.4049 191.645 86.3783 191.734 86.3546L192.276 88.867C192.104 88.9262 191.858 88.9913 191.539 89.0623C191.225 89.1333 190.84 89.1748 190.385 89.1866C189.58 89.2103 188.855 89.089 188.209 88.8226C187.564 88.5504 187.052 88.1302 186.674 87.562C186.301 86.9938 186.117 86.2836 186.123 85.4313V72.0968Z" fill="#393939"/>
<path d="M201.058 89.0002V70.8184H204.352V86.2392H212.359V89.0002H201.058Z" fill="#393939"/>
<path d="M221.024 89.2665C219.693 89.2665 218.538 88.9735 217.562 88.3876C216.585 87.8017 215.828 86.9819 215.289 85.9284C214.756 84.8749 214.49 83.6439 214.49 82.2353C214.49 80.8266 214.756 79.5926 215.289 78.5332C215.828 77.4738 216.585 76.6511 217.562 76.0652C218.538 75.4792 219.693 75.1863 221.024 75.1863C222.356 75.1863 223.51 75.4792 224.487 76.0652C225.463 76.6511 226.218 77.4738 226.75 78.5332C227.289 79.5926 227.558 80.8266 227.558 82.2353C227.558 83.6439 227.289 84.8749 226.75 85.9284C226.218 86.9819 225.463 87.8017 224.487 88.3876C223.51 88.9735 222.356 89.2665 221.024 89.2665ZM221.042 86.6919C221.764 86.6919 222.368 86.4937 222.853 86.0971C223.338 85.6947 223.699 85.1561 223.936 84.4814C224.179 83.8066 224.3 83.055 224.3 82.2264C224.3 81.3919 224.179 80.6373 223.936 79.9625C223.699 79.2819 223.338 78.7404 222.853 78.3379C222.368 77.9354 221.764 77.7342 221.042 77.7342C220.302 77.7342 219.687 77.9354 219.195 78.3379C218.71 78.7404 218.346 79.2819 218.103 79.9625C217.867 80.6373 217.748 81.3919 217.748 82.2264C217.748 83.055 217.867 83.8066 218.103 84.4814C218.346 85.1561 218.71 85.6947 219.195 86.0971C219.687 86.4937 220.302 86.6919 221.042 86.6919Z" fill="#393939"/>
<path d="M236.216 94.3979C235.062 94.3979 234.071 94.2411 233.242 93.9274C232.414 93.6196 231.748 93.2053 231.245 92.6845C230.742 92.1636 230.393 91.5866 230.197 90.9533L233.091 90.252C233.222 90.5183 233.411 90.7817 233.66 91.0421C233.908 91.3084 234.243 91.5274 234.663 91.699C235.089 91.8766 235.625 91.9654 236.27 91.9654C237.181 91.9654 237.936 91.7434 238.534 91.2995C239.131 90.8616 239.43 90.1395 239.43 89.1333V86.5499H239.27C239.105 86.8813 238.862 87.2217 238.542 87.5708C238.229 87.92 237.811 88.213 237.291 88.4498C236.776 88.6865 236.128 88.8049 235.346 88.8049C234.299 88.8049 233.349 88.5592 232.497 88.068C231.65 87.5708 230.976 86.831 230.472 85.8485C229.975 84.8601 229.727 83.6232 229.727 82.1376C229.727 80.6402 229.975 79.3766 230.472 78.3468C230.976 77.311 231.653 76.5268 232.505 75.9941C233.358 75.4556 234.308 75.1863 235.355 75.1863C236.154 75.1863 236.811 75.3224 237.326 75.5946C237.847 75.861 238.261 76.1835 238.569 76.5623C238.877 76.9352 239.111 77.2873 239.27 77.6188H239.448V75.3638H242.617V89.2221C242.617 90.3881 242.339 91.3528 241.783 92.1163C241.226 92.8798 240.466 93.4509 239.501 93.8297C238.536 94.2085 237.442 94.3979 236.216 94.3979ZM236.243 86.2836C236.924 86.2836 237.504 86.1178 237.983 85.7864C238.463 85.455 238.827 84.9785 239.075 84.3571C239.324 83.7356 239.448 82.9899 239.448 82.1199C239.448 81.2617 239.324 80.51 239.075 79.8649C238.832 79.2198 238.471 78.7196 237.992 78.3645C237.519 78.0035 236.936 77.823 236.243 77.823C235.527 77.823 234.929 78.0094 234.45 78.3823C233.97 78.7551 233.609 79.2671 233.367 79.9181C233.124 80.5633 233.003 81.2972 233.003 82.1199C233.003 82.9544 233.124 83.6853 233.367 84.3127C233.615 84.9341 233.979 85.4194 234.459 85.7686C234.944 86.1119 235.539 86.2836 236.243 86.2836Z" fill="#393939"/>
<path d="M256.689 78.9682L253.759 79.2878C253.676 78.9919 253.531 78.7137 253.324 78.4533C253.123 78.1929 252.851 77.9828 252.507 77.823C252.164 77.6632 251.744 77.5833 251.247 77.5833C250.578 77.5833 250.016 77.7283 249.56 78.0183C249.11 78.3083 248.888 78.6841 248.894 79.1458C248.888 79.5423 249.033 79.8649 249.329 80.1135C249.631 80.362 250.128 80.5662 250.82 80.726L253.146 81.2232C254.437 81.5014 255.396 81.9423 256.023 82.546C256.656 83.1497 256.976 83.9398 256.982 84.9164C256.976 85.7746 256.724 86.5321 256.227 87.1891C255.736 87.8401 255.052 88.3491 254.176 88.7161C253.3 89.083 252.294 89.2665 251.158 89.2665C249.489 89.2665 248.145 88.9173 247.127 88.2189C246.109 87.5146 245.503 86.5351 245.307 85.2804L248.441 84.9785C248.583 85.594 248.885 86.0587 249.347 86.3723C249.808 86.686 250.409 86.8429 251.149 86.8429C251.912 86.8429 252.525 86.686 252.987 86.3723C253.454 86.0587 253.688 85.671 253.688 85.2093C253.688 84.8187 253.537 84.4962 253.235 84.2417C252.939 83.9872 252.478 83.7918 251.85 83.6557L249.524 83.1674C248.216 82.8952 247.249 82.4365 246.621 81.7914C245.994 81.1403 245.683 80.3176 245.689 79.3233C245.683 78.4829 245.911 77.7549 246.373 77.1394C246.84 76.5179 247.488 76.0385 248.317 75.7012C249.151 75.3579 250.113 75.1863 251.202 75.1863C252.8 75.1863 254.058 75.5266 254.975 76.2072C255.899 76.8878 256.47 77.8082 256.689 78.9682Z" fill="#393939"/>
<g filter="url(#filter2_d_625_11711)">
<path d="M41 221H774V273H41V221Z" fill="white"/>
</g>
<g filter="url(#filter3_d_625_11711)">
<path fill-rule="evenodd" clip-rule="evenodd" d="M773 222H42V272H773V222ZM41 221V273H774V221H41Z" fill="#E7E7E7"/>
</g>
<g clip-path="url(#clip1_625_11711)">
<path fill-rule="evenodd" clip-rule="evenodd" d="M75.485 237.1L76.9 238.516L67.708 247.708L66.296 247.711L66.294 246.294L75.485 237.1ZM74 254H60V240H69.757L71.757 238H59C58.7348 238 58.4804 238.105 58.2929 238.293C58.1054 238.48 58 238.734 58 239V255C58 255.265 58.1054 255.519 58.2929 255.707C58.4804 255.894 58.7348 256 59 256H75C75.2652 256 75.5196 255.894 75.7071 255.707C75.8946 255.519 76 255.265 76 255V242.243L74 244.243V254Z" fill="#F86A2B"/>
</g>
<path d="M99.4414 252.239C102.292 252.239 104.042 250.229 104.042 247.071V247.058C104.042 243.893 102.278 241.896 99.4414 241.896C96.6113 241.896 94.834 243.886 94.834 247.058V247.071C94.834 250.236 96.5703 252.239 99.4414 252.239ZM99.4414 250.886C97.541 250.886 96.3994 249.382 96.3994 247.071V247.058C96.3994 244.727 97.5752 243.25 99.4414 243.25C101.308 243.25 102.477 244.727 102.477 247.058V247.071C102.477 249.382 101.314 250.886 99.4414 250.886Z" fill="#393939"/>
<path d="M106.12 252H107.651V242.136H106.12V252Z" fill="#393939"/>
<path d="M110.126 252H113.688C116.627 252 118.329 250.182 118.329 247.051V247.037C118.329 243.94 116.613 242.136 113.688 242.136H110.126V252ZM111.657 250.681V243.455H113.517C115.561 243.455 116.771 244.788 116.771 247.058V247.071C116.771 249.361 115.581 250.681 113.517 250.681H111.657Z" fill="#393939"/>
<path d="M124.454 252.239C126.655 252.239 128.262 250.981 128.549 249.088V249.047H127.031L127.018 249.074C126.737 250.188 125.76 250.886 124.454 250.886C122.677 250.886 121.569 249.416 121.569 247.078V247.064C121.569 244.72 122.677 243.25 124.447 243.25C125.746 243.25 126.737 244.036 127.024 245.246V245.267H128.542L128.549 245.232C128.289 243.271 126.621 241.896 124.447 241.896C121.706 241.896 120.004 243.879 120.004 247.064V247.078C120.004 250.257 121.713 252.239 124.454 252.239Z" fill="#393939"/>
<path d="M133.635 252H135.241L136.137 249.334H139.91L140.799 252H142.412L138.851 242.136H137.196L133.635 252ZM137.962 243.865H138.078L139.5 248.104H136.547L137.962 243.865Z" fill="#393939"/>
<path d="M146.062 252.144C147.143 252.144 147.895 251.679 148.25 250.879H148.366V252H149.843V244.576H148.366V248.931C148.366 250.127 147.73 250.872 146.541 250.872C145.454 250.872 145.003 250.264 145.003 249.033V244.576H143.52V249.382C143.52 251.139 144.388 252.144 146.062 252.144Z" fill="#393939"/>
<path d="M154.785 252.048C155.072 252.048 155.346 252.014 155.585 251.973V250.79C155.38 250.811 155.25 250.817 155.024 250.817C154.293 250.817 153.992 250.489 153.992 249.689V245.745H155.585V244.576H153.992V242.703H152.481V244.576H151.319V245.745H152.481V250.045C152.481 251.474 153.151 252.048 154.785 252.048Z" fill="#393939"/>
<path d="M157.383 252H158.866V247.646C158.866 246.449 159.543 245.704 160.63 245.704C161.717 245.704 162.229 246.312 162.229 247.543V252H163.706V247.194C163.706 245.424 162.79 244.433 161.129 244.433C160.049 244.433 159.338 244.911 158.976 245.704H158.866V241.664H157.383V252Z" fill="#393939"/>
<path d="M168.895 252.144C170.795 252.144 171.82 251.05 172.066 250.072L172.08 250.011L170.651 250.018L170.624 250.072C170.446 250.455 169.879 250.927 168.929 250.927C167.705 250.927 166.926 250.1 166.898 248.678H172.162V248.158C172.162 245.93 170.891 244.433 168.819 244.433C166.748 244.433 165.408 245.984 165.408 248.302V248.309C165.408 250.66 166.721 252.144 168.895 252.144ZM168.826 245.649C169.831 245.649 170.576 246.292 170.692 247.618H166.919C167.049 246.34 167.814 245.649 168.826 245.649Z" fill="#393939"/>
<path d="M173.926 252H175.409V247.646C175.409 246.449 176.086 245.704 177.173 245.704C178.26 245.704 178.772 246.312 178.772 247.543V252H180.249V247.194C180.249 245.424 179.333 244.433 177.672 244.433C176.592 244.433 175.881 244.911 175.519 245.704H175.409V244.576H173.926V252Z" fill="#393939"/>
<path d="M185.123 252.048C185.41 252.048 185.684 252.014 185.923 251.973V250.79C185.718 250.811 185.588 250.817 185.362 250.817C184.631 250.817 184.33 250.489 184.33 249.689V245.745H185.923V244.576H184.33V242.703H182.819V244.576H181.657V245.745H182.819V250.045C182.819 251.474 183.489 252.048 185.123 252.048Z" fill="#393939"/>
<path d="M188.425 243.25C188.931 243.25 189.354 242.833 189.354 242.327C189.354 241.814 188.931 241.397 188.425 241.397C187.912 241.397 187.495 241.814 187.495 242.327C187.495 242.833 187.912 243.25 188.425 243.25ZM187.68 252H189.156V244.576H187.68V252Z" fill="#393939"/>
<path d="M194.44 252.144C196.279 252.144 197.339 251.152 197.605 249.71L197.619 249.648H196.197L196.184 249.683C195.944 250.482 195.37 250.906 194.44 250.906C193.217 250.906 192.458 249.908 192.458 248.268V248.254C192.458 246.654 193.203 245.67 194.44 245.67C195.425 245.67 196.026 246.217 196.19 246.948L196.197 246.969L197.619 246.962V246.928C197.414 245.485 196.3 244.433 194.434 244.433C192.267 244.433 190.947 245.902 190.947 248.254V248.268C190.947 250.667 192.273 252.144 194.44 252.144Z" fill="#393939"/>
<path d="M201.338 252.123C202.322 252.123 203.102 251.699 203.539 250.947H203.655V252H205.125V246.921C205.125 245.362 204.072 244.433 202.206 244.433C200.518 244.433 199.349 245.246 199.171 246.463L199.164 246.511H200.593L200.6 246.483C200.777 245.957 201.317 245.656 202.138 245.656C203.143 245.656 203.655 246.107 203.655 246.921V247.577L201.646 247.693C199.875 247.803 198.877 248.575 198.877 249.901V249.915C198.877 251.262 199.923 252.123 201.338 252.123ZM200.354 249.854V249.84C200.354 249.17 200.818 248.801 201.844 248.739L203.655 248.623V249.259C203.655 250.216 202.842 250.94 201.734 250.94C200.935 250.94 200.354 250.537 200.354 249.854Z" fill="#393939"/>
<path d="M210.02 252.048C210.307 252.048 210.58 252.014 210.819 251.973V250.79C210.614 250.811 210.484 250.817 210.259 250.817C209.527 250.817 209.227 250.489 209.227 249.689V245.745H210.819V244.576H209.227V242.703H207.716V244.576H206.554V245.745H207.716V250.045C207.716 251.474 208.386 252.048 210.02 252.048Z" fill="#393939"/>
<path d="M213.321 243.25C213.827 243.25 214.251 242.833 214.251 242.327C214.251 241.814 213.827 241.397 213.321 241.397C212.809 241.397 212.392 241.814 212.392 242.327C212.392 242.833 212.809 243.25 213.321 243.25ZM212.576 252H214.053V244.576H212.576V252Z" fill="#393939"/>
<path d="M219.357 252.144C221.531 252.144 222.864 250.688 222.864 248.295V248.281C222.864 245.889 221.524 244.433 219.357 244.433C217.184 244.433 215.844 245.896 215.844 248.281V248.295C215.844 250.688 217.177 252.144 219.357 252.144ZM219.357 250.906C218.079 250.906 217.361 249.942 217.361 248.295V248.281C217.361 246.634 218.079 245.67 219.357 245.67C220.629 245.67 221.354 246.634 221.354 248.281V248.295C221.354 249.936 220.629 250.906 219.357 250.906Z" fill="#393939"/>
<path d="M224.635 252H226.118V247.646C226.118 246.449 226.795 245.704 227.882 245.704C228.969 245.704 229.481 246.312 229.481 247.543V252H230.958V247.194C230.958 245.424 230.042 244.433 228.381 244.433C227.301 244.433 226.59 244.911 226.228 245.704H226.118V244.576H224.635V252Z" fill="#393939"/>
<path d="M238.895 252.123C239.879 252.123 240.658 251.699 241.096 250.947H241.212V252H242.682V246.921C242.682 245.362 241.629 244.433 239.763 244.433C238.074 244.433 236.905 245.246 236.728 246.463L236.721 246.511H238.149L238.156 246.483C238.334 245.957 238.874 245.656 239.694 245.656C240.699 245.656 241.212 246.107 241.212 246.921V247.577L239.202 247.693C237.432 247.803 236.434 248.575 236.434 249.901V249.915C236.434 251.262 237.479 252.123 238.895 252.123ZM237.91 249.854V249.84C237.91 249.17 238.375 248.801 239.4 248.739L241.212 248.623V249.259C241.212 250.216 240.398 250.94 239.291 250.94C238.491 250.94 237.91 250.537 237.91 249.854Z" fill="#393939"/>
<path d="M247.48 252.123C248.52 252.123 249.333 251.645 249.764 250.831H249.88V252H251.356V241.664H249.88V245.752H249.764C249.367 244.952 248.499 244.446 247.48 244.446C245.594 244.446 244.404 245.93 244.404 248.281V248.295C244.404 250.626 245.614 252.123 247.48 252.123ZM247.904 250.858C246.66 250.858 245.915 249.888 245.915 248.295V248.281C245.915 246.688 246.66 245.718 247.904 245.718C249.135 245.718 249.9 246.695 249.9 248.281V248.295C249.9 249.881 249.142 250.858 247.904 250.858Z" fill="#393939"/>
<path d="M256.271 252.123C257.311 252.123 258.124 251.645 258.555 250.831H258.671V252H260.147V241.664H258.671V245.752H258.555C258.158 244.952 257.29 244.446 256.271 244.446C254.385 244.446 253.195 245.93 253.195 248.281V248.295C253.195 250.626 254.405 252.123 256.271 252.123ZM256.695 250.858C255.451 250.858 254.706 249.888 254.706 248.295V248.281C254.706 246.688 255.451 245.718 256.695 245.718C257.926 245.718 258.691 246.695 258.691 248.281V248.295C258.691 249.881 257.933 250.858 256.695 250.858Z" fill="#393939"/>
<path d="M265.473 252.144C267.373 252.144 268.398 251.05 268.645 250.072L268.658 250.011L267.229 250.018L267.202 250.072C267.024 250.455 266.457 250.927 265.507 250.927C264.283 250.927 263.504 250.1 263.477 248.678H268.74V248.158C268.74 245.93 267.469 244.433 265.397 244.433C263.326 244.433 261.986 245.984 261.986 248.302V248.309C261.986 250.66 263.299 252.144 265.473 252.144ZM265.404 245.649C266.409 245.649 267.154 246.292 267.271 247.618H263.497C263.627 246.34 264.393 245.649 265.404 245.649Z" fill="#393939"/>
<path d="M273.211 252.123C274.25 252.123 275.063 251.645 275.494 250.831H275.61V252H277.087V241.664H275.61V245.752H275.494C275.098 244.952 274.229 244.446 273.211 244.446C271.324 244.446 270.135 245.93 270.135 248.281V248.295C270.135 250.626 271.345 252.123 273.211 252.123ZM273.635 250.858C272.391 250.858 271.646 249.888 271.646 248.295V248.281C271.646 246.688 272.391 245.718 273.635 245.718C274.865 245.718 275.631 246.695 275.631 248.281V248.295C275.631 249.881 274.872 250.858 273.635 250.858Z" fill="#393939"/>
<path d="M343.723 243.209C344.174 243.209 344.543 242.84 344.543 242.389C344.543 241.938 344.174 241.568 343.723 241.568C343.271 241.568 342.902 241.938 342.902 242.389C342.902 242.84 343.271 243.209 343.723 243.209ZM342.055 254.529C343.6 254.529 344.317 253.88 344.317 252.362V244.631H343.128V252.383C343.128 253.196 342.827 253.477 342.027 253.477H341.85V254.529H342.055Z" fill="#575757"/>
<path d="M348.59 252.13C349.581 252.13 350.354 251.699 350.818 250.913H350.928V252H352.117V246.955C352.117 245.424 351.112 244.501 349.314 244.501C347.742 244.501 346.621 245.28 346.43 246.436L346.423 246.477H347.612L347.619 246.456C347.811 245.882 348.392 245.554 349.273 245.554C350.374 245.554 350.928 246.046 350.928 246.955V247.625L348.815 247.755C347.1 247.857 346.129 248.616 346.129 249.929V249.942C346.129 251.282 347.188 252.13 348.59 252.13ZM347.346 249.915V249.901C347.346 249.17 347.838 248.773 348.959 248.705L350.928 248.582V249.252C350.928 250.305 350.046 251.098 348.836 251.098C347.981 251.098 347.346 250.66 347.346 249.915Z" fill="#575757"/>
<path d="M354.291 252H355.48V247.639C355.48 246.347 356.226 245.554 357.401 245.554C358.577 245.554 359.124 246.189 359.124 247.516V252H360.313V247.229C360.313 245.479 359.391 244.501 357.736 244.501C356.649 244.501 355.959 244.959 355.59 245.738H355.48V244.631H354.291V252Z" fill="#575757"/>
<path d="M365.475 252.13C367.211 252.13 368.264 251.146 368.517 250.147L368.53 250.093H367.341L367.313 250.154C367.115 250.599 366.5 251.07 365.502 251.07C364.189 251.07 363.349 250.182 363.314 248.657H368.619V248.192C368.619 245.991 367.402 244.501 365.399 244.501C363.396 244.501 362.098 246.06 362.098 248.336V248.343C362.098 250.653 363.369 252.13 365.475 252.13ZM365.393 245.561C366.479 245.561 367.286 246.251 367.409 247.707H363.335C363.465 246.306 364.299 245.561 365.393 245.561Z" fill="#575757"/>
<path d="M371.436 252.068C371.928 252.068 372.324 251.665 372.324 251.18C372.324 250.688 371.928 250.291 371.436 250.291C370.95 250.291 370.547 250.688 370.547 251.18C370.547 251.665 370.95 252.068 371.436 252.068Z" fill="#575757"/>
<path d="M377.068 252.13C378.094 252.13 378.914 251.645 379.365 250.824H379.475V252H380.664V241.705H379.475V245.793H379.365C378.962 245.007 378.08 244.501 377.068 244.501C375.195 244.501 373.979 245.998 373.979 248.309V248.322C373.979 250.619 375.202 252.13 377.068 252.13ZM377.342 251.077C375.995 251.077 375.195 250.038 375.195 248.322V248.309C375.195 246.593 375.995 245.554 377.342 245.554C378.682 245.554 379.502 246.606 379.502 248.309V248.322C379.502 250.024 378.682 251.077 377.342 251.077Z" fill="#575757"/>
<path d="M385.976 252.13C388.074 252.13 389.373 250.681 389.373 248.322V248.309C389.373 245.943 388.074 244.501 385.976 244.501C383.877 244.501 382.578 245.943 382.578 248.309V248.322C382.578 250.681 383.877 252.13 385.976 252.13ZM385.976 251.077C384.581 251.077 383.795 250.059 383.795 248.322V248.309C383.795 246.565 384.581 245.554 385.976 245.554C387.37 245.554 388.156 246.565 388.156 248.309V248.322C388.156 250.059 387.37 251.077 385.976 251.077Z" fill="#575757"/>
<path d="M394.227 252.13C395.963 252.13 397.016 251.146 397.269 250.147L397.282 250.093H396.093L396.065 250.154C395.867 250.599 395.252 251.07 394.254 251.07C392.941 251.07 392.101 250.182 392.066 248.657H397.371V248.192C397.371 245.991 396.154 244.501 394.151 244.501C392.148 244.501 390.85 246.06 390.85 248.336V248.343C390.85 250.653 392.121 252.13 394.227 252.13ZM394.145 245.561C395.231 245.561 396.038 246.251 396.161 247.707H392.087C392.217 246.306 393.051 245.561 394.145 245.561Z" fill="#575757"/>
<path d="M404.85 253.6C405.711 253.6 406.538 253.477 407.153 253.265V252.403C406.723 252.602 405.8 252.731 404.863 252.731C401.938 252.731 400.051 250.852 400.051 247.939V247.926C400.051 245.089 401.972 243.052 404.645 243.052C407.379 243.052 409.252 244.74 409.252 247.201V247.215C409.252 248.89 408.698 249.977 407.837 249.977C407.345 249.977 407.064 249.696 407.064 249.218V245.205H406.032V246.039H405.923C405.656 245.444 405.041 245.075 404.323 245.075C402.922 245.075 401.944 246.237 401.944 247.892V247.905C401.944 249.635 402.901 250.804 404.323 250.804C405.123 250.804 405.738 250.414 406.032 249.717H406.142L406.148 249.758C406.258 250.421 406.859 250.865 407.646 250.865C409.218 250.865 410.216 249.45 410.216 247.229V247.215C410.216 244.255 407.967 242.19 404.733 242.19C401.384 242.19 399.087 244.508 399.087 247.885V247.898C399.087 251.385 401.322 253.6 404.85 253.6ZM404.48 249.84C403.585 249.84 403.038 249.115 403.038 247.933V247.919C403.038 246.729 403.578 246.019 404.494 246.019C405.424 246.019 406.019 246.757 406.019 247.919V247.933C406.019 249.095 405.417 249.84 404.48 249.84Z" fill="#575757"/>
<path d="M415.076 252.13C416.812 252.13 417.865 251.146 418.118 250.147L418.132 250.093H416.942L416.915 250.154C416.717 250.599 416.102 251.07 415.104 251.07C413.791 251.07 412.95 250.182 412.916 248.657H418.221V248.192C418.221 245.991 417.004 244.501 415.001 244.501C412.998 244.501 411.699 246.06 411.699 248.336V248.343C411.699 250.653 412.971 252.13 415.076 252.13ZM414.994 245.561C416.081 245.561 416.888 246.251 417.011 247.707H412.937C413.066 246.306 413.9 245.561 414.994 245.561Z" fill="#575757"/>
<path d="M419.205 252H420.538L422.288 249.218H422.397L424.141 252H425.535L422.999 248.268L425.501 244.631H424.168L422.438 247.372H422.329L420.579 244.631H419.178L421.728 248.315L419.205 252Z" fill="#575757"/>
<path d="M429.158 252.13C430.149 252.13 430.922 251.699 431.387 250.913H431.496V252H432.686V246.955C432.686 245.424 431.681 244.501 429.883 244.501C428.311 244.501 427.189 245.28 426.998 246.436L426.991 246.477H428.181L428.188 246.456C428.379 245.882 428.96 245.554 429.842 245.554C430.942 245.554 431.496 246.046 431.496 246.955V247.625L429.384 247.755C427.668 247.857 426.697 248.616 426.697 249.929V249.942C426.697 251.282 427.757 252.13 429.158 252.13ZM427.914 249.915V249.901C427.914 249.17 428.406 248.773 429.527 248.705L431.496 248.582V249.252C431.496 250.305 430.614 251.098 429.404 251.098C428.55 251.098 427.914 250.66 427.914 249.915Z" fill="#575757"/>
<path d="M434.859 252H436.049V247.434C436.049 246.395 436.78 245.554 437.744 245.554C438.674 245.554 439.275 246.121 439.275 246.996V252H440.465V247.263C440.465 246.326 441.142 245.554 442.167 245.554C443.206 245.554 443.705 246.094 443.705 247.181V252H444.895V246.907C444.895 245.362 444.054 244.501 442.55 244.501C441.531 244.501 440.69 245.014 440.294 245.793H440.185C439.843 245.027 439.146 244.501 438.147 244.501C437.184 244.501 436.486 244.959 436.158 245.752H436.049V244.631H434.859V252Z" fill="#575757"/>
<path d="M447.041 254.461H448.23V250.838H448.34C448.743 251.624 449.625 252.13 450.637 252.13C452.51 252.13 453.727 250.633 453.727 248.322V248.309C453.727 246.012 452.503 244.501 450.637 244.501C449.611 244.501 448.791 244.986 448.34 245.807H448.23V244.631H447.041V254.461ZM450.363 251.077C449.023 251.077 448.203 250.024 448.203 248.322V248.309C448.203 246.606 449.023 245.554 450.363 245.554C451.71 245.554 452.51 246.593 452.51 248.309V248.322C452.51 250.038 451.71 251.077 450.363 251.077Z" fill="#575757"/>
<path d="M455.654 252H456.844V241.705H455.654V252Z" fill="#575757"/>
<path d="M462.135 252.13C463.871 252.13 464.924 251.146 465.177 250.147L465.19 250.093H464.001L463.974 250.154C463.775 250.599 463.16 251.07 462.162 251.07C460.85 251.07 460.009 250.182 459.975 248.657H465.279V248.192C465.279 245.991 464.062 244.501 462.06 244.501C460.057 244.501 458.758 246.06 458.758 248.336V248.343C458.758 250.653 460.029 252.13 462.135 252.13ZM462.053 245.561C463.14 245.561 463.946 246.251 464.069 247.707H459.995C460.125 246.306 460.959 245.561 462.053 245.561Z" fill="#575757"/>
<path d="M468.096 252.068C468.588 252.068 468.984 251.665 468.984 251.18C468.984 250.688 468.588 250.291 468.096 250.291C467.61 250.291 467.207 250.688 467.207 251.18C467.207 251.665 467.61 252.068 468.096 252.068Z" fill="#575757"/>
<path d="M474.022 252.13C475.793 252.13 476.784 251.18 477.085 249.847L477.099 249.771L475.923 249.778L475.909 249.819C475.636 250.64 475.007 251.077 474.016 251.077C472.703 251.077 471.855 249.99 471.855 248.295V248.281C471.855 246.62 472.689 245.554 474.016 245.554C475.075 245.554 475.731 246.142 475.916 246.866L475.923 246.887H477.105L477.099 246.846C476.88 245.533 475.807 244.501 474.016 244.501C471.951 244.501 470.639 245.991 470.639 248.281V248.295C470.639 250.633 471.958 252.13 474.022 252.13Z" fill="#575757"/>
<path d="M481.87 252.13C483.969 252.13 485.268 250.681 485.268 248.322V248.309C485.268 245.943 483.969 244.501 481.87 244.501C479.771 244.501 478.473 245.943 478.473 248.309V248.322C478.473 250.681 479.771 252.13 481.87 252.13ZM481.87 251.077C480.476 251.077 479.689 250.059 479.689 248.322V248.309C479.689 246.565 480.476 245.554 481.87 245.554C483.265 245.554 484.051 246.565 484.051 248.309V248.322C484.051 250.059 483.265 251.077 481.87 251.077Z" fill="#575757"/>
<path d="M487.113 252H488.303V247.434C488.303 246.395 489.034 245.554 489.998 245.554C490.928 245.554 491.529 246.121 491.529 246.996V252H492.719V247.263C492.719 246.326 493.396 245.554 494.421 245.554C495.46 245.554 495.959 246.094 495.959 247.181V252H497.148V246.907C497.148 245.362 496.308 244.501 494.804 244.501C493.785 244.501 492.944 245.014 492.548 245.793H492.438C492.097 245.027 491.399 244.501 490.401 244.501C489.438 244.501 488.74 244.959 488.412 245.752H488.303V244.631H487.113V252Z" fill="#575757"/>
<path d="M557.37 253.232C559.195 253.232 560.275 252.125 560.275 250.259V243.136H559.045V250.245C559.045 251.448 558.457 252.098 557.363 252.098C556.386 252.098 555.9 251.476 555.825 250.73L555.818 250.662H554.588L554.595 250.758C554.697 252.173 555.661 253.232 557.37 253.232Z" fill="#575757"/>
<path d="M565.108 253.13C566.188 253.13 566.934 252.686 567.296 251.899H567.405V253H568.595V245.631H567.405V249.992C567.405 251.284 566.715 252.077 565.416 252.077C564.24 252.077 563.762 251.441 563.762 250.115V245.631H562.572V250.402C562.572 252.146 563.434 253.13 565.108 253.13Z" fill="#575757"/>
<path d="M570.885 253H572.074V242.705H570.885V253Z" fill="#575757"/>
<path d="M581.528 253.232C583.531 253.232 584.96 251.845 584.96 249.855V249.842C584.96 247.935 583.627 246.547 581.774 246.547C580.879 246.547 580.106 246.909 579.669 247.572H579.56L579.895 244.236H584.413V243.136H578.924L578.404 248.803H579.471C579.594 248.57 579.751 248.379 579.922 248.215C580.346 247.812 580.906 247.613 581.562 247.613C582.841 247.613 583.757 248.55 583.757 249.862V249.876C583.757 251.209 582.854 252.146 581.542 252.146C580.387 252.146 579.532 251.394 579.416 250.45L579.409 250.396H578.227L578.233 250.471C578.377 252.05 579.689 253.232 581.528 253.232Z" fill="#575757"/>
<path d="M593.293 253H594.523V243.136H593.3L590.675 245.022V246.321L593.184 244.503H593.293V253Z" fill="#575757"/>
<path d="M597.374 253H603.759V251.893H599.083V251.783L601.325 249.466C603.109 247.627 603.595 246.807 603.595 245.679V245.665C603.595 244.072 602.275 242.903 600.553 242.903C598.666 242.903 597.312 244.161 597.306 245.911L597.319 245.918L598.495 245.925L598.502 245.911C598.502 244.749 599.288 243.977 600.471 243.977C601.633 243.977 602.337 244.756 602.337 245.795V245.809C602.337 246.67 601.968 247.183 600.71 248.543L597.374 252.152V253Z" fill="#575757"/>
<path d="M606.801 246.308C607.293 246.308 607.689 245.904 607.689 245.419C607.689 244.927 607.293 244.53 606.801 244.53C606.315 244.53 605.912 244.927 605.912 245.419C605.912 245.904 606.315 246.308 606.801 246.308ZM606.801 251.599C607.293 251.599 607.689 251.195 607.689 250.71C607.689 250.218 607.293 249.821 606.801 249.821C606.315 249.821 605.912 250.218 605.912 250.71C605.912 251.195 606.315 251.599 606.801 251.599Z" fill="#575757"/>
<path d="M613.452 253.232C615.455 253.232 616.884 251.845 616.884 249.855V249.842C616.884 247.935 615.551 246.547 613.698 246.547C612.803 246.547 612.03 246.909 611.593 247.572H611.483L611.818 244.236H616.337V243.136H610.848L610.328 248.803H611.395C611.518 248.57 611.675 248.379 611.846 248.215C612.27 247.812 612.83 247.613 613.486 247.613C614.765 247.613 615.681 248.55 615.681 249.862V249.876C615.681 251.209 614.778 252.146 613.466 252.146C612.311 252.146 611.456 251.394 611.34 250.45L611.333 250.396H610.15L610.157 250.471C610.301 252.05 611.613 253.232 613.452 253.232Z" fill="#575757"/>
<path d="M622.223 253.164C624.198 253.164 625.647 251.947 625.647 250.3V250.286C625.647 248.885 624.67 247.989 623.234 247.866V247.839C624.465 247.579 625.326 246.745 625.326 245.528V245.515C625.326 244.018 624.089 242.972 622.209 242.972C620.363 242.972 619.092 244.045 618.935 245.651L618.928 245.72H620.11L620.117 245.651C620.22 244.653 621.047 244.038 622.209 244.038C623.412 244.038 624.089 244.633 624.089 245.665V245.679C624.089 246.663 623.269 247.388 622.093 247.388H620.91V248.427H622.147C623.528 248.427 624.396 249.104 624.396 250.313V250.327C624.396 251.373 623.515 252.098 622.223 252.098C620.91 252.098 620.015 251.428 619.919 250.457L619.912 250.389H618.729L618.736 250.471C618.866 252.029 620.186 253.164 622.223 253.164Z" fill="#575757"/>
<path d="M628.621 246.308C629.113 246.308 629.51 245.904 629.51 245.419C629.51 244.927 629.113 244.53 628.621 244.53C628.136 244.53 627.732 244.927 627.732 245.419C627.732 245.904 628.136 246.308 628.621 246.308ZM628.621 251.599C629.113 251.599 629.51 251.195 629.51 250.71C629.51 250.218 629.113 249.821 628.621 249.821C628.136 249.821 627.732 250.218 627.732 250.71C627.732 251.195 628.136 251.599 628.621 251.599Z" fill="#575757"/>
<path d="M635.102 253.232C637.282 253.232 638.595 251.243 638.595 248.071V248.058C638.595 244.886 637.282 242.903 635.102 242.903C632.921 242.903 631.622 244.886 631.622 248.058V248.071C631.622 251.243 632.921 253.232 635.102 253.232ZM635.102 252.159C633.687 252.159 632.859 250.587 632.859 248.071V248.058C632.859 245.542 633.687 243.983 635.102 243.983C636.517 243.983 637.357 245.542 637.357 248.058V248.071C637.357 250.587 636.517 252.159 635.102 252.159Z" fill="#575757"/>
<path d="M643.92 253.232C646.101 253.232 647.413 251.243 647.413 248.071V248.058C647.413 244.886 646.101 242.903 643.92 242.903C641.739 242.903 640.44 244.886 640.44 248.058V248.071C640.44 251.243 641.739 253.232 643.92 253.232ZM643.92 252.159C642.505 252.159 641.678 250.587 641.678 248.071V248.058C641.678 245.542 642.505 243.983 643.92 243.983C645.335 243.983 646.176 245.542 646.176 248.058V248.071C646.176 250.587 645.335 252.159 643.92 252.159Z" fill="#575757"/>
<path d="M657.619 253.232C660.142 253.232 661.81 251.619 661.81 249.186V247.982H657.811V249.062H660.579V249.302C660.579 250.97 659.39 252.098 657.626 252.098C655.644 252.098 654.406 250.553 654.406 248.071V248.058C654.406 245.61 655.664 244.038 657.619 244.038C659.089 244.038 660.08 244.735 660.483 246.007L660.504 246.075H661.748L661.734 246.007C661.345 244.134 659.807 242.903 657.619 242.903C654.919 242.903 653.148 244.947 653.148 248.058V248.071C653.148 251.223 654.892 253.232 657.619 253.232Z" fill="#575757"/>
<path d="M663.99 253H665.139V245.467H665.214L668.331 253H669.37L672.487 245.467H672.562V253H673.711V243.136H672.282L668.905 251.366H668.796L665.419 243.136H663.99V253Z" fill="#575757"/>
<path d="M678.79 253H680.021V244.243H683.199V243.136H675.611V244.243H678.79V253Z" fill="#575757"/>
<path d="M688.572 249.582H691.635V252.713H692.742V249.582H695.805V248.475H692.742V245.344H691.635V248.475H688.572V249.582Z" fill="#575757"/>
<path d="M704.876 253.232C706.879 253.232 708.308 251.845 708.308 249.855V249.842C708.308 247.935 706.975 246.547 705.122 246.547C704.227 246.547 703.454 246.909 703.017 247.572H702.907L703.242 244.236H707.761V243.136H702.271L701.752 248.803H702.818C702.941 248.57 703.099 248.379 703.27 248.215C703.693 247.812 704.254 247.613 704.91 247.613C706.188 247.613 707.104 248.55 707.104 249.862V249.876C707.104 251.209 706.202 252.146 704.89 252.146C703.734 252.146 702.88 251.394 702.764 250.45L702.757 250.396H701.574L701.581 250.471C701.725 252.05 703.037 253.232 704.876 253.232Z" fill="#575757"/>
<path d="M711.268 246.308C711.76 246.308 712.156 245.904 712.156 245.419C712.156 244.927 711.76 244.53 711.268 244.53C710.782 244.53 710.379 244.927 710.379 245.419C710.379 245.904 710.782 246.308 711.268 246.308ZM711.268 251.599C711.76 251.599 712.156 251.195 712.156 250.71C712.156 250.218 711.76 249.821 711.268 249.821C710.782 249.821 710.379 250.218 710.379 250.71C710.379 251.195 710.782 251.599 711.268 251.599Z" fill="#575757"/>
<path d="M717.734 253.164C719.71 253.164 721.159 251.947 721.159 250.3V250.286C721.159 248.885 720.182 247.989 718.746 247.866V247.839C719.977 247.579 720.838 246.745 720.838 245.528V245.515C720.838 244.018 719.601 242.972 717.721 242.972C715.875 242.972 714.604 244.045 714.446 245.651L714.439 245.72H715.622L715.629 245.651C715.731 244.653 716.559 244.038 717.721 244.038C718.924 244.038 719.601 244.633 719.601 245.665V245.679C719.601 246.663 718.78 247.388 717.604 247.388H716.422V248.427H717.659C719.04 248.427 719.908 249.104 719.908 250.313V250.327C719.908 251.373 719.026 252.098 717.734 252.098C716.422 252.098 715.526 251.428 715.431 250.457L715.424 250.389H714.241L714.248 250.471C714.378 252.029 715.697 253.164 717.734 253.164Z" fill="#575757"/>
<path d="M726.457 253.232C728.638 253.232 729.95 251.243 729.95 248.071V248.058C729.95 244.886 728.638 242.903 726.457 242.903C724.276 242.903 722.978 244.886 722.978 248.058V248.071C722.978 251.243 724.276 253.232 726.457 253.232ZM726.457 252.159C725.042 252.159 724.215 250.587 724.215 248.071V248.058C724.215 245.542 725.042 243.983 726.457 243.983C727.872 243.983 728.713 245.542 728.713 248.058V248.071C728.713 250.587 727.872 252.159 726.457 252.159Z" fill="#575757"/>
<path d="M146 172C146 176.971 141.971 181 137 181C132.029 181 128 176.971 128 172C128 167.029 132.029 163 137 163C141.971 163 146 167.029 146 172Z" fill="#FFDEDE"/>
</g>
<defs>
<filter id="filter0_d_625_11711" x="66" y="23" width="679" height="511" filterUnits="userSpaceOnUse" color-interpolation-filters="sRGB">
<feFlood flood-opacity="0" result="BackgroundImageFix"/>
<feColorMatrix in="SourceAlpha" type="matrix" values="0 0 0 0 0 0 0 0 0 0 0 0 0 0 0 0 0 0 127 0" result="hardAlpha"/>
<feOffset dy="10"/>
<feGaussianBlur stdDeviation="10"/>
<feComposite in2="hardAlpha" operator="out"/>
<feColorMatrix type="matrix" values="0 0 0 0 0 0 0 0 0 0 0 0 0 0 0 0 0 0 0.11 0"/>
<feBlend mode="normal" in2="BackgroundImageFix" result="effect1_dropShadow_625_11711"/>
<feBlend mode="normal" in="SourceGraphic" in2="effect1_dropShadow_625_11711" result="shape"/>
</filter>
<filter id="filter1_d_625_11711" x="66" y="23" width="679" height="511" filterUnits="userSpaceOnUse" color-interpolation-filters="sRGB">
<feFlood flood-opacity="0" result="BackgroundImageFix"/>
<feColorMatrix in="SourceAlpha" type="matrix" values="0 0 0 0 0 0 0 0 0 0 0 0 0 0 0 0 0 0 127 0" result="hardAlpha"/>
<feOffset dy="10"/>
<feGaussianBlur stdDeviation="10"/>
<feComposite in2="hardAlpha" operator="out"/>
<feColorMatrix type="matrix" values="0 0 0 0 0 0 0 0 0 0 0 0 0 0 0 0 0 0 0.11 0"/>
<feBlend mode="normal" in2="BackgroundImageFix" result="effect1_dropShadow_625_11711"/>
<feBlend mode="normal" in="SourceGraphic" in2="effect1_dropShadow_625_11711" result="shape"/>
</filter>
<filter id="filter2_d_625_11711" x="-23" y="181" width="861" height="180" filterUnits="userSpaceOnUse" color-interpolation-filters="sRGB">
<feFlood flood-opacity="0" result="BackgroundImageFix"/>
<feColorMatrix in="SourceAlpha" type="matrix" values="0 0 0 0 0 0 0 0 0 0 0 0 0 0 0 0 0 0 127 0" result="hardAlpha"/>
<feOffset dy="24"/>
<feGaussianBlur stdDeviation="32"/>
<feComposite in2="hardAlpha" operator="out"/>
<feColorMatrix type="matrix" values="0 0 0 0 0 0 0 0 0 0 0 0 0 0 0 0 0 0 0.13 0"/>
<feBlend mode="normal" in2="BackgroundImageFix" result="effect1_dropShadow_625_11711"/>
<feBlend mode="normal" in="SourceGraphic" in2="effect1_dropShadow_625_11711" result="shape"/>
</filter>
<filter id="filter3_d_625_11711" x="-23" y="181" width="861" height="180" filterUnits="userSpaceOnUse" color-interpolation-filters="sRGB">
<feFlood flood-opacity="0" result="BackgroundImageFix"/>
<feColorMatrix in="SourceAlpha" type="matrix" values="0 0 0 0 0 0 0 0 0 0 0 0 0 0 0 0 0 0 127 0" result="hardAlpha"/>
<feOffset dy="24"/>
<feGaussianBlur stdDeviation="32"/>
<feComposite in2="hardAlpha" operator="out"/>
<feColorMatrix type="matrix" values="0 0 0 0 0 0 0 0 0 0 0 0 0 0 0 0 0 0 0.13 0"/>
<feBlend mode="normal" in2="BackgroundImageFix" result="effect1_dropShadow_625_11711"/>
<feBlend mode="normal" in="SourceGraphic" in2="effect1_dropShadow_625_11711" result="shape"/>
</filter>
<clipPath id="clip0_625_11711">
<rect width="725" height="537" fill="white"/>
</clipPath>
<clipPath id="clip1_625_11711">
<rect width="24" height="24" fill="white" transform="translate(55 235)"/>
</clipPath>
</defs>
</svg>
