<?xml version="1.0" standalone="no"?>
<!DOCTYPE svg PUBLIC "-//W3C//DTD SVG 1.1//EN" "http://www.w3.org/Graphics/SVG/1.1/DTD/svg11.dtd">
<svg xmlns="http://www.w3.org/2000/svg">
<defs >
<font id="NotoSans" horiz-adv-x="553" ><font-face
    font-family="Noto Sans"
    units-per-em="1000"
    panose-1="2 11 5 2 4 5 4 9 2 4"
    ascent="1069"
    descent="-293"
    alphabetic="0" />
<glyph unicode=" " glyph-name="space" horiz-adv-x="260" />
<glyph unicode="!" glyph-name="exclam" horiz-adv-x="261" d="M77 201L168 714H275L148 201H77ZM73 -14Q20 -14 20 40Q20 72 38 96T95 121Q118 121 132 107T146 67Q146 38 129 12T73 -14Z" />
<glyph unicode="&quot;" glyph-name="quotedbl" horiz-adv-x="392" d="M281 456L316 714H412L337 456H281ZM109 456L144 714H240L165 456H109Z" />
<glyph unicode="#" glyph-name="numbersign" horiz-adv-x="646" d="M97 0L156 209H30L36 275H175L223 437H89L95 502H241L301 714H373L312 502H456L518 714H586L526 502H654L647 437H506L459 275H597L591 209H440L380 0H308L371 209H227L166 0H97ZM246 275H390L435
437H292L246 275Z" />
<glyph unicode="$" glyph-name="dollar" horiz-adv-x="551" d="M190 50Q149 52 107 61T34 86V166Q73 146 119 135T204 122L251 337Q190 360 155 394T119 492Q119 549 145 587T218 646T321 673L340 758H405L387 672Q425 669 460 660T525 635L492 564Q469 577 438
587T372 600L327 391Q395 366 429 333T464 240Q464 182 436 143T361 81T255 51L231 -58H166L190 50ZM306 600Q259 595 230 569T200 494Q200 469 216 448T267 414L306 600ZM270 125Q316 131 348 158T380 233Q380 259 365 279T311 314L270 125Z" />
<glyph unicode="%" glyph-name="percent" horiz-adv-x="799" d="M195 276Q140 276 110 313T80 421Q80 450 85 489T102 569T136 645T191 702T270 724Q327 724 357 689T387 587Q387 560 382 521T363 439T328 359T273 299T195 276ZM113 0L643 714H721L191 0H113ZM202
342Q228 342 247 361T280 411T300 475T311 537T315 581Q315 622 302 640T264 659Q238 659 219 641T187 595T167 535T156 472T152 422Q152 342 202 342ZM562 -10Q507 -10 477 27T447 134Q447 164 452 203T469 284T504 360T558 416T637 438Q695 438 725 403T755 302Q755
275 749 236T730 154T695 74T640 13T562 -10ZM569 56Q595 56 614 75T647 125T667 189T678 251T682 295Q682 336 669 354T631 373Q605 373 586 355T555 309T535 249T524 186T520 136Q520 56 569 56Z" />
<glyph unicode="&amp;" glyph-name="ampersand" horiz-adv-x="673" d="M216 -10Q135 -10 84 35T32 168Q32 248 81 300T222 396Q203 428 188 465T173 545Q173 596 195 636T261 701T365 725Q438 725 481 687T524 582Q524 532 498 496T427 433T330 378L462 194Q495
223 518 260T557 338H645Q620 277 585 226T506 133L605 0H501L446 78Q399 40 346 15T216 -10ZM295 433Q327 449 360 468T416 514T439 575Q439 610 419 632T361 654Q312 654 285 625T257 545Q257 486 295 433ZM233 63Q286 63 326 84T404 136L259 342Q223 323 191
301T139 249T119 174Q119 123 151 93T233 63Z" />
<glyph unicode="&apos;" glyph-name="quotesingle" horiz-adv-x="220" d="M109 456L144 714H240L165 456H109Z" />
<glyph unicode="(" glyph-name="parenleft" horiz-adv-x="290" d="M112 -158Q78 -97 59 -23T40 133Q40 312 104 452T286 714H367Q296 636 241 546T155 353T124 134Q124 47 138 -24T180 -158H112Z" />
<glyph unicode=")" glyph-name="parenright" horiz-adv-x="290" d="M-77 -158Q-6 -79 48 11T134 204T165 422Q165 508 151 580T110 714H178Q212 653 230 579T249 422Q249 244 186 104T3 -158H-77Z" />
<glyph unicode="*" glyph-name="asterisk" horiz-adv-x="551" d="M372 300L318 495L195 330L134 391L283 528L103 581L131 659L311 570L331 763L418 746L359 560L563 570L559 488L369 511L456 326L372 300Z" />
<glyph unicode="+" glyph-name="plus" horiz-adv-x="572" d="M341 388H540V317H341V111H269V317H70V388H269V595H341V388Z" />
<glyph unicode="," glyph-name="comma" horiz-adv-x="256" d="M-43 -129Q-17 -70 10 -3T56 116H152L156 105Q131 52 95 -11T24 -129H-43Z" />
<glyph unicode="-" glyph-name="hyphen" horiz-adv-x="313" d="M26 227L44 308H280L262 227H26Z" />
<glyph unicode="." glyph-name="period" horiz-adv-x="256" d="M72 -14Q20 -14 20 38Q20 71 38 96T97 121Q119 121 132 108T146 68Q146 37 128 12T72 -14Z" />
<glyph unicode="/" glyph-name="slash" horiz-adv-x="356" d="M-46 0L351 714H441L45 0H-46Z" />
<glyph unicode="0" glyph-name="zero" horiz-adv-x="551" d="M236 -10Q148 -10 103 53T57 233Q57 292 67 359T98 490T155 608T239 693T354 725Q446 725 490 666T534 495Q534 423 523 351T490 214T432 99T348 19T236 -10ZM246 65Q286 65 317 91T372 161T412 262T436
378T444 497Q444 571 421 610T349 650Q311 650 279 625T223 556T181 458T155 346T146 233Q146 152 170 109T246 65Z" />
<glyph unicode="1" glyph-name="one" horiz-adv-x="551" d="M297 442Q307 489 318 537T339 614Q324 598 308 586T272 561L184 506L143 572L367 714H444L291 0H202L297 442Z" />
<glyph unicode="2" glyph-name="two" horiz-adv-x="551" d="M3 0L19 75L246 280Q312 340 354 382T416 462T436 547Q436 592 409 620T330 649Q286 649 249 631T177 587L135 647Q176 680 226 702T340 724Q431 724 479 679T528 561Q528 503 506 456T435 355T302 230L134
84V80H460L445 0H3Z" />
<glyph unicode="3" glyph-name="three" horiz-adv-x="551" d="M210 -10Q152 -10 107 0T22 29V114Q57 95 108 80T211 64Q291 64 334 102T377 206Q377 268 340 300T233 332H169L184 405H249Q299 405 341 422T409 474T435 555Q435 601 407 625T333 650Q287 650 249
634T173 592L132 654Q173 684 223 704T341 724Q431 724 478 681T525 566Q525 490 476 437T340 368V364Q397 354 433 315T470 210Q470 154 443 104T359 22T210 -10Z" />
<glyph unicode="4" glyph-name="four" horiz-adv-x="551" d="M288 0L323 162H6L21 242L424 714H525L426 240H536L519 162H408L373 0H288ZM111 240H340L376 411Q384 448 394 488T415 565T432 624H428Q420 611 407 593T382 558T360 531L111 240Z" />
<glyph unicode="5" glyph-name="five" horiz-adv-x="551" d="M200 -10Q103 -10 37 29V114Q73 92 114 78T200 64Q270 64 313 88T375 151T395 237Q395 299 359 333T261 367Q231 367 205 362T147 349L110 378L207 714H536L519 634H266L206 427Q224 431 245 434T293
437Q382 437 434 387T487 248Q487 203 473 158T426 74T338 13T200 -10Z" />
<glyph unicode="6" glyph-name="six" horiz-adv-x="551" d="M251 -10Q167 -10 115 43T63 209Q63 279 79 357T129 508T216 632Q259 676 318 700T454 724Q508 724 546 713L528 637Q512 642 492 645T444 649Q349 649 277 583T169 366H173Q202 404 244 426T338 449Q412
449 456 402T500 269Q500 219 485 170T440 80T362 15T251 -10ZM260 64Q309 64 343 92T395 165T413 261Q413 317 387 347T308 378Q272 378 242 362T192 323T162 279Q155 263 153 243T150 203Q150 167 161 136T196 84T260 64Z" />
<glyph unicode="7" glyph-name="seven" horiz-adv-x="551" d="M81 0L454 636H107L123 714H562L549 644L176 0H81Z" />
<glyph unicode="8" glyph-name="eight" horiz-adv-x="551" d="M246 -10Q177 -10 133 14T67 79T45 169Q45 246 95 298T234 384Q196 412 173 447T149 537Q149 596 177 638T253 702T361 725Q427 725 467 703T525 644T543 567Q543 514 520 478T458 416T376 372Q428
341 458 300T489 193Q489 140 464 94T384 19T246 -10ZM315 412Q383 438 418 471T454 558Q454 601 427 626T354 651Q301 651 269 621T236 537Q236 492 258 463T315 412ZM255 63Q305 63 337 81T384 129T399 191Q399 239 374 275T296 339Q251 325 215 305T157 253T136
174Q136 122 169 93T255 63Z" />
<glyph unicode="9" glyph-name="nine" horiz-adv-x="551" d="M165 -10Q135 -10 104 -6T47 7V88Q74 79 103 73T167 66Q267 66 326 135T416 343H411Q386 308 347 287T259 265Q177 265 132 314T87 454Q87 526 117 587T203 686T336 724Q424 724 473 669T522 504Q522
452 513 394T487 278T446 170T389 85Q343 34 287 12T165 -10ZM277 336Q324 336 362 361T421 432Q435 466 435 516Q435 575 408 612T331 650Q281 650 246 624T193 555T174 458Q174 400 200 368T277 336Z" />
<glyph unicode=":" glyph-name="colon" horiz-adv-x="256" d="M151 415Q99 415 99 466Q99 500 117 525T176 550Q198 550 211 537T225 497Q225 466 207 441T151 415ZM72 -14Q20 -14 20 38Q20 71 38 96T97 121Q119 121 132 108T146 68Q146 37 128 12T72 -14Z" />
<glyph unicode=";" glyph-name="semicolon" horiz-adv-x="256" d="M151 415Q99 415 99 466Q99 500 117 525T176 550Q198 550 211 537T225 497Q225 466 207 441T151 415ZM-49 -129Q-23 -70 4 -3T50 116H146L150 105Q125 52 89 -11T18 -129H-49Z" />
<glyph unicode="&lt;" glyph-name="less" horiz-adv-x="572" d="M541 116L70 323V373L541 608V530L164 352L541 194V116Z" />
<glyph unicode="=" glyph-name="equal" horiz-adv-x="572" d="M76 416V487H534V416H76ZM76 217V288H534V217H76Z" />
<glyph unicode="&gt;" glyph-name="greater" horiz-adv-x="572" d="M70 194L447 351L70 530V608L541 373V323L70 116V194Z" />
<glyph unicode="?" glyph-name="question" horiz-adv-x="430" d="M127 201Q134 244 147 276T184 335T244 391Q276 416 303 439T348 490T365 556Q365 600 341 624T271 648Q233 648 197 636T127 607L95 674Q136 696 185 710T281 724Q360 724 407 685T454 567Q454
500 418 450T311 348Q272 320 251 300T218 258T198 201H127ZM129 -14Q77 -14 77 38Q77 71 95 96T154 121Q176 121 189 108T203 68Q203 37 185 12T129 -14Z" />
<glyph unicode="@" glyph-name="at" horiz-adv-x="848" d="M385 -91Q284 -91 210 -51T94 64T53 246Q53 337 85 421T178 570T325 674T520 713Q626 713 692 672T790 563T822 415Q822 326 795 256T719 146T609 106Q553 106 531 133T504 195H500Q478 158 444 132T360
106Q305 106 272 142T239 246Q239 327 273 388T365 484T491 518Q539 518 571 509T629 489L582 310Q574 280 570 261T566 224Q566 193 580 181T614 169Q645 169 670 190T712 245T739 322T749 408Q749 474 726 528T649 614T507 647Q421 647 352 617T232 532T155 405T128
250Q128 123 196 50T396 -24Q450 -24 504 -12T602 18V-47Q550 -68 494 -79T385 -91ZM378 169Q426 169 457 211T508 321L541 445Q531 449 516 452T481 456Q435 456 397 429T337 356T315 253Q315 209 331 189T378 169Z" />
<glyph unicode="A" glyph-name="A" horiz-adv-x="562" d="M-57 0L331 714H425L513 0H425L398 222H157L41 0H-57ZM200 302H389L373 452Q369 490 366 536T361 617H358Q342 579 321 536T277 448L200 302Z" />
<glyph unicode="B" glyph-name="B" horiz-adv-x="600" d="M41 0L192 714H377Q476 714 532 675T589 550Q589 477 545 432T428 372V367Q477 354 510 318T543 222Q543 149 508 100T411 25T269 0H41ZM334 410Q379 410 415 424T474 466T496 539Q496 586 466 611T366
637H265L217 410H334ZM272 76Q357 76 403 114T449 222Q449 270 418 303T313 336H201L146 76H272Z" />
<glyph unicode="C" glyph-name="C" horiz-adv-x="587" d="M326 -10Q207 -10 140 63T72 263Q72 327 87 393T132 518T209 623T318 697T458 724Q558 724 632 684L596 610Q569 624 536 634T458 645Q383 645 329 612T238 523T185 400T167 265Q167 174 213 122T342 69Q383
69 422 77T500 98V20Q461 6 422 -2T326 -10Z" />
<glyph unicode="D" glyph-name="D" horiz-adv-x="667" d="M41 0L192 714H361Q490 714 563 644T636 429Q636 305 588 208T446 56T217 0H41ZM222 77Q326 77 397 124T505 251T542 430Q542 540 490 588T350 637H265L146 77H222Z" />
<glyph unicode="E" glyph-name="E" horiz-adv-x="514" d="M41 0L192 714H554L537 635H264L217 412H472L457 334H201L146 79H420L403 0H41Z" />
<glyph unicode="F" glyph-name="F" horiz-adv-x="477" d="M41 0L192 714H554L538 635H264L211 381H467L450 302H194L130 0H41Z" />
<glyph unicode="G" glyph-name="G" horiz-adv-x="678" d="M343 -10Q216 -10 144 61T72 259Q72 357 99 441T178 589T300 688T457 724Q522 724 571 713T664 682L630 604Q593 621 550 633T456 645Q374 645 309 596T205 462T167 265Q167 210 186 166T247 95T352 69Q390
69 421 74T475 87L521 298H381L398 376H627L551 27Q506 11 456 1T343 -10Z" />
<glyph unicode="H" glyph-name="H" horiz-adv-x="680" d="M42 0L193 714H282L218 412H532L596 714H684L533 0H445L515 333H201L131 0H42Z" />
<glyph unicode="I" glyph-name="I" horiz-adv-x="324" d="M-20 0L-10 49L75 69L197 645L121 664L131 714H381L371 664L285 645L163 69L240 49L230 0H-20Z" />
<glyph unicode="J" glyph-name="J" horiz-adv-x="273" d="M-80 -190Q-130 -190 -156 -178L-153 -101Q-138 -105 -120 -108T-82 -111Q-38 -111 -4 -83T43 9L193 714H282L131 -1Q109 -102 55 -146T-80 -190Z" />
<glyph unicode="K" glyph-name="K" horiz-adv-x="562" d="M41 0L192 714H281L207 367L269 433L543 714H651L341 400L510 0H412L273 346L190 285L130 0H41Z" />
<glyph unicode="L" glyph-name="L" horiz-adv-x="478" d="M41 0L192 714H281L146 80H420L403 0H41Z" />
<glyph unicode="M" glyph-name="M" horiz-adv-x="841" d="M40 0L191 714H317L386 131H390L707 714H844L696 0H606L696 424Q710 489 722 542T744 627H742L398 0H327L251 626H247Q245 606 240 573T229 502T215 429L124 0H40Z" />
<glyph unicode="N" glyph-name="N" horiz-adv-x="707" d="M40 0L191 714H286L505 124H508Q513 160 522 215T543 321L627 714H712L561 0H466L245 592H242Q240 571 235 537T222 464T206 388L124 0H40Z" />
<glyph unicode="O" glyph-name="O" horiz-adv-x="721" d="M337 -10Q209 -10 141 64T72 267Q72 359 96 442T168 588T282 688T433 725Q555 725 622 650T690 444Q690 351 668 269T601 125T490 26T337 -10ZM340 69Q400 69 447 99T527 181T577 302T595 446Q595 541
550 593T427 646Q367 646 319 617T237 536T185 416T167 269Q167 175 213 122T340 69Z" />
<glyph unicode="P" glyph-name="P" horiz-adv-x="567" d="M41 0L192 714H353Q469 714 518 663T567 528Q567 407 487 343T253 279H189L130 0H41ZM267 354Q363 354 419 395T476 525Q476 584 443 610T341 637H265L205 354H267Z" />
<glyph unicode="Q" glyph-name="Q" horiz-adv-x="721" d="M353 -9Q349 -10 345 -10T337 -10Q209 -10 141 64T72 267Q72 359 96 442T168 588T282 688T433 725Q555 725 622 650T690 444Q690 341 661 252T577 98T441 7L575 -170H461L353 -9ZM340 69Q401 69 448 99T528
181T578 302T595 446Q595 541 550 593T427 646Q367 646 319 617T237 536T185 416T167 269Q167 175 213 122T340 69Z" />
<glyph unicode="R" glyph-name="R" horiz-adv-x="573" d="M41 0L192 714H349Q569 714 569 533Q569 456 529 399T391 315L509 0H411L309 295H192L130 0H41ZM286 371Q386 371 431 414T477 527Q477 588 443 612T341 636H265L208 371H286Z" />
<glyph unicode="S" glyph-name="S" horiz-adv-x="505" d="M185 -10Q133 -10 94 -2T19 22V110Q49 94 90 81T186 68Q231 68 269 82T330 125T353 200Q353 240 327 268T235 334Q197 357 168 381T122 438T105 517Q105 583 137 629T222 700T340 724Q396 724 438 713T519
682L485 606Q459 620 420 632T340 645Q279 645 240 613T200 523Q200 493 211 473T245 436T302 398Q345 372 377 347T428 289T447 207Q447 100 376 45T185 -10Z" />
<glyph unicode="T" glyph-name="T" horiz-adv-x="501" d="M152 0L286 635H90L107 714H589L573 635H377L242 0H152Z" />
<glyph unicode="U" glyph-name="U" horiz-adv-x="677" d="M300 -10Q188 -10 134 41T79 188Q79 205 82 230T91 283L183 714H272L179 278Q174 255 171 230T168 189Q168 133 202 101T305 69Q394 69 437 115T500 250L599 714H688L588 243Q572 165 538 108T445 21T300 -10Z" />
<glyph unicode="V" glyph-name="V" horiz-adv-x="552" d="M169 0L92 714H180L225 262Q230 221 232 179T234 101H236Q251 137 270 176T313 263L545 714H644L264 0H169Z" />
<glyph unicode="W" glyph-name="W" horiz-adv-x="856" d="M137 0L107 714H195L209 279Q211 238 209 194T205 110H208Q222 149 242 199T283 294L479 714H570L590 296Q593 249 594 198T594 110H597Q611 148 626 193T661 282L848 714H943L619 0H528L506 460Q504 493
503 530T502 599H499Q489 569 476 538T440 457L229 0H137Z" />
<glyph unicode="X" glyph-name="X" horiz-adv-x="527" d="M-52 0L239 378L112 714H202L299 441L511 714H609L339 374L474 0H380L278 309L46 0H-52Z" />
<glyph unicode="Y" glyph-name="Y" horiz-adv-x="509" d="M150 0L208 268L92 714H181L266 356L500 714H601L295 265L240 0H150Z" />
<glyph unicode="Z" glyph-name="Z" horiz-adv-x="531" d="M-10 0L4 70L449 634H134L151 714H573L560 643L115 80H450L434 0H-10Z" />
<glyph unicode="[" glyph-name="bracketleft" horiz-adv-x="290" d="M-9 -158L177 714H370L354 642H244L90 -86H200L184 -158H-9Z" />
<glyph unicode="\" glyph-name="backslash" horiz-adv-x="356" d="M214 0L108 714H188L294 0H214Z" />
<glyph unicode="]" glyph-name="bracketright" horiz-adv-x="290" d="M-72 -158L-57 -86H53L207 642H97L113 714H306L120 -158H-72Z" />
<glyph unicode="^" glyph-name="asciicircum" horiz-adv-x="572" d="M38 267L250 719H300L534 267H456L276 626L116 267H38Z" />
<glyph unicode="_" glyph-name="underscore" horiz-adv-x="395" d="M-92 -158L-77 -90H320L305 -158H-92Z" />
<glyph unicode="`" glyph-name="grave" horiz-adv-x="278" d="M256 606Q237 625 216 652T175 707T146 756V766H240Q251 729 270 691T310 618V606H256Z" />
<glyph unicode="a" glyph-name="a" horiz-adv-x="568" d="M193 -10Q129 -10 89 36T48 173Q48 248 67 315T122 434T205 516T311 546Q364 546 397 518T446 453H451L483 536H550L436 0H366L379 99H375Q341 55 295 23T193 -10ZM222 63Q259 63 294 90T359 163T403 266Q411
295 413 319T416 365Q416 412 390 442T320 472Q281 472 248 448T190 381T152 284T138 171Q138 117 160 90T222 63Z" />
<glyph unicode="b" glyph-name="b" horiz-adv-x="579" d="M269 -10Q215 -10 182 17T132 82H127L94 0H28L189 760H277L239 580Q232 546 224 514T209 460T202 436H206Q242 480 284 512T383 545Q449 545 489 499T530 363Q530 290 512 223T460 104T378 21T269 -10ZM262
63Q302 63 335 88T391 157T427 254T440 364Q440 472 355 472Q322 472 288 448T224 381T178 284T160 171Q160 123 185 93T262 63Z" />
<glyph unicode="c" glyph-name="c" horiz-adv-x="453" d="M247 -10Q158 -10 103 40T48 190Q48 262 67 326T123 440T212 517T328 546Q363 546 398 539T461 520L436 447Q416 456 389 464T329 472Q272 472 229 434T162 331T138 191Q138 130 169 97T256 63Q291 63
322 73T385 96V22Q357 8 323 -1T247 -10Z" />
<glyph unicode="d" glyph-name="d" horiz-adv-x="579" d="M193 -10Q129 -10 89 36T48 173Q48 247 66 313T118 432T201 515T311 545Q365 545 397 518T446 453H451Q456 487 460 518T473 585L510 760H597L436 0H364L375 99H371Q335 54 292 22T193 -10ZM223 63Q256
63 290 87T353 154T399 250T417 364Q417 412 394 442T317 472Q277 472 245 447T188 378T151 281T138 171Q138 63 223 63Z" />
<glyph unicode="e" glyph-name="e" horiz-adv-x="499" d="M242 -10Q149 -10 99 44T48 192Q48 256 66 318T120 432T204 515T316 546Q392 546 430 513T469 421Q469 369 437 326T335 258T156 232H139Q138 223 138 213T137 195Q137 134 167 99T258 63Q296 63 330 74T404
104V29Q366 12 330 1T242 -10ZM159 303Q219 303 270 313T352 348T383 414Q383 440 366 456T311 473Q263 473 219 429T152 303H159Z" />
<glyph unicode="f" glyph-name="f" horiz-adv-x="318" d="M-48 -240Q-67 -240 -83 -237T-112 -230V-156Q-98 -160 -85 -163T-56 -167Q-20 -167 0 -138T32 -53L142 469H49L56 506L156 539L167 587Q183 656 206 694T265 749T349 765Q374 765 400 760T443 746L420
679Q406 684 390 688T353 693Q314 693 292 671T255 587L243 536H358L345 469H230L118 -63Q100 -146 62 -193T-48 -240Z" />
<glyph unicode="g" glyph-name="g" horiz-adv-x="579" d="M186 -240Q137 -240 96 -231T25 -206V-125Q51 -141 95 -154T183 -167Q245 -167 285 -137T341 -37L350 1Q355 24 362 52T375 99H371Q337 55 294 23T194 -10Q129 -10 89 36T48 173Q48 246 66 313T118 432T201
515T311 546Q365 546 398 518T447 453H451L484 536H551L429 -31Q405 -144 344 -192T186 -240ZM223 63Q257 63 291 88T353 155T399 252T416 364Q416 412 394 442T318 472Q278 472 245 447T188 378T151 281T138 171Q138 63 223 63Z" />
<glyph unicode="h" glyph-name="h" horiz-adv-x="579" d="M28 0L189 760H277L234 563Q228 533 219 501T202 436H207Q226 461 252 486T311 528T388 545Q450 545 486 511T523 408Q523 389 520 369T512 326L442 0H354L425 336Q434 381 434 402Q434 435 418 453T364
472Q330 472 291 449T218 372T165 231L116 0H28Z" />
<glyph unicode="i" glyph-name="i" horiz-adv-x="258" d="M213 625Q192 625 179 637T165 672Q165 698 180 717T224 736Q270 736 270 691Q270 660 252 643T213 625ZM28 0L142 536H230L116 0H28Z" />
<glyph unicode="j" glyph-name="j" horiz-adv-x="258" d="M212 625Q192 625 179 637T165 672Q165 698 180 717T224 736Q269 736 269 691Q269 660 251 643T212 625ZM-64 -240Q-101 -240 -126 -230V-156Q-114 -160 -99 -163T-68 -167Q-7 -167 14 -69L142 536H229L99
-77Q83 -152 47 -196T-64 -240Z" />
<glyph unicode="k" glyph-name="k" horiz-adv-x="495" d="M27 0L188 760H277L212 458Q195 378 183 335T165 277H167L421 536H525L295 306L438 0H341L228 251L156 194L116 0H27Z" />
<glyph unicode="l" glyph-name="l" horiz-adv-x="258" d="M27 0L189 760H277L115 0H27Z" />
<glyph unicode="m" glyph-name="m" horiz-adv-x="875" d="M28 0L142 536H214L203 437H208Q226 462 250 487T307 529T381 546Q436 546 465 515T501 427H505Q525 457 552 484T614 528T689 546Q751 546 785 512T819 414Q819 390 816 370T808 326L739 0H650L722 336Q727
359 729 375T731 406Q731 436 715 454T663 472Q631 472 595 448T527 374T478 242L427 0H339L410 336Q419 381 419 402Q419 435 404 453T354 472Q322 472 285 449T216 372T165 231L116 0H28Z" />
<glyph unicode="n" glyph-name="n" horiz-adv-x="579" d="M24 0L139 539H217L206 440H207Q226 465 251 490T311 532T388 549Q453 549 489 514T526 414Q526 391 523 367T515 325L444 0H350L422 337Q427 360 429 375T432 405Q432 469 364 469Q331 469 293 446T221
371T168 231L118 0H24Z" />
<glyph unicode="o" glyph-name="o" horiz-adv-x="563" d="M248 -8Q155 -8 102 47T48 198Q48 260 65 321T115 432T199 512T316 543Q410 543 463 488T516 336Q516 275 499 214T449 103T365 23T248 -8ZM253 65Q301 65 340 98T402 195T426 346Q426 376 416 404T381
451T317 470Q262 470 222 433T159 333T137 195Q137 133 167 99T253 65Z" />
<glyph unicode="p" glyph-name="p" horiz-adv-x="579" d="M-22 -240L142 536H214L202 436H206Q241 480 285 512T385 545Q450 545 490 499T530 362Q530 289 512 222T460 103T378 20T269 -10Q215 -10 182 17T132 82H127Q126 66 122 38T114 -9L65 -240H-22ZM262 63Q302
63 335 88T391 157T427 254T440 364Q440 472 355 472Q322 472 288 448T224 381T178 285T160 171Q160 123 185 93T262 63Z" />
<glyph unicode="q" glyph-name="q" horiz-adv-x="579" d="M346 -12Q351 7 359 40T375 99H371Q337 55 294 23T194 -10Q129 -10 89 36T48 173Q48 246 66 313T118 432T202 515T312 546Q365 546 397 518T446 453H451L484 536H550L385 -240H298L346 -12ZM223 63Q256
63 290 88T352 155T398 252T416 364Q416 408 393 440T318 472Q278 472 245 447T188 378T151 281T138 171Q138 63 223 63Z" />
<glyph unicode="r" glyph-name="r" horiz-adv-x="398" d="M28 0L142 536H214L203 437H208Q229 465 252 489T304 530T371 546Q385 546 400 545T429 539L410 460Q383 466 359 466Q309 466 270 433T205 349T168 245L116 0H28Z" />
<glyph unicode="s" glyph-name="s" horiz-adv-x="432" d="M155 -10Q106 -10 70 -1T5 24V105Q31 89 70 76T152 62Q211 62 242 85T273 146Q273 175 254 194T183 243Q126 275 97 309T68 394Q68 462 117 504T250 546Q299 546 340 535T412 509L384 439Q358 451 326
461T250 472Q207 472 182 452T156 399Q156 373 173 354T244 305Q278 285 305 265T347 219T363 155Q363 74 307 32T155 -10Z" />
<glyph unicode="t" glyph-name="t" horiz-adv-x="332" d="M185 -10Q131 -10 94 16T57 107Q57 139 66 178L127 469H44L52 509L142 547L204 658H256L229 536H364L350 469H216L154 177Q151 164 148 148T145 117Q145 94 157 78T198 62Q216 62 233 65T269 75V8Q257
2 232 -4T185 -10Z" />
<glyph unicode="u" glyph-name="u" horiz-adv-x="579" d="M189 -10Q128 -10 92 24T55 123Q55 146 58 166T66 209L136 536H225L153 199Q144 156 144 132Q144 100 160 82T214 63Q248 63 287 87T361 164T414 305L463 536H550L436 0H364L375 99H370Q351 75 326 50T267
7T189 -10Z" />
<glyph unicode="v" glyph-name="v" horiz-adv-x="467" d="M110 0L48 536H136L166 238Q169 212 171 177T175 112T177 67H180Q191 92 206 124T236 188T263 241L421 536H515L225 0H110Z" />
<glyph unicode="w" glyph-name="w" horiz-adv-x="723" d="M79 0L57 536H143L151 250Q153 195 151 151T147 77H151Q159 98 170 126T193 183T216 233L357 536H452L469 249Q470 212 471 164T470 77H474Q487 115 507 166T551 273L668 536H761L513 0H407L392 290Q390
330 390 367T391 451H387Q374 414 361 383T323 300L183 0H79Z" />
<glyph unicode="x" glyph-name="x" horiz-adv-x="483" d="M-37 0L195 276L79 536H168L251 338L408 536H510L287 272L410 0H321L230 208L65 0H-37Z" />
<glyph unicode="y" glyph-name="y" horiz-adv-x="467" d="M-25 -240Q-49 -240 -64 -237T-94 -230V-159Q-80 -163 -64 -165T-30 -168Q11 -168 39 -143T94 -70L129 -8L48 536H136L171 271Q176 239 178 201T182 128T184 72H187Q194 88 207 120T237 186T265 242L421
536H515L175 -90Q135 -165 91 -202T-25 -240Z" />
<glyph unicode="z" glyph-name="z" horiz-adv-x="445" d="M-15 0L-3 60L330 470H100L114 536H439L425 465L98 66H353L340 0H-15Z" />
<glyph unicode="{" glyph-name="braceleft" horiz-adv-x="350" d="M217 -158Q147 -158 110 -132T72 -48Q72 -32 75 -16T82 20L106 125Q109 141 111 154T113 179Q113 249 11 249L28 322Q86 322 121 343T166 415L199 572Q216 651 257 682T382 714H400L385 641Q341
641 316 626T280 564L245 408Q234 357 206 324T118 281V279Q157 269 175 242T193 175Q193 162 191 145T184 112L162 10Q159 -3 157 -14T155 -36Q155 -65 175 -75T230 -85V-158H217Z" />
<glyph unicode="|" glyph-name="bar" horiz-adv-x="551" d="M260 -241V760H332V-241H260Z" />
<glyph unicode="}" glyph-name="braceright" horiz-adv-x="350" d="M-37 -85Q11 -85 39 -70T77 -8L112 148Q123 199 152 231T239 274V277Q200 288 183 314T165 380Q165 394 167 410T174 443L197 546Q200 559 202 570T204 592Q204 621 181 631T117 641L132 714H138Q210
714 247 688T285 604Q285 588 283 572T275 536L251 430Q248 414 246 402T243 377Q243 307 345 307L329 234Q271 234 237 213T191 141L158 -16Q146 -72 123 -103T63 -146T-30 -158H-37V-85Z" />
<glyph unicode="~" glyph-name="asciitilde" horiz-adv-x="572" d="M289 319Q253 335 230 340T184 346Q156 346 125 329T70 287V365Q118 418 190 418Q219 418 247 412T322 386Q358 370 381 365T426 359Q455 359 486 376T541 418V341Q492 287 421 287Q393 287 364
293T289 319Z" />
<glyph unicode="&#xa0;" glyph-name="uni00A0" horiz-adv-x="260" />
<glyph unicode="&#xa1;" glyph-name="exclamdown" horiz-adv-x="261" d="M172 411Q120 411 120 463Q120 496 138 521T196 546Q219 546 232 532T245 492Q245 463 228 437T172 411ZM-10 -182L124 331H182L97 -182H-10Z" />
<glyph unicode="&#xa2;" glyph-name="cent" horiz-adv-x="551" d="M241 95Q180 111 144 159T107 288Q107 378 137 454T222 580T353 642L369 724H432L414 642Q475 637 521 618L496 545Q476 554 449 562T389 570Q332 570 289 532T221 429T197 289Q197 228 229 194T316
160Q351 160 382 170T444 194V119Q417 106 383 97T304 87L284 -10H220L241 95Z" />
<glyph unicode="&#xa3;" glyph-name="sterling" horiz-adv-x="551" d="M3 74Q47 84 81 116T129 214L151 316H53L67 382H165L200 549Q221 645 278 684T412 723Q465 723 506 711T578 681L544 612Q520 625 486 637T410 650Q370 650 335 628T285 537L252 382H430L416
316H238L216 215Q203 154 178 125T122 80H473L456 0H-11L3 74Z" />
<glyph unicode="&#xa4;" glyph-name="currency" horiz-adv-x="551" d="M398 201Q376 186 350 178T294 169Q265 169 238 178T189 202L127 140L81 187L143 249Q127 271 119 297T110 353Q110 410 143 457L80 520L127 568L189 505Q212 520 238 529T294 538Q323 538
349 529T398 505L461 568L509 521L446 458Q460 436 469 409T479 353Q479 323 470 297T446 248L508 186L461 139L398 201ZM294 236Q344 236 379 270T414 353Q414 403 379 437T294 472Q245 472 211 438T177 353Q177 304 211 270T294 236Z" />
<glyph unicode="&#xa5;" glyph-name="yen" horiz-adv-x="551" d="M174 0L201 128H60L75 195H215L231 272H90L105 339H214L115 714H201L285 356L520 714H616L358 339H469L455 272H312L296 195H439L425 128H283L255 0H174Z" />
<glyph unicode="&#xa6;" glyph-name="brokenbar" horiz-adv-x="551" d="M260 379V760H332V379H260ZM260 -241V140H332V-241H260Z" />
<glyph unicode="&#xa7;" glyph-name="section" horiz-adv-x="486" d="M173 -5Q123 -5 87 4T27 26V101Q53 87 92 75T173 62Q236 62 269 83T303 145Q303 168 282 186T206 230Q151 255 118 287T84 376Q84 433 118 468T198 525Q173 541 157 565T141 624Q141 683 190
724T330 765Q377 765 417 756T488 731L461 668Q428 682 396 690T330 698Q305 698 281 691T241 669T225 627Q225 601 247 584T321 543Q374 519 408 488T443 402Q443 351 412 312T331 247Q354 232 370 210T386 154Q386 84 333 40T173 -5ZM281 277Q313 294 338 323T363
390Q363 421 338 443T251 491Q220 481 191 454T162 386Q162 352 187 330T281 277Z" />
<glyph unicode="&#xa8;" glyph-name="dieresis" horiz-adv-x="554" d="M442 631Q424 631 412 642T400 673Q400 696 414 713T453 730Q473 730 483 719T493 690Q493 662 477 647T442 631ZM263 631Q244 631 232 642T220 673Q220 696 234 713T273 730Q294 730 303
719T313 690Q313 662 298 647T263 631Z" />
<glyph unicode="&#xa9;" glyph-name="copyright" horiz-adv-x="832" d="M416 -10Q336 -10 269 17T153 93T76 210T49 357Q49 437 76 504T152 620T269 697T416 724Q492 724 558 697T675 621T754 504T783 357Q783 277 756 210T680 94T563 17T416 -10ZM416 43Q480
43 536 66T635 131T702 231T726 357Q726 422 703 479T639 579T541 646T416 671Q326 671 256 631T145 520T105 357Q105 292 128 235T192 135T291 68T416 43ZM431 133Q332 133 283 194T234 357Q234 422 257 472T325 551T435 580Q500 580 558 550L529 489Q479 515
436 515Q377 515 345 473T312 357Q312 281 340 240T435 198Q458 198 486 204T540 221V157Q516 147 491 140T431 133Z" />
<glyph unicode="&#xaa;" glyph-name="ordfeminine" horiz-adv-x="339" d="M170 383Q133 383 108 411T82 495Q82 552 100 604T155 689T243 722Q275 722 292 707T318 672H322L340 716H385L316 389H269L276 445H273Q254 419 230 401T170 383ZM189 436Q217 436 237
453T272 497T293 553T300 607Q300 636 287 653T245 670Q213 670 190 645T154 582T141 502Q141 468 154 452T189 436Z" />
<glyph unicode="&#xab;" glyph-name="guillemotleft" horiz-adv-x="477" d="M154 54L42 271V284L234 471L277 428L133 268L215 80L154 54ZM344 54L239 251V265L420 466L467 428L329 251L405 80L344 54Z" />
<glyph unicode="&#xac;" glyph-name="logicalnot" horiz-adv-x="572" d="M540 388V128H469V317H70V388H540Z" />
<glyph unicode="&#xad;" glyph-name="uni00AD" horiz-adv-x="313" d="M26 227L44 308H280L262 227H26Z" />
<glyph unicode="&#xae;" glyph-name="registered" horiz-adv-x="832" d="M416 -10Q336 -10 269 17T153 93T76 210T49 357Q49 437 76 504T152 620T269 697T416 724Q492 724 558 697T675 621T754 504T783 357Q783 277 756 210T680 94T563 17T416 -10ZM416 43Q480
43 536 66T635 131T702 231T726 357Q726 422 703 479T639 579T541 646T416 671Q326 671 256 631T145 520T105 357Q105 292 128 235T192 135T291 68T416 43ZM279 138V575H407Q489 575 527 543T565 446Q565 399 541 372T487 332L603 138H517L417 311H355V138H279ZM405
373Q444 373 466 393T488 444Q488 479 468 495T404 511H355V373H405Z" />
<glyph unicode="&#xaf;" glyph-name="overscore" horiz-adv-x="393" d="M101 760L117 827H512L495 760H101Z" />
<glyph unicode="&#xb0;" glyph-name="degree" horiz-adv-x="428" d="M214 417Q142 417 99 459T55 570Q55 638 98 681T214 724Q285 724 329 681T373 570Q373 502 329 460T214 417ZM215 476Q263 476 285 502T308 570Q308 614 285 640T215 666Q166 666 143 640T120
570Q120 528 143 502T215 476Z" />
<glyph unicode="&#xb1;" glyph-name="plusminus" horiz-adv-x="572" d="M341 391H540V320H341V114H269V320H70V391H269V598H341V391ZM70 0V71H541V0H70Z" />
<glyph unicode="&#xb2;" glyph-name="uni00B2" horiz-adv-x="353" d="M71 416L83 471L212 581Q272 633 300 667T328 740Q328 765 314 780T271 795Q224 795 176 756L145 803Q176 828 209 840T283 853Q325 853 350 838T386 800T398 751Q398 718 387 690T348 632T275
564L171 477H362L349 416H71Z" />
<glyph unicode="&#xb3;" glyph-name="uni00B3" horiz-adv-x="353" d="M196 409Q163 409 134 416T81 436V501Q107 486 138 476T198 466Q248 466 272 488T297 547Q297 611 213 611H167L179 666H225Q271 666 299 685T327 739Q327 798 263 796Q237 795 215 787T171
763L143 811Q166 829 200 841T276 854Q336 854 366 826T396 753Q396 708 369 681T294 640V636Q329 628 347 604T366 545Q366 487 325 448T196 409Z" />
<glyph unicode="&#xb4;" glyph-name="acute" horiz-adv-x="263" d="M115 619Q133 638 153 664T193 717T227 766H327V756Q313 739 286 710T227 653T170 606H115V619Z" />
<glyph unicode="&#xb5;" glyph-name="uni00B5" horiz-adv-x="585" d="M-22 -240L142 536H230L159 199Q150 156 150 134Q150 100 166 82T220 63Q254 63 292 86T365 163T419 303L470 536H556L442 0H370L381 99H376Q357 74 332 49T274 7T199 -10Q144 -10 120 36H116Q114
22 110 -2T103 -49T96 -86L64 -240H-22Z" />
<glyph unicode="&#xb6;" glyph-name="paragraph" horiz-adv-x="655" d="M371 273Q341 264 300 264Q238 264 192 287T121 364T95 509Q95 605 122 659T199 737T315 760H589V-127H531V682H429V-127H371V273Z" />
<glyph unicode="&#xb7;" glyph-name="middot" horiz-adv-x="256" d="M133 285Q81 285 81 337Q81 370 99 395T158 420Q180 420 193 407T207 367Q207 336 189 311T133 285Z" />
<glyph unicode="&#xb8;" glyph-name="cedilla" horiz-adv-x="205" d="M-40 -240Q-67 -240 -85 -235V-183Q-75 -185 -66 -186T-49 -187Q33 -187 33 -134Q33 -112 15 -102T-34 -88L14 0H70L41 -57Q64 -64 84 -80T105 -134Q105 -179 68 -209T-40 -240Z" />
<glyph unicode="&#xb9;" glyph-name="uni00B9" horiz-adv-x="353" d="M243 666Q248 691 256 722T271 775Q263 768 252 758T228 738L176 704L148 751L290 843H352L261 415H190L243 666Z" />
<glyph unicode="&#xba;" glyph-name="ordmasculine" horiz-adv-x="339" d="M208 383Q156 383 121 415T86 514Q86 566 104 613T159 691T251 722Q314 722 342 686T371 594Q371 543 354 495T302 415T208 383ZM213 435Q247 435 269 457T302 516T313 591Q313 632 296
650T249 669Q214 669 191 648T157 591T145 516Q145 476 163 456T213 435Z" />
<glyph unicode="&#xbb;" glyph-name="guillemotright" horiz-adv-x="477" d="M243 54L200 97L344 256L262 445L323 471L435 253V239L243 54ZM57 60L10 97L148 272L72 445L133 471L238 273V258L57 60Z" />
<glyph unicode="&#xbc;" glyph-name="onequarter" horiz-adv-x="732" d="M86 0L616 714H695L165 0H86ZM212 537Q217 562 225 593T240 646Q232 639 221 629T197 609L145 575L117 622L259 714H321L230 286H159L212 537ZM536 1L556 98H378L389 150L624 432H695L636
157H697L686 98H623L603 1H536ZM461 157H569L589 249Q595 275 600 298T612 346Q608 339 599 326T578 298T559 275L461 157Z" />
<glyph unicode="&#xbd;" glyph-name="onehalf" horiz-adv-x="805" d="M88 0L618 714H697L167 0H88ZM212 537Q217 562 225 593T240 646Q232 639 221 629T197 609L145 575L117 622L259 714H321L230 286H159L212 537ZM435 1L447 56L576 166Q636 218 664 252T692 325Q692
350 678 365T635 380Q588 380 540 341L509 388Q540 413 573 425T647 438Q689 438 714 423T750 385T762 336Q762 303 751 275T712 217T639 149L535 62H726L713 1H435Z" />
<glyph unicode="&#xbe;" glyph-name="threequarters" horiz-adv-x="793" d="M170 279Q137 279 108 286T55 306V371Q81 356 112 346T172 336Q222 336 246 358T271 417Q271 481 187 481H141L153 536H199Q245 536 273 555T301 609Q301 668 237 666Q211 665 189 657T145
633L117 681Q140 699 174 711T250 724Q310 724 340 696T370 623Q370 578 343 551T268 510V506Q303 498 321 474T340 415Q340 357 299 318T170 279ZM150 0L680 714H759L229 0H150ZM597 0L617 97H439L450 149L685 431H756L697 156H758L747 97H684L664 0H597ZM522
156H630L650 248Q656 274 661 297T673 345Q669 338 660 325T639 297T620 274L522 156Z" />
<glyph unicode="&#xbf;" glyph-name="questiondown" horiz-adv-x="430" d="M304 545Q356 545 356 493Q356 460 338 435T279 410Q257 410 244 423T230 463Q230 494 248 519T304 545ZM306 330Q299 287 286 255T249 196T189 140Q157 116 130 93T85 41T68 -25Q68 -68
92 -92T162 -117Q200 -117 236 -105T306 -76L338 -143Q298 -165 249 -179T152 -193Q73 -193 26 -154T-21 -36Q-21 32 15 81T122 183Q161 212 182 231T215 273T235 330H306Z" />
<glyph unicode="&#xc0;" glyph-name="Agrave" horiz-adv-x="562" d="M-57 0L331 714H425L513 0H425L398 222H157L41 0H-57ZM200 302H389L373 452Q369 490 366 536T361 617H358Q342 579 321 536T277 448L200 302ZM394 784Q375 803 354 830T313 885T284 934V944H378Q389
907 408 869T448 796V784H394Z" />
<glyph unicode="&#xc1;" glyph-name="Aacute" horiz-adv-x="562" d="M-57 0L331 714H425L513 0H425L398 222H157L41 0H-57ZM200 302H389L373 452Q369 490 366 536T361 617H358Q342 579 321 536T277 448L200 302ZM338 797Q356 816 376 842T416 895T450 944H550V934Q536
917 509 888T450 831T393 784H338V797Z" />
<glyph unicode="&#xc2;" glyph-name="Acircumflex" horiz-adv-x="562" d="M-57 0L331 714H425L513 0H425L398 222H157L41 0H-57ZM200 302H389L373 452Q369 490 366 536T361 617H358Q342 579 321 536T277 448L200 302ZM227 797Q244 813 272 839T326 893T367 944H452Q467
905 492 866T536 797V784H481Q463 800 443 824T402 875Q372 848 342 825T285 784H227V797Z" />
<glyph unicode="&#xc3;" glyph-name="Atilde" horiz-adv-x="562" d="M-57 0L331 714H425L513 0H425L398 222H157L41 0H-57ZM200 302H389L373 452Q369 490 366 536T361 617H358Q342 579 321 536T277 448L200 302ZM221 784Q235 846 264 879T336 912Q365 912 390
899T436 871T474 857Q496 857 508 870T532 913H585Q569 851 540 818T468 785Q442 785 418 799T373 826T329 840Q308 840 296 826T273 784H221Z" />
<glyph unicode="&#xc4;" glyph-name="Adieresis" horiz-adv-x="562" d="M-57 0L331 714H425L513 0H425L398 222H157L41 0H-57ZM200 302H389L373 452Q369 490 366 536T361 617H358Q342 579 321 536T277 448L200 302ZM487 809Q469 809 457 820T445 851Q445 874 459
891T498 908Q518 908 528 897T538 868Q538 840 522 825T487 809ZM308 809Q289 809 277 820T265 851Q265 874 279 891T318 908Q339 908 348 897T358 868Q358 840 343 825T308 809Z" />
<glyph unicode="&#xc5;" glyph-name="Aring" horiz-adv-x="562" d="M-57 0L331 714H425L513 0H425L398 222H157L41 0H-57ZM200 302H389L373 452Q369 490 366 536T361 617H358Q342 579 321 536T277 448L200 302ZM396 784Q348 784 318 811T288 889Q288 939 320 966T396
993Q444 993 474 966T505 890Q505 839 474 812T396 784ZM396 834Q421 834 436 849T452 889Q452 915 437 929T396 944Q373 944 357 930T341 889Q341 864 355 849T396 834Z" />
<glyph unicode="&#xc6;" glyph-name="AE" horiz-adv-x="824" d="M-58 0L399 714H864L848 635H574L526 412H782L767 334H511L457 79H730L713 0H350L397 222H183L44 0H-58ZM234 302H413L484 635H443L234 302Z" />
<glyph unicode="&#xc7;" glyph-name="Ccedilla" horiz-adv-x="587" d="M326 -10Q207 -10 140 63T72 263Q72 327 87 393T132 518T209 623T318 697T458 724Q558 724 632 684L596 610Q569 624 536 634T458 645Q383 645 329 612T238 523T185 400T167 265Q167 174 213
122T342 69Q383 69 422 77T500 98V20Q461 6 422 -2T326 -10ZM234 -240Q207 -240 189 -235V-183Q199 -185 208 -186T225 -187Q307 -187 307 -134Q307 -112 289 -102T240 -88L288 0H344L315 -57Q338 -64 358 -80T379 -134Q379 -179 342 -209T234 -240Z" />
<glyph unicode="&#xc8;" glyph-name="Egrave" horiz-adv-x="514" d="M41 0L192 714H554L537 635H264L217 412H472L457 334H201L146 79H420L403 0H41ZM388 784Q369 803 348 830T307 885T278 934V944H372Q383 907 402 869T442 796V784H388Z" />
<glyph unicode="&#xc9;" glyph-name="Eacute" horiz-adv-x="514" d="M41 0L192 714H554L537 635H264L217 412H472L457 334H201L146 79H420L403 0H41ZM332 797Q350 816 370 842T410 895T444 944H544V934Q530 917 503 888T444 831T387 784H332V797Z" />
<glyph unicode="&#xca;" glyph-name="Ecircumflex" horiz-adv-x="514" d="M41 0L192 714H554L537 635H264L217 412H472L457 334H201L146 79H420L403 0H41ZM221 797Q238 813 266 839T320 893T361 944H446Q461 905 486 866T530 797V784H475Q457 800 437 824T396
875Q366 848 336 825T279 784H221V797Z" />
<glyph unicode="&#xcb;" glyph-name="Edieresis" horiz-adv-x="514" d="M41 0L192 714H554L537 635H264L217 412H472L457 334H201L146 79H420L403 0H41ZM481 809Q463 809 451 820T439 851Q439 874 453 891T492 908Q512 908 522 897T532 868Q532 840 516 825T481
809ZM302 809Q283 809 271 820T259 851Q259 874 273 891T312 908Q333 908 342 897T352 868Q352 840 337 825T302 809Z" />
<glyph unicode="&#xcc;" glyph-name="Igrave" horiz-adv-x="324" d="M-20 0L-10 49L75 69L197 645L121 664L131 714H381L371 664L285 645L163 69L240 49L230 0H-20ZM275 784Q256 803 235 830T194 885T165 934V944H259Q270 907 289 869T329 796V784H275Z" />
<glyph unicode="&#xcd;" glyph-name="Iacute" horiz-adv-x="324" d="M-20 0L-10 49L75 69L197 645L121 664L131 714H381L371 664L285 645L163 69L240 49L230 0H-20ZM219 797Q237 816 257 842T297 895T331 944H431V934Q417 917 390 888T331 831T274 784H219V797Z" />
<glyph unicode="&#xce;" glyph-name="Icircumflex" horiz-adv-x="324" d="M-20 0L-10 49L75 69L197 645L121 664L131 714H381L371 664L285 645L163 69L240 49L230 0H-20ZM108 797Q125 813 153 839T207 893T248 944H333Q348 905 373 866T417 797V784H362Q344 800
324 824T283 875Q253 848 223 825T166 784H108V797Z" />
<glyph unicode="&#xcf;" glyph-name="Idieresis" horiz-adv-x="324" d="M-20 0L-10 49L75 69L197 645L121 664L131 714H381L371 664L285 645L163 69L240 49L230 0H-20ZM368 809Q350 809 338 820T326 851Q326 874 340 891T379 908Q399 908 409 897T419 868Q419
840 403 825T368 809ZM189 809Q170 809 158 820T146 851Q146 874 160 891T199 908Q220 908 229 897T239 868Q239 840 224 825T189 809Z" />
<glyph unicode="&#xd0;" glyph-name="Eth" horiz-adv-x="667" d="M41 0L108 315H33L50 392H124L192 714H361Q490 714 563 644T636 429Q636 305 588 208T446 56T217 0H41ZM222 77Q326 77 397 124T505 251T542 430Q542 540 490 588T350 637H265L213 392H370L353
315H197L146 77H222Z" />
<glyph unicode="&#xd1;" glyph-name="Ntilde" horiz-adv-x="707" d="M40 0L191 714H286L505 124H508Q513 160 522 215T543 321L627 714H712L561 0H466L245 592H242Q240 571 235 537T222 464T206 388L124 0H40ZM299 784Q313 846 342 879T414 912Q443 912 468 899T514
871T552 857Q574 857 586 870T610 913H663Q647 851 618 818T546 785Q520 785 496 799T451 826T407 840Q386 840 374 826T351 784H299Z" />
<glyph unicode="&#xd2;" glyph-name="Ograve" horiz-adv-x="721" d="M337 -10Q209 -10 141 64T72 267Q72 359 96 442T168 588T282 688T433 725Q555 725 622 650T690 444Q690 351 668 269T601 125T490 26T337 -10ZM340 69Q400 69 447 99T527 181T577 302T595 446Q595
541 550 593T427 646Q367 646 319 617T237 536T185 416T167 269Q167 175 213 122T340 69ZM474 784Q455 803 434 830T393 885T364 934V944H458Q469 907 488 869T528 796V784H474Z" />
<glyph unicode="&#xd3;" glyph-name="Oacute" horiz-adv-x="721" d="M337 -10Q209 -10 141 64T72 267Q72 359 96 442T168 588T282 688T433 725Q555 725 622 650T690 444Q690 351 668 269T601 125T490 26T337 -10ZM340 69Q400 69 447 99T527 181T577 302T595 446Q595
541 550 593T427 646Q367 646 319 617T237 536T185 416T167 269Q167 175 213 122T340 69ZM418 797Q436 816 456 842T496 895T530 944H630V934Q616 917 589 888T530 831T473 784H418V797Z" />
<glyph unicode="&#xd4;" glyph-name="Ocircumflex" horiz-adv-x="721" d="M337 -10Q209 -10 141 64T72 267Q72 359 96 442T168 588T282 688T433 725Q555 725 622 650T690 444Q690 351 668 269T601 125T490 26T337 -10ZM340 69Q400 69 447 99T527 181T577 302T595
446Q595 541 550 593T427 646Q367 646 319 617T237 536T185 416T167 269Q167 175 213 122T340 69ZM307 797Q324 813 352 839T406 893T447 944H532Q547 905 572 866T616 797V784H561Q543 800 523 824T482 875Q452 848 422 825T365 784H307V797Z" />
<glyph unicode="&#xd5;" glyph-name="Otilde" horiz-adv-x="721" d="M337 -10Q209 -10 141 64T72 267Q72 359 96 442T168 588T282 688T433 725Q555 725 622 650T690 444Q690 351 668 269T601 125T490 26T337 -10ZM340 69Q400 69 447 99T527 181T577 302T595 446Q595
541 550 593T427 646Q367 646 319 617T237 536T185 416T167 269Q167 175 213 122T340 69ZM301 784Q315 846 344 879T416 912Q445 912 470 899T516 871T554 857Q576 857 588 870T612 913H665Q649 851 620 818T548 785Q522 785 498 799T453 826T409 840Q388 840 376
826T353 784H301Z" />
<glyph unicode="&#xd6;" glyph-name="Odieresis" horiz-adv-x="721" d="M337 -10Q209 -10 141 64T72 267Q72 359 96 442T168 588T282 688T433 725Q555 725 622 650T690 444Q690 351 668 269T601 125T490 26T337 -10ZM340 69Q400 69 447 99T527 181T577 302T595
446Q595 541 550 593T427 646Q367 646 319 617T237 536T185 416T167 269Q167 175 213 122T340 69ZM572 809Q554 809 542 820T530 851Q530 874 544 891T583 908Q603 908 613 897T623 868Q623 840 607 825T572 809ZM393 809Q374 809 362 820T350 851Q350 874 364
891T403 908Q424 908 433 897T443 868Q443 840 428 825T393 809Z" />
<glyph unicode="&#xd7;" glyph-name="multiply" horiz-adv-x="572" d="M476 574L526 523L356 353L525 183L475 132L304 301L137 132L85 183L254 353L84 522L136 574L305 403L476 574Z" />
<glyph unicode="&#xd8;" glyph-name="Oslash" horiz-adv-x="721" d="M114 -41L57 5L123 87Q97 122 85 168T72 267Q72 359 96 442T168 588T282 688T433 725Q526 725 593 673L656 752L714 706L642 618Q665 587 677 542T690 444Q690 351 668 269T601 125T490 26T337
-10Q241 -10 176 36L114 -41ZM538 606Q517 626 490 636T427 647Q367 647 319 618T237 536T184 416T166 269Q166 208 185 164L538 606ZM340 69Q400 69 447 99T528 181T578 302T596 446Q596 473 592 497T581 540L229 103Q249 87 277 78T340 69Z" />
<glyph unicode="&#xd9;" glyph-name="Ugrave" horiz-adv-x="677" d="M300 -10Q188 -10 134 41T79 188Q79 205 82 230T91 283L183 714H272L179 278Q174 255 171 230T168 189Q168 133 202 101T305 69Q394 69 437 115T500 250L599 714H688L588 243Q572 165 538 108T445
21T300 -10ZM452 784Q433 803 412 830T371 885T342 934V944H436Q447 907 466 869T506 796V784H452Z" />
<glyph unicode="&#xda;" glyph-name="Uacute" horiz-adv-x="677" d="M300 -10Q188 -10 134 41T79 188Q79 205 82 230T91 283L183 714H272L179 278Q174 255 171 230T168 189Q168 133 202 101T305 69Q394 69 437 115T500 250L599 714H688L588 243Q572 165 538 108T445
21T300 -10ZM396 797Q414 816 434 842T474 895T508 944H608V934Q594 917 567 888T508 831T451 784H396V797Z" />
<glyph unicode="&#xdb;" glyph-name="Ucircumflex" horiz-adv-x="677" d="M300 -10Q188 -10 134 41T79 188Q79 205 82 230T91 283L183 714H272L179 278Q174 255 171 230T168 189Q168 133 202 101T305 69Q394 69 437 115T500 250L599 714H688L588 243Q572 165 538
108T445 21T300 -10ZM285 797Q302 813 330 839T384 893T425 944H510Q525 905 550 866T594 797V784H539Q521 800 501 824T460 875Q430 848 400 825T343 784H285V797Z" />
<glyph unicode="&#xdc;" glyph-name="Udieresis" horiz-adv-x="677" d="M300 -10Q188 -10 134 41T79 188Q79 205 82 230T91 283L183 714H272L179 278Q174 255 171 230T168 189Q168 133 202 101T305 69Q394 69 437 115T500 250L599 714H688L588 243Q572 165 538
108T445 21T300 -10ZM550 809Q532 809 520 820T508 851Q508 874 522 891T561 908Q581 908 591 897T601 868Q601 840 585 825T550 809ZM371 809Q352 809 340 820T328 851Q328 874 342 891T381 908Q402 908 411 897T421 868Q421 840 406 825T371 809Z" />
<glyph unicode="&#xdd;" glyph-name="Yacute" horiz-adv-x="509" d="M150 0L208 268L92 714H181L266 356L500 714H601L295 265L240 0H150ZM312 797Q330 816 350 842T390 895T424 944H524V934Q510 917 483 888T424 831T367 784H312V797Z" />
<glyph unicode="&#xde;" glyph-name="Thorn" horiz-adv-x="567" d="M41 0L192 714H281L255 590H327Q442 590 492 539T542 404Q542 283 462 219T226 155H163L130 0H41ZM241 231Q336 231 393 272T450 401Q450 461 417 487T315 513H238L178 231H241Z" />
<glyph unicode="&#xdf;" glyph-name="germandbls" horiz-adv-x="584" d="M-64 -240Q-100 -240 -125 -230V-155Q-100 -166 -71 -166Q-39 -166 -19 -143T13 -68L149 570Q170 668 226 716T379 765Q457 765 504 731T551 632Q551 580 521 545T454 482Q423 459 397 437T371
388Q371 373 382 360T409 335T434 316Q472 284 495 252T518 173Q518 109 490 69T417 9T319 -10Q274 -10 241 -1T187 25V106Q208 90 241 76T308 62Q368 62 398 91T428 163Q428 196 413 217T363 266Q321 298 303 325T285 383Q285 417 299 441T335 484T380 519Q413
542 439 566T465 626Q465 658 439 675T371 693Q313 693 281 662T236 570L103 -62Q85 -145 48 -192T-64 -240Z" />
<glyph unicode="&#xe0;" glyph-name="agrave" horiz-adv-x="568" d="M193 -10Q129 -10 89 36T48 173Q48 248 67 315T122 434T205 516T311 546Q364 546 397 518T446 453H451L483 536H550L436 0H366L379 99H375Q341 55 295 23T193 -10ZM222 63Q259 63 294 90T359
163T403 266Q411 295 413 319T416 365Q416 412 390 442T320 472Q281 472 248 448T190 381T152 284T138 171Q138 117 160 90T222 63ZM359 606Q340 625 319 652T278 707T249 756V766H343Q354 729 373 691T413 618V606H359Z" />
<glyph unicode="&#xe1;" glyph-name="aacute" horiz-adv-x="568" d="M193 -10Q129 -10 89 36T48 173Q48 248 67 315T122 434T205 516T311 546Q364 546 397 518T446 453H451L483 536H550L436 0H366L379 99H375Q341 55 295 23T193 -10ZM222 63Q259 63 294 90T359
163T403 266Q411 295 413 319T416 365Q416 412 390 442T320 472Q281 472 248 448T190 381T152 284T138 171Q138 117 160 90T222 63ZM303 619Q321 638 341 664T381 717T415 766H515V756Q501 739 474 710T415 653T358 606H303V619Z" />
<glyph unicode="&#xe2;" glyph-name="acircumflex" horiz-adv-x="568" d="M193 -10Q129 -10 89 36T48 173Q48 248 67 315T122 434T205 516T311 546Q364 546 397 518T446 453H451L483 536H550L436 0H366L379 99H375Q341 55 295 23T193 -10ZM222 63Q259 63 294 90T359
163T403 266Q411 295 413 319T416 365Q416 412 390 442T320 472Q281 472 248 448T190 381T152 284T138 171Q138 117 160 90T222 63ZM192 619Q209 635 237 661T291 715T332 766H417Q432 727 457 688T501 619V606H446Q428 622 408 646T367 697Q337 670 307 647T250
606H192V619Z" />
<glyph unicode="&#xe3;" glyph-name="atilde" horiz-adv-x="568" d="M193 -10Q129 -10 89 36T48 173Q48 248 67 315T122 434T205 516T311 546Q364 546 397 518T446 453H451L483 536H550L436 0H366L379 99H375Q341 55 295 23T193 -10ZM222 63Q259 63 294 90T359
163T403 266Q411 295 413 319T416 365Q416 412 390 442T320 472Q281 472 248 448T190 381T152 284T138 171Q138 117 160 90T222 63ZM186 606Q200 668 229 701T301 734Q330 734 355 721T401 693T439 679Q461 679 473 692T497 735H550Q534 673 505 640T433 607Q407
607 383 621T338 648T294 662Q273 662 261 648T238 606H186Z" />
<glyph unicode="&#xe4;" glyph-name="adieresis" horiz-adv-x="568" d="M193 -10Q129 -10 89 36T48 173Q48 248 67 315T122 434T205 516T311 546Q364 546 397 518T446 453H451L483 536H550L436 0H366L379 99H375Q341 55 295 23T193 -10ZM222 63Q259 63 294 90T359
163T403 266Q411 295 413 319T416 365Q416 412 390 442T320 472Q281 472 248 448T190 381T152 284T138 171Q138 117 160 90T222 63ZM452 631Q434 631 422 642T410 673Q410 696 424 713T463 730Q483 730 493 719T503 690Q503 662 487 647T452 631ZM273 631Q254 631
242 642T230 673Q230 696 244 713T283 730Q304 730 313 719T323 690Q323 662 308 647T273 631Z" />
<glyph unicode="&#xe5;" glyph-name="aring" horiz-adv-x="568" d="M193 -10Q129 -10 89 36T48 173Q48 248 67 315T122 434T205 516T311 546Q364 546 397 518T446 453H451L483 536H550L436 0H366L379 99H375Q341 55 295 23T193 -10ZM222 63Q259 63 294 90T359
163T403 266Q411 295 413 319T416 365Q416 412 390 442T320 472Q281 472 248 448T190 381T152 284T138 171Q138 117 160 90T222 63ZM361 606Q313 606 283 633T253 711Q253 761 285 788T361 815Q409 815 439 788T470 712Q470 661 439 634T361 606ZM361 656Q386 656
401 671T417 711Q417 737 402 751T361 766Q338 766 322 752T306 711Q306 686 320 671T361 656Z" />
<glyph unicode="&#xe6;" glyph-name="ae" horiz-adv-x="820" d="M177 -10Q119 -10 84 37T48 172Q48 248 67 315T121 435T202 516T303 546Q351 546 380 519T425 453H430L463 536H519L505 467Q531 502 571 524T665 546Q718 546 758 516T798 421Q798 369 766 326T665
258T486 232H466Q465 223 465 213T464 195Q464 134 494 99T587 63Q624 63 658 75T732 104V27Q692 9 654 0T571 -10Q519 -10 479 9T419 66L405 0H346L358 99H354Q314 50 274 20T177 -10ZM488 303Q548 303 599 313T680 348T711 412Q711 444 693 458T648 473Q593 473
548 429T479 303H488ZM206 63Q242 63 276 90T339 163T383 267Q391 295 393 319T396 365Q396 412 375 442T315 472Q278 472 246 448T190 381T152 285T138 172Q138 117 156 90T206 63Z" />
<glyph unicode="&#xe7;" glyph-name="ccedilla" horiz-adv-x="453" d="M247 -10Q158 -10 103 40T48 190Q48 262 67 326T123 440T212 517T328 546Q363 546 398 539T461 520L436 447Q416 456 389 464T329 472Q272 472 229 434T162 331T138 191Q138 130 169 97T256
63Q291 63 322 73T385 96V22Q357 8 323 -1T247 -10ZM138 -240Q111 -240 93 -235V-183Q103 -185 112 -186T129 -187Q211 -187 211 -134Q211 -112 193 -102T144 -88L192 0H248L219 -57Q242 -64 262 -80T283 -134Q283 -179 246 -209T138 -240Z" />
<glyph unicode="&#xe8;" glyph-name="egrave" horiz-adv-x="499" d="M242 -10Q149 -10 99 44T48 192Q48 256 66 318T120 432T204 515T316 546Q392 546 430 513T469 421Q469 369 437 326T335 258T156 232H139Q138 223 138 213T137 195Q137 134 167 99T258 63Q296
63 330 74T404 104V29Q366 12 330 1T242 -10ZM159 303Q219 303 270 313T352 348T383 414Q383 440 366 456T311 473Q263 473 219 429T152 303H159ZM332 606Q313 625 292 652T251 707T222 756V766H316Q327 729 346 691T386 618V606H332Z" />
<glyph unicode="&#xe9;" glyph-name="eacute" horiz-adv-x="499" d="M242 -10Q149 -10 99 44T48 192Q48 256 66 318T120 432T204 515T316 546Q392 546 430 513T469 421Q469 369 437 326T335 258T156 232H139Q138 223 138 213T137 195Q137 134 167 99T258 63Q296
63 330 74T404 104V29Q366 12 330 1T242 -10ZM159 303Q219 303 270 313T352 348T383 414Q383 440 366 456T311 473Q263 473 219 429T152 303H159ZM276 619Q294 638 314 664T354 717T388 766H488V756Q474 739 447 710T388 653T331 606H276V619Z" />
<glyph unicode="&#xea;" glyph-name="ecircumflex" horiz-adv-x="499" d="M242 -10Q149 -10 99 44T48 192Q48 256 66 318T120 432T204 515T316 546Q392 546 430 513T469 421Q469 369 437 326T335 258T156 232H139Q138 223 138 213T137 195Q137 134 167 99T258
63Q296 63 330 74T404 104V29Q366 12 330 1T242 -10ZM159 303Q219 303 270 313T352 348T383 414Q383 440 366 456T311 473Q263 473 219 429T152 303H159ZM165 619Q182 635 210 661T264 715T305 766H390Q405 727 430 688T474 619V606H419Q401 622 381 646T340 697Q310
670 280 647T223 606H165V619Z" />
<glyph unicode="&#xeb;" glyph-name="edieresis" horiz-adv-x="499" d="M242 -10Q149 -10 99 44T48 192Q48 256 66 318T120 432T204 515T316 546Q392 546 430 513T469 421Q469 369 437 326T335 258T156 232H139Q138 223 138 213T137 195Q137 134 167 99T258 63Q296
63 330 74T404 104V29Q366 12 330 1T242 -10ZM159 303Q219 303 270 313T352 348T383 414Q383 440 366 456T311 473Q263 473 219 429T152 303H159ZM681 631Q663 631 651 642T639 673Q639 696 653 713T692 730Q712 730 722 719T732 690Q732 662 716 647T681 631ZM502
631Q483 631 471 642T459 673Q459 696 473 713T512 730Q533 730 542 719T552 690Q552 662 537 647T502 631Z" />
<glyph unicode="&#xec;" glyph-name="igrave" horiz-adv-x="258" d="M28 0L142 536H230L116 0H28ZM460 606Q441 625 420 652T379 707T350 756V766H444Q455 729 474 691T514 618V606H460Z" />
<glyph unicode="&#xed;" glyph-name="iacute" horiz-adv-x="258" d="M28 0L142 536H230L116 0H28ZM148 619Q166 638 186 664T226 717T260 766H360V756Q346 739 319 710T260 653T203 606H148V619Z" />
<glyph unicode="&#xee;" glyph-name="icircumflex" horiz-adv-x="258" d="M28 0L142 536H230L116 0H28ZM293 619Q310 635 338 661T392 715T433 766H518Q533 727 558 688T602 619V606H547Q529 622 509 646T468 697Q438 670 408 647T351 606H293V619Z" />
<glyph unicode="&#xef;" glyph-name="idieresis" horiz-adv-x="258" d="M28 0L142 536H230L116 0H28ZM297 631Q279 631 267 642T255 673Q255 696 269 713T308 730Q328 730 338 719T348 690Q348 662 332 647T297 631ZM118 631Q99 631 87 642T75 673Q75 696 89 713T128
730Q149 730 158 719T168 690Q168 662 153 647T118 631Z" />
<glyph unicode="&#xf0;" glyph-name="eth" horiz-adv-x="570" d="M235 -10Q146 -10 95 40T43 183Q43 260 74 326T163 432T298 473Q356 473 390 449T439 392L442 393Q443 449 429 501T372 606L242 534L213 588L327 651Q312 665 295 678T257 705L304 765Q327 749
351 732T398 691L524 761L556 708L441 644Q476 599 498 540T521 398Q521 326 507 254T459 122T371 26T235 -10ZM240 63Q290 63 324 85T378 143T408 215T417 280Q417 309 406 337T370 383T302 401Q242 401 205 369T151 287T133 184Q133 132 157 98T240 63Z" />
<glyph unicode="&#xf1;" glyph-name="ntilde" horiz-adv-x="579" d="M24 0L139 539H217L206 440H207Q226 465 251 490T311 532T388 549Q453 549 489 514T526 414Q526 391 523 367T515 325L444 0H350L422 337Q427 360 429 375T432 405Q432 469 364 469Q331 469
293 446T221 371T168 231L118 0H24ZM194 606Q208 668 237 701T309 734Q338 734 363 721T409 693T447 679Q469 679 481 692T505 735H558Q542 673 513 640T441 607Q415 607 391 621T346 648T302 662Q281 662 269 648T246 606H194Z" />
<glyph unicode="&#xf2;" glyph-name="ograve" horiz-adv-x="563" d="M248 -8Q155 -8 102 47T48 198Q48 260 65 321T115 432T199 512T316 543Q410 543 463 488T516 336Q516 275 499 214T449 103T365 23T248 -8ZM253 65Q301 65 340 98T402 195T426 346Q426 376 416
404T381 451T317 470Q262 470 222 433T159 333T137 195Q137 133 167 99T253 65ZM340 606Q321 625 300 652T259 707T230 756V766H324Q335 729 354 691T394 618V606H340Z" />
<glyph unicode="&#xf3;" glyph-name="oacute" horiz-adv-x="563" d="M248 -8Q155 -8 102 47T48 198Q48 260 65 321T115 432T199 512T316 543Q410 543 463 488T516 336Q516 275 499 214T449 103T365 23T248 -8ZM253 65Q301 65 340 98T402 195T426 346Q426 376 416
404T381 451T317 470Q262 470 222 433T159 333T137 195Q137 133 167 99T253 65ZM284 619Q302 638 322 664T362 717T396 766H496V756Q482 739 455 710T396 653T339 606H284V619Z" />
<glyph unicode="&#xf4;" glyph-name="ocircumflex" horiz-adv-x="563" d="M248 -8Q155 -8 102 47T48 198Q48 260 65 321T115 432T199 512T316 543Q410 543 463 488T516 336Q516 275 499 214T449 103T365 23T248 -8ZM253 65Q301 65 340 98T402 195T426 346Q426
376 416 404T381 451T317 470Q262 470 222 433T159 333T137 195Q137 133 167 99T253 65ZM173 619Q190 635 218 661T272 715T313 766H398Q413 727 438 688T482 619V606H427Q409 622 389 646T348 697Q318 670 288 647T231 606H173V619Z" />
<glyph unicode="&#xf5;" glyph-name="otilde" horiz-adv-x="563" d="M248 -8Q155 -8 102 47T48 198Q48 260 65 321T115 432T199 512T316 543Q410 543 463 488T516 336Q516 275 499 214T449 103T365 23T248 -8ZM253 65Q301 65 340 98T402 195T426 346Q426 376 416
404T381 451T317 470Q262 470 222 433T159 333T137 195Q137 133 167 99T253 65ZM167 606Q181 668 210 701T282 734Q311 734 336 721T382 693T420 679Q442 679 454 692T478 735H531Q515 673 486 640T414 607Q388 607 364 621T319 648T275 662Q254 662 242 648T219
606H167Z" />
<glyph unicode="&#xf6;" glyph-name="odieresis" horiz-adv-x="563" d="M248 -8Q155 -8 102 47T48 198Q48 260 65 321T115 432T199 512T316 543Q410 543 463 488T516 336Q516 275 499 214T449 103T365 23T248 -8ZM253 65Q301 65 340 98T402 195T426 346Q426 376
416 404T381 451T317 470Q262 470 222 433T159 333T137 195Q137 133 167 99T253 65ZM689 631Q671 631 659 642T647 673Q647 696 661 713T700 730Q720 730 730 719T740 690Q740 662 724 647T689 631ZM510 631Q491 631 479 642T467 673Q467 696 481 713T520 730Q541
730 550 719T560 690Q560 662 545 647T510 631Z" />
<glyph unicode="&#xf7;" glyph-name="divide" horiz-adv-x="572" d="M305 462Q282 462 266 476T249 523Q249 557 265 570T305 583Q328 583 344 570T360 523Q360 491 344 477T305 462ZM70 317V388H541V317H70ZM305 121Q282 121 266 135T249 182Q249 216 265 229T305
242Q328 242 344 229T360 182Q360 150 344 136T305 121Z" />
<glyph unicode="&#xf8;" glyph-name="oslash" horiz-adv-x="563" d="M82 -38L29 3L83 70Q49 120 49 198Q49 260 66 321T116 432T200 512T316 543Q389 543 438 511L487 572L540 532L484 470Q500 446 507 412T514 344Q514 283 498 221T448 107T365 24T249 -8Q180
-8 130 23L82 -38ZM388 449Q377 458 360 464T317 471Q262 471 221 434T157 336T134 204Q134 162 142 143L388 449ZM253 63Q301 63 341 96T405 190T429 335Q429 352 428 366T423 388L179 84Q193 74 212 69T253 63Z" />
<glyph unicode="&#xf9;" glyph-name="ugrave" horiz-adv-x="579" d="M189 -10Q128 -10 92 24T55 123Q55 146 58 166T66 209L136 536H225L153 199Q144 156 144 132Q144 100 160 82T214 63Q248 63 287 87T361 164T414 305L463 536H550L436 0H364L375 99H370Q351
75 326 50T267 7T189 -10ZM365 606Q346 625 325 652T284 707T255 756V766H349Q360 729 379 691T419 618V606H365Z" />
<glyph unicode="&#xfa;" glyph-name="uacute" horiz-adv-x="579" d="M189 -10Q128 -10 92 24T55 123Q55 146 58 166T66 209L136 536H225L153 199Q144 156 144 132Q144 100 160 82T214 63Q248 63 287 87T361 164T414 305L463 536H550L436 0H364L375 99H370Q351
75 326 50T267 7T189 -10ZM309 619Q327 638 347 664T387 717T421 766H521V756Q507 739 480 710T421 653T364 606H309V619Z" />
<glyph unicode="&#xfb;" glyph-name="ucircumflex" horiz-adv-x="579" d="M189 -10Q128 -10 92 24T55 123Q55 146 58 166T66 209L136 536H225L153 199Q144 156 144 132Q144 100 160 82T214 63Q248 63 287 87T361 164T414 305L463 536H550L436 0H364L375 99H370Q351
75 326 50T267 7T189 -10ZM198 619Q215 635 243 661T297 715T338 766H423Q438 727 463 688T507 619V606H452Q434 622 414 646T373 697Q343 670 313 647T256 606H198V619Z" />
<glyph unicode="&#xfc;" glyph-name="udieresis" horiz-adv-x="579" d="M189 -10Q128 -10 92 24T55 123Q55 146 58 166T66 209L136 536H225L153 199Q144 156 144 132Q144 100 160 82T214 63Q248 63 287 87T361 164T414 305L463 536H550L436 0H364L375 99H370Q351
75 326 50T267 7T189 -10ZM458 631Q440 631 428 642T416 673Q416 696 430 713T469 730Q489 730 499 719T509 690Q509 662 493 647T458 631ZM279 631Q260 631 248 642T236 673Q236 696 250 713T289 730Q310 730 319 719T329 690Q329 662 314 647T279 631Z" />
<glyph unicode="&#xfd;" glyph-name="yacute" horiz-adv-x="467" d="M-25 -240Q-49 -240 -64 -237T-94 -230V-159Q-80 -163 -64 -165T-30 -168Q11 -168 39 -143T94 -70L129 -8L48 536H136L171 271Q176 239 178 201T182 128T184 72H187Q194 88 207 120T237 186T265
242L421 536H515L175 -90Q135 -165 91 -202T-25 -240ZM234 619Q252 638 272 664T312 717T346 766H446V756Q432 739 405 710T346 653T289 606H234V619Z" />
<glyph unicode="&#xfe;" glyph-name="thorn" horiz-adv-x="579" d="M-22 -240L189 760H277L239 581Q229 538 220 501T202 436H206Q242 480 285 512T384 545Q450 545 490 499T530 362Q530 289 512 223T461 104T379 21T270 -10Q216 -10 182 17T131 82H126Q125 67
122 38T114 -9L65 -240H-22ZM262 63Q302 63 335 88T391 157T427 254T440 364Q440 472 355 472Q320 472 283 445T216 370T171 262Q160 216 160 171Q160 123 184 93T262 63Z" />
<glyph unicode="&#xff;" glyph-name="ydieresis" horiz-adv-x="467" d="M-25 -240Q-49 -240 -64 -237T-94 -230V-159Q-80 -163 -64 -165T-30 -168Q11 -168 39 -143T94 -70L129 -8L48 536H136L171 271Q176 239 178 201T182 128T184 72H187Q194 88 207 120T237 186T265
242L421 536H515L175 -90Q135 -165 91 -202T-25 -240ZM639 631Q621 631 609 642T597 673Q597 696 611 713T650 730Q670 730 680 719T690 690Q690 662 674 647T639 631ZM460 631Q441 631 429 642T417 673Q417 696 431 713T470 730Q491 730 500 719T510 690Q510 662
495 647T460 631Z" />
<glyph unicode="&#x2013;" glyph-name="endash" horiz-adv-x="480" d="M26 228L44 309H447L430 228H26Z" />
<glyph unicode="&#x2014;" glyph-name="emdash" horiz-adv-x="960" d="M26 228L44 309H927L910 228H26Z" />
<glyph unicode="&#x2018;" glyph-name="quoteleft" horiz-adv-x="174" d="M60 480Q84 533 120 596T191 714H258Q233 655 206 588T159 469H63L60 480Z" />
<glyph unicode="&#x2019;" glyph-name="quoteright" horiz-adv-x="174" d="M60 469Q86 528 114 595T159 714H255L259 703Q235 650 199 587T127 469H60Z" />
<glyph unicode="&#x201a;" glyph-name="quotesinglbase" horiz-adv-x="243" d="M-49 -129Q-23 -70 4 -3T50 116H146L150 105Q125 52 89 -11T18 -129H-49Z" />
<glyph unicode="&#x201c;" glyph-name="quotedblleft" horiz-adv-x="358" d="M243 480Q267 533 304 596T376 714H442Q417 655 389 588T343 469H247L243 480ZM60 480Q84 533 120 596T191 714H258Q233 655 206 588T159 469H63L60 480Z" />
<glyph unicode="&#x201d;" glyph-name="quotedblright" horiz-adv-x="358" d="M244 469Q270 528 297 595T342 714H439L443 703Q420 650 383 587T310 469H244ZM60 469Q86 528 114 595T159 714H255L259 703Q235 650 199 587T127 469H60Z" />
<glyph unicode="&#x201e;" glyph-name="quotedblbase" horiz-adv-x="426" d="M134 -129Q160 -70 187 -3T233 116H329L333 105Q309 52 273 -11T202 -129H134ZM-49 -129Q-23 -70 4 -3T50 116H146L150 105Q125 52 89 -11T18 -129H-49Z" />
<glyph unicode="&#x2022;" glyph-name="bullet" horiz-adv-x="376" d="M208 241Q161 241 129 270T97 365Q97 433 129 461T208 489Q255 489 287 461T319 365Q319 299 287 270T208 241Z" />
<glyph unicode="&#x2039;" glyph-name="guilsinglleft" horiz-adv-x="287" d="M154 54L42 268V282L234 471L277 428L133 265L215 80L154 54Z" />
<glyph unicode="&#x203a;" glyph-name="guilsinglright" horiz-adv-x="287" d="M53 54L10 97L154 260L72 445L133 471L244 257V244L53 54Z" />
</font>
</defs>
</svg>
