<svg width="24" height="24" viewBox="0 0 24 24" fill="none" xmlns="http://www.w3.org/2000/svg">
<path d="M6.85022 14.4189H7.7018V13.1359H8.52801C9.38524 13.1359 9.95766 12.5832 9.95766 11.7457V11.7401C9.95766 10.9026 9.38524 10.3499 8.52801 10.3499H6.85022V14.4189ZM8.31934 11.0239C8.80717 11.0239 9.09479 11.2804 9.09479 11.7429V11.7485C9.09479 12.211 8.80717 12.4704 8.31934 12.4704H7.7018V11.0239H8.31934Z" fill="#4B4848"/>
<path d="M10.5587 14.4189H12.1604C13.3786 14.4189 14.0694 13.6745 14.0694 12.3604V12.3548C14.0694 11.0803 13.3701 10.3499 12.1604 10.3499H10.5587V14.4189ZM11.4103 13.7168V11.0521H12.0251C12.7638 11.0521 13.2008 11.5314 13.2008 12.3689V12.3746C13.2008 13.243 12.7779 13.7168 12.0251 13.7168H11.4103Z" fill="#4B4848"/>
<path d="M14.6958 14.4189H15.5474V12.8172H17.2026V12.1433H15.5474V11.0521H17.3605V10.3499H14.6958V14.4189Z" fill="#4B4848"/>
<path fill-rule="evenodd" clip-rule="evenodd" d="M3 23H20.6V1H6.96537L3 4.98748V23ZM18.4 20.8H5.2V6.22497L8.08756 3.2H18.4V20.8Z" fill="#4B4848"/>
</svg>
