<svg width="56" height="44" viewBox="0 0 56 44" fill="none" xmlns="http://www.w3.org/2000/svg">
<rect width="56" height="44" rx="3" fill="white"/>
<path d="M31.5 15.5V7.5L39.5 15.5H31.5Z" fill="#FFEEE5"/>
<path d="M31.5 7.5L31.8536 7.14645C31.7598 7.05268 31.6326 7 31.5 7V7.5ZM31.5 15.5H31C31 15.7761 31.2239 16 31.5 16V15.5ZM39.5 15.5H40V15.2929L39.8536 15.1464L39.5 15.5ZM39 22.5C39 22.7761 39.2239 23 39.5 23C39.7761 23 40 22.7761 40 22.5H39ZM15 22.5C15 22.7761 15.2239 23 15.5 23C15.7761 23 16 22.7761 16 22.5H15ZM17.4957 8H31.5V7H17.4957V8ZM31 7.5V15.5H32V7.5H31ZM31.5 16H39.5V15H31.5V16ZM31.1464 7.85355L39.1464 15.8536L39.8536 15.1464L31.8536 7.14645L31.1464 7.85355ZM39 15.5V22.5H40V15.5H39ZM16 22.5V9.5H15V22.5H16ZM17.4957 7C16.1136 7 15 8.12069 15 9.5H16C16 8.67017 16.6687 8 17.4957 8V7Z" fill="#CC3D00"/>
<path d="M15.5 35.5V32.5M15.5 32.5V27.5H19C20.3807 27.5 21.5 28.6193 21.5 30V30C21.5 31.3807 20.3807 32.5 19 32.5H15.5Z" stroke="#CC3D00" stroke-linecap="round" stroke-linejoin="round"/>
<path d="M24.5 35.5V27.5H27.5C29.7091 27.5 31.5 29.2909 31.5 31.5C31.5 33.7091 29.7091 35.5 27.5 35.5H24.5Z" stroke="#CC3D00" stroke-linecap="round" stroke-linejoin="round"/>
<path d="M34.5 35.5V31.5M39.5 27.5H34.5V31.5M34.5 31.5H38.5" stroke="#CC3D00" stroke-linecap="round" stroke-linejoin="round"/>
</svg>
