<svg width="24" height="24" viewBox="0 0 24 24" fill="none" xmlns="http://www.w3.org/2000/svg">
<path d="M6.85034 14.4189H7.70192V13.1359H8.52813C9.38536 13.1359 9.95778 12.5832 9.95778 11.7457V11.7401C9.95778 10.9026 9.38536 10.3499 8.52813 10.3499H6.85034V14.4189ZM8.31947 11.0239C8.8073 11.0239 9.09492 11.2804 9.09492 11.7429V11.7485C9.09492 12.211 8.8073 12.4704 8.31947 12.4704H7.70192V11.0239H8.31947Z" fill="#4C5664"/>
<path d="M10.5588 14.4189H12.1605C13.3787 14.4189 14.0695 13.6745 14.0695 12.3604V12.3548C14.0695 11.0803 13.3702 10.3499 12.1605 10.3499H10.5588V14.4189ZM11.4104 13.7168V11.0521H12.0252C12.764 11.0521 13.201 11.5314 13.201 12.3689V12.3745C13.201 13.243 12.778 13.7168 12.0252 13.7168H11.4104Z" fill="#4C5664"/>
<path d="M14.6958 14.4189H15.5474V12.8172H17.2026V12.1433H15.5474V11.0521H17.3605V10.3499H14.6958V14.4189Z" fill="#4C5664"/>
<path fill-rule="evenodd" clip-rule="evenodd" d="M3 23H20.6V1H6.96537L3 4.98748V23ZM18.4 20.8H5.2V6.22497L8.08756 3.2H18.4V20.8Z" fill="#4C5664"/>
</svg>
