<svg xmlns="http://www.w3.org/2000/svg" width="56" height="44" fill="none"><rect width="56" height="44" fill="#fff" rx="3"/><path fill="#FFEEE5" d="M31.5 15.5v-8l8 8h-8Z"/><path fill="#CC3D00" d="m31.5 7.5.354-.354A.5.5 0 0 0 31.5 7v.5Zm0 8H31a.5.5 0 0 0 .5.5v-.5Zm8 0h.5v-.207l-.146-.147-.354.354Zm-.5 7a.5.5 0 0 0 1 0h-1Zm-24 0a.5.5 0 0 0 1 0h-1ZM17.496 8H31.5V7H17.496v1ZM31 7.5v8h1v-8h-1Zm.5 8.5h8v-1h-8v1Zm-.354-8.146 8 8 .708-.708-8-8-.708.708ZM39 15.5v7h1v-7h-1Zm-23 7v-13h-1v13h1ZM17.496 7A2.496 2.496 0 0 0 15 9.5h1c0-.83.669-1.5 1.496-1.5V7Z"/><path stroke="#CC3D00" stroke-linecap="round" stroke-linejoin="round" d="M15.5 35.5v-3m0 0v-5H19a2.5 2.5 0 0 1 2.5 2.5v0a2.5 2.5 0 0 1-2.5 2.5h-3.5ZM24.5 35.5v-8h3a4 4 0 0 1 0 8h-3ZM34.5 35.5v-4m5-4h-5v4m0 0h4"/></svg>