<?xml version="1.0" encoding="utf-8"?>
<!-- Generator: Adobe Illustrator 18.0.0, SVG Export Plug-In . SVG Version: 6.00 Build 0)  -->
<svg version="1.1" id="Layer_1" xmlns="http://www.w3.org/2000/svg" xmlns:xlink="http://www.w3.org/1999/xlink" x="0px" y="0px"
	 viewBox="0 0 16 16" enable-background="new 0 0 16 16" xml:space="preserve">
<g id="add_column_top_1_">
	<g>
		<path fill-rule="evenodd" clip-rule="evenodd" d="M15,0H1C0.45,0,0,0.45,0,1v14c0,0.55,0.45,1,1,1h14c0.55,0,1-0.45,1-1V1
			C16,0.45,15.55,0,15,0z M14,14H2v-3h12V14z M14,10H2V2h12V10z M6,7h1v1c0,0.55,0.45,1,1,1s1-0.45,1-1V7h1c0.55,0,1-0.45,1-1
			c0-0.55-0.45-1-1-1H9V4c0-0.55-0.45-1-1-1S7,3.45,7,4v1H6C5.45,5,5,5.45,5,6C5,6.55,5.45,7,6,7z"/>
	</g>
</g>
</svg>
