<?xml version="1.0" encoding="UTF-8"?>
<svg width="16px" height="16px" viewBox="0 0 16 16" version="1.1" xmlns="http://www.w3.org/2000/svg" xmlns:xlink="http://www.w3.org/1999/xlink">
    <!-- Generator: Sketch 49.1 (51147) - http://www.bohemiancoding.com/sketch -->
    <title>Artboard 2</title>
    <desc>Created with Sketch.</desc>
    <defs></defs>
    <g id="Artboard-2" stroke="none" stroke-width="1" fill="none" fill-rule="evenodd">
        <path d="M0.0099937539,7 L0.0099937539,5 L16,5 L16,12 C16,12.55 15.5502811,13 15.0006246,13 L9.00437227,13 L9.00437227,10.01 C8.9747396,8.33167761 7.64389377,7 5.99625234,7 L1.99875078,7 L0.0099937539,7 Z M15.0006246,2 L7.4153654,2 L5.70643348,0.29 C5.52654591,0.11 5.27670206,0 4.99687695,0 L0.99937539,0 C0.449718926,0 0,0.45 0,1 L0,4 L15.9900062,4 L15.9900062,3 C16,2.45 15.5502811,2 15.0006246,2 Z M5.99625234,9 L1.99875078,9 C1.44909432,9 0.99937539,9.45 0.99937539,10 C0.99937539,10.55 1.44909432,11 1.99875078,11 L3.58775765,11 L0.299812617,14.29 C0.119925047,14.47 0.0099937539,14.72 0.0099937539,15 C0.0099937539,15.55 0.45971268,16 1.00936914,16 C1.28919425,16 1.5390381,15.89 1.71892567,15.71 L5.00687071,12.42 L5.00687071,14.01 C5.00687071,14.56 5.45658963,15.01 6.0062461,15.01 C6.55590256,15.01 7.00562149,14.56 7.00562149,14.01 L7.00562149,10.01 C6.99562773,9.45 6.54590881,9 5.99625234,9 Z" id="Shape" fill="#000000"></path>
    </g>
</svg>