<?xml version="1.0" encoding="utf-8"?>
<!-- Generator: Adobe Illustrator 18.0.0, SVG Export Plug-In . SVG Version: 6.00 Build 0)  -->
<svg version="1.1" id="Layer_1" xmlns="http://www.w3.org/2000/svg" xmlns:xlink="http://www.w3.org/1999/xlink" x="0px" y="0px"
	 viewBox="0 0 16 16" enable-background="new 0 0 16 16" xml:space="preserve">
<g id="add_column_right_1_">
	<g>
		<path fill-rule="evenodd" clip-rule="evenodd" d="M8,9h1v1c0,0.55,0.45,1,1,1s1-0.45,1-1V9h1c0.55,0,1-0.45,1-1c0-0.55-0.45-1-1-1
			h-1V6c0-0.55-0.45-1-1-1S9,5.45,9,6v1H8C7.45,7,7,7.45,7,8C7,8.55,7.45,9,8,9z M15,0H1C0.45,0,0,0.45,0,1v14c0,0.55,0.45,1,1,1h14
			c0.55,0,1-0.45,1-1V1C16,0.45,15.55,0,15,0z M5,14H2V2h3V14z M14,14H6V2h8V14z"/>
	</g>
</g>
</svg>
