<?xml version="1.0" encoding="utf-8"?>
<!-- Generator: Adobe Illustrator 18.0.0, SVG Export Plug-In . SVG Version: 6.00 Build 0)  -->
<svg version="1.1" id="Layer_1" xmlns="http://www.w3.org/2000/svg" xmlns:xlink="http://www.w3.org/1999/xlink" x="0px" y="0px"
	 viewBox="0 0 16 16" enable-background="new 0 0 16 16" xml:space="preserve">
<g id="align_vertical_center">
	<g>
		<path fill-rule="evenodd" clip-rule="evenodd" d="M13,2H9V1c0-0.55-0.45-1-1-1S7,0.45,7,1v1H3C2.45,2,2,2.45,2,3v3
			c0,0.55,0.45,1,1,1h4v2H6c-0.55,0-1,0.45-1,1v3c0,0.55,0.45,1,1,1h1v1c0,0.55,0.45,1,1,1s1-0.45,1-1v-1h1c0.55,0,1-0.45,1-1v-3
			c0-0.55-0.45-1-1-1H9V7h4c0.55,0,1-0.45,1-1V3C14,2.45,13.55,2,13,2z"/>
	</g>
</g>
</svg>
