<?xml version="1.0" encoding="utf-8"?>
<!-- Generator: Adobe Illustrator 18.0.0, SVG Export Plug-In . SVG Version: 6.00 Build 0)  -->
<svg version="1.1" id="Layer_1" xmlns="http://www.w3.org/2000/svg" xmlns:xlink="http://www.w3.org/1999/xlink" x="0px" y="0px"
	 viewBox="0 0 16 16" enable-background="new 0 0 16 16" xml:space="preserve">
<g id="align_top">
	<g>
		<path fill-rule="evenodd" clip-rule="evenodd" d="M15,0H1C0.45,0,0,0.45,0,1s0.45,1,1,1h14c0.55,0,1-0.45,1-1S15.55,0,15,0z M6,4
			H3C2.45,4,2,4.45,2,5v9c0,0.55,0.45,1,1,1h3c0.55,0,1-0.45,1-1V5C7,4.45,6.55,4,6,4z M13,4h-3C9.45,4,9,4.45,9,5v4
			c0,0.55,0.45,1,1,1h3c0.55,0,1-0.45,1-1V5C14,4.45,13.55,4,13,4z"/>
	</g>
</g>
</svg>
