<?xml version="1.0" encoding="utf-8"?>
<!-- Generator: Adobe Illustrator 18.0.0, SVG Export Plug-In . SVG Version: 6.00 Build 0)  -->
<svg version="1.1" id="Layer_1" xmlns="http://www.w3.org/2000/svg" xmlns:xlink="http://www.w3.org/1999/xlink" x="0px" y="0px"
	 viewBox="0 0 16 16" enable-background="new 0 0 16 16" xml:space="preserve">
<g id="align_left">
	<g>
		<path fill-rule="evenodd" clip-rule="evenodd" d="M9,9H5c-0.55,0-1,0.45-1,1v3c0,0.55,0.45,1,1,1h4c0.55,0,1-0.45,1-1v-3
			C10,9.45,9.55,9,9,9z M1,0C0.45,0,0,0.45,0,1v14c0,0.55,0.45,1,1,1s1-0.45,1-1V1C2,0.45,1.55,0,1,0z M14,2H5C4.45,2,4,2.45,4,3v3
			c0,0.55,0.45,1,1,1h9c0.55,0,1-0.45,1-1V3C15,2.45,14.55,2,14,2z"/>
	</g>
</g>
</svg>
