<?xml version="1.0" encoding="utf-8"?>
<!-- Generator: Adobe Illustrator 18.0.0, SVG Export Plug-In . SVG Version: 6.00 Build 0)  -->
<svg version="1.1" id="Layer_1" xmlns="http://www.w3.org/2000/svg" xmlns:xlink="http://www.w3.org/1999/xlink" x="0px" y="0px"
	 viewBox="0 0 16 16" enable-background="new 0 0 16 16" xml:space="preserve">
<g id="align_right">
	<g>
		<path fill-rule="evenodd" clip-rule="evenodd" d="M11,9H7c-0.55,0-1,0.45-1,1v3c0,0.55,0.45,1,1,1h4c0.55,0,1-0.45,1-1v-3
			C12,9.45,11.55,9,11,9z M15,0c-0.55,0-1,0.45-1,1v14c0,0.55,0.45,1,1,1s1-0.45,1-1V1C16,0.45,15.55,0,15,0z M11,2H2
			C1.45,2,1,2.45,1,3v3c0,0.55,0.45,1,1,1h9c0.55,0,1-0.45,1-1V3C12,2.45,11.55,2,11,2z"/>
	</g>
</g>
</svg>
