<?xml version="1.0" encoding="utf-8"?>
<!-- Generator: Adobe Illustrator 18.0.0, SVG Export Plug-In . SVG Version: 6.00 Build 0)  -->
<svg version="1.1" id="Layer_1" xmlns="http://www.w3.org/2000/svg" xmlns:xlink="http://www.w3.org/1999/xlink" x="0px" y="0px"
	 viewBox="0 0 16 16" enable-background="new 0 0 16 16" xml:space="preserve">
<g id="align_horizontal_center">
	<g>
		<path fill-rule="evenodd" clip-rule="evenodd" d="M15,7h-1V6c0-0.55-0.45-1-1-1h-3C9.45,5,9,5.45,9,6v1H7V3c0-0.55-0.45-1-1-1H3
			C2.45,2,2,2.45,2,3v4H1C0.45,7,0,7.45,0,8c0,0.55,0.45,1,1,1h1v4c0,0.55,0.45,1,1,1h3c0.55,0,1-0.45,1-1V9h2v1c0,0.55,0.45,1,1,1
			h3c0.55,0,1-0.45,1-1V9h1c0.55,0,1-0.45,1-1C16,7.45,15.55,7,15,7z"/>
	</g>
</g>
</svg>
