<?xml version="1.0" encoding="utf-8"?>
<!-- Generator: Adobe Illustrator 18.0.0, SVG Export Plug-In . SVG Version: 6.00 Build 0)  -->
<svg version="1.1" id="Layer_1" xmlns="http://www.w3.org/2000/svg" xmlns:xlink="http://www.w3.org/1999/xlink" x="0px" y="0px"
	 viewBox="0 0 16 16" enable-background="new 0 0 16 16" xml:space="preserve">
<g id="align_bottom">
	<g>
		<path fill-rule="evenodd" clip-rule="evenodd" d="M10,12h3c0.55,0,1-0.45,1-1V7c0-0.55-0.45-1-1-1h-3C9.45,6,9,6.45,9,7v4
			C9,11.55,9.45,12,10,12z M15,14H1c-0.55,0-1,0.45-1,1s0.45,1,1,1h14c0.55,0,1-0.45,1-1S15.55,14,15,14z M3,12h3c0.55,0,1-0.45,1-1
			V2c0-0.55-0.45-1-1-1H3C2.45,1,2,1.45,2,2v9C2,11.55,2.45,12,3,12z"/>
	</g>
</g>
</svg>
