<svg xmlns="http://www.w3.org/2000/svg" width="16" height="16"><path fill-rule="evenodd" d="M2.673 10.758a1.396 1.396 0 0 1 .093.234c.127.442.012.932-.362 1.212-.441.332-1.075.246-1.349-.233a8 8 0 1 1 14.014-.225c-.259.488-.889.594-1.341.277-.382-.269-.513-.755-.4-1.2a1.259 1.259 0 0 1 .085-.238 6 6 0 1 0-10.74.173Zm2.464-1.862a1.783 1.783 0 0 1 .076.404c.03.415-.096.831-.43 1.078-.444.328-1.08.237-1.314-.264a5.003 5.003 0 0 1-.24-.62l-.004-.011a5 5 0 1 1 9.574-.08l-.003.011c-.063.213-.14.422-.23.625-.226.504-.861.606-1.31.285-.338-.241-.47-.654-.448-1.07a1.737 1.737 0 0 1 .07-.405 2.99 2.99 0 0 0-.216-2.233 3 3 0 0 0-5.525 2.28ZM8 7a1 1 0 0 1 1 1v3.586l2.707 2.707a1 1 0 0 1-1.414 1.414L8 13.414l-2.293 2.293a1 1 0 0 1-1.414-1.414L7 11.586V8a1 1 0 0 1 1-1Z" clip-rule="evenodd"/></svg>