<svg xmlns="http://www.w3.org/2000/svg" xml:space="preserve" viewBox="0 0 16 16"><path fill-rule="evenodd" d="M3.5 11h2c.28 0 .5-.22.5-.5s-.22-.5-.5-.5h-2c-.28 0-.5.22-.5.5s.22.5.5.5zm0-2h5c.28 0 .5-.22.5-.5S8.78 8 8.5 8h-5c-.28 0-.5.22-.5.5s.22.5.5.5zM11 4H1c-.55 0-1 .45-1 1v10c0 .55.45 1 1 1h10c.55 0 1-.45 1-1V5c0-.55-.45-1-1-1zm-1 10H2V7h8v7zm5-14H5c-.55 0-1 .45-1 1v2h2V2h8v7h-1v2h2c.55 0 1-.45 1-1V1c0-.55-.45-1-1-1zM3.5 13h3c.28 0 .5-.22.5-.5s-.22-.5-.5-.5h-3c-.28 0-.5.22-.5.5s.22.5.5.5z" clip-rule="evenodd"/></svg>