<?xml version="1.0" encoding="utf-8"?>
<!-- Generator: Adobe Illustrator 17.1.0, SVG Export Plug-In . SVG Version: 6.00 Build 0)  -->
<!DOCTYPE svg PUBLIC "-//W3C//DTD SVG 1.1//EN" "http://www.w3.org/Graphics/SVG/1.1/DTD/svg11.dtd">
<svg version="1.1" id="Layer_1" xmlns="http://www.w3.org/2000/svg" xmlns:xlink="http://www.w3.org/1999/xlink" x="0px" y="0px"
	 viewBox="0 0 16 16" enable-background="new 0 0 16 16" xml:space="preserve">
<g id="applications_3_">
	<g>
		<path fill-rule="evenodd" clip-rule="evenodd" d="M3.5,11h2C5.78,11,6,10.78,6,10.5C6,10.22,5.78,10,5.5,10h-2
			C3.22,10,3,10.22,3,10.5C3,10.78,3.22,11,3.5,11z M3.5,9h5C8.78,9,9,8.78,9,8.5C9,8.22,8.78,8,8.5,8h-5C3.22,8,3,8.22,3,8.5
			C3,8.78,3.22,9,3.5,9z M11,4H1C0.45,4,0,4.45,0,5v10c0,0.55,0.45,1,1,1h10c0.55,0,1-0.45,1-1V5C12,4.45,11.55,4,11,4z M10,14H2V7
			h8V14z M15,0H5C4.45,0,4,0.45,4,1v2h2V2h8v7h-1v2h2c0.55,0,1-0.45,1-1V1C16,0.45,15.55,0,15,0z M3.5,13h3C6.78,13,7,12.78,7,12.5
			C7,12.22,6.78,12,6.5,12h-3C3.22,12,3,12.22,3,12.5C3,12.78,3.22,13,3.5,13z"/>
	</g>
</g>
</svg>
