<?xml version="1.0" encoding="UTF-8"?>
<svg viewBox="0 0 16 16" version="1.1" xmlns="http://www.w3.org/2000/svg" xmlns:xlink="http://www.w3.org/1999/xlink">
    <title>Archive</title>
    <g stroke="none" stroke-width="1" fill="none" fill-rule="evenodd">
        <path d="M13.381966,0 C13.7607381,1.04064373e-15 14.1070012,0.214002376 14.2763932,0.552786405 L16,4 L16,15 C16,15.5522847 15.5522847,16 15,16 L1,16 C0.44771525,16 6.76353751e-17,15.5522847 0,15 L0,4 L1.7236068,0.552786405 C1.89299881,0.214002376 2.23926193,2.91623903e-16 2.61803399,0 L13.381966,0 Z M8,6 C7.45,6 7,6.45 7,7 L7,7 L7,9.59 L6.71,9.3 L6.62868805,9.22355685 C6.45795918,9.08081633 6.24,9 6,9 C5.45,9 5,9.45 5,10 C5,10.28 5.11,10.53 5.29,10.71 L5.29,10.71 L7.29,12.71 L7.38564815,12.7939815 C7.55416667,12.9236111 7.76666667,13 8,13 C8.28,13 8.53,12.89 8.71,12.71 L8.71,12.71 L10.71,10.71 L10.7939815,10.6143519 C10.9236111,10.4458333 11,10.2333333 11,10 C11,9.45 10.55,9 10,9 C9.72,9 9.47,9.11 9.29,9.29 L9.29,9.29 L9,9.59 L9,7 L8.9932398,6.88380102 C8.93520408,6.3880102 8.51071429,6 8,6 Z M13,2 L3,2 L2,4 L14,4 L13,2 Z" id="Combined-Shape" fill="#000000"></path>
    </g>
</svg>
