<svg xmlns="http://www.w3.org/2000/svg" width="16" height="16"><path fill-rule="evenodd" d="M15 0a1 1 0 0 1 .993.883L16 1v14a1 1 0 0 1-.883.993L15 16h-3a1 1 0 0 1-.117-1.993L12 14h2V2h-2a1 1 0 0 1-.993-.883L11 1a1 1 0 0 1 .883-.993L12 0h3ZM4 0a1 1 0 0 1 .117 1.993L4 2H2v12h2a1 1 0 0 1 .993.883L5 15a1 1 0 0 1-.883.993L4 16H1a1 1 0 0 1-.993-.883L0 15V1A1 1 0 0 1 .883.007L1 0h3Zm4 3a5 5 0 1 1 0 10A5 5 0 0 1 8 3Zm0 1a4 4 0 1 0 0 8 4 4 0 0 0 0-8Zm2.354 1.646a.5.5 0 0 1 .057.638l-.057.07-2 2a.5.5 0 0 1-.638.057l-.07-.057-1-1a.5.5 0 0 1 .638-.765l.07.057.646.647 1.646-1.647a.5.5 0 0 1 .708 0Z"/></svg>