<svg xmlns="http://www.w3.org/2000/svg" width="16" height="16"><path fill-rule="evenodd" d="M15 0a1 1 0 0 1 .993.883L16 1v14a1 1 0 0 1-.883.993L15 16h-3a1 1 0 0 1-.117-1.993L12 14h2V2h-2a1 1 0 0 1-.993-.883L11 1a1 1 0 0 1 .883-.993L12 0h3ZM4 0a1 1 0 0 1 .117 1.993L4 2H2v12h2a1 1 0 0 1 .993.883L5 15a1 1 0 0 1-.883.993L4 16H1a1 1 0 0 1-.993-.883L0 15V1A1 1 0 0 1 .883.007L1 0h3Zm1.61 5c.514 0 .962.212 1.343.637.382.425.573.997.573 1.716 0 .838-.258 1.588-.773 2.252-.514.663-1.327 1.2-2.437 1.609v-.465l.233-.095a3.09 3.09 0 0 0 1.274-1.017c.366-.505.55-1.03.55-1.577a.478.478 0 0 0-.057-.26c-.018-.037-.043-.056-.074-.056s-.08.025-.149.075c-.198.142-.446.214-.744.214-.36 0-.675-.145-.944-.433A1.453 1.453 0 0 1 4 6.572c0-.422.155-.79.465-1.102.31-.313.692-.47 1.144-.47Zm4.474 0c.514 0 .963.212 1.344.637.381.425.572.997.572 1.716 0 .838-.257 1.588-.772 2.252-.515.663-1.327 1.2-2.437 1.609v-.465l.233-.095a3.09 3.09 0 0 0 1.274-1.017c.366-.505.549-1.03.549-1.577a.478.478 0 0 0-.056-.26c-.019-.037-.044-.056-.075-.056-.03 0-.08.025-.149.075-.198.142-.446.214-.744.214-.36 0-.674-.145-.944-.433a1.453 1.453 0 0 1-.405-1.028c0-.422.155-.79.466-1.102.31-.313.691-.47 1.144-.47Z"/></svg>