<svg xmlns="http://www.w3.org/2000/svg" width="16" height="16"><path fill-rule="evenodd" d="M15 0a1 1 0 0 1 .993.883L16 1v14a1 1 0 0 1-.883.993L15 16h-3a1 1 0 0 1-.117-1.993L12 14h2V2h-2a1 1 0 0 1-.993-.883L11 1a1 1 0 0 1 .883-.993L12 0h3ZM4 0a1 1 0 0 1 .117 1.993L4 2H2v12h2a1 1 0 0 1 .993.883L5 15a1 1 0 0 1-.883.993L4 16H1a1 1 0 0 1-.993-.883L0 15V1A1 1 0 0 1 .883.007L1 0h3Zm6.904 5c.256 0 .483.037.68.112a1.343 1.343 0 0 1 .812.788c.072.184.108.385.108.604 0 .23-.05.441-.152.636a1.314 1.314 0 0 1-.456.492v.016l.08.04c.055.031.111.072.168.124.085.077.163.172.232.284a1.673 1.673 0 0 1 .24.872c0 .25-.043.477-.128.68a1.518 1.518 0 0 1-.896.852 1.937 1.937 0 0 1-.68.116c-.427 0-.792-.101-1.096-.304a1.362 1.362 0 0 1-.584-.864c-.01-.053.01-.088.064-.104l.696-.16.033-.002c.03.002.051.022.063.058.059.16.155.296.288.408.133.112.312.168.536.168.256 0 .453-.076.592-.228a.827.827 0 0 0 .208-.58c0-.277-.08-.495-.24-.652-.16-.157-.376-.236-.648-.236h-.232l-.035-.005c-.03-.01-.045-.035-.045-.075v-.632l.005-.035c.01-.03.035-.045.075-.045h.216l.138-.009a.734.734 0 0 0 .438-.207c.144-.144.216-.336.216-.576a.745.745 0 0 0-.192-.532c-.128-.136-.307-.204-.536-.204-.203 0-.363.05-.48.152a.815.815 0 0 0-.248.408c-.016.048-.048.067-.096.056l-.68-.16-.034-.012c-.028-.016-.038-.044-.03-.084a1.347 1.347 0 0 1 .516-.828c.136-.104.296-.185.48-.244A1.98 1.98 0 0 1 10.904 5Zm-6.152.088.035.005c.03.01.045.035.045.075v5.28l-.005.035c-.01.03-.035.045-.075.045h-.736l-.035-.005c-.03-.01-.045-.035-.045-.075V6.16H3.92l-.832.584-.032.016C3.02 6.773 3 6.751 3 6.696V5.88l.006-.04a.157.157 0 0 1 .05-.072l.872-.632.04-.027a.236.236 0 0 1 .104-.021h.68ZM7.344 5c.256 0 .483.04.68.12.197.08.364.188.5.324s.24.296.312.48c.072.184.108.383.108.596 0 .245-.045.47-.136.676-.09.205-.216.404-.376.596l-1.584 1.92v.016h2.016l.035.005c.03.01.045.035.045.075v.64l-.005.035c-.01.03-.035.045-.075.045H5.808l-.035-.005c-.03-.01-.045-.035-.045-.075v-.6l.004-.04a.132.132 0 0 1 .036-.064l1.92-2.392.1-.133a1.95 1.95 0 0 0 .156-.267.985.985 0 0 0 .096-.432.736.736 0 0 0-.188-.512c-.125-.139-.303-.208-.532-.208-.219 0-.39.061-.512.184a.826.826 0 0 0-.224.496c-.01.053-.04.075-.088.064L5.792 6.4l-.034-.012c-.028-.016-.038-.044-.03-.084a1.425 1.425 0 0 1 .94-1.192A1.88 1.88 0 0 1 7.344 5Z"/></svg>