<?xml version="1.0" encoding="UTF-8"?>
<svg width="16px" height="16px" viewBox="0 0 16 16" version="1.1" xmlns="http://www.w3.org/2000/svg" xmlns:xlink="http://www.w3.org/1999/xlink">
    <title>array-date</title>
    <g stroke-width="1" fill-rule="evenodd">
        <path d="M15,0 C15.5128358,0 15.9355072,0.38604019 15.9932723,0.883378875 L16,1 L16,15 C16,15.5128358 15.6139598,15.9355072 15.1166211,15.9932723 L15,16 L12,16 C11.4477153,16 11,15.5522847 11,15 C11,14.4871642 11.3860402,14.0644928 11.8833789,14.0067277 L12,14 L14,14 L14,2 L12,2 C11.4871642,2 11.0644928,1.61395981 11.0067277,1.11662113 L11,1 C11,0.487164161 11.3860402,0.0644928393 11.8833789,0.00672773133 L12,0 L15,0 Z M4,0 C4.55228475,0 5,0.44771525 5,1 C5,1.51283584 4.61395981,1.93550716 4.11662113,1.99327227 L4,2 L2,2 L2,14 L4,14 C4.51283584,14 4.93550716,14.3860402 4.99327227,14.8833789 L5,15 C5,15.5128358 4.61395981,15.9355072 4.11662113,15.9932723 L4,16 L1,16 C0.487164161,16 0.0644928393,15.6139598 0.00672773133,15.1166211 L0,15 L0,1 C0,0.487164161 0.38604019,0.0644928393 0.883378875,0.00672773133 L1,0 L4,0 Z M10.5,4 C10.7761424,4 11,4.22385763 11,4.5 L11,5 C11.5128358,5 11.9355072,5.38604019 11.9932723,5.88337887 L12,6 L12,11 C12,11.5128358 11.6139598,11.9355072 11.1166211,11.9932723 L11,12 L5,12 C4.48716416,12 4.06449284,11.6139598 4.00672773,11.1166211 L4,11 L4,6 C4,5.48716416 4.38604019,5.06449284 4.88337887,5.00672773 L5,5 L5,4.5 C5,4.22385763 5.22385763,4 5.5,4 C5.77614237,4 6,4.22385763 6,4.5 L6,5 L10,5 L10,4.5 C10,4.22385763 10.2238576,4 10.5,4 Z M11,7 L5,7 L5,11 L11,11 L11,7 Z"></path>
    </g>
</svg>
