<svg xmlns="http://www.w3.org/2000/svg" width="16" height="16"><path fill-rule="evenodd" d="M15 0a1 1 0 0 1 .993.883L16 1v14a1 1 0 0 1-.883.993L15 16h-3a1 1 0 0 1-.117-1.993L12 14h2V2h-2a1 1 0 0 1-.993-.883L11 1a1 1 0 0 1 .883-.993L12 0h3ZM4 0a1 1 0 0 1 .117 1.993L4 2H2v12h2a1 1 0 0 1 .993.883L5 15a1 1 0 0 1-.883.993L4 16H1a1 1 0 0 1-.993-.883L0 15V1A1 1 0 0 1 .883.007L1 0h3Zm7 6a1 1 0 0 1 .993.883L12 7v2a1 1 0 0 1-.883.993L11 10H5a1 1 0 0 1-.993-.883L4 9V7a1 1 0 0 1 .883-.993L5 6h6Zm0 1H8v2h3V7Z"/></svg>