<?xml version="1.0" encoding="utf-8"?>
<!-- Generator: Adobe Illustrator 17.1.0, SVG Export Plug-In . SVG Version: 6.00 Build 0)  -->
<!DOCTYPE svg PUBLIC "-//W3C//DTD SVG 1.1//EN" "http://www.w3.org/Graphics/SVG/1.1/DTD/svg11.dtd">
<svg version="1.1" id="Layer_1" xmlns="http://www.w3.org/2000/svg" xmlns:xlink="http://www.w3.org/1999/xlink" x="0px" y="0px"
	 viewBox="0 0 16 16" enable-background="new 0 0 16 16" xml:space="preserve">
<g id="left_arrow_3_">
	<g>
		<path fill-rule="evenodd" clip-rule="evenodd" d="M13.99,6.99H4.41L7.7,3.7c0.18-0.18,0.29-0.43,0.29-0.71c0-0.55-0.45-1-1-1
			c-0.28,0-0.53,0.11-0.71,0.29l-5,5C1.1,7.47,0.99,7.72,0.99,7.99S1.1,8.52,1.28,8.7l5,5c0.18,0.18,0.43,0.29,0.71,0.29
			c0.55,0,1-0.45,1-1c0-0.28-0.11-0.53-0.29-0.71L4.41,8.99h9.59c0.55,0,1-0.45,1-1S14.54,6.99,13.99,6.99z"/>
	</g>
</g>
</svg>
