<?xml version="1.0" encoding="utf-8"?>
<!-- Generator: Adobe Illustrator 17.1.0, SVG Export Plug-In . SVG Version: 6.00 Build 0)  -->
<!DOCTYPE svg PUBLIC "-//W3C//DTD SVG 1.1//EN" "http://www.w3.org/Graphics/SVG/1.1/DTD/svg11.dtd">
<svg version="1.1" id="Layer_1" xmlns:sketch="http://www.bohemiancoding.com/sketch/ns"
	 xmlns="http://www.w3.org/2000/svg" xmlns:xlink="http://www.w3.org/1999/xlink" x="0px" y="0px" viewBox="0 0 16 16"
	 enable-background="new 0 0 16 16" xml:space="preserve">
<title>Shape</title>
<desc>Created with Sketch.</desc>
<g id="Page-1" sketch:type="MSPage">
	<g id="Artboard-1" transform="translate(0.000000, -3.000000)" sketch:type="MSArtboardGroup">
		<path id="Shape" sketch:type="MSShapeGroup" d="M15.7,10.3l-4-4C11.5,6.1,11.3,6,11,6c-0.6,0-1,0.5-1,1c0,0.3,0.1,0.5,0.3,0.7
			l2.3,2.3H3.4l2.3-2.3C5.9,7.5,6,7.3,6,7c0-0.5-0.4-1-1-1C4.7,6,4.5,6.1,4.3,6.3l-4,4C0.1,10.5,0,10.7,0,11s0.1,0.5,0.3,0.7l4,4
			C4.5,15.9,4.7,16,5,16c0.6,0,1-0.4,1-1c0-0.3-0.1-0.5-0.3-0.7L3.4,12h9.2l-2.3,2.3C10.1,14.5,10,14.7,10,15c0,0.6,0.4,1,1,1
			c0.3,0,0.5-0.1,0.7-0.3l4-4c0.2-0.2,0.3-0.4,0.3-0.7S15.9,10.5,15.7,10.3L15.7,10.3z"/>
	</g>
</g>
</svg>
