<?xml version="1.0" encoding="utf-8"?>
<!-- Generator: Adobe Illustrator 17.1.0, SVG Export Plug-In . SVG Version: 6.00 Build 0)  -->
<!DOCTYPE svg PUBLIC "-//W3C//DTD SVG 1.1//EN" "http://www.w3.org/Graphics/SVG/1.1/DTD/svg11.dtd">
<svg version="1.1" id="Layer_1" xmlns="http://www.w3.org/2000/svg" xmlns:xlink="http://www.w3.org/1999/xlink" x="0px" y="0px"
	 viewBox="0 0 16 16" enable-background="new 0 0 16 16" xml:space="preserve">
<g id="right_arrow_3_">
	<g>
		<path fill-rule="evenodd" clip-rule="evenodd" d="M14.7,7.29l-5-5C9.52,2.1,9.27,1.99,8.99,1.99c-0.55,0-1,0.45-1,1
			c0,0.28,0.11,0.53,0.29,0.71l3.29,3.29H1.99c-0.55,0-1,0.45-1,1s0.45,1,1,1h9.59l-3.29,3.29c-0.18,0.18-0.29,0.43-0.29,0.71
			c0,0.55,0.45,1,1,1c0.28,0,0.53-0.11,0.71-0.29l5-5c0.18-0.18,0.29-0.43,0.29-0.71S14.88,7.47,14.7,7.29z"/>
	</g>
</g>
</svg>
