<?xml version="1.0" encoding="utf-8"?>
<!-- Generator: Adobe Illustrator 17.1.0, SVG Export Plug-In . SVG Version: 6.00 Build 0)  -->
<!DOCTYPE svg PUBLIC "-//W3C//DTD SVG 1.1//EN" "http://www.w3.org/Graphics/SVG/1.1/DTD/svg11.dtd">
<svg version="1.1" id="Layer_1" xmlns:sketch="http://www.bohemiancoding.com/sketch/ns"
	 xmlns="http://www.w3.org/2000/svg" xmlns:xlink="http://www.w3.org/1999/xlink" x="0px" y="0px" viewBox="0 0 16 16"
	 enable-background="new 0 0 16 16" xml:space="preserve">
<title>Shape</title>
<desc>Created with Sketch.</desc>
<g id="Page-1" sketch:type="MSPage">
	<g id="Artboard-1" transform="translate(-2.000000, -1.000000)" sketch:type="MSArtboardGroup">
		<path id="Shape" sketch:type="MSShapeGroup" d="M15.7,7.3l-5-5C10.5,2.1,10.3,2,10,2S9.5,2.1,9.3,2.3l-5,5C4.1,7.5,4,7.7,4,8
			c0,0.6,0.5,1,1,1c0.3,0,0.5-0.1,0.7-0.3L9,5.4V15c0,0.6,0.4,1,1,1s1-0.4,1-1V5.4l3.3,3.3C14.5,8.9,14.7,9,15,9c0.6,0,1-0.4,1-1
			C16,7.7,15.9,7.5,15.7,7.3L15.7,7.3z"/>
	</g>
</g>
</svg>
