<?xml version="1.0" encoding="utf-8"?>
<!-- Generator: Adobe Illustrator 18.1.0, SVG Export Plug-In . SVG Version: 6.00 Build 0)  -->
<svg version="1.1" id="Layer_1" xmlns="http://www.w3.org/2000/svg" xmlns:xlink="http://www.w3.org/1999/xlink" x="0px" y="0px"
	 viewBox="0 0 16 16" enable-background="new 0 0 16 16" xml:space="preserve">
<g id="asterisk">
	<g>
		<path fill-rule="evenodd" clip-rule="evenodd" d="M14.54,11.18l0.01-0.02L9.8,8l4.75-3.17l-0.01-0.02C14.81,4.64,15,4.35,15,4
			c0-0.55-0.45-1-1-1c-0.21,0-0.39,0.08-0.54,0.18l-0.01-0.02L9,6.13V1c0-0.55-0.45-1-1-1S7,0.45,7,1v5.13L2.55,3.17L2.54,3.18
			C2.39,3.08,2.21,3,2,3C1.45,3,1,3.45,1,4c0,0.35,0.19,0.64,0.46,0.82L1.45,4.83L6.2,8l-4.75,3.17l0.01,0.02
			C1.19,11.36,1,11.65,1,12c0,0.55,0.45,1,1,1c0.21,0,0.39-0.08,0.54-0.18l0.01,0.02L7,9.87V15c0,0.55,0.45,1,1,1s1-0.45,1-1V9.87
			l4.45,2.96l0.01-0.02C13.61,12.92,13.79,13,14,13c0.55,0,1-0.45,1-1C15,11.65,14.81,11.36,14.54,11.18z"/>
	</g>
</g>
</svg>
