<?xml version="1.0" encoding="utf-8"?>
<!-- Generator: Adobe Illustrator 17.1.0, SVG Export Plug-In . SVG Version: 6.00 Build 0)  -->
<!DOCTYPE svg PUBLIC "-//W3C//DTD SVG 1.1//EN" "http://www.w3.org/Graphics/SVG/1.1/DTD/svg11.dtd">
<svg version="1.1" id="Layer_1" xmlns="http://www.w3.org/2000/svg" xmlns:xlink="http://www.w3.org/1999/xlink" x="0px" y="0px"
	 viewBox="0 0 16 16" enable-background="new 0 0 16 16" xml:space="preserve">
<g id="Shape_48">
	<g>
		<path fill-rule="evenodd" clip-rule="evenodd" d="M8,14c-3.31,0-6-2.69-6-6c0-1.77,0.78-3.36,2-4.46V5c0,0.55,0.45,1,1,1
			s1-0.45,1-1V1c0-0.55-0.45-1-1-1H1C0.45,0,0,0.45,0,1s0.45,1,1,1h1.74C1.07,3.46,0,5.6,0,8c0,4.42,3.58,8,8,8c0.55,0,1-0.45,1-1
			S8.55,14,8,14z M8,2c1.08,0,2.08,0.31,2.95,0.81l1.47-1.47C11.15,0.49,9.64,0,8,0C7.45,0,7,0.45,7,1S7.45,2,8,2z M10.71,8.71l5-5
			C15.89,3.53,16,3.28,16,3c0-0.55-0.45-1-1-1c-0.28,0-0.53,0.11-0.71,0.29L10,6.59L8.71,5.29C8.53,5.11,8.28,5,8,5
			C7.45,5,7,5.45,7,6c0,0.28,0.11,0.53,0.29,0.71l2,2C9.47,8.89,9.72,9,10,9S10.53,8.89,10.71,8.71z M16,8
			c0-0.55-0.06-1.08-0.16-1.6l-1.87,1.87c-0.08,1.66-0.81,3.14-1.97,4.18V11c0-0.55-0.45-1-1-1s-1,0.45-1,1v4c0,0.55,0.45,1,1,1h4
			c0.55,0,1-0.45,1-1s-0.45-1-1-1h-1.74C14.93,12.54,16,10.4,16,8z"/>
	</g>
</g>
</svg>
