<svg xmlns="http://www.w3.org/2000/svg" xml:space="preserve" viewBox="0 0 16 16"><path fill-rule="evenodd" d="M8 14c-3.31 0-6-2.69-6-6 0-1.77.78-3.36 2-4.46V5c0 .55.45 1 1 1s1-.45 1-1V1c0-.55-.45-1-1-1H1C.45 0 0 .45 0 1s.45 1 1 1h1.74A7.95 7.95 0 0 0 0 8c0 4.42 3.58 8 8 8 .55 0 1-.45 1-1s-.45-1-1-1zM8 2a5.9 5.9 0 0 1 2.95.81l1.47-1.47A7.893 7.893 0 0 0 8 0c-.55 0-1 .45-1 1s.45 1 1 1zm2.71 6.71 5-5a1.003 1.003 0 0 0-1.42-1.42L10 6.59l-1.29-1.3a1.003 1.003 0 0 0-1.42 1.42l2 2c.18.18.43.29.71.29s.53-.11.71-.29zM16 8c0-.55-.06-1.08-.16-1.6l-1.87 1.87A5.966 5.966 0 0 1 12 12.45V11c0-.55-.45-1-1-1s-1 .45-1 1v4c0 .55.45 1 1 1h4c.55 0 1-.45 1-1s-.45-1-1-1h-1.74A7.95 7.95 0 0 0 16 8z" clip-rule="evenodd"/></svg>