<svg xmlns="http://www.w3.org/2000/svg" xml:space="preserve" viewBox="0 0 16 16"><path fill-rule="evenodd" d="M14 10a1 1 0 1 1 0 2h-.585l2.292 2.293a1 1 0 0 1-1.32 1.497l-.094-.083L12 13.415V14a1 1 0 1 1-2 0l.003-3.075.012-.1.012-.059.033-.108.034-.081.052-.098.067-.096.08-.09a1.01 1.01 0 0 1 .112-.097l.11-.071.143-.065.076-.024.091-.02.116-.014L14 10ZM6.036 6.136l-3.45 3.45-.117.127a2 2 0 0 0 2.818 2.818l.127-.117 3.45-3.449a4 4 0 0 1-.885 3.704l-.15.16-1 1A4 4 0 0 1 1.02 8.33l.15-.16 1-1a3.998 3.998 0 0 1 3.865-1.035Zm4.671-1.843a1 1 0 0 1 .083 1.32l-.083.094-5 5a1 1 0 0 1-1.497-1.32l.083-.094 5-5a1 1 0 0 1 1.414 0Zm3.121-3.121a4 4 0 0 1 .151 5.497l-.15.16-1 1a3.998 3.998 0 0 1-3.864 1.036l3.45-3.45.116-.128a2 2 0 0 0-2.818-2.818l-.127.117-3.45 3.45A4 4 0 0 1 7.02 2.33l.15-.16 1-1a4 4 0 0 1 5.657 0Z" clip-rule="evenodd"/></svg>