<?xml version="1.0" encoding="utf-8"?>
<!-- Generator: Adobe Illustrator 18.0.0, SVG Export Plug-In . SVG Version: 6.00 Build 0)  -->
<svg version="1.1" id="Layer_1" xmlns="http://www.w3.org/2000/svg" xmlns:xlink="http://www.w3.org/1999/xlink" x="0px" y="0px"
	 viewBox="0 0 16 16" enable-background="new 0 0 16 16" xml:space="preserve">
<g id="bank_account_2_">
	<g id="pt-icon-bank-account-copy">
		<g id="bank-account" transform="translate(0.000000, 1.000000)">
			<path id="Shape_4_" d="M15.36,5.46l-0.62-0.14c-0.31-1.12-0.98-2.15-1.87-2.99l0.4-1.77c0.09-0.33-0.18-0.61-0.49-0.56
				c-0.85,0.09-1.6,0.42-2.14,0.98C9.8,0.66,8.77,0.47,7.79,0.47c-2.49,0-4.63,1.17-5.92,2.89C1.69,3.32,1.51,3.27,1.34,3.27
				C0.58,3.27,0,3.88,0,4.67C0,5.23,0.31,5.7,0.76,5.93C0.71,6.26,0.67,6.63,0.67,7c0,1.68,0.71,3.17,1.83,4.34l-0.27,1.59
				C2.14,13.49,2.58,14,3.12,14H3.7c0.45,0,0.8-0.33,0.89-0.79l0.04-0.37c0.94,0.42,2,0.7,3.16,0.7c1.11,0,2.23-0.23,3.16-0.7
				L11,13.21c0.09,0.47,0.45,0.79,0.89,0.79h0.58c0.53,0,0.98-0.51,0.89-1.07l-0.27-1.54c0.62-0.61,1.07-1.35,1.38-2.15l0.8-0.19
				c0.4-0.09,0.71-0.47,0.71-0.93V6.4C16.07,5.93,15.76,5.56,15.36,5.46z M12,7c-0.6,0-1-0.7-1-1.5S11.4,4,12,4s1,0.7,1,1.5
				S12.6,7,12,7z M6.21,3.92c-0.41,0.2-0.91,0.04-1.12-0.36c-0.21-0.4-0.04-0.88,0.37-1.07c1.35-0.65,2.73-0.65,4.08,0
				c0.41,0.2,0.58,0.68,0.37,1.07c-0.21,0.4-0.71,0.56-1.12,0.36C7.92,3.49,7.08,3.49,6.21,3.92z"/>
		</g>
	</g>
</g>
</svg>
