<?xml version="1.0" encoding="utf-8"?>
<!-- Generator: Adobe Illustrator 18.0.0, SVG Export Plug-In . SVG Version: 6.00 Build 0)  -->
<svg version="1.1" id="Rectangle_1_1_" xmlns="http://www.w3.org/2000/svg" xmlns:xlink="http://www.w3.org/1999/xlink" x="0px"
	 y="0px" viewBox="0 0 16 16" enable-background="new 0 0 16 16" xml:space="preserve">
<g id="Rectangle_1">
	<g>
		<path fill-rule="evenodd" clip-rule="evenodd" d="M11.7,7C11.9,6.6,12,6,12,5.5c0-0.1,0-0.3,0-0.4C12,5,12,5,12,5
			c0-0.1,0-0.2-0.1-0.3c0,0,0-0.1,0-0.1C11.4,3.1,10.1,2,8.5,2H4C3.5,2,3,2.4,3,3v10c0,0.5,0.4,1,1,1h5c2.2,0,4-1.8,4-4
			C13,8.8,12.5,7.7,11.7,7z M6,5h2c0.6,0,1,0.4,1,1S8.6,7,8,7H6V5z M9,11H6V9h3c0.6,0,1,0.4,1,1S9.6,11,9,11z"/>
	</g>
</g>
</svg>
