<?xml version="1.0" encoding="utf-8"?>
<!-- Generator: Adobe Illustrator 18.1.0, SVG Export Plug-In . SVG Version: 6.00 Build 0)  -->
<svg version="1.1" id="Layer_1" xmlns="http://www.w3.org/2000/svg" xmlns:xlink="http://www.w3.org/1999/xlink" x="0px" y="0px"
	 viewBox="0 0 16 16" enable-background="new 0 0 16 16" xml:space="preserve">
<g id="box">
	<g>
		<path fill-rule="evenodd" clip-rule="evenodd" d="M6,10h4c0.55,0,1-0.45,1-1c0-0.55-0.45-1-1-1H6C5.45,8,5,8.45,5,9
			C5,9.55,5.45,10,6,10z M15.93,5.63L15.93,5.63l0-0.02c0,0,0,0,0,0l-1.99-4.98l0,0C13.78,0.26,13.42,0,13,0H3
			C2.58,0,2.22,0.26,2.07,0.63l0,0L0.08,5.61c0,0,0,0,0,0L0.07,5.63l0,0C0.03,5.74,0,5.87,0,6v9c0,0.55,0.45,1,1,1h14
			c0.55,0,1-0.45,1-1V6C16,5.87,15.97,5.74,15.93,5.63z M9,2h3.32l1.2,3H9V2z M3.68,2H7v3H2.48L3.68,2z M14,14H2V7h12V14z"/>
	</g>
</g>
</svg>
