<svg xmlns="http://www.w3.org/2000/svg" width="16" height="16"><path d="M13.928.629A1 1 0 0 0 12.89.006l-9 1a1 1 0 0 0-.747.48L.431 6.005A.5.5 0 0 0 0 6.5v3a.5.5 0 0 0 .5.5h2.798c.341 0 .672.116.938.329l1.952 1.561A.5.5 0 0 0 6.5 12H10a.5.5 0 0 0 .4-.2l.9-1.2a1.5 1.5 0 0 1 1.2-.6h3a.5.5 0 0 0 .5-.5v-4a.5.5 0 0 0-.308-.462L13.928.628ZM12.36 2.094l-.006-.016-3.166.352 1.121 3.083 2.052-3.419Zm.467 1.166-1.649 2.748 2.51-.594-.861-2.154ZM9.603 6.496 8.166 2.543l-3.563.396L2.766 6H3.5a.5.5 0 0 1 .367.16L6.218 8.7h1.914l1.452-2.177a.5.5 0 0 1 .019-.027ZM2.5 16a2.5 2.5 0 1 0 0-5 2.5 2.5 0 0 0 0 5Zm11 0a2.5 2.5 0 1 0 0-5 2.5 2.5 0 0 0 0 5Z" clip-rule="evenodd"/></svg>