<?xml version="1.0" encoding="utf-8"?>
<!-- Generator: Adobe Illustrator 18.0.0, SVG Export Plug-In . SVG Version: 6.00 Build 0)  -->
<svg version="1.1" id="Layer_1" xmlns="http://www.w3.org/2000/svg" xmlns:xlink="http://www.w3.org/1999/xlink" x="0px" y="0px"
	 viewBox="0 0 16 16" enable-background="new 0 0 16 16" xml:space="preserve">
<g id="Rectangle_1_4_">
	<g>
		<path fill-rule="evenodd" clip-rule="evenodd" d="M15.39,12.41L7.7,6l1.07-1.1c0.34-0.34-0.12-0.63,0.12-1.26
			c0.88-2.17,3.41-2.35,3.41-2.35s0.36-0.37,0.71-0.72C9.74-0.81,7.53,0.53,6.54,1.4L3.12,4.9L2.41,5.62c-0.39,0.4-0.39,1.05,0,1.45
			L1.71,7.79c-0.39-0.4-1.02-0.4-1.41,0s-0.39,1.05,0,1.45l1.41,1.45c0.39,0.4,1.02,0.4,1.41,0s0.39-1.05,0-1.45l0.71-0.72
			c0.39,0.4,1.02,0.4,1.41,0l0.8-0.82l6.39,7.67c0.82,0.82,2.14,0.82,2.96,0C16.2,14.55,16.2,13.22,15.39,12.41z"/>
	</g>
</g>
</svg>
