<?xml version="1.0" encoding="utf-8"?>
<!-- Generator: Adobe Illustrator 18.1.0, SVG Export Plug-In . SVG Version: 6.00 Build 0)  -->
<svg version="1.1" id="Layer_1" xmlns="http://www.w3.org/2000/svg" xmlns:xlink="http://www.w3.org/1999/xlink" x="0px" y="0px"
	 viewBox="0 0 16 16" enable-background="new 0 0 16 16" xml:space="preserve">
<g id="camera">
	<g>
		<path fill-rule="evenodd" clip-rule="evenodd" d="M15,3h-2.59l-1.71-1.71C10.53,1.11,10.28,1,10,1H6C5.72,1,5.47,1.11,5.29,1.29
			L3.59,3H1C0.45,3,0,3.45,0,4v7c0,0.55,0.45,1,1,1h2.56c1.1,1.22,2.67,2,4.44,2s3.34-0.78,4.44-2H15c0.55,0,1-0.45,1-1V4
			C16,3.45,15.55,3,15,3z M3,6H1V5h2V6z M8,12c-2.21,0-4-1.79-4-4c0-2.21,1.79-4,4-4s4,1.79,4,4C12,10.21,10.21,12,8,12z M8,6
			C6.9,6,6,6.9,6,8c0,1.1,0.9,2,2,2s2-0.9,2-2C10,6.9,9.1,6,8,6z"/>
	</g>
</g>
</svg>
