<svg xmlns="http://www.w3.org/2000/svg" xml:space="preserve" viewBox="0 0 16 16"><path d="M8.97 6.76c-.01-.05-.04-.08-.06-.13-.02-.05-.03-.1-.05-.15.08-.14.14-.3.14-.48 0-.55-.45-1-1-1s-1 .45-1 1c0 .18.06.34.14.48-.03.05-.03.1-.05.15-.02.05-.05.08-.06.13l-2 8c-.13.54.19 1.08.73 1.21a.995.995 0 0 0 1.21-.73L7.53 13h.94l.56 2.24a1 1 0 0 0 1.94-.48l-2-8zM3.72 1.7C4.1 1.3 4.09.67 3.7.28S2.67-.09 2.28.3c-3.05 3.12-3.05 8.28 0 11.4a.996.996 0 1 0 1.43-1.39c-2.28-2.35-2.28-6.27.01-8.61zM11.6 3.2c-.44-.33-1.07-.24-1.4.2-.33.44-.24 1.07.2 1.4.43.32.53 1.96-.04 2.43-.42.35-.48.98-.13 1.41.35.42.98.48 1.41.13 1.59-1.33 1.39-4.5-.04-5.57z"/><path d="M13.72.3c-.39-.4-1.02-.4-1.41-.02s-.41 1.02-.03 1.42c2.29 2.34 2.29 6.26 0 8.6-.39.39-.38 1.03.02 1.41s1.03.38 1.41-.02c3.05-3.11 3.05-8.27.01-11.39zM5.4 7.23c-.57-.47-.47-2.11-.04-2.43.44-.33.53-.96.2-1.4s-.96-.53-1.4-.2c-1.44 1.07-1.63 4.24-.04 5.57.42.35 1.05.3 1.41-.13.35-.42.29-1.06-.13-1.41z"/></svg>