<svg xmlns="http://www.w3.org/2000/svg" xml:space="preserve" viewBox="0 0 16 16"><path fill-rule="evenodd" d="m8.29 7.71 3 3c.18.18.43.29.71.29s.53-.11.71-.29l3-3a1.003 1.003 0 0 0-1.42-1.42L13 7.59V1c0-.55-.45-1-1-1s-1 .45-1 1v6.59l-1.29-1.3a1.003 1.003 0 0 0-1.42 1.42zM14.5 13h-13c-.83 0-1.5.67-1.5 1.5S.67 16 1.5 16h13c.83 0 1.5-.67 1.5-1.5s-.67-1.5-1.5-1.5zM1 5c.28 0 .53-.11.71-.29L3 3.41V10c0 .55.45 1 1 1s1-.45 1-1V3.41L6.29 4.7c.18.19.43.3.71.3a1.003 1.003 0 0 0 .71-1.71l-3-3C4.53.11 4.28 0 4 0s-.53.11-.71.29l-3 3A1.003 1.003 0 0 0 1 5z" clip-rule="evenodd"/></svg>