<?xml version="1.0" encoding="utf-8"?>
<!-- Generator: Adobe Illustrator 17.1.0, SVG Export Plug-In . SVG Version: 6.00 Build 0)  -->
<!DOCTYPE svg PUBLIC "-//W3C//DTD SVG 1.1//EN" "http://www.w3.org/Graphics/SVG/1.1/DTD/svg11.dtd">
<svg version="1.1" id="Layer_1" xmlns="http://www.w3.org/2000/svg" xmlns:xlink="http://www.w3.org/1999/xlink" x="0px" y="0px"
	 viewBox="0 0 16 16" enable-background="new 0 0 16 16" xml:space="preserve">
<g id="changes_2_">
	<g>
		<path fill-rule="evenodd" clip-rule="evenodd" d="M8.29,7.71l3,3C11.47,10.89,11.72,11,12,11s0.53-0.11,0.71-0.29l3-3
			C15.89,7.53,16,7.28,16,7c0-0.55-0.45-1-1-1c-0.28,0-0.53,0.11-0.71,0.29L13,7.59V1c0-0.55-0.45-1-1-1s-1,0.45-1,1v6.59L9.71,6.29
			C9.53,6.11,9.28,6,9,6C8.45,6,8,6.45,8,7C8,7.28,8.11,7.53,8.29,7.71z M14.5,13h-13C0.67,13,0,13.67,0,14.5S0.67,16,1.5,16h13
			c0.83,0,1.5-0.67,1.5-1.5S15.33,13,14.5,13z M1,5c0.28,0,0.53-0.11,0.71-0.29L3,3.41V10c0,0.55,0.45,1,1,1s1-0.45,1-1V3.41
			l1.29,1.29C6.47,4.89,6.72,5,7,5c0.55,0,1-0.45,1-1c0-0.28-0.11-0.53-0.29-0.71l-3-3C4.53,0.11,4.28,0,4,0S3.47,0.11,3.29,0.29
			l-3,3C0.11,3.47,0,3.72,0,4C0,4.55,0.45,5,1,5z"/>
	</g>
</g>
</svg>
