<?xml version="1.0" encoding="utf-8"?>
<!-- Generator: Adobe Illustrator 17.1.0, SVG Export Plug-In . SVG Version: 6.00 Build 0)  -->
<!DOCTYPE svg PUBLIC "-//W3C//DTD SVG 1.1//EN" "http://www.w3.org/Graphics/SVG/1.1/DTD/svg11.dtd">
<svg version="1.1" id="Layer_1" xmlns="http://www.w3.org/2000/svg" xmlns:xlink="http://www.w3.org/1999/xlink" x="0px" y="0px"
	 viewBox="0 0 16 16" enable-background="new 0 0 16 16" xml:space="preserve">
<g id="chart">
	<g>
		<path fill-rule="evenodd" clip-rule="evenodd" d="M0,15c0,0.55,0.45,1,1,1h2c0.55,0,1-0.45,1-1V9.4L0,11V15z M6,9.5V15
			c0,0.55,0.45,1,1,1h2c0.55,0,1-0.45,1-1v-5l-1,1L6,9.5z M13,7l-1,1v7c0,0.55,0.45,1,1,1h2c0.55,0,1-0.45,1-1V7.88
			C15.74,7.95,15.42,8,15,8C13.04,8,13,7,13,7z M15,1h-3c-0.55,0-1,0.45-1,1c0,0.55,0.45,1,1,1h0.59L8.8,6.78L5.45,5.11l0,0.01
			C5.31,5.05,5.16,5,5,5S4.69,5.05,4.56,5.11l0-0.01l-4,2l0,0.01C0.23,7.28,0,7.61,0,8c0,0.55,0.45,1,1,1
			c0.16,0,0.31-0.05,0.44-0.11l0,0.01L5,7.12l3.55,1.78l0-0.01C8.69,8.95,8.84,9,9,9c0.28,0,0.53-0.11,0.71-0.29L14,4.41V5
			c0,0.55,0.45,1,1,1s1-0.45,1-1V2C16,1.45,15.55,1,15,1z"/>
	</g>
</g>
</svg>
