<?xml version="1.0" encoding="utf-8"?>
<!-- Generator: Adobe Illustrator 18.1.0, SVG Export Plug-In . SVG Version: 6.00 Build 0)  -->
<svg version="1.1" id="Layer_1" xmlns="http://www.w3.org/2000/svg" xmlns:xlink="http://www.w3.org/1999/xlink" x="0px" y="0px"
	 viewBox="0 0 16 16" enable-background="new 0 0 16 16" xml:space="preserve">
<g id="chat_1_">
	<g>
		<path fill-rule="evenodd" clip-rule="evenodd" d="M6,10c-1.1,0-2-0.9-2-2V3H1C0.45,3,0,3.45,0,4v8c0,0.55,0.45,1,1,1v2
			c0,0.55,0.45,1,1,1c0.28,0,0.53-0.11,0.71-0.29L5.41,13H10c0.55,0,1-0.45,1-1v-1.17L10.17,10H6z M15,0H6C5.45,0,5,0.45,5,1v7
			c0,0.55,0.45,1,1,1h4.59l2.71,2.71C13.47,11.89,13.72,12,14,12c0.55,0,1-0.45,1-1V9c0.55,0,1-0.45,1-1V1C16,0.45,15.55,0,15,0z"/>
	</g>
</g>
</svg>
