<?xml version="1.0" encoding="utf-8"?>
<!-- Generator: Adobe Illustrator 18.1.0, SVG Export Plug-In . SVG Version: 6.00 Build 0)  -->
<svg version="1.1" id="Layer_1" xmlns="http://www.w3.org/2000/svg" xmlns:xlink="http://www.w3.org/1999/xlink" x="0px" y="0px"
	 viewBox="0 0 16 16" enable-background="new 0 0 16 16" xml:space="preserve">
<g id="chevron_right">
	<g>
		<path fill-rule="evenodd" clip-rule="evenodd" d="M10.71,7.29l-4-4C6.53,3.11,6.28,3,6,3C5.45,3,5,3.45,5,4
			c0,0.28,0.11,0.53,0.29,0.71L8.59,8l-3.29,3.29C5.11,11.47,5,11.72,5,12c0,0.55,0.45,1,1,1c0.28,0,0.53-0.11,0.71-0.29l4-4
			C10.89,8.53,11,8.28,11,8C11,7.72,10.89,7.47,10.71,7.29z"/>
	</g>
</g>
</svg>
