<?xml version="1.0" encoding="utf-8"?>
<!-- Generator: Adobe Illustrator 18.1.0, SVG Export Plug-In . SVG Version: 6.00 Build 0)  -->
<svg version="1.1" id="Layer_1" xmlns="http://www.w3.org/2000/svg" xmlns:xlink="http://www.w3.org/1999/xlink" x="0px" y="0px"
	 viewBox="0 0 16 16" enable-background="new 0 0 16 16" xml:space="preserve">
<g id="chevron_left">
	<g>
		<path fill-rule="evenodd" clip-rule="evenodd" d="M7.41,8l3.29-3.29C10.89,4.53,11,4.28,11,4c0-0.55-0.45-1-1-1
			C9.72,3,9.47,3.11,9.29,3.29l-4,4C5.11,7.47,5,7.72,5,8c0,0.28,0.11,0.53,0.29,0.71l4,4C9.47,12.89,9.72,13,10,13
			c0.55,0,1-0.45,1-1c0-0.28-0.11-0.53-0.29-0.71L7.41,8z"/>
	</g>
</g>
</svg>
