<?xml version="1.0" encoding="utf-8"?>
<!-- Generator: Adobe Illustrator 18.1.0, SVG Export Plug-In . SVG Version: 6.00 Build 0)  -->
<svg version="1.1" id="Layer_1" xmlns="http://www.w3.org/2000/svg" xmlns:xlink="http://www.w3.org/1999/xlink" x="0px" y="0px"
	 viewBox="0 0 16 16" enable-background="new 0 0 16 16" xml:space="preserve">
<g id="circle_arrow_up_2_">
	<g>
		<path fill-rule="evenodd" clip-rule="evenodd" d="M8.71,4.29C8.53,4.11,8.28,4,8,4S7.47,4.11,7.29,4.29l-3,3C4.11,7.47,4,7.72,4,8
			c0,0.55,0.45,1,1,1c0.28,0,0.53-0.11,0.71-0.29L7,7.41V11c0,0.55,0.45,1,1,1s1-0.45,1-1V7.41l1.29,1.29C10.47,8.89,10.72,9,11,9
			c0.55,0,1-0.45,1-1c0-0.28-0.11-0.53-0.29-0.71L8.71,4.29z M8,0C3.58,0,0,3.58,0,8s3.58,8,8,8s8-3.58,8-8S12.42,0,8,0z M8,14
			c-3.31,0-6-2.69-6-6s2.69-6,6-6s6,2.69,6,6S11.31,14,8,14z"/>
	</g>
</g>
</svg>
