<?xml version="1.0" encoding="utf-8"?>
<!-- Generator: Adobe Illustrator 18.1.0, SVG Export Plug-In . SVG Version: 6.00 Build 0)  -->
<svg version="1.1" id="Layer_1" xmlns="http://www.w3.org/2000/svg" xmlns:xlink="http://www.w3.org/1999/xlink" x="0px" y="0px"
	 viewBox="0 0 16 16" enable-background="new 0 0 16 16" xml:space="preserve">
<g id="circle_arrow_down_2_">
	<g>
		<path fill-rule="evenodd" clip-rule="evenodd" d="M11,7c-0.28,0-0.53,0.11-0.71,0.29L9,8.59V5c0-0.55-0.45-1-1-1S7,4.45,7,5v3.59
			L5.71,7.29C5.53,7.11,5.28,7,5,7C4.45,7,4,7.45,4,8c0,0.28,0.11,0.53,0.29,0.71l3,3C7.47,11.89,7.72,12,8,12s0.53-0.11,0.71-0.29
			l3-3C11.89,8.53,12,8.28,12,8C12,7.45,11.55,7,11,7z M8,0C3.58,0,0,3.58,0,8s3.58,8,8,8s8-3.58,8-8S12.42,0,8,0z M8,14
			c-3.31,0-6-2.69-6-6s2.69-6,6-6s6,2.69,6,6S11.31,14,8,14z"/>
	</g>
</g>
</svg>
