<?xml version="1.0" encoding="utf-8"?>
<!-- Generator: Adobe Illustrator 18.1.0, SVG Export Plug-In . SVG Version: 6.00 Build 0)  -->
<svg version="1.1" id="Layer_1" xmlns="http://www.w3.org/2000/svg" xmlns:xlink="http://www.w3.org/1999/xlink" x="0px" y="0px"
	 viewBox="0 0 16 16" enable-background="new 0 0 16 16" xml:space="preserve">
<g id="circle_arrow_left_2_">
	<g>
		<path fill-rule="evenodd" clip-rule="evenodd" d="M11,7H7.41l1.29-1.29C8.89,5.53,9,5.28,9,5c0-0.55-0.45-1-1-1
			C7.72,4,7.47,4.11,7.29,4.29l-3,3C4.11,7.47,4,7.72,4,8c0,0.28,0.11,0.53,0.29,0.71l3,3C7.47,11.89,7.72,12,8,12
			c0.55,0,1-0.45,1-1c0-0.28-0.11-0.53-0.29-0.71L7.41,9H11c0.55,0,1-0.45,1-1C12,7.45,11.55,7,11,7z M8,0C3.58,0,0,3.58,0,8
			s3.58,8,8,8s8-3.58,8-8S12.42,0,8,0z M8,14c-3.31,0-6-2.69-6-6s2.69-6,6-6s6,2.69,6,6S11.31,14,8,14z"/>
	</g>
</g>
</svg>
