<?xml version="1.0" encoding="utf-8"?>
<!-- Generator: Adobe Illustrator 17.1.0, SVG Export Plug-In . SVG Version: 6.00 Build 0)  -->
<!DOCTYPE svg PUBLIC "-//W3C//DTD SVG 1.1//EN" "http://www.w3.org/Graphics/SVG/1.1/DTD/svg11.dtd">
<svg version="1.1" id="Layer_1" xmlns="http://www.w3.org/2000/svg" xmlns:xlink="http://www.w3.org/1999/xlink" x="0px" y="0px"
	 viewBox="0 0 16 16" enable-background="new 0 0 16 16" xml:space="preserve">
<g id="citation_2_">
	<g>
		<path fill-rule="evenodd" clip-rule="evenodd" d="M15.02,5c0-1.66-1.34-3-3-3s-3,1.34-3,3s1.34,3,3,3c0.21,0,0.41-0.02,0.6-0.06
			C12.1,9.76,11.14,11,10.02,11c-0.55,0-1,0.45-1,1c0,0.55,0.45,1,1,1c2.76,0,5-3.13,5-7c0-0.2-0.02-0.39-0.04-0.58
			C14.99,5.28,15.02,5.14,15.02,5z M4.02,2c-1.66,0-3,1.34-3,3s1.34,3,3,3c0.21,0,0.41-0.02,0.6-0.06C4.1,9.76,3.14,11,2.02,11
			c-0.55,0-1,0.45-1,1c0,0.55,0.45,1,1,1c2.76,0,5-3.13,5-7c0-0.2-0.02-0.39-0.04-0.58C6.99,5.28,7.02,5.14,7.02,5
			C7.02,3.34,5.67,2,4.02,2z"/>
	</g>
</g>
</svg>
