<?xml version="1.0" encoding="utf-8"?>
<!-- Generator: Adobe Illustrator 17.1.0, SVG Export Plug-In . SVG Version: 6.00 Build 0)  -->
<!DOCTYPE svg PUBLIC "-//W3C//DTD SVG 1.1//EN" "http://www.w3.org/Graphics/SVG/1.1/DTD/svg11.dtd">
<svg version="1.1" id="Layer_1" xmlns="http://www.w3.org/2000/svg" xmlns:xlink="http://www.w3.org/1999/xlink" x="0px" y="0px"
	 viewBox="0 0 16 16" enable-background="new 0 0 16 16" xml:space="preserve">
<g id="clipboard_3_">
	<g>
		<path fill-rule="evenodd" clip-rule="evenodd" d="M11,2c0-0.55-0.45-1-1-1h0.22C9.88,0.4,9.24,0,8.5,0S7.12,0.4,6.78,1H7
			C6.45,1,6,1.45,6,2v1h5V2z M13,2h-1v2H5V2H4C3.45,2,3,2.45,3,3v12c0,0.55,0.45,1,1,1h9c0.55,0,1-0.45,1-1V3C14,2.45,13.55,2,13,2z
			"/>
	</g>
</g>
</svg>
