<?xml version="1.0" encoding="utf-8"?>
<!-- Generator: Adobe Illustrator 18.1.0, SVG Export Plug-In . SVG Version: 6.00 Build 0)  -->
<svg version="1.1" id="Layer_1" xmlns="http://www.w3.org/2000/svg" xmlns:xlink="http://www.w3.org/1999/xlink" x="0px" y="0px"
	 viewBox="0 0 16 16" enable-background="new 0 0 16 16" xml:space="preserve">
<g id="cloud_download">
	<g>
		<path fill-rule="evenodd" clip-rule="evenodd" d="M11,11c-0.28,0-0.53,0.11-0.71,0.29L9,12.59V8c0-0.55-0.45-1-1-1S7,7.45,7,8
			v4.59l-1.29-1.29C5.53,11.11,5.28,11,5,11c-0.55,0-1,0.45-1,1c0,0.28,0.11,0.53,0.29,0.71l3,3C7.47,15.89,7.72,16,8,16
			s0.53-0.11,0.71-0.29l3-3C11.89,12.53,12,12.28,12,12C12,11.45,11.55,11,11,11z M12,4c-0.03,0-0.07,0-0.1,0.01
			C11.44,1.72,9.42,0,7,0C4.24,0,2,2.24,2,5c0,0.11,0.01,0.22,0.02,0.33C0.83,5.89,0,7.1,0,8.5c0,1.41,0.84,2.61,2.03,3.17
			C2.2,10.17,3.46,9,5,9c0.06,0,0.13,0.02,0.19,0.02C5.07,8.7,5,8.36,5,8c0-1.66,1.34-3,3-3s3,1.34,3,3c0,0.36-0.07,0.7-0.19,1.02
			C10.87,9.02,10.94,9,11,9c1.48,0,2.7,1.07,2.95,2.47C15.17,10.79,16,9.5,16,8C16,5.79,14.21,4,12,4z"/>
	</g>
</g>
</svg>
