<svg xmlns="http://www.w3.org/2000/svg" xml:space="preserve" viewBox="0 0 16 16"><path fill-rule="evenodd" d="m15.71 7.29-3-3a1.003 1.003 0 0 0-1.42 1.42L13.59 8l-2.29 2.29c-.19.18-.3.43-.3.71a1.003 1.003 0 0 0 1.71.71l3-3c.18-.18.29-.43.29-.71 0-.28-.11-.53-.29-.71zM5 5a1.003 1.003 0 0 0-1.71-.71l-3 3C.11 7.47 0 7.72 0 8c0 .28.11.53.29.71l3 3a1.003 1.003 0 0 0 1.42-1.42L2.41 8 4.7 5.71c.19-.18.3-.43.3-.71zm4-3c-.48 0-.87.35-.96.81l-2 10c-.01.06-.04.12-.04.19 0 .55.45 1 1 1 .48 0 .87-.35.96-.81l2-10c.01-.06.04-.12.04-.19 0-.55-.45-1-1-1z" clip-rule="evenodd"/></svg>