<svg xmlns="http://www.w3.org/2000/svg" xml:space="preserve" viewBox="0 0 16 16"><path fill-rule="evenodd" d="M15.19 6.39h-1.85c-.11-.37-.27-.71-.45-1.04l1.36-1.36c.31-.31.31-.82 0-1.13l-1.13-1.13a.803.803 0 0 0-1.13 0l-1.36 1.36c-.33-.17-.67-.33-1.04-.44V.79c0-.44-.36-.8-.8-.8h-1.6c-.44 0-.8.36-.8.8v1.86c-.39.12-.75.28-1.1.47l-1.3-1.3c-.3-.3-.79-.3-1.09 0L1.82 2.91c-.3.3-.3.79 0 1.09l1.3 1.3c-.2.34-.36.7-.48 1.09H.79c-.44 0-.8.36-.8.8v1.6c0 .44.36.8.8.8h1.85c.11.37.27.71.45 1.04l-1.36 1.36c-.31.31-.31.82 0 1.13l1.13 1.13c.31.31.82.31 1.13 0l1.36-1.36c.33.18.67.33 1.04.44v1.86c0 .44.36.8.8.8h1.6c.44 0 .8-.36.8-.8v-1.86c.39-.12.75-.28 1.1-.47l1.3 1.3c.3.3.79.3 1.09 0l1.09-1.09c.3-.3.3-.79 0-1.09l-1.3-1.3c.19-.35.36-.71.48-1.1h1.85c.44 0 .8-.36.8-.8v-1.6a.816.816 0 0 0-.81-.79zm-7.2 4.6c-1.66 0-3-1.34-3-3s1.34-3 3-3 3 1.34 3 3-1.34 3-3 3z" clip-rule="evenodd"/></svg>