<?xml version="1.0" encoding="utf-8"?>
<!-- Generator: Adobe Illustrator 17.1.0, SVG Export Plug-In . SVG Version: 6.00 Build 0)  -->
<!DOCTYPE svg PUBLIC "-//W3C//DTD SVG 1.1//EN" "http://www.w3.org/Graphics/SVG/1.1/DTD/svg11.dtd">
<svg version="1.1" id="Layer_1" xmlns="http://www.w3.org/2000/svg" xmlns:xlink="http://www.w3.org/1999/xlink" x="0px" y="0px"
	 viewBox="0 0 16 16" enable-background="new 0 0 16 16" xml:space="preserve">
<g id="cog_1_">
	<g>
		<path fill-rule="evenodd" clip-rule="evenodd" d="M15.19,6.39h-1.85c-0.11-0.37-0.27-0.71-0.45-1.04l1.36-1.36
			c0.31-0.31,0.31-0.82,0-1.13l-1.13-1.13c-0.31-0.31-0.82-0.31-1.13,0l-1.36,1.36C10.3,2.92,9.96,2.76,9.59,2.65V0.79
			c0-0.44-0.36-0.8-0.8-0.8h-1.6c-0.44,0-0.8,0.36-0.8,0.8v1.86c-0.39,0.12-0.75,0.28-1.1,0.47l-1.3-1.3c-0.3-0.3-0.79-0.3-1.09,0
			L1.82,2.91c-0.3,0.3-0.3,0.79,0,1.09l1.3,1.3C2.92,5.64,2.76,6,2.64,6.39H0.79c-0.44,0-0.8,0.36-0.8,0.8v1.6
			c0,0.44,0.36,0.8,0.8,0.8h1.85c0.11,0.37,0.27,0.71,0.45,1.04l-1.36,1.36c-0.31,0.31-0.31,0.82,0,1.13l1.13,1.13
			c0.31,0.31,0.82,0.31,1.13,0l1.36-1.36c0.33,0.18,0.67,0.33,1.04,0.44v1.86c0,0.44,0.36,0.8,0.8,0.8h1.6c0.44,0,0.8-0.36,0.8-0.8
			v-1.86c0.39-0.12,0.75-0.28,1.1-0.47l1.3,1.3c0.3,0.3,0.79,0.3,1.09,0l1.09-1.09c0.3-0.3,0.3-0.79,0-1.09l-1.3-1.3
			c0.19-0.35,0.36-0.71,0.48-1.1h1.85c0.44,0,0.8-0.36,0.8-0.8v-1.6C15.99,6.75,15.63,6.39,15.19,6.39z M7.99,10.99
			c-1.66,0-3-1.34-3-3s1.34-3,3-3s3,1.34,3,3S9.65,10.99,7.99,10.99z"/>
	</g>
</g>
</svg>
