<?xml version="1.0" encoding="utf-8"?>
<!-- Generator: Adobe Illustrator 18.0.0, SVG Export Plug-In . SVG Version: 6.00 Build 0)  -->
<svg version="1.1" id="Layer_1" xmlns="http://www.w3.org/2000/svg" xmlns:xlink="http://www.w3.org/1999/xlink" x="0px" y="0px"
	 viewBox="0 0 16 16" enable-background="new 0 0 16 16" xml:space="preserve">
<g id="collapse_all_1_">
	<g>
		<path fill-rule="evenodd" clip-rule="evenodd" d="M7.29,6.71C7.47,6.89,7.72,7,8,7s0.53-0.11,0.71-0.29l4-4
			C12.89,2.53,13,2.28,13,2c0-0.55-0.45-1-1-1c-0.28,0-0.53,0.11-0.71,0.29L8,4.59L4.71,1.29C4.53,1.11,4.28,1,4,1
			C3.45,1,3,1.45,3,2c0,0.28,0.11,0.53,0.29,0.71L7.29,6.71z M8.71,9.29C8.53,9.11,8.28,9,8,9S7.47,9.11,7.29,9.29l-4,4
			C3.11,13.47,3,13.72,3,14c0,0.55,0.45,1,1,1c0.28,0,0.53-0.11,0.71-0.29L8,11.41l3.29,3.29C11.47,14.89,11.72,15,12,15
			c0.55,0,1-0.45,1-1c0-0.28-0.11-0.53-0.29-0.71L8.71,9.29z"/>
	</g>
</g>
</svg>
