<?xml version="1.0" encoding="utf-8"?>
<!-- Generator: Adobe Illustrator 18.1.0, SVG Export Plug-In . SVG Version: 6.00 Build 0)  -->
<svg version="1.1" id="Layer_1" xmlns="http://www.w3.org/2000/svg" xmlns:xlink="http://www.w3.org/1999/xlink" x="0px" y="0px"
	 viewBox="0 0 16 16" enable-background="new 0 0 16 16" xml:space="preserve">
<g id="comment">
	<g>
		<path fill-rule="evenodd" clip-rule="evenodd" d="M14,1H1C0.45,1,0,1.45,0,2v9c0,0.55,0.45,1,1,1h2v3c0,0.55,0.45,1,1,1
			c0.28,0,0.53-0.11,0.71-0.29L8.41,12H14c0.55,0,1-0.45,1-1V2C15,1.45,14.55,1,14,1z M3.5,8C2.67,8,2,7.33,2,6.5S2.67,5,3.5,5
			S5,5.67,5,6.5S4.33,8,3.5,8z M7.5,8C6.67,8,6,7.33,6,6.5S6.67,5,7.5,5S9,5.67,9,6.5S8.33,8,7.5,8z M11.5,8C10.67,8,10,7.33,10,6.5
			S10.67,5,11.5,5S13,5.67,13,6.5S12.33,8,11.5,8z"/>
	</g>
</g>
</svg>
