<?xml version="1.0" encoding="utf-8"?>
<!-- Generator: Adobe Illustrator 18.0.0, SVG Export Plug-In . SVG Version: 6.00 Build 0)  -->
<svg version="1.1" id="Layer_1" xmlns="http://www.w3.org/2000/svg" xmlns:xlink="http://www.w3.org/1999/xlink" x="0px" y="0px"
	 viewBox="0 0 16 16" enable-background="new 0 0 16 16" xml:space="preserve">
<path id="compass_2_" fill-rule="evenodd" clip-rule="evenodd" d="M12,8c0,0.14-0.03,0.27-0.08,0.39l0,0l-3,6.99c0,0,0,0,0,0l0,0
	l0,0C8.77,15.75,8.41,16,8,16s-0.77-0.25-0.92-0.61l0,0l0,0c0,0,0,0,0,0l-3-6.99l0,0C4.03,8.27,4,8.14,4,8s0.03-0.27,0.08-0.39l0,0
	l3-6.99c0,0,0,0,0,0l0,0l0,0C7.23,0.25,7.59,0,8,0s0.77,0.25,0.92,0.61l0,0l0,0c0,0,0,0,0,0l3,6.99l0,0C11.97,7.73,12,7.86,12,8z
	 M8,3.54L6.09,8h3.82L8,3.54z"/>
</svg>
