<?xml version="1.0" encoding="utf-8"?>
<!-- Generator: Adobe Illustrator 18.1.0, SVG Export Plug-In . SVG Version: 6.00 Build 0)  -->
<svg version="1.1" id="Layer_1" xmlns="http://www.w3.org/2000/svg" xmlns:xlink="http://www.w3.org/1999/xlink" x="0px" y="0px"
	 viewBox="0 0 16 16" enable-background="new 0 0 16 16" xml:space="preserve">
<g id="compressed">
	<g>
		<path fill-rule="evenodd" clip-rule="evenodd" d="M15.93,5.63L15.93,5.63l0-0.02c0,0,0,0,0,0l-1.99-4.98l0,0
			C13.78,0.26,13.42,0,13,0H3C2.58,0,2.22,0.26,2.07,0.63l0,0L0.08,5.61c0,0,0,0,0,0L0.07,5.63l0,0C0.03,5.74,0,5.87,0,6v9
			c0,0.55,0.45,1,1,1h14c0.55,0,1-0.45,1-1V6C16,5.87,15.97,5.74,15.93,5.63z M9,2h3.32l1.2,3H9V2z M3.68,2H7v3H2.48L3.68,2z M14,14
			H2V7h5v2.59L5.71,8.29C5.53,8.11,5.28,8,5,8C4.45,8,4,8.45,4,9c0,0.28,0.11,0.53,0.29,0.71l3,3C7.47,12.89,7.72,13,8,13
			s0.53-0.11,0.71-0.29l3-3C11.89,9.53,12,9.28,12,9c0-0.55-0.45-1-1-1c-0.28,0-0.53,0.11-0.71,0.29L9,9.59V7h5V14z"/>
	</g>
</g>
</svg>
