<svg xmlns="http://www.w3.org/2000/svg" xml:space="preserve" viewBox="0 0 16 16"><path fill-rule="evenodd" d="M7.99-.01c-.55 0-1 .45-1 1v14c0 .55.45 1 1 1s1-.45 1-1v-14c0-.55-.45-1-1-1zm-3 3h-4c-.55 0-1 .45-1 1v2c0 .55.45 1 1 1h4c.55 0 1-.45 1-1v-2c0-.55-.45-1-1-1zm10 0h-4c-.55 0-1 .45-1 1v2c0 .55.45 1 1 1h4c.55 0 1-.45 1-1v-2c0-.55-.45-1-1-1zm0 3h-4v-2h4v2zm0 3h-4c-.55 0-1 .45-1 1v2c0 .55.45 1 1 1h4c.55 0 1-.45 1-1v-2c0-.55-.45-1-1-1zm0 3h-4v-2h4v2zm-10-3h-4c-.55 0-1 .45-1 1v2c0 .55.45 1 1 1h4c.55 0 1-.45 1-1v-2c0-.55-.45-1-1-1z" clip-rule="evenodd"/></svg>