<?xml version="1.0" encoding="utf-8"?>
<!-- Generator: Adobe Illustrator 17.1.0, SVG Export Plug-In . SVG Version: 6.00 Build 0)  -->
<!DOCTYPE svg PUBLIC "-//W3C//DTD SVG 1.1//EN" "http://www.w3.org/Graphics/SVG/1.1/DTD/svg11.dtd">
<svg version="1.1" id="Layer_1" xmlns="http://www.w3.org/2000/svg" xmlns:xlink="http://www.w3.org/1999/xlink" x="0px" y="0px"
	 viewBox="0 0 16 16" enable-background="new 0 0 16 16" xml:space="preserve">
<g id="confirm_1_">
	<g>
		<path fill-rule="evenodd" clip-rule="evenodd" d="M8.7,4.29C8.52,4.1,8.27,3.99,7.99,3.99c-0.55,0-1,0.45-1,1
			c0,0.28,0.11,0.53,0.29,0.71l2,2c0.18,0.18,0.43,0.29,0.71,0.29s0.53-0.11,0.71-0.29l5-5c0.18-0.18,0.29-0.43,0.29-0.71
			c0-0.55-0.45-1-1-1c-0.28,0-0.53,0.11-0.71,0.29L9.99,5.58L8.7,4.29z M13.92,7.3c0.03,0.23,0.07,0.45,0.07,0.69c0,3.31-2.69,6-6,6
			s-6-2.69-6-6s2.69-6,6-6c0.81,0,1.59,0.17,2.3,0.46l1.5-1.5c-1.13-0.61-2.42-0.96-3.8-0.96c-4.42,0-8,3.58-8,8s3.58,8,8,8
			s8-3.58,8-8c0-0.83-0.13-1.64-0.36-2.39L13.92,7.3z"/>
	</g>
</g>
</svg>
