<?xml version="1.0" encoding="utf-8"?>
<!-- Generator: Adobe Illustrator 18.0.0, SVG Export Plug-In . SVG Version: 6.00 Build 0)  -->
<svg version="1.1" id="Layer_1" xmlns="http://www.w3.org/2000/svg" xmlns:xlink="http://www.w3.org/1999/xlink" x="0px" y="0px"
	 viewBox="0 0 16 16" enable-background="new 0 0 16 16" xml:space="preserve">
<path id="console_1_" fill-rule="evenodd" clip-rule="evenodd" d="M15,15H1c-0.55,0-1-0.45-1-1V2c0-0.55,0.45-1,1-1h14
	c0.55,0,1,0.45,1,1v12C16,14.55,15.55,15,15,15z M14,5H2v8h12V5z M4,6c0.28,0,0.53,0.11,0.71,0.29l0,0l2,2l0,0C6.89,8.47,7,8.72,7,9
	S6.89,9.53,6.71,9.71l0,0l-2,2l0,0C4.53,11.89,4.28,12,4,12c-0.55,0-1-0.45-1-1c0-0.28,0.11-0.53,0.29-0.71l0,0L4.59,9L3.29,7.71
	l0,0C3.11,7.53,3,7.28,3,7C3,6.45,3.45,6,4,6z M9,10h3c0.55,0,1,0.45,1,1s-0.45,1-1,1H9c-0.55,0-1-0.45-1-1S8.45,10,9,10z"/>
</svg>
