<svg xmlns="http://www.w3.org/2000/svg" xml:space="preserve" viewBox="0 0 16 16"><path fill-rule="evenodd" d="M15.2 6.4h-1.44c-.13-.47-.32-.92-.56-1.34L14.26 4c.31-.31.31-.82 0-1.13l-1.13-1.13a.803.803 0 0 0-1.13 0L10.94 2.8c-.42-.24-.86-.42-1.34-.56V.8c0-.44-.36-.8-.8-.8H7.2c-.44 0-.8.36-.8.8v1.44c-.5.14-.96.34-1.4.59l-1-1c-.3-.3-.79-.3-1.09 0L1.83 2.91c-.3.3-.3.79 0 1.09l1 1c-.25.44-.45.9-.59 1.4H.8c-.44 0-.8.36-.8.8v1.6c0 .44.36.8.8.8h1.44c.13.47.32.92.56 1.34L1.74 12c-.31.31-.31.82 0 1.13l1.13 1.13c.31.31.82.31 1.13 0l1.06-1.06c.42.24.86.42 1.34.56v1.44c0 .44.36.8.8.8h1.6c.44 0 .8-.36.8-.8v-1.44c.5-.14.96-.33 1.4-.59l1 1c.3.3.79.3 1.09 0l1.09-1.09c.3-.3.3-.79 0-1.09l-1-1c.25-.43.45-.9.59-1.4h1.44c.44 0 .8-.36.8-.8V7.2a.818.818 0 0 0-.81-.8zM8 12c-2.21 0-4-1.79-4-4s1.79-4 4-4v8z" clip-rule="evenodd"/></svg>