<?xml version="1.0" encoding="utf-8"?>
<!-- Generator: Adobe Illustrator 18.1.0, SVG Export Plug-In . SVG Version: 6.00 Build 0)  -->
<svg version="1.1" id="Layer_1" xmlns="http://www.w3.org/2000/svg" xmlns:xlink="http://www.w3.org/1999/xlink" x="0px" y="0px"
	 viewBox="0 0 16 16" enable-background="new 0 0 16 16" xml:space="preserve">
<g id="contrast_1_">
	<g>
		<path fill-rule="evenodd" clip-rule="evenodd" d="M15.2,6.4h-1.44c-0.13-0.47-0.32-0.92-0.56-1.34L14.26,4
			c0.31-0.31,0.31-0.82,0-1.13l-1.13-1.13c-0.31-0.31-0.82-0.31-1.13,0L10.94,2.8c-0.42-0.24-0.86-0.42-1.34-0.56V0.8
			C9.6,0.36,9.24,0,8.8,0H7.2C6.76,0,6.4,0.36,6.4,0.8v1.44C5.9,2.38,5.44,2.58,5,2.83l-1-1c-0.3-0.3-0.79-0.3-1.09,0L1.83,2.91
			c-0.3,0.3-0.3,0.79,0,1.09l1,1C2.58,5.44,2.38,5.9,2.24,6.4H0.8C0.36,6.4,0,6.76,0,7.2v1.6c0,0.44,0.36,0.8,0.8,0.8h1.44
			c0.13,0.47,0.32,0.92,0.56,1.34L1.74,12c-0.31,0.31-0.31,0.82,0,1.13l1.13,1.13c0.31,0.31,0.82,0.31,1.13,0l1.06-1.06
			c0.42,0.24,0.86,0.42,1.34,0.56v1.44c0,0.44,0.36,0.8,0.8,0.8h1.6c0.44,0,0.8-0.36,0.8-0.8v-1.44c0.5-0.14,0.96-0.33,1.4-0.59l1,1
			c0.3,0.3,0.79,0.3,1.09,0l1.09-1.09c0.3-0.3,0.3-0.79,0-1.09l-1-1c0.25-0.43,0.45-0.9,0.59-1.4h1.44c0.44,0,0.8-0.36,0.8-0.8V7.2
			C16,6.76,15.64,6.4,15.2,6.4z M8,12c-2.21,0-4-1.79-4-4c0-2.21,1.79-4,4-4V12z"/>
	</g>
</g>
</svg>
