<?xml version="1.0" encoding="utf-8"?>
<!-- Generator: Adobe Illustrator 18.0.0, SVG Export Plug-In . SVG Version: 6.00 Build 0)  -->
<svg version="1.1" id="Layer_1" xmlns="http://www.w3.org/2000/svg" xmlns:xlink="http://www.w3.org/1999/xlink" x="0px" y="0px"
	 viewBox="0 0 16 16" enable-background="new 0 0 16 16" xml:space="preserve">
<g id="cross_mark_5_">
	<g>
		<path fill-rule="evenodd" clip-rule="evenodd" d="M9.41,8l3.29-3.29C12.89,4.53,13,4.28,13,4c0-0.55-0.45-1-1-1
			c-0.28,0-0.53,0.11-0.71,0.29L8,6.59L4.71,3.29C4.53,3.11,4.28,3,4,3C3.45,3,3,3.45,3,4c0,0.28,0.11,0.53,0.29,0.71L6.59,8
			l-3.29,3.29C3.11,11.47,3,11.72,3,12c0,0.55,0.45,1,1,1c0.28,0,0.53-0.11,0.71-0.29L8,9.41l3.29,3.29C11.47,12.89,11.72,13,12,13
			c0.55,0,1-0.45,1-1c0-0.28-0.11-0.53-0.29-0.71L9.41,8z"/>
	</g>
</g>
</svg>
