<?xml version="1.0" encoding="utf-8"?>
<!-- Generator: Adobe Illustrator 18.0.0, SVG Export Plug-In . SVG Version: 6.00 Build 0)  -->
<svg version="1.1" id="Layer_1" xmlns="http://www.w3.org/2000/svg" xmlns:xlink="http://www.w3.org/1999/xlink" x="0px" y="0px"
	 viewBox="0 0 16 16" enable-background="new 0 0 16 16" xml:space="preserve">
<g id="curved_range_chart">
	<g>
		<path fill-rule="evenodd" clip-rule="evenodd" d="M15,12H3.12l1.81-1.39c1.73,1.01,5.53-0.03,9.08-2.61l-1.22-1.5
			C10.3,8.3,7.86,9.37,6.65,9.29L14.3,3.4L13.7,2.6L5.87,8.63c-0.01-1.07,1.8-3.19,4.47-5.13l-1.22-1.5C5.38,4.7,3.34,8.1,4.25,9.87
			L2,11.6V3c0-0.55-0.45-1-1-1S0,2.45,0,3v10c0,0.55,0.45,1,1,1h14c0.55,0,1-0.45,1-1S15.55,12,15,12z"/>
	</g>
</g>
</svg>
