<svg xmlns="http://www.w3.org/2000/svg" xml:space="preserve" viewBox="0 0 16 16"><path d="M13 2s.71-1.29 0-2L8.66 5.07l1.05 1.32L13 2zm.07 8c-.42 0-.82.09-1.18.26L3.31 0c-.69.71 0 2 0 2l3.68 5.02-2.77 3.24A2.996 2.996 0 0 0 0 13c0 1.66 1.34 3 3 3s3-1.34 3-3c0-.46-.11-.89-.29-1.27L8.1 8.54l2.33 3.19c-.18.39-.29.82-.29 1.27 0 1.66 1.31 3 2.93 3S16 14.66 16 13s-1.31-3-2.93-3zM3 14c-.55 0-1-.45-1-1s.45-1 1-1 1 .45 1 1-.45 1-1 1zm10.07 0c-.54 0-.98-.45-.98-1s.44-1 .98-1 .98.45.98 1-.44 1-.98 1z"/></svg>