<?xml version="1.0" encoding="utf-8"?>
<!-- Generator: Adobe Illustrator 18.0.0, SVG Export Plug-In . SVG Version: 6.00 Build 0)  -->
<svg version="1.1" id="Layer_1" xmlns="http://www.w3.org/2000/svg" xmlns:xlink="http://www.w3.org/1999/xlink" x="0px" y="0px"
	 viewBox="0 0 16 16" enable-background="new 0 0 16 16" xml:space="preserve">
<g id="Ellipse_1_copy">
	<g>
		<path d="M13,2c0,0,0.71-1.29,0-2L8.66,5.07l1.05,1.32L13,2z M13.07,10c-0.42,0-0.82,0.09-1.18,0.26L3.31,0c-0.69,0.71,0,2,0,2
			l3.68,5.02l-2.77,3.24C3.84,10.09,3.43,10,3,10c-1.66,0-3,1.34-3,3s1.34,3,3,3s3-1.34,3-3c0-0.46-0.11-0.89-0.29-1.27L8.1,8.54
			l2.33,3.19c-0.18,0.39-0.29,0.82-0.29,1.27c0,1.66,1.31,3,2.93,3c1.62,0,2.93-1.34,2.93-3S14.69,10,13.07,10z M3,14
			c-0.55,0-1-0.45-1-1c0-0.55,0.45-1,1-1s1,0.45,1,1C4,13.55,3.55,14,3,14z M13.07,14c-0.54,0-0.98-0.45-0.98-1
			c0-0.55,0.44-1,0.98-1s0.98,0.45,0.98,1C14.05,13.55,13.61,14,13.07,14z"/>
	</g>
</g>
</svg>
