<?xml version="1.0" encoding="utf-8"?>
<!-- Generator: Adobe Illustrator 18.0.0, SVG Export Plug-In . SVG Version: 6.00 Build 0)  -->
<svg version="1.1" id="Layer_1" xmlns="http://www.w3.org/2000/svg" xmlns:xlink="http://www.w3.org/1999/xlink" x="0px" y="0px"
	 viewBox="0 0 16 16" enable-background="new 0 0 16 16" xml:space="preserve">
<g id="dashboard_2_">
	<g>
		<path fill-rule="evenodd" clip-rule="evenodd" d="M5,4C4.45,4,4,4.45,4,5c0,0.55,0.45,1,1,1s1-0.45,1-1C6,4.45,5.55,4,5,4z M4,7
			C3.45,7,3,7.45,3,8c0,0.55,0.45,1,1,1s1-0.45,1-1C5,7.45,4.55,7,4,7z M8,5c0.55,0,1-0.45,1-1c0-0.55-0.45-1-1-1S7,3.45,7,4
			C7,4.55,7.45,5,8,5z M6,11c0,1.1,0.9,2,2,2s2-0.9,2-2c0-0.53-2-5-2-5S6,10.47,6,11z M8,0C3.58,0,0,3.58,0,8s3.58,8,8,8s8-3.58,8-8
			S12.42,0,8,0z M8,14c-3.31,0-6-2.69-6-6s2.69-6,6-6s6,2.69,6,6S11.31,14,8,14z M12,5c0-0.55-0.45-1-1-1s-1,0.45-1,1
			c0,0.55,0.45,1,1,1S12,5.55,12,5z M12,7c-0.55,0-1,0.45-1,1c0,0.55,0.45,1,1,1s1-0.45,1-1C13,7.45,12.55,7,12,7z"/>
	</g>
</g>
</svg>
