<?xml version="1.0" encoding="UTF-8"?>
<svg viewBox="0 0 16 16" version="1.1" xmlns="http://www.w3.org/2000/svg" xmlns:xlink="http://www.w3.org/1999/xlink">
    <title>Data lineage</title>
    <g stroke="none" stroke-width="1" fill="none" fill-rule="evenodd">
        <g id="data-lineage" fill="#000000" fill-rule="nonzero">
            <path d="M14.9333333,0 C15.522437,0 16,0.477562933 16,1.06666667 L16,3.2 C16,3.78910373 15.522437,4.26666667 14.9333333,4.26666667 L12.6931818,4.26731788 C12.3585563,5.9147478 11.2645526,7.2863557 9.79247478,8.0008378 C11.264872,8.71408901 12.3590309,10.0858974 12.6933995,11.7337629 L14.9333333,11.7333333 C15.522437,11.7333333 16,12.2108963 16,12.8 L16,14.9333333 C16,15.522437 15.522437,16 14.9333333,16 L9.6,16 C9.01089627,16 8.53333333,15.522437 8.53333333,14.9333333 L8.53333333,12.8 C8.53333333,12.2108963 9.01089627,11.7333333 9.6,11.7333333 L11.5990217,11.7337491 C11.1425262,9.95939449 9.57336535,8.6316374 7.67961636,8.538555 L7.46666667,8.53333333 L7.46666667,9.6 C7.46666667,10.1891037 6.98910373,10.6666667 6.4,10.6666667 L1.06666667,10.6666667 C0.477562933,10.6666667 0,10.1891037 0,9.6 L0,6.4 C0,5.81089627 0.477562933,5.33333333 1.06666667,5.33333333 L6.4,5.33333333 C6.98910373,5.33333333 7.46666667,5.81089627 7.46666667,6.4 L7.46666667,7.46666667 C9.4544696,7.46666667 11.1247776,6.10730906 11.5987056,4.26747876 L9.6,4.26666667 C9.01089627,4.26666667 8.53333333,3.78910373 8.53333333,3.2 L8.53333333,1.06666667 C8.53333333,0.477562933 9.01089627,0 9.6,0 L14.9333333,0 Z" id="Combined-Shape" transform="translate(8.000000, 8.000000) scale(-1, 1) translate(-8.000000, -8.000000) "></path>
        </g>
    </g>
</svg>
