<svg xmlns="http://www.w3.org/2000/svg" width="16" height="16"><path fill-rule="evenodd" d="M1 9.52c.889.641 2.308 1.133 4.003 1.354L5 11a5.994 5.994 0 0 0 2.664 4.988c-.217.008-.44.012-.664.012-3.215 0-5.846-.85-5.993-1.906L1 14V9.52ZM11 6c2.762 0 5 2.238 5 5s-2.238 5-5 5-5-2.238-5-5 2.238-5 5-5Zm1 1-4 5h2.5l-.5 3 4-5h-2.5l.5-3Zm1-3.48v1.822a6.002 6.002 0 0 0-7.9 4.556l-.248-.03c-2.168-.28-3.733-.966-3.845-1.774L1 8V3.52C2.22 4.4 4.44 5 7 5s4.78-.6 6-1.48ZM7 0c3.31 0 6 .9 6 2s-2.69 2-6 2c-3.32 0-6-.9-6-2s2.68-2 6-2Z"/></svg>