<?xml version="1.0" encoding="UTF-8"?>
<svg width="16px" height="16px" viewBox="0 0 16 16" version="1.1" xmlns="http://www.w3.org/2000/svg" xmlns:xlink="http://www.w3.org/1999/xlink">
    <title>bp3-data-connection</title>
    <g id="bp3-data-connection" stroke="none" stroke-width="1" fill="none" fill-rule="evenodd">
        <path d="M1,9.52 C1.88865909,10.161 3.30789799,10.6534377 5.00264044,10.8736396 L5,11 C5,13.0792915 6.05768242,14.911548 7.66438081,15.9881031 C7.44669773,15.9958495 7.22477847,16 7,16 C3.78457143,16 1.15422041,15.1506939 1.00653948,14.0937796 L1,14 L1,9.52 Z M11,6 C13.7625,6 16,8.2375 16,11 C16,13.7625 13.7625,16 11,16 C8.2375,16 6,13.7625 6,11 C6,8.2375 8.2375,6 11,6 Z M12,7 L8,12 L10.5,12 L10,15 L14,10 L11.5,10 L12,7 Z M13,3.52 L13.0006859,5.34165389 C12.3749342,5.1203964 11.7015272,5 11,5 C8.06284929,5 5.61862277,7.11045939 5.10104483,9.89765379 L4.85218052,9.86729796 C2.68420805,9.58883265 1.11947195,8.90200816 1.00653948,8.09377959 L1,8 L1,3.52 C2.22,4.4 4.44,5 7,5 C9.56,5 11.78,4.4 13,3.52 Z M7,0 C10.31,0 13,0.9 13,2 C13,3.1 10.31,4 7,4 C3.68,4 1,3.1 1,2 C1,0.9 3.68,0 7,0 Z" id="Mask" fill="#5C7080"></path>
    </g>
</svg>