<svg xmlns="http://www.w3.org/2000/svg" viewBox="0 0 16 16"><path fill-rule="nonzero" d="M1.067 0C.477 0 0 .478 0 1.067V3.2c0 .59.478 1.067 1.067 1.067h2.24a5.342 5.342 0 0 0 2.9 3.734 5.337 5.337 0 0 0-2.9 3.733h-2.24C.477 11.733 0 12.21 0 12.8v2.133C0 15.523.478 16 1.067 16H6.4c.59 0 1.067-.478 1.067-1.067V12.8c0-.59-.478-1.067-1.067-1.067H4.401a4.27 4.27 0 0 1 3.92-3.194l.212-.006V9.6c0 .59.478 1.067 1.067 1.067h5.333c.59 0 1.067-.478 1.067-1.067V6.4c0-.59-.478-1.067-1.067-1.067H9.6c-.59 0-1.067.478-1.067 1.067v1.067a4.268 4.268 0 0 1-4.132-3.2H6.4c.59 0 1.067-.478 1.067-1.067V1.067C7.467.477 6.989 0 6.4 0H1.067Z"/></svg>