<?xml version="1.0" encoding="utf-8"?>
<!-- Generator: Adobe Illustrator 17.1.0, SVG Export Plug-In . SVG Version: 6.00 Build 0)  -->
<!DOCTYPE svg PUBLIC "-//W3C//DTD SVG 1.1//EN" "http://www.w3.org/Graphics/SVG/1.1/DTD/svg11.dtd">
<svg version="1.1" id="Layer_1" xmlns="http://www.w3.org/2000/svg" xmlns:xlink="http://www.w3.org/1999/xlink" x="0px" y="0px"
	 viewBox="0 0 16 16" enable-background="new 0 0 16 16" xml:space="preserve">
<g id="Rectangle_1_copy">
	<g>
		<path fill-rule="evenodd" clip-rule="evenodd" d="M8,4c3.31,0,6-0.9,6-2c0-1.1-2.69-2-6-2C4.68,0,2,0.9,2,2C2,3.1,4.68,4,8,4z
			 M2,3.52V8c0,1.1,2.69,2,6,2c3.31,0,6-0.9,6-2V3.52C12.78,4.4,10.56,5,8,5S3.22,4.4,2,3.52z M2,9.52V14c0,1.1,2.69,2,6,2
			c3.31,0,6-0.9,6-2V9.52C12.78,10.4,10.56,11,8,11S3.22,10.4,2,9.52z"/>
	</g>
</g>
</svg>
