<?xml version="1.0" encoding="utf-8"?>
<!-- Generator: Adobe Illustrator 17.1.0, SVG Export Plug-In . SVG Version: 6.00 Build 0)  -->
<!DOCTYPE svg PUBLIC "-//W3C//DTD SVG 1.1//EN" "http://www.w3.org/Graphics/SVG/1.1/DTD/svg11.dtd">
<svg version="1.1" id="Layer_1" xmlns="http://www.w3.org/2000/svg" xmlns:xlink="http://www.w3.org/1999/xlink" x="0px" y="0px"
	 viewBox="0 0 16 16" enable-background="new 0 0 16 16" xml:space="preserve">
<g id="delete_1_">
	<g>
		<path fill-rule="evenodd" clip-rule="evenodd" d="M11.99,4.99c0-0.55-0.45-1-1-1c-0.28,0-0.53,0.11-0.71,0.29L7.99,6.58L5.7,4.29
			C5.52,4.1,5.27,3.99,4.99,3.99c-0.55,0-1,0.45-1,1c0,0.28,0.11,0.53,0.29,0.71l2.29,2.29l-2.29,2.29
			c-0.18,0.18-0.29,0.43-0.29,0.71c0,0.55,0.45,1,1,1c0.28,0,0.53-0.11,0.71-0.29l2.29-2.29l2.29,2.29
			c0.18,0.18,0.43,0.29,0.71,0.29c0.55,0,1-0.45,1-1c0-0.28-0.11-0.53-0.29-0.71L9.41,7.99L11.7,5.7
			C11.88,5.52,11.99,5.27,11.99,4.99z M7.99-0.01c-4.42,0-8,3.58-8,8s3.58,8,8,8s8-3.58,8-8S12.41-0.01,7.99-0.01z M7.99,13.99
			c-3.31,0-6-2.69-6-6s2.69-6,6-6s6,2.69,6,6S11.31,13.99,7.99,13.99z"/>
	</g>
</g>
</svg>
