<svg xmlns="http://www.w3.org/2000/svg" xml:space="preserve" viewBox="0 0 16 16"><path fill-rule="evenodd" d="M6.08 6.67h-.84c.24-.92.56-1.6.96-2.03.24-.27.48-.4.71-.4.05 0 .08.01.11.04s.04.06.04.1c0 .04-.03.11-.1.21-.06.1-.1.2-.1.29 0 .13.05.24.15.33.1.09.23.14.39.14.17 0 .31-.06.42-.17A.58.58 0 0 0 8 4.73c0-.22-.09-.39-.26-.53-.17-.13-.44-.2-.81-.2-.59 0-1.12.16-1.59.48-.48.32-.93.85-1.36 1.59-.15.26-.29.42-.42.49s-.35.11-.64.1l-.19.65h.81l-1.19 4.37c-.2.72-.33 1.16-.4 1.33-.1.24-.26.45-.46.62-.08.07-.18.1-.3.1-.03 0-.06-.01-.08-.03l-.03-.04c0-.02.03-.06.09-.11.06-.06.09-.14.09-.26 0-.13-.05-.23-.14-.32a.6.6 0 0 0-.4-.13c-.21 0-.38.05-.51.16s-.21.25-.21.4c0 .16.08.3.23.42.16.12.4.18.74.18.53 0 .99-.13 1.4-.39.41-.26.76-.65 1.07-1.19.3-.54.62-1.4.94-2.59l.68-2.53h.82l.2-.63zM15 0H8c-.55 0-1 .45-1 1v2h2V2h5v12H9v-1H7v2c0 .55.45 1 1 1h7c.55 0 1-.45 1-1V1c0-.55-.45-1-1-1zM8.3 9.94c.18.52.33.89.46 1.13.13.24.28.4.44.51.17.1.37.16.62.16.24 0 .49-.08.74-.25.33-.21.66-.58 1.01-1.09l-.21-.11c-.23.31-.41.5-.52.57a.44.44 0 0 1-.26.07c-.12 0-.24-.07-.36-.21-.2-.24-.46-.91-.8-2 .3-.49.55-.81.75-.96.15-.11.3-.16.47-.16.06 0 .17.02.34.06.16.04.31.06.43.06.17 0 .31-.06.43-.17.1-.11.16-.25.16-.43 0-.19-.06-.33-.17-.44-.12-.11-.28-.16-.49-.16-.19 0-.37.04-.54.13-.17.09-.39.27-.65.56-.2.21-.48.58-.87 1.11-.15-.66-.41-1.26-.78-1.81l-2.05.33-.04.21c.15-.03.28-.04.39-.04.2 0 .37.08.5.25.21.26.5 1.03.88 2.33-.29.37-.49.61-.6.72-.18.18-.33.3-.44.36-.09.04-.19.07-.3.07-.09 0-.23-.04-.42-.13a.866.866 0 0 0-.36-.09c-.2 0-.36.06-.49.18a.59.59 0 0 0-.19.46c0 .17.06.32.18.43.12.11.28.16.48.16.2 0 .38-.04.55-.11.17-.08.39-.24.65-.49.24-.27.6-.66 1.06-1.21z" clip-rule="evenodd"/></svg>