<?xml version="1.0" encoding="utf-8"?>
<!-- Generator: Adobe Illustrator 18.0.0, SVG Export Plug-In . SVG Version: 6.00 Build 0)  -->
<svg version="1.1" id="Layer_1" xmlns="http://www.w3.org/2000/svg" xmlns:xlink="http://www.w3.org/1999/xlink" x="0px" y="0px"
	 viewBox="0 0 16 16" enable-background="new 0 0 16 16" xml:space="preserve">
<g id="Rounded_Rectangle_2_2_">
	<g>
		<path fill-rule="evenodd" clip-rule="evenodd" d="M6.08,6.67H5.24C5.48,5.75,5.8,5.07,6.2,4.64c0.24-0.27,0.48-0.4,0.71-0.4
			c0.05,0,0.08,0.01,0.11,0.04c0.03,0.03,0.04,0.06,0.04,0.1c0,0.04-0.03,0.11-0.1,0.21c-0.06,0.1-0.1,0.2-0.1,0.29
			c0,0.13,0.05,0.24,0.15,0.33c0.1,0.09,0.23,0.14,0.39,0.14c0.17,0,0.31-0.06,0.42-0.17C7.94,5.07,8,4.92,8,4.73
			C8,4.51,7.91,4.34,7.74,4.2C7.57,4.07,7.3,4,6.93,4C6.34,4,5.81,4.16,5.34,4.48C4.86,4.8,4.41,5.33,3.98,6.07
			C3.83,6.33,3.69,6.49,3.56,6.56c-0.13,0.07-0.35,0.11-0.64,0.1L2.73,7.31h0.81l-1.19,4.37c-0.2,0.72-0.33,1.16-0.4,1.33
			c-0.1,0.24-0.26,0.45-0.46,0.62c-0.08,0.07-0.18,0.1-0.3,0.1c-0.03,0-0.06-0.01-0.08-0.03l-0.03-0.04c0-0.02,0.03-0.06,0.09-0.11
			c0.06-0.06,0.09-0.14,0.09-0.26c0-0.13-0.05-0.23-0.14-0.32c-0.09-0.08-0.23-0.13-0.4-0.13c-0.21,0-0.38,0.05-0.51,0.16
			S0,13.25,0,13.4c0,0.16,0.08,0.3,0.23,0.42C0.39,13.94,0.63,14,0.97,14c0.53,0,0.99-0.13,1.4-0.39c0.41-0.26,0.76-0.65,1.07-1.19
			c0.3-0.54,0.62-1.4,0.94-2.59l0.68-2.53h0.82L6.08,6.67z M15,0H8C7.45,0,7,0.45,7,1v2h2V2h5v12H9v-1H7v2c0,0.55,0.45,1,1,1h7
			c0.55,0,1-0.45,1-1V1C16,0.45,15.55,0,15,0z M8.3,9.94c0.18,0.52,0.33,0.89,0.46,1.13c0.13,0.24,0.28,0.4,0.44,0.51
			c0.17,0.1,0.37,0.16,0.62,0.16c0.24,0,0.49-0.08,0.74-0.25c0.33-0.21,0.66-0.58,1.01-1.09l-0.21-0.11
			c-0.23,0.31-0.41,0.5-0.52,0.57c-0.07,0.05-0.16,0.07-0.26,0.07c-0.12,0-0.24-0.07-0.36-0.21c-0.2-0.24-0.46-0.91-0.8-2
			c0.3-0.49,0.55-0.81,0.75-0.96c0.15-0.11,0.3-0.16,0.47-0.16c0.06,0,0.17,0.02,0.34,0.06c0.16,0.04,0.31,0.06,0.43,0.06
			c0.17,0,0.31-0.06,0.43-0.17C11.94,7.44,12,7.3,12,7.12c0-0.19-0.06-0.33-0.17-0.44c-0.12-0.11-0.28-0.16-0.49-0.16
			c-0.19,0-0.37,0.04-0.54,0.13c-0.17,0.09-0.39,0.27-0.65,0.56c-0.2,0.21-0.48,0.58-0.87,1.11C9.13,7.66,8.87,7.06,8.5,6.51
			L6.45,6.84L6.41,7.05C6.56,7.02,6.69,7.01,6.8,7.01c0.2,0,0.37,0.08,0.5,0.25c0.21,0.26,0.5,1.03,0.88,2.33
			c-0.29,0.37-0.49,0.61-0.6,0.72c-0.18,0.18-0.33,0.3-0.44,0.36c-0.09,0.04-0.19,0.07-0.3,0.07c-0.09,0-0.23-0.04-0.42-0.13
			c-0.13-0.06-0.25-0.09-0.36-0.09c-0.2,0-0.36,0.06-0.49,0.18c-0.13,0.12-0.19,0.27-0.19,0.46c0,0.17,0.06,0.32,0.18,0.43
			c0.12,0.11,0.28,0.16,0.48,0.16c0.2,0,0.38-0.04,0.55-0.11c0.17-0.08,0.39-0.24,0.65-0.49C7.48,10.88,7.84,10.49,8.3,9.94z"/>
	</g>
</g>
</svg>
