<?xml version="1.0" encoding="utf-8"?>
<!-- Generator: Adobe Illustrator 18.1.0, SVG Export Plug-In . SVG Version: 6.00 Build 0)  -->
<svg version="1.1" id="Layer_1" xmlns="http://www.w3.org/2000/svg" xmlns:xlink="http://www.w3.org/1999/xlink" x="0px" y="0px"
	 viewBox="0 0 16 16" enable-background="new 0 0 16 16" xml:space="preserve">
<g id="desktop">
	<g>
		<path fill-rule="evenodd" clip-rule="evenodd" d="M15,0H1C0.45,0,0,0.45,0,1v10c0,0.55,0.45,1,1,1h4.75l-0.5,2H4
			c-0.55,0-1,0.45-1,1c0,0.55,0.45,1,1,1h8c0.55,0,1-0.45,1-1c0-0.55-0.45-1-1-1h-1.25l-0.5-2H15c0.55,0,1-0.45,1-1V1
			C16,0.45,15.55,0,15,0z M14,10H2V2h12V10z"/>
	</g>
</g>
</svg>
