<?xml version="1.0" encoding="UTF-8"?>
<svg viewBox="0 0 16 16" version="1.1" xmlns="http://www.w3.org/2000/svg" xmlns:xlink="http://www.w3.org/1999/xlink">
    <!-- Generator: Sketch 60.1 (88133) - https://sketch.com -->
    <title>pt-icon-diagnosis-small</title>
    <desc>Created with Sketch.</desc>
    <g id="pt-icon-diagnosis-small" stroke="none" stroke-width="1" fill="none" fill-rule="evenodd">
        <path d="M3.2,1 C3.75228475,1 4.2,1.44771525 4.2,2 C4.2,2.51283584 3.81395981,2.93550716 3.31662113,2.99327227 L3.2,3 L3,3 L3,6 C3,7.0543618 3.81587779,7.91816512 4.85073766,7.99451426 L5,8 C6.0543618,8 6.91816512,7.18412221 6.99451426,6.14926234 L7,6 L7,3 L6.8,3 C6.28716416,3 5.86449284,2.61395981 5.80672773,2.11662113 L5.8,2 C5.8,1.48716416 6.18604019,1.06449284 6.68337887,1.00672773 L6.8,1 L8,1 C8.51283584,1 8.93550716,1.38604019 8.99327227,1.88337887 L9,2 L9,6 C9,7.86646011 7.72163987,9.43434321 5.99271999,9.87584892 C5.99263228,9.87796528 5.99295769,9.88067043 5.99327227,9.88337887 L6,10 C6,11.6568542 7.34314575,13 9,13 C10.5976809,13 11.9036609,11.75108 11.9949073,10.1762728 L12,10 L11.99917,7.79161532 C11.1166609,7.40564763 10.5,6.52483825 10.5,5.5 C10.5,4.11928813 11.6192881,3 13,3 C14.3807119,3 15.5,4.11928813 15.5,5.5 C15.5,6.52522718 14.8828709,7.40631615 13.9998252,7.79205454 L14,10 C14,12.7614237 11.7614237,15 9,15 C6.23857625,15 4,12.7614237 4,10 C4,9.95775825 4.00261915,9.91612823 4.0077039,9.87526348 C2.34038883,9.45019999 1.09228114,7.9774934 1.00489531,6.19964034 L1,6 L1,2 C1,1.48716416 1.38604019,1.06449284 1.88337887,1.00672773 L2,1 L3.2,1 Z" id="Combined-Shape" fill="#000000" fill-rule="nonzero"></path>
    </g>
</svg>
