<?xml version="1.0" encoding="utf-8"?>
<!-- Generator: Adobe Illustrator 17.1.0, SVG Export Plug-In . SVG Version: 6.00 Build 0)  -->
<!DOCTYPE svg PUBLIC "-//W3C//DTD SVG 1.1//EN" "http://www.w3.org/Graphics/SVG/1.1/DTD/svg11.dtd">
<svg version="1.1" id="Layer_1" xmlns="http://www.w3.org/2000/svg" xmlns:xlink="http://www.w3.org/1999/xlink" x="0px" y="0px"
	 viewBox="0 0 16 16" enable-background="new 0 0 16 16" xml:space="preserve">
<g id="disable_1_">
	<g>
		<path fill-rule="evenodd" clip-rule="evenodd" d="M7.99-0.01c-4.42,0-8,3.58-8,8s3.58,8,8,8s8-3.58,8-8S12.41-0.01,7.99-0.01z
			 M1.99,7.99c0-3.31,2.69-6,6-6c1.3,0,2.49,0.42,3.47,1.12l-8.35,8.35C2.41,10.48,1.99,9.29,1.99,7.99z M7.99,13.99
			c-1.3,0-2.49-0.42-3.47-1.12l8.35-8.35c0.7,0.98,1.12,2.17,1.12,3.47C13.99,11.31,11.31,13.99,7.99,13.99z"/>
	</g>
</g>
</svg>
