<?xml version="1.0" encoding="utf-8"?>
<!-- Generator: Adobe Illustrator 18.0.0, SVG Export Plug-In . SVG Version: 6.00 Build 0)  -->
<svg version="1.1" id="Layer_1" xmlns="http://www.w3.org/2000/svg" xmlns:xlink="http://www.w3.org/1999/xlink" x="0px" y="0px"
	 viewBox="0 0 16 16" enable-background="new 0 0 16 16" xml:space="preserve">
<g id="document_share_1_">
	<g>
		<path fill-rule="evenodd" clip-rule="evenodd" d="M10,14H2V2h4v4h1c0-0.83,0.36-1.55,0.91-2.09L7.88,3.88l0.9-0.9
			C8.3,2.45,8,1.77,8,1L7,0H1C0.45,0,0,0.45,0,1v14c0,0.55,0.45,1,1,1h10c0.55,0,1-0.45,1-1V8.22C11.47,8.7,10.77,9,10,9V14z M15,0
			h-4c-0.55,0-1,0.45-1,1s0.45,1,1,1h1.59L9.29,5.29C9.11,5.47,9,5.72,9,6c0,0.55,0.45,1,1,1c0.28,0,0.53-0.11,0.71-0.29L14,3.41V5
			c0,0.55,0.45,1,1,1s1-0.45,1-1V1C16,0.45,15.55,0,15,0z"/>
	</g>
</g>
</svg>
