<?xml version="1.0" encoding="utf-8"?>
<!-- Generator: Adobe Illustrator 18.0.0, SVG Export Plug-In . SVG Version: 6.00 Build 0)  -->
<svg version="1.1" id="Layer_1" xmlns="http://www.w3.org/2000/svg" xmlns:xlink="http://www.w3.org/1999/xlink" x="0px" y="0px"
	 viewBox="0 0 16 16" enable-background="new 0 0 16 16" xml:space="preserve">
<g id="document_open">
	<g>
		<path fill-rule="evenodd" clip-rule="evenodd" d="M6,12c0,0.55,0.45,1,1,1s1-0.45,1-1V8c0-0.55-0.45-1-1-1H3C2.45,7,2,7.45,2,8
			c0,0.55,0.45,1,1,1h1.59l-3.29,3.29C1.11,12.47,1,12.72,1,13c0,0.55,0.45,1,1,1c0.28,0,0.53-0.11,0.71-0.29L6,10.41V12z M10,0H4
			C3.45,0,3,0.45,3,1v4h2V2h4v4h4v8H5.24l-1.8,1.8C3.6,15.92,3.79,16,4,16h10c0.55,0,1-0.45,1-1V5L10,0z"/>
	</g>
</g>
</svg>
