<svg xmlns="http://www.w3.org/2000/svg" xml:space="preserve" viewBox="0 0 16 16"><path fill-rule="evenodd" d="M12.83 9.51c-.1-.3-.25-.58-.45-.84s-.45-.49-.75-.7c-.3-.2-.65-.36-1.05-.48-.16-.04-.43-.11-.8-.2-.35-.09-.73-.18-1.12-.28-.39-.1-.74-.19-1.06-.27-.31-.08-.49-.12-.54-.13-.43-.12-.78-.29-1.05-.52-.27-.23-.4-.55-.4-.95 0-.29.07-.53.21-.72.14-.19.32-.34.54-.46.22-.11.46-.19.72-.24.26-.05.52-.08.77-.08.74 0 1.35.15 1.83.46.48.3.75.83.81 1.56h2.14c0-.6-.13-1.13-.38-1.58-.25-.45-.59-.84-1.02-1.15-.43-.31-.93-.54-1.49-.7-.24-.06-.49-.1-.75-.14V1c0-.55-.45-1-1-1s-1 .45-1 1v1.08c-.23.03-.46.07-.68.13-.54.13-1.02.34-1.44.61-.42.28-.76.63-1.02 1.05-.26.43-.39.93-.39 1.5 0 .3.04.59.13.88.09.29.23.56.44.82.21.26.48.49.83.7.35.21.79.38 1.31.51.85.21 1.56.38 2.14.52.58.13 1.08.28 1.52.42.25.09.48.23.69.44.21.21.32.53.32.97 0 .21-.05.42-.14.63-.09.21-.24.39-.45.55-.21.16-.47.29-.81.39-.33.1-.73.15-1.2.15-.43 0-.84-.05-1.21-.14-.37-.09-.7-.24-.99-.43-.29-.2-.51-.45-.67-.76-.16-.31-.24-.68-.24-1.12H3c.01.71.15 1.32.43 1.84.27.52.64.94 1.1 1.27.46.33.99.58 1.61.74.27.07.56.12.85.16V15c0 .55.45 1 1 1s1-.45 1-1v-1.05c.3-.03.61-.08.9-.15.58-.13 1.1-.34 1.56-.63.46-.29.83-.66 1.11-1.11.28-.45.42-1 .42-1.64 0-.31-.05-.61-.15-.91z" clip-rule="evenodd"/></svg>