<?xml version="1.0" encoding="utf-8"?>
<!-- Generator: Adobe Illustrator 18.0.0, SVG Export Plug-In . SVG Version: 6.00 Build 0)  -->
<svg version="1.1" id="Layer_1" xmlns="http://www.w3.org/2000/svg" xmlns:xlink="http://www.w3.org/1999/xlink" x="0px" y="0px"
	 viewBox="0 0 16 16" enable-background="new 0 0 16 16" xml:space="preserve">
<g id="double_chevron_up">
	<g>
		<path fill-rule="evenodd" clip-rule="evenodd" d="M4,8c0.28,0,0.53-0.11,0.71-0.29L8,4.41l3.29,3.29C11.47,7.89,11.72,8,12,8
			c0.55,0,1-0.45,1-1c0-0.28-0.11-0.53-0.29-0.71l-4-4C8.53,2.11,8.28,2,8,2S7.47,2.11,7.29,2.29l-4,4C3.11,6.47,3,6.72,3,7
			C3,7.55,3.45,8,4,8z M8.71,7.29C8.53,7.11,8.28,7,8,7S7.47,7.11,7.29,7.29l-4,4C3.11,11.47,3,11.72,3,12c0,0.55,0.45,1,1,1
			c0.28,0,0.53-0.11,0.71-0.29L8,9.41l3.29,3.29C11.47,12.89,11.72,13,12,13c0.55,0,1-0.45,1-1c0-0.28-0.11-0.53-0.29-0.71
			L8.71,7.29z"/>
	</g>
</g>
</svg>
