<?xml version="1.0" encoding="utf-8"?>
<!-- Generator: Adobe Illustrator 18.0.0, SVG Export Plug-In . SVG Version: 6.00 Build 0)  -->
<svg version="1.1" id="Layer_1" xmlns="http://www.w3.org/2000/svg" xmlns:xlink="http://www.w3.org/1999/xlink" x="0px" y="0px"
	 viewBox="0 0 16 16" enable-background="new 0 0 16 16" xml:space="preserve">
<g id="double_chevron_left_2_">
	<g>
		<path fill-rule="evenodd" clip-rule="evenodd" d="M4.41,8l3.29-3.29C7.89,4.53,8,4.28,8,4c0-0.55-0.45-1-1-1
			C6.72,3,6.47,3.11,6.29,3.29l-4,4C2.11,7.47,2,7.72,2,8c0,0.28,0.11,0.53,0.29,0.71l4,4C6.47,12.89,6.72,13,7,13
			c0.55,0,1-0.45,1-1c0-0.28-0.11-0.53-0.29-0.71L4.41,8z M9.41,8l3.29-3.29C12.89,4.53,13,4.28,13,4c0-0.55-0.45-1-1-1
			c-0.28,0-0.53,0.11-0.71,0.29l-4,4C7.11,7.47,7,7.72,7,8c0,0.28,0.11,0.53,0.29,0.71l4,4C11.47,12.89,11.72,13,12,13
			c0.55,0,1-0.45,1-1c0-0.28-0.11-0.53-0.29-0.71L9.41,8z"/>
	</g>
</g>
</svg>
