<?xml version="1.0" encoding="utf-8"?>
<!-- Generator: Adobe Illustrator 18.1.0, SVG Export Plug-In . SVG Version: 6.00 Build 0)  -->
<svg version="1.1" id="Layer_1" xmlns="http://www.w3.org/2000/svg" xmlns:xlink="http://www.w3.org/1999/xlink" x="0px" y="0px"
	 viewBox="0 0 16 16" enable-background="new 0 0 16 16" xml:space="preserve">
<g id="double_caret_horizontal">
	<g>
		<path fill-rule="evenodd" clip-rule="evenodd" d="M13.71,7.29l-3-3C10.53,4.11,10.28,4,10,4C9.45,4,9,4.45,9,5v6
			c0,0.55,0.45,1,1,1c0.28,0,0.53-0.11,0.71-0.29l3-3C13.89,8.53,14,8.28,14,8C14,7.72,13.89,7.47,13.71,7.29z M6,4
			C5.72,4,5.47,4.11,5.29,4.29l-3,3C2.11,7.47,2,7.72,2,8c0,0.28,0.11,0.53,0.29,0.71l3,3C5.47,11.89,5.72,12,6,12
			c0.55,0,1-0.45,1-1V5C7,4.45,6.55,4,6,4z"/>
	</g>
</g>
</svg>
