<?xml version="1.0" encoding="utf-8"?>
<!-- Generator: Adobe Illustrator 18.0.0, SVG Export Plug-In . SVG Version: 6.00 Build 0)  -->
<svg version="1.1" id="Layer_1" xmlns="http://www.w3.org/2000/svg" xmlns:xlink="http://www.w3.org/1999/xlink" x="0px" y="0px"
	 viewBox="0 0 16 16" enable-background="new 0 0 16 16" xml:space="preserve">
<g id="double_chevron_right">
	<g>
		<path fill-rule="evenodd" clip-rule="evenodd" d="M9,8c0-0.28-0.11-0.53-0.29-0.71l-4-4C4.53,3.11,4.28,3,4,3C3.45,3,3,3.45,3,4
			c0,0.28,0.11,0.53,0.29,0.71L6.59,8l-3.29,3.29C3.11,11.47,3,11.72,3,12c0,0.55,0.45,1,1,1c0.28,0,0.53-0.11,0.71-0.29l4-4
			C8.89,8.53,9,8.28,9,8z M13.71,7.29l-4-4C9.53,3.11,9.28,3,9,3C8.45,3,8,3.45,8,4c0,0.28,0.11,0.53,0.29,0.71L11.59,8l-3.29,3.29
			C8.11,11.47,8,11.72,8,12c0,0.55,0.45,1,1,1c0.28,0,0.53-0.11,0.71-0.29l4-4C13.89,8.53,14,8.28,14,8
			C14,7.72,13.89,7.47,13.71,7.29z"/>
	</g>
</g>
</svg>
