<?xml version="1.0" encoding="utf-8"?>
<!-- Generator: Adobe Illustrator 17.1.0, SVG Export Plug-In . SVG Version: 6.00 Build 0)  -->
<!DOCTYPE svg PUBLIC "-//W3C//DTD SVG 1.1//EN" "http://www.w3.org/Graphics/SVG/1.1/DTD/svg11.dtd">
<svg version="1.1" id="Layer_1" xmlns="http://www.w3.org/2000/svg" xmlns:xlink="http://www.w3.org/1999/xlink" x="0px" y="0px"
	 viewBox="0 0 16 16" enable-background="new 0 0 16 16" xml:space="preserve">
<g id="drive_time_2_">
	<g>
		<path fill-rule="evenodd" clip-rule="evenodd" d="M15.12,4.76h-1.05l-0.76-2.12c-0.19-0.53-0.76-1.08-1.27-1.24
			c0,0-1.32-0.4-4.04-0.4C5.28,1,3.96,1.4,3.96,1.4C3.46,1.56,2.89,2.11,2.7,2.64L1.93,4.76H0.88C0.4,4.76,0,5.18,0,5.7
			c0,0.52,0.4,0.94,0.88,0.94h0.38L1,7C0.97,7.69,1,8.44,1,9v5c0,0.66,0.38,1,1,1c0.62,0,1-0.34,1-1v-1h10v1c0,0.66,0.38,1,1,1
			c0.62,0,1-0.34,1-1V9c0-0.56-0.01-1.37,0-2l-0.26-0.37h0.38C15.6,6.63,16,6.21,16,5.7C16,5.18,15.6,4.76,15.12,4.76z M5,10H3V8h2
			V10z M13,10h-2V8h2V10z M13,6H3C2.82,6,2.94,5.18,3,5l0.73-1.63C3.79,3.19,3.82,3,4,3h8c0.18,0,0.21,0.19,0.27,0.37L13,5
			C13.06,5.18,13.18,6,13,6z"/>
	</g>
</g>
</svg>
