<svg xmlns="http://www.w3.org/2000/svg" xml:space="preserve" viewBox="0 0 16 16"><path fill-rule="evenodd" d="M15.12 4.76h-1.05l-.76-2.12c-.19-.53-.76-1.08-1.27-1.24 0 0-1.32-.4-4.04-.4-2.72 0-4.04.4-4.04.4-.5.16-1.07.71-1.26 1.24l-.77 2.12H.88c-.48 0-.88.42-.88.94s.4.94.88.94h.38L1 7c-.03.69 0 1.44 0 2v5c0 .66.38 1 1 1s1-.34 1-1v-1h10v1c0 .66.38 1 1 1s1-.34 1-1V9c0-.56-.01-1.37 0-2l-.26-.37h.38c.48 0 .88-.42.88-.93 0-.52-.4-.94-.88-.94zM5 10H3V8h2v2zm8 0h-2V8h2v2zm0-4H3c-.18 0-.06-.82 0-1l.73-1.63C3.79 3.19 3.82 3 4 3h8c.18 0 .21.19.27.37L13 5c.06.18.18 1 0 1z" clip-rule="evenodd"/></svg>