<?xml version="1.0" encoding="utf-8"?>
<!-- Generator: Adobe Illustrator 18.1.0, SVG Export Plug-In . SVG Version: 6.00 Build 0)  -->
<svg version="1.1" id="Shape_1_1_" xmlns="http://www.w3.org/2000/svg" xmlns:xlink="http://www.w3.org/1999/xlink" x="0px" y="0px"
	 viewBox="0 0 16 16" enable-background="new 0 0 16 16" xml:space="preserve">
<g id="Shape_1">
	<g>
		<path fill-rule="evenodd" clip-rule="evenodd" d="M15,0H5C4.45,0,4,0.45,4,1v2h2V2h8v7h-1v2h2c0.55,0,1-0.45,1-1V1
			C16,0.45,15.55,0,15,0z M11,4H1C0.45,4,0,4.45,0,5v10c0,0.55,0.45,1,1,1h10c0.55,0,1-0.45,1-1V5C12,4.45,11.55,4,11,4z M10,14H2V6
			h8V14z"/>
	</g>
</g>
</svg>
