<?xml version="1.0" encoding="utf-8"?>
<!-- Generator: Adobe Illustrator 18.1.0, SVG Export Plug-In . SVG Version: 6.00 Build 0)  -->
<svg version="1.1" id="Layer_1" xmlns="http://www.w3.org/2000/svg" xmlns:xlink="http://www.w3.org/1999/xlink" x="0px" y="0px"
	 viewBox="0 0 16 16" enable-background="new 0 0 16 16" xml:space="preserve">
<g id="eject">
	<g>
		<path fill-rule="evenodd" clip-rule="evenodd" d="M4,9h8c0.55,0,1-0.45,1-1c0-0.28-0.11-0.53-0.29-0.71l-4-4C8.53,3.11,8.28,3,8,3
			S7.47,3.11,7.29,3.29l-4,4C3.11,7.47,3,7.72,3,8C3,8.55,3.45,9,4,9z M12,10H4c-0.55,0-1,0.45-1,1v1c0,0.55,0.45,1,1,1h8
			c0.55,0,1-0.45,1-1v-1C13,10.45,12.55,10,12,10z"/>
	</g>
</g>
</svg>
