<svg xmlns="http://www.w3.org/2000/svg" xml:space="preserve" viewBox="0 0 16 16"><path fill-rule="evenodd" d="M6.52 3.18c.51-.27 1.12-.4 1.83-.4.48 0 .91.06 1.27.18.37.12.68.29.96.51.18.14.3.33.44.51l1.53-1.53c-.12-.11-.23-.22-.36-.32a5.61 5.61 0 0 0-1.74-.83c-.66-.2-1.36-.3-2.1-.3-.99 0-1.88.18-2.66.53-.79.35-1.45.82-2 1.41-.55.58-.96 1.27-1.26 2.06H2c-.55 0-1 .45-1 1s.45 1 1 1h.04c-.01.17-.04.33-.04.5 0 .17.03.33.04.5H2c-.55 0-1 .45-1 1s.45 1 1 1h.43c0 .01 0 .02.01.02a6.2 6.2 0 0 0 1.25 2.07 5.77 5.77 0 0 0 2 1.4c.78.34 1.67.51 2.66.51.81 0 1.54-.12 2.21-.36.67-.24 1.25-.59 1.75-1.03l.03-.03-1.55-1.33c-.01.01-.02.03-.03.04-.29.3-.63.53-1.02.69-.4.17-.85.25-1.37.25-.71 0-1.32-.13-1.83-.4s-.93-.62-1.25-1.07c-.19-.24-.34-.49-.46-.76H9c.55 0 1-.45 1-1s-.45-1-1-1H4.35c-.01-.17-.03-.33-.03-.5 0-.17.02-.34.03-.5H10c.55 0 1-.45 1-1s-.45-1-1-1H4.83c.13-.27.27-.52.44-.76.32-.44.74-.8 1.25-1.06zM14 8.98v.01-.01z" clip-rule="evenodd"/></svg>