<svg xmlns="http://www.w3.org/2000/svg" xml:space="preserve" viewBox="0 0 16 16"><path fill-rule="evenodd" d="M1.99 5.99c-1.1 0-2 .9-2 2s.9 2 2 2 2-.9 2-2-.89-2-2-2zm4.15 1.86a.495.495 0 1 0 .7-.7L5.7 5.99h5.79c.28 0 .5-.22.5-.5s-.22-.5-.5-.5H5.7l1.15-1.15a.495.495 0 1 0-.7-.7l-2 2c-.1.09-.16.21-.16.35s.06.26.15.35l2 2.01zm7.85-1.86c-1.1 0-2 .9-2 2s.9 2 2 2 2-.9 2-2-.89-2-2-2zM9.85 8.14a.533.533 0 0 0-.36-.15.495.495 0 0 0-.35.85l1.15 1.15h-5.8c-.28 0-.5.22-.5.5s.22.5.5.5h5.79l-1.15 1.15a.495.495 0 1 0 .7.7l2-2c.09-.09.15-.22.15-.35s-.06-.26-.15-.35l-1.98-2z" clip-rule="evenodd"/></svg>