<?xml version="1.0" encoding="utf-8"?>
<!-- Generator: Adobe Illustrator 17.1.0, SVG Export Plug-In . SVG Version: 6.00 Build 0)  -->
<!DOCTYPE svg PUBLIC "-//W3C//DTD SVG 1.1//EN" "http://www.w3.org/Graphics/SVG/1.1/DTD/svg11.dtd">
<svg version="1.1" id="Layer_1" xmlns="http://www.w3.org/2000/svg" xmlns:xlink="http://www.w3.org/1999/xlink" x="0px" y="0px"
	 viewBox="0 0 16 16" enable-background="new 0 0 16 16" xml:space="preserve">
<g id="exchange_1_">
	<g>
		<path fill-rule="evenodd" clip-rule="evenodd" d="M1.99,5.99c-1.1,0-2,0.9-2,2s0.9,2,2,2s2-0.9,2-2S3.1,5.99,1.99,5.99z
			 M6.14,7.85c0.09,0.09,0.22,0.15,0.35,0.15c0.28,0,0.5-0.22,0.5-0.5c0-0.14-0.06-0.26-0.15-0.35L5.7,5.99h5.79
			c0.28,0,0.5-0.22,0.5-0.5s-0.22-0.5-0.5-0.5H5.7l1.15-1.15c0.09-0.09,0.15-0.22,0.15-0.35c0-0.28-0.22-0.5-0.5-0.5
			c-0.14,0-0.26,0.06-0.35,0.15l-2,2C4.05,5.23,3.99,5.35,3.99,5.49s0.06,0.26,0.15,0.35L6.14,7.85z M13.99,5.99c-1.1,0-2,0.9-2,2
			s0.9,2,2,2s2-0.9,2-2S15.1,5.99,13.99,5.99z M9.85,8.14C9.75,8.05,9.63,7.99,9.49,7.99c-0.28,0-0.5,0.22-0.5,0.5
			c0,0.14,0.06,0.26,0.15,0.35l1.15,1.15H4.49c-0.28,0-0.5,0.22-0.5,0.5s0.22,0.5,0.5,0.5h5.79l-1.15,1.15
			c-0.09,0.09-0.15,0.22-0.15,0.35c0,0.28,0.22,0.5,0.5,0.5c0.14,0,0.26-0.06,0.35-0.15l2-2c0.09-0.09,0.15-0.22,0.15-0.35
			s-0.06-0.26-0.15-0.35L9.85,8.14z"/>
	</g>
</g>
</svg>
