<?xml version="1.0" encoding="utf-8"?>
<!-- Generator: Adobe Illustrator 18.1.0, SVG Export Plug-In . SVG Version: 6.00 Build 0)  -->
<svg version="1.1" id="Layer_1" xmlns="http://www.w3.org/2000/svg" xmlns:xlink="http://www.w3.org/1999/xlink" x="0px" y="0px"
	 viewBox="0 0 16 16" enable-background="new 0 0 16 16" xml:space="preserve">
<g id="exclude_row">
	<g>
		<path d="M0,10c0,0.55,0.45,1,1,1c0.28,0,0.53-0.11,0.71-0.29L3,9.41l1.29,1.29C4.47,10.89,4.72,11,5,11c0.55,0,1-0.45,1-1
			c0-0.28-0.11-0.53-0.29-0.71L4.41,8l1.29-1.29C5.89,6.53,6,6.28,6,6c0-0.55-0.45-1-1-1C4.72,5,4.47,5.11,4.29,5.29L3,6.59
			L1.71,5.29C1.53,5.11,1.28,5,1,5C0.45,5,0,5.45,0,6c0,0.28,0.11,0.53,0.29,0.71L1.59,8L0.29,9.29C0.11,9.47,0,9.72,0,10z M1,3h14
			c0.55,0,1-0.45,1-1c0-0.55-0.45-1-1-1H1C0.45,1,0,1.45,0,2C0,2.55,0.45,3,1,3z M15,13H1c-0.55,0-1,0.45-1,1c0,0.55,0.45,1,1,1h14
			c0.55,0,1-0.45,1-1C16,13.45,15.55,13,15,13z M14,6H9C7.9,6,7,6.9,7,8c0,1.1,0.9,2,2,2h5c1.1,0,2-0.9,2-2C16,6.9,15.1,6,14,6z"/>
	</g>
</g>
</svg>
