<?xml version="1.0" encoding="utf-8"?>
<!-- Generator: Adobe Illustrator 18.0.0, SVG Export Plug-In . SVG Version: 6.00 Build 0)  -->
<svg version="1.1" id="Layer_1" xmlns="http://www.w3.org/2000/svg" xmlns:xlink="http://www.w3.org/1999/xlink" x="0px" y="0px"
	 viewBox="0 0 16 16" enable-background="new 0 0 16 16" xml:space="preserve">
<g id="expand_all_1_">
	<g>
		<path fill-rule="evenodd" clip-rule="evenodd" d="M4,7c0.28,0,0.53-0.11,0.71-0.29L8,3.41l3.29,3.29C11.47,6.89,11.72,7,12,7
			c0.55,0,1-0.45,1-1c0-0.28-0.11-0.53-0.29-0.71l-4-4C8.53,1.11,8.28,1,8,1S7.47,1.11,7.29,1.29l-4,4C3.11,5.47,3,5.72,3,6
			C3,6.55,3.45,7,4,7z M12,9c-0.28,0-0.53,0.11-0.71,0.29L8,12.59L4.71,9.29C4.53,9.11,4.28,9,4,9c-0.55,0-1,0.45-1,1
			c0,0.28,0.11,0.53,0.29,0.71l4,4C7.47,14.89,7.72,15,8,15s0.53-0.11,0.71-0.29l4-4C12.89,10.53,13,10.28,13,10
			C13,9.45,12.55,9,12,9z"/>
	</g>
</g>
</svg>
