<?xml version="1.0" encoding="utf-8"?>
<!-- Generator: Adobe Illustrator 17.1.0, SVG Export Plug-In . SVG Version: 6.00 Build 0)  -->
<!DOCTYPE svg PUBLIC "-//W3C//DTD SVG 1.1//EN" "http://www.w3.org/Graphics/SVG/1.1/DTD/svg11.dtd">
<svg version="1.1" id="Layer_1" xmlns="http://www.w3.org/2000/svg" xmlns:xlink="http://www.w3.org/1999/xlink" x="0px" y="0px"
	 viewBox="0 0 16 16" enable-background="new 0 0 16 16" xml:space="preserve">
<g id="export_3_">
	<g>
		<path fill-rule="evenodd" clip-rule="evenodd" d="M4,6c0.28,0,0.53-0.11,0.71-0.29L7,3.41V11c0,0.55,0.45,1,1,1s1-0.45,1-1V3.41
			l2.29,2.29C11.47,5.89,11.72,6,12,6c0.55,0,1-0.45,1-1c0-0.28-0.11-0.53-0.29-0.71l-4-4C8.53,0.11,8.28,0,8,0S7.47,0.11,7.29,0.29
			l-4,4C3.11,4.47,3,4.72,3,5C3,5.55,3.45,6,4,6z M15,11c-0.55,0-1,0.45-1,1v2H2v-2c0-0.55-0.45-1-1-1s-1,0.45-1,1v3
			c0,0.55,0.45,1,1,1h14c0.55,0,1-0.45,1-1v-3C16,11.45,15.55,11,15,11z"/>
	</g>
</g>
</svg>
