<svg xmlns="http://www.w3.org/2000/svg" xml:space="preserve" viewBox="0 0 16 16"><path fill-rule="evenodd" d="M10.29 6.7c.18.18.43.29.71.29s.53-.11.71-.29l4-4c.17-.18.29-.43.29-.7a1.003 1.003 0 0 0-1.71-.71L11 4.58 9.71 3.29A.997.997 0 0 0 9 3c-.55 0-1 .44-1 1a1 1 0 0 0 .3.7l1.99 2zM16 7.96v-.07a.64.64 0 0 0-.17-.36c-.3-.4-.65-.76-1-1.12l-1.7 1.7c-.55.55-1.3.88-2.13.88-.06 0-.11-.01-.17-.02C10.42 10.15 9.32 11 8.01 11A3.005 3.005 0 0 1 6.4 5.46c-.24-.43-.39-.93-.39-1.46 0-.26.04-.5.1-.74-.7.2-1.37.5-2.01.86-1.26.7-2.4 1.68-3.4 2.77-.18.21-.36.41-.53.63-.22.29-.22.64 0 .93.51.67 1.12 1.27 1.73 1.81 1.33 1.17 2.85 2.15 4.53 2.55.97.23 1.95.24 2.92.05.89-.18 1.74-.54 2.54-.99 1.25-.71 2.4-1.69 3.39-2.78.18-.2.37-.41.54-.63.09-.1.15-.23.17-.37v-.1c.01-.01.01-.02.01-.03zM8.01 9c.48 0 .87-.35.96-.81a.55.55 0 0 1-.07-.09l-.02.01L7.8 7.03c-.45.1-.79.48-.79.96 0 .56.45 1.01 1 1.01z" clip-rule="evenodd"/></svg>