<?xml version="1.0" encoding="UTF-8"?>
<svg width="16px" height="16px" viewBox="0 0 16 16" version="1.1" xmlns="http://www.w3.org/2000/svg" xmlns:xlink="http://www.w3.org/1999/xlink">
    <!-- Generator: Sketch 49.1 (51147) - http://www.bohemiancoding.com/sketch -->
    <title>Artboard</title>
    <desc>Created with Sketch.</desc>
    <defs></defs>
    <g id="Artboard" stroke="none" stroke-width="1" fill="none" fill-rule="evenodd">
        <g id="pt-icon-eye-open" transform="translate(0.000000, 3.000000)" fill="#000000" fill-rule="nonzero">
            <path d="M8.0024961,4.00268104 C7.45335413,4.00268104 7.00405616,4.45384886 7.00405616,5.0052762 C7.00405616,5.55670353 7.45335413,6.00787135 8.0024961,6.00787135 C8.55163807,6.00787135 9.00093604,5.55670353 9.00093604,5.0052762 C9.00093604,4.45384886 8.55163807,4.00268104 8.0024961,4.00268104 Z M15.9900156,4.97519834 C15.9900156,4.96517239 15.9900156,4.96517239 15.9900156,4.95514644 C15.9900156,4.95514644 15.9900156,4.94512049 15.9900156,4.94512049 C15.9900156,4.93509454 15.9900156,4.93509454 15.9900156,4.92506858 C15.9900156,4.91504263 15.9900156,4.91504263 15.9900156,4.90501668 C15.9900156,4.90501668 15.9900156,4.90501668 15.9900156,4.90501668 C15.9700468,4.76465336 15.9101404,4.64434194 15.8202808,4.54408243 C15.3110764,3.87234367 14.7020281,3.28081253 14.0829953,2.73941114 C12.7550702,1.56637481 11.2374415,0.583831557 9.5600624,0.192819446 C8.58159126,-0.0478033913 7.61310452,-0.0578293429 6.63463339,0.132663737 C5.74602184,0.313130865 4.89734789,0.674065121 4.08861154,1.12523294 C2.84056162,1.8370755 1.69235569,2.8095928 0.693915757,3.90242153 C0.514196568,4.11296651 0.334477379,4.31348554 0.16474259,4.53405647 C-0.0549141966,4.82480907 -0.0549141966,5.17571737 0.16474259,5.46646997 C0.673946958,6.13820872 1.28299532,6.72973987 1.90202808,7.27114121 C3.2299532,8.44417754 4.7475819,9.4267208 6.424961,9.81773291 C7.39344774,10.0483298 8.37191888,10.0583557 9.35039002,9.85783671 C10.2390016,9.67736959 11.0876755,9.31643533 11.8964119,8.86526751 C13.1444618,8.15342495 14.2926677,7.18090765 15.2911076,6.08807897 C15.4708268,5.88755994 15.6605304,5.67701495 15.8302652,5.45644402 C15.9201248,5.3561845 15.9800312,5.22584713 16,5.09550976 C16,5.09550976 16,5.09550976 16,5.09550976 C16,5.08548381 16,5.08548381 16,5.07545786 C16,5.06543191 16,5.06543191 16,5.05540596 C16,5.05540596 16,5.04538 16,5.04538 C16,5.03535405 16,5.03535405 16,5.0253281 C16,5.01530215 16,5.0052762 16,4.99525025 C16,4.98522429 15.9900156,4.98522429 15.9900156,4.97519834 Z M8.0024961,8.01306163 C6.3450858,8.01306163 5.00717629,6.66958416 5.00717629,5.0052762 C5.00717629,3.34096824 6.3450858,1.99749073 8.0024961,1.99749073 C9.6599064,1.99749073 10.9978159,3.34096824 10.9978159,5.0052762 C10.9978159,6.66958416 9.6599064,8.01306163 8.0024961,8.01306163 Z" id="Shape"></path>
        </g>
    </g>
</svg>