<svg xmlns="http://www.w3.org/2000/svg" xml:space="preserve" viewBox="0 0 16 16"><path fill-rule="evenodd" d="M16 7.97V7.9a.672.672 0 0 0-.17-.36c-.49-.63-1.07-1.2-1.65-1.72l-3.16 2.26a2.978 2.978 0 0 1-2.98 2.9c-.31 0-.6-.06-.88-.15L5.09 12.3c.44.19.9.36 1.37.47.97.23 1.94.24 2.92.05.88-.17 1.74-.54 2.53-.98 1.25-.7 2.39-1.67 3.38-2.75.18-.2.37-.41.53-.62.09-.1.15-.22.17-.36v-.1c.01-.02.01-.03.01-.04zm-.43-4.17c.25-.18.43-.46.43-.8 0-.55-.45-1-1-1-.22 0-.41.08-.57.2l-.01-.01-2.67 1.91c-.69-.38-1.41-.69-2.17-.87a6.8 6.8 0 0 0-2.91-.05c-.88.18-1.74.54-2.53.99-1.25.7-2.39 1.67-3.38 2.75-.18.2-.37.41-.53.62-.23.29-.23.63-.01.92.51.66 1.11 1.25 1.73 1.79.18.16.38.29.56.44l-2.09 1.5.01.01c-.25.18-.43.46-.43.8 0 .55.45 1 1 1 .22 0 .41-.08.57-.2l.01.01 14-10-.01-.01zm-10.41 5a3.03 3.03 0 0 1-.11-.8 2.99 2.99 0 0 1 2.99-2.98c.62 0 1.19.21 1.66.53L5.16 8.8z" clip-rule="evenodd"/></svg>