<?xml version="1.0" encoding="utf-8"?>
<!-- Generator: Adobe Illustrator 18.1.0, SVG Export Plug-In . SVG Version: 6.00 Build 0)  -->
<svg version="1.1" id="Layer_1" xmlns="http://www.w3.org/2000/svg" xmlns:xlink="http://www.w3.org/1999/xlink" x="0px" y="0px"
	 viewBox="0 0 16 16" enable-background="new 0 0 16 16" xml:space="preserve">
<g id="fast_forward">
	<g>
		<path fill-rule="evenodd" clip-rule="evenodd" d="M15,8c0-0.32-0.16-0.59-0.38-0.77l0.01-0.01l-5-4L9.62,3.23
			C9.44,3.09,9.24,3,9,3C8.45,3,8,3.45,8,4v2.72l-4.38-3.5L3.62,3.23C3.44,3.09,3.24,3,3,3C2.45,3,2,3.45,2,4v8c0,0.55,0.45,1,1,1
			c0.24,0,0.44-0.09,0.62-0.23l0.01,0.01L8,9.28V12c0,0.55,0.45,1,1,1c0.24,0,0.44-0.09,0.62-0.23l0.01,0.01l5-4
			c0,0-0.01-0.01-0.01-0.01C14.84,8.59,15,8.32,15,8z"/>
	</g>
</g>
</svg>
