<?xml version="1.0" encoding="utf-8"?>
<!-- Generator: Adobe Illustrator 18.1.0, SVG Export Plug-In . SVG Version: 6.00 Build 0)  -->
<svg version="1.1" id="Layer_1" xmlns="http://www.w3.org/2000/svg" xmlns:xlink="http://www.w3.org/1999/xlink" x="0px" y="0px"
	 viewBox="0 0 16 16" enable-background="new 0 0 16 16" xml:space="preserve">
<g id="fast_backward">
	<g>
		<path fill-rule="evenodd" clip-rule="evenodd" d="M14,3c-0.24,0-0.44,0.09-0.62,0.23l-0.01-0.01L9,6.72V4c0-0.55-0.45-1-1-1
			C7.76,3,7.56,3.09,7.38,3.23L7.38,3.22l-5,4c0,0,0.01,0.01,0.01,0.01C2.16,7.41,2,7.68,2,8s0.16,0.59,0.38,0.77L2.38,8.78l5,4
			l0.01-0.01C7.56,12.91,7.76,13,8,13c0.55,0,1-0.45,1-1V9.28l4.38,3.5l0.01-0.01C13.56,12.91,13.76,13,14,13c0.55,0,1-0.45,1-1V4
			C15,3.45,14.55,3,14,3z"/>
	</g>
</g>
</svg>
