<svg xmlns="http://www.w3.org/2000/svg" xml:space="preserve" viewBox="0 0 16 16"><path fill-rule="evenodd" d="M3 2c1.06 0 2.08.16 3.06.45.13-.71.52-1.32 1.05-1.76C5.82.25 4.44 0 3 0c-.55 0-1 .45-1 1s.45 1 1 1zM2 12c-1.1 0-2 .9-2 2s.9 2 2 2 2-.9 2-2-.9-2-2-2zm8.32-6.33a.99.99 0 0 0 1.4 0l3.98-3.98c.19-.18.3-.42.3-.7 0-.55-.45-.99-1-.99-.28 0-.52.11-.7.29l-3.28 3.28-1.29-1.29a.99.99 0 0 0-.7-.29 1 1 0 0 0-1 .99c0 .27.11.52.29.7l2 1.99zm3.73.53-.93.93-.02-.02c-.17.17-.35.33-.56.45C13.47 9.16 14 11.02 14 13c0 .55.45 1 1 1s1-.45 1-1c0-2.5-.73-4.82-1.95-6.8zM3 8c-.55 0-1 .45-1 1s.45 1 1 1c1.66 0 3 1.34 3 3 0 .55.45 1 1 1s1-.45 1-1c0-2.76-2.24-5-5-5zm5.91-.91-.03.03-2-2 .03-.03c-.11-.11-.23-.2-.33-.33A8.9 8.9 0 0 0 3 4c-.55 0-1 .45-1 1s.45 1 1 1c3.87 0 7 3.13 7 7 0 .55.45 1 1 1s1-.45 1-1c0-1.87-.57-3.61-1.55-5.06-.61-.11-1.13-.42-1.54-.85z" clip-rule="evenodd"/></svg>