<?xml version="1.0" encoding="utf-8"?>
<!-- Generator: Adobe Illustrator 18.0.0, SVG Export Plug-In . SVG Version: 6.00 Build 0)  -->
<svg version="1.1" id="Shape_3_1_" xmlns="http://www.w3.org/2000/svg" xmlns:xlink="http://www.w3.org/1999/xlink" x="0px" y="0px"
	 viewBox="0 0 16 16" enable-background="new 0 0 16 16" xml:space="preserve">
<g id="Shape_3">
	<g>
		<path fill-rule="evenodd" clip-rule="evenodd" d="M3,2c1.06,0,2.08,0.16,3.06,0.45c0.13-0.71,0.52-1.32,1.05-1.76
			C5.82,0.25,4.44,0,3,0C2.45,0,2,0.45,2,1S2.45,2,3,2z M2,12c-1.1,0-2,0.9-2,2c0,1.1,0.9,2,2,2s2-0.9,2-2C4,12.9,3.1,12,2,12z
			 M10.32,5.67c0.18,0.18,0.43,0.29,0.7,0.29c0.27,0,0.52-0.11,0.7-0.29l3.98-3.98C15.89,1.51,16,1.27,16,0.99C16,0.44,15.55,0,15,0
			c-0.28,0-0.52,0.11-0.7,0.29l-3.28,3.28L9.73,2.28C9.55,2.1,9.3,1.99,9.03,1.99c-0.55,0-1,0.45-1,0.99c0,0.27,0.11,0.52,0.29,0.7
			L10.32,5.67z M14.05,6.2l-0.93,0.93l-0.02-0.02c-0.17,0.17-0.35,0.33-0.56,0.45C13.47,9.16,14,11.02,14,13c0,0.55,0.45,1,1,1
			s1-0.45,1-1C16,10.5,15.27,8.18,14.05,6.2z M3,8C2.45,8,2,8.45,2,9s0.45,1,1,1c1.66,0,3,1.34,3,3c0,0.55,0.45,1,1,1s1-0.45,1-1
			C8,10.24,5.76,8,3,8z M8.91,7.09L8.88,7.12l-2-2l0.03-0.03C6.8,4.98,6.68,4.89,6.58,4.76C5.48,4.28,4.28,4,3,4C2.45,4,2,4.45,2,5
			s0.45,1,1,1c3.87,0,7,3.13,7,7c0,0.55,0.45,1,1,1s1-0.45,1-1c0-1.87-0.57-3.61-1.55-5.06C9.84,7.83,9.32,7.52,8.91,7.09z"/>
	</g>
</g>
</svg>
