<?xml version="1.0" encoding="utf-8"?>
<!-- Generator: Adobe Illustrator 18.0.0, SVG Export Plug-In . SVG Version: 6.00 Build 0)  -->
<svg version="1.1" id="Layer_1" xmlns="http://www.w3.org/2000/svg" xmlns:xlink="http://www.w3.org/1999/xlink" x="0px" y="0px"
	 viewBox="0 0 16 16" enable-background="new 0 0 16 16" xml:space="preserve">
<g id="keep_filter_1_">
	<g>
		<path fill-rule="evenodd" clip-rule="evenodd" d="M15,10c-0.28,0-0.53,0.11-0.71,0.29L12,12.59l-1.29-1.29
			C10.53,11.11,10.28,11,10,11c-0.55,0-1,0.45-1,1c0,0.28,0.11,0.53,0.29,0.71l2,2C11.47,14.89,11.72,15,12,15s0.53-0.11,0.71-0.29
			l3-3C15.89,11.53,16,11.28,16,11C16,10.45,15.55,10,15,10z M12,2c0-0.55-0.45-1-1-1H1C0.45,1,0,1.45,0,2
			c0,0.28,0.11,0.53,0.29,0.71L4,6.41V12c0,0.55,0.45,1,1,1c0.28,0,0.53-0.11,0.71-0.29l2-2C7.89,10.53,8,10.28,8,10V6.41l3.71-3.71
			C11.89,2.53,12,2.28,12,2z"/>
	</g>
</g>
</svg>
