<svg xmlns="http://www.w3.org/2000/svg" xml:space="preserve" viewBox="0 0 16 16"><path fill-rule="evenodd" d="M12 2c0-.55-.45-1-1-1H1a1.003 1.003 0 0 0-.71 1.71L4 6.41V12a1.003 1.003 0 0 0 1.71.71l2-2c.18-.18.29-.43.29-.71V6.41l3.71-3.71c.18-.17.29-.42.29-.7zm2.41 10 1.29-1.29c.19-.18.3-.43.3-.71a1.003 1.003 0 0 0-1.71-.71L13 10.59 11.71 9.3A.965.965 0 0 0 11 9a1.003 1.003 0 0 0-.71 1.71l1.3 1.29-1.29 1.29c-.19.18-.3.43-.3.71a1.003 1.003 0 0 0 1.71.71l1.29-1.3 1.29 1.29c.18.19.43.3.71.3a1.003 1.003 0 0 0 .71-1.71L14.41 12z" clip-rule="evenodd"/></svg>