<?xml version="1.0" encoding="utf-8"?>
<!-- Generator: Adobe Illustrator 18.0.0, SVG Export Plug-In . SVG Version: 6.00 Build 0)  -->
<svg version="1.1" id="Layer_1" xmlns="http://www.w3.org/2000/svg" xmlns:xlink="http://www.w3.org/1999/xlink" x="0px" y="0px"
	 viewBox="0 0 16 16" enable-background="new 0 0 16 16" xml:space="preserve">
<g id="remove_filter_1_">
	<g>
		<path fill-rule="evenodd" clip-rule="evenodd" d="M12,2c0-0.55-0.45-1-1-1H1C0.45,1,0,1.45,0,2c0,0.28,0.11,0.53,0.29,0.71L4,6.41
			V12c0,0.55,0.45,1,1,1c0.28,0,0.53-0.11,0.71-0.29l2-2C7.89,10.53,8,10.28,8,10V6.41l3.71-3.71C11.89,2.53,12,2.28,12,2z
			 M14.41,12l1.29-1.29C15.89,10.53,16,10.28,16,10c0-0.55-0.45-1-1-1c-0.28,0-0.53,0.11-0.71,0.29L13,10.59l-1.29-1.29
			C11.53,9.11,11.28,9,11,9c-0.55,0-1,0.45-1,1c0,0.28,0.11,0.53,0.29,0.71L11.59,12l-1.29,1.29C10.11,13.47,10,13.72,10,14
			c0,0.55,0.45,1,1,1c0.28,0,0.53-0.11,0.71-0.29L13,13.41l1.29,1.29C14.47,14.89,14.72,15,15,15c0.55,0,1-0.45,1-1
			c0-0.28-0.11-0.53-0.29-0.71L14.41,12z"/>
	</g>
</g>
</svg>
