<?xml version="1.0" encoding="utf-8"?>
<!-- Generator: Adobe Illustrator 17.1.0, SVG Export Plug-In . SVG Version: 6.00 Build 0)  -->
<!DOCTYPE svg PUBLIC "-//W3C//DTD SVG 1.1//EN" "http://www.w3.org/Graphics/SVG/1.1/DTD/svg11.dtd">
<svg version="1.1" id="Layer_1" xmlns="http://www.w3.org/2000/svg" xmlns:xlink="http://www.w3.org/1999/xlink" x="0px" y="0px"
	 viewBox="0 0 16 16" enable-background="new 0 0 16 16" xml:space="preserve">
<g id="flag_1_">
	<g>
		<path fill-rule="evenodd" clip-rule="evenodd" d="M2.99,2.99c-0.55,0-1,0.45-1,1v11c0,0.55,0.45,1,1,1s1-0.45,1-1v-11
			C3.99,3.44,3.54,2.99,2.99,2.99z M2.99-0.01c-0.55,0-1,0.45-1,1s0.45,1,1,1s1-0.45,1-1S3.54-0.01,2.99-0.01z M4.99,3.02v7.23
			c2.07-2.11,5.92,1.75,9,0V3.02C10.99,5.09,7.05,0.99,4.99,3.02z"/>
	</g>
</g>
</svg>
