<svg xmlns="http://www.w3.org/2000/svg" xml:space="preserve" viewBox="0 0 16 16"><path fill-rule="evenodd" d="M4 8c0-.55-.45-1-1-1H1c-.55 0-1 .45-1 1s.45 1 1 1h2c.55 0 1-.45 1-1zm4-4c.55 0 1-.45 1-1V1c0-.55-.45-1-1-1S7 .45 7 1v2c0 .55.45 1 1 1zM3.79 5.21a1.003 1.003 0 0 0 1.42-1.42l-1.5-1.5a1.003 1.003 0 0 0-1.42 1.42l1.5 1.5zm.71 5.29c-.28 0-.53.11-.71.29l-1.5 1.5a1.003 1.003 0 0 0 1.42 1.42l1.5-1.5a1.003 1.003 0 0 0-.71-1.71zm7-5c.28 0 .53-.11.71-.29l1.5-1.5a1.003 1.003 0 0 0-1.42-1.42l-1.5 1.5a1.003 1.003 0 0 0 .71 1.71zm.71 5.29a1.003 1.003 0 0 0-1.42 1.42l1.5 1.5a1.003 1.003 0 0 0 1.42-1.42l-1.5-1.5zM15 7h-2c-.55 0-1 .45-1 1s.45 1 1 1h2c.55 0 1-.45 1-1s-.45-1-1-1zM8 5C6.34 5 5 6.34 5 8s1.34 3 3 3 3-1.34 3-3-1.34-3-3-3zm0 4c-.55 0-1-.45-1-1s.45-1 1-1 1 .45 1 1-.45 1-1 1zm0 3c-.55 0-1 .45-1 1v2c0 .55.45 1 1 1s1-.45 1-1v-2c0-.55-.45-1-1-1z" clip-rule="evenodd"/></svg>