<?xml version="1.0" encoding="utf-8"?>
<!-- Generator: Adobe Illustrator 18.1.0, SVG Export Plug-In . SVG Version: 6.00 Build 0)  -->
<svg version="1.1" id="Layer_1" xmlns="http://www.w3.org/2000/svg" xmlns:xlink="http://www.w3.org/1999/xlink" x="0px" y="0px"
	 viewBox="0 0 16 16" enable-background="new 0 0 16 16" xml:space="preserve">
<g id="flash">
	<g>
		<path fill-rule="evenodd" clip-rule="evenodd" d="M4,8c0-0.55-0.45-1-1-1H1C0.45,7,0,7.45,0,8c0,0.55,0.45,1,1,1h2
			C3.55,9,4,8.55,4,8z M8,4c0.55,0,1-0.45,1-1V1c0-0.55-0.45-1-1-1S7,0.45,7,1v2C7,3.55,7.45,4,8,4z M3.79,5.21
			C3.97,5.39,4.22,5.5,4.5,5.5c0.55,0,1-0.45,1-1c0-0.28-0.11-0.53-0.29-0.71l-1.5-1.5C3.53,2.11,3.28,2,3,2C2.45,2,2,2.45,2,3
			c0,0.28,0.11,0.53,0.29,0.71L3.79,5.21z M4.5,10.5c-0.28,0-0.53,0.11-0.71,0.29l-1.5,1.5C2.11,12.47,2,12.72,2,13
			c0,0.55,0.45,1,1,1c0.28,0,0.53-0.11,0.71-0.29l1.5-1.5c0.18-0.18,0.29-0.43,0.29-0.71C5.5,10.95,5.05,10.5,4.5,10.5z M11.5,5.5
			c0.28,0,0.53-0.11,0.71-0.29l1.5-1.5C13.89,3.53,14,3.28,14,3c0-0.55-0.45-1-1-1c-0.28,0-0.53,0.11-0.71,0.29l-1.5,1.5
			C10.61,3.97,10.5,4.22,10.5,4.5C10.5,5.05,10.95,5.5,11.5,5.5z M12.21,10.79c-0.18-0.18-0.43-0.29-0.71-0.29c-0.55,0-1,0.45-1,1
			c0,0.28,0.11,0.53,0.29,0.71l1.5,1.5C12.47,13.89,12.72,14,13,14c0.55,0,1-0.45,1-1c0-0.28-0.11-0.53-0.29-0.71L12.21,10.79z
			 M15,7h-2c-0.55,0-1,0.45-1,1c0,0.55,0.45,1,1,1h2c0.55,0,1-0.45,1-1C16,7.45,15.55,7,15,7z M8,5C6.34,5,5,6.34,5,8s1.34,3,3,3
			s3-1.34,3-3S9.66,5,8,5z M8,9C7.45,9,7,8.55,7,8c0-0.55,0.45-1,1-1s1,0.45,1,1C9,8.55,8.55,9,8,9z M8,12c-0.55,0-1,0.45-1,1v2
			c0,0.55,0.45,1,1,1s1-0.45,1-1v-2C9,12.45,8.55,12,8,12z"/>
	</g>
</g>
</svg>
