<?xml version="1.0" encoding="UTF-8"?>
<svg width="16px" height="16px" viewBox="0 0 16 16" version="1.1" xmlns="http://www.w3.org/2000/svg" xmlns:xlink="http://www.w3.org/1999/xlink">
    <!-- Generator: Sketch 51.3 (57544) - http://www.bohemiancoding.com/sketch -->
    <title>Artboard</title>
    <desc>Created with Sketch.</desc>
    <defs></defs>
    <g id="Artboard" stroke="none" stroke-width="1" fill="none" fill-rule="evenodd">
        <g id="flow-review-branch" transform="translate(0.000000, 1.000000)" fill="#000000" fill-rule="nonzero">
            <path d="M10.3919424,9.64728431 C9.97372736,9.86819238 9.49696057,9.99328079 8.99094437,9.99328079 C7.68437363,9.99328079 6.57281165,9.15930362 6.16069546,7.99520961 L3.3705107,7.99516666 L4.7087121,9.31254997 C4.88125873,9.49102284 4.99581361,9.72318257 4.99104962,9.99604007 C4.98169178,10.5320103 4.4672899,10.9908382 4.00187772,10.990831 C3.53646553,10.9908239 3.37055399,10.8040975 3.25409612,10.6972974 L0.280917055,7.68167497 C0.108370426,7.50320208 -0.0046189513,7.26728123 0.000145039236,6.99442369 C0.00490902964,6.72156616 0.116479323,6.47981609 0.295151084,6.30747215 L3.30413984,3.27948711 C3.4828116,3.10714316 3.72858482,3.00420535 4.00175468,3.0089723 C4.53833834,3.01833595 5.0003155,3.49404471 4.99095766,4.03001486 C4.98619367,4.30287239 4.87462338,4.54462245 4.69595161,4.7169664 L3.3704799,5.99726322 L6.16018886,5.99730616 C6.57190011,4.83246405 7.68383788,3.99780281 8.99094437,3.99780281 C9.44670436,3.99780281 9.87873638,4.09927819 10.2656304,4.28084343 L12.6816653,2.00417245 L10.9504043,2.00758665 C10.7022746,1.99903365 10.4575637,1.87895828 10.2713983,1.67937252 C9.90571636,1.28732906 9.92765201,0.667185897 10.3201442,0.301276594 C10.5199584,0.114995503 10.7798112,-0.0143955411 11.0345897,0.00128551713 L15.0467265,0.00614481731 C15.2948562,0.0146978223 15.5400612,0.10593657 15.7262266,0.305522335 C15.9123919,0.5051081 16.0001126,0.75649153 15.9913383,1.00454879 L15.9895567,5.04990052 C15.9807824,5.29795778 15.8755132,5.54268888 15.675699,5.72896999 C15.2832068,6.09487927 14.6203468,6.07351551 14.2546649,5.68147204 C14.0684995,5.48188628 13.9807788,5.23050284 13.9895531,4.98244558 L13.9902985,3.2898881 L11.6486894,5.6017646 C11.8680029,6.01815088 11.9921147,6.49236898 11.9921147,6.99554181 C11.9921147,7.44696947 11.8922171,7.87509146 11.7132986,8.25905489 L13.9985085,10.6789245 L13.9950934,8.94811583 C14.0036487,8.70005091 14.1182415,8.45540152 14.3178794,8.26928478 C14.7100253,7.90369834 15.3303305,7.92562827 15.6963354,8.31801794 C15.8826652,8.51777996 16.0120901,8.77756487 15.9964049,9.03227682 L15.9915443,13.0433654 C15.9829891,13.2914304 15.8917316,13.5482427 15.6920937,13.7343595 C15.4924558,13.9204762 15.2410067,14.0081739 14.9928846,13.999402 L10.9464758,13.9976208 C10.6983537,13.9888488 10.4535535,13.8719356 10.2672237,13.6721736 C9.90121881,13.2797839 9.92259285,12.6277439 10.3147387,12.2621574 C10.5143767,12.0760406 10.7658258,11.988343 11.0139479,11.997115 L12.7069476,11.9978602 L10.3919424,9.64728431 Z" id="Shape"></path>
        </g>
    </g>
</svg>