<?xml version="1.0" encoding="UTF-8"?>
<svg width="16px" height="16px" viewBox="0 0 16 16" version="1.1" xmlns="http://www.w3.org/2000/svg" xmlns:xlink="http://www.w3.org/1999/xlink">
    <!-- Generator: Sketch 51.3 (57544) - http://www.bohemiancoding.com/sketch -->
    <title>Artboard</title>
    <desc>Created with Sketch.</desc>
    <defs></defs>
    <g id="Artboard" stroke="none" stroke-width="1" fill="none" fill-rule="evenodd">
        <g id="flow-review" transform="translate(0.000000, 4.000000)" fill="#000000" fill-rule="nonzero">
            <path d="M5.17502424,3.0041154 C5.58808718,1.83779196 6.69907715,1.00253375 8.00477524,1.00253375 C9.31047333,1.00253375 10.4214633,1.83779196 10.8345262,3.0041154 L12.8201959,3.0041154 C11.9241044,2.24827723 11.4189873,1.81148845 11.3048445,1.69374907 C11.1336303,1.51713999 11.0125406,1.26240997 11.0125406,0.988613065 C11.0125406,0.450797719 11.4659531,0 12.0027294,0 C12.2759974,0 12.5233603,0.108119169 12.6990325,0.293909925 C12.8161473,0.417770429 13.8188741,1.42307667 15.7072129,3.30982864 C15.8828852,3.48584094 16,3.720524 16,3.9943209 C16,4.2681178 15.8926447,4.51257933 15.7169725,4.68859162 L12.7037685,7.71642464 C12.5280963,7.89243693 12.2841071,8 12.0108391,8 C11.4587222,8 11.0125406,7.55263506 11.0125406,7.01481972 C11.0125406,6.74102281 11.1291722,6.47013512 11.3048445,6.29412282 L12.8201959,5.00150979 L10.83967,5.00150979 C10.4307489,6.17547981 9.3159318,7.01773622 8.00477524,7.01773622 C6.69361868,7.01773622 5.57880159,6.17547981 5.16988044,5.00150979 L3.17980412,5.00150979 L4.69515551,6.29412282 C4.87082776,6.47013512 4.9874594,6.74102281 4.9874594,7.01481972 C4.9874594,7.55263506 4.54127783,8 3.98916089,8 C3.71589295,8 3.47190371,7.89243693 3.29623146,7.71642464 L0.283027512,4.68859162 C0.107355263,4.51257933 0,4.2681178 0,3.9943209 C0,3.720524 0.117114833,3.48584094 0.292787081,3.30982864 C2.18112585,1.42307667 3.18385265,0.417770429 3.30096749,0.293909925 C3.47663974,0.108119169 3.72400264,0 3.99727058,0 C4.5340469,0 4.9874594,0.450797719 4.9874594,0.988613065 C4.9874594,1.26240997 4.86636971,1.51713999 4.69515551,1.69374907 C4.58101271,1.81148845 4.07589558,2.24827723 3.17980412,3.0041154 L5.17502424,3.0041154 Z" id="Shape"></path>
        </g>
    </g>
</svg>