<?xml version="1.0" encoding="UTF-8"?>
<svg width="16px" height="16px" viewBox="0 0 16 16" version="1.1" xmlns="http://www.w3.org/2000/svg" xmlns:xlink="http://www.w3.org/1999/xlink">
    <!-- Generator: Sketch 51.3 (57544) - http://www.bohemiancoding.com/sketch -->
    <title>Artboard</title>
    <desc>Created with Sketch.</desc>
    <defs></defs>
    <g id="Artboard" stroke="none" stroke-width="1" fill="none" fill-rule="evenodd">
        <g id="flow-end" transform="translate(0.000000, 4.000000)" fill="#000000" fill-rule="nonzero">
            <path d="M9.70246722,3.30982864 C9.87803467,3.48584094 9.99507964,3.720524 9.99507964,3.9943209 C9.99507964,4.26811781 9.88778842,4.51257933 9.71222097,4.68859162 C7.82360897,6.59807317 6.81980683,7.60735084 6.70081454,7.71642464 C6.5223261,7.88003533 6.2814034,8 6.00829848,8 C5.4565109,8 5.0105955,7.55263507 5.0105955,7.01481972 C5.0105955,6.74102282 5.12339437,6.47357566 5.30272502,6.29412282 C5.42227878,6.1744876 5.92709458,5.74361659 6.81717243,5.00150979 L0.979999153,5.00150979 C0.443543051,5.00150979 0.00462442105,4.53213625 0.00462442105,3.9943209 C0.00462442105,3.45650556 0.443543051,2.99779332 0.979999153,2.99779332 L6.81717243,2.99779332 C5.92161553,2.24616986 5.41679972,1.81148845 5.30272502,1.69374907 C5.13161296,1.51714 5.0105955,1.26240997 5.0105955,0.988613069 C5.0105955,0.450797719 5.46373752,0 6.00019362,0 C6.27329855,0 6.52051389,0.108119169 6.69608134,0.293909925 C6.81312631,0.417770429 7.81525493,1.42307667 9.70246722,3.30982864 Z M13,7.00192214 C11.3431458,7.00192214 10,5.6553732 10,3.9943209 C10,2.33326861 11.3431458,0.986719669 13,0.986719669 C14.6568542,0.986719669 16,2.33326861 16,3.9943209 C16,5.6553732 14.6568542,7.00192214 13,7.00192214 Z" id="Shape"></path>
        </g>
    </g>
</svg>