<?xml version="1.0" encoding="UTF-8"?>
<svg width="16px" height="16px" viewBox="0 0 16 16" version="1.1" xmlns="http://www.w3.org/2000/svg" xmlns:xlink="http://www.w3.org/1999/xlink">
    <!-- Generator: Sketch 49.1 (51147) - http://www.bohemiancoding.com/sketch -->
    <title>Artboard</title>
    <desc>Created with Sketch.</desc>
    <defs></defs>
    <g id="Artboard" stroke="none" stroke-width="1" fill="none" fill-rule="evenodd">
        <path d="M10.164914,7 C10.5772678,8.16420385 11.6886136,9 12.9918801,9 C14.2951465,9 15.4064923,8.16420385 15.8188461,7 L16,7 L16,14 C16,14.55 15.5502811,15 15.0006246,15 L1.00936914,15 C0.45971268,15 0.0099937539,14.55 0.0099937539,14 L0.0099937539,7 L10.164914,7 Z M8.76002758,6 L0,6 L0,3 C0,2.45 0.449718926,2 0.99937539,2 L2.99812617,2 C3.27795128,2 3.52779513,2.11 3.7076827,2.29 L5.41661462,4 L7.99500312,4 C7.99500312,4.76773528 8.28449934,5.46891156 8.76002758,6 Z M14.9906309,3 C15.5402873,3 15.9900062,3.45 15.9900062,4 C15.9900062,4.55 15.5402873,5 14.9906309,5 L13.9912555,5 L13.9912555,6 C13.9912555,6.55 13.5415365,7 12.9918801,7 C12.4422236,7 11.9925047,6.55 11.9925047,6 L11.9925047,5 L10.9931293,5 C10.4434728,5 9.9937539,4.55 9.9937539,4 C9.9937539,3.45 10.4434728,3 10.9931293,3 L11.9925047,3 L11.9925047,2 C11.9925047,1.45 12.4422236,1 12.9918801,1 C13.5415365,1 13.9912555,1.45 13.9912555,2 L13.9912555,3 L14.9906309,3 Z" id="Combined-Shape" fill="#000000" fill-rule="nonzero"></path>
    </g>
</svg>