<?xml version="1.0" encoding="utf-8"?>
<!-- Generator: Adobe Illustrator 17.1.0, SVG Export Plug-In . SVG Version: 6.00 Build 0)  -->
<!DOCTYPE svg PUBLIC "-//W3C//DTD SVG 1.1//EN" "http://www.w3.org/Graphics/SVG/1.1/DTD/svg11.dtd">
<svg version="1.1" id="Layer_1" xmlns="http://www.w3.org/2000/svg" xmlns:xlink="http://www.w3.org/1999/xlink" x="0px" y="0px"
	 viewBox="0 0 16 16" enable-background="new 0 0 16 16" xml:space="preserve">
<g id="folder_share">
	<g>
		<path d="M8.76,5.98C8.29,5.45,7.99,4.76,7.99,3.99H7.41L5.7,2.29c-0.18-0.19-0.43-0.3-0.71-0.3h-4c-0.55,0-1,0.45-1,1v3h8.76
			L8.76,5.98z M14.99,2.99h-4c-0.55,0-1,0.45-1,1s0.45,1,1,1h1.59l-3.3,3.3C9.1,8.47,8.99,8.72,8.99,8.99c0,0.55,0.45,1,1,1
			c0.28,0,0.53-0.11,0.71-0.29l3.29-3.29V8c0,0.55,0.45,1,1,1s1-0.45,1-1V4C15.99,3.44,15.54,2.99,14.99,2.99z M13.01,10.22
			l-0.9,0.9l-0.01-0.01C11.56,11.66,10.82,12,9.99,12c-1.66,0-3-1.34-3-3c0-0.77,0.3-1.47,0.78-2h-7.78v7c0,0.55,0.45,1,1,1h14
			c0.55,0,1-0.45,1-1v-3.18c-0.31,0.11-0.65,0.18-1,0.18C14.23,10.99,13.54,10.69,13.01,10.22z"/>
	</g>
</g>
</svg>
