<svg xmlns="http://www.w3.org/2000/svg" xml:space="preserve" viewBox="0 0 16 16"><path fill-rule="evenodd" d="m13.02 10.22-.9.9-.01-.01c-.54.55-1.28.89-2.11.89-1.66 0-3-1.34-3-3 0-.77.3-1.47.78-2H4a.99.99 0 0 0-.94.69l-2 6c-.04.09-.06.2-.06.31 0 .55.45 1 1 1h11c.44 0 .81-.29.94-.69l1.11-3.32c-.01 0-.03.01-.05.01-.77 0-1.45-.3-1.98-.78zM2.06 6.69c.14-.4.5-.69.94-.69h5.76l.01-.01C8.3 5.46 8 4.77 8 4H6.41l-1.7-1.71A.997.997 0 0 0 4 2H1c-.55 0-1 .45-1 1v9.84l2.05-6.15h.01zM15 3h-4c-.55 0-1 .45-1 1s.45 1 1 1h1.59l-3.3 3.29a1.003 1.003 0 0 0 1.42 1.42L14 6.41V8c0 .55.45 1 1 1s1-.45 1-1V4c0-.55-.45-1-1-1z" clip-rule="evenodd"/></svg>