<?xml version="1.0" encoding="utf-8"?>
<!-- Generator: Adobe Illustrator 18.0.0, SVG Export Plug-In . SVG Version: 6.00 Build 0)  -->
<svg version="1.1" id="Layer_1" xmlns="http://www.w3.org/2000/svg" xmlns:xlink="http://www.w3.org/1999/xlink" x="0px" y="0px"
	 viewBox="0 0 16 16" enable-background="new 0 0 16 16" xml:space="preserve">
<g id="folder_open_2_">
	<g>
		<path fill-rule="evenodd" clip-rule="evenodd" d="M2.06,6.69C2.2,6.29,2.56,6,3,6h11V5c0-0.55-0.45-1-1-1H6.41L4.71,2.29
			C4.53,2.11,4.28,2,4,2H1C0.45,2,0,2.45,0,3v9.84l2.05-6.15L2.06,6.69z M16,8c0-0.55-0.45-1-1-1H4C3.56,7,3.19,7.29,3.06,7.69l0,0
			l-2,6l0,0C1.02,13.78,1,13.89,1,14c0,0.55,0.45,1,1,1h11c0.44,0,0.81-0.29,0.94-0.69l0,0l2-6l0,0C15.98,8.22,16,8.11,16,8z"/>
	</g>
</g>
</svg>
