<svg xmlns="http://www.w3.org/2000/svg" xml:space="preserve" viewBox="0 0 16 16"><path d="M8.76 5.98c-.47-.53-.77-1.22-.77-1.99h-.58L5.7 2.29a.965.965 0 0 0-.71-.3h-4c-.55 0-1 .45-1 1v3h8.76l.01-.01zm6.23-2.99h-4c-.55 0-1 .45-1 1s.45 1 1 1h1.59l-3.3 3.3a.99.99 0 0 0-.29.7 1.003 1.003 0 0 0 1.71.71l3.29-3.29V8c0 .55.45 1 1 1s1-.45 1-1V4c0-.56-.45-1.01-1-1.01zm-1.98 7.23-.9.9-.01-.01c-.54.55-1.28.89-2.11.89-1.66 0-3-1.34-3-3 0-.77.3-1.47.78-2H-.01v7c0 .55.45 1 1 1h14c.55 0 1-.45 1-1v-3.18c-.31.11-.65.18-1 .18-.76-.01-1.45-.31-1.98-.78z"/></svg>