<svg xmlns="http://www.w3.org/2000/svg" xml:space="preserve" viewBox="0 0 16 16"><path fill-rule="evenodd" d="M9.37 12.69c-1.2-.53-1.04-.85-1.08-1.29-.01-.06-.01-.12-.01-.19.41-.37.75-.87.97-1.44 0 0 .01-.03.01-.04.05-.13.09-.26.12-.39.28-.06.44-.36.5-.63.06-.11.19-.39.16-.7-.04-.4-.2-.59-.38-.67v-.07c0-.52-.05-1.26-.14-1.74a2.72 2.72 0 0 0-.09-.43 3.02 3.02 0 0 0-1.04-1.51C7.87 3.2 7.15 3 6.5 3c-.64 0-1.36.2-1.87.59-.5.38-.87.92-1.05 1.51-.04.13-.07.27-.09.4-.09.49-.14 1.24-.14 1.75v.06c-.19.07-.36.26-.4.68-.03.31.1.59.16.7.06.28.23.59.51.64.04.14.08.27.13.39 0 .01.01.02.01.02v.01c.22.59.57 1.1.99 1.46 0 .06-.01.12-.01.17-.04.44.08.76-1.12 1.29-1.2.53-3.01 1.1-3.38 1.95C-.13 15.5.02 16 .02 16h12.96s.15-.5-.22-1.36c-.38-.85-2.19-1.42-3.39-1.95zM14.99 2h-2.58l.29-.29A1.003 1.003 0 0 0 11.28.29l-2 2c-.17.18-.29.43-.29.71 0 .28.11.53.29.71l2 2a1.003 1.003 0 0 0 1.42-1.42L12.41 4h2.58c.55 0 1-.45 1-1s-.45-1-1-1z" clip-rule="evenodd"/></svg>