<?xml version="1.0" encoding="utf-8"?>
<!-- Generator: Adobe Illustrator 18.0.0, SVG Export Plug-In . SVG Version: 6.00 Build 0)  -->
<svg version="1.1" id="Layer_1" xmlns="http://www.w3.org/2000/svg" xmlns:xlink="http://www.w3.org/1999/xlink" x="0px" y="0px"
	 viewBox="0 0 16 16" enable-background="new 0 0 16 16" xml:space="preserve">
<g id="follower_2_">
	<g>
		<path fill-rule="evenodd" clip-rule="evenodd" d="M9.37,12.69c-1.2-0.53-1.04-0.85-1.08-1.29c-0.01-0.06-0.01-0.12-0.01-0.19
			c0.41-0.37,0.75-0.87,0.97-1.44c0,0,0.01-0.03,0.01-0.04c0.05-0.13,0.09-0.26,0.12-0.39c0.28-0.06,0.44-0.36,0.5-0.63
			c0.06-0.11,0.19-0.39,0.16-0.7c-0.04-0.4-0.2-0.59-0.38-0.67c0-0.02,0-0.05,0-0.07c0-0.52-0.05-1.26-0.14-1.74
			C9.5,5.37,9.47,5.24,9.43,5.1c-0.18-0.6-0.55-1.13-1.04-1.51C7.87,3.2,7.15,3,6.5,3C5.86,3,5.14,3.2,4.63,3.59
			C4.13,3.97,3.76,4.51,3.58,5.1c-0.04,0.13-0.07,0.27-0.09,0.4C3.4,5.99,3.35,6.74,3.35,7.25c0,0.02,0,0.04,0,0.06
			c-0.19,0.07-0.36,0.26-0.4,0.68c-0.03,0.31,0.1,0.59,0.16,0.7c0.06,0.28,0.23,0.59,0.51,0.64C3.66,9.47,3.7,9.6,3.75,9.72
			c0,0.01,0.01,0.02,0.01,0.02l0,0.01c0.22,0.59,0.57,1.1,0.99,1.46c0,0.06-0.01,0.12-0.01,0.17c-0.04,0.44,0.08,0.76-1.12,1.29
			c-1.2,0.53-3.01,1.1-3.38,1.95C-0.13,15.5,0.02,16,0.02,16h12.96c0,0,0.15-0.5-0.22-1.36C12.38,13.79,10.57,13.22,9.37,12.69z
			 M15.7,2.29l-2-2C13.52,0.11,13.27,0,12.99,0c-0.55,0-1,0.45-1,1c0,0.28,0.11,0.53,0.29,0.71L12.58,2H9.99c-0.55,0-1,0.45-1,1
			c0,0.55,0.45,1,1,1h2.58l-0.29,0.29C12.1,4.47,11.99,4.72,11.99,5c0,0.55,0.45,1,1,1c0.28,0,0.53-0.11,0.71-0.29l2-2
			c0.18-0.18,0.29-0.43,0.29-0.71C15.99,2.72,15.88,2.47,15.7,2.29z"/>
	</g>
</g>
</svg>
