<?xml version="1.0" encoding="utf-8"?>
<!-- Generator: Adobe Illustrator 17.1.0, SVG Export Plug-In . SVG Version: 6.00 Build 0)  -->
<!DOCTYPE svg PUBLIC "-//W3C//DTD SVG 1.1//EN" "http://www.w3.org/Graphics/SVG/1.1/DTD/svg11.dtd">
<svg version="1.1" id="Layer_1" xmlns="http://www.w3.org/2000/svg" xmlns:xlink="http://www.w3.org/1999/xlink" x="0px" y="0px"
	 viewBox="0 0 16 16" enable-background="new 0 0 16 16" xml:space="preserve">
<g id="fork_2_">
	<g>
		<path d="M13.7,9.29C13.52,9.11,13.27,9,12.99,9c-0.55,0-1,0.45-1,1c0,0.28,0.11,0.53,0.29,0.71L12.57,11H11.4l-5-5h6.17
			l-0.29,0.29C12.1,6.47,11.99,6.72,11.99,7c0,0.55,0.45,1,1,1c0.28,0,0.53-0.11,0.71-0.29l2-2c0.18-0.18,0.29-0.43,0.29-0.71
			s-0.11-0.53-0.29-0.71l-2-2C13.52,2.11,13.27,2,12.99,2c-0.55,0-1,0.45-1,1c0,0.28,0.11,0.53,0.29,0.71L12.57,4H0.99
			c-0.55,0-1,0.45-1,1s0.45,1,1,1h2.59l6.71,6.71C10.47,12.89,10.72,13,11,13h1.59l-0.29,0.29c-0.18,0.18-0.29,0.43-0.29,0.71
			c0,0.55,0.45,1,1,1c0.28,0,0.53-0.11,0.71-0.29l2-2c0.18-0.18,0.29-0.43,0.29-0.71s-0.11-0.53-0.29-0.71L13.7,9.29z"/>
	</g>
</g>
</svg>
