<?xml version="1.0" encoding="utf-8"?>
<!-- Generator: Adobe Illustrator 18.0.0, SVG Export Plug-In . SVG Version: 6.00 Build 0)  -->
<svg version="1.1" id="Layer_1" xmlns="http://www.w3.org/2000/svg" xmlns:xlink="http://www.w3.org/1999/xlink" x="0px" y="0px"
	 viewBox="0 0 16 16" enable-background="new 0 0 16 16" xml:space="preserve">
<title>Artboard</title>
<desc>Created with Sketch.</desc>
<g id="Create-Triggers">
	<g id="Artboard">
		<path id="Combined-Shape" d="M2,11v2h2v-2H2z M1,9h4c0.55,0,1,0.45,1,1v4c0,0.55-0.45,1-1,1H1c-0.55,0-1-0.45-1-1v-4
			C0,9.45,0.45,9,1,9z M10,3h5l0,0c0.55,0,1,0.45,1,1l0,0c0,0.55-0.45,1-1,1h-5C9.45,5,9,4.55,9,4S9.45,3,10,3z M6,1
			c0.55,0,1,0.45,1,1c0,0.28-0.11,0.53-0.29,0.71l-3,4C3.53,6.89,3.28,7,3,7S2.47,6.89,2.29,6.71l-2-2C0.11,4.53,0,4.28,0,4
			c0-0.55,0.45-1,1-1c0.28,0,0.53,0.11,0.71,0.29L3,4.59l2.29-3.3C5.47,1.11,5.72,1,6,1z M10,11h5c0.55,0,1,0.45,1,1l0,0
			c0,0.55-0.45,1-1,1h-5c-0.55,0-1-0.45-1-1S9.45,11,10,11z"/>
		<g id="download" transform="translate(0.000000, 1.000000)">
		</g>
	</g>
</g>
</svg>
