<?xml version="1.0" encoding="utf-8"?>
<!-- Generator: Adobe Illustrator 18.1.0, SVG Export Plug-In . SVG Version: 6.00 Build 0)  -->
<svg version="1.1" id="Layer_1" xmlns="http://www.w3.org/2000/svg" xmlns:xlink="http://www.w3.org/1999/xlink" x="0px" y="0px"
	 viewBox="0 0 16 16" enable-background="new 0 0 16 16" xml:space="preserve">
<g id="fullscreen_2_">
	<g>
		<path fill-rule="evenodd" clip-rule="evenodd" d="M3.41,2H5c0.55,0,1-0.45,1-1c0-0.55-0.45-1-1-1H1C0.45,0,0,0.45,0,1v4
			c0,0.55,0.45,1,1,1s1-0.45,1-1V3.41l3.29,3.29C5.47,6.89,5.72,7,6,7c0.55,0,1-0.45,1-1c0-0.28-0.11-0.53-0.29-0.71L3.41,2z M6,9
			C5.72,9,5.47,9.11,5.29,9.29L2,12.59V11c0-0.55-0.45-1-1-1s-1,0.45-1,1v4c0,0.55,0.45,1,1,1h4c0.55,0,1-0.45,1-1
			c0-0.55-0.45-1-1-1H3.41l3.29-3.29C6.89,10.53,7,10.28,7,10C7,9.45,6.55,9,6,9z M15,10c-0.55,0-1,0.45-1,1v1.59l-3.29-3.29
			C10.53,9.11,10.28,9,10,9c-0.55,0-1,0.45-1,1c0,0.28,0.11,0.53,0.29,0.71L12.59,14H11c-0.55,0-1,0.45-1,1c0,0.55,0.45,1,1,1h4
			c0.55,0,1-0.45,1-1v-4C16,10.45,15.55,10,15,10z M15,0h-4c-0.55,0-1,0.45-1,1c0,0.55,0.45,1,1,1h1.59L9.29,5.29
			C9.11,5.47,9,5.72,9,6c0,0.55,0.45,1,1,1c0.28,0,0.53-0.11,0.71-0.29L14,3.41V5c0,0.55,0.45,1,1,1s1-0.45,1-1V1
			C16,0.45,15.55,0,15,0z"/>
	</g>
</g>
</svg>
