<svg xmlns="http://www.w3.org/2000/svg" xml:space="preserve" viewBox="0 0 16 16"><path fill-rule="evenodd" d="M13 12h1c.55 0 1-.45 1-1V8h-3v3c0 .55.45 1 1 1zM10 2c0-.55-.45-1-1-1H8c-.55 0-1 .45-1 1v3h3V2zm0 4H7v3h3V6zm5-4c0-.55-.45-1-1-1h-1c-.55 0-1 .45-1 1v2h3V2zm0 3h-3v2h3V5zM5 5H2v3h3V5zm-2 7h1c.55 0 1-.45 1-1V9H2v2c0 .55.45 1 1 1zm12 1H2c-.55 0-1 .45-1 1s.45 1 1 1h13c.55 0 1-.45 1-1s-.45-1-1-1zM5 2c0-.55-.45-1-1-1H3c-.55 0-1 .45-1 1v2h3V2zm3 10h1c.55 0 1-.45 1-1v-1H7v1c0 .55.45 1 1 1z" clip-rule="evenodd"/></svg>