<svg xmlns="http://www.w3.org/2000/svg" xml:space="preserve" viewBox="0 0 16 16"><path fill-rule="evenodd" d="M3.41 2H5c.55 0 1-.45 1-1s-.45-1-1-1H1C.45 0 0 .45 0 1v4c0 .55.45 1 1 1s1-.45 1-1V3.41L5.29 6.7c.18.19.43.3.71.3a1.003 1.003 0 0 0 .71-1.71L3.41 2zM6 9c-.28 0-.53.11-.71.29L2 12.59V11c0-.55-.45-1-1-1s-1 .45-1 1v4c0 .55.45 1 1 1h4c.55 0 1-.45 1-1s-.45-1-1-1H3.41l3.29-3.29c.19-.18.3-.43.3-.71 0-.55-.45-1-1-1zm9 1c-.55 0-1 .45-1 1v1.59L10.71 9.3A.965.965 0 0 0 10 9a1.003 1.003 0 0 0-.71 1.71l3.3 3.29H11c-.55 0-1 .45-1 1s.45 1 1 1h4c.55 0 1-.45 1-1v-4c0-.55-.45-1-1-1zm0-10h-4c-.55 0-1 .45-1 1s.45 1 1 1h1.59l-3.3 3.29a1.003 1.003 0 0 0 1.42 1.42L14 3.41V5c0 .55.45 1 1 1s1-.45 1-1V1c0-.55-.45-1-1-1z" clip-rule="evenodd"/></svg>