<?xml version="1.0" encoding="utf-8"?>
<!-- Generator: Adobe Illustrator 18.1.0, SVG Export Plug-In . SVG Version: 6.00 Build 0)  -->
<svg version="1.1" id="Layer_1" xmlns="http://www.w3.org/2000/svg" xmlns:xlink="http://www.w3.org/1999/xlink" x="0px" y="0px"
	 viewBox="0 0 16 16" enable-background="new 0 0 16 16" xml:space="preserve">
<g id="functions_1_">
	<g>
		<path d="M8.12,4.74H6.98C7.31,3.45,7.73,2.5,8.26,1.9C8.59,1.53,8.9,1.34,9.21,1.34c0.06,0,0.11,0.02,0.15,0.05
			C9.4,1.43,9.42,1.48,9.42,1.54c0,0.05-0.04,0.15-0.13,0.29C9.2,1.97,9.16,2.11,9.16,2.23c0,0.18,0.07,0.33,0.2,0.46
			C9.5,2.82,9.67,2.88,9.88,2.88c0.22,0,0.41-0.08,0.56-0.23c0.15-0.16,0.23-0.37,0.23-0.63c0-0.3-0.11-0.55-0.34-0.74
			C10.1,1.09,9.74,1,9.24,1C8.46,1,7.75,1.22,7.12,1.67C6.48,2.12,5.88,2.87,5.31,3.9c-0.2,0.36-0.38,0.59-0.56,0.69
			C4.57,4.69,4.29,4.74,3.9,4.74l-0.26,0.9h1.08l-1.59,6.12c-0.27,1.01-0.44,1.63-0.54,1.86c-0.14,0.34-0.34,0.63-0.62,0.87
			c-0.11,0.1-0.24,0.15-0.4,0.15c-0.04,0-0.08-0.01-0.11-0.04l-0.04-0.05c0-0.03,0.04-0.08,0.12-0.16c0.08-0.08,0.12-0.2,0.12-0.36
			c0-0.18-0.06-0.33-0.19-0.44c-0.12-0.12-0.3-0.18-0.54-0.18c-0.28,0-0.51,0.08-0.68,0.23C0.09,13.78,0,13.96,0,14.17
			c0,0.22,0.1,0.42,0.31,0.59c0.21,0.17,0.53,0.25,0.97,0.25c0.7,0,1.32-0.18,1.87-0.54c0.54-0.36,1.02-0.92,1.42-1.67
			c0.41-0.75,0.82-1.96,1.25-3.63l0.91-3.54h1.1L8.12,4.74z M13.55,6.26c0.2-0.15,0.41-0.23,0.62-0.23c0.08,0,0.23,0.03,0.45,0.09
			c0.22,0.06,0.41,0.09,0.57,0.09c0.23,0,0.42-0.08,0.57-0.23C15.92,5.82,16,5.62,16,5.37c0-0.26-0.08-0.47-0.23-0.62
			c-0.15-0.15-0.37-0.23-0.66-0.23c-0.25,0-0.5,0.06-0.72,0.18c-0.23,0.12-0.51,0.38-0.86,0.78c-0.26,0.3-0.64,0.81-1.15,1.55
			c-0.2-0.91-0.55-1.75-1.05-2.51L8.61,4.98L8.55,5.27c0.2-0.04,0.37-0.06,0.51-0.06c0.27,0,0.49,0.11,0.67,0.34
			c0.28,0.36,0.67,1.45,1.17,3.26c-0.39,0.52-0.66,0.85-0.8,1.01c-0.24,0.26-0.44,0.42-0.59,0.5c-0.12,0.06-0.25,0.09-0.41,0.09
			c-0.11,0-0.3-0.06-0.56-0.18c-0.18-0.08-0.34-0.12-0.48-0.12c-0.27,0-0.48,0.08-0.66,0.25c-0.17,0.17-0.26,0.38-0.26,0.64
			c0,0.25,0.08,0.44,0.24,0.6c0.16,0.15,0.37,0.23,0.64,0.23c0.26,0,0.5-0.05,0.73-0.16c0.23-0.11,0.52-0.34,0.86-0.69
			c0.35-0.35,0.82-0.9,1.43-1.67c0.23,0.73,0.44,1.25,0.61,1.58s0.37,0.57,0.59,0.71c0.22,0.15,0.5,0.22,0.83,0.22
			c0.32,0,0.65-0.11,0.98-0.34c0.44-0.3,0.88-0.81,1.34-1.53L15.13,9.8c-0.31,0.43-0.54,0.7-0.69,0.8c-0.1,0.07-0.22,0.1-0.35,0.1
			c-0.16,0-0.32-0.1-0.48-0.3c-0.27-0.34-0.62-1.27-1.06-2.8C12.95,6.92,13.28,6.47,13.55,6.26z"/>
	</g>
</g>
</svg>
