<?xml version="1.0" encoding="utf-8"?>
<!-- Generator: Adobe Illustrator 18.0.0, SVG Export Plug-In . SVG Version: 6.00 Build 0)  -->
<svg version="1.1" id="Layer_1" xmlns="http://www.w3.org/2000/svg" xmlns:xlink="http://www.w3.org/1999/xlink" x="0px" y="0px"
	 viewBox="0 0 16 16" enable-background="new 0 0 16 16" xml:space="preserve">
<g id="gantt_chart_1_">
	<g>
		<path fill-rule="evenodd" clip-rule="evenodd" d="M10,10c0,0.55,0.45,1,1,1h4c0.55,0,1-0.45,1-1c0-0.55-0.45-1-1-1h-4
			C10.45,9,10,9.45,10,10z M6,7c0,0.55,0.45,1,1,1h4c0.55,0,1-0.45,1-1c0-0.55-0.45-1-1-1H7C6.45,6,6,6.45,6,7z M15,12H2V3
			c0-0.55-0.45-1-1-1S0,2.45,0,3v10c0,0.55,0.45,1,1,1h14c0.55,0,1-0.45,1-1C16,12.45,15.55,12,15,12z M4,5h3c0.55,0,1-0.45,1-1
			c0-0.55-0.45-1-1-1H4C3.45,3,3,3.45,3,4C3,4.55,3.45,5,4,5z"/>
	</g>
</g>
</svg>
