<svg xmlns="http://www.w3.org/2000/svg" xml:space="preserve" viewBox="0 0 16 16"><path fill-rule="evenodd" d="M6 9c.55 0 1 .45 1 1v4c0 .55-.45 1-1 1s-1-.45-1-1v-1.59l-3.29 3.3A1.003 1.003 0 0 1 0 15c0-.28.11-.53.3-.71L3.59 11H2c-.55 0-1-.45-1-1s.45-1 1-1ZM9.088.004l.097.013.097.024.057.018.1.042.054.029.095.061.052.04 6 5 .05.046.076.08.053.07.06.095.051.11c.056.141.079.294.067.446l-.014.105-.037.143-.035.087-.043.083-4 7-.034.056-.059.08-.038.044-.096.092-.114.082-.116.062-.086.034-.109.03-.1.017-.069.006H8.83c.088-.25.144-.515.163-.79L9 13v-3a3 3 0 0 0-2.824-2.995L6 7H3c-.351 0-.689.06-1.002.171L2 5l.002-.07.013-.1.015-.073.025-.085.043-.104.056-.101.045-.066.079-.093.084-.078.083-.062 6-4 .07-.043.12-.056.111-.036.108-.022.083-.01h.031c.046-.002.083 0 .12.003Z" clip-rule="evenodd"/></svg>