<?xml version="1.0" encoding="utf-8"?>
<!-- Generator: Adobe Illustrator 17.1.0, SVG Export Plug-In . SVG Version: 6.00 Build 0)  -->
<!DOCTYPE svg PUBLIC "-//W3C//DTD SVG 1.1//EN" "http://www.w3.org/Graphics/SVG/1.1/DTD/svg11.dtd">
<svg version="1.1" id="Layer_1" xmlns="http://www.w3.org/2000/svg" xmlns:xlink="http://www.w3.org/1999/xlink" x="0px" y="0px"
	 viewBox="0 0 16 16" enable-background="new 0 0 16 16" xml:space="preserve">
<g id="geosearch_2_">
	<g>
		<path fill-rule="evenodd" clip-rule="evenodd" d="M8.82,12.4h0.66c0.23,0,0.36-0.17,0.36-0.4v-1.48l0.19-0.18
			C9.76,10.37,9.48,10.4,9.2,10.4c-0.28,0-0.56-0.03-0.84-0.07c0.02,0.04,0.05,0.08,0.07,0.13V12C8.43,12.23,8.58,12.4,8.82,12.4z
			 M6.4,15.1c-3.03,0-5.5-2.47-5.5-5.5c0-0.49,0.06-0.98,0.18-1.43c0.03,0,0.05-0.01,0.08-0.01h0.08V8.6c0,0.19,0.17,0.34,0.36,0.34
			c0.03,0,0.07-0.01,0.1-0.01l0.71,0.7c0.07,0.07,0.19,0.07,0.26,0c0.07-0.07,0.07-0.19,0-0.26L1.97,8.65C1.97,8.63,2,8.62,2,8.6
			V8.49c0-0.15,0.08-0.2,0.23-0.33h0.42c0.08,0,0.15-0.01,0.22-0.04c0.01,0,0.02,0,0.02,0C2.91,8.1,2.92,8.1,2.93,8.08
			c0.01-0.01,0.01-0.01,0.02-0.01l0.02-0.01l0.9-0.9C3.74,6.9,3.63,6.64,3.53,6.36h-0.5V5.93c0-0.01,0.05,0.05,0.04-0.08h0.31
			C3.35,5.72,3.32,5.59,3.3,5.46H2.73C2.89,5.34,3.07,5.22,3.24,5.1C3.22,4.87,3.2,4.64,3.2,4.4c0-0.12,0.01-0.23,0.02-0.34
			C1.3,5.16,0,7.23,0,9.6C0,13.13,2.87,16,6.4,16c3.1,0,5.67-2.22,6.26-5.15l-0.78-0.88C11.67,12.82,9.3,15.1,6.4,15.1z M4.7,12.17
			v-0.28h0.12c0.23,0,0.39-0.19,0.39-0.42v-0.54c0,0,0.01-0.01,0-0.01L3.77,9.45H3.15c-0.23,0-0.38,0.19-0.38,0.42v1.6
			c0,0.23,0.14,0.42,0.38,0.42h0.26v1.61c0,0.23,0.22,0.41,0.45,0.41c0.23,0,0.45-0.18,0.45-0.41v-0.97H4.3
			C4.54,12.53,4.7,12.4,4.7,12.17z M15.77,9.83l-2.94-2.94c0.11-0.17,0.21-0.34,0.3-0.52c0.01-0.03,0.03-0.06,0.04-0.09
			c0.08-0.18,0.16-0.36,0.22-0.55c0,0,0,0,0-0.01c0.06-0.19,0.1-0.38,0.14-0.58c0.01-0.05,0.01-0.09,0.02-0.14
			c0.03-0.2,0.05-0.4,0.05-0.61c0-2.43-1.97-4.4-4.4-4.4C6.77,0,4.8,1.97,4.8,4.4s1.97,4.4,4.4,4.4c0.21,0,0.41-0.02,0.61-0.05
			C9.85,8.75,9.9,8.74,9.95,8.73c0.2-0.03,0.39-0.08,0.58-0.14c0,0,0,0,0.01,0c0.19-0.06,0.37-0.14,0.55-0.22
			c0.03-0.01,0.06-0.03,0.09-0.04c0.18-0.09,0.35-0.19,0.52-0.3l2.94,2.94c0.14,0.14,0.34,0.23,0.57,0.23c0.44,0,0.8-0.36,0.8-0.8
			C16,10.18,15.91,9.98,15.77,9.83z M9.2,7.6C7.43,7.6,6,6.17,6,4.4c0-1.77,1.43-3.2,3.2-3.2s3.2,1.43,3.2,3.2
			C12.4,6.17,10.97,7.6,9.2,7.6z M10.74,11.86v-0.52c0-0.09-0.1-0.17-0.19-0.17c-0.09,0-0.19,0.07-0.19,0.17v0.52
			c0,0.09,0.1,0.17,0.19,0.17C10.64,12.03,10.74,11.96,10.74,11.86z"/>
	</g>
</g>
</svg>
