<svg xmlns="http://www.w3.org/2000/svg" xml:space="preserve" viewBox="0 0 16 16"><path fill-rule="evenodd" d="M8.82 12.4h.66c.23 0 .36-.17.36-.4v-1.48l.19-.18c-.27.03-.55.06-.83.06-.28 0-.56-.03-.84-.07.02.04.05.08.07.13V12c0 .23.15.4.39.4zM6.4 15.1A5.51 5.51 0 0 1 .9 9.6c0-.49.06-.98.18-1.43.03 0 .05-.01.08-.01h.08v.44c0 .19.17.34.36.34.03 0 .07-.01.1-.01l.71.7c.07.07.19.07.26 0s.07-.19 0-.26l-.7-.72c0-.02.03-.03.03-.05v-.11c0-.15.08-.2.23-.33h.42c.08 0 .15-.01.22-.04h.02c.02-.02.03-.02.04-.04.01-.01.01-.01.02-.01l.02-.01.9-.9c-.13-.26-.24-.52-.34-.8h-.5v-.43c0-.01.05.05.04-.08h.31c-.03-.13-.06-.26-.08-.39h-.57c.16-.12.34-.24.51-.36-.02-.23-.04-.46-.04-.7 0-.12.01-.23.02-.34A6.385 6.385 0 0 0 0 9.6C0 13.13 2.87 16 6.4 16c3.1 0 5.67-2.22 6.26-5.15l-.78-.88c-.21 2.85-2.58 5.13-5.48 5.13zm-1.7-2.93v-.28h.12c.23 0 .39-.19.39-.42v-.54s.01-.01 0-.01L3.77 9.45h-.62c-.23 0-.38.19-.38.42v1.6c0 .23.14.42.38.42h.26v1.61c0 .23.22.41.45.41s.45-.18.45-.41v-.97H4.3c.24 0 .4-.13.4-.36zm11.07-2.34-2.94-2.94c.11-.17.21-.34.3-.52.01-.03.03-.06.04-.09.08-.18.16-.36.22-.55v-.01c.06-.19.1-.38.14-.58.01-.05.01-.09.02-.14.03-.2.05-.4.05-.61a4.4 4.4 0 0 0-4.4-4.4C6.77 0 4.8 1.97 4.8 4.4s1.97 4.4 4.4 4.4c.21 0 .41-.02.61-.05.04 0 .09-.01.14-.02.2-.03.39-.08.58-.14h.01c.19-.06.37-.14.55-.22.03-.01.06-.03.09-.04.18-.09.35-.19.52-.3l2.94 2.94a.8.8 0 0 0 .57.23c.44 0 .8-.36.8-.8a.895.895 0 0 0-.24-.57zM9.2 7.6C7.43 7.6 6 6.17 6 4.4c0-1.77 1.43-3.2 3.2-3.2s3.2 1.43 3.2 3.2c0 1.77-1.43 3.2-3.2 3.2zm1.54 4.26v-.52c0-.09-.1-.17-.19-.17s-.19.07-.19.17v.52c0 .09.1.17.19.17s.19-.07.19-.17z" clip-rule="evenodd"/></svg>