<svg xmlns="http://www.w3.org/2000/svg" xml:space="preserve" viewBox="0 0 16 16"><path fill-rule="evenodd" d="M3 1C1.34 1 0 2.34 0 4c0 1.3.84 2.4 2 2.82v3.37C.84 10.6 0 11.7 0 13c0 1.66 1.34 3 3 3s3-1.34 3-3c0-1.3-.84-2.4-2-2.82V6.82C5.16 6.4 6 5.3 6 4c0-1.66-1.34-3-3-3zm0 13c-.55 0-1-.45-1-1s.45-1 1-1 1 .45 1 1-.45 1-1 1zm0-9c-.55 0-1-.45-1-1s.45-1 1-1 1 .45 1 1-.45 1-1 1zm11 5.18V6c0-1.66-1.34-3-3-3H9.41l1.29-1.29c.19-.18.3-.43.3-.71A1.003 1.003 0 0 0 9.29.29l-3 3C6.11 3.47 6 3.72 6 4c0 .28.11.53.29.71l3 3a1.003 1.003 0 0 0 1.42-1.42L9.41 5H11c.55 0 1 .45 1 1v4.18A2.996 2.996 0 0 0 13 16c1.66 0 3-1.34 3-3 0-1.3-.84-2.4-2-2.82zM13 14c-.55 0-1-.45-1-1s.45-1 1-1 1 .45 1 1-.45 1-1 1z" clip-rule="evenodd"/></svg>