<?xml version="1.0" encoding="utf-8"?>
<!-- Generator: Adobe Illustrator 18.0.0, SVG Export Plug-In . SVG Version: 6.00 Build 0)  -->
<svg version="1.1" id="Layer_1" xmlns="http://www.w3.org/2000/svg" xmlns:xlink="http://www.w3.org/1999/xlink" x="0px" y="0px"
	 viewBox="0 0 16 16" enable-background="new 0 0 16 16" xml:space="preserve">
<g id="bit_branch">
	<g>
		<path fill-rule="evenodd" clip-rule="evenodd" d="M12,1c-1.66,0-3,1.34-3,3c0,1.25,0.76,2.32,1.85,2.77C10.54,7.49,9.83,8,9,8H7
			C6.27,8,5.59,8.2,5,8.55V5.82C6.16,5.4,7,4.3,7,3c0-1.66-1.34-3-3-3S1,1.34,1,3c0,1.3,0.84,2.4,2,2.82v4.37
			C1.84,10.59,1,11.7,1,13c0,1.66,1.34,3,3,3s3-1.34,3-3c0-1.04-0.53-1.95-1.32-2.49C6.03,10.2,6.49,10,7,10h2
			c1.92,0,3.52-1.35,3.91-3.15C14.12,6.46,15,5.34,15,4C15,2.34,13.66,1,12,1z M4,2c0.55,0,1,0.45,1,1c0,0.55-0.45,1-1,1S3,3.55,3,3
			C3,2.45,3.45,2,4,2z M4,14c-0.55,0-1-0.45-1-1c0-0.55,0.45-1,1-1s1,0.45,1,1C5,13.55,4.55,14,4,14z M12,5c-0.55,0-1-0.45-1-1
			c0-0.55,0.45-1,1-1s1,0.45,1,1C13,4.55,12.55,5,12,5z"/>
	</g>
</g>
</svg>
