<?xml version="1.0" encoding="utf-8"?>
<!-- Generator: Adobe Illustrator 18.0.0, SVG Export Plug-In . SVG Version: 6.00 Build 0)  -->
<svg version="1.1" id="Layer_1" xmlns="http://www.w3.org/2000/svg" xmlns:xlink="http://www.w3.org/1999/xlink" x="0px" y="0px"
	 viewBox="0 0 16 16" enable-background="new 0 0 16 16" xml:space="preserve">
<g id="git_repo">
	<g>
		<path fill-rule="evenodd" clip-rule="evenodd" d="M5,9H4v1h1V9z M15,0H1C0.45,0,0,0.45,0,1v13c0,0.55,0.45,1,1,1h3v1l2-1l2,1v-1h7
			c0.55,0,1-0.45,1-1V1C16,0.45,15.55,0,15,0z M4,13H2v-1h2V13z M14,13H8v-1h6V13z M14,11H3V2h11V11z M5,3H4v1h1V3z M5,7H4v1h1V7z
			 M5,5H4v1h1V5z"/>
	</g>
</g>
</svg>
