<?xml version="1.0" encoding="utf-8"?>
<!-- Generator: Adobe Illustrator 18.0.0, SVG Export Plug-In . SVG Version: 6.00 Build 0)  -->
<svg version="1.1" id="Layer_1" xmlns="http://www.w3.org/2000/svg" xmlns:xlink="http://www.w3.org/1999/xlink" x="0px" y="0px"
	 viewBox="0 0 16 16" enable-background="new 0 0 16 16" xml:space="preserve">
<g id="GIT_PULL_2_">
	<g>
		<path fill-rule="evenodd" clip-rule="evenodd" d="M3,1C1.34,1,0,2.34,0,4c0,1.3,0.84,2.4,2,2.82v3.37C0.84,10.6,0,11.7,0,13
			c0,1.66,1.34,3,3,3s3-1.34,3-3c0-1.3-0.84-2.4-2-2.82V6.82C5.16,6.4,6,5.3,6,4C6,2.34,4.66,1,3,1z M3,14c-0.55,0-1-0.45-1-1
			c0-0.55,0.45-1,1-1s1,0.45,1,1C4,13.55,3.55,14,3,14z M3,5C2.45,5,2,4.55,2,4c0-0.55,0.45-1,1-1s1,0.45,1,1C4,4.55,3.55,5,3,5z
			 M14,10.18V6c0-1.66-1.34-3-3-3H9.41l1.29-1.29C10.89,1.53,11,1.28,11,1c0-0.55-0.45-1-1-1C9.72,0,9.47,0.11,9.29,0.29l-3,3
			C6.11,3.47,6,3.72,6,4c0,0.28,0.11,0.53,0.29,0.71l3,3C9.47,7.89,9.72,8,10,8c0.55,0,1-0.45,1-1c0-0.28-0.11-0.53-0.29-0.71
			L9.41,5H11c0.55,0,1,0.45,1,1v4.18c-1.16,0.41-2,1.51-2,2.82c0,1.66,1.34,3,3,3s3-1.34,3-3C16,11.7,15.16,10.6,14,10.18z M13,14
			c-0.55,0-1-0.45-1-1c0-0.55,0.45-1,1-1s1,0.45,1,1C14,13.55,13.55,14,13,14z"/>
	</g>
</g>
</svg>
