<svg xmlns="http://www.w3.org/2000/svg" xml:space="preserve" viewBox="0 0 16 16"><path fill-rule="evenodd" d="M14 2h-1V1c0-.55-.45-1-1-1s-1 .45-1 1v1h-1c-.55 0-1 .45-1 1s.45 1 1 1h1v1c0 .55.45 1 1 1s1-.45 1-1V4h1c.55 0 1-.45 1-1s-.45-1-1-1zm-3.18 4.8C10.51 7.51 9.82 8 9 8H7c-.73 0-1.41.2-2 .55V5.82C6.16 5.4 7 4.3 7 3c0-1.66-1.34-3-3-3S1 1.34 1 3c0 1.3.84 2.4 2 2.82v4.37c-1.16.4-2 1.51-2 2.81 0 1.66 1.34 3 3 3s3-1.34 3-3c0-1.04-.53-1.95-1.32-2.49.35-.31.81-.51 1.32-.51h2c1.9 0 3.49-1.33 3.89-3.11-.29.07-.58.11-.89.11-.41 0-.8-.08-1.18-.2zM4 2c.55 0 1 .45 1 1s-.45 1-1 1-1-.45-1-1 .45-1 1-1zm0 12c-.55 0-1-.45-1-1s.45-1 1-1 1 .45 1 1-.45 1-1 1z" clip-rule="evenodd"/></svg>