<?xml version="1.0" encoding="utf-8"?>
<!-- Generator: Adobe Illustrator 18.0.0, SVG Export Plug-In . SVG Version: 6.00 Build 0)  -->
<svg version="1.1" id="Layer_1" xmlns="http://www.w3.org/2000/svg" xmlns:xlink="http://www.w3.org/1999/xlink" x="0px" y="0px"
	 viewBox="0 0 16 16" enable-background="new 0 0 16 16" xml:space="preserve">
<g id="git_new_branch">
	<g>
		<path fill-rule="evenodd" clip-rule="evenodd" d="M14,2h-1V1c0-0.55-0.45-1-1-1s-1,0.45-1,1v1h-1C9.45,2,9,2.45,9,3
			c0,0.55,0.45,1,1,1h1v1c0,0.55,0.45,1,1,1s1-0.45,1-1V4h1c0.55,0,1-0.45,1-1C15,2.45,14.55,2,14,2z M10.82,6.8
			C10.51,7.51,9.82,8,9,8H7C6.27,8,5.59,8.2,5,8.55V5.82C6.16,5.4,7,4.3,7,3c0-1.66-1.34-3-3-3S1,1.34,1,3c0,1.3,0.84,2.4,2,2.82
			v4.37C1.84,10.59,1,11.7,1,13c0,1.66,1.34,3,3,3s3-1.34,3-3c0-1.04-0.53-1.95-1.32-2.49C6.03,10.2,6.49,10,7,10h2
			c1.9,0,3.49-1.33,3.89-3.11C12.6,6.96,12.31,7,12,7C11.59,7,11.2,6.92,10.82,6.8z M4,2c0.55,0,1,0.45,1,1S4.55,4,4,4S3,3.55,3,3
			S3.45,2,4,2z M4,14c-0.55,0-1-0.45-1-1s0.45-1,1-1s1,0.45,1,1S4.55,14,4,14z"/>
	</g>
</g>
</svg>
