<svg xmlns="http://www.w3.org/2000/svg" xml:space="preserve" viewBox="0 0 16 16"><path fill-rule="evenodd" d="M12 1c-1.66 0-3 1.34-3 3 0 1.25.76 2.32 1.85 2.77A2.02 2.02 0 0 1 9 8H7c-.73 0-1.41.2-2 .55V5.82C6.16 5.4 7 4.3 7 3c0-1.66-1.34-3-3-3S1 1.34 1 3c0 1.3.84 2.4 2 2.82v4.37c-1.16.4-2 1.51-2 2.81 0 1.66 1.34 3 3 3s3-1.34 3-3c0-1.04-.53-1.95-1.32-2.49.35-.31.81-.51 1.32-.51h2c1.92 0 3.52-1.35 3.91-3.15A2.996 2.996 0 0 0 12 1zM4 2c.55 0 1 .45 1 1s-.45 1-1 1-1-.45-1-1 .45-1 1-1zm0 12c-.55 0-1-.45-1-1s.45-1 1-1 1 .45 1 1-.45 1-1 1zm8-9c-.55 0-1-.45-1-1s.45-1 1-1 1 .45 1 1-.45 1-1 1z" clip-rule="evenodd"/></svg>