<?xml version="1.0" encoding="utf-8"?>
<!-- Generator: Adobe Illustrator 18.0.0, SVG Export Plug-In . SVG Version: 6.00 Build 0)  -->
<svg version="1.1" id="Layer_1" xmlns="http://www.w3.org/2000/svg" xmlns:xlink="http://www.w3.org/1999/xlink" x="0px" y="0px"
	 viewBox="0 0 16 16" enable-background="new 0 0 16 16" xml:space="preserve">
<g id="GIT_PUSH_1_">
	<g>
		<path fill-rule="evenodd" clip-rule="evenodd" d="M4,6h1V5H4V6z M13,9c0-0.28-0.11-0.53-0.29-0.71l-3-3C9.53,5.11,9.28,5,9,5
			S8.47,5.11,8.29,5.29l-3,3C5.11,8.47,5,8.72,5,9c0,0.55,0.45,1,1,1c0.28,0,0.53-0.11,0.71-0.29L8,8.41V15c0,0.55,0.45,1,1,1
			s1-0.45,1-1V8.41l1.29,1.29C11.47,9.89,11.72,10,12,10C12.55,10,13,9.55,13,9z M5,3H4v1h1V3z M15,0H1C0.45,0,0,0.45,0,1v13
			c0,0.55,0.45,1,1,1h5v-2H2v-1h4v-1H3V2h11v9h-2v1h2v1h-2v2h3c0.55,0,1-0.45,1-1V1C16,0.45,15.55,0,15,0z"/>
	</g>
</g>
</svg>
