<svg xmlns="http://www.w3.org/2000/svg" xml:space="preserve" viewBox="0 0 16 16"><path fill-rule="evenodd" d="M4.45 7.83c-.26 0-.41.21-.41.46v1.75c0 .26.16.46.41.46h.29v1.77c0 .25.24.45.49.45s.49-.2.49-.45V11.2h-.01c.26 0 .44-.14.44-.4v-.3h.14c.26 0 .43-.2.43-.46v-.59s.01-.01 0-.01l-1.58-1.6h-.69zM8.51 3.9h.22c.06 0 .12-.01.12-.07 0-.06-.05-.07-.12-.07h-.22c-.06 0-.12.01-.12.07.01.06.06.07.12.07zm-2.33-.05c.07-.07.07-.19 0-.26l-.5-.5a.187.187 0 0 0-.26 0c-.07.07-.07.19 0 .26l.5.5c.07.07.19.07.26 0zm3.06.89c.07 0 .14-.06.14-.12v-.31c0-.07-.07-.12-.14-.12s-.14.06-.14.12v.31c0 .07.07.12.14.12zM8 0C3.58 0 0 3.58 0 8s3.58 8 8 8 8-3.58 8-8-3.58-8-8-8zm0 14c-3.31 0-6-2.69-6-6 0-.55.1-1.07.23-1.57h.11v.47c0 .2.18.37.39.37.03 0 .08-.01.11-.02l.78.77c.08.08.2.08.28 0 .08-.08.08-.2 0-.28l-.75-.78c0-.02.04-.04.04-.06v-.12c0-.16.09-.22.25-.36h.46c.09 0 .17-.01.24-.05h.02c.02-.01.03-.02.05-.03.01-.01.01-.01.02-.01l.02-.02 1.59-1.58c.18-.18.18-.46 0-.64s-.47-.15-.65.03l-.3.34h-.57v-.48c0-.01.05.05.05-.09h.64c.12 0 .22-.09.22-.21s-.1-.21-.22-.21H4.1c.18-.15.34-.31.54-.44l.01-.01c.21-.14.45-.25.68-.37.15-.07.29-.15.44-.21.17-.07.35-.11.53-.17.18-.05.35-.12.53-.16a6.05 6.05 0 0 1 3.47.35c.05.02.1.05.16.08.25.11.48.24.71.39.25.16.49.34.71.55H10.6s0-.03-.01-.03c-.04 0-.09 0-.13.03l-.51.51a.17.17 0 0 0 0 .23c.06.06.17.06.23 0l.42-.44.01-.02h.25c0 .14-.07.09-.07.12v.07c0 .22-.15.37-.36.37h-.38c-.19 0-.38.21-.38.4v.17h-.1c-.12 0-.2.06-.2.18v.25h-.23c-.17 0-.3.11-.3.28 0 .17.13.26.3.26.07 0 .14.03.19-.11l.04.01.49-.46h.17l.39.37c.03.03.08.02.12-.01.03-.03.03-.12 0-.15l-.32-.35h.23l.09.12c.18.18.48.17.66-.01l.09-.1h.4c.02 0 .08.05.08.05v.24l-.05-.01h-.36c-.11 0-.21.1-.21.21 0 .11.09.21.21.21h.41v.15c-.14.21-.24.42-.45.42h-.94v-.01l-.44-.44a.47.47 0 0 0-.66 0l-.42.43v.01H8.6c-.26 0-.49.21-.49.46v.92c0 .26.23.45.49.45h.9c.34.14.57.35.72.69v1.68c0 .26.17.44.42.44h.72c.26 0 .4-.18.4-.44V9l.89-.86.03-.02.02-.01h.03c.07-.08.15-.19.15-.31v-.91c0-.18-.16-.32-.31-.46H13c.01.28.21.42.46.42h.42c.08.37.12.76.12 1.15 0 3.31-2.69 6-6 6zm4.54-4.27c-.1 0-.21.08-.21.18v.57c0 .1.11.18.21.18.1 0 .21-.08.21-.18v-.57c0-.1-.11-.18-.21-.18zM8.37 3.19c0-.25-.2-.42-.46-.42h-.54c-.25 0-.42.18-.42.43 0 .03-.1.04.05.08v.47c0 .15.06.27.21.27s.21-.12.21-.27v-.14h.5c.24 0 .45-.16.45-.42z" clip-rule="evenodd"/></svg>