<?xml version="1.0" encoding="utf-8"?>
<!-- Generator: Adobe Illustrator 17.1.0, SVG Export Plug-In . SVG Version: 6.00 Build 0)  -->
<!DOCTYPE svg PUBLIC "-//W3C//DTD SVG 1.1//EN" "http://www.w3.org/Graphics/SVG/1.1/DTD/svg11.dtd">
<svg version="1.1" id="Layer_1" xmlns="http://www.w3.org/2000/svg" xmlns:xlink="http://www.w3.org/1999/xlink" x="0px" y="0px"
	 viewBox="0 0 16 16" enable-background="new 0 0 16 16" xml:space="preserve">
<g id="globe_2_">
	<g>
		<path fill-rule="evenodd" clip-rule="evenodd" d="M4.45,7.83c-0.26,0-0.41,0.21-0.41,0.46v1.75c0,0.26,0.16,0.46,0.41,0.46h0.29
			v1.77c0,0.25,0.24,0.45,0.49,0.45c0.25,0,0.49-0.2,0.49-0.45V11.2H5.71c0.26,0,0.44-0.14,0.44-0.4v-0.3h0.14
			c0.26,0,0.43-0.2,0.43-0.46V9.45c0,0,0.01-0.01,0-0.01l-1.58-1.6H4.45z M8.51,3.9h0.22c0.06,0,0.12-0.01,0.12-0.07
			c0-0.06-0.05-0.07-0.12-0.07H8.51c-0.06,0-0.12,0.01-0.12,0.07C8.4,3.89,8.45,3.9,8.51,3.9z M6.18,3.85
			c0.07-0.07,0.07-0.19,0-0.26l-0.5-0.5c-0.07-0.07-0.19-0.07-0.26,0c-0.07,0.07-0.07,0.19,0,0.26l0.5,0.5
			C5.99,3.92,6.11,3.92,6.18,3.85z M9.24,4.74c0.07,0,0.14-0.06,0.14-0.12V4.31c0-0.07-0.07-0.12-0.14-0.12
			c-0.07,0-0.14,0.06-0.14,0.12v0.31C9.1,4.69,9.17,4.74,9.24,4.74z M8,0C3.58,0,0,3.58,0,8s3.58,8,8,8s8-3.58,8-8S12.42,0,8,0z
			 M8,14c-3.31,0-6-2.69-6-6c0-0.55,0.1-1.07,0.23-1.57c0.01,0,0.02,0,0.03,0h0.08V6.9c0,0.2,0.18,0.37,0.39,0.37
			c0.03,0,0.08-0.01,0.11-0.02l0.78,0.77c0.08,0.08,0.2,0.08,0.28,0c0.08-0.08,0.08-0.2,0-0.28L3.15,6.96
			c0-0.02,0.04-0.04,0.04-0.06V6.78c0-0.16,0.09-0.22,0.25-0.36H3.9c0.09,0,0.17-0.01,0.24-0.05c0.01,0,0.02,0,0.02,0
			c0.02-0.01,0.03-0.02,0.05-0.03c0.01-0.01,0.01-0.01,0.02-0.01l0.02-0.02l1.59-1.58c0.18-0.18,0.18-0.46,0-0.64
			C5.66,3.91,5.37,3.94,5.19,4.12L4.89,4.46H4.32V3.98c0-0.01,0.05,0.05,0.05-0.09h0.64c0.12,0,0.22-0.09,0.22-0.21
			s-0.1-0.21-0.22-0.21H4.1c0.18-0.15,0.34-0.31,0.54-0.44c0,0,0.01-0.01,0.01-0.01C4.86,2.88,5.1,2.77,5.33,2.65
			C5.48,2.58,5.62,2.5,5.77,2.44C5.94,2.37,6.12,2.33,6.3,2.27c0.18-0.05,0.35-0.12,0.53-0.16C7.21,2.04,7.6,2,8,2
			c0.82,0,1.59,0.17,2.3,0.46c0.05,0.02,0.1,0.05,0.16,0.08c0.25,0.11,0.48,0.24,0.71,0.39c0.25,0.16,0.49,0.34,0.71,0.55h-1.28
			c0,0,0-0.03-0.01-0.03c-0.04,0-0.09,0-0.13,0.03L9.95,3.99c-0.06,0.06-0.06,0.17,0,0.23c0.06,0.06,0.17,0.06,0.23,0l0.42-0.44
			c0,0,0.01-0.02,0.01-0.02h0.25c0,0.14-0.07,0.09-0.07,0.12v0.07c0,0.22-0.15,0.37-0.36,0.37h-0.38c-0.19,0-0.38,0.21-0.38,0.4
			v0.17H9.57c-0.12,0-0.2,0.06-0.2,0.18c0,0.06,0,0.25,0,0.25H9.14c-0.17,0-0.3,0.11-0.3,0.28c0,0.17,0.13,0.26,0.3,0.26
			c0.07,0,0.14,0.03,0.19-0.11h0l0.04,0.01L9.86,5.3h0.17l0.39,0.37c0.03,0.03,0.08,0.02,0.12-0.01c0.03-0.03,0.03-0.12,0-0.15
			l-0.32-0.35h0.23l0.09,0.12c0.18,0.18,0.48,0.17,0.66-0.01l0.09-0.1h0.4c0.02,0,0.08,0.05,0.08,0.05v0.24c0,0-0.05-0.01-0.05-0.01
			h-0.36c-0.11,0-0.21,0.1-0.21,0.21c0,0.11,0.09,0.21,0.21,0.21h0.36c0,0,0.05,0,0.05,0v0.15c-0.14,0.21-0.24,0.42-0.45,0.42h-0.94
			c0,0,0,0,0-0.01L9.94,5.99c-0.18-0.18-0.48-0.18-0.66,0L8.86,6.42c0,0,0,0.01,0,0.01H8.6c-0.26,0-0.49,0.21-0.49,0.46v0.92
			c0,0.26,0.23,0.45,0.49,0.45h0.9c0.34,0.14,0.57,0.35,0.72,0.69v1.68c0,0.26,0.17,0.44,0.42,0.44h0.72c0.26,0,0.4-0.18,0.4-0.44V9
			l0.89-0.86l0.03-0.02l0.02-0.01l0.03,0c0.07-0.08,0.15-0.19,0.15-0.31V6.89c0-0.18-0.16-0.32-0.31-0.46H13
			c0.01,0.28,0.21,0.42,0.46,0.42h0.42C13.96,7.22,14,7.61,14,8C14,11.31,11.31,14,8,14z M12.54,9.73c-0.1,0-0.21,0.08-0.21,0.18
			v0.57c0,0.1,0.11,0.18,0.21,0.18c0.1,0,0.21-0.08,0.21-0.18V9.91C12.75,9.81,12.64,9.73,12.54,9.73z M8.37,3.19
			c0-0.25-0.2-0.42-0.46-0.42H7.37c-0.25,0-0.42,0.18-0.42,0.43c0,0.03-0.1,0.04,0.05,0.08v0.47c0,0.15,0.06,0.27,0.21,0.27
			c0.15,0,0.21-0.12,0.21-0.27V3.61h0.5C8.16,3.61,8.37,3.45,8.37,3.19z"/>
	</g>
</g>
</svg>
