<?xml version="1.0" encoding="UTF-8"?>
<svg width="16px" height="16px" viewBox="0 0 16 16" version="1.1" xmlns="http://www.w3.org/2000/svg" xmlns:xlink="http://www.w3.org/1999/xlink">
    <!-- Generator: Sketch 50.2 (55047) - http://www.bohemiancoding.com/sketch -->
    <title>pt-icon-globe-network</title>
    <desc>Created with Sketch.</desc>
    <defs></defs>
    <g id="Page-1" stroke="none" stroke-width="1" fill="none" fill-rule="evenodd">
        <g id="pt-icon-globe-network" fill="#000000" fill-rule="nonzero">
            <path d="M8,0 C3.58,0 0,3.58 0,8 C0,12.42 3.58,16 8,16 C12.42,16 16,12.42 16,8 C16,3.58 12.42,0 8,0 Z M13.17,5 L10.73,5 C10.52,3.89 10.22,2.97 9.82,2.31 C11.25,2.77 12.43,3.74 13.17,5 Z M10,8 C10,8.73 9.95,9.39 9.88,10 L6.12,10 C6.05,9.39 6,8.73 6,8 C6,7.27 6.05,6.61 6.12,6 L9.88,6 C9.95,6.61 10,7.27 10,8 Z M8,2 C8.67,2 9.36,3.1 9.73,5 L6.27,5 C6.64,3.1 7.33,2 8,2 Z M6.18,2.31 C5.78,2.97 5.47,3.89 5.27,5 L2.83,5 C3.57,3.74 4.75,2.77 6.18,2.31 Z M2,8 C2,7.3 2.13,6.63 2.35,6 L5.11,6 C5.04,6.62 5,7.28 5,8 C5,8.72 5.04,9.38 5.11,10 L2.35,10 C2.13,9.37 2,8.7 2,8 Z M2.83,11 L5.27,11 C5.48,12.11 5.78,13.03 6.18,13.69 C4.75,13.23 3.57,12.26 2.83,11 Z M8,14 C7.33,14 6.64,12.9 6.27,11 L9.73,11 C9.36,12.9 8.67,14 8,14 Z M9.82,13.69 C10.22,13.03 10.52,12.11 10.73,11 L13.17,11 C12.43,12.26 11.25,13.23 9.82,13.69 Z M13.65,10 L10.89,10 C10.96,9.38 11,8.72 11,8 C11,7.28 10.96,6.62 10.89,6 L13.65,6 C13.87,6.63 14,7.3 14,8 C14,8.7 13.87,9.37 13.65,10 Z" id="Shape"></path>
        </g>
    </g>
</svg>