<?xml version="1.0" encoding="utf-8"?>
<!-- Generator: Adobe Illustrator 17.1.0, SVG Export Plug-In . SVG Version: 6.00 Build 0)  -->
<!DOCTYPE svg PUBLIC "-//W3C//DTD SVG 1.1//EN" "http://www.w3.org/Graphics/SVG/1.1/DTD/svg11.dtd">
<svg version="1.1" id="Layer_1" xmlns="http://www.w3.org/2000/svg" xmlns:xlink="http://www.w3.org/1999/xlink" x="0px" y="0px"
	 viewBox="0 0 16 16" enable-background="new 0 0 16 16" xml:space="preserve">
<g id="graph_1_">
	<g>
		<path fill-rule="evenodd" clip-rule="evenodd" d="M14,3c-1.06,0-1.92,0.83-1.99,1.88l-1.93,0.97C9.54,5.32,8.81,5,8,5
			C7.44,5,6.92,5.16,6.48,5.43L3.97,3.34C3.98,3.23,4,3.12,4,3c0-1.1-0.9-2-2-2S0,1.9,0,3c0,1.1,0.9,2,2,2
			c0.24,0,0.47-0.05,0.68-0.13l2.51,2.09C5.08,7.29,5,7.63,5,8c0,0.96,0.46,1.81,1.16,2.35L5.6,12.04C4.69,12.23,4,13.03,4,14
			c0,1.1,0.9,2,2,2s2-0.9,2-2c0-0.51-0.2-0.97-0.51-1.32l0.56-1.69C9.69,10.96,11,9.64,11,8c0-0.12-0.02-0.24-0.04-0.36l1.94-0.97
			C13.22,6.88,13.59,7,14,7c1.1,0,2-0.9,2-2C16,3.9,15.1,3,14,3z"/>
	</g>
</g>
</svg>
