<?xml version="1.0" encoding="utf-8"?>
<!-- Generator: Adobe Illustrator 17.1.0, SVG Export Plug-In . SVG Version: 6.00 Build 0)  -->
<!DOCTYPE svg PUBLIC "-//W3C//DTD SVG 1.1//EN" "http://www.w3.org/Graphics/SVG/1.1/DTD/svg11.dtd">
<svg version="1.1" id="Layer_1" xmlns="http://www.w3.org/2000/svg" xmlns:xlink="http://www.w3.org/1999/xlink" x="0px" y="0px"
	 viewBox="0 0 16 16" enable-background="new 0 0 16 16" xml:space="preserve">
<g id="remove_from_graph_7_">
	<g>
		<path fill-rule="evenodd" clip-rule="evenodd" d="M12.89,8.11l-0.01,0.01L12.5,7.74l-0.38,0.38L12.1,8.1C11.56,8.65,10.83,9,10,9
			C8.34,9,7,7.66,7,6c0-0.83,0.35-1.56,0.9-2.1L7.88,3.88L8.26,3.5L7.88,3.12l0.01-0.01C7.35,2.57,7,1.83,7,1
			c0-0.34,0.07-0.65,0.17-0.96C3.14,0.46,0,3.86,0,8c0,4.42,3.58,8,8,8c4.14,0,7.54-3.14,7.96-7.17C15.65,8.93,15.34,9,15,9
			C14.17,9,13.43,8.65,12.89,8.11z M13.91,3.5l1.79-1.79C15.89,1.53,16,1.28,16,1c0-0.55-0.45-1-1-1c-0.28,0-0.53,0.11-0.71,0.29
			L12.5,2.09l-1.79-1.79C10.53,0.11,10.28,0,10,0C9.45,0,9,0.45,9,1c0,0.28,0.11,0.53,0.29,0.71l1.79,1.79L9.29,5.29
			C9.11,5.47,9,5.72,9,6c0,0.55,0.45,1,1,1c0.28,0,0.53-0.11,0.71-0.29l1.79-1.79l1.79,1.79C14.47,6.89,14.72,7,15,7
			c0.55,0,1-0.45,1-1c0-0.28-0.11-0.53-0.29-0.71L13.91,3.5z"/>
	</g>
</g>
</svg>
