<svg xmlns="http://www.w3.org/2000/svg" xml:space="preserve" viewBox="0 0 16 16"><path fill-rule="evenodd" d="m12.89 8.11-.01.01-.38-.38-.38.38-.02-.02c-.54.55-1.27.9-2.1.9-1.66 0-3-1.34-3-3 0-.83.35-1.56.9-2.1l-.02-.02.38-.38-.38-.38.01-.01C7.35 2.57 7 1.83 7 1c0-.34.07-.65.17-.96A8.004 8.004 0 0 0 0 8c0 4.42 3.58 8 8 8 4.14 0 7.54-3.14 7.96-7.17-.31.1-.62.17-.96.17-.83 0-1.57-.35-2.11-.89zm1.02-4.61 1.79-1.79c.19-.18.3-.43.3-.71a1.003 1.003 0 0 0-1.71-.71l-1.79 1.8L10.71.3A.965.965 0 0 0 10 0a1.003 1.003 0 0 0-.71 1.71l1.79 1.79-1.79 1.79a1.003 1.003 0 0 0 1.42 1.42l1.79-1.79 1.79 1.79a1.003 1.003 0 0 0 1.42-1.42l-1.8-1.79z" clip-rule="evenodd"/></svg>