<svg xmlns="http://www.w3.org/2000/svg" xml:space="preserve" viewBox="0 0 16 16"><path fill-rule="evenodd" d="M14 3c-1.06 0-1.92.83-1.99 1.88l-1.93.97A2.95 2.95 0 0 0 8 5c-.56 0-1.08.16-1.52.43L3.97 3.34C3.98 3.23 4 3.12 4 3c0-1.1-.9-2-2-2s-2 .9-2 2 .9 2 2 2c.24 0 .47-.05.68-.13l2.51 2.09C5.08 7.29 5 7.63 5 8c0 .96.46 1.81 1.16 2.35l-.56 1.69c-.91.19-1.6.99-1.6 1.96 0 1.1.9 2 2 2s2-.9 2-2c0-.51-.2-.97-.51-1.32l.56-1.69A2.99 2.99 0 0 0 11 8c0-.12-.02-.24-.04-.36l1.94-.97c.32.21.69.33 1.1.33 1.1 0 2-.9 2-2s-.9-2-2-2z" clip-rule="evenodd"/></svg>