<?xml version="1.0" encoding="utf-8"?>
<!-- Generator: Adobe Illustrator 18.1.0, SVG Export Plug-In . SVG Version: 6.00 Build 0)  -->
<svg version="1.1" id="Layer_1" xmlns="http://www.w3.org/2000/svg" xmlns:xlink="http://www.w3.org/1999/xlink" x="0px" y="0px"
	 viewBox="0 0 16 16" enable-background="new 0 0 16 16" xml:space="preserve">
<g id="grid">
	<g>
		<path fill-rule="evenodd" clip-rule="evenodd" d="M15,9c0.55,0,1-0.45,1-1c0-0.55-0.45-1-1-1h-1V4h1c0.55,0,1-0.45,1-1
			c0-0.55-0.45-1-1-1h-1V1c0-0.55-0.45-1-1-1s-1,0.45-1,1v1H9V1c0-0.55-0.45-1-1-1S7,0.45,7,1v1H4V1c0-0.55-0.45-1-1-1S2,0.45,2,1v1
			H1C0.45,2,0,2.45,0,3c0,0.55,0.45,1,1,1h1v3H1C0.45,7,0,7.45,0,8c0,0.55,0.45,1,1,1h1v3H1c-0.55,0-1,0.45-1,1c0,0.55,0.45,1,1,1h1
			v1c0,0.55,0.45,1,1,1s1-0.45,1-1v-1h3v1c0,0.55,0.45,1,1,1s1-0.45,1-1v-1h3v1c0,0.55,0.45,1,1,1s1-0.45,1-1v-1h1
			c0.55,0,1-0.45,1-1c0-0.55-0.45-1-1-1h-1V9H15z M7,12H4V9h3V12z M7,7H4V4h3V7z M12,12H9V9h3V12z M12,7H9V4h3V7z"/>
	</g>
</g>
</svg>
