<svg xmlns="http://www.w3.org/2000/svg" xml:space="preserve" viewBox="0 0 16 16"><path fill-rule="evenodd" d="M15 9c.55 0 1-.45 1-1s-.45-1-1-1h-1V4h1c.55 0 1-.45 1-1s-.45-1-1-1h-1V1c0-.55-.45-1-1-1s-1 .45-1 1v1H9V1c0-.55-.45-1-1-1S7 .45 7 1v1H4V1c0-.55-.45-1-1-1S2 .45 2 1v1H1c-.55 0-1 .45-1 1s.45 1 1 1h1v3H1c-.55 0-1 .45-1 1s.45 1 1 1h1v3H1c-.55 0-1 .45-1 1s.45 1 1 1h1v1c0 .55.45 1 1 1s1-.45 1-1v-1h3v1c0 .55.45 1 1 1s1-.45 1-1v-1h3v1c0 .55.45 1 1 1s1-.45 1-1v-1h1c.55 0 1-.45 1-1s-.45-1-1-1h-1V9h1zm-8 3H4V9h3v3zm0-5H4V4h3v3zm5 5H9V9h3v3zm0-5H9V4h3v3z" clip-rule="evenodd"/></svg>