<?xml version="1.0" encoding="utf-8"?>
<!-- Generator: Adobe Illustrator 17.1.0, SVG Export Plug-In . SVG Version: 6.00 Build 0)  -->
<!DOCTYPE svg PUBLIC "-//W3C//DTD SVG 1.1//EN" "http://www.w3.org/Graphics/SVG/1.1/DTD/svg11.dtd">
<svg version="1.1" id="Layer_1" xmlns="http://www.w3.org/2000/svg" xmlns:xlink="http://www.w3.org/1999/xlink" x="0px" y="0px"
	 viewBox="0 0 16 16" enable-background="new 0 0 16 16" xml:space="preserve">
<g id="group_objects_2_">
	<g>
		<path fill-rule="evenodd" clip-rule="evenodd" d="M5,6C3.9,6,3,6.9,3,8c0,1.1,0.9,2,2,2s2-0.9,2-2C7,6.9,6.1,6,5,6z M11,3H5
			C2.24,3,0,5.24,0,8s2.24,5,5,5h6c2.76,0,5-2.24,5-5S13.76,3,11,3z M11,12H5c-2.21,0-4-1.79-4-4c0-2.21,1.79-4,4-4h6
			c2.21,0,4,1.79,4,4C15,10.21,13.21,12,11,12z M11,6C9.9,6,9,6.9,9,8c0,1.1,0.9,2,2,2s2-0.9,2-2C13,6.9,12.1,6,11,6z"/>
	</g>
</g>
</svg>
