<svg xmlns="http://www.w3.org/2000/svg" xml:space="preserve" viewBox="0 0 16 16"><path fill-rule="evenodd" d="M15 5c0-.55-.45-1-1-1-.41 0-.76.24-.91.59v.01s0 .01-.01.01L11.57 8h-.36l.78-4.84C12 3.11 12 3.05 12 3a1 1 0 0 0-1.99-.16v.01L9.18 8H9V1c0-.55-.45-1-1-1S7 .45 7 1v7h-.09l-.93-5.18A1 1 0 0 0 5 2c-.55 0-1 .45-1 1 0 .05 0 .11.01.16L5.26 11h-.04L2.83 7.44C2.65 7.18 2.35 7 2 7c-.55 0-1 .45-1 1 0 .17.04.33.12.47l3 5.69h.01v.01A5.002 5.002 0 0 0 13 11v-.59l1.93-5.05c.05-.11.07-.23.07-.36z" clip-rule="evenodd"/></svg>