<?xml version="1.0" encoding="utf-8"?>
<!-- Generator: Adobe Illustrator 18.1.0, SVG Export Plug-In . SVG Version: 6.00 Build 0)  -->
<svg version="1.1" id="Layer_1" xmlns="http://www.w3.org/2000/svg" xmlns:xlink="http://www.w3.org/1999/xlink" x="0px" y="0px"
	 viewBox="0 0 16 16" enable-background="new 0 0 16 16" xml:space="preserve">
<g id="hand_down">
	<g>
		<path fill-rule="evenodd" clip-rule="evenodd" d="M14.72,7.87c-1.54-0.67-2.99-2.68-3.7-3.95C10.11,1.95,9.93,0,6.14,0
			C4.05,0,2.71,0.61,1.92,2.12C1.27,3.36,1,5.21,1,7.83v0.79c0,0.65,0.6,1.18,1.35,1.18c0.34,0,0.64-0.11,0.88-0.29
			c0.17,0.48,0.68,0.84,1.29,0.84c0.41,0,0.78-0.16,1.03-0.42c0.23,0.37,0.67,0.63,1.19,0.63c0.57,0,1.05-0.31,1.25-0.74L8,10.45
			v4.05C8,15.33,8.67,16,9.5,16c0.83,0,1.5-0.67,1.5-1.5V7.9c0.58,0.41,1.55,1.21,2.47,1.29C15.04,9.33,15.29,8.12,14.72,7.87z"/>
	</g>
</g>
</svg>
