<?xml version="1.0" encoding="utf-8"?>
<!-- Generator: Adobe Illustrator 18.1.0, SVG Export Plug-In . SVG Version: 6.00 Build 0)  -->
<svg version="1.1" id="Layer_1" xmlns="http://www.w3.org/2000/svg" xmlns:xlink="http://www.w3.org/1999/xlink" x="0px" y="0px"
	 viewBox="0 0 16 16" enable-background="new 0 0 16 16" xml:space="preserve">
<g id="hand_right">
	<g>
		<path fill-rule="evenodd" clip-rule="evenodd" d="M14.5,5H7.89C8.3,4.42,9.1,3.45,9.19,2.53c0.15-1.56-1.07-1.82-1.32-1.25
			C7.2,2.82,5.19,4.27,3.92,4.98C1.95,5.89,0,6.07,0,9.86c0,2.09,0.61,3.43,2.12,4.22C3.36,14.73,5.21,15,7.83,15h0.79
			c0.65,0,1.18-0.6,1.18-1.35c0-0.34-0.11-0.64-0.29-0.88c0.48-0.17,0.84-0.68,0.84-1.29c0-0.41-0.16-0.78-0.42-1.03
			c0.37-0.23,0.63-0.67,0.63-1.19c0-0.57-0.31-1.05-0.74-1.25L10.45,8h4.05C15.33,8,16,7.33,16,6.5S15.33,5,14.5,5z"/>
	</g>
</g>
</svg>
