<?xml version="1.0" encoding="utf-8"?>
<!-- Generator: Adobe Illustrator 18.1.0, SVG Export Plug-In . SVG Version: 6.00 Build 0)  -->
<svg version="1.1" id="Layer_1" xmlns="http://www.w3.org/2000/svg" xmlns:xlink="http://www.w3.org/1999/xlink" x="0px" y="0px"
	 viewBox="0 0 16 16" enable-background="new 0 0 16 16" xml:space="preserve">
<g id="hand_1_">
	<g>
		<path fill-rule="evenodd" clip-rule="evenodd" d="M15,5c0-0.55-0.45-1-1-1c-0.41,0-0.76,0.24-0.91,0.59l0,0.01
			c0,0,0,0.01-0.01,0.01L11.57,8h-0.36l0.78-4.84h0C12,3.11,12,3.05,12,3c0-0.55-0.45-1-1-1c-0.5,0-0.91,0.36-0.99,0.84h0v0
			c0,0,0,0.01,0,0.01L9.18,8H9V1c0-0.55-0.45-1-1-1S7,0.45,7,1v7H6.91L5.98,2.82l0,0C5.9,2.36,5.49,2,5,2C4.45,2,4,2.45,4,3
			c0,0.05,0,0.11,0.01,0.16l0,0L5.26,11H5.22L2.83,7.44C2.65,7.18,2.35,7,2,7C1.45,7,1,7.45,1,8c0,0.17,0.04,0.33,0.12,0.47l3,5.69
			h0.01v0.01C5.05,15.29,6.44,16,8,16c2.76,0,5-2.24,5-5v-0.59l1.93-5.05h0C14.98,5.25,15,5.13,15,5z"/>
	</g>
</g>
</svg>
