<?xml version="1.0" encoding="utf-8"?>
<!-- Generator: Adobe Illustrator 18.1.0, SVG Export Plug-In . SVG Version: 6.00 Build 0)  -->
<svg version="1.1" id="Layer_1" xmlns="http://www.w3.org/2000/svg" xmlns:xlink="http://www.w3.org/1999/xlink" x="0px" y="0px"
	 viewBox="0 0 16 16" enable-background="new 0 0 16 16" xml:space="preserve">
<g id="hand_left">
	<g>
		<path fill-rule="evenodd" clip-rule="evenodd" d="M12.08,4.97c-1.26-0.71-3.27-2.15-3.95-3.7C7.88,0.7,6.67,0.96,6.81,2.52
			C6.9,3.45,7.7,4.42,8.11,5H1.5C0.67,5,0,5.67,0,6.5S0.67,8,1.5,8h4.05l0.63,0.01C5.74,8.21,5.43,8.7,5.43,9.26
			c0,0.52,0.26,0.96,0.63,1.19c-0.26,0.25-0.42,0.61-0.42,1.03c0,0.61,0.35,1.12,0.84,1.29c-0.18,0.24-0.29,0.54-0.29,0.88
			C6.19,14.4,6.73,15,7.38,15h0.79c2.62,0,4.47-0.28,5.71-0.92C15.39,13.29,16,11.94,16,9.86C16,6.07,14.05,5.89,12.08,4.97z"/>
	</g>
</g>
</svg>
