<svg xmlns="http://www.w3.org/2000/svg" xml:space="preserve" viewBox="0 0 16 16"><path d="M13.17 13.93c-.17.15-.33.29-.46.44-.13.16-.22.32-.27.49h3.55V16H11c.01-.65.16-1.22.44-1.71s.67-.91 1.17-1.27c.24-.18.49-.36.75-.54.25-.18.49-.36.71-.57.21-.2.39-.42.53-.65.14-.24.21-.51.22-.82 0-.14-.02-.29-.05-.45-.03-.16-.09-.31-.18-.45a1.13 1.13 0 0 0-.37-.35c-.16-.09-.37-.14-.63-.14-.24 0-.43.05-.59.15-.16.1-.29.24-.38.42-.1.17-.17.38-.21.62-.05.24-.07.5-.08.77h-1.19c0-.43.05-.83.16-1.2s.27-.69.49-.96c.21-.25.48-.46.79-.62.31-.15.67-.23 1.07-.23.45 0 .82.08 1.11.23.3.16.55.36.73.6.19.24.32.5.39.79.08.28.12.54.12.79 0 .31-.04.6-.13.85s-.22.49-.37.7c-.15.21-.32.41-.52.59s-.4.35-.61.51l-.63.45c-.21.14-.39.28-.57.42zM0 1c0-.55.44-1 1-1 .55 0 1 .46 1 1v10c0 .55-.44 1-1 1-.55 0-1-.46-1-1V1zm6 0c0-.55.44-1 1-1 .55 0 1 .46 1 1v10c0 .55-.44 1-1 1-.55 0-1-.46-1-1V1zM2 5h4v2H2V5z"/></svg>