<svg xmlns="http://www.w3.org/2000/svg" width="16" height="16"><path fill-rule="evenodd" d="M1 0C.44 0 0 .45 0 1v10c0 .54.45 1 1 1 .56 0 1-.45 1-1V7h4v4c0 .54.45 1 1 1 .56 0 1-.45 1-1V1c0-.54-.45-1-1-1-.56 0-1 .45-1 1v4H2V1c0-.54-.45-1-1-1Zm13.71 11.72c.41.08.72.3.95.65.23.35.34.77.34 1.27 0 .37-.07.7-.2.97-.14.29-.32.54-.55.74-.23.2-.5.36-.8.47-.3.11-.62.16-.96.16-.41 0-.77-.06-1.08-.19-.31-.12-.56-.31-.77-.54-.21-.24-.36-.52-.47-.85-.11-.33-.16-.7-.17-1.1h1.14c-.01.47.09.86.32 1.17.23.31.57.47 1.02.47.39 0 .71-.12.97-.36s.39-.58.39-1.02c0-.3-.05-.53-.16-.71-.11-.17-.25-.31-.43-.4-.17-.09-.37-.15-.59-.17-.22-.02-.44-.03-.67-.02v-.93c.19.01.38 0 .57-.04.19-.03.36-.1.51-.19.14-.09.26-.22.35-.38.09-.16.14-.36.14-.59 0-.33-.1-.59-.31-.79-.2-.2-.47-.3-.79-.3-.21 0-.38.04-.53.13-.15.09-.27.21-.37.36-.1.15-.17.32-.22.51-.05.19-.07.38-.06.58h-1.15c.01-.38.08-.72.19-1.04.11-.32.27-.6.47-.83.19-.23.44-.42.72-.55.28-.13.6-.2.96-.2.28 0 .55.04.82.13.27.08.51.21.72.38.21.17.38.38.51.64s.19.56.19.9c0 .39-.08.73-.24 1.02-.16.29-.42.5-.76.63v.02Z" clip-rule="evenodd"/></svg>