<svg width="16" height="16" viewBox="0 0 16 16" fill="none" xmlns="http://www.w3.org/2000/svg">
<path fill-rule="evenodd" clip-rule="evenodd" d="M1 0C0.44 0 0 0.45 0 1V11C0 11.54 0.45 12 1 12C1.56 12 2 11.55 2 11V7H6V11C6 11.54 6.45 12 7 12C7.56 12 8 11.55 8 11V1C8 0.46 7.55 0 7 0C6.44 0 6 0.45 6 1V5H2V1C2 0.46 1.55 0 1 0ZM14.71 11.72C15.12 11.8 15.43 12.02 15.66 12.37C15.89 12.72 16 13.14 16 13.64C16 14.01 15.93 14.34 15.8 14.61C15.66 14.9 15.48 15.15 15.25 15.35C15.02 15.55 14.75 15.71 14.45 15.82C14.15 15.93 13.83 15.98 13.49 15.98C13.08 15.98 12.72 15.92 12.41 15.79C12.1 15.67 11.85 15.48 11.64 15.25C11.43 15.01 11.28 14.73 11.17 14.4C11.06 14.07 11.01 13.7 11 13.3H12.14C12.13 13.77 12.23 14.16 12.46 14.47C12.69 14.78 13.03 14.94 13.48 14.94C13.87 14.94 14.19 14.82 14.45 14.58C14.71 14.34 14.84 14 14.84 13.56C14.84 13.26 14.79 13.03 14.68 12.85C14.57 12.68 14.43 12.54 14.25 12.45C14.08 12.36 13.88 12.3 13.66 12.28C13.44 12.26 13.22 12.25 12.99 12.26V11.33C13.18 11.34 13.37 11.33 13.56 11.29C13.75 11.26 13.92 11.19 14.07 11.1C14.21 11.01 14.33 10.88 14.42 10.72C14.51 10.56 14.56 10.36 14.56 10.13C14.56 9.8 14.46 9.54 14.25 9.34C14.05 9.14 13.78 9.04 13.46 9.04C13.25 9.04 13.08 9.08 12.93 9.17C12.78 9.26 12.66 9.38 12.56 9.53C12.46 9.68 12.39 9.85 12.34 10.04C12.29 10.23 12.27 10.42 12.28 10.62H11.13C11.14 10.24 11.21 9.9 11.32 9.58C11.43 9.26 11.59 8.98 11.79 8.75C11.98 8.52 12.23 8.33 12.51 8.2C12.79 8.07 13.11 8 13.47 8C13.75 8 14.02 8.04 14.29 8.13C14.56 8.21 14.8 8.34 15.01 8.51C15.22 8.68 15.39 8.89 15.52 9.15C15.65 9.41 15.71 9.71 15.71 10.05C15.71 10.44 15.63 10.78 15.47 11.07C15.31 11.36 15.05 11.57 14.71 11.7V11.72Z" fill="black"/>
</svg>
