<svg xmlns="http://www.w3.org/2000/svg" xml:space="preserve" viewBox="0 0 16 16"><path fill-rule="evenodd" d="M14.85 6.34C14.18 2.72 11.37 0 8 0S1.82 2.72 1.15 6.34C.47 6.9 0 8.1 0 9.5 0 11.43.9 13 2 13c0 1.1.9 2 2 2h2c0 .55.45 1 1 1h2c.55 0 1-.45 1-1v-1c0-.55-.45-1-1-1H7c-.55 0-1 .45-1 1H4c-.55 0-1-.45-1-1 .55 0 1-.45 1-1V7c0-.45-.3-.81-.71-.94C3.97 3.7 5.81 2 8 2s4.03 1.7 4.71 4.06c-.41.13-.71.49-.71.94v5c0 .55.45 1 1 1h1c1.1 0 2-1.57 2-3.5 0-1.4-.47-2.6-1.15-3.16z" clip-rule="evenodd"/></svg>