<?xml version="1.0" encoding="utf-8"?>
<!-- Generator: Adobe Illustrator 18.1.0, SVG Export Plug-In . SVG Version: 6.00 Build 0)  -->
<svg version="1.1" id="Rectangle_1_1_" xmlns="http://www.w3.org/2000/svg" xmlns:xlink="http://www.w3.org/1999/xlink" x="0px"
	 y="0px" viewBox="0 0 16 16" enable-background="new 0 0 16 16" xml:space="preserve">
<g id="Rectangle_1">
	<g>
		<path fill-rule="evenodd" clip-rule="evenodd" d="M14.85,6.34C14.18,2.72,11.37,0,8,0S1.82,2.72,1.15,6.34C0.47,6.9,0,8.1,0,9.5
			C0,11.43,0.9,13,2,13c0,1.1,0.9,2,2,2h2c0,0.55,0.45,1,1,1h2c0.55,0,1-0.45,1-1v-1c0-0.55-0.45-1-1-1H7c-0.55,0-1,0.45-1,1H4
			c-0.55,0-1-0.45-1-1c0.55,0,1-0.45,1-1V7c0-0.45-0.3-0.81-0.71-0.94C3.97,3.7,5.81,2,8,2s4.03,1.7,4.71,4.06
			C12.3,6.19,12,6.55,12,7v5c0,0.55,0.45,1,1,1h1c1.1,0,2-1.57,2-3.5C16,8.1,15.53,6.9,14.85,6.34z"/>
	</g>
</g>
</svg>
