<?xml version="1.0" encoding="utf-8"?>
<!-- Generator: Adobe Illustrator 18.0.0, SVG Export Plug-In . SVG Version: 6.00 Build 0)  -->
<svg version="1.1" id="Layer_1" xmlns="http://www.w3.org/2000/svg" xmlns:xlink="http://www.w3.org/1999/xlink" x="0px" y="0px"
	 viewBox="0 0 16 16" enable-background="new 0 0 16 16" xml:space="preserve">
<g id="heading_one_2_">
	<path d="M14.06,8c-0.04,0.23-0.12,0.44-0.25,0.61c-0.13,0.17-0.29,0.3-0.48,0.41c-0.18,0.11-0.39,0.18-0.62,0.23
		C12.48,9.29,12.25,9.32,12,9.32v1.03h1.74V16H15V8H14.06z"/>
	<path d="M7,0C6.44,0,6,0.45,6,1v4H2V1c0-0.55-0.45-1-1-1C0.44,0,0,0.45,0,1V11c0,0.55,0.45,1,1,1c0.56,0,1-0.45,1-1V7h4v4
		c0,0.55,0.45,1,1,1c0.56,0,1-0.45,1-1V1C8,0.46,7.55,0,7,0z"/>
</g>
</svg>
