<?xml version="1.0" encoding="utf-8"?>
<!-- Generator: Adobe Illustrator 18.0.0, SVG Export Plug-In . SVG Version: 6.00 Build 0)  -->
<svg version="1.1" id="Layer_1" xmlns="http://www.w3.org/2000/svg" xmlns:xlink="http://www.w3.org/1999/xlink" x="0px" y="0px"
	 viewBox="0 0 16 16" enable-background="new 0 0 16 16" xml:space="preserve">
<g id="heading_two_2_">
	<g id="pt-icon-header2-16">
		<path id="Combined-Shape_16_" d="M13.17,13.93c-0.17,0.15-0.33,0.29-0.46,0.44c-0.13,0.16-0.22,0.32-0.27,0.49h3.55V16H11
			c0.01-0.65,0.16-1.22,0.44-1.71c0.28-0.49,0.67-0.91,1.17-1.27c0.24-0.18,0.49-0.36,0.75-0.54c0.25-0.18,0.49-0.36,0.71-0.57
			c0.21-0.2,0.39-0.42,0.53-0.65c0.14-0.24,0.21-0.51,0.22-0.82c0-0.14-0.02-0.29-0.05-0.45c-0.03-0.16-0.09-0.31-0.18-0.45
			c-0.09-0.14-0.22-0.26-0.37-0.35c-0.16-0.09-0.37-0.14-0.63-0.14c-0.24,0-0.43,0.05-0.59,0.15c-0.16,0.1-0.29,0.24-0.38,0.42
			c-0.1,0.17-0.17,0.38-0.21,0.62c-0.05,0.24-0.07,0.5-0.08,0.77h-1.19c0-0.43,0.05-0.83,0.16-1.2c0.11-0.37,0.27-0.69,0.49-0.96
			C12,8.6,12.27,8.39,12.58,8.23C12.89,8.08,13.25,8,13.65,8c0.45,0,0.82,0.08,1.11,0.23c0.3,0.16,0.55,0.36,0.73,0.6
			c0.19,0.24,0.32,0.5,0.39,0.79C15.96,9.9,16,10.16,16,10.41c0,0.31-0.04,0.6-0.13,0.85c-0.09,0.25-0.22,0.49-0.37,0.7
			c-0.15,0.21-0.32,0.41-0.52,0.59c-0.2,0.18-0.4,0.35-0.61,0.51c-0.21,0.15-0.42,0.3-0.63,0.45
			C13.53,13.65,13.35,13.79,13.17,13.93z M0,1c0-0.55,0.44-1,1-1c0.55,0,1,0.46,1,1v10c0,0.55-0.44,1-1,1c-0.55,0-1-0.46-1-1V1z
			 M6,1c0-0.55,0.44-1,1-1c0.55,0,1,0.46,1,1v10c0,0.55-0.44,1-1,1c-0.55,0-1-0.46-1-1V1z M2,5h4v2H2V5z"/>
	</g>
</g>
</svg>
