<?xml version="1.0" encoding="utf-8"?>
<!-- Generator: Adobe Illustrator 22.0.1, SVG Export Plug-In . SVG Version: 6.00 Build 0)  -->
<svg version="1.1" id="Shape_1_1_" xmlns="http://www.w3.org/2000/svg" xmlns:xlink="http://www.w3.org/1999/xlink" x="0px" y="0px"
	 viewBox="0 0 16 16" enable-background="new 0 0 16 16" xml:space="preserve">
<g id="Shape_1">
	<g>
		<path fill-rule="evenodd" clip-rule="evenodd" d="M7.71,8.87L6.17,6.55l0.02-0.01C6.08,6.39,6,6.21,6,6
			c0-0.07,0.03-0.13,0.04-0.19l-0.02,0L6.8,1.89C6.09,1.34,5.19,1,4.2,1C1.88,1,0,2.83,0,5.09c0,0.07,0.01,0.13,0.01,0.19H0
			c0,0.05,0.01,0.1,0.01,0.14c0,0.05,0.01,0.1,0.01,0.14c0.07,0.8,0.32,1.66,0.82,2.57c1.07,1.94,2.88,3.47,5.86,5.84l-0.68-2.74
			l0.02,0C6.03,11.16,6,11.08,6,11c0-0.28,0.11-0.53,0.29-0.71L7.71,8.87z M16,5.09C16,2.83,14.12,1,11.8,1
			c-1.2,0-2.27,0.5-3.04,1.28l-0.7,3.51l1.77,2.66L9.82,8.46C9.92,8.61,10,8.79,10,9c0,0.28-0.11,0.53-0.29,0.71l-1.6,1.6l0.75,3.01
			c3.23-2.56,5.16-4.15,6.28-6.18c0.5-0.91,0.75-1.77,0.82-2.56c0.01-0.05,0.01-0.11,0.02-0.16c0-0.04,0.01-0.09,0.01-0.13h-0.01
			C15.99,5.22,16,5.15,16,5.09z"/>
	</g>
</g>
</svg>
