<?xml version="1.0" encoding="utf-8"?>
<!-- Generator: Adobe Illustrator 17.1.0, SVG Export Plug-In . SVG Version: 6.00 Build 0)  -->
<!DOCTYPE svg PUBLIC "-//W3C//DTD SVG 1.1//EN" "http://www.w3.org/Graphics/SVG/1.1/DTD/svg11.dtd">
<svg version="1.1" id="Layer_1" xmlns="http://www.w3.org/2000/svg" xmlns:xlink="http://www.w3.org/1999/xlink" x="0px" y="0px"
	 viewBox="0 0 16 16" enable-background="new 0 0 16 16" xml:space="preserve">
<g id="heatmap_3_">
	<g>
		<path fill-rule="evenodd" clip-rule="evenodd" d="M2,11c-1.1,0-2,0.9-2,2c0,1.1,0.9,2,2,2s2-0.9,2-2C4,11.9,3.1,11,2,11z M13,4
			c1.1,0,2-0.9,2-2s-0.9-2-2-2s-2,0.9-2,2S11.9,4,13,4z M16,8.5C16,7.12,14.88,6,13.5,6c-0.98,0-1.82,0.57-2.23,1.39
			c-0.6-0.78-1.51-1.3-2.56-1.36C8.89,5.54,9,5.04,9,4.5C9,2.01,6.99,0,4.5,0S0,2.01,0,4.5S2.01,9,4.5,9c0.19,0,0.37-0.03,0.56-0.06
			C5.03,9.13,5,9.31,5,9.5C5,11.43,6.57,13,8.5,13c1.63,0,2.98-1.11,3.37-2.62c0.44,0.38,1,0.62,1.63,0.62C14.88,11,16,9.88,16,8.5z
			 M14.5,13c-0.83,0-1.5,0.67-1.5,1.5s0.67,1.5,1.5,1.5s1.5-0.67,1.5-1.5S15.33,13,14.5,13z"/>
	</g>
</g>
</svg>
