<svg width="16" height="16" viewBox="0 0 16 16" fill="none" xmlns="http://www.w3.org/2000/svg">
<path fill-rule="evenodd" clip-rule="evenodd" d="M0.5 2C0.776142 2 1 2.22386 1 2.5V4H5H8V3H2.5C2.22386 3 2 2.77614 2 2.5C2 2.22386 2.22386 2 2.5 2H8H10H15.5C15.7761 2 16 2.22386 16 2.5C16 2.77614 15.7761 3 15.5 3H10V4H11C13.2593 4 15 5.79086 15 8C15 9.8698 13.753 11.44 12 11.8782V13H12.382L14.2764 12.0528C14.5234 11.9293 14.8237 12.0294 14.9472 12.2764C15.0707 12.5234 14.9706 12.8237 14.7236 12.9472L12.618 14H11.5036L11.5 14L11.4964 14H7.50356L7.5 14L7.49644 14H4.5C4.22386 14 4 13.7761 4 13.5C4 13.2238 4.22386 13 4.5 13H7V10.6944C5.74859 9.73604 5 8.36802 5 7L1 6L1 7.5C1 7.77614 0.776142 8 0.5 8C0.223857 8 0 7.77614 0 7.5V2.5C0 2.22386 0.223858 2 0.5 2ZM8 11.3157V13H11V12C9.88157 12 8.86526 11.7447 8 11.3157ZM11 5V8H14C14 6.34315 12.6569 5 11 5Z" fill="black"/>
</svg>
