<?xml version="1.0" encoding="utf-8"?>
<!-- Generator: Adobe Illustrator 18.0.0, SVG Export Plug-In . SVG Version: 6.00 Build 0)  -->
<svg version="1.1" id="Layer_1" xmlns="http://www.w3.org/2000/svg" xmlns:xlink="http://www.w3.org/1999/xlink" x="0px" y="0px"
	 viewBox="0 0 16 16" enable-background="new 0 0 16 16" xml:space="preserve">
<g id="Rounded_Rectangle_2">
	<g>
		<path fill-rule="evenodd" clip-rule="evenodd" d="M9.12,11.07l2-2.02l0.71,0.71l4-4.04L10.17,0l-4,4.04l0.71,0.71l-2,2.02
			L9.12,11.07z M2,12.97h4c0.28,0,0.53-0.11,0.71-0.3l1-1.01L4.29,8.21l-3,3.03C1.11,11.42,1,11.68,1,11.96
			C1,12.51,1.45,12.97,2,12.97z M15,13.98H1c-0.55,0-1,0.45-1,1.01S0.45,16,1,16h14c0.55,0,1-0.45,1-1.01S15.55,13.98,15,13.98z"/>
	</g>
</g>
</svg>
