<?xml version="1.0" encoding="utf-8"?>
<!-- Generator: Adobe Illustrator 18.0.0, SVG Export Plug-In . SVG Version: 6.00 Build 0)  -->
<svg version="1.1" id="Layer_1" xmlns="http://www.w3.org/2000/svg" xmlns:xlink="http://www.w3.org/1999/xlink" x="0px" y="0px"
	 viewBox="0 0 16 16" enable-background="new 0 0 16 16" xml:space="preserve">
<g id="history_2_">
	<g>
		<path fill-rule="evenodd" clip-rule="evenodd" d="M8,3C7.45,3,7,3.45,7,4v4c0,0.28,0.11,0.53,0.29,0.71l2,2
			C9.47,10.89,9.72,11,10,11c0.55,0,1-0.45,1-1c0-0.28-0.11-0.53-0.29-0.71L9,7.59V4C9,3.45,8.55,3,8,3z M8,0
			C5.6,0,3.46,1.07,2,2.74V1c0-0.55-0.45-1-1-1S0,0.45,0,1v4c0,0.55,0.45,1,1,1h4c0.55,0,1-0.45,1-1S5.55,4,5,4H3.54
			C4.64,2.78,6.23,2,8,2c3.31,0,6,2.69,6,6c0,2.61-1.67,4.81-4,5.63v-0.01C9.37,13.85,8.71,14,8,14c-3.31,0-6-2.69-6-6
			c0-0.55-0.45-1-1-1S0,7.45,0,8c0,4.42,3.58,8,8,8c0.34,0,0.67-0.03,1-0.07c0.02,0,0.04-0.01,0.06-0.01C12.98,15.4,16,12.06,16,8
			C16,3.58,12.42,0,8,0z"/>
	</g>
</g>
</svg>
