<svg xmlns="http://www.w3.org/2000/svg" xml:space="preserve" viewBox="0 0 16 16"><path fill-rule="evenodd" d="M8 3c-.55 0-1 .45-1 1v4c0 .28.11.53.29.71l2 2a1.003 1.003 0 0 0 1.42-1.42L9 7.59V4c0-.55-.45-1-1-1zm0-3a7.95 7.95 0 0 0-6 2.74V1c0-.55-.45-1-1-1S0 .45 0 1v4c0 .55.45 1 1 1h4c.55 0 1-.45 1-1s-.45-1-1-1H3.54C4.64 2.78 6.23 2 8 2c3.31 0 6 2.69 6 6 0 2.61-1.67 4.81-4 5.63v-.01c-.63.23-1.29.38-2 .38-3.31 0-6-2.69-6-6 0-.55-.45-1-1-1s-1 .45-1 1c0 4.42 3.58 8 8 8 .34 0 .67-.03 1-.07.02 0 .04-.01.06-.01C12.98 15.4 16 12.06 16 8c0-4.42-3.58-8-8-8z" clip-rule="evenodd"/></svg>