<?xml version="1.0" encoding="utf-8"?>
<!-- Generator: Adobe Illustrator 17.1.0, SVG Export Plug-In . SVG Version: 6.00 Build 0)  -->
<!DOCTYPE svg PUBLIC "-//W3C//DTD SVG 1.1//EN" "http://www.w3.org/Graphics/SVG/1.1/DTD/svg11.dtd">
<svg version="1.1" id="Layer_1" xmlns="http://www.w3.org/2000/svg" xmlns:xlink="http://www.w3.org/1999/xlink" x="0px" y="0px"
	 viewBox="0 0 16 16" enable-background="new 0 0 16 16" xml:space="preserve">
<g id="home_2_">
	<g>
		<path fill-rule="evenodd" clip-rule="evenodd" d="M2,10v1c0,0,0,0.43,0,1v0.99c0,1,0,2.01,0,2.01c0,0.55,0.45,1,1,1h3v-5h4v5h3
			c0.55,0,1-0.45,1-1v-5L8,4L2,10z M15.71,7.29L14,5.59V2c0-0.55-0.45-1-1-1s-1,0.45-1,1v1.59L8.71,0.29C8.53,0.11,8.28,0,8,0
			S7.47,0.11,7.29,0.29l-7,7C0.11,7.47,0,7.72,0,8c0,0.55,0.45,1,1,1c0.28,0,0.53-0.11,0.71-0.29L8,2.41l6.29,6.29
			C14.47,8.89,14.72,9,15,9c0.55,0,1-0.45,1-1C16,7.72,15.89,7.47,15.71,7.29z"/>
	</g>
</g>
</svg>
