<?xml version="1.0" encoding="utf-8"?>
<!-- Generator: Adobe Illustrator 18.0.0, SVG Export Plug-In . SVG Version: 6.00 Build 0)  -->
<svg version="1.1" id="Layer_1" xmlns="http://www.w3.org/2000/svg" xmlns:xlink="http://www.w3.org/1999/xlink" x="0px" y="0px"
	 viewBox="0 0 16 16" enable-background="new 0 0 16 16" xml:space="preserve">
<g id="horizontal_distribution">
	<g>
		<path fill-rule="evenodd" clip-rule="evenodd" d="M2,0C1.45,0,1,0.45,1,1v14c0,0.55,0.45,1,1,1s1-0.45,1-1V1C3,0.45,2.55,0,2,0z
			 M15,0c-0.55,0-1,0.45-1,1v14c0,0.55,0.45,1,1,1s1-0.45,1-1V1C16,0.45,15.55,0,15,0z M10,2H7C6.45,2,6,2.45,6,3v9
			c0,0.55,0.45,1,1,1h3c0.55,0,1-0.45,1-1V3C11,2.45,10.55,2,10,2z"/>
	</g>
</g>
</svg>
