<svg xmlns="http://www.w3.org/2000/svg" width="16" height="16"><g clip-path="url(#a)"><path fill-rule="evenodd" d="M3.5 12c-.86 0-2.5-.5-3.5-1 1 3.5 4.506 4 7 4a7 7 0 0 0 7-7l-.006-.004a5.974 5.974 0 0 0-1.29-3.988c.896.066 2.37.53 3.296.992-1-3.5-4.506-4-7-4a6.998 6.998 0 0 0-6.14 3.635 5.972 5.972 0 0 0-.859 3.226L2 8l.006.005a5.98 5.98 0 0 0 1.771 3.99A7.469 7.469 0 0 1 3.5 12ZM8 6a2 2 0 1 0 0 4 2 2 0 0 0 0-4Z" clip-rule="evenodd"/></g><defs><clipPath id="a"><path d="M0 0h16v16H0z"/></clipPath></defs></svg>