<svg xmlns="http://www.w3.org/2000/svg" xml:space="preserve" viewBox="0 0 16 16"><path d="M2 5v7h12V5H2zm0-2h12c1.1 0 2 .9 2 2v7c0 1.1-.9 2-2 2H2c-1.1 0-2-.9-2-2V5c0-1.1.9-2 2-2z"/><path d="M7.9 10.48c-.14-.33-.84-.55-1.3-.75-.46-.2-.4-.33-.42-.5v-.07c.16-.14.29-.33.37-.56 0 0 0-.01.01-.02.02-.05.03-.1.05-.15.1-.01.16-.13.19-.23.03-.04.07-.15.06-.27-.02-.16-.08-.24-.15-.26v-.03c0-.2-.02-.48-.05-.67-.01-.05-.02-.1-.03-.16-.07-.23-.21-.44-.4-.58-.2-.15-.48-.23-.73-.23s-.53.08-.72.23c-.19.14-.33.35-.4.58-.02.05-.03.1-.03.16-.05.18-.06.47-.06.67v.03c-.07.03-.14.1-.15.26-.02.12.03.22.06.27.02.1.09.22.2.24.01.05.03.1.05.15v.01c.08.23.22.42.38.56v.07c-.02.17.03.29-.43.5-.46.2-1.16.42-1.3.75s-.09.52-.09.52H8c-.01 0 .05-.19-.1-.52zM10 6h2c.55 0 1 .45 1 1s-.45 1-1 1h-2c-.55 0-1-.45-1-1s.45-1 1-1zM10 9h2c.55 0 1 .45 1 1s-.45 1-1 1h-2c-.55 0-1-.45-1-1s.45-1 1-1z"/></svg>