<?xml version="1.0" encoding="utf-8"?>
<!-- Generator: Adobe Illustrator 18.0.0, SVG Export Plug-In . SVG Version: 6.00 Build 0)  -->
<svg version="1.1" id="Layer_1" xmlns="http://www.w3.org/2000/svg" xmlns:xlink="http://www.w3.org/1999/xlink" x="0px" y="0px"
	 viewBox="0 0 16 16" enable-background="new 0 0 16 16" xml:space="preserve">
<g id="rotate_image_left">
	<g>
		<path fill-rule="evenodd" clip-rule="evenodd" d="M13,2h-1.59l0.29-0.29C11.89,1.53,12,1.28,12,1c0-0.55-0.45-1-1-1
			c-0.28,0-0.53,0.11-0.71,0.29l-2,2C8.11,2.47,8,2.72,8,3c0,0.28,0.11,0.53,0.29,0.71l2,2C10.47,5.89,10.72,6,11,6
			c0.55,0,1-0.45,1-1c0-0.28-0.11-0.53-0.29-0.71L11.41,4H13c0.55,0,1,0.45,1,1v3c0,0.55,0.45,1,1,1s1-0.45,1-1V5
			C16,3.34,14.66,2,13,2z M7.5,11C7.78,11,8,10.78,8,10.5C8,10.22,7.78,10,7.5,10S7,10.22,7,10.5C7,10.78,7.22,11,7.5,11z M10,7H1
			C0.45,7,0,7.45,0,8v7c0,0.55,0.45,1,1,1h9c0.55,0,1-0.45,1-1V8C11,7.45,10.55,7,10,7z M9,13.33L7,12l-1,1l-2-3l-2,2.67V9h7V13.33z
			"/>
	</g>
</g>
</svg>
