<?xml version="1.0" encoding="utf-8"?>
<!-- Generator: Adobe Illustrator 18.0.0, SVG Export Plug-In . SVG Version: 6.00 Build 0)  -->
<svg version="1.1" id="Layer_1" xmlns="http://www.w3.org/2000/svg" xmlns:xlink="http://www.w3.org/1999/xlink" x="0px" y="0px"
	 viewBox="0 0 16 16" enable-background="new 0 0 16 16" xml:space="preserve">
<g id="rotate_image_right_1_">
	<g>
		<path fill-rule="evenodd" clip-rule="evenodd" d="M5.71,5.71l2-2C7.89,3.53,8,3.28,8,3c0-0.28-0.11-0.53-0.29-0.71l-2-2
			C5.53,0.11,5.28,0,5,0C4.45,0,4,0.45,4,1c0,0.28,0.11,0.53,0.29,0.71L4.59,2H3C1.34,2,0,3.34,0,5v3c0,0.55,0.45,1,1,1s1-0.45,1-1
			V5c0-0.55,0.45-1,1-1h1.59L4.29,4.29C4.11,4.47,4,4.72,4,5c0,0.55,0.45,1,1,1C5.28,6,5.53,5.89,5.71,5.71z M12.5,11
			c0.28,0,0.5-0.22,0.5-0.5c0-0.28-0.22-0.5-0.5-0.5S12,10.22,12,10.5C12,10.78,12.22,11,12.5,11z M15,7H6C5.45,7,5,7.45,5,8v7
			c0,0.55,0.45,1,1,1h9c0.55,0,1-0.45,1-1V8C16,7.45,15.55,7,15,7z M14,13.33L12,12l-1,1l-2-3l-2,2.67V9h7V13.33z"/>
	</g>
</g>
</svg>
