<?xml version="1.0" encoding="utf-8"?>
<!-- Generator: Adobe Illustrator 17.1.0, SVG Export Plug-In . SVG Version: 6.00 Build 0)  -->
<!DOCTYPE svg PUBLIC "-//W3C//DTD SVG 1.1//EN" "http://www.w3.org/Graphics/SVG/1.1/DTD/svg11.dtd">
<svg version="1.1" id="Layer_1" xmlns="http://www.w3.org/2000/svg" xmlns:xlink="http://www.w3.org/1999/xlink" x="0px" y="0px"
	 viewBox="0 0 16 16" enable-background="new 0 0 16 16" xml:space="preserve">
<g id="import_3_">
	<g>
		<path fill-rule="evenodd" clip-rule="evenodd" d="M7.29,11.71C7.47,11.89,7.72,12,8,12s0.53-0.11,0.71-0.29l4-4
			C12.89,7.53,13,7.28,13,7c0-0.55-0.45-1-1-1c-0.28,0-0.53,0.11-0.71,0.29L9,8.59V1c0-0.55-0.45-1-1-1S7,0.45,7,1v7.59L4.71,6.29
			C4.53,6.11,4.28,6,4,6C3.45,6,3,6.45,3,7c0,0.28,0.11,0.53,0.29,0.71L7.29,11.71z M15,11c-0.55,0-1,0.45-1,1v2H2v-2
			c0-0.55-0.45-1-1-1s-1,0.45-1,1v3c0,0.55,0.45,1,1,1h14c0.55,0,1-0.45,1-1v-3C16,11.45,15.55,11,15,11z"/>
	</g>
</g>
</svg>
