<svg xmlns="http://www.w3.org/2000/svg" width="16" height="16"><path fill-rule="nonzero" d="M6.341 2A5.99 5.99 0 0 0 6 4H3.66L1.95 8H4c.55 0 1 .45 1 1v1h7a5.978 5.978 0 0 0 4-1.528V13c0 .55-.45 1-1 1H1c-.55 0-1-.45-1-1V7.46l2.08-4.85C2.23 2.25 2.59 2 3 2h3.341Zm3.679 2.145c0-.125.075-.23.205-.225h.345l.79.8c.005 0 0 .005 0 .005v.295c0 .13-.085.23-.215.23h-.07v.15c0 .13-.09.2-.215.2v.535c0 .125-.12.225-.245.225s-.245-.1-.245-.225V5.25h-.145c-.125 0-.205-.1-.205-.23v-.875Zm2.235-2.195c-.03 0-.055-.005-.06-.035 0-.03.03-.035.06-.035h.11c.035 0 .06.005.06.035 0 .03-.03.035-.06.035h-.11Zm-1.165-.025a.094.094 0 0 1-.13 0l-.25-.25a.094.094 0 0 1 0-.13.094.094 0 0 1 .13 0l.25.25a.094.094 0 0 1 0 .13Zm1.53.445c-.035 0-.07-.025-.07-.06v-.155c0-.03.035-.06.07-.06s.07.025.07.06v.155c0 .03-.035.06-.07.06ZM12 0c2.21 0 4 1.79 4 4s-1.79 4-4 4-4-1.79-4-4 1.79-4 4-4Zm0 7c1.655 0 3-1.345 3-3 0-.195-.02-.39-.06-.575h-.21c-.125 0-.225-.07-.23-.21h-.215c.075.07.155.14.155.23V3.9c0 .06-.04.115-.075.155h-.015l-.01.005-.015.01-.445.43v.815c0 .13-.07.22-.2.22h-.36c-.125 0-.21-.09-.21-.22v-.84a.627.627 0 0 0-.36-.345h-.45c-.13 0-.245-.095-.245-.225v-.46c0-.125.115-.23.245-.23l.13-.005.21-.215c.09-.09.24-.09.33 0l.22.225h.47c.105 0 .155-.105.225-.21v-.075h-.205a.106.106 0 0 1-.105-.105.11.11 0 0 1 .105-.105h.18l.025.005v-.12s-.03-.025-.04-.025h-.2l-.045.05a.235.235 0 0 1-.33.005l-.045-.06h-.115l.16.175c.015.015.015.06 0 .075-.02.015-.045.02-.06.005l-.195-.185h-.085l-.245.23-.02-.005c-.025.07-.06.055-.095.055-.085 0-.15-.045-.15-.13s.065-.14.15-.14h.115v-.125c0-.06.04-.09.1-.09h.05V2.36c0-.095.095-.2.19-.2h.19c.105 0 .18-.075.18-.185V1.94c0-.015.035.01.035-.06h-.125l-.005.01-.21.22a.085.085 0 0 1-.115 0 .085.085 0 0 1 0-.115l.255-.255c.02-.015.045-.015.065-.015.005 0 .005.015.005.015h.64a2.327 2.327 0 0 0-.355-.275 2.452 2.452 0 0 0-.355-.195c-.03-.015-.055-.03-.08-.04a3.025 3.025 0 0 0-1.735-.175c-.09.02-.175.055-.265.08-.09.03-.18.05-.265.085-.075.03-.145.07-.22.105-.115.06-.235.115-.34.185l-.005.005c-.1.065-.18.145-.27.22h.455c.06 0 .11.045.11.105s-.05.105-.11.105h-.32c0 .07-.025.04-.025.045v.24h.285l.15-.17c.09-.09.235-.105.325-.015.09.09.09.23 0 .32l-.795.79-.01.01c-.005 0-.005 0-.01.005l-.025.015h-.01a.235.235 0 0 1-.12.025h-.23c-.08.07-.125.1-.125.18v.06c0 .01-.02.02-.02.03l.375.39c.04.04.04.1 0 .14-.04.04-.1.04-.14 0l-.39-.385a.213.213 0 0 1-.055.01c-.105 0-.195-.085-.195-.185v-.235h-.055A3.1 3.1 0 0 0 9 4c0 1.655 1.345 3 3 3Zm2.27-2.135c.05 0 .105.04.105.09v.285c0 .05-.055.09-.105.09-.05 0-.105-.04-.105-.09v-.285c0-.05.055-.09.105-.09Zm-2.085-3.27c0 .13-.105.21-.225.21h-.25v.07c0 .075-.03.135-.105.135s-.105-.06-.105-.135V1.64c-.075-.02-.025-.025-.025-.04 0-.125.085-.215.21-.215h.27c.13 0 .23.085.23.21Z"/></svg>