<svg xmlns="http://www.w3.org/2000/svg" width="16" height="16"><path fill-rule="nonzero" d="M5.639 2a5.391 5.391 0 0 0-.144 2H3.66L1.95 8H4c.55 0 1 .45 1 1v1h6V9c0-.088.012-.174.033-.255.12-.007.238-.019.39-.038.154-.008.252-.03.442-.077a5.34 5.34 0 0 0 .24-.05h.05l.122-.04 1.266 1.271c.425.47 1.116.769 1.847.769.21 0 .414-.025.61-.071V13c0 .55-.45 1-1 1H1c-.55 0-1-.45-1-1V7.46l2.08-4.85C2.23 2.25 2.59 2 3 2h2.639ZM15.82 7.53c.1.12.17.27.18.44 0 .34-.27.61-.61.61a.57.57 0 0 1-.43-.18l-2.24-2.25c-.13.08-.26.16-.4.23-.02.01-.05.02-.07.03-.14.06-.27.12-.42.17h-.01c-.14.05-.29.08-.44.11-.04.01-.08.02-.11.02-.15.02-.3.04-.46.04-1.85 0-3.35-1.51-3.35-3.37S8.96.01 10.81 0c1.85 0 3.35 1.51 3.35 3.37 0 .16-.02.31-.04.47-.01.04-.01.07-.02.11-.02.15-.05.29-.1.44v.01c-.05.15-.11.28-.17.42-.01.02-.02.05-.03.07-.07.14-.14.27-.23.4l2.25 2.24Zm-5.01-1.94c1.22 0 2.21-.99 2.21-2.22 0-1.23-.99-2.22-2.21-2.22S8.6 2.14 8.6 3.37c0 1.22.99 2.22 2.21 2.22Z"/></svg>