<?xml version="1.0" encoding="utf-8"?>
<!-- Generator: Adobe Illustrator 17.1.0, SVG Export Plug-In . SVG Version: 6.00 Build 0)  -->
<!DOCTYPE svg PUBLIC "-//W3C//DTD SVG 1.1//EN" "http://www.w3.org/Graphics/SVG/1.1/DTD/svg11.dtd">
<svg version="1.1" id="Layer_1" xmlns="http://www.w3.org/2000/svg" xmlns:xlink="http://www.w3.org/1999/xlink" x="0px" y="0px"
	 viewBox="0 0 16 16" enable-background="new 0 0 16 16" xml:space="preserve">
<g id="inbox_1_">
	<g>
		<path fill-rule="evenodd" clip-rule="evenodd" d="M13.91,2.6C13.91,2.6,13.91,2.6,13.91,2.6L13.91,2.6L13.91,2.6
			c-0.16-0.36-0.51-0.61-0.92-0.61h-10c-0.41,0-0.77,0.25-0.92,0.61l0,0l0,0c0,0,0,0,0,0l-2.08,4.85v5.54c0,0.55,0.45,1,1,1h14
			c0.55,0,1-0.45,1-1V7.45L13.91,2.6z M11.99,7.99c-0.55,0-1,0.45-1,1v1h-6v-1c0-0.55-0.45-1-1-1H1.94l1.71-4h8.68l1.71,4H11.99z"/>
	</g>
</g>
</svg>
