<svg xmlns="http://www.w3.org/2000/svg" width="16" height="16"><path fill-rule="nonzero" d="M1 7c.51 0 .935.388.993.884L2 8v3c0 .51.388.935.884.993L3 12h1.59l-.3-.29a1.003 1.003 0 0 1 1.324-1.504l.096.084 2 2c.18.18.29.43.29.71 0 .233-.076.446-.206.614l-.084.096-2 2A1.003 1.003 0 0 1 4 15c0-.24.08-.458.224-.629l.076-.081.29-.29H3a2.996 2.996 0 0 1-2.995-2.823L0 11V8c0-.55.45-1 1-1Zm5.388-7c.629 0 1.338.21 1.838.6.48.38.85.91 1.019 1.52.04.13.07.27.09.4.09.48.14 1.22.14 1.73v.07c.18.08.34.27.37.67.03.32-.09.59-.16.71-.06.28-.21.58-.48.63-.03.13-.07.26-.12.39 0 .01-.01.04-.01.04-.22.58-.55 1.08-.949 1.45v.18c.04.45-.12.77 1.059 1.3 1.179.53 2.947 1.09 3.307 1.95.37.86.22 1.36.22 1.36H9c0-.539-.21-1.045-.583-1.417l-2-2A1.997 1.997 0 0 0 5 9c-.149 0-.296-.015-.442-.045.099-.19.082-.37.101-.575 0-.05.01-.11.01-.17-.41-.35-.75-.86-.969-1.45v-.01s-.01-.01-.01-.02c-.04-.12-.09-.26-.12-.39-.28-.05-.44-.36-.5-.64-.06-.12-.19-.39-.16-.71.04-.41.21-.6.39-.68v-.06c0-.51.05-1.26.14-1.74.02-.13.05-.27.09-.4.17-.6.54-1.13 1.02-1.51C5.048.21 5.757 0 6.387 0Zm4.625 2.04c.49 0 1.05.16 1.439.46.38.29.67.7.8 1.17.03.1.05.21.07.31.07.37.11.94.11 1.33v.05c.139.06.269.21.289.51.02.25-.07.45-.13.54-.05.21-.16.44-.38.48a1.711 1.711 0 0 1-.1.33c-.17.44-.43.83-.749 1.11v.14c.03.35-.09.59.83 1 .929.41 2.317.84 2.597 1.5.29.66.17 1.04.17 1.04H13.66v.01c-.05-.24-.14-.5-.25-.76-.36-.86-1.119-1.33-2.687-2-.14-.06-.59-.25-.6-.25-.21-.09-.36-.15-.5-.22.02-.1.02-.2.03-.31 0-.04.01-.08.01-.13-.07-.06-.13-.12-.19-.19.22-.32.4-.67.54-1.05.02-.06.02-.06.03-.1.29-.23.48-.57.59-.96.16-.33.25-.73.21-1.16-.03-.4-.16-.76-.37-1.03-.02-.53-.07-1.13-.15-1.54-.01-.06-.02-.12-.03-.19.23-.06.48-.09.72-.09Z"/></svg>