<svg xmlns="http://www.w3.org/2000/svg" xml:space="preserve" viewBox="0 0 16 16"><path d="M6.6 3.3C5.3 4.4 4.5 6.1 4.5 8s.8 3.6 2.1 4.7c-.5.2-1 .3-1.6.3-2.8 0-5-2.2-5-5s2.2-5 5-5c.6 0 1.1.1 1.6.3zm-1.96 8.68C3.92 10.83 3.5 9.46 3.5 8s.42-2.83 1.14-3.98C2.6 4.2 1 5.91 1 8s1.6 3.8 3.64 3.98zM8 4c-1.2.9-2 2.4-2 4s.8 3.1 2 4c1.2-.9 2-2.3 2-4s-.8-3.1-2-4zm3-1c2.8 0 5 2.2 5 5s-2.2 5-5 5c-.6 0-1.1-.1-1.6-.3 1.3-1.1 2.1-2.9 2.1-4.7s-.8-3.5-2.1-4.7c.5-.2 1-.3 1.6-.3zm.35 1.02c.73 1.15 1.14 2.52 1.14 3.98s-.42 2.83-1.14 3.98c2.04-.18 3.64-1.9 3.64-3.98s-1.6-3.8-3.64-3.98z"/></svg>