<?xml version="1.0" encoding="utf-8"?>
<!-- Generator: Adobe Illustrator 22.0.1, SVG Export Plug-In . SVG Version: 6.00 Build 0)  -->
<svg version="1.1" id="Layer_1" xmlns="http://www.w3.org/2000/svg" xmlns:xlink="http://www.w3.org/1999/xlink" x="0px" y="0px"
	 viewBox="0 0 16 16" enable-background="new 0 0 16 16" xml:space="preserve">
<g id="join_inner_2_">
	<g id="pt-icon-inner-join_1_">
		<path id="Shape-Copy_1_" d="M6.6,3.3C5.3,4.4,4.5,6.1,4.5,8s0.8,3.6,2.1,4.7C6.1,12.9,5.6,13,5,13c-2.8,0-5-2.2-5-5s2.2-5,5-5
			C5.6,3,6.1,3.1,6.6,3.3z M4.64,11.98C3.92,10.83,3.5,9.46,3.5,8s0.42-2.83,1.14-3.98C2.6,4.2,1,5.91,1,8S2.6,11.8,4.64,11.98z
			 M8,4C6.8,4.9,6,6.4,6,8s0.8,3.1,2,4c1.2-0.9,2-2.3,2-4S9.2,4.9,8,4z M11,3c2.8,0,5,2.2,5,5s-2.2,5-5,5c-0.6,0-1.1-0.1-1.6-0.3
			c1.3-1.1,2.1-2.9,2.1-4.7s-0.8-3.5-2.1-4.7C9.9,3.1,10.4,3,11,3z M11.35,4.02c0.73,1.15,1.14,2.52,1.14,3.98s-0.42,2.83-1.14,3.98
			c2.04-0.18,3.64-1.9,3.64-3.98S13.39,4.2,11.35,4.02z"/>
	</g>
</g>
</svg>
