<svg xmlns="http://www.w3.org/2000/svg" xml:space="preserve" viewBox="0 0 16 16"><path fill-rule="evenodd" d="M10 3c-.92 0-1.76.26-2.5.69C6.76 3.26 5.92 3 5 3 2.24 3 0 5.24 0 8s2.24 5 5 5c.92 0 1.76-.26 2.5-.69.74.43 1.58.69 2.5.69 2.76 0 5-2.24 5-5s-2.24-5-5-5zm-4.1 7.85c-.29.09-.59.15-.9.15-1.66 0-3-1.34-3-3s1.34-3 3-3c.31 0 .61.06.9.15C5.33 5.96 5 6.94 5 8s.33 2.04.9 2.85zM10 11c-.31 0-.61-.06-.9-.15.57-.81.9-1.79.9-2.85s-.33-2.04-.9-2.85c.29-.09.59-.15.9-.15 1.66 0 3 1.34 3 3s-1.34 3-3 3z" clip-rule="evenodd"/></svg>