<?xml version="1.0" encoding="utf-8"?>
<!-- Generator: Adobe Illustrator 18.0.0, SVG Export Plug-In . SVG Version: 6.00 Build 0)  -->
<svg version="1.1" id="Layer_1" xmlns="http://www.w3.org/2000/svg" xmlns:xlink="http://www.w3.org/1999/xlink" x="0px" y="0px"
	 viewBox="0 0 16 16" enable-background="new 0 0 16 16" xml:space="preserve">
<g id="ip_address_2_">
	<g id="pt-icon-ip-address">
		<path id="Shape-Copy" d="M5,2.66C5,4.14,8,8,8,8s3-3.86,3-5.34C10.99,1.2,9.66,0,8,0S5,1.2,5,2.66z M7,3c0-0.55,0.45-1,1-1
			s1,0.45,1,1S8.55,4,8,4S7,3.55,7,3z"/>
		<path id="Combined-Shape_3_" d="M10.5,10h-2H8v5h1v-4h1v1H9v1h1.5H11v-3H10.5z M2,9h12l0,0c0.55,0,1,0.45,1,1v5l0,0
			c0,0.55-0.45,1-1,1H2l0,0c-0.55,0-1-0.45-1-1v-5l0,0C1,9.45,1.45,9,2,9L2,9z M6,10v5h1v-5H6z"/>
	</g>
</g>
</svg>
