<?xml version="1.0" encoding="utf-8"?>
<!-- Generator: Adobe Illustrator 18.0.0, SVG Export Plug-In . SVG Version: 6.00 Build 0)  -->
<svg version="1.1" id="Layer_1" xmlns="http://www.w3.org/2000/svg" xmlns:xlink="http://www.w3.org/1999/xlink" x="0px" y="0px"
	 viewBox="0 0 16 16" enable-background="new 0 0 16 16" xml:space="preserve">
<title>Artboard</title>
<desc>Created with Sketch.</desc>
<g id="Control">
	<g id="Artboard">
		<path id="Combined-Shape" d="M9.8,4H11c0.5,0,1-0.4,1-1c0-0.6-0.4-1-1-1H7C6.5,2,6,2.4,6,3c0,0.6,0.4,1,1,1h0.8l-1.6,8H5
			c-0.5,0-1,0.4-1,1c0,0.6,0.4,1,1,1h4c0.5,0,1-0.4,1-1c0-0.6-0.4-1-1-1H8.2L9.8,4z"/>
	</g>
</g>
</svg>
