<?xml version="1.0" encoding="utf-8"?>
<!-- Generator: Adobe Illustrator 18.0.0, SVG Export Plug-In . SVG Version: 6.00 Build 0)  -->
<svg version="1.1" id="Layer_1" xmlns="http://www.w3.org/2000/svg" xmlns:xlink="http://www.w3.org/1999/xlink" x="0px" y="0px"
	 viewBox="0 0 16 16" enable-background="new 0 0 16 16" xml:space="preserve">
<g id="join_table">
	<g>
		<path fill-rule="evenodd" clip-rule="evenodd" d="M15,5h-3V2c0-0.55-0.45-1-1-1H1C0.45,1,0,1.45,0,2v8c0,0.55,0.45,1,1,1h3v3
			c0,0.55,0.45,1,1,1h10c0.55,0,1-0.45,1-1V6C16,5.45,15.55,5,15,5z M10,4v2H6V4H10z M10,10H6V7h4V10z M2,4h3v2H2V4z M2,9V7h3v2H2z
			 M6,13v-2h4v2H6z M14,13h-3v-2h3V13z M14,10h-3V8h3V10z"/>
	</g>
</g>
</svg>
