<?xml version="1.0" encoding="utf-8"?>
<!-- Generator: Adobe Illustrator 18.0.0, SVG Export Plug-In . SVG Version: 6.00 Build 0)  -->
<svg version="1.1" id="Layer_1" xmlns="http://www.w3.org/2000/svg" xmlns:xlink="http://www.w3.org/1999/xlink" x="0px" y="0px"
	 viewBox="0 0 16 16" enable-background="new 0 0 16 16" xml:space="preserve">
<g id="key:_option_3_">
	<g>
		<path fill-rule="evenodd" clip-rule="evenodd" d="M11,4h4c0.55,0,1-0.45,1-1c0-0.55-0.45-1-1-1h-4c-0.55,0-1,0.45-1,1
			C10,3.55,10.45,4,11,4z M15,12h-3.43L5.86,2.49L5.84,2.49C5.67,2.2,5.36,2,5,2H1C0.45,2,0,2.45,0,3c0,0.55,0.45,1,1,1h3.43
			l5.71,9.51l0.01-0.01C10.33,13.8,10.64,14,11,14h4c0.55,0,1-0.45,1-1C16,12.45,15.55,12,15,12z"/>
	</g>
</g>
</svg>
