<?xml version="1.0" encoding="utf-8"?>
<!-- Generator: Adobe Illustrator 18.0.0, SVG Export Plug-In . SVG Version: 6.00 Build 0)  -->
<svg version="1.1" id="Layer_1" xmlns="http://www.w3.org/2000/svg" xmlns:xlink="http://www.w3.org/1999/xlink" x="0px" y="0px"
	 viewBox="0 0 16 16" enable-background="new 0 0 16 16" xml:space="preserve">
<g id="delete_5_">
	<g>
		<path fill-rule="evenodd" clip-rule="evenodd" d="M15.71,7.29l-5-5C10.53,2.11,10.28,2,10,2H1C0.45,2,0,2.45,0,3v10
			c0,0.55,0.45,1,1,1h9c0.28,0,0.53-0.11,0.71-0.29l5-5C15.89,8.53,16,8.28,16,8C16,7.72,15.89,7.47,15.71,7.29z M8.71,9.29
			C8.89,9.47,9,9.72,9,10c0,0.55-0.45,1-1,1c-0.28,0-0.53-0.11-0.71-0.29L6,9.41l-1.29,1.29C4.53,10.89,4.28,11,4,11
			c-0.55,0-1-0.45-1-1c0-0.28,0.11-0.53,0.29-0.71L4.59,8L3.29,6.71C3.11,6.53,3,6.28,3,6c0-0.55,0.45-1,1-1
			c0.28,0,0.53,0.11,0.71,0.29L6,6.59l1.29-1.29C7.47,5.11,7.72,5,8,5c0.55,0,1,0.45,1,1c0,0.28-0.11,0.53-0.29,0.71L7.41,8
			L8.71,9.29z"/>
	</g>
</g>
</svg>
