<?xml version="1.0" encoding="utf-8"?>
<!-- Generator: Adobe Illustrator 18.0.0, SVG Export Plug-In . SVG Version: 6.00 Build 0)  -->
<svg version="1.1" id="Layer_1" xmlns="http://www.w3.org/2000/svg" xmlns:xlink="http://www.w3.org/1999/xlink" x="0px" y="0px"
	 viewBox="0 0 16 16" enable-background="new 0 0 16 16" xml:space="preserve">
<g id="key_command_4_">
	<g>
		<path fill-rule="evenodd" clip-rule="evenodd" d="M12,9h-1V7h1c1.66,0,3-1.34,3-3s-1.34-3-3-3S9,2.34,9,4v1H7V4c0-1.66-1.34-3-3-3
			S1,2.34,1,4s1.34,3,3,3h1v2H4c-1.66,0-3,1.34-3,3s1.34,3,3,3s3-1.34,3-3v-1h2v1c0,1.66,1.34,3,3,3s3-1.34,3-3S13.66,9,12,9z M12,3
			c0.55,0,1,0.45,1,1c0,0.55-0.45,1-1,1s-1-0.45-1-1C11,3.45,11.45,3,12,3z M4,13c-0.55,0-1-0.45-1-1c0-0.55,0.45-1,1-1s1,0.45,1,1
			C5,12.55,4.55,13,4,13z M4,5C3.45,5,3,4.55,3,4c0-0.55,0.45-1,1-1s1,0.45,1,1C5,4.55,4.55,5,4,5z M9,9H7V7h2V9z M12,13
			c-0.55,0-1-0.45-1-1c0-0.55,0.45-1,1-1s1,0.45,1,1C13,12.55,12.55,13,12,13z"/>
	</g>
</g>
</svg>
