<?xml version="1.0" encoding="utf-8"?>
<!-- Generator: Adobe Illustrator 18.0.0, SVG Export Plug-In . SVG Version: 6.00 Build 0)  -->
<svg version="1.1" id="Layer_1" xmlns="http://www.w3.org/2000/svg" xmlns:xlink="http://www.w3.org/1999/xlink" x="0px" y="0px"
	 viewBox="0 0 16 16" enable-background="new 0 0 16 16" xml:space="preserve">
<g id="key_enter">
	<g>
		<path fill-rule="evenodd" clip-rule="evenodd" d="M14,2c-0.55,0-1,0.45-1,1v3c0,1.66-1.34,3-3,3H4.41l1.29-1.29
			C5.89,7.53,6,7.28,6,7c0-0.55-0.45-1-1-1C4.72,6,4.47,6.11,4.29,6.29l-3,3C1.11,9.47,1,9.72,1,10c0,0.28,0.11,0.53,0.29,0.71l3,3
			C4.47,13.89,4.72,14,5,14c0.55,0,1-0.45,1-1c0-0.28-0.11-0.53-0.29-0.71L4.41,11H10c2.76,0,5-2.24,5-5V3C15,2.45,14.55,2,14,2z"/>
	</g>
</g>
</svg>
