<?xml version="1.0" encoding="utf-8"?>
<!-- Generator: Adobe Illustrator 18.0.0, SVG Export Plug-In . SVG Version: 6.00 Build 0)  -->
<svg version="1.1" id="Layer_1" xmlns="http://www.w3.org/2000/svg" xmlns:xlink="http://www.w3.org/1999/xlink" x="0px" y="0px"
	 viewBox="0 0 16 16" enable-background="new 0 0 16 16" xml:space="preserve">
<g id="backspace">
	<g>
		<path fill-rule="evenodd" clip-rule="evenodd" d="M15,2H6C5.72,2,5.47,2.11,5.29,2.29l-5,5C0.11,7.47,0,7.72,0,8
			c0,0.28,0.11,0.53,0.29,0.71l5,5C5.47,13.89,5.72,14,6,14h9c0.55,0,1-0.45,1-1V3C16,2.45,15.55,2,15,2z M12.71,9.29
			C12.89,9.47,13,9.72,13,10c0,0.55-0.45,1-1,1c-0.28,0-0.53-0.11-0.71-0.29L10,9.41l-1.29,1.29C8.53,10.89,8.28,11,8,11
			c-0.55,0-1-0.45-1-1c0-0.28,0.11-0.53,0.29-0.71L8.59,8L7.29,6.71C7.11,6.53,7,6.28,7,6c0-0.55,0.45-1,1-1
			c0.28,0,0.53,0.11,0.71,0.29L10,6.59l1.29-1.29C11.47,5.11,11.72,5,12,5c0.55,0,1,0.45,1,1c0,0.28-0.11,0.53-0.29,0.71L11.41,8
			L12.71,9.29z"/>
	</g>
</g>
</svg>
