<?xml version="1.0" encoding="utf-8"?>
<!-- Generator: Adobe Illustrator 18.0.0, SVG Export Plug-In . SVG Version: 6.00 Build 0)  -->
<svg version="1.1" id="Layer_1" xmlns="http://www.w3.org/2000/svg" xmlns:xlink="http://www.w3.org/1999/xlink" x="0px" y="0px"
	 viewBox="0 0 16 16" enable-background="new 0 0 16 16" xml:space="preserve">
<g id="key_tab_2_">
	<g>
		<path fill-rule="evenodd" clip-rule="evenodd" d="M15,10H4.41l1.29-1.29C5.89,8.53,6,8.28,6,8c0-0.55-0.45-1-1-1
			C4.72,7,4.47,7.11,4.29,7.29L2,9.59V8c0-0.55-0.45-1-1-1S0,7.45,0,8v6c0,0.55,0.45,1,1,1s1-0.45,1-1v-1.59l2.29,2.29
			C4.47,14.89,4.72,15,5,15c0.55,0,1-0.45,1-1c0-0.28-0.11-0.53-0.29-0.71L4.41,12H15c0.55,0,1-0.45,1-1C16,10.45,15.55,10,15,10z
			 M15,1c-0.55,0-1,0.45-1,1v1.59l-2.29-2.29C11.53,1.11,11.28,1,11,1c-0.55,0-1,0.45-1,1c0,0.28,0.11,0.53,0.29,0.71L11.59,4H1
			C0.45,4,0,4.45,0,5c0,0.55,0.45,1,1,1h10.59l-1.29,1.29C10.11,7.47,10,7.72,10,8c0,0.55,0.45,1,1,1c0.28,0,0.53-0.11,0.71-0.29
			L14,6.41V8c0,0.55,0.45,1,1,1s1-0.45,1-1V2C16,1.45,15.55,1,15,1z"/>
	</g>
</g>
</svg>
