<?xml version="1.0" encoding="utf-8"?>
<!-- Generator: Adobe Illustrator 18.0.0, SVG Export Plug-In . SVG Version: 6.00 Build 0)  -->
<svg version="1.1" id="Layer_1" xmlns="http://www.w3.org/2000/svg" xmlns:xlink="http://www.w3.org/1999/xlink" x="0px" y="0px"
	 viewBox="0 0 16 16" enable-background="new 0 0 16 16" xml:space="preserve">
<g id="key_escape">
	<g>
		<path fill-rule="evenodd" clip-rule="evenodd" d="M2,7c0.55,0,1-0.45,1-1V4.41l4.29,4.29C7.47,8.89,7.72,9,8,9c0.55,0,1-0.45,1-1
			c0-0.28-0.11-0.53-0.29-0.71L4.41,3H6c0.55,0,1-0.45,1-1c0-0.55-0.45-1-1-1H2C1.45,1,1,1.45,1,2v4C1,6.55,1.45,7,2,7z M9,1.1v2
			c2.28,0.46,4,2.48,4,4.9c0,2.76-2.24,5-5,5c-2.42,0-4.44-1.72-4.9-4h-2c0.49,3.39,3.38,6,6.9,6c3.87,0,7-3.13,7-7
			C15,4.48,12.39,1.59,9,1.1z"/>
	</g>
</g>
</svg>
