<?xml version="1.0" encoding="utf-8"?>
<!-- Generator: Adobe Illustrator 18.0.0, SVG Export Plug-In . SVG Version: 6.00 Build 0)  -->
<svg version="1.1" id="Layer_1" xmlns="http://www.w3.org/2000/svg" xmlns:xlink="http://www.w3.org/1999/xlink" x="0px" y="0px"
	 viewBox="0 0 16 16" enable-background="new 0 0 16 16" xml:space="preserve">
<g id="key_1_">
	<g>
		<path fill-rule="evenodd" clip-rule="evenodd" d="M11,0C8.24,0,6,2.24,6,5c0,1.02,0.31,1.96,0.83,2.75l-6.54,6.54
			C0.11,14.47,0,14.72,0,15c0,0.55,0.45,1,1,1c0.28,0,0.53-0.11,0.71-0.29L3,14.41l1.29,1.29C4.47,15.89,4.72,16,5,16
			s0.53-0.11,0.71-0.29l2-2C7.89,13.53,8,13.28,8,13c0-0.28-0.11-0.53-0.29-0.71L6.41,11l1.83-1.83C9.04,9.69,9.98,10,11,10
			c2.76,0,5-2.24,5-5S13.76,0,11,0z M11,8c-0.23,0-0.45-0.03-0.66-0.08c-0.01,0-0.02-0.01-0.03-0.01C10.1,7.86,9.9,7.79,9.71,7.7
			C9.09,7.4,8.6,6.91,8.3,6.29C8.21,6.1,8.14,5.9,8.09,5.7c0-0.01-0.01-0.02-0.01-0.03C8.03,5.45,8,5.23,8,5c0-1.66,1.34-3,3-3
			s3,1.34,3,3S12.66,8,11,8z"/>
	</g>
</g>
</svg>
