<svg xmlns="http://www.w3.org/2000/svg" xml:space="preserve" viewBox="0 0 16 16"><path fill-rule="evenodd" d="M11 0C8.24 0 6 2.24 6 5c0 1.02.31 1.96.83 2.75L.29 14.29a1.003 1.003 0 0 0 1.42 1.42L3 14.41l1.29 1.29c.18.19.43.3.71.3s.53-.11.71-.29l2-2c.18-.18.29-.43.29-.71 0-.28-.11-.53-.29-.71L6.41 11l1.83-1.83c.8.52 1.74.83 2.76.83 2.76 0 5-2.24 5-5s-2.24-5-5-5zm0 8c-.23 0-.45-.03-.66-.08-.01 0-.02-.01-.03-.01-.21-.05-.41-.12-.6-.21a3.014 3.014 0 0 1-1.62-2c0-.01-.01-.02-.01-.03C8.03 5.45 8 5.23 8 5c0-1.66 1.34-3 3-3s3 1.34 3 3-1.34 3-3 3z" clip-rule="evenodd"/></svg>