<?xml version="1.0" encoding="utf-8"?>
<!-- Generator: Adobe Illustrator 18.0.0, SVG Export Plug-In . SVG Version: 6.00 Build 0)  -->
<svg version="1.1" id="Layer_1" xmlns="http://www.w3.org/2000/svg" xmlns:xlink="http://www.w3.org/1999/xlink" x="0px" y="0px"
	 viewBox="0 0 16 16" enable-background="new 0 0 16 16" xml:space="preserve">
<g id="known_vehicle">
	<g>
		<path fill-rule="evenodd" clip-rule="evenodd" d="M15,2.999939c-0.276123,0-0.526123,0.1119385-0.7070923,0.2929077L12,5.5857544
			l-1.2929077-1.2929077C10.526123,4.1118774,10.276123,3.999939,10,3.999939c-0.5523071,0-1,0.4476929-1,1
			c0,0.276123,0.1119385,0.526123,0.2929077,0.7071533l2,2C11.473877,7.8880005,11.723877,7.999939,12,7.999939
			s0.526123-0.1119385,0.7070923-0.2928467l3-3C15.8880615,4.526062,16,4.276062,16,3.999939
			C16,3.4476318,15.5523071,2.999939,15,2.999939z M14.1213379,9.1212769l-0.0076294-0.0076294
			c-0.3123169,0.309021-0.6906128,0.5522461-1.1138916,0.7026978v0.1834106h-0.9979248
			c-0.0006714,0-0.0012207,0.0001831-0.0018921,0.0001831c-0.0006104,0-0.0012207-0.0001831-0.0018311-0.0001831h-0.998291
			V9.8162231c-0.4234009-0.1505127-0.8002319-0.3948975-1.1115112-0.7045898L9.8786621,9.1212769l-2-2l0.0110474-0.0110474
			c-0.31073-0.3099976-0.5552979-0.6862793-0.7061157-1.1105957H3.0001221c-0.1760254,0-0.0606079-0.8240356,0-1l0.729126-1.6304932
			c0.0609131-0.1762085,0.0949097-0.3695679,0.270813-0.3695679h3.7788696C8.3280029,2.3901978,9.1151733,1.999939,10,1.999939
			c0.7679443,0,1.4609985,0.2932739,1.9873047,0.7700806l0.8439941-0.8439941
			c-0.2387085-0.2445068-0.5244751-0.4421997-0.7944336-0.5244141c0,0-1.3168945-0.4016113-4.0368042-0.4016113
			C5.2800293,1,3.9630737,1.4016113,3.9630737,1.4016113c-0.5078125,0.1549072-1.078064,0.7116089-1.2677002,1.2375488
			L1.932312,4.7561035H0.8799438C0.3960571,4.7561035,0,5.1785889,0,5.6949463c0,0.5164795,0.3960571,0.9390259,0.8799438,0.9390259
			h0.3754272l-0.255188,0.3657227c-0.0339355,0.6849976,0,1.4365234,0,2.000061v5.0001221
			c0,0.6572266,0.3840942,1.000061,0.999939,1.000061c0.6162109,0,1-0.3428345,1-1.000061v-1h9.9996948v1
			c0,0.6572266,0.3839722,1.000061,1,1.000061c0.6159668,0,0.999939-0.3428345,0.999939-1.000061V8.9997559
			c0-0.2207642-0.0015869-0.4832764-0.0029907-0.7539673L14.1213379,9.1212769z M5.000061,9.9997559h-1.999939v-2.000061h1.999939
			V9.9997559z"/>
	</g>
</g>
</svg>
