<?xml version="1.0" encoding="utf-8"?>
<!-- Generator: Adobe Illustrator 18.1.0, SVG Export Plug-In . SVG Version: 6.00 Build 0)  -->
<svg version="1.1" id="Layer_1" xmlns="http://www.w3.org/2000/svg" xmlns:xlink="http://www.w3.org/1999/xlink" x="0px" y="0px"
	 viewBox="0 0 16 16" enable-background="new 0 0 16 16" xml:space="preserve">
<g id="layer_2_">
	<g>
		<path fill-rule="evenodd" clip-rule="evenodd" d="M16,8c0-0.37-0.21-0.68-0.51-0.85l0.01-0.01l-7-4L8.49,3.15
			C8.34,3.06,8.18,3,8,3S7.66,3.06,7.51,3.15L7.5,3.13l-7,4l0.01,0.01C0.21,7.32,0,7.63,0,8s0.21,0.68,0.51,0.85
			c0,0-0.01,0.01-0.01,0.01l7,4l0.01-0.01C7.66,12.94,7.82,13,8,13s0.34-0.06,0.49-0.15l0.01,0.01l7-4l-0.01-0.01
			C15.79,8.68,16,8.37,16,8z"/>
	</g>
</g>
</svg>
