<svg xmlns="http://www.w3.org/2000/svg" xml:space="preserve" viewBox="0 0 16 16"><path fill-rule="evenodd" d="M14.16 6.02c-.12-.36-.26-.7-.43-1.03.17-.29.27-.63.27-.99 0-1.1-.9-2-2-2-.36 0-.7.1-.99.27-.33-.17-.67-.31-1.03-.43A1.987 1.987 0 0 0 8 0C6.95 0 6.1.81 6.02 1.84c-.36.12-.7.26-1.03.43C4.7 2.1 4.36 2 4 2c-1.1 0-2 .9-2 2 0 .36.1.7.27.99-.17.33-.31.67-.43 1.03C.81 6.1 0 6.95 0 8c0 1.05.81 1.9 1.84 1.98.12.36.26.7.43 1.03-.17.29-.27.63-.27.99 0 1.1.9 2 2 2 .36 0 .7-.1.99-.27.33.17.67.32 1.03.43C6.1 15.19 6.95 16 8 16c1.05 0 1.9-.81 1.98-1.84.36-.12.7-.26 1.03-.43.29.17.63.27.99.27 1.1 0 2-.9 2-2 0-.36-.1-.7-.27-.99.17-.33.31-.67.43-1.03C15.19 9.9 16 9.05 16 8c0-1.05-.81-1.9-1.84-1.98zm-.99 3.79c-.05.16-.11.31-.17.46-.3-.17-.64-.27-1-.27-1.1 0-2 .9-2 2 0 .36.1.7.27 1-.15.07-.3.12-.46.17C9.5 12.48 8.81 12 8 12s-1.5.48-1.81 1.17c-.16-.06-.32-.11-.46-.17.17-.3.27-.64.27-1 0-1.1-.9-2-2-2-.36 0-.7.1-1 .27-.07-.15-.12-.3-.17-.46C3.52 9.5 4 8.81 4 8s-.48-1.5-1.17-1.81c.06-.16.11-.32.17-.46.3.17.64.27 1 .27 1.1 0 2-.9 2-2 0-.36-.1-.7-.27-1 .15-.07.3-.12.46-.17C6.5 3.52 7.19 4 8 4s1.5-.48 1.81-1.17c.16.06.32.11.46.17-.17.3-.27.64-.27 1 0 1.1.9 2 2 2 .36 0 .7-.1 1-.27.07.15.12.3.17.46C12.48 6.5 12 7.19 12 8s.48 1.5 1.17 1.81z" clip-rule="evenodd"/></svg>