<?xml version="1.0" encoding="utf-8"?>
<!-- Generator: Adobe Illustrator 18.1.0, SVG Export Plug-In . SVG Version: 6.00 Build 0)  -->
<svg version="1.1" id="Layer_1" xmlns="http://www.w3.org/2000/svg" xmlns:xlink="http://www.w3.org/1999/xlink" x="0px" y="0px"
	 viewBox="0 0 16 16" enable-background="new 0 0 16 16" xml:space="preserve">
<g id="layout_linear_1_">
	<g>
		<path fill-rule="evenodd" clip-rule="evenodd" d="M14,6c-0.93,0-1.71,0.64-1.93,1.5H9.93C9.71,6.64,8.93,6,8,6S6.29,6.64,6.07,7.5
			H3.93C3.71,6.64,2.93,6,2,6C0.9,6,0,6.9,0,8c0,1.1,0.9,2,2,2c0.93,0,1.71-0.64,1.93-1.5h2.13C6.29,9.36,7.07,10,8,10
			s1.71-0.64,1.93-1.5h2.13c0.22,0.86,1,1.5,1.93,1.5c1.1,0,2-0.9,2-2C16,6.9,15.1,6,14,6z"/>
	</g>
</g>
</svg>
