<svg xmlns="http://www.w3.org/2000/svg" xml:space="preserve" viewBox="0 0 16 16"><path fill-rule="evenodd" d="M14 4c-1.1 0-2 .9-2 2 0 .47.17.9.44 1.24l-.68.91A1.996 1.996 0 0 0 9.07 9.5H7.93C7.71 8.64 6.93 8 6 8c-.47 0-.9.17-1.24.44l-.91-.68c.1-.23.15-.49.15-.76 0-.37-.11-.71-.28-1.01l2.27-2.27c.3.17.64.28 1.01.28 1.1 0 2-.9 2-2s-.9-2-2-2-2 .9-2 2c0 .37.11.71.28 1.01L3.01 5.28C2.71 5.11 2.37 5 2 5 .9 5 0 5.9 0 7s.9 2 2 2c.47 0 .9-.17 1.24-.44l.91.68c-.1.23-.15.49-.15.76 0 .37.11.71.28 1.01l-1.27 1.27C2.71 12.11 2.37 12 2 12c-1.1 0-2 .9-2 2s.9 2 2 2 2-.9 2-2c0-.37-.11-.71-.28-1.01l1.27-1.27c.3.17.64.28 1.01.28.93 0 1.71-.64 1.93-1.5h1.14c.22.86 1 1.5 1.93 1.5 1.1 0 2-.9 2-2 0-.47-.17-.9-.44-1.24l.68-.91c.23.1.49.15.76.15 1.1 0 2-.9 2-2s-.9-2-2-2z" clip-rule="evenodd"/></svg>