<svg xmlns="http://www.w3.org/2000/svg" xml:space="preserve" viewBox="0 0 16 16"><path fill-rule="evenodd" d="M14 9.5c-.56 0-1.06.23-1.42.59L8.99 8l3.59-2.09A2.002 2.002 0 0 0 16 4.5c0-1.1-.9-2-2-2s-2 .9-2 2c0 .19.03.37.08.54L8.5 7.13v-3.2c.86-.22 1.5-1 1.5-1.93 0-1.1-.9-2-2-2S6 .9 6 2c0 .93.64 1.71 1.5 1.93v3.2L3.92 5.04c.05-.17.08-.35.08-.54 0-1.1-.9-2-2-2s-2 .9-2 2 .9 2 2 2c.56 0 1.06-.23 1.42-.59L7.01 8l-3.59 2.09A2.002 2.002 0 0 0 0 11.5c0 1.1.9 2 2 2s2-.9 2-2c0-.19-.03-.37-.08-.54L7.5 8.87v3.2c-.86.22-1.5 1-1.5 1.93 0 1.1.9 2 2 2s2-.9 2-2c0-.93-.64-1.71-1.5-1.93v-3.2l3.58 2.09c-.05.17-.08.35-.08.54 0 1.1.9 2 2 2s2-.9 2-2-.9-2-2-2z" clip-rule="evenodd"/></svg>