<?xml version="1.0" encoding="utf-8"?>
<!-- Generator: Adobe Illustrator 17.1.0, SVG Export Plug-In . SVG Version: 6.00 Build 0)  -->
<!DOCTYPE svg PUBLIC "-//W3C//DTD SVG 1.1//EN" "http://www.w3.org/Graphics/SVG/1.1/DTD/svg11.dtd">
<svg version="1.1" id="Layer_1" xmlns="http://www.w3.org/2000/svg" xmlns:xlink="http://www.w3.org/1999/xlink" x="0px" y="0px"
	 viewBox="0 0 16 16" enable-background="new 0 0 16 16" xml:space="preserve">
<g id="layout_circle_2_">
	<g>
		<path fill-rule="evenodd" clip-rule="evenodd" d="M14.16,6.02c-0.12-0.36-0.26-0.7-0.43-1.03C13.9,4.7,14,4.36,14,4
			c0-1.1-0.9-2-2-2c-0.36,0-0.7,0.1-0.99,0.27c-0.33-0.17-0.67-0.31-1.03-0.43C9.9,0.81,9.05,0,8,0C6.95,0,6.1,0.81,6.02,1.84
			C5.66,1.96,5.32,2.1,4.99,2.27C4.7,2.1,4.36,2,4,2C2.9,2,2,2.9,2,4c0,0.36,0.1,0.7,0.27,0.99C2.1,5.32,1.96,5.66,1.84,6.02
			C0.81,6.1,0,6.95,0,8c0,1.05,0.81,1.9,1.84,1.98c0.12,0.36,0.26,0.7,0.43,1.03C2.1,11.3,2,11.64,2,12c0,1.1,0.9,2,2,2
			c0.36,0,0.7-0.1,0.99-0.27c0.33,0.17,0.67,0.32,1.03,0.43C6.1,15.19,6.95,16,8,16c1.05,0,1.9-0.81,1.98-1.84
			c0.36-0.12,0.7-0.26,1.03-0.43C11.3,13.9,11.64,14,12,14c1.1,0,2-0.9,2-2c0-0.36-0.1-0.7-0.27-0.99c0.17-0.33,0.31-0.67,0.43-1.03
			C15.19,9.9,16,9.05,16,8C16,6.95,15.19,6.1,14.16,6.02z M13.17,9.81c-0.05,0.16-0.11,0.31-0.17,0.46C12.7,10.1,12.36,10,12,10
			c-1.1,0-2,0.9-2,2c0,0.36,0.1,0.7,0.27,1c-0.15,0.07-0.3,0.12-0.46,0.17C9.5,12.48,8.81,12,8,12s-1.5,0.48-1.81,1.17
			C6.03,13.11,5.87,13.06,5.73,13C5.9,12.7,6,12.36,6,12c0-1.1-0.9-2-2-2c-0.36,0-0.7,0.1-1,0.27c-0.07-0.15-0.12-0.3-0.17-0.46
			C3.52,9.5,4,8.81,4,8S3.52,6.5,2.83,6.19C2.89,6.03,2.94,5.87,3,5.73C3.3,5.9,3.64,6,4,6c1.1,0,2-0.9,2-2c0-0.36-0.1-0.7-0.27-1
			c0.15-0.07,0.3-0.12,0.46-0.17C6.5,3.52,7.19,4,8,4s1.5-0.48,1.81-1.17C9.97,2.89,10.13,2.94,10.27,3C10.1,3.3,10,3.64,10,4
			c0,1.1,0.9,2,2,2c0.36,0,0.7-0.1,1-0.27c0.07,0.15,0.12,0.3,0.17,0.46C12.48,6.5,12,7.19,12,8S12.48,9.5,13.17,9.81z"/>
	</g>
</g>
</svg>
