<?xml version="1.0" encoding="utf-8"?>
<!-- Generator: Adobe Illustrator 18.0.0, SVG Export Plug-In . SVG Version: 6.00 Build 0)  -->
<svg version="1.1" id="Layer_1" xmlns="http://www.w3.org/2000/svg" xmlns:xlink="http://www.w3.org/1999/xlink" x="0px" y="0px"
	 viewBox="0 0 16 16" enable-background="new 0 0 16 16" xml:space="preserve">
<g id="Shape_6">
	<g>
		<path fill-rule="evenodd" clip-rule="evenodd" d="M14,11c-0.2,0-0.38,0.04-0.56,0.09L12.42,9.4C12.78,9.04,13,8.55,13,8
			c0-0.55-0.22-1.04-0.58-1.4l1.01-1.69C13.62,4.96,13.8,5,14,5c1.1,0,2-0.9,2-2s-0.9-2-2-2s-2,0.9-2,2c0,0.55,0.22,1.04,0.58,1.4
			l-1.01,1.69C11.38,6.04,11.2,6,11,6c-0.93,0-1.71,0.64-1.93,1.5H6.93C6.71,6.64,5.93,6,5,6C4.8,6,4.62,6.04,4.44,6.09L3.42,4.4
			C3.78,4.04,4,3.55,4,3c0-1.1-0.9-2-2-2S0,1.9,0,3s0.9,2,2,2c0.2,0,0.38-0.04,0.56-0.09L3.58,6.6C3.22,6.96,3,7.45,3,8
			c0,0.55,0.22,1.04,0.58,1.4l-1.01,1.69C2.38,11.04,2.2,11,2,11c-1.1,0-2,0.9-2,2s0.9,2,2,2s2-0.9,2-2c0-0.55-0.22-1.04-0.58-1.4
			l1.01-1.69C4.62,9.96,4.8,10,5,10c0.93,0,1.71-0.64,1.93-1.5h2.14c0.22,0.86,1,1.5,1.93,1.5c0.2,0,0.38-0.04,0.56-0.09l1.01,1.69
			C12.22,11.96,12,12.45,12,13c0,1.1,0.9,2,2,2s2-0.9,2-2S15.1,11,14,11z"/>
	</g>
</g>
</svg>
