<svg xmlns="http://www.w3.org/2000/svg" xml:space="preserve" viewBox="0 0 16 16"><path fill-rule="evenodd" d="M14 11c-.2 0-.38.04-.56.09L12.42 9.4c.36-.36.58-.85.58-1.4 0-.55-.22-1.04-.58-1.4l1.01-1.69c.19.05.37.09.57.09 1.1 0 2-.9 2-2s-.9-2-2-2-2 .9-2 2c0 .55.22 1.04.58 1.4l-1.01 1.69C11.38 6.04 11.2 6 11 6c-.93 0-1.71.64-1.93 1.5H6.93C6.71 6.64 5.93 6 5 6c-.2 0-.38.04-.56.09L3.42 4.4C3.78 4.04 4 3.55 4 3c0-1.1-.9-2-2-2s-2 .9-2 2 .9 2 2 2c.2 0 .38-.04.56-.09L3.58 6.6C3.22 6.96 3 7.45 3 8c0 .55.22 1.04.58 1.4l-1.01 1.69C2.38 11.04 2.2 11 2 11c-1.1 0-2 .9-2 2s.9 2 2 2 2-.9 2-2c0-.55-.22-1.04-.58-1.4l1.01-1.69c.19.05.37.09.57.09.93 0 1.71-.64 1.93-1.5h2.14c.22.86 1 1.5 1.93 1.5.2 0 .38-.04.56-.09l1.01 1.69c-.35.36-.57.85-.57 1.4 0 1.1.9 2 2 2s2-.9 2-2-.9-2-2-2z" clip-rule="evenodd"/></svg>