<?xml version="1.0" encoding="utf-8"?>
<!-- Generator: Adobe Illustrator 17.1.0, SVG Export Plug-In . SVG Version: 6.00 Build 0)  -->
<!DOCTYPE svg PUBLIC "-//W3C//DTD SVG 1.1//EN" "http://www.w3.org/Graphics/SVG/1.1/DTD/svg11.dtd">
<svg version="1.1" id="Layer_1" xmlns="http://www.w3.org/2000/svg" xmlns:xlink="http://www.w3.org/1999/xlink" x="0px" y="0px"
	 viewBox="0 0 16 16" enable-background="new 0 0 16 16" xml:space="preserve">
<g id="layout_7_">
	<g>
		<path fill-rule="evenodd" clip-rule="evenodd" d="M14,4c-1.1,0-2,0.9-2,2c0,0.47,0.17,0.9,0.44,1.24l-0.68,0.91
			C11.53,8.05,11.27,8,11,8c-0.93,0-1.71,0.64-1.93,1.5H7.93C7.71,8.64,6.93,8,6,8C5.53,8,5.1,8.17,4.76,8.44L3.85,7.76
			C3.95,7.53,4,7.27,4,7c0-0.37-0.11-0.71-0.28-1.01l2.27-2.27C6.29,3.89,6.63,4,7,4c1.1,0,2-0.9,2-2c0-1.1-0.9-2-2-2S5,0.9,5,2
			c0,0.37,0.11,0.71,0.28,1.01L3.01,5.28C2.71,5.11,2.37,5,2,5C0.9,5,0,5.9,0,7c0,1.1,0.9,2,2,2c0.47,0,0.9-0.17,1.24-0.44
			l0.91,0.68C4.05,9.47,4,9.73,4,10c0,0.37,0.11,0.71,0.28,1.01l-1.27,1.27C2.71,12.11,2.37,12,2,12c-1.1,0-2,0.9-2,2
			c0,1.1,0.9,2,2,2s2-0.9,2-2c0-0.37-0.11-0.71-0.28-1.01l1.27-1.27C5.29,11.89,5.63,12,6,12c0.93,0,1.71-0.64,1.93-1.5h1.14
			c0.22,0.86,1,1.5,1.93,1.5c1.1,0,2-0.9,2-2c0-0.47-0.17-0.9-0.44-1.24l0.68-0.91C13.47,7.95,13.73,8,14,8c1.1,0,2-0.9,2-2
			C16,4.9,15.1,4,14,4z"/>
	</g>
</g>
</svg>
