<svg xmlns="http://www.w3.org/2000/svg" width="16" height="16"><g fill-rule="evenodd"><g><path d="M8.441 1.104a.985.985 0 0 0-.882 0L.365 5c-.487.253-.487.747 0 1L7.56 9.896a.985.985 0 0 0 .882 0L15.635 6c.487-.253.487-.747 0-1L8.44 1.104Z"/><path d="m14 5.5.016 4.514c.002.548.447.99.994.99a.99.99 0 0 0 .99-.99V5.5h-2ZM3.371 9.047l4.387 2.432a.5.5 0 0 0 .485 0l4.39-2.432a.25.25 0 0 1 .371.218v2.955a.25.25 0 0 1-.134.222l-4.635 2.436a.5.5 0 0 1-.466 0l-4.635-2.436A.25.25 0 0 1 3 12.22V9.265a.25.25 0 0 1 .371-.218Z"/></g></g></svg>