<?xml version="1.0" encoding="UTF-8"?>
<svg width="16px" height="16px" viewBox="0 0 16 16" version="1.1" xmlns="http://www.w3.org/2000/svg" xmlns:xlink="http://www.w3.org/1999/xlink">
    <!-- Generator: Sketch 54.1 (76490) - https://sketchapp.com -->
    <title>less-than-or-equal-to</title>
    <desc>Created with Sketch.</desc>
    <g id="less-than-or-equal-to" stroke="none" stroke-width="1" fill="none" fill-rule="evenodd">
        <path d="M2.7126514,3.95782629 C2.18365855,3.79912843 1.88347515,3.24164496 2.042173,2.71265211 C2.20087086,2.18365926 2.75835433,1.88347586 3.28734718,2.04217371 L13.2873472,5.04217371 C14.23755,5.32723456 14.23755,6.67276544 13.2873472,6.95782629 L3.28734718,9.95782629 C2.75835433,10.1165241 2.20087086,9.81634074 2.042173,9.28734789 C1.88347515,8.75835504 2.18365855,8.20087157 2.7126514,8.04217371 L9.51989712,6 L2.7126514,3.95782629 Z M2.99999929,12 L12.9999993,12 C13.552284,12 13.9999993,12.4477153 13.9999993,13 C13.9999993,13.5522847 13.552284,14 12.9999993,14 L2.99999929,14 C2.44771454,14 1.99999929,13.5522847 1.99999929,13 C1.99999929,12.4477153 2.44771454,12 2.99999929,12 Z" fill="#000000" fill-rule="nonzero" transform="translate(7.999868, 7.999868) scale(-1, 1) translate(-7.999868, -7.999868) "></path>
    </g>
</svg>