<?xml version="1.0" encoding="UTF-8"?>
<svg width="16px" height="16px" viewBox="0 0 16 16" version="1.1" xmlns="http://www.w3.org/2000/svg" xmlns:xlink="http://www.w3.org/1999/xlink">
    <!-- Generator: Sketch 52.4 (67378) - http://www.bohemiancoding.com/sketch -->
    <title>16</title>
    <desc>Created with Sketch.</desc>
    <g id="16" stroke="none" stroke-width="1" fill="none" fill-rule="evenodd">
        <path d="M9.40487443,11.7463318 C8.96778433,11.9103166 8.49436551,12 8,12 C7.50563449,12 7.03221567,11.9103166 6.59512557,11.7463318 L5.89268836,13.6194977 C6.54832351,13.8654749 7.25845174,14 8,14 C8.74154826,14 9.45167649,13.8654749 10.1073116,13.6194977 L9.40487443,11.7463318 Z M11.7463318,9.40487443 L13.6194977,10.1073116 C13.8654749,9.45167649 14,8.74154826 14,8 C14,7.25845174 13.8654749,6.54832351 13.6194977,5.89268836 L11.7463318,6.59512557 C11.9103166,7.03221567 12,7.50563449 12,8 C12,8.49436551 11.9103166,8.96778433 11.7463318,9.40487443 Z M9.40487443,4.25366819 L10.1073116,2.38050229 C9.45167649,2.13452512 8.74154826,2 8,2 C7.25845174,2 6.54832351,2.13452512 5.89268836,2.38050229 L6.59512557,4.25366819 C7.03221567,4.08968341 7.50563449,4 8,4 C8.49436551,4 8.96778433,4.08968341 9.40487443,4.25366819 Z M4.25366819,6.59512557 L2.38050229,5.89268836 C2.13452512,6.54832351 2,7.25845174 2,8 C2,8.74154826 2.13452512,9.45167649 2.38050229,10.1073116 L4.25366819,9.40487443 C4.08968341,8.96778433 4,8.49436551 4,8 C4,7.50563449 4.08968341,7.03221567 4.25366819,6.59512557 Z M8,16 C3.581722,16 0,12.418278 0,8 C0,3.581722 3.581722,0 8,0 C12.418278,0 16,3.581722 16,8 C16,12.418278 12.418278,16 8,16 Z M8,10 C9.1045695,10 10,9.1045695 10,8 C10,6.8954305 9.1045695,6 8,6 C6.8954305,6 6,6.8954305 6,8 C6,9.1045695 6.8954305,10 8,10 Z" id="Combined-Shape" fill="#000000" fill-rule="nonzero"></path>
    </g>
</svg>