<svg width="16" height="16" viewBox="0 0 16 16" fill="none" xmlns="http://www.w3.org/2000/svg">
<path fill-rule="evenodd" clip-rule="evenodd" d="M7 9H5C4.44772 9 4 8.55229 4 8L4.8905 0.875965C4.95306 0.375536 5.37846 0 5.88278 0H10.1535C10.621 0 11 0.378991 11 0.8465C11 0.948006 10.9817 1.04868 10.9461 1.14373L9.125 6H11.1751C11.6307 6 12 6.36934 12 6.82494C12 6.94036 11.9758 7.0545 11.9289 7.15998L8.15998 15.6401C8.06269 15.8589 7.84563 16 7.60611 16C7.27136 16 7 15.7286 7 15.3939V9Z" fill="#5C7080"/>
</svg>
