<?xml version="1.0" encoding="utf-8"?>
<!-- Generator: Adobe Illustrator 18.1.0, SVG Export Plug-In . SVG Version: 6.00 Build 0)  -->
<svg version="1.1" id="Layer_1" xmlns="http://www.w3.org/2000/svg" xmlns:xlink="http://www.w3.org/1999/xlink" x="0px" y="0px"
	 viewBox="0 0 16 16" enable-background="new 0 0 16 16" xml:space="preserve">
<g id="lightbulb">
	<g>
		<path fill-rule="evenodd" clip-rule="evenodd" d="M9.01,14h-2c-0.55,0-1,0.45-1,1c0,0.55,0.45,1,1,1h2c0.55,0,1-0.45,1-1
			C10.01,14.45,9.57,14,9.01,14z M10.01,11h-4c-0.55,0-1,0.45-1,1c0,0.55,0.45,1,1,1h4c0.55,0,1-0.45,1-1
			C11.01,11.45,10.57,11,10.01,11z M8.01,0C5.26,0,3.03,1.95,3.03,4.35c0,2.37,1.63,2.64,1.94,5.22h0c0,0.24,0.22,0.44,0.5,0.44
			h5.09c0.28,0,0.5-0.19,0.5-0.44C11.37,6.99,13,6.72,13,4.35C13,1.95,10.77,0,8.01,0z"/>
	</g>
</g>
</svg>
