<?xml version="1.0" encoding="utf-8"?>
<!-- Generator: Adobe Illustrator 17.1.0, SVG Export Plug-In . SVG Version: 6.00 Build 0)  -->
<!DOCTYPE svg PUBLIC "-//W3C//DTD SVG 1.1//EN" "http://www.w3.org/Graphics/SVG/1.1/DTD/svg11.dtd">
<svg version="1.1" id="Layer_1" xmlns="http://www.w3.org/2000/svg" xmlns:xlink="http://www.w3.org/1999/xlink" x="0px" y="0px"
	 viewBox="0 0 16 16" enable-background="new 0 0 16 16" xml:space="preserve">
<g id="link_1_">
	<g>
		<path fill-rule="evenodd" clip-rule="evenodd" d="M4.99,11.99c0.28,0,0.53-0.11,0.71-0.29l6-6c0.18-0.18,0.29-0.43,0.29-0.71
			c0-0.55-0.45-1-1-1c-0.28,0-0.53,0.11-0.71,0.29l-6,6c-0.18,0.18-0.29,0.43-0.29,0.71C3.99,11.54,4.44,11.99,4.99,11.99z
			 M8.84,9.97l-2.44,2.44l-1,1l-0.01-0.01c-0.36,0.36-0.85,0.6-1.4,0.6c-1.1,0-2-0.9-2-2c0-0.55,0.24-1.04,0.6-1.4l-0.01-0.01l1-1
			l2.44-2.44C5.69,7.05,5.35,6.99,4.99,6.99c-1.1,0-2.09,0.46-2.81,1.19L2.16,8.16l-1,1l0.02,0.02c-0.73,0.72-1.19,1.71-1.19,2.81
			c0,2.21,1.79,4,4,4c1.1,0,2.09-0.46,2.81-1.19l0.02,0.02l1-1L7.8,13.8c0.73-0.72,1.19-1.71,1.19-2.81
			C8.99,10.64,8.93,10.3,8.84,9.97z M15.99,3.99c0-2.21-1.79-4-4-4c-1.1,0-2.09,0.46-2.81,1.19L9.16,1.16l-1,1l0.02,0.02
			C7.46,2.9,6.99,3.89,6.99,4.99c0,0.36,0.06,0.69,0.15,1.02l2.44-2.44l1-1l0.01,0.01c0.36-0.36,0.85-0.6,1.4-0.6c1.1,0,2,0.9,2,2
			c0,0.55-0.24,1.04-0.6,1.4l0.01,0.01l-1,1L9.97,8.84c0.33,0.09,0.67,0.15,1.02,0.15c1.1,0,2.09-0.46,2.81-1.19l0.02,0.02l1-1
			L14.8,6.8C15.53,6.08,15.99,5.1,15.99,3.99z"/>
	</g>
</g>
</svg>
