<svg xmlns="http://www.w3.org/2000/svg" xml:space="preserve" viewBox="0 0 16 16"><path fill-rule="evenodd" d="M4.99 11.99c.28 0 .53-.11.71-.29l6-6a1.003 1.003 0 0 0-1.42-1.42l-6 6a1.003 1.003 0 0 0 .71 1.71zm3.85-2.02L6.4 12.41l-1 1-.01-.01c-.36.36-.85.6-1.4.6-1.1 0-2-.9-2-2 0-.55.24-1.04.6-1.4l-.01-.01 1-1 2.44-2.44c-.33-.1-.67-.16-1.03-.16-1.1 0-2.09.46-2.81 1.19l-.02-.02-1 1 .02.02c-.73.72-1.19 1.71-1.19 2.81 0 2.21 1.79 4 4 4 1.1 0 2.09-.46 2.81-1.19l.02.02 1-1-.02-.02c.73-.72 1.19-1.71 1.19-2.81 0-.35-.06-.69-.15-1.02zm7.15-5.98c0-2.21-1.79-4-4-4-1.1 0-2.09.46-2.81 1.19l-.02-.02-1 1 .02.02c-.72.72-1.19 1.71-1.19 2.81 0 .36.06.69.15 1.02l2.44-2.44 1-1 .01.01c.36-.36.85-.6 1.4-.6 1.1 0 2 .9 2 2 0 .55-.24 1.04-.6 1.4l.01.01-1 1-2.43 2.45c.33.09.67.15 1.02.15 1.1 0 2.09-.46 2.81-1.19l.02.02 1-1-.02-.02a3.92 3.92 0 0 0 1.19-2.81z" clip-rule="evenodd"/></svg>