<svg xmlns="http://www.w3.org/2000/svg" xml:space="preserve" viewBox="0 0 16 16"><path fill-rule="evenodd" d="M15 7h-.09A6.98 6.98 0 0 0 9 1.1V1c0-.55-.45-1-1-1S7 .45 7 1v.09A6.98 6.98 0 0 0 1.1 7H1c-.55 0-1 .45-1 1s.45 1 1 1h.1A6.969 6.969 0 0 0 7 14.91V15c0 .55.45 1 1 1s1-.45 1-1v-.09A6.98 6.98 0 0 0 14.9 9h.1c.55 0 1-.45 1-1s-.45-1-1-1zm-6.02 5.9c-.05-.5-.46-.9-.98-.9s-.93.4-.98.9A5.017 5.017 0 0 1 3.1 8.98c.5-.05.9-.46.9-.98s-.4-.93-.9-.98A5.017 5.017 0 0 1 7.02 3.1c.05.5.46.9.98.9s.93-.4.98-.9c1.97.39 3.52 1.95 3.92 3.92-.5.05-.9.46-.9.98s.4.93.9.98a5.017 5.017 0 0 1-3.92 3.92zM8 6c-1.1 0-2 .9-2 2s.9 2 2 2 2-.9 2-2-.9-2-2-2z" clip-rule="evenodd"/></svg>