<?xml version="1.0" encoding="utf-8"?>
<!-- Generator: Adobe Illustrator 17.1.0, SVG Export Plug-In . SVG Version: 6.00 Build 0)  -->
<!DOCTYPE svg PUBLIC "-//W3C//DTD SVG 1.1//EN" "http://www.w3.org/Graphics/SVG/1.1/DTD/svg11.dtd">
<svg version="1.1" id="Layer_1" xmlns="http://www.w3.org/2000/svg" xmlns:xlink="http://www.w3.org/1999/xlink" x="0px" y="0px"
	 viewBox="0 0 16 16" enable-background="new 0 0 16 16" xml:space="preserve">
<g id="locate_3_">
	<g>
		<path fill-rule="evenodd" clip-rule="evenodd" d="M15,7h-0.09C14.47,3.95,12.06,1.54,9,1.1V1c0-0.55-0.45-1-1-1S7,0.45,7,1v0.09
			C3.95,1.53,1.54,3.94,1.1,7H1C0.45,7,0,7.45,0,8c0,0.55,0.45,1,1,1h0.1c0.44,3.06,2.84,5.47,5.9,5.91V15c0,0.55,0.45,1,1,1
			s1-0.45,1-1v-0.09c3.05-0.44,5.46-2.85,5.9-5.91H15c0.55,0,1-0.45,1-1C16,7.45,15.55,7,15,7z M8.98,12.9C8.93,12.4,8.52,12,8,12
			s-0.93,0.4-0.98,0.9C5.05,12.5,3.49,10.95,3.1,8.98C3.6,8.93,4,8.52,4,8c0-0.52-0.4-0.93-0.9-0.98C3.49,5.05,5.05,3.5,7.02,3.1
			C7.07,3.6,7.48,4,8,4c0.52,0,0.93-0.4,0.98-0.9c1.97,0.39,3.52,1.95,3.92,3.92C12.4,7.07,12,7.48,12,8c0,0.52,0.4,0.93,0.9,0.98
			C12.51,10.95,10.95,12.5,8.98,12.9z M8,6C6.9,6,6,6.9,6,8c0,1.1,0.9,2,2,2s2-0.9,2-2C10,6.9,9.1,6,8,6z"/>
	</g>
</g>
</svg>
