<?xml version="1.0" encoding="utf-8"?>
<!-- Generator: Adobe Illustrator 18.1.0, SVG Export Plug-In . SVG Version: 6.00 Build 0)  -->
<svg version="1.1" id="Layer_1" xmlns="http://www.w3.org/2000/svg" xmlns:xlink="http://www.w3.org/1999/xlink" x="0px" y="0px"
	 viewBox="0 0 16 16" enable-background="new 0 0 16 16" xml:space="preserve">
<g id="logout_3_">
	<g>
		<path fill-rule="evenodd" clip-rule="evenodd" d="M7,14H2V2h5c0.55,0,1-0.45,1-1S7.55,0,7,0H1C0.45,0,0,0.45,0,1v14
			c0,0.55,0.45,1,1,1h6c0.55,0,1-0.45,1-1S7.55,14,7,14z M15.71,7.29l-3-3C12.53,4.11,12.28,4,12,4c-0.55,0-1,0.45-1,1
			c0,0.28,0.11,0.53,0.29,0.71L12.59,7H6C5.45,7,5,7.45,5,8s0.45,1,1,1h6.59l-1.29,1.29C11.11,10.47,11,10.72,11,11
			c0,0.55,0.45,1,1,1c0.28,0,0.53-0.11,0.71-0.29l3-3C15.89,8.53,16,8.28,16,8C16,7.72,15.89,7.47,15.71,7.29z"/>
	</g>
</g>
</svg>
