<?xml version="1.0" encoding="utf-8"?>
<!-- Generator: Adobe Illustrator 18.1.0, SVG Export Plug-In . SVG Version: 6.00 Build 0)  -->
<svg version="1.1" id="Layer_1" xmlns="http://www.w3.org/2000/svg" xmlns:xlink="http://www.w3.org/1999/xlink" x="0px" y="0px"
	 viewBox="0 0 16 16" enable-background="new 0 0 16 16" xml:space="preserve">
<g id="login">
	<g>
		<path fill-rule="evenodd" clip-rule="evenodd" d="M11,8c0-0.28-0.11-0.53-0.29-0.71l-3-3C7.53,4.11,7.28,4,7,4C6.45,4,6,4.45,6,5
			c0,0.28,0.11,0.53,0.29,0.71L7.59,7H1C0.45,7,0,7.45,0,8c0,0.55,0.45,1,1,1h6.59l-1.29,1.29C6.11,10.47,6,10.72,6,11
			c0,0.55,0.45,1,1,1c0.28,0,0.53-0.11,0.71-0.29l3-3C10.89,8.53,11,8.28,11,8z M15,0H9C8.45,0,8,0.45,8,1c0,0.55,0.45,1,1,1h5v12H9
			c-0.55,0-1,0.45-1,1c0,0.55,0.45,1,1,1h6c0.55,0,1-0.45,1-1V1C16,0.45,15.55,0,15,0z"/>
	</g>
</g>
</svg>
