<?xml version="1.0" encoding="utf-8"?>
<!-- Generator: Adobe Illustrator 18.0.0, SVG Export Plug-In . SVG Version: 6.00 Build 0)  -->
<svg version="1.1" id="Layer_1" xmlns="http://www.w3.org/2000/svg" xmlns:xlink="http://www.w3.org/1999/xlink" x="0px" y="0px"
	 viewBox="0 0 16 16" enable-background="new 0 0 16 16" xml:space="preserve">
<g id="manual_1_">
	<g>
		<path fill-rule="evenodd" clip-rule="evenodd" d="M15.99,1.13c-0.02-0.41-0.33-0.77-0.78-0.87C12.26-0.36,9.84,0.13,8,1.7
			C6.16,0.13,3.74-0.36,0.78,0.26C0.33,0.35,0.03,0.72,0.01,1.13H0v12h0c0,0.08,0,0.17,0.02,0.26c0.12,0.51,0.65,0.82,1.19,0.71
			c2.63-0.55,4.59-0.04,6.01,1.57c0.02,0.03,0.06,0.04,0.08,0.06c0.02,0.02,0.03,0.04,0.05,0.06c0.04,0.03,0.09,0.04,0.13,0.07
			c0.05,0.03,0.09,0.05,0.14,0.07c0.11,0.04,0.23,0.07,0.35,0.07c0.01,0,0.01,0,0.02,0c0,0,0,0,0,0s0,0,0,0c0.01,0,0.01,0,0.02,0
			c0.12,0,0.24-0.03,0.35-0.07c0.05-0.02,0.09-0.05,0.14-0.07c0.04-0.02,0.09-0.04,0.13-0.07c0.02-0.02,0.03-0.04,0.05-0.06
			c0.03-0.02,0.06-0.03,0.08-0.06c1.42-1.6,3.39-2.12,6.01-1.57c0.54,0.11,1.07-0.21,1.19-0.71C16,13.3,16,13.21,16,13.13h0
			L15.99,1.13L15.99,1.13z M7,12.99c-1.4-0.83-3.07-1.14-5-0.93V1.96c2.11-0.28,3.75,0.2,5,1.46V12.99z M14,12.07
			c-1.93-0.21-3.6,0.1-5,0.93V3.42c1.25-1.26,2.89-1.74,5-1.46V12.07z"/>
	</g>
</g>
</svg>
