<?xml version="1.0" encoding="utf-8"?>
<!-- Generator: Adobe Illustrator 18.0.0, SVG Export Plug-In . SVG Version: 6.00 Build 0)  -->
<svg version="1.1" id="Layer_1" xmlns="http://www.w3.org/2000/svg" xmlns:xlink="http://www.w3.org/1999/xlink" x="0px" y="0px"
	 viewBox="0 0 16 16" enable-background="new 0 0 16 16" xml:space="preserve">
<g id="manually_entered_data_2_">
	<g>
		<path fill-rule="evenodd" clip-rule="evenodd" d="M1,8h3.76l2-2H1C0.45,6,0,6.45,0,7C0,7.55,0.45,8,1,8z M15.49,3.99
			C15.8,3.67,16,3.23,16,2.75C16,1.78,15.22,1,14.25,1c-0.48,0-0.92,0.2-1.24,0.51l-1.44,1.44l2.47,2.47L15.49,3.99z M1,4h7.76l2-2
			H1C0.45,2,0,2.45,0,3C0,3.55,0.45,4,1,4z M1,10c-0.55,0-1,0.45-1,1c0,0.48,0.35,0.86,0.8,0.96L2.76,10H1z M10.95,3.57l-6.69,6.69
			l2.47,2.47l6.69-6.69L10.95,3.57z M15.2,6.04L13.24,8H15c0.55,0,1-0.45,1-1C16,6.52,15.65,6.14,15.2,6.04z M2,15l3.86-1.39
			l-2.46-2.44L2,15z M15,10h-3.76l-2,2H15c0.55,0,1-0.45,1-1C16,10.45,15.55,10,15,10z"/>
	</g>
</g>
</svg>
