<svg xmlns="http://www.w3.org/2000/svg" xml:space="preserve" viewBox="0 0 16 16"><path fill-rule="evenodd" d="M15.99 1.13c-.02-.41-.33-.77-.78-.87C12.26-.36 9.84.13 8 1.7 6.16.13 3.74-.36.78.26.33.35.03.72.01 1.13H0v12c0 .08 0 .17.02.26.12.51.65.82 1.19.71 2.63-.55 4.59-.04 6.01 1.57.02.03.06.04.08.06.02.02.03.04.05.06.04.03.09.04.13.07.05.03.09.05.14.07.11.04.23.07.35.07h.04c.12 0 .24-.03.35-.07.05-.02.09-.05.14-.07.04-.02.09-.04.13-.07.02-.02.03-.04.05-.06.03-.02.06-.03.08-.06 1.42-1.6 3.39-2.12 6.01-1.57.54.11 1.07-.21 1.19-.71.04-.09.04-.18.04-.26l-.01-12zM7 12.99c-1.4-.83-3.07-1.14-5-.93V1.96c2.11-.28 3.75.2 5 1.46v9.57zm7-.92c-1.93-.21-3.6.1-5 .93V3.42c1.25-1.26 2.89-1.74 5-1.46v10.11z" clip-rule="evenodd"/></svg>