<svg xmlns="http://www.w3.org/2000/svg" width="16" height="16"><path fill-rule="evenodd" d="M3 3a1 1 0 1 0 0 2 1 1 0 0 0 0-2Zm3 1c0 .047-.001.094-.003.14.255.081.538.209.832.41.406.28.8.676 1.171 1.225.37-.549.765-.945 1.171-1.224a3.14 3.14 0 0 1 .832-.411 3 3 0 1 1 .77 1.87 1.038 1.038 0 0 0-.47.19c-.291.2-.752.672-1.227 1.8.475 1.128.936 1.6 1.227 1.8.183.126.336.173.47.19a3 3 0 1 1-.77 1.87 3.141 3.141 0 0 1-.832-.41c-.406-.28-.8-.676-1.171-1.225-.37.549-.765.945-1.171 1.224-.294.202-.577.33-.832.411a3 3 0 1 1-.77-1.87c.134-.017.287-.064.47-.19.291-.2.752-.672 1.227-1.8-.475-1.128-.936-1.6-1.227-1.8a1.038 1.038 0 0 0-.47-.19A3 3 0 1 1 6 4Zm6 0a1 1 0 1 1 2 0 1 1 0 0 1-2 0Zm-9 7a1 1 0 1 0 0 2 1 1 0 0 0 0-2Zm9 1a1 1 0 1 1 2 0 1 1 0 0 1-2 0Z" clip-rule="evenodd"/></svg>