<?xml version="1.0" encoding="utf-8"?>
<!-- Generator: Adobe Illustrator 18.0.0, SVG Export Plug-In . SVG Version: 6.00 Build 0)  -->
<svg version="1.1" id="Layer_1" xmlns="http://www.w3.org/2000/svg" xmlns:xlink="http://www.w3.org/1999/xlink" x="0px" y="0px"
	 viewBox="0 0 16 16" enable-background="new 0 0 16 16" xml:space="preserve">
<g id="new_map">
	<g>
		<path fill-rule="evenodd" clip-rule="evenodd" d="M14,6.82v6.32l-2.94-1.96c0,0,0,0,0,0l0,0l0,0c-0.02-0.01-0.04-0.02-0.05-0.03
			V6.22c-0.08-0.07-0.15-0.16-0.22-0.24C10.51,5.96,10.25,5.9,10,5.82v5.32c0,0-0.01,0-0.01,0.01l0,0L6,13.53V4.86
			c0,0,0.01,0,0.01-0.01l0,0l2.05-1.23C8.02,3.42,8,3.21,8,3c0-0.98,0.47-1.84,1.2-2.39l-3.67,2.2L1.56,0.17c0,0,0,0,0,0l0,0l0,0
			C1.4,0.06,1.21,0,1,0C0.45,0,0,0.45,0,1v11c0,0.35,0.18,0.65,0.45,0.83l0,0l4.49,3c0,0,0,0,0,0l0,0l0,0C5.1,15.94,5.29,16,5.5,16
			c0.19,0,0.36-0.06,0.51-0.15l0,0l4.46-2.67l3.97,2.65c0,0,0,0,0,0l0,0l0,0C14.6,15.94,14.79,16,15,16c0.55,0,1-0.45,1-1V5.82
			c-0.25,0.09-0.52,0.14-0.8,0.16C14.87,6.34,14.47,6.65,14,6.82z M5,13.46l-3-2v-8.6l2.94,1.96c0,0,0,0,0,0l0,0l0,0
			C4.96,4.84,4.98,4.85,5,4.86V13.46z M11,4h1v1c0,0.55,0.45,1,1,1s1-0.45,1-1V4h1c0.55,0,1-0.45,1-1s-0.45-1-1-1h-1V1
			c0-0.55-0.45-1-1-1s-1,0.45-1,1v1h-1c-0.55,0-1,0.45-1,1S10.45,4,11,4z"/>
	</g>
</g>
</svg>
