<svg xmlns="http://www.w3.org/2000/svg" xml:space="preserve" viewBox="0 0 16 16"><path fill-rule="evenodd" d="m15.55 3.17-4.49-3A.975.975 0 0 0 9.99.15L5.53 2.82 1.56.17A1.003 1.003 0 0 0 0 1v11c0 .35.18.65.45.83l4.49 3a.975.975 0 0 0 1.07.02l4.46-2.67 3.97 2.65A1.003 1.003 0 0 0 16 15V4c0-.35-.18-.65-.45-.83zM5 13.46l-3-2v-8.6l2.94 1.96c.02.02.04.03.06.04v8.6zm5-2.32s-.01 0-.01.01L6 13.53V4.86s.01 0 .01-.01L10 2.47v8.67zm4 1.99-2.94-1.96c-.02-.01-.04-.02-.05-.03v-8.6l3 2v8.59z" clip-rule="evenodd"/></svg>