<?xml version="1.0" encoding="utf-8"?>
<!-- Generator: Adobe Illustrator 17.1.0, SVG Export Plug-In . SVG Version: 6.00 Build 0)  -->
<!DOCTYPE svg PUBLIC "-//W3C//DTD SVG 1.1//EN" "http://www.w3.org/Graphics/SVG/1.1/DTD/svg11.dtd">
<svg version="1.1" id="Layer_1" xmlns="http://www.w3.org/2000/svg" xmlns:xlink="http://www.w3.org/1999/xlink" x="0px" y="0px"
	 viewBox="0 0 16 16" enable-background="new 0 0 16 16" xml:space="preserve">
<g id="map_3_">
	<g>
		<path fill-rule="evenodd" clip-rule="evenodd" d="M15.55,3.17L15.55,3.17l-4.49-3c0,0,0,0,0,0l0,0l0,0C10.9,0.06,10.71,0,10.5,0
			c-0.19,0-0.36,0.06-0.51,0.15l0,0L5.53,2.82L1.56,0.17c0,0,0,0,0,0l0,0l0,0C1.4,0.06,1.21,0,1,0C0.45,0,0,0.45,0,1v11
			c0,0.35,0.18,0.65,0.45,0.83l0,0l4.49,3c0,0,0,0,0,0l0,0l0,0C5.1,15.94,5.29,16,5.5,16c0.19,0,0.36-0.06,0.51-0.15l0,0l4.46-2.67
			l3.97,2.65c0,0,0,0,0,0l0,0l0,0C14.6,15.94,14.79,16,15,16c0.55,0,1-0.45,1-1V4C16,3.65,15.82,3.35,15.55,3.17z M5,13.46l-3-2
			v-8.6l2.94,1.96c0,0,0,0,0,0l0,0l0,0C4.96,4.84,4.98,4.85,5,4.86V13.46z M10,11.14c0,0-0.01,0-0.01,0.01l0,0L6,13.53V4.86
			c0,0,0.01,0,0.01-0.01l0,0L10,2.47V11.14z M14,13.13l-2.94-1.96c0,0,0,0,0,0l0,0l0,0c-0.02-0.01-0.04-0.02-0.05-0.03v-8.6l3,2
			V13.13z"/>
	</g>
</g>
</svg>
