<?xml version="1.0" encoding="utf-8"?>
<!-- Generator: Adobe Illustrator 17.1.0, SVG Export Plug-In . SVG Version: 6.00 Build 0)  -->
<!DOCTYPE svg PUBLIC "-//W3C//DTD SVG 1.1//EN" "http://www.w3.org/Graphics/SVG/1.1/DTD/svg11.dtd">
<svg version="1.1" id="Layer_1" xmlns="http://www.w3.org/2000/svg" xmlns:xlink="http://www.w3.org/1999/xlink" x="0px" y="0px"
	 viewBox="0 0 16 16" enable-background="new 0 0 16 16" xml:space="preserve">
<g id="maximize_1_">
	<g>
		<path fill-rule="evenodd" clip-rule="evenodd" d="M5.99,8.99c-0.28,0-0.53,0.11-0.71,0.29l-3.29,3.29v-1.59c0-0.55-0.45-1-1-1
			s-1,0.45-1,1v4c0,0.55,0.45,1,1,1h4c0.55,0,1-0.45,1-1s-0.45-1-1-1H3.41L6.7,10.7c0.18-0.18,0.29-0.43,0.29-0.71
			C6.99,9.44,6.54,8.99,5.99,8.99z M14.99-0.01h-4c-0.55,0-1,0.45-1,1s0.45,1,1,1h1.59L9.28,5.29C9.1,5.47,8.99,5.72,8.99,5.99
			c0,0.55,0.45,1,1,1c0.28,0,0.53-0.11,0.71-0.29l3.29-3.29v1.59c0,0.55,0.45,1,1,1s1-0.45,1-1v-4C15.99,0.44,15.54-0.01,14.99-0.01
			z"/>
	</g>
</g>
</svg>
