<?xml version="1.0" encoding="utf-8"?>
<!-- Generator: Adobe Illustrator 18.0.0, SVG Export Plug-In . SVG Version: 6.00 Build 0)  -->
<svg version="1.1" id="Layer_1" xmlns="http://www.w3.org/2000/svg" xmlns:xlink="http://www.w3.org/1999/xlink" x="0px" y="0px"
	 viewBox="0 0 16 16" enable-background="new 0 0 16 16" xml:space="preserve">
<g id="menu">
	<g>
		<path fill-rule="evenodd" clip-rule="evenodd" d="M1,4h14c0.55,0,1-0.45,1-1c0-0.55-0.45-1-1-1H1C0.45,2,0,2.45,0,3
			C0,3.55,0.45,4,1,4z M15,12H1c-0.55,0-1,0.45-1,1c0,0.55,0.45,1,1,1h14c0.55,0,1-0.45,1-1C16,12.45,15.55,12,15,12z M15,7H1
			C0.45,7,0,7.45,0,8c0,0.55,0.45,1,1,1h14c0.55,0,1-0.45,1-1C16,7.45,15.55,7,15,7z"/>
	</g>
</g>
</svg>
