<?xml version="1.0" encoding="utf-8"?>
<!-- Generator: Adobe Illustrator 17.1.0, SVG Export Plug-In . SVG Version: 6.00 Build 0)  -->
<!DOCTYPE svg PUBLIC "-//W3C//DTD SVG 1.1//EN" "http://www.w3.org/Graphics/SVG/1.1/DTD/svg11.dtd">
<svg version="1.1" id="Layer_1" xmlns="http://www.w3.org/2000/svg" xmlns:xlink="http://www.w3.org/1999/xlink" x="0px" y="0px"
	 viewBox="0 0 16 16" enable-background="new 0 0 16 16" xml:space="preserve">
<g id="hamburger_open_2_">
	<g>
		<path fill-rule="evenodd" clip-rule="evenodd" d="M9.99,11.99h-9c-0.55,0-1,0.45-1,1s0.45,1,1,1h9c0.55,0,1-0.45,1-1
			S10.54,11.99,9.99,11.99z M9.99,6.99h-9c-0.55,0-1,0.45-1,1s0.45,1,1,1h9c0.55,0,1-0.45,1-1S10.54,6.99,9.99,6.99z M9.99,1.99h-9
			c-0.55,0-1,0.45-1,1s0.45,1,1,1h9c0.55,0,1-0.45,1-1S10.54,1.99,9.99,1.99z M15.7,7.29l-2-2c-0.18-0.18-0.43-0.29-0.71-0.29
			c-0.55,0-1,0.45-1,1v4c0,0.55,0.45,1,1,1c0.28,0,0.53-0.11,0.71-0.29l2-2c0.18-0.18,0.29-0.43,0.29-0.71S15.88,7.47,15.7,7.29z"/>
	</g>
</g>
</svg>
