<?xml version="1.0" encoding="utf-8"?>
<!-- Generator: Adobe Illustrator 18.0.0, SVG Export Plug-In . SVG Version: 6.00 Build 0)  -->
<svg version="1.1" id="Layer_1" xmlns="http://www.w3.org/2000/svg" xmlns:xlink="http://www.w3.org/1999/xlink" x="0px" y="0px"
	 viewBox="0 0 16 16" enable-background="new 0 0 16 16" xml:space="preserve">
<g id="merge_into_links_5_">
	<g>
		<path fill-rule="evenodd" clip-rule="evenodd" d="M8,7C7.45,7,7,7.45,7,8c0,0.55,0.45,1,1,1s1-0.45,1-1C9,7.45,8.55,7,8,7z M8,11
			c-0.55,0-1,0.45-1,1c0,0.55,0.45,1,1,1s1-0.45,1-1C9,11.45,8.55,11,8,11z M8,3C7.45,3,7,3.45,7,4c0,0.55,0.45,1,1,1s1-0.45,1-1
			C9,3.45,8.55,3,8,3z M14,6c-0.93,0-1.71,0.64-1.93,1.5H11V3c0-1.66-1.34-3-3-3S5,1.34,5,3v4.5H3.93C3.71,6.64,2.93,6,2,6
			C0.9,6,0,6.9,0,8c0,1.1,0.9,2,2,2c0.93,0,1.71-0.64,1.93-1.5H5V13c0,1.66,1.34,3,3,3s3-1.34,3-3V8.5h1.07
			c0.22,0.86,1,1.5,1.93,1.5c1.1,0,2-0.9,2-2C16,6.9,15.1,6,14,6z M10,13c0,1.1-0.9,2-2,2s-2-0.9-2-2V3c0-1.1,0.9-2,2-2s2,0.9,2,2
			V13z"/>
	</g>
</g>
</svg>
