<?xml version="1.0" encoding="utf-8"?>
<!-- Generator: Adobe Illustrator 18.0.0, SVG Export Plug-In . SVG Version: 6.00 Build 0)  -->
<svg version="1.1" id="Layer_1" xmlns="http://www.w3.org/2000/svg" xmlns:xlink="http://www.w3.org/1999/xlink" x="0px" y="0px"
	 viewBox="0 0 16 16" enable-background="new 0 0 16 16" xml:space="preserve">
<g id="merge_columns_1_">
	<g>
		<path fill-rule="evenodd" clip-rule="evenodd" d="M5.71,5.29C5.53,5.11,5.28,5,5,5C4.45,5,4,5.45,4,6c0,0.28,0.11,0.53,0.29,0.71
			L4.59,7H2V2h3v1.51c0.52,0.06,0.99,0.29,1.34,0.65l0,0L7,4.82V1c0-0.55-0.45-1-1-1H1C0.45,0,0,0.45,0,1v14c0,0.55,0.45,1,1,1h5
			c0.55,0,1-0.45,1-1v-3.82l-0.66,0.66l0,0C5.99,12.19,5.52,12.43,5,12.49V14H2V9h2.59L4.29,9.29C4.11,9.47,4,9.72,4,10
			c0,0.55,0.45,1,1,1c0.28,0,0.53-0.11,0.71-0.29l2-2C7.89,8.53,8,8.28,8,8c0-0.28-0.11-0.53-0.29-0.71L5.71,5.29z M15,0h-5
			C9.45,0,9,0.45,9,1v3.82l0.66-0.66l0,0c0.35-0.35,0.82-0.59,1.34-0.65V2h3v5h-2.59l0.29-0.29C11.89,6.53,12,6.28,12,6
			c0-0.55-0.45-1-1-1c-0.28,0-0.53,0.11-0.71,0.29l-2,2C8.11,7.47,8,7.72,8,8c0,0.28,0.11,0.53,0.29,0.71l2,2
			C10.47,10.89,10.72,11,11,11c0.55,0,1-0.45,1-1c0-0.28-0.11-0.53-0.29-0.71L11.41,9H14v5h-3v-1.51c-0.52-0.06-0.99-0.29-1.34-0.65
			l0,0L9,11.18V15c0,0.55,0.45,1,1,1h5c0.55,0,1-0.45,1-1V1C16,0.45,15.55,0,15,0z"/>
	</g>
</g>
</svg>
