<svg xmlns="http://www.w3.org/2000/svg" xml:space="preserve" viewBox="0 0 16 16"><path fill-rule="evenodd" d="M8 7c-.55 0-1 .45-1 1s.45 1 1 1 1-.45 1-1-.45-1-1-1zm0 4c-.55 0-1 .45-1 1s.45 1 1 1 1-.45 1-1-.45-1-1-1zm0-8c-.55 0-1 .45-1 1s.45 1 1 1 1-.45 1-1-.45-1-1-1zm6 3c-.93 0-1.71.64-1.93 1.5H11V3c0-1.66-1.34-3-3-3S5 1.34 5 3v4.5H3.93C3.71 6.64 2.93 6 2 6 .9 6 0 6.9 0 8s.9 2 2 2c.93 0 1.71-.64 1.93-1.5H5V13c0 1.66 1.34 3 3 3s3-1.34 3-3V8.5h1.07c.22.86 1 1.5 1.93 1.5 1.1 0 2-.9 2-2s-.9-2-2-2zm-4 7c0 1.1-.9 2-2 2s-2-.9-2-2V3c0-1.1.9-2 2-2s2 .9 2 2v10z" clip-rule="evenodd"/></svg>