<?xml version="1.0" encoding="utf-8"?>
<!-- Generator: Adobe Illustrator 18.0.0, SVG Export Plug-In . SVG Version: 6.00 Build 0)  -->
<svg version="1.1" id="Layer_1" xmlns="http://www.w3.org/2000/svg" xmlns:xlink="http://www.w3.org/1999/xlink" x="0px" y="0px"
	 viewBox="0 0 16 16" enable-background="new 0 0 16 16" xml:space="preserve">
<g id="mobile_phone_2_">
	<g>
		<path fill-rule="evenodd" clip-rule="evenodd" d="M12,0H4C3.45,0,3,0.45,3,1v14c0,0.55,0.45,1,1,1h8c0.55,0,1-0.45,1-1V1
			C13,0.45,12.55,0,12,0z M8,15c-0.55,0-1-0.45-1-1c0-0.55,0.45-1,1-1s1,0.45,1,1C9,14.55,8.55,15,8,15z M11,12H5V3h6V12z"/>
	</g>
</g>
</svg>
