<?xml version="1.0" encoding="utf-8"?>
<!-- Generator: Adobe Illustrator 18.1.0, SVG Export Plug-In . SVG Version: 6.00 Build 0)  -->
<svg version="1.1" id="Layer_1" xmlns="http://www.w3.org/2000/svg" xmlns:xlink="http://www.w3.org/1999/xlink" x="0px" y="0px"
	 viewBox="0 0 16 16" enable-background="new 0 0 16 16" xml:space="preserve">
<g id="move_2_">
	<g>
		<path fill-rule="evenodd" clip-rule="evenodd" d="M15.71,7.29l-2-2C13.53,5.11,13.28,5,13,5c-0.55,0-1,0.45-1,1
			c0,0.28,0.11,0.53,0.29,0.71L12.59,7H9V3.41l0.29,0.29C9.47,3.89,9.72,4,10,4c0.55,0,1-0.45,1-1c0-0.28-0.11-0.53-0.29-0.71l-2-2
			C8.53,0.11,8.28,0,8,0S7.47,0.11,7.29,0.29l-2,2C5.11,2.47,5,2.72,5,3c0,0.55,0.45,1,1,1c0.28,0,0.53-0.11,0.71-0.29L7,3.41V7
			H3.41l0.29-0.29C3.89,6.53,4,6.28,4,6c0-0.55-0.45-1-1-1C2.72,5,2.47,5.11,2.29,5.29l-2,2C0.11,7.47,0,7.72,0,8
			c0,0.28,0.11,0.53,0.29,0.71l2,2C2.47,10.89,2.72,11,3,11c0.55,0,1-0.45,1-1c0-0.28-0.11-0.53-0.29-0.71L3.41,9H7v3.59l-0.29-0.29
			C6.53,12.11,6.28,12,6,12c-0.55,0-1,0.45-1,1c0,0.28,0.11,0.53,0.29,0.71l2,2C7.47,15.89,7.72,16,8,16s0.53-0.11,0.71-0.29l2-2
			C10.89,13.53,11,13.28,11,13c0-0.55-0.45-1-1-1c-0.28,0-0.53,0.11-0.71,0.29L9,12.59V9h3.59l-0.29,0.29C12.11,9.47,12,9.72,12,10
			c0,0.55,0.45,1,1,1c0.28,0,0.53-0.11,0.71-0.29l2-2C15.89,8.53,16,8.28,16,8C16,7.72,15.89,7.47,15.71,7.29z"/>
	</g>
</g>
</svg>
