<svg xmlns="http://www.w3.org/2000/svg" xml:space="preserve" viewBox="0 0 16 16"><path fill-rule="evenodd" d="m15.71 7.29-2-2a1.003 1.003 0 0 0-1.42 1.42l.3.29H9V3.41l.29.29c.18.19.43.3.71.3a1.003 1.003 0 0 0 .71-1.71l-2-2C8.53.11 8.28 0 8 0s-.53.11-.71.29l-2 2a1.003 1.003 0 0 0 1.42 1.42l.29-.3V7H3.41l.29-.29c.19-.18.3-.43.3-.71a1.003 1.003 0 0 0-1.71-.71l-2 2C.11 7.47 0 7.72 0 8c0 .28.11.53.29.71l2 2a1.003 1.003 0 0 0 1.42-1.42L3.41 9H7v3.59l-.29-.29A.965.965 0 0 0 6 12a1.003 1.003 0 0 0-.71 1.71l2 2c.18.18.43.29.71.29s.53-.11.71-.29l2-2a1.003 1.003 0 0 0-1.42-1.42l-.29.3V9h3.59l-.29.29c-.19.18-.3.43-.3.71a1.003 1.003 0 0 0 1.71.71l2-2c.18-.18.29-.43.29-.71 0-.28-.11-.53-.29-.71z" clip-rule="evenodd"/></svg>