<svg xmlns="http://www.w3.org/2000/svg" xml:space="preserve" viewBox="0 0 16 16"><path fill-rule="evenodd" d="M15 0H1C.45 0 0 .45 0 1v14c0 .55.45 1 1 1h14c.55 0 1-.45 1-1V1c0-.55-.45-1-1-1zm-1 14h-.15c-.03-.09-.04-.16-.08-.25-.34-.79-2.01-1.31-3.12-1.8-1.11-.49-.96-.79-1-1.2-.01-.06-.01-.12-.01-.18.38-.34.69-.8.89-1.33 0 0 .01-.03.01-.04.04-.12.08-.24.11-.36.25-.05.4-.33.46-.59.06-.1.18-.36.15-.65-.04-.37-.19-.55-.35-.62v-.06c0-.48-.04-1.16-.13-1.61-.02-.12-.05-.25-.08-.37-.16-.55-.51-1.05-.96-1.39C9.26 3.19 8.6 3 8 3c-.59 0-1.26.19-1.73.55-.45.35-.8.84-.96 1.39-.04.13-.06.25-.08.38-.09.45-.13 1.13-.13 1.61v.06c-.18.06-.33.24-.37.62-.03.29.09.54.15.65.06.26.21.54.47.59.03.12.07.25.11.36 0 .01.01.02.01.02v.01c.21.54.53 1.01.92 1.35 0 .05-.01.11-.01.16-.04.41.08.7-1.03 1.2-1.11.49-2.77 1.01-3.12 1.8-.04.09-.05.16-.08.25H2V2h12v12z" clip-rule="evenodd"/></svg>