<?xml version="1.0" encoding="utf-8"?>
<!-- Generator: Adobe Illustrator 17.1.0, SVG Export Plug-In . SVG Version: 6.00 Build 0)  -->
<!DOCTYPE svg PUBLIC "-//W3C//DTD SVG 1.1//EN" "http://www.w3.org/Graphics/SVG/1.1/DTD/svg11.dtd">
<svg version="1.1" id="Layer_1" xmlns="http://www.w3.org/2000/svg" xmlns:xlink="http://www.w3.org/1999/xlink" x="0px" y="0px"
	 viewBox="0 0 16 16" enable-background="new 0 0 16 16" xml:space="preserve">
<g id="Rounded_Rectangle_1_copy_2">
	<g>
		<path fill-rule="evenodd" clip-rule="evenodd" d="M12,3.98H4c-0.55,0-1,0.45-1,1v1h8v5h1c0.55,0,1-0.45,1-1v-5
			C13,4.43,12.55,3.98,12,3.98z M15,0.98H7c-0.55,0-1,0.45-1,1v1h8v5h1c0.55,0,1-0.45,1-1v-5C16,1.43,15.55,0.98,15,0.98z M9,6.98H1
			c-0.55,0-1,0.45-1,1v5c0,0.55,0.45,1,1,1h8c0.55,0,1-0.45,1-1v-5C10,7.43,9.55,6.98,9,6.98z M8,11.98H2v-3h6V11.98z"/>
	</g>
</g>
</svg>
