<?xml version="1.0" encoding="utf-8"?>
<!-- Generator: Adobe Illustrator 18.1.0, SVG Export Plug-In . SVG Version: 6.00 Build 0)  -->
<svg version="1.1" id="Layer_1" xmlns="http://www.w3.org/2000/svg" xmlns:xlink="http://www.w3.org/1999/xlink" x="0px" y="0px"
	 viewBox="0 0 16 16" enable-background="new 0 0 16 16" xml:space="preserve">
<g id="music">
	<g>
		<path fill-rule="evenodd" clip-rule="evenodd" d="M15,0c-0.07,0-0.13,0.03-0.19,0.04l0-0.02l-10,2l0,0.02C4.35,2.13,4,2.52,4,3
			v9.12C3.69,12.05,3.35,12,3,12c-1.66,0-3,0.9-3,2c0,1.1,1.34,2,3,2s3-0.9,3-2V6.32l8-1.6v5.4C13.69,10.05,13.35,10,13,10
			c-1.66,0-3,0.9-3,2s1.34,2,3,2s3-0.9,3-2V1C16,0.45,15.55,0,15,0z"/>
	</g>
</g>
</svg>
