<?xml version="1.0" encoding="utf-8"?>
<!-- Generator: Adobe Illustrator 17.1.0, SVG Export Plug-In . SVG Version: 6.00 Build 0)  -->
<!DOCTYPE svg PUBLIC "-//W3C//DTD SVG 1.1//EN" "http://www.w3.org/Graphics/SVG/1.1/DTD/svg11.dtd">
<svg version="1.1" id="Layer_1" xmlns:sketch="http://www.bohemiancoding.com/sketch/ns"
	 xmlns="http://www.w3.org/2000/svg" xmlns:xlink="http://www.w3.org/1999/xlink" x="0px" y="0px" viewBox="0 0 16 16"
	 enable-background="new 0 0 16 16" xml:space="preserve">
<title>Shape</title>
<desc>Created with Sketch.</desc>
<g id="Page-1" sketch:type="MSPage">
	<g id="Artboard-1" sketch:type="MSArtboardGroup">
		<path id="Shape" sketch:type="MSShapeGroup" d="M8,4c0,0.6,0.4,1,1,1h2v2c0,0.6,0.4,1,1,1s1-0.4,1-1V5h2c0.6,0,1-0.4,1-1
			s-0.4-1-1-1h-2V1c0-0.6-0.4-1-1-1s-1,0.4-1,1v2H9C8.4,3,8,3.5,8,4L8,4z M14.5,6.5V7c0,1.4-1.1,2.5-2.5,2.5S9.5,8.4,9.5,7V6.5H9
			C7.6,6.5,6.5,5.4,6.5,4S7.6,1.5,9,1.5h0.5V1c0-0.3,0.1-0.6,0.1-0.8C9.1,0.1,8.6,0,8,0C3.6,0,0,3.6,0,8s3.6,8,8,8s8-3.6,8-8
			c0-0.6-0.1-1.3-0.2-1.9C15.4,6.4,15,6.5,14.5,6.5L14.5,6.5z"/>
	</g>
</g>
</svg>
