<?xml version="1.0" encoding="utf-8"?>
<!-- Generator: Adobe Illustrator 18.1.0, SVG Export Plug-In . SVG Version: 6.00 Build 0)  -->
<svg version="1.1" id="Layer_1" xmlns="http://www.w3.org/2000/svg" xmlns:xlink="http://www.w3.org/1999/xlink" x="0px" y="0px"
	 viewBox="0 0 16 16" enable-background="new 0 0 16 16" xml:space="preserve">
<g id="new_link_3_">
	<g>
		<path fill-rule="evenodd" clip-rule="evenodd" d="M15,3h-1V2c0-0.55-0.45-1-1-1s-1,0.45-1,1v1h-1c-0.55,0-1,0.45-1,1
			c0,0.55,0.45,1,1,1h1v1c0,0.55,0.45,1,1,1s1-0.45,1-1V5h1c0.55,0,1-0.45,1-1C16,3.45,15.55,3,15,3z M11.5,9
			c-1.21,0-2.22,0.86-2.45,2h-4.1C4.72,9.86,3.71,9,2.5,9C1.12,9,0,10.12,0,11.5C0,12.88,1.12,14,2.5,14c1.21,0,2.22-0.86,2.45-2
			h4.1c0.23,1.14,1.24,2,2.45,2c1.38,0,2.5-1.12,2.5-2.5C14,10.12,12.88,9,11.5,9z"/>
	</g>
</g>
</svg>
