<?xml version="1.0" encoding="utf-8"?>
<!-- Generator: Adobe Illustrator 17.1.0, SVG Export Plug-In . SVG Version: 6.00 Build 0)  -->
<!DOCTYPE svg PUBLIC "-//W3C//DTD SVG 1.1//EN" "http://www.w3.org/Graphics/SVG/1.1/DTD/svg11.dtd">
<svg version="1.1" id="Layer_1" xmlns="http://www.w3.org/2000/svg" xmlns:xlink="http://www.w3.org/1999/xlink" x="0px" y="0px"
	 viewBox="0 0 16 16" enable-background="new 0 0 16 16" xml:space="preserve">
<g id="new_text_box_4_">
	<g>
		<path fill-rule="evenodd" clip-rule="evenodd" d="M5,6.5C5,6.78,5.22,7,5.5,7H7v3.5C7,10.78,7.22,11,7.5,11S8,10.78,8,10.5V7h1.5
			C9.78,7,10,6.78,10,6.5C10,6.22,9.78,6,9.5,6h-4C5.22,6,5,6.22,5,6.5z M15,2h-1V1c0-0.55-0.45-1-1-1s-1,0.45-1,1v1h-1
			c-0.55,0-1,0.45-1,1c0,0.55,0.45,1,1,1h1v1c0,0.55,0.45,1,1,1s1-0.45,1-1V4h1c0.55,0,1-0.45,1-1C16,2.45,15.55,2,15,2z M13,7
			c-0.55,0-1,0.45-1,1v5H3V4h5c0.55,0,1-0.45,1-1c0-0.55-0.45-1-1-1H2C1.45,2,1,2.45,1,3v11c0,0.55,0.45,1,1,1h11c0.55,0,1-0.45,1-1
			V8C14,7.45,13.55,7,13,7z"/>
	</g>
</g>
</svg>
