<svg xmlns="http://www.w3.org/2000/svg" xml:space="preserve" viewBox="0 0 16 16"><path fill-rule="evenodd" d="M5 6.5c0 .28.22.5.5.5H7v3.5c0 .28.22.5.5.5s.5-.22.5-.5V7h1.5c.28 0 .5-.22.5-.5S9.78 6 9.5 6h-4c-.28 0-.5.22-.5.5zM15 2h-1V1c0-.55-.45-1-1-1s-1 .45-1 1v1h-1c-.55 0-1 .45-1 1s.45 1 1 1h1v1c0 .55.45 1 1 1s1-.45 1-1V4h1c.55 0 1-.45 1-1s-.45-1-1-1zm-2 5c-.55 0-1 .45-1 1v5H3V4h5c.55 0 1-.45 1-1s-.45-1-1-1H2c-.55 0-1 .45-1 1v11c0 .55.45 1 1 1h11c.55 0 1-.45 1-1V8c0-.55-.45-1-1-1z" clip-rule="evenodd"/></svg>