<svg xmlns="http://www.w3.org/2000/svg" xml:space="preserve" viewBox="0 0 16 16"><path fill-rule="evenodd" d="m9.82 11.66 2.48-2.87c.12-.2.13-.37.04-.53-.11-.19-.3-.26-.52-.26h-1.29c-.27 0-.49.13-.63.34L8.44 9.9 6.95 8a.482.482 0 0 0-.08-.1L5.82 6.55c.57-.24 1.04-.57 1.42-1.01.49-.57.74-1.27.74-2.08 0-.51-.1-.99-.32-1.42-.21-.43-.51-.8-.89-1.11A4.1 4.1 0 0 0 5.42.24C4.91.08 4.34 0 3.72 0H.61C.26 0 0 .23 0 .56v9.89c0 .33.26.55.61.55h.8c.36 0 .61-.23.61-.56V6.99H3.3l3.73 4.74-2.71 3.48c-.12.2-.13.37-.04.53.11.19.3.26.52.26h1.27c.27 0 .51-.12.64-.34l1.69-2.15 1.66 2.14c.12.21.34.35.62.35h1.43c.2 0 .39-.08.5-.25.12-.18.09-.38-.02-.55l-2.77-3.54zM4.18 5H1.99V2.02h2.19c.62 0 1.08.13 1.38.37.29.22.44.62.44 1.08 0 .45-.15.94-.44 1.17-.31.23-.76.36-1.38.36zM15 2h-1V1c0-.55-.45-1-1-1s-1 .45-1 1v1h-1c-.55 0-1 .45-1 1s.45 1 1 1h1v1c0 .55.45 1 1 1s1-.45 1-1V4h1c.55 0 1-.45 1-1s-.45-1-1-1zM9.99 3.01c0 .02.01.04.01.06V2.95c0 .02-.01.04-.01.06z" clip-rule="evenodd"/></svg>