<?xml version="1.0" encoding="utf-8"?>
<!-- Generator: Adobe Illustrator 18.0.0, SVG Export Plug-In . SVG Version: 6.00 Build 0)  -->
<svg version="1.1" id="Layer_1" xmlns="http://www.w3.org/2000/svg" xmlns:xlink="http://www.w3.org/1999/xlink" x="0px" y="0px"
	 viewBox="0 0 16 16" enable-background="new 0 0 16 16" xml:space="preserve">
<g id="new_prescription_2_">
	<g>
		<path fill-rule="evenodd" clip-rule="evenodd" d="M9.82,11.66l2.48-2.87c0.12-0.2,0.13-0.37,0.04-0.53
			c-0.11-0.19-0.3-0.26-0.52-0.26h-1.29c-0.27,0-0.49,0.13-0.63,0.34L8.44,9.9L6.95,8C6.94,7.98,6.91,7.94,6.87,7.9L5.82,6.55
			c0.57-0.24,1.04-0.57,1.42-1.01c0.49-0.57,0.74-1.27,0.74-2.08c0-0.51-0.1-0.99-0.32-1.42c-0.21-0.43-0.51-0.8-0.89-1.11
			C6.39,0.63,5.94,0.4,5.42,0.24C4.91,0.08,4.34,0,3.72,0H0.61C0.26,0,0,0.23,0,0.56v9.89C0,10.78,0.26,11,0.61,11h0.8
			c0.36,0,0.61-0.23,0.61-0.56V6.99H3.3l3.73,4.74l-2.71,3.48c-0.12,0.2-0.13,0.37-0.04,0.53C4.39,15.93,4.58,16,4.8,16h1.27
			c0.27,0,0.51-0.12,0.64-0.34l1.69-2.15l1.66,2.14C10.18,15.86,10.4,16,10.68,16h1.43c0.2,0,0.39-0.08,0.5-0.25
			c0.12-0.18,0.09-0.38-0.02-0.55L9.82,11.66z M4.18,5H1.99V2.02h2.19c0.62,0,1.08,0.13,1.38,0.37C5.85,2.61,6,3.01,6,3.47
			c0,0.45-0.15,0.94-0.44,1.17C5.25,4.87,4.8,5,4.18,5z M15,2h-1V1c0-0.55-0.45-1-1-1s-1,0.45-1,1v1h-1c-0.55,0-1,0.45-1,1
			c0,0.55,0.45,1,1,1h1v1c0,0.55,0.45,1,1,1s1-0.45,1-1V4h1c0.55,0,1-0.45,1-1C16,2.45,15.55,2,15,2z M9.99,3.01
			C9.99,3.03,10,3.05,10,3.07V3V2.95C10,2.97,9.99,2.99,9.99,3.01z"/>
	</g>
</g>
</svg>
