<?xml version="1.0" encoding="utf-8"?>
<!-- Generator: Adobe Illustrator 18.0.0, SVG Export Plug-In . SVG Version: 6.00 Build 0)  -->
<svg version="1.1" id="Layer_1" xmlns="http://www.w3.org/2000/svg" xmlns:xlink="http://www.w3.org/1999/xlink" x="0px" y="0px"
	 viewBox="0 0 16 16" enable-background="new 0 0 16 16" xml:space="preserve">
<g id="new_grid_item">
	<g>
		<path fill-rule="evenodd" clip-rule="evenodd" d="M6,0H1C0.45,0,0,0.45,0,1v5c0,0.55,0.45,1,1,1h5c0.55,0,1-0.45,1-1V1
			C7,0.45,6.55,0,6,0z M11,14c0-0.55-0.45-1-1-1s-1,0.45-1,1v1c0,0.55,0.45,1,1,1h1c0.55,0,1-0.45,1-1C12,14.45,11.55,14,11,14z
			 M6,9H1c-0.55,0-1,0.45-1,1v5c0,0.55,0.45,1,1,1h5c0.55,0,1-0.45,1-1v-5C7,9.45,6.55,9,6,9z M15,13c-0.55,0-1,0.45-1,1
			c-0.55,0-1,0.45-1,1c0,0.55,0.45,1,1,1h1c0.55,0,1-0.45,1-1v-1C16,13.45,15.55,13,15,13z M11,9h-1c-0.55,0-1,0.45-1,1v1
			c0,0.55,0.45,1,1,1s1-0.45,1-1c0.55,0,1-0.45,1-1C12,9.45,11.55,9,11,9z M15,0h-5C9.45,0,9,0.45,9,1v5c0,0.55,0.45,1,1,1h5
			c0.55,0,1-0.45,1-1V1C16,0.45,15.55,0,15,0z M15,9h-1c-0.55,0-1,0.45-1,1c0,0.55,0.45,1,1,1c0,0.55,0.45,1,1,1s1-0.45,1-1v-1
			C16,9.45,15.55,9,15,9z"/>
	</g>
</g>
</svg>
