<?xml version="1.0" encoding="utf-8"?>
<!-- Generator: Adobe Illustrator 17.1.0, SVG Export Plug-In . SVG Version: 6.00 Build 0)  -->
<!DOCTYPE svg PUBLIC "-//W3C//DTD SVG 1.1//EN" "http://www.w3.org/Graphics/SVG/1.1/DTD/svg11.dtd">
<svg version="1.1" id="Layer_1" xmlns="http://www.w3.org/2000/svg" xmlns:xlink="http://www.w3.org/1999/xlink" x="0px" y="0px"
	 viewBox="0 0 16 16" enable-background="new 0 0 16 16" xml:space="preserve">
<g id="ninja_2_">
	<g>
		<path fill-rule="evenodd" clip-rule="evenodd" d="M16,5c0,0-2.52,2.11-4.96,1.99C11.03,4.89,10.39,0.23,5,0
			c0,0,2.11,2.54,1.96,4.99C4.86,5.01,0.23,5.65,0,11c0,0,2.56-2.12,5.02-1.95C5.04,11.16,5.69,15.77,11,16c0,0-2.09-2.54-1.94-4.99
			C11.17,10.99,15.77,10.33,16,5z M8,9.5C7.17,9.5,6.5,8.83,6.5,8S7.17,6.5,8,6.5S9.5,7.17,9.5,8S8.83,9.5,8,9.5z"/>
	</g>
</g>
</svg>
