<?xml version="1.0" encoding="UTF-8"?>
<svg width="16px" height="16px" viewBox="0 0 16 16" version="1.1" xmlns="http://www.w3.org/2000/svg" xmlns:xlink="http://www.w3.org/1999/xlink">
    <!-- Generator: Sketch 54.1 (76490) - https://sketchapp.com -->
    <title>not-equal-to</title>
    <desc>Created with Sketch.</desc>
    <g id="not-equal-to" stroke="none" stroke-width="1" fill="none" fill-rule="evenodd">
        <g transform="translate(2.000000, 2.000000)" fill="#000000" fill-rule="nonzero" id="Combined-Shape">
            <path d="M5.5801961,3 L6.01941932,0.80388386 C6.12773127,0.26232411 6.65455638,-0.08889263 7.19611614,0.01941932 C7.73767589,0.12773127 8.0888926,0.65455638 7.98058068,1.19611614 L7.6198039,3 L11,3 C11.5522847,3 12,3.44771525 12,4 C12,4.55228475 11.5522847,5 11,5 L7.2198039,5 L6.8198039,7 L11,7 C11.5522847,7 12,7.44771525 12,8 C12,8.5522847 11.5522847,9 11,9 L6.4198039,9 L5.98058068,11.1961161 C5.87226873,11.7376759 5.34544362,12.0888926 4.80388386,11.9805807 C4.26232411,11.8722687 3.91110737,11.3454436 4.01941932,10.8038839 L4.3801961,9 L1,9 C0.44771525,9 0,8.5522847 0,8 C0,7.44771525 0.44771525,7 1,7 L4.7801961,7 L5.1801961,5 L1,5 C0.44771525,5 0,4.55228475 0,4 C0,3.44771525 0.44771525,3 1,3 L5.5801961,3 Z"></path>
        </g>
    </g>
</svg>