<?xml version="1.0" encoding="utf-8"?>
<!-- Generator: Adobe Illustrator 18.0.0, SVG Export Plug-In . SVG Version: 6.00 Build 0)  -->
<svg version="1.1" id="Layer_1" xmlns="http://www.w3.org/2000/svg" xmlns:xlink="http://www.w3.org/1999/xlink" x="0px" y="0px"
	 viewBox="0 0 16 16" enable-background="new 0 0 16 16" xml:space="preserve">
<g id="notification">
	<g>
		<path fill-rule="evenodd" clip-rule="evenodd" d="M8,16c1.1,0,2-0.9,2-2H6C6,15.1,6.9,16,8,16z M14,11c-0.55,0-1-0.45-1-1V6
			c0-2.43-1.73-4.45-4.02-4.9C8.98,1.06,9,1.04,9,1c0-0.55-0.45-1-1-1S7,0.45,7,1c0,0.04,0.02,0.06,0.02,0.1C4.73,1.55,3,3.57,3,6v4
			c0,0.55-0.45,1-1,1s-1,0.45-1,1c0,0.55,0.45,1,1,1h12c0.55,0,1-0.45,1-1C15,11.45,14.55,11,14,11z"/>
	</g>
</g>
</svg>
