<?xml version="1.0" encoding="UTF-8"?>
<svg width="16px" height="16px" viewBox="0 0 16 16" version="1.1" xmlns="http://www.w3.org/2000/svg" xmlns:xlink="http://www.w3.org/1999/xlink">
    <!-- Generator: Sketch 50.2 (55047) - http://www.bohemiancoding.com/sketch -->
    <title>Artboard</title>
    <desc>Created with Sketch.</desc>
    <defs></defs>
    <g id="Artboard" stroke="none" stroke-width="1" fill="none" fill-rule="evenodd">
        <path d="M8,16 C9.1,16 10,15.1 10,14 L6,14 C6,15.1 6.9,16 8,16 Z M11.3988293,2.3327436 L10.9863452,2.7452277 C10.4444602,2.26362341 9.73941685,1.99 9,1.99 C7.35007948,1.99 6,3.33076859 6,4.98 C6,5.77905591 6.3195427,6.53796982 6.87578644,7.09421356 L8.87803609,9.08646082 C9.43407546,9.64131786 10.1920208,9.96 10.99,9.96 C11.7402238,9.96 12.455062,9.67831985 13,9.18352254 L13,10 C13,10.55 13.45,11 14,11 C14.55,11 15,11.45 15,12 C15,12.55 14.55,13 14,13 L2,13 C1.45,13 1,12.55 1,12 C1,11.45 1.45,11 2,11 C2.55,11 3,10.55 3,10 L3,6 C3,3.57 4.73,1.55 7.02,1.1 C7.02,1.06 7,1.04 7,1 C7,0.45 7.45,0 8,0 C8.55,0 9,0.45 9,1 C9,1.04 8.98,1.06 8.98,1.1 C9.90270511,1.2813176 10.7344937,1.71752622 11.3988293,2.3327436 Z M10.29,7.67 L8.29,5.68 C8.11,5.5 8,5.25 8,4.98 C8,4.44 8.45,3.99 9,3.99 C9.27,3.99 9.52,4.1 9.7,4.28 L10.99,5.57 L14.27,2.29 C14.45,2.11 14.69,2 14.97,2 C15.52,2 15.97,2.44 15.97,2.99 C15.97,3.27 15.86,3.51 15.67,3.69 L11.69,7.67 C11.51,7.85 11.26,7.96 10.99,7.96 C10.72,7.96 10.47,7.85 10.29,7.67 Z" id="Shape" fill="#000000" fill-rule="nonzero"></path>
    </g>
</svg>