<svg xmlns="http://www.w3.org/2000/svg" xmlns:xlink="http://www.w3.org/1999/xlink" width="16" height="16"><defs><path id="a" d="M9 14c0 1.1-.9 2-2 2s-2-.9-2-2ZM7 0c.404 0 .755.243.912.59L7.9.6c-.7.6-.9 1.36-.9 1.9 0 .8.267 1.433.8 1.9-.533.6-.795 1.222-.784 1.867l.004.358A2.8 2.8 0 0 0 9.82 9.4L12 9.399V10c0 .51.388.935.884.993L13 11c.55 0 1 .45 1 1s-.45 1-1 1H1c-.55 0-1-.45-1-1s.45-1 1-1 1-.45 1-1V6c0-2.43 1.73-4.45 4.02-4.9L6 1c0-.55.45-1 1-1Z"/></defs><g fill-rule="evenodd" transform="translate(1)"><use xlink:href="#a"/><path fill-rule="nonzero" d="M13 6.702a.632.632 0 0 0-.632-.632h-1.743l2.208-2.734A.75.75 0 0 0 13 2.864v-.3A.565.565 0 0 0 12.435 2H9.561a.561.561 0 1 0 0 1.123h1.814L9.221 5.795A1 1 0 0 0 9 6.423v.279c0 .349.283.631.632.631h2.736A.632.632 0 0 0 13 6.702Z"/></g></svg>