<svg xmlns="http://www.w3.org/2000/svg" xml:space="preserve" viewBox="0 0 16 16"><path fill-rule="evenodd" d="M2.76 7h1.26V0h-.94c-.04.21-.12.39-.25.54-.13.15-.29.27-.48.36-.18.09-.39.16-.62.2-.23.04-.46.06-.71.06v.9h1.74V7zm-.59 7.17c.18-.12.37-.25.58-.37a10.763 10.763 0 0 0 1.24-.83c.2-.16.37-.33.52-.51.15-.19.28-.39.37-.61.09-.22.14-.47.14-.74 0-.22-.04-.45-.12-.7-.08-.26-.21-.49-.4-.69-.18-.21-.43-.39-.72-.52-.3-.14-.68-.21-1.12-.21-.41 0-.77.07-1.08.2-.32.14-.58.32-.8.56-.22.23-.38.51-.49.84-.11.32-.16.67-.16 1.05h1.19c.01-.24.03-.47.08-.67.05-.21.11-.39.21-.54.09-.15.22-.27.38-.36.16-.09.35-.13.59-.13.26 0 .47.04.63.12.16.08.29.18.38.3.09.12.15.25.18.39s.05.27.05.4c-.01.27-.08.5-.22.71-.14.21-.32.4-.53.57-.22.18-.45.34-.71.49-.26.15-.51.31-.74.47-.5.31-.89.68-1.17 1.11-.3.41-.44.91-.45 1.48h5v-1H1.43c.05-.15.14-.29.27-.43.14-.13.29-.26.47-.38zM15.01 1.99h-7c-.55 0-1 .45-1 1v1c0 .55.45 1 1 1h7c.55 0 1-.45 1-1v-1c0-.55-.44-1-1-1zm0 9h-7c-.55 0-1 .45-1 1v1c0 .55.45 1 1 1h7c.55 0 1-.45 1-1v-1c0-.55-.44-1-1-1z" clip-rule="evenodd"/></svg>