<?xml version="1.0" encoding="utf-8"?>
<!-- Generator: Adobe Illustrator 18.0.0, SVG Export Plug-In . SVG Version: 6.00 Build 0)  -->
<svg version="1.1" id="Layer_1" xmlns="http://www.w3.org/2000/svg" xmlns:xlink="http://www.w3.org/1999/xlink" x="0px" y="0px"
	 viewBox="0 0 16 16" enable-background="new 0 0 16 16" xml:space="preserve">
<g id="numbered_list">
	<g>
		<path fill-rule="evenodd" clip-rule="evenodd" d="M2.76,7h1.26V0H3.08C3.04,0.21,2.96,0.39,2.83,0.54C2.7,0.69,2.54,0.81,2.35,0.9
			C2.17,0.99,1.96,1.06,1.73,1.1C1.5,1.14,1.27,1.16,1.02,1.16v0.9h1.74V7z M2.17,14.17c0.18-0.12,0.37-0.25,0.58-0.37
			c0.21-0.12,0.42-0.25,0.63-0.39c0.21-0.14,0.41-0.28,0.61-0.44c0.2-0.16,0.37-0.33,0.52-0.51c0.15-0.19,0.28-0.39,0.37-0.61
			c0.09-0.22,0.14-0.47,0.14-0.74c0-0.22-0.04-0.45-0.12-0.7C4.82,10.15,4.69,9.92,4.5,9.72C4.32,9.51,4.07,9.33,3.78,9.2
			C3.48,9.06,3.1,8.99,2.66,8.99c-0.41,0-0.77,0.07-1.08,0.2C1.26,9.33,1,9.51,0.78,9.75c-0.22,0.23-0.38,0.51-0.49,0.84
			c-0.11,0.32-0.16,0.67-0.16,1.05h1.19c0.01-0.24,0.03-0.47,0.08-0.67c0.05-0.21,0.11-0.39,0.21-0.54
			c0.09-0.15,0.22-0.27,0.38-0.36c0.16-0.09,0.35-0.13,0.59-0.13c0.26,0,0.47,0.04,0.63,0.12c0.16,0.08,0.29,0.18,0.38,0.3
			c0.09,0.12,0.15,0.25,0.18,0.39c0.03,0.14,0.05,0.27,0.05,0.4c-0.01,0.27-0.08,0.5-0.22,0.71c-0.14,0.21-0.32,0.4-0.53,0.57
			c-0.22,0.18-0.45,0.34-0.71,0.49c-0.26,0.15-0.51,0.31-0.74,0.47c-0.5,0.31-0.89,0.68-1.17,1.11C0.15,14.91,0.01,15.41,0,15.98h5
			v-1H1.43c0.05-0.15,0.14-0.29,0.27-0.43C1.84,14.42,1.99,14.29,2.17,14.17z M15.01,1.99h-7c-0.55,0-1,0.45-1,1v1
			c0,0.55,0.45,1,1,1h7c0.55,0,1-0.45,1-1v-1C16.01,2.44,15.57,1.99,15.01,1.99z M15.01,10.99h-7c-0.55,0-1,0.45-1,1v1
			c0,0.55,0.45,1,1,1h7c0.55,0,1-0.45,1-1v-1C16.01,11.44,15.57,10.99,15.01,10.99z"/>
	</g>
</g>
</svg>
