<?xml version="1.0" encoding="utf-8"?>
<!-- Generator: Adobe Illustrator 18.0.0, SVG Export Plug-In . SVG Version: 6.00 Build 0)  -->
<svg version="1.1" id="Layer_1" xmlns="http://www.w3.org/2000/svg" xmlns:xlink="http://www.w3.org/1999/xlink" x="0px" y="0px"
	 viewBox="0 0 16 16" enable-background="new 0 0 16 16" xml:space="preserve">
<g id="_x31_23">
	<g>
		<path fill-rule="evenodd" clip-rule="evenodd" d="M2.79,4.61C2.66,4.78,2.5,4.91,2.31,5.02C2.13,5.13,1.92,5.2,1.69,5.25
			C1.46,5.29,1.23,5.32,0.98,5.32v1.03h1.74v5.65h1.26v-8H3.04C3,4.23,2.92,4.44,2.79,4.61z M7.16,9.92
			C7.34,9.78,7.53,9.64,7.74,9.5C7.95,9.35,8.16,9.2,8.37,9.05c0.21-0.16,0.41-0.33,0.61-0.51c0.2-0.18,0.37-0.38,0.52-0.59
			c0.15-0.21,0.28-0.45,0.37-0.7C9.96,7,10,6.71,10,6.4c0-0.25-0.04-0.52-0.12-0.8C9.81,5.31,9.68,5.05,9.49,4.81
			c-0.18-0.24-0.43-0.44-0.73-0.6C8.47,4.06,8.1,3.98,7.65,3.98c-0.41,0-0.77,0.08-1.08,0.23C6.26,4.37,5.99,4.58,5.78,4.85
			C5.56,5.12,5.4,5.44,5.29,5.81C5.18,6.18,5.13,6.58,5.13,7.01h1.19C6.33,6.74,6.35,6.48,6.4,6.24C6.44,6,6.51,5.79,6.61,5.62
			C6.7,5.44,6.83,5.3,6.99,5.2c0.16-0.1,0.35-0.15,0.59-0.15c0.26,0,0.47,0.05,0.63,0.14C8.36,5.28,8.49,5.4,8.58,5.54
			c0.09,0.14,0.15,0.29,0.18,0.45C8.79,6.15,8.81,6.3,8.81,6.44C8.8,6.75,8.73,7.02,8.59,7.26C8.45,7.49,8.27,7.71,8.06,7.91
			C7.84,8.12,7.6,8.3,7.35,8.48C7.09,8.66,6.84,8.84,6.6,9.02c-0.5,0.36-0.89,0.78-1.17,1.27C5.15,10.78,5,11.35,4.99,12h5v-1.15
			H6.43c0.05-0.17,0.14-0.33,0.27-0.49C6.83,10.21,6.99,10.07,7.16,9.92z M15.66,8.36c-0.23-0.35-0.54-0.57-0.95-0.65V7.69
			c0.34-0.13,0.6-0.34,0.76-0.63c0.16-0.29,0.24-0.63,0.24-1.02c0-0.34-0.06-0.64-0.19-0.9c-0.13-0.26-0.3-0.47-0.51-0.64
			c-0.21-0.17-0.45-0.3-0.72-0.38c-0.27-0.09-0.54-0.13-0.82-0.13c-0.36,0-0.68,0.07-0.96,0.2c-0.28,0.13-0.53,0.32-0.72,0.55
			c-0.2,0.23-0.36,0.51-0.47,0.83c-0.11,0.32-0.18,0.66-0.19,1.04h1.15c-0.01-0.2,0.01-0.39,0.06-0.58
			c0.05-0.19,0.12-0.36,0.22-0.51c0.1-0.15,0.22-0.27,0.37-0.36c0.15-0.09,0.32-0.13,0.53-0.13c0.32,0,0.59,0.1,0.79,0.3
			c0.21,0.2,0.31,0.46,0.31,0.79c0,0.23-0.05,0.43-0.14,0.59C14.33,6.87,14.21,7,14.07,7.09c-0.15,0.09-0.32,0.16-0.51,0.19
			c-0.19,0.04-0.38,0.05-0.57,0.04v0.93c0.23-0.01,0.45,0,0.67,0.02c0.22,0.02,0.42,0.08,0.59,0.17c0.18,0.09,0.32,0.23,0.43,0.4
			c0.11,0.18,0.16,0.41,0.16,0.71c0,0.44-0.13,0.78-0.39,1.02c-0.26,0.24-0.58,0.36-0.97,0.36c-0.45,0-0.79-0.16-1.02-0.47
			c-0.23-0.31-0.33-0.7-0.32-1.17H11c0.01,0.4,0.06,0.77,0.17,1.1c0.11,0.33,0.26,0.61,0.47,0.85c0.21,0.23,0.46,0.42,0.77,0.54
			c0.31,0.13,0.67,0.19,1.08,0.19c0.34,0,0.66-0.05,0.96-0.16c0.3-0.11,0.57-0.27,0.8-0.47c0.23-0.2,0.41-0.45,0.55-0.74
			C15.93,10.33,16,10,16,9.63C16,9.13,15.89,8.71,15.66,8.36z"/>
	</g>
</g>
</svg>
