<svg xmlns="http://www.w3.org/2000/svg" xml:space="preserve" viewBox="0 0 16 16"><path fill-rule="evenodd" d="M2.79 4.61c-.13.17-.29.3-.48.41-.18.11-.39.18-.62.23-.23.04-.46.07-.71.07v1.03h1.74V12h1.26V4h-.94c-.04.23-.12.44-.25.61zm4.37 5.31c.18-.14.37-.28.58-.42l.63-.45c.21-.16.41-.33.61-.51s.37-.38.52-.59c.15-.21.28-.45.37-.7.09-.25.13-.54.13-.85 0-.25-.04-.52-.12-.8-.07-.29-.2-.55-.39-.79a2.18 2.18 0 0 0-.73-.6c-.29-.15-.66-.23-1.11-.23-.41 0-.77.08-1.08.23-.31.16-.58.37-.79.64-.22.27-.38.59-.49.96-.11.37-.16.77-.16 1.2h1.19c.01-.27.03-.53.08-.77.04-.24.11-.45.21-.62.09-.18.22-.32.38-.42.16-.1.35-.15.59-.15.26 0 .47.05.63.14.15.09.28.21.37.35.09.14.15.29.18.45.03.16.05.31.05.45-.01.31-.08.58-.22.82-.14.23-.32.45-.53.65-.22.21-.46.39-.71.57-.26.18-.51.36-.75.54-.5.36-.89.78-1.17 1.27-.28.49-.43 1.06-.44 1.71h5v-1.15H6.43c.05-.17.14-.33.27-.49.13-.15.29-.29.46-.44zm8.5-1.56c-.23-.35-.54-.57-.95-.65v-.02c.34-.13.6-.34.76-.63.16-.29.24-.63.24-1.02 0-.34-.06-.64-.19-.9s-.3-.47-.51-.64c-.21-.17-.45-.3-.72-.38-.27-.09-.54-.13-.82-.13-.36 0-.68.07-.96.2-.28.13-.53.32-.72.55-.2.23-.36.51-.47.83-.11.32-.18.66-.19 1.04h1.15c-.01-.2.01-.39.06-.58.05-.19.12-.36.22-.51.1-.15.22-.27.37-.36.15-.09.32-.13.53-.13.32 0 .59.1.79.3.21.2.31.46.31.79 0 .23-.05.43-.14.59-.09.16-.21.29-.35.38-.15.09-.32.16-.51.19-.19.04-.38.05-.57.04v.93c.23-.01.45 0 .67.02.22.02.42.08.59.17.18.09.32.23.43.4.11.18.16.41.16.71 0 .44-.13.78-.39 1.02s-.58.36-.97.36c-.45 0-.79-.16-1.02-.47-.23-.31-.33-.7-.32-1.17H11c.01.4.06.77.17 1.1.11.33.26.61.47.85.21.23.46.42.77.54.31.13.67.19 1.08.19.34 0 .66-.05.96-.16.3-.11.57-.27.8-.47.23-.2.41-.45.55-.74.13-.27.2-.6.2-.97 0-.5-.11-.92-.34-1.27z" clip-rule="evenodd"/></svg>