<?xml version="1.0" encoding="utf-8"?>
<!-- Generator: Adobe Illustrator 18.0.0, SVG Export Plug-In . SVG Version: 6.00 Build 0)  -->
<svg version="1.1" id="Layer_1" xmlns="http://www.w3.org/2000/svg" xmlns:xlink="http://www.w3.org/1999/xlink" x="0px" y="0px"
	 viewBox="0 0 16 16" enable-background="new 0 0 16 16" xml:space="preserve">
<g id="oil_field">
	<g>
		<path fill-rule="evenodd" clip-rule="evenodd" d="M15,14h-1.35l-3.34-7.51l2.46-0.95l1.45,3.21c0.09,0.2,0.36,0.3,0.6,0.23
			c0.1-0.03,0.18-0.08,0.24-0.15c0.05-0.08,1.23-1.56,0.87-4.2c-0.11-0.79-0.52-4.62-3.26-4.62C11.74,0.01,10.99,0.63,11,1.38
			c0,0.14,0.03,0.28,0.09,0.42l0.87,1.92L0.64,8.07l0,0.01C0.27,8.22,0,8.57,0,9c0,0.55,0.45,1,1,1c0.13,0,0.25-0.03,0.36-0.07
			l0,0.01l1.04-0.4L3.67,14H2c-0.55,0-1,0.45-1,1c0,0.55,0.45,1,1,1h13c0.55,0,1-0.45,1-1C16,14.45,15.55,14,15,14z M4.27,8.81
			l2.87-1.11L5.2,12.08L4.27,8.81z M6.54,14L9,8.46L11.46,14H6.54z"/>
	</g>
</g>
</svg>
