<svg xmlns="http://www.w3.org/2000/svg" xml:space="preserve" viewBox="0 0 16 16"><path fill-rule="evenodd" d="M15 14h-1.35l-3.34-7.51 2.46-.95 1.45 3.21c.09.2.36.3.6.23.1-.03.18-.08.24-.15.05-.08 1.23-1.56.87-4.2-.11-.79-.52-4.62-3.26-4.62-.93 0-1.68.62-1.67 1.37 0 .14.03.28.09.42l.87 1.92L.64 8.07v.01A.98.98 0 0 0 0 9c0 .55.45 1 1 1 .13 0 .25-.03.36-.07v.01l1.04-.4L3.67 14H2c-.55 0-1 .45-1 1s.45 1 1 1h13c.55 0 1-.45 1-1s-.45-1-1-1zM4.27 8.81 7.14 7.7 5.2 12.08l-.93-3.27zM6.54 14 9 8.46 11.46 14H6.54z" clip-rule="evenodd"/></svg>