<svg width="16" height="16" viewBox="0 0 16 16" fill="none" xmlns="http://www.w3.org/2000/svg">
<path fill-rule="evenodd" clip-rule="evenodd" d="M2 8C2 7.44772 2.44772 7 3 7C3.55228 7 4 7.44772 4 8C4 8.55228 3.55228 9 3 9C2.44772 9 2 8.55228 2 8ZM5.82929 7C5.41746 5.83481 4.30622 5 3 5C1.34315 5 0 6.34315 0 8C0 9.65685 1.34315 11 3 11C4.30622 11 5.41746 10.1652 5.82929 9H10.1707C10.5825 10.1652 11.6938 11 13 11C14.6569 11 16 9.65685 16 8C16 6.34315 14.6569 5 13 5C11.6938 5 10.5825 5.83481 10.1707 7H5.82929ZM13 7C12.4477 7 12 7.44772 12 8C12 8.55228 12.4477 9 13 9C13.5523 9 14 8.55228 14 8C14 7.44772 13.5523 7 13 7Z" fill="black"/>
</svg>
