<?xml version="1.0" encoding="utf-8"?>
<!-- Generator: Adobe Illustrator 18.0.0, SVG Export Plug-In . SVG Version: 6.00 Build 0)  -->
<svg version="1.1" id="Layer_1" xmlns="http://www.w3.org/2000/svg" xmlns:xlink="http://www.w3.org/1999/xlink" x="0px" y="0px"
	 viewBox="0 0 16 16" enable-background="new 0 0 16 16" xml:space="preserve">
<title>pt-icon-panel-stats</title>
<desc>Created with Sketch.</desc>
<g>
	<rect x="10" y="4" fill="#10161A" width="3" height="1"/>
	<rect x="10" y="6" fill="#10161A" width="3" height="1"/>
	<rect x="10" y="8" fill="#10161A" width="3" height="1"/>
	<rect x="10" y="10" fill="#10161A" width="3" height="1"/>
	<path fill="#10161A" d="M15,1H1C0.4,1,0,1.4,0,2v11c0,0.6,0.4,1,1,1h14c0.6,0,1-0.4,1-1V2C16,1.4,15.6,1,15,1z M8,12H2V3h6V12z
		 M14,12H9V3h5V12z"/>
</g>
</svg>
