<?xml version="1.0" encoding="utf-8"?>
<!-- Generator: Adobe Illustrator 18.1.0, SVG Export Plug-In . SVG Version: 6.00 Build 0)  -->
<svg version="1.1" id="Ellipse_1_copy_1_" xmlns="http://www.w3.org/2000/svg" xmlns:xlink="http://www.w3.org/1999/xlink" x="0px"
	 y="0px" viewBox="0 0 16 16" enable-background="new 0 0 16 16" xml:space="preserve">
<g id="Ellipse_1_copy">
	<g>
		<path fill-rule="evenodd" clip-rule="evenodd" d="M14.68,2.31c-0.88-0.88-2.05-1.32-3.22-1.32c-1.15,0-2.31,0.44-3.19,1.32
			L0.95,9.63C0.32,10.26,0,11.09,0,11.91s0.31,1.66,0.95,2.29c0.62,0.62,1.45,0.93,2.28,0.93s1.66-0.31,2.3-0.95l7.31-7.32
			c0.76-0.77,0.76-1.98,0.01-2.73c-0.75-0.75-1.99-0.76-2.75,0l-6.07,6.08l0,0c-0.24,0.25-0.24,0.65,0.01,0.9
			c0.25,0.25,0.65,0.25,0.91,0.01l0,0l6.07-6.08c0.25-0.25,0.67-0.25,0.91-0.01c0.25,0.25,0.25,0.67,0,0.92l-7.31,7.32
			c-0.75,0.75-2.04,0.74-2.76,0.01c-0.75-0.75-0.73-2.02,0.01-2.76l7.33-7.31c1.24-1.24,3.35-1.26,4.58-0.03
			c1.24,1.24,1.24,3.36,0,4.6l-7.12,7.13l0,0c-0.24,0.25-0.24,0.64,0.01,0.88c0.24,0.24,0.63,0.24,0.88,0.01l0,0.01l7.13-7.13
			C15.56,7.82,16,6.67,16,5.51C16,4.35,15.56,3.19,14.68,2.31z"/>
	</g>
</g>
</svg>
