<?xml version="1.0" encoding="utf-8"?>
<!-- Generator: Adobe Illustrator 18.0.0, SVG Export Plug-In . SVG Version: 6.00 Build 0)  -->
<svg version="1.1" id="Layer_1" xmlns="http://www.w3.org/2000/svg" xmlns:xlink="http://www.w3.org/1999/xlink" x="0px" y="0px"
	 viewBox="0 0 16 16" enable-background="new 0 0 16 16" xml:space="preserve">
<g id="path_1_">
	<g>
		<path fill-rule="evenodd" clip-rule="evenodd" d="M14.5,0h-13C0.67,0,0,0.67,0,1.5S0.67,3,1.5,3H7v3H3.5C2.67,6,2,6.67,2,7.5
			S2.67,9,3.5,9H7v3H5.5C4.67,12,4,12.67,4,13.5S4.67,15,5.5,15h5c0.83,0,1.5-0.67,1.5-1.5S11.33,12,10.5,12H9V9h3.5
			C13.33,9,14,8.33,14,7.5S13.33,6,12.5,6H9V3h5.5C15.33,3,16,2.33,16,1.5S15.33,0,14.5,0z"/>
	</g>
</g>
</svg>
