<svg xmlns="http://www.w3.org/2000/svg" xml:space="preserve" viewBox="0 0 16 16"><path fill-rule="evenodd" d="m15 14.62-4-2.4V9.77c-.32.09-.66.15-1 .18v2.27l-4 2.4V8.71c-.38-.31-.72-.66-1-1.06v6.97l-4-2.4V8c.55 0 1-.45 1-1s-.45-1-1-1V1.38l3.15 1.89c.08-.34.18-.66.32-.97L.76.07v.01A.496.496 0 0 0 .5 0C.22 0 0 .22 0 .5v12c0 .18.1.33.25.42v.01l5 3v-.01c.07.05.16.08.25.08s.18-.03.25-.08v.01l4.74-2.85 4.74 2.85v-.01c.09.05.18.08.27.08.28 0 .5-.22.5-.5v-3.78c-.3.17-.63.28-1 .28v2.62zM2 5c0 .55.45 1 1 1s1-.45 1-1-.45-1-1-1-1 .45-1 1zm6-1c-.55 0-1 .45-1 1s.45 1 1 1 1-.45 1-1-.45-1-1-1zm7.75-.92-1.19-.72c.18.43.29.9.36 1.38l.08.04v3.39l1 1V3.5c0-.18-.1-.33-.25-.42zM10 2c-.55 0-1 .45-1 1s.45 1 1 1 1-.45 1-1-.45-1-1-1zm3.3 4.89c.44-.7.7-1.51.7-2.39C14 2.01 11.99 0 9.5 0S5 2.01 5 4.5 7.01 9 9.5 9c.88 0 1.69-.26 2.39-.7l2.41 2.41c.17.18.42.29.7.29a1.003 1.003 0 0 0 .71-1.71l-2.41-2.4zM9.5 8C7.57 8 6 6.43 6 4.5S7.57 1 9.5 1 13 2.57 13 4.5 11.43 8 9.5 8z" clip-rule="evenodd"/></svg>