<?xml version="1.0" encoding="utf-8"?>
<!-- Generator: Adobe Illustrator 18.1.0, SVG Export Plug-In . SVG Version: 6.00 Build 0)  -->
<svg version="1.1" id="Layer_1" xmlns="http://www.w3.org/2000/svg" xmlns:xlink="http://www.w3.org/1999/xlink" x="0px" y="0px"
	 viewBox="0 0 16 16" enable-background="new 0 0 16 16" xml:space="preserve">
<g id="pause">
	<g>
		<path fill-rule="evenodd" clip-rule="evenodd" d="M6,3H4C3.45,3,3,3.45,3,4v8c0,0.55,0.45,1,1,1h2c0.55,0,1-0.45,1-1V4
			C7,3.45,6.55,3,6,3z M12,3h-2C9.45,3,9,3.45,9,4v8c0,0.55,0.45,1,1,1h2c0.55,0,1-0.45,1-1V4C13,3.45,12.55,3,12,3z"/>
	</g>
</g>
</svg>
