<svg xmlns="http://www.w3.org/2000/svg" xml:space="preserve" viewBox="0 0 16 16"><path d="M13.69 13.98c-.05-.24-.14-.5-.25-.76-.36-.86-1.12-1.33-2.69-2-.14-.06-.59-.25-.6-.25-.21-.09-.36-.15-.5-.22.02-.1.02-.2.03-.31 0-.04.01-.08.01-.13-.07-.06-.13-.12-.19-.19.22-.32.4-.67.54-1.05.02-.06.02-.06.03-.1.29-.23.48-.57.59-.96.16-.33.25-.73.21-1.16-.03-.4-.16-.76-.37-1.03-.02-.53-.07-1.13-.15-1.54-.01-.06-.02-.12-.03-.19.23-.06.48-.09.72-.09.49 0 1.05.16 1.44.46.38.29.67.7.8 1.17.03.1.05.21.07.31.07.37.11.94.11 1.33v.05c.14.06.27.21.29.51.02.25-.07.45-.13.54-.05.21-.16.44-.38.48-.02.1-.05.2-.09.3 0 .01-.01.03-.01.03-.17.44-.43.83-.75 1.11v.14c.03.35-.09.59.83 1 .93.41 2.32.84 2.6 1.5.29.66.17 1.04.17 1.04h-2.3zm-1.17-.38c.37.86.22 1.36.22 1.36H.06s-.14-.5.22-1.36 2.13-1.43 3.31-1.96c1.17-.54 1.05-.86 1.09-1.3 0-.05.01-.11.01-.17-.41-.35-.75-.86-.97-1.45v-.01s-.01-.01-.01-.02c-.04-.12-.09-.26-.12-.39-.28-.05-.44-.36-.5-.64-.06-.12-.19-.39-.16-.71.04-.41.21-.6.39-.68v-.06c0-.51.05-1.26.14-1.74.02-.13.05-.27.09-.4.17-.6.54-1.13 1.02-1.51.5-.39 1.21-.6 1.84-.6s1.34.21 1.84.6c.48.38.85.91 1.02 1.52.04.13.07.27.09.4.09.48.14 1.22.14 1.73v.07c.18.08.34.27.37.67.03.32-.09.59-.16.71-.06.28-.21.58-.48.63-.03.13-.07.26-.12.39 0 .01-.01.04-.01.04-.22.58-.55 1.08-.95 1.45v.18c.04.45-.12.77 1.06 1.3 1.18.53 2.95 1.09 3.31 1.95z"/></svg>