<?xml version="1.0" encoding="utf-8"?>
<!-- Generator: Adobe Illustrator 18.0.0, SVG Export Plug-In . SVG Version: 6.00 Build 0)  -->
<svg version="1.1" id="Shape_9_1_" xmlns="http://www.w3.org/2000/svg" xmlns:xlink="http://www.w3.org/1999/xlink" x="0px" y="0px"
	 viewBox="0 0 16 16" enable-background="new 0 0 16 16" xml:space="preserve">
<g id="Shape_9">
	<g>
		<path fill-rule="evenodd" clip-rule="evenodd" d="M6,6V4c0-1.1-0.9-2-2-2H3C1.9,2,1,2.9,1,4v2c0,1.1,0.9,2,2,2h1C5.1,8,6,7.1,6,6z
			 M3.5,6C3.22,6,3,5.78,3,5.5v-1C3,4.22,3.22,4,3.5,4S4,4.22,4,4.5v1C4,5.78,3.78,6,3.5,6z M13,8h-1c-1.1,0-2,0.9-2,2v2
			c0,1.1,0.9,2,2,2h1c1.1,0,2-0.9,2-2v-2C15,8.9,14.1,8,13,8z M13,11.5c0,0.28-0.22,0.5-0.5,0.5S12,11.78,12,11.5v-1
			c0-0.28,0.22-0.5,0.5-0.5s0.5,0.22,0.5,0.5V11.5z M12,3c0-0.55-0.45-1-1-1c-0.37,0-0.69,0.2-0.87,0.5l-5.99,9.98
			C4.05,12.63,4,12.81,4,13c0,0.55,0.45,1,1,1c0.37,0,0.69-0.2,0.87-0.5l5.99-9.98C11.95,3.37,12,3.19,12,3z"/>
	</g>
</g>
</svg>
