<svg xmlns="http://www.w3.org/2000/svg" xml:space="preserve" viewBox="0 0 16 16"><path fill-rule="evenodd" d="M6 6V4c0-1.1-.9-2-2-2H3c-1.1 0-2 .9-2 2v2c0 1.1.9 2 2 2h1c1.1 0 2-.9 2-2zM3.5 6c-.28 0-.5-.22-.5-.5v-1c0-.28.22-.5.5-.5s.5.22.5.5v1c0 .28-.22.5-.5.5zM13 8h-1c-1.1 0-2 .9-2 2v2c0 1.1.9 2 2 2h1c1.1 0 2-.9 2-2v-2c0-1.1-.9-2-2-2zm0 3.5c0 .28-.22.5-.5.5s-.5-.22-.5-.5v-1c0-.28.22-.5.5-.5s.5.22.5.5v1zM12 3a1.003 1.003 0 0 0-1.87-.5l-5.99 9.98c-.09.15-.14.33-.14.52a1.003 1.003 0 0 0 1.87.5l5.99-9.98c.09-.15.14-.33.14-.52z" clip-rule="evenodd"/></svg>