<?xml version="1.0" encoding="utf-8"?>
<!-- Generator: Adobe Illustrator 18.1.0, SVG Export Plug-In . SVG Version: 6.00 Build 0)  -->
<svg version="1.1" id="Layer_1" xmlns="http://www.w3.org/2000/svg" xmlns:xlink="http://www.w3.org/1999/xlink" x="0px" y="0px"
	 viewBox="0 0 16 16" enable-background="new 0 0 16 16" xml:space="preserve">
<g id="phone">
	<g>
		<path fill-rule="evenodd" clip-rule="evenodd" d="M15.9,12.41c-0.06-0.06-3.37-2-3.48-2.05c-0.11-0.05-0.22-0.08-0.32-0.08
			c-0.15,0-0.34,0.11-0.57,0.32c-0.23,0.22-0.94,1.19-1.15,1.4c-0.21,0.22-0.38,0.32-0.52,0.32c-0.07,0-0.15-0.02-0.25-0.06
			c-0.1-0.04-1.16-0.58-3.36-2.52c-2.2-1.93-2.49-3.2-2.5-3.55c0-0.14,0.11-0.31,0.32-0.52c0.22-0.21,0.45-0.41,0.7-0.6
			c0.25-0.19,0.49-0.4,0.7-0.62c0.22-0.23,0.32-0.42,0.32-0.57c0-0.11-0.03-0.21-0.08-0.32C5.66,3.46,3.66,0.15,3.59,0.08
			C3.44-0.07,2.85,0,2.55,0.16C0.16,1.46-0.03,3.2,0,3.89c0.04,0.71,0.49,4.46,4.16,7.95C8.72,16.17,11.89,16,12.1,16
			c0.69,0,2.82-0.38,3.72-2.55C15.95,13.13,16.07,12.58,15.9,12.41z"/>
	</g>
</g>
</svg>
