<svg xmlns="http://www.w3.org/2000/svg" xml:space="preserve" viewBox="0 0 16 16"><path fill-rule="evenodd" d="M15.9 12.41c-.06-.06-3.37-2-3.48-2.05a.794.794 0 0 0-.32-.08c-.15 0-.34.11-.57.32-.23.22-.94 1.19-1.15 1.4-.21.22-.38.32-.52.32-.07 0-.15-.02-.25-.06-.1-.04-1.16-.58-3.36-2.52-2.2-1.93-2.49-3.2-2.5-3.55 0-.14.11-.31.32-.52.22-.21.45-.41.7-.6.25-.19.49-.4.7-.62.22-.23.32-.42.32-.57 0-.11-.03-.21-.08-.32C5.66 3.46 3.66.15 3.59.08 3.44-.07 2.85 0 2.55.16.16 1.46-.03 3.2 0 3.89c.04.71.49 4.46 4.16 7.95C8.72 16.17 11.89 16 12.1 16c.69 0 2.82-.38 3.72-2.55.13-.32.25-.87.08-1.04z" clip-rule="evenodd"/></svg>