<?xml version="1.0" encoding="utf-8"?>
<!-- Generator: Adobe Illustrator 18.0.0, SVG Export Plug-In . SVG Version: 6.00 Build 0)  -->
<svg version="1.1" id="Layer_1" xmlns="http://www.w3.org/2000/svg" xmlns:xlink="http://www.w3.org/1999/xlink" x="0px" y="0px"
	 viewBox="0 0 16 16" enable-background="new 0 0 16 16" xml:space="preserve">
<g id="pivot_1_">
	<g>
		<path fill-rule="evenodd" clip-rule="evenodd" d="M4.57,7.02l-4.27,4.27C0.11,11.47,0,11.72,0,12c0,0.55,0.45,1,1,1
			c0.28,0,0.53-0.11,0.71-0.29l4.27-4.27C5.4,8.09,4.91,7.6,4.57,7.02z M15,8c-0.55,0-1,0.45-1,1v0.59l-2.57-2.57
			c-0.34,0.58-0.83,1.07-1.41,1.41L12.59,11H12c-0.55,0-1,0.45-1,1c0,0.55,0.45,1,1,1h3c0.55,0,1-0.45,1-1V9C16,8.45,15.55,8,15,8z
			 M11,5c0-1.66-1.34-3-3-3S5,3.34,5,5s1.34,3,3,3S11,6.66,11,5z M8,6C7.45,6,7,5.55,7,5c0-0.55,0.45-1,1-1s1,0.45,1,1
			C9,5.55,8.55,6,8,6z"/>
	</g>
</g>
</svg>
