<svg xmlns="http://www.w3.org/2000/svg" xml:space="preserve" viewBox="0 0 16 16"><path d="M2 4H1c-.55 0-1 .45-1 1v10c0 .55.45 1 1 1h1c.55 0 1-.45 1-1V5c0-.55-.45-1-1-1zm0-4H1C.45 0 0 .45 0 1v1c0 .55.45 1 1 1h1c.55 0 1-.45 1-1V1c0-.55-.45-1-1-1zm11.71 4.29C13.53 4.11 13.28 4 13 4s-.53.11-.71.29l-2 2a1.003 1.003 0 0 0 1.42 1.42l.29-.3V9c0 1.66-1.34 3-3 3H7.41l.29-.29c.19-.18.3-.43.3-.71a1.003 1.003 0 0 0-1.71-.71l-2 2c-.18.18-.29.43-.29.71 0 .28.11.53.29.71l2 2a1.003 1.003 0 0 0 1.42-1.42l-.3-.29H9c2.76 0 5-2.24 5-5V7.41l.29.29c.18.19.43.3.71.3a1.003 1.003 0 0 0 .71-1.71l-2-2zM15 0H5c-.55 0-1 .45-1 1v1c0 .55.45 1 1 1h10c.55 0 1-.45 1-1V1c0-.55-.45-1-1-1z"/></svg>