<svg xmlns="http://www.w3.org/2000/svg" xml:space="preserve" viewBox="0 0 16 16"><path fill-rule="evenodd" d="M14 5c-.24 0-.47.05-.68.13L9.97 2.34c.01-.11.03-.22.03-.34 0-1.1-.9-2-2-2S6 .9 6 2c0 .04.01.08.01.12L2.88 4.21C2.61 4.08 2.32 4 2 4 .9 4 0 4.9 0 6c0 .74.4 1.38 1 1.72v4.55c-.6.35-1 .99-1 1.73 0 1.1.9 2 2 2 .74 0 1.38-.4 1.72-1h4.55c.35.6.98 1 1.72 1 1.1 0 2-.9 2-2 0-.37-.11-.7-.28-1L14 9c1.11-.01 2-.9 2-2s-.9-2-2-2zm-4.01 7c-.73 0-1.37.41-1.71 1H3.73c-.18-.3-.43-.55-.73-.72V7.72c.6-.34 1-.98 1-1.72 0-.04-.01-.08-.01-.12l3.13-2.09c.27.13.56.21.88.21.24 0 .47-.05.68-.13l3.35 2.79c-.01.11-.03.22-.03.34 0 .37.11.7.28 1l-2.29 4z" clip-rule="evenodd"/></svg>