<?xml version="1.0" encoding="utf-8"?>
<!-- Generator: Adobe Illustrator 18.1.0, SVG Export Plug-In . SVG Version: 6.00 Build 0)  -->
<svg version="1.1" id="Layer_1" xmlns="http://www.w3.org/2000/svg" xmlns:xlink="http://www.w3.org/1999/xlink" x="0px" y="0px"
	 viewBox="0 0 16 16" enable-background="new 0 0 16 16" xml:space="preserve">
<g id="polygon_filter">
	<g>
		<path fill-rule="evenodd" clip-rule="evenodd" d="M14,5c-0.24,0-0.47,0.05-0.68,0.13L9.97,2.34C9.98,2.23,10,2.12,10,2
			c0-1.1-0.9-2-2-2S6,0.9,6,2c0,0.04,0.01,0.08,0.01,0.12L2.88,4.21C2.61,4.08,2.32,4,2,4C0.9,4,0,4.9,0,6c0,0.74,0.4,1.38,1,1.72
			v4.55C0.4,12.62,0,13.26,0,14c0,1.1,0.9,2,2,2c0.74,0,1.38-0.4,1.72-1h4.55c0.35,0.6,0.98,1,1.72,1c1.1,0,2-0.9,2-2
			c0-0.37-0.11-0.7-0.28-1l2.29-4C15.11,8.99,16,8.1,16,7C16,5.9,15.1,5,14,5z M9.99,12c-0.73,0-1.37,0.41-1.71,1H3.73
			C3.55,12.7,3.3,12.45,3,12.28V7.72C3.6,7.38,4,6.74,4,6c0-0.04-0.01-0.08-0.01-0.12l3.13-2.09C7.39,3.92,7.68,4,8,4
			c0.24,0,0.47-0.05,0.68-0.13l3.35,2.79C12.02,6.77,12,6.88,12,7c0,0.37,0.11,0.7,0.28,1L9.99,12z"/>
	</g>
</g>
</svg>
