<?xml version="1.0" encoding="utf-8"?>
<!-- Generator: Adobe Illustrator 18.1.0, SVG Export Plug-In . SVG Version: 6.00 Build 0)  -->
<svg version="1.1" id="Layer_1" xmlns="http://www.w3.org/2000/svg" xmlns:xlink="http://www.w3.org/1999/xlink" x="0px" y="0px"
	 viewBox="0 0 16 16" enable-background="new 0 0 16 16" xml:space="preserve">
<g id="power">
	<g>
		<path fill-rule="evenodd" clip-rule="evenodd" d="M8,8c0.55,0,1-0.45,1-1V1c0-0.55-0.45-1-1-1S7,0.45,7,1v6C7,7.55,7.45,8,8,8z
			 M11,2.68v2.34c1.21,0.91,2,2.35,2,3.98c0,2.76-2.24,5-5,5s-5-2.24-5-5c0-1.63,0.79-3.06,2-3.98V2.68C2.64,3.81,1,6.21,1,9
			c0,3.87,3.13,7,7,7s7-3.13,7-7C15,6.21,13.36,3.81,11,2.68z"/>
	</g>
</g>
</svg>
