<?xml version="1.0" encoding="utf-8"?>
<!-- Generator: Adobe Illustrator 18.0.0, SVG Export Plug-In . SVG Version: 6.00 Build 0)  -->
<svg version="1.1" id="Layer_1" xmlns="http://www.w3.org/2000/svg" xmlns:xlink="http://www.w3.org/1999/xlink" x="0px" y="0px"
	 viewBox="0 0 16 16" enable-background="new 0 0 16 16" xml:space="preserve">
<g id="predictive_analysis_4_">
	<g>
		<path fill-rule="evenodd" clip-rule="evenodd" d="M16,6.41c0-1.01-0.49-1.94-1.29-2.49C14.28,2,12.64,0.64,10.71,0.64
			c-0.46,0-0.92,0.08-1.35,0.24C8.83,0.31,8.11,0,7.34,0C6.44,0,5.6,0.44,5.06,1.16C4.94,1.15,4.82,1.14,4.7,1.14
			c-1.31,0-2.42,0.89-2.77,2.17C0.78,3.72,0,4.84,0,6.13c0,0.38,0.07,0.76,0.21,1.12C0.07,7.6,0,7.98,0,8.36
			c0,1.11,0.58,2.11,1.51,2.63c0.54,0.56,1.27,0.87,2.03,0.87c0.49,0,0.95-0.12,1.37-0.36c0.54,0.65,1.34,1.04,2.18,1.04
			c0.52,0,1.03-0.14,1.47-0.42c0.49,0.39,1.07,0.65,1.69,0.73c1.04,1.15,1.84,2.63,1.84,2.64c0,0,0.28,0.49,0.26,0.49
			c0.77,0,1.41-0.16,1.32-1.04c0,0.02-0.73-2.31-0.73-2.31c0.41-0.21,0.75-0.55,0.97-0.98c0.9-0.52,1.47-1.53,1.47-2.61
			c0-0.24-0.03-0.48-0.08-0.71C15.75,7.81,16,7.12,16,6.41z M14.77,7.43l-0.15-0.16h0l-0.61-0.67c-0.27-0.29-0.54-0.94-0.58-1.39
			c0,0-0.1-1-0.1-1.01c-0.05-0.59-0.94-0.58-0.91,0.11c0,0.02,0.1,1.01,0.1,1.01c0.03,0.29,0.12,0.62,0.24,0.93
			c-0.06-0.01-0.12-0.02-0.18-0.02c0,0-2.06-0.1-2.05-0.11c-0.58-0.02-0.71,0.97-0.04,1c-0.01,0,2.05,0.11,2.05,0.11
			c0.42,0.02,1.04,0.3,1.29,0.58l0.49,0.54l0.02,0.05c0.08,0.21,0.12,0.44,0.12,0.66c0,0.74-0.41,1.41-1.07,1.75l-0.16,0.08
			l-0.07,0.18c-0.15,0.38-0.48,0.66-0.88,0.74l-0.54,0.11l0.7,2.2c-0.38-0.61-0.95-1.43-1.62-2.14l-0.12-0.13l-0.17-0.01
			c-0.41-0.03-0.8-0.17-1.14-0.38l1.36-1.18c0.35-0.31,0.83-0.44,0.99-0.39c0,0,0.63,0.17,0.62,0.18c0.63,0.16,0.83-0.74,0.23-0.97
			l-0.62-0.18c-0.55-0.16-1.33,0.18-1.79,0.58l-1.53,1.33l0,0l-0.31,0.26c-0.35,0.29-0.75,0.44-1.2,0.44
			c-0.64,0-1.23-0.33-1.58-0.86V9.15c0-0.4,0.17-0.79,0.27-0.85c0,0,0.52-0.34,0.51-0.35c0.71-0.53,0.18-1.23-0.49-0.89
			c0-0.01-0.52,0.35-0.52,0.35C5.07,7.56,4.88,7.85,4.75,8.18c-0.11-0.11-0.22-0.2-0.34-0.28c0,0-1.53-1.01-1.53-1.02
			c-0.65-0.45-1.2,0.51-0.49,0.89c0-0.01,1.51,1.02,1.51,1.02c0.37,0.24,0.62,0.78,0.62,1.09v0.67c-0.34,0.19-0.63,0.29-0.99,0.29
			c-0.54,0-1.05-0.23-1.41-0.63l-0.05-0.06l-0.07-0.04c-0.65-0.34-1.05-1-1.05-1.73c0-0.3,0.07-0.6,0.2-0.87l0.12-0.25L1.15,7
			c-0.13-0.27-0.2-0.56-0.2-0.87c0-0.9,0.61-1.68,1.48-1.89l0.31-0.08l0.05-0.34C2.94,2.87,3.74,2.18,4.7,2.18
			c0.16,0,0.31,0.02,0.47,0.06l0.32,0.08l0.18-0.31c0.35-0.6,0.99-0.97,1.67-0.97c0.44,0,0.86,0.15,1.2,0.42L8.18,1.82L8.18,1.81
			L7.93,2.07C7.6,2.34,7.19,2.49,7.04,2.47c0,0-0.67-0.1-0.67-0.11C5.7,2.23,5.5,3.22,6.23,3.38c0.01,0,0.67,0.11,0.67,0.11
			c0.02,0,0.05,0,0.07,0.01C6.86,3.87,6.82,4.27,6.87,4.62c0,0,0.17,0.99,0.15,0.99c0.11,0.52,1.06,0.36,0.93-0.18
			c0-0.01-0.15-0.99-0.15-0.99C7.75,4.07,7.92,3.5,8.16,3.25l0.39-0.4C8.6,2.8,8.65,2.76,8.7,2.71l0.74-0.76
			c0.4-0.18,0.83-0.27,1.27-0.27c1.55,0,2.86,1.12,3.11,2.67l0.04,0.25l0.21,0.12c0.61,0.35,0.98,1,0.98,1.7
			C15.05,6.78,14.95,7.12,14.77,7.43z"/>
	</g>
</g>
</svg>
