<svg xmlns="http://www.w3.org/2000/svg" xml:space="preserve" viewBox="0 0 16 16"><path fill-rule="evenodd" d="M16 6.41c0-1.01-.49-1.94-1.29-2.49-.43-1.92-2.07-3.28-4-3.28-.46 0-.92.08-1.35.24C8.83.31 8.11 0 7.34 0c-.9 0-1.74.44-2.28 1.16-.12-.01-.24-.02-.36-.02-1.31 0-2.42.89-2.77 2.17C.78 3.72 0 4.84 0 6.13c0 .38.07.76.21 1.12C.07 7.6 0 7.98 0 8.36c0 1.11.58 2.11 1.51 2.63.54.56 1.27.87 2.03.87.49 0 .95-.12 1.37-.36a2.85 2.85 0 0 0 2.18 1.04c.52 0 1.03-.14 1.47-.42.49.39 1.07.65 1.69.73 1.04 1.15 1.84 2.63 1.84 2.64 0 0 .28.49.26.49.77 0 1.41-.16 1.32-1.04 0 .02-.73-2.31-.73-2.31.41-.21.75-.55.97-.98.9-.52 1.47-1.53 1.47-2.61 0-.24-.03-.48-.08-.71.45-.52.7-1.21.7-1.92zm-1.23 1.02-.15-.16-.61-.67c-.27-.29-.54-.94-.58-1.39l-.1-1.01c-.05-.59-.94-.58-.91.11 0 .02.1 1.01.1 1.01.03.29.12.62.24.93-.06-.01-.12-.02-.18-.02 0 0-2.06-.1-2.05-.11-.58-.02-.71.97-.04 1l2.05.11c.42.02 1.04.3 1.29.58l.49.54.02.05c.08.21.12.44.12.66 0 .74-.41 1.41-1.07 1.75l-.16.08-.07.18c-.15.38-.48.66-.88.74l-.54.11.7 2.2c-.38-.61-.95-1.43-1.62-2.14l-.12-.13-.17-.01c-.41-.03-.8-.17-1.14-.38l1.36-1.18c.35-.31.83-.44.99-.39 0 0 .63.17.62.18.63.16.83-.74.23-.97l-.62-.18c-.55-.16-1.33.18-1.79.58l-1.53 1.33-.31.26c-.35.29-.75.44-1.2.44-.64 0-1.23-.33-1.58-.86V9.15c0-.4.17-.79.27-.85 0 0 .52-.34.51-.35.71-.53.18-1.23-.49-.89 0-.01-.52.35-.52.35-.26.15-.45.44-.58.77-.11-.11-.22-.2-.34-.28 0 0-1.53-1.01-1.53-1.02-.65-.45-1.2.51-.49.89 0-.01 1.51 1.02 1.51 1.02.37.24.62.78.62 1.09v.67c-.34.19-.63.29-.99.29-.54 0-1.05-.23-1.41-.63l-.05-.06-.07-.04c-.65-.34-1.05-1-1.05-1.73 0-.3.07-.6.2-.87l.12-.25L1.15 7c-.13-.27-.2-.56-.2-.87 0-.9.61-1.68 1.48-1.89l.31-.08.05-.34a1.926 1.926 0 0 1 2.38-1.58l.32.08.18-.31c.35-.6.99-.97 1.67-.97.44 0 .86.15 1.2.42l-.36.36v-.01l-.25.26c-.33.27-.74.42-.89.4 0 0-.67-.1-.67-.11-.67-.13-.87.86-.14 1.02.01 0 .67.11.67.11.02 0 .05 0 .07.01-.11.37-.15.77-.1 1.12 0 0 .17.99.15.99.11.52 1.06.36.93-.18 0-.01-.15-.99-.15-.99-.05-.37.12-.94.36-1.19l.39-.4c.05-.05.1-.09.15-.14l.74-.76c.4-.18.83-.27 1.27-.27 1.55 0 2.86 1.12 3.11 2.67l.04.25.21.12c.61.35.98 1 .98 1.7 0 .36-.1.7-.28 1.01z" clip-rule="evenodd"/></svg>