<?xml version="1.0" encoding="utf-8"?>
<!-- Generator: Adobe Illustrator 17.1.0, SVG Export Plug-In . SVG Version: 6.00 Build 0)  -->
<!DOCTYPE svg PUBLIC "-//W3C//DTD SVG 1.1//EN" "http://www.w3.org/Graphics/SVG/1.1/DTD/svg11.dtd">
<svg version="1.1" id="Layer_1" xmlns="http://www.w3.org/2000/svg" xmlns:xlink="http://www.w3.org/1999/xlink" x="0px" y="0px"
	 viewBox="0 0 16 16" enable-background="new 0 0 16 16" xml:space="preserve">
<g id="presentation">
	<g>
		<path fill-rule="evenodd" clip-rule="evenodd" d="M15,1H9c0-0.55-0.45-1-1-1S7,0.45,7,1H1C0.45,1,0,1.45,0,2c0,0.55,0.45,1,1,1v8
			c0,0.55,0.45,1,1,1h3.59l-2.29,2.29C3.11,14.47,3,14.72,3,15c0,0.55,0.45,1,1,1c0.28,0,0.53-0.11,0.71-0.29L7,13.41V15
			c0,0.55,0.45,1,1,1s1-0.45,1-1v-1.59l2.29,2.29C11.47,15.89,11.72,16,12,16c0.55,0,1-0.45,1-1c0-0.28-0.11-0.53-0.29-0.71
			L10.41,12H14c0.55,0,1-0.45,1-1V3c0.55,0,1-0.45,1-1C16,1.45,15.55,1,15,1z M13,10H3V3h10V10z"/>
	</g>
</g>
</svg>
