<?xml version="1.0" encoding="utf-8"?>
<!-- Generator: Adobe Illustrator 17.1.0, SVG Export Plug-In . SVG Version: 6.00 Build 0)  -->
<!DOCTYPE svg PUBLIC "-//W3C//DTD SVG 1.1//EN" "http://www.w3.org/Graphics/SVG/1.1/DTD/svg11.dtd">
<svg version="1.1" id="Layer_1" xmlns="http://www.w3.org/2000/svg" xmlns:xlink="http://www.w3.org/1999/xlink" x="0px" y="0px"
	 viewBox="0 0 16 16" enable-background="new 0 0 16 16" xml:space="preserve">
<g id="print_1_">
	<g>
		<path fill-rule="evenodd" clip-rule="evenodd" d="M12,2.02c0-0.55-0.45-1-1-1H5c-0.55,0-1,0.45-1,1v1h8V2.02z M15,4.02H1
			c-0.55,0-1,0.45-1,1v6c0,0.55,0.45,1,1,1h1v-3h12v3h1c0.55,0,1-0.45,1-1v-6C16,4.46,15.55,4.02,15,4.02z M14,7.02h-2v-1h2V7.02z
			 M11,13.02H5v-3H3v4c0,0.55,0.45,1,1,1h8c0.55,0,1-0.45,1-1v-4h-2V13.02z"/>
	</g>
</g>
</svg>
