<?xml version="1.0" encoding="utf-8"?>
<!-- Generator: Adobe Illustrator 17.1.0, SVG Export Plug-In . SVG Version: 6.00 Build 0)  -->
<!DOCTYPE svg PUBLIC "-//W3C//DTD SVG 1.1//EN" "http://www.w3.org/Graphics/SVG/1.1/DTD/svg11.dtd">
<svg version="1.1" id="Layer_1" xmlns="http://www.w3.org/2000/svg" xmlns:xlink="http://www.w3.org/1999/xlink" x="0px" y="0px"
	 viewBox="0 0 16 16" enable-background="new 0 0 16 16" xml:space="preserve">
<g id="projects_3_">
	<g>
		<path fill-rule="evenodd" clip-rule="evenodd" d="M14,3c0-0.55-0.45-1-1-1H3C2.45,2,2,2.45,2,3v1h12V3z M12,0H4C3.45,0,3,0.45,3,1
			h10C13,0.45,12.55,0,12,0z M15,5H1C0.45,5,0,5.45,0,6v9c0,0.55,0.45,1,1,1h14c0.55,0,1-0.45,1-1V6C16,5.45,15.55,5,15,5z M12,11
			c0,0.55-0.45,1-1,1H5c-0.55,0-1-0.45-1-1V9h1v2h6V9h1V11z"/>
	</g>
</g>
</svg>
