<svg xmlns="http://www.w3.org/2000/svg" xml:space="preserve" viewBox="0 0 16 16"><path fill-rule="evenodd" d="M12.16 3.76c.15-.11.3-.16.47-.16.06 0 .17.02.34.06.16.04.31.06.43.06a.58.58 0 0 0 .6-.6c0-.19-.06-.33-.17-.44-.11-.11-.28-.16-.49-.16-.19 0-.37.04-.54.13-.17.09-.39.27-.65.55-.2.21-.48.58-.87 1.11a5.22 5.22 0 0 0-.78-1.79l-2.05.32-.04.21c.15-.03.28-.04.39-.04.2 0 .37.08.5.25.21.26.5 1.03.88 2.33-.29.36-.49.6-.6.71-.18.19-.33.31-.45.36-.09.04-.19.07-.3.07-.09 0-.23-.04-.42-.13a.904.904 0 0 0-.36-.09c-.2 0-.36.06-.49.18a.59.59 0 0 0-.19.46c0 .18.06.32.18.43.12.11.28.16.48.16.2 0 .38-.04.55-.12.17-.08.39-.24.65-.49s.62-.65 1.07-1.19c.18.52.33.89.46 1.13.13.24.28.4.44.51.17.1.37.16.62.16.24 0 .49-.08.74-.25.33-.21.66-.58 1.01-1.09l-.21-.11c-.23.31-.41.5-.52.57a.44.44 0 0 1-.26.07c-.12 0-.24-.07-.36-.21-.2-.24-.46-.91-.8-2 .29-.49.54-.81.74-.96zM6.37 5.83l.68-2.53h.83l.2-.64h-.84c.24-.91.56-1.59.96-2.01.24-.27.48-.4.71-.4.05 0 .08.01.11.04s.04.06.04.1c0 .04-.03.11-.1.21-.06.1-.1.2-.1.29 0 .13.05.24.15.33.1.09.23.14.39.14.17 0 .31-.06.42-.17.12-.12.18-.27.18-.46 0-.21-.08-.39-.25-.52C9.57.07 9.3 0 8.93 0c-.59 0-1.12.16-1.59.48-.48.32-.93.85-1.36 1.59-.15.26-.29.42-.42.49s-.35.11-.64.1l-.19.65h.81L4.35 7.68c-.2.72-.33 1.16-.4 1.33-.1.24-.26.45-.46.62a.48.48 0 0 1-.31.1c-.03 0-.06-.01-.08-.03l-.03-.03c0-.02.03-.06.09-.11.06-.06.09-.15.09-.26 0-.13-.05-.23-.14-.32-.1-.09-.23-.13-.41-.13-.21 0-.38.05-.51.16A.52.52 0 0 0 2 9.4c0 .16.08.3.23.42.16.12.4.18.74.18.53 0 .99-.13 1.4-.39.41-.26.76-.65 1.07-1.19.3-.53.61-1.39.93-2.59zm2.34 3.46A.997.997 0 0 0 8 9c-.28 0-.53.11-.71.29l-2 2a1.003 1.003 0 0 0 1.42 1.42l.29-.3V15c0 .55.45 1 1 1s1-.45 1-1v-2.59l.29.29c.18.19.43.3.71.3a1.003 1.003 0 0 0 .71-1.71l-2-2z" clip-rule="evenodd"/></svg>