<?xml version="1.0" encoding="utf-8"?>
<!-- Generator: Adobe Illustrator 18.0.0, SVG Export Plug-In . SVG Version: 6.00 Build 0)  -->
<svg version="1.1" id="Layer_1" xmlns="http://www.w3.org/2000/svg" xmlns:xlink="http://www.w3.org/1999/xlink" x="0px" y="0px"
	 viewBox="0 0 16 16" enable-background="new 0 0 16 16" xml:space="preserve">
<g id="send_to_function_editor_1_">
	<g>
		<path fill-rule="evenodd" clip-rule="evenodd" d="M12.16,3.76c0.15-0.11,0.3-0.16,0.47-0.16c0.06,0,0.17,0.02,0.34,0.06
			c0.16,0.04,0.31,0.06,0.43,0.06c0.17,0,0.32-0.06,0.43-0.17C13.94,3.44,14,3.3,14,3.12c0-0.19-0.06-0.33-0.17-0.44
			c-0.11-0.11-0.28-0.16-0.49-0.16c-0.19,0-0.37,0.04-0.54,0.13c-0.17,0.09-0.39,0.27-0.65,0.55c-0.2,0.21-0.48,0.58-0.87,1.11
			c-0.15-0.65-0.41-1.25-0.78-1.79L8.45,2.84L8.41,3.05C8.56,3.02,8.69,3.01,8.8,3.01c0.2,0,0.37,0.08,0.5,0.25
			c0.21,0.26,0.5,1.03,0.88,2.33C9.89,5.95,9.69,6.19,9.58,6.3C9.4,6.49,9.25,6.61,9.13,6.66C9.04,6.7,8.94,6.73,8.83,6.73
			c-0.09,0-0.23-0.04-0.42-0.13C8.27,6.54,8.16,6.51,8.05,6.51c-0.2,0-0.36,0.06-0.49,0.18C7.43,6.81,7.37,6.96,7.37,7.15
			c0,0.18,0.06,0.32,0.18,0.43c0.12,0.11,0.28,0.16,0.48,0.16c0.2,0,0.38-0.04,0.55-0.12c0.17-0.08,0.39-0.24,0.65-0.49
			c0.26-0.25,0.62-0.65,1.07-1.19c0.18,0.52,0.33,0.89,0.46,1.13c0.13,0.24,0.28,0.4,0.44,0.51c0.17,0.1,0.37,0.16,0.62,0.16
			c0.24,0,0.49-0.08,0.74-0.25c0.33-0.21,0.66-0.58,1.01-1.09l-0.21-0.11c-0.23,0.31-0.41,0.5-0.52,0.57
			c-0.07,0.05-0.16,0.07-0.26,0.07c-0.12,0-0.24-0.07-0.36-0.21c-0.2-0.24-0.46-0.91-0.8-2C11.71,4.23,11.96,3.91,12.16,3.76z
			 M6.37,5.83l0.68-2.53h0.83l0.2-0.64H7.24C7.48,1.75,7.8,1.07,8.2,0.65c0.24-0.27,0.48-0.4,0.71-0.4c0.05,0,0.08,0.01,0.11,0.04
			c0.03,0.03,0.04,0.06,0.04,0.1c0,0.04-0.03,0.11-0.1,0.21c-0.06,0.1-0.1,0.2-0.1,0.29c0,0.13,0.05,0.24,0.15,0.33
			c0.1,0.09,0.23,0.14,0.39,0.14c0.17,0,0.31-0.06,0.42-0.17C9.94,1.07,10,0.92,10,0.73c0-0.21-0.08-0.39-0.25-0.52
			C9.57,0.07,9.3,0,8.93,0C8.34,0,7.81,0.16,7.34,0.48C6.86,0.8,6.41,1.33,5.98,2.07C5.83,2.33,5.69,2.49,5.56,2.56
			c-0.13,0.07-0.35,0.11-0.64,0.1L4.73,3.31h0.81L4.35,7.68c-0.2,0.72-0.33,1.16-0.4,1.33c-0.1,0.24-0.26,0.45-0.46,0.62
			C3.4,9.7,3.3,9.73,3.18,9.73c-0.03,0-0.06-0.01-0.08-0.03L3.07,9.67c0-0.02,0.03-0.06,0.09-0.11C3.22,9.5,3.25,9.41,3.25,9.3
			c0-0.13-0.05-0.23-0.14-0.32C3.01,8.89,2.88,8.85,2.7,8.85c-0.21,0-0.38,0.05-0.51,0.16C2.06,9.13,2,9.26,2,9.4
			c0,0.16,0.08,0.3,0.23,0.42C2.39,9.94,2.63,10,2.97,10c0.53,0,0.99-0.13,1.4-0.39c0.41-0.26,0.76-0.65,1.07-1.19
			C5.74,7.89,6.05,7.03,6.37,5.83z M8.71,9.29C8.53,9.11,8.28,9,8,9C7.72,9,7.47,9.11,7.29,9.29l-2,2C5.11,11.47,5,11.72,5,12
			c0,0.55,0.45,1,1,1c0.28,0,0.53-0.11,0.71-0.29L7,12.41V15c0,0.55,0.45,1,1,1c0.55,0,1-0.45,1-1v-2.59l0.29,0.29
			C9.47,12.89,9.72,13,10,13c0.55,0,1-0.45,1-1c0-0.28-0.11-0.53-0.29-0.71L8.71,9.29z"/>
	</g>
</g>
</svg>
