<?xml version="1.0" encoding="utf-8"?>
<!-- Generator: Adobe Illustrator 18.1.0, SVG Export Plug-In . SVG Version: 6.00 Build 0)  -->
<svg version="1.1" id="Layer_1" xmlns="http://www.w3.org/2000/svg" xmlns:xlink="http://www.w3.org/1999/xlink" x="0px" y="0px"
	 viewBox="0 0 16 16" enable-background="new 0 0 16 16" xml:space="preserve">
<g id="pulse">
	<g>
		<path d="M15,8h-1.46l-1.7-2.55l-0.02,0.01C11.64,5.19,11.35,5,11,5c-0.43,0-0.79,0.27-0.93,0.65l-0.01,0l-1.69,4.51L6.99,1.84
			l-0.02,0C6.89,1.37,6.5,1,6,1C5.59,1,5.23,1.25,5.08,1.61l0,0l0,0c0,0,0,0,0,0L2.34,8H1C0.45,8,0,8.45,0,9c0,0.55,0.45,1,1,1h2
			c0.41,0,0.77-0.25,0.92-0.61l0,0l0,0c0,0,0,0,0,0l1.65-3.86l1.44,8.63l0.02,0C7.11,14.63,7.5,15,8,15c0.43,0,0.79-0.27,0.93-0.65
			l0.01,0l2.31-6.17l0.92,1.38l0.02-0.01C12.36,9.81,12.65,10,13,10h2c0.55,0,1-0.45,1-1C16,8.45,15.55,8,15,8z"/>
	</g>
</g>
</svg>
