<?xml version="1.0" encoding="utf-8"?>
<!-- Generator: Adobe Illustrator 18.1.0, SVG Export Plug-In . SVG Version: 6.00 Build 0)  -->
<svg version="1.1" id="Layer_1" xmlns="http://www.w3.org/2000/svg" xmlns:xlink="http://www.w3.org/1999/xlink" x="0px" y="0px"
	 viewBox="0 0 16 16" enable-background="new 0 0 16 16" xml:space="preserve">
<g id="random_1_">
	<g>
		<path fill-rule="evenodd" clip-rule="evenodd" d="M11.48,4h1.11l-0.29,0.29C12.11,4.47,12,4.72,12,5c0,0.55,0.45,1,1,1
			c0.28,0,0.53-0.11,0.71-0.29l2-2C15.89,3.53,16,3.28,16,3c0-0.28-0.11-0.53-0.29-0.71l-2-2C13.53,0.11,13.28,0,13,0
			c-0.55,0-1,0.45-1,1c0,0.28,0.11,0.53,0.29,0.71L12.59,2H11c-0.32,0-0.59,0.16-0.77,0.38l-0.01-0.01L8.28,4.8l1.28,1.6L11.48,4z
			 M13.71,10.29C13.53,10.11,13.28,10,13,10c-0.55,0-1,0.45-1,1c0,0.28,0.11,0.53,0.29,0.71L12.59,12h-1.11l-7.7-9.62L3.77,2.38
			C3.59,2.16,3.32,2,3,2H1C0.45,2,0,2.45,0,3c0,0.55,0.45,1,1,1h1.52l7.7,9.62l0.01-0.01C10.41,13.84,10.68,14,11,14h1.59
			l-0.29,0.29C12.11,14.47,12,14.72,12,15c0,0.55,0.45,1,1,1c0.28,0,0.53-0.11,0.71-0.29l2-2C15.89,13.53,16,13.28,16,13
			c0-0.28-0.11-0.53-0.29-0.71L13.71,10.29z M2.52,12H1c-0.55,0-1,0.45-1,1c0,0.55,0.45,1,1,1h2c0.32,0,0.59-0.16,0.77-0.38
			l0.01,0.01l1.94-2.42L4.44,9.6L2.52,12z"/>
	</g>
</g>
</svg>
