<?xml version="1.0" encoding="utf-8"?>
<!-- Generator: Adobe Illustrator 18.1.0, SVG Export Plug-In . SVG Version: 6.00 Build 0)  -->
<svg version="1.1" id="Layer_1" xmlns="http://www.w3.org/2000/svg" xmlns:xlink="http://www.w3.org/1999/xlink" x="0px" y="0px"
	 viewBox="0 0 16 16" enable-background="new 0 0 16 16" xml:space="preserve">
<g id="redo">
	<g>
		<path fill-rule="evenodd" clip-rule="evenodd" d="M12,11c-1.1,0-2,0.9-2,2s0.9,2,2,2s2-0.9,2-2S13.1,11,12,11z M15.71,4.29l-3-3
			C12.53,1.11,12.28,1,12,1c-0.55,0-1,0.45-1,1c0,0.28,0.11,0.53,0.29,0.71L12.59,4H5C2.24,4,0,6.24,0,9s2.24,5,5,5h4v-2H5
			c-1.66,0-3-1.34-3-3s1.34-3,3-3h7.59l-1.29,1.29C11.11,7.47,11,7.72,11,8c0,0.55,0.45,1,1,1c0.28,0,0.53-0.11,0.71-0.29l3-3
			C15.89,5.53,16,5.28,16,5C16,4.72,15.89,4.47,15.71,4.29z"/>
	</g>
</g>
</svg>
