<svg xmlns="http://www.w3.org/2000/svg" xml:space="preserve" viewBox="0 0 16 16"><path fill-rule="evenodd" d="M14.99 6.99c-.55 0-1 .45-1 1 0 3.31-2.69 6-6 6-1.77 0-3.36-.78-4.46-2h1.46c.55 0 1-.45 1-1s-.45-1-1-1h-4c-.55 0-1 .45-1 1v4c0 .55.45 1 1 1s1-.45 1-1v-1.74a7.95 7.95 0 0 0 6 2.74c4.42 0 8-3.58 8-8 0-.55-.45-1-1-1zm0-7c-.55 0-1 .45-1 1v1.74a7.95 7.95 0 0 0-6-2.74c-4.42 0-8 3.58-8 8 0 .55.45 1 1 1s1-.45 1-1c0-3.31 2.69-6 6-6 1.77 0 3.36.78 4.46 2h-1.46c-.55 0-1 .45-1 1s.45 1 1 1h4c.55 0 1-.45 1-1v-4c0-.55-.45-1-1-1z" clip-rule="evenodd"/></svg>