<?xml version="1.0" encoding="utf-8"?>
<!-- Generator: Adobe Illustrator 17.1.0, SVG Export Plug-In . SVG Version: 6.00 Build 0)  -->
<!DOCTYPE svg PUBLIC "-//W3C//DTD SVG 1.1//EN" "http://www.w3.org/Graphics/SVG/1.1/DTD/svg11.dtd">
<svg version="1.1" id="Layer_1" xmlns="http://www.w3.org/2000/svg" xmlns:xlink="http://www.w3.org/1999/xlink" x="0px" y="0px"
	 viewBox="0 0 16 16" enable-background="new 0 0 16 16" xml:space="preserve">
<g id="refresh_3_">
	<g>
		<path fill-rule="evenodd" clip-rule="evenodd" d="M14.99,6.99c-0.55,0-1,0.45-1,1c0,3.31-2.69,6-6,6c-1.77,0-3.36-0.78-4.46-2
			h1.46c0.55,0,1-0.45,1-1s-0.45-1-1-1h-4c-0.55,0-1,0.45-1,1v4c0,0.55,0.45,1,1,1s1-0.45,1-1v-1.74c1.46,1.67,3.6,2.74,6,2.74
			c4.42,0,8-3.58,8-8C15.99,7.44,15.54,6.99,14.99,6.99z M14.99-0.01c-0.55,0-1,0.45-1,1v1.74c-1.46-1.67-3.6-2.74-6-2.74
			c-4.42,0-8,3.58-8,8c0,0.55,0.45,1,1,1s1-0.45,1-1c0-3.31,2.69-6,6-6c1.77,0,3.36,0.78,4.46,2h-1.46c-0.55,0-1,0.45-1,1
			s0.45,1,1,1h4c0.55,0,1-0.45,1-1v-4C15.99,0.44,15.54-0.01,14.99-0.01z"/>
	</g>
</g>
</svg>
