<svg xmlns="http://www.w3.org/2000/svg" xml:space="preserve" viewBox="0 0 16 16"><path fill-rule="evenodd" d="M13 6.5c0 .83.67 1.5 1.5 1.5S16 7.33 16 6.5 15.33 5 14.5 5 13 5.67 13 6.5zM8.5 5c.83 0 1.5-.67 1.5-1.5S9.33 2 8.5 2 7 2.67 7 3.5 7.67 5 8.5 5zM9 9.5c0 .83.67 1.5 1.5 1.5s1.5-.67 1.5-1.5S11.33 8 10.5 8 9 8.67 9 9.5zM4.5 8C5.33 8 6 7.33 6 6.5S5.33 5 4.5 5 3 5.67 3 6.5 3.67 8 4.5 8zM15 12H3.26l12.03-8.59-.58-.81L2 11.67V3c0-.55-.45-1-1-1s-1 .45-1 1v10c0 .55.45 1 1 1h14c.55 0 1-.45 1-1s-.45-1-1-1z" clip-rule="evenodd"/></svg>