<?xml version="1.0" encoding="utf-8"?>
<!-- Generator: Adobe Illustrator 18.0.0, SVG Export Plug-In . SVG Version: 6.00 Build 0)  -->
<svg version="1.1" id="Layer_1" xmlns="http://www.w3.org/2000/svg" xmlns:xlink="http://www.w3.org/1999/xlink" x="0px" y="0px"
	 viewBox="0 0 16 16" enable-background="new 0 0 16 16" xml:space="preserve">
<g id="regression_chart_1_">
	<g>
		<path fill-rule="evenodd" clip-rule="evenodd" d="M13,6.5C13,7.33,13.67,8,14.5,8S16,7.33,16,6.5S15.33,5,14.5,5S13,5.67,13,6.5z
			 M8.5,5C9.33,5,10,4.33,10,3.5S9.33,2,8.5,2S7,2.67,7,3.5S7.67,5,8.5,5z M9,9.5c0,0.83,0.67,1.5,1.5,1.5S12,10.33,12,9.5
			S11.33,8,10.5,8S9,8.67,9,9.5z M4.5,8C5.33,8,6,7.33,6,6.5S5.33,5,4.5,5S3,5.67,3,6.5S3.67,8,4.5,8z M15,12H3.26l12.03-8.59
			l-0.58-0.81L2,11.67V3c0-0.55-0.45-1-1-1S0,2.45,0,3v10c0,0.55,0.45,1,1,1h14c0.55,0,1-0.45,1-1C16,12.45,15.55,12,15,12z"/>
	</g>
</g>
</svg>
