<?xml version="1.0" encoding="utf-8"?>
<!-- Generator: Adobe Illustrator 18.0.0, SVG Export Plug-In . SVG Version: 6.00 Build 0)  -->
<svg version="1.1" id="Layer_1" xmlns="http://www.w3.org/2000/svg" xmlns:xlink="http://www.w3.org/1999/xlink" x="0px" y="0px"
	 viewBox="0 0 16 16" enable-background="new 0 0 16 16" xml:space="preserve">
<g id="remove_column_left_1_">
	<g>
		<path fill-rule="evenodd" clip-rule="evenodd" d="M4,9h4c0.55,0,1-0.45,1-1S8.55,7,8,7H4C3.45,7,3,7.45,3,8C3,8.55,3.45,9,4,9z
			 M15,0H1C0.45,0,0,0.45,0,1v14c0,0.55,0.45,1,1,1h14c0.55,0,1-0.45,1-1V1C16,0.45,15.55,0,15,0z M10,14H2V2h8V14z M14,14h-3V2h3
			V14z"/>
	</g>
</g>
</svg>
