<?xml version="1.0" encoding="utf-8"?>
<!-- Generator: Adobe Illustrator 18.1.0, SVG Export Plug-In . SVG Version: 6.00 Build 0)  -->
<svg version="1.1" id="Layer_1" xmlns="http://www.w3.org/2000/svg" xmlns:xlink="http://www.w3.org/1999/xlink" x="0px" y="0px"
	 viewBox="0 0 16 16" enable-background="new 0 0 16 16" xml:space="preserve">
<g id="repeat_2_">
	<g>
		<path fill-rule="evenodd" clip-rule="evenodd" d="M10,5c0,0.55,0.45,1,1,1h4c0.55,0,1-0.45,1-1V1c0-0.55-0.45-1-1-1s-1,0.45-1,1
			v1.74C12.54,1.07,10.4,0,8,0C3.58,0,0,3.58,0,8c0,4.06,3.02,7.4,6.94,7.92c0.02,0,0.04,0.01,0.06,0.01C7.33,15.97,7.66,16,8,16
			c4.42,0,8-3.58,8-8c0-0.55-0.45-1-1-1s-1,0.45-1,1c0,3.31-2.69,6-6,6c-0.71,0-1.37-0.15-2-0.38v0.01C3.67,12.81,2,10.61,2,8
			c0-3.31,2.69-6,6-6c1.77,0,3.36,0.78,4.46,2H11C10.45,4,10,4.45,10,5z"/>
	</g>
</g>
</svg>
