<?xml version="1.0" encoding="utf-8"?>
<!-- Generator: Adobe Illustrator 17.1.0, SVG Export Plug-In . SVG Version: 6.00 Build 0)  -->
<!DOCTYPE svg PUBLIC "-//W3C//DTD SVG 1.1//EN" "http://www.w3.org/Graphics/SVG/1.1/DTD/svg11.dtd">
<svg version="1.1" id="Layer_1" xmlns:sketch="http://www.bohemiancoding.com/sketch/ns"
	 xmlns="http://www.w3.org/2000/svg" xmlns:xlink="http://www.w3.org/1999/xlink" x="0px" y="0px" viewBox="0 0 16 16"
	 enable-background="new 0 0 16 16" xml:space="preserve">
<title>Shape</title>
<desc>Created with Sketch.</desc>
<g id="Page-1" sketch:type="MSPage">
	<g id="Artboard-1" transform="translate(0.000000, -3.000000)" sketch:type="MSArtboardGroup">
		<path id="Shape" sketch:type="MSShapeGroup" d="M6.6,6.3C6.1,6.1,5.6,6,5,6c-2.8,0-5,2.2-5,5s2.2,5,5,5c0.6,0,1.1-0.1,1.6-0.3
			c-1.3-1.1-2.1-2.8-2.1-4.7S5.3,7.4,6.6,6.3L6.6,6.3z M8,7c-1.2,0.9-2,2.4-2,4s0.8,3.1,2,4c1.2-0.9,2-2.3,2-4S9.2,7.9,8,7L8,7z
			 M11,6c-0.6,0-1.1,0.1-1.6,0.3c1.3,1.2,2.1,2.9,2.1,4.7s-0.8,3.6-2.1,4.7c0.5,0.2,1,0.3,1.6,0.3c2.8,0,5-2.2,5-5S13.8,6,11,6L11,6
			z"/>
	</g>
</g>
</svg>
