<?xml version="1.0" encoding="utf-8"?>
<!-- Generator: Adobe Illustrator 18.0.0, SVG Export Plug-In . SVG Version: 6.00 Build 0)  -->
<svg version="1.1" id="Layer_1" xmlns="http://www.w3.org/2000/svg" xmlns:xlink="http://www.w3.org/1999/xlink" x="0px" y="0px"
	 viewBox="0 0 16 16" enable-background="new 0 0 16 16" xml:space="preserve">
<g id="rig">
	<g>
		<path fill-rule="evenodd" clip-rule="evenodd" d="M5.71,3c0,1.1,0.96,2,2.14,2C9.04,5,10,3.96,10,3c0-1.96-1.47-3-2.14-3H5
			C5,1.96,7.68,1.4,5.71,3z M8.21,6c0,0,0.01,0.01,0.01,0.01S8.22,6,8.21,6L8.21,6z M14.71,14.29L10,9.59V7c0-0.55-0.45-1-1-1H8.22
			H7c-0.55,0-1,0.45-1,1v2.58l-4.71,4.7C1.11,14.47,1,14.72,1,15c0,0.55,0.45,1,1,1c0.28,0,0.53-0.11,0.71-0.29L6,12.42V15
			c0,0.55,0.45,1,1,1h2c0.55,0,1-0.45,1-1v-2.58l3.29,3.29C13.47,15.89,13.72,16,14,16c0.55,0,1-0.45,1-1
			C15,14.72,14.89,14.47,14.71,14.29z"/>
	</g>
</g>
</svg>
