<?xml version="1.0" encoding="utf-8"?>
<svg width="16" height="16" viewBox="0 0 16 16" fill="none" xmlns="http://www.w3.org/2000/svg">
<path fill-rule="evenodd" clip-rule="evenodd" d="M6.00001 12C4.39749 7.45933 4.4148 4.46549 7.99999 0C11.5852 4.48473 11.6018 7.48025 10 12H6.00001ZM9 5C9 5.55228 8.55228 6 8 6C7.44771 6 7 5.55228 7 5C7 4.44772 7.44771 4 8 4C8.55228 4 9 4.44772 9 5ZM2 13.0224L5 12.0224L4.94611 11.8643C4.63537 10.9542 4.07641 9.31711 4 8L3 9L2 13.0224ZM11 12.0224L14 13.0224L13 9L12 8C11.9236 9.31711 11.3646 10.9542 11.0539 11.8643L11 12.0224ZM7 13.0001V13H9V13.0001C9 14.5001 8.5 15.5 8 16C7.5 15.5 7 14.5001 7 13.0001Z" fill="black"/>
</svg>
