<svg xmlns="http://www.w3.org/2000/svg" width="16" height="16"><path fill-rule="nonzero" d="m11.669 5.066.099.189c.113.213.236.434.367.661.226.39.468.78.709 1.151l-.198-.004-.48-.004c-1.745.003-2.369.233-2.369.688 0 .053.226.19 1.038.436l.84.24C13.9 9.064 15 9.83 15 11.63c0 2.123-1.607 3.122-4.027 3.366-.651.065-1.266.075-2.043.05l-.958-.035H5.196l.268-.406c.336-.517.672-1.052.998-1.593h1.636l.572.023c.857.036 1.475.034 2.103-.03 1.526-.153 2.227-.59 2.227-1.375 0-.531-.402-.84-1.66-1.22l-.691-.198c-1.04-.293-1.764-.562-2.222-.946C8.8 8.366 9 7.612 9 6.997a5.03 5.03 0 0 0-.184-1.334c.645-.395 1.598-.562 2.853-.597ZM4 3a4.007 4.007 0 0 1 4 3.997C8 9.21 4 15 4 15l-.416-.62C2.56 12.827 0 8.767 0 6.997A4.002 4.002 0 0 1 4 3Zm0 2a2 2 0 1 0 .001 4.001A2 2 0 0 0 4 5Zm10-4c1.103 0 1.996.896 2 1.999C16 4.105 14 7 14 7l-.293-.44C13.15 5.707 12 3.838 12 2.999 12 1.896 12.897 1 14 1Z"/></svg>