<?xml version="1.0" encoding="utf-8"?>
<!-- Generator: Adobe Illustrator 18.0.0, SVG Export Plug-In . SVG Version: 6.00 Build 0)  -->
<svg version="1.1" id="Layer_1" xmlns="http://www.w3.org/2000/svg" xmlns:xlink="http://www.w3.org/1999/xlink" x="0px" y="0px"
	 viewBox="0 0 16 16" enable-background="new 0 0 16 16" xml:space="preserve">
<g id="satellite_1_">
	<g id="pt-icon-satellite_1_">
		<g id="Group-3" transform="translate(-1.000000, 5.000000)">
		</g>
		<path id="Combined-Shape_1_" d="M3,9c0-0.6,0.4-1,1-1s1,0.4,1,1c0,1.1,0.9,2,2,2c0.6,0,1,0.4,1,1s-0.4,1-1,1C4.8,13,3,11.2,3,9z
			 M0,9c0-0.6,0.4-1,1-1s1,0.4,1,1c0,2.8,2.2,5,5,5c0.6,0,1,0.4,1,1s-0.4,1-1,1C3.1,16,0,12.9,0,9z M7,10c-0.6,0-1-0.4-1-1
			s0.4-1,1-1s1,0.4,1,1S7.6,10,7,10z M8.3,7.2c-0.4-0.4-0.4-1,0-1.4l4.5-4.5c0.4-0.4,1-0.4,1.4,0l0.5,0.5c0.4,0.4,0.4,1,0,1.4
			l-4.5,4.5c-0.4,0.4-1,0.4-1.4,0L8.3,7.2z M5.2,0.3c0.4-0.4,1-0.4,1.4,0l2.1,2.1c0.4,0.4,0.4,1,0,1.4L7.8,4.7c-0.4,0.4-1,0.4-1.4,0
			L4.3,2.6c-0.4-0.4-0.4-1,0-1.4L5.2,0.3z M12.2,7.3c0.4-0.4,1-0.4,1.4,0l2.1,2.1c0.4,0.4,0.4,1,0,1.4l-0.9,0.9
			c-0.4,0.4-1,0.4-1.4,0l-2.1-2.1c-0.4-0.4-0.4-1,0-1.4L12.2,7.3z"/>
	</g>
</g>
</svg>
