<svg xmlns="http://www.w3.org/2000/svg" xml:space="preserve" viewBox="0 0 16 16"><path d="M3 9c0-.6.4-1 1-1s1 .4 1 1c0 1.1.9 2 2 2 .6 0 1 .4 1 1s-.4 1-1 1c-2.2 0-4-1.8-4-4zM0 9c0-.6.4-1 1-1s1 .4 1 1c0 2.8 2.2 5 5 5 .6 0 1 .4 1 1s-.4 1-1 1c-3.9 0-7-3.1-7-7zm7 1c-.6 0-1-.4-1-1s.4-1 1-1 1 .4 1 1-.4 1-1 1zm1.3-2.8c-.4-.4-.4-1 0-1.4l4.5-4.5c.4-.4 1-.4 1.4 0l.5.5c.4.4.4 1 0 1.4l-4.5 4.5c-.4.4-1 .4-1.4 0l-.5-.5zM5.2.3c.4-.4 1-.4 1.4 0l2.1 2.1c.4.4.4 1 0 1.4l-.9.9c-.4.4-1 .4-1.4 0L4.3 2.6c-.4-.4-.4-1 0-1.4l.9-.9zm7 7c.4-.4 1-.4 1.4 0l2.1 2.1c.4.4.4 1 0 1.4l-.9.9c-.4.4-1 .4-1.4 0l-2.1-2.1c-.4-.4-.4-1 0-1.4l.9-.9z"/></svg>