<?xml version="1.0" encoding="utf-8"?>
<!-- Generator: Adobe Illustrator 18.1.0, SVG Export Plug-In . SVG Version: 6.00 Build 0)  -->
<svg version="1.1" id="Layer_1" xmlns="http://www.w3.org/2000/svg" xmlns:xlink="http://www.w3.org/1999/xlink" x="0px" y="0px"
	 viewBox="0 0 16 16" enable-background="new 0 0 16 16" xml:space="preserve">
<g id="saved">
	<g>
		<path fill-rule="evenodd" clip-rule="evenodd" d="M6.71,9.29C6.53,9.11,6.28,9,6,9c-0.55,0-1,0.45-1,1c0,0.28,0.11,0.53,0.29,0.71
			l2,2C7.47,12.89,7.72,13,8,13c0.39,0,0.72-0.23,0.89-0.56l0.01,0l2-4l-0.01,0C10.95,8.31,11,8.16,11,8c0-0.55-0.45-1-1-1
			C9.61,7,9.28,7.23,9.11,7.56l-0.01,0l-1.38,2.76L6.71,9.29z M9,0H3C2.45,0,2,0.45,2,1v14c0,0.55,0.45,1,1,1h10c0.55,0,1-0.45,1-1
			V5L9,0z M12,14H4V2h4v4h4V14z"/>
	</g>
</g>
</svg>
