<?xml version="1.0" encoding="utf-8"?>
<!-- Generator: Adobe Illustrator 17.1.0, SVG Export Plug-In . SVG Version: 6.00 Build 0)  -->
<!DOCTYPE svg PUBLIC "-//W3C//DTD SVG 1.1//EN" "http://www.w3.org/Graphics/SVG/1.1/DTD/svg11.dtd">
<svg version="1.1" id="Layer_1" xmlns="http://www.w3.org/2000/svg" xmlns:xlink="http://www.w3.org/1999/xlink" x="0px" y="0px"
	 viewBox="0 0 16 16" enable-background="new 0 0 16 16" xml:space="preserve">
<g id="search_text_2_">
	<g>
		<path fill-rule="evenodd" clip-rule="evenodd" d="M9,4H5C4.45,4,4,4.45,4,5c0,0.55,0.45,1,1,1h1v3c0,0.55,0.45,1,1,1s1-0.45,1-1V6
			h1c0.55,0,1-0.45,1-1C10,4.45,9.55,4,9,4z M15.56,13.44l-2.67-2.67C13.59,9.68,14,8.39,14,7c0-3.87-3.13-7-7-7S0,3.13,0,7
			c0,3.87,3.13,7,7,7c1.39,0,2.68-0.41,3.77-1.11l2.67,2.67C13.71,15.83,14.09,16,14.5,16c0.83,0,1.5-0.67,1.5-1.5
			C16,14.09,15.83,13.71,15.56,13.44z M7,12c-2.76,0-5-2.24-5-5s2.24-5,5-5s5,2.24,5,5S9.76,12,7,12z"/>
	</g>
</g>
</svg>
