<?xml version="1.0" encoding="utf-8"?>
<!-- Generator: Adobe Illustrator 17.1.0, SVG Export Plug-In . SVG Version: 6.00 Build 0)  -->
<!DOCTYPE svg PUBLIC "-//W3C//DTD SVG 1.1//EN" "http://www.w3.org/Graphics/SVG/1.1/DTD/svg11.dtd">
<svg version="1.1" id="Layer_1" xmlns="http://www.w3.org/2000/svg" xmlns:xlink="http://www.w3.org/1999/xlink" x="0px" y="0px"
	 viewBox="0 0 16 16" enable-background="new 0 0 16 16" xml:space="preserve">
<g id="search_template_1_">
	<g>
		<path fill-rule="evenodd" clip-rule="evenodd" d="M15.55,13.43l-2.67-2.67c0.7-1.09,1.11-2.38,1.11-3.77c0-3.87-3.13-7-7-7
			s-7,3.13-7,7s3.13,7,7,7c1.39,0,2.68-0.41,3.77-1.11l2.67,2.67c0.27,0.27,0.65,0.44,1.06,0.44c0.83,0,1.5-0.67,1.5-1.5
			C15.99,14.08,15.82,13.7,15.55,13.43z M6.99,11.99c-2.76,0-5-2.24-5-5s2.24-5,5-5s5,2.24,5,5S9.75,11.99,6.99,11.99z M9.49,5.99
			h-5c-0.28,0-0.5,0.22-0.5,0.5s0.22,0.5,0.5,0.5h5c0.28,0,0.5-0.22,0.5-0.5S9.77,5.99,9.49,5.99z M9.49,3.99h-5
			c-0.28,0-0.5,0.22-0.5,0.5s0.22,0.5,0.5,0.5h5c0.28,0,0.5-0.22,0.5-0.5S9.77,3.99,9.49,3.99z M9.49,7.99h-5
			c-0.28,0-0.5,0.22-0.5,0.5s0.22,0.5,0.5,0.5h5c0.28,0,0.5-0.22,0.5-0.5S9.77,7.99,9.49,7.99z"/>
	</g>
</g>
</svg>
