<svg xmlns="http://www.w3.org/2000/svg" xml:space="preserve" viewBox="0 0 16 16"><path fill-rule="evenodd" d="m15.55 13.43-2.67-2.67c.7-1.09 1.11-2.38 1.11-3.77 0-3.87-3.13-7-7-7s-7 3.13-7 7 3.13 7 7 7c1.39 0 2.68-.41 3.77-1.11l2.67 2.67a1.498 1.498 0 1 0 2.12-2.12zm-8.56-1.44c-2.76 0-5-2.24-5-5s2.24-5 5-5 5 2.24 5 5-2.24 5-5 5zm2.5-6h-5c-.28 0-.5.22-.5.5s.22.5.5.5h5c.28 0 .5-.22.5-.5s-.22-.5-.5-.5zm0-2h-5c-.28 0-.5.22-.5.5s.22.5.5.5h5c.28 0 .5-.22.5-.5s-.22-.5-.5-.5zm0 4h-5c-.28 0-.5.22-.5.5s.22.5.5.5h5c.28 0 .5-.22.5-.5s-.22-.5-.5-.5z" clip-rule="evenodd"/></svg>