<?xml version="1.0" encoding="utf-8"?>
<!-- Generator: Adobe Illustrator 17.1.0, SVG Export Plug-In . SVG Version: 6.00 Build 0)  -->
<!DOCTYPE svg PUBLIC "-//W3C//DTD SVG 1.1//EN" "http://www.w3.org/Graphics/SVG/1.1/DTD/svg11.dtd">
<svg version="1.1" id="Layer_1" xmlns="http://www.w3.org/2000/svg" xmlns:xlink="http://www.w3.org/1999/xlink" x="0px" y="0px"
	 viewBox="0 0 16 16" enable-background="new 0 0 16 16" xml:space="preserve">
<g id="selection_2_">
	<g>
		<path fill-rule="evenodd" clip-rule="evenodd" d="M8,0C3.58,0,0,3.58,0,8s3.58,8,8,8s8-3.58,8-8S12.42,0,8,0z M8,14
			c-3.31,0-6-2.69-6-6s2.69-6,6-6s6,2.69,6,6S11.31,14,8,14z M8,5C6.34,5,5,6.34,5,8s1.34,3,3,3s3-1.34,3-3S9.66,5,8,5z"/>
	</g>
</g>
</svg>
