<?xml version="1.0" encoding="utf-8"?>
<!-- Generator: Adobe Illustrator 18.0.0, SVG Export Plug-In . SVG Version: 6.00 Build 0)  -->
<svg version="1.1" id="Layer_1" xmlns="http://www.w3.org/2000/svg" xmlns:xlink="http://www.w3.org/1999/xlink" x="0px" y="0px"
	 viewBox="0 0 16 16" enable-background="new 0 0 16 16" xml:space="preserve">
<g id="send_to_graph">
	<g>
		<path fill-rule="evenodd" clip-rule="evenodd" d="M6,9H2c-0.55,0-1,0.45-1,1c0,0.55,0.45,1,1,1h1.59l-3.29,3.29
			C0.11,14.47,0,14.72,0,15c0,0.55,0.45,1,1,1c0.28,0,0.53-0.11,0.71-0.29L5,12.41V14c0,0.55,0.45,1,1,1s1-0.45,1-1v-4
			C7,9.45,6.55,9,6,9z M14,9.5c-0.56,0-1.06,0.23-1.42,0.59l-2.13-1.24L8.99,8l3.59-2.09C12.94,6.27,13.44,6.5,14,6.5
			c1.1,0,2-0.9,2-2s-0.9-2-2-2s-2,0.9-2,2c0,0.19,0.03,0.37,0.08,0.54L8.5,7.13v-3.2C9.36,3.71,10,2.93,10,2c0-1.1-0.9-2-2-2
			S6,0.9,6,2c0,0.93,0.64,1.71,1.5,1.93v3.2L6.62,6.61l-2.7-1.57C3.97,4.87,4,4.69,4,4.5c0-1.1-0.9-2-2-2s-2,0.9-2,2s0.9,2,2,2
			c0.56,0,1.06-0.23,1.42-0.59l2.13,1.24l3.84,2.24l2.7,1.57C12.03,11.13,12,11.31,12,11.5c0,1.1,0.9,2,2,2s2-0.9,2-2
			S15.1,9.5,14,9.5z"/>
	</g>
</g>
</svg>
