<?xml version="1.0" encoding="utf-8"?>
<!-- Generator: Adobe Illustrator 18.0.0, SVG Export Plug-In . SVG Version: 6.00 Build 0)  -->
<svg version="1.1" id="Layer_1" xmlns="http://www.w3.org/2000/svg" xmlns:xlink="http://www.w3.org/1999/xlink" x="0px" y="0px"
	 viewBox="0 0 16 16" enable-background="new 0 0 16 16" xml:space="preserve">
<g id="send_to_map">
	<g>
		<path fill-rule="evenodd" clip-rule="evenodd" d="M6,9H2c-0.55,0-1,0.45-1,1c0,0.55,0.45,1,1,1h1.59l-3.29,3.29
			C0.11,14.47,0,14.72,0,15c0,0.55,0.45,1,1,1c0.28,0,0.53-0.11,0.71-0.29L5,12.41V14c0,0.55,0.45,1,1,1s1-0.45,1-1v-4
			C7,9.45,6.55,9,6,9z M15.55,3.17L15.55,3.17l-4.49-3c0,0,0,0,0,0l0,0l0,0C10.9,0.06,10.71,0,10.5,0c-0.19,0-0.36,0.06-0.51,0.15
			l0,0L5.53,2.82L1.56,0.17c0,0,0,0,0,0l0,0l0,0C1.4,0.06,1.21,0,1,0C0.45,0,0,0.45,0,1v6h2V2.87l2.94,1.96c0,0,0,0,0,0l0,0l0,0
			C4.96,4.84,4.98,4.85,5,4.86V7h1V4.86c0,0,0.01,0,0.01-0.01l0,0L10,2.47v8.67c0,0-0.01,0-0.01,0.01l0,0L9,11.73v2.33l1.47-0.88
			l3.97,2.65c0,0,0,0,0,0l0,0l0,0C14.6,15.94,14.79,16,15,16c0.55,0,1-0.45,1-1V4C16,3.65,15.82,3.35,15.55,3.17z M14,13.13
			l-2.94-1.96c0,0,0,0,0,0l0,0l0,0c-0.02-0.01-0.04-0.02-0.05-0.03v-8.6l3,2V13.13z"/>
	</g>
</g>
</svg>
