<svg xmlns="http://www.w3.org/2000/svg" xml:space="preserve" viewBox="0 0 16 16"><path fill-rule="evenodd" d="M6 9H2c-.55 0-1 .45-1 1s.45 1 1 1h1.59L.3 14.29c-.19.18-.3.43-.3.71a1.003 1.003 0 0 0 1.71.71L5 12.41V14c0 .55.45 1 1 1s1-.45 1-1v-4c0-.55-.45-1-1-1zm8 .5c-.56 0-1.06.23-1.42.59l-2.13-1.24L8.99 8l3.59-2.09A2.002 2.002 0 0 0 16 4.5c0-1.1-.9-2-2-2s-2 .9-2 2c0 .19.03.37.08.54L8.5 7.13v-3.2c.86-.22 1.5-1 1.5-1.93 0-1.1-.9-2-2-2S6 .9 6 2c0 .93.64 1.71 1.5 1.93v3.2l-.88-.52-2.7-1.57c.05-.17.08-.35.08-.54 0-1.1-.9-2-2-2s-2 .9-2 2 .9 2 2 2c.56 0 1.06-.23 1.42-.59l2.13 1.24 3.84 2.24 2.7 1.57c-.06.17-.09.35-.09.54 0 1.1.9 2 2 2s2-.9 2-2-.9-2-2-2z" clip-rule="evenodd"/></svg>