<svg xmlns="http://www.w3.org/2000/svg" xml:space="preserve" viewBox="0 0 16 16"><path fill-rule="evenodd" d="M6 9H2c-.55 0-1 .45-1 1s.45 1 1 1h1.59L.3 14.29c-.19.18-.3.43-.3.71a1.003 1.003 0 0 0 1.71.71L5 12.41V14c0 .55.45 1 1 1s1-.45 1-1v-4c0-.55-.45-1-1-1zm9.55-5.83-4.49-3A.975.975 0 0 0 9.99.15L5.53 2.82 1.56.17A1.003 1.003 0 0 0 0 1v6h2V2.87l2.94 1.96.06.03V7h1V4.86s.01 0 .01-.01L10 2.47v8.67s-.01 0-.01.01l-.99.58v2.33l1.47-.88 3.97 2.65A1.003 1.003 0 0 0 16 15V4c0-.35-.18-.65-.45-.83zM14 13.13l-2.94-1.96c-.02-.01-.04-.02-.05-.03v-8.6l3 2v8.59z" clip-rule="evenodd"/></svg>