<svg xmlns="http://www.w3.org/2000/svg" xml:space="preserve" viewBox="0 0 16 16"><path d="M10.66 7.92c.44.54 1.07.91 1.8 1.03L9.71 11.7c-.18.19-.43.3-.71.3s-.53-.11-.71-.3L5 8.41l-3 3V13h13c.55 0 1 .45 1 1s-.45 1-1 1H1c-.55 0-1-.45-1-1V4c0-.55.45-1 1-1s1 .45 1 1v4.59l2.29-2.3C4.47 6.11 4.72 6 5 6s.53.11.71.29L9 9.59l1.66-1.67zM12.3 5.3l.3-.3H8c-.6 0-1-.4-1-1s.4-1 1-1h4.6l-.3-.3c-.2-.2-.3-.4-.3-.7 0-.6.5-1 1-1 .3 0 .5.1.7.3l2 2c.2.2.3.4.3.7s-.1.5-.3.7l-2 2c-.2.2-.4.3-.7.3-.6 0-1-.4-1-1 0-.3.1-.5.3-.7z"/></svg>