<?xml version="1.0" encoding="utf-8"?>
<!-- Generator: Adobe Illustrator 18.0.0, SVG Export Plug-In . SVG Version: 6.00 Build 0)  -->
<svg version="1.1" id="Layer_1" xmlns="http://www.w3.org/2000/svg" xmlns:xlink="http://www.w3.org/1999/xlink" x="0px" y="0px"
	 viewBox="0 0 16 16" enable-background="new 0 0 16 16" xml:space="preserve">
<path id="series:_derived_2_" d="M10.66,7.92c0.44,0.54,1.07,0.91,1.8,1.03l-2.75,2.75C9.53,11.89,9.28,12,9,12s-0.53-0.11-0.71-0.3
	L5,8.41l-3,3V13h13c0.55,0,1,0.45,1,1s-0.45,1-1,1H1c-0.55,0-1-0.45-1-1V4c0-0.55,0.45-1,1-1s1,0.45,1,1v4.59l2.29-2.3
	C4.47,6.11,4.72,6,5,6s0.53,0.11,0.71,0.29L9,9.59L10.66,7.92z M12.3,5.3L12.6,5H8C7.4,5,7,4.6,7,4s0.4-1,1-1h4.6l-0.3-0.3
	C12.1,2.5,12,2.3,12,2c0-0.6,0.5-1,1-1c0.3,0,0.5,0.1,0.7,0.3l2,2C15.9,3.5,16,3.7,16,4s-0.1,0.5-0.3,0.7l-2,2C13.5,6.9,13.3,7,13,7
	c-0.6,0-1-0.4-1-1C12,5.7,12.1,5.5,12.3,5.3z"/>
</svg>
