<?xml version="1.0" encoding="utf-8"?>
<!-- Generator: Adobe Illustrator 18.0.0, SVG Export Plug-In . SVG Version: 6.00 Build 0)  -->
<svg version="1.1" id="Layer_1" xmlns="http://www.w3.org/2000/svg" xmlns:xlink="http://www.w3.org/1999/xlink" x="0px" y="0px"
	 viewBox="0 0 16 16" enable-background="new 0 0 16 16" xml:space="preserve">
<path id="series:_filtered_2_" d="M9.29,9.3c0.3,0.62,0.8,1.12,1.42,1.41l-1,1C9.53,11.89,9.28,12,9,12s-0.53-0.11-0.71-0.3L5,8.41
	l-3,3V13h13c0.55,0,1,0.45,1,1s-0.45,1-1,1H1c-0.55,0-1-0.45-1-1V4c0-0.55,0.45-1,1-1s1,0.45,1,1v4.59l2.29-2.3
	C4.47,6.11,4.72,6,5,6s0.53,0.11,0.71,0.29L9,9.59L9.29,9.3z M15.48,1C15.79,1,16,1.26,16,1.57c0,0.16-0.06,0.3-0.17,0.41
	l-2.86,2.73v2.63c0,0.16-0.06,0.3-0.17,0.41l-0.82,1.1c-0.1,0.1-0.25,0.17-0.41,0.17c-0.31,0-0.57-0.26-0.57-0.57V4.71L8.17,1.98
	C8.06,1.87,8,1.73,8,1.57C8,1.26,8.26,1,8.57,1H15.48z"/>
</svg>
