<svg xmlns="http://www.w3.org/2000/svg" xml:space="preserve" viewBox="0 0 16 16"><path d="M9.94 9.64c.65.23 1.34.36 2.06.36.14 0 .29-.01.43-.01L9.7 12.71c-.18.18-.43.29-.71.29-.28 0-.53-.11-.71-.3L5 9.41l-3 3V14h12.99c.55 0 1 .45 1 1s-.45 1-1 1H1c-.55 0-1-.45-1-1V5c0-.55.45-1 1-1s1 .45 1 1v4.59l2.29-2.3C4.47 7.11 4.72 7 5 7c.28 0 .53.11.71.29L9 10.59l.94-.95zm4.73-6.44h.92c.22 0 .4.18.4.4v.8c0 .22-.18.4-.4.4h-.93c-.06.2-.14.38-.24.55l.66.65c.15.15.15.4 0 .55l-.54.55c-.15.15-.4.15-.55 0l-.65-.65c-.17.1-.36.18-.55.24v.91c0 .22-.18.4-.4.4h-.8c-.22 0-.4-.18-.4-.4v-.93c-.18-.06-.36-.13-.52-.22l-.68.68c-.15.16-.41.16-.57 0l-.56-.56a.417.417 0 0 1 0-.57l.68-.68c-.08-.16-.16-.33-.22-.52h-.93c-.22 0-.4-.18-.4-.4v-.8c0-.22.18-.4.4-.4h.93c.06-.2.14-.38.24-.55l-.65-.64a.392.392 0 0 1 0-.55l.54-.55a.38.38 0 0 1 .54 0l.65.65c.18-.1.36-.18.55-.24V.4c0-.22.18-.4.4-.4h.8c.22 0 .4.18.4.4v.93c.18.06.35.14.52.22l.68-.68c.15-.16.41-.16.57 0l.57.57c.15.16.15.41 0 .57l-.68.68c.09.16.16.33.22.51zm-4.18.8c0 .83.67 1.5 1.5 1.5s1.5-.67 1.5-1.5-.67-1.5-1.5-1.5c-.82 0-1.5.67-1.5 1.5z"/></svg>