<svg xmlns="http://www.w3.org/2000/svg" xml:space="preserve" viewBox="0 0 16 16"><path d="M9.29 9.3c.3.62.8 1.12 1.42 1.41l-1 1c-.18.18-.43.29-.71.29s-.53-.11-.71-.3L5 8.41l-3 3V13h13c.55 0 1 .45 1 1s-.45 1-1 1H1c-.55 0-1-.45-1-1V4c0-.55.45-1 1-1s1 .45 1 1v4.59l2.29-2.3C4.47 6.11 4.72 6 5 6s.53.11.71.29L9 9.59l.29-.29zM15.48 1c.31 0 .52.26.52.57 0 .16-.06.3-.17.41l-2.86 2.73v2.63c0 .16-.06.3-.17.41l-.82 1.1c-.1.1-.25.17-.41.17-.31 0-.57-.26-.57-.57V4.71L8.17 1.98A.566.566 0 0 1 8 1.57c0-.31.26-.57.57-.57h6.91z"/></svg>