<svg xmlns="http://www.w3.org/2000/svg" xml:space="preserve" viewBox="0 0 16 16"><path d="M9.6 8.94a4.937 4.937 0 0 0 1.82.01c.1-.01.22-.04.39-.08l.23-.07c.04-.01.08-.02.11-.04l.22.22-2.7 2.72c-.18.19-.43.3-.71.3s-.53-.11-.71-.3L4.98 8.41l-2.99 3V13h12.94c.55 0 1 .45 1 1s-.45 1-1 1H1c-.55 0-1-.45-1-1V3.99c0-.55.45-1 1-1s1 .45 1 1v4.59l2.28-2.3c.17-.18.42-.29.7-.29s.53.11.7.29l3.28 3.3.64-.64zm6.22-.41c.1.12.17.27.18.44 0 .34-.27.61-.61.61a.57.57 0 0 1-.43-.18l-2.24-2.25c-.13.08-.26.16-.4.23-.02.01-.05.02-.07.03-.14.06-.27.12-.42.17h-.01c-.14.05-.29.08-.44.11-.04.01-.08.02-.11.02-.15.02-.3.04-.46.04-1.85 0-3.35-1.51-3.35-3.37S8.96 1.01 10.81 1c1.85 0 3.35 1.51 3.35 3.37 0 .16-.02.31-.04.47-.01.04-.01.07-.02.11-.02.15-.05.29-.1.44v.01c-.05.15-.11.28-.17.42-.01.02-.02.05-.03.07-.07.14-.14.27-.23.4l2.25 2.24zm-5.01-1.94c1.22 0 2.21-.99 2.21-2.22 0-1.23-.99-2.22-2.21-2.22S8.6 3.14 8.6 4.37c0 1.22.99 2.22 2.21 2.22z"/></svg>