<?xml version="1.0" encoding="utf-8"?>
<!-- Generator: Adobe Illustrator 18.0.0, SVG Export Plug-In . SVG Version: 6.00 Build 0)  -->
<svg version="1.1" id="Layer_1" xmlns="http://www.w3.org/2000/svg" xmlns:xlink="http://www.w3.org/1999/xlink" x="0px" y="0px"
	 viewBox="0 0 16 16" enable-background="new 0 0 16 16" xml:space="preserve">
<path id="series:_configuration_2_" d="M9.94,9.64C10.59,9.87,11.28,10,12,10c0.14,0,0.29-0.01,0.43-0.01L9.7,12.71
	C9.52,12.89,9.27,13,8.99,13c-0.28,0-0.53-0.11-0.71-0.3L5,9.41l-3,3V14h12.99c0.55,0,1,0.45,1,1s-0.45,1-1,1H1c-0.55,0-1-0.45-1-1
	V5c0-0.55,0.45-1,1-1c0.55,0,1,0.45,1,1v4.59l2.29-2.3C4.47,7.11,4.72,7,5,7c0.28,0,0.53,0.11,0.71,0.29l3.29,3.3L9.94,9.64z
	 M14.67,3.2h0.92c0.22,0,0.4,0.18,0.4,0.4v0.8c0,0.22-0.18,0.4-0.4,0.4h-0.93c-0.06,0.2-0.14,0.38-0.24,0.55L15.08,6
	c0.15,0.15,0.15,0.4,0,0.55l-0.54,0.55c-0.15,0.15-0.4,0.15-0.55,0l-0.65-0.65c-0.17,0.1-0.36,0.18-0.55,0.24V7.6
	c0,0.22-0.18,0.4-0.4,0.4h-0.8c-0.22,0-0.4-0.18-0.4-0.4V6.67c-0.18-0.06-0.36-0.13-0.52-0.22L9.99,7.13
	c-0.15,0.16-0.41,0.16-0.57,0L8.86,6.57C8.71,6.41,8.71,6.16,8.86,6l0.68-0.68C9.46,5.16,9.38,4.99,9.32,4.8H8.39
	c-0.22,0-0.4-0.18-0.4-0.4V3.6c0-0.22,0.18-0.4,0.4-0.4h0.93c0.06-0.2,0.14-0.38,0.24-0.55L8.91,2.01c-0.15-0.15-0.15-0.4,0-0.55
	l0.54-0.55c0.15-0.15,0.39-0.15,0.54,0l0.65,0.65c0.18-0.1,0.36-0.18,0.55-0.24V0.4c0-0.22,0.18-0.4,0.4-0.4h0.8
	c0.22,0,0.4,0.18,0.4,0.4v0.93c0.18,0.06,0.35,0.14,0.52,0.22l0.68-0.68c0.15-0.16,0.41-0.16,0.57,0l0.57,0.57
	c0.15,0.16,0.15,0.41,0,0.57l-0.68,0.68C14.54,2.85,14.61,3.02,14.67,3.2z M10.49,4c0,0.83,0.67,1.5,1.5,1.5
	c0.83,0,1.5-0.67,1.5-1.5c0-0.83-0.67-1.5-1.5-1.5C11.17,2.5,10.49,3.17,10.49,4z"/>
</svg>
