<?xml version="1.0" encoding="utf-8"?>
<!-- Generator: Adobe Illustrator 18.0.0, SVG Export Plug-In . SVG Version: 6.00 Build 0)  -->
<svg version="1.1" id="Layer_1" xmlns="http://www.w3.org/2000/svg" xmlns:xlink="http://www.w3.org/1999/xlink" x="0px" y="0px"
	 viewBox="0 0 16 16" enable-background="new 0 0 16 16" xml:space="preserve">
<path id="series:_add_2_" d="M10.68,7.9c0.44,0.54,1.07,0.92,1.79,1.05l-2.76,2.76C9.53,11.89,9.28,12,9,12s-0.53-0.11-0.71-0.3
	L5,8.41l-3,3V13h13c0.55,0,1,0.45,1,1s-0.45,1-1,1H1c-0.55,0-1-0.45-1-1V4c0-0.55,0.45-1,1-1s1,0.45,1,1v4.59l2.29-2.3
	C4.47,6.11,4.72,6,5,6s0.53,0.11,0.71,0.29L9,9.59L10.68,7.9z M15,3c0.55,0,1,0.45,1,1s-0.45,1-1,1h-1v1c0,0.55-0.45,1-1,1
	s-1-0.45-1-1V5h-1c-0.55,0-1-0.45-1-1s0.45-1,1-1h1V2c0-0.55,0.45-1,1-1s1,0.45,1,1v1H15z"/>
</svg>
