<?xml version="1.0" encoding="utf-8"?>
<!-- Generator: Adobe Illustrator 18.0.0, SVG Export Plug-In . SVG Version: 6.00 Build 0)  -->
<svg version="1.1" id="Layer_1" xmlns="http://www.w3.org/2000/svg" xmlns:xlink="http://www.w3.org/1999/xlink" x="0px" y="0px"
	 viewBox="0 0 16 16" enable-background="new 0 0 16 16" xml:space="preserve">
<path id="series:_search_2_" d="M9.6,8.94c0.31,0.06,0.62,0.09,0.95,0.09c0.2,0,0.4-0.01,0.6-0.04c0.09-0.01,0.16-0.02,0.27-0.04
	c0.1-0.01,0.22-0.04,0.39-0.08l0.23-0.07c0.04-0.01,0.08-0.02,0.11-0.04l0.22,0.22l-2.7,2.72C9.49,11.89,9.24,12,8.96,12
	s-0.53-0.11-0.71-0.3L4.98,8.41l-2.99,3V13h12.94c0.55,0,1,0.45,1,1c0,0.55-0.45,1-1,1H1c-0.55,0-1-0.45-1-1V3.99c0-0.55,0.45-1,1-1
	s1,0.45,1,1v4.59l2.28-2.3C4.45,6.1,4.7,5.99,4.98,5.99S5.51,6.1,5.68,6.28l3.28,3.3L9.6,8.94z M15.82,8.53
	C15.92,8.65,15.99,8.8,16,8.97c0,0.34-0.27,0.61-0.61,0.61c-0.18,0-0.33-0.07-0.43-0.18l-2.24-2.25c-0.13,0.08-0.26,0.16-0.4,0.23
	c-0.02,0.01-0.05,0.02-0.07,0.03c-0.14,0.06-0.27,0.12-0.42,0.17h-0.01c-0.14,0.05-0.29,0.08-0.44,0.11
	c-0.04,0.01-0.08,0.02-0.11,0.02c-0.15,0.02-0.3,0.04-0.46,0.04c-1.85,0-3.35-1.51-3.35-3.37S8.96,1.01,10.81,1
	c1.85,0,3.35,1.51,3.35,3.37c0,0.16-0.02,0.31-0.04,0.47c-0.01,0.04-0.01,0.07-0.02,0.11C14.08,5.1,14.05,5.24,14,5.39v0.01
	c-0.05,0.15-0.11,0.28-0.17,0.42c-0.01,0.02-0.02,0.05-0.03,0.07c-0.07,0.14-0.14,0.27-0.23,0.4L15.82,8.53z M10.81,6.59
	c1.22,0,2.21-0.99,2.21-2.22c0-1.23-0.99-2.22-2.21-2.22c-1.22,0-2.21,0.99-2.21,2.22C8.6,5.59,9.59,6.59,10.81,6.59z"/>
</svg>
