<?xml version="1.0" encoding="utf-8"?>
<!-- Generator: Adobe Illustrator 18.1.0, SVG Export Plug-In . SVG Version: 6.00 Build 0)  -->
<svg version="1.1" id="Layer_1" xmlns="http://www.w3.org/2000/svg" xmlns:xlink="http://www.w3.org/1999/xlink" x="0px" y="0px"
	 viewBox="0 0 16 16" enable-background="new 0 0 16 16" xml:space="preserve">
<g id="settings">
	<g>
		<path fill-rule="evenodd" clip-rule="evenodd" d="M3,1c0-0.55-0.45-1-1-1S1,0.45,1,1v3h2V1z M3,5H1C0.45,5,0,5.45,0,6v2
			c0,0.55,0.45,1,1,1h2c0.55,0,1-0.45,1-1V6C4,5.45,3.55,5,3,5z M15,1c0-0.55-0.45-1-1-1s-1,0.45-1,1v2h2V1z M9,1c0-0.55-0.45-1-1-1
			S7,0.45,7,1v6h2V1z M1,15c0,0.55,0.45,1,1,1s1-0.45,1-1v-5H1V15z M15,4h-2c-0.55,0-1,0.45-1,1v2c0,0.55,0.45,1,1,1h2
			c0.55,0,1-0.45,1-1V5C16,4.45,15.55,4,15,4z M13,15c0,0.55,0.45,1,1,1s1-0.45,1-1V9h-2V15z M9,8H7C6.45,8,6,8.45,6,9v2
			c0,0.55,0.45,1,1,1h2c0.55,0,1-0.45,1-1V9C10,8.45,9.55,8,9,8z M7,15c0,0.55,0.45,1,1,1s1-0.45,1-1v-2H7V15z"/>
	</g>
</g>
</svg>
