<?xml version="1.0" encoding="utf-8"?>
<!-- Generator: Adobe Illustrator 17.1.0, SVG Export Plug-In . SVG Version: 6.00 Build 0)  -->
<!DOCTYPE svg PUBLIC "-//W3C//DTD SVG 1.1//EN" "http://www.w3.org/Graphics/SVG/1.1/DTD/svg11.dtd">
<svg version="1.1" id="Layer_1" xmlns="http://www.w3.org/2000/svg" xmlns:xlink="http://www.w3.org/1999/xlink" x="0px" y="0px"
	 viewBox="0 0 16 16" enable-background="new 0 0 16 16" xml:space="preserve">
<g id="share_2_">
	<g>
		<path fill-rule="evenodd" clip-rule="evenodd" d="M10.99,13.99h-9v-9h4.76l2-2H0.99c-0.55,0-1,0.45-1,1v11c0,0.55,0.45,1,1,1h11
			c0.55,0,1-0.45,1-1V7.24l-2,2V13.99z M14.99-0.01h-5c-0.55,0-1,0.45-1,1s0.45,1,1,1h2.59L7.29,7.28C7.1,7.47,6.99,7.72,6.99,7.99
			c0,0.55,0.45,1,1,1c0.28,0,0.53-0.11,0.71-0.29l5.29-5.29v2.59c0,0.55,0.45,1,1,1s1-0.45,1-1v-5C15.99,0.44,15.54-0.01,14.99-0.01
			z"/>
	</g>
</g>
</svg>
