<svg xmlns="http://www.w3.org/2000/svg" width="16" height="16"><path fill-rule="evenodd" d="M5.44.804 5.2 2H3a1 1 0 0 0-1 1v3.714l-1.08.309a.988.988 0 0 0-.69 1.192c.366 1.432.897 3.324 1.309 4.26a.644.644 0 0 0 .005.01c-.175.01-.356.015-.544.015a.5.5 0 0 0 0 1c2.067 0 3.414-.543 4.161-.917.55.373 1.505.917 2.839.917 1.32 0 2.27-.533 2.822-.905l.004.002c.196.105.48.24.856.374.75.268 1.857.529 3.318.529a.5.5 0 0 0 0-1c-.295 0-.572-.012-.834-.032a.995.995 0 0 0 .308-.458l1.208-3.74a1 1 0 0 0-.677-1.269L14 6.714V3a1 1 0 0 0-1-1h-2.2L10.56.804A1 1 0 0 0 9.58 0H6.42a1 1 0 0 0-.98.804ZM4 6.143l3-.857V4H4v2.143Zm5-.857 3 .857V4H9v1.286Zm-4.036 8.273a.5.5 0 0 1 .527.034c.455.325 1.277.907 2.509.907s2.054-.582 2.51-.907a.5.5 0 0 1 .579-.001l.006.004.036.023c.034.022.09.055.168.097.154.082.394.197.72.313.649.232 1.642.471 2.981.471a.5.5 0 0 1 0 1c-1.46 0-2.568-.261-3.318-.53a6.316 6.316 0 0 1-.856-.373l-.004-.002c-.552.372-1.502.905-2.822.905-1.334 0-2.289-.544-2.839-.917-.747.374-2.094.917-4.161.917a.5.5 0 0 1 0-1c2.129 0 3.384-.63 3.964-.94Z" clip-rule="evenodd"/></svg>