<?xml version="1.0" encoding="utf-8"?>
<!-- Generator: Adobe Illustrator 18.1.0, SVG Export Plug-In . SVG Version: 6.00 Build 0)  -->
<svg version="1.1" id="Layer_1" xmlns="http://www.w3.org/2000/svg" xmlns:xlink="http://www.w3.org/1999/xlink" x="0px" y="0px"
	 viewBox="0 0 16 16" enable-background="new 0 0 16 16" xml:space="preserve">
<g id="shopping_cart">
	<g>
		<path fill-rule="evenodd" clip-rule="evenodd" d="M14,10H7.72L7.39,9H13c0.39,0,0.72-0.23,0.89-0.56l0.01,0l2-4l-0.01,0
			C15.95,4.31,16,4.16,16,4c0-0.55-0.45-1-1-1H5.39L4.95,1.68l-0.01,0C4.8,1.29,4.44,1,4,1H1C0.45,1,0,1.45,0,2c0,0.55,0.45,1,1,1
			h2.28l2.33,7H4c-1.1,0-2,0.9-2,2c0,1.1,0.9,2,2,2s2-0.9,2-2h6c0,1.1,0.9,2,2,2s2-0.9,2-2C16,10.9,15.1,10,14,10z M6.05,5h7.33
			l-1,2H6.72L6.05,5z"/>
	</g>
</g>
</svg>
