<?xml version="1.0" encoding="utf-8"?>
<!-- Generator: Adobe Illustrator 18.1.0, SVG Export Plug-In . SVG Version: 6.00 Build 0)  -->
<svg version="1.1" id="Layer_1" xmlns="http://www.w3.org/2000/svg" xmlns:xlink="http://www.w3.org/1999/xlink" x="0px" y="0px"
	 viewBox="0 0 16 16" enable-background="new 0 0 16 16" xml:space="preserve">
<g id="shop">
	<g>
		<path fill-rule="evenodd" clip-rule="evenodd" d="M3,2h10c0.55,0,1-0.45,1-1c0-0.55-0.45-1-1-1H3C2.45,0,2,0.45,2,1
			C2,1.55,2.45,2,3,2z M12,13H4v-3H2v5c0,0.55,0.45,1,1,1h10c0.55,0,1-0.45,1-1v-5h-2V13z M16,7l-1.01-3.17C14.9,3.36,14.49,3,14,3
			H2C1.51,3,1.1,3.36,1.02,3.83L0.01,7H0c0,1.1,0.9,2,2,2s2-0.9,2-2c0,1.1,0.9,2,2,2s2-0.9,2-2c0,1.1,0.9,2,2,2s2-0.9,2-2
			c0,1.1,0.9,2,2,2S16,8.1,16,7L16,7z"/>
	</g>
</g>
</svg>
