<?xml version="1.0" encoding="utf-8"?>
<!-- Generator: Adobe Illustrator 17.1.0, SVG Export Plug-In . SVG Version: 6.00 Build 0)  -->
<!DOCTYPE svg PUBLIC "-//W3C//DTD SVG 1.1//EN" "http://www.w3.org/Graphics/SVG/1.1/DTD/svg11.dtd">
<svg version="1.1" id="Layer_1" xmlns:sketch="http://www.bohemiancoding.com/sketch/ns"
	 xmlns="http://www.w3.org/2000/svg" xmlns:xlink="http://www.w3.org/1999/xlink" x="0px" y="0px" viewBox="0 0 16 16"
	 enable-background="new 0 0 16 16" xml:space="preserve">
<title>Shape</title>
<desc>Created with Sketch.</desc>
<g id="Page-1" sketch:type="MSPage">
	<g id="Artboard-1" sketch:type="MSArtboardGroup">
		<path id="Shape" sketch:type="MSShapeGroup" d="M9.5,4c0.4,0,0.8-0.1,1.1-0.3C12,4.5,12.9,6,13,7.6l0,0c0,0.5,0.5,0.9,1,0.9
			c0.6,0,1-0.4,1-1c0-0.1,0-0.1,0-0.2c-0.2-2.4-1.5-4.4-3.5-5.5c-0.1-1-0.9-1.8-2-1.8s-2,0.9-2,2S8.4,4,9.5,4L9.5,4z M4,8.5
			c0-0.7-0.4-1.3-0.9-1.7c0.3-1.4,1.2-2.6,2.5-3.3c0.3-0.1,0.6-0.4,0.6-0.9s-0.4-1-1-1c-0.2,0-0.3,0-0.5,0.1c-1.9,1-3.2,2.8-3.6,5
			C0.4,7.1,0,7.8,0,8.5c0,1.1,0.9,2,2,2S4,9.6,4,8.5L4,8.5z M12.8,9.7c-1.1,0-2,0.9-2,2c0,0.1,0,0.2,0,0.3C10,12.6,9,12.9,8,12.9
			c-1.2,0-2.3-0.4-3.2-1.1c-0.2-0.2-0.4-0.3-0.7-0.3c-0.6,0-1,0.4-1,1c0,0.3,0.1,0.6,0.3,0.8l0,0C4.6,14.4,6.2,15,8,15
			c1.5,0,3-0.5,4.1-1.3c0.2,0.1,0.5,0.1,0.7,0.1c1.1,0,2-0.9,2-2S13.9,9.7,12.8,9.7L12.8,9.7z"/>
	</g>
</g>
</svg>
