<svg xmlns="http://www.w3.org/2000/svg" xml:space="preserve" viewBox="0 0 16 16"><path d="M9.5 4c.4 0 .8-.1 1.1-.3C12 4.5 12.9 6 13 7.6c0 .5.5.9 1 .9.6 0 1-.4 1-1v-.2c-.2-2.4-1.5-4.4-3.5-5.5-.1-1-.9-1.8-2-1.8s-2 .9-2 2 .9 2 2 2zM4 8.5c0-.7-.4-1.3-.9-1.7.3-1.4 1.2-2.6 2.5-3.3.3-.1.6-.4.6-.9s-.4-1-1-1c-.2 0-.3 0-.5.1-1.9 1-3.2 2.8-3.6 5C.4 7.1 0 7.8 0 8.5c0 1.1.9 2 2 2s2-.9 2-2zm8.8 1.2c-1.1 0-2 .9-2 2v.3c-.8.6-1.8.9-2.8.9-1.2 0-2.3-.4-3.2-1.1-.2-.2-.4-.3-.7-.3-.6 0-1 .4-1 1 0 .3.1.6.3.8C4.6 14.4 6.2 15 8 15c1.5 0 3-.5 4.1-1.3.2.1.5.1.7.1 1.1 0 2-.9 2-2s-.9-2.1-2-2.1z"/></svg>