<svg xmlns="http://www.w3.org/2000/svg" xml:space="preserve" viewBox="0 0 16 16"><path fill-rule="evenodd" d="M5.99 11.99c-.28 0-.53.11-.71.29l-.29.29V8.99c0-.55-.45-1-1-1s-1 .45-1 1v3.59l-.29-.29a1.003 1.003 0 0 0-1.42 1.42l2 2c.18.18.43.29.71.29.28 0 .53-.11.71-.29l2-2c.18-.18.29-.43.29-.71 0-.56-.45-1.01-1-1.01zM12.7 10h-1.38L9 15.99h1.36l.48-1.33h2.3l.46 1.33H15L12.7 10zm-1.51 3.67.8-2.2h.02l.77 2.2h-1.59zm3.8-7.17h-4.57l4.45-5.12V0H8.34v1.48h4.1L7.99 6.59v1.39h7V6.5z" clip-rule="evenodd"/></svg>