<?xml version="1.0" encoding="utf-8"?>
<!-- Generator: Adobe Illustrator 18.0.0, SVG Export Plug-In . SVG Version: 6.00 Build 0)  -->
<svg version="1.1" id="Layer_1" xmlns="http://www.w3.org/2000/svg" xmlns:xlink="http://www.w3.org/1999/xlink" x="0px" y="0px"
	 viewBox="0 0 16 16" enable-background="new 0 0 16 16" xml:space="preserve">
<g id="sort_numerical_desc">
	<g>
		<path fill-rule="evenodd" clip-rule="evenodd" d="M6,11.99c-0.28,0-0.53,0.11-0.71,0.29L5,12.58V8.99c0-0.55-0.45-1-1-1
			s-1,0.45-1,1v3.59l-0.29-0.29C2.52,12.1,2.28,11.99,2,11.99c-0.55,0-1,0.45-1,1c0,0.28,0.11,0.53,0.29,0.71l2,2
			c0.18,0.18,0.43,0.29,0.71,0.29s0.53-0.11,0.71-0.29v0l2-2v0C6.88,13.52,7,13.27,7,12.99C7,12.44,6.55,11.99,6,11.99z M13.86,2.54
			c-0.09-0.48-0.26-0.9-0.5-1.28c-0.24-0.38-0.56-0.68-0.96-0.91C12,0.12,11.49,0,10.86,0c-0.43,0-0.82,0.07-1.17,0.22
			c-0.35,0.15-0.65,0.35-0.9,0.6C8.54,1.07,8.35,1.37,8.21,1.71c-0.14,0.34-0.2,0.71-0.2,1.11c0,0.31,0.05,0.61,0.15,0.91
			c0.1,0.3,0.26,0.57,0.48,0.8c0.23,0.24,0.52,0.43,0.85,0.58c0.33,0.14,0.68,0.21,1.03,0.21c0.4,0,0.75-0.07,1.05-0.2
			c0.3-0.13,0.57-0.35,0.79-0.66l0.02,0.02c-0.02,0.21-0.05,0.45-0.1,0.73c-0.05,0.27-0.13,0.53-0.25,0.76
			c-0.12,0.24-0.27,0.44-0.47,0.6c-0.19,0.16-0.44,0.25-0.75,0.25c-0.29,0-0.53-0.1-0.72-0.29C9.9,6.35,9.78,6.13,9.72,5.87H8.15
			c0.05,0.34,0.14,0.64,0.29,0.9c0.15,0.26,0.34,0.49,0.57,0.67c0.23,0.18,0.5,0.32,0.8,0.41C10.12,7.95,10.44,8,10.79,8
			c0.58,0,1.08-0.12,1.48-0.36c0.4-0.24,0.73-0.55,0.99-0.93c0.26-0.39,0.44-0.82,0.56-1.29C13.94,4.94,14,4.46,14,3.98
			C14,3.5,13.95,3.02,13.86,2.54z M12.15,3.26c-0.05,0.17-0.14,0.32-0.24,0.46c-0.11,0.13-0.24,0.24-0.41,0.31
			c-0.16,0.08-0.36,0.12-0.58,0.12c-0.21,0-0.39-0.04-0.55-0.13c-0.16-0.08-0.29-0.19-0.39-0.33C9.86,3.55,9.79,3.4,9.74,3.23
			C9.69,3.06,9.66,2.88,9.66,2.69c0-0.18,0.03-0.35,0.08-0.52C9.8,2.01,9.88,1.86,9.99,1.73c0.11-0.13,0.24-0.24,0.4-0.32
			c0.16-0.08,0.33-0.12,0.52-0.12c0.21,0,0.4,0.04,0.56,0.12c0.16,0.08,0.3,0.19,0.41,0.32c0.11,0.14,0.2,0.29,0.26,0.46
			c0.06,0.17,0.09,0.35,0.09,0.52C12.23,2.91,12.2,3.09,12.15,3.26z M11.69,10.57c-0.12,0.15-0.26,0.28-0.44,0.37
			c-0.17,0.09-0.37,0.16-0.58,0.2c-0.22,0.04-0.44,0.05-0.67,0.05v0.92h1.65v3.88h1.33V10h-1.06
			C11.89,10.23,11.81,10.42,11.69,10.57z"/>
	</g>
</g>
</svg>
