<?xml version="1.0" encoding="utf-8"?>
<!-- Generator: Adobe Illustrator 18.0.0, SVG Export Plug-In . SVG Version: 6.00 Build 0)  -->
<svg version="1.1" id="Layer_1" xmlns="http://www.w3.org/2000/svg" xmlns:xlink="http://www.w3.org/1999/xlink" x="0px" y="0px"
	 viewBox="0 0 16 16" enable-background="new 0 0 16 16" xml:space="preserve">
<g id="sort_descending">
	<g>
		<path fill-rule="evenodd" clip-rule="evenodd" d="M5,12c-0.28,0-0.53,0.11-0.71,0.29L4,12.59V9c0-0.55-0.45-1-1-1S2,8.45,2,9v3.59
			l-0.29-0.29C1.53,12.11,1.28,12,1,12c-0.55,0-1,0.45-1,1c0,0.28,0.11,0.53,0.29,0.71l2,2C2.47,15.89,2.72,16,3,16
			s0.53-0.11,0.71-0.29l2-2C5.89,13.53,6,13.28,6,13C6,12.45,5.55,12,5,12z M9,13H8c-0.55,0-1,0.45-1,1c0,0.55,0.45,1,1,1h1
			c0.55,0,1-0.45,1-1C10,13.45,9.55,13,9,13z M13,5H8C7.45,5,7,5.45,7,6c0,0.55,0.45,1,1,1h5c0.55,0,1-0.45,1-1
			C14,5.45,13.55,5,13,5z M11,9H8c-0.55,0-1,0.45-1,1c0,0.55,0.45,1,1,1h3c0.55,0,1-0.45,1-1C12,9.45,11.55,9,11,9z M15,1H8
			C7.45,1,7,1.45,7,2c0,0.55,0.45,1,1,1h7c0.55,0,1-0.45,1-1C16,1.45,15.55,1,15,1z"/>
	</g>
</g>
</svg>
