<?xml version="1.0" encoding="utf-8"?>
<!-- Generator: Adobe Illustrator 18.0.0, SVG Export Plug-In . SVG Version: 6.00 Build 0)  -->
<svg version="1.1" id="Layer_1" xmlns="http://www.w3.org/2000/svg" xmlns:xlink="http://www.w3.org/1999/xlink" x="0px" y="0px"
	 viewBox="0 0 16 16" enable-background="new 0 0 16 16" xml:space="preserve">
<g id="sort_numerical_1_">
	<g>
		<path fill-rule="evenodd" clip-rule="evenodd" d="M6,11.99c-0.28,0-0.53,0.11-0.71,0.29L5,12.58V8.99c0-0.55-0.45-1-1-1
			c-0.55,0-1,0.45-1,1v3.59l-0.29-0.29C2.53,12.11,2.28,11.99,2,11.99c-0.55,0-1,0.45-1,1c0,0.28,0.11,0.53,0.29,0.71l0,0l2,2l0,0
			c0.18,0.18,0.43,0.29,0.71,0.29c0.28,0,0.53-0.11,0.71-0.29l2-2C6.89,13.52,7,13.27,7,12.99C7,12.44,6.55,11.99,6,11.99z
			 M13.91,11.91c-0.06-0.36-0.17-0.68-0.33-0.96c-0.16-0.28-0.37-0.51-0.64-0.69C12.67,10.09,12.33,10,11.91,10
			c-0.28,0-0.54,0.06-0.78,0.17c-0.23,0.11-0.43,0.26-0.6,0.45c-0.17,0.19-0.3,0.41-0.39,0.67c-0.09,0.26-0.14,0.53-0.14,0.83
			c0,0.23,0.03,0.46,0.1,0.69c0.07,0.23,0.17,0.43,0.32,0.6c0.16,0.18,0.34,0.33,0.57,0.43c0.22,0.11,0.45,0.16,0.68,0.16
			c0.26,0,0.5-0.05,0.7-0.15s0.38-0.26,0.53-0.5l0.02,0.02c-0.01,0.16-0.03,0.34-0.07,0.54c-0.03,0.2-0.09,0.4-0.17,0.57
			c-0.08,0.18-0.18,0.33-0.31,0.45c-0.13,0.12-0.29,0.19-0.5,0.19c-0.19,0-0.35-0.07-0.48-0.21c-0.13-0.14-0.21-0.31-0.25-0.5H10.1
			c0.03,0.25,0.1,0.48,0.19,0.68c0.1,0.2,0.22,0.37,0.38,0.5c0.16,0.14,0.33,0.24,0.54,0.31s0.42,0.1,0.65,0.1
			c0.39,0,0.72-0.09,0.99-0.27c0.27-0.18,0.49-0.41,0.66-0.7c0.17-0.29,0.29-0.61,0.37-0.97c0.08-0.36,0.12-0.72,0.12-1.07
			C14,12.63,13.97,12.27,13.91,11.91z M12.77,12.45c-0.04,0.13-0.09,0.24-0.16,0.34c-0.07,0.1-0.16,0.18-0.27,0.24
			c-0.11,0.06-0.24,0.09-0.39,0.09c-0.14,0-0.26-0.03-0.37-0.09c-0.11-0.06-0.19-0.15-0.26-0.25c-0.07-0.1-0.12-0.22-0.15-0.35
			c-0.03-0.13-0.05-0.26-0.05-0.4c0-0.13,0.02-0.26,0.05-0.39c0.04-0.13,0.09-0.24,0.16-0.34c0.07-0.1,0.16-0.18,0.26-0.24
			c0.1-0.06,0.22-0.09,0.35-0.09c0.14,0,0.26,0.03,0.37,0.09c0.11,0.06,0.2,0.14,0.28,0.24c0.07,0.1,0.13,0.22,0.17,0.35
			c0.04,0.13,0.06,0.26,0.06,0.39C12.82,12.19,12.8,12.32,12.77,12.45z M11.21,7.98H13V0h-1.42c-0.05,0.3-0.16,0.56-0.31,0.76
			c-0.16,0.21-0.35,0.37-0.58,0.5c-0.23,0.13-0.49,0.21-0.78,0.26C9.61,1.57,9.31,1.59,9,1.58V2.8h2.21V7.98z"/>
	</g>
</g>
</svg>
