<svg xmlns="http://www.w3.org/2000/svg" xml:space="preserve" viewBox="0 0 16 16"><path fill-rule="evenodd" d="M6 12c-.28 0-.53.11-.71.29l-.29.3V9c0-.55-.45-1-1-1s-1 .45-1 1v3.59l-.29-.29A.965.965 0 0 0 2 12a1.003 1.003 0 0 0-.71 1.71l2 2c.19.18.44.29.71.29.28 0 .53-.11.71-.29l2-2c.18-.18.29-.43.29-.71a.99.99 0 0 0-1-1zm7.93-.95v-1.04H9.25v1.11h2.94L9 14.96V16h5.02v-1.11h-3.27l3.18-3.84zm-1.42-4.84.62 1.78H15L11.94.01H10.1L7 7.99h1.81l.64-1.78h3.06zm-1.52-4.24h.02l1.03 2.93H9.92l1.07-2.93z" clip-rule="evenodd"/></svg>