<svg xmlns="http://www.w3.org/2000/svg" xml:space="preserve" viewBox="0 0 16 16"><path fill-rule="evenodd" d="M6 11.99c-.28 0-.53.11-.71.29l-.29.3V8.99c0-.55-.45-1-1-1s-1 .45-1 1v3.59l-.29-.29a.982.982 0 0 0-.71-.3 1.003 1.003 0 0 0-.71 1.71l2 2c.18.18.43.29.71.29s.53-.11.71-.29l2-2A1.003 1.003 0 0 0 6 11.99zm7.86-9.45c-.09-.48-.26-.9-.5-1.28S12.8.58 12.4.35C12 .12 11.49 0 10.86 0c-.43 0-.82.07-1.17.22s-.65.35-.9.6-.44.55-.58.89c-.14.34-.2.71-.2 1.11 0 .31.05.61.15.91.1.3.26.57.48.8.23.24.52.43.85.58.33.14.68.21 1.03.21.4 0 .75-.07 1.05-.2.3-.13.57-.35.79-.66l.02.02c-.02.21-.05.45-.1.73-.05.27-.13.53-.25.76-.12.24-.27.44-.47.6-.19.16-.44.25-.75.25a.98.98 0 0 1-.72-.29c-.19-.18-.31-.4-.37-.66H8.15c.05.34.14.64.29.9.15.26.34.49.57.67.23.18.5.32.8.41.31.1.63.15.98.15.58 0 1.08-.12 1.48-.36.4-.24.73-.55.99-.93.26-.39.44-.82.56-1.29.12-.48.18-.96.18-1.44s-.05-.96-.14-1.44zm-1.71.72c-.05.17-.14.32-.24.46-.11.13-.24.24-.41.31-.16.08-.36.12-.58.12-.21 0-.39-.04-.55-.13-.16-.08-.29-.19-.39-.33-.12-.14-.19-.29-.24-.46-.05-.17-.08-.35-.08-.54 0-.18.03-.35.08-.52.06-.16.14-.31.25-.44.11-.13.24-.24.4-.32.16-.08.33-.12.52-.12.21 0 .4.04.56.12.16.08.3.19.41.32.11.14.2.29.26.46.06.17.09.35.09.52 0 .2-.03.38-.08.55zm-.46 7.31c-.12.15-.26.28-.44.37-.17.09-.37.16-.58.2-.22.04-.44.05-.67.05v.92h1.65v3.88h1.33V10h-1.06c-.03.23-.11.42-.23.57z" clip-rule="evenodd"/></svg>