<?xml version="1.0" encoding="utf-8"?>
<!-- Generator: Adobe Illustrator 18.0.0, SVG Export Plug-In . SVG Version: 6.00 Build 0)  -->
<svg version="1.1" id="Layer_1" xmlns="http://www.w3.org/2000/svg" xmlns:xlink="http://www.w3.org/1999/xlink" x="0px" y="0px"
	 viewBox="0 0 16 16" enable-background="new 0 0 16 16" xml:space="preserve">
<g id="sort_alphabetical_desc">
	<g>
		<path fill-rule="evenodd" clip-rule="evenodd" d="M5.99,11.99c-0.28,0-0.53,0.11-0.71,0.29v0l-0.29,0.29V8.99c0-0.55-0.45-1-1-1
			c-0.55,0-1,0.45-1,1v3.59L2.7,12.29c-0.18-0.18-0.43-0.29-0.71-0.29c-0.55,0-1,0.45-1,1c0,0.28,0.11,0.53,0.29,0.71l2,2
			c0.18,0.18,0.43,0.29,0.71,0.29c0.28,0,0.53-0.11,0.71-0.29l2-2c0.18-0.18,0.29-0.43,0.29-0.71C6.99,12.44,6.54,11.99,5.99,11.99z
			 M12.7,10h-1.38L9,15.99h1.36l0.48-1.33h2.3l0.46,1.33H15L12.7,10z M11.19,13.67l0.8-2.2h0.02l0.77,2.2H11.19z M14.99,6.5h-4.57
			l4.45-5.12V0H8.34v1.48h4.1L7.99,6.59v1.39h7V6.5z"/>
	</g>
</g>
</svg>
