<?xml version="1.0" encoding="utf-8"?>
<!-- Generator: Adobe Illustrator 18.0.0, SVG Export Plug-In . SVG Version: 6.00 Build 0)  -->
<svg version="1.1" id="Layer_1" xmlns="http://www.w3.org/2000/svg" xmlns:xlink="http://www.w3.org/1999/xlink" x="0px" y="0px"
	 viewBox="0 0 16 16" enable-background="new 0 0 16 16" xml:space="preserve">
<g id="split_columns_1_">
	<g>
		<path fill-rule="evenodd" clip-rule="evenodd" d="M12,10c0,0.55,0.45,1,1,1c0.28,0,0.53-0.11,0.71-0.29l2-2
			C15.89,8.53,16,8.28,16,8c0-0.28-0.11-0.53-0.29-0.71l-2-2C13.53,5.11,13.28,5,13,5c-0.55,0-1,0.45-1,1
			c0,0.28,0.11,0.53,0.29,0.71L12.59,7H9V2h3v1.71c0.31-0.13,0.64-0.21,1-0.21s0.69,0.08,1,0.21V1c0-0.55-0.45-1-1-1H3
			C2.45,0,2,0.45,2,1v2.71C2.31,3.58,2.64,3.5,3,3.5s0.69,0.08,1,0.21V2h3v5H3.41l0.29-0.29C3.89,6.53,4,6.28,4,6c0-0.55-0.45-1-1-1
			C2.72,5,2.47,5.11,2.29,5.29l-2,2C0.11,7.47,0,7.72,0,8c0,0.28,0.11,0.53,0.29,0.71l2,2C2.47,10.89,2.72,11,3,11
			c0.55,0,1-0.45,1-1c0-0.28-0.11-0.53-0.29-0.71L3.41,9H7v5H4v-1.71c-0.31,0.13-0.64,0.21-1,0.21s-0.69-0.08-1-0.21V15
			c0,0.55,0.45,1,1,1h10c0.55,0,1-0.45,1-1v-2.71c-0.31,0.13-0.64,0.21-1,0.21s-0.69-0.08-1-0.21V14H9V9h3.59l-0.29,0.29
			C12.11,9.47,12,9.72,12,10z"/>
	</g>
</g>
</svg>
