<svg xmlns="http://www.w3.org/2000/svg" xml:space="preserve" viewBox="0 0 16 16"><path fill-rule="evenodd" d="M12 10a1.003 1.003 0 0 0 1.71.71l2-2c.18-.18.29-.43.29-.71 0-.28-.11-.53-.29-.71l-2-2a1.003 1.003 0 0 0-1.42 1.42l.3.29H9V2h3v1.71c.31-.13.64-.21 1-.21s.69.08 1 .21V1c0-.55-.45-1-1-1H3c-.55 0-1 .45-1 1v2.71c.31-.13.64-.21 1-.21s.69.08 1 .21V2h3v5H3.41l.29-.29c.19-.18.3-.43.3-.71a1.003 1.003 0 0 0-1.71-.71l-2 2C.11 7.47 0 7.72 0 8c0 .28.11.53.29.71l2 2a1.003 1.003 0 0 0 1.42-1.42L3.41 9H7v5H4v-1.71c-.31.13-.64.21-1 .21s-.69-.08-1-.21V15c0 .55.45 1 1 1h10c.55 0 1-.45 1-1v-2.71c-.31.13-.64.21-1 .21s-.69-.08-1-.21V14H9V9h3.59l-.29.29c-.19.18-.3.43-.3.71z" clip-rule="evenodd"/></svg>