<?xml version="1.0" encoding="utf-8"?>
<!-- Generator: Adobe Illustrator 18.1.0, SVG Export Plug-In . SVG Version: 6.00 Build 0)  -->
<svg version="1.1" id="Layer_1" xmlns="http://www.w3.org/2000/svg" xmlns:xlink="http://www.w3.org/1999/xlink" x="0px" y="0px"
	 viewBox="0 0 16 16" enable-background="new 0 0 16 16" xml:space="preserve">
<g id="stacked_chart_3_">
	<g>
		<path d="M10,2c0-0.55-0.45-1-1-1H8C7.45,1,7,1.45,7,2v3h3V2z M13,12h1c0.55,0,1-0.45,1-1V8h-3v3C12,11.55,12.45,12,13,12z M15,5
			c0-0.55-0.45-1-1-1h-1c-0.55,0-1,0.45-1,1v2h3V5z M10,6H7v3h3V6z M5,7c0-0.55-0.45-1-1-1H3C2.45,6,2,6.45,2,7v1h3V7z M8,12h1
			c0.55,0,1-0.45,1-1v-1H7v1C7,11.55,7.45,12,8,12z M15,13H2c-0.55,0-1,0.45-1,1c0,0.55,0.45,1,1,1h13c0.55,0,1-0.45,1-1
			C16,13.45,15.55,13,15,13z M3,12h1c0.55,0,1-0.45,1-1V9H2v2C2,11.55,2.45,12,3,12z"/>
	</g>
</g>
</svg>
