<?xml version="1.0" encoding="utf-8"?>
<!-- Generator: Adobe Illustrator 18.0.0, SVG Export Plug-In . SVG Version: 6.00 Build 0)  -->
<svg version="1.1" id="Layer_1" xmlns="http://www.w3.org/2000/svg" xmlns:xlink="http://www.w3.org/1999/xlink" x="0px" y="0px"
	 viewBox="0 0 16 16" enable-background="new 0 0 16 16" xml:space="preserve">
<g id="step_chart_1_">
	<g>
		<path fill-rule="evenodd" clip-rule="evenodd" d="M15,12H2v-2h3c0.55,0,1-0.45,1-1V7h2v1c0,0.55,0.45,1,1,1h4c0.55,0,1-0.45,1-1V5
			h1c0.55,0,1-0.45,1-1s-0.45-1-1-1h-2c-0.55,0-1,0.45-1,1v3h-2V6c0-0.55-0.45-1-1-1H5C4.45,5,4,5.45,4,6v2H2V3c0-0.55-0.45-1-1-1
			S0,2.45,0,3v10c0,0.55,0.45,1,1,1h14c0.55,0,1-0.45,1-1S15.55,12,15,12z"/>
	</g>
</g>
</svg>
