<?xml version="1.0" encoding="utf-8"?>
<!-- Generator: Adobe Illustrator 18.1.0, SVG Export Plug-In . SVG Version: 6.00 Build 0)  -->
<svg version="1.1" id="Layer_1" xmlns="http://www.w3.org/2000/svg" xmlns:xlink="http://www.w3.org/1999/xlink" x="0px" y="0px"
	 viewBox="0 0 16 16" enable-background="new 0 0 16 16" xml:space="preserve">
<g id="skip_forward">
	<g>
		<path fill-rule="evenodd" clip-rule="evenodd" d="M12,3h-1c-0.55,0-1,0.45-1,1v2.72l-4.38-3.5L5.62,3.23C5.44,3.09,5.24,3,5,3
			C4.45,3,4,3.45,4,4v8c0,0.55,0.45,1,1,1c0.24,0,0.44-0.09,0.62-0.23l0.01,0.01L10,9.28V12c0,0.55,0.45,1,1,1h1c0.55,0,1-0.45,1-1
			V4C13,3.45,12.55,3,12,3z"/>
	</g>
</g>
</svg>
