<?xml version="1.0" encoding="utf-8"?>
<!-- Generator: Adobe Illustrator 17.1.0, SVG Export Plug-In . SVG Version: 6.00 Build 0)  -->
<!DOCTYPE svg PUBLIC "-//W3C//DTD SVG 1.1//EN" "http://www.w3.org/Graphics/SVG/1.1/DTD/svg11.dtd">
<svg version="1.1" id="Layer_1" xmlns="http://www.w3.org/2000/svg" xmlns:xlink="http://www.w3.org/1999/xlink" x="0px" y="0px"
	 viewBox="0 0 16 16" enable-background="new 0 0 16 16" xml:space="preserve">
<g id="style_2_">
	<g>
		<path fill-rule="evenodd" clip-rule="evenodd" d="M14,14H2V2h8.76l2-2H1C0.45,0,0,0.45,0,1v14c0,0.55,0.45,1,1,1h14
			c0.55,0,1-0.45,1-1V6.24l-2,2V14z M15.4,0L9.7,5.7l2.1,2.1L16,3.6V0H15.4z M4,11.92c2.33,0.15,4.42,0.15,6.15-1.5
			c0.82-0.83,0.82-2.25,0-3.08c-0.45-0.38-0.98-0.6-1.5-0.6c-0.53,0-1.05,0.22-1.43,0.6C6.4,8.25,5.95,10.72,4,11.92z"/>
	</g>
</g>
</svg>
