<?xml version="1.0" encoding="utf-8"?>
<!-- Generator: Adobe Illustrator 18.0.0, SVG Export Plug-In . SVG Version: 6.00 Build 0)  -->
<svg version="1.1" id="Layer_1" xmlns="http://www.w3.org/2000/svg" xmlns:xlink="http://www.w3.org/1999/xlink" x="0px" y="0px"
	 viewBox="0 0 16 16" enable-background="new 0 0 16 16" xml:space="preserve">
<g id="swap:_vertical_1_">
	<g>
		<path fill-rule="evenodd" clip-rule="evenodd" d="M9,0H8.98L9,0.04V0z M7,16h0.02L7,15.95V16z M4.7,1.31
			C4.52,1.13,4.27,1.02,4,1.02S3.47,1.13,3.29,1.31l-3,2.99C0.11,4.49,0,4.74,0,5.01c0,0.55,0.45,1,1,1c0.28,0,0.53-0.11,0.71-0.29
			L3,4.43V14c0,0.55,0.45,1,1,1c0.55,0,1-0.45,1-1V4.43l1.29,1.29C6.47,5.9,6.72,6.01,6.99,6.01c0.55,0,1-0.45,1-1
			c0-0.28-0.11-0.53-0.29-0.71L4.7,1.31z M15,9.99c-0.28,0-0.53,0.11-0.71,0.29L13,11.57V2c0-0.55-0.45-1-1-1c-0.55,0-1,0.45-1,1
			v9.57l-1.29-1.29C9.53,10.1,9.28,9.99,9.01,9.99c-0.55,0-1,0.45-1,1c0,0.28,0.11,0.53,0.29,0.71l3,2.99
			c0.18,0.18,0.43,0.29,0.71,0.29c0.28,0,0.53-0.11,0.71-0.29l3-2.99c0.18-0.18,0.29-0.43,0.29-0.71C16,10.44,15.55,9.99,15,9.99z"
			/>
	</g>
</g>
</svg>
