<svg xmlns="http://www.w3.org/2000/svg" xml:space="preserve" viewBox="0 0 16 16"><path fill-rule="evenodd" d="M9 0h-.02L9 .04V0zM7 16h.02L7 15.95V16zM4.7 1.31c-.18-.18-.43-.29-.7-.29s-.53.11-.71.29l-3 2.99a1.003 1.003 0 0 0 1.42 1.42L3 4.43V14c0 .55.45 1 1 1s1-.45 1-1V4.43l1.29 1.29c.18.18.43.29.7.29A1.003 1.003 0 0 0 7.7 4.3l-3-2.99zM15 9.99c-.28 0-.53.11-.71.29L13 11.57V2c0-.55-.45-1-1-1s-1 .45-1 1v9.57l-1.29-1.29a.99.99 0 0 0-.7-.29 1.003 1.003 0 0 0-.71 1.71l3 2.99c.18.18.43.29.71.29.28 0 .53-.11.71-.29l3-2.99c.18-.18.29-.43.29-.71-.01-.55-.46-1-1.01-1z" clip-rule="evenodd"/></svg>