<svg xmlns="http://www.w3.org/2000/svg" xml:space="preserve" viewBox="0 0 16 16"><path fill-rule="evenodd" d="M0 7.02.05 7H0v.02zm2-2.03h9.57l-1.29 1.29A1.003 1.003 0 0 0 11.7 7.7l2.99-3c.18-.18.29-.43.29-.71 0-.28-.11-.53-.29-.71l-2.99-3a1.07 1.07 0 0 0-.71-.28 1.003 1.003 0 0 0-.71 1.71L11.57 3H2c-.55 0-1 .45-1 1a1 1 0 0 0 1 .99zM15.96 9H16v-.02l-.04.02zM14 11.01H4.43l1.29-1.29A1.003 1.003 0 0 0 4.3 8.3l-2.99 3a.99.99 0 0 0-.29.7c0 .28.11.53.29.71l2.99 3a1.003 1.003 0 0 0 1.42-1.42L4.43 13H14c.55 0 1-.45 1-1s-.45-.99-1-.99z" clip-rule="evenodd"/></svg>