<?xml version="1.0" encoding="utf-8"?>
<!-- Generator: Adobe Illustrator 18.0.0, SVG Export Plug-In . SVG Version: 6.00 Build 0)  -->
<svg version="1.1" id="Layer_1" xmlns="http://www.w3.org/2000/svg" xmlns:xlink="http://www.w3.org/1999/xlink" x="0px" y="0px"
	 viewBox="0 0 16 16" enable-background="new 0 0 16 16" xml:space="preserve">
<g id="swap:_horizontal">
	<g>
		<path fill-rule="evenodd" clip-rule="evenodd" d="M0,7.02L0.05,7H0V7.02z M2,4.99h9.57l-1.29,1.29C10.1,6.47,9.99,6.72,9.99,6.99
			c0,0.55,0.45,1,1,1c0.28,0,0.53-0.11,0.71-0.29l2.99-3c0.18-0.18,0.29-0.43,0.29-0.71c0-0.28-0.11-0.53-0.29-0.71l-2.99-3
			C11.51,0.11,11.26,0,10.99,0c-0.55,0-1,0.45-1,1c0,0.28,0.11,0.53,0.29,0.71L11.57,3H2c-0.55,0-1,0.45-1,1
			C1.01,4.55,1.45,4.99,2,4.99z M15.96,9H16V8.98L15.96,9z M14,11.01H4.43l1.29-1.29C5.9,9.53,6.01,9.28,6.01,9.01
			c0-0.55-0.45-1-1-1c-0.28,0-0.53,0.11-0.71,0.29l-2.99,3C1.13,11.48,1.02,11.73,1.02,12c0,0.28,0.11,0.53,0.29,0.71l2.99,3
			C4.49,15.89,4.74,16,5.01,16c0.55,0,1-0.45,1-1c0-0.28-0.11-0.53-0.29-0.71L4.43,13H14c0.55,0,1-0.45,1-1
			C15,11.45,14.55,11.01,14,11.01z"/>
	</g>
</g>
</svg>
