<svg xmlns="http://www.w3.org/2000/svg" width="16" height="16"><path fill-rule="evenodd" d="M11.146.146a.5.5 0 0 0 0 .708l.647.646L10.5 2.793 8.854 1.146a.5.5 0 1 0-.708.708l.647.646-1.146 1.146-5.5 5.5a.5.5 0 0 0 0 .708l.646.646-1.647 1.646a.5.5 0 0 0 0 .708l.647.646-1.647 1.646a.5.5 0 0 0 .708.708L2.5 14.207l.646.647a.5.5 0 0 0 .708 0L5.5 13.207l.646.647a.5.5 0 0 0 .708 0l5.5-5.5L13.5 7.207l.646.647a.5.5 0 0 0 .708-.708L13.207 5.5 14.5 4.207l.646.647a.5.5 0 0 0 .708-.708l-4-4a.5.5 0 0 0-.708 0ZM11.293 8l-.793.793-1.646-1.647a.5.5 0 1 0-.708.708L9.793 9.5 8.5 10.793 6.854 9.146a.5.5 0 1 0-.708.708L7.793 11.5 6.5 12.793 3.207 9.5 8 4.707 11.293 8ZM8.707 4 12 7.293l.793-.793L9.5 3.207 8.707 4Zm-6.5 8.5L3.5 13.793 4.793 12.5 3.5 11.207 2.207 12.5Zm11.586-9L12.5 2.207 11.207 3.5 12.5 4.793 13.793 3.5Z" clip-rule="evenodd"/></svg>