<?xml version="1.0" encoding="UTF-8"?>
<svg width="16px" height="16px" viewBox="0 0 16 16" version="1.1" xmlns="http://www.w3.org/2000/svg" xmlns:xlink="http://www.w3.org/1999/xlink">
    <!-- Generator: Sketch 49.1 (51147) - http://www.bohemiancoding.com/sketch -->
    <title>Artboard 2</title>
    <desc>Created with Sketch.</desc>
    <defs></defs>
    <g id="Artboard-2" stroke="none" stroke-width="1" fill="none" fill-rule="evenodd">
        <path d="M1,3 C1,1.8954305 1.8954305,1 3,1 L7.58425057,1 C8.11468355,1 8.62339137,1.21071368 8.99846413,1.58578644 L14.4111418,6.99846413 C15.1921904,7.77951272 15.1921904,9.04584267 14.4111418,9.82689126 L9.82689126,14.4111418 C9.04584267,15.1921904 7.77951272,15.1921904 6.99846413,14.4111418 L1.58578644,8.99846413 C1.21071368,8.62339137 1,8.11468355 1,7.58425057 L1,3 Z M4.4870223,2.99258417 C3.66166691,2.99258417 2.99258417,3.66166691 2.99258417,4.4870223 C2.99258417,5.31237769 3.66166691,5.98146043 4.4870223,5.98146043 C5.31237769,5.98146043 5.98146043,5.31237769 5.98146043,4.4870223 C5.98146043,3.66166691 5.31237769,2.99258417 4.4870223,2.99258417 Z" id="Combined-Shape" fill="#000000"></path>
    </g>
</svg>