<?xml version="1.0" encoding="utf-8"?>
<!-- Generator: Adobe Illustrator 18.1.0, SVG Export Plug-In . SVG Version: 6.00 Build 0)  -->
<svg version="1.1" id="Layer_1" xmlns="http://www.w3.org/2000/svg" xmlns:xlink="http://www.w3.org/1999/xlink" x="0px" y="0px"
	 viewBox="0 0 16 16" enable-background="new 0 0 16 16" xml:space="preserve">
<g id="take_action_2_">
	<g>
		<path fill-rule="evenodd" clip-rule="evenodd" d="M9,11c0,0.55,0.45,1,1,1c0.28,0,0.53-0.11,0.71-0.29l4-4
			C14.89,7.53,15,7.28,15,7c0-0.55-0.45-1-1-1c-0.28,0-0.53,0.11-0.71,0.29l-4,4C9.11,10.47,9,10.72,9,11z M4,6
			c0.28,0,0.53-0.11,0.71-0.29l4-4C8.89,1.53,9,1.28,9,1c0-0.55-0.45-1-1-1C7.72,0,7.47,0.11,7.29,0.29l-4,4C3.11,4.47,3,4.72,3,5
			C3,5.55,3.45,6,4,6z M8,10l5-5l-0.79-0.79l0.5-0.5C12.89,3.53,13,3.28,13,3c0-0.55-0.45-1-1-1c-0.28,0-0.53,0.11-0.71,0.29
			l-0.5,0.5L10,2L5,7l0.79,0.79l-5.5,5.5C0.11,13.47,0,13.72,0,14c0,0.55,0.45,1,1,1c0.28,0,0.53-0.11,0.71-0.29l5.5-5.5L8,10z
			 M15,14H7c-0.55,0-1,0.45-1,1c0,0.55,0.45,1,1,1h8c0.55,0,1-0.45,1-1C16,14.45,15.55,14,15,14z"/>
	</g>
</g>
</svg>
