<?xml version="1.0" encoding="utf-8"?>
<!-- Generator: Adobe Illustrator 18.0.0, SVG Export Plug-In . SVG Version: 6.00 Build 0)  -->
<svg version="1.1" id="Layer_1" xmlns="http://www.w3.org/2000/svg" xmlns:xlink="http://www.w3.org/1999/xlink" x="0px" y="0px"
	 viewBox="0 0 16 16" enable-background="new 0 0 16 16" xml:space="preserve">
<path id="taxi_1_" fill-rule="evenodd" clip-rule="evenodd" d="M15.12,6.63h-0.38L15,7c-0.01,0.3-0.01,0.64,0,0.98
	c0,0.01,0,0.01,0,0.02c0,0.07-0.03,0.13-0.04,0.19l0.02,0L14,13.1V14c0,0.55-0.45,1-1,1s-1-0.45-1-1v-1H4v1c0,0.55-0.45,1-1,1
	s-1-0.45-1-1v-0.9L1.02,8.2l0.02,0C1.03,8.13,1,8.07,1,8H0.99c0-0.33,0-0.67,0.01-1l0.26-0.37H0.88C0.4,6.63,0,6.21,0,5.69
	c0-0.52,0.4-0.94,0.88-0.94h1.05L2.7,2.64C2.89,2.11,3.46,1.56,3.96,1.4c0,0,0.68-0.2,2.05-0.32C6.01,1.05,6,1.03,6,1
	c0-0.55,0.45-1,1-1h2c0.55,0,1,0.45,1,1c0,0.03-0.01,0.05-0.02,0.08c1.37,0.12,2.05,0.32,2.05,0.32c0.51,0.15,1.08,0.71,1.27,1.24
	l0.76,2.12h1.05C15.6,4.76,16,5.18,16,5.69C16,6.21,15.6,6.63,15.12,6.63z M11,10h2V8h0h-2V10z M3,10h2V8H3h0V10z M13,5l-0.73-1.63
	C12.21,3.19,12.18,3,12,3H4C3.82,3,3.79,3.19,3.73,3.37L3,5C2.94,5.18,2.82,6,3,6h10C13.18,6,13.06,5.18,13,5z"/>
</svg>
