<svg xmlns="http://www.w3.org/2000/svg" xml:space="preserve" viewBox="0 0 16 16"><path fill-rule="evenodd" d="M15.12 6.63h-.38L15 7c-.01.3-.01.64 0 .98V8c0 .07-.03.13-.04.19h.02L14 13.1v.9c0 .55-.45 1-1 1s-1-.45-1-1v-1H4v1c0 .55-.45 1-1 1s-1-.45-1-1v-.9l-.98-4.9h.02C1.03 8.13 1 8.07 1 8H.99c0-.33 0-.67.01-1l.26-.37H.88C.4 6.63 0 6.21 0 5.69s.4-.94.88-.94h1.05l.77-2.11c.19-.53.76-1.08 1.26-1.24 0 0 .68-.2 2.05-.32C6.01 1.05 6 1.03 6 1c0-.55.45-1 1-1h2c.55 0 1 .45 1 1 0 .03-.01.05-.02.08 1.37.12 2.05.32 2.05.32.51.15 1.08.71 1.27 1.24l.76 2.12h1.05c.49 0 .89.42.89.93 0 .52-.4.94-.88.94zM11 10h2V8h-2v2zm-8 0h2V8H3v2zm10-5-.73-1.63C12.21 3.19 12.18 3 12 3H4c-.18 0-.21.19-.27.37L3 5c-.06.18-.18 1 0 1h10c.18 0 .06-.82 0-1z" clip-rule="evenodd"/></svg>