<?xml version="1.0" encoding="utf-8"?>
<!-- Generator: Adobe Illustrator 18.1.0, SVG Export Plug-In . SVG Version: 6.00 Build 0)  -->
<svg version="1.1" id="Layer_1" xmlns="http://www.w3.org/2000/svg" xmlns:xlink="http://www.w3.org/1999/xlink" x="0px" y="0px"
	 viewBox="0 0 16 16" enable-background="new 0 0 16 16" xml:space="preserve">
<g id="text_highlight_1_">
	<g>
		<path fill-rule="evenodd" clip-rule="evenodd" d="M9,10H2V6h7V4H1C0.45,4,0,4.45,0,5v6c0,0.55,0.45,1,1,1h8V10z M13,13h-1V3h1
			c0.55,0,1-0.45,1-1c0-0.55-0.45-1-1-1h-1c-0.37,0-0.7,0.11-1,0.28C10.7,1.11,10.37,1,10,1H9C8.45,1,8,1.45,8,2c0,0.55,0.45,1,1,1
			h1v10H9c-0.55,0-1,0.45-1,1c0,0.55,0.45,1,1,1h1c0.37,0,0.7-0.11,1-0.28c0.3,0.17,0.63,0.28,1,0.28h1c0.55,0,1-0.45,1-1
			C14,13.45,13.55,13,13,13z M15,4h-2v2h1v4h-1v2h2c0.55,0,1-0.45,1-1V5C16,4.45,15.55,4,15,4z"/>
	</g>
</g>
</svg>
