<?xml version="1.0" encoding="utf-8"?>
<!-- Generator: Adobe Illustrator 17.1.0, SVG Export Plug-In . SVG Version: 6.00 Build 0)  -->
<!DOCTYPE svg PUBLIC "-//W3C//DTD SVG 1.1//EN" "http://www.w3.org/Graphics/SVG/1.1/DTD/svg11.dtd">
<svg version="1.1" id="Layer_1" xmlns:sketch="http://www.bohemiancoding.com/sketch/ns"
	 xmlns="http://www.w3.org/2000/svg" xmlns:xlink="http://www.w3.org/1999/xlink" x="0px" y="0px" viewBox="0 0 16 16"
	 enable-background="new 0 0 16 16" xml:space="preserve">
<title>Shape</title>
<desc>Created with Sketch.</desc>
<g id="Page-1" sketch:type="MSPage">
	<g id="Artboard-1" transform="translate(0.000000, -1.000000)" sketch:type="MSArtboardGroup">
		<path id="Shape" sketch:type="MSShapeGroup" d="M5.6,11l-0.3,0.3C5.1,11.5,5,11.7,5,12c0,0.6,0.4,1,1,1c0.3,0,0.5-0.1,0.7-0.3l2-2
			C8.9,10.5,9,10.3,9,10S8.9,9.5,8.7,9.3l-2-2C6.5,7.1,6.3,7,6,7C5.5,7,5,7.4,5,8c0,0.3,0.1,0.5,0.3,0.7L5.6,9H1c-0.6,0-1,0.4-1,1
			s0.4,1,1,1H5.6L5.6,11z M15,2H2C1.5,2,1,2.5,1,3v5h2V6h11v2H8.8l0.6,0.6l0,0C9.5,8.7,9.6,8.9,9.7,9H14v2H9.7
			c-0.1,0.1-0.2,0.3-0.3,0.4l0,0L8.8,12H14v2H3v-2H1v3c0,0.5,0.5,1,1,1h13c0.6,0,1-0.5,1-1V3C16,2.5,15.6,2,15,2L15,2z"/>
	</g>
</g>
</svg>
