<?xml version="1.0" encoding="utf-8"?>
<!-- Generator: Adobe Illustrator 17.1.0, SVG Export Plug-In . SVG Version: 6.00 Build 0)  -->
<!DOCTYPE svg PUBLIC "-//W3C//DTD SVG 1.1//EN" "http://www.w3.org/Graphics/SVG/1.1/DTD/svg11.dtd">
<svg version="1.1" id="Layer_1" xmlns:sketch="http://www.bohemiancoding.com/sketch/ns"
	 xmlns="http://www.w3.org/2000/svg" xmlns:xlink="http://www.w3.org/1999/xlink" x="0px" y="0px" viewBox="0 0 16 16"
	 enable-background="new 0 0 16 16" xml:space="preserve">
<title>Shape</title>
<desc>Created with Sketch.</desc>
<g id="Page-1" sketch:type="MSPage">
	<g id="Artboard-1" transform="translate(0.000000, -1.000000)" sketch:type="MSArtboardGroup">
		<path id="Shape" sketch:type="MSShapeGroup" d="M15,2H1C0.4,2,0,2.5,0,3v12c0,0.6,0.4,1,1,1h14c0.6,0,1-0.4,1-1V3
			C16,2.5,15.6,2,15,2L15,2z M6,14H2v-2h4V14L6,14z M6,11H2V9h4V11L6,11z M6,8H2V6h4V8L6,8z M14,14H7v-2h7V14L14,14z M14,11H7V9h7
			V11L14,11z M14,8H7V6h7V8L14,8z"/>
	</g>
</g>
</svg>
