<svg xmlns="http://www.w3.org/2000/svg" width="16" height="16"><path fill-rule="evenodd" d="M4.448 9h.573c.025-.044.051-.088.079-.13A9.43 9.43 0 0 1 5.183 8h-.995A10.424 10.424 0 0 1 4 6c0-.717.068-1.391.188-2h3.624c.065.33.114.678.146 1.042A3.42 3.42 0 0 1 8.46 5c.168 0 .336.013.502.037A11.089 11.089 0 0 0 8.829 4h1.755c.148.338.26.696.33 1.068l.176-.028a2.74 2.74 0 0 1 .5 0c.113 0 .225.006.336.018A6.001 6.001 0 0 0 0 6a6 6 0 0 0 5.672 5.991 4 4 0 0 1-.202-.441 1.842 1.842 0 0 1-.24-.26 1.82 1.82 0 0 1-.26-.55 2 2 0 0 1-.185-.92l-.012-.025A6.036 6.036 0 0 1 4.448 9ZM3.171 8H1.416A4.983 4.983 0 0 1 1 6c0-.711.148-1.388.416-2h1.755C3.06 4.626 3 5.299 3 6c0 .701.06 1.374.17 2ZM2 9H3.4c.18.618.412 1.167.685 1.62A5.015 5.015 0 0 1 2 9Zm2.448-6h3.104a6.036 6.036 0 0 0-.325-.795C6.737 1.225 6.246 1 6 1c-.246 0-.737.225-1.227 1.205-.119.238-.228.504-.325.795Zm4.15 0H10a5.016 5.016 0 0 0-2.086-1.62c.273.453.506 1.002.685 1.62ZM4.087 1.38A6.834 6.834 0 0 0 3.401 3H2a5.015 5.015 0 0 1 2.086-1.62ZM13.476 16s.118-.385-.172-1.046c-.228-.533-1.172-.915-2.015-1.257a22.113 22.113 0 0 1-.584-.243c-.808-.356-.816-.588-.825-.872-.002-.041-.003-.084-.007-.128v-.139c.314-.284.573-.669.745-1.115 0 0 .008-.023.008-.03.04-.1.071-.2.095-.3.212-.04.33-.27.377-.485.054-.093.149-.3.125-.547-.024-.307-.15-.453-.29-.515v-.054c0-.392-.04-.961-.11-1.33a2.16 2.16 0 0 0-.071-.308 2.283 2.283 0 0 0-.8-1.17C9.558 6.162 9.001 6 8.506 6c-.495 0-1.052.162-1.445.462A2.294 2.294 0 0 0 6.19 7.93c-.07.369-.11.946-.11 1.338v.046c-.14.062-.274.208-.306.523a1 1 0 0 0 .126.547c.047.215.173.453.393.492.02.083.05.172.078.253l.016.047c0 .008.008.015.008.015v.008c.172.454.44.846.761 1.115a.804.804 0 0 1-.004.072c-.002.02-.004.04-.004.06l-.007.105c-.016.287-.028.523-.848.894-.176.078-.37.156-.568.237-.847.345-1.802.735-2.031 1.27C3.41 15.616 3.52 16 3.52 16h9.955Zm2.503-1.25h-1.413a4.05 4.05 0 0 0-.116-.294c-.192-.445-.52-.753-.787-.955-.278-.21-.59-.38-.873-.517a21.373 21.373 0 0 0-1.122-.483l-.02-.008-.235-.097c.144-.23.266-.476.366-.731.089-.087.162-.177.22-.26.132-.192.217-.391.271-.568.117-.251.24-.64.199-1.105a2.025 2.025 0 0 0-.299-.925 8.626 8.626 0 0 0-.116-1.083 3.426 3.426 0 0 0-.104-.45 3.476 3.476 0 0 0-.661-1.246A2.18 2.18 0 0 1 11.63 6c.432 0 .92.141 1.264.404.33.256.584.612.7 1.023.028.087.049.182.062.27.062.322.097.82.097 1.163v.048c.123.053.233.181.254.45a.82.82 0 0 1-.11.478c-.041.189-.144.391-.33.425a1.92 1.92 0 0 1-.082.262c0 .007-.007.027-.007.027-.151.39-.378.727-.653.976v.121c.004.038.005.075.006.111v.002c.008.247.015.451.722.762.158.07.332.14.51.213.739.299 1.565.634 1.764 1.1.254.579.151.915.151.915Z" clip-rule="evenodd"/></svg>