<?xml version="1.0" encoding="utf-8"?>
<!-- Generator: Adobe Illustrator 18.1.0, SVG Export Plug-In . SVG Version: 6.00 Build 0)  -->
<svg version="1.1" id="Layer_1" xmlns="http://www.w3.org/2000/svg" xmlns:xlink="http://www.w3.org/1999/xlink" x="0px" y="0px"
	 viewBox="0 0 16 16" enable-background="new 0 0 16 16" xml:space="preserve">
<g id="thumbs_down">
	<g>
		<path fill-rule="evenodd" clip-rule="evenodd" d="M2,2H0v7h2c0.55,0,1-0.45,1-1V3C3,2.45,2.55,2,2,2z M15.99,6.38
			c0.08-0.58-0.44-1.02-1.15-1.05c-0.25-0.01-0.52-0.03-0.81-0.05c0.02,0,0.05-0.01,0.07-0.01c0.7-0.1,1.34-0.49,1.41-1.07
			c0.06-0.58-0.46-0.97-1.17-1.04c-0.25-0.02-0.52-0.04-0.79-0.06c0.47-0.15,0.84-0.42,0.87-0.93c0.04-0.58-0.79-1.03-1.5-1.09
			c-0.27-0.02-0.51-0.04-0.73-0.05l0,0c-0.03,0-0.06,0-0.09,0C11.87,1.01,11.67,1.01,11.48,1C8.35,0.95,5.66,1.47,4,2.51v6
			c2.14,1.29,4.76,3.59,4.21,5.51C8.03,14.61,8.52,15.07,9.19,15c0.81-0.09,1.37-0.91,1.4-1.78c0.04-1-0.15-2.01-0.5-2.91
			c-0.04-0.25,0.01-0.5,0.37-0.53c0.49-0.03,1.11-0.06,1.59-0.08c0.26,0,0.51-0.01,0.75-0.02c0,0,0.01,0,0.01,0h0
			c0.41-0.02,0.8-0.05,1.13-0.09c0.7-0.09,1.35-0.47,1.43-1.05c0.08-0.58-0.44-0.97-1.15-1.05c-0.05-0.01-0.11-0.01-0.16-0.02
			c0.17-0.01,0.33-0.03,0.49-0.05C15.27,7.34,15.92,6.96,15.99,6.38z"/>
	</g>
</g>
</svg>
