<?xml version="1.0" encoding="utf-8"?>
<!-- Generator: Adobe Illustrator 18.1.0, SVG Export Plug-In . SVG Version: 6.00 Build 0)  -->
<svg version="1.1" id="Layer_1" xmlns="http://www.w3.org/2000/svg" xmlns:xlink="http://www.w3.org/1999/xlink" x="0px" y="0px"
	 viewBox="0 0 16 16" enable-background="new 0 0 16 16" xml:space="preserve">
<g id="thumbs_up">
	<g>
		<path fill-rule="evenodd" clip-rule="evenodd" d="M15.99,9.62c-0.08-0.58-0.73-0.96-1.43-1.05c-0.15-0.02-0.32-0.04-0.49-0.05
			c0.06-0.01,0.11-0.01,0.16-0.02c0.71-0.08,1.23-0.47,1.15-1.05c-0.08-0.58-0.73-0.96-1.43-1.05c-0.34-0.04-0.72-0.07-1.13-0.09h0
			c0,0,0,0-0.01,0c-0.24-0.01-0.49-0.02-0.75-0.02c-0.48-0.02-1.11-0.04-1.59-0.08c-0.36-0.03-0.41-0.28-0.37-0.53
			c0.35-0.9,0.54-1.91,0.5-2.91C10.56,1.92,10,1.09,9.19,1C8.52,0.93,8.03,1.39,8.2,1.98C8.76,3.91,6.13,6.2,4,7.49v6
			c1.66,1.03,4.35,1.56,7.48,1.5c0.19,0,0.39-0.01,0.62-0.02c0.03,0,0.06,0,0.09,0l0,0c0.22-0.01,0.46-0.03,0.73-0.05
			c0.71-0.06,1.54-0.51,1.5-1.09c-0.03-0.51-0.4-0.79-0.87-0.93c0.27-0.02,0.54-0.04,0.79-0.06c0.71-0.06,1.24-0.45,1.17-1.04
			c-0.06-0.58-0.7-0.97-1.41-1.07c-0.02,0-0.05-0.01-0.07-0.01c0.29-0.02,0.57-0.03,0.81-0.05C15.55,10.64,16.07,10.2,15.99,9.62z
			 M2,7H0v7h2c0.55,0,1-0.45,1-1V8C3,7.44,2.55,7,2,7z"/>
	</g>
</g>
</svg>
