<?xml version="1.0" encoding="utf-8"?>
<!-- Generator: Adobe Illustrator 18.0.0, SVG Export Plug-In . SVG Version: 6.00 Build 0)  -->
<svg version="1.1" id="Layer_1" xmlns="http://www.w3.org/2000/svg" xmlns:xlink="http://www.w3.org/1999/xlink" x="0px" y="0px"
	 viewBox="0 0 16 16" enable-background="new 0 0 16 16" xml:space="preserve">
<g id="tick_circle_1_">
	<path id="Combined-Shape_7_" d="M8,16c-4.42,0-8-3.58-8-8s3.58-8,8-8s8,3.58,8,8S12.42,16,8,16z M12,5c-0.28,0-0.53,0.11-0.71,0.29
		L7,9.59l-2.29-2.3C4.53,7.11,4.28,7,4,7C3.45,7,3,7.45,3,8c0,0.28,0.11,0.53,0.29,0.71l3,3C6.47,11.89,6.72,12,7,12
		s0.53-0.11,0.71-0.29l5-5C12.89,6.53,13,6.28,13,6C13,5.45,12.55,5,12,5z"/>
</g>
</svg>
