<?xml version="1.0" encoding="utf-8"?>
<!-- Generator: Adobe Illustrator 18.1.0, SVG Export Plug-In . SVG Version: 6.00 Build 0)  -->
<svg version="1.1" id="Layer_1" xmlns="http://www.w3.org/2000/svg" xmlns:xlink="http://www.w3.org/1999/xlink" x="0px" y="0px"
	 viewBox="0 0 16 16" enable-background="new 0 0 16 16" xml:space="preserve">
<g id="timeline_area_chart_1_">
	<g>
		<path fill-rule="evenodd" clip-rule="evenodd" d="M15,2.59L9.91,7.68L6.6,5.2L6.59,5.21C6.42,5.09,6.23,5,6,5
			C5.76,5,5.56,5.09,5.38,5.23L5.38,5.22L3,7.12V11h12V2.59z M15,12H2V3c0-0.55-0.45-1-1-1S0,2.45,0,3v10c0,0.55,0.45,1,1,1h14
			c0.55,0,1-0.45,1-1C16,12.45,15.55,12,15,12z"/>
	</g>
</g>
</svg>
