<?xml version="1.0" encoding="utf-8"?>
<!-- Generator: Adobe Illustrator 17.1.0, SVG Export Plug-In . SVG Version: 6.00 Build 0)  -->
<!DOCTYPE svg PUBLIC "-//W3C//DTD SVG 1.1//EN" "http://www.w3.org/Graphics/SVG/1.1/DTD/svg11.dtd">
<svg version="1.1" id="Layer_1" xmlns="http://www.w3.org/2000/svg" xmlns:xlink="http://www.w3.org/1999/xlink" x="0px" y="0px"
	 viewBox="0 0 16 16" enable-background="new 0 0 16 16" xml:space="preserve">
<g id="timeline_line_chart">
	<g>
		<path fill-rule="evenodd" clip-rule="evenodd" d="M15,12H2V9.41l3-3l3.29,3.29C8.47,9.89,8.72,10,9,10s0.53-0.11,0.71-0.29l6-6
			C15.89,3.53,16,3.28,16,3c0-0.55-0.45-1-1-1c-0.28,0-0.53,0.11-0.71,0.29L9,7.59L5.71,4.29C5.53,4.11,5.28,4,5,4
			S4.47,4.11,4.29,4.29L2,6.59V3c0-0.55-0.45-1-1-1S0,2.45,0,3v10c0,0.55,0.45,1,1,1h14c0.55,0,1-0.45,1-1C16,12.45,15.55,12,15,12z
			"/>
	</g>
</g>
</svg>
