<?xml version="1.0" encoding="utf-8"?>
<!-- Generator: Adobe Illustrator 17.1.0, SVG Export Plug-In . SVG Version: 6.00 Build 0)  -->
<!DOCTYPE svg PUBLIC "-//W3C//DTD SVG 1.1//EN" "http://www.w3.org/Graphics/SVG/1.1/DTD/svg11.dtd">
<svg version="1.1" id="Layer_1" xmlns="http://www.w3.org/2000/svg" xmlns:xlink="http://www.w3.org/1999/xlink" x="0px" y="0px"
	 viewBox="0 0 16 16" enable-background="new 0 0 16 16" xml:space="preserve">
<g id="torch_2_">
	<g>
		<path fill-rule="evenodd" clip-rule="evenodd" d="M5,15c0,0.55,0.45,1,1,1h4c0.55,0,1-0.45,1-1v-1H5V15z M12,0H4
			C3.45,0,3,0.45,3,1v1h10V1C13,0.45,12.55,0,12,0z M5,7v6h6V7l2-4H3L5,7z M7,7c0-0.55,0.45-1,1-1s1,0.45,1,1v2c0,0.55-0.45,1-1,1
			S7,9.55,7,9V7z"/>
	</g>
</g>
</svg>
