<svg xmlns="http://www.w3.org/2000/svg" xml:space="preserve" viewBox="0 0 16 16"><path fill-rule="evenodd" d="m15.89 14.56-3.99-8h-.01c-.17-.33-.5-.56-.89-.56s-.72.23-.89.56h-.01L9 8.76 7.17 7.38l.23-.18C8.37 6.47 9 5.31 9 4V3h1c.55 0 1-.45 1-1s-.45-1-1-1H7c0-.55-.45-1-1-1H5c-.55 0-1 .45-1 1H1c-.55 0-1 .45-1 1s.45 1 1 1h6v1c0 .66-.32 1.25-.82 1.61l-.68.51-.68-.5C4.32 5.25 4 4.66 4 4H2c0 1.31.63 2.47 1.6 3.2l.23.17L1.4 9.2l.01.01C1.17 9.4 1 9.67 1 10c0 .55.45 1 1 1 .23 0 .42-.09.59-.21l.01.01 2.9-2.17 2.6 1.95-1.99 3.98h.01c-.07.13-.12.28-.12.44 0 .55.45 1 1 1 .39 0 .72-.23.89-.56h.01L8.62 14h4.76l.72 1.45h.01c.17.32.5.55.89.55.55 0 1-.45 1-1 0-.16-.05-.31-.11-.44zM9.62 12 11 9.24 12.38 12H9.62z" clip-rule="evenodd"/></svg>