<?xml version="1.0" encoding="utf-8"?>
<!-- Generator: Adobe Illustrator 18.0.0, SVG Export Plug-In . SVG Version: 6.00 Build 0)  -->
<svg version="1.1" id="Layer_1" xmlns="http://www.w3.org/2000/svg" xmlns:xlink="http://www.w3.org/1999/xlink" x="0px" y="0px"
	 viewBox="0 0 16 16" enable-background="new 0 0 16 16" xml:space="preserve">
<g id="translate_2_">
	<g>
		<path fill-rule="evenodd" clip-rule="evenodd" d="M15.89,14.56L15.89,14.56l-3.99-8l-0.01,0C11.72,6.23,11.39,6,11,6
			s-0.72,0.23-0.89,0.56l-0.01,0l-1.1,2.2L7.17,7.38L7.4,7.2l0,0C8.37,6.47,9,5.31,9,4V3h1c0.55,0,1-0.45,1-1c0-0.55-0.45-1-1-1H7
			c0-0.55-0.45-1-1-1H5C4.45,0,4,0.45,4,1H1C0.45,1,0,1.45,0,2c0,0.55,0.45,1,1,1h6v1c0,0.66-0.32,1.25-0.82,1.61l0,0L5.5,6.12
			L4.82,5.62l0,0C4.32,5.25,4,4.66,4,4H2c0,1.31,0.63,2.47,1.6,3.2l0,0l0.23,0.17L1.4,9.2l0.01,0.01C1.17,9.4,1,9.67,1,10
			c0,0.55,0.45,1,1,1c0.23,0,0.42-0.09,0.59-0.21L2.6,10.8l2.9-2.17l2.6,1.95l-1.99,3.98l0.01,0C6.05,14.69,6,14.84,6,15
			c0,0.55,0.45,1,1,1c0.39,0,0.72-0.23,0.89-0.56l0.01,0L8.62,14h4.76l0.72,1.45l0.01,0C14.28,15.77,14.61,16,15,16
			c0.55,0,1-0.45,1-1C16,14.84,15.95,14.69,15.89,14.56z M9.62,12L11,9.24L12.38,12H9.62z"/>
	</g>
</g>
</svg>
