<svg xmlns="http://www.w3.org/2000/svg" xml:space="preserve" viewBox="0 0 16 16"><path fill-rule="evenodd" d="M14.49 3.99h-13c-.28 0-.5.22-.5.5s.22.5.5.5h.5v10c0 .55.45 1 1 1h10c.55 0 1-.45 1-1v-10h.5c.28 0 .5-.22.5-.5s-.22-.5-.5-.5zm-8.5 9c0 .55-.45 1-1 1s-1-.45-1-1v-6c0-.55.45-1 1-1s1 .45 1 1v6zm3 0c0 .55-.45 1-1 1s-1-.45-1-1v-6c0-.55.45-1 1-1s1 .45 1 1v6zm3 0c0 .55-.45 1-1 1s-1-.45-1-1v-6c0-.55.45-1 1-1s1 .45 1 1v6zm2-12h-4c0-.55-.45-1-1-1h-2c-.55 0-1 .45-1 1h-4c-.55 0-1 .45-1 1v1h14v-1c0-.55-.45-1-1-1z" clip-rule="evenodd"/></svg>