<?xml version="1.0" encoding="utf-8"?>
<!-- Generator: Adobe Illustrator 18.0.0, SVG Export Plug-In . SVG Version: 6.00 Build 0)  -->
<svg version="1.1" id="Layer_1" xmlns="http://www.w3.org/2000/svg" xmlns:xlink="http://www.w3.org/1999/xlink" x="0px" y="0px"
	 viewBox="0 0 16 16" enable-background="new 0 0 16 16" xml:space="preserve">
<g id="trending_up">
	<g>
		<path fill-rule="evenodd" clip-rule="evenodd" d="M15,4h-3c-0.55,0-1,0.45-1,1s0.45,1,1,1h0.59L8.8,9.78L5.45,8.11l0,0.01
			C5.31,8.05,5.16,8,5,8S4.69,8.05,4.56,8.11l0-0.01l-4,2l0,0.01C0.23,10.28,0,10.61,0,11c0,0.55,0.45,1,1,1
			c0.16,0,0.31-0.05,0.44-0.11l0,0.01L5,10.12l3.55,1.78l0-0.01C8.69,11.95,8.84,12,9,12c0.28,0,0.53-0.11,0.71-0.29L14,7.41V8
			c0,0.55,0.45,1,1,1s1-0.45,1-1V5C16,4.45,15.55,4,15,4z"/>
	</g>
</g>
</svg>
