<?xml version="1.0" encoding="utf-8"?>
<!-- Generator: Adobe Illustrator 18.0.0, SVG Export Plug-In . SVG Version: 6.00 Build 0)  -->
<svg version="1.1" id="Layer_1" xmlns="http://www.w3.org/2000/svg" xmlns:xlink="http://www.w3.org/1999/xlink" x="0px" y="0px"
	 viewBox="0 0 16 16" enable-background="new 0 0 16 16" xml:space="preserve">
<g id="trending_down">
	<g>
		<path fill-rule="evenodd" clip-rule="evenodd" d="M15,7c-0.55,0-1,0.45-1,1v0.59L9.71,4.29C9.53,4.11,9.28,4,9,4
			C8.84,4,8.69,4.05,8.56,4.11l0-0.01L5,5.88L1.45,4.11l0,0.01C1.31,4.05,1.16,4,1,4C0.45,4,0,4.45,0,5c0,0.39,0.23,0.72,0.56,0.89
			l0,0.01l4,2l0-0.01C4.69,7.95,4.84,8,5,8s0.31-0.05,0.44-0.11l0,0.01L8.8,6.22L12.59,10H12c-0.55,0-1,0.45-1,1s0.45,1,1,1h3
			c0.55,0,1-0.45,1-1V8C16,7.45,15.55,7,15,7z"/>
	</g>
</g>
</svg>
