<?xml version="1.0" encoding="utf-8"?>
<!-- Generator: Adobe Illustrator 18.0.0, SVG Export Plug-In . SVG Version: 6.00 Build 0)  -->
<svg version="1.1" id="Layer_1" xmlns="http://www.w3.org/2000/svg" xmlns:xlink="http://www.w3.org/1999/xlink" x="0px" y="0px"
	 viewBox="0 0 16 16" enable-background="new 0 0 16 16" xml:space="preserve">
<title>Artboard</title>
<desc>Created with Sketch.</desc>
<g>
	<path d="M8,14c2.8,0,5-2.2,5-5V3c0-0.6-0.4-1-1-1c-0.6,0-1,0.4-1,1v6c0,1.7-1.3,3-3,3s-3-1.3-3-3V3c0-0.6-0.4-1-1-1
		C3.4,2,3,2.4,3,3v6C3,11.8,5.2,14,8,14z"/>
	<path d="M13.5,15h-11C2.2,15,2,15.2,2,15.5C2,15.8,2.2,16,2.5,16h11c0.3,0,0.5-0.2,0.5-0.5C14,15.2,13.8,15,13.5,15z"/>
</g>
</svg>
