<?xml version="1.0" encoding="utf-8"?>
<!-- Generator: Adobe Illustrator 18.1.0, SVG Export Plug-In . SVG Version: 6.00 Build 0)  -->
<svg version="1.1" id="Layer_1" xmlns="http://www.w3.org/2000/svg" xmlns:xlink="http://www.w3.org/1999/xlink" x="0px" y="0px"
	 viewBox="0 0 16 16" enable-background="new 0 0 16 16" xml:space="preserve">
<g id="undo">
	<g>
		<path fill-rule="evenodd" clip-rule="evenodd" d="M4,11c-1.1,0-2,0.9-2,2s0.9,2,2,2s2-0.9,2-2S5.1,11,4,11z M11,4H3.41l1.29-1.29
			C4.89,2.53,5,2.28,5,2c0-0.55-0.45-1-1-1C3.72,1,3.47,1.11,3.29,1.29l-3,3C0.11,4.47,0,4.72,0,5c0,0.28,0.11,0.53,0.29,0.71l3,3
			C3.47,8.89,3.72,9,4,9c0.55,0,1-0.45,1-1c0-0.28-0.11-0.53-0.29-0.71L3.41,6H11c1.66,0,3,1.34,3,3s-1.34,3-3,3H7v2h4
			c2.76,0,5-2.24,5-5S13.76,4,11,4z"/>
	</g>
</g>
</svg>
