<?xml version="1.0" encoding="utf-8"?>
<!-- Generator: Adobe Illustrator 18.0.0, SVG Export Plug-In . SVG Version: 6.00 Build 0)  -->
<svg version="1.1" id="Layer_1" xmlns="http://www.w3.org/2000/svg" xmlns:xlink="http://www.w3.org/1999/xlink" x="0px" y="0px"
	 viewBox="0 0 16 16" enable-background="new 0 0 16 16" xml:space="preserve">
<g id="unknown_vehicle">
	<g>
		<path fill-rule="evenodd" clip-rule="evenodd" d="M10.5074463,9.75v-3.5c0-0.0887451,0.0222168-0.1712646,0.0505371-0.2503052
			h-7.550415c-0.1760254,0-0.0606079-0.8240356,0-1l0.729187-1.6304932c0.0609131-0.1761475,0.0949097-0.3695679,0.270813-0.3695679
			h4.4998779V1.0099487C8.3411255,1.0065308,8.1868896,1.000061,8.0075073,1.000061
			c-2.7200317,0-4.0369873,0.4016113-4.0369873,0.4016113c-0.5077515,0.1549072-1.078064,0.7116089-1.2676392,1.2375488
			L1.9398193,4.7561646H0.8873901c-0.4838867,0-0.8799438,0.4225464-0.8799438,0.9388428
			c0,0.5164795,0.3960571,0.9390259,0.8799438,0.9390259h0.3754272l-0.255188,0.3657227
			c-0.0339355,0.6849976,0,1.4365234,0,2.000061v5.0001221C1.0076294,14.6571655,1.3917236,15,2.0075684,15
			c0.6162109,0,1-0.3428345,1-1.000061v-1h9.9996948v1c0,0.6572266,0.3840332,1.000061,1,1.000061
			s0.999939-0.3428345,0.999939-1.000061V10.5h-3.7497559C10.8432617,10.5,10.5074463,10.1642456,10.5074463,9.75z
			 M5.0075073,9.9998169h-1.999939v-2.000061h1.999939V9.9998169z M16.0074463,5.6948853v0.0001831l0.000061-0.000061
			C16.0075073,5.6949463,16.0074463,5.6949463,16.0074463,5.6948853z M15.3391724,0.8262939
			c-0.2358398-0.2385864-0.5466919-0.4381714-0.9326172-0.5986328c-0.3860474-0.1604614-0.8676147-0.2406616-1.444519-0.2406616
			c-0.4470825,0-0.8514404,0.0761719-1.2129517,0.2283325c-0.3617554,0.1523438-0.6705322,0.3640747-0.9265137,0.6356201
			s-0.4552002,0.5924683-0.5973511,0.9627686c-0.133667,0.3478394-0.2027588,0.7313843-0.2177734,1.1446533V3h1.7884521
			c0.0026245-0.2078857,0.0230103-0.4052734,0.0689697-0.5876465c0.0487671-0.1932373,0.1237793-0.3619995,0.2255249-0.5060425
			c0.1015015-0.1439209,0.2316284-0.2592163,0.3900757-0.3456421c0.1585083-0.0863647,0.3474731-0.1295776,0.5668945-0.1295776
			c0.3249512,0,0.5790405,0.0906372,0.7619019,0.2715454c0.1828613,0.1810913,0.274292,0.4609375,0.274292,0.8392944
			c0.0079956,0.222168-0.0305176,0.4073486-0.1158447,0.5554199c-0.0853271,0.1481323-0.1971436,0.2839355-0.3352051,0.4073486
			c-0.1383057,0.1234131-0.2885742,0.2468262-0.4510498,0.3702393c-0.1627197,0.1234741-0.3169556,0.2696533-0.4632568,0.4382324
			c-0.1463013,0.1687012-0.274292,0.3723755-0.3840332,0.6109619c-0.1096802,0.2387695-0.1767578,0.5349731-0.2011108,0.8886719V6
			h1.6456909V5.8991699c0.0324097-0.2468262,0.1116333-0.4523926,0.2377319-0.6171265
			c0.1259155-0.1644897,0.2700806-0.3104858,0.4327393-0.4381714c0.1625366-0.1274414,0.3352661-0.2549438,0.5181274-0.3826294
			c0.1828613-0.1274414,0.3493652-0.2817383,0.4998169-0.4628296c0.1502686-0.1809082,0.2761841-0.3990479,0.3778687-0.6541748
			c0.1015625-0.2549438,0.1524048-0.5801392,0.1524048-0.9750977c0-0.2385254-0.0508423-0.4956665-0.1524048-0.7714233
			C15.7433472,1.3221436,15.5747681,1.0650635,15.3391724,0.8262939z M12.0074463,7v2h2V7H12.0074463z"/>
	</g>
</g>
</svg>
