<svg xmlns="http://www.w3.org/2000/svg" xml:space="preserve" viewBox="0 0 16 16"><path fill-rule="evenodd" d="M10.507 9.75v-3.5c0-.089.023-.171.051-.25h-7.55c-.176 0-.061-.824 0-1l.729-1.63c.06-.177.095-.37.27-.37h4.5V1.01c-.166-.003-.32-.01-.5-.01-2.72 0-4.036.402-4.036.402-.508.155-1.079.711-1.268 1.237L1.94 4.756H.887c-.483 0-.88.423-.88.939s.397.939.88.939h.376L1.008 7c-.034.685 0 1.436 0 2v5c0 .657.384 1 1 1s1-.343 1-1v-1h10v1c0 .657.383 1 1 1s1-.343 1-1v-3.5h-3.75a.75.75 0 0 1-.75-.75zm-5.5.25h-2V8h2v2zm11-4.305zM15.34.826a2.807 2.807 0 0 0-.932-.598c-.386-.16-.868-.241-1.445-.241-.447 0-.851.076-1.213.228-.362.153-.67.364-.926.636s-.456.592-.598.963a3.535 3.535 0 0 0-.218 1.144V3h1.789c.003-.208.023-.405.069-.588.049-.193.124-.362.225-.506.102-.144.232-.259.39-.345.159-.087.348-.13.567-.13.325 0 .58.09.762.272.183.18.275.46.275.839.008.222-.031.407-.116.555a1.654 1.654 0 0 1-.335.408 7.4 7.4 0 0 1-.452.37c-.162.123-.316.27-.463.438a2.556 2.556 0 0 0-.384.611c-.11.239-.177.535-.2.889V6h1.645v-.1c.032-.248.111-.453.237-.618.126-.164.27-.31.433-.438.163-.128.335-.255.518-.383a2.413 2.413 0 0 0 .878-1.117c.102-.255.152-.58.152-.975A2.241 2.241 0 0 0 15.34.826zM12.007 7v2h2V7h-2z" clip-rule="evenodd"/></svg>