<?xml version="1.0" encoding="utf-8"?>
<!-- Generator: Adobe Illustrator 17.1.0, SVG Export Plug-In . SVG Version: 6.00 Build 0)  -->
<!DOCTYPE svg PUBLIC "-//W3C//DTD SVG 1.1//EN" "http://www.w3.org/Graphics/SVG/1.1/DTD/svg11.dtd">
<svg version="1.1" id="Layer_1" xmlns="http://www.w3.org/2000/svg" xmlns:xlink="http://www.w3.org/1999/xlink" x="0px" y="0px"
	 viewBox="0 0 16 16" enable-background="new 0 0 16 16" xml:space="preserve">
<g id="unresolve_2_">
	<g>
		<path fill-rule="evenodd" clip-rule="evenodd" d="M11,3c-0.55,0-1.07,0.09-1.57,0.26C10.7,4.44,11.5,6.13,11.5,8
			c0,1.87-0.8,3.56-2.07,4.74C9.93,12.91,10.45,13,11,13c2.76,0,5-2.24,5-5C16,5.24,13.76,3,11,3z M9.78,9.38
			C9.81,9.29,9.84,9.2,9.87,9.11C9.95,8.75,10,8.38,10,8S9.95,7.25,9.87,6.89C9.84,6.8,9.81,6.71,9.78,6.62
			C9.7,6.35,9.61,6.08,9.49,5.83C9.45,5.76,9.41,5.69,9.37,5.62C9.23,5.35,9.06,5.1,8.86,4.86C8.84,4.83,8.81,4.79,8.78,4.76
			C8.54,4.49,8.29,4.24,8,4.02l0,0l0,0C7.57,3.7,7.08,3.44,6.55,3.27c0,0,0.01-0.01,0.01-0.01c-0.1-0.03-0.2-0.05-0.3-0.08
			C6.14,3.15,6.03,3.11,5.9,3.09C5.61,3.04,5.31,3,5,3C2.24,3,0,5.24,0,8c0,2.76,2.24,5,5,5c0.31,0,0.61-0.04,0.9-0.09
			c0.12-0.02,0.24-0.06,0.36-0.09c0.1-0.03,0.21-0.04,0.3-0.08c0,0-0.01-0.01-0.01-0.01c0.88-0.29,1.64-0.8,2.22-1.49
			c0.03-0.03,0.06-0.07,0.09-0.1c0.19-0.24,0.36-0.49,0.51-0.76c0.04-0.07,0.08-0.14,0.11-0.21C9.61,9.92,9.71,9.65,9.78,9.38z"/>
	</g>
</g>
</svg>
