<svg xmlns="http://www.w3.org/2000/svg" xml:space="preserve" viewBox="0 0 16 16"><path fill-rule="evenodd" d="M11 3c-.55 0-1.07.09-1.57.26a6.46 6.46 0 0 1 0 9.48c.5.17 1.02.26 1.57.26 2.76 0 5-2.24 5-5s-2.24-5-5-5zM9.78 9.38l.09-.27c.08-.36.13-.73.13-1.11s-.05-.75-.13-1.11l-.09-.27a5.32 5.32 0 0 0-.29-.79l-.12-.21c-.14-.27-.31-.52-.51-.76a.7.7 0 0 0-.08-.1c-.24-.27-.49-.52-.78-.74-.43-.32-.92-.58-1.45-.75l.01-.01c-.1-.03-.2-.05-.3-.08-.12-.03-.23-.07-.36-.09A5.28 5.28 0 0 0 5 3C2.24 3 0 5.24 0 8s2.24 5 5 5c.31 0 .61-.04.9-.09.12-.02.24-.06.36-.09.1-.03.21-.04.3-.08l-.01-.01c.88-.29 1.64-.8 2.22-1.49.03-.03.06-.07.09-.1.19-.24.36-.49.51-.76.04-.07.08-.14.11-.21.13-.25.23-.52.3-.79z" clip-rule="evenodd"/></svg>