<svg xmlns="http://www.w3.org/2000/svg" width="16" height="16"><path fill-rule="evenodd" d="M8 0a7.95 7.95 0 0 0-6 2.74V1c0-.55-.45-1-1-1S0 .45 0 1v4c0 .55.45 1 1 1h4c.55 0 1-.45 1-1s-.45-1-1-1H3.54C4.64 2.78 6.22 2 8 2c3.31 0 6 2.69 6 6 0 2.61-1.67 4.81-4 5.63-.63.22-1.29.37-2 .37-3.31 0-6-2.69-6-6 0-.55-.45-1-1-1s-1 .45-1 1c0 4.42 3.58 8 8 8 .34 0 .67-.03 1-.07.02 0 .04-.01.06-.01C12.98 15.4 16 12.06 16 8c0-4.42-3.58-8-8-8Zm3 5c-.28 0-.53.11-.71.29L7 8.58 5.71 7.29a1.003 1.003 0 0 0-1.42 1.42l2 2c.18.18.43.29.71.29.28 0 .53-.11.71-.29l4-4A1.003 1.003 0 0 0 11 5Z"/></svg>