<?xml version="1.0" encoding="UTF-8"?>
<svg width="16px" height="16px" viewBox="0 0 16 16" version="1.1" xmlns="http://www.w3.org/2000/svg" xmlns:xlink="http://www.w3.org/1999/xlink">
    <!-- Generator: Sketch 49.1 (51147) - http://www.bohemiancoding.com/sketch -->
    <title>Artboard 2</title>
    <desc>Created with Sketch.</desc>
    <defs></defs>
    <g id="Artboard-2" stroke="none" stroke-width="1" fill="none" fill-rule="evenodd">
        <path d="M8,0 C5.6,0 3.46,1.07 2,2.74 L2,1 C2,0.45 1.55,0 1,0 C0.45,0 0,0.45 0,1 L0,5 C0,5.55 0.45,6 1,6 L5,6 C5.55,6 6,5.55 6,5 C6,4.45 5.55,4 5,4 L3.54,4 C4.64,2.78 6.22,2 8,2 C11.31,2 14,4.69 14,8 C14,10.61 12.33,12.81 10,13.63 C9.37,13.85 8.71,14 8,14 C4.69,14 2,11.31 2,8 C2,7.45 1.55,7 1,7 C0.45,7 0,7.45 0,8 C0,12.42 3.58,16 8,16 C8.34,16 8.67,15.97 9,15.93 C9.02,15.93 9.04,15.92 9.06,15.92 C12.98,15.4 16,12.06 16,8 C16,3.58 12.42,0 8,0 Z M11,5 C10.72,5 10.47,5.11 10.29,5.29 L7,8.58 L5.71,7.29 C5.53,7.11 5.28,7 5,7 C4.45,7 4,7.45 4,8 C4,8.28 4.11,8.53 4.29,8.71 L6.29,10.71 C6.47,10.89 6.72,11 7,11 C7.28,11 7.53,10.89 7.71,10.71 L11.71,6.71 C11.89,6.53 12,6.28 12,6 C12,5.45 11.55,5 11,5 Z" id="Shape" fill="#000000"></path>
    </g>
</svg>