<?xml version="1.0" encoding="utf-8"?>
<!-- Generator: Adobe Illustrator 18.1.0, SVG Export Plug-In . SVG Version: 6.00 Build 0)  -->
<svg version="1.1" id="Layer_1" xmlns="http://www.w3.org/2000/svg" xmlns:xlink="http://www.w3.org/1999/xlink" x="0px" y="0px"
	 viewBox="0 0 16 16" enable-background="new 0 0 16 16" xml:space="preserve">
<g id="upload">
	<g>
		<path fill-rule="evenodd" clip-rule="evenodd" d="M8,0C3.58,0,0,3.58,0,8s3.58,8,8,8s8-3.58,8-8S12.42,0,8,0z M11,8
			c-0.28,0-0.53-0.11-0.71-0.29L9,6.41V12c0,0.55-0.45,1-1,1s-1-0.45-1-1V6.41L5.71,7.71C5.53,7.89,5.28,8,5,8C4.45,8,4,7.55,4,7
			c0-0.28,0.11-0.53,0.29-0.71l3-3C7.47,3.11,7.72,3,8,3s0.53,0.11,0.71,0.29l3,3C11.89,6.47,12,6.72,12,7C12,7.55,11.55,8,11,8z"/>
	</g>
</g>
</svg>
