<?xml version="1.0" encoding="utf-8"?>
<!-- Generator: Adobe Illustrator 17.1.0, SVG Export Plug-In . SVG Version: 6.00 Build 0)  -->
<!DOCTYPE svg PUBLIC "-//W3C//DTD SVG 1.1//EN" "http://www.w3.org/Graphics/SVG/1.1/DTD/svg11.dtd">
<svg version="1.1" id="Layer_1" xmlns="http://www.w3.org/2000/svg" xmlns:xlink="http://www.w3.org/1999/xlink" x="0px" y="0px"
	 viewBox="0 0 16 16" enable-background="new 0 0 16 16" xml:space="preserve">
<g id="user_1_">
	<g>
		<path fill-rule="evenodd" clip-rule="evenodd" d="M7.99-0.01c-4.42,0-8,3.58-8,8c0,0.26,0.01,0.52,0.04,0.78
			c0.01,0.09,0.03,0.18,0.04,0.28C0.09,9.2,0.11,9.36,0.14,9.52c0.02,0.11,0.05,0.22,0.08,0.34c0.03,0.13,0.06,0.26,0.1,0.38
			c0.04,0.12,0.08,0.25,0.12,0.37c0.04,0.11,0.08,0.21,0.12,0.32c0.05,0.13,0.11,0.26,0.17,0.39c0.04,0.09,0.08,0.17,0.13,0.26
			c0.07,0.14,0.14,0.27,0.22,0.4c0.04,0.07,0.08,0.13,0.12,0.2c0.09,0.14,0.18,0.28,0.27,0.42c0.03,0.04,0.07,0.09,0.1,0.13
			c0.95,1.29,2.28,2.29,3.83,2.82c0.03,0.01,0.05,0.02,0.07,0.03c0.37,0.12,0.75,0.22,1.14,0.29c0.07,0.01,0.13,0.02,0.2,0.03
			c0.39,0.06,0.79,0.1,1.2,0.1s0.81-0.04,1.2-0.1c0.07-0.01,0.13-0.02,0.2-0.03c0.39-0.07,0.77-0.16,1.14-0.29
			c0.03-0.01,0.05-0.02,0.07-0.03c1.55-0.54,2.88-1.53,3.83-2.82c0.03-0.04,0.06-0.08,0.09-0.13c0.1-0.14,0.19-0.28,0.28-0.42
			c0.04-0.07,0.08-0.13,0.12-0.2c0.08-0.13,0.15-0.27,0.22-0.41c0.04-0.08,0.08-0.17,0.12-0.26c0.06-0.13,0.11-0.26,0.17-0.39
			c0.04-0.1,0.08-0.21,0.12-0.32c0.04-0.12,0.08-0.24,0.12-0.37c0.04-0.13,0.07-0.25,0.1-0.38c0.03-0.11,0.06-0.22,0.08-0.34
			c0.03-0.16,0.05-0.31,0.07-0.47c0.01-0.09,0.03-0.18,0.04-0.28c0.02-0.26,0.04-0.51,0.04-0.78C15.99,3.57,12.41-0.01,7.99-0.01z
			 M7.99,14.39L7.99,14.39c-1.98,0-3.75-0.9-4.92-2.31c0.67-0.36,1.49-0.66,2.14-0.95c1.16-0.52,1.04-0.84,1.08-1.27
			C6.3,9.8,6.3,9.75,6.3,9.69C5.89,9.33,5.56,8.83,5.34,8.25l0-0.01c0-0.01-0.01-0.02-0.01-0.02C5.28,8.09,5.24,7.96,5.21,7.83
			C4.93,7.78,4.77,7.48,4.71,7.2C4.65,7.09,4.53,6.82,4.56,6.51C4.6,6.1,4.76,5.92,4.94,5.84c0-0.02,0-0.04,0-0.06
			c0-0.51,0.05-1.24,0.14-1.72C5.1,3.93,5.13,3.8,5.17,3.67C5.34,3.08,5.7,2.55,6.18,2.18C6.67,1.8,7.37,1.59,8,1.59
			c0.62,0,1.32,0.2,1.82,0.59c0.48,0.37,0.84,0.9,1.01,1.49c0.04,0.13,0.07,0.26,0.09,0.4c0.09,0.48,0.14,1.21,0.14,1.72
			c0,0.02,0,0.05,0,0.07c0.18,0.08,0.33,0.26,0.37,0.66c0.03,0.31-0.1,0.58-0.16,0.69c-0.06,0.27-0.21,0.57-0.48,0.62
			c-0.03,0.13-0.07,0.26-0.12,0.38c0,0.01-0.01,0.04-0.01,0.04c-0.21,0.57-0.54,1.06-0.94,1.42c0,0.06,0.01,0.13,0.01,0.19
			c0.04,0.43-0.12,0.75,1.05,1.27c0.65,0.29,1.47,0.6,2.14,0.95C11.74,13.49,9.97,14.39,7.99,14.39z"/>
	</g>
</g>
</svg>
