<?xml version="1.0" encoding="utf-8"?>
<!-- Generator: Adobe Illustrator 18.0.0, SVG Export Plug-In . SVG Version: 6.00 Build 0)  -->
<svg version="1.1" id="Layer_1" xmlns="http://www.w3.org/2000/svg" xmlns:xlink="http://www.w3.org/1999/xlink" x="0px" y="0px"
	 viewBox="0 0 16 16" enable-background="new 0 0 16 16" xml:space="preserve">
<g id="variable_1_">
	<g>
		<path fill-rule="evenodd" clip-rule="evenodd" d="M3.94,3.15C4.41,2.49,4.99,1.91,5.7,1.42l0.13-0.4
			c-1.11,0.45-2.05,1.01-2.84,1.7C1.97,3.6,1.19,4.62,0.67,5.77C0.22,6.76,0,7.75,0,8.75C0,10.5,0.66,12.25,1.99,14l0.13-0.42
			c-0.39-0.94-0.59-1.82-0.59-2.63c0-1.28,0.22-2.64,0.67-4.1C2.65,5.4,3.23,4.16,3.94,3.15z M11.45,9.56l-0.27-0.15
			c-0.3,0.41-0.52,0.66-0.66,0.77c-0.09,0.06-0.21,0.1-0.33,0.1c-0.15,0-0.3-0.1-0.45-0.28C9.49,9.67,9.15,8.78,8.73,7.31
			c0.38-0.65,0.69-1.08,0.95-1.28c0.19-0.15,0.39-0.22,0.59-0.22c0.08,0,0.22,0.03,0.43,0.08c0.2,0.06,0.39,0.08,0.54,0.08
			c0.22,0,0.4-0.07,0.54-0.22c0.15-0.15,0.22-0.34,0.22-0.57c0-0.25-0.07-0.45-0.22-0.59c-0.15-0.15-0.35-0.22-0.63-0.22
			c-0.24,0-0.47,0.06-0.69,0.17c-0.21,0.11-0.49,0.36-0.82,0.74c-0.25,0.28-0.61,0.78-1.1,1.48C8.37,5.9,8.04,5.1,7.57,4.38
			L4.98,4.82L4.93,5.09c0.19-0.04,0.36-0.06,0.49-0.06c0.26,0,0.47,0.11,0.64,0.33C6.32,5.7,6.69,6.74,7.17,8.48
			C6.8,8.97,6.54,9.29,6.4,9.44c-0.23,0.24-0.41,0.4-0.56,0.47C5.73,9.97,5.6,10,5.45,10c-0.11,0-0.29-0.06-0.53-0.18
			C4.75,9.75,4.6,9.71,4.47,9.71c-0.25,0-0.46,0.08-0.62,0.24c-0.16,0.16-0.24,0.37-0.24,0.61c0,0.23,0.08,0.42,0.23,0.57
			c0.15,0.15,0.35,0.22,0.61,0.22c0.25,0,0.48-0.05,0.7-0.15c0.22-0.1,0.49-0.32,0.82-0.65c0.33-0.33,0.78-0.86,1.36-1.59
			c0.22,0.69,0.42,1.19,0.58,1.51c0.16,0.31,0.35,0.54,0.56,0.68c0.21,0.14,0.47,0.21,0.79,0.21c0.31,0,0.62-0.11,0.93-0.33
			C10.59,10.74,11.01,10.26,11.45,9.56z M14.01,1.02l-0.12,0.42c0.39,0.95,0.59,1.82,0.59,2.64c0,1.09-0.17,2.26-0.5,3.51
			c-0.26,0.96-0.6,1.87-1.02,2.71c-0.42,0.85-0.82,1.51-1.21,1.98c-0.39,0.48-0.87,0.92-1.44,1.32L10.17,14
			c1.11-0.45,2.05-1.02,2.84-1.7c1.03-0.89,1.81-1.91,2.33-3.05C15.78,8.26,16,7.26,16,6.25C16,4.52,15.34,2.77,14.01,1.02z"/>
	</g>
</g>
</svg>
