<svg xmlns="http://www.w3.org/2000/svg" xml:space="preserve" viewBox="0 0 16 16"><path fill-rule="evenodd" d="M3.94 3.15c.47-.66 1.05-1.24 1.76-1.73l.13-.4c-1.11.45-2.05 1.01-2.84 1.7-1.02.88-1.8 1.9-2.32 3.05C.22 6.76 0 7.75 0 8.75c0 1.75.66 3.5 1.99 5.25l.13-.42c-.39-.94-.59-1.82-.59-2.63 0-1.28.22-2.64.67-4.1.45-1.45 1.03-2.69 1.74-3.7zm7.51 6.41-.27-.15c-.3.41-.52.66-.66.77-.09.06-.21.1-.33.1-.15 0-.3-.1-.45-.28-.25-.33-.59-1.22-1.01-2.69.38-.65.69-1.08.95-1.28.19-.15.39-.22.59-.22.08 0 .22.03.43.08.2.06.39.08.54.08.22 0 .4-.07.54-.22.15-.15.22-.34.22-.57 0-.25-.07-.45-.22-.59-.15-.15-.35-.22-.63-.22-.24 0-.47.06-.69.17-.21.11-.49.36-.82.74-.25.28-.61.78-1.1 1.48a6.72 6.72 0 0 0-.97-2.38l-2.59.44-.05.27c.19-.04.36-.06.49-.06.26 0 .47.11.64.33.26.34.63 1.38 1.11 3.12-.37.49-.63.81-.77.96-.23.24-.41.4-.56.47-.11.06-.24.09-.39.09-.11 0-.29-.06-.53-.18-.17-.07-.32-.11-.45-.11-.25 0-.46.08-.62.24-.16.16-.24.37-.24.61 0 .23.08.42.23.57.15.15.35.22.61.22.25 0 .48-.05.7-.15.22-.1.49-.32.82-.65.33-.33.78-.86 1.36-1.59.22.69.42 1.19.58 1.51.16.31.35.54.56.68.21.14.47.21.79.21.31 0 .62-.11.93-.33.4-.29.82-.77 1.26-1.47zm2.56-8.54-.12.42c.39.95.59 1.82.59 2.64 0 1.09-.17 2.26-.5 3.51-.26.96-.6 1.87-1.02 2.71-.42.85-.82 1.51-1.21 1.98-.39.48-.87.92-1.44 1.32l-.14.4c1.11-.45 2.05-1.02 2.84-1.7 1.03-.89 1.81-1.91 2.33-3.05.44-.99.66-1.99.66-3 0-1.73-.66-3.48-1.99-5.23z" clip-rule="evenodd"/></svg>