<?xml version="1.0" encoding="utf-8"?>
<!-- Generator: Adobe Illustrator 18.0.0, SVG Export Plug-In . SVG Version: 6.00 Build 0)  -->
<svg version="1.1" id="Layer_1" xmlns="http://www.w3.org/2000/svg" xmlns:xlink="http://www.w3.org/1999/xlink" x="0px" y="0px"
	 viewBox="0 0 16 16" enable-background="new 0 0 16 16" xml:space="preserve">
<g id="vertical_distribution">
	<g>
		<path fill-rule="evenodd" clip-rule="evenodd" d="M1,2h14c0.55,0,1-0.45,1-1s-0.45-1-1-1H1C0.45,0,0,0.45,0,1S0.45,2,1,2z M15,13
			H1c-0.55,0-1,0.45-1,1s0.45,1,1,1h14c0.55,0,1-0.45,1-1S15.55,13,15,13z M3,5C2.45,5,2,5.45,2,6v3c0,0.55,0.45,1,1,1h9
			c0.55,0,1-0.45,1-1V6c0-0.55-0.45-1-1-1H3z"/>
	</g>
</g>
</svg>
