<?xml version="1.0" encoding="UTF-8"?>
<svg width="16px" height="16px" viewBox="0 0 16 16" version="1.1" xmlns="http://www.w3.org/2000/svg" xmlns:xlink="http://www.w3.org/1999/xlink">
    <!-- Generator: Sketch 64 (93537) - https://sketch.com -->
    <title>pt-virus-icon-16px</title>
    <desc>Created with Sketch.</desc>
    <g id="pt-virus-icon-16px" stroke="none" stroke-width="1" fill="none" fill-rule="evenodd">
        <g id="pt-icon-virus" transform="translate(0.000000, -0.500000)" fill="#000000" fill-rule="nonzero">
            <path d="M11.9175188,11.6072515 L12.655,12.344 L12.7071068,12.2928932 C13.0976311,11.9023689 13.7307961,11.9023689 14.1213203,12.2928932 C14.48395,12.6555229 14.5098522,13.2273683 14.1990267,13.619886 L14.1213203,13.7071068 L12.7071068,15.1213203 C12.3165825,15.5118446 11.6834175,15.5118446 11.2928932,15.1213203 C10.9302635,14.7586906 10.9043614,14.1868453 11.2151869,13.7943276 L11.244,13.761 L10.3808106,12.8978767 C9.95453146,13.1291325 9.4908587,13.3002186 9.0011864,13.3997409 L9,14.5 L9.11662113,14.5067277 C9.61395981,14.5644928 10,14.9871642 10,15.5 C10,16.0522847 9.55228475,16.5 9,16.5 L9,16.5 L7,16.5 L6.88337887,16.4932723 C6.38604019,16.4355072 6,16.0128358 6,15.5 C6,14.9477153 6.44771525,14.5 7,14.5 L7,14.5 L6.99981203,13.3999437 C6.48427764,13.2952751 5.99754892,13.1112866 5.55291939,12.8612719 L4.70710678,13.7071068 L4.78481315,13.7943276 C5.0956386,14.1868453 5.06973648,14.7586906 4.70710678,15.1213203 C4.31658249,15.5118446 3.68341751,15.5118446 3.29289322,15.1213203 L3.29289322,15.1213203 L1.87867966,13.7071068 L1.80097329,13.619886 C1.49014784,13.2273683 1.51604996,12.6555229 1.87867966,12.2928932 C2.26920395,11.9023689 2.90236893,11.9023689 3.29289322,12.2928932 L3.29289322,12.2928932 L3.293,12.293 L4.03707721,11.5492153 C3.68295023,11.0896553 3.40697438,10.5667717 3.22904576,10.0004604 L2,10 C2,10.5522847 1.55228475,11 1,11 C0.487164161,11 0.0644928393,10.6139598 0.00672773133,10.1166211 L-1.36937725e-15,10 L-1.49184193e-15,8 C-1.52565962e-15,7.44771525 0.44771525,7 1,7 C1.51283584,7 1.93550716,7.38604019 1.99327227,7.88337887 L2,8 L3.02465783,8.00030016 C3.11312552,7.10871671 3.43579854,6.28602215 3.9302868,5.59460656 L3.418,5.082 L3.29289322,5.20710678 C2.90236893,5.59763107 2.26920395,5.59763107 1.87867966,5.20710678 C1.51604996,4.84447708 1.49014784,4.27263169 1.80097329,3.88011403 L1.87867966,3.79289322 L3.29289322,2.37867966 C3.68341751,1.98815536 4.31658249,1.98815536 4.70710678,2.37867966 C5.05477651,2.72634938 5.09292839,3.26632885 4.82156241,3.65620517 L5.39496424,4.23139768 C5.88106856,3.93410417 6.4218963,3.71751335 6.9988136,3.60025909 L6.999,2.5 L6.88337887,2.49327227 C6.38604019,2.43550716 6,2.01283584 6,1.5 C6,0.987164161 6.38604019,0.564492839 6.88337887,0.506727731 L7,0.5 L9,0.5 C9.55228475,0.5 10,0.94771525 10,1.5 C10,2.01283584 9.61395981,2.43550716 9.11662113,2.49327227 L9,2.5 L9.0011864,3.60025909 C9.63954488,3.73000083 10.2337174,3.9813643 10.7584602,4.32910565 L11.293,3.793 L11.2928932,3.79289322 L11.2151869,3.70567241 C10.9043614,3.31315475 10.9302635,2.74130936 11.2928932,2.37867966 C11.6834175,1.98815536 12.3165825,1.98815536 12.7071068,2.37867966 L12.7071068,2.37867966 L14.1213203,3.79289322 L14.1990267,3.88011403 C14.5098522,4.27263169 14.48395,4.84447708 14.1213203,5.20710678 C13.7307961,5.59763107 13.0976311,5.59763107 12.7071068,5.20710678 L12.7071068,5.20710678 L12.1715651,5.74255219 C12.6084698,6.40219004 12.8931021,7.17147937 12.9753422,8.00030016 L14,8 L14.0067277,7.88337887 C14.0644928,7.38604019 14.4871642,7 15,7 C15.5522847,7 16,7.44771525 16,8 L16,8 L16,10 L15.9932723,10.1166211 C15.9355072,10.6139598 15.5128358,11 15,11 C14.4477153,11 14,10.5522847 14,10 L14,10 L12.7709542,10.0004604 C12.5854915,10.5907514 12.2935023,11.1338591 11.9175188,11.6072515 Z M10,9.5 C9.44771525,9.5 9,9.94771525 9,10.5 C9,11.0522847 9.44771525,11.5 10,11.5 C10.5522847,11.5 11,11.0522847 11,10.5 C11,9.94771525 10.5522847,9.5 10,9.5 Z M6.5,5.5 C5.67157288,5.5 5,6.17157288 5,7 C5,7.82842712 5.67157288,8.5 6.5,8.5 C7.32842712,8.5 8,7.82842712 8,7 C8,6.17157288 7.32842712,5.5 6.5,5.5 Z" id="Combined-Shape"></path>
        </g>
    </g>
</svg>