<?xml version="1.0" encoding="utf-8"?>
<!-- Generator: Adobe Illustrator 18.1.0, SVG Export Plug-In . SVG Version: 6.00 Build 0)  -->
<svg version="1.1" id="Layer_1" xmlns="http://www.w3.org/2000/svg" xmlns:xlink="http://www.w3.org/1999/xlink" x="0px" y="0px"
	 viewBox="0 0 16 16" enable-background="new 0 0 16 16" xml:space="preserve">
<g id="volume_up">
	<g>
		<path fill-rule="evenodd" clip-rule="evenodd" d="M7,1.86c-0.28,0-0.53,0.11-0.71,0.29L3.59,4.86H1c-0.55,0-1,0.45-1,1v4
			c0,0.55,0.45,1,1,1h2.59l2.71,2.71c0.18,0.18,0.43,0.29,0.71,0.29c0.55,0,1-0.45,1-1v-10C8,2.31,7.55,1.86,7,1.86z M13.74,0.87
			l-1.58,1.22C13.31,3.72,14,5.71,14,7.86c0,2.16-0.69,4.15-1.85,5.78l1.58,1.22c1.42-1.97,2.26-4.38,2.26-7
			C16,5.25,15.15,2.84,13.74,0.87z M8.98,4.52C9.62,5.48,10,6.63,10,7.86s-0.38,2.39-1.02,3.34l1.59,1.22
			C11.47,11.13,12,9.56,12,7.86c0-1.7-0.53-3.27-1.43-4.56L8.98,4.52z"/>
	</g>
</g>
</svg>
