<?xml version="1.0" encoding="utf-8"?>
<!-- Generator: Adobe Illustrator 18.1.0, SVG Export Plug-In . SVG Version: 6.00 Build 0)  -->
<svg version="1.1" id="Layer_1" xmlns="http://www.w3.org/2000/svg" xmlns:xlink="http://www.w3.org/1999/xlink" x="0px" y="0px"
	 viewBox="0 0 16 16" enable-background="new 0 0 16 16" xml:space="preserve">
<g id="volume_down">
	<g>
		<path fill-rule="evenodd" clip-rule="evenodd" d="M9,2C8.72,2,8.47,2.11,8.29,2.29L5.59,5H3C2.45,5,2,5.45,2,6v4
			c0,0.55,0.45,1,1,1h2.59l2.71,2.71C8.47,13.89,8.72,14,9,14c0.55,0,1-0.45,1-1V3C10,2.45,9.55,2,9,2z M12.57,3.44l-1.59,1.22
			C11.62,5.61,12,6.76,12,8s-0.38,2.39-1.02,3.34l1.59,1.22C13.47,11.27,14,9.7,14,8C14,6.3,13.47,4.73,12.57,3.44z"/>
	</g>
</g>
</svg>
