<svg xmlns="http://www.w3.org/2000/svg" xml:space="preserve" viewBox="0 0 16 16"><path fill-rule="evenodd" d="M7 1.86c-.28 0-.53.11-.71.29l-2.7 2.71H1c-.55 0-1 .45-1 1v4c0 .55.45 1 1 1h2.59l2.71 2.71a1.003 1.003 0 0 0 1.71-.71v-10c-.01-.55-.46-1-1.01-1zm6.74-.99-1.58 1.22A9.985 9.985 0 0 1 14 7.86c0 2.16-.69 4.15-1.85 5.78l1.58 1.22c1.42-1.97 2.26-4.38 2.26-7 .01-2.61-.84-5.02-2.25-6.99zM8.98 4.52C9.62 5.48 10 6.63 10 7.86s-.38 2.39-1.02 3.34l1.59 1.22c.9-1.29 1.43-2.86 1.43-4.56 0-1.7-.53-3.27-1.43-4.56L8.98 4.52z" clip-rule="evenodd"/></svg>