<?xml version="1.0" encoding="utf-8"?>
<!-- Generator: Adobe Illustrator 18.0.0, SVG Export Plug-In . SVG Version: 6.00 Build 0)  -->
<svg version="1.1" id="Layer_1" xmlns="http://www.w3.org/2000/svg" xmlns:xlink="http://www.w3.org/1999/xlink" x="0px" y="0px"
	 viewBox="0 0 16 16" enable-background="new 0 0 16 16" xml:space="preserve">
<path id="walk_2_" fill-rule="evenodd" clip-rule="evenodd" d="M13,8h-2c-0.16,0-0.31-0.05-0.44-0.11l0,0.01L9.54,7.39L9.17,9.25
	l1.38,0.92l-0.01,0.02C10.81,10.36,11,10.65,11,11v4c0,0.55-0.45,1-1,1s-1-0.45-1-1v-3.46l-1.27-0.85l-1.8,4.67l-0.01,0
	C5.78,15.73,5.43,16,5,16c-0.55,0-1-0.45-1-1c0-0.13,0.03-0.25,0.07-0.36l-0.01,0L7.39,6H5.62L4.89,7.45l-0.01,0
	C4.72,7.77,4.39,8,4,8C3.45,8,3,7.55,3,7c0-0.16,0.05-0.31,0.11-0.44l-0.01,0l1-2l0.01,0C4.28,4.23,4.61,4,5,4h3.16l0.29-0.75
	C8.17,2.9,8,2.47,8,2c0-1.1,0.9-2,2-2s2,0.9,2,2c0,1-0.73,1.82-1.69,1.97L9.81,5.29L11.24,6H13c0.55,0,1,0.45,1,1S13.55,8,13,8z"/>
</svg>
