<?xml version="1.0" encoding="utf-8"?>
<!-- Generator: Adobe Illustrator 17.1.0, SVG Export Plug-In . SVG Version: 6.00 Build 0)  -->
<!DOCTYPE svg PUBLIC "-//W3C//DTD SVG 1.1//EN" "http://www.w3.org/Graphics/SVG/1.1/DTD/svg11.dtd">
<svg version="1.1" id="Layer_1" xmlns="http://www.w3.org/2000/svg" xmlns:xlink="http://www.w3.org/1999/xlink" x="0px" y="0px"
	 viewBox="0 0 16 16" enable-background="new 0 0 16 16" xml:space="preserve">
<g id="warning_1_">
	<g>
		<path fill-rule="evenodd" clip-rule="evenodd" d="M15.84,13.5l0.01-0.01l-7-12L8.84,1.5c-0.17-0.3-0.48-0.5-0.85-0.5
			S7.32,1.2,7.14,1.5c0,0-0.01-0.01-0.01-0.01l-7,12l0.01,0.01c-0.09,0.15-0.15,0.31-0.15,0.5c0,0.55,0.45,1,1,1h14
			c0.55,0,1-0.45,1-1C15.99,13.81,15.93,13.65,15.84,13.5z M8.99,12.99h-2v-2h2V12.99z M8.99,9.99h-2v-5h2V9.99z"/>
	</g>
</g>
</svg>
