<svg xmlns="http://www.w3.org/2000/svg" width="16" height="16"><path fill-rule="evenodd" d="M3 1a1 1 0 0 1 .894.553c.102.202.393.607.779.957.419.381.72.49.827.49.108 0 .408-.109.827-.49.386-.35.677-.755.779-.957a1 1 0 0 1 1.788 0c.102.202.393.607.779.957.419.381.72.49.827.49.108 0 .408-.109.827-.49.386-.35.677-.755.779-.957a1 1 0 0 1 1.788 0c.173.344.38.75.637 1.072.277.347.437.375.469.375a1 1 0 1 1 0 2c-.968 0-1.642-.64-2.03-1.125a4.755 4.755 0 0 1-.076-.097 6.093 6.093 0 0 1-.221.212C12.175 4.442 11.393 5 10.5 5c-.892 0-1.675-.558-2.173-1.01A6.243 6.243 0 0 1 8 3.67c-.105.11-.214.217-.327.32C7.175 4.442 6.393 5 5.5 5c-.892 0-1.675-.558-2.173-1.01a6.119 6.119 0 0 1-.221-.212l-.075.097C2.64 4.36 1.968 5 1 5a1 1 0 0 1 0-2c.032 0 .191-.028.47-.375.256-.321.463-.728.636-1.072A1 1 0 0 1 3 1Zm0 5a1 1 0 0 1 .894.553c.102.202.393.607.779.957.419.381.72.49.827.49.108 0 .408-.109.827-.49.386-.35.677-.755.779-.957a1 1 0 0 1 1.788 0c.102.202.393.607.779.957.419.381.72.49.827.49.108 0 .408-.109.827-.49.386-.35.677-.755.779-.957a1 1 0 0 1 1.788 0c.173.344.38.75.637 1.072.277.347.437.375.469.375a1 1 0 1 1 0 2c-.968 0-1.642-.639-2.03-1.125a4.726 4.726 0 0 1-.076-.097 6.093 6.093 0 0 1-.221.212c-.498.452-1.28 1.01-2.173 1.01-.892 0-1.675-.558-2.173-1.01A6.243 6.243 0 0 1 8 8.67c-.105.11-.214.217-.327.32C7.175 9.442 6.393 10 5.5 10c-.892 0-1.675-.558-2.173-1.01a6.119 6.119 0 0 1-.221-.212l-.075.097C2.64 9.36 1.968 10 1 10a1 1 0 0 1 0-2c.032 0 .191-.028.47-.375.256-.321.463-.728.636-1.072A1 1 0 0 1 3 6Zm.894 5.553a1 1 0 0 0-1.788 0c-.173.344-.38.75-.637 1.072-.278.347-.437.375-.469.375a1 1 0 1 0 0 2c.968 0 1.642-.639 2.03-1.125a4.9 4.9 0 0 0 .076-.097c.072.073.146.143.221.212.498.452 1.28 1.01 2.173 1.01.892 0 1.675-.558 2.173-1.01.113-.103.222-.21.327-.32.105.11.214.217.327.32.498.452 1.28 1.01 2.173 1.01.892 0 1.675-.558 2.173-1.01.075-.069.149-.14.221-.212a4.9 4.9 0 0 0 .075.097C13.36 14.36 14.032 15 15 15a1 1 0 1 0 0-2c-.032 0-.191-.028-.47-.375-.256-.321-.463-.728-.636-1.072a1 1 0 0 0-1.788 0c-.102.202-.393.607-.779.957-.419.381-.72.49-.827.49-.108 0-.408-.109-.827-.49-.386-.35-.677-.755-.779-.957a1 1 0 0 0-1.788 0c-.102.202-.393.607-.779.957-.419.381-.72.49-.827.49-.108 0-.408-.109-.827-.49-.386-.35-.677-.755-.779-.957Z" clip-rule="evenodd"/></svg>