<svg width="16" height="16" viewBox="0 0 16 16" fill="none" xmlns="http://www.w3.org/2000/svg">
<path fill-rule="evenodd" clip-rule="evenodd" d="M10 4C10 2.89543 10.8954 2 12 2C13.1046 2 14 2.89543 14 4C14 5.10457 13.1046 6 12 6H4C3.44772 6 3 6.44772 3 7C3 7.55228 3.44772 8 4 8H12C14.2091 8 16 6.20914 16 4C16 1.79086 14.2091 0 12 0C9.79086 0 8 1.79086 8 4C8 4.55228 8.44772 5 9 5C9.55228 5 10 4.55228 10 4ZM1 9C0.447715 9 0 9.44771 0 10C0 10.5523 0.447715 11 1 11H8.5C9.32843 11 10 11.6716 10 12.5C10 13.3284 9.32843 14 8.5 14C7.75139 14 7.11414 13.4618 6.98001 12.8011C6.87015 12.2598 6.34231 11.9101 5.80107 12.02C5.25982 12.1299 4.91012 12.6577 5.01999 13.1989C5.34913 14.8204 6.82965 16 8.5 16C10.433 16 12 14.433 12 12.5C12 10.567 10.433 9 8.5 9H1Z" fill="#5C7080"/>
</svg>
