<?xml version="1.0" encoding="utf-8"?>
<!-- Generator: Adobe Illustrator 17.1.0, SVG Export Plug-In . SVG Version: 6.00 Build 0)  -->
<!DOCTYPE svg PUBLIC "-//W3C//DTD SVG 1.1//EN" "http://www.w3.org/Graphics/SVG/1.1/DTD/svg11.dtd">
<svg version="1.1" id="Layer_1" xmlns="http://www.w3.org/2000/svg" xmlns:xlink="http://www.w3.org/1999/xlink" x="0px" y="0px"
	 viewBox="0 0 16 16" enable-background="new 0 0 16 16" xml:space="preserve">
<g id="zoomout_1_">
	<g>
		<path fill-rule="evenodd" clip-rule="evenodd" d="M3.99,5.99c-0.55,0-1,0.45-1,1s0.45,1,1,1h6c0.55,0,1-0.45,1-1s-0.45-1-1-1H3.99
			z M15.55,13.43l-2.67-2.68c0.7-1.09,1.11-2.38,1.11-3.76c0-3.87-3.13-7-7-7s-7,3.13-7,7s3.13,7,7,7c1.39,0,2.68-0.42,3.76-1.11
			l2.68,2.67c0.27,0.27,0.65,0.44,1.06,0.44c0.83,0,1.5-0.67,1.5-1.5C15.99,14.08,15.82,13.7,15.55,13.43z M6.99,11.99
			c-2.76,0-5-2.24-5-5s2.24-5,5-5s5,2.24,5,5S9.75,11.99,6.99,11.99z"/>
	</g>
</g>
</svg>
