<?xml version="1.0" encoding="utf-8"?>
<!-- Generator: Adobe Illustrator 18.0.0, SVG Export Plug-In . SVG Version: 6.00 Build 0)  -->
<svg version="1.1" id="Layer_1" xmlns="http://www.w3.org/2000/svg" xmlns:xlink="http://www.w3.org/1999/xlink" x="0px" y="0px"
	 viewBox="0 0 16 16" enable-background="new 0 0 16 16" xml:space="preserve">
<g id="zoom_to_fit">
	<g>
		<path fill-rule="evenodd" clip-rule="evenodd" d="M11,10c0,0.55,0.45,1,1,1c0.28,0,0.53-0.11,0.71-0.29l2-2
			C14.89,8.53,15,8.28,15,8c0-0.28-0.11-0.53-0.29-0.71l-2-2C12.53,5.11,12.28,5,12,5c-0.55,0-1,0.45-1,1
			c0,0.28,0.11,0.53,0.29,0.71L12.59,8l-1.29,1.29C11.11,9.47,11,9.72,11,10z M1,5c0.55,0,1-0.45,1-1V2h2c0.55,0,1-0.45,1-1
			c0-0.55-0.45-1-1-1H1C0.45,0,0,0.45,0,1v3C0,4.55,0.45,5,1,5z M5,6c0-0.55-0.45-1-1-1C3.72,5,3.47,5.11,3.29,5.29l-2,2
			C1.11,7.47,1,7.72,1,8c0,0.28,0.11,0.53,0.29,0.71l2,2C3.47,10.89,3.72,11,4,11c0.55,0,1-0.45,1-1c0-0.28-0.11-0.53-0.29-0.71
			L3.41,8l1.29-1.29C4.89,6.53,5,6.28,5,6z M6,5c0.28,0,0.53-0.11,0.71-0.29L8,3.41l1.29,1.29C9.47,4.89,9.72,5,10,5
			c0.55,0,1-0.45,1-1c0-0.28-0.11-0.53-0.29-0.71l-2-2C8.53,1.11,8.28,1,8,1S7.47,1.11,7.29,1.29l-2,2C5.11,3.47,5,3.72,5,4
			C5,4.55,5.45,5,6,5z M15,11c-0.55,0-1,0.45-1,1v2h-2c-0.55,0-1,0.45-1,1c0,0.55,0.45,1,1,1h3c0.55,0,1-0.45,1-1v-3
			C16,11.45,15.55,11,15,11z M15,0h-3c-0.55,0-1,0.45-1,1c0,0.55,0.45,1,1,1h2v2c0,0.55,0.45,1,1,1s1-0.45,1-1V1
			C16,0.45,15.55,0,15,0z M4,14H2v-2c0-0.55-0.45-1-1-1s-1,0.45-1,1v3c0,0.55,0.45,1,1,1h3c0.55,0,1-0.45,1-1C5,14.45,4.55,14,4,14z
			 M10,11c-0.28,0-0.53,0.11-0.71,0.29L8,12.59l-1.29-1.29C6.53,11.11,6.28,11,6,11c-0.55,0-1,0.45-1,1c0,0.28,0.11,0.53,0.29,0.71
			l2,2C7.47,14.89,7.72,15,8,15s0.53-0.11,0.71-0.29l2-2C10.89,12.53,11,12.28,11,12C11,11.45,10.55,11,10,11z"/>
	</g>
</g>
</svg>
