<?xml version="1.0" encoding="utf-8"?>
<!-- Generator: Adobe Illustrator 18.0.0, SVG Export Plug-In . SVG Version: 6.00 Build 0)  -->
<svg version="1.1" id="Layer_1" xmlns="http://www.w3.org/2000/svg" xmlns:xlink="http://www.w3.org/1999/xlink" x="0px" y="0px"
	 viewBox="0 0 20 20" enable-background="new 0 0 20 20" xml:space="preserve">
<g id="add_column_bottom">
	<g>
		<path fill-rule="evenodd" clip-rule="evenodd" d="M19,0H1C0.45,0,0,0.45,0,1v18c0,0.55,0.45,1,1,1h18c0.55,0,1-0.45,1-1V1
			C20,0.45,19.55,0,19,0z M18,18H2V8h16V18z M18,7H2V2h16V7z M7,14h2v2c0,0.55,0.45,1,1,1s1-0.45,1-1v-2h2c0.55,0,1-0.45,1-1
			c0-0.55-0.45-1-1-1h-2v-2c0-0.55-0.45-1-1-1s-1,0.45-1,1v2H7c-0.55,0-1,0.45-1,1C6,13.55,6.45,14,7,14z"/>
	</g>
</g>
</svg>
