<?xml version="1.0" encoding="utf-8"?>
<!-- Generator: Adobe Illustrator 17.1.0, SVG Export Plug-In . SVG Version: 6.00 Build 0)  -->
<!DOCTYPE svg PUBLIC "-//W3C//DTD SVG 1.1//EN" "http://www.w3.org/Graphics/SVG/1.1/DTD/svg11.dtd">
<svg version="1.1" id="Layer_1" xmlns="http://www.w3.org/2000/svg" xmlns:xlink="http://www.w3.org/1999/xlink" x="0px" y="0px"
	 viewBox="0 0 20 20" enable-background="new 0 0 20 20" xml:space="preserve">
<g id="add_to_artifact">
	<g>
		<path fill-rule="evenodd" clip-rule="evenodd" d="M13,12H1c-0.55,0-1,0.45-1,1c0,0.55,0.45,1,1,1h12c0.55,0,1-0.45,1-1
			C14,12.45,13.55,12,13,12z M13,16H1c-0.55,0-1,0.45-1,1c0,0.55,0.45,1,1,1h12c0.55,0,1-0.45,1-1C14,16.45,13.55,16,13,16z M1,6h9
			c0.55,0,1-0.45,1-1c0-0.55-0.45-1-1-1H1C0.45,4,0,4.45,0,5C0,5.55,0.45,6,1,6z M13,8H1C0.45,8,0,8.45,0,9c0,0.55,0.45,1,1,1h12
			c0.55,0,1-0.45,1-1C14,8.45,13.55,8,13,8z M19,4h-2V2c0-0.55-0.45-1-1-1s-1,0.45-1,1v2h-2c-0.55,0-1,0.45-1,1c0,0.55,0.45,1,1,1h2
			v2c0,0.55,0.45,1,1,1s1-0.45,1-1V6h2c0.55,0,1-0.45,1-1C20,4.45,19.55,4,19,4z"/>
	</g>
</g>
</svg>
