<?xml version="1.0" encoding="utf-8"?>
<!-- Generator: Adobe Illustrator 17.1.0, SVG Export Plug-In . SVG Version: 6.00 Build 0)  -->
<!DOCTYPE svg PUBLIC "-//W3C//DTD SVG 1.1//EN" "http://www.w3.org/Graphics/SVG/1.1/DTD/svg11.dtd">
<svg version="1.1" id="Layer_1" xmlns="http://www.w3.org/2000/svg" xmlns:xlink="http://www.w3.org/1999/xlink" x="0px" y="0px"
	 viewBox="0 0 20 20" enable-background="new 0 0 20 20" xml:space="preserve">
<g id="add_1_">
	<g>
		<path fill-rule="evenodd" clip-rule="evenodd" d="M10,0C4.48,0,0,4.48,0,10c0,5.52,4.48,10,10,10s10-4.48,10-10
			C20,4.48,15.52,0,10,0z M10,18c-4.42,0-8-3.58-8-8s3.58-8,8-8s8,3.58,8,8S14.42,18,10,18z M15,9h-4V5c0-0.55-0.45-1-1-1
			S9,4.45,9,5v4H5c-0.55,0-1,0.45-1,1c0,0.55,0.45,1,1,1h4v4c0,0.55,0.45,1,1,1s1-0.45,1-1v-4h4c0.55,0,1-0.45,1-1
			C16,9.45,15.55,9,15,9z"/>
	</g>
</g>
</svg>
