<?xml version="1.0" encoding="utf-8"?>
<!-- Generator: Adobe Illustrator 18.0.0, SVG Export Plug-In . SVG Version: 6.00 Build 0)  -->
<svg version="1.1" id="Layer_1" xmlns="http://www.w3.org/2000/svg" xmlns:xlink="http://www.w3.org/1999/xlink" x="0px" y="0px"
	 viewBox="0 0 20 20" enable-background="new 0 0 20 20" xml:space="preserve">
<g id="align_top_1_">
	<g>
		<path fill-rule="evenodd" clip-rule="evenodd" d="M8,4H4C3.45,4,3,4.45,3,5v14c0,0.55,0.45,1,1,1h4c0.55,0,1-0.45,1-1V5
			C9,4.45,8.55,4,8,4z M19,0H1C0.45,0,0,0.45,0,1s0.45,1,1,1h18c0.55,0,1-0.45,1-1S19.55,0,19,0z M16,4h-4c-0.55,0-1,0.45-1,1v7
			c0,0.55,0.45,1,1,1h4c0.55,0,1-0.45,1-1V5C17,4.45,16.55,4,16,4z"/>
	</g>
</g>
</svg>
