<?xml version="1.0" encoding="utf-8"?>
<!-- Generator: Adobe Illustrator 18.0.0, SVG Export Plug-In . SVG Version: 6.00 Build 0)  -->
<svg version="1.1" id="Layer_1" xmlns="http://www.w3.org/2000/svg" xmlns:xlink="http://www.w3.org/1999/xlink" x="0px" y="0px"
	 viewBox="0 0 20 20" enable-background="new 0 0 20 20" xml:space="preserve">
<g id="align_horizontal_center_1_">
	<g>
		<path fill-rule="evenodd" clip-rule="evenodd" d="M19,9h-2V7c0-0.55-0.45-1-1-1h-4c-0.55,0-1,0.45-1,1v2H9V3c0-0.55-0.45-1-1-1H4
			C3.45,2,3,2.45,3,3v6H1c-0.55,0-1,0.45-1,1c0,0.55,0.45,1,1,1h2v6c0,0.55,0.45,1,1,1h4c0.55,0,1-0.45,1-1v-6h2v2
			c0,0.55,0.45,1,1,1h4c0.55,0,1-0.45,1-1v-2h2c0.55,0,1-0.45,1-1C20,9.45,19.55,9,19,9z"/>
	</g>
</g>
</svg>
