<?xml version="1.0" encoding="utf-8"?>
<!-- Generator: Adobe Illustrator 18.0.0, SVG Export Plug-In . SVG Version: 6.00 Build 0)  -->
<svg version="1.1" id="Layer_1" xmlns="http://www.w3.org/2000/svg" xmlns:xlink="http://www.w3.org/1999/xlink" x="0px" y="0px"
	 viewBox="0 0 20 20" enable-background="new 0 0 20 20" xml:space="preserve">
<g id="align_left_1_">
	<g>
		<path fill-rule="evenodd" clip-rule="evenodd" d="M1,0C0.45,0,0,0.45,0,1v18c0,0.55,0.45,1,1,1s1-0.45,1-1V1C2,0.45,1.55,0,1,0z
			 M12,11H5c-0.55,0-1,0.45-1,1v4c0,0.55,0.45,1,1,1h7c0.55,0,1-0.45,1-1v-4C13,11.45,12.55,11,12,11z M19,3H5C4.45,3,4,3.45,4,4v4
			c0,0.55,0.45,1,1,1h14c0.55,0,1-0.45,1-1V4C20,3.45,19.55,3,19,3z"/>
	</g>
</g>
</svg>
