<?xml version="1.0" encoding="utf-8"?>
<!-- Generator: Adobe Illustrator 18.0.0, SVG Export Plug-In . SVG Version: 6.00 Build 0)  -->
<svg version="1.1" id="Layer_1" xmlns="http://www.w3.org/2000/svg" xmlns:xlink="http://www.w3.org/1999/xlink" x="0px" y="0px"
	 viewBox="0 0 20 20" enable-background="new 0 0 20 20" xml:space="preserve">
<g id="align_right_1_">
	<g>
		<path fill-rule="evenodd" clip-rule="evenodd" d="M19,0c-0.55,0-1,0.45-1,1v18c0,0.55,0.45,1,1,1s1-0.45,1-1V1
			C20,0.45,19.55,0,19,0z M15,11H8c-0.55,0-1,0.45-1,1v4c0,0.55,0.45,1,1,1h7c0.55,0,1-0.45,1-1v-4C16,11.45,15.55,11,15,11z M15,3
			H1C0.45,3,0,3.45,0,4v4c0,0.55,0.45,1,1,1h14c0.55,0,1-0.45,1-1V4C16,3.45,15.55,3,15,3z"/>
	</g>
</g>
</svg>
