<?xml version="1.0" encoding="utf-8"?>
<!-- Generator: Adobe Illustrator 18.0.0, SVG Export Plug-In . SVG Version: 6.00 Build 0)  -->
<svg version="1.1" id="Layer_1" xmlns="http://www.w3.org/2000/svg" xmlns:xlink="http://www.w3.org/1999/xlink" x="0px" y="0px"
	 viewBox="0 0 20 20" enable-background="new 0 0 20 20" xml:space="preserve">
<g id="align_bottom_1_">
	<g>
		<path fill-rule="evenodd" clip-rule="evenodd" d="M12,16h4c0.55,0,1-0.45,1-1V8c0-0.55-0.45-1-1-1h-4c-0.55,0-1,0.45-1,1v7
			C11,15.55,11.45,16,12,16z M19,18H1c-0.55,0-1,0.45-1,1s0.45,1,1,1h18c0.55,0,1-0.45,1-1S19.55,18,19,18z M4,16h4
			c0.55,0,1-0.45,1-1V1c0-0.55-0.45-1-1-1H4C3.45,0,3,0.45,3,1v14C3,15.55,3.45,16,4,16z"/>
	</g>
</g>
</svg>
