<svg xmlns="http://www.w3.org/2000/svg" width="20" height="20"><path fill-rule="evenodd" d="M2.01 10.758a8.025 8.025 0 0 0 1.01 3.204l.02.035c.034.058.061.117.084.178.163.44.054.951-.33 1.239-.435.328-1.059.242-1.342-.224a9.797 9.797 0 0 1-.221-.383 10 10 0 1 1 17.48.106c-.269.474-.89.58-1.335.267-.392-.275-.518-.783-.37-1.228a1.19 1.19 0 0 1 .078-.18l.019-.036A8.026 8.026 0 1 0 2.01 10.758Zm4.272.772a1.464 1.464 0 0 1 .091.32c.07.425-.052.87-.402 1.128-.44.325-1.068.235-1.316-.252a6 6 0 1 1 10.734-.09c-.24.492-.867.593-1.312.275-.354-.253-.483-.695-.42-1.122a1.462 1.462 0 0 1 .085-.321 4.021 4.021 0 0 0-5.87-4.878 4.02 4.02 0 0 0-1.59 4.94Zm4.712 2.583A.999.999 0 0 0 11 14v-4a1 1 0 1 0-2 0v4c0 .038.002.076.006.113l-3.753 4.223a1 1 0 0 0 1.494 1.328L10 16.005l3.252 3.66a1 1 0 1 0 1.495-1.33l-3.753-4.222Z" clip-rule="evenodd"/></svg>