<svg xmlns="http://www.w3.org/2000/svg" width="20" height="20"><path fill-rule="evenodd" d="M19 0a1 1 0 0 1 .993.883L20 1v18a1 1 0 0 1-.883.993L19 20h-4a1 1 0 0 1-.117-1.993L15 18h3V2h-3a1 1 0 0 1-.993-.883L14 1a1 1 0 0 1 .883-.993L15 0h4ZM5 0a1 1 0 0 1 .117 1.993L5 2H2v16h3a1 1 0 0 1 .993.883L6 19a1 1 0 0 1-.883.993L5 20H1a1 1 0 0 1-.993-.883L0 19V1A1 1 0 0 1 .883.007L1 0h4Zm8.995 6.09c.32 0 .603.047.85.14a1.679 1.679 0 0 1 1.015.985c.09.23.135.482.135.755 0 .287-.063.552-.19.795a1.642 1.642 0 0 1-.57.615v.02l.101.05c.068.039.138.09.209.155.107.097.203.215.29.355a2.09 2.09 0 0 1 .3 1.09c0 .313-.053.597-.16.85a1.898 1.898 0 0 1-1.12 1.065 2.42 2.42 0 0 1-.85.145c-.533 0-.99-.127-1.37-.38a1.702 1.702 0 0 1-.73-1.08c-.013-.067.013-.11.08-.13l.87-.2.041-.003c.038.004.064.028.079.073.073.2.193.37.36.51.167.14.39.21.67.21.32 0 .567-.095.74-.285.173-.19.26-.432.26-.725 0-.347-.1-.618-.3-.815-.2-.197-.47-.295-.81-.295h-.29l-.044-.006c-.037-.013-.056-.044-.056-.094V9.1l.006-.044c.013-.037.044-.056.094-.056h.27l.145-.008a.925.925 0 0 0 .575-.262c.18-.18.27-.42.27-.72 0-.273-.08-.495-.24-.665-.16-.17-.383-.255-.67-.255-.253 0-.453.063-.6.19-.147.127-.25.297-.31.51-.02.06-.06.083-.12.07l-.85-.2-.042-.015c-.035-.02-.048-.055-.038-.105a1.684 1.684 0 0 1 .645-1.035c.17-.13.37-.232.6-.305.23-.073.482-.11.755-.11Zm-7.99.11.044.006c.037.013.056.044.056.094v6.6l-.006.044c-.013.037-.044.056-.094.056h-.92l-.044-.006c-.037-.013-.056-.044-.056-.094V7.54h-.02l-1.04.73-.04.02c-.047.016-.07-.01-.07-.08V7.19l.008-.051a.196.196 0 0 1 .062-.089l1.09-.79.051-.033a.295.295 0 0 1 .129-.027h.85Zm3.34-.11c.32 0 .603.05.85.15.247.1.455.235.625.405.17.17.3.37.39.6.09.23.135.478.135.745 0 .307-.057.588-.17.845a3.16 3.16 0 0 1-.47.745l-1.98 2.4V12h2.52l.044.006c.037.013.056.044.056.094v.8l-.006.044c-.013.037-.044.056-.094.056h-3.82l-.044-.006c-.037-.013-.056-.044-.056-.094v-.75l.006-.05a.165.165 0 0 1 .044-.08l2.4-2.99.124-.167c.077-.11.143-.222.196-.333.08-.167.12-.347.12-.54a.92.92 0 0 0-.235-.64c-.157-.173-.378-.26-.665-.26-.273 0-.487.077-.64.23-.153.153-.247.36-.28.62-.013.067-.05.093-.11.08l-.88-.18-.043-.015c-.035-.02-.047-.055-.037-.105a1.78 1.78 0 0 1 .56-1.115c.167-.157.372-.282.615-.375a2.35 2.35 0 0 1 .845-.14Z"/></svg>