<svg xmlns="http://www.w3.org/2000/svg" width="20" height="20"><path fill-rule="evenodd" d="M19 0a1 1 0 0 1 .993.883L20 1v18a1 1 0 0 1-.883.993L19 20h-4a1 1 0 0 1-.117-1.993L15 18h3V2h-3a1 1 0 0 1-.993-.883L14 1a1 1 0 0 1 .883-.993L15 0h4ZM5 0a1 1 0 0 1 .117 1.993L5 2H2v16h3a1 1 0 0 1 .993.883L6 19a1 1 0 0 1-.883.993L5 20H1a1 1 0 0 1-.993-.883L0 19V1A1 1 0 0 1 .883.007L1 0h4Zm2.012 6c.643 0 1.203.266 1.68.797.477.53.715 1.246.715 2.145a4.472 4.472 0 0 1-.965 2.814c-.644.83-1.66 1.5-3.047 2.011v-.581l.26-.104a3.87 3.87 0 0 0 1.624-1.285c.457-.632.686-1.29.686-1.971 0-.148-.023-.256-.07-.326-.023-.047-.054-.07-.093-.07-.038 0-.1.031-.186.093-.248.179-.558.268-.93.268-.45 0-.843-.18-1.18-.541A1.817 1.817 0 0 1 5 7.965c0-.527.194-.986.581-1.378A1.934 1.934 0 0 1 7.011 6Zm5.593 0c.643 0 1.203.266 1.68.797.477.53.715 1.246.715 2.145a4.472 4.472 0 0 1-.965 2.814c-.644.83-1.659 1.5-3.047 2.011v-.581l.26-.104a3.87 3.87 0 0 0 1.624-1.285c.457-.632.686-1.29.686-1.971 0-.148-.023-.256-.07-.326-.023-.047-.054-.07-.093-.07-.038 0-.1.031-.186.093-.248.179-.558.268-.93.268-.45 0-.843-.18-1.18-.541a1.817 1.817 0 0 1-.506-1.285c0-.527.194-.986.581-1.378A1.934 1.934 0 0 1 12.604 6Z"/></svg>