<?xml version="1.0" encoding="utf-8"?>
<!-- Generator: Adobe Illustrator 17.1.0, SVG Export Plug-In . SVG Version: 6.00 Build 0)  -->
<!DOCTYPE svg PUBLIC "-//W3C//DTD SVG 1.1//EN" "http://www.w3.org/Graphics/SVG/1.1/DTD/svg11.dtd">
<svg version="1.1" id="Layer_1" xmlns:sketch="http://www.bohemiancoding.com/sketch/ns"
	 xmlns="http://www.w3.org/2000/svg" xmlns:xlink="http://www.w3.org/1999/xlink" x="0px" y="0px" viewBox="0 0 20 20"
	 enable-background="new 0 0 20 20" xml:space="preserve">
<title>Shape</title>
<desc>Created with Sketch.</desc>
<g id="Page-1" sketch:type="MSPage">
	<g id="Artboard-1" transform="translate(-4.000000, 0.000000)" sketch:type="MSArtboardGroup">
		<path id="Shape" sketch:type="MSShapeGroup" d="M19,13c-0.3,0-0.5,0.1-0.7,0.3L15,16.6V3.4l3.3,3.3C18.5,6.9,18.7,7,19,7
			c0.6,0,1-0.4,1-1c0-0.3-0.1-0.5-0.3-0.7l-5-5C14.5,0.1,14.3,0,14,0s-0.5,0.1-0.7,0.3l-5,5C8.1,5.5,8,5.7,8,6c0,0.6,0.4,1,1,1
			c0.3,0,0.5-0.1,0.7-0.3L13,3.4v13.2l-3.3-3.3C9.5,13.1,9.3,13,9,13c-0.6,0-1,0.4-1,1c0,0.3,0.1,0.5,0.3,0.7l5,5
			c0.2,0.2,0.4,0.3,0.7,0.3s0.5-0.1,0.7-0.3l5-5c0.2-0.2,0.3-0.4,0.3-0.7C20,13.5,19.6,13,19,13L19,13z"/>
	</g>
</g>
</svg>
