<?xml version="1.0" encoding="utf-8"?>
<!-- Generator: Adobe Illustrator 18.1.0, SVG Export Plug-In . SVG Version: 6.00 Build 0)  -->
<svg version="1.1" id="Layer_1" xmlns="http://www.w3.org/2000/svg" xmlns:xlink="http://www.w3.org/1999/xlink" x="0px" y="0px"
	 viewBox="0 0 20 20" enable-background="new 0 0 20 20" xml:space="preserve">
<g id="bottom_right_arrow">
	<g>
		<path fill-rule="evenodd" clip-rule="evenodd" d="M17,6c-0.55,0-1,0.45-1,1v7.59L3.71,2.29C3.53,2.11,3.28,2,3,2
			C2.45,2,2,2.45,2,3c0,0.28,0.11,0.53,0.29,0.71L14.59,16H7c-0.55,0-1,0.45-1,1c0,0.55,0.45,1,1,1h10c0.55,0,1-0.45,1-1V7
			C18,6.45,17.55,6,17,6z"/>
	</g>
</g>
</svg>
