<?xml version="1.0" encoding="utf-8"?>
<!-- Generator: Adobe Illustrator 17.1.0, SVG Export Plug-In . SVG Version: 6.00 Build 0)  -->
<!DOCTYPE svg PUBLIC "-//W3C//DTD SVG 1.1//EN" "http://www.w3.org/Graphics/SVG/1.1/DTD/svg11.dtd">
<svg version="1.1" id="Layer_1" xmlns="http://www.w3.org/2000/svg" xmlns:xlink="http://www.w3.org/1999/xlink" x="0px" y="0px"
	 viewBox="0 0 20 20" enable-background="new 0 0 20 20" xml:space="preserve">
<g id="left_arrow_1_">
	<g>
		<path fill-rule="evenodd" clip-rule="evenodd" d="M18,9H4.41l4.29-4.29C8.89,4.53,9,4.28,9,4c0-0.55-0.45-1-1-1
			C7.72,3,7.47,3.11,7.29,3.29l-6,6C1.11,9.47,1,9.72,1,10c0,0.28,0.11,0.53,0.29,0.71l6,6C7.47,16.89,7.72,17,8,17
			c0.55,0,1-0.45,1-1c0-0.28-0.11-0.53-0.29-0.71L4.41,11H18c0.55,0,1-0.45,1-1C19,9.45,18.55,9,18,9z"/>
	</g>
</g>
</svg>
