<?xml version="1.0" encoding="utf-8"?>
<!-- Generator: Adobe Illustrator 17.1.0, SVG Export Plug-In . SVG Version: 6.00 Build 0)  -->
<!DOCTYPE svg PUBLIC "-//W3C//DTD SVG 1.1//EN" "http://www.w3.org/Graphics/SVG/1.1/DTD/svg11.dtd">
<svg version="1.1" id="Layer_1" xmlns:sketch="http://www.bohemiancoding.com/sketch/ns"
	 xmlns="http://www.w3.org/2000/svg" xmlns:xlink="http://www.w3.org/1999/xlink" x="0px" y="0px" viewBox="0 0 20 20"
	 enable-background="new 0 0 20 20" xml:space="preserve">
<title>Shape</title>
<desc>Created with Sketch.</desc>
<g id="Page-1" sketch:type="MSPage">
	<g id="Artboard-1" transform="translate(-3.000000, -1.000000)" sketch:type="MSArtboardGroup">
		<path id="Shape" sketch:type="MSShapeGroup" d="M19.7,8.3l-6-6C13.5,2.1,13.3,2,13,2s-0.5,0.1-0.7,0.3l-6,6C6.1,8.5,6,8.7,6,9
			c0,0.6,0.5,1,1,1c0.3,0,0.5-0.1,0.7-0.3L12,5.4V19c0,0.5,0.4,1,1,1s1-0.5,1-1V5.4l4.3,4.3C18.5,9.9,18.7,10,19,10c0.5,0,1-0.4,1-1
			C20,8.7,19.9,8.5,19.7,8.3L19.7,8.3z"/>
	</g>
</g>
</svg>
