<?xml version="1.0" encoding="utf-8"?>
<!-- Generator: Adobe Illustrator 17.1.0, SVG Export Plug-In . SVG Version: 6.00 Build 0)  -->
<!DOCTYPE svg PUBLIC "-//W3C//DTD SVG 1.1//EN" "http://www.w3.org/Graphics/SVG/1.1/DTD/svg11.dtd">
<svg version="1.1" id="Layer_1" xmlns:sketch="http://www.bohemiancoding.com/sketch/ns"
	 xmlns="http://www.w3.org/2000/svg" xmlns:xlink="http://www.w3.org/1999/xlink" x="0px" y="0px" viewBox="0 0 20 20"
	 enable-background="new 0 0 20 20" xml:space="preserve">
<title>Shape</title>
<desc>Created with Sketch.</desc>
<g id="Page-1" sketch:type="MSPage">
	<g id="Artboard-1" transform="translate(-3.000000, -1.000000)" sketch:type="MSArtboardGroup">
		<path id="Shape" sketch:type="MSShapeGroup" d="M19,12c-0.3,0-0.5,0.1-0.7,0.3L14,16.6V3c0-0.5-0.4-1-1-1s-1,0.5-1,1v13.6
			l-4.3-4.3C7.5,12.1,7.3,12,7,12c-0.5,0-1,0.4-1,1c0,0.3,0.1,0.5,0.3,0.7l6,6c0.2,0.2,0.4,0.3,0.7,0.3s0.5-0.1,0.7-0.3l6-6
			c0.2-0.2,0.3-0.4,0.3-0.7C20,12.4,19.5,12,19,12L19,12z"/>
	</g>
</g>
</svg>
