<?xml version="1.0" encoding="utf-8"?>
<!-- Generator: Adobe Illustrator 17.1.0, SVG Export Plug-In . SVG Version: 6.00 Build 0)  -->
<!DOCTYPE svg PUBLIC "-//W3C//DTD SVG 1.1//EN" "http://www.w3.org/Graphics/SVG/1.1/DTD/svg11.dtd">
<svg version="1.1" id="Layer_1" xmlns:sketch="http://www.bohemiancoding.com/sketch/ns"
	 xmlns="http://www.w3.org/2000/svg" xmlns:xlink="http://www.w3.org/1999/xlink" x="0px" y="0px" viewBox="0 0 20 20"
	 enable-background="new 0 0 20 20" xml:space="preserve">
<title>Shape</title>
<desc>Created with Sketch.</desc>
<g id="Page-1" sketch:type="MSPage">
	<g id="Artboard-1" transform="translate(0.000000, -4.000000)" sketch:type="MSArtboardGroup">
		<path id="Shape" sketch:type="MSShapeGroup" d="M19.7,13.3l-5-5C14.5,8.1,14.3,8,14,8c-0.6,0-1,0.4-1,1c0,0.3,0.1,0.5,0.3,0.7
			l3.3,3.3H3.4l3.3-3.3C6.9,9.5,7,9.3,7,9c0-0.6-0.4-1-1-1C5.7,8,5.5,8.1,5.3,8.3l-5,5C0.1,13.5,0,13.7,0,14s0.1,0.5,0.3,0.7l5,5
			C5.5,19.9,5.7,20,6,20c0.6,0,1-0.4,1-1c0-0.3-0.1-0.5-0.3-0.7L3.4,15h13.2l-3.3,3.3C13.1,18.5,13,18.7,13,19c0,0.6,0.4,1,1,1
			c0.3,0,0.5-0.1,0.7-0.3l5-5c0.2-0.2,0.3-0.4,0.3-0.7S19.9,13.5,19.7,13.3L19.7,13.3z"/>
	</g>
</g>
</svg>
