<?xml version="1.0" encoding="utf-8"?>
<!-- Generator: Adobe Illustrator 18.1.0, SVG Export Plug-In . SVG Version: 6.00 Build 0)  -->
<svg version="1.1" id="Layer_1" xmlns="http://www.w3.org/2000/svg" xmlns:xlink="http://www.w3.org/1999/xlink" x="0px" y="0px"
	 viewBox="0 0 20 20" enable-background="new 0 0 20 20" xml:space="preserve">
<g id="asterisk_2_">
	<g>
		<path fill-rule="evenodd" clip-rule="evenodd" d="M18.52,14.17l0.01-0.02L11.89,10l6.64-4.15l-0.01-0.02C18.8,5.66,19,5.36,19,5
			c0-0.55-0.45-1-1-1c-0.2,0-0.37,0.07-0.52,0.17l-0.01-0.02L11,8.2V1c0-0.55-0.45-1-1-1S9,0.45,9,1v7.2L2.53,4.15L2.52,4.17
			C2.37,4.07,2.2,4,2,4C1.45,4,1,4.45,1,5c0,0.36,0.2,0.66,0.48,0.83L1.47,5.85L8.11,10l-6.64,4.15l0.01,0.02
			C1.2,14.34,1,14.64,1,15c0,0.55,0.45,1,1,1c0.2,0,0.37-0.07,0.52-0.17l0.01,0.02L9,11.8V19c0,0.55,0.45,1,1,1s1-0.45,1-1v-7.2
			l6.47,4.04l0.01-0.02C17.63,15.93,17.8,16,18,16c0.55,0,1-0.45,1-1C19,14.64,18.8,14.34,18.52,14.17z"/>
	</g>
</g>
</svg>
