<?xml version="1.0" encoding="utf-8"?>
<!-- Generator: Adobe Illustrator 17.1.0, SVG Export Plug-In . SVG Version: 6.00 Build 0)  -->
<!DOCTYPE svg PUBLIC "-//W3C//DTD SVG 1.1//EN" "http://www.w3.org/Graphics/SVG/1.1/DTD/svg11.dtd">
<svg version="1.1" id="Layer_1" xmlns="http://www.w3.org/2000/svg" xmlns:xlink="http://www.w3.org/1999/xlink" x="0px" y="0px"
	 viewBox="0 0 20 20" enable-background="new 0 0 20 20" xml:space="preserve">
<g id="Shape_2_9_">
	<g>
		<path fill-rule="evenodd" clip-rule="evenodd" d="M10,18c-4.42,0-8-3.58-8-8c0-2.52,1.18-4.76,3-6.22V5c0,0.55,0.45,1,1,1
			s1-0.45,1-1V1c0-0.55-0.45-1-1-1H2C1.45,0,1,0.45,1,1s0.45,1,1,1h2.06C1.61,3.82,0,6.71,0,10c0,5.52,4.48,10,10,10
			c0.55,0,1-0.45,1-1S10.55,18,10,18z M10,2c1.64,0,3.15,0.49,4.42,1.34l1.43-1.43C14.21,0.71,12.19,0,10,0C9.45,0,9,0.45,9,1
			C9,1.55,9.45,2,10,2z M20,10c0-1.13-0.2-2.21-0.54-3.22L17.84,8.4C17.94,8.92,18,9.45,18,10c0,2.52-1.18,4.76-3,6.22V15
			c0-0.55-0.45-1-1-1s-1,0.45-1,1v4c0,0.55,0.45,1,1,1h4c0.55,0,1-0.45,1-1s-0.45-1-1-1h-2.06C18.39,16.18,20,13.29,20,10z M20,3
			c0-0.55-0.45-1-1-1c-0.28,0-0.53,0.11-0.71,0.29L12,8.59L9.71,6.29C9.53,6.11,9.28,6,9,6C8.45,6,8,6.45,8,7
			c0,0.28,0.11,0.53,0.29,0.71l3,3C11.47,10.89,11.72,11,12,11s0.53-0.11,0.71-0.29l7-7C19.89,3.53,20,3.28,20,3z"/>
	</g>
</g>
</svg>
