<svg xmlns="http://www.w3.org/2000/svg" xml:space="preserve" viewBox="0 0 20 20"><path fill-rule="evenodd" d="M10 18c-4.42 0-8-3.58-8-8 0-2.52 1.18-4.76 3-6.22V5c0 .55.45 1 1 1s1-.45 1-1V1c0-.55-.45-1-1-1H2c-.55 0-1 .45-1 1s.45 1 1 1h2.06C1.61 3.82 0 6.71 0 10c0 5.52 4.48 10 10 10 .55 0 1-.45 1-1s-.45-1-1-1zm0-16c1.64 0 3.15.49 4.42 1.34l1.43-1.43A9.869 9.869 0 0 0 10 0c-.55 0-1 .45-1 1s.45 1 1 1zm10 8c0-1.13-.2-2.21-.54-3.22L17.84 8.4A7.962 7.962 0 0 1 15 16.22V15c0-.55-.45-1-1-1s-1 .45-1 1v4c0 .55.45 1 1 1h4c.55 0 1-.45 1-1s-.45-1-1-1h-2.06c2.45-1.82 4.06-4.71 4.06-8zm0-7a1.003 1.003 0 0 0-1.71-.71L12 8.59l-2.29-2.3a1.003 1.003 0 0 0-1.42 1.42l3 3c.18.18.43.29.71.29s.53-.11.71-.29l7-7c.18-.18.29-.43.29-.71z" clip-rule="evenodd"/></svg>