<?xml version="1.0" encoding="utf-8"?>
<!-- Generator: Adobe Illustrator 18.0.0, SVG Export Plug-In . SVG Version: 6.00 Build 0)  -->
<svg version="1.1" id="Layer_1" xmlns="http://www.w3.org/2000/svg" xmlns:xlink="http://www.w3.org/1999/xlink" x="0px" y="0px"
	 viewBox="0 0 20 20" enable-background="new 0 0 20 20" xml:space="preserve">
<g id="bank_account_1_">
	<g id="pt-icon-bank-account">
		<path id="Shape_5_" d="M19.2,8.02l-0.78-0.18c-0.39-1.44-1.22-2.76-2.34-3.84l0.5-2.28c0.11-0.42-0.22-0.78-0.61-0.72
			c-1.06,0.12-2,0.54-2.67,1.26c-1.06-0.42-2.34-0.66-3.56-0.66c-3.12,0-5.79,1.5-7.4,3.72C2.11,5.27,1.89,5.21,1.67,5.21
			C0.72,5.21,0,5.98,0,7c0,0.72,0.39,1.32,0.95,1.62C0.89,9.04,0.83,9.52,0.83,10c0,2.16,0.89,4.08,2.28,5.58l-0.33,2.04
			C2.67,18.34,3.23,19,3.9,19h0.72c0.56,0,1-0.42,1.11-1.02l0.06-0.48c1.17,0.54,2.5,0.9,3.95,0.9c1.39,0,2.78-0.3,3.95-0.9
			l0.06,0.48c0.11,0.6,0.56,1.02,1.11,1.02h0.72c0.67,0,1.22-0.66,1.11-1.38l-0.33-1.98c0.78-0.78,1.34-1.74,1.73-2.76l1-0.24
			c0.5-0.12,0.89-0.6,0.89-1.2V9.22C20.09,8.62,19.7,8.14,19.2,8.02z M15,10c-0.6,0-1-0.7-1-1.5S14.4,7,15,7s1,0.7,1,1.5
			S15.6,10,15,10z M7.55,5.83C7.1,6.14,6.47,6.01,6.17,5.55C5.86,5.1,5.99,4.47,6.45,4.17c2.34-1.56,4.77-1.56,7.11,0
			c0.46,0.31,0.58,0.93,0.28,1.39c-0.31,0.46-0.93,0.58-1.39,0.28C10.78,4.72,9.22,4.72,7.55,5.83z"/>
	</g>
</g>
</svg>
