<svg xmlns="http://www.w3.org/2000/svg" xml:space="preserve" viewBox="0 0 20 20"><path d="m19.2 8.02-.78-.18C18.03 6.4 17.2 5.08 16.08 4l.5-2.28c.11-.42-.22-.78-.61-.72-1.06.12-2 .54-2.67 1.26-1.06-.42-2.34-.66-3.56-.66-3.12 0-5.79 1.5-7.4 3.72-.23-.05-.45-.11-.67-.11C.72 5.21 0 5.98 0 7c0 .72.39 1.32.95 1.62-.06.42-.12.9-.12 1.38 0 2.16.89 4.08 2.28 5.58l-.33 2.04c-.11.72.45 1.38 1.12 1.38h.72c.56 0 1-.42 1.11-1.02l.06-.48c1.17.54 2.5.9 3.95.9 1.39 0 2.78-.3 3.95-.9l.06.48c.11.6.56 1.02 1.11 1.02h.72c.67 0 1.22-.66 1.11-1.38l-.33-1.98c.78-.78 1.34-1.74 1.73-2.76l1-.24c.5-.12.89-.6.89-1.2V9.22c.11-.6-.28-1.08-.78-1.2zM15 10c-.6 0-1-.7-1-1.5S14.4 7 15 7s1 .7 1 1.5-.4 1.5-1 1.5zM7.55 5.83a.99.99 0 0 1-1.38-.28.99.99 0 0 1 .28-1.38c2.34-1.56 4.77-1.56 7.11 0 .46.31.58.93.28 1.39-.31.46-.93.58-1.39.28-1.67-1.12-3.23-1.12-4.9-.01z"/></svg>