<?xml version="1.0" encoding="utf-8"?>
<!-- Generator: Adobe Illustrator 18.0.0, SVG Export Plug-In . SVG Version: 6.00 Build 0)  -->
<svg version="1.1" id="Layer_1" xmlns="http://www.w3.org/2000/svg" xmlns:xlink="http://www.w3.org/1999/xlink" x="0px" y="0px"
	 viewBox="0 0 20 20" enable-background="new 0 0 20 20" xml:space="preserve">
<g id="blocked_person_2_">
	<g>
		<path fill-rule="evenodd" clip-rule="evenodd" d="M11.55,15.92c-1.48-0.65-1.28-1.05-1.33-1.59c-0.01-0.07-0.01-0.15-0.01-0.23
			c0.51-0.45,0.92-1.07,1.19-1.78c0,0,0.01-0.04,0.02-0.05c0.06-0.15,0.11-0.32,0.15-0.48c0.34-0.07,0.54-0.44,0.61-0.78
			c0.06-0.11,0.14-0.35,0.17-0.62C10.33,9.42,8.92,7.38,8.92,5c0-0.3,0.05-0.58,0.09-0.87C8.68,4.05,8.34,4,8.02,4
			C7.23,4,6.34,4.25,5.71,4.73C5.1,5.2,4.64,5.86,4.42,6.59c-0.05,0.16-0.09,0.33-0.11,0.5C4.19,7.69,4.14,8.6,4.14,9.23
			c0,0.03,0,0.05,0,0.08C3.9,9.4,3.69,9.63,3.65,10.14c-0.04,0.39,0.12,0.73,0.2,0.87c0.08,0.35,0.28,0.72,0.63,0.78
			c0.04,0.17,0.09,0.33,0.15,0.48c0,0.01,0.01,0.02,0.01,0.03l0.01,0.01c0.27,0.72,0.7,1.35,1.22,1.8c0,0.07-0.01,0.14-0.01,0.21
			c-0.05,0.54,0.1,0.94-1.38,1.59c-1.48,0.65-3.71,1.35-4.16,2.4C-0.15,19.38,0.04,20,0.04,20h15.95c0,0,0.18-0.62-0.27-1.67
			C15.26,17.27,13.03,16.58,11.55,15.92z M14.97,0c-2.78,0-5.03,2.24-5.03,5s2.25,5,5.03,5S20,7.76,20,5S17.75,0,14.97,0z M11.94,5
			c0-1.66,1.35-3,3.02-3c0.47,0,0.9,0.11,1.29,0.3l-4.01,3.99C12.06,5.89,11.94,5.46,11.94,5z M14.97,8c-0.47,0-0.9-0.11-1.29-0.3
			l4.01-3.99c0.19,0.39,0.3,0.82,0.3,1.29C17.99,6.66,16.63,8,14.97,8z"/>
	</g>
</g>
</svg>
