<svg xmlns="http://www.w3.org/2000/svg" xml:space="preserve" viewBox="0 0 20 20"><path fill-rule="evenodd" d="M11.55 15.92c-1.48-.65-1.28-1.05-1.33-1.59-.01-.07-.01-.15-.01-.23.51-.45.92-1.07 1.19-1.78 0 0 .01-.04.02-.05.06-.15.11-.32.15-.48.34-.07.54-.44.61-.78.06-.11.14-.35.17-.62C10.33 9.42 8.92 7.38 8.92 5c0-.3.05-.58.09-.87-.33-.08-.67-.13-.99-.13-.79 0-1.68.25-2.31.73-.61.47-1.07 1.13-1.29 1.86-.05.16-.09.33-.11.5-.12.6-.17 1.51-.17 2.14v.08c-.24.09-.45.32-.49.83-.04.39.12.73.2.87.08.35.28.72.63.78.04.17.09.33.15.48 0 .01.01.02.01.03l.01.01c.27.72.7 1.35 1.22 1.8 0 .07-.01.14-.01.21-.05.54.1.94-1.38 1.59C3 16.56.77 17.26.32 18.31-.15 19.38.04 20 .04 20h15.95s.18-.62-.27-1.67c-.46-1.06-2.69-1.75-4.17-2.41zM14.97 0c-2.78 0-5.03 2.24-5.03 5s2.25 5 5.03 5S20 7.76 20 5s-2.25-5-5.03-5zm-3.03 5c0-1.66 1.35-3 3.02-3 .47 0 .9.11 1.29.3l-4.01 3.99c-.18-.4-.3-.83-.3-1.29zm3.03 3c-.47 0-.9-.11-1.29-.3l4.01-3.99c.19.39.3.82.3 1.29 0 1.66-1.36 3-3.02 3z" clip-rule="evenodd"/></svg>