<?xml version="1.0" encoding="utf-8"?>
<!-- Generator: Adobe Illustrator 18.1.0, SVG Export Plug-In . SVG Version: 6.00 Build 0)  -->
<svg version="1.1" id="Layer_1" xmlns="http://www.w3.org/2000/svg" xmlns:xlink="http://www.w3.org/1999/xlink" x="0px" y="0px"
	 viewBox="0 0 20 20" enable-background="new 0 0 20 20" xml:space="preserve">
<g id="box_1_">
	<g>
		<path fill-rule="evenodd" clip-rule="evenodd" d="M19.89,6.56L19.89,6.56l-2.99-6l-0.01,0C16.72,0.23,16.39,0,16,0H4
			C3.61,0,3.28,0.23,3.11,0.56l-0.01,0l-3,6l0.01,0C0.05,6.69,0,6.84,0,7v12c0,0.55,0.45,1,1,1h18c0.55,0,1-0.45,1-1V7
			C20,6.84,19.95,6.69,19.89,6.56z M11,2h4.38l2,4H11V2z M4.62,2H9v4H2.62L4.62,2z M18,18H2V8h16V18z M8,12h4c0.55,0,1-0.45,1-1
			c0-0.55-0.45-1-1-1H8c-0.55,0-1,0.45-1,1C7,11.55,7.45,12,8,12z"/>
	</g>
</g>
</svg>
