<?xml version="1.0" encoding="utf-8"?>
<!-- Generator: Adobe Illustrator 17.1.0, SVG Export Plug-In . SVG Version: 6.00 Build 0)  -->
<!DOCTYPE svg PUBLIC "-//W3C//DTD SVG 1.1//EN" "http://www.w3.org/Graphics/SVG/1.1/DTD/svg11.dtd">
<svg version="1.1" id="Layer_1" xmlns="http://www.w3.org/2000/svg" xmlns:xlink="http://www.w3.org/1999/xlink" x="0px" y="0px"
	 viewBox="0 0 20 20" enable-background="new 0 0 20 20" xml:space="preserve">
<g id="briefcase_1_">
	<g>
		<path fill-rule="evenodd" clip-rule="evenodd" d="M19,5h-4V2c0-0.55-0.45-1-1-1H6C5.45,1,5,1.45,5,2v3H1C0.45,5,0,5.45,0,6v5h4v-1
			h2v1h8v-1h2v1h4V6C20,5.45,19.55,5,19,5z M13,5H7V3h6V5z M16,13h-2v-1H6v1H4v-1H0v6c0,0.55,0.45,1,1,1h18c0.55,0,1-0.45,1-1v-6h-4
			V13z"/>
	</g>
</g>
</svg>
