<?xml version="1.0" encoding="utf-8"?>
<!-- Generator: Adobe Illustrator 18.0.0, SVG Export Plug-In . SVG Version: 6.00 Build 0)  -->
<svg version="1.1" id="Layer_1" xmlns="http://www.w3.org/2000/svg" xmlns:xlink="http://www.w3.org/1999/xlink" x="0px" y="0px"
	 viewBox="0 0 20 20" enable-background="new 0 0 20 20" xml:space="preserve">
<g id="Rectangle_1_11_">
	<g>
		<path fill-rule="evenodd" clip-rule="evenodd" d="M19.43,16.67L9.31,7.81l1.47-1.56c0.41-0.44-0.15-0.8,0.15-1.6
			c1.08-2.76,4.19-2.99,4.19-2.99s0.45-0.47,0.87-0.92C11.98-1,9.26,0.7,8.04,1.8L3.83,6.25L2.97,7.17c-0.48,0.51-0.48,1.33,0,1.84
			L2.1,9.93c-0.48-0.51-1.26-0.51-1.74,0s-0.48,1.33,0,1.84l1.74,1.84c0.48,0.51,1.26,0.51,1.74,0c0.48-0.51,0.48-1.33,0-1.84
			l0.87-0.92c0.48,0.51,1.26,0.51,1.74,0l1.41-1.49l8.81,10.07c0.76,0.76,2,0.76,2.76,0C20.19,18.67,20.19,17.43,19.43,16.67z"/>
	</g>
</g>
</svg>
