<?xml version="1.0" encoding="utf-8"?>
<!-- Generator: Adobe Illustrator 18.0.0, SVG Export Plug-In . SVG Version: 6.00 Build 0)  -->
<svg version="1.1" id="Layer_1" xmlns="http://www.w3.org/2000/svg" xmlns:xlink="http://www.w3.org/1999/xlink" x="0px" y="0px"
	 viewBox="0 0 20 20" enable-background="new 0 0 20 20" xml:space="preserve">
<g id="calculator_1_">
	<g>
		<path fill-rule="evenodd" clip-rule="evenodd" d="M16,0H4C3.45,0,3,0.45,3,1v18c0,0.55,0.45,1,1,1h12c0.55,0,1-0.45,1-1V1
			C17,0.45,16.55,0,16,0z M7,18H5v-2h2V18z M7,14H5v-2h2V14z M7,10H5V8h2V10z M11,18H9v-2h2V18z M11,14H9v-2h2V14z M11,10H9V8h2V10z
			 M15,18h-2v-6h2V18z M15,10h-2V8h2V10z M15,6H5V2h10V6z"/>
	</g>
</g>
</svg>
