<?xml version="1.0" encoding="UTF-8"?>
<svg width="20px" height="20px" viewBox="0 0 20 20" version="1.1" xmlns="http://www.w3.org/2000/svg" xmlns:xlink="http://www.w3.org/1999/xlink">
    <!-- Generator: Sketch 49.1 (51147) - http://www.bohemiancoding.com/sketch -->
    <title>Artboard</title>
    <desc>Created with Sketch.</desc>
    <defs></defs>
    <g id="Artboard" stroke="none" stroke-width="1" fill="none" fill-rule="evenodd">
        <path d="M15,5 C15.6,5 16,4.6 16,4 L16,2 C16,1.5 15.6,1 15,1 C14.4,1 14,1.5 14,2 L14,4 C14,4.6 14.4,5 15,5 Z M5,5 C5.6,5 6,4.6 6,4 L6,2 C6,1.5 5.6,1 5,1 C4.4,1 4,1.5 4,2 L4,4 C4,4.6 4.4,5 5,5 Z M18,3 L17,3 L17,4 C17,5.1 16.1,6 15,6 C13.9,6 13,5.1 13,4 L13,3 L7,3 L7,4 C7,5.1 6.1,6 5,6 C3.9,6 3,5.1 3,4 L3,3 L2,3 C1.5,3 1,3.5 1,4 L1,18 C1,18.5 1.5,19 2,19 L18,19 C18.5,19 19,18.5 19,18 L19,4 C19,3.5 18.5,3 18,3 Z M7,17 L3,17 L3,13 L7,13 L7,17 Z M7,12 L3,12 L3,8 L7,8 L7,12 Z M12,17 L8,17 L8,13 L12,13 L12,17 Z M12,12 L8,12 L8,8 L12,8 L12,12 Z M17,17 L13,17 L13,13 L17,13 L17,17 Z M17,12 L13,12 L13,8 L17,8 L17,12 Z" id="Shape" fill="#000000" fill-rule="nonzero"></path>
    </g>
</svg>