<svg xmlns="http://www.w3.org/2000/svg" width="20" height="20"><path fill-rule="evenodd" d="M12.5 1.25h4a1 1 0 0 1 1 1V5h-5V1.25ZM2.75 5a.25.25 0 0 0-.25.25v6H.883a.5.5 0 0 0-.429.757l1.672 2.787c.17.284.384.533.63.741-.458.057-.959.09-1.506.09a.625.625 0 1 0 0 1.25c2.583 0 4.268-.68 5.202-1.146.687.466 1.88 1.146 3.548 1.146 1.65 0 2.837-.666 3.528-1.132l.005.003c.244.131.6.3 1.07.468.938.335 2.321.661 4.147.661a.625.625 0 1 0 0-1.25c-.319 0-.622-.01-.91-.03.398-.318.717-.738.914-1.23l.972-2.43a.5.5 0 0 0-.464-.685H5v-6A.25.25 0 0 0 4.75 5h-2Zm3.455 11.95a.625.625 0 0 1 .658.041c.569.407 1.597 1.134 3.137 1.134s2.568-.727 3.137-1.134a.625.625 0 0 1 .724-.001l.007.005.045.029c.044.027.114.069.21.12.194.104.493.247.9.392.812.29 2.053.589 3.727.589a.625.625 0 1 1 0 1.25c-1.826 0-3.21-.326-4.148-.661a7.894 7.894 0 0 1-1.069-.468l-.005-.003c-.691.466-1.878 1.132-3.528 1.132-1.667 0-2.861-.68-3.548-1.146-.934.467-2.619 1.146-5.202 1.146a.625.625 0 1 1 0-1.25c2.66 0 4.23-.787 4.955-1.176ZM17.5 6.25h-5V10h4a1 1 0 0 0 1-1V6.25Zm-11.25-4a1 1 0 0 1 1-1h4V5h-5V2.25Zm5 4h-5V9a1 1 0 0 0 1 1h4V6.25Z" clip-rule="evenodd"/></svg>