<svg xmlns="http://www.w3.org/2000/svg" xml:space="preserve" viewBox="0 0 20 20"><path d="M11.5 8.32c.31-.35.51-.81.51-1.32 0-1.1-.9-2-2-2s-2 .9-2 2c0 .51.2.97.51 1.32L5.06 18.69c-.17.52.11 1.09.63 1.26s1.09-.11 1.26-.63L8.39 15h3.23l1.44 4.32c.17.52.74.81 1.26.63s.81-.74.63-1.26L11.5 8.32zM10.95 13H9.06l.95-2.84.94 2.84zM5.31 10.73a.996.996 0 1 0 1.37-1.45c-1.4-1.33-1.28-3.35-.01-4.54.4-.38.43-1.01.05-1.41-.36-.41-1-.43-1.4-.06-2.09 1.95-2.28 5.3-.01 7.46z"/><path d="M4.6 12.2C3 11.1 2 9 2 7c0-2.1.9-3.9 2.6-5.2.5-.3.5-1 .2-1.4-.3-.5-1-.5-1.4-.2C1.2 1.9-.1 4.2 0 7c.1 2.7 1.4 5.3 3.4 6.8.2.1.4.2.6.2.3 0 .6-.1.8-.4.4-.5.3-1.1-.2-1.4zM13.27 10.69c.38.4 1.01.42 1.41.04 2.27-2.16 2.08-5.51-.01-7.46a.996.996 0 1 0-1.36 1.46c1.28 1.19 1.39 3.21-.01 4.54-.39.39-.41 1.02-.03 1.42z"/><path d="M16.6.2c-.4-.3-1.1-.3-1.4.2-.3.4-.3 1.1.2 1.4C17.1 3.1 18 4.9 18 7c0 2-1 4.1-2.6 5.2-.5.3-.6.9-.2 1.4.2.3.5.4.8.4.2 0 .4-.1.6-.2C18.7 12.3 20 9.7 20 7c.09-2.8-1.2-5.1-3.4-6.8z"/></svg>