<?xml version="1.0" encoding="utf-8"?>
<!-- Generator: Adobe Illustrator 18.0.0, SVG Export Plug-In . SVG Version: 6.00 Build 0)  -->
<svg version="1.1" id="Layer_1" xmlns="http://www.w3.org/2000/svg" xmlns:xlink="http://www.w3.org/1999/xlink" x="0px" y="0px"
	 viewBox="0 0 20 20" enable-background="new 0 0 20 20" xml:space="preserve">
<g id="cell_tower_1_">
	<path d="M11.5,8.32c0.31-0.35,0.51-0.81,0.51-1.32c0-1.1-0.9-2-2-2s-2,0.9-2,2c0,0.51,0.2,0.97,0.51,1.32L5.06,18.69
		c-0.17,0.52,0.11,1.09,0.63,1.26s1.09-0.11,1.26-0.63L8.39,15h3.23l1.44,4.32c0.17,0.52,0.74,0.81,1.26,0.63s0.81-0.74,0.63-1.26
		L11.5,8.32z M10.95,13H9.06l0.95-2.84L10.95,13z"/>
	<path d="M5.31,10.73c0.4,0.38,1.03,0.36,1.41-0.04c0.38-0.4,0.36-1.03-0.04-1.41c-1.4-1.33-1.28-3.35-0.01-4.54
		c0.4-0.38,0.43-1.01,0.05-1.41C6.36,2.92,5.72,2.9,5.32,3.27C3.23,5.22,3.04,8.57,5.31,10.73z"/>
	<path d="M4.6,12.2C3,11.1,2,9,2,7c0-2.1,0.9-3.9,2.6-5.2c0.5-0.3,0.5-1,0.2-1.4c-0.3-0.5-1-0.5-1.4-0.2c-2.2,1.7-3.5,4-3.4,6.8
		c0.1,2.7,1.4,5.3,3.4,6.8C3.6,13.9,3.8,14,4,14c0.3,0,0.6-0.1,0.8-0.4C5.2,13.1,5.1,12.5,4.6,12.2z"/>
	<path d="M13.27,10.69c0.38,0.4,1.01,0.42,1.41,0.04c2.27-2.16,2.08-5.51-0.01-7.46c-0.4-0.38-1.04-0.35-1.41,0.05
		c-0.38,0.4-0.35,1.04,0.05,1.41c1.28,1.19,1.39,3.21-0.01,4.54C12.91,9.66,12.89,10.29,13.27,10.69z"/>
	<path d="M16.6,0.2c-0.4-0.3-1.1-0.3-1.4,0.2c-0.3,0.4-0.3,1.1,0.2,1.4C17.1,3.1,18,4.9,18,7c0,2-1,4.1-2.6,5.2
		c-0.5,0.3-0.6,0.9-0.2,1.4c0.2,0.3,0.5,0.4,0.8,0.4c0.2,0,0.4-0.1,0.6-0.2c2.1-1.5,3.4-4.1,3.4-6.8C20.09,4.2,18.8,1.9,16.6,0.2z"
		/>
</g>
</svg>
