<svg xmlns="http://www.w3.org/2000/svg" xml:space="preserve" viewBox="0 0 20 20"><path fill-rule="evenodd" d="M18 16H2c-1.1 0-2 .9-2 2s.9 2 2 2h16c1.1 0 2-.9 2-2s-.9-2-2-2zM3 5c.28 0 .53-.11.71-.29L5 3.41V13c0 .55.45 1 1 1s1-.45 1-1V3.41L8.29 4.7c.18.19.43.3.71.3a1.003 1.003 0 0 0 .71-1.71l-3-3C6.53.11 6.28 0 6 0s-.53.11-.71.29l-3 3A1.003 1.003 0 0 0 3 5zm7.29 5.71 3 3c.18.18.43.29.71.29s.53-.11.71-.29l3-3a1.003 1.003 0 0 0-1.42-1.42L15 10.59V1c0-.55-.45-1-1-1s-1 .45-1 1v9.59L11.71 9.3A.965.965 0 0 0 11 9a1.003 1.003 0 0 0-.71 1.71z" clip-rule="evenodd"/></svg>