<?xml version="1.0" encoding="utf-8"?>
<!-- Generator: Adobe Illustrator 17.1.0, SVG Export Plug-In . SVG Version: 6.00 Build 0)  -->
<!DOCTYPE svg PUBLIC "-//W3C//DTD SVG 1.1//EN" "http://www.w3.org/Graphics/SVG/1.1/DTD/svg11.dtd">
<svg version="1.1" id="Layer_1" xmlns="http://www.w3.org/2000/svg" xmlns:xlink="http://www.w3.org/1999/xlink" x="0px" y="0px"
	 viewBox="0 0 20 20" enable-background="new 0 0 20 20" xml:space="preserve">
<g id="changes_2_">
	<g>
		<path fill-rule="evenodd" clip-rule="evenodd" d="M18,16H2c-1.1,0-2,0.9-2,2c0,1.1,0.9,2,2,2h16c1.1,0,2-0.9,2-2
			C20,16.9,19.1,16,18,16z M3,5c0.28,0,0.53-0.11,0.71-0.29L5,3.41V13c0,0.55,0.45,1,1,1s1-0.45,1-1V3.41l1.29,1.29
			C8.47,4.89,8.72,5,9,5c0.55,0,1-0.45,1-1c0-0.28-0.11-0.53-0.29-0.71l-3-3C6.53,0.11,6.28,0,6,0S5.47,0.11,5.29,0.29l-3,3
			C2.11,3.47,2,3.72,2,4C2,4.55,2.45,5,3,5z M10.29,10.71l3,3C13.47,13.89,13.72,14,14,14s0.53-0.11,0.71-0.29l3-3
			C17.89,10.53,18,10.28,18,10c0-0.55-0.45-1-1-1c-0.28,0-0.53,0.11-0.71,0.29L15,10.59V1c0-0.55-0.45-1-1-1s-1,0.45-1,1v9.59
			l-1.29-1.29C11.53,9.11,11.28,9,11,9c-0.55,0-1,0.45-1,1C10,10.28,10.11,10.53,10.29,10.71z"/>
	</g>
</g>
</svg>
