<?xml version="1.0" encoding="utf-8"?>
<!-- Generator: Adobe Illustrator 17.1.0, SVG Export Plug-In . SVG Version: 6.00 Build 0)  -->
<!DOCTYPE svg PUBLIC "-//W3C//DTD SVG 1.1//EN" "http://www.w3.org/Graphics/SVG/1.1/DTD/svg11.dtd">
<svg version="1.1" id="Layer_1" xmlns="http://www.w3.org/2000/svg" xmlns:xlink="http://www.w3.org/1999/xlink" x="0px" y="0px"
	 viewBox="0 0 20 20" enable-background="new 0 0 20 20" xml:space="preserve">
<g id="chart_1_">
	<g>
		<path fill-rule="evenodd" clip-rule="evenodd" d="M7,11v8c0,0.55,0.45,1,1,1h4c0.55,0,1-0.45,1-1v-8l-2,2L7,11z M0,19
			c0,0.55,0.45,1,1,1h4c0.55,0,1-0.45,1-1v-8l-6,3V19z M17,7l-3,3v9c0,0.55,0.45,1,1,1h4c0.55,0,1-0.45,1-1V8.74
			C19.74,8.89,19.42,9,19,9C17.08,9,17,7,17,7z M19,1h-4c-0.55,0-1,0.45-1,1c0,0.55,0.45,1,1,1h1.59L10.8,8.78L7.45,7.11l0,0.01
			C7.31,7.05,7.16,7,7,7S6.69,7.05,6.56,7.11l0-0.01l-6,3l0,0.01C0.23,10.28,0,10.61,0,11c0,0.55,0.45,1,1,1
			c0.16,0,0.31-0.05,0.44-0.11l0,0.01L7,9.12l3.55,1.78l0-0.01C10.69,10.95,10.84,11,11,11c0.28,0,0.53-0.11,0.71-0.29L18,4.41V6
			c0,0.55,0.45,1,1,1s1-0.45,1-1V2C20,1.45,19.55,1,19,1z"/>
	</g>
</g>
</svg>
