<svg xmlns="http://www.w3.org/2000/svg" xml:space="preserve" viewBox="0 0 20 20"><path fill-rule="evenodd" d="M7 11v8c0 .55.45 1 1 1h4c.55 0 1-.45 1-1v-8l-2 2-4-2zm-7 8c0 .55.45 1 1 1h4c.55 0 1-.45 1-1v-8l-6 3v5zM17 7l-3 3v9c0 .55.45 1 1 1h4c.55 0 1-.45 1-1V8.74c-.26.15-.58.26-1 .26-1.92 0-2-2-2-2zm2-6h-4c-.55 0-1 .45-1 1s.45 1 1 1h1.59L10.8 8.78 7.45 7.11v.01C7.31 7.05 7.16 7 7 7s-.31.05-.44.11V7.1l-6 3v.01c-.33.17-.56.5-.56.89 0 .55.45 1 1 1 .16 0 .31-.05.44-.11v.01L7 9.12l3.55 1.78v-.01c.14.06.29.11.45.11.28 0 .53-.11.71-.29L18 4.41V6c0 .55.45 1 1 1s1-.45 1-1V2c0-.55-.45-1-1-1z" clip-rule="evenodd"/></svg>