<?xml version="1.0" encoding="utf-8"?>
<!-- Generator: Adobe Illustrator 18.1.0, SVG Export Plug-In . SVG Version: 6.00 Build 0)  -->
<svg version="1.1" id="Layer_1" xmlns="http://www.w3.org/2000/svg" xmlns:xlink="http://www.w3.org/1999/xlink" x="0px" y="0px"
	 viewBox="0 0 20 20" enable-background="new 0 0 20 20" xml:space="preserve">
<g id="chevron_right_1_">
	<g>
		<path fill-rule="evenodd" clip-rule="evenodd" d="M13.71,9.29l-6-6C7.53,3.11,7.28,3,7,3C6.45,3,6,3.45,6,4
			c0,0.28,0.11,0.53,0.29,0.71L11.59,10l-5.29,5.29C6.11,15.47,6,15.72,6,16c0,0.55,0.45,1,1,1c0.28,0,0.53-0.11,0.71-0.29l6-6
			C13.89,10.53,14,10.28,14,10C14,9.72,13.89,9.47,13.71,9.29z"/>
	</g>
</g>
</svg>
