<?xml version="1.0" encoding="utf-8"?>
<!-- Generator: Adobe Illustrator 18.1.0, SVG Export Plug-In . SVG Version: 6.00 Build 0)  -->
<svg version="1.1" id="Layer_1" xmlns="http://www.w3.org/2000/svg" xmlns:xlink="http://www.w3.org/1999/xlink" x="0px" y="0px"
	 viewBox="0 0 20 20" enable-background="new 0 0 20 20" xml:space="preserve">
<g id="chevron_backward_1_">
	<g>
		<path fill-rule="evenodd" clip-rule="evenodd" d="M8.41,10l5.29-5.29C13.89,4.53,14,4.28,14,4c0-0.55-0.45-1-1-1
			c-0.28,0-0.53,0.11-0.71,0.29L7,8.59V4c0-0.55-0.45-1-1-1S5,3.45,5,4v12c0,0.55,0.45,1,1,1s1-0.45,1-1v-4.59l5.29,5.29
			C12.47,16.89,12.72,17,13,17c0.55,0,1-0.45,1-1c0-0.28-0.11-0.53-0.29-0.71L8.41,10z"/>
	</g>
</g>
</svg>
