<?xml version="1.0" encoding="utf-8"?>
<!-- Generator: Adobe Illustrator 18.1.0, SVG Export Plug-In . SVG Version: 6.00 Build 0)  -->
<svg version="1.1" id="Layer_1" xmlns="http://www.w3.org/2000/svg" xmlns:xlink="http://www.w3.org/1999/xlink" x="0px" y="0px"
	 viewBox="0 0 20 20" enable-background="new 0 0 20 20" xml:space="preserve">
<g id="Rounded_Rectangle_1">
	<g>
		<path fill-rule="evenodd" clip-rule="evenodd" d="M13,3c-0.55,0-1,0.45-1,1v4.59L6.71,3.29C6.53,3.11,6.28,3,6,3
			C5.45,3,5,3.45,5,4c0,0.28,0.11,0.53,0.29,0.71L10.59,10l-5.29,5.29C5.11,15.47,5,15.72,5,16c0,0.55,0.45,1,1,1
			c0.28,0,0.53-0.11,0.71-0.29L12,11.41V16c0,0.55,0.45,1,1,1s1-0.45,1-1V4C14,3.45,13.55,3,13,3z"/>
	</g>
</g>
</svg>
