<?xml version="1.0" encoding="utf-8"?>
<!-- Generator: Adobe Illustrator 18.1.0, SVG Export Plug-In . SVG Version: 6.00 Build 0)  -->
<svg version="1.1" id="Layer_1" xmlns="http://www.w3.org/2000/svg" xmlns:xlink="http://www.w3.org/1999/xlink" x="0px" y="0px"
	 viewBox="0 0 20 20" enable-background="new 0 0 20 20" xml:space="preserve">
<g id="circle_arrow_left">
	<g>
		<path fill-rule="evenodd" clip-rule="evenodd" d="M15,9H7.41l2.29-2.29C9.89,6.53,10,6.28,10,6c0-0.55-0.45-1-1-1
			C8.72,5,8.47,5.11,8.29,5.29l-4,4C4.11,9.47,4,9.72,4,10c0,0.28,0.11,0.53,0.29,0.71l4,4C8.47,14.89,8.72,15,9,15
			c0.55,0,1-0.45,1-1c0-0.28-0.11-0.53-0.29-0.71L7.41,11H15c0.55,0,1-0.45,1-1C16,9.45,15.55,9,15,9z M10,0C4.48,0,0,4.48,0,10
			c0,5.52,4.48,10,10,10s10-4.48,10-10C20,4.48,15.52,0,10,0z M10,18c-4.42,0-8-3.58-8-8s3.58-8,8-8s8,3.58,8,8S14.42,18,10,18z"/>
	</g>
</g>
</svg>
