<?xml version="1.0" encoding="utf-8"?>
<!-- Generator: Adobe Illustrator 18.1.0, SVG Export Plug-In . SVG Version: 6.00 Build 0)  -->
<svg version="1.1" id="Layer_1" xmlns="http://www.w3.org/2000/svg" xmlns:xlink="http://www.w3.org/1999/xlink" x="0px" y="0px"
	 viewBox="0 0 20 20" enable-background="new 0 0 20 20" xml:space="preserve">
<g id="circle_arrow_up">
	<g>
		<path fill-rule="evenodd" clip-rule="evenodd" d="M10,0C4.48,0,0,4.48,0,10c0,5.52,4.48,10,10,10s10-4.48,10-10
			C20,4.48,15.52,0,10,0z M10,18c-4.42,0-8-3.58-8-8s3.58-8,8-8s8,3.58,8,8S14.42,18,10,18z M10.71,4.29C10.53,4.11,10.28,4,10,4
			S9.47,4.11,9.29,4.29l-4,4C5.11,8.47,5,8.72,5,9c0,0.55,0.45,1,1,1c0.28,0,0.53-0.11,0.71-0.29L9,7.41V15c0,0.55,0.45,1,1,1
			s1-0.45,1-1V7.41l2.29,2.29C13.47,9.89,13.72,10,14,10c0.55,0,1-0.45,1-1c0-0.28-0.11-0.53-0.29-0.71L10.71,4.29z"/>
	</g>
</g>
</svg>
