<?xml version="1.0" encoding="utf-8"?>
<!-- Generator: Adobe Illustrator 18.1.0, SVG Export Plug-In . SVG Version: 6.00 Build 0)  -->
<svg version="1.1" id="Layer_1" xmlns="http://www.w3.org/2000/svg" xmlns:xlink="http://www.w3.org/1999/xlink" x="0px" y="0px"
	 viewBox="0 0 20 20" enable-background="new 0 0 20 20" xml:space="preserve">
<g id="circle_arrow_right">
	<g>
		<path fill-rule="evenodd" clip-rule="evenodd" d="M15.71,9.29l-4-4C11.53,5.11,11.28,5,11,5c-0.55,0-1,0.45-1,1
			c0,0.28,0.11,0.53,0.29,0.71L12.59,9H5c-0.55,0-1,0.45-1,1c0,0.55,0.45,1,1,1h7.59l-2.29,2.29C10.11,13.47,10,13.72,10,14
			c0,0.55,0.45,1,1,1c0.28,0,0.53-0.11,0.71-0.29l4-4C15.89,10.53,16,10.28,16,10C16,9.72,15.89,9.47,15.71,9.29z M10,0
			C4.48,0,0,4.48,0,10c0,5.52,4.48,10,10,10s10-4.48,10-10C20,4.48,15.52,0,10,0z M10,18c-4.42,0-8-3.58-8-8s3.58-8,8-8s8,3.58,8,8
			S14.42,18,10,18z"/>
	</g>
</g>
</svg>
