<?xml version="1.0" encoding="utf-8"?>
<!-- Generator: Adobe Illustrator 18.1.0, SVG Export Plug-In . SVG Version: 6.00 Build 0)  -->
<svg version="1.1" id="Layer_1" xmlns="http://www.w3.org/2000/svg" xmlns:xlink="http://www.w3.org/1999/xlink" x="0px" y="0px"
	 viewBox="0 0 20 20" enable-background="new 0 0 20 20" xml:space="preserve">
<g id="circle_arrow_down">
	<g>
		<path fill-rule="evenodd" clip-rule="evenodd" d="M14,10c-0.28,0-0.53,0.11-0.71,0.29L11,12.59V5c0-0.55-0.45-1-1-1S9,4.45,9,5
			v7.59l-2.29-2.29C6.53,10.11,6.28,10,6,10c-0.55,0-1,0.45-1,1c0,0.28,0.11,0.53,0.29,0.71l4,4C9.47,15.89,9.72,16,10,16
			s0.53-0.11,0.71-0.29l4-4C14.89,11.53,15,11.28,15,11C15,10.45,14.55,10,14,10z M10,0C4.48,0,0,4.48,0,10c0,5.52,4.48,10,10,10
			s10-4.48,10-10C20,4.48,15.52,0,10,0z M10,18c-4.42,0-8-3.58-8-8s3.58-8,8-8s8,3.58,8,8S14.42,18,10,18z"/>
	</g>
</g>
</svg>
