<?xml version="1.0" encoding="utf-8"?>
<!-- Generator: Adobe Illustrator 17.1.0, SVG Export Plug-In . SVG Version: 6.00 Build 0)  -->
<!DOCTYPE svg PUBLIC "-//W3C//DTD SVG 1.1//EN" "http://www.w3.org/Graphics/SVG/1.1/DTD/svg11.dtd">
<svg version="1.1" id="Layer_1" xmlns="http://www.w3.org/2000/svg" xmlns:xlink="http://www.w3.org/1999/xlink" x="0px" y="0px"
	 viewBox="0 0 20 20" enable-background="new 0 0 20 20" xml:space="preserve">
<g>
	<path d="M13,2c0-0.55-0.45-1-1-1h-0.78c-0.35-0.6-0.98-1-1.72-1S8.12,0.4,7.78,1H7C6.45,1,6,1.45,6,2v2h7V2z"/>
	<path d="M16,2h-2v2v1h-1H6H5V4V2H3C2.45,2,2,2.45,2,3v16c0,0.55,0.45,1,1,1h13c0.55,0,1-0.45,1-1V3C17,2.45,16.55,2,16,2z"/>
</g>
</svg>
