<?xml version="1.0" encoding="utf-8"?>
<!-- Generator: Adobe Illustrator 18.1.0, SVG Export Plug-In . SVG Version: 6.00 Build 0)  -->
<svg version="1.1" id="Layer_1" xmlns="http://www.w3.org/2000/svg" xmlns:xlink="http://www.w3.org/1999/xlink" x="0px" y="0px"
	 viewBox="0 0 20 20" enable-background="new 0 0 20 20" xml:space="preserve">
<g id="cloud_download_3_">
	<g>
		<path fill-rule="evenodd" clip-rule="evenodd" d="M15,4c-0.12,0-0.24,0.03-0.36,0.04C13.83,1.69,11.62,0,9,0C5.69,0,3,2.69,3,6
			c0,0.05,0.01,0.09,0.01,0.14C1.28,6.58,0,8.13,0,10c0,2.21,1.79,4,4,4h0.78c0.55-0.61,1.34-1,2.22-1v-2c0-1.66,1.34-3,3-3
			s3,1.34,3,3v2c0.88,0,1.66,0.38,2.2,0.98C17.87,13.87,20,11.69,20,9C20,6.24,17.76,4,15,4z M13,15c-0.28,0-0.53,0.11-0.71,0.29
			L11,16.59V11c0-0.55-0.45-1-1-1s-1,0.45-1,1v5.59l-1.29-1.29C7.53,15.11,7.28,15,7,15c-0.55,0-1,0.45-1,1
			c0,0.28,0.11,0.53,0.29,0.71l3,3C9.47,19.89,9.72,20,10,20s0.53-0.11,0.71-0.29l3-3C13.89,16.53,14,16.28,14,16
			C14,15.45,13.55,15,13,15z"/>
	</g>
</g>
</svg>
