<?xml version="1.0" encoding="utf-8"?>
<!-- Generator: Adobe Illustrator 18.1.0, SVG Export Plug-In . SVG Version: 6.00 Build 0)  -->
<svg version="1.1" id="Layer_1" xmlns="http://www.w3.org/2000/svg" xmlns:xlink="http://www.w3.org/1999/xlink" x="0px" y="0px"
	 viewBox="0 0 20 20" enable-background="new 0 0 20 20" xml:space="preserve">
<g id="cloud_upload_1_">
	<g>
		<path fill-rule="evenodd" clip-rule="evenodd" d="M10.71,10.29C10.53,10.11,10.28,10,10,10s-0.53,0.11-0.71,0.29l-3,3
			C6.11,13.47,6,13.72,6,14c0,0.55,0.45,1,1,1c0.28,0,0.53-0.11,0.71-0.29L9,13.41V19c0,0.55,0.45,1,1,1s1-0.45,1-1v-5.59l1.29,1.29
			C12.47,14.89,12.72,15,13,15c0.55,0,1-0.45,1-1c0-0.28-0.11-0.53-0.29-0.71L10.71,10.29z M15,4c-0.12,0-0.24,0.03-0.36,0.04
			C13.83,1.69,11.62,0,9,0C5.69,0,3,2.69,3,6c0,0.05,0.01,0.09,0.01,0.14C1.28,6.58,0,8.13,0,10c0,2.21,1.79,4,4,4
			c0-0.83,0.34-1.58,0.88-2.12l3-3C8.42,8.34,9.17,8,10,8s1.58,0.34,2.12,0.88l3,3l-0.01,0.01c0.52,0.52,0.85,1.23,0.87,2.02
			C18.28,13.44,20,11.42,20,9C20,6.24,17.76,4,15,4z"/>
	</g>
</g>
</svg>
