<svg xmlns="http://www.w3.org/2000/svg" xml:space="preserve" viewBox="0 0 20 20"><path fill-rule="evenodd" d="M15 4c-.12 0-.24.03-.36.04C13.83 1.69 11.62 0 9 0 5.69 0 3 2.69 3 6c0 .05.01.09.01.14A3.98 3.98 0 0 0 0 10c0 2.21 1.79 4 4 4h.78c.55-.61 1.34-1 2.22-1v-2c0-1.66 1.34-3 3-3s3 1.34 3 3v2c.88 0 1.66.38 2.2.98C17.87 13.87 20 11.69 20 9c0-2.76-2.24-5-5-5zm-2 11c-.28 0-.53.11-.71.29L11 16.59V11c0-.55-.45-1-1-1s-1 .45-1 1v5.59L7.71 15.3A.965.965 0 0 0 7 15a1.003 1.003 0 0 0-.71 1.71l3 3c.18.18.43.29.71.29s.53-.11.71-.29l3-3A1.003 1.003 0 0 0 13 15z" clip-rule="evenodd"/></svg>