<svg xmlns="http://www.w3.org/2000/svg" xml:space="preserve" viewBox="0 0 20 20"><path fill-rule="evenodd" d="M10.71 10.29c-.18-.18-.43-.29-.71-.29s-.53.11-.71.29l-3 3a1.003 1.003 0 0 0 1.42 1.42L9 13.41V19c0 .55.45 1 1 1s1-.45 1-1v-5.59l1.29 1.29c.18.19.43.3.71.3a1.003 1.003 0 0 0 .71-1.71l-3-3zM15 4c-.12 0-.24.03-.36.04C13.83 1.69 11.62 0 9 0 5.69 0 3 2.69 3 6c0 .05.01.09.01.14A3.98 3.98 0 0 0 0 10c0 2.21 1.79 4 4 4 0-.83.34-1.58.88-2.12l3-3a2.993 2.993 0 0 1 4.24 0l3 3-.01.01c.52.52.85 1.23.87 2.02C18.28 13.44 20 11.42 20 9c0-2.76-2.24-5-5-5z" clip-rule="evenodd"/></svg>