<?xml version="1.0" encoding="utf-8"?>
<!-- Generator: Adobe Illustrator 18.1.0, SVG Export Plug-In . SVG Version: 6.00 Build 0)  -->
<svg version="1.1" id="Rounded_Rectangle_3_1_" xmlns="http://www.w3.org/2000/svg" xmlns:xlink="http://www.w3.org/1999/xlink"
	 x="0px" y="0px" viewBox="0 0 20 20" enable-background="new 0 0 20 20" xml:space="preserve">
<g id="Rounded_Rectangle_3">
	<g>
		<path fill-rule="evenodd" clip-rule="evenodd" d="M19,5h-2V3c0-0.55-0.45-1-1-1h-4c-0.55,0-1,0.45-1,1v2H9V3c0-0.55-0.45-1-1-1H4
			C3.45,2,3,2.45,3,3v2H1C0.45,5,0,5.45,0,6v12c0,0.55,0.45,1,1,1h18c0.55,0,1-0.45,1-1V6C20,5.45,19.55,5,19,5z M8.71,15.29
			C8.89,15.47,9,15.72,9,16c0,0.55-0.45,1-1,1c-0.28,0-0.53-0.11-0.71-0.29l-4-4C3.11,12.53,3,12.28,3,12s0.11-0.53,0.29-0.71l4-4
			C7.47,7.11,7.72,7,8,7c0.55,0,1,0.45,1,1c0,0.28-0.11,0.53-0.29,0.71L5.41,12L8.71,15.29z M16.71,12.71l-4,4
			C12.53,16.89,12.28,17,12,17c-0.55,0-1-0.45-1-1c0-0.28,0.11-0.53,0.29-0.71L14.59,12l-3.29-3.29C11.11,8.53,11,8.28,11,8
			c0-0.55,0.45-1,1-1c0.28,0,0.53,0.11,0.71,0.29l4,4C16.89,11.47,17,11.72,17,12S16.89,12.53,16.71,12.71z"/>
	</g>
</g>
</svg>
