<?xml version="1.0" encoding="utf-8"?>
<!-- Generator: Adobe Illustrator 18.0.0, SVG Export Plug-In . SVG Version: 6.00 Build 0)  -->
<svg version="1.1" id="Layer_1" xmlns="http://www.w3.org/2000/svg" xmlns:xlink="http://www.w3.org/1999/xlink" x="0px" y="0px"
	 viewBox="0 0 20 20" enable-background="new 0 0 20 20" xml:space="preserve">
<g id="collapse_all_2_">
	<g>
		<path fill-rule="evenodd" clip-rule="evenodd" d="M9.29,8.71C9.47,8.89,9.72,9,10,9s0.53-0.11,0.71-0.29l6-6
			C16.89,2.53,17,2.28,17,2c0-0.55-0.45-1-1-1c-0.28,0-0.53,0.11-0.71,0.29L10,6.59L4.71,1.29C4.53,1.11,4.28,1,4,1
			C3.45,1,3,1.45,3,2c0,0.28,0.11,0.53,0.29,0.71L9.29,8.71z M10.71,11.29C10.53,11.11,10.28,11,10,11s-0.53,0.11-0.71,0.29l-6,6
			C3.11,17.47,3,17.72,3,18c0,0.55,0.45,1,1,1c0.28,0,0.53-0.11,0.71-0.29L10,13.41l5.29,5.29C15.47,18.89,15.72,19,16,19
			c0.55,0,1-0.45,1-1c0-0.28-0.11-0.53-0.29-0.71L10.71,11.29z"/>
	</g>
</g>
</svg>
