<?xml version="1.0" encoding="utf-8"?>
<!-- Generator: Adobe Illustrator 17.1.0, SVG Export Plug-In . SVG Version: 6.00 Build 0)  -->
<!DOCTYPE svg PUBLIC "-//W3C//DTD SVG 1.1//EN" "http://www.w3.org/Graphics/SVG/1.1/DTD/svg11.dtd">
<svg version="1.1" id="Layer_1" xmlns="http://www.w3.org/2000/svg" xmlns:xlink="http://www.w3.org/1999/xlink" x="0px" y="0px"
	 viewBox="0 0 20 20" enable-background="new 0 0 20 20" xml:space="preserve">
<g id="comparison_2_">
	<g>
		<path fill-rule="evenodd" clip-rule="evenodd" d="M6,8H1C0.45,8,0,8.45,0,9v2c0,0.55,0.45,1,1,1h5c0.55,0,1-0.45,1-1V9
			C7,8.45,6.55,8,6,8z M19,2h-5c-0.55,0-1,0.45-1,1v2c0,0.55,0.45,1,1,1h5c0.55,0,1-0.45,1-1V3C20,2.45,19.55,2,19,2z M19,5h-5V3h5
			V5z M6,14H1c-0.55,0-1,0.45-1,1v2c0,0.55,0.45,1,1,1h5c0.55,0,1-0.45,1-1v-2C7,14.45,6.55,14,6,14z M6,2H1C0.45,2,0,2.45,0,3v2
			c0,0.55,0.45,1,1,1h5c0.55,0,1-0.45,1-1V3C7,2.45,6.55,2,6,2z M10,0C9.45,0,9,0.45,9,1v18c0,0.55,0.45,1,1,1s1-0.45,1-1V1
			C11,0.45,10.55,0,10,0z M19,14h-5c-0.55,0-1,0.45-1,1v2c0,0.55,0.45,1,1,1h5c0.55,0,1-0.45,1-1v-2C20,14.45,19.55,14,19,14z
			 M19,17h-5v-2h5V17z M19,8h-5c-0.55,0-1,0.45-1,1v2c0,0.55,0.45,1,1,1h5c0.55,0,1-0.45,1-1V9C20,8.45,19.55,8,19,8z M19,11h-5V9h5
			V11z"/>
	</g>
</g>
</svg>
