<svg xmlns="http://www.w3.org/2000/svg" xml:space="preserve" viewBox="0 0 20 20"><path fill-rule="evenodd" d="M6 8H1c-.55 0-1 .45-1 1v2c0 .55.45 1 1 1h5c.55 0 1-.45 1-1V9c0-.55-.45-1-1-1zm13-6h-5c-.55 0-1 .45-1 1v2c0 .55.45 1 1 1h5c.55 0 1-.45 1-1V3c0-.55-.45-1-1-1zm0 3h-5V3h5v2zM6 14H1c-.55 0-1 .45-1 1v2c0 .55.45 1 1 1h5c.55 0 1-.45 1-1v-2c0-.55-.45-1-1-1zM6 2H1c-.55 0-1 .45-1 1v2c0 .55.45 1 1 1h5c.55 0 1-.45 1-1V3c0-.55-.45-1-1-1zm4-2c-.55 0-1 .45-1 1v18c0 .55.45 1 1 1s1-.45 1-1V1c0-.55-.45-1-1-1zm9 14h-5c-.55 0-1 .45-1 1v2c0 .55.45 1 1 1h5c.55 0 1-.45 1-1v-2c0-.55-.45-1-1-1zm0 3h-5v-2h5v2zm0-9h-5c-.55 0-1 .45-1 1v2c0 .55.45 1 1 1h5c.55 0 1-.45 1-1V9c0-.55-.45-1-1-1zm0 3h-5V9h5v2z" clip-rule="evenodd"/></svg>