<?xml version="1.0" encoding="utf-8"?>
<!-- Generator: Adobe Illustrator 18.1.0, SVG Export Plug-In . SVG Version: 6.00 Build 0)  -->
<svg version="1.1" id="Layer_1" xmlns="http://www.w3.org/2000/svg" xmlns:xlink="http://www.w3.org/1999/xlink" x="0px" y="0px"
	 viewBox="0 0 20 20" enable-background="new 0 0 20 20" xml:space="preserve">
<g id="compressed_1_">
	<g>
		<path fill-rule="evenodd" clip-rule="evenodd" d="M19.89,6.56L19.89,6.56l-2.99-6l-0.01,0C16.72,0.23,16.39,0,16,0H4
			C3.61,0,3.28,0.23,3.11,0.56l-0.01,0l-3,6l0.01,0C0.05,6.69,0,6.84,0,7v12c0,0.55,0.45,1,1,1h18c0.55,0,1-0.45,1-1V7
			C20,6.84,19.95,6.69,19.89,6.56z M11,2h4.38l2,4H11V2z M4.62,2H9v4H2.62L4.62,2z M18,18H2V8h7v4.59l-2.29-2.29
			C6.53,10.11,6.28,10,6,10c-0.55,0-1,0.45-1,1c0,0.28,0.11,0.53,0.29,0.71l4,4C9.47,15.89,9.72,16,10,16s0.53-0.11,0.71-0.29l4-4
			C14.89,11.53,15,11.28,15,11c0-0.55-0.45-1-1-1c-0.28,0-0.53,0.11-0.71,0.29L11,12.59V8h7V18z"/>
	</g>
</g>
</svg>
