<?xml version="1.0" encoding="utf-8"?>
<!-- Generator: Adobe Illustrator 17.1.0, SVG Export Plug-In . SVG Version: 6.00 Build 0)  -->
<!DOCTYPE svg PUBLIC "-//W3C//DTD SVG 1.1//EN" "http://www.w3.org/Graphics/SVG/1.1/DTD/svg11.dtd">
<svg version="1.1" id="Layer_1" xmlns="http://www.w3.org/2000/svg" xmlns:xlink="http://www.w3.org/1999/xlink" x="0px" y="0px"
	 viewBox="0 0 20 20" enable-background="new 0 0 20 20" xml:space="preserve">
<g id="confirm_2_">
	<g>
		<path fill-rule="evenodd" clip-rule="evenodd" d="M9.71,5.29C9.53,5.11,9.28,5,9,5C8.45,5,8,5.45,8,6c0,0.28,0.11,0.53,0.29,0.71
			l3,3C11.47,9.89,11.72,10,12,10s0.53-0.11,0.71-0.29l7-7C19.89,2.53,20,2.28,20,2c0-0.55-0.45-1-1-1c-0.28,0-0.53,0.11-0.71,0.29
			L12,7.59L9.71,5.29z M17.64,7.61C17.87,8.36,18,9.17,18,10c0,4.42-3.58,8-8,8s-8-3.58-8-8s3.58-8,8-8c1.38,0,2.67,0.35,3.8,0.96
			l1.46-1.46C13.73,0.56,11.93,0,10,0C4.48,0,0,4.48,0,10c0,5.52,4.48,10,10,10s10-4.48,10-10c0-1.4-0.29-2.73-0.81-3.95L17.64,7.61
			z"/>
	</g>
</g>
</svg>
