<?xml version="1.0" encoding="utf-8"?>
<!-- Generator: Adobe Illustrator 18.0.0, SVG Export Plug-In . SVG Version: 6.00 Build 0)  -->
<svg version="1.1" id="Layer_1" xmlns="http://www.w3.org/2000/svg" xmlns:xlink="http://www.w3.org/1999/xlink" x="0px" y="0px"
	 viewBox="0 0 20 20" enable-background="new 0 0 20 20" xml:space="preserve">
<path id="console_2_" fill-rule="evenodd" clip-rule="evenodd" d="M19,19H1c-0.55,0-1-0.45-1-1V2c0-0.55,0.45-1,1-1h18
	c0.55,0,1,0.45,1,1v16C20,18.55,19.55,19,19,19z M18,6H2v11h16V6z M4,8c0.28,0,0.53,0.11,0.71,0.29l0,0l2,2l0,0
	C6.89,10.47,7,10.72,7,11s-0.11,0.53-0.29,0.71l0,0l-2,2l0,0C4.53,13.89,4.28,14,4,14c-0.55,0-1-0.45-1-1
	c0-0.28,0.11-0.53,0.29-0.71l0,0L4.59,11L3.29,9.71l0,0C3.11,9.53,3,9.28,3,9C3,8.45,3.45,8,4,8z M9,12h3c0.55,0,1,0.45,1,1
	c0,0.55-0.45,1-1,1H9c-0.55,0-1-0.45-1-1C8,12.45,8.45,12,9,12z"/>
</svg>
