<?xml version="1.0" encoding="utf-8"?>
<!-- Generator: Adobe Illustrator 18.1.0, SVG Export Plug-In . SVG Version: 6.00 Build 0)  -->
<svg version="1.1" id="Layer_1" xmlns="http://www.w3.org/2000/svg" xmlns:xlink="http://www.w3.org/1999/xlink" x="0px" y="0px"
	 viewBox="0 0 20 20" enable-background="new 0 0 20 20" xml:space="preserve">
<g id="contrast">
	<g>
		<path fill-rule="evenodd" clip-rule="evenodd" d="M19,8h-1.26c-0.19-0.73-0.48-1.42-0.85-2.06L17.83,5c0.39-0.39,0.39-1.02,0-1.41
			l-1.41-1.41c-0.39-0.39-1.02-0.39-1.41,0l-0.94,0.94C13.42,2.74,12.73,2.45,12,2.26V1c0-0.55-0.45-1-1-1H9C8.45,0,8,0.45,8,1v1.26
			c-0.76,0.2-1.47,0.5-2.13,0.89L5,2.28c-0.37-0.37-0.98-0.37-1.36,0L2.28,3.64C1.91,4.02,1.91,4.62,2.28,5l0.87,0.87
			C2.76,6.53,2.46,7.24,2.26,8H1C0.45,8,0,8.45,0,9v2c0,0.55,0.45,1,1,1h1.26c0.19,0.73,0.48,1.42,0.85,2.06L2.17,15
			c-0.39,0.39-0.39,1.02,0,1.41l1.41,1.41c0.39,0.39,1.02,0.39,1.41,0l0.94-0.94c0.64,0.38,1.33,0.66,2.06,0.85V19
			c0,0.55,0.45,1,1,1h2c0.55,0,1-0.45,1-1v-1.26c0.76-0.2,1.47-0.5,2.13-0.89L15,17.72c0.37,0.37,0.98,0.37,1.36,0l1.36-1.36
			c0.37-0.38,0.37-0.98,0-1.36l-0.87-0.87c0.4-0.65,0.7-1.37,0.89-2.13H19c0.55,0,1-0.45,1-1V9C20,8.45,19.55,8,19,8z M10,15
			c-2.76,0-5-2.24-5-5s2.24-5,5-5V15z"/>
	</g>
</g>
</svg>
