<svg xmlns="http://www.w3.org/2000/svg" xml:space="preserve" viewBox="0 0 20 20"><path fill-rule="evenodd" d="M19 8h-1.26c-.19-.73-.48-1.42-.85-2.06l.94-.94a.996.996 0 0 0 0-1.41l-1.41-1.41a.996.996 0 0 0-1.41 0l-.94.94c-.65-.38-1.34-.67-2.07-.86V1c0-.55-.45-1-1-1H9c-.55 0-1 .45-1 1v1.26c-.76.2-1.47.5-2.13.89L5 2.28a.972.972 0 0 0-1.36 0L2.28 3.64c-.37.38-.37.98 0 1.36l.87.87c-.39.66-.69 1.37-.89 2.13H1c-.55 0-1 .45-1 1v2c0 .55.45 1 1 1h1.26c.19.73.48 1.42.85 2.06l-.94.94a.996.996 0 0 0 0 1.41l1.41 1.41c.39.39 1.02.39 1.41 0l.94-.94c.64.38 1.33.66 2.06.85V19c0 .55.45 1 1 1h2c.55 0 1-.45 1-1v-1.26c.76-.2 1.47-.5 2.13-.89l.88.87c.37.37.98.37 1.36 0l1.36-1.36c.37-.38.37-.98 0-1.36l-.87-.87c.4-.65.7-1.37.89-2.13H19c.55 0 1-.45 1-1V9c0-.55-.45-1-1-1zm-9 7c-2.76 0-5-2.24-5-5s2.24-5 5-5v10z" clip-rule="evenodd"/></svg>