<?xml version="1.0" encoding="UTF-8"?>
<svg width="20px" height="20px" viewBox="0 0 20 20" version="1.1" xmlns="http://www.w3.org/2000/svg" xmlns:xlink="http://www.w3.org/1999/xlink">
    <!-- Generator: Sketch 52.3 (67297) - http://www.bohemiancoding.com/sketch -->
    <title>Artboard</title>
    <desc>Created with Sketch.</desc>
    <g id="Artboard" stroke="none" stroke-width="1" fill="none" fill-rule="evenodd">
        <path d="M1.95316591,4.48105238 L9.36210708,0.460859421 C9.75737765,0.246380193 10.2426223,0.246380193 10.6378929,0.460859421 L18.0468341,4.48105238 L10,9.21974356 L1.95316591,4.48105238 Z M1.13596449,5.16032441 L9.5,10.085812 L9.5,19.3674707 C9.45305089,19.3486448 9.40699872,19.3270525 9.36210708,19.3026937 L1.64782136,15.1168166 C1.24722494,14.8994475 1,14.4949166 1,14.0567952 L1,5.70675791 C1,5.51371288 1.04799771,5.32718932 1.13596449,5.16032441 Z M18.8640355,5.16032441 C18.9520023,5.32718932 19,5.51371288 19,5.70675791 L19,14.0567952 C19,14.4949166 18.7527751,14.8994475 18.3521786,15.1168166 L10.6378929,19.3026937 C10.5930013,19.3270525 10.5469491,19.3486448 10.5,19.3674707 L10.5,10.085812 L18.8640355,5.16032441 Z" id="Combined-Shape" fill="#000000" fill-rule="nonzero"></path>
    </g>
</svg>