<svg xmlns="http://www.w3.org/2000/svg" xml:space="preserve" viewBox="0 0 20 20"><path d="M16 2s.72-1.28 0-2l-5.29 6.25 1.28 1.54L16 2zm.08 10c-.55 0-1.07.12-1.54.32L4.31 0c-.7.72 0 2 0 2l4.45 6.56-3.19 3.77C5.09 12.12 4.56 12 4 12c-2.21 0-4 1.79-4 4s1.79 4 4 4 4-1.79 4-4c0-.65-.17-1.26-.45-1.8l2.54-3.67 2.49 3.67c-.27.54-.44 1.15-.44 1.8 0 2.21 1.76 4 3.92 4 2.17 0 3.92-1.79 3.92-4 .02-2.21-1.74-4-3.9-4zM4 18c-1.1 0-2-.9-2-2s.9-2 2-2 2 .9 2 2-.9 2-2 2zm12.08 0c-1.08 0-1.96-.9-1.96-2s.88-2 1.96-2 1.96.9 1.96 2-.88 2-1.96 2z"/></svg>