<?xml version="1.0" encoding="utf-8"?>
<!-- Generator: Adobe Illustrator 18.0.0, SVG Export Plug-In . SVG Version: 6.00 Build 0)  -->
<svg version="1.1" id="Layer_1" xmlns="http://www.w3.org/2000/svg" xmlns:xlink="http://www.w3.org/1999/xlink" x="0px" y="0px"
	 viewBox="0 0 20 20" enable-background="new 0 0 20 20" xml:space="preserve">
<g id="Shape_1_copy">
	<g>
		<path d="M16,2c0,0,0.72-1.28,0-2l-5.29,6.25l1.28,1.54L16,2z M16.08,12c-0.55,0-1.07,0.12-1.54,0.32L4.31,0c-0.7,0.72,0,2,0,2
			l4.45,6.56l-3.19,3.77C5.09,12.12,4.56,12,4,12c-2.21,0-4,1.79-4,4c0,2.21,1.79,4,4,4s4-1.79,4-4c0-0.65-0.17-1.26-0.45-1.8
			l2.54-3.67l2.49,3.67c-0.27,0.54-0.44,1.15-0.44,1.8c0,2.21,1.76,4,3.92,4c2.17,0,3.92-1.79,3.92-4C20,13.79,18.24,12,16.08,12z
			 M4,18c-1.1,0-2-0.9-2-2c0-1.1,0.9-2,2-2s2,0.9,2,2C6,17.1,5.1,18,4,18z M16.08,18c-1.08,0-1.96-0.9-1.96-2c0-1.1,0.88-2,1.96-2
			c1.08,0,1.96,0.9,1.96,2C18.04,17.1,17.16,18,16.08,18z"/>
	</g>
</g>
</svg>
