<?xml version="1.0" encoding="utf-8"?>
<!-- Generator: Adobe Illustrator 18.0.0, SVG Export Plug-In . SVG Version: 6.00 Build 0)  -->
<svg version="1.1" id="Layer_1" xmlns="http://www.w3.org/2000/svg" xmlns:xlink="http://www.w3.org/1999/xlink" x="0px" y="0px"
	 viewBox="0 0 20 20" enable-background="new 0 0 20 20" xml:space="preserve">
<g id="dashboard_1_">
	<g>
		<path fill-rule="evenodd" clip-rule="evenodd" d="M6,5C5.45,5,5,5.45,5,6c0,0.55,0.45,1,1,1s1-0.45,1-1C7,5.45,6.55,5,6,5z M4,9
			c-0.55,0-1,0.45-1,1c0,0.55,0.45,1,1,1s1-0.45,1-1C5,9.45,4.55,9,4,9z M10,5c0.55,0,1-0.45,1-1c0-0.55-0.45-1-1-1S9,3.45,9,4
			C9,4.55,9.45,5,10,5z M10,0C4.48,0,0,4.48,0,10c0,5.52,4.48,10,10,10s10-4.48,10-10C20,4.48,15.52,0,10,0z M10,18
			c-4.42,0-8-3.58-8-8s3.58-8,8-8s8,3.58,8,8S14.42,18,10,18z M16,9c-0.55,0-1,0.45-1,1c0,0.55,0.45,1,1,1s1-0.45,1-1
			C17,9.45,16.55,9,16,9z M8,14c0,1.1,0.9,2,2,2s2-0.9,2-2c0-0.33-2-8-2-8S8,13.67,8,14z M14,5c-0.55,0-1,0.45-1,1
			c0,0.55,0.45,1,1,1s1-0.45,1-1C15,5.45,14.55,5,14,5z"/>
	</g>
</g>
</svg>
