<svg xmlns="http://www.w3.org/2000/svg" viewBox="0 0 20 20"><path fill-rule="nonzero" d="M1.053 0C.47 0 0 .471 0 1.053V4.21c0 .58.471 1.052 1.053 1.052h3.275a6.332 6.332 0 0 0 3.728 4.738 6.33 6.33 0 0 0-3.728 4.737l-3.275-.001C.47 14.737 0 15.208 0 15.789v3.158C0 19.53.471 20 1.053 20h7.435c.581 0 1.053-.471 1.053-1.053V15.79c0-.58-.472-1.052-1.053-1.052H5.406a5.293 5.293 0 0 1 5.195-4.21v2.105c0 .58.471 1.052 1.052 1.052h7.294c.582 0 1.053-.471 1.053-1.052V7.368c0-.58-.471-1.052-1.053-1.052h-7.294c-.581 0-1.052.471-1.052 1.052v2.106a5.293 5.293 0 0 1-5.194-4.21h3.081c.581 0 1.053-.472 1.053-1.053V1.053C9.54.47 9.069 0 8.488 0H1.053Z"/></svg>