<?xml version="1.0" encoding="UTF-8"?>
<svg viewBox="0 0 20 20" version="1.1" xmlns="http://www.w3.org/2000/svg" xmlns:xlink="http://www.w3.org/1999/xlink">
    <title>Data lineage</title>
    <g stroke="none" stroke-width="1" fill="none" fill-rule="evenodd">
        <g id="data-lineage" fill="#000000" fill-rule="nonzero">
            <path d="M18.9473684,0 C19.5287207,0 20,0.471279211 20,1.05263158 L20,4.21052632 C20,4.79187868 19.5287207,5.26315789 18.9473684,5.26315789 L15.6717599,5.26325027 C15.3119475,7.3927052 13.8790159,9.16082033 11.9440253,10.0005429 C13.8793373,10.8394694 15.3124235,12.6079029 15.6719391,14.7378137 L18.9473684,14.7368421 C19.5287207,14.7368421 20,15.2081214 20,15.7894737 L20,18.9473684 C20,19.5287207 19.5287207,20 18.9473684,20 L11.5119956,20 C10.9306432,20 10.459364,19.5287207 10.459364,18.9473684 L10.459364,15.7894737 C10.459364,15.2081214 10.9306432,14.7368421 11.5119956,14.7368421 L14.5935799,14.7366442 C14.1024036,12.3343846 11.9634893,10.5263158 9.39929328,10.5263158 L9.39929328,12.6315789 C9.39929328,13.2129313 8.92801407,13.6842105 8.34666171,13.6842105 L1.05263158,13.6842105 C0.471279211,13.6842105 0,13.2129313 0,12.6315789 L0,7.36842105 C0,6.78706868 0.471279211,6.31578947 1.05263158,6.31578947 L8.34666171,6.31578947 C8.92801407,6.31578947 9.39929328,6.78706868 9.39929328,7.36842105 L9.39929328,9.47368421 C11.9631153,9.47368421 14.1017798,7.66614274 14.5933649,5.26440674 L11.5119956,5.26315789 C10.9306432,5.26315789 10.459364,4.79187868 10.459364,4.21052632 L10.459364,1.05263158 C10.459364,0.471279211 10.9306432,0 11.5119956,0 L18.9473684,0 Z" id="Combined-Shape" transform="translate(10.000000, 10.000000) scale(-1, 1) translate(-10.000000, -10.000000) "></path>
        </g>
    </g>
</svg>
