<?xml version="1.0" encoding="UTF-8"?>
<svg width="20px" height="20px" viewBox="0 0 20 20" version="1.1" xmlns="http://www.w3.org/2000/svg" xmlns:xlink="http://www.w3.org/1999/xlink">
    <title>bp3-data-connection</title>
    <g id="bp3-data-connection" stroke="none" stroke-width="1" fill="none" fill-rule="evenodd">
        <path d="M2,11.9 C2.93468865,12.5742236 4.3389668,13.1169578 6.02286947,13.4360955 C6.00757687,13.6215864 6,13.8099083 6,14 C6,16.5467063 7.359945,18.77577 9.39321594,20.00055 C5.40462513,19.9811517 2.16168117,18.9170543 2.00586153,17.5992952 L2,17.5 L2,11.9 Z M13,8 C16.315,8 19,10.685 19,14 C19,17.315 16.315,20 13,20 C9.685,20 7,17.315 7,14 C7,10.685 9.685,8 13,8 Z M14,9 L10,15 L12.5,15 L12,19 L16,13 L13.5,13 L14,9 Z M16.9995124,4.4 L16.9999712,8.2549186 C15.8661123,7.46390447 14.487116,7 12.9997725,7 C9.73921075,7 6.99933978,9.22941453 6.22127541,12.2470809 C3.81335585,11.8555478 2.12414114,11.0452198 2.00655427,10.1049899 L2,10 L2,4.4 C3.52495043,5.5 6.29986022,6.25 9.4997562,6.25 C12.6996522,6.25 15.474562,5.5 16.9995124,4.4 Z M9.4997562,0 C13.6371217,0 16.9995124,1.125 16.9995124,2.5 C16.9995124,3.875 13.6371217,5 9.4997562,5 C5.3498911,5 2,3.875 2,2.5 C2,1.125 5.3498911,0 9.4997562,0 Z" id="path-1"></path>
    </g>
</svg>
