<?xml version="1.0" encoding="utf-8"?>
<!-- Generator: Adobe Illustrator 17.1.0, SVG Export Plug-In . SVG Version: 6.00 Build 0)  -->
<!DOCTYPE svg PUBLIC "-//W3C//DTD SVG 1.1//EN" "http://www.w3.org/Graphics/SVG/1.1/DTD/svg11.dtd">
<svg version="1.1" id="Layer_1" xmlns="http://www.w3.org/2000/svg" xmlns:xlink="http://www.w3.org/1999/xlink" x="0px" y="0px"
	 viewBox="0 0 20 20" enable-background="new 0 0 20 20" xml:space="preserve">
<g id="Ellipse_1_copy_2">
	<g>
		<path fill-rule="evenodd" clip-rule="evenodd" d="M2.01,5.1v5.4c0,1.38,3.58,2.5,8,2.5s8-1.12,8-2.5V5.1
			c-1.49,1.13-4.51,1.9-8,1.9C6.53,7,3.51,6.23,2.01,5.1z M10.01,6c4.42,0,8-1.12,8-2.5c0-1.38-3.58-2.5-8-2.5s-8,1.12-8,2.5
			C2.01,4.88,5.6,6,10.01,6z M2.01,12.1v5.4c0,1.38,3.58,2.5,8,2.5s8-1.12,8-2.5v-5.4c-1.49,1.13-4.51,1.9-8,1.9
			C6.53,14,3.51,13.23,2.01,12.1z"/>
	</g>
</g>
</svg>
