<svg xmlns="http://www.w3.org/2000/svg" xml:space="preserve" viewBox="0 0 20 20"><path fill-rule="evenodd" d="M7.1 8.2h-.99c.28-1.11.66-1.92 1.12-2.43.28-.32.56-.48.83-.48.05 0 .1.02.13.05.03.03.05.07.05.12 0 .04-.04.13-.11.25a.64.64 0 0 0-.12.35c0 .15.06.28.18.39.12.11.27.16.45.16.2 0 .36-.07.49-.2s.2-.31.2-.54c0-.26-.1-.47-.3-.63-.19-.16-.51-.24-.95-.24-.68 0-1.3.19-1.85.58-.56.38-1.09 1.02-1.59 1.91-.17.3-.34.5-.49.59-.15.08-.4.13-.74.12l-.23.77h.95l-1.39 5.24c-.23.86-.39 1.39-.47 1.59-.12.29-.3.54-.54.75-.1.08-.21.12-.35.12-.04 0-.07-.01-.1-.03l-.03-.04c0-.02.03-.07.1-.13.07-.07.1-.17.1-.31 0-.15-.05-.28-.16-.38-.11-.1-.27-.15-.47-.15-.25 0-.44.07-.59.2-.15.12-.23.28-.23.46 0 .19.09.36.27.5.19.14.47.21.86.21.61 0 1.16-.15 1.63-.46.48-.31.89-.78 1.25-1.43.35-.64.72-1.68 1.09-3.11l.8-3.03h.96l.24-.77zM19 0h-9c-.55 0-1 .45-1 1v3h2V2h7v16h-7v-2H9v3c0 .55.45 1 1 1h9c.55 0 1-.45 1-1V1c0-.55-.45-1-1-1zm-8.79 13.49c.15.28.32.49.52.61.19.12.44.19.73.19.28 0 .57-.1.86-.3.38-.25.77-.69 1.17-1.31l-.25-.14c-.27.37-.48.6-.61.69-.09.06-.19.09-.31.09-.14 0-.28-.09-.42-.26-.23-.29-.54-1.09-.93-2.4.35-.59.64-.97.87-1.15.17-.13.35-.2.55-.2.07 0 .2.03.39.08s.36.08.5.08c.2 0 .37-.07.5-.2.15-.14.22-.31.22-.52 0-.22-.07-.4-.2-.53s-.33-.2-.58-.2c-.22 0-.43.05-.63.15-.2.1-.45.32-.75.67-.23.25-.56.7-1.01 1.33a6.52 6.52 0 0 0-.91-2.15l-2.39.39-.05.25c.18-.03.33-.05.45-.05.24 0 .43.1.59.3.25.31.59 1.24 1.02 2.8-.34.44-.58.73-.7.87-.21.22-.38.36-.52.43-.1.05-.22.08-.35.08-.1 0-.26-.05-.49-.16a1.01 1.01 0 0 0-.42-.11c-.23 0-.42.07-.57.22-.15.14-.23.33-.23.55 0 .21.07.38.21.51.14.13.33.2.56.2.23 0 .44-.05.64-.14.2-.09.45-.29.75-.59s.72-.78 1.25-1.43c.21.61.39 1.06.54 1.35z" clip-rule="evenodd"/></svg>