<?xml version="1.0" encoding="utf-8"?>
<!-- Generator: Adobe Illustrator 18.0.0, SVG Export Plug-In . SVG Version: 6.00 Build 0)  -->
<svg version="1.1" id="Layer_1" xmlns="http://www.w3.org/2000/svg" xmlns:xlink="http://www.w3.org/1999/xlink" x="0px" y="0px"
	 viewBox="0 0 20 20" enable-background="new 0 0 20 20" xml:space="preserve">
<g id="Shape_1_3_">
	<g>
		<path fill-rule="evenodd" clip-rule="evenodd" d="M7.1,8.2H6.11c0.28-1.11,0.66-1.92,1.12-2.43c0.28-0.32,0.56-0.48,0.83-0.48
			c0.05,0,0.1,0.02,0.13,0.05c0.03,0.03,0.05,0.07,0.05,0.12c0,0.04-0.04,0.13-0.11,0.25C8.05,5.83,8.01,5.95,8.01,6.06
			c0,0.15,0.06,0.28,0.18,0.39c0.12,0.11,0.27,0.16,0.45,0.16c0.2,0,0.36-0.07,0.49-0.2c0.13-0.13,0.2-0.31,0.2-0.54
			c0-0.26-0.1-0.47-0.3-0.63C8.84,5.08,8.52,5,8.08,5C7.4,5,6.78,5.19,6.23,5.58C5.67,5.96,5.14,6.6,4.64,7.49
			C4.47,7.79,4.3,7.99,4.15,8.08C4,8.16,3.75,8.21,3.41,8.2L3.18,8.97h0.95l-1.39,5.24c-0.23,0.86-0.39,1.39-0.47,1.59
			c-0.12,0.29-0.3,0.54-0.54,0.75c-0.1,0.08-0.21,0.12-0.35,0.12c-0.04,0-0.07-0.01-0.1-0.03L1.25,16.6c0-0.02,0.03-0.07,0.1-0.13
			c0.07-0.07,0.1-0.17,0.1-0.31c0-0.15-0.05-0.28-0.16-0.38c-0.11-0.1-0.27-0.15-0.47-0.15c-0.25,0-0.44,0.07-0.59,0.2
			C0.08,15.95,0,16.11,0,16.29c0,0.19,0.09,0.36,0.27,0.5C0.46,16.93,0.74,17,1.13,17c0.61,0,1.16-0.15,1.63-0.46
			c0.48-0.31,0.89-0.78,1.25-1.43C4.36,14.47,4.73,13.43,5.1,12l0.8-3.03h0.96L7.1,8.2z M19,0h-9C9.45,0,9,0.45,9,1v3h2V2h7v16h-7
			v-2H9v3c0,0.55,0.45,1,1,1h9c0.55,0,1-0.45,1-1V1C20,0.45,19.55,0,19,0z M10.21,13.49c0.15,0.28,0.32,0.49,0.52,0.61
			c0.19,0.12,0.44,0.19,0.73,0.19c0.28,0,0.57-0.1,0.86-0.3c0.38-0.25,0.77-0.69,1.17-1.31l-0.25-0.14
			c-0.27,0.37-0.48,0.6-0.61,0.69c-0.09,0.06-0.19,0.09-0.31,0.09c-0.14,0-0.28-0.09-0.42-0.26c-0.23-0.29-0.54-1.09-0.93-2.4
			c0.35-0.59,0.64-0.97,0.87-1.15c0.17-0.13,0.35-0.2,0.55-0.2c0.07,0,0.2,0.03,0.39,0.08c0.19,0.05,0.36,0.08,0.5,0.08
			c0.2,0,0.37-0.07,0.5-0.2C13.93,9.13,14,8.96,14,8.75c0-0.22-0.07-0.4-0.2-0.53c-0.13-0.13-0.33-0.2-0.58-0.2
			c-0.22,0-0.43,0.05-0.63,0.15c-0.2,0.1-0.45,0.32-0.75,0.67c-0.23,0.25-0.56,0.7-1.01,1.33c-0.18-0.78-0.48-1.5-0.91-2.15
			L7.53,8.41L7.48,8.66c0.18-0.03,0.33-0.05,0.45-0.05c0.24,0,0.43,0.1,0.59,0.3c0.25,0.31,0.59,1.24,1.02,2.8
			c-0.34,0.44-0.58,0.73-0.7,0.87c-0.21,0.22-0.38,0.36-0.52,0.43c-0.1,0.05-0.22,0.08-0.35,0.08c-0.1,0-0.26-0.05-0.49-0.16
			c-0.15-0.07-0.29-0.11-0.42-0.11c-0.23,0-0.42,0.07-0.57,0.22c-0.15,0.14-0.23,0.33-0.23,0.55c0,0.21,0.07,0.38,0.21,0.51
			c0.14,0.13,0.33,0.2,0.56,0.2c0.23,0,0.44-0.05,0.64-0.14c0.2-0.09,0.45-0.29,0.75-0.59c0.3-0.3,0.72-0.78,1.25-1.43
			C9.88,12.75,10.06,13.2,10.21,13.49z"/>
	</g>
</g>
</svg>
