<?xml version="1.0" encoding="utf-8"?>
<!-- Generator: Adobe Illustrator 18.1.0, SVG Export Plug-In . SVG Version: 6.00 Build 0)  -->
<svg version="1.1" id="Layer_1" xmlns="http://www.w3.org/2000/svg" xmlns:xlink="http://www.w3.org/1999/xlink" x="0px" y="0px"
	 viewBox="0 0 20 20" enable-background="new 0 0 20 20" xml:space="preserve">
<g id="desktop_1_">
	<g>
		<path fill-rule="evenodd" clip-rule="evenodd" d="M19,0H1C0.45,0,0,0.45,0,1v13c0,0.55,0.45,1,1,1h5.67l-0.5,3H5
			c-0.55,0-1,0.45-1,1c0,0.55,0.45,1,1,1h10c0.55,0,1-0.45,1-1c0-0.55-0.45-1-1-1h-1.17l-0.5-3H19c0.55,0,1-0.45,1-1V1
			C20,0.45,19.55,0,19,0z M18,13H2V2h16V13z"/>
	</g>
</g>
</svg>
