<?xml version="1.0" encoding="UTF-8"?>
<svg viewBox="0 0 20 20" version="1.1" xmlns="http://www.w3.org/2000/svg" xmlns:xlink="http://www.w3.org/1999/xlink">
    <title>pt-icon-diagnosis</title>
    <desc>Created with Sketch.</desc>
    <g id="pt-icon-diagnosis" stroke="none" stroke-width="1" fill="none" fill-rule="evenodd">
        <path d="M4,2 C4.55228475,2 5,2.44771525 5,3 C5,3.51283584 4.61395981,3.93550716 4.11662113,3.99327227 L4,4 L4,9 C4,10.0543618 4.81587779,10.9181651 5.85073766,10.9945143 L6,11 C7.0543618,11 7.91816512,10.1841222 7.99451426,9.14926234 L8,9 L8,4 C7.44771525,4 7,3.55228475 7,3 C7,2.48716416 7.38604019,2.06449284 7.88337887,2.00672773 L8,2 L9,2 C9.51283584,2 9.93550716,2.38604019 9.99327227,2.88337887 L10,3 L10,9 C10,10.8635652 8.72560224,12.429479 7.00076134,12.8737865 L7,13 C7,14.6568542 8.34314575,16 10,16 C12.1421954,16 13.8910789,14.3160315 13.9951047,12.1996403 L14,12 L14.0001748,8.79205454 C13.1171291,8.40631615 12.5,7.52522718 12.5,6.5 C12.5,5.11928813 13.6192881,4 15,4 C16.3807119,4 17.5,5.11928813 17.5,6.5 C17.5,7.52483825 16.8833391,8.40564763 16.00083,8.79161532 L16,12 C16,15.3137085 13.3137085,18 10,18 C7.3112453,18 5.11818189,15.8776933 5.00461951,13.2168896 L5,13 L5.00038984,12.8740828 C3.33693233,12.4461183 2.09216006,10.97503 2.00489531,9.19964034 L2,9 L2,3 C2,2.48716416 2.38604019,2.06449284 2.88337887,2.00672773 L3,2 L4,2 Z" id="Combined-Shape" fill="#000000" fill-rule="nonzero"></path>
    </g>
</svg>
