<?xml version="1.0" encoding="utf-8"?>
<!-- Generator: Adobe Illustrator 17.1.0, SVG Export Plug-In . SVG Version: 6.00 Build 0)  -->
<!DOCTYPE svg PUBLIC "-//W3C//DTD SVG 1.1//EN" "http://www.w3.org/Graphics/SVG/1.1/DTD/svg11.dtd">
<svg version="1.1" id="Layer_1" xmlns="http://www.w3.org/2000/svg" xmlns:xlink="http://www.w3.org/1999/xlink" x="0px" y="0px"
	 viewBox="0 0 20 20" enable-background="new 0 0 20 20" xml:space="preserve">
<g id="disable_2_">
	<g>
		<path fill-rule="evenodd" clip-rule="evenodd" d="M10,0C4.48,0,0,4.48,0,10c0,5.52,4.48,10,10,10s10-4.48,10-10
			C20,4.48,15.52,0,10,0z M2,10c0-4.42,3.58-8,8-8c1.85,0,3.55,0.63,4.9,1.69L3.69,14.9C2.63,13.55,2,11.85,2,10z M10,18
			c-1.85,0-3.55-0.63-4.9-1.69L16.31,5.1C17.37,6.45,18,8.15,18,10C18,14.42,14.42,18,10,18z"/>
	</g>
</g>
</svg>
