<?xml version="1.0" encoding="utf-8"?>
<!-- Generator: Adobe Illustrator 18.0.0, SVG Export Plug-In . SVG Version: 6.00 Build 0)  -->
<svg version="1.1" id="Layer_1" xmlns="http://www.w3.org/2000/svg" xmlns:xlink="http://www.w3.org/1999/xlink" x="0px" y="0px"
	 viewBox="0 0 20 20" enable-background="new 0 0 20 20" xml:space="preserve">
<g id="document_share">
	<g>
		<path fill-rule="evenodd" clip-rule="evenodd" d="M14.09,10.09c-0.31,0.31-0.67,0.57-1.09,0.72V18H2V2h6v5h1.18
			c0.15-0.42,0.39-0.8,0.7-1.11L9.88,5.88l2.45-2.45c-0.42-0.29-0.78-0.65-1.01-1.11L9,0H1C0.45,0,0,0.45,0,1v18c0,0.55,0.45,1,1,1
			h13c0.55,0,1-0.45,1-1V9.24l-0.88,0.88L14.09,10.09z M19,0h-5c-0.55,0-1,0.45-1,1c0,0.55,0.45,1,1,1h2.59l-5.29,5.29
			C11.11,7.47,11,7.72,11,8c0,0.55,0.45,1,1,1c0.28,0,0.53-0.11,0.71-0.29L18,3.41V6c0,0.55,0.45,1,1,1s1-0.45,1-1V1
			C20,0.45,19.55,0,19,0z"/>
	</g>
</g>
</svg>
