<?xml version="1.0" encoding="utf-8"?>
<!-- Generator: Adobe Illustrator 17.1.0, SVG Export Plug-In . SVG Version: 6.00 Build 0)  -->
<!DOCTYPE svg PUBLIC "-//W3C//DTD SVG 1.1//EN" "http://www.w3.org/Graphics/SVG/1.1/DTD/svg11.dtd">
<svg version="1.1" id="Layer_1" xmlns="http://www.w3.org/2000/svg" xmlns:xlink="http://www.w3.org/1999/xlink" x="0px" y="0px"
	 viewBox="0 0 20 20" enable-background="new 0 0 20 20" xml:space="preserve">
<g id="dollar_1_">
	<g>
		<path fill-rule="evenodd" clip-rule="evenodd" d="M15.57,11.19c-0.27-0.51-0.63-0.93-1.07-1.26c-0.44-0.33-0.95-0.6-1.51-0.79
			c-0.56-0.2-1.14-0.36-1.72-0.5c-0.6-0.14-1.19-0.26-1.75-0.38C8.95,8.13,8.45,7.99,8.01,7.82c-0.44-0.17-0.8-0.38-1.07-0.63
			c-0.27-0.25-0.41-0.59-0.41-1c0-0.33,0.09-0.6,0.28-0.81C7,5.17,7.23,5.02,7.5,4.91C7.77,4.8,8.07,4.73,8.38,4.69
			c0.31-0.04,0.58-0.06,0.8-0.06c0.71,0,1.35,0.14,1.9,0.41c0.55,0.27,0.91,0.81,1.06,1.62h3.36c-0.09-0.84-0.32-1.56-0.69-2.16
			c-0.37-0.6-0.83-1.08-1.38-1.45c-0.56-0.37-1.18-0.64-1.86-0.81c-0.19-0.05-0.38-0.07-0.57-0.1V1c0-0.55-0.45-1-1-1h-1
			c-0.55,0-1,0.45-1,1v1.1c-0.22,0.03-0.43,0.05-0.66,0.1C6.61,2.33,5.95,2.57,5.36,2.91C4.76,3.25,4.27,3.71,3.89,4.26
			C3.5,4.82,3.31,5.51,3.31,6.34c0,0.76,0.13,1.41,0.4,1.93c0.26,0.52,0.62,0.95,1.06,1.28c0.44,0.33,0.94,0.6,1.5,0.79
			c0.55,0.2,1.13,0.36,1.74,0.5c0.58,0.14,1.16,0.26,1.72,0.38c0.56,0.12,1.07,0.26,1.51,0.43c0.44,0.17,0.8,0.39,1.09,0.66
			c0.28,0.27,0.43,0.63,0.45,1.06c0.02,0.43-0.08,0.78-0.3,1.04c-0.22,0.26-0.49,0.47-0.83,0.6c-0.34,0.14-0.7,0.23-1.09,0.28
			c-0.39,0.05-0.73,0.07-1.03,0.07c-0.87,0-1.61-0.2-2.23-0.59c-0.62-0.39-0.98-1.08-1.07-2.06H3c0.02,0.9,0.19,1.68,0.52,2.34
			c0.33,0.66,0.78,1.21,1.35,1.65c0.57,0.44,1.25,0.77,2.03,0.98c0.35,0.1,0.71,0.16,1.08,0.21V19c0,0.55,0.45,1,1,1h1
			c0.55,0,1-0.45,1-1v-1.13c0.25-0.04,0.5-0.07,0.76-0.13c0.77-0.18,1.47-0.46,2.1-0.85c0.63-0.39,1.14-0.9,1.54-1.53
			c0.4-0.63,0.59-1.39,0.59-2.29C15.98,12.32,15.84,11.7,15.57,11.19z"/>
	</g>
</g>
</svg>
