<svg xmlns="http://www.w3.org/2000/svg" xml:space="preserve" viewBox="0 0 20 20"><path fill-rule="evenodd" d="M15.57 11.19c-.27-.51-.63-.93-1.07-1.26-.44-.33-.95-.6-1.51-.79-.56-.2-1.14-.36-1.72-.5-.6-.14-1.19-.26-1.75-.38-.57-.13-1.07-.27-1.51-.44-.44-.17-.8-.38-1.07-.63s-.41-.59-.41-1c0-.33.09-.6.28-.81.19-.21.42-.36.69-.47.27-.11.57-.18.88-.22.31-.04.58-.06.8-.06.71 0 1.35.14 1.9.41.55.27.91.81 1.06 1.62h3.36c-.09-.84-.32-1.56-.69-2.16-.37-.6-.83-1.08-1.38-1.45-.56-.37-1.18-.64-1.86-.81-.19-.05-.38-.07-.57-.1V1c0-.55-.45-1-1-1H9c-.55 0-1 .45-1 1v1.1c-.22.03-.43.05-.66.1-.73.13-1.39.37-1.98.71-.6.34-1.09.8-1.47 1.35-.39.56-.58 1.25-.58 2.08 0 .76.13 1.41.4 1.93.26.52.62.95 1.06 1.28.44.33.94.6 1.5.79.55.2 1.13.36 1.74.5.58.14 1.16.26 1.72.38s1.07.26 1.51.43c.44.17.8.39 1.09.66.28.27.43.63.45 1.06.02.43-.08.78-.3 1.04-.22.26-.49.47-.83.6-.34.14-.7.23-1.09.28-.39.05-.73.07-1.03.07-.87 0-1.61-.2-2.23-.59-.62-.39-.98-1.08-1.07-2.06H3c.02.9.19 1.68.52 2.34.33.66.78 1.21 1.35 1.65.57.44 1.25.77 2.03.98.35.1.71.16 1.08.21V19c0 .55.45 1 1 1h1c.55 0 1-.45 1-1v-1.13c.25-.04.5-.07.76-.13.77-.18 1.47-.46 2.1-.85.63-.39 1.14-.9 1.54-1.53.4-.63.59-1.39.59-2.29.01-.75-.13-1.37-.4-1.88z" clip-rule="evenodd"/></svg>