<?xml version="1.0" encoding="utf-8"?>
<!-- Generator: Adobe Illustrator 18.0.0, SVG Export Plug-In . SVG Version: 6.00 Build 0)  -->
<svg version="1.1" id="Layer_1" xmlns="http://www.w3.org/2000/svg" xmlns:xlink="http://www.w3.org/1999/xlink" x="0px" y="0px"
	 viewBox="0 0 20 20" enable-background="new 0 0 20 20" xml:space="preserve">
<g id="double_chevron_up_1_">
	<g>
		<path fill-rule="evenodd" clip-rule="evenodd" d="M4,11c0.28,0,0.53-0.11,0.71-0.29L10,5.41l5.29,5.29C15.47,10.89,15.72,11,16,11
			c0.55,0,1-0.45,1-1c0-0.28-0.11-0.53-0.29-0.71l-6-6C10.53,3.11,10.28,3,10,3C9.72,3,9.47,3.11,9.29,3.29l-6,6
			C3.11,9.47,3,9.72,3,10C3,10.55,3.45,11,4,11z M10.71,9.29C10.53,9.11,10.28,9,10,9C9.72,9,9.47,9.11,9.29,9.29l-6,6
			C3.11,15.47,3,15.72,3,16c0,0.55,0.45,1,1,1c0.28,0,0.53-0.11,0.71-0.29L10,11.41l5.29,5.29C15.47,16.89,15.72,17,16,17
			c0.55,0,1-0.45,1-1c0-0.28-0.11-0.53-0.29-0.71L10.71,9.29z"/>
	</g>
</g>
</svg>
