<?xml version="1.0" encoding="utf-8"?>
<!-- Generator: Adobe Illustrator 18.0.0, SVG Export Plug-In . SVG Version: 6.00 Build 0)  -->
<svg version="1.1" id="Layer_1" xmlns="http://www.w3.org/2000/svg" xmlns:xlink="http://www.w3.org/1999/xlink" x="0px" y="0px"
	 viewBox="0 0 20 20" enable-background="new 0 0 20 20" xml:space="preserve">
<g id="double_chevron_left">
	<g>
		<path fill-rule="evenodd" clip-rule="evenodd" d="M5.41,10l5.29-5.29C10.89,4.53,11,4.28,11,4c0-0.55-0.45-1-1-1
			C9.72,3,9.47,3.11,9.29,3.29l-6,6C3.11,9.47,3,9.72,3,10c0,0.28,0.11,0.53,0.29,0.71l6,6C9.47,16.89,9.72,17,10,17
			c0.55,0,1-0.45,1-1c0-0.28-0.11-0.53-0.29-0.71L5.41,10z M11.41,10l5.29-5.29C16.89,4.53,17,4.28,17,4c0-0.55-0.45-1-1-1
			c-0.28,0-0.53,0.11-0.71,0.29l-6,6C9.11,9.47,9,9.72,9,10c0,0.28,0.11,0.53,0.29,0.71l6,6C15.47,16.89,15.72,17,16,17
			c0.55,0,1-0.45,1-1c0-0.28-0.11-0.53-0.29-0.71L11.41,10z"/>
	</g>
</g>
</svg>
