<?xml version="1.0" encoding="utf-8"?>
<!-- Generator: Adobe Illustrator 18.1.0, SVG Export Plug-In . SVG Version: 6.00 Build 0)  -->
<svg version="1.1" id="Layer_1" xmlns="http://www.w3.org/2000/svg" xmlns:xlink="http://www.w3.org/1999/xlink" x="0px" y="0px"
	 viewBox="0 0 20 20" enable-background="new 0 0 20 20" xml:space="preserve">
<g id="double_caret_horizontal_1_">
	<g>
		<path fill-rule="evenodd" clip-rule="evenodd" d="M8,4C7.76,4,7.54,4.1,7.37,4.24L7.36,4.23l-6,5l0.01,0.01C1.15,9.43,1,9.69,1,10
			c0,0.31,0.15,0.57,0.37,0.76l-0.01,0.01l6,5l0.01-0.01C7.54,15.9,7.76,16,8,16c0.55,0,1-0.45,1-1V5C9,4.45,8.55,4,8,4z M19,10
			c0-0.31-0.15-0.57-0.37-0.76l0.01-0.01l-6-5l-0.01,0.01C12.46,4.1,12.24,4,12,4c-0.55,0-1,0.45-1,1v10c0,0.55,0.45,1,1,1
			c0.24,0,0.46-0.1,0.63-0.24l0.01,0.01l6-5l-0.01-0.01C18.85,10.57,19,10.31,19,10z"/>
	</g>
</g>
</svg>
