<?xml version="1.0" encoding="utf-8"?>
<!-- Generator: Adobe Illustrator 18.0.0, SVG Export Plug-In . SVG Version: 6.00 Build 0)  -->
<svg version="1.1" id="Layer_1" xmlns="http://www.w3.org/2000/svg" xmlns:xlink="http://www.w3.org/1999/xlink" x="0px" y="0px"
	 viewBox="0 0 20 20" enable-background="new 0 0 20 20" xml:space="preserve">
<g id="double_chevron_down_1_">
	<g>
		<path fill-rule="evenodd" clip-rule="evenodd" d="M9.29,10.71C9.47,10.89,9.72,11,10,11s0.53-0.11,0.71-0.29l6-6
			C16.89,4.53,17,4.28,17,4c0-0.55-0.45-1-1-1c-0.28,0-0.53,0.11-0.71,0.29L10,8.59L4.71,3.29C4.53,3.11,4.28,3,4,3
			C3.45,3,3,3.45,3,4c0,0.28,0.11,0.53,0.29,0.71L9.29,10.71z M16,9c-0.28,0-0.53,0.11-0.71,0.29L10,14.59L4.71,9.29
			C4.53,9.11,4.28,9,4,9c-0.55,0-1,0.45-1,1c0,0.28,0.11,0.53,0.29,0.71l6,6C9.47,16.89,9.72,17,10,17s0.53-0.11,0.71-0.29l6-6
			C16.89,10.53,17,10.28,17,10C17,9.45,16.55,9,16,9z"/>
	</g>
</g>
</svg>
