<svg xmlns="http://www.w3.org/2000/svg" xml:space="preserve" viewBox="0 0 20 20"><path fill-rule="evenodd" d="M7.5 11c-.83 0-1.5.67-1.5 1.5S6.67 14 7.5 14 9 13.33 9 12.5 8.33 11 7.5 11zm-5-5C1.67 6 1 6.67 1 7.5S1.67 9 2.5 9 4 8.33 4 7.5 3.33 6 2.5 6zm0 5c-.83 0-1.5.67-1.5 1.5S1.67 14 2.5 14 4 13.33 4 12.5 3.33 11 2.5 11zm15-2c.83 0 1.5-.67 1.5-1.5S18.33 6 17.5 6 16 6.67 16 7.5 16.67 9 17.5 9zm-5 2c-.83 0-1.5.67-1.5 1.5s.67 1.5 1.5 1.5 1.5-.67 1.5-1.5-.67-1.5-1.5-1.5zm5 0c-.83 0-1.5.67-1.5 1.5s.67 1.5 1.5 1.5 1.5-.67 1.5-1.5-.67-1.5-1.5-1.5zm-10-5C6.67 6 6 6.67 6 7.5S6.67 9 7.5 9 9 8.33 9 7.5 8.33 6 7.5 6zm5 0c-.83 0-1.5.67-1.5 1.5S11.67 9 12.5 9 14 8.33 14 7.5 13.33 6 12.5 6z" clip-rule="evenodd"/></svg>