<svg xmlns="http://www.w3.org/2000/svg" xml:space="preserve" viewBox="0 0 20 20"><path fill-rule="evenodd" d="M7.5 6C6.67 6 6 6.67 6 7.5S6.67 9 7.5 9 9 8.33 9 7.5 8.33 6 7.5 6zm0 5c-.83 0-1.5.67-1.5 1.5S6.67 14 7.5 14 9 13.33 9 12.5 8.33 11 7.5 11zm0 5c-.83 0-1.5.67-1.5 1.5S6.67 19 7.5 19 9 18.33 9 17.5 8.33 16 7.5 16zm5-12c.83 0 1.5-.67 1.5-1.5S13.33 1 12.5 1 11 1.67 11 2.5 11.67 4 12.5 4zm-5-3C6.67 1 6 1.67 6 2.5S6.67 4 7.5 4 9 3.33 9 2.5 8.33 1 7.5 1zm5 10c-.83 0-1.5.67-1.5 1.5s.67 1.5 1.5 1.5 1.5-.67 1.5-1.5-.67-1.5-1.5-1.5zm0 5c-.83 0-1.5.67-1.5 1.5s.67 1.5 1.5 1.5 1.5-.67 1.5-1.5-.67-1.5-1.5-1.5zm0-10c-.83 0-1.5.67-1.5 1.5S11.67 9 12.5 9 14 8.33 14 7.5 13.33 6 12.5 6z" clip-rule="evenodd"/></svg>