<?xml version="1.0" encoding="utf-8"?>
<!-- Generator: Adobe Illustrator 18.0.0, SVG Export Plug-In . SVG Version: 6.00 Build 0)  -->
<svg version="1.1" id="Layer_1" xmlns="http://www.w3.org/2000/svg" xmlns:xlink="http://www.w3.org/1999/xlink" x="0px" y="0px"
	 viewBox="0 0 20 20" enable-background="new 0 0 20 20" xml:space="preserve">
<g id="drag_handle_vertical_5_">
	<g>
		<path fill-rule="evenodd" clip-rule="evenodd" d="M7.5,6C6.67,6,6,6.67,6,7.5S6.67,9,7.5,9S9,8.33,9,7.5S8.33,6,7.5,6z M7.5,11
			C6.67,11,6,11.67,6,12.5S6.67,14,7.5,14S9,13.33,9,12.5S8.33,11,7.5,11z M7.5,16C6.67,16,6,16.67,6,17.5S6.67,19,7.5,19
			S9,18.33,9,17.5S8.33,16,7.5,16z M12.5,4C13.33,4,14,3.33,14,2.5S13.33,1,12.5,1S11,1.67,11,2.5S11.67,4,12.5,4z M7.5,1
			C6.67,1,6,1.67,6,2.5S6.67,4,7.5,4S9,3.33,9,2.5S8.33,1,7.5,1z M12.5,11c-0.83,0-1.5,0.67-1.5,1.5s0.67,1.5,1.5,1.5
			s1.5-0.67,1.5-1.5S13.33,11,12.5,11z M12.5,16c-0.83,0-1.5,0.67-1.5,1.5s0.67,1.5,1.5,1.5s1.5-0.67,1.5-1.5S13.33,16,12.5,16z
			 M12.5,6C11.67,6,11,6.67,11,7.5S11.67,9,12.5,9S14,8.33,14,7.5S13.33,6,12.5,6z"/>
	</g>
</g>
</svg>
