<?xml version="1.0" encoding="UTF-8"?>
<svg width="20px" height="20px" viewBox="0 0 20 20" version="1.1" xmlns="http://www.w3.org/2000/svg" xmlns:xlink="http://www.w3.org/1999/xlink">
    <title>drawer-right-filled</title>
    <g id="drawer-right-filled" stroke="none" stroke-width="1" fill="none" fill-rule="evenodd">
        <path d="M11,0 L19,0 C19.5522847,0 20,0.44771525 20,1 L20,19 C20,19.5522847 19.5522847,20 19,20 L11,20 C10.4477153,20 10,19.5522847 10,19 L10,1 C10,0.44771525 10.4477153,0 11,0 Z M10,9 L3.40999997,9 L5.69999998,6.71000006 C5.88999998,6.53000006 6,6.28000006 6,6 C6,5.45000005 5.54999998,5 5,5 C4.71999997,5 4.46999997,5.11000005 4.28999997,5.29000005 L0.289999951,9.29000007 C0.109999951,9.47000007 8.52651283e-14,9.72000007 8.52651283e-14,10 C8.52651283e-14,10.2800001 0.109999951,10.5300001 0.289999951,10.7100001 L4.28999997,14.7100001 C4.46999997,14.8900001 4.71999997,15 5,15 C5.54999998,15 6,14.5500001 6,14 C6,13.7200001 5.88999998,13.4700001 5.70999998,13.2900001 L3.40999997,11 L10,11 L10,9 Z" id="Shape" fill="#000000" fill-rule="nonzero"></path>
    </g>
</svg>