<?xml version="1.0" encoding="utf-8"?>
<!-- Generator: Adobe Illustrator 17.1.0, SVG Export Plug-In . SVG Version: 6.00 Build 0)  -->
<!DOCTYPE svg PUBLIC "-//W3C//DTD SVG 1.1//EN" "http://www.w3.org/Graphics/SVG/1.1/DTD/svg11.dtd">
<svg version="1.1" id="Layer_1" xmlns:sketch="http://www.bohemiancoding.com/sketch/ns"
	 xmlns="http://www.w3.org/2000/svg" xmlns:xlink="http://www.w3.org/1999/xlink" x="0px" y="0px" viewBox="0 0 20 20"
	 enable-background="new 0 0 20 20" xml:space="preserve">
<title>Shape</title>
<desc>Created with Sketch.</desc>
<g id="Page-1" sketch:type="MSPage">
	<g id="Artboard-1" sketch:type="MSArtboardGroup">
		<path id="Shape" sketch:type="MSShapeGroup" d="M17.7,12.7c0-0.1,0-0.2-0.1-0.3h0l-2-7h0c-0.1-0.3-0.3-0.6-0.6-0.7l0,0L1.8,0
			L1.2,0.5L7.7,7c0.3-0.2,0.6-0.3,1-0.3c1.1,0,2,0.9,2,2s-0.9,2-2,2s-2-0.9-2-2c0-0.4,0.1-0.7,0.3-1L0.5,1.2L0,1.8L4.7,15
			c0.1,0.3,0.4,0.5,0.7,0.6v0l7,2v0c0.1,0,0.2,0.1,0.3,0.1c0.3,0,0.5-0.1,0.7-0.3l4-4C17.6,13.2,17.7,12.9,17.7,12.7L17.7,12.7z
			 M18.7,13.7c-0.3,0-0.5,0.1-0.7,0.3l-4,4c-0.2,0.2-0.3,0.4-0.3,0.7c0,0.5,0.4,1,1,1c0.3,0,0.5-0.1,0.7-0.3l4-4
			c0.2-0.2,0.3-0.4,0.3-0.7C19.7,14.1,19.2,13.7,18.7,13.7L18.7,13.7z"/>
	</g>
</g>
</svg>
