<svg xmlns="http://www.w3.org/2000/svg" xml:space="preserve" viewBox="0 0 20 20"><path fill-rule="evenodd" d="M20.01 7.7c0-.63-.5-1.14-1.1-1.14h-1.32l-.95-2.57c-.24-.64-.95-1.31-1.59-1.5 0 0-1.65-.49-5.05-.49s-5.04.49-5.04.49c-.63.19-1.35.86-1.59 1.5l-.95 2.57H1.1C.5 6.56 0 7.07 0 7.7c0 .63.5 1.14 1.1 1.14h.47l-.34.91c-.24.64-.43 1.72-.43 2.4v5.39c0 .8.63 1.45 1.4 1.45.77 0 1.4-.65 1.4-1.45v-.83h12.8v.83c0 .8.63 1.45 1.4 1.45s1.4-.65 1.4-1.45v-5.39c0-.68-.19-1.77-.43-2.4l-.34-.91h.47c.61 0 1.11-.51 1.11-1.14zm-16.47.34 1.12-3.16c.08-.22.32-.39.54-.39h9.6c.22 0 .46.17.54.39l1.12 3.16c.08.21-.04.39-.26.39H3.8c-.22-.01-.34-.18-.26-.39zm.96 4.94c-.83 0-1.5-.67-1.5-1.5s.67-1.5 1.5-1.5 1.5.68 1.5 1.5c0 .83-.67 1.5-1.5 1.5zm11 0c-.83 0-1.5-.67-1.5-1.5s.67-1.5 1.5-1.5 1.5.67 1.5 1.5-.67 1.5-1.5 1.5z" clip-rule="evenodd"/></svg>