<?xml version="1.0" encoding="utf-8"?>
<!-- Generator: Adobe Illustrator 18.1.0, SVG Export Plug-In . SVG Version: 6.00 Build 0)  -->
<svg version="1.1" id="Layer_1" xmlns="http://www.w3.org/2000/svg" xmlns:xlink="http://www.w3.org/1999/xlink" x="0px" y="0px"
	 viewBox="0 0 20 20" enable-background="new 0 0 20 20" xml:space="preserve">
<g id="eject_1_">
	<g>
		<path fill-rule="evenodd" clip-rule="evenodd" d="M4,12h12c0.55,0,1-0.45,1-1c0-0.25-0.1-0.47-0.25-0.64l0.01-0.01l-6-7
			l-0.01,0.01C10.57,3.14,10.3,3,10,3S9.43,3.14,9.25,3.36c0,0-0.01-0.01-0.01-0.01l-6,7l0.01,0.01C3.1,10.53,3,10.75,3,11
			C3,11.55,3.45,12,4,12z M16,13H4c-0.55,0-1,0.45-1,1v2c0,0.55,0.45,1,1,1h12c0.55,0,1-0.45,1-1v-2C17,13.45,16.55,13,16,13z"/>
	</g>
</g>
</svg>
