<svg xmlns="http://www.w3.org/2000/svg" xml:space="preserve" style="enable-background:new 0 0 20 20" viewBox="0 0 20 20"><path fill-rule="evenodd" d="M19.83 9.38 18.81 7.6V5.62c0-.45-.23-.85-.61-1.08l-1.71-1-1.02-1.76a1.25 1.25 0 0 0-1.08-.61h-2.03l-1.74-1c-.38-.23-.87-.23-1.25 0l-1.74 1H5.65c-.44 0-.85.23-1.08.61L3.58 3.5l-1.8 1.04c-.38.24-.62.64-.62 1.08v2.06L.17 9.4c-.11.19-.17.4-.17.61s.06.42.17.61l.99 1.72v2.06c0 .45.23.85.61 1.08l1.78 1.02.99 1.72c.23.38.63.61 1.08.61h1.99l1.74 1c.19.11.41.17.62.17.21 0 .42-.06.61-.17l1.74-1h2.03c.44 0 .85-.23 1.08-.61l1.02-1.76 1.71-1c.38-.23.61-.64.61-1.08v-1.97l1.02-1.78c.27-.38.27-.85.04-1.25zm-5.08-.71-5.01 5.01c-.18.18-.43.29-.71.29-.28 0-.53-.11-.71-.29l-3.01-3.01a1.003 1.003 0 0 1 1.42-1.42l2.3 2.3 4.31-4.3a1.003 1.003 0 0 1 1.71.71c0 .28-.12.53-.3.71z" clip-rule="evenodd"/></svg>