<?xml version="1.0" encoding="utf-8"?>
<!-- Generator: Adobe Illustrator 18.0.0, SVG Export Plug-In . SVG Version: 6.00 Build 0)  -->
<svg version="1.1" id="Layer_1" xmlns="http://www.w3.org/2000/svg" xmlns:xlink="http://www.w3.org/1999/xlink" x="0px" y="0px"
	 viewBox="0 0 20 20" style="enable-background:new 0 0 20 20;" xml:space="preserve">
<g id="endorsed_1_">
	<g>
		<path fill-rule="evenodd" clip-rule="evenodd" d="M19.83,9.38L18.81,7.6V5.62c0-0.45-0.23-0.85-0.61-1.08l-1.71-1l-1.02-1.76c-0.23-0.38-0.63-0.61-1.08-0.61
			h-2.03l-1.74-1c-0.38-0.23-0.87-0.23-1.25,0l-1.74,1H5.65c-0.44,0-0.85,0.23-1.08,0.61L3.58,3.5l-1.8,1.04
			C1.4,4.78,1.16,5.18,1.16,5.62v2.06L0.17,9.4C0.06,9.59,0,9.8,0,10.01s0.06,0.42,0.17,0.61l0.99,1.72v2.06
			c0,0.45,0.23,0.85,0.61,1.08l1.78,1.02l0.99,1.72c0.23,0.38,0.63,0.61,1.08,0.61h1.99l1.74,1C9.54,19.94,9.76,20,9.97,20
			c0.21,0,0.42-0.06,0.61-0.17l1.74-1h2.03c0.44,0,0.85-0.23,1.08-0.61l1.02-1.76l1.71-1c0.38-0.23,0.61-0.64,0.61-1.08v-1.97
			l1.02-1.78C20.06,10.25,20.06,9.78,19.83,9.38z M14.75,8.67l-5.01,5.01c-0.18,0.18-0.43,0.29-0.71,0.29
			c-0.28,0-0.53-0.11-0.71-0.29l-3.01-3.01c-0.18-0.18-0.29-0.43-0.29-0.71c0-0.55,0.45-1,1-1c0.28,0,0.53,0.11,0.71,0.29l2.3,2.3
			l4.31-4.3c0.18-0.18,0.43-0.29,0.71-0.29c0.55,0,1,0.45,1,1C15.05,8.24,14.93,8.49,14.75,8.67z"/>
	</g>
</g>
</svg>
