<?xml version="1.0" encoding="utf-8"?>
<!-- Generator: Adobe Illustrator 18.0.0, SVG Export Plug-In . SVG Version: 6.00 Build 0)  -->
<svg version="1.1" id="Layer_1" xmlns="http://www.w3.org/2000/svg" xmlns:xlink="http://www.w3.org/1999/xlink" x="0px" y="0px"
	 viewBox="0 0 20 20" enable-background="new 0 0 20 20" xml:space="preserve">
<g id="euro">
	<g>
		<path fill-rule="evenodd" clip-rule="evenodd" d="M8.89,4.47c0.56-0.31,1.23-0.47,2.03-0.47c0.44,0,0.85,0.07,1.25,0.22
			c0.4,0.14,0.76,0.35,1.07,0.6c0.17,0.14,0.33,0.3,0.47,0.47l2.32-2.32c-0.16-0.15-0.3-0.32-0.47-0.46
			c-0.62-0.49-1.33-0.87-2.12-1.13C12.64,1.13,11.8,1,10.92,1C9.68,1,8.57,1.22,7.59,1.66C6.6,2.1,5.77,2.71,5.1,3.48
			C4.42,4.26,3.9,5.16,3.54,6.2C3.45,6.46,3.41,6.74,3.34,7H2C1.45,7,1,7.45,1,8s0.45,1,1,1h1.04C3.03,9.2,3,9.38,3,9.58
			C3,9.73,3.03,9.86,3.03,10H2c-0.55,0-1,0.45-1,1s0.45,1,1,1h1.31c0.07,0.3,0.13,0.6,0.23,0.89c0.36,1.02,0.88,1.92,1.56,2.67
			c0.68,0.76,1.51,1.35,2.49,1.79C8.57,17.78,9.68,18,10.92,18c0.99,0,1.9-0.15,2.73-0.46c0.83-0.3,1.55-0.74,2.17-1.32
			c0.03-0.03,0.05-0.06,0.08-0.09l-2.41-2.15c-0.01,0.01-0.02,0.02-0.02,0.03c-0.61,0.67-1.46,1-2.54,1c-0.8,0-1.47-0.16-2.03-0.47
			c-0.56-0.31-1.01-0.72-1.35-1.24C7.27,12.92,7.08,12.47,6.92,12H12c0.55,0,1-0.45,1-1s-0.45-1-1-1H6.56
			C6.56,9.86,6.54,9.72,6.54,9.58c0-0.2,0.02-0.39,0.03-0.58H13c0.55,0,1-0.45,1-1s-0.45-1-1-1H6.94c0.15-0.46,0.34-0.9,0.59-1.28
			C7.88,5.2,8.33,4.78,8.89,4.47z M18,11.38v0.02C18,11.39,18,11.38,18,11.38L18,11.38z"/>
	</g>
</g>
</svg>
