<svg xmlns="http://www.w3.org/2000/svg" xml:space="preserve" viewBox="0 0 20 20"><path fill-rule="evenodd" d="M8.89 4.47c.56-.31 1.23-.47 2.03-.47.44 0 .85.07 1.25.22.4.14.76.35 1.07.6.17.14.33.3.47.47l2.32-2.32c-.16-.15-.3-.32-.47-.46-.62-.49-1.33-.87-2.12-1.13-.8-.25-1.64-.38-2.52-.38-1.24 0-2.35.22-3.33.66-.99.44-1.82 1.05-2.49 1.82-.68.78-1.2 1.68-1.56 2.72-.09.26-.13.54-.2.8H2c-.55 0-1 .45-1 1s.45 1 1 1h1.04c-.01.2-.04.38-.04.58 0 .15.03.28.03.42H2c-.55 0-1 .45-1 1s.45 1 1 1h1.31c.07.3.13.6.23.89.36 1.02.88 1.92 1.56 2.67.68.76 1.51 1.35 2.49 1.79.98.43 2.09.65 3.33.65.99 0 1.9-.15 2.73-.46.83-.3 1.55-.74 2.17-1.32.03-.03.05-.06.08-.09l-2.41-2.15c-.01.01-.02.02-.02.03-.61.67-1.46 1-2.54 1-.8 0-1.47-.16-2.03-.47-.56-.31-1.01-.72-1.35-1.24-.28-.38-.47-.83-.63-1.3H12c.55 0 1-.45 1-1s-.45-1-1-1H6.56c0-.14-.02-.28-.02-.42 0-.2.02-.39.03-.58H13c.55 0 1-.45 1-1s-.45-1-1-1H6.94c.15-.46.34-.9.59-1.28.35-.52.8-.94 1.36-1.25zM18 11.38v.02-.02z" clip-rule="evenodd"/></svg>