<?xml version="1.0" encoding="utf-8"?>
<!-- Generator: Adobe Illustrator 18.1.0, SVG Export Plug-In . SVG Version: 6.00 Build 0)  -->
<svg version="1.1" id="Layer_1" xmlns="http://www.w3.org/2000/svg" xmlns:xlink="http://www.w3.org/1999/xlink" x="0px" y="0px"
	 viewBox="0 0 20 20" enable-background="new 0 0 20 20" xml:space="preserve">
<g id="exclude_row_2_">
	<g>
		<path d="M1,3h18c0.55,0,1-0.45,1-1c0-0.55-0.45-1-1-1H1C0.45,1,0,1.45,0,2C0,2.55,0.45,3,1,3z M0,13c0,0.55,0.45,1,1,1
			c0.28,0,0.53-0.11,0.71-0.29L4,11.41l2.29,2.29C6.47,13.89,6.72,14,7,14c0.55,0,1-0.45,1-1c0-0.28-0.11-0.53-0.29-0.71L5.41,10
			l2.29-2.29C7.89,7.53,8,7.28,8,7c0-0.55-0.45-1-1-1C6.72,6,6.47,6.11,6.29,6.29L4,8.59L1.71,6.29C1.53,6.11,1.28,6,1,6
			C0.45,6,0,6.45,0,7c0,0.28,0.11,0.53,0.29,0.71L2.59,10l-2.29,2.29C0.11,12.47,0,12.72,0,13z M18,8h-7c-1.1,0-2,0.9-2,2
			c0,1.1,0.9,2,2,2h7c1.1,0,2-0.9,2-2C20,8.9,19.1,8,18,8z M19,17H1c-0.55,0-1,0.45-1,1c0,0.55,0.45,1,1,1h18c0.55,0,1-0.45,1-1
			C20,17.45,19.55,17,19,17z"/>
	</g>
</g>
</svg>
