<?xml version="1.0" encoding="utf-8"?>
<!-- Generator: Adobe Illustrator 18.0.0, SVG Export Plug-In . SVG Version: 6.00 Build 0)  -->
<svg version="1.1" id="Layer_1" xmlns="http://www.w3.org/2000/svg" xmlns:xlink="http://www.w3.org/1999/xlink" x="0px" y="0px"
	 viewBox="0 0 20 20" enable-background="new 0 0 20 20" xml:space="preserve">
<g id="expand_all_2_">
	<g>
		<path fill-rule="evenodd" clip-rule="evenodd" d="M4,9c0.28,0,0.53-0.11,0.71-0.29L10,3.41l5.29,5.29C15.47,8.89,15.72,9,16,9
			c0.55,0,1-0.45,1-1c0-0.28-0.11-0.53-0.29-0.71l-6-6C10.53,1.11,10.28,1,10,1S9.47,1.11,9.29,1.29l-6,6C3.11,7.47,3,7.72,3,8
			C3,8.55,3.45,9,4,9z M16,11c-0.28,0-0.53,0.11-0.71,0.29L10,16.59l-5.29-5.29C4.53,11.11,4.28,11,4,11c-0.55,0-1,0.45-1,1
			c0,0.28,0.11,0.53,0.29,0.71l6,6C9.47,18.89,9.72,19,10,19s0.53-0.11,0.71-0.29l6-6C16.89,12.53,17,12.28,17,12
			C17,11.45,16.55,11,16,11z"/>
	</g>
</g>
</svg>
