<?xml version="1.0" encoding="utf-8"?>
<!-- Generator: Adobe Illustrator 17.1.0, SVG Export Plug-In . SVG Version: 6.00 Build 0)  -->
<!DOCTYPE svg PUBLIC "-//W3C//DTD SVG 1.1//EN" "http://www.w3.org/Graphics/SVG/1.1/DTD/svg11.dtd">
<svg version="1.1" id="Layer_1" xmlns="http://www.w3.org/2000/svg" xmlns:xlink="http://www.w3.org/1999/xlink" x="0px" y="0px"
	 viewBox="0 0 20 20" enable-background="new 0 0 20 20" xml:space="preserve">
<g id="export_1_">
	<g>
		<path fill-rule="evenodd" clip-rule="evenodd" d="M5,7c0.28,0,0.53-0.11,0.71-0.29L9,3.41V15c0,0.55,0.45,1,1,1s1-0.45,1-1V3.41
			l3.29,3.29C14.47,6.89,14.72,7,15,7c0.55,0,1-0.45,1-1c0-0.28-0.11-0.53-0.29-0.71l-5-5C10.53,0.11,10.28,0,10,0
			S9.47,0.11,9.29,0.29l-5,5C4.11,5.47,4,5.72,4,6C4,6.55,4.45,7,5,7z M19,14c-0.55,0-1,0.45-1,1v3H2v-3c0-0.55-0.45-1-1-1
			s-1,0.45-1,1v4c0,0.55,0.45,1,1,1h18c0.55,0,1-0.45,1-1v-4C20,14.45,19.55,14,19,14z"/>
	</g>
</g>
</svg>
