<svg xmlns="http://www.w3.org/2000/svg" width="20" height="20"><path fill-rule="nonzero" d="M10.01 7.984A2.008 2.008 0 0 0 8.012 9.99c0 1.103.9 2.006 1.998 2.006a2.008 2.008 0 0 0 1.998-2.006c0-1.103-.9-2.006-1.998-2.006ZM20 9.96v-.08a.827.827 0 0 0-.21-.442c-.64-.802-1.398-1.514-2.168-2.166-1.658-1.404-3.566-2.587-5.664-3.058a8.982 8.982 0 0 0-3.656-.05c-1.11.2-2.178.641-3.177 1.183-1.569.852-2.997 2.016-4.246 3.33-.23.25-.46.49-.67.761-.279.351-.279.773 0 1.124.64.802 1.4 1.514 2.169 2.166 1.658 1.404 3.566 2.577 5.664 3.058 1.209.271 2.438.281 3.656.05 1.11-.21 2.178-.651 3.177-1.193 1.569-.852 2.997-2.016 4.246-3.33.23-.24.46-.49.67-.751.11-.12.179-.271.209-.442v-.16ZM10.01 14A4.003 4.003 0 0 1 6.014 9.99a4.003 4.003 0 0 1 3.996-4.011 4.003 4.003 0 0 1 3.996 4.011 4.003 4.003 0 0 1-3.996 4.011Z"/></svg>