<?xml version="1.0" encoding="UTF-8"?>
<svg width="20px" height="20px" viewBox="0 0 20 20" version="1.1" xmlns="http://www.w3.org/2000/svg" xmlns:xlink="http://www.w3.org/1999/xlink">
    <!-- Generator: Sketch 49.1 (51147) - http://www.bohemiancoding.com/sketch -->
    <title>z</title>
    <desc>Created with Sketch.</desc>
    <defs></defs>
    <g id="z" stroke="none" stroke-width="1" fill="none" fill-rule="evenodd">
        <g id="pt-icon-eye-open" transform="translate(0.000000, 4.000000)" fill="#000000" fill-rule="nonzero">
            <path d="M10.00999,3.98434797 C8.91108891,3.98434797 8.01198801,4.88687874 8.01198801,5.9899719 C8.01198801,7.09306502 8.91108891,7.99559579 10.00999,7.99559579 C11.1088911,7.99559579 12.007992,7.09306502 12.007992,5.9899719 C12.007992,4.88687874 11.1088911,3.98434797 10.00999,3.98434797 Z M20,5.95988754 C20,5.94985942 20,5.9398313 20,5.92980318 C20,5.92980318 20,5.91977506 20,5.91977506 C20,5.90974694 20,5.90974694 20,5.89971882 C20,5.8896907 20,5.8896907 20,5.87966258 C20,5.87966258 20,5.87966258 20,5.87966258 C19.98002,5.71921267 19.9000999,5.55876276 19.7902098,5.43842532 C19.1508492,4.63617575 18.3916084,3.92417925 17.6223776,3.27235148 C15.964036,1.86841473 14.0559441,0.685096607 11.958042,0.213774983 C10.7492507,-0.0569842474 9.52047952,-0.0670123671 8.3016983,0.163634385 C7.19280719,0.364196778 6.12387612,0.805434042 5.12487512,1.3469525 C3.55644356,2.19934267 2.12787213,3.36260455 0.879120879,4.67628823 C0.649350649,4.92699122 0.41958042,5.16766609 0.20979021,5.43842532 C-0.0699300699,5.78940951 -0.0699300699,6.21059049 0.20979021,6.56157468 C0.849150849,7.36382425 1.60839161,8.07582075 2.37762238,8.72764852 C4.03596404,10.1315853 5.94405594,11.3048753 8.04195804,11.786225 C9.25074925,12.0569842 10.4795205,12.0670124 11.6983017,11.8363656 C12.8071928,11.6257751 13.8761239,11.1845378 14.8751249,10.6430194 C16.4435564,9.79062921 17.8721279,8.62736733 19.1208791,7.31368365 C19.3506494,7.07300878 19.5804196,6.82230579 19.7902098,6.56157468 C19.9000999,6.44123724 19.97003,6.29081545 20,6.12033742 C20,6.12033742 20,6.12033742 20,6.12033742 C20,6.1103093 20,6.1103093 20,6.10028118 C20,6.09025306 20,6.09025306 20,6.08022494 C20,6.08022494 20,6.07019682 20,6.07019682 C20,6.0601687 20,6.05014058 20,6.04011246 C20,6.03008434 20,6.01002814 20,6.00000002 C20,5.97994378 20,5.96991566 20,5.95988754 Z M10.00999,10.0012197 C7.8021978,10.0012197 6.01398601,8.2061863 6.01398601,5.9899719 C6.01398601,3.77375746 7.8021978,1.97872404 10.00999,1.97872404 C12.2177822,1.97872404 14.005994,3.77375746 14.005994,5.9899719 C14.005994,8.2061863 12.2177822,10.0012197 10.00999,10.0012197 Z" id="Shape"></path>
        </g>
    </g>
</svg>