<?xml version="1.0" encoding="utf-8"?>
<!-- Generator: Adobe Illustrator 18.1.0, SVG Export Plug-In . SVG Version: 6.00 Build 0)  -->
<svg version="1.1" id="Shape_2_1_" xmlns="http://www.w3.org/2000/svg" xmlns:xlink="http://www.w3.org/1999/xlink" x="0px" y="0px"
	 viewBox="0 0 20 20" enable-background="new 0 0 20 20" xml:space="preserve">
<g id="Shape_2">
	<g>
		<path fill-rule="evenodd" clip-rule="evenodd" d="M20,9.96c0-0.01,0-0.02,0-0.03c0,0,0-0.01,0-0.01c0-0.01,0-0.01,0-0.02
			c0-0.01,0-0.01,0-0.02c0,0,0,0,0,0c-0.02-0.16-0.1-0.31-0.21-0.43c-0.55-0.69-1.19-1.3-1.85-1.87l-3.93,2.62
			c-0.11,2.1-1.83,3.77-3.96,3.77c-0.47,0-0.91-0.1-1.33-0.24l-2.24,1.49c0.52,0.21,1.05,0.39,1.6,0.51
			c1.21,0.27,2.43,0.28,3.64,0.05c1.11-0.21,2.17-0.64,3.17-1.18c1.56-0.84,2.99-2,4.23-3.3c0.23-0.24,0.46-0.49,0.67-0.75
			c0.11-0.12,0.18-0.27,0.21-0.43c0,0,0,0,0,0c0-0.01,0-0.01,0-0.02c0-0.01,0-0.01,0-0.02c0,0,0-0.01,0-0.01c0-0.01,0-0.02,0-0.03
			c0-0.01,0-0.03,0-0.04C20,9.99,20,9.97,20,9.96z M19.54,4.82C19.81,4.64,20,4.35,20,4c0-0.55-0.45-1-1-1
			c-0.21,0-0.39,0.08-0.54,0.18l-0.01-0.02l-3.45,2.3c-0.95-0.53-1.95-0.96-3.01-1.2C10.77,4,9.55,3.99,8.34,4.22
			C7.23,4.43,6.17,4.86,5.17,5.4c-1.56,0.84-2.99,2-4.23,3.3C0.71,8.94,0.48,9.18,0.27,9.45C0,9.79,0,10.21,0.27,10.55
			c0.64,0.79,1.39,1.5,2.16,2.15c0.26,0.21,0.52,0.41,0.79,0.61l-2.78,1.85l0.01,0.02C0.19,15.36,0,15.65,0,16c0,0.55,0.45,1,1,1
			c0.21,0,0.39-0.08,0.54-0.18l0.01,0.02l18-12L19.54,4.82z M10.87,8.22c-0.25-0.12-0.53-0.2-0.83-0.2c-1.1,0-1.99,0.89-1.99,1.99
			c0,0.03,0.02,0.06,0.02,0.09l-1.78,1.19c-0.14-0.4-0.22-0.83-0.22-1.28c0-2.19,1.78-3.97,3.98-3.97c1.01,0,1.91,0.38,2.61,1
			L10.87,8.22z"/>
	</g>
</g>
</svg>
