<svg xmlns="http://www.w3.org/2000/svg" xml:space="preserve" viewBox="0 0 20 20"><path fill-rule="evenodd" d="M13.3 8.71c.18.18.43.29.71.29s.53-.11.71-.29l4.99-5a1.003 1.003 0 0 0-1.42-1.42L14 6.58l-2.29-2.29a.956.956 0 0 0-.7-.29 1.003 1.003 0 0 0-.71 1.71l3 3zM20 9.96v-.08a.823.823 0 0 0-.21-.44c-.44-.55-.94-1.05-1.46-1.52l-2.2 2.2c-.55.54-1.3.88-2.12.88-.05 0-.09-.01-.14-.01a3.978 3.978 0 0 1-3.86 3.02 4.007 4.007 0 0 1-1.66-7.65A2.97 2.97 0 0 1 8.02 5c0-.28.05-.54.12-.8-1.05.22-2.07.64-3.02 1.15-1.57.85-3 2.02-4.24 3.33-.23.25-.46.5-.67.76-.28.35-.28.77 0 1.12.64.8 1.4 1.52 2.17 2.17 1.66 1.41 3.56 2.58 5.66 3.06 1.21.27 2.43.29 3.65.05 1.11-.21 2.18-.65 3.18-1.19 1.57-.85 3-2.02 4.24-3.33.23-.24.46-.49.67-.76.11-.12.18-.27.21-.44V10c.01-.01.01-.03.01-.04zm-9.99 2.05c1.03 0 1.87-.79 1.98-1.8l-.09-.09-.01.01-2.1-2.11c-1 .11-1.77.95-1.77 1.98-.01 1.11.89 2.01 1.99 2.01z" clip-rule="evenodd"/></svg>