<?xml version="1.0" encoding="utf-8"?>
<!-- Generator: Adobe Illustrator 18.1.0, SVG Export Plug-In . SVG Version: 6.00 Build 0)  -->
<svg version="1.1" id="Layer_1" xmlns="http://www.w3.org/2000/svg" xmlns:xlink="http://www.w3.org/1999/xlink" x="0px" y="0px"
	 viewBox="0 0 20 20" enable-background="new 0 0 20 20" xml:space="preserve">
<g id="fast_backward_1_">
	<g>
		<path fill-rule="evenodd" clip-rule="evenodd" d="M18,3c-0.23,0-0.42,0.09-0.59,0.21L17.4,3.2L11,8V4c0-0.55-0.45-1-1-1
			C9.77,3,9.58,3.09,9.41,3.21L9.4,3.2l-8,6l0.01,0.01C1.17,9.4,1,9.67,1,10s0.17,0.6,0.41,0.79L1.4,10.8l8,6l0.01-0.01
			C9.58,16.91,9.77,17,10,17c0.55,0,1-0.45,1-1v-4l6.4,4.8l0.01-0.01C17.58,16.91,17.77,17,18,17c0.55,0,1-0.45,1-1V4
			C19,3.45,18.55,3,18,3z"/>
	</g>
</g>
</svg>
