<?xml version="1.0" encoding="utf-8"?>
<!-- Generator: Adobe Illustrator 18.1.0, SVG Export Plug-In . SVG Version: 6.00 Build 0)  -->
<svg version="1.1" id="Layer_1" xmlns="http://www.w3.org/2000/svg" xmlns:xlink="http://www.w3.org/1999/xlink" x="0px" y="0px"
	 viewBox="0 0 20 20" enable-background="new 0 0 20 20" xml:space="preserve">
<g id="fast_forward_1_">
	<g>
		<path fill-rule="evenodd" clip-rule="evenodd" d="M19,10c0-0.33-0.17-0.6-0.41-0.79L18.6,9.2l-8-6l-0.01,0.01
			C10.42,3.09,10.23,3,10,3C9.45,3,9,3.45,9,4v4L2.6,3.2L2.59,3.21C2.42,3.09,2.23,3,2,3C1.45,3,1,3.45,1,4v12c0,0.55,0.45,1,1,1
			c0.23,0,0.42-0.09,0.59-0.21L2.6,16.8L9,12v4c0,0.55,0.45,1,1,1c0.23,0,0.42-0.09,0.59-0.21l0.01,0.01l8-6l-0.01-0.01
			C18.83,10.6,19,10.33,19,10z"/>
	</g>
</g>
</svg>
