<svg xmlns="http://www.w3.org/2000/svg" xml:space="preserve" viewBox="0 0 20 20"><path fill-rule="evenodd" d="M2.5 15a2.5 2.5 0 0 0 0 5 2.5 2.5 0 0 0 0-5zM3 2c1.76 0 3.44.31 5.01.87.03-.71.31-1.35.75-1.85C6.96.37 5.03 0 3 0c-.55 0-1 .45-1 1s.45 1 1 1zm10.32 4.67a.99.99 0 0 0 1.4 0l4.98-4.98c.19-.17.3-.42.3-.7 0-.55-.45-1-1-1a.99.99 0 0 0-.7.29l-4.27 4.27-2.28-2.28a.99.99 0 0 0-.7-.29c-.55 0-.99.45-.99 1 0 .28.11.52.29.7l2.97 2.99zM3 10c-.55 0-1 .45-1 1s.45 1 1 1c2.76 0 5 2.24 5 5 0 .55.45 1 1 1s1-.45 1-1c0-3.87-3.13-7-7-7zm13.94-2.69-.82.82-.02-.02c-.2.2-.42.37-.67.51A14.8 14.8 0 0 1 18 17c0 .55.45 1 1 1s1-.45 1-1c0-3.61-1.14-6.94-3.06-9.69zM3 5c-.55 0-1 .45-1 1s.45 1 1 1c5.52 0 10 4.48 10 10 0 .55.45 1 1 1s1-.45 1-1C15 10.37 9.63 5 3 5z" clip-rule="evenodd"/></svg>