<?xml version="1.0" encoding="utf-8"?>
<!-- Generator: Adobe Illustrator 17.1.0, SVG Export Plug-In . SVG Version: 6.00 Build 0)  -->
<!DOCTYPE svg PUBLIC "-//W3C//DTD SVG 1.1//EN" "http://www.w3.org/Graphics/SVG/1.1/DTD/svg11.dtd">
<svg version="1.1" id="Layer_1" xmlns="http://www.w3.org/2000/svg" xmlns:xlink="http://www.w3.org/1999/xlink" x="0px" y="0px"
	 viewBox="0 0 20 20" enable-background="new 0 0 20 20" xml:space="preserve">
<g id="feed_2_">
	<g>
		<path fill-rule="evenodd" clip-rule="evenodd" d="M2.5,15C1.12,15,0,16.12,0,17.5C0,18.88,1.12,20,2.5,20S5,18.88,5,17.5
			C5,16.12,3.88,15,2.5,15z M3,10c-0.55,0-1,0.45-1,1c0,0.55,0.45,1,1,1c2.76,0,5,2.24,5,5c0,0.55,0.45,1,1,1s1-0.45,1-1
			C10,13.13,6.87,10,3,10z M3,0C2.45,0,2,0.45,2,1c0,0.55,0.45,1,1,1c8.28,0,15,6.72,15,15c0,0.55,0.45,1,1,1s1-0.45,1-1
			C20,7.61,12.39,0,3,0z M3,5C2.45,5,2,5.45,2,6c0,0.55,0.45,1,1,1c5.52,0,10,4.48,10,10c0,0.55,0.45,1,1,1s1-0.45,1-1
			C15,10.37,9.63,5,3,5z"/>
	</g>
</g>
</svg>
