<?xml version="1.0" encoding="utf-8"?>
<!-- Generator: Adobe Illustrator 18.0.0, SVG Export Plug-In . SVG Version: 6.00 Build 0)  -->
<svg version="1.1" id="Shape_3_1_" xmlns="http://www.w3.org/2000/svg" xmlns:xlink="http://www.w3.org/1999/xlink" x="0px" y="0px"
	 viewBox="0 0 20 20" enable-background="new 0 0 20 20" xml:space="preserve">
<g id="Shape_3">
	<g>
		<path fill-rule="evenodd" clip-rule="evenodd" d="M2.5,15C1.12,15,0,16.12,0,17.5C0,18.88,1.12,20,2.5,20S5,18.88,5,17.5
			C5,16.12,3.88,15,2.5,15z M3,2c1.76,0,3.44,0.31,5.01,0.87c0.03-0.71,0.31-1.35,0.75-1.85C6.96,0.37,5.03,0,3,0C2.45,0,2,0.45,2,1
			S2.45,2,3,2z M13.32,6.67c0.18,0.18,0.43,0.29,0.7,0.29c0.27,0,0.52-0.11,0.7-0.29l4.98-4.98C19.89,1.52,20,1.27,20,0.99
			c0-0.55-0.45-1-1-1c-0.27,0-0.52,0.11-0.7,0.29l-4.27,4.27l-2.28-2.28c-0.18-0.18-0.43-0.29-0.7-0.29c-0.55,0-0.99,0.45-0.99,1
			c0,0.28,0.11,0.52,0.29,0.7L13.32,6.67z M3,10c-0.55,0-1,0.45-1,1s0.45,1,1,1c2.76,0,5,2.24,5,5c0,0.55,0.45,1,1,1s1-0.45,1-1
			C10,13.13,6.87,10,3,10z M16.94,7.31l-0.82,0.82l-0.02-0.02c-0.2,0.2-0.42,0.37-0.67,0.51C17.06,11.01,18,13.89,18,17
			c0,0.55,0.45,1,1,1s1-0.45,1-1C20,13.39,18.86,10.06,16.94,7.31z M3,5C2.45,5,2,5.45,2,6s0.45,1,1,1c5.52,0,10,4.48,10,10
			c0,0.55,0.45,1,1,1s1-0.45,1-1C15,10.37,9.63,5,3,5z"/>
	</g>
</g>
</svg>
