<?xml version="1.0" encoding="utf-8"?>
<!-- Generator: Adobe Illustrator 18.0.0, SVG Export Plug-In . SVG Version: 6.00 Build 0)  -->
<svg version="1.1" id="Layer_1" xmlns="http://www.w3.org/2000/svg" xmlns:xlink="http://www.w3.org/1999/xlink" x="0px" y="0px"
	 viewBox="0 0 20 20" enable-background="new 0 0 20 20" xml:space="preserve">
<g id="keep_filter_2_">
	<g>
		<path fill-rule="evenodd" clip-rule="evenodd" d="M15,2c0-0.55-0.45-1-1-1H1C0.45,1,0,1.45,0,2c0,0.28,0.11,0.53,0.29,0.71L5,7.41
			V16c0,0.55,0.45,1,1,1c0.28,0,0.53-0.11,0.71-0.29l3-3C9.89,13.53,10,13.28,10,13V7.41l4.71-4.71C14.89,2.53,15,2.28,15,2z M19,13
			c-0.28,0-0.53,0.11-0.71,0.29L15,16.59l-1.29-1.29C13.53,15.11,13.28,15,13,15c-0.55,0-1,0.45-1,1c0,0.28,0.11,0.53,0.29,0.71l2,2
			C14.47,18.89,14.72,19,15,19s0.53-0.11,0.71-0.29l4-4C19.89,14.53,20,14.28,20,14C20,13.45,19.55,13,19,13z"/>
	</g>
</g>
</svg>
