<?xml version="1.0" encoding="utf-8"?>
<!-- Generator: Adobe Illustrator 18.0.0, SVG Export Plug-In . SVG Version: 6.00 Build 0)  -->
<svg version="1.1" id="Layer_1" xmlns="http://www.w3.org/2000/svg" xmlns:xlink="http://www.w3.org/1999/xlink" x="0px" y="0px"
	 viewBox="0 0 20 20" enable-background="new 0 0 20 20" xml:space="preserve">
<g id="remove_filter_2_">
	<g>
		<path fill-rule="evenodd" clip-rule="evenodd" d="M15,2c0-0.55-0.45-1-1-1H1C0.45,1,0,1.45,0,2c0,0.28,0.11,0.53,0.29,0.71L5,7.41
			V16c0,0.55,0.45,1,1,1c0.28,0,0.53-0.11,0.71-0.29l3-3C9.89,13.53,10,13.28,10,13V7.41l4.71-4.71C14.89,2.53,15,2.28,15,2z
			 M17.91,15.5l1.79-1.79C19.89,13.53,20,13.28,20,13c0-0.55-0.45-1-1-1c-0.28,0-0.53,0.11-0.71,0.29l-1.79,1.79l-1.79-1.79
			C14.53,12.11,14.28,12,14,12c-0.55,0-1,0.45-1,1c0,0.28,0.11,0.53,0.29,0.71l1.79,1.79l-1.79,1.79C13.11,17.47,13,17.72,13,18
			c0,0.55,0.45,1,1,1c0.28,0,0.53-0.11,0.71-0.29l1.79-1.79l1.79,1.79C18.47,18.89,18.72,19,19,19c0.55,0,1-0.45,1-1
			c0-0.28-0.11-0.53-0.29-0.71L17.91,15.5z"/>
	</g>
</g>
</svg>
