<?xml version="1.0" encoding="utf-8"?>
<!-- Generator: Adobe Illustrator 17.1.0, SVG Export Plug-In . SVG Version: 6.00 Build 0)  -->
<!DOCTYPE svg PUBLIC "-//W3C//DTD SVG 1.1//EN" "http://www.w3.org/Graphics/SVG/1.1/DTD/svg11.dtd">
<svg version="1.1" id="Layer_1" xmlns="http://www.w3.org/2000/svg" xmlns:xlink="http://www.w3.org/1999/xlink" x="0px" y="0px"
	 viewBox="0 0 20 20" enable-background="new 0 0 20 20" xml:space="preserve">
<g id="flag_2_">
	<g>
		<path fill-rule="evenodd" clip-rule="evenodd" d="M3,3C2.45,3,2,3.45,2,4v15c0,0.55,0.45,1,1,1s1-0.45,1-1V4C4,3.45,3.55,3,3,3z
			 M3,0C2.45,0,2,0.45,2,1c0,0.55,0.45,1,1,1s1-0.45,1-1C4,0.45,3.55,0,3,0z M5,4.08v8.28c3.01-2.41,8.67,2.64,13,0V4.08
			C13.61,7.14,8.01,1,5,4.08z"/>
	</g>
</g>
</svg>
