<?xml version="1.0" encoding="UTF-8"?>
<svg width="20px" height="20px" viewBox="0 0 20 20" version="1.1" xmlns="http://www.w3.org/2000/svg" xmlns:xlink="http://www.w3.org/1999/xlink">
    <!-- Generator: Sketch 49.1 (51147) - http://www.bohemiancoding.com/sketch -->
    <title>Artboard Copy</title>
    <desc>Created with Sketch.</desc>
    <defs></defs>
    <g id="Artboard-Copy" stroke="none" stroke-width="1" fill="none" fill-rule="evenodd">
        <path d="M11.6223011,0 C11.6223011,1.70940171 12.1128933,3.07692308 13.0940778,4.1025641 C16.3646926,6.4957265 18,9.23076923 18,12.3076923 C18,15.7264957 16.0376311,18.2905983 12.1128933,20 C15,17 14.5658545,15.7692308 11.6223011,12 C8.5,13.5 9,14.5 9.5,16.5 C8.45242566,16.5 7.5,16.5 7,16 C7,16.6837607 8.19671588,18.5 8.95242566,20 C5.02768789,18.974359 0.829272269,12.8205128 2.30104893,12.3076923 C3.28223337,11.965812 4.42694856,12.1367521 5.73519448,12.8205128 C4.09988708,6.66666667 6.06225596,2.39316239 11.6223011,0 Z" id="Path-3" fill="#000000"></path>
    </g>
</svg>