<?xml version="1.0" encoding="utf-8"?>
<!-- Generator: Adobe Illustrator 18.1.0, SVG Export Plug-In . SVG Version: 6.00 Build 0)  -->
<svg version="1.1" id="Layer_1" xmlns="http://www.w3.org/2000/svg" xmlns:xlink="http://www.w3.org/1999/xlink" x="0px" y="0px"
	 viewBox="0 0 20 20" enable-background="new 0 0 20 20" xml:space="preserve">
<g id="flash_1_">
	<g>
		<path fill-rule="evenodd" clip-rule="evenodd" d="M4.96,6.37c0.18,0.18,0.43,0.29,0.71,0.29c0.55,0,1-0.45,1-1
			c0-0.28-0.11-0.53-0.29-0.71l-2-2C4.19,2.78,3.94,2.67,3.67,2.67c-0.55,0-1,0.45-1,1c0,0.28,0.11,0.53,0.29,0.71L4.96,6.37z
			 M14.33,6.67c0.28,0,0.53-0.11,0.71-0.29l2-2c0.18-0.18,0.29-0.43,0.29-0.71c0-0.55-0.45-1-1-1c-0.28,0-0.53,0.11-0.71,0.29l-2,2
			c-0.18,0.18-0.29,0.43-0.29,0.71C13.33,6.22,13.78,6.67,14.33,6.67z M10,5c0.55,0,1-0.45,1-1V1c0-0.55-0.45-1-1-1S9,0.45,9,1v3
			C9,4.55,9.45,5,10,5z M5,10c0-0.55-0.45-1-1-1H1c-0.55,0-1,0.45-1,1c0,0.55,0.45,1,1,1h3C4.55,11,5,10.55,5,10z M19,9h-3
			c-0.55,0-1,0.45-1,1c0,0.55,0.45,1,1,1h3c0.55,0,1-0.45,1-1C20,9.45,19.55,9,19,9z M10,6c-2.21,0-4,1.79-4,4c0,2.21,1.79,4,4,4
			s4-1.79,4-4C14,7.79,12.21,6,10,6z M10,12c-1.1,0-2-0.9-2-2c0-1.1,0.9-2,2-2s2,0.9,2,2C12,11.1,11.1,12,10,12z M15.04,13.63
			c-0.18-0.18-0.43-0.29-0.71-0.29c-0.55,0-1,0.45-1,1c0,0.28,0.11,0.53,0.29,0.71l2,2c0.18,0.18,0.43,0.29,0.71,0.29
			c0.55,0,1-0.45,1-1c0-0.28-0.11-0.53-0.29-0.71L15.04,13.63z M10,15c-0.55,0-1,0.45-1,1v3c0,0.55,0.45,1,1,1s1-0.45,1-1v-3
			C11,15.45,10.55,15,10,15z M5.67,13.33c-0.28,0-0.53,0.11-0.71,0.29l-2,2c-0.18,0.18-0.29,0.43-0.29,0.71c0,0.55,0.45,1,1,1
			c0.28,0,0.53-0.11,0.71-0.29l2-2c0.18-0.18,0.29-0.43,0.29-0.71C6.67,13.78,6.22,13.33,5.67,13.33z"/>
	</g>
</g>
</svg>
