<?xml version="1.0" encoding="UTF-8"?>
<svg width="20px" height="20px" viewBox="0 0 20 20" version="1.1" xmlns="http://www.w3.org/2000/svg" xmlns:xlink="http://www.w3.org/1999/xlink">
    <!-- Generator: Sketch 51.3 (57544) - http://www.bohemiancoding.com/sketch -->
    <title>Artboard</title>
    <desc>Created with Sketch.</desc>
    <defs></defs>
    <g id="Artboard" stroke="none" stroke-width="1" fill="none" fill-rule="evenodd">
        <g id="flow-review-branch" transform="translate(0.000000, 1.000000)" fill="#000000" fill-rule="nonzero">
            <path d="M13.0398506,12.4237451 C12.4401293,12.7843002 11.7382724,12.9915792 10.9881354,12.9915792 C9.12868901,12.9915792 7.56589985,11.7179544 7.12003984,9.99322676 L3.34192684,9.99322676 L5.71439017,12.3032974 C5.88976825,12.4791566 5.99694374,12.7234054 5.99694374,12.9969642 C5.99694374,13.5343117 5.54516362,13.9950528 5.00928614,13.9950528 C4.73647578,13.9950528 4.49317032,13.8920171 4.31779224,13.7063879 L0.292296808,9.68278893 C0.116918723,9.50692975 5.68434189e-14,9.27245085 5.68434189e-14,8.99889213 C5.68434189e-14,8.72533341 0.107175496,8.48108455 0.282553581,8.30522537 L4.31779224,4.26438711 C4.49317032,4.08852794 4.73647578,3.97662467 5.00928614,3.97662467 C5.54516362,3.97662467 5.99694374,4.44686127 5.99694374,4.98420876 C5.99694374,5.25776748 5.88976825,5.50201633 5.71439017,5.67787551 L3.33218362,7.98369621 L7.11822228,7.98369621 C7.56163867,6.25538665 9.12615365,4.97828628 10.9881354,4.97828628 C11.7593737,4.97828628 12.4795774,5.19739084 13.0902173,5.57691017 L16.6547332,2.00692636 L14.1167684,2.00440903 C13.8685002,2.00416279 13.6201364,1.90729469 13.4268476,1.71385946 C13.047173,1.33389741 13.0465075,0.661853859 13.4254301,0.282644235 C13.6183362,0.0895920618 13.8665086,-0.00678353976 14.1216799,0.000371109693 L19.0181919,0.00522778909 C19.2664601,0.00547403758 19.5148102,0.0885390147 19.708099,0.28197424 C19.9013879,0.475409466 19.9782997,0.723941693 19.9785457,0.972397883 L19.9833988,5.8726189 C19.9836448,6.12107508 19.8873421,6.3694355 19.694436,6.56248768 C19.3155135,6.9416973 18.6578686,6.94104501 18.2781941,6.56108296 C18.0849052,6.36764773 17.9881105,6.11909578 17.9878644,5.87063959 L17.985349,3.33075234 L14.4309128,6.95012135 C14.7822294,7.54650574 14.983821,8.24211254 14.983821,8.98493274 C14.983821,9.74846795 14.770829,10.4621197 14.4011732,11.0694056 L17.9964895,14.6636065 L17.9990049,12.1237193 C17.9992509,11.8752631 18.0960457,11.6267111 18.2893345,11.4332759 C18.669009,11.0533138 19.3386471,11.0526497 19.7175697,11.4318593 C19.9104757,11.6249115 20.0067785,11.8732719 19.9996292,12.1286365 L19.9947762,17.0288575 C19.9945301,17.2773137 19.9115427,17.5110015 19.7182539,17.7044367 C19.5249651,17.8978719 19.2766013,17.99474 19.0283331,17.9949862 L13.9739296,17.9999995 C13.7256614,18.0002457 13.477489,17.9038701 13.2845829,17.710818 C12.9056604,17.3316083 12.9063157,16.6699354 13.2859901,16.2899734 C13.4792789,16.0965382 13.7276427,15.9996701 13.9759109,15.9994239 L16.6717672,15.9967499 L13.0398506,12.4237451 Z" id="Shape"></path>
        </g>
    </g>
</svg>