<?xml version="1.0" encoding="UTF-8"?>
<svg width="20px" height="20px" viewBox="0 0 20 20" version="1.1" xmlns="http://www.w3.org/2000/svg" xmlns:xlink="http://www.w3.org/1999/xlink">
    <!-- Generator: Sketch 51.3 (57544) - http://www.bohemiancoding.com/sketch -->
    <title>Artboard</title>
    <desc>Created with Sketch.</desc>
    <defs></defs>
    <g id="Artboard" stroke="none" stroke-width="1" fill="none" fill-rule="evenodd">
        <g id="flow-branch" transform="translate(0.000000, 1.000000)" fill="#000000" fill-rule="nonzero">
            <path d="M14.4251443,6.95344456 C14.7817812,7.55173889 14.9866692,8.25106871 14.9866692,8.99827274 C14.9866692,9.76021578 14.7736184,10.4723773 14.403863,11.0783877 L18.0007994,14.6711219 L18.0012892,11.9794549 C18.0013343,11.7313269 18.0978684,11.4831813 18.2908814,11.2901578 C18.670014,10.9110043 19.3382078,10.9108827 19.7172025,11.2898982 C19.9101451,11.4828515 20.0065889,11.7309619 19.9996505,11.9859836 L19.9987316,17.0348666 C19.9986865,17.2829946 19.9159365,17.5311376 19.7229235,17.7241612 C19.5299105,17.9171848 19.2817816,17.9975408 19.0336672,17.997586 L13.9741903,17.9985068 C13.7260759,17.998552 13.4779792,17.9021029 13.2850364,17.7091496 C12.9060418,17.3301341 12.9061619,16.6706877 13.2852944,16.2915343 C13.4783074,16.0985107 13.7264393,16.0019713 13.9745537,16.0019262 L16.6769441,16.0014343 L13.0433276,12.4291678 C12.4432729,12.7893249 11.7409199,12.9963924 10.990224,12.9963924 C9.12804107,12.9963924 7.56333259,11.7222189 7.11968443,9.99780268 L0.999111278,9.99780268 C0.447317355,9.99780268 0,9.55029788 0,8.99827274 C0,8.4462476 0.447317355,7.99874282 0.999111278,7.99874282 L7.11968443,7.99874282 C7.56333259,6.2743266 9.12804107,5.00015305 10.990224,5.00015305 C11.7558603,5.00015305 12.4712103,5.21554471 13.0790326,5.58906277 L16.6646499,1.99829916 L13.9712266,1.99780894 C13.7231121,1.99776378 13.4749802,1.9012244 13.2819673,1.70820084 C12.9028346,1.32904741 12.9027132,0.661828513 13.2817078,0.282813063 C13.4746505,0.0898597434 13.7227474,-0.00658932157 13.9777551,0.000349535427 L19.0282649,0.00126875543 C19.2763793,0.00131391343 19.5245086,0.0840684034 19.7175216,0.277091973 C19.9105345,0.470115533 19.9902628,0.718258033 19.9903079,0.966386033 L19.9912274,6.01869876 C19.9912726,6.26682676 19.8948288,6.51493719 19.7018861,6.70789051 C19.3228914,7.08690596 18.6613675,7.08678556 18.2822349,6.70763213 C18.0892219,6.51460856 17.9926879,6.266463 17.9926427,6.01833501 L17.9921522,3.32323825 L14.4251443,6.95344456 Z" id="Shape"></path>
        </g>
    </g>
</svg>