<svg xmlns="http://www.w3.org/2000/svg" width="20" height="20"><path fill-rule="nonzero" d="M12 9.919a3.998 3.998 0 0 1 4-3.92c2.21 0 4 1.79 4 3.997a3.998 3.998 0 0 1-4 3.996 3.998 3.998 0 0 1-4-3.916.967.967 0 0 1-.28.612L7.685 14.71a.958.958 0 0 1-.686.285c-.536 0-.994-.461-.994-.997 0-.273.107-.528.283-.704l2.379-2.302H.98c-.537 0-.976-.46-.976-.996s.44-.992.976-.992h7.676L6.287 6.687a.957.957 0 0 1-.283-.686c0-.536.458-.996.994-.996.274 0 .51.1.686.285l4.027 4.024c.159.158.27.365.29.605Z"/></svg>