<?xml version="1.0" encoding="utf-8"?>
<!-- Generator: Adobe Illustrator 17.1.0, SVG Export Plug-In . SVG Version: 6.00 Build 0)  -->
<!DOCTYPE svg PUBLIC "-//W3C//DTD SVG 1.1//EN" "http://www.w3.org/Graphics/SVG/1.1/DTD/svg11.dtd">
<svg version="1.1" id="Layer_1" xmlns="http://www.w3.org/2000/svg" xmlns:xlink="http://www.w3.org/1999/xlink" x="0px" y="0px"
	 viewBox="0 0 20 20" enable-background="new 0 0 20 20" xml:space="preserve">
<g id="flows_1_">
	<g>
		<path d="M17.5,7.93c-1.21,0-2.22,0.86-2.45,2h-2.3l-4.01-4L7.99,6.68l3.26,3.25h-6.3c-0.23-1.14-1.24-2-2.45-2
			c-1.38,0-2.5,1.12-2.5,2.5s1.12,2.5,2.5,2.5c1.21,0,2.22-0.86,2.45-2h6.3l-3.26,3.25l0.75,0.75l4.01-4h2.3
			c0.23,1.14,1.24,2,2.45,2c1.38,0,2.5-1.12,2.5-2.5S18.88,7.93,17.5,7.93z"/>
	</g>
</g>
</svg>
