<?xml version="1.0" encoding="UTF-8"?>
<svg width="20px" height="20px" viewBox="0 0 20 20" version="1.1" xmlns="http://www.w3.org/2000/svg" xmlns:xlink="http://www.w3.org/1999/xlink">
    <!-- Generator: Sketch 51.3 (57544) - http://www.bohemiancoding.com/sketch -->
    <title>Artboard</title>
    <desc>Created with Sketch.</desc>
    <defs></defs>
    <g id="Artboard" stroke="none" stroke-width="1" fill="none" fill-rule="evenodd">
        <g id="flow-review" transform="translate(0.000000, 5.000000)" fill="#000000" fill-rule="nonzero">
            <path d="M6.13080153,4.00447688 C6.57230409,2.27665691 8.14234187,0.998938266 10.0114669,0.998938266 C11.880592,0.998938266 13.4506298,2.27665691 13.8921323,4.00447688 L16.6603933,4.00447688 L14.3059976,1.68735823 C14.1302288,1.51197739 14.0228146,1.26839288 14.0228146,0.995578236 C14.0228146,0.459692322 14.4851326,0.00107951638 15.0222039,0.00107951638 C15.295622,0.00107951638 15.5397453,0.108256699 15.7155141,0.283637544 L19.716817,4.32513149 C19.8925857,4.50051234 20,4.74409684 20,5.01691148 C20,5.28972613 19.8828208,5.52356725 19.707052,5.69894811 L15.7155141,9.69598333 C15.5397453,9.88110756 15.295622,9.98828474 15.0222039,9.98828474 C14.4851326,9.98828474 14.0228146,9.52710967 14.0228146,8.99122376 C14.0228146,8.7184091 14.1302288,8.4748246 14.3059976,8.29944376 L16.6506284,6.00854158 L13.8860127,6.00854158 C13.4362826,7.72436078 11.8720556,8.99043521 10.0114669,8.99043521 C8.15087829,8.99043521 6.58665127,7.72436078 6.13692118,6.00854158 L3.34937163,6.00854158 L5.72504101,8.31671967 C5.90080978,8.49210051 6.00822403,8.73568502 6.00822403,9.00849966 C6.00822403,9.54438558 5.55134416,9.99107952 5.01427291,9.99107952 C4.74085482,9.99107952 4.47672515,9.88499332 4.30095637,9.6998691 L0.292947956,5.69894811 C0.117179183,5.52356725 4.26325641e-14,5.28972613 4.26325641e-14,5.01691148 C4.26325641e-14,4.74409684 0.107414251,4.50051234 0.283183024,4.32513149 L4.31239998,0.288427051 C4.48816875,0.113046206 4.74085482,0.00477801982 5.01427291,0.00477801982 C5.55134416,0.00477801982 6.00822403,0.468551536 6.00822403,1.00443745 C6.00822403,1.2772521 5.90080978,1.5208366 5.72504101,1.69621745 L3.3396067,4.00447688 L6.13080153,4.00447688 Z" id="Shape"></path>
        </g>
    </g>
</svg>