<?xml version="1.0" encoding="UTF-8"?>
<svg width="20px" height="20px" viewBox="0 0 20 20" version="1.1" xmlns="http://www.w3.org/2000/svg" xmlns:xlink="http://www.w3.org/1999/xlink">
    <!-- Generator: Sketch 51.3 (57544) - http://www.bohemiancoding.com/sketch -->
    <title>Artboard</title>
    <desc>Created with Sketch.</desc>
    <defs></defs>
    <g id="Artboard" stroke="none" stroke-width="1" fill="none" fill-rule="evenodd">
        <g id="flow-linear" transform="translate(0.000000, 5.000000)" fill="#000000" fill-rule="nonzero">
            <path d="M5.12537081,5.99748409 L0.975953224,5.99748409 C0.439178951,5.99748409 0,5.5364561 0,5 C0,4.4635439 0.439178951,4.0073148 0.975953224,4.0073148 L5.1241422,4.0073148 C5.56563576,2.27837728 7.13352737,1 9,1 C10.8664726,1 12.4343642,2.27837728 12.8758578,4.0073148 L16.6524804,4.0073148 L14.2934094,1.68999164 C14.1177378,1.51442419 14.0079451,1.27579047 14.0079451,1.00268555 C14.0079451,0.466229444 14.4673668,0.00178527832 15.0041411,0.00178527832 C15.277408,0.00178527832 15.5262708,0.116787566 15.7019424,0.302108765 L19.707214,4.31723769 C19.8828856,4.49280514 20,4.72689507 20,5 C20,5.27310493 19.8926451,5.51694861 19.7169735,5.69251606 L15.7019424,9.69989374 C15.5262708,9.87546119 15.277408,9.99728751 15.0041411,9.99728751 C14.4673668,9.99728751 14.0079451,9.54376229 14.0079451,9.00730619 C14.0079451,8.73420126 14.1152999,8.49035758 14.2909715,8.31479013 L16.6622399,5.99748409 L12.8746292,5.99748409 C12.431462,7.72398773 10.8647453,9 9,9 C7.13525467,9 5.56853797,7.72398773 5.12537081,5.99748409 Z" id="Combined-Shape"></path>
        </g>
    </g>
</svg>