<svg xmlns="http://www.w3.org/2000/svg" width="20" height="20"><path fill-rule="nonzero" d="M6.13 9.004A4.005 4.005 0 0 1 10.012 6c1.87 0 3.44 1.278 3.881 3.005h2.768l-2.354-2.317a.97.97 0 0 1-.283-.691c0-.536.462-.995 1-.995.273 0 .517.107.693.283l4 4.041a.97.97 0 0 1 .284.692.956.956 0 0 1-.293.682l-3.991 3.997a.944.944 0 0 1-.694.292c-.537 0-1-.46-1-.997a.97.97 0 0 1 .284-.692l2.345-2.29h-2.765a4.005 4.005 0 0 1-3.875 2.981 4.005 4.005 0 0 1-3.874-2.981H3.349l2.376 2.308a.97.97 0 0 1 .283.691 1 1 0 0 1-.994.983.989.989 0 0 1-.713-.291L.293 10.699A.956.956 0 0 1 0 10.017a.97.97 0 0 1 .283-.692l4.03-4.037a.996.996 0 0 1 .701-.283c.537 0 .994.464.994 1a.97.97 0 0 1-.283.691L3.34 9.004h2.79Z"/></svg>