<?xml version="1.0" encoding="UTF-8"?>
<svg width="20px" height="20px" viewBox="0 0 20 20" version="1.1" xmlns="http://www.w3.org/2000/svg" xmlns:xlink="http://www.w3.org/1999/xlink">
    <!-- Generator: Sketch 51.3 (57544) - http://www.bohemiancoding.com/sketch -->
    <title>Artboard</title>
    <desc>Created with Sketch.</desc>
    <defs></defs>
    <g id="Artboard" stroke="none" stroke-width="1" fill="none" fill-rule="evenodd">
        <g id="flow-end" transform="translate(0.000000, 5.000000)" fill="#000000" fill-rule="nonzero">
            <path d="M12.0007305,4.91853625 C12.0418844,2.74691051 13.8166594,0.999141469 16,0.999141469 C18.209139,0.999141469 20,2.78845781 20,4.9956914 C20,7.20292497 18.209139,8.99224131 16,8.99224131 C13.8175996,8.99224131 12.0434132,7.24597733 12.0007846,5.075652 C11.982013,5.31602254 11.8791658,5.52951994 11.7208229,5.68761015 L7.68420012,9.71026008 C7.50850369,9.8856761 7.27168751,9.99462145 6.99838193,9.99462145 C6.46153171,9.99462145 6.00388938,9.53385576 6.00388938,8.99786237 C6.00388938,8.724993 6.11149724,8.46958593 6.28719368,8.2941699 L8.66565706,5.99231513 L0.979980685,5.99231513 C0.443130455,5.99231513 0.00388935892,5.53168478 0.00388935892,4.9956914 C0.00388935892,4.459698 0.443130455,4.0038624 0.979980685,4.0038624 C1.33788084,4.0038624 3.89651933,4.0038624 8.65589615,4.0038624 L6.28719368,1.68715946 C6.11149724,1.51174343 6.00388938,1.27391457 6.00388938,1.0010452 C6.00388938,0.465051808 6.46153171,0.00462144803 6.99838193,0.00462144803 C7.27168751,0.00462144803 7.50850369,0.105117426 7.68420012,0.290278781 L11.711062,4.31351798 C11.8699659,4.47216818 11.9809642,4.67864734 12.0007305,4.91853625 Z" id="Combined-Shape"></path>
        </g>
    </g>
</svg>