<?xml version="1.0" encoding="utf-8"?>
<!-- Generator: Adobe Illustrator 18.0.0, SVG Export Plug-In . SVG Version: 6.00 Build 0)  -->
<svg version="1.1" id="Layer_1" xmlns="http://www.w3.org/2000/svg" xmlns:xlink="http://www.w3.org/1999/xlink" x="0px" y="0px"
	 viewBox="0 0 20 20" enable-background="new 0 0 20 20" xml:space="preserve">
<g id="folder_open_1_">
	<g>
		<path fill-rule="evenodd" clip-rule="evenodd" d="M20,9c0-0.55-0.45-1-1-1H5C4.57,8,4.21,8.27,4.07,8.65l-0.01,0l-3,8l0.01,0
			C1.03,16.76,1,16.88,1,17c0,0.55,0.45,1,1,1h14c0.43,0,0.79-0.27,0.93-0.65l0.01,0l3-8l-0.01,0C19.97,9.24,20,9.12,20,9z
			 M3.07,7.63C3.22,7.26,3.58,7,4,7h14V5c0-0.55-0.45-1-1-1H8.41L6.71,2.29C6.53,2.11,6.28,2,6,2H1C0.45,2,0,2.45,0,3v12.31
			L3.07,7.63L3.07,7.63z"/>
	</g>
</g>
</svg>
