<?xml version="1.0" encoding="utf-8"?>
<!-- Generator: Adobe Illustrator 18.0.0, SVG Export Plug-In . SVG Version: 6.00 Build 0)  -->
<svg version="1.1" id="Layer_1" xmlns="http://www.w3.org/2000/svg" xmlns:xlink="http://www.w3.org/1999/xlink" x="0px" y="0px"
	 viewBox="0 0 20 20" enable-background="new 0 0 20 20" xml:space="preserve">
<g id="folder_open_shared_1_">
	<g>
		<path fill-rule="evenodd" clip-rule="evenodd" d="M3.07,7.63C3.22,7.26,3.58,7,4,7h7.76l0.54-0.54C11.51,5.92,11,5.02,11,4H8.41
			L6.71,2.29C6.53,2.11,6.28,2,6,2H1C0.45,2,0,2.45,0,3v12.31L3.07,7.63L3.07,7.63z M16.54,10.7l-1.42,1.42
			C14.58,12.66,13.83,13,13,13c-1.66,0-3-1.34-3-3c0-0.77,0.3-1.47,0.78-2H5C4.57,8,4.21,8.27,4.07,8.65l-0.01,0l-3,8l0.01,0
			C1.03,16.76,1,16.88,1,17c0,0.55,0.45,1,1,1h14c0.43,0,0.79-0.27,0.93-0.65l0.01,0l2.01-5.36C17.95,11.98,17.07,11.47,16.54,10.7z
			 M19,3h-5c-0.55,0-1,0.45-1,1s0.45,1,1,1h2.59l-4.29,4.29C12.11,9.47,12,9.72,12,10c0,0.55,0.45,1,1,1c0.28,0,0.53-0.11,0.71-0.29
			L18,6.41V9c0,0.55,0.45,1,1,1s1-0.45,1-1V4C20,3.45,19.55,3,19,3z"/>
	</g>
</g>
</svg>
