<svg xmlns="http://www.w3.org/2000/svg" xml:space="preserve" viewBox="0 0 20 20"><path fill-rule="evenodd" d="M3.07 7.63C3.22 7.26 3.58 7 4 7h7.76l.54-.54A2.97 2.97 0 0 1 11 4H8.41l-1.7-1.71A.997.997 0 0 0 6 2H1c-.55 0-1 .45-1 1v12.31l3.07-7.68zm13.47 3.07-1.42 1.42A2.996 2.996 0 0 1 10 10c0-.77.3-1.47.78-2H5c-.43 0-.79.27-.93.65h-.01l-3 8h.01c-.04.11-.07.23-.07.35 0 .55.45 1 1 1h14c.43 0 .79-.27.93-.65h.01l2.01-5.36c-1-.01-1.88-.52-2.41-1.29zM19 3h-5c-.55 0-1 .45-1 1s.45 1 1 1h2.59L12.3 9.29c-.19.18-.3.43-.3.71a1.003 1.003 0 0 0 1.71.71L18 6.41V9c0 .55.45 1 1 1s1-.45 1-1V4c0-.55-.45-1-1-1z" clip-rule="evenodd"/></svg>