<svg xmlns="http://www.w3.org/2000/svg" xml:space="preserve" viewBox="0 0 20 20"><path fill-rule="evenodd" d="M11.55 15.92c-1.48-.65-1.28-1.05-1.33-1.59-.01-.07-.01-.15-.01-.23.51-.45.92-1.07 1.19-1.78 0 0 .01-.04.02-.05.06-.15.11-.32.15-.48.34-.07.54-.44.61-.78.08-.14.23-.48.2-.87-.05-.5-.25-.73-.47-.82v-.09c0-.63-.06-1.55-.17-2.15-.02-.17-.06-.33-.11-.5a3.69 3.69 0 0 0-1.29-1.86C9.7 4.25 8.81 4 8.02 4c-.79 0-1.68.25-2.31.73-.61.47-1.07 1.13-1.29 1.86-.05.16-.09.33-.11.5-.12.6-.18 1.51-.18 2.14v.08c-.23.09-.44.32-.48.83-.04.39.12.73.2.87.08.35.28.72.63.78.04.17.09.33.15.48 0 .01.01.02.01.03l.01.01c.27.72.7 1.35 1.22 1.8 0 .07-.01.14-.01.21-.05.54.1.94-1.38 1.59C3 16.56.77 17.26.32 18.31-.15 19.38.04 20 .04 20h15.95s.18-.62-.27-1.67c-.46-1.06-2.69-1.75-4.17-2.41zM19 3h-3.58l1.29-1.29A1.003 1.003 0 0 0 15.29.29l-3 3c-.17.18-.28.43-.28.71 0 .28.11.53.29.71l3 3c.18.18.43.29.7.29a1.003 1.003 0 0 0 .71-1.71L15.42 5H19c.55 0 1-.45 1-1s-.45-1-1-1z" clip-rule="evenodd"/></svg>