<?xml version="1.0" encoding="utf-8"?>
<!-- Generator: Adobe Illustrator 18.0.0, SVG Export Plug-In . SVG Version: 6.00 Build 0)  -->
<svg version="1.1" id="Layer_1" xmlns="http://www.w3.org/2000/svg" xmlns:xlink="http://www.w3.org/1999/xlink" x="0px" y="0px"
	 viewBox="0 0 20 20" enable-background="new 0 0 20 20" xml:space="preserve">
<g id="follower">
	<g>
		<path fill-rule="evenodd" clip-rule="evenodd" d="M11.54,15.92c-1.48-0.65-1.28-1.05-1.33-1.59c-0.01-0.07-0.01-0.15-0.01-0.23
			c0.51-0.45,0.92-1.07,1.19-1.78c0,0,0.01-0.04,0.02-0.05c0.06-0.15,0.11-0.32,0.15-0.48c0.34-0.07,0.54-0.44,0.61-0.78
			c0.08-0.14,0.23-0.48,0.2-0.87c-0.05-0.5-0.25-0.73-0.47-0.82c0-0.03,0-0.06,0-0.09c0-0.63-0.06-1.55-0.17-2.15
			c-0.02-0.17-0.06-0.33-0.11-0.5c-0.22-0.73-0.68-1.4-1.29-1.86C9.69,4.25,8.8,4,8.01,4C7.21,4,6.32,4.25,5.69,4.73
			C5.08,5.2,4.63,5.86,4.41,6.59C4.36,6.76,4.32,6.92,4.3,7.09C4.18,7.69,4.12,8.6,4.12,9.23c0,0.03,0,0.05,0,0.08
			C3.89,9.4,3.68,9.63,3.63,10.14c-0.04,0.39,0.12,0.73,0.2,0.87c0.08,0.35,0.28,0.72,0.63,0.78c0.04,0.17,0.09,0.33,0.15,0.48
			c0,0.01,0.01,0.02,0.01,0.03l0.01,0.01c0.27,0.72,0.7,1.35,1.22,1.8c0,0.07-0.01,0.14-0.01,0.21c-0.05,0.54,0.1,0.94-1.38,1.59
			c-1.48,0.65-3.71,1.35-4.16,2.4C-0.16,19.38,0.02,20,0.02,20h15.95c0,0,0.18-0.62-0.27-1.67C15.24,17.27,13.02,16.58,11.54,15.92z
			 M19.69,3.29l-3-3C16.52,0.11,16.27,0,15.99,0c-0.55,0-1,0.45-1,1c0,0.28,0.11,0.53,0.29,0.71L16.58,3h-3.58c-0.55,0-1,0.45-1,1
			c0,0.55,0.45,1,1,1h3.58l-1.29,1.29C15.1,6.47,14.99,6.72,14.99,7c0,0.55,0.45,1,1,1c0.28,0,0.53-0.11,0.71-0.29l3-3
			c0.18-0.18,0.29-0.43,0.29-0.71C19.99,3.72,19.88,3.47,19.69,3.29z"/>
	</g>
</g>
</svg>
