<svg xmlns="http://www.w3.org/2000/svg" xml:space="preserve" viewBox="0 0 20 20"><path fill-rule="evenodd" d="M11.54 15.92c-1.48-.65-1.28-1.05-1.33-1.59-.01-.07-.01-.15-.01-.23.51-.45.92-1.07 1.19-1.78 0 0 .01-.04.02-.05.06-.15.11-.32.15-.48.34-.07.54-.44.61-.78.08-.14.23-.48.2-.87-.05-.5-.25-.73-.47-.82v-.09c0-.63-.06-1.55-.17-2.15-.02-.17-.06-.33-.11-.5a3.69 3.69 0 0 0-1.29-1.86C9.69 4.25 8.8 4 8.01 4c-.8 0-1.69.25-2.32.73-.61.47-1.06 1.13-1.28 1.86-.05.17-.09.33-.11.5-.12.6-.18 1.51-.18 2.14v.08c-.23.09-.44.32-.49.83-.04.39.12.73.2.87.08.35.28.72.63.78.04.17.09.33.15.48 0 .01.01.02.01.03l.01.01c.27.72.7 1.35 1.22 1.8 0 .07-.01.14-.01.21-.05.54.1.94-1.38 1.59-1.48.65-3.71 1.35-4.16 2.4C-.16 19.38.02 20 .02 20h15.95s.18-.62-.27-1.67c-.46-1.06-2.68-1.75-4.16-2.41zm8.15-12.63-3-3a.956.956 0 0 0-.7-.29 1.003 1.003 0 0 0-.71 1.71L16.58 3H13c-.55 0-1 .45-1 1s.45 1 1 1h3.58l-1.29 1.29c-.19.18-.3.43-.3.71a1.003 1.003 0 0 0 1.71.71l3-3c.18-.18.29-.43.29-.71 0-.28-.11-.53-.3-.71z" clip-rule="evenodd"/></svg>