<?xml version="1.0" encoding="utf-8"?>
<!-- Generator: Adobe Illustrator 18.0.0, SVG Export Plug-In . SVG Version: 6.00 Build 0)  -->
<svg version="1.1" id="Layer_1" xmlns="http://www.w3.org/2000/svg" xmlns:xlink="http://www.w3.org/1999/xlink" x="0px" y="0px"
	 viewBox="0 0 20 20" enable-background="new 0 0 20 20" xml:space="preserve">
<g id="following">
	<g>
		<path fill-rule="evenodd" clip-rule="evenodd" d="M11.55,15.92c-1.48-0.65-1.28-1.05-1.33-1.59c-0.01-0.07-0.01-0.15-0.01-0.23
			c0.51-0.45,0.92-1.07,1.19-1.78c0,0,0.01-0.04,0.02-0.05c0.06-0.15,0.11-0.32,0.15-0.48c0.34-0.07,0.54-0.44,0.61-0.78
			c0.08-0.14,0.23-0.48,0.2-0.87c-0.05-0.5-0.25-0.73-0.47-0.82c0-0.03,0-0.06,0-0.09c0-0.63-0.06-1.55-0.17-2.15
			c-0.02-0.17-0.06-0.33-0.11-0.5c-0.22-0.73-0.68-1.4-1.29-1.86C9.7,4.25,8.81,4,8.02,4C7.23,4,6.34,4.25,5.71,4.73
			C5.1,5.2,4.64,5.86,4.42,6.59c-0.05,0.16-0.09,0.33-0.11,0.5C4.19,7.69,4.13,8.6,4.13,9.23c0,0.03,0,0.05,0,0.08
			C3.9,9.4,3.69,9.63,3.65,10.14c-0.04,0.39,0.12,0.73,0.2,0.87c0.08,0.35,0.28,0.72,0.63,0.78c0.04,0.17,0.09,0.33,0.15,0.48
			c0,0.01,0.01,0.02,0.01,0.03l0.01,0.01c0.27,0.72,0.7,1.35,1.22,1.8c0,0.07-0.01,0.14-0.01,0.21c-0.05,0.54,0.1,0.94-1.38,1.59
			c-1.48,0.65-3.71,1.35-4.16,2.4C-0.15,19.38,0.04,20,0.04,20h15.95c0,0,0.18-0.62-0.27-1.67C15.26,17.27,13.03,16.58,11.55,15.92z
			 M19,3h-3.58l1.29-1.29C16.89,1.53,17,1.28,17,1c0-0.55-0.45-1-1-1c-0.28,0-0.53,0.11-0.71,0.29l-3,3
			C12.12,3.47,12.01,3.72,12.01,4c0,0.28,0.11,0.53,0.29,0.71l3,3C15.48,7.89,15.73,8,16,8c0.55,0,1-0.45,1-1
			c0-0.28-0.11-0.53-0.29-0.71L15.42,5H19c0.55,0,1-0.45,1-1C20,3.45,19.55,3,19,3z"/>
	</g>
</g>
</svg>
