<?xml version="1.0" encoding="utf-8"?>
<!-- Generator: Adobe Illustrator 18.1.0, SVG Export Plug-In . SVG Version: 6.00 Build 0)  -->
<svg version="1.1" id="Layer_1" xmlns="http://www.w3.org/2000/svg" xmlns:xlink="http://www.w3.org/1999/xlink" x="0px" y="0px"
	 viewBox="0 0 20 20" enable-background="new 0 0 20 20" xml:space="preserve">
<g id="Ellipse_3">
	<g>
		<path fill-rule="evenodd" clip-rule="evenodd" d="M17.93,18.64L17.93,18.64l-7-18l0,0C10.78,0.27,10.42,0,10,0
			S9.22,0.27,9.07,0.64l0,0l-7,18l0,0C2.03,18.75,2,18.87,2,19c0,0.55,0.45,1,1,1c0.42,0,0.78-0.27,0.93-0.64l0,0L6.41,13h7.19
			l2.47,6.36l0,0C16.22,19.73,16.58,20,17,20c0.55,0,1-0.45,1-1C18,18.87,17.97,18.75,17.93,18.64z M7.18,11L10,3.76L12.82,11H7.18z
			"/>
	</g>
</g>
</svg>
