<svg xmlns="http://www.w3.org/2000/svg" xml:space="preserve" viewBox="0 0 20 20"><path fill-rule="evenodd" d="M16.71 11.29a1.003 1.003 0 0 0-1.42 1.42l1.3 1.29h-2.17l-8-8h10.17L15.3 7.29c-.19.18-.3.43-.3.71a1.003 1.003 0 0 0 1.71.71l3-3c.18-.18.29-.43.29-.71 0-.28-.11-.53-.29-.71l-3-3a1.003 1.003 0 0 0-1.42 1.42L16.59 4H1c-.55 0-1 .45-1 1s.45 1 1 1h2.59l9.71 9.71c.17.18.42.29.7.29h2.59l-1.29 1.29c-.19.18-.3.43-.3.71a1.003 1.003 0 0 0 1.71.71l3-3c.18-.18.29-.43.29-.71 0-.28-.11-.53-.29-.71l-3-3z" clip-rule="evenodd"/></svg>