<?xml version="1.0" encoding="utf-8"?>
<!-- Generator: Adobe Illustrator 18.0.0, SVG Export Plug-In . SVG Version: 6.00 Build 0)  -->
<svg version="1.1" id="Layer_1" xmlns="http://www.w3.org/2000/svg" xmlns:xlink="http://www.w3.org/1999/xlink" x="0px" y="0px"
	 viewBox="0 0 20 20" enable-background="new 0 0 20 20" xml:space="preserve">
<title>Artboard 2</title>
<desc>Created with Sketch.</desc>
<g id="Create-Triggers">
	<g id="Artboard-2">
		<g id="Group" transform="translate(0.000000, 1.000000)">
			<path id="Combined-Shape" d="M2,12v4h4v-4H2z M1,10h6c0.55,0,1,0.45,1,1v6c0,0.55-0.45,1-1,1H1c-0.55,0-1-0.45-1-1v-6
				C0,10.45,0.45,10,1,10z M12,3h7l0,0c0.55,0,1,0.45,1,1l0,0c0,0.55-0.45,1-1,1h-7c-0.55,0-1-0.45-1-1S11.45,3,12,3z M8,0
				c0.55,0,1,0.45,1,1c0,0.28-0.11,0.53-0.29,0.71l-5,6C3.53,7.89,3.28,8,3,8S2.47,7.89,2.29,7.71l-2-2C0.11,5.53,0,5.28,0,5
				c0-0.55,0.45-1,1-1c0.28,0,0.53,0.11,0.71,0.29L3,5.59l4.29-5.3C7.47,0.11,7.72,0,8,0z M12,13h7l0,0c0.55,0,1,0.45,1,1l0,0
				c0,0.55-0.45,1-1,1h-7c-0.55,0-1-0.45-1-1S11.45,13,12,13z"/>
		</g>
	</g>
</g>
</svg>
