<?xml version="1.0" encoding="utf-8"?>
<!-- Generator: Adobe Illustrator 18.1.0, SVG Export Plug-In . SVG Version: 6.00 Build 0)  -->
<svg version="1.1" id="Layer_1" xmlns="http://www.w3.org/2000/svg" xmlns:xlink="http://www.w3.org/1999/xlink" x="0px" y="0px"
	 viewBox="0 0 20 20" enable-background="new 0 0 20 20" xml:space="preserve">
<g id="fullscreen">
	<g>
		<path fill-rule="evenodd" clip-rule="evenodd" d="M3.41,2H6c0.55,0,1-0.45,1-1S6.55,0,6,0H1C0.45,0,0,0.45,0,1v5
			c0,0.55,0.45,1,1,1s1-0.45,1-1V3.41l5.29,5.29C7.47,8.89,7.72,9,8,9c0.55,0,1-0.45,1-1c0-0.28-0.11-0.53-0.29-0.71L3.41,2z M8,11
			c-0.28,0-0.53,0.11-0.71,0.29L2,16.59V14c0-0.55-0.45-1-1-1s-1,0.45-1,1v5c0,0.55,0.45,1,1,1h5c0.55,0,1-0.45,1-1s-0.45-1-1-1
			H3.41l5.29-5.29C8.89,12.53,9,12.28,9,12C9,11.45,8.55,11,8,11z M19,0h-5c-0.55,0-1,0.45-1,1s0.45,1,1,1h2.59l-5.29,5.29
			C11.11,7.47,11,7.72,11,8c0,0.55,0.45,1,1,1c0.28,0,0.53-0.11,0.71-0.29L18,3.41V6c0,0.55,0.45,1,1,1s1-0.45,1-1V1
			C20,0.45,19.55,0,19,0z M19,13c-0.55,0-1,0.45-1,1v2.59l-5.29-5.29C12.53,11.11,12.28,11,12,11c-0.55,0-1,0.45-1,1
			c0,0.28,0.11,0.53,0.29,0.71L16.59,18H14c-0.55,0-1,0.45-1,1s0.45,1,1,1h5c0.55,0,1-0.45,1-1v-5C20,13.45,19.55,13,19,13z"/>
	</g>
</g>
</svg>
