<svg xmlns="http://www.w3.org/2000/svg" xml:space="preserve" viewBox="0 0 20 20"><path fill-rule="evenodd" d="M15 16h2c.55 0 1-.45 1-1v-5h-4v5c0 .55.45 1 1 1zM12 2c0-.55-.45-1-1-1H9c-.55 0-1 .45-1 1v4h4V2zm6 4h-4v3h4V6zm0-4c0-.55-.45-1-1-1h-2c-.55 0-1 .45-1 1v3h4V2zm-6 5H8v5h4V7zm-9 9h2c.55 0 1-.45 1-1v-3H2v3c0 .55.45 1 1 1zm6 0h2c.55 0 1-.45 1-1v-2H8v2c0 .55.45 1 1 1zm10 1H1c-.55 0-1 .45-1 1s.45 1 1 1h18c.55 0 1-.45 1-1s-.45-1-1-1zM6 2c0-.55-.45-1-1-1H3c-.55 0-1 .45-1 1v3h4V2zm0 4H2v5h4V6z" clip-rule="evenodd"/></svg>