<svg xmlns="http://www.w3.org/2000/svg" xml:space="preserve" viewBox="0 0 20 20"><path d="M10.14 5.82H8.73c.4-1.66.94-2.87 1.6-3.64.4-.48.8-.72 1.18-.72.08 0 .14.02.19.07.05.05.07.1.07.18 0 .07-.05.19-.16.37s-.16.36-.16.52c0 .23.08.43.25.59a.9.9 0 0 0 .64.25c.28 0 .51-.1.7-.3.19-.2.28-.47.28-.81 0-.39-.14-.7-.42-.94-.28-.24-.74-.36-1.36-.36-.97 0-1.86.29-2.65.87-.79.56-1.54 1.52-2.26 2.85-.24.46-.48.75-.7.88-.22.13-.57.19-1.06.19l-.32 1.15H5.9l-1.99 7.85c-.33 1.29-.56 2.09-.67 2.39-.17.44-.43.81-.77 1.12a.74.74 0 0 1-.5.19c-.05 0-.1-.02-.14-.05l-.04-.07c0-.03.05-.1.15-.2.1-.1.15-.26.15-.47 0-.23-.08-.42-.23-.57-.16-.15-.38-.23-.67-.23-.35 0-.63.1-.85.29-.21.2-.32.43-.32.7 0 .29.13.54.39.75.25.22.65.33 1.2.33.88 0 1.66-.23 2.33-.69.68-.46 1.27-1.17 1.78-2.14.51-.96 1.03-2.52 1.56-4.66l1.14-4.54H9.8l.34-1.15zm6.8 1.95c.25-.2.51-.29.78-.29.1 0 .29.04.56.11.27.08.51.11.72.11.29 0 .52-.1.72-.3.18-.19.28-.45.28-.77 0-.33-.1-.6-.29-.8-.19-.2-.47-.29-.82-.29-.32 0-.62.08-.9.23-.28.15-.64.49-1.08 1-.33.38-.81 1.05-1.44 2a9.712 9.712 0 0 0-1.31-3.22l-3.4.59-.07.37c.25-.05.47-.08.64-.08.34 0 .62.15.84.44.35.46.84 1.85 1.46 4.19-.49.66-.82 1.09-1 1.3-.3.33-.55.54-.74.64-.15.08-.32.12-.51.12-.14 0-.38-.08-.7-.24-.22-.1-.42-.16-.59-.16-.33 0-.6.11-.82.32-.21.22-.32.49-.32.83 0 .31.1.57.3.77.2.2.47.29.8.29.32 0 .63-.07.92-.21.29-.14.64-.43 1.08-.88.43-.45 1.03-1.16 1.79-2.14.29.93.55 1.61.76 2.03.21.42.46.73.74.91.28.19.62.28 1.04.28.4 0 .81-.15 1.23-.44.55-.38 1.1-1.04 1.68-1.97l-.35-.21c-.39.55-.68.89-.87 1.03-.12.09-.27.13-.44.13-.2 0-.4-.13-.59-.38-.33-.43-.77-1.63-1.33-3.6.47-.86.89-1.44 1.23-1.71z"/></svg>