<?xml version="1.0" encoding="utf-8"?>
<!-- Generator: Adobe Illustrator 18.1.0, SVG Export Plug-In . SVG Version: 6.00 Build 0)  -->
<svg version="1.1" id="Layer_1" xmlns="http://www.w3.org/2000/svg" xmlns:xlink="http://www.w3.org/1999/xlink" x="0px" y="0px"
	 viewBox="0 0 20 20" enable-background="new 0 0 20 20" xml:space="preserve">
<g id="functions">
	<g>
		<path d="M10.14,5.82H8.73c0.4-1.66,0.94-2.87,1.6-3.64c0.4-0.48,0.8-0.72,1.18-0.72c0.08,0,0.14,0.02,0.19,0.07
			c0.05,0.05,0.07,0.1,0.07,0.18c0,0.07-0.05,0.19-0.16,0.37c-0.11,0.18-0.16,0.36-0.16,0.52c0,0.23,0.08,0.43,0.25,0.59
			c0.17,0.16,0.38,0.25,0.64,0.25c0.28,0,0.51-0.1,0.7-0.3c0.19-0.2,0.28-0.47,0.28-0.81c0-0.39-0.14-0.7-0.42-0.94
			c-0.28-0.24-0.74-0.36-1.36-0.36c-0.97,0-1.86,0.29-2.65,0.87C8.1,2.46,7.35,3.42,6.63,4.75C6.39,5.21,6.15,5.5,5.93,5.63
			C5.71,5.76,5.36,5.82,4.87,5.82L4.55,6.97H5.9l-1.99,7.85c-0.33,1.29-0.56,2.09-0.67,2.39c-0.17,0.44-0.43,0.81-0.77,1.12
			c-0.14,0.12-0.3,0.19-0.5,0.19c-0.05,0-0.1-0.02-0.14-0.05L1.79,18.4c0-0.03,0.05-0.1,0.15-0.2c0.1-0.1,0.15-0.26,0.15-0.47
			c0-0.23-0.08-0.42-0.23-0.57c-0.16-0.15-0.38-0.23-0.67-0.23c-0.35,0-0.63,0.1-0.85,0.29c-0.21,0.2-0.32,0.43-0.32,0.7
			c0,0.29,0.13,0.54,0.39,0.75C0.66,18.89,1.06,19,1.61,19c0.88,0,1.66-0.23,2.33-0.69c0.68-0.46,1.27-1.17,1.78-2.14
			c0.51-0.96,1.03-2.52,1.56-4.66l1.14-4.54H9.8L10.14,5.82z M16.94,7.77c0.25-0.2,0.51-0.29,0.78-0.29c0.1,0,0.29,0.04,0.56,0.11
			c0.27,0.08,0.51,0.11,0.72,0.11c0.29,0,0.52-0.1,0.72-0.3C19.9,7.21,20,6.95,20,6.63c0-0.33-0.1-0.6-0.29-0.8
			c-0.19-0.2-0.47-0.29-0.82-0.29c-0.32,0-0.62,0.08-0.9,0.23c-0.28,0.15-0.64,0.49-1.08,1c-0.33,0.38-0.81,1.05-1.44,2
			c-0.25-1.17-0.69-2.25-1.31-3.22l-3.4,0.59l-0.07,0.37c0.25-0.05,0.47-0.08,0.64-0.08c0.34,0,0.62,0.15,0.84,0.44
			c0.35,0.46,0.84,1.85,1.46,4.19c-0.49,0.66-0.82,1.09-1,1.3c-0.3,0.33-0.55,0.54-0.74,0.64c-0.15,0.08-0.32,0.12-0.51,0.12
			c-0.14,0-0.38-0.08-0.7-0.24c-0.22-0.1-0.42-0.16-0.59-0.16c-0.33,0-0.6,0.11-0.82,0.32c-0.21,0.22-0.32,0.49-0.32,0.83
			c0,0.31,0.1,0.57,0.3,0.77c0.2,0.2,0.47,0.29,0.8,0.29c0.32,0,0.63-0.07,0.92-0.21c0.29-0.14,0.64-0.43,1.08-0.88
			c0.43-0.45,1.03-1.16,1.79-2.14c0.29,0.93,0.55,1.61,0.76,2.03c0.21,0.42,0.46,0.73,0.74,0.91c0.28,0.19,0.62,0.28,1.04,0.28
			c0.4,0,0.81-0.15,1.23-0.44c0.55-0.38,1.1-1.04,1.68-1.97l-0.35-0.21c-0.39,0.55-0.68,0.89-0.87,1.03
			c-0.12,0.09-0.27,0.13-0.44,0.13c-0.2,0-0.4-0.13-0.59-0.38c-0.33-0.43-0.77-1.63-1.33-3.6C16.18,8.62,16.6,8.04,16.94,7.77z"/>
	</g>
</g>
</svg>
