<svg xmlns="http://www.w3.org/2000/svg" xml:space="preserve" viewBox="0 0 20 20"><path fill-rule="evenodd" d="M8 18.88c-3.79 0-6.88-3.09-6.88-6.88 0-.61.08-1.22.23-1.79.03.01.06-.01.1-.01h.09v.55c0 .23.21.42.44.42.04 0 .09-.01.12-.02l.9.88c.09.09.23.09.32 0s.09-.23 0-.32l-.86-.9c0-.02.05-.04.05-.07v-.13c0-.18.1-.25.29-.41h.53c.1 0 .19-.01.27-.05.01-.01.02 0 .03-.01.02-.01.03-.02.05-.04.01-.01.02-.01.02-.02l.02-.02 1.13-1.13c-.16-.32-.3-.65-.42-.99h-.64v-.53c0-.01.06.06.06-.1h.38c-.04-.16-.08-.32-.1-.48h-.71c.2-.16.42-.31.64-.45C4.02 6.09 4 5.8 4 5.5c0-.14.01-.28.02-.43C1.62 6.46 0 9.04 0 12c0 4.41 3.59 8 8 8 3.87 0 7.09-2.77 7.82-6.44l-.97-1.1c-.26 3.57-3.23 6.42-6.85 6.42zm-2.12-3.67v-.35h.15c.29 0 .49-.23.49-.53v-.68c0-.01.01-.01 0-.02L4.71 11.8h-.77c-.29 0-.47.24-.47.53v2c0 .29.18.53.47.53h.33v2.02c0 .28.28.51.56.51s.56-.23.56-.51v-1.22h-.01c.29 0 .5-.16.5-.45zm13.83-2.92-3.68-3.68c.14-.21.27-.42.38-.65.02-.04.04-.07.05-.11.11-.22.2-.45.28-.69v-.01c.07-.24.13-.48.17-.73l.03-.17c.04-.24.06-.49.06-.75C17 2.46 14.54 0 11.5 0S6 2.46 6 5.5 8.46 11 11.5 11c.26 0 .51-.02.76-.06l.17-.03c.25-.04.49-.1.73-.17h.01c.24-.08.47-.17.69-.28.04-.02.07-.04.11-.05.23-.11.44-.24.65-.38l3.68 3.68c.17.18.42.29.7.29a1.003 1.003 0 0 0 .71-1.71zM11.5 9.5c-2.21 0-4-1.79-4-4s1.79-4 4-4 4 1.79 4 4-1.79 4-4 4zm1.93 5.33v-.65c0-.11-.13-.21-.24-.21-.11 0-.24.09-.24.21v.65c0 .11.13.21.24.21.11 0 .24-.1.24-.21zm-2.41.67h.83c.29 0 .46-.21.46-.5v-1.86l.23-.22c-.34.05-.69.08-1.04.08-.36 0-.7-.03-1.05-.08.03.05.06.1.08.16V15c.01.29.2.5.49.5z" clip-rule="evenodd"/></svg>