<?xml version="1.0" encoding="utf-8"?>
<!-- Generator: Adobe Illustrator 17.1.0, SVG Export Plug-In . SVG Version: 6.00 Build 0)  -->
<!DOCTYPE svg PUBLIC "-//W3C//DTD SVG 1.1//EN" "http://www.w3.org/Graphics/SVG/1.1/DTD/svg11.dtd">
<svg version="1.1" id="Layer_1" xmlns="http://www.w3.org/2000/svg" xmlns:xlink="http://www.w3.org/1999/xlink" x="0px" y="0px"
	 viewBox="0 0 20 20" enable-background="new 0 0 20 20" xml:space="preserve">
<g id="geosearch_2_">
	<g>
		<path fill-rule="evenodd" clip-rule="evenodd" d="M8,18.88c-3.79,0-6.88-3.09-6.88-6.88c0-0.61,0.08-1.22,0.23-1.79
			c0.03,0.01,0.06-0.01,0.1-0.01h0.09v0.55c0,0.23,0.21,0.42,0.44,0.42c0.04,0,0.09-0.01,0.12-0.02L3,12.03
			c0.09,0.09,0.23,0.09,0.32,0c0.09-0.09,0.09-0.23,0-0.32l-0.86-0.9c0-0.02,0.05-0.04,0.05-0.07v-0.13c0-0.18,0.1-0.25,0.29-0.41
			h0.53c0.1,0,0.19-0.01,0.27-0.05c0.01-0.01,0.02,0,0.03-0.01c0.02-0.01,0.03-0.02,0.05-0.04c0.01-0.01,0.02-0.01,0.02-0.02
			l0.02-0.02l1.13-1.13c-0.16-0.32-0.3-0.65-0.42-0.99H3.79V7.41c0-0.01,0.06,0.06,0.06-0.1h0.38c-0.04-0.16-0.08-0.32-0.1-0.48
			H3.42c0.2-0.16,0.42-0.31,0.64-0.45C4.02,6.09,4,5.8,4,5.5c0-0.14,0.01-0.28,0.02-0.43C1.62,6.46,0,9.04,0,12c0,4.41,3.59,8,8,8
			c3.87,0,7.09-2.77,7.82-6.44l-0.97-1.1C14.59,16.03,11.62,18.88,8,18.88z M5.88,15.21v-0.35h0.15c0.29,0,0.49-0.23,0.49-0.53
			v-0.68c0-0.01,0.01-0.01,0-0.02l-1.81-1.83H3.94c-0.29,0-0.47,0.24-0.47,0.53v2c0,0.29,0.18,0.53,0.47,0.53h0.33v2.02
			c0,0.28,0.28,0.51,0.56,0.51c0.28,0,0.56-0.23,0.56-0.51v-1.22H5.38C5.67,15.66,5.88,15.5,5.88,15.21z M19.71,12.29l-3.68-3.68
			c0.14-0.21,0.27-0.42,0.38-0.65c0.02-0.04,0.04-0.07,0.05-0.11c0.11-0.22,0.2-0.45,0.28-0.69c0,0,0,0,0-0.01
			c0.07-0.24,0.13-0.48,0.17-0.73c0.01-0.06,0.02-0.11,0.03-0.17C16.98,6.01,17,5.76,17,5.5C17,2.46,14.54,0,11.5,0
			C8.46,0,6,2.46,6,5.5C6,8.54,8.46,11,11.5,11c0.26,0,0.51-0.02,0.76-0.06c0.06-0.01,0.11-0.02,0.17-0.03
			c0.25-0.04,0.49-0.1,0.73-0.17c0,0,0,0,0.01,0c0.24-0.08,0.47-0.17,0.69-0.28c0.04-0.02,0.07-0.04,0.11-0.05
			c0.23-0.11,0.44-0.24,0.65-0.38l3.68,3.68C18.47,13.89,18.72,14,19,14c0.55,0,1-0.45,1-1C20,12.72,19.89,12.47,19.71,12.29z
			 M11.5,9.5c-2.21,0-4-1.79-4-4c0-2.21,1.79-4,4-4c2.21,0,4,1.79,4,4C15.5,7.71,13.71,9.5,11.5,9.5z M13.43,14.83v-0.65
			c0-0.11-0.13-0.21-0.24-0.21c-0.11,0-0.24,0.09-0.24,0.21v0.65c0,0.11,0.13,0.21,0.24,0.21C13.3,15.04,13.43,14.94,13.43,14.83z
			 M11.02,15.5h0.83c0.29,0,0.46-0.21,0.46-0.5v-1.86l0.23-0.22C12.2,12.97,11.85,13,11.5,13c-0.36,0-0.7-0.03-1.05-0.08
			c0.03,0.05,0.06,0.1,0.08,0.16V15C10.54,15.29,10.73,15.5,11.02,15.5z"/>
	</g>
</g>
</svg>
