<?xml version="1.0" encoding="utf-8"?>
<!-- Generator: Adobe Illustrator 18.0.0, SVG Export Plug-In . SVG Version: 6.00 Build 0)  -->
<svg version="1.1" id="Layer_1" xmlns="http://www.w3.org/2000/svg" xmlns:xlink="http://www.w3.org/1999/xlink" x="0px" y="0px"
	 viewBox="0 0 20 20" enable-background="new 0 0 20 20" xml:space="preserve">
<g id="git_repo_1_">
	<g>
		<path fill-rule="evenodd" clip-rule="evenodd" d="M7,3H5v2h2V3z M7,9H5v2h2V9z M7,6H5v2h2V6z M19,0H1C0.45,0,0,0.45,0,1v16
			c0,0.55,0.45,1,1,1h4v2l2-1l2,1v-2h10c0.55,0,1-0.45,1-1V1C20,0.45,19.55,0,19,0z M18,16H9v-1H5v1H2v-2h16V16z M18,13H4V2h14V13z"
			/>
	</g>
</g>
</svg>
