<svg xmlns="http://www.w3.org/2000/svg" xml:space="preserve" viewBox="0 0 20 20"><path fill-rule="evenodd" d="M15 8c-1.3 0-2.4.84-2.82 2H11c-2.49 0-4.54-1.83-4.92-4.21A2.995 2.995 0 0 0 5 0C3.34 0 2 1.34 2 3c0 1.3.84 2.4 2 2.81v8.37C2.84 14.6 2 15.7 2 17c0 1.66 1.34 3 3 3s3-1.34 3-3c0-1.3-.84-2.4-2-2.82V9.86C7.27 11.17 9.03 12 11 12h1.18A2.996 2.996 0 0 0 18 11c0-1.66-1.34-3-3-3zM5 18c-.55 0-1-.45-1-1s.45-1 1-1 1 .45 1 1-.45 1-1 1zM5 4c-.55 0-1-.45-1-1s.45-1 1-1 1 .45 1 1-.45 1-1 1zm10 8c-.55 0-1-.45-1-1s.45-1 1-1 1 .45 1 1-.45 1-1 1z" clip-rule="evenodd"/></svg>