<?xml version="1.0" encoding="utf-8"?>
<!-- Generator: Adobe Illustrator 18.0.0, SVG Export Plug-In . SVG Version: 6.00 Build 0)  -->
<svg version="1.1" id="Layer_1" xmlns="http://www.w3.org/2000/svg" xmlns:xlink="http://www.w3.org/1999/xlink" x="0px" y="0px"
	 viewBox="0 0 20 20" enable-background="new 0 0 20 20" xml:space="preserve">
<g id="GIT_MERGE_2_">
	<g>
		<path fill-rule="evenodd" clip-rule="evenodd" d="M15,8c-1.3,0-2.4,0.84-2.82,2H11c-2.49,0-4.54-1.83-4.92-4.21
			C7.2,5.36,8,4.27,8,3c0-1.66-1.34-3-3-3S2,1.34,2,3c0,1.3,0.84,2.4,2,2.81v8.37C2.84,14.6,2,15.7,2,17c0,1.66,1.34,3,3,3
			s3-1.34,3-3c0-1.3-0.84-2.4-2-2.82V9.86C7.27,11.17,9.03,12,11,12h1.18c0.41,1.16,1.51,2,2.82,2c1.66,0,3-1.34,3-3S16.66,8,15,8z
			 M5,18c-0.55,0-1-0.45-1-1c0-0.55,0.45-1,1-1s1,0.45,1,1C6,17.55,5.55,18,5,18z M5,4C4.45,4,4,3.55,4,3c0-0.55,0.45-1,1-1
			s1,0.45,1,1C6,3.55,5.55,4,5,4z M15,12c-0.55,0-1-0.45-1-1c0-0.55,0.45-1,1-1s1,0.45,1,1C16,11.55,15.55,12,15,12z"/>
	</g>
</g>
</svg>
