<?xml version="1.0" encoding="utf-8"?>
<!-- Generator: Adobe Illustrator 18.0.0, SVG Export Plug-In . SVG Version: 6.00 Build 0)  -->
<svg version="1.1" id="Layer_1" xmlns="http://www.w3.org/2000/svg" xmlns:xlink="http://www.w3.org/1999/xlink" x="0px" y="0px"
	 viewBox="0 0 20 20" enable-background="new 0 0 20 20" xml:space="preserve">
<g id="git_new_branch_1_">
	<g>
		<path fill-rule="evenodd" clip-rule="evenodd" d="M17,3h-1V2c0-0.55-0.45-1-1-1s-1,0.45-1,1v1h-1c-0.55,0-1,0.45-1,1
			c0,0.55,0.45,1,1,1h1v1c0,0.55,0.45,1,1,1s1-0.45,1-1V5h1c0.55,0,1-0.45,1-1C18,3.45,17.55,3,17,3z M14,7.86V9c0,1.1-0.9,2-2,2H8
			c-0.73,0-1.41,0.21-2,0.55V5.82C7.16,5.4,8,4.3,8,3c0-1.66-1.34-3-3-3S2,1.34,2,3c0,1.3,0.84,2.4,2,2.82v8.37
			C2.84,14.6,2,15.7,2,17c0,1.66,1.34,3,3,3s3-1.34,3-3c0-1.25-0.77-2.3-1.85-2.75C6.45,13.52,7.16,13,8,13h4c2.21,0,4-1.79,4-4
			V7.86C15.68,7.94,15.35,8,15,8S14.32,7.94,14,7.86z M5,2c0.55,0,1,0.45,1,1c0,0.55-0.45,1-1,1S4,3.55,4,3C4,2.45,4.45,2,5,2z
			 M5,18c-0.55,0-1-0.45-1-1s0.45-1,1-1s1,0.45,1,1S5.55,18,5,18z"/>
	</g>
</g>
</svg>
