<?xml version="1.0" encoding="utf-8"?>
<!-- Generator: Adobe Illustrator 18.0.0, SVG Export Plug-In . SVG Version: 6.00 Build 0)  -->
<svg version="1.1" id="Layer_1" xmlns="http://www.w3.org/2000/svg" xmlns:xlink="http://www.w3.org/1999/xlink" x="0px" y="0px"
	 viewBox="0 0 20 20" enable-background="new 0 0 20 20" xml:space="preserve">
<g id="GIT_PULL_1_">
	<g>
		<path fill-rule="evenodd" clip-rule="evenodd" d="M17,14.18V7c0-2.21-1.79-4-4-4h-2.59l1.29-1.29C11.89,1.53,12,1.28,12,1
			c0-0.55-0.45-1-1-1c-0.28,0-0.53,0.11-0.71,0.29l-3,3C7.11,3.47,7,3.72,7,4c0,0.28,0.11,0.53,0.29,0.71l3,3
			C10.47,7.89,10.72,8,11,8c0.55,0,1-0.45,1-1c0-0.28-0.11-0.53-0.29-0.71L10.41,5H13c1.1,0,2,0.9,2,2v7.18
			c-1.16,0.41-2,1.51-2,2.82c0,1.66,1.34,3,3,3s3-1.34,3-3C19,15.7,18.16,14.6,17,14.18z M16,18c-0.55,0-1-0.45-1-1
			c0-0.55,0.45-1,1-1s1,0.45,1,1C17,17.55,16.55,18,16,18z M4,1C2.34,1,1,2.34,1,4c0,1.3,0.84,2.4,2,2.82v7.37
			C1.84,14.6,1,15.7,1,17c0,1.66,1.34,3,3,3s3-1.34,3-3c0-1.3-0.84-2.4-2-2.82V6.82C6.16,6.4,7,5.3,7,4C7,2.34,5.66,1,4,1z M4,18
			c-0.55,0-1-0.45-1-1c0-0.55,0.45-1,1-1s1,0.45,1,1C5,17.55,4.55,18,4,18z M4,5C3.45,5,3,4.55,3,4c0-0.55,0.45-1,1-1s1,0.45,1,1
			C5,4.55,4.55,5,4,5z"/>
	</g>
</g>
</svg>
