<svg xmlns="http://www.w3.org/2000/svg" xml:space="preserve" viewBox="0 0 20 20"><path fill-rule="evenodd" d="M15 2c-1.66 0-3 1.34-3 3 0 1.3.84 2.4 2 2.82V9c0 1.1-.9 2-2 2H8c-.73 0-1.41.21-2 .55V5.82C7.16 5.4 8 4.3 8 3c0-1.66-1.34-3-3-3S2 1.34 2 3c0 1.3.84 2.4 2 2.82v8.37C2.84 14.6 2 15.7 2 17c0 1.66 1.34 3 3 3s3-1.34 3-3c0-1.25-.77-2.3-1.85-2.75C6.45 13.52 7.16 13 8 13h4c2.21 0 4-1.79 4-4V7.82C17.16 7.4 18 6.3 18 5c0-1.66-1.34-3-3-3zM5 2c.55 0 1 .45 1 1s-.45 1-1 1-1-.45-1-1 .45-1 1-1zm0 16c-.55 0-1-.45-1-1s.45-1 1-1 1 .45 1 1-.45 1-1 1zM15 6c-.55 0-1-.45-1-1s.45-1 1-1 1 .45 1 1-.45 1-1 1z" clip-rule="evenodd"/></svg>