<?xml version="1.0" encoding="utf-8"?>
<!-- Generator: Adobe Illustrator 18.0.0, SVG Export Plug-In . SVG Version: 6.00 Build 0)  -->
<svg version="1.1" id="Layer_1" xmlns="http://www.w3.org/2000/svg" xmlns:xlink="http://www.w3.org/1999/xlink" x="0px" y="0px"
	 viewBox="0 0 20 20" enable-background="new 0 0 20 20" xml:space="preserve">
<g id="GIT_PUSH_2_">
	<g>
		<path fill-rule="evenodd" clip-rule="evenodd" d="M15,11c0-0.28-0.11-0.53-0.29-0.71l-3-3C11.53,7.11,11.28,7,11,7
			s-0.53,0.11-0.71,0.29l-3,3C7.11,10.47,7,10.72,7,11c0,0.55,0.45,1,1,1c0.28,0,0.53-0.11,0.71-0.29L10,10.41V19c0,0.55,0.45,1,1,1
			s1-0.45,1-1v-8.59l1.29,1.29C13.47,11.89,13.72,12,14,12C14.55,12,15,11.55,15,11z M19,0H1C0.45,0,0,0.45,0,1v16
			c0,0.55,0.45,1,1,1h7v-2H2v-2h6v-1H4V2h14v11h-4v1h4v2h-4v2h5c0.55,0,1-0.45,1-1V1C20,0.45,19.55,0,19,0z M5,8h2V6H5V8z M7,3H5v2
			h2V3z"/>
	</g>
</g>
</svg>
