<?xml version="1.0" encoding="utf-8"?>
<!-- Generator: Adobe Illustrator 18.0.0, SVG Export Plug-In . SVG Version: 6.00 Build 0)  -->
<svg version="1.1" id="Layer_1" xmlns="http://www.w3.org/2000/svg" xmlns:xlink="http://www.w3.org/1999/xlink" x="0px" y="0px"
	 viewBox="0 0 20 20" enable-background="new 0 0 20 20" xml:space="preserve">
<g id="git_commit_1_">
	<g>
		<path fill-rule="evenodd" clip-rule="evenodd" d="M19,9h-4.1c-0.46-2.28-2.48-4-4.9-4S5.56,6.72,5.1,9H1c-0.55,0-1,0.45-1,1
			c0,0.55,0.45,1,1,1h4.1c0.46,2.28,2.48,4,4.9,4s4.44-1.72,4.9-4H19c0.55,0,1-0.45,1-1C20,9.45,19.55,9,19,9z M10,13
			c-1.66,0-3-1.34-3-3s1.34-3,3-3s3,1.34,3,3S11.66,13,10,13z"/>
	</g>
</g>
</svg>
