<svg xmlns="http://www.w3.org/2000/svg" xml:space="preserve" viewBox="0 0 20 20"><path fill-rule="evenodd" d="M7.53 4.37c.1-.1.1-.26 0-.35l-.68-.68c-.1-.1-.25-.1-.35 0-.1.1-.1.26 0 .35l.68.68c.1.1.25.1.35 0zm3.17.06h.3c.09 0 .16-.01.16-.1 0-.09-.07-.1-.16-.1h-.3c-.09 0-.16.01-.16.1s.07.1.16.1zm.98 1.15c.09 0 .19-.08.19-.17v-.42c0-.09-.1-.17-.19-.17s-.19.08-.19.17v.42c0 .09.1.17.19.17zm-6.5 4.19c-.35 0-.56.28-.56.63v2.37c0 .35.21.62.56.62h.39v2.4c0 .34.33.61.67.61s.67-.27.67-.61v-1.44h-.02c.35 0 .6-.19.6-.54v-.41h.18c.35 0 .58-.28.58-.62v-.81c0-.01.01-.01 0-.02L6.1 9.77h-.92zM10 0C4.48 0 0 4.48 0 10s4.48 10 10 10 10-4.48 10-10S15.52 0 10 0zm0 18c-4.42 0-8-3.58-8-8 0-.74.11-1.46.3-2.14h.03v.65c0 .28.25.5.53.5.05 0 .1-.01.15-.02l1.05 1.05c.1.11.28.11.38 0 .1-.1.11-.27 0-.38L3.42 8.59c0-.03.05-.05.05-.08v-.16c0-.22.12-.3.34-.49h.63c.12 0 .23-.01.32-.07.01-.01.02 0 .03-.01.02-.02.04-.03.06-.04.01-.01.02-.01.03-.02l.02-.02 2.15-2.15c.24-.24.24-.63 0-.86-.23-.24-.62-.19-.86.04l-.41.46H5v-.64c0-.01.07.07.07-.12h.87c.17 0 .3-.12.3-.29 0-.17-.13-.29-.3-.29H4.88C6.27 2.7 8.05 2 10 2s3.73.7 5.12 1.86h-1.58l-.01-.04c-.06 0-.12 0-.17.04l-.71.7c-.09.09-.09.23 0 .31.09.09.23.09.32 0l.56-.6.01-.03h.34c0 .19-.1.13-.1.16v.1c0 .29-.2.5-.49.5h-.51c-.25 0-.52.28-.52.54v.23h-.12c-.16 0-.27.08-.27.24v.33h-.32c-.23 0-.41.15-.41.38 0 .22.18.35.41.35.1 0 .19.04.26-.16l.06.01.66-.59h.23l.53.5c.04.04.11.03.16-.01.04-.04.04-.16 0-.2L13 6.15h.32l.12.16c.25.25.65.23.89-.02l.12-.14H15c.02 0 .11.07.11.07v.33s-.06-.01-.07-.01h-.49c-.16 0-.28.13-.28.29 0 .16.13.29.28.29h.49c.01 0 .07-.01.07-.01v.2c-.19.28-.33.57-.62.57h-1.28s0-.01-.01-.01l-.58-.58a.622.622 0 0 0-.89 0l-.58.58s0 .01-.01.01h-.34c-.35 0-.67.28-.67.63v1.25c0 .35.32.61.67.61h1.22c.46.19.78.48.97.94v2.28c0 .35.23.6.58.6h.98c.35 0 .54-.25.54-.6v-2.2l1.21-1.17.04-.02.02-.01h.04c.1-.11.2-.26.2-.42V8.49c0-.25-.22-.44-.42-.63h.58c.02.38.29.57.63.57h.43c.13.51.18 1.03.18 1.57 0 4.42-3.58 8-8 8zm6.16-5.65c-.14 0-.29.11-.29.25v.77c0 .14.15.25.29.25.14 0 .29-.11.29-.25v-.77c0-.14-.15-.25-.29-.25zM10.5 3.48c0-.34-.28-.57-.62-.57h-.74c-.34 0-.57.25-.57.59 0 .05-.13.06.06.1v.64c0 .2.09.36.29.36.2 0 .29-.16.29-.36v-.19h.68c.33 0 .61-.23.61-.57z" clip-rule="evenodd"/></svg>