<?xml version="1.0" encoding="UTF-8"?>
<svg width="20px" height="20px" viewBox="0 0 20 20" version="1.1" xmlns="http://www.w3.org/2000/svg" xmlns:xlink="http://www.w3.org/1999/xlink">
    <!-- Generator: Sketch 50.2 (55047) - http://www.bohemiancoding.com/sketch -->
    <title>pt-icon-globe-network</title>
    <desc>Created with Sketch.</desc>
    <defs></defs>
    <g id="Page-1" stroke="none" stroke-width="1" fill="none" fill-rule="evenodd">
        <g id="pt-icon-globe-network" fill="#000000" fill-rule="nonzero">
            <path d="M10,0 C4.48,0 0,4.48 0,10 C0,15.52 4.48,20 10,20 C15.52,20 20,15.52 20,10 C20,4.48 15.52,0 10,0 Z M17.39,7 L13.76,7 C13.45,5.01 12.84,3.34 12.04,2.27 C14.49,2.92 16.45,4.69 17.39,7 Z M13,10 C13,10.69 12.96,11.36 12.89,12 L7.11,12 C7.04,11.36 7,10.69 7,10 C7,9.31 7.04,8.64 7.11,8 L12.88,8 C12.96,8.64 13,9.31 13,10 Z M10,2 C11.07,2 12.25,4.05 12.75,7 L7.25,7 C7.75,4.05 8.93,2 10,2 Z M7.96,2.27 C7.16,3.34 6.55,5.01 6.24,7 L2.61,7 C3.55,4.69 5.51,2.92 7.96,2.27 Z M2,10 C2,9.31 2.11,8.64 2.28,8 L6.11,8 C6.04,8.64 6,9.31 6,10 C6,10.69 6.04,11.36 6.11,12 L2.28,12 C2.11,11.36 2,10.69 2,10 Z M2.61,13 L6.24,13 C6.55,14.99 7.16,16.66 7.96,17.73 C5.51,17.08 3.55,15.31 2.61,13 Z M10,18 C8.93,18 7.75,15.95 7.25,13 L12.75,13 C12.25,15.95 11.07,18 10,18 Z M12.04,17.73 C12.83,16.66 13.44,14.99 13.76,13 L17.39,13 C16.45,15.31 14.49,17.08 12.04,17.73 Z M13.89,12 C13.96,11.36 14,10.69 14,10 C14,9.31 13.96,8.64 13.89,8 L17.72,8 C17.89,8.64 18,9.31 18,10 C18,10.69 17.89,11.36 17.72,12 L13.89,12 Z" id="Shape"></path>
        </g>
    </g>
</svg>