<?xml version="1.0" encoding="utf-8"?>
<!-- Generator: Adobe Illustrator 17.1.0, SVG Export Plug-In . SVG Version: 6.00 Build 0)  -->
<!DOCTYPE svg PUBLIC "-//W3C//DTD SVG 1.1//EN" "http://www.w3.org/Graphics/SVG/1.1/DTD/svg11.dtd">
<svg version="1.1" id="Layer_1" xmlns="http://www.w3.org/2000/svg" xmlns:xlink="http://www.w3.org/1999/xlink" x="0px" y="0px"
	 viewBox="0 0 20 20" enable-background="new 0 0 20 20" xml:space="preserve">
<g id="globe_1_">
	<g>
		<path fill-rule="evenodd" clip-rule="evenodd" d="M7.53,4.37c0.1-0.1,0.1-0.26,0-0.35L6.85,3.34c-0.1-0.1-0.25-0.1-0.35,0
			c-0.1,0.1-0.1,0.26,0,0.35l0.68,0.68C7.28,4.47,7.43,4.47,7.53,4.37z M10.7,4.43h0.3c0.09,0,0.16-0.01,0.16-0.1
			c0-0.09-0.07-0.1-0.16-0.1h-0.3c-0.09,0-0.16,0.01-0.16,0.1S10.61,4.43,10.7,4.43z M11.68,5.58c0.09,0,0.19-0.08,0.19-0.17V4.99
			c0-0.09-0.1-0.17-0.19-0.17c-0.09,0-0.19,0.08-0.19,0.17v0.42C11.49,5.5,11.59,5.58,11.68,5.58z M5.18,9.77
			c-0.35,0-0.56,0.28-0.56,0.63v2.37c0,0.35,0.21,0.62,0.56,0.62h0.39v2.4c0,0.34,0.33,0.61,0.67,0.61c0.34,0,0.67-0.27,0.67-0.61
			v-1.44H6.89c0.35,0,0.6-0.19,0.6-0.54V13.4h0.18c0.35,0,0.58-0.28,0.58-0.62v-0.81c0-0.01,0.01-0.01,0-0.02L6.1,9.77H5.18z M10,0
			C4.48,0,0,4.48,0,10c0,5.52,4.48,10,10,10s10-4.48,10-10C20,4.48,15.52,0,10,0z M10,18c-4.42,0-8-3.58-8-8
			c0-0.74,0.11-1.46,0.3-2.14h0.03v0.65c0,0.28,0.25,0.5,0.53,0.5c0.05,0,0.1-0.01,0.15-0.02l1.05,1.05c0.1,0.11,0.28,0.11,0.38,0
			c0.1-0.1,0.11-0.27,0-0.38L3.42,8.59c0-0.03,0.05-0.05,0.05-0.08V8.35c0-0.22,0.12-0.3,0.34-0.49h0.63c0.12,0,0.23-0.01,0.32-0.07
			c0.01-0.01,0.02,0,0.03-0.01c0.02-0.02,0.04-0.03,0.06-0.04c0.01-0.01,0.02-0.01,0.03-0.02l0.02-0.02l2.15-2.15
			c0.24-0.24,0.24-0.63,0-0.86C6.82,4.45,6.43,4.5,6.19,4.73L5.78,5.19H5V4.55c0-0.01,0.07,0.07,0.07-0.12h0.87
			c0.17,0,0.3-0.12,0.3-0.29c0-0.17-0.13-0.29-0.3-0.29H4.88C6.27,2.7,8.05,2,10,2s3.73,0.7,5.12,1.86h-1.58
			c0,0-0.01-0.04-0.01-0.04c-0.06,0-0.12,0-0.17,0.04l-0.71,0.7c-0.09,0.09-0.09,0.23,0,0.31c0.09,0.09,0.23,0.09,0.32,0l0.56-0.6
			c0,0,0.01-0.03,0.01-0.03h0.34c0,0.19-0.1,0.13-0.1,0.16v0.1c0,0.29-0.2,0.5-0.49,0.5h-0.51c-0.25,0-0.52,0.28-0.52,0.54v0.23
			h-0.12c-0.16,0-0.27,0.08-0.27,0.24c0,0.08,0,0.33,0,0.33h-0.32c-0.23,0-0.41,0.15-0.41,0.38c0,0.22,0.18,0.35,0.41,0.35
			c0.1,0,0.19,0.04,0.26-0.16h0l0.06,0.01l0.66-0.59h0.23l0.53,0.5c0.04,0.04,0.11,0.03,0.16-0.01c0.04-0.04,0.04-0.16,0-0.2
			L13,6.15h0.32l0.12,0.16c0.25,0.25,0.65,0.23,0.89-0.02l0.12-0.14H15c0.02,0,0.11,0.07,0.11,0.07v0.33c0,0-0.06-0.01-0.07-0.01
			h-0.49c-0.16,0-0.28,0.13-0.28,0.29c0,0.16,0.13,0.29,0.28,0.29h0.49c0.01,0,0.07-0.01,0.07-0.01v0.2
			c-0.19,0.28-0.33,0.57-0.62,0.57h-1.28c0,0,0-0.01-0.01-0.01l-0.58-0.58c-0.25-0.25-0.64-0.25-0.89,0l-0.58,0.58
			c0,0,0,0.01-0.01,0.01h-0.34c-0.35,0-0.67,0.28-0.67,0.63v1.25c0,0.35,0.32,0.61,0.67,0.61h1.22c0.46,0.19,0.78,0.48,0.97,0.94
			v2.28c0,0.35,0.23,0.6,0.58,0.6h0.98c0.35,0,0.54-0.25,0.54-0.6v-2.2l1.21-1.17l0.04-0.02l0.02-0.01l0.04,0
			c0.1-0.11,0.2-0.26,0.2-0.42V8.49c0-0.25-0.22-0.44-0.42-0.63h0.58c0.02,0.38,0.29,0.57,0.63,0.57h0.43C17.95,8.94,18,9.46,18,10
			C18,14.42,14.42,18,10,18z M16.16,12.35c-0.14,0-0.29,0.11-0.29,0.25v0.77c0,0.14,0.15,0.25,0.29,0.25c0.14,0,0.29-0.11,0.29-0.25
			v-0.77C16.45,12.46,16.3,12.35,16.16,12.35z M10.5,3.48c0-0.34-0.28-0.57-0.62-0.57H9.14c-0.34,0-0.57,0.25-0.57,0.59
			c0,0.05-0.13,0.06,0.06,0.1v0.64c0,0.2,0.09,0.36,0.29,0.36c0.2,0,0.29-0.16,0.29-0.36V4.05h0.68C10.22,4.05,10.5,3.82,10.5,3.48z
			"/>
	</g>
</g>
</svg>
