<?xml version="1.0" encoding="utf-8"?>
<!-- Generator: Adobe Illustrator 17.1.0, SVG Export Plug-In . SVG Version: 6.00 Build 0)  -->
<!DOCTYPE svg PUBLIC "-//W3C//DTD SVG 1.1//EN" "http://www.w3.org/Graphics/SVG/1.1/DTD/svg11.dtd">
<svg version="1.1" id="Layer_1" xmlns="http://www.w3.org/2000/svg" xmlns:xlink="http://www.w3.org/1999/xlink" x="0px" y="0px"
	 viewBox="0 0 20 20" enable-background="new 0 0 20 20" xml:space="preserve">
<g id="graph_2_">
	<g>
		<path fill-rule="evenodd" clip-rule="evenodd" d="M17.5,4C16.12,4,15,5.12,15,6.5c0,0.06,0.01,0.12,0.02,0.18l-1.9,0.84
			C12.38,6.6,11.27,6,10,6C9.17,6,8.41,6.25,7.77,6.68L4.91,4.14C4.96,3.93,5,3.72,5,3.5C5,2.12,3.88,1,2.5,1S0,2.12,0,3.5
			C0,4.88,1.12,6,2.5,6c0.42,0,0.81-0.11,1.16-0.3l2.79,2.48C6.17,8.73,6,9.34,6,10c0,1.41,0.73,2.64,1.83,3.35l-0.56,1.67
			C6,15.14,5,16.2,5,17.5C5,18.88,6.12,20,7.5,20s2.5-1.12,2.5-2.5c0-0.74-0.32-1.39-0.83-1.85l0.56-1.68C9.82,13.98,9.91,14,10,14
			c2.21,0,4-1.79,4-4c0-0.22-0.03-0.44-0.07-0.65l2.02-0.9C16.38,8.79,16.91,9,17.5,9C18.88,9,20,7.88,20,6.5
			C20,5.12,18.88,4,17.5,4z"/>
	</g>
</g>
</svg>
