<?xml version="1.0" encoding="utf-8"?>
<!-- Generator: Adobe Illustrator 17.1.0, SVG Export Plug-In . SVG Version: 6.00 Build 0)  -->
<!DOCTYPE svg PUBLIC "-//W3C//DTD SVG 1.1//EN" "http://www.w3.org/Graphics/SVG/1.1/DTD/svg11.dtd">
<svg version="1.1" id="Layer_1" xmlns="http://www.w3.org/2000/svg" xmlns:xlink="http://www.w3.org/1999/xlink" x="0px" y="0px"
	 viewBox="0 0 20 20" enable-background="new 0 0 20 20" xml:space="preserve">
<g id="remove_from_graph_1_">
	<g>
		<path fill-rule="evenodd" clip-rule="evenodd" d="M17.41,4l2.29-2.29C19.89,1.53,20,1.28,20,1c0-0.55-0.45-1-1-1
			c-0.28,0-0.53,0.11-0.71,0.29L16,2.59l-2.29-2.29C13.53,0.11,13.28,0,13,0c-0.55,0-1,0.45-1,1c0,0.28,0.11,0.53,0.29,0.71L14.59,4
			l-2.29,2.29C12.11,6.47,12,6.72,12,7c0,0.55,0.45,1,1,1c0.28,0,0.53-0.11,0.71-0.29L16,5.41l2.29,2.29C18.47,7.89,18.72,8,19,8
			c0.55,0,1-0.45,1-1c0-0.28-0.11-0.53-0.29-0.71L17.41,4z M19,10c-0.83,0-1.55-0.36-2.09-0.91l-0.03,0.03L16,8.24l-0.88,0.88
			C14.58,9.66,13.83,10,13,10c-1.66,0-3-1.34-3-3c0-0.83,0.34-1.58,0.88-2.12L11.76,4l-0.88-0.88l0.03-0.03C10.36,2.55,10,1.83,10,1
			c0-0.35,0.07-0.68,0.18-0.99C10.12,0.01,10.06,0,10,0C4.48,0,0,4.48,0,10c0,5.52,4.48,10,10,10s10-4.48,10-10
			c0-0.06-0.01-0.12-0.01-0.18C19.68,9.93,19.35,10,19,10z"/>
	</g>
</g>
</svg>
