<svg xmlns="http://www.w3.org/2000/svg" xml:space="preserve" viewBox="0 0 20 20"><path fill-rule="evenodd" d="M17.5 4A2.5 2.5 0 0 0 15 6.5c0 .06.01.12.02.18l-1.9.84C12.38 6.6 11.27 6 10 6c-.83 0-1.59.25-2.23.68L4.91 4.14c.05-.21.09-.42.09-.64a2.5 2.5 0 0 0-5 0A2.5 2.5 0 0 0 2.5 6c.42 0 .81-.11 1.16-.3l2.79 2.48C6.17 8.73 6 9.34 6 10c0 1.41.73 2.64 1.83 3.35l-.56 1.67A2.498 2.498 0 0 0 5 17.5a2.5 2.5 0 0 0 5 0c0-.74-.32-1.39-.83-1.85l.56-1.68c.09.01.18.03.27.03 2.21 0 4-1.79 4-4 0-.22-.03-.44-.07-.65l2.02-.9c.43.34.96.55 1.55.55a2.5 2.5 0 0 0 0-5z" clip-rule="evenodd"/></svg>