<?xml version="1.0" encoding="UTF-8"?>
<svg width="20px" height="20px" viewBox="0 0 20 20" version="1.1" xmlns="http://www.w3.org/2000/svg" xmlns:xlink="http://www.w3.org/1999/xlink">
    <!-- Generator: Sketch 54.1 (76490) - https://sketchapp.com -->
    <title>greater-than-or-equal-to</title>
    <desc>Created with Sketch.</desc>
    <g id="greater-than-or-equal-to" stroke="none" stroke-width="1" fill="none" fill-rule="evenodd">
        <g transform="translate(3.000000, 3.000000)" fill="#000000" fill-rule="nonzero">
            <path d="M0.683772536,8.051317 C0.159829219,8.22596478 -0.123330768,8.79228475 0.0513170044,9.31622807 C0.225964777,9.84017139 0.792284751,10.1233314 1.31622807,9.9486836 L13.3162281,5.9486836 C14.2279244,5.64478483 14.2279244,4.35521578 13.3162281,4.051317 L1.31622807,0.0513170044 C0.792284751,-0.123330768 0.225964777,0.159829219 0.0513170044,0.683772536 C-0.123330768,1.20771585 0.159829219,1.77403583 0.683772536,1.9486836 L9.83772264,5.0000003 L0.683772536,8.051317 Z" id="Rectangle"></path>
            <path d="M1.0000003,12.0000003 L13.0000003,12.0000003 C13.5522851,12.0000003 14.0000003,12.4477156 14.0000003,13.0000003 L14.0000003,13.0000003 C14.0000003,13.5522851 13.5522851,14.0000003 13.0000003,14.0000003 L1.0000003,14.0000003 C0.447715553,14.0000003 3.02476999e-07,13.5522851 3.02476999e-07,13.0000003 L3.02476999e-07,13.0000003 C3.02476999e-07,12.4477156 0.447715553,12.0000003 1.0000003,12.0000003 Z" id="Combined-Shape"></path>
        </g>
    </g>
</svg>