<svg xmlns="http://www.w3.org/2000/svg" xml:space="preserve" viewBox="0 0 20 20"><path fill-rule="evenodd" d="M19 11c.55 0 1-.45 1-1s-.45-1-1-1h-2V5h2c.55 0 1-.45 1-1s-.45-1-1-1h-2V1c0-.55-.45-1-1-1s-1 .45-1 1v2h-4V1c0-.55-.45-1-1-1S9 .45 9 1v2H5V1c0-.55-.45-1-1-1S3 .45 3 1v2H1c-.55 0-1 .45-1 1s.45 1 1 1h2v4H1c-.55 0-1 .45-1 1s.45 1 1 1h2v4H1c-.55 0-1 .45-1 1s.45 1 1 1h2v2c0 .55.45 1 1 1s1-.45 1-1v-2h4v2c0 .55.45 1 1 1s1-.45 1-1v-2h4v2c0 .55.45 1 1 1s1-.45 1-1v-2h2c.55 0 1-.45 1-1s-.45-1-1-1h-2v-4h2zM9 15H5v-4h4v4zm0-6H5V5h4v4zm6 6h-4v-4h4v4zm0-6h-4V5h4v4z" clip-rule="evenodd"/></svg>