<?xml version="1.0" encoding="utf-8"?>
<!-- Generator: Adobe Illustrator 18.1.0, SVG Export Plug-In . SVG Version: 6.00 Build 0)  -->
<svg version="1.1" id="Layer_1" xmlns="http://www.w3.org/2000/svg" xmlns:xlink="http://www.w3.org/1999/xlink" x="0px" y="0px"
	 viewBox="0 0 20 20" enable-background="new 0 0 20 20" xml:space="preserve">
<g id="grid_1_">
	<g>
		<path fill-rule="evenodd" clip-rule="evenodd" d="M19,11c0.55,0,1-0.45,1-1c0-0.55-0.45-1-1-1h-2V5h2c0.55,0,1-0.45,1-1
			c0-0.55-0.45-1-1-1h-2V1c0-0.55-0.45-1-1-1s-1,0.45-1,1v2h-4V1c0-0.55-0.45-1-1-1S9,0.45,9,1v2H5V1c0-0.55-0.45-1-1-1S3,0.45,3,1
			v2H1C0.45,3,0,3.45,0,4c0,0.55,0.45,1,1,1h2v4H1c-0.55,0-1,0.45-1,1c0,0.55,0.45,1,1,1h2v4H1c-0.55,0-1,0.45-1,1
			c0,0.55,0.45,1,1,1h2v2c0,0.55,0.45,1,1,1s1-0.45,1-1v-2h4v2c0,0.55,0.45,1,1,1s1-0.45,1-1v-2h4v2c0,0.55,0.45,1,1,1s1-0.45,1-1
			v-2h2c0.55,0,1-0.45,1-1c0-0.55-0.45-1-1-1h-2v-4H19z M9,15H5v-4h4V15z M9,9H5V5h4V9z M15,15h-4v-4h4V15z M15,9h-4V5h4V9z"/>
	</g>
</g>
</svg>
