<svg xmlns="http://www.w3.org/2000/svg" xml:space="preserve" viewBox="0 0 20 20"><path fill-rule="evenodd" d="M12 16h1c.55 0 1-.45 1-1V5c0-.55-.45-1-1-1h-1c-.55 0-1 .45-1 1v10c0 .55.45 1 1 1zm7 1H1c-.55 0-1 .45-1 1s.45 1 1 1h18c.55 0 1-.45 1-1s-.45-1-1-1zm-3-1h1c.55 0 1-.45 1-1V8c0-.55-.45-1-1-1h-1c-.55 0-1 .45-1 1v7c0 .55.45 1 1 1zm-9 0h1c.55 0 1-.45 1-1v-5c0-.55-.45-1-1-1H7c-.55 0-1 .45-1 1v5c0 .55.45 1 1 1zm-4 0h1c.55 0 1-.45 1-1V2c0-.55-.45-1-1-1H3c-.55 0-1 .45-1 1v13c0 .55.45 1 1 1z" clip-rule="evenodd"/></svg>