<?xml version="1.0" encoding="utf-8"?>
<!-- Generator: Adobe Illustrator 18.0.0, SVG Export Plug-In . SVG Version: 6.00 Build 0)  -->
<svg version="1.1" id="Rounded_Rectangle_5_1_" xmlns="http://www.w3.org/2000/svg" xmlns:xlink="http://www.w3.org/1999/xlink"
	 x="0px" y="0px" viewBox="0 0 20 20" enable-background="new 0 0 20 20" xml:space="preserve">
<g id="Rounded_Rectangle_5">
	<g>
		<path fill-rule="evenodd" clip-rule="evenodd" d="M12,16h1c0.55,0,1-0.45,1-1V5c0-0.55-0.45-1-1-1h-1c-0.55,0-1,0.45-1,1v10
			C11,15.55,11.45,16,12,16z M19,17H1c-0.55,0-1,0.45-1,1c0,0.55,0.45,1,1,1h18c0.55,0,1-0.45,1-1C20,17.45,19.55,17,19,17z M16,16
			h1c0.55,0,1-0.45,1-1V8c0-0.55-0.45-1-1-1h-1c-0.55,0-1,0.45-1,1v7C15,15.55,15.45,16,16,16z M7,16h1c0.55,0,1-0.45,1-1v-5
			c0-0.55-0.45-1-1-1H7c-0.55,0-1,0.45-1,1v5C6,15.55,6.45,16,7,16z M3,16h1c0.55,0,1-0.45,1-1V2c0-0.55-0.45-1-1-1H3
			C2.45,1,2,1.45,2,2v13C2,15.55,2.45,16,3,16z"/>
	</g>
</g>
</svg>
