<?xml version="1.0" encoding="utf-8"?>
<!-- Generator: Adobe Illustrator 17.1.0, SVG Export Plug-In . SVG Version: 6.00 Build 0)  -->
<!DOCTYPE svg PUBLIC "-//W3C//DTD SVG 1.1//EN" "http://www.w3.org/Graphics/SVG/1.1/DTD/svg11.dtd">
<svg version="1.1" id="Layer_1" xmlns="http://www.w3.org/2000/svg" xmlns:xlink="http://www.w3.org/1999/xlink" x="0px" y="0px"
	 viewBox="0 0 20 20" enable-background="new 0 0 20 20" xml:space="preserve">
<g id="Ellipse_2_6_">
	<g>
		<path fill-rule="evenodd" clip-rule="evenodd" d="M6,7c-1.66,0-3,1.34-3,3s1.34,3,3,3s3-1.34,3-3S7.66,7,6,7z M14,4H6
			c-3.31,0-6,2.69-6,6c0,3.31,2.69,6,6,6h8c3.31,0,6-2.69,6-6C20,6.69,17.31,4,14,4z M14,15H6c-2.76,0-5-2.24-5-5s2.24-5,5-5h8
			c2.76,0,5,2.24,5,5S16.76,15,14,15z M14,7c-1.66,0-3,1.34-3,3s1.34,3,3,3s3-1.34,3-3S15.66,7,14,7z"/>
	</g>
</g>
</svg>
