<svg xmlns="http://www.w3.org/2000/svg" xml:space="preserve" viewBox="0 0 20 20"><path fill-rule="evenodd" d="M17.68 9.84C15.91 9 14.27 6.49 13.45 4.9 12.41 2.43 12.21 0 7.87 0 5.49 0 3.95.76 3.05 2.65 2.31 4.2 2 5.48 2 9.79v.99c0 .82.69 1.48 1.54 1.48.38 0 .73-.14 1-.36.19.6.78 1.05 1.47 1.05.47 0 .89-.2 1.17-.52.26.47.77.79 1.36.79.65 0 1.2-.39 1.43-.93l.03.77v5.44c0 .48.23.91.59 1.18.21.19.5.32.85.32h.06c.83 0 1.5-.67 1.5-1.5v-8.24l.01-.67c.85.98 1.92 1.76 3.24 1.89 1.79.19 2.09-1.33 1.43-1.64z" clip-rule="evenodd"/></svg>