<?xml version="1.0" encoding="utf-8"?>
<!-- Generator: Adobe Illustrator 18.1.0, SVG Export Plug-In . SVG Version: 6.00 Build 0)  -->
<svg version="1.1" id="Layer_1" xmlns="http://www.w3.org/2000/svg" xmlns:xlink="http://www.w3.org/1999/xlink" x="0px" y="0px"
	 viewBox="0 0 20 20" enable-background="new 0 0 20 20" xml:space="preserve">
<g id="hand_left_1_">
	<g>
		<path fill-rule="evenodd" clip-rule="evenodd" d="M15.1,6.54c-1.58-0.81-4.09-2.46-4.94-4.23C9.85,1.66,8.34,1.96,8.52,3.74
			c0.13,1.33,0.91,2.4,1.89,3.24L9.74,7H1.5C0.67,7,0,7.67,0,8.5c0,0.01,0,0.02,0,0.03c0,0.01,0,0.02,0,0.03
			C0,8.92,0.13,9.2,0.32,9.41C0.59,9.77,1.02,10,1.5,10h5.44l0.78,0.01c-0.54,0.23-0.93,0.78-0.93,1.43c0,0.59,0.32,1.1,0.79,1.36
			c-0.32,0.28-0.52,0.7-0.52,1.17c0,0.69,0.44,1.28,1.05,1.47c-0.22,0.27-0.36,0.62-0.36,1c0,0.85,0.66,1.54,1.48,1.54h0.99
			c4.31,0,5.59-0.31,7.14-1.05c1.89-0.9,2.65-2.44,2.65-4.82C20,7.79,17.57,7.59,15.1,6.54z"/>
	</g>
</g>
</svg>
