<?xml version="1.0" encoding="utf-8"?>
<!-- Generator: Adobe Illustrator 18.1.0, SVG Export Plug-In . SVG Version: 6.00 Build 0)  -->
<svg version="1.1" id="Layer_1" xmlns="http://www.w3.org/2000/svg" xmlns:xlink="http://www.w3.org/1999/xlink" x="0px" y="0px"
	 viewBox="0 0 20 20" enable-background="new 0 0 20 20" xml:space="preserve">
<g id="hand_up_1_">
	<g>
		<path fill-rule="evenodd" clip-rule="evenodd" d="M16.46,7.74c-0.38,0-0.73,0.14-1,0.36c-0.19-0.6-0.78-1.05-1.47-1.05
			c-0.47,0-0.89,0.2-1.17,0.52c-0.26-0.47-0.77-0.79-1.36-0.79c-0.65,0-1.2,0.39-1.43,0.93L10,6.94V1.5c0-0.48-0.23-0.91-0.59-1.18
			C9.2,0.13,8.92,0,8.56,0C8.55,0,8.54,0,8.53,0C8.52,0,8.51,0,8.5,0C7.67,0,7,0.67,7,1.5v8.24l-0.01,0.67
			C6.15,9.43,5.07,8.65,3.75,8.52c-1.79-0.18-2.08,1.33-1.43,1.65c1.77,0.84,3.41,3.35,4.23,4.94c1.05,2.47,1.25,4.9,5.58,4.9
			c2.38,0,3.92-0.76,4.82-2.65C17.69,15.8,18,14.52,18,10.21V9.22C18,8.41,17.31,7.74,16.46,7.74z"/>
	</g>
</g>
</svg>
