<svg xmlns="http://www.w3.org/2000/svg" xml:space="preserve" viewBox="0 0 20 20"><path fill-rule="evenodd" d="M20 8.5c0-.83-.67-1.5-1.5-1.5h-8.24l-.67-.01c.98-.85 1.76-1.92 1.89-3.24.18-1.79-1.33-2.08-1.65-1.43-.84 1.76-3.35 3.41-4.93 4.23C2.43 7.59 0 7.79 0 12.13c0 2.38.76 3.92 2.65 4.82C4.2 17.69 5.48 18 9.79 18h.99c.82 0 1.48-.69 1.48-1.54 0-.38-.14-.73-.36-1 .6-.19 1.05-.78 1.05-1.47 0-.47-.2-.89-.52-1.17.47-.26.79-.77.79-1.36 0-.65-.39-1.2-.93-1.43l.77-.03h5.44c.48 0 .91-.23 1.18-.59.19-.21.32-.49.32-.85V8.5z" clip-rule="evenodd"/></svg>