<svg xmlns="http://www.w3.org/2000/svg" xml:space="preserve" viewBox="0 0 20 20"><path fill-rule="evenodd" d="M15.1 6.54c-1.58-.81-4.09-2.46-4.94-4.23-.31-.65-1.82-.35-1.64 1.43.13 1.33.91 2.4 1.89 3.24L9.74 7H1.5C.67 7 0 7.67 0 8.5v.06c0 .36.13.64.32.85.27.36.7.59 1.18.59h5.44l.78.01c-.54.23-.93.78-.93 1.43 0 .59.32 1.1.79 1.36-.32.28-.52.7-.52 1.17 0 .69.44 1.28 1.05 1.47-.22.27-.36.62-.36 1 0 .85.66 1.54 1.48 1.54h.99c4.31 0 5.59-.31 7.14-1.05 1.89-.9 2.65-2.44 2.65-4.82-.01-4.32-2.44-4.52-4.91-5.57z" clip-rule="evenodd"/></svg>