<svg xmlns="http://www.w3.org/2000/svg" xml:space="preserve" viewBox="0 0 20 20"><path fill-rule="evenodd" d="M16.46 7.74c-.38 0-.73.14-1 .36-.19-.6-.78-1.05-1.47-1.05-.47 0-.89.2-1.17.52-.26-.47-.77-.79-1.36-.79-.65 0-1.2.39-1.43.93L10 6.94V1.5c0-.48-.23-.91-.59-1.18C9.2.13 8.92 0 8.56 0H8.5C7.67 0 7 .67 7 1.5v8.24l-.01.67c-.84-.98-1.92-1.76-3.24-1.89-1.79-.18-2.08 1.33-1.43 1.65 1.77.84 3.41 3.35 4.23 4.94 1.05 2.47 1.25 4.9 5.58 4.9 2.38 0 3.92-.76 4.82-2.65.74-1.56 1.05-2.84 1.05-7.15v-.99c0-.81-.69-1.48-1.54-1.48z" clip-rule="evenodd"/></svg>