<?xml version="1.0" encoding="utf-8"?>
<!-- Generator: Adobe Illustrator 18.1.0, SVG Export Plug-In . SVG Version: 6.00 Build 0)  -->
<svg version="1.1" id="Layer_1" xmlns="http://www.w3.org/2000/svg" xmlns:xlink="http://www.w3.org/1999/xlink" x="0px" y="0px"
	 viewBox="0 0 20 20" enable-background="new 0 0 20 20" xml:space="preserve">
<g id="hand_down_1_">
	<g>
		<path fill-rule="evenodd" clip-rule="evenodd" d="M17.68,9.84c-1.77-0.84-3.41-3.35-4.23-4.94C12.41,2.43,12.21,0,7.87,0
			C5.49,0,3.95,0.76,3.05,2.65C2.31,4.2,2,5.48,2,9.79v0.99c0,0.82,0.69,1.48,1.54,1.48c0.38,0,0.73-0.14,1-0.36
			c0.19,0.6,0.78,1.05,1.47,1.05c0.47,0,0.89-0.2,1.17-0.52c0.26,0.47,0.77,0.79,1.36,0.79c0.65,0,1.2-0.39,1.43-0.93L10,13.06v5.44
			c0,0.48,0.23,0.91,0.59,1.18c0.21,0.19,0.5,0.32,0.85,0.32c0.01,0,0.02,0,0.03,0c0.01,0,0.02,0,0.03,0c0.83,0,1.5-0.67,1.5-1.5
			v-8.24l0.01-0.67c0.85,0.98,1.92,1.76,3.24,1.89C18.04,11.67,18.34,10.15,17.68,9.84z"/>
	</g>
</g>
</svg>
