<?xml version="1.0" encoding="utf-8"?>
<!-- Generator: Adobe Illustrator 18.1.0, SVG Export Plug-In . SVG Version: 6.00 Build 0)  -->
<svg version="1.1" id="Layer_1" xmlns="http://www.w3.org/2000/svg" xmlns:xlink="http://www.w3.org/1999/xlink" x="0px" y="0px"
	 viewBox="0 0 20 20" enable-background="new 0 0 20 20" xml:space="preserve">
<g id="hand">
	<g>
		<path fill-rule="evenodd" clip-rule="evenodd" d="M17,5c-0.42,0-0.79,0.27-0.93,0.64h0L14.38,10h-0.77l1.34-6.67
			C14.98,3.23,15,3.12,15,3c0-0.55-0.45-1-1-1c-0.49,0-0.89,0.35-0.98,0.81l-0.01,0L11.57,10H11V1c0-0.55-0.45-1-1-1S9,0.45,9,1v9
			H8.8L6.97,2.76l0,0C6.86,2.32,6.47,2,6,2C5.7,2,5.42,2.14,5.24,2.35l0,0C5.23,2.36,5.22,2.37,5.21,2.38c0,0,0,0,0,0
			C5.2,2.4,5.19,2.41,5.18,2.42c0,0,0,0,0,0C5.17,2.44,5.17,2.45,5.16,2.46c0,0,0,0,0,0.01C5.15,2.48,5.14,2.49,5.14,2.5
			c0,0,0,0.01,0,0.01C5.12,2.52,5.12,2.53,5.11,2.54c0,0,0,0.01-0.01,0.01C5.1,2.56,5.1,2.57,5.09,2.58c0,0,0,0.01-0.01,0.01
			c0,0.01-0.01,0.02-0.01,0.03c0,0,0,0.01-0.01,0.01c0,0.01-0.01,0.02-0.01,0.03c0,0.01,0,0.01-0.01,0.02
			c0,0.01-0.01,0.02-0.01,0.03c0,0.01,0,0.01-0.01,0.02c0,0.01-0.01,0.02-0.01,0.03c0,0.01,0,0.01,0,0.02c0,0.01,0,0.02-0.01,0.03
			c0,0.01,0,0.02,0,0.02c0,0.01,0,0.02,0,0.02c0,0.01,0,0.02,0,0.03c0,0.01,0,0.01,0,0.02c0,0.01,0,0.02,0,0.03
			c0,0.01,0,0.01,0,0.02C5,2.97,5,2.98,5,3c0,0.05,0,0.09,0.01,0.14h0l1.45,10.25L6,12.7v0.01L3.84,9.45l-0.01,0
			C3.66,9.18,3.35,9,3,9c-0.55,0-1,0.45-1,1c0,0.2,0.06,0.39,0.17,0.55L6,18.44v0C7.06,19.4,8.46,20,10,20c3.31,0,6-2.69,6-6v-1.84
			l0.01-0.03v-0.06l1.94-5.75C17.98,6.22,18,6.11,18,6C18,5.45,17.55,5,17,5z"/>
	</g>
</g>
</svg>
