<svg xmlns="http://www.w3.org/2000/svg" xml:space="preserve" viewBox="0 0 20 20"><path fill-rule="evenodd" d="M17 5c-.42 0-.79.27-.93.64L14.38 10h-.77l1.34-6.67c.03-.1.05-.21.05-.33a.998.998 0 0 0-1.98-.19h-.01L11.57 10H11V1c0-.55-.45-1-1-1S9 .45 9 1v9h-.2L6.97 2.76a.997.997 0 0 0-1.73-.41l-.03.03c-.01.02-.02.03-.03.04-.01.02-.01.03-.02.04v.01c-.01.01-.02.02-.02.03v.01c-.02.01-.02.02-.03.03 0 0 0 .01-.01.01 0 .01 0 .02-.01.03 0 0 0 .01-.01.01 0 .01-.01.02-.01.03 0 0 0 .01-.01.01 0 .01-.01.02-.01.03 0 .01 0 .01-.01.02 0 .01-.01.02-.01.03 0 .01 0 .01-.01.02 0 .01-.01.02-.01.03v.02c0 .01 0 .02-.01.03V3c0 .05 0 .09.01.14l1.45 10.25L6 12.7v.01L3.84 9.45h-.01A.98.98 0 0 0 3 9c-.55 0-1 .45-1 1 0 .2.06.39.17.55L6 18.44C7.06 19.4 8.46 20 10 20c3.31 0 6-2.69 6-6v-1.84l.01-.03v-.06l1.94-5.75A1.003 1.003 0 0 0 17 5z" clip-rule="evenodd"/></svg>