<?xml version="1.0" encoding="utf-8"?>
<!-- Generator: Adobe Illustrator 18.1.0, SVG Export Plug-In . SVG Version: 6.00 Build 0)  -->
<svg version="1.1" id="Layer_1" xmlns="http://www.w3.org/2000/svg" xmlns:xlink="http://www.w3.org/1999/xlink" x="0px" y="0px"
	 viewBox="0 0 20 20" enable-background="new 0 0 20 20" xml:space="preserve">
<g id="hand_right_1_">
	<g>
		<path fill-rule="evenodd" clip-rule="evenodd" d="M20,8.5C20,7.67,19.33,7,18.5,7h-8.24L9.59,6.99c0.98-0.85,1.76-1.92,1.89-3.24
			c0.18-1.79-1.33-2.08-1.65-1.43C8.99,4.08,6.48,5.73,4.9,6.55C2.43,7.59,0,7.79,0,12.13c0,2.38,0.76,3.92,2.65,4.82
			C4.2,17.69,5.48,18,9.79,18h0.99c0.82,0,1.48-0.69,1.48-1.54c0-0.38-0.14-0.73-0.36-1c0.6-0.19,1.05-0.78,1.05-1.47
			c0-0.47-0.2-0.89-0.52-1.17c0.47-0.26,0.79-0.77,0.79-1.36c0-0.65-0.39-1.2-0.93-1.43L13.06,10h5.44c0.48,0,0.91-0.23,1.18-0.59
			C19.87,9.2,20,8.92,20,8.56c0-0.01,0-0.02,0-0.03C20,8.52,20,8.51,20,8.5z"/>
	</g>
</g>
</svg>
