<?xml version="1.0" encoding="UTF-8"?>
<svg width="20px" height="20px" viewBox="0 0 20 20" version="1.1" xmlns="http://www.w3.org/2000/svg" xmlns:xlink="http://www.w3.org/1999/xlink">
    <!-- Generator: Sketch 64 (93537) - https://sketch.com -->
    <title>hat-large</title>
    <desc>Created with Sketch.</desc>
    <g id="hat-large" stroke="none" stroke-width="1" fill="none" fill-rule="evenodd">
        <path d="M18.5,13 C19.6177431,13 19.9655243,13.5343761 19.9975081,14.3662189 L20,14.5 L20,15 C20,16.9453001 14.3100756,18 10,18 C5.68992427,18 -9.24126198e-08,16.9453001 -9.24126198e-08,15 L-9.24126198e-08,14.5 C-9.24126198e-08,13.5921065 0.323428186,13 1.49999991,13 C2.39478214,13 4.99995454,14.2 9.99999991,14.2 L10.4111407,14.1972737 C15.1434486,14.1342593 17.6300728,13 18.5,13 Z M13.5,3 C15.2252788,3 16.4544598,5.728538 17.1875429,11.185614 C15.7329473,11.4490858 13.3830597,11.905253 10.7957851,11.9872044 L10.3624875,11.9973008 L9.99999991,12 C7.10389082,12 4.41476703,11.475794 2.81146088,11.186454 C3.54556378,5.728538 4.77474191,3 6.5,3 C8.6,3 8.32860566,5.5 10,5.5 C11.6713942,5.5 11.5,3 13.5,3 Z" id="Combined-Shape" fill="#10161A"></path>
    </g>
</svg>