<svg xmlns="http://www.w3.org/2000/svg" width="20" height="21"><path fill-rule="evenodd" d="M10.989 1c0-.55-.45-1-.999-1-.55 0-.999.45-.999 1v6H1.998V1c0-.55-.45-1-.999-1C.449 0 0 .45 0 1v14c0 .55.45 1 .999 1 .55 0 .999-.45.999-1V9h6.993v6c0 .55.45 1 .999 1 .55 0 .999-.45.999-1V1Zm7.461 13.645c.49.11.87.38 1.14.82.27.44.41.97.41 1.61a3 3 0 0 1-.24 1.23c-.16.36-.38.67-.66.92-.27.25-.59.44-.96.58-.37.14-.75.21-1.16.21-.5 0-.93-.08-1.3-.24a2.55 2.55 0 0 1-.93-.68c-.25-.29-.44-.65-.57-1.06-.13-.42-.2-.88-.21-1.38h1.39c-.02.58.11 1.07.38 1.46.28.39.68.58 1.23.58.47 0 .86-.15 1.17-.45.31-.3.47-.72.47-1.27 0-.37-.07-.67-.2-.89-.13-.22-.3-.39-.51-.5-.21-.11-.45-.18-.71-.21-.26-.03-.53-.04-.81-.03v-1.17c.22.01.45 0 .68-.05.23-.05.43-.13.61-.24.18-.11.32-.27.43-.47.11-.2.16-.45.16-.74 0-.41-.12-.74-.37-.99s-.57-.37-.96-.37c-.24 0-.45.06-.63.17-.18.11-.33.26-.45.45s-.2.4-.26.63c-.05.23-.08.47-.07.72h-1.39c.01-.47.09-.9.23-1.3s.33-.75.57-1.04c.24-.3.53-.53.87-.69.34-.17.73-.25 1.16-.25.33 0 .66.05.98.16.32.11.61.27.87.48.26.21.47.47.62.8.15.32.23.7.23 1.12 0 .48-.09.91-.29 1.27-.2.36-.5.63-.92.79v.02Z" clip-rule="evenodd"/></svg>