<svg xmlns="http://www.w3.org/2000/svg" xml:space="preserve" viewBox="0 0 20 20"><path d="M16.6 17.41c-.22.17-.4.36-.56.55-.16.19-.27.4-.33.61h4.28V20H14c.01-.81.18-1.52.53-2.13.35-.6.81-1.13 1.41-1.58.28-.23.58-.46.89-.68.31-.22.59-.46.85-.71.26-.26.48-.53.63-.83.16-.3.25-.64.26-1.02 0-.18-.02-.37-.06-.57-.04-.2-.11-.39-.22-.56s-.26-.31-.45-.43-.44-.18-.75-.18c-.28 0-.52.06-.71.19s-.34.3-.45.52c-.11.22-.2.48-.25.78-.05.3-.08.62-.09.97h-1.43c0-.54.07-1.04.2-1.5.13-.47.32-.87.58-1.2.26-.34.58-.6.95-.78.37-.19.81-.29 1.3-.29.54 0 .99.09 1.35.29.36.19.65.44.87.74.22.29.38.62.47.97.09.35.14.68.14 1 0 .4-.05.75-.16 1.07-.11.32-.26.61-.44.88-.19.27-.4.52-.63.74-.24.22-.48.43-.73.63s-.5.38-.75.56c-.26.17-.5.35-.71.53zM10 0c.55 0 1 .45 1 1v14c0 .55-.45 1-1 1s-1-.45-1-1V9H2v6c0 .55-.45 1-1 1s-1-.45-1-1V1c0-.55.45-1 1-1s1 .45 1 1v6h7V1c0-.55.45-1 1-1z"/></svg>