<?xml version="1.0" encoding="utf-8"?>
<!-- Generator: Adobe Illustrator 18.0.0, SVG Export Plug-In . SVG Version: 6.00 Build 0)  -->
<svg version="1.1" id="Layer_1" xmlns="http://www.w3.org/2000/svg" xmlns:xlink="http://www.w3.org/1999/xlink" x="0px" y="0px"
	 viewBox="0 0 20 20" enable-background="new 0 0 20 20" xml:space="preserve">
<g id="heading_two_1_">
	<g id="pt-icon-header2-20">
		<path id="Combined-Shape_15_" d="M16.6,17.41c-0.22,0.17-0.4,0.36-0.56,0.55c-0.16,0.19-0.27,0.4-0.33,0.61h4.28V20H14
			c0.01-0.81,0.18-1.52,0.53-2.13c0.35-0.6,0.81-1.13,1.41-1.58c0.28-0.23,0.58-0.46,0.89-0.68c0.31-0.22,0.59-0.46,0.85-0.71
			c0.26-0.26,0.48-0.53,0.63-0.83c0.16-0.3,0.25-0.64,0.26-1.02c0-0.18-0.02-0.37-0.06-0.57c-0.04-0.2-0.11-0.39-0.22-0.56
			s-0.26-0.31-0.45-0.43c-0.19-0.12-0.44-0.18-0.75-0.18c-0.28,0-0.52,0.06-0.71,0.19s-0.34,0.3-0.45,0.52
			c-0.11,0.22-0.2,0.48-0.25,0.78c-0.05,0.3-0.08,0.62-0.09,0.97h-1.43c0-0.54,0.07-1.04,0.2-1.5c0.13-0.47,0.32-0.87,0.58-1.2
			c0.26-0.34,0.58-0.6,0.95-0.78c0.37-0.19,0.81-0.29,1.3-0.29c0.54,0,0.99,0.09,1.35,0.29c0.36,0.19,0.65,0.44,0.87,0.74
			c0.22,0.29,0.38,0.62,0.47,0.97c0.09,0.35,0.14,0.68,0.14,1c0,0.4-0.05,0.75-0.16,1.07c-0.11,0.32-0.26,0.61-0.44,0.88
			c-0.19,0.27-0.4,0.52-0.63,0.74c-0.24,0.22-0.48,0.43-0.73,0.63c-0.25,0.2-0.5,0.38-0.75,0.56C17.05,17.05,16.81,17.23,16.6,17.41
			z M10,0c0.55,0,1,0.45,1,1v14c0,0.55-0.45,1-1,1s-1-0.45-1-1V9H2v6c0,0.55-0.45,1-1,1s-1-0.45-1-1V1c0-0.55,0.45-1,1-1s1,0.45,1,1
			v6h7V1C9,0.45,9.45,0,10,0z"/>
	</g>
</g>
</svg>
