<?xml version="1.0" encoding="utf-8"?>
<!-- Generator: Adobe Illustrator 18.1.0, SVG Export Plug-In . SVG Version: 6.00 Build 0)  -->
<svg version="1.1" id="Layer_1" xmlns="http://www.w3.org/2000/svg" xmlns:xlink="http://www.w3.org/1999/xlink" x="0px" y="0px"
	 viewBox="0 0 20 20" enable-background="new 0 0 20 20" xml:space="preserve">
<g id="headset_1_">
	<g>
		<path fill-rule="evenodd" clip-rule="evenodd" d="M18.97,9H19c0-4.97-4.03-9-9-9S1,4.03,1,9h0.03C0.41,9.73,0,10.8,0,12
			c0,1.74,0.84,3.2,2,3.76V16c0,1.66,1.34,3,3,3h3c0,0.55,0.45,1,1,1h2c0.55,0,1-0.45,1-1v-2c0-0.55-0.45-1-1-1H9
			c-0.55,0-1,0.45-1,1H5c-0.55,0-1-0.45-1-1c0.55,0,1-0.45,1-1V9c0-0.55-0.45-1-1-1H3.08C3.57,4.61,6.47,2,10,2s6.43,2.61,6.92,6H16
			c-0.55,0-1,0.45-1,1v6c0,0.55,0.45,1,1,1h1c1.66,0,3-1.79,3-4C20,10.8,19.59,9.73,18.97,9z"/>
	</g>
</g>
</svg>
