<?xml version="1.0" encoding="utf-8"?>
<!-- Generator: Adobe Illustrator 18.0.0, SVG Export Plug-In . SVG Version: 6.00 Build 0)  -->
<svg version="1.1" id="Layer_1" xmlns="http://www.w3.org/2000/svg" xmlns:xlink="http://www.w3.org/1999/xlink" x="0px" y="0px"
	 viewBox="0 0 20 20" enable-background="new 0 0 20 20" xml:space="preserve">
<g id="heading_one_1_">
	<g id="pt-icon-header1-20">
		<path id="Combined-Shape_14_" d="M10,0c0.55,0,1,0.45,1,1v14c0,0.55-0.45,1-1,1s-1-0.45-1-1V9H2v6c0,0.55-0.45,1-1,1s-1-0.45-1-1
			V1c0-0.55,0.45-1,1-1s1,0.45,1,1v6h7V1C9,0.45,9.45,0,10,0z M17.4,10.77c0.17-0.2,0.29-0.46,0.34-0.77H19v10h-1.5v-7.11H15v-1.24
			c0.32,0,0.63-0.03,0.93-0.08c0.31-0.06,0.58-0.16,0.83-0.29C17.02,11.16,17.23,10.98,17.4,10.77z"/>
	</g>
</g>
</svg>
