<svg xmlns="http://www.w3.org/2000/svg" xml:space="preserve" viewBox="0 0 20 20"><path fill-rule="evenodd" d="M8.11 7.45C8.05 7.31 8 7.16 8 7c0-.07.03-.13.04-.19h-.02l.86-4.32A5.159 5.159 0 0 0 5.25 1 5.25 5.25 0 0 0 0 6.25c0 .09.01.17.01.25H0c0 .06.01.12.02.18s.01.12.02.18C.13 7.89.44 9 1.07 10.17c1.38 2.58 3.76 4.6 7.71 7.83l-.76-3.8h.02c-.01-.07-.04-.13-.04-.2 0-.21.08-.39.18-.54l-.02-.01 1.68-2.52-1.73-3.48zM20 6.25C20 3.35 17.65 1 14.75 1c-1.54 0-2.92.67-3.88 1.73l-.83 4.13 1.85 3.69h-.01c.07.14.12.29.12.45 0 .21-.08.39-.18.54l.02.01-1.77 2.66.81 4.07c4.16-3.39 6.63-5.45 8.05-8.1.63-1.17.94-2.27 1.03-3.3.01-.07.01-.14.02-.21 0-.06.01-.11.02-.17h-.01c0-.08.01-.16.01-.25z" clip-rule="evenodd"/></svg>