<svg xmlns="http://www.w3.org/2000/svg" xml:space="preserve" viewBox="0 0 20 20"><path fill-rule="evenodd" d="M20 6.25C20 3.35 17.65 1 14.75 1c-1.02 0-1.95.31-2.75.82v-.04c-.09.06-.17.12-.26.19-.04.03-.09.06-.14.1-.68.51-1.24 1.18-1.6 1.96-.4-.86-1.04-1.57-1.8-2.1-.04-.02-.07-.05-.1-.08a7 7 0 0 0-.6-.33c-.13-.04-.23-.1-.35-.15-.05-.02-.1-.05-.15-.07v.02C6.45 1.13 5.87 1 5.25 1A5.25 5.25 0 0 0 0 6.25c0 .09.01.17.01.25H0c0 .06.01.12.02.18s.01.12.02.18C.13 7.89.44 9 1.07 10.17 2.23 12.33 4.1 14.11 7 16.53v.01c.9.75 1.89 1.55 3 2.46.71-.58 1.38-1.12 2-1.63 3.48-2.86 5.64-4.78 6.93-7.18.63-1.17.94-2.27 1.03-3.3.01-.07.01-.14.02-.21 0-.06.01-.11.02-.17h-.01c0-.09.01-.17.01-.26z" clip-rule="evenodd"/></svg>