<?xml version="1.0" encoding="utf-8"?>
<!-- Generator: Adobe Illustrator 22.0.1, SVG Export Plug-In . SVG Version: 6.00 Build 0)  -->
<svg version="1.1" id="Shape_1_1_" xmlns="http://www.w3.org/2000/svg" xmlns:xlink="http://www.w3.org/1999/xlink" x="0px" y="0px"
	 viewBox="0 0 20 20" enable-background="new 0 0 20 20" xml:space="preserve">
<g id="Shape_1">
	<g>
		<path fill-rule="evenodd" clip-rule="evenodd" d="M8.11,7.45L8.11,7.45C8.05,7.31,8,7.16,8,7c0-0.07,0.03-0.13,0.04-0.19l-0.02,0
			l0.86-4.32C7.94,1.57,6.67,1,5.25,1C2.35,1,0,3.35,0,6.25C0,6.34,0.01,6.42,0.01,6.5H0c0,0.06,0.01,0.12,0.02,0.18
			c0.01,0.06,0.01,0.12,0.02,0.18c0.09,1.03,0.4,2.14,1.03,3.31c1.38,2.58,3.76,4.6,7.71,7.83L8.02,14.2l0.02,0
			C8.03,14.13,8,14.07,8,14c0-0.21,0.08-0.39,0.18-0.54l-0.02-0.01l1.68-2.52L8.11,7.45z M20,6.25C20,3.35,17.65,1,14.75,1
			c-1.54,0-2.92,0.67-3.88,1.73l-0.83,4.13l1.85,3.69l-0.01,0C11.95,10.69,12,10.84,12,11c0,0.21-0.08,0.39-0.18,0.54l0.02,0.01
			l-1.77,2.66l0.81,4.07c4.16-3.39,6.63-5.45,8.05-8.1c0.63-1.17,0.94-2.27,1.03-3.3c0.01-0.07,0.01-0.14,0.02-0.21
			c0-0.06,0.01-0.11,0.02-0.17h-0.01C19.99,6.42,20,6.34,20,6.25z"/>
	</g>
</g>
</svg>
