<?xml version="1.0" encoding="utf-8"?>
<!-- Generator: Adobe Illustrator 17.1.0, SVG Export Plug-In . SVG Version: 6.00 Build 0)  -->
<!DOCTYPE svg PUBLIC "-//W3C//DTD SVG 1.1//EN" "http://www.w3.org/Graphics/SVG/1.1/DTD/svg11.dtd">
<svg version="1.1" id="Layer_1" xmlns="http://www.w3.org/2000/svg" xmlns:xlink="http://www.w3.org/1999/xlink" x="0px" y="0px"
	 viewBox="0 0 20 20" enable-background="new 0 0 20 20" xml:space="preserve">
<path id="help_1_" d="M10,0C4.48,0,0,4.48,0,10c0,5.52,4.48,10,10,10s10-4.48,10-10C20,4.48,15.52,0,10,0z M7.41,4.62
	C8.06,4.08,8.92,3.8,9.97,3.8c0.54,0,1.03,0.08,1.48,0.25c0.44,0.17,0.83,0.39,1.14,0.68c0.32,0.29,0.56,0.63,0.74,1.02
	c0.17,0.39,0.26,0.82,0.26,1.27s-0.08,0.87-0.24,1.23c-0.16,0.37-0.4,0.73-0.71,1.11l-1.21,1.58c-0.14,0.17-0.28,0.33-0.32,0.48
	c-0.05,0.15-0.11,0.35-0.11,0.6v0.43c0,0.12,0,0.54,0,0.54H9v-2c0,0,0.06-0.58,0.24-0.81l1.21-1.64c0.25-0.3,0.41-0.56,0.51-0.77
	s0.14-0.44,0.14-0.67c0-0.35-0.11-0.63-0.32-0.85s-0.5-0.33-0.88-0.33c-0.37,0-0.67,0.11-0.89,0.33C8.79,6.48,8.64,6.79,8.55,7.19
	C8.52,7.31,8.44,7.36,8.32,7.35L6.37,7.06C6.25,7.05,6.21,6.98,6.23,6.84C6.36,5.91,6.75,5.17,7.41,4.62z M9,14h2.02L11,16H9V14z"/>
</svg>
