<?xml version="1.0" encoding="utf-8"?>
<!-- Generator: Adobe Illustrator 18.0.0, SVG Export Plug-In . SVG Version: 6.00 Build 0)  -->
<svg version="1.1" id="Layer_1" xmlns="http://www.w3.org/2000/svg" xmlns:xlink="http://www.w3.org/1999/xlink" x="0px" y="0px"
	 viewBox="0 0 20 20" enable-background="new 0 0 20 20" xml:space="preserve">
<g id="highlight">
	<g>
		<path fill-rule="evenodd" clip-rule="evenodd" d="M11.22,14.09l3.03-3.03l0.71,0.71L20,6.73l-5.71-5.71L9.25,6.06l0.71,0.71
			L6.94,9.81L11.22,14.09z M18.02,18h-16c-0.55,0-1,0.45-1,1c0,0.55,0.45,1,1,1h16c0.55,0,1-0.45,1-1C19.02,18.45,18.57,18,18.02,18
			z M3.02,17h4.04c0.28,0,0.53-0.11,0.71-0.3l2.02-2.02l-3.44-3.45l-4.04,4.04c-0.18,0.18-0.3,0.44-0.3,0.71
			C2.02,16.55,2.47,17,3.02,17z"/>
	</g>
</g>
</svg>
