<?xml version="1.0" encoding="utf-8"?>
<!-- Generator: Adobe Illustrator 18.0.0, SVG Export Plug-In . SVG Version: 6.00 Build 0)  -->
<svg version="1.1" id="Layer_1" xmlns="http://www.w3.org/2000/svg" xmlns:xlink="http://www.w3.org/1999/xlink" x="0px" y="0px"
	 viewBox="0 0 20 20" enable-background="new 0 0 20 20" xml:space="preserve">
<g id="history_5_">
	<g>
		<path fill-rule="evenodd" clip-rule="evenodd" d="M10,0C6.71,0,3.82,1.6,2,4.05V2c0-0.55-0.45-1-1-1S0,1.45,0,2v4
			c0,0.55,0.45,1,1,1h4c0.55,0,1-0.45,1-1S5.55,5,5,5H3.76C5.23,3.17,7.47,2,10,2c4.42,0,8,3.58,8,8s-3.58,8-8,8s-8-3.58-8-8
			c0-0.55-0.45-1-1-1s-1,0.45-1,1c0,5.52,4.48,10,10,10s10-4.48,10-10C20,4.48,15.52,0,10,0z M10,3C9.45,3,9,3.45,9,4v6
			c0,0.28,0.11,0.53,0.29,0.71l3,3C12.47,13.89,12.72,14,13,14c0.55,0,1-0.45,1-1c0-0.28-0.11-0.53-0.29-0.71L11,9.59V4
			C11,3.45,10.55,3,10,3z"/>
	</g>
</g>
</svg>
