<?xml version="1.0" encoding="utf-8"?>
<!-- Generator: Adobe Illustrator 17.1.0, SVG Export Plug-In . SVG Version: 6.00 Build 0)  -->
<!DOCTYPE svg PUBLIC "-//W3C//DTD SVG 1.1//EN" "http://www.w3.org/Graphics/SVG/1.1/DTD/svg11.dtd">
<svg version="1.1" id="Layer_1" xmlns="http://www.w3.org/2000/svg" xmlns:xlink="http://www.w3.org/1999/xlink" x="0px" y="0px"
	 viewBox="0 0 20 20" enable-background="new 0 0 20 20" xml:space="preserve">
<g id="home_1_">
	<g>
		<path fill-rule="evenodd" clip-rule="evenodd" d="M2,12v7c0,0.55,0.45,1,1,1h5v-7h4v7h5c0.55,0,1-0.45,1-1v-7l-8-8L2,12z
			 M19.71,9.29L17,6.59V3c0-0.55-0.45-1-1-1s-1,0.45-1,1v1.59l-4.29-4.29C10.53,0.11,10.28,0,10,0S9.47,0.11,9.29,0.29l-9,9
			C0.11,9.47,0,9.72,0,10c0,0.55,0.45,1,1,1c0.28,0,0.53-0.11,0.71-0.29L10,2.41l8.29,8.29C18.47,10.89,18.72,11,19,11
			c0.55,0,1-0.45,1-1C20,9.72,19.89,9.47,19.71,9.29z"/>
	</g>
</g>
</svg>
