<?xml version="1.0" encoding="utf-8"?>
<!-- Generator: Adobe Illustrator 18.0.0, SVG Export Plug-In . SVG Version: 6.00 Build 0)  -->
<svg version="1.1" id="Layer_1" xmlns="http://www.w3.org/2000/svg" xmlns:xlink="http://www.w3.org/1999/xlink" x="0px" y="0px"
	 viewBox="0 0 20 20" enable-background="new 0 0 20 20" xml:space="preserve">
<g id="horizontal_distribution_1_">
	<g>
		<path fill-rule="evenodd" clip-rule="evenodd" d="M12,2H8C7.45,2,7,2.45,7,3v14c0,0.55,0.45,1,1,1h4c0.55,0,1-0.45,1-1V3
			C13,2.45,12.55,2,12,2z M1,0C0.45,0,0,0.45,0,1v18c0,0.55,0.45,1,1,1s1-0.45,1-1V1C2,0.45,1.55,0,1,0z M19,0c-0.55,0-1,0.45-1,1
			v18c0,0.55,0.45,1,1,1s1-0.45,1-1V1C20,0.45,19.55,0,19,0z"/>
	</g>
</g>
</svg>
