<?xml version="1.0" encoding="utf-8"?>
<!-- Generator: Adobe Illustrator 18.0.0, SVG Export Plug-In . SVG Version: 6.00 Build 0)  -->
<svg version="1.1" id="Shape_2_1_" xmlns="http://www.w3.org/2000/svg" xmlns:xlink="http://www.w3.org/1999/xlink" x="0px" y="0px"
	 viewBox="0 0 20 20" enable-background="new 0 0 20 20" xml:space="preserve">
<g id="Shape_2">
	<g>
		<path fill-rule="evenodd" clip-rule="evenodd" d="M1,9h11c0.55,0,1-0.45,1-1V7c0-0.55-0.45-1-1-1H1C0.45,6,0,6.45,0,7v1
			C0,8.55,0.45,9,1,9z M1,4h9c0.55,0,1-0.45,1-1V2c0-0.55-0.45-1-1-1H1C0.45,1,0,1.45,0,2v1C0,3.55,0.45,4,1,4z M19,16H1
			c-0.55,0-1,0.45-1,1v1c0,0.55,0.45,1,1,1h18c0.55,0,1-0.45,1-1v-1C20,16.45,19.55,16,19,16z M1,14h14c0.55,0,1-0.45,1-1v-1
			c0-0.55-0.45-1-1-1H1c-0.55,0-1,0.45-1,1v1C0,13.55,0.45,14,1,14z"/>
	</g>
</g>
</svg>
