<svg xmlns="http://www.w3.org/2000/svg" xml:space="preserve" viewBox="0 0 20 20"><path d="M2 5v10h16V5H2zm0-2h16c1.1 0 2 .9 2 2v10c0 1.1-.9 2-2 2H2c-1.1 0-2-.9-2-2V5c0-1.1.9-2 2-2z"/><path d="M8.88 12.38c-.17-.39-1.01-.66-1.56-.9-.56-.24-.48-.39-.5-.6v-.09c.19-.17.35-.4.45-.67 0 0 0-.02.01-.02l.06-.18c.13-.03.2-.17.23-.29.03-.05.09-.18.08-.33-.04-.18-.11-.27-.2-.3v-.03c0-.24-.02-.58-.06-.81-.01-.06-.02-.12-.04-.19-.08-.27-.25-.52-.48-.7C6.63 7.09 6.3 7 6 7s-.63.09-.87.27c-.23.17-.4.42-.48.7-.02.06-.03.13-.04.19-.04.22-.06.57-.06.81V9c-.09.03-.17.12-.19.31-.01.14.05.27.08.32.03.14.1.27.23.3.02.06.03.12.06.18v.01c.11.27.27.51.47.68v.08c-.02.2.04.35-.51.6-.56.24-1.39.51-1.56.9-.19.39-.12.62-.12.62h5.98c-.01 0 .06-.23-.11-.62zM12 7h4c.55 0 1 .45 1 1s-.45 1-1 1h-4c-.55 0-1-.45-1-1s.45-1 1-1zM12 11h4c.55 0 1 .45 1 1s-.45 1-1 1h-4c-.55 0-1-.45-1-1s.45-1 1-1z"/></svg>