<svg xmlns="http://www.w3.org/2000/svg" xml:space="preserve" viewBox="0 0 20 20"><path fill-rule="evenodd" d="M10.5 13c.83 0 1.5-.67 1.5-1.5s-.67-1.5-1.5-1.5-1.5.67-1.5 1.5.67 1.5 1.5 1.5zM14 7H1c-.55 0-1 .45-1 1v11c0 .55.45 1 1 1h13c.55 0 1-.45 1-1V8c0-.55-.45-1-1-1zm-1 10-5-3-1 2-2-4-3 4.5V9h11v8zm3-15h-1.59l.29-.29c.19-.18.3-.43.3-.71a1.003 1.003 0 0 0-1.71-.71l-2 2c-.18.18-.29.43-.29.71 0 .28.11.53.29.71l2 2a1.003 1.003 0 0 0 1.42-1.42l-.3-.29H16c1.1 0 2 .9 2 2v3c0 .55.45 1 1 1s1-.45 1-1V6c0-2.21-1.79-4-4-4z" clip-rule="evenodd"/></svg>