<?xml version="1.0" encoding="utf-8"?>
<!-- Generator: Adobe Illustrator 18.0.0, SVG Export Plug-In . SVG Version: 6.00 Build 0)  -->
<svg version="1.1" id="Layer_1" xmlns="http://www.w3.org/2000/svg" xmlns:xlink="http://www.w3.org/1999/xlink" x="0px" y="0px"
	 viewBox="0 0 20 20" enable-background="new 0 0 20 20" xml:space="preserve">
<g id="rotate_image_left_1_">
	<g>
		<path fill-rule="evenodd" clip-rule="evenodd" d="M10.5,13c0.83,0,1.5-0.67,1.5-1.5S11.33,10,10.5,10S9,10.67,9,11.5
			S9.67,13,10.5,13z M14,7H1C0.45,7,0,7.45,0,8v11c0,0.55,0.45,1,1,1h13c0.55,0,1-0.45,1-1V8C15,7.45,14.55,7,14,7z M13,17l-5-3
			l-1,2l-2-4l-3,4.5V9h11V17z M16,2h-1.59l0.29-0.29C14.89,1.53,15,1.28,15,1c0-0.55-0.45-1-1-1c-0.28,0-0.53,0.11-0.71,0.29l-2,2
			C11.11,2.47,11,2.72,11,3c0,0.28,0.11,0.53,0.29,0.71l2,2C13.47,5.89,13.72,6,14,6c0.55,0,1-0.45,1-1c0-0.28-0.11-0.53-0.29-0.71
			L14.41,4H16c1.1,0,2,0.9,2,2v3c0,0.55,0.45,1,1,1s1-0.45,1-1V6C20,3.79,18.21,2,16,2z"/>
	</g>
</g>
</svg>
