<svg xmlns="http://www.w3.org/2000/svg" xml:space="preserve" viewBox="0 0 20 20"><path fill-rule="evenodd" d="M5.29 4.29a1.003 1.003 0 0 0 1.42 1.42l2-2C8.89 3.53 9 3.28 9 3c0-.28-.11-.53-.29-.71l-2-2a1.003 1.003 0 0 0-1.42 1.42l.3.29H4C1.79 2 0 3.79 0 6v3c0 .55.45 1 1 1s1-.45 1-1V6c0-1.1.9-2 2-2h1.59l-.3.29zM15.5 13c.83 0 1.5-.67 1.5-1.5s-.67-1.5-1.5-1.5-1.5.67-1.5 1.5.67 1.5 1.5 1.5zM19 7H6c-.55 0-1 .45-1 1v11c0 .55.45 1 1 1h13c.55 0 1-.45 1-1V8c0-.55-.45-1-1-1zm-1 10-5-3-1 2-2-4-3 4.5V9h11v8z" clip-rule="evenodd"/></svg>