<?xml version="1.0" encoding="utf-8"?>
<!-- Generator: Adobe Illustrator 18.0.0, SVG Export Plug-In . SVG Version: 6.00 Build 0)  -->
<svg version="1.1" id="Layer_1" xmlns="http://www.w3.org/2000/svg" xmlns:xlink="http://www.w3.org/1999/xlink" x="0px" y="0px"
	 viewBox="0 0 20 20" enable-background="new 0 0 20 20" xml:space="preserve">
<g id="rotate_image_right">
	<g>
		<path fill-rule="evenodd" clip-rule="evenodd" d="M5.29,4.29C5.11,4.47,5,4.72,5,5c0,0.55,0.45,1,1,1c0.28,0,0.53-0.11,0.71-0.29
			l2-2C8.89,3.53,9,3.28,9,3c0-0.28-0.11-0.53-0.29-0.71l-2-2C6.53,0.11,6.28,0,6,0C5.45,0,5,0.45,5,1c0,0.28,0.11,0.53,0.29,0.71
			L5.59,2H4C1.79,2,0,3.79,0,6v3c0,0.55,0.45,1,1,1s1-0.45,1-1V6c0-1.1,0.9-2,2-2h1.59L5.29,4.29z M15.5,13c0.83,0,1.5-0.67,1.5-1.5
			S16.33,10,15.5,10S14,10.67,14,11.5S14.67,13,15.5,13z M19,7H6C5.45,7,5,7.45,5,8v11c0,0.55,0.45,1,1,1h13c0.55,0,1-0.45,1-1V8
			C20,7.45,19.55,7,19,7z M18,17l-5-3l-1,2l-2-4l-3,4.5V9h11V17z"/>
	</g>
</g>
</svg>
