<svg xmlns="http://www.w3.org/2000/svg" width="20" height="20"><path fill-rule="nonzero" d="m10.262 3 1.958 1.958v.05H4.65l-2.67 5.997H5c.55 0 1 .45 1 .999v1h8v-1c0-.55.45-1 1-1h3.02l-.635-1.426.625-.63c.354-.353.598-.8.707-1.289L20 10.545v6.456c0 .55-.45.999-1 .999H1c-.55 0-1-.45-1-1v-6.455L3.08 3.62l.01-.02c.15-.35.5-.6.91-.6h6.262Zm9.088-3a.642.642 0 0 1 .46 1.1l-3.03 3.03v2.95c0 .18-.07.34-.19.46l-1.28 1.29c-.11.1-.27.17-.45.17-.35 0-.64-.29-.64-.64V4.13L11.19 1.1a.642.642 0 0 1 .45-1.1h7.71Z"/></svg>