<svg xmlns="http://www.w3.org/2000/svg" width="20" height="20"><path fill-rule="nonzero" d="M7.427 3a7.467 7.467 0 0 0-.411 2.009H4.65l-2.67 5.996H5c.55 0 1 .45 1 .999v1h8V13c.165.01.332 0 .5 0a7.48 7.48 0 0 0 5.5-2.4V17c0 .55-.45 1-1 1H1c-.55 0-1-.45-1-1v-6.455L3.08 3.62l.01-.02c.15-.35.5-.6.91-.6h3.427Zm5.715-.596a.133.133 0 0 1-.193 0l-.374-.374a.133.133 0 0 1 0-.193.133.133 0 0 1 .193 0l.373.374a.133.133 0 0 1 0 .193Zm1.743.033c-.05 0-.088-.006-.088-.055 0-.05.038-.056.088-.056h.165c.05 0 .088.006.088.055 0 .05-.038.056-.088.056h-.165Zm.539.632c-.05 0-.104-.044-.104-.094v-.23c0-.05.054-.094.104-.094.05 0 .104.044.104.094v.23c0 .05-.055.094-.104.094Zm-3.575 2.304h.506l1.182 1.2c.006.005 0 .005 0 .01v.446c0 .187-.126.341-.319.341h-.098v.226c0 .192-.138.296-.33.296h.01v.792c0 .188-.181.336-.368.336s-.369-.149-.369-.335v-1.32h-.214c-.193 0-.308-.149-.308-.341V5.72c0-.192.115-.346.308-.346ZM14.5 0C17.536 0 20 2.464 20 5.5S17.536 11 14.5 11A5.502 5.502 0 0 1 9 5.5C9 2.464 11.464 0 14.5 0Zm0 9.9c2.431 0 4.4-1.969 4.4-4.4 0-.297-.027-.583-.099-.864h-.236c-.188 0-.336-.104-.347-.313h-.319c.11.104.231.209.231.346v.705c0 .088-.055.17-.11.23h-.022l-.011.006-.022.011-.666.643v1.21c0 .193-.104.33-.296.33h-.54c-.192 0-.319-.137-.319-.33V6.221a.915.915 0 0 0-.533-.518h-.671c-.192 0-.368-.143-.368-.335V4.68c0-.192.176-.346.368-.346l.193-.005.319-.32a.342.342 0 0 1 .489 0l.319.32c.005 0 .005.005.005.005h.704c.16 0 .237-.16.341-.313v-.11l-.038.005h-.27a.159.159 0 0 1-.153-.16c0-.087.066-.159.154-.159h.269l.039.006V3.42s-.05-.038-.061-.038h-.302l-.067.076a.342.342 0 0 1-.489.011l-.066-.088h-.176l.248.259c.021.022.021.088 0 .11-.028.022-.067.028-.088.006l-.292-.276h-.127l-.363.325-.033-.006c-.038.11-.087.089-.143.089-.126 0-.225-.072-.225-.193 0-.127.099-.209.225-.209h.176v-.182c0-.088.061-.131.149-.131h.066v-.127c0-.143.149-.297.286-.297h.28c.16 0 .27-.115.27-.275V2.42c0-.016.055.017.055-.088h-.187l-.005.017-.308.33a.123.123 0 0 1-.177 0c-.049-.044-.049-.121 0-.171l.391-.385c.027-.022.06-.022.094-.022l.005.022h.869A4.376 4.376 0 0 0 14.5 1.1a4.402 4.402 0 0 0-2.816 1.018h.583c.094 0 .165.066.165.159s-.072.16-.165.16h-.478c0 .104-.039.06-.039.066v.351h.429l.226-.252c.132-.127.346-.155.473-.022a.332.332 0 0 1 0 .473l-1.183 1.182-.011.011c-.005.005-.011.005-.016.011a.115.115 0 0 0-.034.022c-.005.006-.01 0-.016.006a.309.309 0 0 1-.176.038h-.347c-.12.104-.187.148-.187.27v.088c0 .016-.027.027-.027.043l.561.589c.06.06.055.154 0 .209a.143.143 0 0 1-.209 0l-.578-.578a.425.425 0 0 1-.082.011c-.154 0-.292-.12-.292-.274v-.358h-.016c-.104.374-.165.77-.165 1.177 0 2.431 1.969 4.4 4.4 4.4Zm3.388-3.107c.077 0 .16.06.16.137v.424c0 .077-.083.137-.16.137s-.16-.06-.16-.137V6.93c0-.077.083-.137.16-.137Zm-3.113-4.879c0 .187-.154.314-.335.314h-.374v.104c0 .11-.05.198-.16.198s-.16-.088-.16-.198V1.98c-.104-.022-.033-.028-.033-.055 0-.187.127-.325.314-.325h.407c.187 0 .341.127.341.314Z"/></svg>