<svg xmlns="http://www.w3.org/2000/svg" width="20" height="20"><path fill-rule="nonzero" d="M7.136 3a6.327 6.327 0 0 0-.098 2.009H4.65l-2.67 5.996H5c.55 0 1 .45 1 .999v1h8v-1c0-.55.45-1 1-1h1.076l1.14 1.14a2.767 2.767 0 0 0 1.974.806c.282 0 .554-.042.81-.12V17c0 .55-.45 1-1 1H1c-.55 0-1-.45-1-1v-6.455L3.08 3.62l.01-.02c.15-.35.5-.6.91-.6h3.136Zm3.244 1.33c0 1.62 1.31 2.93 2.93 2.93s2.93-1.31 2.93-2.93-1.31-2.93-2.93-2.93-2.93 1.31-2.93 2.93Zm6.47 2.43 2.89 2.85c.13.15.22.35.23.56 0 .43-.35.78-.78.78-.23 0-.42-.08-.56-.22l-2.87-2.87c-.17.1-.33.2-.51.29-.03.01-.06.03-.09.04-.18.07-.35.15-.55.21-.19.06-.37.11-.57.14-.05.01-.1.02-.14.02-.2.03-.39.05-.6.05A4.3 4.3 0 0 1 9 4.31C9 1.93 10.93.01 13.3 0c2.37 0 4.3 1.93 4.3 4.3 0 .21-.02.4-.05.6-.01.05-.01.09-.02.14-.04.2-.08.38-.14.58-.05.19-.13.36-.21.54-.01.03-.03.06-.04.09-.08.18-.18.34-.29.51Z"/></svg>