<?xml version="1.0" encoding="utf-8"?>
<!-- Generator: Adobe Illustrator 17.1.0, SVG Export Plug-In . SVG Version: 6.00 Build 0)  -->
<!DOCTYPE svg PUBLIC "-//W3C//DTD SVG 1.1//EN" "http://www.w3.org/Graphics/SVG/1.1/DTD/svg11.dtd">
<svg version="1.1" id="Layer_1" xmlns="http://www.w3.org/2000/svg" xmlns:xlink="http://www.w3.org/1999/xlink" x="0px" y="0px"
	 viewBox="0 0 20 20" enable-background="new 0 0 20 20" xml:space="preserve">
<g id="inbox_2_">
	<g>
		<path d="M16.92,3.56L16.92,3.56l-0.01-0.02l0,0c-0.16-0.35-0.5-0.6-0.91-0.6H4c-0.41,0-0.76,0.25-0.91,0.6l0,0L3.08,3.56l0,0
			L0,10.49v6.46c0,0.55,0.45,1,1,1h18c0.55,0,1-0.45,1-1v-6.46L16.92,3.56z M15,10.95c-0.55,0-1,0.45-1,1v1H6v-1c0-0.55-0.45-1-1-1
			H1.98l2.67-6h10.7l2.67,6H15z"/>
	</g>
</g>
</svg>
