<?xml version="1.0" encoding="UTF-8"?>
<svg width="20px" height="20px" viewBox="0 0 20 20" version="1.1" xmlns="http://www.w3.org/2000/svg" xmlns:xlink="http://www.w3.org/1999/xlink">
    <title>pt-incon-inherited-group</title>
    <desc>Created with Sketch.</desc>
    <g id="pt-incon-inherited-group" stroke="none" stroke-width="1" fill="none" fill-rule="evenodd">
        <path d="M1,9 C1.55,9 2,9.45 2,10 L2,10 L2,14 C2,15.1 2.9,16 4,16 L4,16 L6.59,16 L6.29,15.71 C6.11,15.53 6,15.28 6,15 C6,14.45 6.45,14 7,14 C7.28,14 7.53,14.11 7.71,14.29 L7.71,14.29 L9.71,16.29 C9.89,16.47 10,16.72 10,17 C10,17.28 9.89,17.53 9.71,17.71 L9.71,17.71 L7.71,19.71 C7.53,19.89 7.28,20 7,20 C6.45,20 6,19.55 6,19 C6,18.72 6.11,18.47 6.3,18.29 L6.3,18.29 L6.59,18 L4,18 C1.79,18 -9.24593735e-13,16.21 -9.24593735e-13,14 L-9.24593735e-13,14 L-9.26370092e-13,10 C-9.26370092e-13,9.45 0.45,9 1,9 Z M7.99602188,0 C8.78568415,0 9.67530368,0.25 10.3050344,0.73 C10.9247693,1.19 11.3745769,1.86 11.5944829,2.59 C11.6444615,2.76 11.6844444,2.92 11.7044359,3.09 C11.8143888,3.69 11.8743632,4.61 11.8743632,5.24 L11.8743632,5.33 C12.0942691,5.42 12.2941836,5.65 12.3441623,6.15 C12.3741494,6.54 12.2242136,6.88 12.1442478,7.02 C12.0742777,7.36 11.8743632,7.73 11.5345085,7.8 C11.4945256,7.96 11.444547,8.13 11.3845727,8.28 C11.3745769,8.29 11.3645812,8.33 11.3645812,8.33 C11.0946966,9.04 10.6848719,9.66 10.1750899,10.11 C10.1750899,10.19 10.1750899,10.27 10.1850857,10.34 C10.2350643,10.89 10.0351498,11.29 11.5145171,11.94 C12.9838887,12.6 15.2129353,13.29 15.6927302,14.33 C16.1425378,15.38 15.9626147,16 15.9626147,16 L10.7363605,16.0007318 C10.6495036,15.8488084 10.5424511,15.7082376 10.4171068,15.5828932 L8.41710678,13.5828932 C8.0450998,13.2108862 7.53897282,13 7,13 C5.89771525,13 5,13.8977153 5,15 L4,15 C3.45228475,15 3,14.5477153 3,14 L3.00044836,12.5380192 C3.5110623,12.3253898 4.02273101,12.1254349 4.46753094,11.93 C5.94689824,11.28 5.79696237,10.88 5.84694099,10.34 L5.85693672,10.13 L5.85693672,10.13 C5.33715902,9.68 4.90734284,9.05 4.63745826,8.33 L4.62746254,8.32 L4.61746681,8.29 L4.61746681,8.29 C4.54749674,8.14 4.49751811,7.97 4.45753521,7.8 C4.11768056,7.74 3.91776606,7.37 3.83780026,7.02 C3.75783446,6.88 3.59790286,6.54 3.63788576,6.15 C3.68786439,5.64 3.89777461,5.41 4.12767629,5.32 L4.12767629,5.24 C4.12767629,4.6 4.17765491,3.69 4.29760361,3.09 C4.31759506,2.92 4.35757796,2.75 4.40755659,2.59 C4.62746254,1.85 5.08726589,1.19 5.69700512,0.73 C6.31674007,0.25 7.2063596,0 7.99602188,0 Z M13.9934569,3 C14.5832047,3 15.2529182,3.19 15.7227173,3.55 C16.1825207,3.9 16.5223753,4.4 16.6923027,4.95 C16.7322856,5.08 16.7622727,5.2 16.7722685,5.33 C16.8522343,5.78 16.9022129,6.47 16.9022129,6.94 L16.9022129,7.01 C17.0621445,7.08 17.2120804,7.25 17.2520633,7.63 C17.2720547,7.92 17.1621017,8.18 17.1021274,8.28 C17.0521488,8.54 16.9022129,8.81 16.642324,8.87 C16.6123369,8.99 16.572354,9.12 16.5323711,9.23 C16.5223753,9.24 16.5223753,9.27 16.5223753,9.27 C16.3224608,9.8 16.0125934,10.27 15.6327558,10.61 C15.6327558,10.67 15.6327558,10.73 15.6427515,10.78 C15.6827344,11.19 15.5327986,11.49 16.642324,11.97 C17.7418538,12.47 19.4111399,12.98 19.770986,13.76 C20.1108406,14.55 19.9709005,15.01 19.9709005,15.01 L16.9322001,15.01 L16.9322001,15 C16.8722257,14.67 16.7622727,14.31 16.6023411,13.94 C16.1525335,12.97 15.2329268,12.42 13.3637262,11.64 C13.1937989,11.57 12.6040511,11.33 12.5940554,11.32 C12.4940981,11.28 12.3941409,11.24 12.3141751,11.2 C12.3641537,11.06 12.354158,10.91 12.3741494,10.75 L12.3841452,10.59 L12.3841452,10.59 C12.134252,10.38 11.9143461,10.11 11.734423,9.8 C11.954329,9.46 12.1442478,9.09 12.2941836,8.68 L12.322,8.602 L12.3201101,8.615 C12.3185482,8.62375 12.316674,8.635 12.3141751,8.65 L12.3741494,8.5 C12.7339955,8.24 12.9738929,7.83 13.0938416,7.37 C13.2737647,7 13.3837177,6.55 13.3437348,6.07 C13.2937561,5.57 13.1338245,5.15 12.8739357,4.85 C12.8539442,4.32 12.8139613,3.74 12.753987,3.26 C13.1338245,3.09 13.5836322,3 13.9934569,3 Z" id="Combined-Shape" fill="#000000" fill-rule="nonzero"></path>
    </g>
</svg>
