<svg xmlns="http://www.w3.org/2000/svg" width="20" height="20"><path fill-rule="nonzero" d="M1 9c.55 0 1 .45 1 1v4c0 1.1.9 2 2 2h2.59l-.3-.29a1.003 1.003 0 0 1 1.42-1.42l2 2c.18.18.29.43.29.71 0 .28-.11.53-.29.71l-2 2A1.003 1.003 0 0 1 6 19c0-.28.11-.53.3-.71l.29-.29H4c-2.21 0-4-1.79-4-4v-4c0-.55.45-1 1-1Zm6.996-9c.79 0 1.68.25 2.309.73a3.63 3.63 0 0 1 1.4 2.36c.11.6.17 1.52.17 2.15v.09c.22.09.42.32.47.82.03.39-.12.73-.2.87-.07.34-.27.71-.61.78-.04.16-.09.33-.15.48-.01.01-.02.05-.02.05-.27.71-.68 1.33-1.19 1.78 0 .08 0 .16.01.23.05.55-.15.95 1.33 1.6 1.469.66 3.698 1.35 4.178 2.39.45 1.05.27 1.67.27 1.67h-5.227a1.982 1.982 0 0 0-.319-.417l-2-2A2.003 2.003 0 0 0 5 15H4c-.548 0-1-.452-1-1v-1.462c.511-.213 1.023-.413 1.468-.608 1.479-.65 1.329-1.05 1.379-1.59l.01-.21c-.52-.45-.95-1.08-1.22-1.8l-.01-.01-.01-.03c-.07-.15-.12-.32-.16-.49-.34-.06-.54-.43-.62-.78-.08-.14-.24-.48-.2-.87.05-.51.26-.74.49-.83v-.08c0-.64.05-1.55.17-2.15a3.648 3.648 0 0 1 1.4-2.36C6.317.25 7.207 0 7.996 0Zm5.997 3c.59 0 1.26.19 1.73.55.46.35.8.85.97 1.4.04.13.07.25.08.38.08.45.13 1.14.13 1.61v.07c.16.07.31.24.35.62.02.29-.09.55-.15.65-.05.26-.2.53-.46.59-.03.12-.07.25-.11.36-.01.01-.01.04-.01.04-.2.53-.51 1-.89 1.34 0 .06 0 .12.01.17.04.41-.11.71 1 1.19 1.099.5 2.768 1.01 3.128 1.79.34.79.2 1.25.2 1.25h-3.039V15c-.06-.33-.17-.69-.33-1.06-.45-.97-1.37-1.52-3.238-2.3-.17-.07-.76-.31-.77-.32-.1-.04-.2-.08-.28-.12.05-.14.04-.29.06-.45l.01-.16c-.25-.21-.47-.48-.65-.79.22-.34.41-.71.56-1.12l.028-.078-.002.013-.006.035.06-.15c.36-.26.6-.67.72-1.13.18-.37.29-.82.25-1.3-.05-.5-.21-.92-.47-1.22-.02-.53-.06-1.11-.12-1.59.38-.17.83-.26 1.24-.26Z"/></svg>