<?xml version="1.0" encoding="utf-8"?>
<!-- Generator: Adobe Illustrator 17.1.0, SVG Export Plug-In . SVG Version: 6.00 Build 0)  -->
<!DOCTYPE svg PUBLIC "-//W3C//DTD SVG 1.1//EN" "http://www.w3.org/Graphics/SVG/1.1/DTD/svg11.dtd">
<svg version="1.1" id="Layer_1" xmlns:sketch="http://www.bohemiancoding.com/sketch/ns"
	 xmlns="http://www.w3.org/2000/svg" xmlns:xlink="http://www.w3.org/1999/xlink" x="0px" y="0px" viewBox="0 0 20 20"
	 enable-background="new 0 0 20 20" xml:space="preserve">
<title>Shape</title>
<desc>Created with Sketch.</desc>
<g id="Page-1" sketch:type="MSPage">
	<g id="Artboard-1" sketch:type="MSArtboardGroup">
		<path id="Shape" sketch:type="MSShapeGroup" d="M19,0H1C0.4,0,0,0.4,0,1v18c0,0.5,0.4,1,1,1h18c0.5,0,1-0.5,1-1V1
			C20,0.4,19.5,0,19,0L19,0z M18,18H2V2h16V18L18,18z M5,11h4v4c0,0.6,0.4,1,1,1s1-0.4,1-1v-4h4c0.6,0,1-0.4,1-1s-0.4-1-1-1h-4V5
			c0-0.6-0.4-1-1-1S9,4.4,9,5v4H5c-0.6,0-1,0.4-1,1S4.4,11,5,11L5,11z"/>
	</g>
</g>
</svg>
