<svg xmlns="http://www.w3.org/2000/svg" xml:space="preserve" viewBox="0 0 20 20"><path fill-rule="evenodd" d="M13 4c-1.31 0-2.51.43-3.5 1.14A5.977 5.977 0 0 0 6 4c-3.31 0-6 2.69-6 6s2.69 6 6 6c1.31 0 2.51-.43 3.5-1.14.99.71 2.19 1.14 3.5 1.14 3.31 0 6-2.69 6-6s-2.69-6-6-6zm-4.93 9.41c-.61.37-1.31.59-2.07.59-2.21 0-4-1.79-4-4s1.79-4 4-4c.76 0 1.46.22 2.07.59C7.4 7.56 7 8.73 7 10s.4 2.44 1.07 3.41zM13 14c-.76 0-1.46-.22-2.07-.59C11.6 12.44 12 11.27 12 10s-.4-2.44-1.07-3.41C11.54 6.22 12.24 6 13 6c2.21 0 4 1.79 4 4s-1.79 4-4 4z" clip-rule="evenodd"/></svg>