<?xml version="1.0" encoding="utf-8"?>
<!-- Generator: Adobe Illustrator 18.0.0, SVG Export Plug-In . SVG Version: 6.00 Build 0)  -->
<svg version="1.1" id="Layer_1" xmlns="http://www.w3.org/2000/svg" xmlns:xlink="http://www.w3.org/1999/xlink" x="0px" y="0px"
	 viewBox="0 0 20 20" enable-background="new 0 0 20 20" xml:space="preserve">
<g id="intersection_2_">
	<g>
		<path fill-rule="evenodd" clip-rule="evenodd" d="M13,4c-1.31,0-2.51,0.43-3.5,1.14C8.51,4.43,7.31,4,6,4c-3.31,0-6,2.69-6,6
			s2.69,6,6,6c1.31,0,2.51-0.43,3.5-1.14C10.49,15.57,11.69,16,13,16c3.31,0,6-2.69,6-6S16.31,4,13,4z M8.07,13.41
			C7.46,13.78,6.76,14,6,14c-2.21,0-4-1.79-4-4c0-2.21,1.79-4,4-4c0.76,0,1.46,0.22,2.07,0.59C7.4,7.56,7,8.73,7,10
			C7,11.27,7.4,12.44,8.07,13.41z M13,14c-0.76,0-1.46-0.22-2.07-0.59C11.6,12.44,12,11.27,12,10c0-1.27-0.4-2.44-1.07-3.41
			C11.54,6.22,12.24,6,13,6c2.21,0,4,1.79,4,4C17,12.21,15.21,14,13,14z"/>
	</g>
</g>
</svg>
