<?xml version="1.0" encoding="utf-8"?>
<!-- Generator: Adobe Illustrator 18.0.0, SVG Export Plug-In . SVG Version: 6.00 Build 0)  -->
<svg version="1.1" id="Layer_1" xmlns="http://www.w3.org/2000/svg" xmlns:xlink="http://www.w3.org/1999/xlink" x="0px" y="0px"
	 viewBox="0 0 20 20" enable-background="new 0 0 20 20" xml:space="preserve">
<g id="ip_address_1_">
	<g id="pt-icon-ip-address_1_">
		<path id="Shape_8_" d="M6,3.66C6,5.69,10,11,10,11s4-5.31,4-7.34C13.99,1.64,12.21,0,10,0S6,1.64,6,3.66z M8,4c0-1.1,0.9-2,2-2
			s2,0.9,2,2s-0.9,2-2,2S8,5.1,8,4z"/>
		<path id="Combined-Shape_4_" d="M14,13.5V13h-4v1h3v2h-2v1h2.5H14V13.5z M3,12h14c0.55,0,1,0.45,1,1v6c0,0.55-0.45,1-1,1H3
			c-0.55,0-1-0.45-1-1v-6l0,0C2,12.45,2.45,12,3,12L3,12z M7,13v6h1v-6H7z M10,14v5h1v-5H10z"/>
	</g>
</g>
</svg>
