<svg xmlns="http://www.w3.org/2000/svg" xml:space="preserve" viewBox="0 0 20 20"><path fill-rule="evenodd" d="M19 3H7c-.28 0-.53.11-.71.29l-6 6C.11 9.47 0 9.72 0 10c0 .28.11.53.29.71l6 6c.18.18.43.29.71.29h12c.55 0 1-.45 1-1V4c0-.55-.45-1-1-1zm-2.29 9.29a1.003 1.003 0 0 1-1.42 1.42L13 11.41l-2.29 2.29c-.18.19-.43.3-.71.3a1.003 1.003 0 0 1-.71-1.71l2.3-2.29-2.3-2.29a1.003 1.003 0 0 1 1.42-1.42L13 8.59l2.29-2.29c.18-.19.43-.3.71-.3a1.003 1.003 0 0 1 .71 1.71L14.41 10l2.3 2.29z" clip-rule="evenodd"/></svg>