<?xml version="1.0" encoding="utf-8"?>
<!-- Generator: Adobe Illustrator 18.0.0, SVG Export Plug-In . SVG Version: 6.00 Build 0)  -->
<svg version="1.1" id="Layer_1" xmlns="http://www.w3.org/2000/svg" xmlns:xlink="http://www.w3.org/1999/xlink" x="0px" y="0px"
	 viewBox="0 0 20 20" enable-background="new 0 0 20 20" xml:space="preserve">
<g id="backspace_4_">
	<g>
		<path fill-rule="evenodd" clip-rule="evenodd" d="M19,3H7C6.72,3,6.47,3.11,6.29,3.29l-6,6C0.11,9.47,0,9.72,0,10
			c0,0.28,0.11,0.53,0.29,0.71l6,6C6.47,16.89,6.72,17,7,17h12c0.55,0,1-0.45,1-1V4C20,3.45,19.55,3,19,3z M16.71,12.29
			C16.89,12.47,17,12.72,17,13c0,0.55-0.45,1-1,1c-0.28,0-0.53-0.11-0.71-0.29L13,11.41l-2.29,2.29C10.53,13.89,10.28,14,10,14
			c-0.55,0-1-0.45-1-1c0-0.28,0.11-0.53,0.29-0.71L11.59,10L9.29,7.71C9.11,7.53,9,7.28,9,7c0-0.55,0.45-1,1-1
			c0.28,0,0.53,0.11,0.71,0.29L13,8.59l2.29-2.29C15.47,6.11,15.72,6,16,6c0.55,0,1,0.45,1,1c0,0.28-0.11,0.53-0.29,0.71L14.41,10
			L16.71,12.29z"/>
	</g>
</g>
</svg>
