<svg xmlns="http://www.w3.org/2000/svg" xml:space="preserve" viewBox="0 0 20 20"><path fill-rule="evenodd" d="M15.5 12H14V8h1.5C17.43 8 19 6.43 19 4.5S17.43 1 15.5 1 12 2.57 12 4.5V6H8V4.5C8 2.57 6.43 1 4.5 1S1 2.57 1 4.5 2.57 8 4.5 8H6v4H4.5C2.57 12 1 13.57 1 15.5S2.57 19 4.5 19 8 17.43 8 15.5V14h4v1.5c0 1.93 1.57 3.5 3.5 3.5s3.5-1.57 3.5-3.5-1.57-3.5-3.5-3.5zm0-9c.83 0 1.5.67 1.5 1.5S16.33 6 15.5 6 14 5.33 14 4.5 14.67 3 15.5 3zm-11 14c-.83 0-1.5-.67-1.5-1.5S3.67 14 4.5 14s1.5.67 1.5 1.5S5.33 17 4.5 17zm0-11C3.67 6 3 5.33 3 4.5S3.67 3 4.5 3 6 3.67 6 4.5 5.33 6 4.5 6zm7.5 6H8V8h4v4zm3.5 5c-.83 0-1.5-.67-1.5-1.5s.67-1.5 1.5-1.5 1.5.67 1.5 1.5-.67 1.5-1.5 1.5z" clip-rule="evenodd"/></svg>