<?xml version="1.0" encoding="utf-8"?>
<!-- Generator: Adobe Illustrator 18.0.0, SVG Export Plug-In . SVG Version: 6.00 Build 0)  -->
<svg version="1.1" id="Layer_1" xmlns="http://www.w3.org/2000/svg" xmlns:xlink="http://www.w3.org/1999/xlink" x="0px" y="0px"
	 viewBox="0 0 20 20" enable-background="new 0 0 20 20" xml:space="preserve">
<g id="key:_option">
	<g>
		<path fill-rule="evenodd" clip-rule="evenodd" d="M13,4h6c0.55,0,1-0.45,1-1c0-0.55-0.45-1-1-1h-6c-0.55,0-1,0.45-1,1
			C12,3.55,12.45,4,13,4z M19,16h-4.42L6.87,2.5L6.85,2.51C6.68,2.21,6.37,2,6,2H1C0.45,2,0,2.45,0,3c0,0.55,0.45,1,1,1h4.42
			l7.71,13.5l0.01-0.01C13.32,17.79,13.63,18,14,18h5c0.55,0,1-0.45,1-1C20,16.45,19.55,16,19,16z"/>
	</g>
</g>
</svg>
