<?xml version="1.0" encoding="utf-8"?>
<!-- Generator: Adobe Illustrator 18.0.0, SVG Export Plug-In . SVG Version: 6.00 Build 0)  -->
<svg version="1.1" id="Layer_1" xmlns="http://www.w3.org/2000/svg" xmlns:xlink="http://www.w3.org/1999/xlink" x="0px" y="0px"
	 viewBox="0 0 20 20" enable-background="new 0 0 20 20" xml:space="preserve">
<g id="key_shift_1_">
	<g>
		<path fill-rule="evenodd" clip-rule="evenodd" d="M17.74,10.35L17.74,10.35l-6.99-8.01l-0.01,0.01C10.56,2.14,10.3,2,10,2
			S9.44,2.14,9.26,2.35L9.25,2.34l-7,8l0.01,0.01C2.1,10.52,2,10.75,2,11c0,0.55,0.45,1,1,1h3v5c0,0.55,0.45,1,1,1h6
			c0.55,0,1-0.45,1-1v-5h3c0.55,0,1-0.45,1-1C18,10.75,17.9,10.52,17.74,10.35z"/>
	</g>
</g>
</svg>
