<?xml version="1.0" encoding="utf-8"?>
<!-- Generator: Adobe Illustrator 18.0.0, SVG Export Plug-In . SVG Version: 6.00 Build 0)  -->
<svg version="1.1" id="Layer_1" xmlns="http://www.w3.org/2000/svg" xmlns:xlink="http://www.w3.org/1999/xlink" x="0px" y="0px"
	 viewBox="0 0 20 20" enable-background="new 0 0 20 20" xml:space="preserve">
<g id="key_command">
	<g>
		<path fill-rule="evenodd" clip-rule="evenodd" d="M15.5,12H14V8h1.5C17.43,8,19,6.43,19,4.5S17.43,1,15.5,1S12,2.57,12,4.5V6H8
			V4.5C8,2.57,6.43,1,4.5,1S1,2.57,1,4.5S2.57,8,4.5,8H6v4H4.5C2.57,12,1,13.57,1,15.5S2.57,19,4.5,19S8,17.43,8,15.5V14h4v1.5
			c0,1.93,1.57,3.5,3.5,3.5s3.5-1.57,3.5-3.5S17.43,12,15.5,12z M15.5,3C16.33,3,17,3.67,17,4.5S16.33,6,15.5,6S14,5.33,14,4.5
			S14.67,3,15.5,3z M4.5,17C3.67,17,3,16.33,3,15.5S3.67,14,4.5,14S6,14.67,6,15.5S5.33,17,4.5,17z M4.5,6C3.67,6,3,5.33,3,4.5
			S3.67,3,4.5,3S6,3.67,6,4.5S5.33,6,4.5,6z M12,12H8V8h4V12z M15.5,17c-0.83,0-1.5-0.67-1.5-1.5s0.67-1.5,1.5-1.5s1.5,0.67,1.5,1.5
			S16.33,17,15.5,17z"/>
	</g>
</g>
</svg>
