<?xml version="1.0" encoding="utf-8"?>
<!-- Generator: Adobe Illustrator 18.0.0, SVG Export Plug-In . SVG Version: 6.00 Build 0)  -->
<svg version="1.1" id="Layer_1" xmlns="http://www.w3.org/2000/svg" xmlns:xlink="http://www.w3.org/1999/xlink" x="0px" y="0px"
	 viewBox="0 0 20 20" enable-background="new 0 0 20 20" xml:space="preserve">
<g id="key_tab_1_">
	<g>
		<path fill-rule="evenodd" clip-rule="evenodd" d="M19,13H4.41l2.29-2.29C6.89,10.53,7,10.28,7,10c0-0.55-0.45-1-1-1
			C5.72,9,5.47,9.11,5.29,9.29L2,12.59V10c0-0.55-0.45-1-1-1s-1,0.45-1,1v8c0,0.55,0.45,1,1,1s1-0.45,1-1v-2.59l3.29,3.29
			C5.47,18.89,5.72,19,6,19c0.55,0,1-0.45,1-1c0-0.28-0.11-0.53-0.29-0.71L4.41,15H19c0.55,0,1-0.45,1-1C20,13.45,19.55,13,19,13z
			 M19,1c-0.55,0-1,0.45-1,1v2.59l-3.29-3.29C14.53,1.11,14.28,1,14,1c-0.55,0-1,0.45-1,1c0,0.28,0.11,0.53,0.29,0.71L15.59,5H1
			C0.45,5,0,5.45,0,6c0,0.55,0.45,1,1,1h14.59l-2.29,2.29C13.11,9.47,13,9.72,13,10c0,0.55,0.45,1,1,1c0.28,0,0.53-0.11,0.71-0.29
			L18,7.41V10c0,0.55,0.45,1,1,1s1-0.45,1-1V2C20,1.45,19.55,1,19,1z"/>
	</g>
</g>
</svg>
