<?xml version="1.0" encoding="utf-8"?>
<!-- Generator: Adobe Illustrator 18.0.0, SVG Export Plug-In . SVG Version: 6.00 Build 0)  -->
<svg version="1.1" id="Layer_1" xmlns="http://www.w3.org/2000/svg" xmlns:xlink="http://www.w3.org/1999/xlink" x="0px" y="0px"
	 viewBox="0 0 20 20" enable-background="new 0 0 20 20" xml:space="preserve">
<g id="key_2_">
	<g>
		<path fill-rule="evenodd" clip-rule="evenodd" d="M14,0c-3.31,0-6,2.69-6,6c0,1.11,0.32,2.14,0.85,3.03l-8.41,8.41
			C0.17,17.71,0,18.09,0,18.5C0,19.33,0.67,20,1.5,20c0.41,0,0.79-0.17,1.06-0.44l0.79-0.79l0.94,0.94C4.47,19.89,4.72,20,5,20
			s0.53-0.11,0.71-0.29l3-3C8.89,16.53,9,16.28,9,16c0-0.28-0.11-0.53-0.29-0.71l-0.94-0.94l3.2-3.2C11.86,11.68,12.89,12,14,12
			c3.31,0,6-2.69,6-6S17.31,0,14,0z M14,9c-1.66,0-3-1.34-3-3s1.34-3,3-3s3,1.34,3,3S15.66,9,14,9z"/>
	</g>
</g>
</svg>
