<?xml version="1.0" encoding="utf-8"?>
<!-- Generator: Adobe Illustrator 18.0.0, SVG Export Plug-In . SVG Version: 6.00 Build 0)  -->
<svg version="1.1" id="Layer_1" xmlns="http://www.w3.org/2000/svg" xmlns:xlink="http://www.w3.org/1999/xlink" x="0px" y="0px"
	 viewBox="0 0 20 20" enable-background="new 0 0 20 20" xml:space="preserve">
<g id="known_vehicle_1_">
	<g>
		<path fill-rule="evenodd" clip-rule="evenodd" d="M19,4c-0.276123,0-0.526123,0.1119385-0.7070923,0.2929077L14,8.5858154
			l-2.2929077-2.2929077C11.526123,6.1119385,11.276123,6,11,6c-0.5523071,0-1,0.4477539-1,1
			c0,0.2761841,0.1119385,0.5261841,0.2929077,0.7070923l3,3.000061C13.473877,10.8880615,13.723877,11,14,11
			s0.526123-0.1119385,0.7070923-0.2928467l5-5.000061C19.8880615,5.5261841,20,5.2761841,20,5C20,4.4477539,19.5523071,4,19,4z
			 M16.9515381,11.2911377C16.9632568,11.3625488,17,11.4246826,17,11.4997559c0,0.8284302-0.6715698,1.500061-1.5,1.500061
			c-0.2245483,0-0.4328003-0.0565186-0.6240234-0.1449585C14.597168,12.9404907,14.3068848,13,14,13
			c-0.8284302,0-1.5784302-0.3357544-2.1213379-0.8786621l-3-3l0.0076294-0.0076294
			c-0.309021-0.3123779-0.5523071-0.6907349-0.7026978-1.1140747H4v-1.000061l1-3.000061h10l0.1894531,0.5684204
			l1.3080444-1.3080444c-0.3360596-0.3562622-0.7588501-0.6582031-1.1655273-0.7722168c0,0-1.7393799-0.4876099-5.3319702-0.4876099
			S4.6680298,2.4876709,4.6680298,2.4876709C3.9973755,2.6756592,3.2440186,3.3518066,2.9937134,3.9902954L2.9901123,3.9995117H3
			c0,0-0.5,1.5001221-1,3.000061H1c-0.5523071,0-1,0.4477539-1,1.000061c0,0.5522461,0.4476929,1.000061,1,1.000061h0.333313
			c-0.1235962,0.3709106-0.2233887,0.670105-0.2800903,0.84021C1.0189819,9.9428101,1,9.9996948,1,9.9996948v7.5002441
			C1,18.3283691,1.6715698,19,2.5,19C3.3283691,19,4,18.3283691,4,17.499939v-0.5h12v0.5C16,18.3283691,16.6716309,19,17.5,19
			c0.8284302,0,1.5-0.6716309,1.5-1.500061V9.9996948l-0.18927-0.5678101L16.9515381,11.2911377z M4.5,12.9998169
			c-0.8284302,0-1.5-0.6716309-1.5-1.500061s0.6715698-1.500061,1.5-1.500061c0.8283691,0,1.5,0.6716309,1.5,1.500061
			S5.3283691,12.9998169,4.5,12.9998169z"/>
	</g>
</g>
</svg>
