<svg xmlns="http://www.w3.org/2000/svg" xml:space="preserve" viewBox="0 0 20 20"><path d="m.5 6.9 9 5c.2.1.3.1.5.1s.3 0 .5-.1l9-5c.3-.2.5-.5.5-.9s-.2-.7-.5-.9l-9-5c-.2-.1-.3-.1-.5-.1s-.3 0-.5.1l-9 5c-.3.2-.5.5-.5.9s.2.7.5.9z"/><path d="M19 9c-.2 0-.3 0-.5.1L10 13.9 1.5 9.1C1.3 9 1.2 9 1 9c-.6 0-1 .4-1 1 0 .4.2.7.5.9l9 5c.2.1.3.1.5.1s.3 0 .5-.1l9-5c.3-.2.5-.5.5-.9 0-.6-.4-1-1-1z"/><path d="M19 13c-.2 0-.3 0-.5.1L10 17.9l-8.5-4.7c-.2-.2-.3-.2-.5-.2-.6 0-1 .4-1 1 0 .4.2.7.5.9l9 5c.2.1.3.1.5.1s.3 0 .5-.1l9-5c.3-.2.5-.5.5-.9 0-.6-.4-1-1-1z"/></svg>