<?xml version="1.0" encoding="utf-8"?>
<!-- Generator: Adobe Illustrator 17.1.0, SVG Export Plug-In . SVG Version: 6.00 Build 0)  -->
<!DOCTYPE svg PUBLIC "-//W3C//DTD SVG 1.1//EN" "http://www.w3.org/Graphics/SVG/1.1/DTD/svg11.dtd">
<svg version="1.1" id="Layer_1" xmlns="http://www.w3.org/2000/svg" xmlns:xlink="http://www.w3.org/1999/xlink" x="0px" y="0px"
	 viewBox="0 0 20 20" enable-background="new 0 0 20 20" xml:space="preserve">
<g>
	<path d="M0.5,6.9L0.5,6.9l9,5l0,0C9.7,12,9.8,12,10,12s0.3,0,0.5-0.1l0,0l9-5l0,0C19.8,6.7,20,6.4,20,6c0-0.4-0.2-0.7-0.5-0.9l0,0
		l-9-5l0,0C10.3,0,10.2,0,10,0S9.7,0,9.5,0.1l0,0l-9,5l0,0C0.2,5.3,0,5.6,0,6C0,6.4,0.2,6.7,0.5,6.9z"/>
	<path d="M19,9c-0.2,0-0.3,0-0.5,0.1l0,0L10,13.9L1.5,9.1l0,0C1.3,9,1.2,9,1,9c-0.6,0-1,0.4-1,1c0,0.4,0.2,0.7,0.5,0.9l0,0l9,5l0,0
		C9.7,16,9.8,16,10,16s0.3,0,0.5-0.1l0,0l9-5l0,0c0.3-0.2,0.5-0.5,0.5-0.9C20,9.4,19.6,9,19,9z"/>
	<path d="M19,13c-0.2,0-0.3,0-0.5,0.1l0,0L10,17.9l-8.5-4.7l0,0C1.3,13,1.2,13,1,13c-0.6,0-1,0.4-1,1c0,0.4,0.2,0.7,0.5,0.9l0,0l9,5
		l0,0C9.7,20,9.8,20,10,20s0.3,0,0.5-0.1l0,0l9-5l0,0c0.3-0.2,0.5-0.5,0.5-0.9C20,13.4,19.6,13,19,13z"/>
</g>
</svg>
