<?xml version="1.0" encoding="utf-8"?>
<!-- Generator: Adobe Illustrator 18.1.0, SVG Export Plug-In . SVG Version: 6.00 Build 0)  -->
<svg version="1.1" id="Layer_1" xmlns="http://www.w3.org/2000/svg" xmlns:xlink="http://www.w3.org/1999/xlink" x="0px" y="0px"
	 viewBox="0 0 20 20" enable-background="new 0 0 20 20" xml:space="preserve">
<g id="layout_balloon">
	<g>
		<path d="M18,16c-0.14,0-0.28,0.02-0.42,0.05l-1.73-3.45c0.69-0.45,1.14-1.22,1.14-2.1s-0.46-1.65-1.14-2.1l1.73-3.45
			C17.72,4.98,17.86,5,18,5c1.1,0,2-0.9,2-2s-0.9-2-2-2s-2,0.9-2,2c0,0.6,0.27,1.13,0.69,1.5l-1.77,3.54C14.78,8.02,14.64,8,14.5,8
			c-1.21,0-2.22,0.86-2.45,2h-4.1C7.72,8.86,6.71,8,5.5,8C5.36,8,5.22,8.02,5.08,8.04L3.31,4.5C3.73,4.13,4,3.6,4,3c0-1.1-0.9-2-2-2
			S0,1.9,0,3s0.9,2,2,2c0.14,0,0.28-0.02,0.42-0.05L4.14,8.4C3.46,8.85,3,9.62,3,10.5s0.46,1.65,1.14,2.1l-1.73,3.45
			C2.28,16.02,2.14,16,2,16c-1.1,0-2,0.9-2,2s0.9,2,2,2s2-0.9,2-2c0-0.6-0.27-1.13-0.69-1.5l1.77-3.54C5.22,12.98,5.36,13,5.5,13
			c1.21,0,2.22-0.86,2.45-2h4.1c0.23,1.14,1.24,2,2.45,2c0.14,0,0.28-0.02,0.42-0.04l1.77,3.54C16.27,16.87,16,17.4,16,18
			c0,1.1,0.9,2,2,2s2-0.9,2-2S19.1,16,18,16z"/>
	</g>
</g>
</svg>
