<svg xmlns="http://www.w3.org/2000/svg" xml:space="preserve" viewBox="0 0 20 20"><path fill-rule="evenodd" d="M18.3 8c-.2-.9-.6-1.7-1.1-2.5.2-.3.3-.7.3-1 0-1.1-.9-2-2-2-.4 0-.7.1-1 .3-.8-.5-1.6-.8-2.5-1.1-.1-1-1-1.7-2-1.7S8.2.8 8 1.7c-.9.3-1.7.6-2.5 1.1-.3-.2-.7-.3-1-.3-1.1 0-2 .9-2 2 0 .4.1.7.3 1-.5.8-.8 1.6-1.1 2.5C.8 8.2 0 9 0 10s.8 1.8 1.7 2c.2.9.6 1.7 1.1 2.5-.2.3-.3.7-.3 1 0 1.1.9 2 2 2 .4 0 .7-.1 1-.3.8.5 1.6.8 2.5 1.1.1 1 1 1.7 2 1.7s1.8-.8 2-1.7c.9-.2 1.7-.6 2.5-1.1.3.2.7.3 1 .3 1.1 0 2-.9 2-2 0-.4-.1-.7-.3-1 .5-.8.8-1.6 1.1-2.5 1-.1 1.7-1 1.7-2s-.8-1.8-1.7-2zm-1.8 5.8c-.3-.2-.6-.3-1-.3-1.1 0-2 .9-2 2 0 .4.1.7.3 1-.6.3-1.2.6-1.9.8-.3-.7-1-1.3-1.9-1.3-.8 0-1.6.5-1.9 1.3-.7-.2-1.3-.4-1.9-.8.2-.3.3-.6.3-1 0-1.1-.9-2-2-2-.4 0-.7.1-1 .3-.3-.6-.6-1.2-.8-1.9.8-.3 1.3-1.1 1.3-1.9s-.5-1.6-1.2-1.8c.2-.7.4-1.3.8-1.9.3.2.6.3 1 .3 1.1 0 2-.9 2-2 0-.4-.1-.7-.3-1 .6-.3 1.2-.6 1.9-.8.2.7 1 1.2 1.8 1.2s1.6-.5 1.9-1.3c.7.2 1.3.4 1.9.8-.2.3-.3.6-.3 1 0 1.1.9 2 2 2 .4 0 .7-.1 1-.3.3.6.6 1.2.8 1.9-.8.3-1.3 1.1-1.3 1.9s.5 1.6 1.2 1.8c-.1.7-.4 1.4-.7 2z" clip-rule="evenodd"/></svg>