<svg xmlns="http://www.w3.org/2000/svg" xml:space="preserve" viewBox="0 0 20 20"><path fill-rule="evenodd" d="M18 6c-1.1 0-2 .9-2 2 0 .37.11.71.28 1.01l-2.27 2.27c-.3-.17-.64-.28-1.01-.28-.93 0-1.71.64-1.93 1.5H8.93c-.22-.86-1-1.5-1.93-1.5-.37 0-.71.11-1.01.28L3.72 9.01C3.89 8.71 4 8.37 4 8c0-.34-.09-.66-.24-.94l3.66-3.38c.31.2.68.32 1.08.32 1.1 0 2-.9 2-2s-.9-2-2-2-2 .9-2 2c0 .34.09.66.24.94L3.08 6.32C2.77 6.12 2.4 6 2 6 .9 6 0 6.9 0 8s.9 2 2 2c.37 0 .71-.11 1.01-.28l2.27 2.27c-.17.3-.28.64-.28 1.01s.11.71.28 1.01l-2.27 2.27C2.71 16.11 2.37 16 2 16c-1.1 0-2 .9-2 2s.9 2 2 2 2-.9 2-2c0-.37-.11-.71-.28-1.01l2.27-2.27c.3.17.64.28 1.01.28.93 0 1.71-.64 1.93-1.5h2.14c.22.86 1 1.5 1.93 1.5 1.1 0 2-.9 2-2 0-.37-.11-.71-.28-1.01l2.27-2.27c.3.17.64.28 1.01.28 1.1 0 2-.9 2-2s-.9-2-2-2z" clip-rule="evenodd"/></svg>