<svg xmlns="http://www.w3.org/2000/svg" xml:space="preserve" viewBox="0 0 20 20"><path d="M18 16c-.14 0-.28.02-.42.05l-1.73-3.45c.69-.45 1.14-1.22 1.14-2.1s-.46-1.65-1.14-2.1l1.73-3.45c.14.03.28.05.42.05 1.1 0 2-.9 2-2s-.9-2-2-2-2 .9-2 2c0 .6.27 1.13.69 1.5l-1.77 3.54c-.14-.02-.28-.04-.42-.04a2.5 2.5 0 0 0-2.45 2h-4.1A2.5 2.5 0 0 0 5.5 8c-.14 0-.28.02-.42.04L3.31 4.5C3.73 4.13 4 3.6 4 3c0-1.1-.9-2-2-2s-2 .9-2 2 .9 2 2 2c.14 0 .28-.02.42-.05L4.14 8.4C3.46 8.85 3 9.62 3 10.5s.46 1.65 1.14 2.1l-1.73 3.45A1.84 1.84 0 0 0 2 16c-1.1 0-2 .9-2 2s.9 2 2 2 2-.9 2-2c0-.6-.27-1.13-.69-1.5l1.77-3.54c.14.02.28.04.42.04a2.5 2.5 0 0 0 2.45-2h4.1a2.5 2.5 0 0 0 2.45 2c.14 0 .28-.02.42-.04l1.77 3.54c-.42.37-.69.9-.69 1.5 0 1.1.9 2 2 2s2-.9 2-2-.9-2-2-2z"/></svg>