<?xml version="1.0" encoding="utf-8"?>
<!-- Generator: Adobe Illustrator 18.1.0, SVG Export Plug-In . SVG Version: 6.00 Build 0)  -->
<svg version="1.1" id="Layer_1" xmlns="http://www.w3.org/2000/svg" xmlns:xlink="http://www.w3.org/1999/xlink" x="0px" y="0px"
	 viewBox="0 0 20 20" enable-background="new 0 0 20 20" xml:space="preserve">
<g id="layout_auto_3_">
	<g>
		<path d="M18,13c-0.53,0-1.01,0.21-1.37,0.55L11.9,10.6c0.06-0.19,0.1-0.39,0.1-0.6s-0.04-0.41-0.1-0.6l4.72-2.95
			C16.99,6.79,17.47,7,18,7c1.1,0,2-0.9,2-2c0-1.1-0.9-2-2-2s-2,0.9-2,2c0,0.21,0.04,0.41,0.1,0.6l-4.73,2.96
			c-0.24-0.23-0.54-0.4-0.87-0.48V3.93C11.36,3.71,12,2.93,12,2c0-1.1-0.9-2-2-2S8,0.9,8,2c0,0.93,0.64,1.71,1.5,1.93v4.14
			C9.17,8.16,8.87,8.33,8.63,8.55L3.9,5.6C3.96,5.41,4,5.21,4,5c0-1.1-0.9-2-2-2S0,3.9,0,5c0,1.1,0.9,2,2,2
			c0.53,0,1.01-0.21,1.37-0.55L8.1,9.4C8.04,9.59,8,9.79,8,10s0.04,0.41,0.1,0.6l-4.72,2.95C3.01,13.21,2.53,13,2,13
			c-1.1,0-2,0.9-2,2c0,1.1,0.9,2,2,2s2-0.9,2-2c0-0.21-0.04-0.41-0.1-0.6l4.73-2.96c0.24,0.23,0.54,0.4,0.87,0.48v4.14
			C8.64,16.29,8,17.07,8,18c0,1.1,0.9,2,2,2s2-0.9,2-2c0-0.93-0.64-1.71-1.5-1.93v-4.14c0.33-0.09,0.63-0.26,0.87-0.48l4.73,2.96
			C16.04,14.59,16,14.79,16,15c0,1.1,0.9,2,2,2s2-0.9,2-2C20,13.9,19.1,13,18,13z"/>
	</g>
</g>
</svg>
