<?xml version="1.0" encoding="utf-8"?>
<!-- Generator: Adobe Illustrator 17.1.0, SVG Export Plug-In . SVG Version: 6.00 Build 0)  -->
<!DOCTYPE svg PUBLIC "-//W3C//DTD SVG 1.1//EN" "http://www.w3.org/Graphics/SVG/1.1/DTD/svg11.dtd">
<svg version="1.1" id="Layer_1" xmlns="http://www.w3.org/2000/svg" xmlns:xlink="http://www.w3.org/1999/xlink" x="0px" y="0px"
	 viewBox="0 0 20 20" enable-background="new 0 0 20 20" xml:space="preserve">
<g id="layout_1_">
	<g>
		<path fill-rule="evenodd" clip-rule="evenodd" d="M18,6c-1.1,0-2,0.9-2,2c0,0.37,0.11,0.71,0.28,1.01l-2.27,2.27
			C13.71,11.11,13.37,11,13,11c-0.93,0-1.71,0.64-1.93,1.5H8.93C8.71,11.64,7.93,11,7,11c-0.37,0-0.71,0.11-1.01,0.28L3.72,9.01
			C3.89,8.71,4,8.37,4,8c0-0.34-0.09-0.66-0.24-0.94l3.66-3.38C7.73,3.88,8.1,4,8.5,4c1.1,0,2-0.9,2-2c0-1.1-0.9-2-2-2s-2,0.9-2,2
			c0,0.34,0.09,0.66,0.24,0.94L3.08,6.32C2.77,6.12,2.4,6,2,6C0.9,6,0,6.9,0,8c0,1.1,0.9,2,2,2c0.37,0,0.71-0.11,1.01-0.28
			l2.27,2.27C5.11,12.29,5,12.63,5,13s0.11,0.71,0.28,1.01l-2.27,2.27C2.71,16.11,2.37,16,2,16c-1.1,0-2,0.9-2,2c0,1.1,0.9,2,2,2
			s2-0.9,2-2c0-0.37-0.11-0.71-0.28-1.01l2.27-2.27C6.29,14.89,6.63,15,7,15c0.93,0,1.71-0.64,1.93-1.5h2.14
			c0.22,0.86,1,1.5,1.93,1.5c1.1,0,2-0.9,2-2c0-0.37-0.11-0.71-0.28-1.01l2.27-2.27C17.29,9.89,17.63,10,18,10c1.1,0,2-0.9,2-2
			C20,6.9,19.1,6,18,6z"/>
	</g>
</g>
</svg>
