<svg xmlns="http://www.w3.org/2000/svg" xml:space="preserve" viewBox="0 0 20 20"><path d="M18 13c-.53 0-1.01.21-1.37.55L11.9 10.6c.06-.19.1-.39.1-.6s-.04-.41-.1-.6l4.72-2.95c.37.34.85.55 1.38.55 1.1 0 2-.9 2-2s-.9-2-2-2-2 .9-2 2c0 .21.04.41.1.6l-4.73 2.96c-.24-.23-.54-.4-.87-.48V3.93c.86-.22 1.5-1 1.5-1.93 0-1.1-.9-2-2-2S8 .9 8 2c0 .93.64 1.71 1.5 1.93v4.14c-.33.09-.63.26-.87.48L3.9 5.6c.06-.19.1-.39.1-.6 0-1.1-.9-2-2-2s-2 .9-2 2 .9 2 2 2c.53 0 1.01-.21 1.37-.55L8.1 9.4c-.06.19-.1.39-.1.6s.04.41.1.6l-4.72 2.95C3.01 13.21 2.53 13 2 13c-1.1 0-2 .9-2 2s.9 2 2 2 2-.9 2-2c0-.21-.04-.41-.1-.6l4.73-2.96c.24.23.54.4.87.48v4.14C8.64 16.29 8 17.07 8 18c0 1.1.9 2 2 2s2-.9 2-2c0-.93-.64-1.71-1.5-1.93v-4.14c.33-.09.63-.26.87-.48l4.73 2.96c-.06.18-.1.38-.1.59 0 1.1.9 2 2 2s2-.9 2-2-.9-2-2-2z"/></svg>