<?xml version="1.0" encoding="utf-8"?>
<!-- Generator: Adobe Illustrator 17.1.0, SVG Export Plug-In . SVG Version: 6.00 Build 0)  -->
<!DOCTYPE svg PUBLIC "-//W3C//DTD SVG 1.1//EN" "http://www.w3.org/Graphics/SVG/1.1/DTD/svg11.dtd">
<svg version="1.1" id="icon-layout-circle" xmlns="http://www.w3.org/2000/svg" xmlns:xlink="http://www.w3.org/1999/xlink" x="0px"
	 y="0px" viewBox="0 0 20 20" enable-background="new 0 0 20 20" xml:space="preserve">
<g id="circle">
	<g>
		<path fill-rule="evenodd" clip-rule="evenodd" d="M18.3,8c-0.2-0.9-0.6-1.7-1.1-2.5c0.2-0.3,0.3-0.7,0.3-1c0-1.1-0.9-2-2-2
			c-0.4,0-0.7,0.1-1,0.3C13.7,2.3,12.9,2,12,1.7c-0.1-1-1-1.7-2-1.7C9,0,8.2,0.8,8,1.7C7.1,2,6.3,2.3,5.5,2.8
			c-0.3-0.2-0.7-0.3-1-0.3c-1.1,0-2,0.9-2,2c0,0.4,0.1,0.7,0.3,1C2.3,6.3,2,7.1,1.7,8C0.8,8.2,0,9,0,10c0,1,0.8,1.8,1.7,2
			c0.2,0.9,0.6,1.7,1.1,2.5c-0.2,0.3-0.3,0.7-0.3,1c0,1.1,0.9,2,2,2c0.4,0,0.7-0.1,1-0.3C6.3,17.7,7.1,18,8,18.3c0.1,1,1,1.7,2,1.7
			c1,0,1.8-0.8,2-1.7c0.9-0.2,1.7-0.6,2.5-1.1c0.3,0.2,0.7,0.3,1,0.3c1.1,0,2-0.9,2-2c0-0.4-0.1-0.7-0.3-1c0.5-0.8,0.8-1.6,1.1-2.5
			c1-0.1,1.7-1,1.7-2C20,9,19.2,8.2,18.3,8z M16.5,13.8c-0.3-0.2-0.6-0.3-1-0.3c-1.1,0-2,0.9-2,2c0,0.4,0.1,0.7,0.3,1
			c-0.6,0.3-1.2,0.6-1.9,0.8c-0.3-0.7-1-1.3-1.9-1.3c-0.8,0-1.6,0.5-1.9,1.3c-0.7-0.2-1.3-0.4-1.9-0.8c0.2-0.3,0.3-0.6,0.3-1
			c0-1.1-0.9-2-2-2c-0.4,0-0.7,0.1-1,0.3c-0.3-0.6-0.6-1.2-0.8-1.9C3.5,11.6,4,10.8,4,10S3.5,8.4,2.8,8.2c0.2-0.7,0.4-1.3,0.8-1.9
			c0.3,0.2,0.6,0.3,1,0.3c1.1,0,2-0.9,2-2c0-0.4-0.1-0.7-0.3-1c0.6-0.3,1.2-0.6,1.9-0.8C8.4,3.5,9.2,4,10,4c0.8,0,1.6-0.5,1.9-1.3
			c0.7,0.2,1.3,0.4,1.9,0.8c-0.2,0.3-0.3,0.6-0.3,1c0,1.1,0.9,2,2,2c0.4,0,0.7-0.1,1-0.3c0.3,0.6,0.6,1.2,0.8,1.9
			C16.5,8.4,16,9.2,16,10s0.5,1.6,1.2,1.8C17.1,12.5,16.8,13.2,16.5,13.8z"/>
	</g>
</g>
</svg>
