<?xml version="1.0" encoding="utf-8"?>
<!-- Generator: Adobe Illustrator 17.1.0, SVG Export Plug-In . SVG Version: 6.00 Build 0)  -->
<!DOCTYPE svg PUBLIC "-//W3C//DTD SVG 1.1//EN" "http://www.w3.org/Graphics/SVG/1.1/DTD/svg11.dtd">
<svg version="1.1" id="Rectangle_4_1_" xmlns="http://www.w3.org/2000/svg" xmlns:xlink="http://www.w3.org/1999/xlink" x="0px"
	 y="0px" viewBox="0 0 20 20" enable-background="new 0 0 20 20" xml:space="preserve">
<g id="Rectangle_4">
	<g>
		<path fill-rule="evenodd" clip-rule="evenodd" d="M18.5,16.07v-4.14c0.86-0.22,1.5-1,1.5-1.93c0-1.1-0.9-2-2-2
			c-0.93,0-1.71,0.64-1.93,1.5h-4.14c-0.18-0.7-0.73-1.25-1.43-1.43V3.93C11.36,3.71,12,2.93,12,2c0-1.1-0.9-2-2-2S8,0.9,8,2
			c0,0.93,0.64,1.71,1.5,1.93v4.14C8.8,8.25,8.25,8.8,8.07,9.5H3.93C3.71,8.64,2.93,8,2,8c-1.1,0-2,0.9-2,2
			c0,0.93,0.64,1.71,1.5,1.93v4.14C0.64,16.29,0,17.07,0,18c0,1.1,0.9,2,2,2s2-0.9,2-2c0-0.93-0.64-1.71-1.5-1.93v-4.14
			c0.7-0.18,1.25-0.73,1.43-1.43h4.14c0.18,0.7,0.73,1.25,1.43,1.43v4.14C8.64,16.29,8,17.07,8,18c0,1.1,0.9,2,2,2s2-0.9,2-2
			c0-0.93-0.64-1.71-1.5-1.93v-4.14c0.7-0.18,1.25-0.73,1.43-1.43h4.14c0.18,0.7,0.73,1.25,1.43,1.43v4.14
			c-0.86,0.22-1.5,1-1.5,1.93c0,1.1,0.9,2,2,2s2-0.9,2-2C20,17.07,19.36,16.29,18.5,16.07z"/>
	</g>
</g>
</svg>
