<?xml version="1.0" encoding="utf-8"?>
<!-- Generator: Adobe Illustrator 18.1.0, SVG Export Plug-In . SVG Version: 6.00 Build 0)  -->
<svg version="1.1" id="Layer_1" xmlns="http://www.w3.org/2000/svg" xmlns:xlink="http://www.w3.org/1999/xlink" x="0px" y="0px"
	 viewBox="0 0 20 20" enable-background="new 0 0 20 20" xml:space="preserve">
<g id="layout_linear">
	<g>
		<path fill-rule="evenodd" clip-rule="evenodd" d="M16.5,7c-1.21,0-2.22,0.86-2.45,2h-2.1c-0.23-1.14-1.24-2-2.45-2
			S7.28,7.86,7.05,9h-2.1C4.72,7.86,3.71,7,2.5,7C1.12,7,0,8.12,0,9.5C0,10.88,1.12,12,2.5,12c1.21,0,2.22-0.86,2.45-2h2.1
			c0.23,1.14,1.24,2,2.45,2s2.22-0.86,2.45-2h2.1c0.23,1.14,1.24,2,2.45,2c1.38,0,2.5-1.12,2.5-2.5C19,8.12,17.88,7,16.5,7z"/>
	</g>
</g>
</svg>
