<?xml version="1.0" encoding="UTF-8"?>
<svg width="20px" height="20px" viewBox="0 0 20 20" version="1.1" xmlns="http://www.w3.org/2000/svg" xmlns:xlink="http://www.w3.org/1999/xlink">
    <!-- Generator: Sketch 58 (84663) - https://sketch.com -->
    <title>pt-icon-learning</title>
    <desc>Created with Sketch.</desc>
    <g id="pt-icon-learning" stroke="none" stroke-width="1" fill="none" fill-rule="evenodd">
        <g id="Group" transform="translate(1.000000, 1.000000)">
            <g id="Group-2-Copy-4"></g>
        </g>
        <g id="Group-2" transform="translate(0.000000, 1.000000)" fill="#000000">
            <path d="M10.5512942,0.127427491 C10.2163859,-0.0424758304 9.78347776,-0.0424758304 9.44875125,0.127427491 L0.456408054,4.88885762 C-0.152136018,5.19787546 -0.152136018,5.80219541 0.456408054,6.11107202 L9.44875125,10.8728892 C9.78347776,11.0427925 10.2163859,11.0427925 10.5512942,10.8728892 L19.5434556,6.11107202 C20.1521815,5.80219541 20.1521815,5.19787546 19.5434556,4.88885762 L10.5512942,0.127427491 Z" id="Fill-1"></path>
            <path d="M18,5.50015833 L18.016461,10.0141954 C18.0184568,10.561517 18.4627102,11.0041533 19.0100355,11.0041533 C19.5567778,11.0041533 20,10.5609311 20,10.0141888 L20,5.50015833 L20,5.50015833 L18,5.50015833 Z" id="Path-5-Copy"></path>
            <path d="M3.36613451,9.03312906 L9.76746928,12.3911021 C9.91287277,12.467377 10.0864583,12.4674013 10.2318832,12.3911672 L16.6380189,9.03296564 C16.7603063,8.9688606 16.9114071,9.01602668 16.9755122,9.13831404 C16.9942846,9.17412453 17.0040913,9.21395387 17.0040913,9.25438648 L17.0040913,14.3630218 C17.0040913,14.4579098 16.9503725,14.5446187 16.8654104,14.5868701 L10.2246838,17.8892827 C10.08445,17.9590206 9.91964136,17.9590206 9.77940754,17.8892827 L3.13868093,14.5868701 C3.05371885,14.5446187 3,14.4579098 3,14.3630218 L3,9.25451735 C3,9.11644616 3.11192881,9.00451735 3.25,9.00451735 C3.29045632,9.00451735 3.3303083,9.01433556 3.36613451,9.03312906 Z" id="Path-3-Copy"></path>
        </g>
    </g>
</svg>