<?xml version="1.0" encoding="utf-8"?>
<!-- Generator: Adobe Illustrator 22.0.1, SVG Export Plug-In . SVG Version: 6.00 Build 0)  -->
<svg version="1.1" id="Layer_1" xmlns="http://www.w3.org/2000/svg" xmlns:xlink="http://www.w3.org/1999/xlink" x="0px" y="0px"
	 viewBox="0 0 20 20" enable-background="new 0 0 20 20" xml:space="preserve">
<g id="join_left_1_">
	<g id="pt-icon-left-join">
		<path id="Shape_10_" d="M8.7,4.7C7.4,6,6.5,7.9,6.5,10s0.8,4,2.2,5.3C7.9,15.8,7,16,6,16c-3.3,0-6-2.7-6-6s2.7-6,6-6
			C7,4,7.9,4.2,8.7,4.7z M14,4c3.3,0,6,2.7,6,6s-2.7,6-6,6c-1,0-1.9-0.2-2.7-0.7c1.3-1.3,2.2-3.2,2.2-5.3s-0.8-3.9-2.2-5.3
			C12.1,4.2,13,4,14,4z M14.6,6.05c0.55,1.2,0.86,2.54,0.86,3.95s-0.31,2.75-0.86,3.95c1.9-0.31,3.36-1.96,3.36-3.95
			S16.5,6.36,14.6,6.05z M10,5.5C8.8,6.7,8,8.2,8,10s0.8,3.3,2,4.4c1.2-1.1,2-2.7,2-4.5S11.2,6.6,10,5.5z"/>
	</g>
</g>
</svg>
