<?xml version="1.0" encoding="UTF-8"?>
<svg width="20px" height="20px" viewBox="0 0 20 20" version="1.1" xmlns="http://www.w3.org/2000/svg" xmlns:xlink="http://www.w3.org/1999/xlink">
    <!-- Generator: Sketch 54.1 (76490) - https://sketchapp.com -->
    <title>less-than-or-equal-to</title>
    <desc>Created with Sketch.</desc>
    <g id="less-than-or-equal-to" stroke="none" stroke-width="1" fill="none" fill-rule="evenodd">
        <path d="M3.68377254,11.051317 L12.8377226,8.0000003 L3.68377254,4.9486836 C3.15982922,4.77403583 2.87666923,4.20771585 3.051317,3.68377254 C3.22596478,3.15982922 3.79228475,2.87666923 4.31622807,3.051317 L16.3162281,7.051317 C17.2279244,7.35521578 17.2279244,8.64478483 16.3162281,8.9486836 L4.31622807,12.9486836 C3.79228475,13.1233314 3.22596478,12.8401714 3.051317,12.3162281 C2.87666923,11.7922847 3.15982922,11.2259648 3.68377254,11.051317 Z M4.0000003,15.0000003 L16.0000003,15.0000003 C16.5522851,15.0000003 17.0000003,15.4477156 17.0000003,16.0000003 C17.0000003,16.5522851 16.5522851,17.0000003 16.0000003,17.0000003 L4.0000003,17.0000003 C3.44771555,17.0000003 3.0000003,16.5522851 3.0000003,16.0000003 C3.0000003,15.4477156 3.44771555,15.0000003 4.0000003,15.0000003 Z" fill="#000000" fill-rule="nonzero" transform="translate(9.999865, 9.999865) scale(-1, 1) translate(-9.999865, -9.999865) "></path>
    </g>
</svg>