<?xml version="1.0" encoding="UTF-8"?>
<svg width="20px" height="20px" viewBox="0 0 20 20" version="1.1" xmlns="http://www.w3.org/2000/svg" xmlns:xlink="http://www.w3.org/1999/xlink">
    <!-- Generator: Sketch 52.4 (67378) - http://www.bohemiancoding.com/sketch -->
    <title>20</title>
    <desc>Created with Sketch.</desc>
    <g id="20" stroke="none" stroke-width="1" fill="none" fill-rule="evenodd">
        <path d="M8.14255275,14.6436181 L7.0280844,17.429789 C7.94688292,17.7976414 8.94980976,18 10,18 C11.0501902,18 12.0531171,17.7976414 12.9719156,17.429789 L11.8574473,14.6436181 C11.2831982,14.8735258 10.6563689,15 10,15 C9.3436311,15 8.71680182,14.8735258 8.14255275,14.6436181 Z M5.35638187,11.8574473 C5.12647415,11.2831982 5,10.6563689 5,10 C5,9.3436311 5.12647415,8.71680182 5.35638187,8.14255275 L2.57021099,7.0280844 C2.20235864,7.94688292 2,8.94980976 2,10 C2,11.0501902 2.20235864,12.0531171 2.57021099,12.9719156 L5.35638187,11.8574473 Z M8.14255275,5.35638187 C8.71680182,5.12647415 9.3436311,5 10,5 C10.6563689,5 11.2831982,5.12647415 11.8574473,5.35638187 L12.9719156,2.57021099 C12.0531171,2.20235864 11.0501902,2 10,2 C8.94980976,2 7.94688292,2.20235864 7.0280844,2.57021099 L8.14255275,5.35638187 Z M14.6436181,8.14255275 C14.8735258,8.71680182 15,9.3436311 15,10 C15,10.6563689 14.8735258,11.2831982 14.6436181,11.8574473 L17.429789,12.9719156 C17.7976414,12.0531171 18,11.0501902 18,10 C18,8.94980976 17.7976414,7.94688292 17.429789,7.0280844 L14.6436181,8.14255275 Z M10,13 C11.6568542,13 13,11.6568542 13,10 C13,8.34314575 11.6568542,7 10,7 C8.34314575,7 7,8.34314575 7,10 C7,11.6568542 8.34314575,13 10,13 Z M10,20 C4.4771525,20 0,15.5228475 0,10 C0,4.4771525 4.4771525,0 10,0 C15.5228475,0 20,4.4771525 20,10 C20,15.5228475 15.5228475,20 10,20 Z" id="Combined-Shape" fill="#000000"></path>
    </g>
</svg>