<?xml version="1.0" encoding="utf-8"?>
<!-- Generator: Adobe Illustrator 18.1.0, SVG Export Plug-In . SVG Version: 6.00 Build 0)  -->
<svg version="1.1" id="Layer_1" xmlns="http://www.w3.org/2000/svg" xmlns:xlink="http://www.w3.org/1999/xlink" x="0px" y="0px"
	 viewBox="0 0 20 20" enable-background="new 0 0 20 20" xml:space="preserve">
<g id="lightbulb_1_">
	<g>
		<path fill-rule="evenodd" clip-rule="evenodd" d="M6.33,13.39c0,0.34,0.27,0.61,0.6,0.61h6.13c0.33,0,0.6-0.27,0.6-0.61
			C14.03,9.78,16,9.4,16,6.09C16,2.72,13.31,0,10,0S4,2.72,4,6.09C4,9.4,5.97,9.78,6.33,13.39L6.33,13.39z M13,15H7
			c-0.55,0-1,0.45-1,1c0,0.55,0.45,1,1,1h6c0.55,0,1-0.45,1-1C14,15.45,13.55,15,13,15z M12,18H8c-0.55,0-1,0.45-1,1
			c0,0.55,0.45,1,1,1h4c0.55,0,1-0.45,1-1C13,18.45,12.55,18,12,18z"/>
	</g>
</g>
</svg>
