<svg width="20" height="20" viewBox="0 0 20 20" fill="none" xmlns="http://www.w3.org/2000/svg">
<path fill-rule="evenodd" clip-rule="evenodd" d="M9 11H6C5.44772 11 5 10.5523 5 10L5.90995 0.900497C5.96107 0.389295 6.39124 0 6.90499 0H13.1615C13.6246 0 14 0.375417 14 0.838517C14 0.945192 13.9796 1.05089 13.94 1.14993L11.2 8H14.178C14.632 8 15 8.368 15 8.82196C15 8.93929 14.9749 9.05527 14.9263 9.16208L10.1621 19.6434C10.0634 19.8606 9.84685 20 9.6083 20C9.27235 20 9 19.7277 9 19.3917V11Z" fill="#5C7080"/>
</svg>
