<svg xmlns="http://www.w3.org/2000/svg" xml:space="preserve" viewBox="0 0 20 20"><path fill-rule="evenodd" d="m10.85 11.98-4.44 4.44-1 1c-.36.36-.86.58-1.41.58-1.1 0-2-.9-2-2 0-.55.22-1.05.59-1.41l5.44-5.44C7.69 9.06 7.36 9 7 9c-1.11 0-2.09.46-2.82 1.18l-.01-.01-3 3 .01.01C.46 13.91 0 14.89 0 16c0 2.21 1.79 4 4 4 1.11 0 2.09-.46 2.82-1.18l.01.01 3-3-.01-.01C10.54 15.09 11 14.11 11 13c0-.36-.06-.69-.15-1.02zM20 4c0-2.21-1.79-4-4-4-1.11 0-2.09.46-2.82 1.18l-.01-.01-3 3 .01.01C9.46 4.91 9 5.89 9 7c0 .36.06.69.15 1.02l4.44-4.44 1-1c.36-.36.86-.58 1.41-.58 1.1 0 2 .9 2 2 0 .55-.22 1.05-.59 1.41l-5.44 5.44c.34.09.67.15 1.03.15 1.11 0 2.09-.46 2.82-1.18l.01.01 3-3-.01-.01C19.54 6.09 20 5.11 20 4zM5 14a1.003 1.003 0 0 0 1.71.71l8-8a1.003 1.003 0 0 0-1.42-1.42l-2 2-2 2-2 2-2 2c-.18.18-.29.43-.29.71z" clip-rule="evenodd"/></svg>