<?xml version="1.0" encoding="utf-8"?>
<!-- Generator: Adobe Illustrator 17.1.0, SVG Export Plug-In . SVG Version: 6.00 Build 0)  -->
<!DOCTYPE svg PUBLIC "-//W3C//DTD SVG 1.1//EN" "http://www.w3.org/Graphics/SVG/1.1/DTD/svg11.dtd">
<svg version="1.1" id="Layer_1" xmlns="http://www.w3.org/2000/svg" xmlns:xlink="http://www.w3.org/1999/xlink" x="0px" y="0px"
	 viewBox="0 0 20 20" enable-background="new 0 0 20 20" xml:space="preserve">
<g id="link_2_">
	<g>
		<path fill-rule="evenodd" clip-rule="evenodd" d="M10.85,11.98l-4.44,4.44l-1,1C5.05,17.78,4.55,18,4,18c-1.1,0-2-0.9-2-2
			c0-0.55,0.22-1.05,0.59-1.41l5.44-5.44C7.69,9.06,7.36,9,7,9c-1.11,0-2.09,0.46-2.82,1.18l-0.01-0.01l-3,3l0.01,0.01
			C0.46,13.91,0,14.89,0,16c0,2.21,1.79,4,4,4c1.11,0,2.09-0.46,2.82-1.18l0.01,0.01l3-3l-0.01-0.01C10.54,15.09,11,14.11,11,13
			C11,12.64,10.94,12.31,10.85,11.98z M20,4c0-2.21-1.79-4-4-4c-1.11,0-2.09,0.46-2.82,1.18l-0.01-0.01l-3,3l0.01,0.01
			C9.46,4.91,9,5.89,9,7c0,0.36,0.06,0.69,0.15,1.02l4.44-4.44l1-1C14.95,2.22,15.45,2,16,2c1.1,0,2,0.9,2,2
			c0,0.55-0.22,1.05-0.59,1.41l-5.44,5.44C12.31,10.94,12.64,11,13,11c1.11,0,2.09-0.46,2.82-1.18l0.01,0.01l3-3l-0.01-0.01
			C19.54,6.09,20,5.11,20,4z M5,14c0,0.55,0.45,1,1,1c0.28,0,0.53-0.11,0.71-0.29l8-8C14.89,6.53,15,6.28,15,6c0-0.55-0.45-1-1-1
			c-0.28,0-0.53,0.11-0.71,0.29l-2,2l-2,2l-2,2l-2,2C5.11,13.47,5,13.72,5,14z"/>
	</g>
</g>
</svg>
