<svg xmlns="http://www.w3.org/2000/svg" width="20" height="20"><path fill-rule="nonzero" d="M0 2.973v-.936C0 1.468.46 1.01 1.029 1H7.97C8.541 1 9 1.468 9 2.027v.946C9 3.542 8.53 4 7.971 4H1.03C.459 4 0 3.542 0 2.973Zm0 5v-.936C0 6.468.46 6.01 1.029 6H7.97C8.541 6 9 6.468 9 7.027v.946C9 8.542 8.53 9 7.971 9H1.03C.459 9 0 8.542 0 7.973Zm0 5v-.936C0 11.468.46 11.01 1.029 11H7.97C8.541 11 9 11.468 9 12.027v.946C9 13.542 8.53 14 7.971 14H1.03C.459 14 0 13.542 0 12.973Zm0 5v-.936C0 16.468.46 16.01 1.029 16H7.97C8.541 16 9 16.468 9 17.027v.946C9 18.542 8.53 19 7.971 19H1.03C.459 19 0 18.542 0 17.973Zm11-15v-.936c0-.569.46-1.027 1.029-1.037h6.942C19.541 1 20 1.468 20 2.027v.946C20 3.542 19.53 4 18.971 4H12.03C11.459 4 11 3.542 11 2.973Zm0 5v-.936c0-.569.46-1.027 1.029-1.037h6.942C19.541 6 20 6.468 20 7.027v.946C20 8.542 19.53 9 18.971 9H12.03C11.459 9 11 8.542 11 7.973Zm0 5v-.936c0-.569.46-1.027 1.029-1.037h6.942c.57 0 1.029.468 1.029 1.027v.946c0 .569-.47 1.027-1.029 1.027H12.03c-.57 0-1.029-.458-1.029-1.027Zm0 5v-.936c0-.569.46-1.027 1.029-1.037h6.942c.57 0 1.029.468 1.029 1.027v.946c0 .569-.47 1.027-1.029 1.027H12.03c-.57 0-1.029-.458-1.029-1.027Z"/></svg>