<?xml version="1.0" encoding="utf-8"?>
<!-- Generator: Adobe Illustrator 18.0.0, SVG Export Plug-In . SVG Version: 6.00 Build 0)  -->
<svg version="1.1" id="Layer_1" xmlns="http://www.w3.org/2000/svg" xmlns:xlink="http://www.w3.org/1999/xlink" x="0px" y="0px"
	 viewBox="0 0 20 20" enable-background="new 0 0 20 20" xml:space="preserve">
<g id="list:_detail_view">
	<g>
		<path fill-rule="evenodd" clip-rule="evenodd" d="M8,6H1C0.45,6,0,6.45,0,7v1c0,0.55,0.45,1,1,1h7c0.55,0,1-0.45,1-1V7
			C9,6.45,8.55,6,8,6z M8,11H1c-0.55,0-1,0.45-1,1v1c0,0.55,0.45,1,1,1h7c0.55,0,1-0.45,1-1v-1C9,11.45,8.55,11,8,11z M8,16H1
			c-0.55,0-1,0.45-1,1v1c0,0.55,0.45,1,1,1h7c0.55,0,1-0.45,1-1v-1C9,16.45,8.55,16,8,16z M8,1H1C0.45,1,0,1.45,0,2v1
			c0,0.55,0.45,1,1,1h7c0.55,0,1-0.45,1-1V2C9,1.45,8.55,1,8,1z M19,1h-7c-0.55,0-1,0.45-1,1v16c0,0.55,0.45,1,1,1h7
			c0.55,0,1-0.45,1-1V2C20,1.45,19.55,1,19,1z"/>
	</g>
</g>
</svg>
