<?xml version="1.0" encoding="UTF-8"?>
<svg width="20px" height="20px" viewBox="0 0 20 20" version="1.1" xmlns="http://www.w3.org/2000/svg" xmlns:xlink="http://www.w3.org/1999/xlink">
    <!-- Generator: Sketch 51.3 (57544) - http://www.bohemiancoding.com/sketch -->
    <title>Artboard</title>
    <desc>Created with Sketch.</desc>
    <defs></defs>
    <g id="Artboard" stroke="none" stroke-width="1" fill="none" fill-rule="evenodd">
        <g id="list-columns" transform="translate(0.000000, 1.000000)" fill="#000000" fill-rule="nonzero">
            <path d="M0,1.97342193 L0,1.03654485 C0,0.468438538 0.459489456,0.00996677741 1.02885683,0 L7.97114317,0 C8.54051054,0 9,0.468438538 9,1.02657807 L9,1.97342193 C9,2.54152824 8.53052164,3 7.97114317,3 L1.02885683,3 C0.459489456,3 0,2.54152824 0,1.97342193 Z M0,6.97342193 L0,6.03654485 C0,5.46843854 0.459489456,5.00996678 1.02885683,5 L7.97114317,5 C8.54051054,5 9,5.46843854 9,6.02657807 L9,6.97342193 C9,7.54152824 8.53052164,8 7.97114317,8 L1.02885683,8 C0.459489456,8 0,7.54152824 0,6.97342193 Z M0,11.9734219 L0,11.0365449 C0,10.4684385 0.459489456,10.0099668 1.02885683,10 L7.97114317,10 C8.54051054,10 9,10.4684385 9,11.0265781 L9,11.9734219 C9,12.5415282 8.53052164,13 7.97114317,13 L1.02885683,13 C0.459489456,13 0,12.5415282 0,11.9734219 Z M0,16.9734219 L0,16.0365449 C0,15.4684385 0.459489456,15.0099668 1.02885683,15 L7.97114317,15 C8.54051054,15 9,15.4684385 9,16.0265781 L9,16.9734219 C9,17.5415282 8.53052164,18 7.97114317,18 L1.02885683,18 C0.459489456,18 0,17.5415282 0,16.9734219 Z M11,1.97342193 L11,1.03654485 C11,0.468438538 11.4594895,0.00996677741 12.0288568,0 L18.9711432,0 C19.5405105,0 20,0.468438538 20,1.02657807 L20,1.97342193 C20,2.54152824 19.5305216,3 18.9711432,3 L12.0288568,3 C11.4594895,3 11,2.54152824 11,1.97342193 Z M11,6.97342193 L11,6.03654485 C11,5.46843854 11.4594895,5.00996678 12.0288568,5 L18.9711432,5 C19.5405105,5 20,5.46843854 20,6.02657807 L20,6.97342193 C20,7.54152824 19.5305216,8 18.9711432,8 L12.0288568,8 C11.4594895,8 11,7.54152824 11,6.97342193 Z M11,11.9734219 L11,11.0365449 C11,10.4684385 11.4594895,10.0099668 12.0288568,10 L18.9711432,10 C19.5405105,10 20,10.4684385 20,11.0265781 L20,11.9734219 C20,12.5415282 19.5305216,13 18.9711432,13 L12.0288568,13 C11.4594895,13 11,12.5415282 11,11.9734219 Z M11,16.9734219 L11,16.0365449 C11,15.4684385 11.4594895,15.0099668 12.0288568,15 L18.9711432,15 C19.5405105,15 20,15.4684385 20,16.0265781 L20,16.9734219 C20,17.5415282 19.5305216,18 18.9711432,18 L12.0288568,18 C11.4594895,18 11,17.5415282 11,16.9734219 Z" id="Combined-Shape"></path>
        </g>
    </g>
</svg>