<svg xmlns="http://www.w3.org/2000/svg" xml:space="preserve" viewBox="0 0 20 20"><path d="M1.03 1C.46 1 0 1.46 0 2.03v.95C0 3.54.46 4 1.03 4h17.95C19.54 4 20 3.54 20 2.97v-.94C20 1.46 19.54 1 18.97 1H1.03zM0 17.97C0 18.54.46 19 1.03 19h17.95c.56 0 1.03-.46 1.03-1.03v-.95c0-.56-.46-1.03-1.03-1.03H1.03C.46 16 0 16.46 0 17.03v.94zM0 12.97C0 13.54.46 14 1.03 14h17.95c.56 0 1.03-.46 1.03-1.03v-.95c0-.56-.46-1.03-1.03-1.03H1.03C.46 11 0 11.46 0 12.03v.94zM0 7.97C0 8.54.46 9 1.03 9h17.95C19.54 9 20 8.54 20 7.97v-.94C20 6.46 19.54 6 18.97 6H1.03C.46 6 0 6.46 0 7.03v.94z"/></svg>