<?xml version="1.0" encoding="utf-8"?>
<!-- Generator: Adobe Illustrator 17.1.0, SVG Export Plug-In . SVG Version: 6.00 Build 0)  -->
<!DOCTYPE svg PUBLIC "-//W3C//DTD SVG 1.1//EN" "http://www.w3.org/Graphics/SVG/1.1/DTD/svg11.dtd">
<svg version="1.1" id="Layer_1" xmlns="http://www.w3.org/2000/svg" xmlns:xlink="http://www.w3.org/1999/xlink" x="0px" y="0px"
	 viewBox="0 0 20 20" enable-background="new 0 0 20 20" xml:space="preserve">
<g id="list_1_">
	<g>
		<path d="M1.03,1C0.46,1,0,1.46,0,2.03v0.95C0,3.54,0.46,4,1.03,4h17.95C19.54,4,20,3.54,20,2.97V2.03C20,1.46,19.54,1,18.97,1
			H1.03z"/>
	</g>
	<g>
		<path d="M0,17.97C0,18.54,0.46,19,1.03,19h17.95c0.56,0,1.03-0.46,1.03-1.03v-0.95c0-0.56-0.46-1.03-1.03-1.03H1.03
			C0.46,16,0,16.46,0,17.03V17.97z"/>
	</g>
	<g>
		<path d="M0,12.97C0,13.54,0.46,14,1.03,14h17.95c0.56,0,1.03-0.46,1.03-1.03v-0.95c0-0.56-0.46-1.03-1.03-1.03H1.03
			C0.46,11,0,11.46,0,12.03V12.97z"/>
	</g>
	<g>
		<path d="M0,7.97C0,8.54,0.46,9,1.03,9h17.95C19.54,9,20,8.54,20,7.97V7.03C20,6.46,19.54,6,18.97,6H1.03C0.46,6,0,6.46,0,7.03
			V7.97z"/>
	</g>
</g>
</svg>
