<svg xmlns="http://www.w3.org/2000/svg" xml:space="preserve" viewBox="0 0 20 20"><path fill-rule="evenodd" d="M10 8c-1.1 0-2 .9-2 2s.9 2 2 2 2-.9 2-2-.9-2-2-2zm9 1h-1.07c-.45-3.61-3.32-6.45-6.93-6.91V1c0-.55-.45-1-1-1S9 .45 9 1v1.09C5.39 2.55 2.52 5.39 2.07 9H1c-.55 0-1 .45-1 1s.45 1 1 1h1.07c.45 3.61 3.32 6.45 6.93 6.91V19c0 .55.45 1 1 1s1-.45 1-1v-1.09c3.61-.46 6.48-3.29 6.93-6.91H19c.55 0 1-.45 1-1s-.45-1-1-1zm-4 2h.9a5.98 5.98 0 0 1-4.9 4.91V15c0-.55-.45-1-1-1s-1 .45-1 1v.91A5.98 5.98 0 0 1 4.1 11H5c.55 0 1-.45 1-1s-.45-1-1-1h-.9A5.98 5.98 0 0 1 9 4.09V5c0 .55.45 1 1 1s1-.45 1-1v-.91A5.98 5.98 0 0 1 15.9 9H15c-.55 0-1 .45-1 1s.45 1 1 1z" clip-rule="evenodd"/></svg>