<?xml version="1.0" encoding="utf-8"?>
<!-- Generator: Adobe Illustrator 17.1.0, SVG Export Plug-In . SVG Version: 6.00 Build 0)  -->
<!DOCTYPE svg PUBLIC "-//W3C//DTD SVG 1.1//EN" "http://www.w3.org/Graphics/SVG/1.1/DTD/svg11.dtd">
<svg version="1.1" id="Layer_1" xmlns="http://www.w3.org/2000/svg" xmlns:xlink="http://www.w3.org/1999/xlink" x="0px" y="0px"
	 viewBox="0 0 20 20" enable-background="new 0 0 20 20" xml:space="preserve">
<g id="locate_1_">
	<g>
		<path fill-rule="evenodd" clip-rule="evenodd" d="M10,8c-1.1,0-2,0.9-2,2c0,1.1,0.9,2,2,2s2-0.9,2-2C12,8.9,11.1,8,10,8z M19,9
			h-1.07C17.48,5.39,14.61,2.55,11,2.09V1c0-0.55-0.45-1-1-1S9,0.45,9,1v1.09C5.39,2.55,2.52,5.39,2.07,9H1c-0.55,0-1,0.45-1,1
			c0,0.55,0.45,1,1,1h1.07c0.45,3.61,3.32,6.45,6.93,6.91V19c0,0.55,0.45,1,1,1s1-0.45,1-1v-1.09c3.61-0.46,6.48-3.29,6.93-6.91H19
			c0.55,0,1-0.45,1-1C20,9.45,19.55,9,19,9z M15,11h0.9c-0.42,2.51-2.39,4.49-4.9,4.91V15c0-0.55-0.45-1-1-1s-1,0.45-1,1v0.91
			c-2.51-0.42-4.48-2.4-4.9-4.91H5c0.55,0,1-0.45,1-1c0-0.55-0.45-1-1-1H4.1C4.52,6.49,6.49,4.51,9,4.09V5c0,0.55,0.45,1,1,1
			s1-0.45,1-1V4.09c2.51,0.42,4.48,2.4,4.9,4.91H15c-0.55,0-1,0.45-1,1C14,10.55,14.45,11,15,11z"/>
	</g>
</g>
</svg>
