<?xml version="1.0" encoding="utf-8"?>
<!-- Generator: Adobe Illustrator 17.1.0, SVG Export Plug-In . SVG Version: 6.00 Build 0)  -->
<!DOCTYPE svg PUBLIC "-//W3C//DTD SVG 1.1//EN" "http://www.w3.org/Graphics/SVG/1.1/DTD/svg11.dtd">
<svg version="1.1" id="Layer_1" xmlns="http://www.w3.org/2000/svg" xmlns:xlink="http://www.w3.org/1999/xlink" x="0px" y="0px"
	 viewBox="0 0 20 20" enable-background="new 0 0 20 20" xml:space="preserve">
<path id="lock_1_" d="M15.93,9H14V4.99c0-2.21-1.79-4-4-4s-4,1.79-4,4V9H3.93C3.38,9,3,9.44,3,9.99v8C3,18.54,3.38,19,3.93,19h12
	c0.55,0,1.07-0.46,1.07-1.01v-8C17,9.44,16.48,9,15.93,9z M8,9V4.99c0-1.1,0.9-2,2-2s2,0.9,2,2V9H8z"/>
</svg>
