<?xml version="1.0" encoding="utf-8"?>
<!-- Generator: Adobe Illustrator 18.1.0, SVG Export Plug-In . SVG Version: 6.00 Build 0)  -->
<svg version="1.1" id="Layer_1" xmlns="http://www.w3.org/2000/svg" xmlns:xlink="http://www.w3.org/1999/xlink" x="0px" y="0px"
	 viewBox="0 0 20 20" enable-background="new 0 0 20 20" xml:space="preserve">
<g id="login_1_">
	<g>
		<path fill-rule="evenodd" clip-rule="evenodd" d="M19,0h-8c-0.55,0-1,0.45-1,1c0,0.55,0.45,1,1,1h7v16h-7c-0.55,0-1,0.45-1,1
			c0,0.55,0.45,1,1,1h8c0.55,0,1-0.45,1-1V1C20,0.45,19.55,0,19,0z M15,10c0-0.28-0.11-0.53-0.29-0.71l-5-5C9.53,4.11,9.28,4,9,4
			C8.45,4,8,4.45,8,5c0,0.28,0.11,0.53,0.29,0.71L11.59,9H1c-0.55,0-1,0.45-1,1c0,0.55,0.45,1,1,1h10.59l-3.29,3.29
			C8.11,14.47,8,14.72,8,15c0,0.55,0.45,1,1,1c0.28,0,0.53-0.11,0.71-0.29l5-5C14.89,10.53,15,10.28,15,10z"/>
	</g>
</g>
</svg>
