<?xml version="1.0" encoding="utf-8"?>
<!-- Generator: Adobe Illustrator 18.1.0, SVG Export Plug-In . SVG Version: 6.00 Build 0)  -->
<svg version="1.1" id="Layer_1" xmlns="http://www.w3.org/2000/svg" xmlns:xlink="http://www.w3.org/1999/xlink" x="0px" y="0px"
	 viewBox="0 0 20 20" enable-background="new 0 0 20 20" xml:space="preserve">
<g id="logout_1_">
	<g>
		<path fill-rule="evenodd" clip-rule="evenodd" d="M19.71,9.29l-5-5C14.53,4.11,14.28,4,14,4c-0.55,0-1,0.45-1,1
			c0,0.28,0.11,0.53,0.29,0.71L16.59,9H6c-0.55,0-1,0.45-1,1s0.45,1,1,1h10.59l-3.29,3.29C13.11,14.47,13,14.72,13,15
			c0,0.55,0.45,1,1,1c0.28,0,0.53-0.11,0.71-0.29l5-5C19.89,10.53,20,10.28,20,10C20,9.72,19.89,9.47,19.71,9.29z M9,18H2V2h7
			c0.55,0,1-0.45,1-1S9.55,0,9,0H1C0.45,0,0,0.45,0,1v18c0,0.55,0.45,1,1,1h8c0.55,0,1-0.45,1-1S9.55,18,9,18z"/>
	</g>
</g>
</svg>
