<?xml version="1.0" encoding="utf-8"?>
<!-- Generator: Adobe Illustrator 18.0.0, SVG Export Plug-In . SVG Version: 6.00 Build 0)  -->
<svg version="1.1" id="Layer_1" xmlns="http://www.w3.org/2000/svg" xmlns:xlink="http://www.w3.org/1999/xlink" x="0px" y="0px"
	 viewBox="0 0 20 20" enable-background="new 0 0 20 20" xml:space="preserve">
<g id="manually_entered_data_1_">
	<g>
		<path fill-rule="evenodd" clip-rule="evenodd" d="M1,12h4.34l2-2H1c-0.55,0-1,0.45-1,1C0,11.55,0.45,12,1,12z M17.77,8.06
			l1.65-1.65C19.78,6.05,20,5.55,20,5c0-1.1-0.9-2-2-2c-0.55,0-1.05,0.22-1.41,0.59l-1.65,1.65L17.77,8.06z M1,4h12.34l2-2H1
			C0.45,2,0,2.45,0,3C0,3.55,0.45,4,1,4z M0,15c0,0.55,0.45,1,1,1h0.34l2-2H1C0.45,14,0,14.45,0,15z M1,8h8.34l2-2H1
			C0.45,6,0,6.45,0,7C0,7.55,0.45,8,1,8z M19,10h-0.34l-2,2H19c0.55,0,1-0.45,1-1C20,10.45,19.55,10,19,10z M19,14h-4.34l-2,2H19
			c0.55,0,1-0.45,1-1C20,14.45,19.55,14,19,14z M4,19l4.41-1.59l-2.81-2.79L4,19z M14.23,5.94l-7.65,7.65l2.83,2.83l7.65-7.65
			L14.23,5.94z"/>
	</g>
</g>
</svg>
