<svg xmlns="http://www.w3.org/2000/svg" xml:space="preserve" viewBox="0 0 20 20"><path fill-rule="evenodd" d="M20 1.1a.976.976 0 0 0-.83-.88C15.15-.43 12.07.34 10 2.5 7.93.34 4.85-.43.84.22.37.3.03.67 0 1.1v15.01c0 .07 0 .14.01.21.09.52.61.88 1.15.79 3.85-.62 6.4.16 8 2.46.02.02.03.04.05.07.02.02.04.04.06.07l.01.01a1.07 1.07 0 0 0 .28.19c.01 0 .01.01.02.01.03.01.07.03.1.04.01 0 .02.01.04.01.03.01.07.02.1.02.01 0 .02 0 .04.01H10c.04 0 .09 0 .13-.01.01 0 .03 0 .04-.01.03-.01.06-.01.1-.02.01 0 .03-.01.04-.01.03-.01.07-.02.1-.04.01 0 .02-.01.03-.01.07-.03.13-.07.19-.11.01 0 .01-.01.02-.01.02-.02.04-.03.06-.05.01-.01.02-.02.03-.02l.05-.05c.01-.01.02-.02.02-.03.01-.02.02-.03.04-.05 1.61-2.3 4.15-3.09 8-2.46.54.09 1.06-.26 1.15-.79-.01-.05 0-.09 0-.13V1.1zM9 16.63c-1.78-1.31-4.12-1.83-7-1.55V2c3.26-.37 5.51.39 7 2.35v12.28zm9-1.56c-2.88-.28-5.22.24-7 1.55V4.34c1.49-1.96 3.74-2.71 7-2.35v13.08z" clip-rule="evenodd"/></svg>