<?xml version="1.0" encoding="utf-8"?>
<!-- Generator: Adobe Illustrator 18.0.0, SVG Export Plug-In . SVG Version: 6.00 Build 0)  -->
<svg version="1.1" id="Layer_1" xmlns="http://www.w3.org/2000/svg" xmlns:xlink="http://www.w3.org/1999/xlink" x="0px" y="0px"
	 viewBox="0 0 20 20" enable-background="new 0 0 20 20" xml:space="preserve">
<g id="manual">
	<g>
		<path fill-rule="evenodd" clip-rule="evenodd" d="M20,1.1c-0.03-0.43-0.37-0.81-0.83-0.88C15.15-0.43,12.07,0.34,10,2.5
			C7.93,0.34,4.85-0.43,0.84,0.22C0.37,0.3,0.03,0.67,0,1.1h0v15.01c0,0.07,0,0.14,0.01,0.21c0.09,0.52,0.61,0.88,1.15,0.79
			c3.85-0.62,6.4,0.16,8,2.46c0.02,0.02,0.03,0.04,0.05,0.07c0,0,0,0,0,0c0.02,0.02,0.04,0.04,0.06,0.07c0,0,0.01,0.01,0.01,0.01
			c0.02,0.02,0.04,0.04,0.07,0.06c0,0,0,0,0,0c0.06,0.05,0.13,0.09,0.21,0.13c0.01,0,0.01,0.01,0.02,0.01
			c0.03,0.01,0.07,0.03,0.1,0.04c0.01,0,0.02,0.01,0.04,0.01c0.03,0.01,0.07,0.02,0.1,0.02c0.01,0,0.02,0,0.04,0.01
			C9.91,20,9.95,20,10,20h0c0,0,0,0,0,0c0.04,0,0.09,0,0.13-0.01c0.01,0,0.03,0,0.04-0.01c0.03-0.01,0.06-0.01,0.1-0.02
			c0.01,0,0.03-0.01,0.04-0.01c0.03-0.01,0.07-0.02,0.1-0.04c0.01,0,0.02-0.01,0.03-0.01c0.07-0.03,0.13-0.07,0.19-0.11
			c0.01,0,0.01-0.01,0.02-0.01c0.02-0.02,0.04-0.03,0.06-0.05c0.01-0.01,0.02-0.02,0.03-0.02c0.02-0.02,0.03-0.03,0.05-0.05
			c0.01-0.01,0.02-0.02,0.02-0.03c0.01-0.02,0.02-0.03,0.04-0.05c1.61-2.3,4.15-3.09,8-2.46c0.54,0.09,1.06-0.26,1.15-0.79
			C19.99,16.28,20,16.24,20,16.2h0L20,1.1L20,1.1z M9,16.63c-1.78-1.31-4.12-1.83-7-1.55V2c3.26-0.37,5.51,0.39,7,2.35V16.63z
			 M18,15.07c-2.88-0.28-5.22,0.24-7,1.55V4.34c1.49-1.96,3.74-2.71,7-2.35V15.07z"/>
	</g>
</g>
</svg>
