<svg width="20" height="20" viewBox="0 0 20 20" fill="none" xmlns="http://www.w3.org/2000/svg">
<path fill-rule="evenodd" clip-rule="evenodd" d="M17 6C17.5523 6 18 5.55228 18 5C18 4.44772 17.5523 4 17 4C16.4477 4 16 4.44772 16 5C16 5.55228 16.4477 6 17 6ZM17 8C15.7876 8 14.7432 7.28085 14.2701 6.24587C14.0694 6.31355 13.8624 6.39986 13.6532 6.50992C12.7694 6.97512 11.7334 7.92782 11.0484 10C11.7334 12.0722 12.7694 13.0249 13.6532 13.4901C13.8624 13.6001 14.0694 13.6864 14.2701 13.7541C14.7432 12.7191 15.7876 12 17 12C18.6569 12 20 13.3431 20 15C20 16.6569 18.6569 18 17 18C15.6159 18 14.4508 17.0627 14.1046 15.7883C13.6718 15.6787 13.2014 15.5124 12.7218 15.2599C11.7385 14.7424 10.7742 13.8956 10 12.555C9.22581 13.8956 8.26147 14.7424 7.27825 15.2599C6.79861 15.5124 6.32821 15.6787 5.89536 15.7883C5.5492 17.0627 4.38405 18 3 18C1.34315 18 0 16.6569 0 15C0 13.3431 1.34315 12 3 12C4.21236 12 5.25675 12.7191 5.72987 13.7541C5.93064 13.6864 6.13764 13.6001 6.34675 13.4901C7.23063 13.0249 8.26662 12.0722 8.95165 10C8.26661 7.92782 7.23063 6.97512 6.34675 6.50992C6.13764 6.39986 5.93064 6.31355 5.72987 6.24587C5.25676 7.28085 4.21236 8 3 8C1.34315 8 0 6.65685 0 5C0 3.34315 1.34315 2 3 2C4.38405 2 5.54919 2.93726 5.89536 4.2117C6.32821 4.3213 6.79861 4.48764 7.27825 4.74008C8.26147 5.25757 9.22581 6.1044 10 7.44497C10.7742 6.1044 11.7385 5.25757 12.7218 4.74008C13.2014 4.48764 13.6718 4.32131 14.1046 4.2117C14.4508 2.93726 15.6159 2 17 2C18.6569 2 20 3.34315 20 5C20 6.65685 18.6569 8 17 8ZM4 5C4 4.44772 3.55228 4 3 4C2.44772 4 2 4.44772 2 5C2 5.55228 2.44772 6 3 6C3.55228 6 4 5.55228 4 5ZM16 15C16 15.5523 16.4477 16 17 16C17.5523 16 18 15.5523 18 15C18 14.4477 17.5523 14 17 14C16.4477 14 16 14.4477 16 15ZM3 14C3.55228 14 4 14.4477 4 15C4 15.5523 3.55228 16 3 16C2.44772 16 2 15.5523 2 15C2 14.4477 2.44772 14 3 14Z" fill="black"/>
</svg>
