<svg xmlns="http://www.w3.org/2000/svg" width="20" height="20"><path fill-rule="evenodd" d="M17 6a1 1 0 1 0 0-2 1 1 0 0 0 0 2Zm0 2a3 3 0 0 1-2.73-1.754c-.2.068-.408.154-.617.264-.884.465-1.92 1.418-2.605 3.49.685 2.072 1.721 3.025 2.605 3.49.21.11.416.196.617.264a3 3 0 1 1-.165 2.034 6.262 6.262 0 0 1-1.383-.528c-.983-.518-1.948-1.364-2.722-2.705-.774 1.34-1.739 2.187-2.722 2.705-.48.252-.95.419-1.383.528A3.001 3.001 0 0 1 0 15a3 3 0 0 1 5.73-1.246c.2-.068.408-.154.617-.264.884-.465 1.92-1.418 2.605-3.49-.685-2.072-1.721-3.025-2.605-3.49a4.21 4.21 0 0 0-.617-.264 3 3 0 1 1 .165-2.034c.433.11.904.276 1.383.528.983.518 1.948 1.364 2.722 2.705.774-1.34 1.739-2.187 2.722-2.705.48-.252.95-.419 1.383-.528A3.001 3.001 0 0 1 20 5a3 3 0 0 1-3 3ZM4 5a1 1 0 1 0-2 0 1 1 0 0 0 2 0Zm12 10a1 1 0 1 0 2 0 1 1 0 0 0-2 0ZM3 14a1 1 0 1 1 0 2 1 1 0 0 1 0-2Z" clip-rule="evenodd"/></svg>