<svg xmlns="http://www.w3.org/2000/svg" width="20" height="20"><path fill-rule="evenodd" d="M3 2a1 1 0 1 0 0 2 1 1 0 0 0 0-2Zm0 4c1.296 0 2.4-.821 2.82-1.972.487.039 1.086.13 1.667.347.947.352 1.773 1 2.032 2.318.323 1.644 1.234 2.675 2.264 3.307-1.03.632-1.941 1.663-2.264 3.307-.259 1.318-1.085 1.966-2.032 2.318a6.244 6.244 0 0 1-1.668.347 3.001 3.001 0 1 0 .019 2.004c.633-.042 1.491-.158 2.347-.476 1.402-.523 2.867-1.625 3.296-3.807.259-1.318 1.085-1.966 2.032-2.318.24-.09.484-.158.722-.21a3 3 0 1 0 0-2.33 5.329 5.329 0 0 1-.722-.21c-.947-.352-1.773-1-2.032-2.318-.428-2.182-1.894-3.284-3.296-3.807-.856-.318-1.714-.434-2.347-.476A3.001 3.001 0 0 0 0 3a3 3 0 0 0 3 3Zm13 4a1 1 0 1 0 2 0 1 1 0 0 0-2 0ZM2 17a1 1 0 1 1 2 0 1 1 0 0 1-2 0Z" clip-rule="evenodd"/></svg>