<svg xmlns="http://www.w3.org/2000/svg" xml:space="preserve" viewBox="0 0 20 20"><path fill-rule="evenodd" d="M18 9.22v7.91l-4-2.67V9.22c-.61-.55-1-1.33-1-2.22-.35 0-.69-.07-1-.18v7.65l-4 2.67V5.54l2.02-1.35c0-.06-.02-.13-.02-.19 0-1.66 1.34-3 3-3 0-.34.07-.66.17-.97C13.12.02 13.06 0 13 0c-.21 0-.39.08-.54.18l-.01-.02L7 3.8 1.55.17l-.01.01A.969.969 0 0 0 1 0C.45 0 0 .45 0 1v14c0 .35.19.64.46.82l-.01.02 6 4 .01-.02c.15.1.33.18.54.18s.39-.08.54-.18l.01.02L13 16.2l5.45 3.63.01-.02c.15.11.33.19.54.19.55 0 1-.45 1-1V6.82c-.31.11-.65.18-1 .18 0 .89-.39 1.67-1 2.22zM6 17.13l-4-2.67V2.87l4 2.67v11.59zM12 4c0 .55.45 1 1 1h2v2c0 .55.45 1 1 1s1-.45 1-1V5h2c.55 0 1-.45 1-1s-.45-1-1-1h-2V1c0-.55-.45-1-1-1s-1 .45-1 1v2h-2c-.55 0-1 .45-1 1z" clip-rule="evenodd"/></svg>