<?xml version="1.0" encoding="utf-8"?>
<!-- Generator: Adobe Illustrator 18.0.0, SVG Export Plug-In . SVG Version: 6.00 Build 0)  -->
<svg version="1.1" id="Layer_1" xmlns="http://www.w3.org/2000/svg" xmlns:xlink="http://www.w3.org/1999/xlink" x="0px" y="0px"
	 viewBox="0 0 20 20" enable-background="new 0 0 20 20" xml:space="preserve">
<g id="new_map_1_">
	<g>
		<path fill-rule="evenodd" clip-rule="evenodd" d="M18,9.22v7.91l-4-2.67V9.22C13.39,8.67,13,7.89,13,7c-0.35,0-0.69-0.07-1-0.18
			v7.65l-4,2.67V5.54l2.02-1.35C10.02,4.13,10,4.06,10,4c0-1.66,1.34-3,3-3c0-0.34,0.07-0.66,0.17-0.97C13.12,0.02,13.06,0,13,0
			c-0.21,0-0.39,0.08-0.54,0.18l-0.01-0.02L7,3.8L1.55,0.17L1.54,0.18C1.39,0.08,1.21,0,1,0C0.45,0,0,0.45,0,1v14
			c0,0.35,0.19,0.64,0.46,0.82l-0.01,0.02l6,4l0.01-0.02C6.61,19.92,6.79,20,7,20s0.39-0.08,0.54-0.18l0.01,0.02L13,16.2l5.45,3.63
			l0.01-0.02C18.61,19.92,18.79,20,19,20c0.55,0,1-0.45,1-1V6.82C19.69,6.93,19.35,7,19,7C19,7.89,18.61,8.67,18,9.22z M6,17.13
			l-4-2.67V2.87l4,2.67V17.13z M12,4c0,0.55,0.45,1,1,1h2v2c0,0.55,0.45,1,1,1s1-0.45,1-1V5h2c0.55,0,1-0.45,1-1s-0.45-1-1-1h-2V1
			c0-0.55-0.45-1-1-1s-1,0.45-1,1v2h-2C12.45,3,12,3.45,12,4z"/>
	</g>
</g>
</svg>
