<?xml version="1.0" encoding="utf-8"?>
<!-- Generator: Adobe Illustrator 17.1.0, SVG Export Plug-In . SVG Version: 6.00 Build 0)  -->
<!DOCTYPE svg PUBLIC "-//W3C//DTD SVG 1.1//EN" "http://www.w3.org/Graphics/SVG/1.1/DTD/svg11.dtd">
<svg version="1.1" id="Layer_1" xmlns="http://www.w3.org/2000/svg" xmlns:xlink="http://www.w3.org/1999/xlink" x="0px" y="0px"
	 viewBox="0 0 20 20" enable-background="new 0 0 20 20" xml:space="preserve">
<g id="map_1_">
	<g>
		<path fill-rule="evenodd" clip-rule="evenodd" d="M19.54,4.18l0.01-0.02l-6-4l-0.01,0.02C13.39,0.08,13.21,0,13,0
			s-0.39,0.08-0.54,0.18l-0.01-0.02L7,3.8L1.55,0.17L1.54,0.18C1.39,0.08,1.21,0,1,0C0.45,0,0,0.45,0,1v14
			c0,0.35,0.19,0.64,0.46,0.82l-0.01,0.02l6,4l0.01-0.02C6.61,19.92,6.79,20,7,20s0.39-0.08,0.54-0.18l0.01,0.02L13,16.2l5.45,3.63
			l0.01-0.02C18.61,19.92,18.79,20,19,20c0.55,0,1-0.45,1-1V5C20,4.65,19.81,4.36,19.54,4.18z M6,17.13l-4-2.67V2.87l4,2.67V17.13z
			 M12,14.46l-4,2.67V5.54l4-2.67V14.46z M18,17.13l-4-2.67V2.87l4,2.67V17.13z"/>
	</g>
</g>
</svg>
