<?xml version="1.0" encoding="utf-8"?>
<!-- Generator: Adobe Illustrator 17.1.0, SVG Export Plug-In . SVG Version: 6.00 Build 0)  -->
<!DOCTYPE svg PUBLIC "-//W3C//DTD SVG 1.1//EN" "http://www.w3.org/Graphics/SVG/1.1/DTD/svg11.dtd">
<svg version="1.1" id="Layer_1" xmlns="http://www.w3.org/2000/svg" xmlns:xlink="http://www.w3.org/1999/xlink" x="0px" y="0px"
	 viewBox="0 0 20 20" enable-background="new 0 0 20 20" xml:space="preserve">
<g id="media_2_">
	<g>
		<path fill-rule="evenodd" clip-rule="evenodd" d="M15,9c1.1,0,2-0.9,2-2c0-1.1-0.9-2-2-2s-2,0.9-2,2C13,8.1,13.9,9,15,9z M19,2H1
			C0.45,2,0,2.45,0,3v14c0,0.55,0.45,1,1,1h18c0.55,0,1-0.45,1-1V3C20,2.45,19.55,2,19,2z M18,15l-6-5l-2,2L6,7l-4,8V4h16V15z"/>
	</g>
</g>
</svg>
