<svg xmlns="http://www.w3.org/2000/svg" xml:space="preserve" viewBox="0 0 20 20"><path fill-rule="evenodd" d="M6.71 6.29a1.003 1.003 0 0 0-1.42 1.42L6.59 9H2V2h5v2.18c.42.15.8.39 1.11.7l.01-.01.88.89V1c0-.55-.45-1-1-1H1C.45 0 0 .45 0 1v18c0 .55.45 1 1 1h7c.55 0 1-.45 1-1v-4.76l-.88.88-.01-.01c-.31.31-.69.56-1.11.71V18H2v-7h4.59L5.3 12.29c-.19.18-.3.43-.3.71a1.003 1.003 0 0 0 1.71.71l3-3c.18-.18.29-.43.29-.71 0-.28-.11-.53-.29-.71l-3-3zM19 0h-7c-.55 0-1 .45-1 1v4.76l.88-.88.01.01c.31-.31.69-.55 1.11-.7V2h5v7h-4.59l1.29-1.29c.19-.18.3-.43.3-.71a1.003 1.003 0 0 0-1.71-.71l-3 3c-.18.18-.29.43-.29.71 0 .28.11.53.29.71l3 3a1.003 1.003 0 0 0 1.42-1.42L13.41 11H18v7h-5v-2.18c-.42-.15-.8-.39-1.11-.7l-.01.01-.88-.89V19c0 .55.45 1 1 1h7c.55 0 1-.45 1-1V1c0-.55-.45-1-1-1z" clip-rule="evenodd"/></svg>