<svg xmlns="http://www.w3.org/2000/svg" xml:space="preserve" viewBox="0 0 20 20"><path d="M10 13c-1.1 0-2 .9-2 2s.9 2 2 2 2-.9 2-2-.9-2-2-2zm8-5c-.93 0-1.71.64-1.93 1.5H14V4c0-2.21-1.79-4-4-4S6 1.79 6 4v5.5H3.93C3.71 8.64 2.93 8 2 8c-1.1 0-2 .9-2 2s.9 2 2 2c.93 0 1.71-.64 1.93-1.5H6V16c0 2.21 1.79 4 4 4s4-1.79 4-4v-5.5h2.07c.22.86 1 1.5 1.93 1.5 1.1 0 2-.9 2-2s-.9-2-2-2zm-5 8c0 1.66-1.34 3-3 3s-3-1.34-3-3V4c0-1.66 1.34-3 3-3s3 1.34 3 3v12zM10 3c-1.1 0-2 .9-2 2s.9 2 2 2 2-.9 2-2-.9-2-2-2z"/></svg>