<?xml version="1.0" encoding="utf-8"?>
<!-- Generator: Adobe Illustrator 18.0.0, SVG Export Plug-In . SVG Version: 6.00 Build 0)  -->
<svg version="1.1" id="Layer_1" xmlns="http://www.w3.org/2000/svg" xmlns:xlink="http://www.w3.org/1999/xlink" x="0px" y="0px"
	 viewBox="0 0 20 20" enable-background="new 0 0 20 20" xml:space="preserve">
<g id="merge_columns_3_">
	<g>
		<path fill-rule="evenodd" clip-rule="evenodd" d="M6.71,6.29C6.53,6.11,6.28,6,6,6C5.45,6,5,6.45,5,7c0,0.28,0.11,0.53,0.29,0.71
			L6.59,9H2V2h5v2.18c0.42,0.15,0.8,0.39,1.11,0.7l0.01-0.01L9,5.76V1c0-0.55-0.45-1-1-1H1C0.45,0,0,0.45,0,1v18c0,0.55,0.45,1,1,1
			h7c0.55,0,1-0.45,1-1v-4.76l-0.88,0.88l-0.01-0.01C7.8,15.42,7.42,15.67,7,15.82V18H2v-7h4.59l-1.29,1.29C5.11,12.47,5,12.72,5,13
			c0,0.55,0.45,1,1,1c0.28,0,0.53-0.11,0.71-0.29l3-3C9.89,10.53,10,10.28,10,10c0-0.28-0.11-0.53-0.29-0.71L6.71,6.29z M19,0h-7
			c-0.55,0-1,0.45-1,1v4.76l0.88-0.88l0.01,0.01c0.31-0.31,0.69-0.55,1.11-0.7V2h5v7h-4.59l1.29-1.29C14.89,7.53,15,7.28,15,7
			c0-0.55-0.45-1-1-1c-0.28,0-0.53,0.11-0.71,0.29l-3,3C10.11,9.47,10,9.72,10,10c0,0.28,0.11,0.53,0.29,0.71l3,3
			C13.47,13.89,13.72,14,14,14c0.55,0,1-0.45,1-1c0-0.28-0.11-0.53-0.29-0.71L13.41,11H18v7h-5v-2.18c-0.42-0.15-0.8-0.39-1.11-0.7
			l-0.01,0.01L11,14.24V19c0,0.55,0.45,1,1,1h7c0.55,0,1-0.45,1-1V1C20,0.45,19.55,0,19,0z"/>
	</g>
</g>
</svg>
