<?xml version="1.0" encoding="utf-8"?>
<!-- Generator: Adobe Illustrator 18.1.0, SVG Export Plug-In . SVG Version: 6.00 Build 0)  -->
<svg version="1.1" id="Layer_1" xmlns="http://www.w3.org/2000/svg" xmlns:xlink="http://www.w3.org/1999/xlink" x="0px" y="0px"
	 viewBox="0 0 20 20" enable-background="new 0 0 20 20" xml:space="preserve">
<g id="merge_into_links_1_">
	<g>
		<path d="M10,13c-1.1,0-2,0.9-2,2s0.9,2,2,2s2-0.9,2-2S11.1,13,10,13z M18,8c-0.93,0-1.71,0.64-1.93,1.5H14V4c0-2.21-1.79-4-4-4
			S6,1.79,6,4v5.5H3.93C3.71,8.64,2.93,8,2,8c-1.1,0-2,0.9-2,2s0.9,2,2,2c0.93,0,1.71-0.64,1.93-1.5H6V16c0,2.21,1.79,4,4,4
			s4-1.79,4-4v-5.5h2.07c0.22,0.86,1,1.5,1.93,1.5c1.1,0,2-0.9,2-2S19.1,8,18,8z M13,16c0,1.66-1.34,3-3,3s-3-1.34-3-3V4
			c0-1.66,1.34-3,3-3s3,1.34,3,3V16z M10,3C8.9,3,8,3.9,8,5s0.9,2,2,2s2-0.9,2-2S11.1,3,10,3z"/>
	</g>
</g>
</svg>
