<?xml version="1.0" encoding="utf-8"?>
<!-- Generator: Adobe Illustrator 18.0.0, SVG Export Plug-In . SVG Version: 6.00 Build 0)  -->
<svg version="1.1" id="Layer_1" xmlns="http://www.w3.org/2000/svg" xmlns:xlink="http://www.w3.org/1999/xlink" x="0px" y="0px"
	 viewBox="0 0 20 20" enable-background="new 0 0 20 20" xml:space="preserve">
<g id="mobile_phone_1_">
	<g>
		<path fill-rule="evenodd" clip-rule="evenodd" d="M15,0H5C4.45,0,4,0.45,4,1v18c0,0.55,0.45,1,1,1h10c0.55,0,1-0.45,1-1V1
			C16,0.45,15.55,0,15,0z M10,19c-0.55,0-1-0.45-1-1c0-0.55,0.45-1,1-1s1,0.45,1,1C11,18.55,10.55,19,10,19z M14,16H6V3h8V16z"/>
	</g>
</g>
</svg>
