<?xml version="1.0" encoding="utf-8"?>
<!-- Generator: Adobe Illustrator 18.1.0, SVG Export Plug-In . SVG Version: 6.00 Build 0)  -->
<svg version="1.1" id="Layer_1" xmlns="http://www.w3.org/2000/svg" xmlns:xlink="http://www.w3.org/1999/xlink" x="0px" y="0px"
	 viewBox="0 0 20 20" enable-background="new 0 0 20 20" xml:space="preserve">
<g id="facetime_video_1_">
	<g>
		<path fill-rule="evenodd" clip-rule="evenodd" d="M19,5c-0.28,0-0.53,0.11-0.71,0.29L15,8.59C15,6.64,15,5,15,5c0-0.55-0.45-1-1-1
			H1C0.45,4,0,4.45,0,5v10c0,0.55,0.45,1,1,1h13c0.55,0,1-0.45,1-1c0,0,0-1.64,0-3.59l3.29,3.29C18.47,14.89,18.72,15,19,15
			c0.55,0,1-0.45,1-1V6C20,5.45,19.55,5,19,5z"/>
	</g>
</g>
</svg>
