<?xml version="1.0" encoding="utf-8"?>
<!-- Generator: Adobe Illustrator 18.1.0, SVG Export Plug-In . SVG Version: 6.00 Build 0)  -->
<svg version="1.1" id="Layer_1" xmlns="http://www.w3.org/2000/svg" xmlns:xlink="http://www.w3.org/1999/xlink" x="0px" y="0px"
	 viewBox="0 0 20 20" enable-background="new 0 0 20 20" xml:space="preserve">
<g id="move">
	<g>
		<path fill-rule="evenodd" clip-rule="evenodd" d="M19.71,9.29l-3-3C16.53,6.11,16.28,6,16,6c-0.55,0-1,0.45-1,1
			c0,0.28,0.11,0.53,0.29,0.71L16.59,9H11V3.41l1.29,1.29C12.47,4.89,12.72,5,13,5c0.55,0,1-0.45,1-1c0-0.28-0.11-0.53-0.29-0.71
			l-3-3C10.53,0.11,10.28,0,10,0S9.47,0.11,9.29,0.29l-3,3C6.11,3.47,6,3.72,6,4c0,0.55,0.45,1,1,1c0.28,0,0.53-0.11,0.71-0.29
			L9,3.41V9H3.41l1.29-1.29C4.89,7.53,5,7.28,5,7c0-0.55-0.45-1-1-1C3.72,6,3.47,6.11,3.29,6.29l-3,3C0.11,9.47,0,9.72,0,10
			c0,0.28,0.11,0.53,0.29,0.71l3,3C3.47,13.89,3.72,14,4,14c0.55,0,1-0.45,1-1c0-0.28-0.11-0.53-0.29-0.71L3.41,11H9v5.59
			l-1.29-1.29C7.53,15.11,7.28,15,7,15c-0.55,0-1,0.45-1,1c0,0.28,0.11,0.53,0.29,0.71l3,3C9.47,19.89,9.72,20,10,20
			s0.53-0.11,0.71-0.29l3-3C13.89,16.53,14,16.28,14,16c0-0.55-0.45-1-1-1c-0.28,0-0.53,0.11-0.71,0.29L11,16.59V11h5.59l-1.29,1.29
			C15.11,12.47,15,12.72,15,13c0,0.55,0.45,1,1,1c0.28,0,0.53-0.11,0.71-0.29l3-3C19.89,10.53,20,10.28,20,10
			C20,9.72,19.89,9.47,19.71,9.29z"/>
	</g>
</g>
</svg>
