<svg xmlns="http://www.w3.org/2000/svg" xml:space="preserve" viewBox="0 0 20 20"><path fill-rule="evenodd" d="m19.71 9.29-3-3a1.003 1.003 0 0 0-1.42 1.42L16.59 9H11V3.41l1.29 1.29c.18.19.43.3.71.3a1.003 1.003 0 0 0 .71-1.71l-3-3C10.53.11 10.28 0 10 0s-.53.11-.71.29l-3 3a1.003 1.003 0 0 0 1.42 1.42L9 3.41V9H3.41L4.7 7.71c.19-.18.3-.43.3-.71a1.003 1.003 0 0 0-1.71-.71l-3 3C.11 9.47 0 9.72 0 10c0 .28.11.53.29.71l3 3a1.003 1.003 0 0 0 1.42-1.42L3.41 11H9v5.59L7.71 15.3A.965.965 0 0 0 7 15a1.003 1.003 0 0 0-.71 1.71l3 3c.18.18.43.29.71.29s.53-.11.71-.29l3-3a1.003 1.003 0 0 0-1.42-1.42L11 16.59V11h5.59l-1.29 1.29c-.19.18-.3.43-.3.71a1.003 1.003 0 0 0 1.71.71l3-3c.18-.18.29-.43.29-.71 0-.28-.11-.53-.29-.71z" clip-rule="evenodd"/></svg>