<?xml version="1.0" encoding="utf-8"?>
<!-- Generator: Adobe Illustrator 18.1.0, SVG Export Plug-In . SVG Version: 6.00 Build 0)  -->
<svg version="1.1" id="Layer_1" xmlns="http://www.w3.org/2000/svg" xmlns:xlink="http://www.w3.org/1999/xlink" x="0px" y="0px"
	 viewBox="0 0 20 20" enable-background="new 0 0 20 20" xml:space="preserve">
<g id="mugshot">
	<g>
		<path fill-rule="evenodd" clip-rule="evenodd" d="M19,0H1C0.45,0,0,0.45,0,1v18c0,0.55,0.45,1,1,1h18c0.55,0,1-0.45,1-1V1
			C20,0.45,19.55,0,19,0z M18,18h-0.07c-0.05-0.2-0.12-0.42-0.22-0.67c-0.46-1.05-2.68-1.75-4.16-2.4
			c-1.48-0.65-1.28-1.05-1.33-1.59c-0.01-0.07-0.01-0.15-0.01-0.23c0.51-0.45,0.92-1.07,1.19-1.78c0,0,0.01-0.04,0.02-0.05
			c0.06-0.15,0.11-0.32,0.15-0.48c0.34-0.07,0.54-0.44,0.61-0.78c0.08-0.14,0.23-0.48,0.2-0.87c-0.05-0.5-0.25-0.73-0.47-0.82
			c0-0.03,0-0.06,0-0.09c0-0.63-0.06-1.55-0.17-2.15c-0.02-0.17-0.06-0.33-0.11-0.5c-0.22-0.73-0.67-1.39-1.29-1.86
			C11.7,3.25,10.81,3,10.02,3S8.34,3.25,7.71,3.73C7.1,4.2,6.64,4.86,6.42,5.59c-0.05,0.16-0.09,0.33-0.11,0.5
			C6.19,6.69,6.14,7.6,6.14,8.23c0,0.03,0,0.05,0,0.08C5.9,8.4,5.7,8.63,5.65,9.14c-0.04,0.39,0.12,0.73,0.2,0.87
			c0.08,0.35,0.28,0.72,0.63,0.78c0.04,0.17,0.09,0.33,0.15,0.48c0,0.01,0.01,0.02,0.01,0.03l0.01,0.01c0.27,0.72,0.7,1.35,1.22,1.8
			c0,0.07-0.01,0.14-0.01,0.21c-0.05,0.54,0.1,0.94-1.38,1.59c-1.48,0.65-3.7,1.35-4.16,2.4C2.2,17.58,2.14,17.8,2.09,18H2V2h16V18z
			"/>
	</g>
</g>
</svg>
