<svg xmlns="http://www.w3.org/2000/svg" xml:space="preserve" viewBox="0 0 20 20"><path fill-rule="evenodd" d="M19 0H1C.45 0 0 .45 0 1v18c0 .55.45 1 1 1h18c.55 0 1-.45 1-1V1c0-.55-.45-1-1-1zm-1 18h-.07c-.05-.2-.12-.42-.22-.67-.46-1.05-2.68-1.75-4.16-2.4-1.48-.65-1.28-1.05-1.33-1.59-.01-.07-.01-.15-.01-.23.51-.45.92-1.07 1.19-1.78 0 0 .01-.04.02-.05.06-.15.11-.32.15-.48.34-.07.54-.44.61-.78.08-.14.23-.48.2-.87-.05-.5-.25-.73-.47-.82v-.09c0-.63-.06-1.55-.17-2.15-.02-.17-.06-.33-.11-.5a3.67 3.67 0 0 0-1.29-1.86C11.7 3.25 10.81 3 10.02 3s-1.68.25-2.31.73c-.61.47-1.07 1.13-1.29 1.86-.05.16-.09.33-.11.5-.12.6-.17 1.51-.17 2.14v.08c-.24.09-.44.32-.49.83-.04.39.12.73.2.87.08.35.28.72.63.78.04.17.09.33.15.48 0 .01.01.02.01.03l.01.01c.27.72.7 1.35 1.22 1.8 0 .07-.01.14-.01.21-.05.54.1.94-1.38 1.59-1.48.65-3.7 1.35-4.16 2.4-.12.27-.18.49-.23.69H2V2h16v16z" clip-rule="evenodd"/></svg>