<?xml version="1.0" encoding="utf-8"?>
<!-- Generator: Adobe Illustrator 18.1.0, SVG Export Plug-In . SVG Version: 6.00 Build 0)  -->
<svg version="1.1" id="Layer_1" xmlns="http://www.w3.org/2000/svg" xmlns:xlink="http://www.w3.org/1999/xlink" x="0px" y="0px"
	 viewBox="0 0 20 20" enable-background="new 0 0 20 20" xml:space="preserve">
<g id="music_1_">
	<g>
		<path fill-rule="evenodd" clip-rule="evenodd" d="M19,0c-0.08,0-0.16,0.03-0.24,0.05l0-0.02l-12,3l0,0.02C6.33,3.16,6,3.53,6,4
			v11.35C5.41,15.13,4.73,15,4,15c-2.21,0-4,1.12-4,2.5C0,18.88,1.79,20,4,20c1.94,0,3.55-0.86,3.92-2H8V7.78l10-2.5v7.07
			C17.41,12.13,16.73,12,16,12c-2.21,0-4,1.12-4,2.5c0,1.38,1.79,2.5,4,2.5c1.94,0,3.55-0.86,3.92-2H20V1C20,0.45,19.55,0,19,0z"/>
	</g>
</g>
</svg>
