<?xml version="1.0" encoding="utf-8"?>
<!-- Generator: Adobe Illustrator 18.0.0, SVG Export Plug-In . SVG Version: 6.00 Build 0)  -->
<svg version="1.1" id="Layer_1" xmlns="http://www.w3.org/2000/svg" xmlns:xlink="http://www.w3.org/1999/xlink" x="0px" y="0px"
	 viewBox="0 0 20 20" enable-background="new 0 0 20 20" xml:space="preserve">
<g id="new_prescription_1_">
	<path id="Combined-Shape_10_" d="M11.95,10.23c0.16-0.18,0.22-0.22,0.46-0.22h1.48c0.25,0,0.47,0.08,0.59,0.33
		c0.1,0.2,0.09,0.41-0.05,0.66l-2.71,3.58L14.88,19c0.13,0.21,0.16,0.46,0.03,0.69C14.79,19.9,14.57,20,14.34,20H12.7
		c-0.31,0-0.56-0.17-0.7-0.44l-1.9-2.67l-1.93,2.68C8.02,19.84,7.75,20,7.44,20H5.98c-0.25,0-0.47-0.08-0.59-0.33
		c-0.1-0.2-0.09-0.41,0.05-0.66l3.09-4.35L4.26,9H3v4.32c0,0.41-0.3,0.69-0.7,0.69H0.7c-0.41,0-0.7-0.28-0.7-0.69V0.69
		C0,0.28,0.3,0,0.7,0h4.42c0.71,0,1.36,0.1,1.94,0.3c0.59,0.2,1.11,0.49,1.54,0.87c0.44,0.38,0.78,0.84,1.02,1.39
		C9.87,3.1,9.99,3.69,9.99,4.33c0,1.01-0.28,1.88-0.84,2.6c-0.43,0.54-1.35,1.29-2,1.59l3.09,3.94L11.95,10.23z M4.71,6.04
		c0.71,0,1.45-0.16,1.81-0.46c0.33-0.28,0.5-0.69,0.5-1.25s-0.17-0.97-0.5-1.25c-0.35-0.3-1.1-0.46-1.81-0.46h-1.7v3.42H4.71z M19,3
		c0.55,0,1,0.45,1,1s-0.45,1-1,1h-2v2c0,0.55-0.45,1-1,1c-0.55,0-1-0.45-1-1V5h-2c-0.55,0-1-0.45-1-1s0.45-1,1-1h2V1
		c0-0.55,0.45-1,1-1c0.55,0,1,0.45,1,1v2H19z"/>
</g>
</svg>
