<?xml version="1.0" encoding="utf-8"?>
<!-- Generator: Adobe Illustrator 18.0.0, SVG Export Plug-In . SVG Version: 6.00 Build 0)  -->
<svg version="1.1" id="Layer_1" xmlns="http://www.w3.org/2000/svg" xmlns:xlink="http://www.w3.org/1999/xlink" x="0px" y="0px"
	 viewBox="0 0 20 20" enable-background="new 0 0 20 20" xml:space="preserve">
<g id="new_grid_item_1_">
	<g>
		<path fill-rule="evenodd" clip-rule="evenodd" d="M8,0H1C0.45,0,0,0.45,0,1v7c0,0.55,0.45,1,1,1h7c0.55,0,1-0.45,1-1V1
			C9,0.45,8.55,0,8,0z M8,11H1c-0.55,0-1,0.45-1,1v7c0,0.55,0.45,1,1,1h7c0.55,0,1-0.45,1-1v-7C9,11.45,8.55,11,8,11z M14,18h-1v-1
			c0-0.55-0.45-1-1-1s-1,0.45-1,1v2c0,0.55,0.45,1,1,1h2c0.55,0,1-0.45,1-1C15,18.45,14.55,18,14,18z M19,11h-2c-0.55,0-1,0.45-1,1
			c0,0.55,0.45,1,1,1h1v1c0,0.55,0.45,1,1,1s1-0.45,1-1v-2C20,11.45,19.55,11,19,11z M19,0h-7c-0.55,0-1,0.45-1,1v7
			c0,0.55,0.45,1,1,1h7c0.55,0,1-0.45,1-1V1C20,0.45,19.55,0,19,0z M14,11h-2c-0.55,0-1,0.45-1,1v2c0,0.55,0.45,1,1,1s1-0.45,1-1v-1
			h1c0.55,0,1-0.45,1-1C15,11.45,14.55,11,14,11z M19,16c-0.55,0-1,0.45-1,1v1h-1c-0.55,0-1,0.45-1,1c0,0.55,0.45,1,1,1h2
			c0.55,0,1-0.45,1-1v-2C20,16.45,19.55,16,19,16z"/>
	</g>
</g>
</svg>
