<svg xmlns="http://www.w3.org/2000/svg" xml:space="preserve" viewBox="0 0 20 20"><path d="M11.41 15.92c-1.46-.65-1.26-1.05-1.31-1.59-.01-.07-.01-.15-.01-.23.5-.45.91-1.07 1.18-1.78 0 0 .01-.04.02-.05.06-.15.11-.32.15-.48.33-.07.53-.44.6-.78.08-.14.23-.48.2-.87-.05-.5-.24-.73-.47-.82v-.09c0-.63-.06-1.55-.17-2.15-.02-.17-.06-.33-.11-.5-.22-.73-.67-1.4-1.27-1.86C9.58 4.25 8.7 4 7.92 4c-.78 0-1.66.25-2.28.73-.61.47-1.06 1.13-1.27 1.86-.05.16-.08.33-.11.5-.12.6-.18 1.51-.18 2.14v.08c-.23.09-.43.32-.48.83-.04.39.12.73.2.87.08.35.28.72.62.78.04.17.09.33.15.48 0 .01.01.02.01.03l.01.01c.27.72.69 1.35 1.21 1.8 0 .07-.01.14-.01.21-.05.54.1.94-1.36 1.59-1.46.65-3.66 1.35-4.11 2.4C-.14 19.38.04 20 .04 20h15.75s.18-.62-.27-1.67c-.45-1.06-2.65-1.75-4.11-2.41zM18.87 3h-2V1c0-.55-.45-1-1-1s-1 .45-1 1v2h-2c-.55 0-1 .45-1 1s.45 1 1 1h2v2c0 .55.45 1 1 1s1-.45 1-1V5h2c.55 0 1-.45 1-1s-.45-1-1-1z"/></svg>