<?xml version="1.0" encoding="utf-8"?>
<!-- Generator: Adobe Illustrator 17.1.0, SVG Export Plug-In . SVG Version: 6.00 Build 0)  -->
<!DOCTYPE svg PUBLIC "-//W3C//DTD SVG 1.1//EN" "http://www.w3.org/Graphics/SVG/1.1/DTD/svg11.dtd">
<svg version="1.1" id="Layer_1" xmlns="http://www.w3.org/2000/svg" xmlns:xlink="http://www.w3.org/1999/xlink" x="0px" y="0px"
	 viewBox="0 0 20 20" enable-background="new 0 0 20 20" xml:space="preserve">
<g id="new_text_box_1_">
	<g>
		<path fill-rule="evenodd" clip-rule="evenodd" d="M19,3h-2V1c0-0.55-0.45-1-1-1s-1,0.45-1,1v2h-2c-0.55,0-1,0.45-1,1s0.45,1,1,1h2
			v2c0,0.55,0.45,1,1,1s1-0.45,1-1V5h2c0.55,0,1-0.45,1-1S19.55,3,19,3z M5,7.5v1C5,8.78,5.22,9,5.5,9S6,8.78,6,8.5V8h2v7H7.5
			C7.22,15,7,15.22,7,15.5C7,15.78,7.22,16,7.5,16h2c0.28,0,0.5-0.22,0.5-0.5c0-0.28-0.22-0.5-0.5-0.5H9V8h2v0.5
			C11,8.78,11.22,9,11.5,9S12,8.78,12,8.5v-1C12,7.22,11.78,7,11.5,7h-6C5.22,7,5,7.22,5,7.5z M16,9c-0.55,0-1,0.45-1,1v8H2V5h8
			c0.55,0,1-0.45,1-1c0-0.55-0.45-1-1-1H1C0.45,3,0,3.45,0,4v15c0,0.55,0.45,1,1,1h15c0.55,0,1-0.45,1-1v-9C17,9.45,16.55,9,16,9z"
			/>
	</g>
</g>
</svg>
