<?xml version="1.0" encoding="utf-8"?>
<!-- Generator: Adobe Illustrator 18.1.0, SVG Export Plug-In . SVG Version: 6.00 Build 0)  -->
<svg version="1.1" id="Layer_1" xmlns="http://www.w3.org/2000/svg" xmlns:xlink="http://www.w3.org/1999/xlink" x="0px" y="0px"
	 viewBox="0 0 20 20" enable-background="new 0 0 20 20" xml:space="preserve">
<g id="new_link_2_">
	<g>
		<path fill-rule="evenodd" clip-rule="evenodd" d="M14.5,12c-1.21,0-2.22,0.86-2.45,2h-7.1c-0.23-1.14-1.24-2-2.45-2
			C1.12,12,0,13.12,0,14.5C0,15.88,1.12,17,2.5,17c1.21,0,2.22-0.86,2.45-2h7.1c0.23,1.14,1.24,2,2.45,2c1.38,0,2.5-1.12,2.5-2.5
			C17,13.12,15.88,12,14.5,12z M19,5h-2V3c0-0.55-0.45-1-1-1s-1,0.45-1,1v2h-2c-0.55,0-1,0.45-1,1s0.45,1,1,1h2v2c0,0.55,0.45,1,1,1
			s1-0.45,1-1V7h2c0.55,0,1-0.45,1-1S19.55,5,19,5z"/>
	</g>
</g>
</svg>
