<?xml version="1.0" encoding="utf-8"?>
<!-- Generator: Adobe Illustrator 18.1.0, SVG Export Plug-In . SVG Version: 6.00 Build 0)  -->
<svg version="1.1" id="Layer_1" xmlns="http://www.w3.org/2000/svg" xmlns:xlink="http://www.w3.org/1999/xlink" x="0px" y="0px"
	 viewBox="0 0 20 20" enable-background="new 0 0 20 20" xml:space="preserve">
<g id="new_person_1_">
	<g>
		<path d="M11.41,15.92c-1.46-0.65-1.26-1.05-1.31-1.59c-0.01-0.07-0.01-0.15-0.01-0.23c0.5-0.45,0.91-1.07,1.18-1.78
			c0,0,0.01-0.04,0.02-0.05c0.06-0.15,0.11-0.32,0.15-0.48c0.33-0.07,0.53-0.44,0.6-0.78c0.08-0.14,0.23-0.48,0.2-0.87
			c-0.05-0.5-0.24-0.73-0.47-0.82c0-0.03,0-0.06,0-0.09c0-0.63-0.06-1.55-0.17-2.15c-0.02-0.17-0.06-0.33-0.11-0.5
			c-0.22-0.73-0.67-1.4-1.27-1.86C9.58,4.25,8.7,4,7.92,4C7.14,4,6.26,4.25,5.64,4.73C5.03,5.2,4.58,5.86,4.37,6.59
			c-0.05,0.16-0.08,0.33-0.11,0.5C4.14,7.69,4.08,8.6,4.08,9.23c0,0.03,0,0.05,0,0.08C3.85,9.4,3.65,9.63,3.6,10.14
			c-0.04,0.39,0.12,0.73,0.2,0.87c0.08,0.35,0.28,0.72,0.62,0.78c0.04,0.17,0.09,0.33,0.15,0.48c0,0.01,0.01,0.02,0.01,0.03
			l0.01,0.01c0.27,0.72,0.69,1.35,1.21,1.8c0,0.07-0.01,0.14-0.01,0.21c-0.05,0.54,0.1,0.94-1.36,1.59
			c-1.46,0.65-3.66,1.35-4.11,2.4C-0.14,19.38,0.04,20,0.04,20h15.75c0,0,0.18-0.62-0.27-1.67C15.07,17.27,12.87,16.58,11.41,15.92z
			 M18.87,3h-2V1c0-0.55-0.45-1-1-1c-0.55,0-1,0.45-1,1v2h-2c-0.55,0-1,0.45-1,1c0,0.55,0.45,1,1,1h2v2c0,0.55,0.45,1,1,1
			c0.55,0,1-0.45,1-1V5h2c0.55,0,1-0.45,1-1C19.87,3.45,19.42,3,18.87,3z"/>
	</g>
</g>
</svg>
