<svg xmlns="http://www.w3.org/2000/svg" xml:space="preserve" viewBox="0 0 20 20"><path fill-rule="evenodd" d="M19 3h-2V1c0-.55-.45-1-1-1s-1 .45-1 1v2h-2c-.55 0-1 .45-1 1s.45 1 1 1h2v2c0 .55.45 1 1 1s1-.45 1-1V5h2c.55 0 1-.45 1-1s-.45-1-1-1zM5 7.5v1c0 .28.22.5.5.5s.5-.22.5-.5V8h2v7h-.5c-.28 0-.5.22-.5.5s.22.5.5.5h2c.28 0 .5-.22.5-.5s-.22-.5-.5-.5H9V8h2v.5c0 .28.22.5.5.5s.5-.22.5-.5v-1c0-.28-.22-.5-.5-.5h-6c-.28 0-.5.22-.5.5zM16 9c-.55 0-1 .45-1 1v8H2V5h8c.55 0 1-.45 1-1s-.45-1-1-1H1c-.55 0-1 .45-1 1v15c0 .55.45 1 1 1h15c.55 0 1-.45 1-1v-9c0-.55-.45-1-1-1z" clip-rule="evenodd"/></svg>