<svg xmlns="http://www.w3.org/2000/svg" xml:space="preserve" viewBox="0 0 20 20"><path d="M11.95 10.23c.16-.18.22-.22.46-.22h1.48c.25 0 .47.08.59.33.1.2.09.41-.05.66l-2.71 3.58L14.88 19c.13.21.16.46.03.69-.12.21-.34.31-.57.31H12.7c-.31 0-.56-.17-.7-.44l-1.9-2.67-1.93 2.68c-.15.27-.42.43-.73.43H5.98c-.25 0-.47-.08-.59-.33-.1-.2-.09-.41.05-.66l3.09-4.35L4.26 9H3v4.32c0 .41-.3.69-.7.69H.7c-.41 0-.7-.28-.7-.69V.69C0 .28.3 0 .7 0h4.42c.71 0 1.36.1 1.94.3.59.2 1.11.49 1.54.87.44.38.78.84 1.02 1.39.25.54.37 1.13.37 1.77 0 1.01-.28 1.88-.84 2.6-.43.54-1.35 1.29-2 1.59l3.09 3.94 1.71-2.23zM4.71 6.04c.71 0 1.45-.16 1.81-.46.33-.28.5-.69.5-1.25s-.17-.97-.5-1.25c-.35-.3-1.1-.46-1.81-.46h-1.7v3.42h1.7zM19 3c.55 0 1 .45 1 1s-.45 1-1 1h-2v2c0 .55-.45 1-1 1s-1-.45-1-1V5h-2c-.55 0-1-.45-1-1s.45-1 1-1h2V1c0-.55.45-1 1-1s1 .45 1 1v2h2z"/></svg>