<?xml version="1.0" encoding="utf-8"?>
<!-- Generator: Adobe Illustrator 17.1.0, SVG Export Plug-In . SVG Version: 6.00 Build 0)  -->
<!DOCTYPE svg PUBLIC "-//W3C//DTD SVG 1.1//EN" "http://www.w3.org/Graphics/SVG/1.1/DTD/svg11.dtd">
<svg version="1.1" id="Layer_1" xmlns:sketch="http://www.bohemiancoding.com/sketch/ns"
	 xmlns="http://www.w3.org/2000/svg" xmlns:xlink="http://www.w3.org/1999/xlink" x="0px" y="0px" viewBox="0 0 20 20"
	 enable-background="new 0 0 20 20" xml:space="preserve">
<title>Shape</title>
<desc>Created with Sketch.</desc>
<g id="Page-1" sketch:type="MSPage">
	<g id="Artboard-1" sketch:type="MSArtboardGroup">
		<path id="Shape" sketch:type="MSShapeGroup" d="M12,4c0,0.6,0.4,1,1,1h2v2c0,0.6,0.4,1,1,1c0.5,0,1-0.4,1-1V5h2c0.5,0,1-0.4,1-1
			s-0.5-1-1-1h-2V1c0-0.6-0.5-1-1-1c-0.6,0-1,0.4-1,1v2h-2C12.4,3,12,3.5,12,4L12,4z M19,7c0,1.7-1.3,3-3,3s-3-1.3-3-3
			c-1.7,0-3-1.3-3-3s1.3-3,3-3c0-0.2,0-0.4,0.1-0.5c-1-0.3-2-0.5-3.1-0.5C4.5,0,0,4.5,0,10s4.5,10,10,10s10-4.5,10-10
			c0-1.1-0.2-2.1-0.5-3H19L19,7z"/>
	</g>
</g>
</svg>
