<?xml version="1.0" encoding="UTF-8"?>
<svg width="20px" height="20px" viewBox="0 0 20 20" version="1.1" xmlns="http://www.w3.org/2000/svg" xmlns:xlink="http://www.w3.org/1999/xlink">
    <!-- Generator: Sketch 54.1 (76490) - https://sketchapp.com -->
    <title>not-equal-to</title>
    <desc>Created with Sketch.</desc>
    <g id="not-equal-to" stroke="none" stroke-width="1" fill="none" fill-rule="evenodd">
        <g transform="translate(3.000000, 3.000000)" fill="#000000" fill-rule="nonzero" id="Combined-Shape">
            <path d="M6.4867333,4 L7.0194193,0.80388386 C7.1277313,0.26232411 7.6545564,-0.08889263 8.1961161,0.01941932 C8.7376759,0.12773127 9.0888926,0.65455638 8.9805807,1.19611614 L8.5132667,4 L13,4 C13.5522847,4 14,4.44771525 14,5 C14,5.55228475 13.5522847,6 13,6 L8.1799334,6 L7.8466,8 L13,8 C13.5522847,8 14,8.4477153 14,9 C14,9.5522847 13.5522847,10 13,10 L7.5132667,10 L6.98058068,13.1961161 C6.87226873,13.7376759 6.34544362,14.0888926 5.80388386,13.9805807 C5.26232411,13.8722687 4.91110737,13.3454436 5.01941932,12.8038839 L5.4867333,10 L1,10 C0.44771525,10 0,9.5522847 0,9 C0,8.4477153 0.44771525,8 1,8 L5.82006664,8 L6.15339997,6 L1,6 C0.44771525,6 0,5.55228475 0,5 C0,4.44771525 0.44771525,4 1,4 L6.4867333,4 Z"></path>
        </g>
    </g>
</svg>