<?xml version="1.0" encoding="utf-8"?>
<!-- Generator: Adobe Illustrator 17.1.0, SVG Export Plug-In . SVG Version: 6.00 Build 0)  -->
<!DOCTYPE svg PUBLIC "-//W3C//DTD SVG 1.1//EN" "http://www.w3.org/Graphics/SVG/1.1/DTD/svg11.dtd">
<svg version="1.1" id="Layer_1" xmlns="http://www.w3.org/2000/svg" xmlns:xlink="http://www.w3.org/1999/xlink" x="0px" y="0px"
	 viewBox="0 0 20 20" enable-background="new 0 0 20 20" xml:space="preserve">
<g id="notification_1_">
	<g>
		<path fill-rule="evenodd" clip-rule="evenodd" d="M10,20c1.1,0,2-0.9,2-2H8C8,19.1,8.9,20,10,20z M17,15c-0.55,0-1-0.45-1-1V8
			c0-2.61-1.67-4.81-4-5.63V2c0-1.1-0.9-2-2-2S8,0.9,8,2v0.37C5.67,3.19,4,5.39,4,8v6c0,0.55-0.45,1-1,1s-1,0.45-1,1
			c0,0.55,0.45,1,1,1h14c0.55,0,1-0.45,1-1C18,15.45,17.55,15,17,15z"/>
	</g>
</g>
</svg>
