<?xml version="1.0" encoding="utf-8"?>
<!-- Generator: Adobe Illustrator 18.0.0, SVG Export Plug-In . SVG Version: 6.00 Build 0)  -->
<svg version="1.1" id="Layer_1" xmlns="http://www.w3.org/2000/svg" xmlns:xlink="http://www.w3.org/1999/xlink" x="0px" y="0px"
	 viewBox="0 0 20 20" enable-background="new 0 0 20 20" xml:space="preserve">
<g id="numbered_list_2_">
	<g>
		<path fill-rule="evenodd" clip-rule="evenodd" d="M1.74,9.01h1.27V1H2.06C2.02,1.24,1.94,1.45,1.8,1.62
			C1.67,1.79,1.51,1.92,1.33,2.03C1.14,2.14,0.93,2.21,0.7,2.26C0.47,2.3,0.24,2.33-0.01,2.33v1.03h1.75V9.01z M2.17,16.94
			c0.18-0.14,0.37-0.28,0.58-0.43c0.21-0.14,0.42-0.29,0.63-0.45c0.21-0.16,0.41-0.33,0.61-0.5c0.2-0.18,0.37-0.38,0.52-0.59
			c0.15-0.21,0.28-0.45,0.37-0.7c0.09-0.25,0.14-0.54,0.14-0.85c0-0.25-0.04-0.52-0.12-0.8c-0.08-0.28-0.21-0.54-0.39-0.78
			c-0.19-0.24-0.43-0.44-0.73-0.59C3.48,11.08,3.1,11,2.66,11c-0.41,0-0.77,0.08-1.08,0.23C1.26,11.39,1,11.6,0.78,11.87
			c-0.22,0.27-0.38,0.59-0.49,0.96c-0.11,0.37-0.16,0.77-0.16,1.21h1.19c0.01-0.28,0.03-0.53,0.08-0.77
			c0.05-0.24,0.12-0.45,0.21-0.62c0.09-0.18,0.22-0.31,0.38-0.42c0.16-0.1,0.35-0.15,0.59-0.15c0.26,0,0.47,0.05,0.63,0.14
			c0.16,0.09,0.29,0.21,0.38,0.35c0.09,0.14,0.15,0.29,0.18,0.45c0.03,0.16,0.05,0.31,0.05,0.45c-0.01,0.31-0.08,0.58-0.22,0.81
			c-0.14,0.24-0.32,0.45-0.53,0.66c-0.22,0.2-0.45,0.39-0.71,0.57c-0.26,0.18-0.51,0.36-0.74,0.54c-0.5,0.36-0.89,0.78-1.17,1.27
			C0.15,17.79,0,18.36-0.01,19.01H5v-1.14H1.43c0.05-0.17,0.14-0.33,0.27-0.49C1.83,17.23,1.99,17.08,2.17,16.94z M18,4.02H8
			c-0.55,0-1,0.45-1,1v1c0,0.55,0.45,1,1,1h10c0.55,0,1-0.45,1-1v-1C19,4.46,18.55,4.02,18,4.02z M18,13.02H8c-0.55,0-1,0.45-1,1v1
			c0,0.55,0.45,1,1,1h10c0.55,0,1-0.45,1-1v-1C19,13.46,18.55,13.02,18,13.02z"/>
	</g>
</g>
</svg>
