<svg xmlns="http://www.w3.org/2000/svg" xml:space="preserve" viewBox="0 0 20 20"><path fill-rule="evenodd" d="M1.74 9.01h1.27V1h-.95c-.04.24-.12.45-.26.62-.13.17-.29.3-.47.41-.19.11-.4.18-.63.23-.23.04-.46.07-.71.07v1.03h1.75v5.65zm.43 7.93c.18-.14.37-.28.58-.43.21-.14.42-.29.63-.45.21-.16.41-.33.61-.5.2-.18.37-.38.52-.59.15-.21.28-.45.37-.7.09-.25.14-.54.14-.85 0-.25-.04-.52-.12-.8-.08-.28-.21-.54-.39-.78-.19-.24-.43-.44-.73-.59-.3-.17-.68-.25-1.12-.25-.41 0-.77.08-1.08.23-.32.16-.58.37-.8.64-.22.27-.38.59-.49.96-.11.37-.16.77-.16 1.21h1.19c.01-.28.03-.53.08-.77s.12-.45.21-.62c.09-.18.22-.31.38-.42.16-.1.35-.15.59-.15.26 0 .47.05.63.14.16.09.29.21.38.35.09.14.15.29.18.45.03.16.05.31.05.45-.01.31-.08.58-.22.81-.14.24-.32.45-.53.66-.22.2-.45.39-.71.57-.26.18-.51.36-.74.54-.5.36-.89.78-1.17 1.27-.3.47-.45 1.04-.46 1.69H5v-1.14H1.43c.05-.17.14-.33.27-.49.13-.15.29-.3.47-.44zM18 4.02H8c-.55 0-1 .45-1 1v1c0 .55.45 1 1 1h10c.55 0 1-.45 1-1v-1c0-.56-.45-1-1-1zm0 9H8c-.55 0-1 .45-1 1v1c0 .55.45 1 1 1h10c.55 0 1-.45 1-1v-1c0-.56-.45-1-1-1z" clip-rule="evenodd"/></svg>