<svg xmlns="http://www.w3.org/2000/svg" xml:space="preserve" viewBox="0 0 20 20"><path fill-rule="evenodd" d="M2.39 5.75c-.17.21-.38.39-.63.52s-.52.23-.83.29c-.3.05-.61.08-.93.08v1.24h2.49V15h1.49V4.98H2.73c-.05.31-.17.57-.34.77zm17.2 4.71c-.27-.44-.65-.71-1.14-.82v-.02c.42-.16.72-.43.92-.79.2-.36.29-.79.29-1.27 0-.42-.08-.8-.23-1.12-.15-.33-.36-.59-.62-.8-.26-.21-.55-.37-.87-.48-.32-.11-.65-.16-.98-.16-.43 0-.82.08-1.16.25-.34.16-.63.39-.87.69-.24.29-.43.64-.57 1.04-.14.4-.22.83-.23 1.3h1.39c-.01-.25.02-.49.07-.72.06-.23.14-.44.26-.63s.27-.34.45-.45c.18-.11.39-.17.63-.17.39 0 .71.12.96.37s.37.58.37.99c0 .29-.05.54-.16.74-.11.2-.25.36-.43.47-.18.11-.38.19-.61.24-.23.05-.46.06-.68.05v1.17c.28-.01.55 0 .81.03s.5.1.71.21c.21.11.38.28.51.5.13.22.2.52.2.89 0 .55-.16.97-.47 1.27-.31.3-.7.45-1.17.45-.55 0-.95-.19-1.23-.58-.27-.39-.4-.88-.38-1.46h-1.39c.01.5.08.96.21 1.38.13.41.32.77.57 1.06.25.29.56.52.93.68.37.16.8.24 1.3.24.41 0 .79-.07 1.16-.21.37-.14.69-.33.96-.58.28-.25.5-.56.66-.92a3 3 0 0 0 .24-1.23c0-.64-.14-1.17-.41-1.61zM8.58 12.41c.21-.18.45-.36.7-.53.25-.18.5-.36.75-.56.25-.2.49-.41.73-.63.23-.22.44-.47.63-.74.18-.27.33-.56.44-.88.11-.32.16-.67.16-1.07 0-.32-.05-.65-.14-1-.09-.35-.25-.68-.47-.97-.22-.3-.51-.55-.87-.74-.36-.2-.81-.29-1.35-.29-.49 0-.93.1-1.3.29-.37.18-.69.44-.95.78-.26.33-.45.73-.58 1.2-.13.46-.2.96-.2 1.5h1.43c.01-.35.04-.67.09-.97.05-.3.14-.56.25-.78.11-.22.26-.39.45-.52s.43-.19.71-.19c.31 0 .56.06.75.18.19.12.34.26.45.43.11.17.18.36.22.56.04.2.06.39.06.57-.01.38-.1.72-.26 1.02-.15.3-.37.57-.63.83-.26.25-.54.49-.85.71-.31.22-.61.45-.89.68-.6.45-1.06.98-1.41 1.58-.35.61-.52 1.32-.53 2.13h6.01v-1.43H7.69c.06-.21.17-.42.33-.61s.34-.38.56-.55z" clip-rule="evenodd"/></svg>