<?xml version="1.0" encoding="utf-8"?>
<!-- Generator: Adobe Illustrator 18.0.0, SVG Export Plug-In . SVG Version: 6.00 Build 0)  -->
<svg version="1.1" id="Layer_1" xmlns="http://www.w3.org/2000/svg" xmlns:xlink="http://www.w3.org/1999/xlink" x="0px" y="0px"
	 viewBox="0 0 20 20" enable-background="new 0 0 20 20" xml:space="preserve">
<g id="_x31_23_1_">
	<g>
		<path fill-rule="evenodd" clip-rule="evenodd" d="M2.39,5.75C2.22,5.96,2.01,6.14,1.76,6.27C1.51,6.4,1.24,6.5,0.93,6.56
			C0.63,6.61,0.32,6.64,0,6.64v1.24h2.49V15h1.49V4.98H2.73C2.68,5.29,2.56,5.55,2.39,5.75z M19.59,10.46
			c-0.27-0.44-0.65-0.71-1.14-0.82V9.62c0.42-0.16,0.72-0.43,0.92-0.79c0.2-0.36,0.29-0.79,0.29-1.27c0-0.42-0.08-0.8-0.23-1.12
			c-0.15-0.33-0.36-0.59-0.62-0.8c-0.26-0.21-0.55-0.37-0.87-0.48c-0.32-0.11-0.65-0.16-0.98-0.16c-0.43,0-0.82,0.08-1.16,0.25
			c-0.34,0.16-0.63,0.39-0.87,0.69c-0.24,0.29-0.43,0.64-0.57,1.04c-0.14,0.4-0.22,0.83-0.23,1.3h1.39
			c-0.01-0.25,0.02-0.49,0.07-0.72c0.06-0.23,0.14-0.44,0.26-0.63c0.12-0.19,0.27-0.34,0.45-0.45c0.18-0.11,0.39-0.17,0.63-0.17
			c0.39,0,0.71,0.12,0.96,0.37c0.25,0.25,0.37,0.58,0.37,0.99c0,0.29-0.05,0.54-0.16,0.74c-0.11,0.2-0.25,0.36-0.43,0.47
			c-0.18,0.11-0.38,0.19-0.61,0.24c-0.23,0.05-0.46,0.06-0.68,0.05v1.17c0.28-0.01,0.55,0,0.81,0.03c0.26,0.03,0.5,0.1,0.71,0.21
			c0.21,0.11,0.38,0.28,0.51,0.5c0.13,0.22,0.2,0.52,0.2,0.89c0,0.55-0.16,0.97-0.47,1.27c-0.31,0.3-0.7,0.45-1.17,0.45
			c-0.55,0-0.95-0.19-1.23-0.58c-0.27-0.39-0.4-0.88-0.38-1.46h-1.39c0.01,0.5,0.08,0.96,0.21,1.38c0.13,0.41,0.32,0.77,0.57,1.06
			c0.25,0.29,0.56,0.52,0.93,0.68c0.37,0.16,0.8,0.24,1.3,0.24c0.41,0,0.79-0.07,1.16-0.21c0.37-0.14,0.69-0.33,0.96-0.58
			c0.28-0.25,0.5-0.56,0.66-0.92c0.16-0.36,0.24-0.77,0.24-1.23C20,11.43,19.86,10.9,19.59,10.46z M8.58,12.41
			c0.21-0.18,0.45-0.36,0.7-0.53c0.25-0.18,0.5-0.36,0.75-0.56c0.25-0.2,0.49-0.41,0.73-0.63c0.23-0.22,0.44-0.47,0.63-0.74
			c0.18-0.27,0.33-0.56,0.44-0.88c0.11-0.32,0.16-0.67,0.16-1.07c0-0.32-0.05-0.65-0.14-1c-0.09-0.35-0.25-0.68-0.47-0.97
			c-0.22-0.3-0.51-0.55-0.87-0.74c-0.36-0.2-0.81-0.29-1.35-0.29c-0.49,0-0.93,0.1-1.3,0.29C7.49,5.47,7.17,5.73,6.91,6.07
			C6.65,6.4,6.46,6.8,6.33,7.27C6.2,7.73,6.13,8.23,6.13,8.77h1.43c0.01-0.35,0.04-0.67,0.09-0.97c0.05-0.3,0.14-0.56,0.25-0.78
			c0.11-0.22,0.26-0.39,0.45-0.52c0.19-0.13,0.43-0.19,0.71-0.19c0.31,0,0.56,0.06,0.75,0.18c0.19,0.12,0.34,0.26,0.45,0.43
			c0.11,0.17,0.18,0.36,0.22,0.56c0.04,0.2,0.06,0.39,0.06,0.57c-0.01,0.38-0.1,0.72-0.26,1.02C10.13,9.37,9.91,9.64,9.65,9.9
			c-0.26,0.25-0.54,0.49-0.85,0.71c-0.31,0.22-0.61,0.45-0.89,0.68c-0.6,0.45-1.06,0.98-1.41,1.58C6.15,13.48,5.98,14.19,5.97,15
			h6.01v-1.43H7.69c0.06-0.21,0.17-0.42,0.33-0.61C8.18,12.77,8.36,12.58,8.58,12.41z"/>
	</g>
</g>
</svg>
