<?xml version="1.0" encoding="utf-8"?>
<!-- Generator: Adobe Illustrator 18.0.0, SVG Export Plug-In . SVG Version: 6.00 Build 0)  -->
<svg version="1.1" id="Layer_1" xmlns="http://www.w3.org/2000/svg" xmlns:xlink="http://www.w3.org/1999/xlink" x="0px" y="0px"
	 viewBox="0 0 20 20" enable-background="new 0 0 20 20" xml:space="preserve">
<g id="oil_field_1_">
	<g>
		<path fill-rule="evenodd" clip-rule="evenodd" d="M19,17.99h-1.36l-4.35-9.57l2.91-0.86l1.66,4.1c0.11,0.27,0.43,0.4,0.72,0.31
			c0.12-0.04,0.22-0.11,0.28-0.2c0.06-0.11,1.47-2.08,1.05-5.6C19.79,5.12,19.3,0,16.01,0C14.89,0.01,13.99,0.83,14,1.84
			c0,0.19,0.04,0.38,0.1,0.56l1.34,3.31L0.72,10.03l0,0.02C0.31,10.17,0,10.54,0,10.99c0,0.55,0.45,1,1,1c0.1,0,0.19-0.03,0.28-0.06
			l0,0.02l2-0.59l1.47,6.63H3c-0.55,0-1,0.45-1,1c0,0.55,0.45,1,1,1h16c0.55,0,1-0.45,1-1C20,18.44,19.55,17.99,19,17.99z M5.2,10.8
			l3.95-1.16l-2.83,6.22L5.2,10.8z M7.55,17.99l3.95-8.68l3.95,8.68H7.55z"/>
	</g>
</g>
</svg>
