<svg xmlns="http://www.w3.org/2000/svg" xml:space="preserve" viewBox="0 0 20 20"><path fill-rule="evenodd" d="M19 17.99h-1.36l-4.35-9.57 2.91-.86 1.66 4.1c.11.27.43.4.72.31.12-.04.22-.11.28-.2.06-.11 1.47-2.08 1.05-5.6C19.79 5.12 19.3 0 16.01 0 14.89.01 13.99.83 14 1.84c0 .19.04.38.1.56l1.34 3.31L.72 10.03v.02c-.41.12-.72.49-.72.94 0 .55.45 1 1 1 .1 0 .19-.03.28-.06v.02l2-.59 1.47 6.63H3c-.55 0-1 .45-1 1s.45 1 1 1h16c.55 0 1-.45 1-1s-.45-1-1-1zM5.2 10.8l3.95-1.16-2.83 6.22L5.2 10.8zm2.35 7.19 3.95-8.68 3.95 8.68h-7.9z" clip-rule="evenodd"/></svg>