<?xml version="1.0" encoding="utf-8"?>
<!-- Generator: Adobe Illustrator 17.1.0, SVG Export Plug-In . SVG Version: 6.00 Build 0)  -->
<!DOCTYPE svg PUBLIC "-//W3C//DTD SVG 1.1//EN" "http://www.w3.org/Graphics/SVG/1.1/DTD/svg11.dtd">
<svg version="1.1" id="Layer_1" xmlns="http://www.w3.org/2000/svg" xmlns:xlink="http://www.w3.org/1999/xlink" x="0px" y="0px"
	 viewBox="0 0 20 20" enable-background="new 0 0 20 20" xml:space="preserve">
<g id="switch_to_1_column_1_">
	<g>
		<path d="M14.94,0h-4c-0.55,0-1,0.45-1,1v18c0,0.55,0.45,1,1,1h4c0.55,0,1-0.45,1-1V1C15.94,0.45,15.49,0,14.94,0z M6.94,6
			C6.66,6,6.41,6.11,6.23,6.29l-3,3C3.05,9.47,2.94,9.72,2.94,10s0.11,0.53,0.29,0.71l3,3C6.41,13.89,6.66,14,6.94,14
			c0.55,0,1-0.45,1-1V7C7.94,6.45,7.49,6,6.94,6z"/>
	</g>
</g>
</svg>
