<svg width="20" height="20" viewBox="0 0 20 20" fill="none" xmlns="http://www.w3.org/2000/svg">
<path fill-rule="evenodd" clip-rule="evenodd" d="M2 10C2 9.44772 2.44772 9 3 9C3.55228 9 4 9.44772 4 10C4 10.5523 3.55228 11 3 11C2.44772 11 2 10.5523 2 10ZM5.82929 9C5.41746 7.83481 4.30622 7 3 7C1.34315 7 0 8.34315 0 10C0 11.6569 1.34315 13 3 13C4.30622 13 5.41746 12.1652 5.82929 11H14.1707C14.5825 12.1652 15.6938 13 17 13C18.6569 13 20 11.6569 20 10C20 8.34315 18.6569 7 17 7C15.6938 7 14.5825 7.83481 14.1707 9H5.82929ZM17 9C16.4477 9 16 9.44772 16 10C16 10.5523 16.4477 11 17 11C17.5523 11 18 10.5523 18 10C18 9.44772 17.5523 9 17 9Z" fill="black"/>
</svg>
