<svg xmlns="http://www.w3.org/2000/svg" xml:space="preserve" viewBox="0 0 20 20"><path fill-rule="evenodd" d="M18.35 2.67A5.664 5.664 0 0 0 14.33 1c-1.44 0-2.89.56-3.99 1.67l-9.16 9.27C.4 12.73 0 13.78 0 14.83s.39 2.1 1.18 2.9c.78.79 1.82 1.18 2.85 1.18 1.04 0 2.07-.39 2.87-1.2l9.14-9.27c.96-.96.96-2.5.02-3.45-.94-.95-2.49-.96-3.44 0l-7.59 7.69c-.31.32-.3.83.01 1.14.31.31.81.31 1.13.02l7.59-7.69c.31-.31.84-.31 1.13-.02.31.31.31.85 0 1.16l-9.14 9.27c-.93.95-2.54.93-3.45.02-.94-.95-.92-2.55.02-3.49l9.16-9.25c1.55-1.56 4.18-1.59 5.72-.03 1.56 1.57 1.55 4.26 0 5.82l-8.89 9.02c-.3.31-.3.81.01 1.11.3.3.79.31 1.1.01v.01l8.91-9.02A5.645 5.645 0 0 0 20 6.73c0-1.48-.55-2.94-1.65-4.06z" clip-rule="evenodd"/></svg>