<?xml version="1.0" encoding="utf-8"?>
<!-- Generator: Adobe Illustrator 18.1.0, SVG Export Plug-In . SVG Version: 6.00 Build 0)  -->
<svg version="1.1" id="Ellipse_1_copy_1_" xmlns="http://www.w3.org/2000/svg" xmlns:xlink="http://www.w3.org/1999/xlink" x="0px"
	 y="0px" viewBox="0 0 20 20" enable-background="new 0 0 20 20" xml:space="preserve">
<g id="Ellipse_1_copy">
	<g>
		<path fill-rule="evenodd" clip-rule="evenodd" d="M18.35,2.67C17.24,1.56,15.79,1,14.33,1c-1.44,0-2.89,0.56-3.99,1.67l-9.16,9.27
			C0.4,12.73,0,13.78,0,14.83c0,1.05,0.39,2.1,1.18,2.9c0.78,0.79,1.82,1.18,2.85,1.18c1.04,0,2.07-0.39,2.87-1.2l9.14-9.27
			C17,7.48,17,5.94,16.06,4.99c-0.94-0.95-2.49-0.96-3.44,0l-7.59,7.69l0,0c-0.31,0.32-0.3,0.83,0.01,1.14
			c0.31,0.31,0.81,0.31,1.13,0.02l0,0l7.59-7.69c0.31-0.31,0.84-0.31,1.13-0.02c0.31,0.31,0.31,0.85,0,1.16l-9.14,9.27
			c-0.93,0.95-2.54,0.93-3.45,0.02c-0.94-0.95-0.92-2.55,0.02-3.49l9.16-9.25c1.55-1.56,4.18-1.59,5.72-0.03
			c1.56,1.57,1.55,4.26,0,5.82l-8.89,9.02l0,0c-0.3,0.31-0.3,0.81,0.01,1.11c0.3,0.3,0.79,0.31,1.1,0.01l0,0.01l8.91-9.02
			C19.45,9.65,20,8.19,20,6.73C20,5.25,19.45,3.79,18.35,2.67z"/>
	</g>
</g>
</svg>
