<?xml version="1.0" encoding="utf-8"?>
<!-- Generator: Adobe Illustrator 18.0.0, SVG Export Plug-In . SVG Version: 6.00 Build 0)  -->
<svg version="1.1" id="Layer_1" xmlns="http://www.w3.org/2000/svg" xmlns:xlink="http://www.w3.org/1999/xlink" x="0px" y="0px"
	 viewBox="0 0 20 20" enable-background="new 0 0 20 20" xml:space="preserve">
<g id="path_2_">
	<g>
		<path fill-rule="evenodd" clip-rule="evenodd" d="M18,0H2C0.9,0,0,0.9,0,2c0,1.1,0.9,2,2,2h7v4H4c-1.1,0-2,0.9-2,2
			c0,1.1,0.9,2,2,2h5v4H6c-1.1,0-2,0.9-2,2c0,1.1,0.9,2,2,2h8c1.1,0,2-0.9,2-2c0-1.1-0.9-2-2-2h-3v-4h5c1.1,0,2-0.9,2-2
			c0-1.1-0.9-2-2-2h-5V4h7c1.1,0,2-0.9,2-2C20,0.9,19.1,0,18,0z"/>
	</g>
</g>
</svg>
