<?xml version="1.0" encoding="utf-8"?>
<!-- Generator: Adobe Illustrator 22.0.1, SVG Export Plug-In . SVG Version: 6.00 Build 0)  -->
<svg version="1.1" id="Layer_1" xmlns="http://www.w3.org/2000/svg" xmlns:xlink="http://www.w3.org/1999/xlink" x="0px" y="0px"
	 viewBox="0 0 20 20" enable-background="new 0 0 20 20" xml:space="preserve">
<g id="people_5_">
	<g id="_x32_0px">
		<path id="Combined-Shape_17_" d="M16.94,17c-0.06-0.33-0.17-0.69-0.33-1.06c-0.45-0.97-1.37-1.52-3.24-2.3
			c-0.17-0.07-0.76-0.31-0.77-0.32c-0.1-0.04-0.2-0.08-0.28-0.12c0.05-0.14,0.04-0.29,0.06-0.45c0-0.05,0.01-0.11,0.01-0.16
			c-0.25-0.21-0.47-0.48-0.65-0.79c0.22-0.34,0.41-0.71,0.56-1.12l0.04-0.11c-0.01,0.02-0.01,0.02-0.02,0.08
			c0.02-0.05,0.04-0.1,0.06-0.15c0.36-0.26,0.6-0.67,0.72-1.13c0.18-0.37,0.29-0.82,0.25-1.3c-0.05-0.5-0.21-0.92-0.47-1.22
			c-0.02-0.53-0.06-1.11-0.12-1.59C13.14,5.09,13.59,5,14,5c0.59,0,1.26,0.19,1.73,0.55c0.46,0.35,0.8,0.85,0.97,1.4
			c0.04,0.13,0.07,0.25,0.08,0.38c0.08,0.45,0.13,1.14,0.13,1.61c0,0.02,0,0.05,0,0.07c0.16,0.07,0.31,0.24,0.35,0.62
			c0.02,0.29-0.09,0.55-0.15,0.65c-0.05,0.26-0.2,0.53-0.46,0.59c-0.03,0.12-0.07,0.25-0.11,0.36c-0.01,0.01-0.01,0.04-0.01,0.04
			c-0.2,0.53-0.51,1-0.89,1.34c0,0.06,0,0.12,0.01,0.17c0.04,0.41-0.11,0.71,1,1.19c1.1,0.5,2.77,1.01,3.13,1.79
			c0.34,0.79,0.2,1.25,0.2,1.25H16.94z M11.52,13.94c1.47,0.66,3.7,1.35,4.18,2.39c0.45,1.05,0.27,1.67,0.27,1.67H0.04
			c0,0-0.19-0.62,0.27-1.67c0.46-1.05,2.68-1.75,4.16-2.4c1.48-0.65,1.33-1.05,1.38-1.59c0-0.07,0.01-0.14,0.01-0.21
			c-0.52-0.45-0.95-1.08-1.22-1.8l-0.01-0.01c0-0.01-0.01-0.02-0.01-0.03C4.55,10.14,4.5,9.97,4.46,9.8
			C4.12,9.74,3.92,9.37,3.84,9.02C3.76,8.88,3.6,8.54,3.64,8.15C3.69,7.64,3.9,7.41,4.13,7.32c0-0.03,0-0.05,0-0.08
			c0-0.64,0.05-1.55,0.17-2.15c0.02-0.17,0.06-0.34,0.11-0.5c0.22-0.74,0.68-1.4,1.29-1.86C6.32,2.25,7.21,2,8,2
			s1.68,0.25,2.31,0.73c0.62,0.46,1.07,1.13,1.29,1.86c0.05,0.17,0.09,0.33,0.11,0.5c0.11,0.6,0.17,1.52,0.17,2.15
			c0,0.03,0,0.06,0,0.09c0.22,0.09,0.42,0.32,0.47,0.82c0.03,0.39-0.12,0.73-0.2,0.87c-0.07,0.34-0.27,0.71-0.61,0.78
			c-0.04,0.16-0.09,0.33-0.15,0.48c-0.01,0.01-0.02,0.05-0.02,0.05c-0.27,0.71-0.68,1.33-1.19,1.78c0,0.08,0,0.16,0.01,0.23
			C10.24,12.89,10.04,13.29,11.52,13.94z"/>
	</g>
</g>
</svg>
