<svg xmlns="http://www.w3.org/2000/svg" xml:space="preserve" viewBox="0 0 20 20"><path d="M16.94 17a4.92 4.92 0 0 0-.33-1.06c-.45-.97-1.37-1.52-3.24-2.3-.17-.07-.76-.31-.77-.32-.1-.04-.2-.08-.28-.12.05-.14.04-.29.06-.45 0-.05.01-.11.01-.16-.25-.21-.47-.48-.65-.79.22-.34.41-.71.56-1.12l.04-.11c-.01.02-.01.02-.02.08l.06-.15c.36-.26.6-.67.72-1.13.18-.37.29-.82.25-1.3-.05-.5-.21-.92-.47-1.22-.02-.53-.06-1.11-.12-1.59.38-.17.83-.26 1.24-.26.59 0 1.26.19 1.73.55.46.35.8.85.97 1.4.04.13.07.25.08.38.08.45.13 1.14.13 1.61v.07c.16.07.31.24.35.62.02.29-.09.55-.15.65-.05.26-.2.53-.46.59-.03.12-.07.25-.11.36-.01.01-.01.04-.01.04-.2.53-.51 1-.89 1.34 0 .06 0 .12.01.17.04.41-.11.71 1 1.19 1.1.5 2.77 1.01 3.13 1.79.34.79.2 1.25.2 1.25h-3.04zm-5.42-3.06c1.47.66 3.7 1.35 4.18 2.39.45 1.05.27 1.67.27 1.67H.04s-.19-.62.27-1.67c.46-1.05 2.68-1.75 4.16-2.4 1.48-.65 1.33-1.05 1.38-1.59 0-.07.01-.14.01-.21-.52-.45-.95-1.08-1.22-1.8l-.01-.01c0-.01-.01-.02-.01-.03-.07-.15-.12-.32-.16-.49-.34-.06-.54-.43-.62-.78-.08-.14-.24-.48-.2-.87.05-.51.26-.74.49-.83v-.08c0-.64.05-1.55.17-2.15a3.648 3.648 0 0 1 1.4-2.36C6.32 2.25 7.21 2 8 2s1.68.25 2.31.73a3.63 3.63 0 0 1 1.4 2.36c.11.6.17 1.52.17 2.15v.09c.22.09.42.32.47.82.03.39-.12.73-.2.87-.07.34-.27.71-.61.78-.04.16-.09.33-.15.48-.01.01-.02.05-.02.05-.27.71-.68 1.33-1.19 1.78 0 .08 0 .16.01.23.05.55-.15.95 1.33 1.6z"/></svg>