<?xml version="1.0" encoding="utf-8"?>
<!-- Generator: Adobe Illustrator 18.0.0, SVG Export Plug-In . SVG Version: 6.00 Build 0)  -->
<svg version="1.1" id="Shape_6_1_" xmlns="http://www.w3.org/2000/svg" xmlns:xlink="http://www.w3.org/1999/xlink" x="0px" y="0px"
	 viewBox="0 0 20 20" enable-background="new 0 0 20 20" xml:space="preserve">
<g id="Shape_6">
	<g>
		<path fill-rule="evenodd" clip-rule="evenodd" d="M15,10c-1.66,0-3,1.34-3,3v2c0,1.66,1.34,3,3,3s3-1.34,3-3v-2
			C18,11.34,16.66,10,15,10z M16,15c0,0.55-0.45,1-1,1s-1-0.45-1-1v-2c0-0.55,0.45-1,1-1s1,0.45,1,1V15z M8,7V5c0-1.66-1.34-3-3-3
			S2,3.34,2,5v2c0,1.66,1.34,3,3,3S8,8.66,8,7z M4,7V5c0-0.55,0.45-1,1-1s1,0.45,1,1v2c0,0.55-0.45,1-1,1S4,7.55,4,7z M15,3
			c0-0.55-0.45-1-1-1c-0.38,0-0.71,0.21-0.88,0.52L5.14,16.49C5.05,16.64,5,16.81,5,17c0,0.55,0.45,1,1,1
			c0.38,0,0.71-0.21,0.88-0.52l7.99-13.97C14.95,3.36,15,3.19,15,3z"/>
	</g>
</g>
</svg>
