<?xml version="1.0" encoding="utf-8"?>
<!-- Generator: Adobe Illustrator 17.1.0, SVG Export Plug-In . SVG Version: 6.00 Build 0)  -->
<!DOCTYPE svg PUBLIC "-//W3C//DTD SVG 1.1//EN" "http://www.w3.org/Graphics/SVG/1.1/DTD/svg11.dtd">
<svg version="1.1" id="Layer_1" xmlns="http://www.w3.org/2000/svg" xmlns:xlink="http://www.w3.org/1999/xlink" x="0px" y="0px"
	 viewBox="0 0 20 20" enable-background="new 0 0 20 20" xml:space="preserve">
<g id="Shape_2_13_">
	<g>
		<path fill-rule="evenodd" clip-rule="evenodd" d="M19.61,17.91c-0.57-1.32-3.35-2.19-5.19-3.01c-1.85-0.82-1.59-1.31-1.66-1.99
			c-0.01-0.09-0.01-0.19-0.02-0.29c0.63-0.56,1.15-1.33,1.49-2.22c0,0,0.02-0.05,0.02-0.06c0.07-0.19,0.13-0.39,0.19-0.6
			c0.42-0.09,0.67-0.55,0.76-0.98c0.1-0.17,0.29-0.6,0.25-1.08c-0.06-0.62-0.31-0.91-0.59-1.03c0-0.04,0-0.07,0-0.11
			c0-0.79-0.07-1.93-0.22-2.68c-0.03-0.21-0.08-0.42-0.14-0.62c-0.27-0.92-0.84-1.74-1.6-2.32C12.11,0.32,11,0,10.01,0
			s-2.1,0.32-2.89,0.92C6.36,1.5,5.79,2.32,5.52,3.24c-0.06,0.2-0.11,0.41-0.14,0.62C5.24,4.61,5.16,5.75,5.16,6.54
			c0,0.03,0,0.06,0,0.1c-0.29,0.11-0.55,0.4-0.61,1.04C4.51,8.16,4.7,8.59,4.8,8.76C4.9,9.2,5.15,9.67,5.59,9.74
			c0.05,0.21,0.12,0.41,0.19,0.6c0,0.01,0.01,0.03,0.01,0.04L5.8,10.4c0.34,0.91,0.87,1.69,1.52,2.25c0,0.09-0.01,0.18-0.02,0.26
			c-0.07,0.68,0.13,1.17-1.72,1.99s-4.62,1.69-5.19,3.01C-0.18,19.23,0.05,20,0.05,20h19.9C19.95,20,20.18,19.23,19.61,17.91z"/>
	</g>
</g>
</svg>
