<?xml version="1.0" encoding="utf-8"?>
<!-- Generator: Adobe Illustrator 18.1.0, SVG Export Plug-In . SVG Version: 6.00 Build 0)  -->
<svg version="1.1" id="Layer_1" xmlns="http://www.w3.org/2000/svg" xmlns:xlink="http://www.w3.org/1999/xlink" x="0px" y="0px"
	 viewBox="0 0 20 20" enable-background="new 0 0 20 20" xml:space="preserve">
<g id="phone_1_">
	<g>
		<path fill-rule="evenodd" clip-rule="evenodd" d="M19.91,15.51c-0.08-0.08-4.21-2.5-4.35-2.57c-0.14-0.07-0.27-0.1-0.4-0.1
			c-0.19,0-0.42,0.13-0.71,0.4c-0.28,0.27-1.17,1.49-1.43,1.76c-0.26,0.27-0.48,0.4-0.65,0.4c-0.08,0-0.19-0.02-0.32-0.07
			c-0.13-0.05-1.45-0.73-4.2-3.15c-2.75-2.42-3.11-4-3.13-4.44c0-0.17,0.13-0.39,0.4-0.65C5.4,6.84,5.69,6.58,6.01,6.35
			c0.32-0.24,0.61-0.5,0.88-0.78c0.27-0.28,0.4-0.52,0.4-0.71c0-0.13-0.03-0.27-0.1-0.4C7.12,4.32,4.62,0.19,4.53,0.1
			C4.34-0.08,3.61,0,3.24,0.2C0.25,1.82,0,4,0.05,4.86c0.05,0.89,0.61,5.58,5.2,9.93c5.7,5.41,9.66,5.2,9.92,5.2
			c0.87,0,3.52-0.48,4.65-3.19C19.98,16.42,20.13,15.73,19.91,15.51z"/>
	</g>
</g>
</svg>
