<svg xmlns="http://www.w3.org/2000/svg" xml:space="preserve" viewBox="0 0 20 20"><path fill-rule="evenodd" d="M19.91 15.51c-.08-.08-4.21-2.5-4.35-2.57a.876.876 0 0 0-.4-.1c-.19 0-.42.13-.71.4-.28.27-1.17 1.49-1.43 1.76s-.48.4-.65.4c-.08 0-.19-.02-.32-.07s-1.45-.73-4.2-3.15-3.11-4-3.13-4.44c0-.17.13-.39.4-.65.28-.25.57-.51.89-.74.32-.24.61-.5.88-.78s.4-.52.4-.71c0-.13-.03-.27-.1-.4C7.12 4.32 4.62.19 4.53.1c-.19-.18-.92-.1-1.29.1C.25 1.82 0 4 .05 4.86c.05.89.61 5.58 5.2 9.93 5.7 5.41 9.66 5.2 9.92 5.2.87 0 3.52-.48 4.65-3.19.16-.38.31-1.07.09-1.29z" clip-rule="evenodd"/></svg>