<?xml version="1.0" encoding="utf-8"?>
<!-- Generator: Adobe Illustrator 18.1.0, SVG Export Plug-In . SVG Version: 6.00 Build 0)  -->
<svg version="1.1" id="Layer_1" xmlns="http://www.w3.org/2000/svg" xmlns:xlink="http://www.w3.org/1999/xlink" x="0px" y="0px"
	 viewBox="0 0 20 20" enable-background="new 0 0 20 20" xml:space="preserve">
<g id="pivot_table">
	<g>
		<path d="M3,5H1C0.45,5,0,5.45,0,6v13c0,0.55,0.45,1,1,1h2c0.55,0,1-0.45,1-1V6C4,5.45,3.55,5,3,5z M3,0H1C0.45,0,0,0.45,0,1v2
			c0,0.55,0.45,1,1,1h2c0.55,0,1-0.45,1-1V1C4,0.45,3.55,0,3,0z M16.71,5.29C16.53,5.11,16.28,5,16,5s-0.53,0.11-0.71,0.29l-3,3
			C12.11,8.47,12,8.72,12,9c0,0.55,0.45,1,1,1c0.28,0,0.53-0.11,0.71-0.29L15,8.41V11c0,2.21-1.79,4-4,4H8.41l1.29-1.29
			C9.89,13.53,10,13.28,10,13c0-0.55-0.45-1-1-1c-0.28,0-0.53,0.11-0.71,0.29l-3,3C5.11,15.47,5,15.72,5,16
			c0,0.28,0.11,0.53,0.29,0.71l3,3C8.47,19.89,8.72,20,9,20c0.55,0,1-0.45,1-1c0-0.28-0.11-0.53-0.29-0.71L8.41,17H11
			c3.31,0,6-2.69,6-6V8.41l1.29,1.29C18.47,9.89,18.72,10,19,10c0.55,0,1-0.45,1-1c0-0.28-0.11-0.53-0.29-0.71L16.71,5.29z M19,0H6
			C5.45,0,5,0.45,5,1v2c0,0.55,0.45,1,1,1h13c0.55,0,1-0.45,1-1V1C20,0.45,19.55,0,19,0z"/>
	</g>
</g>
</svg>
