<svg xmlns="http://www.w3.org/2000/svg" xml:space="preserve" viewBox="0 0 20 20"><path d="M3 5H1c-.55 0-1 .45-1 1v13c0 .55.45 1 1 1h2c.55 0 1-.45 1-1V6c0-.55-.45-1-1-1zm0-5H1C.45 0 0 .45 0 1v2c0 .55.45 1 1 1h2c.55 0 1-.45 1-1V1c0-.55-.45-1-1-1zm13.71 5.29C16.53 5.11 16.28 5 16 5s-.53.11-.71.29l-3 3a1.003 1.003 0 0 0 1.42 1.42L15 8.41V11c0 2.21-1.79 4-4 4H8.41l1.29-1.29c.19-.18.3-.43.3-.71a1.003 1.003 0 0 0-1.71-.71l-3 3c-.18.18-.29.43-.29.71 0 .28.11.53.29.71l3 3a1.003 1.003 0 0 0 1.42-1.42L8.41 17H11c3.31 0 6-2.69 6-6V8.41l1.29 1.29c.18.19.43.3.71.3a1.003 1.003 0 0 0 .71-1.71l-3-3zM19 0H6c-.55 0-1 .45-1 1v2c0 .55.45 1 1 1h13c.55 0 1-.45 1-1V1c0-.55-.45-1-1-1z"/></svg>