<?xml version="1.0" encoding="utf-8"?>
<!-- Generator: Adobe Illustrator 18.0.0, SVG Export Plug-In . SVG Version: 6.00 Build 0)  -->
<svg version="1.1" id="Layer_1" xmlns="http://www.w3.org/2000/svg" xmlns:xlink="http://www.w3.org/1999/xlink" x="0px" y="0px"
	 viewBox="0 0 20 20" enable-background="new 0 0 20 20" xml:space="preserve">
<g id="pivot">
	<g>
		<path fill-rule="evenodd" clip-rule="evenodd" d="M5.83,9.75l-5.54,5.54C0.11,15.47,0,15.72,0,16c0,0.55,0.45,1,1,1
			c0.28,0,0.53-0.11,0.71-0.29l5.54-5.54C6.68,10.8,6.2,10.32,5.83,9.75z M19,11c-0.55,0-1,0.45-1,1v1.59l-3.83-3.83
			c-0.37,0.56-0.85,1.04-1.41,1.41L16.59,15H15c-0.55,0-1,0.45-1,1c0,0.55,0.45,1,1,1h4c0.55,0,1-0.45,1-1v-4
			C20,11.45,19.55,11,19,11z M14,7c0-2.21-1.79-4-4-4S6,4.79,6,7c0,2.21,1.79,4,4,4S14,9.21,14,7z M10,9C8.9,9,8,8.1,8,7s0.9-2,2-2
			s2,0.9,2,2S11.1,9,10,9z"/>
	</g>
</g>
</svg>
