<?xml version="1.0" encoding="utf-8"?>
<!-- Generator: Adobe Illustrator 18.1.0, SVG Export Plug-In . SVG Version: 6.00 Build 0)  -->
<svg version="1.1" id="Layer_1" xmlns="http://www.w3.org/2000/svg" xmlns:xlink="http://www.w3.org/1999/xlink" x="0px" y="0px"
	 viewBox="0 0 20 20" enable-background="new 0 0 20 20" xml:space="preserve">
<g id="polygon_filter_1_">
	<g>
		<path fill-rule="evenodd" clip-rule="evenodd" d="M18,7c-0.27,0-0.52,0.05-0.75,0.15l-6.28-4.88C10.98,2.18,11,2.09,11,2
			c0-1.1-0.9-2-2-2S7,0.9,7,2c0,0.06,0.01,0.12,0.02,0.19l-4.19,3C2.57,5.07,2.29,5,2,5C0.9,5,0,5.9,0,7c0,0.74,0.4,1.38,1,1.72
			v7.55C0.4,16.62,0,17.26,0,18c0,1.1,0.9,2,2,2c0.74,0,1.38-0.4,1.72-1h7.55c0.35,0.6,0.98,1,1.72,1c1.1,0,2-0.9,2-2
			c0-0.37-0.11-0.72-0.29-1.02L18.03,11c1.09-0.02,1.97-0.9,1.97-2C20,7.9,19.1,7,18,7z M12.97,16c-0.72,0.01-1.35,0.41-1.69,1H3.72
			C3.55,16.7,3.3,16.45,3,16.28V8.72C3.6,8.38,4,7.74,4,7c0-0.06-0.01-0.12-0.02-0.19l4.19-3C8.43,3.93,8.71,4,9,4
			c0.27,0,0.52-0.05,0.75-0.15l6.28,4.88C16.02,8.82,16,8.91,16,9c0,0.37,0.11,0.72,0.29,1.02L12.97,16z"/>
	</g>
</g>
</svg>
