<?xml version="1.0" encoding="utf-8"?>
<!-- Generator: Adobe Illustrator 18.1.0, SVG Export Plug-In . SVG Version: 6.00 Build 0)  -->
<svg version="1.1" id="Layer_1" xmlns="http://www.w3.org/2000/svg" xmlns:xlink="http://www.w3.org/1999/xlink" x="0px" y="0px"
	 viewBox="0 0 20 20" enable-background="new 0 0 20 20" xml:space="preserve">
<g id="power_1_">
	<g>
		<path fill-rule="evenodd" clip-rule="evenodd" d="M10,10c0.55,0,1-0.45,1-1V1c0-0.55-0.45-1-1-1S9,0.45,9,1v8
			C9,9.55,9.45,10,10,10z M13,2.55v2.16c2.36,1.12,4,3.5,4,6.29c0,3.87-3.13,7-7,7s-7-3.13-7-7c0-2.79,1.64-5.17,4-6.29V2.55
			C3.51,3.79,1,7.09,1,11c0,4.97,4.03,9,9,9s9-4.03,9-9C19,7.09,16.49,3.79,13,2.55z"/>
	</g>
</g>
</svg>
