<?xml version="1.0" encoding="utf-8"?>
<!-- Generator: Adobe Illustrator 18.0.0, SVG Export Plug-In . SVG Version: 6.00 Build 0)  -->
<svg version="1.1" id="Layer_1" xmlns="http://www.w3.org/2000/svg" xmlns:xlink="http://www.w3.org/1999/xlink" x="0px" y="0px"
	 viewBox="0 0 20 20" enable-background="new 0 0 20 20" xml:space="preserve">
<g id="predictive_analysis_3_">
	<g>
		<path fill-rule="evenodd" clip-rule="evenodd" d="M20,8.01c0-1.26-0.61-2.43-1.61-3.12c-0.53-2.39-2.59-4.1-4.99-4.1
			c-0.58,0-1.14,0.1-1.69,0.29C11.04,0.39,10.13,0,9.17,0C8.05,0,7,0.55,6.32,1.45c-0.15-0.02-0.3-0.03-0.45-0.03
			c-1.63,0-3.03,1.12-3.46,2.71C0.97,4.65,0,6.05,0,7.66c0,0.48,0.09,0.95,0.26,1.4C0.09,9.5,0,9.97,0,10.45
			c0,1.38,0.72,2.64,1.89,3.29c0.67,0.7,1.59,1.09,2.54,1.09c0.61,0,1.19-0.15,1.71-0.45c0.68,0.82,1.68,1.3,2.73,1.3
			c0.66,0,1.28-0.18,1.83-0.52c0.61,0.49,1.34,0.81,2.11,0.91c1.3,1.43,2.3,3.28,2.31,3.3c0,0,0.35,0.61,0.33,0.61
			c0.96-0.01,1.77-0.2,1.64-1.3c0.01,0.02-0.92-2.89-0.92-2.89c0.52-0.26,0.94-0.69,1.21-1.23c1.12-0.66,1.84-1.91,1.84-3.26
			c0-0.3-0.03-0.6-0.1-0.89C19.69,9.77,20,8.9,20,8.01z M18.46,9.29l-0.18-0.2h0l-0.77-0.84c-0.33-0.37-0.67-1.17-0.73-1.73
			c0,0-0.13-1.25-0.13-1.26c-0.06-0.74-1.17-0.73-1.13,0.14c0,0.02,0.13,1.26,0.13,1.26c0.04,0.36,0.15,0.77,0.3,1.17
			c-0.08-0.01-0.15-0.02-0.22-0.02c0,0-2.57-0.12-2.57-0.13c-0.73-0.03-0.89,1.22-0.05,1.25c-0.01,0,2.57,0.13,2.57,0.13
			c0.53,0.03,1.29,0.37,1.61,0.72l0.61,0.67l0.02,0.06c0.1,0.27,0.14,0.55,0.14,0.83c0,0.93-0.51,1.77-1.34,2.18l-0.2,0.1
			l-0.09,0.23c-0.19,0.48-0.6,0.82-1.1,0.93l-0.67,0.14l0.87,2.75c-0.48-0.76-1.19-1.79-2.02-2.67l-0.15-0.16l-0.21-0.02
			c-0.51-0.04-0.99-0.21-1.42-0.48l1.7-1.48c0.44-0.39,1.04-0.55,1.24-0.49c0,0,0.78,0.22,0.78,0.23c0.78,0.2,1.03-0.92,0.29-1.21
			c0,0-0.78-0.23-0.78-0.23c-0.69-0.2-1.67,0.22-2.24,0.72l-1.91,1.66l0,0l-0.39,0.32c-0.44,0.36-0.93,0.55-1.5,0.55
			c-0.8,0-1.54-0.41-1.97-1.07v-1.88c0-0.5,0.21-0.98,0.34-1.07c0,0,0.65-0.43,0.64-0.43C8.8,9.27,8.14,8.39,7.29,8.82
			c0-0.01-0.65,0.43-0.65,0.43c-0.31,0.2-0.54,0.56-0.7,0.97c-0.13-0.13-0.28-0.25-0.43-0.35c0,0-1.91-1.26-1.91-1.28
			C2.79,8.03,2.1,9.22,2.99,9.7c0-0.02,1.89,1.28,1.89,1.28c0.46,0.31,0.77,0.97,0.77,1.36v0.84c-0.43,0.24-0.78,0.36-1.24,0.36
			c-0.67,0-1.31-0.29-1.77-0.79l-0.07-0.08l-0.09-0.05c-0.81-0.42-1.31-1.25-1.31-2.16c0-0.38,0.09-0.74,0.25-1.08l0.15-0.31
			L1.43,8.74c-0.17-0.34-0.25-0.7-0.25-1.08c0-1.13,0.76-2.1,1.85-2.37L3.42,5.2l0.07-0.43c0.19-1.19,1.19-2.05,2.39-2.05
			c0.19,0,0.39,0.02,0.58,0.07l0.4,0.1l0.22-0.38C7.51,1.76,8.31,1.3,9.17,1.3c0.55,0,1.08,0.19,1.5,0.53l-0.44,0.45l-0.01-0.01
			L9.91,2.58C9.5,2.93,8.99,3.11,8.8,3.08c0,0-0.84-0.13-0.84-0.14C7.13,2.79,6.87,4.02,7.78,4.23c0.01,0,0.84,0.14,0.84,0.14
			c0.03,0,0.06,0,0.09,0.01c-0.14,0.46-0.18,0.96-0.12,1.4c0,0,0.21,1.24,0.19,1.23c0.13,0.65,1.32,0.44,1.16-0.22
			c0-0.01-0.19-1.23-0.19-1.23C9.68,5.08,9.9,4.37,10.2,4.06l0.48-0.5c0.07-0.06,0.13-0.12,0.19-0.18l0.93-0.95
			c0.5-0.23,1.04-0.34,1.59-0.34c1.93,0,3.57,1.4,3.89,3.34l0.05,0.31l0.26,0.15c0.76,0.43,1.23,1.25,1.23,2.12
			C18.82,8.47,18.69,8.91,18.46,9.29z"/>
	</g>
</g>
</svg>
