<svg xmlns="http://www.w3.org/2000/svg" xml:space="preserve" viewBox="0 0 20 20"><path fill-rule="evenodd" d="M20 8.01c0-1.26-.61-2.43-1.61-3.12C17.86 2.5 15.8.79 13.4.79c-.58 0-1.14.1-1.69.29A3.533 3.533 0 0 0 9.17 0C8.05 0 7 .55 6.32 1.45c-.15-.02-.3-.03-.45-.03-1.63 0-3.03 1.12-3.46 2.71C.97 4.65 0 6.05 0 7.66c0 .48.09.95.26 1.4-.17.44-.26.91-.26 1.39 0 1.38.72 2.64 1.89 3.29.67.7 1.59 1.09 2.54 1.09.61 0 1.19-.15 1.71-.45.68.82 1.68 1.3 2.73 1.3.66 0 1.28-.18 1.83-.52.61.49 1.34.81 2.11.91 1.3 1.43 2.3 3.28 2.31 3.3 0 0 .35.61.33.61.96-.01 1.77-.2 1.64-1.3.01.02-.92-2.89-.92-2.89.52-.26.94-.69 1.21-1.23 1.12-.66 1.84-1.91 1.84-3.26 0-.3-.03-.6-.1-.89.57-.64.88-1.51.88-2.4zm-1.54 1.28-.18-.2-.77-.84c-.33-.37-.67-1.17-.73-1.73 0 0-.13-1.25-.13-1.26-.06-.74-1.17-.73-1.13.14 0 .02.13 1.26.13 1.26.04.36.15.77.3 1.17-.08-.01-.15-.02-.22-.02 0 0-2.57-.12-2.57-.13-.73-.03-.89 1.22-.05 1.25l2.57.13c.53.03 1.29.37 1.61.72l.61.67.02.06c.1.27.14.55.14.83 0 .93-.51 1.77-1.34 2.18l-.2.1-.09.23c-.19.48-.6.82-1.1.93l-.67.14.87 2.75c-.48-.76-1.19-1.79-2.02-2.67l-.15-.16-.21-.02c-.51-.04-.99-.21-1.42-.48l1.7-1.48c.44-.39 1.04-.55 1.24-.49 0 0 .78.22.78.23.78.2 1.03-.92.29-1.21l-.78-.23c-.69-.2-1.67.22-2.24.72l-1.91 1.66-.39.32c-.44.36-.93.55-1.5.55-.8 0-1.54-.41-1.97-1.07v-1.88c0-.5.21-.98.34-1.07 0 0 .65-.43.64-.43.87-.69.21-1.57-.64-1.14 0-.01-.65.43-.65.43-.31.2-.54.56-.7.97-.13-.13-.28-.25-.43-.35 0 0-1.91-1.26-1.91-1.28-.81-.56-1.5.63-.61 1.11 0-.02 1.89 1.28 1.89 1.28.46.31.77.97.77 1.36v.84c-.43.24-.78.36-1.24.36-.67 0-1.31-.29-1.77-.79l-.07-.08-.09-.05a2.425 2.425 0 0 1-1.31-2.16c0-.38.09-.74.25-1.08l.15-.31-.14-.33c-.17-.34-.25-.7-.25-1.08 0-1.13.76-2.1 1.85-2.37l.39-.09.07-.43a2.41 2.41 0 0 1 2.39-2.05c.19 0 .39.02.58.07l.4.1.22-.38A2.41 2.41 0 0 1 9.17 1.3c.55 0 1.08.19 1.5.53l-.44.45-.01-.01-.31.31c-.41.35-.92.53-1.11.5 0 0-.84-.13-.84-.14-.83-.15-1.09 1.08-.18 1.29.01 0 .84.14.84.14.03 0 .06 0 .09.01-.14.46-.18.96-.12 1.4 0 0 .21 1.24.19 1.23.13.65 1.32.44 1.16-.22 0-.01-.19-1.23-.19-1.23-.07-.48.15-1.19.45-1.5l.48-.5c.07-.06.13-.12.19-.18l.93-.95c.5-.23 1.04-.34 1.59-.34 1.93 0 3.57 1.4 3.89 3.34l.05.31.26.15a2.445 2.445 0 0 1 .87 3.4z" clip-rule="evenodd"/></svg>