<?xml version="1.0" encoding="utf-8"?>
<!-- Generator: Adobe Illustrator 17.1.0, SVG Export Plug-In . SVG Version: 6.00 Build 0)  -->
<!DOCTYPE svg PUBLIC "-//W3C//DTD SVG 1.1//EN" "http://www.w3.org/Graphics/SVG/1.1/DTD/svg11.dtd">
<svg version="1.1" id="Layer_1" xmlns="http://www.w3.org/2000/svg" xmlns:xlink="http://www.w3.org/1999/xlink" x="0px" y="0px"
	 viewBox="0 0 20 20" enable-background="new 0 0 20 20" xml:space="preserve">
<g id="presentation_1_">
	<g>
		<path fill-rule="evenodd" clip-rule="evenodd" d="M19,1h-8c0-0.55-0.45-1-1-1S9,0.45,9,1H1C0.45,1,0,1.45,0,2c0,0.55,0.45,1,1,1h1
			v11c0,0.55,0.45,1,1,1h4.59l-3.29,3.29C4.11,18.47,4,18.72,4,19c0,0.55,0.45,1,1,1c0.28,0,0.53-0.11,0.71-0.29L9,16.41V19
			c0,0.55,0.45,1,1,1s1-0.45,1-1v-2.59l3.29,3.29C14.47,19.89,14.72,20,15,20c0.55,0,1-0.45,1-1c0-0.28-0.11-0.53-0.29-0.71
			L12.41,15H17c0.55,0,1-0.45,1-1V3h1c0.55,0,1-0.45,1-1C20,1.45,19.55,1,19,1z M16,13H4V3h12V13z"/>
	</g>
</g>
</svg>
