<?xml version="1.0" encoding="utf-8"?>
<!-- Generator: Adobe Illustrator 17.1.0, SVG Export Plug-In . SVG Version: 6.00 Build 0)  -->
<!DOCTYPE svg PUBLIC "-//W3C//DTD SVG 1.1//EN" "http://www.w3.org/Graphics/SVG/1.1/DTD/svg11.dtd">
<svg version="1.1" id="Layer_1" xmlns="http://www.w3.org/2000/svg" xmlns:xlink="http://www.w3.org/1999/xlink" x="0px" y="0px"
	 viewBox="0 0 20 20" enable-background="new 0 0 20 20" xml:space="preserve">
<g id="print">
	<g>
		<path fill-rule="evenodd" clip-rule="evenodd" d="M14,16H6v-4H4v5c0,0.55,0.45,1,1,1h10c0.55,0,1-0.45,1-1v-5h-2V16z M16,3
			c0-0.55-0.45-1-1-1H5C4.45,2,4,2.45,4,3v1h12V3z M19,5H1C0.45,5,0,5.45,0,6v7c0,0.55,0.45,1,1,1h2v-3h14v3h2c0.55,0,1-0.45,1-1V6
			C20,5.45,19.55,5,19,5z M18,9h-2V7h2V9z"/>
	</g>
</g>
</svg>
