<?xml version="1.0" encoding="utf-8"?>
<!-- Generator: Adobe Illustrator 17.1.0, SVG Export Plug-In . SVG Version: 6.00 Build 0)  -->
<!DOCTYPE svg PUBLIC "-//W3C//DTD SVG 1.1//EN" "http://www.w3.org/Graphics/SVG/1.1/DTD/svg11.dtd">
<svg version="1.1" id="Layer_1" xmlns="http://www.w3.org/2000/svg" xmlns:xlink="http://www.w3.org/1999/xlink" x="0px" y="0px"
	 viewBox="0 0 20 20" enable-background="new 0 0 20 20" xml:space="preserve">
<g id="projects_1_">
	<g>
		<path fill-rule="evenodd" clip-rule="evenodd" d="M18,4c0-0.55-0.45-1-1-1H3C2.45,3,2,3.45,2,4v2h16V4z M16,1c0-0.55-0.45-1-1-1H5
			C4.45,0,4,0.45,4,1v1h12V1z M19,7H1C0.45,7,0,7.45,0,8v11c0,0.55,0.45,1,1,1h18c0.55,0,1-0.45,1-1V8C20,7.45,19.55,7,19,7z M14,14
			c0,0.55-0.45,1-1,1H7c-0.55,0-1-0.45-1-1v-2h1v2h6v-2h1V14z"/>
	</g>
</g>
</svg>
