<?xml version="1.0" encoding="utf-8"?>
<!-- Generator: Adobe Illustrator 18.0.0, SVG Export Plug-In . SVG Version: 6.00 Build 0)  -->
<svg version="1.1" id="Layer_1" xmlns="http://www.w3.org/2000/svg" xmlns:xlink="http://www.w3.org/1999/xlink" x="0px" y="0px"
	 viewBox="0 0 20 20" enable-background="new 0 0 20 20" xml:space="preserve">
<g id="Rounded_Rectangle_6">
	<g>
		<path fill-rule="evenodd" clip-rule="evenodd" d="M3,5c1.1,0,2-0.9,2-2c0-1.1-0.9-2-2-2S1,1.9,1,3C1,4.1,1.9,5,3,5z M8,4h11
			c0.55,0,1-0.45,1-1c0-0.55-0.45-1-1-1H8C7.45,2,7,2.45,7,3C7,3.55,7.45,4,8,4z M3,15c-1.1,0-2,0.9-2,2c0,1.1,0.9,2,2,2s2-0.9,2-2
			C5,15.9,4.1,15,3,15z M19,16H8c-0.55,0-1,0.45-1,1c0,0.55,0.45,1,1,1h11c0.55,0,1-0.45,1-1C20,16.45,19.55,16,19,16z M18,8H9
			c-1.1,0-2,0.9-2,2c0,1.1,0.9,2,2,2h9c1.1,0,2-0.9,2-2C20,8.9,19.1,8,18,8z M3,7c-1.66,0-3,1.34-3,3s1.34,3,3,3s3-1.34,3-3
			S4.66,7,3,7z"/>
	</g>
</g>
</svg>
