<svg xmlns="http://www.w3.org/2000/svg" xml:space="preserve" viewBox="0 0 20 20"><path fill-rule="evenodd" d="M7.01 10.11c.35-.64.72-1.68 1.09-3.11l.8-3.03h.96l.24-.77h-.99c.28-1.11.66-1.92 1.12-2.43.28-.32.56-.48.83-.48.05 0 .1.02.13.05.03.03.05.07.05.12 0 .04-.04.13-.11.25-.08.12-.11.24-.11.35 0 .15.06.28.18.39.12.11.27.16.45.16.2 0 .36-.07.49-.2s.2-.31.2-.54c0-.26-.1-.47-.3-.63-.2-.16-.52-.24-.96-.24-.68 0-1.3.19-1.86.58-.55.38-1.08 1.02-1.58 1.91-.17.3-.34.5-.49.59-.15.08-.4.13-.74.12l-.23.77h.95L5.74 9.21c-.23.86-.39 1.39-.47 1.59-.12.29-.3.54-.54.75-.1.08-.21.12-.35.12-.04 0-.07-.01-.1-.03l-.03-.04c0-.02.03-.07.1-.13.07-.07.1-.17.1-.31 0-.15-.05-.28-.16-.38-.11-.1-.27-.15-.47-.15-.25 0-.44.07-.59.2-.15.12-.23.28-.23.46 0 .19.09.36.27.5.19.14.47.21.86.21.61 0 1.16-.15 1.63-.46.48-.31.89-.79 1.25-1.43zm3.7 1.18c-.18-.18-.43-.29-.71-.29s-.53.11-.71.29l-3 3a1.003 1.003 0 0 0 1.42 1.42L9 14.41V19c0 .55.45 1 1 1s1-.45 1-1v-4.59l1.29 1.29c.18.19.43.3.71.3a1.003 1.003 0 0 0 .71-1.71l-3-3zm4.15-6.78c.17-.13.36-.2.55-.2.07 0 .2.03.39.08s.36.08.5.08c.2 0 .37-.07.5-.2.13-.14.2-.31.2-.52 0-.22-.07-.4-.2-.53s-.33-.2-.58-.2c-.22 0-.43.05-.63.15-.2.1-.45.32-.75.67-.23.25-.56.7-1.01 1.33a6.52 6.52 0 0 0-.91-2.15l-2.38.39-.05.25c.18-.03.33-.05.45-.05.24 0 .43.1.59.3.25.31.59 1.24 1.02 2.79-.34.44-.58.73-.7.87-.21.22-.38.36-.52.43-.1.05-.22.08-.35.08-.1 0-.26-.05-.49-.16a1.01 1.01 0 0 0-.42-.11c-.23 0-.42.07-.57.22-.17.14-.24.32-.24.55 0 .21.07.38.21.51.14.13.33.2.56.2.23 0 .44-.05.64-.14.2-.09.45-.29.75-.59s.72-.78 1.25-1.43c.2.62.38 1.07.53 1.35.15.28.32.49.52.61.19.12.44.19.73.19.28 0 .57-.1.86-.3.38-.25.77-.69 1.17-1.31l-.25-.14c-.27.37-.48.6-.61.69-.09.06-.19.09-.31.09-.14 0-.28-.09-.42-.26-.23-.29-.54-1.09-.93-2.4.37-.58.66-.96.9-1.14z" clip-rule="evenodd"/></svg>