<?xml version="1.0" encoding="utf-8"?>
<!-- Generator: Adobe Illustrator 18.0.0, SVG Export Plug-In . SVG Version: 6.00 Build 0)  -->
<svg version="1.1" id="Layer_1" xmlns="http://www.w3.org/2000/svg" xmlns:xlink="http://www.w3.org/1999/xlink" x="0px" y="0px"
	 viewBox="0 0 20 20" enable-background="new 0 0 20 20" xml:space="preserve">
<g id="send_to_function_editor_2_">
	<g>
		<path fill-rule="evenodd" clip-rule="evenodd" d="M7.01,10.11C7.36,9.47,7.73,8.43,8.1,7l0.8-3.03h0.96L10.1,3.2H9.11
			c0.28-1.11,0.66-1.92,1.12-2.43c0.28-0.32,0.56-0.48,0.83-0.48c0.05,0,0.1,0.02,0.13,0.05c0.03,0.03,0.05,0.07,0.05,0.12
			c0,0.04-0.04,0.13-0.11,0.25c-0.08,0.12-0.11,0.24-0.11,0.35c0,0.15,0.06,0.28,0.18,0.39c0.12,0.11,0.27,0.16,0.45,0.16
			c0.2,0,0.36-0.07,0.49-0.2s0.2-0.31,0.2-0.54c0-0.26-0.1-0.47-0.3-0.63C11.84,0.08,11.52,0,11.08,0c-0.68,0-1.3,0.19-1.86,0.58
			C8.67,0.96,8.14,1.6,7.64,2.49C7.47,2.79,7.3,2.99,7.15,3.08C7,3.16,6.75,3.21,6.41,3.2L6.18,3.97h0.95L5.74,9.21
			c-0.23,0.86-0.39,1.39-0.47,1.59c-0.12,0.29-0.3,0.54-0.54,0.75c-0.1,0.08-0.21,0.12-0.35,0.12c-0.04,0-0.07-0.01-0.1-0.03
			L4.25,11.6c0-0.02,0.03-0.07,0.1-0.13c0.07-0.07,0.1-0.17,0.1-0.31c0-0.15-0.05-0.28-0.16-0.38c-0.11-0.1-0.27-0.15-0.47-0.15
			c-0.25,0-0.44,0.07-0.59,0.2C3.08,10.95,3,11.11,3,11.29c0,0.19,0.09,0.36,0.27,0.5C3.46,11.93,3.74,12,4.13,12
			c0.61,0,1.16-0.15,1.63-0.46C6.24,11.23,6.65,10.75,7.01,10.11z M10.71,11.29C10.53,11.11,10.28,11,10,11s-0.53,0.11-0.71,0.29
			l-3,3C6.11,14.47,6,14.72,6,15c0,0.55,0.45,1,1,1c0.28,0,0.53-0.11,0.71-0.29L9,14.41V19c0,0.55,0.45,1,1,1c0.55,0,1-0.45,1-1
			v-4.59l1.29,1.29C12.47,15.89,12.72,16,13,16c0.55,0,1-0.45,1-1c0-0.28-0.11-0.53-0.29-0.71L10.71,11.29z M14.86,4.51
			c0.17-0.13,0.36-0.2,0.55-0.2c0.07,0,0.2,0.03,0.39,0.08c0.19,0.05,0.36,0.08,0.5,0.08c0.2,0,0.37-0.07,0.5-0.2
			C16.93,4.13,17,3.96,17,3.75c0-0.22-0.07-0.4-0.2-0.53c-0.13-0.13-0.33-0.2-0.58-0.2c-0.22,0-0.43,0.05-0.63,0.15
			c-0.2,0.1-0.45,0.32-0.75,0.67c-0.23,0.25-0.56,0.7-1.01,1.33c-0.18-0.78-0.48-1.5-0.91-2.15l-2.38,0.39l-0.05,0.25
			c0.18-0.03,0.33-0.05,0.45-0.05c0.24,0,0.43,0.1,0.59,0.3c0.25,0.31,0.59,1.24,1.02,2.79c-0.34,0.44-0.58,0.73-0.7,0.87
			c-0.21,0.22-0.38,0.36-0.52,0.43c-0.1,0.05-0.22,0.08-0.35,0.08c-0.1,0-0.26-0.05-0.49-0.16c-0.15-0.07-0.29-0.11-0.42-0.11
			c-0.23,0-0.42,0.07-0.57,0.22C9.33,8.17,9.26,8.35,9.26,8.58c0,0.21,0.07,0.38,0.21,0.51c0.14,0.13,0.33,0.2,0.56,0.2
			c0.23,0,0.44-0.05,0.64-0.14c0.2-0.09,0.45-0.29,0.75-0.59c0.3-0.3,0.72-0.78,1.25-1.43c0.2,0.62,0.38,1.07,0.53,1.35
			c0.15,0.28,0.32,0.49,0.52,0.61c0.19,0.12,0.44,0.19,0.73,0.19c0.28,0,0.57-0.1,0.86-0.3c0.38-0.25,0.77-0.69,1.17-1.31
			l-0.25-0.14c-0.27,0.37-0.48,0.6-0.61,0.69c-0.09,0.06-0.19,0.09-0.31,0.09c-0.14,0-0.28-0.09-0.42-0.26
			c-0.23-0.29-0.54-1.09-0.93-2.4C14.33,5.07,14.62,4.69,14.86,4.51z"/>
	</g>
</g>
</svg>
