<?xml version="1.0" encoding="utf-8"?>
<!-- Generator: Adobe Illustrator 18.1.0, SVG Export Plug-In . SVG Version: 6.00 Build 0)  -->
<svg version="1.1" id="Layer_1" xmlns="http://www.w3.org/2000/svg" xmlns:xlink="http://www.w3.org/1999/xlink" x="0px" y="0px"
	 viewBox="0 0 20 20" enable-background="new 0 0 20 20" xml:space="preserve">
<g id="pulse_1_">
	<g>
		<path d="M19,10h-2.38l-1.72-3.45l-0.01,0C14.72,6.23,14.39,6,14,6c-0.43,0-0.79,0.28-0.93,0.66l-0.01,0l-2.75,7.57L7.98,1.82
			l-0.02,0C7.88,1.36,7.49,1,7,1C6.56,1,6.2,1.29,6.06,1.69l-0.01,0L3.28,10H1c-0.55,0-1,0.45-1,1c0,0.55,0.45,1,1,1h3
			c0.44,0,0.8-0.29,0.94-0.69l0.01,0l1.78-5.34l2.29,12.21l0.02,0C9.12,18.64,9.51,19,10,19c0.43,0,0.79-0.28,0.93-0.66l0.01,0
			l3.21-8.82l0.96,1.92l0.01,0C15.28,11.77,15.61,12,16,12h3c0.55,0,1-0.45,1-1C20,10.45,19.55,10,19,10z"/>
	</g>
</g>
</svg>
