<?xml version="1.0" encoding="utf-8"?>
<!-- Generator: Adobe Illustrator 18.1.0, SVG Export Plug-In . SVG Version: 6.00 Build 0)  -->
<svg version="1.1" id="Layer_1" xmlns="http://www.w3.org/2000/svg" xmlns:xlink="http://www.w3.org/1999/xlink" x="0px" y="0px"
	 viewBox="0 0 20 20" enable-background="new 0 0 20 20" xml:space="preserve">
<g id="random">
	<g>
		<path fill-rule="evenodd" clip-rule="evenodd" d="M14.47,5h2.12l-1.29,1.29C15.11,6.47,15,6.72,15,7c0,0.55,0.45,1,1,1
			c0.28,0,0.53-0.11,0.71-0.29l3-3C19.89,4.53,20,4.28,20,4c0-0.28-0.11-0.53-0.29-0.71l-3-3C16.53,0.11,16.28,0,16,0
			c-0.55,0-1,0.45-1,1c0,0.28,0.11,0.53,0.29,0.71L16.59,3H14c-0.31,0-0.57,0.15-0.76,0.37l-0.01-0.01L10.3,6.88l1.3,1.56L14.47,5z
			 M16.71,12.29C16.53,12.11,16.28,12,16,12c-0.55,0-1,0.45-1,1c0,0.28,0.11,0.53,0.29,0.71L16.59,15h-2.12L4.77,3.36L4.76,3.37
			C4.57,3.15,4.31,3,4,3H1C0.45,3,0,3.45,0,4c0,0.55,0.45,1,1,1h2.53l9.7,11.64l0.01-0.01C13.43,16.85,13.69,17,14,17h2.59
			l-1.29,1.29C15.11,18.47,15,18.72,15,19c0,0.55,0.45,1,1,1c0.28,0,0.53-0.11,0.71-0.29l3-3C19.89,16.53,20,16.28,20,16
			c0-0.28-0.11-0.53-0.29-0.71L16.71,12.29z M3.53,15H1c-0.55,0-1,0.45-1,1c0,0.55,0.45,1,1,1h3c0.31,0,0.57-0.15,0.76-0.37
			l0.01,0.01l2.93-3.52l-1.3-1.56L3.53,15z"/>
	</g>
</g>
</svg>
