<?xml version="1.0" encoding="utf-8"?>
<!-- Generator: Adobe Illustrator 17.1.0, SVG Export Plug-In . SVG Version: 6.00 Build 0)  -->
<!DOCTYPE svg PUBLIC "-//W3C//DTD SVG 1.1//EN" "http://www.w3.org/Graphics/SVG/1.1/DTD/svg11.dtd">
<svg version="1.1" id="Layer_1" xmlns="http://www.w3.org/2000/svg" xmlns:xlink="http://www.w3.org/1999/xlink" x="0px" y="0px"
	 viewBox="0 0 20 20" enable-background="new 0 0 20 20" xml:space="preserve">
<g id="refresh_1_">
	<g>
		<path fill-rule="evenodd" clip-rule="evenodd" d="M19,1c-0.55,0-1,0.45-1,1v2.06C16.18,1.61,13.29,0,10,0C4.48,0,0,4.48,0,10
			c0,0.55,0.45,1,1,1s1-0.45,1-1c0-4.42,3.58-8,8-8c2.52,0,4.76,1.18,6.22,3H15c-0.55,0-1,0.45-1,1c0,0.55,0.45,1,1,1h4
			c0.55,0,1-0.45,1-1V2C20,1.45,19.55,1,19,1z M19,9c-0.55,0-1,0.45-1,1c0,4.42-3.58,8-8,8c-2.52,0-4.76-1.18-6.22-3H5
			c0.55,0,1-0.45,1-1c0-0.55-0.45-1-1-1H1c-0.55,0-1,0.45-1,1v4c0,0.55,0.45,1,1,1s1-0.45,1-1v-2.06C3.82,18.39,6.71,20,10,20
			c5.52,0,10-4.48,10-10C20,9.45,19.55,9,19,9z"/>
	</g>
</g>
</svg>
