<?xml version="1.0" encoding="utf-8"?>
<!-- Generator: Adobe Illustrator 18.0.0, SVG Export Plug-In . SVG Version: 6.00 Build 0)  -->
<svg version="1.1" id="Layer_1" xmlns="http://www.w3.org/2000/svg" xmlns:xlink="http://www.w3.org/1999/xlink" x="0px" y="0px"
	 viewBox="0 0 20 20" enable-background="new 0 0 20 20" xml:space="preserve">
<g id="remove_column_right">
	<g>
		<path fill-rule="evenodd" clip-rule="evenodd" d="M19,0H1C0.45,0,0,0.45,0,1v18c0,0.55,0.45,1,1,1h18c0.55,0,1-0.45,1-1V1
			C20,0.45,19.55,0,19,0z M7,18H2V2h5V18z M18,18H8V2h10V18z M10,11h6c0.55,0,1-0.45,1-1s-0.45-1-1-1h-6c-0.55,0-1,0.45-1,1
			S9.45,11,10,11z"/>
	</g>
</g>
</svg>
