<?xml version="1.0" encoding="utf-8"?>
<!-- Generator: Adobe Illustrator 18.0.0, SVG Export Plug-In . SVG Version: 6.00 Build 0)  -->
<svg version="1.1" id="Layer_1" xmlns="http://www.w3.org/2000/svg" xmlns:xlink="http://www.w3.org/1999/xlink" x="0px" y="0px"
	 viewBox="0 0 20 20" enable-background="new 0 0 20 20" xml:space="preserve">
<g id="remove_column_left">
	<g>
		<path fill-rule="evenodd" clip-rule="evenodd" d="M4,11h6c0.55,0,1-0.45,1-1s-0.45-1-1-1H4c-0.55,0-1,0.45-1,1S3.45,11,4,11z
			 M19,0H1C0.45,0,0,0.45,0,1v18c0,0.55,0.45,1,1,1h18c0.55,0,1-0.45,1-1V1C20,0.45,19.55,0,19,0z M12,18H2V2h10V18z M18,18h-5V2h5
			V18z"/>
	</g>
</g>
</svg>
