<?xml version="1.0" encoding="utf-8"?>
<!-- Generator: Adobe Illustrator 18.0.0, SVG Export Plug-In . SVG Version: 6.00 Build 0)  -->
<svg version="1.1" id="Layer_1" xmlns="http://www.w3.org/2000/svg" xmlns:xlink="http://www.w3.org/1999/xlink" x="0px" y="0px"
	 viewBox="0 0 20 20" enable-background="new 0 0 20 20" xml:space="preserve">
<g id="remove_column_top_1_">
	<g>
		<path fill-rule="evenodd" clip-rule="evenodd" d="M7,8h6c0.55,0,1-0.45,1-1s-0.45-1-1-1H7C6.45,6,6,6.45,6,7S6.45,8,7,8z M19,0H1
			C0.45,0,0,0.45,0,1v18c0,0.55,0.45,1,1,1h18c0.55,0,1-0.45,1-1V1C20,0.45,19.55,0,19,0z M18,18H2v-5h16V18z M18,12H2V2h16V12z"/>
	</g>
</g>
</svg>
