<?xml version="1.0" encoding="utf-8"?>
<!-- Generator: Adobe Illustrator 18.1.0, SVG Export Plug-In . SVG Version: 6.00 Build 0)  -->
<svg version="1.1" id="Layer_1" xmlns="http://www.w3.org/2000/svg" xmlns:xlink="http://www.w3.org/1999/xlink" x="0px" y="0px"
	 viewBox="0 0 20 20" enable-background="new 0 0 20 20" xml:space="preserve">
<g id="repeat">
	<g>
		<path fill-rule="evenodd" clip-rule="evenodd" d="M14,6c0,0.55,0.45,1,1,1h4c0.55,0,1-0.45,1-1V2c0-0.55-0.45-1-1-1s-1,0.45-1,1
			v2.05C16.18,1.6,13.29,0,10,0C4.48,0,0,4.48,0,10c0,5.52,4.48,10,10,10s10-4.48,10-10c0-0.55-0.45-1-1-1s-1,0.45-1,1
			c0,4.42-3.58,8-8,8s-8-3.58-8-8s3.58-8,8-8c2.53,0,4.77,1.17,6.24,3H15C14.45,5,14,5.45,14,6z"/>
	</g>
</g>
</svg>
