<?xml version="1.0" encoding="UTF-8"?>
<svg width="20px" height="20px" viewBox="0 0 20 20" version="1.1" xmlns="http://www.w3.org/2000/svg" xmlns:xlink="http://www.w3.org/1999/xlink">
    <!-- Generator: Sketch 54.1 (76490) - https://sketchapp.com -->
    <title>reset</title>
    <desc>Created with Sketch.</desc>
    <g id="reset" stroke="none" stroke-width="1" fill="none" fill-rule="evenodd">
        <g transform="translate(10.000000, 10.000000) scale(-1, 1) translate(-10.000000, -10.000000) " fill="#000000" fill-rule="nonzero" id="Path">
            <path d="M14,6 C14,6.55 14.45,7 15,7 L19,7 C19.55,7 20,6.55 20,6 L20,2 C20,1.45 19.55,1 19,1 C18.45,1 18,1.45 18,2 L18,4.05 C16.18,1.6 13.29,0 10,0 C4.48,0 0,4.48 0,10 C0,15.52 4.48,20 10,20 C15.52,20 20,15.52 20,10 C20,9.45 19.55,9 19,9 C18.45,9 18,9.45 18,10 C18,14.42 14.42,18 10,18 C5.58,18 2,14.42 2,10 C2,5.58 5.58,2 10,2 C12.53,2 14.77,3.17 16.24,5 L15,5 C14.45,5 14,5.45 14,6 Z"></path>
        </g>
    </g>
</svg>