<?xml version="1.0" encoding="utf-8"?>
<!-- Generator: Adobe Illustrator 17.1.0, SVG Export Plug-In . SVG Version: 6.00 Build 0)  -->
<!DOCTYPE svg PUBLIC "-//W3C//DTD SVG 1.1//EN" "http://www.w3.org/Graphics/SVG/1.1/DTD/svg11.dtd">
<svg version="1.1" id="Layer_1" xmlns:sketch="http://www.bohemiancoding.com/sketch/ns"
	 xmlns="http://www.w3.org/2000/svg" xmlns:xlink="http://www.w3.org/1999/xlink" x="0px" y="0px" viewBox="0 0 20 20"
	 enable-background="new 0 0 20 20" xml:space="preserve">
<title>Shape</title>
<desc>Created with Sketch.</desc>
<g id="Page-1" sketch:type="MSPage">
	<g id="Artboard-1" transform="translate(0.000000, -4.000000)" sketch:type="MSArtboardGroup">
		<path id="Shape" sketch:type="MSShapeGroup" d="M8.7,8.7C7.9,8.2,7,8,6,8c-3.3,0-6,2.7-6,6s2.7,6,6,6c1,0,1.9-0.2,2.7-0.7
			C7.3,18,6.5,16.1,6.5,14S7.4,10,8.7,8.7L8.7,8.7z M14,8c-1,0-1.9,0.2-2.7,0.7c1.4,1.4,2.2,3.2,2.2,5.3s-0.9,4-2.2,5.3
			C12.1,19.8,13,20,14,20c3.3,0,6-2.7,6-6S17.3,8,14,8L14,8z M10,9.5L10,9.5c-1.2,1.2-2,2.7-2,4.5s0.8,3.3,2,4.4l0,0
			c1.2-1.1,2-2.7,2-4.5S11.2,10.6,10,9.5L10,9.5z"/>
	</g>
</g>
</svg>
