<?xml version="1.0" encoding="utf-8"?>
<!-- Generator: Adobe Illustrator 18.0.0, SVG Export Plug-In . SVG Version: 6.00 Build 0)  -->
<svg version="1.1" id="Layer_1" xmlns="http://www.w3.org/2000/svg" xmlns:xlink="http://www.w3.org/1999/xlink" x="0px" y="0px"
	 viewBox="0 0 20 20" enable-background="new 0 0 20 20" xml:space="preserve">
<g id="rig_1_">
	<g>
		<path fill-rule="evenodd" clip-rule="evenodd" d="M7,4.2C7,5.75,8.34,7,10,7s3-1.46,3-2.8C13,1.45,10.94,0,10,0H6
			C6,2.74,9.76,1.96,7,4.2z M18.71,18.29L13,12.59V9.01c0-0.55-0.45-1-1-1h-1.78H8c-0.55,0-1,0.45-1,1v3.58l-5.71,5.7
			C1.11,18.47,1,18.72,1,19c0,0.55,0.45,1,1,1c0.28,0,0.53-0.11,0.71-0.29L7,15.42V19c0,0.55,0.45,1,1,1h4c0.55,0,1-0.45,1-1v-3.58
			l4.29,4.29C17.47,19.89,17.72,20,18,20c0.55,0,1-0.45,1-1C19,18.72,18.89,18.47,18.71,18.29z M10.21,8C10.22,8,10.22,8.01,10.21,8
			C10.22,8.01,10.22,8,10.21,8L10.21,8z"/>
	</g>
</g>
</svg>
