<svg xmlns="http://www.w3.org/2000/svg" width="20" height="20"><path fill-rule="evenodd" d="M10 5c2.121-2.121 6.308-2.924 8-3-.076 1.692-.879 5.879-3 8-1.192 1.192-2.543 1.823-3.748 2.384-.442.207-.865.404-1.252.616-.203.111-.597.302-.986.49-.444.215-.88.426-1.014.51l-2-2c.158-.252 1-2 1-2s1.37-3.37 3-5Zm5 1a1 1 0 1 1-2 0 1 1 0 0 1 2 0ZM3 17s0-2 2-4l2 2c-2 2-4 2-4 2Zm11-2-4 4-1.298-4.233c1.033-.56 1.881-.962 2.643-1.322 1.275-.604 2.307-1.092 3.554-2.015L14 15ZM1 10l4-4 3.557-.899c-.923 1.247-1.412 2.28-2.015 3.554-.36.762-.762 1.61-1.322 2.643L1 10Z" clip-rule="evenodd"/></svg>