<?xml version="1.0" encoding="utf-8"?>
<!-- Generator: Adobe Illustrator 18.1.0, SVG Export Plug-In . SVG Version: 6.00 Build 0)  -->
<svg version="1.1" id="Layer_1" xmlns="http://www.w3.org/2000/svg" xmlns:xlink="http://www.w3.org/1999/xlink" x="0px" y="0px"
	 viewBox="0 0 20 20" enable-background="new 0 0 20 20" xml:space="preserve">
<g id="rotate_document">
	<g>
		<path fill-rule="evenodd" clip-rule="evenodd" d="M8.71,6.29C8.53,6.11,8.28,6,8,6H3C2.45,6,2,6.45,2,7v12c0,0.55,0.45,1,1,1h9
			c0.55,0,1-0.45,1-1v-8c0-0.28-0.11-0.53-0.29-0.71L8.71,6.29z M11,18H4V8h3v3c0,0.55,0.45,1,1,1h3V18z M14,2h-1.59l0.29-0.29
			C12.89,1.53,13,1.28,13,1c0-0.55-0.45-1-1-1c-0.28,0-0.53,0.11-0.71,0.29l-2,2C9.11,2.47,9,2.72,9,3c0,0.28,0.11,0.53,0.29,0.71
			l2,2C11.47,5.89,11.72,6,12,6c0.55,0,1-0.45,1-1c0-0.28-0.11-0.53-0.29-0.71L12.41,4H14c1.1,0,2,0.9,2,2v3c0,0.55,0.45,1,1,1
			s1-0.45,1-1V6C18,3.79,16.21,2,14,2z"/>
	</g>
</g>
</svg>
