<svg xmlns="http://www.w3.org/2000/svg" width="20" height="20"><path fill-rule="nonzero" d="M14.028 6.016c.146.275.31.57.485.872.304.524.628 1.047.952 1.545l.118.178-.208-.006-.577-.005c-2.093.004-2.841.303-2.841.895 0 .069.271.248 1.245.567l1.008.313c2.671.831 3.99 1.827 3.99 4.167 0 2.76-1.928 4.059-4.832 4.376-.782.085-1.52.098-2.452.066l-1.15-.046H6.221l.535-.811a67.46 67.46 0 0 0 1.122-1.787h2.04l.686.03c1.028.046 1.77.043 2.523-.039 1.832-.2 2.673-.767 2.673-1.789 0-.69-.483-1.09-1.992-1.585l-.83-.257c-1.192-.364-2.037-.7-2.59-1.165.399-1 .612-1.844.612-2.538a6.018 6.018 0 0 0-.382-2.098c.745-.573 1.884-.822 3.41-.883ZM5 4.2c2.648 0 4.791 2.151 4.8 4.797C9.8 11.652 5 18.6 5 18.6l-.5-.744C3.273 15.993.2 11.121.2 8.997A4.802 4.802 0 0 1 5 4.2Zm0 2.4a2.4 2.4 0 1 0 .002 4.802A2.4 2.4 0 0 0 5 6.6ZM17 .333a2.671 2.671 0 0 1 2.667 2.665C19.667 4.473 17 8.333 17 8.333l-.391-.587c-.741-1.137-2.276-3.629-2.276-4.748A2.668 2.668 0 0 1 17 .333Z"/></svg>