<svg xmlns="http://www.w3.org/2000/svg" xml:space="preserve" viewBox="0 0 20 20"><path d="M9 18c.6 0 1 .4 1 1s-.4 1-1 1c-5 0-9-4-9-9 0-.6.4-1 1-1s1 .4 1 1c0 3.9 3.1 7 7 7zm0-4c.6 0 1 .4 1 1s-.4 1-1 1c-2.8 0-5-2.2-5-5 0-.6.4-1 1-1s1 .4 1 1c0 1.7 1.3 3 3 3zm5.7-3.7c.4-.4 1-.4 1.4 0l3.6 3.6c.4.4.4 1 0 1.4l-1.4 1.4c-.4.4-1 .4-1.4 0l-3.6-3.6c-.4-.4-.4-1 0-1.4l1.4-1.4zM4.7.3c.4-.4 1-.4 1.4 0l3.6 3.6c.4.4.4 1 0 1.4L8.3 6.7c-.4.4-1 .4-1.4 0L3.3 3.1c-.4-.4-.4-1 0-1.4L4.7.3zm11.1 1c.4-.4 1-.4 1.4 0l1.6 1.6c.4.4.4 1 0 1.4l-6.5 6.5c-.4.4-1 .4-1.4 0L9.3 9.2c-.4-.4-.4-1 0-1.4l6.5-6.5zM9 12c-.6 0-1-.4-1-1s.4-1 1-1 1 .4 1 1-.4 1-1 1z"/></svg>