<?xml version="1.0" encoding="utf-8"?>
<!-- Generator: Adobe Illustrator 18.0.0, SVG Export Plug-In . SVG Version: 6.00 Build 0)  -->
<svg version="1.1" id="Layer_1" xmlns="http://www.w3.org/2000/svg" xmlns:xlink="http://www.w3.org/1999/xlink" x="0px" y="0px"
	 viewBox="0 0 20 20" enable-background="new 0 0 20 20" xml:space="preserve">
<g id="satellite_2_">
	<g id="pt-icon-satellite">
		<path id="Combined-Shape" d="M9,18c0.6,0,1,0.4,1,1s-0.4,1-1,1c-5,0-9-4-9-9c0-0.6,0.4-1,1-1s1,0.4,1,1C2,14.9,5.1,18,9,18z M9,14
			c0.6,0,1,0.4,1,1s-0.4,1-1,1c-2.8,0-5-2.2-5-5c0-0.6,0.4-1,1-1s1,0.4,1,1C6,12.7,7.3,14,9,14z M14.7,10.3c0.4-0.4,1-0.4,1.4,0
			l3.6,3.6c0.4,0.4,0.4,1,0,1.4l-1.4,1.4c-0.4,0.4-1,0.4-1.4,0l-3.6-3.6c-0.4-0.4-0.4-1,0-1.4L14.7,10.3z M4.7,0.3
			c0.4-0.4,1-0.4,1.4,0l3.6,3.6c0.4,0.4,0.4,1,0,1.4L8.3,6.7c-0.4,0.4-1,0.4-1.4,0L3.3,3.1c-0.4-0.4-0.4-1,0-1.4L4.7,0.3z M15.8,1.3
			c0.4-0.4,1-0.4,1.4,0l1.6,1.6c0.4,0.4,0.4,1,0,1.4l-6.5,6.5c-0.4,0.4-1,0.4-1.4,0L9.3,9.2c-0.4-0.4-0.4-1,0-1.4L15.8,1.3z M9,12
			c-0.6,0-1-0.4-1-1s0.4-1,1-1s1,0.4,1,1S9.6,12,9,12z"/>
	</g>
</g>
</svg>
