<?xml version="1.0" encoding="utf-8"?>
<!-- Generator: Adobe Illustrator 18.1.0, SVG Export Plug-In . SVG Version: 6.00 Build 0)  -->
<svg version="1.1" id="Layer_1" xmlns="http://www.w3.org/2000/svg" xmlns:xlink="http://www.w3.org/1999/xlink" x="0px" y="0px"
	 viewBox="0 0 20 20" enable-background="new 0 0 20 20" xml:space="preserve">
<g id="saved_1_">
	<g>
		<path fill-rule="evenodd" clip-rule="evenodd" d="M12,0H4C3.45,0,3,0.45,3,1v18c0,0.55,0.45,1,1,1h13c0.55,0,1-0.45,1-1V6L12,0z
			 M16,18H5V2h6v5h5V18z M7.71,11.29C7.53,11.11,7.28,11,7,11c-0.55,0-1,0.45-1,1c0,0.28,0.11,0.53,0.29,0.71l3,3
			C9.47,15.89,9.72,16,10,16c0.32,0,0.59-0.16,0.77-0.38l0.01,0.01l4-5l-0.01-0.01C14.91,10.44,15,10.24,15,10c0-0.55-0.45-1-1-1
			c-0.32,0-0.59,0.16-0.77,0.38l-0.01-0.01l-3.3,4.13L7.71,11.29z"/>
	</g>
</g>
</svg>
