<?xml version="1.0" encoding="utf-8"?>
<!-- Generator: Adobe Illustrator 17.1.0, SVG Export Plug-In . SVG Version: 6.00 Build 0)  -->
<!DOCTYPE svg PUBLIC "-//W3C//DTD SVG 1.1//EN" "http://www.w3.org/Graphics/SVG/1.1/DTD/svg11.dtd">
<svg version="1.1" id="Layer_1" xmlns="http://www.w3.org/2000/svg" xmlns:xlink="http://www.w3.org/1999/xlink" x="0px" y="0px"
	 viewBox="0 0 20 20" enable-background="new 0 0 20 20" xml:space="preserve">
<g id="search_3_">
	<g>
		<path fill-rule="evenodd" clip-rule="evenodd" d="M19.56,17.44l-4.94-4.94C15.49,11.21,16,9.67,16,8c0-4.42-3.58-8-8-8S0,3.58,0,8
			s3.58,8,8,8c1.67,0,3.21-0.51,4.5-1.38l4.94,4.94C17.71,19.83,18.09,20,18.5,20c0.83,0,1.5-0.67,1.5-1.5
			C20,18.09,19.83,17.71,19.56,17.44z M8,14c-3.31,0-6-2.69-6-6s2.69-6,6-6s6,2.69,6,6S11.31,14,8,14z"/>
	</g>
</g>
</svg>
