<?xml version="1.0" encoding="utf-8"?>
<!-- Generator: Adobe Illustrator 17.1.0, SVG Export Plug-In . SVG Version: 6.00 Build 0)  -->
<!DOCTYPE svg PUBLIC "-//W3C//DTD SVG 1.1//EN" "http://www.w3.org/Graphics/SVG/1.1/DTD/svg11.dtd">
<svg version="1.1" id="Layer_1" xmlns="http://www.w3.org/2000/svg" xmlns:xlink="http://www.w3.org/1999/xlink" x="0px" y="0px"
	 viewBox="0 0 20 20" enable-background="new 0 0 20 20" xml:space="preserve">
<g id="search_template_2_">
	<g>
		<path fill-rule="evenodd" clip-rule="evenodd" d="M13,8H5C4.45,8,4,8.45,4,9c0,0.55,0.45,1,1,1h8c0.55,0,1-0.45,1-1
			C14,8.45,13.55,8,13,8z M13,11H5c-0.55,0-1,0.45-1,1c0,0.55,0.45,1,1,1h8c0.55,0,1-0.45,1-1C14,11.45,13.55,11,13,11z M13,5H5
			C4.45,5,4,5.45,4,6c0,0.55,0.45,1,1,1h8c0.55,0,1-0.45,1-1C14,5.45,13.55,5,13,5z M19.56,17.44l-3.23-3.23
			C17.38,12.74,18,10.94,18,9c0-4.97-4.03-9-9-9S0,4.03,0,9c0,4.97,4.03,9,9,9c1.94,0,3.74-0.62,5.21-1.67l3.23,3.23
			C17.71,19.83,18.09,20,18.5,20c0.83,0,1.5-0.67,1.5-1.5C20,18.09,19.83,17.71,19.56,17.44z M9,16c-3.87,0-7-3.13-7-7
			c0-3.87,3.13-7,7-7s7,3.13,7,7C16,12.87,12.87,16,9,16z"/>
	</g>
</g>
</svg>
