<?xml version="1.0" encoding="utf-8"?>
<!-- Generator: Adobe Illustrator 17.1.0, SVG Export Plug-In . SVG Version: 6.00 Build 0)  -->
<!DOCTYPE svg PUBLIC "-//W3C//DTD SVG 1.1//EN" "http://www.w3.org/Graphics/SVG/1.1/DTD/svg11.dtd">
<svg version="1.1" id="Layer_4" xmlns="http://www.w3.org/2000/svg" xmlns:xlink="http://www.w3.org/1999/xlink" x="0px" y="0px"
	 viewBox="0 0 20 20" enable-background="new 0 0 20 20" xml:space="preserve">
<circle cx="9.9" cy="9.9" r="3"/>
<path d="M3,14c-1.7,0-3,1.3-3,3s1.3,3,3,3s3-1.3,3-3S4.7,14,3,14z M3,19c-1.1,0-2-0.9-2-2c0-1.1,0.9-2,2-2s2,0.9,2,2
	C5,18.1,4.1,19,3,19z"/>
<path d="M3,0C1.3,0,0,1.3,0,3s1.3,3,3,3s3-1.3,3-3S4.7,0,3,0z M3,5C1.9,5,1,4.1,1,3c0-1.1,0.9-2,2-2s2,0.9,2,2C5,4.1,4.1,5,3,5z"/>
<path d="M17,14c-1.7,0-3,1.3-3,3s1.3,3,3,3s3-1.3,3-3S18.7,14,17,14z M17,19c-1.1,0-2-0.9-2-2c0-1.1,0.9-2,2-2s2,0.9,2,2
	C19,18.1,18.1,19,17,19z"/>
<path d="M17,0c-1.7,0-3,1.3-3,3s1.3,3,3,3s3-1.3,3-3S18.7,0,17,0z M17,5c-1.1,0-2-0.9-2-2c0-1.1,0.9-2,2-2s2,0.9,2,2
	C19,4.1,18.1,5,17,5z"/>
<g>
	<line x1="10" y1="10" x2="5" y2="5"/>
	<rect x="4" y="7" transform="matrix(0.7071 0.7071 -0.7071 0.7071 7.5 -3.1066)" width="7.1" height="1"/>
</g>
<g>
	<line x1="10" y1="10" x2="15" y2="5"/>
	<rect x="12" y="4" transform="matrix(0.7071 0.7071 -0.7071 0.7071 8.9645 -6.6421)" width="1" height="7.1"/>
</g>
<g>
	<line x1="10" y1="10" x2="15" y2="15"/>
	<rect x="9" y="12" transform="matrix(0.7071 0.7071 -0.7071 0.7071 12.5 -5.1777)" width="7.1" height="1"/>
</g>
<g>
	<line x1="10" y1="10" x2="5" y2="15"/>
	<rect x="7" y="9" transform="matrix(0.7071 0.7071 -0.7071 0.7071 11.0355 -1.6421)" width="1" height="7.1"/>
</g>
</svg>
