<?xml version="1.0" encoding="utf-8"?>
<!-- Generator: Adobe Illustrator 17.1.0, SVG Export Plug-In . SVG Version: 6.00 Build 0)  -->
<!DOCTYPE svg PUBLIC "-//W3C//DTD SVG 1.1//EN" "http://www.w3.org/Graphics/SVG/1.1/DTD/svg11.dtd">
<svg version="1.1" id="Layer_1" xmlns="http://www.w3.org/2000/svg" xmlns:xlink="http://www.w3.org/1999/xlink" x="0px" y="0px"
	 viewBox="0 0 20 20" enable-background="new 0 0 20 20" xml:space="preserve">
<g id="select">
	<g>
		<path fill-rule="evenodd" clip-rule="evenodd" d="M19.71,18.29l-4.25-4.25L20,12.91L9.93,9.33C9.97,9.23,10,9.12,10,9V3
			c0-0.55-0.45-1-1-1H4V1c0-0.55-0.45-1-1-1S2,0.45,2,1v1H1C0.45,2,0,2.45,0,3c0,0.55,0.45,1,1,1h1v5c0,0.55,0.45,1,1,1h6
			c0.12,0,0.23-0.03,0.34-0.07L12.91,20l1.14-4.54l4.25,4.25C18.47,19.89,18.72,20,19,20c0.55,0,1-0.45,1-1
			C20,18.72,19.89,18.47,19.71,18.29z M8,8H4V4h4V8z"/>
	</g>
</g>
</svg>
