<?xml version="1.0" encoding="utf-8"?>
<!-- Generator: Adobe Illustrator 18.0.0, SVG Export Plug-In . SVG Version: 6.00 Build 0)  -->
<svg version="1.1" id="Layer_1" xmlns="http://www.w3.org/2000/svg" xmlns:xlink="http://www.w3.org/1999/xlink" x="0px" y="0px"
	 viewBox="0 0 20 20" enable-background="new 0 0 20 20" xml:space="preserve">
<g id="send_to_map_1_">
	<g>
		<path fill-rule="evenodd" clip-rule="evenodd" d="M8,11H3c-0.55,0-1,0.45-1,1s0.45,1,1,1h2.59l-5.29,5.29C0.11,18.47,0,18.72,0,19
			c0,0.55,0.45,1,1,1c0.28,0,0.53-0.11,0.71-0.29L7,14.41V17c0,0.55,0.45,1,1,1s1-0.45,1-1v-5C9,11.45,8.55,11,8,11z M19.54,4.18
			l0.01-0.02l-6-4l-0.01,0.02C13.39,0.08,13.21,0,13,0s-0.39,0.08-0.54,0.18l-0.01-0.02L7,3.8L1.55,0.17L1.54,0.18
			C1.39,0.08,1.21,0,1,0C0.45,0,0,0.45,0,1v9c0-0.55,0.45-1,1-1h1V2.87l4,2.67V9h2V5.54l4-2.67v11.6l-1,0.67v2.4l2-1.33l5.45,3.63
			l0.01-0.02C18.61,19.92,18.79,20,19,20c0.55,0,1-0.45,1-1V5C20,4.65,19.81,4.36,19.54,4.18z M18,17.13l-4-2.67V2.87l4,2.67V17.13z
			"/>
	</g>
</g>
</svg>
