<svg xmlns="http://www.w3.org/2000/svg" xml:space="preserve" viewBox="0 0 20 20"><path fill-rule="evenodd" d="M8 11H3c-.55 0-1 .45-1 1s.45 1 1 1h2.59L.3 18.29c-.19.18-.3.43-.3.71a1.003 1.003 0 0 0 1.71.71L7 14.41V17c0 .55.45 1 1 1s1-.45 1-1v-5c0-.55-.45-1-1-1zm10 2c-.53 0-1.01.21-1.37.55L11.9 10.6c.06-.19.1-.39.1-.6 0-.21-.04-.41-.1-.6l4.72-2.95c.37.34.85.55 1.38.55 1.1 0 2-.9 2-2s-.9-2-2-2-2 .9-2 2c0 .21.04.41.1.6l-4.73 2.96c-.24-.23-.54-.4-.87-.48V3.93c.86-.22 1.5-1 1.5-1.93 0-1.1-.9-2-2-2S8 .9 8 2c0 .93.64 1.71 1.5 1.93v4.14c-.33.09-.63.26-.87.48L7.6 7.91 5.42 6.55 3.9 5.6c.06-.19.1-.39.1-.6 0-1.1-.9-2-2-2s-2 .9-2 2 .9 2 2 2c.53 0 1.01-.21 1.37-.55L9 9.96V10h.06L12 11.84l.4.25 1.51.94 2.19 1.37c-.06.19-.1.39-.1.6 0 1.1.9 2 2 2s2-.9 2-2-.9-2-2-2zm-7-2.96-.06-.04H11v.04z" clip-rule="evenodd"/></svg>