<svg xmlns="http://www.w3.org/2000/svg" xml:space="preserve" viewBox="0 0 20 20"><path fill-rule="evenodd" d="M8 11H3c-.55 0-1 .45-1 1s.45 1 1 1h2.59L.3 18.29c-.19.18-.3.43-.3.71a1.003 1.003 0 0 0 1.71.71L7 14.41V17c0 .55.45 1 1 1s1-.45 1-1v-5c0-.55-.45-1-1-1zm11.54-6.82.01-.02-6-4-.01.02C13.39.08 13.21 0 13 0s-.39.08-.54.18l-.01-.02L7 3.8 1.55.17l-.01.01A.969.969 0 0 0 1 0C.45 0 0 .45 0 1v9c0-.55.45-1 1-1h1V2.87l4 2.67V9h2V5.54l4-2.67v11.6l-1 .67v2.4l2-1.33 5.45 3.63.01-.02c.15.1.33.18.54.18.55 0 1-.45 1-1V5c0-.35-.19-.64-.46-.82zM18 17.13l-4-2.67V2.87l4 2.67v11.59z" clip-rule="evenodd"/></svg>