<?xml version="1.0" encoding="utf-8"?>
<!-- Generator: Adobe Illustrator 17.1.0, SVG Export Plug-In . SVG Version: 6.00 Build 0)  -->
<!DOCTYPE svg PUBLIC "-//W3C//DTD SVG 1.1//EN" "http://www.w3.org/Graphics/SVG/1.1/DTD/svg11.dtd">
<svg version="1.1" id="Layer_1" xmlns:sketch="http://www.bohemiancoding.com/sketch/ns"
	 xmlns="http://www.w3.org/2000/svg" xmlns:xlink="http://www.w3.org/1999/xlink" x="0px" y="0px" viewBox="0 0 20 20"
	 enable-background="new 0 0 20 20" xml:space="preserve">
<title>Shape</title>
<desc>Created with Sketch.</desc>
<g id="Page-1" sketch:type="MSPage">
	<g id="Artboard-1" sketch:type="MSArtboardGroup">
		<path id="Shape" sketch:type="MSShapeGroup" d="M19,0h-5c-0.6,0-1,0.4-1,1s0.4,1,1,1h2.6l-4.3,4.3C12.1,6.5,12,6.7,12,7
			c0,0.6,0.4,1,1,1c0.3,0,0.5-0.1,0.7-0.3L18,3.4V6c0,0.5,0.5,1,1,1s1-0.5,1-1V1C20,0.4,19.5,0,19,0L19,0z M19,9
			c-1,0-1.9-0.5-2.5-1.3l-1.4,1.4C14.6,9.7,13.8,10,13,10c-1.7,0-3-1.3-3-3c0-0.8,0.3-1.6,0.9-2.1l1.4-1.4C11.5,2.9,11,2,11,1
			c0-0.3,0.1-0.6,0.2-0.9C10.8,0,10.4,0,10,0C4.5,0,0,4.5,0,10s4.5,10,10,10s10-4.5,10-10c0-0.4,0-0.8-0.1-1.2C19.6,8.9,19.3,9,19,9
			L19,9z"/>
	</g>
</g>
</svg>
