<?xml version="1.0" encoding="utf-8"?>
<!-- Generator: Adobe Illustrator 18.0.0, SVG Export Plug-In . SVG Version: 6.00 Build 0)  -->
<svg version="1.1" id="Layer_1" xmlns="http://www.w3.org/2000/svg" xmlns:xlink="http://www.w3.org/1999/xlink" x="0px" y="0px"
	 viewBox="0 0 20 20" enable-background="new 0 0 20 20" xml:space="preserve">
<g id="send_to_graph_1_">
	<g>
		<path fill-rule="evenodd" clip-rule="evenodd" d="M8,11H3c-0.55,0-1,0.45-1,1s0.45,1,1,1h2.59l-5.29,5.29C0.11,18.47,0,18.72,0,19
			c0,0.55,0.45,1,1,1c0.28,0,0.53-0.11,0.71-0.29L7,14.41V17c0,0.55,0.45,1,1,1s1-0.45,1-1v-5C9,11.45,8.55,11,8,11z M18,13
			c-0.53,0-1.01,0.21-1.37,0.55L11.9,10.6c0.06-0.19,0.1-0.39,0.1-0.6c0-0.21-0.04-0.41-0.1-0.6l4.72-2.95C16.99,6.79,17.47,7,18,7
			c1.1,0,2-0.9,2-2s-0.9-2-2-2s-2,0.9-2,2c0,0.21,0.04,0.41,0.1,0.6l-4.73,2.96c-0.24-0.23-0.54-0.4-0.87-0.48V3.93
			C11.36,3.71,12,2.93,12,2c0-1.1-0.9-2-2-2S8,0.9,8,2c0,0.93,0.64,1.71,1.5,1.93v4.14C9.17,8.16,8.87,8.33,8.63,8.55L7.6,7.91
			L5.42,6.55L3.9,5.6C3.96,5.41,4,5.21,4,5c0-1.1-0.9-2-2-2S0,3.9,0,5s0.9,2,2,2c0.53,0,1.01-0.21,1.37-0.55L9,9.96V10h0.06
			L12,11.84l0.4,0.25l1.51,0.94l2.19,1.37C16.04,14.59,16,14.79,16,15c0,1.1,0.9,2,2,2s2-0.9,2-2S19.1,13,18,13z M11,10.04L10.94,10
			H11V10.04z"/>
	</g>
</g>
</svg>
