<svg xmlns="http://www.w3.org/2000/svg" xml:space="preserve" viewBox="0 0 20 20"><path d="m11.28 11.31-.28.28-3.29-3.3C7.53 8.11 7.28 8 7 8s-.53.11-.71.29L2 12.59V4c0-.55-.45-1-1-1s-1 .45-1 1v14a.998.998 0 0 0 1 1h18c.55 0 1-.45 1-1s-.45-1-1-1H2v-1.59l5-5 3.29 3.29c.18.19.43.3.71.3s.53-.11.71-.29l2.09-2.09c-.17.02-.34.02-.51.02-.7 0-1.38-.12-2.01-.33zm-.93-6c0-1.62 1.31-2.93 2.93-2.93s2.93 1.31 2.93 2.93-1.31 2.93-2.93 2.93-2.93-1.31-2.93-2.93zm6.47 2.43c.11-.17.21-.33.29-.51.01-.03.03-.06.04-.09.08-.18.16-.35.21-.54.06-.2.1-.38.14-.58.01-.05.01-.09.02-.14.03-.2.05-.39.05-.6 0-2.37-1.93-4.3-4.3-4.3-2.37.01-4.3 1.93-4.3 4.31s1.93 4.3 4.3 4.3c.21 0 .4-.02.6-.05.04 0 .09-.01.14-.02.2-.03.38-.08.57-.14.2-.06.37-.14.55-.21.03-.01.06-.03.09-.04.18-.09.34-.19.51-.29l2.87 2.87c.14.14.33.22.56.22.43 0 .78-.35.78-.78a.938.938 0 0 0-.23-.56l-2.89-2.85z"/></svg>