<?xml version="1.0" encoding="utf-8"?>
<!-- Generator: Adobe Illustrator 18.0.0, SVG Export Plug-In . SVG Version: 6.00 Build 0)  -->
<svg version="1.1" id="Layer_1" xmlns="http://www.w3.org/2000/svg" xmlns:xlink="http://www.w3.org/1999/xlink" x="0px" y="0px"
	 viewBox="0 0 20 20" enable-background="new 0 0 20 20" xml:space="preserve">
<path id="series:_add_1_" d="M13.29,9.29c0.3,0.62,0.8,1.12,1.42,1.42l-3,3C11.53,13.89,11.28,14,11,14s-0.53-0.11-0.71-0.3L7,10.41
	l-5,5V17h17c0.55,0,1,0.45,1,1s-0.45,1-1,1H1c-0.41,0-0.77-0.25-0.92-0.61C0.03,18.27,0,18.14,0,18V4c0-0.55,0.45-1,1-1s1,0.45,1,1
	v8.59l4.29-4.3C6.47,8.11,6.72,8,7,8s0.53,0.11,0.71,0.29l3.29,3.3L13.29,9.29z M12,5c0-0.5,0.4-1,1-1h2V2c0-0.6,0.4-1,1-1
	c0.5,0,1,0.4,1,1v2h2c0.5,0,1,0.4,1,1s-0.5,1-1,1h-2v2c0,0.6-0.5,1-1,1c-0.6,0-1-0.4-1-1V6h-2C12.4,6,12,5.6,12,5z"/>
</svg>
