<?xml version="1.0" encoding="utf-8"?>
<!-- Generator: Adobe Illustrator 18.0.0, SVG Export Plug-In . SVG Version: 6.00 Build 0)  -->
<svg version="1.1" id="Layer_1" xmlns="http://www.w3.org/2000/svg" xmlns:xlink="http://www.w3.org/1999/xlink" x="0px" y="0px"
	 viewBox="0 0 20 20" enable-background="new 0 0 20 20" xml:space="preserve">
<path id="series:_derived_1_" d="M18.82,6.58c-0.03,0.05-0.07,0.09-0.11,0.13c0,0,0-0.01-0.01-0.01l-2,2C16.5,8.9,16.3,9,16,9
	c-0.6,0-1-0.4-1-1c0-0.3,0.1-0.5,0.3-0.7L16.6,6H11c-0.6,0-1-0.4-1-1s0.4-1,1-1h5.6l-1.3-1.3C15.1,2.5,15,2.3,15,2c0-0.6,0.4-1,1-1
	c0.3,0,0.5,0.1,0.7,0.3l3,3C19.9,4.5,20,4.7,20,5s-0.1,0.5-0.3,0.7L18.82,6.58z M13.29,9.29c0.3,0.62,0.8,1.12,1.42,1.42l-3,3
	C11.53,13.89,11.28,14,11,14s-0.53-0.11-0.71-0.3L7,10.41l-5,5V17h17c0.55,0,1,0.45,1,1s-0.45,1-1,1H1c-0.41,0-0.77-0.25-0.92-0.61
	C0.03,18.27,0,18.14,0,18V4c0-0.55,0.45-1,1-1s1,0.45,1,1v8.59l4.29-4.3C6.47,8.11,6.72,8,7,8s0.53,0.11,0.71,0.29l3.29,3.3
	L13.29,9.29z"/>
</svg>
