<svg xmlns="http://www.w3.org/2000/svg" xml:space="preserve" viewBox="0 0 20 20"><path d="M18.82 6.58c-.03.05-.07.09-.11.13 0 0 0-.01-.01-.01l-2 2c-.2.2-.4.3-.7.3-.6 0-1-.4-1-1 0-.3.1-.5.3-.7L16.6 6H11c-.6 0-1-.4-1-1s.4-1 1-1h5.6l-1.3-1.3c-.2-.2-.3-.4-.3-.7 0-.6.4-1 1-1 .3 0 .5.1.7.3l3 3c.2.2.3.4.3.7s-.1.5-.3.7l-.88.88zm-5.53 2.71c.3.62.8 1.12 1.42 1.42l-3 3c-.18.18-.43.29-.71.29s-.53-.11-.71-.3L7 10.41l-5 5V17h17c.55 0 1 .45 1 1s-.45 1-1 1H1a.998.998 0 0 1-1-1V4c0-.55.45-1 1-1s1 .45 1 1v8.59l4.29-4.3C6.47 8.11 6.72 8 7 8s.53.11.71.29l3.29 3.3 2.29-2.3z"/></svg>