<?xml version="1.0" encoding="utf-8"?>
<!-- Generator: Adobe Illustrator 18.0.0, SVG Export Plug-In . SVG Version: 6.00 Build 0)  -->
<svg version="1.1" id="Layer_1" xmlns="http://www.w3.org/2000/svg" xmlns:xlink="http://www.w3.org/1999/xlink" x="0px" y="0px"
	 viewBox="0 0 20 20" enable-background="new 0 0 20 20" xml:space="preserve">
<path id="series:_configuration_1_" d="M11.91,10.67c0.52,0.45,1.13,0.8,1.8,1.03l-2.01,2.01C11.52,13.89,11.27,14,10.99,14
	c-0.28,0-0.53-0.11-0.71-0.3L7,10.41l-5,5V17h16.99c0.55,0,1,0.45,1,1s-0.45,1-1,1H1c-0.41,0-0.77-0.25-0.92-0.61
	C0.03,18.27,0,18.14,0,18V4c0-0.55,0.45-1,1-1c0.55,0,1,0.45,1,1v8.59l4.29-4.3C6.47,8.11,6.72,8,7,8c0.28,0,0.53,0.11,0.71,0.29
	l3.29,3.3L11.91,10.67z M18.5,4.6h1.04c0.25,0,0.45,0.2,0.46,0.44v0.9c0,0.25-0.2,0.45-0.45,0.45h-1.04
	c-0.07,0.22-0.16,0.42-0.27,0.62l0.73,0.73c0.17,0.17,0.17,0.44,0,0.61l-0.61,0.61c-0.17,0.17-0.44,0.17-0.61,0l-0.73-0.73
	c-0.2,0.11-0.4,0.2-0.62,0.26v1.05c0,0.25-0.2,0.45-0.45,0.45h-0.9c-0.25,0-0.45-0.2-0.45-0.45V8.51c-0.21-0.06-0.4-0.15-0.58-0.25
	l-0.76,0.77c-0.17,0.17-0.46,0.17-0.64,0l-0.64-0.64c-0.17-0.17-0.17-0.46,0-0.64l0.76-0.77c-0.1-0.19-0.19-0.38-0.25-0.59h-1.04
	c-0.25,0-0.45-0.2-0.45-0.45v-0.9c0-0.25,0.2-0.45,0.45-0.45h1.04c0.07-0.22,0.16-0.42,0.27-0.61l-0.73-0.73
	c-0.17-0.17-0.17-0.44,0-0.61l0.61-0.61c0.17-0.17,0.44-0.17,0.61,0l0.73,0.73c0.2-0.11,0.4-0.2,0.62-0.26V1.45
	C14.59,1.2,14.8,1,15.04,1h0.9c0.25,0,0.45,0.2,0.45,0.45V2.5c0.21,0.06,0.4,0.15,0.58,0.25l0.76-0.77c0.17-0.17,0.46-0.17,0.64,0
	l0.64,0.64c0.17,0.17,0.17,0.46,0,0.64l-0.76,0.77C18.35,4.2,18.44,4.39,18.5,4.6z M13.81,5.5c0,0.93,0.75,1.69,1.69,1.69
	c0.93,0,1.69-0.75,1.69-1.69s-0.75-1.69-1.69-1.69C14.56,3.81,13.81,4.57,13.81,5.5z"/>
</svg>
