<?xml version="1.0" encoding="utf-8"?>
<!-- Generator: Adobe Illustrator 18.0.0, SVG Export Plug-In . SVG Version: 6.00 Build 0)  -->
<svg version="1.1" id="Layer_1" xmlns="http://www.w3.org/2000/svg" xmlns:xlink="http://www.w3.org/1999/xlink" x="0px" y="0px"
	 viewBox="0 0 20 20" enable-background="new 0 0 20 20" xml:space="preserve">
<path id="series:_filtered_1_" d="M12.14,10.45c0.21,0.67,0.65,1.23,1.22,1.61l-1.65,1.65C11.53,13.89,11.28,14,11,14
	s-0.53-0.11-0.71-0.3L7,10.41l-5,5V17h17c0.55,0,1,0.45,1,1s-0.45,1-1,1H1c-0.41,0-0.77-0.25-0.92-0.61C0.03,18.27,0,18.14,0,18V4
	c0-0.55,0.45-1,1-1s1,0.45,1,1v8.59l4.29-4.3C6.47,8.11,6.72,8,7,8s0.53,0.11,0.71,0.29l3.29,3.3L12.14,10.45z M19.35,1
	C19.71,1,20,1.29,20,1.64c0,0.18-0.07,0.34-0.19,0.46l-3.03,3.03v2.95c0,0.18-0.07,0.34-0.19,0.46l-1.28,1.29
	C15.2,9.93,15.04,10,14.86,10c-0.35,0-0.64-0.29-0.64-0.64V5.13L11.19,2.1C11.07,1.98,11,1.82,11,1.64C11,1.29,11.29,1,11.64,1
	H19.35z"/>
</svg>
