<svg xmlns="http://www.w3.org/2000/svg" xml:space="preserve" viewBox="0 0 20 20"><path d="M11.91 10.67c.52.45 1.13.8 1.8 1.03l-2.01 2.01c-.18.18-.43.29-.71.29-.28 0-.53-.11-.71-.3L7 10.41l-5 5V17h16.99c.55 0 1 .45 1 1s-.45 1-1 1H1a.998.998 0 0 1-1-1V4c0-.55.45-1 1-1s1 .45 1 1v8.59l4.29-4.3C6.47 8.11 6.72 8 7 8c.28 0 .53.11.71.29l3.29 3.3.91-.92zM18.5 4.6h1.04c.25 0 .45.2.46.44v.9c0 .25-.2.45-.45.45h-1.04c-.07.22-.16.42-.27.62l.73.73c.17.17.17.44 0 .61l-.61.61c-.17.17-.44.17-.61 0l-.73-.73c-.2.11-.4.2-.62.26v1.05c0 .25-.2.45-.45.45h-.9c-.25 0-.45-.2-.45-.45V8.51c-.21-.06-.4-.15-.58-.25l-.76.77c-.17.17-.46.17-.64 0l-.64-.64a.465.465 0 0 1 0-.64l.76-.77c-.1-.19-.19-.38-.25-.59h-1.04c-.25 0-.45-.2-.45-.45v-.9c0-.25.2-.45.45-.45h1.04c.07-.22.16-.42.27-.61l-.73-.73a.429.429 0 0 1 0-.61l.61-.61c.17-.17.44-.17.61 0l.73.73c.2-.11.4-.2.62-.26V1.45a.44.44 0 0 1 .44-.45h.9c.25 0 .45.2.45.45V2.5c.21.06.4.15.58.25l.76-.77c.17-.17.46-.17.64 0l.64.64c.17.17.17.46 0 .64l-.76.77c.1.17.19.36.25.57zm-4.69.9c0 .93.75 1.69 1.69 1.69.93 0 1.69-.75 1.69-1.69s-.75-1.69-1.69-1.69-1.69.76-1.69 1.69z"/></svg>