<svg xmlns="http://www.w3.org/2000/svg" xml:space="preserve" viewBox="0 0 20 20"><path d="M12.14 10.45c.21.67.65 1.23 1.22 1.61l-1.65 1.65c-.18.18-.43.29-.71.29s-.53-.11-.71-.3L7 10.41l-5 5V17h17c.55 0 1 .45 1 1s-.45 1-1 1H1a.998.998 0 0 1-1-1V4c0-.55.45-1 1-1s1 .45 1 1v8.59l4.29-4.3C6.47 8.11 6.72 8 7 8s.53.11.71.29l3.29 3.3 1.14-1.14zM19.35 1a.642.642 0 0 1 .46 1.1l-3.03 3.03v2.95c0 .18-.07.34-.19.46l-1.28 1.29c-.11.1-.27.17-.45.17-.35 0-.64-.29-.64-.64V5.13L11.19 2.1a.642.642 0 0 1 .45-1.1h7.71z"/></svg>