<?xml version="1.0" encoding="utf-8"?>
<!-- Generator: Adobe Illustrator 18.0.0, SVG Export Plug-In . SVG Version: 6.00 Build 0)  -->
<svg version="1.1" id="Layer_1" xmlns="http://www.w3.org/2000/svg" xmlns:xlink="http://www.w3.org/1999/xlink" x="0px" y="0px"
	 viewBox="0 0 20 20" enable-background="new 0 0 20 20" xml:space="preserve">
<path id="series:_search_1_" d="M11.28,11.31L11,11.59l-3.29-3.3C7.53,8.11,7.28,8,7,8S6.47,8.11,6.29,8.29L2,12.59V4
	c0-0.55-0.45-1-1-1S0,3.45,0,4v14c0,0.14,0.03,0.27,0.08,0.39C0.23,18.75,0.59,19,1,19h18c0.55,0,1-0.45,1-1c0-0.55-0.45-1-1-1H2
	v-1.59l5-5l3.29,3.29C10.47,13.89,10.72,14,11,14s0.53-0.11,0.71-0.29l2.09-2.09c-0.17,0.02-0.34,0.02-0.51,0.02
	C12.59,11.64,11.91,11.52,11.28,11.31z M10.35,5.31c0-1.62,1.31-2.93,2.93-2.93s2.93,1.31,2.93,2.93s-1.31,2.93-2.93,2.93
	S10.35,6.93,10.35,5.31z M16.82,7.74c0.11-0.17,0.21-0.33,0.29-0.51c0.01-0.03,0.03-0.06,0.04-0.09c0.08-0.18,0.16-0.35,0.21-0.54
	c0.06-0.2,0.1-0.38,0.14-0.58c0.01-0.05,0.01-0.09,0.02-0.14c0.03-0.2,0.05-0.39,0.05-0.6c0-2.37-1.93-4.3-4.3-4.3
	c-2.37,0.01-4.3,1.93-4.3,4.31s1.93,4.3,4.3,4.3c0.21,0,0.4-0.02,0.6-0.05c0.04,0,0.09-0.01,0.14-0.02c0.2-0.03,0.38-0.08,0.57-0.14
	c0.2-0.06,0.37-0.14,0.55-0.21c0.03-0.01,0.06-0.03,0.09-0.04c0.18-0.09,0.34-0.19,0.51-0.29l2.87,2.87
	c0.14,0.14,0.33,0.22,0.56,0.22c0.43,0,0.78-0.35,0.78-0.78c-0.01-0.21-0.1-0.41-0.23-0.56L16.82,7.74z"/>
</svg>
