<svg xmlns="http://www.w3.org/2000/svg" xml:space="preserve" viewBox="0 0 20 20"><path fill-rule="evenodd" d="M4 1c0-.55-.45-1-1-1S2 .45 2 1v5h2V1zM2 19c0 .55.45 1 1 1s1-.45 1-1v-6H2v6zm9-18c0-.55-.45-1-1-1S9 .45 9 1v8h2V1zm7 0c0-.55-.45-1-1-1s-1 .45-1 1v3h2V1zM9 19c0 .55.45 1 1 1s1-.45 1-1v-3H9v3zm9-14h-2c-.55 0-1 .45-1 1v3c0 .55.45 1 1 1h2c.55 0 1-.45 1-1V6c0-.55-.45-1-1-1zm-2 14c0 .55.45 1 1 1s1-.45 1-1v-8h-2v8zM4 7H2c-.55 0-1 .45-1 1v3c0 .55.45 1 1 1h2c.55 0 1-.45 1-1V8c0-.55-.45-1-1-1zm7 3H9c-.55 0-1 .45-1 1v3c0 .55.45 1 1 1h2c.55 0 1-.45 1-1v-3c0-.55-.45-1-1-1z" clip-rule="evenodd"/></svg>