<?xml version="1.0" encoding="utf-8"?>
<!-- Generator: Adobe Illustrator 18.1.0, SVG Export Plug-In . SVG Version: 6.00 Build 0)  -->
<svg version="1.1" id="Layer_1" xmlns="http://www.w3.org/2000/svg" xmlns:xlink="http://www.w3.org/1999/xlink" x="0px" y="0px"
	 viewBox="0 0 20 20" enable-background="new 0 0 20 20" xml:space="preserve">
<g id="settings_1_">
	<g>
		<path fill-rule="evenodd" clip-rule="evenodd" d="M4,1c0-0.55-0.45-1-1-1S2,0.45,2,1v5h2V1z M2,19c0,0.55,0.45,1,1,1s1-0.45,1-1
			v-6H2V19z M11,1c0-0.55-0.45-1-1-1S9,0.45,9,1v8h2V1z M18,1c0-0.55-0.45-1-1-1s-1,0.45-1,1v3h2V1z M9,19c0,0.55,0.45,1,1,1
			s1-0.45,1-1v-3H9V19z M18,5h-2c-0.55,0-1,0.45-1,1v3c0,0.55,0.45,1,1,1h2c0.55,0,1-0.45,1-1V6C19,5.45,18.55,5,18,5z M16,19
			c0,0.55,0.45,1,1,1s1-0.45,1-1v-8h-2V19z M4,7H2C1.45,7,1,7.45,1,8v3c0,0.55,0.45,1,1,1h2c0.55,0,1-0.45,1-1V8C5,7.45,4.55,7,4,7z
			 M11,10H9c-0.55,0-1,0.45-1,1v3c0,0.55,0.45,1,1,1h2c0.55,0,1-0.45,1-1v-3C12,10.45,11.55,10,11,10z"/>
	</g>
</g>
</svg>
