<svg xmlns="http://www.w3.org/2000/svg" width="20" height="20"><path d="M13.917 17.209c1.01.454 2.543.928 2.873 1.643.31.722.186 1.148.186 1.148H6.026s-.13-.426.186-1.148 1.842-1.203 2.86-1.65c1.017-.447.914-.722.948-1.093 0-.048.007-.097.007-.145a3.067 3.067 0 0 1-.839-1.237l-.007-.007c0-.007-.006-.014-.006-.02a1.757 1.757 0 0 1-.11-.337c-.234-.042-.372-.296-.426-.537a1.045 1.045 0 0 1-.138-.598c.034-.35.179-.509.337-.57v-.056c0-.44.034-1.065.117-1.478a2.508 2.508 0 0 1 .962-1.623c.426-.33 1.038-.501 1.58-.501.544 0 1.155.172 1.588.502a2.496 2.496 0 0 1 .963 1.622c.075.413.117 1.045.117 1.478v.062c.15.062.288.22.323.564.02.268-.083.502-.138.598-.048.234-.185.488-.42.537a2.635 2.635 0 0 1-.116.364 3.094 3.094 0 0 1-.818 1.224c0 .055 0 .11.007.158.034.378-.103.653.914 1.1Z"/><path d="M14.976 16.57c-.24-.099-.455-.186-.65-.273l-.007-.004a3.801 3.801 0 0 1-.194-.091c.224-.288.41-.609.554-.946l.001-.002.013-.033c.018-.043.036-.087.052-.13l.011-.027.016-.04c.105-.092.19-.19.256-.284.129-.184.213-.38.265-.563.105-.226.225-.592.192-1.026l-.001-.011-.002-.011a1.854 1.854 0 0 0-.325-.91 9.924 9.924 0 0 0-.12-1.246 3.09 3.09 0 0 0-.106-.475l-.001-.006a3.543 3.543 0 0 0-.763-1.353c.27-.092.56-.139.83-.139.495 0 1.05.156 1.444.456a2.269 2.269 0 0 1 .875 1.475c.069.375.106.95.106 1.344v.056c.138.056.263.2.294.513.019.244-.075.456-.125.543-.044.213-.169.444-.381.488-.025.1-.056.206-.094.3a2.815 2.815 0 0 1-.756 1.144c0 .05 0 .1.006.144.004.043.006.086.007.127.01.283.018.518.824.872.192.087.404.173.623.263.83.34 1.752.717 1.99 1.231.28.657.168 1.044.168 1.044h-2.081a3.864 3.864 0 0 0-.188-.542l-.005-.013-.006-.012c-.183-.397-.491-.681-.76-.88a5.614 5.614 0 0 0-.896-.522 17.36 17.36 0 0 0-.916-.4l-.15-.061ZM14 1c.55 0 1 .45 1 1 0 .28-.11.53-.29.7L10 7.41v.897a3.182 3.182 0 0 0-.69.4 3.508 3.508 0 0 0-1.343 2.259c-.07.37-.107.836-.122 1.237a1.836 1.836 0 0 0-.339.926c-.046.458.09.84.195 1.06.053.178.138.376.27.56.055.08.125.162.21.242v.143l.053.052L6.71 16.71A1.003 1.003 0 0 1 5 16V7.41L.29 2.71A1.003 1.003 0 0 1 1 1h13Z"/><path d="M9.059 14.361c-.23-.044-.366-.296-.42-.535a1.045 1.045 0 0 1-.138-.598c.034-.35.179-.509.337-.57v-.056c0-.44.034-1.065.117-1.478A2.508 2.508 0 0 1 10 9.441V13c0 .28-.11.53-.29.71l-.651.651Z"/></svg>