<?xml version="1.0" encoding="utf-8"?>
<!-- Generator: Adobe Illustrator 18.1.0, SVG Export Plug-In . SVG Version: 6.00 Build 0)  -->
<svg version="1.1" id="Layer_1" xmlns="http://www.w3.org/2000/svg" xmlns:xlink="http://www.w3.org/1999/xlink" x="0px" y="0px"
	 viewBox="0 0 20 20" enable-background="new 0 0 20 20" xml:space="preserve">
<g id="shopping_cart_1_">
	<g>
		<path fill-rule="evenodd" clip-rule="evenodd" d="M18,14H8.72l-0.67-2H17c0.44,0,0.8-0.29,0.94-0.69l0.01,0l2-6l-0.01,0
			C19.97,5.21,20,5.11,20,5c0-0.55-0.45-1-1-1H5.39L4.95,2.68l-0.01,0C4.8,2.29,4.44,2,4,2H1C0.45,2,0,2.45,0,3c0,0.55,0.45,1,1,1
			h2.28l3.33,10H5c-1.1,0-2,0.9-2,2c0,1.1,0.9,2,2,2s2-0.9,2-2h9c0,1.1,0.9,2,2,2s2-0.9,2-2C20,14.9,19.1,14,18,14z M6.05,6h11.56
			l-1.33,4H7.39L6.05,6z"/>
	</g>
</g>
</svg>
