<?xml version="1.0" encoding="utf-8"?>
<!-- Generator: Adobe Illustrator 18.1.0, SVG Export Plug-In . SVG Version: 6.00 Build 0)  -->
<svg version="1.1" id="Layer_1" xmlns="http://www.w3.org/2000/svg" xmlns:xlink="http://www.w3.org/1999/xlink" x="0px" y="0px"
	 viewBox="0 0 20 20" enable-background="new 0 0 20 20" xml:space="preserve">
<g id="shop_1_">
	<g>
		<path fill-rule="evenodd" clip-rule="evenodd" d="M17.94,3.63c-0.01-0.02-0.01-0.03-0.02-0.04L17.89,3.5l-0.01,0
			C17.7,3.2,17.39,3,17.02,3h-14C2.6,3,2.25,3.25,2.1,3.61l0,0l0,0c0,0,0,0,0,0L0,8.5h0.02c0,1.38,1.12,2.5,2.5,2.5
			s2.5-1.12,2.5-2.5c0,1.38,1.12,2.5,2.5,2.5s2.5-1.12,2.5-2.5c0,1.38,1.12,2.5,2.5,2.5s2.5-1.12,2.5-2.5c0,1.38,1.12,2.5,2.5,2.5
			s2.5-1.12,2.5-2.5h0L17.94,3.63z M3.02,2h14c0.55,0,1-0.45,1-1c0-0.55-0.45-1-1-1h-14c-0.55,0-1,0.45-1,1C2.02,1.55,2.46,2,3.02,2
			z M16.02,16h-12v-4h-2v7c0,0.55,0.45,1,1,1h14c0.55,0,1-0.45,1-1v-7h-2V16z"/>
	</g>
</g>
</svg>
