<?xml version="1.0" encoding="UTF-8"?>
<svg viewBox="0 0 20 20" version="1.1" xmlns="http://www.w3.org/2000/svg" xmlns:xlink="http://www.w3.org/1999/xlink">
    <title>Signal search</title>
    <g stroke="none" stroke-width="1" fill="none" fill-rule="evenodd">
        <path d="M7.14909683,10.3291148 C8.03777025,11.1302992 9.14870995,11.6896728 10.3782437,11.9035633 L12.7044732,18.8837664 C12.8575772,19.3256626 12.6109097,19.8015508 12.1686093,19.9545148 C11.726309,20.1074789 11.2414797,19.8610368 11.0968815,19.4191406 L9.87204979,15.7480032 L7.12468412,15.7480032 L5.89985237,19.4191406 C5.75525418,19.8610368 5.27042494,20.0989809 4.82812459,19.9545148 C4.38582423,19.8100488 4.1476625,19.3256626 4.2922607,18.8837664 L7.14909683,10.3291148 Z M8.50261984,11.6349697 L7.69457112,14.0484026 L9.30216279,14.0484026 L8.50261984,11.6349697 Z" id="Shape" fill="#000000" fill-rule="nonzero"></path>
        <path d="M5,5.5 C5,6.26061226 5.13064388,6.990711 5.37071616,7.66908076 C4.87396111,8.72602064 5.05723171,10.0259196 6.07399361,10.9599503 C6.45874923,11.3133994 6.47798701,11.8993807 6.11246917,12.2714323 C5.74695134,12.643484 5.14096125,12.6620866 4.75620563,12.3086375 C2.57271752,10.2995586 2.75547644,7.18362613 4.76582452,5.36987437 C4.83882943,5.30457454 4.92014567,5.25233467 5.00635636,5.21315477 C5.00205285,5.30978985 5,5.40465519 5,5.5 Z" id="Path" fill="#000000" fill-rule="nonzero"></path>
        <path d="M3.87412872,13.1853298 C2.5281799,12.2673368 1.68696189,10.5148049 1.68696189,8.84572682 C1.68696189,7.09319486 2.4440581,5.59102462 3.87412872,4.50612388 C4.29473772,4.25576218 4.29473772,3.67158486 4.04237232,3.33776925 C3.79000692,2.92049973 3.20115431,2.92049973 2.86466711,3.17086144 C1.01398748,4.58957779 -0.0795959299,6.50901755 0.00452587112,8.84572682 C0.0886476722,11.0989822 1.18223109,13.2687837 2.86466711,14.5205922 C3.03291071,14.6040461 3.20115431,14.6875 3.36939791,14.6875 C3.62176332,14.6875 3.87412872,14.6040461 4.04237232,14.3536844 C4.37885953,13.9364149 4.29473772,13.4356915 3.87412872,13.1853298 Z" id="Path" fill="#000000" fill-rule="nonzero"></path>
        <path d="M12.2463163,12.3087961 C11.8621792,12.6620243 11.2571634,12.6434334 10.8922332,12.2716142 C10.7980315,12.1756342 10.7294265,12.0654082 10.6859227,11.9484507 C10.9528889,11.982853 11.224442,12 11.5,12 C11.8905527,12 12.2730605,11.9655554 12.6446511,11.8995382 C12.522119,12.0406546 12.3892992,12.1771047 12.2463163,12.3087961 Z" id="Path" fill="#000000" fill-rule="nonzero"></path>
        <path d="M14.6314507,11.4763066 L15.8591673,12.7046744 C15.4015306,13.4150931 14.8188966,14.036488 14.1355966,14.5205922 C13.967321,14.6040461 13.7990453,14.6875 13.6307697,14.6875 C13.3783563,14.6875 13.1259428,14.6040461 12.9576672,14.3536844 C12.6211159,13.9364149 12.7052538,13.4356915 13.1259428,13.1853298 C13.745733,12.7626876 14.2585169,12.1631512 14.6314507,11.4763066 L14.6314507,11.4763066 Z" id="Path" fill="#000000" fill-rule="nonzero"></path>
        <path d="M11.5,0 C14.54,0 17,2.46 17,5.5 C17,5.76 16.98,6.01 16.94,6.25 L16.91,6.42 C16.87,6.67 16.81,6.91 16.74,7.15 L16.74,7.16 C16.66,7.4 16.57,7.63 16.46,7.85 C16.45,7.89 16.43,7.92 16.41,7.96 C16.3,8.19 16.17,8.4 16.03,8.61 L19.71,12.29 C19.89,12.47 20,12.72 20,13 C20,13.55 19.55,14 19,14 C18.72,14 18.47,13.89 18.3,13.71 L14.62,10.03 C14.41,10.17 14.2,10.3 13.97,10.41 C13.93,10.42 13.9,10.44 13.86,10.46 C13.64,10.57 13.41,10.66 13.17,10.74 L13.16,10.74 C12.92,10.81 12.68,10.87 12.43,10.91 L12.26,10.94 C12.01,10.98 11.76,11 11.5,11 C8.46,11 6,8.54 6,5.5 C6,2.46 8.46,0 11.5,0 Z M11.5,1.5 C9.29,1.5 7.5,3.29 7.5,5.5 C7.5,7.71 9.29,9.5 11.5,9.5 C13.71,9.5 15.5,7.71 15.5,5.5 C15.5,3.29 13.71,1.5 11.5,1.5 Z" id="Shape" fill="#000000"></path>
    </g>
</svg>
