<svg xmlns="http://www.w3.org/2000/svg" viewBox="0 0 20 20"><g fill-rule="evenodd"><path fill-rule="nonzero" d="M7.15 10.33c.888.8 1.999 1.36 3.228 1.574l2.326 6.98a.846.846 0 0 1-.535 1.07.844.844 0 0 1-1.072-.535l-1.225-3.671H7.125L5.9 19.419a.85.85 0 0 1-1.072.536.85.85 0 0 1-.536-1.071l2.857-8.555Zm1.353 1.305-.808 2.413h1.607l-.8-2.413ZM5 5.5c0 .76.13 1.49.37 2.17-.496 1.056-.313 2.356.704 3.29.385.353.404.94.038 1.311a.982.982 0 0 1-1.356.038c-2.183-2.01-2-5.125.01-6.94a.95.95 0 0 1 .24-.156A6.421 6.421 0 0 0 5 5.5Z"/><path fill-rule="nonzero" d="M3.874 13.185c-1.346-.918-2.187-2.67-2.187-4.34 0-1.752.757-3.254 2.187-4.339.42-.25.42-.834.168-1.168-.252-.418-.84-.418-1.177-.167C1.014 4.59-.08 6.509.005 8.846c.084 2.253 1.177 4.423 2.86 5.675.168.083.336.166.504.166.253 0 .505-.083.673-.333.337-.418.253-.918-.168-1.169ZM12.246 12.309a.98.98 0 0 1-1.354-.037.917.917 0 0 1-.206-.324 6.54 6.54 0 0 0 1.959-.049 5.125 5.125 0 0 1-.399.41ZM14.631 11.476l1.228 1.229a6.6 6.6 0 0 1-1.723 1.816c-.169.083-.337.166-.505.166-.253 0-.505-.083-.673-.333-.337-.418-.253-.918.168-1.169.62-.422 1.133-1.022 1.505-1.709Z"/><path d="M11.5 0C14.54 0 17 2.46 17 5.5c0 .26-.02.51-.06.75l-.03.17c-.04.25-.1.49-.17.73v.01c-.08.24-.17.47-.28.69-.01.04-.03.07-.05.11-.11.23-.24.44-.38.65l3.68 3.68A1.003 1.003 0 0 1 19 14c-.28 0-.53-.11-.7-.29l-3.68-3.68c-.21.14-.42.27-.65.38-.04.01-.07.03-.11.05-.22.11-.45.2-.69.28h-.01c-.24.07-.48.13-.73.17l-.17.03c-.25.04-.5.06-.76.06C8.46 11 6 8.54 6 5.5S8.46 0 11.5 0Zm0 1.5c-2.21 0-4 1.79-4 4s1.79 4 4 4 4-1.79 4-4-1.79-4-4-4Z"/></g></svg>