<svg xmlns="http://www.w3.org/2000/svg" width="20" height="20"><path fill-rule="nonzero" d="M11 11.776v2.81l2.31 2.242a.987.987 0 0 1 0 1.415c-.399.39-1.044.39-1.442 0L11 17.414V19a.99.99 0 0 1-.996 1A.996.996 0 0 1 9 19v-1.636l-.912.879c-.398.39-1.043.39-1.441 0a.987.987 0 0 1 0-1.415L9 14.536v-2.79l-2.548 1.435-.837 3.063c-.146.534-.705.85-1.248.707a.998.998 0 0 1-.721-1.224l.309-1.132-1.4.793a1.03 1.03 0 0 1-1.393-.366.99.99 0 0 1 .373-1.366l1.445-.818-1.224-.322a.998.998 0 0 1-.72-1.225c.145-.533.704-.85 1.248-.707l3.193.84 2.462-1.395-2.532-1.434-3.123.82a1.022 1.022 0 0 1-1.249-.706.998.998 0 0 1 .721-1.225L2.91 7.18l-1.4-.793a.99.99 0 0 1-.373-1.366 1.03 1.03 0 0 1 1.392-.366l1.445.818-.328-1.2a.998.998 0 0 1 .72-1.225 1.022 1.022 0 0 1 1.25.707l.855 3.132L9 8.311V5.414L6.647 3.121a.987.987 0 0 1 0-1.414 1.033 1.033 0 0 1 1.441 0L9 2.586V1c0-.552.44-1 1.004-1A.99.99 0 0 1 11 1l-.007 1.536.875-.829a1.033 1.033 0 0 1 1.441 0 .987.987 0 0 1 0 1.414L11 5.364v2.918l2.53-1.42.855-3.131c.146-.534.705-.85 1.249-.707a.998.998 0 0 1 .72 1.224l-.327 1.2 1.4-.792a1.03 1.03 0 0 1 1.392.366.99.99 0 0 1-.373 1.366l-1.355.768 1.153.303a.998.998 0 0 1 .721 1.225c-.146.533-.705.85-1.249.707l-3.123-.821-2.576 1.459 2.506 1.42 3.193-.84a1.022 1.022 0 0 1 1.249.707.998.998 0 0 1-.72 1.225l-1.224.322 1.4.793a.99.99 0 0 1 .373 1.366 1.03 1.03 0 0 1-1.393.366l-1.356-.768.31 1.132a.998.998 0 0 1-.721 1.224 1.022 1.022 0 0 1-1.249-.707l-.837-3.063L11 11.776Z"/></svg>