<?xml version="1.0" encoding="UTF-8"?>
<svg width="20px" height="20px" viewBox="0 0 20 20" version="1.1" xmlns="http://www.w3.org/2000/svg" xmlns:xlink="http://www.w3.org/1999/xlink">
    <!-- Generator: Sketch 50.2 (55047) - http://www.bohemiancoding.com/sketch -->
    <title>Artboard</title>
    <desc>Created with Sketch.</desc>
    <defs></defs>
    <g id="Artboard" stroke="none" stroke-width="1" fill="none" fill-rule="evenodd">
        <g id="20px" transform="translate(1.000000, 0.000000)" fill="#000000" fill-rule="nonzero">
            <path d="M10,11.7755708 L10,14.5857864 L12.3092715,16.8284271 C12.7073815,17.2189514 12.7073815,17.8521164 12.3092715,18.2426407 C11.9111614,18.633165 11.2656976,18.633165 10.8675875,18.2426407 L10,17.4142136 L10,19 C10,19.5522847 9.56665669,20 9.00364402,20 C8.44063144,20 8,19.5522847 8,19 L8,17.363961 L7.08847194,18.2426407 C6.6903619,18.633165 6.04489799,18.633165 5.64678795,18.2426407 C5.24867792,17.8521164 5.24867792,17.2189514 5.64678795,16.8284271 L8,14.5355339 L8,11.7465575 L5.4519989,13.1806786 L4.61519055,16.2441828 C4.46947217,16.7776489 3.91048402,17.0942314 3.3666556,16.9512895 C2.82282716,16.8083477 2.50009522,16.2600108 2.6458136,15.7265447 L2.95492898,14.5948922 L1.55492133,15.3877854 C1.06733811,15.6639278 0.443867846,15.5000526 0.162361541,15.02176 C-0.119144773,14.5434674 0.0479135842,13.931877 0.535496811,13.6557346 L1.97986978,12.8377151 L0.756255822,12.516096 C0.212427386,12.3731542 -0.110304568,11.8248173 0.0354138186,11.2913511 C0.181132215,10.757885 0.74012035,10.4413026 1.28394879,10.5842444 L4.4769397,11.4235015 L6.93918067,10.0290133 L4.40696005,8.59489217 L1.28394879,9.41575563 C0.74012035,9.55869744 0.181132215,9.24211495 0.0354138186,8.70864885 C-0.110304568,8.17518275 0.212427386,7.62684579 0.756255822,7.48390398 L1.90989012,7.18067861 L0.509882475,6.38778539 C0.0222992483,6.11164301 -0.144759098,5.50005261 0.136747206,5.02175998 C0.41825351,4.54346736 1.04172377,4.37959221 1.529307,4.65573458 L2.97367997,5.47375407 L2.6458136,4.27345533 C2.50009522,3.73998923 2.82282716,3.19165227 3.3666556,3.04871046 C3.91048402,2.90576865 4.46947217,3.22235114 4.61519055,3.75581724 L5.47074989,6.88796763 L8,8.31146916 L8,5.41421356 L5.64678795,3.12132034 C5.24867792,2.73079605 5.24867792,2.09763107 5.64678795,1.70710678 C6.04489799,1.31658249 6.6903619,1.31658249 7.08847194,1.70710678 L8,2.58578644 L8,1 C8,0.44771525 8.44063144,1.01453063e-16 9.00364402,0 C9.56665669,-1.01453063e-16 10,0.44771525 10,1 L9.99271192,2.53553391 L10.8675875,1.70710678 C11.2656976,1.31658249 11.9111614,1.31658249 12.3092715,1.70710678 C12.7073815,2.09763107 12.7073815,2.73079605 12.3092715,3.12132034 L10,5.36396103 L10,8.28245585 L12.5296749,6.86284136 L13.3852342,3.73069098 C13.5309526,3.19722487 14.0899408,2.88064238 14.6337692,3.0235842 C15.1775976,3.16652601 15.5003296,3.71486296 15.3546112,4.24832907 L15.0267448,5.4486278 L16.4267524,4.65573458 C16.9143357,4.37959221 17.537806,4.54346736 17.8193122,5.02175998 C18.1008185,5.50005261 17.9337602,6.11164301 17.4461769,6.38778539 L16.0905347,7.15555234 L17.244169,7.45877771 C17.7879974,7.60171953 18.1107294,8.15005648 17.9650109,8.68352259 C17.8192925,9.21698869 17.2603044,9.53357118 16.716476,9.39062937 L13.5934647,8.5697659 L11.0168788,10.0290133 L13.5234851,11.4486278 L16.716476,10.6093706 C17.2603044,10.4664288 17.8192925,10.7830113 17.9650109,11.3164774 C18.1107294,11.8499435 17.7879974,12.3982805 17.244169,12.5412223 L16.020555,12.8628414 L17.4205627,13.6557346 C17.9081459,13.931877 18.0752043,14.5434674 17.7936979,15.02176 C17.5121916,15.5000526 16.8887213,15.6639278 16.4011381,15.3877854 L15.0454958,14.6200184 L15.3546112,15.7516709 C15.5003296,16.285137 15.1775976,16.833474 14.6337692,16.9764158 C14.0899408,17.1193576 13.5309526,16.8027751 13.3852342,16.269309 L12.5484259,13.2058049 L10,11.7755708 Z" id="Combined-Shape-Copy-2"></path>
        </g>
    </g>
</svg>