<?xml version="1.0" encoding="UTF-8"?>
<svg width="20px" height="20px" viewBox="0 0 20 20" version="1.1" xmlns="http://www.w3.org/2000/svg" xmlns:xlink="http://www.w3.org/1999/xlink">
    <!-- Generator: Sketch 49.1 (51147) - http://www.bohemiancoding.com/sketch -->
    <title>Artboard Copy</title>
    <desc>Created with Sketch.</desc>
    <defs></defs>
    <g id="Artboard-Copy" stroke="none" stroke-width="1" fill="none" fill-rule="evenodd">
        <g id="pt-icon-social-media" fill="#000000" fill-rule="nonzero">
            <path d="M11.5,5 C12.3,5 13.1,4.6 13.5,4 C15.5,5.2 16.8,7.3 17,9.7 C17,10.2 17.5,10.6 18,10.6 C18.6,10.6 19,10.1 19,9.6 L19,9.5 C18.8,6.2 16.8,3.3 13.9,1.9 C13.7,0.8 12.7,0 11.5,0 C10.1,0 9,1.1 9,2.5 C9,3.9 10.1,5 11.5,5 Z M16.5,12 C15.1,12 14,13.1 14,14.5 C14,14.9 14.1,15.2 14.2,15.6 C13.1,16.5 11.6,17 10,17 C8.1,17 6.4,16.2 5.1,15 C4.9,14.8 4.6,14.6 4.3,14.6 C3.8,14.6 3.3,15.1 3.3,15.6 C3.3,15.9 3.4,16.1 3.6,16.3 C5.3,18 7.5,19 10,19 C12.2,19 14.2,18.2 15.8,16.9 C16,17 16.3,17 16.5,17 C17.9,17 19,15.9 19,14.5 C19,13.1 17.9,12 16.5,12 Z M5,10.5 C5,9.4 4.3,8.4 3.3,8.1 C3.8,6.2 5.2,4.6 6.9,3.7 C7.2,3.5 7.5,3.2 7.5,2.8 C7.5,2.3 7.1,1.8 6.5,1.8 C6.3,1.8 6.1,1.9 5.9,2 C3.5,3.2 1.7,5.6 1.2,8.4 C0.5,8.9 0,9.6 0,10.5 C0,11.9 1.1,13 2.5,13 C3.9,13 5,11.9 5,10.5 Z" id="Shape"></path>
        </g>
    </g>
</svg>