<svg xmlns="http://www.w3.org/2000/svg" width="20" height="20"><path fill-rule="nonzero" d="M11.5 5c.8 0 1.6-.4 2-1 2 1.2 3.3 3.3 3.5 5.7 0 .5.5.9 1 .9.6 0 1-.5 1-1v-.1c-.2-3.3-2.2-6.2-5.1-7.6C13.7.8 12.7 0 11.5 0 10.1 0 9 1.1 9 2.5S10.1 5 11.5 5Zm5 7c-1.4 0-2.5 1.1-2.5 2.5 0 .4.1.7.2 1.1-1.1.9-2.6 1.4-4.2 1.4-1.9 0-3.6-.8-4.9-2-.2-.2-.5-.4-.8-.4-.5 0-1 .5-1 1 0 .3.1.5.3.7C5.3 18 7.5 19 10 19c2.2 0 4.2-.8 5.8-2.1.2.1.5.1.7.1 1.4 0 2.5-1.1 2.5-2.5S17.9 12 16.5 12ZM5 10.5c0-1.1-.7-2.1-1.7-2.4.5-1.9 1.9-3.5 3.6-4.4.3-.2.6-.5.6-.9 0-.5-.4-1-1-1-.2 0-.4.1-.6.2-2.4 1.2-4.2 3.6-4.7 6.4C.5 8.9 0 9.6 0 10.5 0 11.9 1.1 13 2.5 13S5 11.9 5 10.5Z"/></svg>