<svg xmlns="http://www.w3.org/2000/svg" xml:space="preserve" viewBox="0 0 20 20"><path fill-rule="evenodd" d="M10 8h5c.55 0 1-.45 1-1V6c0-.55-.45-1-1-1h-5c-.55 0-1 .45-1 1v1c0 .55.45 1 1 1zm0 5h7c.55 0 1-.45 1-1v-1c0-.55-.45-1-1-1h-7c-.55 0-1 .45-1 1v1c0 .55.45 1 1 1zm0-10h3c.55 0 1-.45 1-1V1c0-.55-.45-1-1-1h-3c-.55 0-1 .45-1 1v1c0 .55.45 1 1 1zm9 12h-9c-.55 0-1 .45-1 1v1c0 .55.45 1 1 1h9c.55 0 1-.45 1-1v-1c0-.55-.45-1-1-1zM7 14c-.28 0-.53.11-.71.29L5 15.59V10c0-.55-.45-1-1-1s-1 .45-1 1v5.59L1.71 14.3A.965.965 0 0 0 1 14a1.003 1.003 0 0 0-.71 1.71l3 3c.18.18.43.29.71.29s.53-.11.71-.29l3-3A1.003 1.003 0 0 0 7 14z" clip-rule="evenodd"/></svg>