<svg xmlns="http://www.w3.org/2000/svg" xml:space="preserve" viewBox="0 0 20 20"><path fill-rule="evenodd" d="M9 15c-.28 0-.53.11-.71.29L7 16.59v-5.58c0-.55-.45-1-1-1s-1 .45-1 1v5.58L3.71 15.3c-.18-.18-.43-.3-.71-.3a1.003 1.003 0 0 0-.71 1.71l3 3c.18.18.43.29.71.29.28 0 .53-.11.71-.29l3-3A1.003 1.003 0 0 0 9 15zm6.7-1.33a1.5 1.5 0 0 1-.44.43c-.17.11-.37.19-.58.23-.22.04-.44.06-.67.05v1.07h1.66V20H17v-6.99h-1.06c-.04.26-.12.48-.24.66zm3.15-10.3c-.11-.68-.29-1.26-.55-1.76-.26-.5-.62-.89-1.08-1.18C16.75.14 16.17 0 15.46 0c-.54 0-1.03.09-1.46.27-.43.18-.79.44-1.09.76-.3.33-.52.71-.67 1.15-.16.44-.24.92-.24 1.43 0 .54.08 1.04.23 1.47.15.44.37.81.65 1.12.28.31.61.55 1 .72.39.17.82.26 1.3.26.46 0 .88-.11 1.26-.33.38-.22.68-.53.9-.94l.03.03c-.03.35-.07.74-.12 1.16-.05.42-.15.81-.29 1.18-.14.37-.35.68-.61.92-.26.25-.62.37-1.06.37-.43 0-.77-.13-1.03-.4-.25-.27-.4-.62-.44-1.05h-1.64c.02.43.11.83.29 1.18.17.35.39.66.67.91a3.027 3.027 0 0 0 2.07.8c.71 0 1.3-.17 1.79-.5.48-.33.87-.76 1.17-1.29.3-.53.51-1.12.64-1.76.13-.64.19-1.28.19-1.92.01-.77-.05-1.49-.15-2.17zM17.1 4.44c-.08.27-.19.5-.34.71-.15.21-.34.37-.57.49-.23.12-.5.18-.8.18-.3 0-.56-.06-.78-.19-.22-.13-.4-.29-.55-.49-.14-.2-.25-.44-.32-.7-.07-.27-.11-.55-.11-.84 0-.28.04-.55.11-.82.07-.26.18-.49.32-.7.14-.2.33-.36.55-.48.22-.12.48-.17.78-.17.31 0 .57.06.8.18.23.12.42.28.57.48.15.2.26.43.34.69.08.26.11.53.11.82 0 .29-.04.57-.11.84z" clip-rule="evenodd"/></svg>