<?xml version="1.0" encoding="utf-8"?>
<!-- Generator: Adobe Illustrator 18.0.0, SVG Export Plug-In . SVG Version: 6.00 Build 0)  -->
<svg version="1.1" id="Layer_1" xmlns="http://www.w3.org/2000/svg" xmlns:xlink="http://www.w3.org/1999/xlink" x="0px" y="0px"
	 viewBox="0 0 20 20" enable-background="new 0 0 20 20" xml:space="preserve">
<g id="sort_numerical_2_">
	<g>
		<path fill-rule="evenodd" clip-rule="evenodd" d="M9,14.99c-0.28,0-0.53,0.11-0.71,0.29h0L7,16.58v-5.59c0-0.55-0.45-1-1-1
			c-0.55,0-1,0.45-1,1v5.59l-1.29-1.29C3.53,15.1,3.28,14.99,3,14.99c-0.55,0-1,0.45-1,1c0,0.28,0.11,0.53,0.29,0.71l3,3v0
			c0.18,0.18,0.43,0.29,0.71,0.29c0.28,0,0.53-0.11,0.71-0.29v0l3-3c0.18-0.18,0.29-0.43,0.29-0.71C10.01,15.44,9.56,14.99,9,14.99z
			 M17.88,15.22c-0.08-0.42-0.22-0.79-0.42-1.12c-0.2-0.33-0.47-0.6-0.8-0.8c-0.33-0.2-0.76-0.3-1.28-0.3
			c-0.36,0-0.68,0.06-0.97,0.19c-0.29,0.13-0.54,0.3-0.75,0.52c-0.21,0.22-0.37,0.48-0.49,0.78c-0.11,0.3-0.17,0.62-0.17,0.97
			c0,0.27,0.04,0.54,0.13,0.8c0.08,0.26,0.22,0.5,0.4,0.7c0.19,0.21,0.43,0.38,0.71,0.5c0.28,0.12,0.56,0.19,0.85,0.19
			c0.33,0,0.62-0.06,0.87-0.17c0.25-0.12,0.47-0.31,0.66-0.58l0.02,0.02c-0.01,0.19-0.04,0.4-0.08,0.63
			c-0.04,0.24-0.11,0.46-0.21,0.67c-0.1,0.21-0.23,0.38-0.39,0.53c-0.16,0.14-0.37,0.22-0.62,0.22c-0.24,0-0.44-0.08-0.6-0.25
			c-0.16-0.17-0.27-0.36-0.31-0.59h-1.31c0.04,0.29,0.12,0.56,0.24,0.79c0.12,0.23,0.28,0.43,0.48,0.59
			c0.19,0.16,0.42,0.28,0.67,0.36c0.25,0.08,0.52,0.12,0.82,0.12c0.49,0,0.9-0.1,1.23-0.31c0.34-0.21,0.61-0.48,0.82-0.82
			c0.21-0.34,0.37-0.71,0.47-1.13c0.1-0.42,0.15-0.83,0.15-1.25C18,16.05,17.96,15.63,17.88,15.22z M16.46,15.85
			c-0.05,0.15-0.11,0.28-0.2,0.4c-0.09,0.12-0.2,0.21-0.34,0.27s-0.3,0.1-0.49,0.1c-0.17,0-0.33-0.04-0.46-0.11
			c-0.13-0.07-0.24-0.17-0.33-0.29c-0.08-0.12-0.15-0.25-0.19-0.4c-0.04-0.15-0.06-0.31-0.06-0.47c0-0.15,0.02-0.3,0.07-0.45
			c0.05-0.15,0.11-0.28,0.2-0.39c0.09-0.12,0.2-0.21,0.33-0.28c0.13-0.07,0.27-0.11,0.44-0.11c0.17,0,0.33,0.04,0.47,0.11
			c0.14,0.07,0.25,0.17,0.34,0.28c0.09,0.12,0.16,0.25,0.21,0.4c0.05,0.15,0.07,0.3,0.07,0.46C16.53,15.54,16.5,15.7,16.46,15.85z
			 M15.32,11H17V0h-1.25c-0.05,0.34-0.17,0.62-0.34,0.85c-0.17,0.23-0.39,0.42-0.63,0.57c-0.25,0.15-0.52,0.25-0.83,0.31
			c-0.3,0.06-0.62,0.09-0.94,0.09v1.41h2.31V11z"/>
	</g>
</g>
</svg>
