<?xml version="1.0" encoding="utf-8"?>
<!-- Generator: Adobe Illustrator 18.0.0, SVG Export Plug-In . SVG Version: 6.00 Build 0)  -->
<svg version="1.1" id="Layer_1" xmlns="http://www.w3.org/2000/svg" xmlns:xlink="http://www.w3.org/1999/xlink" x="0px" y="0px"
	 viewBox="0 0 20 20" enable-background="new 0 0 20 20" xml:space="preserve">
<g id="sort_2_">
	<g>
		<path fill-rule="evenodd" clip-rule="evenodd" d="M19,16h-9c-0.55,0-1,0.45-1,1v1c0,0.55,0.45,1,1,1h9c0.55,0,1-0.45,1-1v-1
			C20,16.45,19.55,16,19,16z M19,11h-9c-0.55,0-1,0.45-1,1v1c0,0.55,0.45,1,1,1h9c0.55,0,1-0.45,1-1v-1C20,11.45,19.55,11,19,11z
			 M7,15c-0.28,0-0.53,0.11-0.71,0.29L5,16.59V11c0-0.55-0.45-1-1-1s-1,0.45-1,1v5.59l-1.29-1.29C1.53,15.11,1.28,15,1,15
			c-0.55,0-1,0.45-1,1c0,0.28,0.11,0.53,0.29,0.71l3,3C3.47,19.89,3.72,20,4,20s0.53-0.11,0.71-0.29l3-3C7.89,16.53,8,16.28,8,16
			C8,15.45,7.55,15,7,15z M19,1h-9C9.45,1,9,1.45,9,2v1c0,0.55,0.45,1,1,1h9c0.55,0,1-0.45,1-1V2C20,1.45,19.55,1,19,1z M19,6h-9
			C9.45,6,9,6.45,9,7v1c0,0.55,0.45,1,1,1h9c0.55,0,1-0.45,1-1V7C20,6.45,19.55,6,19,6z"/>
	</g>
</g>
</svg>
