<?xml version="1.0" encoding="utf-8"?>
<!-- Generator: Adobe Illustrator 18.0.0, SVG Export Plug-In . SVG Version: 6.00 Build 0)  -->
<svg version="1.1" id="Layer_1" xmlns="http://www.w3.org/2000/svg" xmlns:xlink="http://www.w3.org/1999/xlink" x="0px" y="0px"
	 viewBox="0 0 20 20" enable-background="new 0 0 20 20" xml:space="preserve">
<g id="sort_alphabetical_2_">
	<g>
		<path fill-rule="evenodd" clip-rule="evenodd" d="M8,15c-0.28,0-0.53,0.11-0.71,0.29L6,16.59v-5.58c0-0.55-0.45-1-1-1s-1,0.45-1,1
			v5.58L2.71,15.3h0C2.53,15.12,2.28,15,2,15c-0.55,0-1,0.45-1,1c0,0.28,0.11,0.53,0.29,0.71h0l3,3C4.47,19.89,4.72,20,5,20
			s0.53-0.11,0.71-0.29l3-3C8.89,16.53,9,16.28,9,16C9,15.45,8.55,15,8,15z M16.89,14.21v-1.22H11.3v1.3h3.51L11,18.78V20h5.99v-1.3
			h-3.91L16.89,14.21z M14.97,0h-1.95L9.01,11.01h1.89l0.98-2.92h4.17l0.98,2.92h1.96L14.97,0z M12.38,6.63l1.58-4.74H14l1.57,4.74
			H12.38z"/>
	</g>
</g>
</svg>
