<svg xmlns="http://www.w3.org/2000/svg" xml:space="preserve" viewBox="0 0 20 20"><path fill-rule="evenodd" d="M8 15c-.28 0-.53.11-.71.29L6 16.59v-5.58c0-.55-.45-1-1-1s-1 .45-1 1v5.58L2.71 15.3c-.18-.18-.43-.3-.71-.3a1.003 1.003 0 0 0-.71 1.71l3 3c.18.18.43.29.71.29s.53-.11.71-.29l3-3A1.003 1.003 0 0 0 8 15zm8.89-.79v-1.22H11.3v1.3h3.51L11 18.78V20h5.99v-1.3h-3.91l3.81-4.49zM14.97 0h-1.95L9.01 11.01h1.89l.98-2.92h4.17l.98 2.92h1.96L14.97 0zm-2.59 6.63 1.58-4.74H14l1.57 4.74h-3.19z" clip-rule="evenodd"/></svg>