<svg xmlns="http://www.w3.org/2000/svg" xml:space="preserve" viewBox="0 0 20 20"><path fill-rule="evenodd" d="M9 14.99c-.28 0-.53.11-.71.29L7 16.58v-5.59c0-.55-.45-1-1-1s-1 .45-1 1v5.59l-1.29-1.29a.965.965 0 0 0-.71-.3 1.003 1.003 0 0 0-.71 1.71l3 3c.18.18.43.29.71.29.28 0 .53-.11.71-.29l3-3c.18-.18.29-.43.29-.71a.99.99 0 0 0-1-1zm8.88.23c-.08-.42-.22-.79-.42-1.12-.2-.33-.47-.6-.8-.8-.33-.2-.76-.3-1.28-.3a2.333 2.333 0 0 0-1.72.71c-.21.22-.37.48-.49.78-.11.3-.17.62-.17.97 0 .27.04.54.13.8.08.26.22.5.4.7.19.21.43.38.71.5a2.142 2.142 0 0 0 1.72.02c.25-.12.47-.31.66-.58l.02.02c-.01.19-.04.4-.08.63-.04.24-.11.46-.21.67-.1.21-.23.38-.39.53a.92.92 0 0 1-.62.22c-.24 0-.44-.08-.6-.25-.16-.17-.27-.36-.31-.59h-1.31c.04.29.12.56.24.79.12.23.28.43.48.59.19.16.42.28.67.36.25.08.52.12.82.12.49 0 .9-.1 1.23-.31.34-.21.61-.48.82-.82.21-.34.37-.71.47-1.13.1-.42.15-.83.15-1.25 0-.43-.04-.85-.12-1.26zm-1.42.63c-.05.15-.11.28-.2.4-.09.12-.2.21-.34.27s-.3.1-.49.1c-.17 0-.33-.04-.46-.11s-.24-.17-.33-.29c-.08-.12-.15-.25-.19-.4-.04-.15-.06-.31-.06-.47 0-.15.02-.3.07-.45.05-.15.11-.28.2-.39.09-.12.2-.21.33-.28.13-.07.27-.11.44-.11.17 0 .33.04.47.11.14.07.25.17.34.28a1.387 1.387 0 0 1 .28.86c.01.17-.02.33-.06.48zM15.32 11H17V0h-1.25c-.05.34-.17.62-.34.85-.17.23-.39.42-.63.57-.25.15-.52.25-.83.31-.3.06-.62.09-.94.09v1.41h2.31V11z" clip-rule="evenodd"/></svg>