<?xml version="1.0" encoding="utf-8"?>
<!-- Generator: Adobe Illustrator 18.0.0, SVG Export Plug-In . SVG Version: 6.00 Build 0)  -->
<svg version="1.1" id="Layer_1" xmlns="http://www.w3.org/2000/svg" xmlns:xlink="http://www.w3.org/1999/xlink" x="0px" y="0px"
	 viewBox="0 0 20 20" enable-background="new 0 0 20 20" xml:space="preserve">
<g id="sort_numerical_desc_1_">
	<g>
		<path fill-rule="evenodd" clip-rule="evenodd" d="M9,15c-0.28,0-0.53,0.11-0.71,0.29L7,16.59v-5.58c0-0.55-0.45-1-1-1
			c-0.55,0-1,0.45-1,1v5.58L3.71,15.3h0C3.53,15.12,3.28,15,3,15c-0.55,0-1,0.45-1,1c0,0.28,0.11,0.53,0.29,0.71l3,3
			C5.47,19.89,5.72,20,6,20c0.28,0,0.53-0.11,0.71-0.29v0l3-3v0C9.89,16.53,10,16.28,10,16C10,15.45,9.55,15,9,15z M15.7,13.67
			c-0.12,0.18-0.27,0.32-0.44,0.43c-0.17,0.11-0.37,0.19-0.58,0.23c-0.22,0.04-0.44,0.06-0.67,0.05v1.07h1.66V20H17v-6.99h-1.06
			C15.9,13.27,15.82,13.49,15.7,13.67z M18.85,3.37c-0.11-0.68-0.29-1.26-0.55-1.76c-0.26-0.5-0.62-0.89-1.08-1.18
			C16.75,0.14,16.17,0,15.46,0C14.92,0,14.43,0.09,14,0.27c-0.43,0.18-0.79,0.44-1.09,0.76c-0.3,0.33-0.52,0.71-0.67,1.15
			C12.08,2.62,12,3.1,12,3.61c0,0.54,0.08,1.04,0.23,1.47c0.15,0.44,0.37,0.81,0.65,1.12c0.28,0.31,0.61,0.55,1,0.72
			c0.39,0.17,0.82,0.26,1.3,0.26c0.46,0,0.88-0.11,1.26-0.33c0.38-0.22,0.68-0.53,0.9-0.94l0.03,0.03
			c-0.03,0.35-0.07,0.74-0.12,1.16c-0.05,0.42-0.15,0.81-0.29,1.18c-0.14,0.37-0.35,0.68-0.61,0.92c-0.26,0.25-0.62,0.37-1.06,0.37
			c-0.43,0-0.77-0.13-1.03-0.4c-0.25-0.27-0.4-0.62-0.44-1.05h-1.64c0.02,0.43,0.11,0.83,0.29,1.18c0.17,0.35,0.39,0.66,0.67,0.91
			c0.27,0.25,0.59,0.45,0.94,0.59c0.35,0.14,0.73,0.21,1.13,0.21c0.71,0,1.3-0.17,1.79-0.5c0.48-0.33,0.87-0.76,1.17-1.29
			c0.3-0.53,0.51-1.12,0.64-1.76c0.13-0.64,0.19-1.28,0.19-1.92C19.01,4.77,18.95,4.05,18.85,3.37z M17.1,4.44
			c-0.08,0.27-0.19,0.5-0.34,0.71c-0.15,0.21-0.34,0.37-0.57,0.49c-0.23,0.12-0.5,0.18-0.8,0.18c-0.3,0-0.56-0.06-0.78-0.19
			c-0.22-0.13-0.4-0.29-0.55-0.49c-0.14-0.2-0.25-0.44-0.32-0.7c-0.07-0.27-0.11-0.55-0.11-0.84c0-0.28,0.04-0.55,0.11-0.82
			c0.07-0.26,0.18-0.49,0.32-0.7c0.14-0.2,0.33-0.36,0.55-0.48c0.22-0.12,0.48-0.17,0.78-0.17c0.31,0,0.57,0.06,0.8,0.18
			c0.23,0.12,0.42,0.28,0.57,0.48c0.15,0.2,0.26,0.43,0.34,0.69c0.08,0.26,0.11,0.53,0.11,0.82C17.21,3.89,17.17,4.17,17.1,4.44z"/>
	</g>
</g>
</svg>
