<?xml version="1.0" encoding="utf-8"?>
<!-- Generator: Adobe Illustrator 18.0.0, SVG Export Plug-In . SVG Version: 6.00 Build 0)  -->
<svg version="1.1" id="Layer_1" xmlns="http://www.w3.org/2000/svg" xmlns:xlink="http://www.w3.org/1999/xlink" x="0px" y="0px"
	 viewBox="0 0 20 20" enable-background="new 0 0 20 20" xml:space="preserve">
<g id="sort_descending_1_">
	<g>
		<path fill-rule="evenodd" clip-rule="evenodd" d="M13,15h-3c-0.55,0-1,0.45-1,1v1c0,0.55,0.45,1,1,1h3c0.55,0,1-0.45,1-1v-1
			C14,15.45,13.55,15,13,15z M7,14c-0.28,0-0.53,0.11-0.71,0.29L5,15.59V10c0-0.55-0.45-1-1-1s-1,0.45-1,1v5.59l-1.29-1.29
			C1.53,14.11,1.28,14,1,14c-0.55,0-1,0.45-1,1c0,0.28,0.11,0.53,0.29,0.71l3,3C3.47,18.89,3.72,19,4,19s0.53-0.11,0.71-0.29l3-3
			C7.89,15.53,8,15.28,8,15C8,14.45,7.55,14,7,14z M19,0h-9C9.45,0,9,0.45,9,1v1c0,0.55,0.45,1,1,1h9c0.55,0,1-0.45,1-1V1
			C20,0.45,19.55,0,19,0z M15,10h-5c-0.55,0-1,0.45-1,1v1c0,0.55,0.45,1,1,1h5c0.55,0,1-0.45,1-1v-1C16,10.45,15.55,10,15,10z M17,5
			h-7C9.45,5,9,5.45,9,6v1c0,0.55,0.45,1,1,1h7c0.55,0,1-0.45,1-1V6C18,5.45,17.55,5,17,5z"/>
	</g>
</g>
</svg>
