<svg xmlns="http://www.w3.org/2000/svg" xml:space="preserve" viewBox="0 0 20 20"><path fill-rule="evenodd" d="M19 16h-9c-.55 0-1 .45-1 1v1c0 .55.45 1 1 1h9c.55 0 1-.45 1-1v-1c0-.55-.45-1-1-1zm0-5h-9c-.55 0-1 .45-1 1v1c0 .55.45 1 1 1h9c.55 0 1-.45 1-1v-1c0-.55-.45-1-1-1zM7 15c-.28 0-.53.11-.71.29L5 16.59V11c0-.55-.45-1-1-1s-1 .45-1 1v5.59L1.71 15.3A.965.965 0 0 0 1 15a1.003 1.003 0 0 0-.71 1.71l3 3c.18.18.43.29.71.29s.53-.11.71-.29l3-3A1.003 1.003 0 0 0 7 15zM19 1h-9c-.55 0-1 .45-1 1v1c0 .55.45 1 1 1h9c.55 0 1-.45 1-1V2c0-.55-.45-1-1-1zm0 5h-9c-.55 0-1 .45-1 1v1c0 .55.45 1 1 1h9c.55 0 1-.45 1-1V7c0-.55-.45-1-1-1z" clip-rule="evenodd"/></svg>