<?xml version="1.0" encoding="utf-8"?>
<!-- Generator: Adobe Illustrator 18.0.0, SVG Export Plug-In . SVG Version: 6.00 Build 0)  -->
<svg version="1.1" id="Layer_1" xmlns="http://www.w3.org/2000/svg" xmlns:xlink="http://www.w3.org/1999/xlink" x="0px" y="0px"
	 viewBox="0 0 20 20" enable-background="new 0 0 20 20" xml:space="preserve">
<g id="split_columns_3_">
	<g>
		<path fill-rule="evenodd" clip-rule="evenodd" d="M15,13c0,0.55,0.45,1,1,1c0.28,0,0.53-0.11,0.71-0.29l3-3
			C19.89,10.53,20,10.28,20,10c0-0.28-0.11-0.53-0.29-0.71l-3-3C16.53,6.11,16.28,6,16,6c-0.55,0-1,0.45-1,1
			c0,0.28,0.11,0.53,0.29,0.71L16.59,9H11V2h5v2c0.77,0,1.47,0.3,2,0.78V1c0-0.55-0.45-1-1-1H3C2.45,0,2,0.45,2,1v3.78
			C2.53,4.3,3.23,4,4,4V2h5v7H3.41l1.29-1.29C4.89,7.53,5,7.28,5,7c0-0.55-0.45-1-1-1C3.72,6,3.47,6.11,3.29,6.29l-3,3
			C0.11,9.47,0,9.72,0,10c0,0.28,0.11,0.53,0.29,0.71l3,3C3.47,13.89,3.72,14,4,14c0.55,0,1-0.45,1-1c0-0.28-0.11-0.53-0.29-0.71
			L3.41,11H9v7H4v-2c-0.77,0-1.47-0.3-2-0.78V19c0,0.55,0.45,1,1,1h14c0.55,0,1-0.45,1-1v-3.78C17.47,15.7,16.77,16,16,16v2h-5v-7
			h5.59l-1.29,1.29C15.11,12.47,15,12.72,15,13z"/>
	</g>
</g>
</svg>
