<?xml version="1.0" encoding="utf-8"?>
<!-- Generator: Adobe Illustrator 18.1.0, SVG Export Plug-In . SVG Version: 6.00 Build 0)  -->
<svg version="1.1" id="Layer_1" xmlns="http://www.w3.org/2000/svg" xmlns:xlink="http://www.w3.org/1999/xlink" x="0px" y="0px"
	 viewBox="0 0 20 20" enable-background="new 0 0 20 20" xml:space="preserve">
<g id="stacked_chart">
	<g>
		<path d="M12,2c0-0.55-0.45-1-1-1H9C8.45,1,8,1.45,8,2v4h4V2z M15,16h2c0.55,0,1-0.45,1-1v-5h-4v5C14,15.55,14.45,16,15,16z M18,6
			c0-0.55-0.45-1-1-1h-2c-0.55,0-1,0.45-1,1v3h4V6z M12,7H8v5h4V7z M3,16h2c0.55,0,1-0.45,1-1v-3H2v3C2,15.55,2.45,16,3,16z M19,17
			H1c-0.55,0-1,0.45-1,1c0,0.55,0.45,1,1,1h18c0.55,0,1-0.45,1-1C20,17.45,19.55,17,19,17z M6,9c0-0.55-0.45-1-1-1H3
			C2.45,8,2,8.45,2,9v2h4V9z M9,16h2c0.55,0,1-0.45,1-1v-2H8v2C8,15.55,8.45,16,9,16z"/>
	</g>
</g>
</svg>
