<?xml version="1.0" encoding="utf-8"?>
<!-- Generator: Adobe Illustrator 18.1.0, SVG Export Plug-In . SVG Version: 6.00 Build 0)  -->
<svg version="1.1" id="Layer_1" xmlns="http://www.w3.org/2000/svg" xmlns:xlink="http://www.w3.org/1999/xlink" x="0px" y="0px"
	 viewBox="0 0 20 20" enable-background="new 0 0 20 20" xml:space="preserve">
<g id="skip_forward_1_">
	<g>
		<path fill-rule="evenodd" clip-rule="evenodd" d="M15,3h-2c-0.55,0-1,0.45-1,1v4L5.6,3.2L5.59,3.21C5.42,3.09,5.23,3,5,3
			C4.45,3,4,3.45,4,4v12c0,0.55,0.45,1,1,1c0.23,0,0.42-0.09,0.59-0.21L5.6,16.8L12,12v4c0,0.55,0.45,1,1,1h2c0.55,0,1-0.45,1-1V4
			C16,3.45,15.55,3,15,3z"/>
	</g>
</g>
</svg>
