<?xml version="1.0" encoding="UTF-8"?>
<svg width="20px" height="20px" viewBox="0 0 20 20" version="1.1" xmlns="http://www.w3.org/2000/svg" xmlns:xlink="http://www.w3.org/1999/xlink">
    <!-- Generator: Sketch 56.3 (81716) - https://sketch.com -->
    <title>stopwatch-large</title>
    <desc>Created with Sketch.</desc>
    <g id="stopwatch-large" stroke="none" stroke-width="1" fill="none" fill-rule="evenodd">
        <path d="M10,6 C6.6862915,6 4,8.6862915 4,12 C4,15.3137085 6.6862915,18 10,18 C13.3137085,18 16,15.3137085 16,12 L10,12 L10,6 Z M9.00186997,4.0616608 C9.00062935,4.04126625 9,4.02070662 9,4 L9,2 L7,2 C6.44771525,2 6,1.55228475 6,1 C6,0.44771525 6.44771525,1.01453063e-16 7,0 L13,0 C13.5522847,-1.01453063e-16 14,0.44771525 14,1 C14,1.55228475 13.5522847,2 13,2 L11,2 L11,4 C11,4.02070662 10.9993706,4.04126625 10.99813,4.0616608 C14.9453469,4.55292845 18,7.91973799 18,12 C18,16.418278 14.418278,20 10,20 C5.581722,20 2,16.418278 2,12 C2,7.91973799 5.05465313,4.55292845 9.00186997,4.0616608 Z" id="Combined-Shape" fill="#000000"></path>
    </g>
</svg>