<svg xmlns="http://www.w3.org/2000/svg" xml:space="preserve" viewBox="0 0 20 20"><path fill-rule="evenodd" d="M18 9h-4.46a4.7 4.7 0 0 0-.4-.14c-.19-.05-.51-.14-.96-.25-.45-.11-.9-.23-1.37-.35-.47-.12-.89-.23-1.27-.33s-.6-.16-.65-.17c-.53-.15-.95-.37-1.27-.66-.32-.28-.49-.68-.49-1.19 0-.36.09-.66.26-.9s.39-.43.65-.57c.26-.14.55-.24.87-.3s.63-.09.93-.09c.89 0 1.63.19 2.21.57.45.3.75.76.89 1.38h2.63c-.06-.52-.2-.98-.42-1.4-.3-.57-.71-1.05-1.23-1.43a5.33 5.33 0 0 0-1.79-.87c-.7-.2-1.42-.3-2.19-.3-.66 0-1.31.08-1.96.25s-1.22.43-1.73.77-.92.79-1.23 1.32c-.31.52-.46 1.15-.46 1.87 0 .37.05.74.15 1.1.1.36.28.7.53 1.02.18.24.41.47.69.67H2c-.55 0-1 .45-1 1s.45 1 1 1h10.14c.02.01.05.02.07.02.3.11.58.29.84.55.25.26.38.67.38 1.21 0 .27-.06.53-.17.79-.11.26-.29.49-.54.69-.25.2-.57.36-.97.49s-.88.19-1.44.19c-.52 0-1.01-.06-1.45-.17-.45-.11-.84-.29-1.19-.54s-.61-.56-.8-.95c-.05-.08-.09-.18-.12-.28H4.11c.09.43.22.82.4 1.18.33.65.77 1.18 1.32 1.59.55.41 1.2.72 1.94.92.74.2 1.53.3 2.37.3.73 0 1.44-.08 2.14-.25.7-.17 1.33-.43 1.88-.79.55-.36.99-.83 1.33-1.39.34-.56.51-1.25.51-2.05 0-.37-.06-.75-.18-1.12a3.12 3.12 0 0 0-.15-.39H18c.55 0 1-.45 1-1s-.45-1-1-1z" clip-rule="evenodd"/></svg>