<?xml version="1.0" encoding="utf-8"?>
<!-- Generator: Adobe Illustrator 22.0.1, SVG Export Plug-In . SVG Version: 6.00 Build 0)  -->
<svg version="1.1" id="Layer_1" xmlns="http://www.w3.org/2000/svg" xmlns:xlink="http://www.w3.org/1999/xlink" x="0px" y="0px"
	 viewBox="0 0 20 20" enable-background="new 0 0 20 20" xml:space="preserve">
<g id="strikethrough_2_">
	<g>
		<path fill-rule="evenodd" clip-rule="evenodd" d="M18,9h-4.46c-0.13-0.05-0.26-0.1-0.4-0.14c-0.19-0.05-0.51-0.14-0.96-0.25
			c-0.45-0.11-0.9-0.23-1.37-0.35c-0.47-0.12-0.89-0.23-1.27-0.33S8.94,7.77,8.89,7.76C8.36,7.61,7.94,7.39,7.62,7.1
			C7.3,6.82,7.13,6.42,7.13,5.91c0-0.36,0.09-0.66,0.26-0.9c0.17-0.24,0.39-0.43,0.65-0.57C8.3,4.3,8.59,4.2,8.91,4.14
			s0.63-0.09,0.93-0.09c0.89,0,1.63,0.19,2.21,0.57c0.45,0.3,0.75,0.76,0.89,1.38h2.63c-0.06-0.52-0.2-0.98-0.42-1.4
			c-0.3-0.57-0.71-1.05-1.23-1.43c-0.52-0.39-1.11-0.68-1.79-0.87C11.43,2.1,10.71,2,9.94,2C9.28,2,8.63,2.08,7.98,2.25
			S6.76,2.68,6.25,3.02S5.33,3.81,5.02,4.34C4.71,4.86,4.56,5.49,4.56,6.21c0,0.37,0.05,0.74,0.15,1.1c0.1,0.36,0.28,0.7,0.53,1.02
			C5.42,8.57,5.65,8.8,5.93,9H2c-0.55,0-1,0.45-1,1c0,0.55,0.45,1,1,1h10.14c0.02,0.01,0.05,0.02,0.07,0.02
			c0.3,0.11,0.58,0.29,0.84,0.55c0.25,0.26,0.38,0.67,0.38,1.21c0,0.27-0.06,0.53-0.17,0.79c-0.11,0.26-0.29,0.49-0.54,0.69
			c-0.25,0.2-0.57,0.36-0.97,0.49c-0.4,0.13-0.88,0.19-1.44,0.19c-0.52,0-1.01-0.06-1.45-0.17c-0.45-0.11-0.84-0.29-1.19-0.54
			s-0.61-0.56-0.8-0.95C6.82,13.2,6.78,13.1,6.75,13H4.11c0.09,0.43,0.22,0.82,0.4,1.18c0.33,0.65,0.77,1.18,1.32,1.59
			c0.55,0.41,1.2,0.72,1.94,0.92c0.74,0.2,1.53,0.3,2.37,0.3c0.73,0,1.44-0.08,2.14-0.25c0.7-0.17,1.33-0.43,1.88-0.79
			c0.55-0.36,0.99-0.83,1.33-1.39C15.83,14,16,13.31,16,12.51c0-0.37-0.06-0.75-0.18-1.12c-0.04-0.13-0.09-0.26-0.15-0.39H18
			c0.55,0,1-0.45,1-1C19,9.45,18.55,9,18,9z"/>
	</g>
</g>
</svg>
