<?xml version="1.0" encoding="utf-8"?>
<!-- Generator: Adobe Illustrator 17.1.0, SVG Export Plug-In . SVG Version: 6.00 Build 0)  -->
<!DOCTYPE svg PUBLIC "-//W3C//DTD SVG 1.1//EN" "http://www.w3.org/Graphics/SVG/1.1/DTD/svg11.dtd">
<svg version="1.1" id="icon-style" xmlns="http://www.w3.org/2000/svg" xmlns:xlink="http://www.w3.org/1999/xlink" x="0px" y="0px"
	 viewBox="0 0 20 20" enable-background="new 0 0 20 20" xml:space="preserve">
<g id="Shape_4">
	<g>
		<path fill-rule="evenodd" clip-rule="evenodd" d="M18,18H2V2h12.3l2-2H3H1C0.4,0,0,0.4,0,1v18c0,0.6,0.4,1,1,1h18c0.6,0,1-0.4,1-1
			v-5V7.7l-2,2V18z M19.2,0l-7.6,7.6l2.8,2.8L20,4.8V0H19.2z M4,15.9c3.1,0.2,5.9,0.2,8.2-2c1.1-1.1,1.1-3,0-4.1
			C11.6,9.3,10.9,9,10.2,9S8.8,9.3,8.3,9.8C7.2,11,6.6,14.3,4,15.9z"/>
	</g>
</g>
</svg>
