<?xml version="1.0" encoding="utf-8"?>
<!-- Generator: Adobe Illustrator 18.0.0, SVG Export Plug-In . SVG Version: 6.00 Build 0)  -->
<svg version="1.1" id="Layer_1" xmlns="http://www.w3.org/2000/svg" xmlns:xlink="http://www.w3.org/1999/xlink" x="0px" y="0px"
	 viewBox="0 0 20 20" enable-background="new 0 0 20 20" xml:space="preserve">
<g id="swap:_vertical">
	<g>
		<path fill-rule="evenodd" clip-rule="evenodd" d="M9.71,5.3l-4-4C5.53,1.12,5.28,1.01,5,1.01c-0.28,0-0.53,0.11-0.71,0.29l-4,4
			C0.11,5.48,0,5.73,0,6.01c0,0.55,0.45,1,1,1c0.28,0,0.53-0.11,0.71-0.29L4,4.42V18c0,0.55,0.45,1,1,1c0.55,0,1-0.45,1-1V4.42
			l2.29,2.29C8.48,6.9,8.73,7.01,9,7.01c0.55,0,1-0.45,1-1C10,5.73,9.89,5.48,9.71,5.3z M10,3.98C10,3.99,10,3.99,10,3.98
			C10,4,10,4,10,4V3.98z M10,16.02C10,16.01,10,16.01,10,16.02C10,16,10,16,10,16V16.02z M19,12.99c-0.28,0-0.53,0.11-0.71,0.29
			L16,15.58V2c0-0.55-0.45-1-1-1c-0.55,0-1,0.45-1,1v13.58l-2.29-2.29c-0.18-0.18-0.43-0.29-0.71-0.29c-0.55,0-1,0.45-1,1
			c0,0.28,0.11,0.53,0.29,0.71l4,4c0.18,0.18,0.43,0.29,0.71,0.29c0.28,0,0.53-0.11,0.71-0.29l4-4c0.18-0.18,0.29-0.43,0.29-0.71
			C20,13.44,19.55,12.99,19,12.99z"/>
	</g>
</g>
</svg>
