<svg xmlns="http://www.w3.org/2000/svg" xml:space="preserve" viewBox="0 0 20 20"><path fill-rule="evenodd" d="M16.02 10c-.01 0-.01 0 0 0H16h.02zM2 6h13.58l-2.29 2.29a1 1 0 0 0-.3.71 1.003 1.003 0 0 0 1.71.71l4-4c.18-.18.29-.43.29-.71 0-.28-.11-.53-.29-.71l-4-4a1.003 1.003 0 0 0-1.42 1.42L15.58 4H2c-.55 0-1 .45-1 1s.45 1 1 1zm2 4h-.02H4zm14 4H4.42l2.29-2.29a1 1 0 0 0 .3-.71 1.003 1.003 0 0 0-1.71-.71l-4 4c-.18.18-.29.43-.29.71 0 .28.11.53.29.71l4 4a1.003 1.003 0 0 0 1.42-1.42L4.42 16H18c.55 0 1-.45 1-1s-.45-1-1-1z" clip-rule="evenodd"/></svg>