<?xml version="1.0" encoding="UTF-8"?>
<svg width="20px" height="20px" viewBox="0 0 20 20" version="1.1" xmlns="http://www.w3.org/2000/svg" xmlns:xlink="http://www.w3.org/1999/xlink">
    <g stroke="none" stroke-width="1" fill="none" fill-rule="evenodd">
        <path d="M12.2928932,2.29289322 L13.7071068,3.70710678 L6.57988494,10.8359627 C6.8478492,11.3308802 7,11.8976717 7,12.5 C7,14.4329966 5.43299662,16 3.5,16 C1.56700338,16 4.4408921e-15,14.4329966 4.4408921e-15,12.5 C4.4408921e-15,10.5670034 1.56700338,9 3.5,9 C4.10273608,9 4.6698873,9.1523569 5.16504246,9.42065949 L12.2928932,2.29289322 Z M16.5,9 C18.4329966,9 20,10.5670034 20,12.5 C20,14.4329966 18.4329966,16 16.5,16 C14.5670034,16 13,14.4329966 13,12.5 C13,10.5670034 14.5670034,9 16.5,9 Z M3.5,11 C2.67157288,11 2,11.6715729 2,12.5 C2,13.3284271 2.67157288,14 3.5,14 C4.32842712,14 5,13.3284271 5,12.5 C5,11.6715729 4.32842712,11 3.5,11 Z M16.5,11 C15.6715729,11 15,11.6715729 15,12.5 C15,13.3284271 15.6715729,14 16.5,14 C17.3284271,14 18,13.3284271 18,12.5 C18,11.6715729 17.3284271,11 16.5,11 Z" fill="#5C7080"></path>
    </g>
</svg>
