<?xml version="1.0" encoding="utf-8"?>
<!-- Generator: Adobe Illustrator 18.0.0, SVG Export Plug-In . SVG Version: 6.00 Build 0)  -->
<svg version="1.1" id="Layer_1" xmlns="http://www.w3.org/2000/svg" xmlns:xlink="http://www.w3.org/1999/xlink" x="0px" y="0px"
	 viewBox="0 0 20 20" enable-background="new 0 0 20 20" xml:space="preserve">
<g id="symbol_cross_2_">
	<g>
		<path fill-rule="evenodd" clip-rule="evenodd" d="M15,8.01h-3v-3c0-0.55-0.45-1-1-1H9c-0.55,0-1,0.45-1,1v3H5c-0.55,0-1,0.45-1,1
			v2c0,0.55,0.45,1,1,1h3v3c0,0.55,0.45,1,1,1h2c0.55,0,1-0.45,1-1v-3h3c0.55,0,1-0.45,1-1v-2C16,8.45,15.55,8.01,15,8.01z"/>
	</g>
</g>
</svg>
