<svg xmlns="http://www.w3.org/2000/svg" width="20" height="20"><path fill-rule="evenodd" d="M15.146.854a.5.5 0 0 1 .708-.708l4 4a.5.5 0 0 1-.708.708l-.646-.647L17.207 5.5l1.647 1.646a.5.5 0 0 1-.708.708l-.646-.647-1.146 1.146-7.5 7.5a.5.5 0 0 1-.708 0l-.646-.646-2.646 2.647a.5.5 0 0 1-.708 0l-.646-.647-2.646 2.647a.5.5 0 0 1-.708-.708L2.793 16.5l-.647-.646a.5.5 0 0 1 0-.708L4.793 12.5l-.647-.646a.5.5 0 0 1 0-.708l7.5-7.5L12.794 2.5l-.647-.646a.5.5 0 0 1 .708-.708L14.5 2.793 15.793 1.5l-.647-.646ZM12.707 4l.793-.793L16.793 6.5 16 7.293 12.707 4Zm2.586 4-.793.793-1.646-1.647a.5.5 0 0 0-.708.708L13.793 9.5 12.5 10.793l-1.646-1.647a.5.5 0 0 0-.708.708l1.647 1.646-1.293 1.293-1.646-1.647a.5.5 0 0 0-.708.708L9.793 13.5 8.5 14.793 5.207 11.5 12 4.707 15.293 8ZM3.207 15.5 5.5 13.207 6.793 14.5 4.5 16.793 3.207 15.5ZM16.5 2.207 17.793 3.5 16.5 4.793 15.207 3.5 16.5 2.207Z" clip-rule="evenodd"/></svg>