<?xml version="1.0" encoding="utf-8"?>
<!-- Generator: Adobe Illustrator 18.1.0, SVG Export Plug-In . SVG Version: 6.00 Build 0)  -->
<svg version="1.1" id="Layer_1" xmlns="http://www.w3.org/2000/svg" xmlns:xlink="http://www.w3.org/1999/xlink" x="0px" y="0px"
	 viewBox="0 0 20 20" enable-background="new 0 0 20 20" xml:space="preserve">
<g id="take_action">
	<g>
		<path fill-rule="evenodd" clip-rule="evenodd" d="M5,7c0.28,0,0.53-0.11,0.71-0.29l5-5C10.89,1.53,11,1.28,11,1c0-0.55-0.45-1-1-1
			C9.72,0,9.47,0.11,9.29,0.29l-5,5C4.11,5.47,4,5.72,4,6C4,6.55,4.45,7,5,7z M11,13c0,0.55,0.45,1,1,1c0.28,0,0.53-0.11,0.71-0.29
			l5-5C17.89,8.53,18,8.28,18,8c0-0.55-0.45-1-1-1c-0.28,0-0.53,0.11-0.71,0.29l-5,5C11.11,12.47,11,12.72,11,13z M19,18h-1
			c0-0.55-0.45-1-1-1h-7c-0.55,0-1,0.45-1,1H8c-0.55,0-1,0.45-1,1c0,0.55,0.45,1,1,1h11c0.55,0,1-0.45,1-1C20,18.45,19.55,18,19,18z
			 M10,12l6-6l-1.29-1.29C14.89,4.53,15,4.28,15,4c0-0.55-0.45-1-1-1c-0.28,0-0.53,0.11-0.71,0.29L12,2L6,8l1.29,1.29l-7,7
			C0.11,16.47,0,16.72,0,17c0,0.55,0.45,1,1,1c0.28,0,0.53-0.11,0.71-0.29l7-7L10,12z"/>
	</g>
</g>
</svg>
