<svg width="20" height="20" viewBox="0 0 20 20" xmlns="http://www.w3.org/2000/svg">
<path fill-rule="evenodd" clip-rule="evenodd" d="M3.95625 4.47C4.13899 4.17762 4.45946 4 4.80425 4H8H11.1958C11.5405 4 11.861 4.17762 12.0438 4.47L13 5.99999H18C18.5523 5.99999 19 6.44772 19 7C19 7.55228 18.5523 7.99999 18 7.99999H13V8.99998H17C18.6569 8.99998 20 10.3431 20 12C20 13.6568 18.6569 15 17 15H3C1.34315 15 0 13.6568 0 12C0 10.3431 1.34315 8.99998 3 8.99998L3 6.2868C3 6.09938 3.05267 5.91573 3.152 5.7568L3.95625 4.47ZM3 11H17C17.5523 11 18 11.4477 18 12C18 12.5523 17.5523 13 17 13H3C2.44772 13 2 12.5523 2 12C2 11.4477 2.44772 11 3 11Z"/>
</svg>
