<?xml version="1.0" encoding="utf-8"?>
<!-- Generator: Adobe Illustrator 18.0.0, SVG Export Plug-In . SVG Version: 6.00 Build 0)  -->
<svg version="1.1" id="Layer_1" xmlns="http://www.w3.org/2000/svg" xmlns:xlink="http://www.w3.org/1999/xlink" x="0px" y="0px"
	 viewBox="0 0 20 20" enable-background="new 0 0 20 20" xml:space="preserve">
<path id="taxi_3_" fill-rule="evenodd" clip-rule="evenodd" d="M19,9h-0.33L19,10v0.5c0,0.15-0.03,0.3-0.07,0.44l0.01,0L17,17.23
	v0.27c0,0.83-0.67,1.5-1.5,1.5S14,18.33,14,17.5V17H6v0.5C6,18.33,5.33,19,4.5,19C3.67,19,3,18.33,3,17.5v-0.27l-1.93-6.28l0.01,0
	C1.03,10.8,1,10.65,1,10.5V10c0,0,0.02-0.06,0.05-0.16C1.11,9.67,1.21,9.37,1.33,9H1C0.45,9,0,8.55,0,8c0-0.55,0.45-1,1-1h1
	c0.5-1.5,1-3,1-3H2.99l0-0.01c0.25-0.64,1-1.31,1.67-1.5c0,0,0.78-0.21,2.33-0.36V2V1c0-0.55,0.45-1,1-1h4c0.55,0,1,0.45,1,1v1v0.13
	c1.55,0.14,2.33,0.36,2.33,0.36c0.67,0.19,1.42,0.86,1.67,1.5l0,0.01H17l1,3h1c0.55,0,1,0.45,1,1C20,8.55,19.55,9,19,9z M3,11.5
	C3,12.33,3.67,13,4.5,13C5.33,13,6,12.33,6,11.5C6,10.67,5.33,10,4.5,10C3.67,10,3,10.67,3,11.5z M16,7l-1-3h-2v0H7v0H5L4,7v1h12V7z
	 M15.5,10c-0.83,0-1.5,0.67-1.5,1.5c0,0.83,0.67,1.5,1.5,1.5s1.5-0.67,1.5-1.5C17,10.67,16.33,10,15.5,10z"/>
</svg>
