<svg xmlns="http://www.w3.org/2000/svg" xml:space="preserve" viewBox="0 0 20 20"><path fill-rule="evenodd" d="M19 9h-.33l.33 1v.5c0 .15-.03.3-.07.44h.01L17 17.23v.27c0 .83-.67 1.5-1.5 1.5s-1.5-.67-1.5-1.5V17H6v.5c0 .83-.67 1.5-1.5 1.5S3 18.33 3 17.5v-.27l-1.93-6.28h.01c-.05-.15-.08-.3-.08-.45V10s.02-.06.05-.16c.06-.17.16-.47.28-.84H1c-.55 0-1-.45-1-1s.45-1 1-1h1l1-3h-.01v-.01c.25-.64 1-1.31 1.67-1.5 0 0 .78-.21 2.33-.36V1c0-.55.45-1 1-1h4c.55 0 1 .45 1 1v1.13c1.55.14 2.33.36 2.33.36.67.19 1.42.86 1.67 1.5V4H17l1 3h1c.55 0 1 .45 1 1s-.45 1-1 1zM3 11.5c0 .83.67 1.5 1.5 1.5S6 12.33 6 11.5 5.33 10 4.5 10 3 10.67 3 11.5zM16 7l-1-3H5L4 7v1h12V7zm-.5 3c-.83 0-1.5.67-1.5 1.5s.67 1.5 1.5 1.5 1.5-.67 1.5-1.5-.67-1.5-1.5-1.5z" clip-rule="evenodd"/></svg>