<?xml version="1.0" encoding="utf-8"?>
<!-- Generator: Adobe Illustrator 18.1.0, SVG Export Plug-In . SVG Version: 6.00 Build 0)  -->
<svg version="1.1" id="Layer_1" xmlns="http://www.w3.org/2000/svg" xmlns:xlink="http://www.w3.org/1999/xlink" x="0px" y="0px"
	 viewBox="0 0 20 20" enable-background="new 0 0 20 20" xml:space="preserve">
<g id="text_highlight">
	<g>
		<path fill-rule="evenodd" clip-rule="evenodd" d="M16,17c-0.55,0-1-0.45-1-1V4c0-0.55,0.45-1,1-1s1-0.45,1-1c0-0.55-0.45-1-1-1
			c-0.77,0-1.47,0.3-2,0.78C13.47,1.3,12.77,1,12,1c-0.55,0-1,0.45-1,1c0,0.55,0.45,1,1,1s1,0.45,1,1v12c0,0.55-0.45,1-1,1
			s-1,0.45-1,1c0,0.55,0.45,1,1,1c0.77,0,1.47-0.3,2-0.78C14.53,18.7,15.23,19,16,19c0.55,0,1-0.45,1-1C17,17.45,16.55,17,16,17z
			 M12,13H2V7h10V5H1C0.45,5,0,5.45,0,6v8c0,0.55,0.45,1,1,1h11V13z M19,5h-3v2h2v6h-2v2h3c0.55,0,1-0.45,1-1V6
			C20,5.45,19.55,5,19,5z"/>
	</g>
</g>
</svg>
