<svg xmlns="http://www.w3.org/2000/svg" width="20" height="18"><path fill-rule="evenodd" d="M8 0C3.58 0 0 3.58 0 8a8 8 0 0 0 5.856 7.71c.064-.057.129-.109.19-.156.278-.209.595-.383.896-.53.358-.174.81-.358 1.193-.515.206-.084.393-.16.534-.223a3.93 3.93 0 0 0 .203-.095 4.1 4.1 0 0 1-.305-.45C8.382 13.911 8.19 14 8 14c-.67 0-1.36-1.1-1.73-3h1.252c.047-.296.153-.571.323-.797l.01-.203H6.12C6.05 9.39 6 8.73 6 8s.05-1.39.12-2h3.76l.037.344c.315-.145.65-.242.979-.295L10.89 6h2.76c.027.077.052.155.076.233l.118-.04A3.62 3.62 0 0 1 14.998 6c.247 0 .51.028.772.086A8 8 0 0 0 8 0Zm5.17 5h-2.44c-.21-1.11-.51-2.03-.91-2.69 1.43.46 2.61 1.43 3.35 2.69ZM8 2c.67 0 1.36 1.1 1.73 3H6.27C6.64 3.1 7.33 2 8 2Zm-1.82.31c-.4.66-.71 1.58-.91 2.69H2.83a6.025 6.025 0 0 1 3.35-2.69ZM2 8c0-.7.13-1.37.35-2h2.76C5.04 6.62 5 7.28 5 8s.04 1.38.11 2H2.35C2.13 9.37 2 8.7 2 8Zm.83 3h2.44c.21 1.11.51 2.03.91 2.69A6.025 6.025 0 0 1 2.83 11Z" clip-rule="evenodd"/><path d="M13.917 15.209c.21.094.444.19.685.288.912.374 1.927.789 2.188 1.355.31.722.186 1.148.186 1.148H6.026s-.13-.426.186-1.148c.256-.584 1.305-1.011 2.234-1.39.22-.088.432-.175.626-.26.909-.4.923-.662.94-.978.002-.037.004-.076.008-.115l.003-.072c.002-.025.004-.049.004-.073a3.067 3.067 0 0 1-.839-1.237l-.007-.007a.024.024 0 0 0-.003-.01 1.757 1.757 0 0 1-.113-.347c-.234-.042-.372-.296-.427-.537a1.045 1.045 0 0 1-.137-.598c.034-.35.179-.509.337-.57v-.056c0-.44.034-1.065.117-1.478a2.508 2.508 0 0 1 .962-1.623c.426-.33 1.038-.501 1.58-.501.544 0 1.155.172 1.588.502a2.496 2.496 0 0 1 .963 1.622c.075.413.117 1.045.117 1.478v.062c.15.062.288.22.323.564.02.268-.083.502-.138.598-.048.234-.185.488-.42.537a2.635 2.635 0 0 1-.116.364 3.094 3.094 0 0 1-.818 1.224c0 .055 0 .11.007.158.004.048.006.095.007.14.011.311.02.57.907.96Z"/><path d="M14.976 14.57c-.24-.098-.455-.186-.65-.274l-.007-.003a3.801 3.801 0 0 1-.194-.091c.224-.288.41-.609.554-.946l.001-.002.013-.033c.018-.043.036-.087.052-.13l.011-.027.016-.04c.105-.092.19-.19.256-.284.129-.184.213-.38.265-.563.105-.226.225-.592.192-1.026l-.001-.011-.002-.011a1.855 1.855 0 0 0-.325-.91 9.924 9.924 0 0 0-.12-1.246 3.088 3.088 0 0 0-.106-.474l-.001-.007a3.543 3.543 0 0 0-.763-1.353c.27-.092.56-.139.83-.139.495 0 1.05.156 1.444.456a2.269 2.269 0 0 1 .875 1.475c.069.375.106.95.106 1.344v.056c.138.056.263.2.294.513.019.244-.075.456-.125.543-.044.213-.169.444-.381.488-.025.1-.056.206-.094.3a2.815 2.815 0 0 1-.756 1.144c0 .05 0 .1.006.144.004.043.006.086.007.127.01.283.018.518.824.873.192.086.404.172.623.262.83.34 1.752.717 1.99 1.231.28.657.168 1.044.168 1.044h-2.081a3.864 3.864 0 0 0-.188-.542l-.005-.013-.006-.012c-.183-.397-.491-.681-.76-.88a5.614 5.614 0 0 0-.896-.522 17.36 17.36 0 0 0-.916-.4l-.15-.061Z"/></svg>