<?xml version="1.0" encoding="utf-8"?>
<!-- Generator: Adobe Illustrator 18.1.0, SVG Export Plug-In . SVG Version: 6.00 Build 0)  -->
<svg version="1.1" id="Layer_1" xmlns="http://www.w3.org/2000/svg" xmlns:xlink="http://www.w3.org/1999/xlink" x="0px" y="0px"
	 viewBox="0 0 20 20" enable-background="new 0 0 20 20" xml:space="preserve">
<g id="thumbs_up_1_">
	<g>
		<path fill-rule="evenodd" clip-rule="evenodd" d="M3,9H0v8h3c0.55,0,1-0.45,1-1v-6C4,9.45,3.55,9,3,9z M19.99,12.09
			c-0.1-0.75-0.91-1.24-1.79-1.35c-0.19-0.02-0.4-0.05-0.61-0.06c0.07-0.01,0.14-0.01,0.2-0.02c0.88-0.1,1.53-0.61,1.44-1.35
			c-0.1-0.74-0.91-1.24-1.79-1.35c-0.42-0.05-0.9-0.09-1.42-0.12h0c0,0,0,0-0.01,0c-0.3-0.01-0.61-0.02-0.94-0.03
			c-0.6-0.02-1.39-0.05-1.99-0.1c-0.45-0.03-0.51-0.36-0.47-0.68c0.43-1.15,0.67-2.45,0.62-3.74c-0.04-1.11-0.74-2.17-1.75-2.28
			c-0.84-0.09-1.45,0.5-1.23,1.26C10.95,4.74,7.67,7.7,5,9.35v7.72c2.08,1.33,5.44,2.01,9.35,1.93c0.24,0,0.49-0.01,0.77-0.02
			c0.04,0,0.07,0,0.11,0l0,0c0.27-0.02,0.57-0.04,0.91-0.07c0.88-0.08,1.92-0.66,1.87-1.41c-0.04-0.65-0.5-1.01-1.09-1.2
			c0.34-0.03,0.67-0.05,0.99-0.08c0.89-0.08,1.55-0.58,1.46-1.33c-0.08-0.75-0.88-1.25-1.76-1.37c-0.03,0-0.06-0.01-0.09-0.01
			c0.37-0.02,0.71-0.04,1.02-0.06C19.45,13.4,20.09,12.84,19.99,12.09z"/>
	</g>
</g>
</svg>
