<svg xmlns="http://www.w3.org/2000/svg" xml:space="preserve" viewBox="0 0 20 20"><path fill-rule="evenodd" d="M18.55 6.56c-.31-.01-.65-.03-1.02-.06.03 0 .06-.01.09-.01.88-.12 1.68-.63 1.76-1.37.08-.75-.58-1.25-1.46-1.33-.32-.03-.65-.05-.99-.08.59-.19 1.05-.54 1.09-1.2.05-.75-.99-1.32-1.87-1.41-.34-.03-.64-.05-.91-.07h-.11c-.28-.02-.54-.02-.77-.02-3.92-.08-7.29.6-9.36 1.93v7.72c2.67 1.66 5.95 4.61 5.26 7.08-.21.76.39 1.35 1.23 1.26 1.01-.11 1.71-1.18 1.75-2.28.05-1.29-.19-2.59-.62-3.74-.05-.32.01-.65.47-.68.61-.04 1.39-.08 1.99-.1.32 0 .64-.01.94-.03h.01c.52-.03 1-.07 1.42-.12.88-.11 1.69-.6 1.79-1.35.1-.75-.55-1.25-1.44-1.35-.07-.01-.13-.02-.2-.02.21-.02.42-.04.61-.06.88-.11 1.69-.6 1.79-1.35.09-.75-.56-1.31-1.45-1.36zM3 3H0v8h3c.55 0 1-.45 1-1V4c0-.55-.45-1-1-1z" clip-rule="evenodd"/></svg>