<svg xmlns="http://www.w3.org/2000/svg" xml:space="preserve" viewBox="0 0 20 20"><path fill-rule="evenodd" d="M3 9H0v8h3c.55 0 1-.45 1-1v-6c0-.55-.45-1-1-1zm16.99 3.09c-.1-.75-.91-1.24-1.79-1.35-.19-.02-.4-.05-.61-.06.07-.01.14-.01.2-.02.88-.1 1.53-.61 1.44-1.35-.1-.74-.91-1.24-1.79-1.35-.42-.05-.9-.09-1.42-.12h-.01l-.94-.03c-.6-.02-1.39-.05-1.99-.1-.45-.03-.51-.36-.47-.68.43-1.15.67-2.45.62-3.74-.04-1.11-.74-2.17-1.75-2.28-.84-.09-1.45.5-1.23 1.26.7 2.47-2.58 5.43-5.25 7.08v7.72c2.08 1.33 5.44 2.01 9.35 1.93.24 0 .49-.01.77-.02h.11c.27-.02.57-.04.91-.07.88-.08 1.92-.66 1.87-1.41-.04-.65-.5-1.01-1.09-1.2.34-.03.67-.05.99-.08.89-.08 1.55-.58 1.46-1.33-.08-.75-.88-1.25-1.76-1.37-.03 0-.06-.01-.09-.01.37-.02.71-.04 1.02-.06.91-.05 1.55-.61 1.45-1.36z" clip-rule="evenodd"/></svg>