<?xml version="1.0" encoding="utf-8"?>
<!-- Generator: Adobe Illustrator 18.1.0, SVG Export Plug-In . SVG Version: 6.00 Build 0)  -->
<svg version="1.1" id="Layer_1" xmlns="http://www.w3.org/2000/svg" xmlns:xlink="http://www.w3.org/1999/xlink" x="0px" y="0px"
	 viewBox="0 0 20 20" enable-background="new 0 0 20 20" xml:space="preserve">
<g id="thumbs_down_1_">
	<g>
		<path fill-rule="evenodd" clip-rule="evenodd" d="M18.55,6.56c-0.31-0.01-0.65-0.03-1.02-0.06c0.03,0,0.06-0.01,0.09-0.01
			c0.88-0.12,1.68-0.63,1.76-1.37c0.08-0.75-0.58-1.25-1.46-1.33c-0.32-0.03-0.65-0.05-0.99-0.08c0.59-0.19,1.05-0.54,1.09-1.2
			c0.05-0.75-0.99-1.32-1.87-1.41c-0.34-0.03-0.64-0.05-0.91-0.07l0,0c-0.04,0-0.07,0-0.11,0c-0.28-0.02-0.54-0.02-0.77-0.02
			C10.44,0.93,7.07,1.61,5,2.94v7.72c2.67,1.66,5.95,4.61,5.26,7.08c-0.21,0.76,0.39,1.35,1.23,1.26c1.01-0.11,1.71-1.18,1.75-2.28
			c0.05-1.29-0.19-2.59-0.62-3.74c-0.05-0.32,0.01-0.65,0.47-0.68c0.61-0.04,1.39-0.08,1.99-0.1c0.32,0,0.64-0.01,0.94-0.03
			c0.01,0,0.01,0,0.01,0h0c0.52-0.03,1-0.07,1.42-0.12c0.88-0.11,1.69-0.6,1.79-1.35c0.1-0.75-0.55-1.25-1.44-1.35
			c-0.07-0.01-0.13-0.02-0.2-0.02c0.21-0.02,0.42-0.04,0.61-0.06c0.88-0.11,1.69-0.6,1.79-1.35C20.09,7.17,19.44,6.61,18.55,6.56z
			 M3,3H0v8h3c0.55,0,1-0.45,1-1V4C4,3.45,3.55,3,3,3z"/>
	</g>
</g>
</svg>
