<?xml version="1.0" encoding="utf-8"?>
<!-- Generator: Adobe Illustrator 17.1.0, SVG Export Plug-In . SVG Version: 6.00 Build 0)  -->
<!DOCTYPE svg PUBLIC "-//W3C//DTD SVG 1.1//EN" "http://www.w3.org/Graphics/SVG/1.1/DTD/svg11.dtd">
<svg version="1.1" id="Layer_1" xmlns="http://www.w3.org/2000/svg" xmlns:xlink="http://www.w3.org/1999/xlink" x="0px" y="0px"
	 viewBox="0 0 20 20" enable-background="new 0 0 20 20" xml:space="preserve">
<g id="timeline_line_chart_2_">
	<g>
		<path fill-rule="evenodd" clip-rule="evenodd" d="M19,16H2v-1.59l5-5l3.29,3.29C10.47,12.89,10.72,13,11,13s0.53-0.11,0.71-0.29
			l7-7C18.89,5.53,19,5.28,19,5c0-0.55-0.45-1-1-1c-0.28,0-0.53,0.11-0.71,0.29L11,10.59L7.71,7.29C7.53,7.11,7.28,7,7,7
			S6.47,7.11,6.29,7.29L2,11.59V3c0-0.55-0.45-1-1-1S0,2.45,0,3v14c0,0.14,0.03,0.27,0.08,0.39C0.23,17.75,0.59,18,1,18h18
			c0.55,0,1-0.45,1-1C20,16.45,19.55,16,19,16z"/>
	</g>
</g>
</svg>
