<?xml version="1.0" encoding="utf-8"?>
<!-- Generator: Adobe Illustrator 18.1.0, SVG Export Plug-In . SVG Version: 6.00 Build 0)  -->
<svg version="1.1" id="Layer_1" xmlns="http://www.w3.org/2000/svg" xmlns:xlink="http://www.w3.org/1999/xlink" x="0px" y="0px"
	 viewBox="0 0 20 20" enable-background="new 0 0 20 20" xml:space="preserve">
<g id="timeline_area_chart">
	<g>
		<path fill-rule="evenodd" clip-rule="evenodd" d="M19,16H2V3c0-0.55-0.45-1-1-1S0,2.45,0,3v14c0,0.55,0.45,1,1,1h18
			c0.55,0,1-0.45,1-1C20,16.45,19.55,16,19,16z M19,2.59l-7.07,7.07l-4.3-3.44L7.62,6.23C7.44,6.09,7.24,6,7,6
			C6.76,6,6.54,6.1,6.37,6.24c0,0-0.01-0.01-0.01-0.01L3,9.03V15h16V2.59z"/>
	</g>
</g>
</svg>
