<?xml version="1.0" encoding="utf-8"?>
<!-- Generator: Adobe Illustrator 17.1.0, SVG Export Plug-In . SVG Version: 6.00 Build 0)  -->
<!DOCTYPE svg PUBLIC "-//W3C//DTD SVG 1.1//EN" "http://www.w3.org/Graphics/SVG/1.1/DTD/svg11.dtd">
<svg version="1.1" id="Layer_1" xmlns="http://www.w3.org/2000/svg" xmlns:xlink="http://www.w3.org/1999/xlink" x="0px" y="0px"
	 viewBox="0 0 20 20" enable-background="new 0 0 20 20" xml:space="preserve">
<g id="Ellipse_2_copy_2">
	<g>
		<path fill-rule="evenodd" clip-rule="evenodd" d="M11,9.59V4c0-0.55-0.45-1-1-1S9,3.45,9,4v6c0,0.28,0.11,0.53,0.29,0.71l3,3
			C12.47,13.89,12.72,14,13,14c0.55,0,1-0.45,1-1c0-0.28-0.11-0.53-0.29-0.71L11,9.59z M10,0C4.48,0,0,4.48,0,10
			c0,5.52,4.48,10,10,10s10-4.48,10-10C20,4.48,15.52,0,10,0z M10,18c-4.42,0-8-3.58-8-8s3.58-8,8-8s8,3.58,8,8S14.42,18,10,18z"/>
	</g>
</g>
</svg>
