<?xml version="1.0" encoding="utf-8"?>
<!-- Generator: Adobe Illustrator 17.1.0, SVG Export Plug-In . SVG Version: 6.00 Build 0)  -->
<!DOCTYPE svg PUBLIC "-//W3C//DTD SVG 1.1//EN" "http://www.w3.org/Graphics/SVG/1.1/DTD/svg11.dtd">
<svg version="1.1" id="Layer_1" xmlns:sketch="http://www.bohemiancoding.com/sketch/ns"
	 xmlns="http://www.w3.org/2000/svg" xmlns:xlink="http://www.w3.org/1999/xlink" x="0px" y="0px" viewBox="0 0 20 20"
	 enable-background="new 0 0 20 20" xml:space="preserve">
<title>Shape</title>
<desc>Created with Sketch.</desc>
<g id="Page-1" sketch:type="MSPage">
	<g id="Artboard-1" transform="translate(-1.000000, -1.000000)" sketch:type="MSArtboardGroup">
		<path id="Shape" sketch:type="MSShapeGroup" d="M6,6c0.6,0,1-0.4,1-1V3c0-0.5-0.4-1-1-1S5,2.5,5,3v2C5,5.6,5.4,6,6,6L6,6z M16,6
			c0.6,0,1-0.4,1-1V3c0-0.5-0.4-1-1-1s-1,0.5-1,1v2C15,5.6,15.4,6,16,6L16,6z M7,15H5v2h2V15L7,15z M18,4v1c0,1.1-0.9,2-2,2
			s-2-0.9-2-2V4H8v1c0,1.1-0.9,2-2,2S4,6.1,4,5V4H3C2.5,4,2,4.5,2,5v14c0,0.5,0.5,1,1,1h16c0.5,0,1-0.5,1-1V5c0-0.5-0.5-1-1-1H18z
			 M8,18H4v-4h4V18L8,18z M8,13H4V9h4V13L8,13z M13,18H9v-4h4V18L13,18z M13,13H9V9h4V13L13,13z M18,18h-4v-4h4V18L18,18z M18,13h-4
			V9h4V13L18,13z M12,15h-2v2h2V15L12,15z M17,10h-2v2h2V10L17,10z"/>
	</g>
</g>
</svg>
