<?xml version="1.0" encoding="utf-8"?>
<!-- Generator: Adobe Illustrator 18.0.0, SVG Export Plug-In . SVG Version: 6.00 Build 0)  -->
<svg version="1.1" id="Layer_1" xmlns="http://www.w3.org/2000/svg" xmlns:xlink="http://www.w3.org/1999/xlink" x="0px" y="0px"
	 viewBox="0 0 20 20" enable-background="new 0 0 20 20" xml:space="preserve">
<path id="train_2_" fill-rule="evenodd" clip-rule="evenodd" d="M16,18h-2l2,2H4c0,0,0.05-0.05,0.12-0.12C4.56,19.44,6,18,6,18H4
	c-1.1,0-2-0.9-2-2V2c0-1.1,3.58-2,8-2s8,0.9,8,2l0,0v14C18,17.1,17.1,18,16,18z M5.5,15C6.33,15,7,14.33,7,13.5
	C7,12.67,6.33,12,5.5,12C4.67,12,4,12.67,4,13.5C4,14.33,4.67,15,5.5,15z M9,3H4v6h5V3z M16,3h-5v6h5V3z M14.5,12
	c-0.83,0-1.5,0.67-1.5,1.5c0,0.83,0.67,1.5,1.5,1.5c0.83,0,1.5-0.67,1.5-1.5C16,12.67,15.33,12,14.5,12z"/>
</svg>
