<?xml version="1.0" encoding="utf-8"?>
<!-- Generator: Adobe Illustrator 18.0.0, SVG Export Plug-In . SVG Version: 6.00 Build 0)  -->
<svg version="1.1" id="Layer_1" xmlns="http://www.w3.org/2000/svg" xmlns:xlink="http://www.w3.org/1999/xlink" x="0px" y="0px"
	 viewBox="0 0 20 20" enable-background="new 0 0 20 20" xml:space="preserve">
<g id="translate_1_">
	<g>
		<path fill-rule="evenodd" clip-rule="evenodd" d="M19.89,18.56L19.89,18.56l-4.99-10l-0.01,0C14.72,8.23,14.39,8,14,8
			s-0.72,0.23-0.89,0.56l-0.01,0l-1.73,3.46l-2.8-2.3l1.99-1.64l0,0C11.44,7.34,12,6.23,12,5V4h1c0.55,0,1-0.45,1-1
			c0-0.55-0.45-1-1-1H8V1c0-0.55-0.45-1-1-1S6,0.45,6,1v1H1C0.45,2,0,2.45,0,3c0,0.55,0.45,1,1,1h9v1c0,0.62-0.28,1.18-0.73,1.54
			l0,0L7,8.42L4.73,6.54l0,0C4.28,6.18,4,5.62,4,5H2c0,1.23,0.56,2.34,1.44,3.07l0,0l1.99,1.64l-3.06,2.52l0.01,0.01
			C2.15,12.42,2,12.69,2,13c0,0.55,0.45,1,1,1c0.24,0,0.45-0.1,0.63-0.24l0.01,0.01L7,11l3.36,2.77l0.01-0.01
			c0.02,0.02,0.05,0.03,0.08,0.05c0.01,0,0.01,0.01,0.02,0.02l-2.36,4.73l0.01,0C8.05,18.69,8,18.84,8,19c0,0.55,0.45,1,1,1
			c0.39,0,0.72-0.23,0.89-0.56l0.01,0L11.12,17h5.76l1.22,2.45l0.01,0C18.28,19.77,18.61,20,19,20c0.55,0,1-0.45,1-1
			C20,18.84,19.95,18.69,19.89,18.56z M12.12,15L14,11.24L15.88,15H12.12z"/>
	</g>
</g>
</svg>
