<svg xmlns="http://www.w3.org/2000/svg" xml:space="preserve" viewBox="0 0 20 20"><path fill-rule="evenodd" d="m19.89 18.56-4.99-10h-.01c-.17-.33-.5-.56-.89-.56s-.72.23-.89.56h-.01l-1.73 3.46-2.8-2.3 1.99-1.64C11.44 7.34 12 6.23 12 5V4h1c.55 0 1-.45 1-1s-.45-1-1-1H8V1c0-.55-.45-1-1-1S6 .45 6 1v1H1c-.55 0-1 .45-1 1s.45 1 1 1h9v1c0 .62-.28 1.18-.73 1.54L7 8.42 4.73 6.54C4.28 6.18 4 5.62 4 5H2c0 1.23.56 2.34 1.44 3.07l1.99 1.64-3.06 2.52.01.01c-.23.18-.38.45-.38.76 0 .55.45 1 1 1 .24 0 .45-.1.63-.24l.01.01L7 11l3.36 2.77.01-.01c.02.02.05.03.08.05.01 0 .01.01.02.02l-2.36 4.73h.01c-.07.13-.12.28-.12.44 0 .55.45 1 1 1 .39 0 .72-.23.89-.56h.01L11.12 17h5.76l1.22 2.45h.01c.17.32.5.55.89.55.55 0 1-.45 1-1 0-.16-.05-.31-.11-.44zM12.12 15 14 11.24 15.88 15h-3.76z" clip-rule="evenodd"/></svg>