<?xml version="1.0" encoding="utf-8"?>
<!-- Generator: Adobe Illustrator 17.1.0, SVG Export Plug-In . SVG Version: 6.00 Build 0)  -->
<!DOCTYPE svg PUBLIC "-//W3C//DTD SVG 1.1//EN" "http://www.w3.org/Graphics/SVG/1.1/DTD/svg11.dtd">
<svg version="1.1" id="Layer_1" xmlns="http://www.w3.org/2000/svg" xmlns:xlink="http://www.w3.org/1999/xlink" x="0px" y="0px"
	 viewBox="0 0 20 20" enable-background="new 0 0 20 20" xml:space="preserve">
<g id="trash_2_">
	<g>
		<path fill-rule="evenodd" clip-rule="evenodd" d="M17,1h-5c0-0.55-0.45-1-1-1H9C8.45,0,8,0.45,8,1H3C2.45,1,2,1.45,2,2v1h16V2
			C18,1.45,17.55,1,17,1z M17.5,4h-15C2.22,4,2,4.22,2,4.5C2,4.78,2.22,5,2.5,5H3v14c0,0.55,0.45,1,1,1h12c0.55,0,1-0.45,1-1V5h0.5
			C17.78,5,18,4.78,18,4.5C18,4.22,17.78,4,17.5,4z M7,16c0,0.55-0.45,1-1,1s-1-0.45-1-1V8c0-0.55,0.45-1,1-1s1,0.45,1,1V16z M11,16
			c0,0.55-0.45,1-1,1s-1-0.45-1-1V8c0-0.55,0.45-1,1-1s1,0.45,1,1V16z M15,16c0,0.55-0.45,1-1,1s-1-0.45-1-1V8c0-0.55,0.45-1,1-1
			s1,0.45,1,1V16z"/>
	</g>
</g>
</svg>
