<?xml version="1.0" encoding="utf-8"?>
<!-- Generator: Adobe Illustrator 18.0.0, SVG Export Plug-In . SVG Version: 6.00 Build 0)  -->
<svg version="1.1" id="Layer_1" xmlns="http://www.w3.org/2000/svg" xmlns:xlink="http://www.w3.org/1999/xlink" x="0px" y="0px"
	 viewBox="0 0 20 20" enable-background="new 0 0 20 20" xml:space="preserve">
<g id="trending_up_1_">
	<g>
		<path fill-rule="evenodd" clip-rule="evenodd" d="M19,4h-4c-0.55,0-1,0.45-1,1c0,0.55,0.45,1,1,1h1.77l-5.91,6.65L7.6,10.2
			l-0.01,0.01C7.42,10.09,7.23,10,7,10c-0.21,0-0.39,0.08-0.54,0.18l-0.01-0.02l-6,4l0.01,0.02C0.19,14.36,0,14.65,0,15
			c0,0.55,0.45,1,1,1c0.21,0,0.39-0.08,0.54-0.18l0.01,0.02l5.41-3.61l3.43,2.58l0.01-0.01C10.58,14.91,10.77,15,11,15
			c0.3,0,0.56-0.14,0.74-0.34l0.01,0.01L18,7.63V9c0,0.55,0.45,1,1,1s1-0.45,1-1V5C20,4.45,19.55,4,19,4z"/>
	</g>
</g>
</svg>
