<?xml version="1.0" encoding="utf-8"?>
<!-- Generator: Adobe Illustrator 17.1.0, SVG Export Plug-In . SVG Version: 6.00 Build 0)  -->
<!DOCTYPE svg PUBLIC "-//W3C//DTD SVG 1.1//EN" "http://www.w3.org/Graphics/SVG/1.1/DTD/svg11.dtd">
<svg version="1.1" id="Layer_1" xmlns="http://www.w3.org/2000/svg" xmlns:xlink="http://www.w3.org/1999/xlink" x="0px" y="0px"
	 viewBox="0 0 20 20" enable-background="new 0 0 20 20" xml:space="preserve">
<g id="switch_to_2_columns_2_">
	<g>
		<path fill-rule="evenodd" clip-rule="evenodd" d="M5,0H1C0.45,0,0,0.45,0,1v18c0,0.55,0.45,1,1,1h4c0.55,0,1-0.45,1-1V1
			C6,0.45,5.55,0,5,0z M19.71,9.29l-3-3C16.53,6.11,16.28,6,16,6c-0.55,0-1,0.45-1,1v6c0,0.55,0.45,1,1,1
			c0.28,0,0.53-0.11,0.71-0.29l3-3C19.89,10.53,20,10.28,20,10C20,9.72,19.89,9.47,19.71,9.29z M12,0H8C7.45,0,7,0.45,7,1v18
			c0,0.55,0.45,1,1,1h4c0.55,0,1-0.45,1-1V1C13,0.45,12.55,0,12,0z"/>
	</g>
</g>
</svg>
