<?xml version="1.0" encoding="UTF-8"?>
<svg viewBox="0 0 20 20" version="1.1" xmlns="http://www.w3.org/2000/svg" xmlns:xlink="http://www.w3.org/1999/xlink">
    <title>unarchive 20</title>
    <g stroke="none" stroke-width="1" fill="none" fill-rule="evenodd">
        <path d="M16.4338096,0 C16.7850725,2.73772263e-15 17.1105793,0.184298834 17.2913025,0.485504245 L20,5 L20,19 C20,19.5522847 19.5522847,20 19,20 L1,20 C0.44771525,20 6.76353751e-17,19.5522847 0,19 L0,5 L2.70869745,0.485504245 C2.8894207,0.184298834 3.21492753,-1.57518666e-16 3.56619038,0 L16.4338096,0 Z M10,8 C9.72,8 9.47,8.11 9.29,8.29 L9.29,8.29 L6.29,11.29 L6.20601852,11.3856481 C6.07638889,11.5541667 6,11.7666667 6,12 C6,12.55 6.45,13 7,13 C7.28,13 7.53,12.89 7.71,12.71 L7.71,12.71 L9,11.41 L9,15.99 L9.0067602,16.106199 C9.06479592,16.6019898 9.48928571,16.99 10,16.99 C10.55,16.99 11,16.54 11,15.99 L11,15.99 L11,11.41 L12.29,12.7 L12.371312,12.7732945 C12.5420408,12.9118367 12.76,13 13,13 C13.55,13 14,12.55 14,12 C14,11.72 13.89,11.47 13.71,11.29 L13.71,11.29 L10.71,8.29 L10.6143519,8.20601852 C10.4458333,8.07638889 10.2333333,8 10,8 Z M16,2 L4,2 L2,5.00162374 L18,5.00162374 L16,2 Z" id="Combined-Shape" fill="#000000"></path>
    </g>
</svg>
