<svg xmlns="http://www.w3.org/2000/svg" xml:space="preserve" viewBox="0 0 20 20"><path fill-rule="evenodd" d="M13 11.988v-4H4v-1l1-3h6V2.003a35.867 35.867 0 0 0-1-.015c-3.593 0-5.332.488-5.332.488-.67.188-1.424.864-1.674 1.503l-.004.009H3l-1 3H1a1 1 0 1 0 0 2h.333l-.28.84-.053.16v7.5a1.5 1.5 0 1 0 3 0v-.5h12v.5a1.5 1.5 0 1 0 3 0v-4.5h-5a1 1 0 0 1-1-1zm-8.5 1a1.5 1.5 0 1 1 0-3 1.5 1.5 0 0 1 0 3zM19.83 2.782a2.392 2.392 0 0 0-.592-.853c-.276-.264-.64-.485-1.09-.663C17.695 1.09 17.132 1 16.457 1c-.523 0-.996.084-1.418.253a3.157 3.157 0 0 0-1.084.703c-.299.3-.532.656-.698 1.065-.166.41-.254.861-.264 1.353h2.096c0-.246.028-.476.085-.69.057-.214.145-.4.264-.56.119-.16.27-.287.456-.383.185-.095.406-.143.663-.143.38 0 .677.1.89.3.215.2.321.51.321.93.01.245-.035.45-.135.614-.1.164-.23.314-.392.45a8.598 8.598 0 0 1-.527.41 3.53 3.53 0 0 0-.542.485c-.171.187-.32.412-.45.676-.127.265-.206.592-.234.984v.614h1.924v-.519c.038-.273.13-.5.278-.683.147-.182.316-.343.506-.484a13.5 13.5 0 0 1 .606-.424c.214-.14.408-.312.584-.512s.323-.442.442-.724.178-.642.178-1.079c0-.264-.059-.548-.178-.854zm-4.54 6.099v2.103h2.237V8.881H15.29z" clip-rule="evenodd"/></svg>