<?xml version="1.0" encoding="utf-8"?>
<!-- Generator: Adobe Illustrator 18.0.0, SVG Export Plug-In . SVG Version: 6.00 Build 0)  -->
<svg version="1.1" id="Layer_1" xmlns="http://www.w3.org/2000/svg" xmlns:xlink="http://www.w3.org/1999/xlink" x="0px" y="0px"
	 viewBox="0 0 20 20" enable-background="new 0 0 20 20" xml:space="preserve">
<g id="unknown_vehicle_1_">
	<g>
		<path fill-rule="evenodd" clip-rule="evenodd" d="M13,11.9884033V7.9880371H4v-1L5,3.987915h6V2.0032349
			c-0.3163452-0.008728-0.6456299-0.0147705-1-0.0147705c-3.5925903,0-5.3320312,0.4876099-5.3320312,0.4876099
			C3.9973755,2.6641235,3.2440186,3.34021,2.9937134,3.9787598L2.9901123,3.987915H3c0,0-0.5,1.5001831-1,3.0001221H1
			c-0.5523071,0-1,0.4476929-1,1c0,0.5522461,0.4476929,1.000061,1,1.000061h0.333313
			c-0.1235962,0.3709106-0.2233887,0.670105-0.2800903,0.84021C1.0189819,9.9312134,1,9.9880981,1,9.9880981v7.5002441
			c0,0.8284302,0.6715698,1.500061,1.5,1.500061c0.8283691,0,1.5-0.6716309,1.5-1.500061v-0.5h12v0.5
			c0,0.8284302,0.6715698,1.500061,1.5,1.500061c0.8283691,0,1.5-0.6716309,1.5-1.500061v-4.499939h-5
			C13.4476929,12.9884033,13,12.5407104,13,11.9884033z M4.5,12.9882202c-0.8284302,0-1.5-0.6716309-1.5-1.500061
			s0.6715698-1.500061,1.5-1.500061c0.8283691,0,1.5,0.6716309,1.5,1.500061S5.3283691,12.9882202,4.5,12.9882202z
			 M19.8292847,2.7824097c-0.1189575-0.3049316-0.3161011-0.5894165-0.5916138-0.8536377
			c-0.2756958-0.2640381-0.6392212-0.4848633-1.0904541-0.6624146C17.6957397,1.0887451,17.1326904,1,16.4580688,1
			c-0.5227661,0-0.9956055,0.0842896-1.418335,0.2526855c-0.4229736,0.1685791-0.7839966,0.4028931-1.083313,0.7033691
			c-0.2993774,0.3005371-0.5323486,0.6556396-0.6984863,1.0653687c-0.1663818,0.40979-0.2543945,0.8605347-0.2637329,1.3522339
			h2.0953979c0-0.2458496,0.0285034-0.475708,0.0855713-0.6897583c0.0570068-0.2138672,0.1447754-0.4005737,0.2636719-0.5599976
			c0.1187134-0.1592407,0.270874-0.2868652,0.4561768-0.3824463c0.1853027-0.0956421,0.40625-0.1434326,0.6628418-0.1434326
			c0.3799438,0,0.677063,0.1003418,0.8908691,0.3004761c0.2138062,0.2004395,0.3207397,0.5100708,0.3207397,0.928833
			c0.0093384,0.2458496-0.0356445,0.4506836-0.135437,0.614624c-0.0997314,0.1638794-0.2305298,0.3141479-0.3919678,0.4507446
			c-0.1616821,0.1365356-0.3374634,0.2731323-0.5274048,0.409729c-0.1902466,0.1365967-0.3706665,0.2983398-0.541687,0.4848633
			c-0.1710815,0.1867676-0.3207397,0.4121094-0.4490356,0.6760864c-0.1282959,0.2642212-0.206665,0.592041-0.2351685,0.9834595
			v0.614624h1.9243164v-0.519043c0.0379028-0.2731934,0.1305542-0.5006714,0.2780151-0.6829224
			c0.1472168-0.1820679,0.3157959-0.3436279,0.5059814-0.4848633c0.1900024-0.1411133,0.3920288-0.2821655,0.605835-0.4234619
			c0.2138672-0.1410522,0.4085083-0.3117676,0.5844727-0.512146c0.1757202-0.2001953,0.322937-0.4415894,0.4418945-0.723938
			c0.1187134-0.2821045,0.1781616-0.6419067,0.1781616-1.0790405C20.0074463,3.3720703,19.947998,3.0875854,19.8292847,2.7824097z
			 M15.2891846,8.8809814v2.1033936h2.2379761V8.8809814H15.2891846z"/>
	</g>
</g>
</svg>
