<?xml version="1.0" encoding="utf-8"?>
<!-- Generator: Adobe Illustrator 17.1.0, SVG Export Plug-In . SVG Version: 6.00 Build 0)  -->
<!DOCTYPE svg PUBLIC "-//W3C//DTD SVG 1.1//EN" "http://www.w3.org/Graphics/SVG/1.1/DTD/svg11.dtd">
<svg version="1.1" id="Layer_1" xmlns="http://www.w3.org/2000/svg" xmlns:xlink="http://www.w3.org/1999/xlink" x="0px" y="0px"
	 viewBox="0 0 20 20" enable-background="new 0 0 20 20" xml:space="preserve">
<g id="unlock_1_">
	<g>
		<path d="M14,1c-2.21,0-4,1.79-4,4v4H2c-0.55,0-1,0.45-1,1v8c0,0.55,0.45,1,1,1h12c0.55,0,1-0.45,1-1v-8c0-0.55-0.45-1-1-1h-2V5
			c0-1.1,0.9-2,2-2s2,0.9,2,2v2c0,0.55,0.45,1,1,1s1-0.45,1-1V5C18,2.79,16.21,1,14,1z"/>
	</g>
</g>
</svg>
