<svg xmlns="http://www.w3.org/2000/svg" xml:space="preserve" viewBox="0 0 20 20"><path fill-rule="evenodd" d="M11.47 12.46c.16-.36.29-.74.38-1.14 0-.02.01-.04.01-.06.09-.4.14-.82.14-1.26 0-.44-.05-.86-.14-1.27 0-.02-.01-.04-.01-.06-.09-.4-.22-.78-.38-1.14-.01-.02-.02-.03-.02-.05a5.94 5.94 0 0 0-.61-1.03c0-.01-.01-.01-.01-.02a6.308 6.308 0 0 0-2.1-1.77c-.19-.1-.39-.18-.59-.26-.03-.01-.06-.02-.1-.03-.17-.07-.34-.12-.52-.17-.05-.01-.1-.03-.15-.04a4.34 4.34 0 0 0-.52-.09c-.05-.01-.11-.02-.17-.03C6.46 4.02 6.23 4 6 4c-3.31 0-6 2.69-6 6s2.69 6 6 6c.23 0 .46-.02.68-.04l.17-.03c.17-.02.34-.06.51-.09.05-.01.1-.03.15-.04.18-.05.36-.1.53-.17l.09-.03a5.973 5.973 0 0 0 2.68-2.04c0-.01.01-.01.01-.02.24-.32.44-.66.61-1.03.02-.01.03-.03.04-.05zM14 4c-.99 0-1.91.24-2.73.66a7.51 7.51 0 0 1 0 10.68c.82.42 1.74.66 2.73.66 3.31 0 6-2.69 6-6s-2.69-6-6-6z" clip-rule="evenodd"/></svg>