<?xml version="1.0" encoding="utf-8"?>
<!-- Generator: Adobe Illustrator 17.1.0, SVG Export Plug-In . SVG Version: 6.00 Build 0)  -->
<!DOCTYPE svg PUBLIC "-//W3C//DTD SVG 1.1//EN" "http://www.w3.org/Graphics/SVG/1.1/DTD/svg11.dtd">
<svg version="1.1" id="Layer_1" xmlns="http://www.w3.org/2000/svg" xmlns:xlink="http://www.w3.org/1999/xlink" x="0px" y="0px"
	 viewBox="0 0 20 20" enable-background="new 0 0 20 20" xml:space="preserve">
<g id="unresolve">
	<g>
		<path fill-rule="evenodd" clip-rule="evenodd" d="M11.47,12.46c0.16-0.36,0.29-0.74,0.38-1.14c0-0.02,0.01-0.04,0.01-0.06
			C11.95,10.86,12,10.44,12,10c0-0.44-0.05-0.86-0.14-1.27c0-0.02-0.01-0.04-0.01-0.06c-0.09-0.4-0.22-0.78-0.38-1.14
			c-0.01-0.02-0.02-0.03-0.02-0.05c-0.17-0.36-0.37-0.71-0.61-1.03c0-0.01-0.01-0.01-0.01-0.02C10.27,5.7,9.56,5.09,8.73,4.66
			c0,0,0,0,0,0c0,0,0,0,0,0C8.54,4.56,8.34,4.48,8.14,4.4C8.11,4.39,8.08,4.38,8.04,4.37C7.87,4.3,7.7,4.25,7.52,4.2
			c-0.05-0.01-0.1-0.03-0.15-0.04C7.2,4.12,7.03,4.09,6.85,4.07C6.8,4.06,6.74,4.05,6.68,4.04C6.46,4.02,6.23,4,6,4
			c-3.31,0-6,2.69-6,6s2.69,6,6,6c0.23,0,0.46-0.02,0.68-0.04c0.06-0.01,0.11-0.02,0.17-0.03c0.17-0.02,0.34-0.06,0.51-0.09
			c0.05-0.01,0.1-0.03,0.15-0.04c0.18-0.05,0.36-0.1,0.53-0.17c0.03-0.01,0.06-0.02,0.09-0.03c1.08-0.41,2.01-1.13,2.68-2.04
			c0-0.01,0.01-0.01,0.01-0.02c0.24-0.32,0.44-0.66,0.61-1.03C11.45,12.5,11.46,12.48,11.47,12.46z M14,4
			c-0.99,0-1.91,0.24-2.73,0.66C12.64,6.02,13.5,7.91,13.5,10c0,2.09-0.86,3.98-2.23,5.34C12.09,15.76,13.01,16,14,16
			c3.31,0,6-2.69,6-6C20,6.69,17.31,4,14,4z"/>
	</g>
</g>
</svg>
