<?xml version="1.0" encoding="utf-8"?>
<!-- Generator: Adobe Illustrator 18.1.0, SVG Export Plug-In . SVG Version: 6.00 Build 0)  -->
<svg version="1.1" id="Layer_1" xmlns="http://www.w3.org/2000/svg" xmlns:xlink="http://www.w3.org/1999/xlink" x="0px" y="0px"
	 viewBox="0 0 20 20" enable-background="new 0 0 20 20" xml:space="preserve">
<g id="upload_1_">
	<g>
		<path fill-rule="evenodd" clip-rule="evenodd" d="M10,0C4.48,0,0,4.48,0,10c0,5.52,4.48,10,10,10s10-4.48,10-10
			C20,4.48,15.52,0,10,0z M14,10c-0.28,0-0.53-0.11-0.71-0.29L11,7.41V15c0,0.55-0.45,1-1,1s-1-0.45-1-1V7.41L6.71,9.71
			C6.53,9.89,6.28,10,6,10c-0.55,0-1-0.45-1-1c0-0.28,0.11-0.53,0.29-0.71l4-4C9.47,4.11,9.72,4,10,4s0.53,0.11,0.71,0.29l4,4
			C14.89,8.47,15,8.72,15,9C15,9.55,14.55,10,14,10z"/>
	</g>
</g>
</svg>
