<svg xmlns="http://www.w3.org/2000/svg" xml:space="preserve" viewBox="0 0 20 20"><path fill-rule="evenodd" d="M10 0C4.48 0 0 4.48 0 10c0 .33.02.65.05.97.01.12.03.23.05.35.03.2.05.4.09.59.03.14.06.28.1.42l.12.48c.05.16.1.31.15.46.05.13.09.27.15.4.06.16.13.32.21.48.05.11.1.22.16.33.09.17.17.34.27.5.05.09.1.17.15.25.11.18.22.35.34.52.04.06.08.11.12.17 1.19 1.62 2.85 2.86 4.78 3.53l.09.03c.46.15.93.27 1.42.36.08.01.17.03.25.04.49.07.99.12 1.5.12s1.01-.05 1.5-.12c.08-.01.17-.02.25-.04.49-.09.96-.21 1.42-.36l.09-.03c1.93-.67 3.59-1.91 4.78-3.53.04-.05.08-.1.12-.16.12-.17.23-.35.34-.53.05-.08.1-.16.15-.25.1-.17.19-.34.27-.51.05-.11.1-.21.15-.32.07-.16.14-.32.21-.49.05-.13.1-.26.14-.39.05-.15.11-.31.15-.46.05-.16.08-.32.12-.48.03-.14.07-.28.1-.42.04-.19.06-.39.09-.59.02-.12.04-.23.05-.35.05-.32.07-.64.07-.97 0-5.52-4.48-10-10-10zm0 18a7.94 7.94 0 0 1-6.15-2.89c.84-.44 1.86-.82 2.67-1.19 1.45-.65 1.3-1.05 1.35-1.59.01-.07.01-.14.01-.21-.51-.45-.93-1.08-1.2-1.8l-.01-.01c0-.01-.01-.02-.01-.03a4.42 4.42 0 0 1-.15-.48c-.33-.07-.53-.44-.61-.79-.08-.14-.23-.48-.2-.87.05-.51.26-.74.49-.83v-.08c0-.63.06-1.55.17-2.15.02-.17.06-.33.11-.5.21-.73.66-1.4 1.26-1.86.62-.47 1.5-.72 2.28-.72.78 0 1.65.25 2.27.73.6.46 1.05 1.12 1.26 1.86.05.16.08.33.11.5.11.6.17 1.51.17 2.15v.09c.22.1.42.33.46.82.04.39-.12.73-.2.87-.07.34-.27.71-.6.78-.04.16-.09.33-.15.48 0 .01-.02.05-.02.05-.26.71-.67 1.33-1.17 1.78 0 .08.01.16.01.23.05.54-.15.94 1.31 1.59.81.36 1.84.74 2.68 1.19A7.958 7.958 0 0 1 10 18z" clip-rule="evenodd"/></svg>