<svg xmlns="http://www.w3.org/2000/svg" xml:space="preserve" viewBox="0 0 20 20"><path fill-rule="evenodd" d="M4.93 3.79a9.1 9.1 0 0 1 2.2-2.27L7.29 1c-1.38.59-2.57 1.33-3.55 2.22C2.46 4.39 1.49 5.72.83 7.23.28 8.51 0 9.81 0 11.12c0 2.28.83 4.57 2.49 6.86l.16-.55c-.49-1.23-.73-2.38-.73-3.44 0-1.67.28-3.46.84-5.36.55-1.9 1.28-3.51 2.17-4.84zm9.38 8.39-.33-.2c-.37.54-.65.87-.82 1a.74.74 0 0 1-.42.12c-.19 0-.38-.12-.57-.37-.31-.42-.73-1.59-1.26-3.5.47-.85.86-1.41 1.19-1.67.23-.19.48-.29.74-.29.1 0 .28.04.53.11.26.07.48.11.68.11.27 0 .5-.1.68-.29.18-.19.27-.44.27-.75 0-.33-.09-.58-.27-.77-.18-.19-.44-.29-.78-.29-.3 0-.59.07-.86.22s-.61.47-1.02.97c-.31.37-.77 1.02-1.37 1.94a9.683 9.683 0 0 0-1.24-3.14l-3.24.59-.06.36c.24-.05.44-.07.61-.07.32 0 .59.14.8.43.33.45.8 1.8 1.39 4.07-.47.64-.78 1.06-.96 1.26-.28.32-.52.53-.7.62-.14.08-.3.11-.48.11-.14 0-.36-.08-.67-.23-.21-.1-.4-.15-.57-.15-.31 0-.57.11-.78.32s-.31.48-.31.8c0 .31.09.55.28.75.19.19.44.29.76.29.31 0 .6-.07.87-.2s.61-.42 1.02-.86c.41-.44.98-1.13 1.7-2.08.28.9.52 1.56.72 1.97.2.41.44.71.7.89.26.18.59.27.99.27.38 0 .77-.14 1.17-.43.54-.36 1.07-1 1.61-1.91zM17.51 1l-.15.54c.49 1.24.73 2.39.73 3.45 0 1.43-.21 2.96-.63 4.6-.33 1.26-.75 2.45-1.27 3.55-.52 1.11-1.02 1.97-1.51 2.6-.49.62-1.09 1.2-1.8 1.72l-.17.53c1.38-.59 2.57-1.34 3.55-2.23 1.29-1.17 2.26-2.5 2.91-4 .55-1.28.83-2.59.83-3.91 0-2.27-.83-4.56-2.49-6.85z" clip-rule="evenodd"/></svg>