<?xml version="1.0" encoding="utf-8"?>
<!-- Generator: Adobe Illustrator 18.0.0, SVG Export Plug-In . SVG Version: 6.00 Build 0)  -->
<svg version="1.1" id="Layer_1" xmlns="http://www.w3.org/2000/svg" xmlns:xlink="http://www.w3.org/1999/xlink" x="0px" y="0px"
	 viewBox="0 0 20 20" enable-background="new 0 0 20 20" xml:space="preserve">
<g id="variable">
	<g>
		<path fill-rule="evenodd" clip-rule="evenodd" d="M4.93,3.79c0.58-0.86,1.31-1.62,2.2-2.27L7.29,1C5.91,1.59,4.72,2.33,3.74,3.22
			c-1.28,1.17-2.25,2.5-2.91,4.01C0.28,8.51,0,9.81,0,11.12c0,2.28,0.83,4.57,2.49,6.86l0.16-0.55c-0.49-1.23-0.73-2.38-0.73-3.44
			c0-1.67,0.28-3.46,0.84-5.36C3.31,6.73,4.04,5.12,4.93,3.79z M14.31,12.18l-0.33-0.2c-0.37,0.54-0.65,0.87-0.82,1
			c-0.12,0.08-0.26,0.12-0.42,0.12c-0.19,0-0.38-0.12-0.57-0.37c-0.31-0.42-0.73-1.59-1.26-3.5c0.47-0.85,0.86-1.41,1.19-1.67
			c0.23-0.19,0.48-0.29,0.74-0.29c0.1,0,0.28,0.04,0.53,0.11c0.26,0.07,0.48,0.11,0.68,0.11c0.27,0,0.5-0.1,0.68-0.29
			c0.18-0.19,0.27-0.44,0.27-0.75c0-0.33-0.09-0.58-0.27-0.77c-0.18-0.19-0.44-0.29-0.78-0.29c-0.3,0-0.59,0.07-0.86,0.22
			c-0.27,0.15-0.61,0.47-1.02,0.97c-0.31,0.37-0.77,1.02-1.37,1.94c-0.24-1.14-0.65-2.19-1.24-3.14L6.22,5.97L6.16,6.33
			C6.4,6.28,6.6,6.26,6.77,6.26c0.32,0,0.59,0.14,0.8,0.43c0.33,0.45,0.8,1.8,1.39,4.07C8.49,11.4,8.18,11.82,8,12.02
			c-0.28,0.32-0.52,0.53-0.7,0.62c-0.14,0.08-0.3,0.11-0.48,0.11c-0.14,0-0.36-0.08-0.67-0.23c-0.21-0.1-0.4-0.15-0.57-0.15
			c-0.31,0-0.57,0.11-0.78,0.32s-0.31,0.48-0.31,0.8c0,0.31,0.09,0.55,0.28,0.75c0.19,0.19,0.44,0.29,0.76,0.29
			c0.31,0,0.6-0.07,0.87-0.2c0.27-0.13,0.61-0.42,1.02-0.86c0.41-0.44,0.98-1.13,1.7-2.08c0.28,0.9,0.52,1.56,0.72,1.97
			c0.2,0.41,0.44,0.71,0.7,0.89c0.26,0.18,0.59,0.27,0.99,0.27c0.38,0,0.77-0.14,1.17-0.43C13.24,13.73,13.77,13.09,14.31,12.18z
			 M17.51,1l-0.15,0.54c0.49,1.24,0.73,2.39,0.73,3.45c0,1.43-0.21,2.96-0.63,4.6c-0.33,1.26-0.75,2.45-1.27,3.55
			c-0.52,1.11-1.02,1.97-1.51,2.6c-0.49,0.62-1.09,1.2-1.8,1.72l-0.17,0.53c1.38-0.59,2.57-1.34,3.55-2.23
			c1.29-1.17,2.26-2.5,2.91-4C19.72,10.48,20,9.17,20,7.85C20,5.58,19.17,3.29,17.51,1z"/>
	</g>
</g>
</svg>
