<?xml version="1.0" encoding="UTF-8"?>
<svg width="20px" height="20px" viewBox="0 0 20 20" version="1.1" xmlns="http://www.w3.org/2000/svg" xmlns:xlink="http://www.w3.org/1999/xlink">
    <!-- Generator: Sketch 64 (93537) - https://sketch.com -->
    <title>virus - 20px</title>
    <desc>Created with Sketch.</desc>
    <g id="virus---20px" stroke="none" stroke-width="1" fill="none" fill-rule="evenodd">
        <g id="pt-icon-virus" transform="translate(0.000000, -0.500000)" fill="#000000" fill-rule="nonzero">
            <path d="M15.2488141,14.3348056 L16.5,15.586 L16.8535534,15.232233 L16.9407742,15.1545267 C17.3332919,14.8437012 17.9051373,14.8696033 18.267767,15.232233 C18.6582912,15.6227573 18.6582912,16.2559223 18.267767,16.6464466 L18.267767,16.6464466 L16.1464466,18.767767 L16.0592258,18.8454733 C15.6667081,19.1562988 15.0948627,19.1303967 14.732233,18.767767 C14.3417088,18.3772427 14.3417088,17.7440777 14.732233,17.3535534 L14.732233,17.3535534 L15.086,17 L13.8348056,15.7488141 C13.0147029,16.3490047 12.0486872,16.7616382 10.9999071,16.9235662 L10.999,18.5 L11.5,18.5 C12.0522847,18.5 12.5,18.9477153 12.5,19.5 C12.5,20.0128358 12.1139598,20.4355072 11.6166211,20.4932723 L11.5,20.5 L8.5,20.5 C7.94771525,20.5 7.5,20.0522847 7.5,19.5 C7.5,18.9871642 7.88604019,18.5644928 8.38337887,18.5067277 L8.5,18.5 L8.999,18.5 L8.99909108,16.9234114 C8.07414876,16.7804556 7.21360162,16.4425004 6.46077269,15.9528689 L5.414,17 L5.76776695,17.3535534 C6.15829124,17.7440777 6.15829124,18.3772427 5.76776695,18.767767 C5.40513725,19.1303967 4.83329186,19.1562988 4.4407742,18.8454733 L4.35355339,18.767767 L2.23223305,16.6464466 C1.84170876,16.2559223 1.84170876,15.6227573 2.23223305,15.232233 C2.59486275,14.8696033 3.16670814,14.8437012 3.5592258,15.1545267 L3.64644661,15.232233 L4,15.586 L4.96953525,14.6166674 C4.26310493,13.7544473 3.77398454,12.7073174 3.58582526,11.5589291 L3.56066017,11.5606602 L2,11.56 L2,12 C2,12.5522847 1.55228475,13 1,13 C0.487164161,13 0.0644928393,12.6139598 0.00672773133,12.1166211 L2.22044605e-16,12 L0,9 C0,8.44771525 0.44771525,8 1,8 C1.51283584,8 1.93550716,8.38604019 1.99327227,8.88337887 L2,9 L2,9.56 L3.56742773,9.56029508 C3.74049169,8.36515941 4.23873148,7.2753013 4.96953525,6.3833326 L3.999,5.414 L3.64644661,5.76776695 L3.5592258,5.84547332 C3.16670814,6.15629877 2.59486275,6.13039665 2.23223305,5.76776695 C1.84170876,5.37724266 1.84170876,4.74407768 2.23223305,4.35355339 L2.23223305,4.35355339 L4.35355339,2.23223305 L4.4407742,2.15452668 C4.83329186,1.84370123 5.40513725,1.86960335 5.76776695,2.23223305 C6.15829124,2.62275734 6.15829124,3.25592232 5.76776695,3.64644661 L5.76776695,3.64644661 L5.414,3.999 L6.46077269,5.04713115 C7.21387342,4.55732284 8.07477015,4.21930041 9.00009292,4.07643383 L9,2.5 L8.5,2.5 C7.94771525,2.5 7.5,2.05228475 7.5,1.5 C7.5,0.987164161 7.88604019,0.564492839 8.38337887,0.506727731 L8.5,0.5 L11.5,0.5 C12.0522847,0.5 12.5,0.94771525 12.5,1.5 C12.5,2.01283584 12.1139598,2.43550716 11.6166211,2.49327227 L11.5,2.5 L11,2.5 L11.0009089,4.07658859 C12.0505847,4.23882279 13.0173261,4.65219603 13.8378133,5.25338842 L13.8786797,5.20710678 L15.085,3.999 L14.732233,3.64644661 C14.3417088,3.25592232 14.3417088,2.62275734 14.732233,2.23223305 C15.0948627,1.86960335 15.6667081,1.84370123 16.0592258,2.15452668 L16.1464466,2.23223305 L18.267767,4.35355339 C18.6582912,4.74407768 18.6582912,5.37724266 18.267767,5.76776695 C17.9051373,6.13039665 17.3332919,6.15629877 16.9407742,5.84547332 L16.8535534,5.76776695 L16.5,5.414 L15.2928932,6.62132034 L15.2466116,6.66218669 C15.8279129,7.45552719 16.2336178,8.38560411 16.4064859,9.3951769 L18,9.395 L18,9 C18,8.44771525 18.4477153,8 19,8 C19.5128358,8 19.9355072,8.38604019 19.9932723,8.88337887 L20,9 L20,12 C20,12.5522847 19.5522847,13 19,13 C18.4871642,13 18.0644928,12.6139598 18.0067277,12.1166211 L18,12 L18,11.395 L16.4387968,11.3956569 C16.2887071,12.4846774 15.86884,13.4875998 15.2488141,14.3348056 Z M12.5,11.5 C11.6715729,11.5 11,12.1715729 11,13 C11,13.8284271 11.6715729,14.5 12.5,14.5 C13.3284271,14.5 14,13.8284271 14,13 C14,12.1715729 13.3284271,11.5 12.5,11.5 Z M8,6.5 C6.8954305,6.5 6,7.3954305 6,8.5 C6,9.6045695 6.8954305,10.5 8,10.5 C9.1045695,10.5 10,9.6045695 10,8.5 C10,7.3954305 9.1045695,6.5 8,6.5 Z" id="Combined-Shape"></path>
        </g>
    </g>
</svg>