<?xml version="1.0" encoding="utf-8"?>
<!-- Generator: Adobe Illustrator 18.1.0, SVG Export Plug-In . SVG Version: 6.00 Build 0)  -->
<svg version="1.1" id="Layer_1" xmlns="http://www.w3.org/2000/svg" xmlns:xlink="http://www.w3.org/1999/xlink" x="0px" y="0px"
	 viewBox="0 0 20 20" enable-background="new 0 0 20 20" xml:space="preserve">
<g id="volume_down_1_">
	<g>
		<path fill-rule="evenodd" clip-rule="evenodd" d="M15.92,3.93l-1.6,1.18C15.37,6.46,16,8.16,16,10c0,1.84-0.63,3.54-1.68,4.89
			l1.6,1.18C17.22,14.39,18,12.29,18,10C18,7.71,17.22,5.61,15.92,3.93z M11,3c-0.28,0-0.53,0.11-0.71,0.29L7.59,6H3
			C2.45,6,2,6.45,2,7v6c0,0.55,0.45,1,1,1h4.59l2.71,2.71C10.47,16.89,10.72,17,11,17c0.55,0,1-0.45,1-1V4C12,3.45,11.55,3,11,3z"/>
	</g>
</g>
</svg>
