<?xml version="1.0" encoding="utf-8"?>
<!-- Generator: Adobe Illustrator 18.1.0, SVG Export Plug-In . SVG Version: 6.00 Build 0)  -->
<svg version="1.1" id="Layer_1" xmlns="http://www.w3.org/2000/svg" xmlns:xlink="http://www.w3.org/1999/xlink" x="0px" y="0px"
	 viewBox="0 0 20 20" enable-background="new 0 0 20 20" xml:space="preserve">
<g id="volume_up_1_">
	<g>
		<path fill-rule="evenodd" clip-rule="evenodd" d="M9,3.43c-0.28,0-0.53,0.11-0.71,0.29L5.59,6.43H1c-0.55,0-1,0.45-1,1v6
			c0,0.55,0.45,1,1,1h4.59l2.71,2.71c0.18,0.18,0.43,0.29,0.71,0.29c0.55,0,1-0.45,1-1v-12C10,3.88,9.55,3.43,9,3.43z M17.31,1.87
			l-1.62,1.2C17.14,5.16,18,7.69,18,10.43c0,2.74-0.86,5.27-2.31,7.37l1.62,1.2C19,16.57,20,13.62,20,10.43
			C20,7.25,19,4.3,17.31,1.87z M13.92,4.36l-1.6,1.18C13.37,6.89,14,8.59,14,10.43c0,1.84-0.63,3.54-1.68,4.89l1.6,1.18
			c1.29-1.68,2.08-3.78,2.08-6.07C16,8.15,15.22,6.05,13.92,4.36z"/>
	</g>
</g>
</svg>
