<svg xmlns="http://www.w3.org/2000/svg" xml:space="preserve" viewBox="0 0 20 20"><path fill-rule="evenodd" d="M16 10h-2c-.23 0-.42-.09-.59-.21l-.01.01-1.69-1.27-.63 3.14 2.62 2.62c.19.18.3.43.3.71v4c0 .55-.45 1-1 1s-1-.45-1-1v-3.59L9.39 12.8l-2.45 6.55h-.01c-.14.38-.5.65-.93.65-.55 0-1-.45-1-1 0-.12.03-.24.07-.35h-.01L9.43 7h-2.9l-1.7 2.55-.01-.01c-.18.27-.47.46-.82.46-.55 0-1-.45-1-1 0-.21.08-.39.18-.54l-.01-.01 2-3 .02.01C5.36 5.19 5.65 5 6 5h4.18l.36-.96c-.33-.43-.54-.96-.54-1.54a2.5 2.5 0 0 1 5 0A2.5 2.5 0 0 1 12.5 5c-.06 0-.12-.01-.18-.02l-.44 1.18L14.33 8H16c.55 0 1 .45 1 1s-.45 1-1 1z" clip-rule="evenodd"/></svg>