<?xml version="1.0" encoding="utf-8"?>
<!-- Generator: Adobe Illustrator 18.0.0, SVG Export Plug-In . SVG Version: 6.00 Build 0)  -->
<svg version="1.1" id="Layer_1" xmlns="http://www.w3.org/2000/svg" xmlns:xlink="http://www.w3.org/1999/xlink" x="0px" y="0px"
	 viewBox="0 0 20 20" enable-background="new 0 0 20 20" xml:space="preserve">
<path id="walk_1_" fill-rule="evenodd" clip-rule="evenodd" d="M16,10h-2c-0.23,0-0.42-0.09-0.59-0.21L13.4,9.8l-1.69-1.27
	l-0.63,3.14l2.62,2.62l0,0C13.89,14.47,14,14.72,14,15v4c0,0.55-0.45,1-1,1c-0.55,0-1-0.45-1-1v-3.59l-2.61-2.61l-2.45,6.55l-0.01,0
	C6.79,19.73,6.43,20,6,20c-0.55,0-1-0.45-1-1c0-0.12,0.03-0.24,0.07-0.35l-0.01,0L9.43,7h-2.9l-1.7,2.55L4.82,9.54
	C4.64,9.81,4.35,10,4,10c-0.55,0-1-0.45-1-1c0-0.21,0.08-0.39,0.18-0.54L3.17,8.45l2-3l0.02,0.01C5.36,5.19,5.65,5,6,5h4.18
	l0.36-0.96C10.21,3.61,10,3.08,10,2.5C10,1.12,11.12,0,12.5,0S15,1.12,15,2.5S13.88,5,12.5,5c-0.06,0-0.12-0.01-0.18-0.02
	l-0.44,1.18L14.33,8H16c0.55,0,1,0.45,1,1C17,9.55,16.55,10,16,10z"/>
</svg>
