<svg xmlns="http://www.w3.org/2000/svg" width="20" height="20"><path fill-rule="evenodd" d="M4.948 2.682a1 1 0 0 0-1.897.001l-.005.016-.027.074a6.05 6.05 0 0 1-.6 1.172C1.958 4.635 1.468 5 .999 5a1 1 0 0 0 0 2c1.457 0 2.442-1.027 3-1.825C4.558 5.973 5.543 7 7 7s2.442-1.027 3-1.825C10.558 5.973 11.543 7 13 7s2.442-1.027 3-1.825C16.558 5.973 17.544 7 19 7a1 1 0 1 0 0-2c-.47 0-.958-.365-1.418-1.055a6.048 6.048 0 0 1-.628-1.246l-.006-.016a1 1 0 0 0-1.896 0l-.006.016a5.868 5.868 0 0 1-.147.364c-.11.246-.272.568-.481.882C13.958 4.635 13.469 5 13 5c-.47 0-.958-.365-1.418-1.055a6.048 6.048 0 0 1-.628-1.246l-.006-.016a1 1 0 0 0-1.897 0l-.005.016-.027.074a6.05 6.05 0 0 1-.6 1.172C7.958 4.635 7.468 5 6.999 5c-.47 0-.958-.365-1.418-1.055A6.05 6.05 0 0 1 4.954 2.7l-.006-.016v-.001Zm0 6a1 1 0 0 0-1.897.001l-.005.016-.027.074a6.05 6.05 0 0 1-.6 1.172c-.46.69-.95 1.055-1.419 1.055a1 1 0 1 0 0 2c1.457 0 2.442-1.027 3-1.825C4.558 11.973 5.543 13 7 13s2.442-1.027 3-1.825c.558.798 1.543 1.825 3 1.825s2.442-1.027 3-1.825c.558.798 1.544 1.825 3 1.825a1 1 0 1 0 0-2c-.47 0-.958-.365-1.418-1.055a6.048 6.048 0 0 1-.628-1.246l-.006-.016a1 1 0 0 0-1.896 0l-.006.016a5.868 5.868 0 0 1-.147.364c-.11.246-.272.568-.481.882-.46.69-.949 1.055-1.418 1.055-.47 0-.958-.365-1.418-1.055a6.048 6.048 0 0 1-.628-1.246l-.006-.016a1 1 0 0 0-1.897 0l-.005.016-.027.074a6.05 6.05 0 0 1-.6 1.172c-.46.69-.95 1.055-1.419 1.055-.47 0-.958-.365-1.418-1.055A6.05 6.05 0 0 1 4.954 8.7l-.006-.016Zm-1.896-6Zm1.896 12 .006.017.027.074a6.053 6.053 0 0 0 .6 1.172c.46.69.95 1.055 1.419 1.055.47 0 .958-.365 1.418-1.055a6.053 6.053 0 0 0 .628-1.246l.005-.016a1 1 0 0 1 1.897 0l.006.016.027.074a6.051 6.051 0 0 0 .6 1.172c.46.69.95 1.055 1.419 1.055.47 0 .958-.365 1.418-1.055a6.051 6.051 0 0 0 .628-1.246l.006-.016a1 1 0 0 1 1.896 0l.006.016.027.074a6.051 6.051 0 0 0 .6 1.172c.46.69.95 1.055 1.419 1.055a1 1 0 1 1 0 2c-1.456 0-2.442-1.027-3-1.825-.558.798-1.543 1.825-3 1.825s-2.442-1.027-3-1.825C9.442 17.973 8.457 19 7 19s-2.442-1.027-3-1.825C3.442 17.973 2.457 19 1 19a1 1 0 1 1 0-2c.47 0 .958-.365 1.418-1.055a6.053 6.053 0 0 0 .628-1.246l.005-.016a1 1 0 0 1 1.897-.001Z" clip-rule="evenodd"/></svg>