<svg width="20" height="20" viewBox="0 0 20 20" fill="none" xmlns="http://www.w3.org/2000/svg">
<path fill-rule="evenodd" clip-rule="evenodd" d="M12 6C12 4.34315 13.3431 3 15 3C16.6569 3 18 4.34315 18 6C18 7.65685 16.6569 9 15 9H4C3.44772 9 3 9.44772 3 10C3 10.5523 3.44772 11 4 11H15C17.7614 11 20 8.76142 20 6C20 3.23858 17.7614 1 15 1C12.2386 1 10 3.23858 10 6C10 6.55228 10.4477 7 11 7C11.5523 7 12 6.55228 12 6ZM1 12C0.447715 12 0 12.4477 0 13C0 13.5523 0.447715 14 1 14H11C12.1046 14 13 14.8954 13 16C13 17.1046 12.1046 18 11 18C10.0663 18 9.19708 17.3861 8.94284 16.6668C8.75879 16.146 8.18747 15.8731 7.66675 16.0572C7.14604 16.2412 6.87311 16.8125 7.05716 17.3332C7.62659 18.9443 9.32124 20 11 20C13.2091 20 15 18.2091 15 16C15 13.7909 13.2091 12 11 12H1Z" fill="#5C7080"/>
</svg>
