<?xml version="1.0" encoding="utf-8"?>
<!-- Generator: Adobe Illustrator 18.0.0, SVG Export Plug-In . SVG Version: 6.00 Build 0)  -->
<svg version="1.1" id="Layer_1" xmlns="http://www.w3.org/2000/svg" xmlns:xlink="http://www.w3.org/1999/xlink" x="0px" y="0px"
	 viewBox="0 0 20 20" enable-background="new 0 0 20 20" xml:space="preserve">
<g id="zoom_to_fit_1_">
	<g>
		<path fill-rule="evenodd" clip-rule="evenodd" d="M1,7c0.55,0,1-0.45,1-1V2h4c0.55,0,1-0.45,1-1c0-0.55-0.45-1-1-1H1
			C0.45,0,0,0.45,0,1v5C0,6.55,0.45,7,1,7z M6,8c0-0.55-0.45-1-1-1C4.72,7,4.47,7.11,4.29,7.29l-2,2C2.11,9.47,2,9.72,2,10
			c0,0.28,0.11,0.53,0.29,0.71l2,2C4.47,12.89,4.72,13,5,13c0.55,0,1-0.45,1-1c0-0.28-0.11-0.53-0.29-0.71L4.41,10l1.29-1.29
			C5.89,8.53,6,8.28,6,8z M8,6c0.28,0,0.53-0.11,0.71-0.29L10,4.41l1.29,1.29C11.47,5.89,11.72,6,12,6c0.55,0,1-0.45,1-1
			c0-0.28-0.11-0.53-0.29-0.71l-2-2C10.53,2.11,10.28,2,10,2S9.47,2.11,9.29,2.29l-2,2C7.11,4.47,7,4.72,7,5C7,5.55,7.45,6,8,6z
			 M6,18H2v-4c0-0.55-0.45-1-1-1s-1,0.45-1,1v5c0,0.55,0.45,1,1,1h5c0.55,0,1-0.45,1-1C7,18.45,6.55,18,6,18z M14,12
			c0,0.55,0.45,1,1,1c0.28,0,0.53-0.11,0.71-0.29l2-2C17.89,10.53,18,10.28,18,10c0-0.28-0.11-0.53-0.29-0.71l-2-2
			C15.53,7.11,15.28,7,15,7c-0.55,0-1,0.45-1,1c0,0.28,0.11,0.53,0.29,0.71L15.59,10l-1.29,1.29C14.11,11.47,14,11.72,14,12z M19,0
			h-5c-0.55,0-1,0.45-1,1c0,0.55,0.45,1,1,1h4v4c0,0.55,0.45,1,1,1s1-0.45,1-1V1C20,0.45,19.55,0,19,0z M12,14
			c-0.28,0-0.53,0.11-0.71,0.29L10,15.59l-1.29-1.29C8.53,14.11,8.28,14,8,14c-0.55,0-1,0.45-1,1c0,0.28,0.11,0.53,0.29,0.71l2,2
			C9.47,17.89,9.72,18,10,18s0.53-0.11,0.71-0.29l2-2C12.89,15.53,13,15.28,13,15C13,14.45,12.55,14,12,14z M19,13
			c-0.55,0-1,0.45-1,1v4h-4c-0.55,0-1,0.45-1,1c0,0.55,0.45,1,1,1h5c0.55,0,1-0.45,1-1v-5C20,13.45,19.55,13,19,13z"/>
	</g>
</g>
</svg>
