<svg xmlns="http://www.w3.org/2000/svg" width="17" height="18" fill="none" viewBox="0 0 17 18"><path fill="#fff" d="M16.3929 0C16.2411 0 16.0893 0.0642857 15.9679 0.192857L11.5357 4.88571V3.21429C11.5357 1.44643 10.1696 0 8.5 0C6.83036 0 5.46429 1.44643 5.46429 3.21429V9.64286C5.46429 10.125 5.58571 10.575 5.7375 10.9929L4.82679 11.9571C4.43214 11.2821 4.21964 10.4786 4.21964 9.64286V7.71429C4.21964 7.36071 3.94643 7.07143 3.6125 7.07143C3.27857 7.07143 3.00536 7.36071 3.00536 7.71429V9.64286C3.00536 10.8321 3.33929 11.9571 3.94643 12.8893L0.182143 16.9071C0.0607143 17.0036 0 17.1643 0 17.3571C0 17.7107 0.273214 18 0.607143 18C0.789286 18 0.941071 17.9357 1.03214 17.8071L11.2929 6.94286C11.3232 6.91071 11.3839 6.87857 11.4143 6.81429L16.8179 1.09286C16.9393 0.996429 17 0.803571 17 0.642857C17 0.289286 16.7268 0 16.3929 0ZM13.3571 7.07143C13.0232 7.07143 12.75 7.36071 12.75 7.71429V9.64286C12.75 12.1179 10.8982 14.1107 8.56071 14.1429C8.53036 14.1429 8.5 14.1429 8.46964 14.1429C8.43929 14.1429 8.40893 14.1429 8.40893 14.1429C7.92321 14.1429 7.4375 14.0464 7.0125 13.8857C6.95179 13.8536 6.86071 13.8536 6.8 13.8536C6.46607 13.8536 6.19286 14.1429 6.19286 14.4964C6.19286 14.7857 6.375 15.0107 6.61786 15.1071C7.0125 15.2679 7.4375 15.3643 7.89286 15.4286V16.7143H6.07143C5.7375 16.7143 5.46429 17.0036 5.46429 17.3571C5.46429 17.7107 5.7375 18 6.07143 18H8.40893C8.43929 18 8.46964 18 8.5 18C8.53036 18 8.56071 18 8.59107 18H10.9286C11.2625 18 11.5357 17.7107 11.5357 17.3571C11.5357 17.0036 11.2625 16.7143 10.9286 16.7143H9.10714V15.3964C11.8393 15.075 13.9643 12.6321 13.9643 9.64286V7.71429C13.9643 7.36071 13.6911 7.07143 13.3571 7.07143Z"/></svg>