<svg xmlns="http://www.w3.org/2000/svg" width="56" height="50" fill="none"><mask id="a" fill="#fff"><path d="M0 12a3 3 0 0 0 3 3h50a3 3 0 0 0 3-3V0H0v12Z"/></mask><path fill="#E3E8EF" d="M-1 12a4 4 0 0 0 4 4h50a4 4 0 0 0 4-4h-2a2 2 0 0 1-2 2H3a2 2 0 0 1-2-2h-2ZM56 0H0h56ZM-1 0v12a4 4 0 0 0 4 4v-2a2 2 0 0 1-2-2V0h-2Zm54 16a4 4 0 0 0 4-4V0h-2v12a2 2 0 0 1-2 2v2Z" mask="url(#a)"/><rect width="55.5" height=".5" x=".25" y="24.25" stroke="#CC3D00" stroke-width=".5" rx=".25"/><mask id="b" fill="#fff"><path d="M0 37a3 3 0 0 1 3-3h50a3 3 0 0 1 3 3v13H0V37Z"/></mask><path fill="#E3E8EF" d="M-1 37a4 4 0 0 1 4-4h50a4 4 0 0 1 4 4h-2a2 2 0 0 0-2-2H3a2 2 0 0 0-2 2h-2Zm57 13H0h56Zm-57 0V37a4 4 0 0 1 4-4v2a2 2 0 0 0-2 2v13h-2Zm54-17a4 4 0 0 1 4 4v13h-2V37a2 2 0 0 0-2-2v-2Z" mask="url(#b)"/></svg>