<svg xmlns="http://www.w3.org/2000/svg" width="72" height="76" fill="none"><mask id="a" fill="#fff"><path d="M8 25a3 3 0 0 0 3 3h50a3 3 0 0 0 3-3V13H8v12Z"/></mask><path fill="#E3E8EF" d="M7 25a4 4 0 0 0 4 4h50a4 4 0 0 0 4-4h-2a2 2 0 0 1-2 2H11a2 2 0 0 1-2-2H7Zm57-12H8h56ZM7 13v12a4 4 0 0 0 4 4v-2a2 2 0 0 1-2-2V13H7Zm54 16a4 4 0 0 0 4-4V13h-2v12a2 2 0 0 1-2 2v2Z" mask="url(#a)"/><rect width="55.5" height=".5" x="8.25" y="37.25" stroke="#CC3D00" stroke-width=".5" rx=".25"/><mask id="b" fill="#fff"><path d="M8 50a3 3 0 0 1 3-3h50a3 3 0 0 1 3 3v13H8V50Z"/></mask><path fill="#E3E8EF" d="M7 50a4 4 0 0 1 4-4h50a4 4 0 0 1 4 4h-2a2 2 0 0 0-2-2H11a2 2 0 0 0-2 2H7Zm57 13H8h56ZM7 63V50a4 4 0 0 1 4-4v2a2 2 0 0 0-2 2v13H7Zm54-17a4 4 0 0 1 4 4v13h-2V50a2 2 0 0 0-2-2v-2Z" mask="url(#b)"/></svg>