<svg xmlns="http://www.w3.org/2000/svg" width="20" height="12" fill="none" viewBox="0 0 20 12"><path fill="#4B4848" fill-rule="evenodd" d="M0 0H20V12H0V0ZM2 10V2H18V10H2Z" clip-rule="evenodd"/><path fill="#4B4848" d="M4.81348 8.41895H5.15625V7.93262C5.93555 7.87695 6.52441 7.46094 6.52441 6.74023V6.73438C6.52441 6.10156 6.10254 5.78516 5.32031 5.60352L5.15625 5.56543V4.42871C5.50781 4.47852 5.75098 4.68652 5.78906 5.0293L5.79199 5.03516L6.47168 5.03223V5.0293C6.44531 4.3584 5.91797 3.90137 5.15625 3.83984V3.34766H4.81348V3.83984C4.04883 3.89258 3.50098 4.3291 3.50098 5V5.00586C3.50098 5.61523 3.91113 5.95508 4.66406 6.12793L4.81348 6.16309V7.34668C4.37402 7.2998 4.15723 7.07129 4.10742 6.75195L4.10449 6.74609L3.4248 6.74902L3.42188 6.75195C3.44531 7.46094 4.03711 7.88281 4.81348 7.93262V8.41895ZM4.20703 4.95312V4.94727C4.20703 4.69531 4.41504 4.47559 4.81348 4.42871V5.48633C4.37988 5.37207 4.20703 5.19922 4.20703 4.95312ZM5.81836 6.80469V6.81055C5.81836 7.10059 5.61328 7.30859 5.15625 7.34668V6.24219C5.65723 6.36816 5.81836 6.52637 5.81836 6.80469Z"/></svg>