<svg width="24" height="24" viewBox="0 0 24 24" fill="none" xmlns="http://www.w3.org/2000/svg">
<path fill-rule="evenodd" clip-rule="evenodd" d="M12 1C18.0751 1 23 5.92491 23 12C23 18.0752 18.0751 23.0001 12 23.0001C5.92484 23.0001 1 18.0752 1 12C1 5.92491 5.92484 1 12 1ZM12 19.8572C7.66064 19.8572 4.14285 16.3394 4.14285 12C4.14285 7.6606 7.66064 4.14285 12 4.14285C16.3394 4.14285 19.8571 7.6606 19.8571 12C19.8571 16.3394 16.3394 19.8572 12 19.8572Z" fill="#4C5664"/>
<path d="M11.9996 16.7143C9.39586 16.7143 7.28528 14.6037 7.28528 12C7.28528 9.3964 9.39586 7.28569 11.9996 7.28569C14.6032 7.28569 16.7139 9.3964 16.7139 12C16.7139 14.6037 14.6032 16.7143 11.9996 16.7143Z" fill="#4C5664"/>
</svg>
