<svg width="15" height="15" viewBox="0 0 15 15" fill="none" xmlns="http://www.w3.org/2000/svg">
<path d="M8.5 2.5H14.5" stroke="#364252" stroke-linecap="round" stroke-linejoin="round"/>
<path d="M8.5 10.5H14.5" stroke="#364252" stroke-linecap="round" stroke-linejoin="round"/>
<path d="M8.5 4.5H12.5" stroke="#364252" stroke-linecap="round" stroke-linejoin="round"/>
<path d="M8.5 12.5H12.5" stroke="#364252" stroke-linecap="round" stroke-linejoin="round"/>
<circle cx="3.5" cy="11.5" r="3" transform="rotate(-90 3.5 11.5)" stroke="#364252" stroke-linejoin="round"/>
<path fill-rule="evenodd" clip-rule="evenodd" d="M6.5 3.5C6.5 1.84315 5.15685 0.5 3.5 0.5C1.84315 0.5 0.5 1.84315 0.5 3.5C0.5 5.15685 1.84315 6.5 3.5 6.5C5.15685 6.5 6.5 5.15685 6.5 3.5ZM5.5 3.5C5.5 2.39543 4.60457 1.5 3.5 1.5C2.39543 1.5 1.5 2.39543 1.5 3.5C1.5 4.60457 2.39543 5.5 3.5 5.5C4.60457 5.5 5.5 4.60457 5.5 3.5Z" fill="#364252"/>
<path d="M3.5 1C4.88071 1 6 2.11929 6 3.5H7C7 1.567 5.433 0 3.5 0V1ZM1 3.5C1 2.11929 2.11929 1 3.5 1V0C1.567 0 0 1.567 0 3.5H1ZM3.5 6C2.11929 6 1 4.88071 1 3.5H0C0 5.433 1.567 7 3.5 7V6ZM6 3.5C6 4.88071 4.88071 6 3.5 6V7C5.433 7 7 5.433 7 3.5H6ZM3.5 2C4.32843 2 5 2.67157 5 3.5H6C6 2.11929 4.88071 1 3.5 1V2ZM2 3.5C2 2.67157 2.67157 2 3.5 2V1C2.11929 1 1 2.11929 1 3.5H2ZM3.5 5C2.67157 5 2 4.32843 2 3.5H1C1 4.88071 2.11929 6 3.5 6V5ZM5 3.5C5 4.32843 4.32843 5 3.5 5V6C4.88071 6 6 4.88071 6 3.5H5Z" fill="#364252"/>
</svg>
