<svg width="14" height="12" viewBox="0 0 14 12" fill="none" xmlns="http://www.w3.org/2000/svg">
<path d="M1.66634 1.33333V10.6667H12.333V2.66667H6.72367L5.39034 1.33333H1.66634ZM7.27567 1.33333H12.9997C13.1765 1.33333 13.3461 1.40357 13.4711 1.5286C13.5961 1.65362 13.6663 1.82319 13.6663 2V11.3333C13.6663 11.5101 13.5961 11.6797 13.4711 11.8047C13.3461 11.9298 13.1765 12 12.9997 12H0.999674C0.822863 12 0.653294 11.9298 0.52827 11.8047C0.403246 11.6797 0.333008 11.5101 0.333008 11.3333V0.666667C0.333008 0.489856 0.403246 0.320286 0.52827 0.195262C0.653294 0.0702379 0.822863 0 0.999674 0H5.94234L7.27567 1.33333Z" fill="#6B6B6B"/>
</svg>
