<svg width="12" height="15" viewBox="0 0 12 15" fill="none" xmlns="http://www.w3.org/2000/svg">
<path d="M9.38933 9.54193C10.0163 8.87952 10.4354 8.04792 10.5948 7.14992C10.7542 6.25191 10.6471 5.32687 10.2865 4.48912C9.92589 3.65138 9.32773 2.93765 8.56592 2.43617C7.80411 1.93469 6.91205 1.66743 6 1.66743C5.08795 1.66743 4.19589 1.93469 3.43408 2.43617C2.67227 2.93765 2.07411 3.65138 1.71353 4.48912C1.35295 5.32687 1.24576 6.25191 1.4052 7.14992C1.56464 8.04792 1.98373 8.87952 2.61067 9.54193C2.97045 8.96783 3.47024 8.49459 4.06311 8.16667C4.65599 7.83875 5.32248 7.6669 6 7.66726C6.67752 7.6669 7.34402 7.83875 7.93689 8.16667C8.52976 8.49459 9.02956 8.96783 9.38933 9.54193ZM3.59 10.5239L6 12.9333L8.41 10.5239C8.19388 10.0676 7.85266 9.68208 7.42603 9.41209C6.9994 9.14209 6.50489 8.99876 6 8.99876C5.49512 8.99876 5.0006 9.14209 4.57397 9.41209C4.14734 9.68208 3.80612 10.0676 3.59 10.5239ZM6 14.8193L1.75734 10.5766C0.918228 9.73748 0.346791 8.66838 0.115286 7.5045C-0.11622 6.34061 0.00260456 5.13422 0.456732 4.03787C0.91086 2.94151 1.6799 2.00445 2.66659 1.34516C3.65328 0.685876 4.81332 0.333984 6 0.333984C7.18669 0.333984 8.34672 0.685876 9.33342 1.34516C10.3201 2.00445 11.0891 2.94151 11.5433 4.03787C11.9974 5.13422 12.1162 6.34061 11.8847 7.5045C11.6532 8.66838 11.0818 9.73748 10.2427 10.5766L6 14.8193ZM6 5.66727C6.17681 5.66727 6.34638 5.59703 6.47141 5.472C6.59643 5.34698 6.66667 5.17741 6.66667 5.0006C6.66667 4.82379 6.59643 4.65422 6.47141 4.52919C6.34638 4.40417 6.17681 4.33393 6 4.33393C5.82319 4.33393 5.65362 4.40417 5.5286 4.52919C5.40357 4.65422 5.33334 4.82379 5.33334 5.0006C5.33334 5.17741 5.40357 5.34698 5.5286 5.472C5.65362 5.59703 5.82319 5.66727 6 5.66727ZM6 7.0006C5.46957 7.0006 4.96086 6.78989 4.58579 6.41481C4.21072 6.03974 4 5.53103 4 5.0006C4 4.47017 4.21072 3.96146 4.58579 3.58639C4.96086 3.21131 5.46957 3.0006 6 3.0006C6.53044 3.0006 7.03914 3.21131 7.41422 3.58639C7.78929 3.96146 8 4.47017 8 5.0006C8 5.53103 7.78929 6.03974 7.41422 6.41481C7.03914 6.78989 6.53044 7.0006 6 7.0006Z" fill="#6B6B6B"/>
</svg>
