<svg xmlns="http://www.w3.org/2000/svg" width="16" height="13" fill="none" className="is-download-icon" viewBox="0 0 16 13"><path fill="#858282" d="M0.666749 8.6102C0.666338 7.87383 0.853696 7.14953 1.21112 6.50573C1.56854 5.86193 2.08421 5.3199 2.70942 4.93086C2.87442 3.64425 3.50261 2.46186 4.47643 1.60497C5.45024 0.748069 6.70294 0.275391 8.00008 0.275391C9.29723 0.275391 10.5499 0.748069 11.5237 1.60497C12.4976 2.46186 13.1257 3.64425 13.2907 4.93086C14.0662 5.41332 14.6695 6.12846 15.0143 6.97418C15.3591 7.8199 15.4279 8.75295 15.2108 9.64009C14.9938 10.5272 14.502 11.3231 13.8056 11.9141C13.1093 12.5051 12.244 12.8609 11.3334 12.9309L4.66675 12.9435C2.42942 12.7609 0.666749 10.8915 0.666749 8.6102ZM11.2321 11.6015C11.8626 11.553 12.4617 11.3065 12.9438 10.8972C13.4259 10.4879 13.7663 9.9367 13.9164 9.32236C14.0665 8.70801 14.0186 8.06195 13.7796 7.47645C13.5405 6.89095 13.1226 6.39596 12.5854 6.0622L12.0474 5.72686L11.9674 5.09886C11.8428 4.13465 11.3713 3.24882 10.6411 2.60692C9.91093 1.96502 8.97198 1.61099 7.99975 1.61099C7.02752 1.61099 6.08856 1.96502 5.35836 2.60692C4.62816 3.24882 4.1567 4.13465 4.03208 5.09886L3.95208 5.72686L3.41542 6.0622C2.87828 6.39593 2.46034 6.89085 2.22128 7.4763C1.98222 8.06174 1.93427 8.70775 2.08429 9.32207C2.2343 9.93639 2.5746 10.4876 3.05658 10.897C3.53857 11.3063 4.13758 11.5529 4.76808 11.6015L4.88341 11.6102H11.1167L11.2321 11.6015ZM8.66675 6.94353H10.6667L8.00008 10.2769L5.33342 6.94353H7.33342V4.27686H8.66675V6.94353Z"/></svg>