<svg width="24" height="24" fill="none" xmlns="http://www.w3.org/2000/svg"><path fill-rule="evenodd" clip-rule="evenodd" d="M11 6a2 2 0 0 0-2-2H6a2 2 0 1 0 0 4h3a2 2 0 0 0 2-2zM9 7a1 1 0 1 0 0-2 1 1 0 0 0 0 2z" fill="#EAEAEA"/><path d="M13 5.8a.75.75 0 0 1 .75-.75h5.5a.75.75 0 0 1 0 1.5h-5.5A.75.75 0 0 1 13 5.8z" fill="#EAEAEA"/><path fill-rule="evenodd" clip-rule="evenodd" d="M11 12a2 2 0 0 0-2-2H6a2 2 0 1 0 0 4h3a2 2 0 0 0 2-2zm-2 1a1 1 0 1 0 0-2 1 1 0 0 0 0 2z" fill="#EAEAEA"/><path d="M13 11.8a.75.75 0 0 1 .75-.75h5.5a.75.75 0 0 1 0 1.5h-5.5a.75.75 0 0 1-.75-.75z" fill="#EAEAEA"/><circle cx="6" cy="18" r="1" fill="#EAEAEA"/><path d="M6 16.25h3a1.75 1.75 0 1 1 0 3.5H6a1.75 1.75 0 1 1 0-3.5z" stroke="#EAEAEA" stroke-width=".5"/><path d="M13 17.8a.75.75 0 0 1 .75-.75h5.5a.75.75 0 0 1 0 1.5h-5.5a.75.75 0 0 1-.75-.75z" fill="#EAEAEA"/></svg>