<svg xmlns="http://www.w3.org/2000/svg" width="32" height="33" fill="none" viewBox="0 0 32 33"><path fill="#fff" fill-rule="evenodd" d="M32 10.6658C32 9.46577 31.2 8.66577 30 8.66577H2C0.8 8.66577 0 9.46577 0 10.6658V22.6658C0 23.8658 0.8 24.6658 2 24.6658H30C31.2 24.6658 32 23.8658 32 22.6658V10.6658ZM4.27987 18.5538C4.54587 18.6844 4.85853 18.7498 5.21787 18.7498C5.58653 18.7498 5.8922 18.6844 6.13487 18.5538C6.3822 18.4231 6.56653 18.2551 6.68787 18.0498C6.8092 17.8398 6.86987 17.6181 6.86987 17.3848C6.86987 17.1094 6.8162 16.8831 6.70887 16.7058C6.6062 16.5284 6.46153 16.3838 6.27487 16.2718C6.0882 16.1598 5.8782 16.0618 5.64487 15.9778C5.36487 15.8844 5.11753 15.8028 4.90287 15.7328C4.6882 15.6581 4.5202 15.5648 4.39887 15.4528C4.2822 15.3408 4.22387 15.1798 4.22387 14.9698C4.22387 14.7224 4.30787 14.5288 4.47587 14.3888C4.64853 14.2488 4.86787 14.1811 5.13387 14.1858C5.34853 14.1858 5.52587 14.2278 5.66587 14.3118C5.81053 14.3958 5.91787 14.5054 5.98787 14.6408C6.05787 14.7714 6.09287 14.9044 6.09287 15.0398H6.70887C6.7042 14.7784 6.63653 14.5451 6.50587 14.3398C6.37987 14.1344 6.2002 13.9734 5.96687 13.8568C5.7382 13.7401 5.46753 13.6818 5.15487 13.6818C4.83753 13.6818 4.5622 13.7401 4.32887 13.8568C4.1002 13.9688 3.92287 14.1274 3.79687 14.3328C3.67087 14.5334 3.6102 14.7644 3.61487 15.0258C3.61487 15.3384 3.70587 15.5928 3.88787 15.7888C4.06987 15.9801 4.34987 16.1411 4.72787 16.2718C4.92853 16.3418 5.11987 16.4048 5.30187 16.4608C5.48853 16.5168 5.65187 16.5821 5.79187 16.6568C5.93653 16.7314 6.05087 16.8294 6.13487 16.9508C6.21887 17.0674 6.26087 17.2238 6.26087 17.4198C6.26087 17.6578 6.16987 17.8561 5.98787 18.0148C5.80587 18.1734 5.5492 18.2528 5.21787 18.2528C4.96587 18.2528 4.75353 18.2061 4.58087 18.1128C4.41287 18.0148 4.28453 17.8864 4.19587 17.7278C4.1072 17.5644 4.06287 17.3871 4.06287 17.1958H3.44687C3.44687 17.5038 3.5192 17.7744 3.66387 18.0078C3.80853 18.2411 4.01387 18.4231 4.27987 18.5538ZM8.83774 18.5538C9.11308 18.6844 9.41874 18.7498 9.75474 18.7498C10.0954 18.7498 10.4034 18.6844 10.6787 18.5538C10.9541 18.4184 11.1734 18.2108 11.3367 17.9308C11.5001 17.6508 11.5817 17.2938 11.5817 16.8598V13.7658H10.9937V16.8668C10.9937 17.3428 10.8817 17.6881 10.6577 17.9028C10.4337 18.1174 10.1374 18.2248 9.76874 18.2248C9.40008 18.2248 9.10141 18.1174 8.87274 17.9028C8.64408 17.6881 8.52974 17.3428 8.52974 16.8668V13.7658H7.94174V16.8598C7.94174 17.2938 8.02341 17.6508 8.18674 17.9308C8.35008 18.2108 8.56708 18.4184 8.83774 18.5538ZM12.8575 13.7658V18.6658H14.6355C14.9762 18.6658 15.2655 18.6074 15.5035 18.4908C15.7415 18.3694 15.9212 18.2084 16.0425 18.0078C16.1638 17.8024 16.2245 17.5761 16.2245 17.3288C16.2245 17.1281 16.1802 16.9438 16.0915 16.7758C16.0075 16.6078 15.8908 16.4678 15.7415 16.3558C15.5922 16.2438 15.4265 16.1714 15.2445 16.1388C15.4825 16.0688 15.6855 15.9428 15.8535 15.7608C16.0262 15.5788 16.1125 15.3291 16.1125 15.0118C16.1125 14.7784 16.0565 14.5684 15.9445 14.3818C15.8325 14.1904 15.6622 14.0411 15.4335 13.9338C15.2095 13.8218 14.9248 13.7658 14.5795 13.7658H12.8575ZM14.5375 15.9078H13.4455V14.2558H14.5165C14.8478 14.2558 15.0952 14.3304 15.2585 14.4798C15.4265 14.6291 15.5105 14.8274 15.5105 15.0748C15.5105 15.3361 15.4265 15.5414 15.2585 15.6908C15.0905 15.8354 14.8502 15.9078 14.5375 15.9078ZM14.5725 18.1758H13.4455V16.3768H14.5585C14.8852 16.3768 15.1442 16.4608 15.3355 16.6288C15.5268 16.7921 15.6225 17.0114 15.6225 17.2868C15.6225 17.5668 15.5315 17.7861 15.3495 17.9448C15.1675 18.0988 14.9085 18.1758 14.5725 18.1758ZM17.3484 13.7658V18.6658H17.9364V14.8228L19.5744 17.9658H20.0154L21.6534 14.8158V18.6658H22.2414V13.7658H21.5484L19.7984 17.1818L18.0344 13.7658H17.3484ZM23.5552 13.7658V18.6658H24.1432V13.7658H23.5552ZM26.6101 14.2488V18.6658H27.1981V14.2488H28.6611V13.7658H25.1471V14.2488H26.6101Z" clip-rule="evenodd"/></svg>