<svg xmlns="http://www.w3.org/2000/svg" width="50" height="50" fill="none" viewBox="0 0 50 50"><path fill="#fff" fill-rule="evenodd" d="M39.372 8.38758C43.9732 12.525 45.6914 18.7873 45.2011 24.9557L44.7957 30.0557C44.7957 30.0557 42.6948 31.9816 41.5276 32.7038C38.026 41.1297 30.3775 49.0742 24.5415 49.0742C18.9389 49.0742 11.057 41.1297 7.55538 32.9445C6.38817 31.9816 4.2872 30.2964 4.2872 30.2964L3.86821 24.9385C3.38665 18.7804 5.10572 12.5315 9.69738 8.39981C13.8015 4.70683 19.2865 0.926025 24.5415 0.926025C29.7907 0.926025 35.2693 4.69848 39.372 8.38758ZM9.60127 18.0186C7.5003 20.1853 7.96718 24.2779 10.3016 26.6853C12.4026 28.8519 16.8379 31.0186 19.8727 31.0186C20.8064 31.0186 21.5067 30.7779 21.7402 30.5371C21.9736 30.0557 22.4405 28.8519 22.2071 27.889C21.9736 25.2408 20.1061 20.9075 18.0051 18.7408C16.6045 17.2964 12.8694 15.1297 9.60127 18.0186ZM22.2071 41.8519L19.8727 39.4445L22.2071 39.3299H26.8759L29.2103 39.4445L26.8759 41.8519H22.2071ZM29.2103 31.0186C32.4785 31.0186 36.9138 28.8519 38.7814 26.6853C41.1158 24.2779 41.5827 20.1853 39.4817 18.0186C36.2135 15.3705 32.245 17.2964 31.0778 18.9816C27.3428 23.5557 26.8759 27.4075 26.8759 28.1297C26.6424 29.0927 27.1093 30.2964 27.3428 30.5371C27.8096 30.7779 28.2765 31.0186 29.2103 31.0186Z" clip-rule="evenodd"/></svg>