<svg xmlns="http://www.w3.org/2000/svg" width="50" height="50" fill="none" viewBox="0 0 50 50"><path fill="#fff" d="M47.7275 11.704H46.1895V8.68506H47.7275C48.5611 8.68506 49.237 9.36091 49.237 10.1945C49.237 11.0282 48.5611 11.704 47.7275 11.704Z"/><path fill="#fff" fill-rule="evenodd" d="M28.6407 5.89963L28.6385 5.90231L28.6407 5.89953L30.9729 3.0987C32.6077 1.13532 35.0304 0 37.5853 0C42.3374 0 46.1898 3.85232 46.1898 8.60452V20.6183C46.1898 40.7401 21.5283 39.9743 21.2275 39.9642H21.2754C25.6757 37.4763 28.6407 32.1996 28.6407 27.0645V5.89963ZM38.0985 11.1788C39.2031 11.1788 40.0985 10.2834 40.0985 9.17885C40.0985 8.07428 39.2031 7.17885 38.0985 7.17885C36.9939 7.17885 36.0985 8.07428 36.0985 9.17885C36.0985 10.2834 36.9939 11.1788 38.0985 11.1788Z" clip-rule="evenodd"/><path fill="#fff" fill-rule="evenodd" d="M26.635 8.30811V26.6849C26.0534 32.5331 22.776 37.4763 18.3757 39.9642H0.149414L26.635 8.30811ZM16.7819 29.6623C17.3337 29.0376 18.2877 28.9785 18.9126 29.5304C19.5373 30.0822 19.5965 31.0361 19.0446 31.6609L11.7102 39.9641H7.72139C7.77053 39.8797 7.82827 39.7987 7.89538 39.7227L16.7819 29.6623Z" clip-rule="evenodd" opacity=".6"/></svg>