<svg xmlns="http://www.w3.org/2000/svg" width="50" height="50" fill="none" viewBox="0 0 50 50"><path fill="#fff" d="M42.563 11.24V28.8299C42.9323 28.8885 43.3106 28.92 43.696 28.92C47.6592 28.92 49.92 20.7763 49.92 20.7763L42.563 11.24Z" opacity=".6"/><path fill="#fff" d="M0 20.7763C0 20.7763 2.26084 28.92 6.22398 28.92C6.60942 28.92 6.98776 28.8885 7.35704 28.8299V11.24L0 20.7763Z" opacity=".6"/><path fill="#fff" d="M24.9602 42.1536C24.5175 42.4769 24.0517 42.7673 23.5665 43.0212C22.3755 43.6445 21.0699 44.0452 19.7329 44.2039C21.1528 45.4147 22.9889 46.1296 24.9602 46.1296C26.9319 46.1296 28.7676 45.4147 30.1879 44.2039C28.8505 44.0452 27.5449 43.6445 26.3539 43.0212C25.8691 42.7673 25.403 42.4769 24.9602 42.1536Z" opacity=".6"/><path fill="#fff" fill-rule="evenodd" d="M9.43701 9.4661C9.43701 6.45208 11.9477 4 15.0332 4H34.8867C37.9703 4 40.481 6.45015 40.4829 9.46184V34.5468C40.4829 38.8771 36.8759 42.4 32.4422 42.4C29.7624 42.4 26.4219 41.1132 24.9598 39.1391C23.498 41.1132 21.1201 42.4 18.4407 42.4C14.007 42.4 9.43701 38.8771 9.43701 34.5468V9.4661ZM17.2309 21.2857C17.6193 21.6724 18.1544 21.8945 18.7026 21.8945C19.2502 21.8945 19.7854 21.6724 20.1738 21.2857C20.5605 20.8973 20.7826 20.3605 20.7826 19.8145C20.7826 19.2669 20.5605 18.7301 20.1738 18.3433C19.7854 17.956 19.2502 17.7345 18.7026 17.7345C18.1544 17.7345 17.6193 17.956 17.2309 18.3433C16.8441 18.7301 16.6226 19.2669 16.6226 19.8145C16.6226 20.3621 16.8441 20.8973 17.2309 21.2857ZM24.9598 35.8309L20.5012 30.4779C19.8264 29.3358 19.7606 28.1361 20.3221 27.1868C20.8832 26.2378 21.9792 25.6933 23.3296 25.6933H26.5899C27.94 25.6933 29.0364 26.2374 29.5975 27.1868C30.159 28.1361 30.0936 29.3354 29.4188 30.4775L24.9598 35.8309ZM30.2707 21.2857C30.6575 21.6724 31.1943 21.8945 31.7408 21.8945C32.2884 21.8945 32.8247 21.6724 33.2114 21.2857C33.5987 20.8973 33.8208 20.361 33.8208 19.8145C33.8208 19.2669 33.5987 18.7301 33.2114 18.3433C32.8247 17.9566 32.2884 17.7345 31.7408 17.7345C31.1943 17.7345 30.6575 17.9566 30.2707 18.3433C29.8823 18.7301 29.6608 19.2669 29.6608 19.8145C29.6608 20.361 29.8823 20.8973 30.2707 21.2857Z" clip-rule="evenodd"/></svg>