<svg xmlns="http://www.w3.org/2000/svg" width="50" height="44" fill="none" viewBox="0 0 50 44"><path fill="#fff" fill-rule="evenodd" d="M39.8683 29.4675C40.7863 27.5467 41.4229 25.4947 41.7485 23.3726C43.5536 23.5856 45.2184 23.9185 46.6058 24.3629C49.3046 25.2177 49.9381 26.0993 49.9508 26.2996V26.313C49.9381 26.5133 49.3046 27.4349 46.4917 28.3164C44.6295 28.9005 42.3438 29.2924 39.8683 29.4675ZM35.318 35.7884C36.6427 34.505 37.7903 33.0732 38.7427 31.5305C41.8811 31.4108 44.8183 31.0031 47.1692 30.3484C48.1345 30.1093 49.0617 29.7508 49.9508 29.3325V32.4996H49.9381C49.9381 32.558 49.92 32.622 49.9014 32.6875L49.9014 32.6876C49.8819 32.7563 49.8619 32.8267 49.8619 32.894C49.8619 33.0614 49.2649 33.8741 46.5214 34.6629C43.9176 35.4039 40.4501 35.8102 36.7793 35.8102C36.2805 35.8102 35.7932 35.8027 35.318 35.7884ZM25.7793 41.2291C28.1583 40.5828 30.4543 39.529 32.5582 38.0629C33.901 38.1938 35.3005 38.2624 36.7147 38.2624C40.6587 38.2624 44.3985 37.7617 47.2576 36.8414C48.1894 36.5436 49.0829 36.1511 49.938 35.691V39.7512H49.9508C49.9508 39.9407 49.3637 40.8745 46.6705 41.7678C44.0922 42.6204 40.6332 43.0941 36.9572 43.0941C33.2684 43.0941 29.8222 42.6339 27.2694 41.8084C26.6743 41.614 26.1832 41.4182 25.7793 41.2291Z" clip-rule="evenodd" opacity=".6"/><path fill="#fff" fill-rule="evenodd" d="M25.9139 0.883329C32.8766 3.07157 38.1137 8.85336 39.5986 15.9601C39.8594 17.2851 39.9999 18.6503 39.9999 19.9953C40.0199 25.6366 37.6321 30.9968 33.4585 34.7911C25.2918 42.2191 12.6305 41.6369 5.20627 33.4661C-2.21798 25.2953 -1.63608 12.6276 6.53059 5.19959C10.2026 1.86704 15.0183 0.0200757 19.9946 0C22.0011 0 23.9876 0.301135 25.9139 0.883329ZM25.7767 21.8762C25.0466 19.3529 22.6817 17.6192 19.9994 17.6192C18.444 17.6192 17.1743 16.3963 17.1743 14.8793C17.1902 13.3467 18.444 12.1238 19.9994 12.1238C21.5549 12.1238 22.8246 13.3622 22.8246 14.8793C22.8246 15.7306 23.5388 16.4272 24.4117 16.4272C25.2847 16.4272 25.9989 15.7306 25.9989 14.8793C25.9989 12.2632 24.2213 9.95666 21.6342 9.24458V8.54799C21.6342 7.69659 20.92 7 20.0471 7C19.1741 7 18.4599 7.69659 18.4599 8.54799V9.21362C15.2697 10.0495 13.3651 13.2694 14.2063 16.3653C14.9047 18.9195 17.2695 20.6997 19.9836 20.6997C21.539 20.6997 22.8087 21.9226 22.8087 23.4396C22.8087 24.9567 21.5549 26.195 19.9994 26.195C18.444 26.195 17.1743 24.9721 17.1743 23.4551C17.1743 22.6037 16.4601 21.9071 15.5872 21.9071C14.7142 21.9071 14 22.6037 14 23.4551C14.0159 26.1022 15.8252 28.4087 18.444 29.1053V30.452C18.444 31.3034 19.1583 32 20.0312 32C20.9041 32 21.6183 31.3034 21.6183 30.452V29.0898C24.8244 28.2074 26.6655 24.9876 25.7767 21.8762Z" clip-rule="evenodd"/></svg>