<svg xmlns="http://www.w3.org/2000/svg" width="51" height="50" fill="none" viewBox="0 0 51 50"><path fill="#fff" fill-rule="evenodd" d="M27.9626 44.4449C40.0388 33.9892 47.0002 27.962 47.0002 19.4638C47.0002 13.9231 44.1214 9.03738 39.5637 7.00391C46.3494 7.17698 51.0002 12.9814 51.0002 19.8376C51.0002 28.7086 42.997 35.6833 29.3149 47.6072C28.7906 48.064 28.2581 48.5282 27.7173 48.9999C26.8485 48.242 26.0872 47.4552 25.4233 46.646C26.2931 45.8903 27.1397 45.1573 27.9626 44.4449Z" clip-rule="evenodd" opacity=".6"/><path fill="#fff" fill-rule="evenodd" d="M45 19.3994C45 28.161 36.739 34.0267 22.7079 46.188C9.36467 34.6232 0 28.5585 0 19.3994C0 12.7781 4.58992 7.18799 11.251 7.18799C19.7998 7.18799 22.5 16.9375 22.5 16.9375C22.5 16.9375 25.2002 7.18799 33.751 7.18799C40.4101 7.18799 45 12.7781 45 19.3994Z" clip-rule="evenodd"/></svg>