<svg xmlns="http://www.w3.org/2000/svg" width="50" height="50" fill="none" viewBox="0 0 50 50"><path fill="#fff" fill-rule="evenodd" d="M50 0.0234375L14.6484 7.32432V17.8901L50 11.5013V0.0234375Z" clip-rule="evenodd" opacity=".6"/><path fill="#fff" fill-rule="evenodd" d="M41.2109 28.0274C43.4601 28.0274 45.5142 28.8771 47.0703 30.2717V14.008L50 13.4785V36.8165C50 41.6628 46.0572 45.6056 41.2109 45.6056C36.3646 45.6056 32.4219 41.6628 32.4219 36.8165C32.4219 31.9702 36.3646 28.0274 41.2109 28.0274ZM8.78906 32.422C11.0382 32.422 13.0923 33.2716 14.6484 34.6662V19.8674L17.5781 19.3379V41.211C17.5781 46.0573 13.6354 50.0001 8.78906 50.0001C3.94277 50.0001 0 46.0573 0 41.211C0 36.3647 3.94277 32.422 8.78906 32.422Z" clip-rule="evenodd"/></svg>