<svg xmlns="http://www.w3.org/2000/svg" width="50" height="50" fill="none" viewBox="0 0 50 50"><path fill="#F9F9F9" d="M43.7114 13.9701L41.4303 13.3411C39.1723 20.1876 35.3596 25.858 30.6103 30.6104C25.8563 35.3628 20.1859 39.1756 13.3394 41.4305L13.9684 43.7132C14.3161 45.1597 14.9003 46.427 18.5369 46.359C21.5212 46.3034 23.9631 44.1351 24.3557 41.2527C31.9224 41.7736 33.7554 33.9116 33.743 33.7447C33.9099 33.7571 41.6822 31.9365 41.251 24.3589C44.1303 23.9663 46.3002 21.5245 46.3573 18.5386C46.4238 14.8974 45.1549 14.3163 43.7114 13.9701Z"/><path fill="#B2B2B2" d="M45.9727 14.5668L43.6915 13.9377C41.4336 20.7843 37.6426 27.2807 32.8933 32.0331C28.1394 36.7855 20.8148 41.4582 13.9683 43.7131L14.5417 46.0162C15.5238 47.8497 17.4598 48.3536 20.8199 47.7817C23.7606 47.2813 26.2462 45.5578 26.6387 42.6754C34.2055 43.1963 36.0384 35.3343 36.0261 35.1674C36.193 35.1798 43.9653 33.3592 43.5341 25.7816C46.4133 25.389 48.5832 22.9472 48.6404 19.9613C48.7069 16.3201 47.4162 14.913 45.9727 14.5668Z"/><path fill="#F9F9F9" fill-rule="evenodd" d="M1.10809 1.10836C1.27191 0.942995 39.254 13.0906 39.254 13.0906C37.2341 19.2278 33.7057 24.7745 29.2268 29.224C24.7758 33.7029 19.2306 37.2328 13.0903 39.2543C13.0903 39.2543 0.944265 1.27373 1.10809 1.10836ZM13.214 8.65193C11.5077 8.65193 10.123 10.0367 10.123 11.7429C10.123 13.4507 11.5077 14.8339 13.214 14.8339C14.9202 14.8339 16.305 13.4491 16.305 11.7429C16.305 10.0367 14.9202 8.65193 13.214 8.65193ZM14.7595 27.1979C13.0532 27.1979 11.6685 25.8131 11.6685 24.1069C11.6685 22.4007 13.0532 21.0159 14.7595 21.0159C16.4657 21.0159 17.8504 22.4007 17.8504 24.1069C17.8504 25.8131 16.4657 27.1979 14.7595 27.1979ZM24.1082 22.5629C26.6688 22.5629 28.7446 20.4871 28.7446 17.9265C28.7446 15.3658 26.6688 13.29 24.1082 13.29C21.5475 13.29 19.4717 15.3658 19.4717 17.9265C19.4717 20.4871 21.5475 22.5629 24.1082 22.5629Z" clip-rule="evenodd"/></svg>