<svg xmlns="http://www.w3.org/2000/svg" width="50" height="50" fill="none" viewBox="0 0 50 50"><path fill="#fff" d="M46.8345 20.2827C46.8315 20.2046 46.8257 20.1274 46.8198 20.0503C46.814 19.9673 46.8071 19.8853 46.7983 19.8033C46.7905 19.7223 46.7817 19.6412 46.771 19.5612C46.7661 19.5231 46.7612 19.4841 46.7554 19.446C46.7495 19.3942 46.7417 19.3435 46.7339 19.2927C46.731 19.2702 46.728 19.2487 46.7231 19.2272C46.7153 19.1687 46.7056 19.111 46.6948 19.0524C46.6812 18.9733 46.6665 18.8952 46.6509 18.8172C46.644 18.782 46.6362 18.7469 46.6284 18.7127C46.6167 18.6531 46.604 18.5936 46.5894 18.535C46.5757 18.4734 46.561 18.4119 46.5454 18.3523C46.5298 18.2859 46.5122 18.2195 46.4946 18.1541C46.4907 18.1385 46.4868 18.1238 46.4829 18.1102C46.4702 18.0643 46.4575 18.0193 46.4438 17.9744C46.4292 17.9217 46.4136 17.868 46.396 17.8152C46.3911 17.7957 46.3853 17.7762 46.3784 17.7576C46.3638 17.7098 46.3491 17.6629 46.3325 17.615C46.3169 17.5682 46.3013 17.5213 46.2847 17.4754C46.2749 17.4451 46.2642 17.4148 46.2534 17.3855C46.2378 17.3416 46.2222 17.2977 46.2046 17.2547C46.1948 17.2244 46.1831 17.1941 46.1714 17.1648C46.1509 17.1111 46.1304 17.0594 46.1089 17.0066C46.104 16.992 46.0981 16.9783 46.0923 16.9646C46.0669 16.9021 46.0405 16.8396 46.0142 16.7781L45.9966 16.7371C45.9683 16.6727 45.939 16.6092 45.9097 16.5457C45.8813 16.4842 45.853 16.4227 45.8228 16.3621C45.8062 16.326 45.7886 16.2908 45.77 16.2557C45.7476 16.2088 45.7231 16.1619 45.6987 16.116C45.6626 16.0447 45.6245 15.9744 45.5864 15.9051C45.5493 15.8387 45.5122 15.7723 45.4741 15.7059C45.4644 15.6893 45.4546 15.6736 45.4448 15.657C45.4136 15.6023 45.3804 15.5477 45.3481 15.4939C45.3462 15.491 45.3442 15.4881 45.3423 15.4852C45.3022 15.4197 45.2612 15.3553 45.2202 15.2918C44.8766 14.7577 44.4851 14.2588 44.0506 13.7999C43.9803 13.7247 43.908 13.6505 43.8338 13.5783C43.7811 13.5246 43.7273 13.4719 43.6727 13.4201C43.6102 13.3605 43.5477 13.302 43.4832 13.2443C43.4256 13.1916 43.367 13.1398 43.3084 13.09C43.2469 13.0363 43.1844 12.9826 43.1209 12.9309C43.0682 12.8869 43.0145 12.8439 42.9607 12.801C42.8709 12.7307 42.782 12.6623 42.6913 12.5959C42.6532 12.5666 42.6142 12.5383 42.5751 12.5109C42.5507 12.4924 42.5253 12.4748 42.4999 12.4572C42.4511 12.423 42.4022 12.3889 42.3524 12.3547C42.3437 12.3488 42.3339 12.343 42.3251 12.3361C42.2724 12.301 42.2187 12.2658 42.1649 12.2307C42.1395 12.2141 42.1142 12.1984 42.0888 12.1818C41.9774 12.1105 41.8643 12.0422 41.749 11.9758C41.7041 11.9494 41.6592 11.923 41.6133 11.8986C41.5781 11.8781 41.543 11.8586 41.5068 11.8391C41.4531 11.8088 41.3984 11.7795 41.3428 11.7512C41.2988 11.7287 41.2549 11.7053 41.2109 11.6838C40.92 11.5363 40.6202 11.4026 40.3127 11.2845C40.259 11.262 40.2043 11.2415 40.1496 11.222C40.132 11.2151 40.1145 11.2083 40.0969 11.2024C40.051 11.1858 40.0051 11.1692 39.9582 11.1536C39.924 11.1409 39.8908 11.1302 39.8566 11.1185C39.8107 11.1028 39.7658 11.0882 39.7199 11.0745C39.5256 11.012 39.3294 10.9554 39.1302 10.9056C39.0599 10.887 38.9886 10.8704 38.9173 10.8538C38.8421 10.8362 38.7669 10.8196 38.6907 10.804C38.678 10.8011 38.6653 10.7991 38.6517 10.7962C38.5765 10.7806 38.5003 10.7659 38.4232 10.7522C38.4203 10.7522 38.4174 10.7513 38.4145 10.7513C38.3314 10.7356 38.2475 10.722 38.1635 10.7093C38.0863 10.6976 38.0092 10.6868 37.9321 10.6761C37.853 10.6663 37.7749 10.6575 37.6959 10.6487C37.6617 10.6448 37.6266 10.6419 37.5914 10.639C37.527 10.6321 37.4615 10.6263 37.3961 10.6214C37.3932 10.6214 37.3893 10.6204 37.3863 10.6214C37.3102 10.6146 37.233 10.6097 37.156 10.6067C37.1394 10.6048 37.1237 10.6038 37.1071 10.6038C37.0515 10.6009 36.9958 10.5979 36.9392 10.597C36.9099 10.596 36.8796 10.595 36.8503 10.594C36.7683 10.5921 36.6862 10.5911 36.6033 10.5911C36.2245 10.5911 35.8516 10.6116 35.4834 10.6517C35.4717 10.5628 35.459 10.4739 35.4443 10.3852C35.4307 10.2973 35.416 10.2094 35.3994 10.1216C35.3643 9.92822 35.3242 9.73691 35.2773 9.54648C35.2627 9.4791 35.2461 9.41269 35.2285 9.34629C35.2285 9.34336 35.2275 9.34043 35.2256 9.3375C35.2051 9.25352 35.1816 9.17051 35.1582 9.08857C35.1387 9.01631 35.1172 8.94502 35.0957 8.87471C35.083 8.83467 35.0713 8.79463 35.0576 8.75459C35.0449 8.71162 35.0312 8.66963 35.0166 8.62764C34.999 8.5749 34.9814 8.52217 34.9629 8.47041C34.958 8.45479 34.9531 8.43916 34.9463 8.42354C34.9238 8.35713 34.8994 8.2917 34.875 8.22725C34.8691 8.20869 34.8613 8.19014 34.8535 8.17158C34.8359 8.12275 34.8164 8.07393 34.7969 8.0251C34.7793 7.98018 34.7617 7.93525 34.7422 7.89131C34.7334 7.86787 34.7246 7.84541 34.7139 7.82197C34.6904 7.76631 34.667 7.71064 34.6426 7.65498C34.6318 7.62959 34.6201 7.6042 34.6084 7.57881C34.5869 7.53096 34.5654 7.48311 34.543 7.43623C34.5234 7.39424 34.5039 7.35127 34.4834 7.30928C34.4746 7.29072 34.4658 7.27314 34.4561 7.25459C34.4287 7.19697 34.4004 7.14033 34.3711 7.08369C34.3613 7.06416 34.3516 7.04463 34.3408 7.0251C34.3125 6.96943 34.2832 6.91475 34.2539 6.86006C34.2451 6.84443 34.2363 6.82783 34.2275 6.81123C34.1943 6.75068 34.1602 6.69014 34.126 6.62959C34.085 6.55732 34.0439 6.48701 34.002 6.41768C33.9668 6.35908 33.9307 6.30049 33.8945 6.24189C33.8574 6.18232 33.8193 6.12373 33.7812 6.06514C33.7148 5.9626 33.6465 5.86201 33.5762 5.7625C33.4902 5.63848 33.4014 5.51748 33.3106 5.39736C33.2589 5.32998 33.2062 5.2626 33.1524 5.19521C33.0997 5.12881 33.045 5.0624 32.9903 4.99697C32.9327 4.92764 32.8741 4.85928 32.8146 4.79189C32.7608 4.73037 32.7071 4.6708 32.6515 4.61025C32.5948 4.54873 32.5372 4.48623 32.4786 4.42568C32.4747 4.42178 32.4718 4.41885 32.4688 4.41592C32.4122 4.35635 32.3546 4.29873 32.296 4.24111C32.2354 4.18057 32.1749 4.121 32.1124 4.0624C31.9884 3.94424 31.8614 3.8291 31.7326 3.71777C31.6682 3.66211 31.6027 3.60645 31.5373 3.55273C31.4895 3.5127 31.4426 3.47461 31.3957 3.43652C31.3322 3.38574 31.2678 3.33594 31.2033 3.28613C31.1545 3.24805 31.1047 3.21094 31.0549 3.1748C31.0051 3.13672 30.9553 3.10059 30.9045 3.06543C30.8693 3.04004 30.8342 3.01562 30.799 2.99121C30.6945 2.91797 30.5881 2.84668 30.4798 2.77637C30.4319 2.74609 30.3841 2.71582 30.3353 2.68555C30.2767 2.64844 30.2171 2.6123 30.1575 2.57617C30.0687 2.52246 29.9778 2.46973 29.8861 2.41895C29.7953 2.36719 29.7025 2.31738 29.6099 2.26855C29.5278 2.22559 29.4448 2.18262 29.3609 2.1416C29.2984 2.11133 29.235 2.08105 29.1715 2.05078C29.1139 2.02344 29.0562 1.99707 28.9986 1.97168C28.943 1.94629 28.8873 1.92188 28.8316 1.89844C28.8248 1.89551 28.817 1.89258 28.8102 1.88867C28.7564 1.86621 28.7018 1.84277 28.648 1.82129C28.5299 1.77344 28.4107 1.72656 28.2907 1.68262C28.2312 1.66016 28.1706 1.63867 28.1101 1.61816C28.0505 1.59668 27.989 1.57617 27.9284 1.55664C27.8063 1.5166 27.6844 1.47852 27.5604 1.44238C27.5154 1.42969 27.4715 1.41699 27.4266 1.4043C27.3943 1.39453 27.3611 1.38574 27.3289 1.37793C27.282 1.36523 27.2361 1.35254 27.1893 1.34082C27.0633 1.30859 26.9364 1.2793 26.8085 1.25195C26.7724 1.24414 26.7362 1.23633 26.6991 1.22852C26.6464 1.21777 26.5927 1.20703 26.5399 1.19727C26.5214 1.19336 26.5038 1.19043 26.4862 1.1875C26.4101 1.17285 26.3349 1.15918 26.2587 1.14746C26.1854 1.13477 26.1112 1.12402 26.038 1.11328C25.9657 1.10254 25.8935 1.09277 25.8212 1.08496C25.7665 1.07715 25.7128 1.07129 25.6581 1.06543C25.4286 1.04004 25.1963 1.02246 24.9629 1.0127C24.8916 1.00879 24.8193 1.00586 24.7471 1.00391C24.7217 1.00293 24.6953 1.00293 24.6689 1.00293C24.5947 1.00098 24.5195 1 24.4444 1C18.2934 1 13.3071 5.98623 13.3071 12.1373C13.3071 12.7778 13.3618 13.4046 13.4653 14.0158C12.8736 13.8879 12.2596 13.8186 11.6298 13.8186C6.86445 13.8212 3 17.6856 3 22.4521C3 26.8477 6.34811 30.2786 10.5337 31.0149L18.583 22.4521L27.1893 31.0841H36.6042C42.2632 31.0841 46.8501 26.4962 46.8501 20.8382C46.8501 20.6518 46.8452 20.4663 46.8345 20.2827Z"/><path fill="#fff" d="M31.6427 33.019C30.1015 34.5602 28.0713 36.0137 28.0713 38.069C28.0713 40.4295 29.8579 41.6108 31.6441 41.6108C33.4293 41.6108 35.2141 40.431 35.2141 38.069C35.2141 36.0119 33.1839 34.5601 31.6427 33.019Z" opacity=".6"/><path fill="#fff" d="M23.5001 39.9475C21.959 41.4887 19.9287 42.9422 19.9287 44.9975C19.9287 47.358 21.7153 48.5393 23.5015 48.5393C25.2867 48.5393 27.0716 47.3595 27.0716 44.9975C27.0716 42.9404 25.0413 41.4886 23.5001 39.9475Z" opacity=".6"/><path fill="#fff" d="M18.611 25.4023C14.3128 29.6122 13.2539 31.4658 13.2539 33.9924C13.2539 36.9464 15.6573 39.3496 18.611 39.3496C21.5648 39.3496 23.9682 36.9463 23.9682 33.9924C23.9682 31.4666 22.9066 29.6109 18.611 25.4023Z" opacity=".6"/></svg>