<svg xmlns="http://www.w3.org/2000/svg" width="57" height="50" fill="none" viewBox="0 0 57 50"><path fill="#fff" fill-rule="evenodd" d="M15.449 17.8919L15.4659 17.8885C15.3784 18.0369 15.3491 18.0803 15.3922 17.9929L15.449 17.8919ZM35.3639 36.9262L34.936 34.0609L34.9193 33.9438C34.8764 33.6931 35.0739 33.0831 35.2533 32.9079L35.3367 32.8218L46.227 20.9197L30.4373 17.7053L30.3192 17.6847C30.0736 17.649 29.5596 17.2743 29.449 17.0491L29.3932 16.9432L28.2526 14.9178C28.68 14.5965 29.0432 14.1947 29.2455 13.783L35.318 3L41.3904 13.7873C41.8113 14.6422 42.9254 15.4545 43.8657 15.5915L56.206 18.0556L47.6184 27.1825C46.9374 27.8484 46.5122 29.1619 46.6729 30.1018L48.0808 42.4093L36.8478 37.2589C36.4386 37.0431 35.903 36.9322 35.3639 36.9262Z" clip-rule="evenodd" opacity=".6"/><path fill="#F9F9F9" d="M21.0227 7.2605L27.0951 18.0478C27.516 18.9027 28.6301 19.715 29.5704 19.852L41.9107 22.3161L33.3232 31.443C32.6421 32.1089 32.2169 33.4224 32.3776 34.3623L33.7856 46.6698L22.5525 41.5194C21.7107 41.0755 20.3339 41.0755 19.492 41.5194L8.25983 46.6655L9.66775 34.3579C9.8285 33.4181 9.40328 32.1037 8.72222 31.4387L0.371094 22.3117L12.4749 19.8477C13.4161 19.7107 14.5302 18.8983 14.9502 18.0435L21.0227 7.2605Z"/></svg>