<svg xmlns="http://www.w3.org/2000/svg" width="51" height="51" fill="none" viewBox="0 0 51 51"><path fill="#fff" fill-rule="evenodd" d="M21.3542 51.0001C33.1477 51.0001 42.7083 41.4395 42.7083 29.6459C42.7083 17.8523 33.1477 8.29175 21.3542 8.29175C9.56059 8.29175 0 17.8523 0 29.6459C0 41.4395 9.56059 51.0001 21.3542 51.0001ZM17.1667 27.8503H14.3733V27.8495C13.6146 27.8495 13 28.4548 13 29.2004C13 29.9466 13.6146 30.5512 14.3733 30.5512H17.4962C17.5208 31.1754 17.5085 31.8003 17.4595 32.4237L17.4564 32.4637C17.3805 33.4029 17.041 34.3023 16.4755 35.0621L15.7505 36.0353C15.4278 36.4695 15.3972 37.0507 15.6731 37.5151C15.949 37.9794 16.4785 38.2388 17.0219 38.1747L19.7126 37.8588C20.5081 37.7646 21.3143 37.9063 22.0277 38.2659C23.5957 39.0589 25.4174 39.2165 27.1018 38.7046L28.0514 38.4182C28.7633 38.1898 29.1587 37.4427 28.9396 36.7379C28.7196 36.0331 27.9671 35.6313 27.2467 35.8348L26.2972 36.1213C25.2955 36.4258 24.2119 36.3323 23.2792 35.8604C22.135 35.2838 20.8468 35.0395 19.567 35.1571C19.9134 34.3701 20.1256 33.5319 20.1946 32.6763L20.1977 32.6356C20.2521 31.942 20.2674 31.2462 20.2437 30.5512H23.0056C23.7643 30.5512 24.3789 29.9466 24.3789 29.2004C24.3789 28.4548 23.7643 27.8495 23.0056 27.8495H19.9616C19.8904 27.4545 19.8084 27.0595 19.7118 26.666C19.524 25.9596 19.4206 25.2345 19.403 24.5048C19.4022 24.1346 19.4719 23.7683 19.6091 23.4245C19.7409 23.0921 19.9394 22.7875 20.1915 22.5312C20.4521 22.2674 20.7663 22.0608 21.1127 21.9237C21.4928 21.7714 21.9013 21.696 22.3121 21.702C24.3989 21.702 24.884 22.8426 25.0671 23.7004C25.1637 24.1776 25.5132 24.5666 25.9822 24.7188C26.4512 24.8719 26.9677 24.7648 27.334 24.4399C27.7011 24.1143 27.8613 23.6198 27.7548 23.1449C27.1923 20.511 25.2082 19.0003 22.3113 19.0003C21.5342 18.9935 20.764 19.1405 20.0459 19.433C18.6772 19.9886 17.5982 21.0688 17.0579 22.4242C16.7912 23.0868 16.6548 23.7931 16.6563 24.5055C16.6732 25.4486 16.8027 26.3871 17.0418 27.3015C17.0862 27.4839 17.1284 27.6671 17.1667 27.8503Z" clip-rule="evenodd"/><path fill="#fff" fill-rule="evenodd" d="M43.303 37.8839C47.4266 33.9906 50.0001 28.4729 50.0001 22.3542C50.0001 10.5606 40.4395 1 28.6459 1C22.5272 1 17.0095 3.57346 13.1162 7.69706C15.6791 6.73469 18.4552 6.20833 21.3543 6.20833C34.2984 6.20833 44.7918 16.7017 44.7918 29.6458C44.7918 32.5449 44.2654 35.321 43.303 37.8839Z" clip-rule="evenodd" opacity=".6"/></svg>