<svg xmlns="http://www.w3.org/2000/svg" width="14" height="14" fill="none" viewBox="0 0 14 14"><path fill="#858282" d="M7 0C3.14027 0 0 3.14027 0 7C0 10.8597 3.14027 14 7 14C10.8597 14 14 10.8597 14 7C14 3.14027 10.8597 0 7 0ZM7 12.25C4.10525 12.25 1.75 9.89475 1.75 7C1.75 5.89515 2.08496 4.85067 2.72185 3.95943L10.0406 11.2781C9.14933 11.915 8.10485 12.25 7 12.25ZM11.2781 10.0406L3.95943 2.72185C4.85067 2.08496 5.89515 1.75 7 1.75C9.89475 1.75 12.25 4.10525 12.25 7C12.25 8.10485 11.915 9.14933 11.2781 10.0406Z"/></svg>