<svg xmlns="http://www.w3.org/2000/svg" width="14" height="14" fill="none" viewBox="0 0 14 14"><path fill="#4086F4" d="M12.332 3.69141L9.46094 2.87109L8.64062 0H2.89844C2.21886 0 1.66797 0.550894 1.66797 1.23047V12.7695C1.66797 13.4491 2.21886 14 2.89844 14H11.1016C11.7811 14 12.332 13.4491 12.332 12.7695V3.69141Z"/><path fill="#4175DF" d="M12.332 3.69141V12.7695C12.332 13.4491 11.7811 14 11.1016 14H7V0H8.64062L9.46094 2.87109L12.332 3.69141Z"/><path fill="#80AEF8" d="M12.332 3.69141H9.46094C9.00977 3.69141 8.64062 3.32227 8.64062 2.87109V0C8.74727 0 8.85391 0.0410156 8.92771 0.123074L12.209 3.40432C12.291 3.47813 12.332 3.58477 12.332 3.69141Z"/><path fill="#FFF5F5" d="M9.46094 6.58984H4.53906C4.31236 6.58984 4.12891 6.40639 4.12891 6.17969C4.12891 5.95298 4.31236 5.76953 4.53906 5.76953H9.46094C9.68764 5.76953 9.87109 5.95298 9.87109 6.17969C9.87109 6.40639 9.68764 6.58984 9.46094 6.58984Z"/><path fill="#FFF5F5" d="M9.46094 8.23047H4.53906C4.31236 8.23047 4.12891 8.04702 4.12891 7.82031C4.12891 7.59361 4.31236 7.41016 4.53906 7.41016H9.46094C9.68764 7.41016 9.87109 7.59361 9.87109 7.82031C9.87109 8.04702 9.68764 8.23047 9.46094 8.23047Z"/><path fill="#FFF5F5" d="M9.46094 9.87109H4.53906C4.31236 9.87109 4.12891 9.68764 4.12891 9.46094C4.12891 9.23423 4.31236 9.05078 4.53906 9.05078H9.46094C9.68764 9.05078 9.87109 9.23423 9.87109 9.46094C9.87109 9.68764 9.68764 9.87109 9.46094 9.87109Z"/><path fill="#FFF5F5" d="M7.82031 11.5117H4.53906C4.31236 11.5117 4.12891 11.3283 4.12891 11.1016C4.12891 10.8749 4.31236 10.6914 4.53906 10.6914H7.82031C8.04702 10.6914 8.23047 10.8749 8.23047 11.1016C8.23047 11.3283 8.04702 11.5117 7.82031 11.5117Z"/><path fill="#E3E7EA" d="M7 11.5117H7.82031C8.04702 11.5117 8.23047 11.3283 8.23047 11.1016C8.23047 10.8749 8.04702 10.6914 7.82031 10.6914H7V11.5117Z"/><path fill="#E3E7EA" d="M7 9.87109H9.46094C9.68764 9.87109 9.87109 9.68764 9.87109 9.46094C9.87109 9.23423 9.68764 9.05078 9.46094 9.05078H7V9.87109Z"/><path fill="#E3E7EA" d="M7 8.23047H9.46094C9.68764 8.23047 9.87109 8.04702 9.87109 7.82031C9.87109 7.59361 9.68764 7.41016 9.46094 7.41016H7V8.23047Z"/><path fill="#E3E7EA" d="M7 6.58984H9.46094C9.68764 6.58984 9.87109 6.40639 9.87109 6.17969C9.87109 5.95298 9.68764 5.76953 9.46094 5.76953H7V6.58984Z"/></svg>