<svg width="14" height="14" viewBox="0 0 14 14" fill="none" xmlns="http://www.w3.org/2000/svg">
<path d="M0.143795 8.0418C-0.0479317 7.13628 -0.0479317 6.20065 0.143795 5.29513C0.883795 5.38179 1.53046 5.13713 1.74113 4.6278C1.95246 4.11779 1.66913 3.48779 1.08379 3.02579C1.58849 2.25001 2.25001 1.58849 3.02579 1.08379C3.48713 1.66846 4.11779 1.95246 4.6278 1.74113C5.1378 1.5298 5.38246 0.883795 5.29513 0.143795C6.20065 -0.0479317 7.13628 -0.0479317 8.0418 0.143795C7.95513 0.883795 8.19979 1.53046 8.70913 1.74113C9.21913 1.95246 9.84913 1.66913 10.3111 1.08379C11.0869 1.58849 11.7484 2.25001 12.2531 3.02579C11.6685 3.48713 11.3845 4.11779 11.5958 4.6278C11.8071 5.1378 12.4531 5.38246 13.1931 5.29513C13.3849 6.20065 13.3849 7.13628 13.1931 8.0418C12.4531 7.95513 11.8065 8.19979 11.5958 8.70913C11.3845 9.21913 11.6678 9.84913 12.2531 10.3111C11.7484 11.0869 11.0869 11.7484 10.3111 12.2531C9.8498 11.6685 9.21913 11.3845 8.70913 11.5958C8.19913 11.8071 7.95446 12.4531 8.0418 13.1931C7.13628 13.3849 6.20065 13.3849 5.29513 13.1931C5.38179 12.4531 5.13713 11.8065 4.6278 11.5958C4.11779 11.3845 3.48779 11.6678 3.02579 12.2531C2.25001 11.7484 1.58849 11.0869 1.08379 10.3111C1.66846 9.8498 1.95246 9.21913 1.74113 8.70913C1.5298 8.19913 0.883795 7.95446 0.143795 8.0418ZM1.33513 6.80846C2.06846 7.0118 2.67313 7.47646 2.97313 8.19913C3.27246 8.92246 3.17313 9.67913 2.79846 10.3405C2.86246 10.4085 2.92846 10.4745 2.99646 10.5385C3.65846 10.1638 4.41446 10.0651 5.1378 10.3638C5.86046 10.6638 6.32513 11.2685 6.52846 12.0018C6.62179 12.0045 6.71513 12.0045 6.80846 12.0018C7.0118 11.2685 7.47646 10.6638 8.19913 10.3638C8.92246 10.0645 9.67913 10.1638 10.3405 10.5385C10.4085 10.4745 10.4745 10.4085 10.5385 10.3405C10.1638 9.67846 10.0651 8.92246 10.3638 8.19913C10.6638 7.47646 11.2685 7.0118 12.0018 6.80846C12.0045 6.71513 12.0045 6.62179 12.0018 6.52846C11.2685 6.32513 10.6638 5.86046 10.3638 5.1378C10.0645 4.41446 10.1638 3.65779 10.5385 2.99646C10.4742 2.92873 10.4082 2.8627 10.3405 2.79846C9.67846 3.17313 8.92246 3.27179 8.19913 2.97313C7.47646 2.67313 7.0118 2.06846 6.80846 1.33513C6.71514 1.33266 6.62178 1.33266 6.52846 1.33513C6.32513 2.06846 5.86046 2.67313 5.1378 2.97313C4.41446 3.27246 3.65779 3.17313 2.99646 2.79846C2.92846 2.86246 2.86246 2.92846 2.79846 2.99646C3.17313 3.65846 3.27179 4.41446 2.97313 5.1378C2.67313 5.86046 2.06846 6.32513 1.33513 6.52846C1.33246 6.62179 1.33246 6.71513 1.33513 6.80846Z" fill="#575757"/>
</svg>
