<svg xmlns="http://www.w3.org/2000/svg" width="12" height="13" fill="none" viewBox="0 0 12 13"><path fill="#858282" d="M2.73793 4.35956C2.85358 4.78278 3.10513 5.15626 3.45387 5.42248C3.80261 5.68871 4.22919 5.83291 4.66793 5.83289H7.3346C8.11995 5.83295 8.88007 6.11025 9.48098 6.6159C10.0819 7.12155 10.485 7.8231 10.6193 8.59689C11.0717 8.74451 11.4568 9.0486 11.7052 9.45455C11.9536 9.8605 12.0492 10.3417 11.9748 10.8118C11.9003 11.2819 11.6608 11.71 11.2991 12.0194C10.9373 12.3287 10.4772 12.499 10.0013 12.4996C9.53562 12.4999 9.08444 12.3378 8.72553 12.0411C8.36662 11.7445 8.12247 11.3319 8.03517 10.8745C7.94788 10.4171 8.02292 9.94358 8.24736 9.53559C8.47179 9.1276 8.83155 8.81071 9.2646 8.63956C9.14896 8.21633 8.8974 7.84286 8.54866 7.57663C8.19992 7.31041 7.77334 7.16621 7.3346 7.16623H4.66793C3.94653 7.16729 3.24442 6.93325 2.66793 6.49956V8.61289C3.11293 8.77016 3.488 9.07969 3.72684 9.48676C3.96568 9.89384 4.05292 10.3722 3.97314 10.8374C3.89336 11.3026 3.65169 11.7246 3.29085 12.0288C2.93001 12.333 2.47324 12.4999 2.00127 12.4999C1.5293 12.4999 1.07252 12.333 0.711685 12.0288C0.350845 11.7246 0.109175 11.3026 0.0293919 10.8374C-0.0503916 10.3722 0.0368488 9.89384 0.275693 9.48676C0.514537 9.07969 0.889604 8.77016 1.3346 8.61289V4.38623C0.892583 4.23016 0.519399 3.92385 0.280168 3.52074C0.0409361 3.11762 -0.0491525 2.6433 0.0256224 2.18055C0.100397 1.71779 0.335287 1.29599 0.689305 0.988735C1.04332 0.681481 1.49399 0.508291 1.96266 0.499385C2.43133 0.490479 2.88825 0.646423 3.25369 0.940005C3.61912 1.23359 3.86987 1.64617 3.96217 2.10575C4.05447 2.56533 3.98247 3.04272 3.75872 3.45464C3.53498 3.86655 3.1737 4.18682 2.73793 4.35956ZM2.00127 3.16623C2.17808 3.16623 2.34765 3.09599 2.47267 2.97096C2.59769 2.84594 2.66793 2.67637 2.66793 2.49956C2.66793 2.32275 2.59769 2.15318 2.47267 2.02815C2.34765 1.90313 2.17808 1.83289 2.00127 1.83289C1.82446 1.83289 1.65489 1.90313 1.52986 2.02815C1.40484 2.15318 1.3346 2.32275 1.3346 2.49956C1.3346 2.67637 1.40484 2.84594 1.52986 2.97096C1.65489 3.09599 1.82446 3.16623 2.00127 3.16623ZM2.00127 11.1662C2.17808 11.1662 2.34765 11.096 2.47267 10.971C2.59769 10.8459 2.66793 10.6764 2.66793 10.4996C2.66793 10.3227 2.59769 10.1532 2.47267 10.0282C2.34765 9.90313 2.17808 9.83289 2.00127 9.83289C1.82446 9.83289 1.65489 9.90313 1.52986 10.0282C1.40484 10.1532 1.3346 10.3227 1.3346 10.4996C1.3346 10.6764 1.40484 10.8459 1.52986 10.971C1.65489 11.096 1.82446 11.1662 2.00127 11.1662ZM10.0013 11.1662C10.1781 11.1662 10.3476 11.096 10.4727 10.971C10.5977 10.8459 10.6679 10.6764 10.6679 10.4996C10.6679 10.3227 10.5977 10.1532 10.4727 10.0282C10.3476 9.90313 10.1781 9.83289 10.0013 9.83289C9.82446 9.83289 9.65489 9.90313 9.52986 10.0282C9.40484 10.1532 9.3346 10.3227 9.3346 10.4996C9.3346 10.6764 9.40484 10.8459 9.52986 10.971C9.65489 11.096 9.82446 11.1662 10.0013 11.1662Z"/></svg>