<svg width="18" height="18" viewBox="0 0 18 18" fill="none" xmlns="http://www.w3.org/2000/svg">
<path d="M11 7H7V11H11V7ZM13 7V11H16V7H13ZM11 16V13H7V16H11ZM13 16H16V13H13V16ZM11 2H7V5H11V2ZM13 2V5H16V2H13ZM5 7H2V11H5V7ZM5 16V13H2V16H5ZM5 2H2V5H5V2ZM1 0H17C17.2652 0 17.5196 0.105357 17.7071 0.292893C17.8946 0.48043 18 0.734784 18 1V17C18 17.2652 17.8946 17.5196 17.7071 17.7071C17.5196 17.8946 17.2652 18 17 18H1C0.734784 18 0.48043 17.8946 0.292893 17.7071C0.105357 17.5196 0 17.2652 0 17V1C0 0.734784 0.105357 0.48043 0.292893 0.292893C0.48043 0.105357 0.734784 0 1 0Z" fill="#000"/>
</svg>
