<svg xmlns="http://www.w3.org/2000/svg" width="20" height="20" fill="none" viewBox="0 0 20 20"><path fill="#E9E9E9" fill-rule="evenodd" d="M8.19231 9.61818C9.99427 9.61818 11.4551 8.13665 11.4551 6.30909C11.4551 4.48153 9.99427 3 8.19231 3C6.39034 3 4.92956 4.48153 4.92956 6.30909C4.92956 8.13665 6.39034 9.61818 8.19231 9.61818ZM16.0833 6.74692V4.80303H14.5833V6.74692H12.6667V8.26823H14.5833V10.2121H16.0833V8.26823H18V6.74692H16.0833ZM5.15456 10.6909C3.41234 10.6909 2 12.1032 2 13.8454C2 15.5877 3.41235 17 5.15456 17H11.3945C13.1367 17 14.549 15.5877 14.549 13.8454C14.549 12.1032 13.1367 10.6909 11.3945 10.6909H5.15456Z" clip-rule="evenodd"/></svg>