<svg xmlns="http://www.w3.org/2000/svg" width="14" height="14" fill="none" viewBox="0 0 14 14"><path fill="#4B4848" d="M7.05273 13.7158C7.30566 13.7158 7.51074 13.5312 7.55176 13.2578C8.13965 8.70508 8.78223 8.05566 13.2324 7.56348C13.5127 7.53613 13.7109 7.33105 13.7109 7.06445C13.7109 6.79785 13.5127 6.59277 13.2324 6.55859C8.78223 6.07324 8.13965 5.42383 7.55176 0.864258C7.51074 0.59082 7.30566 0.413086 7.05273 0.413086C6.7998 0.413086 6.59473 0.59082 6.55371 0.864258C5.96582 5.42383 5.32324 6.07324 0.873047 6.55859C0.592773 6.59277 0.394531 6.79785 0.394531 7.06445C0.394531 7.33105 0.592773 7.53613 0.873047 7.56348C5.32324 8.15137 5.9248 8.71191 6.55371 13.2578C6.59473 13.5312 6.7998 13.7158 7.05273 13.7158Z"/></svg>