<svg width="15" height="15" viewBox="0 0 15 15" fill="none" xmlns="http://www.w3.org/2000/svg">
<path fill-rule="evenodd" clip-rule="evenodd" d="M2.5 1H12.5C13.3284 1 14 1.67157 14 2.5V12.5C14 13.3284 13.3284 14 12.5 14H2.5C1.67157 14 1 13.3284 1 12.5V2.5C1 1.67157 1.67157 1 2.5 1ZM10.8536 5.85355C11.0488 5.65829 11.0488 5.34171 10.8536 5.14645C10.6583 4.95118 10.3417 4.95118 10.1464 5.14645L6.5 8.79289L4.85355 7.14645C4.65829 6.95118 4.34171 6.95118 4.14645 7.14645C3.95118 7.34171 3.95118 7.65829 4.14645 7.85355L6.14645 9.85355L6.5 10.2071L6.85355 9.85355L10.8536 5.85355Z" fill="#364252"/>
</svg>
