<svg xmlns="http://www.w3.org/2000/svg" width="24" height="24" fill="none"><rect width="23" height="23" x=".5" y=".5" fill="#FFF7F4" rx="1.5"/><rect width="23" height="23" x=".5" y=".5" stroke="#FFE9E0" rx="1.5"/><path fill="#FF6D2D" d="M4.5 11a2 2 0 1 0 0 4v-4M19.5 11a2 2 0 1 1 0 4v-4"/><rect width="15" height="10" x="4.5" y="8" fill="#fff" stroke="#000" stroke-miterlimit="10" stroke-width=".149" rx="3"/><rect width="12" height="7" x="6" y="9.5" fill="#fff" stroke="#000" stroke-miterlimit="10" stroke-width=".5" rx="1.5"/><circle cx="9" cy="12" r="1" fill="#000"/><circle cx="15" cy="12" r="1" fill="#000"/><path fill="#000" d="M11.5 5.5h1V8h-1z"/><circle cx="12" cy="4.5" r="1.5" fill="#fff" stroke="#000" stroke-miterlimit="10" stroke-width=".149"/><path stroke="#000" stroke-linecap="round" stroke-width=".5" d="m10 14 .209.232A2.426 2.426 0 0 0 14 14v0"/></svg>