<svg xmlns="http://www.w3.org/2000/svg" width="20" height="12" fill="none" viewBox="0 0 20 12"><path fill="#4B4848" fill-rule="evenodd" d="M0 0H20V12H0V0ZM2 10V2H18V10H2Z" clip-rule="evenodd"/><path fill="#4B4848" d="M4.5915 5.6705C4.82608 6.08262 5.16738 6.42392 5.5795 6.6585L5.8005 6.349C5.83604 6.29923 5.88859 6.26422 5.9482 6.25058C6.00781 6.23695 6.07036 6.24563 6.124 6.275C6.47758 6.46823 6.86805 6.58444 7.26975 6.616C7.33244 6.62097 7.39096 6.64938 7.43364 6.69558C7.47631 6.74178 7.50001 6.80236 7.5 6.86525V7.98075C7.50001 8.04265 7.47706 8.10235 7.43559 8.1483C7.39412 8.19425 7.33708 8.22319 7.2755 8.2295C7.143 8.24325 7.0095 8.25 6.875 8.25C4.735 8.25 3 6.515 3 4.375C3 4.2405 3.00675 4.107 3.0205 3.9745C3.02681 3.91292 3.05575 3.85588 3.1017 3.81441C3.14765 3.77294 3.20735 3.74999 3.26925 3.75H4.38475C4.44764 3.74999 4.50822 3.77369 4.55442 3.81636C4.60062 3.85904 4.62903 3.91756 4.634 3.98025C4.66556 4.38195 4.78177 4.77242 4.975 5.126C5.00437 5.17964 5.01305 5.24219 4.99942 5.3018C4.98578 5.36141 4.95077 5.41396 4.901 5.4495L4.5915 5.6705ZM3.961 5.50625L4.436 5.167C4.3012 4.87602 4.20884 4.56721 4.16175 4.25H3.5025C3.501 4.2915 3.50025 4.33325 3.50025 4.375C3.5 6.239 5.011 7.75 6.875 7.75C6.91675 7.75 6.9585 7.74925 7 7.7475V7.08825C6.68279 7.04116 6.37398 6.9488 6.083 6.814L5.74375 7.289C5.60717 7.23593 5.4745 7.17327 5.34675 7.1015L5.33225 7.09325C4.84189 6.81418 4.43582 6.40811 4.15675 5.91775L4.1485 5.90325C4.07673 5.7755 4.01407 5.64283 3.961 5.50625Z"/></svg>