<svg xmlns="http://www.w3.org/2000/svg" width="56" height="24" fill="none"><rect width="55" height="23" x=".5" y=".5" fill="#fff" rx="2.5"/><rect width="55" height="23" x=".5" y=".5" stroke="#CDD5DF" rx="2.5"/><path stroke="#CC3D00" d="M9.258 16.157c2.633 2.633 6.887 3.292 9.876.686.241-.21.366-.522.366-.842 0-.32-.127-.627-.354-.854l-1.939-1.939a1 1 0 0 0-1.414 0l-1.586 1.586a1 1 0 0 1-1.414 0l-2.586-2.586a1 1 0 0 1 0-1.414l1.586-1.586a1 1 0 0 0 0-1.414l-1.94-1.94A1.207 1.207 0 0 0 9 5.502c-.32 0-.631.125-.843.365-2.72 3.096-1.903 7.287 1.1 10.291Z"/></svg>