<svg width="32" height="32" viewBox="0 0 32 32" fill="none" xmlns="http://www.w3.org/2000/svg">
<path d="M28 6H4C2.89543 6 2 6.89543 2 8V24C2 25.1046 2.89543 26 4 26H28C29.1046 26 30 25.1046 30 24V8C30 6.89543 29.1046 6 28 6Z" stroke="#262F33" stroke-width="2" stroke-linecap="round" stroke-linejoin="round"/>
<path d="M18 12V16M18 20V16M24 12L20.5858 15.4142C20.2107 15.7893 19.702 16 19.1716 16H18" stroke="#262F33" stroke-width="2" stroke-linecap="round" stroke-linejoin="round"/>
<path d="M18 20V16V12M24 20L20 16" stroke="#262F33" stroke-width="2" stroke-linecap="round" stroke-linejoin="round"/>
<path d="M8 17V15C8 13.3431 9.34315 12 11 12C12.6569 12 14 13.3431 14 15V17C14 18.6569 12.6569 20 11 20C9.34315 20 8 18.6569 8 17Z" stroke="#262F33" stroke-width="2" stroke-linecap="round" stroke-linejoin="round"/>
<path d="M2 24V26C2 27.1046 2.89543 28 4 28H28C29.1046 28 30 27.1046 30 26V24" stroke="#262F33" stroke-width="2" stroke-linecap="square"/>
</svg>
