<svg width="15" height="15" viewBox="0 0 15 15" fill="none" xmlns="http://www.w3.org/2000/svg">
<path d="M11.5 2.5H3.5C1.84315 2.5 0.5 3.84315 0.5 5.5V9.5C0.5 11.1569 1.84315 12.5 3.5 12.5H11.5C13.1569 12.5 14.5 11.1569 14.5 9.5V5.5C14.5 3.84315 13.1569 2.5 11.5 2.5Z" stroke="#364252" stroke-linecap="round" stroke-linejoin="round"/>
<path d="M8.5 5.5V7.5M8.5 9.5V7.5M11.5 5.5L9.79289 7.20711C9.60536 7.39464 9.351 7.5 9.08579 7.5H8.5" stroke="#364252" stroke-linecap="round" stroke-linejoin="round"/>
<path d="M8.5 9.5V7.5V5.5M11.5 9.5L9.5 7.5" stroke="#364252" stroke-linecap="round" stroke-linejoin="round"/>
<path d="M3.5 8V7C3.5 6.17157 4.17157 5.5 5 5.5C5.82843 5.5 6.5 6.17157 6.5 7V8C6.5 8.82843 5.82843 9.5 5 9.5C4.17157 9.5 3.5 8.82843 3.5 8Z" stroke="#364252" stroke-linecap="round" stroke-linejoin="round"/>
<path d="M0.5 10.5V10.5C0.5 12.1569 1.84315 13.5 3.5 13.5H11.5C13.1569 13.5 14.5 12.1569 14.5 10.5V10.5" stroke="#364252" stroke-linecap="square"/>
</svg>
