<svg xmlns="http://www.w3.org/2000/svg" width="16" height="16" fill="none"><path stroke="#000" stroke-linecap="round" stroke-linejoin="round" d="M11.5 2.5h-8a3 3 0 0 0-3 3v4a3 3 0 0 0 3 3h8a3 3 0 0 0 3-3v-4a3 3 0 0 0-3-3Z"/><path stroke="#000" stroke-linecap="round" stroke-linejoin="round" d="M8.5 5.5v2m0 2v-2m3-2L9.793 7.207a1 1 0 0 1-.707.293H8.5M8.5 9.5v-4m3 4-2-2M3.5 8V7a1.5 1.5 0 1 1 3 0v1a1.5 1.5 0 1 1-3 0Z"/><path stroke="#000" stroke-linecap="square" d="M.5 9.5v1a3 3 0 0 0 3 3h8a3 3 0 0 0 3-3v-1"/></svg>